<?xml version="1.0" standalone="no"?>
<!DOCTYPE svg PUBLIC "-//W3C//DTD SVG 1.1//EN" "http://www.w3.org/Graphics/SVG/1.1/DTD/svg11.dtd" >
<svg xmlns="http://www.w3.org/2000/svg" xmlns:xlink="http://www.w3.org/1999/xlink" version="1.1" viewBox="-10 0 888 1000">
   <path fill="currentColor"
d="M181 880l-156 -733h96l77 399c14 79 29 158 43 237h4c17 -79 35 -158 53 -237l101 -399h84l103 399c18 78 35 157 52 237h5c14 -80 28 -159 42 -237l77 -399h89l-152 733h-111l-111 -442c-13 -58 -24 -111 -36 -167h-4c-12 56 -25 109 -37 167l-109 442h-110z" />
</svg>
