<?xml version="1.0" standalone="no"?>
<!DOCTYPE svg PUBLIC "-//W3C//DTD SVG 1.1//EN" "http://www.w3.org/Graphics/SVG/1.1/DTD/svg11.dtd" >
<svg xmlns="http://www.w3.org/2000/svg" xmlns:xlink="http://www.w3.org/1999/xlink" version="1.1" viewBox="-10 0 565 1000">
   <path fill="currentColor"
d="M78 765l-48 -50l71 -73c-26 -35 -40 -78 -40 -129c0 -53 14 -97 40 -131l-71 -74l48 -50l76 78c34 -27 78 -42 124 -42c44 0 88 15 123 42l76 -78l48 50l-72 74c26 34 41 78 41 131c0 51 -15 94 -41 129l72 73l-48 50l-76 -77c-35 27 -79 42 -123 42
c-46 0 -89 -15 -124 -42zM278 662c72 0 132 -60 132 -149s-60 -151 -132 -151c-73 0 -133 62 -133 151s60 149 133 149z" />
</svg>
