<?xml version="1.0" standalone="no"?>
<!DOCTYPE svg PUBLIC "-//W3C//DTD SVG 1.1//EN" "http://www.w3.org/Graphics/SVG/1.1/DTD/svg11.dtd" >
<svg xmlns="http://www.w3.org/2000/svg" xmlns:xlink="http://www.w3.org/1999/xlink" version="1.1" viewBox="-10 0 395 1000">
   <path fill="currentColor"
d="M152 448c-66 0 -110 -42 -110 -105c0 -79 67 -119 222 -133c-1 -48 -17 -83 -69 -83c-40 0 -84 19 -113 38l-26 -47c36 -23 91 -47 149 -47c89 0 127 55 127 149v219h-54l-9 -42h-4c-30 27 -68 51 -113 51zM173 393c29 0 58 -15 91 -45v-95c-115 13 -155 43 -155 84
c0 38 24 56 64 56z" />
</svg>
