<?xml version="1.0" standalone="no"?>
<!DOCTYPE svg PUBLIC "-//W3C//DTD SVG 1.1//EN" "http://www.w3.org/Graphics/SVG/1.1/DTD/svg11.dtd" >
<svg xmlns="http://www.w3.org/2000/svg" xmlns:xlink="http://www.w3.org/1999/xlink" version="1.1" viewBox="-10 0 913 1000">
   <path fill="currentColor"
d="M165 582v-344h-94v-47c48 -9 77 -22 107 -44h58v435h-71zM179 893l404 -760h62l-405 760h-61zM551 880v-41c135 -122 206 -190 206 -257c0 -56 -32 -92 -84 -92c-37 0 -69 28 -93 64l-43 -39c33 -50 86 -84 145 -84c87 0 145 49 145 141c0 84 -69 152 -162 247h185v61
h-299z" />
</svg>
