<?xml version="1.0" standalone="no"?>
<!DOCTYPE svg PUBLIC "-//W3C//DTD SVG 1.1//EN" "http://www.w3.org/Graphics/SVG/1.1/DTD/svg11.dtd" >
<svg xmlns="http://www.w3.org/2000/svg" xmlns:xlink="http://www.w3.org/1999/xlink" version="1.1" viewBox="-10 0 624 1000">
   <path fill="currentColor"
d="M438 -54l61 4c-3 86 -46 138 -113 138c-84 0 -113 -80 -166 -80c-28 0 -49 27 -54 75l-62 -6c4 -84 47 -136 114 -136c84 0 113 79 166 79c28 0 48 -26 54 -74zM191 582h222l-35 -112c-27 -83 -50 -163 -74 -248h-4c-23 86 -47 165 -73 248zM506 880l-70 -224h-268
l-71 224h-94l249 -733h103l249 733h-98z" />
</svg>
