<?xml version="1.0" standalone="no"?>
<!DOCTYPE svg PUBLIC "-//W3C//DTD SVG 1.1//EN" "http://www.w3.org/Graphics/SVG/1.1/DTD/svg11.dtd" >
<svg xmlns="http://www.w3.org/2000/svg" xmlns:xlink="http://www.w3.org/1999/xlink" version="1.1" viewBox="-10 0 652 1000">
   <path fill="currentColor"
d="M432 893c-61 0 -112 -21 -157 -55l36 -63c39 32 76 47 119 47c62 0 95 -42 95 -89c0 -130 -221 -104 -221 -261c0 -100 99 -133 99 -227c0 -57 -33 -98 -94 -98c-79 0 -127 58 -127 174v559h-90v-576c0 -140 79 -231 218 -231c117 0 182 74 182 163
c0 111 -102 149 -102 226c0 109 221 84 221 266c0 93 -69 165 -179 165z" />
</svg>
