<?xml version="1.0" standalone="no"?>
<!DOCTYPE svg PUBLIC "-//W3C//DTD SVG 1.1//EN" "http://www.w3.org/Graphics/SVG/1.1/DTD/svg11.dtd" >
<svg xmlns="http://www.w3.org/2000/svg" xmlns:xlink="http://www.w3.org/1999/xlink" version="1.1" viewBox="-10 0 574 1000">
   <path fill="currentColor"
d="M217 893c-91 0 -159 -56 -159 -154c0 -118 103 -177 334 -203c0 -70 -23 -137 -112 -137c-63 0 -120 29 -163 58l-36 -63c50 -32 127 -71 214 -71c132 0 188 89 188 223v334h-75l-8 -65h-3c-52 43 -113 78 -180 78zM243 820c53 0 96 -25 149 -72v-152
c-183 22 -245 67 -245 137c0 62 42 87 96 87zM293 261c-75 0 -122 -46 -122 -110s47 -110 122 -110s122 46 122 110s-47 110 -122 110zM293 220c36 0 64 -27 64 -69s-28 -69 -64 -69c-35 0 -64 27 -64 69s29 69 64 69z" />
</svg>
