<?xml version="1.0" standalone="no"?>
<!DOCTYPE svg PUBLIC "-//W3C//DTD SVG 1.1//EN" "http://www.w3.org/Graphics/SVG/1.1/DTD/svg11.dtd" >
<svg xmlns="http://www.w3.org/2000/svg" xmlns:xlink="http://www.w3.org/1999/xlink" version="1.1" viewBox="-10 0 531 1000">
   <path fill="currentColor"
d="M101 1114c-26 0 -47 -4 -64 -11l18 -73c11 4 27 9 41 9c62 0 101 -50 123 -117l12 -41l-218 -544h95l111 302c16 47 35 103 52 152h5c15 -49 31 -104 46 -152l97 -302h89l-205 588c-38 107 -94 189 -202 189zM164 224c-32 0 -55 -25 -55 -55c0 -32 23 -56 55 -56
s55 24 55 56c0 30 -23 55 -55 55zM379 224c-32 0 -55 -25 -55 -55c0 -32 23 -56 55 -56s55 24 55 56c0 30 -23 55 -55 55z" />
</svg>
