<?xml version="1.0" standalone="no"?>
<!DOCTYPE svg PUBLIC "-//W3C//DTD SVG 1.1//EN" "http://www.w3.org/Graphics/SVG/1.1/DTD/svg11.dtd" >
<svg xmlns="http://www.w3.org/2000/svg" xmlns:xlink="http://www.w3.org/1999/xlink" version="1.1" viewBox="-10 0 617 1000">
   <path fill="currentColor"
d="M250 893c-114 0 -165 -74 -165 -212v-344h91v333c0 101 30 144 102 144c56 0 95 -27 147 -92v-385h91v543h-76l-7 -85h-3c-51 59 -105 98 -180 98zM385 235c-79 0 -109 -94 -161 -94c-33 0 -49 35 -52 89l-61 -4c4 -87 35 -152 113 -152s108 95 161 95
c33 0 48 -37 51 -88l61 3c-3 85 -35 151 -112 151z" />
</svg>
