<?xml version="1.0" standalone="no"?>
<!DOCTYPE svg PUBLIC "-//W3C//DTD SVG 1.1//EN" "http://www.w3.org/Graphics/SVG/1.1/DTD/svg11.dtd" >
<svg xmlns="http://www.w3.org/2000/svg" xmlns:xlink="http://www.w3.org/1999/xlink" version="1.1" viewBox="-10 0 731 1000">
   <path fill="currentColor"
d="M360 893c-149 0 -263 -80 -263 -316v-430h93v433c0 177 75 232 170 232c98 0 175 -55 175 -232v-433h89v430c0 236 -114 316 -264 316zM361 92c-104 0 -154 -66 -164 -144l57 -9c8 52 43 94 107 94c63 0 98 -42 107 -94l56 9c-10 78 -60 144 -163 144z" />
</svg>
