<?xml version="1.0" standalone="no"?>
<!DOCTYPE svg PUBLIC "-//W3C//DTD SVG 1.1//EN" "http://www.w3.org/Graphics/SVG/1.1/DTD/svg11.dtd" >
<svg xmlns="http://www.w3.org/2000/svg" xmlns:xlink="http://www.w3.org/1999/xlink" version="1.1" viewBox="-10 0 641 1000">
   <path fill="currentColor"
d="M89 1079v-748c0 -149 71 -260 223 -260c105 0 204 62 204 192c0 81 -40 144 -109 186v5c108 15 175 96 175 210c0 147 -103 229 -213 229c-68 0 -139 -21 -194 -83c3 92 4 178 6 269h-92zM348 817c79 0 143 -59 143 -158c0 -87 -50 -153 -153 -153c-19 0 -38 3 -56 7
l-14 -70c115 -23 159 -101 159 -173c0 -84 -53 -126 -114 -126c-84 0 -134 70 -135 200c-2 129 -3 257 -3 388c53 67 116 85 173 85z" />
</svg>
