<?xml version="1.0" standalone="no"?>
<!DOCTYPE svg PUBLIC "-//W3C//DTD SVG 1.1//EN" "http://www.w3.org/Graphics/SVG/1.1/DTD/svg11.dtd" >
<svg xmlns="http://www.w3.org/2000/svg" xmlns:xlink="http://www.w3.org/1999/xlink" version="1.1" viewBox="-10 0 575 1000">
   <path fill="currentColor"
d="M555 880l-101 9c-58 -67 -130 -176 -181 -276c-17 21 -34 43 -51 67c-33 44 -44 101 -45 172v28h-85v-394c0 -44 -1 -101 -10 -149h90c7 29 10 79 10 127v170h4c86 -149 207 -282 324 -311l8 87c-60 19 -122 65 -189 138c54 107 143 243 226 332z" />
</svg>
