<?xml version="1.0" standalone="no"?>
<!DOCTYPE svg PUBLIC "-//W3C//DTD SVG 1.1//EN" "http://www.w3.org/Graphics/SVG/1.1/DTD/svg11.dtd" >
<svg xmlns="http://www.w3.org/2000/svg" xmlns:xlink="http://www.w3.org/1999/xlink" version="1.1" viewBox="-10 0 779 1000">
   <path fill="currentColor"
d="M569 345l89 -22c33 92 48 166 48 260c0 195 -105 306 -282 310v186h-84v-186c-183 -2 -264 -108 -264 -262v-145c0 -44 -1 -92 -8 -149h89c6 38 7 79 7 127c0 59 -2 138 -2 173c0 108 57 180 178 182v-634h84v634c121 -4 190 -77 190 -234c0 -81 -11 -144 -45 -240z" />
</svg>
