<?xml version="1.0" standalone="no"?>
<!DOCTYPE svg PUBLIC "-//W3C//DTD SVG 1.1//EN" "http://www.w3.org/Graphics/SVG/1.1/DTD/svg11.dtd" >
<svg xmlns="http://www.w3.org/2000/svg" xmlns:xlink="http://www.w3.org/1999/xlink" version="1.1" viewBox="-10 0 520 1000">
   <path fill="currentColor"
d="M247 893c-76 0 -142 -17 -206 -69l39 -59c51 42 104 55 159 55c75 0 135 -37 135 -97c0 -62 -50 -93 -139 -93h-75v-65h62c87 0 131 -33 131 -86c0 -56 -47 -83 -113 -83c-63 0 -104 17 -148 48l-38 -60c52 -37 112 -61 191 -61c105 0 197 48 197 146
c0 53 -33 99 -90 121v5c64 16 114 58 114 135c0 101 -103 163 -219 163z" />
</svg>
