<?xml version="1.0" standalone="no"?>
<!DOCTYPE svg PUBLIC "-//W3C//DTD SVG 1.1//EN" "http://www.w3.org/Graphics/SVG/1.1/DTD/svg11.dtd" >
<svg xmlns="http://www.w3.org/2000/svg" xmlns:xlink="http://www.w3.org/1999/xlink" version="1.1" viewBox="-10 0 641 1000">
   <path fill="currentColor"
d="M92 880v-543h89v227c0 57 -6 130 -9 200h4c21 -33 52 -83 72 -116l206 -311h85v543h-89v-227c0 -57 5 -130 9 -201h-4c-21 34 -52 84 -72 117l-206 311h-85zM319 239c-125 0 -170 -84 -175 -170h74c3 63 26 117 101 117c74 0 97 -54 99 -117h75c-4 86 -49 170 -174 170z
" />
</svg>
