<?xml version="1.0" standalone="no"?>
<!DOCTYPE svg PUBLIC "-//W3C//DTD SVG 1.1//EN" "http://www.w3.org/Graphics/SVG/1.1/DTD/svg11.dtd" >
<svg xmlns="http://www.w3.org/2000/svg" xmlns:xlink="http://www.w3.org/1999/xlink" version="1.1" viewBox="-10 0 930 1000">
   <path fill="currentColor"
d="M489 596l-38 58c-68 -30 -113 -84 -139 -142c-32 112 -107 210 -211 257l-48 -60c129 -55 211 -191 211 -316v-116h82v120c0 60 46 154 143 199zM672 277v116c0 85 46 182 155 226l-44 60c-73 -32 -121 -86 -148 -150c-30 115 -98 220 -200 272l-38 -64
c123 -65 193 -212 193 -340v-120h82z" />
</svg>
