<?xml version="1.0" standalone="no"?>
<!DOCTYPE svg PUBLIC "-//W3C//DTD SVG 1.1//EN" "http://www.w3.org/Graphics/SVG/1.1/DTD/svg11.dtd" >
<svg xmlns="http://www.w3.org/2000/svg" xmlns:xlink="http://www.w3.org/1999/xlink" version="1.1" viewBox="-10 0 930 1000">
   <path fill="currentColor"
d="M483 552l-42 64c-64 -19 -106 -52 -132 -96c-25 94 -77 174 -164 217l-51 -64c119 -54 165 -179 165 -298v-54h-124v-67h314v67h-109v54c0 85 41 155 143 177zM676 321v54c0 87 43 183 152 225l-45 63c-66 -28 -110 -74 -138 -128c-24 99 -78 170 -172 209l-49 -64
c125 -42 171 -154 171 -305v-54h-109v-67h313v67h-123z" />
</svg>
