<?xml version="1.0" standalone="no"?>
<!DOCTYPE svg PUBLIC "-//W3C//DTD SVG 1.1//EN" "http://www.w3.org/Graphics/SVG/1.1/DTD/svg11.dtd" >
<svg xmlns="http://www.w3.org/2000/svg" xmlns:xlink="http://www.w3.org/1999/xlink" version="1.1" viewBox="-10 0 930 1000">
   <path fill="currentColor"
d="M178 529v148c48 -1 98 -4 161 -15l7 65c-80 15 -140 15 -202 15h-39v-276h149v-136h-151v-63h223v262h-148zM526 680v-351h-104v351h104zM758 262v134c0 97 19 222 114 288l-48 54c-54 -38 -85 -96 -104 -163c-16 68 -48 131 -104 169l-26 -30v29h-231v-476h231v405
c77 -68 92 -185 92 -276v-134h76z" />
</svg>
