<?xml version="1.0" standalone="no"?>
<!DOCTYPE svg PUBLIC "-//W3C//DTD SVG 1.1//EN" "http://www.w3.org/Graphics/SVG/1.1/DTD/svg11.dtd" >
<svg xmlns="http://www.w3.org/2000/svg" xmlns:xlink="http://www.w3.org/1999/xlink" version="1.1" viewBox="-10 0 930 1000">
   <path fill="currentColor"
d="M232 535v141c74 -1 146 -5 231 -22l9 66c-101 20 -182 23 -271 23h-50v-275h209v-135h-211v-66h292v268h-209zM641 712c29 0 49 -15 49 -43s-20 -44 -49 -44c-30 0 -49 16 -49 44s19 43 49 43zM641 575c57 0 110 36 110 94s-53 95 -110 95c-58 0 -110 -37 -110 -95
s52 -94 110 -94zM719 484v-86h-154v86h154zM719 261h74v283h-303v-283h75v77h154v-77z" />
</svg>
