<?xml version="1.0" standalone="no"?>
<!DOCTYPE svg PUBLIC "-//W3C//DTD SVG 1.1//EN" "http://www.w3.org/Graphics/SVG/1.1/DTD/svg11.dtd" >
<svg xmlns="http://www.w3.org/2000/svg" xmlns:xlink="http://www.w3.org/1999/xlink" version="1.1" viewBox="-10 0 930 1000">
   <path fill="currentColor"
d="M280 667v-337h-115v337h115zM757 264v147c0 86 11 210 104 272l-47 56c-51 -36 -80 -91 -95 -151c-21 67 -56 129 -119 165c-61 -36 -96 -98 -117 -164c-16 60 -44 114 -96 150l-40 -48v42h-248v-469h248v414c86 -62 97 -181 97 -267v-147h75v147c0 80 16 184 81 251
c67 -66 82 -169 82 -251v-147h75z" />
</svg>
