<?xml version="1.0" standalone="no"?>
<!DOCTYPE svg PUBLIC "-//W3C//DTD SVG 1.1//EN" "http://www.w3.org/Graphics/SVG/1.1/DTD/svg11.dtd" >
<svg xmlns="http://www.w3.org/2000/svg" xmlns:xlink="http://www.w3.org/1999/xlink" version="1.1" viewBox="-10 0 930 1000">
   <path fill="currentColor"
d="M228 336v336h150v-336h-150zM156 738v-467h295v467h-295zM647 693c48 0 81 -36 81 -90c0 -53 -33 -90 -81 -90s-81 37 -81 90c0 54 33 90 81 90zM647 449c85 0 150 63 150 154s-65 154 -150 154s-151 -63 -151 -154s66 -154 151 -154zM687 346h128v66h-338v-66h131v-94
h79v94z" />
</svg>
