<?xml version="1.0" standalone="no"?>
<!DOCTYPE svg PUBLIC "-//W3C//DTD SVG 1.1//EN" "http://www.w3.org/Graphics/SVG/1.1/DTD/svg11.dtd" >
<svg xmlns="http://www.w3.org/2000/svg" xmlns:xlink="http://www.w3.org/1999/xlink" version="1.1" viewBox="-10 0 930 1000">
   <path fill="currentColor"
d="M295 688c48 0 82 -37 82 -90s-34 -90 -82 -90c-47 0 -81 37 -81 90s34 90 81 90zM295 444c86 0 151 62 151 154c0 91 -65 153 -151 153c-85 0 -151 -62 -151 -153c0 -92 66 -154 151 -154zM339 245v97h126v66h-342v-66h136v-97h80zM567 676h222v67h-300v-278h199v-135
h-202v-63h280v260h-199v149z" />
</svg>
