<?xml version="1.0" standalone="no"?>
<!DOCTYPE svg PUBLIC "-//W3C//DTD SVG 1.1//EN" "http://www.w3.org/Graphics/SVG/1.1/DTD/svg11.dtd" >
<svg xmlns="http://www.w3.org/2000/svg" xmlns:xlink="http://www.w3.org/1999/xlink" version="1.1" viewBox="-10 0 930 1000">
   <path fill="currentColor"
d="M137 340v-66h311v468h-81v-402h-230zM659 695c47 0 81 -37 81 -90s-34 -90 -81 -90c-48 0 -82 37 -82 90s34 90 82 90zM659 451c85 0 151 63 151 154s-66 153 -151 153c-86 0 -151 -62 -151 -153s65 -154 151 -154zM702 345h128v67h-341v-67h133v-91h80v91z" />
</svg>
