<?xml version="1.0" standalone="no"?>
<!DOCTYPE svg PUBLIC "-//W3C//DTD SVG 1.1//EN" "http://www.w3.org/Graphics/SVG/1.1/DTD/svg11.dtd" >
<svg xmlns="http://www.w3.org/2000/svg" xmlns:xlink="http://www.w3.org/1999/xlink" version="1.1" viewBox="-10 0 624 1000">
   <path fill="currentColor"
d="M300 -5l-123 104l-40 -30l117 -125h96l117 125l-40 30l-123 -104h-4zM302 991c35 0 60 24 60 58c0 37 -25 61 -60 61s-60 -24 -60 -61c0 -34 25 -58 60 -58zM191 582h222l-35 -112c-27 -83 -50 -163 -74 -248h-4c-23 86 -47 165 -73 248zM604 880h-98l-70 -224h-268
l-71 224h-94l249 -733h103z" />
</svg>
