<?xml version="1.0" standalone="no"?>
<!DOCTYPE svg PUBLIC "-//W3C//DTD SVG 1.1//EN" "http://www.w3.org/Graphics/SVG/1.1/DTD/svg11.dtd" >
<svg xmlns="http://www.w3.org/2000/svg" xmlns:xlink="http://www.w3.org/1999/xlink" version="1.1" viewBox="-10 0 574 1000">
   <path fill="currentColor"
d="M217 893c-91 0 -159 -56 -159 -154c0 -118 103 -177 334 -203c0 -70 -23 -137 -112 -137c-63 0 -120 29 -163 58l-36 -63c50 -32 127 -71 214 -71c132 0 188 89 188 223v334h-75l-8 -65h-3c-52 43 -113 78 -180 78zM243 820c53 0 96 -25 149 -72v-152
c-183 22 -245 67 -245 137c0 62 42 87 96 87zM293 242c-109 0 -154 -63 -160 -119l51 -9c7 37 40 76 109 76c70 0 103 -39 110 -76l51 9c-7 56 -50 119 -161 119zM136 83c6 -57 30 -98 85 -98c65 0 98 46 141 46c22 0 31 -16 37 -47l51 4c-5 57 -29 99 -84 99
c-65 0 -98 -47 -141 -47c-22 0 -31 16 -36 48z" />
</svg>
