<?xml version="1.0" standalone="no"?>
<!DOCTYPE svg PUBLIC "-//W3C//DTD SVG 1.1//EN" "http://www.w3.org/Graphics/SVG/1.1/DTD/svg11.dtd" >
<svg xmlns="http://www.w3.org/2000/svg" xmlns:xlink="http://www.w3.org/1999/xlink" version="1.1" viewBox="-10 0 616 1000">
   <path fill="currentColor"
d="M303 893c-133 0 -252 -104 -252 -284c0 -181 119 -286 252 -286s252 105 252 286c0 180 -119 284 -252 284zM303 817c94 0 158 -83 158 -208s-64 -210 -158 -210s-157 85 -157 210s63 208 157 208zM304 1110c-35 0 -60 -24 -60 -61c0 -34 25 -58 60 -58s60 24 60 58
c0 37 -25 61 -60 61z" />
</svg>
