<?xml version="1.0" standalone="no"?>
<!DOCTYPE svg PUBLIC "-//W3C//DTD SVG 1.1//EN" "http://www.w3.org/Graphics/SVG/1.1/DTD/svg11.dtd" >
<svg xmlns="http://www.w3.org/2000/svg" xmlns:xlink="http://www.w3.org/1999/xlink" version="1.1" viewBox="-10 0 752 1000">
   <path fill="currentColor"
d="M499 -54l61 4c-4 86 -47 138 -113 138c-84 0 -113 -80 -165 -80c-29 0 -51 27 -55 75l-62 -6c5 -84 47 -136 114 -136c84 0 112 79 165 79c29 0 49 -26 55 -74zM374 812c131 0 218 -118 218 -301c0 -184 -87 -297 -218 -297s-218 113 -218 297c0 183 87 301 218 301z
M595 12l72 -32c15 25 25 57 25 90c0 73 -45 116 -119 136c71 65 114 170 114 305c0 235 -129 382 -313 382s-313 -147 -313 -382s129 -378 313 -378c54 0 103 12 145 35c62 -12 92 -40 92 -92c0 -22 -6 -46 -16 -64z" />
</svg>
