<?xml version="1.0" standalone="no"?>
<!DOCTYPE svg PUBLIC "-//W3C//DTD SVG 1.1//EN" "http://www.w3.org/Graphics/SVG/1.1/DTD/svg11.dtd" >
<svg xmlns="http://www.w3.org/2000/svg" xmlns:xlink="http://www.w3.org/1999/xlink" version="1.1" viewBox="-10 0 1010 1000">
   <path fill="currentColor"
d="M371 825c85 0 136 -48 136 -121c0 -95 -80 -126 -189 -172c-53 40 -97 85 -97 157c0 80 61 136 150 136zM253 333c0 80 67 119 162 158c46 -49 75 -93 75 -148c0 -68 -45 -122 -123 -122c-64 0 -114 43 -114 112zM469 515v4c73 44 126 86 126 187c0 106 -85 187 -226 187
c-137 0 -231 -82 -231 -195c0 -99 66 -156 132 -194v-4c-58 -43 -101 -92 -101 -167c0 -109 86 -180 200 -180c125 0 201 77 201 185c0 70 -50 131 -101 177zM728 1071l-22 -56c63 -27 100 -76 100 -136c-3 1 -7 1 -10 1c-37 0 -69 -22 -69 -64c0 -41 33 -65 70 -65
c50 0 79 41 79 109c0 97 -56 174 -148 211z" />
</svg>
