<?xml version="1.0" standalone="no"?>
<!DOCTYPE svg PUBLIC "-//W3C//DTD SVG 1.1//EN" "http://www.w3.org/Graphics/SVG/1.1/DTD/svg11.dtd" >
<svg xmlns="http://www.w3.org/2000/svg" xmlns:xlink="http://www.w3.org/1999/xlink" version="1.1" viewBox="-10 0 1010 1000">
   <path fill="currentColor"
d="M353 532c45 0 103 -23 151 -93c-12 -140 -69 -213 -153 -213c-73 0 -127 61 -127 155c0 100 47 151 129 151zM148 817l52 -57c29 37 77 56 125 56c96 0 177 -76 181 -304c-44 57 -110 90 -168 90c-120 0 -201 -75 -201 -221c0 -137 98 -228 212 -228
c136 0 243 114 243 342c0 288 -124 398 -262 398c-81 0 -141 -31 -182 -76zM729 1071l-23 -56c63 -27 101 -76 101 -136c-4 1 -7 1 -11 1c-36 0 -68 -22 -68 -64c0 -41 32 -65 70 -65c49 0 78 41 78 109c0 97 -56 174 -147 211z" />
</svg>
