<?xml version="1.0" standalone="no"?>
<!DOCTYPE svg PUBLIC "-//W3C//DTD SVG 1.1//EN" "http://www.w3.org/Graphics/SVG/1.1/DTD/svg11.dtd" >
<svg xmlns="http://www.w3.org/2000/svg" xmlns:xlink="http://www.w3.org/1999/xlink" version="1.1" viewBox="-10 0 1010 1000">
   <path fill="currentColor"
d="M360 816c87 0 146 -88 146 -297s-59 -289 -146 -289c-86 0 -145 80 -145 289s59 297 145 297zM360 153c140 0 238 126 238 366c0 242 -98 374 -238 374s-238 -132 -238 -374c0 -240 98 -366 238 -366zM736 1071l-22 -56c62 -27 100 -76 100 -136c-3 1 -7 1 -10 1
c-37 0 -69 -22 -69 -64c0 -41 33 -65 70 -65c50 0 79 41 79 109c0 97 -56 174 -148 211z" />
</svg>
