<?xml version="1.0" standalone="no"?>
<!DOCTYPE svg PUBLIC "-//W3C//DTD SVG 1.1//EN" "http://www.w3.org/Graphics/SVG/1.1/DTD/svg11.dtd" >
<svg xmlns="http://www.w3.org/2000/svg" xmlns:xlink="http://www.w3.org/1999/xlink" version="1.1" viewBox="-10 0 1010 1000">
   <path fill="currentColor"
d="M157 955c-89 -134 -125 -279 -125 -455c0 -175 36 -321 125 -455l45 14c-83 129 -111 280 -111 441c1 162 28 312 111 441zM286 855v-720h201c141 0 241 50 241 176c0 71 -39 133 -113 156v4c91 18 151 76 151 176c0 140 -108 208 -263 208h-217zM376 441h97
c116 0 164 -43 164 -122c0 -76 -53 -108 -160 -108h-101v230zM376 779h114c119 0 187 -43 187 -135c0 -90 -66 -132 -187 -132h-114v267zM843 955l-45 -14c83 -129 110 -279 111 -441c0 -161 -28 -312 -111 -441l45 -14c89 134 125 280 125 455c0 176 -36 321 -125 455z" />
</svg>
