<?xml version="1.0" standalone="no"?>
<!DOCTYPE svg PUBLIC "-//W3C//DTD SVG 1.1//EN" "http://www.w3.org/Graphics/SVG/1.1/DTD/svg11.dtd" >
<svg xmlns="http://www.w3.org/2000/svg" xmlns:xlink="http://www.w3.org/1999/xlink" version="1.1" viewBox="-10 0 1010 1000">
   <path fill="currentColor"
d="M500 966c-257 0 -466 -209 -466 -466s209 -466 466 -466s466 209 466 466c0 259 -211 466 -466 466zM500 934c240 0 434 -194 434 -434s-194 -434 -434 -434c-242 0 -434 196 -434 434c0 240 194 434 434 434zM479 765c-120 0 -195 -84 -195 -215
c0 -171 114 -327 277 -327c59 0 106 32 133 80l-57 43c-19 -33 -47 -53 -83 -53c-113 0 -187 124 -187 248c0 92 37 153 128 153c39 0 72 -17 105 -44l35 53c-35 31 -90 62 -156 62z" />
</svg>
