<?xml version="1.0" standalone="no"?>
<!DOCTYPE svg PUBLIC "-//W3C//DTD SVG 1.1//EN" "http://www.w3.org/Graphics/SVG/1.1/DTD/svg11.dtd" >
<svg xmlns="http://www.w3.org/2000/svg" xmlns:xlink="http://www.w3.org/1999/xlink" version="1.1" viewBox="-10 0 1010 1000">
   <path fill="currentColor"
d="M500 966c-257 0 -466 -209 -466 -466s209 -466 466 -466s466 209 466 466c0 259 -211 466 -466 466zM500 765c143 0 243 -105 243 -273s-100 -269 -243 -269s-244 100 -244 269c0 168 101 273 244 273zM500 694c-95 0 -157 -78 -157 -202s62 -198 157 -198
s156 74 156 198s-61 202 -156 202z" />
</svg>
