<?xml version="1.0" standalone="no"?>
<!DOCTYPE svg PUBLIC "-//W3C//DTD SVG 1.1//EN" "http://www.w3.org/Graphics/SVG/1.1/DTD/svg11.dtd" >
<svg xmlns="http://www.w3.org/2000/svg" xmlns:xlink="http://www.w3.org/1999/xlink" version="1.1" viewBox="-10 0 1010 1000">
   <path fill="currentColor"
d="M250 950c-126 0 -200 -74 -200 -200v-500c0 -126 74 -200 200 -200h500c126 0 200 74 200 200v500c0 126 -74 200 -200 200h-500zM267 753h84l49 -145h195l49 145h88l-185 -518h-95zM419 544l26 -72c18 -58 33 -112 51 -169h4c5 15 48 153 52 169l24 72h-157z" />
</svg>
