<?xml version="1.0" standalone="no"?>
<!DOCTYPE svg PUBLIC "-//W3C//DTD SVG 1.1//EN" "http://www.w3.org/Graphics/SVG/1.1/DTD/svg11.dtd" >
<svg xmlns="http://www.w3.org/2000/svg" xmlns:xlink="http://www.w3.org/1999/xlink" version="1.1" viewBox="-10 0 1010 1000">
   <path fill="currentColor"
d="M250 950c-126 0 -200 -74 -200 -200v-500c0 -126 74 -200 200 -200h500c126 0 200 74 200 200v500c0 126 -74 200 -200 200h-500zM287 765c99 0 159 -65 159 -151c0 -87 -46 -115 -106 -146l-51 -26c-39 -20 -64 -38 -64 -82s28 -70 71 -70c38 0 74 21 103 50l39 -54
c-32 -33 -78 -63 -141 -63c-89 0 -150 56 -150 143c0 75 49 115 105 141l51 26c37 19 64 38 64 88c0 47 -29 78 -78 78c-46 0 -90 -27 -126 -67l-39 57c39 44 97 76 163 76zM490 753h79l36 -145h144l35 145h83l-143 -518h-90zM618 544l19 -72c15 -58 26 -112 38 -169h4
c14 56 25 111 40 169l17 72h-118z" />
</svg>
