<?xml version="1.0" standalone="no"?>
<!DOCTYPE svg PUBLIC "-//W3C//DTD SVG 1.1//EN" "http://www.w3.org/Graphics/SVG/1.1/DTD/svg11.dtd" >
<svg xmlns="http://www.w3.org/2000/svg" xmlns:xlink="http://www.w3.org/1999/xlink" version="1.1" viewBox="-10 0 1010 1000">
   <path fill="currentColor"
d="M880 283l-44 46c-14 -22 -36 -39 -59 -39c-29 0 -46 21 -46 58c0 97 159 137 159 289c0 78 -52 128 -124 128c-54 0 -96 -30 -126 -73l46 -48c18 31 48 55 79 55c37 0 56 -22 56 -58c0 -116 -159 -156 -159 -290c0 -78 47 -128 113 -128c48 0 82 28 105 60zM504 694
c35 0 56 -54 56 -202s-21 -198 -56 -198c-37 0 -57 50 -57 198s19 202 57 202zM504 765c-76 0 -127 -81 -127 -273s51 -269 127 -269c74 0 125 77 125 269s-51 273 -125 273zM333 283l-45 46c-14 -22 -37 -39 -58 -39c-30 0 -47 21 -47 58c0 97 160 137 160 289
c0 78 -53 128 -125 128c-54 0 -96 -30 -126 -73l46 -48c19 31 48 55 79 55c37 0 56 -22 56 -58c0 -116 -159 -156 -159 -290c0 -78 47 -128 113 -128c48 0 83 28 106 60zM81 919h838v-838h-838v838zM50 950v-900h900v900h-900z" />
</svg>
