<?xml version="1.0" standalone="no"?>
<!DOCTYPE svg PUBLIC "-//W3C//DTD SVG 1.1//EN" "http://www.w3.org/Graphics/SVG/1.1/DTD/svg11.dtd" >
<svg xmlns="http://www.w3.org/2000/svg" xmlns:xlink="http://www.w3.org/1999/xlink" version="1.1" viewBox="-10 0 1010 1000">
   <path fill="currentColor"
d="M397 641l55 -23c21 36 43 83 52 113l-57 27c-9 -31 -31 -81 -50 -117zM714 463h-108c0 127 -14 303 -95 422c-10 -13 -37 -34 -51 -41c74 -112 82 -265 82 -382v-258c92 -15 202 -40 261 -66l56 51c-69 27 -165 48 -253 62v147h262v65h-91v414h-63v-414zM499 215v57h-345
v-57h153c-5 -24 -13 -53 -20 -75l61 -7c9 25 19 57 25 82h126zM300 527v-74h-157v-58h90c-4 -30 -16 -75 -31 -110l52 -12c16 34 30 81 34 111l-43 11h115c15 -37 31 -87 39 -122l59 14c-14 37 -27 76 -40 108h97v58h-151v74h142v59h-142v229c0 32 -5 48 -25 59
c-20 10 -49 11 -89 11c-3 -18 -11 -42 -20 -59c28 0 51 1 60 0c8 0 10 -3 10 -11v-229h-155v-59h155zM205 623l62 15c-17 65 -47 135 -79 180c-12 -10 -37 -28 -52 -37c31 -42 55 -100 69 -158zM919 919v-838h-838v838h838zM50 50h900v900h-900v-900z" />
</svg>
