<?xml version="1.0" standalone="no"?>
<!DOCTYPE svg PUBLIC "-//W3C//DTD SVG 1.1//EN" "http://www.w3.org/Graphics/SVG/1.1/DTD/svg11.dtd" >
<svg xmlns="http://www.w3.org/2000/svg" xmlns:xlink="http://www.w3.org/1999/xlink" version="1.1" viewBox="-10 0 1010 1000">
   <path fill="currentColor"
d="M84 707v-60h834v60h-473c-51 54 -108 105 -165 148l432 -22c-32 -30 -67 -58 -101 -83l58 -33c82 58 174 141 216 202l-62 37c-13 -20 -31 -43 -54 -67c-511 29 -566 32 -602 43v-4c-1 1 -1 2 -1 3c-4 -12 -15 -45 -22 -61c20 -3 41 -17 69 -38c23 -15 82 -66 138 -125
h-267zM304 511h387c-78 -40 -146 -84 -196 -126c-55 47 -120 89 -191 126zM536 300l34 15c-9 10 -18 20 -29 30c92 72 261 155 420 196c-16 14 -39 43 -51 61c-61 -18 -125 -44 -185 -73v41h-451v-44c-59 29 -122 55 -186 77c-10 -16 -34 -45 -50 -59
c167 -53 327 -131 425 -219v-100c-104 63 -227 115 -339 153c-11 -15 -36 -43 -53 -55c137 -38 282 -98 388 -171h-381v-64h849v64h-362c-8 8 -18 16 -29 24v124zM918 319l-46 52c-71 -44 -202 -108 -309 -145l47 -48c105 37 237 99 308 141z" />
</svg>
