<?xml version="1.0" standalone="no"?>
<!DOCTYPE svg PUBLIC "-//W3C//DTD SVG 1.1//EN" "http://www.w3.org/Graphics/SVG/1.1/DTD/svg11.dtd" >
<svg xmlns="http://www.w3.org/2000/svg" xmlns:xlink="http://www.w3.org/1999/xlink" version="1.1" viewBox="-10 0 1010 1000">
   <path fill="currentColor"
d="M888 402l53 38c-38 41 -82 87 -121 121c57 54 113 110 146 150l-48 44c-36 -47 -103 -116 -169 -178v177c0 34 -7 50 -32 60c-23 10 -61 11 -118 11c-3 -17 -13 -42 -21 -58c42 1 79 1 90 1c11 -1 15 -4 15 -15v-434h66v180l32 27c36 -36 81 -87 107 -124zM631 429l36 13
c-29 160 -94 272 -179 335c-9 -13 -31 -34 -44 -43c70 -48 125 -132 153 -244h-114v-60h138zM838 143h-363v99h363v-99zM908 303h-433c-1 148 -19 358 -123 502c-13 -10 -42 -26 -59 -33c103 -140 114 -339 114 -479v-211h501v221zM237 860h559c70 0 87 -14 92 -100
c20 11 51 21 72 25c-12 118 -44 143 -173 143h-535c-122 0 -175 -44 -175 -113c0 -56 9 -116 207 -620h-214v-68h258l17 -1l39 11c-1 5 -3 12 -3 18c-219 544 -231 601 -231 650c0 38 34 55 87 55z" />
</svg>
