<?xml version="1.0" standalone="no"?>
<!DOCTYPE svg PUBLIC "-//W3C//DTD SVG 1.1//EN" "http://www.w3.org/Graphics/SVG/1.1/DTD/svg11.dtd" >
<svg xmlns="http://www.w3.org/2000/svg" xmlns:xlink="http://www.w3.org/1999/xlink" version="1.1" viewBox="-10 0 1010 1000">
   <path fill="currentColor"
d="M413 358h455s-1 26 -3 36c-36 340 -70 472 -119 521c-23 25 -47 32 -83 34c-31 3 -90 2 -149 -2c-1 -22 -10 -51 -23 -71c63 6 122 7 146 7c22 0 35 -2 48 -14c39 -35 72 -156 103 -439h-424c-50 0 -83 5 -92 14c-5 -16 -20 -50 -31 -67c27 -5 67 -24 109 -50
c37 -22 145 -92 244 -174h-485v-72h570l17 -8l54 43c-117 98 -230 179 -337 242z" />
</svg>
