<?xml version="1.0" standalone="no"?>
<!DOCTYPE svg PUBLIC "-//W3C//DTD SVG 1.1//EN" "http://www.w3.org/Graphics/SVG/1.1/DTD/svg11.dtd" >
<svg xmlns="http://www.w3.org/2000/svg" xmlns:xlink="http://www.w3.org/1999/xlink" version="1.1" viewBox="-10 0 1010 1000">
   <path fill="currentColor"
d="M197 678v-61h610v61h-264v196c0 43 -12 62 -48 72c-37 10 -97 10 -187 10c-4 -20 -16 -48 -27 -67c70 3 141 3 159 2c19 -2 25 -5 25 -20v-193h-268zM672 255v-63h-340v63h340zM332 493h340v-65h-340v65zM672 373v-64h-340v64h340zM938 192h-193v301h181v184h-69v-125
h-714v125h-66v-184h184v-301h-197v-61h395v-91h77v91h402v61z" />
</svg>
