<?xml version="1.0" standalone="no"?>
<!DOCTYPE svg PUBLIC "-//W3C//DTD SVG 1.1//EN" "http://www.w3.org/Graphics/SVG/1.1/DTD/svg11.dtd" >
<svg xmlns="http://www.w3.org/2000/svg" xmlns:xlink="http://www.w3.org/1999/xlink" version="1.1" viewBox="-10 0 1010 1000">
   <path fill="currentColor"
d="M615 134h-131l-8 62h133c2 -21 4 -42 6 -62zM810 196l6 -62h-142l-7 62h143zM653 313h148l6 -67h-145c-3 25 -6 47 -9 67zM469 246l-9 67h133c4 -20 7 -43 10 -67h-134zM310 189h100l15 -107h464l-10 107h78v64h-83l-11 111h-476l14 -111h-91v-64zM271 48l71 21
c-29 76 -63 150 -102 220v666h-71v-551c-28 41 -59 79 -89 113c-8 -18 -30 -56 -43 -73c94 -97 181 -246 234 -396zM510 804l66 23c-58 53 -154 102 -235 133c-12 -14 -36 -41 -52 -53c81 -24 170 -61 221 -103zM808 520v-63h-349v63h349zM808 633v-63h-349v63h349zM808 748
v-65h-349v65h349zM881 405v395h-492v-395h492zM693 841l46 -41c79 35 167 81 219 115l-58 43c-49 -34 -131 -81 -207 -117z" />
</svg>
