<?xml version="1.0" standalone="no"?>
<!DOCTYPE svg PUBLIC "-//W3C//DTD SVG 1.1//EN" "http://www.w3.org/Graphics/SVG/1.1/DTD/svg11.dtd" >
<svg xmlns="http://www.w3.org/2000/svg" xmlns:xlink="http://www.w3.org/1999/xlink" version="1.1" viewBox="-10 0 1010 1000">
   <path fill="currentColor"
d="M726 361l-42 -13c19 -42 42 -110 53 -155l56 17c-22 51 -46 113 -67 151zM445 210l45 -14c24 46 44 108 51 148l-49 14c-6 -40 -26 -101 -47 -148zM402 156v234h182v-234h-182zM837 390v-234h-193v234h193zM579 518v-70h-245v-349h573v349h-257v70h243v61h-243v89h303v63
h-660v-63h286v-89h-222v-61h222zM235 49l69 19c-22 66 -48 132 -78 195v693h-71v-560c-30 50 -61 95 -94 134c-7 -18 -27 -57 -39 -75c86 -100 165 -252 213 -406zM326 958l-54 -38c57 -37 99 -105 121 -167l57 25c-24 66 -63 137 -124 180zM505 781l56 -9
c17 53 32 123 36 169l-60 10c-2 -47 -15 -116 -32 -170zM646 779l54 -14c28 51 56 119 67 163l-57 17c-9 -45 -37 -114 -64 -166zM791 769l54 -24c46 56 96 132 118 182l-57 28c-22 -51 -71 -128 -115 -186z" />
</svg>
