<?xml version="1.0" standalone="no"?>
<!DOCTYPE svg PUBLIC "-//W3C//DTD SVG 1.1//EN" "http://www.w3.org/Graphics/SVG/1.1/DTD/svg11.dtd" >
<svg xmlns="http://www.w3.org/2000/svg" xmlns:xlink="http://www.w3.org/1999/xlink" version="1.1" viewBox="-10 0 623 1000">
   <path fill="currentColor"
d="M130 659l-12 -424l-3 -104h93l-3 104l-12 424h-63zM161 893c-36 0 -66 -28 -66 -69s30 -71 66 -71c37 0 66 30 66 71s-29 69 -66 69zM420 659l-12 -424l-3 -104h93l-3 104l-13 424h-62zM451 893c-36 0 -66 -28 -66 -69s30 -71 66 -71c37 0 67 30 67 71s-30 69 -67 69z
" />
</svg>
