<?xml version="1.0" standalone="no"?>
<!DOCTYPE svg PUBLIC "-//W3C//DTD SVG 1.1//EN" "http://www.w3.org/Graphics/SVG/1.1/DTD/svg11.dtd" >
<svg xmlns="http://www.w3.org/2000/svg" xmlns:xlink="http://www.w3.org/1999/xlink" version="1.1" viewBox="-10 0 1010 1000">
   <path fill="currentColor"
d="M901 71v695h-69v-695h69zM670 268v-120h-185v-62h253v248h-177c-4 41 -8 82 -13 119h205s-1 20 -2 31c-9 173 -19 241 -41 265c-17 18 -34 24 -61 26c-23 3 -67 2 -111 0c-2 -21 -9 -47 -20 -65c44 4 88 4 104 4c15 0 24 -1 32 -9c12 -13 21 -64 28 -191h-203
c9 -64 20 -166 26 -246h165zM483 869h330c68 0 80 -16 87 -101c18 11 47 21 67 25c-13 111 -39 141 -152 141h-329c-141 0 -179 -23 -179 -115v-311h-84c-7 203 -27 361 -139 452c-8 -16 -31 -43 -47 -55c97 -78 113 -216 118 -397h-104v-70h187v-158h-92
c-14 47 -29 89 -48 123c-13 -9 -42 -23 -59 -30c42 -73 66 -183 80 -292l65 12c-5 40 -12 80 -21 118h75v-168h69v168h127v69h-127v158h144v70h-76v310c0 41 16 51 108 51z" />
</svg>
