<?xml version="1.0" standalone="no"?>
<!DOCTYPE svg PUBLIC "-//W3C//DTD SVG 1.1//EN" "http://www.w3.org/Graphics/SVG/1.1/DTD/svg11.dtd" >
<svg xmlns="http://www.w3.org/2000/svg" xmlns:xlink="http://www.w3.org/1999/xlink" version="1.1" viewBox="-10 0 1010 1000">
   <path fill="currentColor"
d="M307 57h212c72 101 263 168 449 193c-14 14 -36 42 -44 61c-154 -27 -311 -82 -406 -160c-106 77 -283 141 -435 167c-9 -21 -26 -48 -42 -65c147 -17 315 -72 414 -138h-148v-58zM691 463v-50h-158v50h158zM691 557v-48h-158v48h158zM691 653v-50h-158v50h158zM533 740
h-66v-216c-20 31 -40 59 -61 84c-8 -13 -30 -41 -43 -55c61 -68 114 -172 146 -276l62 16c-7 23 -14 45 -23 68h136c-9 -22 -19 -44 -30 -64l62 -18c15 24 32 57 42 82h175v52h-176v50h165v46h-165v48h166v46h-166v50h183v53h-407v34zM418 666l-38 59
c-18 -31 -60 -89 -94 -135v366h-70v-318c-36 85 -80 162 -126 210c-12 -16 -34 -39 -49 -51c68 -62 135 -187 171 -306h-138v-66h142v-122h70v122h121v66h-121v18c32 35 114 132 132 157zM710 723v57h243v58h-243v119h-73v-119h-243v-58h243v-57h73z" />
</svg>
