<?xml version="1.0" standalone="no"?>
<!DOCTYPE svg PUBLIC "-//W3C//DTD SVG 1.1//EN" "http://www.w3.org/Graphics/SVG/1.1/DTD/svg11.dtd" >
<svg xmlns="http://www.w3.org/2000/svg" xmlns:xlink="http://www.w3.org/1999/xlink" version="1.1" viewBox="-10 0 1010 1000">
   <path fill="currentColor"
d="M282 274l-62 45c-29 -54 -98 -139 -156 -200l56 -40c58 59 130 141 162 195zM115 915l-64 -50c51 -78 125 -211 181 -326l54 47c-50 107 -116 233 -171 329zM813 731l-51 36c-29 -55 -85 -144 -138 -225c-22 88 -68 174 -158 247c-9 -15 -31 -35 -44 -45
c115 -94 149 -208 159 -314h-143v-61h147v-30v-136h61v136v30h160v61h-163c-1 12 -2 23 -4 35c63 89 137 202 174 266zM405 831h436v-664h-436v664zM337 100h575v848h-71v-50h-436v59h-68v-857z" />
</svg>
