<?xml version="1.0" standalone="no"?>
<!DOCTYPE svg PUBLIC "-//W3C//DTD SVG 1.1//EN" "http://www.w3.org/Graphics/SVG/1.1/DTD/svg11.dtd" >
<svg xmlns="http://www.w3.org/2000/svg" xmlns:xlink="http://www.w3.org/1999/xlink" version="1.1" viewBox="-10 0 1010 1000">
   <path fill="currentColor"
d="M944 95v68h-612v-68h612zM633 199l68 18c-30 54 -73 113 -109 163c49 58 100 130 126 176l-68 23c-24 -52 -78 -129 -135 -198c45 -60 93 -134 118 -182zM926 555l-67 24c-29 -52 -89 -129 -152 -198c46 -60 97 -135 124 -182l69 18c-32 55 -77 112 -115 163
c53 57 111 129 141 175zM517 557l-67 22c-24 -52 -73 -129 -127 -198c43 -60 90 -135 113 -183l69 18c-31 54 -71 114 -106 164c46 59 94 130 118 177zM282 274l-61 45c-30 -54 -98 -139 -157 -200l57 -40c57 59 129 141 161 195zM232 538l54 47c-50 108 -115 234 -171 329
l-64 -49c51 -78 125 -212 181 -327zM663 864h292v67h-680v-67h315v-184h-247v-66h566v66h-246v184z" />
</svg>
