<?xml version="1.0" standalone="no"?>
<!DOCTYPE svg PUBLIC "-//W3C//DTD SVG 1.1//EN" "http://www.w3.org/Graphics/SVG/1.1/DTD/svg11.dtd" >
<svg xmlns="http://www.w3.org/2000/svg" xmlns:xlink="http://www.w3.org/1999/xlink" version="1.1" viewBox="-10 0 1010 1000">
   <path fill="currentColor"
d="M235 209l-50 51c-26 -37 -83 -87 -134 -121l47 -47c50 32 110 80 137 117zM124 957l-68 -29c49 -42 94 -118 118 -189l69 17c-24 74 -66 153 -119 201zM109 664l-59 -45c42 -65 104 -173 149 -268l52 43c-41 88 -95 192 -142 270zM324 482v129h103v-129h-103zM427 147
h-103v104h103v-104zM527 425v-117h-203v117h203zM612 611v62h-352v-587h337v61h-111v104h104v231h-104v129h126zM347 764l68 -7c12 59 23 135 24 180l-71 10c-1 -46 -9 -123 -21 -183zM549 765l69 -13c27 57 54 134 64 181l-72 15c-10 -47 -36 -124 -61 -183zM749 619h116
c29 0 34 -14 37 -111c15 12 43 22 63 27c-8 118 -28 148 -95 148h-129c-76 0 -98 -20 -98 -93v-266h209v-173h-206v-66h271v305h-207v199c0 25 6 30 39 30zM752 758l68 -23c50 60 109 142 136 196l-74 27c-24 -53 -81 -138 -130 -200z" />
</svg>
