<?xml version="1.0" standalone="no"?>
<!DOCTYPE svg PUBLIC "-//W3C//DTD SVG 1.1//EN" "http://www.w3.org/Graphics/SVG/1.1/DTD/svg11.dtd" >
<svg xmlns="http://www.w3.org/2000/svg" xmlns:xlink="http://www.w3.org/1999/xlink" version="1.1" viewBox="-10 0 1010 1000">
   <path fill="currentColor"
d="M413 840l61 -9l4 60c-145 25 -294 49 -405 67l-13 -68c72 -9 174 -24 280 -39v-134h-258v-63h258v-115h73v301zM670 887h146c35 0 42 -16 46 -106c16 12 45 22 66 27c-9 109 -29 139 -105 139h-161c-91 0 -115 -21 -115 -93v-313h74v148c88 -24 178 -58 233 -90l55 51
c-77 40 -188 74 -288 99v104c0 29 7 34 49 34zM732 388l-48 45c-39 -27 -97 -58 -160 -87c-72 34 -148 64 -218 86c-9 -13 -31 -37 -46 -48c63 -17 132 -40 196 -67c-57 -24 -116 -46 -170 -62l45 -39c61 17 130 42 194 68c48 -23 91 -50 124 -77l61 24
c-34 29 -75 56 -121 81c56 25 106 52 143 76zM228 194v249h558v-249h-558zM859 443h85v153h-78v-90h-731v90h-76v-153h98v-312h254c20 -30 38 -67 51 -93l85 16c-17 26 -35 52 -53 77h365v312z" />
</svg>
