<?xml version="1.0" standalone="no"?>
<!DOCTYPE svg PUBLIC "-//W3C//DTD SVG 1.1//EN" "http://www.w3.org/Graphics/SVG/1.1/DTD/svg11.dtd" >
<svg xmlns="http://www.w3.org/2000/svg" xmlns:xlink="http://www.w3.org/1999/xlink" version="1.1" viewBox="-10 0 1010 1000">
   <path fill="currentColor"
d="M198 835h208c27 0 64 -3 85 -7c2 18 6 47 9 62c-17 5 -55 7 -96 7h-203c-98 0 -133 -35 -133 -142v-601h-24v-65h447v65h-359v604c0 58 18 77 66 77zM390 400v-126h-137v126h137zM445 225v224h-245v-224h245zM207 563v153h55v-153h-55zM168 766v-253h135v253h-135z
M442 717v-152h-61v152h61zM484 515v251h-144v-251h144zM559 926l-48 -24c24 -44 37 -118 44 -180l47 14c-7 66 -18 143 -43 190zM625 731l45 -10c15 53 26 120 27 165l-49 9c0 -44 -10 -111 -23 -164zM699 718l40 -13c23 39 44 93 53 128l-44 14c-7 -35 -28 -89 -49 -129z
M868 784l-36 19c-12 -29 -38 -74 -64 -107l35 -16c27 32 54 75 65 104zM835 207h-230v120h230v-120zM957 525h-352v74h340s0 20 -1 29c-11 201 -22 277 -44 302c-13 18 -29 24 -50 26c-19 2 -52 2 -85 -1c-1 -17 -7 -41 -15 -57c32 3 61 3 72 3c13 0 20 -1 27 -10
c14 -16 24 -75 32 -230h-339v-516h98c15 -32 31 -74 39 -102l72 13c-15 31 -31 63 -46 89h194v244h-294v74h352v62z" />
</svg>
