<?xml version="1.0" standalone="no"?>
<!DOCTYPE svg PUBLIC "-//W3C//DTD SVG 1.1//EN" "http://www.w3.org/Graphics/SVG/1.1/DTD/svg11.dtd" >
<svg xmlns="http://www.w3.org/2000/svg" xmlns:xlink="http://www.w3.org/1999/xlink" version="1.1" viewBox="-10 0 1010 1000">
   <path fill="currentColor"
d="M940 161h-734v224c0 164 -13 403 -103 566c-14 -12 -45 -30 -63 -37c85 -155 93 -374 93 -529v-293h807v69zM837 539l64 43c-57 47 -130 96 -192 133c64 76 147 136 244 170c-17 15 -39 42 -49 62c-187 -74 -314 -233 -385 -438h-127v332l213 -52c-1 22 1 52 3 68
c-247 67 -280 77 -302 91c-4 -19 -16 -51 -27 -68c18 -5 40 -18 40 -54v-561h570v68h-497v108h538v68h-341c22 57 50 111 83 159c59 -39 123 -89 165 -129z" />
</svg>
