<?xml version="1.0" standalone="no"?>
<!DOCTYPE svg PUBLIC "-//W3C//DTD SVG 1.1//EN" "http://www.w3.org/Graphics/SVG/1.1/DTD/svg11.dtd" >
<svg xmlns="http://www.w3.org/2000/svg" xmlns:xlink="http://www.w3.org/1999/xlink" version="1.1" viewBox="-10 0 1010 1000">
   <path fill="currentColor"
d="M635 497h-223c27 82 66 158 114 223c47 -64 85 -139 109 -223zM673 429l46 16c-29 133 -81 242 -147 329c52 55 113 98 182 127c-16 14 -38 40 -48 59c-67 -32 -126 -78 -178 -134c-46 51 -98 91 -153 122c-9 -17 -30 -42 -46 -55c55 -28 108 -69 154 -121
c-58 -78 -104 -172 -137 -275h-17v459h-69v-869h431v203c0 37 -8 58 -39 68c-31 12 -81 12 -161 12c-3 -20 -14 -47 -22 -66c60 2 115 2 131 1s20 -4 20 -16v-133h-291v275h332z" />
</svg>
