<?xml version="1.0" standalone="no"?>
<!DOCTYPE svg PUBLIC "-//W3C//DTD SVG 1.1//EN" "http://www.w3.org/Graphics/SVG/1.1/DTD/svg11.dtd" >
<svg xmlns="http://www.w3.org/2000/svg" xmlns:xlink="http://www.w3.org/1999/xlink" version="1.1" viewBox="-10 0 1010 1000">
   <path fill="currentColor"
d="M281 604h184c-37 -27 -76 -53 -112 -77c-21 28 -46 53 -72 77zM272 869h175v-46h-175v46zM447 696v-44h-175v44h175zM272 739v42h175v-42h-175zM596 643l-39 38c-13 -12 -28 -27 -47 -42v313h-63v-41h-175v44h-61v-297c-19 13 -37 24 -57 34c-3 -5 -7 -10 -12 -14
c-7 93 -23 190 -54 266c-11 -12 -38 -30 -53 -37c48 -122 52 -292 52 -414v-285h171v-164h68v61h194v51h-194v52h189l11 -2l41 10c-14 44 -31 93 -48 124l-51 -15c8 -17 17 -39 24 -62h-178v43l134 -12l4 42l-138 13v2c0 23 3 30 25 30h116c18 0 52 -1 67 -5c2 17 3 30 6 45
c-14 3 -43 4 -69 4h-137c-56 0 -68 -22 -69 -71l-76 7l-5 -43l81 -7v-48h-104v230c0 43 -1 93 -4 145c87 -48 167 -123 210 -203l48 18c-7 11 -14 24 -22 36c78 45 168 109 215 154zM439 480l33 -28c38 19 83 50 106 73l-34 31c-22 -24 -68 -57 -105 -76zM244 448l48 13
c-25 33 -64 71 -100 94c-8 -9 -27 -23 -39 -30c36 -23 70 -49 91 -77zM862 173h-189c18 153 46 295 90 415c47 -114 81 -253 99 -415zM889 103l40 12c-19 231 -64 416 -132 559c43 91 99 166 170 216c-16 12 -38 40 -48 59c-66 -51 -118 -119 -160 -202
c-50 87 -110 155 -177 206c-10 -18 -31 -46 -46 -60c73 -49 137 -124 189 -223c-55 -138 -90 -308 -112 -497h-40v-67h304z" />
</svg>
