<?xml version="1.0" standalone="no"?>
<!DOCTYPE svg PUBLIC "-//W3C//DTD SVG 1.1//EN" "http://www.w3.org/Graphics/SVG/1.1/DTD/svg11.dtd" >
<svg xmlns="http://www.w3.org/2000/svg" xmlns:xlink="http://www.w3.org/1999/xlink" version="1.1" viewBox="-10 0 1010 1000">
   <path fill="currentColor"
d="M286 206h-138v435h138v-435zM355 713h-207v77h-69v-656h276v579zM773 401h171s-1 25 -2 34c-16 321 -30 440 -65 479c-19 24 -38 32 -71 35c-31 3 -85 2 -144 -2c-2 -22 -10 -52 -23 -72c61 6 118 6 139 6c19 0 30 -2 40 -13c26 -26 41 -131 54 -399h-183
c20 -75 42 -186 59 -285h-173c-6 289 -26 607 -214 778c-12 -18 -36 -41 -53 -52c177 -156 191 -457 195 -726h-106v-69h432c-16 91 -37 200 -56 286z" />
</svg>
