<?xml version="1.0" standalone="no"?>
<!DOCTYPE svg PUBLIC "-//W3C//DTD SVG 1.1//EN" "http://www.w3.org/Graphics/SVG/1.1/DTD/svg11.dtd" >
<svg xmlns="http://www.w3.org/2000/svg" xmlns:xlink="http://www.w3.org/1999/xlink" version="1.1" viewBox="-10 0 1010 1000">
   <path fill="currentColor"
d="M863 214l-51 42c-24 -43 -82 -106 -134 -148l49 -37c52 42 110 101 136 143zM272 224h-125v388h125v-388zM342 682h-195v97h-69v-624h264v527zM809 422l58 36c-39 84 -95 167 -162 242c40 105 90 170 147 175c27 1 43 -53 53 -163c15 15 46 33 60 40
c-22 158 -60 209 -109 206c-89 -5 -157 -79 -208 -201c-77 74 -166 135 -258 175c-13 -18 -35 -41 -55 -55c104 -40 203 -109 287 -190c-29 -89 -50 -193 -67 -311l-182 20l-7 -69l180 -19c-9 -81 -17 -168 -22 -258h72c4 87 11 172 21 251l323 -33l7 67l-320 35
c14 94 31 180 53 254c54 -64 98 -132 129 -202z" />
</svg>
