<?xml version="1.0" standalone="no"?>
<!DOCTYPE svg PUBLIC "-//W3C//DTD SVG 1.1//EN" "http://www.w3.org/Graphics/SVG/1.1/DTD/svg11.dtd" >
<svg xmlns="http://www.w3.org/2000/svg" xmlns:xlink="http://www.w3.org/1999/xlink" version="1.1" viewBox="-10 0 1010 1000">
   <path fill="currentColor"
d="M247 178h-103v467h103v-467zM309 117v590h-165v97h-63v-687h228zM594 312h-123c-9 38 -20 75 -33 110c38 37 78 82 110 121c20 -69 36 -147 46 -231zM611 248l12 -3l43 11c-31 345 -131 571 -285 692c-9 -17 -30 -42 -47 -55c77 -56 141 -149 187 -273
c-25 -41 -66 -92 -108 -136c-13 28 -27 54 -41 78c-13 -11 -41 -33 -58 -42c74 -110 114 -283 136 -463l68 9c-8 63 -18 125 -31 182h124zM955 536l-50 47c-27 -44 -76 -107 -126 -166v532h-68v-903h68v277c65 68 140 156 176 213z" />
</svg>
