<?xml version="1.0" standalone="no"?>
<!DOCTYPE svg PUBLIC "-//W3C//DTD SVG 1.1//EN" "http://www.w3.org/Graphics/SVG/1.1/DTD/svg11.dtd" >
<svg xmlns="http://www.w3.org/2000/svg" xmlns:xlink="http://www.w3.org/1999/xlink" version="1.1" viewBox="-10 0 1010 1000">
   <path fill="currentColor"
d="M963 469l-59 24c-16 -73 -60 -188 -104 -272l54 -22c47 85 92 196 109 270zM780 44v607h-63v-607h63zM226 211h-87v396h87v-396zM286 141v535h-147v94h-61v-629h208zM564 524l-93 36v304c0 38 -8 56 -31 67c-22 11 -57 14 -115 14c-2 -18 -10 -46 -19 -65c40 1 74 1 86 1
c11 0 16 -4 16 -17v-281l-87 33l-22 -71c30 -10 68 -22 109 -37v-195h-99v-69h99v-199h63v199h84v69h-84v172l79 -29l8 37c29 -75 52 -181 67 -277l62 14c-21 113 -51 236 -82 315c-10 -7 -27 -16 -41 -23v2zM877 523l59 22c-66 196 -196 328 -388 402
c-8 -21 -24 -47 -40 -64c183 -62 308 -183 369 -360z" />
</svg>
