<?xml version="1.0" standalone="no"?>
<!DOCTYPE svg PUBLIC "-//W3C//DTD SVG 1.1//EN" "http://www.w3.org/Graphics/SVG/1.1/DTD/svg11.dtd" >
<svg xmlns="http://www.w3.org/2000/svg" xmlns:xlink="http://www.w3.org/1999/xlink" version="1.1" viewBox="-10 0 1010 1000">
   <path fill="currentColor"
d="M247 198h-113v401h113v-401zM308 131v535h-174v74h-60v-609h234zM542 139h-119v100h119v-100zM423 401h119v-104h-119v104zM605 80v379h-182v496h-68v-875h250zM731 401h124v-104h-124v104zM855 139h-124v100h124v-100zM923 80v783c0 44 -9 67 -38 80
c-28 11 -79 13 -151 13c-2 -20 -12 -54 -22 -73c54 3 106 2 123 1c16 -1 20 -5 20 -22v-403h-186v-379h254z" />
</svg>
