<?xml version="1.0" standalone="no"?>
<!DOCTYPE svg PUBLIC "-//W3C//DTD SVG 1.1//EN" "http://www.w3.org/Graphics/SVG/1.1/DTD/svg11.dtd" >
<svg xmlns="http://www.w3.org/2000/svg" xmlns:xlink="http://www.w3.org/1999/xlink" version="1.1" viewBox="-10 0 1010 1000">
   <path fill="currentColor"
d="M802 414v-258h-430v-65h580v65h-82v259c0 35 -5 51 -29 62c-24 9 -62 9 -117 9c-3 -18 -11 -41 -20 -59c39 1 73 1 84 1c11 -1 14 -4 14 -14zM638 261h-145v96h145v-96zM430 209h272v200h-209v39h-63v-239zM272 195h-128v408h128v-408zM339 125v548h-195v76h-67v-624h262
zM640 687h-150v107h150v-107zM704 848h-214v52h-62v-268h276v216zM958 506v65h-88v309c0 37 -7 55 -33 65c-25 11 -66 12 -127 11c-3 -17 -14 -45 -23 -62c44 1 84 1 97 0c13 0 16 -4 16 -14v-309h-437v-65h595z" />
</svg>
