<?xml version="1.0" standalone="no"?>
<!DOCTYPE svg PUBLIC "-//W3C//DTD SVG 1.1//EN" "http://www.w3.org/Graphics/SVG/1.1/DTD/svg11.dtd" >
<svg xmlns="http://www.w3.org/2000/svg" xmlns:xlink="http://www.w3.org/1999/xlink" version="1.1" viewBox="-10 0 1010 1000">
   <path fill="currentColor"
d="M427 217v102h-67v-161h267c-10 -29 -24 -63 -36 -90l66 -21c17 35 34 79 45 111h238v161h-70v-102h-443zM255 207h-110v417h110v-417zM321 138v555h-176v95h-68v-650h244zM864 413l49 46c-34 25 -75 52 -115 75c38 111 104 228 165 289c-15 13 -36 39 -47 57
c-62 -71 -124 -198 -164 -320l-45 24c30 142 11 290 -29 335c-22 28 -45 37 -81 38c-15 0 -40 0 -62 -2c-1 -21 -7 -52 -18 -73c26 3 52 4 68 4c18 0 31 -3 43 -21c19 -21 33 -96 28 -182c-73 80 -182 158 -276 200c-7 -17 -20 -41 -33 -56c107 -39 235 -128 301 -215
c-4 -24 -10 -49 -16 -73c-67 65 -168 134 -248 174c-7 -15 -21 -40 -33 -53c88 -34 200 -106 261 -172c-8 -17 -17 -34 -26 -50c-62 49 -135 90 -203 120c-6 -13 -23 -41 -34 -52c88 -33 181 -83 245 -145h-165v-59h432v59h-196c-11 13 -23 25 -34 37c27 38 48 82 61 129
c60 -33 128 -77 172 -114z" />
</svg>
