<?xml version="1.0" standalone="no"?>
<!DOCTYPE svg PUBLIC "-//W3C//DTD SVG 1.1//EN" "http://www.w3.org/Graphics/SVG/1.1/DTD/svg11.dtd" >
<svg xmlns="http://www.w3.org/2000/svg" xmlns:xlink="http://www.w3.org/1999/xlink" version="1.1" viewBox="-10 0 1010 1000">
   <path fill="currentColor"
d="M815 298l-49 37c-20 -46 -68 -115 -112 -166l46 -30c45 48 94 115 115 159zM792 563l-50 36c-22 -46 -73 -117 -118 -169l47 -31c45 50 97 119 121 164zM566 108l56 15c-22 73 -52 165 -76 220l-42 -13c22 -57 50 -155 62 -222zM401 330l-52 12c-7 -57 -32 -148 -58 -217
l48 -12c29 69 54 158 62 217zM211 178h-76v467h76v-467zM266 707h-131v97h-54v-687h185v590zM359 508l50 16c-23 118 -63 249 -106 322c-11 -14 -31 -33 -45 -43c41 -64 80 -186 101 -295zM608 456h-126v498h-61v-498h-131v-64h131v-342h61v342h126v64zM494 529l50 -18
c31 92 66 211 81 278l-54 24c-14 -71 -47 -193 -77 -284zM962 691l-81 13v252h-63v-241l-190 30l-9 -66l199 -31v-605h63v595l74 -11z" />
</svg>
