<?xml version="1.0" standalone="no"?>
<!DOCTYPE svg PUBLIC "-//W3C//DTD SVG 1.1//EN" "http://www.w3.org/Graphics/SVG/1.1/DTD/svg11.dtd" >
<svg xmlns="http://www.w3.org/2000/svg" xmlns:xlink="http://www.w3.org/1999/xlink" version="1.1" viewBox="-10 0 1010 1000">
   <path fill="currentColor"
d="M945 289l-50 41c-28 -50 -89 -134 -136 -197l46 -33c48 60 110 142 140 189zM665 43v270h-66v-270h66zM472 109l62 21c-34 76 -86 160 -132 215c-10 -12 -35 -35 -50 -45c45 -50 91 -123 120 -191zM478 783v70h164v-70h-164zM642 607v-75h-164v75h164zM642 728v-67h-164
v67h164zM256 641v-435h-120v435h120zM711 783v70h234v60h-467v44h-67v-452c-23 8 -46 15 -69 22c-4 -10 -15 -29 -25 -44v230h-181v77h-61v-656h242v331c171 -45 350 -125 447 -232l57 29c-79 87 -200 157 -327 210h163c-7 -21 -16 -43 -25 -61l57 -20c13 25 26 57 35 81
h195v60h-208v75h187v54h-187v67h186v55h-186z" />
</svg>
