<?xml version="1.0" standalone="no"?>
<!DOCTYPE svg PUBLIC "-//W3C//DTD SVG 1.1//EN" "http://www.w3.org/Graphics/SVG/1.1/DTD/svg11.dtd" >
<svg xmlns="http://www.w3.org/2000/svg" xmlns:xlink="http://www.w3.org/1999/xlink" version="1.1" viewBox="-10 0 1010 1000">
   <path fill="currentColor"
d="M476 127v212h-69v-264h471v264h-71v-212h-331zM765 178v47h-252v-47h252zM513 322v-47h252v47h-252zM854 523v-92h-107v92h107zM690 523v-92h-105v92h105zM529 523v-92h-100v92h100zM920 380v194h-554v-194h554zM250 178h-110v467h110v-467zM310 707h-170v97h-61v-687
h231v590zM784 684h-293c39 43 88 80 146 112c59 -31 110 -68 147 -112zM846 620l47 26c-43 76 -107 136 -184 183c74 29 156 51 243 63c-15 15 -34 44 -43 63c-100 -16 -193 -45 -274 -86c-94 43 -199 72 -304 88c-7 -18 -22 -48 -34 -63c92 -12 184 -34 267 -65
c-62 -40 -114 -88 -153 -145h-69v-61h492z" />
</svg>
