<?xml version="1.0" standalone="no"?>
<!DOCTYPE svg PUBLIC "-//W3C//DTD SVG 1.1//EN" "http://www.w3.org/Graphics/SVG/1.1/DTD/svg11.dtd" >
<svg xmlns="http://www.w3.org/2000/svg" xmlns:xlink="http://www.w3.org/1999/xlink" version="1.1" viewBox="-10 0 1010 1000">
   <path fill="currentColor"
d="M606 193l-54 24c-10 -35 -35 -91 -59 -133l51 -21c26 41 52 95 62 130zM480 917l-47 -31c29 -47 54 -126 66 -186l47 21c-15 63 -36 144 -66 196zM573 718l46 -7c14 53 26 124 27 165l-48 10c-2 -42 -12 -114 -25 -168zM662 707l41 -16c23 44 48 103 57 139l-44 20
c-9 -38 -33 -98 -54 -143zM856 782l-39 25c-12 -33 -42 -84 -69 -121l36 -22c29 36 59 86 72 118zM833 466h-243c-17 37 -36 73 -55 106h281c5 -34 12 -73 17 -106zM782 294h-126c-12 38 -26 76 -40 111h149c5 -35 12 -76 17 -111zM222 607v-396h-87v396h87zM878 572h75
s-1 21 -2 31c-14 209 -27 289 -53 318c-15 18 -32 25 -57 27c-23 2 -68 2 -114 -1c-1 -20 -6 -45 -16 -63c46 5 89 5 105 5s25 -2 33 -10c17 -18 29 -83 40 -246h-392c-16 24 -33 47 -51 68c-5 -8 -17 -20 -28 -31v286h-60v-571c-19 35 -38 66 -58 95
c-3 -10 -12 -30 -21 -46v242h-144v94h-57v-629h201v250c59 -92 112 -219 145 -345l61 16c-18 66 -41 133 -67 196v371c73 -87 130 -203 175 -335h-132v-62h153c19 -61 34 -124 48 -189l59 13c-13 60 -29 119 -45 176h121l10 -4l43 7c-6 56 -15 117 -24 170h21l11 -4l42 7
c-6 54 -14 112 -22 164z" />
</svg>
