<?xml version="1.0" standalone="no"?>
<!DOCTYPE svg PUBLIC "-//W3C//DTD SVG 1.1//EN" "http://www.w3.org/Graphics/SVG/1.1/DTD/svg11.dtd" >
<svg xmlns="http://www.w3.org/2000/svg" xmlns:xlink="http://www.w3.org/1999/xlink" version="1.1" viewBox="-10 0 1010 1000">
   <path fill="currentColor"
d="M223 607v-396h-87v396h87zM566 518l-37 53c-11 -27 -40 -76 -64 -118v501h-61v-479c-27 110 -63 215 -102 277c-11 -15 -31 -36 -46 -48c6 -8 12 -17 18 -28h-138v94h-58v-629h203v523c46 -84 89 -218 114 -339h-96v-63h105v-215h61v215h89v63h-89v44
c26 36 88 125 101 149zM628 454v90h93v-90h-93zM628 312v88h93v-88h-93zM868 400v-88h-94v88h94zM868 544v-90h-94v90h94zM926 600h-150c-6 71 -17 134 -38 188c62 51 139 89 225 109c-14 15 -33 41 -42 59c-81 -24 -153 -61 -214 -110c-30 46 -74 83 -136 112
c-8 -15 -27 -40 -41 -51c61 -27 101 -62 128 -106c-43 -45 -78 -96 -105 -154l59 -15c19 40 44 76 75 108c13 -41 21 -88 26 -140h-142v-344h144v-96h-152v-64h382v64h-165v96h146v344z" />
</svg>
