<?xml version="1.0" standalone="no"?>
<!DOCTYPE svg PUBLIC "-//W3C//DTD SVG 1.1//EN" "http://www.w3.org/Graphics/SVG/1.1/DTD/svg11.dtd" >
<svg xmlns="http://www.w3.org/2000/svg" xmlns:xlink="http://www.w3.org/1999/xlink" version="1.1" viewBox="-10 0 1010 1000">
   <path fill="currentColor"
d="M952 227l-53 31c-19 -46 -66 -118 -111 -168l50 -27c46 49 95 119 114 164zM230 207h-93v417h93v-417zM289 138v555h-152v95h-59v-650h211zM393 490v80h171v-80h-171zM393 359v78h171v-78h-171zM655 778h-144v178h-62v-178h-146v-65h146v-87h-113v-323h113v-86h-127v-64
h127v-109h62v109h135v64h-135v86h112v323h-112v87h144v65zM886 412l54 29c-29 100 -73 200 -128 288c17 89 39 143 65 144c16 0 28 -55 34 -147c12 15 38 32 49 38c-18 153 -52 193 -85 192c-51 -1 -86 -59 -112 -158c-46 60 -99 111 -156 147c-12 -16 -32 -37 -50 -49
c71 -41 134 -105 189 -183c-15 -88 -25 -197 -32 -320l-80 11l-8 -64l86 -11c-4 -88 -6 -183 -8 -281h64c1 95 3 187 7 273l174 -23l8 64l-180 23c5 91 12 174 21 244c37 -68 67 -143 88 -217z" />
</svg>
