<?xml version="1.0" standalone="no"?>
<!DOCTYPE svg PUBLIC "-//W3C//DTD SVG 1.1//EN" "http://www.w3.org/Graphics/SVG/1.1/DTD/svg11.dtd" >
<svg xmlns="http://www.w3.org/2000/svg" xmlns:xlink="http://www.w3.org/1999/xlink" version="1.1" viewBox="-10 0 1010 1000">
   <path fill="currentColor"
d="M208 607v-396h-76v396h76zM525 511l-34 53c-11 -26 -38 -74 -61 -116v506h-59v-465c-25 104 -56 202 -88 262c-10 -15 -30 -35 -44 -47c6 -9 11 -17 17 -28h-124v93h-54v-628h184v522c41 -85 81 -218 103 -338h-91v-63h97v-215h59v215h84v63h-84v42c26 37 82 121 95 144z
M956 453h-122c30 70 80 136 134 169c-13 12 -30 36 -39 52c-26 -18 -51 -45 -74 -76v47h-104v87h162v61h-162v165h-59v-165h-165v-61h165v-87h-110v-61h110v-91h59v91h94c-26 -39 -49 -84 -64 -131h-122c-40 86 -93 162 -163 218c-9 -13 -27 -36 -39 -48
c58 -45 103 -104 138 -170h-89v-62h119c10 -24 19 -50 27 -76h-104v-58h121c7 -23 12 -45 16 -69h-161v-61h172c5 -28 9 -56 12 -84l58 10c-4 24 -7 49 -12 74h179v61h-191c-5 24 -9 46 -15 69h187v58h-203c-8 26 -17 52 -27 76h272v62z" />
</svg>
