<?xml version="1.0" standalone="no"?>
<!DOCTYPE svg PUBLIC "-//W3C//DTD SVG 1.1//EN" "http://www.w3.org/Graphics/SVG/1.1/DTD/svg11.dtd" >
<svg xmlns="http://www.w3.org/2000/svg" xmlns:xlink="http://www.w3.org/1999/xlink" version="1.1" viewBox="-10 0 1010 1000">
   <path fill="currentColor"
d="M498 182l-48 47c-25 -32 -79 -76 -124 -108l46 -41c45 29 100 72 126 102zM479 422l-46 48c-26 -29 -82 -72 -128 -100l44 -44c45 27 102 67 130 96zM233 178h-91v467h91v-467zM297 707h-155v99h-63v-689h218v590zM353 937l-61 -38c42 -78 100 -213 141 -326l55 38
c-38 107 -90 233 -135 326zM617 141v207h81v-145h137v-62h-218zM835 348v-93h-84v93h84zM953 348v149h-58v385c0 33 -7 49 -30 59c-23 11 -58 11 -116 11c-4 -17 -14 -41 -22 -57c40 2 77 2 87 1c11 0 15 -3 15 -14v-136c-63 41 -128 81 -183 115l-31 -57
c55 -27 134 -71 214 -114v-158h-203v129c0 92 -12 214 -78 300c-9 -13 -36 -34 -51 -40c59 -77 66 -180 66 -261v-187h326v-65h-329v89h-62v-149h57v-270h344v270h54zM637 603l33 -34c47 26 104 65 133 93l-35 40c-28 -29 -85 -71 -131 -99z" />
</svg>
