<?xml version="1.0" standalone="no"?>
<!DOCTYPE svg PUBLIC "-//W3C//DTD SVG 1.1//EN" "http://www.w3.org/Graphics/SVG/1.1/DTD/svg11.dtd" >
<svg xmlns="http://www.w3.org/2000/svg" xmlns:xlink="http://www.w3.org/1999/xlink" version="1.1" viewBox="-10 0 1010 1000">
   <path fill="currentColor"
d="M231 178h-90v467h90v-467zM293 707h-152v99h-62v-689h214v590zM667 611h220c-41 -37 -77 -82 -109 -129c-34 50 -71 94 -111 129zM697 854h156v-184h-156v184zM838 203h-108c-4 12 -7 22 -12 34c14 40 34 83 57 125c26 -50 48 -103 63 -159zM519 329v-180h-118v180h118z
M872 143l44 18c-23 100 -58 189 -102 265c43 65 96 124 160 164c-14 13 -35 38 -44 55c-5 -4 -11 -7 -16 -11v319h-61v-39h-156v42h-60v-320c-9 7 -19 14 -28 20c-9 -15 -29 -38 -43 -51c63 -39 124 -104 175 -184c-21 -38 -40 -76 -55 -113c-18 37 -37 70 -58 98
c-10 -11 -34 -36 -49 -48v28h-70v139h78v62h-78v209l96 -22l5 64c-107 24 -220 50 -304 69l-15 -66c16 -3 34 -7 53 -11v-341h54v330l56 -12v-421h-111v-294h236v265c60 -77 104 -194 129 -314l65 15c-7 29 -15 59 -23 87h110z" />
</svg>
