<?xml version="1.0" standalone="no"?>
<!DOCTYPE svg PUBLIC "-//W3C//DTD SVG 1.1//EN" "http://www.w3.org/Graphics/SVG/1.1/DTD/svg11.dtd" >
<svg xmlns="http://www.w3.org/2000/svg" xmlns:xlink="http://www.w3.org/1999/xlink" version="1.1" viewBox="-10 0 1010 1000">
   <path fill="currentColor"
d="M931 221l-54 34c-17 -41 -60 -105 -101 -150l52 -29c41 43 86 104 103 145zM431 730v67h94v-67h-94zM525 566v-64h-94v64h94zM525 681v-65h-94v65h94zM240 624v-417h-101v417h101zM861 408l64 13c-27 108 -64 214 -113 309c24 99 50 157 76 157c15 0 24 -40 28 -133
c13 14 33 26 48 33c-11 120 -30 162 -84 162c-45 0 -83 -54 -111 -144c-37 59 -80 111 -129 153c-11 -13 -34 -30 -49 -40c22 -18 44 -39 63 -62h-223v49h-60v-340c-12 17 -25 32 -37 45c-7 -8 -21 -23 -34 -34v117h-161v95h-61v-650h222v419c50 -55 94 -133 121 -210l58 16
c-10 27 -22 55 -35 81h89c-10 -22 -23 -45 -36 -65l54 -18c18 25 37 57 49 83h75v58h-90v64h81v50h-81v65h81v49h-81v67h90v32c27 -33 50 -70 71 -110c-22 -102 -37 -233 -47 -378h-368v-60h155v-86h-122v-58h122v-93h64v93h113v58h-113v86h145c-4 -76 -7 -156 -8 -236h64
c0 82 2 162 6 236h198v60h-195c7 107 19 203 31 283c30 -70 53 -143 70 -216z" />
</svg>
