<?xml version="1.0" standalone="no"?>
<!DOCTYPE svg PUBLIC "-//W3C//DTD SVG 1.1//EN" "http://www.w3.org/Graphics/SVG/1.1/DTD/svg11.dtd" >
<svg xmlns="http://www.w3.org/2000/svg" xmlns:xlink="http://www.w3.org/1999/xlink" version="1.1" viewBox="-10 0 1010 1000">
   <path fill="currentColor"
d="M761 244v-73h-94v-61h94v-66h66v66h125v61h-125v73h-66zM592 625h92v-39h7v-22h-99v61zM592 455v61h99v-61h-99zM835 516v-61h-92v61h92zM835 625v-61h-92v22h6v39h86zM749 857h-65v-77h-180v-54h180v-50h-147v-272h147v-46h-185v-54h185v-52h65v52h174v54h-174v46h143
v272h-143v50h191v54h-191v77zM476 244v-73h-126v-61h126v-66h66v66h93v61h-93v73h-66zM452 335l-52 22c-12 -29 -34 -77 -49 -113l52 -17c17 35 39 81 49 108zM240 207h-101v417h101v-417zM300 693h-161v95h-61v-650h222v555zM475 572l30 13c-16 68 -41 142 -71 199
c22 9 43 30 79 54c53 36 114 47 201 47c72 0 177 -5 248 -12c-6 17 -15 48 -16 67c-51 3 -166 7 -233 7c-93 0 -157 -15 -214 -54c-36 -26 -66 -56 -87 -56c-22 0 -55 59 -86 121l-47 -57c30 -42 58 -78 86 -99c28 -44 52 -109 69 -170h-90c21 -52 44 -126 65 -194h-84v-61
h160c-19 63 -42 138 -63 198h42z" />
</svg>
