<?xml version="1.0" standalone="no"?>
<!DOCTYPE svg PUBLIC "-//W3C//DTD SVG 1.1//EN" "http://www.w3.org/Graphics/SVG/1.1/DTD/svg11.dtd" >
<svg xmlns="http://www.w3.org/2000/svg" xmlns:xlink="http://www.w3.org/1999/xlink" version="1.1" viewBox="-10 0 1010 1000">
   <path fill="currentColor"
d="M647 232v-26c-17 25 -37 49 -60 72h150v-46h-90zM587 324v-46c-10 10 -20 20 -31 28c-10 -12 -29 -29 -42 -36c43 -35 77 -76 103 -118h-65v-52h92c10 -21 17 -41 23 -61l56 8c-5 18 -11 35 -19 53h228v52h-253c-5 12 -12 24 -20 36h223v44h-91v46h133v46h-337zM815 510
l29 -8v-92h-193v65c0 24 -1 51 -6 78c46 -10 102 -25 163 -41c-39 -17 -102 -40 -153 -54l20 -35c50 14 119 35 155 51zM902 361v241c0 27 -5 38 -24 46c-18 8 -47 8 -89 8c-3 -14 -11 -31 -18 -43c28 1 54 1 62 1c8 -1 11 -3 11 -11v-58c-67 22 -130 44 -186 61l-17 -37
c-8 38 -23 75 -51 106c-10 -12 -34 -32 -47 -39c44 -49 49 -111 49 -163v-112h310zM392 134v542h-55v-598h146l9 -3l40 21c-19 62 -45 142 -67 204c50 61 64 116 64 163c0 42 -10 74 -30 90c-11 8 -24 13 -38 14c-13 2 -30 2 -46 2c0 -16 -5 -38 -14 -54c14 2 27 2 37 1
c9 0 15 -2 20 -6c11 -9 15 -29 15 -52c-1 -40 -13 -92 -62 -151c18 -56 37 -120 50 -173h-69zM219 211h-85v408h85v-408zM276 141v547h-142v93h-56v-640h198zM667 866h284v62h-664v-62h311v-75h-216v-58h216v-60h69v60h202v58h-202v75z" />
</svg>
