<?xml version="1.0" standalone="no"?>
<!DOCTYPE svg PUBLIC "-//W3C//DTD SVG 1.1//EN" "http://www.w3.org/Graphics/SVG/1.1/DTD/svg11.dtd" >
<svg xmlns="http://www.w3.org/2000/svg" xmlns:xlink="http://www.w3.org/1999/xlink" version="1.1" viewBox="-10 0 1010 1000">
   <path fill="currentColor"
d="M848 290v-135h-105v135h105zM909 96v253h-225v-253h225zM567 168h-88c-17 90 -54 160 -130 206c-8 -16 -26 -39 -39 -49c60 -36 91 -89 106 -157h-89v-59h100c2 -20 4 -41 5 -63h62c-1 22 -3 42 -6 63h141s0 16 -1 26c-6 129 -12 180 -29 198c-11 13 -23 19 -44 21
c-14 1 -41 2 -67 0c-2 -16 -7 -39 -15 -53c25 3 46 3 56 3c9 0 15 -1 20 -8c8 -10 13 -43 18 -128zM221 178h-83v467h83v-467zM280 707h-142v97h-59v-687h201v590zM305 953l-55 -34c34 -41 71 -106 95 -150l51 30c-26 45 -60 110 -91 154zM439 800l55 -10
c14 44 27 102 31 140l-58 13c-2 -39 -14 -98 -28 -143zM566 800l50 -17c26 39 50 92 60 126l-53 19c-9 -35 -33 -89 -57 -128zM413 641v58h201v-58h-201zM614 436h-201v57h201v-57zM614 596v-57h-201v57h201zM679 699h256s-1 19 -2 28c-13 131 -26 186 -47 207
c-14 15 -29 21 -52 22c-19 2 -58 2 -98 -1c0 -17 -6 -41 -14 -58c37 5 72 6 86 5c13 0 21 -1 28 -8c13 -13 22 -51 32 -141h-521v-370h567v53h-235v57h213v46h-213v57h214v45h-214v58zM809 863l-49 26c-13 -27 -42 -68 -68 -98l44 -21c29 27 57 66 73 93z" />
</svg>
