<?xml version="1.0" standalone="no"?>
<!DOCTYPE svg PUBLIC "-//W3C//DTD SVG 1.1//EN" "http://www.w3.org/Graphics/SVG/1.1/DTD/svg11.dtd" >
<svg xmlns="http://www.w3.org/2000/svg" xmlns:xlink="http://www.w3.org/1999/xlink" version="1.1" viewBox="-10 0 1010 1000">
   <path fill="currentColor"
d="M211 178h-88v467h88v-467zM271 117v590h-148v97h-61v-687h209zM761 859h95v-91h-95v91zM607 768v91h97v-91h-97zM701 568v-151c-37 59 -86 114 -134 151h134zM704 627h-97v89h97v-89zM856 716v-89h-95v89h95zM764 568h149c-33 -42 -93 -103 -149 -157v157zM953 525
l-36 43h4v385h-65v-37h-249v41h-63v-380c-10 -14 -25 -31 -37 -42l1 3c-24 12 -47 24 -71 36v303c0 37 -8 55 -29 66s-55 13 -107 13c-2 -17 -11 -45 -19 -63c36 1 68 1 78 0c11 0 15 -3 15 -15v-274l-67 32l-22 -68c25 -11 56 -25 89 -39v-218h-74v-67h74v-200h62v200h62
v67h-62v188l54 -26l15 56c61 -35 124 -100 167 -166h-149v-63h177v-157c-55 6 -110 11 -161 14c-2 -16 -11 -39 -19 -54c130 -9 284 -27 368 -53l49 52c-49 14 -109 25 -174 33v165h34c21 -42 45 -103 57 -145l63 21c-23 41 -45 88 -66 124h99v63h-161
c61 56 128 120 163 162zM556 187l51 -19c23 33 44 78 51 107l-53 24c-7 -31 -28 -77 -49 -112z" />
</svg>
