<?xml version="1.0" standalone="no"?>
<!DOCTYPE svg PUBLIC "-//W3C//DTD SVG 1.1//EN" "http://www.w3.org/Graphics/SVG/1.1/DTD/svg11.dtd" >
<svg xmlns="http://www.w3.org/2000/svg" xmlns:xlink="http://www.w3.org/1999/xlink" version="1.1" viewBox="-10 0 1010 1000">
   <path fill="currentColor"
d="M342 590l16 67c-102 46 -210 94 -295 131l-27 -73c35 -13 78 -30 125 -49v-301h-110v-69h110v-236h71v236h98v48c114 -71 223 -193 275 -299h70c72 117 189 234 297 294c-14 19 -31 45 -41 66c-108 -70 -224 -187 -288 -290c-57 100 -166 220 -281 294
c-7 -15 -20 -36 -32 -52v8h-98v272c36 -15 73 -31 110 -47zM448 436v-67h395v67h-395zM363 612v-65h577v65h-322c-29 75 -65 162 -98 228c86 -5 183 -11 281 -17c-26 -40 -55 -81 -82 -116l58 -27c62 75 132 177 162 243l-64 33c-9 -20 -21 -44 -36 -70
c-172 13 -350 26 -473 35l-10 -72l88 -5c32 -63 67 -157 91 -232h-172z" />
</svg>
