<?xml version="1.0" standalone="no"?>
<!DOCTYPE svg PUBLIC "-//W3C//DTD SVG 1.1//EN" "http://www.w3.org/Graphics/SVG/1.1/DTD/svg11.dtd" >
<svg xmlns="http://www.w3.org/2000/svg" xmlns:xlink="http://www.w3.org/1999/xlink" version="1.1" viewBox="-10 0 1010 1000">
   <path fill="currentColor"
d="M348 575l16 65c-101 48 -211 99 -295 137l-32 -74c37 -14 83 -32 134 -53v-301h-116v-71h116v-228h69v228h112v71h-112v272c36 -15 72 -31 108 -46zM432 772l44 -53c122 44 282 120 365 177l-47 60c-77 -57 -236 -136 -362 -184zM490 558l42 -50c76 34 173 86 221 125
l-44 56c-47 -39 -142 -95 -219 -131zM485 155v128v39h344v-167h-344zM901 388h-154c41 149 119 282 221 349c-16 13 -40 40 -51 59c-114 -82 -194 -234 -240 -408h-195c-9 149 -43 326 -148 453c-11 -13 -42 -35 -58 -42c125 -151 139 -365 139 -517v-193h486v299z" />
</svg>
