<?xml version="1.0" standalone="no"?>
<!DOCTYPE svg PUBLIC "-//W3C//DTD SVG 1.1//EN" "http://www.w3.org/Graphics/SVG/1.1/DTD/svg11.dtd" >
<svg xmlns="http://www.w3.org/2000/svg" xmlns:xlink="http://www.w3.org/1999/xlink" version="1.1" viewBox="-10 0 1010 1000">
   <path fill="currentColor"
d="M922 401v68h-526v-68h222v-152h-186v-70h186v-130h75v130h175v70h-175v152h229zM355 613l14 68c-106 43 -219 86 -306 120l-24 -74c36 -12 81 -27 131 -45v-326h-115v-70h115v-231h73v231h106v70h-106v298zM693 854h262v72h-603v-72h266v-172h-202v-70h202v-104h75v104
h203v70h-203v172z" />
</svg>
