<?xml version="1.0" standalone="no"?>
<!DOCTYPE svg PUBLIC "-//W3C//DTD SVG 1.1//EN" "http://www.w3.org/Graphics/SVG/1.1/DTD/svg11.dtd" >
<svg xmlns="http://www.w3.org/2000/svg" xmlns:xlink="http://www.w3.org/1999/xlink" version="1.1" viewBox="-10 0 1010 1000">
   <path fill="currentColor"
d="M236 356v302c37 -14 75 -29 112 -42l14 66c-103 42 -213 86 -298 119l-24 -76c35 -10 78 -26 126 -43v-326h-110v-70h110v-231h70v231h102v70h-102zM796 747h-105v159h-63v-159h-117v-56h117v-88h-98v-55h130c25 -42 55 -105 70 -147l58 18c-22 43 -47 91 -70 129h63v55
h-90v88h105v56zM534 423l50 -18c20 35 43 82 52 113l-52 21c-10 -31 -31 -81 -50 -116zM946 218h-276c-5 39 -11 77 -16 109h266v547c0 36 -6 56 -30 68c-22 12 -58 13 -108 13c-3 -20 -12 -49 -22 -68c35 2 67 1 77 1c11 -1 14 -4 14 -15v-482h-383v565h-70v-629h190
c5 -32 10 -70 14 -109h-232v-67h239c3 -38 6 -76 7 -109l74 8c-3 32 -7 67 -11 101h267v67z" />
</svg>
