<?xml version="1.0" standalone="no"?>
<!DOCTYPE svg PUBLIC "-//W3C//DTD SVG 1.1//EN" "http://www.w3.org/Graphics/SVG/1.1/DTD/svg11.dtd" >
<svg xmlns="http://www.w3.org/2000/svg" xmlns:xlink="http://www.w3.org/1999/xlink" version="1.1" viewBox="-10 0 1010 1000">
   <path fill="currentColor"
d="M758 545l-33 -17c12 -21 30 -55 37 -75l45 18c-18 27 -35 54 -49 74zM488 470l37 -13c14 22 29 55 35 74l-38 17c-6 -22 -20 -54 -34 -78zM452 447v106h170v-106h-170zM837 553v-106h-164v106h164zM353 739h262v-51h-218v-47h218v-47h-219v-188h219v-40h-258v-50h258v-45
c-73 4 -147 5 -216 5c-2 -13 -9 -32 -15 -45c162 -3 358 -12 467 -29l41 45c-60 8 -133 15 -212 20v49h261v50h-261v40h216v188h-216v47h234v47h-234v51h269v52h-596v-52zM750 186v-33h-83v-57h83v-50h68v50h127v57h-127v33h-68zM466 207v-54h-118v-57h118v-51h66v51h95v57
h-95v54h-66zM329 607l17 59c-97 45 -201 91 -282 125l-25 -65c34 -13 76 -30 123 -50v-322h-106v-68h106v-230h69v230h96v68h-96v294zM379 951l-54 -34c36 -29 70 -79 90 -119l55 24c-23 42 -54 95 -91 129zM537 818l55 -6c12 38 23 89 25 119l-58 11
c-1 -32 -11 -83 -22 -124zM673 818l52 -14c21 36 45 85 55 115l-54 19c-9 -31 -32 -82 -53 -120zM811 819l52 -24c36 39 78 93 98 127l-55 28c-19 -36 -60 -90 -95 -131z" />
</svg>
