<?xml version="1.0" standalone="no"?>
<!DOCTYPE svg PUBLIC "-//W3C//DTD SVG 1.1//EN" "http://www.w3.org/Graphics/SVG/1.1/DTD/svg11.dtd" >
<svg xmlns="http://www.w3.org/2000/svg" xmlns:xlink="http://www.w3.org/1999/xlink" version="1.1" viewBox="-10 0 1010 1000">
   <path fill="currentColor"
d="M920 157l-49 39c-22 -34 -69 -83 -112 -117l47 -34c43 32 93 79 114 112zM207 408v17c0 53 -21 140 -109 194c-14 -10 -40 -26 -57 -34c84 -48 100 -119 100 -162v-15h-88v-61h257v-70h-209v-201h64v141h145v-172h70v552h-70v-189h-103zM938 740h-430
c-52 118 -163 185 -420 219c-6 -19 -21 -48 -34 -64c221 -25 321 -72 370 -155h-360v-63h386c6 -22 11 -47 15 -73h78c-4 26 -8 51 -14 73h409v63zM527 804l44 -49c119 40 283 102 370 141l-45 58c-84 -41 -248 -107 -369 -150zM953 288h-226c39 123 116 216 233 258
c-16 15 -37 41 -47 61c-113 -48 -188 -137 -234 -259c-30 91 -94 183 -228 256c-10 -16 -34 -38 -51 -51c144 -77 201 -175 222 -265h-197v-69h207c2 -17 2 -33 2 -49v-132h70v133c0 16 0 31 -1 48h250v69z" />
</svg>
