<?xml version="1.0" standalone="no"?>
<!DOCTYPE svg PUBLIC "-//W3C//DTD SVG 1.1//EN" "http://www.w3.org/Graphics/SVG/1.1/DTD/svg11.dtd" >
<svg xmlns="http://www.w3.org/2000/svg" xmlns:xlink="http://www.w3.org/1999/xlink" version="1.1" viewBox="-10 0 1010 1000">
   <path fill="currentColor"
d="M303 326l-106 7c-16 84 -35 166 -54 233c33 25 66 52 98 81c47 -113 59 -226 62 -321zM436 317l-67 5c-3 110 -17 243 -75 372c42 37 77 72 101 102l-46 56c-21 -28 -52 -60 -87 -94c-41 69 -96 138 -170 200c-11 -15 -36 -38 -52 -47c77 -63 131 -132 170 -202
c-47 -44 -98 -86 -143 -122c21 -66 42 -156 61 -250l-79 5l-8 -68c29 -1 63 -3 100 -4c14 -78 25 -155 32 -223l70 4c-8 67 -20 140 -34 215l95 -5v-77h66v74l67 -4zM588 236l58 -25c48 57 101 135 121 186l-60 30c-20 -51 -71 -132 -119 -191zM547 471h266v-311h-266v271
v40zM955 471v71h-71v315c0 44 -10 65 -38 77c-29 12 -76 14 -151 13c-3 -19 -13 -50 -23 -70c54 2 105 2 120 2c16 -1 21 -6 21 -23v-314h-269c-9 142 -37 304 -128 420c-11 -14 -39 -39 -55 -49c82 -105 106 -245 113 -371h-77v-71h80v-40v-341h407v381h71z" />
</svg>
