<?xml version="1.0" standalone="no"?>
<!DOCTYPE svg PUBLIC "-//W3C//DTD SVG 1.1//EN" "http://www.w3.org/Graphics/SVG/1.1/DTD/svg11.dtd" >
<svg xmlns="http://www.w3.org/2000/svg" xmlns:xlink="http://www.w3.org/1999/xlink" version="1.1" viewBox="-10 0 1010 1000">
   <path fill="currentColor"
d="M302 328l-107 7c-16 82 -35 163 -53 229c33 26 67 55 100 84c47 -112 58 -225 60 -320zM393 797l-48 58c-21 -28 -51 -60 -84 -94c-41 67 -95 133 -168 193c-11 -15 -35 -38 -51 -47c75 -61 129 -127 167 -195c-46 -45 -96 -89 -142 -125c20 -66 42 -155 61 -249l-79 5
l-7 -70c29 -1 62 -3 99 -5c13 -76 25 -154 31 -221l68 4c-8 67 -19 140 -33 215l96 -5v-76h66v72l58 -3v66l-58 4c-3 111 -16 243 -74 372c40 37 75 72 98 101zM724 572h135v-161h-135v161zM519 572h139v-161h-136v62c0 32 -1 65 -3 99zM658 181h-136v163h136v-163zM859 344
v-163h-135v163h135zM928 114v753c0 40 -8 59 -34 71c-25 12 -67 14 -131 14c-3 -19 -12 -49 -21 -68c46 2 87 2 100 1c13 0 17 -5 17 -19v-227h-135v301h-66v-301h-144c-12 114 -40 232 -105 321c-12 -14 -41 -38 -58 -47c91 -125 99 -303 99 -440v-359h478z" />
</svg>
