<?xml version="1.0" standalone="no"?>
<!DOCTYPE svg PUBLIC "-//W3C//DTD SVG 1.1//EN" "http://www.w3.org/Graphics/SVG/1.1/DTD/svg11.dtd" >
<svg xmlns="http://www.w3.org/2000/svg" xmlns:xlink="http://www.w3.org/1999/xlink" version="1.1" viewBox="-10 0 1010 1000">
   <path fill="currentColor"
d="M282 323l-99 7c-16 87 -34 171 -51 241c31 25 64 54 96 82c45 -115 53 -232 54 -330zM402 315l-54 4c-1 113 -10 250 -67 382c45 43 87 86 113 119l-42 59c-25 -33 -61 -73 -103 -114c-37 68 -90 132 -162 191c-9 -14 -33 -37 -50 -47c74 -60 126 -125 162 -193
c-47 -44 -96 -88 -140 -125c20 -67 40 -160 58 -257l-68 4l-8 -71l89 -4c11 -75 21 -150 27 -216l68 3c-7 65 -17 137 -30 210l87 -5v-72h66v68l55 -3zM831 675h-325v180h325v-180zM437 957v-349h466v343h-72v-33h-325v39h-69zM938 272h-216c80 77 182 177 233 237l-46 52
c-43 -54 -124 -139 -198 -213v235h-73v-233c-59 91 -139 172 -217 221c-11 -19 -35 -44 -51 -58c92 -49 187 -143 245 -241h-199v-71h222v-157h73v157h227v71z" />
</svg>
