<?xml version="1.0" standalone="no"?>
<!DOCTYPE svg PUBLIC "-//W3C//DTD SVG 1.1//EN" "http://www.w3.org/Graphics/SVG/1.1/DTD/svg11.dtd" >
<svg xmlns="http://www.w3.org/2000/svg" xmlns:xlink="http://www.w3.org/1999/xlink" version="1.1" viewBox="-10 0 1010 1000">
   <path fill="currentColor"
d="M275 328l-90 5c-15 86 -32 168 -47 235c27 25 56 50 84 78c41 -111 51 -223 53 -318zM380 320l-41 3c-2 110 -14 243 -67 372c45 45 85 88 109 123l-46 53c-23 -32 -55 -71 -92 -113c-36 69 -85 136 -153 197c-10 -13 -34 -34 -50 -45c71 -62 120 -131 155 -202
c-42 -43 -87 -85 -127 -121c17 -66 36 -156 53 -251l-71 5l-8 -68l90 -4c11 -77 21 -155 26 -222l66 3c-6 67 -16 141 -28 216l79 -4v-77h64v74l42 -2zM804 323h-167c-8 36 -17 71 -27 106h194v-106zM804 153h-137c-5 34 -10 70 -17 104h154v-104zM835 663h-276v181h276
v-181zM874 495h-287c-13 35 -28 70 -46 102h364v356h-70v-43h-276v47h-68v-281c-28 39 -62 73 -100 103c-10 -15 -31 -38 -45 -50c77 -60 131 -142 169 -234h-84v-66h109c12 -35 20 -70 28 -106h-171v-66h185c6 -34 11 -70 15 -104h-155v-66h432v170h86v66h-86v172z" />
</svg>
