<?xml version="1.0" standalone="no"?>
<!DOCTYPE svg PUBLIC "-//W3C//DTD SVG 1.1//EN" "http://www.w3.org/Graphics/SVG/1.1/DTD/svg11.dtd" >
<svg xmlns="http://www.w3.org/2000/svg" xmlns:xlink="http://www.w3.org/1999/xlink" version="1.1" viewBox="-10 0 1010 1000">
   <path fill="currentColor"
d="M196 880l-183 -542h97l93 306c14 53 30 109 47 160h4c16 -51 32 -107 46 -160l93 -306h92l-179 542h-110zM570 880v-542h95v542h-95zM618 227c-37 0 -65 -25 -65 -60c0 -36 28 -60 65 -60c36 0 64 24 64 60c0 35 -28 60 -64 60zM821 880v-542h94v542h-94zM869 227
c-37 0 -65 -25 -65 -60c0 -36 28 -60 65 -60c36 0 64 24 64 60c0 35 -28 60 -64 60z" />
</svg>
