<?xml version="1.0" standalone="no"?>
<!DOCTYPE svg PUBLIC "-//W3C//DTD SVG 1.1//EN" "http://www.w3.org/Graphics/SVG/1.1/DTD/svg11.dtd" >
<svg xmlns="http://www.w3.org/2000/svg" xmlns:xlink="http://www.w3.org/1999/xlink" version="1.1" viewBox="-10 0 1010 1000">
   <path fill="currentColor"
d="M778 259v-81h-93v-66h93v-69h67v69h106v66h-106v81h-67zM489 259v-81h-106v-66h106v-69h66v69h97v66h-97v81h-66zM290 327l-96 6c-17 85 -35 167 -53 233c29 25 61 51 92 78c44 -111 54 -222 57 -317zM414 319l-59 4c-3 109 -15 240 -70 367c45 42 86 82 112 115l-47 55
c-24 -30 -58 -67 -96 -106c-39 69 -92 137 -165 198c-10 -14 -35 -36 -50 -46c75 -61 128 -130 166 -201c-46 -42 -94 -83 -137 -118c21 -66 42 -156 61 -251l-79 5l-7 -68l99 -4c13 -77 24 -155 31 -222l67 4c-8 67 -20 140 -33 215l83 -4v-77h65v73l60 -3zM471 533h385
s-1 22 -2 32c-12 235 -23 322 -49 352c-16 19 -34 26 -60 28c-23 3 -66 3 -109 0c-2 -20 -9 -47 -20 -65c43 4 82 4 97 4s24 -1 32 -11c16 -18 28 -89 38 -274h-139c-25 169 -87 285 -205 361c-9 -14 -33 -41 -48 -52c108 -62 162 -165 184 -309h-107v-64
c-15 17 -32 31 -50 45c-8 -14 -30 -43 -44 -57c79 -57 140 -148 171 -253l67 14c-30 98 -79 184 -141 249zM631 265h140c33 104 106 202 181 252c-13 14 -32 43 -41 62c-76 -57 -146 -153 -186 -253h-94v-61z" />
</svg>
