<?xml version="1.0" standalone="no"?>
<!DOCTYPE svg PUBLIC "-//W3C//DTD SVG 1.1//EN" "http://www.w3.org/Graphics/SVG/1.1/DTD/svg11.dtd" >
<svg xmlns="http://www.w3.org/2000/svg" xmlns:xlink="http://www.w3.org/1999/xlink" version="1.1" viewBox="-10 0 1010 1000">
   <path fill="currentColor"
d="M127 880l178 -283l-164 -259h101l72 118c16 29 35 60 53 90h4c17 -30 32 -61 49 -90l65 -118h99l-165 269l177 273h-102l-79 -125c-18 -32 -38 -66 -58 -97h-5c-18 31 -35 64 -54 97l-73 125h-98zM702 880v-542h95v542h-95zM750 227c-36 0 -65 -25 -65 -60
c0 -36 29 -60 65 -60s64 24 64 60c0 35 -28 60 -64 60z" />
</svg>
