<?xml version="1.0" standalone="no"?>
<!DOCTYPE svg PUBLIC "-//W3C//DTD SVG 1.1//EN" "http://www.w3.org/Graphics/SVG/1.1/DTD/svg11.dtd" >
<svg xmlns="http://www.w3.org/2000/svg" xmlns:xlink="http://www.w3.org/1999/xlink" version="1.1" viewBox="-10 0 1010 1000">
   <path fill="currentColor"
d="M712 179h-154c-16 28 -33 57 -51 85h162c15 -24 30 -56 43 -85zM429 607v-246c-7 7 -13 13 -19 20c-13 -16 -36 -35 -53 -44c94 -87 155 -203 186 -294l71 10c-8 22 -18 45 -28 68h158l11 -3l44 28c-17 38 -39 82 -62 118h175v340h-66v-279h-133c-6 22 -14 43 -23 65
c46 41 101 94 131 128l-44 39c-24 -30 -70 -77 -112 -118c-28 46 -65 90 -116 126c-10 -15 -30 -36 -44 -43c78 -53 123 -128 145 -197h-157v282h-64zM269 322l-87 6c-17 88 -36 173 -52 242c28 25 60 52 89 79c42 -114 49 -230 50 -327zM374 807l-42 57
c-23 -31 -55 -67 -92 -105c-36 68 -84 132 -152 192c-9 -15 -32 -34 -48 -44c70 -61 118 -127 152 -195c-44 -42 -91 -86 -133 -121c20 -67 41 -161 59 -259l-69 4l-8 -69l89 -4c11 -75 21 -150 27 -216l65 3c-6 65 -17 137 -29 210l76 -4v-72h62v69l47 -3v65l-47 3
c-1 113 -9 247 -62 377c43 42 81 81 105 112zM685 763l43 -43c76 57 176 138 225 188l-45 50c-48 -51 -146 -135 -223 -195zM690 643h267v63h-282c-35 119 -111 202 -281 251c-7 -18 -25 -44 -39 -59c147 -37 213 -102 247 -192h-225v-63h242c5 -27 9 -58 12 -89h71
c-3 31 -7 61 -12 89z" />
</svg>
