<?xml version="1.0" standalone="no"?>
<!DOCTYPE svg PUBLIC "-//W3C//DTD SVG 1.1//EN" "http://www.w3.org/Graphics/SVG/1.1/DTD/svg11.dtd" >
<svg xmlns="http://www.w3.org/2000/svg" xmlns:xlink="http://www.w3.org/1999/xlink" version="1.1" viewBox="-10 0 1010 1000">
   <path fill="currentColor"
d="M262 322l-79 5c-17 89 -35 175 -52 244c28 22 57 48 85 72c39 -112 45 -225 46 -321zM380 807l-43 56c-24 -30 -57 -68 -96 -107c-36 70 -85 137 -153 199c-9 -15 -34 -35 -50 -45c71 -63 119 -131 152 -202c-44 -41 -90 -82 -131 -117c20 -68 41 -161 59 -259l-69 4
l-8 -69l89 -4c11 -76 21 -150 27 -216l66 3c-7 65 -17 137 -29 210l68 -4v-72h65v69l49 -3l-1 65l-48 3c0 112 -9 244 -58 373c45 43 84 84 111 116zM691 485v37c0 23 -1 49 -4 76h249v68h-262c92 73 210 171 270 232l-48 51c-53 -57 -156 -148 -244 -220
c-38 79 -107 161 -240 232c-11 -15 -33 -37 -50 -49c149 -74 212 -164 239 -246h-221v-68h236c4 -28 5 -55 5 -78v-35h-146v-51c-28 27 -58 50 -91 68c-8 -16 -26 -41 -40 -53c50 -26 96 -67 134 -120c-29 -26 -71 -59 -104 -84l39 -42c31 21 70 49 99 72
c21 -39 38 -82 50 -129h-186v-62h209l13 -3l42 15c-26 139 -79 247 -149 322h329c-76 -85 -126 -207 -156 -348l60 -11c7 33 16 66 27 98c29 -24 62 -54 83 -76l47 43c-35 32 -77 62 -111 84c10 26 22 49 34 72c37 -24 79 -54 105 -77l48 44c-41 30 -85 56 -124 78
c35 49 78 88 128 116c-16 13 -37 38 -46 56c-27 -16 -50 -35 -73 -56v44h-151z" />
</svg>
