<?xml version="1.0" standalone="no"?>
<!DOCTYPE svg PUBLIC "-//W3C//DTD SVG 1.1//EN" "http://www.w3.org/Graphics/SVG/1.1/DTD/svg11.dtd" >
<svg xmlns="http://www.w3.org/2000/svg" xmlns:xlink="http://www.w3.org/1999/xlink" version="1.1" viewBox="-10 0 1010 1000">
   <path fill="currentColor"
d="M476 272v-84h-106v-67h106v-74h71v74h100v67h-100v84h-71zM266 322l-83 6c-17 88 -35 174 -52 243c28 25 58 52 85 79c43 -114 49 -230 50 -328zM377 315l-47 3c0 113 -9 249 -63 383c39 41 75 79 97 110l-45 57c-21 -29 -50 -65 -83 -101c-35 65 -83 129 -149 186
c-10 -14 -33 -36 -49 -46c68 -59 116 -124 150 -191c-43 -44 -88 -87 -129 -124c20 -68 40 -162 58 -260l-68 4l-8 -69l88 -4c11 -75 21 -150 26 -216l67 3c-6 65 -17 137 -29 210l73 -4v-72h64v69l48 -3zM703 364v255h246v70h-246v268h-73v-268h-259v-70h259v-255h-226v-68
h511v68h-212zM434 418l59 -21c30 57 66 130 81 177l-62 25c-16 -48 -50 -124 -78 -181zM805 599l-57 -19c27 -49 61 -128 78 -183l70 21c-27 62 -63 135 -91 181zM850 122h105v67h-105v83h-73v-83h-100v-67h100v-75h73v75z" />
</svg>
