<?xml version="1.0" standalone="no"?>
<!DOCTYPE svg PUBLIC "-//W3C//DTD SVG 1.1//EN" "http://www.w3.org/Graphics/SVG/1.1/DTD/svg11.dtd" >
<svg xmlns="http://www.w3.org/2000/svg" xmlns:xlink="http://www.w3.org/1999/xlink" version="1.1" viewBox="-10 0 1010 1000">
   <path fill="currentColor"
d="M839 65l64 26c-32 47 -70 98 -101 132l-53 -23c31 -36 70 -95 90 -135zM594 194l-54 33c-20 -34 -61 -91 -95 -132l52 -28c33 40 76 95 97 127zM638 506v-207h-231v-61h231v-191h70v191h233v61h-233v207h-70zM736 339l49 -32c55 44 125 106 159 146l-51 37
c-32 -41 -101 -106 -157 -151zM547 314l61 18c-41 61 -105 125 -159 167c-12 -11 -38 -31 -52 -40c55 -38 114 -91 150 -145zM270 322l-94 6c-14 87 -29 172 -45 241c29 25 61 50 91 76c41 -112 47 -227 48 -323zM385 314l-51 4c0 110 -9 243 -59 375c45 41 84 81 111 113
l-43 58c-24 -30 -58 -67 -98 -107c-36 70 -86 138 -156 198c-11 -13 -34 -35 -50 -45c72 -62 122 -130 156 -200c-45 -42 -93 -83 -136 -117c17 -69 36 -162 52 -261l-62 4l-8 -69l79 -4c11 -74 19 -149 24 -215l67 2c-5 65 -14 137 -25 210l84 -4v-72h64v68l52 -2zM767 680
h-186c-15 25 -29 50 -43 72c46 14 92 30 136 45c40 -31 71 -70 93 -117zM959 906l-55 48c-56 -26 -130 -57 -215 -89c-72 43 -165 72 -286 90c-6 -18 -19 -44 -31 -58c99 -12 177 -32 237 -61c-53 -19 -108 -38 -165 -56c20 -28 42 -63 64 -100h-130v-61h164
c18 -36 36 -73 49 -107l69 12c-12 30 -28 63 -46 95h176c4 -14 8 -28 10 -44l69 10c-2 12 -5 23 -8 34h90v61h-109c-23 57 -53 104 -96 142c82 30 156 60 213 84z" />
</svg>
