<?xml version="1.0" standalone="no"?>
<!DOCTYPE svg PUBLIC "-//W3C//DTD SVG 1.1//EN" "http://www.w3.org/Graphics/SVG/1.1/DTD/svg11.dtd" >
<svg xmlns="http://www.w3.org/2000/svg" xmlns:xlink="http://www.w3.org/1999/xlink" version="1.1" viewBox="-10 0 1010 1000">
   <path fill="currentColor"
d="M475 282v-91h-116v-67h116v-78h66v78h101v67h-101v91h-66zM262 322l-80 6c-17 88 -36 174 -53 244c28 23 57 50 85 76c41 -114 47 -229 48 -326zM373 315l-49 3c0 113 -9 246 -60 378c39 40 75 77 98 108l-43 55c-21 -28 -50 -62 -84 -99c-35 67 -82 132 -148 191
c-10 -14 -33 -34 -48 -44c68 -60 115 -127 149 -195c-43 -43 -88 -85 -129 -120c20 -69 41 -162 59 -260l-69 4l-8 -69l89 -4c11 -75 21 -150 27 -216l65 3c-6 65 -17 137 -29 210l69 -4v-72h62v69l49 -3v65zM579 420h-102c-8 35 -19 69 -30 100c35 31 73 69 102 102
c14 -58 23 -125 30 -202zM595 356l13 -1l38 7c-19 331 -93 508 -229 593c-10 -17 -32 -42 -45 -54c70 -42 121 -107 156 -207c-25 -34 -66 -80 -105 -118c-14 29 -31 55 -50 78c-9 -11 -34 -32 -49 -43c66 -74 98 -192 113 -327l63 7c-3 22 -6 45 -10 65h105zM768 285v-94
h-106v-67h106v-78h67v78h105v67h-105v94h-67zM768 881h95c24 0 28 -18 31 -111c15 11 40 22 59 27c-8 113 -25 146 -85 146h-108c-68 0 -89 -19 -89 -98v-503h243v285c0 32 -4 48 -26 59s-54 11 -100 11c-2 -18 -12 -42 -20 -58h71c10 0 12 -4 12 -13v-218h-116v438
c0 30 6 35 33 35z" />
</svg>
