<?xml version="1.0" standalone="no"?>
<!DOCTYPE svg PUBLIC "-//W3C//DTD SVG 1.1//EN" "http://www.w3.org/Graphics/SVG/1.1/DTD/svg11.dtd" >
<svg xmlns="http://www.w3.org/2000/svg" xmlns:xlink="http://www.w3.org/1999/xlink" version="1.1" viewBox="-10 0 1010 1000">
   <path fill="currentColor"
d="M629 177l61 35c-46 54 -97 106 -149 149l220 -16c-21 -25 -44 -49 -64 -70l53 -27c56 54 124 132 156 179l-56 31c-11 -18 -27 -38 -44 -60c-305 27 -342 31 -365 40c-4 -14 -13 -47 -21 -65c17 -2 36 -15 57 -33c24 -18 101 -90 152 -163zM548 69l62 18
c-41 81 -115 157 -184 207c-11 -11 -36 -35 -50 -45c68 -43 136 -108 172 -180zM262 322l-80 6c-17 88 -36 174 -53 244c27 25 56 53 84 80c42 -115 48 -232 49 -330zM373 315l-49 3c0 113 -9 251 -63 384c37 40 69 77 90 107l-44 55c-18 -28 -45 -62 -76 -97
c-35 65 -81 127 -144 184c-10 -14 -33 -34 -48 -44c66 -59 113 -123 146 -190c-42 -44 -86 -88 -126 -125c20 -69 41 -162 59 -260l-69 4l-8 -69l89 -4c11 -75 21 -150 27 -216l65 3c-6 65 -17 137 -29 210l69 -4v-72h62v69l49 -3v65zM550 719l16 48
c-56 36 -114 72 -166 102l-30 -52c46 -23 112 -60 180 -98zM545 676l-43 35c-23 -31 -69 -79 -106 -112l42 -29c37 32 84 78 107 106zM641 488v390c0 34 -7 50 -31 61c-22 10 -60 10 -115 10c-2 -17 -12 -40 -20 -57c41 1 77 1 87 1c12 -1 15 -5 15 -15v-327h-204v-63h268z
M839 716l15 48c-56 34 -115 69 -166 99l-31 -54c47 -22 113 -57 182 -93zM835 678l-42 35c-24 -32 -72 -78 -111 -111l40 -29c40 31 89 76 113 105zM931 488v390c0 34 -7 51 -31 61c-23 10 -62 11 -117 11c-4 -17 -12 -41 -21 -58c41 1 78 1 89 1c12 -1 15 -5 15 -15v-327
h-196v-63h261zM642 68h149c36 71 109 139 174 175c-14 12 -36 35 -46 51c-61 -40 -124 -103 -166 -169h-111v-57z" />
</svg>
