<?xml version="1.0" standalone="no"?>
<!DOCTYPE svg PUBLIC "-//W3C//DTD SVG 1.1//EN" "http://www.w3.org/Graphics/SVG/1.1/DTD/svg11.dtd" >
<svg xmlns="http://www.w3.org/2000/svg" xmlns:xlink="http://www.w3.org/1999/xlink" version="1.1" viewBox="-10 0 1010 1000">
   <path fill="currentColor"
d="M267 323l-86 6c-16 88 -35 173 -52 243c29 25 59 53 88 81c42 -115 49 -231 50 -330zM381 316l-52 3c-1 114 -9 250 -63 383c38 39 72 76 94 107l-44 55c-19 -29 -48 -62 -80 -98c-35 64 -82 127 -147 185c-10 -14 -33 -34 -49 -44c68 -60 115 -125 149 -191
c-43 -43 -89 -87 -130 -124c20 -68 40 -162 59 -260l-70 4l-7 -69c27 -1 56 -2 89 -4c11 -75 21 -151 27 -216l65 3c-6 64 -17 137 -29 210l74 -3v-73h62v70l53 -3zM537 196v83h225v-83h-225zM832 341h-146v66h244v473c0 34 -7 53 -30 64c-22 11 -57 12 -111 12
c-3 -19 -12 -45 -21 -63c39 2 73 1 83 1c11 0 15 -4 15 -15v-97c-9 6 -24 19 -32 28c-24 -34 -41 -73 -50 -112c-17 48 -40 90 -69 116c-6 -11 -18 -27 -28 -34c40 -31 69 -98 81 -173c-1 -13 -2 -25 -2 -38h-51v-48h87c0 82 4 179 64 259v-315h-184v484h-60v-163
c-9 5 -24 18 -31 27c-25 -35 -41 -74 -50 -113c-16 49 -41 91 -73 116c-5 -11 -16 -26 -26 -34c43 -31 72 -99 85 -177c-1 -12 -2 -24 -2 -36h-50v-48h85c0 88 4 184 62 263v-319h-182v492h-65v-550h243v-66h-148v-145h-124v-62h124v-91h67v91h225v-91h70v91h123v62h-123
v145z" />
</svg>
