<?xml version="1.0" standalone="no"?>
<!DOCTYPE svg PUBLIC "-//W3C//DTD SVG 1.1//EN" "http://www.w3.org/Graphics/SVG/1.1/DTD/svg11.dtd" >
<svg xmlns="http://www.w3.org/2000/svg" xmlns:xlink="http://www.w3.org/1999/xlink" version="1.1" viewBox="-10 0 1010 1000">
   <path fill="currentColor"
d="M709 235h-91c-11 35 -25 66 -40 92c-13 -8 -40 -20 -56 -26c35 -58 59 -145 74 -228l60 11c-5 30 -12 60 -20 89h73v-123h65v123h144v62h-144v131h170v63h-412v-63h177v-131zM647 715h194v-143h-194v143zM910 812h-69v-38h-194v44h-68v-307h331v301zM488 221l-59 18
c-14 -46 -40 -117 -59 -171l57 -13c20 53 47 123 61 166zM235 321l-67 5c-14 90 -30 178 -46 248c22 21 45 44 68 67c34 -112 43 -224 45 -320zM329 796l-44 49c-18 -26 -44 -57 -73 -91c-30 69 -70 137 -124 199c-10 -12 -33 -31 -48 -40c58 -66 98 -136 128 -209
c-37 -39 -75 -78 -109 -112c17 -69 35 -163 51 -262l-61 4l-8 -67c24 -1 50 -2 78 -4c11 -75 19 -151 24 -218l60 3c-5 65 -14 138 -25 212l58 -3v-72h58v69l41 -2v62l-42 2c-2 112 -13 244 -57 374c37 40 72 78 93 106zM504 509l34 14c-18 88 -48 184 -84 257
c20 10 41 29 73 50c53 34 115 45 198 45c70 0 173 -4 242 -13c-6 19 -16 53 -17 74c-49 3 -159 7 -226 7c-89 0 -154 -15 -212 -53c-35 -25 -65 -53 -87 -53c-23 0 -60 58 -92 117l-49 -63c36 -48 72 -87 104 -106c32 -56 58 -135 74 -207h-106c23 -61 52 -149 75 -230h-87
v-64h165c-21 72 -48 158 -71 228h55z" />
</svg>
