<?xml version="1.0" standalone="no"?>
<!DOCTYPE svg PUBLIC "-//W3C//DTD SVG 1.1//EN" "http://www.w3.org/Graphics/SVG/1.1/DTD/svg11.dtd" >
<svg xmlns="http://www.w3.org/2000/svg" xmlns:xlink="http://www.w3.org/1999/xlink" version="1.1" viewBox="-10 0 1010 1000">
   <path fill="currentColor"
d="M870 51l38 52c-127 34 -347 50 -517 52c-2 -16 -9 -39 -17 -54c169 -5 383 -21 496 -50zM695 285l-58 24c-10 -35 -30 -94 -49 -137l55 -20c19 42 42 99 52 133zM438 372v86h-65v-145h108c-13 -34 -37 -87 -58 -127l53 -21c22 40 49 95 62 127l-43 21h253
c32 -46 70 -120 92 -170l60 25c-28 47 -60 102 -89 145h120v145h-67v-86h-426zM257 320l-81 6c-16 89 -34 175 -50 245c27 24 57 51 85 77c39 -114 46 -230 46 -328zM358 806l-41 54c-21 -29 -51 -65 -86 -102c-34 68 -80 133 -144 194c-9 -13 -31 -33 -46 -42
c67 -62 113 -129 144 -199c-42 -42 -86 -84 -126 -120c19 -69 39 -162 56 -261l-67 4l-7 -67c25 -1 54 -2 85 -4c11 -74 21 -150 26 -216l62 2c-7 65 -16 137 -28 211l71 -4v-72h59v69l46 -3l-1 63l-45 3c0 113 -8 247 -58 378c41 42 77 81 100 112zM564 545h-90
c-9 23 -18 44 -27 65c25 27 52 60 73 86c19 -44 34 -94 44 -151zM583 488l10 -2l36 10c-32 248 -125 385 -265 458c-8 -15 -23 -36 -36 -48c65 -31 121 -81 163 -153c-18 -26 -45 -60 -70 -91c-13 22 -27 43 -40 61c-11 -10 -37 -25 -51 -32c59 -69 99 -174 122 -283l58 11
c-5 23 -11 47 -18 69h91zM706 708h71v-153h-55c-4 49 -10 105 -16 153zM940 708v59h-107v190h-56v-190h-134c8 -57 18 -142 24 -212h-24v-59h134v-87h56v87h88v59h-88v153h107z" />
</svg>
