<?xml version="1.0" standalone="no"?>
<!DOCTYPE svg PUBLIC "-//W3C//DTD SVG 1.1//EN" "http://www.w3.org/Graphics/SVG/1.1/DTD/svg11.dtd" >
<svg xmlns="http://www.w3.org/2000/svg" xmlns:xlink="http://www.w3.org/1999/xlink" version="1.1" viewBox="-10 0 1010 1000">
   <path fill="currentColor"
d="M861 199v-70h-129v70h129zM861 317v-73h-129v73h129zM861 434v-72h-129v72h129zM921 81v401h-247v-401h247zM568 199v-70h-126v70h126zM568 316v-72h-126v72h126zM568 434v-72h-126v72h126zM627 81v401h-243v-401h243zM264 322l-86 6c-16 89 -35 175 -51 244
c29 26 60 55 90 83c42 -116 47 -234 47 -333zM361 813l-42 53c-21 -28 -49 -64 -82 -100c-36 66 -83 129 -150 188c-9 -14 -32 -34 -47 -44c69 -60 117 -125 150 -193c-43 -44 -89 -88 -131 -126c20 -67 40 -161 58 -259l-68 4l-8 -69c26 -1 55 -2 87 -4
c12 -75 22 -152 27 -218l63 3c-7 65 -17 138 -29 212l75 -4v-72h61v68l42 -2l-1 65l-41 3v4c0 115 -7 250 -60 381c39 40 74 79 96 110zM757 669h-201c-14 26 -29 52 -43 74c46 14 94 30 143 48c43 -33 77 -72 101 -122zM949 669h-116c-26 60 -61 109 -106 148
c82 31 160 65 215 94l-61 46c-50 -29 -128 -65 -213 -98c-77 48 -174 78 -289 99c-6 -16 -27 -46 -39 -60c99 -13 183 -35 252 -68c-60 -23 -120 -42 -175 -59c20 -28 42 -64 63 -102h-137v-63h169c18 -35 33 -71 45 -104l71 13c-11 29 -25 60 -40 91h193c4 -13 7 -26 9 -41
l73 8c-3 11 -5 22 -8 33h94v63z" />
</svg>
