<?xml version="1.0" standalone="no"?>
<!DOCTYPE svg PUBLIC "-//W3C//DTD SVG 1.1//EN" "http://www.w3.org/Graphics/SVG/1.1/DTD/svg11.dtd" >
<svg xmlns="http://www.w3.org/2000/svg" xmlns:xlink="http://www.w3.org/1999/xlink" version="1.1" viewBox="-10 0 1010 1000">
   <path fill="currentColor"
d="M930 424l-43 21c-14 -27 -46 -70 -72 -102l41 -17c27 29 60 71 74 98zM252 321l-80 5c-15 90 -31 176 -46 247c24 22 50 47 76 71c38 -113 48 -226 50 -323zM354 802l-45 51c-22 -27 -51 -61 -85 -98c-33 69 -77 137 -137 199c-10 -12 -33 -32 -48 -41
c62 -65 107 -135 138 -206c-40 -41 -81 -81 -118 -116c17 -69 36 -162 52 -261l-63 4l-7 -67l79 -4c10 -75 19 -152 24 -218l62 3c-5 65 -14 138 -25 212l72 -4v-72h60v69l43 -2v-143h266c-8 -18 -17 -37 -26 -53l68 -14c13 21 26 45 36 67h254v155h-54v27h-85v179h-53v-179
h-53c-12 21 -26 42 -43 61c-11 -12 -28 -25 -41 -30c36 -39 60 -90 73 -131l51 7c-5 15 -11 30 -16 45h160v-79h-479v59h211v47h-82v48h70v44h-70v56l94 -9l1 49c-89 10 -176 18 -246 25l-7 -53c30 -1 65 -4 103 -7v-61h-71v-44h71v-48h-79v-6h-51v51l-46 3
c-2 112 -14 244 -62 374c41 42 80 81 104 111zM707 327l48 11c-17 40 -47 82 -77 110c-8 -8 -27 -21 -39 -28c30 -27 54 -59 68 -93zM499 725v50h312v-50h-312zM499 632v50h312v-50h-312zM499 541v48h312v-48h-312zM882 820h-131c75 29 156 67 205 94l-45 42
c-47 -29 -126 -68 -201 -99l34 -37h-187l49 31c-59 43 -153 83 -232 104c-6 -12 -22 -33 -33 -46c73 -19 163 -56 207 -89h-118v-324h452v324z" />
</svg>
