<?xml version="1.0" standalone="no"?>
<!DOCTYPE svg PUBLIC "-//W3C//DTD SVG 1.1//EN" "http://www.w3.org/Graphics/SVG/1.1/DTD/svg11.dtd" >
<svg xmlns="http://www.w3.org/2000/svg" xmlns:xlink="http://www.w3.org/1999/xlink" version="1.1" viewBox="-10 0 1010 1000">
   <path fill="currentColor"
d="M864 254v-108h-113v108h113zM699 254v-108h-112v108h112zM535 254v-108h-106v108h106zM930 89v221h-565v-221h565zM250 320l-79 5c-15 91 -32 179 -48 250c23 25 49 52 73 78c41 -116 52 -233 54 -333zM326 807l-46 48c-16 -25 -40 -55 -66 -87c-32 63 -74 127 -130 186
c-11 -13 -33 -31 -48 -40c60 -63 103 -130 135 -198c-38 -43 -77 -87 -112 -124c17 -70 36 -164 53 -263l-64 4l-7 -66c24 -1 51 -2 80 -4c11 -75 20 -152 25 -218l60 3c-6 65 -15 138 -26 212l71 -4v-72h58v69l42 -2l-1 62l-42 3c-2 116 -15 253 -67 388
c35 39 64 76 85 103zM350 746l52 14c-16 67 -38 145 -59 195c-11 -6 -36 -13 -50 -18c24 -52 43 -125 57 -191zM431 760l47 -8c10 57 17 128 19 177l-50 8c-1 -47 -8 -120 -16 -177zM512 750l44 -12c18 50 37 115 44 156l-46 15c-8 -42 -26 -108 -42 -159zM501 560l46 -12
c24 55 47 130 55 173l-49 15c-2 -12 -6 -27 -10 -44c-156 23 -181 29 -197 38v1c-2 -13 -11 -42 -17 -56c16 -3 35 -23 57 -51c11 -13 36 -45 63 -86c-72 7 -91 11 -102 16c-3 -13 -12 -41 -18 -57c12 -2 23 -14 36 -31c11 -16 54 -85 75 -151l56 24c-24 53 -56 108 -87 150
l73 -3c20 -32 39 -67 56 -102l52 28c-49 87 -108 176 -167 245l106 -13c-9 -29 -18 -58 -28 -84zM688 761v86h96v-86h-96zM784 569v-87h-96v87h96zM784 707v-84h-96v84h96zM954 847v59h-266v50h-56v-393c-6 10 -13 19 -19 27c-9 -9 -34 -25 -48 -33c50 -61 93 -152 120 -241
l56 14c-10 32 -23 64 -35 95h88c-9 -29 -20 -65 -31 -94l52 -13c13 34 28 75 37 107h94v57h-105v87h94v54h-94v84h94v54h-94v86h113z" />
</svg>
