<?xml version="1.0" standalone="no"?>
<!DOCTYPE svg PUBLIC "-//W3C//DTD SVG 1.1//EN" "http://www.w3.org/Graphics/SVG/1.1/DTD/svg11.dtd" >
<svg xmlns="http://www.w3.org/2000/svg" xmlns:xlink="http://www.w3.org/1999/xlink" version="1.1" viewBox="-10 0 1010 1000">
   <path fill="currentColor"
d="M811 538h-622c51 39 117 102 162 164l-60 35c-67 -88 -167 -176 -256 -233c89 -57 189 -145 256 -233l60 35c-45 62 -111 125 -162 164h622c-51 -39 -117 -102 -162 -164l60 -35c67 88 167 176 256 233c-89 57 -189 145 -256 233l-60 -35c45 -62 111 -125 162 -164z" />
</svg>
