<?xml version="1.0" standalone="no"?>
<!DOCTYPE svg PUBLIC "-//W3C//DTD SVG 1.1//EN" "http://www.w3.org/Graphics/SVG/1.1/DTD/svg11.dtd" >
<svg xmlns="http://www.w3.org/2000/svg" xmlns:xlink="http://www.w3.org/1999/xlink" version="1.1" viewBox="-10 0 1010 1000">
   <path fill="currentColor"
d="M754 186h-180c-25 42 -53 82 -83 118h183c28 -33 58 -77 80 -118zM818 443v-80h-298v80h298zM818 579v-81h-298v81h298zM818 717v-82h-298v82h298zM447 776v-423c-10 9 -19 18 -28 27c-7 -15 -28 -48 -41 -64c80 -65 152 -164 192 -273l62 20c-8 20 -16 39 -26 59h188
l14 -4l48 34c-26 52 -63 106 -99 152h136v472h-446zM377 484l9 67c-41 14 -82 27 -122 41v280c0 39 -8 57 -33 69s-62 13 -117 13c-4 -20 -15 -49 -26 -68c39 1 78 1 89 1c12 -1 16 -4 16 -15v-255l-133 44l-15 -77c41 -10 92 -26 148 -43v-185c39 -47 84 -117 115 -179
h-244v-66h284l16 -4l48 35c-39 75 -96 160 -148 224v152zM550 778l65 36c-53 50 -136 108 -208 139c-12 -13 -37 -34 -54 -46c74 -30 155 -84 197 -129zM734 816l50 -39c66 42 141 95 184 134l-63 40c-39 -38 -108 -92 -171 -135z" />
</svg>
