<?xml version="1.0" standalone="no"?>
<!DOCTYPE svg PUBLIC "-//W3C//DTD SVG 1.1//EN" "http://www.w3.org/Graphics/SVG/1.1/DTD/svg11.dtd" >
<svg xmlns="http://www.w3.org/2000/svg" xmlns:xlink="http://www.w3.org/1999/xlink" version="1.1" viewBox="-10 0 1010 1000">
   <path fill="currentColor"
d="M549 196v83h207v-83h-207zM826 341h-140v66h245v473c0 34 -6 53 -30 64c-22 11 -57 12 -111 12c-3 -19 -12 -45 -21 -63c39 2 73 1 83 1c11 0 15 -4 15 -15v-95c-10 6 -22 18 -28 26c-28 -38 -46 -80 -56 -125c-16 54 -40 100 -72 129c-5 -11 -17 -27 -28 -35
c41 -31 68 -99 80 -174l7 3c-1 -13 -2 -26 -2 -39h-51v-48h86c0 81 4 177 64 257v-313h-184v484h-63v-159c-9 6 -22 18 -28 26c-27 -38 -44 -83 -53 -128c-14 55 -37 103 -67 131c-6 -11 -17 -26 -27 -34c39 -32 62 -101 72 -180l10 4c-1 -14 -2 -26 -2 -40h-47v-48h81
c0 88 5 184 61 263v-319h-175v492h-64v-550h237v-66h-137v-145h-120v-51c-33 71 -78 151 -121 213v153c34 -11 69 -21 103 -32l10 63c-38 11 -76 24 -113 37v289c0 38 -8 56 -35 68c-25 11 -63 12 -122 12c-4 -19 -16 -47 -26 -66c42 1 82 1 94 1c12 -1 16 -4 16 -16v-265
c-41 14 -79 27 -115 37l-13 -70c35 -10 80 -23 128 -36v-177c35 -49 72 -121 98 -182h-201v-64h236l15 -4l46 31v-3h120v-91h68v91h207v-91h70v91h127v62h-127v145z" />
</svg>
