<?xml version="1.0" standalone="no"?>
<!DOCTYPE svg PUBLIC "-//W3C//DTD SVG 1.1//EN" "http://www.w3.org/Graphics/SVG/1.1/DTD/svg11.dtd" >
<svg xmlns="http://www.w3.org/2000/svg" xmlns:xlink="http://www.w3.org/1999/xlink" version="1.1" viewBox="-10 0 1010 1000">
   <path fill="currentColor"
d="M863 149h-655v84h655v-84zM936 293h-728v87c0 167 -13 409 -104 572c-15 -12 -48 -29 -67 -36c89 -157 97 -377 97 -535v-292h802v204zM812 482l59 43c-62 43 -142 90 -207 124c65 72 182 142 282 176c-15 13 -36 38 -46 55c-79 -31 -167 -87 -234 -150
c11 85 -5 160 -36 191c-25 26 -52 34 -88 34c-17 1 -39 0 -63 -1c0 -16 -4 -41 -15 -58c24 3 48 4 63 4c20 0 34 -3 48 -20c20 -20 30 -77 23 -144c-97 69 -233 135 -347 172c-9 -17 -24 -41 -39 -56c127 -33 284 -106 374 -177c-7 -25 -15 -49 -27 -73
c-78 51 -188 101 -279 130c-9 -15 -26 -39 -41 -51c99 -23 221 -74 292 -126c-13 -20 -30 -39 -49 -56c-63 34 -133 61 -198 83c-8 -11 -30 -37 -45 -46c93 -26 193 -65 267 -112h-239v-57h635v57h-303c-21 17 -42 31 -67 46c44 38 77 85 99 135c62 -36 136 -85 181 -123z
" />
</svg>
