<?xml version="1.0" standalone="no"?>
<!DOCTYPE svg PUBLIC "-//W3C//DTD SVG 1.1//EN" "http://www.w3.org/Graphics/SVG/1.1/DTD/svg11.dtd" >
<svg xmlns="http://www.w3.org/2000/svg" xmlns:xlink="http://www.w3.org/1999/xlink" version="1.1" viewBox="-10 0 1010 1000">
   <path fill="currentColor"
d="M574 788v-99h69v192h-69v-34h-475v-156h69v97h169v-122h69v122h168zM943 517h-687v61h651s-1 22 -2 32c-17 206 -34 286 -61 316c-18 18 -36 25 -62 27c-22 2 -68 2 -115 -1c0 -20 -7 -47 -17 -66c43 5 84 6 100 6c15 0 24 -2 33 -11c20 -18 34 -83 48 -242h-648v-515
h232c12 -28 23 -61 30 -83l78 10c-12 26 -24 50 -37 73h318s0 19 -1 29c-14 155 -27 220 -52 244c-15 16 -31 22 -56 24c-19 2 -56 2 -93 0c-2 -20 -9 -46 -19 -63c35 3 67 4 82 4c13 0 22 -2 28 -9c16 -15 27 -58 37 -164h-474v268h687v60zM572 335l-39 46
c-44 -33 -130 -81 -198 -114l38 -40c67 30 154 76 199 108z" />
</svg>
