<?xml version="1.0" standalone="no"?>
<!DOCTYPE svg PUBLIC "-//W3C//DTD SVG 1.1//EN" "http://www.w3.org/Graphics/SVG/1.1/DTD/svg11.dtd" >
<svg xmlns="http://www.w3.org/2000/svg" xmlns:xlink="http://www.w3.org/1999/xlink" version="1.1" viewBox="-10 0 1010 1000">
   <path fill="currentColor"
d="M879 79v212h-757v-212h75v146h261v-183h78v183h265v-146h78zM293 490l-50 53c-29 -42 -94 -106 -149 -148l46 -47c56 40 123 100 153 142zM263 614l50 52c-59 90 -132 193 -195 273l-59 -54c57 -64 139 -174 204 -271zM803 490h-131c-5 45 -13 90 -25 133
c57 123 174 224 312 269c-17 15 -41 45 -53 64c-119 -47 -221 -137 -289 -249c-46 106 -127 199 -276 256c-9 -18 -28 -45 -45 -58c228 -83 277 -251 298 -415h-113c-23 52 -52 102 -90 147c-15 -15 -45 -32 -64 -40c72 -80 113 -187 134 -271l75 10c-8 27 -17 57 -27 85
h336l10 -3l54 18c-29 63 -67 131 -103 176l-65 -24c21 -25 43 -62 62 -98z" />
</svg>
