<?xml version="1.0" standalone="no"?>
<!DOCTYPE svg PUBLIC "-//W3C//DTD SVG 1.1//EN" "http://www.w3.org/Graphics/SVG/1.1/DTD/svg11.dtd" >
<svg xmlns="http://www.w3.org/2000/svg" xmlns:xlink="http://www.w3.org/1999/xlink" version="1.1" viewBox="-10 0 1010 1000">
   <path fill="currentColor"
d="M534 762l54 22c-39 55 -111 114 -172 145c-10 -17 -30 -39 -45 -51c58 -24 127 -72 163 -116zM921 721h-223v236h-68v-236h-216v-59h216v-77c-35 5 -70 9 -103 12c-2 -12 -8 -28 -14 -42c-35 36 -75 67 -121 94c-8 -11 -28 -32 -43 -45v242h-52v-38h-231v-596h53v530h60
v-683h59v683h59v-530h52v384c67 -36 120 -81 161 -137h-141v-63h181c12 -22 22 -46 32 -70h-150v-59h170c6 -21 12 -43 16 -66h-216v-61h227c5 -30 10 -63 13 -96l66 7c-4 31 -8 61 -12 89h221v61h-233c-5 23 -10 44 -16 66h210v59h-228c-9 24 -18 48 -29 70h329v63h-132
c40 53 99 99 156 125c-13 15 -27 43 -33 60c-76 -42 -150 -112 -194 -185h-159c-20 31 -41 60 -66 86c81 -10 171 -26 223 -46l44 50c-26 9 -58 18 -91 25v88h223v59zM738 797l42 -36c55 35 128 86 164 119l-43 42c-36 -33 -107 -87 -163 -125z" />
</svg>
