<?xml version="1.0" standalone="no"?>
<!DOCTYPE svg PUBLIC "-//W3C//DTD SVG 1.1//EN" "http://www.w3.org/Graphics/SVG/1.1/DTD/svg11.dtd" >
<svg xmlns="http://www.w3.org/2000/svg" xmlns:xlink="http://www.w3.org/1999/xlink" version="1.1" viewBox="-10 0 1010 1000">
   <path fill="currentColor"
d="M890 88v174h-770v-174h74v109h268v-154h74v154h278v-109h76zM275 718l57 11c-22 57 -57 116 -95 155c-10 -8 -34 -22 -48 -28c38 -37 69 -87 86 -138zM574 682h-137v212c0 27 -5 40 -27 49c-20 8 -52 9 -102 9c-2 -15 -10 -34 -19 -47h75c10 -1 12 -3 12 -11v-212h-154
v-54h352v54zM263 498h263v55h-263v-55zM584 817l-49 23c-11 -27 -37 -70 -63 -101l47 -21c26 31 54 71 65 99zM798 514l67 14c-29 95 -72 181 -125 252c32 65 70 102 109 102c24 0 34 -41 38 -143c16 15 41 29 60 35c-12 139 -37 178 -103 178c-60 0 -111 -41 -152 -113
c-41 46 -86 86 -136 118c-11 -13 -37 -39 -51 -51c58 -34 111 -79 156 -131c-38 -90 -63 -207 -76 -338h-392v116c0 118 -13 289 -88 404c-13 -11 -45 -30 -62 -36c70 -110 79 -261 79 -369v-182h457c-2 -27 -3 -55 -4 -83h73c0 28 1 56 3 83h146c-27 -23 -67 -49 -102 -67
l40 -34c42 20 92 51 117 76l-27 25h107v67h-276c11 105 29 197 54 270c37 -57 68 -122 88 -193z" />
</svg>
