<?xml version="1.0" standalone="no"?>
<!DOCTYPE svg PUBLIC "-//W3C//DTD SVG 1.1//EN" "http://www.w3.org/Graphics/SVG/1.1/DTD/svg11.dtd" >
<svg xmlns="http://www.w3.org/2000/svg" xmlns:xlink="http://www.w3.org/1999/xlink" version="1.1" viewBox="-10 0 1010 1000">
   <path fill="currentColor"
d="M880 70v163h-758v-163h73v104h263v-131h74v131h272v-104h76zM842 377l-49 -17c16 -25 37 -63 48 -87l60 18c-21 32 -41 64 -59 86zM637 357l-56 24c-7 -24 -22 -61 -36 -89l52 -21c16 27 32 63 40 86zM402 372l-50 -16c17 -25 39 -62 49 -86l60 19c-22 31 -42 62 -59 83z
M205 355l-56 24c-7 -24 -23 -61 -37 -89l54 -21c14 27 31 63 39 86zM318 438h-66c-13 95 -48 159 -147 195c-6 -14 -23 -37 -35 -47c80 -27 109 -75 120 -148h-107v-57h169v-128h62v128h164v57h-101v80l86 -34c1 17 5 41 9 54c-110 48 -139 63 -153 74l-4 4
c-5 -15 -17 -48 -27 -63c13 -7 30 -21 30 -59v-56zM772 691h-529v71h529v-71zM243 874h529v-64h-529v64zM172 957v-317h674v315h-74v-29h-529v31h-71zM826 559h54c16 0 20 -6 22 -62c12 10 35 18 52 22c-6 74 -23 93 -65 93h-71c-58 0 -72 -15 -72 -73v-99h-62
c-12 94 -53 155 -156 191c-7 -16 -23 -38 -36 -49c86 -26 119 -70 130 -142h-110v-57h176v-129h62v129h175v57h-119v99c0 18 2 20 20 20z" />
</svg>
