<?xml version="1.0" standalone="no"?>
<!DOCTYPE svg PUBLIC "-//W3C//DTD SVG 1.1//EN" "http://www.w3.org/Graphics/SVG/1.1/DTD/svg11.dtd" >
<svg xmlns="http://www.w3.org/2000/svg" xmlns:xlink="http://www.w3.org/1999/xlink" version="1.1" viewBox="-10 0 1010 1000">
   <path fill="currentColor"
d="M748 354l-26 61c-26 -12 -70 -27 -128 -27c-132 0 -219 86 -244 184h306l-11 62h-305c-1 10 -2 20 -2 29c6 89 71 161 194 161c47 0 94 -10 131 -24l15 62c-38 16 -92 30 -169 30c-160 0 -255 -99 -257 -234c-2 -92 33 -182 98 -245c61 -58 148 -92 247 -92
c71 0 123 19 151 33z" />
</svg>
