<?xml version="1.0" standalone="no"?>
<!DOCTYPE svg PUBLIC "-//W3C//DTD SVG 1.1//EN" "http://www.w3.org/Graphics/SVG/1.1/DTD/svg11.dtd" >
<svg xmlns="http://www.w3.org/2000/svg" xmlns:xlink="http://www.w3.org/1999/xlink" version="1.1" viewBox="-10 0 1010 1000">
   <path fill="currentColor"
d="M680 291l-112 7c-17 114 -67 184 -213 225c-7 -16 -25 -42 -39 -54c125 -30 167 -82 183 -166c-93 7 -115 11 -130 16c-4 -15 -15 -51 -24 -69c19 -3 39 -17 63 -37c25 -19 109 -95 167 -171l73 26c-55 63 -116 124 -176 172l320 -16c-27 -28 -55 -56 -80 -80l52 -32
c63 59 148 142 190 191l-55 38c-14 -17 -31 -37 -52 -60l-102 6v110c0 24 4 31 22 31h107c16 0 43 -1 57 -5c1 17 4 44 6 59c-14 5 -38 5 -61 5h-112c-68 0 -84 -23 -84 -91v-105zM251 44l68 25c-58 84 -150 177 -233 237c-9 -15 -29 -41 -40 -54c75 -53 163 -138 205 -208z
M275 246l66 23c-25 47 -57 93 -90 138v553h-72v-467c-32 36 -66 68 -98 95c-8 -14 -29 -50 -42 -65c88 -67 179 -172 236 -277zM770 616h-241c-10 14 -19 26 -30 39c33 41 75 80 126 113c60 -40 110 -91 145 -152zM821 553l47 23c-38 97 -100 171 -178 229
c74 37 161 66 265 82c-14 16 -33 47 -42 66c-114 -22 -210 -59 -288 -105c-91 52 -196 86 -305 108c-7 -18 -24 -47 -37 -63c99 -15 195 -44 278 -87c-42 -31 -78 -67 -107 -104c-29 27 -59 51 -90 71c-10 -14 -36 -39 -51 -51c36 -21 70 -46 101 -75
c-13 -21 -25 -43 -35 -65l54 -33c7 17 16 34 26 49c32 -39 58 -83 77 -132l68 16c-10 26 -22 50 -36 74h240z" />
</svg>
