<?xml version="1.0" standalone="no"?>
<!DOCTYPE svg PUBLIC "-//W3C//DTD SVG 1.1//EN" "http://www.w3.org/Graphics/SVG/1.1/DTD/svg11.dtd" >
<svg xmlns="http://www.w3.org/2000/svg" xmlns:xlink="http://www.w3.org/1999/xlink" version="1.1" viewBox="-10 0 1010 1000">
   <path fill="currentColor"
d="M87 510l-55 -20c26 -66 44 -174 51 -254l53 7c-5 81 -23 194 -49 267zM170 956v-913h72v913h-72zM366 390l-51 25c-11 -48 -41 -129 -70 -189l48 -20c31 60 61 137 73 184zM802 862h45c13 0 23 -2 31 -7c7 -6 12 -15 14 -38c3 -24 5 -76 5 -146c16 15 39 27 60 33
c-2 57 -5 133 -11 159c-6 30 -16 46 -34 57c-16 10 -39 14 -63 14h-65c-23 0 -48 -6 -67 -19c-18 -15 -27 -34 -27 -120v-624h-193v265c0 161 -19 379 -153 522c-11 -15 -40 -43 -57 -53c125 -131 136 -320 136 -470v-335h343v701c0 33 3 50 10 56c8 4 16 5 26 5z" />
</svg>
