<?xml version="1.0" standalone="no"?>
<!DOCTYPE svg PUBLIC "-//W3C//DTD SVG 1.1//EN" "http://www.w3.org/Graphics/SVG/1.1/DTD/svg11.dtd" >
<svg xmlns="http://www.w3.org/2000/svg" xmlns:xlink="http://www.w3.org/1999/xlink" version="1.1" viewBox="-10 0 1010 1000">
   <path fill="currentColor"
d="M945 424v65h-888v-65h162v-240h73v240h182v-297h-387v-64h830v64h-366v97h310v63h-310v137h394zM429 554l58 -35c60 53 133 129 166 179l-62 40c-31 -51 -101 -129 -162 -184zM116 899l-64 -42c58 -63 100 -164 122 -250l67 23c-25 89 -65 199 -125 269zM449 860h210
c48 0 56 -14 62 -100c17 12 49 24 70 29c-11 112 -35 141 -126 141h-221c-114 0 -143 -23 -143 -105v-229h76v228c0 30 11 36 72 36zM704 619l64 -31c71 76 152 183 189 252l-70 38c-32 -70 -112 -180 -183 -259z" />
</svg>
