<?xml version="1.0" standalone="no"?>
<!DOCTYPE svg PUBLIC "-//W3C//DTD SVG 1.1//EN" "http://www.w3.org/Graphics/SVG/1.1/DTD/svg11.dtd" >
<svg xmlns="http://www.w3.org/2000/svg" xmlns:xlink="http://www.w3.org/1999/xlink" version="1.1" viewBox="-10 0 1010 1000">
   <path fill="currentColor"
d="M858 55l53 54c-138 39 -350 64 -529 77c-3 -16 -11 -41 -19 -57c174 -14 381 -41 495 -74zM813 327l-60 -21c26 -40 62 -105 80 -149l70 21c-29 53 -62 111 -90 149zM686 319l-61 17c-6 -37 -24 -94 -45 -138l58 -14c23 42 41 99 48 135zM513 324l-58 26
c-10 -36 -36 -91 -64 -131l54 -22c29 39 57 92 68 127zM89 510l-56 -20c26 -65 44 -174 51 -254l55 8c-5 80 -23 194 -50 266zM175 956v-912h72v912h-72zM256 227l51 -21c30 59 63 136 74 182l-54 26c-11 -48 -43 -127 -71 -187zM814 661v-98h-143v98h143zM671 416v82h143
v-82h-143zM957 498v65h-76v160h-210v140c0 42 -10 61 -39 73c-32 11 -81 12 -158 12c-2 -20 -13 -48 -23 -68c59 2 113 1 128 1c16 -1 20 -5 20 -19v-139h-211v-62h211v-98h-244v-65h244v-82h-207v-62h489v144h76z" />
</svg>
