<?xml version="1.0" standalone="no"?>
<!DOCTYPE svg PUBLIC "-//W3C//DTD SVG 1.1//EN" "http://www.w3.org/Graphics/SVG/1.1/DTD/svg11.dtd" >
<svg xmlns="http://www.w3.org/2000/svg" xmlns:xlink="http://www.w3.org/1999/xlink" version="1.1" viewBox="-10 0 1010 1000">
   <path fill="currentColor"
d="M141 689l-28 -63l595 -241v-2l-595 -240l28 -64l751 304v2zM655 929c-65 0 -116 -25 -168 -60c-46 -31 -82 -54 -138 -54c-66 0 -136 39 -179 114l-57 -40c56 -91 141 -143 236 -143c66 0 116 25 168 60c46 31 82 55 138 55c66 0 135 -39 179 -115l57 40
c-57 91 -141 143 -236 143z" />
</svg>
