<?xml version="1.0" standalone="no"?>
<!DOCTYPE svg PUBLIC "-//W3C//DTD SVG 1.1//EN" "http://www.w3.org/Graphics/SVG/1.1/DTD/svg11.dtd" >
<svg xmlns="http://www.w3.org/2000/svg" xmlns:xlink="http://www.w3.org/1999/xlink" version="1.1" viewBox="-10 0 1010 1000">
   <path fill="currentColor"
d="M910 93l52 20c-24 37 -50 77 -72 103l-40 -18c20 -29 47 -76 60 -105zM747 202l-46 24c-11 -29 -33 -75 -52 -109l44 -18c20 33 43 77 54 103zM597 88l53 20c-25 38 -52 79 -75 106l-39 -18c21 -30 47 -78 61 -108zM429 204l-47 25c-11 -30 -35 -79 -54 -115l44 -19
c21 35 46 82 57 109zM89 508l-52 -17c25 -66 42 -176 46 -255l50 6c-3 79 -20 193 -44 266zM157 955v-911h64v911h-64zM230 221l49 -14c20 64 42 147 49 193l-51 21c-8 -51 -28 -136 -47 -200zM637 301l-42 39c-25 -22 -69 -56 -108 -85c-26 43 -65 76 -125 100
c-6 -14 -23 -35 -35 -45c118 -44 140 -119 146 -265h57c-3 63 -9 116 -23 160c45 30 99 70 130 96zM831 870v-94h-373v94h373zM504 530v79h286v-79h-286zM858 660h-195c-11 21 -22 42 -32 60h269v234h-69v-27h-373v28h-66v-235h176c8 -18 15 -41 22 -60h-151v-181h419v181z
M344 532v-167h606v167h-64v-108h-480v108h-62zM786 45h58c-3 64 -9 117 -23 161c48 34 108 80 140 107l-43 39c-27 -25 -75 -63 -118 -97c-26 45 -66 79 -129 103c-5 -15 -22 -36 -35 -46c122 -45 145 -120 150 -267z" />
</svg>
