<?xml version="1.0" standalone="no"?>
<!DOCTYPE svg PUBLIC "-//W3C//DTD SVG 1.1//EN" "http://www.w3.org/Graphics/SVG/1.1/DTD/svg11.dtd" >
<svg xmlns="http://www.w3.org/2000/svg" xmlns:xlink="http://www.w3.org/1999/xlink" version="1.1" viewBox="-10 0 1010 1000">
   <path fill="currentColor"
d="M929 234l-59 39c-28 -49 -94 -119 -153 -169l54 -35c60 48 128 117 158 165zM826 451l67 28c-42 88 -96 170 -160 243c32 100 74 159 121 159c26 0 38 -45 43 -164c16 17 42 33 62 40c-13 154 -40 199 -112 199c-75 0 -131 -65 -173 -173c-72 70 -154 129 -245 174
c-11 -18 -33 -43 -52 -59c102 -47 195 -113 272 -192c-22 -81 -38 -178 -50 -285h-544v-69h219v-131h-177v-67h177v-110h73v110h180v67h-180v131h246c-8 -97 -12 -201 -13 -307h77c-1 109 3 212 11 307h278v69h-271c9 81 20 154 35 217c47 -57 86 -121 116 -187z" />
</svg>
