<?xml version="1.0" standalone="no"?>
<!DOCTYPE svg PUBLIC "-//W3C//DTD SVG 1.1//EN" "http://www.w3.org/Graphics/SVG/1.1/DTD/svg11.dtd" >
<svg xmlns="http://www.w3.org/2000/svg" xmlns:xlink="http://www.w3.org/1999/xlink" version="1.1" viewBox="-10 0 1010 1000">
   <path fill="currentColor"
d="M844 454h-182c-92 0 -119 -17 -119 -92v-268h330v156c0 31 -6 48 -31 58c-24 8 -63 9 -122 9c-3 -17 -12 -39 -22 -56c45 1 81 1 94 1c11 -1 14 -3 14 -13v-96h-196v208c0 28 9 34 58 34h170c35 0 43 -11 46 -79c16 10 42 20 62 24c-9 91 -30 114 -102 114zM426 179h-172
c-14 16 -28 32 -43 48c44 26 95 61 128 89c36 -39 66 -84 87 -137zM470 117l42 18c-64 224 -230 340 -423 394c-6 -17 -23 -42 -36 -56c88 -21 172 -59 240 -115c-31 -28 -80 -65 -125 -92c-26 22 -55 42 -87 61c-10 -15 -31 -36 -45 -45c118 -66 194 -157 230 -237l66 11
c-10 21 -22 43 -36 64h160zM536 677v64h404v57h-404v82c0 39 -10 58 -40 68c-31 10 -81 10 -161 10c-4 -18 -15 -44 -25 -62c60 1 116 1 132 0c17 0 22 -4 22 -18v-80h-402v-57h402v-64h-339v-57h339v-65c-92 6 -186 10 -273 12c-2 -14 -9 -38 -15 -51
c206 -6 452 -22 583 -48l58 45c-78 16 -176 28 -281 36v71h348v57h-348z" />
</svg>
