<?xml version="1.0" standalone="no"?>
<!DOCTYPE svg PUBLIC "-//W3C//DTD SVG 1.1//EN" "http://www.w3.org/Graphics/SVG/1.1/DTD/svg11.dtd" >
<svg xmlns="http://www.w3.org/2000/svg" xmlns:xlink="http://www.w3.org/1999/xlink" version="1.1" viewBox="-10 0 1010 1000">
   <path fill="currentColor"
d="M796 157l-35 67c-59 -42 -178 -94 -271 -122l33 -59c92 26 213 75 273 114zM348 533l-109 37v294c0 41 -9 60 -34 72c-23 12 -61 15 -124 14c-3 -18 -12 -48 -22 -69c43 1 83 1 94 1c12 0 17 -4 17 -19v-272l-119 39l-19 -71c38 -11 85 -26 138 -41v-205h-124v-69h124
v-200h69v200h108v69h-108v183l100 -31zM548 428l45 16c-37 185 -126 337 -229 417c-10 -15 -31 -42 -47 -53c80 -58 155 -179 192 -309h-133v-68h159zM891 299l60 48c-56 63 -127 137 -184 188c51 117 118 217 201 268c-16 14 -40 41 -52 60c-93 -66 -165 -194 -215 -340
v345c0 42 -8 64 -36 76s-73 13 -145 13c-2 -20 -13 -52 -23 -72c52 3 100 2 113 2c15 -1 20 -5 20 -19v-550h-241v-68h312v87c12 46 25 92 41 137c53 -53 112 -122 149 -175z" />
</svg>
