<?xml version="1.0" standalone="no"?>
<!DOCTYPE svg PUBLIC "-//W3C//DTD SVG 1.1//EN" "http://www.w3.org/Graphics/SVG/1.1/DTD/svg11.dtd" >
<svg xmlns="http://www.w3.org/2000/svg" xmlns:xlink="http://www.w3.org/1999/xlink" version="1.1" viewBox="-10 0 1010 1000">
   <path fill="currentColor"
d="M359 548l-105 33v285c0 42 -9 63 -34 76c-26 12 -66 14 -132 13c-3 -18 -12 -51 -22 -71c45 2 86 2 99 1c13 0 18 -4 18 -19v-264l-135 42l-17 -72c42 -10 94 -25 152 -42v-218h-135v-68h135v-200h71v200h97v68h-97v197l96 -28zM764 650h181s-1 20 -3 30
c-16 161 -31 226 -58 253c-17 17 -36 23 -64 25c-25 1 -71 2 -120 -1c-1 -20 -9 -48 -21 -66c47 5 94 5 112 5c17 0 27 0 35 -9c17 -15 30 -63 42 -175h-116c-3 16 -6 31 -9 44l-68 -8c11 -43 22 -102 32 -158h-115c-19 167 -69 296 -237 369c-9 -17 -29 -43 -45 -56
c152 -61 192 -172 208 -313h-122v-65h388c-6 39 -13 83 -20 125zM944 297h-198c58 60 144 119 220 149c-16 12 -39 38 -50 56c-80 -38 -170 -111 -230 -185v182h-69v-179c-58 79 -144 153 -223 192c-12 -16 -32 -42 -49 -55c77 -32 160 -94 215 -160h-186v-63h243v-84
c-73 6 -148 10 -217 12c-2 -15 -11 -42 -19 -57c162 -8 358 -26 465 -53l51 56c-58 15 -132 26 -211 35v91h258v63z" />
</svg>
