<?xml version="1.0" standalone="no"?>
<!DOCTYPE svg PUBLIC "-//W3C//DTD SVG 1.1//EN" "http://www.w3.org/Graphics/SVG/1.1/DTD/svg11.dtd" >
<svg xmlns="http://www.w3.org/2000/svg" xmlns:xlink="http://www.w3.org/1999/xlink" version="1.1" viewBox="-10 0 1010 1000">
   <path fill="currentColor"
d="M307 451l13 67l-93 37v312c0 37 -9 56 -32 68c-22 11 -58 13 -115 13c-2 -18 -11 -46 -21 -66c40 1 76 1 86 0c12 0 16 -3 16 -15v-287l-98 39l-21 -72c34 -11 75 -26 119 -41v-193h-109v-69h109v-200h66v200h81v69h-81v168zM408 757h130v-210h-130v210zM538 481v-199
h-130v199h130zM941 227v37c-11 444 -21 591 -55 636c-21 27 -40 36 -73 39c-30 3 -83 2 -134 -1c-2 -21 -10 -50 -22 -70c57 4 108 4 129 4c18 1 27 -2 37 -14c27 -31 39 -175 48 -562h-155c-17 51 -38 96 -60 134c-12 -10 -36 -28 -54 -39v433h-194v81h-67v-689h58
c19 -48 39 -114 49 -162l74 14c-18 50 -40 106 -59 148h139v162c50 -82 82 -202 101 -323l70 14c-10 54 -21 108 -35 158h203zM845 663l-58 37c-29 -59 -90 -160 -138 -236l54 -29c49 73 111 171 142 228z" />
</svg>
