<?xml version="1.0" standalone="no"?>
<!DOCTYPE svg PUBLIC "-//W3C//DTD SVG 1.1//EN" "http://www.w3.org/Graphics/SVG/1.1/DTD/svg11.dtd" >
<svg xmlns="http://www.w3.org/2000/svg" xmlns:xlink="http://www.w3.org/1999/xlink" version="1.1" viewBox="-10 0 1010 1000">
   <path fill="currentColor"
d="M554 280v109h139v-109h-139zM494 440v-187c-9 12 -17 24 -25 35c-11 -11 -38 -32 -53 -40c45 -53 85 -132 109 -208l64 16c-7 20 -13 38 -21 58h322v29c-5 236 -10 318 -31 345c-14 18 -31 25 -58 27c-21 2 -61 2 -101 0c-1 -19 -9 -44 -20 -60c41 3 77 4 93 4
c13 0 22 -2 28 -11c12 -16 16 -85 20 -275h-281c-11 20 -20 38 -31 56h248v211h-263zM74 409c-2 -13 -12 -45 -20 -61c22 -2 45 -18 75 -40c18 -10 55 -40 98 -77c-113 7 -135 11 -148 17v-1c-3 -13 -11 -43 -19 -58c16 -2 32 -11 52 -24c19 -13 88 -68 134 -125l49 37
c-37 38 -78 74 -120 103l113 -5c21 -21 41 -41 60 -63l48 41c-65 67 -138 129 -213 181l179 -19c-11 -20 -22 -41 -34 -59l48 -18c29 43 59 102 71 140l-50 22c-3 -10 -7 -22 -13 -35c-258 30 -291 35 -310 44zM329 424l49 -18c24 32 47 77 57 106l-52 21
c-9 -30 -32 -76 -54 -109zM292 534l-55 16c-4 -30 -18 -78 -33 -114l52 -16c16 36 31 83 36 114zM94 422l57 12c-10 50 -27 104 -51 139c-12 -8 -37 -22 -52 -27c25 -35 37 -80 46 -124zM951 768v53h-415v63c0 39 -10 55 -40 65c-31 10 -81 10 -162 10
c-4 -18 -15 -42 -25 -59c60 2 118 2 133 1c16 -1 21 -5 21 -18v-62h-414v-53h414v-51h-344v-52h344v-56c-104 7 -212 11 -311 13c-2 -14 -7 -36 -14 -49c226 -4 502 -21 646 -48l52 43c-82 16 -187 28 -300 36v61h348v52h-348v51h415z" />
</svg>
