<?xml version="1.0" standalone="no"?>
<!DOCTYPE svg PUBLIC "-//W3C//DTD SVG 1.1//EN" "http://www.w3.org/Graphics/SVG/1.1/DTD/svg11.dtd" >
<svg xmlns="http://www.w3.org/2000/svg" xmlns:xlink="http://www.w3.org/1999/xlink" version="1.1" viewBox="-10 0 1010 1000">
   <path fill="currentColor"
d="M647 180h-201c-17 43 -38 82 -60 112c-11 -10 -40 -27 -55 -35c42 -55 73 -134 91 -215l64 13c-6 23 -12 45 -19 67h180v58zM457 216l44 -32c34 26 76 65 96 91l-45 37c-19 -27 -61 -67 -95 -96zM323 487l10 67c-33 11 -65 22 -97 33v279c0 39 -8 58 -30 71
c-22 12 -57 14 -110 14c-3 -19 -11 -50 -20 -70c34 1 66 1 76 1c11 0 15 -3 15 -16v-257c-38 13 -74 25 -107 34l-19 -71c35 -9 78 -22 126 -36v-223h-112v-69h112v-199h69v199h88v69h-88v201zM896 456v413c0 40 -10 60 -39 71c-30 12 -78 12 -153 12
c-3 -20 -15 -47 -26 -65c58 2 111 1 126 0c15 0 20 -4 20 -18v-128c-118 40 -238 80 -333 110l-22 -70c89 -21 224 -58 355 -96v-166h-358v170c0 88 -10 198 -79 270c-12 -14 -41 -40 -56 -48c58 -63 64 -148 64 -223v-232h110c-22 -32 -68 -78 -106 -112l47 -36
c40 32 88 78 110 111l-45 37h99v-169h70v169h216zM490 601l26 -49c89 25 211 65 274 92l-26 55c-62 -28 -183 -71 -274 -98zM829 305l61 27c-32 44 -71 88 -103 119l-54 -24c31 -34 73 -85 96 -122zM763 218l41 -35c35 21 79 56 102 78l-43 39c-21 -22 -64 -57 -100 -82z
M764 123h188v58h-208c-15 39 -34 74 -52 102c-12 -9 -39 -27 -55 -34c39 -52 66 -129 82 -205l63 12c-5 23 -11 45 -18 67z" />
</svg>
