<?xml version="1.0" standalone="no"?>
<!DOCTYPE svg PUBLIC "-//W3C//DTD SVG 1.1//EN" "http://www.w3.org/Graphics/SVG/1.1/DTD/svg11.dtd" >
<svg xmlns="http://www.w3.org/2000/svg" xmlns:xlink="http://www.w3.org/1999/xlink" version="1.1" viewBox="-10 0 1010 1000">
   <path fill="currentColor"
d="M655 335v-47h259l9 -2l30 18c-20 40 -51 72 -87 99c34 15 66 29 90 43l-22 37c-30 -16 -68 -35 -111 -53c-47 27 -99 45 -150 57c-5 -11 -17 -29 -26 -39c41 -9 82 -22 121 -39c-30 -11 -60 -22 -91 -31l20 -34c39 12 80 25 119 39c22 -14 43 -30 61 -48h-222zM891 225
l-23 40c-51 -20 -118 -41 -193 -59c-76 29 -164 48 -251 60c-7 -13 -18 -32 -28 -43c66 -6 133 -18 195 -36c-41 -9 -84 -17 -127 -24l19 -35c62 9 124 21 183 34c36 -15 68 -31 94 -50h-326v-42h375l12 -3l36 20c-29 37 -71 67 -120 91c60 16 113 32 154 47zM638 428
l-22 40c-24 -15 -56 -32 -91 -47c-46 27 -97 47 -147 59c-6 -10 -17 -28 -25 -38c40 -9 82 -23 120 -41c-25 -9 -52 -18 -77 -25l17 -35c37 9 73 20 108 33c20 -13 38 -27 54 -44h-203v-45h238l9 -2l28 18c-20 36 -47 66 -80 92c27 12 52 24 71 35zM349 533l-110 37v294
c0 41 -9 60 -34 72c-23 12 -61 15 -124 14c-3 -18 -12 -48 -22 -69c43 1 83 1 94 1c12 0 17 -4 17 -19v-272l-119 39l-19 -71c38 -11 85 -26 138 -41v-205h-124v-69h124v-200h69v200h107l1 68h-108v184l100 -31zM502 834v47h291v-47h-291zM853 554h-412v46h412v-46zM502 742
v48h291v-48h-291zM793 698v-47h-291v47h291zM863 638v243h90v52h-608v-52h89v-243h-62v-134h553v134h-62z" />
</svg>
