<?xml version="1.0" standalone="no"?>
<!DOCTYPE svg PUBLIC "-//W3C//DTD SVG 1.1//EN" "http://www.w3.org/Graphics/SVG/1.1/DTD/svg11.dtd" >
<svg xmlns="http://www.w3.org/2000/svg" xmlns:xlink="http://www.w3.org/1999/xlink" version="1.1" viewBox="-10 0 1010 1000">
   <path fill="currentColor"
d="M642 85l53 17c-18 51 -38 109 -55 148l-41 -15c15 -40 34 -107 43 -150zM412 236l-48 15c-5 -40 -19 -100 -36 -147l44 -14c19 47 34 107 40 146zM320 518l-95 38v312c0 38 -8 56 -31 68c-22 11 -58 14 -115 14c-2 -18 -11 -47 -20 -66c39 1 75 1 85 0c12 0 17 -3 17 -16
v-288l-98 38l-21 -71c34 -11 75 -26 119 -41v-193h-109v-69h109v-200h64v200h83v69h-83v168l82 -30zM573 340l59 14c-16 42 -32 92 -49 130h83v57h-132v101h120v57h-120v114c42 -6 85 -12 128 -19l1 55c-119 21 -243 43 -336 59l-13 -65c43 -5 98 -13 156 -21v-123h-117v-57
h117v-101h-129v-57h189c16 -42 33 -102 43 -144zM379 355l51 -17c16 38 30 89 34 121l-54 21c-4 -34 -17 -86 -31 -125zM577 56v220h95v58h-341v-58h105v-220h48v220h45v-220h48zM956 249v68h-63v553c0 42 -9 62 -32 74s-61 14 -118 14c-2 -19 -12 -49 -21 -70
c41 2 80 2 91 1c12 0 16 -4 16 -18v-554h-140v-68h140v-187h64v187h63zM807 692l-54 19c-9 -60 -31 -164 -51 -242l50 -14c22 78 46 179 55 237z" />
</svg>
