<?xml version="1.0" standalone="no"?>
<!DOCTYPE svg PUBLIC "-//W3C//DTD SVG 1.1//EN" "http://www.w3.org/Graphics/SVG/1.1/DTD/svg11.dtd" >
<svg xmlns="http://www.w3.org/2000/svg" xmlns:xlink="http://www.w3.org/1999/xlink" version="1.1" viewBox="-10 0 1010 1000">
   <path fill="currentColor"
d="M392 245v102h-62v-151h273v-56h-226v-57h509v57h-221v56h272v151h-65v-102h-207v210h-62v-210h-211zM870 410l-19 43c-40 -18 -113 -46 -169 -62l20 -37c55 13 129 39 168 56zM822 262l30 39c-42 20 -100 36 -142 45l-25 -34c41 -11 103 -37 137 -50zM410 450l-23 -51
c50 -11 116 -29 186 -47l6 43c-60 19 -117 38 -169 55zM418 298l23 -36c45 12 104 33 136 50l-24 40c-31 -16 -89 -39 -135 -54zM316 547l-98 38v281c0 38 -9 57 -31 69c-21 11 -56 13 -109 13c-3 -18 -12 -46 -21 -66c36 1 70 1 80 0c11 0 15 -3 15 -15v-257l-89 35
l-21 -72c31 -10 69 -22 110 -37v-223h-100v-69h100v-200h66v200h80v69h-80v199c28 -10 57 -21 86 -32zM875 732l42 41c-34 23 -74 42 -108 59c41 27 90 49 144 62c-14 12 -31 33 -39 49c-125 -35 -221 -115 -272 -221h-76v146l139 -33c-2 16 -2 38 -1 51
c-178 51 -204 59 -219 70c-4 -16 -15 -41 -24 -53c15 -8 41 -24 41 -61v-120h-69c-11 81 -38 169 -101 235c-12 -12 -38 -31 -54 -39c85 -88 97 -208 97 -299v-143h536v52h-471v46h442v48h-442c0 15 0 30 -1 47h500v53h-236c17 28 38 55 64 78c37 -20 82 -49 108 -68z" />
</svg>
