<?xml version="1.0" standalone="no"?>
<!DOCTYPE svg PUBLIC "-//W3C//DTD SVG 1.1//EN" "http://www.w3.org/Graphics/SVG/1.1/DTD/svg11.dtd" >
<svg xmlns="http://www.w3.org/2000/svg" xmlns:xlink="http://www.w3.org/1999/xlink" version="1.1" viewBox="-10 0 1010 1000">
   <path fill="currentColor"
d="M338 464l10 69l-109 36v301c0 40 -9 61 -34 73c-24 11 -62 14 -124 13c-3 -17 -12 -48 -22 -68c43 1 82 1 94 0c12 0 17 -3 17 -18v-279l-119 39l-19 -72c38 -10 86 -25 138 -41v-205h-125v-68h125v-200h69v200h107v68h-107v184c33 -10 66 -21 99 -32zM936 687v197
c0 34 -7 52 -34 63c-27 10 -69 10 -132 10c-3 -18 -14 -43 -23 -61c50 2 91 2 104 1c13 0 16 -3 16 -13v-139h-106v116h-236v-116h-106v209h-69v-267h234v118h115v-118h237zM463 544v56h154v-56h-154zM656 226h-168l18 5c-10 22 -21 44 -34 66h149c13 -22 26 -49 35 -71z
M617 399v-53h-154v53h154zM617 499v-55h-154v55h154zM688 600h258v50h-550v-244c-17 21 -35 40 -53 56c-12 -11 -40 -32 -56 -41c59 -49 113 -121 147 -195h-66v-157h68v97h163v-123h72v123h176v-97h70v157h-209l25 7c-13 22 -27 44 -40 64h226v49h-231v53h203v45h-203v55
h203v45h-203v56z" />
</svg>
