<?xml version="1.0" standalone="no"?>
<!DOCTYPE svg PUBLIC "-//W3C//DTD SVG 1.1//EN" "http://www.w3.org/Graphics/SVG/1.1/DTD/svg11.dtd" >
<svg xmlns="http://www.w3.org/2000/svg" xmlns:xlink="http://www.w3.org/1999/xlink" version="1.1" viewBox="-10 0 1010 1000">
   <path fill="currentColor"
d="M317 521l-88 34v312c0 39 -8 58 -32 70c-23 11 -59 13 -116 13c-3 -18 -12 -47 -22 -66c40 1 75 1 86 0c12 0 16 -3 16 -16v-287l-98 37l-21 -71c34 -10 75 -25 119 -41v-193h-109v-69h109v-200h68v200h85v69h-85v169l74 -29zM834 52l61 18c-27 40 -58 80 -83 108
l-49 -16c24 -32 55 -79 71 -110zM558 626v-59h-122v59h122zM436 835l122 -13v-55h-122v68zM558 725v-57h-122v57h122zM740 234h-225c16 24 36 55 47 77h131c18 -25 36 -54 47 -77zM952 567h-336v389h-58v-86c-85 13 -164 24 -231 34l-13 -58c21 -1 43 -3 68 -6v-273h-53v-52
h265v-53h-219v-48h219v-53h-246v-50h144c-11 -21 -25 -45 -37 -65l50 -12h-172v-56h109c-13 -29 -41 -74 -65 -106l50 -19c27 32 56 77 69 105l-46 20h85v-135h59v135h72v-135h60v135h213v56h-177l41 11c-15 23 -30 45 -45 66h167v50h-262v53h237v48h-237v53h289v52z
M864 662h-146c18 47 42 90 73 128c31 -37 55 -80 73 -128zM896 609l36 14c-22 83 -58 151 -103 206c36 34 79 62 126 79c-13 11 -29 30 -37 45c-47 -19 -89 -49 -126 -85c-40 37 -85 67 -132 88c-7 -13 -21 -32 -33 -43c46 -19 91 -48 129 -85c-37 -48 -67 -104 -87 -165
l4 -1h-30v-50h243z" />
</svg>
