<?xml version="1.0" standalone="no"?>
<!DOCTYPE svg PUBLIC "-//W3C//DTD SVG 1.1//EN" "http://www.w3.org/Graphics/SVG/1.1/DTD/svg11.dtd" >
<svg xmlns="http://www.w3.org/2000/svg" xmlns:xlink="http://www.w3.org/1999/xlink" version="1.1" viewBox="-10 0 1010 1000">
   <path fill="currentColor"
d="M101 500c0 -37 29 -66 66 -66s66 29 66 66s-29 66 -66 66s-66 -29 -66 -66zM434 500c0 -37 29 -66 66 -66s66 29 66 66s-29 66 -66 66s-66 -29 -66 -66zM767 500c0 -37 29 -66 66 -66s66 29 66 66s-29 66 -66 66s-66 -29 -66 -66z" />
</svg>
