<?xml version="1.0" standalone="no"?>
<!DOCTYPE svg PUBLIC "-//W3C//DTD SVG 1.1//EN" "http://www.w3.org/Graphics/SVG/1.1/DTD/svg11.dtd" >
<svg xmlns="http://www.w3.org/2000/svg" xmlns:xlink="http://www.w3.org/1999/xlink" version="1.1" viewBox="-10 0 1010 1000">
   <path fill="currentColor"
d="M497 99v237h-400v-237h65v176h106v-232h65v232h97v-176h67zM516 401v63h-447v-63h447zM153 635v-129h70v130c0 100 -22 232 -123 320c-13 -12 -42 -33 -59 -41c98 -82 112 -195 112 -280zM439 771l104 -60c4 18 12 45 18 57c-167 105 -192 123 -206 139
c-5 -16 -22 -43 -34 -55c18 -12 47 -39 47 -83v-263h71v265zM664 295l-3 10c18 112 46 217 83 309c38 -91 63 -197 79 -319h-159zM952 295h-58c-23 159 -57 290 -112 400c47 87 108 157 183 201c-16 13 -38 39 -50 58c-70 -46 -126 -111 -172 -191c-52 80 -118 144 -203 197
c-7 -15 -28 -48 -42 -61c91 -51 158 -121 208 -207c-37 -81 -65 -175 -87 -275c-16 36 -34 68 -55 98c-7 -15 -29 -47 -42 -61c68 -98 107 -252 129 -411l66 10c-9 59 -20 117 -34 173h269v69z" />
</svg>
