<?xml version="1.0" standalone="no"?>
<!DOCTYPE svg PUBLIC "-//W3C//DTD SVG 1.1//EN" "http://www.w3.org/Graphics/SVG/1.1/DTD/svg11.dtd" >
<svg xmlns="http://www.w3.org/2000/svg" xmlns:xlink="http://www.w3.org/1999/xlink" version="1.1" viewBox="-10 0 1010 1000">
   <path fill="currentColor"
d="M459 849h272v-117h-272v117zM731 560h-272v111h272v-111zM387 358h223c-19 -26 -36 -54 -51 -83h-121c-16 29 -33 56 -51 83zM946 423h-178c57 44 123 78 195 100c-18 14 -39 42 -49 61c-39 -14 -76 -31 -111 -51v423h-72v-41h-272v41h-69v-459h358
c-30 -22 -58 -47 -84 -74h-329c-26 29 -54 57 -85 82h19v451h-72v-412c-34 22 -70 42 -109 60c-10 -16 -30 -44 -44 -57c76 -32 139 -74 193 -124h-182v-65h243c22 -26 41 -54 58 -83h-237v-64h148c-13 -36 -39 -85 -63 -123l62 -22c28 42 59 96 69 132l-33 13h88
c26 -54 45 -110 59 -169l75 14c-15 54 -33 106 -55 155h203l-35 -13c28 -37 64 -96 83 -137l72 24c-27 45 -59 92 -85 126h177v64h-248c17 29 38 57 61 83h249v65z" />
</svg>
