<?xml version="1.0" standalone="no"?>
<!DOCTYPE svg PUBLIC "-//W3C//DTD SVG 1.1//EN" "http://www.w3.org/Graphics/SVG/1.1/DTD/svg11.dtd" >
<svg xmlns="http://www.w3.org/2000/svg" xmlns:xlink="http://www.w3.org/1999/xlink" version="1.1" viewBox="-10 0 1010 1000">
   <path fill="currentColor"
d="M211 805h207v-44h-205c0 14 -1 28 -2 44zM418 670h-205v49h205v-49zM486 622v269c0 31 -6 44 -29 54c-22 9 -58 8 -108 8c-4 -15 -14 -35 -22 -50c35 2 69 2 78 1c10 -1 13 -4 13 -13v-43h-214c-9 42 -25 82 -59 113c-13 -11 -38 -29 -54 -36c47 -46 55 -117 55 -169
v-134h340zM580 885v-244h67v244h-67zM777 890v-281h70v283c0 33 -6 46 -29 55c-23 10 -58 10 -111 10c-3 -17 -14 -38 -22 -54c36 1 68 1 78 1c11 0 14 -4 14 -14zM246 261v65h509v-65h-509zM246 144v64h509v-64h-509zM540 381l32 16c-7 6 -15 11 -22 17
c132 64 275 96 408 123c-15 15 -34 40 -43 60c-132 -30 -274 -71 -416 -148c-52 32 -112 60 -176 85h353v46h-356v-45c-78 29 -160 53 -241 70c-8 -17 -24 -42 -38 -57c162 -32 340 -91 446 -167h-316v-292h663v292h-294z" />
</svg>
