<?xml version="1.0" standalone="no"?>
<!DOCTYPE svg PUBLIC "-//W3C//DTD SVG 1.1//EN" "http://www.w3.org/Graphics/SVG/1.1/DTD/svg11.dtd" >
<svg xmlns="http://www.w3.org/2000/svg" xmlns:xlink="http://www.w3.org/1999/xlink" version="1.1" viewBox="-10 0 1010 1000">
   <path fill="currentColor"
d="M257 179h-118v222h118v-222zM139 695h118v-229h-118v229zM319 761h-180v80h-61v-728h241v648zM435 700h141v-82h-140v29c0 18 0 35 -1 53zM576 476h-140v85h140v-85zM638 415v463c0 33 -5 51 -26 62c-20 11 -51 12 -94 12c-3 -18 -11 -45 -19 -63c31 1 56 1 65 1
c10 -1 12 -3 12 -12v-122h-145c-7 73 -24 147 -61 204c-13 -11 -36 -27 -52 -35c48 -77 55 -190 55 -279v-231h265zM843 875v-478h61v479c0 36 -7 52 -31 63c-25 10 -64 11 -123 11c-3 -17 -11 -42 -20 -60c45 1 85 1 97 1c12 -1 16 -4 16 -16zM761 434v358h-59v-358h59z
M641 41l61 27c-7 10 -14 21 -22 31c79 87 176 143 283 189c-17 15 -37 37 -47 57c-104 -52 -195 -112 -274 -199c-48 54 -106 104 -168 145h340v60h-354v-51c-29 20 -59 36 -89 51c-12 -17 -32 -39 -50 -55c125 -54 252 -151 320 -255z" />
</svg>
