<?xml version="1.0" standalone="no"?>
<!DOCTYPE svg PUBLIC "-//W3C//DTD SVG 1.1//EN" "http://www.w3.org/Graphics/SVG/1.1/DTD/svg11.dtd" >
<svg xmlns="http://www.w3.org/2000/svg" xmlns:xlink="http://www.w3.org/1999/xlink" version="1.1" viewBox="-10 0 1010 1000">
   <path fill="currentColor"
d="M263 179h-124v222h124v-222zM139 694h124v-228h-124v228zM325 761h-186v80h-61v-728h247v648zM838 474h-256v83h256v-83zM838 699v-84h-256v84h256zM582 855h256v-98h-256v98zM516 957v-545h390v539h-68v-35h-256v41h-66zM860 289v-145h-157v145h157zM474 144v145h162
v-145h-162zM930 82v269h-456v29c0 167 -14 410 -110 574c-13 -12 -44 -30 -62 -37c93 -155 101 -378 101 -537v-298h527z" />
</svg>
