<?xml version="1.0" standalone="no"?>
<!DOCTYPE svg PUBLIC "-//W3C//DTD SVG 1.1//EN" "http://www.w3.org/Graphics/SVG/1.1/DTD/svg11.dtd" >
<svg xmlns="http://www.w3.org/2000/svg" xmlns:xlink="http://www.w3.org/1999/xlink" version="1.1" viewBox="-10 0 1010 1000">
   <path fill="currentColor"
d="M255 185v-48h-181v-48h181v-46h67v46h184v48h-184v48h157v48h-383v-48h159zM404 425h-166c-28 65 -76 118 -156 155c-8 -14 -26 -36 -40 -46c98 -41 139 -113 156 -191h-147v-50h212c-6 -14 -13 -29 -19 -41l59 -15c10 17 20 37 28 56h190v50h-257c-3 14 -6 26 -10 39
h216s-1 16 -2 24c-9 81 -19 118 -37 134c-13 13 -30 17 -52 18c-20 1 -58 0 -97 -2c0 -14 -7 -34 -15 -48c38 4 75 5 87 4c14 0 21 0 28 -6c8 -9 15 -32 22 -81zM744 639h-483v86h483v-86zM261 862h483v-82h-483v82zM187 957v-376h635v373h-78v-31h-483v34h-74zM801 215
h-164c21 60 49 113 86 157c36 -43 61 -95 78 -157zM935 215h-68c-21 81 -55 148 -101 202c51 46 113 80 187 100c-14 13 -32 39 -42 56c-75 -23 -138 -61 -189 -110c-53 48 -119 84 -195 112c-7 -13 -27 -40 -40 -53c78 -24 142 -58 193 -104c-37 -47 -67 -103 -90 -166
c-13 16 -26 31 -40 44c-11 -11 -38 -31 -54 -40c61 -52 107 -129 132 -214l65 15c-11 34 -24 67 -41 98h283v60z" />
</svg>
