<?xml version="1.0" standalone="no"?>
<!DOCTYPE svg PUBLIC "-//W3C//DTD SVG 1.1//EN" "http://www.w3.org/Graphics/SVG/1.1/DTD/svg11.dtd" >
<svg xmlns="http://www.w3.org/2000/svg" xmlns:xlink="http://www.w3.org/1999/xlink" version="1.1" viewBox="-10 0 1010 1000">
   <path fill="currentColor"
d="M827 239v-94h-221v94h221zM827 391v-95h-221v95h221zM894 85v366h-352v-366h352zM386 238v-94h-225v94h225zM386 390v-96h-225v96h225zM453 84v366h-356v-366h356zM406 582h-266v91h266v-91zM140 850h266v-114h-266v114zM75 957v-440h399v435h-68v-38h-266v43h-65z
M588 851h268v-114h-268v114zM856 583h-268v91h268v-91zM523 518h400v436h-67v-38h-268v42h-65v-440z" />
</svg>
