<?xml version="1.0" standalone="no"?>
<!DOCTYPE svg PUBLIC "-//W3C//DTD SVG 1.1//EN" "http://www.w3.org/Graphics/SVG/1.1/DTD/svg11.dtd" >
<svg xmlns="http://www.w3.org/2000/svg" xmlns:xlink="http://www.w3.org/1999/xlink" version="1.1" viewBox="-10 0 1010 1000">
   <path fill="currentColor"
d="M856 229l75 26c-33 90 -73 205 -107 274l-58 -21c32 -74 72 -193 90 -279zM585 506l-64 30c-15 -70 -49 -195 -80 -288l60 -23c33 95 70 213 84 281zM421 566l-44 68c-18 -38 -57 -108 -90 -166v486h-72v-478c-36 110 -82 217 -131 285c-9 -21 -29 -49 -41 -66
c65 -89 131 -251 161 -389h-130v-70h141v-192h72v192h131v70h-131v57c32 44 116 172 134 203zM646 53h74c0 138 -1 267 -12 384c33 211 102 382 247 453c-15 14 -37 42 -48 62c-117 -66 -186 -184 -228 -341c-38 150 -112 269 -257 349c-10 -18 -33 -43 -51 -55
c282 -151 274 -457 275 -852z" />
</svg>
