<?xml version="1.0" standalone="no"?>
<!DOCTYPE svg PUBLIC "-//W3C//DTD SVG 1.1//EN" "http://www.w3.org/Graphics/SVG/1.1/DTD/svg11.dtd" >
<svg xmlns="http://www.w3.org/2000/svg" xmlns:xlink="http://www.w3.org/1999/xlink" version="1.1" viewBox="-10 0 1010 1000">
   <path fill="currentColor"
d="M397 568l-41 57c-17 -32 -54 -92 -85 -139v469h-70v-465c-34 109 -79 214 -126 279c-8 -20 -26 -49 -39 -66c63 -84 127 -240 158 -377h-139v-69h146v-214h70v214h121v69h-121v76c29 34 107 140 126 166zM959 415h-161c-23 36 -47 71 -73 104h216v64h-178v289
c0 38 -9 62 -42 73c-31 12 -79 13 -155 13c-4 -20 -17 -51 -28 -70c61 2 115 2 132 1c15 -1 20 -5 20 -18v-288h-18c-83 93 -178 171 -287 234c-9 -15 -35 -44 -51 -59c90 -47 170 -106 241 -175h-164v-64h224c29 -33 56 -67 81 -104h-340v-67h207v-121h-155v-65h155v-119
h73v119h151v65h-151v121h102c47 -78 86 -164 118 -256l70 19c-31 85 -67 164 -108 237h121v67z" />
</svg>
