<?xml version="1.0" standalone="no"?>
<!DOCTYPE svg PUBLIC "-//W3C//DTD SVG 1.1//EN" "http://www.w3.org/Graphics/SVG/1.1/DTD/svg11.dtd" >
<svg xmlns="http://www.w3.org/2000/svg" xmlns:xlink="http://www.w3.org/1999/xlink" version="1.1" viewBox="-10 0 1010 1000">
   <path fill="currentColor"
d="M872 395v-207h-122v207h122zM930 127v328h-236v-328h236zM598 224h-75c-17 118 -55 210 -139 270c-9 -14 -29 -37 -43 -47c70 -50 103 -126 118 -223h-79v-63h87c3 -34 5 -70 6 -108h64c-1 37 -3 74 -6 108l133 -1s0 19 -1 28c-7 175 -15 239 -34 261
c-13 16 -30 22 -53 23c-18 2 -52 2 -86 0c-1 -16 -8 -39 -15 -53c32 3 61 3 74 3c12 1 19 -1 25 -9c11 -13 17 -62 24 -189zM363 530l-44 53c-13 -30 -41 -85 -67 -133v506h-70v-463c-29 102 -68 199 -107 261c-9 -22 -26 -54 -38 -72c58 -84 115 -244 142 -380h-116v-67
h119v-192h70v192h103v67h-103v54c28 39 96 146 111 174zM515 686l59 22c-38 75 -110 152 -177 193c-11 -18 -33 -42 -50 -55c64 -32 132 -97 168 -160zM933 645h-245v309h-72v-309h-242v-67h242v-97h72v97h245v67zM729 719l53 -33c58 50 131 123 166 169l-55 38
c-34 -46 -106 -122 -164 -174z" />
</svg>
