<?xml version="1.0" standalone="no"?>
<!DOCTYPE svg PUBLIC "-//W3C//DTD SVG 1.1//EN" "http://www.w3.org/Graphics/SVG/1.1/DTD/svg11.dtd" >
<svg xmlns="http://www.w3.org/2000/svg" xmlns:xlink="http://www.w3.org/1999/xlink" version="1.1" viewBox="-10 0 1010 1000">
   <path fill="currentColor"
d="M264 305v47c27 34 106 150 124 178l-46 56c-15 -33 -49 -94 -78 -144v514h-71v-481c-32 103 -74 201 -117 262c-7 -21 -25 -54 -38 -72c60 -80 121 -230 150 -360h-134v-70h139v-192h71v192h117v70h-117zM906 477v402c0 37 -8 54 -35 64c-26 10 -69 10 -137 10
c-3 -17 -12 -42 -21 -59c48 2 93 2 105 1c14 -1 18 -4 18 -17v-116c-102 35 -205 70 -287 97l-23 -70c77 -20 194 -52 310 -84v-168h-309v163c0 85 -11 191 -80 261c-11 -14 -40 -38 -56 -47c59 -61 65 -144 65 -215v-222h450zM545 620l26 -48c79 23 188 58 244 84l-25 55
c-57 -27 -164 -65 -245 -91zM866 223v-86h-158v86h158zM866 364v-87h-158v87h158zM489 277v87h153v-87h-153zM489 137v86h153v-86h-153zM420 79h517v342h-517v-342z" />
</svg>
