<?xml version="1.0" standalone="no"?>
<!DOCTYPE svg PUBLIC "-//W3C//DTD SVG 1.1//EN" "http://www.w3.org/Graphics/SVG/1.1/DTD/svg11.dtd" >
<svg xmlns="http://www.w3.org/2000/svg" xmlns:xlink="http://www.w3.org/1999/xlink" version="1.1" viewBox="-10 0 1010 1000">
   <path fill="currentColor"
d="M264 305v47c26 35 100 150 117 179l-46 53c-13 -32 -44 -91 -71 -140v512h-68v-490c-33 107 -75 208 -120 271c-7 -21 -25 -54 -38 -71c60 -80 121 -230 150 -361h-133v-70h141v-192h68v192h106v42c55 -59 96 -146 118 -237l66 15c-8 30 -18 61 -29 89h411v64h-440
c-24 49 -53 91 -84 126c-10 -10 -27 -26 -42 -37v8h-106zM549 774l66 21c-39 58 -105 120 -161 158c-13 -12 -38 -35 -54 -45c56 -34 115 -83 149 -134zM741 811l51 -34c52 41 116 101 147 141l-55 41c-29 -40 -92 -103 -143 -148zM568 619v70h220v-70h-220zM788 383h-220
v65h220v-65zM568 499v69h220v-69h-220zM856 689h88v64h-550v-64h106v-306h-64v-63h64v-70h68v70h220v-70h68v70h62v63h-62v306z" />
</svg>
