<?xml version="1.0" standalone="no"?>
<!DOCTYPE svg PUBLIC "-//W3C//DTD SVG 1.1//EN" "http://www.w3.org/Graphics/SVG/1.1/DTD/svg11.dtd" >
<svg xmlns="http://www.w3.org/2000/svg" xmlns:xlink="http://www.w3.org/1999/xlink" version="1.1" viewBox="-10 0 1010 1000">
   <path fill="currentColor"
d="M675 98v69h-326v-69h326zM590 468v-145h-158v145h158zM650 262v267h-276v-267h276zM491 751l-57 16c-1 -50 -17 -126 -36 -185l53 -15c22 58 38 134 40 184zM355 548l-37 54c-12 -29 -44 -86 -70 -132v486h-67v-459c-30 105 -70 207 -111 271c-8 -20 -24 -47 -36 -64
c56 -83 112 -241 139 -376h-118v-69h126v-216h67v216h96v69h-96v63c25 33 92 133 107 157zM582 781l102 -23l6 64c-119 29 -241 59 -332 80l-17 -69c49 -10 113 -24 182 -39c16 -64 34 -163 41 -233l63 18c-13 66 -29 142 -45 202zM798 669l-60 21c-6 -63 -29 -168 -57 -248
l56 -15c29 78 55 181 61 242zM957 270v68h-61v531c0 42 -10 62 -34 74c-26 13 -67 15 -129 15c-3 -19 -13 -51 -24 -71c45 2 87 2 100 1s18 -5 18 -19v-531h-150v-68h150v-223h69v223h61z" />
</svg>
