<?xml version="1.0" standalone="no"?>
<!DOCTYPE svg PUBLIC "-//W3C//DTD SVG 1.1//EN" "http://www.w3.org/Graphics/SVG/1.1/DTD/svg11.dtd" >
<svg xmlns="http://www.w3.org/2000/svg" xmlns:xlink="http://www.w3.org/1999/xlink" version="1.1" viewBox="-10 0 1010 1000">
   <path fill="currentColor"
d="M267 305v52c25 34 101 150 118 179l-44 52c-14 -31 -47 -92 -74 -142v505h-68v-498c-34 115 -79 227 -126 297c-8 -22 -26 -54 -40 -73c62 -82 125 -239 155 -372h-127v-70h138v-191h68v191h107v70h-107zM567 853h269c33 0 83 -3 106 -9c2 19 7 49 10 64
c-20 6 -67 7 -116 7h-265c-112 0 -154 -38 -154 -151v-613h-56v-66h581v66h-457v616c0 62 19 86 82 86zM658 614v123h173v-123h-173zM935 489h-236c-14 25 -27 49 -43 72h235v229h-291v-157c-21 23 -44 44 -67 63c-8 -13 -28 -37 -40 -49c54 -40 102 -94 139 -158h-116v-57
h147c11 -24 20 -49 29 -76l57 16c-7 20 -15 41 -23 60h209v57zM602 191h57v69h45v54h-45v65h-57v-65h-84v-54h84v-69zM788 191h57v68h82v55h-82v65h-57v-65h-51v-55h51v-68z" />
</svg>
