<?xml version="1.0" standalone="no"?>
<!DOCTYPE svg PUBLIC "-//W3C//DTD SVG 1.1//EN" "http://www.w3.org/Graphics/SVG/1.1/DTD/svg11.dtd" >
<svg xmlns="http://www.w3.org/2000/svg" xmlns:xlink="http://www.w3.org/1999/xlink" version="1.1" viewBox="-10 0 1010 1000">
   <path fill="currentColor"
d="M644 209h-142v58h142v-58zM644 378v-60h-142v60h142zM644 492v-62h-142v62h142zM66 578l-21 -66c37 -12 82 -27 131 -45v-203h-120v-60h120v-154h68v154h117v46c48 -58 89 -131 115 -206l64 16c-11 32 -25 63 -40 94h143c16 -34 32 -74 41 -104l77 16
c-15 30 -31 61 -46 88h204v55h-205v58h180v51h-180v60h180v52h-180v62h226v55h-509v-279c-22 31 -45 59 -69 82c-10 -12 -34 -39 -48 -50c12 -11 24 -23 35 -36h-105v179l124 -45l10 60c-108 43 -224 87 -312 120zM944 695h-344c88 82 231 150 361 182c-17 15 -37 42 -48 61
c-136 -42 -287 -129 -378 -230v248h-74v-245c-92 101 -242 188 -374 233c-10 -18 -31 -45 -47 -59c126 -35 268 -108 358 -190h-341v-60h404v-69h74v69h409v60z" />
</svg>
