<?xml version="1.0" standalone="no"?>
<!DOCTYPE svg PUBLIC "-//W3C//DTD SVG 1.1//EN" "http://www.w3.org/Graphics/SVG/1.1/DTD/svg11.dtd" >
<svg xmlns="http://www.w3.org/2000/svg" xmlns:xlink="http://www.w3.org/1999/xlink" version="1.1" viewBox="-10 0 1010 1000">
   <path fill="currentColor"
d="M953 156v64h-590v-64h170c-17 -27 -44 -63 -69 -90l60 -22c30 30 63 72 78 100l-30 12h140c29 -35 62 -82 81 -117l68 20c-23 33 -48 68 -72 97h164zM783 610h-57v-315h57v315zM360 531l-45 52c-12 -29 -36 -79 -59 -124v490h-69v-471c-31 105 -71 207 -112 270
c-8 -21 -25 -53 -38 -71c58 -82 117 -241 145 -372h-121v-70h126v-192h69v192h104v70h-104v56c25 38 89 143 104 170zM379 957l-62 -21c32 -50 66 -131 87 -196l61 12c-21 65 -54 150 -86 205zM525 765l58 -7c16 60 32 137 37 183l-61 10c-5 -47 -19 -126 -34 -186zM465 526
h140v-71h-137c0 22 -1 47 -3 71zM605 333h-137v71h137v-71zM665 278v380c0 29 -6 43 -27 53c-20 9 -53 9 -100 9c-2 -16 -10 -35 -18 -50c34 1 62 1 72 1c10 -1 13 -4 13 -13v-81h-147c-9 53 -26 106 -57 148c-11 -11 -34 -27 -49 -33c48 -71 55 -171 55 -247v-167h258z
M656 762l60 -11c26 57 54 133 63 180l-63 12c-9 -46 -34 -123 -60 -181zM915 263v391c0 31 -7 44 -28 54c-20 9 -52 10 -98 10c-3 -16 -11 -38 -20 -53c33 1 63 1 73 1s12 -3 12 -13v-390h61zM798 753l59 -17c36 62 80 146 100 196l-63 21c-18 -50 -60 -135 -96 -200z" />
</svg>
