<?xml version="1.0" standalone="no"?>
<!DOCTYPE svg PUBLIC "-//W3C//DTD SVG 1.1//EN" "http://www.w3.org/Graphics/SVG/1.1/DTD/svg11.dtd" >
<svg xmlns="http://www.w3.org/2000/svg" xmlns:xlink="http://www.w3.org/1999/xlink" version="1.1" viewBox="-10 0 1010 1000">
   <path fill="currentColor"
d="M349 578l-38 54c-12 -31 -42 -91 -67 -141v464h-66v-459c-29 105 -67 205 -107 268c-8 -17 -25 -45 -36 -61c55 -83 111 -241 137 -376h-117v-68h123v-216h66v216h89v68h-89v78c26 38 90 146 105 173zM761 692h113v-90h-110v9c0 25 -1 52 -3 81zM874 461h-110v87h110v-87
zM397 714h78v-66h-78v66zM612 648h-81v66h81v-66zM447 473v45h118v-45h-118zM937 407v477c0 32 -6 51 -28 61c-24 10 -60 10 -116 10c-2 -16 -11 -41 -19 -59c40 2 75 1 87 1c9 0 13 -3 13 -13v-139h-119c-10 77 -33 157 -79 219c-9 -12 -33 -32 -46 -39
c15 -21 28 -44 37 -68h-136v99h-56v-99h-159v-52h159v-46h-131v-157h131v-43h-84v-86h-69v-48h69v-47h56v47h118v-47h57v47h60v48h-60v86h-91v43h136v157h-136v46h145v29c25 -75 29 -157 29 -223v-204h232zM701 187v-50h-132v50h132zM701 306v-71h-132v71h132zM324 84h636
v53h-199v50h171v187h-64v-139h-107v118h-250v-118h-94v139h-62v-187h156v-50h-187v-53z" />
</svg>
