<?xml version="1.0" standalone="no"?>
<!DOCTYPE svg PUBLIC "-//W3C//DTD SVG 1.1//EN" "http://www.w3.org/Graphics/SVG/1.1/DTD/svg11.dtd" >
<svg xmlns="http://www.w3.org/2000/svg" xmlns:xlink="http://www.w3.org/1999/xlink" version="1.1" viewBox="-10 0 1010 1000">
   <path fill="currentColor"
d="M331 361h-129c-13 40 -26 78 -41 114c40 35 84 78 117 113c23 -66 41 -142 53 -227zM365 290l44 14c-38 331 -147 544 -302 653c-12 -17 -37 -44 -53 -55c80 -54 147 -134 196 -242c-29 -37 -74 -84 -117 -126c-13 28 -28 53 -45 77c-10 -15 -35 -44 -50 -57
c69 -96 113 -240 139 -395h-111v-70h382v70h-199c-8 46 -18 91 -29 134h132zM912 404h-208c39 213 119 395 253 483c-18 14 -42 41 -53 61c-110 -79 -180 -214 -229 -379c-35 136 -106 272 -246 388c-13 -16 -39 -35 -60 -47c187 -153 244 -340 261 -506h-185v-73h190
c1 -23 1 -44 1 -66v-220h73v221c0 21 0 43 -1 65h204v73z" />
</svg>
