<?xml version="1.0" standalone="no"?>
<!DOCTYPE svg PUBLIC "-//W3C//DTD SVG 1.1//EN" "http://www.w3.org/Graphics/SVG/1.1/DTD/svg11.dtd" >
<svg xmlns="http://www.w3.org/2000/svg" xmlns:xlink="http://www.w3.org/1999/xlink" version="1.1" viewBox="-10 0 1010 1000">
   <path fill="currentColor"
d="M308 156l-43 60c-36 -35 -112 -82 -175 -110l42 -55c61 27 139 70 176 105zM260 416l-42 62c-37 -33 -114 -77 -177 -104l42 -55c61 23 139 65 177 97zM241 574l58 45c-47 106 -110 231 -163 324l-65 -46c49 -77 118 -208 170 -323zM667 690v161h290v68h-668v-68h303
v-161h-215v-67h215v-121h75v121h220v67h-220zM798 165h-322c35 74 87 139 154 191c70 -51 128 -114 168 -191zM853 94l47 28c-45 115 -118 206 -208 277c77 46 168 80 272 99c-16 14 -36 44 -46 63c-110 -24 -206 -64 -287 -120c-88 56 -187 96 -289 123
c-8 -19 -27 -52 -42 -65c97 -23 190 -57 271 -104c-67 -59 -120 -130 -159 -214l50 -16h-116v-67h493z" />
</svg>
