<?xml version="1.0" standalone="no"?>
<!DOCTYPE svg PUBLIC "-//W3C//DTD SVG 1.1//EN" "http://www.w3.org/Graphics/SVG/1.1/DTD/svg11.dtd" >
<svg xmlns="http://www.w3.org/2000/svg" xmlns:xlink="http://www.w3.org/1999/xlink" version="1.1" viewBox="-10 0 1010 1000">
   <path fill="currentColor"
d="M807 157h-186c-29 144 -106 269 -254 328c-9 -15 -30 -40 -42 -53c132 -51 198 -155 221 -275h-179v-66h517s-1 22 -3 32c-15 201 -32 280 -61 309c-17 19 -36 25 -63 27c-25 2 -72 1 -121 -2c-1 -18 -9 -47 -19 -65c47 5 92 6 109 6s26 -2 35 -11c18 -18 33 -80 46 -230
zM292 156l-44 58c-33 -34 -102 -80 -159 -108l43 -53c56 26 126 68 160 103zM250 414l-42 61c-35 -32 -107 -74 -167 -101l42 -54c59 24 131 63 167 94zM205 587l58 40c-38 103 -89 224 -134 316l-66 -42c42 -75 100 -203 142 -314zM280 514h310s-1 21 -2 31
c-11 257 -21 347 -45 376c-14 19 -28 25 -51 27c-17 2 -44 3 -72 1c-1 -18 -8 -45 -16 -61c26 3 48 3 60 3c11 0 17 -2 24 -11c16 -20 26 -97 35 -302h-87c-14 136 -50 294 -151 378c-9 -11 -32 -33 -46 -42c91 -76 122 -217 131 -336h-90v-64zM618 514h314s-1 21 -2 31
c-11 260 -21 351 -45 381c-14 19 -29 25 -52 27c-17 2 -47 3 -77 1c-1 -18 -7 -46 -17 -62c29 3 53 3 65 3c13 1 19 -2 25 -11c16 -20 26 -97 36 -306h-96c-11 134 -45 294 -139 378c-10 -11 -33 -33 -47 -42c85 -76 112 -218 119 -336h-84v-64z" />
</svg>
