<?xml version="1.0" standalone="no"?>
<!DOCTYPE svg PUBLIC "-//W3C//DTD SVG 1.1//EN" "http://www.w3.org/Graphics/SVG/1.1/DTD/svg11.dtd" >
<svg xmlns="http://www.w3.org/2000/svg" xmlns:xlink="http://www.w3.org/1999/xlink" version="1.1" viewBox="-10 0 1010 1000">
   <path fill="currentColor"
d="M468 284v-85h-164v-64h164v-89h69v89h80v64h-80v85h-69zM288 168l-46 55c-35 -31 -104 -81 -156 -116l44 -46c51 32 121 79 158 107zM249 427l-44 55c-36 -29 -109 -75 -164 -107l43 -49c54 30 127 73 165 101zM134 943l-69 -38c40 -80 97 -211 136 -326l61 39
c-37 107 -86 231 -128 325zM556 426h-116c-12 33 -26 65 -41 95c37 33 78 75 109 111c22 -59 37 -128 48 -206zM576 365l12 -1l41 11c-33 310 -137 493 -291 585c-9 -16 -34 -43 -47 -55c78 -43 141 -110 188 -204c-28 -38 -70 -85 -111 -124c-14 23 -28 45 -44 65
c-10 -12 -35 -37 -51 -48c65 -75 115 -191 143 -309l65 13c-6 23 -13 45 -20 67h115zM733 287v-88h-77v-64h77v-89h69v89h153v64h-153v88h-69zM761 877h112c29 0 34 -19 37 -116c15 11 40 22 59 27c-7 118 -25 152 -90 152h-126c-73 0 -95 -20 -95 -100v-490h257v286
c0 32 -6 50 -29 61c-23 10 -59 11 -113 11c-3 -18 -13 -42 -21 -60c41 1 75 1 85 1c11 -1 14 -4 14 -14v-222h-128v427c0 31 6 37 38 37z" />
</svg>
