<?xml version="1.0" standalone="no"?>
<!DOCTYPE svg PUBLIC "-//W3C//DTD SVG 1.1//EN" "http://www.w3.org/Graphics/SVG/1.1/DTD/svg11.dtd" >
<svg xmlns="http://www.w3.org/2000/svg" xmlns:xlink="http://www.w3.org/1999/xlink" version="1.1" viewBox="-10 0 1010 1000">
   <path fill="currentColor"
d="M503 345l-4 3c33 30 76 58 126 81c55 -24 103 -53 142 -84h-264zM835 290l40 32c-45 54 -107 99 -180 137c83 31 178 53 272 64c-14 14 -31 41 -40 57c-105 -16 -211 -46 -303 -87c-102 43 -215 74 -324 95c-6 -17 -22 -46 -33 -58c97 -15 199 -39 289 -72
c-39 -23 -75 -47 -105 -75c-36 25 -76 46 -115 63c-10 -14 -30 -36 -44 -48c92 -36 188 -100 232 -164h-180v-160h69v102h175v-132h66v132h184v-102h72v160h-375l57 18c-10 14 -22 27 -34 41h264zM302 173l-43 59c-35 -34 -103 -83 -159 -114l42 -52c55 29 126 74 160 107z
M247 426l-43 59c-35 -33 -108 -81 -164 -113l41 -52c55 29 129 74 166 106zM129 933l-62 -46c42 -74 103 -196 147 -302l56 45c-42 99 -94 215 -141 303zM653 755v60h295v56h-295v88h-69v-88h-300v-56h300v-60h-218v-55h218v-55h-239v-55h239v-56h69v56h236v55h-236v55h210
v55h-210z" />
</svg>
