<?xml version="1.0" standalone="no"?>
<!DOCTYPE svg PUBLIC "-//W3C//DTD SVG 1.1//EN" "http://www.w3.org/Graphics/SVG/1.1/DTD/svg11.dtd" >
<svg xmlns="http://www.w3.org/2000/svg" xmlns:xlink="http://www.w3.org/1999/xlink" version="1.1" viewBox="-10 0 1010 1000">
   <path fill="currentColor"
d="M260 164l-44 55c-31 -35 -95 -84 -147 -116l42 -48c53 30 117 75 149 109zM239 422l-43 56c-32 -33 -100 -80 -156 -109l41 -51c55 28 124 71 158 104zM186 582l55 34c-34 104 -81 226 -121 316l-63 -34c38 -77 92 -206 129 -316zM577 148h-221v121h221v-121zM356 334v74
c0 159 -11 389 -88 545c-12 -11 -41 -27 -57 -33c74 -149 80 -360 80 -512v-324h351v250h-286zM620 466h-225v-62h225v62zM408 675l56 12c-15 71 -42 146 -70 195c-12 -7 -37 -21 -51 -27c29 -48 51 -116 65 -180zM655 612h-110v330h-62v-330h-116v-64h288v64zM559 689
l53 -12c26 58 52 136 62 183l-56 15c-8 -48 -33 -126 -59 -186zM958 272v70h-68v525c0 38 -9 56 -32 68c-23 11 -59 13 -119 13c-3 -17 -14 -46 -24 -64c44 2 82 2 92 1c13 0 18 -4 18 -17v-526h-158v-70h158v-224h65v224h68zM797 666l-60 18c-6 -56 -31 -150 -59 -221
l57 -13c29 70 55 161 62 216z" />
</svg>
