<?xml version="1.0" standalone="no"?>
<!DOCTYPE svg PUBLIC "-//W3C//DTD SVG 1.1//EN" "http://www.w3.org/Graphics/SVG/1.1/DTD/svg11.dtd" >
<svg xmlns="http://www.w3.org/2000/svg" xmlns:xlink="http://www.w3.org/1999/xlink" version="1.1" viewBox="-10 0 1010 1000">
   <path fill="currentColor"
d="M850 336v-187h-175v187h175zM921 86v312h-314v-312h314zM286 159l-44 58c-36 -29 -109 -77 -161 -110l44 -51c51 30 124 75 161 103zM253 416l-43 60c-38 -27 -113 -71 -169 -102l43 -53c54 28 130 69 169 95zM201 578l59 40c-37 107 -89 231 -133 326l-67 -40
c41 -79 100 -211 141 -326zM587 614l-43 59c-13 -36 -48 -106 -75 -159v443h-67v-438c-31 108 -73 215 -115 281c-7 -22 -24 -52 -36 -69c50 -76 104 -213 133 -329h-101v-67h119v-169c-32 7 -64 14 -94 19c-3 -15 -12 -39 -21 -56c86 -18 185 -47 242 -78l44 59
c-31 13 -66 26 -104 38v187h103v67h-103v25l1 -1c21 29 101 156 117 188zM795 865h164v65h-405v-65h172v-146h-139v-62h139v-126c-44 5 -88 9 -129 12c-4 -15 -13 -39 -21 -54c108 -11 239 -29 309 -54l50 53c-39 13 -88 24 -140 32v137h130v62h-130v146z" />
</svg>
