<?xml version="1.0" standalone="no"?>
<!DOCTYPE svg PUBLIC "-//W3C//DTD SVG 1.1//EN" "http://www.w3.org/Graphics/SVG/1.1/DTD/svg11.dtd" >
<svg xmlns="http://www.w3.org/2000/svg" xmlns:xlink="http://www.w3.org/1999/xlink" version="1.1" viewBox="-10 0 1010 1000">
   <path fill="currentColor"
d="M131 939l-66 -34c37 -80 87 -213 122 -328l59 37c-33 107 -77 232 -115 325zM228 451l-51 49c-29 -33 -90 -88 -136 -128l49 -44c45 38 107 91 138 123zM85 104l52 -40c42 40 100 98 129 132l-54 47c-28 -36 -84 -96 -127 -139zM468 82l44 26c-22 81 -51 179 -78 261
c56 84 69 157 70 217c0 53 -10 97 -33 116c-12 10 -27 16 -45 18c-14 2 -36 2 -54 1c-1 -18 -6 -45 -16 -63c17 2 33 2 46 1c10 0 17 -3 24 -9c12 -10 17 -39 17 -69c0 -54 -12 -124 -68 -205c23 -72 44 -158 60 -224h-92v798h-63v-866h178zM610 388l107 -22c0 19 3 47 5 60
c-142 36 -167 45 -182 55c-4 -15 -18 -42 -27 -56c14 -7 33 -20 33 -57v-313h64v125h108v64h-108v144zM841 693v-94h-222v94h222zM619 852h222v-102h-222v102zM693 450l71 16c-12 24 -24 50 -35 72h185v415h-73v-40h-222v44h-71v-419h117c11 -29 22 -62 28 -88zM831 404h56
c17 0 20 -13 22 -91c14 11 39 20 56 25c-5 96 -21 123 -70 123h-73c-60 0 -74 -18 -74 -83v-324h63v123h130v64h-130v137c0 22 3 26 20 26z" />
</svg>
