<?xml version="1.0" standalone="no"?>
<!DOCTYPE svg PUBLIC "-//W3C//DTD SVG 1.1//EN" "http://www.w3.org/Graphics/SVG/1.1/DTD/svg11.dtd" >
<svg xmlns="http://www.w3.org/2000/svg" xmlns:xlink="http://www.w3.org/1999/xlink" version="1.1" viewBox="-10 0 1010 1000">
   <path fill="currentColor"
d="M329 159l-43 62c-40 -37 -121 -84 -187 -112l40 -55c66 25 149 69 190 105zM279 419l-40 63c-42 -33 -126 -75 -194 -99l39 -57c66 22 152 61 195 93zM141 943l-63 -50c54 -75 132 -206 189 -319l54 49c-52 105 -122 228 -180 320zM724 720h-152v88h152v-88zM781 856
h-209v44h-56v-229h265v185zM926 559v320c0 36 -7 54 -34 65s-70 12 -135 12c-3 -20 -13 -45 -23 -63c49 2 92 1 105 1c14 -1 18 -4 18 -16v-261h-421v341h-68v-399h558zM746 464v-86h-204v86h204zM707 270h-126c-12 20 -25 39 -40 59h209c-16 -20 -30 -39 -43 -59zM946 270
h-168c49 63 123 121 195 151c-15 12 -37 36 -46 54c-40 -20 -79 -48 -115 -81v120h-333v-116c-32 30 -71 58 -114 83c-9 -17 -31 -39 -46 -49c82 -43 142 -101 184 -162h-154v-60h189c11 -22 19 -44 26 -66c-61 3 -122 5 -179 6c-2 -15 -10 -37 -17 -51
c163 -4 362 -18 467 -41l50 48c-68 15 -156 26 -248 33c-7 24 -16 47 -26 71h335v60z" />
</svg>
