<?xml version="1.0" standalone="no"?>
<!DOCTYPE svg PUBLIC "-//W3C//DTD SVG 1.1//EN" "http://www.w3.org/Graphics/SVG/1.1/DTD/svg11.dtd" >
<svg xmlns="http://www.w3.org/2000/svg" xmlns:xlink="http://www.w3.org/1999/xlink" version="1.1" viewBox="-10 0 1010 1000">
   <path fill="currentColor"
d="M578 230v-60h-284v-58h284v-68h74v68h292v58h-292v60h261v55h-595v-55h260zM275 166l-49 53c-28 -33 -88 -81 -140 -112l46 -49c52 29 113 75 143 108zM235 430l-49 55c-29 -34 -91 -82 -143 -113l46 -50c52 30 115 74 146 108zM128 947l-66 -42c38 -71 93 -190 132 -294
l58 41c-35 96 -83 208 -124 295zM459 725l146 1s-1 16 -2 25c-12 114 -23 161 -41 181c-13 13 -28 18 -49 19c-17 1 -50 1 -83 -1c-1 -15 -7 -35 -13 -50c32 4 61 4 72 4c13 0 20 -1 27 -8c9 -10 18 -42 26 -117h-93c-21 82 -61 142 -143 180c-6 -12 -22 -32 -35 -41
c66 -30 101 -76 119 -139h-87v-54h99c3 -21 6 -42 7 -66h57c-2 24 -4 45 -7 66zM854 760h-157v108h157v-108zM645 955v-251h262v248h-53v-32h-157v35h-52zM425 468h384v-78h-384v78zM763 598h193v59h-662v-59h171c-9 -19 -25 -46 -39 -65l63 -12c16 22 35 52 44 71l-25 6
h187c15 -25 32 -56 42 -77h-381v-184h526v184h-136l59 13c-14 22 -28 45 -42 64z" />
</svg>
