<?xml version="1.0" standalone="no"?>
<!DOCTYPE svg PUBLIC "-//W3C//DTD SVG 1.1//EN" "http://www.w3.org/Graphics/SVG/1.1/DTD/svg11.dtd" >
<svg xmlns="http://www.w3.org/2000/svg" xmlns:xlink="http://www.w3.org/1999/xlink" version="1.1" viewBox="-10 0 1010 1000">
   <path fill="currentColor"
d="M708 220v-60h-88v-60h88v-58h73v58h156v60h-156v60h-73zM829 217l68 24c-37 21 -71 40 -104 57c40 19 82 41 109 60l-59 26c-31 -24 -84 -55 -144 -84c49 -28 98 -60 130 -83zM687 359l-59 25c-28 -24 -76 -54 -132 -84c47 -28 93 -60 123 -83l66 23
c-34 22 -67 41 -99 59c39 18 76 41 101 60zM422 215v-56h-143v-59h143v-58h72v58h89v59h-89v56h-72zM414 217l67 22c-33 22 -65 43 -97 60c38 19 75 41 99 60l-60 25c-27 -24 -74 -53 -126 -84c46 -28 90 -60 117 -83zM270 162l-44 55c-33 -33 -103 -83 -158 -114l42 -49
c55 29 126 75 160 108zM249 419l-42 57c-36 -33 -109 -79 -167 -107l41 -51c57 26 131 69 168 101zM215 572l53 40c-43 107 -101 232 -151 327l-61 -41c47 -78 112 -212 159 -326zM465 788l54 25c-50 44 -142 90 -219 110c-9 -15 -29 -39 -45 -51c76 -15 165 -49 210 -84z
M397 604h173v-61h-173v61zM397 439v59h173v-59h-173zM813 498v-59h-168v59h168zM813 604v-61h-168v61h168zM939 757h-294v199h-75v-199h-290v-57h290v-49h-241v-259h554v259h-238v49h294v57zM706 831l34 -42c72 23 168 62 218 90l-35 47c-49 -30 -144 -71 -217 -95z" />
</svg>
