<?xml version="1.0" standalone="no"?>
<!DOCTYPE svg PUBLIC "-//W3C//DTD SVG 1.1//EN" "http://www.w3.org/Graphics/SVG/1.1/DTD/svg11.dtd" >
<svg xmlns="http://www.w3.org/2000/svg" xmlns:xlink="http://www.w3.org/1999/xlink" version="1.1" viewBox="-10 0 1010 1000">
   <path fill="currentColor"
d="M888 171l55 13c-19 74 -47 157 -71 212c-12 -7 -37 -17 -53 -22c27 -55 52 -134 69 -203zM723 190l49 -10c19 54 41 128 49 170l-52 14c-9 -43 -29 -119 -46 -174zM894 49l46 55c-91 26 -227 48 -338 58c-2 -15 -12 -38 -18 -54c106 -12 236 -35 310 -59zM721 381l-55 16
c-13 -47 -41 -128 -66 -189l52 -12c26 59 55 139 69 185zM245 167l-44 49c-27 -33 -85 -81 -132 -113l41 -44c47 31 106 77 135 108zM223 426l-42 49c-30 -31 -90 -77 -140 -106l40 -45c49 28 112 71 142 102zM177 571l57 36c-32 106 -75 233 -112 326l-65 -35
c37 -80 86 -212 120 -327zM334 730h167v-72h-166v23c0 16 0 32 -1 49zM501 535h-166v70h166v-70zM561 478v406c0 31 -6 47 -29 57c-20 10 -53 10 -107 10c-3 -16 -11 -39 -20 -54c38 1 72 1 81 0c11 0 15 -3 15 -13v-101h-171c-8 64 -25 128 -62 178
c-11 -10 -35 -27 -50 -34c48 -68 55 -169 55 -247v-202h288zM452 300v64h138v58h-347v-58h144v-64h-116v-54h116v-60h-132v-56h132v-86h65v86h124v56h-124v60h105v54h-105zM954 498v63h-85v322c0 35 -7 52 -31 62c-23 10 -61 12 -117 12c-3 -18 -12 -43 -21 -61
c41 2 80 2 91 1c12 0 15 -3 15 -15v-321h-215v-63h215v-91h63v91h85zM761 773l-52 27c-21 -44 -64 -120 -98 -176l49 -23c35 55 79 129 101 172z" />
</svg>
