<?xml version="1.0" standalone="no"?>
<!DOCTYPE svg PUBLIC "-//W3C//DTD SVG 1.1//EN" "http://www.w3.org/Graphics/SVG/1.1/DTD/svg11.dtd" >
<svg xmlns="http://www.w3.org/2000/svg" xmlns:xlink="http://www.w3.org/1999/xlink" version="1.1" viewBox="-10 0 1010 1000">
   <path fill="currentColor"
d="M762 408v-153c-34 57 -77 113 -114 147c-11 -12 -29 -33 -43 -43c45 -36 98 -101 132 -164h-98v-56h123v-96h60v96h124v56h-124v17c27 21 112 97 132 116l-37 43c-18 -22 -61 -65 -95 -99v136h-60zM434 405v-150c-36 58 -81 115 -121 149c-10 -12 -29 -33 -42 -43
c48 -35 103 -101 140 -166h-110v-56h133v-96h61v96h117v56h-117v14c27 22 96 84 114 101l-37 44c-15 -19 -49 -53 -77 -82v133h-61zM275 166l-50 53c-29 -32 -91 -81 -140 -112l48 -48c48 29 111 75 142 107zM234 430l-49 55c-30 -33 -92 -82 -142 -113l46 -49
c50 30 113 75 145 107zM194 611l57 41c-35 96 -83 209 -124 295l-66 -41c39 -72 93 -190 133 -295zM885 710l46 35c-38 28 -84 56 -126 77c47 34 102 59 162 75c-14 13 -31 36 -39 53c-137 -41 -243 -135 -302 -258h-108v178l154 -33c0 17 2 39 4 52
c-197 50 -223 59 -239 71c-3 -18 -15 -48 -23 -60c15 -8 41 -25 41 -65v-143h-75c-12 92 -37 192 -91 269c-11 -12 -38 -31 -53 -38c78 -108 89 -256 89 -361v-137h619v56h-557v53h511v48h-511c0 18 -1 36 -2 55h570v55h-269c20 35 47 68 77 96c43 -24 90 -54 122 -78z" />
</svg>
