<?xml version="1.0" standalone="no"?>
<!DOCTYPE svg PUBLIC "-//W3C//DTD SVG 1.1//EN" "http://www.w3.org/Graphics/SVG/1.1/DTD/svg11.dtd" >
<svg xmlns="http://www.w3.org/2000/svg" xmlns:xlink="http://www.w3.org/1999/xlink" version="1.1" viewBox="-10 0 1010 1000">
   <path fill="currentColor"
d="M945 154h-220c-17 27 -38 53 -57 73c-12 -11 -39 -29 -54 -37c43 -38 79 -94 100 -151l62 16c-5 16 -12 31 -20 47h189v52zM888 218l-43 36c-22 -19 -64 -47 -96 -68l41 -31c32 18 75 45 98 63zM606 150h-207c-27 34 -56 67 -83 90c-11 -10 -37 -30 -52 -40
c52 -41 101 -101 131 -160l62 19c-7 13 -14 26 -23 39h172v52zM417 178l46 -26c24 21 56 51 73 70l-46 30c-16 -20 -47 -51 -73 -74zM263 167l-43 51c-32 -31 -97 -80 -147 -115l42 -44c48 32 113 79 148 108zM232 426l-39 52c-35 -28 -103 -75 -154 -107l39 -45
c50 29 119 73 154 100zM186 589l54 34c-34 104 -82 227 -123 316l-61 -33c39 -77 93 -206 130 -317zM599 703h92v-56h-92v56zM599 550v52h92v-52h-92zM599 446v55h92v-55h-92zM754 317h-214c20 24 45 57 61 79h95c20 -23 43 -55 58 -79zM838 550h-85v52h85v-52zM753 703h85
v-56h-85v56zM896 751h-114c45 55 114 105 181 129c-14 13 -33 35 -42 50c-61 -28 -124 -82 -168 -141v168h-62v-206h-92v206h-61v-162c-38 57 -90 108 -143 137c-11 -15 -28 -38 -42 -50c61 -24 120 -76 159 -131h-100v-48h126v-56h-170v-45h170v-52h-122v-49h122v-55h-161
v-50h152c-13 -20 -28 -40 -42 -58l47 -21h-181v209c0 131 -14 312 -96 434c-12 -12 -40 -32 -55 -38c77 -115 85 -276 85 -396v-267h294c-10 -19 -21 -38 -32 -54l61 -17c15 22 31 48 44 71h293v58h-175l46 20c-18 21 -37 41 -53 59h176v50h-188v55h143v95h53v58h-53v97z
" />
</svg>
