<?xml version="1.0" standalone="no"?>
<!DOCTYPE svg PUBLIC "-//W3C//DTD SVG 1.1//EN" "http://www.w3.org/Graphics/SVG/1.1/DTD/svg11.dtd" >
<svg xmlns="http://www.w3.org/2000/svg" xmlns:xlink="http://www.w3.org/1999/xlink" version="1.1" viewBox="-10 0 1010 1000">
   <path fill="currentColor"
d="M245 164l-44 54c-32 -29 -94 -79 -139 -112l44 -48c43 31 103 74 135 102v-52h313c-10 -19 -21 -40 -31 -57l68 -16c16 22 34 51 44 73h312v54h-588v29c0 28 8 38 53 38h352c41 0 113 -2 140 -8c3 20 5 41 8 55c-23 5 -83 6 -138 6h-364c-93 0 -118 -26 -118 -92v-28h-49
zM803 429v-60h-429v60h429zM873 320v159h-566v-159h566zM565 574l-41 17c-8 -23 -23 -58 -36 -84l40 -11c14 24 30 57 37 78zM227 420l-43 56c-33 -28 -97 -73 -146 -105l44 -49c47 29 111 71 145 98zM171 590l58 35c-31 103 -74 225 -111 316l-65 -35
c35 -77 83 -206 118 -316zM325 651v29c0 34 -2 72 -7 110c25 -15 54 -34 86 -58v-50l-18 22c-14 -15 -39 -35 -61 -53zM404 567h-79v66l16 -16c20 14 46 33 63 49v-99zM454 517v378c0 27 -4 40 -22 49c-17 9 -44 10 -84 10c-1 -15 -7 -34 -14 -49c29 1 52 1 59 1
c9 0 11 -3 11 -11v-110c-23 18 -47 34 -71 52l-19 -27c-9 53 -25 106 -56 147c-9 -9 -31 -24 -43 -28c53 -74 59 -173 59 -249v-163h180zM677 843h-72v113h-50v-113h-82v-51h82v-54h-61v-48h61v-47h-78v-51h115c15 -30 32 -71 40 -98l46 15c-13 28 -28 58 -41 83h34v51h-66
v47h51v48h-51v54h72v51zM890 900h12c4 0 8 -1 10 -4s5 -11 7 -22c1 -15 2 -45 3 -85c10 8 24 16 37 20c-1 38 -3 82 -7 97c-3 16 -9 24 -17 31c-8 5 -19 8 -30 8h-27c-14 0 -27 -4 -37 -15c-11 -10 -13 -23 -13 -82v-277h-55v135c22 20 41 37 54 52l-25 39
c-7 -10 -18 -20 -30 -32c-5 66 -21 142 -67 194c-7 -9 -29 -26 -40 -31c52 -59 59 -141 59 -207c-19 -17 -37 -32 -54 -46l25 -33c9 6 19 14 29 23v-94h-39v-54h194v339c0 21 0 36 2 40c2 3 5 4 9 4z" />
</svg>
