<?xml version="1.0" standalone="no"?>
<!DOCTYPE svg PUBLIC "-//W3C//DTD SVG 1.1//EN" "http://www.w3.org/Graphics/SVG/1.1/DTD/svg11.dtd" >
<svg xmlns="http://www.w3.org/2000/svg" xmlns:xlink="http://www.w3.org/1999/xlink" version="1.1" viewBox="-10 0 1010 1000">
   <path fill="currentColor"
d="M245 164l-44 54c-32 -29 -94 -79 -139 -112l44 -48c43 31 103 74 135 102v-52h315c-10 -19 -22 -40 -32 -57l69 -17c16 23 34 52 45 74h309v54h-588v29c0 28 8 38 53 38h352c41 0 113 -2 140 -8c3 20 5 41 8 55c-23 5 -83 6 -138 6h-364c-93 0 -118 -26 -118 -92v-28h-49
zM803 429v-60h-429v60h429zM873 320v159h-566v-159h566zM610 544l-51 17c-6 -17 -19 -44 -31 -63l49 -14c12 18 26 44 33 60zM227 420l-43 56c-33 -28 -97 -73 -146 -105l44 -49c47 29 111 71 145 98zM171 590l58 35c-31 103 -74 225 -111 316l-65 -35
c35 -77 83 -206 118 -316zM324 650v31c0 33 -2 71 -8 110c25 -14 55 -35 88 -58v-50l-18 21c-14 -15 -40 -36 -62 -54zM404 567h-80v68l17 -18c20 15 46 33 63 49v-99zM452 517v379c0 26 -4 39 -22 48c-16 9 -43 10 -82 10c-2 -15 -8 -34 -15 -48c29 1 52 1 60 0
c9 0 11 -2 11 -11v-110c-23 18 -47 35 -71 52l-20 -29c-10 54 -27 107 -61 149c-8 -10 -29 -24 -42 -28c58 -74 65 -173 65 -249v-163h177zM679 565v42h-212v-42h212zM659 679h-171v-39h171v39zM612 827h-78v62h78v-62zM488 956v-172h171v171h-47v-26h-78v27h-46zM490 751
v-38h171v38h-171zM781 571v133c22 19 40 37 54 52v-185h-54zM893 904h11c5 0 9 -1 10 -5c3 -3 5 -11 7 -22c2 -14 3 -45 3 -85c10 9 24 16 37 20c-2 37 -4 81 -7 96c-4 15 -10 24 -18 30c-7 6 -18 9 -28 9h-25c-13 0 -27 -5 -37 -15s-11 -24 -11 -82v-90l-23 37
c-8 -10 -19 -22 -32 -34c-4 67 -20 144 -67 197c-7 -9 -27 -24 -38 -29c52 -61 58 -142 58 -208v-3c-18 -16 -35 -31 -52 -45l24 -33c9 6 18 14 28 22v-93h-42v-54h192v342c0 21 0 37 2 41c2 3 4 4 8 4z" />
</svg>
