<?xml version="1.0" standalone="no"?>
<!DOCTYPE svg PUBLIC "-//W3C//DTD SVG 1.1//EN" "http://www.w3.org/Graphics/SVG/1.1/DTD/svg11.dtd" >
<svg xmlns="http://www.w3.org/2000/svg" xmlns:xlink="http://www.w3.org/1999/xlink" version="1.1" viewBox="-10 0 1010 1000">
   <path fill="currentColor"
d="M945 154h-220c-17 28 -38 53 -57 73c-12 -11 -39 -29 -54 -37c43 -38 79 -94 100 -151l62 16c-6 16 -12 31 -20 47h189v52zM264 580h283v-39h-247v-38h509v38h-192v39h280v39h-633v-39zM897 419l48 12c-14 44 -28 94 -41 127l-59 -14c7 -22 15 -51 22 -79h-638v-43h656z
M888 218l-43 36c-22 -18 -64 -47 -96 -67l41 -32c32 18 75 46 98 63zM606 150h-207c-26 34 -56 67 -83 91c-11 -11 -36 -31 -52 -41c52 -41 101 -101 131 -160l62 19c-7 13 -14 26 -23 39h172v52zM418 179l45 -27c24 21 57 51 73 70l-46 30c-15 -19 -47 -51 -72 -73z
M550 342v-38h-293v-43h293v-49h72v49h304v43h-304v38h275v40h-610v-40h263zM236 165l-41 49c-29 -29 -89 -76 -133 -108l39 -43c44 31 105 75 135 102zM220 424l-39 50c-32 -27 -95 -72 -143 -104l39 -44c47 30 110 72 143 98zM171 590l53 32c-31 103 -74 226 -111 316
l-60 -32c35 -77 83 -206 118 -316zM491 781h-153v70h153v-70zM282 925v-189h268v185h-59v-24h-153v28h-56zM956 703h-99v51h81v47h-81v91c0 33 -6 46 -30 55c-24 10 -62 10 -116 10c-4 -14 -12 -30 -20 -44l-10 7c-17 -23 -54 -59 -83 -86l46 -27c28 24 67 60 85 81l-24 16
c34 1 60 1 69 1c12 -1 15 -4 15 -14v-90h-216v-47h216v-51h-568v-44h735v44z" />
</svg>
