<?xml version="1.0" standalone="no"?>
<!DOCTYPE svg PUBLIC "-//W3C//DTD SVG 1.1//EN" "http://www.w3.org/Graphics/SVG/1.1/DTD/svg11.dtd" >
<svg xmlns="http://www.w3.org/2000/svg" xmlns:xlink="http://www.w3.org/1999/xlink" version="1.1" viewBox="-10 0 1010 1000">
   <path fill="currentColor"
d="M245 170l-43 48c-28 -36 -85 -87 -134 -121l41 -42c49 32 109 81 136 115zM223 427l-38 51c-32 -30 -95 -73 -147 -101l38 -46c51 26 116 66 147 96zM184 593l50 38c-35 102 -85 221 -127 309l-57 -38c39 -75 95 -200 134 -309zM615 782l43 -13c17 28 35 66 42 89l-45 18
c-7 -25 -23 -64 -40 -94zM668 612h181c-33 -24 -65 -52 -95 -83c-25 30 -55 59 -86 83zM561 341h-95c14 23 29 54 34 75l-21 7h82v-82zM721 341h-100v82h59c14 -27 31 -59 41 -82zM449 195h299c-56 -23 -109 -48 -161 -78c-42 29 -89 55 -138 78zM870 658h-89v55h147v48
h-147v115h27c19 -32 41 -77 53 -108l45 14c-15 33 -33 66 -49 94h97v52h-372v-52h145v-115h-136v-48h136v-55h-83v-28c-19 12 -37 25 -56 35c-8 -14 -21 -32 -34 -43c66 -33 135 -87 180 -147h-275l-9 13c44 30 92 67 117 95l-21 50c-28 -31 -79 -73 -126 -106
c-26 31 -56 61 -88 85h189v46h-81v52h117v48h-117v110l22 -2c13 -31 31 -75 40 -104l43 15c-13 28 -26 58 -38 83l51 -5l1 48c-115 15 -232 30 -319 41l-6 -52c43 -4 98 -10 157 -18v-116h-137v-48h137v-52h-82v-29c-15 9 -28 18 -43 26c-7 -15 -21 -32 -33 -44
c61 -31 125 -80 169 -136h-123v-52h168c-7 -21 -18 -48 -31 -69l42 -13h-115v-49h218v-50h-141v-34c-46 20 -94 37 -140 51c-9 -16 -22 -39 -35 -53c131 -33 279 -95 360 -170l46 28c-7 6 -12 12 -20 18c95 50 209 86 328 113c-15 16 -30 39 -39 59
c-52 -16 -103 -33 -152 -51v39h-147v50h232v49h-128l50 14c-14 25 -28 47 -41 68h188v52h-129c-3 5 -6 11 -9 16c51 53 114 91 183 122c-14 12 -29 31 -37 49c-21 -11 -40 -23 -60 -35v31zM286 779l40 -12c16 27 32 63 36 88l-41 14c-6 -24 -19 -62 -35 -90z" />
</svg>
