<?xml version="1.0" standalone="no"?>
<!DOCTYPE svg PUBLIC "-//W3C//DTD SVG 1.1//EN" "http://www.w3.org/Graphics/SVG/1.1/DTD/svg11.dtd" >
<svg xmlns="http://www.w3.org/2000/svg" xmlns:xlink="http://www.w3.org/1999/xlink" version="1.1" viewBox="-10 0 1010 1000">
   <path fill="currentColor"
d="M338 245v79h-65v-128h300v-53h-266v-56h604v56h-270v53h303v128h-67v-79h-236v168h-68v-168h-235zM543 342l4 42c-67 16 -131 31 -187 44l-21 -51c55 -8 126 -22 204 -35zM355 487v73h79v-73h-79zM305 600v-153h180v153h-180zM366 298l19 -36c51 10 120 26 157 40l-18 40
c-37 -13 -106 -32 -158 -44zM647 560v-73h-81v73h81zM698 447v153h-182v-153h182zM878 387l-16 44c-48 -16 -137 -39 -204 -52l16 -41c67 11 155 32 204 49zM825 260l30 38c-48 19 -117 33 -166 40l-23 -33c47 -10 119 -32 159 -45zM864 560v-73h-85v73h85zM915 447v153
h-185v-153h185zM267 169l-44 48c-32 -31 -94 -79 -141 -114l42 -41c47 32 111 78 143 107zM239 432l-43 49c-35 -28 -102 -76 -154 -109l42 -43c50 31 119 76 155 103zM199 587l55 36c-37 103 -88 227 -131 318l-61 -36c40 -78 97 -207 137 -318zM649 875h307v57h-712v-57
h335v-189h-294v-54h651v54h-287v189zM418 693l60 13c-6 14 -13 29 -21 43c37 25 79 55 103 76l-31 41c-23 -21 -64 -52 -101 -78c-27 33 -62 63 -99 83c-10 -11 -29 -28 -42 -36c62 -32 113 -88 131 -142zM779 693l59 12c-6 14 -13 28 -20 42c37 27 82 60 106 83l-35 40
c-22 -20 -63 -54 -100 -82c-25 31 -57 59 -91 78c-10 -11 -28 -28 -40 -36c57 -31 105 -85 121 -137z" />
</svg>
