<?xml version="1.0" standalone="no"?>
<!DOCTYPE svg PUBLIC "-//W3C//DTD SVG 1.1//EN" "http://www.w3.org/Graphics/SVG/1.1/DTD/svg11.dtd" >
<svg xmlns="http://www.w3.org/2000/svg" xmlns:xlink="http://www.w3.org/1999/xlink" version="1.1" viewBox="-10 0 1010 1000">
   <path fill="currentColor"
d="M482 236v139h-67v-205h225c-10 -35 -26 -76 -40 -110l70 -16c18 40 37 88 49 126h222v204h-69v-138h-390zM331 191l64 21c-26 77 -56 176 -82 237l-43 -18c22 -63 48 -169 61 -240zM171 473l-60 30c-11 -67 -40 -180 -66 -266l57 -22c28 86 58 197 69 258zM396 789
l-49 55c-24 -36 -77 -105 -120 -155c-22 98 -64 189 -138 270c-11 -16 -34 -41 -50 -51c133 -146 148 -335 148 -516v-338h67v338c0 73 -2 148 -13 221c38 38 133 148 155 176zM765 548h-174c-15 42 -31 81 -46 117c43 20 88 44 132 67c40 -50 69 -110 88 -184zM957 548
h-119c-22 88 -56 159 -101 218c83 47 161 95 213 134l-47 56c-50 -41 -128 -90 -212 -140c-68 63 -157 108 -272 142c-5 -17 -22 -48 -35 -63c103 -26 184 -62 245 -115c-60 -32 -120 -63 -176 -90c19 -39 41 -88 62 -142h-126v-68h151c22 -63 41 -126 54 -183l73 10
c-13 54 -32 114 -52 173h165c3 -21 6 -41 9 -64l73 4c-3 21 -6 40 -10 60h105v68z" />
</svg>
