<?xml version="1.0" standalone="no"?>
<!DOCTYPE svg PUBLIC "-//W3C//DTD SVG 1.1//EN" "http://www.w3.org/Graphics/SVG/1.1/DTD/svg11.dtd" >
<svg xmlns="http://www.w3.org/2000/svg" xmlns:xlink="http://www.w3.org/1999/xlink" version="1.1" viewBox="-10 0 1010 1000">
   <path fill="currentColor"
d="M842 94l74 22c-36 88 -81 192 -119 259l-60 -21c37 -68 82 -180 105 -260zM587 355l-67 20c-11 -69 -47 -174 -86 -255l63 -18c41 80 77 184 90 253zM350 190l68 22c-30 78 -63 178 -90 238l-46 -19c25 -64 53 -170 68 -241zM172 473l-61 30c-11 -67 -39 -181 -66 -267
l57 -22c28 87 58 197 70 259zM403 786l-51 55c-22 -36 -74 -102 -115 -152c-24 98 -69 190 -151 270c-11 -15 -34 -40 -50 -52c145 -145 161 -334 161 -517v-336h69v337c0 74 -3 150 -14 223c37 39 128 144 151 172zM800 864h69c23 0 26 -21 29 -151c16 13 45 25 64 31
c-5 149 -23 187 -86 187h-86c-70 0 -86 -22 -86 -98v-338h-87c-13 209 -51 372 -241 461c-8 -17 -29 -45 -46 -58c175 -76 205 -220 216 -403h-153v-68h237v-376h71v376h236v68h-162v337c0 28 4 32 25 32z" />
</svg>
