<?xml version="1.0" standalone="no"?>
<!DOCTYPE svg PUBLIC "-//W3C//DTD SVG 1.1//EN" "http://www.w3.org/Graphics/SVG/1.1/DTD/svg11.dtd" >
<svg xmlns="http://www.w3.org/2000/svg" xmlns:xlink="http://www.w3.org/1999/xlink" version="1.1" viewBox="-10 0 1010 1000">
   <path fill="currentColor"
d="M813 650v-115h-316v115h316zM884 479v227h-454v-227h454zM594 840l-67 23c-6 -34 -25 -86 -47 -127l63 -19c22 38 44 90 51 123zM940 352v64h-559v-64h559zM907 90v198h-489v-198h67v137h140v-184h70v184h143v-137h69zM326 190l64 20c-26 78 -54 178 -78 238l-43 -17
c21 -64 45 -170 57 -241zM168 474l-57 29c-11 -67 -40 -181 -66 -267l54 -21c28 87 57 197 69 259zM380 797l-50 52c-20 -36 -68 -105 -107 -157c-21 96 -62 186 -135 266c-10 -16 -33 -40 -49 -51c132 -146 147 -334 147 -515v-338h65v338c0 74 -2 149 -13 221
c34 40 121 155 142 184zM767 873h191v64h-602v-64h342c22 -46 50 -112 64 -159l67 23c-19 45 -41 95 -62 136z" />
</svg>
