<?xml version="1.0" standalone="no"?>
<!DOCTYPE svg PUBLIC "-//W3C//DTD SVG 1.1//EN" "http://www.w3.org/Graphics/SVG/1.1/DTD/svg11.dtd" >
<svg xmlns="http://www.w3.org/2000/svg" xmlns:xlink="http://www.w3.org/1999/xlink" version="1.1" viewBox="-10 0 1010 1000">
   <path fill="currentColor"
d="M160 484l-58 26c-9 -68 -33 -185 -57 -274l55 -20c25 90 51 204 60 268zM375 797l-51 54c-20 -38 -68 -106 -107 -157c-22 94 -62 184 -133 263c-10 -16 -33 -39 -47 -49c129 -147 143 -334 143 -516v-338h65v338c0 75 -2 149 -13 222c35 39 123 154 143 183zM562 791
l63 39c-57 49 -144 100 -216 129c-9 -14 -30 -37 -45 -50c70 -28 155 -78 198 -118zM833 516v-60h-340v60h340zM833 625v-60h-340v60h340zM833 735v-62h-340v62h340zM904 406v380h-479v-380h479zM726 833l50 -42c60 33 139 84 180 118l-53 49c-38 -35 -116 -89 -177 -125z
M693 303h128l7 -67h-123c-4 24 -8 46 -12 67zM519 236l-10 67h125c4 -21 8 -43 12 -67h-127zM663 122h-127l-9 64h127c3 -21 6 -44 9 -64zM833 186l7 -64h-119c-3 20 -6 43 -9 64h121zM902 180h56v62h-62l-12 114h-448l16 -114h-74v-19c-25 76 -51 169 -75 226l-45 -18
c22 -63 46 -169 57 -241l63 21v-31h84l17 -110h435z" />
</svg>
