<?xml version="1.0" standalone="no"?>
<!DOCTYPE svg PUBLIC "-//W3C//DTD SVG 1.1//EN" "http://www.w3.org/Graphics/SVG/1.1/DTD/svg11.dtd" >
<svg xmlns="http://www.w3.org/2000/svg" xmlns:xlink="http://www.w3.org/1999/xlink" version="1.1" viewBox="-10 0 1010 1000">
   <path fill="currentColor"
d="M90 250l51 8c-1 96 -14 201 -58 263l-46 -30c39 -53 52 -149 53 -241zM237 57v338c0 72 -2 146 -11 217c29 37 100 138 116 163l-49 51c-16 -31 -51 -87 -81 -133c-21 95 -59 185 -126 264c-10 -16 -34 -39 -49 -50c122 -146 135 -332 135 -512v-338h65zM281 437l-44 -18
c24 -57 51 -152 65 -215l61 19c-27 71 -55 160 -82 214zM545 138h-116v83h116v-83zM429 358h116v-83h-116v83zM606 415h-177v541h-66v-876h243v335zM703 548h-126v85h126v-85zM577 772h126v-86h-126v86zM764 828h-187v50h-59v-386h246v336zM733 358h119v-83h-119v83z
M852 138h-119v83h119v-83zM919 80v798c0 36 -8 56 -31 67c-24 11 -60 12 -117 12c-3 -16 -13 -46 -22 -62c39 1 75 1 86 0c12 0 17 -4 17 -17v-463h-180v-335h247z" />
</svg>
