<?xml version="1.0" standalone="no"?>
<!DOCTYPE svg PUBLIC "-//W3C//DTD SVG 1.1//EN" "http://www.w3.org/Graphics/SVG/1.1/DTD/svg11.dtd" >
<svg xmlns="http://www.w3.org/2000/svg" xmlns:xlink="http://www.w3.org/1999/xlink" version="1.1" viewBox="-10 0 1010 1000">
   <path fill="currentColor"
d="M902 106l49 20c-23 42 -46 86 -66 117l-39 -19c18 -32 44 -85 56 -118zM957 370l-40 43c-25 -32 -75 -80 -121 -118c-24 52 -61 91 -118 121c-6 -13 -23 -33 -35 -42c114 -58 133 -159 138 -329h57c-3 77 -9 143 -24 197c51 40 113 93 143 128zM750 236l-43 20
c-11 -29 -33 -79 -52 -115l44 -16c18 35 41 82 51 111zM599 103l51 19c-22 41 -47 86 -65 116l-38 -16c17 -32 42 -85 52 -119zM454 233l-45 21c-11 -34 -34 -90 -53 -131l44 -15c20 40 44 94 54 125zM293 206l59 19c-23 72 -49 165 -72 221l-42 -17c19 -59 45 -157 55 -223
zM143 482l-54 16c-8 -67 -28 -184 -48 -272l51 -10c21 88 44 202 51 266zM231 51v347c0 74 -2 149 -12 222c31 39 113 160 134 189l-49 50c-19 -36 -64 -108 -99 -161c-21 92 -59 178 -125 255c-10 -15 -33 -37 -47 -48c122 -143 135 -326 135 -506v-348h63zM629 348l-38 41
c-21 -25 -58 -62 -92 -93c-24 52 -59 92 -115 122c-6 -13 -22 -31 -35 -41c111 -59 130 -164 135 -332h57c-3 77 -9 142 -24 198c41 32 87 77 112 105zM674 613h230s-1 20 -2 31c-15 187 -30 259 -56 286c-17 17 -34 24 -60 25c-23 2 -67 2 -110 -1c-1 -18 -8 -43 -19 -60
c45 4 86 4 101 4c17 0 26 -1 33 -9c18 -16 31 -74 42 -214h-170c-29 132 -95 225 -255 282c-7 -16 -26 -40 -40 -52c142 -46 200 -123 227 -230h-180v-62h191c5 -31 8 -63 10 -97h68c-2 34 -5 66 -10 97zM383 585v-159h553v159h-64v-98h-427v98h-62z" />
</svg>
