<?xml version="1.0" standalone="no"?>
<!DOCTYPE svg PUBLIC "-//W3C//DTD SVG 1.1//EN" "http://www.w3.org/Graphics/SVG/1.1/DTD/svg11.dtd" >
<svg xmlns="http://www.w3.org/2000/svg" xmlns:xlink="http://www.w3.org/1999/xlink" version="1.1" viewBox="-10 0 1010 1000">
   <path fill="currentColor"
d="M902 106l49 21c-23 42 -45 86 -66 117l-39 -19c18 -32 44 -85 56 -119zM748 243l-43 18c-10 -30 -30 -80 -48 -118l43 -14c17 37 39 85 48 114zM601 103l50 20c-22 41 -46 86 -64 116l-38 -16c17 -32 41 -85 52 -120zM460 234l-46 20c-11 -33 -32 -89 -52 -130l44 -16
c20 40 43 94 54 126zM324 191l60 19c-25 77 -52 178 -76 237l-41 -15c20 -64 45 -170 57 -241zM165 477l-55 26c-10 -66 -39 -180 -65 -266l51 -20c28 87 58 197 69 260zM384 802l-49 51c-22 -39 -73 -111 -113 -164c-22 96 -63 187 -135 268c-11 -16 -33 -39 -49 -50
c131 -145 146 -333 146 -515v-338h65v338c0 75 -2 149 -13 222c35 40 126 159 148 188zM685 754v119h140c-23 -27 -65 -63 -98 -90l40 -29h-82zM873 474h-448v72h448v-72zM876 848l-32 25h100v62h-584v-62h255v-119h-172v-58h172v-91h-191v-35h-62v-155h27
c-8 -13 -23 -28 -35 -37c112 -59 131 -164 136 -332h57c-3 77 -9 143 -24 198c40 32 86 75 109 102l-38 42c-21 -25 -56 -61 -89 -92c-23 50 -56 90 -108 119h280c-8 -14 -23 -31 -34 -40c114 -58 133 -159 138 -329h56c-3 77 -9 142 -24 197c51 39 113 93 144 128l-40 43
c-25 -33 -75 -80 -122 -119c-23 51 -58 91 -113 120h256v155h-62v35h-191v91h175v58h-91c40 27 85 66 107 94z" />
</svg>
