<?xml version="1.0" standalone="no"?>
<!DOCTYPE svg PUBLIC "-//W3C//DTD SVG 1.1//EN" "http://www.w3.org/Graphics/SVG/1.1/DTD/svg11.dtd" >
<svg xmlns="http://www.w3.org/2000/svg" xmlns:xlink="http://www.w3.org/1999/xlink" version="1.1" viewBox="-10 0 1010 1000">
   <path fill="currentColor"
d="M710 249h-95c-15 42 -31 80 -51 112c-12 -10 -41 -27 -57 -35c42 -62 69 -156 82 -250l65 12c-5 32 -12 65 -19 95h75v-137h67v137h137v66h-137v47c0 29 -1 62 -4 94h170v68h-161c69 78 139 180 170 250l-61 29c-27 -59 -84 -147 -142 -222c-25 78 -71 155 -158 212
c-9 -14 -30 -38 -46 -49c90 -57 131 -139 149 -220h-170v-68h182c3 -33 4 -66 4 -94v-47zM474 46l54 53c-19 7 -39 13 -61 20c-20 524 -2 725 496 757c-12 16 -28 47 -33 67c-511 -44 -546 -255 -527 -804c-25 7 -52 14 -78 19v788h-63v-773c-28 7 -57 12 -84 18v295
c0 143 -12 340 -93 472c-11 -13 -39 -35 -54 -41c74 -124 81 -297 81 -431v-340c129 -26 277 -63 362 -100z" />
</svg>
