<?xml version="1.0" standalone="no"?>
<!DOCTYPE svg PUBLIC "-//W3C//DTD SVG 1.1//EN" "http://www.w3.org/Graphics/SVG/1.1/DTD/svg11.dtd" >
<svg xmlns="http://www.w3.org/2000/svg" xmlns:xlink="http://www.w3.org/1999/xlink" version="1.1" viewBox="-10 0 1010 1000">
   <path fill="currentColor"
d="M777 151l-66 30c-12 -32 -43 -81 -71 -118l63 -26c29 34 60 82 74 114zM281 331v-287h69v913h-69v-347h-107v23c0 86 -12 227 -72 326c-15 -12 -41 -27 -59 -34c56 -91 65 -216 65 -293v-22h-58v-68h231v-144h-187v-304h67v237h120zM522 253v155c0 151 -12 386 -87 546
c-11 -14 -43 -37 -60 -44c70 -150 77 -360 77 -502v-224h495v69h-425zM771 855h186v69h-444v-69h188v-299h-141v-69h141v-194h70v194h154v69h-154v299z" />
</svg>
