<?xml version="1.0" standalone="no"?>
<!DOCTYPE svg PUBLIC "-//W3C//DTD SVG 1.1//EN" "http://www.w3.org/Graphics/SVG/1.1/DTD/svg11.dtd" >
<svg xmlns="http://www.w3.org/2000/svg" xmlns:xlink="http://www.w3.org/1999/xlink" version="1.1" viewBox="-10 0 1010 1000">
   <path fill="currentColor"
d="M357 552h171v-132c0 -29 1 -74 3 -104h-4c-15 28 -27 43 -45 71zM606 235v317h77v63h-77v138h-78v-138h-256v-55l240 -325h94zM500 934c240 0 434 -194 434 -434s-194 -434 -434 -434c-242 0 -434 196 -434 434c0 240 194 434 434 434zM500 34c257 0 466 209 466 466
c0 259 -211 466 -466 466c-257 0 -466 -209 -466 -466s209 -466 466 -466z" />
</svg>
