<?xml version="1.0" standalone="no"?>
<!DOCTYPE svg PUBLIC "-//W3C//DTD SVG 1.1//EN" "http://www.w3.org/Graphics/SVG/1.1/DTD/svg11.dtd" >
<svg xmlns="http://www.w3.org/2000/svg" xmlns:xlink="http://www.w3.org/1999/xlink" version="1.1" viewBox="-10 0 1010 1000">
   <path fill="currentColor"
d="M502 701c53 0 97 -42 97 -103c0 -63 -36 -103 -105 -103c-35 0 -79 17 -118 64c11 97 55 142 126 142zM665 280l-45 51c-23 -24 -60 -40 -97 -40c-79 0 -145 52 -149 207c36 -39 89 -64 139 -64c98 0 164 54 164 162c0 103 -80 169 -176 169c-116 0 -205 -81 -205 -253
c0 -205 107 -289 225 -289c65 0 111 25 144 57zM500 934c240 0 434 -194 434 -434s-194 -434 -434 -434c-242 0 -434 196 -434 434c0 240 194 434 434 434zM500 34c257 0 466 209 466 466c0 259 -211 466 -466 466c-257 0 -466 -209 -466 -466s209 -466 466 -466z" />
</svg>
