<?xml version="1.0" standalone="no"?>
<!DOCTYPE svg PUBLIC "-//W3C//DTD SVG 1.1//EN" "http://www.w3.org/Graphics/SVG/1.1/DTD/svg11.dtd" >
<svg xmlns="http://www.w3.org/2000/svg" xmlns:xlink="http://www.w3.org/1999/xlink" version="1.1" viewBox="-10 0 1010 1000">
   <path fill="currentColor"
d="M380 525l5 67c-34 12 -69 24 -103 34v331h-70v-308l-147 48l-17 -73c44 -12 101 -29 164 -48v-259h-78c-10 60 -24 113 -40 156c-12 -11 -39 -33 -55 -42c33 -82 51 -209 61 -332l63 14c-4 45 -10 91 -17 135h66v-204h70v204h93v69h-93v238zM516 379v159h290v-159h-290z
M791 883h46c13 0 26 -1 32 -4c7 -3 14 -9 17 -21c2 -15 3 -45 4 -87c15 12 40 25 60 31c-2 40 -5 82 -12 98c-7 17 -18 28 -36 33c-14 6 -40 8 -59 8h-64c-22 0 -50 -5 -66 -17c-17 -12 -24 -28 -24 -87v-236h-75c-20 162 -68 287 -241 356c-8 -16 -29 -44 -44 -56
c156 -58 199 -165 214 -300h-98v-285h177v-102h-222v-67h222v-104h73v104h243v67h-243v102h186v285h-124v243c0 19 2 30 9 34c6 3 15 5 25 5z" />
</svg>
