<?xml version="1.0" standalone="no"?>
<!DOCTYPE svg PUBLIC "-//W3C//DTD SVG 1.1//EN" "http://www.w3.org/Graphics/SVG/1.1/DTD/svg11.dtd" >
<svg xmlns="http://www.w3.org/2000/svg" xmlns:xlink="http://www.w3.org/1999/xlink" version="1.1" viewBox="-10 0 1010 1000">
   <path fill="currentColor"
d="M500 966c-257 0 -466 -209 -466 -466s209 -466 466 -466s466 209 466 466c0 259 -211 466 -466 466zM500 934c240 0 434 -194 434 -434s-194 -434 -434 -434c-242 0 -434 196 -434 434c0 240 194 434 434 434zM500 765c-111 0 -192 -60 -192 -141c0 -69 54 -113 108 -139
v-4c-44 -27 -82 -67 -82 -121c0 -83 73 -137 167 -137c105 0 168 58 168 138c0 56 -43 101 -79 125v3c52 28 101 64 101 134c0 80 -77 142 -191 142zM538 467c37 -29 60 -64 60 -99c0 -49 -37 -86 -99 -86c-53 0 -91 30 -91 78c0 57 60 84 130 107zM503 705
c66 0 111 -32 111 -84c0 -62 -66 -86 -150 -115c-44 25 -82 60 -82 107c0 54 53 92 121 92z" />
</svg>
