<?xml version="1.0" standalone="no"?>
<!DOCTYPE svg PUBLIC "-//W3C//DTD SVG 1.1//EN" "http://www.w3.org/Graphics/SVG/1.1/DTD/svg11.dtd" >
<svg xmlns="http://www.w3.org/2000/svg" xmlns:xlink="http://www.w3.org/1999/xlink" version="1.1" viewBox="-10 0 1010 1000">
   <path fill="currentColor"
d="M646 139v60h-305v-60h126c-9 -27 -20 -60 -30 -86l60 -13c14 30 28 69 38 99h111zM332 545l-90 34v377h-64v-353c-40 16 -79 30 -114 43l-19 -65c36 -13 83 -29 133 -47v-222h-56c-8 54 -19 104 -33 144c-11 -8 -37 -22 -52 -27c31 -85 44 -211 52 -333l58 8
c-4 48 -9 97 -15 143h46v-204h64v204h79v65h-79v198l78 -29zM427 590l31 -30c35 23 79 57 101 77l-31 37c-23 -23 -67 -58 -101 -84zM421 511v180c0 22 -1 44 -2 67c39 -19 92 -46 147 -76v-171h-145zM626 455v426c0 30 -6 47 -27 57c-20 11 -51 13 -101 13
c-3 -17 -12 -42 -21 -58c35 1 66 0 76 0c10 -1 13 -3 13 -13v-141c-44 28 -86 55 -126 81l-22 -49c-7 66 -24 136 -68 187c-10 -11 -34 -32 -48 -40c55 -64 60 -152 60 -228v-235h264zM551 213l55 16c-13 37 -26 77 -38 109h84v60h-321v-60h82c-6 -30 -21 -73 -34 -107
l49 -16c14 33 30 78 36 106l-40 17h91c12 -37 28 -90 36 -125zM769 881h108c21 0 26 -10 29 -64c14 10 38 19 56 23c-7 76 -25 98 -80 98h-121c-70 0 -90 -17 -90 -89v-440h201v-94h-201v-272h63v82h221v61h-221v72h197v208h-196v57h190v52h-190v57h182v52h-182v61h203v52
h-203v52c0 27 5 32 34 32z" />
</svg>
