<?xml version="1.0" standalone="no"?>
<!DOCTYPE svg PUBLIC "-//W3C//DTD SVG 1.1//EN" "http://www.w3.org/Graphics/SVG/1.1/DTD/svg11.dtd" >
<svg xmlns="http://www.w3.org/2000/svg" xmlns:xlink="http://www.w3.org/1999/xlink" version="1.1" viewBox="-10 0 1010 1000">
   <path fill="currentColor"
d="M207 329v-53c44 -9 75 -23 102 -41h60v518h-77v-424h-85zM625 494c27 0 59 -18 85 -66c-8 -95 -41 -142 -91 -142c-38 0 -70 43 -70 105c0 63 27 103 76 103zM485 709l42 -50c19 23 45 38 75 38c59 0 107 -53 110 -207c-27 40 -66 65 -105 65c-77 0 -130 -54 -130 -163
c0 -102 64 -169 142 -169c92 0 165 81 165 253c0 207 -85 289 -178 289c-56 0 -94 -24 -121 -56zM500 934c240 0 434 -194 434 -434s-194 -434 -434 -434c-242 0 -434 196 -434 434c0 240 194 434 434 434zM500 34c257 0 466 209 466 466c0 259 -211 466 -466 466
c-257 0 -466 -209 -466 -466s209 -466 466 -466z" />
</svg>
