<?xml version="1.0" standalone="no"?>
<!DOCTYPE svg PUBLIC "-//W3C//DTD SVG 1.1//EN" "http://www.w3.org/Graphics/SVG/1.1/DTD/svg11.dtd" >
<svg xmlns="http://www.w3.org/2000/svg" xmlns:xlink="http://www.w3.org/1999/xlink" version="1.1" viewBox="-10 0 1010 1000">
   <path fill="currentColor"
d="M500 966c-257 0 -466 -209 -466 -466s209 -466 466 -466s466 209 466 466c0 259 -211 466 -466 466zM500 934c240 0 434 -194 434 -434s-194 -434 -434 -434c-242 0 -434 196 -434 434c0 240 194 434 434 434zM205 753v-48c126 -147 202 -239 202 -321
c0 -58 -25 -95 -76 -95c-35 0 -64 24 -88 54l-44 -43c40 -50 87 -77 142 -77c86 0 140 62 140 155c0 96 -76 193 -170 309c24 -2 53 -4 80 -4h108v70h-294zM674 765c-98 0 -160 -104 -160 -273s62 -269 160 -269c96 0 159 100 159 269s-63 273 -159 273zM674 698
c47 0 81 -65 81 -206s-34 -203 -81 -203c-49 0 -82 62 -82 203s33 206 82 206z" />
</svg>
