<?xml version="1.0" standalone="no"?>
<!DOCTYPE svg PUBLIC "-//W3C//DTD SVG 1.1//EN" "http://www.w3.org/Graphics/SVG/1.1/DTD/svg11.dtd" >
<svg xmlns="http://www.w3.org/2000/svg" xmlns:xlink="http://www.w3.org/1999/xlink" version="1.1" viewBox="-10 0 1010 1000">
   <path fill="currentColor"
d="M157 45l45 14c-83 129 -111 280 -111 441c1 162 28 312 111 441l-45 14c-89 -134 -125 -279 -125 -455c0 -175 36 -321 125 -455zM484 520c44 0 101 -23 147 -93c-12 -140 -66 -214 -149 -214c-71 0 -123 62 -123 156c0 100 45 151 125 151zM283 805l52 -57
c28 37 75 56 121 56c94 0 173 -77 177 -305c-43 57 -108 90 -165 90c-117 0 -196 -75 -196 -220c0 -137 96 -228 208 -228c134 0 239 114 239 342c0 288 -122 398 -258 398c-79 0 -138 -31 -178 -76zM798 59l45 -14c89 134 125 280 125 455c0 176 -36 321 -125 455l-45 -14
c83 -129 110 -279 111 -441c0 -161 -28 -312 -111 -441z" />
</svg>
