<?xml version="1.0" standalone="no"?>
<!DOCTYPE svg PUBLIC "-//W3C//DTD SVG 1.1//EN" "http://www.w3.org/Graphics/SVG/1.1/DTD/svg11.dtd" >
<svg xmlns="http://www.w3.org/2000/svg" xmlns:xlink="http://www.w3.org/1999/xlink" version="1.1" viewBox="-10 0 1010 1000">
   <path fill="currentColor"
d="M279 65l63 38c-24 46 -54 91 -88 133c54 108 63 221 63 341c0 142 -10 273 -49 327c-14 17 -32 27 -55 32c-33 6 -72 6 -112 4c-1 -24 -10 -51 -23 -73c45 4 82 3 104 1c14 -1 23 -6 31 -17c24 -31 32 -149 32 -275c0 -16 0 -33 -1 -49c-43 73 -100 143 -153 189
c-10 -20 -29 -48 -45 -64c71 -51 147 -150 187 -244c-6 -39 -15 -76 -30 -113c-35 37 -73 70 -112 100c-11 -16 -34 -37 -51 -51c45 -32 89 -73 128 -118c-25 -40 -57 -80 -99 -118l53 -40c37 33 67 67 92 102c25 -35 47 -71 65 -105zM518 738l54 22
c-40 62 -117 129 -185 162c-11 -17 -31 -39 -46 -52c66 -25 139 -80 177 -132zM934 717h-251v240h-70v-240h-249v-62h249v-150h70v150h251v62zM438 541l58 -20c22 30 50 71 62 97l-59 22c-12 -26 -39 -69 -61 -99zM797 522l66 20c-26 38 -53 73 -76 98l-53 -19
c21 -28 48 -70 63 -99zM725 770l45 -36c59 42 134 103 171 144l-46 41c-36 -42 -110 -106 -170 -149zM699 243v-79h-97v79h97zM856 301h-96v123h96v-123zM602 301v123h97v-123h-97zM443 301v123h98v-123h-98zM356 101h590v63h-186v79h161v240h-539v-240h159v-79h-185v-63z
" />
</svg>
