<?xml version="1.0" standalone="no"?>
<!DOCTYPE svg PUBLIC "-//W3C//DTD SVG 1.1//EN" "http://www.w3.org/Graphics/SVG/1.1/DTD/svg11.dtd" >
<svg xmlns="http://www.w3.org/2000/svg" xmlns:xlink="http://www.w3.org/1999/xlink" version="1.1" viewBox="-10 0 1010 1000">
   <path fill="currentColor"
d="M756 228v-99h-232v99h232zM825 73v210h-367v-210h367zM723 378v101h143v-101h-143zM664 534v-211h264v211h-264zM552 479v-101h-135v101h135zM615 323v211h-257v-211h257zM287 49l64 32c-29 51 -66 103 -108 151c54 110 63 227 63 348c0 146 -9 282 -50 338
c-13 18 -31 28 -56 32c-32 6 -71 7 -111 5c-1 -23 -7 -51 -20 -71c44 3 81 3 102 1c14 -2 23 -7 32 -17c26 -33 33 -158 33 -289v-42c-46 66 -102 130 -155 171c-11 -17 -32 -43 -48 -56c70 -47 150 -139 195 -225c-7 -48 -18 -94 -36 -140c-33 35 -69 67 -105 95
c-10 -15 -34 -35 -50 -47c43 -32 85 -71 124 -113c-26 -44 -61 -88 -107 -130l51 -39c42 38 75 76 102 115c32 -39 59 -80 80 -119zM949 675h-217c59 72 151 139 238 173c-16 14 -39 41 -50 58c-89 -42 -183 -120 -246 -204v253h-70v-248c-65 86 -160 164 -250 207
c-11 -18 -32 -43 -49 -57c89 -36 184 -106 244 -182h-210v-64h265v-71h70v71h275v64z" />
</svg>
