<?xml version="1.0" standalone="no"?>
<!DOCTYPE svg PUBLIC "-//W3C//DTD SVG 1.1//EN" "http://www.w3.org/Graphics/SVG/1.1/DTD/svg11.dtd" >
<svg xmlns="http://www.w3.org/2000/svg" xmlns:xlink="http://www.w3.org/1999/xlink" version="1.1" viewBox="-10 0 1010 1000">
   <path fill="currentColor"
d="M134 880v-53c209 -211 330 -344 330 -460c0 -81 -41 -139 -131 -139c-60 0 -115 36 -153 85l-54 -52c57 -67 124 -108 217 -108c133 0 211 83 211 210c0 134 -124 273 -287 445c39 -3 82 -6 120 -6h200v78h-453zM778 893c-37 0 -66 -29 -66 -70c0 -43 29 -72 66 -72
c38 0 69 29 69 72c0 41 -31 70 -69 70z" />
</svg>
