<?xml version="1.0" standalone="no"?>
<!DOCTYPE svg PUBLIC "-//W3C//DTD SVG 1.1//EN" "http://www.w3.org/Graphics/SVG/1.1/DTD/svg11.dtd" >
<svg xmlns="http://www.w3.org/2000/svg" xmlns:xlink="http://www.w3.org/1999/xlink" version="1.1" viewBox="-10 0 1010 1000">
   <path fill="currentColor"
d="M353 894c-111 0 -181 -47 -228 -98l46 -59c40 44 93 80 173 80c88 0 159 -63 159 -163c0 -97 -62 -157 -151 -157c-49 0 -79 14 -120 43l-49 -29l23 -345h356v79h-276l-19 213c33 -20 64 -30 109 -30c119 0 220 69 220 223c0 155 -118 243 -243 243zM776 893
c-36 0 -66 -29 -66 -70c0 -43 30 -72 66 -72c38 0 69 29 69 72c0 41 -31 70 -69 70z" />
</svg>
