<?xml version="1.0" standalone="no"?>
<!DOCTYPE svg PUBLIC "-//W3C//DTD SVG 1.1//EN" "http://www.w3.org/Graphics/SVG/1.1/DTD/svg11.dtd" >
<svg xmlns="http://www.w3.org/2000/svg" xmlns:xlink="http://www.w3.org/1999/xlink" version="1.1" viewBox="-10 0 1010 1000">
   <path fill="currentColor"
d="M380 820c72 0 127 -61 127 -155c0 -100 -47 -151 -130 -151c-44 0 -103 23 -150 93c12 140 69 213 153 213zM582 228l-51 57c-29 -36 -77 -55 -125 -55c-96 0 -177 76 -181 304c44 -57 110 -90 169 -90c119 0 200 75 200 221c0 137 -98 228 -213 228
c-135 0 -242 -114 -242 -342c0 -289 124 -398 262 -398c81 0 141 31 181 75zM784 751c37 0 68 29 68 72c0 41 -31 70 -68 70s-67 -29 -67 -70c0 -43 30 -72 67 -72z" />
</svg>
