<?xml version="1.0" standalone="no"?>
<!DOCTYPE svg PUBLIC "-//W3C//DTD SVG 1.1//EN" "http://www.w3.org/Graphics/SVG/1.1/DTD/svg11.dtd" >
<svg xmlns="http://www.w3.org/2000/svg" xmlns:xlink="http://www.w3.org/1999/xlink" version="1.1" viewBox="-10 0 1010 1000">
   <path fill="currentColor"
d="M353 532c45 0 103 -23 151 -93c-12 -140 -69 -213 -153 -213c-73 0 -127 61 -127 155c0 100 47 151 129 151zM148 817l52 -57c29 37 77 56 125 56c96 0 177 -76 181 -304c-44 57 -110 90 -168 90c-120 0 -201 -75 -201 -221c0 -137 98 -228 212 -228
c136 0 243 114 243 342c0 288 -124 398 -262 398c-81 0 -141 -31 -182 -76zM793 751c37 0 68 29 68 72c0 41 -31 70 -68 70c-38 0 -67 -29 -67 -70c0 -43 29 -72 67 -72z" />
</svg>
