<?xml version="1.0" standalone="no"?>
<!DOCTYPE svg PUBLIC "-//W3C//DTD SVG 1.1//EN" "http://www.w3.org/Graphics/SVG/1.1/DTD/svg11.dtd" >
<svg xmlns="http://www.w3.org/2000/svg" xmlns:xlink="http://www.w3.org/1999/xlink" version="1.1" viewBox="-10 0 1010 1000">
   <path fill="currentColor"
d="M234 726l137 -44l7 68c-114 37 -235 76 -326 105l-14 -71c36 -10 81 -23 130 -39v-279h-105v-68h105v-217h-119v-70h307v70h-122v217h102v68h-102v260zM245 549l50 -18c23 38 47 90 56 123l-53 23c-8 -34 -32 -88 -53 -128zM790 387h-108v253h108v-253zM861 708h-247
v-321h-108v451h429v72h-499v-523h-69v-72h69v-241h70v241h108v-271h68v271h108v-268h71v268h94v72h-94v321z" />
</svg>
