<?xml version="1.0" standalone="no"?>
<!DOCTYPE svg PUBLIC "-//W3C//DTD SVG 1.1//EN" "http://www.w3.org/Graphics/SVG/1.1/DTD/svg11.dtd" >
<svg xmlns="http://www.w3.org/2000/svg" xmlns:xlink="http://www.w3.org/1999/xlink" version="1.1" viewBox="-10 0 1010 1000">
   <path fill="currentColor"
d="M49 181v-70h313v70h-119v217h100v69h-100v254c37 -11 74 -22 112 -34l6 69c-108 34 -223 68 -309 95l-14 -73c38 -10 85 -22 137 -38v-273h-109v-69h109v-217h-126zM945 280h-150v584c0 40 -9 59 -34 71c-27 11 -69 12 -138 12c-3 -19 -13 -47 -22 -66c49 1 93 1 106 1
c14 -1 19 -5 19 -18v-584h-87v170c0 169 -25 363 -216 512c-12 -17 -36 -38 -55 -50c182 -139 203 -318 203 -463v-169h-154v-71h251c-8 -40 -35 -102 -61 -148l68 -20c28 46 56 108 66 147l-63 21h267v71zM462 401l65 12c-19 109 -52 215 -97 284c-12 -9 -40 -27 -56 -35
c45 -65 74 -162 88 -261zM821 417l59 -15c35 87 62 197 71 271l-63 16c-8 -73 -35 -186 -67 -272z" />
</svg>
