<?xml version="1.0" standalone="no"?>
<!DOCTYPE svg PUBLIC "-//W3C//DTD SVG 1.1//EN" "http://www.w3.org/Graphics/SVG/1.1/DTD/svg11.dtd" >
<svg xmlns="http://www.w3.org/2000/svg" xmlns:xlink="http://www.w3.org/1999/xlink" version="1.1" viewBox="-10 0 1010 1000">
   <path fill="currentColor"
d="M229 720l109 -35l7 66c-102 35 -210 70 -293 98l-13 -71c35 -10 78 -23 125 -37v-275h-103v-67h103v-220h-116v-68h293v68h-112v220h93v67h-93v254zM751 666h82v-134h-82v134zM613 666h83v-134h-83v134zM468 666h91v-134h-91v134zM899 469v410c0 33 -5 51 -25 62
c-19 11 -48 12 -88 12c-2 -19 -10 -45 -17 -64c25 1 46 1 54 1s10 -3 10 -11v-150h-82v206h-55v-206h-83v206h-54v-206h-91v232h-66v-492h497zM498 319h297c-57 -46 -108 -104 -147 -164c-42 58 -95 115 -150 164zM646 40l53 35c-5 10 -11 20 -17 28c60 95 172 191 279 232
c-16 15 -37 41 -48 60c-40 -18 -78 -44 -115 -73v62h-301v-64c-41 35 -83 67 -124 90c-9 -19 -27 -47 -42 -63c120 -59 252 -186 315 -307z" />
</svg>
