<?xml version="1.0" standalone="no"?>
<!DOCTYPE svg PUBLIC "-//W3C//DTD SVG 1.1//EN" "http://www.w3.org/Graphics/SVG/1.1/DTD/svg11.dtd" >
<svg xmlns="http://www.w3.org/2000/svg" xmlns:xlink="http://www.w3.org/1999/xlink" version="1.1" viewBox="-10 0 1010 1000">
   <path fill="currentColor"
d="M877 252l59 24c-24 74 -52 168 -75 227l-44 -20c21 -61 48 -163 60 -231zM713 508l-56 16c-5 -64 -23 -174 -41 -257l51 -10c19 83 39 191 46 251zM624 645l-43 53c-12 -26 -39 -73 -64 -114v374h-65v-398c-27 94 -63 184 -99 240c-6 -16 -19 -38 -30 -54l1 5
c-92 34 -190 70 -267 98l-18 -70c33 -10 72 -23 114 -39v-274h-85v-68h85v-218h-104v-69h264v69h-94v218h78v68h-78v252l93 -34l9 50c50 -74 99 -210 123 -329h-110v-65h118v-157c-32 11 -65 20 -95 29c-4 -14 -15 -37 -22 -51c85 -26 180 -65 233 -100l60 47
c-33 18 -71 36 -111 51v181h93v65h-93v100c27 33 92 118 107 140zM802 50v319c0 42 -1 85 -4 127c22 135 67 311 168 402c-14 12 -36 37 -45 54c-74 -74 -118 -187 -147 -293c-26 109 -77 212 -175 300c-10 -15 -32 -37 -48 -47c169 -154 187 -354 187 -543v-319h64z" />
</svg>
