<?xml version="1.0" standalone="no"?>
<!DOCTYPE svg PUBLIC "-//W3C//DTD SVG 1.1//EN" "http://www.w3.org/Graphics/SVG/1.1/DTD/svg11.dtd" >
<svg xmlns="http://www.w3.org/2000/svg" xmlns:xlink="http://www.w3.org/1999/xlink" version="1.1" viewBox="-10 0 1010 1000">
   <path fill="currentColor"
d="M822 286v-112h-249v112h249zM822 456v-114h-249v114h249zM894 115v400h-390v-400h148c8 -25 17 -54 21 -74l76 10c-9 23 -18 44 -27 64h172zM62 541l-6 -64c47 -4 106 -10 170 -16v-121h-136v-62h136v-115h-152v-63h379v63h-157v115h133v62h-133v115l167 -18v61
c-144 17 -295 33 -401 43zM539 784v93h201c-22 -21 -52 -45 -74 -63l42 -30h-169zM781 877h173v61h-908v-61h420v-93h-298v-57h298v-88h-335v-59h767v59h-359v88h317v57h-146c31 23 70 54 93 75z" />
</svg>
