<?xml version="1.0" standalone="no"?>
<!DOCTYPE svg PUBLIC "-//W3C//DTD SVG 1.1//EN" "http://www.w3.org/Graphics/SVG/1.1/DTD/svg11.dtd" >
<svg xmlns="http://www.w3.org/2000/svg" xmlns:xlink="http://www.w3.org/1999/xlink" version="1.1" viewBox="-10 0 1010 1000">
   <path fill="currentColor"
d="M824 318v-56h-304v56h304zM824 420v-56h-304v56h304zM824 523v-58h-304v58h304zM451 213h161c5 -21 11 -43 16 -66h-226v-64h541v64h-243c-6 23 -13 45 -19 66h215v359h-445v-359zM363 681l10 69c-111 36 -228 72 -319 101l-16 -73c38 -10 85 -23 137 -39v-271h-109v-70
h109v-216h-126v-71h315v71h-118v216h98v70h-98v250zM794 694h-230c-6 9 -14 17 -22 25c33 33 72 61 117 86c54 -30 101 -67 135 -111zM848 636l45 22c-36 75 -94 134 -165 179c67 28 142 47 224 59c-14 15 -33 41 -42 60c-94 -17 -179 -42 -252 -80c-85 40 -182 67 -280 83
c-6 -18 -20 -45 -33 -61c85 -11 170 -32 245 -61c-33 -22 -65 -47 -91 -74c-22 18 -44 37 -70 54c-11 -15 -32 -37 -48 -47c28 -17 53 -36 76 -55c-18 -24 -34 -48 -47 -74l58 -20c9 18 20 35 32 50c29 -32 52 -65 67 -96l70 13c-9 17 -20 34 -31 51h229z" />
</svg>
