<?xml version="1.0" standalone="no"?>
<!DOCTYPE svg PUBLIC "-//W3C//DTD SVG 1.1//EN" "http://www.w3.org/Graphics/SVG/1.1/DTD/svg11.dtd" >
<svg xmlns="http://www.w3.org/2000/svg" xmlns:xlink="http://www.w3.org/1999/xlink" version="1.1" viewBox="-10 0 1010 1000">
   <path fill="currentColor"
d="M923 357l-46 40c-25 -47 -78 -112 -131 -167c-25 63 -71 127 -156 180c-10 -16 -31 -37 -46 -47c85 -50 127 -111 148 -169h-124v-61h140c4 -27 5 -53 5 -74v-13h61v14c0 23 -1 48 -4 73h154v61h-137c55 53 110 116 136 163zM207 725l98 -34l7 65c-91 32 -188 65 -261 91
l-13 -69c30 -9 65 -19 104 -32v-280h-80v-66h80v-222h-95v-67h253v67h-93v222h78v66h-78v259zM479 72l58 29c-21 47 -48 95 -77 140c41 106 48 219 48 341c0 137 -7 286 -40 334c-11 15 -26 25 -48 28c-21 4 -50 5 -78 4c0 -23 -7 -48 -17 -67c29 1 53 1 69 0
c11 -1 18 -5 24 -13c19 -26 26 -166 26 -287v-31c-31 55 -69 108 -102 145c-11 -17 -31 -38 -48 -51c51 -48 110 -135 144 -211c-5 -44 -12 -87 -23 -129c-28 36 -57 71 -88 101c-10 -13 -31 -31 -46 -42c39 -36 76 -81 108 -129c-18 -43 -43 -86 -76 -126l49 -34
c26 32 49 66 66 99c21 -34 38 -69 51 -101zM740 604h-108v132h108v-132zM794 791h-162v52h-54v-294h216v242zM957 418v64h-45v397c0 38 -7 55 -33 66c-25 10 -66 11 -128 11c-3 -18 -12 -44 -21 -63c46 1 89 1 100 1c14 0 17 -4 17 -16v-396h-308v-64h418z" />
</svg>
