<?xml version="1.0" standalone="no"?>
<!DOCTYPE svg PUBLIC "-//W3C//DTD SVG 1.1//EN" "http://www.w3.org/Graphics/SVG/1.1/DTD/svg11.dtd" >
<svg xmlns="http://www.w3.org/2000/svg" xmlns:xlink="http://www.w3.org/1999/xlink" version="1.1" viewBox="-10 0 1010 1000">
   <path fill="currentColor"
d="M324 686l8 66c-98 34 -201 69 -279 95l-14 -68c33 -10 73 -22 117 -37v-277h-96v-66h96v-221h-108v-67h278v67h-108v221h89v66h-89v258c34 -12 71 -24 106 -37zM574 221h-148v112h148v-112zM426 516h148v-122h-148v122zM628 843l-56 25c-5 -21 -12 -45 -21 -71
c-152 107 -174 126 -191 147c-7 -18 -25 -51 -38 -66c15 -12 40 -43 40 -88v-629h118c-12 -30 -29 -65 -44 -92l58 -20c22 35 43 79 56 112h85v416h-209v233l102 -70c-16 -41 -37 -84 -56 -120l51 -21c44 76 89 179 105 244zM737 565h123v-175h-121v72c0 32 -1 67 -2 103z
M860 153h-121v174h121v-174zM921 91v776c0 37 -7 56 -30 68c-23 11 -59 12 -116 12c-3 -17 -10 -46 -19 -64c40 1 77 1 88 0c12 0 16 -4 16 -17v-239h-127c-10 115 -33 238 -87 332c-11 -12 -37 -29 -52 -36c77 -132 85 -320 85 -461v-371h242z" />
</svg>
