<?xml version="1.0" standalone="no"?>
<!DOCTYPE svg PUBLIC "-//W3C//DTD SVG 1.1//EN" "http://www.w3.org/Graphics/SVG/1.1/DTD/svg11.dtd" >
<svg xmlns="http://www.w3.org/2000/svg" xmlns:xlink="http://www.w3.org/1999/xlink" version="1.1" viewBox="-10 0 1010 1000">
   <path fill="currentColor"
d="M814 210h-162c-5 12 -10 24 -16 36c24 50 56 98 94 141c38 -51 66 -110 84 -177zM945 210h-65c-22 83 -56 159 -105 221c53 46 116 83 183 107c-17 11 -41 32 -52 48c-64 -25 -122 -63 -172 -108c-53 53 -119 93 -198 118c-11 -15 -32 -34 -50 -46
c84 -23 151 -62 204 -116c-33 -38 -63 -79 -87 -124c-16 26 -33 50 -51 70c-8 -12 -29 -40 -41 -52c60 -69 101 -173 123 -284l66 12c-8 32 -17 65 -27 96h272v58zM80 527l-33 -49c57 -29 138 -77 219 -125v-128h-202v-59h202v-123h71v123h116c-15 -26 -50 -63 -82 -88
l51 -28c32 25 68 60 84 86l-50 30h67v59h-186v125l12 7c33 -33 77 -85 100 -122l55 33c-32 40 -73 86 -107 117c47 30 93 62 121 85l-43 43c-30 -27 -85 -67 -138 -100v109c0 33 -7 48 -32 57c-24 9 -61 10 -118 10c-3 -16 -13 -38 -22 -54c39 2 76 2 86 1
c11 0 15 -3 15 -14v-107c-65 40 -131 80 -186 112zM230 341l-49 35c-19 -31 -59 -77 -94 -109l47 -30c36 32 78 75 96 104zM539 809v70h415v59h-908v-59h420v-70h-297v-56h297v-74h-334v-59h766v59h-359v74h317v56h-317z" />
</svg>
