<?xml version="1.0" standalone="no"?>
<!DOCTYPE svg PUBLIC "-//W3C//DTD SVG 1.1//EN" "http://www.w3.org/Graphics/SVG/1.1/DTD/svg11.dtd" >
<svg xmlns="http://www.w3.org/2000/svg" xmlns:xlink="http://www.w3.org/1999/xlink" version="1.1" viewBox="-10 0 1010 1000">
   <path fill="currentColor"
d="M430 662l50 15c-32 82 -81 194 -122 280l-68 -17c33 -66 70 -150 97 -214h-304v-60h336zM951 550h-182c30 157 95 289 202 348c-15 14 -37 40 -48 58c-92 -58 -152 -161 -190 -291c-30 108 -89 213 -204 291c-9 -15 -34 -42 -51 -56c142 -88 189 -222 205 -350h-124l4 2
c-13 15 -27 40 -36 57c-86 -45 -179 -122 -232 -201c-27 43 -67 87 -113 127h232v58h-243v-49c-33 26 -68 51 -104 70c-6 -16 -21 -40 -33 -55c79 -38 154 -101 202 -168c-67 17 -130 31 -187 45l-11 -60c28 -5 60 -12 96 -19v-88h-74v-56h74v-72h-87v-58h230v58h-84v72h77
v56h-77v76l71 -16l2 22h44v-3h84v-79h-72v-56h72v-72h-87v-58h235v58h-88v72h75v56h-75v79h92v59h-179c47 52 104 97 162 128v-55h159c2 -30 2 -59 2 -86v-89h-137v-69h137v-187h74v187h163v69h-163v89c0 28 -1 57 -2 86h189v70z" />
</svg>
