<?xml version="1.0" standalone="no"?>
<!DOCTYPE svg PUBLIC "-//W3C//DTD SVG 1.1//EN" "http://www.w3.org/Graphics/SVG/1.1/DTD/svg11.dtd" >
<svg xmlns="http://www.w3.org/2000/svg" xmlns:xlink="http://www.w3.org/1999/xlink" version="1.1" viewBox="-10 0 1010 1000">
   <path fill="currentColor"
d="M631 95v184h-308v-184h53v123h77v-175h54v175h70v-123h54zM646 344v61h-346v-61h346zM555 600v-83h-162v83h162zM613 464v189h-275v-189h275zM460 795l-55 18c-5 -33 -23 -84 -41 -122l52 -13c19 36 38 86 44 117zM201 726l96 -34l7 66c-89 31 -182 64 -253 89l-13 -69
c30 -9 65 -20 104 -33v-279h-80v-67h80v-221h-95v-67h241v67h-87v221h75v67h-75v260zM614 790l2 54c-106 22 -217 45 -298 61l-13 -61c49 -8 114 -20 187 -33c15 -40 32 -98 41 -140l54 17c-12 38 -26 79 -37 114zM884 877h21c9 0 11 -20 13 -102c12 13 32 24 47 29
c-4 97 -18 130 -55 130h-36c-44 0 -55 -22 -55 -93v-690h-86v273c0 159 -12 384 -93 535c-10 -12 -34 -31 -47 -38c78 -143 85 -346 85 -497v-334h195v752c0 31 2 35 11 35z" />
</svg>
