<?xml version="1.0" standalone="no"?>
<!DOCTYPE svg PUBLIC "-//W3C//DTD SVG 1.1//EN" "http://www.w3.org/Graphics/SVG/1.1/DTD/svg11.dtd" >
<svg xmlns="http://www.w3.org/2000/svg" xmlns:xlink="http://www.w3.org/1999/xlink" version="1.1" viewBox="-10 0 1010 1000">
   <path fill="currentColor"
d="M854 163h-72c-10 119 -36 221 -114 283c-8 -14 -26 -34 -39 -43c66 -51 87 -140 95 -240h-76v-56h271s0 18 -1 28c-8 179 -16 247 -34 270c-13 15 -27 22 -47 24c-16 2 -41 2 -67 1c-1 -19 -7 -43 -15 -60c24 3 43 3 54 3c9 0 15 -2 21 -9c11 -14 18 -66 24 -201z
M351 402l-7 -55c33 -2 71 -5 113 -8v-56h-95v-53h95v-55h-108v-53h108v-55h59v55h98v53h-98v55h87v53h-87v51l101 -8v50l-101 10v71h-59v-65zM312 693l8 65c-94 31 -193 64 -268 89l-14 -68c32 -9 71 -21 113 -35v-280h-87v-64h87v-224h-103v-65h264v65h-98v224h83v64h-83
v260zM486 749l58 35c-50 55 -130 108 -199 143c-8 -15 -23 -36 -35 -49c65 -31 143 -84 176 -129zM853 704l-177 11v174c0 32 -6 47 -31 57c-23 9 -59 10 -110 10c-3 -18 -13 -40 -22 -57c39 1 71 1 82 0c11 0 14 -3 14 -12v-168c-177 12 -211 15 -234 22
c-3 -11 -16 -39 -25 -53c27 -3 58 -14 99 -34c22 -9 63 -29 113 -58c-118 5 -144 10 -162 15c-4 -11 -15 -37 -23 -49c18 -2 37 -9 59 -23c26 -12 101 -62 153 -113l55 34c-37 31 -78 63 -122 89l123 -3c35 -22 70 -47 103 -71l61 34c-86 61 -180 116 -274 160l281 -15
c-17 -24 -37 -46 -55 -66l47 -26c47 49 102 115 125 155l-52 32c-7 -13 -17 -28 -28 -45zM727 780l44 -35c63 42 144 101 184 138l-45 43c-40 -39 -120 -101 -183 -146z" />
</svg>
