<?xml version="1.0" standalone="no"?>
<!DOCTYPE svg PUBLIC "-//W3C//DTD SVG 1.1//EN" "http://www.w3.org/Graphics/SVG/1.1/DTD/svg11.dtd" >
<svg xmlns="http://www.w3.org/2000/svg" xmlns:xlink="http://www.w3.org/1999/xlink" version="1.1" viewBox="-10 0 1010 1000">
   <path fill="currentColor"
d="M808 365h-183c24 35 56 66 96 93c35 -27 66 -58 87 -93zM853 309l39 17c-25 65 -68 119 -119 162c53 28 115 48 182 58c-15 13 -32 36 -40 52c-71 -15 -136 -40 -190 -73c-54 34 -113 60 -174 77c-7 -15 -23 -38 -36 -49c55 -14 110 -34 159 -63
c-44 -33 -78 -73 -103 -117l27 -8h-59v-54h303zM640 136v13c0 53 -15 115 -85 160c-10 -11 -36 -31 -49 -37c64 -38 75 -84 75 -124v-66h237v127c0 21 2 28 15 28h55c11 0 31 -1 42 -4c1 15 3 34 5 48c-11 3 -30 4 -46 4h-64c-55 0 -66 -21 -66 -77v-72h-119zM382 437v-60
h-75v60h75zM504 377h-68v60h80v48h-346v-48h84v-60h-65v-49h65v-57h53v57h75v-58h54v58h68v49zM369 511l43 -20c31 24 62 59 78 82l-45 27c-16 -25 -47 -62 -76 -89zM254 492l55 15c-26 37 -66 78 -100 103c-11 -8 -33 -24 -47 -31c35 -25 70 -56 92 -87zM430 133h-265v65
h265v-65zM165 250v30c0 101 -11 241 -74 337c-11 -10 -38 -28 -53 -34c58 -90 64 -211 64 -303v-199h389v169h-326zM539 805v75h195c-20 -19 -47 -42 -67 -56l26 -19h-154zM784 859l-26 21h196v55h-908v-55h422v-75h-300v-51h300v-70h-337v-53h767v53h-359v70h317v51h-137
c24 18 50 38 65 54z" />
</svg>
