<?xml version="1.0" standalone="no"?>
<!DOCTYPE svg PUBLIC "-//W3C//DTD SVG 1.1//EN" "http://www.w3.org/Graphics/SVG/1.1/DTD/svg11.dtd" >
<svg xmlns="http://www.w3.org/2000/svg" xmlns:xlink="http://www.w3.org/1999/xlink" version="1.1" viewBox="-10 0 1010 1000">
   <path fill="currentColor"
d="M439 191v104h-68v-166h252c-9 -24 -19 -50 -30 -72l67 -18c16 27 32 63 40 90h235v166h-70v-104h-426zM923 418l-39 38c-29 -25 -84 -60 -126 -80l39 -35c44 22 98 54 126 77zM830 258v55h-354v-55h354zM488 347l54 17c-34 35 -86 73 -132 97c-8 -9 -30 -29 -43 -38
c44 -21 92 -48 121 -76zM228 463v260c36 -12 74 -24 112 -36l7 65c-103 34 -212 69 -296 95l-14 -68c35 -10 79 -23 127 -38v-278h-98v-65h98v-222h-115v-65h283l-1 65h-103v222h84v65h-84zM499 530h319c-59 -33 -114 -73 -166 -128c-43 49 -96 92 -153 128zM524 869h263
v-63h-263v63zM524 698v62h263v-62h-263zM787 652v-68h-263v68h263zM642 316l59 23c-5 7 -9 14 -14 21c78 82 173 128 274 166c-16 13 -34 34 -43 53c-21 -9 -40 -18 -60 -27v399h-71v-30h-263v34h-69v-399c-23 12 -47 24 -70 34c-10 -16 -29 -37 -44 -51
c121 -46 241 -128 301 -223z" />
</svg>
