<?xml version="1.0" standalone="no"?>
<!DOCTYPE svg PUBLIC "-//W3C//DTD SVG 1.1//EN" "http://www.w3.org/Graphics/SVG/1.1/DTD/svg11.dtd" >
<svg xmlns="http://www.w3.org/2000/svg" xmlns:xlink="http://www.w3.org/1999/xlink" version="1.1" viewBox="-10 0 1010 1000">
   <path fill="currentColor"
d="M530 360v49h227v-49h-227zM757 172h-227v48h227v-48zM530 267v46h227v-46h-227zM731 468h-177c-50 63 -138 126 -211 157c-7 -16 -23 -39 -34 -51c60 -21 128 -61 175 -106h-133v-59h111v-237h-89v-60h89v-68h68v68h227v-68h68v68h88v60h-88v237h124v59h-151
c45 41 107 77 165 96c-12 13 -27 37 -35 53c-71 -29 -149 -90 -197 -149zM217 723l100 -32l7 65c-95 31 -195 64 -273 90l-13 -68c33 -9 73 -21 116 -35v-279h-90v-65h90v-224h-106v-64h270v64h-101v224h83v65h-83v259zM480 783l56 19c-42 46 -108 95 -164 124
c-7 -9 -28 -33 -41 -44c54 -25 113 -62 149 -99zM835 733l-154 10v143c0 31 -6 46 -31 56c-23 9 -59 10 -112 10c-4 -17 -14 -39 -23 -55c43 1 76 1 87 1c12 -1 14 -4 14 -12v-138c-161 11 -189 15 -207 21c-3 -12 -12 -41 -19 -56c24 -1 53 -11 87 -26
c22 -9 68 -30 120 -59c-91 3 -110 6 -122 11c-4 -12 -13 -39 -20 -53c15 -2 29 -8 46 -17c18 -9 77 -49 117 -92l52 32c-31 27 -67 52 -102 72l113 -2c19 -13 38 -25 56 -38l48 36c-71 46 -145 87 -220 120l227 -12c-16 -17 -32 -32 -46 -46l42 -30c47 42 102 101 126 139
l-45 33c-9 -14 -20 -30 -34 -48zM743 813l39 -37c53 31 119 78 153 111l-40 41c-32 -34 -98 -83 -152 -115z" />
</svg>
