<?xml version="1.0" standalone="no"?>
<!DOCTYPE svg PUBLIC "-//W3C//DTD SVG 1.1//EN" "http://www.w3.org/Graphics/SVG/1.1/DTD/svg11.dtd" >
<svg xmlns="http://www.w3.org/2000/svg" xmlns:xlink="http://www.w3.org/1999/xlink" version="1.1" viewBox="-10 0 1010 1000">
   <path fill="currentColor"
d="M649 178h-181c-19 42 -39 80 -61 110c-12 -9 -40 -27 -55 -35c41 -54 74 -133 94 -210l64 13c-6 22 -12 43 -19 64h158v58zM603 275l-49 33c-13 -27 -43 -67 -69 -95l48 -30c26 27 57 66 70 92zM240 466v255c39 -13 80 -26 120 -38l11 69c-109 35 -224 72 -314 99
l-16 -72c37 -10 82 -23 132 -39v-274h-106v-68h106v-218h-123v-69h302v69h-112v218h96v68h-96zM829 767h-294v80h294v-80zM785 515h-250v83h250v-83zM535 656v53h358v239h-64v-43h-294v51h-71v-498h387v198h-316zM601 291l62 -16c15 19 30 45 40 65h238v160h-65v-100h-431
v100h-62v-160h246c-8 -17 -18 -34 -28 -49zM767 213l47 -29c28 28 61 67 78 93l-49 33c-16 -26 -49 -68 -76 -97zM766 120h186v58h-207c-15 35 -32 66 -49 92c-12 -10 -39 -28 -55 -35c37 -49 64 -122 79 -193l64 12c-5 23 -11 44 -18 66z" />
</svg>
