<?xml version="1.0" standalone="no"?>
<!DOCTYPE svg PUBLIC "-//W3C//DTD SVG 1.1//EN" "http://www.w3.org/Graphics/SVG/1.1/DTD/svg11.dtd" >
<svg xmlns="http://www.w3.org/2000/svg" xmlns:xlink="http://www.w3.org/1999/xlink" version="1.1" viewBox="-10 0 1010 1000">
   <path fill="currentColor"
d="M157 955c-89 -134 -125 -279 -125 -455c0 -175 36 -321 125 -455l45 14c-83 129 -111 280 -111 441c1 162 28 312 111 441zM500 788c-131 0 -249 -105 -249 -285s118 -284 249 -284s248 104 248 284s-117 285 -248 285zM500 710c90 0 152 -83 152 -207
c0 -122 -62 -207 -152 -207s-153 85 -153 207c0 124 63 207 153 207zM843 955l-45 -14c83 -129 110 -279 111 -441c0 -161 -28 -312 -111 -441l45 -14c89 134 125 280 125 455c0 176 -36 321 -125 455z" />
</svg>
