<?xml version="1.0" standalone="no"?>
<!DOCTYPE svg PUBLIC "-//W3C//DTD SVG 1.1//EN" "http://www.w3.org/Graphics/SVG/1.1/DTD/svg11.dtd" >
<svg xmlns="http://www.w3.org/2000/svg" xmlns:xlink="http://www.w3.org/1999/xlink" version="1.1" viewBox="-10 0 1010 1000">
   <path fill="currentColor"
d="M643 235l39 -39c26 13 53 29 80 47c31 -31 63 -69 88 -105h-228v-60h272l13 -4l43 32c-38 57 -92 121 -142 168c27 20 49 39 65 56l-40 44c-39 -42 -120 -101 -190 -139zM548 351h-113c-67 0 -83 -25 -83 -95v-212h61v93h172v58h-172v63c0 28 4 36 23 36h111
c17 0 42 -1 56 -4c1 16 4 41 7 56c-13 4 -38 5 -62 5zM305 693l8 64c-91 32 -188 64 -262 90l-13 -69c31 -9 68 -21 109 -33v-279h-84v-67h84v-221h-99v-67h253v67h-94v221h78v67h-78v259zM589 823l-41 38c-15 -24 -42 -56 -72 -87c-22 66 -65 132 -145 186
c-8 -13 -27 -33 -41 -43c104 -66 137 -158 148 -236h-111v-58h115v-18v-98h-40c-13 34 -26 65 -42 91c-12 -8 -37 -22 -53 -28c35 -54 59 -132 73 -210l58 11c-5 27 -11 53 -18 80h171v56h-89v98v18h98v58h-102c-2 12 -4 24 -6 35c37 34 78 78 97 107zM816 669v203
c21 7 42 9 64 9c13 0 66 0 86 -1c-9 16 -17 45 -20 62h-70c-86 0 -155 -26 -204 -134c-15 60 -38 111 -74 151c-9 -14 -28 -36 -43 -45c70 -77 84 -216 87 -373h60c-2 60 -5 116 -11 169c16 62 39 103 66 128v-404h-143v-59h292l10 -3l41 13c-12 55 -26 119 -39 160l-50 -19
c7 -24 14 -58 21 -92h-73v175h130v60h-130z" />
</svg>
