<?xml version="1.0" standalone="no"?>
<!DOCTYPE svg PUBLIC "-//W3C//DTD SVG 1.1//EN" "http://www.w3.org/Graphics/SVG/1.1/DTD/svg11.dtd" >
<svg xmlns="http://www.w3.org/2000/svg" xmlns:xlink="http://www.w3.org/1999/xlink" version="1.1" viewBox="-10 0 1010 1000">
   <path fill="currentColor"
d="M157 955c-89 -134 -125 -279 -125 -455c0 -175 36 -321 125 -455l45 14c-83 129 -111 280 -111 441c1 162 28 312 111 441zM291 887v-731h77l9 62h2c49 -41 108 -75 169 -75c139 0 213 108 213 275c0 186 -110 293 -233 293c-47 0 -97 -22 -146 -62l3 94v144h-94z
M513 633c86 0 150 -80 150 -213c0 -119 -39 -199 -138 -199c-44 0 -88 27 -140 73v283c47 40 92 56 128 56zM843 955l-45 -14c83 -129 110 -279 111 -441c0 -161 -28 -312 -111 -441l45 -14c89 134 125 280 125 455c0 176 -36 321 -125 455z" />
</svg>
