<?xml version="1.0" standalone="no"?>
<!DOCTYPE svg PUBLIC "-//W3C//DTD SVG 1.1//EN" "http://www.w3.org/Graphics/SVG/1.1/DTD/svg11.dtd" >
<svg xmlns="http://www.w3.org/2000/svg" xmlns:xlink="http://www.w3.org/1999/xlink" version="1.1" viewBox="-10 0 1010 1000">
   <path fill="currentColor"
d="M405 226v128h-58v-180h272v-53h-204v-56h483v56h-216v53h267v180h-59v-128h-208v194h-63v-194h-214zM886 395l-21 45c-38 -18 -109 -45 -165 -63l21 -39c55 15 127 39 165 57zM843 249l30 40c-42 21 -102 38 -144 47l-25 -34c41 -11 104 -38 139 -53zM435 282l25 -35
c45 13 102 35 134 52l-25 39c-30 -17 -89 -42 -134 -56zM434 437l-23 -50c48 -11 108 -30 176 -51l7 43c-56 21 -110 41 -160 58zM325 681l11 63c-96 36 -200 74 -279 102l-18 -67c34 -11 75 -25 119 -40v-277h-90v-64h90v-222h-109v-65h273v65h-101v222h85v64h-85v256z
M423 513v85h119v-85h-119zM513 870l108 -13l1 54c-106 14 -214 28 -297 38l-8 -58l50 -5v-186h50v180l43 -5v-226h-92v-187h231v187h-86v67h91v54h-91v100zM855 787h-135v82h135v-82zM663 953v-215h250v213h-58v-31h-135v33h-57zM721 532l-2 4c15 24 34 47 59 68
c24 -22 45 -46 61 -72h-118zM883 481l36 16c-22 54 -56 101 -97 139c41 25 90 45 142 56c-14 11 -29 32 -37 48c-54 -15 -104 -39 -146 -70c-43 33 -92 58 -141 76c-6 -14 -21 -35 -33 -45c45 -15 90 -37 131 -65c-20 -19 -37 -39 -51 -61c-11 12 -22 23 -35 34
c-10 -13 -29 -28 -43 -35c53 -42 88 -97 107 -145l57 9c-7 15 -14 30 -22 45h120z" />
</svg>
