<?xml version="1.0" standalone="no"?>
<!DOCTYPE svg PUBLIC "-//W3C//DTD SVG 1.1//EN" "http://www.w3.org/Graphics/SVG/1.1/DTD/svg11.dtd" >
<svg xmlns="http://www.w3.org/2000/svg" xmlns:xlink="http://www.w3.org/1999/xlink" version="1.1" viewBox="-10 0 1010 1000">
   <path fill="currentColor"
d="M403 245v84h-63v-133h277v-53h-238v-56h526v56h-225v53h257v133h-64v-84h-193v175h-63v-175h-214zM588 333l5 40c-55 21 -109 40 -159 58l-23 -48c43 -10 97 -27 156 -44c-34 -15 -92 -32 -137 -43l21 -35c47 9 108 27 141 40l-18 36zM418 487v73h59v-73h-59zM374 600
v-153h149v153h-149zM672 560v-73h-62v73h62zM718 447v153h-153v-153h153zM887 386l-20 44c-38 -18 -113 -43 -170 -59l20 -36l-23 -30c41 -9 103 -31 138 -43l30 37c-40 17 -93 29 -134 36c53 14 120 35 159 51zM867 560v-73h-64v73h64zM913 447v153h-155v-153h155zM325 680
l11 64c-96 36 -200 73 -279 102l-18 -68c34 -11 75 -24 119 -39v-277h-90v-64h90v-221h-109v-66h273v66h-101v221h85v64h-85v256zM675 873h278v58h-643v-58h300v-187h-258v-54h575v54h-252v187zM468 694l55 11c-5 15 -12 31 -21 46c30 23 62 53 81 73l-35 34
c-16 -17 -45 -44 -70 -68c-23 31 -51 60 -84 79c-8 -10 -26 -25 -38 -33c55 -33 97 -89 112 -142zM791 695l55 11c-4 15 -10 31 -18 47c32 23 70 50 91 69l-32 38c-20 -18 -53 -45 -84 -68c-19 29 -45 55 -73 72c-9 -10 -27 -26 -38 -34c50 -31 86 -85 99 -135z" />
</svg>
