<?xml version="1.0" standalone="no"?>
<!DOCTYPE svg PUBLIC "-//W3C//DTD SVG 1.1//EN" "http://www.w3.org/Graphics/SVG/1.1/DTD/svg11.dtd" >
<svg xmlns="http://www.w3.org/2000/svg" xmlns:xlink="http://www.w3.org/1999/xlink" version="1.1" viewBox="-10 0 1010 1000">
   <path fill="currentColor"
d="M157 955c-89 -134 -125 -279 -125 -455c0 -175 36 -321 125 -455l45 14c-83 129 -111 280 -111 441c1 162 28 312 111 441zM573 831c-116 0 -156 -73 -156 -182v-297h-80v-71l85 -5l11 -152h78v152h147v76h-147v299c0 66 22 104 83 104c19 0 45 -7 62 -15l18 71
c-30 10 -66 20 -101 20zM843 955l-45 -14c83 -129 110 -279 111 -441c0 -161 -28 -312 -111 -441l45 -14c89 134 125 280 125 455c0 176 -36 321 -125 455z" />
</svg>
