<?xml version="1.0" standalone="no"?>
<!DOCTYPE svg PUBLIC "-//W3C//DTD SVG 1.1//EN" "http://www.w3.org/Graphics/SVG/1.1/DTD/svg11.dtd" >
<svg xmlns="http://www.w3.org/2000/svg" xmlns:xlink="http://www.w3.org/1999/xlink" version="1.1" viewBox="-10 0 1010 1000">
   <path fill="currentColor"
d="M141 579h110v-72h-110v72zM141 385v73h110v-73h-110zM416 385h-102v73h102v-73zM416 579v-72h-102v72h102zM314 757v72c55 -6 112 -12 168 -18l1 62c-153 18 -313 37 -427 51l-10 -69c56 -5 126 -12 205 -20v-78h-180v-61h180v-65h-168v-297h168v-61h-195v-59h195v-68
c-59 6 -120 10 -174 12c-3 -17 -10 -40 -17 -56c132 -8 296 -26 391 -48l32 57c-47 12 -106 21 -169 28v75h184v59h-184v61h162v297h-162v65h162v61h-162zM864 903h25c23 0 27 -68 28 -189c16 15 31 23 47 29c-4 145 -10 205 -75 205h-35c-48 0 -75 -17 -73 -76l21 -493
h-150c-10 171 -22 350 -33 472l133 -24l4 59c-88 20 -179 39 -251 54l-18 -65c19 -3 39 -7 62 -11c20 -176 40 -471 49 -695h-90v-68h436v68h-280c-2 46 -5 95 -8 145h212l-24 555c-1 30 8 34 20 34zM770 704l-49 19c-8 -63 -34 -161 -64 -235l45 -17c32 73 59 169 68 233z
" />
</svg>
