<?xml version="1.0" standalone="no"?>
<!DOCTYPE svg PUBLIC "-//W3C//DTD SVG 1.1//EN" "http://www.w3.org/Graphics/SVG/1.1/DTD/svg11.dtd" >
<svg xmlns="http://www.w3.org/2000/svg" xmlns:xlink="http://www.w3.org/1999/xlink" version="1.1" viewBox="-10 0 1010 1000">
   <path fill="currentColor"
d="M500 966c-257 0 -466 -209 -466 -466s209 -466 466 -466s466 209 466 466c0 259 -211 466 -466 466zM500 934c240 0 434 -194 434 -434s-194 -434 -434 -434c-242 0 -434 196 -434 434c0 240 194 434 434 434zM518 765c-140 0 -246 -97 -246 -270
c0 -170 109 -272 254 -272c66 0 121 31 154 65l-46 53c-30 -29 -62 -47 -107 -47c-102 0 -168 75 -168 199c0 126 62 201 164 201c52 0 89 -19 123 -55l47 50c-47 51 -103 76 -175 76z" />
</svg>
