<?xml version="1.0" standalone="no"?>
<!DOCTYPE svg PUBLIC "-//W3C//DTD SVG 1.1//EN" "http://www.w3.org/Graphics/SVG/1.1/DTD/svg11.dtd" >
<svg xmlns="http://www.w3.org/2000/svg" xmlns:xlink="http://www.w3.org/1999/xlink" version="1.1" viewBox="-10 0 1010 1000">
   <path fill="currentColor"
d="M500 966c-257 0 -466 -209 -466 -466s209 -466 466 -466s466 209 466 466c0 259 -211 466 -466 466zM500 934c240 0 434 -194 434 -434s-194 -434 -434 -434c-242 0 -434 196 -434 434c0 240 194 434 434 434zM518 695c-100 0 -173 -69 -173 -190
c0 -118 83 -188 176 -188c52 0 87 20 110 39l-34 46c-22 -18 -41 -27 -73 -27c-61 0 -106 54 -106 130c0 78 43 131 107 131c37 0 62 -13 82 -30l29 46c-25 21 -62 43 -118 43z" />
</svg>
