<?xml version="1.0" standalone="no"?>
<!DOCTYPE svg PUBLIC "-//W3C//DTD SVG 1.1//EN" "http://www.w3.org/Graphics/SVG/1.1/DTD/svg11.dtd" >
<svg xmlns="http://www.w3.org/2000/svg" xmlns:xlink="http://www.w3.org/1999/xlink" version="1.1" viewBox="-10 0 1010 1000">
   <path fill="currentColor"
d="M165 409l-60 27c-7 -51 -32 -133 -62 -196l56 -22c32 62 59 141 66 191zM248 195v257c0 152 -18 363 -135 500c-10 -13 -37 -39 -53 -48c73 -86 102 -197 113 -303c-41 24 -81 48 -120 70l-24 -66c39 -18 91 -45 149 -76c1 -27 1 -53 1 -77v-320h332v-88h77v88h361v63
h-701zM486 564l40 14c-40 169 -132 270 -247 326c-9 -14 -34 -40 -49 -50c97 -41 173 -115 214 -225h-165v-63h196zM547 320v99h110v-99h-110zM487 419v-99h-106v99h106zM716 320v99h112v-99h-112zM859 507l59 43c-53 47 -120 99 -177 137c59 67 133 119 216 148
c-17 14 -39 41 -49 61c-115 -49 -209 -141 -274 -256v237c0 38 -8 57 -35 68s-71 11 -138 11c-4 -18 -14 -46 -24 -64c50 1 94 1 108 0c14 0 18 -4 18 -16v-401h-244v-211h574v211h-259v35c18 47 42 91 71 132c54 -40 116 -94 154 -135z" />
</svg>
