<?xml version="1.0" standalone="no"?>
<!DOCTYPE svg PUBLIC "-//W3C//DTD SVG 1.1//EN" "http://www.w3.org/Graphics/SVG/1.1/DTD/svg11.dtd" >
<svg xmlns="http://www.w3.org/2000/svg" xmlns:xlink="http://www.w3.org/1999/xlink" version="1.1" viewBox="-10 0 1010 1000">
   <path fill="currentColor"
d="M173 414l-59 28c-12 -50 -39 -133 -63 -196l57 -21c24 62 53 143 65 189zM376 791v81h111v-81h-111zM663 791h-111v81h111v-81zM841 791h-113v81h113v-81zM901 744v128h54v55h-703v-55h67v-128h582zM714 372l-38 -15c18 -22 42 -55 54 -77l47 18c-21 28 -44 54 -63 74z
M449 292l41 -13c20 25 42 58 51 79l-42 18c-10 -23 -31 -58 -50 -84zM405 267v119h173v-119h-173zM822 386v-119h-185v119h185zM293 557h278v-45h-237v-43h237v-41h-232v-203h552v203h-247v41h259v43h-259v45h294v45h-645v-45zM788 634l51 -25c34 30 78 72 101 98l-54 31
c-22 -26 -65 -71 -98 -104zM742 711l-55 17c-11 -24 -32 -64 -52 -95l53 -14c20 29 43 67 54 92zM577 719l-60 11c-4 -26 -15 -68 -25 -99l57 -7c12 30 23 71 28 95zM341 743l-55 -31c33 -25 71 -70 93 -102l54 24c-24 36 -60 80 -92 109zM621 122h338v62h-702v259
c0 152 -19 364 -142 501c-10 -14 -37 -39 -51 -48c73 -82 104 -188 116 -290c-40 24 -80 48 -118 70l-26 -65c40 -19 93 -47 151 -77c2 -32 2 -62 2 -92v-320h352c-7 -22 -15 -44 -22 -64l72 -15c11 24 22 54 30 79z" />
</svg>
