<?xml version="1.0" standalone="no"?>
<!DOCTYPE svg PUBLIC "-//W3C//DTD SVG 1.1//EN" "http://www.w3.org/Graphics/SVG/1.1/DTD/svg11.dtd" >
<svg xmlns="http://www.w3.org/2000/svg" xmlns:xlink="http://www.w3.org/1999/xlink" version="1.1" viewBox="-10 0 1010 1000">
   <path fill="currentColor"
d="M167 129v381c0 137 -11 322 -79 438c-11 -13 -38 -37 -53 -45c60 -109 64 -266 64 -393v-431h826v50h-758zM917 482l-43 38c-27 -41 -79 -101 -130 -152c-21 59 -64 116 -151 162c-9 -13 -28 -35 -42 -45c98 -52 134 -116 147 -179h-140v-54h147v-24v-82h60v83v23h92
c-17 -23 -49 -54 -77 -76l43 -30c28 20 63 52 80 73l-42 33h54v54h-155l-1 3c58 55 126 126 158 173zM449 427l21 -3v-66h-205v47c0 15 -1 30 -3 46c49 -5 110 -14 174 -23c-42 -11 -107 -26 -159 -34l12 -33c55 8 129 21 168 32zM530 316v165c0 27 -7 35 -28 41
c-20 7 -56 6 -111 6c-4 -12 -12 -24 -18 -34c37 1 73 1 83 0c10 0 14 -2 14 -12v-22c-73 13 -142 27 -202 38l-9 -28c-5 24 -15 49 -33 68c-9 -10 -33 -28 -44 -35c26 -30 28 -66 28 -99v-88h320zM462 206v-20h-184v20h184zM462 258v-21h-184v21h184zM521 155v135h-299v-135
h299zM732 739h-306c42 35 97 65 161 88c57 -23 107 -52 145 -88zM284 616v34c0 12 0 24 -1 38h224v-72h-223zM794 685l42 28c-41 58 -99 104 -170 139c85 23 182 38 281 45c-13 14 -29 39 -37 57c-116 -11 -228 -32 -324 -67c-92 34 -197 55 -304 69c-8 -16 -29 -42 -42 -54
c94 -9 185 -25 266 -48c-64 -31 -118 -69 -160 -115h-68c-10 76 -34 158 -91 223c-11 -13 -39 -36 -53 -43c74 -83 85 -192 85 -270v-89h287v-34h70v34h283l12 -3l47 13c-16 43 -35 92 -54 123l-57 -17c9 -17 18 -38 26 -60h-257v72h205z" />
</svg>
