<?xml version="1.0" standalone="no"?>
<!DOCTYPE svg PUBLIC "-//W3C//DTD SVG 1.1//EN" "http://www.w3.org/Graphics/SVG/1.1/DTD/svg11.dtd" >
<svg xmlns="http://www.w3.org/2000/svg" xmlns:xlink="http://www.w3.org/1999/xlink" version="1.1" viewBox="-10 0 1010 1000">
   <path fill="currentColor"
d="M493 460v-63c-33 31 -70 57 -111 80c-9 -15 -31 -44 -45 -57c87 -43 154 -103 202 -183h-169v-69h204c14 -35 26 -74 35 -116l68 11c-9 37 -19 73 -32 105h286v69h-183c49 77 129 145 212 180c-15 12 -38 38 -49 56c-93 -46 -180 -137 -230 -236h-65
c-33 62 -73 115 -122 159h286v64h-287zM264 171h-122v139h122v-139zM142 725h122v-145h-122v145zM142 374v142h122v-142h-122zM327 105v687h-185v86h-65v-773h250zM488 701l59 21c-37 71 -103 146 -167 186c-12 -17 -33 -42 -49 -54c60 -32 123 -94 157 -153zM934 622h-257
v334h-71v-334h-235v-66h563v66zM738 731l50 -35c56 50 126 121 160 165l-51 40c-34 -46 -103 -118 -159 -170z" />
</svg>
