<?xml version="1.0" standalone="no"?>
<!DOCTYPE svg PUBLIC "-//W3C//DTD SVG 1.1//EN" "http://www.w3.org/Graphics/SVG/1.1/DTD/svg11.dtd" >
<svg xmlns="http://www.w3.org/2000/svg" xmlns:xlink="http://www.w3.org/1999/xlink" version="1.1" viewBox="-10 0 1010 1000">
   <path fill="currentColor"
d="M304 764v-295h-121v295h121zM393 165h-145c-15 83 -37 163 -63 238h183v428h-185v80h-62v-364c-17 30 -35 58 -55 83c-4 -16 -21 -59 -33 -78c71 -94 118 -235 146 -387h-125v-69h339v69zM532 179h389s-1 27 -1 36c-11 478 -20 631 -54 678c-18 26 -38 35 -67 38
c-28 3 -74 2 -118 0c-2 -20 -9 -48 -20 -67c50 4 96 4 116 4c16 1 25 -2 35 -16c25 -33 37 -187 47 -609h-358c-23 41 -48 79 -75 112h54v361h242v-372h58v435h-358v-419c-12 14 -24 28 -37 41c-7 -15 -27 -44 -40 -58c75 -68 136 -176 168 -295l60 16
c-12 40 -25 78 -41 115zM708 616l-39 42c-13 -29 -32 -64 -55 -102c-23 52 -51 97 -82 135c-7 -12 -27 -36 -39 -46c35 -39 63 -88 86 -145c-26 -40 -55 -80 -82 -116l36 -35c22 28 46 60 68 91c15 -48 28 -99 37 -153l55 11c-13 71 -32 138 -54 198c29 45 55 88 69 120z
" />
</svg>
