<?xml version="1.0" standalone="no"?>
<!DOCTYPE svg PUBLIC "-//W3C//DTD SVG 1.1//EN" "http://www.w3.org/Graphics/SVG/1.1/DTD/svg11.dtd" >
<svg xmlns="http://www.w3.org/2000/svg" xmlns:xlink="http://www.w3.org/1999/xlink" version="1.1" viewBox="-10 0 1010 1000">
   <path fill="currentColor"
d="M540 194v-3h-160v-62h244c-10 -24 -23 -50 -35 -72l68 -15c15 26 33 61 45 87h240v62h-143v54c0 22 2 28 18 28h70c14 0 38 -1 51 -4c1 16 3 35 6 51c-12 4 -35 5 -55 5h-85c-58 0 -69 -24 -69 -81v-53h-129v6c0 62 -56 120 -205 159c-8 -16 -29 -43 -43 -54
c138 -29 182 -68 182 -108zM523 403v112h278v-112h-278zM285 764v-295h-105v295h105zM871 606l55 39c-37 33 -86 67 -128 94c43 62 98 112 165 141c-17 14 -38 39 -48 58c-123 -63 -207 -188 -254 -341c-29 37 -63 70 -102 99v151l160 -50c3 18 9 45 14 59
c-197 67 -226 81 -244 96c-4 -17 -16 -47 -25 -61c12 -6 26 -17 26 -52v-97c-31 17 -65 34 -99 48c-10 -14 -30 -37 -44 -50v91h-167v80h-61v-367c-17 31 -34 58 -53 84c-5 -18 -21 -57 -32 -76c69 -94 115 -235 142 -387h-122v-69h310v69h-121c-15 83 -36 164 -62 238h166
v332c103 -39 197 -98 252 -166h-142v-220h412v220h-151c14 44 30 85 51 123c37 -27 76 -61 102 -86z" />
</svg>
