<?xml version="1.0" standalone="no"?>
<!DOCTYPE svg PUBLIC "-//W3C//DTD SVG 1.1//EN" "http://www.w3.org/Graphics/SVG/1.1/DTD/svg11.dtd" >
<svg xmlns="http://www.w3.org/2000/svg" xmlns:xlink="http://www.w3.org/1999/xlink" version="1.1" viewBox="-10 0 1010 1000">
   <path fill="currentColor"
d="M281 764v-295h-101v295h101zM54 165v-69h322v69h-130c-16 83 -36 164 -62 238h160v428h-164v80h-61v-360c-16 29 -33 56 -52 80c-5 -17 -22 -59 -34 -79c70 -94 116 -235 143 -387h-122zM618 851l-49 42c-23 -28 -74 -72 -114 -102l47 -38c39 28 91 70 116 98zM491 529
v54h345v-54h-345zM583 339h-92v145h345v-44c-9 0 -23 1 -30 1h-49c-16 0 -35 -3 -45 -12c-11 -8 -14 -22 -14 -57v-33h-68v6c0 42 -20 93 -89 128c-8 -11 -27 -26 -38 -31c65 -30 80 -66 80 -98v-5zM629 229v57h68v-57h-68zM836 399v-60h-91v41c0 10 1 17 5 19c3 2 9 2 16 2
h35h21h11c1 -1 2 -1 3 -2zM954 695v59h-158v128c0 35 -7 50 -34 60c-27 9 -68 10 -132 10c-3 -18 -13 -40 -21 -57c47 1 90 1 102 1c13 -1 16 -4 16 -15v-127h-344v-59h344v-58h-297v-351h147v-57h-176v-57h153c-16 -29 -43 -72 -66 -103l58 -25c25 34 57 77 71 105l-46 23
h130c28 -37 61 -91 77 -128l70 22c-24 35 -49 74 -73 106h160v57h-185v57h151v351h-105v58h158z" />
</svg>
