<?xml version="1.0" standalone="no"?>
<!DOCTYPE svg PUBLIC "-//W3C//DTD SVG 1.1//EN" "http://www.w3.org/Graphics/SVG/1.1/DTD/svg11.dtd" >
<svg xmlns="http://www.w3.org/2000/svg" xmlns:xlink="http://www.w3.org/1999/xlink" version="1.1" viewBox="-10 0 1010 1000">
   <path fill="currentColor"
d="M773 335h60v88h109v61h-109v130c0 28 2 36 15 36h61c12 0 30 -1 41 -4c2 17 4 42 6 56c-11 4 -30 5 -47 5h-61c-62 0 -75 -24 -75 -94v-278zM729 185h-153v74h153v-74zM510 316v-131h-149v-61h149v-79h66v79h153v-79h69v79h155v61h-155v131h-288zM604 441v186h73v-186
h-73zM730 681h-176v-295h176v295zM258 761v-303h-84v303h84zM52 162v-62h283v62h-113c-12 81 -27 161 -45 235h136v424h-139v82h-57v-328c-15 33 -30 62 -48 90c-6 -17 -24 -52 -35 -69c66 -106 103 -266 123 -434h-105zM404 955l-58 -34c42 -45 77 -122 98 -181l57 25
c-23 61 -56 140 -97 190zM503 596l26 -11l11 53c-63 28 -125 59 -181 85l-16 -60c27 -10 62 -25 99 -41v-140h-95v-62h95v-85h61v261zM544 768l59 -9c11 54 23 125 26 171l-62 12c-2 -47 -12 -119 -23 -174zM666 766l57 -15c24 54 48 124 60 170l-60 18
c-10 -46 -35 -119 -57 -173zM792 757l57 -22c37 59 78 134 98 183l-61 29c-20 -51 -60 -130 -94 -190z" />
</svg>
