<?xml version="1.0" standalone="no"?>
<!DOCTYPE svg PUBLIC "-//W3C//DTD SVG 1.1//EN" "http://www.w3.org/Graphics/SVG/1.1/DTD/svg11.dtd" >
<svg xmlns="http://www.w3.org/2000/svg" xmlns:xlink="http://www.w3.org/1999/xlink" version="1.1" viewBox="-10 0 1010 1000">
   <path fill="currentColor"
d="M829 391l59 18c-36 25 -85 48 -140 68c41 19 84 30 121 29c25 0 32 -15 36 -61c14 10 34 18 52 22c-11 70 -35 88 -91 88c-60 0 -128 -21 -188 -56c-68 20 -142 34 -209 46c-9 -11 -29 -32 -42 -42c67 -9 138 -21 205 -37c-24 -20 -46 -42 -63 -68l-136 11l-6 -45l118 -9
c-9 -20 -15 -39 -19 -61h65c3 20 10 38 19 55l117 -9c-21 -15 -52 -30 -77 -41l32 -28c33 13 76 34 96 52l-16 14l179 -13l6 44l-309 24c17 22 38 40 61 56c52 -16 97 -35 130 -57zM801 149l60 17c-31 22 -70 41 -113 58c39 17 80 27 116 27c25 -1 31 -16 35 -60
c14 10 34 18 51 22c-10 68 -33 86 -89 86c-58 0 -123 -19 -181 -52c-70 22 -146 38 -215 50c-8 -11 -29 -31 -41 -41c68 -9 143 -23 209 -40c-19 -16 -38 -33 -53 -53l-142 12l-5 -45l118 -10c-12 -22 -20 -47 -24 -72h63c5 24 14 47 27 67l117 -9c-22 -13 -51 -27 -76 -37
l31 -29c35 11 79 32 100 49l-13 13l150 -11l5 43l-281 23c15 15 31 29 49 39c40 -13 76 -29 102 -47zM139 202h219c-39 -25 -88 -50 -134 -72c-27 27 -56 50 -85 72zM106 252v-27c-14 8 -28 17 -42 25c-5 -14 -18 -47 -27 -63c71 -33 152 -88 198 -148l48 24
c-6 9 -13 17 -21 26c59 26 119 58 157 84l-26 53c-7 -6 -17 -12 -27 -19v45h-103v58h138v51h-138v103l33 -5c13 -27 26 -60 34 -82l49 17c-10 20 -20 40 -30 58l61 -9v47c-123 21 -255 41 -348 55l-12 -53c42 -5 94 -12 153 -19v-112h-141v-51h141v-58h-97zM91 396l44 -14
c11 26 23 60 28 83l-46 17c-4 -23 -16 -59 -26 -86zM774 866v-104h-461v104h461zM60 625v-57h882v57h-552c-20 28 -42 56 -66 81h527v244h-77v-29h-461v34h-74v-171c-50 39 -104 73 -158 101c-9 -14 -31 -42 -47 -55c105 -47 207 -118 274 -205h-248z" />
</svg>
