<?xml version="1.0" standalone="no"?>
<!DOCTYPE svg PUBLIC "-//W3C//DTD SVG 1.1//EN" "http://www.w3.org/Graphics/SVG/1.1/DTD/svg11.dtd" >
<svg xmlns="http://www.w3.org/2000/svg" xmlns:xlink="http://www.w3.org/1999/xlink" version="1.1" viewBox="-10 0 1010 1000">
   <path fill="currentColor"
d="M816 237v-93h-302v93h302zM816 389v-95h-302v95h302zM888 84v365h-444v-365h444zM289 167l-56 40c-16 -36 -51 -92 -80 -132l53 -34c30 40 66 92 83 126zM339 217l38 30c-27 70 -63 139 -106 204c38 37 110 113 128 134l-41 60c-20 -30 -64 -85 -99 -128v439h-68v-397
c-40 49 -83 93 -123 127c-7 -20 -25 -57 -36 -71c96 -73 199 -201 258 -327h-239v-68h275zM482 852h367v-106h-367v106zM849 583h-367v100h367v-100zM412 519h510v432h-73v-34h-367v39h-70v-437z" />
</svg>
