<?xml version="1.0" standalone="no"?>
<!DOCTYPE svg PUBLIC "-//W3C//DTD SVG 1.1//EN" "http://www.w3.org/Graphics/SVG/1.1/DTD/svg11.dtd" >
<svg xmlns="http://www.w3.org/2000/svg" xmlns:xlink="http://www.w3.org/1999/xlink" version="1.1" viewBox="-10 0 1010 1000">
   <path fill="currentColor"
d="M891 602v277c0 38 -9 54 -37 64c-28 9 -74 10 -140 10c-5 -19 -18 -41 -27 -57c49 1 97 1 109 0c14 0 18 -4 18 -16v-217h-279v107l106 -13c-17 -22 -34 -43 -51 -63l52 -23c47 52 102 122 128 167l-54 28c-9 -17 -22 -37 -37 -57c-140 19 -284 39 -389 54l-11 -63
c51 -6 115 -13 186 -21v-116h-274v295h-76v-295h-38v-61h38v-38h76v38h274v-87h70v87h356zM701 473l-41 52c-34 -25 -83 -54 -138 -80c-60 34 -125 63 -186 84c-11 -12 -33 -37 -48 -49c57 -16 115 -39 168 -65c-46 -20 -93 -39 -137 -52l39 -46c51 16 109 38 164 62
c40 -24 73 -51 98 -80l61 21c-26 32 -61 60 -98 87c46 22 88 45 118 66zM535 117h363v59h-363v57h298v308h-71v-254h-514v250h-69v-304h282v-190h74v74z" />
</svg>
