<?xml version="1.0" standalone="no"?>
<!DOCTYPE svg PUBLIC "-//W3C//DTD SVG 1.1//EN" "http://www.w3.org/Graphics/SVG/1.1/DTD/svg11.dtd" >
<svg xmlns="http://www.w3.org/2000/svg" xmlns:xlink="http://www.w3.org/1999/xlink" version="1.1" viewBox="-10 0 1010 1000">
   <path fill="currentColor"
d="M605 508h159v-191h-159v191zM953 508v70h-116v376h-73v-376h-160c-7 130 -44 280 -193 379c-11 -16 -34 -41 -50 -54c136 -83 164 -215 170 -325h-120l12 13l-45 59c-16 -28 -57 -83 -91 -124v428h-72v-442c-41 101 -94 201 -145 262c-7 -21 -25 -50 -37 -68
c63 -70 132 -199 172 -313h-153v-70h163v-152c-49 10 -100 18 -146 25c-4 -17 -14 -41 -23 -58c112 -18 243 -47 317 -80l51 56c-36 15 -80 29 -127 40v169h125v70h-125v61c24 20 79 77 113 112v-58h132v-191h-113v-69h132c-12 -48 -45 -121 -77 -176l61 -24
c37 54 72 127 84 175l-58 25h234l-54 -25c31 -48 72 -125 92 -181l71 28c-34 62 -72 132 -104 178h146v69h-109v191h116z" />
</svg>
