<?xml version="1.0" standalone="no"?>
<!DOCTYPE svg PUBLIC "-//W3C//DTD SVG 1.1//EN" "http://www.w3.org/Graphics/SVG/1.1/DTD/svg11.dtd" >
<svg xmlns="http://www.w3.org/2000/svg" xmlns:xlink="http://www.w3.org/1999/xlink" version="1.1" viewBox="-10 0 1010 1000">
   <path fill="currentColor"
d="M370 203v-65h-207v65h207zM370 316v-66h-207v66h207zM435 89v276h-335v-276h335zM475 409v68h-428v-68h428zM403 603l59 30c-84 68 -222 123 -346 154c-9 -17 -26 -40 -42 -54c117 -25 256 -73 329 -130zM363 500l60 28c-73 52 -186 92 -284 116c-10 -15 -27 -37 -44 -50
c93 -19 206 -53 268 -94zM436 724l64 29c-90 95 -248 164 -413 199c-9 -16 -25 -42 -41 -57c156 -29 312 -90 390 -171zM953 438h-167c40 129 107 262 177 332c-18 12 -41 35 -54 54c-56 -67 -110 -177 -150 -293v425h-69v-403c-39 112 -93 222 -148 288
c-9 -21 -27 -50 -41 -68c66 -76 131 -211 168 -335h-167v-71h188v-179c-54 12 -110 24 -162 33c-4 -17 -15 -43 -24 -60c129 -23 276 -62 356 -104l62 55c-46 22 -102 41 -163 58v197h194v71z" />
</svg>
