<?xml version="1.0" standalone="no"?>
<!DOCTYPE svg PUBLIC "-//W3C//DTD SVG 1.1//EN" "http://www.w3.org/Graphics/SVG/1.1/DTD/svg11.dtd" >
<svg xmlns="http://www.w3.org/2000/svg" xmlns:xlink="http://www.w3.org/1999/xlink" version="1.1" viewBox="-10 0 1010 1000">
   <path fill="currentColor"
d="M155 153v70h-73v-123h377c-7 -17 -15 -34 -22 -49l74 -13c11 19 22 42 30 62h381v121h-77v-68h-203v57c0 20 3 28 27 28h138c20 0 61 -3 77 -6c3 19 4 31 7 48c-16 4 -50 5 -80 5h-165c-64 0 -75 -26 -75 -76v-56h-125c-43 92 -131 136 -307 163c-5 -15 -21 -36 -35 -48
c154 -19 228 -54 261 -115h-210zM731 786l-37 49c-34 -31 -81 -67 -134 -105c-57 48 -129 90 -217 123c-8 -16 -25 -36 -39 -46c84 -29 154 -68 208 -112c-26 -17 -52 -36 -80 -53c-40 30 -88 56 -145 79c-9 -13 -27 -32 -40 -41c54 -19 100 -42 137 -69
c-30 -18 -60 -37 -88 -53l37 -42c31 18 64 37 97 58c26 -25 45 -51 58 -76l62 10c-19 34 -42 66 -73 95c27 18 54 36 79 53c48 -46 80 -95 99 -142l64 10c-25 58 -62 115 -113 166c49 35 93 68 125 96zM237 859h535v-383h-535v383zM940 399l-24 55c-20 -8 -45 -18 -71 -29
v528h-73v-37h-535v42h-71v-528c-22 5 -44 9 -67 13l-26 -57c113 -15 237 -50 320 -107l48 33c-64 46 -145 82 -234 107h621c-78 -29 -176 -58 -258 -76l25 -48c113 23 265 68 345 104z" />
</svg>
