<?xml version="1.0" standalone="no"?>
<!DOCTYPE svg PUBLIC "-//W3C//DTD SVG 1.1//EN" "http://www.w3.org/Graphics/SVG/1.1/DTD/svg11.dtd" >
<svg xmlns="http://www.w3.org/2000/svg" xmlns:xlink="http://www.w3.org/1999/xlink" version="1.1" viewBox="-10 0 1010 1000">
   <path fill="currentColor"
d="M279 191l-63 25c-12 -39 -39 -99 -61 -143l61 -20c24 44 50 101 63 138zM386 230v69h-332v-69h332zM191 702l-59 12c-3 -98 -23 -245 -46 -357l56 -12c24 115 45 259 49 357zM291 727l102 -27l8 69c-119 32 -242 64 -336 88l-16 -73c50 -10 114 -26 183 -43
c23 -107 47 -281 58 -403l65 14c-17 117 -41 269 -64 375zM476 695v-61h401v61h-157v183c0 38 -7 55 -35 66c-28 10 -71 10 -138 10c-3 -19 -12 -44 -22 -63c50 1 94 1 107 0c13 0 17 -3 17 -14v-182h-173zM404 656v-154h542v154h-66v-92h-413v92h-63zM813 397v-89h-281v89
h281zM466 254h417v197h-417v-197zM722 139h232v62h-557v-62h247c-11 -26 -25 -55 -40 -79l67 -20c19 30 41 70 51 99z" />
</svg>
