<?xml version="1.0" standalone="no"?>
<!DOCTYPE svg PUBLIC "-//W3C//DTD SVG 1.1//EN" "http://www.w3.org/Graphics/SVG/1.1/DTD/svg11.dtd" >
<svg xmlns="http://www.w3.org/2000/svg" xmlns:xlink="http://www.w3.org/1999/xlink" version="1.1" viewBox="-10 0 1010 1000">
   <path fill="currentColor"
d="M503 221h-159c27 50 52 104 63 141l-67 25c-11 -43 -41 -110 -71 -166h-59c-37 60 -79 114 -122 155c-13 -12 -44 -32 -61 -42c82 -72 154 -184 196 -302l71 18c-13 36 -29 70 -46 104h255v67zM957 154v67h-191c35 48 69 101 87 137l-67 30c-19 -44 -61 -111 -102 -167
h-63c-33 61 -70 115 -109 156c-15 -12 -46 -32 -64 -42c76 -72 137 -183 171 -302l72 17c-11 36 -24 70 -38 104h304z" />
</svg>
