<?xml version="1.0" standalone="no"?>
<!DOCTYPE svg PUBLIC "-//W3C//DTD SVG 1.1//EN" "http://www.w3.org/Graphics/SVG/1.1/DTD/svg11.dtd" >
<svg xmlns="http://www.w3.org/2000/svg" xmlns:xlink="http://www.w3.org/1999/xlink" version="1.1" viewBox="-10 0 1010 1000">
   <path fill="currentColor"
d="M735 181h-113c-23 43 -52 82 -80 111c-13 -11 -41 -30 -59 -38c55 -52 99 -129 123 -210l68 14c-7 22 -15 43 -23 64h297v59h-208c44 25 101 63 128 88l-37 48c-29 -27 -87 -69 -131 -97zM489 180h-295c-31 53 -67 101 -105 138c-10 -12 -37 -36 -52 -46
c62 -58 118 -144 152 -231l65 17c-7 22 -17 42 -27 63h262v59zM250 223l36 -41c40 25 92 64 116 91l-36 46c-25 -28 -75 -69 -116 -96zM225 527h191s-1 22 -2 31c-13 240 -26 327 -50 356c-14 19 -30 26 -53 28c-18 2 -50 2 -82 1c-2 -21 -7 -47 -17 -65c30 3 56 4 69 4
c11 0 19 -2 26 -12c17 -18 27 -90 38 -280h-125c-13 152 -44 281 -125 366c-9 -16 -32 -38 -49 -48c94 -98 110 -269 114 -463h-100v-63h177c-13 -27 -30 -59 -47 -82l57 -23c25 32 48 76 61 105h132v63h-212c-1 28 -2 56 -3 82zM743 850h209v68h-512v-68h232v-163h-178v-67
h178v-146h-122c-15 38 -32 73 -50 100c-12 -11 -40 -28 -56 -37c38 -57 69 -141 86 -223l66 16c-6 25 -14 52 -23 78h99v-115h71v115h179v66h-179v146h165v67h-165v163z" />
</svg>
