<?xml version="1.0" standalone="no"?>
<!DOCTYPE svg PUBLIC "-//W3C//DTD SVG 1.1//EN" "http://www.w3.org/Graphics/SVG/1.1/DTD/svg11.dtd" >
<svg xmlns="http://www.w3.org/2000/svg" xmlns:xlink="http://www.w3.org/1999/xlink" version="1.1" viewBox="-10 0 1010 1000">
   <path fill="currentColor"
d="M717 186h-93c-21 40 -47 77 -72 105c-13 -11 -41 -29 -58 -38c52 -53 94 -132 117 -213l67 14c-6 25 -15 50 -26 74h296v58h-220c48 22 107 50 139 71l-31 49c-34 -23 -99 -58 -148 -82zM825 524h-71v-174h-506v175h-67v-216h644v215zM271 504v-42h461v42h-461zM272 385
h459v41h-459v-41zM181 583v56h163v-56h-163zM412 583v56h168v-56h-168zM649 583v56h171v-56h-171zM112 679v-136h780v136h-780zM270 185h-73c-30 51 -63 97 -98 132c-11 -11 -37 -35 -53 -46c60 -57 112 -144 144 -231l66 17c-9 24 -18 47 -29 70h262v58h-215
c50 20 113 50 146 72l-27 49c-34 -24 -99 -58 -150 -79zM704 776h-409c55 30 129 53 213 72c76 -18 143 -41 196 -72zM791 719l40 30c-51 51 -121 90 -205 119c104 16 218 25 328 29c-13 14 -28 39 -36 56c-138 -7 -280 -23 -406 -50c-134 31 -286 47 -434 55
c-4 -18 -15 -44 -24 -59c114 -4 231 -12 338 -29c-68 -22 -127 -50 -173 -82l24 -12h-148v-54h682z" />
</svg>
