<?xml version="1.0" standalone="no"?>
<!DOCTYPE svg PUBLIC "-//W3C//DTD SVG 1.1//EN" "http://www.w3.org/Graphics/SVG/1.1/DTD/svg11.dtd" >
<svg xmlns="http://www.w3.org/2000/svg" xmlns:xlink="http://www.w3.org/1999/xlink" version="1.1" viewBox="-10 0 1010 1000">
   <path fill="currentColor"
d="M489 178h-289c-33 55 -71 106 -109 143c-11 -11 -37 -35 -54 -46c65 -58 122 -146 156 -234l67 17c-9 22 -19 43 -28 64h257v56zM408 269l-41 43c-27 -26 -80 -66 -123 -92l41 -37c42 24 97 61 123 86zM680 807v64h255v60h-741v-60h249v-60h-170v-156h60v106h110v-122h65
v232h106v-232h66v120h112v-104h60v152h-172zM450 423l64 1v51l282 -16l2 44l-284 18v13c0 26 6 35 39 35h241c30 0 82 -2 102 -7c2 19 3 36 7 50c-19 5 -61 5 -103 5h-255c-77 0 -95 -24 -95 -84v-9l-191 12l-2 -47l193 -11v-55zM881 355l13 -2l47 10c-11 45 -27 98 -41 130
l-61 -12c8 -19 16 -45 22 -71h-667v115c0 127 -15 306 -102 429c-12 -10 -40 -29 -56 -37c81 -118 92 -277 92 -392v-170h363c-12 -22 -31 -47 -48 -67l57 -24c24 26 52 63 65 86l-10 5h326zM681 216l47 -31c39 27 92 66 117 92l-46 36c-26 -25 -78 -67 -118 -97zM650 123
h298v57h-327c-22 38 -47 72 -74 99c-12 -11 -39 -30 -56 -37c53 -50 97 -124 120 -201l66 13c-7 24 -17 46 -27 69z" />
</svg>
