<?xml version="1.0" standalone="no"?>
<!DOCTYPE svg PUBLIC "-//W3C//DTD SVG 1.1//EN" "http://www.w3.org/Graphics/SVG/1.1/DTD/svg11.dtd" >
<svg xmlns="http://www.w3.org/2000/svg" xmlns:xlink="http://www.w3.org/1999/xlink" version="1.1" viewBox="-10 0 1010 1000">
   <path fill="currentColor"
d="M489 182h-289c-32 55 -69 104 -106 141c-11 -10 -37 -35 -53 -45c63 -59 119 -147 152 -237l67 17c-8 22 -18 43 -28 64h257v60zM423 269l-37 48c-30 -26 -91 -65 -139 -90l36 -42c47 22 109 58 140 84zM300 678v173c53 -9 108 -18 163 -27l4 59c-136 25 -278 48 -382 66
l-13 -64c45 -7 102 -15 165 -24v-183h-156v-57h156v-79h-105v-47c-21 15 -41 27 -62 39c-5 -14 -21 -47 -31 -63c83 -41 175 -107 227 -178l55 23c-7 9 -14 18 -22 28c63 34 126 72 168 102l-29 52c-44 -32 -114 -75 -177 -111c-35 35 -75 69 -115 98h267v57h-113v79h142v57
h-142zM107 721l52 -15c17 42 34 99 42 134l-56 18c-6 -37 -23 -94 -38 -137zM385 832l-48 -17c15 -32 32 -82 40 -117l59 18c-18 42 -35 86 -51 116zM516 774v-59h266v59h-266zM535 560h228v60h-228v-60zM924 375v34c-10 358 -21 474 -48 512c-18 23 -39 30 -67 33
s-74 2 -120 -1c-1 -18 -8 -42 -18 -59c48 4 91 4 110 4c16 0 25 -1 34 -13c21 -26 31 -140 40 -449h-264c-29 53 -63 100 -99 136c-12 -10 -39 -31 -54 -40c64 -58 114 -145 143 -239l64 14c-7 23 -16 46 -26 68h305zM677 225l45 -34c40 27 95 68 121 93l-45 40
c-28 -27 -80 -69 -121 -99zM651 123h298v61h-328c-22 39 -48 75 -75 102c-12 -10 -40 -29 -56 -37c53 -51 97 -128 120 -208l67 13c-7 24 -16 46 -26 69z" />
</svg>
