<?xml version="1.0" standalone="no"?>
<!DOCTYPE svg PUBLIC "-//W3C//DTD SVG 1.1//EN" "http://www.w3.org/Graphics/SVG/1.1/DTD/svg11.dtd" >
<svg xmlns="http://www.w3.org/2000/svg" xmlns:xlink="http://www.w3.org/1999/xlink" version="1.1" viewBox="-10 0 1010 1000">
   <path fill="currentColor"
d="M249 421v43h522v-43h-522zM249 345v40h522v-40h-522zM249 269v39h522v-39h-522zM639 598h-278c-32 26 -70 51 -112 75c52 14 122 39 158 58l-36 46l91 -29v-126h74v119c23 7 47 14 72 22c42 -25 92 -58 123 -83l63 35c-37 25 -79 50 -117 69c93 31 187 64 245 90l-27 58
c-80 -38 -233 -93 -359 -133v92c0 35 -6 51 -29 62c-25 11 -62 11 -117 11c-4 -19 -13 -43 -22 -60c38 1 69 1 80 0s14 -4 14 -13v-84c-131 42 -263 84 -362 116l-17 -63c71 -20 173 -49 280 -82c-37 -19 -104 -47 -155 -62l35 -41c-47 25 -100 48 -159 67
c-8 -16 -27 -38 -39 -50c85 -25 158 -58 215 -94h-203v-55h277c14 -13 27 -25 38 -38h-194v-277h147c-23 -16 -54 -36 -81 -50l37 -31h-80c-28 38 -57 72 -86 99c-12 -10 -39 -28 -56 -37c53 -44 103 -109 135 -173l63 20c-7 15 -16 28 -25 43h251v48h-196
c32 17 73 41 95 57l-27 24h399c-24 -16 -65 -39 -96 -53l38 -29h-112c-18 29 -37 54 -57 75c-13 -10 -41 -25 -57 -32c42 -39 78 -95 99 -152l63 17c-6 15 -12 29 -19 44h324v48h-238c34 15 79 38 103 53l-34 29h76v277h-392c-10 13 -20 25 -32 38h526v55h-217
c65 39 153 72 233 87c-14 13 -33 37 -42 51c-96 -25 -208 -78 -281 -138z" />
</svg>
