<?xml version="1.0" standalone="no"?>
<!DOCTYPE svg PUBLIC "-//W3C//DTD SVG 1.1//EN" "http://www.w3.org/Graphics/SVG/1.1/DTD/svg11.dtd" >
<svg xmlns="http://www.w3.org/2000/svg" xmlns:xlink="http://www.w3.org/1999/xlink" version="1.1" viewBox="-10 0 1010 1000">
   <path fill="currentColor"
d="M339 106l63 18c-23 73 -51 163 -75 217l-47 -16c21 -57 46 -154 59 -219zM164 322l-57 15c-8 -59 -28 -150 -48 -219l54 -13c21 70 43 158 51 217zM125 507l49 17c-20 107 -59 249 -105 323c-7 -23 -23 -54 -35 -73c37 -61 75 -178 91 -267zM377 447h-119v509h-68v-509
h-133v-70h133v-333h68v333h119v70zM390 691l-51 50c-14 -50 -60 -167 -79 -206l39 -28c16 27 79 153 91 184zM748 538v319h205v70h-464v-70h190v-319h-148v-68h148v-178h69v178h175v68h-175zM915 810l-54 22c-14 -53 -46 -133 -77 -192l51 -19c32 60 66 138 80 189zM752 169
h205v68h-450v239c0 146 -16 347 -121 478c-13 -12 -41 -34 -57 -42c98 -123 108 -301 108 -436v-307h238c-11 -35 -26 -76 -43 -110l68 -15c20 38 40 87 52 125z" />
</svg>
