<?xml version="1.0" standalone="no"?>
<!DOCTYPE svg PUBLIC "-//W3C//DTD SVG 1.1//EN" "http://www.w3.org/Graphics/SVG/1.1/DTD/svg11.dtd" >
<svg xmlns="http://www.w3.org/2000/svg" xmlns:xlink="http://www.w3.org/1999/xlink" version="1.1" viewBox="-10 0 1010 1000">
   <path fill="currentColor"
d="M349 106l62 18c-23 71 -50 159 -74 212l-47 -16c21 -56 47 -150 59 -214zM169 318l-57 14c-8 -57 -29 -145 -47 -213l53 -12c20 68 42 154 51 211zM134 508l48 16c-18 106 -59 248 -105 321c-7 -22 -23 -52 -35 -71c37 -60 77 -177 92 -266zM388 447h-119v509h-67v-509
h-144v-70h144v-333h67v333h119v70zM399 688l-51 50c-14 -50 -60 -165 -79 -203l39 -28c16 27 77 151 91 181zM835 832v-169h-220v169h220zM745 276v114h199v67h-199v139h163v359h-73v-56h-220v56h-69v-359h126v-320h73zM739 169h213v71h-447v237c0 147 -18 348 -131 480
c-12 -13 -41 -35 -58 -44c106 -124 117 -301 117 -436v-308h232c-12 -35 -30 -76 -47 -110l64 -16c21 38 44 89 57 126z" />
</svg>
