<?xml version="1.0" standalone="no"?>
<!DOCTYPE svg PUBLIC "-//W3C//DTD SVG 1.1//EN" "http://www.w3.org/Graphics/SVG/1.1/DTD/svg11.dtd" >
<svg xmlns="http://www.w3.org/2000/svg" xmlns:xlink="http://www.w3.org/1999/xlink" version="1.1" viewBox="-10 0 1010 1000">
   <path fill="currentColor"
d="M313 106l64 15c-21 73 -47 166 -68 221l-48 -14c18 -59 42 -157 52 -222zM146 325l-56 13c-1 -58 -17 -145 -40 -213l51 -12c25 68 42 154 45 212zM360 654l-44 60c-14 -29 -45 -81 -74 -125v366h-65v-364c-31 88 -69 172 -109 226c-8 -20 -26 -51 -37 -68
c50 -67 104 -187 135 -294h-121v-70h132v-341h65v341h118v70h-118v46c30 36 101 129 118 153zM762 536l-40 -17c20 -35 46 -92 58 -129l50 18c-22 45 -48 95 -68 128zM489 410l42 -15c25 36 47 86 55 119l-46 19c-6 -33 -28 -85 -51 -123zM456 363v193h170v-193h-170z
M867 556v-193h-181v193h181zM928 616h-197c59 92 156 186 242 234c-17 14 -40 40 -53 57c-79 -51 -166 -144 -228 -240v289h-72v-276c-70 97 -166 183 -259 233c-12 -17 -33 -43 -50 -57c104 -47 211 -141 277 -240h-192v-311h224v-89h-239v-65h239v-107h72v107h250v65h-250
v89h236v311z" />
</svg>
