<?xml version="1.0" standalone="no"?>
<!DOCTYPE svg PUBLIC "-//W3C//DTD SVG 1.1//EN" "http://www.w3.org/Graphics/SVG/1.1/DTD/svg11.dtd" >
<svg xmlns="http://www.w3.org/2000/svg" xmlns:xlink="http://www.w3.org/1999/xlink" version="1.1" viewBox="-10 0 1010 1000">
   <path fill="currentColor"
d="M309 106l62 15c-21 73 -47 166 -68 221l-47 -14c19 -59 42 -156 53 -222zM146 325l-54 13c-2 -58 -18 -145 -40 -212l50 -12c25 68 41 154 44 211zM352 647l-42 58c-13 -27 -44 -77 -71 -119v369h-62v-378c-31 92 -71 183 -111 240c-8 -19 -25 -50 -36 -67
c48 -67 102 -190 134 -295h-120v-70h133v-341h62v341h117v70h-117v48c28 33 97 121 113 144zM438 251v223c0 145 -13 349 -104 486c-11 -11 -40 -29 -55 -35c86 -131 94 -316 94 -451v-277h234v-154h64v56h224v49h-224v49h235l11 -3l44 11c-11 42 -27 93 -40 124l-54 -11
c6 -18 13 -42 19 -67h-220v50l171 -14l5 42l-176 15v22c0 21 5 24 45 24h139c27 0 32 -6 35 -46c13 9 36 15 54 18c-6 60 -24 76 -80 76h-154c-81 0 -102 -13 -102 -72v-16l-129 11l-5 -44l134 -11v-55h-165zM841 568v-54h-122v54h122zM841 669v-56h-122v56h122zM543 613v56
h119v-56h-119zM543 514v54h119v-54h-119zM901 466v250h-221c37 19 74 44 95 65l-36 43c-26 -28 -80 -64 -127 -86l20 -22h-148v-250h417zM461 947l-50 -32c38 -34 64 -94 75 -148l54 18c-14 59 -37 123 -79 162zM670 899h98c22 0 26 -6 29 -64c13 10 36 17 53 21
c-6 78 -24 96 -75 96h-112c-70 0 -87 -15 -87 -74v-109h60v109c0 18 5 21 34 21zM813 787l50 -25c44 49 89 116 104 162l-52 27c-17 -46 -60 -114 -102 -164z" />
</svg>
