<?xml version="1.0" standalone="no"?>
<!DOCTYPE svg PUBLIC "-//W3C//DTD SVG 1.1//EN" "http://www.w3.org/Graphics/SVG/1.1/DTD/svg11.dtd" >
<svg xmlns="http://www.w3.org/2000/svg" xmlns:xlink="http://www.w3.org/1999/xlink" version="1.1" viewBox="-10 0 1010 1000">
   <path fill="currentColor"
d="M94 610l64 12c-14 94 -38 190 -71 254c-12 -9 -42 -23 -58 -28c33 -61 54 -150 65 -238zM362 537l-86 5v416h-68v-412l-163 8l-6 -67c20 0 43 -1 66 -2c22 -26 45 -57 67 -89c-30 -45 -84 -102 -131 -144l38 -48c10 8 20 17 30 26c33 -56 68 -131 89 -186l66 25
c-34 67 -76 147 -114 201c24 24 45 48 61 69c41 -63 79 -128 107 -182l64 28c-58 94 -138 212 -207 298c50 -2 105 -5 160 -7c-15 -31 -32 -62 -49 -89l55 -24c42 64 85 149 99 203l-59 28c-4 -17 -10 -36 -19 -57zM434 798l-59 20c-9 -52 -37 -132 -64 -194l56 -18
c29 61 58 140 67 192zM803 449h-254c29 94 70 178 126 248c57 -68 100 -150 128 -248zM950 449h-68c-35 122 -88 221 -158 302c66 64 146 113 243 142c-17 15 -39 44 -51 64c-97 -34 -178 -86 -244 -153c-71 65 -156 115 -256 154c-10 -15 -37 -47 -52 -61
c105 -35 191 -83 260 -147c-65 -83 -113 -184 -147 -301h-73v-70h238v-135h-205v-66h205v-135h76v135h211v66h-211v135h232v70z" />
</svg>
