<?xml version="1.0" standalone="no"?>
<!DOCTYPE svg PUBLIC "-//W3C//DTD SVG 1.1//EN" "http://www.w3.org/Graphics/SVG/1.1/DTD/svg11.dtd" >
<svg xmlns="http://www.w3.org/2000/svg" xmlns:xlink="http://www.w3.org/1999/xlink" version="1.1" viewBox="-10 0 1010 1000">
   <path fill="currentColor"
d="M92 610l63 11c-14 94 -37 190 -69 254c-11 -9 -41 -22 -55 -27c31 -61 50 -151 61 -238zM344 530l-81 5v421h-66v-417l-157 10l-7 -67l69 -3c20 -25 41 -53 62 -83c-29 -45 -79 -102 -124 -145l40 -47c10 9 20 18 30 28c33 -57 68 -133 89 -188l65 24
c-34 69 -77 150 -115 206c21 22 39 44 54 64c41 -62 79 -127 107 -181l62 29c-57 91 -132 204 -200 289l146 -7c-14 -30 -29 -59 -45 -85l53 -21c39 61 77 143 91 194l-56 26c-4 -15 -10 -33 -17 -52zM453 521l63 11c-22 102 -60 201 -106 267c-12 -9 -39 -25 -55 -33
c7 -9 13 -18 19 -28l-36 12c-4 -39 -20 -98 -39 -142l52 -15c17 36 31 83 38 118c29 -55 50 -122 64 -190zM949 437h-158v438c0 37 -6 58 -31 69s-65 12 -123 12c-3 -18 -12 -47 -20 -66c46 1 83 1 96 0c12 0 15 -3 15 -15v-438h-94c-5 242 -26 417 -159 520
c-10 -16 -31 -41 -47 -52c122 -89 141 -247 145 -468h-174v-69h241v-132h-198v-67h198v-125h72v125h204v67h-204v132h237v69zM826 528l57 -17c42 85 77 195 87 269l-61 19c-10 -74 -43 -187 -83 -271z" />
</svg>
