<?xml version="1.0" standalone="no"?>
<!DOCTYPE svg PUBLIC "-//W3C//DTD SVG 1.1//EN" "http://www.w3.org/Graphics/SVG/1.1/DTD/svg11.dtd" >
<svg xmlns="http://www.w3.org/2000/svg" xmlns:xlink="http://www.w3.org/1999/xlink" version="1.1" viewBox="-10 0 1010 1000">
   <path fill="currentColor"
d="M558 500c0 32 -26 58 -58 58s-58 -26 -58 -58c0 -31 26 -58 58 -58s58 27 58 58zM806 500c0 169 -137 306 -306 306s-306 -137 -306 -306s137 -306 306 -306s306 137 306 306zM256 500c0 135 109 245 244 245c136 0 245 -110 245 -245s-109 -244 -245 -244
c-135 0 -244 109 -244 244z" />
</svg>
