<?xml version="1.0" standalone="no"?>
<!DOCTYPE svg PUBLIC "-//W3C//DTD SVG 1.1//EN" "http://www.w3.org/Graphics/SVG/1.1/DTD/svg11.dtd" >
<svg xmlns="http://www.w3.org/2000/svg" xmlns:xlink="http://www.w3.org/1999/xlink" version="1.1" viewBox="-10 0 1010 1000">
   <path fill="currentColor"
d="M913 606h-24c-13 0 -26 -3 -35 -13c-8 -8 -11 -21 -11 -59v-87h-112v23c0 49 -11 109 -64 151c-6 -10 -26 -29 -36 -35c45 -36 52 -80 52 -118v-67h209v136c0 13 0 22 1 24s4 3 7 3h9c4 0 7 0 8 -2c2 -2 5 -6 6 -12c2 -7 3 -21 3 -42c10 9 24 16 36 20c0 21 -3 46 -7 55
c-4 8 -10 15 -17 19c-7 3 -17 4 -25 4zM738 502l31 -27c26 17 57 44 71 62l-32 33c-15 -21 -45 -48 -70 -68zM809 302v-58h-394v-52h394v-57h-363v-52h427v109h72v52h-72v110h-431v-52h367zM642 525l2 49c-80 15 -159 30 -224 42l-14 -54c27 -4 59 -9 93 -14v-91h-83v-52
h230v52h-86v81zM398 607l-56 22c-1 -12 -5 -26 -9 -41c-217 35 -248 42 -266 51c-4 -14 -15 -47 -22 -64c20 -4 43 -30 72 -67c16 -19 48 -62 84 -117c-106 12 -127 17 -141 24c-3 -14 -14 -47 -21 -64c16 -4 33 -25 53 -55c22 -30 92 -144 131 -252l65 27
c-44 95 -99 193 -154 268l106 -10c27 -43 53 -91 76 -138l60 34c-65 119 -145 238 -225 332l165 -23c-12 -34 -26 -69 -39 -100l52 -18c30 62 59 142 69 191zM84 683l59 10c-10 86 -29 179 -51 240c-12 -6 -41 -16 -55 -20c22 -62 38 -150 47 -230zM186 690l54 -11
c13 66 25 153 28 210l-57 14c-2 -59 -14 -146 -25 -213zM289 670l51 -17c23 62 49 141 59 192l-54 19c-9 -53 -35 -133 -56 -194zM488 763l45 -37c44 35 94 85 116 121l-47 41c-22 -36 -70 -89 -114 -125zM826 609v56h131v58h-131v164c0 36 -6 52 -33 63
c-25 10 -65 10 -127 10c-2 -18 -12 -42 -20 -60c46 1 86 1 98 0c12 0 15 -3 15 -14v-163h-355v-58h355v-56h67z" />
</svg>
