<?xml version="1.0" standalone="no"?>
<!DOCTYPE svg PUBLIC "-//W3C//DTD SVG 1.1//EN" "http://www.w3.org/Graphics/SVG/1.1/DTD/svg11.dtd" >
<svg xmlns="http://www.w3.org/2000/svg" xmlns:xlink="http://www.w3.org/1999/xlink" version="1.1" viewBox="-10 0 1010 1000">
   <path fill="currentColor"
d="M473 247v97h-64v-157h100c-11 -31 -33 -74 -57 -106l60 -19c26 32 52 76 63 106l-51 19h121v-144h69v144h108l-44 -17c21 -31 47 -79 62 -112l68 21c-25 39 -50 79 -72 108h113v157h-66v-97h-410zM553 360v87h241v-87h-241zM859 501h-369v-195h369v195zM333 785v-240h53
v340h-53v-35h-253v-303h52v238h69v-309h-155v-64h155v-184h-60c-15 49 -34 93 -53 128c-11 -9 -39 -24 -55 -31c42 -72 72 -180 89 -283l62 11c-7 38 -15 76 -25 112h235v63h-129v184h144v64h-144v309h68zM956 698v56h-122v126c0 37 -7 55 -34 66c-25 11 -67 11 -129 11
c-4 -19 -13 -44 -23 -63c49 1 89 1 102 1c13 -1 16 -4 16 -15v-125c-73 83 -207 163 -327 200c-7 -18 -23 -42 -36 -57c99 -25 210 -80 283 -144h-231c9 -37 17 -88 23 -132l68 5c-4 23 -8 48 -13 71h233v-90h-338v-57h509v57h-103v90h122z" />
</svg>
