<?xml version="1.0" standalone="no"?>
<!DOCTYPE svg PUBLIC "-//W3C//DTD SVG 1.1//EN" "http://www.w3.org/Graphics/SVG/1.1/DTD/svg11.dtd" >
<svg xmlns="http://www.w3.org/2000/svg" xmlns:xlink="http://www.w3.org/1999/xlink" version="1.1" viewBox="-10 0 1010 1000">
   <path fill="currentColor"
d="M98 271h805v446h-78v-374h-209v194c0 17 1 25 6 29c7 3 15 4 26 4h48c13 0 27 -1 33 -3c7 -2 13 -7 16 -16c3 -10 4 -33 5 -63c14 12 37 22 55 28c-2 32 -6 66 -12 80c-7 13 -19 22 -34 27c-14 5 -39 7 -59 7h-67c-23 0 -51 -4 -66 -16c-17 -12 -24 -29 -24 -82v-189
h-117c-5 161 -59 250 -174 309c-11 -12 -39 -40 -55 -51c109 -45 152 -123 155 -258h-179v378h-75v-450z" />
</svg>
