<?xml version="1.0" standalone="no"?>
<!DOCTYPE svg PUBLIC "-//W3C//DTD SVG 1.1//EN" "http://www.w3.org/Graphics/SVG/1.1/DTD/svg11.dtd" >
<svg xmlns="http://www.w3.org/2000/svg" xmlns:xlink="http://www.w3.org/1999/xlink" version="1.1" viewBox="-10 0 1010 1000">
   <path fill="currentColor"
d="M491 286v58h-442v-58h112c-9 -29 -23 -65 -37 -93l60 -13c18 33 35 76 42 106h85c19 -33 39 -77 51 -107h-292v-57h165c-9 -24 -20 -48 -31 -69l62 -15c15 24 30 57 40 84h167v57h-108l61 18c-16 30 -33 62 -49 89h114zM142 632h100v-70h-100v70zM142 444v70h100v-70
h-100zM412 514v-70h-102v70h102zM412 632v-70h-102v70h102zM310 798v69c61 -4 124 -9 188 -14l-1 55c-152 15 -312 27 -426 37l-11 -60c50 -3 112 -8 182 -13v-74h-158v-57h158v-60h-158v-286h388v286h-162v60h158v57h-158zM704 90v767c0 39 -8 60 -32 72s-65 14 -123 13
c-3 -18 -12 -50 -22 -69c43 2 84 2 96 2c12 -1 16 -5 16 -18v-235c-39 40 -79 79 -116 113l-34 -54c38 -33 93 -85 150 -141v-386h-137v-64h202zM507 267l46 -14c28 63 58 144 68 192l-49 18c-10 -50 -39 -134 -65 -196zM924 90v770c0 40 -8 61 -32 73
c-25 12 -66 14 -126 14c-2 -20 -12 -50 -21 -69c43 2 85 1 97 1c13 -1 17 -4 17 -19v-251c-36 40 -74 80 -107 115l-36 -55c36 -35 89 -91 143 -150v-365h-130v-64h195zM842 443l-49 17c-12 -49 -42 -133 -66 -194l46 -11c25 61 57 143 69 188z" />
</svg>
