<?xml version="1.0" standalone="no"?>
<!DOCTYPE svg PUBLIC "-//W3C//DTD SVG 1.1//EN" "http://www.w3.org/Graphics/SVG/1.1/DTD/svg11.dtd" >
<svg xmlns="http://www.w3.org/2000/svg" xmlns:xlink="http://www.w3.org/1999/xlink" version="1.1" viewBox="-10 0 1010 1000">
   <path fill="currentColor"
d="M642 941h-284c-4 0 -11 -11 0 -21c50 -48 78 -92 89 -166c2 -16 3 -32 2 -32c0 0 -4 9 -12 20c-32 47 -92 75 -156 75c-120 0 -201 -103 -201 -220c0 -144 118 -248 191 -318c90 -85 191 -197 227 -255c1 -2 3 -2 4 0c36 58 137 170 227 255c73 70 191 174 191 318
c0 117 -81 220 -201 220c-64 0 -124 -28 -156 -75c-8 -11 -12 -20 -12 -20c-1 0 0 16 2 32c11 74 39 118 89 166c12 10 4 21 0 21zM429 904h142c4 0 -2 -7 -10 -18c-25 -37 -46 -85 -46 -163c0 -31 6 -58 24 -58c15 0 22 15 41 40c33 46 78 75 139 75
c100 0 163 -84 163 -184c0 -128 -111 -226 -177 -288c-81 -78 -169 -172 -203 -223c-1 -2 -3 -2 -4 0c-33 51 -123 145 -203 223c-66 62 -178 160 -178 288c0 100 64 184 164 184c61 0 106 -29 139 -75c19 -25 26 -40 41 -40c18 0 24 27 24 58c0 78 -21 126 -46 163
c-8 11 -14 18 -10 18z" />
</svg>
