<?xml version="1.0" standalone="no"?>
<!DOCTYPE svg PUBLIC "-//W3C//DTD SVG 1.1//EN" "http://www.w3.org/Graphics/SVG/1.1/DTD/svg11.dtd" >
<svg xmlns="http://www.w3.org/2000/svg" xmlns:xlink="http://www.w3.org/1999/xlink" version="1.1" viewBox="-10 0 1010 1000">
   <path fill="currentColor"
d="M832 172h-160c-26 138 -94 267 -227 331c-10 -16 -31 -42 -45 -53c117 -55 176 -163 197 -278h-161v-64h473s-1 20 -2 31c-14 206 -28 285 -55 316c-18 18 -36 25 -64 26c-25 3 -72 2 -121 0c-1 -21 -9 -49 -20 -68c47 6 92 6 109 6s26 -2 34 -11c18 -17 30 -80 42 -236z
M166 562h128v-170h-126v53c0 36 -1 76 -2 117zM294 159h-126v165h126v-165zM361 91v779c0 38 -8 60 -32 72c-24 11 -61 13 -125 13c-2 -18 -12 -50 -21 -68c44 1 82 1 95 0c11 0 16 -4 16 -18v-238h-132c-8 115 -27 236 -69 328c-12 -11 -41 -26 -58 -32
c63 -140 68 -337 68 -482v-354h258zM646 533v28c-9 252 -17 338 -38 366c-13 17 -27 23 -48 25c-17 2 -43 2 -70 0c-1 -16 -7 -41 -15 -56c26 1 49 1 59 1c11 1 17 -1 24 -10c13 -18 20 -90 27 -290h-67c-10 125 -38 278 -122 360c-9 -11 -29 -30 -42 -38
c76 -75 97 -211 103 -322h-67v-64h256zM670 533h266s0 20 -1 28c-10 252 -19 339 -43 369c-13 16 -26 23 -49 25c-17 2 -45 2 -74 1c0 -18 -6 -44 -15 -60c27 2 50 2 62 2c11 1 17 -1 24 -10c15 -19 24 -93 33 -291h-76c-11 126 -43 277 -130 360c-11 -11 -31 -30 -45 -38
c82 -75 108 -211 115 -322h-67v-64z" />
</svg>
