<?xml version="1.0" standalone="no"?>
<!DOCTYPE svg PUBLIC "-//W3C//DTD SVG 1.1//EN" "http://www.w3.org/Graphics/SVG/1.1/DTD/svg11.dtd" >
<svg xmlns="http://www.w3.org/2000/svg" xmlns:xlink="http://www.w3.org/1999/xlink" version="1.1" viewBox="-10 0 1010 1000">
   <path fill="currentColor"
d="M369 80v787c0 39 -9 59 -32 70c-26 12 -64 13 -130 13c-3 -18 -13 -47 -20 -65c46 2 88 2 100 1c13 0 18 -5 18 -19v-293l-111 85l-30 -63c37 -20 88 -51 141 -85v-108l-43 29c-19 -34 -60 -87 -93 -125l45 -27c32 34 70 79 91 112v-244h-138v286c0 153 -11 373 -81 525
c-10 -14 -37 -38 -51 -44c63 -141 68 -337 68 -481v-354h266zM716 319v-136h-77v136h77zM858 665v-278h-86v258c0 18 2 20 20 20h59h7zM494 827h364v-105h-73c-55 0 -70 -15 -70 -77v-258h-77v72c0 92 -17 222 -93 311c-10 -10 -34 -26 -48 -32c72 -85 85 -197 85 -281v-70
h-88v440zM942 183h-161v136h144v629h-67v-52h-364v58h-64v-635h144v-136h-165v-68h533v68z" />
</svg>
