<?xml version="1.0" standalone="no"?>
<!DOCTYPE svg PUBLIC "-//W3C//DTD SVG 1.1//EN" "http://www.w3.org/Graphics/SVG/1.1/DTD/svg11.dtd" >
<svg xmlns="http://www.w3.org/2000/svg" xmlns:xlink="http://www.w3.org/1999/xlink" version="1.1" viewBox="-10 0 1010 1000">
   <path fill="currentColor"
d="M232 890c-119 0 -189 -49 -189 -130c0 -30 11 -64 32 -103l80 -136l-65 -36l138 -37l37 138l-64 -38l-82 141c-12 22 -18 44 -18 63c0 54 44 83 119 83h281v55h-269zM267 431l-47 -27l134 -231c44 -77 92 -116 146 -116c48 0 95 30 133 96l78 136l64 -37l-37 138
l-139 -37l65 -38l-81 -141c-23 -39 -54 -58 -83 -58c-32 0 -66 26 -93 73zM634 964l-101 -102l101 -102v76h163c63 0 101 -33 101 -75c0 -30 -8 -57 -25 -85l-140 -242l47 -28l133 232c25 44 41 84 41 126c0 72 -54 126 -163 126h-157v74zM483 701c-52 0 -88 -24 -112 -57
l33 -26c19 27 42 43 76 43c35 0 61 -26 61 -64c0 -39 -26 -64 -62 -64c-24 0 -40 10 -56 23l-24 -16l15 -144h162v44h-122l-8 70c14 -6 31 -10 47 -10c54 0 96 35 96 99c0 61 -44 102 -106 102z" />
</svg>
