<?xml version="1.0" standalone="no"?>
<!DOCTYPE svg PUBLIC "-//W3C//DTD SVG 1.1//EN" "http://www.w3.org/Graphics/SVG/1.1/DTD/svg11.dtd" >
<svg xmlns="http://www.w3.org/2000/svg" xmlns:xlink="http://www.w3.org/1999/xlink" version="1.1" viewBox="-10 0 1010 1000">
   <path fill="currentColor"
d="M407 189l-140 242l-47 -27l134 -231c44 -77 92 -116 146 -116c48 0 95 30 133 96l78 136l64 -37l-37 138l-139 -37l65 -38l-81 -141c-23 -39 -54 -58 -83 -58c-32 0 -66 26 -93 73zM495 542c-23 0 -43 9 -65 33c4 57 31 86 68 86c30 0 53 -23 53 -60
c0 -34 -20 -59 -56 -59zM584 410l-20 35c-14 -11 -29 -19 -50 -19c-45 0 -79 35 -84 110c21 -20 46 -29 74 -29c59 0 93 38 93 93c0 57 -44 101 -99 101c-71 0 -115 -56 -115 -149c0 -111 56 -165 129 -165c34 0 55 11 72 23zM201 548l-82 141c-12 22 -18 44 -18 63
c0 54 44 83 119 83h281v55h-269c-119 0 -189 -49 -189 -130c0 -30 11 -64 32 -103l80 -136l-65 -36l138 -37l37 138zM780 406l133 232c25 44 41 84 41 126c0 72 -54 126 -163 126h-157v74l-101 -102l101 -102v76h163c63 0 101 -33 101 -75c0 -30 -8 -57 -25 -85l-140 -242z
" />
</svg>
