<?xml version="1.0" standalone="no"?>
<!DOCTYPE svg PUBLIC "-//W3C//DTD SVG 1.1//EN" "http://www.w3.org/Graphics/SVG/1.1/DTD/svg11.dtd" >
<svg xmlns="http://www.w3.org/2000/svg" xmlns:xlink="http://www.w3.org/1999/xlink" version="1.1" viewBox="-10 0 1010 1000">
   <path fill="currentColor"
d="M790 569l53 16c-13 53 -35 108 -55 150l75 -11c-9 -28 -20 -56 -31 -81l42 -13c25 53 49 122 60 162l-45 18c-3 -13 -7 -28 -12 -44c-107 20 -127 26 -139 33c-3 -12 -11 -38 -17 -51c9 -3 17 -14 25 -31c8 -18 35 -86 44 -148zM368 80v787c0 39 -9 59 -33 70
c-25 12 -64 13 -130 13c-3 -18 -12 -47 -20 -65c46 2 88 2 100 1c14 0 19 -5 19 -19v-292l-110 84l-30 -63c37 -20 87 -51 140 -84v-109l-42 29c-19 -35 -60 -87 -93 -125l45 -27c32 34 68 78 90 111v-243h-137v286c0 152 -11 373 -81 525c-10 -14 -37 -38 -51 -44
c63 -142 68 -338 68 -481v-354h265zM488 377v114h137v-114h-137zM488 206v113h137v-113h-137zM826 319v-113h-135v113h135zM826 491v-114h-135v114h135zM749 882h120c26 0 31 -10 34 -76c14 9 38 18 55 23c-7 85 -25 109 -83 109h-132c-76 0 -95 -18 -95 -85v-301h-43v71
c0 100 -26 237 -184 334c-9 -16 -28 -40 -43 -52c143 -84 164 -198 164 -283v-70h-122v-408h161c15 -33 31 -73 39 -102l79 10c-15 32 -31 65 -46 92h242v408h-186v300c0 26 6 30 40 30z" />
</svg>
