<?xml version="1.0" standalone="no"?>
<!DOCTYPE svg PUBLIC "-//W3C//DTD SVG 1.1//EN" "http://www.w3.org/Graphics/SVG/1.1/DTD/svg11.dtd" >
<svg xmlns="http://www.w3.org/2000/svg" xmlns:xlink="http://www.w3.org/1999/xlink" version="1.1" viewBox="-10 0 1010 1000">
   <path fill="currentColor"
d="M167 315v118c0 49 -1 103 -5 160c33 -19 78 -49 125 -79v-110l-32 24c-19 -31 -56 -78 -88 -113zM287 148h-120v155l36 -24c28 29 63 67 84 96v-227zM351 80v788c0 39 -8 59 -32 71c-24 11 -61 13 -125 13c-2 -19 -11 -49 -20 -67c45 2 84 1 95 1c13 0 18 -5 18 -19v-289
c-34 26 -68 53 -100 78l-26 -51c-8 122 -28 253 -75 354c-10 -14 -37 -38 -51 -44c63 -141 68 -337 68 -482v-353h248zM509 702h123v-97h-123v97zM710 225h-69c-31 67 -70 127 -116 179h107v-88h67v88h117c-45 -54 -82 -115 -106 -179zM699 463v88h121v-88h-121zM509 463v88
h123v-88h-123zM699 702h121v-97h-121v97zM738 885h140c21 0 52 -2 69 -5c2 18 5 45 7 59c-14 5 -44 6 -74 6h-142c-81 0 -106 -30 -106 -119v-65h-123v43h-65v-324c-15 11 -30 22 -46 33c-7 -16 -25 -47 -36 -62c41 -25 79 -56 112 -91c-23 -27 -58 -65 -87 -91l48 -29
c25 22 54 51 77 75c21 -28 40 -58 57 -90h-178v-64h207c14 -37 27 -76 37 -119l66 12c-10 37 -21 73 -34 107h276v64h-174c15 32 33 64 54 92c26 -23 55 -54 73 -74l43 46c-26 25 -57 50 -83 70c34 37 71 70 110 93c-12 15 -25 42 -31 61c-18 -12 -35 -26 -52 -40v288h-184
v67c0 42 9 57 39 57z" />
</svg>
