<?xml version="1.0" standalone="no"?>
<!DOCTYPE svg PUBLIC "-//W3C//DTD SVG 1.1//EN" "http://www.w3.org/Graphics/SVG/1.1/DTD/svg11.dtd" >
<svg xmlns="http://www.w3.org/2000/svg" xmlns:xlink="http://www.w3.org/1999/xlink" version="1.1" viewBox="-10 0 1010 1000">
   <path fill="currentColor"
d="M167 311v122c0 48 -1 104 -5 161c37 -19 85 -50 136 -82v-114l-40 29c-19 -31 -58 -80 -91 -116zM298 148h-131v156l39 -25c33 33 71 77 92 108v-239zM362 80v788c0 39 -8 59 -32 71c-24 11 -61 13 -125 13c-3 -19 -12 -48 -20 -67c45 2 84 1 95 1c13 0 18 -5 18 -19
v-292c-37 28 -74 56 -109 82l-27 -56c-9 123 -28 256 -76 358c-10 -14 -37 -38 -51 -44c63 -141 68 -337 68 -482v-353h259zM817 620h-294v81h294v-81zM523 844h294v-87h-294v87zM457 957v-396h428v388h-68v-48h-294v56h-66zM626 231v203h86v-203h-86zM775 434h178v62h-555
v-62h164v-203h-147v-62h143c-15 -30 -39 -70 -64 -100l55 -24c28 32 58 76 71 106l-34 18h137c22 -36 50 -87 65 -123l64 25c-21 33 -44 69 -64 98h138v62h-151v203zM410 279l48 -26c32 38 68 88 82 121l-51 31c-14 -34 -48 -88 -79 -126zM830 404l-45 -26
c26 -34 63 -90 82 -127l57 28c-30 44 -65 92 -94 125z" />
</svg>
