<?xml version="1.0" standalone="no"?>
<!DOCTYPE svg PUBLIC "-//W3C//DTD SVG 1.1//EN" "http://www.w3.org/Graphics/SVG/1.1/DTD/svg11.dtd" >
<svg xmlns="http://www.w3.org/2000/svg" xmlns:xlink="http://www.w3.org/1999/xlink" version="1.1" viewBox="-10 0 1010 1000">
   <path fill="currentColor"
d="M761 282l-40 -15c18 -32 40 -82 51 -114l48 17c-21 41 -42 83 -59 112zM511 173l40 -14c21 31 42 75 50 105l-41 16c-8 -29 -29 -74 -49 -107zM482 135v161h156v-161h-156zM853 296v-161h-161v161h161zM944 498v56h-544v-56h234v-53h-208v-54h208v-45h-211v-261h491v261
h-217v45h212v54h-212v53h247zM808 582l51 -22c35 36 77 89 94 123l-52 27c-17 -34 -58 -89 -93 -128zM792 675l-54 20c-11 -30 -35 -76 -59 -111l51 -16c25 32 50 77 62 107zM463 567l55 12c-15 48 -44 102 -85 134l-49 -32c35 -24 65 -68 79 -114zM167 315v118
c0 48 -1 103 -5 160c34 -18 78 -46 124 -75v-121l-36 26c-18 -29 -53 -74 -83 -108zM286 148h-119v154l35 -23c29 31 63 70 84 99v-230zM350 80v788c0 39 -9 59 -32 71c-25 11 -61 13 -125 13c-3 -19 -11 -48 -20 -67c44 2 83 1 95 1c13 0 18 -5 18 -19v-288
c-34 27 -67 52 -99 78l-26 -50c-8 120 -28 251 -75 352c-10 -14 -37 -38 -51 -44c63 -142 68 -338 68 -482v-353h247zM706 871h251v59h-579v-59h258v-78h-202v-56h202v-56l-44 11c-4 -31 -18 -77 -32 -110l52 -12c15 32 30 75 35 104h59v63h197v56h-197v78z" />
</svg>
