<?xml version="1.0" standalone="no"?>
<!DOCTYPE svg PUBLIC "-//W3C//DTD SVG 1.1//EN" "http://www.w3.org/Graphics/SVG/1.1/DTD/svg11.dtd" >
<svg xmlns="http://www.w3.org/2000/svg" xmlns:xlink="http://www.w3.org/1999/xlink" version="1.1" viewBox="-10 0 1010 1000">
   <path fill="currentColor"
d="M385 244v-63h-228v63h228zM385 356v-65h-228v65h228zM385 469v-66h-228v66h228zM450 128v394h-357v-394h135c14 -30 29 -70 38 -97l78 16c-14 29 -30 57 -43 81h149zM428 619l-47 19h111v62h-200c62 58 135 132 171 180l-47 45c-32 -46 -96 -115 -154 -172
c-26 69 -79 141 -185 201c-9 -17 -28 -41 -42 -54c110 -61 155 -133 174 -200h-161v-62h172c2 -16 2 -31 2 -45v-52h66v54c0 14 0 28 -1 43h88c-8 -24 -27 -60 -44 -87l49 -18c19 26 39 63 48 86zM622 792h145c20 0 53 -1 69 -4c1 16 3 35 5 50c-13 4 -42 4 -71 4h-154
c-66 0 -81 -23 -81 -84v-138h60v139c0 25 4 33 27 33zM715 564l53 7c-5 25 -12 48 -22 70c35 28 75 63 97 86l-36 40c-19 -22 -51 -53 -84 -81c-20 35 -47 64 -78 87c-7 -10 -25 -30 -37 -40c57 -38 92 -97 107 -169zM583 275v82h261v-82h-261zM583 140v81h261v-81h-261z
M625 488h325s0 22 -1 31c-11 278 -22 371 -46 402c-14 19 -31 26 -55 28c-20 2 -56 2 -90 0c-1 -17 -8 -41 -17 -57c35 3 66 4 79 4s21 -2 28 -12c16 -21 27 -106 36 -336h-300c-24 31 -53 61 -88 87c-7 -14 -25 -40 -38 -50c65 -49 110 -115 133 -171h-73v-331h395v331
h-309l53 9c-9 21 -20 44 -32 65z" />
</svg>
