<?xml version="1.0" standalone="no"?>
<!DOCTYPE svg PUBLIC "-//W3C//DTD SVG 1.1//EN" "http://www.w3.org/Graphics/SVG/1.1/DTD/svg11.dtd" >
<svg xmlns="http://www.w3.org/2000/svg" xmlns:xlink="http://www.w3.org/1999/xlink" version="1.1" viewBox="-10 0 1010 1000">
   <path fill="currentColor"
d="M614 175l-38 37c-17 -15 -41 -34 -70 -51c-29 23 -62 44 -92 60c-8 -10 -29 -27 -42 -36c30 -14 62 -32 89 -51c-23 -14 -48 -26 -70 -36l36 -33c23 11 50 24 75 38c18 -16 34 -33 46 -49l52 14c-15 21 -34 40 -55 60c28 17 51 33 69 47zM320 636v23
c31 25 109 96 127 115l-39 50c-16 -22 -55 -66 -88 -102v232h-63v-235c-38 66 -85 128 -129 166c-10 -16 -29 -38 -43 -50c57 -42 120 -122 160 -199h-130v-59h142v-81h63v81h118v59h-118zM549 503l59 16c-33 87 -87 171 -143 226c-9 -13 -32 -36 -46 -47
c55 -47 104 -120 130 -195zM712 757l50 -24c45 63 101 146 128 196l-53 28c-9 -19 -22 -42 -37 -67c-265 31 -297 36 -318 46c-3 -14 -13 -46 -20 -63c15 -3 30 -19 49 -44c19 -22 83 -112 120 -201l59 32c-39 72 -86 145 -134 203l212 -23c-18 -29 -38 -58 -56 -83z
M631 499h126c32 80 96 155 157 194c-13 13 -31 37 -40 55c-59 -45 -117 -118 -155 -193h-88v-56zM616 351l-39 37c-17 -18 -43 -37 -73 -58c-32 26 -66 47 -98 65c-8 -10 -29 -29 -41 -38c32 -15 64 -34 95 -55c-25 -15 -49 -28 -73 -39l37 -33c25 12 51 26 77 41
c19 -17 36 -35 50 -52l52 15c-17 22 -37 42 -59 63c29 19 55 37 72 54zM847 395h78v160h-73v-99h-703v99h-71v-160h80l-20 -295c58 -9 144 -33 194 -48l33 45c-44 16 -103 29 -155 38l4 50h145v51h-142l4 54h142v50h-139l4 55h548c2 -17 4 -35 6 -55h-145v-50h149l5 -54
h-148v-51h151l3 -53h-159v-51h231c-5 99 -14 226 -22 314z" />
</svg>
