<?xml version="1.0" standalone="no"?>
<!DOCTYPE svg PUBLIC "-//W3C//DTD SVG 1.1//EN" "http://www.w3.org/Graphics/SVG/1.1/DTD/svg11.dtd" >
<svg xmlns="http://www.w3.org/2000/svg" xmlns:xlink="http://www.w3.org/1999/xlink" version="1.1" viewBox="-10 0 1010 1000">
   <path fill="currentColor"
d="M748 715v-544c-46 10 -92 19 -136 27c-4 -15 -14 -38 -23 -53c105 -19 227 -49 290 -85l56 48c-35 18 -78 33 -125 46v231h126v63h-126v267h65c21 0 50 -1 68 -5c2 17 5 48 8 62c-15 4 -46 5 -77 5h-158c-78 0 -101 -24 -101 -107v-351h57v353c0 33 7 43 35 43h41z
M361 562v346c35 -33 65 -79 89 -137c-26 -58 -46 -135 -61 -236l54 -15c9 67 21 122 36 167c20 -70 34 -151 42 -243h-73l-12 35l-60 -12c35 -96 76 -225 103 -316h-103v-52c-37 15 -80 28 -126 40v180h135v65h-135v178h111zM137 818h159v-191h-159v191zM547 383l36 6
c-9 156 -31 280 -67 377c51 83 125 105 224 105c29 0 193 0 229 -2c-10 17 -21 49 -24 68h-208c-111 0 -192 -23 -251 -102c-25 50 -55 92 -90 125c-9 -13 -22 -30 -35 -42v4h-65v-40h-159v63h-61v-383h109v-178h-141v-65h141v-165c-41 9 -81 16 -120 22
c-3 -15 -13 -39 -22 -54c101 -17 219 -47 285 -77l48 51v-7h127l11 -4l45 10c-23 80 -57 189 -91 290h68z" />
</svg>
