<?xml version="1.0" standalone="no"?>
<!DOCTYPE svg PUBLIC "-//W3C//DTD SVG 1.1//EN" "http://www.w3.org/Graphics/SVG/1.1/DTD/svg11.dtd" >
<svg xmlns="http://www.w3.org/2000/svg" xmlns:xlink="http://www.w3.org/1999/xlink" version="1.1" viewBox="-10 0 1010 1000">
   <path fill="currentColor"
d="M637 321v-104h-107v-72h107v-101h73v101h230v72h-230v104h-73zM288 321v-104h-228v-72h228v-101h73v101h108v72h-108v104h-73zM712 525h-189v138h189v-138zM785 729h-334v-204h-174v325h612v67h-688v-392h-140v-67h140v-113h76v113h174v-109h72v109h189v-109h73v109h159
v67h-159v204z" />
</svg>
