<?xml version="1.0" standalone="no"?>
<!DOCTYPE svg PUBLIC "-//W3C//DTD SVG 1.1//EN" "http://www.w3.org/Graphics/SVG/1.1/DTD/svg11.dtd" >
<svg xmlns="http://www.w3.org/2000/svg" xmlns:xlink="http://www.w3.org/1999/xlink" version="1.1" viewBox="-10 0 1010 1000">
   <path fill="currentColor"
d="M835 170c43 43 76 93 100 149c24 58 37 119 37 182c0 64 -13 125 -37 183c-24 55 -57 105 -100 148s-93 77 -149 101c-58 24 -119 36 -182 36c-64 0 -125 -12 -183 -36c-55 -24 -105 -58 -148 -101s-77 -93 -101 -148c-24 -58 -37 -119 -37 -183c0 -63 13 -124 37 -182
c24 -56 58 -106 101 -149s93 -76 148 -100c58 -24 119 -37 183 -37c63 0 124 13 182 37c56 24 106 57 149 100zM333 98c-52 22 -99 53 -139 94c-11 10 -20 21 -29 32l16 162l148 50l162 -118v-161l-145 -64c-4 1 -9 3 -13 5zM844 225c-10 -11 -20 -23 -31 -33
c-40 -41 -87 -72 -139 -94c-4 -2 -7 -3 -11 -5l-147 65v160l163 118l148 -51zM171 408l-105 117c3 51 14 100 34 147c10 23 21 45 35 66l158 34l90 -121l-61 -191zM871 740c14 -22 26 -44 36 -68c20 -46 31 -95 34 -145l-106 -118l-148 51v-1l-63 191l91 123zM312 788
l79 137c36 10 74 14 113 14c37 0 75 -4 111 -14l79 -138l-90 -122h-200z" />
</svg>
