<?xml version="1.0" standalone="no"?>
<!DOCTYPE svg PUBLIC "-//W3C//DTD SVG 1.1//EN" "http://www.w3.org/Graphics/SVG/1.1/DTD/svg11.dtd" >
<svg xmlns="http://www.w3.org/2000/svg" xmlns:xlink="http://www.w3.org/1999/xlink" version="1.1" viewBox="-10 0 1010 1000">
   <path fill="currentColor"
d="M635 270v-75h-105v-64h105v-87h73v87h233v64h-233v75h-73zM646 678v-377h72v377h-72zM537 388l67 13c-21 100 -56 201 -98 267c-13 -9 -42 -28 -58 -37c42 -62 72 -153 89 -243zM290 271v-75h-229v-66h229v-86h73v86h106v66h-106v75h-73zM340 481l-120 8
c-14 49 -30 96 -45 136c35 23 72 46 107 71c41 -74 54 -148 58 -215zM448 825l-39 57c-27 -26 -65 -59 -109 -92c-42 53 -100 103 -180 148c-9 -16 -31 -38 -46 -49c78 -42 133 -90 172 -140c-50 -35 -103 -72 -150 -100c18 -42 37 -97 55 -156l-80 5l-8 -67l107 -5
c15 -54 28 -108 37 -156l67 5c-8 47 -21 98 -35 148l102 -5v-80h66v78l62 -4l-1 62l-62 4c-4 80 -19 170 -69 257c44 32 84 64 111 90zM950 610l-66 24c-2 -5 -3 -11 -5 -16c-66 175 -205 279 -425 333c-7 -20 -23 -46 -39 -62c207 -44 339 -137 399 -295l62 18
c-22 -63 -67 -148 -110 -212l60 -21c50 71 103 169 124 231z" />
</svg>
