<?xml version="1.0" standalone="no"?>
<!DOCTYPE svg PUBLIC "-//W3C//DTD SVG 1.1//EN" "http://www.w3.org/Graphics/SVG/1.1/DTD/svg11.dtd" >
<svg xmlns="http://www.w3.org/2000/svg" xmlns:xlink="http://www.w3.org/1999/xlink" version="1.1" viewBox="-10 0 1010 1000">
   <path fill="currentColor"
d="M286 259v-84h-225v-64h225v-67h72v67h112v64h-112v84h-72zM644 352h-229c-47 36 -93 67 -139 96l407 -13c-26 -20 -53 -42 -77 -60zM482 206l77 23c-24 22 -48 44 -72 64h418v59h-232c69 50 153 117 195 164l-57 38l-5 -6v328c0 38 -9 53 -38 63c-30 10 -80 10 -158 10
c-4 -17 -13 -39 -22 -56c57 2 112 2 126 2c16 -1 21 -5 21 -19v-86c-159 37 -327 76 -450 103l-19 -65c96 -15 240 -43 388 -71c-99 -28 -250 -65 -367 -88l22 -45c131 23 307 62 401 91l-13 33l38 -7v-139h-464v107c0 80 -14 181 -85 250c-10 -16 -38 -46 -53 -56
c58 -57 65 -131 65 -196v-160h607c-17 -18 -37 -38 -62 -60c-497 19 -546 22 -577 31c-3 -13 -14 -48 -22 -66c24 -3 50 -19 86 -41c16 -10 47 -31 85 -59h-218v-59h290c33 -27 66 -57 95 -87zM716 111h226v63h-226v90h-72v-90h-114v-63h114v-67h72v67z" />
</svg>
