<?xml version="1.0" standalone="no"?>
<!DOCTYPE svg PUBLIC "-//W3C//DTD SVG 1.1//EN" "http://www.w3.org/Graphics/SVG/1.1/DTD/svg11.dtd" >
<svg xmlns="http://www.w3.org/2000/svg" xmlns:xlink="http://www.w3.org/1999/xlink" version="1.1" viewBox="-10 0 1010 1000">
   <path fill="currentColor"
d="M643 272v-74h-114v-65h114v-90h73v90h224v65h-224v74h-73zM283 269v-71h-223v-66h223v-89h73v89h113v66h-113v71h-73zM142 651h264s-1 20 -2 31c-17 152 -34 216 -61 241c-17 17 -34 22 -60 24c-21 1 -62 1 -104 -1c-1 -20 -8 -45 -19 -62c41 4 80 5 95 5
c16 0 24 -2 32 -9c17 -15 31 -61 44 -167h-266c14 -64 30 -162 39 -239h226v-101h-239v-64h303v228h-234c-6 38 -12 79 -18 114zM959 928l-60 29c-7 -19 -16 -41 -29 -65c-343 24 -383 27 -409 37c-3 -13 -14 -48 -23 -66c25 -4 53 -26 91 -58c25 -20 82 -70 144 -136
c-164 13 -192 17 -208 24c-4 -14 -14 -47 -22 -63c16 -3 33 -18 53 -38c22 -20 88 -93 133 -167h-198v-62h217c-10 -24 -24 -50 -35 -72l69 -18c16 26 35 62 47 90h207v62h-293l56 18c-43 63 -95 125 -145 174l175 -9c24 -29 49 -57 70 -87l63 37c-92 111 -195 214 -295 293
l271 -16c-15 -24 -32 -48 -48 -68l57 -26c45 58 93 135 112 187z" />
</svg>
