<?xml version="1.0" standalone="no"?>
<!DOCTYPE svg PUBLIC "-//W3C//DTD SVG 1.1//EN" "http://www.w3.org/Graphics/SVG/1.1/DTD/svg11.dtd" >
<svg xmlns="http://www.w3.org/2000/svg" xmlns:xlink="http://www.w3.org/1999/xlink" version="1.1" viewBox="-10 0 1010 1000">
   <path fill="currentColor"
d="M285 269v-70h-225v-66h225v-90h73v90h111v66h-111v70h-73zM443 385v69h-366v-69h158c-11 -32 -25 -71 -39 -101l61 -19c18 38 36 85 47 120h139zM222 785l-58 15c-7 -78 -30 -199 -55 -289l55 -14c27 91 50 209 58 288zM333 792l138 -34l7 66c-137 37 -282 74 -387 101
l-16 -72c54 -12 122 -28 197 -46c23 -86 47 -221 58 -314l67 14c-18 90 -41 202 -64 285zM612 365h302s0 26 -1 36c-15 346 -27 467 -61 507c-20 24 -41 32 -72 35c-29 2 -79 2 -128 -1c-1 -21 -10 -51 -23 -71c53 5 102 6 121 6c18 0 29 -3 39 -14c25 -26 39 -140 51 -433
h-257c-27 57 -60 108 -95 148c-14 -11 -44 -33 -62 -41c66 -66 116 -168 144 -274l71 16c-9 29 -19 58 -29 86zM728 720l-65 29c-20 -52 -69 -130 -114 -187l62 -24c47 55 95 132 117 182zM714 133h226v66h-226v73h-73v-73h-112v-66h112v-90h73v90z" />
</svg>
