<?xml version="1.0" standalone="no"?>
<!DOCTYPE svg PUBLIC "-//W3C//DTD SVG 1.1//EN" "http://www.w3.org/Graphics/SVG/1.1/DTD/svg11.dtd" >
<svg xmlns="http://www.w3.org/2000/svg" xmlns:xlink="http://www.w3.org/1999/xlink" version="1.1" viewBox="-10 0 1010 1000">
   <path fill="currentColor"
d="M760 719l62 30c-122 116 -349 179 -602 209c-6 -17 -20 -43 -33 -59c240 -23 464 -80 573 -180zM640 625l58 30c-102 81 -273 141 -428 174c-9 -16 -25 -39 -40 -54c149 -27 319 -82 410 -150zM528 532l57 27c-78 63 -205 115 -311 145c-11 -14 -28 -33 -44 -45
c103 -26 230 -75 298 -127zM379 199l77 21c-22 34 -48 69 -72 99c91 -1 189 -2 288 -3c-31 -20 -63 -39 -93 -55l51 -36v-53h-265v55c5 -10 10 -19 14 -28zM943 516h-245c69 57 173 105 268 129c-15 13 -36 40 -46 56c-112 -33 -234 -104 -307 -185h-233
c-80 86 -183 150 -293 195c-10 -13 -35 -41 -51 -54c94 -33 181 -80 251 -141h-229v-60h287c20 -24 38 -49 52 -76c-106 2 -204 4 -282 5l-5 -64c55 0 122 0 196 -1c18 -25 36 -53 52 -80h-66v-68h-227v-60h227v-68h73v68h265v-68h72v68h236v60h-236v68h-39
c80 42 168 101 216 147l-57 43c-17 -17 -41 -37 -68 -58c-96 3 -193 5 -287 7l8 2c-13 26 -29 51 -46 75h514v60z" />
</svg>
