<?xml version="1.0" standalone="no"?>
<!DOCTYPE svg PUBLIC "-//W3C//DTD SVG 1.1//EN" "http://www.w3.org/Graphics/SVG/1.1/DTD/svg11.dtd" >
<svg xmlns="http://www.w3.org/2000/svg" xmlns:xlink="http://www.w3.org/1999/xlink" version="1.1" viewBox="-10 0 1010 1000">
   <path fill="currentColor"
d="M641 269v-70h-112v-66h112v-90h73v90h226v66h-226v72h-63l17 3c-8 40 -17 77 -29 113h244l12 -3l47 15c-18 68 -46 148 -71 197l-58 -19c16 -32 32 -79 45 -124h-242c-26 60 -55 115 -89 157c-14 -10 -44 -30 -61 -38c66 -74 110 -189 133 -309zM285 269v-70h-225v-66
h225v-90h73v90h111v66h-111v70h-73zM470 546h-90v409h-70v-409h-131v13c0 115 -13 280 -85 391c-9 -15 -36 -40 -50 -49c61 -101 68 -239 68 -343v-220h1c106 -12 230 -34 296 -62l58 53c-76 30 -187 48 -288 61v90h291v66zM731 509v50c0 24 -1 51 -5 78
c46 133 116 204 228 263c-16 13 -34 35 -43 55c-97 -55 -162 -121 -211 -220c-30 77 -91 155 -210 219c-8 -17 -28 -41 -43 -54c198 -102 216 -245 216 -343v-48h68z" />
</svg>
