<?xml version="1.0" standalone="no"?>
<!DOCTYPE svg PUBLIC "-//W3C//DTD SVG 1.1//EN" "http://www.w3.org/Graphics/SVG/1.1/DTD/svg11.dtd" >
<svg xmlns="http://www.w3.org/2000/svg" xmlns:xlink="http://www.w3.org/1999/xlink" version="1.1" viewBox="-10 0 1010 1000">
   <path fill="currentColor"
d="M641 272v-73h-112v-66h112v-90h74v90h226v66h-226v73h-74zM285 269v-70h-225v-66h225v-90h73v90h111v66h-111v70h-73zM313 482l-115 7c-11 47 -23 91 -36 130c34 20 70 42 105 65c31 -70 42 -139 46 -202zM422 798l-39 60c-24 -22 -57 -49 -95 -77
c-38 57 -92 112 -167 160c-10 -15 -31 -37 -47 -48c72 -46 123 -97 160 -150c-50 -34 -102 -67 -149 -94c15 -43 32 -98 47 -155l-73 4l-8 -67l97 -4c13 -55 24 -109 31 -157l65 4c-7 47 -17 98 -29 150l99 -6v-80h65v78l55 -3l-1 62l-55 4c-3 75 -16 159 -55 242
c39 28 75 54 99 77zM941 636h-198c52 84 139 170 217 212c-16 13 -38 39 -51 57c-68 -45 -141 -124 -194 -207v257h-72v-249c-53 84 -127 159 -201 201c-12 -17 -34 -44 -50 -56c86 -42 175 -127 226 -215h-195v-67h220v-101h-178v-67h178v-100h72v100h188v67h-188v101h226
v67z" />
</svg>
