<?xml version="1.0" standalone="no"?>
<!DOCTYPE svg PUBLIC "-//W3C//DTD SVG 1.1//EN" "http://www.w3.org/Graphics/SVG/1.1/DTD/svg11.dtd" >
<svg xmlns="http://www.w3.org/2000/svg" xmlns:xlink="http://www.w3.org/1999/xlink" version="1.1" viewBox="-10 0 1010 1000">
   <path fill="currentColor"
d="M843 323l52 29c-21 23 -46 45 -68 65c35 16 67 31 89 44l-35 44c-31 -18 -82 -44 -133 -67c24 70 66 120 144 126c12 1 19 -21 24 -64c14 14 30 28 46 36c-13 66 -39 92 -84 85c-152 -15 -198 -126 -216 -258h-552v-66h615c2 29 5 56 9 83c14 6 29 10 44 16
c23 -22 50 -53 65 -73zM641 269v-75h-112v-66h112v-85h73v85h226v66h-226v75h-73zM285 266v-72h-225v-66h225v-85h73v85h110v66h-110v72h-73zM913 795l-37 46c-31 -21 -81 -50 -133 -76c20 80 63 137 149 143c12 1 20 -25 25 -77c14 13 30 27 45 35c-10 77 -35 108 -84 101
c-173 -17 -209 -151 -219 -313h-119v301h-71v-301h-174c-11 105 -51 218 -173 308c-10 -15 -31 -37 -47 -48c103 -77 137 -172 149 -260h-146v-65h151v-28v-82c-38 7 -76 13 -113 17c-3 -14 -11 -35 -20 -50c95 -14 207 -36 267 -67l47 51c-31 13 -69 25 -110 35v97v27h169
v-192h71v192h185c0 38 2 76 6 110c14 7 28 14 43 21c23 -24 49 -53 62 -74l51 29c-21 23 -46 48 -68 68c37 18 70 38 94 52z" />
</svg>
