<?xml version="1.0" standalone="no"?>
<!DOCTYPE svg PUBLIC "-//W3C//DTD SVG 1.1//EN" "http://www.w3.org/Graphics/SVG/1.1/DTD/svg11.dtd" >
<svg xmlns="http://www.w3.org/2000/svg" xmlns:xlink="http://www.w3.org/1999/xlink" version="1.1" viewBox="-10 0 1010 1000">
   <path fill="currentColor"
d="M641 272v-73h-112v-66h112v-90h73v90h226v66h-226v73h-73zM285 269v-70h-225v-66h225v-90h73v90h111v66h-111v70h-73zM300 707h423c-76 -17 -151 -37 -219 -63c-65 26 -133 46 -204 63zM297 857h407v-95h-407v95zM674 489h-350c47 35 107 67 177 93
c67 -26 126 -58 173 -93zM744 433l44 34c-51 57 -122 104 -205 144c116 35 249 60 378 71c-14 15 -29 41 -37 57c-48 -4 -97 -12 -145 -21v235h-75v-42h-407v43h-73v-230c-51 11 -103 19 -153 26c-5 -17 -17 -44 -28 -59c124 -14 259 -41 380 -80c-57 -27 -108 -57 -151 -92
c-37 21 -78 40 -124 57c-9 -15 -30 -36 -44 -46c121 -39 211 -94 260 -148h-204v85h-73v-141h388c-10 -23 -24 -48 -36 -69l73 -18c18 25 36 61 47 87h350v141h-76v-85h-458l61 12c-13 15 -27 29 -43 43h339z" />
</svg>
