<?xml version="1.0" standalone="no"?>
<!DOCTYPE svg PUBLIC "-//W3C//DTD SVG 1.1//EN" "http://www.w3.org/Graphics/SVG/1.1/DTD/svg11.dtd" >
<svg xmlns="http://www.w3.org/2000/svg" xmlns:xlink="http://www.w3.org/1999/xlink" version="1.1" viewBox="-10 0 1010 1000">
   <path fill="currentColor"
d="M643 268v-74h-114v-66h114v-83h73v83h224v66h-224v74h-73zM874 257l45 57c-148 36 -385 57 -579 64c-2 -18 -10 -43 -18 -60c192 -9 423 -30 552 -61zM803 547l-57 -25c30 -44 66 -116 86 -166l66 28c-30 56 -65 121 -95 163zM669 499l-64 21c-7 -34 -26 -88 -43 -129
l60 -15c19 39 39 92 47 123zM479 521l-64 21c-9 -34 -32 -88 -52 -128l61 -18c22 39 46 91 55 125zM283 269v-75h-222v-66h222v-83h73v83h113v66h-113v75h-73zM253 548l-43 55c-36 -32 -109 -78 -166 -107l41 -49c56 28 130 71 168 101zM124 955l-57 -49
c45 -65 110 -174 160 -269l48 46c-45 88 -101 192 -151 272zM87 319l41 -48c56 26 129 70 165 100l-42 54c-36 -31 -108 -77 -164 -106zM732 687h-200c-14 26 -29 51 -43 74c45 10 93 24 140 39c44 -31 77 -68 103 -113zM947 687h-140c-25 54 -59 99 -103 136
c86 28 165 57 223 83l-53 50c-58 -28 -141 -60 -231 -90c-77 45 -178 75 -306 93c-6 -18 -20 -44 -32 -58c103 -12 186 -32 253 -62c-58 -17 -116 -32 -171 -45c22 -30 46 -67 69 -107h-147v-59h178c20 -37 37 -73 49 -107l71 13c-12 31 -27 63 -43 94h194
c6 -15 11 -30 15 -47l66 13c-2 12 -5 23 -9 34h117v59z" />
</svg>
