<?xml version="1.0" standalone="no"?>
<!DOCTYPE svg PUBLIC "-//W3C//DTD SVG 1.1//EN" "http://www.w3.org/Graphics/SVG/1.1/DTD/svg11.dtd" >
<svg xmlns="http://www.w3.org/2000/svg" xmlns:xlink="http://www.w3.org/1999/xlink" version="1.1" viewBox="-10 0 1010 1000">
   <path fill="currentColor"
d="M291 261v-73h-230v-65h230v-79h73v79h105v65h-105v73h-73zM868 248l49 56c-149 36 -385 55 -579 62c-2 -17 -12 -42 -20 -58c192 -9 423 -28 550 -60zM800 507l-56 -24c29 -37 69 -98 90 -142l67 26c-32 50 -70 103 -101 140zM670 483l-67 20c-7 -32 -25 -82 -40 -121
l63 -18c16 38 35 87 44 119zM479 487l-62 24c-10 -30 -31 -76 -51 -111l59 -20c21 34 43 79 54 107zM247 540l-42 55c-37 -29 -107 -74 -161 -105l41 -47c52 28 126 70 162 97zM127 951l-59 -45c45 -67 108 -178 157 -276l51 44c-44 91 -100 197 -149 277zM88 319l41 -47
c53 29 126 72 163 100l-43 52c-36 -27 -108 -74 -161 -105zM670 668v34h271v59h-271v120c0 33 -6 49 -35 60c-27 9 -70 10 -138 10c-3 -18 -13 -41 -22 -58c51 2 95 2 108 1c14 -1 17 -4 17 -14v-119h-294v-59h294v-58h2l-1 -1c42 -16 90 -38 131 -61h-372v-60h463l17 -4
l48 35c-61 43 -143 85 -218 115zM708 123h232v65h-232v72h-73v-72h-106v-65h106v-79h73v79z" />
</svg>
