<?xml version="1.0" standalone="no"?>
<!DOCTYPE svg PUBLIC "-//W3C//DTD SVG 1.1//EN" "http://www.w3.org/Graphics/SVG/1.1/DTD/svg11.dtd" >
<svg xmlns="http://www.w3.org/2000/svg" xmlns:xlink="http://www.w3.org/1999/xlink" version="1.1" viewBox="-10 0 1010 1000">
   <path fill="currentColor"
d="M641 264v-74h-112v-66h112v-80h73v80h226v66h-226v74h-73zM689 363v-65h246v65h-246zM532 301l44 -23c27 30 56 72 69 100l-45 29c-13 -30 -41 -74 -68 -106zM288 261v-71h-228v-66h228v-80h73v80h108v66h-108v71h-73zM237 249l66 24c-50 71 -132 149 -206 199
c-11 -14 -31 -38 -44 -49c69 -45 145 -115 184 -174zM247 405l69 24c-25 40 -55 81 -89 119v409h-68v-339c-26 25 -54 48 -81 67c-10 -16 -28 -42 -41 -56c82 -56 168 -147 210 -224zM342 653v-116h56v117c0 68 -14 155 -86 215c-8 -11 -31 -30 -43 -38
c63 -52 73 -121 73 -178zM645 500h-131v457h-61v-458h-137v-66h137v-161h61v161h131v67zM629 783h37c9 0 22 -1 32 -4c2 15 4 40 6 53c-11 4 -24 5 -38 5h-37c-55 0 -66 -21 -66 -87v-215h56v216c0 26 0 32 10 32zM955 468v65h-90v338c0 37 -7 54 -32 66
c-23 11 -60 12 -116 12c-3 -19 -13 -46 -23 -65c41 2 78 2 88 1c12 -1 15 -4 15 -14v-338h-128v-65h286z" />
</svg>
