<?xml version="1.0" standalone="no"?>
<!DOCTYPE svg PUBLIC "-//W3C//DTD SVG 1.1//EN" "http://www.w3.org/Graphics/SVG/1.1/DTD/svg11.dtd" >
<svg xmlns="http://www.w3.org/2000/svg" xmlns:xlink="http://www.w3.org/1999/xlink" version="1.1" viewBox="-10 0 1010 1000">
   <path fill="currentColor"
d="M648 263v-68h-119v-66h119v-86h73v86h220v66h-220v68h-73zM271 261v-66h-212v-66h212v-86h73v86h124v66h-124v66h-73zM516 251l44 58c-127 35 -328 56 -493 66c-2 -17 -11 -42 -18 -58c161 -12 359 -33 467 -66zM367 500l-61 20c-8 -36 -30 -91 -54 -132l58 -17
c25 40 49 93 57 129zM211 517l-58 28c-11 -37 -41 -90 -70 -128l55 -24c31 38 60 89 73 124zM357 537v60h209v64h-209v8l4 -4c65 44 136 107 171 149l-42 50c-28 -35 -81 -86 -133 -129v223h-69v-227c-58 69 -133 140 -198 183c-9 -18 -26 -44 -42 -59
c74 -41 163 -120 217 -194h-202v-64h225v-60h69zM468 535l-53 -18c28 -43 64 -113 83 -160l68 20c-31 55 -69 118 -98 158zM842 257l63 27c-74 84 -187 165 -284 215c-13 -16 -32 -36 -49 -49c92 -44 206 -121 270 -193zM869 448l62 27c-71 96 -186 186 -295 240
c-10 -16 -30 -36 -48 -50c104 -47 219 -132 281 -217zM886 663l65 26c-75 113 -200 211 -328 270c-12 -17 -31 -39 -48 -54c122 -50 247 -142 311 -242z" />
</svg>
