<?xml version="1.0" standalone="no"?>
<!DOCTYPE svg PUBLIC "-//W3C//DTD SVG 1.1//EN" "http://www.w3.org/Graphics/SVG/1.1/DTD/svg11.dtd" >
<svg xmlns="http://www.w3.org/2000/svg" xmlns:xlink="http://www.w3.org/1999/xlink" version="1.1" viewBox="-10 0 1010 1000">
   <path fill="currentColor"
d="M298 211v-49h-238v-57h238v-61h72v61h255v-61h73v61h246v57h-246v48h-73v-48h-255v49h-72zM444 314h65v122h108v-157c-72 7 -146 12 -213 15c-2 -14 -10 -34 -16 -47c161 -9 360 -29 463 -59l42 44c-56 16 -129 29 -208 39v54h192v51h-192v60h238v51h-557v-51h78v-122z
M535 872l212 -4c-32 -17 -65 -32 -95 -44l29 -18h-146v66zM250 758h216v-66h-216v66zM769 692h-234v66h234v-66zM841 806h-100c73 32 153 78 198 112l-54 37c-14 -11 -32 -24 -53 -37c-265 9 -544 16 -727 20l-5 -59c96 -1 225 -3 366 -5v-68h-285v-162h285v-54
c-94 -4 -167 -15 -224 -38c-44 36 -94 63 -147 83c-9 -15 -30 -39 -44 -50c48 -15 93 -37 133 -66c-28 -19 -51 -44 -72 -75l51 -23c17 26 39 46 65 61c26 -25 47 -54 64 -87h-108l-29 29l-53 -32c38 -35 80 -76 115 -112h-144v-55h200l9 -4l46 28c-27 28 -58 60 -89 91h85
l11 -2l40 20c-20 59 -50 109 -87 150c70 22 164 27 287 27c38 0 326 0 380 -1c-10 15 -21 41 -25 58h-353h-42v52h306v162z" />
</svg>
