<?xml version="1.0" standalone="no"?>
<!DOCTYPE svg PUBLIC "-//W3C//DTD SVG 1.1//EN" "http://www.w3.org/Graphics/SVG/1.1/DTD/svg11.dtd" >
<svg xmlns="http://www.w3.org/2000/svg" xmlns:xlink="http://www.w3.org/1999/xlink" version="1.1" viewBox="-10 0 1010 1000">
   <path fill="currentColor"
d="M296 231v-64h-235v-60h235v-63h72v63h259v-63h72v63h237v60h-237v64h-72v-64h-259v64h-72zM139 587h178s-1 20 -2 30c-12 207 -23 283 -47 311c-16 18 -33 24 -58 26c-21 2 -58 2 -95 0c-2 -19 -9 -46 -20 -63c38 4 73 4 86 4c14 1 23 0 31 -10c15 -17 25 -79 34 -237
h-115l-5 34l-65 -8c13 -66 26 -169 34 -247h149v-107h-169v-60h236v227h-160c-4 33 -8 68 -12 100zM366 717h554s-2 19 -4 30c-12 114 -26 164 -49 186c-18 14 -36 19 -63 20c-24 2 -73 2 -123 -1c-1 -18 -9 -43 -18 -59c49 4 98 5 115 5s27 -1 35 -7c13 -12 23 -45 33 -119
h-211c-27 99 -96 154 -270 184c-6 -15 -23 -41 -35 -53c152 -21 212 -60 236 -131h-200v-55zM439 551h133v-42h-133v42zM572 428h-133v40h133v-40zM631 381v251c0 27 -6 40 -25 49c-20 8 -50 8 -94 8c-4 -14 -11 -33 -18 -46c31 1 57 1 66 1s12 -4 12 -12v-39h-133v100h-59
v-312h251zM695 378h56v208h-56v-208zM906 360v268c0 30 -6 45 -29 55c-21 9 -56 9 -105 9c-2 -16 -9 -38 -18 -53c37 1 67 1 77 0c11 -1 13 -3 13 -13v-266h62zM805 284h145v53h-595v-53h142c-12 -21 -27 -44 -42 -63l58 -17c21 23 43 55 55 80h168c18 -27 36 -60 47 -83
l70 16c-16 24 -32 47 -48 67z" />
</svg>
