<?xml version="1.0" standalone="no"?>
<!DOCTYPE svg PUBLIC "-//W3C//DTD SVG 1.1//EN" "http://www.w3.org/Graphics/SVG/1.1/DTD/svg11.dtd" >
<svg xmlns="http://www.w3.org/2000/svg" xmlns:xlink="http://www.w3.org/1999/xlink" version="1.1" viewBox="-10 0 1010 1000">
   <path fill="currentColor"
d="M669 205v-53h-143v-54h143v-54h71v54h197v54h-197v53h-71zM268 205v-52h-211v-54h211v-55h72v55h128v54h-128v52h-72zM708 801l31 -4v-103h-478v70c0 28 -2 59 -11 91c108 -11 266 -30 425 -49c-104 -22 -270 -49 -398 -64l16 -39c139 13 325 41 426 62zM814 644v238
c0 39 -11 53 -42 62c-32 8 -89 8 -174 7c-6 -16 -16 -34 -25 -50c65 3 128 3 143 1c18 -1 23 -5 23 -19v-44c-170 27 -346 52 -476 71l-14 -49c-11 38 -31 74 -66 105c-9 -16 -36 -46 -51 -57c50 -44 56 -98 56 -147v-118h626zM709 581v-41h-415v41h415zM786 502v117h-565
v-117h565zM76 562v-127h850v123h-68v-79h-716v83h-66zM733 377v-43h-459v43h459zM201 298h609v116h-609v-116zM542 226h398v50h-877v-50h404c-7 -15 -15 -30 -23 -43l66 -15c12 18 25 39 32 58z" />
</svg>
