<?xml version="1.0" standalone="no"?>
<!DOCTYPE svg PUBLIC "-//W3C//DTD SVG 1.1//EN" "http://www.w3.org/Graphics/SVG/1.1/DTD/svg11.dtd" >
<svg xmlns="http://www.w3.org/2000/svg" xmlns:xlink="http://www.w3.org/1999/xlink" version="1.1" viewBox="-10 0 1010 1000">
   <path fill="currentColor"
d="M670 217v-51h-144v-60h144v-62h71v62h196v60h-196v51h-71zM676 320h-104v54h104v-54zM849 320h-112v54h112v-54zM849 469v-55h-112v55h112zM572 414v55h104v-55h-104zM411 414v55h100v-55h-100zM411 320v54h100v-54h-100zM350 279h161v-51h61v51h104v-51h61v51h175v231
h-562v-231zM268 217v-51h-211v-60h211v-62h71v62h129v60h-129v51h-71zM238 238l67 19c-20 61 -45 122 -72 181v518h-69v-392c-27 45 -57 86 -86 122c-7 -17 -30 -54 -42 -71c81 -93 157 -235 202 -377zM873 762l40 37c-29 24 -64 44 -96 61c42 21 89 37 139 47
c-13 12 -30 34 -39 50c-124 -32 -230 -104 -286 -197h-100v117l135 -32c0 17 1 40 3 53c-163 42 -189 51 -205 62c-4 -16 -15 -44 -25 -59c14 -6 30 -17 30 -53v-88h-80c-8 68 -25 141 -61 197c-13 -10 -40 -27 -56 -33c53 -85 60 -196 60 -276v-107h608v48h-544v37h492v41
h-492c0 15 -1 30 -2 46h556v47h-257c20 26 47 51 78 72c33 -20 77 -49 102 -70z" />
</svg>
