<?xml version="1.0" standalone="no"?>
<!DOCTYPE svg PUBLIC "-//W3C//DTD SVG 1.1//EN" "http://www.w3.org/Graphics/SVG/1.1/DTD/svg11.dtd" >
<svg xmlns="http://www.w3.org/2000/svg" xmlns:xlink="http://www.w3.org/1999/xlink" version="1.1" viewBox="-10 0 1010 1000">
   <path fill="currentColor"
d="M776 502h96c21 0 26 -8 28 -62c13 9 35 17 52 21c-7 73 -24 94 -73 94h-109c-65 0 -83 -15 -83 -77v-230h57v81h182v50h-182v98c0 21 4 25 32 25zM593 610l26 -44c100 21 235 61 307 90l-27 50c-70 -29 -204 -72 -306 -96zM671 226v-58h-145v-60h145v-64h72v64h194v60
h-194v58h-72zM588 342v-45h-162v45h162zM426 512h162v-42h-162v42zM588 428v-44h-162v44h162zM372 252h80c12 -21 25 -46 32 -63l60 15c-11 18 -20 33 -30 48h130v305h-272v-305zM111 705l-33 -53c98 -14 210 -43 285 -87l52 29c-81 52 -192 92 -304 111zM268 224v-56h-211
v-60h211v-64h72v64h128v60h-128v56h-72zM332 472l6 50c-95 25 -194 51 -271 71l-21 -57c18 -3 37 -7 58 -11v-230h55v217l53 -13v-270h54v98h68v54h-68v107zM678 735h-305c-9 5 -17 10 -26 14c44 30 97 56 157 76c69 -23 129 -53 174 -90zM743 682l41 28
c-47 59 -116 106 -196 141c106 26 229 42 357 49c-13 14 -27 38 -34 55c-149 -10 -289 -32 -407 -73c-130 43 -281 65 -428 77c-4 -17 -15 -41 -25 -56c126 -7 256 -23 370 -52c-47 -22 -90 -46 -127 -76c-39 18 -82 35 -129 50c-7 -14 -24 -36 -36 -47
c44 -13 84 -26 120 -42c-10 -9 -18 -19 -26 -28l54 -22c8 9 15 18 24 26c56 -28 99 -57 129 -88l67 16c-15 16 -32 30 -51 45h285z" />
</svg>
