<?xml version="1.0" standalone="no"?>
<!DOCTYPE svg PUBLIC "-//W3C//DTD SVG 1.1//EN" "http://www.w3.org/Graphics/SVG/1.1/DTD/svg11.dtd" >
<svg xmlns="http://www.w3.org/2000/svg" xmlns:xlink="http://www.w3.org/1999/xlink" version="1.1" viewBox="-10 0 1010 1000">
   <path fill="currentColor"
d="M669 244v-66h-143v-64h143v-70h69v70h200v64h-200v66h-69zM757 790l-53 31c-16 -30 -53 -77 -83 -112l50 -27c31 32 68 78 86 108zM825 576l-38 32c-19 -20 -45 -43 -75 -67c-45 30 -100 57 -165 79c-6 -11 -21 -27 -31 -35c63 -19 117 -44 161 -72
c-17 -12 -33 -25 -50 -37c-25 15 -54 29 -88 42c-7 -11 -21 -25 -32 -32c31 -10 60 -21 83 -34c-20 -14 -40 -27 -60 -37l37 -28c21 12 42 25 63 38c20 -15 36 -33 46 -50l46 6c-14 25 -32 47 -57 68c18 12 35 23 51 35c36 -28 61 -59 77 -90l51 7c-21 39 -51 77 -92 111
c29 23 55 46 73 64zM848 633v-278h-342v278h342zM914 307v375h-471v-375h157c9 -22 19 -47 25 -65l72 14c-10 18 -20 35 -29 51h246zM272 254v-76h-215v-64h215v-70h69v70h127v64h-127v76h-69zM417 689l-51 19c-4 -14 -9 -32 -15 -50c-224 30 -254 37 -273 47
c-3 -13 -11 -44 -19 -60c19 -4 44 -24 73 -52c17 -14 51 -49 90 -93c-107 11 -128 15 -142 22c-4 -14 -12 -46 -20 -62c14 -3 29 -15 47 -35c19 -18 79 -92 116 -164l60 26c-35 58 -78 115 -121 160l111 -7c26 -32 50 -65 72 -99l53 35c-69 90 -147 178 -226 248l161 -20
c-9 -26 -18 -51 -27 -74l49 -14c23 56 50 131 62 173zM99 724l57 10c-9 81 -26 166 -48 222c-12 -7 -39 -17 -55 -21c25 -56 38 -135 46 -211zM197 738l53 -11c14 60 26 139 29 192l-56 14c-2 -53 -13 -133 -26 -195zM298 722l45 -15c22 46 42 108 51 147l-50 16
c-6 -40 -27 -102 -46 -148zM440 926l-53 -26c23 -44 40 -119 49 -174l55 16c-9 58 -26 136 -51 184zM628 889h116c28 0 33 -10 37 -83c13 9 39 17 57 21c-7 91 -26 114 -86 114h-131c-77 0 -96 -16 -96 -76v-147h63v147c0 20 6 24 40 24zM818 733l53 -20
c37 54 70 129 85 178l-57 23c-13 -50 -47 -126 -81 -181z" />
</svg>
