<?xml version="1.0" standalone="no"?>
<!DOCTYPE svg PUBLIC "-//W3C//DTD SVG 1.1//EN" "http://www.w3.org/Graphics/SVG/1.1/DTD/svg11.dtd" >
<svg xmlns="http://www.w3.org/2000/svg" xmlns:xlink="http://www.w3.org/1999/xlink" version="1.1" viewBox="-10 0 1010 1000">
   <path fill="currentColor"
d="M670 236v-66h-145v-61h145v-65h73v65h195v61h-195v66h-73zM268 237v-66h-211v-62h211v-65h72v65h128v62h-128v66h-72zM368 661h-201v76h201v-76zM167 873h201v-83h-201v83zM103 954v-347h331v345h-66v-24h-201v26h-64zM831 715h-211c-5 7 -10 15 -16 22
c33 29 73 55 116 79c45 -27 84 -61 111 -101zM605 514v53h241v-53h-241zM605 423v51h241v-51h-241zM881 659l42 19c-31 70 -80 125 -141 168c55 24 114 41 176 52c-15 14 -34 40 -42 58c-70 -16 -137 -40 -196 -71c-68 34 -144 57 -222 73c-7 -17 -22 -41 -33 -55
c66 -11 133 -29 192 -55c-31 -20 -62 -44 -88 -69c-17 18 -34 35 -52 50c-8 -11 -30 -36 -43 -45c19 -14 37 -31 53 -48c-15 -19 -29 -39 -42 -58l51 -19c8 12 17 24 27 35c19 -25 36 -54 51 -82h-75v-210c-14 19 -28 36 -43 49c-8 -7 -26 -23 -39 -33v14h-124
c40 26 99 68 115 81l-33 53c-21 -22 -75 -69 -113 -101v119h-62v-112c-46 53 -107 101 -164 129c-5 -18 -17 -46 -28 -62c57 -23 120 -63 165 -107h-145v-54h172v-50c-48 4 -96 7 -139 7c-2 -14 -9 -35 -17 -50c108 -5 244 -19 321 -41l28 52c-35 11 -81 18 -131 25v57h155
v22c45 -46 83 -109 106 -174l63 15c-5 14 -11 28 -17 42h328v53h-355c-8 14 -16 28 -24 41h357v235h-238c-7 17 -15 33 -24 50h217z" />
</svg>
