<?xml version="1.0" standalone="no"?>
<!DOCTYPE svg PUBLIC "-//W3C//DTD SVG 1.1//EN" "http://www.w3.org/Graphics/SVG/1.1/DTD/svg11.dtd" >
<svg xmlns="http://www.w3.org/2000/svg" xmlns:xlink="http://www.w3.org/1999/xlink" version="1.1" viewBox="-10 0 1010 1000">
   <path fill="currentColor"
d="M669 190v-45h-144v-55h144v-46h71v46h197v55h-197v45h-71zM841 342v-29h-242v29h242zM599 464h242v-23h-242v23zM841 404v-27h-242v27h242zM545 277h122c3 -9 5 -18 7 -26h-178v-45h438v45h-187c-4 9 -9 18 -14 26h165v225h-114c60 15 135 39 175 57l-18 40
c-43 -20 -124 -47 -187 -64l16 -33h-225v-225zM268 194v-48h-211v-55h211v-47h72v47h128v55h-128v48h-72zM420 393l60 14c-68 97 -236 146 -388 172c-7 -13 -25 -37 -37 -49c70 -9 143 -22 206 -43v-103h-198v-48h74v-97h58v97h77v-124h61v40h131v46h-131v38h166v48h-175v79
c41 -19 75 -42 96 -70zM150 392l55 12c-15 35 -39 74 -63 101c-12 -8 -35 -19 -50 -25c25 -26 45 -58 58 -88zM290 825h246v-53h-110c-37 22 -81 39 -136 53zM245 736h140c20 -14 35 -28 48 -44h-188v44zM245 615v42h212c6 -14 12 -27 16 -42h-228zM766 657v-42h-216
c-5 15 -11 28 -17 42h233zM766 736v-44h-254c-10 16 -23 30 -37 44h291zM609 772v53h337v56h-337v74h-73v-74h-481v-56h150c-5 -8 -12 -15 -19 -20c51 -8 93 -19 129 -33h-140v-194h182c16 -24 35 -52 45 -73l76 10c-16 23 -34 44 -51 63h96c-10 -10 -23 -22 -32 -27
c58 -12 124 -29 164 -47l49 16c-38 21 -94 42 -144 58h278v194h-229z" />
</svg>
