<?xml version="1.0" standalone="no"?>
<!DOCTYPE svg PUBLIC "-//W3C//DTD SVG 1.1//EN" "http://www.w3.org/Graphics/SVG/1.1/DTD/svg11.dtd" >
<svg xmlns="http://www.w3.org/2000/svg" xmlns:xlink="http://www.w3.org/1999/xlink" version="1.1" viewBox="-10 0 1010 1000">
   <path fill="currentColor"
d="M354 813v-253h62v340h-62v-30h-274v-310h62v253h70v-330h-168v-66h168v-184h-64c-19 49 -40 96 -63 132c-13 -10 -42 -27 -59 -35c49 -71 85 -181 108 -287l66 13c-8 37 -18 75 -29 111h252v66h-147v184h169v66h-169v330h78zM538 301v248c0 125 -8 296 -63 411
c-11 -13 -39 -34 -53 -42c46 -107 51 -255 51 -369v-308h179v-198h70v72h197v62h-197v64h183l11 -3l42 12c-13 60 -28 130 -42 174l-52 -12c8 -29 16 -71 24 -111h-350zM611 619h64c-6 156 -24 271 -111 339c-9 -14 -28 -38 -44 -49c74 -57 87 -155 91 -290zM736 517h117
c17 0 46 -2 61 -5c1 17 3 40 6 55c-13 5 -39 5 -65 5h-124c-67 0 -83 -24 -83 -90v-36l-82 9l-7 -56l89 -9v-70h64v63l121 -12l7 55l-128 14v42c0 27 3 35 24 35zM847 868h29c9 0 17 -1 21 -4c5 -3 10 -11 12 -20c2 -15 4 -51 3 -94c13 11 34 23 51 28c0 45 -4 93 -9 110
c-6 17 -15 29 -27 36s-31 11 -47 11h-48c-20 0 -41 -5 -55 -16c-14 -14 -18 -27 -18 -71v-229h64v230c0 5 1 12 6 15c4 3 11 4 18 4z" />
</svg>
