<?xml version="1.0" standalone="no"?>
<!DOCTYPE svg PUBLIC "-//W3C//DTD SVG 1.1//EN" "http://www.w3.org/Graphics/SVG/1.1/DTD/svg11.dtd" >
<svg xmlns="http://www.w3.org/2000/svg" xmlns:xlink="http://www.w3.org/1999/xlink" version="1.1" viewBox="-10 0 1010 1000">
   <path fill="currentColor"
d="M129 550h59v-2h3v-272h-62v274zM304 550v-274h-63v272h4v2h59zM656 257v35c-4 444 -6 581 -29 619c-13 24 -29 32 -52 35c-22 3 -53 3 -86 1c-1 -19 -5 -47 -16 -65c32 3 60 3 74 3c12 1 19 -2 26 -15c14 -27 19 -156 22 -543h-79v37c0 204 -13 407 -104 592
c-13 -15 -37 -32 -54 -42c10 -20 20 -41 28 -61l-46 15c-2 -16 -6 -34 -10 -52c-98 25 -195 51 -273 71l-14 -67c40 -8 91 -20 145 -34v-177h-59v70h-54v-461h112v-175h59v175h112v391h-113v164l70 -17c-6 -28 -14 -56 -22 -80l46 -14c20 60 40 136 48 187
c60 -155 68 -327 68 -485v-37h-66v-70h66v-213h61v213h140zM754 790h114v-585h-114v585zM694 137h236v786h-62v-65h-114v80h-60v-801z" />
</svg>
