<?xml version="1.0" standalone="no"?>
<!DOCTYPE svg PUBLIC "-//W3C//DTD SVG 1.1//EN" "http://www.w3.org/Graphics/SVG/1.1/DTD/svg11.dtd" >
<svg xmlns="http://www.w3.org/2000/svg" xmlns:xlink="http://www.w3.org/1999/xlink" version="1.1" viewBox="-10 0 1010 1000">
   <path fill="currentColor"
d="M753 858h-68v-123h-187v-54h187v-72h-155v-54h155v-67h-179v-54h106c-10 -29 -31 -68 -50 -98l51 -22c23 31 46 74 55 102l-37 18h117c28 -36 59 -89 76 -125l60 20c-22 36 -49 74 -72 105h123v54h-182v67h154v54h-154v72h186v54h-186v123zM936 254v54h-436v-54h190v-77
h-157v-54h157v-79h67v79h154v54h-154v77h179zM459 214l-57 19c-11 -43 -33 -112 -50 -164l54 -16c17 52 40 118 53 161zM255 170l-49 33c-14 -34 -43 -88 -67 -127l47 -27c27 39 55 89 69 121zM330 629l-34 61c-16 -32 -53 -89 -83 -135v401h-57v-385c-30 46 -61 86 -91 119
c-7 -20 -22 -57 -32 -71c77 -75 158 -205 204 -331h-186v-68h215l11 -3l32 30c-23 78 -57 156 -95 227c6 7 13 16 21 27c21 -28 44 -67 57 -92l39 42c-23 30 -48 62 -68 86c28 38 57 77 67 92zM472 511l31 12c-17 85 -41 183 -73 256c23 9 44 32 82 57c53 36 115 48 202 48
c74 0 178 -5 250 -13c-7 18 -16 51 -17 71c-50 3 -165 7 -234 7c-94 0 -158 -15 -216 -56c-36 -27 -66 -58 -87 -58c-25 0 -61 62 -94 126l-48 -61c32 -46 64 -84 94 -106c29 -59 54 -144 69 -220h-90c23 -61 49 -149 71 -229h-92l1 -60h168c-19 72 -46 158 -67 228h39z" />
</svg>
