<?xml version="1.0" standalone="no"?>
<!DOCTYPE svg PUBLIC "-//W3C//DTD SVG 1.1//EN" "http://www.w3.org/Graphics/SVG/1.1/DTD/svg11.dtd" >
<svg xmlns="http://www.w3.org/2000/svg" xmlns:xlink="http://www.w3.org/1999/xlink" version="1.1" viewBox="-10 0 1010 1000">
   <path fill="currentColor"
d="M393 224v-82h-231v82h231zM393 361v-83h-231v83h231zM461 85v332h-365v-332h365zM484 762l3 64c-156 36 -320 75 -438 101l-16 -71l69 -13v-239h64v226l77 -16v-279h-185v-64h428v64h-179v76h160v63h-160v126c58 -12 118 -25 177 -38zM598 471v99h244v-99h-244zM598 311
v99h244v-99h-244zM598 152v98h244v-98h-244zM830 879h57c19 0 22 -14 24 -124c13 12 38 24 56 29c-6 131 -22 164 -73 164h-72c-60 0 -74 -23 -74 -95v-215h-60c-14 145 -48 257 -163 324c-8 -19 -27 -48 -41 -62c100 -51 128 -143 140 -262h-89v-553h372v553h-98v215
c0 22 3 26 21 26z" />
</svg>
