<?xml version="1.0" standalone="no"?>
<!DOCTYPE svg PUBLIC "-//W3C//DTD SVG 1.1//EN" "http://www.w3.org/Graphics/SVG/1.1/DTD/svg11.dtd" >
<svg xmlns="http://www.w3.org/2000/svg" xmlns:xlink="http://www.w3.org/1999/xlink" version="1.1" viewBox="-10 0 1010 1000">
   <path fill="currentColor"
d="M557 145h-398v322c0 144 -9 350 -69 488c-11 -11 -37 -30 -51 -37c55 -130 59 -314 59 -451v-381h32v-1h427v60zM475 330h-52v-52h-45v-53h45v-59h52v59h67v53h-67v52zM307 329h-54v-51h-75v-52h75v-61h54v61h44v52h-44v51zM663 462v104h184v-104h-184zM663 303v102h184
v-102h-184zM663 144v102h184v-102h-184zM414 732l35 -10c22 39 44 89 54 127v-149h-107v89l43 -4c-8 -18 -16 -36 -25 -53zM259 555h87v-60h-87v60zM259 394v59h87v-59h-87zM477 453v-59h-81v59h81zM477 555v-60h-81v60h81zM865 886h22c8 0 14 0 17 -4c4 -3 7 -11 10 -24
c2 -15 2 -48 3 -92c12 10 31 20 47 26c-1 41 -4 89 -8 106c-6 16 -14 27 -24 34c-11 7 -29 10 -43 10h-39c-18 0 -37 -5 -50 -17s-17 -27 -17 -84v-213h-60c-7 154 -32 264 -130 330c-7 -15 -24 -35 -38 -47c-3 16 -10 24 -25 31c-19 9 -51 9 -103 9c-2 -15 -9 -33 -17 -47
c39 1 70 1 81 0c9 0 12 -3 12 -13v-33l-35 10c-3 -12 -8 -28 -14 -44c-67 8 -130 16 -185 22l-11 -48c26 -1 56 -3 88 -6v-92h-102v255h-53v-255h-30v-51h30v-23h53v23h102v-50h-138v-249h322v249h-134v50h160v243c0 5 0 9 -1 13c80 -55 100 -146 106 -277h-62v-546h314v546
h-66v221c0 17 1 29 5 33c3 3 7 4 13 4z" />
</svg>
