<?xml version="1.0" standalone="no"?>
<!DOCTYPE svg PUBLIC "-//W3C//DTD SVG 1.1//EN" "http://www.w3.org/Graphics/SVG/1.1/DTD/svg11.dtd" >
<svg xmlns="http://www.w3.org/2000/svg" xmlns:xlink="http://www.w3.org/1999/xlink" version="1.1" viewBox="-10 0 1010 1000">
   <path fill="currentColor"
d="M319 633h99v-122h-99v122zM163 511v39c0 25 0 54 -2 83h101v-122h-99zM347 189h-136c-13 31 -27 61 -43 88h139c14 -25 28 -58 40 -88zM319 339v116h99v-116h-99zM163 339v116h99v-116h-99zM484 277v595c0 37 -7 56 -31 68c-22 11 -57 11 -112 11c-2 -18 -10 -47 -19 -65
c36 2 71 1 81 1c11 0 15 -4 15 -15v-181h-260c-7 94 -24 193 -60 268c-13 -11 -41 -31 -58 -37c53 -108 58 -260 58 -372v-176c-12 -12 -37 -35 -52 -46c65 -70 115 -175 144 -286l67 15c-7 24 -14 47 -22 71h142l11 -3l44 29c-15 40 -36 85 -58 123h110zM956 557v70h-178
v330h-73v-330h-193v-70h193v-244h-96c-13 59 -30 112 -50 155c-12 -9 -42 -25 -58 -33c42 -84 64 -214 77 -342l65 11c-5 47 -12 93 -20 138h82v-188h73v188h152v71h-152v244h178z" />
</svg>
