<?xml version="1.0" standalone="no"?>
<!DOCTYPE svg PUBLIC "-//W3C//DTD SVG 1.1//EN" "http://www.w3.org/Graphics/SVG/1.1/DTD/svg11.dtd" >
<svg xmlns="http://www.w3.org/2000/svg" xmlns:xlink="http://www.w3.org/1999/xlink" version="1.1" viewBox="-10 0 1010 1000">
   <path fill="currentColor"
d="M279 170l-57 32c-14 -36 -47 -92 -74 -134l55 -27c29 40 61 93 76 129zM375 213v61h-331v-61h331zM353 403h-271v-59h271v59zM353 474v59h-271v-59h271zM288 669h-141v165h141v-165zM350 607v289h-203v47h-61v-336h264zM841 294v185h114v63h-114v330c0 38 -9 56 -34 67
c-27 11 -70 12 -130 12c-3 -17 -14 -45 -24 -63c48 1 91 1 104 1s17 -4 17 -17v-278c-62 116 -157 230 -251 297c-9 -18 -27 -44 -43 -59c95 -59 194 -174 251 -290h-199c11 -56 25 -142 32 -209l65 5c-6 45 -14 96 -23 141h168v-185h-239v-62h401v62h-95zM955 92v69h-466
v227c0 162 -9 403 -78 568c-14 -11 -43 -28 -61 -34c66 -157 72 -379 72 -534v-296h533z" />
</svg>
