<?xml version="1.0" standalone="no"?>
<!DOCTYPE svg PUBLIC "-//W3C//DTD SVG 1.1//EN" "http://www.w3.org/Graphics/SVG/1.1/DTD/svg11.dtd" >
<svg xmlns="http://www.w3.org/2000/svg" xmlns:xlink="http://www.w3.org/1999/xlink" version="1.1" viewBox="-10 0 1010 1000">
   <path fill="currentColor"
d="M487 155v126h-63v-186h510v181h-65v-121h-382zM726 192h64v123c0 22 2 28 16 28h63c13 0 35 0 47 -4c1 17 3 38 5 53c-11 4 -31 4 -50 4h-74c-59 0 -71 -22 -71 -81v-123zM586 192h67c-15 111 -56 189 -177 236c-8 -14 -25 -38 -39 -49c104 -36 137 -100 149 -187z
M277 171l-63 27c-12 -35 -39 -91 -63 -132l61 -23c25 40 53 94 65 128zM83 533v-59h268v59h-268zM351 344v59h-268v-59h268zM293 669h-141v165h141v-165zM359 607v289h-207v47h-66v-336h273zM44 274v-61h345v61h-345zM925 548h-167c47 113 125 220 205 276
c-17 13 -40 38 -52 56c-74 -62 -145 -170 -193 -284v360h-71v-346c-49 115 -120 214 -200 275c-11 -18 -33 -43 -49 -56c86 -56 164 -164 211 -281h-168v-67h206v-114h71v114h207v67z" />
</svg>
