<?xml version="1.0" standalone="no"?>
<!DOCTYPE svg PUBLIC "-//W3C//DTD SVG 1.1//EN" "http://www.w3.org/Graphics/SVG/1.1/DTD/svg11.dtd" >
<svg xmlns="http://www.w3.org/2000/svg" xmlns:xlink="http://www.w3.org/1999/xlink" version="1.1" viewBox="-10 0 1010 1000">
   <path fill="currentColor"
d="M556 156l-59 24c-7 -30 -26 -75 -45 -109l55 -20c21 32 41 75 49 105zM272 167l-60 35c-15 -37 -46 -93 -74 -134l58 -29c28 41 61 93 76 128zM381 213v61h-337v-61h337zM295 669h-142v165h142v-165zM361 607v289h-208v47h-65v-336h273zM83 533v-59h282v59h-282zM84 403
v-59h281v59h-281zM809 788h-281v81h281v-81zM462 942v-198h415v197h-68v-27h-281v28h-66zM468 700v-45h402v45h-402zM870 567v46h-402v-46h402zM801 48l67 21c-22 42 -44 84 -63 114l-54 -19c17 -33 39 -83 50 -116zM714 470h123c-43 -30 -81 -70 -107 -111h-132
c-28 42 -61 80 -102 111h145c-12 -23 -25 -47 -38 -68l59 -23c18 28 39 63 52 91zM954 359h-153c41 48 105 87 172 107c-14 12 -33 36 -43 53c-15 -6 -31 -13 -47 -21v26h-431v-23c-10 7 -19 13 -30 19c-9 -13 -32 -40 -46 -53c57 -27 104 -64 142 -108h-115v-58h156
c12 -19 22 -39 31 -61h-164v-57h185c12 -42 22 -88 29 -138l65 8c-7 47 -16 90 -28 130h246v57h-264c-8 22 -17 41 -27 61h322v58z" />
</svg>
