<?xml version="1.0" standalone="no"?>
<!DOCTYPE svg PUBLIC "-//W3C//DTD SVG 1.1//EN" "http://www.w3.org/Graphics/SVG/1.1/DTD/svg11.dtd" >
<svg xmlns="http://www.w3.org/2000/svg" xmlns:xlink="http://www.w3.org/1999/xlink" version="1.1" viewBox="-10 0 1010 1000">
   <path fill="currentColor"
d="M336 50l40 45c-70 53 -188 97 -295 124c-8 -16 -23 -39 -35 -53c105 -25 224 -72 290 -116zM379 218l43 42c-35 40 -80 78 -131 113c129 174 120 469 51 536c-27 28 -52 38 -92 39c-18 0 -48 -1 -75 -3c-1 -19 -6 -46 -16 -66c30 3 60 5 77 5c22 0 37 -3 54 -22
c24 -23 41 -102 35 -194c-71 72 -169 144 -251 187c-8 -17 -23 -42 -37 -54c95 -41 214 -126 280 -205c-5 -26 -11 -53 -19 -79c-60 53 -145 110 -212 144c-8 -15 -24 -40 -36 -53c74 -31 171 -90 226 -143c-10 -22 -21 -42 -34 -61c-49 29 -101 56 -152 79
c-9 -15 -25 -37 -36 -49c32 -13 65 -29 97 -46c-16 -38 -45 -88 -71 -126l50 -25c27 36 57 85 72 120c26 -15 49 -30 72 -47c-12 -32 -34 -74 -55 -106l49 -25c20 27 41 65 55 93c21 -18 40 -36 56 -54zM516 521h127c3 -34 3 -68 3 -100v-47h-130v147zM851 374h-130v48
c0 32 -1 66 -4 99h134v-147zM923 586h-214c-9 59 -28 116 -59 171c86 62 196 107 318 131c-17 16 -37 45 -48 65c-117 -28 -223 -75 -308 -141c-45 55 -108 105 -195 147c-11 -16 -35 -44 -51 -59c89 -37 149 -83 191 -135c-39 -37 -74 -78 -100 -124l64 -22
c19 33 44 63 73 91c21 -41 33 -82 41 -124h-187v-276h198v-84h-228v-67h228v-112h75v112h230v67h-230v84h202v276z" />
</svg>
