<?xml version="1.0" standalone="no"?>
<!DOCTYPE svg PUBLIC "-//W3C//DTD SVG 1.1//EN" "http://www.w3.org/Graphics/SVG/1.1/DTD/svg11.dtd" >
<svg xmlns="http://www.w3.org/2000/svg" xmlns:xlink="http://www.w3.org/1999/xlink" version="1.1" viewBox="-10 0 1010 1000">
   <path fill="currentColor"
d="M817 212v-77h-287v77h287zM817 344v-79h-287v79h287zM889 79v320h-427v-320h427zM303 275v-122h-153v122h153zM303 456v-122h-153v122h153zM303 638v-124h-153v124h153zM370 91v608h-285v-608h285zM143 731l63 19c-30 64 -72 139 -106 188c-13 -10 -40 -27 -55 -35
c35 -47 72 -113 98 -172zM252 759l52 -27c35 47 75 108 95 147l-56 32c-18 -41 -58 -106 -91 -152zM953 525h-359c-9 24 -21 49 -34 71h369s-1 21 -2 31c-11 199 -23 276 -45 303c-14 17 -29 24 -51 26c-19 2 -51 2 -84 0c-2 -20 -7 -47 -17 -65c32 3 59 4 72 4
s20 -1 27 -10c13 -16 24 -76 33 -228h-58c-38 123 -104 230 -181 302c-9 -12 -30 -34 -44 -45c72 -60 129 -152 163 -257h-78c-46 105 -119 198 -194 260c-9 -12 -30 -36 -43 -47c69 -50 133 -127 174 -213h-77c-30 45 -65 84 -100 115c-10 -12 -33 -35 -47 -45
c61 -50 115 -122 150 -202h-112v-62h538v62z" />
</svg>
