<?xml version="1.0" standalone="no"?>
<!DOCTYPE svg PUBLIC "-//W3C//DTD SVG 1.1//EN" "http://www.w3.org/Graphics/SVG/1.1/DTD/svg11.dtd" >
<svg xmlns="http://www.w3.org/2000/svg" xmlns:xlink="http://www.w3.org/1999/xlink" version="1.1" viewBox="-10 0 1010 1000">
   <path fill="currentColor"
d="M804 295l59 10c-5 38 -13 73 -24 108c40 41 84 95 105 131l-43 42c-17 -30 -51 -76 -83 -115c-18 40 -40 75 -65 103c-10 -11 -33 -30 -48 -39c55 -56 85 -141 99 -240zM501 296l59 9c-6 35 -14 69 -23 102c30 35 66 80 83 108l-45 42c-12 -24 -36 -58 -59 -90
c-22 51 -48 96 -80 131c-10 -11 -34 -30 -48 -38c60 -61 97 -155 113 -264zM136 151v174h166v-174h-166zM372 737l8 64c-113 37 -234 76 -324 105l-16 -71l42 -12v-339h55v324l55 -16v-402h-114v-304h285v304h-112v138h107v66h-107v180zM696 245v276c58 122 167 252 264 314
c-16 14 -39 39 -49 58c-75 -57 -154 -154 -215 -256v320h-64v-313c-60 107 -142 202 -224 257c-10 -17 -30 -42 -46 -55c107 -62 214 -194 270 -325v-276h-220v-66h220v-137h64v137h235v66h-235z" />
</svg>
