<?xml version="1.0" standalone="no"?>
<!DOCTYPE svg PUBLIC "-//W3C//DTD SVG 1.1//EN" "http://www.w3.org/Graphics/SVG/1.1/DTD/svg11.dtd" >
<svg xmlns="http://www.w3.org/2000/svg" xmlns:xlink="http://www.w3.org/1999/xlink" version="1.1" viewBox="-10 0 1010 1000">
   <path fill="currentColor"
d="M844 249h-371v91h371v-91zM139 151v174h163v-174h-163zM908 393h-435c-1 165 -16 398 -98 560c-12 -11 -40 -28 -55 -33c17 -36 32 -74 44 -113c-108 35 -223 71 -307 99l-16 -71c14 -4 29 -8 45 -11v-339h53v323l56 -16v-402h-111v-304h276v304h-108v138h104v66h-104
v180l109 -33l7 53c38 -140 43 -301 43 -422v-270c148 -12 319 -35 416 -61l52 49c-109 29 -264 49 -406 61v44h435v198zM693 458v427c0 34 -8 50 -30 60c-24 9 -63 10 -127 9c-2 -16 -10 -38 -18 -54c47 1 89 1 100 1c13 -1 17 -4 17 -16v-125c-53 34 -106 67 -153 94
l-28 -53c47 -21 114 -58 181 -93v-42l-41 27c-15 -32 -49 -80 -80 -115l40 -25c30 33 65 79 81 110v-148h-147v-57h205zM922 458v423c0 34 -7 49 -29 60c-22 9 -57 9 -115 9c-3 -16 -11 -38 -19 -54c41 1 80 1 90 0c12 0 15 -3 15 -14v-118c-41 26 -83 54 -121 77l-29 -53
c41 -17 93 -48 150 -79v-47l-39 27c-15 -31 -50 -79 -82 -113l40 -26c29 32 63 75 81 105v-140h-147v-57h205z" />
</svg>
