<?xml version="1.0" standalone="no"?>
<!DOCTYPE svg PUBLIC "-//W3C//DTD SVG 1.1//EN" "http://www.w3.org/Graphics/SVG/1.1/DTD/svg11.dtd" >
<svg xmlns="http://www.w3.org/2000/svg" xmlns:xlink="http://www.w3.org/1999/xlink" version="1.1" viewBox="-10 0 1010 1000">
   <path fill="currentColor"
d="M163 483v93c45 -5 93 -9 142 -14v-79h-142zM305 207h-142v82h142v-82zM305 427v-82h-142v82h142zM367 519l54 21c-16 25 -34 51 -54 75v257c0 37 -10 54 -33 66c-24 10 -63 11 -126 11c-3 -17 -14 -44 -22 -59c47 1 90 1 101 0c13 -1 18 -4 18 -18v-188
c-71 70 -154 132 -234 178c-6 -14 -23 -44 -34 -58c88 -44 177 -110 248 -184c-83 10 -164 19 -231 25l-8 -61c18 -1 37 -3 58 -4v-432h69c12 -33 24 -75 30 -105l71 10c-13 32 -28 67 -41 95h134v371zM502 822l144 -59c1 20 6 51 10 66c-171 78 -199 92 -215 108
c-7 -15 -25 -42 -36 -53c14 -11 31 -37 31 -82v-741h66v305h139v70h-139v386zM780 861h86c19 0 24 -24 26 -119c16 13 42 25 61 30c-6 115 -23 157 -84 157h-99c-67 0 -86 -24 -86 -112v-757h68v306h161v70h-161v382c0 37 4 43 28 43z" />
</svg>
