<?xml version="1.0" standalone="no"?>
<!DOCTYPE svg PUBLIC "-//W3C//DTD SVG 1.1//EN" "http://www.w3.org/Graphics/SVG/1.1/DTD/svg11.dtd" >
<svg xmlns="http://www.w3.org/2000/svg" xmlns:xlink="http://www.w3.org/1999/xlink" version="1.1" viewBox="-10 0 1010 1000">
   <path fill="currentColor"
d="M381 142h-216v72h216v-72zM165 333h216v-68h-216v68zM451 388h-286v570h-73v-872h359v302zM357 657v41c83 -6 178 -13 273 -20v-21h-273zM630 499h-273v39h273v-39zM630 617v-38h-273v38h273zM735 604l55 18c-27 33 -61 63 -99 91v138c0 27 -7 42 -29 52
c-22 9 -58 9 -116 9c-3 -14 -14 -34 -24 -48c45 1 82 1 93 0c12 -1 15 -3 15 -14v-98c-109 63 -244 107 -378 138c-4 -12 -21 -35 -31 -47c127 -23 253 -62 355 -116c-125 10 -249 19 -342 26l-7 -47l70 -4v-247h102c9 -22 18 -47 23 -65l68 14c-11 18 -20 35 -29 51h230
v194c17 -13 31 -29 44 -45zM613 333h227v-68h-227v68zM840 142h-227v72h227v-72zM913 86v773c0 42 -9 61 -36 73c-27 11 -72 13 -138 12c-3 -19 -12 -48 -22 -66c47 1 92 1 104 0c14 0 19 -5 19 -19v-471h-298v-302h371z" />
</svg>
