<?xml version="1.0" standalone="no"?>
<!DOCTYPE svg PUBLIC "-//W3C//DTD SVG 1.1//EN" "http://www.w3.org/Graphics/SVG/1.1/DTD/svg11.dtd" >
<svg xmlns="http://www.w3.org/2000/svg" xmlns:xlink="http://www.w3.org/1999/xlink" version="1.1" viewBox="-10 0 1010 1000">
   <path fill="currentColor"
d="M957 433l-63 34c-10 -17 -24 -38 -40 -61c-317 20 -355 25 -380 34c-2 -15 -15 -50 -23 -69c20 -4 41 -26 68 -59c12 -15 39 -49 69 -93h-135v-67h179c21 -35 43 -74 61 -111l74 25c-17 29 -35 58 -52 86h241v67h-284c-37 52 -74 100 -111 143l252 -14
c-24 -31 -47 -63 -69 -90l59 -27c52 63 121 150 154 202zM132 489v91h88v-91h-88zM132 347v89h88v-89h-88zM353 436v-89h-81v89h81zM353 580v-91h-81v91h81zM439 781h-159v177h-68v-177h-166v-64h166v-81h-135v-345h137v-73h-156v-64h156v-109h67v109h144v64h-144v73h130
v345h-131v81h159v64zM569 609l32 -40c74 29 172 72 225 97l-31 46c-52 -27 -151 -72 -226 -103zM563 538v135c0 37 -2 78 -10 121c76 -21 183 -53 290 -88v-168h-280zM914 478v397c0 37 -8 54 -35 63c-27 10 -70 11 -137 11c-4 -18 -13 -41 -21 -58c48 1 93 1 105 1
c13 -1 17 -5 17 -17v-116c-97 38 -195 74 -273 102l-19 -54c-11 56 -31 110 -70 153c-9 -15 -36 -43 -51 -52c57 -69 64 -160 64 -236v-194h420z" />
</svg>
