<?xml version="1.0" standalone="no"?>
<!DOCTYPE svg PUBLIC "-//W3C//DTD SVG 1.1//EN" "http://www.w3.org/Graphics/SVG/1.1/DTD/svg11.dtd" >
<svg xmlns="http://www.w3.org/2000/svg" xmlns:xlink="http://www.w3.org/1999/xlink" version="1.1" viewBox="-10 0 1010 1000">
   <path fill="currentColor"
d="M137 492v86h80v-86h-80zM137 358v85h80v-85h-80zM336 443v-85h-73v85h73zM336 578v-86h-73v86h73zM271 637v82h150v63h-150v176h-62v-176h-165v-63h165v-82h-130v-338h132v-86h-153v-64h153v-106h64v106h136v64h-136v86h121v338h-125zM550 759l45 -33
c38 31 82 78 102 110l-47 37c-19 -33 -62 -81 -100 -114zM740 461h121v-49h-121v49zM551 461h124v-49h-124v49zM675 312h-124v54h124v-54zM861 312h-121v54h121v-54zM962 660v60h-124v165c0 33 -6 50 -31 60c-23 10 -59 11 -115 11c-3 -18 -12 -41 -21 -59c40 1 77 1 87 0
c12 0 15 -3 15 -13v-164h-326v-60h326v-56h43c-4 -15 -11 -32 -18 -45c24 1 45 1 53 1c7 -1 10 -3 10 -11v-42h-121v87h-65v-87h-124v101h-63v-350h187v-58h-225v-59h225v-98h65v98h125c-24 -21 -65 -47 -100 -65l34 -36c38 17 85 43 107 65l-32 36h75v59h-209v58h182v291
c0 29 -4 42 -24 52c-13 8 -34 10 -60 11v48h124z" />
</svg>
