<?xml version="1.0" standalone="no"?>
<!DOCTYPE svg PUBLIC "-//W3C//DTD SVG 1.1//EN" "http://www.w3.org/Graphics/SVG/1.1/DTD/svg11.dtd" >
<svg xmlns="http://www.w3.org/2000/svg" xmlns:xlink="http://www.w3.org/1999/xlink" version="1.1" viewBox="-10 0 1010 1000">
   <path fill="currentColor"
d="M947 468h-412v92h351v69h-351v98h385v71h-385v161h-75v-161h-374v-71h374v-98h-337v-69h337v-92h-405v-69h256c-11 -43 -35 -106 -61 -153l68 -21c26 49 55 115 65 156l-50 18h322l-40 -13c23 -45 51 -114 66 -165h-560v-68h339v-110h75v110h351v68h-185l62 16
c-27 56 -57 118 -83 162h267v69z" />
</svg>
