<?xml version="1.0" standalone="no"?>
<!DOCTYPE svg PUBLIC "-//W3C//DTD SVG 1.1//EN" "http://www.w3.org/Graphics/SVG/1.1/DTD/svg11.dtd" >
<svg xmlns="http://www.w3.org/2000/svg" xmlns:xlink="http://www.w3.org/1999/xlink" version="1.1" viewBox="-10 0 1010 1000">
   <path fill="currentColor"
d="M587 680v-221h-260v-73h260v-192c-66 6 -132 10 -193 12c-2 -19 -12 -46 -21 -64c160 -8 356 -27 467 -58l37 66c-59 16 -135 27 -214 37v199h258v73h-258v221h222v73h-515v-73h217zM234 216l-70 22c-11 -42 -35 -110 -50 -161l66 -18c18 50 41 115 54 157zM273 504
l35 15c-24 90 -58 189 -98 262c19 11 42 30 76 50c70 43 159 50 277 50c126 0 288 -9 398 -21c-8 20 -21 55 -22 77c-74 5 -261 11 -378 11c-131 0 -217 -11 -291 -55c-40 -24 -76 -58 -99 -58c-22 0 -56 62 -86 126l-51 -68c39 -54 76 -97 108 -115c32 -56 61 -133 81 -206
h-133c31 -59 68 -144 98 -220h-138v-67h234c-28 71 -64 154 -96 222h74z" />
</svg>
