<?xml version="1.0" standalone="no"?>
<!DOCTYPE svg PUBLIC "-//W3C//DTD SVG 1.1//EN" "http://www.w3.org/Graphics/SVG/1.1/DTD/svg11.dtd" >
<svg xmlns="http://www.w3.org/2000/svg" xmlns:xlink="http://www.w3.org/1999/xlink" version="1.1" viewBox="-10 0 1010 1000">
   <path fill="currentColor"
d="M729 227h-86v119h86v-119zM872 346v-119h-92v119h92zM780 533h92v-128h-92v128zM643 533h86v-128h-86v128zM643 593v36h-60v-462h139v-124h65v124h147v454h-62v-28h-85v227h-65v-227h-79zM393 818v-324c-33 39 -67 72 -102 99c-8 -17 -26 -44 -37 -55
c88 -64 176 -174 224 -296h-189v-62h104v-136h65v136h50l11 -2l37 22c-20 63 -48 124 -81 179c30 37 83 105 98 125l-41 58c-13 -28 -46 -81 -74 -123v379h-65zM261 236l-59 43c-26 -52 -89 -124 -147 -175l55 -38c59 49 123 119 151 170zM240 436v321
c47 75 137 109 254 113c112 5 345 2 467 -6c-9 17 -20 49 -24 71c-113 4 -329 6 -442 2c-131 -5 -222 -41 -285 -119c-42 43 -87 86 -135 129l-39 -69c42 -31 92 -74 136 -115v-258h-123v-69h191z" />
</svg>
