<?xml version="1.0" standalone="no"?>
<!DOCTYPE svg PUBLIC "-//W3C//DTD SVG 1.1//EN" "http://www.w3.org/Graphics/SVG/1.1/DTD/svg11.dtd" >
<svg xmlns="http://www.w3.org/2000/svg" xmlns:xlink="http://www.w3.org/1999/xlink" version="1.1" viewBox="-10 0 1010 1000">
   <path fill="currentColor"
d="M842 232v-108h-118v108h118zM673 232v-108h-115v108h115zM507 232v-108h-112v108h112zM908 70v216h-576v-216h576zM633 488v-74h-186v74h186zM633 612v-73h-186v73h186zM633 743v-80h-186v80h186zM381 842v-364c-20 29 -41 54 -63 76c-6 -14 -25 -46 -38 -61
c55 -51 105 -126 134 -204l60 19c-6 19 -15 36 -24 55h173c-8 -18 -17 -35 -26 -51l68 -16c12 20 27 45 36 67h213v51h-211v74h183v51h-183v73h185v51h-185v80h225v54h-481v45h-66zM228 211l-65 25c-13 -45 -41 -115 -61 -167l61 -20c22 53 50 120 65 162zM253 507l34 13
c-21 87 -53 182 -91 254c22 9 46 30 89 54c70 41 160 47 277 47c128 0 293 -8 405 -20c-8 19 -20 53 -21 75c-79 5 -267 11 -386 11c-129 0 -217 -10 -291 -53c-40 -24 -75 -55 -99 -55c-21 0 -56 60 -85 119l-49 -63c27 -36 52 -68 76 -89c38 -58 71 -146 92 -225h-132
c30 -60 66 -146 95 -226h-118v-64h212c-27 72 -61 156 -91 225h71z" />
</svg>
