<?xml version="1.0" standalone="no"?>
<!DOCTYPE svg PUBLIC "-//W3C//DTD SVG 1.1//EN" "http://www.w3.org/Graphics/SVG/1.1/DTD/svg11.dtd" >
<svg xmlns="http://www.w3.org/2000/svg" xmlns:xlink="http://www.w3.org/1999/xlink" version="1.1" viewBox="-10 0 1010 1000">
   <path fill="currentColor"
d="M943 169h-230c-15 35 -33 66 -51 92c-11 -9 -38 -26 -52 -33c38 -47 63 -115 77 -184l61 13c-5 21 -11 41 -17 61h212v51zM439 523v58h354v-58h-354zM524 785l155 -37c-2 16 -1 38 0 49c-178 48 -204 58 -219 68c-5 -14 -18 -38 -26 -49c12 -8 29 -24 29 -65v-36
c-43 18 -88 33 -131 44c-7 -12 -27 -37 -38 -48c82 -18 173 -48 237 -85h-155v-147h482v147h-241c-26 22 -58 42 -93 60v99zM913 793l-46 38c-52 -42 -156 -106 -240 -147l44 -34c30 15 63 33 97 50c31 -20 66 -48 88 -67l45 34c-29 22 -60 42 -89 59c39 23 75 47 101 67z
M938 391v50h-645v-50h287v-45h-234v-50h234v-36h67v36h236v50h-236v45h291zM431 202l38 -32c30 20 71 49 92 68l-38 37c-21 -20 -61 -51 -92 -73zM745 206l32 -35c36 19 81 47 104 66l-33 39c-23 -20 -68 -50 -103 -70zM614 169h-199c-20 43 -43 82 -69 112
c-11 -9 -38 -27 -54 -35c47 -50 81 -124 101 -201l62 15c-6 20 -12 39 -18 58h177v51zM214 213l-64 19c-10 -43 -32 -111 -48 -163l62 -16c17 51 38 118 50 160zM247 507l33 13c-19 88 -49 186 -84 260c21 10 45 31 86 55c69 43 160 50 279 50c131 0 292 -9 402 -20
c-9 18 -18 51 -20 71c-76 5 -267 11 -384 11c-132 0 -219 -11 -293 -55c-40 -25 -76 -59 -99 -59c-22 0 -56 63 -85 126l-48 -60c31 -46 63 -85 91 -108c32 -57 60 -141 78 -216h-128c28 -60 62 -148 89 -226h-114v-64h204c-25 71 -57 156 -85 225h68z" />
</svg>
