<?xml version="1.0" standalone="no"?>
<!DOCTYPE svg PUBLIC "-//W3C//DTD SVG 1.1//EN" "http://www.w3.org/Graphics/SVG/1.1/DTD/svg11.dtd" >
<svg xmlns="http://www.w3.org/2000/svg" xmlns:xlink="http://www.w3.org/1999/xlink" version="1.1" viewBox="-10 0 1010 1000">
   <path fill="currentColor"
d="M306 52v121h206v67h-206v141h145l14 -3l44 20c-27 118 -72 217 -129 298c51 54 94 106 123 149l-56 47c-26 -41 -64 -89 -110 -140c-68 83 -151 144 -240 187c-10 -16 -35 -44 -51 -55c92 -41 176 -101 244 -183c-60 -63 -126 -126 -188 -178l52 -39
c58 48 120 105 178 162c38 -58 69 -123 92 -198h-356v-67h166v-141h-180v-67h180v-121h72zM887 81l51 34c-40 80 -91 175 -135 250c100 85 124 157 124 220c0 52 -15 95 -50 116c-17 11 -41 17 -64 20c-30 3 -65 3 -96 1c-1 -20 -9 -48 -22 -67c34 3 66 3 89 2
c17 -1 33 -4 45 -10c21 -11 29 -37 28 -68c0 -56 -29 -123 -130 -203c41 -70 82 -156 112 -224h-195v803h-73v-871h305z" />
</svg>
