<?xml version="1.0" standalone="no"?>
<!DOCTYPE svg PUBLIC "-//W3C//DTD SVG 1.1//EN" "http://www.w3.org/Graphics/SVG/1.1/DTD/svg11.dtd" >
<svg xmlns="http://www.w3.org/2000/svg" xmlns:xlink="http://www.w3.org/1999/xlink" version="1.1" viewBox="-10 0 1010 1000">
   <path fill="currentColor"
d="M225 780l70 21c-47 62 -123 122 -191 158c-11 -13 -38 -40 -55 -53c67 -31 136 -77 176 -126zM366 816l56 -35c54 37 123 91 156 129l-58 41c-32 -38 -99 -95 -154 -135zM466 434v-81h-275v81h275zM466 571v-81h-275v81h275zM466 711v-84h-275v84h275zM360 44v99h226v64
h-226v87h182v476h-424v-476h170v-250h72zM909 94l51 34c-35 94 -81 209 -123 302c88 94 111 172 111 242c0 60 -14 109 -45 130c-16 12 -38 19 -61 22c-24 3 -56 3 -83 2c-1 -21 -8 -53 -19 -74c28 2 54 2 74 2c14 -1 29 -5 40 -12c18 -12 24 -42 24 -78
c0 -62 -24 -136 -112 -226c37 -85 76 -194 102 -272h-148v790h-71v-859h249z" />
</svg>
