<?xml version="1.0" standalone="no"?>
<!DOCTYPE svg PUBLIC "-//W3C//DTD SVG 1.1//EN" "http://www.w3.org/Graphics/SVG/1.1/DTD/svg11.dtd" >
<svg xmlns="http://www.w3.org/2000/svg" xmlns:xlink="http://www.w3.org/1999/xlink" version="1.1" viewBox="-10 0 1010 1000">
   <path fill="currentColor"
d="M908 232l-59 28c-18 -42 -55 -109 -87 -158l57 -23c32 49 70 112 89 153zM243 177l-61 27c-12 -34 -40 -89 -68 -130l59 -24c28 39 58 92 70 127zM423 575v-138h-64v123c0 14 2 15 15 15h42h7zM139 847h284v-81h-284v81zM206 437h-67v183c56 -41 67 -94 67 -139v-44z
M253 274v105h60v-105h-60zM423 620h-53c-44 0 -57 -10 -57 -60v-123h-60v45c0 57 -17 128 -87 176c-6 -7 -17 -16 -27 -24v75h284v-89zM370 274v105h117v574h-64v-46h-284v52h-63v-580h123v-105h-153v-67h284c31 -46 70 -117 91 -166l67 24c-27 47 -59 101 -87 142h125v67
h-156zM817 878h60c21 0 25 -20 27 -134c14 12 40 23 59 27c-5 133 -22 169 -79 169h-76c-63 0 -79 -20 -79 -92v-348c-18 156 -62 320 -169 456c-12 -14 -37 -34 -54 -43c127 -163 158 -367 166 -540h-135v-67h137v-47v-216h67v216v47h194v67h-196c-1 19 -2 37 -3 56h58v419
c0 26 4 30 23 30z" />
</svg>
