<?xml version="1.0" standalone="no"?>
<!DOCTYPE svg PUBLIC "-//W3C//DTD SVG 1.1//EN" "http://www.w3.org/Graphics/SVG/1.1/DTD/svg11.dtd" >
<svg xmlns="http://www.w3.org/2000/svg" xmlns:xlink="http://www.w3.org/1999/xlink" version="1.1" viewBox="-10 0 1010 1000">
   <path fill="currentColor"
d="M274 262v-41c-63 21 -127 40 -190 55c-9 -17 -26 -40 -40 -55c170 -34 367 -100 474 -183l57 30c-7 6 -14 12 -22 18c133 61 279 94 409 116c-15 15 -35 40 -45 60c-131 -28 -273 -68 -417 -142c-62 35 -132 67 -207 94h419v48h-176v62h307v51h-307v82h101
c17 -23 34 -50 44 -70l67 15c-14 20 -29 38 -42 55h220v53h-837v-53h202c-8 -19 -19 -40 -31 -57l61 -13c14 20 30 49 39 70h105v-82h-316v-51h316v-62h-191zM380 622h-236c54 32 113 71 168 109c27 -33 51 -69 68 -109zM448 839l-40 54c-23 -22 -53 -48 -88 -76
c-69 66 -150 112 -237 143c-9 -17 -26 -41 -39 -54c82 -26 159 -68 223 -128c-56 -41 -117 -82 -173 -116l32 -40h-53v-60h338l13 -3l42 18c-24 74 -58 138 -102 192c33 25 63 49 84 70zM836 623h-229c26 55 64 104 111 146c49 -40 89 -89 118 -146zM883 559l42 18
c-32 97 -87 172 -155 232c56 38 121 67 192 85c-15 14 -35 41 -45 59c-75 -22 -144 -57 -203 -102c-69 47 -149 81 -233 103c-7 -16 -24 -43 -36 -58c79 -17 154 -47 218 -88c-50 -49 -91 -107 -121 -172l42 -13h-77v-61h363z" />
</svg>
