<?xml version="1.0" standalone="no"?>
<!DOCTYPE svg PUBLIC "-//W3C//DTD SVG 1.1//EN" "http://www.w3.org/Graphics/SVG/1.1/DTD/svg11.dtd" >
<svg xmlns="http://www.w3.org/2000/svg" xmlns:xlink="http://www.w3.org/1999/xlink" version="1.1" viewBox="-10 0 1010 1000">
   <path fill="currentColor"
d="M402 775l5 60c-119 31 -248 64 -340 87l-17 -66c43 -9 99 -22 160 -36v-286h-149v-65h149v-108h-95v-46c-16 14 -32 29 -48 42c-4 -16 -21 -56 -30 -74c76 -57 156 -148 204 -245l56 26c-6 13 -13 28 -21 42c61 41 124 91 163 131l-33 61c-39 -42 -102 -96 -163 -139
c-33 50 -70 97 -109 137h245v65h-107v108h138v65h-138v272zM80 600l48 -13c18 58 35 134 40 183l-51 15c-5 -50 -21 -126 -37 -185zM341 768l-43 -16c16 -47 35 -125 45 -177l54 18c-19 59 -38 129 -56 175zM535 379v159h294v-159h-294zM822 890h36c11 0 21 0 26 -3
c6 -3 11 -10 14 -22c2 -14 3 -46 4 -86c14 12 39 25 58 31c-1 40 -5 82 -11 98s-17 27 -32 33c-13 6 -36 8 -52 8h-56c-20 0 -45 -5 -59 -18c-16 -11 -22 -28 -22 -87v-243h-81c-18 169 -63 291 -231 360c-7 -17 -26 -44 -41 -57c150 -57 189 -162 203 -303h-110v-285h178
v-273h71v103h228v67h-228v103h183v285h-105v251c0 18 1 30 6 34c5 3 11 4 21 4z" />
</svg>
