<?xml version="1.0" standalone="no"?>
<!DOCTYPE svg PUBLIC "-//W3C//DTD SVG 1.1//EN" "http://www.w3.org/Graphics/SVG/1.1/DTD/svg11.dtd" >
<svg xmlns="http://www.w3.org/2000/svg" xmlns:xlink="http://www.w3.org/1999/xlink" version="1.1" viewBox="-10 0 1010 1000">
   <path fill="currentColor"
d="M231 534v285c38 -9 77 -17 117 -26l6 60c-102 24 -208 50 -289 68l-19 -66c35 -6 79 -15 126 -25v-296h-112v-65h112v-108h-67v-54c-12 14 -24 25 -35 37c-4 -15 -20 -50 -30 -66c62 -58 122 -145 158 -234l55 18c-5 12 -9 24 -15 36c43 43 95 96 123 129l-43 46
c-24 -31 -67 -79 -108 -120c-27 52 -61 101 -96 143h203v65h-86v108h112v65h-112zM64 600l45 -11c19 59 37 133 44 183l-47 13c-7 -50 -26 -126 -42 -185zM289 772l-41 -14c16 -49 34 -129 43 -183l51 15c-17 61 -36 134 -53 182zM586 213v160h113v65h-113v125h111v61h-111
v181l112 -12v64l-295 33v-374h58v304l63 -8v-374h-147v-65h147v-160h-64c-17 30 -35 59 -54 81c-11 -10 -37 -28 -53 -37c48 -54 86 -134 109 -214l62 14c-10 31 -20 63 -34 93h204v63h-108zM945 121v607c0 31 -6 50 -26 62s-50 13 -101 13c-2 -18 -11 -45 -19 -62
c34 1 62 1 72 0c9 0 13 -3 13 -14v-540h-100v770h-62v-836h223z" />
</svg>
