<?xml version="1.0" standalone="no"?>
<!DOCTYPE svg PUBLIC "-//W3C//DTD SVG 1.1//EN" "http://www.w3.org/Graphics/SVG/1.1/DTD/svg11.dtd" >
<svg xmlns="http://www.w3.org/2000/svg" xmlns:xlink="http://www.w3.org/1999/xlink" version="1.1" viewBox="-10 0 1010 1000">
   <path fill="currentColor"
d="M884 684l66 24c-81 125 -235 206 -425 251c-7 -18 -25 -43 -40 -59c177 -35 328 -108 399 -216zM786 411l60 27c-71 66 -182 120 -282 154c-11 -14 -29 -35 -44 -48c94 -28 204 -78 266 -133zM831 543l59 26c-75 83 -202 154 -322 195c-10 -15 -28 -38 -44 -52
c114 -33 241 -97 307 -169zM786 203h-206c20 37 37 87 43 119l-35 11h186l-34 -9c16 -33 36 -85 46 -121zM805 333h152v64h-457v131c0 124 -14 306 -89 428c-12 -11 -41 -28 -58 -36c12 -20 23 -40 31 -62c-114 25 -233 49 -323 68l-17 -68c43 -7 96 -17 154 -28v-311h-143
v-63h143v-105h-97v-36l-33 33c-11 -15 -33 -37 -47 -46c86 -77 147 -179 178 -258h67c56 55 123 132 155 183l-53 54c-27 -45 -77 -116 -126 -167c-28 53 -66 115 -117 174h245v63h-109v105h130v63h-130v299l130 -26l4 38c33 -101 38 -215 38 -302v-195h124
c-7 -33 -23 -79 -39 -116l53 -14h-132v-64h209v-94h71v94h224v64h-128l45 10c-19 43 -39 88 -55 120zM74 587l50 -12c18 60 33 138 36 188l-54 13c-1 -51 -15 -129 -32 -189zM339 758l-49 -13c15 -49 33 -128 39 -180l56 14c-14 61 -31 132 -46 179z" />
</svg>
