<?xml version="1.0" standalone="no"?>
<!DOCTYPE svg PUBLIC "-//W3C//DTD SVG 1.1//EN" "http://www.w3.org/Graphics/SVG/1.1/DTD/svg11.dtd" >
<svg xmlns="http://www.w3.org/2000/svg" xmlns:xlink="http://www.w3.org/1999/xlink" version="1.1" viewBox="-10 0 1010 1000">
   <path fill="currentColor"
d="M725 242v-81h-88v81h88zM861 438v-133h-81v133h81zM501 305v133h82v-133h-82zM725 305h-88v133h88v-133zM578 242v-81h-160v-67h528v67h-161v81h136v259h-478v-259h135zM401 783l4 60c-120 28 -247 58 -339 79l-16 -66c42 -8 97 -19 157 -32v-290h-146v-65h146v-108h-93
v-44c-16 15 -32 30 -48 44c-4 -17 -21 -57 -30 -75c76 -59 154 -150 201 -248l55 26c-6 14 -13 28 -21 43c59 42 118 92 155 132l-35 60c-36 -41 -96 -95 -153 -139c-31 49 -67 96 -104 136h233v65h-100v108h128v65h-128v278zM81 600l47 -13c17 58 34 135 39 184l-50 14
c-4 -50 -20 -126 -36 -185zM336 773l-44 -15c16 -49 36 -129 46 -183l53 18c-18 61 -38 134 -55 180zM782 650h-158c-20 33 -39 65 -58 92c43 14 86 29 128 44c40 -36 69 -80 88 -136zM956 907l-58 49c-49 -32 -116 -66 -191 -98c-70 49 -162 80 -284 101
c-6 -20 -18 -46 -28 -60c100 -14 179 -36 239 -70c-52 -20 -109 -40 -166 -57c24 -35 53 -77 78 -122h-126v-64h162c14 -28 27 -57 38 -84l70 18c-9 22 -20 43 -32 66h293v64h-100c-20 66 -49 120 -90 163c75 31 144 63 195 94z" />
</svg>
