<?xml version="1.0" standalone="no"?>
<!DOCTYPE svg PUBLIC "-//W3C//DTD SVG 1.1//EN" "http://www.w3.org/Graphics/SVG/1.1/DTD/svg11.dtd" >
<svg xmlns="http://www.w3.org/2000/svg" xmlns:xlink="http://www.w3.org/1999/xlink" version="1.1" viewBox="-10 0 1010 1000">
   <path fill="currentColor"
d="M811 452l-38 36c-23 -33 -64 -81 -102 -122c-23 55 -58 100 -114 132c-6 -12 -23 -32 -33 -42c61 -33 95 -85 112 -150h-101v-54h113c4 -23 6 -45 8 -70h51c-2 25 -4 47 -8 70h109v54h-119l-2 6c44 44 97 103 124 140zM841 518v-367h-335v367h335zM904 89v491h-458v-491
h458zM757 744l-49 35c-14 -40 -51 -104 -86 -150l47 -30c36 44 74 104 88 145zM371 765l6 59c-110 35 -226 71 -311 97l-17 -66c40 -10 91 -24 148 -40v-281h-135v-65h135v-108h-84v-45c-15 16 -30 31 -45 45c-4 -17 -21 -57 -30 -75c71 -59 144 -151 187 -248l54 26
c-6 13 -13 27 -20 42c57 48 116 107 151 151l-40 57c-33 -45 -89 -104 -143 -152c-29 48 -62 94 -96 134h223v65h-98v108h127v65h-127v265zM77 600l46 -13c18 58 34 134 39 183l-49 15c-4 -50 -20 -126 -36 -185zM320 764l-42 -16c15 -47 35 -122 43 -173l54 18
c-18 58 -38 127 -55 171zM426 895l-53 -34c31 -58 54 -154 67 -226l52 20c-14 72 -37 174 -66 240zM622 875h126c32 0 39 -13 42 -111c14 11 39 21 56 25c-7 120 -25 149 -92 149h-138c-79 0 -100 -20 -100 -91v-210h63v210c0 24 6 28 43 28zM805 643l50 -27
c42 71 87 164 103 222l-53 32c-17 -60 -59 -155 -100 -227z" />
</svg>
