<?xml version="1.0" standalone="no"?>
<!DOCTYPE svg PUBLIC "-//W3C//DTD SVG 1.1//EN" "http://www.w3.org/Graphics/SVG/1.1/DTD/svg11.dtd" >
<svg xmlns="http://www.w3.org/2000/svg" xmlns:xlink="http://www.w3.org/1999/xlink" version="1.1" viewBox="-10 0 1010 1000">
   <path fill="currentColor"
d="M762 161l58 26c-17 54 -43 111 -68 156l103 -12c-9 -26 -20 -53 -30 -76l48 -14c26 55 52 129 62 172l-51 17c-3 -14 -8 -33 -14 -53c-136 21 -160 26 -174 34c-3 -14 -13 -43 -21 -59c12 -3 22 -15 30 -34c10 -18 44 -90 57 -157zM922 93v62h-481v-62h481zM676 418
l-50 15c-3 -15 -7 -33 -11 -53c-134 21 -158 26 -171 34c-4 -14 -13 -44 -21 -59c12 -3 23 -15 34 -33c11 -19 49 -90 65 -157l58 28c-20 53 -49 108 -77 152l98 -12c-7 -20 -14 -40 -21 -59l47 -11c21 50 41 115 49 155zM265 535v277c43 -9 88 -18 133 -28l6 63
c-115 28 -238 56 -330 77l-19 -71c40 -6 89 -16 144 -28v-290h-136v-66h136v-108h-83v-51c-16 14 -30 27 -46 39c-5 -16 -24 -53 -35 -70c77 -57 156 -143 201 -234l63 23c-7 12 -13 25 -20 38c57 43 113 94 150 131l-45 51c-33 -37 -88 -87 -139 -129
c-34 50 -74 97 -115 137h225v65h-90v109h121v65h-121zM79 600l52 -13c20 58 38 135 44 185l-55 14c-5 -49 -23 -126 -41 -186zM333 771l-46 -16c17 -48 39 -128 49 -182l58 18c-19 60 -41 134 -61 180zM819 622h-275v88h275v-88zM544 852h275v-88h-275v88zM478 949v-384h410
v381h-69v-37h-275v40h-66zM413 442h526v64h-526v-64z" />
</svg>
