<?xml version="1.0" standalone="no"?>
<!DOCTYPE svg PUBLIC "-//W3C//DTD SVG 1.1//EN" "http://www.w3.org/Graphics/SVG/1.1/DTD/svg11.dtd" >
<svg xmlns="http://www.w3.org/2000/svg" xmlns:xlink="http://www.w3.org/1999/xlink" version="1.1" viewBox="-10 0 1010 1000">
   <path fill="currentColor"
d="M671 477v112h117v-112h-117zM859 143h-337v101h337v-101zM902 668l45 38c-36 33 -80 66 -117 91c35 47 80 84 135 105c-15 13 -33 37 -42 55c-111 -53 -180 -163 -216 -305h-73v203l124 -32c-1 17 0 47 1 61c-153 44 -178 54 -193 65v-1l-1 1c-5 -16 -21 -46 -30 -61
c14 -10 40 -36 40 -78v-158h-71c-17 107 -50 215 -113 298c-11 -11 -38 -30 -53 -37c19 -27 36 -55 49 -85c-112 35 -232 69 -320 93l-17 -65c42 -10 97 -24 156 -39v-283h-145v-65h145v-108h-92v-45c-16 16 -32 31 -48 45c-4 -17 -21 -57 -30 -75c75 -59 153 -150 199 -248
l55 25c-6 15 -13 29 -21 44c58 42 117 92 154 132l-34 60c-36 -41 -96 -95 -152 -139c-31 49 -67 96 -104 136h229v65h-97v108h123v65h-123v267l119 -31l4 57c64 -137 71 -303 71 -431v-315h465v225h-402v90c0 58 -2 125 -10 193h99v-112h-86v-63h86v-97h60v97h117v-97h60
v97h81v63h-81v112h110v63h-197c10 37 25 72 43 103c34 -27 74 -62 98 -87zM81 600l46 -13c17 58 34 135 39 184l-50 14c-3 -50 -19 -126 -35 -185zM334 774l-44 -16c16 -49 36 -129 46 -183l52 18c-17 61 -38 134 -54 181z" />
</svg>
