<?xml version="1.0" standalone="no"?>
<!DOCTYPE svg PUBLIC "-//W3C//DTD SVG 1.1//EN" "http://www.w3.org/Graphics/SVG/1.1/DTD/svg11.dtd" >
<svg xmlns="http://www.w3.org/2000/svg" xmlns:xlink="http://www.w3.org/1999/xlink" version="1.1" viewBox="-10 0 1010 1000">
   <path fill="currentColor"
d="M873 788h-85c-63 0 -80 -20 -80 -94v-618h62v233h164v65h-164v320c0 32 3 37 25 37h74c19 0 23 -22 25 -119c15 11 38 22 56 26c-6 114 -21 150 -77 150zM599 218v-80h-147v80h147zM599 351v-81h-147v81h147zM653 84v321h-254v-321h254zM332 786l3 60
c-97 27 -200 55 -276 75l-13 -68c35 -7 83 -18 133 -30v-288h-123v-65h123v-109h-78v-46c-14 16 -28 32 -42 46c-4 -17 -18 -57 -27 -75c64 -59 131 -150 169 -248l47 26c-5 13 -11 27 -17 40c54 43 109 96 143 137l-28 63c-35 -43 -89 -99 -142 -144c-27 49 -56 96 -88 136
h204v65h-87v109h112v65h-112v275zM71 600l44 -14c14 58 28 133 32 183l-45 16c-3 -50 -17 -126 -31 -185zM291 776l-39 -18c13 -49 29 -129 38 -182l49 19c-16 62 -33 134 -48 181zM576 695v148c47 15 102 19 164 19c26 0 188 0 225 -2c-10 16 -20 46 -22 64h-205
c-142 0 -244 -21 -310 -124c-13 54 -32 102 -59 140c-11 -15 -32 -37 -48 -47c55 -74 72 -211 76 -326h61c-3 52 -7 104 -15 155c19 41 43 71 72 91v-286h-143v-58h309v58h-105v111h93v57h-93z" />
</svg>
