<?xml version="1.0" standalone="no"?>
<!DOCTYPE svg PUBLIC "-//W3C//DTD SVG 1.1//EN" "http://www.w3.org/Graphics/SVG/1.1/DTD/svg11.dtd" >
<svg xmlns="http://www.w3.org/2000/svg" xmlns:xlink="http://www.w3.org/1999/xlink" version="1.1" viewBox="-10 0 1010 1000">
   <path fill="currentColor"
d="M88 518l-12 -65c40 -7 89 -16 143 -26v-117h-115v-61h115v-87h-130v-60h336v60h-143v87h115v61h-115v105c46 -9 94 -18 141 -28l4 62zM685 775l62 16c-17 33 -36 64 -53 91h223v49h-834v-49h221c-12 -29 -31 -64 -49 -91l60 -17c25 32 47 77 58 108h91v-115h-302v-52h302
v-61h-161v-50h401v50h-168v61h305v52h-305v115h91c21 -32 45 -76 58 -107zM518 435l52 30c-8 7 -16 12 -24 18c122 62 274 92 421 112c-14 15 -31 38 -39 58c-150 -27 -300 -65 -431 -137c-116 69 -274 120 -424 150c-8 -18 -24 -43 -38 -59c168 -29 354 -85 462 -162
l-28 -43c53 -22 129 -60 206 -97v-113h-210v-54h210v-84h68v84h112c-17 -19 -53 -48 -83 -67l44 -27c30 19 67 46 84 66l-42 28h75v54h-190v121l2 -2l9 4c39 -25 87 -62 114 -88l48 24c-35 30 -81 62 -119 85c57 29 115 61 149 86l-36 39c-37 -29 -105 -69 -167 -100v77
c0 30 -7 43 -30 51c-22 9 -56 10 -112 9c-3 -14 -11 -33 -19 -48c37 2 69 1 79 1c11 -1 14 -4 14 -13v-84c-53 28 -108 57 -157 81zM500 249l38 -32c39 16 86 43 111 63l-40 36c-23 -21 -70 -49 -109 -67z" />
</svg>
