<?xml version="1.0" standalone="no"?>
<!DOCTYPE svg PUBLIC "-//W3C//DTD SVG 1.1//EN" "http://www.w3.org/Graphics/SVG/1.1/DTD/svg11.dtd" >
<svg xmlns="http://www.w3.org/2000/svg" xmlns:xlink="http://www.w3.org/1999/xlink" version="1.1" viewBox="-10 0 1010 1000">
   <path fill="currentColor"
d="M582 124l-6 2c41 22 86 48 116 71c50 -20 92 -44 125 -73h-235zM746 438v-84h-368v-49h28c-6 -14 -16 -33 -27 -46c91 -7 183 -21 263 -46c-32 -22 -76 -49 -115 -68c-34 11 -72 22 -112 32c-7 -13 -21 -31 -32 -39c117 -25 209 -58 261 -95l58 13c-13 9 -27 19 -42 28
h197l11 -2l38 22c-90 127 -289 179 -491 201h331v-57h68v57h131v49h-131v86c0 34 -7 47 -34 56c-26 8 -68 9 -137 8c-4 -15 -12 -34 -21 -50l-22 15c-22 -26 -71 -62 -112 -86l47 -28c41 21 89 56 114 82l-24 15c49 2 91 2 104 1s17 -3 17 -15zM559 180l-1 32
c-61 9 -114 16 -164 21l-13 -42c51 -2 111 -6 178 -11zM179 338v10c0 44 -13 128 -74 180c-12 -10 -37 -24 -53 -32c57 -46 66 -113 66 -150v-8h-63v-53h223v-54h-178v-174h62v122h116v-134h67v468h-67v-175h-99zM329 617h343c-61 -23 -120 -50 -177 -84
c-50 32 -106 59 -166 84zM686 791l65 19c-15 23 -30 46 -44 68h218v61h-842v-61h208c-10 -23 -23 -47 -36 -67l60 -17c18 25 36 58 48 84h101v-91h-302v-54h302v-64h-162v-41c-71 27 -147 49 -220 65c-9 -18 -26 -43 -41 -60c174 -34 365 -100 467 -189l62 33
c-8 6 -16 13 -24 20c120 68 269 102 418 127c-15 17 -34 41 -43 62c-81 -17 -163 -38 -241 -66v49h-144v64h265v54h-265v91h100c19 -27 38 -63 50 -87z" />
</svg>
