<?xml version="1.0" standalone="no"?>
<!DOCTYPE svg PUBLIC "-//W3C//DTD SVG 1.1//EN" "http://www.w3.org/Graphics/SVG/1.1/DTD/svg11.dtd" >
<svg xmlns="http://www.w3.org/2000/svg" xmlns:xlink="http://www.w3.org/1999/xlink" version="1.1" viewBox="-10 0 1010 1000">
   <path fill="currentColor"
d="M427 227l-32 61c-37 -39 -97 -88 -152 -129c-32 50 -68 96 -106 137h241v65h-104v108h134v65h-134v276l137 -29l5 60c-123 29 -253 60 -347 81l-16 -67c43 -7 100 -19 160 -32v-289h-149v-65h149v-108h-95v-45c-16 16 -32 31 -48 45c-6 -17 -22 -57 -31 -75
c76 -58 155 -149 201 -247l55 25c-7 14 -14 27 -21 41c58 40 115 87 153 122zM343 773l-44 -16c16 -49 36 -128 46 -182l52 18c-17 61 -37 134 -54 180zM83 600l48 -13c17 58 34 134 39 183l-50 15c-5 -50 -20 -126 -37 -185zM669 658h-155v77h155v-77zM870 735v-77h-138v77
h138zM732 868h138v-81h-138v81zM514 787v81h155v-81h-155zM451 957v-356h484v351h-65v-28h-356v33h-63zM567 408v85h246v-85h-246zM504 545v-189h374v189h-374zM525 244h322v54h-322v-54zM728 115h220v187h-62v-125h-395v125h-60v-187h222c-12 -21 -25 -42 -40 -60l59 -19
c21 24 42 54 56 79z" />
</svg>
