<?xml version="1.0" standalone="no"?>
<!DOCTYPE svg PUBLIC "-//W3C//DTD SVG 1.1//EN" "http://www.w3.org/Graphics/SVG/1.1/DTD/svg11.dtd" >
<svg xmlns="http://www.w3.org/2000/svg" xmlns:xlink="http://www.w3.org/1999/xlink" version="1.1" viewBox="-10 0 1010 1000">
   <path fill="currentColor"
d="M835 257h-163v78h163v-78zM560 140l-38 45c-24 -24 -70 -58 -107 -81l37 -40c31 18 70 43 95 65v-51h385v59h-260v68h220v182h-220v71h274v59h-398v-59h62v-321h-53zM515 356l42 42c-35 52 -75 108 -114 158l-49 -47c34 -36 81 -95 121 -153zM381 776l7 60
c-111 29 -229 61 -317 82l-19 -66c39 -8 89 -19 142 -32v-287h-138v-65h138v-109h-81v-54c-12 12 -24 23 -35 33c-5 -13 -23 -48 -35 -63c70 -56 138 -143 179 -232l59 19c-6 12 -12 25 -19 38c45 41 99 93 129 126l30 -32c37 23 85 55 109 77l-37 46
c-22 -23 -66 -55 -104 -79l-35 42c-27 -34 -76 -85 -122 -129c-32 52 -69 102 -108 143h227v65h-94v109h123v65h-123v272zM73 598l50 -13c17 60 36 135 43 185l-53 14c-7 -50 -25 -127 -40 -186zM321 771l-45 -15c17 -49 39 -128 49 -182l55 16c-18 61 -41 135 -59 181z
M541 726l57 21c-37 64 -107 132 -170 166c-11 -17 -32 -41 -48 -53c61 -27 127 -81 161 -134zM942 669h-231v284h-69v-284h-230v-62h230v-73h69v73h231v62zM756 757l48 -33c53 45 117 108 147 149l-51 39c-29 -42 -92 -108 -144 -155z" />
</svg>
