<?xml version="1.0" standalone="no"?>
<!DOCTYPE svg PUBLIC "-//W3C//DTD SVG 1.1//EN" "http://www.w3.org/Graphics/SVG/1.1/DTD/svg11.dtd" >
<svg xmlns="http://www.w3.org/2000/svg" xmlns:xlink="http://www.w3.org/1999/xlink" version="1.1" viewBox="-10 0 1010 1000">
   <path fill="currentColor"
d="M513 281v-79h-147v-61h147v-97h67v97h152v61h-152v79h129v4c62 -52 130 -139 166 -219l64 21c-43 93 -113 187 -180 247c-13 -15 -33 -33 -50 -46v54h-322v-61h126zM881 338l66 22c-44 98 -116 195 -191 257c-12 -16 -34 -36 -51 -49c69 -53 139 -144 176 -230zM628 554
v-98h-168v98h168zM692 402v207h-294v-207h294zM519 770l-57 20c-6 -38 -27 -97 -48 -141l53 -17c22 43 45 100 52 138zM723 763l7 58c-127 30 -261 61 -358 82l-17 -60c-102 29 -209 58 -286 79l-14 -67c36 -7 83 -19 134 -32v-289h-124v-65h124v-108h-79v-46
c-14 16 -28 32 -42 46c-4 -17 -19 -57 -27 -75c64 -59 131 -150 170 -248l48 26c-6 13 -12 27 -18 41c48 38 96 83 127 119l-29 62c-30 -37 -79 -86 -125 -126c-27 49 -57 96 -89 136h205v65h-87v108h118v65h-118v277l112 -29l4 56c53 -9 121 -23 195 -39
c23 -49 47 -121 61 -171l69 19c-20 44 -41 95 -62 137zM79 600l43 -14c15 58 29 135 33 184l-46 15c-3 -50 -16 -126 -30 -185zM300 776l-39 -18c14 -49 30 -128 38 -182l49 19c-16 62 -32 135 -48 181zM894 627l65 18c-49 132 -136 246 -250 317c-12 -18 -31 -39 -48 -53
c105 -59 190 -166 233 -282z" />
</svg>
