<?xml version="1.0" standalone="no"?>
<!DOCTYPE svg PUBLIC "-//W3C//DTD SVG 1.1//EN" "http://www.w3.org/Graphics/SVG/1.1/DTD/svg11.dtd" >
<svg xmlns="http://www.w3.org/2000/svg" xmlns:xlink="http://www.w3.org/1999/xlink" version="1.1" viewBox="-10 0 1010 1000">
   <path fill="currentColor"
d="M873 249v-108h-98v108h98zM932 90v210h-213v-210h213zM612 249v-108h-95v108h95zM670 90v210h-210v-210h210zM434 227l-33 61c-37 -39 -96 -88 -152 -129c-31 50 -67 96 -105 137h240v65h-105v108h143v65h-143v276l142 -31l5 60c-124 30 -255 61 -349 84l-17 -67
c43 -9 98 -20 160 -33v-289h-149v-65h149v-108h-96v-44c-16 15 -32 30 -48 44c-5 -17 -21 -57 -30 -75c76 -59 154 -150 199 -248l56 26c-7 13 -13 27 -20 41c58 39 116 86 153 122zM349 774l-43 -16c16 -49 35 -128 44 -183l54 18c-18 61 -38 135 -55 181zM90 600l47 -13
c18 58 34 135 39 184l-50 15c-4 -50 -19 -127 -36 -186zM546 615h115v-80h-115v80zM546 404v78h115v-78h-115zM846 482v-78h-117v78h117zM846 615v-80h-117v80h117zM956 738v66h-227v154h-68v-154h-216v-66h216v-67h-179v-323h430v323h-183v67h227z" />
</svg>
