<?xml version="1.0" standalone="no"?>
<!DOCTYPE svg PUBLIC "-//W3C//DTD SVG 1.1//EN" "http://www.w3.org/Graphics/SVG/1.1/DTD/svg11.dtd" >
<svg xmlns="http://www.w3.org/2000/svg" xmlns:xlink="http://www.w3.org/1999/xlink" version="1.1" viewBox="-10 0 1010 1000">
   <path fill="currentColor"
d="M233 38l52 25c-5 14 -12 28 -20 42c55 38 111 83 147 119l-32 61c-35 -39 -92 -87 -145 -126c-31 49 -67 96 -103 137h233v65h-100v108h127v65h-127v276l123 -26l5 59c-116 28 -239 58 -327 79l-16 -67c42 -7 98 -19 157 -32v-289h-146v-65h146v-108h-94v-45
c-16 16 -31 31 -47 45c-5 -17 -21 -57 -30 -75c74 -59 152 -150 197 -248zM754 299v-57h-162v57h162zM807 200v141h-265v-141h265zM797 468v-46h-242v46h242zM797 555v-47h-242v47h242zM797 644v-48h-242v48h242zM851 380v306h-348v-306h348zM612 695l47 17
c-34 38 -89 77 -135 101c-9 -10 -27 -32 -38 -43c46 -19 96 -47 126 -75zM714 719l35 -28c48 27 102 64 133 93l-48 28c-26 -28 -76 -65 -120 -93zM469 834h417v-695h-417v695zM412 77h533v865h-59v-48h-417v48h-57v-865zM333 773l-42 -15c16 -49 36 -129 45 -182l51 17
c-17 61 -37 134 -54 180zM80 600l46 -13c17 58 33 134 38 183l-48 15c-4 -50 -19 -126 -36 -185z" />
</svg>
