<?xml version="1.0" standalone="no"?>
<!DOCTYPE svg PUBLIC "-//W3C//DTD SVG 1.1//EN" "http://www.w3.org/Graphics/SVG/1.1/DTD/svg11.dtd" >
<svg xmlns="http://www.w3.org/2000/svg" xmlns:xlink="http://www.w3.org/1999/xlink" version="1.1" viewBox="-10 0 1010 1000">
   <path fill="currentColor"
d="M680 287h102c11 -30 25 -70 32 -101h-156c14 31 28 72 35 97zM784 659v-76h-99v76h99zM602 195l31 -9h-115v-61h186c-11 -22 -23 -44 -36 -63l53 -17c18 23 36 54 49 80h184v61h-100l21 7c-13 33 -25 66 -36 94h90v442c0 35 -6 51 -27 61c-20 10 -54 11 -102 11
c-3 -17 -11 -41 -18 -57c36 1 69 1 79 0c10 0 13 -4 13 -14v-383h-116v68h88v50h-88v71h71v171h-144v38h-44v-209h71v-71h-89v-50h89v-68h-122v450h-54v-510h98c-8 -27 -20 -64 -32 -92zM485 214l-57 19c-11 -43 -33 -112 -50 -164l54 -16c18 52 40 118 53 161zM344 781
l4 60c-102 29 -210 60 -288 81l-14 -67c36 -8 83 -19 134 -33v-288h-123v-65h123v-108h-77v-47c-15 17 -30 33 -45 47c-3 -17 -18 -57 -27 -75c67 -59 134 -150 174 -248l49 26c-6 13 -12 27 -18 41c50 39 100 85 131 122l-29 62c-31 -39 -81 -88 -130 -129
c-27 49 -58 96 -91 136h206v65h-87v108h101v65h-101v275zM71 600l46 -13c15 57 29 134 34 183l-48 15c-3 -50 -17 -127 -32 -185zM289 775l-40 -17c15 -48 35 -128 44 -182l52 20c-19 61 -38 133 -56 179zM488 511l29 10c-11 85 -33 185 -59 258c21 9 43 32 78 56
c52 37 110 49 193 49c65 0 163 -5 229 -12c-7 18 -15 51 -16 70c-48 4 -153 7 -214 7c-90 0 -151 -16 -207 -56c-35 -27 -64 -58 -85 -58c-20 0 -50 64 -75 126l-48 -63c30 -48 58 -86 86 -107c23 -58 42 -143 54 -217h-81c21 -61 47 -150 68 -230h-80v-59h151
c-19 72 -44 158 -64 228h31z" />
</svg>
