<?xml version="1.0" standalone="no"?>
<!DOCTYPE svg PUBLIC "-//W3C//DTD SVG 1.1//EN" "http://www.w3.org/Graphics/SVG/1.1/DTD/svg11.dtd" >
<svg xmlns="http://www.w3.org/2000/svg" xmlns:xlink="http://www.w3.org/1999/xlink" version="1.1" viewBox="-10 0 1010 1000">
   <path fill="currentColor"
d="M555 326h-47c-8 105 -31 183 -106 233c-7 -15 -23 -39 -36 -49c62 -37 80 -100 87 -184h-67v-58h122v-79h-59c-11 27 -21 51 -34 71c-10 -8 -31 -21 -44 -28l3 4l-29 61c-32 -41 -81 -94 -130 -137c-29 49 -61 96 -95 136h216v65h-92v109h118v65h-118v275
c46 -10 95 -23 143 -35l3 59c-115 32 -237 66 -324 88l-13 -66c36 -8 82 -19 134 -32v-289h-124v-65h124v-109h-81v-48c-14 15 -28 30 -42 43c-2 -17 -17 -57 -26 -75c66 -58 134 -147 175 -242l48 25c-6 14 -12 27 -19 41c47 40 95 87 127 125c31 -45 51 -107 63 -170
l51 11c-4 20 -9 41 -15 61h40v-86h54v86h72v57h-72v79h77v58h-32v111l56 -24c1 15 6 35 10 46c-88 41 -107 52 -119 64c-4 -13 -17 -35 -26 -46c12 -8 27 -27 27 -67v-84zM306 776l-43 -19c14 -49 31 -127 39 -181l54 21c-17 61 -34 133 -50 179zM75 601l46 -15
c15 58 29 134 33 183l-48 17c-4 -50 -17 -127 -31 -185zM839 615h-333v88h333v-88zM506 855h333v-95h-333v95zM439 955v-402h469v399h-69v-35h-333v38h-67zM888 469h13c4 0 9 -1 11 -4c3 -2 5 -7 7 -16c2 -10 3 -33 3 -62c10 10 27 18 41 22c-2 32 -4 65 -9 77
c-4 10 -11 19 -20 24c-7 4 -20 6 -29 6h-28c-15 0 -31 -4 -40 -15c-10 -11 -13 -24 -13 -70v-105h-37c-8 109 -32 178 -117 219c-7 -14 -22 -38 -34 -49c71 -32 90 -84 97 -170h-77v-58h124v-79h-64c-11 28 -22 53 -36 74c-9 -9 -31 -24 -44 -31c31 -46 50 -109 62 -172
l53 11c-4 20 -10 41 -15 61h44v-86h56v86h99v57h-99v79h118v58h-77v114c0 12 0 21 3 24c1 3 4 5 8 5z" />
</svg>
