<?xml version="1.0" standalone="no"?>
<!DOCTYPE svg PUBLIC "-//W3C//DTD SVG 1.1//EN" "http://www.w3.org/Graphics/SVG/1.1/DTD/svg11.dtd" >
<svg xmlns="http://www.w3.org/2000/svg" xmlns:xlink="http://www.w3.org/1999/xlink" version="1.1" viewBox="-10 0 1010 1000">
   <path fill="currentColor"
d="M898 44l28 60c-127 25 -332 41 -496 44c-2 -18 -9 -42 -15 -59c164 -6 366 -22 483 -45zM495 318v82h88v-82h-88zM635 318v82h91v-82h-91zM777 318v82h94v-82h-94zM443 452v-186h69c-7 -26 -25 -67 -44 -95l52 -23c21 29 42 68 48 95l-50 23h156c-8 -30 -27 -74 -47 -107
l53 -19c23 33 44 78 51 108l-44 18h102c23 -38 51 -91 65 -128l59 21c-20 35 -42 75 -63 107h75v186h-482zM265 812l129 -29l4 60c-117 28 -242 58 -333 79l-16 -67c42 -7 97 -18 157 -31v-290h-146v-65h146v-108h-101v-40c-14 12 -26 25 -40 36c-5 -16 -21 -56 -30 -74
c75 -58 153 -149 199 -245l54 26c-6 13 -13 28 -21 42c55 40 111 89 146 126l-33 61c-34 -40 -91 -91 -145 -133c-31 49 -67 96 -105 136h223v65h-88v108h118v65h-118v278zM80 600l47 -13c17 58 33 134 39 183l-50 15c-4 -50 -20 -127 -36 -185zM336 773l-42 -16
c14 -49 31 -128 39 -182l53 17c-16 62 -34 135 -50 181zM616 532h-126v49h126v-49zM490 675h126v-51h-126v51zM566 756l44 -21c36 56 76 128 93 176l-48 25c-7 -20 -16 -45 -29 -71c-156 68 -179 78 -195 93c-3 -16 -14 -45 -22 -59c12 -6 26 -17 26 -54v-357h236v231h-181
v145l112 -45c-12 -22 -24 -43 -36 -63zM956 567v60h-57v251c0 34 -6 50 -28 61c-20 11 -53 12 -101 12c-2 -18 -12 -44 -20 -61c36 1 67 1 78 0c10 0 13 -3 13 -13v-250h-151v-60h151v-93h58v93h57zM819 797l-48 25c-7 -39 -32 -96 -57 -138l44 -21c28 42 53 97 61 134z" />
</svg>
