<?xml version="1.0" standalone="no"?>
<!DOCTYPE svg PUBLIC "-//W3C//DTD SVG 1.1//EN" "http://www.w3.org/Graphics/SVG/1.1/DTD/svg11.dtd" >
<svg xmlns="http://www.w3.org/2000/svg" xmlns:xlink="http://www.w3.org/1999/xlink" version="1.1" viewBox="-10 0 1010 1000">
   <path fill="currentColor"
d="M508 734v47h306v-47h-306zM508 643v47h306v-47h-306zM508 553v46h306v-46h-306zM880 827h-125c66 27 137 63 182 88l-51 43c-43 -29 -116 -67 -185 -97l34 -34h-151l46 32c-55 39 -139 77 -206 98c-8 -13 -26 -33 -38 -46c63 -19 141 -54 184 -84h-126v-319h436v319z
M760 278h-50c-11 15 -23 29 -37 43h87v-43zM649 365v-44h10c-10 -9 -25 -19 -34 -24c38 -33 67 -74 82 -109l52 8c-6 14 -13 26 -20 39h171v43h-92v43h117v44h-117v67h50v-49h48v92h-252v-92h46v49h50v-67h-111zM720 114h221v112h-63v-54h-425v54h-39l2 2h211v46h-79v49h66
v43h-66v53l80 -5l-1 48l-226 16l-6 -50c27 -1 60 -3 95 -5v-57h-71v-43h71v-49h-78v-22l-23 43c-37 -41 -96 -92 -152 -135c-30 49 -65 96 -101 136h223v63h-90v110h119v63h-119v277c40 -8 82 -18 123 -28l4 58c-114 30 -236 60 -324 81l-16 -65c41 -7 94 -19 150 -32v-291
h-134v-63h134v-110h-84v-48c-17 18 -34 35 -51 50c-5 -17 -22 -57 -31 -75c74 -58 149 -151 195 -248l54 26c-6 15 -13 28 -21 43c45 30 89 67 124 98v-91h253c-9 -20 -18 -40 -27 -58l64 -18c13 22 28 51 38 76zM330 773l-42 -15c16 -49 35 -129 43 -183l54 18
c-18 61 -37 134 -55 180zM86 600l47 -13c18 58 34 134 39 183l-50 15c-4 -50 -19 -126 -36 -185z" />
</svg>
