<?xml version="1.0" standalone="no"?>
<!DOCTYPE svg PUBLIC "-//W3C//DTD SVG 1.1//EN" "http://www.w3.org/Graphics/SVG/1.1/DTD/svg11.dtd" >
<svg xmlns="http://www.w3.org/2000/svg" xmlns:xlink="http://www.w3.org/1999/xlink" version="1.1" viewBox="-10 0 1010 1000">
   <path fill="currentColor"
d="M255 396v140h131v63h-131v226l117 -55c2 19 7 48 12 62c-165 87 -192 101 -208 117c-4 -17 -18 -48 -30 -63c15 -8 37 -25 37 -64v-223h-128v-63h128v-140h-75v-62h256v62h-109zM176 46l66 20c-11 31 -23 62 -37 92h182v66h-218c-29 51 -63 96 -99 133
c-6 -17 -25 -54 -38 -71c60 -58 113 -147 144 -240zM498 529v53h342v-53h-342zM588 339h-90v145h342v-45c-9 1 -23 1 -31 1h-48c-16 0 -36 -3 -45 -12c-11 -8 -15 -22 -15 -56v-33h-67v6c0 42 -18 92 -88 126c-8 -9 -27 -24 -37 -29c64 -30 79 -66 79 -98v-5zM634 228v59h67
v-59h-67zM840 399v-60h-91v40c0 11 0 17 4 19c3 3 9 3 16 3h35h21c3 0 8 0 11 -1c2 0 3 0 4 -1zM956 693v62h-158v127c0 35 -7 50 -33 60c-26 9 -67 10 -131 10c-3 -18 -12 -40 -21 -57c47 1 90 1 102 1c12 -1 16 -4 16 -15v-126h-221c38 27 88 69 113 96l-47 42
c-24 -27 -74 -71 -114 -102l46 -36h-117v-62h340v-58h-294v-348h138v-59h-166v-60h149c-15 -28 -41 -69 -63 -99l61 -27c25 32 55 74 70 101l-48 25h130c26 -37 57 -88 74 -124l74 24c-22 33 -47 70 -70 100h152v60h-179v59h144v348h-105v58h158z" />
</svg>
