<?xml version="1.0" standalone="no"?>
<!DOCTYPE svg PUBLIC "-//W3C//DTD SVG 1.1//EN" "http://www.w3.org/Graphics/SVG/1.1/DTD/svg11.dtd" >
<svg xmlns="http://www.w3.org/2000/svg" xmlns:xlink="http://www.w3.org/1999/xlink" version="1.1" viewBox="-10 0 1010 1000">
   <path fill="currentColor"
d="M392 458h71v407c0 42 -8 61 -37 73c-30 12 -77 13 -146 13c-4 -21 -14 -49 -25 -70c56 2 104 1 119 1c14 -1 18 -4 18 -17v-407zM229 568l62 25c-33 81 -82 179 -149 242l-61 -40c66 -57 118 -149 148 -227zM538 600l60 -24c52 66 99 155 119 216l-64 28
c-18 -61 -66 -153 -115 -220zM690 588l59 -33c65 70 130 166 159 233l-62 39c-27 -67 -93 -167 -156 -239z" />
</svg>
