<?xml version="1.0" standalone="no"?>
<!DOCTYPE svg PUBLIC "-//W3C//DTD SVG 1.1//EN" "http://www.w3.org/Graphics/SVG/1.1/DTD/svg11.dtd" >
<svg xmlns="http://www.w3.org/2000/svg" xmlns:xlink="http://www.w3.org/1999/xlink" version="1.1" viewBox="-10 0 1010 1000">
   <path fill="currentColor"
d="M117 234l61 -38c69 68 151 162 189 225l-65 45c-35 -63 -116 -161 -185 -232zM573 578l50 -53c109 71 258 172 333 234l-54 62c-72 -64 -218 -169 -329 -243zM41 731c88 -41 227 -113 355 -182l22 65c-116 67 -241 136 -336 187zM847 172l70 44c-70 84 -166 183 -241 244
l-54 -38c73 -64 170 -170 225 -250zM460 55h75v800c0 53 -13 75 -47 88c-34 12 -92 13 -182 13c-4 -21 -17 -55 -27 -76c69 2 135 2 154 1c19 0 27 -7 27 -26v-800z" />
</svg>
