<?xml version="1.0" standalone="no"?>
<!DOCTYPE svg PUBLIC "-//W3C//DTD SVG 1.1//EN" "http://www.w3.org/Graphics/SVG/1.1/DTD/svg11.dtd" >
<svg xmlns="http://www.w3.org/2000/svg" xmlns:xlink="http://www.w3.org/1999/xlink" version="1.1" viewBox="-10 0 1010 1000">
   <path fill="currentColor"
d="M188 637l68 25c-29 94 -72 211 -135 286l-69 -38c63 -70 110 -181 136 -273zM339 662l70 -6c20 90 34 205 33 272l-76 12c3 -70 -9 -186 -27 -278zM526 663l70 -16c45 86 88 198 103 270l-75 19c-13 -70 -55 -185 -98 -273zM718 662l69 -26c69 86 144 202 176 277l-74 29
c-31 -73 -104 -193 -171 -280z" />
</svg>
