<?xml version="1.0" standalone="no"?>
<!DOCTYPE svg PUBLIC "-//W3C//DTD SVG 1.1//EN" "http://www.w3.org/Graphics/SVG/1.1/DTD/svg11.dtd" >
<svg xmlns="http://www.w3.org/2000/svg" xmlns:xlink="http://www.w3.org/1999/xlink" version="1.1" viewBox="-10 0 1010 1000">
   <path fill="currentColor"
d="M786 55l50 56c-31 5 -64 10 -98 15c28 155 92 262 229 305c-17 15 -39 46 -50 67c-147 -58 -212 -181 -243 -364c-44 4 -91 9 -138 13v334h-75v-327c-60 4 -119 8 -178 11v36c0 101 -37 223 -194 301c-9 -15 -37 -42 -52 -52c147 -71 173 -169 173 -251v-87v-1
c202 -11 438 -32 576 -56z" />
</svg>
