<?xml version="1.0" standalone="no"?>
<!DOCTYPE svg PUBLIC "-//W3C//DTD SVG 1.1//EN" "http://www.w3.org/Graphics/SVG/1.1/DTD/svg11.dtd" >
<svg xmlns="http://www.w3.org/2000/svg" xmlns:xlink="http://www.w3.org/1999/xlink" version="1.1" viewBox="-10 0 1010 1000">
   <path fill="currentColor"
d="M547 643l-45 61c-27 -37 -88 -104 -136 -154v406h-74v-398c-65 59 -133 110 -201 149c-8 -20 -27 -54 -40 -68c140 -72 287 -202 368 -348h-324v-71h230c-16 -38 -57 -94 -93 -133l56 -37c39 41 78 94 97 131l-56 39h132l14 -4l44 32c-36 81 -87 158 -146 226
c46 39 148 141 174 169z" />
</svg>
