<?xml version="1.0" standalone="no"?>
<!DOCTYPE svg PUBLIC "-//W3C//DTD SVG 1.1//EN" "http://www.w3.org/Graphics/SVG/1.1/DTD/svg11.dtd" >
<svg xmlns="http://www.w3.org/2000/svg" xmlns:xlink="http://www.w3.org/1999/xlink" version="1.1" viewBox="-10 0 1010 1000">
   <path fill="currentColor"
d="M519 605l-66 24c-4 -17 -10 -36 -17 -58c-303 44 -340 52 -365 65c-5 -16 -17 -55 -27 -77c26 -4 54 -27 92 -64c20 -18 63 -59 111 -112c-141 17 -167 22 -183 28c-5 -15 -16 -52 -25 -73c19 -4 39 -25 65 -54c25 -28 109 -139 162 -246l74 34c-53 90 -118 182 -183 254
l150 -14c33 -41 65 -84 95 -128l68 47c-85 114 -183 222 -280 309l225 -29c-12 -30 -25 -59 -37 -85l63 -20c31 62 67 147 78 199zM105 679l70 15c-17 84 -44 179 -69 240c-15 -8 -49 -19 -67 -25c27 -60 51 -149 66 -230zM249 687l66 -16c15 71 29 160 33 221l-71 17
c-3 -60 -16 -151 -28 -222zM392 670l63 -22c26 61 55 139 67 191l-66 25c-11 -52 -39 -133 -64 -194z" />
</svg>
