<?xml version="1.0" standalone="no"?>
<!DOCTYPE svg PUBLIC "-//W3C//DTD SVG 1.1//EN" "http://www.w3.org/Graphics/SVG/1.1/DTD/svg11.dtd" >
<svg xmlns="http://www.w3.org/2000/svg" xmlns:xlink="http://www.w3.org/1999/xlink" version="1.1" viewBox="-10 0 1010 1000">
   <path fill="currentColor"
d="M468 456h107c49 -44 94 -90 136 -139h-243v139zM946 456v66h-340c-154 137 -331 248 -519 331c-10 -15 -36 -45 -52 -58c168 -69 325 -161 463 -273h-443v-66h340v-139h-253v-66h253v-138h73v138h250v58c42 -50 81 -102 116 -156l67 31c-66 99 -141 189 -225 272h270z
" />
</svg>
