<?xml version="1.0" standalone="no"?>
<!DOCTYPE svg PUBLIC "-//W3C//DTD SVG 1.1//EN" "http://www.w3.org/Graphics/SVG/1.1/DTD/svg11.dtd" >
<svg xmlns="http://www.w3.org/2000/svg" xmlns:xlink="http://www.w3.org/1999/xlink" version="1.1" viewBox="-10 0 1010 1000">
   <path fill="currentColor"
d="M523 221h-325c-24 38 -50 74 -77 104h353v69h-156v134h195v69h-195v222l173 -64c1 20 4 51 8 66c-216 91 -247 104 -265 119c-5 -19 -20 -50 -33 -67c18 -8 44 -30 44 -70v-206h-182v-69h182v-134h-128v-65c-7 8 -14 15 -21 22c-6 -16 -26 -55 -39 -73
c63 -59 119 -150 153 -245l68 21c-12 32 -25 65 -41 96l286 -1v72z" />
</svg>
