<?xml version="1.0" standalone="no"?>
<!DOCTYPE svg PUBLIC "-//W3C//DTD SVG 1.1//EN" "http://www.w3.org/Graphics/SVG/1.1/DTD/svg11.dtd" >
<svg xmlns="http://www.w3.org/2000/svg" xmlns:xlink="http://www.w3.org/1999/xlink" version="1.1" viewBox="-10 0 1010 1000">
   <path fill="currentColor"
d="M937 607h-508c-50 82 -108 165 -166 230l503 -29c-20 -39 -43 -79 -64 -115l57 -25c52 79 110 185 133 252l-62 29c-8 -23 -20 -51 -33 -80c-535 34 -588 39 -623 52c-4 -16 -16 -50 -24 -69c19 -4 38 -24 61 -52c21 -23 85 -105 134 -193h-285v-63h156v-454h635v63h-565
v87h524v62h-524v87h534v62h-534v93h651v63z" />
</svg>
