<?xml version="1.0" standalone="no"?>
<!DOCTYPE svg PUBLIC "-//W3C//DTD SVG 1.1//EN" "http://www.w3.org/Graphics/SVG/1.1/DTD/svg11.dtd" >
<svg xmlns="http://www.w3.org/2000/svg" xmlns:xlink="http://www.w3.org/1999/xlink" version="1.1" viewBox="-10 0 1010 1000">
   <path fill="currentColor"
d="M874 346l-62 29c-28 -46 -82 -113 -142 -173c47 -53 98 -119 125 -161l69 21c-33 44 -76 97 -113 139c48 47 98 106 123 145zM591 346l-67 29c-26 -47 -79 -114 -137 -175c47 -53 95 -119 122 -163l72 22c-31 44 -73 98 -110 140c46 48 94 107 120 147zM292 347l-67 30
c-26 -47 -80 -114 -136 -175c48 -53 99 -120 126 -162l72 21c-33 45 -76 98 -113 140c45 48 93 107 118 146zM764 632v-61h-521v61h521zM243 861h521v-61h-521v61zM764 748v-63h-521v63h521zM947 462h-477c-10 18 -18 35 -27 51h396v439h-75v-30h-521v34h-73v-443h199
c8 -17 16 -34 23 -51h-337v-62h892v62z" />
</svg>
