<?xml version="1.0" standalone="no"?>
<!DOCTYPE svg PUBLIC "-//W3C//DTD SVG 1.1//EN" "http://www.w3.org/Graphics/SVG/1.1/DTD/svg11.dtd" >
<svg xmlns="http://www.w3.org/2000/svg" xmlns:xlink="http://www.w3.org/1999/xlink" version="1.1" viewBox="-10 0 1010 1000">
   <path fill="currentColor"
d="M689 576l62 18c-20 51 -47 103 -74 145l124 -17c-12 -21 -26 -43 -39 -61l45 -19c34 45 67 106 79 146l-47 20c-3 -11 -9 -24 -15 -39c-170 27 -195 34 -211 41c-3 -12 -13 -43 -21 -58c12 -2 22 -14 33 -31c10 -17 48 -83 64 -145zM231 492h208c10 -40 15 -78 17 -114
h-225v114zM231 205v112h226v-112h-226zM755 317v-112h-225v112h225zM755 492v-114h-226c-2 36 -6 75 -14 114h240zM832 556h-332c-45 141 -150 287 -391 395c-13 -16 -36 -38 -56 -53c218 -96 320 -221 367 -342h-263v-415h241c20 -33 40 -73 51 -102l81 17
c-17 28 -35 59 -52 85h354v415zM629 874h202c47 0 55 -15 60 -107c16 13 45 23 66 28c-10 115 -33 144 -121 144h-211c-108 0 -138 -21 -138 -100v-246h73v246c0 30 11 35 69 35z" />
</svg>
