<?xml version="1.0" standalone="no"?>
<!DOCTYPE svg PUBLIC "-//W3C//DTD SVG 1.1//EN" "http://www.w3.org/Graphics/SVG/1.1/DTD/svg11.dtd" >
<svg xmlns="http://www.w3.org/2000/svg" xmlns:xlink="http://www.w3.org/1999/xlink" version="1.1" viewBox="-10 0 1010 1000">
   <path fill="currentColor"
d="M379 374l48 18c-24 130 -65 242 -120 332c107 90 251 109 409 109c37 0 197 0 245 -1c-13 19 -26 55 -31 77h-218c-177 0 -330 -22 -445 -123c-48 64 -103 115 -163 153c-11 -18 -32 -47 -49 -60c58 -33 113 -84 159 -149c-42 -52 -77 -118 -104 -203l60 -24
c21 68 50 122 84 165c37 -65 68 -141 86 -223h-142l-88 1c56 -64 124 -171 175 -270h-202v-71h243l14 -2l56 15c-46 92 -103 186 -151 259h120z" />
</svg>
