<?xml version="1.0" standalone="no"?>
<!DOCTYPE svg PUBLIC "-//W3C//DTD SVG 1.1//EN" "http://www.w3.org/Graphics/SVG/1.1/DTD/svg11.dtd" >
<svg xmlns="http://www.w3.org/2000/svg" xmlns:xlink="http://www.w3.org/1999/xlink" version="1.1" viewBox="-10 0 1010 1000">
   <path fill="currentColor"
d="M903 182h-387c-23 45 -50 90 -80 133h327l15 -4l51 27c-102 349 -357 535 -653 622c-9 -20 -31 -55 -47 -70c146 -39 280 -100 388 -192c-56 -51 -140 -114 -211 -158l52 -47c70 43 156 103 214 153c66 -72 121 -157 158 -260h-348c-70 84 -153 160 -246 216
c-12 -17 -36 -43 -53 -56c148 -86 273 -225 345 -364h-331v-72h806v72z" />
</svg>
