<?xml version="1.0" standalone="no"?>
<!DOCTYPE svg PUBLIC "-//W3C//DTD SVG 1.1//EN" "http://www.w3.org/Graphics/SVG/1.1/DTD/svg11.dtd" >
<svg xmlns="http://www.w3.org/2000/svg" xmlns:xlink="http://www.w3.org/1999/xlink" version="1.1" viewBox="-10 0 1010 1000">
   <path fill="currentColor"
d="M360 295l48 19c-48 260 -165 445 -306 544c-11 -16 -41 -45 -59 -56c127 -83 228 -233 276 -430h-244v-74h270zM814 230l67 48c-66 76 -153 166 -223 225c85 123 193 227 313 283c-17 15 -42 45 -55 67c-155 -82 -284 -240 -375 -420v422c0 49 -12 73 -41 86
c-30 14 -80 16 -156 16c-3 -22 -16 -59 -28 -81c57 2 109 2 124 2c17 -1 23 -6 23 -23v-809h78v240c22 55 49 110 80 162c67 -62 145 -150 193 -218z" />
</svg>
