<?xml version="1.0" standalone="no"?>
<!DOCTYPE svg PUBLIC "-//W3C//DTD SVG 1.1//EN" "http://www.w3.org/Graphics/SVG/1.1/DTD/svg11.dtd" >
<svg xmlns="http://www.w3.org/2000/svg" xmlns:xlink="http://www.w3.org/1999/xlink" version="1.1" viewBox="-10 0 1010 1000">
   <path fill="currentColor"
d="M937 599h-345c93 111 239 218 368 270c-17 16 -40 45 -53 64c-128 -63 -272 -179 -370 -303v327h-75v-325c-96 124 -239 235 -369 294c-12 -19 -36 -47 -52 -61c131 -53 276 -156 368 -266h-343v-70h396v-120h-318v-69h318v-115h-358v-70h358v-111h75v111h362v70h-362
v115h326v69h-326v120h400v70z" />
</svg>
