<?xml version="1.0" standalone="no"?>
<!DOCTYPE svg PUBLIC "-//W3C//DTD SVG 1.1//EN" "http://www.w3.org/Graphics/SVG/1.1/DTD/svg11.dtd" >
<svg xmlns="http://www.w3.org/2000/svg" xmlns:xlink="http://www.w3.org/1999/xlink" version="1.1" viewBox="-10 0 1010 1000">
   <path fill="currentColor"
d="M906 444l-63 45c-16 -21 -38 -46 -64 -72c-539 26 -593 28 -630 41c-4 -17 -15 -54 -24 -74c19 -3 42 -20 69 -46c25 -21 93 -90 150 -169h-264v-70h833v70h-472c-59 77 -123 149 -186 206l462 -19c-41 -37 -84 -74 -124 -105l59 -38c90 67 201 164 254 231zM536 848h409
v70h-887v-70h403v-184h-316v-69h316v-130h75v130h325v69h-325v184z" />
</svg>
