<?xml version="1.0" standalone="no"?>
<!DOCTYPE svg PUBLIC "-//W3C//DTD SVG 1.1//EN" "http://www.w3.org/Graphics/SVG/1.1/DTD/svg11.dtd" >
<svg xmlns="http://www.w3.org/2000/svg" xmlns:xlink="http://www.w3.org/1999/xlink" version="1.1" viewBox="-10 0 1010 1000">
   <path fill="currentColor"
d="M558 672h237v-139h-237v139zM486 533h-220c-1 44 -4 91 -13 139h233v-139zM593 164h-242c-25 36 -53 71 -85 106h257c24 -31 50 -70 70 -106zM266 337v132h220v-132h-220zM795 469v-132h-237v132h237zM867 270v592c0 48 -12 72 -49 83c-37 12 -101 13 -203 13
c-4 -20 -17 -53 -29 -72c81 3 159 3 181 1c21 0 28 -6 28 -26v-124h-557c-25 82 -70 162 -150 224c-9 -16 -36 -42 -51 -53c141 -109 157 -263 157 -390v-176c-25 23 -52 44 -80 65c-13 -18 -36 -43 -54 -53c133 -91 228 -214 278 -313l81 14c-9 15 -18 31 -27 47h241l12 -4
l50 33c-23 45 -57 96 -91 139h263z" />
</svg>
