<?xml version="1.0" standalone="no"?>
<!DOCTYPE svg PUBLIC "-//W3C//DTD SVG 1.1//EN" "http://www.w3.org/Graphics/SVG/1.1/DTD/svg11.dtd" >
<svg xmlns="http://www.w3.org/2000/svg" xmlns:xlink="http://www.w3.org/1999/xlink" version="1.1" viewBox="-10 0 1010 1000">
   <path fill="currentColor"
d="M380 153h-212v87h212v-87zM168 393h212v-96h-212v96zM450 90v365h-282v501h-73v-866h355zM614 394h222v-97h-222v97zM836 153h-222v87h222v-87zM911 90v764c0 51 -13 75 -46 87c-35 12 -94 14 -184 14c-4 -21 -16 -56 -27 -77c68 4 136 3 157 2c18 -1 25 -6 25 -26v-398
h-293v-366h368z" />
</svg>
