<?xml version="1.0" standalone="no"?>
<!DOCTYPE svg PUBLIC "-//W3C//DTD SVG 1.1//EN" "http://www.w3.org/Graphics/SVG/1.1/DTD/svg11.dtd" >
<svg xmlns="http://www.w3.org/2000/svg" xmlns:xlink="http://www.w3.org/1999/xlink" version="1.1" viewBox="-10 0 1010 1000">
   <path fill="currentColor"
d="M893 134v67h-778v-67h359c-10 -28 -24 -59 -39 -84l73 -14c21 28 40 67 49 98h336zM738 585h-470v104h470v-104zM268 857h470v-109h-470v109zM195 958v-437h619v435h-76v-35h-470v37h-73zM691 367h251v68h-884v-68h249c-9 -42 -32 -100 -57 -143l70 -16
c30 46 57 109 65 151l-32 8h259c25 -46 55 -116 71 -163l80 19c-22 48 -49 102 -72 144z" />
</svg>
