<?xml version="1.0" standalone="no"?>
<!DOCTYPE svg PUBLIC "-//W3C//DTD SVG 1.1//EN" "http://www.w3.org/Graphics/SVG/1.1/DTD/svg11.dtd" >
<svg xmlns="http://www.w3.org/2000/svg" xmlns:xlink="http://www.w3.org/1999/xlink" version="1.1" viewBox="-10 0 1010 1000">
   <path fill="currentColor"
d="M554 314h177c-87 -47 -167 -107 -228 -171c-61 65 -134 123 -216 171h191c-13 -26 -31 -57 -49 -80l64 -19c23 29 49 71 61 99zM291 604h416v-89h-416v89zM707 375h-416v83h416v-83zM496 38l67 31c-6 9 -13 17 -19 25c96 104 266 195 426 237c-17 14 -38 44 -49 64
c-46 -14 -94 -33 -140 -55v317c12 -9 24 -18 33 -26l55 42c-52 41 -114 82 -173 116c71 41 137 82 181 115l-53 51c-83 -66 -251 -165 -386 -229l49 -44c46 21 97 47 148 74c46 -26 95 -60 136 -91h-480v195l243 -45c-2 20 -1 50 0 65c-263 54 -298 62 -321 75
c-4 -18 -17 -49 -27 -64c13 -6 32 -23 32 -61v-478c-42 22 -85 41 -129 56c-11 -17 -30 -44 -47 -61c182 -58 362 -170 454 -309z" />
</svg>
