<?xml version="1.0" standalone="no"?>
<!DOCTYPE svg PUBLIC "-//W3C//DTD SVG 1.1//EN" "http://www.w3.org/Graphics/SVG/1.1/DTD/svg11.dtd" >
<svg xmlns="http://www.w3.org/2000/svg" xmlns:xlink="http://www.w3.org/1999/xlink" version="1.1" viewBox="-10 0 1010 1000">
   <path fill="currentColor"
d="M251 453l45 -40c68 42 143 92 215 143c62 -57 117 -117 157 -175l62 27c-46 62 -104 125 -168 184c81 59 153 116 202 162l-49 46c-47 -46 -119 -105 -200 -165c-76 66 -160 126 -242 174c-11 -13 -33 -36 -46 -49c80 -43 163 -100 237 -163c-71 -52 -145 -102 -213 -144
zM823 621v-269h-368c39 25 85 61 109 88l-41 40c-23 -27 -73 -69 -113 -97l35 -31h-259v207l43 -30c38 26 83 66 104 94l-45 35c-20 -28 -63 -69 -102 -97v282h353c-27 -28 -68 -64 -103 -91l42 -31c43 30 95 75 121 104l-22 18h246v-220l-42 37c-23 -31 -73 -76 -115 -107
l41 -34c41 30 92 72 116 102zM936 199h-411v87h371v667h-73v-46h-637v51h-69v-672h334v-243h74v87h411v69z" />
</svg>
