<?xml version="1.0" standalone="no"?>
<!DOCTYPE svg PUBLIC "-//W3C//DTD SVG 1.1//EN" "http://www.w3.org/Graphics/SVG/1.1/DTD/svg11.dtd" >
<svg xmlns="http://www.w3.org/2000/svg" xmlns:xlink="http://www.w3.org/1999/xlink" version="1.1" viewBox="-10 0 1010 1000">
   <path fill="currentColor"
d="M253 215l64 14c-10 28 -23 55 -38 80c34 22 73 51 95 70l-42 47c-19 -19 -53 -46 -86 -70c-38 49 -84 90 -132 121c-11 -12 -36 -34 -51 -44c85 -49 156 -124 190 -218zM690 577l45 25c-33 71 -82 129 -141 177c104 44 205 90 273 127l-64 52c-64 -37 -166 -86 -274 -133
c-116 72 -261 113 -407 135c-7 -18 -21 -48 -33 -64c130 -15 260 -48 366 -103c-51 -21 -102 -42 -148 -59l60 -44c48 18 102 38 157 61c46 -32 84 -70 113 -113h-255c-61 48 -135 92 -221 129c-11 -16 -32 -39 -49 -49c146 -58 256 -139 315 -211l77 17
c-16 19 -34 38 -54 56h227zM935 431l-42 48c-36 -33 -105 -85 -166 -127c-21 31 -46 58 -72 80c90 74 202 135 312 168c-15 13 -36 40 -47 56c-141 -49 -285 -144 -387 -258v105h-71v-104c-99 113 -239 204 -381 252c-10 -18 -30 -44 -45 -57c169 -49 337 -161 426 -288
v-102h-390v-66h390v-95h71v95h397v66h-397v102c20 28 45 56 73 82c55 -42 99 -104 121 -174l64 16c-9 25 -20 50 -33 74c64 40 138 92 177 127z" />
</svg>
