<?xml version="1.0" standalone="no"?>
<!DOCTYPE svg PUBLIC "-//W3C//DTD SVG 1.1//EN" "http://www.w3.org/Graphics/SVG/1.1/DTD/svg11.dtd" >
<svg xmlns="http://www.w3.org/2000/svg" xmlns:xlink="http://www.w3.org/1999/xlink" version="1.1" viewBox="-10 0 1010 1000">
   <path fill="currentColor"
d="M734 207v-44h-477v44h477zM734 289v-44h-477v44h477zM734 374v-47h-477v47h477zM807 117v303h-622v-303h243c13 -25 27 -56 34 -78l87 12c-14 24 -29 46 -43 66h301zM802 550v-43h-267v43h267zM802 633v-45h-267v45h267zM192 588v45h273v-45h-273zM192 507v43h273v-43
h-273zM875 461v218h-754v-218h754zM944 724v62h-223v169h-73v-169h-290c-2 54 -32 124 -208 172c-10 -15 -30 -39 -46 -50c161 -31 182 -85 184 -122h-228v-62h884z" />
</svg>
