<?xml version="1.0" standalone="no"?>
<!DOCTYPE svg PUBLIC "-//W3C//DTD SVG 1.1//EN" "http://www.w3.org/Graphics/SVG/1.1/DTD/svg11.dtd" >
<svg xmlns="http://www.w3.org/2000/svg" xmlns:xlink="http://www.w3.org/1999/xlink" version="1.1" viewBox="-10 0 1010 1000">
   <path fill="currentColor"
d="M697 285v-199c158 73 263 230 263 414c0 257 -206 460 -460 460v-51c228 0 409 -187 409 -409c0 -133 -59 -247 -160 -323v109c0 62 -7 97 -36 131s-72 46 -106 46c-41 0 -61 -14 -82 -30v244h-51c3 -47 -11 -84 -57 -84c-35 0 -58 28 -58 55c0 29 14 47 45 78
c17 17 37 39 37 80c0 55 -37 111 -110 111c-122 0 -291 -188 -291 -417c0 -255 203 -460 460 -460v51c-226 0 -409 183 -409 409c0 212 161 364 239 364c33 0 57 -25 57 -60c0 -10 -2 -23 -25 -49c-30 -34 -54 -57 -54 -105c0 -64 49 -113 114 -113c26 0 40 8 52 14v-225h51
c0 18 12 89 86 89c86 0 86 -91 86 -130z" />
</svg>
