<?xml version="1.0" standalone="no"?>
<!DOCTYPE svg PUBLIC "-//W3C//DTD SVG 1.1//EN" "http://www.w3.org/Graphics/SVG/1.1/DTD/svg11.dtd" >
<svg xmlns="http://www.w3.org/2000/svg" xmlns:xlink="http://www.w3.org/1999/xlink" version="1.1" viewBox="-10 0 1010 1000">
   <path fill="currentColor"
d="M281 1000h-86c-19 -76 -2 -142 49 -243c80 -162 266 -489 361 -700l84 43c-107 207 -299 547 -377 699c-42 83 -53 135 -31 201zM582 506l56 -25c25 34 70 112 90 150l-59 26c-20 -39 -63 -115 -87 -151zM708 456l57 -26c26 35 71 107 92 147l-58 27
c-20 -41 -65 -114 -91 -148z" />
</svg>
