<?xml version="1.0" standalone="no"?>
<!DOCTYPE svg PUBLIC "-//W3C//DTD SVG 1.1//EN" "http://www.w3.org/Graphics/SVG/1.1/DTD/svg11.dtd" >
<svg xmlns="http://www.w3.org/2000/svg" xmlns:xlink="http://www.w3.org/1999/xlink" version="1.1" viewBox="-10 0 1010 1000">
   <path fill="currentColor"
d="M294 823c23 0 35 -17 35 -48c0 -36 -2 -103 -3 -175c-80 38 -139 94 -139 139s68 84 107 84zM398 466v33c75 -24 152 -36 217 -36c144 0 248 79 248 197c0 120 -75 196 -211 229c-44 10 -88 12 -122 13l-28 -79c37 0 78 1 116 -7c87 -16 166 -63 166 -155
c0 -84 -76 -129 -170 -129c-74 0 -144 14 -215 39c2 84 4 171 4 214c0 92 -35 121 -88 121c-78 0 -207 -75 -207 -164c0 -81 103 -167 217 -216v-56c0 -40 0 -86 1 -130c-27 2 -52 3 -73 3c-45 0 -88 -1 -126 -5l-2 -76c54 7 90 8 126 8c23 0 49 -1 76 -3
c1 -52 2 -95 2 -113c0 -20 -2 -53 -6 -70h87c-2 18 -4 45 -5 68c-1 24 -2 63 -3 107c72 -9 147 -23 203 -40l1 79c-58 13 -134 26 -206 34c-1 47 -2 94 -2 134zM683 254l36 -61c70 37 178 105 226 145l-40 64c-49 -47 -159 -114 -222 -148z" />
</svg>
