<?xml version="1.0" standalone="no"?>
<!DOCTYPE svg PUBLIC "-//W3C//DTD SVG 1.1//EN" "http://www.w3.org/Graphics/SVG/1.1/DTD/svg11.dtd" >
<svg xmlns="http://www.w3.org/2000/svg" xmlns:xlink="http://www.w3.org/1999/xlink" version="1.1" viewBox="-10 0 1010 1000">
   <path fill="currentColor"
d="M237 261v-82c72 9 163 13 262 13c95 0 196 -7 267 -14v82c-67 5 -176 12 -267 12c-99 0 -183 -4 -262 -11zM196 571l82 8c-12 40 -20 76 -20 113c0 74 76 126 234 126c137 0 264 -15 339 -38l1 86c-71 19 -197 34 -338 34c-201 0 -318 -66 -318 -190
c0 -52 11 -98 20 -139z" />
</svg>
