<?xml version="1.0" standalone="no"?>
<!DOCTYPE svg PUBLIC "-//W3C//DTD SVG 1.1//EN" "http://www.w3.org/Graphics/SVG/1.1/DTD/svg11.dtd" >
<svg xmlns="http://www.w3.org/2000/svg" xmlns:xlink="http://www.w3.org/1999/xlink" version="1.1" viewBox="-10 0 1010 1000">
   <path fill="currentColor"
d="M728 237c23 34 54 82 75 127l-51 24c-21 -44 -46 -89 -75 -129zM833 197c24 31 57 83 79 125l-51 25c-22 -43 -49 -90 -78 -127zM234 135c24 3 49 4 79 3c43 0 247 -8 304 -15c23 -2 42 -6 54 -10l51 58c-14 8 -39 25 -53 37c-74 61 -217 180 -296 243
c150 -16 328 -30 469 -30l1 75c-98 -5 -192 -4 -251 5c-96 13 -190 95 -190 187c0 99 80 133 170 145c57 8 107 7 142 4l-16 81c-242 10 -375 -66 -375 -218c0 -84 64 -156 116 -186c-106 9 -238 25 -356 44l-7 -76c53 -5 120 -14 170 -20c108 -74 264 -211 326 -267
c-43 3 -215 12 -258 16c-25 2 -55 4 -76 6z" />
</svg>
