<?xml version="1.0" standalone="no"?>
<!DOCTYPE svg PUBLIC "-//W3C//DTD SVG 1.1//EN" "http://www.w3.org/Graphics/SVG/1.1/DTD/svg11.dtd" >
<svg xmlns="http://www.w3.org/2000/svg" xmlns:xlink="http://www.w3.org/1999/xlink" version="1.1" viewBox="-10 0 1010 1000">
   <path fill="currentColor"
d="M837 276l-54 24c-20 -41 -54 -101 -81 -139l53 -23c26 36 62 97 82 138zM507 486v-75c52 -4 117 -8 181 -8c57 0 118 2 171 8l-2 76c-50 -6 -109 -11 -167 -11c-62 0 -122 3 -183 10zM571 226v80c-65 14 -136 26 -205 33c-9 44 -20 89 -31 132c-36 141 -103 346 -155 453
l-88 -29c59 -102 129 -303 166 -443c9 -33 17 -69 25 -105c-32 2 -62 3 -90 3c-44 0 -80 -1 -115 -4l-3 -78c47 6 83 7 119 7c33 0 68 -2 106 -4c7 -36 12 -67 15 -87c3 -28 5 -61 3 -81l97 8c-7 21 -14 59 -18 78l-15 73c64 -8 129 -20 189 -36zM457 645l75 7
c-9 33 -14 64 -14 90c0 46 22 91 163 91c64 0 133 -7 193 -19l-3 81c-53 7 -119 14 -191 14c-156 0 -238 -49 -238 -147c0 -37 6 -75 15 -117zM813 120l52 -23c27 38 66 100 85 138l-54 24c-22 -44 -55 -101 -83 -139z" />
</svg>
