<?xml version="1.0" standalone="no"?>
<!DOCTYPE svg PUBLIC "-//W3C//DTD SVG 1.1//EN" "http://www.w3.org/Graphics/SVG/1.1/DTD/svg11.dtd" >
<svg xmlns="http://www.w3.org/2000/svg" xmlns:xlink="http://www.w3.org/1999/xlink" version="1.1" viewBox="-10 0 1010 1000">
   <path fill="currentColor"
d="M732 361c23 33 61 95 82 139l-51 24c-23 -48 -52 -100 -82 -141zM841 319c24 33 63 94 87 138l-52 24c-24 -48 -53 -97 -85 -139zM83 222c38 -1 69 -3 88 -5c65 -6 252 -24 434 -40c108 -9 201 -14 267 -17v80c-57 0 -143 1 -194 16c-141 45 -226 196 -226 313
c0 193 180 254 341 260l-29 84c-183 -8 -392 -106 -392 -327c0 -154 93 -280 184 -334c-87 10 -357 36 -464 58z" />
</svg>
