<?xml version="1.0" standalone="no"?>
<!DOCTYPE svg PUBLIC "-//W3C//DTD SVG 1.1//EN" "http://www.w3.org/Graphics/SVG/1.1/DTD/svg11.dtd" >
<svg xmlns="http://www.w3.org/2000/svg" xmlns:xlink="http://www.w3.org/1999/xlink" version="1.1" viewBox="-10 0 1010 1000">
   <path fill="currentColor"
d="M640 819c60 0 101 -37 128 -92c-37 -21 -78 -36 -122 -36c-59 0 -88 32 -88 63c0 40 29 65 82 65zM443 494c19 -55 33 -120 43 -182c-80 17 -148 58 -202 110c15 37 29 69 40 93c18 39 38 76 60 109c22 -39 42 -83 59 -130zM230 484l-9 13c-44 66 -70 133 -70 203
c0 50 26 84 57 84c42 0 88 -35 131 -92c-24 -33 -48 -74 -69 -116c-12 -25 -26 -58 -40 -92zM573 234h10c161 0 298 108 298 293c0 66 -7 126 -22 177c42 32 76 67 102 97l-48 60c-21 -25 -48 -57 -82 -87c-38 72 -100 116 -188 116c-94 0 -155 -49 -155 -129
c0 -69 64 -133 156 -133c54 0 103 14 146 35c10 -42 15 -88 15 -134c0 -128 -81 -227 -227 -227h-14c-11 72 -26 147 -50 216c-63 179 -179 347 -309 347c-70 0 -126 -58 -126 -153c0 -102 35 -189 83 -255c12 -16 25 -33 39 -49c-11 -31 -22 -60 -30 -85
c-11 -36 -19 -64 -36 -103l75 -31c11 52 29 110 48 164c62 -52 141 -95 238 -112c2 -21 4 -41 5 -59c2 -34 2 -53 -1 -82l90 3c-5 24 -8 58 -11 79z" />
</svg>
