<?xml version="1.0" standalone="no"?>
<!DOCTYPE svg PUBLIC "-//W3C//DTD SVG 1.1//EN" "http://www.w3.org/Graphics/SVG/1.1/DTD/svg11.dtd" >
<svg xmlns="http://www.w3.org/2000/svg" xmlns:xlink="http://www.w3.org/1999/xlink" version="1.1" viewBox="-10 0 1010 1000">
   <path fill="currentColor"
d="M641 815c69 0 108 -41 130 -106c-43 -23 -88 -36 -135 -36c-51 0 -96 29 -96 69c0 51 45 73 101 73zM370 239l29 35c-12 18 -29 45 -44 69c-1 16 -3 32 -4 49c84 -75 207 -163 315 -163c134 0 205 120 205 284c0 62 -4 117 -13 165c40 28 76 61 110 97l-42 65
c-29 -33 -59 -62 -88 -86c-33 84 -92 132 -192 132c-95 0 -175 -41 -175 -141c0 -79 71 -137 172 -137c53 0 101 11 144 30c6 -42 8 -89 8 -139c0 -124 -61 -200 -143 -200c-92 0 -220 95 -307 188c-3 45 -4 89 -4 127c0 90 0 150 4 239c1 17 3 42 5 60h-87
c1 -14 3 -43 3 -59c1 -95 1 -144 3 -254c0 -10 1 -23 1 -38c-48 73 -113 168 -161 234l-50 -69c55 -69 169 -223 219 -301c2 -32 4 -64 6 -95c-45 5 -131 17 -193 25l-8 -82c22 1 41 0 65 -1c32 -2 90 -8 141 -17c3 -46 5 -82 5 -93c0 -23 1 -49 -4 -74l95 3
c-5 24 -13 80 -20 149z" />
</svg>
