<?xml version="1.0" standalone="no"?>
<!DOCTYPE svg PUBLIC "-//W3C//DTD SVG 1.1//EN" "http://www.w3.org/Graphics/SVG/1.1/DTD/svg11.dtd" >
<svg xmlns="http://www.w3.org/2000/svg" xmlns:xlink="http://www.w3.org/1999/xlink" version="1.1" viewBox="-10 0 1010 1000">
   <path fill="currentColor"
d="M271 740c44 0 99 -66 150 -233c25 -82 44 -176 55 -267c-190 24 -306 187 -306 320c0 125 58 180 101 180zM532 906l-46 -75c31 -2 61 -7 85 -12c127 -28 251 -122 251 -293c0 -150 -95 -273 -263 -287c-13 92 -32 192 -59 285c-61 203 -140 308 -232 308
c-88 0 -177 -102 -177 -265c0 -215 192 -403 434 -403c232 0 380 164 380 364c0 208 -137 347 -373 378z" />
</svg>
