<?xml version="1.0" standalone="no"?>
<!DOCTYPE svg PUBLIC "-//W3C//DTD SVG 1.1//EN" "http://www.w3.org/Graphics/SVG/1.1/DTD/svg11.dtd" >
<svg xmlns="http://www.w3.org/2000/svg" xmlns:xlink="http://www.w3.org/1999/xlink" version="1.1" viewBox="-10 0 1010 1000">
   <path fill="currentColor"
d="M776 278c0 36 30 66 66 66c37 0 67 -30 67 -66c0 -37 -30 -67 -67 -67c-36 0 -66 30 -66 67zM730 278c0 -63 50 -113 112 -113s113 50 113 113c0 62 -51 112 -113 112s-112 -50 -112 -112zM532 388l-51 -48c26 -16 54 -37 68 -49c-43 -35 -135 -84 -211 -115l47 -59
c76 32 185 86 244 130l19 52c-24 20 -80 63 -116 89zM302 897l-12 -84c51 15 98 23 160 23c46 0 100 -18 100 -82c0 -67 -73 -158 -127 -217c-22 -22 -52 -50 -80 -74l61 -52c24 25 49 52 72 77c93 97 158 185 158 274c0 122 -99 150 -171 150c-63 0 -117 -7 -161 -15z
M935 811l-74 40c-28 -94 -98 -235 -166 -313l67 -36c68 80 142 221 173 309zM325 658c-58 60 -157 144 -253 201l-48 -67c82 -44 197 -132 253 -194z" />
</svg>
