<?xml version="1.0" standalone="no"?>
<!DOCTYPE svg PUBLIC "-//W3C//DTD SVG 1.1//EN" "http://www.w3.org/Graphics/SVG/1.1/DTD/svg11.dtd" >
<svg xmlns="http://www.w3.org/2000/svg" xmlns:xlink="http://www.w3.org/1999/xlink" version="1.1" viewBox="-10 0 1010 1000">
   <path fill="currentColor"
d="M141 131l89 8c-6 16 -14 47 -17 65c-20 92 -49 284 -49 395c0 48 2 88 9 137c16 -45 40 -106 56 -146l42 33c-25 69 -60 170 -70 219c-3 14 -5 32 -4 44c0 10 1 24 2 34l-72 6c-20 -71 -37 -180 -37 -314c0 -145 32 -330 45 -411c3 -23 6 -49 6 -70zM634 753
c0 -11 0 -25 -1 -41c-31 -9 -61 -13 -92 -13c-70 0 -116 29 -116 71c0 50 44 74 112 74c76 0 97 -39 97 -91zM879 394v73c-52 6 -115 11 -183 15c1 61 5 125 7 182c93 31 162 83 210 127l-42 70c-49 -51 -105 -93 -164 -121c1 17 1 32 1 45c0 81 -58 129 -164 129
c-110 0 -190 -46 -190 -140c0 -69 59 -136 189 -136c31 0 59 3 87 7c-3 -50 -6 -109 -7 -161c-78 2 -160 2 -239 -2v-74c80 6 161 7 238 5v-162c-70 2 -145 2 -222 -1v-71c147 11 290 5 399 -8c-9 -23 -19 -45 -28 -62l48 -15c18 37 46 99 59 139l-50 18l-6 -18v6
c-38 4 -81 7 -127 10v161c67 -4 129 -10 184 -16zM871 79l49 -17c19 37 45 100 60 140l-50 17c-16 -44 -38 -103 -59 -140z" />
</svg>
