<?xml version="1.0" standalone="no"?>
<!DOCTYPE svg PUBLIC "-//W3C//DTD SVG 1.1//EN" "http://www.w3.org/Graphics/SVG/1.1/DTD/svg11.dtd" >
<svg xmlns="http://www.w3.org/2000/svg" xmlns:xlink="http://www.w3.org/1999/xlink" version="1.1" viewBox="-10 0 1010 1000">
   <path fill="currentColor"
d="M501 764c0 -17 -1 -40 -1 -67c-31 -6 -63 -9 -96 -9c-94 0 -145 36 -145 81c0 46 39 80 137 80c57 0 105 -17 105 -85zM862 798l-45 70c-58 -53 -140 -113 -239 -149c1 25 2 47 2 62c0 68 -46 139 -175 139c-142 0 -221 -51 -221 -147c0 -90 87 -151 230 -151
c29 0 56 2 83 6c-2 -44 -4 -91 -5 -132h-55c-68 0 -178 -6 -249 -14v-76c67 12 184 19 249 19h53v-14v-128h-49c-69 0 -174 -8 -233 -15v-74c60 11 166 19 232 19h51v-65c0 -16 -1 -45 -3 -59h85c-3 18 -4 37 -5 66c-1 12 -1 31 -1 55c86 -3 167 -11 254 -24l1 73
c-78 8 -163 16 -256 21v131v11c95 -4 186 -13 275 -26l1 75c-93 12 -181 19 -275 23c2 51 5 103 7 150c131 36 232 109 288 154z" />
</svg>
