<?xml version="1.0" standalone="no"?>
<!DOCTYPE svg PUBLIC "-//W3C//DTD SVG 1.1//EN" "http://www.w3.org/Graphics/SVG/1.1/DTD/svg11.dtd" >
<svg xmlns="http://www.w3.org/2000/svg" xmlns:xlink="http://www.w3.org/1999/xlink" version="1.1" viewBox="-10 0 1010 1000">
   <path fill="currentColor"
d="M595 188l-58 45c-38 -38 -86 -84 -129 -115l58 -42c33 25 92 73 129 112zM158 194l82 -32c8 16 25 48 35 65c17 33 37 73 57 114c119 -53 253 -106 356 -106c137 0 221 79 221 187c0 114 -73 201 -228 201c-55 0 -111 -14 -148 -28l3 -80c37 18 87 33 140 33
c109 0 153 -59 153 -129c0 -60 -46 -113 -144 -113c-86 0 -208 47 -322 100c13 27 26 55 38 82c54 122 116 307 150 416l-86 23c-31 -117 -78 -277 -135 -406c-12 -28 -25 -56 -37 -82c-76 37 -145 73 -190 93l-39 -82c29 -8 64 -20 82 -27c33 -13 73 -31 116 -50
c-20 -44 -39 -81 -56 -109c-12 -21 -32 -50 -48 -70z" />
</svg>
