<?xml version="1.0" standalone="no"?>
<!DOCTYPE svg PUBLIC "-//W3C//DTD SVG 1.1//EN" "http://www.w3.org/Graphics/SVG/1.1/DTD/svg11.dtd" >
<svg xmlns="http://www.w3.org/2000/svg" xmlns:xlink="http://www.w3.org/1999/xlink" version="1.1" viewBox="-10 0 1010 1000">
   <path fill="currentColor"
d="M594 700h5c138 0 227 -79 227 -209c0 -106 -67 -195 -210 -199c4 51 7 106 7 160c0 89 -8 173 -29 248zM506 92l83 -2c7 31 14 78 20 133c184 0 294 117 294 265c0 162 -100 288 -304 288c-11 0 -22 -1 -33 -2c-31 65 -76 121 -142 164l-74 -44c63 -34 108 -82 138 -139
c-69 -27 -127 -79 -163 -153l47 -56c34 70 80 119 145 141c23 -69 31 -149 31 -235c0 -54 -3 -107 -6 -154c-171 31 -282 180 -311 306c-5 18 -8 40 -7 61c1 22 7 67 13 93l-70 11c-18 -62 -32 -162 -32 -256c0 -111 20 -249 26 -303c1 -18 2 -33 1 -46l86 7
c-4 14 -9 30 -13 47c-13 64 -33 210 -27 288c56 -146 183 -249 327 -276c-4 -32 -9 -59 -13 -77c-4 -21 -10 -46 -16 -61z" />
</svg>
