<?xml version="1.0" standalone="no"?>
<!DOCTYPE svg PUBLIC "-//W3C//DTD SVG 1.1//EN" "http://www.w3.org/Graphics/SVG/1.1/DTD/svg11.dtd" >
<svg xmlns="http://www.w3.org/2000/svg" xmlns:xlink="http://www.w3.org/1999/xlink" version="1.1" viewBox="-10 0 1010 1000">
   <path fill="currentColor"
d="M554 128c-9 11 -21 29 -32 48c-44 68 -140 243 -191 339c48 -43 98 -60 145 -60c66 0 114 43 117 121c2 59 0 135 4 183c3 49 36 70 79 70c110 0 175 -136 201 -241l66 53c-52 160 -136 271 -280 271c-105 0 -140 -68 -143 -126c-4 -58 -2 -135 -5 -188
c-2 -44 -27 -69 -72 -69c-80 0 -153 80 -192 158c-30 59 -72 176 -85 225l-87 -29c73 -200 296 -619 350 -714c11 -24 24 -48 36 -77z" />
</svg>
