<?xml version="1.0" standalone="no"?>
<!DOCTYPE svg PUBLIC "-//W3C//DTD SVG 1.1//EN" "http://www.w3.org/Graphics/SVG/1.1/DTD/svg11.dtd" >
<svg xmlns="http://www.w3.org/2000/svg" xmlns:xlink="http://www.w3.org/1999/xlink" version="1.1" viewBox="-10 0 1010 1000">
   <path fill="currentColor"
d="M583 179c25 35 70 112 92 151l-59 26c-22 -42 -64 -117 -90 -153zM713 137c25 35 70 110 92 150l-58 26c-23 -43 -64 -116 -91 -152zM690 717c-82 27 -237 90 -304 117l-39 -75c62 -24 202 -79 257 -101c-56 -85 -213 -252 -318 -348l68 -50c128 117 291 302 357 393z
" />
</svg>
