<?xml version="1.0" standalone="no"?>
<!DOCTYPE svg PUBLIC "-//W3C//DTD SVG 1.1//EN" "http://www.w3.org/Graphics/SVG/1.1/DTD/svg11.dtd" >
<svg xmlns="http://www.w3.org/2000/svg" xmlns:xlink="http://www.w3.org/1999/xlink" version="1.1" viewBox="-10 0 1010 1000">
   <path fill="currentColor"
d="M442 478h87c-2 213 -22 364 -233 481l-71 -56c22 -8 46 -18 69 -34c135 -91 154 -201 154 -332c0 -19 -3 -39 -6 -59zM820 333l45 42c-6 7 -15 19 -20 27c-29 47 -113 172 -203 234l-65 -45c71 -43 143 -131 172 -180l-478 -1c-30 0 -63 1 -94 4v-83c28 4 64 7 94 7h494
c15 0 42 -2 55 -5z" />
</svg>
