<?xml version="1.0" standalone="no"?>
<!DOCTYPE svg PUBLIC "-//W3C//DTD SVG 1.1//EN" "http://www.w3.org/Graphics/SVG/1.1/DTD/svg11.dtd" >
<svg xmlns="http://www.w3.org/2000/svg" xmlns:xlink="http://www.w3.org/1999/xlink" version="1.1" viewBox="-10 0 1010 1000">
   <path fill="currentColor"
d="M815 188l-55 25c-20 -42 -55 -100 -80 -135l55 -23c23 34 60 95 80 133zM826 306v516c0 36 3 81 4 97h-90c0 -11 1 -32 2 -56h-489c-41 0 -86 2 -113 4v-91c26 3 69 6 111 6h491v-472h-479c-37 0 -87 2 -110 3v-89c33 4 77 6 109 6h492c25 0 55 -1 74 -2
c-1 23 -2 54 -2 78zM806 49l55 -23c24 34 61 94 82 132l-56 25c-22 -41 -54 -99 -81 -134z" />
</svg>
