<?xml version="1.0" standalone="no"?>
<!DOCTYPE svg PUBLIC "-//W3C//DTD SVG 1.1//EN" "http://www.w3.org/Graphics/SVG/1.1/DTD/svg11.dtd" >
<svg xmlns="http://www.w3.org/2000/svg" xmlns:xlink="http://www.w3.org/1999/xlink" version="1.1" viewBox="-10 0 1010 1000">
   <path fill="currentColor"
d="M456 128c22 48 82 207 99 263l-78 27c-16 -57 -73 -212 -98 -264zM808 166l92 26c-7 17 -14 41 -18 57c-30 124 -84 267 -166 375c-103 136 -251 239 -392 289l-69 -70c143 -42 292 -138 393 -266c82 -104 141 -268 160 -411zM177 188c26 56 89 209 112 275l-79 28
c-19 -62 -88 -231 -112 -274z" />
</svg>
