<?xml version="1.0" standalone="no"?>
<!DOCTYPE svg PUBLIC "-//W3C//DTD SVG 1.1//EN" "http://www.w3.org/Graphics/SVG/1.1/DTD/svg11.dtd" >
<svg xmlns="http://www.w3.org/2000/svg" xmlns:xlink="http://www.w3.org/1999/xlink" version="1.1" viewBox="-10 0 1010 1000">
   <path fill="currentColor"
d="M438 153c22 47 82 206 99 262l-78 28c-16 -58 -73 -212 -98 -264zM780 242l91 22c-7 17 -13 41 -18 57c-30 107 -73 219 -155 328c-103 135 -251 238 -393 288l-68 -69c143 -42 292 -138 392 -266c82 -105 132 -240 151 -360zM159 213c26 56 89 208 112 274l-79 29
c-19 -62 -88 -231 -112 -275zM748 55c23 33 60 95 80 133l-55 24c-20 -41 -55 -100 -80 -135zM874 26c25 34 61 94 82 132l-55 24c-22 -41 -55 -99 -82 -133z" />
</svg>
