<?xml version="1.0" standalone="no"?>
<!DOCTYPE svg PUBLIC "-//W3C//DTD SVG 1.1//EN" "http://www.w3.org/Graphics/SVG/1.1/DTD/svg11.dtd" >
<svg xmlns="http://www.w3.org/2000/svg" xmlns:xlink="http://www.w3.org/1999/xlink" version="1.1" viewBox="-10 0 1010 1000">
   <path fill="currentColor"
d="M867 205l-54 24c-20 -41 -54 -101 -81 -138l53 -23c25 36 61 96 82 137zM640 229h-345c-33 0 -66 1 -92 3v-83c29 3 59 6 91 6h346c28 0 64 -2 93 -6v83c-29 -2 -64 -3 -93 -3zM172 405h654c21 0 54 -1 78 -4v82c-22 -1 -54 -2 -78 -2h-272c-3 108 -19 199 -59 273
c-36 67 -112 139 -197 183l-74 -55c78 -32 150 -90 189 -153c44 -70 55 -154 58 -248h-299c-31 0 -60 0 -87 2v-82c27 2 56 4 87 4zM842 50l53 -22c26 36 65 99 84 136l-54 24c-22 -44 -54 -100 -83 -138z" />
</svg>
