<?xml version="1.0" standalone="no"?>
<!DOCTYPE svg PUBLIC "-//W3C//DTD SVG 1.1//EN" "http://www.w3.org/Graphics/SVG/1.1/DTD/svg11.dtd" >
<svg xmlns="http://www.w3.org/2000/svg" xmlns:xlink="http://www.w3.org/1999/xlink" version="1.1" viewBox="-10 0 1010 1000">
   <path fill="currentColor"
d="M569 340h266c33 0 71 -2 87 -4v85c-16 -2 -57 -3 -88 -3h-265c0 220 -75 382 -277 500l-78 -58c188 -89 270 -236 271 -442h-293c-38 0 -74 1 -94 3v-86c20 2 56 5 92 5h295v-135c0 -30 -4 -79 -9 -99h99c-3 20 -6 70 -6 100v134z" />
</svg>
