<?xml version="1.0" standalone="no"?>
<!DOCTYPE svg PUBLIC "-//W3C//DTD SVG 1.1//EN" "http://www.w3.org/Graphics/SVG/1.1/DTD/svg11.dtd" >
<svg xmlns="http://www.w3.org/2000/svg" xmlns:xlink="http://www.w3.org/1999/xlink" version="1.1" viewBox="-10 0 1010 1000">
   <path fill="currentColor"
d="M783 183c0 36 29 66 65 66c37 0 67 -30 67 -66s-30 -67 -67 -67c-36 0 -65 31 -65 67zM737 183c0 -62 50 -113 111 -113c62 0 113 51 113 113s-51 112 -113 112c-61 0 -111 -50 -111 -112zM218 579c43 -103 85 -255 98 -370l89 18c-6 22 -14 51 -18 73
c-14 62 -49 210 -91 312c-37 92 -91 195 -147 275l-85 -36c63 -83 119 -188 154 -272zM710 541c-40 -103 -101 -242 -145 -316l81 -27c40 72 104 210 146 316c41 99 94 252 120 342l-89 29c-25 -102 -71 -237 -113 -344z" />
</svg>
