<?xml version="1.0" standalone="no"?>
<!DOCTYPE svg PUBLIC "-//W3C//DTD SVG 1.1//EN" "http://www.w3.org/Graphics/SVG/1.1/DTD/svg11.dtd" >
<svg xmlns="http://www.w3.org/2000/svg" xmlns:xlink="http://www.w3.org/1999/xlink" version="1.1" viewBox="-10 0 1010 1000">
   <path fill="currentColor"
d="M871 228c36 0 66 -30 66 -66s-30 -67 -66 -67c-37 0 -66 31 -66 67s29 66 66 66zM230 195h501c10 0 21 0 33 -1c-3 -10 -5 -21 -5 -32c0 -62 50 -113 112 -113s112 51 112 113s-50 112 -112 112c-13 0 -26 -2 -38 -6l-2 11c-22 105 -70 266 -149 369
c-92 117 -211 210 -394 267l-68 -75c194 -48 306 -133 390 -240c71 -91 117 -230 131 -326h-512c-39 0 -74 2 -99 3v-88c27 3 67 6 100 6z" />
</svg>
