<?xml version="1.0" standalone="no"?>
<!DOCTYPE svg PUBLIC "-//W3C//DTD SVG 1.1//EN" "http://www.w3.org/Graphics/SVG/1.1/DTD/svg11.dtd" >
<svg xmlns="http://www.w3.org/2000/svg" xmlns:xlink="http://www.w3.org/1999/xlink" version="1.1" viewBox="-10 0 1010 1000">
   <path fill="currentColor"
d="M679 793h98c22 0 58 -1 79 -3v81c-18 -1 -55 -2 -76 -2h-548c-31 0 -54 1 -83 3v-83c24 2 52 4 83 4h362c15 -84 44 -279 47 -336h-318c-29 0 -55 2 -80 3v-84c24 3 54 6 79 6h304c16 0 41 -3 50 -7l61 29c-3 10 -6 23 -7 31c-8 68 -37 266 -51 358z" />
</svg>
