<?xml version="1.0" standalone="no"?>
<!DOCTYPE svg PUBLIC "-//W3C//DTD SVG 1.1//EN" "http://www.w3.org/Graphics/SVG/1.1/DTD/svg11.dtd" >
<svg xmlns="http://www.w3.org/2000/svg" xmlns:xlink="http://www.w3.org/1999/xlink" version="1.1" viewBox="-10 0 1010 1000">
   <path fill="currentColor"
d="M770 340l56 36c-4 7 -10 31 -12 39c-17 112 -45 242 -109 327c-73 97 -172 171 -307 218l-66 -67c118 -29 224 -93 296 -186c54 -69 85 -163 98 -289h-455v154c0 11 0 36 1 56h-84c2 -20 3 -41 3 -56v-172c0 -19 -2 -40 -3 -57c22 2 55 2 90 2h440c17 0 36 0 52 -5z" />
</svg>
