<?xml version="1.0" standalone="no"?>
<!DOCTYPE svg PUBLIC "-//W3C//DTD SVG 1.1//EN" "http://www.w3.org/Graphics/SVG/1.1/DTD/svg11.dtd" >
<svg xmlns="http://www.w3.org/2000/svg" xmlns:xlink="http://www.w3.org/1999/xlink" version="1.1" viewBox="-10 0 1010 1000">
   <path fill="currentColor"
d="M815 174l61 39c-4 10 -11 37 -13 46c-18 119 -39 261 -111 374c-81 128 -218 230 -379 282l-68 -69c147 -39 290 -126 372 -254c57 -89 85 -217 95 -335h-552v200c0 15 1 40 3 64h-91c3 -24 4 -45 4 -64v-213c0 -23 -1 -45 -4 -67c27 2 64 3 107 3h513c22 0 46 -2 63 -6z
" />
</svg>
