<?xml version="1.0" standalone="no"?>
<!DOCTYPE svg PUBLIC "-//W3C//DTD SVG 1.1//EN" "http://www.w3.org/Graphics/SVG/1.1/DTD/svg11.dtd" >
<svg xmlns="http://www.w3.org/2000/svg" xmlns:xlink="http://www.w3.org/1999/xlink" version="1.1" viewBox="-10 0 1010 1000">
   <path fill="currentColor"
d="M816 163l64 40c-4 9 -10 21 -13 36c-23 125 -59 284 -117 375c-94 144 -220 242 -417 308l-65 -70c173 -41 314 -132 405 -266c16 -24 30 -53 42 -85h-435c-34 0 -61 2 -92 4v-82c27 3 58 5 89 5h463c17 -61 29 -126 37 -183h-512c-40 0 -80 3 -103 4v-87
c22 2 62 7 103 7h490c22 0 44 -2 61 -6z" />
</svg>
