<?xml version="1.0" standalone="no"?>
<!DOCTYPE svg PUBLIC "-//W3C//DTD SVG 1.1//EN" "http://www.w3.org/Graphics/SVG/1.1/DTD/svg11.dtd" >
<svg xmlns="http://www.w3.org/2000/svg" xmlns:xlink="http://www.w3.org/1999/xlink" version="1.1" viewBox="-10 0 1010 1000">
   <path fill="currentColor"
d="M375 427h401c21 0 54 -1 78 -5v79c-26 -2 -58 -3 -78 -3h-147c-16 231 -106 373 -254 463l-79 -52c22 -9 59 -31 78 -46c79 -63 164 -166 178 -365h-214c-38 63 -97 138 -140 174l-73 -43c62 -46 118 -121 151 -174c26 -43 44 -89 54 -128c5 -18 9 -40 11 -59l89 19
c-8 19 -14 35 -19 52c-9 25 -22 58 -36 88z" />
</svg>
