<?xml version="1.0" standalone="no"?>
<!DOCTYPE svg PUBLIC "-//W3C//DTD SVG 1.1//EN" "http://www.w3.org/Graphics/SVG/1.1/DTD/svg11.dtd" >
<svg xmlns="http://www.w3.org/2000/svg" xmlns:xlink="http://www.w3.org/1999/xlink" version="1.1" viewBox="-10 0 1010 1000">
   <path fill="currentColor"
d="M570 347h255s0 26 -2 37c-31 339 -60 469 -107 516c-24 26 -47 33 -84 36c-30 3 -85 2 -142 -2c-1 -22 -11 -54 -24 -75c60 5 117 6 140 6c22 0 33 -2 46 -14c37 -33 66 -152 92 -434h-190c-56 238 -160 402 -362 515c-10 -16 -36 -47 -52 -63c189 -95 286 -242 339 -452
h-157c-49 0 -84 4 -93 12c-4 -17 -17 -55 -26 -76c16 -4 30 -24 48 -50c16 -28 71 -129 100 -225l80 27c-33 84 -79 173 -124 242h188c16 -83 27 -176 35 -278l75 5c-9 100 -19 191 -35 273z" />
</svg>
