<?xml version="1.0" standalone="no"?>
<!DOCTYPE svg PUBLIC "-//W3C//DTD SVG 1.1//EN" "http://www.w3.org/Graphics/SVG/1.1/DTD/svg11.dtd" >
<svg xmlns="http://www.w3.org/2000/svg" xmlns:xlink="http://www.w3.org/1999/xlink" version="1.1" viewBox="-10 0 1010 1000">
   <path fill="currentColor"
d="M400 102l79 29c-56 113 -152 246 -229 358c102 127 214 291 265 390l-81 42c-49 -110 -161 -285 -277 -432c90 -123 193 -289 243 -387zM716 122l82 29c-58 107 -154 232 -232 337c102 119 213 272 266 366l-80 42c-51 -103 -165 -269 -280 -408
c90 -118 194 -273 244 -366z" />
</svg>
