<?xml version="1.0" standalone="no"?>
<!DOCTYPE svg PUBLIC "-//W3C//DTD SVG 1.1//EN" "http://www.w3.org/Graphics/SVG/1.1/DTD/svg11.dtd" >
<svg xmlns="http://www.w3.org/2000/svg" xmlns:xlink="http://www.w3.org/1999/xlink" version="1.1" viewBox="-10 0 1010 1000">
   <path fill="currentColor"
d="M687 464l-76 -10c23 -90 51 -210 69 -298h-462v-73h484l13 -4l58 9c-19 107 -56 261 -86 376zM736 491l55 30c-25 145 -71 318 -109 418c-16 -10 -46 -28 -65 -36c28 -77 64 -219 84 -335h-384c-47 0 -81 5 -90 13c-4 -18 -18 -58 -28 -79c14 -4 26 -25 37 -55
c10 -28 45 -138 56 -240l86 24c-16 90 -49 188 -82 264h425z" />
</svg>
