<?xml version="1.0" standalone="no"?>
<!DOCTYPE svg PUBLIC "-//W3C//DTD SVG 1.1//EN" "http://www.w3.org/Graphics/SVG/1.1/DTD/svg11.dtd" >
<svg xmlns="http://www.w3.org/2000/svg" xmlns:xlink="http://www.w3.org/1999/xlink" version="1.1" viewBox="-10 0 930 1000">
   <path fill="currentColor"
d="M235 531v144c70 -1 138 -5 212 -23l10 67c-91 20 -169 23 -256 23h-47v-275h185v-136h-187v-64h268v264h-185zM627 686c47 0 81 -37 81 -90s-34 -90 -81 -90c-49 0 -83 37 -83 90s34 90 83 90zM627 442c84 0 150 63 150 154s-66 154 -150 154c-87 0 -152 -63 -152 -154
s65 -154 152 -154zM670 341h129v67h-345v-67h136v-97h80v97z" />
</svg>
