<?xml version="1.0" standalone="no"?>
<!DOCTYPE svg PUBLIC "-//W3C//DTD SVG 1.1//EN" "http://www.w3.org/Graphics/SVG/1.1/DTD/svg11.dtd" >
<svg xmlns="http://www.w3.org/2000/svg" xmlns:xlink="http://www.w3.org/1999/xlink" version="1.1" viewBox="-10 0 930 1000">
   <path fill="currentColor"
d="M672 268v116c0 103 47 220 161 272l-46 61c-80 -39 -131 -109 -157 -189c-27 83 -79 162 -162 203c-84 -43 -136 -124 -163 -207c-26 79 -76 153 -155 194l-48 -60c115 -56 162 -181 162 -274v-116h82v120c0 81 37 189 122 256c85 -66 122 -172 122 -256v-120h82z" />
</svg>
