<?xml version="1.0" standalone="no"?>
<!DOCTYPE svg PUBLIC "-//W3C//DTD SVG 1.1//EN" "http://www.w3.org/Graphics/SVG/1.1/DTD/svg11.dtd" >
<svg xmlns="http://www.w3.org/2000/svg" xmlns:xlink="http://www.w3.org/1999/xlink" version="1.1" viewBox="-10 0 930 1000">
   <path fill="currentColor"
d="M152 534v143c49 -1 101 -4 167 -15l7 65c-83 15 -143 15 -205 15h-38v-274h148v-136h-150v-67h218v269h-147zM519 675v-178h-113v178h113zM762 262v148c0 94 19 217 113 280l-47 56c-55 -38 -87 -100 -104 -167c-21 68 -56 129 -115 166l-23 -23v20h-249v-479h69v166h113
v-166h67v410c78 -64 100 -172 100 -259v-152h76z" />
</svg>
