<?xml version="1.0" standalone="no"?>
<!DOCTYPE svg PUBLIC "-//W3C//DTD SVG 1.1//EN" "http://www.w3.org/Graphics/SVG/1.1/DTD/svg11.dtd" >
<svg xmlns="http://www.w3.org/2000/svg" xmlns:xlink="http://www.w3.org/1999/xlink" version="1.1" viewBox="-10 0 930 1000">
   <path fill="currentColor"
d="M202 155h68v105h107v-105h68v356h-243v-356zM270 326v118h107v-118h-107zM482 155h68v105h109v-105h68v356h-245v-356zM550 326v118h109v-118h-109zM465 589c83 0 146 52 146 129c0 76 -63 128 -146 128c-82 0 -145 -52 -145 -128c0 -77 63 -129 145 -129zM465 649
c-44 0 -76 28 -76 69c0 40 32 69 76 69c45 0 77 -29 77 -69c0 -41 -32 -69 -77 -69z" />
</svg>
