<?xml version="1.0" standalone="no"?>
<!DOCTYPE svg PUBLIC "-//W3C//DTD SVG 1.1//EN" "http://www.w3.org/Graphics/SVG/1.1/DTD/svg11.dtd" >
<svg xmlns="http://www.w3.org/2000/svg" xmlns:xlink="http://www.w3.org/1999/xlink" version="1.1" viewBox="-10 0 930 1000">
   <path fill="currentColor"
d="M298 688c50 0 90 -54 90 -124c0 -71 -40 -125 -90 -125c-51 0 -90 54 -90 125c0 70 39 124 90 124zM337 265v107c73 20 126 95 126 192c0 113 -73 197 -165 197s-166 -84 -166 -197c0 -97 54 -173 127 -193v-106h78zM629 432l-87 257h171zM629 240l176 516h-354z" />
</svg>
