<?xml version="1.0" standalone="no"?>
<!DOCTYPE svg PUBLIC "-//W3C//DTD SVG 1.1//EN" "http://www.w3.org/Graphics/SVG/1.1/DTD/svg11.dtd" >
<svg xmlns="http://www.w3.org/2000/svg" xmlns:xlink="http://www.w3.org/1999/xlink" version="1.1" viewBox="-10 0 1010 1000">
   <path fill="currentColor"
d="M929 186h-399v143h364v530c0 46 -10 70 -45 83c-34 11 -94 12 -182 12c-4 -21 -16 -54 -27 -74c70 3 136 2 157 1c19 -1 23 -6 23 -22v-459h-292c-2 27 -6 55 -12 83c92 71 207 171 264 236l-55 54c-48 -60 -144 -149 -232 -221c-36 85 -106 170 -241 238
c-10 -16 -32 -41 -50 -55c202 -93 244 -224 252 -335h-272v555h-74v-626h348v-143h-384v-73h857v73z" />
</svg>
