<?xml version="1.0" standalone="no"?>
<!DOCTYPE svg PUBLIC "-//W3C//DTD SVG 1.1//EN" "http://www.w3.org/Graphics/SVG/1.1/DTD/svg11.dtd" >
<svg xmlns="http://www.w3.org/2000/svg" xmlns:xlink="http://www.w3.org/1999/xlink" version="1.1" viewBox="-10 0 1010 1000">
   <path fill="currentColor"
d="M408 809h346c43 0 108 -3 137 -9c2 20 7 52 11 67c-26 7 -83 8 -144 8h-345c-129 0 -181 -44 -181 -166v-338h-151v-72h151v-196h76v196h507l13 -2l54 14c-23 83 -55 176 -82 232l-68 -16c19 -39 39 -99 55 -156h-479v343c0 66 24 95 100 95z" />
</svg>
