<?xml version="1.0" standalone="no"?>
<!DOCTYPE svg PUBLIC "-//W3C//DTD SVG 1.1//EN" "http://www.w3.org/Graphics/SVG/1.1/DTD/svg11.dtd" >
<svg xmlns="http://www.w3.org/2000/svg" xmlns:xlink="http://www.w3.org/1999/xlink" version="1.1" viewBox="-10 0 1010 1000">
   <path fill="currentColor"
d="M940 185h-397v133h351v553c0 42 -10 63 -41 75c-32 12 -86 12 -163 12c-5 -20 -15 -49 -26 -69c61 2 118 2 135 1c17 0 22 -5 22 -20v-482h-278v90c-142 14 -232 142 -170 246c90 150 278 62 307 -100l56 23c-70 279 -354 257 -422 112c-94 -187 52 -318 152 -338v-33
h-276v571h-73v-641h349v-133h-405v-74h879v74z" />
</svg>
