<?xml version="1.0" standalone="no"?>
<!DOCTYPE svg PUBLIC "-//W3C//DTD SVG 1.1//EN" "http://www.w3.org/Graphics/SVG/1.1/DTD/svg11.dtd" >
<svg xmlns="http://www.w3.org/2000/svg" xmlns:xlink="http://www.w3.org/1999/xlink" version="1.1" viewBox="-10 0 1010 1000">
   <path fill="currentColor"
d="M653 118l61 42c-50 92 -115 200 -175 296c128 103 160 180 160 253c0 60 -19 112 -64 138c-23 11 -53 19 -87 22c-43 4 -103 4 -153 0c-3 -22 -15 -57 -29 -77c52 4 103 5 138 4c27 -1 53 -4 74 -11c32 -13 43 -44 43 -79c0 -67 -45 -140 -174 -237
c51 -85 112 -194 153 -274h-280v-73h321z" />
</svg>
