<?xml version="1.0" standalone="no"?>
<!DOCTYPE svg PUBLIC "-//W3C//DTD SVG 1.1//EN" "http://www.w3.org/Graphics/SVG/1.1/DTD/svg11.dtd" >
<svg xmlns="http://www.w3.org/2000/svg" xmlns:xlink="http://www.w3.org/1999/xlink" version="1.1" viewBox="-10 0 1010 1000">
   <path fill="currentColor"
d="M347 258c51 28 146 91 181 119l-41 61c-41 -32 -129 -91 -179 -119zM222 847c92 -16 194 -48 277 -95c137 -79 244 -186 311 -302l42 70c-71 112 -185 218 -316 294c-82 49 -197 87 -274 103zM224 444c51 27 147 86 182 111l-40 62c-40 -30 -130 -88 -181 -113z" />
</svg>
