<?xml version="1.0" standalone="no"?>
<!DOCTYPE svg PUBLIC "-//W3C//DTD SVG 1.1//EN" "http://www.w3.org/Graphics/SVG/1.1/DTD/svg11.dtd" >
<svg xmlns="http://www.w3.org/2000/svg" xmlns:xlink="http://www.w3.org/1999/xlink" version="1.1" viewBox="-10 0 1010 1000">
   <path fill="currentColor"
d="M157 45l45 14c-83 129 -110 280 -111 441c0 162 28 312 111 441l-45 14c-89 -134 -125 -279 -125 -455c0 -175 36 -321 125 -455zM334 527v165h422v66h-497v-293h405v-161h-407v-61h481v284h-404zM798 59l45 -14c89 134 125 280 125 455c0 176 -36 321 -125 455l-45 -14
c83 -129 111 -288 111 -441c0 -161 -28 -312 -111 -441z" />
</svg>
