<?xml version="1.0" standalone="no"?>
<!DOCTYPE svg PUBLIC "-//W3C//DTD SVG 1.1//EN" "http://www.w3.org/Graphics/SVG/1.1/DTD/svg11.dtd" >
<svg xmlns="http://www.w3.org/2000/svg" xmlns:xlink="http://www.w3.org/1999/xlink" version="1.1" viewBox="-10 0 1010 1000">
   <path fill="currentColor"
d="M503 264c147 0 256 96 256 232c0 137 -109 233 -256 233c-146 0 -256 -96 -256 -233c0 -136 110 -232 256 -232zM503 328c-106 0 -185 71 -185 168s79 168 185 168c107 0 186 -71 186 -168s-79 -168 -186 -168zM157 955c-89 -134 -125 -279 -125 -455
c0 -175 36 -321 125 -455l45 14c-83 129 -110 280 -111 441c0 162 28 312 111 441zM843 955l-45 -14c83 -129 111 -288 111 -441c0 -161 -28 -312 -111 -441l45 -14c89 134 125 280 125 455c0 176 -36 321 -125 455z" />
</svg>
