<?xml version="1.0" standalone="no"?>
<!DOCTYPE svg PUBLIC "-//W3C//DTD SVG 1.1//EN" "http://www.w3.org/Graphics/SVG/1.1/DTD/svg11.dtd" >
<svg xmlns="http://www.w3.org/2000/svg" xmlns:xlink="http://www.w3.org/1999/xlink" version="1.1" viewBox="-10 0 1010 1000">
   <path fill="currentColor"
d="M157 45l41 14c-83 129 -110 280 -111 441c0 162 28 312 111 441l-41 14c-89 -134 -125 -279 -125 -455c0 -175 36 -321 125 -455zM377 680c68 0 118 -49 118 -116c0 -68 -50 -116 -118 -116s-118 48 -118 116c0 67 50 116 118 116zM377 384c111 0 193 73 193 180
c0 105 -82 180 -193 180c-110 0 -192 -75 -192 -180c0 -107 82 -180 192 -180zM420 124v127h186v68h-456v-68h187v-127h83zM875 497h-114v414h-82v-817h82v337h114v66zM802 59l41 -14c89 134 125 280 125 455c0 176 -36 321 -125 455l-41 -14c83 -129 111 -288 111 -441
c0 -161 -28 -312 -111 -441z" />
</svg>
