<?xml version="1.0" standalone="no"?>
<!DOCTYPE svg PUBLIC "-//W3C//DTD SVG 1.1//EN" "http://www.w3.org/Graphics/SVG/1.1/DTD/svg11.dtd" >
<svg xmlns="http://www.w3.org/2000/svg" xmlns:xlink="http://www.w3.org/1999/xlink" version="1.1" viewBox="-10 0 1010 1000">
   <path fill="currentColor"
d="M157 45l45 14c-83 129 -111 280 -111 441c1 162 28 312 111 441l-45 14c-89 -134 -125 -279 -125 -455c0 -175 36 -321 125 -455zM434 572l-38 53c-9 -26 -31 -73 -51 -114v382h-61v-374c-24 86 -53 167 -84 220c-7 -19 -23 -46 -34 -62c46 -73 90 -209 112 -327h-89v-63
h95v-182h61v182h75v63h-75v71c23 37 77 128 89 151zM811 520h-140c42 95 110 196 168 247c-15 12 -37 34 -48 49c-48 -49 -101 -135 -141 -223v300h-63v-291c-43 94 -102 181 -160 233c-11 -15 -31 -37 -46 -49c70 -54 142 -161 184 -266h-144v-63h166v-139h-84
c-13 39 -26 74 -41 103c-11 -8 -37 -22 -52 -28c36 -67 61 -166 76 -260l58 11c-6 37 -14 75 -23 111h66v-150h63v150h144v63h-144v139h161v63zM798 59l45 -14c89 134 125 280 125 455c0 176 -36 321 -125 455l-45 -14c83 -129 110 -279 111 -441c0 -161 -28 -312 -111 -441
z" />
</svg>
