<?xml version="1.0" standalone="no"?>
<!DOCTYPE svg PUBLIC "-//W3C//DTD SVG 1.1//EN" "http://www.w3.org/Graphics/SVG/1.1/DTD/svg11.dtd" >
<svg xmlns="http://www.w3.org/2000/svg" xmlns:xlink="http://www.w3.org/1999/xlink" version="1.1" viewBox="-10 0 1010 1000">
   <path fill="currentColor"
d="M157 45l45 14c-83 129 -111 280 -111 441c1 162 28 312 111 441l-45 14c-89 -134 -125 -279 -125 -455c0 -175 36 -321 125 -455zM463 646l45 -28c34 42 71 100 86 137l-47 33c-14 -39 -50 -99 -84 -142zM812 594h-76v226c0 35 -6 54 -30 65c-23 11 -60 12 -117 12
c-3 -18 -11 -45 -20 -64c42 1 78 2 90 1c11 -1 14 -4 14 -14v-226h-245v-45l-64 26v325h-61v-301c-39 16 -77 31 -112 44l-14 -68c35 -11 79 -27 126 -44v-185h-58c-9 48 -19 91 -32 127c-10 -7 -34 -20 -47 -27c28 -76 40 -187 48 -295l54 10c-4 40 -8 81 -13 121h48v-172
h61v172h66v64h-66v162l70 -26l9 51h230v-102h-254v-62h167v-108h-129v-61h129v-92h63v92h134v61h-134v108h167v62h-80v102h76v61zM798 59l45 -14c89 134 125 280 125 455c0 176 -36 321 -125 455l-45 -14c83 -129 110 -279 111 -441c0 -161 -28 -312 -111 -441z" />
</svg>
