<?xml version="1.0" standalone="no"?>
<!DOCTYPE svg PUBLIC "-//W3C//DTD SVG 1.1//EN" "http://www.w3.org/Graphics/SVG/1.1/DTD/svg11.dtd" >
<svg xmlns="http://www.w3.org/2000/svg" xmlns:xlink="http://www.w3.org/1999/xlink" version="1.1" viewBox="-10 0 1010 1000">
   <path fill="currentColor"
d="M556 215h-63c-18 26 -39 50 -65 73c-11 -12 -32 -26 -47 -34c55 -44 90 -102 107 -153l58 8c-7 18 -14 36 -23 53h227l12 -2l44 13c-20 43 -47 92 -73 122l-53 -17c14 -17 29 -40 41 -63h-97c16 68 60 124 200 152c-13 12 -29 34 -36 50c-115 -26 -168 -75 -196 -133
c-28 57 -80 95 -175 120c-6 -13 -21 -34 -32 -44c111 -26 155 -70 171 -145zM667 508v-55h-329v55h329zM667 610v-56h-329v56h329zM667 713v-57h-329v57h329zM734 405v355h-461v-355h461zM374 273l10 51c-62 28 -126 55 -182 79l-24 -56c52 -17 122 -46 196 -74zM383 187
l-29 50c-32 -22 -93 -53 -142 -71l30 -44c47 16 109 44 141 65zM157 45l45 14c-83 129 -111 280 -111 441c1 162 28 312 111 441l-45 14c-89 -134 -125 -279 -125 -455c0 -175 36 -321 125 -455zM393 767l63 24c-56 40 -146 81 -217 105c-10 -12 -34 -38 -48 -50
c71 -20 153 -48 202 -79zM557 802l43 -35c75 28 158 65 208 92l-57 36c-45 -27 -122 -64 -194 -93zM798 59l45 -14c89 134 125 280 125 455c0 176 -36 321 -125 455l-45 -14c83 -129 110 -279 111 -441c0 -161 -28 -312 -111 -441z" />
</svg>
