<?xml version="1.0" standalone="no"?>
<!DOCTYPE svg PUBLIC "-//W3C//DTD SVG 1.1//EN" "http://www.w3.org/Graphics/SVG/1.1/DTD/svg11.dtd" >
<svg xmlns="http://www.w3.org/2000/svg" xmlns:xlink="http://www.w3.org/1999/xlink" version="1.1" viewBox="-10 0 1010 1000">
   <path fill="currentColor"
d="M493 712l-55 21c-2 -14 -6 -30 -11 -48c-201 38 -230 46 -247 56c-4 -13 -13 -43 -21 -60c19 -3 39 -28 65 -64c14 -18 45 -65 80 -124c-100 10 -122 14 -136 21c-3 -14 -13 -46 -21 -62c16 -3 31 -24 49 -53c19 -29 79 -140 112 -244l63 25c-37 91 -84 184 -132 258
l99 -7c20 -38 39 -78 55 -117l59 28c-54 111 -120 223 -187 312l145 -24c-11 -31 -24 -63 -38 -91l52 -18c32 61 61 141 69 191zM639 307h182s0 22 -1 31c-9 301 -18 400 -43 433c-15 20 -31 27 -56 29c-22 3 -59 2 -96 0c-1 -18 -7 -44 -17 -60c37 3 70 3 85 3
c14 0 22 -1 29 -12c16 -21 26 -111 34 -361h-117v3c0 152 -18 312 -142 445c-11 -13 -31 -31 -47 -41c113 -124 127 -274 127 -405v-2h-104v-63h104v-146h62v146zM500 934c240 0 434 -194 434 -434s-194 -434 -434 -434s-434 194 -434 434s194 434 434 434zM500 34
c257 0 466 209 466 466s-209 466 -466 466s-466 -209 -466 -466s209 -466 466 -466z" />
</svg>
