<?xml version="1.0" standalone="no"?>
<!DOCTYPE svg PUBLIC "-//W3C//DTD SVG 1.1//EN" "http://www.w3.org/Graphics/SVG/1.1/DTD/svg11.dtd" >
<svg xmlns="http://www.w3.org/2000/svg" xmlns:xlink="http://www.w3.org/1999/xlink" version="1.1" viewBox="-10 0 1010 1000">
   <path fill="currentColor"
d="M613 279h-46c-18 26 -38 48 -58 67c-13 -9 -40 -25 -56 -32c46 -37 84 -89 105 -145l61 14c-6 16 -13 32 -22 47h219v49h-136c15 21 28 43 35 60l-55 19c-8 -21 -27 -53 -47 -79zM675 672v-46h-147v46h147zM528 531v47h147v-47h-147zM560 434h-200c-22 17 -46 34 -71 50
h204c23 -15 47 -32 67 -50zM738 578h95v48h-95v111h-63v-18h-147v69c0 32 -7 49 -33 58c-25 10 -67 10 -132 10c-2 -17 -12 -39 -20 -54c50 1 94 1 108 0c12 -1 16 -4 16 -15v-68h-196v-47h196v-46h-297v-48h297v-47h-188v-41c-18 11 -36 21 -56 31c-11 -14 -31 -33 -46 -42
c95 -42 168 -99 211 -152l-54 19c-5 -19 -18 -46 -31 -69h-25c-22 32 -47 60 -71 83c-11 -10 -37 -27 -51 -34c48 -41 91 -99 116 -158l59 16c-6 14 -14 29 -22 43h180v50h-123c10 17 18 35 23 49l4 -5l67 13c-13 16 -27 32 -43 48h198l10 -2l41 29c-23 26 -55 52 -87 75
h159v94zM500 934c240 0 434 -194 434 -434s-194 -434 -434 -434s-434 194 -434 434s194 434 434 434zM500 34c257 0 466 209 466 466s-209 466 -466 466s-466 -209 -466 -466s209 -466 466 -466z" />
</svg>
