<?xml version="1.0" standalone="no"?>
<!DOCTYPE svg PUBLIC "-//W3C//DTD SVG 1.1//EN" "http://www.w3.org/Graphics/SVG/1.1/DTD/svg11.dtd" >
<svg xmlns="http://www.w3.org/2000/svg" xmlns:xlink="http://www.w3.org/1999/xlink" version="1.1" viewBox="-10 0 1010 1000">
   <path fill="currentColor"
d="M711 869v-735h260v72h-182v242h139v71h-139v279h190v71h-268zM29 869v-735h86c116 0 186 55 186 216c0 154 -67 227 -178 227h-17v292h-77zM106 507h9c75 0 109 -48 109 -157c0 -110 -34 -145 -109 -145h-9v302zM444 869v-663h-131v-72h340v72h-131v663h-78z" />
</svg>
