<?xml version="1.0" standalone="no"?>
<!DOCTYPE svg PUBLIC "-//W3C//DTD SVG 1.1//EN" "http://www.w3.org/Graphics/SVG/1.1/DTD/svg11.dtd" >
<svg xmlns="http://www.w3.org/2000/svg" xmlns:xlink="http://www.w3.org/1999/xlink" version="1.1" viewBox="-10 0 1010 1000">
   <path fill="currentColor"
d="M500 966c-257 0 -466 -209 -466 -466s209 -466 466 -466s466 209 466 466c0 259 -211 466 -466 466zM500 934c240 0 434 -194 434 -434s-194 -434 -434 -434c-242 0 -434 196 -434 434c0 240 194 434 434 434zM191 753v-48c127 -147 201 -239 201 -321
c0 -58 -25 -95 -75 -95c-35 0 -63 24 -87 54l-45 -43c40 -49 87 -77 141 -77c87 0 141 62 141 155c0 96 -76 193 -170 309c24 -2 53 -4 81 -4h107v70h-294zM655 765c-68 0 -120 -31 -150 -70l39 -50c29 30 61 54 109 54s82 -35 82 -88c0 -58 -32 -96 -136 -96v-61
c89 0 120 -37 120 -89c0 -48 -28 -77 -70 -77c-31 0 -61 15 -87 45l-43 -48c37 -38 81 -62 135 -62c84 0 143 49 143 137c0 60 -32 98 -81 120v3c54 17 97 61 97 132c0 93 -71 150 -158 150z" />
</svg>
