<?xml version="1.0" standalone="no"?>
<!DOCTYPE svg PUBLIC "-//W3C//DTD SVG 1.1//EN" "http://www.w3.org/Graphics/SVG/1.1/DTD/svg11.dtd" >
<svg xmlns="http://www.w3.org/2000/svg" xmlns:xlink="http://www.w3.org/1999/xlink" version="1.1" viewBox="-10 0 1010 1000">
   <path fill="currentColor"
d="M269 303v322c113 0 200 -4 302 -24l9 71c-112 22 -204 26 -332 26h-59v-463h334v68h-254zM720 449h119v69h-119v336h-82v-715h82v310zM500 934c240 0 434 -194 434 -434s-194 -434 -434 -434s-434 194 -434 434s194 434 434 434zM500 34c257 0 466 209 466 466
s-209 466 -466 466s-466 -209 -466 -466s209 -466 466 -466z" />
</svg>
