<?xml version="1.0" standalone="no"?>
<!DOCTYPE svg PUBLIC "-//W3C//DTD SVG 1.1//EN" "http://www.w3.org/Graphics/SVG/1.1/DTD/svg11.dtd" >
<svg xmlns="http://www.w3.org/2000/svg" xmlns:xlink="http://www.w3.org/1999/xlink" version="1.1" viewBox="-10 0 1010 1000">
   <path fill="currentColor"
d="M266 292v331h168v-331h-168zM188 688v-462h324v462h-324zM717 431h125v68h-125v355h-81v-715h81v292zM500 934c240 0 434 -194 434 -434s-194 -434 -434 -434s-434 194 -434 434s194 434 434 434zM500 34c257 0 466 209 466 466s-209 466 -466 466s-466 -209 -466 -466
s209 -466 466 -466z" />
</svg>
