<?xml version="1.0" standalone="no"?>
<!DOCTYPE svg PUBLIC "-//W3C//DTD SVG 1.1//EN" "http://www.w3.org/Graphics/SVG/1.1/DTD/svg11.dtd" >
<svg xmlns="http://www.w3.org/2000/svg" xmlns:xlink="http://www.w3.org/1999/xlink" version="1.1" viewBox="-10 0 1010 1000">
   <path fill="currentColor"
d="M441 639v-186h-175v186h175zM441 382v-171h76v499h-327v-499h76v171h175zM720 431h119v68h-119v355h-82v-715h82v292zM500 934c240 0 434 -194 434 -434s-194 -434 -434 -434s-434 194 -434 434s194 434 434 434zM500 34c257 0 466 209 466 466s-209 466 -466 466
s-466 -209 -466 -466s209 -466 466 -466z" />
</svg>
