<?xml version="1.0" standalone="no"?>
<!DOCTYPE svg PUBLIC "-//W3C//DTD SVG 1.1//EN" "http://www.w3.org/Graphics/SVG/1.1/DTD/svg11.dtd" >
<svg xmlns="http://www.w3.org/2000/svg" xmlns:xlink="http://www.w3.org/1999/xlink" version="1.1" viewBox="-10 0 1010 1000">
   <path fill="currentColor"
d="M614 290c-31 0 -47 38 -47 113s16 113 47 113s47 -38 47 -113s-16 -113 -47 -113zM614 566c-62 0 -101 -56 -101 -163c0 -108 39 -164 101 -164s101 56 101 164c0 107 -39 163 -101 163zM188 516l-31 -48c94 -36 133 -119 133 -174v-8h-113v-54h282v54h-109v8
c0 55 40 138 133 174l-31 48c-69 -27 -110 -78 -132 -130c-22 52 -63 103 -132 130zM154 599v-53h331v53h-134v218h-62v-218h-135zM810 196v608c77 -78 124 -186 124 -304s-47 -226 -124 -304zM751 196h59c-79 -80 -188 -130 -310 -130c-240 0 -434 194 -434 434
s194 434 434 434c119 0 228 -48 306 -126h-55v-132c-75 19 -203 22 -253 21l-7 -52c47 0 191 -2 260 -16v-433zM500 34c257 0 466 209 466 466s-209 466 -466 466s-466 -209 -466 -466s209 -466 466 -466z" />
</svg>
