<?xml version="1.0" standalone="no"?>
<!DOCTYPE svg PUBLIC "-//W3C//DTD SVG 1.1//EN" "http://www.w3.org/Graphics/SVG/1.1/DTD/svg11.dtd" >
<svg xmlns="http://www.w3.org/2000/svg" xmlns:xlink="http://www.w3.org/1999/xlink" version="1.1" viewBox="-10 0 1010 1000">
   <path fill="currentColor"
d="M34 517v-17c0 -257 209 -466 466 -466c233 0 427 172 460 396h-32c-33 -207 -212 -364 -428 -364c-236 0 -425 187 -434 417h168v34h-200zM313 753v-518h85v245h2l218 -245h93l-173 201l197 317h-90l-158 -260l-89 95v165h-85zM500 966c-234 0 -427 -172 -461 -397h32
c33 208 212 365 429 365c234 0 424 -185 433 -418h-240v-33h273v17c0 259 -211 466 -466 466z" />
</svg>
