<?xml version="1.0" standalone="no"?>
<!DOCTYPE svg PUBLIC "-//W3C//DTD SVG 1.1//EN" "http://www.w3.org/Graphics/SVG/1.1/DTD/svg11.dtd" >
<svg xmlns="http://www.w3.org/2000/svg" xmlns:xlink="http://www.w3.org/1999/xlink" version="1.1" viewBox="-10 0 1010 1000">
   <path fill="currentColor"
d="M464 618l48 -27c36 33 76 83 93 116l-49 32c-16 -34 -55 -85 -92 -121zM825 446h-87v77h83v57h-83v176c0 34 -6 51 -30 62c-24 10 -64 10 -121 10c-2 -18 -10 -42 -18 -60c44 1 81 1 93 0c12 0 14 -3 14 -13v-175h-246v-39l-73 23v265h-58v-247l-113 36l-17 -60
c36 -9 81 -22 130 -36v-147h-57c-9 40 -19 76 -32 105c-11 -8 -34 -21 -48 -28c29 -63 42 -152 50 -240l54 9c-3 32 -8 64 -13 95h46v-143h58v143h76v59h-76v130l78 -23l7 41h234v-77h-258v-59h174v-79h-135v-58h135v-77h61v77h138v58h-138v79h172v59zM500 934
c240 0 434 -194 434 -434s-194 -434 -434 -434s-434 194 -434 434s194 434 434 434zM500 34c257 0 466 209 466 466s-209 466 -466 466s-466 -209 -466 -466s209 -466 466 -466z" />
</svg>
