<?xml version="1.0" standalone="no"?>
<!DOCTYPE svg PUBLIC "-//W3C//DTD SVG 1.1//EN" "http://www.w3.org/Graphics/SVG/1.1/DTD/svg11.dtd" >
<svg xmlns="http://www.w3.org/2000/svg" xmlns:xlink="http://www.w3.org/1999/xlink" version="1.1" viewBox="-10 0 1010 1000">
   <path fill="currentColor"
d="M554 285l-59 20c-8 -33 -31 -87 -54 -127l56 -17c24 38 48 90 57 124zM514 491h248s0 19 -1 29c-9 178 -19 246 -42 272c-16 17 -33 22 -61 24c-24 2 -72 1 -120 -1c-1 -18 -8 -43 -18 -60c49 4 95 5 112 5c16 0 25 -1 33 -9c14 -14 23 -68 31 -202h-191
c-27 139 -95 216 -275 262c-5 -16 -22 -40 -35 -52c158 -37 219 -98 244 -210h-189v-58h199c4 -31 6 -65 7 -103h65c-2 37 -4 71 -7 103zM692 312h123v150h-65v-93h-473v93h-62v-150h114c-15 -33 -47 -81 -76 -116l51 -25c31 36 66 86 80 119l-43 22h292l-7 -3
c30 -38 69 -100 90 -142l64 23c-28 42 -60 88 -88 122zM500 934c240 0 434 -194 434 -434s-194 -434 -434 -434s-434 194 -434 434s194 434 434 434zM500 34c257 0 466 209 466 466s-209 466 -466 466s-466 -209 -466 -466s209 -466 466 -466z" />
</svg>
