<?xml version="1.0" standalone="no"?>
<!DOCTYPE svg PUBLIC "-//W3C//DTD SVG 1.1//EN" "http://www.w3.org/Graphics/SVG/1.1/DTD/svg11.dtd" >
<svg xmlns="http://www.w3.org/2000/svg" xmlns:xlink="http://www.w3.org/1999/xlink" version="1.1" viewBox="-10 0 1010 1000">
   <path fill="currentColor"
d="M723 369h-190v180h190v-180zM274 549h191v-180h-191v180zM533 167v138h255v358h-65v-50h-190v221h-68v-221h-191v53h-63v-361h254v-138h68zM500 934c240 0 434 -194 434 -434s-194 -434 -434 -434s-434 194 -434 434s194 434 434 434zM500 34c257 0 466 209 466 466
s-209 466 -466 466s-466 -209 -466 -466s209 -466 466 -466z" />
</svg>
