<?xml version="1.0" standalone="no"?>
<!DOCTYPE svg PUBLIC "-//W3C//DTD SVG 1.1//EN" "http://www.w3.org/Graphics/SVG/1.1/DTD/svg11.dtd" >
<svg xmlns="http://www.w3.org/2000/svg" xmlns:xlink="http://www.w3.org/1999/xlink" version="1.1" viewBox="-10 0 1010 1000">
   <path fill="currentColor"
d="M715 290h-122c-25 81 -77 137 -179 173c-6 -13 -21 -32 -32 -41c84 -29 129 -72 152 -132h-130v-50h144c4 -24 7 -50 8 -78h58c-2 28 -4 54 -9 78h171s-1 16 -2 25c-9 102 -18 144 -35 162c-12 13 -26 18 -47 19c-16 1 -47 1 -76 -1c-1 -15 -6 -36 -14 -50
c30 3 56 3 68 3c10 0 17 0 23 -6c9 -10 16 -38 22 -102zM380 407h-80v410h-58v-410h-86v-56h86v-183h58v183h80v56zM469 535h96s0 15 -1 24c-4 157 -10 218 -25 236c-11 13 -22 18 -41 20c-13 1 -34 1 -52 1c-2 -16 -6 -37 -13 -50c21 2 37 2 46 2c7 1 13 0 18 -8
c8 -12 13 -56 17 -175h-50c-13 99 -43 180 -108 232c-7 -12 -21 -29 -33 -37c55 -44 79 -112 89 -195h-71v-50h76c2 -23 2 -46 3 -71h52c-1 24 -2 48 -3 71zM803 535v24c-4 158 -9 216 -24 236c-11 13 -24 19 -43 20c-13 2 -37 2 -58 1c-1 -17 -6 -37 -13 -51
c23 2 41 2 50 2s15 -1 20 -8c8 -12 12 -55 16 -174h-57c-13 101 -43 180 -111 232c-7 -13 -22 -31 -35 -39c57 -43 82 -109 94 -193h-63v-50h68c1 -23 2 -48 3 -73h52c-1 25 -2 50 -3 73h104zM500 934c240 0 434 -194 434 -434s-194 -434 -434 -434s-434 194 -434 434
s194 434 434 434zM500 34c257 0 466 209 466 466s-209 466 -466 466s-466 -209 -466 -466s209 -466 466 -466z" />
</svg>
