<?xml version="1.0" standalone="no"?>
<!DOCTYPE svg PUBLIC "-//W3C//DTD SVG 1.1//EN" "http://www.w3.org/Graphics/SVG/1.1/DTD/svg11.dtd" >
<svg xmlns="http://www.w3.org/2000/svg" xmlns:xlink="http://www.w3.org/1999/xlink" version="1.1" viewBox="-10 0 1010 1000">
   <path fill="currentColor"
d="M382 480v3c54 17 97 61 97 132c0 93 -70 150 -157 150c-67 0 -118 -31 -149 -70l40 -50c28 30 59 54 107 54c47 0 81 -35 81 -88c0 -58 -32 -96 -133 -96v-61c86 0 117 -37 117 -89c0 -48 -28 -77 -68 -77c-32 0 -61 15 -86 45l-43 -48c37 -38 81 -62 133 -62
c84 0 141 49 141 137c0 60 -31 98 -80 120zM675 701c39 0 69 -42 69 -103c0 -63 -25 -103 -75 -103c-27 0 -57 17 -85 64c8 97 41 142 91 142zM808 280l-41 51c-19 -24 -45 -40 -75 -40c-59 0 -107 52 -110 207c28 -39 67 -64 106 -64c76 0 129 54 129 162
c0 103 -64 169 -143 169c-92 0 -163 -81 -163 -253c0 -205 83 -289 179 -289c53 0 91 25 118 57zM500 934c240 0 434 -194 434 -434s-194 -434 -434 -434c-242 0 -434 196 -434 434c0 240 194 434 434 434zM500 34c257 0 466 209 466 466c0 259 -211 466 -466 466
c-257 0 -466 -209 -466 -466s209 -466 466 -466z" />
</svg>
