<?xml version="1.0" standalone="no"?>
<!DOCTYPE svg PUBLIC "-//W3C//DTD SVG 1.1//EN" "http://www.w3.org/Graphics/SVG/1.1/DTD/svg11.dtd" >
<svg xmlns="http://www.w3.org/2000/svg" xmlns:xlink="http://www.w3.org/1999/xlink" version="1.1" viewBox="-10 0 1010 1000">
   <path fill="currentColor"
d="M500 966c-257 0 -466 -209 -466 -466s209 -466 466 -466s466 209 466 466c0 259 -211 466 -466 466zM500 934c240 0 434 -194 434 -434s-194 -434 -434 -434c-242 0 -434 196 -434 434c0 240 194 434 434 434zM336 765c-68 0 -118 -31 -149 -70l40 -50
c28 30 59 54 107 54c46 0 81 -35 81 -88c0 -58 -32 -96 -133 -96v-61c87 0 117 -37 117 -89c0 -48 -27 -77 -69 -77c-31 0 -60 15 -85 45l-42 -48c36 -38 79 -62 132 -62c84 0 141 49 141 137c0 60 -32 98 -80 120v3c54 17 97 61 97 132c0 93 -71 150 -157 150zM588 753
c7 -189 34 -309 122 -448h-204v-70h291v50c-107 152 -123 266 -132 468h-77z" />
</svg>
