<?xml version="1.0" standalone="no"?>
<!DOCTYPE svg PUBLIC "-//W3C//DTD SVG 1.1//EN" "http://www.w3.org/Graphics/SVG/1.1/DTD/svg11.dtd" >
<svg xmlns="http://www.w3.org/2000/svg" xmlns:xlink="http://www.w3.org/1999/xlink" version="1.1" viewBox="-10 0 1010 1000">
   <path fill="currentColor"
d="M29 257v-59c40 -11 80 -28 105 -52h48v714h-65v-603h-88zM289 296l-41 -46c29 -62 71 -118 138 -118c90 0 134 79 134 210c0 134 -80 275 -180 445c23 -3 49 -6 71 -6h123v78h-281v-53c125 -210 202 -342 202 -462c0 -79 -22 -138 -77 -138c-41 0 -70 45 -89 90zM697 547
h188v-134h-184v9c0 38 -1 81 -4 125zM885 205h-184v137h184v-137zM951 133v669c0 35 -7 55 -32 67c-24 11 -62 12 -122 12c-3 -17 -12 -47 -22 -64c43 1 82 1 94 1c13 0 16 -4 16 -17v-183h-196c-12 96 -38 193 -89 269c-10 -13 -35 -37 -48 -44c79 -123 87 -293 87 -421
v-289h312z" />
</svg>
