<?xml version="1.0" standalone="no"?>
<!DOCTYPE svg PUBLIC "-//W3C//DTD SVG 1.1//EN" "http://www.w3.org/Graphics/SVG/1.1/DTD/svg11.dtd" >
<svg xmlns="http://www.w3.org/2000/svg" xmlns:xlink="http://www.w3.org/1999/xlink" version="1.1" viewBox="-10 0 1010 1000">
   <path fill="currentColor"
d="M421 303v90c110 -19 223 -39 249 -45c14 -3 25 -6 33 -10l42 33c-5 7 -12 18 -17 27c-35 58 -96 144 -148 192l-56 -33c51 -42 102 -104 126 -145c-11 2 -121 21 -229 41v175c0 45 18 68 88 68c82 0 144 -6 215 -18l-3 65c-60 8 -125 12 -210 12
c-130 0 -152 -52 -152 -113v-178c-61 11 -115 21 -142 27l-11 -64c28 -3 86 -13 153 -24v-100c0 -21 -1 -45 -5 -64h72c-3 19 -5 44 -5 64zM500 934c240 0 434 -194 434 -434s-194 -434 -435 -434c-239 0 -433 194 -433 434s194 434 434 434zM500 34c257 0 466 209 466 467
c0 256 -209 465 -466 465s-466 -209 -466 -466s209 -466 466 -466z" />
</svg>
