<?xml version="1.0" standalone="no"?>
<!DOCTYPE svg PUBLIC "-//W3C//DTD SVG 1.1//EN" "http://www.w3.org/Graphics/SVG/1.1/DTD/svg11.dtd" >
<svg xmlns="http://www.w3.org/2000/svg" xmlns:xlink="http://www.w3.org/1999/xlink" version="1.1" viewBox="-10 0 1010 1000">
   <path fill="currentColor"
d="M483 319v108c84 27 189 66 258 101l-29 62c-71 -37 -163 -74 -229 -95v201c0 21 1 61 4 83h-72c3 -21 4 -58 4 -83v-377c0 -19 -1 -53 -5 -74h73c-1 21 -4 54 -4 74zM500 934c240 0 434 -194 434 -434s-194 -434 -435 -434c-239 0 -433 194 -433 434s194 434 434 434z
M500 34c257 0 466 209 466 467c0 256 -209 465 -466 465s-466 -209 -466 -466s209 -466 466 -466z" />
</svg>
