<?xml version="1.0" standalone="no"?>
<!DOCTYPE svg PUBLIC "-//W3C//DTD SVG 1.1//EN" "http://www.w3.org/Graphics/SVG/1.1/DTD/svg11.dtd" >
<svg xmlns="http://www.w3.org/2000/svg" xmlns:xlink="http://www.w3.org/1999/xlink" version="1.1" viewBox="-10 0 1010 1000">
   <path fill="currentColor"
d="M235 703v-73c22 2 46 4 71 4h403c19 0 46 -1 65 -4v73c-20 -2 -47 -3 -65 -3h-403c-25 0 -49 2 -71 3zM292 369v-69c21 2 49 3 70 3h286c24 0 52 -1 71 -3v69c-19 -2 -49 -3 -71 -3h-286c-22 0 -50 2 -70 3zM499 66c-239 0 -433 194 -433 434s194 434 434 434
s434 -194 434 -434s-194 -434 -435 -434zM966 501c0 256 -209 465 -466 465s-466 -209 -466 -466s209 -466 466 -466s466 209 466 467z" />
</svg>
