<?xml version="1.0" standalone="no"?>
<!DOCTYPE svg PUBLIC "-//W3C//DTD SVG 1.1//EN" "http://www.w3.org/Graphics/SVG/1.1/DTD/svg11.dtd" >
<svg xmlns="http://www.w3.org/2000/svg" xmlns:xlink="http://www.w3.org/1999/xlink" version="1.1" viewBox="-10 0 1010 1000">
   <path fill="currentColor"
d="M590 467l58 -27c46 67 121 206 148 275l-64 30c-8 -23 -21 -53 -35 -85c-106 13 -321 33 -408 41c-17 2 -38 5 -56 8l-7 -73c20 2 40 1 59 0l31 -2c39 -96 105 -289 123 -353c9 -31 11 -46 13 -64l76 17c-7 16 -14 33 -23 62c-18 59 -81 242 -117 333
c93 -8 208 -19 281 -28c-26 -52 -55 -103 -79 -134zM500 934c240 0 434 -194 434 -434s-194 -434 -435 -434c-239 0 -433 194 -433 434s194 434 434 434zM500 34c257 0 466 209 466 467c0 256 -209 465 -466 465s-466 -209 -466 -466s209 -466 466 -466z" />
</svg>
