<?xml version="1.0" standalone="no"?>
<!DOCTYPE svg PUBLIC "-//W3C//DTD SVG 1.1//EN" "http://www.w3.org/Graphics/SVG/1.1/DTD/svg11.dtd" >
<svg xmlns="http://www.w3.org/2000/svg" xmlns:xlink="http://www.w3.org/1999/xlink" version="1.1" viewBox="-10 0 1010 1000">
   <path fill="currentColor"
d="M675 348h-348v288h348v-288zM737 342v309c0 21 1 77 2 85h-66l1 -39h-347c0 18 0 34 1 39h-66c0 -9 1 -62 1 -85v-366c26 1 48 1 63 1h412c-1 16 -1 40 -1 56zM500 934c240 0 434 -194 434 -434s-194 -434 -435 -434c-239 0 -433 194 -433 434s194 434 434 434zM500 34
c257 0 466 209 466 467c0 256 -209 465 -466 465s-466 -209 -466 -466s209 -466 466 -466z" />
</svg>
