<?xml version="1.0" standalone="no"?>
<!DOCTYPE svg PUBLIC "-//W3C//DTD SVG 1.1//EN" "http://www.w3.org/Graphics/SVG/1.1/DTD/svg11.dtd" >
<svg xmlns="http://www.w3.org/2000/svg" xmlns:xlink="http://www.w3.org/1999/xlink" version="1.1" viewBox="-10 0 1012 1000">
   <path fill="currentColor"
d="M131 671h282c26 0 43 -2 55 -4v64c-11 -1 -31 -3 -54 -3h-283c-28 0 -55 1 -72 3v-64c16 2 44 4 72 4zM134 488l-50 -40c15 -5 34 -12 49 -22c79 -51 94 -126 94 -209c0 -13 -1 -25 -4 -37h60c0 134 -13 236 -149 308zM131 93h285c10 0 29 -1 38 -3l32 28
c-6 6 -13 15 -17 22c-18 28 -70 106 -128 145l-46 -35c47 -28 87 -72 106 -106h-270c-20 0 -44 1 -65 3v-58c18 2 45 4 65 4zM628 110l60 11c-3 11 -8 30 -10 41c-7 28 -26 95 -46 144c-17 44 -45 100 -70 138l-58 -25c34 -45 57 -97 74 -135c21 -49 42 -116 50 -174z
M704 594v87c68 21 150 53 211 83l-27 55c-59 -31 -130 -60 -184 -77v161c0 17 2 51 4 69h-64c2 -18 4 -49 4 -69v-309c0 -15 -2 -44 -5 -61h66c-2 17 -5 45 -5 61zM755 121l54 -19c22 41 49 100 71 151c19 48 47 123 61 172l-61 17c-13 -53 -35 -118 -55 -170
c-20 -49 -46 -110 -70 -151zM922 145c24 0 42 -18 42 -42c0 -23 -18 -41 -42 -41c-23 0 -41 18 -41 41c0 24 18 42 41 42zM922 34c39 0 70 31 70 69c0 39 -31 69 -70 69s-69 -30 -69 -69c0 -38 30 -69 69 -69z" />
</svg>
