<?xml version="1.0" standalone="no"?>
<!DOCTYPE svg PUBLIC "-//W3C//DTD SVG 1.1//EN" "http://www.w3.org/Graphics/SVG/1.1/DTD/svg11.dtd" >
<svg xmlns="http://www.w3.org/2000/svg" xmlns:xlink="http://www.w3.org/1999/xlink" version="1.1" viewBox="-10 0 1010 1000">
   <path fill="currentColor"
d="M603 454l-31 -54c72 -15 143 -41 190 -71c74 -49 133 -111 163 -174l41 46c-39 67 -94 124 -172 176c-49 34 -130 64 -191 77zM573 110l36 -45c38 23 105 71 136 98l-37 47c-31 -28 -92 -74 -135 -100zM74 847l-49 -50c16 -11 28 -22 42 -36c25 -26 75 -88 107 -126
c29 -34 51 -36 87 -3c28 25 74 75 105 107c35 37 79 83 130 141l-37 50c-45 -59 -92 -106 -127 -146c-39 -45 -73 -80 -98 -103c-14 -12 -19 -10 -30 2c-28 33 -77 94 -100 123c-10 14 -23 30 -30 41zM415 657c24 0 44 -18 44 -43c0 -23 -20 -43 -44 -43s-42 20 -42 43
c0 25 18 43 42 43zM344 614c0 -40 31 -71 71 -71s71 31 71 71s-31 71 -71 71s-71 -31 -71 -71zM711 652h60c-1 134 -14 237 -150 309l-49 -41c14 -4 33 -11 48 -21c79 -51 94 -126 94 -210c0 -13 -1 -25 -3 -37zM941 562l32 29c-6 5 -13 15 -16 21c-18 29 -71 106 -129 146
l-46 -36c47 -28 87 -72 106 -105c-37 0 -245 -1 -270 -1c-20 0 -44 2 -64 3v-58c18 2 44 5 64 5h285c11 0 30 -2 38 -4zM227 172h60c0 134 -14 236 -150 308l-49 -41c14 -4 34 -11 49 -21c78 -51 93 -126 93 -209c0 -13 -1 -25 -3 -37zM457 81l32 29c-6 6 -12 15 -16 22
c-18 28 -70 106 -129 145l-45 -36c47 -27 86 -71 106 -105h-270c-21 0 -44 1 -65 3v-59c18 3 44 5 65 5h285c10 0 29 -1 37 -4z" />
</svg>
