<?xml version="1.0" standalone="no"?>
<!DOCTYPE svg PUBLIC "-//W3C//DTD SVG 1.1//EN" "http://www.w3.org/Graphics/SVG/1.1/DTD/svg11.dtd" >
<svg xmlns="http://www.w3.org/2000/svg" xmlns:xlink="http://www.w3.org/1999/xlink" version="1.1" viewBox="-10 0 1010 1000">
   <path fill="currentColor"
d="M253 610h122c12 0 26 -2 38 -3l31 20c-2 9 -4 22 -4 33c-2 47 -7 192 -31 243c-11 23 -32 33 -58 33s-64 -5 -89 -8l-3 -59c25 6 56 12 75 12c15 0 23 -3 28 -16c17 -40 23 -148 23 -203h-137c-20 147 -73 218 -162 283l-49 -43c18 -10 39 -23 52 -35
c49 -46 86 -101 102 -205h-73c-22 0 -42 0 -64 2v-57c19 1 43 3 64 3h79c1 -15 2 -30 2 -47c0 -12 -1 -33 -3 -45h63c-2 12 -3 31 -3 44c-1 17 -2 33 -3 48zM283 357h136c15 0 32 -3 45 -4v61c-14 -2 -36 -3 -45 -3h-318c-14 0 -34 2 -49 3v-61c15 2 34 4 49 4h125v-208
h-102c-10 0 -35 1 -47 2v-59c13 3 36 4 46 4h269c15 0 35 -2 47 -4v59c-13 -1 -33 -2 -47 -2h-109v208zM604 703h282c26 0 42 -2 54 -4v64c-11 -1 -31 -3 -54 -3h-282c-29 0 -56 1 -72 3v-64c15 2 43 4 72 4zM604 218h282c26 0 42 -2 54 -4v64c-11 -1 -31 -3 -54 -3h-282
c-29 0 -56 1 -72 3v-64c15 2 43 4 72 4z" />
</svg>
