<?xml version="1.0" standalone="no"?>
<!DOCTYPE svg PUBLIC "-//W3C//DTD SVG 1.1//EN" "http://www.w3.org/Graphics/SVG/1.1/DTD/svg11.dtd" >
<svg xmlns="http://www.w3.org/2000/svg" xmlns:xlink="http://www.w3.org/1999/xlink" version="1.1" viewBox="-10 0 1010 1000">
   <path fill="currentColor"
d="M870 171h-247v202h247v-202zM625 457h-60c1 -7 2 -45 2 -71v-227c0 -11 0 -31 -1 -43c20 0 37 1 49 1h264c11 0 34 0 49 -1c-1 13 -1 31 -1 43v226c0 23 0 61 1 72h-60c1 -3 1 -14 1 -28h-245c0 13 1 25 1 28zM115 546h63c-1 10 -3 30 -3 42v173c0 13 2 35 3 44h-63
c1 -8 3 -29 3 -45v-172c0 -9 -1 -32 -3 -42zM348 666v-74c0 -17 -2 -36 -3 -50h63c-1 13 -2 33 -2 50v77c0 127 -18 169 -56 214c-34 41 -89 67 -130 81l-40 -48c50 -14 95 -34 126 -70c38 -43 42 -78 42 -180zM261 136h122c12 0 25 -2 38 -3l30 20c-2 10 -3 22 -4 33
c-2 47 -6 192 -30 244c-11 22 -32 32 -59 32c-25 0 -64 -4 -89 -8l-2 -58c24 6 56 11 75 11c15 0 22 -3 28 -16c17 -39 22 -147 22 -202h-136c-21 147 -74 218 -162 282l-49 -43c17 -9 38 -22 52 -35c49 -46 85 -101 101 -204h-72c-22 0 -42 0 -65 2v-58c20 1 44 3 64 3h80
c1 -15 2 -30 2 -47c0 -12 -1 -33 -3 -45h63c-2 12 -3 32 -3 44c-1 17 -2 33 -3 48zM612 698h282c26 0 43 -2 55 -4v64c-11 -1 -31 -3 -54 -3h-283c-28 0 -55 1 -72 3v-64c16 2 44 4 72 4z" />
</svg>
