<?xml version="1.0" standalone="no"?>
<!DOCTYPE svg PUBLIC "-//W3C//DTD SVG 1.1//EN" "http://www.w3.org/Graphics/SVG/1.1/DTD/svg11.dtd" >
<svg xmlns="http://www.w3.org/2000/svg" xmlns:xlink="http://www.w3.org/1999/xlink" version="1.1" viewBox="-10 0 1010 1000">
   <path fill="currentColor"
d="M446 110l-36 16c-12 -25 -31 -59 -47 -80l35 -16c14 21 35 56 48 80zM79 478l-48 -43c17 -10 38 -23 51 -35c50 -46 87 -101 103 -205h-73c-22 0 -42 0 -65 2v-57c20 1 44 3 64 3h80c1 -15 2 -30 2 -47c0 -12 -1 -33 -3 -45h62c-2 12 -3 31 -3 44c-1 17 -2 33 -3 48h123
c12 0 25 -2 38 -3l30 20c-2 9 -3 22 -4 33c-2 47 -6 192 -30 243c-11 23 -32 33 -59 33c-26 0 -64 -5 -89 -8l-2 -59c24 6 56 12 75 12c15 0 22 -3 28 -16c17 -40 22 -148 22 -203h-137c-20 145 -73 218 -162 283zM80 604l35 -45c39 24 106 71 137 99l-37 46
c-31 -27 -92 -74 -135 -100zM110 948l-31 -54c72 -14 142 -40 190 -70c74 -49 132 -112 163 -175l41 47c-39 66 -94 123 -172 175c-50 34 -130 64 -191 77zM420 24l36 -14c16 20 36 54 48 77l-36 17c-13 -26 -31 -58 -48 -80zM878 173h-246v202h246v-202zM935 161v226
c0 22 0 61 1 72h-59l1 -29h-246c0 14 1 25 1 29h-59c0 -8 1 -46 1 -72v-226c0 -12 0 -32 -1 -44c21 1 38 1 50 1h263c11 0 34 0 49 -1c-1 13 -1 31 -1 44z" />
</svg>
