<?xml version="1.0" standalone="no"?>
<!DOCTYPE svg PUBLIC "-//W3C//DTD SVG 1.1//EN" "http://www.w3.org/Graphics/SVG/1.1/DTD/svg11.dtd" >
<svg xmlns="http://www.w3.org/2000/svg" xmlns:xlink="http://www.w3.org/1999/xlink" version="1.1" viewBox="-10 0 1010 1000">
   <path fill="currentColor"
d="M885 454h-262c-17 0 -33 2 -48 2v-59c12 1 32 3 48 3h163c6 -47 16 -131 16 -156h-141c-15 0 -33 1 -46 2v-57c13 1 33 3 46 3c20 0 114 0 143 -1c9 0 22 -1 27 -4l34 17c-2 7 -4 15 -4 20c-4 32 -14 124 -20 176h42c12 0 35 -1 46 -2v58c-10 -1 -33 -2 -44 -2zM109 543
h62c-1 11 -2 31 -2 43v172c0 14 1 36 2 45h-62c1 -8 3 -29 3 -45v-172c0 -9 -2 -32 -3 -43zM342 664v-74c0 -17 -2 -37 -3 -50h63c-2 13 -3 33 -3 50v76c0 127 -17 170 -55 215c-35 41 -90 67 -131 81l-40 -49c50 -13 96 -33 127 -69c37 -43 42 -79 42 -180zM294 276
l131 -22c20 -4 40 -8 51 -11l11 56c-11 1 -32 4 -53 7c-29 4 -79 12 -131 21c8 50 16 91 18 103c3 16 9 39 13 54l-62 11c-1 -20 -4 -39 -7 -55c-2 -12 -8 -53 -17 -104l-136 23c-23 4 -35 6 -52 11l-11 -58c15 0 34 -3 52 -6c27 -3 81 -12 139 -21l-15 -90l-114 18
c-18 3 -35 7 -47 10l-10 -59c13 -1 31 -2 48 -3c21 -3 66 -9 114 -17c-4 -23 -7 -40 -8 -46c-2 -14 -7 -30 -10 -41l60 -10c1 10 3 29 5 41c1 5 4 23 8 48c47 -8 91 -15 113 -19c16 -3 33 -8 42 -10l10 56c-11 1 -28 3 -42 5l-115 18zM600 698h282c26 0 43 -2 54 -4v64
c-10 -1 -31 -3 -53 -3h-283c-28 0 -55 1 -72 3v-64c16 2 43 4 72 4z" />
</svg>
