<?xml version="1.0" standalone="no"?>
<!DOCTYPE svg PUBLIC "-//W3C//DTD SVG 1.1//EN" "http://www.w3.org/Graphics/SVG/1.1/DTD/svg11.dtd" >
<svg xmlns="http://www.w3.org/2000/svg" xmlns:xlink="http://www.w3.org/1999/xlink" version="1.1" viewBox="-10 0 1010 1000">
   <path fill="currentColor"
d="M870 148h-247v202h247v-202zM625 434h-60c1 -7 2 -46 2 -71v-227c0 -12 0 -31 -1 -43c20 0 37 1 49 1h264c11 0 33 0 49 -1c-1 13 -1 30 -1 43v226c0 23 0 61 1 72h-60c1 -3 1 -14 1 -28h-245c0 13 1 25 1 28zM436 551h150c12 0 29 -1 40 -3v57c-10 -1 -27 -2 -41 -2
h-149c-13 0 -28 1 -39 2v-57c11 2 26 3 39 3zM57 340l-11 -58c15 -1 34 -4 52 -6c28 -4 81 -12 139 -22l-15 -89c-49 7 -93 14 -114 17c-18 4 -36 8 -47 11l-10 -60c13 -1 31 -2 48 -3c21 -2 66 -9 114 -16c-4 -24 -7 -41 -8 -47c-2 -14 -7 -29 -11 -41l61 -9
c1 10 3 29 5 40c1 5 4 23 8 48c47 -7 91 -15 113 -19c16 -3 33 -8 42 -10l10 57c-11 1 -28 3 -42 5l-115 18l15 89c51 -8 99 -16 131 -22c20 -3 40 -7 51 -10l11 56c-11 0 -32 4 -53 7c-30 4 -79 12 -131 20c8 50 16 91 18 103c3 17 8 39 13 55l-62 10c-1 -19 -4 -38 -7 -55
l-17 -104c-57 10 -110 19 -136 24c-23 4 -35 6 -52 11zM250 535l31 -16c15 20 32 48 44 72l-30 15l29 22c-4 8 -9 21 -11 31c-15 63 -40 126 -74 181c-41 67 -92 116 -149 146l-42 -41c59 -27 108 -70 148 -133c29 -48 52 -106 59 -152h-104c-23 42 -54 86 -94 123l-41 -36
c70 -61 101 -130 119 -179c5 -10 9 -30 11 -43l56 19c-5 12 -14 31 -17 41c-3 8 -7 17 -10 26h94c9 0 17 -2 22 -6c-12 -25 -26 -50 -41 -70zM306 512l32 -16c15 22 30 47 44 73l-33 17c-13 -26 -27 -51 -43 -74zM625 678l30 22c-3 6 -5 14 -6 19c-12 53 -31 109 -63 156
c-41 63 -102 94 -141 111l-30 -49c47 -15 93 -42 129 -92c25 -34 41 -72 49 -111h-184c-9 0 -27 1 -42 3v-58c15 2 32 4 42 4h194c9 0 18 -2 22 -5zM986 948l-48 26c-5 -19 -12 -43 -20 -68c-63 10 -175 25 -224 31c-9 1 -21 4 -36 8l-5 -63c14 1 28 0 38 -1l15 -1
c22 -74 58 -225 69 -277c4 -24 6 -36 8 -55l60 15c-6 18 -10 31 -15 54c-10 47 -45 186 -64 258c47 -6 101 -13 137 -19c-14 -40 -30 -80 -44 -106l44 -22c28 57 68 162 85 220z" />
</svg>
