<?xml version="1.0" standalone="no"?>
<!DOCTYPE svg PUBLIC "-//W3C//DTD SVG 1.1//EN" "http://www.w3.org/Graphics/SVG/1.1/DTD/svg11.dtd" >
<svg xmlns="http://www.w3.org/2000/svg" xmlns:xlink="http://www.w3.org/1999/xlink" version="1.1" viewBox="-10 0 1010 1000">
   <path fill="currentColor"
d="M870 171h-247v202h247v-202zM625 457h-60c1 -7 2 -45 2 -71v-227c0 -11 0 -31 -1 -43c20 0 38 1 50 1h263c11 0 33 0 49 -1c-1 13 -1 31 -1 43v226c0 23 0 61 1 72h-60c1 -3 1 -14 1 -28h-245c0 13 1 25 1 28zM573 725l-43 17c-5 -27 -22 -83 -31 -108l42 -17
c9 21 27 83 32 108zM245 336l-136 23c-23 5 -35 6 -52 11l-11 -58c15 0 34 -3 52 -6c28 -3 81 -12 139 -21l-15 -90l-114 18c-19 3 -36 8 -47 10l-10 -59c13 -1 31 -2 48 -4c21 -2 66 -8 114 -16c-4 -23 -7 -40 -8 -46c-2 -14 -7 -30 -11 -41l61 -10c1 10 3 29 5 41
c1 5 4 23 8 48c47 -8 91 -15 113 -19c16 -3 33 -8 42 -10l10 56c-11 1 -28 3 -42 5l-115 18l15 90c51 -9 99 -17 131 -22c20 -4 40 -8 51 -11l11 56c-11 1 -32 4 -53 7c-30 4 -79 12 -131 21c8 50 16 91 18 103c3 16 8 39 13 54l-62 11c-1 -20 -4 -39 -7 -55
c-2 -12 -8 -53 -17 -104zM119 564h197c9 0 19 -1 26 -4l34 24c-3 6 -6 22 -8 28c-7 66 -21 142 -48 196c-33 70 -84 125 -151 160l-39 -45c58 -27 109 -69 145 -139c23 -48 33 -109 37 -170h-189v99c0 8 0 25 2 40h-55c2 -15 2 -30 2 -40v-114c0 -13 -1 -25 -2 -37
c12 1 31 2 49 2zM404 665l42 -20c10 27 27 78 37 112l-43 19c-8 -30 -27 -90 -36 -111zM493 958l-37 -40c42 -18 90 -56 124 -110c29 -44 49 -108 57 -172l51 14c-5 15 -7 23 -8 29c-13 52 -33 112 -61 158c-38 60 -90 101 -126 121zM966 772l-20 55
c-43 -30 -95 -57 -135 -75v157c0 18 1 51 3 68h-60c2 -17 4 -48 4 -68v-305c0 -15 -2 -43 -4 -60h60c-1 17 -3 44 -3 60v90c51 20 111 49 155 78z" />
</svg>
