<?xml version="1.0" standalone="no"?>
<!DOCTYPE svg PUBLIC "-//W3C//DTD SVG 1.1//EN" "http://www.w3.org/Graphics/SVG/1.1/DTD/svg11.dtd" >
<svg xmlns="http://www.w3.org/2000/svg" xmlns:xlink="http://www.w3.org/1999/xlink" version="1.1" viewBox="-10 0 1010 1000">
   <path fill="currentColor"
d="M379 406h-243c-22 0 -45 0 -63 2v-64c14 2 40 5 62 5h244v-217h-241c-19 0 -49 2 -61 3v-63c19 2 44 3 61 3h258c13 0 32 0 43 -1c-1 12 -2 33 -2 45v259c0 18 2 53 2 53h-61zM141 737l46 23c-24 47 -69 111 -100 145l-45 -31c36 -36 75 -91 99 -137zM433 691h-130v233
c0 32 -16 47 -51 47c-22 0 -55 -1 -79 -4l-3 -55c23 5 49 8 63 8c12 0 16 -5 16 -16c1 -25 1 -158 1 -213h-132c-16 0 -36 1 -50 2v-56c18 2 33 3 50 3h132v-57c0 -11 -3 -28 -6 -40h64c-3 12 -5 29 -5 40v57h129c13 0 33 -1 48 -3v55c-19 -1 -35 -1 -47 -1zM362 764l45 -24
c27 36 68 95 92 137l-49 27c-24 -44 -60 -103 -88 -140zM444 593c25 0 44 -19 44 -43s-19 -43 -44 -43c-24 0 -42 19 -42 43s18 43 42 43zM444 480c39 0 70 31 70 70s-31 70 -70 70s-70 -31 -70 -70s31 -70 70 -70zM627 208h282c26 0 43 -2 55 -4v63c-11 0 -31 -3 -54 -3
h-283c-28 0 -55 2 -72 3v-63c16 2 44 4 72 4z" />
</svg>
