<?xml version="1.0" standalone="no"?>
<!DOCTYPE svg PUBLIC "-//W3C//DTD SVG 1.1//EN" "http://www.w3.org/Graphics/SVG/1.1/DTD/svg11.dtd" >
<svg xmlns="http://www.w3.org/2000/svg" xmlns:xlink="http://www.w3.org/1999/xlink" version="1.1" viewBox="-10 0 1010 1000">
   <path fill="currentColor"
d="M761 251l-48 17c-6 -27 -26 -83 -38 -107l47 -17c10 21 32 82 39 107zM374 52l64 19c-7 16 -14 37 -19 51c-18 53 -48 122 -94 179c-48 63 -128 125 -205 158l-45 -49c83 -29 154 -84 202 -143c49 -61 82 -139 97 -215zM232 600v87c68 21 150 53 211 83l-27 55
c-59 -31 -130 -60 -184 -77v161c0 17 2 51 4 69h-64c2 -18 4 -49 4 -69v-309c0 -15 -2 -44 -5 -61h66c-2 17 -5 45 -5 61zM558 192l46 -20c12 27 33 78 45 111l-47 19c-9 -30 -33 -89 -44 -110zM845 163l59 14c-6 15 -9 23 -11 29c-15 53 -39 112 -74 159
c-45 60 -108 100 -151 119l-45 -39c52 -18 111 -56 153 -110c35 -44 60 -109 69 -172z" />
</svg>
