<?xml version="1.0" standalone="no"?>
<!DOCTYPE svg PUBLIC "-//W3C//DTD SVG 1.1//EN" "http://www.w3.org/Graphics/SVG/1.1/DTD/svg11.dtd" >
<svg xmlns="http://www.w3.org/2000/svg" xmlns:xlink="http://www.w3.org/1999/xlink" version="1.1" viewBox="-10 0 1010 1000">
   <path fill="currentColor"
d="M448 50c-24 0 -42 18 -42 41c0 24 18 42 42 42c23 0 41 -18 41 -42c0 -23 -18 -41 -41 -41zM448 161c-39 0 -70 -31 -70 -70c0 -38 31 -69 70 -69c38 0 69 31 69 69c0 39 -31 70 -69 70zM413 599l27 -54c26 25 73 76 94 105l-28 55c-21 -30 -64 -80 -93 -106zM153 98
l60 11c-3 11 -8 31 -10 41c-7 29 -26 95 -46 145c-17 43 -45 99 -70 138l-58 -26c35 -45 57 -96 74 -135c22 -49 42 -116 50 -174zM170 583v70c65 -15 129 -31 144 -35c9 -3 16 -6 21 -9l36 29c-4 7 -12 17 -14 23c-21 45 -57 118 -89 157l-44 -28c32 -37 61 -87 74 -116
c-4 1 -65 15 -128 30v136c0 35 6 61 48 61c50 0 88 -6 132 -15l-2 54c-36 7 -77 11 -130 11c-79 0 -99 -43 -99 -96v-138l-80 19l-10 -53c17 -3 51 -10 90 -19v-81c0 -16 -1 -34 -5 -53h60c-3 18 -4 37 -4 53zM281 110l53 -20c22 41 50 101 71 152c19 47 47 122 61 171
l-61 18c-12 -54 -35 -119 -55 -170c-19 -50 -46 -110 -69 -151zM435 962l-24 -55c50 -16 95 -48 128 -81c49 -51 89 -119 110 -187l36 54c-27 70 -65 131 -119 186c-35 36 -90 69 -131 83zM802 587v90c51 20 111 49 156 78l-20 55c-43 -30 -95 -58 -136 -75v157
c0 18 2 50 4 68h-60c2 -17 3 -48 3 -68v-305c0 -15 -1 -43 -3 -60h60c-2 17 -4 44 -4 60zM628 222h282c26 0 42 -2 54 -3v63c-11 -1 -31 -3 -54 -3h-282c-29 0 -56 1 -72 3v-63c15 1 43 3 72 3z" />
</svg>
