<?xml version="1.0" standalone="no"?>
<!DOCTYPE svg PUBLIC "-//W3C//DTD SVG 1.1//EN" "http://www.w3.org/Graphics/SVG/1.1/DTD/svg11.dtd" >
<svg xmlns="http://www.w3.org/2000/svg" xmlns:xlink="http://www.w3.org/1999/xlink" version="1.1" viewBox="-10 0 1010 1000">
   <path fill="currentColor"
d="M871 169h-211c-17 0 -37 1 -53 2v-63c16 2 37 3 53 3h211c18 0 39 -1 53 -3v63c-14 -1 -36 -2 -53 -2zM407 78c-24 0 -43 19 -43 43s19 43 43 43s43 -19 43 -43s-19 -43 -43 -43zM407 192c-40 0 -71 -31 -71 -71s31 -71 71 -71s71 31 71 71s-31 71 -71 71zM159 739v92
c0 28 9 36 32 40c16 3 36 5 62 5c56 0 125 -6 169 -18v60c-49 8 -113 12 -171 12c-30 0 -59 -2 -79 -5c-46 -8 -67 -34 -67 -80v-264c0 -13 -1 -27 -4 -45h62c-3 17 -4 30 -4 45v106c58 -15 131 -39 174 -58c16 -7 32 -14 50 -25l27 52c-20 8 -36 15 -53 21
c-59 24 -136 46 -198 62zM65 353l-48 -50c15 -11 27 -22 41 -36c26 -26 75 -88 107 -125c29 -34 51 -37 87 -4c28 26 74 75 105 108c35 37 79 82 130 141l-37 49c-45 -58 -91 -106 -127 -146c-39 -44 -72 -79 -98 -102c-14 -13 -19 -10 -29 2c-28 32 -78 94 -100 122
c-11 15 -24 31 -31 41zM621 355h295c15 0 35 -2 49 -3v65c-15 -2 -36 -3 -49 -3h-295c-18 0 -39 1 -56 3v-65c18 1 38 3 56 3z" />
</svg>
