<?xml version="1.0" standalone="no"?>
<!DOCTYPE svg PUBLIC "-//W3C//DTD SVG 1.1//EN" "http://www.w3.org/Graphics/SVG/1.1/DTD/svg11.dtd" >
<svg xmlns="http://www.w3.org/2000/svg" xmlns:xlink="http://www.w3.org/1999/xlink" version="1.1" viewBox="-10 0 1010 1000">
   <path fill="currentColor"
d="M749 162l-37 46c-31 -27 -92 -74 -136 -100l36 -45c39 24 106 71 137 99zM409 74c-24 0 -42 19 -42 43s18 43 42 43s43 -19 43 -43s-19 -43 -43 -43zM409 188c-40 0 -71 -31 -71 -71s31 -71 71 -71s71 31 71 71s-31 71 -71 71zM381 569l29 22c-3 6 -10 18 -13 26
c-15 38 -49 98 -85 145c54 47 115 111 150 155l-44 40c-37 -48 -89 -108 -141 -155c-56 59 -125 115 -204 149l-40 -44c88 -35 160 -93 215 -153c36 -40 68 -91 82 -126h-196c-19 0 -51 3 -57 4v-62c7 1 41 4 57 4h207c16 0 33 -2 40 -5zM68 350l-49 -50
c16 -12 27 -22 41 -36c26 -27 76 -88 108 -126c28 -34 51 -36 87 -4c28 26 74 75 105 108c35 37 79 82 130 141l-37 49c-45 -58 -92 -105 -127 -145c-39 -45 -73 -80 -98 -103c-14 -12 -19 -10 -30 2c-28 33 -77 94 -100 123c-10 14 -23 30 -30 41zM929 153l41 47
c-39 66 -94 123 -172 175c-50 34 -130 64 -191 77l-32 -54c73 -15 143 -40 191 -71c73 -48 132 -111 163 -174z" />
</svg>
