<?xml version="1.0" standalone="no"?>
<!DOCTYPE svg PUBLIC "-//W3C//DTD SVG 1.1//EN" "http://www.w3.org/Graphics/SVG/1.1/DTD/svg11.dtd" >
<svg xmlns="http://www.w3.org/2000/svg" xmlns:xlink="http://www.w3.org/1999/xlink" version="1.1" viewBox="-10 0 1010 1000">
   <path fill="currentColor"
d="M466 152l-37 16c-14 -27 -32 -58 -49 -80l37 -15c14 21 35 54 49 79zM407 175l-37 16c-13 -26 -33 -60 -49 -81l37 -15c15 21 36 56 49 80zM235 585h137c16 0 29 -3 37 -8l38 23c-7 9 -12 23 -15 33c-16 47 -44 110 -81 161c24 16 45 31 57 40l-36 45
c-12 -11 -32 -27 -55 -44c-52 58 -119 107 -188 134l-49 -43c70 -23 135 -66 191 -124c-38 -25 -76 -50 -100 -64l34 -39c22 12 61 37 100 63c32 -45 56 -94 64 -129h-163c-32 48 -78 100 -138 141l-46 -38c95 -60 147 -141 168 -187c5 -10 9 -25 12 -40l65 20
c-10 15 -17 28 -23 39zM70 351l-49 -50c16 -11 28 -22 42 -36c25 -26 75 -88 107 -126c29 -34 51 -36 87 -3c28 25 74 75 105 107c35 37 79 83 130 141l-37 50c-45 -59 -91 -106 -127 -146c-39 -45 -72 -80 -98 -103c-14 -12 -19 -10 -30 2c-28 33 -77 94 -100 123
c-10 14 -23 30 -30 41zM624 224h282c26 0 42 -2 54 -4v63c-11 0 -31 -3 -54 -3h-282c-29 0 -56 2 -72 3v-63c15 2 43 4 72 4z" />
</svg>
