<?xml version="1.0" standalone="no"?>
<!DOCTYPE svg PUBLIC "-//W3C//DTD SVG 1.1//EN" "http://www.w3.org/Graphics/SVG/1.1/DTD/svg11.dtd" >
<svg xmlns="http://www.w3.org/2000/svg" xmlns:xlink="http://www.w3.org/1999/xlink" version="1.1" viewBox="-10 0 1010 1000">
   <path fill="currentColor"
d="M252 193h-132c-16 0 -35 0 -50 2v-57c18 2 33 4 50 4h132v-57c0 -12 -2 -28 -5 -40h63c-3 11 -5 29 -5 40v57h129c13 0 33 -2 48 -4v56c-19 -1 -34 -1 -47 -1h-130v233c0 32 -16 47 -51 47c-22 0 -55 -2 -79 -4l-3 -56c24 5 49 9 63 9c12 0 17 -6 17 -17v-212zM81 608
l36 -45c39 23 106 71 137 98l-38 47c-31 -28 -92 -74 -135 -100zM143 239l46 23c-25 46 -69 111 -100 144l-45 -30c37 -37 76 -91 99 -137zM112 952l-32 -54c72 -15 143 -41 191 -71c73 -49 132 -111 162 -175l42 47c-40 67 -95 124 -173 176c-49 34 -129 64 -190 77z
M365 266l44 -25c28 36 68 96 92 138l-48 26c-24 -44 -60 -103 -88 -139zM624 237h282c26 0 43 -2 55 -3v63c-11 0 -31 -3 -54 -3h-283c-28 0 -55 2 -72 3v-63c16 1 43 3 72 3z" />
</svg>
