<?xml version="1.0" standalone="no"?>
<!DOCTYPE svg PUBLIC "-//W3C//DTD SVG 1.1//EN" "http://www.w3.org/Graphics/SVG/1.1/DTD/svg11.dtd" >
<svg xmlns="http://www.w3.org/2000/svg" xmlns:xlink="http://www.w3.org/1999/xlink" version="1.1" viewBox="-10 0 1010 1000">
   <path fill="currentColor"
d="M910 274h-283c-28 0 -55 2 -72 3v-63c16 2 44 4 72 4h282c26 0 43 -2 55 -4v63c-11 0 -31 -3 -54 -3zM240 594v87c68 21 150 53 210 83l-26 55c-58 -31 -130 -60 -184 -77v161c0 17 1 51 4 69h-65c3 -18 4 -49 4 -69v-309c0 -15 -2 -44 -4 -61h65c-2 17 -4 45 -4 61z
M364 36l61 23c-7 13 -13 27 -17 39c-14 35 -41 94 -73 146c46 34 107 83 135 109l-39 49c-30 -30 -82 -74 -129 -111c-44 58 -101 120 -189 171l-46 -44c81 -41 140 -97 190 -160c-42 -30 -102 -68 -142 -89l34 -44c36 18 97 58 141 87c29 -46 55 -98 65 -134
c3 -11 7 -27 9 -42zM556 959l-48 -37c45 -34 72 -70 87 -120c15 -47 16 -136 16 -192c0 -15 -2 -31 -4 -42h62c-1 6 -4 27 -4 41c0 56 -1 156 -16 207c-15 54 -48 106 -93 143zM935 753l32 46c-44 61 -117 117 -174 145c-9 5 -14 10 -19 14l-32 -27c2 -8 4 -20 4 -28v-293
c0 -19 -3 -37 -4 -41h62c-1 4 -3 23 -3 41v265c41 -22 96 -64 134 -122z" />
</svg>
