<?xml version="1.0" standalone="no"?>
<!DOCTYPE svg PUBLIC "-//W3C//DTD SVG 1.1//EN" "http://www.w3.org/Graphics/SVG/1.1/DTD/svg11.dtd" >
<svg xmlns="http://www.w3.org/2000/svg" xmlns:xlink="http://www.w3.org/1999/xlink" version="1.1" viewBox="-10 0 1010 1000">
   <path fill="currentColor"
d="M216 593v87c69 21 151 53 211 83l-26 55c-59 -31 -132 -60 -185 -77v161c0 17 2 51 4 69h-64c3 -18 4 -49 4 -69v-309c0 -15 -1 -43 -5 -61h66c-2 17 -5 45 -5 61zM307 569l37 -15c15 21 39 61 52 85l-38 17c-13 -25 -35 -64 -51 -87zM372 545l37 -16c15 21 39 61 52 85
l-37 16c-13 -25 -35 -64 -52 -85zM196 76l21 73c84 -16 179 -35 199 -40c8 -1 18 -5 24 -7l41 25c-29 56 -81 144 -128 189l-51 -30c42 -37 75 -81 96 -119c-14 2 -88 17 -166 33c26 87 54 184 63 212c3 12 10 31 16 45l-62 17c-3 -15 -7 -33 -11 -48
c-7 -26 -37 -129 -62 -215c-57 11 -109 22 -127 26l-15 -58c21 -2 37 -3 56 -6c9 -1 36 -7 72 -13c-10 -33 -18 -59 -21 -70c-6 -16 -10 -28 -17 -42l62 -15c2 13 4 27 10 43zM604 223h282c26 0 42 -2 54 -4v63c-11 0 -31 -3 -54 -3h-282c-29 0 -56 2 -72 3v-63
c15 2 43 4 72 4z" />
</svg>
