<?xml version="1.0" standalone="no"?>
<!DOCTYPE svg PUBLIC "-//W3C//DTD SVG 1.1//EN" "http://www.w3.org/Graphics/SVG/1.1/DTD/svg11.dtd" >
<svg xmlns="http://www.w3.org/2000/svg" xmlns:xlink="http://www.w3.org/1999/xlink" version="1.1" viewBox="-10 0 1010 1000">
   <path fill="currentColor"
d="M765 232l-48 17c-7 -27 -26 -83 -38 -107l47 -17c10 21 32 83 39 107zM653 265l-47 18c-10 -30 -33 -89 -45 -110l46 -20c13 27 34 78 46 112zM406 108v77c0 127 -18 169 -56 215c-34 41 -89 67 -131 80l-39 -48c50 -13 95 -33 126 -69c38 -44 42 -79 42 -180v-75
c0 -17 -2 -36 -3 -50h63c-1 13 -2 33 -2 50zM178 321h-63c1 -7 3 -29 3 -44v-172c0 -10 -1 -33 -3 -43h63c-1 10 -3 30 -3 43v172c0 14 2 36 3 44zM230 594v88c69 20 151 52 210 82l-27 55c-58 -31 -129 -60 -183 -77v161c0 17 1 51 3 69h-64c2 -18 4 -49 4 -69v-309
c0 -15 -2 -44 -5 -61h66c-2 17 -4 45 -4 61zM556 959l-48 -37c45 -34 72 -70 87 -120c15 -46 16 -136 16 -192c0 -15 -2 -31 -4 -42h62c-1 6 -4 27 -4 41c0 56 -1 156 -16 207c-15 54 -48 106 -93 143zM849 144l59 14c-6 15 -10 24 -11 29c-15 53 -39 112 -74 159
c-46 60 -108 100 -152 120l-44 -40c52 -18 111 -56 153 -110c34 -44 59 -108 69 -172zM935 753l32 46c-44 61 -117 117 -174 145c-9 5 -14 10 -19 14l-32 -27c2 -8 4 -20 4 -28v-293c0 -19 -3 -37 -4 -41h62c-1 4 -3 23 -3 41v265c41 -22 96 -64 134 -122z" />
</svg>
