<?xml version="1.0" standalone="no"?>
<!DOCTYPE svg PUBLIC "-//W3C//DTD SVG 1.1//EN" "http://www.w3.org/Graphics/SVG/1.1/DTD/svg11.dtd" >
<svg xmlns="http://www.w3.org/2000/svg" xmlns:xlink="http://www.w3.org/1999/xlink" version="1.1" viewBox="-10 0 1010 1000">
   <path fill="currentColor"
d="M127 70h61c0 6 -3 27 -3 41c0 56 -2 156 -16 207c-15 55 -48 106 -93 143l-48 -37c44 -34 72 -70 87 -120c15 -46 16 -136 16 -192c0 -14 -2 -31 -4 -42zM126 700h282c26 0 42 -2 54 -4v63c-11 0 -31 -3 -54 -3h-282c-29 0 -56 2 -72 3v-63c15 2 43 4 72 4zM320 112v265
c42 -22 96 -64 135 -121l32 45c-44 62 -118 117 -175 146c-8 4 -13 9 -19 13l-31 -27c2 -8 3 -19 3 -28v-293c0 -19 -3 -37 -3 -41h61c0 4 -3 23 -3 41zM620 262v91c0 28 9 36 32 40c16 4 36 5 62 5c56 0 125 -6 169 -18v60c-49 8 -113 12 -171 12c-30 0 -59 -2 -79 -5
c-45 -8 -67 -34 -67 -80v-264c0 -13 -1 -27 -4 -45h62c-3 17 -4 30 -4 45v106c58 -15 131 -39 174 -58c16 -7 33 -14 50 -25l27 52c-20 8 -36 15 -53 21c-59 24 -136 46 -198 63zM918 130c23 0 42 -18 42 -42c0 -23 -19 -42 -42 -42c-24 0 -42 19 -42 42c0 24 18 42 42 42z
M918 18c39 0 70 31 70 70s-31 70 -70 70s-70 -31 -70 -70s31 -70 70 -70z" />
</svg>
