<?xml version="1.0" standalone="no"?>
<!DOCTYPE svg PUBLIC "-//W3C//DTD SVG 1.1//EN" "http://www.w3.org/Graphics/SVG/1.1/DTD/svg11.dtd" >
<svg xmlns="http://www.w3.org/2000/svg" xmlns:xlink="http://www.w3.org/1999/xlink" version="1.1" viewBox="-10 0 1010 1000">
   <path fill="currentColor"
d="M831 576v-155h-239v155h239zM896 356v285h-367v-285h145v-250h66v90h194v66h-194v94h156zM264 802c64 0 114 -64 114 -157c0 -98 -39 -154 -115 -154c-42 0 -94 28 -135 89c10 151 65 222 136 222zM437 212l-46 50c-26 -35 -61 -58 -105 -58c-80 0 -154 79 -159 305
c38 -49 93 -84 155 -84c96 0 166 74 166 220c0 137 -83 227 -182 227c-120 0 -209 -117 -209 -341c0 -289 109 -397 231 -397c68 0 118 36 149 78zM513 897l-49 -30c35 -43 62 -116 75 -178l52 9c-13 67 -40 149 -78 199zM625 709l51 -6c9 58 15 130 15 171l-55 10
c1 -44 -4 -118 -11 -175zM730 711l48 -14c19 55 37 126 42 168l-51 20c-5 -44 -21 -117 -39 -174zM833 706l48 -25c35 59 72 137 85 184l-50 31c-13 -50 -49 -130 -83 -190z" />
</svg>
