<?xml version="1.0" standalone="no"?>
<!DOCTYPE svg PUBLIC "-//W3C//DTD SVG 1.1//EN" "http://www.w3.org/Graphics/SVG/1.1/DTD/svg11.dtd" >
<svg xmlns="http://www.w3.org/2000/svg" xmlns:xlink="http://www.w3.org/1999/xlink" version="1.1" viewBox="-10 0 1010 1000">
   <path fill="currentColor"
d="M870 569v-155h-179v155h179zM928 349v286h-293v-286h111v-250h63v91h148v65h-148v94h119zM29 257v-59c40 -11 80 -28 105 -52h48v714h-65v-603h-88zM414 801c46 0 78 -62 78 -156c0 -101 -27 -150 -78 -150c-29 0 -64 21 -93 89c6 147 40 217 93 217zM549 208l-40 52
c-19 -37 -48 -55 -77 -55c-60 0 -108 73 -112 300c29 -50 68 -81 106 -81c80 0 130 73 130 221c0 141 -63 227 -139 227c-94 0 -162 -101 -162 -341c0 -303 83 -397 173 -397c53 0 94 31 121 74zM621 889l-44 -27c28 -44 48 -119 55 -180l47 8c-7 64 -27 148 -58 199z
M705 702l45 -5c9 58 14 131 12 172l-48 11c2 -45 -2 -121 -9 -178zM790 704l43 -12c17 56 30 126 34 167l-46 18c-3 -43 -16 -117 -31 -173zM875 699l44 -21c28 61 53 139 59 185l-47 27c-7 -50 -31 -130 -56 -191z" />
</svg>
