<?xml version="1.0" standalone="no"?>
<!DOCTYPE svg PUBLIC "-//W3C//DTD SVG 1.1//EN" "http://www.w3.org/Graphics/SVG/1.1/DTD/svg11.dtd" >
<svg xmlns="http://www.w3.org/2000/svg" xmlns:xlink="http://www.w3.org/1999/xlink" version="1.1" viewBox="-10 0 1010 1000">
   <path fill="currentColor"
d="M870 569v-155h-179v155h179zM928 349v286h-293v-286h111v-250h63v91h148v65h-148v94h119zM64 296l-37 -50c28 -62 64 -115 126 -115c83 0 125 79 125 210c0 134 -74 275 -166 445c22 -3 46 -5 66 -5h109v77h-257v-53c116 -209 185 -341 185 -462c0 -79 -17 -138 -70 -138
c-37 0 -63 47 -81 91zM347 592h120v-212c0 -39 1 -78 2 -124h-3c-10 35 -18 61 -29 96zM580 662h-55v198h-58v-198h-181v-61l162 -455h77v446h55v70zM621 889l-44 -27c28 -44 48 -119 55 -180l47 8c-7 64 -27 148 -58 199zM705 702l45 -5c9 58 14 131 12 172l-48 11
c2 -45 -2 -121 -9 -178zM790 704l43 -12c17 56 30 126 34 167l-46 18c-3 -43 -16 -117 -31 -173zM875 699l44 -21c28 61 53 139 59 185l-47 27c-7 -50 -31 -130 -56 -191z" />
</svg>
