<?xml version="1.0" standalone="no"?>
<!DOCTYPE svg PUBLIC "-//W3C//DTD SVG 1.1//EN" "http://www.w3.org/Graphics/SVG/1.1/DTD/svg11.dtd" >
<svg xmlns="http://www.w3.org/2000/svg" xmlns:xlink="http://www.w3.org/1999/xlink" version="1.1" viewBox="-10 0 1010 1000">
   <path fill="currentColor"
d="M161 181h-58v210h58v-210zM103 677h58v-222h-58v222zM211 116v626h-108v77h-49v-703h157zM411 598h-111v222h111v-222zM246 931v-397h220v393h-55v-43h-111v47h-54zM482 91v28c-6 224 -11 304 -28 328c-11 15 -23 21 -42 23c-13 2 -33 3 -51 2c-1 -19 -6 -44 -14 -60
c19 2 32 2 40 2c9 0 14 -2 19 -10c9 -15 15 -76 19 -248h-64c-10 131 -36 256 -110 331c-7 -12 -25 -30 -39 -37c65 -65 87 -179 95 -294h-75v-65h250zM706 63l38 54c-24 17 -53 31 -85 43v178h71v67h-71v61c23 38 71 125 82 148l-31 55c-10 -25 -31 -72 -51 -114v381h-56
v-386c-23 92 -51 181 -80 238c-7 -17 -23 -44 -34 -59c41 -73 83 -209 106 -324h-82v-67h90v-159c-26 8 -51 15 -75 20c-2 -14 -11 -35 -19 -51c70 -18 152 -49 197 -85zM802 767h89v-540h-89v540zM748 157h198v744h-55v-64h-89v71h-54v-751z" />
</svg>
