<?xml version="1.0" standalone="no"?>
<!DOCTYPE svg PUBLIC "-//W3C//DTD SVG 1.1//EN" "http://www.w3.org/Graphics/SVG/1.1/DTD/svg11.dtd" >
<svg xmlns="http://www.w3.org/2000/svg" xmlns:xlink="http://www.w3.org/1999/xlink" version="1.1" viewBox="-10 0 1010 1000">
   <path fill="currentColor"
d="M465 404h-179c29 207 87 389 194 476c-14 11 -34 33 -44 49c-94 -84 -150 -230 -185 -405c-25 168 -77 308 -187 403c-11 -15 -31 -35 -47 -45c128 -105 174 -276 191 -478h-168v-72h173c5 -86 5 -176 6 -269h57c-1 93 -2 183 -6 269h195v72zM779 839h192v69h-469v-69h64
v-480h59v480h93v-655h-196v-69h432v69h-175v269h152v69h-152v317z" />
</svg>
