<?xml version="1.0" standalone="no"?>
<!DOCTYPE svg PUBLIC "-//W3C//DTD SVG 1.1//EN" "http://www.w3.org/Graphics/SVG/1.1/DTD/svg11.dtd" >
<svg xmlns="http://www.w3.org/2000/svg" xmlns:xlink="http://www.w3.org/1999/xlink" version="1.1" viewBox="-10 0 1010 1000">
   <path fill="currentColor"
d="M335 336h95c-4 146 -6 307 -6 437c0 32 9 44 22 44c5 0 8 0 15 -3l10 70c-10 6 -24 10 -44 10c-44 0 -70 -26 -76 -97h-3c-27 66 -68 93 -116 93c-37 0 -71 -10 -89 -46c1 108 3 160 12 246h-99v-754h95v360c0 77 27 118 81 118c33 0 69 -16 103 -94v-384zM749 295v215
c56 -83 87 -173 87 -268c0 -73 -16 -102 -39 -102c-25 0 -48 47 -48 155zM897 767l36 57c-32 33 -74 70 -129 70c-76 0 -141 -62 -149 -180c-13 10 -26 19 -40 29l-39 -58c28 -21 54 -43 78 -65v-308c0 -172 60 -243 140 -243c73 0 126 61 126 172c0 141 -57 272 -171 389
v42c0 106 31 144 71 144c33 0 56 -24 77 -49z" />
</svg>
