<?xml version="1.0" standalone="no"?>
<!DOCTYPE svg PUBLIC "-//W3C//DTD SVG 1.1//EN" "http://www.w3.org/Graphics/SVG/1.1/DTD/svg11.dtd" >
<svg xmlns="http://www.w3.org/2000/svg" xmlns:xlink="http://www.w3.org/1999/xlink" version="1.1" viewBox="-10 0 1010 1000">
   <path fill="currentColor"
d="M110 403h4c19 -48 47 -79 97 -79c43 0 67 33 76 86c17 -51 49 -86 95 -86c57 0 91 51 91 146v410h-79v-396c0 -56 -16 -82 -43 -82c-28 0 -45 26 -61 75v403h-67v-396c0 -52 -13 -82 -41 -82c-27 0 -47 26 -64 75v403h-79v-544h64zM749 295v215c56 -83 87 -173 87 -268
c0 -73 -16 -102 -39 -102c-25 0 -48 47 -48 155zM897 767l36 57c-32 33 -74 70 -129 70c-76 0 -141 -62 -149 -180c-13 10 -26 19 -40 29l-39 -58c28 -21 54 -43 78 -65v-308c0 -172 60 -243 140 -243c73 0 126 61 126 172c0 141 -57 272 -171 389v42c0 106 31 144 71 144
c33 0 57 -24 77 -49z" />
</svg>
