<?xml version="1.0" standalone="no"?>
<!DOCTYPE svg PUBLIC "-//W3C//DTD SVG 1.1//EN" "http://www.w3.org/Graphics/SVG/1.1/DTD/svg11.dtd" >
<svg xmlns="http://www.w3.org/2000/svg" xmlns:xlink="http://www.w3.org/1999/xlink" version="1.1" viewBox="-10 0 1010 1000">
   <path fill="currentColor"
d="M47 880v-544h56l7 67h4c19 -48 47 -79 97 -79c43 0 67 33 76 86c16 -51 47 -86 91 -86c55 0 87 51 87 146v410h-71v-396c0 -56 -16 -82 -43 -82c-28 0 -45 26 -61 75v403h-67v-396c0 -52 -13 -82 -41 -82c-27 0 -47 26 -64 75v403h-71zM547 880v-456h56l7 67h4
c19 -48 47 -79 97 -79c43 0 67 33 76 86c16 -51 47 -86 91 -86c55 0 87 51 87 145v323h-71v-308c0 -56 -16 -82 -43 -82c-28 0 -45 26 -61 75v315h-67v-308c0 -53 -13 -82 -41 -82c-27 0 -47 26 -64 75v315h-71zM727 342v-39c103 -81 167 -126 167 -180
c0 -36 -20 -57 -63 -57c-26 0 -53 17 -73 46l-41 -38c34 -39 75 -66 124 -66c78 0 124 42 124 106s-60 114 -127 169h138v59h-249z" />
</svg>
