<?xml version="1.0" standalone="no"?>
<!DOCTYPE svg PUBLIC "-//W3C//DTD SVG 1.1//EN" "http://www.w3.org/Graphics/SVG/1.1/DTD/svg11.dtd" >
<svg xmlns="http://www.w3.org/2000/svg" xmlns:xlink="http://www.w3.org/1999/xlink" version="1.1" viewBox="-10 0 1010 1000">
   <path fill="currentColor"
d="M76 880v-768h90v506h3l198 -282h97l-156 220l170 324h-94l-131 -260l-87 118v142h-90zM539 880v-456h64l7 67h4c19 -48 47 -79 97 -79c43 0 67 33 76 86c17 -51 49 -86 95 -86c57 0 91 51 91 145v323h-79v-308c0 -56 -16 -82 -43 -82c-28 0 -45 26 -61 75v315h-67v-308
c0 -53 -13 -82 -41 -82c-27 0 -47 26 -64 75v315h-79zM853 356c-47 0 -94 -23 -133 -61l30 -43c25 28 56 49 96 49c36 0 60 -15 60 -48c0 -34 -30 -53 -94 -53v-42c52 0 81 -22 81 -53c0 -24 -19 -42 -56 -42c-27 0 -59 14 -81 37l-30 -41c29 -31 74 -51 123 -51
c66 0 118 34 118 89c0 38 -19 62 -68 78c52 11 76 40 76 81c0 63 -53 100 -122 100z" />
</svg>
