<?xml version="1.0" standalone="no"?>
<!DOCTYPE svg PUBLIC "-//W3C//DTD SVG 1.1//EN" "http://www.w3.org/Graphics/SVG/1.1/DTD/svg11.dtd" >
<svg xmlns="http://www.w3.org/2000/svg" xmlns:xlink="http://www.w3.org/1999/xlink" version="1.1" viewBox="-10 0 1010 1000">
   <path fill="currentColor"
d="M71 880v-544h60l6 92h3c23 -61 64 -104 107 -104c27 0 40 6 57 17l-23 78c-14 -11 -23 -14 -40 -14c-36 0 -69 31 -94 113v362h-76zM425 893c-62 0 -106 -52 -106 -150c0 -115 73 -173 201 -207c0 -86 -16 -138 -70 -138c-33 0 -63 28 -85 48l-32 -62
c37 -26 83 -61 133 -61c82 0 129 69 129 211v346h-61l-6 -61h-3c-25 45 -55 74 -100 74zM448 819c29 0 48 -23 72 -61v-162c-94 29 -131 72 -131 138c0 62 29 85 59 85zM796 894c-76 0 -129 -96 -129 -285c0 -183 63 -285 132 -285c37 0 61 17 82 53l-2 -89v-176h74v768h-61
l-7 -58h-1c-17 43 -47 72 -88 72zM816 816c27 0 46 -21 63 -69v-298c-17 -36 -33 -49 -59 -49c-43 0 -76 80 -76 209c0 134 27 207 72 207z" />
</svg>
