<?xml version="1.0" standalone="no"?>
<!DOCTYPE svg PUBLIC "-//W3C//DTD SVG 1.1//EN" "http://www.w3.org/Graphics/SVG/1.1/DTD/svg11.dtd" >
<svg xmlns="http://www.w3.org/2000/svg" xmlns:xlink="http://www.w3.org/1999/xlink" version="1.1" viewBox="-10 0 1010 1000">
   <path fill="currentColor"
d="M56 1090v-754h95v360c0 77 27 118 81 118c33 0 69 -16 103 -94v-384h95c-4 146 -6 307 -6 437c0 32 9 44 22 44c5 0 8 0 15 -3l10 70c-10 6 -24 10 -44 10c-44 0 -70 -26 -76 -97h-3c-27 66 -68 93 -116 93c-37 0 -71 -10 -89 -46c1 108 3 160 12 246h-99zM749 893
c-79 0 -146 -32 -199 -75l45 -60c49 38 90 65 157 65c69 0 103 -39 103 -85c0 -57 -60 -80 -121 -104c-72 -29 -158 -65 -158 -158c0 -86 68 -153 184 -153c69 0 121 27 164 60l-44 59c-38 -28 -70 -48 -119 -48c-67 0 -97 37 -97 78c0 53 56 70 117 94
c75 30 163 63 163 166c0 88 -69 161 -195 161z" />
</svg>
