<?xml version="1.0" standalone="no"?>
<!DOCTYPE svg PUBLIC "-//W3C//DTD SVG 1.1//EN" "http://www.w3.org/Graphics/SVG/1.1/DTD/svg11.dtd" >
<svg xmlns="http://www.w3.org/2000/svg" xmlns:xlink="http://www.w3.org/1999/xlink" version="1.1" viewBox="-10 0 1010 1000">
   <path fill="currentColor"
d="M55 880v-735h92l75 297l26 122h4l27 -122l74 -297h93v735h-77v-415c0 -61 12 -165 16 -225h-4l-35 156l-73 277h-48l-72 -277l-38 -156h-4c4 60 18 164 18 225v415h-74zM692 880l-165 -735h96l78 399c17 87 30 159 48 246h5c19 -87 31 -159 48 -246l78 -399h93l-165 735
h-116z" />
</svg>
