<?xml version="1.0" standalone="no"?>
<!DOCTYPE svg PUBLIC "-//W3C//DTD SVG 1.1//EN" "http://www.w3.org/Graphics/SVG/1.1/DTD/svg11.dtd" >
<svg xmlns="http://www.w3.org/2000/svg" xmlns:xlink="http://www.w3.org/1999/xlink" version="1.1" viewBox="-10 0 1010 1000">
   <path fill="currentColor"
d="M279 892c-126 0 -229 -117 -229 -378c0 -260 106 -381 231 -381c65 0 112 38 144 80l-55 58c-23 -34 -48 -57 -86 -57c-77 0 -146 90 -146 297c0 210 65 300 149 300c38 0 67 -22 96 -65l54 56c-42 58 -94 90 -158 90zM645 892c-98 0 -179 -93 -179 -283
c0 -192 81 -285 179 -285c97 0 178 93 178 285c0 190 -81 283 -178 283zM645 816c51 0 92 -64 92 -207s-41 -210 -92 -210c-53 0 -93 67 -93 210s39 207 93 207zM908 892c-32 0 -59 -26 -59 -69c0 -41 27 -70 59 -70c31 0 58 29 58 70c0 43 -27 69 -58 69z" />
</svg>
