<?xml version="1.0" standalone="no"?>
<!DOCTYPE svg PUBLIC "-//W3C//DTD SVG 1.1//EN" "http://www.w3.org/Graphics/SVG/1.1/DTD/svg11.dtd" >
<svg xmlns="http://www.w3.org/2000/svg" xmlns:xlink="http://www.w3.org/1999/xlink" version="1.1" viewBox="-10 0 1010 1000">
   <path fill="currentColor"
d="M223 894c-106 0 -177 -96 -177 -285c0 -183 86 -285 186 -285c45 0 76 18 110 59l-3 -95v-176h92v768h-77l-8 -64h-2c-31 46 -69 78 -121 78zM244 816c34 0 64 -20 95 -73v-290c-29 -42 -56 -53 -87 -53c-60 0 -112 80 -112 209c0 134 38 207 104 207zM577 880v-735h143
c131 0 210 52 210 180c0 74 -32 137 -104 160v5c79 16 134 66 134 176c0 144 -90 214 -232 214h-151zM669 459h40c96 0 129 -43 129 -121c0 -89 -38 -119 -125 -119h-44v240zM669 807h49c100 0 151 -46 151 -145c0 -91 -46 -134 -145 -134h-55v279z" />
</svg>
