<?xml version="1.0" standalone="no"?>
<!DOCTYPE svg PUBLIC "-//W3C//DTD SVG 1.1//EN" "http://www.w3.org/Graphics/SVG/1.1/DTD/svg11.dtd" >
<svg xmlns="http://www.w3.org/2000/svg" xmlns:xlink="http://www.w3.org/1999/xlink" version="1.1" viewBox="-10 0 1010 1000">
   <path fill="currentColor"
d="M70 880v-735h92v370h4l200 -370h96l-154 278l176 457h-95l-137 -371l-90 150v221h-92zM554 880v-735h93l75 297l26 122h4l27 -122l74 -297h92v735h-76v-415c0 -61 12 -165 16 -225h-4l-35 156l-73 277h-48l-72 -277l-38 -156h-4c4 60 18 164 18 225v415h-75z" />
</svg>
