<?xml version="1.0" standalone="no"?>
<!DOCTYPE svg PUBLIC "-//W3C//DTD SVG 1.1//EN" "http://www.w3.org/Graphics/SVG/1.1/DTD/svg11.dtd" >
<svg xmlns="http://www.w3.org/2000/svg" xmlns:xlink="http://www.w3.org/1999/xlink" version="1.1" viewBox="-10 0 1010 1000">
   <path fill="currentColor"
d="M333 893c-94 0 -144 -61 -144 -181v-526h-131v-74h223v607c0 69 29 97 76 97c22 0 43 -5 69 -21l23 71c-40 18 -69 27 -116 27zM539 880v-544h64l7 67h4c19 -48 47 -79 97 -79c43 0 67 33 76 86c17 -51 49 -86 95 -86c57 0 91 51 91 146v410h-79v-396
c0 -56 -16 -82 -43 -82c-28 0 -45 26 -61 75v403h-67v-396c0 -52 -13 -82 -41 -82c-27 0 -47 26 -64 75v403h-79z" />
</svg>
