<?xml version="1.0" standalone="no"?>
<!DOCTYPE svg PUBLIC "-//W3C//DTD SVG 1.1//EN" "http://www.w3.org/Graphics/SVG/1.1/DTD/svg11.dtd" >
<svg xmlns="http://www.w3.org/2000/svg" xmlns:xlink="http://www.w3.org/1999/xlink" version="1.1" viewBox="-10 0 1010 1000">
   <path fill="currentColor"
d="M333 893c-94 0 -144 -61 -144 -181v-526h-131v-74h223v607c0 69 29 97 76 97c22 0 43 -5 69 -21l23 71c-40 18 -69 27 -116 27zM567 880l-1 -544h75l7 75h4c42 -49 91 -87 155 -87c98 0 138 67 138 196v360h-92v-350c0 -88 -20 -128 -79 -128c-42 0 -76 27 -115 81v397
h-92z" />
</svg>
