<?xml version="1.0" standalone="no"?>
<!DOCTYPE svg PUBLIC "-//W3C//DTD SVG 1.1//EN" "http://www.w3.org/Graphics/SVG/1.1/DTD/svg11.dtd" >
<svg xmlns="http://www.w3.org/2000/svg" xmlns:xlink="http://www.w3.org/1999/xlink" version="1.1" viewBox="-10 0 1010 1000">
   <path fill="currentColor"
d="M216 893c-60 0 -95 -49 -95 -147v-564h-86v-70h162v641c0 44 16 63 34 63c13 0 16 -2 27 -9l16 71c-23 11 -32 15 -58 15zM460 892c-77 0 -143 -93 -143 -283c0 -192 66 -285 143 -285s143 93 143 285c0 190 -66 283 -143 283zM460 816c40 0 66 -72 66 -207
c0 -136 -26 -210 -66 -210c-41 0 -67 74 -67 210c0 135 26 207 67 207zM805 1122c-80 0 -144 -51 -144 -141c0 -47 17 -90 46 -123v-5c-18 -17 -32 -46 -32 -89c0 -45 18 -83 45 -103v-4c-27 -29 -48 -73 -48 -143c0 -125 65 -190 133 -190c17 0 37 4 51 12h122v70h-70
c14 26 26 60 26 112c0 118 -60 185 -122 185c-15 0 -33 -6 -48 -17c-15 17 -24 35 -24 62c0 36 18 61 70 61h40c78 0 129 40 129 130c0 98 -67 183 -174 183zM805 643c35 0 63 -42 63 -129c0 -86 -26 -126 -63 -126c-35 0 -63 39 -63 126s29 129 63 129zM812 1060
c58 0 95 -54 95 -107c0 -51 -28 -69 -71 -69h-36c-15 0 -28 -1 -49 -7c-19 28 -27 60 -27 91c0 55 33 92 88 92z" />
</svg>
