<?xml version="1.0" standalone="no"?>
<!DOCTYPE svg PUBLIC "-//W3C//DTD SVG 1.1//EN" "http://www.w3.org/Graphics/SVG/1.1/DTD/svg11.dtd" >
<svg xmlns="http://www.w3.org/2000/svg" xmlns:xlink="http://www.w3.org/1999/xlink" version="1.1" viewBox="-10 0 1010 1000">
   <path fill="currentColor"
d="M82 880l-75 -735h82l38 462c5 61 8 113 12 174h4c9 -61 17 -113 28 -174l50 -272h66l49 272c10 60 18 114 28 174h4c2 -60 6 -113 11 -174l37 -462h75l-71 735h-98l-53 -307c-8 -45 -12 -90 -17 -134h-4c-5 44 -10 89 -17 134l-53 307h-96zM767 894
c-40 0 -79 -20 -113 -67h-3l-9 53h-73v-768h92v186l-3 97c36 -44 80 -71 125 -71c110 0 171 101 171 276c0 193 -86 294 -187 294zM748 816c61 0 111 -76 111 -215c0 -124 -29 -201 -99 -201c-31 0 -65 21 -99 71v289c30 46 63 56 87 56z" />
</svg>
