<?xml version="1.0" standalone="no"?>
<!DOCTYPE svg PUBLIC "-//W3C//DTD SVG 1.1//EN" "http://www.w3.org/Graphics/SVG/1.1/DTD/svg11.dtd" >
<svg xmlns="http://www.w3.org/2000/svg" xmlns:xlink="http://www.w3.org/1999/xlink" version="1.1" viewBox="-10 0 1010 1000">
   <path fill="currentColor"
d="M306 484v4c68 20 128 84 128 185c0 121 -88 198 -197 198c-101 0 -165 -50 -205 -101l45 -53c36 45 85 83 150 83c76 0 131 -51 131 -132c0 -87 -58 -146 -193 -146v-63c119 0 174 -64 174 -139c0 -74 -45 -116 -111 -116c-45 0 -91 30 -126 72l-47 -53
c48 -52 109 -89 180 -89c106 0 180 68 180 177c0 89 -46 145 -109 173zM599 753h248v-238h-248v238zM847 216h-248v229h248v-229zM529 145h391v730h-73v-51h-248v55h-70v-734z" />
</svg>
