<?xml version="1.0" standalone="no"?>
<!DOCTYPE svg PUBLIC "-//W3C//DTD SVG 1.1//EN" "http://www.w3.org/Graphics/SVG/1.1/DTD/svg11.dtd" >
<svg xmlns="http://www.w3.org/2000/svg" xmlns:xlink="http://www.w3.org/1999/xlink" version="1.1" viewBox="-10 0 1010 1000">
   <path fill="currentColor"
d="M33 257v-59c40 -11 80 -28 105 -52h49v714h-66v-603h-88zM416 792c53 0 81 -88 81 -295s-28 -287 -81 -287c-51 0 -79 80 -79 287s28 295 79 295zM416 131c89 0 144 113 144 366c0 254 -55 374 -144 374c-88 0 -143 -120 -143 -374c0 -253 55 -366 143 -366zM712 753h178
v-238h-178v238zM890 216h-178v229h178v-229zM650 145h304v730h-64v-51h-178v55h-62v-734z" />
</svg>
