<?xml version="1.0" standalone="no"?>
<!DOCTYPE svg PUBLIC "-//W3C//DTD SVG 1.1//EN" "http://www.w3.org/Graphics/SVG/1.1/DTD/svg11.dtd" >
<svg xmlns="http://www.w3.org/2000/svg" xmlns:xlink="http://www.w3.org/1999/xlink" version="1.1" viewBox="-10 0 1010 1000">
   <path fill="currentColor"
d="M68 297l-37 -50c28 -62 64 -115 126 -115c83 0 125 79 125 210c0 134 -73 275 -166 445c22 -3 46 -6 66 -6h111v78h-258v-53c116 -210 185 -342 185 -462c0 -79 -18 -138 -71 -138c-37 0 -62 46 -81 91zM485 483v5c51 15 95 71 95 179c0 129 -62 205 -142 205
c-67 0 -106 -44 -131 -92l35 -58c22 40 50 76 94 76c47 0 82 -50 82 -132c0 -80 -31 -142 -125 -142v-68c77 0 112 -65 112 -137c0 -68 -27 -112 -69 -112c-31 0 -55 26 -75 64l-38 -57c29 -47 67 -81 115 -81c77 0 130 62 130 180c0 90 -36 145 -83 170zM712 753h178v-238
h-178v238zM890 216h-178v229h178v-229zM650 145h304v730h-64v-51h-178v55h-62v-734z" />
</svg>
