<?xml version="1.0" standalone="no"?>
<!DOCTYPE svg PUBLIC "-//W3C//DTD SVG 1.1//EN" "http://www.w3.org/Graphics/SVG/1.1/DTD/svg11.dtd" >
<svg xmlns="http://www.w3.org/2000/svg" xmlns:xlink="http://www.w3.org/1999/xlink" version="1.1" viewBox="-10 0 1010 1000">
   <path fill="currentColor"
d="M204 1122c-81 0 -145 -51 -145 -141c0 -47 17 -90 46 -123v-5c-18 -17 -32 -46 -32 -89c0 -45 18 -83 45 -103v-4c-27 -29 -48 -73 -48 -143c0 -125 66 -190 134 -190c17 0 38 4 52 12h125v70h-74c15 26 26 60 26 112c0 118 -61 185 -123 185c-15 0 -33 -6 -48 -17
c-15 17 -24 35 -24 62c0 36 19 61 70 61h42c78 0 129 40 129 130c0 98 -68 183 -175 183zM204 643c35 0 64 -42 64 -129c0 -86 -27 -126 -64 -126c-35 0 -64 39 -64 126s29 129 64 129zM211 1060c58 0 96 -54 96 -107c0 -51 -29 -69 -72 -69h-36c-15 0 -29 -1 -50 -7
c-19 28 -27 60 -27 91c0 55 34 92 89 92zM529 893c-63 0 -102 -52 -102 -150c0 -121 74 -180 203 -207c0 -72 -17 -138 -69 -138c-33 0 -64 25 -93 54l-35 -61c42 -34 89 -68 142 -68c82 0 129 85 129 215v342h-60l-7 -57h-2c-30 43 -66 70 -106 70zM555 819
c27 0 52 -22 75 -59v-164c-96 23 -132 66 -132 138c0 62 25 85 57 85zM919 893c-65 0 -103 -49 -103 -147v-560h-85v-74h169v641c0 44 16 63 34 63c12 0 17 -2 28 -9l15 71c-23 11 -32 15 -58 15z" />
</svg>
