<?xml version="1.0" standalone="no"?>
<!DOCTYPE svg PUBLIC "-//W3C//DTD SVG 1.1//EN" "http://www.w3.org/Graphics/SVG/1.1/DTD/svg11.dtd" >
<svg xmlns="http://www.w3.org/2000/svg" xmlns:xlink="http://www.w3.org/1999/xlink" version="1.1" viewBox="-10 0 1010 1000">
   <path fill="currentColor"
d="M670 245h-220c-44 136 -138 229 -359 279c-7 -18 -25 -46 -39 -60c190 -41 276 -114 317 -219h-270v-70h290c9 -40 14 -83 18 -131h77c-4 47 -9 91 -17 131h278v214c0 25 5 29 30 29h82c25 0 29 -16 32 -123c16 13 46 25 67 31c-7 126 -27 159 -91 159h-101
c-73 0 -94 -21 -94 -95v-145zM307 844h495c51 0 67 -14 72 -127c22 11 48 20 71 24c-12 150 -46 174 -150 174h-480c-119 0 -173 -37 -173 -99c0 -46 16 -98 366 -220h-362v-64h567l15 -3l56 42c-4 5 -12 9 -19 13c-509 154 -547 197 -547 226c0 24 34 34 89 34z" />
</svg>
