<?xml version="1.0" standalone="no"?>
<!DOCTYPE svg PUBLIC "-//W3C//DTD SVG 1.1//EN" "http://www.w3.org/Graphics/SVG/1.1/DTD/svg11.dtd" >
<svg xmlns="http://www.w3.org/2000/svg" xmlns:xlink="http://www.w3.org/1999/xlink" version="1.1" viewBox="-10 0 1010 1000">
   <path fill="currentColor"
d="M831 57l66 57c-198 51 -516 78 -781 91c-3 -19 -13 -45 -23 -62c260 -14 573 -41 738 -86zM741 443l-70 -26c41 -56 93 -147 119 -213l85 27c-41 73 -92 157 -134 212zM568 394l-80 23c-9 -48 -35 -120 -68 -176l75 -20c34 53 63 126 73 173zM302 410l-77 27
c-13 -48 -50 -121 -92 -174l73 -24c43 52 81 123 96 171zM314 864h476c52 0 68 -19 74 -139c21 12 50 22 73 26c-11 158 -47 186 -153 186h-461c-123 0 -178 -40 -178 -104c0 -49 16 -105 378 -290h-365v-66h511l16 -3l56 37c-4 4 -10 9 -16 13c-467 222 -499 268 -499 301
c0 27 34 39 88 39z" />
</svg>
