<?xml version="1.0" standalone="no"?>
<!DOCTYPE svg PUBLIC "-//W3C//DTD SVG 1.1//EN" "http://www.w3.org/Graphics/SVG/1.1/DTD/svg11.dtd" >
<svg xmlns="http://www.w3.org/2000/svg" xmlns:xlink="http://www.w3.org/1999/xlink" version="1.1" viewBox="-10 0 1010 1000">
   <path fill="currentColor"
d="M856 559h-154c-89 0 -113 -23 -113 -104v-401h73v401c0 32 8 39 48 39h140c32 0 38 -17 42 -105c15 12 44 24 65 29c-9 110 -30 141 -101 141zM483 46l45 50c-115 29 -300 46 -449 52c-2 -14 -12 -36 -19 -50c145 -9 324 -25 423 -52zM447 258l-54 -20
c24 -30 57 -80 74 -113l66 22c-27 40 -61 83 -86 111zM340 229l-61 17c-4 -25 -19 -67 -34 -96l59 -15c16 30 31 69 36 94zM270 513v-64c-75 5 -144 10 -202 13l-8 -60c58 -3 130 -7 210 -11v-27h1l-1 -1c32 -14 70 -32 102 -50h-285v-54h46c-7 -25 -22 -62 -41 -88l57 -18
c19 27 37 64 44 87l-54 19h317l16 -4l47 32c-49 35 -114 69 -176 95v5c63 -4 127 -8 192 -12l-1 57l-191 13v68c0 33 -7 48 -36 58c-28 9 -72 9 -138 9c-4 -17 -15 -38 -25 -55c52 2 95 2 109 1s17 -4 17 -13zM292 873h502c49 0 66 -11 71 -118c21 12 46 19 68 23
c-12 141 -45 161 -145 161l-489 1c-116 0 -169 -35 -169 -92c0 -42 15 -89 342 -181h-330v-60h571l15 -3l54 40c-4 5 -12 8 -20 11c-520 120 -559 161 -559 187c0 22 34 31 89 31z" />
</svg>
