<?xml version="1.0" standalone="no"?>
<!DOCTYPE svg PUBLIC "-//W3C//DTD SVG 1.1//EN" "http://www.w3.org/Graphics/SVG/1.1/DTD/svg11.dtd" >
<svg xmlns="http://www.w3.org/2000/svg" xmlns:xlink="http://www.w3.org/1999/xlink" version="1.1" viewBox="-10 0 1010 1000">
   <path fill="currentColor"
d="M123 340l-39 -53c91 -26 203 -68 289 -115h-298v-55h396c-9 -20 -19 -41 -29 -59l70 -20c16 23 32 54 42 79h373v55h-311c101 30 232 77 302 112l-39 50c-68 -37 -205 -89 -309 -121l34 -41h-223l53 29c-93 56 -210 108 -311 139zM384 524v73h228v-73h-228zM384 400v70
h228v-70h-228zM814 679l48 40c-43 31 -97 63 -144 86c67 38 147 65 237 79c-15 15 -33 41 -41 59c-194 -39 -339 -133 -420 -279c-42 29 -93 57 -149 81v128l240 -48c-2 17 -4 43 -4 56c-272 60 -305 68 -324 81v-5c-6 -17 -17 -40 -27 -51c18 -10 46 -30 46 -74v-59
c-66 24 -134 44 -197 56c-8 -15 -25 -40 -37 -52c122 -22 265 -66 364 -121h-348v-59h254v-73h-183v-54h183v-70h-214v-55h214v-70h72v70h228v-72h73v72h217v55h-217v70h184v54h-184v73h258v59h-384c29 46 66 85 111 119c48 -27 109 -67 144 -96z" />
</svg>
