<?xml version="1.0" standalone="no"?>
<!DOCTYPE svg PUBLIC "-//W3C//DTD SVG 1.1//EN" "http://www.w3.org/Graphics/SVG/1.1/DTD/svg11.dtd" >
<svg xmlns="http://www.w3.org/2000/svg" xmlns:xlink="http://www.w3.org/1999/xlink" version="1.1" viewBox="-10 0 1010 1000">
   <path fill="currentColor"
d="M236 49l68 20c-21 66 -48 132 -78 196v692h-71v-560c-29 49 -62 94 -94 133c-7 -17 -27 -57 -39 -75c86 -100 166 -252 214 -406zM930 562h-253c72 96 186 194 284 243c-16 14 -40 40 -52 59c-90 -55 -192 -150 -266 -249v337h-69v-331c-74 100 -176 194 -272 248
c-7 -20 -23 -49 -35 -67c100 -50 211 -145 279 -240h-246v-65h274v-104h-220v-64h220v-101h-240v-64h240v-119h69v119h258v64h-258v101h238v64h-238v104h287v65z" />
</svg>
