<?xml version="1.0" standalone="no"?>
<!DOCTYPE svg PUBLIC "-//W3C//DTD SVG 1.1//EN" "http://www.w3.org/Graphics/SVG/1.1/DTD/svg11.dtd" >
<svg xmlns="http://www.w3.org/2000/svg" xmlns:xlink="http://www.w3.org/1999/xlink" version="1.1" viewBox="-10 0 1010 1000">
   <path fill="currentColor"
d="M232 49l65 19c-20 69 -47 139 -76 206v683h-68v-549c-25 46 -53 87 -81 123c-6 -18 -26 -57 -39 -75c82 -101 154 -254 199 -407zM572 469l12 67c-39 15 -80 29 -119 44v268c0 43 -10 65 -35 77c-25 13 -67 15 -130 15c-4 -19 -14 -53 -23 -73c47 1 88 1 101 0
c12 0 17 -3 17 -18v-244c-39 14 -76 27 -109 39l-30 -73c38 -11 86 -25 139 -43v-218h-117v-70h117v-192h70v192h110v70h-110v196c35 -12 71 -25 107 -37zM957 367v69h-94v521h-69v-521h-113v51c0 143 -16 338 -120 463c-10 -13 -39 -36 -54 -44c95 -118 105 -287 105 -419
v-345c91 -24 197 -58 259 -91l54 59c-68 30 -159 58 -244 79v178h276z" />
</svg>
