<?xml version="1.0" standalone="no"?>
<!DOCTYPE svg PUBLIC "-//W3C//DTD SVG 1.1//EN" "http://www.w3.org/Graphics/SVG/1.1/DTD/svg11.dtd" >
<svg xmlns="http://www.w3.org/2000/svg" xmlns:xlink="http://www.w3.org/1999/xlink" version="1.1" viewBox="-10 0 1010 1000">
   <path fill="currentColor"
d="M224 49l63 20c-21 65 -46 130 -73 193v695h-65v-566c-28 52 -60 98 -91 139c-6 -18 -25 -58 -36 -75c81 -100 157 -252 202 -406zM487 597l55 -17c41 94 80 215 92 289l-60 22c-3 -22 -8 -50 -16 -79c-219 38 -249 46 -268 57v1c-3 -15 -14 -46 -22 -63
c14 -3 26 -27 41 -61c13 -29 52 -136 73 -241h-119v-69h151v-157h-127v-68h127v-168h62v168h133v68h-133v157h155v69h-179c-23 95 -59 197 -95 277l185 -29c-15 -53 -35 -108 -55 -156zM925 101v609c0 38 -6 62 -29 74c-22 13 -56 15 -105 15c-3 -20 -13 -56 -23 -76
c37 1 70 1 81 1c10 0 13 -4 13 -16v-536h-133v785h-63v-856h259z" />
</svg>
