<?xml version="1.0" standalone="no"?>
<!DOCTYPE svg PUBLIC "-//W3C//DTD SVG 1.1//EN" "http://www.w3.org/Graphics/SVG/1.1/DTD/svg11.dtd" >
<svg xmlns="http://www.w3.org/2000/svg" xmlns:xlink="http://www.w3.org/1999/xlink" version="1.1" viewBox="-10 0 1010 1000">
   <path fill="currentColor"
d="M246 49l68 19c-21 66 -48 133 -78 197v692h-71v-561c-30 50 -62 95 -95 134c-6 -17 -27 -57 -39 -75c87 -100 167 -252 215 -406zM464 297v93h325v-93h-325zM464 150v91h325v-91h-325zM495 543h420s-1 22 -3 32c-15 234 -32 321 -60 352c-17 19 -34 26 -60 29
c-22 1 -64 1 -107 -1c-1 -20 -8 -47 -18 -66c41 5 79 5 95 5c14 0 23 -1 32 -11c19 -20 33 -93 47 -276h-78c-41 140 -116 265 -220 350c-9 -13 -33 -34 -48 -45c93 -73 164 -185 202 -305h-88c-51 116 -136 222 -240 296c-11 -13 -34 -33 -47 -43c93 -64 172 -157 218 -253
h-90c-38 49 -82 93 -130 128c-12 -12 -34 -34 -49 -44c86 -60 158 -153 202 -242h-80v-358h469v358h-316c-14 32 -31 64 -51 94z" />
</svg>
