<?xml version="1.0" standalone="no"?>
<!DOCTYPE svg PUBLIC "-//W3C//DTD SVG 1.1//EN" "http://www.w3.org/Graphics/SVG/1.1/DTD/svg11.dtd" >
<svg xmlns="http://www.w3.org/2000/svg" xmlns:xlink="http://www.w3.org/1999/xlink" version="1.1" viewBox="-10 0 1010 1000">
   <path fill="currentColor"
d="M241 49l66 20c-21 67 -48 132 -77 196v692h-69v-562c-29 50 -62 96 -94 136c-7 -18 -27 -57 -38 -76c86 -100 164 -252 212 -406zM641 673v20h298v66h-298v123c0 38 -6 55 -33 66c-26 10 -67 10 -124 10c-2 -19 -9 -45 -18 -65c40 2 79 2 89 1c13 0 15 -3 15 -13v-122
h-283v-66h283v-54c46 -16 97 -40 140 -65h-331v-61h412l13 -4l46 34c-55 50 -135 97 -209 130zM947 320h-250c73 52 176 99 263 123c-16 15 -38 41 -50 59c-89 -33 -200 -96 -276 -161v138h-73v-134c-73 67 -178 127 -269 158c-10 -16 -30 -42 -44 -54
c89 -24 190 -73 259 -129h-217v-63h271v-102c-72 6 -146 10 -214 12c-2 -18 -11 -43 -17 -60c170 -7 382 -25 500 -55l35 60c-62 16 -144 27 -231 36v109h313v63z" />
</svg>
