<?xml version="1.0" standalone="no"?>
<!DOCTYPE svg PUBLIC "-//W3C//DTD SVG 1.1//EN" "http://www.w3.org/Graphics/SVG/1.1/DTD/svg11.dtd" >
<svg xmlns="http://www.w3.org/2000/svg" xmlns:xlink="http://www.w3.org/1999/xlink" version="1.1" viewBox="-10 0 1010 1000">
   <path fill="currentColor"
d="M628 345h-7c-60 84 -156 154 -248 200c-10 -13 -31 -38 -45 -50c81 -35 162 -87 217 -150h-203v-59h283c-45 -26 -98 -53 -144 -71l41 -38c33 13 70 30 104 47c40 -21 83 -50 117 -78h-346v-57h409l14 -4l47 35c-48 49 -117 98 -182 136c18 10 35 20 48 30h136l13 -3
l49 15c-32 64 -72 133 -109 175l-58 -18c23 -29 49 -70 71 -110h-139v121c0 34 -6 50 -33 60c-26 11 -65 11 -125 11c-4 -19 -15 -42 -24 -60c47 2 86 2 99 1c13 0 15 -4 15 -14v-119zM263 47l71 20c-28 76 -62 151 -100 222v666h-71v-550c-27 41 -57 79 -86 111
c-8 -17 -30 -56 -43 -72c92 -97 178 -246 229 -397zM927 686h-221c62 75 161 145 253 179c-16 15 -38 41 -49 58c-89 -41 -187 -118 -252 -202v237h-70v-235c-68 86 -169 162 -264 203c-12 -18 -32 -42 -48 -56c97 -34 199 -106 263 -184h-220v-63h269v-68h70v68h269v63z
" />
</svg>
