<?xml version="1.0" standalone="no"?>
<!DOCTYPE svg PUBLIC "-//W3C//DTD SVG 1.1//EN" "http://www.w3.org/Graphics/SVG/1.1/DTD/svg11.dtd" >
<svg xmlns="http://www.w3.org/2000/svg" xmlns:xlink="http://www.w3.org/1999/xlink" version="1.1" viewBox="-10 0 1010 1000">
   <path fill="currentColor"
d="M232 49l65 20c-21 65 -47 132 -76 196v692h-68v-563c-29 50 -62 96 -94 137c-6 -18 -26 -57 -38 -76c86 -100 164 -252 211 -406zM922 206h-494c-30 56 -65 104 -102 142c-13 -10 -42 -33 -60 -43c69 -64 124 -160 155 -262l70 17c-9 28 -20 57 -33 84h464v62zM856 331
h-445v-59h445v59zM538 488v169h186v57h-186v13c39 23 151 98 180 120l-37 51c-28 -26 -95 -78 -143 -115v163h-64v-188c-45 66 -106 128 -165 163c-9 -14 -27 -34 -40 -45c62 -32 130 -96 174 -162h-156v-57h187v-169h64zM319 527l47 -19c27 34 54 82 64 114l-48 22
c-10 -32 -37 -81 -63 -117zM639 503l54 22c-24 43 -51 89 -75 119l-45 -18c22 -33 51 -87 66 -123zM324 400h507c-1 244 4 472 68 483c9 2 16 -50 18 -118c14 15 32 36 45 44c-7 122 -36 159 -85 144c-107 -25 -114 -242 -117 -492h-436v-61z" />
</svg>
