<?xml version="1.0" standalone="no"?>
<!DOCTYPE svg PUBLIC "-//W3C//DTD SVG 1.1//EN" "http://www.w3.org/Graphics/SVG/1.1/DTD/svg11.dtd" >
<svg xmlns="http://www.w3.org/2000/svg" xmlns:xlink="http://www.w3.org/1999/xlink" version="1.1" viewBox="-10 0 1010 1000">
   <path fill="currentColor"
d="M213 49l62 16c-19 68 -43 136 -69 201v690h-64v-554c-24 44 -49 86 -75 121c-6 -16 -25 -51 -37 -68c76 -101 143 -254 183 -406zM622 583h271c-52 -31 -98 -72 -138 -121c-41 48 -86 88 -133 121zM668 852h164v-204h-164v204zM695 206l-10 20c18 47 40 93 69 134
c32 -46 59 -98 80 -154h-139zM433 725h53v-254h-53v254zM332 471v254h57v-254h-57zM389 177h-57v233h57v-233zM486 410v-233h-53v233h53zM875 142l40 21c-28 95 -70 179 -122 251c50 58 112 106 179 135c-15 12 -35 36 -45 53c-9 -5 -19 -10 -29 -16v356h-66v-26h-164v27
h-63v-349c-11 8 -23 14 -33 21c-6 -17 -22 -44 -34 -57v228h-206v74h-54v-744h260v437c65 -34 125 -83 177 -144c-25 -37 -47 -79 -65 -122c-17 26 -35 50 -55 73c-9 -14 -29 -36 -42 -44c71 -81 112 -189 132 -273l64 9c-8 30 -17 62 -29 93h142z" />
</svg>
