<?xml version="1.0" standalone="no"?>
<!DOCTYPE svg PUBLIC "-//W3C//DTD SVG 1.1//EN" "http://www.w3.org/Graphics/SVG/1.1/DTD/svg11.dtd" >
<svg xmlns="http://www.w3.org/2000/svg" xmlns:xlink="http://www.w3.org/1999/xlink" version="1.1" viewBox="-10 0 1010 1000">
   <path fill="currentColor"
d="M236 49l68 20c-21 66 -48 132 -78 196v692h-71v-560c-29 49 -62 94 -94 134c-7 -18 -27 -57 -39 -76c86 -100 166 -252 214 -406zM315 958l-56 -36c53 -42 89 -116 108 -181l59 23c-22 69 -56 146 -111 194zM488 764l60 -5c16 61 27 137 27 183l-63 7
c1 -46 -9 -124 -24 -185zM634 765l56 -13c27 57 54 132 63 179l-59 14c-9 -46 -35 -123 -60 -180zM779 762l57 -26c44 59 92 140 111 192l-59 30c-19 -52 -66 -135 -109 -196zM440 468v177h84v-177h-84zM440 229v174h84v-174h-84zM801 403v-174h-84v174h84zM577 403h86v-174
h-86v174zM663 468h-86v177h86v-177zM801 645v-177h-84v177h84zM860 645h89v65h-658v-65h93v-177h-80v-65h80v-129c-20 28 -41 55 -63 77c-11 -12 -40 -31 -57 -41c69 -64 128 -165 161 -267l67 17c-13 35 -28 71 -44 105h474v64h-62v174h75v65h-75v177z" />
</svg>
