<?xml version="1.0" standalone="no"?>
<!DOCTYPE svg PUBLIC "-//W3C//DTD SVG 1.1//EN" "http://www.w3.org/Graphics/SVG/1.1/DTD/svg11.dtd" >
<svg xmlns="http://www.w3.org/2000/svg" xmlns:xlink="http://www.w3.org/1999/xlink" version="1.1" viewBox="-10 0 1010 1000">
   <path fill="currentColor"
d="M308 198h125c-12 -34 -38 -80 -63 -114l59 -22c30 35 59 85 70 119l-38 17h121v-155h70v155h84c24 -40 52 -96 67 -137l72 22c-22 40 -45 81 -67 115h122v173h-67v-112h-490v112h-65v-173zM253 47l68 21c-24 71 -54 143 -87 210v677h-69v-552c-28 44 -57 86 -87 122
c-9 -17 -31 -53 -44 -69c88 -100 169 -254 219 -409zM470 390v110h289v-110h-289zM942 702h-234c62 72 158 135 251 167c-16 13 -38 39 -49 57c-96 -40 -195 -116 -258 -201v231h-70v-224c-67 87 -170 163 -266 203c-11 -17 -32 -44 -49 -57c96 -34 198 -102 261 -176h-229
v-65h283v-80h-178v-224h424v224h-176v80h290v65z" />
</svg>
