<?xml version="1.0" standalone="no"?>
<!DOCTYPE svg PUBLIC "-//W3C//DTD SVG 1.1//EN" "http://www.w3.org/Graphics/SVG/1.1/DTD/svg11.dtd" >
<svg xmlns="http://www.w3.org/2000/svg" xmlns:xlink="http://www.w3.org/1999/xlink" version="1.1" viewBox="-10 0 1010 1000">
   <path fill="currentColor"
d="M449 195h-43c-21 42 -43 80 -67 111c-12 -10 -37 -29 -51 -36c50 -56 86 -139 106 -224l60 14c-7 27 -15 54 -25 80h189v55h-107c17 30 32 64 40 86l-57 18c-9 -28 -28 -70 -45 -104zM241 49l65 19c-21 67 -48 134 -77 199v690h-67v-564c-30 51 -62 98 -95 138
c-7 -18 -27 -57 -38 -76c85 -100 164 -252 212 -406zM662 527h-190v84h190v-84zM472 758h190v-92h-190v92zM730 812h-258v50h-67v-389h325v339zM450 347h460s-1 24 -1 34c-14 362 -28 481 -59 520c-18 23 -38 30 -66 33s-72 2 -116 -1c-2 -17 -9 -42 -19 -58
c47 4 87 4 106 4c16 0 26 -2 34 -13c24 -28 37 -144 48 -456h-416c-30 59 -64 114 -100 154c-9 -12 -33 -36 -47 -47c58 -62 106 -153 135 -246l63 17c-7 20 -14 39 -22 59zM725 140h230v55h-136c14 32 29 70 37 94l-58 17c-8 -30 -25 -74 -41 -111h-54
c-18 40 -40 76 -63 106c-10 -11 -36 -29 -50 -37c47 -55 81 -137 101 -221l59 14c-6 28 -15 56 -25 83z" />
</svg>
