<?xml version="1.0" standalone="no"?>
<!DOCTYPE svg PUBLIC "-//W3C//DTD SVG 1.1//EN" "http://www.w3.org/Graphics/SVG/1.1/DTD/svg11.dtd" >
<svg xmlns="http://www.w3.org/2000/svg" xmlns:xlink="http://www.w3.org/1999/xlink" version="1.1" viewBox="-10 0 1010 1000">
   <path fill="currentColor"
d="M611 436h121c24 -34 51 -85 68 -122h-342v-58h205v-73h-158v-56h158v-82h67v82h174v56h-174v73h217v58h-125l44 14c-20 36 -45 76 -66 108h135v56h-203v68h173v55h-173v68h220v57h-220v104h-67v-104h-201v-57h201v-68h-157v-55h157v-68h-190v-56h111
c-9 -29 -28 -68 -46 -99l52 -17c21 32 43 76 53 103zM438 231l-50 44c-21 -37 -66 -93 -104 -132l47 -39c40 39 86 92 107 127zM229 50l64 19c-21 71 -48 142 -78 210v677h-67v-545c-25 44 -52 84 -79 119c-6 -17 -25 -57 -38 -75c82 -100 153 -253 198 -405zM421 430v347
c19 8 37 28 66 50c48 35 111 43 198 43c81 0 204 -5 283 -15c-7 18 -16 52 -17 70c-69 4 -195 8 -266 8c-95 0 -159 -12 -208 -48c-32 -24 -57 -52 -75 -52c-32 0 -80 50 -132 111l-45 -59c44 -44 90 -81 131 -100v-291h-98v-64h163z" />
</svg>
