<?xml version="1.0" standalone="no"?>
<!DOCTYPE svg PUBLIC "-//W3C//DTD SVG 1.1//EN" "http://www.w3.org/Graphics/SVG/1.1/DTD/svg11.dtd" >
<svg xmlns="http://www.w3.org/2000/svg" xmlns:xlink="http://www.w3.org/1999/xlink" version="1.1" viewBox="-10 0 1010 1000">
   <path fill="currentColor"
d="M236 50l68 19c-22 66 -48 132 -78 196v692h-71v-560c-29 49 -62 94 -94 133c-7 -18 -27 -57 -39 -75c86 -100 166 -252 214 -405zM432 672h100v-95h-100v95zM702 577h-105v95h105v-95zM802 858l-54 30c-5 -10 -13 -22 -21 -35c-143 13 -291 24 -397 32l-8 -62
c57 -3 130 -7 210 -13v-87h-159v-197h159v-72h65v72h167v197h-167v83l91 -6c-12 -15 -24 -29 -36 -41l50 -26c39 37 81 90 100 125zM405 138v110h106v-110h-106zM570 138v110h108v-110h-108zM737 138v110h112v-110h-112zM934 380v34c-8 355 -17 472 -43 508
c-16 22 -34 30 -61 33c-25 2 -68 2 -114 -1c-1 -18 -7 -43 -18 -60c45 4 83 4 99 4s25 -2 33 -14c18 -25 27 -132 35 -439h-432c-36 55 -78 104 -120 142c-12 -14 -41 -37 -57 -49c69 -57 134 -141 175 -231h-92v-228h580v228h-411c-10 24 -22 49 -36 73h462z" />
</svg>
