<?xml version="1.0" standalone="no"?>
<!DOCTYPE svg PUBLIC "-//W3C//DTD SVG 1.1//EN" "http://www.w3.org/Graphics/SVG/1.1/DTD/svg11.dtd" >
<svg xmlns="http://www.w3.org/2000/svg" xmlns:xlink="http://www.w3.org/1999/xlink" version="1.1" viewBox="-10 0 1010 1000">
   <path fill="currentColor"
d="M225 49l63 19c-19 65 -44 129 -71 190v699h-66v-567c-29 52 -61 99 -94 140c-6 -17 -25 -57 -37 -75c84 -100 159 -253 205 -406zM413 490h161v-67h-161v67zM413 311v66h161v-66h-161zM810 377v-66h-168v66h168zM810 490v-67h-168v67h168zM923 607v280c0 31 -5 45 -27 55
c-21 9 -55 10 -101 10c-3 -17 -10 -38 -18 -54c33 1 61 1 71 0c10 0 12 -3 12 -12v-222h-218v92l104 -11c-8 -20 -16 -38 -25 -55l50 -17c29 50 56 118 66 162l-54 20c-3 -16 -8 -35 -15 -54c-125 15 -251 30 -344 40l-9 -63c43 -4 98 -9 159 -16v-98h-203v286h-63v-343h266
v-66h-225v-281h527v281h-234v66h281zM768 123h180v59h-180v53h-70v-53h-163v53h-70v-53h-170v-59h170v-74h70v74h163v-74h70v74z" />
</svg>
