<?xml version="1.0" standalone="no"?>
<!DOCTYPE svg PUBLIC "-//W3C//DTD SVG 1.1//EN" "http://www.w3.org/Graphics/SVG/1.1/DTD/svg11.dtd" >
<svg xmlns="http://www.w3.org/2000/svg" xmlns:xlink="http://www.w3.org/1999/xlink" version="1.1" viewBox="-10 0 1010 1000">
   <path fill="currentColor"
d="M543 612l-49 20c-3 -13 -7 -26 -13 -43c-172 33 -199 40 -214 50c-2 -14 -12 -45 -19 -61c19 -5 38 -30 64 -67c13 -18 42 -60 74 -115c-94 8 -114 13 -125 19c-4 -14 -13 -46 -20 -63c15 -4 29 -25 46 -55c19 -30 77 -144 110 -252l58 26c-36 96 -83 193 -130 270l94 -6
c23 -42 46 -89 65 -134l53 29c-56 115 -124 232 -193 326l119 -20c-10 -29 -22 -60 -34 -86l47 -17c27 57 56 134 67 179zM218 45l61 19c-20 71 -48 143 -78 209v682h-60v-565c-24 40 -49 79 -75 111c-6 -17 -24 -55 -35 -73c79 -94 146 -237 187 -383zM278 682l51 10
c-11 85 -27 178 -47 240c-11 -7 -36 -16 -50 -20c22 -61 37 -149 46 -230zM362 692l48 -12c12 68 23 154 26 212l-51 13c-2 -58 -12 -146 -23 -213zM447 675l46 -15c22 60 46 140 56 192l-48 17c-9 -52 -34 -133 -54 -194zM639 332v90h200v-90h-200zM639 189v89h200v-89
h-200zM917 537v278c0 27 -4 42 -22 52c-17 10 -43 11 -80 11c-2 -16 -10 -38 -18 -53h54c8 0 10 -2 10 -10v-211h-91v345h-56v-345h-86v290h-57v-357h143v-57h-134v-349h105c12 -28 24 -64 29 -88l62 12c-11 26 -23 53 -34 76h158v349h-130v57h147z" />
</svg>
