<?xml version="1.0" standalone="no"?>
<!DOCTYPE svg PUBLIC "-//W3C//DTD SVG 1.1//EN" "http://www.w3.org/Graphics/SVG/1.1/DTD/svg11.dtd" >
<svg xmlns="http://www.w3.org/2000/svg" xmlns:xlink="http://www.w3.org/1999/xlink" version="1.1" viewBox="-10 0 1010 1000">
   <path fill="currentColor"
d="M909 450v247h-304c41 31 86 71 110 97l-45 43c-29 -35 -85 -87 -128 -120l24 -20h-216v-48h492v-52h-474v-46h474v-52h-492v-49h559zM951 355v49h-637v-49h282v-55h-227v-49h75c-11 -24 -30 -55 -50 -78l55 -23c21 24 43 58 53 79l-45 22h161c-9 -25 -28 -64 -45 -92
l54 -19c18 28 39 66 48 90l-49 21h105c31 -36 59 -81 81 -122l56 17c-20 34 -44 73 -66 105h102v49h-240v55h287zM876 45l46 50c-147 33 -379 53 -571 59c-2 -15 -11 -37 -17 -52c190 -8 419 -27 542 -57zM260 47l66 21c-28 76 -62 154 -101 224v663h-69v-549
c-27 40 -56 76 -84 109c-7 -17 -28 -54 -40 -71c91 -97 176 -246 228 -397zM332 930l-57 -25c28 -46 60 -118 79 -167l54 25c-20 49 -49 121 -76 167zM558 885h162c33 0 39 -9 42 -73c15 9 41 18 59 22c-7 87 -28 108 -94 108h-175c-91 0 -114 -17 -114 -83v-125h66v124
c0 23 8 27 54 27zM792 753l52 -28c46 51 99 122 122 167l-55 32c-22 -46 -74 -118 -119 -171z" />
</svg>
