<?xml version="1.0" standalone="no"?>
<!DOCTYPE svg PUBLIC "-//W3C//DTD SVG 1.1//EN" "http://www.w3.org/Graphics/SVG/1.1/DTD/svg11.dtd" >
<svg xmlns="http://www.w3.org/2000/svg" xmlns:xlink="http://www.w3.org/1999/xlink" version="1.1" viewBox="-10 0 1010 1000">
   <path fill="currentColor"
d="M847 258v-127h-210v-58h278v349h-68v-108c-65 32 -131 65 -183 87l-17 -57c50 -20 126 -53 200 -86zM795 242l-39 39c-20 -27 -59 -63 -91 -86l38 -36c30 20 71 55 92 83zM333 415l-17 -57c51 -21 129 -56 206 -91v-136h-198v-58h264v343h-66v-95c-67 34 -136 68 -189 94
zM478 244l-40 38c-19 -27 -59 -64 -91 -86l37 -36c31 21 72 56 94 84zM236 49l68 19c-21 69 -47 138 -76 205v684h-71v-546c-25 44 -53 84 -80 119c-7 -17 -27 -57 -40 -75c82 -101 155 -253 199 -406zM442 787v73h187v-73h-187zM629 617v-68h-187v68h187zM629 736v-67h-187
v67h187zM947 860v57h-505v39h-67v-333c-18 24 -38 47 -57 67c-13 -13 -35 -34 -50 -45c66 -65 133 -168 166 -248l68 24c-11 22 -24 47 -38 70h177c-9 -23 -22 -49 -33 -69l60 -21c17 27 35 63 46 90h211v58h-226v68h193v52h-193v67h193v51h-193v73h248z" />
</svg>
