<?xml version="1.0" standalone="no"?>
<!DOCTYPE svg PUBLIC "-//W3C//DTD SVG 1.1//EN" "http://www.w3.org/Graphics/SVG/1.1/DTD/svg11.dtd" >
<svg xmlns="http://www.w3.org/2000/svg" xmlns:xlink="http://www.w3.org/1999/xlink" version="1.1" viewBox="-10 0 1010 1000">
   <path fill="currentColor"
d="M258 47l64 22c-28 78 -62 156 -101 228v658h-64v-550c-27 41 -56 78 -84 112c-7 -18 -27 -56 -39 -73c90 -97 174 -246 224 -397zM720 731h114v-88h-114v88zM549 731h109v-88h-109v88zM382 731h105v-88h-105v88zM906 585v301c0 32 -6 48 -29 59c-22 10 -57 11 -104 11
c-4 -18 -15 -42 -24 -58c35 1 62 1 72 0s13 -3 13 -12v-99h-114v161h-62v-161h-109v161h-62v-161h-105v169h-68v-371h592zM431 315v-59h350v59h-350zM774 414v84h77v-84h-77zM727 546v-180h172v180h-172zM570 414v84h73v-84h-73zM692 546h-170v-180h170v180zM366 414v84h69
v-84h-69zM319 546v-180h164v180h-164zM588 49l74 17c-6 7 -11 13 -17 20c72 57 204 112 310 139c-15 14 -36 40 -47 58c-101 -32 -226 -91 -306 -155c-75 64 -174 119 -300 163c-8 -17 -27 -43 -41 -55c156 -46 268 -118 327 -187z" />
</svg>
