<?xml version="1.0" standalone="no"?>
<!DOCTYPE svg PUBLIC "-//W3C//DTD SVG 1.1//EN" "http://www.w3.org/Graphics/SVG/1.1/DTD/svg11.dtd" >
<svg xmlns="http://www.w3.org/2000/svg" xmlns:xlink="http://www.w3.org/1999/xlink" version="1.1" viewBox="-10 0 1010 1000">
   <path fill="currentColor"
d="M880 221l-55 20c-10 -36 -33 -95 -54 -139l53 -16c22 42 46 100 56 135zM276 138h148c-7 -24 -19 -54 -31 -76l54 -15c16 27 32 66 38 89l-6 2h144v62h-347v-62zM537 389l-31 30c-14 -18 -34 -40 -55 -62c-26 27 -54 52 -82 71c-4 -9 -18 -28 -28 -36
c27 -18 55 -40 78 -66c-19 -19 -41 -39 -60 -55l31 -26c19 15 38 32 57 50c18 -22 33 -46 44 -71l42 11c-14 32 -33 62 -55 90c24 23 45 47 59 64zM215 50l67 16c-18 68 -42 137 -68 203v686h-62v-551c-25 46 -50 88 -76 124c-7 -16 -27 -55 -41 -72
c76 -101 141 -253 180 -406zM721 700v145h83v-145h-83zM804 442v-140h-83v140h83zM804 642v-142h-83v142h83zM953 845v60h-232v52h-55v-574c-11 22 -23 42 -35 61c-7 -13 -22 -35 -32 -48v99h-116c-5 24 -10 47 -16 71h150v320c0 29 -5 44 -26 54c-20 9 -51 10 -98 10
c-2 -16 -12 -37 -20 -52c37 1 68 1 78 0c11 0 13 -3 13 -12v-259h-114c-12 44 -28 85 -43 121l81 -16c-9 -20 -19 -40 -29 -58l35 -13c26 45 53 106 62 142l-36 18c-4 -14 -9 -31 -16 -48c-106 25 -127 32 -138 40c-4 -12 -11 -38 -17 -52c11 -3 20 -23 29 -52
c5 -13 15 -43 24 -82h-76v328h-54v-389h144c4 -23 9 -47 12 -71h-141v-262h53v207h205v-207h54v158c57 -92 95 -233 114 -340l61 13c-13 55 -30 118 -50 178h220v60h-86v140h83v58h-83v142h84v58h-84v145h95z" />
</svg>
