<?xml version="1.0" standalone="no"?>
<!DOCTYPE svg PUBLIC "-//W3C//DTD SVG 1.1//EN" "http://www.w3.org/Graphics/SVG/1.1/DTD/svg11.dtd" >
<svg xmlns="http://www.w3.org/2000/svg" xmlns:xlink="http://www.w3.org/1999/xlink" version="1.1" viewBox="-10 0 1010 1000">
   <path fill="currentColor"
d="M721 129h-236c-7 15 -12 29 -19 43h242c5 -15 9 -29 13 -43zM693 214h-316c24 -47 53 -115 75 -171l64 11c-4 10 -9 21 -13 33h236l11 -4l44 11c-14 53 -33 109 -52 160h173v48h-318c-5 4 -11 7 -17 10c34 25 60 55 78 86c54 -23 118 -56 158 -78l43 36
c-38 20 -83 40 -126 58c40 65 119 116 211 137c-11 10 -27 28 -34 42c-96 -29 -176 -88 -220 -164l-16 6c25 68 14 134 -19 163c-21 21 -43 25 -69 26c-15 0 -32 0 -50 -1c-1 -16 -6 -38 -14 -55c20 3 40 4 52 4c13 0 25 -1 34 -10c18 -14 27 -51 18 -93
c-77 59 -199 114 -305 141c-7 -13 -19 -32 -31 -42c115 -23 253 -82 321 -142c-5 -11 -12 -22 -21 -34c-72 46 -187 93 -276 119c-6 -12 -18 -29 -29 -39c92 -19 213 -65 279 -108c-10 -10 -20 -19 -32 -28c-69 34 -151 59 -223 78c-5 -9 -21 -30 -31 -39
c79 -17 167 -42 237 -73h-230v-48h394c4 -13 9 -26 14 -40zM223 46l64 17c-20 67 -44 133 -73 197v695h-64v-570c-25 42 -50 81 -77 115c-6 -17 -24 -54 -36 -72c79 -94 145 -236 186 -382zM329 760h73v-72h-73v72zM527 688h-70v72h70v-72zM488 829l46 -16
c28 38 56 88 68 122l-48 19c-4 -11 -9 -23 -16 -37c-101 8 -200 15 -279 21l-8 -56c42 -2 94 -4 151 -7v-68h-123v-166h123v-43h55v43h122v166h-122v65l55 -4c-7 -14 -15 -27 -24 -39zM660 760h75v-72h-75v72zM861 688h-71v72h71v-72zM949 938l-47 19
c-5 -14 -12 -29 -19 -46c-97 9 -193 15 -270 20l-8 -55c37 -1 81 -4 130 -7v-62h-125v-166h125v-43h55v43h124v166h-124v60l66 -4c-8 -13 -16 -26 -24 -37l45 -16c29 39 60 93 72 128z" />
</svg>
