<?xml version="1.0" standalone="no"?>
<!DOCTYPE svg PUBLIC "-//W3C//DTD SVG 1.1//EN" "http://www.w3.org/Graphics/SVG/1.1/DTD/svg11.dtd" >
<svg xmlns="http://www.w3.org/2000/svg" xmlns:xlink="http://www.w3.org/1999/xlink" version="1.1" viewBox="-10 0 1010 1000">
   <path fill="currentColor"
d="M657 383v-199h-187v-68h448v68h-189v199h173v67h-173v226h215v67h-498v-67h211v-226h-165v-67h165zM434 109v68h-349v-68h349zM481 866h328c67 0 79 -18 86 -100c18 11 48 22 69 26c-13 108 -39 139 -152 139h-329c-141 0 -180 -25 -180 -126v-410h-79
c-4 271 -21 442 -146 552c-10 -18 -34 -43 -51 -54c113 -95 125 -248 129 -498h-104v-68h418v68h-96v410c0 49 16 61 107 61z" />
</svg>
