<?xml version="1.0" standalone="no"?>
<!DOCTYPE svg PUBLIC "-//W3C//DTD SVG 1.1//EN" "http://www.w3.org/Graphics/SVG/1.1/DTD/svg11.dtd" >
<svg xmlns="http://www.w3.org/2000/svg" xmlns:xlink="http://www.w3.org/1999/xlink" version="1.1" viewBox="-10 0 1010 1000">
   <path fill="currentColor"
d="M952 614l-53 43c-26 -40 -73 -94 -124 -143c16 111 0 213 -36 251c-25 29 -50 38 -90 39c-18 0 -44 -1 -71 -2c-1 -19 -6 -45 -16 -63c29 4 56 4 74 4c21 0 36 -2 52 -21c23 -24 35 -99 26 -186c-69 73 -172 144 -261 184c-9 -17 -24 -40 -37 -53
c103 -37 223 -120 286 -201c-5 -23 -11 -48 -20 -70c-59 53 -144 108 -214 142c-8 -15 -24 -38 -37 -50c78 -28 175 -86 228 -141c-11 -21 -25 -42 -40 -60c-41 32 -85 60 -129 81c-8 -12 -26 -38 -38 -51c79 -34 160 -88 211 -152h-188v-63h467v63h-207
c-21 30 -46 59 -75 86c35 37 61 82 81 130c45 -41 95 -94 126 -135l58 37c-46 50 -104 105 -154 146c70 57 144 131 181 185zM416 94v68h-327v-68h327zM470 875h333c67 0 79 -18 87 -104c16 10 45 21 64 25c-12 111 -37 143 -149 143h-332c-137 0 -177 -24 -177 -124v-429
h-77c-5 247 -22 451 -132 570c-8 -15 -30 -37 -46 -48c98 -104 109 -295 112 -522h-100v-68h386v68h-76v429c0 48 15 60 107 60z" />
</svg>
