<?xml version="1.0" standalone="no"?>
<!DOCTYPE svg PUBLIC "-//W3C//DTD SVG 1.1//EN" "http://www.w3.org/Graphics/SVG/1.1/DTD/svg11.dtd" >
<svg xmlns="http://www.w3.org/2000/svg" xmlns:xlink="http://www.w3.org/1999/xlink" version="1.1" viewBox="-10 0 1010 1000">
   <path fill="currentColor"
d="M758 443l14 -3l50 27c-111 287 -388 428 -675 485c-7 -20 -22 -49 -36 -66c131 -21 261 -64 371 -131c-47 -46 -118 -105 -177 -146l58 -36c58 40 130 95 181 141c73 -56 135 -124 177 -206h-352c-67 73 -150 132 -236 175c-11 -14 -37 -43 -54 -55
c138 -61 261 -163 324 -292l72 21c-15 30 -32 59 -53 86h336zM374 88l39 -55c235 92 252 283 544 349c-9 17 -21 50 -23 70c-237 -55 -307 -199 -439 -298c-96 124 -257 234 -416 286c-9 -19 -27 -44 -43 -61c157 -42 315 -144 405 -260c-21 -12 -42 -22 -67 -31z" />
</svg>
