<?xml version="1.0" standalone="no"?>
<!DOCTYPE svg PUBLIC "-//W3C//DTD SVG 1.1//EN" "http://www.w3.org/Graphics/SVG/1.1/DTD/svg11.dtd" >
<svg xmlns="http://www.w3.org/2000/svg" xmlns:xlink="http://www.w3.org/1999/xlink" version="1.1" viewBox="-10 0 1010 1000">
   <path fill="currentColor"
d="M247 822h504v-136h-504v136zM751 493h-504v133h504v-133zM346 98l36 -54c251 92 267 288 575 354c-9 16 -21 48 -22 66c-41 -8 -78 -19 -110 -32v521h-74v-64h-504v67h-71v-530h635c-140 -61 -211 -159 -306 -237c-111 115 -272 217 -425 281c-13 -17 -33 -40 -53 -56
c156 -57 323 -154 427 -263c-31 -21 -67 -40 -108 -53z" />
</svg>
