<?xml version="1.0" standalone="no"?>
<!DOCTYPE svg PUBLIC "-//W3C//DTD SVG 1.1//EN" "http://www.w3.org/Graphics/SVG/1.1/DTD/svg11.dtd" >
<svg xmlns="http://www.w3.org/2000/svg" xmlns:xlink="http://www.w3.org/1999/xlink" version="1.1" viewBox="-10 0 1010 1000">
   <path fill="currentColor"
d="M772 398v-125h-537v125h537zM772 597v-127h-537v127h537zM859 201v468h-707v-468h255c19 -48 41 -110 53 -155l94 16c-20 48 -42 97 -64 139h369zM352 680l72 46c-72 82 -187 173 -286 231c-12 -17 -37 -43 -54 -59c97 -54 210 -146 268 -218zM586 733l57 -49
c91 65 216 159 281 218l-62 57c-59 -59 -183 -157 -276 -226z" />
</svg>
