<?xml version="1.0" standalone="no"?>
<!DOCTYPE svg PUBLIC "-//W3C//DTD SVG 1.1//EN" "http://www.w3.org/Graphics/SVG/1.1/DTD/svg11.dtd" >
<svg xmlns="http://www.w3.org/2000/svg" xmlns:xlink="http://www.w3.org/1999/xlink" version="1.1" viewBox="-10 0 1010 1000">
   <path fill="currentColor"
d="M239 557l48 -23c70 82 138 193 166 268l-53 27c-12 -38 -37 -85 -65 -134c-24 62 -60 114 -102 152c-9 -8 -30 -26 -41 -32c52 -42 88 -104 108 -175c-20 -30 -41 -57 -61 -83zM803 791l-52 28c-14 -39 -39 -86 -67 -134c-25 60 -59 112 -101 149c-8 -8 -29 -25 -41 -32
c51 -42 86 -102 105 -172c-19 -29 -39 -56 -60 -80l49 -25c70 81 139 191 167 266zM334 197v88h328v-88h-328zM732 346h-200v71h362v451c0 41 -9 60 -39 71c-31 12 -82 12 -156 12c-3 -19 -15 -46 -25 -65c59 2 112 2 127 1c16 -1 20 -5 20 -19v-385h-289v465h-71v-465h-281
v473h-72v-539h353v-71h-195v-149h-208v-73h208v-81h68v81h328v-81h70v81h214v73h-214v149z" />
</svg>
