<?xml version="1.0" standalone="no"?>
<!DOCTYPE svg PUBLIC "-//W3C//DTD SVG 1.1//EN" "http://www.w3.org/Graphics/SVG/1.1/DTD/svg11.dtd" >
<svg xmlns="http://www.w3.org/2000/svg" xmlns:xlink="http://www.w3.org/1999/xlink" version="1.1" viewBox="-10 0 1010 1000">
   <path fill="currentColor"
d="M215 134v211h-70v-265h711v264h-73v-210h-568zM729 187v46h-457v-46h457zM272 333v-46h457v46h-457zM231 582h169s0 19 -1 28c-8 202 -17 276 -38 301c-15 17 -30 23 -53 25c-20 2 -55 2 -89 0c-2 -18 -9 -42 -17 -58c33 3 63 4 76 4c11 0 19 -2 26 -10
c13 -15 21 -75 28 -233h-107c-16 129 -52 241 -136 315c-9 -14 -31 -34 -47 -43c100 -87 119 -242 125 -411h-113v-58h173c-10 -25 -25 -53 -41 -74l62 -21c23 29 44 69 54 95h131v58h-196c-2 28 -3 56 -6 82zM938 478h-397c-25 43 -54 82 -85 112c-12 -10 -39 -31 -55 -40
c55 -49 98 -122 124 -198l67 14c-6 19 -14 37 -22 55h368v57zM645 883h199c42 0 49 -12 53 -83c16 9 42 17 61 21c-9 93 -30 118 -109 118h-207c-99 0 -126 -18 -126 -91v-155l-78 19l-18 -54l96 -23v-94h65v80l94 -23v-96h63v82l118 -28l3 -2l12 -9l46 17l-3 10
c-2 81 -4 150 -8 173c-5 24 -20 38 -44 43c-20 5 -51 5 -73 4c-2 -16 -8 -37 -16 -50c18 0 43 1 50 1c12 0 18 -3 21 -15c3 -9 4 -53 5 -113l-111 25v189h-63v-173l-94 21v171c0 29 9 35 64 35z" />
</svg>
