<?xml version="1.0" standalone="no"?>
<!DOCTYPE svg PUBLIC "-//W3C//DTD SVG 1.1//EN" "http://www.w3.org/Graphics/SVG/1.1/DTD/svg11.dtd" >
<svg xmlns="http://www.w3.org/2000/svg" xmlns:xlink="http://www.w3.org/1999/xlink" version="1.1" viewBox="-10 0 1010 1000">
   <path fill="currentColor"
d="M287 274l-61 45c-29 -54 -99 -140 -157 -201l57 -39c58 59 129 141 161 195zM119 915l-62 -49c51 -78 125 -212 181 -328l54 48c-50 107 -116 234 -173 329zM946 127v72h-191v647c0 49 -13 74 -47 86c-36 13 -98 14 -192 14c-4 -20 -16 -56 -29 -76c74 3 146 3 167 1
c20 -1 27 -7 27 -26v-646h-354v-72h619z" />
</svg>
