<?xml version="1.0" standalone="no"?>
<!DOCTYPE svg PUBLIC "-//W3C//DTD SVG 1.1//EN" "http://www.w3.org/Graphics/SVG/1.1/DTD/svg11.dtd" >
<svg xmlns="http://www.w3.org/2000/svg" xmlns:xlink="http://www.w3.org/1999/xlink" version="1.1" viewBox="-10 0 1010 1000">
   <path fill="currentColor"
d="M273 273l-62 45c-29 -53 -98 -139 -155 -199l55 -40c58 59 130 141 162 194zM106 914l-64 -49c51 -78 125 -211 181 -327l55 47c-50 108 -116 234 -172 329zM950 496h-276c46 189 139 335 294 402c-17 14 -40 41 -50 61c-145 -71 -237 -204 -290 -382
c-33 132 -112 270 -293 382c-12 -17 -37 -42 -56 -55c210 -119 272 -273 290 -408h-264v-72h270c1 -23 1 -46 1 -67v-173c-74 10 -150 18 -220 23c-3 -18 -14 -46 -23 -63c181 -15 396 -44 510 -85l63 56c-69 24 -159 44 -255 59v184c0 21 0 43 -2 66h301v72z" />
</svg>
