<?xml version="1.0" standalone="no"?>
<!DOCTYPE svg PUBLIC "-//W3C//DTD SVG 1.1//EN" "http://www.w3.org/Graphics/SVG/1.1/DTD/svg11.dtd" >
<svg xmlns="http://www.w3.org/2000/svg" xmlns:xlink="http://www.w3.org/1999/xlink" version="1.1" viewBox="-10 0 1010 1000">
   <path fill="currentColor"
d="M447 806v-252h-288v252h288zM331 44v179h227v71h-227v190h189v446h-73v-53h-288v63h-72v-456h171v-440h73zM695 150v551h-68v-551h68zM835 50h72v803c0 47 -12 67 -40 80c-30 12 -78 14 -159 14c-3 -21 -14 -52 -24 -72c59 1 112 1 128 0c16 0 23 -6 23 -22v-803z" />
</svg>
