<?xml version="1.0" standalone="no"?>
<!DOCTYPE svg PUBLIC "-//W3C//DTD SVG 1.1//EN" "http://www.w3.org/Graphics/SVG/1.1/DTD/svg11.dtd" >
<svg xmlns="http://www.w3.org/2000/svg" xmlns:xlink="http://www.w3.org/1999/xlink" version="1.1" viewBox="-10 0 1010 1000">
   <path fill="currentColor"
d="M450 625h-267v219h267v-219zM114 954v-397h408v393h-72v-38h-267v42h-69zM350 44v134h216v69h-216v149h193v69h-454v-69h188v-149h-217v-69h217v-134h73zM709 154v549h-68v-549h68zM841 49h69v803c0 50 -13 73 -42 84c-32 13 -83 15 -171 15c-3 -20 -15 -54 -24 -75
c66 2 126 1 144 1c17 -1 24 -6 24 -25v-803z" />
</svg>
