<?xml version="1.0" standalone="no"?>
<!DOCTYPE svg PUBLIC "-//W3C//DTD SVG 1.1//EN" "http://www.w3.org/Graphics/SVG/1.1/DTD/svg11.dtd" >
<svg xmlns="http://www.w3.org/2000/svg" xmlns:xlink="http://www.w3.org/1999/xlink" version="1.1" viewBox="-10 0 1010 1000">
   <path fill="currentColor"
d="M472 830v-179h-295v179h295zM491 387l49 25c-43 56 -97 121 -147 179h148v342h-69v-43h-295v51h-67v-350h257l-41 -20c34 -37 71 -80 100 -118h-334v-62h388zM413 345l-53 42c-23 -31 -68 -81 -104 -116l52 -35c38 34 83 80 105 109zM319 35l62 25c-7 11 -14 21 -21 32
c76 56 171 129 220 175l-40 54c-49 -47 -143 -123 -219 -181c-70 80 -159 150 -243 198c-9 -15 -32 -43 -46 -57c111 -56 223 -145 287 -246zM715 155v548h-68v-548h68zM841 49l69 1v803c0 49 -13 72 -42 83c-31 13 -82 15 -168 15c-3 -20 -15 -54 -26 -75c66 2 126 1 143 1
c17 -1 24 -6 24 -24v-804z" />
</svg>
