<?xml version="1.0" standalone="no"?>
<!DOCTYPE svg PUBLIC "-//W3C//DTD SVG 1.1//EN" "http://www.w3.org/Graphics/SVG/1.1/DTD/svg11.dtd" >
<svg xmlns="http://www.w3.org/2000/svg" xmlns:xlink="http://www.w3.org/1999/xlink" version="1.1" viewBox="-10 0 1010 1000">
   <path fill="currentColor"
d="M141 285l63 5c-4 41 -9 79 -17 116c32 43 65 95 81 129l-41 55c-11 -29 -35 -72 -58 -109c-20 57 -46 106 -81 145c-11 -11 -34 -32 -49 -42c66 -69 91 -173 102 -299zM359 246v164c0 62 -3 125 -13 185c79 89 183 208 233 278l-57 51c-41 -63 -123 -164 -197 -248
c-34 108 -103 204 -242 281c-10 -17 -31 -43 -47 -55c228 -124 254 -305 254 -492v-164h-232v-66h232v-132h69v132h238v66h-238zM467 282l64 5c-4 44 -10 85 -19 124c38 51 77 114 95 155l-42 48c-15 -35 -44 -86 -73 -131c-19 52 -45 97 -78 133c-10 -10 -34 -33 -49 -43
c66 -66 92 -168 102 -291zM727 154v548h-65v-548h65zM849 48h67v809c0 48 -12 69 -38 82c-29 12 -76 15 -155 14c-4 -20 -14 -52 -24 -73c60 2 112 2 128 1s22 -6 22 -23v-810z" />
</svg>
