<?xml version="1.0" standalone="no"?>
<!DOCTYPE svg PUBLIC "-//W3C//DTD SVG 1.1//EN" "http://www.w3.org/Graphics/SVG/1.1/DTD/svg11.dtd" >
<svg xmlns="http://www.w3.org/2000/svg" xmlns:xlink="http://www.w3.org/1999/xlink" version="1.1" viewBox="-10 0 1010 1000">
   <path fill="currentColor"
d="M762 155v550h-63v-550h63zM563 152h-374v90h374v-90zM632 300h-443v80c0 162 -12 404 -95 567c-12 -13 -41 -34 -57 -42c76 -154 84 -371 84 -524v-287h511v206zM292 567h109v-73h-109v73zM559 494h-103v73h103v-73zM649 661v235c0 29 -5 42 -26 51c-20 9 -53 8 -102 8
c-3 -14 -11 -33 -18 -47c36 1 66 1 76 1s13 -3 13 -13v-180h-136v83l57 -3c-9 -16 -19 -33 -28 -48l33 -11c28 41 55 94 66 130l-35 13c-3 -11 -9 -24 -15 -38c-88 6 -174 12 -244 17l-6 -53c33 -1 73 -3 117 -5v-85h-134v237h-60v-292h194v-47h-163v-167h163v-55
c-56 5 -113 8 -166 9c-2 -13 -9 -33 -16 -47c126 -5 278 -20 361 -39l44 45c-47 12 -105 20 -168 27v60h160v167h-160v47h193zM847 63h68v799c0 47 -12 68 -39 81c-29 12 -76 14 -156 14c-3 -20 -13 -52 -23 -73c59 2 112 2 127 1c17 -1 23 -6 23 -23v-799z" />
</svg>
