<?xml version="1.0" standalone="no"?>
<!DOCTYPE svg PUBLIC "-//W3C//DTD SVG 1.1//EN" "http://www.w3.org/Graphics/SVG/1.1/DTD/svg11.dtd" >
<svg xmlns="http://www.w3.org/2000/svg" xmlns:xlink="http://www.w3.org/1999/xlink" version="1.1" viewBox="-10 0 1010 1000">
   <path fill="currentColor"
d="M416 205h-134c-22 138 -74 240 -204 303c-9 -17 -28 -43 -43 -55c114 -52 160 -135 181 -248h-147v-66h155c3 -30 5 -63 7 -96h67c-2 33 -4 66 -7 96h197s0 20 -1 30c-11 190 -22 262 -45 288c-14 17 -31 24 -56 26c-21 2 -60 2 -98 -1c-1 -18 -8 -44 -18 -61
c38 4 72 4 86 4c13 0 21 -2 28 -10c13 -14 23 -70 32 -210zM796 727c2 -81 -143 -123 -289 -124c-147 -1 -290 43 -293 127c-2 83 141 129 295 129s286 -54 287 -132zM502 534c185 0 375 65 370 196c-3 131 -173 198 -368 198c-196 -1 -376 -76 -371 -201s184 -193 369 -193
zM841 401v-217h-209v217h209zM562 120h352v345h-352v-345z" />
</svg>
