<?xml version="1.0" standalone="no"?>
<!DOCTYPE svg PUBLIC "-//W3C//DTD SVG 1.1//EN" "http://www.w3.org/Graphics/SVG/1.1/DTD/svg11.dtd" >
<svg xmlns="http://www.w3.org/2000/svg" xmlns:xlink="http://www.w3.org/1999/xlink" version="1.1" viewBox="-10 0 1010 1000">
   <path fill="currentColor"
d="M503 210h-311c-30 71 -66 136 -105 185c-12 -11 -41 -33 -57 -44c66 -75 115 -189 143 -308l69 15c-8 28 -16 58 -26 85h287v67zM461 357h-292v-66h292v66zM78 447h367c-1 176 8 390 37 398c10 4 18 -66 20 -146c15 15 34 33 46 39c-3 145 -33 193 -90 174
c-71 -21 -82 -225 -84 -398h-296v-67zM926 269v36c-11 419 -21 558 -51 600c-19 25 -37 33 -65 36c-26 4 -68 3 -113 0c-2 -21 -9 -50 -20 -70c45 3 85 4 104 4c14 0 23 -2 32 -16c22 -28 34 -157 44 -521h-137c-10 263 -40 466 -147 625c-11 -12 -45 -38 -61 -48
c103 -137 134 -333 141 -577h-125v-69h127c1 -69 0 -141 -1 -216h70c0 75 -1 148 -2 216h204z" />
</svg>
