<?xml version="1.0" standalone="no"?>
<!DOCTYPE svg PUBLIC "-//W3C//DTD SVG 1.1//EN" "http://www.w3.org/Graphics/SVG/1.1/DTD/svg11.dtd" >
<svg xmlns="http://www.w3.org/2000/svg" xmlns:xlink="http://www.w3.org/1999/xlink" version="1.1" viewBox="-10 0 1010 1000">
   <path fill="currentColor"
d="M417 218h-131c-21 157 -72 275 -206 347c-10 -17 -30 -42 -46 -54c121 -61 166 -160 184 -293h-150v-66h157c3 -34 5 -71 6 -109h68c-2 38 -4 75 -6 109h198s-1 21 -2 32c-12 223 -24 303 -50 332c-15 19 -32 26 -57 28c-22 2 -61 2 -101 0c-1 -19 -8 -46 -17 -64
c37 4 71 4 86 4c15 1 23 -1 30 -11c15 -17 27 -84 37 -255zM87 680v-66h776v336h-72v-270h-704zM838 442v-242h-206v242h206zM562 136h349v370h-349v-370z" />
</svg>
