<?xml version="1.0" standalone="no"?>
<!DOCTYPE svg PUBLIC "-//W3C//DTD SVG 1.1//EN" "http://www.w3.org/Graphics/SVG/1.1/DTD/svg11.dtd" >
<svg xmlns="http://www.w3.org/2000/svg" xmlns:xlink="http://www.w3.org/1999/xlink" version="1.1" viewBox="-10 0 1010 1000">
   <path fill="currentColor"
d="M423 388l-34 36c-18 -19 -43 -44 -72 -69c-35 31 -72 58 -107 79c-7 -9 -24 -30 -35 -40c35 -19 71 -43 104 -71c-27 -21 -56 -42 -82 -60l32 -31c28 18 57 38 85 60c25 -24 47 -49 64 -75l47 15c-19 31 -45 62 -73 90c28 24 54 46 71 66zM450 448v-243h-293v243h293z
M516 146v360h-423v-360h138c15 -32 32 -74 39 -103l75 13c-15 31 -33 63 -48 90h219zM180 851l109 -36c0 18 3 44 5 58c-142 54 -166 65 -179 76c-6 -16 -23 -46 -33 -60c13 -11 35 -35 35 -78v-275h63v97h116v59h-116v159zM393 839l116 -51c1 18 6 43 10 58
c-154 73 -178 87 -191 100v-1l-1 1c-6 -16 -21 -47 -33 -61c15 -11 36 -35 36 -77v-276h63v100h124v58h-124v149zM926 274v36c-13 418 -23 554 -53 596c-17 23 -34 32 -61 35c-24 4 -63 2 -102 0c-2 -20 -8 -48 -19 -67c41 3 76 3 91 3c16 1 25 -2 32 -15
c22 -29 33 -157 44 -521h-95c-3 202 -30 434 -181 626c-10 -14 -35 -36 -52 -45c141 -179 165 -395 168 -581h-117v-67h118v-220h65v220h162z" />
</svg>
