<?xml version="1.0" standalone="no"?>
<!DOCTYPE svg PUBLIC "-//W3C//DTD SVG 1.1//EN" "http://www.w3.org/Graphics/SVG/1.1/DTD/svg11.dtd" >
<svg xmlns="http://www.w3.org/2000/svg" xmlns:xlink="http://www.w3.org/1999/xlink" version="1.1" viewBox="-10 0 1010 1000">
   <path fill="currentColor"
d="M461 227v-90h-109v90h109zM461 371v-91h-109v91h109zM181 280v91h115v-91h-115zM181 137v90h115v-90h-115zM524 81v346h-404v-346h404zM164 543h-51v125h51v-125zM254 668v-125h-49v125h49zM205 848h49v-128h-49v128zM113 848h51v-128h-51v128zM66 938v-447h236v441h-48
v-31h-141v37h-47zM482 844h50v-124h-50v124zM388 720v124h53v-124h-53zM441 543h-53v125h53v-125zM532 668v-125h-50v125h50zM938 275v35c-10 423 -18 560 -47 602c-18 24 -36 32 -63 35c-28 3 -71 3 -115 0c-1 -20 -8 -48 -18 -66c45 4 86 4 103 4c15 0 25 -3 34 -16
c21 -28 31 -157 39 -525h-115c-11 248 -42 470 -149 613c-11 -16 -38 -37 -56 -47l9 -13h-172v33h-47v-439h239v376c77 -130 101 -317 109 -523h-116v-69h119c2 -74 2 -151 2 -227h67c0 76 -1 153 -3 227h180z" />
</svg>
