<?xml version="1.0" standalone="no"?>
<!DOCTYPE svg PUBLIC "-//W3C//DTD SVG 1.1//EN" "http://www.w3.org/Graphics/SVG/1.1/DTD/svg11.dtd" >
<svg xmlns="http://www.w3.org/2000/svg" xmlns:xlink="http://www.w3.org/1999/xlink" version="1.1" viewBox="-10 0 1010 1000">
   <path fill="currentColor"
d="M277 678h-98v67h98v-67zM433 745v-67h-100v67h100zM333 862h100v-69h-100v69zM179 862h98v-69h-98v69zM119 944v-320h376v317h-62v-27h-254v30h-60zM472 194h-346v92h-58v-152h214c-11 -25 -29 -58 -47 -81l56 -21c22 28 46 65 57 90l-28 12h212v151h-60v-91zM526 482
h-117c40 31 81 65 104 89l-40 39c-30 -32 -87 -82 -138 -121v111h-59v-116c-53 64 -138 125 -212 157c-9 -16 -26 -39 -39 -52c63 -21 133 -62 184 -107h-127v-59h102c-8 -24 -25 -54 -41 -78l45 -22c21 25 41 62 50 86l-25 14h63v-117c-46 5 -93 8 -134 9
c-1 -14 -9 -35 -16 -49c102 -6 232 -21 300 -43l33 49c-34 11 -77 20 -124 27v124h32c21 -34 45 -84 58 -118l54 24c-18 33 -37 66 -55 94h102v59zM922 280v37c-13 405 -24 541 -55 585c-18 26 -37 35 -66 37c-26 4 -72 3 -118 0c-1 -21 -9 -52 -21 -73c50 5 95 5 114 5
c15 1 24 -3 33 -15c24 -30 37 -159 47 -508h-113c-11 254 -48 475 -176 613c-11 -18 -35 -43 -52 -54c120 -124 153 -326 164 -559h-123v-68h125c2 -75 2 -154 2 -233h65c0 79 -1 158 -3 233h177z" />
</svg>
