<?xml version="1.0" standalone="no"?>
<!DOCTYPE svg PUBLIC "-//W3C//DTD SVG 1.1//EN" "http://www.w3.org/Graphics/SVG/1.1/DTD/svg11.dtd" >
<svg xmlns="http://www.w3.org/2000/svg" xmlns:xlink="http://www.w3.org/1999/xlink" version="1.1" viewBox="-10 0 1010 1000">
   <path fill="currentColor"
d="M150 242v271c0 134 -11 321 -82 444c-11 -9 -39 -27 -55 -33c68 -119 73 -285 73 -411v-320h194v-150h69v55h215v50h-215v45h209l11 -3l44 12c-11 45 -27 100 -40 134l-54 -13c7 -22 14 -52 21 -81h-200v52l132 -11l5 41l-137 11v26c0 17 6 20 36 20h113
c22 0 27 -4 30 -39c12 8 34 14 51 17c-5 51 -24 65 -72 65h-128c-72 0 -92 -12 -92 -64v-19l-100 8l-5 -41l105 -9v-57h-128zM255 587v48h95v-48h-95zM255 499v47h95v-47h-95zM504 546v-47h-99v47h99zM504 635v-48h-99v48h99zM198 677v-220h366v220h-366zM236 771v103l66 -5
v-98h-66zM411 860v-89h-62v94zM524 850v-79h-66v85zM617 841l-1 53c-174 17 -357 34 -481 47l-5 -59l53 -4v-161h395v128zM783 284h154s0 24 -1 33c-11 419 -21 555 -50 596c-16 22 -33 30 -58 33c-24 2 -61 2 -98 0c-2 -19 -7 -45 -18 -63c40 3 73 4 89 4
c14 0 21 -3 30 -16c21 -29 33 -156 43 -523h-91c-2 200 -18 423 -118 611c-14 -13 -42 -31 -61 -38c97 -177 111 -386 112 -573h-102v-64h102v-238h67v238z" />
</svg>
