<?xml version="1.0" standalone="no"?>
<!DOCTYPE svg PUBLIC "-//W3C//DTD SVG 1.1//EN" "http://www.w3.org/Graphics/SVG/1.1/DTD/svg11.dtd" >
<svg xmlns="http://www.w3.org/2000/svg" xmlns:xlink="http://www.w3.org/1999/xlink" version="1.1" viewBox="-10 0 1010 1000">
   <path fill="currentColor"
d="M270 739h348v-57h-348v57zM618 571h-348v59h348v-59zM913 142v40c-9 522 -17 680 -47 727c-18 28 -37 37 -64 41c-26 3 -64 3 -102 1c-1 -17 -7 -40 -15 -59c-5 18 -15 28 -33 35c-28 11 -72 11 -142 11c-3 -19 -12 -44 -21 -62c51 2 98 1 111 0c14 0 18 -4 18 -16v-70
h-348v142h-66v-416h484v346c0 7 0 15 -1 21c35 3 67 3 82 3s23 -3 32 -18c22 -33 31 -194 40 -659h-585c-18 26 -36 51 -55 74h124v-48h63v245h-63v-47c-58 15 -115 27 -166 40l-15 -53c49 -10 113 -23 181 -38v-45h-147v-27c-26 29 -51 55 -77 78c-13 -13 -43 -35 -60 -45
c91 -72 177 -183 227 -298l69 19c-12 26 -26 53 -40 78h616zM483 234h60v78c55 -16 111 -37 147 -57l41 45c-52 26 -126 48 -188 63v41c0 19 5 23 33 23h99c21 0 26 -8 29 -57c13 9 35 18 52 21c-6 69 -24 87 -73 87h-113c-70 0 -87 -15 -87 -74v-170z" />
</svg>
