<?xml version="1.0" standalone="no"?>
<!DOCTYPE svg PUBLIC "-//W3C//DTD SVG 1.1//EN" "http://www.w3.org/Graphics/SVG/1.1/DTD/svg11.dtd" >
<svg xmlns="http://www.w3.org/2000/svg" xmlns:xlink="http://www.w3.org/1999/xlink" version="1.1" viewBox="-10 0 1010 1000">
   <path fill="currentColor"
d="M809 212v-79h-331v79h331zM809 344v-80h-331v80h331zM881 77v324h-472v-324h472zM173 699l167 -69c3 20 11 49 16 63c-195 85 -235 105 -256 122l-4 3c-6 -18 -22 -52 -35 -69c16 -8 39 -26 39 -65v-600h73v218h182v70h-182v327zM679 713v157c29 4 61 6 94 6
c24 0 159 0 193 -1c-10 16 -19 47 -22 66h-174c-142 0 -247 -27 -313 -161c-27 72 -67 131 -118 177c-11 -12 -40 -35 -56 -46c90 -69 134 -181 150 -329l68 8c-4 40 -11 79 -20 114c28 80 72 124 128 148v-317h-261v-63h596v63h-265v117h208v61h-208z" />
</svg>
