<?xml version="1.0" standalone="no"?>
<!DOCTYPE svg PUBLIC "-//W3C//DTD SVG 1.1//EN" "http://www.w3.org/Graphics/SVG/1.1/DTD/svg11.dtd" >
<svg xmlns="http://www.w3.org/2000/svg" xmlns:xlink="http://www.w3.org/1999/xlink" version="1.1" viewBox="-10 0 1010 1000">
   <path fill="currentColor"
d="M386 381h-128v570h-72v-570h-143v-70h143v-264h72v264h128v70zM931 281v38c-11 404 -20 541 -54 584c-19 26 -40 35 -70 38c-29 3 -81 2 -131 0c-2 -23 -10 -53 -23 -74c54 5 102 5 123 5c16 1 26 -2 36 -15c24 -28 36 -156 46 -503h-201c-14 254 -60 471 -220 606
c-13 -19 -39 -44 -58 -56c150 -120 192 -318 205 -550h-163v-73h166c3 -76 3 -156 3 -236h73c0 80 -1 160 -3 236h271z" />
</svg>
