<?xml version="1.0" standalone="no"?>
<!DOCTYPE svg PUBLIC "-//W3C//DTD SVG 1.1//EN" "http://www.w3.org/Graphics/SVG/1.1/DTD/svg11.dtd" >
<svg xmlns="http://www.w3.org/2000/svg" xmlns:xlink="http://www.w3.org/1999/xlink" version="1.1" viewBox="-10 0 1010 1000">
   <path fill="currentColor"
d="M461 390v-167h-340v-67h340v-108h72v108h351v67h-351v167h-72zM413 833h354c93 0 108 -27 120 -164c19 12 51 24 73 29c-16 162 -46 207 -192 207h-351c-152 0 -199 -27 -199 -140v-254h-157v-67h157v-122h74v122h409v-127h73v127h168v67h-168v168h-73v-168h-409v255
c0 54 20 67 121 67z" />
</svg>
