<?xml version="1.0" standalone="no"?>
<!DOCTYPE svg PUBLIC "-//W3C//DTD SVG 1.1//EN" "http://www.w3.org/Graphics/SVG/1.1/DTD/svg11.dtd" >
<svg xmlns="http://www.w3.org/2000/svg" xmlns:xlink="http://www.w3.org/1999/xlink" version="1.1" viewBox="-10 0 1010 1000">
   <path fill="currentColor"
d="M190 150v258c0 159 -12 393 -92 548c-13 -12 -44 -33 -61 -41c75 -148 81 -356 81 -507v-325h834v67h-762zM859 480l61 43c-55 44 -123 93 -181 128c55 94 128 169 219 212c-17 14 -39 42 -51 62c-165 -90 -267 -270 -326 -495c-31 48 -67 94 -107 136v290l206 -44
c1 19 5 46 8 61c-229 51 -273 63 -296 75l-4 3c-6 -16 -24 -45 -36 -60c19 -9 53 -31 53 -68v-192c-54 46 -113 86 -178 118c-9 -17 -28 -44 -41 -58c141 -68 262 -179 334 -298h-288v-65h345c-18 -38 -51 -89 -82 -128l63 -26c37 42 75 97 91 135l-41 19h334v65h-304
c17 73 42 143 72 206c54 -36 112 -84 149 -119z" />
</svg>
