<?xml version="1.0" standalone="no"?>
<!DOCTYPE svg PUBLIC "-//W3C//DTD SVG 1.1//EN" "http://www.w3.org/Graphics/SVG/1.1/DTD/svg11.dtd" >
<svg xmlns="http://www.w3.org/2000/svg" xmlns:xlink="http://www.w3.org/1999/xlink" version="1.1" viewBox="-10 0 1010 1000">
   <path fill="currentColor"
d="M924 161h-728v224c0 165 -12 405 -96 570c-13 -12 -44 -29 -62 -36c81 -157 88 -377 88 -534v-294h798v70zM787 661h-413v182h413v-182zM303 955v-359h557v354h-73v-41h-413v46h-71zM382 430h393v63h-393v-63zM567 164l69 27c-7 11 -14 21 -21 31c79 72 223 163 351 211
c-17 15 -40 44 -53 63c-122 -53 -258 -151 -338 -226c-85 92 -199 170 -325 229c-11 -16 -36 -43 -52 -57c156 -66 297 -169 369 -278z" />
</svg>
