<?xml version="1.0" standalone="no"?>
<!DOCTYPE svg PUBLIC "-//W3C//DTD SVG 1.1//EN" "http://www.w3.org/Graphics/SVG/1.1/DTD/svg11.dtd" >
<svg xmlns="http://www.w3.org/2000/svg" xmlns:xlink="http://www.w3.org/1999/xlink" version="1.1" viewBox="-10 0 1010 1000">
   <path fill="currentColor"
d="M471 160h-307v129h307v-129zM539 355h-375v78c0 146 -10 354 -75 493c-12 -11 -42 -29 -58 -35c61 -133 66 -320 66 -458v-339h442v261zM560 463v304c0 30 -5 47 -25 58c-19 10 -47 11 -92 11c-2 -18 -11 -42 -19 -59c30 1 54 1 63 0c9 0 11 -2 11 -11v-239h-97v428h-64
v-428h-94v317h-59v-381h153v-92h64v92h159zM882 103l46 11c-23 229 -73 412 -144 556c46 97 105 175 181 227c-17 13 -41 41 -52 60c-71 -53 -126 -124 -171 -210c-53 86 -115 156 -184 209c-13 -16 -34 -41 -51 -54c75 -53 142 -133 198 -237c-52 -132 -85 -290 -108 -467
l66 -9c17 142 43 275 84 390c48 -115 85 -251 105 -405h-290v-69h307z" />
</svg>
