<?xml version="1.0" standalone="no"?>
<!DOCTYPE svg PUBLIC "-//W3C//DTD SVG 1.1//EN" "http://www.w3.org/Graphics/SVG/1.1/DTD/svg11.dtd" >
<svg xmlns="http://www.w3.org/2000/svg" xmlns:xlink="http://www.w3.org/1999/xlink" version="1.1" viewBox="-10 0 1010 1000">
   <path fill="currentColor"
d="M622 275v-75h-184v75h184zM622 402v-75h-184v75h184zM622 527v-74h-184v74h184zM366 617v-339c-23 27 -47 53 -71 74c-6 -13 -26 -47 -38 -62c73 -61 142 -155 184 -251l61 20c-12 29 -27 58 -44 86h174c-13 -27 -28 -59 -42 -84l65 -18c18 31 40 71 53 102h200v55h-215
v75h191v52h-191v75h193v51h-193v74h234v56h-489v34h-72zM292 191l-55 45c-30 -38 -91 -100 -139 -144l54 -37c46 42 108 101 140 136zM257 358l40 47c-55 68 -122 144 -184 206l-51 -55c53 -47 132 -125 195 -198zM718 699h-386c50 43 117 77 195 106
c75 -28 141 -63 191 -106zM793 635l45 29c-51 71 -127 127 -219 170c101 27 214 44 331 52c-15 16 -33 45 -41 64c-138 -13 -270 -38 -383 -78c-132 47 -285 72 -433 85c-4 -19 -17 -49 -28 -66c125 -8 253 -26 368 -57c-77 -35 -141 -79 -190 -133l3 -2h-120v-61h654z" />
</svg>
