<?xml version="1.0" standalone="no"?>
<!DOCTYPE svg PUBLIC "-//W3C//DTD SVG 1.1//EN" "http://www.w3.org/Graphics/SVG/1.1/DTD/svg11.dtd" >
<svg xmlns="http://www.w3.org/2000/svg" xmlns:xlink="http://www.w3.org/1999/xlink" version="1.1" viewBox="-10 0 1010 1000">
   <path fill="currentColor"
d="M377 639h-186v175h186v-175zM448 579v295h-257v78h-70v-373h327zM389 270v52c0 80 -24 180 -213 242c-10 -17 -31 -41 -48 -53c172 -52 189 -130 189 -192v-49h72zM681 560h-73v119c94 -31 192 -70 254 -103l50 55c-85 39 -200 79 -304 110v89c0 29 8 35 58 35h169
c41 0 48 -17 53 -117c17 11 46 22 66 27c-9 122 -31 154 -113 154h-182c-97 0 -124 -21 -124 -100v-278h73v-280h61c-70 -38 -134 -83 -184 -131c-107 97 -262 181 -408 224c-10 -20 -29 -50 -46 -67c176 -41 361 -148 451 -260l63 40c-5 6 -10 11 -15 17
c97 90 276 174 442 208c-20 17 -44 47 -56 68c-79 -21 -161 -53 -235 -92v282z" />
</svg>
