<?xml version="1.0" standalone="no"?>
<!DOCTYPE svg PUBLIC "-//W3C//DTD SVG 1.1//EN" "http://www.w3.org/Graphics/SVG/1.1/DTD/svg11.dtd" >
<svg xmlns="http://www.w3.org/2000/svg" xmlns:xlink="http://www.w3.org/1999/xlink" version="1.1" viewBox="-10 0 1010 1000">
   <path fill="currentColor"
d="M909 164v68h-518v-68h249c-14 -31 -38 -69 -62 -96l56 -30c31 32 61 77 73 109l-29 17h231zM580 409l-62 22c-8 -48 -32 -119 -60 -174l59 -19c29 54 55 124 63 171zM267 207h-125v417h125v-417zM332 138v555h-190v95h-65v-650h255zM945 504h-265v139h229v69h-229v244
h-72v-244h-216v-69h216v-139h-246v-69h328c25 -57 54 -140 70 -200l73 19c-24 59 -52 128 -78 181h190v69z" />
</svg>
