<?xml version="1.0" standalone="no"?>
<!DOCTYPE svg PUBLIC "-//W3C//DTD SVG 1.1//EN" "http://www.w3.org/Graphics/SVG/1.1/DTD/svg11.dtd" >
<svg xmlns="http://www.w3.org/2000/svg" xmlns:xlink="http://www.w3.org/1999/xlink" version="1.1" viewBox="-10 0 1010 1000">
   <path fill="currentColor"
d="M343 166h377v-119h73v119h156v67h-156v220c0 42 -9 62 -41 74c-32 11 -84 12 -166 12c-3 -21 -14 -49 -23 -70c64 2 119 2 136 2c16 -1 21 -5 21 -20v-218h-377v-67zM192 541v-241c-32 38 -66 72 -98 100c-10 -14 -35 -47 -51 -60c91 -73 180 -185 234 -297l69 22
c-24 48 -52 96 -83 142v334h-71zM377 638h-186v177h186v-177zM448 580v293h-257v75h-70v-368h327zM396 295l54 -37c51 45 108 109 131 154l-57 43c-22 -46 -77 -113 -128 -160zM666 867h170c42 0 49 -17 53 -117c17 12 46 23 66 27c-9 122 -31 153 -113 153h-182
c-98 0 -125 -21 -125 -98v-282h73v131c94 -32 192 -70 255 -103l50 55c-86 39 -201 78 -305 109v90c0 29 8 35 58 35z" />
</svg>
