<?xml version="1.0" standalone="no"?>
<!DOCTYPE svg PUBLIC "-//W3C//DTD SVG 1.1//EN" "http://www.w3.org/Graphics/SVG/1.1/DTD/svg11.dtd" >
<svg xmlns="http://www.w3.org/2000/svg" xmlns:xlink="http://www.w3.org/1999/xlink" version="1.1" viewBox="-10 0 1010 1000">
   <path fill="currentColor"
d="M274 207h-122v417h122v-417zM336 138v555h-184v95h-61v-650h245zM484 146v147h332v-147h-332zM921 435v430c0 36 -8 55 -35 66c-27 12 -69 12 -137 12c-4 -18 -16 -45 -25 -63c50 2 96 2 109 1c14 -1 19 -4 19 -17v-362h-170c-3 16 -6 30 -10 45c57 53 128 126 162 171
l-48 41c-28 -41 -83 -100 -133 -153c-28 69 -69 123 -129 165c-8 -12 -31 -39 -46 -52c76 -48 117 -119 137 -217h-161v449h-69v-516h240c2 -23 4 -49 5 -75h-216v-281h475v281h-191c-1 26 -3 52 -6 75h229z" />
</svg>
