<?xml version="1.0" standalone="no"?>
<!DOCTYPE svg PUBLIC "-//W3C//DTD SVG 1.1//EN" "http://www.w3.org/Graphics/SVG/1.1/DTD/svg11.dtd" >
<svg xmlns="http://www.w3.org/2000/svg" xmlns:xlink="http://www.w3.org/1999/xlink" version="1.1" viewBox="-10 0 1010 1000">
   <path fill="currentColor"
d="M852 51l49 57c-138 34 -357 55 -538 63c-2 -17 -11 -43 -19 -58c176 -10 391 -31 508 -62zM683 308l-66 17c-6 -39 -24 -100 -46 -147l62 -15c22 46 43 106 50 145zM511 318l-64 21c-9 -39 -35 -98 -61 -141l62 -19c28 44 53 100 63 139zM246 207h-107v417h107v-417z
M307 138v555h-168v95h-61v-650h229zM766 567h-244c29 62 70 117 120 163c51 -45 94 -100 124 -163zM818 501l48 22c-36 103 -94 187 -167 253c73 51 162 89 264 110c-16 16 -39 44 -49 64c-106 -27 -196 -70 -271 -128c-84 62 -182 105 -286 135c-9 -19 -29 -50 -44 -64
c102 -26 196 -65 276 -120c-58 -57 -104 -127 -139 -206h-39v-55h-59v-167h389c36 -54 75 -131 96 -186l74 26c-32 51 -68 111 -101 160h124v167h-75v-103h-435v94h379z" />
</svg>
