<?xml version="1.0" standalone="no"?>
<!DOCTYPE svg PUBLIC "-//W3C//DTD SVG 1.1//EN" "http://www.w3.org/Graphics/SVG/1.1/DTD/svg11.dtd" >
<svg xmlns="http://www.w3.org/2000/svg" xmlns:xlink="http://www.w3.org/1999/xlink" version="1.1" viewBox="-10 0 1010 1000">
   <path fill="currentColor"
d="M620 528v-256c52 -30 110 -73 153 -116h-354v-66h418l15 -4l47 35c-56 65 -139 135 -218 182v412c0 33 -6 49 -29 60c-20 10 -55 11 -105 11c-2 -17 -11 -41 -19 -59c36 1 69 1 78 0c11 0 14 -2 14 -12v-129c-48 36 -96 72 -138 103l-33 -50c43 -26 106 -68 171 -111z
M846 654l-39 37c-27 -32 -81 -81 -124 -115l39 -31c44 31 98 78 124 109zM786 342l47 36c-33 44 -74 92 -106 125l-39 -33c31 -33 75 -89 98 -128zM475 367l45 -25c35 37 75 90 93 123l-48 32c-17 -37 -56 -90 -90 -130zM253 207h-114v417h114v-417zM317 138v555h-178v95
h-61v-650h239zM851 270h62v686h-62v-59h-475v-633h63v571h412v-565z" />
</svg>
