<?xml version="1.0" standalone="no"?>
<!DOCTYPE svg PUBLIC "-//W3C//DTD SVG 1.1//EN" "http://www.w3.org/Graphics/SVG/1.1/DTD/svg11.dtd" >
<svg xmlns="http://www.w3.org/2000/svg" xmlns:xlink="http://www.w3.org/1999/xlink" version="1.1" viewBox="-10 0 1010 1000">
   <path fill="currentColor"
d="M937 125v62h-875v-62h401c-9 -24 -23 -49 -37 -71l78 -15c16 25 37 60 48 86h385zM195 661v-262c-35 31 -72 58 -108 81c-11 -12 -37 -38 -54 -49c99 -57 198 -145 256 -240l70 20c-25 40 -57 80 -91 118v332h-73zM761 738h-524v112h524v-112zM162 959v-282h676v279h-77
v-46h-524v49h-75zM520 364l45 -34c37 20 85 53 108 75l-45 39c-23 -23 -70 -58 -108 -80zM789 319h-282c-21 22 -43 43 -66 63c39 45 94 84 159 118c81 -45 146 -105 189 -181zM837 262l45 24c-46 106 -121 187 -214 246c85 37 183 64 282 79c-17 14 -37 40 -47 57
c-106 -19 -210 -53 -301 -99c-82 42 -176 73 -273 93c-8 -16 -26 -45 -40 -57c88 -16 172 -40 247 -73c-55 -33 -103 -71 -141 -113c-20 13 -38 26 -58 38c-12 -13 -35 -34 -50 -45c93 -54 186 -141 230 -220l73 21c-11 17 -22 34 -36 51h270z" />
</svg>
