<?xml version="1.0" standalone="no"?>
<!DOCTYPE svg PUBLIC "-//W3C//DTD SVG 1.1//EN" "http://www.w3.org/Graphics/SVG/1.1/DTD/svg11.dtd" >
<svg xmlns="http://www.w3.org/2000/svg" xmlns:xlink="http://www.w3.org/1999/xlink" version="1.1" viewBox="-10 0 1010 1000">
   <path fill="currentColor"
d="M828 417v-220h-216v220h216zM901 129v356h-360v-356h360zM372 636h-187v177h187v-177zM442 576v297h-257v49h-69v-346h326zM411 216h-161c-19 43 -41 85 -59 120c36 13 73 29 110 45c48 -43 87 -97 110 -165zM455 149l40 12c-24 108 -69 188 -130 249c48 24 93 47 124 69
l-45 54c-34 -23 -81 -49 -134 -76c-67 48 -148 79 -236 99c-7 -18 -20 -46 -32 -60c73 -12 141 -36 200 -72c-49 -22 -99 -43 -145 -60l4 -4c24 -40 51 -90 77 -144h-123v-65h152c16 -36 29 -73 40 -106l68 10c-10 30 -22 64 -36 96h163zM666 870h172c41 0 49 -17 53 -118
c17 13 46 24 66 28c-9 123 -31 155 -113 155h-184c-98 0 -125 -22 -125 -101v-294h73v131c94 -31 192 -70 255 -104l50 56c-86 39 -201 79 -305 110v101c0 30 9 36 58 36z" />
</svg>
