<?xml version="1.0" standalone="no"?>
<!DOCTYPE svg PUBLIC "-//W3C//DTD SVG 1.1//EN" "http://www.w3.org/Graphics/SVG/1.1/DTD/svg11.dtd" >
<svg xmlns="http://www.w3.org/2000/svg" xmlns:xlink="http://www.w3.org/1999/xlink" version="1.1" viewBox="-10 0 1010 1000">
   <path fill="currentColor"
d="M484 110l66 17c-36 84 -94 170 -149 225c-13 -11 -41 -31 -56 -41c55 -50 108 -127 139 -201zM264 207h-120v417h120v-417zM330 138v555h-186v95h-65v-650h251zM798 598v-75h-292v75h292zM506 861h292v-79h-292v79zM798 728v-76h-292v76h292zM765 266l60 28
c-60 70 -149 126 -247 170h287v488h-67v-31h-292v36h-66v-441c-24 8 -47 15 -71 22c-4 -16 -21 -51 -32 -67c116 -27 237 -69 330 -126h-64v-295h70v292c36 -23 67 -49 92 -76zM741 136l55 -31c61 59 129 142 158 199l-59 35c-27 -57 -94 -143 -154 -203z" />
</svg>
