<?xml version="1.0" standalone="no"?>
<!DOCTYPE svg PUBLIC "-//W3C//DTD SVG 1.1//EN" "http://www.w3.org/Graphics/SVG/1.1/DTD/svg11.dtd" >
<svg xmlns="http://www.w3.org/2000/svg" xmlns:xlink="http://www.w3.org/1999/xlink" version="1.1" viewBox="-10 0 1010 1000">
   <path fill="currentColor"
d="M698 265l47 -43c71 41 156 106 198 150l-49 48c-42 -47 -126 -113 -196 -155zM605 470v-191c-62 61 -133 114 -202 155c-10 -14 -33 -44 -48 -57c99 -51 198 -129 267 -219h-243v-65h554v65h-228c-9 14 -19 27 -29 40v272h-71zM261 207h-112v417h112v-417zM330 138v555
h-181v95h-69v-650h250zM689 861h258v64h-613v-64h92v-223h70v223h122v-295h-248v-63h562v63h-243v106h209v63h-209v126z" />
</svg>
