<?xml version="1.0" standalone="no"?>
<!DOCTYPE svg PUBLIC "-//W3C//DTD SVG 1.1//EN" "http://www.w3.org/Graphics/SVG/1.1/DTD/svg11.dtd" >
<svg xmlns="http://www.w3.org/2000/svg" xmlns:xlink="http://www.w3.org/1999/xlink" version="1.1" viewBox="-10 0 1010 1000">
   <path fill="currentColor"
d="M163 169v161h187v-161h-187zM280 503h158s0 22 -1 32c-7 251 -14 339 -36 367c-16 20 -33 28 -59 30c-23 3 -64 3 -106 0c-2 -20 -9 -47 -20 -66c41 4 80 4 94 4c15 0 23 -1 31 -11c13 -17 20 -89 26 -283h-95c-21 154 -69 281 -187 363c-10 -17 -32 -43 -49 -54
c103 -68 146 -178 164 -309h-145v-73h153c3 -35 5 -72 7 -109h-121v-290h327v290h-134c-2 37 -4 74 -7 109zM550 476h96c15 -39 22 -76 24 -105h-120v105zM550 208v105h121v-105h-121zM850 313v-105h-117v105h117zM850 476v-105h-118c-2 26 -9 64 -23 105h141zM954 690v68
h-145v198h-68v-198h-290v-68h82c-11 -14 -27 -28 -39 -38c55 -34 93 -74 120 -114h-127v-392h123c14 -32 29 -73 37 -102l73 13c-13 31 -26 63 -39 89h235v392h-233c-27 54 -68 108 -130 152h188v-128h68v128h145z" />
</svg>
