<?xml version="1.0" standalone="no"?>
<!DOCTYPE svg PUBLIC "-//W3C//DTD SVG 1.1//EN" "http://www.w3.org/Graphics/SVG/1.1/DTD/svg11.dtd" >
<svg xmlns="http://www.w3.org/2000/svg" xmlns:xlink="http://www.w3.org/1999/xlink" version="1.1" viewBox="-10 0 1010 1000">
   <path fill="currentColor"
d="M772 201h-33c-22 49 -46 93 -72 128c-12 -11 -37 -31 -53 -39c51 -62 90 -153 112 -247l60 16c-6 25 -14 51 -22 76h188v66h-108c26 37 50 78 62 108l-52 33c-15 -38 -48 -95 -82 -141zM476 200h-11c-23 50 -49 95 -77 130c-11 -11 -36 -30 -52 -39
c55 -63 98 -156 122 -251l59 17c-7 26 -15 53 -25 78h168v65h-114c25 41 49 86 60 118l-55 29c-13 -39 -44 -99 -75 -147zM267 207h-121v417h121v-417zM336 693h-190v95h-69v-650h259v555zM948 645h-261c48 120 140 211 267 252c-16 14 -38 41 -48 61
c-115 -44 -199 -128 -255 -240c-37 85 -115 170 -275 238c-10 -16 -31 -42 -48 -56c187 -72 251 -168 272 -255h-226v-67h235c1 -11 1 -21 1 -31v-94c-64 6 -129 11 -189 14c-2 -17 -12 -44 -21 -60c154 -10 338 -30 441 -59l55 58c-60 16 -135 29 -213 38v104
c0 10 0 19 -1 30h266v67z" />
</svg>
