<?xml version="1.0" standalone="no"?>
<!DOCTYPE svg PUBLIC "-//W3C//DTD SVG 1.1//EN" "http://www.w3.org/Graphics/SVG/1.1/DTD/svg11.dtd" >
<svg xmlns="http://www.w3.org/2000/svg" xmlns:xlink="http://www.w3.org/1999/xlink" version="1.1" viewBox="-10 0 1010 1000">
   <path fill="currentColor"
d="M372 655h-187v177h187v-177zM442 596v295h-257v49h-69v-344h326zM382 216h-140c-18 44 -38 85 -55 120c31 13 64 27 96 42c43 -42 77 -96 99 -162zM422 149l42 11c-22 106 -62 188 -118 248c48 24 91 50 122 72l-47 53c-31 -24 -75 -51 -126 -78c-59 48 -130 79 -208 100
c-7 -18 -22 -47 -34 -61c65 -14 125 -37 176 -72c-44 -22 -89 -41 -132 -58c25 -40 52 -93 76 -148h-117v-65h144c14 -36 27 -73 37 -106l66 9c-9 31 -21 64 -33 97h139zM959 279l-56 32c-8 -17 -20 -38 -35 -59c-306 21 -344 24 -367 33c-3 -13 -15 -45 -23 -62
c16 -2 32 -13 49 -31c20 -17 84 -83 123 -150l64 32c-37 50 -80 99 -124 138l239 -14c-21 -24 -43 -49 -65 -71l54 -28c57 52 116 127 141 180zM817 480v-100h-220v100h220zM889 325v210h-360v-210h360zM666 877h172c41 0 49 -17 53 -117c17 12 46 23 66 27
c-9 122 -31 153 -113 153h-184c-98 0 -125 -21 -125 -98v-271h73v125c94 -31 192 -69 253 -104l47 56c-81 41 -198 79 -300 109v85c0 29 8 35 58 35z" />
</svg>
