<?xml version="1.0" standalone="no"?>
<!DOCTYPE svg PUBLIC "-//W3C//DTD SVG 1.1//EN" "http://www.w3.org/Graphics/SVG/1.1/DTD/svg11.dtd" >
<svg xmlns="http://www.w3.org/2000/svg" xmlns:xlink="http://www.w3.org/1999/xlink" version="1.1" viewBox="-10 0 1010 1000">
   <path fill="currentColor"
d="M247 178h-108v467h108v-467zM307 117v590h-168v97h-60v-687h228zM437 488v94h175v-94h-175zM869 582v-94h-187v94h187zM371 582v-154h565v154h-59v234c0 31 -4 48 -26 58c-21 11 -53 12 -101 12c-2 -18 -11 -42 -19 -60c32 1 59 1 68 1c8 0 10 -3 10 -12v-169h-127v311
h-70v-311h-118v247h-68v-311h-55zM678 311v-88h-71v88h71zM956 223h-104v82c0 16 1 27 3 31c3 3 7 4 12 4h19c6 0 12 0 15 -3c4 -1 7 -6 9 -13c2 -9 3 -28 4 -51c12 8 27 16 42 19c-2 28 -4 56 -9 68c-5 10 -13 17 -23 22c-9 4 -23 6 -36 6h-34c-17 0 -34 -4 -45 -15
c-12 -10 -15 -24 -15 -77v-73h-58v143h-185v-143h-57c-6 73 -28 144 -105 199c-10 -13 -30 -32 -44 -41c64 -44 84 -100 91 -158h-91v-60h93v-116h58v116h55v-119h56v119h71v-119h58v119h58v-118h58v118h104v60z" />
</svg>
