<?xml version="1.0" standalone="no"?>
<!DOCTYPE svg PUBLIC "-//W3C//DTD SVG 1.1//EN" "http://www.w3.org/Graphics/SVG/1.1/DTD/svg11.dtd" >
<svg xmlns="http://www.w3.org/2000/svg" xmlns:xlink="http://www.w3.org/1999/xlink" version="1.1" viewBox="-10 0 1010 1000">
   <path fill="currentColor"
d="M591 123l55 24c-25 48 -53 104 -76 141l-42 -21c21 -39 49 -103 63 -144zM355 126l49 9c-6 59 -24 133 -54 177l-49 -20c29 -39 47 -108 54 -166zM636 423l-44 40c-23 -35 -70 -84 -116 -126c-27 70 -71 123 -143 162c-7 -14 -25 -35 -38 -46c137 -71 157 -198 163 -403
h58c-3 88 -8 165 -24 230c41 31 85 73 117 109c54 -85 89 -212 107 -346l59 11c-8 52 -18 102 -30 149h162l11 -4l44 15c-16 89 -37 194 -60 259l-54 -18c15 -48 30 -121 40 -188h-161c-20 67 -44 125 -72 172c-5 -4 -12 -10 -19 -16zM563 712l-42 -21
c20 -42 48 -110 61 -156l55 24c-24 52 -51 113 -74 153zM349 531l49 8c-10 62 -32 138 -64 184l-49 -21c30 -41 52 -111 64 -171zM216 212h-86v401h86v-401zM271 676h-141v82h-54v-610h195v528zM612 854l-47 38c-21 -37 -61 -89 -101 -133c-30 84 -80 147 -167 193
c-7 -14 -24 -36 -38 -47c162 -80 181 -231 188 -460h60c-3 96 -10 181 -26 253c50 47 106 113 131 156zM806 331v69c0 27 -1 56 -2 86c27 193 71 313 168 417c-15 14 -32 37 -41 57c-75 -87 -120 -181 -151 -307c-24 107 -73 218 -168 311c-9 -18 -29 -42 -41 -55
c164 -158 177 -369 177 -510v-68h58z" />
</svg>
