<?xml version="1.0" standalone="no"?>
<!DOCTYPE svg PUBLIC "-//W3C//DTD SVG 1.1//EN" "http://www.w3.org/Graphics/SVG/1.1/DTD/svg11.dtd" >
<svg xmlns="http://www.w3.org/2000/svg" xmlns:xlink="http://www.w3.org/1999/xlink" version="1.1" viewBox="-10 0 1010 1000">
   <path fill="currentColor"
d="M246 645v-467h-107v467h107zM307 117v590h-168v97h-60v-687h228zM426 663h162s0 19 -2 28c-10 152 -20 212 -42 233c-15 15 -31 22 -55 23c-20 1 -55 2 -91 0c-1 -18 -8 -42 -18 -59c36 4 69 4 82 4s22 -1 29 -8c11 -13 21 -57 28 -165h-160c10 -57 21 -147 27 -216h139
v-90h-135v-16c-14 7 -29 15 -44 21c-7 -15 -25 -38 -39 -51c50 -19 99 -49 140 -88c-26 -21 -62 -47 -92 -65l42 -42c30 17 66 41 93 61c22 -27 41 -59 56 -92h-173v-59h202l12 -3l41 15c-31 115 -95 202 -174 262h131v203h-147c-4 35 -8 72 -12 104zM868 616l39 10
c-18 78 -48 141 -89 192c39 37 75 73 100 100l-49 40c-23 -27 -55 -61 -93 -97c-47 42 -102 72 -166 94c-7 -15 -23 -38 -37 -50c62 -18 116 -47 160 -87c-40 -39 -82 -80 -119 -114l46 -32c35 31 74 67 113 104c24 -31 43 -65 56 -104h-214v-54h241zM908 172l48 37
c-33 27 -75 52 -110 71c38 33 83 58 134 76c-15 13 -36 37 -46 56c-30 -12 -59 -28 -85 -44v132c0 21 1 26 12 26h29c10 0 27 -1 37 -3c1 13 2 32 4 45c-9 3 -25 3 -40 3h-38c-52 0 -62 -19 -62 -72v-91h-86v27c0 54 -14 120 -81 167c-9 -11 -34 -29 -47 -36
c60 -40 70 -89 70 -133v-79h182c-93 -69 -156 -171 -193 -296l63 -13c11 35 24 68 40 100c33 -23 70 -51 93 -72l49 37c-36 30 -79 58 -116 78c13 20 27 38 44 56c34 -23 74 -51 99 -72z" />
</svg>
