<?xml version="1.0" standalone="no"?>
<!DOCTYPE svg PUBLIC "-//W3C//DTD SVG 1.1//EN" "http://www.w3.org/Graphics/SVG/1.1/DTD/svg11.dtd" >
<svg xmlns="http://www.w3.org/2000/svg" xmlns:xlink="http://www.w3.org/1999/xlink" version="1.1" viewBox="-10 0 1010 1000">
   <path fill="currentColor"
d="M236 626v-423h-105v423h105zM101 137h195v555h-165v96h-59v-650zM598 702v-46h63v47c0 74 -20 181 -308 253c-9 -15 -28 -38 -43 -48c273 -57 288 -149 288 -206zM865 795h-65v-177h-334v177h-63v-230h462v230zM671 843l25 -43c78 28 173 73 222 108l-28 49
c-48 -35 -142 -84 -219 -114zM577 414v58h120v-58h-120zM577 307v54h120v-54h-120zM410 254h107v-54h60v54h120v-54h60v54h112v-78h-459v78zM757 472h195v52h-615v-52h180v-58h-103v-53h103v-54h-117v-34h-50v-153h254c-10 -22 -23 -45 -36 -64l57 -18c17 24 36 57 48 82
h259v152h-52v35h-123v54h106v53h-106v58z" />
</svg>
