<?xml version="1.0" standalone="no"?>
<!DOCTYPE svg PUBLIC "-//W3C//DTD SVG 1.1//EN" "http://www.w3.org/Graphics/SVG/1.1/DTD/svg11.dtd" >
<svg xmlns="http://www.w3.org/2000/svg" xmlns:xlink="http://www.w3.org/1999/xlink" version="1.1" viewBox="-10 0 1010 1000">
   <path fill="currentColor"
d="M260 206h-115v416h115v-416zM674 299v-79h-183v79h183zM674 425v-75h-183v75h183zM674 567v-91h-183v91h183zM323 692h-178v95h-63v-650h241v172c64 -70 121 -168 155 -266l64 18c-12 33 -27 67 -42 99h199c-11 -30 -29 -69 -47 -99l59 -21c23 36 49 85 57 115l-11 5h181
v60h-195v79h168v51h-168v75h166v51h-166v91h202v58h-287c32 43 71 102 90 138l-57 31c-18 -39 -55 -100 -87 -145l51 -24h-164v25h-68v-360c-23 34 -48 64 -73 91c-6 -8 -16 -21 -27 -31v342zM351 903l-58 -32c41 -49 76 -129 96 -188l58 24c-23 60 -56 143 -96 196z
M605 878h133c32 0 38 -12 42 -95c14 11 41 22 61 25c-8 106 -29 132 -95 132h-149c-86 0 -108 -20 -108 -89v-174h69v173c0 24 8 28 47 28zM812 689l57 -23c42 62 84 145 101 199l-60 26c-17 -56 -58 -140 -98 -202z" />
</svg>
