<?xml version="1.0" standalone="no"?>
<!DOCTYPE svg PUBLIC "-//W3C//DTD SVG 1.1//EN" "http://www.w3.org/Graphics/SVG/1.1/DTD/svg11.dtd" >
<svg xmlns="http://www.w3.org/2000/svg" xmlns:xlink="http://www.w3.org/1999/xlink" version="1.1" viewBox="-10 0 1010 1000">
   <path fill="currentColor"
d="M873 300v-146h-56v146h56zM775 300v-146h-54v146h54zM679 300v-146h-51v146h51zM924 98v258h-346v-258h346zM216 202h-84v433h84v-433zM271 138v561h-139v89h-56v-650h195zM548 551l-42 50c-8 -28 -24 -74 -42 -119v474h-60v-446c-22 80 -50 154 -78 203
c-7 -19 -23 -48 -33 -64c45 -74 89 -212 111 -329v-4h-82v-62h82v-211h60v211h73v62h-73v58c23 44 72 150 84 177zM716 511v41c0 18 0 36 -2 56h183s-1 19 -2 29c-12 186 -24 258 -48 284c-15 17 -30 23 -52 25c-18 2 -50 2 -81 0c-2 -19 -7 -44 -18 -62c31 4 59 4 71 4
c11 0 19 -2 26 -10c15 -15 26 -70 36 -210h-121c-15 97 -53 205 -146 293c-11 -14 -34 -35 -50 -44c123 -114 140 -266 140 -366v-40h-100v-62h181c-12 -22 -27 -46 -42 -67l63 -15c20 23 40 57 51 82h142v62h-231z" />
</svg>
