<?xml version="1.0" standalone="no"?>
<!DOCTYPE svg PUBLIC "-//W3C//DTD SVG 1.1//EN" "http://www.w3.org/Graphics/SVG/1.1/DTD/svg11.dtd" >
<svg xmlns="http://www.w3.org/2000/svg" xmlns:xlink="http://www.w3.org/1999/xlink" version="1.1" viewBox="-10 0 1010 1000">
   <path fill="currentColor"
d="M492 184l-52 37c-22 -36 -69 -97 -106 -139l49 -32c37 42 85 99 109 134zM218 157h-89v466h89v-466zM273 95v590h-144v98h-55v-688h199zM318 956v-709h59v709h-59zM477 749l82 -18v-81h-82v99zM559 394h-82v84h82v-84zM477 522v83h82v-83h-82zM660 757l-54 13v144h-47
v-134l-153 36l-11 -51l35 -7v-364h-30v-46h127c6 -22 13 -48 18 -70h-115v-46h130l7 -3l31 7c-7 38 -15 77 -23 112h75v46h-44v328l49 -11zM834 819l-41 30c-10 -22 -23 -52 -37 -83c-24 70 -58 130 -102 180c-6 -9 -24 -30 -34 -40c51 -52 84 -121 107 -203
c-25 -53 -52 -109 -77 -157l39 -23c18 33 37 69 55 106c13 -67 21 -141 25 -221h-56c-12 41 -27 78 -43 110c-9 -8 -30 -22 -41 -28c41 -70 61 -172 73 -276l48 8c-6 48 -15 95 -24 139h118v47h-26c-8 108 -20 204 -41 288c23 47 43 91 57 123zM926 86v797
c0 33 -8 47 -30 57c-22 9 -57 9 -111 9c-3 -14 -12 -36 -19 -51c38 2 74 1 84 1c12 0 15 -4 15 -16v-733h-318v-64h379z" />
</svg>
