<?xml version="1.0" standalone="no"?>
<!DOCTYPE svg PUBLIC "-//W3C//DTD SVG 1.1//EN" "http://www.w3.org/Graphics/SVG/1.1/DTD/svg11.dtd" >
<svg xmlns="http://www.w3.org/2000/svg" xmlns:xlink="http://www.w3.org/1999/xlink" version="1.1" viewBox="-10 0 1010 1000">
   <path fill="currentColor"
d="M827 293h-128v41h128v-41zM827 416v-43h-128v43h128zM516 416h114v-43h-114v43zM516 293v41h114v-41h-114zM630 252v-36h-223v-47h223v-43c-65 4 -130 6 -190 7c-2 -13 -9 -30 -15 -43c154 -5 340 -16 446 -32l38 43c-58 8 -133 15 -210 21v47h241v47h-241v36h198v204
h-198v38h219v48h-219v38h249v51h-559v-51h241v-38h-198v-48h198v-38h-181v-204h181zM218 638v-246c-39 79 -90 155 -139 202c-7 -17 -24 -46 -36 -61c57 -51 120 -141 159 -223h-136v-59h152v-94c-48 8 -97 15 -141 19c-3 -15 -12 -36 -19 -51c107 -12 238 -35 309 -66
l37 52c-34 13 -75 25 -118 34v106h120v59h-120v12c34 26 110 89 128 107l-43 53c-15 -21 -52 -62 -85 -96v252h-68zM370 720h-184v133h184v-133zM441 666v241h-255v42h-70v-283h325zM665 886h169c42 0 49 -16 54 -113c16 11 45 21 65 25c-9 117 -31 145 -113 145h-181
c-98 0 -125 -19 -125 -88v-213h73v100c94 -21 196 -49 256 -78l48 47c-81 35 -200 62 -304 83v61c0 25 9 31 58 31z" />
</svg>
