<?xml version="1.0" standalone="no"?>
<!DOCTYPE svg PUBLIC "-//W3C//DTD SVG 1.1//EN" "http://www.w3.org/Graphics/SVG/1.1/DTD/svg11.dtd" >
<svg xmlns="http://www.w3.org/2000/svg" xmlns:xlink="http://www.w3.org/1999/xlink" version="1.1" viewBox="-10 0 1010 1000">
   <path fill="currentColor"
d="M775 607v-41h-271v41h271zM775 691v-42h-271v42h271zM775 776v-43h-271v43h271zM727 470h-175c-12 18 -25 35 -39 52h252c-14 -17 -27 -34 -38 -52zM567 370v48h146v-48h-146zM567 278v46h146v-46h-146zM403 231h105v-36h59v36h146v-36h59v36h110v-59h-479v59zM246 607
v-408h-106v408h106zM843 594v226h-99c78 32 161 70 214 97l-55 39c-52 -29 -139 -72 -223 -109l32 -27h-157l46 27c-64 46 -169 87 -253 109c-10 -13 -28 -33 -42 -45c80 -20 175 -57 227 -91h-95v-229c-29 23 -62 43 -92 57c-8 -12 -23 -31 -36 -43v71h-170v72h-64v-617
h234v467c64 -25 132 -75 176 -128h-156v-52h178v-48h-95v-46h95v-46h-107v-13h-61v-149h277c-14 -23 -29 -46 -45 -66l56 -23c21 25 47 61 63 89h255v149h-56v13h-118v46h108v46h-108v48h185v52h-164c43 54 112 102 179 125c-13 12 -33 36 -43 51c-29 -12 -59 -30 -86 -52z
" />
</svg>
