<?xml version="1.0" standalone="no"?>
<!DOCTYPE svg PUBLIC "-//W3C//DTD SVG 1.1//EN" "http://www.w3.org/Graphics/SVG/1.1/DTD/svg11.dtd" >
<svg xmlns="http://www.w3.org/2000/svg" xmlns:xlink="http://www.w3.org/1999/xlink" version="1.1" viewBox="-10 0 1010 1000">
   <path fill="currentColor"
d="M315 597l18 63c-93 46 -193 95 -271 133l-26 -69c32 -14 70 -30 113 -50v-317h-97v-68h97v-232h68v232h87v68h-87v286zM528 637l60 -25c36 75 73 173 87 232l-64 30c-4 -22 -11 -47 -20 -75c-210 43 -246 54 -266 65v1v-1l-2 1v-8c-6 -18 -16 -49 -23 -66
c21 -6 42 -40 74 -89c21 -31 74 -125 126 -234c-139 21 -164 28 -178 37v-3c-1 1 -1 3 -1 4c-4 -16 -15 -54 -24 -74c16 -5 30 -31 45 -68c17 -36 70 -176 92 -305l73 24c-29 115 -72 237 -118 332l142 -19c14 -33 28 -67 39 -100l69 32c-64 157 -145 315 -227 438l157 -29
c-12 -35 -26 -70 -41 -100zM930 165v39c-13 487 -23 638 -54 685c-17 26 -35 34 -60 38s-59 3 -94 2c-1 -21 -8 -50 -19 -69c34 3 64 3 80 3c13 0 21 -3 30 -18c23 -32 34 -181 46 -612h-259v-68h330z" />
</svg>
