<?xml version="1.0" standalone="no"?>
<!DOCTYPE svg PUBLIC "-//W3C//DTD SVG 1.1//EN" "http://www.w3.org/Graphics/SVG/1.1/DTD/svg11.dtd" >
<svg xmlns="http://www.w3.org/2000/svg" xmlns:xlink="http://www.w3.org/1999/xlink" version="1.1" viewBox="-10 0 1010 1000">
   <path fill="currentColor"
d="M314 432v-223h-148v223h148zM382 144v353h-281v-353h281zM537 644v203h409v72h-890v-72h407v-203h-334v-70h334v-518h74v405c101 -82 166 -213 198 -369l75 13c-12 61 -30 118 -51 170c69 63 151 143 192 196l-55 56c-36 -49 -104 -122 -168 -185
c-36 69 -81 128 -135 174c-11 -13 -38 -38 -56 -52v110h342v70h-342z" />
</svg>
