<?xml version="1.0" standalone="no"?>
<!DOCTYPE svg PUBLIC "-//W3C//DTD SVG 1.1//EN" "http://www.w3.org/Graphics/SVG/1.1/DTD/svg11.dtd" >
<svg xmlns="http://www.w3.org/2000/svg" xmlns:xlink="http://www.w3.org/1999/xlink" version="1.1" viewBox="-10 0 1010 1000">
   <path fill="currentColor"
d="M928 142l-49 33c-15 -28 -46 -70 -76 -99l47 -29c30 28 63 67 78 95zM310 637l13 67c-91 43 -188 86 -262 120l-22 -75c33 -12 73 -29 116 -46v-347h-101v-70h101v-231h62v231h91v70h-91v320zM638 535h-87c-13 47 -27 93 -41 132c25 13 49 28 72 43
c25 -49 45 -106 56 -175zM690 794l-38 45c-16 -16 -35 -34 -56 -50c-43 64 -99 107 -162 136c-6 -14 -19 -35 -30 -46c57 -24 109 -64 150 -123c-34 -23 -70 -47 -105 -65c17 -41 34 -97 50 -156h-73v-58h87c8 -31 15 -62 20 -90h-96v-55h248v55h-99c-6 28 -13 60 -20 90h89
l10 -1l32 7c-11 106 -37 190 -71 257c24 18 47 37 64 54zM869 348l59 9c-22 131 -52 250 -95 352c22 110 48 178 69 178c12 0 20 -37 23 -119c14 16 32 30 47 39c-11 107 -29 147 -80 147c-41 0 -75 -59 -102 -156c-31 55 -66 104 -106 145c-9 -12 -33 -34 -47 -45
c53 -50 96 -115 131 -189c-25 -125 -42 -288 -52 -459h-302v204c0 144 -13 358 -89 502c-10 -14 -36 -41 -48 -49c67 -133 74 -319 74 -454v-270h362c-2 -46 -3 -93 -4 -139h66c0 47 1 93 2 139h171v67h-169c7 127 19 246 33 345c26 -76 43 -159 57 -247z" />
</svg>
