<?xml version="1.0" standalone="no"?>
<!DOCTYPE svg PUBLIC "-//W3C//DTD SVG 1.1//EN" "http://www.w3.org/Graphics/SVG/1.1/DTD/svg11.dtd" >
<svg xmlns="http://www.w3.org/2000/svg" xmlns:xlink="http://www.w3.org/1999/xlink" version="1.1" viewBox="-10 0 1010 1000">
   <path fill="currentColor"
d="M323 643l13 67c-96 41 -198 82 -279 114l-23 -75c35 -11 78 -27 125 -44v-349h-109v-70h109v-231h68v231h94v70h-94v324c31 -13 64 -25 96 -37zM783 681h-248c33 39 74 74 123 104c50 -29 92 -63 125 -104zM507 440v68h309v-68h-309zM507 323v66h309v-66h-309zM840 620
l45 25c-37 72 -94 129 -163 174c73 34 158 59 247 72c-15 15 -35 45 -45 65c-98 -19 -190 -53 -268 -98c-95 48 -205 79 -317 97c-6 -18 -21 -47 -33 -61c101 -14 202 -39 288 -77c-40 -30 -75 -63 -105 -102c-37 33 -77 61 -116 85c-12 -12 -37 -38 -52 -48
c87 -46 170 -113 223 -191h-104v-276c-17 20 -33 39 -50 55c-13 -11 -41 -33 -57 -43c69 -61 128 -155 161 -254l70 18c-10 27 -23 55 -35 81h413v62h-447c-14 23 -28 44 -43 65h433v292h-265c-12 21 -27 43 -44 63h252z" />
</svg>
