<?xml version="1.0" standalone="no"?>
<!DOCTYPE svg PUBLIC "-//W3C//DTD SVG 1.1//EN" "http://www.w3.org/Graphics/SVG/1.1/DTD/svg11.dtd" >
<svg xmlns="http://www.w3.org/2000/svg" xmlns:xlink="http://www.w3.org/1999/xlink" version="1.1" viewBox="-10 0 1010 1000">
   <path fill="currentColor"
d="M230 677l93 -37l14 65c-94 42 -195 84 -275 117l-23 -72c34 -12 76 -28 121 -45v-350h-104v-69h104v-232h70v233h93v68h-93v322zM495 428v90h306v-90h-306zM717 694v86h221v59h-221v116h-72v-116h-265c11 -37 23 -88 31 -132l65 7c-4 21 -8 45 -13 66h182v-86h-270v-58
h270v-63h-219v-200h447v200h-156v63h188v58h-188zM785 181h-168c-8 29 -16 59 -23 83h191v-83zM856 264h98v59h-594v-59h162c8 -25 15 -54 23 -83h-124v-58h138c7 -27 13 -55 18 -80l70 7c-5 23 -11 48 -17 73h226v141z" />
</svg>
