<?xml version="1.0" standalone="no"?>
<!DOCTYPE svg PUBLIC "-//W3C//DTD SVG 1.1//EN" "http://www.w3.org/Graphics/SVG/1.1/DTD/svg11.dtd" >
<svg xmlns="http://www.w3.org/2000/svg" xmlns:xlink="http://www.w3.org/1999/xlink" version="1.1" viewBox="-10 0 1010 1000">
   <path fill="currentColor"
d="M921 113v55h-837v-55h395c-12 -21 -27 -42 -42 -60l70 -16c20 22 42 51 54 76h360zM893 394v196c0 32 -7 47 -28 57s-53 10 -95 10c-4 -19 -12 -40 -20 -58c27 1 51 1 60 0c8 0 10 -2 10 -9v-147h-635v215h-70v-264h778zM359 523v56h280v-56h-280zM705 618h-409v-134h409
v134zM694 308v-56h-383v56h383zM242 211h525v137h-525v-137zM535 861h416v61h-901v-61h410v-93h-307v-59h307v-61h75v61h312v59h-312v93z" />
</svg>
