<?xml version="1.0" standalone="no"?>
<!DOCTYPE svg PUBLIC "-//W3C//DTD SVG 1.1//EN" "http://www.w3.org/Graphics/SVG/1.1/DTD/svg11.dtd" >
<svg xmlns="http://www.w3.org/2000/svg" xmlns:xlink="http://www.w3.org/1999/xlink" version="1.1" viewBox="-10 0 1010 1000">
   <path fill="currentColor"
d="M291 624l12 58c-83 36 -168 72 -237 100l-24 -65c29 -10 64 -23 102 -37v-334h-88v-64h88v-227h63v227h78v64h-78v310zM317 144l-1 -59h211v283h-138c-3 57 -7 116 -12 168h150s0 20 -1 30c-13 235 -25 320 -50 349c-16 18 -32 24 -58 27c-23 2 -66 2 -109 -1
c-2 -19 -8 -43 -18 -60c44 4 84 4 100 4c16 1 24 -1 32 -10c16 -18 28 -90 38 -276h-150c9 -76 18 -198 21 -290h135v-165h-150zM902 593l46 42c-35 34 -77 69 -113 95c39 61 85 112 134 144c-13 13 -32 38 -42 55c-98 -71 -180 -215 -227 -365h-52v294l123 -50
c1 17 6 42 10 54c-141 62 -176 79 -192 92l-6 5c-4 -17 -14 -52 -24 -70c14 -6 29 -19 29 -55v-270h-46v-62h61v-408h331v61h-269v76h239v55h-239v77h237v56h-237v83h284v62h-195c15 42 34 83 55 122c33 -29 71 -66 93 -93z" />
</svg>
