<?xml version="1.0" standalone="no"?>
<!DOCTYPE svg PUBLIC "-//W3C//DTD SVG 1.1//EN" "http://www.w3.org/Graphics/SVG/1.1/DTD/svg11.dtd" >
<svg xmlns="http://www.w3.org/2000/svg" xmlns:xlink="http://www.w3.org/1999/xlink" version="1.1" viewBox="-10 0 1010 1000">
   <path fill="currentColor"
d="M322 588l15 66c-94 48 -196 98 -273 136l-28 -74c35 -13 77 -32 123 -53v-310h-107v-71h107v-227h66v227h95v71h-95v280c32 -15 64 -29 97 -45zM457 725l65 19c-44 68 -113 140 -173 186c-13 -12 -40 -32 -56 -42c61 -42 124 -103 164 -163zM494 555v73h285v-73h-285z
M661 211h-44c-29 64 -64 120 -108 168h264c-46 -49 -83 -107 -112 -168zM779 504v-72h-285v72h285zM847 682h-175v197c0 36 -6 55 -32 67c-25 10 -63 11 -119 11c-2 -20 -13 -47 -23 -67c42 2 77 2 89 1s15 -4 15 -13v-196h-174v-230c-20 15 -41 28 -64 41
c-9 -15 -32 -43 -47 -57c47 -24 88 -53 124 -87c-23 -26 -52 -53 -80 -75l44 -37c26 19 55 43 77 67c23 -29 41 -59 58 -93h-182v-62h209c11 -32 20 -68 28 -105l71 9c-7 33 -16 66 -26 96h301v62h-213c21 39 48 75 79 108c27 -26 57 -59 74 -83l54 36c-29 29 -62 60 -90 84
c36 31 76 57 118 75c-16 13 -38 38 -47 56c-24 -12 -46 -25 -69 -42v237zM741 754l55 -34c58 50 127 121 160 168l-59 37c-30 -47 -98 -120 -156 -171z" />
</svg>
