<?xml version="1.0" standalone="no"?>
<!DOCTYPE svg PUBLIC "-//W3C//DTD SVG 1.1//EN" "http://www.w3.org/Graphics/SVG/1.1/DTD/svg11.dtd" >
<svg xmlns="http://www.w3.org/2000/svg" xmlns:xlink="http://www.w3.org/1999/xlink" version="1.1" viewBox="-10 0 1010 1000">
   <path fill="currentColor"
d="M931 173l-53 33c-16 -34 -57 -84 -93 -117l50 -28c37 32 79 79 96 112zM236 389l-44 30c-8 -17 -24 -38 -43 -58c-16 32 -37 60 -60 83c-9 -9 -31 -26 -45 -34c50 -44 82 -108 96 -184l53 8c-5 28 -12 55 -22 80c25 23 52 54 65 75zM263 659v-189
c-49 69 -112 131 -174 168c-11 -15 -30 -38 -44 -49c85 -43 173 -133 218 -224v-163h-200v-61h200v-98h68v98h194v61h-194v183c47 -38 73 -93 85 -159l54 7c-5 28 -12 53 -22 77c31 26 68 64 84 90l-40 33c-14 -21 -40 -52 -66 -78c-15 26 -32 47 -53 65
c-9 -9 -28 -24 -42 -32v24c37 21 144 92 170 112l-37 51c-25 -23 -87 -70 -133 -103v187h-68zM535 773v88h417v63h-902v-63h411v-88h-319v-61h319v-64h68c-12 -15 -29 -30 -43 -40c129 -86 169 -200 182 -300h-151v-63h156c1 -15 1 -29 1 -43v-158h71v158c0 14 0 28 -1 43
h189v63h-180c37 132 106 250 203 304c-17 13 -38 38 -48 57c-85 -55 -147 -152 -189 -268c-26 89 -78 181 -182 257l-2 -3v57h332v61h-332z" />
</svg>
