<?xml version="1.0" standalone="no"?>
<!DOCTYPE svg PUBLIC "-//W3C//DTD SVG 1.1//EN" "http://www.w3.org/Graphics/SVG/1.1/DTD/svg11.dtd" >
<svg xmlns="http://www.w3.org/2000/svg" xmlns:xlink="http://www.w3.org/1999/xlink" version="1.1" viewBox="-10 0 1010 1000">
   <path fill="currentColor"
d="M949 154v66h-631v-66h290c-12 -28 -28 -61 -44 -86l57 -22c23 33 44 76 56 108h272zM297 657l13 68c-85 35 -174 71 -246 99l-25 -75c33 -10 73 -23 116 -39v-354h-99v-70h99v-231h70v231h86v70h-86v329zM422 635l87 -21c5 -17 9 -34 12 -53l57 11
c-35 168 -111 298 -241 377c-9 -13 -29 -35 -42 -45c89 -53 153 -127 193 -224c-117 32 -141 41 -153 51c-4 -14 -14 -43 -21 -59c17 -4 34 -26 54 -58c13 -18 42 -66 73 -126c-80 11 -99 16 -111 23v1c-4 -14 -14 -45 -22 -61c12 -3 24 -17 35 -39c12 -21 51 -102 68 -180
l61 28c-21 59 -49 122 -77 173l76 -8c11 -24 21 -48 30 -73l56 30c-39 87 -86 178 -135 253zM674 720v115h92v-115h-92zM766 513v-100h-92v100h92zM766 666v-99h-92v99h92zM950 835v59h-276v51h-60v-454c-12 19 -24 36 -35 50c-11 -9 -35 -30 -49 -40
c56 -64 104 -162 131 -259l59 14c-9 33 -21 66 -34 98h106c-11 -29 -26 -63 -41 -89l51 -19c20 33 40 76 50 108h90v59h-116v100h98v54h-98v99h98v54h-98v115h124z" />
</svg>
