<?xml version="1.0" standalone="no"?>
<!DOCTYPE svg PUBLIC "-//W3C//DTD SVG 1.1//EN" "http://www.w3.org/Graphics/SVG/1.1/DTD/svg11.dtd" >
<svg xmlns="http://www.w3.org/2000/svg" xmlns:xlink="http://www.w3.org/1999/xlink" version="1.1" viewBox="-10 0 1010 1000">
   <path fill="currentColor"
d="M323 595l16 66c-94 46 -195 93 -273 129l-28 -74c34 -12 76 -30 121 -48v-315h-104v-71h104v-227h66v227h99v71h-99v286c32 -15 65 -29 98 -44zM837 787h-258v79h258v-79zM511 953v-214h397v209h-71v-35h-258v40h-68zM514 693v-46h381v46h-381zM896 551v46h-381v-46h381z
M655 387l53 -19c16 26 31 61 41 87h200v47h-480v-47h217c-10 -23 -21 -47 -31 -68zM623 275l52 31c-46 44 -103 89 -150 120l-45 -29c46 -31 108 -84 143 -122zM738 317l31 -39c60 32 125 73 165 105l-35 44c-38 -35 -103 -78 -161 -110zM705 148h-175c-14 22 -30 43 -47 65
h181c15 -20 28 -42 41 -65zM739 213h212v57h-490v200c0 144 -13 348 -95 487c-14 -11 -45 -24 -62 -28c82 -136 91 -324 91 -459v-166l-16 13c-9 -16 -31 -41 -46 -52c87 -66 146 -153 178 -225l72 13c-7 14 -14 27 -21 41h178l11 -3l46 30c-16 31 -36 63 -58 92z" />
</svg>
