<?xml version="1.0" standalone="no"?>
<!DOCTYPE svg PUBLIC "-//W3C//DTD SVG 1.1//EN" "http://www.w3.org/Graphics/SVG/1.1/DTD/svg11.dtd" >
<svg xmlns="http://www.w3.org/2000/svg" xmlns:xlink="http://www.w3.org/1999/xlink" version="1.1" viewBox="-10 0 1010 1000">
   <path fill="currentColor"
d="M323 598l14 61c-94 44 -193 89 -271 125l-26 -67c34 -13 77 -31 123 -50v-317h-106v-68h106v-227h67v227h95v68h-95v288zM346 954l-57 -30c45 -43 82 -116 105 -172l56 24c-24 59 -58 133 -104 178zM516 777l57 -10c16 54 29 124 32 170l-60 11c-2 -46 -15 -117 -29 -171
zM811 200v-67h-383v67h383zM811 320v-69h-383v69h383zM880 80v293h-519v-293h519zM528 599l40 -17c27 46 52 105 62 146l-43 19c-3 -14 -9 -30 -14 -48c-169 19 -198 24 -216 30c-4 -9 -13 -35 -21 -48c18 -2 37 -16 60 -39c14 -12 46 -44 80 -85c-90 7 -112 11 -126 16
c-3 -11 -13 -35 -20 -46c14 -2 25 -11 39 -26c15 -15 61 -72 86 -128l56 25c-23 40 -52 78 -81 111l87 -5c14 -19 26 -38 38 -57l54 32c-46 63 -102 127 -160 181l104 -10c-8 -18 -17 -35 -25 -51zM952 728l-45 22c-4 -15 -11 -32 -19 -51c-184 21 -214 26 -233 34
c-3 -11 -13 -36 -21 -48c18 -3 37 -18 61 -40c13 -11 43 -43 75 -81c-88 6 -109 10 -123 15c-4 -10 -13 -35 -20 -46c13 -2 24 -11 38 -26c13 -14 58 -70 81 -125l57 24c-22 38 -50 77 -77 109l85 -4c16 -21 30 -41 42 -62l54 31c-46 64 -101 129 -160 183l117 -11
c-9 -18 -18 -34 -28 -49l40 -20c32 46 63 105 76 145zM652 780l55 -18c28 51 56 120 68 164l-58 20c-10 -45 -37 -114 -65 -166zM791 769l55 -24c43 57 88 133 107 183l-57 27c-19 -51 -63 -129 -105 -186z" />
</svg>
