<?xml version="1.0" standalone="no"?>
<!DOCTYPE svg PUBLIC "-//W3C//DTD SVG 1.1//EN" "http://www.w3.org/Graphics/SVG/1.1/DTD/svg11.dtd" >
<svg xmlns="http://www.w3.org/2000/svg" xmlns:xlink="http://www.w3.org/1999/xlink" version="1.1" viewBox="-10 0 1010 1000">
   <path fill="currentColor"
d="M950 351v49h-626v-49h269v-57h-216v-46h216v-53h-247v-49h146c-13 -25 -36 -59 -55 -84l58 -23c23 27 51 66 62 90l-38 17h178c25 -32 52 -75 68 -106l69 21c-20 29 -43 60 -63 85h145v49h-251v53h233v46h-233v57h285zM914 484l-38 38c-24 -21 -71 -54 -110 -74l37 -33
c37 19 86 49 111 69zM222 662l74 -32l15 63c-84 41 -172 83 -243 116l-29 -69c32 -13 71 -29 114 -47v-343h-97v-67h97v-228h69v228h83v67h-83v312zM882 602l49 28c-28 66 -71 132 -121 188c24 50 51 78 79 78c18 -1 26 -30 29 -102c14 11 33 23 49 28
c-10 103 -31 133 -82 133c-46 0 -85 -33 -118 -93c-32 31 -65 56 -100 75c-8 -12 -23 -29 -38 -41c-5 21 -10 33 -17 41c-13 13 -26 17 -47 18c-17 1 -49 1 -80 -1c-1 -15 -7 -34 -14 -48c32 3 63 4 73 4c12 0 19 -1 25 -7c6 -8 12 -31 17 -85h-85c9 -23 18 -52 26 -80h-61
c-12 97 -41 178 -117 226c-6 -12 -23 -31 -36 -38c63 -40 88 -109 97 -188h-56v-48h239c-8 27 -17 56 -24 82h73s0 16 -1 24c-3 40 -6 68 -10 91c38 -21 76 -48 110 -82c-24 -61 -41 -139 -52 -227h-149c30 15 104 50 125 62l-31 41c-19 -16 -69 -46 -104 -66v55h-60v-67
c-37 35 -87 72 -127 92c-9 -12 -26 -31 -38 -39c41 -17 89 -48 125 -78h-105v-49h145v-50c-40 3 -80 4 -117 4c-2 -12 -7 -28 -14 -40c96 -3 213 -12 278 -25l34 39c-34 6 -76 12 -121 17v55h154c-4 -35 -6 -72 -7 -110h61c1 38 3 75 6 110h204v49h-199c9 70 21 131 37 179
c41 -47 75 -101 96 -155z" />
</svg>
