<?xml version="1.0" standalone="no"?>
<!DOCTYPE svg PUBLIC "-//W3C//DTD SVG 1.1//EN" "http://www.w3.org/Graphics/SVG/1.1/DTD/svg11.dtd" >
<svg xmlns="http://www.w3.org/2000/svg" xmlns:xlink="http://www.w3.org/1999/xlink" version="1.1" viewBox="-10 0 1010 1000">
   <path fill="currentColor"
d="M944 258v57h-448v-57h190v-80h-149v-57h149v-76h62v76h154v57h-154v80h196zM714 528h94v-79h-75v-53h75v-65h52v65h68v53h-68v79h81v54h-227v-54zM698 518l2 50c-75 13 -148 25 -209 35l-10 -57c25 -3 56 -7 89 -11v-86h-73v-53h73v-65h53v65h68v53h-68v79zM461 252v56
h-398v-56h172v-81h-132v-56h132v-76h60v76h126v56h-126v81h166zM260 522h80v-80h-61v-52h61v-67h51v67h55v52h-55v80h65v54h-196v-54zM245 514l1 50c-66 12 -129 24 -184 33l-10 -58c24 -2 52 -6 81 -10v-87h-65v-52h65v-67h52v67h54v52h-54v80zM357 841l85 -46
c6 15 18 33 26 44c-111 66 -148 89 -165 103l-11 10c-6 -15 -18 -44 -28 -59c14 -8 34 -28 34 -67v-135h-68c-12 129 -45 210 -162 257c-6 -17 -21 -43 -33 -56c101 -36 129 -98 139 -201h-120v-61h407v61h-104v150zM827 885h59c19 0 22 -12 24 -102c13 11 37 21 53 26
c-5 108 -21 135 -70 135h-75c-59 0 -74 -18 -74 -82v-163h-73c-12 131 -48 213 -173 260c-7 -17 -23 -43 -36 -55c109 -38 140 -99 150 -205h-127v-63h465v63h-146v162c0 21 3 24 23 24z" />
</svg>
