<?xml version="1.0" standalone="no"?>
<!DOCTYPE svg PUBLIC "-//W3C//DTD SVG 1.1//EN" "http://www.w3.org/Graphics/SVG/1.1/DTD/svg11.dtd" >
<svg xmlns="http://www.w3.org/2000/svg" xmlns:xlink="http://www.w3.org/1999/xlink" version="1.1" viewBox="-10 0 1010 1000">
   <path fill="currentColor"
d="M904 430l-45 57c-88 -51 -241 -123 -375 -174c-59 94 -165 155 -367 190c-6 -17 -24 -48 -37 -63c229 -37 323 -103 365 -216h-345v-66h363c7 -34 12 -73 15 -114h76c-4 41 -8 79 -15 114h367v66h-383c-3 11 -7 22 -11 32c136 49 298 124 392 174zM942 630h-381
c63 146 192 226 399 254c-15 15 -36 46 -45 67c-213 -36 -343 -126 -414 -291c-49 148 -157 247 -419 298c-6 -17 -24 -48 -37 -62c250 -46 345 -133 388 -266h-374v-68h389c7 -37 11 -76 15 -120h76c-4 43 -8 83 -15 120h418v68z" />
</svg>
