<?xml version="1.0" standalone="no"?>
<!DOCTYPE svg PUBLIC "-//W3C//DTD SVG 1.1//EN" "http://www.w3.org/Graphics/SVG/1.1/DTD/svg11.dtd" >
<svg xmlns="http://www.w3.org/2000/svg" xmlns:xlink="http://www.w3.org/1999/xlink" version="1.1" viewBox="-10 0 1010 1000">
   <path fill="currentColor"
d="M534 254v86c0 35 -1 70 -4 104c54 231 177 379 416 435c-17 16 -38 46 -48 67c-204 -57 -325 -177 -395 -363c-45 142 -151 277 -394 373c-11 -17 -37 -47 -55 -62c369 -139 405 -358 405 -554v-86h-400v-72h400v-134h75v134h408v72h-408zM388 563l-60 38
c-18 -36 -46 -85 -80 -134c-35 64 -82 125 -129 166c-12 -12 -38 -33 -54 -44c58 -45 109 -112 140 -186c-19 -27 -40 -54 -59 -78l57 -32c68 83 149 198 185 270zM935 596l-61 35c-20 -46 -56 -106 -99 -165c-30 61 -72 116 -118 155c-12 -10 -39 -29 -55 -38
c55 -43 101 -106 126 -179c-23 -29 -48 -58 -72 -83l56 -31c89 92 184 219 223 306z" />
</svg>
