<?xml version="1.0" standalone="no"?>
<!DOCTYPE svg PUBLIC "-//W3C//DTD SVG 1.1//EN" "http://www.w3.org/Graphics/SVG/1.1/DTD/svg11.dtd" >
<svg xmlns="http://www.w3.org/2000/svg" xmlns:xlink="http://www.w3.org/1999/xlink" version="1.1" viewBox="-10 0 1010 1000">
   <path fill="currentColor"
d="M751 655h-497v75h497v-75zM254 864h497v-84h-497v84zM183 956v-359h641v359h-73v-37h-497v37h-71zM939 190h-277c73 65 185 116 301 139c-15 14 -35 41 -45 60c-134 -34 -262 -107 -339 -199h-149c-51 54 -116 103 -198 145v40c169 -14 361 -36 467 -65l48 46
c-131 35 -337 58 -515 69v23c0 30 18 37 120 37h375c69 0 81 -10 87 -72c17 10 44 18 64 21c-11 88 -38 108 -146 108h-376c-152 0 -193 -16 -193 -93v-83c-26 11 -54 21 -82 30c-7 -18 -25 -45 -39 -58c125 -36 222 -88 291 -148h-270v-62h330c23 -27 40 -56 53 -84l75 13
c-12 25 -26 48 -42 71h460v62z" />
</svg>
