<?xml version="1.0" standalone="no"?>
<!DOCTYPE svg PUBLIC "-//W3C//DTD SVG 1.1//EN" "http://www.w3.org/Graphics/SVG/1.1/DTD/svg11.dtd" >
<svg xmlns="http://www.w3.org/2000/svg" xmlns:xlink="http://www.w3.org/1999/xlink" version="1.1" viewBox="-10 0 1010 1000">
   <path fill="currentColor"
d="M562 199h-118c-81 86 -200 160 -362 210c-7 -17 -24 -43 -38 -55c130 -38 232 -92 304 -155h-284v-62h345c25 -30 44 -62 58 -93l73 14c-13 27 -28 54 -46 79h444v62h-295c75 70 195 124 317 150c-16 14 -36 41 -46 59c-139 -34 -274 -110 -352 -209zM465 698l-48 56
c-19 -30 -64 -89 -101 -135v338h-71v-324c-47 96 -109 188 -171 244c-7 -21 -24 -52 -37 -70c72 -58 147 -165 191 -267h-144v-65h161v-112h71v112h149v65h-149v2c31 29 127 129 149 156zM912 540h-149c50 105 131 220 199 278c-16 12 -39 36 -52 53
c-59 -61 -127 -167 -175 -272v357h-71v-347c-51 106 -121 206 -194 264c-10 -16 -32 -41 -47 -53c81 -57 165 -167 214 -280h-147v-66h174v-112h71v112h177v66z" />
</svg>
