<?xml version="1.0" standalone="no"?>
<!DOCTYPE svg PUBLIC "-//W3C//DTD SVG 1.1//EN" "http://www.w3.org/Graphics/SVG/1.1/DTD/svg11.dtd" >
<svg xmlns="http://www.w3.org/2000/svg" xmlns:xlink="http://www.w3.org/1999/xlink" version="1.1" viewBox="-10 0 1010 1000">
   <path fill="currentColor"
d="M937 369l-42 51c-39 -34 -109 -87 -172 -130c-34 63 -89 105 -182 134c-6 -15 -21 -41 -34 -52c110 -33 159 -85 182 -168h-166v-62h179c4 -29 6 -62 8 -97h62c-2 35 -4 68 -8 97h174v62h-184c-3 11 -6 22 -9 31c65 41 148 98 192 134zM440 367l-39 51
c-36 -34 -102 -87 -160 -130c-32 63 -83 106 -169 136c-5 -17 -20 -43 -31 -54c101 -33 147 -85 168 -168h-153v-62h164c4 -29 6 -62 8 -97h58c-2 35 -4 68 -8 97h164v62h-173c-3 11 -5 21 -8 30c60 42 138 98 179 135zM233 622h-98v115h98v-115zM285 793h-150v66h-49v-293
h199v227zM31 502v-65h427v65h-50v371c0 40 -8 59 -31 71c-24 12 -62 13 -120 13c-3 -21 -13 -49 -23 -69c45 2 85 2 97 1c12 0 16 -4 16 -17v-370h-316zM715 624h-107v115h107v-115zM769 795h-161v66h-53v-293h214v227zM957 439v65h-56v371c0 39 -8 58 -33 70
c-26 11 -66 12 -127 12c-4 -20 -15 -48 -24 -67c48 2 91 2 103 1c13 0 17 -4 17 -17v-370h-342v-65h462z" />
</svg>
