<?xml version="1.0" standalone="no"?>
<!DOCTYPE svg PUBLIC "-//W3C//DTD SVG 1.1//EN" "http://www.w3.org/Graphics/SVG/1.1/DTD/svg11.dtd" >
<svg xmlns="http://www.w3.org/2000/svg" xmlns:xlink="http://www.w3.org/1999/xlink" version="1.1" viewBox="-10 0 1010 1000">
   <path fill="currentColor"
d="M300 317h-95c-17 88 -37 173 -59 245c31 22 61 45 90 70c32 -87 53 -192 64 -315zM370 765l-45 59c-16 -23 -38 -47 -64 -74c-46 92 -108 159 -183 207c-10 -19 -28 -46 -45 -61c72 -39 131 -105 175 -197c-44 -40 -93 -79 -138 -111c25 -70 50 -168 68 -271h-83v-69h96
c12 -70 21 -141 27 -204l71 7c-9 62 -19 130 -31 197h98l13 -2l41 6c-11 178 -36 318 -79 429c33 29 60 58 79 84zM710 229l54 16c-21 96 -48 192 -80 282c45 98 83 192 105 261l-55 38c-18 -59 -46 -137 -80 -219c-39 98 -86 185 -136 254c-11 -17 -32 -37 -50 -50
c57 -71 109 -171 152 -281c-34 -79 -71 -158 -107 -228l49 -29c28 55 58 116 88 177c23 -71 44 -147 60 -221zM425 98h429c-7 455 6 756 47 757c10 0 18 -37 22 -93c10 17 34 38 45 46c-18 110 -45 138 -70 138c-99 -1 -109 -300 -109 -782h-299v277c0 156 -15 378 -116 521
c-10 -15 -36 -42 -49 -51c91 -134 100 -325 100 -471v-342z" />
</svg>
