<?xml version="1.0" standalone="no"?>
<!DOCTYPE svg PUBLIC "-//W3C//DTD SVG 1.1//EN" "http://www.w3.org/Graphics/SVG/1.1/DTD/svg11.dtd" >
<svg xmlns="http://www.w3.org/2000/svg" xmlns:xlink="http://www.w3.org/1999/xlink" version="1.1" viewBox="-10 0 1010 1000">
   <path fill="currentColor"
d="M316 317h-115c-17 91 -36 179 -55 252c33 24 65 50 97 78c36 -90 60 -200 73 -330zM399 806l-52 57c-19 -28 -48 -62 -81 -97c-47 83 -107 145 -178 190c-11 -18 -31 -46 -46 -60c68 -38 125 -99 170 -182c-47 -44 -98 -87 -146 -122c21 -71 44 -171 63 -275h-83v-69h96
c11 -73 21 -146 27 -210l72 4c-7 64 -17 134 -29 206h121l13 -3l44 9c-13 186 -43 331 -91 444c41 38 76 76 100 108zM556 461v399h169v-399h-169zM796 860h158v68h-576v-68h106v-718c127 -23 271 -58 352 -91l64 55c-95 34 -225 64 -344 85v202h374v68h-134v399z" />
</svg>
