<?xml version="1.0" standalone="no"?>
<!DOCTYPE svg PUBLIC "-//W3C//DTD SVG 1.1//EN" "http://www.w3.org/Graphics/SVG/1.1/DTD/svg11.dtd" >
<svg xmlns="http://www.w3.org/2000/svg" xmlns:xlink="http://www.w3.org/1999/xlink" version="1.1" viewBox="-10 0 1010 1000">
   <path fill="currentColor"
d="M728 194l-65 25c-9 -39 -31 -102 -55 -149l61 -20c25 45 49 106 59 144zM289 317h-99c-18 97 -39 192 -57 269c29 22 59 47 88 72c35 -91 57 -204 68 -341zM318 247l41 6c-10 193 -38 341 -85 454c44 42 82 83 106 120l-50 52c-20 -32 -51 -68 -86 -106
c-45 80 -101 138 -169 181c-11 -18 -29 -44 -43 -58c64 -35 118 -93 160 -173c-44 -40 -91 -81 -135 -113c23 -76 46 -183 66 -293h-80v-68h92c11 -72 20 -142 26 -205l70 4c-7 62 -17 131 -29 201h103zM897 396l51 52c-52 57 -116 125 -170 172c46 109 105 199 177 253
c-15 13 -39 38 -51 55c-128 -106 -211 -312 -260 -543c-22 35 -46 69 -71 100v358l134 -56c4 19 14 45 20 60c-187 80 -216 95 -235 112c-5 -18 -18 -48 -29 -64c17 -8 43 -26 43 -64v-268c-36 39 -75 74 -114 103c-8 -14 -31 -47 -44 -60c104 -73 202 -185 268 -307h-206
v-70h529v70h-247l-4 9c15 88 38 175 67 255c49 -49 108 -117 142 -167z" />
</svg>
