<?xml version="1.0" standalone="no"?>
<!DOCTYPE svg PUBLIC "-//W3C//DTD SVG 1.1//EN" "http://www.w3.org/Graphics/SVG/1.1/DTD/svg11.dtd" >
<svg xmlns="http://www.w3.org/2000/svg" xmlns:xlink="http://www.w3.org/1999/xlink" version="1.1" viewBox="-10 0 1010 1000">
   <path fill="currentColor"
d="M281 321h-90c-16 89 -34 176 -55 248c30 22 60 46 90 71c28 -87 46 -194 55 -319zM309 251l40 6c-8 179 -32 320 -70 432c40 37 75 74 98 106l-46 53c-18 -28 -46 -59 -78 -92c-41 90 -95 156 -164 204c-9 -18 -28 -43 -44 -57c65 -40 117 -106 156 -198
c-44 -41 -92 -80 -137 -113l2 -2c22 -70 43 -167 60 -269h-84v-68h93c11 -71 19 -143 25 -208l69 7c-7 63 -17 132 -28 201h96zM651 226v113h51c32 -36 63 -73 90 -113h-141zM957 407h-228c-28 29 -56 57 -87 83h280v62h-315c-10 39 -21 78 -30 113h306l-3 31
c-16 146 -31 208 -57 234c-18 18 -37 23 -67 25c-25 1 -74 1 -124 -2c-1 -21 -11 -47 -22 -66c52 5 103 6 122 6c18 0 28 -1 37 -9c15 -15 29 -59 40 -156h-319c14 -41 30 -98 45 -154c-56 39 -115 73 -175 104c-10 -15 -34 -43 -48 -57c119 -53 229 -126 323 -214h-256v-68
h202v-113h-160v-65h160v-118h70v118h152v49c25 -39 49 -79 70 -122l62 25c-41 82 -91 158 -147 226h169v68z" />
</svg>
