<?xml version="1.0" standalone="no"?>
<!DOCTYPE svg PUBLIC "-//W3C//DTD SVG 1.1//EN" "http://www.w3.org/Graphics/SVG/1.1/DTD/svg11.dtd" >
<svg xmlns="http://www.w3.org/2000/svg" xmlns:xlink="http://www.w3.org/1999/xlink" version="1.1" viewBox="-10 0 1010 1000">
   <path fill="currentColor"
d="M287 317h-94c-18 96 -38 190 -60 266c29 22 59 47 88 71c33 -90 55 -202 66 -337zM316 247l43 6c-10 192 -37 338 -83 451c46 43 86 85 110 122l-51 52c-21 -32 -53 -69 -89 -106c-44 81 -100 140 -168 183c-11 -17 -30 -44 -45 -59c65 -36 118 -95 160 -175
c-44 -40 -90 -79 -134 -110l-2 -1v-1h1c25 -76 48 -181 67 -292h-81v-68h91c10 -72 19 -143 25 -207l72 7c-8 63 -17 131 -29 200h100zM953 427h-337c-20 42 -44 82 -70 118h128v-89h65v89h188v250c0 34 -5 52 -28 63c-21 11 -56 11 -105 11c-3 -19 -12 -44 -20 -62
c35 1 65 1 74 0c10 0 13 -3 13 -12v-185h-122v347h-65v-347h-123v261h-66v-249c-20 21 -40 41 -61 59c-10 -14 -35 -41 -49 -52c65 -51 123 -121 168 -202h-131v-65h162c15 -31 27 -65 38 -99c-51 22 -102 42 -151 59c-10 -15 -33 -44 -46 -58c74 -21 153 -49 225 -83
c-67 -26 -136 -51 -200 -68l43 -49c74 19 154 48 231 79c53 -30 101 -64 137 -100l61 31c-36 35 -80 68 -128 99c61 26 116 53 158 77l-43 56c-47 -29 -111 -62 -184 -93c-32 16 -65 33 -99 48l62 15c-10 29 -21 59 -31 86h306v65z" />
</svg>
