<?xml version="1.0" standalone="no"?>
<!DOCTYPE svg PUBLIC "-//W3C//DTD SVG 1.1//EN" "http://www.w3.org/Graphics/SVG/1.1/DTD/svg11.dtd" >
<svg xmlns="http://www.w3.org/2000/svg" xmlns:xlink="http://www.w3.org/1999/xlink" version="1.1" viewBox="-10 0 1010 1000">
   <path fill="currentColor"
d="M291 321h-101c-15 90 -32 177 -49 249c29 24 58 49 88 75c31 -88 52 -197 62 -324zM320 250l43 8c-11 182 -36 326 -80 438c39 36 72 70 95 99l-48 57c-19 -26 -46 -56 -77 -88c-42 85 -97 148 -165 193c-10 -18 -30 -43 -46 -57c65 -39 118 -101 158 -187
c-44 -42 -92 -86 -135 -121c19 -71 40 -168 58 -271h-71v-68h81c11 -74 20 -149 25 -214l69 4c-6 64 -15 137 -27 210h107zM574 188l-8 13c25 41 61 83 108 120c49 -38 90 -84 120 -133h-220zM846 124l45 23c-36 85 -92 155 -159 213c64 39 144 71 237 90
c-15 15 -34 42 -42 59c-98 -23 -182 -61 -250 -108c-84 58 -182 99 -280 125c-8 -18 -23 -45 -36 -59c91 -20 183 -57 261 -108c-39 -34 -71 -72 -96 -108c-28 34 -58 63 -89 88c-11 -12 -38 -34 -53 -45c83 -58 154 -149 193 -250l65 16c-9 23 -20 45 -31 67h222zM709 708
v71h226v61h-226v118h-71v-118h-238v-61h238v-71h-186v-57h186v-66h-203v-57h203v-63h71v63h196v57h-196v66h179v57h-179z" />
</svg>
