<?xml version="1.0" standalone="no"?>
<!DOCTYPE svg PUBLIC "-//W3C//DTD SVG 1.1//EN" "http://www.w3.org/Graphics/SVG/1.1/DTD/svg11.dtd" >
<svg xmlns="http://www.w3.org/2000/svg" xmlns:xlink="http://www.w3.org/1999/xlink" version="1.1" viewBox="-10 0 1010 1000">
   <path fill="currentColor"
d="M924 286l-57 41c-9 -13 -19 -28 -32 -44c-324 22 -361 27 -386 37c-4 -17 -15 -55 -22 -75c14 -3 30 -18 49 -37c18 -20 80 -94 119 -169l72 27c-38 60 -86 122 -131 170l252 -14c-27 -35 -56 -70 -81 -99l55 -34c54 62 126 147 162 197zM710 362l44 -41
c63 43 151 109 202 154l-47 49c-44 -43 -133 -114 -199 -162zM565 325l61 26c-57 63 -136 135 -198 182c-12 -13 -38 -36 -52 -48c64 -42 139 -103 189 -160zM291 317h-95c-17 96 -38 189 -59 265c29 23 60 47 88 72c33 -90 55 -202 66 -337zM385 822l-51 52
c-19 -31 -50 -66 -85 -103c-43 81 -98 141 -166 184c-10 -18 -29 -44 -44 -59c64 -36 117 -95 158 -176c-43 -40 -88 -78 -131 -109l-3 -1v-1c26 -76 48 -181 67 -292h-80v-68h91c10 -72 19 -143 25 -207l69 7c-8 63 -17 131 -28 200h99l13 -2l41 6c-10 190 -36 337 -81 451
c44 41 82 82 106 118zM785 603h-212c24 51 58 98 101 138c46 -39 83 -85 111 -138zM833 540l45 20c-33 92 -87 165 -153 224c67 50 149 88 243 109c-15 14 -35 41 -45 60c-98 -26 -183 -69 -252 -127c-89 62 -193 103 -303 129c-6 -18 -22 -45 -35 -59
c104 -21 204 -59 289 -116c-38 -38 -70 -82 -95 -130c-32 36 -64 70 -96 96c-11 -12 -37 -36 -52 -47c78 -61 155 -152 201 -245l65 20c-12 23 -25 46 -39 69h215z" />
</svg>
