<?xml version="1.0" standalone="no"?>
<!DOCTYPE svg PUBLIC "-//W3C//DTD SVG 1.1//EN" "http://www.w3.org/Graphics/SVG/1.1/DTD/svg11.dtd" >
<svg xmlns="http://www.w3.org/2000/svg" xmlns:xlink="http://www.w3.org/1999/xlink" version="1.1" viewBox="-10 0 1010 1000">
   <path fill="currentColor"
d="M295 317h-95c-17 95 -37 187 -58 264c29 19 61 41 91 62c31 -88 51 -197 62 -326zM324 247l42 6c-9 183 -35 325 -76 435c37 32 69 62 91 89l-49 55c-17 -22 -42 -49 -71 -75c-44 88 -103 152 -175 198c-11 -18 -30 -44 -45 -59c67 -38 123 -100 164 -187
c-44 -36 -92 -70 -136 -98l-4 -1v-1l1 -1c25 -75 47 -180 66 -291h-80v-68h91c10 -72 19 -143 25 -207l71 7c-8 63 -17 131 -28 200h100zM689 689h156v-115h-156v115zM469 689h152v-115h-152v115zM621 398h-152v113h152v-113zM845 511v-113h-156v113h156zM916 334v542
c0 39 -8 58 -35 69c-26 12 -69 13 -136 12c-3 -19 -13 -46 -22 -64c49 1 92 1 105 1c13 -1 17 -6 17 -19v-122h-156v198h-68v-198h-152v204h-70v-623h261c-55 -34 -123 -71 -179 -99l44 -47c40 19 88 42 133 67c42 -29 84 -64 118 -98h-349v-64h410l16 -5l49 37
c-49 57 -118 117 -184 163c25 15 48 28 64 41l-4 5h138z" />
</svg>
