<?xml version="1.0" standalone="no"?>
<!DOCTYPE svg PUBLIC "-//W3C//DTD SVG 1.1//EN" "http://www.w3.org/Graphics/SVG/1.1/DTD/svg11.dtd" >
<svg xmlns="http://www.w3.org/2000/svg" xmlns:xlink="http://www.w3.org/1999/xlink" version="1.1" viewBox="-10 0 1010 1000">
   <path fill="currentColor"
d="M180 551v-255c-32 35 -66 67 -98 93c-10 -13 -33 -44 -48 -57c93 -70 185 -179 243 -289l66 23c-27 50 -59 100 -94 147v338h-69zM668 673h-296c-20 28 -40 55 -60 78c79 13 158 29 232 45c54 -31 95 -72 124 -123zM390 512l72 20c-14 25 -30 53 -47 79h536v62h-204
c-27 58 -65 105 -115 143c118 27 223 56 303 84l-68 56c-79 -31 -189 -63 -314 -92c-112 54 -265 80 -464 93c-6 -22 -16 -47 -28 -64c159 -6 286 -22 384 -54c-81 -17 -166 -33 -253 -48l1 -1h-1c30 -32 64 -73 96 -117h-238v-62h281c23 -33 42 -68 59 -99zM786 211h-209
c28 58 67 109 115 152c41 -42 74 -92 94 -152zM943 211h-84c-26 77 -65 141 -116 193c62 42 134 75 217 93c-15 14 -35 40 -44 59c-84 -22 -159 -60 -222 -108c-56 43 -121 78 -194 104c-9 -15 -30 -43 -44 -56c71 -22 135 -52 188 -91c-43 -41 -78 -88 -107 -141
c-27 36 -58 70 -88 97c-11 -12 -34 -33 -50 -45v159h-69v-308h69v141c77 -65 145 -161 185 -264l69 19c-12 28 -25 56 -39 83h329v65z" />
</svg>
