<?xml version="1.0" standalone="no"?>
<!DOCTYPE svg PUBLIC "-//W3C//DTD SVG 1.1//EN" "http://www.w3.org/Graphics/SVG/1.1/DTD/svg11.dtd" >
<svg xmlns="http://www.w3.org/2000/svg" xmlns:xlink="http://www.w3.org/1999/xlink" version="1.1" viewBox="-10 0 1010 1000">
   <path fill="currentColor"
d="M820 257v-110h-286v110h286zM888 94v216h-421v-216h421zM523 435v323h-69v-377h447v376h-71v-322h-307zM322 317h-113c-18 88 -39 173 -58 242c34 24 69 50 103 77c34 -87 56 -194 68 -319zM422 795l-48 59c-23 -30 -55 -64 -93 -101c-49 91 -112 156 -190 203
c-11 -18 -31 -46 -46 -60c73 -40 133 -103 179 -192c-49 -43 -103 -84 -153 -117c23 -71 47 -169 69 -270h-93v-69h107c12 -71 23 -140 29 -202l73 5c-8 61 -19 128 -32 197h115l13 -2l44 6c-11 180 -39 321 -83 432c45 39 83 78 109 111zM954 900l-51 42
c-47 -42 -148 -106 -229 -150c-40 57 -116 110 -257 152c-10 -13 -33 -33 -49 -44c254 -63 273 -170 273 -253v-162h76v162c0 43 -8 90 -37 136l39 -30c81 44 185 106 235 147z" />
</svg>
