<?xml version="1.0" standalone="no"?>
<!DOCTYPE svg PUBLIC "-//W3C//DTD SVG 1.1//EN" "http://www.w3.org/Graphics/SVG/1.1/DTD/svg11.dtd" >
<svg xmlns="http://www.w3.org/2000/svg" xmlns:xlink="http://www.w3.org/1999/xlink" version="1.1" viewBox="-10 0 1010 1000">
   <path fill="currentColor"
d="M284 320h-91c-16 90 -34 177 -55 250c30 21 60 46 90 70c28 -87 46 -194 56 -320zM312 251l40 6c-9 180 -32 321 -71 431c41 39 76 76 100 107l-47 52c-18 -27 -47 -59 -79 -92c-41 90 -96 157 -165 204c-9 -18 -28 -42 -43 -56c65 -40 118 -106 157 -198
c-44 -40 -91 -79 -136 -112l-2 -1c23 -70 45 -169 62 -272h-85v-67h94c11 -72 19 -143 25 -208l70 7c-8 63 -17 131 -28 201h95zM643 278v591c0 30 -5 47 -24 58c-18 10 -45 12 -87 12c-2 -17 -9 -42 -17 -59c28 1 53 1 60 1c9 -1 12 -3 12 -13v-528h-116v606h-57v-668h229z
M582 674l-38 11c-13 -54 -43 -138 -68 -202l35 -10c27 64 57 147 71 201zM920 280v594c0 30 -6 48 -25 59c-19 10 -48 11 -92 11c-2 -17 -10 -42 -18 -59c30 1 59 1 66 1c9 0 12 -3 12 -13v-530h-113v609h-58v-672h228zM856 681l-36 12c-13 -55 -41 -139 -65 -203l35 -9
c26 64 54 146 66 200zM390 107h552v66h-552v-66z" />
</svg>
