<?xml version="1.0" standalone="no"?>
<!DOCTYPE svg PUBLIC "-//W3C//DTD SVG 1.1//EN" "http://www.w3.org/Graphics/SVG/1.1/DTD/svg11.dtd" >
<svg xmlns="http://www.w3.org/2000/svg" xmlns:xlink="http://www.w3.org/1999/xlink" version="1.1" viewBox="-10 0 1010 1000">
   <path fill="currentColor"
d="M259 318h-77c-15 91 -33 180 -50 252c25 22 49 47 74 71c26 -89 44 -197 53 -323zM287 248l40 5c-8 185 -31 330 -68 442c36 39 70 77 91 106l-47 54c-17 -25 -43 -56 -72 -89c-37 82 -86 145 -146 190c-10 -18 -28 -42 -44 -56c58 -39 105 -103 140 -189
c-39 -42 -81 -85 -118 -122c18 -70 39 -168 56 -271h-77v-68h88c11 -73 20 -144 25 -207l63 4c-6 63 -15 132 -25 203h81zM645 539l-37 60c-14 -30 -48 -88 -75 -135v493h-64v-458c-27 100 -62 192 -101 250c-12 -15 -33 -39 -48 -50c59 -77 112 -230 142 -375h-109v-65h116
v-215h64v215h88v65h-88v56c25 30 96 134 112 159zM948 324h-123c34 155 92 327 151 411c-16 11 -39 32 -51 49c-42 -70 -84 -191 -114 -317v490h-65v-467c-32 123 -75 237 -124 305c-10 -14 -33 -37 -48 -49c69 -84 129 -256 162 -422h-93v-65h103v-215h65v215h137v65z" />
</svg>
