<?xml version="1.0" standalone="no"?>
<!DOCTYPE svg PUBLIC "-//W3C//DTD SVG 1.1//EN" "http://www.w3.org/Graphics/SVG/1.1/DTD/svg11.dtd" >
<svg xmlns="http://www.w3.org/2000/svg" xmlns:xlink="http://www.w3.org/1999/xlink" version="1.1" viewBox="-10 0 1010 1000">
   <path fill="currentColor"
d="M278 317h-93c-17 96 -37 189 -58 266c29 22 59 46 87 72c33 -90 54 -203 64 -338zM305 247l40 6c-9 190 -35 337 -79 451c44 42 82 84 106 121l-49 52c-19 -32 -51 -69 -86 -107c-42 82 -96 142 -162 185c-10 -18 -28 -44 -43 -59c62 -36 114 -95 155 -176
c-42 -40 -87 -77 -128 -109l-3 -1v-1l1 -1c25 -76 46 -180 65 -291h-78v-68h87c11 -72 19 -143 25 -207l67 7c-8 63 -17 131 -28 200h98zM489 699h126v-96h-126v96zM707 233h-102c-32 63 -71 120 -117 168h127v-87h67v87h131c-43 -49 -79 -107 -106 -168zM682 461v88h134
v-88h-134zM489 461v88h126v-88h-126zM682 699h134v-96h-134v96zM881 759h-199v87c0 36 6 43 43 43h131c31 0 37 -21 41 -116c15 10 42 22 61 26c-8 119 -27 153 -97 153h-143c-82 0 -103 -22 -103 -106v-87h-126v42h-65v-341c-15 12 -29 23 -44 32c-10 -14 -35 -42 -51 -56
c82 -49 148 -117 197 -203h-158v-67h191c17 -38 31 -79 41 -123l71 12c-10 39 -22 76 -36 111h316v67h-173c43 85 114 164 189 204c-15 14 -37 40 -48 56c-13 -8 -25 -16 -38 -27v293z" />
</svg>
