<?xml version="1.0" standalone="no"?>
<!DOCTYPE svg PUBLIC "-//W3C//DTD SVG 1.1//EN" "http://www.w3.org/Graphics/SVG/1.1/DTD/svg11.dtd" >
<svg xmlns="http://www.w3.org/2000/svg" xmlns:xlink="http://www.w3.org/1999/xlink" version="1.1" viewBox="-10 0 1010 1000">
   <path fill="currentColor"
d="M835 244v-99h-147v99h147zM835 400v-101h-147v101h147zM484 299v101h140v-101h-140zM484 145v99h140v-99h-140zM903 86v372h-486v-372h486zM285 317h-95c-18 98 -39 194 -58 271c27 23 57 47 85 73c35 -92 58 -206 68 -344zM314 246l41 7c-10 193 -37 342 -84 456
c44 40 82 78 108 109l-48 54c-22 -28 -54 -62 -90 -97c-42 77 -96 135 -160 178c-10 -18 -29 -43 -44 -57c61 -36 112 -93 152 -171c-45 -41 -91 -82 -133 -116c23 -77 47 -182 67 -292h-80v-69h92c11 -72 21 -141 27 -204l67 3c-7 63 -17 131 -28 201h101zM890 632l45 47
c-43 33 -98 66 -146 93c44 53 99 93 165 117c-16 14 -36 40 -46 58c-136 -59 -223 -180 -271 -339h-122v249l161 -36c-2 19 -2 49 0 64c-194 49 -224 60 -242 72c-5 -18 -19 -49 -30 -64c17 -8 41 -25 41 -64v-221h-71v-67h576v67h-249c14 42 33 81 55 117
c46 -28 100 -65 134 -93z" />
</svg>
