<?xml version="1.0" standalone="no"?>
<!DOCTYPE svg PUBLIC "-//W3C//DTD SVG 1.1//EN" "http://www.w3.org/Graphics/SVG/1.1/DTD/svg11.dtd" >
<svg xmlns="http://www.w3.org/2000/svg" xmlns:xlink="http://www.w3.org/1999/xlink" version="1.1" viewBox="-10 0 1010 1000">
   <path fill="currentColor"
d="M722 218h-103c-52 88 -122 158 -206 209c-9 -14 -32 -42 -45 -57c68 -36 127 -87 173 -152h-156v-61h193c19 -36 34 -75 46 -118l68 13c-11 37 -24 72 -40 105h285v61h-147c44 62 112 120 177 151c-16 13 -38 37 -49 53c-73 -42 -151 -124 -196 -204zM284 321h-91
c-17 91 -35 180 -53 251c29 22 59 46 88 70c28 -88 46 -195 56 -321zM380 798l-46 52c-18 -28 -47 -59 -79 -92c-41 89 -95 154 -164 201c-9 -17 -29 -43 -45 -57c66 -40 118 -104 157 -194c-45 -40 -93 -81 -138 -113c21 -72 43 -172 62 -274h-84v-68h95
c11 -71 21 -142 26 -205l68 3c-7 63 -16 133 -28 202h96l12 -2l41 6c-9 180 -33 322 -71 434c40 38 75 75 98 107zM703 760v109h251v60h-579v-60h258v-109h-198v-60h198v-101h-226v-61h226v-93h-155v-60h155v-93h70v93h144v60h-144v93h220v61h-220v101h190v60h-190z" />
</svg>
