<?xml version="1.0" standalone="no"?>
<!DOCTYPE svg PUBLIC "-//W3C//DTD SVG 1.1//EN" "http://www.w3.org/Graphics/SVG/1.1/DTD/svg11.dtd" >
<svg xmlns="http://www.w3.org/2000/svg" xmlns:xlink="http://www.w3.org/1999/xlink" version="1.1" viewBox="-10 0 1010 1000">
   <path fill="currentColor"
d="M294 319h-104c-15 90 -33 178 -50 249c30 22 61 48 91 74c32 -88 53 -196 63 -323zM323 250l42 8c-10 181 -36 322 -79 433c39 36 72 70 96 98l-50 58c-18 -26 -46 -55 -77 -86c-44 87 -101 152 -171 198c-11 -18 -30 -43 -46 -58c67 -39 122 -103 165 -191
c-46 -41 -94 -83 -138 -118c19 -71 40 -170 58 -273h-71v-66h81c11 -74 20 -149 25 -215l69 4c-6 65 -16 138 -27 211h110zM711 839h150v-128h-119v-64h119v-118h-127v-64h194v492h-67v-52h-362v53h-67v-494c51 -8 113 -20 149 -33l44 54c-38 12 -83 20 -126 26v136h117v64
h-117v128h145v-498h-238v-66h238v-125c-71 8 -142 13 -207 15c-2 -16 -11 -40 -19 -56c152 -8 343 -28 438 -66l47 54c-51 20 -119 35 -192 44v134h242v66h-242v498z" />
</svg>
