<?xml version="1.0" standalone="no"?>
<!DOCTYPE svg PUBLIC "-//W3C//DTD SVG 1.1//EN" "http://www.w3.org/Graphics/SVG/1.1/DTD/svg11.dtd" >
<svg xmlns="http://www.w3.org/2000/svg" xmlns:xlink="http://www.w3.org/1999/xlink" version="1.1" viewBox="-10 0 1010 1000">
   <path fill="currentColor"
d="M467 217v91h-63v-157h231c-13 -29 -31 -63 -48 -90l67 -18c21 33 46 76 60 108h217v157h-65v-91h-399zM799 473l-53 -18c27 -37 63 -99 82 -141l63 21c-29 49 -64 103 -92 138zM569 445l-52 28c-13 -37 -44 -92 -74 -134l50 -23c31 40 64 94 76 129zM286 317h-97
c-18 97 -39 191 -57 266c29 21 60 46 89 70c34 -89 55 -201 65 -336zM315 247l40 6c-10 189 -36 335 -81 448c36 33 66 66 87 94l-49 51c-17 -23 -40 -51 -68 -79c-44 82 -100 142 -168 186c-10 -18 -28 -43 -42 -57c65 -36 118 -95 160 -178c-44 -39 -92 -78 -136 -109
c23 -77 46 -182 66 -292h-80v-68h91c11 -72 20 -143 26 -207l69 3c-7 64 -17 134 -30 204h103zM927 560h-201c57 108 149 216 236 269c-15 13 -39 39 -51 56c-77 -57 -156 -158 -213 -264v335h-70v-337c-58 110 -139 210 -227 265c-8 -19 -24 -49 -36 -66
c91 -53 178 -151 231 -258h-200v-65h232v-228h70v228h229v65z" />
</svg>
