<?xml version="1.0" standalone="no"?>
<!DOCTYPE svg PUBLIC "-//W3C//DTD SVG 1.1//EN" "http://www.w3.org/Graphics/SVG/1.1/DTD/svg11.dtd" >
<svg xmlns="http://www.w3.org/2000/svg" xmlns:xlink="http://www.w3.org/1999/xlink" version="1.1" viewBox="-10 0 1010 1000">
   <path fill="currentColor"
d="M284 321h-93c-17 89 -35 177 -53 247c30 22 61 47 91 71c27 -87 45 -193 55 -318zM312 251l41 6c-9 179 -32 320 -70 431c39 38 74 74 96 105l-44 56c-18 -28 -47 -60 -79 -93c-41 90 -96 156 -165 204c-9 -18 -29 -43 -45 -57c66 -40 119 -106 158 -197
c-44 -40 -92 -79 -137 -113c20 -72 40 -170 58 -272h-82v-68h93c11 -72 20 -143 25 -207l69 4c-7 63 -17 132 -28 203h98zM370 592v-172h560v172h-67v-107h-182v113h187v226c0 35 -6 52 -30 63c-22 11 -59 11 -115 11c-2 -19 -11 -44 -18 -62c40 2 73 1 84 1
c11 -1 13 -4 13 -14v-161h-121v296h-67v-296h-119v236h-65v-300h184v-113h-179v107h-65zM842 184h95v63h-95v125h-65v-125h-98v125h-66v-125h-90v126h-66v-126h-85v-63h85v-123h66v123h90v-130h66v130h98v-123h65v123z" />
</svg>
