<?xml version="1.0" standalone="no"?>
<!DOCTYPE svg PUBLIC "-//W3C//DTD SVG 1.1//EN" "http://www.w3.org/Graphics/SVG/1.1/DTD/svg11.dtd" >
<svg xmlns="http://www.w3.org/2000/svg" xmlns:xlink="http://www.w3.org/1999/xlink" version="1.1" viewBox="-10 0 1010 1000">
   <path fill="currentColor"
d="M284 317h-93c-17 96 -37 190 -59 267c29 22 60 48 88 73c32 -90 54 -204 64 -340zM311 247l40 6c-10 192 -36 340 -81 454c35 33 63 67 83 96l-48 54c-16 -25 -38 -53 -64 -82c-42 78 -94 137 -157 179c-9 -18 -28 -44 -43 -58c61 -36 111 -93 151 -172
c-43 -40 -89 -81 -131 -113l-2 -1c26 -75 48 -182 67 -293h-74v-68h84c11 -72 19 -143 25 -207l69 7c-8 63 -17 131 -29 200h98zM538 329v56c31 46 95 143 110 170l-42 63c-13 -30 -41 -86 -68 -135v473h-65v-445c-24 77 -54 147 -86 194c-11 -16 -33 -39 -48 -50
c53 -69 103 -200 133 -326h-106v-68h107v-212h65v212h94v68h-94zM716 826h144v-183h-144v183zM860 154h-144v175h144v-175zM860 576v-180h-144v180h144zM651 86h276v861h-67v-53h-144v61h-65v-869z" />
</svg>
