<?xml version="1.0" standalone="no"?>
<!DOCTYPE svg PUBLIC "-//W3C//DTD SVG 1.1//EN" "http://www.w3.org/Graphics/SVG/1.1/DTD/svg11.dtd" >
<svg xmlns="http://www.w3.org/2000/svg" xmlns:xlink="http://www.w3.org/1999/xlink" version="1.1" viewBox="-10 0 1010 1000">
   <path fill="currentColor"
d="M291 320h-102c-16 91 -34 179 -51 251c30 25 59 52 90 80c31 -90 52 -200 63 -331zM319 251l42 6c-10 187 -36 332 -81 445c42 41 78 79 103 110l-48 55c-20 -28 -51 -62 -85 -97c-43 83 -98 144 -166 188c-11 -17 -30 -42 -46 -57c66 -37 120 -99 161 -183
c-44 -45 -92 -89 -134 -126c19 -71 40 -169 58 -272h-72v-67h82c11 -75 20 -149 25 -215l67 4c-6 65 -15 137 -26 211h108zM959 527l-57 31c-11 -17 -26 -39 -43 -62c-401 31 -442 36 -471 47c-1 -14 -11 -48 -19 -66c26 -4 59 -16 101 -38c27 -13 88 -46 156 -89
c-168 14 -194 18 -212 24c-3 -14 -13 -46 -20 -63c17 -2 38 -11 61 -25c20 -11 73 -45 122 -87h-207v-62h269c-11 -26 -24 -57 -35 -81l68 -18c16 31 36 72 46 99h224v62h-270c-47 39 -97 75 -145 105l186 -12c24 -17 48 -34 69 -52l53 45c-96 70 -197 131 -298 180l282 -20
c-18 -22 -38 -45 -56 -65l54 -26c51 53 112 127 142 173zM624 629h-144v86h144v-86zM834 715v-86h-143v86h143zM691 859h143v-89h-143v89zM480 770v89h144v-89h-144zM413 957v-386h491v386h-70v-41h-354v41h-67z" />
</svg>
