<?xml version="1.0" standalone="no"?>
<!DOCTYPE svg PUBLIC "-//W3C//DTD SVG 1.1//EN" "http://www.w3.org/Graphics/SVG/1.1/DTD/svg11.dtd" >
<svg xmlns="http://www.w3.org/2000/svg" xmlns:xlink="http://www.w3.org/1999/xlink" version="1.1" viewBox="-10 0 1010 1000">
   <path fill="currentColor"
d="M667 146v81c0 80 -18 179 -105 245c-10 -13 -35 -37 -48 -46c78 -57 89 -133 89 -200v-141h245v237c0 27 2 36 14 36h46c11 0 27 -2 38 -5c2 18 4 44 6 61c-11 4 -28 5 -44 5h-52c-60 0 -73 -27 -73 -98v-175h-116zM254 223v-54h-196v-58h196v-68h69v68h196v58h-196v54
h148v56h-378v-56h161zM124 391v85h-61v-144h437v144h-64v-85h-312zM405 503h-243v-54h243v54zM379 640h-137c-14 30 -29 61 -44 87c34 12 67 25 98 38c35 -34 63 -76 83 -125zM419 581l39 12c-22 82 -57 147 -104 199c45 21 85 44 116 65l-42 50c-31 -24 -73 -47 -120 -71
c-60 49 -131 82 -211 104c-5 -16 -19 -40 -31 -54c67 -15 128 -41 180 -78c-42 -19 -86 -36 -131 -51c21 -33 43 -74 64 -117h-96v-57h120c11 -24 20 -48 27 -70l61 9c-6 19 -14 41 -23 61h140zM834 545h-187c21 65 50 124 88 176c42 -51 76 -109 99 -176zM874 479l41 18
c-29 110 -77 200 -138 273c52 54 114 96 188 122c-15 13 -34 38 -42 56c-73 -31 -136 -75 -188 -132c-63 63 -137 111 -216 144c-8 -18 -25 -44 -39 -57c78 -29 152 -75 213 -137c-44 -59 -78 -130 -104 -209l46 -12h-97v-63h324z" />
</svg>
