<?xml version="1.0" standalone="no"?>
<!DOCTYPE svg PUBLIC "-//W3C//DTD SVG 1.1//EN" "http://www.w3.org/Graphics/SVG/1.1/DTD/svg11.dtd" >
<svg xmlns="http://www.w3.org/2000/svg" xmlns:xlink="http://www.w3.org/1999/xlink" version="1.1" viewBox="-10 0 1010 1000">
   <path fill="currentColor"
d="M278 317h-89c-18 99 -39 195 -58 272c27 23 55 48 82 74c33 -92 54 -207 65 -346zM335 791l-50 52c-13 -19 -30 -39 -50 -62c-41 75 -91 131 -152 172c-10 -17 -29 -43 -44 -57c59 -35 107 -91 146 -168c-43 -42 -88 -84 -129 -119c23 -77 46 -182 67 -292h-73v-68h84
c11 -71 21 -143 27 -206l67 4c-7 63 -17 133 -28 202h93l12 -2l41 6c-9 196 -35 346 -81 461c28 28 52 55 70 77zM947 213h-482v244c0 149 -12 359 -98 500c-12 -12 -41 -31 -56 -38c81 -134 89 -322 89 -462v-309h260c-14 -29 -31 -63 -47 -89l67 -20c22 35 46 78 60 109
h207v65zM728 472v71h112v-71h-112zM728 347v71h112v-71h-112zM848 861v-133h-278v133h278zM905 598h-177v69h187v288h-67v-33h-278v36h-64v-291h158v-69h-151v-55h151v-71h-181v-54h181v-71h-148v-55h148v-67h64v67h177v121h54v64h-54v121z" />
</svg>
