<?xml version="1.0" standalone="no"?>
<!DOCTYPE svg PUBLIC "-//W3C//DTD SVG 1.1//EN" "http://www.w3.org/Graphics/SVG/1.1/DTD/svg11.dtd" >
<svg xmlns="http://www.w3.org/2000/svg" xmlns:xlink="http://www.w3.org/1999/xlink" version="1.1" viewBox="-10 0 1010 1000">
   <path fill="currentColor"
d="M309 135l-37 56c-33 -30 -101 -68 -156 -92l36 -49c55 20 124 55 157 85zM112 593l-43 -59c55 -45 135 -122 201 -194l35 55c-58 66 -130 138 -193 198zM252 281l-38 54c-33 -30 -102 -69 -157 -93l38 -48c55 21 124 58 157 87zM670 679h-285c-21 27 -42 54 -62 78
c76 13 151 28 224 45c54 -32 95 -71 123 -123zM609 289h-172v50h172v-50zM838 289h-160v50h160v-50zM678 440h160v-50h-160v50zM437 440h172v-50h-172v50zM952 679h-203c-25 59 -62 106 -112 142c111 27 212 54 290 80l-60 54c-79 -29 -185 -59 -307 -89
c-110 52 -262 76 -460 87c-4 -21 -16 -46 -27 -62c158 -5 282 -20 379 -50c-78 -17 -161 -33 -246 -49l8 -8c30 -29 60 -66 90 -105h-253v-61h296c16 -22 30 -44 42 -65h-19v-317h239v-53h-267v-59h267v-82h69v82h142c-22 -18 -50 -35 -76 -48l37 -36c39 17 88 48 111 70
l-13 14h60v59h-261v53h230v314h-70v-57h-160v64h-69v-64h-172v60l28 6c-11 20 -23 39 -37 59h524v61z" />
</svg>
