<?xml version="1.0" standalone="no"?>
<!DOCTYPE svg PUBLIC "-//W3C//DTD SVG 1.1//EN" "http://www.w3.org/Graphics/SVG/1.1/DTD/svg11.dtd" >
<svg xmlns="http://www.w3.org/2000/svg" xmlns:xlink="http://www.w3.org/1999/xlink" version="1.1" viewBox="-10 0 1010 1000">
   <path fill="currentColor"
d="M495 307v-96h-125v-67h125v-98h71v98h182v-98h70v98h128v67h-128v96h-70v-96h-182v96h-71zM291 320h-102c-16 91 -34 179 -51 252c30 24 59 51 90 79c31 -89 52 -200 63 -331zM319 251l42 6c-10 187 -36 332 -81 445c42 40 78 78 103 110l-48 55c-20 -28 -51 -62 -85 -97
c-43 83 -98 144 -166 188c-11 -17 -30 -42 -46 -57c66 -37 120 -99 161 -183c-44 -45 -92 -89 -134 -126c19 -71 40 -169 58 -272h-72v-67h82c11 -74 20 -149 25 -215l67 4c-6 65 -15 137 -26 211h108zM797 695h-274v161h274v-161zM451 957v-326h419v326h-73v-38h-274v38
h-72zM508 489h309v64h-309v-64zM652 251l65 26c-8 11 -16 21 -25 32c69 66 180 136 269 174c-13 18 -26 49 -33 69c-90 -49 -200 -126 -275 -199c-74 78 -168 146 -256 193c-9 -14 -31 -46 -44 -61c112 -53 231 -139 299 -234z" />
</svg>
