<?xml version="1.0" standalone="no"?>
<!DOCTYPE svg PUBLIC "-//W3C//DTD SVG 1.1//EN" "http://www.w3.org/Graphics/SVG/1.1/DTD/svg11.dtd" >
<svg xmlns="http://www.w3.org/2000/svg" xmlns:xlink="http://www.w3.org/1999/xlink" version="1.1" viewBox="-10 0 1010 1000">
   <path fill="currentColor"
d="M282 317h-94c-17 97 -37 191 -59 269c29 21 59 46 87 70c34 -90 55 -203 66 -339zM345 794l-50 52c-14 -21 -33 -46 -56 -71c-43 79 -97 138 -163 180c-10 -18 -29 -44 -43 -59c62 -36 114 -93 155 -173c-42 -40 -89 -81 -132 -113c26 -75 48 -182 67 -293h-72v-68h82
c11 -72 19 -143 25 -207l69 7c-8 63 -17 131 -28 200h99l12 -2l41 6c-10 192 -36 340 -82 453c32 31 58 62 76 88zM547 204h-85v102h85v-102zM707 306v-102h-101v102h101zM857 365h-91v112h91v-112zM606 365v112h101v-112h-101zM462 454v23h85v-112h-85v89zM919 536h-458
c-5 138 -23 304 -84 421c-11 -11 -39 -31 -54 -39c68 -134 75 -325 75 -464v-314h238c-8 -26 -21 -56 -33 -80l63 -19c16 30 32 70 43 99h237v64h-180v102h153v230zM562 862l121 -28c0 18 2 43 4 58c-136 35 -170 47 -186 57l-4 3v-1l-1 1v-4c-6 -18 -18 -46 -26 -62
c14 -6 31 -19 31 -55v-269h61v93h119v59h-119v148zM796 889h81c21 0 25 -13 28 -101c13 11 37 21 54 26c-5 105 -22 133 -76 133h-94c-65 0 -82 -18 -82 -85v-300h62v124c46 -24 98 -56 132 -82l35 47c-47 37 -114 73 -167 97v113c0 24 4 28 27 28z" />
</svg>
