<?xml version="1.0" standalone="no"?>
<!DOCTYPE svg PUBLIC "-//W3C//DTD SVG 1.1//EN" "http://www.w3.org/Graphics/SVG/1.1/DTD/svg11.dtd" >
<svg xmlns="http://www.w3.org/2000/svg" xmlns:xlink="http://www.w3.org/1999/xlink" version="1.1" viewBox="-10 0 1010 1000">
   <path fill="currentColor"
d="M946 211l-48 31c-16 -38 -53 -97 -86 -140l44 -27c34 41 73 98 90 136zM275 321h-88c-16 89 -34 175 -53 248c29 22 58 47 87 72c27 -87 45 -194 54 -320zM354 784l-44 52c-15 -23 -38 -50 -63 -79c-40 90 -92 156 -158 203c-9 -18 -27 -43 -42 -57
c63 -40 113 -105 150 -196c-42 -41 -88 -81 -131 -115c22 -70 42 -168 58 -271h-81v-68h91c10 -72 18 -143 24 -208l66 7c-7 63 -16 131 -27 201h93l12 -2l38 6c-8 181 -31 322 -68 433c34 34 62 66 82 94zM380 956l-53 -33c40 -49 71 -130 88 -194l53 22
c-20 67 -48 151 -88 205zM534 753l53 -8c16 63 26 143 24 192l-56 11c3 -49 -6 -131 -21 -195zM943 329h-128c23 143 71 265 151 325c-14 12 -34 37 -43 53c-74 -61 -120 -169 -149 -300c-26 135 -79 234 -190 302c-8 -16 -27 -40 -42 -52c120 -69 166 -176 184 -328h-92v-8
c-49 199 -139 327 -254 400c-8 -17 -25 -41 -39 -54c63 -35 120 -92 165 -170c-25 -29 -61 -60 -93 -83l32 -40c30 20 62 46 86 72c11 -24 22 -48 31 -75c-25 -23 -58 -48 -88 -65l28 -44c26 14 54 33 77 51c9 -35 17 -74 24 -113h-106c-27 86 -65 172 -120 244
c-11 -13 -31 -32 -45 -40c82 -105 126 -248 145 -360l57 7c-5 28 -12 59 -20 90h105l10 -2l36 11c-5 40 -11 78 -18 114h86c5 -66 7 -140 8 -221h60c-1 80 -4 154 -9 221h151v65zM666 753l52 -15c27 61 52 141 59 191l-56 18c-6 -50 -29 -132 -55 -194zM802 745l51 -24
c45 65 92 151 109 208l-56 27c-16 -57 -61 -146 -104 -211z" />
</svg>
