<?xml version="1.0" standalone="no"?>
<!DOCTYPE svg PUBLIC "-//W3C//DTD SVG 1.1//EN" "http://www.w3.org/Graphics/SVG/1.1/DTD/svg11.dtd" >
<svg xmlns="http://www.w3.org/2000/svg" xmlns:xlink="http://www.w3.org/1999/xlink" version="1.1" viewBox="-10 0 1010 1000">
   <path fill="currentColor"
d="M278 317h-105c-14 94 -30 185 -45 259c29 23 59 48 89 73c30 -90 51 -201 61 -332zM304 246l38 6c-9 185 -34 330 -75 442c37 34 69 67 91 94l-42 51c-18 -24 -45 -52 -75 -82c-40 86 -93 150 -158 197c-9 -17 -26 -41 -41 -53c62 -40 112 -103 151 -190
c-44 -40 -91 -81 -134 -115c18 -72 37 -173 53 -279h-68v-69h77c9 -71 17 -142 21 -204l62 3c-5 62 -12 131 -22 201h111zM952 154h-501v289c0 152 -10 371 -80 518c-9 -13 -36 -34 -49 -41c63 -139 68 -334 68 -477v-351h562v62zM589 316l-43 12c-6 -35 -20 -88 -33 -129
l42 -10c13 41 28 93 34 127zM711 715h-75c-13 98 -44 180 -125 232c-8 -13 -27 -35 -40 -44c67 -42 94 -111 104 -188h-76v-270h39v215h46v-253h-100v-60h137c17 -48 35 -118 43 -165l50 14c-15 49 -31 107 -47 151h56v60h-92v253h40v-215h40v84c39 -86 52 -214 60 -343
l53 7c-4 48 -9 95 -15 141h104l9 -3l32 12c-8 72 -21 159 -34 212l-40 -13c7 -38 15 -93 20 -146h-101c-11 65 -27 124 -48 171c-8 -9 -27 -27 -40 -34v182zM802 452h55c-1 34 -3 68 -6 100c8 100 33 271 117 357c-17 10 -37 32 -48 48c-49 -54 -78 -138 -95 -221
c-22 90 -59 166 -123 220c-9 -15 -28 -35 -42 -44c116 -94 135 -271 142 -460z" />
</svg>
