<?xml version="1.0" standalone="no"?>
<!DOCTYPE svg PUBLIC "-//W3C//DTD SVG 1.1//EN" "http://www.w3.org/Graphics/SVG/1.1/DTD/svg11.dtd" >
<svg xmlns="http://www.w3.org/2000/svg" xmlns:xlink="http://www.w3.org/1999/xlink" version="1.1" viewBox="-10 0 1010 1000">
   <path fill="currentColor"
d="M455 187v436h-61v-494h165c15 -29 31 -65 40 -90l75 18c-15 25 -29 50 -44 72h288v494h-63v-436h-400zM826 363v52h-143v155h-55v-142c-28 57 -75 121 -119 158c-7 -13 -22 -33 -33 -44c37 -27 79 -78 105 -127h-101v-52h148v-145h55v145h143zM825 540l-40 31
c-18 -34 -57 -89 -91 -128l38 -25c34 37 74 90 93 122zM497 248l42 -20c27 31 55 73 67 102l-45 22c-11 -28 -38 -72 -64 -104zM767 227l49 22c-23 36 -48 75 -69 100l-38 -17c18 -29 45 -75 58 -105zM287 320h-95c-17 91 -37 180 -54 251c28 25 58 51 86 78
c32 -88 53 -198 63 -329zM365 804l-47 53c-18 -26 -44 -57 -72 -90c-44 83 -99 146 -166 191c-9 -16 -28 -41 -42 -54c64 -39 117 -102 159 -189c-43 -43 -90 -87 -132 -123c21 -71 43 -169 62 -272h-73v-67h85c12 -75 22 -149 28 -215l66 4c-7 64 -18 137 -30 211h100
l12 -3l39 8c-10 185 -36 330 -80 441c37 39 69 75 91 105zM949 726h-244c45 87 133 142 258 165c-16 13 -34 39 -42 58c-130 -30 -220 -96 -271 -197c-43 100 -126 167 -299 205c-6 -16 -24 -43 -36 -57c163 -32 239 -88 276 -174h-232v-61h250c6 -23 10 -49 13 -76h66
c-3 27 -7 53 -12 76h273v61z" />
</svg>
