<?xml version="1.0" standalone="no"?>
<!DOCTYPE svg PUBLIC "-//W3C//DTD SVG 1.1//EN" "http://www.w3.org/Graphics/SVG/1.1/DTD/svg11.dtd" >
<svg xmlns="http://www.w3.org/2000/svg" xmlns:xlink="http://www.w3.org/1999/xlink" version="1.1" viewBox="-10 0 1010 1000">
   <path fill="currentColor"
d="M71 79h276v182h-208c-4 28 -8 58 -12 84h225s-1 18 -2 27c-7 120 -15 170 -34 189c-16 16 -33 22 -61 23c-26 2 -78 1 -133 -2c-1 -18 -8 -41 -18 -58c54 5 107 6 125 6c17 0 28 -1 34 -8c12 -10 18 -44 24 -126h-230c10 -51 20 -126 26 -186h200v-77h-212v-54zM667 693
h-280c-19 25 -40 47 -59 68c76 12 151 27 224 43c49 -29 88 -65 115 -111zM543 134l30 12c-27 26 -62 54 -99 77h150v-89h-81zM682 223h193c-40 -23 -88 -48 -130 -65l31 -24h-94v89zM423 577l42 11c-10 16 -21 31 -32 47h519v58h-204c-25 53 -61 96 -108 130
c113 26 215 52 293 76l-61 52c-79 -28 -186 -56 -308 -85c-111 52 -265 75 -466 85c-5 -21 -16 -44 -26 -60c160 -5 288 -19 386 -48c-80 -17 -164 -33 -249 -48l14 -12c26 -26 54 -58 82 -90h-254v-58h300c17 -21 31 -44 44 -65l2 1v-305l-8 4c-9 -11 -29 -32 -42 -43
c58 -24 121 -57 163 -93h-126v-54h555v54h-130c58 24 123 59 159 85l-42 38c-4 -3 -9 -7 -14 -10v286c0 30 -5 42 -24 52c-17 9 -46 9 -89 9c-2 -15 -10 -35 -17 -50l29 1c-10 -10 -22 -20 -35 -30c-16 16 -33 32 -49 45c-6 -7 -21 -21 -31 -27c17 -12 34 -26 50 -42
c-18 -12 -35 -23 -51 -33l28 -24c16 9 32 19 47 30c11 -12 20 -26 27 -38l38 9c-10 17 -21 35 -34 50c19 15 35 29 47 40l-23 20h17c9 0 12 -3 12 -12v-261h-172v316h-58v-316h-169v305h-32zM849 387l-30 27c-11 -11 -26 -24 -43 -37c-17 16 -35 31 -53 43
c-6 -7 -22 -21 -32 -27c19 -11 37 -25 55 -39c-18 -13 -35 -24 -52 -33l29 -24c16 9 34 20 50 31c12 -12 24 -25 33 -37l37 10c-11 16 -24 33 -39 48c18 14 33 27 45 38zM619 386l-29 27c-11 -11 -26 -23 -42 -35c-18 17 -35 32 -52 45c-7 -7 -21 -20 -31 -27
c17 -11 35 -25 52 -40c-17 -12 -34 -21 -49 -29l29 -25c15 8 30 17 46 27c11 -12 20 -24 28 -36l38 10c-10 16 -22 32 -35 46c18 13 34 26 45 37zM620 526l-30 27c-11 -12 -26 -25 -42 -38c-18 16 -35 32 -53 44c-6 -6 -21 -20 -31 -27c18 -11 37 -25 54 -40
c-17 -13 -35 -23 -50 -33l29 -24c16 9 31 19 47 30c11 -13 21 -26 29 -38l37 10c-9 17 -22 34 -36 49c19 15 34 29 46 40z" />
</svg>
