<?xml version="1.0" standalone="no"?>
<!DOCTYPE svg PUBLIC "-//W3C//DTD SVG 1.1//EN" "http://www.w3.org/Graphics/SVG/1.1/DTD/svg11.dtd" >
<svg xmlns="http://www.w3.org/2000/svg" xmlns:xlink="http://www.w3.org/1999/xlink" version="1.1" viewBox="-10 0 1010 1000">
   <path fill="currentColor"
d="M213 220l52 -27c39 51 81 121 97 164l-55 32c-17 -45 -57 -117 -94 -169zM354 684l-57 30c-17 -47 -58 -124 -97 -180l54 -25c39 54 82 128 100 175zM137 751h257c7 -61 12 -147 17 -266h-256c-5 97 -12 189 -18 266zM419 167h-247c-4 79 -8 166 -13 251h253
c3 -72 5 -156 7 -251zM484 102v40c-2 106 -5 197 -7 276h53v67h-55c-4 117 -9 202 -14 266h62v65h-70c-7 49 -16 77 -27 94c-18 29 -38 38 -66 42c-27 3 -70 2 -109 0c0 -19 -7 -46 -17 -64c43 3 81 4 100 4c15 0 24 -4 33 -19c7 -9 13 -27 18 -57h-318
c8 -87 18 -206 26 -331h-45v-67h49c6 -110 11 -221 13 -316h374zM954 466v67h-177v330c0 39 -9 57 -37 68c-28 10 -73 11 -147 11c-3 -18 -15 -44 -24 -62c57 2 108 2 122 1c16 0 21 -5 21 -19v-329h-175v-67h175v-114l-1 -1c42 -48 91 -119 127 -182h-270v-64h310l13 -4
l44 32c-41 75 -102 161 -158 225v108h177z" />
</svg>
