<?xml version="1.0" standalone="no"?>
<!DOCTYPE svg PUBLIC "-//W3C//DTD SVG 1.1//EN" "http://www.w3.org/Graphics/SVG/1.1/DTD/svg11.dtd" >
<svg xmlns="http://www.w3.org/2000/svg" xmlns:xlink="http://www.w3.org/1999/xlink" version="1.1" viewBox="-10 0 1010 1000">
   <path fill="currentColor"
d="M469 143v64h-412v-64h176c-7 -27 -16 -59 -25 -84l67 -15c12 30 25 69 34 99h160zM178 321v83h176v-83h-176zM427 458h-318v-191h318v191zM469 679l2 59l-167 20v112c0 36 -6 52 -33 62s-68 9 -131 9c-3 -18 -12 -41 -21 -58c49 1 90 1 103 1c13 -1 16 -4 16 -15v-102
l-185 22l-10 -63c54 -6 122 -13 195 -21v-63c35 -17 74 -43 106 -68h-280v-62h347l13 -4l44 32c-43 48 -105 96 -164 129v28zM777 881h64c16 0 32 -1 39 -4c9 -2 18 -9 21 -22c4 -14 7 -46 8 -88c15 14 37 26 58 34c-1 38 -7 85 -14 103c-8 19 -20 32 -39 38
c-17 6 -44 9 -68 9h-80c-22 0 -52 -6 -70 -18c-21 -15 -31 -34 -31 -119v-138h-159v-337h64v268h95v-361h-179v-69h179v-132h63v132h217v69h-217v361h110v-269h64v398h-64v-60h-110v145c0 30 4 49 15 55c10 4 20 5 34 5z" />
</svg>
