<?xml version="1.0" standalone="no"?>
<!DOCTYPE svg PUBLIC "-//W3C//DTD SVG 1.1//EN" "http://www.w3.org/Graphics/SVG/1.1/DTD/svg11.dtd" >
<svg xmlns="http://www.w3.org/2000/svg" xmlns:xlink="http://www.w3.org/1999/xlink" version="1.1" viewBox="-10 0 1010 1000">
   <path fill="currentColor"
d="M163 231v149h-73v-221h379c-14 -32 -33 -70 -49 -99l73 -23c24 38 49 86 63 122h353v221h-76v-149h-670zM367 318l67 26c-74 121 -199 222 -319 287c-10 -16 -35 -47 -50 -61c119 -55 237 -145 302 -252zM574 661l63 -31c78 81 171 196 213 270l-68 37
c-12 -24 -29 -52 -50 -82c-463 41 -511 45 -543 59v-4c-1 1 -1 3 -1 4c-2 -17 -14 -57 -23 -79c22 -3 45 -26 76 -58c34 -32 141 -155 214 -277l71 39c-72 104 -153 205 -236 284l396 -30c-35 -47 -75 -93 -112 -132zM567 339l59 -26c63 108 188 206 312 251
c-16 16 -37 45 -48 66c-127 -55 -253 -167 -323 -291z" />
</svg>
