<?xml version="1.0" standalone="no"?>
<!DOCTYPE svg PUBLIC "-//W3C//DTD SVG 1.1//EN" "http://www.w3.org/Graphics/SVG/1.1/DTD/svg11.dtd" >
<svg xmlns="http://www.w3.org/2000/svg" xmlns:xlink="http://www.w3.org/1999/xlink" version="1.1" viewBox="-10 0 1010 1000">
   <path fill="currentColor"
d="M722 636h-439v81h439v-81zM283 863h439v-91h-439v91zM209 955v-378h590v378h-77v-33h-439v33h-74zM375 356v94h254v-94h-254zM151 293h150v-69h74v69h254v-69h76v69h135v-103h-689v103zM705 450h217v63h-857v-63h236v-94h-153v-52h-70v-174h378c-10 -25 -24 -51 -37 -73
l76 -19c19 27 38 63 50 92h370v174h-54v52h-156v94z" />
</svg>
