<?xml version="1.0" standalone="no"?>
<!DOCTYPE svg PUBLIC "-//W3C//DTD SVG 1.1//EN" "http://www.w3.org/Graphics/SVG/1.1/DTD/svg11.dtd" >
<svg xmlns="http://www.w3.org/2000/svg" xmlns:xlink="http://www.w3.org/1999/xlink" version="1.1" viewBox="-10 0 1010 1000">
   <path fill="currentColor"
d="M160 204v74h-73v-139h376c-11 -26 -26 -58 -40 -82l76 -18c20 30 41 71 52 100h364v153h-75v-88h-680zM216 661v109c57 -6 118 -13 181 -21v-88h-181zM397 359h-181v99h181v-99zM216 513v93h181v-93h-181zM522 793l-54 7v156h-71v-146c-124 16 -245 32 -337 43l-8 -66
c28 -3 61 -6 96 -10v-418h-76v-62h443v62h-47v381l53 -7zM838 413h-218c22 102 55 195 102 273c50 -77 92 -169 116 -273zM873 349l43 16c-28 155 -82 282 -152 383c51 67 115 120 193 152c-15 13 -35 38 -45 57c-76 -36 -140 -88 -191 -154c-56 66 -120 118 -189 155
c-10 -17 -29 -43 -45 -56c70 -33 136 -88 193 -159c-56 -91 -95 -202 -121 -327l13 -3h-48v-62h336z" />
</svg>
