<?xml version="1.0" standalone="no"?>
<!DOCTYPE svg PUBLIC "-//W3C//DTD SVG 1.1//EN" "http://www.w3.org/Graphics/SVG/1.1/DTD/svg11.dtd" >
<svg xmlns="http://www.w3.org/2000/svg" xmlns:xlink="http://www.w3.org/1999/xlink" version="1.1" viewBox="-10 0 1010 1000">
   <path fill="currentColor"
d="M139 389v-108h-63v-155h392c-10 -24 -23 -50 -36 -72l72 -15c17 26 34 60 45 87h375v147h-75v-83h-700v83h45v67h95v-102h62v102h87v-67h58v116h-145v92h107v-65h58v117h-403v-117h56v65h120v-92h-150zM509 633h-393v-53h393v53zM139 759l63 10c-22 58 -57 116 -96 155
c-12 -9 -39 -23 -54 -31c39 -35 69 -84 87 -134zM548 739h-199v144c0 30 -5 44 -31 54c-24 9 -61 10 -117 10c-3 -17 -12 -38 -22 -54c40 1 75 1 86 0c11 0 14 -2 14 -11v-143h-211v-54h480v54zM394 778l54 -24c29 32 61 76 73 106l-56 27c-12 -29 -43 -75 -71 -109z
M822 365h-195c23 110 57 210 104 297c42 -82 74 -181 91 -297zM855 295l44 11c-21 178 -64 317 -126 424c49 69 107 125 178 161c-17 14 -39 41 -51 61c-66 -39 -122 -92 -169 -157c-52 70 -114 123 -186 162c-10 -17 -28 -42 -43 -56c72 -36 136 -93 188 -170
c-58 -100 -100 -221 -128 -357l41 -9h-67v-68h306z" />
</svg>
