<?xml version="1.0" standalone="no"?>
<!DOCTYPE svg PUBLIC "-//W3C//DTD SVG 1.1//EN" "http://www.w3.org/Graphics/SVG/1.1/DTD/svg11.dtd" >
<svg xmlns="http://www.w3.org/2000/svg" xmlns:xlink="http://www.w3.org/1999/xlink" version="1.1" viewBox="-10 0 1010 1000">
   <path fill="currentColor"
d="M144 184v103h-69v-163h388c-9 -22 -22 -46 -33 -66l77 -17c16 25 34 57 45 83h371v163h-72v-103h-707zM633 774h-265v69h265v-69zM699 730v157h-331v40h-65v-197h396zM878 638v250c0 34 -7 51 -32 61c-23 12 -60 12 -114 12c-4 -20 -15 -44 -24 -61c40 1 74 1 83 0
c12 0 15 -3 15 -13v-199h-603v272h-71v-322h746zM334 443h331c-19 -16 -34 -31 -49 -48h-234c-14 17 -31 33 -48 48zM660 552v-65h-315v65h315zM933 395h-239c67 57 170 103 272 124c-14 13 -33 38 -43 55c-68 -17 -136 -47 -194 -84v106h-451v-108c-60 44 -130 80 -202 107
c-7 -14 -28 -42 -42 -56c98 -32 189 -80 260 -144h-227v-53h278c12 -15 23 -29 32 -45c-64 3 -126 5 -186 6c-2 -13 -9 -35 -15 -48c201 -5 451 -22 582 -48l44 47c-91 18 -217 30 -347 38c-9 18 -20 34 -31 50h509v53z" />
</svg>
