<?xml version="1.0" standalone="no"?>
<!DOCTYPE svg PUBLIC "-//W3C//DTD SVG 1.1//EN" "http://www.w3.org/Graphics/SVG/1.1/DTD/svg11.dtd" >
<svg xmlns="http://www.w3.org/2000/svg" xmlns:xlink="http://www.w3.org/1999/xlink" version="1.1" viewBox="-10 0 1010 1000">
   <path fill="currentColor"
d="M153 183v76h-69v-135h393c-9 -24 -23 -49 -36 -71l70 -14c17 25 36 59 46 85h363v131h-70v-72h-697zM284 443v-220h65v734h-65v-292h-71c-11 124 -41 219 -106 284c-10 -11 -39 -32 -55 -41c62 -55 87 -136 96 -243h-85v-62h221v-98h-157v-224h60v162h97zM391 702v-119
h521v118h-64v-69h-237l39 7c-11 16 -24 31 -38 47h187l12 -2l38 22c-79 143 -251 215 -435 250c-7 -13 -24 -39 -35 -50c76 -11 149 -30 213 -56c-22 -20 -52 -43 -78 -59l47 -27c28 17 61 40 84 61c47 -25 86 -56 116 -92h-200c-36 28 -79 55 -129 78
c-10 -12 -27 -30 -41 -39c92 -38 158 -91 194 -140h-133v70h-61zM818 502v-70h-83v70h83zM684 502v-70h-81v70h81zM552 502v-70h-78v70h78zM418 388h459v158h-459v-158zM776 277h145v54h-145v49h-61v-49h-132v49h-61v-49h-144v-54h144v-61h61v61h132v-60h61v60z" />
</svg>
