<?xml version="1.0" standalone="no"?>
<!DOCTYPE svg PUBLIC "-//W3C//DTD SVG 1.1//EN" "http://www.w3.org/Graphics/SVG/1.1/DTD/svg11.dtd" >
<svg xmlns="http://www.w3.org/2000/svg" xmlns:xlink="http://www.w3.org/1999/xlink" version="1.1" viewBox="-10 0 1010 1000">
   <path fill="currentColor"
d="M474 409h139c2 -18 3 -37 4 -58h-459v-52h585v-54h-554v-50h554v-57h-579v-53h652v266h-134c-1 21 -2 39 -4 58h166c0 133 -1 192 45 192c16 0 20 -27 23 -79c13 10 31 23 44 30c-6 71 -21 99 -72 99c-91 0 -105 -60 -107 -189h-106c-5 24 -11 47 -19 67
c38 17 73 35 97 49l-35 46c-21 -14 -53 -31 -88 -48c-28 39 -70 69 -134 90c-6 -13 -26 -35 -40 -45c54 -17 91 -40 115 -71c-30 -13 -60 -24 -88 -33l33 -40c25 7 53 17 81 28c6 -14 9 -27 12 -43h-131v-53zM74 632l-7 -58c46 -2 103 -6 165 -11v-101h-143v-55h355v55h-142
v96l149 -11v55c-137 11 -277 21 -377 30zM747 630v45h207v63h-207v125c0 40 -9 59 -41 70s-86 11 -171 11c-3 -20 -14 -46 -24 -66c66 3 125 3 142 1c16 -1 21 -4 21 -18v-123h-397c56 32 118 79 150 115l-53 48c-32 -40 -100 -92 -159 -127l43 -36h-205v-63h621v-45h73z
" />
</svg>
