<?xml version="1.0" standalone="no"?>
<!DOCTYPE svg PUBLIC "-//W3C//DTD SVG 1.1//EN" "http://www.w3.org/Graphics/SVG/1.1/DTD/svg11.dtd" >
<svg xmlns="http://www.w3.org/2000/svg" xmlns:xlink="http://www.w3.org/1999/xlink" version="1.1" viewBox="-10 0 1010 1000">
   <path fill="currentColor"
d="M965 479l-64 20c-8 -75 -40 -198 -76 -292l58 -16c38 92 72 212 82 288zM790 44v586h-62v-586h62zM254 493v80h72v-80h-72zM254 357v77h72v-77h-72zM254 227v72h72v-72h-72zM456 357h-70v77h70v-77zM456 573v-80h-70v80h70zM547 768l-46 54c-20 -30 -73 -91 -113 -135
v270h-62v-325h-72v325h-63v-258c-35 72 -81 146 -125 190c-6 -23 -22 -55 -33 -76c48 -40 102 -112 137 -181h-91v-59h115v-80h-144v-59h144v-77h-113v-58h113v-72h-135v-58h119c-13 -30 -33 -67 -52 -95l63 -22c25 36 52 84 64 117h85c24 -38 52 -90 67 -127l68 27
c-22 34 -45 70 -65 100h148v58h-170v72h130v135h47v40c31 -73 51 -180 61 -282l65 12c-16 123 -41 249 -79 331c-10 -11 -31 -30 -47 -42h-47v139h-109c40 36 120 114 140 136zM859 498l67 23c-59 195 -171 342 -343 433c-9 -12 -30 -35 -45 -47c167 -83 272 -229 321 -409z
" />
</svg>
