<?xml version="1.0" standalone="no"?>
<!DOCTYPE svg PUBLIC "-//W3C//DTD SVG 1.1//EN" "http://www.w3.org/Graphics/SVG/1.1/DTD/svg11.dtd" >
<svg xmlns="http://www.w3.org/2000/svg" xmlns:xlink="http://www.w3.org/1999/xlink" version="1.1" viewBox="-10 0 1010 1000">
   <path fill="currentColor"
d="M894 220l-52 36c-23 -38 -68 -101 -105 -147l49 -30c37 44 84 105 108 141zM468 271l-58 34c-22 -55 -74 -142 -122 -206l53 -29c49 62 103 146 127 201zM168 71l66 20c-32 89 -90 180 -148 238c-10 -14 -33 -43 -48 -57c53 -50 102 -125 130 -201zM194 800h145v-201
h-145v201zM928 380h-244c-18 230 -71 435 -232 560c-11 -16 -32 -35 -50 -47v34h-63v-62h-145v70h-61v-382c-19 18 -38 36 -59 52c-11 -15 -31 -37 -47 -48c96 -68 178 -188 220 -311l64 19c-5 13 -10 25 -15 37c69 74 147 168 185 227l-50 45c-33 -55 -100 -140 -163 -211
c-31 63 -70 120 -115 169h249v357c150 -113 199 -299 216 -509h-171v-67h175c5 -84 5 -172 6 -260h67c-1 88 -2 176 -6 260h239v67zM772 864h72c25 0 30 -24 32 -181c15 13 44 25 63 30c-6 175 -24 220 -89 220h-86c-68 0 -85 -24 -85 -103v-385h66v385c0 29 4 34 27 34z
" />
</svg>
