<?xml version="1.0" standalone="no"?>
<!DOCTYPE svg PUBLIC "-//W3C//DTD SVG 1.1//EN" "http://www.w3.org/Graphics/SVG/1.1/DTD/svg11.dtd" >
<svg xmlns="http://www.w3.org/2000/svg" xmlns:xlink="http://www.w3.org/1999/xlink" version="1.1" viewBox="-10 0 1010 1000">
   <path fill="currentColor"
d="M844 441v308c0 35 -7 54 -34 65c-28 10 -74 11 -142 11c-3 -19 -12 -44 -21 -62c56 2 102 1 117 1c14 -1 18 -5 18 -16v-307h-410v-62h571v62h-99zM640 653v-99h-146v99h146zM434 500h268v206h-268v-206zM913 323l-46 46c-53 -34 -143 -85 -223 -122
c-38 58 -103 95 -215 119c-5 -15 -21 -39 -33 -51c120 -24 177 -60 207 -124h-189v-57h206c4 -25 7 -52 9 -82h64c-2 30 -5 57 -9 82h214v57h-228l-1 5c84 37 187 91 244 127zM445 871h356c72 0 85 -19 93 -108c17 10 44 20 63 24c-13 112 -38 143 -154 143h-354
c-140 0 -180 -24 -180 -127v-487h-43c-3 201 -23 434 -127 638c-12 -13 -38 -34 -55 -42c97 -191 115 -409 118 -596h-118v-65h119v-12v-195h64v194v13h167v65h-61v488c0 53 16 67 112 67z" />
</svg>
