<?xml version="1.0" standalone="no"?>
<!DOCTYPE svg PUBLIC "-//W3C//DTD SVG 1.1//EN" "http://www.w3.org/Graphics/SVG/1.1/DTD/svg11.dtd" >
<svg xmlns="http://www.w3.org/2000/svg" xmlns:xlink="http://www.w3.org/1999/xlink" version="1.1" viewBox="-10 0 1010 1000">
   <path fill="currentColor"
d="M865 538l48 44c-34 27 -73 56 -108 77c45 37 85 75 113 104l-53 43c-56 -64 -173 -164 -267 -233l48 -36c36 25 75 54 114 85c36 -25 79 -59 105 -84zM947 456v61h-417v229l177 -41c-2 17 -2 43 -1 57c-216 58 -244 67 -260 77v1c-4 -17 -17 -47 -27 -59
c17 -9 42 -29 42 -71v-193h-77v-61h563zM827 214v-81h-132v81h132zM827 347v-82h-132v82h132zM502 265v82h128v-82h-128zM502 133v81h128v-81h-128zM895 79v323h-459v-323h459zM444 866h370c66 0 78 -15 86 -82c18 10 45 19 65 22c-12 95 -36 124 -149 124h-367
c-144 0 -186 -26 -186 -132v-482h-38v30c0 206 -12 427 -130 609c-12 -15 -37 -39 -54 -50c104 -168 114 -373 114 -559v-30h-104v-67h104v-206h70v206h176v67h-71v482c0 54 16 68 114 68z" />
</svg>
