<?xml version="1.0" standalone="no"?>
<!DOCTYPE svg PUBLIC "-//W3C//DTD SVG 1.1//EN" "http://www.w3.org/Graphics/SVG/1.1/DTD/svg11.dtd" >
<svg xmlns="http://www.w3.org/2000/svg" xmlns:xlink="http://www.w3.org/1999/xlink" version="1.1" viewBox="-10 0 1010 1000">
   <path fill="currentColor"
d="M819 140h-609v77h609v-77zM392 456l59 21c-22 35 -50 69 -80 101v377h-64v-316c-24 20 -48 39 -72 54c-7 -11 -27 -36 -40 -50c-13 111 -40 223 -89 311c-14 -12 -46 -30 -65 -37c89 -157 96 -380 96 -540v-294h756v191h-683v103c0 76 -3 168 -14 262
c74 -45 150 -112 196 -183zM385 293l59 20c-42 64 -111 128 -174 168c-9 -11 -31 -36 -44 -47c60 -35 122 -87 159 -141zM830 642h-279v79h279v-79zM551 852h279v-78h-279v78zM486 954v-367h412v364h-68v-44h-279v47h-65zM620 479h215c43 0 51 -10 55 -74c15 8 39 17 57 20
c-8 85 -28 106 -106 106h-223c-104 0 -133 -15 -133 -81v-152h65v70c117 -15 250 -38 326 -65l32 43c-90 31 -235 55 -358 68v35c0 24 11 30 70 30z" />
</svg>
