<?xml version="1.0" standalone="no"?>
<!DOCTYPE svg PUBLIC "-//W3C//DTD SVG 1.1//EN" "http://www.w3.org/Graphics/SVG/1.1/DTD/svg11.dtd" >
<svg xmlns="http://www.w3.org/2000/svg" xmlns:xlink="http://www.w3.org/1999/xlink" version="1.1" viewBox="-10 0 1010 1000">
   <path fill="currentColor"
d="M402 838h-56v-50l-266 32v-608h57v539l73 -9v-688h61v682l75 -9v-518h56v629zM845 873h29c9 0 16 -2 21 -7c5 -6 8 -14 10 -38c2 -22 3 -75 4 -142c15 14 37 25 56 31c0 57 -4 131 -8 156c-5 28 -14 44 -27 54c-15 11 -33 14 -53 14h-49c-20 0 -42 -5 -57 -19
c-16 -14 -22 -32 -22 -117v-634h-177v266c0 164 -20 380 -159 523c-12 -13 -41 -34 -60 -44c134 -134 147 -327 147 -479v-337h321v711c0 33 2 52 7 56s11 6 17 6z" />
</svg>
