<?xml version="1.0" standalone="no"?>
<!DOCTYPE svg PUBLIC "-//W3C//DTD SVG 1.1//EN" "http://www.w3.org/Graphics/SVG/1.1/DTD/svg11.dtd" >
<svg xmlns="http://www.w3.org/2000/svg" xmlns:xlink="http://www.w3.org/1999/xlink" version="1.1" viewBox="-10 0 1010 1000">
   <path fill="currentColor"
d="M858 98v217h-714v-217h73v148h240v-202h75v202h251v-148h75zM927 476h-346c-16 23 -33 44 -53 65v417h-73v-350c-101 82 -226 141 -353 184c-10 -14 -35 -44 -51 -57c178 -50 344 -137 443 -259h-417v-66h850v66zM573 602l50 -45c111 57 249 146 322 203l-51 51
c-72 -60 -210 -151 -321 -209z" />
</svg>
