<?xml version="1.0" standalone="no"?>
<!DOCTYPE svg PUBLIC "-//W3C//DTD SVG 1.1//EN" "http://www.w3.org/Graphics/SVG/1.1/DTD/svg11.dtd" >
<svg xmlns="http://www.w3.org/2000/svg" xmlns:xlink="http://www.w3.org/1999/xlink" version="1.1" viewBox="-10 0 1010 1000">
   <path fill="currentColor"
d="M377 816h-60v-37l-244 24v-62h1v-510h57v504l63 -6v-651h60v646l63 -6v-487h60v585zM778 357v173h157v66h-157v360h-67v-360h-166v-66h166v-173h-126v-64h312v64h-119zM943 108v65h-416v216c0 157 -13 391 -95 549c-12 -12 -41 -34 -58 -41c78 -149 85 -359 85 -508v-281
h484z" />
</svg>
