<?xml version="1.0" standalone="no"?>
<!DOCTYPE svg PUBLIC "-//W3C//DTD SVG 1.1//EN" "http://www.w3.org/Graphics/SVG/1.1/DTD/svg11.dtd" >
<svg xmlns="http://www.w3.org/2000/svg" xmlns:xlink="http://www.w3.org/1999/xlink" version="1.1" viewBox="-10 0 1010 1000">
   <path fill="currentColor"
d="M330 737v-526h58v635h-58v-44l-253 25v-616h58v545l65 -7v-694h58v689zM954 671v70h-235v217h-71v-217h-225v-70h225v-153h-182v-69h182v-142h-208v-69h116c-15 -46 -49 -113 -83 -163l59 -27c37 51 75 120 90 165l-48 25h224l-51 -23c29 -47 66 -121 85 -173l75 28
c-32 58 -69 124 -100 168h132v69h-220v142h190v69h-190v153h235z" />
</svg>
