<?xml version="1.0" standalone="no"?>
<!DOCTYPE svg PUBLIC "-//W3C//DTD SVG 1.1//EN" "http://www.w3.org/Graphics/SVG/1.1/DTD/svg11.dtd" >
<svg xmlns="http://www.w3.org/2000/svg" xmlns:xlink="http://www.w3.org/1999/xlink" version="1.1" viewBox="-10 0 1010 1000">
   <path fill="currentColor"
d="M887 42l42 59c-125 43 -319 69 -482 82c-3 -16 -12 -43 -19 -60c161 -14 352 -43 459 -81zM732 350l-61 24c-6 -48 -27 -121 -50 -176l58 -23c25 55 47 127 53 175zM573 357l-59 28c-9 -46 -36 -116 -65 -167l56 -25c30 50 58 118 68 164zM331 728v-519h54v628h-54v-48
l-253 31v-608h55v540l68 -8v-690h60v682zM865 158l65 30c-31 69 -69 149 -100 201l-54 -28c30 -54 69 -141 89 -203zM952 622v67h-228v184c0 36 -7 55 -34 66c-26 11 -66 11 -128 11c-3 -19 -14 -46 -24 -64c45 1 87 1 99 0c13 -1 16 -4 16 -14v-183h-231v-67h231v-66
c41 -27 89 -66 126 -103h-307v-64h369l14 -4l47 36c-49 54 -116 112 -178 155v46h228z" />
</svg>
