<?xml version="1.0" standalone="no"?>
<!DOCTYPE svg PUBLIC "-//W3C//DTD SVG 1.1//EN" "http://www.w3.org/Graphics/SVG/1.1/DTD/svg11.dtd" >
<svg xmlns="http://www.w3.org/2000/svg" xmlns:xlink="http://www.w3.org/1999/xlink" version="1.1" viewBox="-10 0 1010 1000">
   <path fill="currentColor"
d="M884 198l-50 42c-23 -41 -80 -96 -134 -131l47 -38c54 33 112 85 137 127zM377 845h-55v-41l-236 23v-17l-2 2v-600h55v550l64 -6v-701h57v695l62 -6v-533h55v634zM744 857h121c31 0 37 -22 41 -128c15 11 40 22 59 27c-8 126 -26 163 -96 163h-132
c-69 0 -93 -18 -98 -78c-26 11 -53 21 -80 30c-7 -14 -23 -34 -37 -45c38 -12 78 -27 116 -42v-459h-48c-14 237 -55 477 -179 622c-13 -15 -35 -34 -53 -45c118 -132 156 -356 168 -577h-119v-68h123c2 -73 3 -144 3 -212h65c0 68 -1 139 -4 212h351v68h-241v128
c50 -27 99 -62 128 -98l50 21c-42 56 -112 106 -178 139v80c65 -30 125 -73 161 -119l51 19c-47 68 -130 126 -212 161v96c75 -40 143 -87 188 -137l54 26c-59 67 -146 126 -242 172v3c0 34 6 41 40 41z" />
</svg>
