<?xml version="1.0" standalone="no"?>
<!DOCTYPE svg PUBLIC "-//W3C//DTD SVG 1.1//EN" "http://www.w3.org/Graphics/SVG/1.1/DTD/svg11.dtd" >
<svg xmlns="http://www.w3.org/2000/svg" xmlns:xlink="http://www.w3.org/1999/xlink" version="1.1" viewBox="-10 0 1010 1000">
   <path fill="currentColor"
d="M194 397l-6 7c-8 -7 -24 -20 -38 -29v352c60 -70 78 -172 84 -300h-40v-30zM577 396l-6 8c-9 -10 -31 -26 -45 -35v368c67 -70 86 -176 92 -310h-41v-31zM851 152h66v798h-66v-66h-766v-733h65v202c44 -63 68 -155 80 -254l58 7c-14 102 -38 195 -77 264h186
c-17 -74 -53 -177 -89 -258l50 -16c44 93 86 212 100 286l-54 20c-4 239 -7 321 -25 345c-11 16 -25 23 -47 25c-15 2 -43 2 -69 1c0 -17 -6 -41 -15 -56c26 3 49 3 60 3c10 0 16 -1 22 -11c10 -15 14 -84 16 -282h-54c-9 153 -34 270 -107 351c-7 -8 -22 -22 -35 -31v72
h313v-759h63v305c49 -64 75 -161 87 -266l59 7c-14 101 -38 194 -77 263h184c-18 -75 -52 -177 -87 -258l50 -15c45 95 87 218 100 292l-54 21c-4 234 -7 314 -25 338c-11 16 -25 23 -47 25c-15 2 -43 1 -69 1c-1 -17 -6 -41 -15 -56c26 3 49 3 60 3c10 0 16 -1 21 -11
c10 -15 14 -84 17 -282h-54c-9 153 -34 270 -107 351c-9 -10 -30 -29 -43 -38v79h325v-667z" />
</svg>
