<?xml version="1.0" standalone="no"?>
<!DOCTYPE svg PUBLIC "-//W3C//DTD SVG 1.1//EN" "http://www.w3.org/Graphics/SVG/1.1/DTD/svg11.dtd" >
<svg xmlns="http://www.w3.org/2000/svg" xmlns:xlink="http://www.w3.org/1999/xlink" version="1.1" viewBox="-10 0 1010 1000">
   <path fill="currentColor"
d="M369 846h-55v-45l-244 26v-616h56v544l64 -7v-693h56v687l68 -7v-524h55v635zM538 427h118v-102h-102v-56h102v-84h56v84h106v56h-106v102h123v56h-297v-56zM753 621h-146v120h146v-120zM807 797h-200v45h-52v-277h252v232zM930 88v776c0 41 -9 62 -32 74
c-25 12 -66 13 -132 13c-3 -19 -12 -49 -21 -68c48 2 92 2 105 1c14 -1 19 -5 19 -20v-709h-366v303c0 158 -17 366 -134 500c-9 -12 -34 -34 -48 -41c110 -128 121 -312 121 -459v-370h488z" />
</svg>
