<?xml version="1.0" standalone="no"?>
<!DOCTYPE svg PUBLIC "-//W3C//DTD SVG 1.1//EN" "http://www.w3.org/Graphics/SVG/1.1/DTD/svg11.dtd" >
<svg xmlns="http://www.w3.org/2000/svg" xmlns:xlink="http://www.w3.org/1999/xlink" version="1.1" viewBox="-10 0 1010 1000">
   <path fill="currentColor"
d="M798 77l57 -12c22 154 54 262 116 359c-18 13 -38 34 -47 54c-69 -112 -101 -235 -126 -401zM695 81l59 8c-17 150 -49 291 -104 385c-9 -10 -34 -30 -49 -38c53 -85 80 -217 94 -355zM296 212h53v633h-53v-44l-223 21l1 -60v-549h53v544l57 -5v-696h54v691l58 -5v-530z
M637 552l-37 57c-12 -30 -39 -88 -64 -136v484h-62v-471c-25 86 -57 167 -91 220c-8 -22 -22 -51 -34 -69c47 -69 93 -197 116 -309h-93v-69h102v-206h62v206h81v69h-81v55c24 35 87 144 101 169zM818 634l51 -16c42 97 82 223 93 301l-56 20c-3 -20 -7 -44 -13 -70
c-216 30 -245 37 -263 47h-1c-3 -15 -13 -49 -20 -67c15 -5 29 -37 45 -83c17 -44 70 -213 91 -365l64 18c-26 141 -70 295 -115 412l183 -23c-16 -58 -37 -121 -59 -174z" />
</svg>
