<?xml version="1.0" standalone="no"?>
<!DOCTYPE svg PUBLIC "-//W3C//DTD SVG 1.1//EN" "http://www.w3.org/Graphics/SVG/1.1/DTD/svg11.dtd" >
<svg xmlns="http://www.w3.org/2000/svg" xmlns:xlink="http://www.w3.org/1999/xlink" version="1.1" viewBox="-10 0 1010 1000">
   <path fill="currentColor"
d="M470 214v108h-61v-169h236c-14 -28 -31 -60 -48 -85l46 -32c26 36 52 83 66 117h232v156h-63v-95h-408zM708 314l30 -42c54 40 128 104 168 152l-34 48c-35 -45 -108 -114 -164 -158zM591 275l46 30c-46 71 -105 138 -176 181c-6 -20 -20 -48 -29 -62
c66 -33 124 -94 159 -149zM309 745v-534h56v634h-56v-40l-236 22l1 -60v-555h54v550l62 -6v-701h57v696zM941 635h-230c46 122 133 216 249 256c-14 14 -32 41 -41 61c-119 -51 -207 -154 -257 -292c-36 128 -105 232 -254 296c-7 -17 -23 -43 -37 -56
c141 -55 203 -150 235 -265h-204v-63h217c8 -44 12 -91 16 -139h61c-4 48 -9 95 -16 139h143c-19 -28 -58 -69 -90 -97l39 -32c33 26 74 66 93 94l-39 35h115v63z" />
</svg>
