<?xml version="1.0" standalone="no"?>
<!DOCTYPE svg PUBLIC "-//W3C//DTD SVG 1.1//EN" "http://www.w3.org/Graphics/SVG/1.1/DTD/svg11.dtd" >
<svg xmlns="http://www.w3.org/2000/svg" xmlns:xlink="http://www.w3.org/1999/xlink" version="1.1" viewBox="-10 0 1010 1000">
   <path fill="currentColor"
d="M869 155h-393v92h393v-92zM825 379v-77h-299v77h299zM825 511v-79h-299v79h299zM461 566v-305h-54v-169h533v165h-48v309h-431zM957 657v64h-556v-64h242c-10 -23 -22 -47 -33 -67l64 -22c17 26 36 62 47 89h236zM358 845h-55v-40l-230 22l1 -60v-555h53v550l60 -6v-701
h57v695l59 -5v-534h55v634zM545 746l65 27c-59 65 -144 139 -214 186c-9 -14 -32 -44 -46 -58c68 -40 145 -99 195 -155zM729 789l46 -43c62 50 146 121 187 164l-48 50c-41 -44 -121 -119 -185 -171z" />
</svg>
