<?xml version="1.0" standalone="no"?>
<!DOCTYPE svg PUBLIC "-//W3C//DTD SVG 1.1//EN" "http://www.w3.org/Graphics/SVG/1.1/DTD/svg11.dtd" >
<svg xmlns="http://www.w3.org/2000/svg" xmlns:xlink="http://www.w3.org/1999/xlink" version="1.1" viewBox="-10 0 1010 1000">
   <path fill="currentColor"
d="M141 416h110v-54h-110v54zM141 263v53h110v-53h-110zM434 263h-116v53h116v-53zM434 416v-54h-116v54h116zM251 656v-80h-202v-57h202v-55h-170v-248h170v-52h-188v-56h188v-66h67v66h187v56h-187v52h178v248h-178v55h183v57h-183v80h-67zM788 847v-171h72v281h-72v-43
h-648v-235h70v168h251v-213h72v213h255zM636 281h316v64h-117v310h-69v-310h-131c-5 99 -25 217 -85 300c-10 -12 -40 -33 -54 -39c65 -95 73 -224 73 -319v-176c109 -8 242 -27 316 -52l37 53c-75 24 -186 40 -286 47v122z" />
</svg>
