<?xml version="1.0" standalone="no"?>
<!DOCTYPE svg PUBLIC "-//W3C//DTD SVG 1.1//EN" "http://www.w3.org/Graphics/SVG/1.1/DTD/svg11.dtd" >
<svg xmlns="http://www.w3.org/2000/svg" xmlns:xlink="http://www.w3.org/1999/xlink" version="1.1" viewBox="-10 0 1010 1000">
   <path fill="currentColor"
d="M889 78v154h-778v-154h72v95h278v-129h73v129h280v-95h75zM506 741l-3 2c33 30 78 57 131 78c49 -22 93 -49 125 -80h-253zM489 551v53h312v-53h-312zM489 458v51h312v-51h-312zM820 688l40 24c-36 56 -88 101 -152 135c75 23 160 38 246 46c-13 15 -30 41 -38 59
c-99 -13 -197 -35 -283 -70c-88 36 -189 57 -290 71c-6 -17 -18 -41 -29 -55c84 -9 170 -25 248 -49c-41 -22 -77 -47 -106 -76c-32 20 -66 36 -100 50c-9 -12 -28 -33 -41 -44c83 -32 162 -79 213 -131h-102v-218c-22 27 -45 53 -68 73c-9 -10 -26 -26 -41 -39
c-22 34 -49 68 -78 102v386h-66v-320c-29 27 -59 51 -89 72c-10 -15 -29 -36 -42 -49c85 -56 175 -146 218 -223l54 18c63 -55 121 -134 155 -219l65 19c-7 17 -15 33 -22 49h425v56h-458c-13 21 -26 40 -40 59h428v234h-261c-12 15 -25 28 -39 42h240zM252 237l65 23
c-51 73 -135 152 -213 201c-10 -14 -32 -36 -45 -47c74 -44 153 -115 193 -177z" />
</svg>
