<?xml version="1.0" standalone="no"?>
<!DOCTYPE svg PUBLIC "-//W3C//DTD SVG 1.1//EN" "http://www.w3.org/Graphics/SVG/1.1/DTD/svg11.dtd" >
<svg xmlns="http://www.w3.org/2000/svg" xmlns:xlink="http://www.w3.org/1999/xlink" version="1.1" viewBox="-10 0 1010 1000">
   <path fill="currentColor"
d="M323 737v-526h56v635h-56v-43l-246 24v-616h57v544l62 -6v-694h58v689zM531 576v69h120v-69h-120zM531 461v67h120v-67h-120zM845 528v-67h-129v67h129zM845 645v-69h-129v69h129zM720 806v69h234v57h-542v-57h236v-69h-192v-56h192v-56h-179v-282h441v282h-190v56h201
v56h-201zM810 304h149v60h-545v-60h141c-7 -28 -20 -66 -33 -94l59 -13c17 31 34 75 38 102l-19 5h144c16 -33 33 -76 42 -107h-346v-60h217c-8 -26 -22 -56 -37 -79l65 -19c21 29 40 69 47 98h203v60h-139l62 14c-16 31 -33 65 -48 93z" />
</svg>
