<?xml version="1.0" standalone="no"?>
<!DOCTYPE svg PUBLIC "-//W3C//DTD SVG 1.1//EN" "http://www.w3.org/Graphics/SVG/1.1/DTD/svg11.dtd" >
<svg xmlns="http://www.w3.org/2000/svg" xmlns:xlink="http://www.w3.org/1999/xlink" version="1.1" viewBox="-10 0 1010 1000">
   <path fill="currentColor"
d="M832 500v-53h-233v53h233zM899 406v136h-364v-136h364zM137 625v-47h737v47h-737zM718 332v-49h-431v49h431zM790 240v135h-572v-135h572zM892 74v133h-767v-133h74v77h264v-107h75v107h277v-77h77zM395 500v-53h-222v53h222zM461 406v135h-351v-135h351zM942 716h-617
c-6 18 -12 35 -18 52h522s-2 22 -5 31c-17 77 -34 116 -58 133c-19 13 -37 17 -67 18c-24 0 -75 0 -128 -3c-1 -17 -8 -40 -18 -56c50 5 103 6 122 5c18 0 27 -1 36 -6c12 -9 23 -31 34 -73h-530c13 -28 26 -66 38 -101h-197v-48h886v48z" />
</svg>
