<?xml version="1.0" standalone="no"?>
<!DOCTYPE svg PUBLIC "-//W3C//DTD SVG 1.1//EN" "http://www.w3.org/Graphics/SVG/1.1/DTD/svg11.dtd" >
<svg xmlns="http://www.w3.org/2000/svg" xmlns:xlink="http://www.w3.org/1999/xlink" version="1.1" viewBox="-10 0 1010 1000">
   <path fill="currentColor"
d="M304 745v-534h56v634h-56v-40l-230 22v-615h55v550l59 -6v-701h58v696zM524 442v63h135v-63h-135zM659 280v-63h-135v63h135zM659 392v-62h-135v62h135zM953 695h-199c53 72 131 140 202 175c-16 15 -36 41 -47 58c-70 -43 -148 -123 -202 -206v235h-65v-226
c-55 84 -134 160 -208 203c-11 -17 -32 -42 -46 -56c76 -37 156 -107 210 -183h-191v-63h235v-68h-118v24h-61v-287c-16 22 -32 43 -49 60c-7 -13 -28 -46 -39 -59c62 -65 119 -162 153 -261l60 19c-12 33 -26 67 -42 99h132c-12 -28 -33 -70 -51 -100l61 -23
c21 33 47 78 59 105l-42 18h215v58h-198v63h175v50h-175v62h176v50h-176v63h207v59h-222v68h246v63z" />
</svg>
