<?xml version="1.0" standalone="no"?>
<!DOCTYPE svg PUBLIC "-//W3C//DTD SVG 1.1//EN" "http://www.w3.org/Graphics/SVG/1.1/DTD/svg11.dtd" >
<svg xmlns="http://www.w3.org/2000/svg" xmlns:xlink="http://www.w3.org/1999/xlink" version="1.1" viewBox="-10 0 1010 1000">
   <path fill="currentColor"
d="M465 183v437h-55v-495h164c14 -28 29 -61 37 -85l70 18c-13 23 -25 46 -38 67h277v495h-57v-437h-398zM841 358v52h-155v161h-51v-146c-27 58 -75 124 -118 163c-7 -14 -21 -35 -32 -46c38 -28 80 -81 106 -132h-105v-52h149v-145h51v145h155zM825 538l-39 31
c-17 -33 -55 -87 -87 -126l35 -26c34 37 73 89 91 121zM501 244l41 -21c27 30 52 71 63 101l-45 23c-9 -29 -33 -72 -59 -103zM774 221l49 23c-24 36 -48 74 -68 100l-38 -19c19 -29 45 -75 57 -104zM360 845h-56v-40l-231 22l1 -60v-555h55v550l59 -6v-701h57v695l59 -5
v-534h56v634zM956 726h-249c45 89 132 145 257 168c-14 14 -31 41 -40 60c-129 -30 -218 -97 -269 -202c-38 100 -114 166 -272 205c-6 -16 -22 -43 -34 -56c150 -33 218 -89 250 -175h-213v-61h230c5 -24 8 -49 11 -76h62c-3 27 -6 52 -10 76h277v61z" />
</svg>
