<?xml version="1.0" standalone="no"?>
<!DOCTYPE svg PUBLIC "-//W3C//DTD SVG 1.1//EN" "http://www.w3.org/Graphics/SVG/1.1/DTD/svg11.dtd" >
<svg xmlns="http://www.w3.org/2000/svg" xmlns:xlink="http://www.w3.org/1999/xlink" version="1.1" viewBox="-10 0 1010 1000">
   <path fill="currentColor"
d="M943 120v57h-543v-57h245c-12 -23 -29 -47 -44 -66l56 -26c23 28 47 64 63 92h223zM534 265v64h268v-64h-268zM869 373h-400v-152h400v152zM454 463v85h-63v-134h547v134h-65v-85h-419zM293 745v-534h52v634h-52v-40l-221 22l1 -60v-555h51v550l58 -6v-701h53v695z
M873 568l42 44c-31 23 -68 46 -103 66c35 71 96 151 147 192c-14 11 -35 33 -46 48c-49 -47 -109 -137 -146 -214l-22 12c41 87 33 177 -5 215c-22 22 -46 29 -75 29c-15 0 -34 0 -55 -1c-1 -17 -6 -42 -16 -59c23 3 44 3 58 3c17 0 30 -1 40 -14c20 -19 27 -68 10 -123
c-80 66 -204 130 -310 163c-5 -14 -18 -37 -28 -50c113 -26 247 -93 319 -159c-6 -11 -13 -22 -21 -33c-66 48 -160 97 -240 123c-4 -13 -16 -34 -26 -44c80 -21 178 -65 239 -111c-11 -11 -24 -22 -38 -31c-47 32 -103 59 -155 79c-5 -11 -20 -35 -31 -46
c69 -22 142 -54 192 -97h-130v-49h383v49h-185c-10 11 -21 22 -33 31c35 24 61 52 82 82c51 -30 114 -73 153 -105z" />
</svg>
