<?xml version="1.0" standalone="no"?>
<!DOCTYPE svg PUBLIC "-//W3C//DTD SVG 1.1//EN" "http://www.w3.org/Graphics/SVG/1.1/DTD/svg11.dtd" >
<svg xmlns="http://www.w3.org/2000/svg" xmlns:xlink="http://www.w3.org/1999/xlink" version="1.1" viewBox="-10 0 1010 1000">
   <path fill="currentColor"
d="M951 283h-95c26 54 68 105 115 131c-15 11 -34 32 -44 47c-48 -33 -91 -93 -120 -153c-19 49 -57 97 -123 134c-10 -14 -28 -34 -43 -45c61 -31 93 -72 109 -114h-76v-54h90c2 -18 3 -36 3 -52v-8h-81v-54h81v-71h64v71h92v54h-92v9c0 16 -1 34 -3 51h123v54zM654 362
l-33 46c-20 -17 -52 -42 -84 -63c-22 45 -57 87 -115 122c-9 -15 -29 -36 -43 -47c68 -35 100 -86 115 -137h-86v-54h96c2 -15 2 -30 2 -44v-16h-85v-54h85v-71h64v71h74v54h-74v16c0 14 -1 29 -2 44h84v54h-93l-3 12c35 22 74 49 98 67zM351 845h-53v-40l-224 22v-615h52
v550l58 -6v-701h55v696l59 -6v-534h53v634zM561 808l64 36c-58 46 -152 93 -232 118c-11 -14 -33 -37 -49 -48c80 -23 173 -67 217 -106zM534 759h284v-58h-284v58zM534 597v56h284v-56h-284zM534 493v57h284v-57h-284zM889 808h-108c64 35 138 77 183 108l-60 41
c-41 -29 -110 -75 -173 -110l47 -39h-312v-364h423v364z" />
</svg>
