<?xml version="1.0" standalone="no"?>
<!DOCTYPE svg PUBLIC "-//W3C//DTD SVG 1.1//EN" "http://www.w3.org/Graphics/SVG/1.1/DTD/svg11.dtd" >
<svg xmlns="http://www.w3.org/2000/svg" xmlns:xlink="http://www.w3.org/1999/xlink" version="1.1" viewBox="-10 0 1010 1000">
   <path fill="currentColor"
d="M950 122v55h-552v-55h243c-10 -23 -23 -47 -35 -68l65 -17c19 25 38 59 48 85h231zM299 745v-534h54v634h-54v-40l-225 22v-615h52v550l59 -6v-701h55v696zM598 590v55h142v-55h-142zM598 489v53h142v-53h-142zM481 267v71h104v-71h-104zM752 267v71h107v-71h-107z
M908 712l43 40c-37 26 -85 51 -127 71c40 35 87 61 140 78c-16 12 -37 35 -48 52c-118 -43 -206 -135 -252 -249c-25 22 -55 44 -86 65v101l141 -25c0 18 3 43 6 57c-174 36 -202 44 -219 54c-7 -14 -24 -38 -36 -47c17 -11 43 -36 43 -80v-24c-36 18 -73 34 -109 48
c-9 -13 -32 -39 -45 -50c79 -26 162 -61 222 -106h-197v-52h146v-55h-97v-48h97v-53h-120v-49h120v-55h-105v-166h219v166h-46v55h142v-55h-44v-166h221v166h-108v55h124v49h-124v53h101v48h-101v55h146v52h-228c16 31 35 61 58 87c43 -22 93 -51 123 -72z" />
</svg>
