<?xml version="1.0" standalone="no"?>
<!DOCTYPE svg PUBLIC "-//W3C//DTD SVG 1.1//EN" "http://www.w3.org/Graphics/SVG/1.1/DTD/svg11.dtd" >
<svg xmlns="http://www.w3.org/2000/svg" xmlns:xlink="http://www.w3.org/1999/xlink" version="1.1" viewBox="-10 0 1010 1000">
   <path fill="currentColor"
d="M364 232v438c0 27 -4 46 -21 57c-16 11 -39 13 -72 13c-2 -17 -11 -44 -20 -61c24 1 43 1 50 1c7 -1 9 -3 9 -12v-369h-62v658h-59v-658h-66v453h-54v-520h120v-187h59v187h116zM867 686l66 26c-93 130 -272 206 -490 246c-7 -20 -23 -46 -38 -62
c205 -31 379 -98 462 -210zM777 598l58 24c-74 85 -204 150 -336 189c-9 -15 -25 -37 -40 -49c124 -32 251 -93 318 -164zM702 495l57 24c-55 64 -149 120 -234 154c-11 -14 -29 -32 -43 -44c80 -28 171 -79 220 -134zM945 405h-154c42 63 109 122 171 154
c-16 12 -36 35 -47 52c-72 -43 -148 -126 -191 -206h-79c-53 88 -126 157 -213 206c-10 -13 -34 -39 -48 -50c75 -38 138 -89 185 -156h-163v-63h200c11 -23 22 -49 29 -75c-141 13 -165 17 -183 23c-4 -14 -15 -52 -23 -71c16 -2 35 -14 57 -32c22 -16 98 -81 146 -146
l72 31c-49 53 -106 105 -162 146l268 -20c-23 -25 -46 -50 -67 -70l56 -35c52 52 122 124 155 168l-58 39c-11 -14 -24 -32 -41 -52c-92 8 -162 14 -216 19l62 12c-7 22 -15 43 -23 63h267v63z" />
</svg>
