<?xml version="1.0" standalone="no"?>
<!DOCTYPE svg PUBLIC "-//W3C//DTD SVG 1.1//EN" "http://www.w3.org/Graphics/SVG/1.1/DTD/svg11.dtd" >
<svg xmlns="http://www.w3.org/2000/svg" xmlns:xlink="http://www.w3.org/1999/xlink" version="1.1" viewBox="-10 0 1010 1000">
   <path fill="currentColor"
d="M612 172l-61 29c-16 -33 -50 -88 -77 -128l57 -25c28 38 63 91 81 124zM374 232v438c0 28 -3 48 -21 60c-16 12 -38 13 -71 13c-2 -18 -11 -46 -20 -64c24 1 42 1 50 1c7 -1 9 -3 9 -12v-369h-69v658h-60v-658h-68v453h-55v-520h123v-187h60v187h122zM594 614h85v-85h-85
v85zM594 391v80h85v-80h-85zM594 260v74h85v-74h-85zM838 391h-99v80h99v-80zM838 614v-85h-99v85h99zM896 670h-132c51 85 131 170 203 214c-15 12 -34 36 -44 53c-62 -47 -132 -127 -184 -210v231h-60v-288h-85v289h-59v-222c-38 85 -89 162 -143 208
c-10 -14 -28 -38 -41 -50c62 -45 121 -134 160 -225h-105v-56h129v-85h-142v-58h142v-80h-124v-57h124v-74h-141v-58h294c32 -44 72 -109 93 -156l64 30c-28 42 -59 88 -88 126h180v58h-198v74h157v137h62v58h-62v141z" />
</svg>
