<?xml version="1.0" standalone="no"?>
<!DOCTYPE svg PUBLIC "-//W3C//DTD SVG 1.1//EN" "http://www.w3.org/Graphics/SVG/1.1/DTD/svg11.dtd" >
<svg xmlns="http://www.w3.org/2000/svg" xmlns:xlink="http://www.w3.org/1999/xlink" version="1.1" viewBox="-10 0 1010 1000">
   <path fill="currentColor"
d="M536 277v-80h-141v-63h141v-91h65v91h165v-91h65v91h117v63h-117v80h-65v-80h-165v80h-65zM936 381h-403v101h355v61h-420v-162h-55v-61h247c-7 -21 -15 -41 -23 -59l57 -20c11 24 22 53 30 79h212v61zM373 232v438c0 28 -4 48 -21 60c-16 12 -38 13 -71 13
c-2 -18 -10 -46 -20 -64c25 1 43 1 50 1c7 -1 9 -3 9 -12v-373h-67v662h-60v-662h-69v453h-54v-516h123v-187h60v187h120zM469 672v-74h63v76c0 93 -11 202 -105 286c-10 -16 -36 -36 -51 -46c83 -72 93 -166 93 -242zM622 930v-327h63v327h-63zM865 890h20c7 0 14 -1 17 -5
c4 -3 7 -10 9 -21c3 -14 3 -45 4 -84c12 11 32 22 49 27c-2 39 -5 83 -10 98c-4 15 -14 27 -24 33s-28 9 -41 9h-40c-18 0 -37 -5 -49 -17c-13 -12 -17 -28 -17 -85v-247h64v255c0 17 1 28 4 32c3 3 8 5 14 5z" />
</svg>
