<?xml version="1.0" standalone="no"?>
<!DOCTYPE svg PUBLIC "-//W3C//DTD SVG 1.1//EN" "http://www.w3.org/Graphics/SVG/1.1/DTD/svg11.dtd" >
<svg xmlns="http://www.w3.org/2000/svg" xmlns:xlink="http://www.w3.org/1999/xlink" version="1.1" viewBox="-10 0 1010 1000">
   <path fill="currentColor"
d="M466 534v258c0 32 -5 50 -25 62c-19 11 -51 12 -95 12c-2 -20 -10 -45 -17 -64c33 1 58 1 67 0c9 0 11 -3 11 -11v-193h-94v359h-62v-359h-95v263h-58v-327h153v-99h62v99h153zM365 200l56 18c-16 40 -33 85 -48 122h131v159h-59v-101h-327v102h-57v-160h113
c-5 -33 -22 -86 -37 -125l52 -14c17 40 34 93 40 126l-41 13h128c17 -42 35 -99 46 -140h-291v-64h177c-7 -25 -16 -50 -25 -72l55 -20c13 28 26 63 34 92h179v64h-126zM672 862h173c35 0 41 -12 45 -72c15 10 41 20 60 24c-9 87 -29 112 -100 112h-183
c-92 0 -117 -21 -117 -104v-450h287v-62h-287v-259h64v75h298v60h-298v68h288v174h-288v69h291v51h-291v61h280v51h-280v62h289v52h-289v48c0 33 8 40 58 40z" />
</svg>
