<?xml version="1.0" standalone="no"?>
<!DOCTYPE svg PUBLIC "-//W3C//DTD SVG 1.1//EN" "http://www.w3.org/Graphics/SVG/1.1/DTD/svg11.dtd" >
<svg xmlns="http://www.w3.org/2000/svg" xmlns:xlink="http://www.w3.org/1999/xlink" version="1.1" viewBox="-10 0 1010 1000">
   <path fill="currentColor"
d="M445 483l-56 22c-3 -14 -8 -30 -15 -47c-230 23 -259 28 -277 37c-2 -13 -12 -43 -19 -60c19 -2 40 -19 66 -45c13 -11 39 -39 71 -74c-95 10 -115 15 -126 21c-3 -14 -12 -43 -17 -58c13 -3 27 -18 44 -38c17 -22 75 -105 110 -186l57 22c-38 70 -83 139 -128 193
l105 -8c22 -30 46 -62 66 -94l57 25c-63 87 -134 168 -204 231l174 -15c-12 -24 -25 -48 -38 -69l53 -17c33 50 66 116 77 160zM779 628l68 18c-32 65 -77 120 -130 168c38 41 80 63 125 63c38 0 50 -26 58 -128c16 16 40 29 59 36c-16 128 -42 163 -120 163
c-68 0 -128 -33 -179 -89c-54 39 -113 71 -174 97c-9 -15 -34 -43 -49 -55c66 -24 128 -55 183 -93c-37 -54 -69 -122 -94 -199h-263c-3 24 -6 50 -11 74h213s-1 19 -2 30c-12 124 -24 177 -45 198c-14 15 -29 21 -51 22c-19 2 -53 2 -88 0c-1 -19 -8 -45 -18 -63
c34 4 65 4 76 4c13 0 21 -1 28 -8c11 -12 20 -45 28 -122h-157c-24 84 -69 162 -141 209c-12 -15 -36 -37 -52 -46c101 -63 138 -187 147 -298h-134v-64h451c-40 -147 -62 -322 -64 -501h73c0 186 24 361 66 501h182c-27 -22 -66 -45 -99 -61l33 -33c-69 9 -86 13 -97 17
c-2 -12 -12 -42 -18 -58c17 -3 39 -21 64 -46c13 -11 39 -39 69 -74c-93 10 -113 16 -124 21c-3 -13 -11 -43 -18 -58c14 -2 26 -15 41 -36c16 -19 69 -96 100 -169l56 21c-34 64 -74 127 -114 176l102 -8c24 -30 47 -63 68 -95l56 25c-61 86 -131 166 -199 230l152 -15
c-12 -23 -26 -45 -40 -65l52 -23c38 51 76 119 88 164l-55 25c-4 -14 -11 -32 -20 -52c-66 8 -114 14 -150 18c39 19 84 45 108 67l-29 29h157v64h-345c22 59 46 111 74 154c43 -40 78 -85 103 -135z" />
</svg>
