<?xml version="1.0" standalone="no"?>
<!DOCTYPE svg PUBLIC "-//W3C//DTD SVG 1.1//EN" "http://www.w3.org/Graphics/SVG/1.1/DTD/svg11.dtd" >
<svg xmlns="http://www.w3.org/2000/svg" xmlns:xlink="http://www.w3.org/1999/xlink" version="1.1" viewBox="-10 0 1010 1000">
   <path fill="currentColor"
d="M939 224h-746v208c0 152 -13 377 -95 528c-12 -13 -44 -33 -60 -40c76 -144 83 -345 83 -488v-277h388c-12 -33 -27 -70 -41 -100l73 -18c18 37 37 82 50 118h348v69zM905 400v68h-634v-68h282c-10 -37 -23 -79 -35 -113l67 -18c16 41 32 91 42 131h278zM509 787l-67 21
c-17 -76 -56 -191 -90 -278l63 -17c36 87 76 200 94 274zM688 843h262v68h-725v-68h392c46 -95 97 -232 126 -333l77 19c-38 101 -87 223 -132 314z" />
</svg>
