<?xml version="1.0" standalone="no"?>
<!DOCTYPE svg PUBLIC "-//W3C//DTD SVG 1.1//EN" "http://www.w3.org/Graphics/SVG/1.1/DTD/svg11.dtd" >
<svg xmlns="http://www.w3.org/2000/svg" xmlns:xlink="http://www.w3.org/1999/xlink" version="1.1" viewBox="-10 0 1010 1000">
   <path fill="currentColor"
d="M944 206h-736v213c0 154 -14 384 -104 536c-14 -13 -45 -34 -63 -41c85 -145 94 -349 94 -495v-281h371c-10 -27 -22 -58 -34 -83l72 -18c16 31 33 70 44 101h356v68zM833 646h-253c24 38 53 73 87 104c54 -29 119 -69 166 -104zM379 508v75h398v-75h-398zM777 372h-398
v80h398v-80zM854 630l53 39c-58 42 -133 85 -196 117c71 51 158 88 255 109c-15 14 -33 39 -43 56c-187 -46 -331 -153 -412 -305h-132v219l215 -54c0 18 3 46 7 59c-252 67 -285 77 -307 89c-4 -18 -15 -54 -27 -73c16 -7 40 -20 40 -53v-524h236c-7 -23 -14 -48 -22 -70
l69 -13c11 26 22 57 30 83h226v327z" />
</svg>
