<?xml version="1.0" standalone="no"?>
<!DOCTYPE svg PUBLIC "-//W3C//DTD SVG 1.1//EN" "http://www.w3.org/Graphics/SVG/1.1/DTD/svg11.dtd" >
<svg xmlns="http://www.w3.org/2000/svg" xmlns:xlink="http://www.w3.org/1999/xlink" version="1.1" viewBox="-10 0 1010 1000">
   <path fill="currentColor"
d="M943 192h-755v210c0 157 -11 391 -87 551c-14 -11 -46 -27 -65 -33c73 -152 80 -368 80 -518v-275h377c-10 -24 -23 -49 -35 -71l71 -19c17 26 35 61 48 90h366v65zM227 522h321v-77h-258v-58h258v-73h-294v-59h650v59h-284v73h244v58h-244v77h316v60h-709v-60zM955 686
v62h-189v208h-72v-208h-220c-12 78 -59 156 -222 206c-9 -17 -31 -41 -45 -53c137 -40 181 -96 195 -153h-188v-62h194v-80h70v80h216v-82h72v82h189z" />
</svg>
