<?xml version="1.0" standalone="no"?>
<!DOCTYPE svg PUBLIC "-//W3C//DTD SVG 1.1//EN" "http://www.w3.org/Graphics/SVG/1.1/DTD/svg11.dtd" >
<svg xmlns="http://www.w3.org/2000/svg" xmlns:xlink="http://www.w3.org/1999/xlink" version="1.1" viewBox="-10 0 1010 1000">
   <path fill="currentColor"
d="M935 189h-753v241c0 152 -11 375 -88 525c-11 -13 -41 -36 -56 -43c69 -141 75 -337 75 -482v-305h404c-11 -23 -25 -47 -37 -68l66 -20c19 26 38 61 51 88h338v64zM419 511v31c34 39 102 124 117 147l-36 55c-15 -29 -51 -83 -81 -128v338h-64v-343
c-34 94 -81 184 -134 237c-7 -20 -22 -48 -33 -66c60 -59 117 -166 148 -271h-116v-63h135v-116c-36 7 -71 13 -105 17c-3 -16 -10 -37 -18 -54c90 -15 202 -39 264 -68l34 56c-31 14 -70 26 -111 35v130h109v63h-109zM771 871h92c24 0 29 -21 32 -124c14 12 40 23 60 29
c-8 124 -25 161 -86 161h-106c-70 0 -88 -23 -88 -103v-231l-138 20l-9 -65l147 -20v-169c-38 9 -77 18 -113 25c-4 -15 -12 -38 -21 -54c115 -24 253 -64 329 -107l39 56c-46 24 -106 44 -169 62v179l196 -27l8 63l-204 28v240c0 32 4 37 31 37z" />
</svg>
