<?xml version="1.0" standalone="no"?>
<!DOCTYPE svg PUBLIC "-//W3C//DTD SVG 1.1//EN" "http://www.w3.org/Graphics/SVG/1.1/DTD/svg11.dtd" >
<svg xmlns="http://www.w3.org/2000/svg" xmlns:xlink="http://www.w3.org/1999/xlink" version="1.1" viewBox="-10 0 1010 1000">
   <path fill="currentColor"
d="M880 573l13 -3l48 18c-80 209 -279 305 -508 347c-7 -19 -23 -46 -36 -62c98 -14 191 -41 269 -82c-26 -23 -60 -47 -91 -66l56 -36c31 18 68 42 95 66c46 -33 84 -72 112 -118h-192c-50 40 -111 77 -185 109c-11 -17 -32 -40 -48 -50c133 -52 227 -128 273 -197
c-78 41 -166 70 -254 90c-7 -16 -24 -40 -37 -53c72 -14 146 -36 211 -66c-25 -20 -56 -42 -82 -58l53 -34c29 17 65 39 92 60c50 -29 93 -62 126 -101h-207c-41 31 -86 61 -140 87c-12 -16 -35 -39 -51 -50c106 -46 183 -110 224 -168l77 16c-12 18 -27 36 -44 53h191
l14 -3l46 23c-46 85 -121 151 -213 200l73 12c-15 23 -31 44 -51 66h166zM581 114h361v63h-740v254c0 28 0 59 -2 91c73 -80 137 -197 176 -315l70 19c-19 58 -45 117 -73 172v537h-64v-429c-25 38 -51 71 -78 100c-4 -12 -19 -39 -32 -58c-8 138 -32 296 -99 408
c-13 -12 -43 -33 -60 -42c83 -139 91 -337 91 -483v-317h370c-8 -17 -18 -33 -29 -48l65 -24c16 22 33 49 44 72z" />
</svg>
