<?xml version="1.0" standalone="no"?>
<!DOCTYPE svg PUBLIC "-//W3C//DTD SVG 1.1//EN" "http://www.w3.org/Graphics/SVG/1.1/DTD/svg11.dtd" >
<svg xmlns="http://www.w3.org/2000/svg" xmlns:xlink="http://www.w3.org/1999/xlink" version="1.1" viewBox="-10 0 1010 1000">
   <path fill="currentColor"
d="M195 173v260c0 153 -12 373 -95 520c-12 -11 -41 -31 -56 -39c77 -139 84 -337 84 -481v-316h376c-8 -20 -18 -41 -28 -58l66 -16c16 22 30 50 39 74h361v56h-747zM335 373v128c0 131 -15 319 -99 449c-13 -11 -40 -29 -57 -35c81 -124 91 -294 91 -415v-178h235v-126h70
v41h310v41h-310v44h297l11 -2l45 11c-13 39 -31 84 -47 111l-56 -10c8 -16 17 -37 24 -59h-293v53l230 -10l2 42l-232 12v12c0 25 10 30 60 30h192c31 0 38 -7 41 -44c14 7 33 13 49 16c-4 56 -24 71 -82 71h-203c-92 0 -119 -13 -119 -74v-9l-129 6l-2 -44l131 -6v-55h-159
zM466 819v52h322v-52h-322zM788 638h-322v50h322v-50zM788 776v-46h-322v46h322zM852 871h98v49h-641v-49h95v-282h448v282z" />
</svg>
