<?xml version="1.0" standalone="no"?>
<!DOCTYPE svg PUBLIC "-//W3C//DTD SVG 1.1//EN" "http://www.w3.org/Graphics/SVG/1.1/DTD/svg11.dtd" >
<svg xmlns="http://www.w3.org/2000/svg" xmlns:xlink="http://www.w3.org/1999/xlink" version="1.1" viewBox="-10 0 1010 1000">
   <path fill="currentColor"
d="M202 212v201c0 158 -12 388 -98 544c-15 -12 -48 -28 -66 -34c83 -151 91 -361 91 -510v-270h386c-12 -27 -27 -59 -42 -84l71 -21c21 32 41 73 55 105h346v69h-743zM311 626l120 -15c8 -20 15 -42 21 -63l61 16c-47 171 -145 303 -289 383c-9 -15 -28 -41 -42 -52
c97 -53 174 -131 224 -227c-142 20 -167 26 -182 34c-3 -12 -13 -40 -21 -53c19 -3 39 -23 64 -51c15 -16 49 -58 86 -110c-93 9 -114 14 -127 19c-3 -12 -13 -41 -21 -55c15 -3 27 -18 44 -40c16 -21 70 -105 98 -185l62 22c-32 66 -73 135 -115 190l97 -7
c16 -26 33 -53 46 -79l55 27c-54 88 -117 176 -181 246zM607 733v104h142v-104h-142zM749 515v-98h-142v98h142zM749 674v-99h-142v99h142zM948 837v64h-341v54h-61v-456c-12 17 -24 32 -35 46c-13 -12 -36 -31 -50 -40c68 -74 125 -191 155 -285l62 17
c-13 38 -30 78 -48 118h139c-14 -33 -38 -77 -57 -112l54 -17c24 38 53 92 65 125l-11 4h120v62h-131v98h119v60h-119v99h120v59h-120v104h139z" />
</svg>
