<?xml version="1.0" standalone="no"?>
<!DOCTYPE svg PUBLIC "-//W3C//DTD SVG 1.1//EN" "http://www.w3.org/Graphics/SVG/1.1/DTD/svg11.dtd" >
<svg xmlns="http://www.w3.org/2000/svg" xmlns:xlink="http://www.w3.org/1999/xlink" version="1.1" viewBox="-10 0 1010 1000">
   <path fill="currentColor"
d="M370 610h396c-64 -36 -124 -81 -167 -129v108h-70v-104c-42 46 -98 90 -159 125zM597 860h159v-77h-159v77zM379 783v77h152v-77h-152zM531 735v-72h-152v72h152zM756 735v-72h-159v72h159zM529 423v-104c-44 3 -88 6 -131 8c25 29 48 68 58 96h73zM915 481h-237
c68 59 172 110 268 135c-15 13 -35 37 -45 54c-25 -8 -51 -18 -76 -30v300h-69v-28h-377v28h-67v-300c-23 12 -48 22 -70 30c-10 -17 -30 -40 -44 -53c90 -26 188 -77 256 -136h-228v-58h160c-12 -26 -30 -55 -47 -78l46 -18c-38 2 -75 3 -110 4c-2 -16 -9 -39 -16 -53
c197 -6 432 -23 557 -48l59 47c-77 16 -173 27 -276 36v110h75c21 -34 48 -81 61 -116l70 22c-20 32 -43 66 -64 94h174v58zM580 135h369v65h-768v207c0 159 -11 390 -87 548c-12 -10 -43 -24 -60 -30c73 -153 80 -368 80 -518v-272h383c-12 -26 -25 -55 -39 -78l70 -21
c19 30 39 68 52 99z" />
</svg>
