<?xml version="1.0" standalone="no"?>
<!DOCTYPE svg PUBLIC "-//W3C//DTD SVG 1.1//EN" "http://www.w3.org/Graphics/SVG/1.1/DTD/svg11.dtd" >
<svg xmlns="http://www.w3.org/2000/svg" xmlns:xlink="http://www.w3.org/1999/xlink" version="1.1" viewBox="-10 0 1010 1000">
   <path fill="currentColor"
d="M950 197h-769v211c0 159 -10 390 -85 549c-12 -11 -43 -24 -60 -31c71 -153 78 -367 78 -518v-273h383c-11 -26 -25 -55 -39 -78l71 -21c18 30 39 68 52 99h369v62zM661 777h-187v50h187v-50zM718 871h-244v30h-57v-168h301v138zM876 642v221c0 35 -7 52 -35 63
c-27 11 -69 11 -133 11c-4 -19 -14 -43 -24 -61c49 1 92 1 105 1c14 -1 17 -5 17 -16v-170h-477v249h-65v-298h612zM436 465h261c-19 -16 -36 -32 -50 -49h-162c-14 17 -31 33 -49 49zM680 557v-47h-231v47h231zM938 416h-216c63 53 154 101 237 124c-14 13 -33 37 -43 52
c-57 -19 -117 -52 -171 -90v100h-360v-96c-46 34 -101 65 -164 90c-7 -15 -25 -37 -40 -47c93 -35 167 -82 221 -133h-184v-55h234c16 -20 28 -39 39 -59c-75 2 -151 2 -221 1c-1 -14 -7 -36 -13 -49c197 1 443 -8 571 -29l47 46c-84 14 -195 23 -311 28
c-11 21 -23 41 -37 62h411v55z" />
</svg>
