<?xml version="1.0" standalone="no"?>
<!DOCTYPE svg PUBLIC "-//W3C//DTD SVG 1.1//EN" "http://www.w3.org/Graphics/SVG/1.1/DTD/svg11.dtd" >
<svg xmlns="http://www.w3.org/2000/svg" xmlns:xlink="http://www.w3.org/1999/xlink" version="1.1" viewBox="-10 0 1010 1000">
   <path fill="currentColor"
d="M941 191h-755v212c0 158 -12 392 -87 552c-13 -11 -44 -26 -62 -32c73 -154 80 -369 80 -520v-274h387c-10 -25 -24 -51 -37 -73l72 -20c18 28 36 64 49 93h353v62zM740 356l109 -31v-46h-189c36 13 79 32 103 49zM911 431h-62v-62c-87 28 -177 55 -245 75l-24 -45
c39 -10 89 -24 145 -39c-26 -17 -69 -39 -104 -52l28 -29h-63v-47h325v199zM372 360l113 -32v-49h-178c33 14 72 34 92 50zM546 428h-61v-56c-84 26 -172 52 -239 73l-22 -46c39 -9 87 -23 141 -37c-23 -18 -64 -43 -99 -56l27 -27h-65v-47h318v196zM446 832l59 24
c-67 41 -169 78 -251 100c-10 -11 -33 -35 -47 -45c85 -18 181 -47 239 -79zM637 866l39 -35c94 24 200 57 262 86l-52 38c-57 -29 -152 -63 -249 -89zM484 740v45h189v-45h-189zM484 653v43h189v-43h-189zM338 571v41h201v-41h-201zM338 492v38h201v-38h-201zM803 530v-38
h-204v38h204zM803 612v-41h-204v41h204zM736 785h216v45h-757v-45h226v-45h-182v-44h182v-43h-141v-203h584v203h-128v43h192v44h-192v45z" />
</svg>
