<?xml version="1.0" standalone="no"?>
<!DOCTYPE svg PUBLIC "-//W3C//DTD SVG 1.1//EN" "http://www.w3.org/Graphics/SVG/1.1/DTD/svg11.dtd" >
<svg xmlns="http://www.w3.org/2000/svg" xmlns:xlink="http://www.w3.org/1999/xlink" version="1.1" viewBox="-10 0 1010 1000">
   <path fill="currentColor"
d="M444 64l58 26c-24 47 -53 97 -76 131l-50 -24c23 -36 52 -93 68 -133zM226 190l-54 31c-11 -35 -42 -89 -70 -127l51 -28c29 38 61 90 73 124zM709 585v79h237v66h-237v224h-73v-224h-274c-14 84 -64 169 -239 224c-8 -16 -30 -44 -46 -56c144 -45 193 -107 209 -168
h-233v-66h240v-79h73v79h270v-79h73zM350 373h-94v64h94v-64zM399 484h-143v31h-48v-189h191v158zM815 221h-166c20 56 50 108 86 153c35 -42 62 -93 80 -153zM947 221h-63c-22 80 -58 147 -103 202c49 47 108 84 176 107c-15 12 -33 38 -42 55c-69 -27 -129 -67 -179 -117
c-51 45 -111 81 -182 109c-7 -15 -25 -44 -38 -59c69 -24 128 -57 176 -99c-32 -42 -59 -89 -82 -141c-18 25 -36 49 -55 70c-10 -10 -28 -26 -43 -38v192c0 29 -4 44 -24 54c-18 10 -48 10 -91 10c-1 -16 -9 -38 -17 -53c30 1 55 1 64 0c9 0 11 -3 11 -11v-223h-300v295
h-57v-347h173v-179h66v179h175v67c60 -63 111 -155 141 -249l64 16c-11 33 -25 67 -40 99h270v61z" />
</svg>
