<?xml version="1.0" standalone="no"?>
<!DOCTYPE svg PUBLIC "-//W3C//DTD SVG 1.1//EN" "http://www.w3.org/Graphics/SVG/1.1/DTD/svg11.dtd" >
<svg xmlns="http://www.w3.org/2000/svg" xmlns:xlink="http://www.w3.org/1999/xlink" version="1.1" viewBox="-10 0 1010 1000">
   <path fill="currentColor"
d="M905 104v70h-478v-70h478zM135 534h220s-1 22 -2 32c-12 236 -24 324 -51 354c-18 21 -37 28 -67 30c-26 2 -76 2 -126 -1c-1 -21 -8 -49 -21 -68c51 5 101 6 120 6c17 0 26 -2 35 -11c18 -19 29 -92 39 -276h-217c7 -76 11 -198 11 -290h207v-153h-227v-67h298v286h-214
c-1 53 -3 110 -5 158zM942 402h-338c-11 47 -25 97 -37 141h328s-1 23 -3 34c-23 221 -45 311 -80 345c-21 22 -42 28 -76 30c-27 2 -79 2 -133 -2c-2 -21 -11 -51 -24 -71c56 5 109 6 131 6c18 0 30 -1 40 -10c25 -22 46 -95 64 -262h-347c20 -57 45 -140 62 -211h-132v-70
h545v70z" />
</svg>
