<?xml version="1.0" standalone="no"?>
<!DOCTYPE svg PUBLIC "-//W3C//DTD SVG 1.1//EN" "http://www.w3.org/Graphics/SVG/1.1/DTD/svg11.dtd" >
<svg xmlns="http://www.w3.org/2000/svg" xmlns:xlink="http://www.w3.org/1999/xlink" version="1.1" viewBox="-10 0 1010 1000">
   <path fill="currentColor"
d="M56 157v-67h302v287h-216c-1 53 -3 109 -5 157h221s0 22 -2 32c-12 234 -23 322 -52 353c-17 20 -35 27 -65 30c-26 2 -75 1 -126 -1c-1 -23 -9 -52 -23 -73c50 5 99 6 118 6c17 0 27 -2 36 -11c18 -18 29 -89 39 -270h-219c7 -76 11 -198 11 -290h210v-153h-229z
M506 514h174c-4 -47 -7 -96 -8 -147h-166v147zM844 152h-338v145h338v-145zM955 585h-197c22 177 69 292 123 291c18 0 27 -42 30 -134c16 14 40 28 59 34c-9 135 -35 171 -94 171c-100 0 -161 -147 -188 -362h-182v271l169 -43c0 21 2 50 4 66c-183 50 -230 66 -252 78
l-9 5c-3 -20 -13 -58 -25 -80c19 -5 42 -15 42 -49v-751h481v285h-173c1 52 3 101 7 147h205v71z" />
</svg>
