<?xml version="1.0" standalone="no"?>
<!DOCTYPE svg PUBLIC "-//W3C//DTD SVG 1.1//EN" "http://www.w3.org/Graphics/SVG/1.1/DTD/svg11.dtd" >
<svg xmlns="http://www.w3.org/2000/svg" xmlns:xlink="http://www.w3.org/1999/xlink" version="1.1" viewBox="-10 0 1010 1000">
   <path fill="currentColor"
d="M134 534h205s0 22 -1 32c-12 234 -24 322 -50 353c-17 20 -35 27 -64 30c-24 2 -72 1 -119 -1c-2 -23 -10 -52 -23 -73c49 5 96 6 114 6c16 0 26 -2 34 -11c18 -18 29 -89 38 -270h-203c6 -76 11 -198 11 -290h193v-153h-211v-67h281v287h-201c0 52 -2 109 -4 157z
M805 509h-218c26 76 65 146 113 205c45 -58 80 -128 105 -205zM493 443h141v-177h-141v177zM843 440l42 17c-27 123 -77 224 -140 306c59 57 129 101 212 129c-16 14 -37 40 -47 59c-82 -32 -151 -78 -209 -137c-59 62 -127 108 -198 142c-9 -17 -27 -41 -42 -55
c71 -29 138 -75 196 -136c-59 -72 -103 -158 -136 -256h-29c-5 144 -30 324 -114 451c-11 -13 -41 -35 -57 -43c93 -140 103 -336 103 -478v-240h210v-155h69v155h169l11 -2l50 12c-17 70 -39 150 -59 200l-61 -14c12 -33 25 -82 36 -129h-146v177h128z" />
</svg>
