<?xml version="1.0" standalone="no"?>
<!DOCTYPE svg PUBLIC "-//W3C//DTD SVG 1.1//EN" "http://www.w3.org/Graphics/SVG/1.1/DTD/svg11.dtd" >
<svg xmlns="http://www.w3.org/2000/svg" xmlns:xlink="http://www.w3.org/1999/xlink" version="1.1" viewBox="-10 0 1010 1000">
   <path fill="currentColor"
d="M812 230v-88h-289v-62h358v212h-278c-4 29 -8 60 -12 87h290s0 19 -1 29c-10 122 -20 175 -42 197c-15 16 -32 22 -59 24c-23 1 -68 1 -114 -1c-1 -21 -10 -48 -21 -67c45 4 88 5 105 5c16 0 25 -1 33 -8c10 -11 18 -43 25 -117h-291c10 -57 21 -142 27 -211h269z
M373 229v-89h-274v-61h344v212h-263c-4 29 -7 60 -11 87h273s-1 19 -2 29c-10 119 -19 171 -41 192c-16 17 -33 22 -60 24c-23 1 -70 2 -117 -1c-2 -21 -10 -48 -20 -66c46 4 91 4 107 4s25 -1 33 -8c10 -11 19 -41 26 -112h-275c10 -57 21 -142 27 -211h253zM352 756l68 48
c-84 54 -213 110 -315 143c-11 -16 -34 -42 -50 -57c101 -32 231 -87 297 -134zM576 808l54 -50c114 42 237 95 312 137l-70 52c-69 -42 -184 -96 -296 -139zM60 658h882v70h-882v-70z" />
</svg>
