<?xml version="1.0" standalone="no"?>
<!DOCTYPE svg PUBLIC "-//W3C//DTD SVG 1.1//EN" "http://www.w3.org/Graphics/SVG/1.1/DTD/svg11.dtd" >
<svg xmlns="http://www.w3.org/2000/svg" xmlns:xlink="http://www.w3.org/1999/xlink" version="1.1" viewBox="-10 0 1010 1000">
   <path fill="currentColor"
d="M600 691l-15 36c-23 -10 -52 -20 -84 -31c-23 19 -45 35 -68 49c-9 -8 -29 -21 -41 -27c20 -11 38 -23 57 -36c-27 -7 -55 -15 -83 -21c-26 21 -54 40 -81 54c-9 -7 -30 -22 -42 -29c24 -10 46 -24 67 -38c-26 -5 -50 -9 -74 -13l16 -32c29 5 62 11 94 17
c13 -11 25 -23 33 -35l48 11c-7 12 -18 24 -29 36c29 7 59 13 86 21c19 -16 35 -34 48 -53l47 12c-13 19 -29 38 -47 56c26 8 49 16 68 23zM639 753v-182h-437v182h437zM707 515v295h-570v-295h570zM883 389v35c-15 328 -28 447 -65 488c-23 25 -47 33 -86 36
c-38 2 -113 0 -183 -4c-2 -20 -11 -48 -25 -67c80 7 155 8 183 8c24 0 36 -2 48 -13c29 -26 42 -140 55 -417h-650c14 -59 30 -146 40 -217h562v-86h-604v-65h677v216h-571c-5 29 -10 59 -15 86h634z" />
</svg>
