<?xml version="1.0" standalone="no"?>
<!DOCTYPE svg PUBLIC "-//W3C//DTD SVG 1.1//EN" "http://www.w3.org/Graphics/SVG/1.1/DTD/svg11.dtd" >
<svg xmlns="http://www.w3.org/2000/svg" xmlns:xlink="http://www.w3.org/1999/xlink" version="1.1" viewBox="-10 0 1010 1000">
   <path fill="currentColor"
d="M289 234h411c7 -27 12 -53 17 -76h-406c-7 26 -15 53 -22 76zM946 426h-431c-48 63 -109 120 -177 170h185v-107h74v107h287v220c0 39 -8 59 -38 71s-78 12 -149 12c-4 -21 -15 -48 -23 -69c56 2 104 1 118 1c15 -1 19 -4 19 -15v-153h-214v293h-74v-293h-178v240h-73
v-262c-61 40 -125 74 -188 101c-7 -14 -28 -44 -40 -58c147 -55 295 -147 391 -258h-112c-65 65 -163 122 -251 157c-6 -11 -22 -40 -34 -52c70 -25 148 -62 204 -105h-182v-63h611c6 -24 11 -49 17 -74h-490c24 -66 54 -167 74 -247l69 9l-14 51h407l13 -4l53 9
c-13 75 -35 171 -56 256h202v63z" />
</svg>
