<?xml version="1.0" standalone="no"?>
<!DOCTYPE svg PUBLIC "-//W3C//DTD SVG 1.1//EN" "http://www.w3.org/Graphics/SVG/1.1/DTD/svg11.dtd" >
<svg xmlns="http://www.w3.org/2000/svg" xmlns:xlink="http://www.w3.org/1999/xlink" version="1.1" viewBox="-10 0 1010 1000">
   <path fill="currentColor"
d="M170 591h101v-73c-32 27 -66 52 -101 73zM205 226h157c6 -23 12 -46 17 -66h-152c-7 23 -15 46 -22 66zM481 591v225c0 34 -4 53 -26 65c-19 12 -50 12 -93 12c-2 -21 -8 -48 -17 -67c30 1 55 1 63 0c9 0 11 -3 11 -12v-161h-87v292h-61v-292h-81v235h-61v-272
c-17 9 -34 19 -51 27c-7 -13 -25 -39 -37 -50c106 -46 215 -119 284 -205h-73c-45 53 -113 100 -173 130c-8 -10 -25 -35 -37 -45c50 -21 101 -51 140 -85h-122v-59h274l13 -47h-229c24 -63 55 -161 76 -237l64 10c-4 16 -9 32 -14 49h153l11 -3l46 10
c-15 66 -36 146 -57 218h96v59h-101c-32 46 -72 88 -117 127h57v76h149zM713 595v-69c-31 25 -62 49 -96 69h96zM639 228h162c6 -23 12 -45 17 -65h-158c-7 22 -14 45 -21 65zM953 392h-116c-31 46 -71 89 -115 127h52v76h150v225c0 35 -4 54 -25 66c-20 12 -51 13 -92 13
c-3 -22 -10 -49 -18 -69c30 1 55 1 63 1c9 0 11 -3 11 -12v-161h-89v293h-61v-293h-84v235h-61v-268c-15 8 -29 16 -44 23c-7 -13 -25 -39 -36 -51c105 -46 214 -118 284 -205h-81c-50 56 -125 105 -192 137c-6 -12 -25 -37 -37 -46c56 -23 114 -55 157 -91h-114v-60h267
c5 -16 10 -31 14 -48h-235c25 -63 55 -161 76 -237l65 9c-5 17 -10 33 -15 51h159l11 -3l45 9c-15 66 -37 147 -56 219h117v60z" />
</svg>
