<?xml version="1.0" standalone="no"?>
<!DOCTYPE svg PUBLIC "-//W3C//DTD SVG 1.1//EN" "http://www.w3.org/Graphics/SVG/1.1/DTD/svg11.dtd" >
<svg xmlns="http://www.w3.org/2000/svg" xmlns:xlink="http://www.w3.org/1999/xlink" version="1.1" viewBox="-10 0 1010 1000">
   <path fill="currentColor"
d="M837 62l71 29c-73 90 -183 178 -282 233c-12 -14 -35 -37 -53 -50c93 -48 204 -132 264 -212zM864 324l67 31c-78 97 -203 192 -311 251c-14 -16 -36 -39 -54 -54c105 -51 230 -141 298 -228zM427 806v-252h-270v252h270zM324 294v190h176v445h-73v-52h-270v63h-70v-456
h164v-440h73v179h211v71h-211zM882 607l71 28c-86 133 -230 246 -381 314c-12 -19 -34 -44 -53 -61c145 -57 287 -162 363 -281z" />
</svg>
