<?xml version="1.0" standalone="no"?>
<!DOCTYPE svg PUBLIC "-//W3C//DTD SVG 1.1//EN" "http://www.w3.org/Graphics/SVG/1.1/DTD/svg11.dtd" >
<svg xmlns="http://www.w3.org/2000/svg" xmlns:xlink="http://www.w3.org/1999/xlink" version="1.1" viewBox="-10 0 1010 1000">
   <path fill="currentColor"
d="M758 243v-66h-517v66h517zM758 360v-68h-517v68h517zM829 126v285h-656v-285h245c16 -27 31 -59 40 -82l81 16c-14 23 -29 45 -43 66h333zM464 427h69v149c59 -16 110 -35 147 -56l43 35c-125 74 -373 125 -588 133c-6 -18 -19 -41 -31 -57c120 0 249 -15 360 -38v-166z
M756 621l44 36c-135 89 -403 150 -640 161c-6 -17 -17 -41 -30 -57c238 -3 504 -60 626 -140zM309 433l63 23c-61 55 -166 102 -254 131c-13 -13 -37 -34 -54 -45c91 -24 192 -63 245 -109zM859 721l44 38c-168 112 -501 184 -800 192c-4 -18 -15 -41 -26 -59
c300 -1 631 -70 782 -171zM670 460l40 -41c83 34 186 91 239 134l-44 46c-50 -42 -152 -102 -235 -139z" />
</svg>
