<?xml version="1.0" standalone="no"?>
<!DOCTYPE svg PUBLIC "-//W3C//DTD SVG 1.1//EN" "http://www.w3.org/Graphics/SVG/1.1/DTD/svg11.dtd" >
<svg xmlns="http://www.w3.org/2000/svg" xmlns:xlink="http://www.w3.org/1999/xlink" version="1.1" viewBox="-10 0 1010 1000">
   <path fill="currentColor"
d="M843 61l70 29c-68 87 -174 172 -269 226c-13 -16 -34 -37 -53 -52c89 -45 195 -126 252 -203zM871 334l69 29c-74 92 -188 182 -290 238c-12 -16 -34 -40 -52 -53c96 -49 210 -133 273 -214zM170 281l41 -13c23 45 51 106 62 142l-44 17c-10 -38 -35 -99 -59 -146z
M427 427l-40 -15c21 -39 48 -101 63 -142l46 16c-22 49 -47 103 -69 141zM514 461v-228h-158v228h158zM145 233v228h160v-228h-160zM576 175v344h-490v-344h124c-11 -32 -35 -76 -58 -110l58 -22c25 34 51 80 64 111l-49 21h157c26 -39 56 -95 72 -133l67 24
c-23 36 -48 77 -72 109h127zM469 631h-279v87h279v-87zM190 855h279v-83h-279v83zM128 953v-381h406v377h-65v-37h-279v41h-62zM894 613l70 27c-74 133 -201 246 -341 315c-12 -18 -33 -43 -52 -59c133 -59 258 -164 323 -283z" />
</svg>
