<?xml version="1.0" standalone="no"?>
<!DOCTYPE svg PUBLIC "-//W3C//DTD SVG 1.1//EN" "http://www.w3.org/Graphics/SVG/1.1/DTD/svg11.dtd" >
<svg xmlns="http://www.w3.org/2000/svg" xmlns:xlink="http://www.w3.org/1999/xlink" version="1.1" viewBox="-10 0 1010 1000">
   <path fill="currentColor"
d="M942 171l-54 37c-23 -35 -70 -87 -113 -122l52 -33c42 35 91 84 115 118zM258 46l70 27c-58 85 -154 179 -242 238c-9 -17 -27 -46 -39 -60c78 -51 168 -135 211 -205zM272 265l65 25c-23 43 -52 85 -83 127v539h-72v-453c-35 39 -73 76 -109 105c-7 -16 -27 -55 -41 -73
c89 -65 183 -167 240 -270zM648 569h-111c-6 111 -31 225 -120 318c-10 -14 -33 -37 -50 -47c76 -80 98 -178 104 -271h-109v-67h111v-5v-156h66v157v4h109v67zM855 386l69 14c-33 116 -77 218 -133 306c25 112 57 180 90 180c17 0 27 -46 31 -154c14 17 37 32 53 39
c-12 140 -32 185 -92 185c-58 0 -103 -67 -135 -177c-56 71 -122 131 -197 179c-10 -15 -36 -42 -52 -55c92 -52 167 -123 228 -209c-23 -108 -38 -245 -46 -395h-325v-68h322c-3 -61 -4 -123 -5 -187h72c0 64 1 127 3 187h211v68h-208c6 115 17 218 30 306
c35 -67 63 -139 84 -219z" />
</svg>
