<?xml version="1.0" standalone="no"?>
<!DOCTYPE svg PUBLIC "-//W3C//DTD SVG 1.1//EN" "http://www.w3.org/Graphics/SVG/1.1/DTD/svg11.dtd" >
<svg xmlns="http://www.w3.org/2000/svg" xmlns:xlink="http://www.w3.org/1999/xlink" version="1.1" viewBox="-10 0 1010 1000">
   <path fill="currentColor"
d="M900 515l-58 34c-10 -19 -24 -44 -40 -70c-341 32 -379 37 -404 48c-3 -15 -14 -48 -21 -67c16 -3 34 -19 55 -43c24 -23 96 -113 144 -201l66 30c-46 71 -100 144 -153 200l276 -23c-22 -33 -47 -68 -69 -97l54 -29c53 69 120 161 150 218zM260 47l70 27
c-59 85 -154 178 -243 237c-8 -16 -27 -45 -40 -60c80 -51 169 -134 213 -204zM496 68l68 21c-45 99 -119 197 -193 261c-7 -11 -25 -36 -38 -53c-27 48 -58 96 -93 142v517h-72v-432c-30 33 -63 65 -93 90c-7 -17 -29 -55 -41 -73c86 -65 177 -167 232 -269l67 25l-8 -8
c67 -54 132 -137 171 -221zM477 553h67c-11 199 -43 323 -209 395c-8 -18 -27 -46 -40 -60c150 -59 173 -163 182 -335zM760 858h82c26 0 31 -18 33 -144c15 14 41 25 58 30c-6 146 -22 182 -84 182h-96c-69 0 -87 -22 -87 -96v-276h65v275c0 25 4 29 29 29zM685 83l59 -28
c50 81 144 179 214 230c-18 13 -44 40 -56 58c-69 -60 -163 -171 -217 -260z" />
</svg>
