<?xml version="1.0" standalone="no"?>
<!DOCTYPE svg PUBLIC "-//W3C//DTD SVG 1.1//EN" "http://www.w3.org/Graphics/SVG/1.1/DTD/svg11.dtd" >
<svg xmlns="http://www.w3.org/2000/svg" xmlns:xlink="http://www.w3.org/1999/xlink" version="1.1" viewBox="-10 0 1010 1000">
   <path fill="currentColor"
d="M249 46l64 28c-56 85 -147 178 -231 237c-7 -16 -24 -45 -35 -60c75 -51 160 -134 202 -205zM265 265l59 27c-22 41 -49 81 -77 122v542h-65v-461c-37 42 -75 82 -113 113c-6 -16 -25 -55 -37 -72c86 -66 178 -168 233 -271zM591 457h-151c-5 35 -11 72 -18 105h169v-105
zM663 278v112h168v-112h-168zM663 562h268s-1 20 -2 30c-11 156 -21 221 -44 245c-14 17 -31 23 -55 25c-20 2 -58 2 -97 0c-2 -22 -9 -49 -20 -68c37 4 71 4 84 4c14 0 22 -1 29 -9c13 -13 21 -55 30 -161h-193v329h-72v-277c-72 99 -173 188 -271 238
c-12 -19 -35 -46 -51 -61c103 -44 210 -132 278 -229h-206c14 -64 30 -161 39 -238h211v-112h-248v-68h148c-15 -39 -47 -97 -79 -139l64 -26c35 43 71 103 85 141l-52 24h240l-54 -21c29 -39 66 -102 84 -147l77 26c-32 51 -68 106 -97 142h143v247h-239v105z" />
</svg>
