<?xml version="1.0" standalone="no"?>
<!DOCTYPE svg PUBLIC "-//W3C//DTD SVG 1.1//EN" "http://www.w3.org/Graphics/SVG/1.1/DTD/svg11.dtd" >
<svg xmlns="http://www.w3.org/2000/svg" xmlns:xlink="http://www.w3.org/1999/xlink" version="1.1" viewBox="-10 0 1010 1000">
   <path fill="currentColor"
d="M201 43l69 25c-47 81 -122 171 -192 229c-9 -15 -28 -42 -40 -56c62 -51 130 -131 163 -198zM225 244l65 23c-20 44 -45 88 -71 132v557h-66v-459c-25 32 -49 63 -74 89c-7 -15 -30 -50 -43 -64c71 -71 143 -176 189 -278zM385 740h203v-69h-203v69zM588 551h-203v69h203
v-69zM651 496v375c0 35 -6 50 -29 60c-22 10 -59 10 -115 10c-2 -17 -11 -40 -19 -56c41 1 75 1 85 1c12 -1 15 -4 15 -15v-80h-203v153h-63v-448h329zM561 311l53 -20c37 50 77 118 93 162l-56 23c-5 -13 -11 -29 -20 -46c-266 21 -300 25 -320 33c-3 -14 -13 -45 -20 -63
c21 -3 46 -21 77 -46c12 -9 36 -29 64 -55c-88 7 -108 11 -120 16c-2 -13 -13 -43 -20 -61c15 -2 30 -15 48 -34s78 -92 117 -163l60 25c-40 60 -85 120 -130 166l104 -6c32 -33 67 -71 96 -108l59 33c-75 84 -156 161 -236 223l193 -13c-13 -23 -28 -46 -42 -66zM824 874
h38c10 0 19 -1 25 -5c5 -4 11 -13 13 -32c2 -20 4 -64 5 -121c14 14 35 25 55 32c-2 48 -6 111 -11 133c-5 26 -15 40 -29 49s-35 12 -55 12h-56c-20 0 -44 -5 -58 -19c-17 -14 -24 -32 -24 -119v-736h67v745c0 32 2 50 9 56c6 3 13 5 21 5z" />
</svg>
