<?xml version="1.0" standalone="no"?>
<!DOCTYPE svg PUBLIC "-//W3C//DTD SVG 1.1//EN" "http://www.w3.org/Graphics/SVG/1.1/DTD/svg11.dtd" >
<svg xmlns="http://www.w3.org/2000/svg" xmlns:xlink="http://www.w3.org/1999/xlink" version="1.1" viewBox="-10 0 1010 1000">
   <path fill="currentColor"
d="M857 45l44 54c-139 39 -356 64 -538 77c-2 -16 -10 -40 -17 -55c178 -15 394 -41 511 -76zM675 288l-59 18c-5 -33 -19 -88 -36 -129l57 -16c17 40 33 94 38 127zM508 292l-56 24c-8 -29 -30 -78 -48 -115l52 -20c20 35 42 82 52 111zM252 47l66 27
c-56 85 -149 178 -234 237c-8 -16 -25 -45 -37 -60c77 -51 163 -134 205 -204zM269 265l61 27c-22 41 -49 82 -78 121v543h-68v-460c-37 43 -76 81 -114 112c-6 -17 -25 -55 -38 -72c88 -66 181 -168 237 -271zM791 660h-226c30 47 71 89 120 124c43 -34 79 -75 106 -124z
M840 597l40 23c-31 82 -79 148 -140 200c65 36 141 62 223 77c-14 15 -33 42 -43 62c-87 -20 -167 -53 -236 -97c-67 44 -143 75 -224 97c-8 -16 -27 -44 -41 -56c76 -18 149 -44 211 -81c-46 -39 -85 -83 -117 -133c-41 110 -99 197 -182 266c-11 -13 -39 -36 -55 -47
c116 -84 181 -214 217 -382h-148v-62h159c4 -26 8 -53 12 -81h-153v-61h365c30 -45 70 -121 90 -173l67 22c-28 51 -60 109 -87 151h126v61h-341c-3 28 -7 55 -12 81h368v62h-380c-5 25 -10 51 -17 74h286z" />
</svg>
