<?xml version="1.0" standalone="no"?>
<!DOCTYPE svg PUBLIC "-//W3C//DTD SVG 1.1//EN" "http://www.w3.org/Graphics/SVG/1.1/DTD/svg11.dtd" >
<svg xmlns="http://www.w3.org/2000/svg" xmlns:xlink="http://www.w3.org/1999/xlink" version="1.1" viewBox="-10 0 1010 1000">
   <path fill="currentColor"
d="M794 242v-106h-332v106h332zM865 74v230h-471v-230h471zM239 47l65 27c-53 85 -140 178 -222 237c-8 -17 -26 -46 -37 -60c73 -52 155 -135 194 -204zM256 265l60 26c-21 42 -48 86 -77 127v539h-68v-453c-33 39 -68 74 -102 104c-7 -17 -25 -55 -38 -73
c84 -65 171 -167 225 -270zM468 688v94c94 -5 199 -11 308 -18v-76h-308zM776 437h-308v75h308v-75zM468 563v75h308v-75h-308zM948 755l-2 63l-101 7v127h-69v-124c-179 12 -352 22 -475 30l-8 -68l107 -5v-348h-82v-64h612v64h-85v324z" />
</svg>
