<?xml version="1.0" standalone="no"?>
<!DOCTYPE svg PUBLIC "-//W3C//DTD SVG 1.1//EN" "http://www.w3.org/Graphics/SVG/1.1/DTD/svg11.dtd" >
<svg xmlns="http://www.w3.org/2000/svg" xmlns:xlink="http://www.w3.org/1999/xlink" version="1.1" viewBox="-10 0 1010 1000">
   <path fill="currentColor"
d="M620 122v238h-318v-239h54v179h73v-256h59v256h77v-178h55zM205 50l66 25c-49 88 -128 188 -200 253c-6 -16 -23 -48 -32 -62c62 -56 131 -145 166 -216zM224 286l62 23c-19 41 -43 83 -68 124v521h-67v-424c-29 39 -60 75 -89 105c-7 -14 -28 -51 -40 -66
c74 -72 153 -178 202 -283zM625 438v63h-334v-63h334zM853 291h-111c-3 11 -7 23 -11 33c13 107 32 207 61 295c31 -95 49 -206 61 -328zM374 831h175v-174h-175v174zM959 291h-44c-17 160 -44 297 -89 412c37 82 86 147 150 190c-15 13 -38 38 -47 56
c-57 -43 -101 -102 -137 -174c-35 68 -78 126 -133 175c-9 -11 -31 -33 -45 -44v34h-65v-48h-175v51h-62v-348h302v307c64 -52 111 -120 147 -200c-31 -84 -54 -181 -70 -289c-12 23 -25 45 -39 64c-7 -15 -27 -48 -40 -63c64 -89 103 -227 125 -371l64 11
c-10 59 -22 117 -38 172h196v65z" />
</svg>
