<?xml version="1.0" standalone="no"?>
<!DOCTYPE svg PUBLIC "-//W3C//DTD SVG 1.1//EN" "http://www.w3.org/Graphics/SVG/1.1/DTD/svg11.dtd" >
<svg xmlns="http://www.w3.org/2000/svg" xmlns:xlink="http://www.w3.org/1999/xlink" version="1.1" viewBox="-10 0 1010 1000">
   <path fill="currentColor"
d="M210 43l65 26c-48 79 -124 169 -193 228c-8 -15 -26 -42 -38 -56c62 -51 131 -132 166 -198zM238 254l61 24c-24 48 -54 97 -86 144v536h-65v-452c-23 27 -45 52 -68 73c-6 -14 -26 -52 -38 -67c72 -65 148 -163 196 -258zM424 924l-49 -28c30 -37 51 -103 62 -157l51 18
c-12 56 -32 125 -64 167zM763 402v-57h-104v57h104zM763 503v-59h-104v59h104zM763 605v-60h-104v60h104zM605 682v-268c-17 25 -34 49 -52 69c-6 -10 -23 -31 -34 -41v249h-54v-267c-16 23 -32 45 -49 62c-5 -9 -20 -31 -31 -44v54c0 140 -11 333 -91 460
c-11 -10 -39 -29 -54 -35c75 -121 82 -292 82 -425v-352h306c-10 -26 -25 -58 -41 -82l55 -21c23 30 43 73 52 103h254v55h-563v237c52 -57 97 -138 124 -219l54 13c-12 35 -27 70 -44 103v107c51 -57 93 -139 119 -221l52 13c-7 23 -15 45 -25 67h108
c-8 -23 -21 -48 -34 -69l47 -19c18 26 36 62 43 88h97v46h-108v57h99v42h-99v59h99v42h-99v60h125v47h-284v30h-54zM612 709l45 -25c42 37 86 89 105 123l-48 28c-19 -36 -64 -91 -102 -126zM636 893h120c26 0 32 -8 35 -71c13 9 38 17 56 21c-7 82 -26 103 -83 103h-135
c-78 0 -97 -16 -97 -76v-134h64v133c0 21 6 24 40 24zM797 745l49 -25c47 48 96 113 115 158l-53 30c-17 -46 -65 -114 -111 -163z" />
</svg>
