<?xml version="1.0" standalone="no"?>
<!DOCTYPE svg PUBLIC "-//W3C//DTD SVG 1.1//EN" "http://www.w3.org/Graphics/SVG/1.1/DTD/svg11.dtd" >
<svg xmlns="http://www.w3.org/2000/svg" xmlns:xlink="http://www.w3.org/1999/xlink" version="1.1" viewBox="-10 0 1010 1000">
   <path fill="currentColor"
d="M99 511l-60 -21c26 -66 44 -174 51 -255l59 8c-5 81 -24 196 -50 268zM186 955v-912h72v912h-72zM391 392l-56 25c-10 -49 -39 -130 -67 -191l53 -20c29 61 60 139 70 186zM560 268l59 -30c40 55 86 129 105 177l-62 35c-19 -48 -63 -126 -102 -182zM827 196h-349
c38 161 94 306 173 425c79 -115 141 -258 176 -425zM863 122l51 17c-38 228 -113 409 -214 548c70 85 154 153 257 197c-18 16 -42 47 -55 68c-101 -48 -184 -116 -253 -200c-77 89 -167 157 -264 205c-10 -19 -32 -50 -50 -64c97 -43 188 -114 266 -207
c-90 -133 -152 -301 -195 -490h-30v-70h474z" />
</svg>
