<?xml version="1.0" standalone="no"?>
<!DOCTYPE svg PUBLIC "-//W3C//DTD SVG 1.1//EN" "http://www.w3.org/Graphics/SVG/1.1/DTD/svg11.dtd" >
<svg xmlns="http://www.w3.org/2000/svg" xmlns:xlink="http://www.w3.org/1999/xlink" version="1.1" viewBox="-10 0 1010 1000">
   <path fill="currentColor"
d="M98 511l-59 -21c24 -66 42 -175 48 -255l57 8c-4 80 -21 195 -46 268zM184 956v-913h72v913h-72zM262 226l55 -24c31 57 64 134 76 180l-59 29c-10 -48 -43 -126 -72 -185zM952 500h-229c38 181 112 331 244 397c-17 14 -38 40 -48 60c-123 -70 -196 -202 -241 -371
c-36 128 -112 261 -270 374c-12 -16 -38 -41 -56 -53c190 -123 253 -273 273 -407h-235v-70h242c3 -34 3 -67 3 -96v-137c-65 11 -131 18 -193 24c-3 -16 -14 -44 -22 -60c158 -18 344 -49 444 -93l54 58c-58 24 -131 42 -209 58v150c0 30 -1 63 -4 96h247v70z" />
</svg>
