<?xml version="1.0" standalone="no"?>
<!DOCTYPE svg PUBLIC "-//W3C//DTD SVG 1.1//EN" "http://www.w3.org/Graphics/SVG/1.1/DTD/svg11.dtd" >
<svg xmlns="http://www.w3.org/2000/svg" xmlns:xlink="http://www.w3.org/1999/xlink" version="1.1" viewBox="-10 0 1010 1000">
   <path fill="currentColor"
d="M92 510l-60 -20c26 -66 44 -174 51 -255l58 8c-5 82 -23 196 -49 267zM179 956v-913h70v913h-70zM254 226l54 -24c32 59 66 134 77 180l-57 30c-12 -48 -44 -127 -74 -186zM776 525v-216h-248v216h248zM528 823h248v-228h-248v228zM958 237v72h-109v646h-73v-61h-248v63
h-72v-648h-89v-72h89v-193h72v193h248v-193h73v193h109z" />
</svg>
