<?xml version="1.0" standalone="no"?>
<!DOCTYPE svg PUBLIC "-//W3C//DTD SVG 1.1//EN" "http://www.w3.org/Graphics/SVG/1.1/DTD/svg11.dtd" >
<svg xmlns="http://www.w3.org/2000/svg" xmlns:xlink="http://www.w3.org/1999/xlink" version="1.1" viewBox="-10 0 1010 1000">
   <path fill="currentColor"
d="M94 511l-61 -20c26 -66 44 -175 51 -255l58 8c-5 81 -22 196 -48 267zM180 956v-913h72v913h-72zM432 820l39 -57c138 29 324 87 423 136l-41 66c-93 -49 -278 -112 -421 -145zM568 623l46 -44c64 35 151 88 194 122l-47 51c-43 -36 -127 -92 -193 -129zM576 223l-11 18
c27 49 63 98 109 145c48 -48 90 -102 120 -163h-218zM845 155l46 27c-39 97 -97 181 -167 252c67 58 148 107 240 140c-15 15 -36 44 -48 64c-94 -38 -175 -94 -243 -156c-88 75 -189 132 -292 171c-8 -18 -30 -50 -45 -63c103 -35 204 -89 288 -158
c-40 -44 -73 -89 -100 -134c-29 39 -59 73 -90 101c-11 -10 -32 -28 -49 -41c2 6 4 12 5 18l-59 30c-11 -47 -42 -122 -71 -179l56 -26c24 46 50 101 64 144c87 -72 161 -185 205 -302l72 20c-13 32 -28 64 -44 95h218z" />
</svg>
