<?xml version="1.0" standalone="no"?>
<!DOCTYPE svg PUBLIC "-//W3C//DTD SVG 1.1//EN" "http://www.w3.org/Graphics/SVG/1.1/DTD/svg11.dtd" >
<svg xmlns="http://www.w3.org/2000/svg" xmlns:xlink="http://www.w3.org/1999/xlink" version="1.1" viewBox="-10 0 1010 1000">
   <path fill="currentColor"
d="M87 510l-54 -19c26 -66 44 -175 51 -256l53 8c-5 81 -23 195 -50 267zM171 956v-913h72v913h-72zM756 405h164v544h-72v-65h-448v-68h448v-139h-409v-67h409v-135h-421v-70h240c44 -47 96 -125 129 -196h-220c-48 85 -106 161 -170 216c-9 -12 -28 -31 -42 -45l2 11
l-54 23c-7 -48 -31 -129 -53 -189l50 -17c20 49 40 110 51 155c92 -77 169 -193 212 -320l71 19c-10 28 -22 56 -34 82h219l13 -4l50 28c-31 83 -84 171 -135 237z" />
</svg>
