<?xml version="1.0" standalone="no"?>
<!DOCTYPE svg PUBLIC "-//W3C//DTD SVG 1.1//EN" "http://www.w3.org/Graphics/SVG/1.1/DTD/svg11.dtd" >
<svg xmlns="http://www.w3.org/2000/svg" xmlns:xlink="http://www.w3.org/1999/xlink" version="1.1" viewBox="-10 0 1010 1000">
   <path fill="currentColor"
d="M789 528v-384h-561v81h469v220h-469v83h561zM228 285v99h395v-99h-395zM865 83v506h-710v-506h710zM437 627l58 -31c47 44 101 107 126 150l-62 35c-22 -42 -75 -108 -122 -154zM110 888l-66 -32c41 -56 81 -144 104 -206l62 27c-27 63 -63 153 -100 211zM422 864h220
c52 0 62 -14 66 -116c17 13 48 24 70 28c-11 126 -35 157 -131 157h-229c-115 0 -145 -21 -145 -101v-177h73v176c0 28 12 33 76 33zM773 666l65 -25c46 63 94 150 112 206l-70 29c-16 -56 -62 -144 -107 -210z" />
</svg>
