<?xml version="1.0" standalone="no"?>
<!DOCTYPE svg PUBLIC "-//W3C//DTD SVG 1.1//EN" "http://www.w3.org/Graphics/SVG/1.1/DTD/svg11.dtd" >
<svg xmlns="http://www.w3.org/2000/svg" xmlns:xlink="http://www.w3.org/1999/xlink" version="1.1" viewBox="-10 0 1010 1000">
   <path fill="currentColor"
d="M92 507l-56 -18c22 -68 39 -180 45 -258l54 8c-4 78 -20 194 -43 268zM163 955v-911h69v911h-69zM250 217l53 -17c18 55 37 126 44 167l-57 21c-6 -44 -22 -116 -40 -171zM531 51l65 18c-22 65 -50 130 -81 191v693h-69v-576c-25 37 -52 71 -79 101
c-9 -15 -30 -48 -45 -63c88 -89 162 -224 209 -364zM962 533h-171v327h155v70h-371v-70h146v-327h-169v-71h169v-246c-46 12 -93 22 -137 30c-4 -16 -15 -43 -25 -59c117 -25 252 -64 326 -107l57 59c-42 22 -95 41 -151 57v266h171v71z" />
</svg>
