<?xml version="1.0" standalone="no"?>
<!DOCTYPE svg PUBLIC "-//W3C//DTD SVG 1.1//EN" "http://www.w3.org/Graphics/SVG/1.1/DTD/svg11.dtd" >
<svg xmlns="http://www.w3.org/2000/svg" xmlns:xlink="http://www.w3.org/1999/xlink" version="1.1" viewBox="-10 0 1010 1000">
   <path fill="currentColor"
d="M89 509l-55 -19c22 -67 39 -177 45 -256l53 8c-4 78 -20 193 -43 267zM159 956v-913h68v913h-68zM236 221l51 -17c22 62 46 141 53 187l-55 23c-8 -49 -29 -131 -49 -193zM357 164v-65h324v65h-162c-7 47 -16 92 -26 136h112l11 -2l40 9c-28 329 -124 543 -270 654
c-10 -17 -29 -42 -43 -54c74 -51 136 -141 181 -260c-25 -28 -57 -61 -85 -85l34 -48c22 19 50 44 72 66c20 -64 35 -137 43 -215h-110c-30 111 -69 208 -121 282c-10 -11 -36 -32 -52 -42c79 -105 124 -266 150 -441h-98zM768 168v561h-63v-561h63zM855 45h65v819
c0 41 -9 60 -33 72c-25 11 -65 14 -129 13c-3 -18 -13 -47 -21 -67c46 2 87 1 99 1c14 0 19 -4 19 -18v-820z" />
</svg>
