<?xml version="1.0" standalone="no"?>
<!DOCTYPE svg PUBLIC "-//W3C//DTD SVG 1.1//EN" "http://www.w3.org/Graphics/SVG/1.1/DTD/svg11.dtd" >
<svg xmlns="http://www.w3.org/2000/svg" xmlns:xlink="http://www.w3.org/1999/xlink" version="1.1" viewBox="-10 0 1010 1000">
   <path fill="currentColor"
d="M387 145l-66 27c-14 -28 -49 -71 -83 -101l64 -24c33 28 69 69 85 98zM380 241v103c0 8 0 16 -1 24h250v-127h-249zM629 437h-261c-19 70 -68 140 -184 191c-9 -17 -31 -41 -47 -55c95 -35 137 -85 155 -136h-218v-69h232c1 -8 1 -16 1 -24v-103h-171v-68h473
c38 -40 79 -93 105 -133l77 27c-29 36 -63 74 -95 106h174v68h-167v127h225v69h-225v173h-74v-173zM441 608l57 -34c53 48 112 116 138 163l-61 38c-25 -47 -82 -117 -134 -167zM111 907l-65 -37c60 -56 106 -145 134 -219l64 25c-30 78 -73 172 -133 231zM437 859h190
c49 0 57 -17 62 -126c16 11 47 22 67 27c-9 134 -33 166 -124 166h-200c-107 0 -135 -21 -135 -99v-202h73v201c0 27 9 33 67 33zM725 663l64 -29c65 67 135 161 162 227l-69 32c-25 -63 -92 -160 -157 -230z" />
</svg>
