<?xml version="1.0" standalone="no"?>
<!DOCTYPE svg PUBLIC "-//W3C//DTD SVG 1.1//EN" "http://www.w3.org/Graphics/SVG/1.1/DTD/svg11.dtd" >
<svg xmlns="http://www.w3.org/2000/svg" xmlns:xlink="http://www.w3.org/1999/xlink" version="1.1" viewBox="-10 0 1010 1000">
   <path fill="currentColor"
d="M388 515c-2 -18 -11 -55 -16 -71c17 -4 46 -11 63 -29c23 -21 90 -111 130 -167h-197v-69h267c-12 -34 -30 -82 -47 -120l72 -19c20 41 44 95 55 128l-33 11h266v69h-298c-40 57 -99 134 -143 189l186 -11c30 -36 55 -73 73 -112l73 24c-89 168 -256 308 -462 386
c-8 -16 -29 -43 -42 -58c114 -41 217 -103 296 -176c-194 14 -223 19 -243 25zM91 512l-60 -22c26 -66 44 -174 51 -255l58 8c-5 81 -23 196 -49 269zM178 955v-912h72v912h-72zM259 226l54 -22c27 55 58 127 69 170l-56 27c-11 -44 -40 -119 -67 -175zM847 488l72 27
c-42 73 -97 141 -162 201c68 56 151 128 194 174l-57 54c-40 -48 -122 -123 -192 -181c-93 75 -205 138 -329 181c-7 -16 -28 -43 -42 -58c234 -78 428 -226 516 -398z" />
</svg>
