<?xml version="1.0" standalone="no"?>
<!DOCTYPE svg PUBLIC "-//W3C//DTD SVG 1.1//EN" "http://www.w3.org/Graphics/SVG/1.1/DTD/svg11.dtd" >
<svg xmlns="http://www.w3.org/2000/svg" xmlns:xlink="http://www.w3.org/1999/xlink" version="1.1" viewBox="-10 0 1010 1000">
   <path fill="currentColor"
d="M566 212h-59c-40 61 -86 116 -133 158c-13 -13 -41 -40 -58 -51c80 -66 155 -169 198 -275l73 20c-12 29 -27 58 -43 86h378v62h-283v86h252v61h-252v85h254v62h-254v104h-73v-398zM412 620l58 -33c55 51 117 123 145 172l-61 36c-26 -48 -87 -123 -142 -175zM192 614
v-330c-32 35 -66 67 -98 94c-11 -13 -37 -42 -54 -54c88 -65 177 -166 230 -267l70 21c-21 41 -47 80 -75 118v418h-73zM119 915l-68 -31c40 -59 79 -150 101 -216l65 28c-26 65 -61 158 -98 219zM414 874h219c53 0 62 -15 67 -116c17 13 48 24 69 28
c-11 126 -34 157 -131 157h-228c-116 0 -146 -22 -146 -102v-178h74v178c0 28 11 33 76 33zM758 667l66 -24c47 70 94 162 111 224l-72 29c-15 -61 -60 -156 -105 -229z" />
</svg>
