<?xml version="1.0" standalone="no"?>
<!DOCTYPE svg PUBLIC "-//W3C//DTD SVG 1.1//EN" "http://www.w3.org/Graphics/SVG/1.1/DTD/svg11.dtd" >
<svg xmlns="http://www.w3.org/2000/svg" xmlns:xlink="http://www.w3.org/1999/xlink" version="1.1" viewBox="-10 0 1010 1000">
   <path fill="currentColor"
d="M89 509l-55 -19c22 -67 38 -177 45 -255l53 7c-4 79 -20 194 -43 267zM160 956v-913h65v913h-65zM237 221l51 -15c20 63 42 144 48 191l-55 21c-7 -50 -25 -133 -44 -197zM450 749l113 -25v-134h-113v159zM563 158h-113v154h113v-154zM450 373v156h113v-156h-113z
M684 697l6 58l-62 15v191h-65v-175c-88 21 -174 42 -243 57l-17 -64c24 -5 53 -11 83 -17v-604h-85v-65h642v65h-315v551zM825 865h36c11 0 21 -1 27 -5c6 -5 12 -15 13 -27c3 -20 5 -68 3 -124c15 14 37 25 56 32c-1 50 -5 113 -9 135c-6 25 -16 38 -30 48
c-15 8 -37 12 -56 12h-57c-22 0 -45 -4 -61 -19c-17 -14 -22 -31 -22 -84v-620h69v626c0 9 3 16 9 20s14 6 22 6z" />
</svg>
