<?xml version="1.0" standalone="no"?>
<!DOCTYPE svg PUBLIC "-//W3C//DTD SVG 1.1//EN" "http://www.w3.org/Graphics/SVG/1.1/DTD/svg11.dtd" >
<svg xmlns="http://www.w3.org/2000/svg" xmlns:xlink="http://www.w3.org/1999/xlink" version="1.1" viewBox="-10 0 1010 1000">
   <path fill="currentColor"
d="M103 905l-62 -38c59 -47 108 -122 136 -185l62 27c-31 66 -76 145 -136 196zM808 229h-176c21 65 52 124 91 175c38 -49 66 -106 85 -175zM310 389v163c0 35 -6 53 -33 64c-26 11 -67 12 -128 11c-3 -18 -13 -43 -23 -62c46 1 85 1 97 1c12 -1 16 -4 16 -14v-151
c-64 11 -123 22 -173 31l-13 -68c51 -8 115 -19 186 -31v-85l-1 -1c42 -24 90 -62 127 -98h-283v-60h343l13 -4l47 32c-46 54 -113 110 -175 152v53l154 -25l4 57c72 -74 125 -187 154 -308l67 13c-8 38 -20 75 -33 110h296v60h-70c-25 91 -62 166 -113 227
c54 53 118 93 195 118c-17 14 -36 40 -46 59c-77 -29 -141 -72 -195 -128c-54 50 -120 90 -195 121c-9 -14 -31 -44 -45 -58c78 -27 144 -65 196 -115c-35 -45 -63 -95 -86 -151c-24 41 -51 77 -79 107c-12 -10 -39 -35 -55 -46l3 -3zM406 647l48 -39c60 37 131 92 166 131
l-51 43c-33 -40 -103 -97 -163 -135zM432 874h188c43 0 51 -12 55 -98c17 11 47 22 67 25c-9 112 -32 138 -116 138h-200c-106 0 -132 -19 -132 -94v-165h73v164c0 25 9 30 65 30zM722 704l59 -34c69 59 144 141 177 202l-64 38c-30 -59 -103 -145 -172 -206z" />
</svg>
