<?xml version="1.0" standalone="no"?>
<!DOCTYPE svg PUBLIC "-//W3C//DTD SVG 1.1//EN" "http://www.w3.org/Graphics/SVG/1.1/DTD/svg11.dtd" >
<svg xmlns="http://www.w3.org/2000/svg" xmlns:xlink="http://www.w3.org/1999/xlink" version="1.1" viewBox="-10 0 1010 1000">
   <path fill="currentColor"
d="M87 508l-54 -17c22 -68 39 -178 45 -255l51 7c-3 77 -20 192 -42 265zM156 956v-913h69v913h-69zM233 221l50 -17c23 63 46 145 53 192l-55 22c-7 -50 -27 -133 -48 -197zM564 138h-134v84h134v-84zM430 358h134v-82h-134v82zM623 80v336h-193v541h-68v-877h261zM731 358
h136v-82h-136v82zM867 138h-136v84h136v-84zM933 80v791c0 37 -9 57 -33 68c-24 12 -60 13 -120 13c-4 -18 -14 -47 -23 -65c42 2 82 2 93 1c12 0 17 -4 17 -18v-454h-194v-336h260z" />
</svg>
