<?xml version="1.0" standalone="no"?>
<!DOCTYPE svg PUBLIC "-//W3C//DTD SVG 1.1//EN" "http://www.w3.org/Graphics/SVG/1.1/DTD/svg11.dtd" >
<svg xmlns="http://www.w3.org/2000/svg" xmlns:xlink="http://www.w3.org/1999/xlink" version="1.1" viewBox="-10 0 1010 1000">
   <path fill="currentColor"
d="M854 51l45 57c-138 35 -357 56 -537 64c-2 -17 -10 -42 -18 -58c177 -10 391 -31 510 -63zM684 307l-66 18c-5 -39 -24 -100 -44 -146l61 -17c22 46 42 106 49 145zM510 316l-65 23c-8 -39 -33 -98 -58 -141l62 -20c27 43 52 100 61 138zM87 510l-54 -20
c25 -65 44 -174 51 -255l52 8c-5 81 -23 194 -49 267zM351 389l-50 26c-10 -45 -40 -118 -68 -177v718h-71v-913h71v183l42 -18c31 59 65 135 76 181zM766 567h-248c29 64 71 119 122 166c52 -46 95 -100 126 -166zM816 501l45 23c-36 104 -93 187 -166 254
c73 51 162 88 263 108c-15 16 -36 45 -47 66c-106 -25 -196 -70 -272 -128c-83 61 -180 104 -284 133c-7 -19 -26 -50 -40 -64c100 -24 193 -63 272 -117c-58 -58 -103 -128 -138 -209h-38v-55h-59v-167h385c36 -55 77 -134 99 -190l71 28c-33 52 -70 113 -103 162h123v167
h-74v-103h-429v94h378z" />
</svg>
