<?xml version="1.0" standalone="no"?>
<!DOCTYPE svg PUBLIC "-//W3C//DTD SVG 1.1//EN" "http://www.w3.org/Graphics/SVG/1.1/DTD/svg11.dtd" >
<svg xmlns="http://www.w3.org/2000/svg" xmlns:xlink="http://www.w3.org/1999/xlink" version="1.1" viewBox="-10 0 1010 1000">
   <path fill="currentColor"
d="M87 508l-53 -18c22 -67 38 -177 45 -255l51 7c-4 78 -20 193 -43 266zM157 956v-913h67v913h-67zM333 392l-53 21c-7 -49 -28 -130 -48 -192l50 -17c22 62 45 141 51 188zM411 548h118v-170h-115v61c0 34 -1 71 -3 109zM414 153v160h115v-160h-115zM562 90h31v786
c0 36 -8 56 -30 68s-53 13 -110 13c-3 -18 -12 -48 -21 -65c39 1 71 1 81 0c11 0 16 -4 16 -16v-261h-122c-12 119 -38 246 -101 342c-10 -13 -36 -35 -50 -43c86 -138 94 -331 94 -475v-349h38v-1zM731 548h124v-170h-124v126v44zM855 154h-124v159h124v-159zM922 90v786
c0 35 -9 55 -32 67s-57 13 -116 13c-3 -18 -12 -47 -22 -64c41 1 76 1 86 0c12 0 17 -4 17 -17v-260h-127c-6 117 -24 249 -75 343c-9 -14 -37 -38 -50 -46c58 -115 63 -279 63 -408v-414h256z" />
</svg>
