<?xml version="1.0" standalone="no"?>
<!DOCTYPE svg PUBLIC "-//W3C//DTD SVG 1.1//EN" "http://www.w3.org/Graphics/SVG/1.1/DTD/svg11.dtd" >
<svg xmlns="http://www.w3.org/2000/svg" xmlns:xlink="http://www.w3.org/1999/xlink" version="1.1" viewBox="-10 0 1010 1000">
   <path fill="currentColor"
d="M836 62l68 28c-34 50 -69 106 -99 143l-52 -25c28 -40 63 -103 83 -146zM549 201l-60 31c-16 -34 -47 -93 -75 -135l60 -27c28 42 61 97 75 131zM617 498v-163c-62 69 -146 132 -218 170c-11 -17 -32 -40 -47 -53c72 -32 157 -90 217 -152h-192v-62h240v-195h72v195h243
v62h-196c61 59 149 115 222 145c-16 13 -39 38 -49 55c-70 -36 -157 -101 -220 -167v165h-72zM96 510l-57 -20c25 -66 44 -174 50 -255l54 7c-4 81 -22 195 -47 268zM176 956v-913h71v913h-71zM250 226l50 -22c29 55 62 126 72 169l-52 27c-11 -45 -41 -119 -70 -174z
M760 648h-183c-19 31 -37 61 -55 87c48 16 97 34 143 50c45 -35 74 -80 95 -137zM573 499l74 14c-10 23 -22 47 -35 71h340v64h-116c-21 68 -52 122 -98 166c76 30 144 60 197 87l-53 54c-53 -30 -123 -63 -203 -95c-75 46 -175 75 -305 95c-6 -21 -19 -47 -31 -63
c108 -12 191 -32 255 -65c-54 -20 -113 -41 -173 -60c24 -33 51 -75 77 -119h-144v-64h177c14 -29 28 -58 38 -85z" />
</svg>
