<?xml version="1.0" standalone="no"?>
<!DOCTYPE svg PUBLIC "-//W3C//DTD SVG 1.1//EN" "http://www.w3.org/Graphics/SVG/1.1/DTD/svg11.dtd" >
<svg xmlns="http://www.w3.org/2000/svg" xmlns:xlink="http://www.w3.org/1999/xlink" version="1.1" viewBox="-10 0 1010 1000">
   <path fill="currentColor"
d="M99 492l-56 -19c25 -66 41 -176 46 -256l53 8c-3 80 -18 194 -43 267zM170 956v-913h69v913h-69zM357 319l-55 21c-5 -39 -25 -102 -46 -149l52 -16c23 47 43 107 49 144zM777 602l56 33c-26 37 -58 75 -88 105c71 40 140 85 183 119l-43 50c-52 -43 -144 -103 -229 -150
v121c0 34 -7 49 -32 59c-23 10 -61 10 -121 10c-3 -17 -12 -40 -21 -56c42 1 81 1 92 1c11 -1 15 -4 15 -15v-94c-86 40 -173 81 -242 111l-36 -57c71 -26 174 -71 278 -116v-201h67v170c13 6 25 13 38 20c30 -33 64 -78 83 -110zM541 698l-46 41c-19 -27 -59 -65 -94 -91
l45 -38c35 25 76 62 95 88zM953 479h-178c49 55 118 102 190 125c-16 14 -37 39 -46 57c-88 -35 -170 -103 -222 -182h-167c-50 80 -116 145 -198 197c-10 -14 -36 -41 -53 -53c68 -38 122 -86 166 -144h-133v-62h174c15 -26 29 -53 40 -83h-147v-59h170
c8 -23 15 -48 20 -73h-208v-61h222c7 -31 12 -64 17 -97l72 9c-5 30 -10 60 -16 88h270v61h-284c-6 25 -13 50 -20 73h272v59h-292c-11 29 -24 56 -36 83h387v62z" />
</svg>
