<?xml version="1.0" standalone="no"?>
<!DOCTYPE svg PUBLIC "-//W3C//DTD SVG 1.1//EN" "http://www.w3.org/Graphics/SVG/1.1/DTD/svg11.dtd" >
<svg xmlns="http://www.w3.org/2000/svg" xmlns:xlink="http://www.w3.org/1999/xlink" version="1.1" viewBox="-10 0 1010 1000">
   <path fill="currentColor"
d="M88 509l-54 -19c22 -68 38 -178 45 -255l52 7c-4 78 -20 192 -43 267zM161 956v-913h63v913h-63zM238 220l46 -14c24 60 47 138 55 183l-50 21c-7 -48 -30 -129 -51 -190zM834 656l-45 42c-15 -28 -45 -64 -77 -98c5 75 -9 141 -35 170c-22 24 -45 33 -79 33
c-16 1 -38 0 -60 -1c-1 -17 -6 -42 -15 -58c25 3 48 4 61 4c19 0 32 -2 43 -17c19 -18 29 -74 24 -140c-55 50 -128 101 -191 131c-8 -14 -23 -37 -36 -49c74 -29 166 -88 218 -144c-5 -18 -10 -37 -16 -56c-47 40 -107 81 -156 107c-8 -13 -23 -35 -36 -46
c54 -22 126 -67 170 -106c-9 -16 -20 -32 -32 -47c-33 21 -66 39 -97 54c-8 -11 -28 -32 -41 -42c65 -28 134 -65 185 -108h-166v-56h355v56h-115c-22 24 -49 46 -77 67c23 26 43 57 58 90c33 -29 68 -65 90 -92l49 36c-36 38 -81 79 -121 108l4 13c53 44 112 106 138 149z
M405 847h445v-698h-445v698zM342 86h574v862h-66v-39h-445v48h-63v-871z" />
</svg>
