<?xml version="1.0" standalone="no"?>
<!DOCTYPE svg PUBLIC "-//W3C//DTD SVG 1.1//EN" "http://www.w3.org/Graphics/SVG/1.1/DTD/svg11.dtd" >
<svg xmlns="http://www.w3.org/2000/svg" xmlns:xlink="http://www.w3.org/1999/xlink" version="1.1" viewBox="-10 0 1010 1000">
   <path fill="currentColor"
d="M163 678l65 24c-27 81 -70 162 -121 220c-12 -14 -34 -33 -51 -43c46 -52 86 -132 107 -201zM454 865h115c25 0 55 -1 69 -3c16 -3 28 -10 33 -24c5 -15 8 -50 9 -97c15 12 43 24 63 29c-2 46 -7 94 -18 113c-11 18 -28 29 -57 36c-23 5 -68 6 -98 6h-124
c-36 0 -76 -3 -102 -14c-26 -12 -40 -29 -40 -86v-153h73v158c0 19 3 27 19 31c12 3 33 4 58 4zM618 767l-52 39c-25 -38 -77 -94 -124 -133l50 -33c48 38 101 90 126 127zM752 693l57 -29c52 63 108 148 135 203l-60 33c-25 -57 -82 -145 -132 -207zM807 223h-155
c-4 9 -9 18 -13 26c21 59 50 111 87 158c37 -51 63 -113 81 -184zM946 223h-66c-23 93 -58 171 -107 235c53 50 116 89 192 111c-16 15 -35 42 -46 62c-75 -26 -138 -69 -192 -122c-51 50 -114 91 -187 122c-8 -15 -32 -44 -46 -58c76 -27 139 -66 189 -115
c-34 -43 -61 -91 -84 -144c-14 22 -30 43 -47 60c-7 -8 -20 -20 -34 -32v43h-255c-3 19 -6 36 -10 54h235s0 18 -1 27c-6 88 -14 126 -30 143c-13 14 -28 19 -53 20c-18 1 -55 2 -92 -1c-2 -17 -8 -41 -18 -57c37 4 71 4 83 4c13 0 21 -1 26 -7c7 -7 11 -26 15 -69h-184
c-26 64 -69 117 -144 154c-7 -15 -28 -39 -43 -51c98 -45 133 -124 146 -217h-131v-56h196v-54h-158v-56h158v-57h-171v-56h171v-62h71v62h181v56h-181v57h168v56h-168v54h172l-4 -3c68 -66 118 -168 144 -278l69 14c-9 33 -19 66 -30 97h266v64z" />
</svg>
