<?xml version="1.0" standalone="no"?>
<!DOCTYPE svg PUBLIC "-//W3C//DTD SVG 1.1//EN" "http://www.w3.org/Graphics/SVG/1.1/DTD/svg11.dtd" >
<svg xmlns="http://www.w3.org/2000/svg" xmlns:xlink="http://www.w3.org/1999/xlink" version="1.1" viewBox="-10 0 1010 1000">
   <path fill="currentColor"
d="M89 509l-55 -19c22 -68 38 -177 45 -255l53 7c-4 79 -20 193 -43 267zM161 956v-913h67v913h-67zM237 220l50 -16c22 62 46 143 54 190l-53 21c-8 -49 -30 -132 -51 -195zM329 935v-54h625v54h-625zM810 691v-60h-143v60h143zM810 796v-61h-143v61h143zM462 735v61h140
v-61h-140zM462 631v60h140v-60h-140zM396 586h483v255h-483v-255zM792 304v-55h-124v55h124zM668 151v51h124v-51h-124zM862 202h94v47h-94v101h-194v51h219v47h-219v52h279v52h-614v-52h264v-52h-206v-47h206v-51h-183v-46h183v-55h-256v-47h256v-51h-179v-46h179v-62h71
v62h194v97z" />
</svg>
