<?xml version="1.0" standalone="no"?>
<!DOCTYPE svg PUBLIC "-//W3C//DTD SVG 1.1//EN" "http://www.w3.org/Graphics/SVG/1.1/DTD/svg11.dtd" >
<svg xmlns="http://www.w3.org/2000/svg" xmlns:xlink="http://www.w3.org/1999/xlink" version="1.1" viewBox="-10 0 1010 1000">
   <path fill="currentColor"
d="M916 146l-46 28c-13 -25 -43 -65 -68 -92l42 -23c27 27 57 62 72 87zM84 508l-52 -18c22 -67 39 -178 45 -255l50 7c-4 78 -20 192 -43 266zM155 956v-913h66v913h-66zM231 220l48 -16c23 61 45 141 52 188l-53 20c-7 -48 -27 -130 -47 -192zM444 815l52 24
c-45 38 -111 86 -165 115c-6 -12 -24 -41 -35 -55c50 -22 108 -55 148 -84zM345 419v-46h352v46h-352zM381 287h275v42h-275v-42zM427 706v57h194v-57h-194zM427 604v56h194v-56h-194zM427 503v55h194v-55h-194zM683 812h-81c51 29 107 66 143 91l-39 47
c-34 -27 -94 -67 -142 -97l33 -41h-230v-358h316v358zM943 238h-150c5 372 32 627 97 630c15 1 26 -46 31 -119c11 16 36 36 48 43c-20 124 -51 159 -82 158c-123 -4 -150 -287 -158 -712h-408v-63h407c-1 -42 -2 -85 -2 -130h67v130h150v63z" />
</svg>
