<?xml version="1.0" standalone="no"?>
<!DOCTYPE svg PUBLIC "-//W3C//DTD SVG 1.1//EN" "http://www.w3.org/Graphics/SVG/1.1/DTD/svg11.dtd" >
<svg xmlns="http://www.w3.org/2000/svg" xmlns:xlink="http://www.w3.org/1999/xlink" version="1.1" viewBox="-10 0 1010 1000">
   <path fill="currentColor"
d="M946 215l-49 30c-16 -39 -55 -99 -91 -143l47 -26c36 42 76 100 93 139zM91 509l-56 -18c22 -68 38 -177 44 -256l54 7c-4 79 -20 194 -42 267zM167 956v-913h67v913h-67zM237 201l48 -19c20 51 40 117 46 156l-52 22c-6 -40 -24 -108 -42 -159zM351 956l-58 -33
c43 -49 76 -129 95 -194l57 22c-20 67 -51 152 -94 205zM510 753l57 -8c18 63 29 144 26 193l-60 10c3 -49 -6 -131 -23 -195zM945 329h-133c24 138 73 262 151 323c-16 13 -37 37 -47 53c-72 -63 -119 -172 -149 -300c-25 130 -74 237 -172 310c-10 -16 -32 -38 -48 -49
c105 -75 149 -194 168 -337h-91c-52 193 -144 320 -264 393c-7 -17 -26 -41 -40 -54c65 -35 123 -92 168 -169c-26 -29 -63 -61 -97 -85l34 -39c32 19 66 46 91 71c11 -23 22 -48 31 -74c-26 -22 -61 -48 -92 -66l30 -43c26 13 56 32 80 50c10 -35 18 -74 25 -114h-115
c-26 83 -64 166 -118 237c-10 -13 -33 -32 -49 -39c82 -104 123 -244 141 -353l62 7c-4 28 -11 59 -19 89h120l7 -2l39 12c-5 40 -11 78 -19 114h83c6 -70 9 -144 10 -221h65c-2 77 -4 151 -11 221h159v65zM650 753l57 -15c29 61 56 141 64 191l-61 18
c-7 -50 -32 -132 -60 -194zM794 745l56 -23c46 64 95 149 114 205l-61 26c-17 -56 -63 -144 -109 -208z" />
</svg>
