<?xml version="1.0" standalone="no"?>
<!DOCTYPE svg PUBLIC "-//W3C//DTD SVG 1.1//EN" "http://www.w3.org/Graphics/SVG/1.1/DTD/svg11.dtd" >
<svg xmlns="http://www.w3.org/2000/svg" xmlns:xlink="http://www.w3.org/1999/xlink" version="1.1" viewBox="-10 0 1010 1000">
   <path fill="currentColor"
d="M913 188l-49 35c-18 -31 -55 -77 -88 -109l47 -30c34 30 72 75 90 104zM419 161v-45h-231v45h231zM419 248v-47h-231v47h231zM483 74v215h-357v-215h357zM119 918l-68 -29c39 -49 78 -127 101 -182l66 23c-26 56 -62 136 -99 188zM413 880h221c52 0 60 -13 66 -104
c17 12 48 21 69 25c-10 113 -34 140 -132 140h-228c-115 0 -145 -19 -145 -90v-149h74v149c0 24 11 29 75 29zM612 793l-61 33c-23 -39 -77 -100 -125 -142l58 -27c48 40 104 97 128 136zM758 704l65 -22c45 57 91 133 109 183l-70 26c-16 -50 -60 -129 -104 -187zM168 512
h263v-48h-263v48zM431 374h-263v49h263v-49zM936 300h-170c35 132 99 247 190 303c-16 13 -37 38 -47 57c-85 -59 -144 -162 -183 -284c-26 124 -78 216 -188 278c-8 -14 -26 -36 -40 -48c-3 19 -12 27 -31 34c-23 9 -62 9 -124 9c-3 -16 -12 -35 -20 -50c42 1 82 1 92 1
c12 0 16 -4 16 -15v-31h-263v101h-67v-326h398v256c0 6 0 12 -1 17c112 -63 157 -163 176 -302h-143v-67h150c4 -54 6 -113 7 -176h65c-1 63 -4 122 -8 176h191v67z" />
</svg>
