<?xml version="1.0" standalone="no"?>
<!DOCTYPE svg PUBLIC "-//W3C//DTD SVG 1.1//EN" "http://www.w3.org/Graphics/SVG/1.1/DTD/svg11.dtd" >
<svg xmlns="http://www.w3.org/2000/svg" xmlns:xlink="http://www.w3.org/1999/xlink" version="1.1" viewBox="-10 0 1010 1000">
   <path fill="currentColor"
d="M755 464v-183c-36 63 -80 122 -127 156c-5 -16 -18 -40 -28 -55c52 -36 106 -104 139 -172h-91v-59h107v-101h65v101h130v59h-111c31 66 82 136 130 170c-14 10 -32 31 -43 44c-37 -32 -76 -89 -106 -147v187h-65zM397 554v-62h489v62h-489zM87 509l-54 -18
c22 -68 39 -177 45 -256l52 7c-4 79 -20 193 -43 267zM156 956v-913h68v913h-68zM315 392l-34 16c-9 -48 -32 -128 -54 -187l52 -20c21 54 43 122 54 168c42 -40 83 -100 108 -159h-99v-59h119v-101h65v101h99v59h-99v30c25 20 85 67 100 81l-35 50c-12 -16 -40 -46 -65 -71
v165h-65v-183c-32 65 -74 126 -120 161c-5 -15 -16 -36 -26 -51zM434 730l67 20c-42 71 -112 139 -178 182c-12 -12 -39 -36 -56 -47c67 -37 129 -94 167 -155zM949 690h-279v191c0 36 -7 54 -33 65c-26 10 -67 11 -129 11c-3 -20 -14 -45 -23 -63c45 1 84 1 96 1
c12 -1 16 -4 16 -14v-191h-262v-63h614v63zM740 762l56 -32c61 44 132 111 166 155l-60 38c-34 -48 -104 -116 -162 -161z" />
</svg>
