<?xml version="1.0" standalone="no"?>
<!DOCTYPE svg PUBLIC "-//W3C//DTD SVG 1.1//EN" "http://www.w3.org/Graphics/SVG/1.1/DTD/svg11.dtd" >
<svg xmlns="http://www.w3.org/2000/svg" xmlns:xlink="http://www.w3.org/1999/xlink" version="1.1" viewBox="-10 0 1010 1000">
   <path fill="currentColor"
d="M943 175v63h-290v-63h120c-13 -34 -30 -74 -47 -108l61 -18c21 38 44 88 57 126h99zM771 418l-55 15c-2 -44 -15 -114 -33 -166l52 -13c19 52 34 120 36 164zM331 175v63h-279v-63h113c-14 -33 -31 -72 -48 -103l62 -19c21 38 45 85 58 122h94zM164 416l-56 15
c0 -43 -12 -110 -28 -161l51 -12c18 50 31 115 33 158zM320 618v48c24 -70 38 -173 46 -257l49 12c-8 93 -23 211 -50 281l-48 -22h-89c-7 94 -33 203 -126 279c-10 -14 -30 -36 -45 -48c80 -59 100 -152 105 -231h-106v-62h107v-117h-119v-62h163c17 -54 36 -132 44 -186
l60 14c-16 55 -34 122 -50 172h76v62h-108v117h91zM611 219l-45 47c-31 -45 -95 -110 -149 -154l42 -41c54 42 120 103 152 148zM549 406l52 -18c34 72 65 165 77 227l-55 21c-10 -63 -42 -158 -74 -230zM528 846h33c9 0 18 -1 23 -5s11 -13 13 -23c2 -16 3 -58 3 -107
c13 14 36 28 55 35c-2 45 -5 97 -10 116c-6 20 -16 32 -29 41c-13 7 -32 10 -47 10h-52c-19 0 -39 -4 -53 -18c-15 -14 -19 -29 -19 -78v-535h57v540c0 9 2 15 7 18c4 4 12 6 19 6zM959 502h-121v137h112v63h-112v250h-68v-250h-98v-63h98v-137h-112v-63h166
c17 -55 36 -135 45 -191l58 15c-14 57 -32 125 -48 176h80v63z" />
</svg>
