<?xml version="1.0" standalone="no"?>
<!DOCTYPE svg PUBLIC "-//W3C//DTD SVG 1.1//EN" "http://www.w3.org/Graphics/SVG/1.1/DTD/svg11.dtd" >
<svg xmlns="http://www.w3.org/2000/svg" xmlns:xlink="http://www.w3.org/1999/xlink" version="1.1" viewBox="-10 0 1010 1000">
   <path fill="currentColor"
d="M120 920l-69 -30c41 -58 80 -146 101 -210l65 26c-26 63 -61 154 -97 214zM412 141l51 37c-39 26 -87 50 -140 73c126 119 128 296 58 348c-26 23 -48 29 -84 30c-17 0 -43 -1 -66 -2c-1 -18 -8 -45 -18 -62c29 3 55 4 72 4c20 0 36 -2 51 -14c24 -15 36 -59 28 -112
c-77 56 -188 111 -280 142c-5 -15 -17 -38 -27 -50c99 -25 223 -82 295 -138c-6 -17 -15 -34 -25 -52c-68 43 -165 86 -243 111c-6 -15 -18 -37 -28 -49c80 -19 183 -58 246 -97c-10 -13 -21 -26 -34 -37c-64 24 -130 45 -194 63c-3 -12 -12 -32 -19 -44
c70 -20 143 -46 210 -73c-7 -21 -24 -49 -42 -70l29 -17c-58 14 -118 24 -175 32c-2 -14 -11 -34 -18 -47c107 -16 231 -43 297 -73l50 41c-39 17 -87 31 -138 43c17 19 33 45 41 63l-41 27c57 -25 109 -51 144 -77zM104 179l41 -21c22 21 42 50 49 73l-46 23
c-6 -21 -24 -53 -44 -75zM622 787l-62 35c-25 -48 -86 -120 -141 -172l58 -31c55 49 117 120 145 168zM413 877h220c53 0 62 -15 67 -114c17 12 48 23 69 27c-11 122 -34 152 -131 152h-229c-115 0 -145 -20 -145 -97v-175h74v174c0 27 11 33 75 33zM756 682l68 -24
c46 68 93 158 110 218l-73 29c-15 -60 -59 -153 -105 -223zM535 314h126v-68h-126v68zM535 133v65h126v-65h-126zM848 198v-65h-121v65h121zM848 314v-68h-121v68h121zM727 561h221v56h-509v-56h222v-78h-176v-53h176v-65h-187v-283h437v283h-184v65h177v53h-177v78z" />
</svg>
