<?xml version="1.0" standalone="no"?>
<!DOCTYPE svg PUBLIC "-//W3C//DTD SVG 1.1//EN" "http://www.w3.org/Graphics/SVG/1.1/DTD/svg11.dtd" >
<svg xmlns="http://www.w3.org/2000/svg" xmlns:xlink="http://www.w3.org/1999/xlink" version="1.1" viewBox="-10 0 1010 1000">
   <path fill="currentColor"
d="M701 251l57 8c-5 28 -11 55 -18 80c38 96 113 174 215 207c-15 12 -32 35 -42 53c-87 -34 -155 -102 -197 -186c-38 89 -98 152 -192 189c-8 -16 -24 -38 -38 -50c129 -44 191 -148 215 -301zM655 574l53 -28c37 46 74 110 86 152l-57 30c-11 -43 -47 -107 -82 -154z
M392 677v-75h-225v75h225zM459 552v174h-358v-174h358zM236 837l-62 18c-4 -28 -19 -73 -35 -106l58 -16c18 32 34 75 39 104zM142 452h277v50h-277v-50zM504 345v134h-59v-79h-329v79h-58v-134h446zM867 222h-243c-23 50 -47 94 -74 129c-11 -10 -37 -29 -52 -37
c54 -67 95 -168 121 -269l61 13c-9 35 -20 71 -33 105h242l11 -3l43 12c-18 60 -39 129 -59 172l-53 -13c12 -28 25 -69 36 -109zM242 238v-60h-185v-56h185v-77h68v77h194v56h-194v60h171v54h-395v-54h156zM475 821l1 23c17 -43 29 -99 34 -148l58 8c-6 70 -23 154 -55 206
l-49 -31c-147 20 -298 41 -406 57l-9 -61c69 -8 160 -20 258 -32c14 -35 30 -83 37 -116l67 21c-13 28 -26 59 -38 87zM689 888h87c22 0 26 -9 29 -82c14 9 40 20 59 24c-7 96 -26 120 -80 120h-102c-71 0 -88 -19 -88 -86v-195h65v195c0 21 4 24 30 24zM819 702l54 -25
c40 59 76 139 89 192l-58 27c-12 -54 -47 -134 -85 -194z" />
</svg>
