<?xml version="1.0" standalone="no"?>
<!DOCTYPE svg PUBLIC "-//W3C//DTD SVG 1.1//EN" "http://www.w3.org/Graphics/SVG/1.1/DTD/svg11.dtd" >
<svg xmlns="http://www.w3.org/2000/svg" xmlns:xlink="http://www.w3.org/1999/xlink" version="1.1" viewBox="-10 0 1010 1000">
   <path fill="currentColor"
d="M407 245v79h-61v-128h261v-53h-227v-56h536v56h-243v53h272v128h-63v-79h-209v168h-66v-168h-200zM573 367v44h-165v-44h165zM416 487v73h61v-73h-61zM372 600v-153h151v153h-151zM574 284v43h-148v-43h148zM673 560v-73h-65v73h65zM720 447v153h-157v-153h157zM874 367
v44h-166v-44h166zM709 284h146v43h-146v-43zM867 560v-73h-66v73h66zM913 447v153h-157v-153h157zM88 509l-55 -19c22 -68 39 -177 45 -255l53 7c-4 79 -20 192 -43 267zM160 956v-913h66v913h-66zM238 220l51 -14c21 63 42 147 49 195l-55 19c-7 -50 -26 -135 -45 -200z
M673 873h283v58h-644v-58h296v-187h-254v-54h582v54h-263v187zM466 688l56 12c-6 16 -13 34 -22 51c28 22 62 51 80 68l-36 36c-15 -17 -41 -43 -67 -64c-21 31 -48 59 -77 79c-10 -10 -28 -26 -39 -33c53 -35 91 -95 105 -149zM785 689l56 11c-5 15 -12 31 -19 47
c35 25 76 56 100 78l-35 37c-20 -19 -55 -49 -90 -74c-19 30 -45 57 -73 76c-9 -10 -27 -26 -39 -34c50 -32 87 -89 100 -141z" />
</svg>
