<?xml version="1.0" standalone="no"?>
<!DOCTYPE svg PUBLIC "-//W3C//DTD SVG 1.1//EN" "http://www.w3.org/Graphics/SVG/1.1/DTD/svg11.dtd" >
<svg xmlns="http://www.w3.org/2000/svg" xmlns:xlink="http://www.w3.org/1999/xlink" version="1.1" viewBox="-10 0 1010 1000">
   <path fill="currentColor"
d="M894 239l-61 35c-20 -48 -71 -121 -117 -173l58 -31c48 51 100 121 120 169zM515 132v68h-393v-68h393zM542 712l4 65c-165 31 -340 63 -461 85l-12 -70c56 -9 129 -21 207 -34v-151h-178v-68h178v-124h73v124h172v68h-172v138c62 -10 126 -22 189 -33zM827 462l66 24
c-37 91 -86 178 -146 254c29 83 66 131 107 131c25 0 36 -44 42 -159c16 17 41 32 60 40c-13 150 -37 194 -108 194c-67 0 -118 -52 -156 -141c-55 59 -116 109 -183 149c-12 -17 -33 -40 -52 -56c77 -42 147 -100 207 -168c-29 -95 -47 -213 -59 -346h-549v-69h543
c-6 -86 -9 -178 -10 -271h77c-1 95 2 186 8 271h272v69h-267c10 104 25 196 42 273c43 -61 80 -127 106 -195z" />
</svg>
