<?xml version="1.0" standalone="no"?>
<!DOCTYPE svg PUBLIC "-//W3C//DTD SVG 1.1//EN" "http://www.w3.org/Graphics/SVG/1.1/DTD/svg11.dtd" >
<svg xmlns="http://www.w3.org/2000/svg" xmlns:xlink="http://www.w3.org/1999/xlink" version="1.1" viewBox="-10 0 1010 1000">
   <path fill="currentColor"
d="M937 229l-59 36c-20 -47 -69 -119 -115 -169l56 -32c47 50 98 119 118 165zM431 202v-74h-246v74h246zM431 330v-75h-246v75h246zM501 72v315h-384v-315h384zM193 568h352s-1 21 -2 30c-12 214 -24 294 -48 321c-14 18 -31 24 -54 26c-20 2 -55 2 -90 0
c-1 -19 -7 -43 -17 -60c35 3 66 3 78 3c14 1 21 0 29 -10c15 -16 26 -82 36 -250h-58c-41 133 -111 244 -196 318c-11 -10 -34 -29 -48 -37c85 -65 148 -164 184 -281h-70c-40 101 -107 186 -183 243c-9 -9 -30 -28 -44 -38c72 -49 131 -121 168 -205h-74
c-24 36 -53 69 -81 94c-10 -11 -34 -29 -48 -38c55 -44 101 -108 130 -178h-111v-60h518v60h-343c-9 21 -18 42 -28 62zM868 414l58 33c-32 103 -81 205 -144 293c24 82 54 131 88 133c21 0 33 -54 41 -153c14 15 42 33 56 40c-21 157 -58 201 -97 200
c-61 -2 -107 -58 -141 -152c-49 57 -103 105 -162 139c-13 -16 -35 -38 -55 -52c71 -37 137 -95 193 -165c-22 -90 -38 -203 -50 -331l-115 13l-9 -68l119 -15c-6 -87 -11 -181 -14 -279h70c2 94 6 186 13 271l235 -29l9 67l-239 31c10 99 22 188 37 262
c46 -74 83 -156 107 -238z" />
</svg>
