<?xml version="1.0" standalone="no"?>
<!DOCTYPE svg PUBLIC "-//W3C//DTD SVG 1.1//EN" "http://www.w3.org/Graphics/SVG/1.1/DTD/svg11.dtd" >
<svg xmlns="http://www.w3.org/2000/svg" xmlns:xlink="http://www.w3.org/1999/xlink" version="1.1" viewBox="-10 0 1010 1000">
   <path fill="currentColor"
d="M806 206h-582v101h582v-101zM224 372v24c0 165 -18 404 -131 564c-13 -15 -43 -41 -60 -49c107 -151 117 -362 117 -515v-255h339c-12 -27 -25 -57 -37 -80l70 -22c16 31 36 71 49 102h308v231h-655zM659 501h-207c-2 22 -4 44 -7 65c44 94 115 169 208 225
c57 -38 104 -85 135 -146h-186c18 -39 38 -92 57 -144zM839 581l43 22c-35 95 -92 167 -163 221c68 32 146 54 234 68c-15 15 -34 43 -43 62c-96 -18 -181 -47 -256 -87c-68 38 -145 64 -227 83c-8 -17 -27 -46 -41 -60c74 -14 142 -34 202 -63c-64 -44 -117 -99 -161 -163
c-27 117 -81 216 -193 282c-10 -16 -29 -37 -46 -49c147 -81 181 -231 194 -396h-106v-62h479c-17 47 -36 100 -55 145h126z" />
</svg>
