<?xml version="1.0" standalone="no"?>
<!DOCTYPE svg PUBLIC "-//W3C//DTD SVG 1.1//EN" "http://www.w3.org/Graphics/SVG/1.1/DTD/svg11.dtd" >
<svg xmlns="http://www.w3.org/2000/svg" xmlns:xlink="http://www.w3.org/1999/xlink" version="1.1" viewBox="-10 0 1010 1000">
   <path fill="currentColor"
d="M802 207h-584v115h584v-115zM875 386h-657c0 166 -16 405 -111 570c-14 -12 -46 -30 -65 -35c94 -160 103 -384 103 -541v-237h340c-13 -26 -28 -56 -43 -79l69 -23c21 30 44 70 57 102h307v243zM623 834h193v-116h-193v116zM350 718v116h204v-116h-204zM554 542h-204
v115h204v-115zM816 657v-115h-193v115h193zM280 478h608v466h-72v-46h-466v51h-70v-471z" />
</svg>
