<?xml version="1.0" standalone="no"?>
<!DOCTYPE svg PUBLIC "-//W3C//DTD SVG 1.1//EN" "http://www.w3.org/Graphics/SVG/1.1/DTD/svg11.dtd" >
<svg xmlns="http://www.w3.org/2000/svg" xmlns:xlink="http://www.w3.org/1999/xlink" version="1.1" viewBox="-10 0 1010 1000">
   <path fill="currentColor"
d="M341 478l11 69l-110 35v282c0 41 -9 60 -34 72c-24 12 -63 15 -128 14c-2 -18 -12 -48 -22 -69c44 1 84 1 95 1c13 0 18 -4 18 -19v-258c-43 14 -84 26 -121 38l-19 -71c39 -10 87 -25 140 -41v-218h-125v-69h125v-200h71v200h107v69h-107v197c32 -11 66 -21 99 -32z
M955 287h-321c-2 51 -4 101 -8 151h271s0 25 -1 35c-13 299 -24 406 -54 442c-17 23 -36 30 -65 33c-26 3 -74 2 -122 -1c-1 -22 -9 -51 -21 -71c48 5 94 5 112 5c17 1 26 -1 35 -12c20 -22 32 -117 43 -361h-205c-21 184 -72 348 -209 451c-11 -17 -33 -41 -50 -52
c177 -128 194 -372 201 -620h-152v-71h254c-8 -41 -26 -102 -45 -148l63 -17c21 50 42 115 50 155l-29 10h253v71z" />
</svg>
