<?xml version="1.0" standalone="no"?>
<!DOCTYPE svg PUBLIC "-//W3C//DTD SVG 1.1//EN" "http://www.w3.org/Graphics/SVG/1.1/DTD/svg11.dtd" >
<svg xmlns="http://www.w3.org/2000/svg" xmlns:xlink="http://www.w3.org/1999/xlink" version="1.1" viewBox="-10 0 1010 1000">
   <path fill="currentColor"
d="M359 548l-110 36v279c0 42 -9 62 -34 74c-24 12 -63 15 -127 14c-3 -18 -13 -49 -22 -70c44 1 84 1 95 1c13 0 18 -4 18 -19v-256c-43 14 -84 26 -121 38l-19 -73c39 -10 87 -25 140 -41v-216h-125v-71h125v-200h70v200h110v71h-110v195c33 -10 66 -21 100 -31zM874 43
l49 60c-28 8 -60 16 -93 22c16 311 51 618 140 769c-18 13 -45 37 -60 57c-93 -173 -124 -482 -143 -814c-33 7 -67 12 -102 18v223c0 131 -2 307 -65 457l134 -33c-16 -52 -35 -105 -53 -151l52 -17c39 92 79 212 95 290l-57 19c-5 -25 -11 -52 -20 -83
c-159 45 -184 57 -200 67c-10 -14 -38 -45 -53 -56c96 -141 97 -341 97 -494v-213c-36 5 -73 8 -108 12v152c0 174 -16 442 -117 626c-12 -14 -43 -37 -59 -44c95 -175 104 -417 104 -582v-206c162 -17 349 -46 459 -79z" />
</svg>
