<?xml version="1.0" standalone="no"?>
<!DOCTYPE svg PUBLIC "-//W3C//DTD SVG 1.1//EN" "http://www.w3.org/Graphics/SVG/1.1/DTD/svg11.dtd" >
<svg xmlns="http://www.w3.org/2000/svg" xmlns:xlink="http://www.w3.org/1999/xlink" version="1.1" viewBox="-10 0 1010 1000">
   <path fill="currentColor"
d="M348 547l-109 36v281c0 41 -9 60 -34 72c-23 12 -61 15 -124 14c-3 -18 -12 -48 -22 -69c43 1 83 1 94 1c12 0 17 -4 17 -19v-258c-43 14 -83 27 -119 38l-19 -71c38 -11 85 -25 138 -41v-218h-124v-69h124v-200h69v200h107v69h-107v196l99 -31zM849 230h-386v118h386
v-118zM919 413h-456c-3 155 -22 367 -127 524c-11 -15 -36 -37 -53 -48c105 -151 110 -373 110 -512v-212h243c-13 -31 -32 -70 -49 -99l58 -20c22 38 48 87 63 119h211v248zM607 881h239c33 0 42 -12 45 -113c19 10 41 19 62 23c-9 136 -34 158 -109 158h-236
c-90 0 -129 -33 -129 -87c0 -40 9 -88 254 -284h-224v-62h313l16 -2l48 22c-3 5 -6 11 -10 14c-302 229 -326 272 -326 302c0 21 22 29 57 29z" />
</svg>
