<?xml version="1.0" standalone="no"?>
<!DOCTYPE svg PUBLIC "-//W3C//DTD SVG 1.1//EN" "http://www.w3.org/Graphics/SVG/1.1/DTD/svg11.dtd" >
<svg xmlns="http://www.w3.org/2000/svg" xmlns:xlink="http://www.w3.org/1999/xlink" version="1.1" viewBox="-10 0 1010 1000">
   <path fill="currentColor"
d="M340 478l10 68l-109 36v282c0 41 -9 60 -34 72c-23 12 -61 15 -125 14c-2 -18 -12 -48 -21 -69c43 1 82 1 93 1c13 0 18 -4 18 -19v-258c-43 14 -83 26 -120 38l-19 -71c38 -11 86 -26 139 -42v-217h-124v-69h124v-200h69v200h108v69h-108v196zM834 874h30
c10 0 19 -1 24 -6s10 -14 12 -25c2 -20 4 -66 3 -120c14 13 37 25 56 31c-2 51 -5 112 -10 134c-5 23 -14 36 -28 45c-14 10 -34 14 -53 14h-51c-22 0 -43 -5 -58 -19c-17 -15 -21 -31 -21 -83v-471h-214c-11 163 -25 358 -36 468l217 -45c-2 19 -2 48 0 62
c-257 59 -291 69 -311 82v-5c-6 -20 -21 -50 -30 -67c27 -7 49 -16 56 -53c10 -52 38 -498 48 -651h-119v-68h589v68h-400l-10 144h280v540c0 8 2 15 7 19c5 3 12 6 19 6zM687 681l-53 18c-12 -60 -46 -151 -81 -219l49 -16c38 69 73 159 85 217z" />
</svg>
