<?xml version="1.0" standalone="no"?>
<!DOCTYPE svg PUBLIC "-//W3C//DTD SVG 1.1//EN" "http://www.w3.org/Graphics/SVG/1.1/DTD/svg11.dtd" >
<svg xmlns="http://www.w3.org/2000/svg" xmlns:xlink="http://www.w3.org/1999/xlink" version="1.1" viewBox="-10 0 1010 1000">
   <path fill="currentColor"
d="M833 373v-184h-199v184h199zM908 125v311h-346v-311h346zM417 211h-139c-23 122 -75 213 -193 272c-9 -18 -30 -44 -44 -57c99 -46 143 -118 164 -215h-145v-66h156c4 -31 6 -65 8 -100h72c-2 35 -4 69 -8 100h201s0 20 -1 30c-8 167 -16 232 -36 256
c-14 16 -31 23 -55 25c-21 2 -59 2 -98 0c-2 -20 -8 -46 -19 -64c37 3 73 4 85 3c14 1 22 0 29 -8c10 -14 17 -60 23 -176zM950 741v58h-412v74c0 40 -11 57 -41 67c-31 11 -81 11 -161 11c-5 -19 -15 -44 -25 -62c60 2 117 2 132 1c16 -1 22 -5 22 -19v-72h-415v-58h415
v-60h-341v-56h341v-63c-103 5 -208 7 -305 7c-2 -15 -9 -37 -14 -52c216 -1 482 -12 622 -36l47 49c-75 13 -172 22 -277 28v67h346v56h-346v60h412z" />
</svg>
