<?xml version="1.0" standalone="no"?>
<!DOCTYPE svg PUBLIC "-//W3C//DTD SVG 1.1//EN" "http://www.w3.org/Graphics/SVG/1.1/DTD/svg11.dtd" >
<svg xmlns="http://www.w3.org/2000/svg" xmlns:xlink="http://www.w3.org/1999/xlink" version="1.1" viewBox="-10 0 1010 1000">
   <path fill="currentColor"
d="M362 473l10 68c-42 13 -85 28 -127 42v281c0 41 -9 60 -34 72c-23 12 -61 15 -125 14c-2 -18 -11 -48 -21 -69c43 1 82 1 93 1c13 0 18 -4 18 -19v-259l-122 39l-19 -71c39 -11 88 -25 141 -41v-218h-126v-69h126v-200h69v200h118v69h-118v196zM833 531h-227
c29 71 69 138 118 196c47 -54 84 -119 109 -196zM875 463l45 20c-31 121 -83 218 -148 293c57 54 123 95 197 121c-17 14 -37 41 -48 60c-74 -30 -140 -75 -196 -132c-63 58 -134 100 -211 131c-10 -17 -33 -45 -48 -58c78 -29 151 -69 212 -124c-46 -55 -85 -120 -115 -188
c-39 132 -104 259 -217 346c-12 -15 -34 -34 -52 -46c165 -121 220 -336 241 -520h-151v-68h158c3 -39 5 -76 6 -109c-46 5 -91 9 -134 13c-2 -18 -12 -45 -20 -62c170 -15 372 -43 484 -79l52 59c-84 25 -194 45 -308 59c-2 37 -4 77 -8 119h339v68h-346
c-4 32 -9 66 -16 100h271z" />
</svg>
