<?xml version="1.0" standalone="no"?>
<!DOCTYPE svg PUBLIC "-//W3C//DTD SVG 1.1//EN" "http://www.w3.org/Graphics/SVG/1.1/DTD/svg11.dtd" >
<svg xmlns="http://www.w3.org/2000/svg" xmlns:xlink="http://www.w3.org/1999/xlink" version="1.1" viewBox="-10 0 1010 1000">
   <path fill="currentColor"
d="M947 405l-63 32c-11 -23 -26 -51 -42 -82c-366 30 -409 32 -436 44c-4 -13 -16 -46 -24 -63c18 -3 36 -23 57 -52c23 -27 93 -135 139 -237l71 20c-46 90 -102 180 -157 251l313 -22c-25 -39 -52 -79 -79 -113l59 -27c64 77 131 182 162 249zM368 468l8 67
c-43 15 -86 30 -129 44v284c0 42 -10 62 -34 73c-26 12 -65 14 -132 14c-3 -19 -13 -49 -23 -68c47 1 90 1 101 1c14 -1 20 -5 20 -20v-261c-43 15 -83 27 -119 39l-19 -71c38 -11 86 -26 138 -42v-213h-129v-70h129v-200h68v200h119v70h-119v192c39 -13 80 -26 121 -39z
M437 472l71 13c-27 120 -72 239 -124 317c-13 -10 -46 -28 -63 -36c54 -72 94 -183 116 -294zM609 864v-464h71v466c0 39 -8 58 -35 70s-69 13 -131 13c-4 -20 -15 -50 -26 -69c47 1 92 1 104 0c13 0 17 -3 17 -16zM753 489l62 -20c46 99 92 225 111 309l-67 24
c-16 -84 -62 -214 -106 -313z" />
</svg>
