<?xml version="1.0" standalone="no"?>
<!DOCTYPE svg PUBLIC "-//W3C//DTD SVG 1.1//EN" "http://www.w3.org/Graphics/SVG/1.1/DTD/svg11.dtd" >
<svg xmlns="http://www.w3.org/2000/svg" xmlns:xlink="http://www.w3.org/1999/xlink" version="1.1" viewBox="-10 0 1010 1000">
   <path fill="currentColor"
d="M407 505c-4 -20 -17 -58 -25 -73c18 -4 44 -12 63 -30c22 -20 89 -107 134 -168h-184v-68h220c-14 -33 -31 -72 -47 -103l68 -21c20 38 45 88 61 124h240v68h-270c-42 58 -98 133 -142 186l284 -24c-21 -33 -45 -65 -67 -94l58 -28c55 69 120 162 150 218l-63 36
c-10 -21 -24 -47 -42 -76c-369 35 -411 40 -438 53zM351 546l-110 36v282c0 41 -9 60 -34 72c-23 12 -61 15 -124 14c-3 -18 -12 -48 -22 -69c43 1 82 1 93 1c13 0 18 -4 18 -19v-258c-43 14 -83 26 -120 38l-18 -71c38 -11 85 -26 138 -42v-217h-124v-69h124v-200h69v200
h108v69h-108v196l100 -31zM505 527h71c-9 224 -40 353 -221 427c-7 -19 -28 -45 -44 -58c164 -62 186 -170 194 -369zM793 871h73c22 0 27 -17 29 -137c16 13 45 24 65 29c-7 139 -25 175 -86 175h-90c-70 0 -88 -23 -88 -96v-313h71v313c0 25 4 29 26 29z" />
</svg>
