<?xml version="1.0" standalone="no"?>
<!DOCTYPE svg PUBLIC "-//W3C//DTD SVG 1.1//EN" "http://www.w3.org/Graphics/SVG/1.1/DTD/svg11.dtd" >
<svg xmlns="http://www.w3.org/2000/svg" xmlns:xlink="http://www.w3.org/1999/xlink" version="1.1" viewBox="-10 0 1010 1000">
   <path fill="currentColor"
d="M350 477l11 68c-37 13 -75 25 -111 37v282c0 41 -9 60 -33 72c-23 12 -59 15 -121 14c-3 -18 -12 -48 -21 -69c42 1 81 1 92 1c12 0 17 -4 17 -19v-259l-118 39l-18 -72c38 -11 85 -24 136 -41v-217h-123v-69h123v-200h66v200h106v69h-106v196c33 -10 67 -21 100 -32z
M661 432h-166v96h166v-96zM495 686h166v-99h-166v99zM724 746h-229v51h-63v-425h292v374zM929 202v39c-16 464 -28 622 -67 672c-22 28 -44 37 -78 41c-34 3 -91 2 -148 -2c-2 -22 -9 -53 -23 -74c62 5 119 5 141 5c19 1 31 -2 41 -16c32 -34 48 -188 60 -595h-363
c-30 50 -64 96 -100 134c-13 -13 -39 -35 -56 -46c78 -78 141 -204 176 -318l75 23c-15 46 -35 92 -57 137h399z" />
</svg>
