<?xml version="1.0" standalone="no"?>
<!DOCTYPE svg PUBLIC "-//W3C//DTD SVG 1.1//EN" "http://www.w3.org/Graphics/SVG/1.1/DTD/svg11.dtd" >
<svg xmlns="http://www.w3.org/2000/svg" xmlns:xlink="http://www.w3.org/1999/xlink" version="1.1" viewBox="-10 0 1010 1000">
   <path fill="currentColor"
d="M940 463l-55 40c-10 -17 -25 -39 -41 -61c-379 25 -424 28 -451 40c-4 -20 -16 -57 -23 -73c17 -4 41 -11 58 -27c19 -19 75 -94 113 -149h-175v-64h254c-13 -33 -31 -74 -47 -105l66 -21c21 39 46 91 60 126h227v64h-299c-37 52 -84 117 -120 164l291 -16
c-25 -33 -52 -68 -76 -97l52 -33c56 67 130 159 166 212zM348 546l-109 36v282c0 41 -9 60 -34 72c-23 12 -61 15 -124 14c-3 -18 -12 -48 -22 -69c43 1 83 1 94 1c12 0 17 -4 17 -19v-258c-43 14 -83 26 -119 38l-19 -71c38 -11 85 -26 138 -42v-217h-124v-69h124v-199h69
v199h107v69h-107v196l99 -31zM436 623v-110h66v112c0 112 -20 240 -173 332c-10 -15 -31 -40 -47 -50c138 -81 154 -191 154 -284zM594 914v-392h66v392h-66zM845 889h25c7 0 14 -1 18 -5c4 -3 8 -12 10 -26c2 -18 3 -54 4 -102c13 12 36 23 54 29c-1 45 -4 96 -9 114
c-6 20 -15 32 -27 39c-12 6 -30 10 -45 10h-45c-19 0 -39 -5 -53 -18c-14 -12 -18 -28 -18 -91v-325h67v333c0 20 1 32 5 37c3 4 8 5 14 5z" />
</svg>
