<?xml version="1.0" standalone="no"?>
<!DOCTYPE svg PUBLIC "-//W3C//DTD SVG 1.1//EN" "http://www.w3.org/Graphics/SVG/1.1/DTD/svg11.dtd" >
<svg xmlns="http://www.w3.org/2000/svg" xmlns:xlink="http://www.w3.org/1999/xlink" version="1.1" viewBox="-10 0 1010 1000">
   <path fill="currentColor"
d="M363 481l8 67c-39 12 -79 25 -118 36v278c0 42 -11 62 -36 73c-25 12 -66 14 -133 14c-3 -19 -14 -49 -24 -69c48 2 91 1 103 1c14 0 19 -5 19 -19v-256c-42 13 -82 24 -119 35l-21 -72c40 -10 88 -22 140 -36v-219h-128v-70h128v-200h71v200h111v70h-111v199
c36 -11 73 -22 110 -32zM717 191h-183c-18 37 -38 74 -60 108h186c20 -29 41 -71 57 -108zM938 365h-453v152c0 129 -17 312 -110 435c-11 -13 -40 -36 -56 -44c88 -114 98 -274 98 -392v-134c-19 23 -38 46 -59 66c-6 -17 -28 -54 -42 -70c87 -83 162 -210 207 -342l69 18
c-9 25 -19 49 -29 74h189l11 -3l49 33c-20 45 -51 98 -79 141h205v66zM684 874h165c40 0 47 -18 51 -117c16 12 43 23 62 27c-9 122 -30 156 -109 156h-175c-90 0 -117 -22 -117 -106v-385h322v28c0 162 -2 225 -16 244c-12 16 -26 23 -49 25c-20 2 -57 2 -95 1
c-1 -20 -7 -45 -17 -62c35 3 67 4 79 4c11 0 19 -2 24 -9c7 -11 7 -53 7 -167h-187v321c0 33 8 40 55 40z" />
</svg>
