<?xml version="1.0" standalone="no"?>
<!DOCTYPE svg PUBLIC "-//W3C//DTD SVG 1.1//EN" "http://www.w3.org/Graphics/SVG/1.1/DTD/svg11.dtd" >
<svg xmlns="http://www.w3.org/2000/svg" xmlns:xlink="http://www.w3.org/1999/xlink" version="1.1" viewBox="-10 0 1010 1000">
   <path fill="currentColor"
d="M537 698v63h414v56h-414v59c0 39 -10 56 -40 67c-31 10 -81 11 -162 10c-5 -18 -15 -44 -25 -61c61 1 118 1 133 1c16 -1 21 -5 21 -18v-58h-414v-56h414v-63h-340v-54h340v-64c-104 5 -212 8 -311 8c-1 -15 -7 -37 -13 -50c219 -2 489 -15 632 -40l46 47
c-76 14 -175 23 -281 30v69h347v54h-347zM692 69l56 -20c43 77 131 155 216 190c-16 13 -36 37 -47 54c-19 -9 -37 -20 -56 -33l-1 12c-13 119 -24 171 -47 191c-14 15 -31 21 -55 23c-21 1 -62 1 -104 -1c-1 -19 -8 -44 -18 -61c39 4 77 5 92 5c14 0 23 -1 30 -8
c11 -12 21 -44 30 -116h-155c-33 101 -111 162 -217 199c-6 -15 -25 -42 -38 -55c88 -26 156 -71 184 -144h-84v-47c-12 9 -23 17 -35 25c-7 -8 -20 -20 -34 -31l2 53c-39 6 -77 12 -114 17v95c0 36 -8 55 -37 66c-27 11 -72 12 -136 12c-3 -19 -14 -45 -23 -65
c49 2 93 2 106 1c14 -1 17 -4 17 -15v-84c-56 8 -108 16 -153 22l-7 -63c44 -5 99 -12 160 -19v-91h-152v-58h152v-75h73v75h115v58h-115v81l107 -14c-5 -4 -10 -8 -14 -11c72 -42 139 -110 176 -185l65 18c-31 67 -81 126 -135 173h343c-59 -47 -114 -110 -147 -174z" />
</svg>
