<?xml version="1.0" standalone="no"?>
<!DOCTYPE svg PUBLIC "-//W3C//DTD SVG 1.1//EN" "http://www.w3.org/Graphics/SVG/1.1/DTD/svg11.dtd" >
<svg xmlns="http://www.w3.org/2000/svg" xmlns:xlink="http://www.w3.org/1999/xlink" version="1.1" viewBox="-10 0 1010 1000">
   <path fill="currentColor"
d="M310 473l13 68c-32 13 -64 25 -96 37v288c0 38 -9 57 -32 69c-22 11 -58 13 -115 13c-2 -18 -11 -46 -21 -66c40 1 76 1 86 0c12 0 16 -3 16 -16v-262l-98 38l-21 -72c34 -11 75 -24 119 -41v-216h-109v-69h109v-200h66v200h92v69h-92v192zM466 491v87h325v-87h-325z
M791 212h-325v81h325v-81zM791 433v-82h-325v82h325zM897 466l63 29c-28 41 -62 80 -98 116v255c0 45 -9 66 -38 78c-30 12 -81 13 -153 13c-3 -20 -13 -51 -23 -71c55 2 108 2 123 2c16 -1 20 -6 20 -22v-192c-135 111 -302 193 -477 251c-6 -15 -24 -50 -37 -65
c164 -47 321 -119 446 -215h-402v-67h76v-427h146c15 -34 31 -74 39 -104l78 15c-14 30 -30 62 -43 89h245v362c13 -15 25 -31 35 -47z" />
</svg>
