<?xml version="1.0" standalone="no"?>
<!DOCTYPE svg PUBLIC "-//W3C//DTD SVG 1.1//EN" "http://www.w3.org/Graphics/SVG/1.1/DTD/svg11.dtd" >
<svg xmlns="http://www.w3.org/2000/svg" xmlns:xlink="http://www.w3.org/1999/xlink" version="1.1" viewBox="-10 0 1010 1000">
   <path fill="currentColor"
d="M361 489l9 68c-42 12 -85 25 -127 38v266c0 43 -10 63 -36 74c-27 12 -69 14 -140 14c-2 -19 -13 -49 -22 -69c48 2 93 1 106 1c14 0 20 -5 20 -20v-244l-122 35l-12 -74c38 -9 84 -21 134 -35v-229h-125v-70h125v-200h72v200h116v70h-116v209c39 -10 79 -22 118 -34z
M849 531l48 37c-55 52 -131 103 -202 143v160c0 39 -9 57 -41 68c-32 10 -84 10 -165 10c-3 -20 -15 -45 -24 -64c62 2 121 2 137 1s21 -5 21 -17v-180c46 -23 99 -59 141 -93h-362v-61h431zM806 420v-96h-312v96h312zM877 271v202h-451v-202h451zM703 145h250v64h-586v-64
h250c-13 -28 -28 -61 -42 -87l73 -17c17 31 40 73 55 104z" />
</svg>
