<?xml version="1.0" standalone="no"?>
<!DOCTYPE svg PUBLIC "-//W3C//DTD SVG 1.1//EN" "http://www.w3.org/Graphics/SVG/1.1/DTD/svg11.dtd" >
<svg xmlns="http://www.w3.org/2000/svg" xmlns:xlink="http://www.w3.org/1999/xlink" version="1.1" viewBox="-10 0 1010 1000">
   <path fill="currentColor"
d="M344 546l-106 35v283c0 41 -9 60 -33 72s-62 15 -124 14c-2 -18 -11 -48 -21 -69c42 1 81 1 92 1c13 0 17 -4 17 -19v-258c-42 13 -83 26 -119 38l-18 -72h-1c38 -10 86 -25 138 -41v-217h-123v-69h123v-200h69v200h106v69h-106v196c31 -11 64 -21 96 -32zM901 289l52 54
c-38 32 -82 66 -128 97c25 138 78 282 145 350c-16 13 -39 38 -50 56c-68 -77 -118 -223 -146 -370c-17 10 -33 20 -48 30c46 170 20 345 -39 396c-28 29 -54 39 -98 40c-19 0 -53 -1 -80 -3c-1 -21 -6 -49 -18 -70c32 4 66 5 85 5c25 0 40 -4 58 -23
c30 -28 51 -118 42 -226c-78 91 -194 178 -294 227c-9 -18 -27 -42 -40 -57c116 -47 253 -152 322 -251c-6 -29 -13 -59 -25 -88c-29 29 -63 59 -99 87c16 29 29 56 38 77l-52 28c-7 -20 -19 -44 -33 -71c-36 25 -72 46 -105 63c-9 -18 -26 -42 -41 -56
c37 -14 78 -36 117 -61c-13 -24 -28 -47 -40 -69l50 -23c11 19 24 40 36 60c41 -29 77 -61 103 -92c-13 -26 -29 -52 -47 -75c-52 40 -108 75 -161 104c-9 -15 -31 -44 -45 -58c94 -43 193 -109 262 -184h-245v-71h570v71h-238c-29 34 -61 67 -97 98c42 49 73 103 95 161
c67 -45 145 -107 194 -156z" />
</svg>
