<?xml version="1.0" standalone="no"?>
<!DOCTYPE svg PUBLIC "-//W3C//DTD SVG 1.1//EN" "http://www.w3.org/Graphics/SVG/1.1/DTD/svg11.dtd" >
<svg xmlns="http://www.w3.org/2000/svg" xmlns:xlink="http://www.w3.org/1999/xlink" version="1.1" viewBox="-10 0 1010 1000">
   <path fill="currentColor"
d="M327 535l-95 37v294c0 38 -9 57 -31 69c-22 11 -58 13 -114 13c-2 -18 -11 -46 -21 -66c39 1 75 1 85 0c12 0 16 -3 16 -16v-270c-37 15 -73 28 -105 41l-19 -66c35 -12 77 -27 124 -44v-216h-115v-67h115v-200h65v200h93v67h-93v191l83 -31zM668 524v72h165v-72h-165z
M668 394v71h165v-71h-165zM895 650h-205c71 82 179 162 274 202c-15 12 -36 38 -46 56c-84 -45 -179 -120 -250 -201v249h-70v-257c-70 86 -166 162 -256 206c-10 -17 -30 -41 -44 -53c96 -40 201 -118 270 -202h-187v-54h217v-72h-244v-59h244v-71h-214v-55h214v-61h-237
v-59h237v-65c-68 6 -138 11 -202 14c-2 -16 -9 -38 -16 -53c160 -9 355 -28 463 -56l43 51c-60 16 -137 28 -218 36v73h275v59h-275v61h227v126h63v59h-63v126z" />
</svg>
