<?xml version="1.0" standalone="no"?>
<!DOCTYPE svg PUBLIC "-//W3C//DTD SVG 1.1//EN" "http://www.w3.org/Graphics/SVG/1.1/DTD/svg11.dtd" >
<svg xmlns="http://www.w3.org/2000/svg" xmlns:xlink="http://www.w3.org/1999/xlink" version="1.1" viewBox="-10 0 1010 1000">
   <path fill="currentColor"
d="M589 173h-159v44c0 8 0 17 -1 26h160v-70zM767 298h-249c31 35 72 64 122 86c51 -22 95 -51 127 -86zM449 298h-25c-10 76 -39 161 -109 224c-12 -13 -40 -36 -57 -43c88 -79 103 -185 103 -263v-100h228v-72h71v72h213l11 -3l49 14c-18 38 -42 83 -60 111l-61 -13
c9 -14 19 -33 28 -52h-180v70h155l12 -2l40 16c-34 66 -87 117 -154 155c66 19 142 32 225 38c-14 15 -31 41 -39 61c-100 -11 -188 -30 -263 -63c-68 28 -144 45 -222 56c-6 -16 -19 -42 -29 -56c63 -7 124 -19 181 -36c-48 -31 -88 -69 -117 -114zM102 521l-36 -57
c62 -39 150 -103 226 -167l28 51c-69 60 -147 122 -218 173zM313 125l-35 51c-34 -28 -101 -63 -156 -85l35 -46c53 20 122 53 156 80zM253 253l-35 49c-33 -28 -100 -64 -156 -85l34 -44c55 18 123 52 157 80zM951 756v55h-415v71c0 40 -10 55 -40 66c-32 9 -81 10 -161 9
c-4 -18 -16 -41 -25 -59c60 2 117 2 132 1s21 -5 21 -18v-70h-413v-55h413v-57h-343v-54h343v-59c-103 5 -211 8 -310 9c-1 -15 -8 -36 -13 -50c225 -2 500 -15 644 -40l53 44c-82 15 -188 25 -301 32v64h348v54h-348v57h415z" />
</svg>
