<?xml version="1.0" standalone="no"?>
<!DOCTYPE svg PUBLIC "-//W3C//DTD SVG 1.1//EN" "http://www.w3.org/Graphics/SVG/1.1/DTD/svg11.dtd" >
<svg xmlns="http://www.w3.org/2000/svg" xmlns:xlink="http://www.w3.org/1999/xlink" version="1.1" viewBox="-10 0 1010 1000">
   <path fill="currentColor"
d="M327 549l-96 33v281c0 42 -9 62 -33 74c-23 12 -60 14 -120 14c-2 -18 -12 -49 -21 -70c42 1 78 1 89 1c13 0 17 -4 17 -19v-259l-113 39l-18 -72c36 -11 81 -24 131 -40v-218h-119v-69h119v-200h68v200h96v69h-96v195l86 -28zM483 717h299v-87h-289c-1 27 -4 57 -10 87z
M782 570v-92h70v473h-70v-174h-315c-21 66 -62 131 -134 183c-11 -13 -36 -34 -52 -43c127 -90 145 -219 145 -313v-125h67v91h289zM771 209h-288c35 48 87 88 151 119c58 -31 105 -70 137 -119zM936 209h-89c-33 61 -84 109 -145 147c78 27 169 46 266 55
c-16 15 -33 44 -42 63c-111 -13 -213 -39 -298 -78c-83 37 -179 64 -280 82c-5 -15 -20 -45 -32 -58c89 -13 173 -32 247 -59c-60 -37 -109 -83 -146 -137l42 -15h-115v-65h260c-13 -28 -29 -60 -45 -86l59 -20c21 32 44 75 56 106h262v65z" />
</svg>
