<?xml version="1.0" standalone="no"?>
<!DOCTYPE svg PUBLIC "-//W3C//DTD SVG 1.1//EN" "http://www.w3.org/Graphics/SVG/1.1/DTD/svg11.dtd" >
<svg xmlns="http://www.w3.org/2000/svg" xmlns:xlink="http://www.w3.org/1999/xlink" version="1.1" viewBox="-10 0 1010 1000">
   <path fill="currentColor"
d="M800 274l-44 38c-25 -24 -59 -55 -99 -86c-42 37 -88 72 -136 99c-10 -11 -28 -28 -41 -37c47 -27 92 -59 134 -95c-43 -32 -88 -62 -128 -87l41 -35c41 25 84 54 126 85c28 -31 53 -62 71 -93l54 24c-22 34 -50 69 -81 101c41 31 77 62 103 86zM892 97v295h-501v-295h64
v234h371v-234h66zM694 434l39 -38c66 44 154 107 199 147l-41 44c-42 -41 -130 -107 -197 -153zM372 592l-39 -42c-31 11 -64 21 -96 32v282c0 41 -9 60 -34 72c-22 12 -60 15 -123 14c-2 -18 -11 -48 -21 -69c43 1 82 1 93 1c12 0 17 -4 17 -19v-258c-42 13 -82 26 -119 38
l-18 -72c37 -10 85 -24 137 -41v-217h-123v-69h123v-200h68v200h107v69h-107v197l92 -30l7 57c62 -30 127 -82 169 -136l60 21c-49 65 -120 132 -193 170zM526 641l-6 6c31 46 73 87 124 122c49 -36 89 -78 119 -128h-237zM813 580l43 20c-34 84 -89 151 -155 204
c74 40 163 70 257 87c-14 14 -33 38 -41 57c-100 -22 -192 -58 -271 -107c-87 54 -188 90 -292 113c-7 -17 -22 -42 -35 -55c97 -18 192 -49 273 -95c-45 -35 -85 -75 -116 -118c-29 24 -62 46 -98 67c-11 -16 -31 -37 -47 -46c112 -58 186 -140 224 -210l71 13
c-14 24 -30 49 -49 73h223z" />
</svg>
