<?xml version="1.0" standalone="no"?>
<!DOCTYPE svg PUBLIC "-//W3C//DTD SVG 1.1//EN" "http://www.w3.org/Graphics/SVG/1.1/DTD/svg11.dtd" >
<svg xmlns="http://www.w3.org/2000/svg" xmlns:xlink="http://www.w3.org/1999/xlink" version="1.1" viewBox="-10 0 1010 1000">
   <path fill="currentColor"
d="M331 550l-102 35v279c0 41 -9 60 -33 72c-23 12 -60 15 -122 14c-3 -18 -12 -48 -21 -69c43 1 81 1 92 1c12 0 17 -4 17 -19v-255c-39 13 -75 24 -109 35l-19 -71c36 -10 80 -24 128 -39v-219h-117v-69h117v-201h67v201h102v69h-102v199l93 -31zM840 210h-423v86h423v-86
zM910 354h-493v46c0 162 -16 394 -114 553c-13 -12 -42 -31 -59 -38c95 -152 105 -364 105 -515v-249h252c-9 -30 -23 -66 -38 -94l65 -16c19 34 36 77 45 110h237v203zM534 452v59h271v-59h-271zM870 560h-399v-157h399v157zM638 652h-130v85h130v-85zM833 737v-85h-133v85
h133zM588 892h246c52 0 61 -15 67 -99c15 10 40 20 58 24c-9 107 -31 134 -121 134h-252c-110 0 -142 -18 -142 -98v-252h455v187h-391v65c0 32 12 39 80 39z" />
</svg>
