<?xml version="1.0" standalone="no"?>
<!DOCTYPE svg PUBLIC "-//W3C//DTD SVG 1.1//EN" "http://www.w3.org/Graphics/SVG/1.1/DTD/svg11.dtd" >
<svg xmlns="http://www.w3.org/2000/svg" xmlns:xlink="http://www.w3.org/1999/xlink" version="1.1" viewBox="-10 0 1010 1000">
   <path fill="currentColor"
d="M703 268l39 -44c72 49 162 115 205 159l-43 50c-42 -46 -130 -116 -201 -165zM930 129v61h-608v-61h262c-10 -23 -23 -47 -35 -68l62 -16c17 25 36 59 46 84h273zM347 430l-47 -51c70 -36 143 -98 191 -155l63 19c-53 66 -129 141 -207 187zM325 517l-94 37v312
c0 38 -8 57 -31 69c-23 11 -59 13 -115 13c-3 -18 -12 -46 -21 -66c39 1 75 1 85 0c12 0 17 -3 17 -16v-288l-103 41l-20 -72c34 -12 77 -26 123 -43v-191h-114v-69h114v-200h65v200h87v69h-87v167c27 -10 55 -20 82 -31zM891 596l57 36c-45 41 -103 85 -152 117
c48 48 106 86 172 109c-16 13 -37 37 -47 55c-144 -60 -248 -179 -307 -330c-34 46 -78 86 -130 121v154l198 -39c-1 18 0 44 1 58c-210 47 -239 58 -257 71v-1c-5 -15 -17 -44 -28 -59c11 -7 22 -21 22 -56v-90c-33 18 -67 32 -104 46c-11 -15 -33 -39 -48 -52
c116 -39 219 -99 280 -174c-126 8 -151 12 -169 17c-4 -12 -16 -41 -23 -56c18 -3 38 -17 62 -39c27 -20 110 -103 165 -185l64 31c-52 64 -111 127 -171 178l277 -13c-27 -28 -56 -58 -83 -82l49 -32c60 51 133 126 167 174l-52 38c-9 -14 -21 -29 -34 -46l-130 8
c22 56 52 108 88 153c46 -33 100 -78 133 -112z" />
</svg>
