<?xml version="1.0" standalone="no"?>
<!DOCTYPE svg PUBLIC "-//W3C//DTD SVG 1.1//EN" "http://www.w3.org/Graphics/SVG/1.1/DTD/svg11.dtd" >
<svg xmlns="http://www.w3.org/2000/svg" xmlns:xlink="http://www.w3.org/1999/xlink" version="1.1" viewBox="-10 0 1010 1000">
   <path fill="currentColor"
d="M303 544l-85 34v288c0 38 -8 57 -30 69c-23 11 -58 13 -114 13c-2 -18 -11 -46 -20 -66c39 1 74 1 84 0c12 0 17 -3 17 -16v-263l-93 36l-20 -69c32 -10 71 -24 113 -39v-219h-103v-68h103v-200h63v200h74v68h-74v196l74 -29zM380 494v81h158v-81h-158zM380 359v79h158
v-79h-158zM598 634h-101v90h121v67h-121v159h-66v-159h-144v-67h144v-90h-110v-335h104v-85h-127v-66h127v-99h65v99h124v66h-124v85h108v45c54 -76 92 -187 114 -300l68 13c-10 47 -23 94 -37 138h213v68h-239c-22 54 -47 102 -75 140c-10 -9 -29 -26 -44 -37v268zM760 866
h119c21 0 25 -15 27 -124c17 9 39 17 57 21c-6 145 -28 168 -84 168h-121c-70 0 -101 -29 -101 -80c0 -37 6 -87 150 -395h-145v-68h188l15 -1l43 11c-1 5 -3 11 -5 15c-165 350 -177 397 -177 429c0 17 12 24 34 24z" />
</svg>
