<?xml version="1.0" standalone="no"?>
<!DOCTYPE svg PUBLIC "-//W3C//DTD SVG 1.1//EN" "http://www.w3.org/Graphics/SVG/1.1/DTD/svg11.dtd" >
<svg xmlns="http://www.w3.org/2000/svg" xmlns:xlink="http://www.w3.org/1999/xlink" version="1.1" viewBox="-10 0 1010 1000">
   <path fill="currentColor"
d="M358 546l-113 37v281c0 41 -9 60 -33 72s-62 15 -125 14c-2 -18 -12 -48 -21 -69c43 1 82 1 93 1c12 0 18 -4 18 -19v-258c-43 14 -83 27 -120 38l-19 -71c38 -11 86 -25 139 -42v-217h-124v-69h124v-200h68v200h112v69h-112v197l103 -33zM334 937l-54 -32
c53 -43 82 -114 95 -186l57 16c-15 79 -41 157 -98 202zM479 735l55 -12c18 53 29 122 30 166l-59 12c1 -44 -10 -113 -26 -166zM588 725l50 -15c26 43 50 100 59 136l-54 18c-8 -38 -31 -96 -55 -139zM802 187h-316v67h316v-67zM486 373h316v-69h-316v69zM958 544h-472v61
h448s0 20 -1 30c-12 193 -23 268 -46 294c-16 18 -33 24 -59 26c-23 2 -68 2 -114 -1c-2 -19 -8 -44 -18 -61c44 5 85 5 102 5c14 0 23 -2 31 -10c14 -16 25 -74 34 -222h-447v-535h160c12 -29 24 -63 30 -88l83 13c-12 26 -25 52 -38 75h221v297h-386v56h472v60zM698 710
l47 -21c30 35 61 81 76 112l-51 23c-13 -32 -44 -80 -72 -114z" />
</svg>
