<?xml version="1.0" standalone="no"?>
<!DOCTYPE svg PUBLIC "-//W3C//DTD SVG 1.1//EN" "http://www.w3.org/Graphics/SVG/1.1/DTD/svg11.dtd" >
<svg xmlns="http://www.w3.org/2000/svg" xmlns:xlink="http://www.w3.org/1999/xlink" version="1.1" viewBox="-10 0 1010 1000">
   <path fill="currentColor"
d="M429 189v84h-62v-140h236c-12 -25 -26 -54 -40 -76l65 -19c19 29 40 67 52 95h256v140h-64v-84h-443zM553 247l42 -37c43 27 97 68 124 97l-44 41c-26 -29 -79 -72 -122 -101zM417 318l54 22c-15 49 -37 116 -66 157l-55 -30c28 -37 53 -101 67 -149zM322 470l13 67
c-35 14 -70 28 -104 42v287c0 38 -9 57 -32 69c-23 11 -58 13 -115 13c-3 -18 -12 -46 -21 -66c39 1 75 1 85 0c12 0 17 -3 17 -16v-261c-34 13 -68 26 -98 37l-21 -71c34 -11 74 -26 119 -42v-216h-109v-69h109v-200h66v200h96v69h-96v191zM750 610h-142
c-59 0 -85 -10 -95 -41c-47 26 -96 50 -146 69c-8 -13 -28 -40 -41 -52c64 -22 125 -50 182 -82v-192h61v154c88 -60 162 -132 212 -218l58 22c-65 108 -161 196 -269 265c2 14 12 17 43 17h131c31 0 36 -12 39 -97c14 10 39 19 56 23c-7 105 -25 132 -89 132zM825 851v-185
h69v277h-69v-36h-425v-241h67v185h143v-217h69v217h146zM798 355l53 -27c45 54 91 126 107 176l-55 29c-16 -49 -60 -124 -105 -178z" />
</svg>
