<?xml version="1.0" standalone="no"?>
<!DOCTYPE svg PUBLIC "-//W3C//DTD SVG 1.1//EN" "http://www.w3.org/Graphics/SVG/1.1/DTD/svg11.dtd" >
<svg xmlns="http://www.w3.org/2000/svg" xmlns:xlink="http://www.w3.org/1999/xlink" version="1.1" viewBox="-10 0 1010 1000">
   <path fill="currentColor"
d="M355 257v-100h-78v100h78zM355 406v-101h-78v101h78zM140 305v101h85v-101h-85zM140 157v100h85v-100h-85zM786 148h-206c-5 4 -9 9 -14 13c27 22 64 44 109 64c44 -22 82 -48 111 -77zM409 319v138h-321v-351h321v199c73 -12 143 -30 207 -54c-35 -19 -64 -39 -88 -59
c-23 17 -47 32 -76 47c-9 -13 -27 -30 -40 -38c91 -43 152 -104 180 -161l61 10c-10 18 -21 34 -32 51h209l12 -2l37 23c-35 50 -85 93 -145 127c63 23 136 41 214 52c-13 11 -28 33 -36 47c-87 -15 -168 -39 -236 -69c-75 35 -159 58 -243 75c-5 -10 -15 -24 -24 -35z
M556 386v74h238v-74h-238zM856 506h-360v-166h360v166zM957 759l-1 52h-420v73c0 39 -10 54 -40 64c-32 10 -82 10 -162 9c-5 -17 -16 -40 -25 -57c59 2 117 2 132 1c16 -1 22 -5 22 -19v-71h-416v-52h416v-57h-336v-50h336v-57c-121 4 -246 5 -360 3c0 -13 -6 -34 -10 -46
c252 3 571 -7 731 -32l52 41c-91 14 -212 24 -340 31v60h322v50h-322v57h421z" />
</svg>
