<?xml version="1.0" standalone="no"?>
<!DOCTYPE svg PUBLIC "-//W3C//DTD SVG 1.1//EN" "http://www.w3.org/Graphics/SVG/1.1/DTD/svg11.dtd" >
<svg xmlns="http://www.w3.org/2000/svg" xmlns:xlink="http://www.w3.org/1999/xlink" version="1.1" viewBox="-10 0 1010 1000">
   <path fill="currentColor"
d="M909 78v179h-536v-179h69v120h160v-155h70v155h165v-120h72zM818 445v-76h-140v76h140zM818 578v-77h-140v77h140zM466 501v77h144v-77h-144zM466 369v76h144v-76h-144zM888 311v325h-285c52 27 107 70 134 103l-41 37c-27 -35 -87 -81 -140 -110l34 -30h-191v-325h489z
M313 452l12 62c-29 11 -60 23 -89 35v317c0 38 -9 57 -32 68c-22 11 -57 14 -114 14c-3 -18 -11 -46 -20 -65c40 1 75 1 85 0c12 0 17 -3 17 -16v-294l-104 41l-19 -67c34 -12 77 -26 123 -43v-194h-114v-66h114v-200h64v200h83v66h-83v170zM354 919l-57 -33
c41 -47 69 -126 83 -193l59 20c-16 70 -41 154 -85 206zM599 872h116c30 0 35 -11 38 -101c14 10 41 20 60 25c-7 109 -26 136 -91 136h-131c-80 0 -100 -18 -100 -84v-152h67v151c0 21 6 25 41 25zM783 711l55 -24c49 54 102 127 122 179l-59 26
c-18 -50 -69 -127 -118 -181z" />
</svg>
