<?xml version="1.0" standalone="no"?>
<!DOCTYPE svg PUBLIC "-//W3C//DTD SVG 1.1//EN" "http://www.w3.org/Graphics/SVG/1.1/DTD/svg11.dtd" >
<svg xmlns="http://www.w3.org/2000/svg" xmlns:xlink="http://www.w3.org/1999/xlink" version="1.1" viewBox="-10 0 1010 1000">
   <path fill="currentColor"
d="M308 474l14 67l-93 36v289c0 38 -8 57 -32 69c-22 11 -59 13 -115 13c-4 -18 -13 -46 -22 -66c40 1 76 1 86 0c12 0 16 -3 16 -16v-262l-99 38l-21 -71c34 -11 75 -26 120 -43v-215h-109v-69h109v-200h67v200h80v69h-80v191zM617 545v338c0 34 -6 50 -32 61
c-25 10 -66 11 -127 11c-2 -18 -11 -41 -20 -59c45 2 82 2 94 1c12 0 15 -4 15 -14v-88c-68 34 -135 67 -192 95l-31 -54c57 -23 138 -60 223 -98v-137h-198v-56h268zM522 710l-47 36c-23 -28 -71 -73 -111 -103l44 -32c40 29 90 71 114 99zM793 448v-85h-293v85h293z
M865 312v187h-434v-187h434zM924 545v337c0 35 -7 52 -33 62s-70 11 -134 11c-2 -18 -11 -41 -20 -59c48 2 88 2 100 1c13 0 16 -4 16 -15v-93c-70 34 -139 69 -197 96l-31 -54c57 -23 142 -59 228 -98v-132h-207v-56h278zM822 709l-47 36c-24 -28 -74 -70 -114 -100l45 -31
c40 27 90 67 116 95zM520 210h266c-49 -25 -97 -54 -144 -88c-36 32 -77 62 -122 88zM637 36l64 25c-5 7 -11 13 -17 20c89 60 190 101 288 132c-18 14 -40 38 -52 57c-41 -16 -82 -34 -122 -54v47h-295v-43c-43 24 -89 45 -135 62c-11 -17 -33 -39 -50 -53
c125 -40 253 -113 319 -193z" />
</svg>
