<?xml version="1.0" standalone="no"?>
<!DOCTYPE svg PUBLIC "-//W3C//DTD SVG 1.1//EN" "http://www.w3.org/Graphics/SVG/1.1/DTD/svg11.dtd" >
<svg xmlns="http://www.w3.org/2000/svg" xmlns:xlink="http://www.w3.org/1999/xlink" version="1.1" viewBox="-10 0 1010 1000">
   <path fill="currentColor"
d="M642 129v6c0 49 -17 102 -90 141c-10 -12 -36 -34 -48 -41c65 -31 77 -67 77 -102v-54h250v99c0 22 1 27 15 27h52c11 0 32 0 43 -3c2 15 3 33 5 48c-11 3 -31 4 -47 4h-65c-53 0 -63 -23 -63 -76v-49h-129zM480 77v256h-399v-236c55 -11 124 -28 164 -45l31 44
c-38 14 -87 27 -133 35v51h113v48h-113v56h277v-56h-116v-48h116v-57h-124v-48h184zM61 555l-5 -50c53 -3 118 -8 190 -13v-64h-166v-49h397v49h-161v59l180 -13l-1 44c-157 15 -320 28 -434 37zM546 726v50h399v52h-399v51c0 38 -11 53 -40 62c-30 9 -80 9 -161 9
c-4 -17 -15 -38 -25 -55c60 3 118 2 132 1c16 -1 21 -5 21 -18v-50h-417v-52h417v-50h-339v-49h339v-50c-103 3 -209 3 -302 1c0 -14 -7 -34 -12 -46c210 2 489 -6 635 -29l23 46c-71 11 -167 20 -271 25v53h325v49h-325zM803 339h-188c24 30 58 59 98 82
c36 -23 66 -51 90 -82zM851 286l37 16c-27 59 -70 108 -121 149c56 25 121 45 187 57c-14 12 -30 35 -39 51c-72 -15 -141 -40 -202 -73c-53 30 -113 54 -171 69c-7 -15 -21 -40 -32 -51c51 -11 103 -29 149 -52c-44 -32 -80 -68 -108 -108l15 -5h-43v-50h305v-1h13z" />
</svg>
