<?xml version="1.0" standalone="no"?>
<!DOCTYPE svg PUBLIC "-//W3C//DTD SVG 1.1//EN" "http://www.w3.org/Graphics/SVG/1.1/DTD/svg11.dtd" >
<svg xmlns="http://www.w3.org/2000/svg" xmlns:xlink="http://www.w3.org/1999/xlink" version="1.1" viewBox="-10 0 1010 1000">
   <path fill="currentColor"
d="M739 148v48c0 73 -13 165 -79 226c-7 -13 -31 -39 -44 -48c57 -53 64 -122 64 -179v-113h200v226c0 26 0 35 11 35h30c10 0 25 -1 34 -4c1 18 3 40 5 56c-8 5 -24 5 -37 5h-42c-51 0 -61 -27 -61 -94v-158h-81zM468 503v128h61v-128h-61zM355 631h62v-128h-52v-60h52
v-112h51v112h61v-112h51v112h49v60h-49v128h65v61h-290v-61zM279 550l-76 30v287c0 37 -8 56 -30 68c-21 11 -54 13 -107 13c-3 -18 -11 -46 -20 -66c37 1 69 1 79 0c11 0 15 -3 15 -15v-261c-28 11 -57 22 -82 32l-19 -68c28 -9 63 -22 101 -36v-224h-91v-66h91v-200h63
v200h72v66h-72v201l64 -25zM570 140h-217v110h217v-110zM353 309v126c0 151 -11 366 -85 510c-10 -12 -34 -32 -48 -39c70 -136 77 -329 77 -471v-355h331v229h-275zM420 719l55 15c-23 76 -63 154 -105 204c-10 -11 -34 -30 -47 -40c43 -45 77 -111 97 -179zM511 738
l47 -25c32 39 65 91 81 128l-50 27c-15 -36 -47 -91 -78 -130zM894 461l41 20c-24 107 -62 200 -111 276c39 57 87 103 144 132c-15 14 -33 41 -43 60c-55 -32 -102 -78 -140 -135c-46 58 -97 104 -151 138c-9 -17 -28 -44 -41 -57c56 -33 109 -81 156 -143
c-33 -60 -57 -131 -75 -207l57 -14c14 59 32 114 57 163c28 -49 53 -104 69 -163h-210v-67h236z" />
</svg>
