<?xml version="1.0" standalone="no"?>
<!DOCTYPE svg PUBLIC "-//W3C//DTD SVG 1.1//EN" "http://www.w3.org/Graphics/SVG/1.1/DTD/svg11.dtd" >
<svg xmlns="http://www.w3.org/2000/svg" xmlns:xlink="http://www.w3.org/1999/xlink" version="1.1" viewBox="-10 0 1010 1000">
   <path fill="currentColor"
d="M319 540l-93 38v288c0 38 -9 57 -31 69c-22 11 -58 13 -114 13c-2 -18 -11 -46 -20 -66c39 1 73 1 83 0c12 0 16 -3 16 -15v-264l-99 37l-21 -69c34 -11 75 -26 120 -42v-217h-108v-68h108v-200h66v200h84v68h-84v193l81 -30zM828 666l9 -4l44 32
c-55 55 -128 127 -194 189c19 13 35 25 48 35l-37 47c-45 -40 -135 -103 -205 -144l35 -40c33 19 70 42 105 65c47 -41 96 -87 135 -125h-366v-55h239c-22 -22 -58 -54 -86 -77l39 -31c34 25 74 56 93 77l-34 31h175zM639 437l39 19c-7 7 -13 14 -21 21
c74 51 206 102 307 129c-11 15 -24 43 -29 60c-103 -35 -235 -95 -318 -153c-81 66 -185 122 -278 161c-6 -14 -25 -43 -35 -56c113 -39 238 -105 314 -181h-23v-183h-205v101h-60v-160h265v-59h-231v-59h541v59h-244v59h284v160h-62v-101h-222v183h-22zM402 459v-46h166v46
h-166zM410 312h156v45h-156v-45zM694 459v-46h168v46h-168zM694 312h156v45h-156v-45z" />
</svg>
