<?xml version="1.0" standalone="no"?>
<!DOCTYPE svg PUBLIC "-//W3C//DTD SVG 1.1//EN" "http://www.w3.org/Graphics/SVG/1.1/DTD/svg11.dtd" >
<svg xmlns="http://www.w3.org/2000/svg" xmlns:xlink="http://www.w3.org/1999/xlink" version="1.1" viewBox="-10 0 1010 1000">
   <path fill="currentColor"
d="M927 381v57h-601v-57h258v-69h-195v-51h195v-65h-225v-55h126c-14 -25 -33 -54 -51 -77l53 -21c25 28 53 69 63 96l-5 2h154c19 -28 43 -71 55 -99l66 20c-18 28 -38 56 -54 79h146v55h-256v65h213v51h-213v69h271zM754 495l44 -32c40 25 87 65 110 93l-46 37
c-21 -29 -68 -70 -108 -98zM296 478l14 68l-87 34v286c0 38 -8 57 -31 69c-23 11 -59 13 -115 13c-3 -18 -12 -46 -21 -66c39 1 75 1 85 0c12 0 17 -3 17 -16v-260c-33 13 -66 26 -95 36l-21 -71c33 -11 73 -25 116 -42v-216h-106v-69h106v-200h65v200h82v69h-82v193z
M820 685l54 26c-24 42 -57 81 -93 116c25 52 55 77 87 77c17 0 27 -22 33 -87c13 13 32 22 47 28c-11 90 -35 119 -85 120c-54 0 -99 -33 -132 -96c-40 30 -84 57 -129 77c-8 -11 -26 -29 -38 -40c51 -23 100 -52 144 -89c-15 -43 -28 -94 -37 -154h-142v68l110 -15l2 54
l-112 17v100c0 36 -8 51 -33 61c-26 9 -67 10 -128 10c-3 -17 -12 -40 -21 -57c45 1 88 1 100 1c12 -1 16 -4 16 -16v-89c-49 7 -95 14 -136 19l-9 -59c40 -4 90 -11 145 -18v-76h-144v-57h144v-68c-36 5 -72 10 -106 13c-3 -13 -10 -33 -17 -47c87 -10 190 -28 248 -48
l43 46c-30 10 -65 19 -102 26v78h135c-5 -44 -8 -92 -10 -144h64c1 53 5 101 9 144h211v57h-203c7 41 14 76 24 107c25 -26 45 -54 61 -85z" />
</svg>
