<?xml version="1.0" standalone="no"?>
<!DOCTYPE svg PUBLIC "-//W3C//DTD SVG 1.1//EN" "http://www.w3.org/Graphics/SVG/1.1/DTD/svg11.dtd" >
<svg xmlns="http://www.w3.org/2000/svg" xmlns:xlink="http://www.w3.org/1999/xlink" version="1.1" viewBox="-10 0 1010 1000">
   <path fill="currentColor"
d="M420 179v77h-65v-134h248c-11 -22 -24 -45 -37 -64l61 -23c20 26 40 61 52 87h246v134h-67v-77h-438zM316 545l-87 39v290c0 39 -9 56 -33 67c-23 11 -59 13 -119 13c-3 -17 -12 -45 -21 -63c42 1 79 1 90 0c13 0 17 -4 17 -17v-260c-33 14 -65 28 -94 41l-22 -69
c33 -12 73 -29 116 -47v-226h-107v-69h107v-200h66v200h83v69h-83v197l72 -31zM475 705h127v-83h70v83h120c-30 -35 -57 -76 -77 -117h-163c-20 41 -48 81 -77 117zM574 456v68h127v-68h-127zM574 332v68h127v-68h-127zM799 767h-127v104h249v63h-580v-63h261v-104h-137v-50
c-33 37 -70 71 -106 93c-11 -17 -31 -41 -46 -54c63 -33 127 -98 170 -168h-129v-64h154v-68h-110v-56h110v-68h-115v-56h115v-58h66v58h127v-58h66v58h115v56h-115v68h97v56h-97v68h165v64h-150c42 68 105 129 172 160c-16 14 -36 39 -46 56c-38 -21 -76 -54 -109 -91v54z
" />
</svg>
