<?xml version="1.0" standalone="no"?>
<!DOCTYPE svg PUBLIC "-//W3C//DTD SVG 1.1//EN" "http://www.w3.org/Graphics/SVG/1.1/DTD/svg11.dtd" >
<svg xmlns="http://www.w3.org/2000/svg" xmlns:xlink="http://www.w3.org/1999/xlink" version="1.1" viewBox="-10 0 1010 1000">
   <path fill="currentColor"
d="M502 240v-63h-145v-57h145v-76h69v76h156v-76h70v76h156v57h-156v63h-70v-63h-156v63h-69zM936 406h-65v-93h-444v93h-62v-146h571v146zM820 419h-341v-50h341v50zM323 543l-94 36v287c0 38 -8 57 -31 69c-24 11 -60 13 -117 13c-3 -18 -12 -46 -21 -66c40 1 76 1 86 0
c12 0 17 -3 17 -16v-262l-99 38l-22 -71c35 -11 76 -25 121 -42v-216h-111v-69h111v-199h66v199h81v69h-81v192l81 -30zM880 547l44 47c-33 20 -72 41 -111 60c25 92 76 175 150 209c-15 13 -36 37 -46 55c-79 -45 -131 -135 -158 -237c-18 8 -37 15 -54 23
c35 95 19 189 -28 225c-26 22 -49 28 -85 28c-19 0 -43 0 -67 -2c-1 -17 -8 -42 -19 -59c29 3 54 4 74 4c19 0 36 -1 51 -16c24 -18 35 -67 24 -126c-86 64 -214 127 -323 159c-7 -14 -22 -39 -34 -52c119 -28 263 -95 341 -160c-6 -15 -12 -28 -21 -43
c-68 47 -167 95 -249 121c-7 -14 -21 -37 -31 -50c84 -20 190 -65 253 -109c-11 -13 -23 -25 -37 -36c-57 30 -119 54 -176 73c-6 -11 -23 -35 -34 -46c77 -21 164 -52 228 -90h-212v-53h584v53h-290c-16 12 -32 23 -51 35c34 29 61 61 79 95c68 -30 148 -74 198 -108z" />
</svg>
