<?xml version="1.0" standalone="no"?>
<!DOCTYPE svg PUBLIC "-//W3C//DTD SVG 1.1//EN" "http://www.w3.org/Graphics/SVG/1.1/DTD/svg11.dtd" >
<svg xmlns="http://www.w3.org/2000/svg" xmlns:xlink="http://www.w3.org/1999/xlink" version="1.1" viewBox="-10 0 1010 1000">
   <path fill="currentColor"
d="M314 542l-96 37v289c0 37 -8 55 -30 67c-22 11 -57 13 -113 13c-2 -17 -11 -45 -19 -64c38 1 73 1 83 0c12 0 16 -3 16 -16v-264l-92 35l-21 -68c33 -11 71 -25 113 -40v-219h-103v-68h103v-200h63v200h85v68h-85v196l82 -32zM463 729l53 18c-31 61 -81 120 -130 157
c-11 -13 -28 -30 -44 -40c48 -33 96 -85 121 -135zM730 759l45 -28c40 44 85 101 107 139l-48 34c-21 -40 -66 -100 -104 -145zM657 654h172c-43 -30 -85 -66 -114 -101h-172c-28 37 -67 72 -109 101h163v-75h60v75zM574 442v57h117v-57h-117zM574 328v59h117v-59h-117z
M396 274h117v-60h61v60h117v-60h61v60h114v-89h-470v89zM934 553h-149c50 42 120 81 180 102c-14 12 -34 35 -43 52c-29 -13 -59 -30 -89 -50v54h-176v176c0 34 -6 50 -30 59c-23 10 -60 10 -120 10c-3 -17 -11 -40 -18 -57c42 2 82 1 92 1c12 0 16 -4 16 -15v-174h-180v-46
c-29 18 -60 35 -90 49c-5 -14 -20 -45 -29 -59c61 -24 127 -59 173 -102h-131v-54h173v-57h-106v-55h106v-59h-117v-50h-61v-149h264c-11 -25 -26 -52 -41 -74l61 -19c20 28 40 65 53 93h257v148h-59v51h-118v59h106v55h-106v57h182v54z" />
</svg>
