<?xml version="1.0" standalone="no"?>
<!DOCTYPE svg PUBLIC "-//W3C//DTD SVG 1.1//EN" "http://www.w3.org/Graphics/SVG/1.1/DTD/svg11.dtd" >
<svg xmlns="http://www.w3.org/2000/svg" xmlns:xlink="http://www.w3.org/1999/xlink" version="1.1" viewBox="-10 0 1010 1000">
   <path fill="currentColor"
d="M452 494l42 22c-64 244 -225 377 -410 442c-7 -19 -22 -46 -35 -61c83 -25 164 -69 229 -132c-24 -26 -61 -57 -95 -80l47 -36c32 19 67 45 92 70c38 -45 68 -98 90 -158h-144c-47 55 -106 107 -179 151c-9 -17 -27 -41 -41 -51c122 -68 204 -164 244 -248
c-58 54 -124 94 -192 122c-8 -16 -24 -42 -37 -55c60 -23 118 -56 171 -100c-24 -24 -58 -51 -87 -71l46 -35c29 16 61 41 86 63c38 -40 70 -85 93 -136h-154c-36 44 -77 85 -127 123c-10 -16 -30 -39 -44 -48c96 -66 163 -158 197 -234l64 14c-13 27 -29 56 -46 83h142
l12 -3l42 23c-36 105 -93 188 -164 253l65 13c-13 25 -27 49 -43 72h124zM845 483h-226c25 79 61 154 107 218c52 -60 92 -133 119 -218zM886 415l44 22c-32 130 -88 235 -158 318c55 59 119 105 194 135c-16 14 -37 42 -48 61c-75 -33 -139 -82 -195 -145
c-70 68 -153 117 -241 152c-9 -17 -31 -49 -45 -61c90 -33 173 -81 241 -145c-52 -74 -94 -160 -123 -255l46 -14h-82v-65h170v-153h-189v-67h189v-153h68v153h183v67h-183v153h116z" />
</svg>
