<?xml version="1.0" standalone="no"?>
<!DOCTYPE svg PUBLIC "-//W3C//DTD SVG 1.1//EN" "http://www.w3.org/Graphics/SVG/1.1/DTD/svg11.dtd" >
<svg xmlns="http://www.w3.org/2000/svg" xmlns:xlink="http://www.w3.org/1999/xlink" version="1.1" viewBox="-10 0 1010 1000">
   <path fill="currentColor"
d="M510 319l-48 52c-37 -58 -114 -141 -187 -209c-58 96 -133 189 -211 257c-6 -18 -22 -49 -32 -66c92 -79 183 -208 228 -314l68 24c-6 15 -14 30 -22 45c78 66 163 152 204 211zM203 331l50 -34c41 41 82 97 101 137l-54 39c-18 -39 -58 -100 -97 -142zM425 510l50 17
c-47 115 -125 291 -190 423l-69 -20c54 -106 118 -248 160 -347h-293v-69h330zM837 474h-238c25 88 65 170 117 238c53 -64 94 -143 121 -238zM879 404l47 19c-32 144 -88 258 -162 344c55 57 122 100 198 128c-18 14 -39 43 -50 62c-77 -31 -143 -77 -199 -136
c-68 63 -145 108 -231 140c-9 -16 -36 -46 -52 -59c90 -30 169 -75 236 -137c-59 -77 -103 -171 -134 -277l55 -14h-92v-67h150v-363h73v140h232v67h-232v156h147z" />
</svg>
