<?xml version="1.0" standalone="no"?>
<!DOCTYPE svg PUBLIC "-//W3C//DTD SVG 1.1//EN" "http://www.w3.org/Graphics/SVG/1.1/DTD/svg11.dtd" >
<svg xmlns="http://www.w3.org/2000/svg" xmlns:xlink="http://www.w3.org/1999/xlink" version="1.1" viewBox="-10 0 1010 1000">
   <path fill="currentColor"
d="M502 210h-310c-30 71 -66 136 -105 185c-12 -11 -41 -33 -57 -44c66 -75 115 -189 143 -308l69 15c-8 28 -16 58 -26 85h286v67zM461 357h-292v-66h292v66zM833 458h-221c27 84 65 165 114 233c46 -66 83 -145 107 -233zM871 389l46 17c-27 138 -77 253 -143 345
c53 59 115 107 184 137c-16 14 -39 41 -50 61c-67 -34 -127 -82 -179 -141c-56 62 -120 112 -188 148c-9 -16 -26 -42 -41 -57c-15 17 -34 21 -56 12c-69 -23 -75 -226 -74 -397h-292v-67h363c-2 179 1 389 27 398c10 3 17 -65 18 -145c14 15 34 35 47 42
c-2 74 -12 121 -26 147c63 -31 123 -79 175 -140c-57 -80 -101 -175 -133 -278l48 -13h-96v-66h162v-349h72v145h206v67h-206v137h123z" />
</svg>
