<?xml version="1.0" standalone="no"?>
<!DOCTYPE svg PUBLIC "-//W3C//DTD SVG 1.1//EN" "http://www.w3.org/Graphics/SVG/1.1/DTD/svg11.dtd" >
<svg xmlns="http://www.w3.org/2000/svg" xmlns:xlink="http://www.w3.org/1999/xlink" version="1.1" viewBox="-10 0 1010 1000">
   <path fill="currentColor"
d="M266 363h-101v238h101v-238zM327 661h-162v68h-61v-426h223v358zM538 178h-73v681c0 46 -12 67 -41 78c-31 12 -83 14 -163 14c-3 -20 -14 -51 -23 -71c62 2 119 1 137 1c16 -1 22 -5 22 -22v-681h-343v-66h484v66zM843 460h-222c27 84 64 162 111 229
c48 -64 86 -142 111 -229zM881 388l45 20c-29 137 -82 249 -149 339c52 60 114 109 183 141c-16 14 -37 42 -48 63c-68 -36 -128 -88 -181 -149c-63 69 -136 121 -213 158c-8 -20 -27 -48 -41 -63c76 -33 148 -83 210 -152c-54 -79 -97 -171 -128 -272l37 -13h-77v-69h153
v-348h68v155h203v68h-203v125h129z" />
</svg>
