<?xml version="1.0" standalone="no"?>
<!DOCTYPE svg PUBLIC "-//W3C//DTD SVG 1.1//EN" "http://www.w3.org/Graphics/SVG/1.1/DTD/svg11.dtd" >
<svg xmlns="http://www.w3.org/2000/svg" xmlns:xlink="http://www.w3.org/1999/xlink" version="1.1" viewBox="-10 0 1010 1000">
   <path fill="currentColor"
d="M242 737l42 -13c28 60 57 139 71 185l-45 18c-14 -48 -43 -129 -68 -190zM832 455h-208c23 81 58 158 102 223c45 -64 82 -139 106 -223zM168 412h137c-4 -73 -7 -150 -9 -233c-43 9 -86 17 -128 23v210zM874 383l45 21c-30 131 -82 243 -148 334c54 62 119 111 194 142
c-16 13 -37 42 -47 60c-74 -34 -138 -84 -191 -146c-56 64 -119 115 -185 152c-9 -17 -32 -48 -47 -61c-12 20 -25 27 -39 27c-87 -1 -127 -174 -146 -431h-142v358l75 -22c1 18 4 41 7 55c-119 41 -141 52 -153 62c-5 -17 -18 -48 -28 -62c13 -10 33 -29 33 -72v-650
c121 -19 266 -50 348 -84l46 59c-39 15 -85 28 -135 40c1 87 4 170 8 247h125v69h-120c15 203 43 341 81 342c14 0 25 -49 30 -135c12 15 37 32 49 39c-10 82 -24 131 -39 158c68 -37 132 -86 187 -150c-53 -76 -93 -167 -123 -267l52 -13h-96v-69h150v-342h71v138h208v68
h-208v136h125z" />
</svg>
