<?xml version="1.0" standalone="no"?>
<!DOCTYPE svg PUBLIC "-//W3C//DTD SVG 1.1//EN" "http://www.w3.org/Graphics/SVG/1.1/DTD/svg11.dtd" >
<svg xmlns="http://www.w3.org/2000/svg" xmlns:xlink="http://www.w3.org/1999/xlink" version="1.1" viewBox="-10 0 1010 1000">
   <path fill="currentColor"
d="M165 473v-86h54v418h-54v-101c-32 20 -66 39 -98 58l-19 -55c32 -16 73 -40 117 -66v-114h-109v-54h109zM529 340h-189v616h-63v-616h-210v-57h210v-110c-62 8 -126 15 -185 20c-1 -15 -9 -38 -16 -53c143 -13 315 -38 410 -70l43 52c-53 17 -118 31 -189 42v119h189v57z
M459 707h33c12 0 15 -8 16 -63c12 9 32 17 48 21c-5 72 -20 92 -57 92h-49c-47 0 -59 -14 -59 -71v-298h54v128c31 -18 59 -40 79 -61l40 46c-33 29 -79 54 -119 74v111c0 19 2 21 14 21zM876 391l42 15c-26 129 -71 238 -129 326c51 62 112 111 182 144
c-14 12 -35 38 -45 55c-67 -35 -126 -84 -177 -146c-57 71 -124 125 -196 162c-9 -18 -26 -43 -39 -56c71 -33 138 -87 194 -159c-51 -76 -90 -165 -119 -263l59 -16c22 81 57 157 100 223c40 -65 73 -140 93 -223h-295v-59h140v-351h64v138h196v59h-196v154h114z" />
</svg>
