<?xml version="1.0" standalone="no"?>
<!DOCTYPE svg PUBLIC "-//W3C//DTD SVG 1.1//EN" "http://www.w3.org/Graphics/SVG/1.1/DTD/svg11.dtd" >
<svg xmlns="http://www.w3.org/2000/svg" xmlns:xlink="http://www.w3.org/1999/xlink" version="1.1" viewBox="-10 0 1010 1000">
   <path fill="currentColor"
d="M486 164v68h-409v-68h188c-11 -33 -26 -74 -41 -106l61 -18c20 39 42 90 52 124h149zM252 409l-63 19c-8 -43 -33 -110 -56 -160l59 -16c27 49 50 114 60 157zM501 430v69h-448v-69h247c26 -54 55 -133 71 -188l68 17c-21 57 -47 121 -71 171h133zM394 655h-224v181h224
v-181zM102 950v-362h362v354h-70v-40h-224v48h-68zM837 469h-188c23 73 56 145 96 209c39 -60 71 -130 92 -209zM876 399l44 20c-28 126 -75 232 -134 319c52 66 113 122 181 156c-17 14 -38 40 -48 58c-66 -38 -125 -92 -176 -159c-60 72 -130 127 -205 166
c-8 -18 -30 -47 -44 -60c78 -37 149 -92 209 -163c-49 -77 -89 -163 -117 -255l40 -12h-81v-67h140v-358h68v146h188v68h-188v144h111z" />
</svg>
