<?xml version="1.0" standalone="no"?>
<!DOCTYPE svg PUBLIC "-//W3C//DTD SVG 1.1//EN" "http://www.w3.org/Graphics/SVG/1.1/DTD/svg11.dtd" >
<svg xmlns="http://www.w3.org/2000/svg" xmlns:xlink="http://www.w3.org/1999/xlink" version="1.1" viewBox="-10 0 1010 1000">
   <path fill="currentColor"
d="M648 298l-2 5c18 109 46 211 84 300c38 -86 64 -188 80 -305h-162zM423 611v-133h-98v45c0 28 -2 58 -6 88h104zM151 611h101c5 -30 6 -61 6 -90v-43h-107v133zM957 298h-76c-24 152 -58 279 -112 385c51 89 116 160 198 203c-17 15 -38 46 -49 65
c-78 -46 -140 -114 -190 -198c-55 84 -124 151 -216 205c-7 -17 -28 -50 -42 -67c96 -51 167 -120 220 -209c-37 -81 -66 -174 -88 -274c-19 38 -40 72 -61 101c-12 -12 -39 -34 -56 -46v203h-176l-2 10c65 41 137 101 175 141l-42 52c-34 -38 -96 -93 -153 -133
c-35 79 -96 154 -203 213c-9 -14 -32 -40 -46 -50c123 -64 178 -149 202 -233h-149v-245h167v-71h-109v-52c-24 21 -47 38 -71 55c-8 -14 -29 -44 -43 -58c97 -60 193 -156 246 -261l62 22c-5 11 -11 21 -17 32c70 47 155 111 197 154l-39 56c-41 -44 -121 -109 -192 -159
c-38 55 -84 106 -132 149h273v62h-108v71h160v38c77 -98 128 -253 157 -416l69 12c-10 59 -24 117 -41 172h287v71z" />
</svg>
