<?xml version="1.0" standalone="no"?>
<!DOCTYPE svg PUBLIC "-//W3C//DTD SVG 1.1//EN" "http://www.w3.org/Graphics/SVG/1.1/DTD/svg11.dtd" >
<svg xmlns="http://www.w3.org/2000/svg" xmlns:xlink="http://www.w3.org/1999/xlink" version="1.1" viewBox="-10 0 1010 1000">
   <path fill="currentColor"
d="M159 271v231c0 134 -10 326 -74 455c-11 -12 -37 -30 -51 -37c59 -122 64 -293 64 -418v-286h174v-172h66v68h189v51h-189v53h181l11 -3l39 11c-12 45 -29 93 -47 127l-49 -15c8 -18 17 -41 24 -65h-176v51l116 -11l4 44l-120 13v27c0 20 5 22 33 22h101
c21 0 26 -6 28 -49c12 10 35 17 51 20c-6 61 -23 78 -71 78h-115c-69 0 -87 -14 -87 -71v-20l-64 7l-4 -46l68 -7v-58h-102zM272 782v71c55 -9 116 -19 179 -29v-42h-179zM451 560h-179v65h179v-65zM451 733v-58h-179v58h179zM551 808l4 53c-142 26 -291 51 -396 69l-13 -59
l68 -10v-358h297v312zM838 471h-181c20 76 50 147 87 209c40 -62 71 -132 94 -209zM876 399l41 21c-29 124 -75 230 -132 319c51 67 113 119 187 152c-16 14 -35 42 -45 61c-72 -36 -133 -89 -184 -154c-52 66 -112 120 -173 159c-9 -17 -31 -47 -44 -58
c64 -39 125 -92 177 -159c-46 -75 -81 -162 -107 -256l49 -13h-89v-69h143v-358h66v151h184v62h-184v145h99z" />
</svg>
