<?xml version="1.0" standalone="no"?>
<!DOCTYPE svg PUBLIC "-//W3C//DTD SVG 1.1//EN" "http://www.w3.org/Graphics/SVG/1.1/DTD/svg11.dtd" >
<svg xmlns="http://www.w3.org/2000/svg" xmlns:xlink="http://www.w3.org/1999/xlink" version="1.1" viewBox="-10 0 1010 1000">
   <path fill="currentColor"
d="M114 199v96h-64v-159h230c-11 -27 -24 -59 -36 -83l66 -17c15 30 33 69 46 100h216v159h-67v-96h-391zM461 470h-122v85h122v-85zM461 697v-87h-122v87h122zM155 610v87h118v-87h-118zM155 470v85h118v-85h-118zM92 412h181v-74h-152v-61h378v61h-160v74h187v343h-434
v-343zM214 775l67 22c-48 61 -121 126 -185 167c-11 -12 -37 -37 -53 -48c64 -37 132 -89 171 -141zM351 800l55 -29c45 43 104 104 133 142l-58 34c-27 -39 -84 -102 -130 -147zM839 293h-151c-2 8 -5 16 -7 24c17 111 43 217 79 309c39 -94 64 -206 79 -333zM957 293h-45
c-22 165 -56 303 -113 416c44 83 99 148 170 191c-17 12 -39 39 -50 57c-66 -42 -118 -102 -161 -176c-46 71 -104 129 -176 178c-8 -15 -30 -48 -44 -62c78 -48 138 -112 183 -189c-36 -82 -64 -176 -84 -278c-16 34 -34 65 -52 92c-11 -11 -39 -37 -56 -49
c73 -101 118 -263 141 -430l71 10c-9 58 -21 116 -34 170h250v70z" />
</svg>
