<?xml version="1.0" standalone="no"?>
<!DOCTYPE svg PUBLIC "-//W3C//DTD SVG 1.1//EN" "http://www.w3.org/Graphics/SVG/1.1/DTD/svg11.dtd" >
<svg xmlns="http://www.w3.org/2000/svg" xmlns:xlink="http://www.w3.org/1999/xlink" version="1.1" viewBox="-10 0 1010 1000">
   <path fill="currentColor"
d="M387 414v35c-7 315 -13 422 -34 456c-15 22 -31 29 -55 33c-20 3 -55 3 -89 1c-1 -22 -9 -52 -19 -72c35 4 64 4 78 4c12 0 19 -2 25 -13c15 -22 21 -115 27 -376h-117c-10 202 -37 367 -119 477c-11 -18 -33 -42 -50 -55c97 -129 104 -351 107 -623h-97l-1 -69h207
c-22 -37 -68 -98 -104 -140l56 -33c36 41 84 99 106 137l-54 36h161v68l-207 1c-1 46 -1 91 -3 134l142 -1v1zM491 477l68 14c-22 104 -61 235 -119 316c-15 -11 -40 -28 -56 -36c57 -77 92 -199 107 -294zM637 848v-511h69v512c0 44 -9 67 -36 79c-29 13 -74 14 -141 14
c-4 -22 -15 -55 -24 -76c52 1 99 1 113 0c14 0 19 -4 19 -18zM768 501l59 -23c54 96 106 222 121 306l-63 26c-14 -81 -63 -210 -117 -309zM663 43l55 39c-5 10 -11 20 -16 31c58 100 165 199 269 243c-17 16 -39 47 -49 68c-96 -49 -191 -146 -255 -252
c-66 100 -155 197 -238 254c-12 -20 -32 -46 -50 -62c109 -63 227 -198 284 -321z" />
</svg>
