<?xml version="1.0" standalone="no"?>
<!DOCTYPE svg PUBLIC "-//W3C//DTD SVG 1.1//EN" "http://www.w3.org/Graphics/SVG/1.1/DTD/svg11.dtd" >
<svg xmlns="http://www.w3.org/2000/svg" xmlns:xlink="http://www.w3.org/1999/xlink" version="1.1" viewBox="-10 0 1010 1000">
   <path fill="currentColor"
d="M463 505v-219c-105 84 -236 147 -365 190c-11 -15 -36 -44 -52 -58c175 -50 342 -135 445 -251h-414v-67h850v67h-345c-15 19 -30 37 -47 55v283h-72zM742 600h-481v84h481v-84zM261 842h481v-96h-481v96zM189 958v-425h626v421h-73v-50h-481v54h-72zM558 289l49 -49
c112 48 251 125 329 177l-48 53c-76 -53 -216 -133 -330 -181z" />
</svg>
