<?xml version="1.0" standalone="no"?>
<!DOCTYPE svg PUBLIC "-//W3C//DTD SVG 1.1//EN" "http://www.w3.org/Graphics/SVG/1.1/DTD/svg11.dtd" >
<svg xmlns="http://www.w3.org/2000/svg" xmlns:xlink="http://www.w3.org/1999/xlink" version="1.1" viewBox="-10 0 1010 1000">
   <path fill="currentColor"
d="M236 49l68 19c-21 66 -48 133 -78 196v693h-71v-560c-29 49 -62 94 -94 133c-7 -18 -27 -57 -39 -76c86 -99 166 -251 214 -405zM828 582h-293v93h293v-93zM535 837h293v-102h-293v102zM465 955v-434h435v428h-72v-50h-293v56h-70zM581 193l-13 18c27 42 65 83 114 120
c51 -39 95 -85 127 -138h-228zM862 130l45 24c-38 87 -98 158 -169 216c66 39 145 72 238 90c-13 14 -32 42 -41 60c-99 -24 -183 -64 -252 -111c-84 56 -180 95 -275 121c-8 -16 -21 -37 -33 -52v314h-66v-630h66v309c87 -20 177 -55 254 -103c-41 -35 -75 -72 -101 -110
c-30 33 -64 63 -96 88c-12 -13 -40 -36 -56 -47c90 -59 170 -152 215 -256l67 18c-11 25 -23 48 -37 72h228z" />
</svg>
