<?xml version="1.0" standalone="no"?>
<!DOCTYPE svg PUBLIC "-//W3C//DTD SVG 1.1//EN" "http://www.w3.org/Graphics/SVG/1.1/DTD/svg11.dtd" >
<svg xmlns="http://www.w3.org/2000/svg" xmlns:xlink="http://www.w3.org/1999/xlink" version="1.1" viewBox="-10 0 1010 1000">
   <path fill="currentColor"
d="M872 85v300h-475v-57h404v-65h-372v-58h372v-63h-396v-57h467zM255 180h-114v221h114v-221zM141 695h114v-229h-114v229zM318 113v648h-177v80h-60v-728h237zM934 580h-67v-91h-187v96h197v225c0 32 -5 49 -26 60c-22 11 -53 12 -101 12c-2 -19 -12 -44 -20 -61h69
c9 -1 11 -3 11 -12v-160h-130v307h-68v-307h-127v235h-67v-299h194v-96h-189v91h-64v-149h575v149z" />
</svg>
