<?xml version="1.0" standalone="no"?>
<!DOCTYPE svg PUBLIC "-//W3C//DTD SVG 1.1//EN" "http://www.w3.org/Graphics/SVG/1.1/DTD/svg11.dtd" >
<svg xmlns="http://www.w3.org/2000/svg" xmlns:xlink="http://www.w3.org/1999/xlink" version="1.1" viewBox="-10 0 1010 1000">
   <path fill="currentColor"
d="M791 245v-95h-307v95h307zM791 401v-97h-307v97h307zM864 87v377h-451v-377h451zM262 179h-123v222h123v-222zM139 695h123v-229h-123v229zM325 761h-186v80h-61v-728h247v648zM445 619v242h88v-242h-88zM681 619h-89v242h89v-242zM830 619h-90v242h90v-242zM901 861h55
v67h-653v-67h73v-308h525v308z" />
</svg>
