<?xml version="1.0" standalone="no"?>
<!DOCTYPE svg PUBLIC "-//W3C//DTD SVG 1.1//EN" "http://www.w3.org/Graphics/SVG/1.1/DTD/svg11.dtd" >
<svg xmlns="http://www.w3.org/2000/svg" xmlns:xlink="http://www.w3.org/1999/xlink" version="1.1" viewBox="-10 0 1010 1000">
   <path fill="currentColor"
d="M273 179h-134v222h134v-222zM139 695h134v-229h-134v229zM336 113v648h-197v80h-61v-728h258zM816 563v105h137v64h-137v224h-73v-224h-157c-5 80 -37 172 -163 229c-11 -14 -32 -38 -46 -51c106 -43 131 -116 136 -178h-133v-64h134v-105h73v105h156v-105h73zM948 406
h-187c40 69 112 121 206 144c-16 13 -35 40 -46 57c-110 -33 -189 -104 -230 -201h-50c-38 90 -105 159 -234 203c-8 -15 -27 -40 -42 -52c105 -34 165 -85 198 -151h-179v-62h204c9 -32 16 -66 20 -103h71c-4 37 -10 71 -19 103h136c-20 -19 -46 -40 -70 -56l43 -31h-22
v-70h-163v70h-70v-70h-137v-60h137v-83h70v83h163v-83h71v83h135v60h-135v70h-46c31 21 70 50 89 72l-18 15h105v62z" />
</svg>
