<?xml version="1.0" standalone="no"?>
<!DOCTYPE svg PUBLIC "-//W3C//DTD SVG 1.1//EN" "http://www.w3.org/Graphics/SVG/1.1/DTD/svg11.dtd" >
<svg xmlns="http://www.w3.org/2000/svg" xmlns:xlink="http://www.w3.org/1999/xlink" version="1.1" viewBox="-10 0 1010 1000">
   <path fill="currentColor"
d="M253 179h-114v222h114v-222zM139 694h114v-228h-114v228zM315 113v648h-176v80h-61v-728h237zM622 545v338c0 34 -6 50 -31 61c-24 10 -64 11 -124 11c-2 -18 -11 -41 -20 -59c45 2 81 2 92 1c13 0 15 -4 15 -14v-88c-67 34 -133 68 -189 95l-31 -54
c56 -22 137 -59 220 -98v-137h-194v-56h262zM530 710l-46 36c-22 -28 -70 -73 -108 -103l43 -32c39 29 87 71 111 99zM796 448v-85h-288v85h288zM867 312v187h-427v-187h427zM926 545v337c0 35 -7 52 -33 62c-25 10 -67 11 -131 11c-3 -18 -11 -41 -20 -59c48 2 87 2 99 1
c13 0 16 -4 16 -15v-93c-69 35 -137 69 -194 96l-30 -54c57 -23 139 -59 224 -98v-132h-204v-56h273zM825 709l-46 36c-24 -28 -73 -70 -112 -100l44 -31c39 27 89 67 114 95zM530 210h260c-47 -25 -94 -54 -141 -87c-34 31 -75 61 -119 87zM645 36l63 25
c-5 7 -11 14 -17 21c87 59 185 100 283 131c-18 14 -40 38 -51 57c-41 -16 -82 -34 -121 -54v47h-291v-42c-42 23 -86 44 -130 61c-12 -17 -32 -39 -50 -53c123 -40 249 -113 314 -193z" />
</svg>
