<?xml version="1.0" standalone="no"?>
<!DOCTYPE svg PUBLIC "-//W3C//DTD SVG 1.1//EN" "http://www.w3.org/Graphics/SVG/1.1/DTD/svg11.dtd" >
<svg xmlns="http://www.w3.org/2000/svg" xmlns:xlink="http://www.w3.org/1999/xlink" version="1.1" viewBox="-10 0 1010 1000">
   <path fill="currentColor"
d="M642 86l53 16c-17 51 -36 110 -53 148l-42 -15c15 -40 34 -106 42 -149zM404 238l-46 13c-4 -40 -19 -101 -38 -147l43 -13c20 47 36 107 41 147zM231 179h-96v222h96v-222zM135 694h96v-228h-96v228zM288 113v648h-153v80h-55v-728h208zM568 340l57 12
c-14 43 -30 93 -44 132h86v57h-136v101h122v57h-122v116c44 -7 87 -13 131 -20l1 56c-121 21 -246 42 -341 58l-13 -65c45 -6 103 -13 165 -22v-123h-130v-57h130v-101h-142v-57h199c14 -43 30 -103 37 -144zM377 353l48 -12c15 38 26 90 28 122l-51 14
c-1 -33 -11 -85 -25 -124zM572 56v220h99v58h-351v-58h110v-220h48v220h47v-220h47zM956 249v68h-63v553c0 42 -8 61 -32 73s-64 14 -124 14c-3 -19 -13 -49 -22 -68c45 1 87 1 99 0c12 0 17 -4 17 -19v-553h-144v-68h144v-187h62v187h63zM809 703l-55 19
c-6 -61 -27 -164 -53 -243l51 -13c27 76 50 177 57 237z" />
</svg>
