<?xml version="1.0" standalone="no"?>
<!DOCTYPE svg PUBLIC "-//W3C//DTD SVG 1.1//EN" "http://www.w3.org/Graphics/SVG/1.1/DTD/svg11.dtd" >
<svg xmlns="http://www.w3.org/2000/svg" xmlns:xlink="http://www.w3.org/1999/xlink" version="1.1" viewBox="-10 0 1010 1000">
   <path fill="currentColor"
d="M687 201l-65 26c-12 -42 -45 -105 -79 -153l59 -23c36 47 70 109 85 150zM945 228v63h-443v-63h281l-21 -9c32 -44 72 -116 94 -167l68 26c-31 50 -66 108 -97 150h118zM637 549h-63v189h63v-189zM748 549h-64v189h64v-189zM861 549h-66v189h66v-189zM520 489h27
c-13 -12 -35 -28 -48 -36c51 -39 101 -96 130 -154l66 18c-33 63 -85 128 -135 172h322c-25 -44 -77 -113 -124 -162l58 -24c49 49 104 117 128 162l-52 24h24v249h35v63h-486v-63h55v-249zM136 546h105c2 -24 2 -48 2 -73v-26h-107v99zM136 299v96h107v-96h-107zM414 299
h-106v96h106v-96zM414 546v-99h-106v26c0 25 0 49 -2 73h108zM475 602h-173c-7 63 -21 123 -48 178c100 73 241 90 409 90c38 1 256 0 308 -1c-11 16 -23 47 -27 66h-282c-187 0 -333 -20 -441 -101c-31 45 -75 86 -134 123c-9 -16 -30 -40 -44 -51c57 -35 98 -75 127 -118
c-34 -37 -62 -83 -87 -141l54 -23c18 43 39 78 65 107c18 -40 28 -84 34 -129h-159v-359h166v-86h-189v-67h443v67h-189v86h167v359z" />
</svg>
