<?xml version="1.0" standalone="no"?>
<!DOCTYPE svg PUBLIC "-//W3C//DTD SVG 1.1//EN" "http://www.w3.org/Graphics/SVG/1.1/DTD/svg11.dtd" >
<svg xmlns="http://www.w3.org/2000/svg" xmlns:xlink="http://www.w3.org/1999/xlink" version="1.1" viewBox="-10 0 1010 1000">
   <path fill="currentColor"
d="M937 355l-57 35c-8 -20 -22 -45 -38 -71c-356 26 -396 27 -423 37c-3 -15 -13 -48 -22 -67c17 -3 36 -19 58 -43c25 -23 101 -112 152 -200l74 20c-52 79 -113 153 -171 212l294 -18c-24 -34 -49 -67 -74 -96l53 -30c61 67 128 159 154 221zM368 505l-43 53
c-11 -26 -39 -75 -63 -117v515h-68v-482c-32 109 -74 215 -119 280c-8 -22 -26 -54 -40 -72c62 -83 122 -241 152 -377h-127v-70h134v-192h68v192h106v70h-106v48c25 33 91 128 106 152zM806 374v149h129v68h-129v363h-70v-363h-151c-6 128 -39 265 -188 367
c-10 -15 -33 -40 -49 -51c132 -91 162 -207 168 -316h-134v-68h135v-147h69v147h150v-149h70z" />
</svg>
