<?xml version="1.0" standalone="no"?>
<!DOCTYPE svg PUBLIC "-//W3C//DTD SVG 1.1//EN" "http://www.w3.org/Graphics/SVG/1.1/DTD/svg11.dtd" >
<svg xmlns="http://www.w3.org/2000/svg" xmlns:xlink="http://www.w3.org/1999/xlink" version="1.1" viewBox="-10 0 1010 1000">
   <path fill="currentColor"
d="M259 305v47c26 35 100 150 116 178l-45 54c-13 -32 -44 -91 -71 -140v512h-68v-479c-31 108 -74 212 -117 277c-7 -22 -25 -54 -39 -71c60 -84 120 -242 149 -378h-134v-70h141v-192h68v192h110v70h-110zM806 617h-290v222h290v-222zM445 960v-410h434v407h-73v-51h-290
v54h-71zM639 45l69 18c-4 10 -9 21 -14 31c65 115 178 235 281 295c-19 14 -44 41 -57 59c-90 -62 -189 -173 -258 -287c-43 77 -98 148 -163 208h327v68h-338v-58c-31 28 -66 55 -102 79c-10 -14 -35 -38 -51 -49c142 -88 254 -224 306 -364z" />
</svg>
