<?xml version="1.0" standalone="no"?>
<!DOCTYPE svg PUBLIC "-//W3C//DTD SVG 1.1//EN" "http://www.w3.org/Graphics/SVG/1.1/DTD/svg11.dtd" >
<svg xmlns="http://www.w3.org/2000/svg" xmlns:xlink="http://www.w3.org/1999/xlink" version="1.1" viewBox="-10 0 1010 1000">
   <path fill="currentColor"
d="M887 46l41 62c-138 40 -352 68 -531 84c-2 -18 -11 -43 -19 -60c176 -19 387 -50 509 -86zM861 171l64 17c-24 76 -59 164 -88 221c-14 -9 -44 -22 -60 -28c31 -56 64 -138 84 -210zM720 373l-68 21c-11 -45 -35 -123 -57 -181l64 -14c22 56 49 131 61 174zM552 395
l-65 22c-13 -45 -45 -120 -73 -176l62 -19c28 55 61 130 76 173zM264 305v49c26 36 98 148 115 176l-44 53c-13 -31 -44 -90 -71 -139v512h-65v-490c-34 112 -78 221 -125 288c-7 -22 -25 -54 -38 -72c63 -83 125 -241 155 -377h-137v-70h145v-192h65v192h108v70h-108z
M440 657l56 -37c44 51 103 121 132 162l-59 42c-28 -42 -85 -114 -129 -167zM950 528v68h-125v267c0 43 -10 63 -41 74c-33 12 -85 13 -164 13c-4 -21 -16 -50 -27 -70c64 2 122 2 138 1c17 -1 22 -5 22 -19v-266h-366v-68h366v-96h72v96h125z" />
</svg>
