<?xml version="1.0" standalone="no"?>
<!DOCTYPE svg PUBLIC "-//W3C//DTD SVG 1.1//EN" "http://www.w3.org/Graphics/SVG/1.1/DTD/svg11.dtd" >
<svg xmlns="http://www.w3.org/2000/svg" xmlns:xlink="http://www.w3.org/1999/xlink" version="1.1" viewBox="-10 0 1010 1000">
   <path fill="currentColor"
d="M935 344l-62 25c-21 -43 -65 -106 -114 -163c35 -50 72 -112 92 -152l66 16c-24 45 -57 93 -84 135c40 46 81 101 102 139zM744 345l-64 25c-20 -44 -61 -107 -106 -165c35 -51 69 -112 88 -153l67 15c-23 46 -54 95 -80 137c37 47 74 103 95 141zM555 347l-64 26
c-20 -45 -60 -108 -106 -166c34 -52 71 -114 89 -155l67 15c-24 47 -54 96 -81 139c38 47 75 104 95 141zM349 522l-43 56c-11 -29 -36 -82 -60 -128v504h-65v-470c-30 108 -70 211 -110 275c-7 -22 -25 -57 -37 -77c57 -84 115 -241 141 -377h-124v-70h130v-192h65v192h105
v70h-105v49c24 37 87 141 103 168zM939 463h-318c-11 27 -27 53 -44 77h264l13 -3l48 20c-84 218 -287 343 -508 402c-8 -18 -26 -44 -41 -59c102 -23 200 -62 282 -119c-34 -29 -83 -63 -125 -88l44 -44c46 25 101 63 135 91c46 -39 84 -84 113 -136h-275
c-41 45 -88 84 -137 115c-10 -13 -34 -39 -49 -50c85 -47 161 -119 204 -206h-161v-64h555v64z" />
</svg>
