<?xml version="1.0" standalone="no"?>
<!DOCTYPE svg PUBLIC "-//W3C//DTD SVG 1.1//EN" "http://www.w3.org/Graphics/SVG/1.1/DTD/svg11.dtd" >
<svg xmlns="http://www.w3.org/2000/svg" xmlns:xlink="http://www.w3.org/1999/xlink" version="1.1" viewBox="-10 0 1010 1000">
   <path fill="currentColor"
d="M949 297l-66 31c-27 -64 -92 -167 -151 -243l61 -26c60 74 127 173 156 238zM559 61l69 19c-42 97 -107 197 -168 262c-13 -13 -42 -34 -60 -44c62 -59 121 -149 159 -237zM383 523l-45 53c-12 -30 -43 -88 -69 -136v516h-68v-488c-34 112 -79 219 -125 286
c-9 -22 -27 -54 -41 -72c65 -83 128 -241 158 -377h-140v-70h148v-192h68v192h103v70h-103v44c25 35 98 146 114 174zM515 581h328c-65 -63 -118 -134 -165 -228c-44 86 -100 164 -163 228zM552 849h254v-202h-254v202zM658 219l68 21c-5 13 -10 26 -15 38
c65 142 148 234 255 310c-17 14 -39 36 -50 57c-12 -10 -25 -21 -37 -31v339h-73v-36h-254v40h-70v-345c-16 13 -32 26 -49 38c-12 -18 -33 -41 -53 -56c124 -80 225 -221 278 -375z" />
</svg>
