<?xml version="1.0" standalone="no"?>
<!DOCTYPE svg PUBLIC "-//W3C//DTD SVG 1.1//EN" "http://www.w3.org/Graphics/SVG/1.1/DTD/svg11.dtd" >
<svg xmlns="http://www.w3.org/2000/svg" xmlns:xlink="http://www.w3.org/1999/xlink" version="1.1" viewBox="-10 0 1010 1000">
   <path fill="currentColor"
d="M372 539l-44 54c-14 -33 -48 -98 -77 -150v513h-66v-482c-31 108 -72 211 -114 275c-8 -20 -25 -52 -38 -70c59 -83 117 -240 145 -374h-125v-70h132v-192h66v192h109v70h-109v47c27 37 104 158 121 187zM471 544h131c10 -54 15 -110 19 -170h-150v170zM714 196h-169
c-22 39 -48 78 -77 115h168c27 -32 56 -75 78 -115zM845 544v-170h-154c-4 60 -9 116 -18 170h172zM756 875h108c26 0 32 -11 34 -88c15 12 42 21 62 26c-7 100 -27 126 -88 126h-124c-78 0 -98 -20 -98 -90v-204c-42 138 -126 249 -305 316c-9 -18 -29 -44 -44 -59
c176 -61 252 -165 288 -296h-184v-224l-5 5c-11 -15 -35 -37 -51 -46c95 -89 160 -207 193 -298l72 12c-10 25 -22 51 -34 77h173l13 -4l46 30c-25 51 -59 106 -93 153h196v295h-254l-6 21h64v221c0 23 6 27 37 27zM746 676l46 -32c39 35 85 85 106 120l-48 38
c-19 -36 -64 -88 -104 -126z" />
</svg>
