<?xml version="1.0" standalone="no"?>
<!DOCTYPE svg PUBLIC "-//W3C//DTD SVG 1.1//EN" "http://www.w3.org/Graphics/SVG/1.1/DTD/svg11.dtd" >
<svg xmlns="http://www.w3.org/2000/svg" xmlns:xlink="http://www.w3.org/1999/xlink" version="1.1" viewBox="-10 0 1010 1000">
   <path fill="currentColor"
d="M260 305v47c25 34 98 143 115 169l-45 53c-13 -30 -44 -86 -70 -133v515h-68v-488c-34 112 -79 219 -125 286c-9 -22 -27 -54 -41 -72c65 -83 128 -241 158 -377h-119v-70h127v-192h68v192h101v70h-101zM763 644h-172c-18 30 -35 59 -53 83c46 16 94 34 141 52
c39 -35 67 -79 84 -135zM701 343v158h-66l27 6c-11 23 -23 49 -36 73h321v64h-108c-20 67 -52 120 -94 163c72 30 137 62 184 92l-51 55c-46 -30 -114 -65 -189 -99c-74 51 -167 83 -277 105c-5 -18 -22 -48 -34 -64c94 -14 175 -35 238 -73c-59 -24 -120 -48 -176 -65
c25 -32 51 -72 76 -114h-135v-64h173c15 -30 30 -61 42 -88l36 8v-159c-58 73 -144 138 -220 174c-11 -16 -31 -41 -45 -52c77 -30 163 -88 218 -151h-198v-63h245v-85c-70 9 -141 16 -208 21c-1 -16 -10 -41 -18 -56c158 -14 348 -37 451 -69l55 52c-59 17 -133 32 -211 44
v93h249v63h-203c55 62 140 117 220 145c-16 12 -37 37 -47 54c-78 -34 -162 -98 -219 -168z" />
</svg>
