<?xml version="1.0" standalone="no"?>
<!DOCTYPE svg PUBLIC "-//W3C//DTD SVG 1.1//EN" "http://www.w3.org/Graphics/SVG/1.1/DTD/svg11.dtd" >
<svg xmlns="http://www.w3.org/2000/svg" xmlns:xlink="http://www.w3.org/1999/xlink" version="1.1" viewBox="-10 0 1010 1000">
   <path fill="currentColor"
d="M683 632v91h260v61h-260v172h-73v-172h-256v-61h256v-91h-197v-59h197v-88h-225v-61h143c-7 -28 -25 -69 -43 -100l60 -21c21 32 41 76 48 104l-46 17h145c18 -36 39 -83 51 -116l66 22c-15 33 -34 66 -51 94h156v61h-231v88h203v59h-203zM618 33l74 13
c-6 13 -12 25 -19 39c64 97 182 190 293 236c-16 13 -38 40 -49 57c-101 -47 -208 -135 -279 -232c-60 89 -148 174 -270 239c-9 -18 -28 -43 -43 -56c16 -7 30 -15 45 -24h-108v47c26 35 99 150 116 178l-45 53c-14 -32 -44 -91 -71 -140v513h-68v-490
c-34 113 -79 221 -126 288c-8 -22 -26 -54 -40 -72c64 -83 128 -241 158 -377h-133v-70h141v-192h68v192h126v59c119 -75 194 -173 230 -261z" />
</svg>
