<?xml version="1.0" standalone="no"?>
<!DOCTYPE svg PUBLIC "-//W3C//DTD SVG 1.1//EN" "http://www.w3.org/Graphics/SVG/1.1/DTD/svg11.dtd" >
<svg xmlns="http://www.w3.org/2000/svg" xmlns:xlink="http://www.w3.org/1999/xlink" version="1.1" viewBox="-10 0 1010 1000">
   <path fill="currentColor"
d="M934 132v60h-867v-60h228c-12 -25 -31 -54 -49 -75l67 -17c24 26 49 66 60 90l-7 2h255c20 -29 43 -66 56 -92l73 17c-17 26 -35 52 -53 75h237zM852 220v308c0 34 -7 48 -32 57c-23 8 -61 8 -117 8c-4 -16 -12 -37 -20 -52c41 1 77 1 88 0c12 0 15 -3 15 -14v-307h66z
M660 500h-64v-255h64v255zM201 451h218v-59h-218v59zM419 288h-218v58h218v-58zM942 698h-347c93 78 237 151 362 186c-17 14 -40 40 -52 58c-125 -43 -270 -123 -369 -213v226h-74v-232c-96 94 -242 177 -370 219c-12 -17 -35 -41 -50 -55c125 -36 265 -109 356 -189h-338
v-60h402v-58c-2 1 -4 2 -7 3c-20 9 -54 9 -100 9c-3 -16 -11 -34 -18 -48c33 1 60 1 70 1c10 -1 12 -4 12 -13v-36h-218v96h-63v-354h344v294c0 25 -4 37 -18 46h72v60h406v60z" />
</svg>
