<?xml version="1.0" standalone="no"?>
<!DOCTYPE svg PUBLIC "-//W3C//DTD SVG 1.1//EN" "http://www.w3.org/Graphics/SVG/1.1/DTD/svg11.dtd" >
<svg xmlns="http://www.w3.org/2000/svg" xmlns:xlink="http://www.w3.org/1999/xlink" version="1.1" viewBox="-10 0 1010 1000">
   <path fill="currentColor"
d="M384 249h182c10 -27 20 -59 27 -87h-242v-63h582v63h-266c-11 30 -23 61 -34 87h271v262c0 30 -4 48 -25 59c-19 11 -50 11 -92 11c-3 -17 -12 -42 -19 -60c31 1 54 1 63 0c9 0 11 -2 11 -11v-203h-91v253h-56v-253h-92v258h-55v-258h-102v277h-62v-335zM356 538l-44 52
c-12 -32 -44 -94 -71 -145v511h-65v-475c-29 106 -68 208 -107 273c-8 -21 -24 -54 -36 -72c56 -83 111 -243 138 -379h-120v-68h125v-192h65v192h109v68h-109v51c26 38 98 154 115 184zM942 709h-270c51 102 147 163 292 186c-15 15 -33 42 -41 63
c-146 -32 -244 -100 -300 -214c-40 109 -121 179 -301 218c-6 -18 -23 -45 -36 -59c174 -34 244 -95 277 -194h-230v-64h244c3 -21 6 -44 8 -68h70c-2 24 -5 47 -8 68h295v64z" />
</svg>
