<?xml version="1.0" standalone="no"?>
<!DOCTYPE svg PUBLIC "-//W3C//DTD SVG 1.1//EN" "http://www.w3.org/Graphics/SVG/1.1/DTD/svg11.dtd" >
<svg xmlns="http://www.w3.org/2000/svg" xmlns:xlink="http://www.w3.org/1999/xlink" version="1.1" viewBox="-10 0 1010 1000">
   <path fill="currentColor"
d="M941 680h-346c93 81 236 157 362 193c-17 15 -40 44 -52 63c-125 -43 -270 -129 -369 -222v234h-74v-241c-96 98 -243 185 -371 230c-12 -19 -35 -46 -50 -61c125 -37 266 -113 357 -196h-339v-63h403v-75h74v75h405v63zM503 413v-55h215c-19 -31 -55 -73 -86 -103
l45 -31c37 31 77 74 95 106l-36 28h117l10 -4l47 21c-47 66 -113 151 -171 222l-61 -25c43 -50 91 -110 128 -159h-303zM679 45l62 19c-6 12 -12 23 -19 34c55 61 155 140 248 183c-16 12 -36 39 -48 55c-85 -46 -176 -127 -231 -190c-53 73 -123 137 -201 186
c-6 -6 -14 -16 -23 -25c-16 42 -34 85 -50 115l-50 -18c11 -26 25 -61 37 -95h-66v203c0 32 -5 48 -27 58c-21 11 -56 11 -105 11c-3 -18 -11 -41 -19 -58c35 1 66 1 76 1c10 -1 13 -3 13 -13v-148c-54 62 -129 121 -198 155c-7 -15 -21 -41 -32 -54
c73 -31 155 -92 205 -155h-189v-56h204c-34 -20 -73 -41 -108 -55l37 -37c27 10 57 25 86 39c28 -17 58 -41 83 -64h-272v-55h327l13 -4l43 32c-38 44 -91 88 -142 122c14 7 25 15 35 22h62l10 -4l41 14c86 -59 161 -139 198 -218z" />
</svg>
