<?xml version="1.0" standalone="no"?>
<!DOCTYPE svg PUBLIC "-//W3C//DTD SVG 1.1//EN" "http://www.w3.org/Graphics/SVG/1.1/DTD/svg11.dtd" >
<svg xmlns="http://www.w3.org/2000/svg" xmlns:xlink="http://www.w3.org/1999/xlink" version="1.1" viewBox="-10 0 1010 1000">
   <path fill="currentColor"
d="M825 258h-268v83h268v-83zM937 474v58h-449v-457h433v58h-364v71h337v191h-337v79h380zM414 126l61 25c-28 50 -61 108 -89 145l-49 -20c26 -41 60 -106 77 -150zM140 131l57 11c-13 60 -39 133 -74 178l-56 -24c33 -38 61 -107 73 -165zM470 468l-46 47
c-31 -38 -90 -93 -148 -138c-33 82 -88 143 -185 187c-7 -16 -26 -40 -41 -52c180 -77 199 -218 206 -458h67c-4 103 -10 189 -28 263c64 45 139 107 175 151zM941 682h-337c87 87 225 159 355 195c-16 15 -38 43 -50 62c-136 -44 -281 -131 -374 -233v251h-74v-255
c-92 103 -239 194 -370 241c-12 -19 -34 -47 -50 -62c124 -38 261 -114 348 -199h-329v-66h401v-65h74v65h406v66z" />
</svg>
