<?xml version="1.0" standalone="no"?>
<!DOCTYPE svg PUBLIC "-//W3C//DTD SVG 1.1//EN" "http://www.w3.org/Graphics/SVG/1.1/DTD/svg11.dtd" >
<svg xmlns="http://www.w3.org/2000/svg" xmlns:xlink="http://www.w3.org/1999/xlink" version="1.1" viewBox="-10 0 1010 1000">
   <path fill="currentColor"
d="M482 266v74h142v-74h-142zM482 137v75h142v-75h-142zM836 212v-75h-141v75h141zM836 340v-74h-141v74h141zM909 397h-498v-317h498v317zM947 534l-42 46c-43 -39 -131 -101 -198 -144l39 -39c67 40 156 99 201 137zM359 543l-29 36c-12 -30 -42 -87 -68 -135v512h-67
v-486c-33 111 -76 218 -122 284c-7 -22 -25 -54 -38 -72c63 -83 124 -241 154 -377h-137v-70h143v-192h67v192h115v70h-115v49c25 34 91 138 110 168c60 -29 121 -74 163 -122l60 22c-51 61 -123 125 -197 161zM542 644l-5 5c29 44 69 84 118 117c50 -34 92 -75 123 -122
h-236zM832 583l46 26c-38 79 -95 143 -164 195c73 40 160 69 252 85c-17 15 -37 42 -46 61c-98 -22 -189 -57 -266 -106c-83 50 -179 85 -278 110c-9 -17 -30 -44 -44 -57c95 -21 186 -51 265 -94c-43 -35 -79 -74 -110 -116c-27 20 -57 38 -91 56c-11 -15 -32 -35 -48 -44
c117 -55 199 -133 240 -199l72 12c-17 25 -36 50 -59 74h219z" />
</svg>
