<?xml version="1.0" standalone="no"?>
<!DOCTYPE svg PUBLIC "-//W3C//DTD SVG 1.1//EN" "http://www.w3.org/Graphics/SVG/1.1/DTD/svg11.dtd" >
<svg xmlns="http://www.w3.org/2000/svg" xmlns:xlink="http://www.w3.org/1999/xlink" version="1.1" viewBox="-10 0 1010 1000">
   <path fill="currentColor"
d="M658 244v4c0 95 -19 216 -109 302c-9 -13 -33 -34 -47 -42c81 -76 94 -179 94 -262v-152h244v346c0 22 0 35 3 39c3 3 7 4 12 4h19c5 0 12 -1 14 -4c3 -3 7 -10 9 -21c1 -14 2 -44 3 -82c12 9 30 18 45 22c-1 38 -4 81 -8 96c-5 15 -12 26 -22 33c-10 5 -24 8 -38 8h-36
c-16 0 -33 -4 -45 -15c-12 -12 -16 -26 -16 -87v-286h-122v92l50 -16c26 52 52 120 61 162l-54 22c-8 -42 -32 -110 -57 -163zM338 466l-13 -60c26 -6 58 -12 92 -21v-218h-81v-55h222v55h-79v202l81 -21l6 57c-80 23 -162 44 -228 61zM324 553l-35 55
c-12 -29 -38 -83 -62 -129v477h-62v-472c-27 107 -64 213 -101 278c-6 -21 -22 -55 -32 -73c50 -81 99 -233 123 -365h-103v-70h113v-211h62v211h81v70h-81v66c25 38 83 138 97 163zM931 671h-247c66 74 172 139 272 171c-16 13 -38 41 -49 60c-94 -38 -193 -108 -262 -188
v242h-64v-241c-67 79 -167 148 -260 185c-10 -15 -30 -41 -46 -55c98 -33 204 -100 266 -174h-233v-61h273v-86h64v86h286v61z" />
</svg>
