<?xml version="1.0" standalone="no"?>
<!DOCTYPE svg PUBLIC "-//W3C//DTD SVG 1.1//EN" "http://www.w3.org/Graphics/SVG/1.1/DTD/svg11.dtd" >
<svg xmlns="http://www.w3.org/2000/svg" xmlns:xlink="http://www.w3.org/1999/xlink" version="1.1" viewBox="-10 0 1010 1000">
   <path fill="currentColor"
d="M235 303v68c26 39 91 146 105 172l-38 55c-12 -31 -42 -90 -67 -139v497h-63v-491c-26 108 -62 212 -99 277c-8 -21 -24 -54 -34 -72c50 -82 99 -236 122 -367h-104v-68h115v-192h63v192h93v68h-93zM836 653l-43 43c-16 -28 -47 -66 -80 -101c6 77 -8 146 -34 175
c-21 24 -44 33 -76 33c-15 0 -37 -1 -59 -2c-1 -16 -6 -41 -14 -57c24 2 47 3 60 3c18 0 31 -2 42 -17c18 -18 29 -74 23 -140c-55 51 -128 102 -191 132c-7 -14 -22 -38 -34 -49c74 -29 164 -88 216 -144c-4 -19 -10 -38 -16 -58c-46 40 -108 82 -157 109
c-7 -14 -22 -35 -33 -47c53 -21 124 -66 169 -106c-9 -16 -20 -32 -32 -47c-33 21 -66 39 -97 54c-8 -10 -28 -32 -39 -42c64 -27 133 -65 184 -108h-166v-55h351v55h-114c-22 24 -49 46 -78 68c24 26 44 58 59 92c32 -29 68 -67 92 -94l47 35c-37 41 -82 80 -122 110l3 8
c52 44 112 107 139 150zM417 847h433v-698h-433v698zM354 86h562v862h-66v-39h-433v48h-63v-871z" />
</svg>
