<?xml version="1.0" standalone="no"?>
<!DOCTYPE svg PUBLIC "-//W3C//DTD SVG 1.1//EN" "http://www.w3.org/Graphics/SVG/1.1/DTD/svg11.dtd" >
<svg xmlns="http://www.w3.org/2000/svg" xmlns:xlink="http://www.w3.org/1999/xlink" version="1.1" viewBox="-10 0 1010 1000">
   <path fill="currentColor"
d="M798 376l-40 40c-23 -22 -57 -48 -95 -75c-40 30 -82 55 -121 75c-8 -10 -28 -33 -40 -43c38 -17 78 -39 115 -64c-37 -25 -76 -49 -112 -69l38 -35c38 19 79 45 119 70c28 -22 52 -46 72 -70l52 17c-21 29 -49 57 -79 84c36 24 68 50 91 70zM839 438v-246h-367v246h367z
M910 133v364h-507v-364h178c15 -29 30 -65 37 -90l83 14c-14 26 -30 52 -44 76h253zM373 520l-43 54c-13 -30 -44 -87 -70 -134v516h-67v-489c-34 112 -78 220 -124 287c-8 -22 -26 -54 -39 -72c63 -83 126 -241 156 -377h-133v-70h140v-192h67v192h116v70h-116v47
c25 34 97 142 113 168zM478 533v100h162v61h-162v160l154 -49c0 18 4 46 7 60c-187 68 -215 81 -231 93c-7 -18 -24 -50 -37 -64c15 -11 38 -36 38 -78v-283h69zM778 873h97c20 0 25 -10 28 -75c15 11 42 21 62 25c-7 90 -27 114 -84 114h-111c-75 0 -93 -20 -93 -92v-312
h69v140c55 -30 110 -67 143 -100l54 47c-56 42 -130 83 -197 114v110c0 25 5 29 32 29z" />
</svg>
