<?xml version="1.0" standalone="no"?>
<!DOCTYPE svg PUBLIC "-//W3C//DTD SVG 1.1//EN" "http://www.w3.org/Graphics/SVG/1.1/DTD/svg11.dtd" >
<svg xmlns="http://www.w3.org/2000/svg" xmlns:xlink="http://www.w3.org/1999/xlink" version="1.1" viewBox="-10 0 1010 1000">
   <path fill="currentColor"
d="M671 364v-127c-46 51 -107 100 -161 130c-10 -15 -28 -34 -43 -45c63 -28 137 -86 182 -144h-147v-54h169v-79h68v79h205v54h-186c52 50 131 102 196 128c-15 11 -34 33 -44 46c-54 -26 -119 -72 -171 -120v132h-68zM243 375v-126c-45 55 -105 109 -157 143
c-10 -14 -28 -35 -44 -47c65 -35 141 -103 185 -167h-166v-54h182v-79h67v79h168v54h-168v1c42 25 134 85 157 103l-45 50c-21 -21 -70 -60 -112 -92v135h-67zM528 672h-196v69h196v-69zM780 741v-69h-197v69h197zM445 862h345c74 0 85 -16 92 -109c17 11 44 20 64 24
c-12 118 -37 147 -154 147h-344c-141 0 -181 -18 -181 -103v-199h579v169h-514v30c0 33 17 41 113 41zM223 472v45h723v56h-723c-3 124 -23 268 -129 383c-11 -15 -35 -39 -52 -49c102 -111 113 -252 113 -365v-124c234 -1 532 -15 690 -48l32 53c-162 33 -430 48 -654 49z
" />
</svg>
