<?xml version="1.0" standalone="no"?>
<!DOCTYPE svg PUBLIC "-//W3C//DTD SVG 1.1//EN" "http://www.w3.org/Graphics/SVG/1.1/DTD/svg11.dtd" >
<svg xmlns="http://www.w3.org/2000/svg" xmlns:xlink="http://www.w3.org/1999/xlink" version="1.1" viewBox="-10 0 1010 1000">
   <path fill="currentColor"
d="M342 517l-41 61c-11 -28 -38 -76 -61 -119v498h-68v-439c-27 100 -63 193 -101 253c-9 -20 -26 -46 -38 -63c57 -87 109 -250 133 -385h-113v-68h119v-211h68v211h95v68h-95v47c23 30 88 124 102 147zM945 207h-526v264c0 145 -12 350 -93 486c-10 -12 -34 -34 -47 -41
c73 -129 81 -308 81 -445v-327h283c-15 -27 -35 -57 -55 -79l54 -25c28 31 58 73 73 104h230v63zM548 555h88c14 -27 23 -53 28 -79h-116v79zM548 352v76h120c1 -8 1 -15 1 -21v-55h-121zM847 428v-76h-121v56v20h121zM847 555v-79h-126c-4 26 -10 52 -21 79h147zM949 723
v63h-156v170h-64v-170h-290v-63h111c-10 -13 -30 -31 -43 -42c41 -22 71 -49 95 -75h-115v-305h164c10 -25 21 -54 27 -75l68 13l-31 62h195v305h-235c-26 42 -65 82 -122 117h176v-89h64v89h156z" />
</svg>
