<?xml version="1.0" standalone="no"?>
<!DOCTYPE svg PUBLIC "-//W3C//DTD SVG 1.1//EN" "http://www.w3.org/Graphics/SVG/1.1/DTD/svg11.dtd" >
<svg xmlns="http://www.w3.org/2000/svg" xmlns:xlink="http://www.w3.org/1999/xlink" version="1.1" viewBox="-10 0 1010 1000">
   <path fill="currentColor"
d="M928 132v60h-568v-60h249c-9 -25 -22 -52 -32 -74l66 -19c17 28 34 67 43 93h242zM585 317l-64 19c-8 -29 -29 -77 -49 -113l62 -15c21 34 43 80 51 109zM337 536l-36 56c-11 -30 -40 -88 -65 -135v499h-60v-497c-27 110 -64 217 -101 283c-8 -21 -23 -54 -34 -73
c50 -80 100 -233 124 -364h-106v-70h117v-192h60v192h99v70h-99v64c25 37 88 141 101 167zM718 750v108h226v60h-533v-60h242v-108h-179v-58h179v-99h-137c-15 27 -31 53 -47 74c-12 -8 -37 -21 -52 -27c42 -51 77 -123 99 -191l58 13c-8 24 -18 49 -29 72h108v-100h65v100
h202v59h-202v99h181v58h-181zM772 342h177v61h-528v55c0 135 -17 340 -103 487c-12 -10 -40 -28 -56 -34c82 -139 93 -328 93 -453v-116h349c27 -41 55 -98 72 -138l67 20c-22 40 -48 83 -71 118z" />
</svg>
