<?xml version="1.0" standalone="no"?>
<!DOCTYPE svg PUBLIC "-//W3C//DTD SVG 1.1//EN" "http://www.w3.org/Graphics/SVG/1.1/DTD/svg11.dtd" >
<svg xmlns="http://www.w3.org/2000/svg" xmlns:xlink="http://www.w3.org/1999/xlink" version="1.1" viewBox="-10 0 1010 1000">
   <path fill="currentColor"
d="M531 512h278v-38h-278v38zM809 395h-278v41h278v-41zM878 353v224c0 31 -6 44 -31 53c-22 9 -61 9 -124 9c-4 -16 -13 -35 -20 -49c43 1 80 1 90 1c12 -1 16 -4 16 -14v-25h-278v74h-69v-273h416zM930 273v43h-438v-43h186v-44h-126v-42h335v42h-142v44h185zM923 148
h-356c-40 75 -100 148 -185 206c-10 -15 -32 -33 -48 -42c72 -45 125 -104 162 -164h-118v-49h144c9 -21 17 -40 23 -60l65 9c-6 17 -12 34 -20 51h333v49zM160 147v504h-66v-565h220l11 -2l46 24c-28 61 -63 133 -93 192c67 59 87 109 88 155c0 42 -13 74 -40 89
c-13 9 -30 14 -47 16c-20 2 -46 2 -69 1c-1 -17 -9 -41 -19 -57c25 2 45 3 62 2c11 -1 21 -3 29 -7c14 -9 20 -26 20 -50c-1 -38 -22 -85 -90 -140c26 -53 53 -112 72 -162h-124zM943 753h-343c90 64 230 116 356 139c-15 13 -35 38 -45 56c-131 -32 -281 -98 -374 -179v187
h-75v-186c-96 78 -247 144 -373 177c-10 -17 -28 -41 -44 -54c122 -25 262 -77 354 -140h-341v-56h404v-53h75v53h406v56z" />
</svg>
