<?xml version="1.0" standalone="no"?>
<!DOCTYPE svg PUBLIC "-//W3C//DTD SVG 1.1//EN" "http://www.w3.org/Graphics/SVG/1.1/DTD/svg11.dtd" >
<svg xmlns="http://www.w3.org/2000/svg" xmlns:xlink="http://www.w3.org/1999/xlink" version="1.1" viewBox="-10 0 1010 1000">
   <path fill="currentColor"
d="M504 231v-67h-166v-61h166v-59h65v59h151v-59h60v59h147v61h-147v67h-60v-67h-151v67h-65zM472 429v-37c-28 19 -60 37 -90 51c-9 -13 -31 -38 -45 -48c82 -33 159 -84 195 -150l63 17c-22 41 -57 78 -96 109h321c-40 -31 -87 -66 -127 -92l44 -34c66 42 154 104 199 146
l-46 39c-15 -15 -35 -31 -59 -50c0 6 -1 13 -2 18c-13 104 -26 149 -46 168c-14 14 -31 19 -53 20c-20 1 -57 1 -98 -2c0 -16 -6 -37 -14 -52c37 5 73 5 87 5c13 0 21 -1 27 -8c11 -10 20 -39 30 -100h-117c-26 98 -97 157 -199 191c-6 -13 -22 -40 -34 -52
c85 -22 145 -65 167 -139h-107zM332 568l-37 56c-12 -32 -39 -92 -63 -142v474h-62v-471c-28 110 -66 216 -104 282c-7 -23 -21 -55 -32 -74c52 -82 105 -241 130 -375h-102v-64h108v-211h62v211h95v64h-95v71c27 45 86 152 100 179zM936 717h-218c60 66 152 124 238 154
c-14 13 -33 35 -43 52c-89 -37 -185 -107 -247 -184v216h-68v-204c-69 77 -165 143 -257 179c-10 -17 -30 -41 -44 -53c93 -32 191 -91 254 -160h-216v-61h263v-58h68v58h270v61z" />
</svg>
