<?xml version="1.0" standalone="no"?>
<!DOCTYPE svg PUBLIC "-//W3C//DTD SVG 1.1//EN" "http://www.w3.org/Graphics/SVG/1.1/DTD/svg11.dtd" >
<svg xmlns="http://www.w3.org/2000/svg" xmlns:xlink="http://www.w3.org/1999/xlink" version="1.1" viewBox="-10 0 1010 1000">
   <path fill="currentColor"
d="M822 295l60 12c-5 29 -12 58 -19 86c35 45 77 102 97 136l-48 36c-15 -28 -43 -68 -70 -107c-13 32 -27 61 -43 86c-11 -8 -37 -25 -51 -32c39 -54 62 -135 74 -217zM556 295l58 11c-6 31 -12 61 -20 91c27 34 60 80 75 109l-47 32c-11 -22 -29 -51 -49 -79
c-19 51 -44 97 -72 133c-11 -10 -36 -28 -50 -35c54 -63 88 -159 105 -262zM371 292l55 12c-5 29 -10 59 -18 87c25 35 54 76 67 103l-41 37c-10 -20 -27 -49 -46 -76c-12 32 -25 61 -41 86c-10 -9 -33 -25 -46 -31c37 -55 59 -136 70 -218zM138 292l53 12
c-5 30 -12 61 -21 89c26 36 53 82 66 112l-44 31c-9 -22 -25 -52 -41 -80c-19 51 -42 97 -70 133c-10 -10 -32 -27 -45 -35c52 -63 84 -159 102 -262zM461 700l-39 51c-27 -34 -76 -84 -123 -129v334h-62v-319c-47 93 -106 179 -161 233c-11 -17 -33 -43 -48 -57
c77 -64 162 -190 209 -306v-263h-161v-64h161v-135h62v135h161v64h-161v299c56 51 126 116 162 157zM736 243v255c56 112 158 241 235 310c-16 13 -41 38 -54 56c-57 -59 -126 -156 -181 -253v345h-64v-335c-59 101 -134 195 -205 252c-11 -17 -33 -42 -50 -55
c93 -64 198 -195 255 -315v-260h-183v-64h183v-135h64v135h200v64h-200z" />
</svg>
