<?xml version="1.0" standalone="no"?>
<!DOCTYPE svg PUBLIC "-//W3C//DTD SVG 1.1//EN" "http://www.w3.org/Graphics/SVG/1.1/DTD/svg11.dtd" >
<svg xmlns="http://www.w3.org/2000/svg" xmlns:xlink="http://www.w3.org/1999/xlink" version="1.1" viewBox="-10 0 1010 1000">
   <path fill="currentColor"
d="M332 538l-35 56c-12 -30 -40 -86 -63 -133v495h-61v-499c-28 111 -66 220 -106 285c-6 -21 -21 -54 -32 -72c51 -81 103 -235 128 -367h-111v-68h121v-192h61v192h91v68h-91v67c24 38 84 142 98 168zM851 646l42 32c-59 55 -140 128 -212 192c23 17 44 33 59 47l-40 43
c-46 -43 -139 -113 -210 -163l38 -35c31 20 66 45 101 69c50 -41 105 -87 148 -126h-373v-55h254c-18 -20 -56 -52 -85 -75l40 -31c31 22 70 51 89 70l-42 36h183zM659 426l30 13l-21 21c71 47 200 97 296 121c-10 15 -23 41 -27 56c-100 -33 -228 -90 -308 -145
c-82 64 -187 117 -279 153c-7 -13 -25 -40 -36 -53c111 -36 235 -96 312 -166h-18v-178h-204v79h-59v-133h263v-58h-226v-58h512v58h-221v58h257v133h-61v-79h-196v178h-14zM396 450v-45h167v45h-167zM563 306v44h-147v-44h147zM701 450v-45h171v45h-171zM702 306h155v44
h-155v-44z" />
</svg>
