<?xml version="1.0" standalone="no"?>
<!DOCTYPE svg PUBLIC "-//W3C//DTD SVG 1.1//EN" "http://www.w3.org/Graphics/SVG/1.1/DTD/svg11.dtd" >
<svg xmlns="http://www.w3.org/2000/svg" xmlns:xlink="http://www.w3.org/1999/xlink" version="1.1" viewBox="-10 0 1010 1000">
   <path fill="currentColor"
d="M776 138h-279h-1c36 25 87 46 147 63c52 -18 98 -39 133 -63zM841 91l34 22c-38 43 -93 78 -158 107c76 16 159 28 240 34c-12 13 -28 34 -35 49c-94 -10 -193 -28 -280 -55c-84 29 -178 48 -267 60c-5 -14 -17 -33 -27 -45c73 -8 150 -21 221 -40
c-42 -17 -80 -36 -110 -58c-26 17 -54 34 -85 49c-9 -13 -28 -29 -41 -37c89 -40 158 -92 197 -140l60 11c-13 16 -27 31 -42 46h281zM821 600v-39h-361v39h361zM821 682v-40h-361v40h361zM821 766v-41h-361v41h361zM922 469h-236v47h205v294h-498v-294h225v-47h-253
c11 -23 20 -46 28 -73h60l-12 30h177v-51h-229v-41h229v-43h68v43h212v41h-212v51h236v43zM359 539l-39 51c-14 -30 -50 -87 -81 -134v500h-68v-503c-32 111 -74 220 -120 285c-6 -20 -24 -51 -36 -68c58 -81 117 -234 145 -367h-111v-68h122v-192h68v192h105v68h-105v73
c33 43 104 138 120 163zM543 826l54 42c-78 36 -186 70 -270 90c-7 -14 -20 -36 -30 -51c80 -18 188 -52 246 -81zM679 873l28 -45c86 20 200 54 261 80l-29 50c-59 -26 -174 -63 -260 -85z" />
</svg>
