<?xml version="1.0" standalone="no"?>
<!DOCTYPE svg PUBLIC "-//W3C//DTD SVG 1.1//EN" "http://www.w3.org/Graphics/SVG/1.1/DTD/svg11.dtd" >
<svg xmlns="http://www.w3.org/2000/svg" xmlns:xlink="http://www.w3.org/1999/xlink" version="1.1" viewBox="-10 0 1010 1000">
   <path fill="currentColor"
d="M759 459v-177c-30 60 -69 115 -109 148c-10 -13 -28 -34 -41 -44c50 -34 101 -104 131 -172h-89v-60h108v-103h63v103h122v60h-104c34 61 88 128 130 162c-14 11 -34 32 -45 46c-32 -32 -71 -85 -103 -138v175h-63zM423 548v-61h475v61h-475zM482 459v-180
c-32 57 -73 112 -110 145c-10 -13 -29 -33 -42 -44c47 -34 100 -101 133 -166h-103v-60h122v-103h60v103h86v60h-86v16c26 19 84 69 100 84l-33 45c-13 -16 -42 -44 -67 -69v169h-60zM329 545l-37 56c-12 -33 -40 -91 -64 -140v495h-62v-492c-27 108 -64 213 -101 278
c-7 -22 -23 -54 -34 -73c51 -80 101 -233 125 -364h-103v-70h113v-192h62v192h85v70h-85v65c25 39 87 148 101 175zM460 717l65 19c-37 66 -94 136 -144 183c-11 -11 -39 -32 -54 -41c50 -42 100 -103 133 -161zM948 686h-256v197c0 35 -7 53 -34 64c-25 12 -66 12 -126 12
c-3 -20 -14 -45 -22 -64c45 1 83 1 95 0c12 0 16 -3 16 -13v-196h-257v-61h584v61zM751 745l55 -31c52 49 113 117 143 160l-57 37c-29 -44 -89 -116 -141 -166z" />
</svg>
