<?xml version="1.0" standalone="no"?>
<!DOCTYPE svg PUBLIC "-//W3C//DTD SVG 1.1//EN" "http://www.w3.org/Graphics/SVG/1.1/DTD/svg11.dtd" >
<svg xmlns="http://www.w3.org/2000/svg" xmlns:xlink="http://www.w3.org/1999/xlink" version="1.1" viewBox="-10 0 1010 1000">
   <path fill="currentColor"
d="M243 327v-125c-46 45 -108 90 -161 119c-10 -15 -27 -36 -42 -48c57 -24 125 -69 171 -115h-150v-54h182v-60h67v60h168v54h-168v4c41 17 133 56 158 70l-40 45c-23 -16 -75 -44 -118 -67v117h-67zM803 503h-164v52h164v-52zM803 651v-54h-164v54h164zM414 651h156v-54
h-156v54zM414 503v52h156v-52h-156zM570 316h69v49h272v48h-272v46h235v235h-235v47h286v50h-286v68h-69v-68h-276v-50h276v-47h-224v-235h224v-46h-259v-48h259v-49zM68 383l52 -36c47 31 102 76 128 107l-55 40c-25 -33 -79 -79 -125 -111zM243 550v236c23 8 45 26 86 49
c66 35 149 42 255 42c112 0 261 -7 363 -16c-8 16 -20 45 -21 63c-69 4 -239 9 -343 9c-117 0 -200 -10 -269 -48c-38 -21 -71 -49 -95 -49c-33 0 -84 49 -134 108l-44 -53c46 -44 92 -81 133 -98v-187h-129v-56h198zM944 158h-171c53 44 128 87 188 111
c-13 11 -33 32 -43 47c-56 -26 -125 -73 -179 -120v128h-68v-130c-47 43 -111 85 -166 109c-10 -15 -29 -34 -45 -46c58 -20 125 -58 172 -99h-130v-54h169v-60h68v60h205v54z" />
</svg>
