<?xml version="1.0" standalone="no"?>
<!DOCTYPE svg PUBLIC "-//W3C//DTD SVG 1.1//EN" "http://www.w3.org/Graphics/SVG/1.1/DTD/svg11.dtd" >
<svg xmlns="http://www.w3.org/2000/svg" xmlns:xlink="http://www.w3.org/1999/xlink" version="1.1" viewBox="-10 0 1010 1000">
   <path fill="currentColor"
d="M852 611h-181c-87 0 -116 -13 -116 -78v-275h274v-39h-274v-176h68v49h303v44h-303v40h272v125h-272v37h249v37h-249v39h245v36h-245v37h262v36h-262v10c0 27 8 32 54 32h168c35 0 42 -12 45 -80c16 9 38 16 56 19c-6 84 -26 107 -94 107zM511 223v50h-455v-50h115
c-5 -20 -14 -44 -21 -63l54 -11c12 22 23 52 27 71l-12 3h119c9 -24 22 -53 28 -74h-283v-50h174c-8 -17 -16 -34 -25 -48l60 -12c13 18 25 40 34 60h164v50h-115l50 11c-11 23 -20 44 -29 63h115zM183 474h210v-44h-210v44zM393 350h-210v42h210v-42zM460 307v248
c0 31 -7 42 -29 51c-21 7 -56 7 -104 7c-3 -15 -12 -32 -20 -45c35 1 64 1 73 0c10 0 13 -3 13 -13v-43h-210v101h-65v-306h342zM932 724h-324c90 72 226 125 361 149c-16 15 -36 44 -46 63c-147 -33 -294 -101 -388 -195v216h-74v-219c-95 95 -242 165 -387 200
c-10 -18 -30 -45 -44 -61c132 -26 268 -81 358 -153h-307v-61h380v-54h74v54h397v61z" />
</svg>
