<?xml version="1.0" standalone="no"?>
<!DOCTYPE svg PUBLIC "-//W3C//DTD SVG 1.1//EN" "http://www.w3.org/Graphics/SVG/1.1/DTD/svg11.dtd" >
<svg xmlns="http://www.w3.org/2000/svg" xmlns:xlink="http://www.w3.org/1999/xlink" version="1.1" viewBox="-10 0 1010 1000">
   <path fill="currentColor"
d="M589 254l-55 23c-12 -28 -41 -70 -69 -102c-22 35 -46 66 -71 91c-12 -10 -38 -28 -54 -36c52 -47 95 -118 120 -190l61 14c-7 23 -16 44 -26 66h168v54h-128c23 27 43 58 54 80zM258 322v103c27 30 102 121 119 144l-41 64c-15 -29 -49 -80 -78 -121v444h-69v-458
c-32 106 -74 207 -118 272c-8 -21 -26 -48 -39 -65c61 -87 122 -248 151 -383h-128v-68h134v-211h69v211h107v68h-107zM729 761h-136v62h136v-62zM784 867h-191v32h-56v-181h247v149zM939 608v278c0 35 -7 51 -34 61c-24 10 -64 10 -126 10c-4 -17 -14 -40 -22 -56
c45 1 85 1 96 0c12 0 16 -4 16 -15v-222h-409v293h-70v-349h549zM799 521v-68h-269v68h269zM465 407h402v159h-402v-159zM957 120v54h-123c26 25 50 53 63 74l-54 26c-16 -29 -51 -69 -84 -100h-14c-19 30 -41 58 -62 79c-3 -3 -8 -6 -13 -10c8 20 16 44 18 65h257v57h-570
v-57h249c-4 -19 -9 -38 -15 -54l58 -13c-12 -8 -27 -18 -38 -24c49 -44 91 -110 113 -177l63 14c-8 23 -18 44 -28 66h180z" />
</svg>
