<?xml version="1.0" standalone="no"?>
<!DOCTYPE svg PUBLIC "-//W3C//DTD SVG 1.1//EN" "http://www.w3.org/Graphics/SVG/1.1/DTD/svg11.dtd" >
<svg xmlns="http://www.w3.org/2000/svg" xmlns:xlink="http://www.w3.org/1999/xlink" version="1.1" viewBox="-10 0 1010 1000">
   <path fill="currentColor"
d="M956 352v49h-623v-49h268v-52h-214v-48h214v-52h-242v-49h138c-12 -25 -36 -60 -57 -86l56 -24c24 28 51 66 63 91l-44 19h190c24 -33 49 -76 64 -108l68 21c-19 29 -41 61 -60 87h138v49h-247v52h232v48h-232v52h288zM323 530l-36 56c-12 -30 -38 -82 -60 -127v497h-62
v-491c-27 108 -64 212 -101 277c-6 -22 -22 -54 -32 -72c51 -81 100 -236 123 -368h-103v-67h113v-192h62v192h86v67h-86v69c24 37 82 134 96 159zM764 444l35 -36c42 19 94 49 122 72l-37 41c-26 -23 -77 -56 -120 -77zM887 588l48 28c-29 68 -73 138 -124 196
c24 54 52 84 81 84c19 -1 26 -30 30 -102c14 12 33 23 49 28c-10 104 -31 133 -83 133c-47 0 -88 -35 -120 -97c-37 35 -77 66 -116 87c-10 -16 -28 -33 -45 -45c-5 17 -11 27 -18 34c-12 12 -25 16 -47 17c-17 1 -50 1 -85 -1c0 -15 -5 -34 -13 -47c34 3 65 3 76 3
c13 0 20 -1 26 -6c8 -8 14 -27 20 -68h-194c11 -26 22 -60 31 -92h-64v-47h325v47h-207c-3 16 -8 31 -13 46h182s-1 16 -3 23c-5 41 -10 69 -15 89c46 -23 92 -57 133 -98c-24 -63 -41 -141 -52 -231h-156c27 13 106 48 126 61l-29 41c-18 -15 -62 -40 -97 -60v73h-55v-84
c-39 35 -89 71 -129 91c-10 -13 -25 -30 -37 -40c43 -17 96 -50 135 -82h-118v-48h149v-42c-42 2 -84 4 -122 4c-2 -12 -8 -28 -15 -40c96 -3 214 -12 279 -25l34 39c-34 6 -75 12 -121 17v47h151c-3 -34 -5 -67 -6 -102h62c1 35 2 69 5 102h212v48h-207c8 70 21 132 36 182
c42 -50 78 -107 101 -163z" />
</svg>
