<?xml version="1.0" standalone="no"?>
<!DOCTYPE svg PUBLIC "-//W3C//DTD SVG 1.1//EN" "http://www.w3.org/Graphics/SVG/1.1/DTD/svg11.dtd" >
<svg xmlns="http://www.w3.org/2000/svg" xmlns:xlink="http://www.w3.org/1999/xlink" version="1.1" viewBox="-10 0 1010 1000">
   <path fill="currentColor"
d="M878 271h-254c-26 78 -59 148 -97 202c-12 -11 -45 -30 -63 -38c72 -93 116 -240 141 -393l72 11c-9 52 -20 102 -33 150h256l12 -4l49 16c-20 89 -48 194 -76 259l-59 -18c19 -47 37 -118 52 -185zM162 558v-152h66v154c0 133 -15 283 -139 398c-10 -17 -35 -41 -51 -53
c112 -101 124 -232 124 -347zM343 956v-550h66v550h-66zM255 36l68 11c-5 18 -10 34 -16 52c62 79 140 180 177 240l-52 51c-32 -56 -95 -144 -151 -218c-43 102 -107 202 -200 281c-9 -16 -29 -43 -42 -54c120 -99 188 -243 216 -363zM739 331v68c0 26 -1 54 -2 83
c40 202 104 319 237 421c-17 13 -38 35 -48 55c-107 -87 -170 -183 -214 -319c-29 111 -90 226 -212 323c-11 -17 -34 -41 -50 -53c202 -158 220 -369 220 -511v-67h69z" />
</svg>
