<?xml version="1.0" standalone="no"?>
<!DOCTYPE svg PUBLIC "-//W3C//DTD SVG 1.1//EN" "http://www.w3.org/Graphics/SVG/1.1/DTD/svg11.dtd" >
<svg xmlns="http://www.w3.org/2000/svg" xmlns:xlink="http://www.w3.org/1999/xlink" version="1.1" viewBox="-10 0 1010 1000">
   <path fill="currentColor"
d="M850 291h-219c-22 64 -46 121 -76 167c-12 -11 -45 -32 -62 -41c61 -90 102 -231 123 -374l72 13c-10 58 -22 115 -37 167h222l12 -3l49 15c-23 90 -54 195 -83 261l-59 -20c19 -48 41 -118 58 -185zM235 436h85v-268h-85v268zM482 506h-93v442h-69v-442h-85
c-3 169 -27 324 -138 454c-12 -17 -35 -38 -53 -51c99 -118 119 -260 122 -403h-114v-70h114v-268h-93v-69h402v69h-86v268h93v70zM734 365v30c0 31 -1 66 -4 103c37 171 113 323 230 388c-15 14 -39 41 -50 61c-95 -61 -160 -172 -205 -306c-30 108 -91 222 -211 319
c-12 -17 -37 -39 -55 -50c212 -163 226 -378 226 -516v-29h69z" />
</svg>
