<?xml version="1.0" standalone="no"?>
<!DOCTYPE svg PUBLIC "-//W3C//DTD SVG 1.1//EN" "http://www.w3.org/Graphics/SVG/1.1/DTD/svg11.dtd" >
<svg xmlns="http://www.w3.org/2000/svg" xmlns:xlink="http://www.w3.org/1999/xlink" version="1.1" viewBox="-10 0 1010 1000">
   <path fill="currentColor"
d="M879 271h-266c-25 67 -56 128 -92 175c-11 -12 -40 -34 -55 -45c70 -85 113 -218 138 -359l68 12c-10 51 -22 102 -36 149h266l11 -4l47 16c-22 89 -54 193 -83 258l-57 -19c21 -46 42 -118 59 -183zM510 808l-62 30c-4 -14 -9 -30 -16 -49c-278 55 -315 65 -336 78
c-4 -16 -16 -50 -25 -69c16 -3 32 -26 48 -60c17 -27 62 -126 93 -228h-156v-69h184v-165h-154v-68h154v-165h70v165h150v68h-150v165h177v69h-196c-30 91 -73 185 -116 262l233 -42c-19 -44 -42 -91 -65 -131l58 -25c44 74 91 173 109 234zM733 331v68c0 25 -1 54 -2 83
c39 196 103 313 224 416c-16 13 -36 35 -46 56c-98 -88 -159 -184 -202 -318c-28 112 -87 229 -206 328c-10 -17 -33 -42 -48 -54c197 -158 213 -370 213 -512v-67h67z" />
</svg>
