<?xml version="1.0" standalone="no"?>
<!DOCTYPE svg PUBLIC "-//W3C//DTD SVG 1.1//EN" "http://www.w3.org/Graphics/SVG/1.1/DTD/svg11.dtd" >
<svg xmlns="http://www.w3.org/2000/svg" xmlns:xlink="http://www.w3.org/1999/xlink" version="1.1" viewBox="-10 0 1010 1000">
   <path fill="currentColor"
d="M857 294h-249c-23 75 -50 142 -84 195c-13 -11 -45 -33 -63 -42c68 -96 106 -246 124 -404l73 10c-8 59 -19 118 -32 173h252l12 -3l48 14c-18 92 -42 201 -65 267l-59 -16c14 -49 30 -125 43 -194zM139 287v236h80v-236h-80zM353 523v-236h-78v236h78zM447 871l-58 19
c-3 -19 -7 -40 -13 -63c-114 22 -232 44 -321 60l-12 -69c47 -7 106 -16 171 -27v-205h-75v47h-62v-409h138v-176h67v176h133v362h-134v194l77 -14c-12 -40 -24 -81 -37 -116l55 -16c28 75 59 172 71 237zM727 365v46c0 29 -1 60 -3 93c35 172 110 322 231 387
c-16 13 -39 40 -51 60c-97 -60 -162 -168 -207 -302c-30 106 -94 216 -224 309c-12 -16 -36 -39 -54 -50c222 -155 238 -360 238 -498v-45h70z" />
</svg>
