<?xml version="1.0" standalone="no"?>
<!DOCTYPE svg PUBLIC "-//W3C//DTD SVG 1.1//EN" "http://www.w3.org/Graphics/SVG/1.1/DTD/svg11.dtd" >
<svg xmlns="http://www.w3.org/2000/svg" xmlns:xlink="http://www.w3.org/1999/xlink" version="1.1" viewBox="-10 0 1010 1000">
   <path fill="currentColor"
d="M882 287h-209c-20 69 -45 130 -75 179c-12 -9 -40 -30 -57 -39c61 -93 94 -237 114 -385l66 10c-8 57 -18 114 -31 167h209l12 -3l45 14c-13 87 -33 189 -53 253l-55 -16c13 -46 25 -116 34 -180zM545 84v312h-200v-64h137v-184h-136v-64h199zM247 147h-98v173h98v-173z
M282 750h-133v206h-61v-872h217v300h-156v113h125v63h-125v127h133v63zM538 827l-49 40c-12 -19 -27 -43 -44 -68c-49 72 -110 124 -180 159c-8 -16 -24 -41 -39 -53c70 -32 133 -87 181 -163c-33 -48 -70 -99 -103 -141l46 -33c28 36 58 77 89 116c19 -42 36 -89 47 -142
h-178v-63h199l12 -2l39 11c-15 100 -42 184 -79 254c24 33 45 62 59 85zM774 352v73c0 30 -1 64 -4 99c34 151 102 304 186 378c-15 11 -38 36 -49 54c-66 -65 -122 -172 -163 -292c-28 100 -82 204 -184 295c-12 -11 -34 -29 -51 -39c183 -162 201 -366 201 -497v-71h64z
" />
</svg>
