<?xml version="1.0" standalone="no"?>
<!DOCTYPE svg PUBLIC "-//W3C//DTD SVG 1.1//EN" "http://www.w3.org/Graphics/SVG/1.1/DTD/svg11.dtd" >
<svg xmlns="http://www.w3.org/2000/svg" xmlns:xlink="http://www.w3.org/1999/xlink" version="1.1" viewBox="-10 0 1010 1000">
   <path fill="currentColor"
d="M202 381v46h252v-46h-252zM454 217h-252v43h252v-43zM454 343v-45h-252v45h252zM128 478v85h-59v-136h72v-251h141c6 -16 11 -33 16 -50h-229v-52h511v52h-208c-7 18 -15 34 -22 50h168v251h61c-13 -9 -27 -19 -37 -24c61 -86 98 -219 119 -360l59 11
c-8 52 -17 102 -29 149h219l10 -4l43 15c-16 84 -40 183 -62 243l-51 -17c14 -43 30 -109 41 -169h-220c-20 66 -46 124 -75 171l-6 -5v125h-50c19 22 34 43 44 62l-46 31c-18 -35 -61 -86 -101 -122l43 -29c16 13 32 29 48 46v-72h-213c36 17 75 39 96 59l-33 35
c-26 -24 -76 -55 -119 -73l22 -21h-153zM122 660l-48 -32c32 -25 62 -70 78 -107l49 23c-17 39 -45 86 -79 116zM456 737h-230c-8 6 -17 13 -27 19c52 13 111 33 166 54c39 -22 70 -47 91 -73zM507 687l45 21c-25 51 -64 94 -119 129c34 16 64 30 88 45l-38 51
c-30 -19 -71 -39 -118 -59c-75 35 -171 61 -288 79c-7 -16 -24 -38 -37 -51c100 -13 183 -33 251 -58c-45 -17 -89 -32 -130 -43l32 -41c-32 20 -69 40 -111 57c-10 -13 -29 -34 -42 -42c94 -34 164 -81 205 -128c-26 -8 -34 -24 -34 -63v-64h59v64c0 18 4 21 31 21h93
c19 0 24 -5 26 -46c13 8 34 15 50 18c-5 59 -22 74 -68 74h-86c-11 14 -22 26 -35 39h213zM774 330v69c0 28 -1 59 -3 92c33 194 87 311 198 412c-17 13 -34 36 -42 56c-88 -87 -142 -182 -178 -313c-25 108 -77 219 -179 314c-9 -17 -29 -44 -43 -56
c172 -157 186 -366 186 -506v-68h61z" />
</svg>
