<?xml version="1.0" standalone="no"?>
<!DOCTYPE svg PUBLIC "-//W3C//DTD SVG 1.1//EN" "http://www.w3.org/Graphics/SVG/1.1/DTD/svg11.dtd" >
<svg xmlns="http://www.w3.org/2000/svg" xmlns:xlink="http://www.w3.org/1999/xlink" version="1.1" viewBox="-10 0 1010 1000">
   <path fill="currentColor"
d="M507 331l3 64c-164 26 -338 53 -458 73l-8 -70l68 -8v-262h65v252l92 -13v-323h68v120h162v63h-162v130c56 -9 113 -17 170 -26zM769 525l13 -3l50 34c-127 236 -409 348 -704 399c-7 -19 -27 -51 -41 -67c132 -19 260 -50 370 -98c-39 -34 -97 -76 -145 -106l53 -37
c53 30 118 74 158 111c82 -46 151 -101 199 -170h-374c-61 46 -130 86 -200 116c-9 -17 -32 -44 -47 -58c131 -50 261 -141 318 -232l74 27c-20 29 -45 57 -73 84h349zM673 365h156c36 0 42 -14 47 -98c16 12 45 24 67 28c-10 108 -32 136 -107 136h-169
c-95 0 -120 -21 -120 -100v-287h73v154c90 -25 186 -59 244 -91l48 56c-79 38 -192 72 -292 96v72c0 29 8 34 53 34z" />
</svg>
