<?xml version="1.0" standalone="no"?>
<!DOCTYPE svg PUBLIC "-//W3C//DTD SVG 1.1//EN" "http://www.w3.org/Graphics/SVG/1.1/DTD/svg11.dtd" >
<svg xmlns="http://www.w3.org/2000/svg" xmlns:xlink="http://www.w3.org/1999/xlink" version="1.1" viewBox="-10 0 1010 1000">
   <path fill="currentColor"
d="M57 158v-69h367v69h-173c-8 46 -19 91 -29 135h140l13 -3l44 15c-41 329 -153 543 -309 654c-11 -17 -36 -43 -52 -54c86 -58 157 -146 209 -266c-35 -27 -80 -58 -118 -81l34 -50c35 19 75 45 107 69c23 -64 39 -137 51 -216h-138c-29 96 -67 181 -114 248
c-9 -14 -34 -42 -50 -55c71 -96 115 -240 143 -396h-125zM946 180h-285c-15 73 -32 154 -48 221h309l-3 36c-21 319 -42 438 -80 479c-20 25 -42 32 -76 35c-29 3 -82 2 -136 -2c-2 -22 -10 -52 -24 -73c57 6 110 7 132 7c18 0 30 -3 40 -13c30 -29 49 -136 68 -399h-323
c21 -76 49 -194 67 -291h-115v-71h474v71z" />
</svg>
