<?xml version="1.0" standalone="no"?>
<!DOCTYPE svg PUBLIC "-//W3C//DTD SVG 1.1//EN" "http://www.w3.org/Graphics/SVG/1.1/DTD/svg11.dtd" >
<svg xmlns="http://www.w3.org/2000/svg" xmlns:xlink="http://www.w3.org/1999/xlink" version="1.1" viewBox="-10 0 1010 1000">
   <path fill="currentColor"
d="M344 293l11 -2l40 13c-37 332 -144 540 -296 648c-9 -16 -32 -42 -47 -54c85 -57 153 -143 202 -262c-35 -31 -82 -64 -122 -88l37 -57c35 20 77 48 111 74c19 -61 34 -128 45 -204h-137c-31 97 -69 184 -116 250c-9 -14 -33 -44 -48 -57c72 -96 119 -240 146 -397h-120
v-68h370v68h-183c-8 47 -19 92 -30 136h137zM827 888h37c10 0 20 -1 25 -4c7 -3 12 -12 14 -27c2 -17 3 -54 4 -103c15 13 41 24 61 30c-1 46 -5 97 -11 115c-6 20 -17 31 -31 39c-15 7 -38 10 -55 10h-58c-21 0 -47 -6 -61 -18c-16 -13 -23 -29 -23 -92v-308h-93
c-10 200 -40 344 -186 428c-8 -16 -29 -41 -46 -52c131 -73 153 -200 160 -376h-125v-67h224v-182h-117c-18 49 -41 93 -66 128c-14 -10 -45 -25 -63 -33c58 -72 95 -185 116 -300l68 10c-7 44 -18 88 -31 128h93v-171h72v171h187v67h-187v182h222v67h-157v316
c0 20 1 33 7 37c5 4 12 5 20 5z" />
</svg>
