<?xml version="1.0" standalone="no"?>
<!DOCTYPE svg PUBLIC "-//W3C//DTD SVG 1.1//EN" "http://www.w3.org/Graphics/SVG/1.1/DTD/svg11.dtd" >
<svg xmlns="http://www.w3.org/2000/svg" xmlns:xlink="http://www.w3.org/1999/xlink" version="1.1" viewBox="-10 0 1010 1000">
   <path fill="currentColor"
d="M55 157v-68h371v68h-183c-8 47 -19 92 -30 136h135l13 -2l40 13c-37 332 -145 540 -297 648c-9 -16 -33 -42 -48 -54c86 -57 154 -144 203 -263c-34 -30 -80 -63 -119 -88l37 -56c34 20 75 47 108 73c19 -61 34 -129 45 -203h-136c-31 97 -70 183 -117 250
c-9 -15 -33 -44 -48 -57c71 -96 118 -241 145 -397h-119zM533 390v112h295v-112h-295zM828 221h-295v105h295v-105zM904 593l46 49c-45 40 -107 81 -158 111c46 60 103 106 171 134c-16 14 -37 42 -46 61c-142 -66 -234 -204 -283 -380h-101v291l162 -47c2 20 8 48 13 62
c-199 63 -229 75 -246 89c-5 -19 -19 -54 -29 -72c14 -6 32 -19 32 -55v-681h194c-11 -31 -24 -68 -36 -97l64 -17c17 35 36 81 46 114h163v413h-197c15 48 35 93 59 134c49 -31 108 -74 146 -109z" />
</svg>
