<?xml version="1.0" standalone="no"?>
<!DOCTYPE svg PUBLIC "-//W3C//DTD SVG 1.1//EN" "http://www.w3.org/Graphics/SVG/1.1/DTD/svg11.dtd" >
<svg xmlns="http://www.w3.org/2000/svg" xmlns:xlink="http://www.w3.org/1999/xlink" version="1.1" viewBox="-10 0 1010 1000">
   <path fill="currentColor"
d="M63 154v-69h346v69h-162c-9 51 -19 100 -31 148h124l12 -3l42 13c-37 322 -139 534 -282 646c-11 -16 -36 -41 -51 -51c81 -60 148 -152 195 -276c-30 -27 -69 -57 -104 -79l31 -57c32 18 69 43 97 66c18 -59 31 -123 41 -192h-122c-27 89 -60 169 -102 230
c-11 -12 -38 -37 -54 -48c68 -96 109 -240 134 -397h-114zM894 60l46 56c-128 38 -330 61 -496 71c-3 -16 -11 -42 -19 -59c165 -10 363 -35 469 -68zM828 415l-56 -24c32 -56 72 -145 94 -208l65 28c-32 70 -71 151 -103 204zM745 356l-62 20c-9 -41 -32 -109 -53 -160
l60 -17c23 50 47 117 55 157zM587 384l-64 23c-10 -44 -38 -114 -66 -167l60 -19c30 51 59 119 70 163zM802 572h-160c-22 43 -45 84 -64 119c41 17 83 38 124 60c45 -49 78 -108 100 -179zM956 572h-83c-24 85 -60 156 -110 214c67 38 127 78 170 112l-48 55
c-43 -36 -104 -78 -172 -118c-64 54 -145 94 -247 122c-7 -18 -22 -43 -35 -59c90 -22 162 -55 219 -99c-55 -30 -114 -57 -169 -80c27 -40 57 -92 85 -147h-127v-66h158c17 -36 32 -73 44 -107l70 14c-11 29 -23 62 -38 93h283v66z" />
</svg>
