<?xml version="1.0" standalone="no"?>
<!DOCTYPE svg PUBLIC "-//W3C//DTD SVG 1.1//EN" "http://www.w3.org/Graphics/SVG/1.1/DTD/svg11.dtd" >
<svg xmlns="http://www.w3.org/2000/svg" xmlns:xlink="http://www.w3.org/1999/xlink" version="1.1" viewBox="-10 0 1010 1000">
   <path fill="currentColor"
d="M303 300l38 12c-32 315 -124 528 -252 639c-11 -16 -35 -41 -49 -52c76 -62 137 -158 179 -286c-23 -25 -53 -50 -80 -70l28 -53c23 16 50 37 71 56c15 -55 27 -116 36 -182h-98c-24 84 -53 160 -90 220c-10 -13 -36 -37 -49 -49c60 -92 98 -232 119 -383h-103v-67h309
v67h-141c-8 52 -18 102 -30 150h100zM624 549l-38 53c-13 -28 -41 -78 -65 -121v475h-63v-458c-28 102 -65 196 -102 254c-11 -14 -32 -36 -47 -48c58 -77 116 -236 147 -378h-106v-63h108v-214h63v214h98v63h-98v70c23 32 88 128 103 153zM956 367v65h-83v520h-65v-520h-90
c-1 153 -17 367 -100 513c-12 -11 -40 -28 -57 -34c84 -145 92 -348 92 -494v-266c80 -25 171 -61 222 -93l58 51c-60 31 -141 61 -215 83v175h238z" />
</svg>
