<?xml version="1.0" standalone="no"?>
<!DOCTYPE svg PUBLIC "-//W3C//DTD SVG 1.1//EN" "http://www.w3.org/Graphics/SVG/1.1/DTD/svg11.dtd" >
<svg xmlns="http://www.w3.org/2000/svg" xmlns:xlink="http://www.w3.org/1999/xlink" version="1.1" viewBox="-10 0 1010 1000">
   <path fill="currentColor"
d="M731 142v62c0 83 -17 195 -96 271c-10 -13 -33 -34 -47 -41c71 -69 82 -160 82 -231v-123h203v266c0 24 1 31 12 31h34c10 0 28 -1 36 -4c2 15 3 37 5 51c-10 4 -24 4 -40 4h-42c-56 0 -67 -23 -67 -83v-203h-80zM306 300l42 12c-32 316 -123 531 -251 645
c-12 -15 -36 -40 -52 -50c75 -63 133 -158 175 -284c-24 -23 -55 -46 -83 -64l30 -54c24 14 52 31 74 49c15 -57 27 -119 34 -185h-94c-22 87 -52 165 -89 227c-11 -12 -36 -35 -52 -45c61 -97 95 -242 116 -397h-103v-69h311v69h-142c-7 51 -15 100 -26 148h98zM615 669
l6 62c-55 12 -109 23 -161 35v185h-69v-171l-62 13l-12 -66l74 -14v-581c63 -25 134 -63 174 -94l57 51c-47 28 -105 54 -162 77v123h136v63h-136v140h137v63h-137v144c49 -9 103 -20 155 -30zM854 559h-148c16 64 40 123 71 175c33 -49 60 -107 77 -175zM891 492l40 11
c-21 121 -60 215 -114 288c39 48 86 86 142 109c-15 13 -35 38 -44 56c-55 -27 -101 -66 -141 -115c-49 52 -107 89 -171 117c-8 -18 -25 -43 -39 -57c65 -24 124 -62 172 -116c-38 -62 -66 -137 -85 -218l36 -8h-60v-65h252z" />
</svg>
