<?xml version="1.0" standalone="no"?>
<!DOCTYPE svg PUBLIC "-//W3C//DTD SVG 1.1//EN" "http://www.w3.org/Graphics/SVG/1.1/DTD/svg11.dtd" >
<svg xmlns="http://www.w3.org/2000/svg" xmlns:xlink="http://www.w3.org/1999/xlink" version="1.1" viewBox="-10 0 1010 1000">
   <path fill="currentColor"
d="M477 250h142v-82h-142v82zM841 168h-155v82h155v-82zM619 366v-60h-197v-193h197v-66h67v66h213v193h-213v60h257v59h-560v-59h236zM882 785h-66v-251h-326v251h-64v-309h456v309zM324 300l42 11c-34 325 -133 537 -274 646c-11 -14 -35 -41 -51 -51
c83 -61 150 -156 196 -288c-23 -27 -53 -57 -80 -79l34 -55c23 17 48 39 68 60c14 -53 26 -112 34 -175h-99c-27 89 -61 168 -103 230c-11 -13 -38 -38 -54 -48c68 -96 110 -240 134 -397h-114v-69h325v69h-140c-9 51 -19 100 -31 148h101zM682 590v108
c0 104 -55 200 -303 252c-6 -14 -23 -42 -33 -54c232 -47 274 -121 274 -200v-106h62zM669 837l34 -50c84 28 190 76 241 114l-35 57c-52 -40 -156 -91 -240 -121z" />
</svg>
