<?xml version="1.0" standalone="no"?>
<!DOCTYPE svg PUBLIC "-//W3C//DTD SVG 1.1//EN" "http://www.w3.org/Graphics/SVG/1.1/DTD/svg11.dtd" >
<svg xmlns="http://www.w3.org/2000/svg" xmlns:xlink="http://www.w3.org/1999/xlink" version="1.1" viewBox="-10 0 1010 1000">
   <path fill="currentColor"
d="M936 318v50h-84c27 59 68 122 105 153c-11 9 -28 25 -38 36c-26 -27 -54 -72 -77 -119v164h-53v-160c-27 50 -61 96 -94 125c-9 -11 -24 -27 -35 -35c45 -33 90 -99 118 -164h-69v-50h80v-55c-24 5 -48 9 -71 12c-3 -11 -10 -29 -16 -40c64 -12 142 -32 185 -50l39 41
c-24 10 -54 18 -84 25v67h94zM617 602h-52v-154c-23 44 -50 85 -77 112c-4 -14 -17 -35 -26 -48c34 -31 72 -89 96 -144h-82v-50h89v-57c-26 5 -50 9 -74 12c-3 -12 -10 -29 -17 -40c63 -11 138 -30 180 -48l40 42c-23 9 -49 16 -77 23v68h73v50h-73v14c19 15 71 58 84 70
l-31 37c-9 -13 -33 -38 -53 -58v171zM312 299l37 13c-31 321 -122 534 -248 645c-10 -15 -32 -41 -47 -51c73 -59 130 -151 171 -275c-24 -27 -59 -57 -90 -79l29 -57c28 18 59 41 83 65c16 -58 27 -122 35 -191h-106c-23 89 -52 168 -90 230c-9 -13 -34 -37 -49 -48
c60 -96 96 -240 118 -397h-99v-69h302v69h-138c-8 51 -17 100 -28 148h108zM460 159v290c0 151 -12 363 -103 504c-11 -12 -38 -31 -54 -39c85 -132 93 -322 93 -465v-352h539v62h-475zM743 755v112h203v61h-511v-61h88v-208h62v208h94v-271h64v101h172v58h-172z" />
</svg>
