<?xml version="1.0" standalone="no"?>
<!DOCTYPE svg PUBLIC "-//W3C//DTD SVG 1.1//EN" "http://www.w3.org/Graphics/SVG/1.1/DTD/svg11.dtd" >
<svg xmlns="http://www.w3.org/2000/svg" xmlns:xlink="http://www.w3.org/1999/xlink" version="1.1" viewBox="-10 0 1010 1000">
   <path fill="currentColor"
d="M651 143v34c0 89 -19 201 -106 279c-10 -16 -36 -42 -50 -53c81 -68 92 -157 92 -228v-99h253v231c0 28 1 38 14 38h52c10 0 28 -2 39 -5c2 20 4 46 6 65c-10 4 -28 6 -44 6h-59c-59 0 -71 -30 -71 -105v-163h-126zM125 228v108h-63v-173h184c-8 -33 -21 -74 -32 -105
l67 -18c15 39 32 89 40 123h172v164h-66v-99h-302zM292 302l48 -22c42 68 98 161 125 217l-52 28c-25 -56 -79 -152 -121 -223zM200 284l54 23c-39 77 -93 167 -137 225c-10 -12 -34 -34 -48 -45c47 -54 97 -133 131 -203zM464 764l3 67c-142 38 -295 78 -400 106l-9 -74
c49 -11 112 -26 180 -43v-196h-145v-69h360v69h-146v179zM836 547h-234c25 72 64 137 113 191c50 -53 93 -117 121 -191zM877 476l41 21c-32 120 -87 214 -155 287c54 47 118 82 191 104c-13 15 -31 43 -39 63c-76 -26 -143 -67 -199 -121c-68 59 -146 101 -227 130
c-7 -20 -22 -49 -34 -66c76 -23 150 -61 214 -114c-51 -62 -93 -136 -122 -220l32 -13h-66v-68h352z" />
</svg>
