<?xml version="1.0" standalone="no"?>
<!DOCTYPE svg PUBLIC "-//W3C//DTD SVG 1.1//EN" "http://www.w3.org/Graphics/SVG/1.1/DTD/svg11.dtd" >
<svg xmlns="http://www.w3.org/2000/svg" xmlns:xlink="http://www.w3.org/1999/xlink" version="1.1" viewBox="-10 0 1010 1000">
   <path fill="currentColor"
d="M675 147v79c0 81 -17 180 -104 246c-9 -13 -34 -38 -47 -47c77 -57 89 -133 89 -199v-141h239v239c0 27 2 35 13 35h45c11 0 27 -1 37 -4c2 18 4 44 6 60c-11 4 -27 5 -43 5h-49c-60 0 -72 -27 -72 -97v-176h-114zM252 251v-72h-206v-62h206v-73h67v73h203v62h-203v72
h168v62h-408v-62h173zM126 438v78h-62v-139h439v139h-65v-78h-312zM321 741v83c55 -6 111 -12 167 -19l2 58c-147 18 -300 38 -409 51l-10 -63c50 -5 114 -12 183 -19v-91h-141v-56h141v-85h-159v-58h387v58h-161v85h134v56h-134zM834 545h-178c21 63 49 121 86 171
c38 -50 69 -107 92 -171zM873 479l41 19c-27 107 -73 196 -130 268c51 56 114 98 188 125c-14 14 -34 40 -42 59c-74 -31 -138 -77 -190 -135c-60 62 -130 108 -205 141c-6 -17 -24 -44 -38 -57c73 -30 143 -75 201 -135c-42 -59 -74 -128 -99 -204l53 -15h-94v-63h303z" />
</svg>
