<?xml version="1.0" standalone="no"?>
<!DOCTYPE svg PUBLIC "-//W3C//DTD SVG 1.1//EN" "http://www.w3.org/Graphics/SVG/1.1/DTD/svg11.dtd" >
<svg xmlns="http://www.w3.org/2000/svg" xmlns:xlink="http://www.w3.org/1999/xlink" version="1.1" viewBox="-10 0 1010 1000">
   <path fill="currentColor"
d="M582 184h-254c-26 30 -55 60 -86 88h273c23 -26 47 -58 67 -88zM764 464v-128h-510v128h510zM181 528v-206c-26 21 -54 40 -83 59c-12 -17 -36 -40 -52 -52c140 -81 241 -194 294 -286l81 14c-14 22 -28 43 -44 65h249l12 -3l51 33c-22 39 -55 83 -87 120h238v256h-659z
M231 847l253 -48c0 19 1 48 3 62c-264 54 -298 63 -321 75c-5 -16 -20 -44 -30 -56c12 -9 25 -24 25 -64v-259h70v81h255v60h-255v149zM666 878h169c39 0 46 -17 51 -107c16 11 43 21 62 25c-7 108 -29 137 -107 137h-183c-98 0 -124 -19 -124 -91v-283h73v124
c92 -22 198 -58 256 -90l39 51c-73 40 -195 77 -295 99v99c0 30 9 36 59 36z" />
</svg>
