<?xml version="1.0" standalone="no"?>
<!DOCTYPE svg PUBLIC "-//W3C//DTD SVG 1.1//EN" "http://www.w3.org/Graphics/SVG/1.1/DTD/svg11.dtd" >
<svg xmlns="http://www.w3.org/2000/svg" xmlns:xlink="http://www.w3.org/1999/xlink" version="1.1" viewBox="-10 0 1010 1000">
   <path fill="currentColor"
d="M454 80l73 19c-28 69 -64 149 -93 200l-59 -18c27 -54 62 -140 79 -201zM198 271l-64 25c-12 -51 -42 -131 -72 -192l61 -21c31 59 62 137 75 188zM155 650h269v-102h-269v102zM424 384h-269v100h269v-100zM494 314v545c0 40 -9 60 -36 73c-27 12 -71 13 -145 12
c-2 -19 -11 -49 -21 -69c52 2 99 2 112 2c14 -1 20 -5 20 -20v-143h-269v234h-70v-634h172v-269h72v269h165zM766 870h103c26 0 31 -27 34 -141c17 14 43 27 62 32c-7 137 -25 182 -91 182h-116c-74 0 -94 -26 -94 -121v-170l-140 29l-7 -71l147 -29v-158l-131 28l-9 -71
l140 -28v-158c-40 9 -80 15 -120 22c-3 -16 -13 -44 -21 -59c122 -23 261 -59 340 -96l58 56c-54 24 -120 43 -189 61v160l171 -34l8 68l-179 37v158l200 -39l7 70l-207 41v183c0 41 5 48 34 48z" />
</svg>
