<?xml version="1.0" standalone="no"?>
<!DOCTYPE svg PUBLIC "-//W3C//DTD SVG 1.1//EN" "http://www.w3.org/Graphics/SVG/1.1/DTD/svg11.dtd" >
<svg xmlns="http://www.w3.org/2000/svg" xmlns:xlink="http://www.w3.org/1999/xlink" version="1.1" viewBox="-10 0 1010 1000">
   <path fill="currentColor"
d="M425 45l41 58c-104 40 -263 66 -398 80c-1 -17 -8 -43 -15 -59c131 -15 286 -44 372 -79zM308 337l-54 23c-5 -48 -24 -120 -44 -174l50 -21c22 54 42 126 48 172zM203 349l-52 27c-8 -47 -34 -116 -61 -168l49 -24c28 51 54 119 64 165zM426 380l45 36
c-46 58 -109 119 -167 164v45l165 -19l1 62c-55 7 -111 15 -166 22v179c0 39 -7 58 -34 69c-25 11 -66 12 -132 12c-3 -20 -14 -48 -22 -67c48 1 92 1 104 1c13 -1 17 -4 17 -16v-170c-68 8 -129 15 -181 22l-9 -66c52 -5 118 -13 190 -21v-74c39 -29 85 -71 119 -110h-269
v-65h277l-45 -23c28 -57 64 -150 83 -218l61 28c-30 73 -65 158 -94 213h43zM773 866h100c26 0 31 -26 35 -141c15 14 41 27 60 32c-7 135 -24 179 -91 179h-113c-73 0 -93 -26 -93 -118v-169l-147 30l-8 -68l155 -32v-159l-136 29l-9 -69l145 -29v-157
c-40 10 -81 19 -120 26c-3 -16 -13 -43 -21 -57c112 -24 239 -60 310 -98l54 54c-44 21 -98 40 -155 56v161l170 -34l8 67l-178 38v158l192 -38l7 68l-199 40v184c0 40 5 47 34 47z" />
</svg>
