<?xml version="1.0" standalone="no"?>
<!DOCTYPE svg PUBLIC "-//W3C//DTD SVG 1.1//EN" "http://www.w3.org/Graphics/SVG/1.1/DTD/svg11.dtd" >
<svg xmlns="http://www.w3.org/2000/svg" xmlns:xlink="http://www.w3.org/1999/xlink" version="1.1" viewBox="-10 0 1010 1000">
   <path fill="currentColor"
d="M799 186h-172c22 35 54 72 96 105c32 -30 57 -65 76 -105zM254 495v-166c-51 58 -119 112 -178 142c-5 -16 -17 -43 -27 -58c57 -26 128 -73 175 -123h-161v-57h191v-63h-166v-57h166v-70h66v70h157v57h-157v63h171v1c74 -54 122 -127 144 -190l62 10
c-11 25 -22 49 -36 74h281v58h-78c-22 55 -54 101 -93 139c53 36 117 65 189 84c-13 13 -32 40 -40 57c-76 -22 -143 -58 -198 -100c-58 43 -127 74 -202 96c-4 -13 -21 -42 -32 -55c70 -18 134 -44 187 -79c-37 -32 -66 -67 -89 -100c-16 18 -35 34 -56 50
c-8 -12 -25 -27 -39 -37v49h-171v1c47 23 140 71 167 86l-36 53c-26 -18 -84 -55 -131 -83v148h-66zM583 873h237c46 0 55 -12 60 -76c17 10 46 20 67 23c-10 91 -33 115 -121 115h-246c-116 0 -147 -20 -147 -101v-34l-369 35l-7 -52l376 -36v-65l-316 30l-7 -53l323 -30
v-68c-92 10 -188 19 -277 26c-2 -15 -10 -36 -16 -48c212 -17 462 -47 595 -82l54 43c-79 19 -177 37 -283 51v70l343 -32l7 52l-350 34v65l426 -41l7 52l-433 42v40c0 33 11 40 77 40z" />
</svg>
