<?xml version="1.0" standalone="no"?>
<!DOCTYPE svg PUBLIC "-//W3C//DTD SVG 1.1//EN" "http://www.w3.org/Graphics/SVG/1.1/DTD/svg11.dtd" >
<svg xmlns="http://www.w3.org/2000/svg" xmlns:xlink="http://www.w3.org/1999/xlink" version="1.1" viewBox="-10 0 1010 1000">
   <path fill="currentColor"
d="M266 419v-150c-49 64 -114 121 -175 156c-11 -17 -32 -42 -47 -54c66 -32 137 -92 184 -157h-143v-65h181v-106h70v106h161v65h-152c58 36 114 80 151 115l-31 56c-31 -31 -80 -71 -129 -105v139h-70zM107 513v-63h364v63h-364zM143 682l65 18c-27 70 -71 145 -113 194
c-11 -12 -37 -34 -52 -44c39 -44 76 -107 100 -168zM507 649h-169v222c0 33 -6 50 -31 60c-23 11 -60 11 -117 11c-3 -18 -13 -43 -23 -60c41 1 79 1 89 0c12 0 15 -3 15 -12v-221h-202v-64h438v64zM386 706l56 -29c30 43 67 102 82 138l-59 34c-15 -37 -49 -98 -79 -143z
M769 869h88c25 0 30 -29 33 -154c16 13 41 26 61 30c-8 144 -24 190 -89 190h-102c-70 0 -88 -24 -88 -111v-181l-137 31l-12 -65l149 -34v-150l-136 30l-12 -66l148 -31v-156c-44 14 -89 27 -132 37c-4 -15 -15 -41 -24 -56c125 -35 266 -85 344 -134l59 54
c-52 27 -114 54 -181 78v163l185 -39l11 64l-196 42v150l201 -45l11 64l-212 48v196c0 38 5 45 31 45z" />
</svg>
