<?xml version="1.0" standalone="no"?>
<!DOCTYPE svg PUBLIC "-//W3C//DTD SVG 1.1//EN" "http://www.w3.org/Graphics/SVG/1.1/DTD/svg11.dtd" >
<svg xmlns="http://www.w3.org/2000/svg" xmlns:xlink="http://www.w3.org/1999/xlink" version="1.1" viewBox="-10 0 1010 1000">
   <path fill="currentColor"
d="M545 141v63h-479v-63h217c-12 -26 -29 -55 -44 -78l59 -20c21 28 42 67 56 98h191zM494 604l45 41c-29 31 -66 62 -98 86c37 44 72 86 92 119l-49 43c-37 -61 -120 -160 -187 -231l45 -36c20 19 41 42 62 65c32 -27 67 -61 90 -87zM183 521h241v-76h-241v76zM424 323
h-241v69h241v-69zM489 267v119h65v64h-65v127h-165c-27 41 -63 81 -104 118v161l143 -44c-1 19 0 42 0 56c-160 59 -184 73 -199 85c-5 -16 -17 -50 -27 -67c11 -6 22 -18 22 -55v-87c-29 22 -60 41 -90 57c-7 -15 -23 -41 -32 -54c79 -41 160 -104 211 -170h-127v-127h-62
v-64h62v-119h368zM797 874h78c21 0 25 -26 27 -133c16 12 39 25 58 28c-6 127 -22 168 -81 168h-91c-64 0 -82 -23 -82 -104v-186l-110 26l-12 -65l122 -27v-165l-105 25l-13 -64l118 -27v-153c-34 13 -69 25 -102 35c-4 -15 -15 -39 -23 -53c98 -34 208 -81 268 -126l55 50
c-38 24 -84 47 -134 69v162l139 -32l12 62l-151 37v165l158 -35l11 64l-169 39v199c0 35 3 41 27 41z" />
</svg>
