<?xml version="1.0" standalone="no"?>
<!DOCTYPE svg PUBLIC "-//W3C//DTD SVG 1.1//EN" "http://www.w3.org/Graphics/SVG/1.1/DTD/svg11.dtd" >
<svg xmlns="http://www.w3.org/2000/svg" xmlns:xlink="http://www.w3.org/1999/xlink" version="1.1" viewBox="-10 0 1010 1000">
   <path fill="currentColor"
d="M578 175l33 -25c28 16 61 41 78 60l-34 28c-16 -19 -49 -45 -77 -63zM794 148h-293c32 51 79 93 138 125c63 -32 118 -74 155 -125zM471 588h136v-90h-136v90zM804 498h-129v90h129v-90zM904 773l-10 6c17 10 43 19 62 23c-14 105 -38 137 -171 137h-408
c-157 0 -205 -30 -205 -149v-153l-113 25l-12 -65l125 -27v-162l-108 22l-14 -63l122 -26v-156c-32 9 -64 16 -94 22c-8 -15 -25 -40 -38 -55c94 -18 218 -56 283 -93l43 53c-34 18 -78 37 -126 53v161l103 -21l12 56c76 -12 151 -31 220 -58c-58 -39 -104 -88 -136 -148
l19 -7h-65v-55h442l12 -3l43 22c-40 82 -106 146 -185 194c71 28 155 47 247 58c-15 13 -31 38 -40 57c-104 -15 -196 -42 -273 -81c-81 37 -170 63 -261 79c-6 -14 -17 -35 -27 -49l-111 23v164l122 -26l14 63l-136 29v169c0 69 19 87 130 87h414c80 0 97 -18 107 -98
l-42 24c-6 -12 -13 -25 -23 -39c-171 15 -345 29 -468 40l-7 -61c69 -4 158 -11 256 -19v-86h-199v-194h199v-70h68v70h195v194h-195v81l112 -9c-12 -15 -25 -32 -38 -46l52 -26c38 40 82 97 103 133z" />
</svg>
