<?xml version="1.0" standalone="no"?>
<!DOCTYPE svg PUBLIC "-//W3C//DTD SVG 1.1//EN" "http://www.w3.org/Graphics/SVG/1.1/DTD/svg11.dtd" >
<svg xmlns="http://www.w3.org/2000/svg" xmlns:xlink="http://www.w3.org/1999/xlink" version="1.1" viewBox="-10 0 1010 1000">
   <path fill="currentColor"
d="M313 176l-47 56c-35 -35 -110 -88 -168 -124l45 -50c57 34 133 83 170 118zM258 441l-45 59c-36 -34 -110 -84 -168 -119l44 -51c57 31 132 79 169 111zM142 940l-65 -47c46 -69 113 -185 162 -288l57 46c-46 95 -103 205 -154 289zM947 248h-392c-24 56 -49 109 -79 158
h153v-112h69v112h207v356c0 32 -4 52 -26 64c-21 12 -51 13 -94 13c-3 -20 -13 -48 -21 -67c29 1 53 1 63 0c8 0 11 -3 11 -11v-287h-140v481h-69v-481h-140v368h-71v-347c-27 38 -57 72 -87 102c-10 -16 -34 -47 -48 -61c77 -72 143 -172 194 -288h-139v-71h168
c15 -42 29 -86 41 -130l70 15c-11 40 -22 78 -36 115h366v71z" />
</svg>
