<?xml version="1.0" standalone="no"?>
<!DOCTYPE svg PUBLIC "-//W3C//DTD SVG 1.1//EN" "http://www.w3.org/Graphics/SVG/1.1/DTD/svg11.dtd" >
<svg xmlns="http://www.w3.org/2000/svg" xmlns:xlink="http://www.w3.org/1999/xlink" version="1.1" viewBox="-10 0 1010 1000">
   <path fill="currentColor"
d="M230 439l-41 62c-31 -34 -97 -81 -149 -111l38 -56c52 28 119 73 152 105zM126 941l-61 -54c41 -73 97 -194 140 -301l53 52c-39 99 -88 214 -132 303zM94 115l43 -51c47 34 108 85 137 121l-45 57c-28 -37 -87 -91 -135 -127zM678 653l61 -29c66 94 145 222 179 301
l-67 35c-12 -32 -32 -71 -56 -114c-395 53 -440 60 -469 74c-4 -16 -17 -56 -26 -76c21 -5 42 -32 71 -71c32 -39 128 -188 187 -329l79 30c-63 126 -139 251 -216 350l339 -41c-26 -45 -55 -91 -82 -130zM930 245h-196c52 109 139 216 226 270c-18 14 -41 41 -54 57
c-94 -67 -191 -198 -247 -327h-73c-58 141 -141 253 -252 332c-12 -14 -39 -45 -56 -58c100 -64 175 -157 227 -274h-189v-71h218c14 -41 26 -85 36 -131l75 13c-9 42 -21 81 -33 118h318v71z" />
</svg>
