<?xml version="1.0" standalone="no"?>
<!DOCTYPE svg PUBLIC "-//W3C//DTD SVG 1.1//EN" "http://www.w3.org/Graphics/SVG/1.1/DTD/svg11.dtd" >
<svg xmlns="http://www.w3.org/2000/svg" xmlns:xlink="http://www.w3.org/1999/xlink" version="1.1" viewBox="-10 0 1010 1000">
   <path fill="currentColor"
d="M897 170l-48 38c-21 -32 -68 -79 -109 -111l45 -35c42 31 90 77 112 108zM295 168l-36 60c-35 -34 -108 -82 -165 -112l35 -53c56 28 130 72 166 105zM242 428l-33 62c-37 -31 -111 -74 -168 -99l32 -55c57 23 132 62 169 92zM222 582l49 50c-44 101 -100 219 -149 308
l-56 -52c44 -74 108 -197 156 -306zM856 369l68 18c-37 111 -87 211 -147 297c25 110 56 182 92 191c16 4 30 -60 39 -159c13 14 37 31 54 41c-19 161 -63 212 -123 183c-47 -16 -85 -86 -113 -187c-61 73 -132 136 -210 187c-9 -14 -34 -42 -49 -55
c93 -55 172 -128 238 -216c-22 -108 -39 -239 -51 -379h-220v190v4l41 -35c55 38 119 95 149 136l-46 43c-28 -40 -90 -98 -144 -139c-1 141 -19 336 -115 466c-11 -14 -40 -39 -56 -47c90 -124 100 -299 100 -428v-259h286c-5 -58 -8 -117 -11 -175h69c2 58 5 117 9 175
h215v69h-210c9 108 22 211 37 300c39 -67 73 -141 98 -221z" />
</svg>
