<?xml version="1.0" standalone="no"?>
<!DOCTYPE svg PUBLIC "-//W3C//DTD SVG 1.1//EN" "http://www.w3.org/Graphics/SVG/1.1/DTD/svg11.dtd" >
<svg xmlns="http://www.w3.org/2000/svg" xmlns:xlink="http://www.w3.org/1999/xlink" version="1.1" viewBox="-10 0 1010 1000">
   <path fill="currentColor"
d="M288 157l-36 62c-34 -34 -105 -80 -160 -109l35 -54c55 26 127 69 161 101zM234 419l-35 63c-34 -31 -105 -75 -159 -103l34 -55c54 25 125 65 160 95zM120 938l-54 -51c45 -76 112 -205 161 -317l47 50c-45 103 -104 226 -154 318zM455 43l67 15c-17 69 -40 137 -66 200
v697h-66v-561c-25 44 -53 85 -82 119c-8 -14 -30 -48 -43 -63c85 -97 152 -250 190 -407zM936 338h-174c41 164 115 335 196 419c-16 12 -38 34 -50 50c-65 -78 -124 -214 -165 -356v505h-66v-505c-41 146 -101 283 -170 362c-12 -15 -34 -38 -49 -50
c84 -84 157 -257 198 -425h-162v-65h183v-227h66v227h193v65z" />
</svg>
