<?xml version="1.0" standalone="no"?>
<!DOCTYPE svg PUBLIC "-//W3C//DTD SVG 1.1//EN" "http://www.w3.org/Graphics/SVG/1.1/DTD/svg11.dtd" >
<svg xmlns="http://www.w3.org/2000/svg" xmlns:xlink="http://www.w3.org/1999/xlink" version="1.1" viewBox="-10 0 1010 1000">
   <path fill="currentColor"
d="M330 159l-43 62c-40 -36 -121 -83 -188 -112l41 -55c66 26 148 70 190 105zM271 429l-41 62c-40 -35 -119 -81 -185 -108l41 -56c63 25 144 67 185 102zM141 943l-62 -50c54 -76 132 -207 189 -319l54 49c-52 104 -122 227 -181 320zM495 51l66 18
c-22 66 -50 131 -82 193v693h-69v-578c-25 35 -49 67 -75 95c-8 -15 -31 -48 -45 -63c86 -87 160 -221 205 -358zM955 533h-175v327h157v70h-391v-70h161v-327h-185v-71h185v-248c-50 13 -101 24 -149 32c-3 -16 -15 -43 -25 -59c122 -25 261 -64 337 -107l59 59
c-42 21 -94 40 -149 55v268h175v71z" />
</svg>
