<?xml version="1.0" standalone="no"?>
<!DOCTYPE svg PUBLIC "-//W3C//DTD SVG 1.1//EN" "http://www.w3.org/Graphics/SVG/1.1/DTD/svg11.dtd" >
<svg xmlns="http://www.w3.org/2000/svg" xmlns:xlink="http://www.w3.org/1999/xlink" version="1.1" viewBox="-10 0 1010 1000">
   <path fill="currentColor"
d="M255 429l-38 62c-35 -35 -106 -81 -164 -108l35 -56c58 25 130 68 167 102zM138 943l-56 -50c48 -75 118 -206 170 -319l49 49c-47 105 -110 228 -163 320zM101 109l37 -55c59 26 133 70 169 105l-39 62c-35 -36 -108 -83 -167 -112zM476 601v-55h71v57
c0 108 -35 256 -170 357c-11 -15 -40 -40 -56 -49c131 -92 155 -218 155 -310zM719 954v-408h73v408h-73zM933 375h-184c50 73 129 148 202 184c-16 13 -38 38 -49 56c-83 -50 -173 -148 -226 -240h-93c-52 108 -127 190 -229 251c-7 -15 -31 -46 -46 -59
c87 -46 150 -110 197 -192h-155v-67h186c17 -41 30 -86 40 -134c-62 6 -124 10 -181 13c-2 -18 -12 -44 -20 -62c157 -10 348 -31 455 -61l43 62c-61 17 -139 30 -223 39c-11 52 -23 99 -39 143h322v67z" />
</svg>
