<?xml version="1.0" standalone="no"?>
<!DOCTYPE svg PUBLIC "-//W3C//DTD SVG 1.1//EN" "http://www.w3.org/Graphics/SVG/1.1/DTD/svg11.dtd" >
<svg xmlns="http://www.w3.org/2000/svg" xmlns:xlink="http://www.w3.org/1999/xlink" version="1.1" viewBox="-10 0 1010 1000">
   <path fill="currentColor"
d="M929 346l-63 26c-22 -45 -68 -107 -119 -165c40 -51 82 -113 105 -153l66 18c-27 45 -62 93 -95 134c42 47 84 103 106 140zM712 349l-64 25c-22 -45 -64 -108 -113 -167c40 -51 82 -114 106 -155l67 18c-29 45 -65 95 -97 137c40 48 80 104 101 142zM502 349l-65 25
c-21 -45 -62 -108 -110 -167c40 -51 84 -114 106 -155l67 18c-28 45 -65 95 -96 137c39 48 77 104 98 142zM283 171l-40 57c-32 -35 -98 -85 -151 -117l39 -51c51 29 119 76 152 111zM229 430l-37 59c-32 -33 -100 -79 -152 -110l36 -52c52 27 120 70 153 103zM120 936
l-55 -49c41 -70 99 -188 143 -292l49 47c-41 96 -93 208 -137 294zM936 463h-349c-14 27 -29 53 -48 77h299l13 -3l48 22c-98 228 -335 348 -590 402c-7 -18 -25 -46 -39 -60c122 -22 241 -61 339 -120c-36 -30 -89 -67 -134 -93l45 -43c50 27 111 67 146 97
c53 -39 97 -85 129 -138h-311c-44 43 -94 80 -145 109c-8 -13 -30 -40 -45 -53c88 -45 169 -113 216 -197h-198v-64h624v64z" />
</svg>
