<?xml version="1.0" standalone="no"?>
<!DOCTYPE svg PUBLIC "-//W3C//DTD SVG 1.1//EN" "http://www.w3.org/Graphics/SVG/1.1/DTD/svg11.dtd" >
<svg xmlns="http://www.w3.org/2000/svg" xmlns:xlink="http://www.w3.org/1999/xlink" version="1.1" viewBox="-10 0 1010 1000">
   <path fill="currentColor"
d="M963 395l-59 33c-16 -47 -59 -118 -101 -170l56 -28c42 50 87 119 104 165zM698 147l-41 55c-36 -31 -111 -74 -170 -102l40 -49c57 25 133 66 171 96zM747 543h-149c-74 0 -101 -13 -109 -60c-44 28 -90 52 -137 74c-9 -15 -32 -45 -47 -58c63 -26 125 -57 182 -94v-203
h69v155c98 -74 180 -165 237 -270l64 24c-74 132 -179 242 -301 329v8c0 26 7 30 47 30h138c34 0 40 -13 44 -108c16 12 44 23 64 27c-9 117 -30 146 -102 146zM380 218l64 27c-17 57 -43 129 -80 174l-63 -35c35 -41 64 -111 79 -166zM291 162l-37 62
c-35 -34 -104 -80 -160 -109l35 -54c55 26 127 69 162 101zM240 423l-35 63c-36 -31 -109 -72 -165 -96l33 -57c56 22 130 61 167 90zM223 581l47 49c-44 102 -101 218 -150 308l-54 -51c44 -73 109 -197 157 -306zM638 717v141h308v68h-678v-68h298v-141h-248v-68h248v-82
h72v82h267v68h-267z" />
</svg>
