<?xml version="1.0" standalone="no"?>
<!DOCTYPE svg PUBLIC "-//W3C//DTD SVG 1.1//EN" "http://www.w3.org/Graphics/SVG/1.1/DTD/svg11.dtd" >
<svg xmlns="http://www.w3.org/2000/svg" xmlns:xlink="http://www.w3.org/1999/xlink" version="1.1" viewBox="-10 0 1010 1000">
   <path fill="currentColor"
d="M255 170l-47 53c-25 -34 -80 -83 -127 -117l44 -47c47 32 104 78 130 111zM222 439l-43 58c-27 -37 -87 -90 -139 -125l41 -52c52 33 114 82 141 119zM105 940l-64 -41c40 -73 98 -197 139 -304l57 41c-38 99 -88 217 -132 304zM736 601h98v-145h-98v145zM582 456v145h95
v-145h-95zM677 248h-95v144h95v-144zM834 248h-98v144h98v-144zM958 601v65h-63v211c0 38 -8 56 -30 68c-23 11 -59 12 -114 12c-4 -17 -15 -46 -24 -62c41 1 80 0 91 0c12 0 16 -4 16 -17v-212h-252v292h-60v-292h-36l8 57l-245 69l-9 -65l101 -28v-459h-78v-61h218v61h-77
v442l61 -17v-64h57v-418h155v-137h59v137h159v418h63z" />
</svg>
