<?xml version="1.0" standalone="no"?>
<!DOCTYPE svg PUBLIC "-//W3C//DTD SVG 1.1//EN" "http://www.w3.org/Graphics/SVG/1.1/DTD/svg11.dtd" >
<svg xmlns="http://www.w3.org/2000/svg" xmlns:xlink="http://www.w3.org/1999/xlink" version="1.1" viewBox="-10 0 1010 1000">
   <path fill="currentColor"
d="M280 173l-41 57c-31 -36 -96 -86 -147 -119l38 -51c51 30 117 78 150 113zM228 430l-38 59c-33 -33 -98 -79 -150 -110l35 -53c52 27 120 72 153 104zM206 589l47 45c-38 98 -90 212 -134 299l-54 -46c40 -71 98 -192 141 -298zM430 322l40 14c-26 249 -94 435 -187 534
c-11 -14 -36 -39 -52 -47c84 -87 143 -242 168 -441h-145v-58h163zM633 577v88h141v61h-141v143c0 40 -10 57 -36 68c-28 11 -71 13 -138 13c-4 -19 -14 -46 -23 -64c52 2 99 1 112 1c15 -1 19 -5 19 -19v-142h-142v-61h142v-88h-104v-61h104v-95h-84v-61h84v-87
c53 -30 110 -74 152 -116h-356v-62h415l15 -4l45 34c-53 62 -130 128 -205 174v61h87v61h-87v95h107v61h-107zM900 301l47 42c-38 51 -84 112 -124 156c30 133 76 247 140 311c-15 12 -38 36 -49 54c-104 -116 -156 -329 -183 -567l58 -9c6 49 13 98 21 145
c33 -43 67 -93 90 -132z" />
</svg>
