<?xml version="1.0" standalone="no"?>
<!DOCTYPE svg PUBLIC "-//W3C//DTD SVG 1.1//EN" "http://www.w3.org/Graphics/SVG/1.1/DTD/svg11.dtd" >
<svg xmlns="http://www.w3.org/2000/svg" xmlns:xlink="http://www.w3.org/1999/xlink" version="1.1" viewBox="-10 0 1010 1000">
   <path fill="currentColor"
d="M817 275v-124h-164v124h164zM817 461v-128h-164v128h164zM426 333v128h157v-128h-157zM426 151v124h157v-124h-157zM890 89v434h-536v-434h536zM557 575l60 -30c46 44 99 105 123 148l-63 35c-23 -41 -75 -106 -120 -153zM288 158l-36 61c-34 -34 -105 -80 -160 -108
l36 -54c55 25 126 68 160 101zM234 420l-35 63c-34 -32 -105 -76 -159 -104l35 -55c54 25 124 65 159 96zM226 570l47 47c-44 104 -103 227 -153 321l-54 -50c45 -76 111 -207 160 -318zM326 890l-60 -24c38 -71 66 -184 81 -268l57 15c-14 86 -41 205 -78 277zM558 860h145
c38 0 45 -16 49 -124c16 12 44 22 65 27c-9 128 -30 160 -107 160h-159c-90 0 -113 -21 -113 -94v-244h70v244c0 26 7 31 50 31zM795 636l64 -21c45 76 88 175 101 238l-68 25c-11 -64 -51 -166 -97 -242z" />
</svg>
