<?xml version="1.0" standalone="no"?>
<!DOCTYPE svg PUBLIC "-//W3C//DTD SVG 1.1//EN" "http://www.w3.org/Graphics/SVG/1.1/DTD/svg11.dtd" >
<svg xmlns="http://www.w3.org/2000/svg" xmlns:xlink="http://www.w3.org/1999/xlink" version="1.1" viewBox="-10 0 1010 1000">
   <path fill="currentColor"
d="M618 416l-55 21c-2 -7 -4 -14 -5 -23c-187 22 -217 28 -235 37c-4 -16 -16 -49 -24 -69c14 -3 26 -20 39 -47c10 -20 40 -90 61 -163h-105v-63h331v63h-150c-22 68 -52 139 -82 197l145 -15c-13 -35 -28 -71 -43 -101l52 -19c30 58 60 133 71 182zM121 941l-55 -38
c37 -75 89 -201 129 -310l49 38c-36 102 -83 221 -123 310zM234 427l-38 51c-30 -31 -92 -73 -141 -102l38 -45c48 26 109 66 141 96zM82 97l40 -42c47 32 104 82 131 116l-42 46c-26 -34 -82 -85 -129 -120zM610 745l9 59c-111 37 -227 73 -317 100l-18 -68
c37 -9 84 -22 137 -37v-176h-107v-64h107v-103h65v103h114v64h-114v158c40 -11 82 -24 124 -36zM839 298h-103c-8 28 -16 55 -25 81c14 79 33 154 56 223c34 -90 56 -194 72 -304zM952 298h-53c-19 143 -50 276 -97 389c42 90 95 164 163 211c-16 13 -38 39 -51 57
c-60 -48 -108 -115 -146 -196c-42 82 -94 147 -158 194c-11 -15 -34 -37 -51 -49c73 -50 131 -126 176 -222c-25 -65 -44 -137 -60 -213c-10 21 -20 41 -32 60c-11 -12 -39 -35 -55 -45c69 -104 107 -267 127 -437l68 11c-8 60 -19 118 -30 172h199v68z" />
</svg>
