<?xml version="1.0" standalone="no"?>
<!DOCTYPE svg PUBLIC "-//W3C//DTD SVG 1.1//EN" "http://www.w3.org/Graphics/SVG/1.1/DTD/svg11.dtd" >
<svg xmlns="http://www.w3.org/2000/svg" xmlns:xlink="http://www.w3.org/1999/xlink" version="1.1" viewBox="-10 0 1010 1000">
   <path fill="currentColor"
d="M796 291l31 12c-12 107 -32 198 -60 274c27 48 50 94 63 132l-43 32c-10 -29 -27 -65 -46 -102c-27 57 -59 102 -95 137c-8 -15 -26 -38 -38 -48c40 -35 74 -85 101 -148c-28 -49 -58 -98 -88 -139l40 -28c24 32 49 68 71 105c16 -50 29 -105 38 -167h-129v-58h145z
M546 264c48 -26 102 -65 143 -103h-358v-63h422l14 -3l45 32c-54 61 -133 123 -206 165v442c0 36 -8 52 -31 62c-25 10 -66 11 -125 11c-3 -17 -11 -40 -18 -58c46 1 85 1 97 0c13 0 16 -3 16 -15zM394 584h66v-225h-66v225zM503 682h-43v-45h-66v58h-43v-394h152v381z
M253 177l-41 50c-26 -34 -78 -83 -120 -116l39 -45c43 30 96 78 122 111zM204 438l-39 54c-27 -33 -82 -81 -125 -113l38 -48c45 30 99 75 126 107zM116 932l-57 -45c36 -73 88 -195 125 -301l51 44c-34 98 -80 214 -119 302zM850 260h62v695h-62v-46h-600v-649h62v586h538
v-586z" />
</svg>
