<?xml version="1.0" standalone="no"?>
<!DOCTYPE svg PUBLIC "-//W3C//DTD SVG 1.1//EN" "http://www.w3.org/Graphics/SVG/1.1/DTD/svg11.dtd" >
<svg xmlns="http://www.w3.org/2000/svg" xmlns:xlink="http://www.w3.org/1999/xlink" version="1.1" viewBox="-10 0 1010 1000">
   <path fill="currentColor"
d="M241 434l-45 58c-31 -35 -99 -83 -154 -113l41 -51c55 27 124 72 158 106zM137 939l-64 -46c42 -73 102 -194 145 -300l56 44c-39 99 -92 214 -137 302zM94 109l44 -49c55 31 121 79 153 116l-47 55c-30 -37 -96 -88 -150 -122zM801 597h-370v89h370v-89zM431 844h370
v-98h-370v98zM366 957v-420h503v412h-68v-46h-370v54h-65zM935 320h-217c67 71 146 117 231 154c-16 16 -35 41 -44 61c-99 -51 -186 -115 -264 -215h-1v189h-70v-187c-62 84 -158 170 -245 214c-6 -20 -22 -51 -33 -68c70 -32 152 -88 208 -148h-191v-63h261v-96
c-70 7 -142 12 -208 15c-3 -17 -12 -42 -19 -58c172 -10 380 -30 498 -61l40 58c-66 17 -151 30 -241 39v103h295v63z" />
</svg>
