<?xml version="1.0" standalone="no"?>
<!DOCTYPE svg PUBLIC "-//W3C//DTD SVG 1.1//EN" "http://www.w3.org/Graphics/SVG/1.1/DTD/svg11.dtd" >
<svg xmlns="http://www.w3.org/2000/svg" xmlns:xlink="http://www.w3.org/1999/xlink" version="1.1" viewBox="-10 0 1010 1000">
   <path fill="currentColor"
d="M713 219l-58 26c-14 -42 -48 -109 -80 -156l54 -22c34 47 69 110 84 152zM237 183l-44 47c-26 -38 -81 -90 -127 -124l42 -41c47 33 102 83 129 118zM210 436l-37 52c-28 -31 -87 -76 -135 -105l36 -46c47 27 107 70 136 99zM176 597l49 37c-35 100 -81 218 -120 306
l-56 -38c37 -73 89 -198 127 -305zM339 541h101v-154h-99v57c0 30 0 63 -2 97zM440 167h-99v151h99v-151zM503 99v754c0 34 -7 54 -29 65c-20 13 -51 14 -101 14c-3 -18 -10 -48 -19 -66c33 1 63 1 72 1c11 0 14 -4 14 -15v-242h-105c-9 116 -31 240 -84 335
c-12 -10 -38 -27 -53 -33c75 -135 82 -327 82 -468v-345h223zM942 552h-169c36 142 104 269 201 332c-17 12 -38 36 -48 53c-86 -63 -149 -170 -191 -299c-27 102 -80 209 -183 304c-11 -15 -34 -34 -53 -45c123 -107 170 -234 186 -345h-148v-69h156c3 -34 3 -65 3 -93v-60
h-143v-69h188c31 -56 67 -143 87 -205l68 21c-27 60 -58 131 -87 184h106v69h-151v61c0 28 -1 59 -3 92h181v69z" />
</svg>
