<?xml version="1.0" standalone="no"?>
<!DOCTYPE svg PUBLIC "-//W3C//DTD SVG 1.1//EN" "http://www.w3.org/Graphics/SVG/1.1/DTD/svg11.dtd" >
<svg xmlns="http://www.w3.org/2000/svg" xmlns:xlink="http://www.w3.org/1999/xlink" version="1.1" viewBox="-10 0 1010 1000">
   <path fill="currentColor"
d="M289 158l-37 61c-34 -34 -105 -80 -159 -109l35 -53c55 25 126 68 161 101zM235 420l-36 62c-34 -31 -104 -75 -158 -102l34 -55c54 24 124 65 160 95zM228 571l47 50c-45 103 -104 226 -155 318l-54 -51c45 -76 113 -205 162 -317zM435 421v64h355v-64h-355zM435 304v64
h355v-64h-355zM435 188v63h355v-63h-355zM935 676h-255c70 77 177 155 266 194c-15 13 -36 37 -49 55c-83 -43 -182 -125 -254 -207v238h-71v-244c-70 91 -171 175 -265 219c-11 -16 -32 -42 -48 -55c96 -39 200 -117 267 -200h-225v-63h271v-72h-205v-409h156
c13 -30 25 -66 31 -91l75 11c-12 27 -23 55 -36 80h268v409h-218v72h292v63z" />
</svg>
