<?xml version="1.0" standalone="no"?>
<!DOCTYPE svg PUBLIC "-//W3C//DTD SVG 1.1//EN" "http://www.w3.org/Graphics/SVG/1.1/DTD/svg11.dtd" >
<svg xmlns="http://www.w3.org/2000/svg" xmlns:xlink="http://www.w3.org/1999/xlink" version="1.1" viewBox="-10 0 1010 1000">
   <path fill="currentColor"
d="M257 171l-42 47c-26 -35 -82 -87 -129 -121l41 -42c46 32 103 81 130 116zM218 426l-38 51c-31 -30 -91 -72 -141 -100l37 -45c49 25 111 65 142 94zM178 594l49 37c-34 102 -82 221 -123 309l-55 -37c38 -76 91 -201 129 -309zM382 496v67h144v-67h-144zM526 355h-144
v85h144v-85zM526 216h-144v83h144v-83zM593 155v715c0 37 -8 56 -34 68c-25 11 -67 12 -128 12c-3 -18 -14 -45 -24 -63c46 2 89 1 101 0c14 0 18 -4 18 -18v-238c-70 102 -174 195 -274 257c-8 -14 -27 -43 -40 -57c87 -50 179 -123 241 -204h-206v-64h69v-408h85
c12 -36 24 -80 30 -112l75 13c-13 32 -27 69 -40 99h127zM952 263v69h-74v530c0 43 -11 62 -38 73c-28 12 -73 15 -139 15c-4 -19 -16 -50 -26 -69c50 2 97 1 111 1c15 -1 19 -5 19 -20v-530h-177v-69h177v-212h73v212h74zM783 640l-62 21c-12 -60 -48 -158 -84 -231l59 -17
c36 73 75 169 87 227z" />
</svg>
