<?xml version="1.0" standalone="no"?>
<!DOCTYPE svg PUBLIC "-//W3C//DTD SVG 1.1//EN" "http://www.w3.org/Graphics/SVG/1.1/DTD/svg11.dtd" >
<svg xmlns="http://www.w3.org/2000/svg" xmlns:xlink="http://www.w3.org/1999/xlink" version="1.1" viewBox="-10 0 1010 1000">
   <path fill="currentColor"
d="M235 419l-36 63c-34 -31 -105 -76 -159 -103l35 -55c54 25 124 65 160 95zM122 935l-56 -48c41 -75 102 -204 146 -316l49 46c-40 104 -93 226 -139 318zM92 111l36 -54c55 25 126 68 160 101l-36 61c-34 -34 -105 -80 -160 -108zM771 485h-348v82h348v-82zM423 706h348
v-80h-348v80zM423 848h348v-82h-348v82zM515 230l55 30c-55 62 -127 123 -200 163h468v532h-67v-44h-348v46h-65v-527c-7 3 -14 7 -21 10l-44 -53c78 -32 164 -92 222 -157zM647 269l37 -41c78 43 181 109 232 156l-39 48c-49 -46 -150 -117 -230 -163zM646 136h281v160h-70
v-101h-500v106h-68v-165h278c-13 -25 -30 -53 -44 -76l66 -17c21 27 43 64 57 93z" />
</svg>
