<?xml version="1.0" standalone="no"?>
<!DOCTYPE svg PUBLIC "-//W3C//DTD SVG 1.1//EN" "http://www.w3.org/Graphics/SVG/1.1/DTD/svg11.dtd" >
<svg xmlns="http://www.w3.org/2000/svg" xmlns:xlink="http://www.w3.org/1999/xlink" version="1.1" viewBox="-10 0 1010 1000">
   <path fill="currentColor"
d="M845 105l59 26c-30 44 -65 91 -93 122l-51 -25c27 -32 65 -86 85 -123zM914 362l-39 49c-48 -42 -138 -104 -216 -152c-30 57 -87 114 -192 159c-8 -15 -28 -36 -43 -47c189 -76 205 -189 205 -266v-41h62v42c0 32 -2 66 -12 101c83 46 184 111 235 155zM496 106l55 10
c-16 49 -43 109 -77 145l-52 -29c31 -29 58 -80 74 -126zM240 423l-36 63c-35 -30 -108 -72 -164 -96l33 -57c56 21 129 61 167 90zM119 938l-54 -51c44 -72 110 -197 158 -306l47 49c-44 101 -102 219 -151 308zM94 115l35 -55c55 27 126 70 162 102l-38 62
c-34 -34 -103 -80 -159 -109zM388 846h557v65h-623v-835h66v348h547v64h-547v358zM911 781l-35 53c-47 -42 -136 -105 -214 -153c-28 58 -85 116 -199 161c-8 -16 -29 -36 -43 -48c190 -70 207 -173 207 -245v-38h62v40c0 23 -2 49 -8 75c81 46 180 112 230 155zM501 529
l55 12c-17 50 -47 111 -82 148l-51 -29c33 -32 62 -84 78 -131zM849 528l55 31c-28 43 -62 88 -90 118l-48 -27c27 -33 63 -85 83 -122z" />
</svg>
