<?xml version="1.0" standalone="no"?>
<!DOCTYPE svg PUBLIC "-//W3C//DTD SVG 1.1//EN" "http://www.w3.org/Graphics/SVG/1.1/DTD/svg11.dtd" >
<svg xmlns="http://www.w3.org/2000/svg" xmlns:xlink="http://www.w3.org/1999/xlink" version="1.1" viewBox="-10 0 1010 1000">
   <path fill="currentColor"
d="M852 102l68 19c-25 74 -59 162 -85 218l-59 -18c27 -58 60 -154 76 -219zM628 320l-61 21c-11 -57 -47 -148 -83 -218l56 -16c39 68 76 158 88 213zM665 836v-309c-45 94 -105 187 -167 241c-7 -19 -23 -50 -35 -66c64 -56 136 -158 177 -255h-169v-66h194v-335h69v335
h201v66h-189c46 56 164 217 191 256l-54 57c-26 -53 -98 -167 -149 -241v317h-69zM436 293l-61 27c-16 -50 -60 -126 -101 -182l57 -24c43 56 88 131 105 179zM242 172l-43 48c-27 -36 -85 -88 -133 -123l42 -43c48 32 107 82 134 118zM223 428l-39 53
c-32 -31 -94 -76 -145 -105l38 -46c50 26 114 68 146 98zM196 590l49 40c-41 103 -95 224 -140 314l-56 -41c43 -76 103 -203 147 -313zM429 385v406c21 9 41 28 73 49c51 33 115 42 201 42c75 0 187 -5 261 -13c-8 18 -18 52 -19 72c-58 4 -175 8 -244 8
c-92 0 -156 -14 -212 -49c-36 -25 -63 -52 -84 -52c-29 0 -72 53 -114 111l-48 -61c42 -45 82 -83 119 -100v-353h-99v-60h166z" />
</svg>
