<?xml version="1.0" standalone="no"?>
<!DOCTYPE svg PUBLIC "-//W3C//DTD SVG 1.1//EN" "http://www.w3.org/Graphics/SVG/1.1/DTD/svg11.dtd" >
<svg xmlns="http://www.w3.org/2000/svg" xmlns:xlink="http://www.w3.org/1999/xlink" version="1.1" viewBox="-10 0 1010 1000">
   <path fill="currentColor"
d="M835 296l60 10c-5 43 -13 84 -23 123c35 44 73 99 91 136l-40 50c-16 -33 -43 -78 -72 -118c-15 43 -35 81 -58 114c-10 -11 -35 -32 -49 -40c52 -67 78 -166 91 -275zM437 183l-45 53c-25 -37 -79 -91 -123 -127l42 -46c44 34 99 85 126 120zM514 299l62 7
c-5 38 -11 74 -19 109c29 39 58 87 73 119l-39 54c-12 -27 -33 -66 -55 -101c-20 56 -46 104 -80 142c-10 -10 -33 -31 -48 -41c64 -66 93 -169 106 -289zM229 378l40 -47c44 32 101 79 129 113l-42 54c-26 -34 -83 -85 -127 -120zM275 179l-42 55
c-30 -36 -91 -89 -140 -123l39 -49c50 32 113 82 143 117zM223 435l-39 59c-31 -34 -93 -83 -143 -115l38 -51c49 29 113 75 144 107zM198 602l49 47c-38 93 -89 203 -132 286l-57 -48c40 -69 98 -183 140 -285zM354 604l51 44c-32 91 -75 199 -112 282l-58 -45
c34 -69 83 -182 119 -281zM723 253v88c0 47 -1 98 -8 151c45 172 132 329 246 405c-16 14 -39 39 -51 59c-94 -72 -168 -193 -220 -336c-34 121 -104 240 -246 335c-9 -15 -33 -41 -50 -53c250 -153 259 -387 259 -561v-88h-205v-67h205v-143h70v143h214v67h-214z" />
</svg>
