<?xml version="1.0" standalone="no"?>
<!DOCTYPE svg PUBLIC "-//W3C//DTD SVG 1.1//EN" "http://www.w3.org/Graphics/SVG/1.1/DTD/svg11.dtd" >
<svg xmlns="http://www.w3.org/2000/svg" xmlns:xlink="http://www.w3.org/1999/xlink" version="1.1" viewBox="-10 0 1010 1000">
   <path fill="currentColor"
d="M278 171l-38 59c-32 -36 -97 -86 -148 -119l37 -53c51 30 117 78 149 113zM230 424l-35 62c-34 -32 -102 -77 -155 -106l34 -55c53 25 122 67 156 99zM120 936l-55 -49c42 -74 103 -201 149 -311l48 49c-41 102 -96 221 -142 311zM432 271l71 19c-16 41 -37 84 -60 127
v541h-70v-433c-23 31 -47 59 -73 84c-8 -15 -27 -41 -40 -54c77 -74 141 -190 172 -284zM830 654v-118h-224v118h224zM606 845h224v-129h-224v129zM519 368l1 -62h401v62h-169c-10 37 -20 74 -31 105h181v481h-72v-46h-224v48h-70v-483h115c8 -32 16 -70 22 -105h-154z
M683 140h264v155h-75v-92h-483v106h-73v-169h287c-12 -25 -29 -53 -45 -74l63 -27c25 30 48 71 62 101z" />
</svg>
