<?xml version="1.0" standalone="no"?>
<!DOCTYPE svg PUBLIC "-//W3C//DTD SVG 1.1//EN" "http://www.w3.org/Graphics/SVG/1.1/DTD/svg11.dtd" >
<svg xmlns="http://www.w3.org/2000/svg" xmlns:xlink="http://www.w3.org/1999/xlink" version="1.1" viewBox="-10 0 1010 1000">
   <path fill="currentColor"
d="M949 245h-280c-22 49 -48 94 -76 130c-11 -12 -37 -33 -53 -42c61 -70 104 -178 127 -291l64 13c-10 44 -22 87 -37 127h255v63zM474 154l-46 38c-15 -34 -50 -81 -83 -115l42 -32c35 32 71 78 87 109zM239 181l-46 46c-27 -37 -80 -90 -128 -127l45 -41
c47 34 102 86 129 122zM223 430l-39 52c-32 -32 -95 -76 -146 -105l38 -47c51 27 115 69 147 100zM179 589l51 39c-35 103 -83 224 -123 314l-58 -39c38 -76 91 -204 130 -314zM395 406h161s-1 23 -1 32c-10 337 -20 450 -43 484c-14 19 -30 26 -52 29c-19 2 -46 2 -76 1
c-1 -19 -7 -44 -16 -62c29 3 52 3 64 3c12 1 19 -1 26 -13c15 -23 25 -124 34 -413h-99c-10 212 -38 385 -130 496c-9 -14 -32 -35 -48 -43c109 -133 117 -368 119 -653h-69v-64h300v64h-167c-1 48 -1 94 -3 139zM945 653h-128c25 108 70 206 141 253c-15 13 -37 36 -47 54
c-65 -50 -109 -138 -138 -241c-25 82 -75 168 -174 240c-10 -15 -32 -35 -47 -45c114 -77 157 -175 172 -261h-137v-65h145c1 -19 1 -36 1 -53v-91h-36c-18 45 -39 86 -62 119c-12 -10 -38 -26 -53 -33c49 -63 83 -158 104 -253l60 12c-8 31 -17 63 -27 93h208v62h-129v91
c0 17 0 34 -2 53h149v65z" />
</svg>
