<?xml version="1.0" standalone="no"?>
<!DOCTYPE svg PUBLIC "-//W3C//DTD SVG 1.1//EN" "http://www.w3.org/Graphics/SVG/1.1/DTD/svg11.dtd" >
<svg xmlns="http://www.w3.org/2000/svg" xmlns:xlink="http://www.w3.org/1999/xlink" version="1.1" viewBox="-10 0 1010 1000">
   <path fill="currentColor"
d="M390 172l-33 49c-24 -34 -72 -83 -111 -116l32 -44c39 31 88 78 112 111zM380 440l-32 49c-23 -33 -71 -79 -111 -109l32 -43c39 28 88 71 111 103zM222 194l-41 43c-22 -37 -71 -93 -113 -132l39 -38c41 36 91 91 115 127zM206 449l-34 51c-29 -32 -88 -80 -135 -110
l34 -46c47 28 106 72 135 105zM166 575l51 40c-29 102 -68 223 -102 312l-57 -39c32 -77 76 -203 108 -313zM315 593l44 34c-27 100 -62 214 -92 301l-50 -36c28 -73 68 -194 98 -299zM647 543l-36 53c-11 -25 -33 -72 -54 -113v472h-62v-462c-25 114 -60 219 -99 286
c-11 -14 -31 -35 -44 -44c57 -84 105 -251 132 -409h-88v-65h99v-218h62v218h75v65h-75v70c24 36 77 123 90 147zM921 327h-91c29 146 81 319 126 402c-13 10 -32 27 -43 42c-33 -75 -71 -209 -98 -340v524h-62v-462c-28 121 -65 232 -105 301c-11 -14 -31 -35 -46 -45
c59 -87 113 -260 142 -422h-81v-66h90v-218h62v218h106v66z" />
</svg>
