<?xml version="1.0" standalone="no"?>
<!DOCTYPE svg PUBLIC "-//W3C//DTD SVG 1.1//EN" "http://www.w3.org/Graphics/SVG/1.1/DTD/svg11.dtd" >
<svg xmlns="http://www.w3.org/2000/svg" xmlns:xlink="http://www.w3.org/1999/xlink" version="1.1" viewBox="-10 0 1010 1000">
   <path fill="currentColor"
d="M430 539v71h380v-71h-380zM430 661v70h380v-70h-380zM430 421v68h380v-68h-380zM362 367h517v418h-517v-418zM698 843l33 -50c83 32 175 76 230 110l-39 54c-52 -34 -140 -79 -224 -114zM487 797l64 38c-61 46 -156 95 -235 122c-12 -14 -37 -36 -53 -49
c80 -25 175 -72 224 -111zM730 150v102h126v-102h-126zM558 150v102h121v-102h-121zM388 150v102h118v-102h-118zM326 93h594v217h-594v-217zM97 109l35 -55c58 25 130 69 166 105l-38 62c-34 -37 -105 -84 -163 -112zM50 383l34 -56c56 25 126 67 162 102l-36 61
c-34 -34 -104 -80 -160 -107zM79 893c47 -75 115 -207 166 -319l47 49c-46 104 -107 228 -159 320z" />
</svg>
