<?xml version="1.0" standalone="no"?>
<!DOCTYPE svg PUBLIC "-//W3C//DTD SVG 1.1//EN" "http://www.w3.org/Graphics/SVG/1.1/DTD/svg11.dtd" >
<svg xmlns="http://www.w3.org/2000/svg" xmlns:xlink="http://www.w3.org/1999/xlink" version="1.1" viewBox="-10 0 1010 1000">
   <path fill="currentColor"
d="M379 191v118h-67v-183h268c-8 -23 -20 -47 -30 -67l71 -17c14 25 30 58 41 84h267v183h-70v-118h-480zM462 415v63h320v-63h-320zM462 306v62h320v-62h-320zM852 526h-458v-269h458v269zM289 171l-44 58c-36 -31 -105 -83 -157 -121l44 -50c51 34 122 83 157 113z
M239 421l-38 63c-36 -28 -109 -71 -163 -101l38 -56c51 27 126 68 163 94zM226 575l54 42c-46 105 -106 230 -158 323l-60 -42c48 -78 115 -209 164 -323zM773 867h190c-10 16 -21 46 -24 65h-172c-156 0 -274 -23 -352 -121c-24 59 -55 109 -95 147
c-11 -11 -37 -34 -52 -44c62 -57 101 -146 117 -248l67 10c-4 21 -8 42 -14 63c34 60 87 93 151 110v-208h-294v-61h645v61h-281v75h243v57h-243v89c36 4 74 5 114 5z" />
</svg>
