<?xml version="1.0" standalone="no"?>
<!DOCTYPE svg PUBLIC "-//W3C//DTD SVG 1.1//EN" "http://www.w3.org/Graphics/SVG/1.1/DTD/svg11.dtd" >
<svg xmlns="http://www.w3.org/2000/svg" xmlns:xlink="http://www.w3.org/1999/xlink" version="1.1" viewBox="-10 0 1010 1000">
   <path fill="currentColor"
d="M839 377v-209h-132v209h132zM902 107v331h-256v-331h256zM545 197h-120c-16 29 -33 58 -48 82c31 10 62 22 94 34c30 -33 55 -71 74 -116zM614 381l-40 50c-25 -15 -57 -32 -93 -50c-48 43 -104 74 -163 95c-6 -15 -20 -39 -30 -52c48 -14 94 -37 135 -67
c-44 -19 -91 -35 -133 -46c22 -32 47 -72 70 -114h-83v-61h115c15 -32 30 -65 41 -95l58 14c-9 26 -21 54 -35 81h117l11 -2l35 14c-20 77 -53 139 -95 188c35 16 65 32 90 45zM258 173l-37 57c-28 -36 -89 -87 -136 -119l35 -50c47 29 108 78 138 112zM218 434l-37 56
c-31 -33 -92 -80 -140 -111l35 -51c48 28 110 72 142 106zM109 936l-48 -49c37 -70 87 -189 125 -293l41 47c-34 97 -80 209 -118 295zM409 763l61 21c-50 54 -126 112 -191 147c-8 -10 -30 -38 -42 -50c62 -30 130 -74 172 -118zM835 709l-206 10v170c0 32 -5 47 -32 58
c-26 10 -66 10 -129 10c-3 -17 -14 -39 -23 -56c51 2 90 2 102 1c13 -1 16 -4 16 -14v-165c-202 10 -234 14 -257 20c-3 -12 -12 -45 -20 -62c29 -2 62 -13 106 -29c26 -9 81 -30 145 -61c-159 6 -185 9 -200 14c-4 -13 -14 -42 -22 -58c17 -2 34 -7 56 -17s97 -48 150 -91
l58 36c-40 27 -82 50 -125 70l186 -5c26 -15 54 -30 79 -46l53 44c-90 52 -185 96 -281 133l307 -14c-16 -20 -32 -38 -47 -55l49 -27c47 48 98 114 119 159l-52 30c-8 -16 -18 -35 -32 -55zM705 796l42 -38c62 33 141 85 180 123l-42 44c-37 -39 -116 -94 -180 -129z" />
</svg>
