<?xml version="1.0" standalone="no"?>
<!DOCTYPE svg PUBLIC "-//W3C//DTD SVG 1.1//EN" "http://www.w3.org/Graphics/SVG/1.1/DTD/svg11.dtd" >
<svg xmlns="http://www.w3.org/2000/svg" xmlns:xlink="http://www.w3.org/1999/xlink" version="1.1" viewBox="-10 0 1010 1000">
   <path fill="currentColor"
d="M240 171l-44 46c-26 -35 -81 -86 -128 -120l43 -40c46 31 103 79 129 114zM395 432l-40 48c-30 -31 -87 -79 -133 -112l39 -43c46 31 105 76 134 107zM224 427l-39 50c-32 -30 -95 -72 -147 -100l39 -45c50 25 115 65 147 95zM184 593l50 37c-35 102 -85 222 -127 310
l-57 -37c39 -76 95 -202 134 -310zM273 944l-57 -37c39 -76 94 -202 134 -310l50 37c-35 102 -85 222 -127 310zM833 727h-118v181h-62v-181h-116v-57h116v-85h-106v-56h159c18 -43 37 -100 48 -140l54 16c-15 41 -34 86 -50 124h63v56h-106v85h118v57zM567 406l46 -14
c20 38 41 86 48 117l-48 18c-7 -31 -27 -83 -46 -121zM948 216h-240c-5 33 -10 65 -15 92h232v566c0 36 -7 58 -32 68c-25 12 -64 13 -125 13c-4 -19 -13 -47 -22 -65c46 1 84 1 96 0c13 -1 16 -4 16 -17v-501h-346v584h-67v-648h181c5 -27 9 -59 13 -92h-214v-17l-41 45
c-29 -32 -88 -85 -134 -122l41 -43c45 34 102 82 134 114v-42h221c4 -39 6 -76 8 -109l74 9c-4 31 -8 66 -11 100h231v65z" />
</svg>
