<?xml version="1.0" standalone="no"?>
<!DOCTYPE svg PUBLIC "-//W3C//DTD SVG 1.1//EN" "http://www.w3.org/Graphics/SVG/1.1/DTD/svg11.dtd" >
<svg xmlns="http://www.w3.org/2000/svg" xmlns:xlink="http://www.w3.org/1999/xlink" version="1.1" viewBox="-10 0 1010 1000">
   <path fill="currentColor"
d="M246 413l-42 61c-34 -32 -105 -74 -163 -99l41 -54c59 22 129 61 164 92zM196 587l59 39c-37 104 -87 227 -130 319l-67 -40c41 -77 97 -206 138 -318zM827 420h-440v84h440v-84zM899 559h-513c-3 124 -29 286 -126 399c-11 -14 -39 -38 -55 -46
c101 -116 114 -275 114 -389v-158h34l-44 -55c72 -26 161 -70 228 -116l58 29c-70 52 -161 109 -240 142h544v194zM655 243l37 -46c74 30 171 77 222 110l-39 50c-48 -33 -145 -82 -220 -114zM854 864v-88h65v179h-65v-35h-451v-144h62v88h150v-127h-184v-138h58v82h126v-98
h68v98h141v-82h59v138h-200v127h171zM635 119h298v155h-68v-98h-523v102h-66v-110l-45 52c-30 -34 -95 -82 -149 -113l45 -49c52 28 116 70 149 104v-43h279c-9 -21 -19 -41 -29 -60l68 -19c15 23 31 54 41 79z" />
</svg>
