<?xml version="1.0" standalone="no"?>
<!DOCTYPE svg PUBLIC "-//W3C//DTD SVG 1.1//EN" "http://www.w3.org/Graphics/SVG/1.1/DTD/svg11.dtd" >
<svg xmlns="http://www.w3.org/2000/svg" xmlns:xlink="http://www.w3.org/1999/xlink" version="1.1" viewBox="-10 0 1010 1000">
   <path fill="currentColor"
d="M376 189v83h-62v-139h251c-11 -25 -26 -54 -40 -76l65 -19c20 29 40 67 53 95h275v139h-65v-83h-477zM778 355l52 -28c45 54 92 127 108 177l-55 29c-17 -49 -61 -124 -105 -178zM514 247l44 -37c43 27 97 67 123 97l-44 41c-25 -30 -78 -73 -123 -101zM382 319l54 20
c-16 56 -42 121 -83 161l-52 -31c38 -36 66 -98 81 -150zM718 610h-143c-61 0 -86 -11 -95 -45c-46 25 -93 49 -142 69c-8 -13 -29 -40 -42 -53c63 -22 124 -50 180 -82v-187h60v150c86 -59 159 -131 208 -214l58 21c-65 106 -158 193 -266 261c1 19 10 22 45 22h131
c31 0 37 -12 40 -98c13 11 38 20 56 23c-7 106 -26 133 -90 133zM291 162l-37 62c-34 -34 -104 -80 -160 -109l36 -55c55 27 126 70 161 102zM240 423l-35 63c-35 -30 -109 -71 -164 -96l33 -57c56 22 129 61 166 90zM224 581l47 50c-44 101 -102 218 -151 307l-54 -51
c44 -72 110 -197 158 -306zM420 705v155h93v-155h-93zM660 705h-93v155h93v-155zM809 705h-95v155h95v-155zM872 860h76v60h-686v-60h97v-214h513v214z" />
</svg>
