<?xml version="1.0" standalone="no"?>
<!DOCTYPE svg PUBLIC "-//W3C//DTD SVG 1.1//EN" "http://www.w3.org/Graphics/SVG/1.1/DTD/svg11.dtd" >
<svg xmlns="http://www.w3.org/2000/svg" xmlns:xlink="http://www.w3.org/1999/xlink" version="1.1" viewBox="-10 0 1010 1000">
   <path fill="currentColor"
d="M778 445h-277l-30 15v66h307v-81zM778 660v-83h-307v83h307zM403 391h68c43 -20 85 -44 125 -68h-297v-57h238v-83h-179v-56h179v-82h69v82h162v56h-162v83h75c72 -53 135 -111 186 -176l55 27c-42 54 -91 104 -145 149h160v57h-232c-34 24 -70 47 -106 68h249v323h-445
v-223c-34 14 -69 27 -103 40c-7 -14 -26 -43 -39 -57c48 -15 95 -33 142 -53v-30zM297 156l-44 59c-33 -34 -102 -80 -159 -109l42 -53c57 27 127 69 161 103zM250 418l-43 60c-34 -32 -104 -76 -163 -104l42 -53c58 25 130 65 164 97zM207 585l59 41
c-39 105 -91 227 -136 319l-67 -42c41 -76 101 -206 144 -318zM321 956l-59 -31c44 -43 83 -116 105 -173l59 25c-25 59 -61 133 -105 179zM492 778l58 -10c16 52 28 119 31 164l-62 10c-2 -44 -14 -111 -27 -164zM639 780l56 -18c27 50 56 116 66 160l-58 20
c-10 -44 -38 -112 -64 -162zM792 769l57 -25c44 55 88 130 106 179l-59 28c-19 -50 -63 -126 -104 -182z" />
</svg>
