<?xml version="1.0" standalone="no"?>
<!DOCTYPE svg PUBLIC "-//W3C//DTD SVG 1.1//EN" "http://www.w3.org/Graphics/SVG/1.1/DTD/svg11.dtd" >
<svg xmlns="http://www.w3.org/2000/svg" xmlns:xlink="http://www.w3.org/1999/xlink" version="1.1" viewBox="-10 0 1010 1000">
   <path fill="currentColor"
d="M788 288v-100h-86v100h86zM788 449v-99h-86v99h86zM423 350v99h81v-99h-81zM646 350h-86v99h86v-99zM560 288h86v-100h-86v100zM423 188v100h81v-100h-81zM368 188h-5c-20 24 -44 48 -70 70c-10 -15 -32 -34 -46 -43c66 -52 113 -118 140 -174l64 11
c-11 25 -26 50 -42 75h502v61h-66v100h80v62h-80v99h99v61h-685v-61h109v-99h-87v-62h87v-100zM251 166l-44 49c-26 -34 -81 -84 -127 -117l42 -45c46 32 103 80 129 113zM224 436l-40 53c-30 -33 -89 -81 -138 -113l39 -46c48 30 110 75 139 106zM180 611l52 41
c-33 95 -77 205 -114 290l-59 -39c37 -71 86 -189 121 -292zM542 580l39 17c-45 185 -149 298 -276 358c-9 -14 -29 -39 -43 -50c55 -23 105 -56 146 -101c-23 -22 -56 -46 -83 -65l38 -38c27 16 58 38 82 57c25 -35 45 -76 60 -122h-134c-28 42 -62 79 -96 108
c-9 -10 -30 -33 -44 -42c61 -46 112 -115 140 -188l58 14c-7 18 -16 36 -26 54h128zM957 760v58h-134v139h-58v-139h-189c12 -40 24 -97 33 -143l55 6c-5 26 -11 53 -17 79h118v-114h-156v-57h156v-70h58v70h109v57h-109v114h134z" />
</svg>
