<?xml version="1.0" standalone="no"?>
<!DOCTYPE svg PUBLIC "-//W3C//DTD SVG 1.1//EN" "http://www.w3.org/Graphics/SVG/1.1/DTD/svg11.dtd" >
<svg xmlns="http://www.w3.org/2000/svg" xmlns:xlink="http://www.w3.org/1999/xlink" version="1.1" viewBox="-10 0 1010 1000">
   <path fill="currentColor"
d="M740 195h-47c-14 28 -31 54 -48 75c-11 -9 -40 -25 -55 -32c42 -49 71 -122 88 -195l65 13c-6 27 -15 54 -25 80h214v59h-125c19 29 37 63 45 86l-60 19c-9 -28 -30 -71 -52 -105zM108 944l-59 -42c37 -73 89 -197 127 -305l53 40c-34 100 -80 217 -121 307zM214 436
l-38 56c-29 -33 -90 -79 -138 -110l38 -48c48 29 109 72 138 102zM66 106l44 -44c46 34 102 84 129 119l-46 48c-26 -37 -81 -89 -127 -123zM422 195h-40c-23 45 -51 84 -80 117c-13 -10 -42 -27 -59 -34c59 -58 104 -145 129 -235l68 14c-8 26 -18 54 -29 79h171v59h-96
c15 31 27 65 32 88l-59 15c-5 -28 -20 -69 -37 -103zM396 595h158c12 -27 18 -54 21 -78h-179v78zM396 390v77h181v-77h-181zM818 467v-77h-175v77h175zM818 595v-78h-178c-2 24 -8 51 -18 78h196zM945 763v64h-213v132h-71v-132h-403v-64h104c79 -35 129 -75 161 -115h-195
v-311h196c14 -23 28 -48 36 -67l76 15c-12 19 -24 36 -36 52h289v311h-293c-23 39 -58 79 -110 115h175v-91h71v91h213z" />
</svg>
