<?xml version="1.0" standalone="no"?>
<!DOCTYPE svg PUBLIC "-//W3C//DTD SVG 1.1//EN" "http://www.w3.org/Graphics/SVG/1.1/DTD/svg11.dtd" >
<svg xmlns="http://www.w3.org/2000/svg" xmlns:xlink="http://www.w3.org/1999/xlink" version="1.1" viewBox="-10 0 1010 1000">
   <path fill="currentColor"
d="M420 180l-43 55c-26 -33 -83 -80 -131 -111l41 -49c48 30 106 73 133 105zM226 393l39 -50c49 25 109 66 138 96l-41 56c-28 -31 -87 -74 -136 -102zM236 164l-42 54c-29 -34 -86 -81 -134 -112l40 -49c49 28 108 73 136 107zM218 420l-40 55c-29 -31 -90 -76 -140 -105
l39 -49c51 25 112 67 141 99zM172 590l53 36c-30 103 -74 226 -112 317l-59 -36c35 -78 84 -206 118 -317zM330 608l54 35c-29 102 -73 223 -108 312l-61 -36c35 -76 82 -202 115 -311zM431 945l-50 -29c45 -50 79 -133 99 -199l51 19c-22 69 -53 155 -100 209zM583 739
l52 -6c16 64 28 146 27 195l-54 9c1 -50 -10 -133 -25 -198zM703 733l48 -11c23 61 43 140 48 187l-51 13c-5 -48 -24 -128 -45 -189zM824 729l50 -17c35 62 71 146 84 196l-52 22c-14 -52 -47 -137 -82 -201zM536 452v181h68v-181h-68zM536 210v182h68v-182h-68zM830 392
v-182h-64v182h64zM655 392h60v-182h-60v182zM715 452h-60v181h60v-181zM830 633v-181h-64v181h64zM885 633h76v60h-551v-60h69v-181h-45v-60h45v-116c-17 24 -33 47 -51 66c-8 -11 -27 -34 -40 -45c60 -64 112 -158 142 -255l54 14c-10 31 -22 63 -36 93h396v61h-59v182h58
v60h-58v181z" />
</svg>
