<?xml version="1.0" standalone="no"?>
<!DOCTYPE svg PUBLIC "-//W3C//DTD SVG 1.1//EN" "http://www.w3.org/Graphics/SVG/1.1/DTD/svg11.dtd" >
<svg xmlns="http://www.w3.org/2000/svg" xmlns:xlink="http://www.w3.org/1999/xlink" version="1.1" viewBox="-10 0 1010 1000">
   <path fill="currentColor"
d="M223 422l-35 61c-32 -31 -97 -75 -148 -103l34 -55c50 26 117 67 149 97zM122 935l-56 -48c39 -77 95 -205 137 -316l50 47c-37 104 -87 226 -131 317zM92 111l36 -53c50 28 116 72 147 104l-38 61c-30 -35 -94 -81 -145 -112zM502 134h-142v68h142v-68zM360 324h142v-72
h-142v72zM565 380h-205v576h-68v-877h273v301zM687 473h-139c-24 42 -57 82 -100 117c-10 -12 -29 -27 -44 -33c65 -50 106 -116 126 -173l57 8c-4 11 -9 22 -14 34h142l9 -2l39 25c-21 45 -55 97 -81 130c-11 -7 -30 -18 -42 -24c15 -22 33 -53 47 -82zM613 644v-50h159
v273h-281v27h-56v-290c42 -12 92 -29 122 -42l41 38c-33 13 -72 24 -107 33v74h96v46h-96v67h224v-67h-94v-46h94v-63h-102zM703 324h146v-72h-146v72zM849 134h-146v68h146v-68zM919 79v798c0 31 -7 49 -28 60c-19 12 -48 13 -90 13c-4 -17 -15 -44 -24 -61c28 1 52 1 60 1
c9 -1 12 -4 12 -13v-497h-210v-301h280z" />
</svg>
