<?xml version="1.0" standalone="no"?>
<!DOCTYPE svg PUBLIC "-//W3C//DTD SVG 1.1//EN" "http://www.w3.org/Graphics/SVG/1.1/DTD/svg11.dtd" >
<svg xmlns="http://www.w3.org/2000/svg" xmlns:xlink="http://www.w3.org/1999/xlink" version="1.1" viewBox="-10 0 1010 1000">
   <path fill="currentColor"
d="M641 198v100h110v-100h-110zM837 480h-113v89h113v-89zM837 708v-89h-113v89h113zM549 619v89h115v-89h-115zM549 480v89h115v-89h-115zM664 425v-68h-197v-59h116v-100h-97v-57h97v-97h58v97h110v-97h58v97h101v57h-101v100h116v59h-201v68h174v339h-408v-339h174z
M238 182l-44 47c-26 -37 -81 -89 -127 -123l42 -41c46 33 102 83 129 117zM211 436l-37 52c-28 -32 -87 -77 -135 -106l36 -46c47 28 107 70 136 100zM105 940l-56 -38c35 -69 85 -185 120 -286l49 37c-32 95 -75 204 -113 287zM472 465l-36 55c-11 -23 -35 -68 -57 -105
v539h-61v-497c-23 77 -51 148 -81 194c-7 -21 -22 -53 -33 -73c42 -60 84 -172 103 -269h-90v-65h101v-201h61v201h81v65h-81v28c23 28 79 108 93 128zM613 765l55 39c-50 56 -129 113 -196 148c-9 -14 -25 -37 -38 -51c65 -33 142 -89 179 -136zM735 811l38 -43
c67 42 140 97 184 137l-47 47c-41 -41 -112 -97 -175 -141z" />
</svg>
