<?xml version="1.0" standalone="no"?>
<!DOCTYPE svg PUBLIC "-//W3C//DTD SVG 1.1//EN" "http://www.w3.org/Graphics/SVG/1.1/DTD/svg11.dtd" >
<svg xmlns="http://www.w3.org/2000/svg" xmlns:xlink="http://www.w3.org/1999/xlink" version="1.1" viewBox="-10 0 1010 1000">
   <path fill="currentColor"
d="M793 561l-28 -17c13 -21 32 -54 40 -76l36 22c-17 27 -34 52 -48 71zM610 488l32 -17c16 20 32 50 40 69l-33 19c-7 -19 -25 -50 -39 -71zM634 183l-6 8c22 30 52 60 92 86c39 -26 73 -58 99 -94h-185zM585 464v104h117v-104h-117zM863 568v-104h-113v104h113zM538 422
l-21 5c-7 -17 -19 -41 -31 -55c63 -14 127 -35 184 -66c-32 -24 -56 -50 -76 -76c-20 21 -39 39 -60 55c-10 -11 -32 -32 -45 -43c67 -46 127 -117 162 -196l55 16c-10 23 -22 44 -34 66h185l11 -3l37 21c-29 65 -75 119 -130 162c54 28 119 49 195 61c-12 14 -27 39 -33 57
c-85 -17 -157 -46 -214 -82c-57 34 -120 59 -183 77h372v190h-162v41h164v50h-164v49h193v53h-434v-53h193v-49h-161v-50h161v-41h-164v-189zM241 171l-43 47c-26 -34 -83 -86 -129 -120l40 -43c47 33 104 82 132 116zM218 431l-38 50c-31 -30 -91 -74 -137 -105l37 -43
c46 27 108 70 138 98zM51 903c39 -75 92 -201 130 -310l49 38c-35 101 -83 221 -123 309zM386 50l56 18c-19 67 -42 136 -68 199v686h-59v-562c-18 32 -36 62 -56 89c-7 -16 -24 -50 -36 -67c67 -89 126 -226 163 -363zM481 200v590h-53v-590h53zM513 955l-44 -30
c36 -28 69 -76 88 -112l43 23c-22 41 -50 88 -87 119zM635 835l45 -10c12 34 25 79 28 107l-47 15c-3 -29 -14 -76 -26 -112zM731 838l42 -15c19 32 40 77 48 105l-44 20c-7 -29 -28 -75 -46 -110zM830 829l44 -23c32 36 69 87 87 121l-46 25c-17 -33 -53 -86 -85 -123z" />
</svg>
