<?xml version="1.0" standalone="no"?>
<!DOCTYPE svg PUBLIC "-//W3C//DTD SVG 1.1//EN" "http://www.w3.org/Graphics/SVG/1.1/DTD/svg11.dtd" >
<svg xmlns="http://www.w3.org/2000/svg" xmlns:xlink="http://www.w3.org/1999/xlink" version="1.1" viewBox="-10 0 1010 1000">
   <path fill="currentColor"
d="M234 168l-42 47c-27 -35 -80 -85 -126 -118l41 -42c46 31 101 79 127 113zM214 433l-40 49c-29 -30 -88 -76 -136 -106l39 -43c47 29 107 71 137 100zM173 593l50 38c-33 101 -79 220 -118 309l-56 -37c36 -75 87 -202 124 -310zM338 412h125s-1 23 -1 32
c-11 324 -20 429 -42 464c-13 19 -27 26 -47 29c-16 3 -41 3 -65 1c-1 -19 -6 -46 -14 -64c25 3 44 3 56 3c9 1 16 -2 23 -13c14 -23 24 -119 33 -389h-71c-9 189 -33 362 -99 475c-10 -14 -30 -34 -45 -45c82 -137 92 -385 95 -629h-69v-62h120c-10 -36 -35 -94 -57 -136
l53 -22c24 42 49 100 61 135l-49 23h130v43c46 -60 83 -135 107 -215l57 15c-9 33 -22 66 -36 97h354v61h-384c-28 50 -59 94 -91 129c-11 -11 -37 -29 -52 -38c10 -9 20 -19 29 -30h-117c-1 46 -2 91 -4 136zM610 780l56 22c-41 58 -110 119 -169 157
c-10 -12 -31 -38 -45 -50c59 -32 122 -80 158 -129zM744 810l47 -33c57 42 131 103 167 143l-49 39c-34 -41 -107 -105 -165 -149zM913 706h46v60h-492v-60h49l-8 -373c39 -20 87 -46 118 -70l24 52c-27 18 -61 35 -92 49l2 63h71v54h-70l2 85h68v54h-67l2 86h90v-201h38
v201h42v-238h-79v-228h43v66h79v49h-79v63h79v288h83c1 -26 2 -55 3 -86h-66v-54h67c1 -28 2 -56 2 -85h-70v-54h71c1 -28 1 -57 1 -84h-73v-55h125c-1 130 -4 306 -9 418z" />
</svg>
