<?xml version="1.0" standalone="no"?>
<!DOCTYPE svg PUBLIC "-//W3C//DTD SVG 1.1//EN" "http://www.w3.org/Graphics/SVG/1.1/DTD/svg11.dtd" >
<svg xmlns="http://www.w3.org/2000/svg" xmlns:xlink="http://www.w3.org/1999/xlink" version="1.1" viewBox="-10 0 1010 1000">
   <path fill="currentColor"
d="M828 125v592h-47v-592h47zM203 216l-47 38c-18 -38 -60 -96 -97 -137l44 -34c37 39 80 95 100 133zM182 445l-44 39c-20 -37 -63 -92 -102 -130l43 -34c38 36 83 89 103 125zM128 572l46 30c-22 99 -53 218 -81 304l-51 -29c27 -74 62 -200 86 -305zM408 148h-150v116
h150v-116zM258 317v103c0 145 -9 354 -71 494c-9 -7 -32 -20 -45 -26c60 -136 65 -328 65 -468v-325h253v222h-202zM343 640h38v-135h-38v132v3zM466 692h-40v235h-45v-235h-39c-5 77 -20 170 -65 239c-5 -9 -23 -22 -34 -27c39 -63 51 -142 55 -212h-45v-52h46v-3v-132h-29
v-52h42c-7 -26 -22 -70 -36 -102l45 -11c14 33 30 75 37 99l-43 14h53c12 -36 29 -90 36 -126l51 18c-14 35 -28 77 -41 108h50v52h-38v135h40v52zM696 146h-150v116h150v-116zM546 315v103c0 144 -7 352 -61 494c-10 -8 -32 -20 -45 -26c52 -137 55 -330 55 -468v-325h253
v222h-202zM632 638h38v-135h-38v133v2zM714 503v135h40v52h-40v235h-44v-235h-39c-5 77 -20 169 -64 239c-7 -9 -24 -23 -35 -28c39 -62 51 -141 55 -211h-45v-52h46v-3v-132h-30v-52h43c-7 -26 -22 -70 -37 -103l46 -12c14 34 31 76 38 100l-44 15h55
c13 -36 29 -89 36 -126l51 18c-14 36 -28 76 -41 108h44v52h-35zM872 70h50v789c0 33 -9 48 -29 56c-21 9 -57 10 -116 10c-2 -14 -8 -35 -14 -49c42 1 82 1 92 1c12 -1 17 -4 17 -17v-790z" />
</svg>
