<?xml version="1.0" standalone="no"?>
<!DOCTYPE svg PUBLIC "-//W3C//DTD SVG 1.1//EN" "http://www.w3.org/Graphics/SVG/1.1/DTD/svg11.dtd" >
<svg xmlns="http://www.w3.org/2000/svg" xmlns:xlink="http://www.w3.org/1999/xlink" version="1.1" viewBox="-10 0 1010 1000">
   <path fill="currentColor"
d="M376 197l-40 42c-22 -36 -70 -90 -112 -127l39 -38c41 36 91 87 113 123zM211 368l35 -40c42 31 92 78 118 109l-39 45c-23 -33 -73 -82 -114 -114zM226 171l-41 49c-25 -36 -80 -87 -126 -121l39 -42c46 32 102 80 128 114zM207 430l-38 49c-28 -32 -84 -78 -131 -107
l38 -45c45 28 102 72 131 103zM175 593l48 37c-35 102 -82 222 -121 310l-53 -37h-1c37 -76 90 -201 127 -310zM313 598l42 37c-33 94 -76 206 -114 289l-48 -38c34 -70 83 -187 120 -288zM486 928l-44 -27c29 -38 48 -104 59 -157l47 17c-10 56 -30 125 -62 167zM773 404
v-59h-87v59h87zM773 507v-61h-87v61h87zM773 605v-57h-87v57h87zM636 682v-258c-13 21 -25 42 -39 59c-6 -8 -19 -27 -30 -38v246h-50v-266c-14 23 -28 44 -42 61c-4 -7 -13 -21 -22 -33v43c0 139 -11 332 -84 460c-10 -11 -35 -29 -49 -35c68 -121 74 -293 74 -425v-352
h266c-9 -25 -24 -55 -39 -78l52 -21c22 29 40 70 49 99h224v55h-493v226c42 -55 79 -132 101 -208l50 13c-11 34 -22 67 -37 99v107c44 -57 79 -136 100 -217l48 12c-7 23 -13 45 -21 68h81c-8 -23 -19 -48 -31 -69l43 -19c17 26 34 62 41 88h96v46h-101v59h95v42h-95v61h95
v41h-95v57h114v47h-251v30h-50zM646 712l41 -25c40 37 83 88 102 123l-45 28c-18 -36 -61 -91 -98 -126zM674 892h103c23 0 28 -8 31 -72c12 9 35 17 51 22c-5 81 -23 102 -75 102h-116c-70 0 -87 -16 -87 -76v-134h59v134c0 21 5 24 34 24zM806 745l45 -25
c46 47 92 112 109 158l-49 30c-15 -47 -60 -115 -105 -163z" />
</svg>
