<?xml version="1.0" standalone="no"?>
<!DOCTYPE svg PUBLIC "-//W3C//DTD SVG 1.1//EN" "http://www.w3.org/Graphics/SVG/1.1/DTD/svg11.dtd" >
<svg xmlns="http://www.w3.org/2000/svg" xmlns:xlink="http://www.w3.org/1999/xlink" version="1.1" viewBox="-10 0 1010 1000">
   <path fill="currentColor"
d="M350 218l61 24c-28 68 -61 151 -88 204l-45 -21c24 -55 56 -145 72 -207zM89 246l55 8c-3 80 -18 188 -43 258l-56 -23c24 -61 40 -164 44 -243zM383 764l-52 53c-18 -34 -57 -93 -92 -141c-23 102 -67 198 -149 282c-10 -16 -33 -40 -49 -51c141 -146 157 -337 157 -520
v-338h67v338c0 70 -2 139 -11 207c34 42 109 144 129 170zM705 572h154v-161h-154v161zM484 572h155v-161h-152v62c0 32 -1 65 -3 99zM639 181h-152v163h152v-163zM859 344v-163h-154v163h154zM927 114v752c0 41 -9 62 -34 74c-26 13 -69 14 -134 14c-3 -19 -12 -50 -21 -70
c47 2 90 2 103 1c14 0 18 -5 18 -20v-226h-154v301h-66v-301h-160c-13 114 -42 232 -111 321c-10 -15 -37 -39 -52 -47c95 -124 104 -302 104 -441v-358h507z" />
</svg>
