<?xml version="1.0" standalone="no"?>
<!DOCTYPE svg PUBLIC "-//W3C//DTD SVG 1.1//EN" "http://www.w3.org/Graphics/SVG/1.1/DTD/svg11.dtd" >
<svg xmlns="http://www.w3.org/2000/svg" xmlns:xlink="http://www.w3.org/1999/xlink" version="1.1" viewBox="-10 0 1010 1000">
   <path fill="currentColor"
d="M340 211l58 24c-27 68 -60 151 -86 204l-44 -21c24 -55 56 -145 72 -207zM87 246l52 8c-3 80 -18 188 -42 258l-54 -23c24 -62 39 -164 44 -243zM393 789l-49 54c-21 -37 -70 -105 -109 -156c-22 97 -65 190 -140 271c-10 -16 -33 -40 -47 -51
c135 -147 150 -336 150 -520v-338h65v338c0 75 -2 150 -13 224c35 39 122 151 143 178zM911 492l43 23c-83 264 -297 389 -531 446c-6 -19 -22 -46 -35 -61c110 -23 216 -64 304 -128c-27 -29 -66 -64 -102 -89l53 -37c35 23 74 54 101 83c50 -48 92 -103 121 -170h-193
c-56 58 -126 112 -211 157c-10 -17 -29 -40 -44 -52c128 -61 221 -149 273 -233c-72 54 -155 94 -238 121c-8 -16 -23 -41 -36 -55c80 -23 161 -61 230 -112c-26 -26 -65 -57 -98 -80l51 -36c32 20 71 50 98 75c45 -41 83 -89 112 -143h-194c-46 50 -102 97 -169 137
c-10 -16 -31 -38 -46 -50c122 -67 207 -163 251 -245l70 15c-16 27 -34 55 -54 81h176l13 -3l43 24c-39 102 -102 183 -177 247l55 12c-14 25 -31 51 -50 76h170z" />
</svg>
