<?xml version="1.0" standalone="no"?>
<!DOCTYPE svg PUBLIC "-//W3C//DTD SVG 1.1//EN" "http://www.w3.org/Graphics/SVG/1.1/DTD/svg11.dtd" >
<svg xmlns="http://www.w3.org/2000/svg" xmlns:xlink="http://www.w3.org/1999/xlink" version="1.1" viewBox="-10 0 1010 1000">
   <path fill="currentColor"
d="M816 198h-199c-33 104 -97 188 -227 240c-7 -15 -25 -40 -39 -51c110 -42 167 -108 198 -189h-163v-61h181c7 -31 12 -64 16 -97h66c-4 33 -9 66 -15 97h252l-3 29c-14 138 -28 195 -51 218c-15 16 -31 21 -55 23c-20 1 -57 1 -96 -1c-1 -19 -7 -43 -16 -61
c37 5 73 5 87 5s22 -1 29 -8c14 -14 25 -53 35 -144zM306 224l57 19c-26 68 -56 151 -81 203l-42 -16c23 -53 52 -145 66 -206zM89 246l49 7c-4 82 -20 191 -49 259l-49 -25c28 -60 44 -161 49 -241zM337 798l-46 48c-16 -33 -52 -95 -81 -144c-21 91 -59 176 -125 252
c-10 -14 -31 -36 -46 -46c122 -144 136 -326 136 -506v-347h61v347c0 75 -2 150 -12 222c27 36 97 147 113 174zM482 523h133s-1 20 -2 30c-13 230 -25 312 -49 340c-14 18 -29 25 -50 27c-18 2 -47 1 -75 0c-1 -18 -7 -43 -16 -60c29 3 52 4 64 4s18 -2 26 -11
c14 -18 27 -88 37 -271h-74c-17 145 -55 273 -151 354c-9 -16 -29 -36 -44 -46c86 -69 119 -183 133 -308h-85v-59h91c2 -26 4 -53 5 -79h62c-1 26 -3 53 -5 79zM793 526h139s-1 20 -2 30c-13 232 -26 315 -49 343c-14 17 -28 24 -49 26c-17 2 -46 2 -73 0
c-1 -18 -7 -42 -16 -59c27 2 51 3 62 3c10 0 18 -1 24 -11c16 -18 27 -88 38 -273h-79c-16 145 -51 275 -142 359c-10 -16 -30 -37 -45 -47c81 -70 112 -185 126 -312h-78v-59h84c2 -26 3 -53 4 -79h61c-1 26 -3 53 -5 79z" />
</svg>
