<?xml version="1.0" standalone="no"?>
<!DOCTYPE svg PUBLIC "-//W3C//DTD SVG 1.1//EN" "http://www.w3.org/Graphics/SVG/1.1/DTD/svg11.dtd" >
<svg xmlns="http://www.w3.org/2000/svg" xmlns:xlink="http://www.w3.org/1999/xlink" version="1.1" viewBox="-10 0 1010 1000">
   <path fill="currentColor"
d="M677 157h-333c44 34 100 64 167 88c64 -24 121 -55 166 -88zM751 103l42 35c-51 53 -121 98 -200 136c112 33 240 55 367 66c-14 15 -31 42 -39 61c-143 -16 -288 -46 -413 -93c-132 49 -283 81 -425 102c-6 -17 -21 -45 -32 -59c128 -15 261 -39 378 -76
c-54 -26 -102 -55 -142 -89c-56 30 -115 53 -173 72c-10 -14 -30 -37 -43 -48c127 -38 271 -106 333 -180l65 23c-16 18 -34 35 -55 52h324zM121 962l-71 -27c44 -46 95 -121 126 -187l70 18c-33 66 -82 144 -125 196zM344 774l69 -6c13 57 24 130 25 173l-73 10
c0 -46 -9 -120 -21 -177zM933 682h-395v78h-72v-78h-396v-54h396v-63h-302v-50h302v-63h-284v-49h284v-59h72v59h280v49h-280v63h297v50h-297v63h395v54zM549 773l68 -12c28 55 55 129 65 174l-72 15c-10 -46 -36 -121 -61 -177zM755 768l65 -26c49 57 107 134 133 184
l-71 30c-25 -49 -79 -130 -127 -188z" />
</svg>
