<?xml version="1.0" standalone="no"?>
<!DOCTYPE svg PUBLIC "-//W3C//DTD SVG 1.1//EN" "http://www.w3.org/Graphics/SVG/1.1/DTD/svg11.dtd" >
<svg xmlns="http://www.w3.org/2000/svg" xmlns:xlink="http://www.w3.org/1999/xlink" version="1.1" viewBox="-10 0 1010 1000">
   <path fill="currentColor"
d="M935 318l-57 40c-11 -19 -24 -42 -41 -67c-340 24 -379 27 -406 38c-3 -15 -14 -50 -21 -69c16 -3 34 -16 53 -38c22 -20 92 -100 138 -180l70 25c-45 66 -97 129 -147 180l269 -17c-27 -35 -54 -70 -79 -100l52 -35c60 68 135 163 169 223zM310 217l53 26
c-23 67 -53 151 -76 203l-39 -22c21 -55 49 -145 62 -207zM80 246l48 8c-3 80 -16 188 -37 258l-48 -23c20 -61 33 -164 37 -243zM236 49v338c0 75 -2 151 -11 225c31 40 105 150 124 177l-43 54c-18 -36 -60 -103 -94 -153c-20 97 -56 189 -121 269
c-10 -16 -31 -41 -44 -53c118 -147 130 -336 130 -518v-339h59zM951 684h-250c48 104 137 179 262 209c-15 14 -35 43 -44 62c-121 -36 -208 -111 -263 -218c-36 81 -111 161 -263 220c-9 -15 -29 -42 -42 -55c157 -60 224 -140 252 -218h-218v-66h233c3 -22 4 -44 4 -65
v-65h-118c-22 36 -44 68 -67 95c-13 -12 -41 -30 -58 -39c53 -55 101 -140 130 -221l66 19c-11 26 -22 54 -35 80h369v66h-219v66c0 21 -1 42 -3 64h264v66z" />
</svg>
