<?xml version="1.0" standalone="no"?>
<!DOCTYPE svg PUBLIC "-//W3C//DTD SVG 1.1//EN" "http://www.w3.org/Graphics/SVG/1.1/DTD/svg11.dtd" >
<svg xmlns="http://www.w3.org/2000/svg" xmlns:xlink="http://www.w3.org/1999/xlink" version="1.1" viewBox="-10 0 1010 1000">
   <path fill="currentColor"
d="M386 514l38 20c-56 221 -192 359 -345 428c-8 -17 -23 -41 -35 -55c70 -28 139 -76 196 -140c-24 -26 -57 -57 -86 -79l43 -36c26 19 57 45 80 67c30 -42 55 -90 74 -144h-134c-37 56 -84 109 -142 155c-9 -16 -27 -37 -41 -47c98 -73 164 -174 198 -261
c-48 46 -102 82 -155 109c-8 -17 -24 -41 -36 -53c61 -27 123 -71 176 -127c-20 -21 -47 -44 -70 -61l42 -33c20 14 45 33 65 52c27 -35 50 -74 68 -115h-123c-33 44 -72 86 -118 124c-9 -14 -27 -35 -41 -44c86 -66 147 -157 178 -230l61 12c-12 26 -26 54 -43 81h114
l10 -3l40 23c-35 105 -93 191 -161 258l58 12c-12 29 -27 60 -43 90h121zM951 226h-341c-30 211 -83 376 -183 494c-9 -13 -34 -38 -48 -50c94 -101 143 -255 170 -444h-118v-68h127c4 -34 7 -71 10 -107l62 6c-3 34 -7 69 -10 101h331v68zM866 610l-49 -15
c26 -59 56 -157 72 -224l58 16c-24 75 -55 166 -81 223zM604 630l-46 -30c30 -51 44 -138 49 -216l49 12c-7 84 -18 178 -52 234zM720 289h58c-1 120 -4 220 -14 305c26 149 87 257 202 299c-14 14 -30 41 -38 59c-96 -41 -154 -121 -189 -233c-35 110 -99 182 -223 232
c-7 -16 -24 -43 -36 -56c228 -86 237 -248 240 -606z" />
</svg>
