<?xml version="1.0" standalone="no"?>
<!DOCTYPE svg PUBLIC "-//W3C//DTD SVG 1.1//EN" "http://www.w3.org/Graphics/SVG/1.1/DTD/svg11.dtd" >
<svg xmlns="http://www.w3.org/2000/svg" xmlns:xlink="http://www.w3.org/1999/xlink" version="1.1" viewBox="-10 0 1010 1000">
   <path fill="currentColor"
d="M88 246l49 8c-3 81 -17 188 -41 257l-50 -22c23 -62 37 -163 42 -243zM241 50v340c0 74 -2 151 -12 225c36 43 112 147 132 174l-44 54c-20 -35 -64 -101 -101 -151c-21 97 -59 189 -126 270c-10 -17 -32 -43 -47 -55c121 -147 135 -336 135 -517v-340h63zM747 666h93
v-134h-93v134zM602 666h90v-134h-90v134zM458 666h89v-134h-89v134zM902 469v410c0 32 -4 50 -24 61c-19 12 -47 12 -86 12c-2 -18 -9 -44 -17 -63c26 1 47 1 55 1s10 -3 10 -11v-150h-93v206h-55v-206h-90v206h-55v-206h-89v232h-62v-492h506zM503 319h279
c-53 -44 -101 -98 -139 -154c-40 55 -88 108 -140 154zM642 40l57 38c-6 10 -12 21 -18 30c62 93 174 186 282 227c-18 16 -41 47 -53 68c-36 -17 -74 -41 -109 -69v50h-315v-50c-37 32 -76 60 -114 82c-9 -21 -28 -52 -45 -69c-14 37 -29 72 -43 100l-40 -22
c23 -55 54 -145 70 -207l54 25c-12 32 -26 68 -40 104c119 -59 250 -186 314 -307z" />
</svg>
