<?xml version="1.0" standalone="no"?>
<!DOCTYPE svg PUBLIC "-//W3C//DTD SVG 1.1//EN" "http://www.w3.org/Graphics/SVG/1.1/DTD/svg11.dtd" >
<svg xmlns="http://www.w3.org/2000/svg" xmlns:xlink="http://www.w3.org/1999/xlink" version="1.1" viewBox="-10 0 1010 1000">
   <path fill="currentColor"
d="M541 171l-61 26c-11 -34 -39 -88 -65 -128l59 -23c27 39 57 91 67 125zM86 247l48 6c-4 83 -19 191 -48 260l-48 -26c27 -59 43 -160 48 -240zM416 664h140v-94h-140v94zM556 422h-140v84h140v-84zM620 360v521c0 32 -6 51 -27 61c-21 11 -53 12 -101 12
c-2 -17 -10 -44 -19 -61c33 2 61 1 71 1c10 -1 12 -4 12 -14v-152h-140v229h-63v-597h267zM844 877v-541h65v542c0 36 -8 55 -32 66c-27 11 -66 13 -127 13c-4 -18 -16 -46 -27 -64c49 2 91 1 103 1c14 -1 18 -5 18 -17zM749 372v392h-60v-392h60zM762 217h181v67h-611v-21
c-21 63 -43 136 -63 183l-40 -15c-1 65 -4 131 -12 195c28 37 96 145 112 172l-45 47c-16 -31 -51 -93 -81 -142c-20 91 -57 176 -120 253c-10 -15 -31 -36 -46 -47c117 -144 130 -326 130 -506v-348h62v347v27c21 -55 43 -144 55 -204l48 17v-25h355
c30 -45 65 -118 84 -169l72 20c-25 51 -55 108 -81 149z" />
</svg>
