<?xml version="1.0" standalone="no"?>
<!DOCTYPE svg PUBLIC "-//W3C//DTD SVG 1.1//EN" "http://www.w3.org/Graphics/SVG/1.1/DTD/svg11.dtd" >
<svg xmlns="http://www.w3.org/2000/svg" xmlns:xlink="http://www.w3.org/1999/xlink" version="1.1" viewBox="-10 0 1010 1000">
   <path fill="currentColor"
d="M560 259v-66h-182v-62h253c-10 -27 -23 -59 -36 -84l64 -18c18 31 35 72 44 102h234v62h-169v250c0 37 -5 53 -28 65c-22 10 -56 11 -105 11c-3 -20 -12 -46 -21 -64c38 2 69 1 78 1c11 -1 13 -4 13 -14v-249h-84v67c0 85 -19 207 -128 288c-10 -12 -34 -33 -49 -42
c101 -73 116 -177 116 -247zM926 435l-53 27c-16 -50 -56 -127 -95 -183l50 -22c40 55 82 128 98 178zM455 257l55 15c-22 69 -59 139 -98 184c-10 -10 -32 -29 -46 -39c39 -41 70 -100 89 -160zM331 217l59 23c-27 68 -60 151 -87 204l-43 -21c24 -55 56 -146 71 -206z
M91 246l53 8c-3 80 -18 188 -43 258l-53 -23c23 -61 39 -164 43 -243zM364 782l-50 53c-18 -37 -55 -104 -87 -157c-22 101 -64 196 -142 280c-11 -16 -32 -41 -48 -51c135 -147 150 -336 150 -520v-338h65v338c0 69 -2 138 -10 204c29 40 104 162 122 191zM954 696h-272
c47 103 142 171 276 198c-14 15 -32 41 -41 59c-130 -32 -222 -103 -276 -210c-44 99 -123 170 -279 213c-7 -18 -23 -44 -36 -58c157 -38 228 -107 263 -202h-228v-64h246c6 -28 10 -59 13 -91h66c-3 32 -7 63 -13 91h281v64z" />
</svg>
