<?xml version="1.0" standalone="no"?>
<!DOCTYPE svg PUBLIC "-//W3C//DTD SVG 1.1//EN" "http://www.w3.org/Graphics/SVG/1.1/DTD/svg11.dtd" >
<svg xmlns="http://www.w3.org/2000/svg" xmlns:xlink="http://www.w3.org/1999/xlink" version="1.1" viewBox="-10 0 1010 1000">
   <path fill="currentColor"
d="M299 520v-2c-61 47 -133 86 -217 115c-9 -13 -27 -39 -40 -52c119 -39 213 -98 282 -174h-261v-54h305c14 -19 26 -37 37 -57h-261v-50h285c9 -19 16 -38 23 -58h-347v-54h224c-12 -23 -30 -51 -48 -72l62 -23c21 25 46 60 57 83l-30 12h237c20 -28 43 -65 57 -91l71 19
c-17 25 -35 50 -52 72h217v54h-374c-7 20 -14 39 -22 58h364v50h-387c-10 20 -21 38 -32 57h496v54h-535c-16 22 -35 42 -54 62h504v51h-259v78h329v52h-737v-52h335v-78h-229zM700 829l-49 -32c40 -29 96 -79 127 -115l57 34c-41 42 -93 84 -135 113zM201 840l-54 -31
c47 -30 87 -83 111 -125l54 22c-26 47 -63 100 -111 134zM470 669h70c-3 13 -6 27 -9 40c57 124 197 177 427 187c-15 15 -31 39 -39 58c-205 -17 -340 -66 -415 -177c-54 101 -171 153 -427 180c-4 -17 -19 -43 -30 -57c315 -27 396 -87 423 -231z" />
</svg>
