<?xml version="1.0" standalone="no"?>
<!DOCTYPE svg PUBLIC "-//W3C//DTD SVG 1.1//EN" "http://www.w3.org/Graphics/SVG/1.1/DTD/svg11.dtd" >
<svg xmlns="http://www.w3.org/2000/svg" xmlns:xlink="http://www.w3.org/1999/xlink" version="1.1" viewBox="-10 0 1010 1000">
   <path fill="currentColor"
d="M839 269v-132h-205v-58h270v247h-202v136c0 23 5 26 37 26h108c28 0 33 -11 36 -102c14 9 44 19 62 24c-8 111 -28 138 -91 138h-122c-76 0 -97 -18 -97 -85v-194h204zM723 771l-58 -25c36 -39 84 -102 110 -147l68 27c-36 52 -83 108 -120 145zM330 406v83h97v-83h-97z
M424 141h-94v80h94v-80zM517 353v-80h-187v80h187zM603 489l-1 56h-336v-460h327v56h-110v80h97v185h-94v83h117zM181 782l-57 -37c48 -38 92 -102 116 -154l59 27c-27 54 -67 121 -118 164zM201 82v146c0 117 -12 247 -97 346c-12 -12 -36 -33 -52 -43
c74 -88 82 -204 82 -304v-145h67zM460 569h77c-2 14 -4 28 -7 42c53 172 179 256 423 278c-15 16 -33 44 -41 65c-214 -27 -339 -99 -409 -240c-50 127 -158 203 -420 242c-6 -17 -23 -45 -35 -59c327 -43 388 -142 412 -328z" />
</svg>
