<?xml version="1.0" standalone="no"?>
<!DOCTYPE svg PUBLIC "-//W3C//DTD SVG 1.1//EN" "http://www.w3.org/Graphics/SVG/1.1/DTD/svg11.dtd" >
<svg xmlns="http://www.w3.org/2000/svg" xmlns:xlink="http://www.w3.org/1999/xlink" version="1.1" viewBox="-10 0 1010 1000">
   <path fill="currentColor"
d="M507 264v-75h-145v-63h145v-82h71v82h152v-82h72v82h139v63h-139v76h-72v-76h-152v75h-71zM319 217l56 25c-27 68 -58 151 -85 204l-41 -21c23 -55 55 -146 70 -208zM92 246l49 8c-2 80 -17 188 -41 258l-50 -23c23 -61 37 -163 42 -243zM342 777l-47 52
c-16 -32 -51 -89 -82 -135c-20 95 -58 185 -124 265c-10 -17 -31 -41 -46 -52c120 -147 133 -335 133 -518v-340h63v340c0 76 -2 151 -12 225c31 39 98 138 115 163zM472 463v71h346v-71h-346zM472 339v71h346v-71h-346zM940 736h-224c49 80 134 135 247 159
c-16 14 -37 42 -47 61c-128 -35 -220 -109 -270 -218c-40 106 -120 177 -294 219c-6 -17 -24 -45 -38 -59c146 -33 217 -86 255 -162h-229v-63h250c7 -25 11 -54 15 -83h-202v-307h486v307h-211c-3 29 -7 57 -13 83h275v63z" />
</svg>
