<?xml version="1.0" standalone="no"?>
<!DOCTYPE svg PUBLIC "-//W3C//DTD SVG 1.1//EN" "http://www.w3.org/Graphics/SVG/1.1/DTD/svg11.dtd" >
<svg xmlns="http://www.w3.org/2000/svg" xmlns:xlink="http://www.w3.org/1999/xlink" version="1.1" viewBox="-10 0 1010 1000">
   <path fill="currentColor"
d="M395 105l61 21c-28 54 -57 118 -83 159l-44 -17c24 -45 51 -115 66 -163zM122 116l50 10c-9 67 -28 150 -63 200l-47 -29c31 -42 51 -116 60 -181zM433 440l-46 53c-23 -33 -76 -96 -119 -143c-26 68 -79 130 -182 180c-7 -15 -27 -42 -39 -53c164 -77 181 -189 181 -288
v-138h66v139c0 32 -2 63 -7 95c41 40 125 131 146 155zM293 787l123 -29l6 63c-127 32 -261 65 -360 91l-13 -68c49 -11 111 -24 178 -41v-142h-144v-64h144v-123h66v123h116v64h-116v126zM942 453h-121c38 59 96 115 151 147c-15 12 -36 36 -46 53
c-66 -44 -135 -124 -176 -200h-125c-23 46 -50 89 -84 127h111v-93h70v93h115v63h-115v90h187v63h-187v160h-70v-160h-179v-63h179v-90h-117v-56c-21 24 -46 45 -72 65c-10 -15 -32 -39 -45 -50c55 -40 98 -90 131 -149h-109v-62h139c11 -24 20 -50 29 -76h-125v-58h141
c6 -23 10 -46 14 -69h-180v-61h190c3 -28 7 -57 9 -85l70 10c-3 25 -6 50 -10 75h207v61h-217l-15 69h211v58h-226c-7 26 -16 52 -26 76h291v62z" />
</svg>
