<?xml version="1.0" standalone="no"?>
<!DOCTYPE svg PUBLIC "-//W3C//DTD SVG 1.1//EN" "http://www.w3.org/Graphics/SVG/1.1/DTD/svg11.dtd" >
<svg xmlns="http://www.w3.org/2000/svg" xmlns:xlink="http://www.w3.org/1999/xlink" version="1.1" viewBox="-10 0 1010 1000">
   <path fill="currentColor"
d="M84 246l48 8c-3 80 -17 188 -41 258l-48 -23c22 -61 37 -163 41 -243zM236 49v340c0 75 -2 150 -12 224c31 37 99 133 117 156l-44 53c-17 -32 -54 -88 -86 -132c-19 96 -55 187 -118 268c-9 -17 -30 -40 -43 -51c114 -147 127 -336 127 -518v-340h59zM286 428l-39 -21
c18 -50 44 -132 56 -189l53 24c-23 63 -48 138 -70 186zM928 583v293c0 35 -8 51 -34 62c-28 10 -71 10 -138 10c-4 -18 -14 -41 -23 -57c51 1 97 1 109 0c14 -1 18 -4 18 -16v-228h-222c-21 44 -43 86 -66 123l162 -20c-11 -22 -24 -43 -34 -63l46 -16c30 51 66 120 84 160
l-47 20c-6 -15 -15 -33 -25 -53c-204 29 -234 35 -249 45c-3 -14 -14 -46 -22 -64c16 -4 31 -25 47 -56c7 -12 22 -40 38 -76h-116v309h-69v-373h212c9 -22 18 -46 26 -70h-201v-279h64v219h334v-219h67v279h-195c-8 23 -18 47 -28 70h262zM797 397l-35 34
c-24 -19 -58 -46 -96 -73c-39 32 -81 62 -118 85c-8 -10 -26 -30 -37 -39c37 -21 77 -47 115 -76c-35 -24 -71 -49 -103 -70l34 -30c33 22 69 47 105 71c31 -24 58 -51 81 -78l47 18c-25 30 -55 60 -87 89c37 25 71 49 94 69zM695 135h249v65h-578v-65h253
c-9 -25 -21 -55 -33 -77l65 -18c14 28 32 66 44 95z" />
</svg>
