<?xml version="1.0" standalone="no"?>
<!DOCTYPE svg PUBLIC "-//W3C//DTD SVG 1.1//EN" "http://www.w3.org/Graphics/SVG/1.1/DTD/svg11.dtd" >
<svg xmlns="http://www.w3.org/2000/svg" xmlns:xlink="http://www.w3.org/1999/xlink" version="1.1" viewBox="-10 0 1010 1000">
   <path fill="currentColor"
d="M858 128h-114v81h114v-81zM872 410h-104c-62 0 -80 -16 -80 -83v-251h223v184h-167v67c0 21 4 25 29 25h92c20 0 24 -8 27 -65c12 10 34 19 50 24c-6 78 -22 99 -70 99zM584 128h-111v79h111v-79zM591 410h-97c-59 0 -76 -17 -76 -82v-252h219v182h-164v70
c0 21 4 24 28 24h83c20 0 24 -8 26 -64c11 10 33 19 50 23c-6 77 -23 99 -69 99zM584 579v115h154v-115h-154zM949 694v64h-574v-64h148v-115h-123v-63h123v-80h61v80h154v-79h62v79h128v63h-128v115h149zM318 225l56 19c-23 66 -49 150 -71 202l-41 -15
c19 -54 44 -145 56 -206zM102 247l49 6c-4 83 -20 191 -49 260l-49 -25c28 -60 44 -161 49 -241zM363 808l-47 48c-17 -34 -54 -102 -85 -153c-20 91 -58 177 -123 253c-10 -15 -32 -37 -46 -47c120 -144 134 -326 134 -507v-347h62v347c0 76 -2 150 -12 223
c27 38 100 155 117 183zM561 772l64 24c-54 66 -144 126 -219 164c-12 -15 -37 -40 -52 -52c78 -31 161 -81 207 -136zM705 805l51 -34c66 42 152 105 196 147l-54 39c-42 -41 -127 -108 -193 -152z" />
</svg>
