<?xml version="1.0" standalone="no"?>
<!DOCTYPE svg PUBLIC "-//W3C//DTD SVG 1.1//EN" "http://www.w3.org/Graphics/SVG/1.1/DTD/svg11.dtd" >
<svg xmlns="http://www.w3.org/2000/svg" xmlns:xlink="http://www.w3.org/1999/xlink" version="1.1" viewBox="-10 0 1010 1000">
   <path fill="currentColor"
d="M815 406v-173h-79v173h79zM815 647v-175h-79v175h79zM467 472v175h75v-175h-75zM678 472h-78v175h78v-175zM600 406h78v-173h-78v173zM467 233v173h75v-173h-75zM404 406v-108c-14 18 -27 35 -42 49c-6 -10 -20 -34 -32 -49c-18 53 -35 110 -52 148l-40 -15
c19 -54 44 -145 55 -206l55 19l-8 23c51 -59 93 -139 117 -224l65 16c-12 37 -26 75 -42 110h468v64h-70v173h81v66h-81v175h75v64h-616v-64h67v-175h-75v-66h75zM88 247l48 7c-3 82 -19 190 -48 259l-48 -25c27 -60 44 -161 48 -241zM338 808l-47 48
c-16 -34 -53 -101 -84 -152c-20 90 -58 176 -123 252c-10 -15 -31 -36 -45 -47c120 -144 134 -327 134 -507v-347h61v347c0 76 -2 150 -12 223c27 38 99 155 116 183zM362 958l-58 -40c48 -41 81 -113 99 -177l61 24c-20 68 -51 145 -102 193zM512 761l62 -10
c16 58 30 133 34 183l-66 11c-2 -50 -15 -125 -30 -184zM642 765l57 -20c32 57 65 131 78 180l-61 22c-12 -50 -43 -125 -74 -182zM776 761l60 -26c50 59 103 139 128 192l-64 31c-23 -54 -76 -136 -124 -197z" />
</svg>
