<?xml version="1.0" standalone="no"?>
<!DOCTYPE svg PUBLIC "-//W3C//DTD SVG 1.1//EN" "http://www.w3.org/Graphics/SVG/1.1/DTD/svg11.dtd" >
<svg xmlns="http://www.w3.org/2000/svg" xmlns:xlink="http://www.w3.org/1999/xlink" version="1.1" viewBox="-10 0 1010 1000">
   <path fill="currentColor"
d="M285 225l53 19c-22 66 -47 151 -69 203l-39 -16c19 -54 44 -145 55 -206zM84 246l48 7c-4 83 -20 192 -48 260l-47 -25c27 -60 43 -161 47 -242zM327 808l-44 48c-16 -34 -52 -101 -83 -152c-20 90 -56 175 -120 252c-10 -15 -31 -37 -45 -47c119 -144 132 -326 132 -507
v-347h60v347c0 76 -2 151 -12 224c27 39 97 154 112 182zM447 272v221c0 140 -14 335 -108 464c-11 -13 -37 -32 -53 -39c88 -123 98 -295 98 -426v-276h218v-173h70v63h223v55h-223v55h213l11 -2l45 10c-12 49 -29 105 -45 139l-54 -13c8 -20 16 -50 23 -78h-210v63
l155 -19l5 46l-160 20v20c0 22 7 25 43 25h133c25 0 31 -6 33 -48c13 9 35 15 52 19c-6 61 -24 77 -77 77h-146c-78 0 -99 -13 -99 -73v-13l-118 14l-6 -47l124 -14v-70h-147zM890 590l41 35c-29 21 -63 43 -97 62c25 77 75 147 139 180c-14 11 -32 32 -41 48
c-65 -39 -114 -119 -141 -203c-11 6 -23 12 -34 17c27 84 15 169 -18 201c-21 22 -41 28 -70 29c-16 0 -33 -1 -53 -2c-1 -15 -6 -40 -16 -56c23 2 42 3 57 3s28 -1 38 -14c18 -16 27 -65 16 -121c-68 62 -172 126 -258 162c-6 -14 -20 -35 -31 -45
c96 -32 215 -102 275 -165c-4 -12 -9 -25 -16 -37c-57 47 -140 94 -209 120c-6 -13 -19 -32 -29 -42c72 -21 161 -68 214 -112c-8 -10 -17 -19 -26 -28c-47 27 -98 51 -146 66c-5 -11 -16 -30 -23 -41c63 -19 137 -52 186 -88h-177v-52h451v52h-206c-13 13 -27 25 -43 36
c30 27 53 59 69 92c51 -29 110 -68 148 -97z" />
</svg>
