<?xml version="1.0" standalone="no"?>
<!DOCTYPE svg PUBLIC "-//W3C//DTD SVG 1.1//EN" "http://www.w3.org/Graphics/SVG/1.1/DTD/svg11.dtd" >
<svg xmlns="http://www.w3.org/2000/svg" xmlns:xlink="http://www.w3.org/1999/xlink" version="1.1" viewBox="-10 0 1010 1000">
   <path fill="currentColor"
d="M901 152l53 19c-24 55 -54 118 -78 159l-46 -18c23 -43 55 -112 71 -160zM955 553l-46 43c-23 -40 -70 -99 -115 -149c-22 60 -59 118 -123 167c-8 -14 -28 -35 -42 -45c122 -93 136 -218 136 -334v-186h58v187c0 48 -2 98 -12 146c53 53 115 124 144 171zM705 785
l-56 -29c47 -36 110 -97 145 -141l63 31c-45 50 -105 103 -152 139zM576 279h82v11c17 -39 29 -89 36 -129l45 15c-10 54 -25 122 -49 163l-32 -13v9h-131v72h119v55h-119v111h-61v-111h-128v-55h128v-72h-147v-56h84c-8 -22 -21 -49 -35 -70l52 -15c17 27 35 61 43 85h52
c17 -28 36 -64 46 -90l62 16c-16 25 -31 52 -47 74zM643 115v55h-306v-55h129c-11 -18 -24 -35 -35 -51l48 -22c18 22 39 50 54 73h110zM96 163l45 15c-9 53 -24 121 -49 163l-44 -25c23 -38 41 -103 48 -153zM330 520l-45 43c-19 -29 -54 -71 -90 -108
c-20 62 -55 120 -115 170c-9 -13 -29 -34 -42 -42c114 -96 128 -220 128 -338v-197h56v197c0 16 0 33 -1 51c22 -42 48 -102 63 -144l51 21c-25 51 -53 111 -77 149l-37 -15c-2 28 -5 56 -10 84c44 41 95 94 119 129zM180 796l-56 -31c58 -37 103 -101 128 -156l57 23
c-29 59 -69 124 -129 164zM459 594h70c-2 17 -5 33 -8 47c52 163 186 235 433 251c-13 15 -30 42 -38 62c-220 -22 -350 -85 -421 -222c-52 123 -162 192 -419 226c-5 -17 -20 -44 -32 -59c322 -37 392 -124 415 -305z" />
</svg>
