<?xml version="1.0" standalone="no"?>
<!DOCTYPE svg PUBLIC "-//W3C//DTD SVG 1.1//EN" "http://www.w3.org/Graphics/SVG/1.1/DTD/svg11.dtd" >
<svg xmlns="http://www.w3.org/2000/svg" xmlns:xlink="http://www.w3.org/1999/xlink" version="1.1" viewBox="-10 0 1010 1000">
   <path fill="currentColor"
d="M847 180h-98c-18 41 -40 82 -64 120h108c19 -34 39 -80 54 -120zM876 440v-85h-151v85h151zM876 575v-86h-151v86h151zM876 713v-89h-151v89h151zM666 327l-3 4c-13 -11 -36 -27 -52 -35c59 -76 101 -177 123 -252l63 9c-7 23 -15 45 -24 69h103l10 -3l43 30
c-19 48 -45 104 -71 151h79v467h-271v-440zM280 225l52 18c-22 67 -46 151 -68 203l-38 -16c20 -54 43 -145 54 -205zM85 246l45 7c-4 82 -20 191 -47 259l-45 -25c26 -60 42 -160 47 -241zM317 792l-43 48c-15 -33 -49 -94 -78 -140c-19 92 -54 179 -118 256
c-9 -15 -29 -36 -42 -47c115 -144 128 -327 128 -507v-347h57v347c0 75 -2 150 -11 221c25 36 90 143 107 169zM393 376v159h67v-159h-67zM575 535v-159h-66v159h66zM640 765l-51 31c-15 -31 -44 -77 -73 -116v272h-64v-287c-32 85 -77 169 -123 220c-7 -20 -21 -48 -32 -66
c48 -50 99 -140 131 -225h-86v-277h110v-102h-118v-62h118v-103h62v103h115v62h-115v102h114v277h-112v43l24 -14c37 44 80 103 100 142zM720 785l61 18c-29 57 -77 116 -121 156c-11 -12 -37 -32 -52 -41c45 -34 87 -84 112 -133zM816 810l54 -26c33 43 73 102 89 140
l-57 29c-16 -39 -53 -99 -86 -143z" />
</svg>
