<?xml version="1.0" standalone="no"?>
<!DOCTYPE svg PUBLIC "-//W3C//DTD SVG 1.1//EN" "http://www.w3.org/Graphics/SVG/1.1/DTD/svg11.dtd" >
<svg xmlns="http://www.w3.org/2000/svg" xmlns:xlink="http://www.w3.org/1999/xlink" version="1.1" viewBox="-10 0 1010 1000">
   <path fill="currentColor"
d="M736 232v-55h-133v55h133zM736 335v-54h-133v54h133zM736 441v-56h-133v56h133zM539 512v-256c-16 20 -32 37 -49 52c-9 -12 -32 -38 -45 -50c64 -53 121 -133 155 -214l61 16c-10 22 -20 43 -32 65h111c-9 -23 -21 -47 -31 -67l56 -15c14 24 30 57 42 82h126v52h-135v55
h110v49h-110v54h110v50h-110v56h135v51h-330v20h-64zM917 770l-39 49c-33 -24 -81 -51 -134 -78c-50 30 -106 51 -163 67c81 55 201 83 380 88c-11 15 -25 44 -31 62c-546 -25 -572 -257 -550 -821c-22 7 -46 14 -69 19v792h-62v-777c-25 6 -51 12 -76 17v298
c0 143 -12 340 -91 472c-11 -13 -38 -34 -52 -41c72 -124 79 -297 79 -431v-339c122 -26 263 -64 342 -100l55 48c-21 8 -45 16 -69 24c-13 315 -15 522 92 643c52 -11 103 -28 150 -51c-44 -21 -89 -39 -130 -54l37 -42c47 16 100 38 152 60c32 -22 61 -48 83 -78h-306v-55
h345l12 -3l41 20c-26 59 -65 107 -114 145c46 22 87 45 118 66z" />
</svg>
