<?xml version="1.0" standalone="no"?>
<!DOCTYPE svg PUBLIC "-//W3C//DTD SVG 1.1//EN" "http://www.w3.org/Graphics/SVG/1.1/DTD/svg11.dtd" >
<svg xmlns="http://www.w3.org/2000/svg" xmlns:xlink="http://www.w3.org/1999/xlink" version="1.1" viewBox="-10 0 1010 1000">
   <path fill="currentColor"
d="M920 187l-52 46c-59 -45 -178 -108 -274 -147l49 -41c94 35 214 96 277 142zM337 46l62 26c-72 68 -189 132 -284 171c-11 -12 -36 -39 -50 -51c97 -34 207 -88 272 -146zM629 134l65 26c-33 39 -76 73 -125 101c111 43 250 70 393 82c-15 15 -32 44 -40 61
c-154 -16 -302 -51 -423 -107c-123 56 -274 92 -419 116c-7 -16 -27 -46 -41 -61c139 -16 278 -46 393 -91c-48 -28 -91 -61 -124 -98l58 -26c33 36 79 67 132 94c54 -28 98 -60 131 -97zM214 463v103h148v-103h-148zM424 463v103h152v-103h-152zM638 463v103h155v-103h-155
zM863 617h-716v-205h716v205zM69 724v-61h865v61h-383v147c0 39 -9 58 -42 68c-33 11 -87 10 -170 10c-3 -20 -14 -45 -24 -65c64 2 125 2 141 2c17 -1 22 -5 22 -18v-144h-409z" />
</svg>
