<?xml version="1.0" standalone="no"?>
<!DOCTYPE svg PUBLIC "-//W3C//DTD SVG 1.1//EN" "http://www.w3.org/Graphics/SVG/1.1/DTD/svg11.dtd" >
<svg xmlns="http://www.w3.org/2000/svg" xmlns:xlink="http://www.w3.org/1999/xlink" version="1.1" viewBox="-10 0 1010 1000">
   <path fill="currentColor"
d="M927 347l-44 57c-43 -37 -105 -80 -174 -122c-66 56 -140 103 -214 140c-11 -15 -38 -42 -54 -55c72 -32 143 -73 205 -122c-59 -32 -120 -63 -177 -87l44 -50c61 24 126 57 187 90c46 -43 85 -91 115 -142l70 23c-34 55 -76 108 -124 155c66 39 125 79 166 113zM426 381
l-51 51c-22 -30 -54 -64 -90 -100c-51 62 -109 117 -171 159c-10 -13 -38 -42 -53 -55c64 -39 123 -92 174 -153c-49 -45 -103 -88 -154 -123l49 -45c48 32 99 72 146 113c33 -47 60 -99 82 -154l67 20c-26 65 -59 126 -97 181c39 38 75 74 98 106zM454 822l-52 52
c-28 -39 -68 -84 -113 -131c-59 79 -127 144 -202 196c-9 -14 -33 -44 -48 -56c76 -49 144 -111 201 -187c-50 -47 -104 -92 -155 -129l50 -44c48 33 98 74 144 115c35 -55 65 -115 87 -180l66 19c-27 75 -62 145 -103 207c51 49 95 99 125 138zM822 420l72 13
c-35 124 -85 225 -152 308c63 68 140 121 229 154c-17 15 -39 42 -51 62c-88 -37 -164 -92 -226 -162c-68 68 -149 121 -245 163c-8 -16 -32 -47 -46 -62c98 -38 179 -89 245 -156c-61 -81 -107 -179 -142 -288l65 -18c29 94 70 179 125 252c56 -73 99 -161 126 -266z" />
</svg>
