<?xml version="1.0" standalone="no"?>
<!DOCTYPE svg PUBLIC "-//W3C//DTD SVG 1.1//EN" "http://www.w3.org/Graphics/SVG/1.1/DTD/svg11.dtd" >
<svg xmlns="http://www.w3.org/2000/svg" xmlns:xlink="http://www.w3.org/1999/xlink" version="1.1" viewBox="-10 0 1010 1000">
   <path fill="currentColor"
d="M196 375v22c0 39 0 84 -2 130h239v397h-71v-327h-173c-10 125 -33 258 -90 354c-12 -15 -37 -40 -55 -51c77 -129 80 -361 80 -502v-322h72v229h110v-262h68v262h95v70h-273zM613 380v35c0 38 -1 80 -3 124h274v408h-71v-338h-207c-12 127 -39 259 -107 353
c-11 -14 -36 -40 -53 -52c91 -124 95 -351 95 -495v-336h72v231h134v-265h68v265h127v70h-329z" />
</svg>
