<?xml version="1.0" standalone="no"?>
<!DOCTYPE svg PUBLIC "-//W3C//DTD SVG 1.1//EN" "http://www.w3.org/Graphics/SVG/1.1/DTD/svg11.dtd" >
<svg xmlns="http://www.w3.org/2000/svg" xmlns:xlink="http://www.w3.org/1999/xlink" version="1.1" viewBox="-10 0 1010 1000">
   <path fill="currentColor"
d="M867 60l58 22c-28 44 -61 91 -88 122l-48 -18c26 -35 60 -89 78 -126zM548 182l-53 24c-12 -32 -41 -83 -70 -119l50 -22c29 35 59 84 73 117zM166 382v63c0 26 0 54 -1 82h189v429h-65v-365h-126c-7 126 -24 261 -64 369c-15 -9 -43 -20 -62 -25
c56 -144 64 -345 64 -491v-379h65v252h94v-273h63v273h75v65h-232zM951 716h-207c54 70 137 133 220 164c-14 13 -34 37 -43 54c-81 -39 -165 -112 -219 -193v216h-65v-221c-56 82 -145 158 -228 198c-10 -16 -30 -40 -43 -51c81 -32 169 -97 224 -167h-195v-59h242v-76
h-195v-58h195v-72h-220v-60h130c-9 -31 -28 -71 -46 -102l55 -19c24 34 47 82 54 112l-23 9h159l-22 -8c18 -31 42 -79 55 -113h-374v-60h173v-167h58v167h69v-167h58v167h180v60h-138l43 13c-22 38 -46 79 -68 108h146v60h-224v72h197v58h-197v76h249v59z" />
</svg>
