<?xml version="1.0" standalone="no"?>
<!DOCTYPE svg PUBLIC "-//W3C//DTD SVG 1.1//EN" "http://www.w3.org/Graphics/SVG/1.1/DTD/svg11.dtd" >
<svg xmlns="http://www.w3.org/2000/svg" xmlns:xlink="http://www.w3.org/1999/xlink" version="1.1" viewBox="-10 0 1010 1000">
   <path fill="currentColor"
d="M942 465h-232v266c74 16 149 25 226 33c-13 15 -28 43 -34 65c-65 -7 -129 -15 -192 -27v57c0 49 -13 70 -45 82s-87 14 -175 14c-4 -21 -18 -53 -29 -73c68 3 130 2 149 1c18 -1 25 -6 25 -24v-75c-157 -41 -305 -114 -442 -262l52 -40c118 125 249 192 390 232v-249
h-499c25 -72 56 -187 76 -274l74 8c-16 62 -35 136 -54 198h403v-233h-512v-68h765v68h-178v233h232v68z" />
</svg>
