<?xml version="1.0" standalone="no"?>
<!DOCTYPE svg PUBLIC "-//W3C//DTD SVG 1.1//EN" "http://www.w3.org/Graphics/SVG/1.1/DTD/svg11.dtd" >
<svg xmlns="http://www.w3.org/2000/svg" xmlns:xlink="http://www.w3.org/1999/xlink" version="1.1" viewBox="-10 0 1010 1000">
   <path fill="currentColor"
d="M760 396v-116h-431v116h431zM253 453v-152c-50 36 -104 65 -155 89c-11 -14 -36 -43 -51 -55c107 -44 216 -111 292 -191h-249v-60h833v60h-494c-23 28 -48 54 -75 79h482v230h-583zM942 713v64h-388v187h-73v-187h-421v-64h421v-102h-242c-26 33 -56 64 -83 87
c-15 -11 -46 -29 -64 -38c62 -45 119 -114 152 -184l69 19c-8 18 -18 35 -29 53h197v-77h73v77h336v63h-336v102h388z" />
</svg>
