<?xml version="1.0" standalone="no"?>
<!DOCTYPE svg PUBLIC "-//W3C//DTD SVG 1.1//EN" "http://www.w3.org/Graphics/SVG/1.1/DTD/svg11.dtd" >
<svg xmlns="http://www.w3.org/2000/svg" xmlns:xlink="http://www.w3.org/1999/xlink" version="1.1" viewBox="-10 0 1010 1000">
   <path fill="currentColor"
d="M832 156h-217c25 60 61 114 107 160c46 -45 85 -99 110 -160zM875 92l43 17c-30 102 -82 186 -147 251c52 40 113 70 181 90c-15 13 -35 40 -44 58c-70 -24 -133 -59 -186 -104c-54 44 -115 77 -178 101c-8 -16 -25 -42 -39 -55c60 -20 117 -51 169 -91
c-52 -57 -94 -124 -123 -200l11 -3h-36v-62h338zM161 375v59h127v-59h-127zM288 145h-127v59h127v-59zM413 324v-69h-252v69h252zM497 434v55h-402v-400h395v56h-138v59h128v171h-128v59h145zM534 648v94h416v63h-416v152h-73v-152h-411v-63h411v-94h-222
c-28 34 -56 66 -85 90c-13 -11 -45 -30 -63 -39c61 -47 115 -116 148 -186l71 18c-9 19 -19 37 -29 55h180v-84h73v84h318v62h-318z" />
</svg>
