<?xml version="1.0" standalone="no"?>
<!DOCTYPE svg PUBLIC "-//W3C//DTD SVG 1.1//EN" "http://www.w3.org/Graphics/SVG/1.1/DTD/svg11.dtd" >
<svg xmlns="http://www.w3.org/2000/svg" xmlns:xlink="http://www.w3.org/1999/xlink" version="1.1" viewBox="-10 0 1010 1000">
   <path fill="currentColor"
d="M926 132v60h-546v-60h232c-9 -25 -21 -52 -32 -74l66 -19c17 28 34 67 44 93h236zM592 317l-65 19c-7 -29 -27 -77 -49 -113l62 -15c22 34 43 80 52 109zM358 569l-93 37v350h-65v-326l-134 51l-20 -66c42 -14 95 -33 154 -55v-246h-71c-9 63 -21 121 -37 167
c-12 -8 -40 -20 -55 -26c32 -84 46 -213 54 -336l59 9c-3 40 -7 80 -12 119h62v-204h65v204h86v67h-86v222l82 -31zM723 750v108h220v60h-526v-60h241v-108h-175v-58h175v-99h-134c-14 27 -31 53 -47 74c-11 -8 -36 -21 -51 -27c42 -51 77 -123 99 -191l57 13
c-7 24 -17 49 -28 72h104v-100h65v100h195v59h-195v99h173v58h-173zM778 342h169v61h-511v55c0 135 -18 341 -108 488c-10 -10 -40 -28 -54 -35c85 -139 97 -327 97 -453v-116h340c27 -41 54 -98 71 -138l67 20c-22 40 -48 83 -71 118z" />
</svg>
