<?xml version="1.0" standalone="no"?>
<!DOCTYPE svg PUBLIC "-//W3C//DTD SVG 1.1//EN" "http://www.w3.org/Graphics/SVG/1.1/DTD/svg11.dtd" >
<svg xmlns="http://www.w3.org/2000/svg" xmlns:xlink="http://www.w3.org/1999/xlink" version="1.1" viewBox="-10 0 1010 1000">
   <path fill="currentColor"
d="M936 85v55h-534v-55h534zM511 327v57h121v-57h-121zM511 230v56h121v-56h-121zM823 286v-56h-126v56h126zM823 384v-57h-126v57h126zM892 428h-447v-243h447v243zM943 475v54h-548v-54h548zM508 721v60h124v-60h-124zM508 621v58h124v-58h-124zM825 679v-58h-128v58h128z
M825 781v-60h-128v60h128zM894 826h-452v-251h452v251zM361 571l-96 36v349h-66v-323c-46 17 -90 33 -130 48l-20 -67c41 -14 93 -31 150 -53v-247h-66c-9 64 -21 121 -37 167c-13 -8 -40 -20 -55 -26c31 -84 45 -213 53 -335l60 8c-3 41 -7 80 -12 119h57v-204h66v204h86
v67h-86v223l84 -31zM356 875h603v57h-603v-57z" />
</svg>
