<?xml version="1.0" standalone="no"?>
<!DOCTYPE svg PUBLIC "-//W3C//DTD SVG 1.1//EN" "http://www.w3.org/Graphics/SVG/1.1/DTD/svg11.dtd" >
<svg xmlns="http://www.w3.org/2000/svg" xmlns:xlink="http://www.w3.org/1999/xlink" version="1.1" viewBox="-10 0 1010 1000">
   <path fill="currentColor"
d="M407 87v56h-298v-56h298zM219 284v57c0 78 -17 187 -118 262c-10 -13 -31 -32 -45 -42c89 -67 102 -156 102 -221v-56h-96v-56h387v56h-91v178l104 -49c0 18 5 43 8 56c-98 51 -140 74 -159 88l-18 17c-6 -16 -18 -47 -29 -63c13 -8 32 -26 32 -65v-162h-77zM553 388v48
h283v-48h-283zM553 304v46h283v-46h-283zM553 221v45h283v-45h-283zM941 785l1 58h-406v115h-73v-115h-403v-58h403v-86h-237c-24 26 -48 51 -73 70c-14 -10 -46 -26 -63 -34c57 -41 111 -100 143 -161l69 17c-9 18 -19 34 -31 51h192v-58c-11 -12 -28 -28 -42 -38
c57 -17 133 -47 170 -72h-102v-292h140c5 -18 11 -36 14 -54h-190v-54h478v54h-205c-8 19 -16 37 -24 54h200v292h-123c57 25 122 54 160 77l-55 39c-35 -24 -98 -56 -153 -81l39 -35h-174l54 32c-48 29 -114 58 -168 76h54v60h313v57h-313v86h405z" />
</svg>
