<?xml version="1.0" standalone="no"?>
<!DOCTYPE svg PUBLIC "-//W3C//DTD SVG 1.1//EN" "http://www.w3.org/Graphics/SVG/1.1/DTD/svg11.dtd" >
<svg xmlns="http://www.w3.org/2000/svg" xmlns:xlink="http://www.w3.org/1999/xlink" version="1.1" viewBox="-10 0 1010 1000">
   <path fill="currentColor"
d="M891 230h-61v90h61v-90zM848 462h46c15 0 18 -7 19 -67c10 9 29 15 44 20c-5 72 -18 92 -56 92h-59c-45 0 -58 -11 -58 -65v-255h150v176h-104v79c0 18 2 20 18 20zM708 556l30 -38c69 25 159 65 206 94l-31 43c-47 -28 -136 -72 -205 -99zM697 276v-47h-98v47h98z
M697 366v-48h-98v48h98zM697 456v-49h-98v49h98zM551 187h59c6 -16 13 -34 17 -51h-273v-52h594v52h-259c-8 18 -16 35 -23 51h81v312h-196v-312zM545 522l52 20c-52 47 -137 95 -207 124c-8 -11 -26 -36 -37 -46c68 -25 146 -59 192 -98zM532 433l6 44
c-65 23 -126 43 -182 62l-19 -52l26 -6v-244h41v233l35 -10v-288h42v116h49v44h-49v116zM316 478l10 61l-80 32v385h-60v-362c-46 18 -89 35 -128 49l-18 -62c40 -14 91 -33 146 -53v-219h-64c-9 56 -21 106 -35 147c-11 -8 -35 -22 -49 -27c31 -85 45 -211 54 -333l55 9
c-4 48 -9 96 -16 142h55v-204h60v204h78v62h-78v195zM552 704l-8 6c26 37 63 68 108 95c47 -28 87 -62 116 -101h-216zM817 652l41 22c-34 66 -85 118 -147 160c73 31 160 51 256 61c-13 13 -28 36 -36 54c-105 -15 -199 -41 -277 -81c-87 44 -187 72 -287 90
c-7 -16 -21 -39 -32 -52c91 -13 182 -36 261 -73c-37 -25 -70 -55 -95 -90c-32 23 -68 43 -108 62c-9 -14 -26 -32 -39 -41c115 -48 192 -116 229 -181l61 10c-13 22 -28 42 -44 62h206z" />
</svg>
