<?xml version="1.0" standalone="no"?>
<!DOCTYPE svg PUBLIC "-//W3C//DTD SVG 1.1//EN" "http://www.w3.org/Graphics/SVG/1.1/DTD/svg11.dtd" >
<svg xmlns="http://www.w3.org/2000/svg" xmlns:xlink="http://www.w3.org/1999/xlink" version="1.1" viewBox="-10 0 1010 1000">
   <path fill="currentColor"
d="M297 64l53 36c-23 42 -56 88 -91 132c57 110 67 226 67 347c0 141 -11 267 -49 323c-14 18 -32 29 -55 33c-33 7 -73 7 -115 5c-1 -24 -9 -52 -21 -73c47 4 85 3 108 1c14 -2 23 -7 31 -18c23 -33 33 -145 33 -273c0 -19 0 -37 -1 -55c-47 75 -108 148 -166 194
c-9 -20 -26 -48 -42 -64c73 -49 153 -147 198 -239c-8 -43 -18 -84 -36 -124c-41 45 -85 85 -125 115c-9 -19 -27 -50 -43 -66c43 -28 91 -68 134 -114c-25 -40 -58 -79 -100 -116l49 -41c39 34 71 69 97 105c29 -36 55 -73 74 -108zM946 280h-312c-47 84 -102 167 -157 235
l201 -10c35 -51 69 -104 100 -156l66 35c-105 168 -229 325 -349 447l317 -30c-23 -47 -50 -94 -76 -135l61 -29c60 88 123 206 146 281l-67 34c-7 -26 -20 -57 -35 -90c-375 39 -417 43 -445 56c-4 -14 -16 -51 -26 -71c26 -5 56 -37 101 -85c28 -27 90 -99 158 -190
c-187 13 -217 17 -236 24c-4 -15 -15 -50 -23 -69c18 -4 36 -24 59 -53c20 -24 77 -105 123 -194h-195v-71h286c-16 -38 -48 -95 -77 -136l60 -30c31 44 66 100 82 139l-50 27h288v71z" />
</svg>
