<?xml version="1.0" standalone="no"?>
<!DOCTYPE svg PUBLIC "-//W3C//DTD SVG 1.1//EN" "http://www.w3.org/Graphics/SVG/1.1/DTD/svg11.dtd" >
<svg xmlns="http://www.w3.org/2000/svg" xmlns:xlink="http://www.w3.org/1999/xlink" version="1.1" viewBox="-10 0 1010 1000">
   <path fill="currentColor"
d="M325 63l53 38c-25 41 -60 84 -98 127c60 111 70 228 70 350c0 142 -11 267 -50 324c-13 18 -31 29 -54 33c-35 7 -77 7 -120 5c-1 -24 -11 -52 -23 -73c50 4 90 4 114 1c15 -2 24 -7 32 -18c24 -34 33 -146 33 -274c0 -23 0 -44 -1 -65c-55 80 -128 156 -197 204
c-8 -19 -25 -47 -41 -63c84 -50 177 -149 227 -243c-8 -44 -19 -87 -39 -129c-49 49 -101 93 -149 125c-9 -20 -26 -51 -41 -67c50 -28 105 -71 156 -119c-25 -38 -57 -75 -98 -111l49 -42c39 34 70 68 96 104c32 -36 61 -72 81 -107zM834 565v-181h-316v181h316zM518 821
h316v-188h-316v188zM948 158h-225c-13 53 -28 110 -43 156h227v635h-73v-59h-316v65h-71v-641h161c13 -47 24 -106 32 -156h-228v-70h536v70z" />
</svg>
