<?xml version="1.0" standalone="no"?>
<!DOCTYPE svg PUBLIC "-//W3C//DTD SVG 1.1//EN" "http://www.w3.org/Graphics/SVG/1.1/DTD/svg11.dtd" >
<svg xmlns="http://www.w3.org/2000/svg" xmlns:xlink="http://www.w3.org/1999/xlink" version="1.1" viewBox="-10 0 1010 1000">
   <path fill="currentColor"
d="M268 64l52 31c-22 47 -53 97 -88 144c45 106 53 218 53 338c0 139 -8 282 -43 332c-13 15 -29 24 -51 28c-26 4 -58 5 -92 4c-1 -22 -7 -46 -19 -65c35 2 66 2 83 1c13 -1 21 -6 28 -14c23 -30 30 -162 30 -287v-39c-40 67 -90 131 -139 173c-8 -17 -25 -44 -38 -58
c62 -48 133 -143 169 -228c-5 -44 -14 -87 -27 -128c-36 40 -73 76 -109 104c-7 -19 -24 -47 -37 -64c39 -26 80 -64 118 -107c-21 -43 -51 -86 -90 -128l49 -33c34 35 62 72 83 109c28 -37 52 -76 68 -113zM486 43l64 15c-18 69 -38 137 -64 200v698h-63v-562
c-24 44 -50 85 -78 119c-8 -14 -28 -48 -41 -63c81 -97 145 -250 182 -407zM947 338h-166c39 164 109 335 188 419c-16 12 -37 34 -48 50c-62 -77 -117 -212 -157 -353v503h-65v-504c-40 146 -97 282 -163 360c-12 -15 -32 -38 -47 -50c80 -84 152 -257 191 -425h-157v-65
h176v-227h65v227h183v65z" />
</svg>
