<?xml version="1.0" standalone="no"?>
<!DOCTYPE svg PUBLIC "-//W3C//DTD SVG 1.1//EN" "http://www.w3.org/Graphics/SVG/1.1/DTD/svg11.dtd" >
<svg xmlns="http://www.w3.org/2000/svg" xmlns:xlink="http://www.w3.org/1999/xlink" version="1.1" viewBox="-10 0 1010 1000">
   <path fill="currentColor"
d="M937 257l-61 26c-16 -45 -53 -116 -88 -168l57 -22c37 51 76 120 92 164zM527 288l-46 57c-39 -35 -94 -74 -157 -112c-68 45 -143 82 -216 112c-10 -15 -35 -45 -48 -60c68 -23 137 -53 199 -89c-55 -30 -111 -57 -164 -79l46 -49c58 24 121 54 180 87
c45 -34 83 -70 113 -110l68 24c-32 45 -72 85 -118 121c57 34 107 69 143 98zM530 546v250c0 29 -5 45 -25 55c-19 10 -49 11 -95 11c-3 -17 -12 -40 -20 -56c31 1 57 1 66 0c8 0 11 -2 11 -11v-188h-102v350h-64v-350h-99v266h-62v-239c-20 25 -40 48 -62 68
c-9 -14 -31 -42 -45 -55c58 -51 108 -120 146 -199h-122v-65h151c13 -31 23 -64 32 -97l65 14c-8 28 -17 56 -28 83h265v65h-290c-16 34 -32 67 -51 98h100v-69h64v69h165zM952 388h-182c28 219 84 408 194 503c-17 14 -40 42 -52 61c-85 -82 -137 -210 -172 -366
c-24 131 -74 264 -173 375c-12 -15 -37 -39 -56 -50c144 -152 173 -358 179 -523h-146v-69h147v-27v-249h72v249v27h189v69z" />
</svg>
