<?xml version="1.0" standalone="no"?>
<!DOCTYPE svg PUBLIC "-//W3C//DTD SVG 1.1//EN" "http://www.w3.org/Graphics/SVG/1.1/DTD/svg11.dtd" >
<svg xmlns="http://www.w3.org/2000/svg" xmlns:xlink="http://www.w3.org/1999/xlink" version="1.1" viewBox="-10 0 1010 1000">
   <path fill="currentColor"
d="M289 63l54 37c-23 42 -56 88 -91 132c56 109 66 225 66 346c0 142 -10 268 -49 324c-13 18 -32 29 -54 33c-34 7 -73 7 -115 5c-1 -24 -9 -52 -22 -73c48 4 85 3 108 1c14 -2 23 -7 31 -18c24 -33 33 -146 33 -274c0 -18 0 -36 -1 -54c-47 76 -108 147 -165 193
c-8 -19 -27 -48 -42 -63c74 -49 153 -148 197 -240c-7 -43 -18 -84 -36 -124c-41 45 -84 85 -125 116c-9 -20 -27 -50 -42 -67c43 -26 91 -67 134 -114c-26 -39 -59 -78 -101 -115l50 -42c39 35 70 70 96 105c29 -35 56 -72 74 -108zM796 742l-39 50
c-27 -31 -77 -79 -123 -120v236h-64v-242c-45 78 -102 149 -154 192c-12 -16 -33 -39 -47 -52c64 -44 138 -133 183 -220h-166v-62h184v-222h64v222h178v62h-178v11l1 -1c55 45 125 108 161 146zM425 366l50 -14c24 44 45 103 53 139l-54 18c-8 -37 -28 -98 -49 -143z
M733 342l61 20c-26 50 -53 111 -77 148l-44 -16c21 -41 47 -108 60 -152zM936 184v39c-10 489 -19 645 -51 691c-18 27 -37 36 -66 40c-26 3 -69 3 -114 0c-1 -21 -7 -50 -19 -70c45 4 84 4 103 4c15 0 23 -3 33 -17c23 -32 34 -184 43 -619h-369c-27 45 -56 86 -87 120
c-13 -12 -36 -33 -53 -43c69 -72 126 -186 155 -286l70 21c-14 41 -31 81 -49 120h404z" />
</svg>
