<?xml version="1.0" standalone="no"?>
<!DOCTYPE svg PUBLIC "-//W3C//DTD SVG 1.1//EN" "http://www.w3.org/Graphics/SVG/1.1/DTD/svg11.dtd" >
<svg xmlns="http://www.w3.org/2000/svg" xmlns:xlink="http://www.w3.org/1999/xlink" version="1.1" viewBox="-10 0 1010 1000">
   <path fill="currentColor"
d="M861 117l-49 42c-32 -26 -96 -60 -147 -80l48 -37c51 19 115 51 148 75zM812 241l62 25c-37 37 -86 70 -142 99c39 36 83 56 131 58c20 0 30 -25 37 -84c16 15 39 28 56 34c-19 89 -45 121 -87 120c-82 -3 -150 -38 -205 -96c-77 33 -160 60 -239 79
c-7 -15 -27 -44 -39 -58c81 -16 165 -39 240 -68c-23 -32 -41 -67 -58 -106l-170 13l-4 -60l153 -11c-15 -45 -26 -93 -34 -143h71c8 49 19 95 34 137l317 -22l4 60l-297 21c14 31 31 58 49 81c49 -22 90 -49 121 -79zM838 542l-49 42c-34 -27 -98 -64 -149 -85l47 -37
c52 21 117 56 151 80zM289 64l54 36c-23 42 -56 88 -91 132c56 109 66 226 66 347c0 142 -10 268 -49 323c-13 18 -32 29 -54 33c-34 7 -73 7 -115 5c-1 -24 -9 -52 -22 -73c48 4 85 3 108 1c14 -2 23 -7 31 -18c24 -33 33 -145 33 -273c0 -18 0 -37 -1 -54
c-47 75 -108 147 -165 193c-8 -20 -27 -48 -42 -64c74 -49 153 -147 197 -240c-7 -43 -18 -84 -36 -124c-41 45 -84 85 -125 115c-9 -19 -27 -49 -42 -66c43 -26 91 -67 134 -114c-26 -39 -59 -78 -101 -115l50 -41c39 34 70 69 96 104c29 -35 56 -72 74 -107zM818 661
l66 25c-42 53 -96 98 -161 138c42 39 90 62 143 64c22 1 34 -28 42 -94c16 14 41 29 57 34c-18 97 -47 133 -93 132c-87 -4 -158 -40 -215 -102c-85 44 -180 75 -273 100c-8 -16 -29 -48 -42 -61c95 -20 191 -49 275 -88c-28 -41 -52 -88 -71 -141l-160 12l-3 -61l143 -10
c-12 -45 -22 -93 -30 -143h73c7 49 18 95 30 138l350 -24l5 60l-334 23c18 42 38 80 62 111c56 -32 103 -69 136 -113z" />
</svg>
