<?xml version="1.0" standalone="no"?>
<!DOCTYPE svg PUBLIC "-//W3C//DTD SVG 1.1//EN" "http://www.w3.org/Graphics/SVG/1.1/DTD/svg11.dtd" >
<svg xmlns="http://www.w3.org/2000/svg" xmlns:xlink="http://www.w3.org/1999/xlink" version="1.1" viewBox="-10 0 1010 1000">
   <path fill="currentColor"
d="M661 554h-163v149h163v-149zM724 763h-226v58h-64v-325h290v267zM804 300h-70v-93h-161v93h-65c-5 13 -10 27 -16 40h440v36c-14 372 -27 500 -61 540c-19 26 -40 33 -72 36c-30 3 -83 2 -137 -1c-1 -20 -10 -50 -22 -69c56 5 109 5 129 5c19 0 29 -2 40 -14
c25 -27 39 -148 50 -467h-400c-30 54 -64 103 -99 141c-8 -7 -21 -17 -35 -26c1 20 1 40 1 60c0 147 -11 278 -52 335c-15 19 -34 29 -59 33c-36 7 -80 8 -123 6c-1 -24 -9 -51 -22 -72c50 4 92 4 115 1c16 -2 26 -7 35 -19c26 -34 36 -152 36 -285c0 -18 0 -35 -1 -52
c-50 71 -114 140 -172 184c-11 -17 -32 -42 -49 -56c76 -49 163 -145 212 -235c-8 -47 -20 -92 -39 -136c-38 38 -78 73 -119 104c-11 -15 -35 -36 -51 -48c47 -34 93 -75 135 -119c-28 -45 -66 -88 -116 -130l51 -40c46 38 83 77 112 117c33 -40 61 -81 83 -121l65 33
c-30 51 -67 102 -109 150c42 80 59 163 65 250c54 -60 99 -143 125 -226l57 13v-61h-141v-65h141v-98h68v98h161v-98h70v98h143v65h-143v93z" />
</svg>
