<?xml version="1.0" standalone="no"?>
<!DOCTYPE svg PUBLIC "-//W3C//DTD SVG 1.1//EN" "http://www.w3.org/Graphics/SVG/1.1/DTD/svg11.dtd" >
<svg xmlns="http://www.w3.org/2000/svg" xmlns:xlink="http://www.w3.org/1999/xlink" version="1.1" viewBox="-10 0 1010 1000">
   <path fill="currentColor"
d="M280 65l57 30c-24 47 -58 97 -96 144c49 106 58 217 58 339c0 139 -9 281 -48 331c-13 15 -30 24 -55 28c-27 4 -63 5 -98 4c-1 -22 -9 -46 -21 -65c38 2 71 2 89 1c14 -1 23 -6 30 -14c25 -30 33 -162 33 -286v-39c-43 66 -97 131 -149 173c-8 -18 -26 -44 -41 -59
c67 -48 143 -142 182 -227c-6 -44 -16 -87 -30 -129c-37 40 -78 76 -116 104c-9 -19 -27 -47 -41 -64c42 -25 86 -64 127 -107c-23 -43 -55 -86 -97 -127l53 -34c38 36 67 72 90 109c29 -37 55 -75 73 -112zM437 706h129v-86h-129v86zM566 482h-129v83h129v-83zM630 424v448
c0 31 -6 49 -28 60c-21 11 -52 12 -100 12c-3 -18 -11 -44 -20 -61c33 1 62 0 71 0c10 0 13 -2 13 -12v-110h-129v195h-64v-532h257zM850 871v-467h65v468c0 36 -7 53 -32 64s-65 11 -128 11c-3 -17 -12 -43 -20 -61c46 1 86 1 98 0c13 0 17 -3 17 -15zM767 433v358h-61
v-358h61zM462 288h367c-68 -40 -129 -87 -184 -148c-51 57 -114 107 -183 148zM639 40l67 24c-6 9 -13 18 -20 28c78 86 174 142 284 188c-19 14 -40 37 -51 56c-30 -15 -58 -29 -86 -45v61h-391v-52c-24 13 -47 24 -71 35c-11 -15 -32 -38 -50 -51
c127 -52 253 -143 318 -244z" />
</svg>
