<?xml version="1.0" standalone="no"?>
<!DOCTYPE svg PUBLIC "-//W3C//DTD SVG 1.1//EN" "http://www.w3.org/Graphics/SVG/1.1/DTD/svg11.dtd" >
<svg xmlns="http://www.w3.org/2000/svg" xmlns:xlink="http://www.w3.org/1999/xlink" version="1.1" viewBox="-10 0 1010 1000">
   <path fill="currentColor"
d="M911 414l-56 33c-10 -16 -26 -33 -43 -52c-326 28 -366 32 -389 43c-3 -15 -14 -48 -21 -65c16 -3 34 -15 56 -33c24 -19 100 -89 151 -163l61 36c-46 54 -97 105 -148 148l240 -18c-27 -26 -55 -51 -80 -72l53 -27c65 49 140 122 176 170zM280 64l51 36
c-23 42 -54 87 -88 130c56 110 66 228 66 348c0 142 -11 268 -48 324c-12 18 -30 29 -52 33c-32 7 -70 7 -110 5c-1 -24 -9 -52 -21 -73c45 4 83 3 104 1c15 -2 23 -7 31 -18c23 -33 32 -145 32 -274c0 -19 0 -40 -1 -58c-46 76 -107 151 -164 198c-8 -20 -25 -48 -38 -64
c71 -49 150 -147 192 -241c-7 -44 -18 -86 -35 -127c-41 47 -84 88 -124 120c-8 -20 -24 -50 -39 -67c42 -27 87 -69 130 -115c-24 -39 -55 -77 -96 -114l46 -41c38 34 68 69 93 105c28 -36 53 -73 71 -108zM533 62l62 18c-49 87 -134 166 -213 217c-11 -12 -36 -34 -50 -45
c79 -44 158 -114 201 -190zM627 488v393c0 34 -6 51 -30 62s-62 11 -117 11c-3 -18 -12 -42 -20 -59c41 1 76 1 87 0c12 0 15 -3 15 -14v-118c-70 38 -139 77 -196 107l-31 -54c58 -25 142 -67 227 -110v-155h-207v-63h272zM524 675l-43 39c-24 -31 -72 -78 -112 -111
l41 -33c40 32 89 77 114 105zM933 488v393c0 34 -6 51 -31 62c-24 11 -63 11 -118 11c-3 -18 -12 -42 -20 -59c42 1 77 1 88 0c12 0 15 -4 15 -14v-119c-70 38 -140 75 -197 106l-30 -55c57 -26 141 -67 227 -108v-154h-207v-63h273zM827 676l-42 39
c-24 -31 -75 -77 -116 -109l40 -33c42 31 94 75 118 103zM686 82l55 -21c47 71 141 142 232 172c-15 14 -36 39 -47 57c-94 -39 -189 -123 -240 -208z" />
</svg>
