<?xml version="1.0" standalone="no"?>
<!DOCTYPE svg PUBLIC "-//W3C//DTD SVG 1.1//EN" "http://www.w3.org/Graphics/SVG/1.1/DTD/svg11.dtd" >
<svg xmlns="http://www.w3.org/2000/svg" xmlns:xlink="http://www.w3.org/1999/xlink" version="1.1" viewBox="-10 0 1010 1000">
   <path fill="currentColor"
d="M955 326v56h-590v-56h255v-58h-195v-51h195v-57h-217v-53h217v-64h73v64h225v53h-225v57h202v51h-202v58h262zM505 685v59h310v-59h-310zM505 581v58h310v-58h-310zM505 478v58h310v-58h-310zM888 793h-454v-364h454v364zM287 64l54 36c-23 42 -56 88 -91 133
c57 109 66 224 66 345c0 142 -10 269 -49 324c-13 18 -31 29 -54 33c-33 7 -72 7 -114 5c-1 -24 -9 -52 -22 -73c48 4 86 3 108 1c14 -2 23 -7 31 -18c24 -33 33 -145 33 -274c0 -18 0 -36 -1 -55c-47 76 -107 148 -165 194c-8 -19 -26 -48 -41 -63
c73 -49 152 -147 196 -240c-7 -43 -18 -84 -36 -125c-41 45 -84 86 -125 117c-8 -20 -26 -50 -41 -67c43 -26 90 -67 133 -113c-25 -39 -58 -79 -100 -116l48 -41c39 34 71 69 97 106c29 -37 55 -74 73 -109zM556 802l63 39c-59 47 -158 92 -241 117
c-10 -15 -31 -38 -44 -53c80 -22 177 -65 222 -103zM703 840l54 -37c71 35 153 81 202 115l-73 39c-41 -34 -116 -80 -183 -117z" />
</svg>
