<?xml version="1.0" standalone="no"?>
<!DOCTYPE svg PUBLIC "-//W3C//DTD SVG 1.1//EN" "http://www.w3.org/Graphics/SVG/1.1/DTD/svg11.dtd" >
<svg xmlns="http://www.w3.org/2000/svg" xmlns:xlink="http://www.w3.org/1999/xlink" version="1.1" viewBox="-10 0 1010 1000">
   <path fill="currentColor"
d="M835 36l53 48c-137 36 -343 58 -518 70c-3 -16 -12 -38 -21 -52c174 -12 373 -34 486 -66zM685 272l-59 18c-6 -38 -27 -95 -50 -138l56 -16c26 42 47 98 53 136zM277 49l64 32c-28 51 -64 103 -104 151c51 110 60 226 60 348c0 144 -9 285 -49 340c-12 16 -31 28 -55 31
c-31 6 -68 7 -105 5c-1 -24 -8 -51 -21 -72c42 3 77 3 97 1c14 -2 23 -6 30 -16c24 -32 33 -160 33 -290v-42c-43 67 -97 131 -147 173c-11 -18 -31 -42 -48 -56c68 -49 144 -142 187 -229c-6 -46 -17 -91 -32 -135c-34 35 -68 68 -103 96c-11 -13 -34 -35 -50 -46
c42 -33 84 -73 122 -116c-25 -46 -59 -91 -104 -134l52 -38c40 37 72 76 98 116c29 -40 56 -81 75 -119zM477 920l-49 -21c29 -48 42 -131 48 -202l50 13c-6 74 -18 161 -49 210zM571 704l47 -8c14 54 26 124 25 165l-49 14c1 -43 -8 -115 -23 -171zM663 696l41 -15
c23 44 46 101 53 136l-43 18c-8 -36 -29 -95 -51 -139zM858 774l-39 22c-13 -32 -42 -80 -70 -115l38 -17c28 33 58 80 71 110zM809 497h-348c-1 27 -2 57 -4 87h344c3 -27 6 -59 8 -87zM744 353h-283v86h275c3 -27 6 -59 8 -86zM865 584h83s-1 20 -2 30
c-10 207 -21 286 -44 313c-16 18 -33 24 -58 27c-21 1 -64 1 -106 -1c-1 -20 -8 -46 -18 -64c41 5 79 5 94 5c14 0 23 -2 30 -11c16 -16 24 -78 33 -240h-427c-15 101 -45 209 -109 291c-10 -12 -36 -36 -50 -44c94 -122 106 -291 106 -415v-179h66
c-13 -37 -37 -84 -64 -121l54 -17c32 41 63 99 74 138h202c30 -47 67 -119 87 -171l63 20c-25 49 -56 106 -84 150l17 1c-2 50 -6 100 -10 143h17l11 -3l47 4c-3 51 -7 101 -12 144z" />
</svg>
