<?xml version="1.0" standalone="no"?>
<!DOCTYPE svg PUBLIC "-//W3C//DTD SVG 1.1//EN" "http://www.w3.org/Graphics/SVG/1.1/DTD/svg11.dtd" >
<svg xmlns="http://www.w3.org/2000/svg" xmlns:xlink="http://www.w3.org/1999/xlink" version="1.1" viewBox="-10 0 1010 1000">
   <path fill="currentColor"
d="M849 234v-67h-97v67h97zM849 350v-69h-97v69h97zM439 281v69h94v-69h-94zM439 167v67h94v-67h-94zM693 281h-101v69h101v-69zM693 167h-101v67h101v-67zM911 118v281h-531v-281h153v-72h59v72h101v-72h59v72h159zM281 64l51 36c-22 42 -54 87 -88 131
c56 110 65 226 65 347c0 142 -10 268 -48 324c-13 18 -31 29 -52 33c-33 7 -71 7 -112 5c0 -25 -8 -53 -21 -74c46 4 84 3 105 0c14 -1 23 -6 31 -17c23 -34 32 -145 32 -272c0 -20 0 -39 -1 -57c-45 76 -105 149 -161 196c-9 -20 -26 -48 -40 -64c71 -49 149 -147 191 -239
c-7 -43 -17 -86 -35 -126c-40 45 -83 87 -123 117c-7 -20 -24 -50 -39 -67c42 -26 87 -68 130 -113c-25 -40 -57 -79 -98 -116l47 -42c38 34 69 71 95 107c28 -36 53 -74 71 -109zM897 715l41 38c-39 29 -87 53 -128 73c43 35 95 60 156 76c-14 13 -32 37 -40 54
c-129 -39 -220 -125 -269 -245h-101v157l140 -26c0 18 3 43 5 57c-177 35 -204 43 -221 53c-4 -17 -13 -51 -24 -69c16 -6 36 -20 36 -57v-115h-73c-12 85 -39 176 -98 246c-11 -12 -39 -31 -54 -39c83 -97 95 -233 95 -331v-142h581v58h-516v85c0 21 -1 43 -2 67h528v56
h-234c14 29 33 56 55 80c41 -21 93 -54 123 -76zM888 602h-418v-49h418v49z" />
</svg>
