<?xml version="1.0" standalone="no"?>
<!DOCTYPE svg PUBLIC "-//W3C//DTD SVG 1.1//EN" "http://www.w3.org/Graphics/SVG/1.1/DTD/svg11.dtd" >
<svg xmlns="http://www.w3.org/2000/svg" xmlns:xlink="http://www.w3.org/1999/xlink" version="1.1" viewBox="-10 0 1010 1000">
   <path fill="currentColor"
d="M418 397v87h85v-87h-85zM504 132h-86v81h86v-81zM581 347v-84h-163v84h163zM657 484v58h-300v-469h289v59h-87v81h74v150c50 -85 86 -202 109 -318l67 13c-10 46 -21 91 -34 134h168v66h-190c-25 69 -53 132 -85 181c-14 -10 -44 -27 -61 -35l5 -7h-55v87h100zM911 480
l-55 38c-24 -46 -75 -119 -116 -172l52 -33c42 54 93 124 119 167zM281 64l51 37c-23 43 -55 89 -89 133c54 108 63 224 63 344c0 142 -10 268 -48 323c-12 19 -30 30 -52 34c-32 7 -71 7 -112 5c-1 -24 -8 -52 -21 -73c47 4 84 3 106 1c14 -2 23 -7 30 -18
c24 -33 32 -146 32 -274c0 -17 0 -34 -1 -52c-45 75 -103 145 -158 191c-9 -19 -26 -48 -39 -63c69 -48 145 -144 188 -234c-7 -45 -17 -88 -34 -130c-40 45 -82 86 -122 116c-7 -20 -24 -50 -39 -67c41 -26 86 -66 129 -112c-25 -39 -56 -78 -97 -117l47 -41
c38 35 68 71 93 107c29 -36 55 -74 73 -110zM463 653v214h89v-214h-89zM693 653h-91v214h91v-214zM835 653h-91v214h91v-214zM899 867h58v64h-641v-64h85v-275h498v275z" />
</svg>
