<?xml version="1.0" standalone="no"?>
<!DOCTYPE svg PUBLIC "-//W3C//DTD SVG 1.1//EN" "http://www.w3.org/Graphics/SVG/1.1/DTD/svg11.dtd" >
<svg xmlns="http://www.w3.org/2000/svg" xmlns:xlink="http://www.w3.org/1999/xlink" version="1.1" viewBox="-10 0 1010 1000">
   <path fill="currentColor"
d="M957 664v67h-636v-67h60l-13 -521c40 -18 99 -52 131 -74l50 45c-36 23 -78 42 -115 57l3 123h90v60h-88l3 124h85v59h-84l3 127h104v-214h52v214h62v-280h-111v-338h58v118h121v59h-121v103h106v338h105c2 -37 4 -79 6 -124h-88v-60h90c1 -40 2 -81 3 -123h-93v-58h94
v-128h-98v-59h164c0 174 -4 407 -12 552h69zM268 65l52 30c-22 47 -54 97 -90 144c47 106 55 218 55 338c0 139 -9 282 -45 332c-12 15 -29 24 -52 28c-25 4 -59 5 -92 4c0 -22 -8 -46 -20 -65c36 2 67 2 85 1c12 -1 21 -6 28 -14c23 -30 30 -163 30 -287v-38
c-40 66 -92 130 -140 172c-8 -17 -25 -44 -39 -59c63 -47 134 -141 172 -225c-6 -45 -15 -88 -28 -130c-37 40 -75 77 -111 104c-7 -19 -25 -47 -38 -64c40 -25 82 -63 120 -105c-21 -44 -51 -88 -91 -129l49 -33c35 35 63 72 85 109c29 -37 53 -76 70 -113zM511 752l66 29
c-65 61 -160 132 -233 178c-9 -14 -32 -48 -46 -63c70 -38 156 -94 213 -144zM708 797l46 -46c68 45 160 111 206 155l-49 53c-44 -45 -134 -114 -203 -162z" />
</svg>
