<?xml version="1.0" standalone="no"?>
<!DOCTYPE svg PUBLIC "-//W3C//DTD SVG 1.1//EN" "http://www.w3.org/Graphics/SVG/1.1/DTD/svg11.dtd" >
<svg xmlns="http://www.w3.org/2000/svg" xmlns:xlink="http://www.w3.org/1999/xlink" version="1.1" viewBox="-10 0 1010 1000">
   <path fill="currentColor"
d="M399 192v82h-66v-139h252c-10 -23 -22 -47 -33 -67l73 -14c16 24 34 56 45 81h256v138h-69v-81h-458zM550 217l51 25c-64 50 -148 97 -235 122l-33 -49c76 -18 159 -53 217 -98zM273 55l51 42c-25 48 -58 94 -96 138c41 107 49 219 49 339c0 142 -8 289 -43 340
c-12 16 -28 25 -50 29c-25 4 -58 5 -92 3c0 -21 -7 -45 -18 -64c35 3 65 2 83 0c12 -1 21 -5 28 -13c22 -30 30 -169 30 -296v-31c-39 65 -86 126 -131 168c-9 -18 -28 -45 -42 -59c61 -48 128 -140 166 -226c-5 -48 -14 -95 -27 -140c-31 30 -62 58 -94 83
c-10 -14 -30 -35 -45 -48c39 -29 77 -64 112 -103c-21 -45 -50 -89 -88 -132l47 -33c34 38 62 77 84 116c30 -37 56 -76 76 -113zM588 888l-38 14c-2 -11 -4 -26 -7 -41c-70 26 -87 35 -98 43c-5 -12 -17 -34 -25 -46c11 -6 29 -25 29 -64v-350c-19 4 -37 7 -56 9v66
c0 112 -12 285 -70 412c-7 -12 -28 -33 -39 -39c52 -117 59 -271 59 -374v-109c84 -14 183 -36 242 -59l36 53c-36 12 -80 23 -126 32v390l38 -12c-7 -28 -14 -58 -22 -84l36 -14c18 55 35 127 41 173zM523 490l39 -19c25 75 54 172 66 235l-41 20
c-11 -64 -39 -162 -64 -236zM903 364l30 39c-16 5 -32 9 -50 13c9 196 30 383 91 470c-13 10 -31 28 -41 43c-65 -101 -85 -292 -95 -502c-18 4 -36 7 -55 10v403l38 -11c-7 -30 -14 -61 -21 -88l35 -11c18 59 34 134 40 184l-37 12c-2 -15 -4 -32 -8 -51
c-74 27 -94 36 -104 45c-4 -13 -16 -36 -24 -48c13 -7 32 -23 32 -62v-365c-17 3 -33 5 -49 7v107c0 105 -10 262 -64 378c-8 -12 -28 -32 -38 -37c48 -106 54 -244 54 -341v-154c82 -11 176 -29 239 -47c-57 -30 -145 -67 -214 -92l26 -43c78 26 183 69 238 98z" />
</svg>
