<?xml version="1.0" standalone="no"?>
<!DOCTYPE svg PUBLIC "-//W3C//DTD SVG 1.1//EN" "http://www.w3.org/Graphics/SVG/1.1/DTD/svg11.dtd" >
<svg xmlns="http://www.w3.org/2000/svg" xmlns:xlink="http://www.w3.org/1999/xlink" version="1.1" viewBox="-10 0 1010 1000">
   <path fill="currentColor"
d="M952 259l-55 26c-18 -45 -58 -115 -94 -166l52 -22c38 50 79 117 97 162zM722 267l-37 41c-15 -24 -44 -59 -75 -91c-19 39 -44 74 -72 101c-9 -10 -33 -28 -47 -36c61 -54 98 -137 114 -234l57 7c-7 40 -17 77 -29 111c34 35 71 75 89 101zM532 212l-33 42
c-12 -12 -31 -29 -52 -45c-19 41 -43 78 -71 106c-10 -9 -35 -25 -50 -33c59 -56 96 -140 111 -235l59 8c-7 38 -16 73 -28 106c24 17 49 37 64 51zM280 64l51 31c-22 47 -53 97 -88 144c45 106 53 219 53 339c0 138 -8 281 -44 331c-12 15 -28 24 -50 28c-25 4 -58 5 -91 4
c-1 -22 -7 -46 -18 -65c35 2 65 2 82 1c12 -1 21 -6 28 -14c22 -30 29 -162 29 -286v-39c-39 66 -89 131 -137 173c-8 -18 -24 -44 -37 -59c61 -47 131 -141 167 -226c-6 -45 -14 -88 -28 -130c-35 40 -72 76 -107 104c-7 -19 -24 -47 -37 -64c39 -26 80 -63 117 -106
c-21 -44 -51 -87 -89 -128l48 -34c34 36 62 73 83 110c27 -37 52 -76 68 -114zM713 799v25c18 -21 34 -45 48 -70c-17 -94 -27 -220 -33 -367h-103v67h81v51h-81v66h78v51h-78v67h84v51h-84v69zM513 387v436l56 -7v-429h-56zM870 444l55 26c-21 109 -55 203 -99 285
c16 75 37 118 65 120c15 0 26 -46 32 -121c11 17 36 36 47 44c-19 124 -51 160 -82 159c-49 -2 -84 -47 -108 -127c-38 54 -82 99 -131 135c-9 -11 -28 -28 -41 -37c27 -20 53 -43 78 -70c-131 17 -263 35 -360 46l-9 -59l141 -15v-90h-93v-51h93v-67h-87v-51h87v-67h-90
v-51h90v-66h-127v-63h395c-2 -86 -3 -180 -4 -279h66c0 100 0 193 3 279h166v63h-164c3 103 9 193 18 268c26 -63 46 -134 59 -211z" />
</svg>
