<?xml version="1.0" standalone="no"?>
<!DOCTYPE svg PUBLIC "-//W3C//DTD SVG 1.1//EN" "http://www.w3.org/Graphics/SVG/1.1/DTD/svg11.dtd" >
<svg xmlns="http://www.w3.org/2000/svg" xmlns:xlink="http://www.w3.org/1999/xlink" version="1.1" viewBox="-10 0 1010 1000">
   <path fill="currentColor"
d="M283 468v238c48 -15 98 -31 147 -47l8 68c-134 44 -278 90 -383 123l-13 -71c48 -13 108 -32 175 -52v-259h-149v-70h149v-217h-155v-70h362v70h-141v217h128v70h-128zM586 956v-905h75v905h-75zM666 379l52 -46c73 75 169 178 214 241l-56 54
c-44 -65 -138 -172 -210 -249z" />
</svg>
