<?xml version="1.0" standalone="no"?>
<!DOCTYPE svg PUBLIC "-//W3C//DTD SVG 1.1//EN" "http://www.w3.org/Graphics/SVG/1.1/DTD/svg11.dtd" >
<svg xmlns="http://www.w3.org/2000/svg" xmlns:xlink="http://www.w3.org/1999/xlink" version="1.1" viewBox="-10 0 1010 1000">
   <path fill="currentColor"
d="M235 467v252c42 -13 86 -28 129 -41l8 67c-112 39 -231 77 -321 106l-14 -72c37 -10 82 -24 132 -40v-272h-103v-69h103v-217h-120v-70h305v70h-119v217h94v69h-94zM947 178h-246v122h203v450c0 33 -6 52 -30 64c-23 12 -58 12 -108 12c-2 -19 -12 -46 -22 -64
c35 1 65 1 74 0c10 0 13 -3 13 -13v-389h-130v591h-71v-591h-127v480h-71v-540h198v-122h-233v-67h550v67z" />
</svg>
