<?xml version="1.0" standalone="no"?>
<!DOCTYPE svg PUBLIC "-//W3C//DTD SVG 1.1//EN" "http://www.w3.org/Graphics/SVG/1.1/DTD/svg11.dtd" >
<svg xmlns="http://www.w3.org/2000/svg" xmlns:xlink="http://www.w3.org/1999/xlink" version="1.1" viewBox="-10 0 1010 1000">
   <path fill="currentColor"
d="M501 148v83c0 100 -25 223 -150 303c-11 -13 -39 -39 -55 -48c117 -73 134 -172 134 -256v-147h362v320c0 21 1 33 7 37c5 3 11 5 18 5h35c11 0 20 -2 25 -5s10 -12 12 -25c3 -17 4 -53 4 -99c15 12 40 25 61 31c-2 43 -5 93 -11 111c-6 19 -16 31 -31 38
c-13 8 -36 11 -53 11h-58c-21 0 -45 -6 -60 -18c-16 -13 -22 -30 -22 -90v-251h-218zM505 267l47 -40c55 34 117 83 145 120l-49 43c-29 -37 -90 -89 -143 -123zM168 532v-254c-25 29 -50 54 -75 76c-6 -14 -26 -47 -39 -62c76 -62 149 -156 192 -252l68 18
c-20 45 -46 89 -75 130v344h-71zM816 841l-21 19h156v63h-899v-63h410v-103h-305v-57h305v-84h-348v-61h777v61h-356v84h311v57h-311v103h215c-35 -24 -82 -51 -117 -71l40 -32c46 25 109 61 143 84z" />
</svg>
