<?xml version="1.0" standalone="no"?>
<!DOCTYPE svg PUBLIC "-//W3C//DTD SVG 1.1//EN" "http://www.w3.org/Graphics/SVG/1.1/DTD/svg11.dtd" >
<svg xmlns="http://www.w3.org/2000/svg" xmlns:xlink="http://www.w3.org/1999/xlink" version="1.1" viewBox="-10 0 1010 1000">
   <path fill="currentColor"
d="M250 716l125 -41l9 67c-114 39 -237 78 -326 108l-16 -72c40 -11 89 -26 143 -43v-268h-117v-69h117v-217h-130v-70h316v70h-121v217h98v69h-98v249zM490 169v667h204v-190h-138v-311h131v-166h-197zM819 587v-193h-203v193h203zM758 836h197v66h-533v-800h513v67h-184
v166h132v311h-125v190z" />
</svg>
