<?xml version="1.0" standalone="no"?>
<!DOCTYPE svg PUBLIC "-//W3C//DTD SVG 1.1//EN" "http://www.w3.org/Graphics/SVG/1.1/DTD/svg11.dtd" >
<svg xmlns="http://www.w3.org/2000/svg" xmlns:xlink="http://www.w3.org/1999/xlink" version="1.1" viewBox="-10 0 1010 1000">
   <path fill="currentColor"
d="M362 678l8 67c-111 38 -230 76 -318 105l-15 -72c37 -9 82 -23 131 -39v-271h-105v-70h105v-217h-119v-70h308v70h-124v217h98v70h-98v252c42 -14 86 -28 129 -42zM475 545h135c9 -54 13 -111 15 -175h-150v175zM715 195h-167c-23 37 -50 76 -80 111h184
c21 -32 44 -74 63 -111zM846 545v-175h-151c-3 63 -7 121 -15 175h166zM764 888h106c28 0 33 -16 37 -122c14 12 43 24 62 29c-7 127 -27 160 -92 160h-121c-78 0 -97 -22 -97 -97v-207c-40 141 -122 244 -303 307c-9 -18 -27 -43 -42 -58c178 -58 252 -156 285 -291h-192
v-239c-7 6 -13 12 -20 18c-12 -15 -35 -36 -50 -46c105 -85 177 -205 213 -299l70 13c-11 24 -23 51 -36 76h166l11 -3l45 30c-20 48 -51 102 -81 147h192v303h-190v248c0 26 5 31 37 31z" />
</svg>
