<?xml version="1.0" standalone="no"?>
<!DOCTYPE svg PUBLIC "-//W3C//DTD SVG 1.1//EN" "http://www.w3.org/Graphics/SVG/1.1/DTD/svg11.dtd" >
<svg xmlns="http://www.w3.org/2000/svg" xmlns:xlink="http://www.w3.org/1999/xlink" version="1.1" viewBox="-10 0 1010 1000">
   <path fill="currentColor"
d="M824 308v-152h-309v152h309zM897 90v284h-453v-284h453zM367 677l9 68c-113 38 -234 76 -325 105l-14 -72c37 -10 83 -23 134 -39v-271h-107v-70h107v-217h-121v-70h314v70h-126v217h99v70h-99v250c42 -12 86 -27 129 -41zM956 690h-244c44 102 131 176 252 209
c-17 12 -39 40 -48 59c-115 -38 -199 -111 -250 -213c-40 96 -113 164 -254 208c-8 -17 -29 -44 -44 -57c144 -41 209 -108 241 -206h-220v-67h236c5 -32 9 -68 11 -106h-214v-67h499v67h-212c-2 38 -6 73 -11 106h258v67z" />
</svg>
