<?xml version="1.0" standalone="no"?>
<!DOCTYPE svg PUBLIC "-//W3C//DTD SVG 1.1//EN" "http://www.w3.org/Graphics/SVG/1.1/DTD/svg11.dtd" >
<svg xmlns="http://www.w3.org/2000/svg" xmlns:xlink="http://www.w3.org/1999/xlink" version="1.1" viewBox="-10 0 1010 1000">
   <path fill="currentColor"
d="M365 677l8 68c-109 38 -225 76 -312 105l-13 -72c36 -10 81 -24 131 -40v-270h-106v-70h106v-217h-119v-70h301v70h-121v217h94v70h-94v251c40 -13 82 -28 125 -42zM667 361v89h143v-89h-143zM667 214v86h143v-86h-143zM860 544l54 46c-45 41 -100 87 -148 122
c56 52 124 95 192 118c-15 14 -37 41 -48 60c-93 -39 -180 -116 -243 -204v185c0 40 -9 58 -33 69c-24 12 -60 13 -122 13c-3 -18 -12 -46 -21 -64c41 1 79 0 90 0c12 0 18 -4 18 -18v-139c-86 55 -173 111 -244 153l-38 -58c70 -37 178 -101 282 -162v-154h-190v-61h190
v-89h-231v-61h231v-86h-188v-62h188v-108h68v108h214v148h72v61h-72v150h-214v76c16 30 36 57 59 85c47 -39 101 -90 134 -128zM381 569l49 -34c40 40 90 96 114 132l-51 40c-23 -37 -72 -96 -112 -138z" />
</svg>
