<?xml version="1.0" standalone="no"?>
<!DOCTYPE svg PUBLIC "-//W3C//DTD SVG 1.1//EN" "http://www.w3.org/Graphics/SVG/1.1/DTD/svg11.dtd" >
<svg xmlns="http://www.w3.org/2000/svg" xmlns:xlink="http://www.w3.org/1999/xlink" version="1.1" viewBox="-10 0 1010 1000">
   <path fill="currentColor"
d="M237 467v251c42 -12 86 -27 129 -41l9 68c-113 38 -233 76 -324 105l-14 -72c37 -10 83 -23 133 -39v-272h-106v-69h106v-217h-120v-70h313v70h-126v217h99v69h-99zM510 730h300v-77h-300v77zM810 525h-300v73h300v-73zM880 468v399c0 35 -7 53 -33 63
c-25 10 -66 10 -129 10c-3 -17 -12 -41 -20 -58c45 1 84 1 96 0c13 -1 16 -5 16 -16v-80h-300v170h-68v-488h438zM954 212h-300c-45 50 -93 98 -141 137l291 -16c-24 -28 -50 -55 -73 -79l53 -35c59 56 131 134 166 185l-57 41c-10 -15 -24 -34 -40 -54
c-377 26 -420 30 -446 41c-4 -15 -14 -48 -22 -66c18 -2 37 -15 60 -33c20 -15 74 -64 122 -121h-181v-65h238c-11 -29 -27 -61 -41 -86l65 -24c18 35 40 77 55 110h251v65z" />
</svg>
