<?xml version="1.0" standalone="no"?>
<!DOCTYPE svg PUBLIC "-//W3C//DTD SVG 1.1//EN" "http://www.w3.org/Graphics/SVG/1.1/DTD/svg11.dtd" >
<svg xmlns="http://www.w3.org/2000/svg" xmlns:xlink="http://www.w3.org/1999/xlink" version="1.1" viewBox="-10 0 1010 1000">
   <path fill="currentColor"
d="M642 271v-61h-176v61h176zM642 382v-63h-176v63h176zM642 495v-65h-176v65h176zM402 579v-281c-18 23 -35 43 -54 61c-9 -12 -35 -36 -50 -48c72 -64 130 -162 162 -268l66 15c-11 33 -24 65 -38 96h174c-16 -27 -39 -64 -59 -91l61 -25c24 33 55 76 69 104l-26 12h218
v56h-215v61h184v48h-184v63h184v48h-184v65h221v56h-465v28h-64zM343 686l10 67c-105 34 -217 70 -302 97l-14 -72c37 -9 82 -23 132 -39v-272h-106v-69h106v-217h-120v-70h285v70h-99v217h82v69h-82v253zM752 694h180s-1 20 -2 29c-16 122 -31 177 -57 200
c-19 17 -40 22 -71 24c-28 1 -84 0 -143 -3c-2 -20 -10 -45 -23 -63c60 5 121 6 143 6c19 0 30 -1 40 -8c15 -13 27 -50 39 -128h-162v-1h-28c9 -24 19 -53 29 -82h-142c-24 152 -103 234 -242 286c-7 -16 -29 -44 -42 -57c123 -38 191 -106 210 -229h-133v-61h432
c-9 29 -19 60 -28 87z" />
</svg>
