<?xml version="1.0" standalone="no"?>
<!DOCTYPE svg PUBLIC "-//W3C//DTD SVG 1.1//EN" "http://www.w3.org/Graphics/SVG/1.1/DTD/svg11.dtd" >
<svg xmlns="http://www.w3.org/2000/svg" xmlns:xlink="http://www.w3.org/1999/xlink" version="1.1" viewBox="-10 0 1010 1000">
   <path fill="currentColor"
d="M349 683l9 68c-107 35 -221 71 -307 99l-14 -72c36 -9 81 -23 130 -38v-272h-104v-70h104v-217h-118v-70h296v70h-113v217h91v70h-91v253zM442 708l64 20c-32 61 -80 136 -118 184c-13 -11 -40 -30 -56 -38c39 -46 81 -110 110 -166zM907 658h-225v220c0 37 -6 55 -33 66
c-27 12 -67 12 -126 12c-4 -20 -15 -46 -25 -65c48 1 86 1 98 0c14 0 16 -4 16 -14v-219h-220v-62h515v62zM770 733l57 -29c42 54 97 127 124 170l-59 37c-26 -45 -80 -122 -122 -178zM501 442h290c-64 -79 -110 -183 -139 -303c-30 123 -84 226 -151 303zM869 183h-144
c17 52 38 99 62 142c32 -40 61 -94 82 -142zM911 125l42 25c-30 81 -80 168 -131 225c39 53 87 96 145 123c-15 13 -35 37 -43 55c-43 -24 -82 -54 -115 -91v41h-320v-48c-36 39 -75 72 -116 97c-7 -14 -25 -34 -38 -46c43 -25 84 -59 122 -103c-23 -20 -52 -42 -78 -60
l31 -31c24 15 54 35 76 55c16 -22 30 -43 43 -67c-23 -17 -53 -36 -77 -50l26 -35c24 12 50 26 73 42c13 -27 23 -57 32 -86h-110c-35 68 -78 126 -126 170c-8 -12 -29 -37 -41 -47c69 -60 126 -151 158 -250l58 13c-7 22 -15 42 -24 63h106l11 -2l35 14
c-5 -19 -9 -37 -13 -57l58 -11c4 22 9 44 15 65h188z" />
</svg>
