<?xml version="1.0" standalone="no"?>
<!DOCTYPE svg PUBLIC "-//W3C//DTD SVG 1.1//EN" "http://www.w3.org/Graphics/SVG/1.1/DTD/svg11.dtd" >
<svg xmlns="http://www.w3.org/2000/svg" xmlns:xlink="http://www.w3.org/1999/xlink" version="1.1" viewBox="-10 0 1010 1000">
   <path fill="currentColor"
d="M305 685l12 62c-92 33 -187 68 -263 93l-17 -67c34 -9 74 -22 118 -37v-248h-92v-65h92v-210h-106v-66h269v66h-98v210h83v65h-83v227zM548 350v135h118v63h-118v45c32 31 100 106 117 128l-41 49c-14 -24 -47 -70 -76 -108v294h-63v-306c-39 85 -87 164 -135 214
c-11 -15 -31 -39 -46 -49c64 -56 129 -163 170 -267h-129v-63h140v-122c-37 7 -74 13 -110 17c-2 -15 -11 -37 -20 -52c92 -13 200 -37 257 -63l49 49c-32 14 -71 26 -113 36zM851 878v-612h60v612c0 37 -7 54 -30 65s-60 12 -117 12c-3 -17 -12 -43 -20 -61c42 1 79 1 91 0
c12 0 16 -4 16 -16zM779 317v455h-60v-455h60zM788 113h157v64h-157v73h-65v-73h-149v73h-65v-73h-147v-64h147v-69h65v69h149v-67h65v67z" />
</svg>
