<?xml version="1.0" standalone="no"?>
<!DOCTYPE svg PUBLIC "-//W3C//DTD SVG 1.1//EN" "http://www.w3.org/Graphics/SVG/1.1/DTD/svg11.dtd" >
<svg xmlns="http://www.w3.org/2000/svg" xmlns:xlink="http://www.w3.org/1999/xlink" version="1.1" viewBox="-10 0 1010 1000">
   <path fill="currentColor"
d="M800 183v-63h-296v63h296zM800 291v-63h-296v63h296zM871 73v265h-434v-265h434zM854 522v-87h-105v87h105zM697 522v-87h-102v87h102zM544 522v-87h-99v87h99zM915 384v188h-529v-188h529zM353 686l9 67c-104 34 -215 70 -298 97l-14 -72c35 -10 78 -22 126 -37v-273
h-101v-70h101v-217h-115v-70h280v70h-101v217h92v70h-92v254zM790 682h-273c34 45 79 84 132 117c57 -32 105 -70 141 -117zM848 620l45 25c-40 80 -101 142 -176 189c67 30 142 52 225 65c-16 14 -35 42 -44 60c-93 -17 -178 -47 -250 -87c-86 41 -185 68 -286 85
c-7 -16 -27 -47 -41 -60c93 -14 183 -35 261 -67c-57 -41 -105 -90 -140 -148h-46v-59h423v-1h16z" />
</svg>
