<?xml version="1.0" standalone="no"?>
<!DOCTYPE svg PUBLIC "-//W3C//DTD SVG 1.1//EN" "http://www.w3.org/Graphics/SVG/1.1/DTD/svg11.dtd" >
<svg xmlns="http://www.w3.org/2000/svg" xmlns:xlink="http://www.w3.org/1999/xlink" version="1.1" viewBox="-10 0 1010 1000">
   <path fill="currentColor"
d="M230 728l99 -28l9 65c-100 30 -205 60 -290 82l-16 -68c36 -8 79 -20 126 -32v-280h-103v-66h103v-222h-113v-67h290v67h-105v222h91v66h-91v261zM577 528v-72h-92c-17 25 -34 50 -52 72h144zM734 577h-99v94h99v-94zM481 671h96v-94h-96v94zM454 144v110h100v-110h-100z
M610 144v110h103v-110h-103zM770 144v110h104v-110h-104zM950 392v34c-10 347 -18 463 -43 498c-15 21 -31 28 -55 31c-21 3 -55 3 -89 1c-1 -19 -7 -46 -18 -65c34 4 63 4 76 4s21 -2 28 -14c17 -24 26 -129 34 -425h-248v72h156v192h-156v85l82 -6c-8 -16 -18 -31 -28 -44
l48 -23c30 38 60 92 73 128l-51 25c-3 -9 -7 -19 -12 -30c-133 11 -267 20 -365 28l-10 -62c56 -3 128 -7 205 -12v-89h-151v-184c-10 12 -20 22 -29 32c-11 -13 -37 -37 -52 -48c57 -53 108 -128 142 -208h-96v-227h548v227h-379c-11 27 -24 54 -38 80h428z" />
</svg>
