<?xml version="1.0" standalone="no"?>
<!DOCTYPE svg PUBLIC "-//W3C//DTD SVG 1.1//EN" "http://www.w3.org/Graphics/SVG/1.1/DTD/svg11.dtd" >
<svg xmlns="http://www.w3.org/2000/svg" xmlns:xlink="http://www.w3.org/1999/xlink" version="1.1" viewBox="-10 0 1010 1000">
   <path fill="currentColor"
d="M354 525l-37 -14c15 -36 32 -95 40 -133l48 16c-18 45 -35 96 -51 131zM157 391l39 -11c17 41 31 95 34 130l-42 12c-3 -35 -16 -90 -31 -131zM144 344v210h106v-210h-106zM411 554v-210h-106v210h106zM472 763l-49 55c-20 -32 -73 -97 -113 -145v284h-65v-291
c-45 89 -106 177 -160 229c-12 -17 -34 -41 -51 -53c63 -50 134 -144 179 -234h-126v-318h158v-76h-185v-64h185v-105h65v105h179v64h-179v76h161v318h-150c39 37 128 129 151 155zM882 54l57 54c-22 9 -46 17 -71 24c11 309 34 622 107 767c-16 11 -38 33 -50 51
c-78 -166 -101 -475 -114 -803c-26 7 -54 13 -83 18v662l67 -18c-11 -41 -23 -83 -34 -121l42 -11c27 78 54 180 63 239l-45 16c-3 -19 -8 -44 -14 -70c-115 37 -136 47 -148 57c-3 -17 -13 -46 -21 -61c14 -5 34 -15 34 -50v-632c-26 4 -53 7 -78 11v237
c0 172 -13 383 -111 536c-11 -14 -32 -35 -48 -45c87 -142 97 -336 97 -492v-287h2l-1 -1c124 -16 270 -46 349 -81z" />
</svg>
