<?xml version="1.0" standalone="no"?>
<!DOCTYPE svg PUBLIC "-//W3C//DTD SVG 1.1//EN" "http://www.w3.org/Graphics/SVG/1.1/DTD/svg11.dtd" >
<svg xmlns="http://www.w3.org/2000/svg" xmlns:xlink="http://www.w3.org/1999/xlink" version="1.1" viewBox="-10 0 1010 1000">
   <path fill="currentColor"
d="M954 450h-294c-9 18 -18 34 -28 51h307s-1 18 -2 27c-13 170 -25 234 -46 257c-14 14 -27 20 -47 21c-15 2 -41 2 -68 0c-1 -16 -6 -38 -14 -53c26 3 47 3 58 3s17 -1 24 -8c13 -15 23 -67 34 -194h-54c-28 98 -77 182 -140 238c-8 -8 -30 -24 -43 -32
c59 -50 103 -122 128 -206h-59c-29 63 -72 123 -118 164c-9 -9 -28 -24 -41 -31c43 -35 79 -82 105 -133h-60c-22 27 -45 51 -69 71c-5 -11 -23 -35 -34 -45c43 -33 81 -79 108 -130h-106v-56h459v56zM842 190v-59h-240v59h240zM842 298v-62h-240v62h240zM901 83v263h-356
v-263h356zM444 61l55 52c-21 6 -44 12 -68 17c-2 500 48 713 538 751c-13 16 -29 46 -35 65c-501 -52 -561 -274 -561 -804c-26 4 -51 8 -78 12v251c0 123 -2 282 -56 417l124 -27c-14 -37 -29 -75 -44 -108l51 -14c33 72 73 166 89 228l-54 18c-5 -22 -14 -48 -24 -77
c-145 37 -168 44 -183 54c-7 -13 -28 -34 -40 -43c83 -131 83 -308 83 -450v-241c-27 3 -55 6 -82 9v281c0 141 -11 348 -74 486c-10 -13 -35 -39 -48 -47c55 -127 60 -307 60 -438v-333c123 -12 266 -34 347 -59z" />
</svg>
