<?xml version="1.0" standalone="no"?>
<!DOCTYPE svg PUBLIC "-//W3C//DTD SVG 1.1//EN" "http://www.w3.org/Graphics/SVG/1.1/DTD/svg11.dtd" >
<svg xmlns="http://www.w3.org/2000/svg" xmlns:xlink="http://www.w3.org/1999/xlink" version="1.1" viewBox="-10 0 1010 1000">
   <path fill="currentColor"
d="M121 249v108h-59v-169h82c-10 -31 -32 -74 -53 -106l51 -22c24 33 49 80 58 110l-34 18h94v-140h62v140h102l-38 -17c19 -31 45 -81 57 -113l59 23c-21 38 -44 78 -64 107h84v169h-61v-108h-340zM192 376v95h199v-95h-199zM450 527h-314v-207h314v207zM318 862h110v-85
h-110v85zM146 777v85h113v-85h-113zM259 641h-113v83h113v-83zM428 724v-83h-110v83h110zM87 582h403v374h-62v-34h-282v34h-59v-374zM862 59l48 54c-17 9 -36 18 -57 26c12 305 34 607 109 751c-15 13 -35 38 -45 58c-82 -165 -106 -463 -118 -790c-19 5 -38 10 -58 15v208
c0 131 -2 312 -55 462l96 -29c-11 -43 -23 -89 -36 -127l41 -15c28 79 53 180 63 246l-44 17c-3 -21 -7 -45 -13 -70c-111 39 -130 49 -142 59c-8 -15 -31 -44 -43 -55c76 -139 77 -339 77 -489v-195c-23 5 -48 9 -71 12v170c0 164 -10 414 -72 588c-11 -13 -37 -32 -52 -39
c60 -166 64 -394 64 -549v-224c113 -16 240 -44 308 -84z" />
</svg>
