<?xml version="1.0" standalone="no"?>
<!DOCTYPE svg PUBLIC "-//W3C//DTD SVG 1.1//EN" "http://www.w3.org/Graphics/SVG/1.1/DTD/svg11.dtd" >
<svg xmlns="http://www.w3.org/2000/svg" xmlns:xlink="http://www.w3.org/1999/xlink" version="1.1" viewBox="-10 0 1010 1000">
   <path fill="currentColor"
d="M346 735v-524h58v635h-58v-45l-269 26v-616h59v544l72 -7v-693h60v688zM857 884h20c7 0 14 -1 17 -5c4 -4 6 -12 8 -27c2 -19 4 -57 4 -108c13 11 31 21 48 25c-1 46 -4 101 -8 120c-4 22 -12 33 -22 42s-27 12 -43 12h-41c-18 0 -36 -5 -49 -17c-14 -12 -18 -29 -18 -99
v-447h-177c-11 162 -24 354 -36 463l192 -38c-2 18 -1 47 0 61c-234 52 -265 62 -284 74c-6 -19 -21 -53 -31 -70c26 -6 49 -14 55 -52c10 -52 39 -492 48 -649h-103v-68h503v68h-329l-10 144h238v522c0 26 0 41 4 45c3 3 8 4 14 4zM744 701l-58 21
c-9 -62 -41 -160 -76 -233l53 -20c37 73 70 168 81 232z" />
</svg>
