<?xml version="1.0" standalone="no"?>
<!DOCTYPE svg PUBLIC "-//W3C//DTD SVG 1.1//EN" "http://www.w3.org/Graphics/SVG/1.1/DTD/svg11.dtd" >
<svg xmlns="http://www.w3.org/2000/svg" xmlns:xlink="http://www.w3.org/1999/xlink" version="1.1" viewBox="-10 0 1010 1000">
   <path fill="currentColor"
d="M401 232v438c0 28 -4 47 -21 59s-40 13 -74 13c-2 -17 -11 -45 -20 -63c24 1 42 1 50 1c7 -1 9 -3 9 -12v-369h-76v658h-64v-658h-77v453h-58v-520h135v-187h64v187h132zM857 873h22c7 0 15 -2 18 -5c4 -4 7 -13 9 -28c2 -18 3 -57 3 -107c14 11 33 22 51 27
c-2 45 -4 100 -9 120c-4 21 -12 34 -23 43c-11 8 -28 12 -46 12h-42c-19 0 -38 -6 -51 -18c-14 -13 -19 -30 -19 -99v-443h-189c-12 170 -26 370 -38 481l167 -35c0 19 2 47 5 62c-215 51 -246 61 -264 74c-6 -20 -24 -56 -34 -75c27 -7 47 -18 54 -59
c9 -53 39 -483 51 -661h-101v-68h519v68h-343l-11 147h253v515c0 26 0 40 4 44c3 4 9 5 14 5zM736 698l-60 22c-13 -64 -46 -163 -77 -236l57 -20c32 75 66 172 80 234z" />
</svg>
