<?xml version="1.0" standalone="no"?>
<!DOCTYPE svg PUBLIC "-//W3C//DTD SVG 1.1//EN" "http://www.w3.org/Graphics/SVG/1.1/DTD/svg11.dtd" >
<svg xmlns="http://www.w3.org/2000/svg" xmlns:xlink="http://www.w3.org/1999/xlink" version="1.1" viewBox="-10 0 1010 1000">
   <path fill="currentColor"
d="M299 162l-73 20c-7 -36 -25 -91 -41 -132l69 -17c17 41 36 95 45 129zM442 188v69h-396v-69h396zM361 782l98 -61c1 19 6 47 11 61c-138 92 -160 110 -171 125c-7 -15 -26 -44 -36 -55c13 -11 32 -35 32 -78v-332h-104v122c0 115 -17 277 -104 386
c-11 -13 -38 -37 -53 -44c79 -101 90 -239 90 -343v-187h237v406zM853 877h26c9 0 17 -1 21 -5c5 -4 8 -12 10 -28c2 -18 4 -57 4 -107c13 11 32 22 49 27c-1 45 -4 100 -9 119c-4 22 -12 34 -23 43c-12 8 -30 11 -48 11h-47c-18 0 -38 -4 -51 -16c-15 -14 -20 -30 -20 -100
v-442h-156c-11 161 -24 350 -35 463l132 -34c-1 21 2 52 4 70c-176 51 -207 64 -225 77v1v-1l-1 1l-1 -6c-5 -20 -17 -51 -25 -67c22 -5 40 -15 46 -55c9 -51 38 -491 48 -663h-85v-69h463v69h-307l-10 148h219v515c0 25 2 40 6 44s10 5 15 5zM738 685l-52 15
c-10 -60 -36 -152 -59 -221l48 -13c26 70 52 161 63 219z" />
</svg>
