<?xml version="1.0" standalone="no"?>
<!DOCTYPE svg PUBLIC "-//W3C//DTD SVG 1.1//EN" "http://www.w3.org/Graphics/SVG/1.1/DTD/svg11.dtd" >
<svg xmlns="http://www.w3.org/2000/svg" xmlns:xlink="http://www.w3.org/1999/xlink" version="1.1" viewBox="-10 0 1010 1000">
   <path fill="currentColor"
d="M230 436h79v-268h-79v268zM376 168v268h95v70h-95v439h-67v-439h-79c-3 168 -28 324 -138 453c-11 -16 -34 -38 -52 -51c98 -117 119 -259 122 -402h-110v-70h110v-268h-88v-69h372v69h-70zM868 871h19c7 0 13 -2 17 -6c3 -4 6 -13 8 -28c1 -18 3 -57 3 -107
c13 12 30 21 47 26c-1 45 -4 100 -8 119c-5 22 -11 34 -21 42c-10 9 -27 13 -42 13h-39c-18 0 -36 -6 -48 -18c-13 -12 -16 -29 -16 -98l-1 -434h-157c-11 166 -24 360 -35 468l130 -27c0 20 2 47 4 63c-175 42 -203 51 -219 62c-4 -19 -17 -55 -26 -73c22 -5 39 -15 45 -54
c9 -49 36 -479 47 -650h-83v-68h437v68h-285l-10 144h216v508c0 27 0 41 4 45c3 3 7 5 13 5zM760 705l-57 17c-13 -62 -45 -160 -73 -234l53 -15c30 74 62 169 77 232z" />
</svg>
