<?xml version="1.0" standalone="no"?>
<!DOCTYPE svg PUBLIC "-//W3C//DTD SVG 1.1//EN" "http://www.w3.org/Graphics/SVG/1.1/DTD/svg11.dtd" >
<svg xmlns="http://www.w3.org/2000/svg" xmlns:xlink="http://www.w3.org/1999/xlink" version="1.1" viewBox="-10 0 1010 1000">
   <path fill="currentColor"
d="M552 336h-90c-46 49 -123 97 -251 139h583c-98 -30 -184 -77 -242 -139zM239 184v91h192c21 -31 29 -62 32 -91h-224zM749 275v-91h-219c-2 29 -9 60 -25 91h244zM835 536h-464c-8 24 -18 51 -28 82h389v230c0 24 4 28 30 28h85c25 0 30 -16 33 -121c15 12 44 23 65 28
c-8 125 -27 157 -90 157h-104c-73 0 -93 -20 -93 -91v-175h-334c-23 69 -49 142 -68 191l280 -20c-4 18 -7 45 -8 59c-310 27 -348 31 -372 42c-5 -18 -22 -50 -32 -65c22 -6 45 -14 57 -36c20 -30 82 -216 113 -309h-128v-47c-26 8 -54 16 -84 22c-7 -13 -27 -39 -41 -53
c165 -35 266 -78 328 -122h-321v-61h121v-150h295v-80h67v80h291v150h130v61h-319c79 61 201 99 332 115c-15 13 -32 38 -40 55c-31 -5 -61 -12 -90 -19v49zM574 796l-41 45c-35 -31 -106 -77 -164 -107l40 -40c57 27 129 70 165 102z" />
</svg>
