<?xml version="1.0" standalone="no"?>
<!DOCTYPE svg PUBLIC "-//W3C//DTD SVG 1.1//EN" "http://www.w3.org/Graphics/SVG/1.1/DTD/svg11.dtd" >
<svg xmlns="http://www.w3.org/2000/svg" xmlns:xlink="http://www.w3.org/1999/xlink" version="1.1" viewBox="-10 0 1010 1000">
   <path fill="currentColor"
d="M319 464v-195h-163v195h163zM156 733h163v-200h-163v200zM197 43l80 14c-16 47 -31 101 -47 143h158v603h-232v89h-70v-692h77c13 -48 27 -111 34 -157zM846 881h22c7 0 14 -1 18 -5s7 -12 9 -28c2 -18 3 -57 3 -107c14 12 32 22 50 27c-2 46 -4 100 -9 120
c-4 22 -12 34 -23 43c-11 8 -27 12 -45 12h-42c-18 0 -37 -5 -50 -18c-15 -13 -19 -29 -19 -100v-449h-180c-10 159 -23 342 -33 458l154 -52c-1 23 1 55 4 73c-200 72 -230 85 -248 100c-5 -19 -22 -55 -33 -73c26 -8 45 -17 51 -61c10 -61 36 -485 46 -659h-89v-70h503v70
h-340c-3 40 -6 90 -10 146h243v524c0 26 1 41 5 45c3 3 8 4 13 4zM721 685l-55 25c-17 -62 -57 -160 -91 -233l52 -21c36 73 76 168 94 229z" />
</svg>
