<?xml version="1.0" standalone="no"?>
<!DOCTYPE svg PUBLIC "-//W3C//DTD SVG 1.1//EN" "http://www.w3.org/Graphics/SVG/1.1/DTD/svg11.dtd" >
<svg xmlns="http://www.w3.org/2000/svg" xmlns:xlink="http://www.w3.org/1999/xlink" version="1.1" viewBox="-10 0 1010 1000">
   <path fill="currentColor"
d="M443 487v-105h-113v105h113zM330 657h113v-108h-113v108zM150 657h117v-108h-117v108zM267 382h-117v105h117v-105zM471 85l45 39c-54 55 -128 118 -185 166c10 9 19 18 27 27h150v533c0 34 -7 52 -30 64c-21 11 -54 12 -106 12c-3 -18 -14 -45 -23 -62c38 1 70 1 80 0
c10 0 14 -3 14 -15v-129h-113v189h-63v-189h-117v221h-65v-624h186c-36 -32 -83 -68 -124 -94l47 -34c30 18 62 41 92 63c34 -29 75 -68 109 -102h-308v-61h368zM880 884h16c6 0 11 -1 13 -5c4 -4 6 -12 7 -28c2 -18 3 -56 4 -107c12 11 30 21 46 25c-1 46 -4 101 -8 120
c-3 22 -10 34 -20 42c-10 9 -24 13 -38 13h-37c-16 0 -33 -5 -44 -17c-13 -13 -17 -29 -17 -100v-447h-149c-12 165 -24 359 -36 470l162 -35c-1 19 1 47 3 62c-198 48 -227 58 -244 69c-4 -18 -15 -54 -24 -71c20 -6 34 -14 40 -55c9 -54 36 -481 46 -651h-83v-68h429v68
h-279l-10 144h209v522c0 26 0 41 3 45c2 3 6 4 11 4zM782 704l-49 16c-12 -63 -45 -161 -73 -234l46 -13c29 73 62 169 76 231z" />
</svg>
