<?xml version="1.0" standalone="no"?>
<!DOCTYPE svg PUBLIC "-//W3C//DTD SVG 1.1//EN" "http://www.w3.org/Graphics/SVG/1.1/DTD/svg11.dtd" >
<svg xmlns="http://www.w3.org/2000/svg" xmlns:xlink="http://www.w3.org/1999/xlink" version="1.1" viewBox="-10 0 1010 1000">
   <path fill="currentColor"
d="M522 150l-39 35c-13 -28 -45 -69 -75 -97l37 -28c31 26 63 65 77 90zM322 44h55c1 50 2 101 3 152h150v60h-148c5 127 13 248 22 349c30 -71 54 -150 70 -239l50 14c-25 126 -62 233 -109 323c12 88 26 144 42 144c12 0 22 -50 28 -138c10 13 30 26 42 31
c-17 143 -45 178 -70 178c-37 0 -62 -56 -82 -147c-39 58 -83 108 -132 148c-9 -13 -30 -36 -43 -48c64 -46 117 -106 160 -181c-16 -117 -27 -271 -33 -434h-170v138h137s0 18 -1 28c-5 215 -10 293 -26 314c-10 16 -22 22 -40 24c-12 2 -31 2 -50 1c0 -16 -5 -40 -12 -55
c17 2 30 2 39 2c8 1 13 0 17 -10c8 -15 13 -74 17 -244h-81v8c0 133 -11 328 -78 459c-8 -12 -31 -32 -43 -39c60 -124 66 -296 66 -420v-266h224c-2 -50 -3 -101 -4 -152zM885 872h14c5 0 10 -2 13 -5c3 -4 5 -13 6 -28c2 -18 3 -57 3 -106c11 10 27 21 42 27
c-1 45 -3 100 -7 120c-4 21 -10 34 -18 43c-9 8 -22 12 -36 12h-32c-16 0 -30 -5 -41 -18s-15 -29 -15 -100v-437h-143c-9 166 -20 359 -30 468l117 -29c0 20 2 47 3 62c-157 45 -181 54 -195 65c-4 -19 -14 -56 -22 -74c18 -7 34 -16 39 -55c8 -50 31 -476 40 -648h-74v-68
h394v68h-259l-9 144h197v511c0 25 0 39 3 44c2 3 6 4 10 4zM792 704l-49 19c-12 -63 -40 -161 -63 -234l47 -17c24 74 53 169 65 232z" />
</svg>
