<?xml version="1.0" standalone="no"?>
<!DOCTYPE svg PUBLIC "-//W3C//DTD SVG 1.1//EN" "http://www.w3.org/Graphics/SVG/1.1/DTD/svg11.dtd" >
<svg xmlns="http://www.w3.org/2000/svg" xmlns:xlink="http://www.w3.org/1999/xlink" version="1.1" viewBox="-10 0 1010 1000">
   <path fill="currentColor"
d="M149 400h104v-104h-104v104zM149 141v102h104v-102h-104zM414 243v-102h-103v102h103zM414 400v-104h-103v104h103zM311 604v22c40 27 150 113 178 136l-40 54c-26 -28 -90 -85 -138 -125v266h-58v-285c-51 76 -117 144 -178 191c-8 -14 -26 -46 -37 -60
c71 -46 144 -119 191 -199h-172v-61h196v-87h-161v-371h381v371h-162v87h193v61h-193zM875 874h17c6 0 12 -1 15 -5s5 -13 7 -29c2 -18 3 -57 3 -107c13 12 31 21 46 27c0 45 -3 101 -7 120c-4 21 -12 34 -21 42s-24 12 -40 12h-35c-17 0 -33 -6 -45 -18
c-13 -13 -16 -29 -16 -101v-438h-164c-11 165 -23 357 -34 468l139 -37c0 20 2 48 5 63c-182 52 -209 63 -226 75c-4 -19 -15 -55 -24 -73c20 -6 37 -16 43 -55c9 -50 36 -484 46 -655h-78v-66h432v66h-289l-10 146h220v513c0 27 1 43 4 47c3 3 7 5 12 5zM773 703l-54 18
c-13 -62 -46 -161 -74 -234l51 -16c29 73 62 170 77 232z" />
</svg>
