<?xml version="1.0" standalone="no"?>
<!DOCTYPE svg PUBLIC "-//W3C//DTD SVG 1.1//EN" "http://www.w3.org/Graphics/SVG/1.1/DTD/svg11.dtd" >
<svg xmlns="http://www.w3.org/2000/svg" xmlns:xlink="http://www.w3.org/1999/xlink" version="1.1" viewBox="-10 0 1010 1000">
   <path fill="currentColor"
d="M832 312h-166c-93 0 -116 -18 -116 -88v-181h70v78c89 -15 185 -36 240 -58l52 53c-78 28 -192 49 -292 63v45c0 24 8 28 52 28h152c33 0 39 -9 43 -75c16 11 43 20 63 24c-8 89 -29 111 -98 111zM332 318v-43c-93 13 -185 27 -258 37l-11 -64c70 -7 168 -18 269 -31v-50
h-252v-62h252v-62h73v275h-73zM148 511v4h-68v-167h846v167h-71v-106h-707v101c89 -19 186 -48 239 -85l65 24c-61 46 -165 86 -250 109c-12 -14 -37 -36 -54 -47zM377 782l34 -41c59 22 134 60 173 88l-36 45c-37 -28 -111 -67 -171 -92zM761 887h83c24 0 28 -15 31 -112
c15 11 42 21 61 26c-6 115 -25 144 -85 144h-100c-70 0 -91 -17 -91 -83v-125h-368c-18 49 -37 98 -52 134l244 -21c-3 16 -5 41 -5 54c-280 28 -314 33 -336 43c-4 -18 -19 -51 -27 -67c21 -4 47 -11 59 -31c16 -24 63 -154 88 -228h-165v-56h698
c-60 -33 -165 -74 -249 -98l34 -44c87 23 202 64 262 98l-30 44h85v56h-564l-22 60h420v180c0 22 4 26 29 26z" />
</svg>
