<?xml version="1.0" standalone="no"?>
<!DOCTYPE svg PUBLIC "-//W3C//DTD SVG 1.1//EN" "http://www.w3.org/Graphics/SVG/1.1/DTD/svg11.dtd" >
<svg xmlns="http://www.w3.org/2000/svg" xmlns:xlink="http://www.w3.org/1999/xlink" version="1.1" viewBox="-10 0 1010 1000">
   <path fill="currentColor"
d="M132 700h105v-89h-105v89zM237 475h-105v83h105v-83zM294 417v469c0 29 -5 45 -24 56c-17 11 -44 11 -82 11c-3 -16 -10 -40 -19 -57c27 1 50 1 57 1c8 -1 11 -3 11 -12v-129h-105v201h-57v-540h219zM459 882v-471h56v471c0 33 -7 49 -27 60c-21 9 -55 10 -108 10
c-3 -17 -10 -40 -17 -57c37 1 72 1 82 1c11 0 14 -3 14 -14zM399 450v349h-49v-349h49zM292 42l56 22c-6 12 -13 24 -20 36c81 59 180 134 230 180l-42 51c-48 -46 -142 -120 -219 -180c-35 51 -78 99 -123 139h268v60h-269v-59c-29 26 -61 48 -93 68
c-11 -18 -30 -39 -46 -53c106 -56 205 -156 258 -264zM881 884h16c6 0 11 -1 13 -5c3 -4 5 -12 7 -28c2 -18 3 -56 4 -107c11 11 28 21 43 25c-1 46 -4 101 -8 120c-3 22 -10 34 -18 42c-10 9 -24 13 -37 13h-35c-15 0 -31 -5 -42 -17c-12 -13 -15 -29 -15 -100v-447h-141
c-11 166 -23 360 -33 469l139 -31c-1 20 1 48 3 63c-179 44 -207 54 -222 65c-4 -19 -16 -55 -23 -73c19 -5 35 -14 41 -54c9 -49 36 -479 46 -650h-73v-68h401v68h-265l-9 144h195v522c0 26 0 41 3 45c2 3 6 4 10 4zM791 697l-53 18c-13 -63 -44 -161 -72 -234l50 -15
c29 74 61 168 75 231z" />
</svg>
