<?xml version="1.0" standalone="no"?>
<!DOCTYPE svg PUBLIC "-//W3C//DTD SVG 1.1//EN" "http://www.w3.org/Graphics/SVG/1.1/DTD/svg11.dtd" >
<svg xmlns="http://www.w3.org/2000/svg" xmlns:xlink="http://www.w3.org/1999/xlink" version="1.1" viewBox="-10 0 1010 1000">
   <path fill="currentColor"
d="M135 193v102h-61v-161h181c-11 -25 -24 -53 -37 -76l56 -21c17 29 38 68 50 97h178v159h-63v-100h-304zM318 277l43 -34c46 46 102 110 129 150l-45 40c-27 -41 -82 -108 -127 -156zM207 246l56 21c-39 69 -98 142 -150 188c-9 -11 -32 -34 -46 -46
c54 -41 107 -102 140 -163zM162 602h273c-43 -47 -98 -104 -146 -151c-35 56 -78 107 -127 151zM194 832h198v-167h-198v167zM516 600l-38 51c-7 -8 -14 -17 -23 -26v313h-63v-43h-198v48h-60v-317c-19 15 -38 29 -59 43c-9 -14 -29 -36 -42 -48c105 -65 196 -168 242 -268
l57 21c-4 9 -9 18 -14 27c66 63 155 148 198 199zM872 882h19c6 0 13 0 17 -4c3 -4 6 -12 7 -28c2 -17 3 -54 3 -103c13 11 29 20 45 26c-1 43 -4 98 -8 117c-4 21 -11 33 -20 41c-10 9 -25 13 -40 13h-38c-16 0 -33 -6 -44 -18c-13 -13 -16 -29 -16 -99v-454h-146
c-12 165 -26 359 -37 470l115 -31c0 18 3 47 6 61c-161 51 -188 61 -203 73c-3 -19 -15 -56 -23 -74c21 -6 37 -15 43 -54c10 -51 39 -490 51 -656h-72v-68h409v68h-274l-10 144h200v528c0 25 0 40 4 44c2 3 6 4 12 4zM783 705l-51 17c-12 -62 -44 -160 -71 -233l49 -15
c28 73 61 168 73 231z" />
</svg>
