<?xml version="1.0" standalone="no"?>
<!DOCTYPE svg PUBLIC "-//W3C//DTD SVG 1.1//EN" "http://www.w3.org/Graphics/SVG/1.1/DTD/svg11.dtd" >
<svg xmlns="http://www.w3.org/2000/svg" xmlns:xlink="http://www.w3.org/1999/xlink" version="1.1" viewBox="-10 0 1010 1000">
   <path fill="currentColor"
d="M611 438v-187h70v59h196v50h-196v85c21 2 42 2 65 2h204c-8 14 -16 38 -19 54h-189c-140 0 -231 -18 -291 -93c-24 43 -58 78 -99 107c-11 -12 -37 -33 -52 -41c74 -44 117 -109 131 -200l62 6c-4 27 -9 52 -18 75c30 48 75 71 136 83zM928 216l-45 45
c-30 -25 -82 -60 -131 -88c-24 31 -52 58 -86 78c-10 -12 -35 -33 -51 -43c66 -35 109 -89 126 -161l63 8c-5 25 -13 48 -23 69c53 27 114 64 147 92zM617 198l-45 40c-19 -19 -51 -48 -83 -70c-26 35 -58 65 -95 87c-11 -11 -35 -32 -51 -42c67 -36 116 -92 135 -166l63 10
c-6 23 -13 44 -23 64c35 23 77 55 99 77zM251 44l63 27c-54 56 -139 115 -209 151c-9 -14 -29 -37 -41 -49c66 -32 146 -83 187 -129zM185 505v-174c-30 20 -62 39 -92 53c-10 -13 -30 -39 -42 -50c80 -37 170 -99 214 -157l66 23c-21 27 -48 52 -76 77v228h-70zM381 775
l37 -42c59 19 132 51 171 77l-39 47c-37 -26 -111 -60 -169 -82zM766 887h90c23 0 28 -14 30 -104c16 12 45 22 66 27c-7 109 -27 138 -89 138h-107c-73 0 -94 -19 -94 -87v-142h-342c-20 56 -40 114 -57 155l277 -17c-5 16 -9 42 -10 56c-303 21 -341 25 -365 34
c-4 -18 -19 -51 -28 -68c20 -4 43 -11 56 -31c16 -25 64 -173 87 -242h-201v-59h849v59h-570l-19 58h397v197c0 22 4 26 30 26z" />
</svg>
