<?xml version="1.0" standalone="no"?>
<!DOCTYPE svg PUBLIC "-//W3C//DTD SVG 1.1//EN" "http://www.w3.org/Graphics/SVG/1.1/DTD/svg11.dtd" >
<svg xmlns="http://www.w3.org/2000/svg" xmlns:xlink="http://www.w3.org/1999/xlink" version="1.1" viewBox="-10 0 1010 1000">
   <path fill="currentColor"
d="M277 613h-112v82h112v-82zM429 695v-82h-98v82h98zM331 839h98v-86h-98v86zM165 839h112v-86h-112v86zM110 955v-401h374v389h-55v-46h-264v58h-55zM439 165l56 21c-20 36 -40 74 -60 106h93v60h-192v3c68 37 150 91 192 127l-27 53c-37 -33 -103 -80 -165 -117v107h-58
v-150c-55 71 -134 148 -202 187c-5 -18 -18 -45 -27 -61c60 -31 134 -90 183 -149h-156v-60h90c-9 -28 -23 -62 -38 -89l49 -16c19 32 37 74 45 105h56v-140c-63 7 -127 13 -186 16c-2 -15 -10 -38 -17 -53c137 -10 305 -29 399 -55l36 53c-49 13 -109 23 -174 32v147h40
c23 -37 48 -90 63 -127zM886 867h14c5 0 9 -2 12 -5c2 -4 4 -13 6 -28c1 -19 3 -58 3 -108c13 12 29 24 45 29c0 45 -3 101 -7 121c-4 21 -10 34 -19 43s-23 13 -36 13h-34c-16 0 -32 -6 -43 -19s-15 -30 -15 -101v-438h-143c-10 166 -22 360 -31 469l117 -30
c0 20 1 47 4 63c-159 44 -183 53 -198 65c-4 -20 -16 -58 -23 -77c19 -5 34 -15 40 -55c8 -51 30 -475 39 -647h-75v-67h402v67h-263l-8 145h200v511c0 26 1 40 3 44c3 4 6 5 10 5zM790 698l-51 18c-11 -62 -38 -160 -63 -233l49 -16c26 73 53 168 65 231z" />
</svg>
