<?xml version="1.0" standalone="no"?>
<!DOCTYPE svg PUBLIC "-//W3C//DTD SVG 1.1//EN" "http://www.w3.org/Graphics/SVG/1.1/DTD/svg11.dtd" >
<svg xmlns="http://www.w3.org/2000/svg" xmlns:xlink="http://www.w3.org/1999/xlink" version="1.1" viewBox="-10 0 1010 1000">
   <path fill="currentColor"
d="M669 474v-177h-191v-46h236c-41 -24 -101 -54 -152 -74l40 -30c25 10 53 22 81 35c38 -16 77 -39 108 -60h-297v-45h356l14 -2l44 25c-44 41 -108 80 -171 108c17 9 32 17 44 24l-24 19h118l11 -1l44 10c-16 34 -40 72 -61 95l-54 -12c11 -12 21 -28 31 -46h-113v82h165
v47h-165v70c34 8 72 10 109 10h108c-10 12 -19 36 -21 50h-93c-108 0 -199 -18 -262 -95c-17 43 -43 81 -80 108c-10 -9 -33 -25 -46 -32c68 -47 89 -137 93 -208l65 3c-2 21 -6 45 -12 69c20 34 45 57 75 73zM392 233h-162c-86 0 -108 -12 -108 -63v-107h65v50
c80 -10 167 -25 217 -40l48 35c-71 21 -175 35 -265 43v19c0 18 8 21 49 21h147c29 0 35 -6 38 -48c14 8 39 15 56 17c-7 58 -27 73 -85 73zM447 504l-41 45c-23 -18 -76 -55 -115 -78c-30 41 -88 79 -196 107c-5 -12 -24 -35 -35 -44c123 -30 172 -70 188 -112h-182v-45
h190v-57h-81c-18 19 -36 35 -56 49c-12 -8 -38 -21 -55 -28c44 -27 81 -64 100 -105l64 11c-5 9 -11 19 -17 28h244v45h-134v57h159v45h-164l-3 7c35 19 112 62 134 75zM765 895h85c26 0 31 -13 34 -113c16 10 44 20 64 24c-7 116 -25 144 -90 144h-103
c-74 0 -95 -16 -95 -79v-123h-357c-17 48 -35 96 -50 131l268 -18c-41 -25 -100 -51 -149 -70l39 -36c62 20 140 56 180 83l-40 41l-8 -6c-3 14 -5 28 -5 37c-317 25 -355 29 -380 38c-4 -15 -22 -42 -32 -56c22 -5 43 -11 54 -29c15 -23 59 -148 83 -221h-193v-53h857v53
h-586l-21 57h414v172c0 21 5 24 31 24z" />
</svg>
