<?xml version="1.0" standalone="no"?>
<!DOCTYPE svg PUBLIC "-//W3C//DTD SVG 1.1//EN" "http://www.w3.org/Graphics/SVG/1.1/DTD/svg11.dtd" >
<svg xmlns="http://www.w3.org/2000/svg" xmlns:xlink="http://www.w3.org/1999/xlink" version="1.1" viewBox="-10 0 1010 1000">
   <path fill="currentColor"
d="M763 883h86c26 0 31 -15 34 -115c15 10 44 19 65 24c-7 119 -27 148 -91 148h-105c-74 0 -95 -18 -95 -82v-142h-357c-19 55 -39 111 -56 151l289 -20c-42 -27 -111 -62 -169 -84l39 -38c62 21 139 58 180 86l-41 43l-6 -4c-2 16 -5 38 -6 50c-317 26 -356 30 -380 40
c-6 -16 -23 -44 -32 -57c22 -5 43 -12 54 -32c16 -24 63 -160 88 -239h-183v-55h848v55h-588l-19 53h413v192c0 22 5 26 32 26zM809 325v137h64v-137h-64zM763 462v-137h-64v137h64zM654 462v-137h-61v137h61zM407 333v-70h-251v70h251zM281 462v-77h-125v77h125zM281 142
h-125v68h125v-68zM632 118h316v57h-210c35 24 69 52 89 73l-41 27h145v237h-394v-237h225c-25 -25 -66 -60 -103 -83l26 -17h-82c-25 43 -53 81 -83 111c-9 -10 -34 -29 -49 -39v138h-126v77h135v55h-390v-430h390v55h-136v68h127v34c54 -51 98 -124 123 -201l62 14
c-7 21 -15 41 -24 61z" />
</svg>
