<?xml version="1.0" standalone="no"?>
<!DOCTYPE svg PUBLIC "-//W3C//DTD SVG 1.1//EN" "http://www.w3.org/Graphics/SVG/1.1/DTD/svg11.dtd" >
<svg xmlns="http://www.w3.org/2000/svg" xmlns:xlink="http://www.w3.org/1999/xlink" version="1.1" viewBox="-10 0 1010 1000">
   <path fill="currentColor"
d="M942 371l-44 16c-3 -12 -7 -25 -12 -40c-177 18 -203 23 -218 30c-3 -13 -12 -42 -19 -57c18 -3 38 -16 61 -37c12 -10 37 -32 65 -61c-78 9 -96 12 -106 16c-3 -12 -13 -39 -19 -54c13 -3 25 -11 39 -25c14 -13 63 -68 91 -123l58 19c-31 46 -68 91 -103 124l85 -6
c20 -22 39 -47 56 -71l56 27c-58 70 -123 135 -187 185l125 -10c-7 -21 -14 -42 -22 -59l42 -13c20 45 42 104 52 139zM858 403l45 -10c17 35 34 81 42 108l-48 14c-8 -29 -24 -77 -39 -112zM834 517l-49 7c-2 -33 -9 -86 -17 -125l45 -3c10 40 18 92 21 121zM679 396l51 12
c-8 45 -23 96 -37 131c-12 -6 -35 -15 -49 -20c18 -35 28 -81 35 -123zM657 100v50h-312v-50h126c-4 -17 -10 -34 -15 -49l59 -11c7 18 16 41 22 60h120zM633 284v43h-266v-43h266zM431 416v51h136v-51h-136zM627 510h-253v-137h253v137zM632 198v43h-266v-43h266zM256 401
l40 -9c-3 -13 -8 -30 -14 -48c-163 22 -189 27 -203 34c-3 -12 -11 -41 -19 -57c17 -2 35 -15 58 -34c10 -10 34 -32 60 -60c-78 9 -95 13 -106 18c-3 -13 -12 -41 -19 -55c13 -3 26 -11 38 -26c15 -13 63 -68 91 -123l59 19c-31 46 -69 90 -104 125l84 -7
c19 -22 37 -46 52 -69l56 27c-53 66 -113 127 -172 176l112 -11c-6 -18 -12 -35 -17 -50l44 -11c17 45 39 106 47 142l-43 13c15 36 31 81 39 107l-43 13c-8 -29 -25 -77 -40 -114zM233 525l-48 7c-3 -33 -10 -87 -18 -127l46 -3c9 41 17 94 20 123zM86 401l50 12
c-9 46 -23 99 -37 135c-12 -6 -34 -15 -48 -20c17 -37 28 -83 35 -127zM351 782l18 -36c84 12 197 37 258 56l-18 42c-60 -19 -172 -45 -258 -62zM762 880h86c25 0 30 -15 33 -121c15 11 42 22 61 27c-7 124 -24 154 -86 154h-103c-72 0 -92 -18 -92 -85v-121h-369
c-14 53 -28 107 -39 144l344 -25c-4 15 -6 39 -7 52c-359 30 -397 35 -422 45c-5 -18 -21 -51 -30 -66c20 -5 41 -12 50 -31c11 -21 43 -152 61 -225h-174v-53h848v53h-605l-13 57h426v170c0 22 5 25 31 25z" />
</svg>
