<?xml version="1.0" standalone="no"?>
<!DOCTYPE svg PUBLIC "-//W3C//DTD SVG 1.1//EN" "http://www.w3.org/Graphics/SVG/1.1/DTD/svg11.dtd" >
<svg xmlns="http://www.w3.org/2000/svg" xmlns:xlink="http://www.w3.org/1999/xlink" version="1.1" viewBox="-10 0 1010 1000">
   <path fill="currentColor"
d="M288 632l-44 17c-2 -8 -6 -18 -9 -27c-118 34 -140 43 -153 52c-4 -13 -16 -37 -25 -49c12 -5 28 -17 28 -51v-105c57 -11 126 -29 165 -46l30 41c-40 16 -92 28 -140 37v99l77 -20c-7 -16 -16 -32 -24 -47l42 -12c21 34 44 82 53 111zM112 408v-39h120v39h-120zM130 283
h99v42h-99v-42zM274 729h-112v51h112v-51zM440 780v-51h-108v51h108zM332 878h108v-55h-108v55zM162 878h112v-55h-112v55zM107 956v-275h390v270h-57v-26h-278v31h-55zM312 460h209s0 15 -1 23c-7 101 -15 142 -29 157c-10 11 -22 16 -40 17c-10 1 -29 1 -44 0
c-1 -13 -6 -31 -11 -42c17 2 29 2 36 2s12 -1 16 -7c8 -9 14 -36 19 -104h-49c-11 71 -36 129 -92 166c-7 -10 -22 -26 -32 -33c45 -29 65 -77 74 -133h-56v-46zM359 411v-42h122v42h-122zM359 283h98v42h-98v-42zM328 138v50h203v126h-58v-77h-145v186h-60v-186h-152v77
h-57v-126h209v-50h-173v-55h418v55h-185zM875 886h15c6 0 12 -1 14 -5c3 -4 6 -12 8 -27c2 -17 3 -55 3 -103c12 10 29 19 44 24c-1 42 -4 95 -7 113c-4 19 -11 31 -19 38c-10 8 -23 11 -37 11h-34c-14 0 -30 -4 -41 -15s-15 -27 -15 -96v-457h-118c-12 173 -27 382 -39 494
l108 -27c0 17 4 40 7 54c-152 44 -177 55 -191 66c-3 -16 -14 -46 -22 -62c21 -5 37 -13 42 -50c11 -52 41 -518 53 -683h-86v-60h377v60h-234l-11 152h169v522c0 27 0 43 3 47c3 3 6 4 11 4zM789 712l-43 10c-5 -64 -20 -161 -37 -234l41 -8c18 74 34 169 39 232z" />
</svg>
