<?xml version="1.0" standalone="no"?>
<!DOCTYPE svg PUBLIC "-//W3C//DTD SVG 1.1//EN" "http://www.w3.org/Graphics/SVG/1.1/DTD/svg11.dtd" >
<svg xmlns="http://www.w3.org/2000/svg" xmlns:xlink="http://www.w3.org/1999/xlink" version="1.1" viewBox="-10 0 1010 1000">
   <path fill="currentColor"
d="M949 165l-54 29c-17 -35 -58 -85 -99 -119l53 -26c40 32 83 79 100 116zM199 179h-65v231h65v-231zM321 410v-231h-72v231h72zM249 720h72v-247h-72v247zM134 473v247h65v-247h-65zM377 116v667h-243v76h-55v-743h298zM690 683l6 62c-98 22 -197 43 -274 61l-15 -69
c72 -12 176 -34 283 -54zM604 574v-142h-104v142h104zM445 372h217v262h-217v-262zM871 392l65 29c-31 108 -75 204 -129 287c19 102 44 163 79 165c16 1 27 -48 34 -129c12 14 40 33 52 40c-19 139 -53 177 -87 176c-63 -2 -104 -67 -132 -180c-56 68 -119 123 -187 166
c-12 -11 -33 -31 -49 -42c83 -51 158 -122 220 -210c-18 -113 -27 -256 -32 -420h-276v-67h274c-1 -52 -2 -106 -3 -162h69c0 56 0 110 1 162h183v67h-181c3 124 10 235 20 328c33 -64 59 -134 79 -210z" />
</svg>
