<?xml version="1.0" standalone="no"?>
<!DOCTYPE svg PUBLIC "-//W3C//DTD SVG 1.1//EN" "http://www.w3.org/Graphics/SVG/1.1/DTD/svg11.dtd" >
<svg xmlns="http://www.w3.org/2000/svg" xmlns:xlink="http://www.w3.org/1999/xlink" version="1.1" viewBox="-10 0 1010 1000">
   <path fill="currentColor"
d="M201 179h-67v231h67v-231zM324 410v-231h-74v231h74zM250 720h74v-247h-74v247zM134 473v247h67v-247h-67zM380 116v667h-246v76h-55v-743h301zM808 739l-40 51c-19 -24 -66 -71 -103 -105v243h-61v-254c-44 82 -100 163 -154 212c-6 -19 -22 -45 -33 -61
c61 -53 129 -147 171 -233h-139v-57h155v-225h61v225h147v57h-147v33c30 22 123 95 143 114zM747 344l54 19c-21 52 -46 113 -66 152l-45 -17c20 -42 45 -109 57 -154zM575 187h360s-1 29 -1 39c-6 491 -9 643 -37 687c-17 27 -36 36 -62 40c-26 3 -65 3 -104 1
c-1 -21 -8 -51 -19 -71c40 3 74 3 91 3c14 1 22 -2 30 -17c20 -30 27 -179 31 -615h-318c-19 41 -42 79 -66 113l41 -11c22 44 40 103 46 140l-48 16c-5 -39 -22 -94 -42 -139c-6 8 -13 16 -19 24c-12 -12 -40 -35 -57 -46c67 -74 118 -189 146 -308l69 15
c-11 44 -26 88 -41 129z" />
</svg>
