<?xml version="1.0" standalone="no"?>
<!DOCTYPE svg PUBLIC "-//W3C//DTD SVG 1.1//EN" "http://www.w3.org/Graphics/SVG/1.1/DTD/svg11.dtd" >
<svg xmlns="http://www.w3.org/2000/svg" xmlns:xlink="http://www.w3.org/1999/xlink" version="1.1" viewBox="-10 0 1010 1000">
   <path fill="currentColor"
d="M861 92l64 25c-32 41 -69 84 -97 112l-47 -21c26 -31 61 -82 80 -116zM940 343l-47 51c-43 -37 -125 -89 -198 -129c-34 57 -91 98 -186 126c-7 -17 -24 -42 -39 -55c168 -46 199 -130 209 -293h69c-4 65 -12 119 -27 165c76 39 170 96 219 135zM561 96l51 20
c-18 46 -43 101 -78 135l-49 -29c33 -31 62 -84 76 -126zM421 95l63 25c-32 40 -66 82 -94 110l-46 -21c26 -31 60 -81 77 -114zM152 99l49 20c-19 46 -45 100 -82 135l-48 -29c35 -31 64 -84 81 -126zM464 604h-211v96h211v-96zM740 700v-96h-205v96h205zM535 850h205v-94
h-205v94zM253 850h211v-94h-211v94zM180 958v-415h636v411h-76v-41h-487v45h-73zM443 311l-47 47c-26 -25 -72 -59 -116 -86c-36 56 -94 97 -189 125h827v164h-72v-101h-692v101h-68v-163l-2 1c-6 -17 -24 -42 -37 -55c178 -46 209 -130 218 -301h68c-4 69 -11 126 -28 173
c49 27 108 67 138 95z" />
</svg>
