<?xml version="1.0" standalone="no"?>
<!DOCTYPE svg PUBLIC "-//W3C//DTD SVG 1.1//EN" "http://www.w3.org/Graphics/SVG/1.1/DTD/svg11.dtd" >
<svg xmlns="http://www.w3.org/2000/svg" xmlns:xlink="http://www.w3.org/1999/xlink" version="1.1" viewBox="-10 0 1010 1000">
   <path fill="currentColor"
d="M626 190l-62 26c-12 -38 -42 -100 -66 -145l59 -21c26 45 54 103 69 140zM945 222v68h-534v-68h319c28 -51 63 -126 80 -179l68 25c-25 51 -53 109 -81 154h148zM195 179h-63v231h63v-231zM314 410v-231h-71v231h71zM243 720h71v-247h-71v247zM132 473v247h63v-247h-63z
M368 116v667h-236v76h-53v-743h289zM572 702l51 -8c21 75 42 171 51 235l-55 11c-2 -20 -6 -43 -10 -68c-151 26 -176 33 -190 40c-3 -13 -13 -48 -21 -66c19 -5 37 -35 64 -78c15 -24 52 -91 89 -172c-93 10 -113 15 -125 21c-2 -15 -12 -49 -20 -68c14 -3 25 -21 39 -46
c16 -24 62 -121 86 -212l60 29c-28 78 -65 160 -103 223l89 -7c17 -41 33 -84 47 -126l61 27c-55 141 -127 285 -198 396l111 -16c-8 -39 -17 -79 -26 -115zM965 925l-55 19c-5 -22 -12 -48 -19 -76c-160 28 -185 35 -199 42c-3 -13 -14 -48 -22 -66c19 -5 37 -36 61 -79
c16 -23 49 -89 84 -168c-97 8 -118 12 -130 18c-3 -16 -14 -50 -21 -69c14 -3 26 -20 40 -45c14 -23 61 -118 85 -206l61 27c-28 78 -65 159 -103 220l93 -5c16 -42 33 -86 46 -129l60 27c-51 139 -119 285 -188 396l116 -17c-14 -39 -28 -78 -40 -113l51 -15
c31 76 64 174 80 239z" />
</svg>
