<?xml version="1.0" standalone="no"?>
<!DOCTYPE svg PUBLIC "-//W3C//DTD SVG 1.1//EN" "http://www.w3.org/Graphics/SVG/1.1/DTD/svg11.dtd" >
<svg xmlns="http://www.w3.org/2000/svg" xmlns:xlink="http://www.w3.org/1999/xlink" version="1.1" viewBox="-10 0 1010 1000">
   <path fill="currentColor"
d="M248 720h63v-247h-63v247zM133 473v247h65v-247h-65zM198 179h-65v231h65v-231zM311 410v-231h-63v231h63zM680 220h-142l31 9c-9 19 -20 38 -32 56h124c-7 -17 -15 -36 -23 -51zM665 374v-42h-147v42h147zM665 459v-43h-147v43h147zM665 546v-45h-147v45h147zM456 620
v-231c-17 18 -34 35 -52 48c-8 -10 -24 -29 -38 -41v387h-233v76h-54v-743h287v272c56 -44 109 -103 142 -168h-80v-148h62v95h150v-123h61v123h154v-95h64v148h-225c11 20 23 46 31 65h198v47h-197v42h169v42h-169v43h172v42h-172v45h210v47h-418v27h-62zM792 772v125
c35 1 61 1 71 0c10 0 13 -3 13 -13v-202h-130c42 26 90 56 115 78l-25 35c-31 -26 -91 -68 -138 -96l15 -17h-85l27 10c-26 27 -59 55 -91 80h228zM743 865v-54h-127v54h127zM938 631v253c0 32 -6 46 -28 56c-20 9 -55 9 -105 9c-3 -14 -8 -30 -14 -44h-175v30h-53v-163
c-13 10 -25 19 -37 25l-39 -28c40 -21 87 -53 122 -87h-130v275h-61v-326h520z" />
</svg>
