<?xml version="1.0" standalone="no"?>
<!DOCTYPE svg PUBLIC "-//W3C//DTD SVG 1.1//EN" "http://www.w3.org/Graphics/SVG/1.1/DTD/svg11.dtd" >
<svg xmlns="http://www.w3.org/2000/svg" xmlns:xlink="http://www.w3.org/1999/xlink" version="1.1" viewBox="-10 0 1010 1000">
   <path fill="currentColor"
d="M173 423l-59 31c-8 -52 -40 -134 -75 -194l56 -26c36 59 70 138 78 189zM310 387v-66h622v66h-400c-17 52 -36 108 -52 156h388s-1 23 -3 34c-21 223 -41 311 -75 344c-19 21 -40 27 -72 30c-27 2 -78 2 -130 -2c-1 -21 -10 -50 -23 -69c53 4 105 5 125 5
c19 0 31 -1 40 -11c23 -20 42 -93 59 -262h-413c25 -61 57 -149 80 -225h-146zM635 161h315v68h-680v226c0 154 -22 367 -157 506c-12 -16 -40 -43 -56 -52c87 -88 120 -201 133 -309c-46 30 -91 57 -132 82l-27 -67c43 -22 102 -55 165 -91c1 -24 1 -48 1 -70v-293h353
c-11 -30 -30 -66 -49 -94l71 -24c26 37 51 82 63 118z" />
</svg>
