<?xml version="1.0" standalone="no"?>
<!DOCTYPE svg PUBLIC "-//W3C//DTD SVG 1.1//EN" "http://www.w3.org/Graphics/SVG/1.1/DTD/svg11.dtd" >
<svg xmlns="http://www.w3.org/2000/svg" xmlns:xlink="http://www.w3.org/1999/xlink" version="1.1" viewBox="-10 0 1010 1000">
   <path fill="currentColor"
d="M268 214v231c0 155 -18 370 -139 510c-12 -13 -43 -35 -60 -44c74 -86 105 -195 118 -302c-39 26 -78 51 -114 74l-32 -66c40 -20 95 -51 153 -84c2 -31 2 -61 2 -89v-48l-63 29c-16 -45 -57 -119 -92 -173l60 -25c34 52 76 121 95 167v-249h351c-10 -29 -24 -62 -38 -88
l72 -17c18 31 37 73 48 105h317v69h-678zM867 345l-42 44c-27 -26 -81 -63 -125 -88l39 -39c45 23 100 57 128 83zM930 474h-258c65 136 176 269 289 335c-17 14 -41 40 -53 60c-105 -72 -206 -197 -275 -334v420h-73v-399c-66 136 -159 260 -254 333
c-13 -18 -36 -46 -54 -59c107 -73 213 -214 276 -356h-221v-67h253v-160h73v160h297v67z" />
</svg>
