<?xml version="1.0" standalone="no"?>
<!DOCTYPE svg PUBLIC "-//W3C//DTD SVG 1.1//EN" "http://www.w3.org/Graphics/SVG/1.1/DTD/svg11.dtd" >
<svg xmlns="http://www.w3.org/2000/svg" xmlns:xlink="http://www.w3.org/1999/xlink" version="1.1" viewBox="-10 0 1010 1000">
   <path fill="currentColor"
d="M171 404l-59 29c-8 -50 -40 -128 -71 -187l55 -25c33 57 66 135 75 183zM439 237l69 20c-20 49 -47 101 -77 151v541h-70v-441c-26 32 -53 63 -81 88c-6 -9 -15 -23 -25 -36c-11 135 -45 285 -145 392c-11 -15 -38 -41 -53 -50c80 -86 111 -197 124 -304
c-44 27 -88 53 -129 77l-26 -67c42 -20 100 -50 161 -82c2 -28 2 -54 2 -80v-311h348c-12 -26 -27 -56 -41 -80l71 -21c20 30 41 71 53 101h327v63h-688v248c0 25 -1 51 -2 78c78 -78 147 -192 182 -287zM931 465h-175c42 124 115 249 194 311c-15 12 -38 37 -51 55
c-68 -62 -130 -171 -172 -287v410h-70v-402c-44 112 -105 214 -170 275c-11 -17 -33 -41 -48 -53c77 -62 150 -187 191 -309h-156v-65h183v-155h70v155h204v65z" />
</svg>
