<?xml version="1.0" standalone="no"?>
<!DOCTYPE svg PUBLIC "-//W3C//DTD SVG 1.1//EN" "http://www.w3.org/Graphics/SVG/1.1/DTD/svg11.dtd" >
<svg xmlns="http://www.w3.org/2000/svg" xmlns:xlink="http://www.w3.org/1999/xlink" version="1.1" viewBox="-10 0 1010 1000">
   <path fill="currentColor"
d="M168 402l-57 26c-7 -51 -34 -132 -64 -195l54 -21c31 61 60 140 67 190zM737 345v322h-230v-1h-13v-322h-125v475h491v-474h-123zM675 605v-322h249v671h-64v-73h-491v73h-61v-672h250v323h117zM623 139h328v65h-710v250c0 150 -18 358 -139 493c-9 -14 -37 -40 -51 -47
c76 -87 105 -198 117 -304c-38 24 -76 47 -113 69l-25 -66c37 -18 89 -45 143 -75c1 -24 1 -48 1 -70v-315h367c-10 -27 -23 -60 -34 -84l72 -17c16 31 34 71 44 101z" />
</svg>
