<?xml version="1.0" standalone="no"?>
<!DOCTYPE svg PUBLIC "-//W3C//DTD SVG 1.1//EN" "http://www.w3.org/Graphics/SVG/1.1/DTD/svg11.dtd" >
<svg xmlns="http://www.w3.org/2000/svg" xmlns:xlink="http://www.w3.org/1999/xlink" version="1.1" viewBox="-10 0 1010 1000">
   <path fill="currentColor"
d="M186 410l-58 29c-10 -50 -41 -128 -71 -188l55 -23c31 58 62 135 74 182zM267 201v250c0 154 -19 366 -146 505c-10 -14 -38 -40 -51 -49c80 -89 111 -204 122 -314c-43 29 -85 58 -125 83l-28 -63c40 -22 98 -56 159 -92c1 -25 1 -47 1 -70v-312h350
c-8 -27 -19 -57 -29 -82l70 -15c12 29 25 67 34 97h314v62h-671zM410 634h158c6 -24 9 -49 10 -73h-168v73zM410 437v73h169v-73h-169zM814 437h-166v73h166v-73zM814 634v-73h-167c-1 24 -4 49 -9 73h176zM876 688h-254c-14 37 -37 72 -70 107c106 44 247 65 404 72
c-14 15 -31 43 -40 63c-159 -12 -302 -39 -411 -93c-51 38 -121 73 -213 103c-8 -15 -28 -40 -43 -53c85 -25 148 -54 195 -86c-31 -21 -60 -46 -82 -74l59 -20c18 21 43 41 70 57c25 -24 44 -50 58 -76h-200v-305h230v-58h-259v-62h590v62h-262v58h228v305z" />
</svg>
