<?xml version="1.0" standalone="no"?>
<!DOCTYPE svg PUBLIC "-//W3C//DTD SVG 1.1//EN" "http://www.w3.org/Graphics/SVG/1.1/DTD/svg11.dtd" >
<svg xmlns="http://www.w3.org/2000/svg" xmlns:xlink="http://www.w3.org/1999/xlink" version="1.1" viewBox="-10 0 1010 1000">
   <path fill="currentColor"
d="M185 420l-59 30c-10 -49 -43 -128 -76 -186l55 -26c35 56 70 132 80 182zM275 218v232c0 157 -21 371 -158 510c-11 -15 -39 -42 -55 -51c80 -83 115 -188 130 -291c-45 26 -91 53 -132 75l-26 -68c45 -18 103 -50 165 -82c2 -32 3 -65 3 -94v-299h332
c-9 -31 -19 -66 -30 -95l75 -15c13 34 28 76 38 110h333v68h-675zM781 435l65 11c-6 28 -13 55 -22 80c47 33 98 75 125 106l-48 49c-22 -27 -62 -64 -102 -97c-18 36 -40 67 -65 91c-11 -10 -38 -29 -54 -39c52 -47 86 -119 101 -201zM396 437l65 11c-7 31 -16 61 -27 88
c37 31 77 70 96 96l-47 40c-15 -23 -44 -53 -73 -81c-23 42 -51 79 -83 107c-11 -11 -35 -33 -50 -43c62 -50 101 -128 119 -218zM934 404h-286c-3 47 -6 91 -12 130c51 191 142 270 323 333c-16 18 -31 50 -37 77c-156 -62 -252 -142 -311 -287c-48 152 -145 236 -339 287
c-3 -30 -17 -67 -31 -88c253 -48 320 -169 335 -452h-267v-67h270c1 -28 1 -59 1 -91l71 4c0 30 0 60 -1 87h284v67z" />
</svg>
