<?xml version="1.0" standalone="no"?>
<!DOCTYPE svg PUBLIC "-//W3C//DTD SVG 1.1//EN" "http://www.w3.org/Graphics/SVG/1.1/DTD/svg11.dtd" >
<svg xmlns="http://www.w3.org/2000/svg" xmlns:xlink="http://www.w3.org/1999/xlink" version="1.1" viewBox="-10 0 1010 1000">
   <path fill="currentColor"
d="M185 420l-60 30c-9 -49 -42 -127 -75 -186l55 -27c35 58 69 134 80 183zM603 691h-167v93h167v-93zM669 841h-233v54h-66v-261h299v207zM293 566v-63h656v63h-114v297c0 40 -8 58 -38 69s-80 11 -155 11c-3 -19 -12 -45 -22 -64c60 1 109 1 126 0c14 -1 18 -4 18 -17
v-296h-471zM879 445l-34 53c-62 -34 -179 -75 -278 -100c-43 44 -110 75 -215 96c-6 -16 -23 -42 -35 -54c121 -22 185 -54 219 -109h-201v-59h225c5 -21 8 -43 11 -68h69c-3 25 -6 47 -11 68h235v59h-252c-4 7 -7 15 -11 21c97 23 213 61 278 93zM622 136h334v60h-691v246
c0 157 -21 373 -156 514c-11 -13 -36 -38 -51 -47c79 -82 114 -186 129 -288c-44 26 -87 50 -127 73l-26 -68c43 -19 100 -48 161 -80c2 -37 3 -72 3 -105v-305h347c-7 -26 -16 -57 -26 -81l70 -14c13 29 25 68 33 95z" />
</svg>
