<?xml version="1.0" standalone="no"?>
<!DOCTYPE svg PUBLIC "-//W3C//DTD SVG 1.1//EN" "http://www.w3.org/Graphics/SVG/1.1/DTD/svg11.dtd" >
<svg xmlns="http://www.w3.org/2000/svg" xmlns:xlink="http://www.w3.org/1999/xlink" version="1.1" viewBox="-10 0 1010 1000">
   <path fill="currentColor"
d="M241 202v249c0 153 -18 365 -129 505c-10 -13 -36 -36 -50 -45c71 -90 97 -205 107 -314c-34 28 -69 55 -103 80l-28 -64c35 -22 84 -58 136 -95c1 -23 1 -46 1 -67v-50l-52 26c-11 -47 -38 -120 -67 -176l54 -24c25 47 51 109 65 153v-241h372c-8 -27 -19 -57 -28 -82
l67 -15c12 30 25 67 35 97h326v63h-706zM415 680h159s0 17 -1 27c-7 143 -15 198 -32 219c-13 15 -26 20 -48 22c-14 1 -45 1 -72 0c-2 -18 -7 -40 -15 -56c28 4 53 4 64 4s17 -1 22 -9c10 -11 16 -51 22 -150h-108c-18 97 -56 173 -135 223c-6 -14 -24 -37 -37 -46
c95 -59 118 -164 126 -297h-89v-60h143v-76h-104v-60h104v-73h-129v-57h129v-70h62v70h120v57h-120v73h89v60h-89v76h124v60h-180c-1 21 -3 43 -5 63zM830 425h-107c15 82 37 161 65 231c22 -66 35 -143 42 -231zM943 425h-50c-11 123 -33 223 -69 306c38 71 86 127 142 163
c-15 13 -35 37 -45 54c-51 -37 -94 -89 -130 -152c-40 66 -93 118 -163 161c-7 -13 -30 -39 -42 -51c79 -43 134 -101 172 -176c-31 -68 -55 -144 -74 -228c-13 27 -28 50 -44 72c-8 -13 -31 -39 -45 -50c58 -76 99 -191 124 -308l61 12c-10 45 -22 91 -36 133h199v64z" />
</svg>
