<?xml version="1.0" standalone="no"?>
<!DOCTYPE svg PUBLIC "-//W3C//DTD SVG 1.1//EN" "http://www.w3.org/Graphics/SVG/1.1/DTD/svg11.dtd" >
<svg xmlns="http://www.w3.org/2000/svg" xmlns:xlink="http://www.w3.org/1999/xlink" version="1.1" viewBox="-10 0 1010 1000">
   <path fill="currentColor"
d="M689 743h-161v70h161v-70zM752 858h-224v38h-66v-198h290v160zM900 594v282c0 32 -6 48 -31 58c-22 10 -59 10 -119 10c-4 -17 -13 -39 -21 -55c43 1 79 1 89 1c12 -1 15 -4 15 -14v-227h-455v302h-68v-357h590zM761 490v-65h-308v65h308zM386 380h445v155h-445v-155z
M541 232l64 -19c17 18 35 42 46 62h271v58h-628v-58h277c-8 -15 -19 -31 -30 -43zM623 139h324v60h-704v254c0 151 -16 364 -126 504c-11 -12 -38 -38 -53 -47c69 -89 95 -204 105 -313c-34 27 -69 55 -103 80l-28 -65c35 -21 84 -57 136 -95c1 -22 1 -45 1 -65v-51l-52 26
c-11 -47 -38 -120 -67 -176l53 -23c27 49 53 112 66 155v-244h374c-8 -27 -19 -57 -29 -82l68 -15c13 30 25 67 35 97z" />
</svg>
