<?xml version="1.0" standalone="no"?>
<!DOCTYPE svg PUBLIC "-//W3C//DTD SVG 1.1//EN" "http://www.w3.org/Graphics/SVG/1.1/DTD/svg11.dtd" >
<svg xmlns="http://www.w3.org/2000/svg" xmlns:xlink="http://www.w3.org/1999/xlink" version="1.1" viewBox="-10 0 1010 1000">
   <path fill="currentColor"
d="M159 412l-55 22c-5 -49 -28 -128 -56 -187l51 -18c29 59 54 135 60 183zM241 191v255c0 154 -18 369 -138 509c-9 -14 -35 -39 -49 -48c76 -89 104 -203 115 -312c-34 24 -68 47 -102 70l-29 -62c36 -19 84 -48 137 -81c1 -26 1 -52 1 -76v-317h374
c-9 -25 -22 -52 -35 -74l67 -17c18 27 35 62 46 91h320v62h-707zM896 544l48 45c-38 31 -81 62 -121 86c44 38 83 76 109 106l-51 40c-50 -62 -157 -156 -245 -222l45 -35c32 21 65 47 97 73c41 -27 89 -64 118 -93zM811 310h-229v67h229v-67zM582 494h229v-66h-229v66z
M582 550v176l134 -35c0 18 2 42 4 56c-166 49 -192 59 -209 71c-5 -15 -20 -42 -30 -53c14 -9 35 -30 35 -69v-442h358v296h-292zM278 287l46 -44c55 33 123 84 156 120l-49 48c-31 -37 -97 -89 -153 -124zM438 486v303c18 11 37 26 65 43c54 31 119 40 204 40
c72 0 181 -4 252 -13c-7 18 -17 49 -18 69c-51 3 -169 7 -237 7c-92 0 -158 -13 -217 -48c-38 -24 -67 -51 -88 -51c-33 0 -80 52 -125 110l-44 -57c50 -53 100 -95 144 -108v-230h-103v-65h167z" />
</svg>
