<?xml version="1.0" standalone="no"?>
<!DOCTYPE svg PUBLIC "-//W3C//DTD SVG 1.1//EN" "http://www.w3.org/Graphics/SVG/1.1/DTD/svg11.dtd" >
<svg xmlns="http://www.w3.org/2000/svg" xmlns:xlink="http://www.w3.org/1999/xlink" version="1.1" viewBox="-10 0 1010 1000">
   <path fill="currentColor"
d="M891 472h32c10 0 26 -1 35 -4c1 15 2 35 3 49c-8 3 -22 3 -37 3h-41c-49 0 -58 -22 -58 -77v-128h-99v46c0 60 -14 133 -80 182c-8 -11 -30 -34 -42 -42c58 -42 67 -94 67 -141v-102h209v186c0 22 1 28 11 28zM623 782l-41 30c-16 -33 -45 -82 -75 -128
c-21 56 -58 112 -122 160c-7 -13 -23 -33 -34 -44c77 -52 108 -119 121 -182h-103v-54h111c1 -16 1 -30 1 -44v-69h-39c-13 30 -27 58 -41 80c-10 -8 -33 -21 -46 -27c33 -45 56 -109 69 -173l51 12c-4 17 -9 34 -14 51h146v57h-73v70c0 14 0 28 -2 43h83v54h-90l-1 8
c37 52 79 115 99 156zM158 409l-55 26c-5 -49 -31 -128 -58 -189l51 -22c29 59 55 137 62 185zM952 194h-712v254c0 154 -19 368 -140 508c-11 -14 -37 -38 -50 -47c75 -87 105 -198 117 -306c-38 25 -75 47 -111 69l-25 -64c38 -17 87 -46 141 -76c2 -29 2 -57 2 -84v-316
h355c-9 -25 -22 -53 -38 -74l67 -17c21 25 39 61 49 91h345v62zM859 633h-152c18 52 45 100 78 140c32 -39 57 -86 74 -140zM895 572l37 13c-21 96 -57 173 -106 233c40 36 87 63 141 81c-14 13 -31 36 -40 53c-54 -20 -101 -51 -141 -90c-44 42 -96 73 -152 96
c-6 -15 -19 -37 -32 -50h-317v-647h339v59h-283v528h288v46c42 -18 81 -44 116 -77c-41 -52 -73 -114 -94 -184h-23v-58h255z" />
</svg>
