<?xml version="1.0" standalone="no"?>
<!DOCTYPE svg PUBLIC "-//W3C//DTD SVG 1.1//EN" "http://www.w3.org/Graphics/SVG/1.1/DTD/svg11.dtd" >
<svg xmlns="http://www.w3.org/2000/svg" xmlns:xlink="http://www.w3.org/1999/xlink" version="1.1" viewBox="-10 0 1010 1000">
   <path fill="currentColor"
d="M185 420l-60 30c-10 -49 -42 -128 -75 -187l55 -26c35 57 69 134 80 183zM509 554v-63h-150v63h150zM924 719h-245c72 58 179 113 269 140c-16 14 -37 38 -48 56c-90 -34 -198 -98 -274 -167v199h-69v-206c-77 76 -195 144 -297 179c-10 -17 -31 -41 -45 -54
c98 -28 209 -84 282 -147h-224v-57h284v-59h-258v-160h272v160h55v59h298v57zM448 288v62h302v-62h-302zM388 402v-166h424v166h-424zM679 490v63h152v-63h-152zM619 602v-160h274v160h-274zM619 124h329v60h-688v245c0 159 -21 379 -157 520c-11 -15 -39 -40 -54 -49
c74 -78 110 -176 126 -273c-39 23 -78 46 -115 66l-26 -67c40 -18 93 -45 151 -75c3 -42 4 -84 4 -122v-305h353c-6 -23 -15 -48 -22 -69l70 -13c10 25 21 57 29 82z" />
</svg>
