<?xml version="1.0" standalone="no"?>
<!DOCTYPE svg PUBLIC "-//W3C//DTD SVG 1.1//EN" "http://www.w3.org/Graphics/SVG/1.1/DTD/svg11.dtd" >
<svg xmlns="http://www.w3.org/2000/svg" xmlns:xlink="http://www.w3.org/1999/xlink" version="1.1" viewBox="-10 0 1010 1000">
   <path fill="currentColor"
d="M161 385l-54 27c-11 -48 -37 -129 -59 -190l51 -21c24 60 52 139 62 184zM480 615h-116c0 18 0 37 -1 58h117v-58zM480 519h-116v51h116v-51zM657 570v-51h-117v51h117zM657 673v-58h-117v58h117zM847 615h-130v58h130v-58zM757 898h103c21 0 26 -8 28 -58
c13 9 35 16 51 18c-6 69 -22 87 -72 87h-117c-69 0 -87 -14 -87 -71v-157h-188v54h147v45h-147v73l154 -19c-1 14 0 33 2 45c-192 26 -219 31 -235 39c-3 -17 -9 -50 -19 -70c16 -3 38 -7 38 -38v-129h-55c-7 78 -24 167 -61 234c-13 -11 -41 -28 -56 -33
c52 -93 58 -218 58 -305v-143h278c-4 -9 -7 -18 -11 -26h-53v-101h-154v102h-52v-146h260v130l54 -14c9 17 18 37 25 55h286v49h-217v51h194v147h-188v73c51 -14 107 -35 145 -50l37 36c-55 24 -125 43 -182 55v44c0 20 5 23 34 23zM587 217v48h-305v-48h305zM390 372
l36 -20c22 21 48 45 61 62l-39 25c-12 -19 -38 -46 -58 -67zM910 445h-54v-102h-159v102h-52v-146h265v146zM727 373l37 -20c22 20 47 45 60 63l-39 23c-11 -18 -37 -46 -58 -66zM935 217v48h-319v-48h319zM617 107h336v63h-709v265c0 156 -16 374 -124 520
c-11 -13 -39 -36 -54 -44c71 -95 97 -218 106 -335c-38 25 -77 48 -114 71l-24 -64c37 -18 88 -46 142 -76c1 -26 1 -49 1 -73v-327h358c-6 -17 -11 -34 -16 -49l72 -16c9 20 18 43 26 65z" />
</svg>
