<?xml version="1.0" standalone="no"?>
<!DOCTYPE svg PUBLIC "-//W3C//DTD SVG 1.1//EN" "http://www.w3.org/Graphics/SVG/1.1/DTD/svg11.dtd" >
<svg xmlns="http://www.w3.org/2000/svg" xmlns:xlink="http://www.w3.org/1999/xlink" version="1.1" viewBox="-10 0 1010 1000">
   <path fill="currentColor"
d="M776 302v-96h-560v96h560zM776 459v-97h-560v97h560zM851 143v379h-708v-379h270c14 -32 29 -72 35 -100l90 8c-15 32 -31 65 -46 92h359zM914 902l-69 41c-14 -27 -36 -61 -60 -97c-568 47 -624 52 -663 68c-3 -17 -16 -54 -26 -74c22 -3 46 -24 76 -53
c31 -29 133 -142 200 -252l82 30c-67 95 -146 186 -222 259l508 -38c-39 -51 -81 -102 -121 -146l62 -35c87 91 188 216 233 297z" />
</svg>
