<?xml version="1.0" standalone="no"?>
<!DOCTYPE svg PUBLIC "-//W3C//DTD SVG 1.1//EN" "http://www.w3.org/Graphics/SVG/1.1/DTD/svg11.dtd" >
<svg xmlns="http://www.w3.org/2000/svg" xmlns:xlink="http://www.w3.org/1999/xlink" version="1.1" viewBox="-10 0 1010 1000">
   <path fill="currentColor"
d="M282 454v-187h-138v187h138zM144 716h138v-196h-138v196zM204 43l74 15c-16 47 -33 100 -49 142h117v583h-202v83h-62v-666h85c13 -47 30 -111 37 -157zM433 647h66v147h321v55h-387v-202zM650 564l60 6c-7 25 -16 49 -27 71c44 31 97 72 125 99l-42 36
c-25 -25 -68 -61 -109 -92c-27 37 -60 68 -99 91c-8 -9 -29 -29 -42 -38c69 -39 115 -99 134 -173zM503 275v82h316v-82h-316zM503 140v81h316v-81h-316zM560 488h384s-1 21 -2 30c-14 284 -26 376 -54 408c-17 18 -36 25 -63 27c-24 1 -63 1 -103 -1c-1 -15 -7 -37 -17 -51
c40 3 74 4 90 4c14 0 23 -2 31 -12c20 -22 32 -109 45 -345h-354c-31 38 -69 75 -115 109c-11 -15 -35 -35 -51 -42c85 -59 142 -137 172 -201h-92v-331h462v331h-355l58 8c-11 22 -22 44 -36 66z" />
</svg>
