<?xml version="1.0" standalone="no"?>
<!DOCTYPE svg PUBLIC "-//W3C//DTD SVG 1.1//EN" "http://www.w3.org/Graphics/SVG/1.1/DTD/svg11.dtd" >
<svg xmlns="http://www.w3.org/2000/svg" xmlns:xlink="http://www.w3.org/1999/xlink" version="1.1" viewBox="-10 0 1010 1000">
   <path fill="currentColor"
d="M483 355l-39 54c-35 -39 -105 -93 -169 -135c-32 52 -89 102 -188 143c-10 -16 -30 -39 -45 -51c120 -46 171 -105 190 -162h-168v-65h181v-13v-82h68v85v10h179v65h-188l-4 13c68 41 145 97 183 138zM271 614h-119v140h119v-140zM330 809h-178v39h-58v-288h236v249z
M503 489h-49v386c0 37 -7 55 -33 66c-27 11 -68 12 -131 12c-3 -19 -13 -45 -23 -64c49 2 92 2 106 1c12 0 16 -3 16 -15v-386h-346v-63h460v63zM842 502h-163c21 68 51 132 86 189c33 -56 59 -119 77 -189zM711 239h-104v200h104v-200zM875 437l40 14
c-22 118 -61 217 -111 298c46 60 99 109 160 141c-15 13 -36 38 -47 57c-57 -35 -108 -83 -152 -140c-48 63 -105 112 -166 149c-8 -17 -25 -44 -39 -58c61 -32 118 -82 166 -148c-46 -73 -83 -157 -110 -248h-9c-3 144 -22 328 -96 456c-10 -12 -36 -34 -49 -40
c77 -136 85 -325 85 -465v-277h164v-127h63v127h127l11 -3l42 13c-19 68 -41 144 -62 193l-51 -17c11 -32 25 -78 37 -123h-104v200h90z" />
</svg>
