<?xml version="1.0" standalone="no"?>
<!DOCTYPE svg PUBLIC "-//W3C//DTD SVG 1.1//EN" "http://www.w3.org/Graphics/SVG/1.1/DTD/svg11.dtd" >
<svg xmlns="http://www.w3.org/2000/svg" xmlns:xlink="http://www.w3.org/1999/xlink" version="1.1" viewBox="-10 0 1010 1000">
   <path fill="currentColor"
d="M839 488h-173c20 73 50 144 88 206c37 -60 66 -130 85 -206zM702 254h-98v170h98v-170zM876 422l43 13c-24 127 -67 234 -124 321c49 61 107 111 175 142c-15 12 -36 38 -47 56c-65 -34 -121 -83 -168 -144c-48 60 -104 107 -164 143c-10 -17 -28 -43 -43 -56
c61 -32 118 -82 167 -145c-48 -77 -85 -167 -110 -264h-1c-3 144 -20 331 -91 464c-12 -11 -41 -27 -57 -33c11 -19 19 -40 28 -61c-123 24 -249 48 -344 65l-15 -71c47 -6 106 -16 171 -26v-139h-85c-34 61 -74 115 -122 160c-9 -14 -36 -42 -50 -55
c75 -66 128 -153 163 -260h-125v-63h145c7 -26 13 -53 18 -81h-130v-61h141c4 -25 7 -52 11 -78h-174v-63h108c-10 -28 -31 -68 -49 -97l61 -25c22 33 44 74 55 100l-48 22h112c22 -38 45 -87 58 -123l73 18c-20 35 -40 73 -59 105h99v63h-165c-3 26 -7 53 -11 78h149v61
h-160c-6 28 -12 55 -18 81h205v63h-223c-10 32 -22 63 -35 92h238v63h-118v128l119 -19l6 59c49 -132 54 -292 54 -411v-256h163v-138h67v138h124l12 -2l48 11c-14 63 -32 134 -48 179l-58 -16c9 -28 18 -67 26 -106h-104v170h94z" />
</svg>
