<?xml version="1.0" standalone="no"?>
<!DOCTYPE svg PUBLIC "-//W3C//DTD SVG 1.1//EN" "http://www.w3.org/Graphics/SVG/1.1/DTD/svg11.dtd" >
<svg xmlns="http://www.w3.org/2000/svg" xmlns:xlink="http://www.w3.org/1999/xlink" version="1.1" viewBox="-10 0 1010 1000">
   <path fill="currentColor"
d="M827 186v-57h-260v57h260zM827 291v-59h-260v59h260zM897 78v264h-397v-264h397zM866 532v-93h-79v93h79zM735 532v-93h-79v93h79zM604 532v-93h-75v93h75zM928 390v191h-458v-191h458zM147 237v176h87v-176h-87zM429 840l-50 41c-15 -31 -38 -68 -64 -108
c-43 78 -95 139 -151 185c-9 -18 -29 -44 -43 -56c57 -41 110 -107 152 -189c-38 -53 -79 -107 -117 -152l47 -36c32 38 66 81 100 124c21 -54 39 -112 51 -174h-207v20c0 134 -9 330 -64 459c-11 -11 -35 -30 -49 -37c50 -122 54 -296 54 -422v-321h146v-130h60v130h111
l10 -3l41 12c-13 65 -30 140 -44 187l-51 -15c7 -31 17 -75 24 -118h-91v176h79l12 -3l39 12c-15 109 -43 204 -78 287c33 48 64 94 83 131zM819 690h-243c32 42 74 79 124 110c49 -30 90 -66 119 -110zM875 628l43 23c-34 76 -88 136 -154 183c60 27 128 47 200 59
c-14 15 -34 42 -43 62c-83 -17 -159 -44 -224 -80c-72 37 -154 64 -239 82c-7 -17 -26 -47 -40 -60c78 -14 151 -34 215 -62c-55 -40 -100 -89 -134 -145h-41v-59h404z" />
</svg>
