<?xml version="1.0" standalone="no"?>
<!DOCTYPE svg PUBLIC "-//W3C//DTD SVG 1.1//EN" "http://www.w3.org/Graphics/SVG/1.1/DTD/svg11.dtd" >
<svg xmlns="http://www.w3.org/2000/svg" xmlns:xlink="http://www.w3.org/1999/xlink" version="1.1" viewBox="-10 0 1010 1000">
   <path fill="currentColor"
d="M533 247v49h221v-49h-221zM533 150v47h221v-47h-221zM943 387v51h-885v-51h402v-46h-306v-45h306v-49h-400v-50h400v-47h-295v-45h295v-63h73v63h294v92h115v50h-115v94h-294v46h410zM702 575l-56 -30c51 -19 120 -52 159 -76l64 33c-51 29 -117 56 -167 73zM177 589
l-51 -34c61 -18 117 -54 150 -86l53 27c-38 35 -88 70 -152 93zM239 743v129h127v-129h-127zM218 686h556c-124 -25 -217 -71 -276 -146c-46 72 -129 118 -280 146zM759 872v-129h-128v129h128zM562 872v-129h-127v129h127zM832 872h119v61h-902v-61h120v-178
c-23 4 -46 7 -72 10c-4 -15 -19 -41 -30 -54c279 -26 365 -85 399 -200h71c-3 12 -7 22 -11 33c63 104 208 153 415 164c-15 14 -32 39 -40 57c-24 -2 -47 -5 -69 -8v176z" />
</svg>
