<?xml version="1.0" standalone="no"?>
<!DOCTYPE svg PUBLIC "-//W3C//DTD SVG 1.1//EN" "http://www.w3.org/Graphics/SVG/1.1/DTD/svg11.dtd" >
<svg xmlns="http://www.w3.org/2000/svg" xmlns:xlink="http://www.w3.org/1999/xlink" version="1.1" viewBox="-10 0 1010 1000">
   <path fill="currentColor"
d="M239 781v90h128v-90h-128zM563 781h-128v90h128v-90zM761 781h-129v90h129v-90zM834 729v142h117v57h-902v-57h119v-142h666zM878 452v189c0 32 -6 48 -30 59c-24 10 -61 10 -116 10c-4 -17 -14 -40 -23 -57c40 1 73 1 83 0c11 0 14 -3 14 -12v-141h-603v209h-71v-257
h746zM369 583v57h265v-57h-265zM702 682h-398v-141h398v141zM339 273h323c-17 -15 -33 -29 -47 -45h-229c-15 16 -30 30 -47 45zM659 371v-57h-313v57h313zM934 228h-242c67 57 172 102 275 122c-15 14 -33 38 -43 54c-69 -17 -136 -47 -196 -84v93h-449v-93
c-61 43 -130 77 -202 105c-8 -15 -28 -40 -42 -54c100 -32 191 -80 263 -143h-230v-50h278c12 -13 22 -28 31 -42c-70 3 -141 6 -207 7c-1 -13 -8 -34 -14 -46c217 -6 484 -23 627 -49l42 44c-97 18 -232 31 -370 39c-9 17 -19 32 -30 47h509v50z" />
</svg>
