<?xml version="1.0" standalone="no"?>
<!DOCTYPE svg PUBLIC "-//W3C//DTD SVG 1.1//EN" "http://www.w3.org/Graphics/SVG/1.1/DTD/svg11.dtd" >
<svg xmlns="http://www.w3.org/2000/svg" xmlns:xlink="http://www.w3.org/1999/xlink" version="1.1" viewBox="-10 0 1010 1000">
   <path fill="currentColor"
d="M591 450l-23 24c-14 -13 -37 -30 -58 -41l23 -20c20 9 45 25 58 37zM757 428l24 -18c22 10 48 28 61 42l-24 22c-14 -15 -40 -33 -61 -46zM533 382l27 -23c40 17 82 39 121 62c29 -24 54 -50 75 -76l41 12c-23 29 -51 58 -82 84c42 26 78 51 104 74l-28 27
c-25 -22 -63 -49 -105 -76c-39 32 -81 61 -121 83c-7 -7 -24 -20 -35 -26c41 -22 83 -49 122 -78c-40 -23 -81 -45 -119 -63zM856 556v-219h-207c20 12 43 27 55 40l-25 23c-11 -15 -36 -33 -57 -45l24 -18h-157v219h216c-13 -14 -35 -30 -54 -42l25 -18c21 12 47 30 58 43
l-20 17h142zM626 167h-114c-26 41 -56 81 -94 118c-12 -13 -36 -30 -53 -37c65 -62 110 -142 135 -205l69 9c-9 21 -18 42 -29 64h406v51h-250v39h212v44h-212v43h223v307h-491v-307h198v-126zM71 595l-17 -68c38 -9 84 -22 134 -36v-227h-124v-67h124v-149h68v149h107v67
h-107v208l120 -35l9 64c-110 33 -225 69 -314 94zM226 709v157h140v-157h-140zM574 709h-139v157h139v-157zM785 709h-142v157h142v-157zM858 866h101v61h-915v-61h112v-216h702v216z" />
</svg>
