<?xml version="1.0" standalone="no"?>
<!DOCTYPE svg PUBLIC "-//W3C//DTD SVG 1.1//EN" "http://www.w3.org/Graphics/SVG/1.1/DTD/svg11.dtd" >
<svg xmlns="http://www.w3.org/2000/svg" xmlns:xlink="http://www.w3.org/1999/xlink" version="1.1" viewBox="-10 0 1010 1000">
   <path fill="currentColor"
d="M483 116v48h-413v-48h169c-9 -20 -21 -39 -32 -56l53 -17c17 22 33 49 43 73h180zM159 455v45h231v-45h-231zM159 369v43h231v-43h-231zM238 717v-78h-191v-49h191v-45h-140v-221h356v221h-147v45h186v49h-186v78h-69zM239 782v92h128v-92h-128zM563 782h-128v92h128v-92
zM761 782h-129v92h129v-92zM604 573v35h237v-35h-237zM604 505v32h237v-32h-237zM604 437v32h237v-32h-237zM834 732v142h116v55h-901v-55h120v-142h378c-11 -10 -28 -23 -40 -30c42 -13 93 -35 121 -58h-85v-244h362v244h-81c42 20 90 45 117 65l-45 31
c-30 -22 -90 -56 -137 -78l28 -18h-141l42 14c-34 30 -87 58 -134 74h280zM602 268h266c-47 -11 -94 -24 -138 -41c-40 17 -83 30 -128 41zM634 128l-3 3c25 19 58 36 97 52c36 -16 69 -34 94 -55h-188zM875 85l31 21c-29 39 -72 70 -121 96c56 17 118 29 178 36
c-11 9 -25 29 -33 42c-19 -3 -40 -7 -59 -11v37h-117v30h184v39h-430v-39h183v-30h-110v-33c-23 5 -46 10 -69 14c-4 -9 -11 -21 -19 -31v34h-445v-48h114c-6 -19 -15 -42 -24 -59l57 -15c13 22 24 53 31 74h86c13 -23 28 -53 36 -73l62 16c-11 21 -21 40 -31 57h114
c63 -9 125 -21 181 -40c-29 -14 -55 -29 -76 -46c-18 12 -36 24 -56 34c-9 -11 -27 -26 -39 -33c68 -32 120 -75 149 -114l52 9c-8 11 -17 23 -28 35h189z" />
</svg>
