<?xml version="1.0" standalone="no"?>
<!DOCTYPE svg PUBLIC "-//W3C//DTD SVG 1.1//EN" "http://www.w3.org/Graphics/SVG/1.1/DTD/svg11.dtd" >
<svg xmlns="http://www.w3.org/2000/svg" xmlns:xlink="http://www.w3.org/1999/xlink" version="1.1" viewBox="-10 0 1010 1000">
   <path fill="currentColor"
d="M273 171h-120v139h120v-139zM153 516h120v-142h-120v142zM153 725h120v-145h-120v145zM336 792h-183v86h-61v-773h244v687zM618 263h204c0 315 10 615 76 615c14 0 20 -63 21 -158c13 17 30 34 43 42c-6 140 -20 188 -71 188c-113 0 -127 -270 -131 -617h-145
c-4 82 -12 160 -25 233c59 45 111 92 146 132l-46 59c-27 -34 -69 -75 -116 -115c-34 129 -90 237 -190 315c-11 -17 -32 -41 -48 -52c99 -74 152 -181 183 -307c-44 -34 -90 -66 -132 -93l41 -51c33 21 69 44 104 70c10 -61 15 -124 18 -191h-170v-70h173
c1 -69 1 -142 1 -216h66c0 74 0 146 -2 216z" />
</svg>
