<?xml version="1.0" standalone="no"?>
<!DOCTYPE svg PUBLIC "-//W3C//DTD SVG 1.1//EN" "http://www.w3.org/Graphics/SVG/1.1/DTD/svg11.dtd" >
<svg xmlns="http://www.w3.org/2000/svg" xmlns:xlink="http://www.w3.org/1999/xlink" version="1.1" viewBox="-10 0 1010 1000">
   <path fill="currentColor"
d="M764 197l-52 47c-36 -47 -116 -111 -186 -155l50 -42c69 41 150 103 188 150zM282 171h-135v139h135v-139zM147 725h135v-145h-135v145zM147 374v142h135v-142h-135zM349 105v687h-202v86h-66v-773h268zM433 397l61 13c-12 104 -34 232 -82 307l-58 -28
c46 -72 69 -192 79 -292zM963 685l-67 19c-10 -79 -47 -202 -93 -294c-50 121 -111 230 -183 324v105c0 39 6 46 41 46h116c32 0 38 -25 42 -148c16 13 44 25 64 29c-8 143 -27 185 -101 185h-129c-83 0 -104 -24 -104 -113v-20c-40 44 -84 84 -130 119
c-12 -14 -43 -38 -59 -50c70 -51 133 -111 189 -180v-438h71v342c93 -143 162 -315 213 -506l71 15c-29 102 -61 197 -99 286l60 -17c48 94 88 215 98 296z" />
</svg>
