<?xml version="1.0" standalone="no"?>
<!DOCTYPE svg PUBLIC "-//W3C//DTD SVG 1.1//EN" "http://www.w3.org/Graphics/SVG/1.1/DTD/svg11.dtd" >
<svg xmlns="http://www.w3.org/2000/svg" xmlns:xlink="http://www.w3.org/1999/xlink" version="1.1" viewBox="-10 0 1010 1000">
   <path fill="currentColor"
d="M560 328v244h181v-244h-181zM957 572v73h-592v-73h122v-244h-106v-72h106v-201h73v201h181v-201h73v201h125v72h-125v244h143zM264 171h-125v139h125v-139zM139 516h125v-142h-125v142zM139 725h125v-145h-125v145zM328 792h-189v86h-62v-773h251v687zM499 704l78 23
c-49 89 -128 177 -201 232c-15 -14 -46 -40 -66 -52c75 -49 147 -126 189 -203zM724 739l63 -35c66 64 138 152 171 211l-66 43c-32 -60 -104 -153 -168 -219z" />
</svg>
