<?xml version="1.0" standalone="no"?>
<!DOCTYPE svg PUBLIC "-//W3C//DTD SVG 1.1//EN" "http://www.w3.org/Graphics/SVG/1.1/DTD/svg11.dtd" >
<svg xmlns="http://www.w3.org/2000/svg" xmlns:xlink="http://www.w3.org/1999/xlink" version="1.1" viewBox="-10 0 1010 1000">
   <path fill="currentColor"
d="M275 171h-120v139h120v-139zM155 725h120v-145h-120v145zM155 374v142h120v-142h-120zM338 105v687h-183v86h-61v-773h244zM649 37l68 21c-6 12 -12 23 -17 35c62 100 171 207 269 266c-14 17 -29 47 -36 67c-95 -67 -198 -172 -268 -272c-64 106 -151 204 -249 280
c-10 -13 -34 -36 -49 -46c123 -91 228 -227 282 -351zM709 670v188h242v68h-563v-68h248v-188h-177v-66h177v-151h-145v-68h364v68h-146v151h181v66h-181z" />
</svg>
