<?xml version="1.0" standalone="no"?>
<!DOCTYPE svg PUBLIC "-//W3C//DTD SVG 1.1//EN" "http://www.w3.org/Graphics/SVG/1.1/DTD/svg11.dtd" >
<svg xmlns="http://www.w3.org/2000/svg" xmlns:xlink="http://www.w3.org/1999/xlink" version="1.1" viewBox="-10 0 1010 1000">
   <path fill="currentColor"
d="M947 93v68h-542v-68h542zM934 545l-62 29c-25 -52 -78 -130 -136 -197c44 -61 90 -137 113 -184l68 18c-30 51 -70 114 -104 164c47 56 97 125 121 170zM676 194l66 17c-28 50 -67 114 -100 163c44 57 90 126 113 170l-62 28c-22 -52 -72 -128 -127 -196
c42 -60 87 -135 110 -182zM580 548l-63 26c-22 -52 -69 -129 -121 -197c40 -61 83 -137 106 -184l66 17c-26 51 -66 115 -99 165c44 58 89 128 111 173zM259 171h-120v139h120v-139zM139 725h120v-145h-120v145zM139 374v142h120v-142h-120zM321 105v687h-182v86h-61v-773
h243zM707 864h250v67h-584v-67h258v-189h-201v-67h486v67h-209v189z" />
</svg>
