<?xml version="1.0" standalone="no"?>
<!DOCTYPE svg PUBLIC "-//W3C//DTD SVG 1.1//EN" "http://www.w3.org/Graphics/SVG/1.1/DTD/svg11.dtd" >
<svg xmlns="http://www.w3.org/2000/svg" xmlns:xlink="http://www.w3.org/1999/xlink" version="1.1" viewBox="-10 0 1010 1000">
   <path fill="currentColor"
d="M399 217h-207v62c0 19 -1 38 -2 58h209v-120zM470 396h-288c-12 65 -36 132 -84 185c-11 -13 -40 -35 -55 -43c70 -77 80 -182 80 -260v-119h163c-11 -27 -34 -68 -55 -98l62 -24c24 32 48 72 60 98l-56 24h173v237zM622 222l-1 2c24 49 56 93 97 131
c34 -38 61 -82 78 -133h-174zM733 650v-59h-464v59h464zM269 868h464v-60h-464v60zM269 699v60h464v-60h-464zM942 222h-71c-24 69 -57 127 -101 175c54 37 116 65 188 82c-16 14 -35 40 -45 59c-73 -22 -137 -54 -191 -95c-48 39 -105 71 -167 96h252v416h-74v-35h-464v37
h-71v-418h341c-9 -16 -27 -39 -40 -52c67 -21 124 -51 172 -89c-35 -34 -64 -74 -88 -118c-19 25 -39 49 -59 69c-10 -13 -37 -38 -53 -51c66 -62 127 -158 162 -254l69 19c-13 31 -27 64 -42 94h282v65z" />
</svg>
