<?xml version="1.0" standalone="no"?>
<!DOCTYPE svg PUBLIC "-//W3C//DTD SVG 1.1//EN" "http://www.w3.org/Graphics/SVG/1.1/DTD/svg11.dtd" >
<svg xmlns="http://www.w3.org/2000/svg" xmlns:xlink="http://www.w3.org/1999/xlink" version="1.1" viewBox="-10 0 1010 1000">
   <path fill="currentColor"
d="M814 212v-78h-302v78h302zM814 344v-79h-302v79h302zM885 79v320h-442v-320h442zM261 171h-122v139h122v-139zM139 725h122v-145h-122v145zM139 374v142h122v-142h-122zM324 105v687h-185v86h-61v-773h246zM954 525h-388c-11 24 -24 48 -37 71h398s-1 20 -1 31
c-13 199 -25 275 -49 302c-14 17 -30 24 -53 26c-20 1 -53 2 -88 -1c0 -19 -7 -45 -18 -63c33 3 64 4 76 4c14 0 21 -1 28 -10c14 -16 26 -76 36 -228h-69c-38 123 -103 230 -181 302c-10 -12 -33 -34 -48 -44c74 -62 129 -153 163 -258h-82c-53 115 -138 214 -228 280
c-10 -11 -31 -34 -45 -46c83 -55 158 -139 206 -234h-85c-34 46 -73 87 -113 119c-10 -12 -35 -36 -51 -47c68 -49 129 -123 168 -204h-118v-62h579v62z" />
</svg>
