<?xml version="1.0" standalone="no"?>
<!DOCTYPE svg PUBLIC "-//W3C//DTD SVG 1.1//EN" "http://www.w3.org/Graphics/SVG/1.1/DTD/svg11.dtd" >
<svg xmlns="http://www.w3.org/2000/svg" xmlns:xlink="http://www.w3.org/1999/xlink" version="1.1" viewBox="-10 0 1010 1000">
   <path fill="currentColor"
d="M819 280l-43 37c-26 -26 -66 -59 -111 -93c-43 38 -91 71 -140 99c-9 -11 -28 -27 -39 -36c48 -25 95 -59 136 -95c-42 -30 -87 -60 -128 -85l41 -33c40 24 84 53 126 82c30 -31 57 -64 76 -95l54 23c-23 36 -53 71 -86 103c46 33 86 67 114 93zM901 98v291h-490v-291h63
v233h362v-233h65zM719 431l40 -37c63 42 147 104 189 142l-41 43c-40 -39 -124 -104 -188 -148zM547 401l60 19c-49 63 -118 130 -191 168l-49 -46c66 -31 135 -85 180 -141zM272 171h-132v139h132v-139zM140 725h132v-145h-132v145zM140 374v142h132v-142h-132zM337 105
v687h-197v86h-63v-773h260zM783 644h-230c28 47 68 89 116 124c46 -34 86 -76 114 -124zM831 586l42 19c-33 82 -85 147 -150 199c70 39 152 67 242 84c-15 14 -33 38 -41 56c-95 -21 -181 -56 -254 -103c-82 52 -180 86 -282 109c-7 -17 -21 -41 -34 -55
c94 -17 186 -47 263 -92c-43 -36 -79 -76 -109 -121c-29 24 -62 45 -99 66c-10 -14 -31 -35 -45 -44c108 -55 180 -131 217 -198l69 10c-14 25 -30 48 -48 72h216z" />
</svg>
