<?xml version="1.0" standalone="no"?>
<!DOCTYPE svg PUBLIC "-//W3C//DTD SVG 1.1//EN" "http://www.w3.org/Graphics/SVG/1.1/DTD/svg11.dtd" >
<svg xmlns="http://www.w3.org/2000/svg" xmlns:xlink="http://www.w3.org/1999/xlink" version="1.1" viewBox="-10 0 1010 1000">
   <path fill="currentColor"
d="M870 55l43 57c-136 36 -348 57 -525 67c-2 -17 -10 -41 -17 -58c172 -11 382 -35 499 -66zM814 390l-55 -24c29 -53 65 -139 84 -199l71 26c-32 67 -68 146 -100 197zM695 334l-63 17c-5 -39 -22 -105 -39 -156l58 -14c18 49 38 115 44 153zM524 344l-60 20
c-9 -39 -32 -101 -56 -148l58 -16c25 45 51 105 58 144zM264 171h-120v139h120v-139zM144 725h120v-145h-120v145zM144 374v142h120v-142h-120zM327 105v687h-183v86h-61v-773h244zM686 667v181h151v-139h67v245h-67v-43h-438v-203h66v140h152v-181h-261v-64h261v-110h-125
c-22 33 -47 63 -70 86c-13 -10 -41 -30 -57 -40c51 -45 97 -110 124 -176l66 20c-7 16 -15 31 -24 47h385v63h-230v110h267v64h-267z" />
</svg>
