<?xml version="1.0" standalone="no"?>
<!DOCTYPE svg PUBLIC "-//W3C//DTD SVG 1.1//EN" "http://www.w3.org/Graphics/SVG/1.1/DTD/svg11.dtd" >
<svg xmlns="http://www.w3.org/2000/svg" xmlns:xlink="http://www.w3.org/1999/xlink" version="1.1" viewBox="-10 0 1010 1000">
   <path fill="currentColor"
d="M488 240v68h333v-68h-333zM488 128v66h333v-66h-333zM441 485v77h-66v-136h227c-7 -16 -16 -33 -25 -48l44 -17h-200v-286h470v286h-251c12 20 24 44 33 65h266v135h-67v-76h-431zM268 171h-128v139h128v-139zM140 725h128v-145h-128v145zM140 374v142h128v-142h-128z
M333 105v687h-193v86h-64v-773h257zM745 660h-165c-15 25 -29 51 -44 74c43 12 87 27 129 43c34 -32 61 -71 80 -117zM942 660h-129c-18 56 -46 103 -84 142c83 33 158 70 213 104l-57 51c-53 -35 -127 -74 -211 -108c-71 50 -166 83 -287 106c-6 -19 -20 -43 -32 -58
c103 -15 186 -39 249 -76c-52 -20 -108 -38 -164 -55c22 -30 46 -67 69 -106h-135v-59h168c16 -31 30 -63 42 -91l66 13c-11 25 -24 52 -38 78h330v59z" />
</svg>
