<?xml version="1.0" standalone="no"?>
<!DOCTYPE svg PUBLIC "-//W3C//DTD SVG 1.1//EN" "http://www.w3.org/Graphics/SVG/1.1/DTD/svg11.dtd" >
<svg xmlns="http://www.w3.org/2000/svg" xmlns:xlink="http://www.w3.org/1999/xlink" version="1.1" viewBox="-10 0 1010 1000">
   <path fill="currentColor"
d="M786 577l54 19c-18 51 -41 104 -66 145l100 -11c-11 -27 -24 -55 -36 -78l43 -18c27 48 55 113 64 151l-46 22c-2 -9 -5 -18 -8 -29c-134 18 -158 23 -172 30c-3 -12 -10 -41 -17 -54c11 -2 19 -14 28 -31c10 -17 42 -82 56 -146zM261 171h-122v139h122v-139zM139 516
h122v-142h-122v142zM139 725h122v-145h-122v145zM324 792h-185v86h-61v-773h246v687zM459 491h133c8 -38 13 -76 17 -114h-150v114zM459 206v112h155c3 -38 4 -77 5 -112h-160zM847 318v-112h-162c-1 36 -3 74 -6 112h168zM847 491v-114h-173c-4 38 -9 76 -16 114h189z
M733 884h135c27 0 33 -11 36 -76c14 10 39 20 58 24c-8 89 -27 114 -89 114h-146c-81 0 -102 -20 -102 -95v-228c-43 133 -120 252 -260 331c-9 -18 -30 -42 -47 -56c149 -79 223 -207 260 -346h-185v-408h195c13 -33 26 -73 34 -102l78 11c-14 31 -28 64 -42 91h257v408
h-226v300c0 27 7 32 44 32z" />
</svg>
