<?xml version="1.0" standalone="no"?>
<!DOCTYPE svg PUBLIC "-//W3C//DTD SVG 1.1//EN" "http://www.w3.org/Graphics/SVG/1.1/DTD/svg11.dtd" >
<svg xmlns="http://www.w3.org/2000/svg" xmlns:xlink="http://www.w3.org/1999/xlink" version="1.1" viewBox="-10 0 1010 1000">
   <path fill="currentColor"
d="M862 92l64 25c-32 41 -69 84 -98 112l-47 -21c27 -31 62 -82 81 -116zM941 343l-48 52c-43 -38 -125 -90 -198 -130c-35 57 -91 98 -187 127c-6 -17 -24 -43 -39 -55c169 -46 200 -131 210 -293h69c-4 64 -12 118 -27 164c76 40 170 96 220 135zM560 97l51 19
c-17 46 -43 101 -78 135l-49 -29c33 -30 62 -83 76 -125zM420 96l63 24c-31 40 -66 82 -93 111l-46 -22c25 -30 60 -80 76 -113zM152 100l49 19c-19 46 -44 100 -82 135l-48 -28c35 -31 64 -84 81 -126zM712 571h-428v65h428v-65zM284 745h428v-61h-428v61zM284 856h428v-63
h-428v63zM213 956v-438h572v435h-73v-44h-428v47h-71zM444 311l-48 47c-26 -25 -72 -59 -116 -86c-36 56 -94 97 -189 125h824v181h-70v-118h-690v118h-69v-180l-2 1c-6 -17 -24 -42 -37 -55c178 -46 210 -130 218 -301h68c-4 69 -11 126 -28 173c49 27 108 67 139 95z" />
</svg>
