<?xml version="1.0" standalone="no"?>
<!DOCTYPE svg PUBLIC "-//W3C//DTD SVG 1.1//EN" "http://www.w3.org/Graphics/SVG/1.1/DTD/svg11.dtd" >
<svg xmlns="http://www.w3.org/2000/svg" xmlns:xlink="http://www.w3.org/1999/xlink" version="1.1" viewBox="-10 0 1010 1000">
   <path fill="currentColor"
d="M230 167h-97v140h97v-140zM133 723h97v-147h-97v147zM133 371v142h97v-142h-97zM291 102v686h-158v87h-60v-773h218zM398 491v97h68v-97h-68zM398 345v97h68v-97h-68zM573 442v-97h-65v97h65zM573 588v-97h-65v97h65zM642 785h-126v172h-58v-172h-135v-60h135v-85h-111
v-346h111v-88h-129v-60h129v-103h58v103h125v60h-125v88h109v346h-109v85h126v60zM957 365v59h-68v533h-56v-533h-90v47c0 146 -13 345 -97 475c-9 -13 -32 -39 -44 -49c77 -121 85 -293 85 -426v-327h1c78 -17 170 -45 222 -75l34 52c-53 28 -131 52 -201 68v176h214z" />
</svg>
