<?xml version="1.0" standalone="no"?>
<!DOCTYPE svg PUBLIC "-//W3C//DTD SVG 1.1//EN" "http://www.w3.org/Graphics/SVG/1.1/DTD/svg11.dtd" >
<svg xmlns="http://www.w3.org/2000/svg" xmlns:xlink="http://www.w3.org/1999/xlink" version="1.1" viewBox="-10 0 1010 1000">
   <path fill="currentColor"
d="M259 171h-119v139h119v-139zM140 725h119v-145h-119v145zM140 374v142h119v-142h-119zM320 105v687h-180v86h-59v-773h239zM523 414v-69c-24 65 -70 135 -152 197c-9 -14 -27 -33 -39 -43c78 -52 118 -111 139 -168h-120c9 -47 17 -118 22 -173l55 3c-4 35 -9 75 -15 110
h73c5 -32 6 -61 6 -87v-48h-130v-55h271v55h-84v48c0 26 -2 55 -7 87h98v60h-66v114l74 -33c4 15 10 35 15 46c-114 56 -134 69 -146 81c-6 -15 -19 -41 -28 -52c12 -9 34 -32 34 -73zM832 635h-356v83h356v-83zM476 861h356v-89h-356v89zM410 957v-381h490v377h-68v-32
h-356v36h-66zM858 486h39c16 0 19 -7 21 -78c10 8 30 16 45 20c-4 89 -19 110 -58 110h-53c-48 0 -60 -14 -60 -69v-74c-27 53 -68 105 -130 153c-8 -13 -26 -32 -39 -42c77 -52 118 -114 140 -173h-119c10 -47 18 -118 23 -173l54 3c-4 35 -9 75 -15 110h72
c7 -38 8 -73 8 -103v-34h-128v-55h278v55h-94v34c0 30 -2 66 -9 103h115v60h-130c-2 9 -6 19 -9 27h34v108c0 16 2 18 15 18z" />
</svg>
