<?xml version="1.0" standalone="no"?>
<!DOCTYPE svg PUBLIC "-//W3C//DTD SVG 1.1//EN" "http://www.w3.org/Graphics/SVG/1.1/DTD/svg11.dtd" >
<svg xmlns="http://www.w3.org/2000/svg" xmlns:xlink="http://www.w3.org/1999/xlink" version="1.1" viewBox="-10 0 1010 1000">
   <path fill="currentColor"
d="M236 167h-97v140h97v-140zM139 723h97v-147h-97v147zM139 371v142h97v-142h-97zM300 102v686h-161v87h-64v-773h225zM614 545v338c0 34 -6 50 -32 61c-25 10 -66 11 -127 11c-3 -18 -11 -41 -20 -59c46 2 83 2 95 1c12 0 15 -4 15 -14v-88c-69 33 -138 68 -195 95
l-33 -54c59 -22 143 -60 228 -98v-137h-200v-56h269zM519 710l-46 36c-23 -28 -72 -72 -113 -103l44 -32c41 29 90 71 115 99zM792 448v-85h-297v85h297zM863 312v187h-436v-187h436zM924 545v337c0 35 -6 52 -34 62c-25 10 -68 11 -133 11c-3 -18 -12 -41 -21 -59
c50 2 90 2 102 1c13 0 17 -4 17 -15v-93c-71 34 -141 69 -200 96l-31 -54c59 -23 143 -60 231 -98v-132h-210v-56h279zM821 709l-47 36c-24 -28 -74 -70 -115 -100l44 -31c42 27 92 67 118 95zM518 210h267c-49 -25 -97 -54 -145 -87c-35 31 -77 61 -122 87zM637 36l63 25
c-6 7 -11 14 -17 20c89 60 189 101 290 132c-18 14 -41 38 -52 57c-42 -16 -83 -34 -124 -54v47h-298v-42c-43 23 -89 44 -134 61c-12 -17 -32 -39 -50 -53c126 -40 255 -113 322 -193z" />
</svg>
