<?xml version="1.0" standalone="no"?>
<!DOCTYPE svg PUBLIC "-//W3C//DTD SVG 1.1//EN" "http://www.w3.org/Graphics/SVG/1.1/DTD/svg11.dtd" >
<svg xmlns="http://www.w3.org/2000/svg" xmlns:xlink="http://www.w3.org/1999/xlink" version="1.1" viewBox="-10 0 1010 1000">
   <path fill="currentColor"
d="M518 244v-64h-151v-61h151v-74h65v74h150v-74h66v74h154v61h-154v64h-66v-64h-150v64h-65zM254 171h-116v139h116v-139zM138 516h116v-142h-116v142zM138 725h116v-145h-116v145zM318 792h-180v86h-62v-773h242v687zM783 472h-93c1 30 4 60 8 87h154
c-26 -20 -68 -42 -102 -58zM614 316v103h98v-103h-98zM559 419v-103h-94v103h94zM767 316v103h99v-103h-99zM832 643l60 17c-29 55 -69 105 -116 149c33 56 71 87 107 86c20 0 28 -26 32 -96c14 13 34 24 51 28c-11 101 -33 131 -87 131c-56 0 -108 -40 -151 -108
c-47 38 -99 71 -152 97c-10 -12 -31 -37 -45 -48c60 -26 118 -60 169 -101c-24 -51 -43 -112 -56 -180h-180v20c0 19 -1 40 -3 61l20 -19c48 24 107 64 135 94l-40 45c-25 -28 -73 -63 -118 -90c-10 78 -35 163 -92 229c-12 -12 -42 -31 -57 -39c75 -87 88 -201 88 -281v-79
h237c-4 -28 -7 -57 -9 -87h-222v-209h527v209h-132c38 16 82 40 105 58l-31 29h72v59h-236c10 51 25 97 41 136c34 -33 62 -70 83 -111z" />
</svg>
