<?xml version="1.0" standalone="no"?>
<!DOCTYPE svg PUBLIC "-//W3C//DTD SVG 1.1//EN" "http://www.w3.org/Graphics/SVG/1.1/DTD/svg11.dtd" >
<svg xmlns="http://www.w3.org/2000/svg" xmlns:xlink="http://www.w3.org/1999/xlink" version="1.1" viewBox="-10 0 1010 1000">
   <path fill="currentColor"
d="M878 55l29 58c-141 26 -368 42 -550 45c-1 -17 -9 -41 -16 -56c183 -6 409 -23 537 -47zM420 327v82h102v-82h-102zM577 327v82h106v-82h-106zM738 327v82h109v-82h-109zM363 461v-185h259c-8 -29 -27 -75 -49 -107l54 -19c23 34 44 78 51 107l-50 19h128
c24 -39 50 -91 65 -130l65 22c-20 36 -43 76 -65 108h85v185h-543zM392 180l53 -20c21 28 40 65 47 90l-55 23c-5 -26 -25 -65 -45 -93zM242 167h-107v140h107v-140zM135 723h107v-147h-107v147zM135 371v142h107v-142h-107zM301 102v686h-166v87h-60v-773h226zM560 542
h-153v46h153v-46zM407 677h153v-46h-153v46zM479 756l49 -21c41 57 86 132 107 181l-52 26c-8 -18 -19 -42 -33 -66c-165 65 -190 75 -207 90c-4 -17 -17 -48 -26 -65c13 -6 30 -20 30 -56v-347h272v224h-212v147l116 -42c-15 -25 -30 -49 -44 -71zM954 578v58h-73v249
c0 35 -6 51 -30 62c-23 11 -58 11 -110 11c-3 -17 -14 -43 -23 -60c39 1 76 1 86 0c11 0 14 -3 14 -14v-248h-175v-58h175v-95h63v95h73zM783 806l-52 24c-10 -38 -39 -96 -70 -138l48 -21c33 42 62 96 74 135z" />
</svg>
