<?xml version="1.0" standalone="no"?>
<!DOCTYPE svg PUBLIC "-//W3C//DTD SVG 1.1//EN" "http://www.w3.org/Graphics/SVG/1.1/DTD/svg11.dtd" >
<svg xmlns="http://www.w3.org/2000/svg" xmlns:xlink="http://www.w3.org/1999/xlink" version="1.1" viewBox="-10 0 1010 1000">
   <path fill="currentColor"
d="M387 387l11 -3l44 14c-17 69 -42 148 -68 198l-52 -21c15 -32 30 -77 41 -122h-71v413c0 37 -7 56 -33 68c-24 12 -62 13 -123 13c-3 -20 -13 -48 -23 -68c43 1 83 1 94 1c12 0 16 -4 16 -15v-307c-40 100 -94 196 -153 254c-8 -22 -26 -49 -38 -67
c65 -66 130 -181 168 -292h-154v-66h199c-36 -38 -89 -83 -136 -117l45 -41c24 15 48 33 72 53c35 -38 73 -86 101 -129h-266v-64h313l12 -4l50 35c-41 65 -108 144 -163 203c17 16 32 32 43 45l-20 19h91zM761 635l-56 47c-36 -61 -118 -153 -193 -216l52 -44
c75 63 160 151 197 213zM931 228v38c-14 448 -26 598 -63 646c-22 28 -44 36 -79 40c-33 3 -90 2 -144 -1c-2 -21 -11 -51 -24 -71c62 5 119 5 142 5c19 1 29 -2 40 -15c31 -33 44 -182 55 -573h-298c-20 42 -42 79 -64 111c-14 -11 -45 -32 -63 -42
c63 -78 112 -200 140 -322l73 15c-15 58 -35 115 -56 169h341z" />
</svg>
