<?xml version="1.0" standalone="no"?>
<!DOCTYPE svg PUBLIC "-//W3C//DTD SVG 1.1//EN" "http://www.w3.org/Graphics/SVG/1.1/DTD/svg11.dtd" >
<svg xmlns="http://www.w3.org/2000/svg" xmlns:xlink="http://www.w3.org/1999/xlink" version="1.1" viewBox="-10 0 1010 1000">
   <path fill="currentColor"
d="M892 188l-51 42c-26 -41 -85 -100 -137 -139l48 -38c52 38 113 93 140 135zM323 764v-295h-124v295h124zM420 165h-153c-17 83 -40 164 -68 238h193v428h-193v81h-68v-364c-18 30 -36 58 -57 82c-5 -16 -23 -59 -36 -78c75 -94 125 -235 154 -387h-130v-69h358v69z
M845 403l57 33c-39 101 -98 202 -169 290c32 89 72 144 118 148c25 1 41 -55 50 -161c14 14 45 31 58 37c-21 162 -59 211 -105 209c-75 -4 -133 -65 -177 -170c-58 61 -123 112 -190 149c-13 -18 -36 -41 -57 -53c80 -40 155 -99 221 -170c-30 -94 -52 -209 -66 -340
l-174 18l-8 -68l174 -18c-8 -81 -14 -168 -18 -257h71c4 86 9 171 18 249l278 -28l8 66l-279 30c13 107 31 202 52 280c58 -75 106 -159 138 -244z" />
</svg>
