<?xml version="1.0" standalone="no"?>
<!DOCTYPE svg PUBLIC "-//W3C//DTD SVG 1.1//EN" "http://www.w3.org/Graphics/SVG/1.1/DTD/svg11.dtd" >
<svg xmlns="http://www.w3.org/2000/svg" xmlns:xlink="http://www.w3.org/1999/xlink" version="1.1" viewBox="-10 0 1010 1000">
   <path fill="currentColor"
d="M287 764v-295h-108v295h108zM182 403h167v428h-170v80h-61v-359c-16 29 -32 56 -50 79c-4 -18 -21 -59 -32 -79c69 -95 112 -235 138 -387h-118v-69h321v69h-135c-15 83 -35 164 -60 238zM690 701v157h267v67h-583v-67h247v-157h-203v-67h203v-117l-44 39
c-17 -38 -54 -114 -83 -171c-22 77 -53 143 -95 194c-10 -10 -35 -33 -50 -43c79 -93 110 -240 124 -410l63 4c-5 62 -13 121 -24 176c24 37 85 147 109 192v-455h69v465c74 -90 103 -226 118 -383l64 5c-7 68 -16 131 -30 189c34 50 106 164 124 193l-53 48
c-17 -38 -59 -110 -92 -166c-22 65 -50 122 -90 168c-8 -10 -26 -30 -41 -41v113h217v67h-217z" />
</svg>
