<?xml version="1.0" standalone="no"?>
<!DOCTYPE svg PUBLIC "-//W3C//DTD SVG 1.1//EN" "http://www.w3.org/Graphics/SVG/1.1/DTD/svg11.dtd" >
<svg xmlns="http://www.w3.org/2000/svg" xmlns:xlink="http://www.w3.org/1999/xlink" version="1.1" viewBox="-10 0 1010 1000">
   <path fill="currentColor"
d="M281 764v-295h-101v295h101zM361 164h-115c-16 83 -37 164 -63 239h159v428h-162v80h-61v-360c-16 29 -33 56 -52 80c-5 -17 -22 -59 -34 -79c70 -94 116 -236 143 -388h-122v-68h307v68zM679 430v76h144v-76h-144zM679 305v71h144v-71h-144zM749 691h-169
c-12 18 -24 34 -35 49c44 12 91 25 136 40c30 -24 53 -54 68 -89zM886 563h-233c-10 22 -23 46 -37 69h337v59h-134c-17 44 -41 81 -73 112c78 28 151 60 202 91l-52 50c-50 -32 -125 -66 -208 -97c-80 50 -184 77 -297 95c-5 -16 -21 -45 -31 -60c96 -11 184 -28 254 -61
c-57 -19 -115 -35 -169 -48l1 -1c20 -23 41 -51 62 -81h-123v-59h161c14 -23 28 -47 40 -69h-156v-57h182v-76h-222v-54h222v-71h-178v-56h178v-62h-222v-61h222v-78h67v78h268v61h-268v62h207v125h70v60h-70v129z" />
</svg>
