<?xml version="1.0" standalone="no"?>
<!DOCTYPE svg PUBLIC "-//W3C//DTD SVG 1.1//EN" "http://www.w3.org/Graphics/SVG/1.1/DTD/svg11.dtd" >
<svg xmlns="http://www.w3.org/2000/svg" xmlns:xlink="http://www.w3.org/1999/xlink" version="1.1" viewBox="-10 0 1010 1000">
   <path fill="currentColor"
d="M534 287v-85h-144v-67h144v-91h65v91h136v-92h65v92h150v67h-150v86h-65v-86h-136v85h-65zM293 764v-295h-113v295h113zM54 165v-69h323v69h-131c-15 83 -36 164 -62 238h171v428h-175v80h-61v-360c-16 29 -33 56 -52 80c-5 -18 -22 -60 -34 -79
c70 -94 116 -235 143 -387h-122zM525 732v119h282v-119h-282zM807 383h-282v109h282v-109zM807 668v-111h-282v111h282zM872 851h82v69h-574v-69h82v-535h410v535z" />
</svg>
