<?xml version="1.0" standalone="no"?>
<!DOCTYPE svg PUBLIC "-//W3C//DTD SVG 1.1//EN" "http://www.w3.org/Graphics/SVG/1.1/DTD/svg11.dtd" >
<svg xmlns="http://www.w3.org/2000/svg" xmlns:xlink="http://www.w3.org/1999/xlink" version="1.1" viewBox="-10 0 1010 1000">
   <path fill="currentColor"
d="M293 764v-295h-115v295h115zM53 165v-69h317v69h-129c-15 83 -36 164 -61 238h174v428h-176v80h-61v-360c-16 28 -32 56 -51 80c-5 -17 -22 -59 -32 -79c68 -94 113 -235 140 -387h-121zM820 737h-132v197h-61v-197h-128v-53h93c-14 -35 -47 -87 -78 -125l47 -19
c33 37 67 89 81 124l-45 20h74c29 -42 61 -101 80 -142l56 22c-24 40 -51 84 -77 120h90v53zM922 467v415c0 34 -7 51 -31 63c-22 11 -59 12 -113 12c-3 -19 -11 -44 -20 -63c38 2 70 2 81 1c11 0 14 -3 14 -14v-356h-380v432h-68v-490h517zM798 357v-94h-269v94h269z
M869 209v202h-407v-202h407zM397 88h544v65h-544v-65z" />
</svg>
