<?xml version="1.0" standalone="no"?>
<!DOCTYPE svg PUBLIC "-//W3C//DTD SVG 1.1//EN" "http://www.w3.org/Graphics/SVG/1.1/DTD/svg11.dtd" >
<svg xmlns="http://www.w3.org/2000/svg" xmlns:xlink="http://www.w3.org/1999/xlink" version="1.1" viewBox="-10 0 1010 1000">
   <path fill="currentColor"
d="M254 770v-312h-85v312h85zM310 830h-141v82h-56v-339c-15 33 -30 63 -48 91c-6 -16 -23 -51 -34 -68c65 -106 102 -265 122 -434h-104v-62h282v62h-114c-12 81 -26 161 -45 235h138v433zM450 403h131s-1 22 -1 30c-12 337 -21 450 -45 483c-13 19 -28 26 -48 28
c-16 3 -40 3 -63 1c-1 -18 -6 -44 -14 -61c23 3 42 3 53 3c10 1 16 -2 23 -13c16 -23 27 -124 36 -412h-75c-11 208 -40 386 -131 499c-10 -14 -31 -34 -46 -44c109 -132 121 -377 125 -645h-62v-60h143c-14 -37 -48 -94 -79 -136l50 -22c34 40 68 96 83 133l-49 25h115v60
h-143c-1 45 -2 88 -3 131zM807 652v220c22 7 45 10 70 10c14 0 70 0 91 -1c-9 16 -18 46 -20 63h-76c-89 0 -160 -28 -209 -149c-12 64 -32 121 -61 165c-10 -15 -30 -36 -46 -45c60 -87 73 -244 76 -404h57c-2 58 -4 114 -9 168c16 75 40 124 69 155v-418h-123v-52
c-14 -10 -35 -24 -48 -31c46 -72 77 -181 93 -290l63 11c-7 42 -15 85 -26 125h238v61h-257c-14 43 -30 83 -48 116h263l10 -3l40 11c-13 60 -27 129 -42 173l-49 -13c7 -29 15 -69 22 -108h-78v177h126v59h-126z" />
</svg>
