<?xml version="1.0" standalone="no"?>
<!DOCTYPE svg PUBLIC "-//W3C//DTD SVG 1.1//EN" "http://www.w3.org/Graphics/SVG/1.1/DTD/svg11.dtd" >
<svg xmlns="http://www.w3.org/2000/svg" xmlns:xlink="http://www.w3.org/1999/xlink" version="1.1" viewBox="-10 0 1010 1000">
   <path fill="currentColor"
d="M264 770v-312h-91v312h91zM51 162v-62h288v62h-119c-12 81 -26 161 -45 235h145v433h-147v81h-57v-341c-15 34 -32 66 -51 94c-6 -16 -23 -52 -34 -68c67 -106 104 -266 125 -434h-105zM430 522h130s0 20 -1 28c-12 239 -23 324 -47 353c-15 18 -30 25 -54 27
c-20 2 -53 2 -87 0c-1 -19 -8 -44 -18 -61c36 4 70 4 83 4c14 0 22 -2 29 -11c17 -18 27 -92 37 -284h-132c9 -74 16 -192 19 -281h118v-161h-139v-57h194v276h-118c-4 57 -9 117 -14 167zM652 482v158h73v-158h-73zM855 640v-158h-78v158h78zM673 138v126h160v-126h-160z
M955 926l-56 20c-3 -16 -7 -35 -13 -55c-115 11 -228 22 -316 30l-8 -68c43 -2 98 -5 158 -9v-145h-122v-276h121v-100h-107v-245h285v245h-115v100h128v276h-127v141l84 -5c-10 -32 -23 -64 -36 -91l52 -17c32 62 61 145 72 199z" />
</svg>
