<?xml version="1.0" standalone="no"?>
<!DOCTYPE svg PUBLIC "-//W3C//DTD SVG 1.1//EN" "http://www.w3.org/Graphics/SVG/1.1/DTD/svg11.dtd" >
<svg xmlns="http://www.w3.org/2000/svg" xmlns:xlink="http://www.w3.org/1999/xlink" version="1.1" viewBox="-10 0 1010 1000">
   <path fill="currentColor"
d="M799 461l-28 34c-33 -17 -79 -40 -129 -62c-48 24 -96 46 -139 62c-8 -8 -25 -25 -35 -32c40 -15 84 -32 126 -50c-37 -16 -76 -31 -111 -42l29 -30c41 13 87 31 131 49c39 -18 75 -38 105 -56l41 19c-30 19 -64 37 -100 56c43 18 82 37 110 52zM271 770v-312h-98v312h98
zM839 501v-173h-403v173h403zM355 166h-120c-15 82 -34 160 -59 231h153v433h-156v81h-60v-369c-16 29 -33 55 -52 78c-6 -15 -22 -53 -33 -69c70 -93 115 -233 142 -385h-118v-66h308v53c39 -37 76 -78 99 -108l64 20c-29 32 -62 67 -94 95c40 33 81 71 103 99l-40 17h175
c-27 -33 -75 -76 -128 -116c44 -39 88 -84 115 -115l65 21c-31 31 -66 65 -98 92c42 31 83 68 107 95l-52 23h190c-31 -32 -82 -75 -137 -114c48 -39 98 -86 126 -117l67 22c-35 32 -73 65 -108 93c45 32 91 70 117 97l-41 19h16v278h-534v-278h94
c-24 -31 -65 -72 -111 -110zM678 650l24 -39c30 14 72 34 95 48l-24 43c-23 -16 -64 -39 -95 -52zM673 753l25 -37c31 14 72 36 95 51l-25 42c-23 -15 -65 -41 -95 -56zM473 649l24 -39c31 14 72 37 95 50l-25 43c-22 -15 -64 -40 -94 -54zM470 755l24 -39
c31 16 72 38 95 53l-26 43c-22 -16 -64 -42 -93 -57zM451 875l114 -30c-1 18 0 42 3 55c-138 42 -162 52 -175 63c-5 -15 -21 -40 -30 -52c12 -9 28 -28 28 -69v-263h60v296zM667 876l131 -35c-1 18 0 42 2 55c-151 47 -176 57 -191 68c-5 -14 -20 -40 -30 -51
c12 -9 28 -29 28 -71v-262h60v296zM804 579h62c-1 180 17 310 42 310c8 0 16 -24 19 -75c12 11 31 24 42 29c-11 86 -33 115 -58 115c-76 -1 -105 -171 -107 -379z" />
</svg>
