<?xml version="1.0" standalone="no"?>
<!DOCTYPE svg PUBLIC "-//W3C//DTD SVG 1.1//EN" "http://www.w3.org/Graphics/SVG/1.1/DTD/svg11.dtd" >
<svg xmlns="http://www.w3.org/2000/svg" xmlns:xlink="http://www.w3.org/1999/xlink" version="1.1" viewBox="-10 0 1010 1000">
   <path fill="currentColor"
d="M259 764v-295h-98v295h98zM314 831h-153v80h-55v-360c-14 29 -28 56 -45 80c-4 -18 -19 -60 -29 -79c61 -94 100 -235 125 -387h-106v-69h279v69h-113c-14 83 -32 164 -54 238h151v428zM545 529v-131c-27 50 -58 97 -86 126c-7 -10 -18 -21 -28 -31
c-4 147 -21 331 -83 462c-11 -10 -37 -27 -51 -33c69 -149 75 -356 75 -504v-291h269c-8 -24 -18 -50 -26 -72l60 -12c13 26 26 59 35 84h247v59h-525v232c0 18 0 37 -1 56c38 -37 82 -100 110 -159h-90v-48h94v-66h49v66h82v48h-82v11c27 24 77 72 92 87l-32 44
c-12 -16 -36 -45 -60 -71v143h-49zM599 590v-55h58v421h-58v-120h-147v-47h147v-53h-127v-47h127v-51h-134v-48h134zM786 736v54h153v49h-153v118h-58v-422h58v55h135v48h-135v51h127v47h-127zM937 318h-101c32 53 83 113 124 143c-10 10 -26 28 -35 40
c-30 -26 -66 -70 -95 -115v141h-48v-136c-30 49 -67 96 -99 125c-9 -14 -24 -31 -35 -41c45 -33 97 -96 129 -157h-81v-48h86v-67h48v67h107v48z" />
</svg>
