<?xml version="1.0" standalone="no"?>
<!DOCTYPE svg PUBLIC "-//W3C//DTD SVG 1.1//EN" "http://www.w3.org/Graphics/SVG/1.1/DTD/svg11.dtd" >
<svg xmlns="http://www.w3.org/2000/svg" xmlns:xlink="http://www.w3.org/1999/xlink" version="1.1" viewBox="-10 0 1010 1000">
   <path fill="currentColor"
d="M334 180l-64 26c-12 -32 -39 -84 -65 -121l60 -23c28 35 57 85 69 118zM281 716l67 21c-47 76 -127 150 -197 197c-12 -12 -41 -34 -56 -45c71 -42 144 -106 186 -173zM863 690h-312v182c0 39 -8 56 -38 66c-29 10 -73 11 -143 11c-5 -20 -15 -45 -25 -63
c52 1 100 1 114 0c14 0 18 -4 18 -15v-181h-319v-62h705v62zM644 748l55 -36c68 51 154 125 196 175l-60 41c-39 -50 -122 -126 -191 -180zM946 414h-247c66 72 163 132 262 161c-16 15 -37 41 -47 60c-78 -28 -154 -75 -216 -133v53h-389v-57h385c-27 -26 -52 -55 -72 -84
h-241c-73 97 -170 176 -298 232c-8 -16 -28 -43 -42 -57c104 -43 185 -103 250 -175h-235v-63h284c17 -25 34 -52 48 -79h-267v-63h296c23 -53 40 -110 53 -168l73 14c-13 53 -29 105 -48 154h195l-52 -21c27 -35 60 -91 78 -130l72 26c-28 46 -61 92 -88 125h184v63h-417
c-14 27 -27 54 -43 79h522v63z" />
</svg>
