<?xml version="1.0" standalone="no"?>
<!DOCTYPE svg PUBLIC "-//W3C//DTD SVG 1.1//EN" "http://www.w3.org/Graphics/SVG/1.1/DTD/svg11.dtd" >
<svg xmlns="http://www.w3.org/2000/svg" xmlns:xlink="http://www.w3.org/1999/xlink" version="1.1" viewBox="-10 0 1010 1000">
   <path fill="currentColor"
d="M942 236l-60 28c-20 -44 -66 -116 -107 -168l57 -23c41 51 88 119 110 163zM272 173l-58 39c-16 -36 -51 -90 -83 -129l54 -35c35 38 71 90 87 125zM374 578l-47 60c-15 -24 -47 -66 -75 -103v421h-70v-399c-37 41 -75 77 -113 107c-6 -21 -22 -58 -33 -72
c94 -67 192 -187 248 -309h-228v-68h264l14 -3l39 27c-26 75 -65 148 -110 214c33 34 96 106 111 125zM860 444l65 16c-36 102 -82 197 -137 279c22 95 50 150 85 150c19 -1 28 -43 32 -150c14 16 36 30 53 37c-12 139 -31 182 -94 182c-57 0 -97 -55 -127 -148
c-39 50 -83 95 -130 132c-10 -13 -33 -40 -47 -53c58 -43 111 -97 157 -161c-18 -88 -29 -199 -36 -322h-132v166l104 -25l6 64l-110 28v228c0 44 -10 63 -36 76c-28 12 -73 14 -140 14c-3 -19 -13 -50 -23 -71c51 1 97 1 111 0c14 0 19 -4 19 -19v-211
c-39 11 -75 19 -109 27l-15 -68c35 -7 78 -17 124 -28v-181h-117v-68h117v-152c-34 9 -68 19 -102 27c-4 -15 -13 -38 -22 -53c93 -24 200 -63 256 -100l57 51c-34 19 -76 36 -120 52v175h128c-4 -90 -5 -189 -6 -290h69c-1 103 1 201 5 290h201v68h-198c6 90 14 170 24 239
c35 -62 65 -129 88 -201z" />
</svg>
