<?xml version="1.0" standalone="no"?>
<!DOCTYPE svg PUBLIC "-//W3C//DTD SVG 1.1//EN" "http://www.w3.org/Graphics/SVG/1.1/DTD/svg11.dtd" >
<svg xmlns="http://www.w3.org/2000/svg" xmlns:xlink="http://www.w3.org/1999/xlink" version="1.1" viewBox="-10 0 1010 1000">
   <path fill="currentColor"
d="M265 173l-57 39c-14 -36 -48 -90 -80 -129l52 -34c34 37 69 89 85 124zM447 708l66 20c-34 61 -82 136 -119 184c-14 -11 -41 -30 -57 -38c39 -46 81 -110 110 -166zM913 658h-225v220c0 37 -7 55 -34 66c-26 12 -67 12 -126 12c-3 -20 -14 -46 -24 -65c48 1 85 1 97 0
c14 0 16 -4 16 -14v-219h-220v-62h516v62zM775 733l58 -29c42 54 97 127 124 170l-60 37c-25 -45 -79 -122 -122 -178zM507 442h290c-64 -78 -109 -182 -140 -301c-29 123 -84 224 -150 301zM875 183h-144c17 51 38 99 62 141c32 -39 61 -93 82 -141zM917 125l42 25
c-30 81 -80 168 -131 226c39 52 88 95 145 122c-15 13 -34 37 -43 55c-43 -24 -82 -54 -115 -91v41h-320v-47c-36 39 -75 71 -116 96c-8 -14 -25 -34 -38 -46c43 -25 84 -59 122 -103c-23 -20 -52 -42 -78 -60l31 -31c25 15 53 35 76 54c16 -21 30 -43 43 -65
c-23 -18 -53 -37 -77 -51l27 -35c23 12 49 27 72 41c13 -27 23 -56 32 -85h-109c-33 65 -74 122 -119 165c-6 -8 -20 -25 -32 -36c-22 53 -50 105 -80 153c33 36 100 116 117 137l-46 60c-16 -26 -51 -74 -81 -116v422h-66v-397c-33 40 -68 76 -102 105
c-6 -21 -22 -58 -32 -72c87 -68 177 -188 227 -309h-212v-68h247l14 -3l37 27c-3 10 -7 18 -10 28c56 -59 101 -138 127 -223l60 14c-7 21 -15 41 -24 62h105l11 -2l35 13c-5 -18 -9 -36 -13 -56l58 -11c4 22 9 44 14 65h189z" />
</svg>
