<?xml version="1.0" standalone="no"?>
<!DOCTYPE svg PUBLIC "-//W3C//DTD SVG 1.1//EN" "http://www.w3.org/Graphics/SVG/1.1/DTD/svg11.dtd" >
<svg xmlns="http://www.w3.org/2000/svg" xmlns:xlink="http://www.w3.org/1999/xlink" version="1.1" viewBox="-10 0 1010 1000">
   <path fill="currentColor"
d="M110 246l300 -21v-35l-262 19l-5 -38l267 -19v-37c-73 5 -149 8 -217 9c-1 -11 -7 -26 -13 -37c171 -7 387 -22 506 -42l26 40c-63 10 -146 19 -234 25v37l299 -21l5 39l-304 21v35l348 -24l6 39l-354 25v2c0 24 11 29 75 29h234c42 0 50 -7 54 -48c16 8 40 13 58 16
c-6 59 -29 74 -105 74h-1l32 35c-35 9 -81 17 -129 24v34l161 -16l6 39l-167 16v37l193 -18l8 40l-201 18v17c0 21 5 24 40 24h120c25 0 30 -7 33 -53c15 8 39 15 58 19c-7 64 -26 80 -83 80h-136c-78 0 -99 -13 -99 -70v-11l-138 13l-8 -40l146 -13v-36l-132 13l-6 -39
l138 -14v-33c-38 4 -77 7 -112 8c-2 -11 -9 -26 -16 -38c94 -6 210 -19 278 -36h-229c-107 0 -139 -12 -140 -69l-295 21zM188 707v-48h627v48h-627zM63 523l156 -15v-38l-127 12l-6 -39l133 -13v-34c-37 4 -74 7 -108 9c-3 -10 -10 -26 -15 -38c98 -10 221 -25 291 -44
l30 39c-36 10 -83 19 -132 25v38l154 -15l5 39l-159 15v38l172 -17l6 42l-178 16v38l176 -21c-2 14 -2 32 -1 43c-199 28 -228 32 -246 40c-5 -10 -20 -31 -31 -40c13 -8 34 -22 36 -53l-149 14zM276 797l65 21c-55 48 -145 98 -217 128c-10 -12 -32 -37 -46 -49
c69 -25 150 -62 198 -100zM647 841l38 -42c76 26 176 69 228 99l-40 47c-50 -30 -150 -75 -226 -104zM56 789v-47h884v47h-397v98c0 33 -7 47 -37 56c-29 9 -76 8 -148 8c-4 -17 -14 -36 -24 -52c58 2 103 1 118 1c14 -1 18 -4 18 -14v-97h-414z" />
</svg>
