<?xml version="1.0" standalone="no"?>
<!DOCTYPE svg PUBLIC "-//W3C//DTD SVG 1.1//EN" "http://www.w3.org/Graphics/SVG/1.1/DTD/svg11.dtd" >
<svg xmlns="http://www.w3.org/2000/svg" xmlns:xlink="http://www.w3.org/1999/xlink" version="1.1" viewBox="-10 0 1010 1000">
   <path fill="currentColor"
d="M403 585l-45 60c-15 -30 -51 -91 -82 -140v450h-71v-434c-38 100 -87 197 -135 257c-8 -21 -27 -53 -38 -71c60 -71 127 -199 164 -314h-151v-70h160v-150c-44 9 -89 17 -130 22c-3 -15 -13 -41 -21 -57c106 -18 231 -47 302 -80l43 59c-35 15 -78 28 -123 39v167h119v70
h-119v26c28 34 108 139 127 166zM946 287h-309c-2 50 -4 101 -8 151h273s0 25 -1 35c-13 299 -25 406 -55 442c-18 23 -37 30 -66 33c-26 3 -76 2 -125 -1c-2 -22 -10 -51 -21 -71c50 5 98 5 117 5c17 1 26 -1 35 -12c20 -22 33 -117 44 -361h-207c-21 184 -74 348 -213 451
c-10 -17 -31 -41 -49 -52c182 -128 199 -372 205 -620h-135v-71h239c-8 -41 -27 -101 -46 -148l63 -17c22 50 44 115 52 155l-31 10h238v71z" />
</svg>
