<?xml version="1.0" standalone="no"?>
<!DOCTYPE svg PUBLIC "-//W3C//DTD SVG 1.1//EN" "http://www.w3.org/Graphics/SVG/1.1/DTD/svg11.dtd" >
<svg xmlns="http://www.w3.org/2000/svg" xmlns:xlink="http://www.w3.org/1999/xlink" version="1.1" viewBox="-10 0 1010 1000">
   <path fill="currentColor"
d="M921 177l-57 34c-18 -36 -63 -88 -104 -124l54 -32c42 35 87 86 107 122zM261 150v178h116v70h-116v31c25 32 92 125 107 150l-41 61c-12 -29 -41 -83 -66 -126v444h-67v-449c-34 105 -80 211 -125 275c-7 -21 -24 -53 -36 -72c54 -71 111 -201 143 -314h-123v-70h141
v-161c-38 9 -76 16 -112 22c-3 -17 -11 -42 -19 -59c93 -18 202 -47 266 -79l42 60c-33 15 -70 28 -110 39zM659 579h-96c-6 111 -32 237 -124 330c-12 -12 -36 -32 -51 -41c78 -84 102 -194 108 -289h-88v-69h90v-155h67v155h94v69zM868 360l59 13
c-31 131 -77 250 -139 349c22 91 53 149 92 158c17 4 30 -56 37 -149c14 15 38 33 56 42c-17 154 -64 202 -124 171c-48 -15 -84 -69 -111 -152c-56 70 -122 127 -198 167c-10 -18 -32 -43 -48 -56c90 -41 163 -108 223 -192c-24 -112 -40 -257 -50 -416h-274v-69h271
c-3 -60 -6 -121 -8 -182h71c1 61 3 122 6 182h223v69h-220c7 123 18 238 34 332c43 -81 76 -172 100 -267z" />
</svg>
