<?xml version="1.0" standalone="no"?>
<!DOCTYPE svg PUBLIC "-//W3C//DTD SVG 1.1//EN" "http://www.w3.org/Graphics/SVG/1.1/DTD/svg11.dtd" >
<svg xmlns="http://www.w3.org/2000/svg" xmlns:xlink="http://www.w3.org/1999/xlink" version="1.1" viewBox="-10 0 1010 1000">
   <path fill="currentColor"
d="M248 151v177h107v70h-107v64c23 31 81 123 94 147l-39 60c-10 -27 -33 -76 -55 -118v407h-63v-437c-34 101 -78 201 -122 264c-6 -23 -22 -54 -33 -73c53 -71 112 -200 144 -314h-125v-70h136v-160c-37 10 -75 17 -111 23c-4 -17 -12 -42 -19 -60c89 -17 194 -47 254 -79
l40 61c-30 14 -64 26 -101 38zM386 164v-65h305v65h-147c-6 47 -13 92 -21 136h100l11 -2l37 9c-24 324 -107 540 -236 652c-10 -16 -28 -41 -42 -52c65 -52 119 -141 157 -258c-25 -28 -57 -62 -85 -87l33 -48c23 19 50 44 72 67c17 -65 30 -138 38 -216h-97
c-25 111 -57 209 -101 283c-10 -10 -36 -32 -50 -40c67 -107 103 -270 122 -444h-96zM775 169v561h-61v-561h61zM859 45h62v819c0 41 -9 60 -32 71c-24 12 -64 14 -125 13c-4 -17 -13 -47 -21 -66c45 2 85 1 98 1s18 -4 18 -18v-820z" />
</svg>
