<?xml version="1.0" standalone="no"?>
<!DOCTYPE svg PUBLIC "-//W3C//DTD SVG 1.1//EN" "http://www.w3.org/Graphics/SVG/1.1/DTD/svg11.dtd" >
<svg xmlns="http://www.w3.org/2000/svg" xmlns:xlink="http://www.w3.org/1999/xlink" version="1.1" viewBox="-10 0 1010 1000">
   <path fill="currentColor"
d="M557 140v78c0 92 -21 207 -130 281c-10 -13 -38 -37 -52 -47c98 -67 113 -160 113 -235v-141h333v294c0 20 0 33 5 37c3 4 9 5 15 5h27c9 0 16 -1 20 -5c4 -3 9 -10 11 -23c2 -16 3 -50 3 -93c14 13 38 25 57 30c-1 42 -5 90 -10 106c-5 18 -15 29 -28 36
c-12 6 -32 9 -47 9h-48c-20 0 -41 -5 -55 -18c-14 -12 -19 -28 -19 -89v-225h-195zM557 247l48 -40c51 30 115 78 145 114l-50 45c-29 -36 -91 -86 -143 -119zM60 446l-15 -68c47 -7 106 -17 172 -28v-187h-141v-64h352v64h-140v175l144 -24l4 61zM937 720h-345
c91 68 238 125 364 152c-14 14 -34 41 -45 60c-127 -35 -280 -104 -376 -186v209h-74v-208c-95 84 -243 151 -370 186c-11 -19 -30 -45 -45 -60c126 -27 270 -84 360 -153h-345v-62h400v-75c-108 6 -218 10 -320 11c-2 -17 -9 -41 -15 -56c239 -4 532 -21 687 -50l50 51
c-89 17 -205 29 -328 39v80h402v62z" />
</svg>
