<?xml version="1.0" standalone="no"?>
<!DOCTYPE svg PUBLIC "-//W3C//DTD SVG 1.1//EN" "http://www.w3.org/Graphics/SVG/1.1/DTD/svg11.dtd" >
<svg xmlns="http://www.w3.org/2000/svg" xmlns:xlink="http://www.w3.org/1999/xlink" version="1.1" viewBox="-10 0 1010 1000">
   <path fill="currentColor"
d="M946 417h-226c63 69 155 127 250 155c-16 14 -37 41 -47 59c-112 -40 -219 -119 -287 -214h-271c-29 37 -63 72 -101 103c137 -12 295 -29 383 -53l56 52c-48 12 -106 23 -168 30v87h317v63h-270c104 54 221 123 285 173l-44 49c-63 -51 -181 -126 -288 -183v219h-73
v-235c-84 90 -215 169 -331 210c-11 -17 -31 -43 -46 -58c112 -32 238 -100 318 -175h-253v-63h312v-77c-62 7 -125 12 -185 16c-2 -15 -10 -37 -17 -52c-50 41 -107 76 -172 104c-9 -15 -29 -42 -42 -56c92 -39 166 -91 226 -154h-217v-64h271c19 -25 36 -53 52 -80h-259
v-63h148c-15 -32 -43 -78 -70 -113l59 -25c30 34 62 82 76 113l-50 25h127c24 -54 41 -110 55 -169l73 14c-14 54 -31 106 -52 155h147l-10 -4c29 -38 66 -98 84 -140l73 24c-26 42 -56 86 -81 120h186v63h-427c-14 27 -29 55 -46 80h535v64z" />
</svg>
