<?xml version="1.0" standalone="no"?>
<!DOCTYPE svg PUBLIC "-//W3C//DTD SVG 1.1//EN" "http://www.w3.org/Graphics/SVG/1.1/DTD/svg11.dtd" >
<svg xmlns="http://www.w3.org/2000/svg" xmlns:xlink="http://www.w3.org/1999/xlink" version="1.1" viewBox="-10 0 1010 1000">
   <path fill="currentColor"
d="M380 581l-41 55c-13 -27 -51 -81 -81 -122v443h-70v-422c-33 94 -75 186 -117 245c-7 -21 -25 -50 -37 -68c54 -71 113 -202 146 -315h-125v-68h133v-157c-38 7 -76 13 -112 16c-3 -15 -11 -40 -20 -56c95 -15 208 -40 272 -69l42 59c-32 13 -71 24 -112 34v173h109v68
h-109v45c26 27 106 117 122 139zM946 220h-479v213c0 154 -14 375 -102 526c-13 -12 -42 -31 -60 -38c85 -143 93 -343 93 -488v-278h272c-11 -32 -25 -70 -39 -100l64 -18c18 37 38 82 48 118h203v65zM751 876h107c29 0 34 -23 38 -139c15 13 43 24 61 30
c-7 136 -25 175 -93 175h-121c-76 0 -96 -23 -96 -105v-211l-149 20l-9 -65l158 -20v-174c-44 11 -88 21 -130 29c-4 -17 -12 -41 -21 -56c127 -26 278 -65 362 -108l39 57c-50 23 -114 44 -182 61v182l228 -30l9 64l-237 31v220c0 33 5 39 36 39z" />
</svg>
