<?xml version="1.0" standalone="no"?>
<!DOCTYPE svg PUBLIC "-//W3C//DTD SVG 1.1//EN" "http://www.w3.org/Graphics/SVG/1.1/DTD/svg11.dtd" >
<svg xmlns="http://www.w3.org/2000/svg" xmlns:xlink="http://www.w3.org/1999/xlink" version="1.1" viewBox="-10 0 1010 1000">
   <path fill="currentColor"
d="M382 608l-41 61c-15 -31 -54 -90 -85 -135v424h-66v-433c-34 101 -78 198 -122 259c-6 -22 -23 -53 -35 -72c54 -71 113 -201 146 -314h-127v-69h138v-161c-38 9 -76 15 -112 21c-3 -15 -11 -41 -19 -57c93 -18 202 -48 265 -80l42 61c-32 15 -70 27 -110 38v178h118v69
h-118v63c29 30 108 122 126 147zM778 658h149s-1 20 -2 30c-12 157 -24 221 -48 245c-15 17 -33 23 -59 25c-24 2 -70 1 -118 -1c-2 -20 -9 -46 -20 -64c48 5 93 5 108 5c16 0 25 -1 34 -8c13 -14 23 -59 32 -170h-128v-1h-33c10 -33 21 -78 30 -121h-121
c-14 171 -52 293 -196 362c-8 -17 -28 -41 -42 -53c126 -59 157 -163 167 -309h-110v-65h384c-9 40 -19 86 -27 125zM941 301h-178c52 69 128 132 200 166c-16 13 -37 38 -48 55c-75 -43 -156 -120 -209 -200v186h-69v-184c-58 85 -144 162 -226 204
c-11 -17 -33 -42 -47 -55c79 -34 162 -100 216 -172h-181v-64h238v-89c-68 7 -137 12 -201 15c-3 -16 -12 -41 -19 -57c150 -9 333 -27 431 -55l51 54c-54 15 -121 27 -193 35v97h235v64z" />
</svg>
