<?xml version="1.0" standalone="no"?>
<!DOCTYPE svg PUBLIC "-//W3C//DTD SVG 1.1//EN" "http://www.w3.org/Graphics/SVG/1.1/DTD/svg11.dtd" >
<svg xmlns="http://www.w3.org/2000/svg" xmlns:xlink="http://www.w3.org/1999/xlink" version="1.1" viewBox="-10 0 1010 1000">
   <path fill="currentColor"
d="M815 244v-94h-330v94h330zM815 396v-95h-330v95h330zM886 89v368h-469v-368h469zM252 149v179h111v70h-111v30c25 31 92 125 107 150l-39 61c-12 -30 -42 -86 -68 -131v450h-64v-452c-34 106 -78 213 -123 277c-7 -20 -23 -52 -34 -71c52 -71 109 -200 141 -314h-126v-70
h142v-161c-38 8 -76 16 -112 22c-3 -16 -11 -42 -18 -59c89 -17 195 -47 256 -79l40 61c-29 13 -65 26 -102 37zM485 862l164 -39c0 19 3 46 6 62c-196 53 -226 63 -244 75c-5 -19 -17 -55 -27 -74c14 -6 30 -17 30 -52v-342h71v120h165v65h-165v185zM779 880h89
c24 0 28 -17 31 -114c15 12 43 23 62 27c-7 119 -25 150 -87 150h-104c-74 0 -92 -21 -92 -95v-363h70v158c56 -27 113 -59 149 -86l51 53c-59 34 -133 67 -200 94v144c0 27 5 32 31 32z" />
</svg>
