<?xml version="1.0" standalone="no"?>
<!DOCTYPE svg PUBLIC "-//W3C//DTD SVG 1.1//EN" "http://www.w3.org/Graphics/SVG/1.1/DTD/svg11.dtd" >
<svg xmlns="http://www.w3.org/2000/svg" xmlns:xlink="http://www.w3.org/1999/xlink" version="1.1" viewBox="-10 0 1010 1000">
   <path fill="currentColor"
d="M838 404v-96h-314v96h314zM838 556v-97h-314v97h314zM838 709v-98h-314v98h314zM454 250h157c9 -29 17 -65 23 -95h-221v-64h528v64h-223c-11 32 -21 66 -32 95h225v517h-457v-517zM390 578l-42 60c-12 -29 -46 -84 -73 -129v449h-70v-454c-37 107 -86 215 -134 279
c-7 -20 -25 -52 -37 -71c56 -72 118 -200 153 -314h-137v-70h155v-161c-41 9 -83 16 -122 22c-2 -16 -12 -42 -21 -59c99 -17 214 -47 280 -79l43 61c-32 13 -70 26 -110 37v179h122v70h-122v30c26 30 99 125 115 150zM565 786l64 41c-60 51 -157 102 -238 130
c-11 -15 -33 -38 -47 -53c80 -25 174 -75 221 -118zM718 830l56 -41c64 35 149 89 193 126l-60 45c-40 -38 -123 -93 -189 -130z" />
</svg>
