<?xml version="1.0" standalone="no"?>
<!DOCTYPE svg PUBLIC "-//W3C//DTD SVG 1.1//EN" "http://www.w3.org/Graphics/SVG/1.1/DTD/svg11.dtd" >
<svg xmlns="http://www.w3.org/2000/svg" xmlns:xlink="http://www.w3.org/1999/xlink" version="1.1" viewBox="-10 0 1010 1000">
   <path fill="currentColor"
d="M356 577l-39 62c-12 -29 -42 -86 -68 -131v450h-62v-452c-34 107 -78 214 -123 279c-5 -22 -22 -54 -32 -73c51 -72 107 -200 138 -314h-124v-70h141v-161c-38 9 -76 16 -112 22c-2 -16 -11 -42 -17 -59c89 -17 193 -47 253 -79l39 61c-28 13 -64 26 -101 38v178h109v70
h-109v29c24 29 92 126 107 150zM945 213h-475v218c0 156 -16 374 -118 522c-12 -13 -39 -32 -55 -38c98 -142 108 -338 108 -484v-283h250c-14 -29 -35 -63 -53 -89l72 -20c23 35 52 78 66 109h205v65zM728 472v71h112v-71h-112zM728 347v71h112v-71h-112zM846 860v-132
h-279v132h279zM904 598h-176v69h185v289h-67v-35h-279v37h-65v-291h160v-69h-154v-55h154v-71h-184v-54h184v-71h-150v-55h150v-66h66v66h176v121h57v64h-57v121z" />
</svg>
