<?xml version="1.0" standalone="no"?>
<!DOCTYPE svg PUBLIC "-//W3C//DTD SVG 1.1//EN" "http://www.w3.org/Graphics/SVG/1.1/DTD/svg11.dtd" >
<svg xmlns="http://www.w3.org/2000/svg" xmlns:xlink="http://www.w3.org/1999/xlink" version="1.1" viewBox="-10 0 1010 1000">
   <path fill="currentColor"
d="M373 124h139v-79h65v79h176v-79h67v79h135v67h-135v78h-67v-78h-176v78h-65v-78h-139v-67zM385 561l-42 62c-13 -28 -47 -79 -75 -121v456h-68v-439c-37 102 -86 202 -133 265c-7 -22 -25 -53 -37 -72c58 -71 121 -200 158 -314h-138v-70h150v-161c-41 10 -83 18 -123 24
c-2 -17 -11 -42 -19 -59c97 -18 211 -47 278 -80l43 61c-33 14 -71 27 -111 38v177h123v70h-123v28c28 30 100 113 117 135zM471 722l62 18c-36 69 -93 140 -146 187c-12 -11 -37 -32 -52 -42c54 -40 105 -101 136 -163zM757 747l53 -26c46 53 100 125 125 170l-57 30
c-24 -46 -76 -120 -121 -174zM473 467h352c-69 -37 -133 -90 -179 -145c-49 56 -109 106 -173 145zM635 235l58 25c-4 6 -8 11 -12 17c57 70 172 140 278 168c-16 15 -37 43 -47 60c-25 -7 -48 -18 -73 -31v55h-153v86h229v62h-229v206c0 36 -8 53 -34 64
c-24 10 -64 11 -125 11c-2 -18 -13 -44 -22 -62c45 1 83 1 95 1c12 -1 16 -5 16 -16v-204h-233v-62h233v-86h-152v-57c-25 15 -49 27 -73 38c-10 -16 -28 -40 -44 -55c112 -44 227 -125 288 -220z" />
</svg>
