<?xml version="1.0" standalone="no"?>
<!DOCTYPE svg PUBLIC "-//W3C//DTD SVG 1.1//EN" "http://www.w3.org/Graphics/SVG/1.1/DTD/svg11.dtd" >
<svg xmlns="http://www.w3.org/2000/svg" xmlns:xlink="http://www.w3.org/1999/xlink" version="1.1" viewBox="-10 0 1010 1000">
   <path fill="currentColor"
d="M319 62l51 52c-34 15 -74 27 -117 38v176h110v69h-110v37c30 32 100 112 117 133l-41 55c-14 -25 -48 -73 -76 -114v448h-70v-422c-33 94 -75 187 -117 246c-7 -21 -25 -51 -38 -68c55 -72 114 -203 146 -315h-122v-69h131v-160c-38 7 -77 13 -114 18
c-4 -15 -13 -38 -22 -54c97 -16 210 -41 272 -70zM505 277v-75h-126v-65h126v-92h69v92h160v-92h71v92h130v65h-130v75h-71v-75h-160v75h-69zM407 386v-61h223c-11 -25 -23 -54 -36 -77l63 -19c16 30 35 66 47 96h206v61h-503zM940 592h-242v109h224v62h-224v194h-73v-194
h-214v-62h214v-109h-241v-63h147c-7 -35 -24 -83 -40 -121l63 -13c19 41 37 95 45 130l-16 4h124c21 -42 46 -100 58 -141l69 19c-18 41 -39 86 -59 122h165v63z" />
</svg>
