<?xml version="1.0" standalone="no"?>
<!DOCTYPE svg PUBLIC "-//W3C//DTD SVG 1.1//EN" "http://www.w3.org/Graphics/SVG/1.1/DTD/svg11.dtd" >
<svg xmlns="http://www.w3.org/2000/svg" xmlns:xlink="http://www.w3.org/1999/xlink" version="1.1" viewBox="-10 0 1010 1000">
   <path fill="currentColor"
d="M758 360l-41 -15c18 -41 40 -108 50 -152l54 19c-22 50 -44 110 -63 148zM508 210l42 -13c22 46 40 107 46 146l-45 15c-6 -40 -23 -101 -43 -148zM473 156v234h156v-234h-156zM849 390v-234h-164v234h164zM622 518v-70h-214v-349h509v349h-224v70h217v61h-217v89h262v63
h-594v-63h261v-89h-207v-61h207zM354 560l-41 61c-11 -26 -38 -72 -61 -112v448h-68v-449c-31 96 -72 190 -112 249c-7 -21 -24 -54 -36 -72c48 -66 100 -184 130 -287h-119v-70h137v-163c-35 9 -72 16 -105 21c-3 -17 -12 -42 -20 -59c89 -18 194 -45 256 -76l43 60
c-32 14 -68 27 -106 38v179h114v70h-114v29c23 27 88 111 102 133zM371 952l-54 -35c50 -40 94 -107 120 -161l56 27c-29 56 -70 125 -122 169zM544 781l55 -8c17 53 31 123 34 168l-59 8c-2 -45 -15 -114 -30 -168zM666 779l54 -13c29 52 54 119 65 164l-57 16
c-9 -46 -35 -115 -62 -167zM793 769l54 -24c46 56 95 133 116 183l-58 27c-21 -51 -69 -128 -112 -186z" />
</svg>
