<?xml version="1.0" standalone="no"?>
<!DOCTYPE svg PUBLIC "-//W3C//DTD SVG 1.1//EN" "http://www.w3.org/Graphics/SVG/1.1/DTD/svg11.dtd" >
<svg xmlns="http://www.w3.org/2000/svg" xmlns:xlink="http://www.w3.org/1999/xlink" version="1.1" viewBox="-10 0 1010 1000">
   <path fill="currentColor"
d="M781 297v-38h-333v38h333zM781 375v-41h-333v41h333zM781 453v-41h-333v41h333zM379 220h169c7 -15 14 -30 19 -46h-257v-50h164c-9 -21 -26 -46 -42 -65l60 -17c22 24 44 58 53 82h146c19 -25 39 -59 51 -80l70 14c-16 24 -34 46 -51 66h167v50h-289
c-9 17 -17 32 -25 46h239v271h-474v-271zM273 172l-53 43c-26 -36 -85 -86 -137 -119l48 -39c52 32 113 80 142 115zM186 454v-130h-132v-60h200v186c20 9 39 27 72 47c61 34 144 40 252 40c122 0 278 -7 377 -17c-7 15 -17 43 -18 60c-86 5 -266 10 -361 10
c-116 0 -199 -9 -262 -46c-38 -22 -65 -49 -86 -49c-32 0 -80 46 -131 104l-40 -49c45 -42 89 -79 129 -96zM936 783h-330c92 52 229 92 351 110c-14 13 -34 38 -45 55c-130 -26 -280 -80 -377 -149v157h-74v-157c-95 66 -245 122 -371 150c-10 -16 -29 -41 -44 -53
c117 -20 255 -62 346 -113h-330v-55h399v-49c-101 4 -205 5 -297 3c-1 -15 -7 -35 -13 -49c217 1 496 -8 647 -30l26 49c-76 11 -179 19 -289 24v52h401v55z" />
</svg>
