<?xml version="1.0" standalone="no"?>
<!DOCTYPE svg PUBLIC "-//W3C//DTD SVG 1.1//EN" "http://www.w3.org/Graphics/SVG/1.1/DTD/svg11.dtd" >
<svg xmlns="http://www.w3.org/2000/svg" xmlns:xlink="http://www.w3.org/1999/xlink" version="1.1" viewBox="-10 0 1010 1000">
   <path fill="currentColor"
d="M930 146l-38 31c-17 -24 -52 -60 -82 -85l38 -27c30 23 65 56 82 81zM781 244h-2c-19 68 -58 140 -141 196c-10 -13 -28 -33 -42 -44c69 -44 105 -99 123 -152h-76v-54h90c4 -24 5 -46 5 -67v-78h56v80c0 21 -1 42 -4 65h155v54h-110v109c0 17 2 19 17 19h44
c14 0 17 -7 20 -62c11 9 31 16 46 21c-5 73 -20 92 -58 92h-60c-50 0 -63 -14 -63 -70v-109zM469 439v-126c-27 45 -60 87 -93 112c-8 -12 -23 -28 -36 -40v10h-99v54c23 29 77 106 89 126l-40 60c-9 -23 -29 -63 -49 -99v421h-63v-421c-30 95 -68 188 -106 247
c-7 -21 -23 -53 -35 -72c50 -71 103 -203 132 -316h-120v-67h129v-163c-36 8 -74 16 -108 22c-3 -16 -12 -40 -18 -57c87 -17 189 -47 248 -78l39 58c-28 13 -62 26 -98 37v181h99v46c41 -27 82 -76 108 -124h-96v-54h117v-59c-31 5 -63 8 -91 11c-3 -13 -12 -33 -18 -47
c76 -10 168 -27 219 -48l41 46c-27 11 -59 20 -93 26v71h88v54h-85c24 19 77 58 91 71l-39 45c-11 -13 -34 -38 -55 -59v132h-58zM829 821h-354v62h354v-62zM409 956v-183h488v182h-68v-25h-354v26h-66zM416 737v-50h472v50h-472zM888 600v49h-472v-49h472zM575 453l51 -23
c22 22 47 53 62 77h254v54h-573v-54h249c-13 -19 -29 -38 -43 -54z" />
</svg>
