<?xml version="1.0" standalone="no"?>
<!DOCTYPE svg PUBLIC "-//W3C//DTD SVG 1.1//EN" "http://www.w3.org/Graphics/SVG/1.1/DTD/svg11.dtd" >
<svg xmlns="http://www.w3.org/2000/svg" xmlns:xlink="http://www.w3.org/1999/xlink" version="1.1" viewBox="-10 0 1010 1000">
   <path fill="currentColor"
d="M154 196v91h-73v-152h392c-13 -26 -30 -57 -47 -81l73 -18c22 30 47 70 61 99h361v148h-77v-87h-690zM575 274l35 -46c93 35 215 91 279 131l-36 54c-62 -41 -183 -102 -278 -139zM144 418l-40 -56c92 -26 198 -76 270 -138l57 33c-77 69 -184 129 -287 161zM549 852h393
v67h-883v-67h153v-284h73v284h189v-359h-394v-66h837v66h-368v131h314v65h-314v163z" />
</svg>
