<?xml version="1.0" standalone="no"?>
<!DOCTYPE svg PUBLIC "-//W3C//DTD SVG 1.1//EN" "http://www.w3.org/Graphics/SVG/1.1/DTD/svg11.dtd" >
<svg xmlns="http://www.w3.org/2000/svg" xmlns:xlink="http://www.w3.org/1999/xlink" version="1.1" viewBox="-10 0 1010 1000">
   <path fill="currentColor"
d="M234 745v109h258v-109h-258zM492 435h-258v93h258v-93zM741 684v-95h-507v95h507zM565 745v109h337v64h-741v-542l-23 7l-39 -56c92 -22 197 -64 269 -119l57 33c-70 54 -160 101 -251 131h681v63h-290v93h249v217h-249zM895 319l-34 55c-65 -36 -189 -88 -285 -117
l32 -48c95 28 221 74 287 110zM554 124h367v151h-77v-93h-690v96h-73v-154h386c-12 -23 -28 -48 -42 -69l73 -16c20 26 41 59 56 85z" />
</svg>
