<?xml version="1.0" standalone="no"?>
<!DOCTYPE svg PUBLIC "-//W3C//DTD SVG 1.1//EN" "http://www.w3.org/Graphics/SVG/1.1/DTD/svg11.dtd" >
<svg xmlns="http://www.w3.org/2000/svg" xmlns:xlink="http://www.w3.org/1999/xlink" version="1.1" viewBox="-10 0 1010 1000">
   <path fill="currentColor"
d="M154 178v91h-73v-145h390c-10 -22 -22 -46 -34 -67l72 -19c17 26 35 61 46 86h365v142h-76v-88h-690zM571 237l34 -43c95 27 221 72 285 106l-36 50c-62 -35 -187 -83 -283 -113zM142 358l-38 -50c95 -23 200 -65 272 -115l56 27c-78 57 -184 109 -290 138zM311 617v59
h397v-59h-397zM708 402h-397v60h397v-60zM311 511v59h397v-59h-397zM889 559l52 39c-47 42 -102 79 -161 113v156c0 44 -10 62 -40 74c-32 11 -84 11 -165 10c-4 -18 -15 -44 -24 -63c60 2 119 1 134 1c17 -1 23 -6 23 -22v-117c-183 89 -405 149 -612 188
c-6 -17 -23 -48 -34 -64c182 -28 373 -75 536 -143h-495v-55h135v-326h180c14 -27 29 -60 37 -82l65 20c-13 22 -25 42 -36 62h296v290c41 -25 77 -51 109 -81z" />
</svg>
