<?xml version="1.0" standalone="no"?>
<!DOCTYPE svg PUBLIC "-//W3C//DTD SVG 1.1//EN" "http://www.w3.org/Graphics/SVG/1.1/DTD/svg11.dtd" >
<svg xmlns="http://www.w3.org/2000/svg" xmlns:xlink="http://www.w3.org/1999/xlink" version="1.1" viewBox="-10 0 1010 1000">
   <path fill="currentColor"
d="M154 169v76h-73v-132h383c-9 -19 -18 -39 -28 -56l71 -20c14 23 30 51 40 76h373v129h-76v-73h-690zM710 398v-59h-420v59h420zM902 297l-38 44c-21 -11 -50 -24 -81 -36v137h-563v-125c-29 11 -57 21 -84 30l-40 -47c89 -25 202 -67 285 -111l58 27
c-49 27 -106 55 -163 79h482c-63 -24 -135 -49 -198 -67l36 -38c101 27 237 73 306 107zM246 722v56h510v-56h-510zM246 624v54h510v-54h-510zM246 527v53h510v-53h-510zM176 823v-342h653v342h-653zM352 826l71 27c-76 45 -204 83 -306 104c-12 -13 -38 -42 -55 -55
c103 -15 224 -42 290 -76zM579 865l54 -39c108 26 228 61 300 89l-72 40c-64 -27 -173 -62 -282 -90z" />
</svg>
