<?xml version="1.0" standalone="no"?>
<!DOCTYPE svg PUBLIC "-//W3C//DTD SVG 1.1//EN" "http://www.w3.org/Graphics/SVG/1.1/DTD/svg11.dtd" >
<svg xmlns="http://www.w3.org/2000/svg" xmlns:xlink="http://www.w3.org/1999/xlink" version="1.1" viewBox="-10 0 1010 1000">
   <path fill="currentColor"
d="M154 177v78h-73v-132h389c-10 -23 -22 -47 -34 -67l72 -19c16 26 34 61 45 86h367v129h-76v-75h-690zM918 726h-64v-76h-497v76h-62v-123h623v123zM303 419l-44 48c-28 -31 -85 -74 -135 -103l26 -24l-38 -47c92 -21 200 -58 277 -104l57 26c-74 47 -170 90 -262 116
c45 25 94 61 119 88zM343 375v-45h492c-66 -31 -186 -73 -278 -96l34 -41c94 23 220 63 287 94l-33 43h29v231h-538v-45h469v-49h-429v-45h429v-47h-462zM249 586l-44 49c-28 -31 -89 -76 -141 -104l43 -44c51 27 113 68 142 99zM122 965l-57 -45c46 -58 114 -156 167 -243
l48 42c-47 81 -106 174 -158 246zM726 744h-237c31 31 71 59 119 81c47 -22 87 -49 118 -81zM782 693l42 19c-35 57 -87 104 -150 140c75 26 165 44 260 53c-15 12 -33 37 -40 53c-107 -13 -205 -38 -287 -74c-88 38 -191 62 -295 76c-5 -16 -19 -40 -30 -52
c91 -10 182 -28 260 -56c-51 -30 -93 -65 -125 -106l6 -2h-43v-50h397z" />
</svg>
