<?xml version="1.0" standalone="no"?>
<!DOCTYPE svg PUBLIC "-//W3C//DTD SVG 1.1//EN" "http://www.w3.org/Graphics/SVG/1.1/DTD/svg11.dtd" >
<svg xmlns="http://www.w3.org/2000/svg" xmlns:xlink="http://www.w3.org/1999/xlink" version="1.1" viewBox="-10 0 1010 1000">
   <path fill="currentColor"
d="M154 164v81h-73v-131h388c-10 -20 -22 -41 -33 -59l72 -17c16 22 33 52 44 76h368v128h-76v-78h-690zM205 874h718v56h-788v-600h21l-32 -36c96 -21 205 -59 281 -104l58 24c-73 47 -167 90 -261 116h634c-65 -31 -192 -74 -289 -102l35 -38c97 24 229 66 296 98l-36 42
h53v56h-690v488zM690 551v-72h-250v72h250zM761 431v167h-389v-167h389zM331 693v86h140v-86h-140zM275 827v-182h255v182h-255zM804 779v-86h-146v86h146zM863 645v182h-262v-182h262z" />
</svg>
