<?xml version="1.0" standalone="no"?>
<!DOCTYPE svg PUBLIC "-//W3C//DTD SVG 1.1//EN" "http://www.w3.org/Graphics/SVG/1.1/DTD/svg11.dtd" >
<svg xmlns="http://www.w3.org/2000/svg" xmlns:xlink="http://www.w3.org/1999/xlink" version="1.1" viewBox="-10 0 1010 1000">
   <path fill="currentColor"
d="M904 187l-50 42c-26 -41 -85 -99 -136 -138l47 -38c52 38 112 93 139 134zM293 191l-64 24c-12 -38 -39 -98 -61 -142l61 -20c24 44 50 101 64 138zM426 230v70h-365v-70h365zM212 702l-59 12c-4 -97 -23 -244 -46 -357l55 -12c25 115 46 259 50 357zM444 690l6 67
c-135 37 -279 74 -384 100l-17 -72c60 -13 137 -32 222 -52c22 -107 44 -277 55 -395l66 14c-17 114 -41 262 -62 366zM834 403l58 33c-36 96 -90 191 -156 274c33 99 74 159 121 163c23 2 39 -54 48 -160c13 15 43 32 58 38c-22 161 -59 210 -104 208
c-78 -4 -136 -70 -179 -183c-59 64 -124 119 -192 157c-12 -18 -35 -39 -55 -53c81 -41 157 -104 223 -180c-26 -90 -45 -200 -58 -324l-162 17l-8 -68l163 -17c-8 -82 -14 -168 -18 -258h72c3 87 9 171 17 250l267 -28l7 67l-267 29c11 98 26 186 45 260
c50 -70 92 -147 120 -225z" />
</svg>
