<?xml version="1.0" standalone="no"?>
<!DOCTYPE svg PUBLIC "-//W3C//DTD SVG 1.1//EN" "http://www.w3.org/Graphics/SVG/1.1/DTD/svg11.dtd" >
<svg xmlns="http://www.w3.org/2000/svg" xmlns:xlink="http://www.w3.org/1999/xlink" version="1.1" viewBox="-10 0 1010 1000">
   <path fill="currentColor"
d="M724 249l-50 49c-32 -42 -99 -103 -155 -142l48 -45c55 39 125 95 157 138zM704 512l-46 50c-36 -45 -109 -106 -171 -147l44 -45c63 38 138 98 173 142zM309 198l-68 23c-12 -40 -41 -102 -65 -148l64 -20c26 45 55 105 69 145zM416 230v69h-342v-69h342zM215 702
l-63 12c-4 -97 -25 -244 -47 -357l59 -11c24 114 45 257 51 356zM318 726l100 -24l7 68c-120 31 -245 63 -341 87l-16 -73c51 -11 116 -26 188 -43c24 -107 48 -281 58 -403l70 14c-17 118 -43 269 -66 374zM968 673l-131 22v262h-69v-250l-308 52l-11 -70l319 -54v-589h69
v578l122 -20z" />
</svg>
