<?xml version="1.0" standalone="no"?>
<!DOCTYPE svg PUBLIC "-//W3C//DTD SVG 1.1//EN" "http://www.w3.org/Graphics/SVG/1.1/DTD/svg11.dtd" >
<svg xmlns="http://www.w3.org/2000/svg" xmlns:xlink="http://www.w3.org/1999/xlink" version="1.1" viewBox="-10 0 1010 1000">
   <path fill="currentColor"
d="M282 198l-66 23c-11 -40 -39 -102 -62 -148l62 -20c26 45 53 106 66 145zM384 230v69h-329v-69h329zM191 702l-61 12c-4 -98 -24 -244 -45 -357l58 -11c23 114 43 257 48 356zM391 700l7 68c-117 33 -240 65 -333 88l-16 -72c49 -11 113 -26 182 -43
c22 -106 46 -281 56 -403l68 14c-17 117 -41 268 -63 373zM546 152v211h293v-211h-293zM826 869h144c-11 17 -21 50 -24 70h-125c-129 0 -230 -31 -298 -162c-22 71 -51 131 -92 181c-12 -10 -46 -30 -63 -39c81 -87 114 -228 128 -394l71 6c-4 51 -11 99 -19 144
c25 78 62 126 107 155v-401h-179v-343h436v343h-184v153h209v68h-209v209c31 7 64 10 98 10z" />
</svg>
