<?xml version="1.0" standalone="no"?>
<!DOCTYPE svg PUBLIC "-//W3C//DTD SVG 1.1//EN" "http://www.w3.org/Graphics/SVG/1.1/DTD/svg11.dtd" >
<svg xmlns="http://www.w3.org/2000/svg" xmlns:xlink="http://www.w3.org/1999/xlink" version="1.1" viewBox="-10 0 1010 1000">
   <path fill="currentColor"
d="M822 255v-44h-291v44h291zM822 341v-46h-291v46h291zM822 428v-48h-291v48h291zM462 170h160c5 -13 10 -27 14 -42h-220v-53h528v53h-238l-21 42h208v299h-124c61 21 138 53 181 76l-43 41c-44 -24 -127 -61 -190 -86l37 -31h-181l49 21c-55 39 -146 75 -217 94
c-9 -12 -26 -34 -38 -45c64 -14 146 -42 190 -70h-95v-299zM136 694v-60h335c-6 -17 -14 -33 -23 -47l63 -17c13 19 25 43 33 64h322v60h-730zM320 59l61 28c-71 59 -180 109 -271 141c-12 -15 -29 -35 -46 -47c87 -27 196 -73 256 -122zM344 198l61 26
c-70 68 -183 126 -284 160c-11 -15 -29 -34 -45 -48c96 -29 209 -81 268 -138zM364 353l62 26c-77 81 -205 147 -330 185c-9 -16 -27 -37 -43 -52c117 -31 244 -90 311 -159zM678 701l82 17c-28 51 -60 109 -89 154h279v61h-899v-61h272c-11 -41 -39 -105 -68 -153l68 -19
c30 46 59 108 70 150l-67 22h267c32 -50 67 -121 85 -171z" />
</svg>
