<?xml version="1.0" standalone="no"?>
<!DOCTYPE svg PUBLIC "-//W3C//DTD SVG 1.1//EN" "http://www.w3.org/Graphics/SVG/1.1/DTD/svg11.dtd" >
<svg xmlns="http://www.w3.org/2000/svg" xmlns:xlink="http://www.w3.org/1999/xlink" version="1.1" viewBox="-10 0 1010 1000">
   <path fill="currentColor"
d="M162 268v-112h-118v-53h426c-8 -17 -18 -33 -27 -47l70 -16c13 19 27 43 38 63h401v53h-728v60h664v52h-726zM610 556v53h-264v-53h119c-11 -20 -25 -42 -38 -60l51 -13c17 21 35 50 46 73h86zM457 798l-51 14c-8 -47 -27 -119 -45 -173l48 -11c19 55 39 124 48 170z
M765 411v-55h-530v55h530zM836 308v151h-668v-151h668zM158 736h111v-68h-109v6c0 19 -1 41 -2 62zM269 551h-109v67h109v-67zM325 500v386c0 30 -6 45 -27 55c-20 10 -55 10 -107 10c-2 -16 -9 -38 -17 -53c38 1 70 1 81 1c11 -1 14 -4 14 -13v-100h-117
c-10 60 -29 122 -69 168c-8 -10 -33 -27 -47 -32c62 -73 69 -173 69 -249v-173h220zM681 629l39 -17c31 49 63 113 80 160v-218h-119v75zM872 902h19c6 0 13 -1 16 -4s7 -9 9 -20c2 -13 3 -41 3 -78c12 10 29 19 44 23c-1 36 -4 76 -8 90c-5 15 -13 25 -22 30
c-10 6 -24 8 -38 8h-35c-17 0 -33 -4 -44 -15c-13 -11 -16 -25 -16 -86v-58l-39 17c-15 -47 -49 -118 -80 -174v30c0 94 -18 214 -108 295c-10 -11 -33 -28 -47 -34c23 -20 39 -42 53 -64c-83 19 -166 40 -231 57l-12 -57c38 -8 87 -19 140 -30c19 -59 37 -147 47 -209
l59 12c-15 58 -34 129 -51 184l62 -15l3 26c23 -56 28 -115 28 -166v-164h232v357c0 22 0 37 4 41c2 3 6 4 12 4z" />
</svg>
