<?xml version="1.0" standalone="no"?>
<!DOCTYPE svg PUBLIC "-//W3C//DTD SVG 1.1//EN" "http://www.w3.org/Graphics/SVG/1.1/DTD/svg11.dtd" >
<svg xmlns="http://www.w3.org/2000/svg" xmlns:xlink="http://www.w3.org/1999/xlink" version="1.1" viewBox="-10 0 1010 1000">
   <path fill="currentColor"
d="M297 391h600s-1 26 -3 35c-26 321 -50 443 -90 484c-22 24 -42 32 -75 34c-28 3 -80 2 -134 -2c-1 -21 -9 -51 -21 -70c54 5 104 6 126 6c18 0 29 -2 41 -13c31 -30 56 -139 77 -405h-247c-64 232 -198 378 -395 467c-11 -15 -40 -45 -58 -58c193 -75 315 -206 373 -409
h-239c-48 66 -103 123 -158 166c-14 -12 -44 -36 -61 -47c92 -65 178 -168 228 -275l59 17c-10 -34 -26 -77 -45 -114h-65c-32 57 -69 108 -108 148c-14 -12 -44 -33 -62 -42c72 -66 133 -168 168 -275l70 18c-10 29 -21 59 -35 87h247v64h-141c18 38 35 79 42 108l-65 25
v-2c-10 18 -18 35 -29 53zM637 143h302v64h-176c28 39 53 83 66 114l-66 26c-14 -37 -46 -93 -79 -140h-73c-26 54 -55 103 -88 140c-13 -12 -45 -32 -63 -42c60 -64 106 -163 133 -266l72 17c-7 29 -17 59 -28 87z" />
</svg>
