<?xml version="1.0" standalone="no"?>
<!DOCTYPE svg PUBLIC "-//W3C//DTD SVG 1.1//EN" "http://www.w3.org/Graphics/SVG/1.1/DTD/svg11.dtd" >
<svg xmlns="http://www.w3.org/2000/svg" xmlns:xlink="http://www.w3.org/1999/xlink" version="1.1" viewBox="-10 0 1010 1000">
   <path fill="currentColor"
d="M265 192h-54c-32 50 -69 94 -108 129c-11 -12 -38 -36 -53 -47c69 -56 126 -143 158 -236l70 15c-10 28 -22 57 -36 83h249v56h-152c25 35 47 76 58 103l-65 23c-11 -34 -40 -86 -67 -126zM804 569h-292c-2 5 -3 11 -5 16c92 53 207 132 265 188l-47 49
c-51 -51 -153 -127 -243 -182c-37 63 -100 128 -209 183c-10 -16 -32 -39 -49 -50c132 -62 189 -135 214 -204h-244v282h610v-282zM70 412v-64h864v64h-405v33c0 18 -1 36 -3 57h353v452h-75v-39h-610v43h-72v-456h332c2 -21 3 -40 3 -58v-32h-387zM634 136h305v56h-196
c25 35 48 75 58 102l-66 24c-10 -34 -41 -87 -69 -126h-61c-25 46 -55 87 -88 120c-11 -12 -37 -35 -54 -45c59 -56 105 -141 131 -228l71 15c-9 27 -20 56 -31 82z" />
</svg>
