<?xml version="1.0" standalone="no"?>
<!DOCTYPE svg PUBLIC "-//W3C//DTD SVG 1.1//EN" "http://www.w3.org/Graphics/SVG/1.1/DTD/svg11.dtd" >
<svg xmlns="http://www.w3.org/2000/svg" xmlns:xlink="http://www.w3.org/1999/xlink" version="1.1" viewBox="-10 0 1010 1000">
   <path fill="currentColor"
d="M675 189h-72c-20 34 -42 63 -66 87c-14 -11 -45 -30 -63 -39c53 -48 95 -123 119 -198l72 14c-8 26 -18 52 -30 77h304v59h-185c22 30 43 61 53 85l-64 25c-12 -29 -39 -73 -68 -110zM272 189h-65c-31 45 -66 87 -102 118c-14 -11 -45 -28 -62 -36
c70 -56 131 -143 165 -233l72 16c-11 26 -23 51 -37 76h252v59h-148c19 32 36 63 44 87l-63 24c-10 -29 -32 -73 -56 -111zM491 497h87c50 -29 96 -61 139 -94h-226v94zM940 560h-339c-84 49 -174 93 -264 131v64c154 -30 324 -74 420 -123l50 51c-116 57 -306 102 -470 130
v16c0 30 15 36 102 36h298c68 0 79 -15 85 -112c19 11 49 21 71 25c-13 124 -38 153 -153 153h-300c-139 0 -176 -20 -176 -101v-110c-60 23 -120 43 -179 62c-9 -16 -32 -46 -47 -61c147 -40 293 -94 426 -161h-407v-63h361v-94h-251v-61h251v-76h73v76h230v58
c42 -32 80 -67 115 -102l62 37c-58 59 -125 113 -197 162h239v63z" />
</svg>
