<?xml version="1.0" standalone="no"?>
<!DOCTYPE svg PUBLIC "-//W3C//DTD SVG 1.1//EN" "http://www.w3.org/Graphics/SVG/1.1/DTD/svg11.dtd" >
<svg xmlns="http://www.w3.org/2000/svg" xmlns:xlink="http://www.w3.org/1999/xlink" version="1.1" viewBox="-10 0 1010 1000">
   <path fill="currentColor"
d="M272 184h-63c-30 42 -63 79 -97 108c-14 -10 -45 -28 -62 -37c66 -50 124 -130 156 -213l72 15c-9 24 -20 46 -33 69h247v58h-145c18 28 33 59 41 80l-64 24c-9 -27 -31 -69 -52 -104zM652 501h-207c-44 48 -99 92 -167 130c-9 -13 -29 -33 -43 -42
c111 -58 189 -139 228 -210l64 11c-11 20 -24 39 -39 59h195l12 -3l41 22c-31 79 -81 147 -142 202c39 28 75 57 98 83l-46 42c-23 -26 -59 -57 -99 -87c-74 57 -161 98 -246 124c-8 -14 -24 -37 -36 -50c80 -22 161 -60 232 -110c-36 -26 -74 -50 -111 -70l43 -37
c38 19 77 44 115 69c43 -39 81 -83 108 -133zM806 365h-610v477h610v-477zM128 956v-655h749v650h-71v-45h-610v50h-68zM638 127h302v59h-176c20 26 39 56 49 76l-64 25c-12 -26 -38 -67 -64 -101h-77c-22 37 -47 71 -74 97c-13 -9 -45 -28 -63 -37c55 -49 98 -126 122 -205
l73 14c-8 25 -17 48 -28 72z" />
</svg>
