<?xml version="1.0" standalone="no"?>
<!DOCTYPE svg PUBLIC "-//W3C//DTD SVG 1.1//EN" "http://www.w3.org/Graphics/SVG/1.1/DTD/svg11.dtd" >
<svg xmlns="http://www.w3.org/2000/svg" xmlns:xlink="http://www.w3.org/1999/xlink" version="1.1" viewBox="-10 0 1010 1000">
   <path fill="currentColor"
d="M274 186h-67c-29 42 -63 80 -97 110c-14 -10 -45 -27 -63 -36c69 -52 128 -135 161 -221l72 16c-11 25 -23 49 -36 74h246v57h-142c22 33 43 69 51 94l-63 23c-11 -31 -36 -78 -62 -117zM434 638l-151 35v195c0 43 -9 62 -37 74s-73 14 -142 13c-3 -20 -13 -49 -22 -70
c51 2 96 1 110 1s19 -4 19 -18v-178l-151 35l-12 -67c45 -9 101 -21 163 -35v-146h-153v-68h153v-120h72v120h151v68h-151v130l145 -32zM569 410v106h368v66h-143v376h-70v-376h-155c-3 130 -23 267 -131 374c-12 -16 -40 -38 -58 -48c107 -105 119 -238 119 -359v-190
c124 -17 266 -45 346 -75l56 53c-89 32 -216 57 -332 73zM639 129h300v57h-180c24 28 46 60 57 81l-61 30c-14 -30 -45 -75 -74 -111h-68c-23 43 -49 81 -77 111c-13 -10 -45 -28 -63 -35c56 -54 97 -137 120 -222l73 13c-8 25 -17 51 -27 76z" />
</svg>
