<?xml version="1.0" standalone="no"?>
<!DOCTYPE svg PUBLIC "-//W3C//DTD SVG 1.1//EN" "http://www.w3.org/Graphics/SVG/1.1/DTD/svg11.dtd" >
<svg xmlns="http://www.w3.org/2000/svg" xmlns:xlink="http://www.w3.org/1999/xlink" version="1.1" viewBox="-10 0 1010 1000">
   <path fill="currentColor"
d="M690 181h-84c-16 27 -35 51 -53 71c-14 -9 -46 -27 -63 -35c46 -44 80 -110 99 -177l74 13c-7 25 -17 48 -28 72h303v56h-170c18 24 34 49 41 67l-64 26c-10 -26 -31 -62 -55 -93zM269 181h-58c-30 43 -64 81 -98 111c-14 -9 -44 -27 -63 -35c69 -52 126 -133 158 -217
l72 14c-10 24 -22 48 -34 71h244v56h-148c17 27 30 57 35 78l-65 20c-7 -26 -24 -65 -43 -98zM784 372h-558v96h558v-96zM857 527h-631c-2 130 -24 307 -119 428c-13 -12 -44 -31 -62 -38c97 -121 108 -290 108 -412v-192h330c-11 -20 -23 -40 -36 -58l63 -20
c18 24 37 54 51 78h296v214zM927 707h-311c56 105 170 165 334 186c-16 14 -35 40 -44 59c-169 -29 -284 -97 -347 -217c-47 111 -139 183 -338 222c-6 -17 -25 -42 -37 -56c190 -34 271 -96 310 -194h-251v-59h268c7 -30 11 -64 15 -101h73c-4 37 -8 70 -15 101h199
c-28 -23 -77 -55 -118 -76l42 -34c44 20 99 53 128 78l-36 32h128v59z" />
</svg>
