<?xml version="1.0" standalone="no"?>
<!DOCTYPE svg PUBLIC "-//W3C//DTD SVG 1.1//EN" "http://www.w3.org/Graphics/SVG/1.1/DTD/svg11.dtd" >
<svg xmlns="http://www.w3.org/2000/svg" xmlns:xlink="http://www.w3.org/1999/xlink" version="1.1" viewBox="-10 0 1010 1000">
   <path fill="currentColor"
d="M271 174h-58c-30 44 -66 84 -103 115c-14 -9 -44 -26 -63 -33c70 -53 129 -133 161 -217l72 13c-10 24 -21 46 -33 69h243v53h-144c18 25 35 52 43 72l-64 21c-9 -25 -31 -62 -54 -93zM628 714h-256v101h256v-101zM696 870h-324v38h-67v-248h391v210zM290 449v85h237v-85
h-237zM710 334h-420v70h304v130h116v-200zM895 534v343c0 38 -7 57 -36 69c-27 11 -73 12 -146 12c-3 -20 -12 -47 -22 -66c53 2 100 1 112 0c15 0 19 -4 19 -16v-280h-644v361h-72v-423h115v-259h561v259h113zM635 121h301v53h-174c22 24 40 50 50 70l-64 21
c-11 -23 -38 -61 -63 -91h-80c-23 35 -48 67 -76 91c-14 -10 -44 -25 -63 -33c57 -47 101 -118 127 -192l72 12c-9 24 -18 46 -30 69z" />
</svg>
