<?xml version="1.0" standalone="no"?>
<!DOCTYPE svg PUBLIC "-//W3C//DTD SVG 1.1//EN" "http://www.w3.org/Graphics/SVG/1.1/DTD/svg11.dtd" >
<svg xmlns="http://www.w3.org/2000/svg" xmlns:xlink="http://www.w3.org/1999/xlink" version="1.1" viewBox="-10 0 1010 1000">
   <path fill="currentColor"
d="M688 179h-85c-19 26 -39 50 -60 69c-14 -9 -44 -26 -62 -35c51 -42 91 -107 113 -173l72 13c-9 24 -18 47 -30 70h303v56h-172c21 26 41 56 52 76l-65 24c-13 -28 -39 -67 -66 -100zM263 179h-52c-30 42 -63 80 -97 110c-14 -10 -44 -27 -63 -35
c68 -52 124 -132 157 -215l71 13c-9 24 -21 48 -34 71h247v56h-156c18 28 34 60 40 81l-65 22c-8 -27 -27 -68 -48 -103zM754 786h-219v150h-71v-150h-214v-54h214v-66h-195v-53h111c-14 -27 -34 -58 -53 -82l57 -16c25 29 51 68 64 98h106c22 -32 48 -75 61 -105l61 22
c-18 28 -36 57 -55 83h120v53h-206v66h219v54zM945 374h-408v72h348v415c0 39 -9 59 -37 71c-27 12 -71 12 -137 12c-4 -20 -15 -48 -25 -67c48 1 94 1 106 0c14 0 18 -4 18 -17v-355h-617v446h-73v-505h343v-72h-399v-59h399v-68h74v68h408v59z" />
</svg>
