<?xml version="1.0" standalone="no"?>
<!DOCTYPE svg PUBLIC "-//W3C//DTD SVG 1.1//EN" "http://www.w3.org/Graphics/SVG/1.1/DTD/svg11.dtd" >
<svg xmlns="http://www.w3.org/2000/svg" xmlns:xlink="http://www.w3.org/1999/xlink" version="1.1" viewBox="-10 0 1010 1000">
   <path fill="currentColor"
d="M680 180h-77c-23 38 -49 71 -77 99c-13 -10 -45 -28 -62 -36c55 -49 99 -124 124 -202l72 13c-8 24 -17 47 -27 70h306v56h-182c21 26 40 55 49 75l-63 26c-11 -27 -37 -68 -63 -101zM531 360l48 -41c53 34 115 85 144 122l-51 46c-28 -38 -89 -91 -141 -127zM503 550
l49 -38c54 33 117 85 146 125l-52 43c-28 -39 -88 -93 -143 -130zM276 180h-68c-32 43 -66 80 -101 111c-14 -11 -45 -28 -63 -36c69 -52 129 -131 162 -214l72 14c-9 24 -21 46 -34 69h246v56h-140c18 27 32 56 40 76l-65 22c-8 -27 -28 -65 -49 -98zM313 557v18
c38 30 127 106 150 128l-47 51c-19 -25 -64 -72 -103 -111v313h-71v-309c-43 83 -98 162 -150 209c-12 -16 -34 -40 -50 -53c66 -51 136 -151 181 -246h-169v-65h188v-108c-50 8 -100 14 -147 19c-3 -17 -12 -41 -21 -58c118 -14 261 -38 341 -67l43 58
c-41 13 -91 26 -145 36v120h158v65h-158zM957 744l-122 20v192h-72v-180l-294 48l-12 -66l306 -49v-412h72v400l110 -18z" />
</svg>
