<?xml version="1.0" standalone="no"?>
<!DOCTYPE svg PUBLIC "-//W3C//DTD SVG 1.1//EN" "http://www.w3.org/Graphics/SVG/1.1/DTD/svg11.dtd" >
<svg xmlns="http://www.w3.org/2000/svg" xmlns:xlink="http://www.w3.org/1999/xlink" version="1.1" viewBox="-10 0 1010 1000">
   <path fill="currentColor"
d="M685 175h-77c-25 39 -53 74 -82 102c-13 -10 -46 -27 -63 -35c57 -48 105 -124 130 -202l73 12c-8 24 -18 46 -29 69h301v54h-175c23 28 45 59 55 80l-58 27c-13 -29 -44 -72 -75 -107zM266 175h-54c-31 44 -66 84 -101 114c-14 -9 -44 -25 -63 -33
c69 -52 126 -133 160 -217l70 13c-9 24 -20 46 -33 69h245v54h-150c24 31 46 64 57 88l-62 22c-12 -29 -41 -73 -69 -110zM939 390v64h-249l32 12c-37 62 -83 126 -128 177l149 -11c21 -24 39 -50 57 -75l64 31c-72 92 -153 181 -236 254l182 -18c-13 -18 -26 -36 -39 -53
l55 -23c44 54 92 128 112 178l-58 28c-8 -22 -21 -48 -37 -77c-266 30 -301 35 -324 45c-2 -12 -14 -41 -23 -58c22 -3 48 -22 80 -51c21 -18 68 -64 118 -122c-141 13 -167 19 -183 25c-4 -13 -16 -43 -24 -58c16 -3 31 -18 49 -39c18 -19 73 -92 110 -165h-349l23 8
c-40 65 -88 132 -136 185l140 -10c27 -32 53 -66 77 -101l63 33c-80 102 -171 202 -261 281l182 -18c-12 -19 -25 -37 -38 -54l55 -24c42 52 87 122 106 169l-58 28c-7 -19 -19 -42 -32 -67c-266 30 -301 35 -324 45c-3 -12 -15 -42 -23 -58c22 -3 51 -25 86 -57
c20 -17 64 -60 114 -116c-132 13 -157 18 -174 24c-4 -13 -15 -42 -24 -56c17 -3 34 -19 53 -41c19 -20 78 -95 118 -171h-182v-64h231c-18 -30 -41 -65 -64 -92l61 -27c32 35 67 84 84 119h231c25 -36 54 -84 69 -118l81 24c-22 31 -47 66 -71 94h255z" />
</svg>
