<?xml version="1.0" standalone="no"?>
<!DOCTYPE svg PUBLIC "-//W3C//DTD SVG 1.1//EN" "http://www.w3.org/Graphics/SVG/1.1/DTD/svg11.dtd" >
<svg xmlns="http://www.w3.org/2000/svg" xmlns:xlink="http://www.w3.org/1999/xlink" version="1.1" viewBox="-10 0 1010 1000">
   <path fill="currentColor"
d="M681 189h-72c-28 52 -60 98 -96 134c-12 -10 -44 -29 -62 -37c64 -60 114 -152 142 -247l71 15c-7 25 -17 51 -28 76h303v59h-178c28 35 54 74 67 101l-64 27c-14 -34 -50 -86 -83 -128zM268 189h-56c-32 52 -68 98 -107 134c-14 -10 -45 -28 -63 -37
c72 -59 132 -151 166 -248l70 16c-10 26 -21 51 -33 76h245v59h-146c23 36 45 77 55 103l-64 25c-12 -34 -39 -85 -67 -128zM810 460h-180c22 84 53 162 94 230c40 -64 69 -141 86 -230zM941 460h-58c-25 116 -62 211 -117 289c54 68 122 120 205 152c-17 14 -38 40 -50 58
c-81 -35 -147 -88 -201 -155c-58 63 -130 112 -219 150c-7 -14 -28 -44 -41 -58c92 -36 164 -84 220 -147c-38 -60 -69 -128 -92 -203c-20 37 -42 70 -66 98c-9 -9 -28 -25 -44 -37v21h-136v181l164 -33l6 67c-159 34 -326 69 -446 94l-14 -72c20 -3 41 -7 64 -12v-319h66
v307l89 -18v-399h-197v-64h439v64h-171v140h136v21c59 -73 102 -178 126 -287l71 12c-7 29 -15 58 -23 85h289v65z" />
</svg>
