<?xml version="1.0" standalone="no"?>
<!DOCTYPE svg PUBLIC "-//W3C//DTD SVG 1.1//EN" "http://www.w3.org/Graphics/SVG/1.1/DTD/svg11.dtd" >
<svg xmlns="http://www.w3.org/2000/svg" xmlns:xlink="http://www.w3.org/1999/xlink" version="1.1" viewBox="-10 0 1010 1000">
   <path fill="currentColor"
d="M681 185h-77c-21 37 -46 72 -73 98c-13 -10 -45 -26 -62 -35c55 -51 97 -129 119 -209l74 14c-8 25 -18 51 -29 76h307v56h-180c23 28 45 60 56 81l-61 30c-14 -30 -44 -75 -74 -111zM264 185h-57c-29 42 -63 80 -97 110c-14 -10 -45 -27 -63 -35
c69 -53 128 -136 161 -222l72 16c-11 25 -23 50 -37 75h247v56h-153c18 31 35 65 42 88l-66 22c-8 -30 -28 -73 -49 -110zM284 510v35c44 39 124 116 144 138l-40 60c-19 -28 -65 -80 -104 -123v337h-71v-337c-40 90 -92 178 -143 230c-7 -19 -24 -50 -35 -68
c63 -59 131 -172 169 -272h-149v-71h158v-148h71v148h126v71h-126zM798 613v-146h-235v146h235zM563 842h235v-163h-235v163zM947 400v67h-76v489h-73v-45h-235v46h-73v-490h-73v-67h73v-110h73v110h235v-110h73v110h76z" />
</svg>
