<?xml version="1.0" standalone="no"?>
<!DOCTYPE svg PUBLIC "-//W3C//DTD SVG 1.1//EN" "http://www.w3.org/Graphics/SVG/1.1/DTD/svg11.dtd" >
<svg xmlns="http://www.w3.org/2000/svg" xmlns:xlink="http://www.w3.org/1999/xlink" version="1.1" viewBox="-10 0 1010 1000">
   <path fill="currentColor"
d="M266 177h-60c-29 39 -61 73 -95 99c-13 -9 -44 -26 -62 -34c67 -48 127 -124 159 -203l71 15c-10 23 -22 46 -35 68h246v55h-150c15 24 27 49 33 67l-65 21c-6 -24 -24 -58 -42 -88zM340 749v130c40 1 73 1 84 0c12 0 15 -3 15 -14v-116h-99zM184 691h98v-78h-95
c0 24 -1 51 -3 78zM363 348h-130c-15 24 -30 47 -49 71h127c17 -19 36 -45 52 -71zM187 476v80h95v-80h-95zM439 556v-80h-99v80h99zM439 691v-78h-99v78h99zM732 422h191s0 24 -1 34c-13 293 -25 398 -53 433c-16 22 -33 29 -59 32c-24 3 -66 2 -109 0
c-2 -21 -7 -50 -18 -69c42 4 80 5 97 5c16 0 24 -2 32 -13c19 -23 32 -113 43 -354h-127c-14 200 -54 357 -181 455c-10 -18 -31 -42 -46 -56c-4 21 -12 34 -30 42c-22 12 -59 13 -113 13c-2 -16 -10 -38 -18 -55v38h-58v-178h-105c-12 72 -34 146 -79 203
c-11 -13 -39 -33 -53 -40c70 -90 79 -211 79 -304v-122c-12 11 -25 22 -37 33c-10 -15 -31 -35 -45 -44c86 -67 145 -158 174 -232l64 11c-6 14 -13 28 -19 42h140l13 -4l40 30c-20 33 -45 67 -72 97h120v447c0 7 0 14 -1 21c114 -85 149 -222 162 -397h-123v-68h127
c1 -39 2 -79 3 -122h66c-1 43 -2 83 -4 122zM635 124h305v56h-176c20 23 37 47 46 64l-60 31c-12 -26 -38 -64 -64 -95h-84c-24 38 -52 71 -81 98c-14 -10 -45 -27 -63 -36c60 -48 108 -124 134 -202l73 12c-9 25 -19 48 -30 72z" />
</svg>
