<?xml version="1.0" standalone="no"?>
<!DOCTYPE svg PUBLIC "-//W3C//DTD SVG 1.1//EN" "http://www.w3.org/Graphics/SVG/1.1/DTD/svg11.dtd" >
<svg xmlns="http://www.w3.org/2000/svg" xmlns:xlink="http://www.w3.org/1999/xlink" version="1.1" viewBox="-10 0 1010 1000">
   <path fill="currentColor"
d="M682 181h-84c-26 43 -57 81 -89 111c-13 -8 -43 -26 -62 -34c63 -53 114 -134 141 -218l71 12c-8 24 -18 48 -29 71h310v58h-179c26 31 50 66 62 91l-62 27c-14 -31 -47 -80 -79 -118zM264 181h-53c-31 44 -66 84 -101 114c-14 -9 -45 -26 -63 -35
c69 -53 128 -135 161 -221l72 15c-10 24 -21 46 -34 69h244v58h-153c20 34 38 70 44 96l-64 21c-9 -30 -30 -78 -53 -117zM339 306l48 28c-30 65 -65 143 -98 205c72 62 91 116 92 165c0 46 -14 79 -40 96c-15 8 -32 14 -50 16c-19 2 -44 2 -67 1c-1 -18 -8 -44 -19 -62
c24 2 43 2 58 1c12 0 22 -2 30 -8c14 -8 20 -26 20 -51c-1 -40 -22 -91 -91 -148c26 -55 53 -119 73 -172h-125v580h-68v-647h225zM512 501v80h284v-80h-284zM796 369h-284v81h284v-81zM866 649l49 40c-46 35 -101 73 -149 102c50 49 112 86 183 109c-14 12 -33 37 -43 55
c-146 -53 -249 -165 -301 -318h-93v224l161 -36c0 18 4 44 6 59c-203 50 -234 59 -254 71c-7 -18 -24 -49 -37 -65c21 -10 55 -34 55 -74v-502h422v323h-198c16 42 39 81 65 116c47 -31 100 -73 134 -104z" />
</svg>
