<?xml version="1.0" standalone="no"?>
<!DOCTYPE svg PUBLIC "-//W3C//DTD SVG 1.1//EN" "http://www.w3.org/Graphics/SVG/1.1/DTD/svg11.dtd" >
<svg xmlns="http://www.w3.org/2000/svg" xmlns:xlink="http://www.w3.org/1999/xlink" version="1.1" viewBox="-10 0 1010 1000">
   <path fill="currentColor"
d="M772 800h-238v139h-67v-139h-245v-49h143c-11 -20 -25 -41 -37 -59l49 -20c19 24 38 55 50 79h145c17 -25 37 -60 48 -83l56 26c-14 20 -27 39 -40 57h136v49zM896 610v261c0 42 -8 60 -37 71s-79 11 -154 11c-2 -21 -12 -45 -22 -64c60 2 109 1 123 1
c16 -1 19 -6 19 -19v-206h-645v290h-70v-345h786zM724 509v-64h-445v64h445zM211 399h585v156h-585v-156zM78 291h855v57h-855v-57zM263 179h-51c-30 44 -65 82 -100 112c-14 -10 -45 -26 -62 -35c67 -52 125 -132 158 -217l72 15c-10 24 -21 46 -34 69h244v56h-153
c16 28 31 59 37 81l-65 20c-8 -27 -26 -67 -46 -101zM636 123h302v56h-178c23 27 43 56 54 77l-63 28c-13 -29 -42 -71 -70 -105h-75c-24 38 -50 71 -78 97c-13 -9 -45 -27 -62 -36c57 -47 102 -123 127 -200l72 12c-8 24 -17 48 -29 71z" />
</svg>
