<?xml version="1.0" standalone="no"?>
<!DOCTYPE svg PUBLIC "-//W3C//DTD SVG 1.1//EN" "http://www.w3.org/Graphics/SVG/1.1/DTD/svg11.dtd" >
<svg xmlns="http://www.w3.org/2000/svg" xmlns:xlink="http://www.w3.org/1999/xlink" version="1.1" viewBox="-10 0 1010 1000">
   <path fill="currentColor"
d="M267 178h-57c-29 41 -62 77 -95 105c-14 -8 -45 -24 -63 -31c68 -52 123 -131 154 -213l72 13c-9 24 -20 46 -33 69h246v57h-150c16 27 30 56 37 76l-66 23c-6 -27 -26 -66 -45 -99zM110 739l60 8c-10 72 -28 148 -50 197c-13 -5 -42 -13 -57 -16c24 -49 39 -121 47 -189
zM217 747l56 -10c18 55 31 126 33 174l-60 10c-1 -47 -13 -118 -29 -174zM327 732l54 -15c28 51 55 117 66 161l-57 15c-9 -43 -37 -111 -63 -161zM329 535l51 -19c34 55 65 128 75 175l-55 23c-4 -16 -10 -35 -17 -55c-240 25 -273 31 -294 40c-4 -12 -15 -39 -22 -55
c21 -3 45 -22 76 -51c17 -15 52 -50 93 -96c-110 10 -133 14 -147 20c-3 -13 -15 -41 -21 -54c15 -3 31 -16 50 -37c19 -19 83 -98 120 -174l67 23c-38 62 -84 123 -132 173l111 -8c25 -30 49 -63 71 -95l62 29c-69 92 -147 179 -226 249l173 -16c-11 -25 -23 -50 -35 -72z
M855 444h-137c-2 20 -5 39 -9 59c56 66 117 152 146 211v-270zM524 444v289c90 -89 122 -194 133 -289h-133zM921 380v486c0 37 -7 55 -33 66c-25 11 -65 12 -126 12c-3 -18 -14 -45 -22 -63c45 2 86 2 98 1c13 -1 17 -4 17 -16v-142l-47 30c-22 -48 -67 -120 -115 -184
c-23 73 -61 146 -127 211c-9 -11 -27 -27 -42 -37v206h-65v-570h203c1 -18 1 -35 1 -51v-54h60v55c0 16 0 32 -1 50h199zM640 121h300v57h-176c22 25 40 52 50 71l-65 25c-11 -26 -38 -64 -64 -96h-73c-23 43 -51 81 -80 110c-14 -9 -46 -24 -64 -31
c58 -53 101 -134 126 -217l72 11c-7 24 -16 47 -26 70z" />
</svg>
