<?xml version="1.0" standalone="no"?>
<!DOCTYPE svg PUBLIC "-//W3C//DTD SVG 1.1//EN" "http://www.w3.org/Graphics/SVG/1.1/DTD/svg11.dtd" >
<svg xmlns="http://www.w3.org/2000/svg" xmlns:xlink="http://www.w3.org/1999/xlink" version="1.1" viewBox="-10 0 1010 1000">
   <path fill="currentColor"
d="M265 180h-54c-31 45 -66 85 -101 115c-14 -10 -45 -26 -63 -35c69 -53 128 -135 161 -221l72 15c-10 24 -21 47 -34 70h246v56h-154c17 29 32 61 39 83l-65 21c-8 -27 -27 -68 -47 -104zM395 572l7 63c-41 11 -83 23 -124 34v198c0 40 -9 58 -37 69
c-25 11 -66 12 -133 12c-3 -19 -13 -46 -22 -65c45 1 89 1 101 0c13 0 18 -4 18 -17v-178l-133 36l-18 -69c42 -9 94 -21 151 -35v-154h-136v-63h136v-126h73v126h123v63h-123v136c38 -9 78 -20 117 -30zM500 703h352v-80h-352v80zM852 491h-352v76h352v-76zM917 433v438
c0 38 -7 56 -31 68c-22 11 -59 12 -114 12c-3 -20 -13 -47 -21 -65c39 1 75 1 86 1c11 -1 15 -4 15 -16v-111h-352v194h-65v-521h78c-18 -34 -49 -82 -79 -118l52 -30c33 39 71 91 86 125l-37 23h104v-175h69v175h66c25 -43 57 -106 74 -150l61 26c-21 41 -44 87 -67 124h75
zM637 123h303v56h-178c22 28 44 59 55 80l-63 27c-13 -29 -42 -71 -71 -107h-75c-25 39 -52 74 -81 102c-13 -10 -45 -27 -63 -36c58 -49 104 -126 129 -205l73 12c-8 24 -18 48 -29 71z" />
</svg>
