<?xml version="1.0" standalone="no"?>
<!DOCTYPE svg PUBLIC "-//W3C//DTD SVG 1.1//EN" "http://www.w3.org/Graphics/SVG/1.1/DTD/svg11.dtd" >
<svg xmlns="http://www.w3.org/2000/svg" xmlns:xlink="http://www.w3.org/1999/xlink" version="1.1" viewBox="-10 0 1010 1000">
   <path fill="currentColor"
d="M688 181h-85c-21 32 -45 61 -70 83c-14 -10 -45 -26 -64 -33c56 -46 100 -116 124 -187l72 12c-8 22 -17 44 -27 65h302v60h-174c17 24 33 49 41 67l-65 25c-9 -25 -31 -61 -54 -92zM458 324l60 36c-55 44 -114 83 -173 116l286 -17c-22 -17 -44 -33 -65 -46l51 -29
c65 42 145 105 185 145l-52 33c-15 -15 -36 -34 -59 -54c-401 27 -444 31 -471 40c-4 -13 -14 -44 -22 -61c20 -3 42 -13 68 -27c29 -15 124 -74 192 -136zM331 261l64 17c-67 83 -186 150 -294 192c-10 -13 -36 -39 -51 -50c101 -34 208 -88 266 -153l-9 3
c-6 -24 -20 -59 -38 -89h-64c-28 37 -60 70 -93 96c-14 -9 -45 -24 -62 -31c67 -49 125 -125 157 -203l72 12c-10 23 -21 44 -33 66h245v60h-148c13 23 24 47 29 66zM437 579v297c0 35 -7 51 -34 62c-25 10 -67 10 -133 10c-3 -18 -13 -41 -22 -57c48 1 92 1 103 0
c13 -1 17 -4 17 -15v-79c-99 37 -202 74 -281 101l-30 -53c78 -24 195 -62 311 -100v-110h-287v-56h356zM302 725l-48 38c-26 -28 -80 -68 -122 -92l46 -32c44 23 98 61 124 86zM875 579v298c0 35 -7 53 -34 63s-69 11 -137 11c-3 -18 -14 -42 -22 -60c50 2 93 1 106 1
s17 -4 17 -15v-100c-103 38 -209 76 -292 104l-30 -54c80 -22 202 -64 322 -104v-88h-206c45 24 96 60 123 85l-48 38c-27 -28 -80 -68 -122 -92l45 -31h-101v-56h379zM583 279l61 -25c66 67 193 133 299 165c-17 12 -39 35 -49 52c-108 -39 -237 -116 -311 -192z" />
</svg>
