<?xml version="1.0" standalone="no"?>
<!DOCTYPE svg PUBLIC "-//W3C//DTD SVG 1.1//EN" "http://www.w3.org/Graphics/SVG/1.1/DTD/svg11.dtd" >
<svg xmlns="http://www.w3.org/2000/svg" xmlns:xlink="http://www.w3.org/1999/xlink" version="1.1" viewBox="-10 0 1010 1000">
   <path fill="currentColor"
d="M680 178h-74c-22 33 -45 62 -70 86c-13 -10 -45 -28 -62 -35c53 -46 96 -117 119 -189l73 12c-8 24 -18 47 -29 70h301v56h-179c25 30 48 63 60 88l-61 30c-14 -32 -46 -80 -78 -118zM911 333v166h-72v-106h-675v106h-69v-166h374c-10 -23 -24 -50 -37 -71l70 -16
c18 27 35 60 46 87h363zM612 462l52 -38c75 38 166 96 213 138l-53 43c-47 -43 -138 -105 -212 -143zM328 424l65 23c-56 63 -145 124 -221 163c-11 -13 -36 -39 -51 -49c77 -34 158 -84 207 -137zM264 178h-49c-32 50 -70 95 -109 129c-15 -10 -45 -27 -63 -34
c71 -56 131 -143 165 -234l71 14c-9 24 -19 47 -32 70h243v55h-150c25 33 47 70 58 97l-64 23c-11 -32 -41 -80 -70 -120zM321 686h376c-71 -39 -136 -84 -199 -142c-50 53 -111 100 -177 142zM300 852h401v-105h-401v105zM493 447l64 28c-6 8 -12 15 -18 23
c117 109 261 173 421 225c-19 15 -38 40 -48 59c-47 -17 -94 -36 -138 -57v230h-73v-43h-401v43h-71v-217c-45 24 -92 44 -140 61c-10 -17 -28 -41 -46 -57c178 -58 355 -167 450 -295z" />
</svg>
