<?xml version="1.0" standalone="no"?>
<!DOCTYPE svg PUBLIC "-//W3C//DTD SVG 1.1//EN" "http://www.w3.org/Graphics/SVG/1.1/DTD/svg11.dtd" >
<svg xmlns="http://www.w3.org/2000/svg" xmlns:xlink="http://www.w3.org/1999/xlink" version="1.1" viewBox="-10 0 1010 1000">
   <path fill="currentColor"
d="M264 171h-57c-30 40 -64 76 -99 104c-14 -9 -44 -25 -63 -33c69 -48 127 -123 159 -202l72 13c-10 22 -21 44 -34 65h247v53h-151c16 23 30 49 36 66l-64 21c-8 -23 -27 -58 -46 -87zM270 387l68 21c-21 46 -49 93 -79 137v412h-71v-322c-30 34 -62 64 -93 90
c-9 -15 -32 -46 -46 -61c88 -66 172 -169 221 -277zM787 706v-90h-326v90h326zM461 853h326v-91h-326v91zM938 118l1 53h-182c18 23 33 49 41 66l-67 20c-8 -23 -29 -57 -51 -86h-78c-19 25 -40 49 -62 67c-6 -4 -16 -9 -27 -15c17 23 33 51 42 74h364v143h-41v44h-221
c-9 27 -18 52 -26 75h227v394h-71v-42h-326v45h-68v-397h168c6 -24 13 -50 18 -75h-217v-59h486v-67h-691v83h-68v-144h392c-10 -20 -22 -40 -34 -58l60 -19c-11 -5 -22 -10 -30 -14c53 -40 94 -102 116 -166l73 12c-8 23 -19 44 -31 66h303z" />
</svg>
