<?xml version="1.0" standalone="no"?>
<!DOCTYPE svg PUBLIC "-//W3C//DTD SVG 1.1//EN" "http://www.w3.org/Graphics/SVG/1.1/DTD/svg11.dtd" >
<svg xmlns="http://www.w3.org/2000/svg" xmlns:xlink="http://www.w3.org/1999/xlink" version="1.1" viewBox="-10 0 1010 1000">
   <path fill="currentColor"
d="M685 182h-81c-23 38 -49 72 -78 99c-13 -8 -44 -27 -62 -34c56 -50 100 -127 125 -206l73 13c-7 24 -17 48 -28 71h305v57h-176c19 25 37 53 44 72l-62 26c-11 -26 -36 -66 -60 -98zM275 182h-65c-31 43 -65 82 -100 111c-14 -9 -46 -26 -63 -34
c68 -53 127 -134 161 -219l71 14c-10 24 -21 48 -34 71h245v57h-140c17 27 33 56 41 77l-65 21c-8 -26 -29 -64 -51 -98zM344 335l60 31c-70 95 -148 185 -227 256l159 -15c-11 -27 -22 -54 -34 -79l52 -13c30 57 61 134 72 181l-56 18c-4 -16 -8 -35 -15 -54
c-220 23 -250 30 -268 38c-4 -14 -14 -44 -22 -62c21 -3 44 -22 74 -52c15 -14 47 -47 84 -89c-104 10 -124 14 -138 21c-4 -14 -14 -46 -21 -62c15 -2 31 -15 47 -35c18 -18 78 -93 114 -165l62 26c-36 59 -79 117 -123 163l107 -7c26 -32 51 -67 73 -101zM101 736l58 10
c-11 75 -30 158 -49 212c-13 -7 -41 -16 -56 -21c22 -54 38 -130 47 -201zM214 750l53 -10c11 57 22 129 25 178l-56 11c-2 -48 -12 -122 -22 -179zM328 735l50 -15c21 51 43 119 52 161l-53 18c-8 -44 -29 -112 -49 -164zM494 842l32 -54c116 21 271 64 354 102l-34 61
c-79 -39 -234 -86 -352 -109zM569 700l42 -49c73 18 165 55 216 81l-42 55c-50 -28 -142 -67 -216 -87zM591 385l-10 12c27 38 61 72 101 103c43 -34 80 -74 108 -115h-199zM842 323l47 27c-34 72 -87 135 -149 188c65 37 141 65 222 80c-15 15 -34 43 -44 62
c-86 -20 -165 -55 -233 -100c-69 49 -144 87 -218 113c-8 -17 -26 -43 -41 -57c69 -21 139 -55 203 -98c-33 -28 -64 -61 -89 -96c-26 25 -55 50 -87 73c-11 -17 -35 -41 -51 -50c93 -58 155 -138 187 -205l73 12c-8 18 -19 37 -31 55h199z" />
</svg>
