<?xml version="1.0" standalone="no"?>
<!DOCTYPE svg PUBLIC "-//W3C//DTD SVG 1.1//EN" "http://www.w3.org/Graphics/SVG/1.1/DTD/svg11.dtd" >
<svg xmlns="http://www.w3.org/2000/svg" xmlns:xlink="http://www.w3.org/1999/xlink" version="1.1" viewBox="-10 0 1010 1000">
   <path fill="currentColor"
d="M265 172h-58c-30 41 -63 77 -96 106c-14 -11 -46 -28 -63 -35c66 -50 124 -127 156 -206l72 14c-9 22 -20 44 -33 65h250v56h-155c15 26 29 54 35 74l-65 21c-7 -24 -25 -63 -43 -95zM264 628h462c-73 -38 -141 -84 -190 -134h-3v125h-71v-125c-52 50 -123 96 -198 134z
M533 869h210v-69h-210v69zM257 800v69h205v-69h-205zM462 750v-67h-205v67h205zM743 750v-67h-210v67h210zM462 432v-106c-58 3 -116 5 -174 6c27 30 56 71 69 100h105zM687 172h-77c-20 34 -44 66 -68 91c71 -5 138 -11 194 -18c-11 -21 -30 -49 -49 -73zM944 494h-324
c88 67 221 123 341 150c-16 14 -36 40 -46 59c-32 -9 -66 -21 -99 -34v287h-73v-33h-486v34h-70v-294c-35 15 -71 28 -104 38c-10 -18 -30 -44 -46 -58c115 -29 245 -84 336 -149h-313v-62h221c-13 -25 -33 -53 -52 -76l58 -24c-47 1 -93 2 -138 2c-1 -16 -9 -41 -16 -55
c127 -2 268 -7 394 -15c-15 -10 -40 -22 -54 -30c53 -48 97 -121 121 -197l72 12c-7 23 -15 45 -26 67h301v56h-175c16 20 29 39 36 55l-30 13l16 -2l52 52c-85 14 -192 25 -307 32v110h103c23 -31 52 -78 68 -110l69 20c-21 32 -45 64 -67 90h238v62z" />
</svg>
