<?xml version="1.0" standalone="no"?>
<!DOCTYPE svg PUBLIC "-//W3C//DTD SVG 1.1//EN" "http://www.w3.org/Graphics/SVG/1.1/DTD/svg11.dtd" >
<svg xmlns="http://www.w3.org/2000/svg" xmlns:xlink="http://www.w3.org/1999/xlink" version="1.1" viewBox="-10 0 1010 1000">
   <path fill="currentColor"
d="M695 179h-90c-18 27 -38 52 -58 73h42c4 28 11 54 22 78l136 -12c-26 -18 -64 -38 -97 -53l37 -33c20 7 41 17 62 28c-11 -23 -32 -55 -54 -81zM427 347l118 -11c-8 -22 -15 -46 -19 -70c-15 -10 -42 -25 -59 -32c57 -47 101 -120 126 -194l73 12c-8 25 -18 48 -30 71
h302v56h-165c18 22 35 46 44 63l-63 21c18 10 35 21 46 29l-24 24l146 -14l6 53l-289 27c17 26 36 48 58 67c40 -22 75 -46 101 -74l60 22c-31 32 -70 61 -114 87c39 23 80 36 116 35c25 0 31 -17 35 -68c15 10 34 19 52 24c-10 83 -34 105 -90 104c-57 0 -120 -23 -175 -63
c-71 33 -151 59 -225 79c-8 -12 -28 -39 -42 -50c75 -16 152 -39 221 -68c-25 -25 -48 -55 -67 -88l-136 13zM268 179h-56c-32 45 -66 85 -102 116c-14 -10 -45 -26 -63 -35c69 -53 128 -135 161 -221l71 15c-9 24 -20 46 -33 69h244v56h-149c16 25 30 52 37 71l-64 22
c-8 -25 -27 -62 -46 -93zM358 461l43 13c-39 251 -146 412 -290 497c-9 -17 -27 -42 -42 -55c73 -40 138 -107 186 -197c-27 -25 -65 -53 -98 -72l32 -48c32 16 67 40 92 61c18 -41 32 -86 42 -135h-120c-28 69 -64 128 -105 175c-11 -10 -40 -32 -55 -42
c67 -70 113 -178 139 -299h-110v-64h351v64h-170c-8 36 -18 72 -28 105h120zM817 702l60 23c-39 42 -91 79 -149 110c47 39 97 61 140 60c27 -1 34 -20 38 -77c14 12 35 20 52 25c-11 89 -35 112 -92 112c-65 0 -137 -32 -197 -89c-80 36 -167 63 -251 85
c-8 -14 -29 -39 -43 -52c86 -18 175 -43 253 -76c-25 -32 -48 -68 -66 -108l-151 14l-5 -56l137 -12c-8 -26 -14 -55 -17 -83h65c3 27 9 53 17 77l143 -12c-27 -18 -65 -41 -99 -54l37 -34c39 14 88 41 113 61l-26 25l156 -14l5 54l-308 28c16 33 37 62 58 86
c52 -26 96 -57 130 -93z" />
</svg>
