<?xml version="1.0" standalone="no"?>
<!DOCTYPE svg PUBLIC "-//W3C//DTD SVG 1.1//EN" "http://www.w3.org/Graphics/SVG/1.1/DTD/svg11.dtd" >
<svg xmlns="http://www.w3.org/2000/svg" xmlns:xlink="http://www.w3.org/1999/xlink" version="1.1" viewBox="-10 0 1010 1000">
   <path fill="currentColor"
d="M684 179h-79c-25 38 -51 71 -80 97c-13 -9 -45 -27 -63 -36c58 -47 106 -123 131 -200l73 12c-8 24 -18 48 -30 71h302v56h-176c19 24 36 49 46 68l-63 27c-11 -26 -35 -62 -61 -95zM533 339v64h271v-64h-271zM466 449v-156h408v156h-408zM266 179h-55
c-32 44 -67 84 -103 114c-14 -10 -44 -27 -63 -36c70 -52 130 -132 163 -218l72 15c-10 24 -21 46 -34 69h242v56h-147c15 26 30 55 37 75l-66 20c-7 -25 -26 -62 -46 -95zM383 563l6 63c-39 10 -78 21 -117 32v202c0 38 -9 56 -35 67c-25 11 -66 12 -132 12
c-3 -19 -12 -45 -21 -64c45 2 89 2 101 1c13 0 18 -4 18 -17v-182c-47 12 -92 24 -132 35l-17 -69c41 -9 93 -21 149 -35v-161h-139v-64h139v-109h69v109h117v64h-117v144zM548 759v70c73 -5 155 -11 238 -17v-53h-238zM786 546h-238v55h238v-55zM548 652v57h238v-57h-238z
M953 798v56l-96 8v97h-71v-91c-154 13 -302 25 -409 33l-6 -61c32 -2 68 -4 107 -7v-287h-81v-55h544v55h-84v260z" />
</svg>
