<?xml version="1.0" standalone="no"?>
<!DOCTYPE svg PUBLIC "-//W3C//DTD SVG 1.1//EN" "http://www.w3.org/Graphics/SVG/1.1/DTD/svg11.dtd" >
<svg xmlns="http://www.w3.org/2000/svg" xmlns:xlink="http://www.w3.org/1999/xlink" version="1.1" viewBox="-10 0 1010 1000">
   <path fill="currentColor"
d="M703 171h-88c-19 26 -39 50 -60 70c-13 -10 -45 -26 -62 -34c48 -41 88 -103 108 -166l74 12c-8 22 -17 43 -28 64h294v54h-160c17 24 32 48 40 66l-67 21c-10 -24 -29 -57 -51 -87zM289 171h-76c-28 35 -59 66 -90 90c-14 -8 -45 -25 -63 -33c65 -44 121 -114 152 -187
l72 13c-10 22 -21 42 -33 63h249v54h-138c17 25 32 51 39 70l-67 19c-8 -24 -26 -58 -45 -89zM611 792v-60h-223v60h223zM673 696v132h-344v-132h344zM767 656h-525v213h525v-213zM169 955v-347h672v346h-74v-36h-525v37h-73zM536 508h409v57h-886v-57h404v-173h-348v-55
h348v-50h73v50h356v55h-356v173zM272 343l57 12c-7 12 -15 25 -23 38c39 21 84 48 110 67l-38 36c-23 -19 -64 -46 -103 -69c-31 32 -70 58 -109 78c-10 -11 -32 -29 -46 -38c66 -28 126 -70 152 -124zM691 346l57 10c-4 10 -8 21 -15 32c51 23 110 53 142 76l-37 37
c-30 -22 -84 -51 -134 -75c-26 30 -61 53 -96 72c-10 -10 -32 -27 -47 -36c61 -26 110 -65 130 -116z" />
</svg>
