<?xml version="1.0" standalone="no"?>
<!DOCTYPE svg PUBLIC "-//W3C//DTD SVG 1.1//EN" "http://www.w3.org/Graphics/SVG/1.1/DTD/svg11.dtd" >
<svg xmlns="http://www.w3.org/2000/svg" xmlns:xlink="http://www.w3.org/1999/xlink" version="1.1" viewBox="-10 0 1010 1000">
   <path fill="currentColor"
d="M679 169h-72c-22 33 -47 64 -74 87c-14 -9 -45 -24 -64 -32c56 -45 99 -114 124 -184l72 12c-8 22 -17 44 -28 65h303v52h-183c22 24 42 51 51 70l-65 21c-11 -24 -37 -61 -64 -91zM245 572v-122c-46 54 -107 106 -162 135c-9 -14 -27 -34 -40 -45
c61 -27 129 -79 175 -133h-139v-49h166v-52c-43 3 -86 4 -125 3c-1 -10 -6 -23 -11 -34c-14 -9 -44 -26 -63 -34c70 -48 128 -123 162 -202l71 13c-9 22 -21 43 -34 65h249v52h-140c16 21 29 42 36 58l-63 21c-9 -21 -29 -52 -49 -79h-67c-27 35 -56 67 -87 93
c100 -2 221 -11 288 -26l33 46c-38 8 -88 15 -141 20v56h159v43c54 -46 98 -112 124 -180l61 13c-8 20 -17 39 -27 59h285s-1 19 -3 28c-11 145 -23 202 -43 223c-14 16 -30 21 -51 23c-20 1 -55 1 -91 -1c-1 -17 -7 -40 -16 -57c34 4 64 5 77 5s20 -2 27 -9
c11 -13 21 -54 30 -156h-86c-29 74 -75 143 -123 191c-11 -9 -34 -27 -49 -36c45 -39 83 -95 108 -155h-99c-27 39 -57 74 -87 101c-11 -11 -36 -29 -51 -38l6 -5h-151v8c44 19 99 48 128 70l-33 39c-22 -17 -59 -39 -95 -58v106h-59zM695 666l51 37c-38 27 -82 51 -120 71
c83 33 170 71 223 100l-33 51c-63 -37 -181 -90 -281 -129v93c0 34 -7 48 -32 58c-23 10 -60 10 -115 10c-4 -18 -14 -40 -23 -57c40 1 75 1 85 1c12 0 15 -3 15 -13v-92c-106 44 -217 88 -302 121l-32 -58c60 -20 143 -48 231 -80c-29 -20 -81 -45 -125 -62l37 -44
c45 14 99 40 129 60l-36 44l98 -36v-139h70v138l33 12c41 -22 96 -61 127 -86zM485 468l58 25c-5 5 -10 11 -15 16c95 72 276 140 428 167c-14 14 -34 40 -44 58c-146 -34 -317 -107 -422 -191c-106 89 -257 153 -410 191c-7 -15 -23 -40 -38 -54c172 -38 351 -111 443 -212
z" />
</svg>
