<?xml version="1.0" standalone="no"?>
<!DOCTYPE svg PUBLIC "-//W3C//DTD SVG 1.1//EN" "http://www.w3.org/Graphics/SVG/1.1/DTD/svg11.dtd" >
<svg xmlns="http://www.w3.org/2000/svg" xmlns:xlink="http://www.w3.org/1999/xlink" version="1.1" viewBox="-10 0 1010 1000">
   <path fill="currentColor"
d="M687 165h-84c-21 34 -46 65 -70 89c-14 -11 -43 -32 -60 -41c52 -45 96 -113 120 -183l68 16c-7 21 -15 41 -25 62h306v57h-181c16 25 32 50 40 69l-57 29c-11 -26 -34 -66 -57 -98zM277 166h-66c-28 40 -59 76 -90 104c-13 -11 -43 -30 -59 -39
c60 -48 114 -121 144 -197l68 17c-8 20 -17 39 -28 58h246v57h-149c14 26 26 54 32 75l-57 20c-7 -25 -24 -63 -41 -95zM136 626h197s0 20 -1 29c-9 172 -18 237 -39 261c-16 17 -34 24 -62 25c-23 2 -68 1 -113 -1c-2 -19 -10 -44 -21 -62c47 5 93 5 108 5
c16 0 26 -1 33 -8c12 -15 20 -66 27 -191h-138v1h-61c11 -63 22 -159 28 -236h162v-114h-183v-62h246v238h-169c-4 39 -9 79 -14 115zM599 640l-26 32c-9 -15 -22 -31 -39 -48c-18 21 -37 40 -57 56c-8 -9 -20 -21 -30 -27c20 -16 40 -36 58 -57c-16 -15 -33 -29 -49 -41
l26 -28c16 11 31 24 47 36c13 -18 23 -37 31 -55l37 20c-9 22 -23 43 -38 65c17 16 31 32 40 47zM555 686l39 18c-9 22 -21 45 -34 66c18 20 33 39 42 56l-28 32c-9 -15 -23 -33 -38 -51c-16 22 -34 44 -53 61c-8 -9 -20 -20 -31 -28c19 -18 39 -40 56 -65
c-17 -16 -36 -33 -53 -47l27 -28c16 11 32 25 48 40c10 -19 19 -36 25 -54zM834 634l-27 32c-8 -14 -22 -30 -38 -47c-17 21 -37 39 -57 55c-7 -9 -20 -20 -30 -27c20 -16 39 -37 57 -57c-16 -15 -32 -29 -48 -40l25 -29c16 11 32 23 47 36c13 -18 24 -37 32 -54l38 19
c-11 22 -24 43 -38 64c16 16 30 33 39 48zM838 820l-29 33c-8 -16 -22 -34 -38 -52c-16 22 -34 44 -54 61c-7 -8 -20 -20 -30 -28c20 -19 39 -41 56 -65c-18 -17 -35 -33 -53 -48l27 -27c16 12 32 25 47 40c11 -18 20 -36 27 -54l38 18c-9 22 -21 45 -34 67
c18 20 33 39 43 55zM499 329l38 22c-22 25 -51 51 -82 73h159v-95h-115zM683 424h171c-30 -26 -65 -52 -97 -72l32 -23h-106v95zM952 437l-35 29v408c0 33 -6 50 -28 59c-21 11 -56 12 -109 11c-2 -16 -11 -40 -18 -57c36 1 69 1 79 1s14 -3 14 -14v-390h-178v464h-57v-464
h-174v473h-60v-491l-10 5c-9 -13 -26 -28 -37 -39c54 -25 113 -66 145 -103h-109v-59h569v59h-127c50 33 105 77 135 108z" />
</svg>
