<?xml version="1.0" standalone="no"?>
<!DOCTYPE svg PUBLIC "-//W3C//DTD SVG 1.1//EN" "http://www.w3.org/Graphics/SVG/1.1/DTD/svg11.dtd" >
<svg xmlns="http://www.w3.org/2000/svg" xmlns:xlink="http://www.w3.org/1999/xlink" version="1.1" viewBox="-10 0 1010 1000">
   <path fill="currentColor"
d="M719 747h-430c58 34 135 63 222 84c82 -21 154 -49 208 -84zM801 692l41 29c-53 56 -131 100 -221 134c99 18 207 30 314 36c-14 15 -29 41 -37 59c-133 -9 -268 -29 -388 -60c-134 36 -284 56 -425 66c-4 -18 -15 -46 -25 -61c112 -5 230 -18 339 -38
c-79 -29 -149 -63 -201 -105l9 -5h-107v-52h688zM724 423v-45h-118v45h118zM724 508v-44h-118v44h118zM724 598v-49h-118v49h118zM297 507v-44h-111v44h111zM297 598v-50h-111v50h111zM297 422v-47h-111v47h111zM629 121h306v54h-163c18 21 33 44 40 60l-59 26l9 -2
c16 22 32 53 42 76h114v43h-133v45h109v41h-109v44h109v41h-109v49h141v44h-320v24h-60v-235c-17 20 -33 37 -50 52c-9 -10 -27 -28 -41 -40v20h-98v44h98v41h-98v50h130v43h-301v26h-61v-235c-17 20 -33 40 -51 56c-10 -10 -32 -35 -45 -46c55 -48 104 -121 133 -194l60 15
c-9 24 -20 46 -32 69h118c-10 -22 -22 -45 -33 -65l53 -12c-9 -23 -28 -53 -48 -80h-70c-30 44 -66 83 -103 115c-12 -11 -42 -30 -59 -38c68 -51 127 -130 160 -213l70 14c-9 23 -20 46 -33 68h245v54h-133c17 23 30 46 38 64l-60 20c15 23 30 50 40 73h108v43h-126v47h98
v13c56 -49 107 -118 137 -189l60 16c-11 25 -24 49 -37 73h123c-10 -21 -21 -44 -33 -64l46 -10c-11 -24 -33 -57 -57 -86h-96c-24 36 -51 70 -80 95c-12 -10 -41 -29 -58 -38c56 -47 102 -118 126 -192l73 12c-9 24 -19 46 -30 69z" />
</svg>
