<?xml version="1.0" standalone="no"?>
<!DOCTYPE svg PUBLIC "-//W3C//DTD SVG 1.1//EN" "http://www.w3.org/Graphics/SVG/1.1/DTD/svg11.dtd" >
<svg xmlns="http://www.w3.org/2000/svg" xmlns:xlink="http://www.w3.org/1999/xlink" version="1.1" viewBox="-10 0 1010 1000">
   <path fill="currentColor"
d="M373 103l65 17c-25 75 -56 168 -83 224l-48 -16c23 -59 52 -158 66 -225zM173 326l-58 15c-5 -59 -27 -151 -54 -221l54 -13c29 69 51 160 58 219zM421 665l-48 59c-17 -35 -60 -105 -96 -159v390h-69v-397c-36 102 -85 207 -132 272c-8 -22 -26 -54 -37 -73
c56 -69 119 -198 153 -310h-142v-70h158v-330h69v330h135v70h-135v33c35 41 123 155 144 185zM529 434h172c-5 -82 -8 -171 -9 -264c-54 10 -109 18 -163 25v239zM948 504h-171c17 225 56 370 106 370c17 0 26 -49 28 -157c16 16 41 31 60 38c-10 148 -33 191 -95 191
c-100 0 -148 -181 -170 -442h-177v348l162 -49c2 19 6 48 9 63c-200 69 -229 82 -247 97c-9 -19 -29 -52 -42 -66c19 -12 46 -40 46 -82v-674c149 -20 324 -51 424 -83l53 59c-49 15 -107 28 -169 41c-1 99 2 192 7 276h176v70z" />
</svg>
