<?xml version="1.0" standalone="no"?>
<!DOCTYPE svg PUBLIC "-//W3C//DTD SVG 1.1//EN" "http://www.w3.org/Graphics/SVG/1.1/DTD/svg11.dtd" >
<svg xmlns="http://www.w3.org/2000/svg" xmlns:xlink="http://www.w3.org/1999/xlink" version="1.1" viewBox="-10 0 1010 1000">
   <path fill="currentColor"
d="M863 104l70 18c-33 79 -79 172 -114 231c-16 -9 -47 -24 -65 -31c39 -60 81 -145 109 -218zM605 316l-66 30c-22 -57 -73 -147 -115 -214l63 -24c43 66 94 152 118 208zM164 326l-54 15c-5 -59 -27 -151 -53 -221l51 -13c28 69 49 160 56 219zM252 447v32
c31 37 109 139 126 165l-45 60c-14 -31 -50 -91 -81 -140v392h-64v-400c-32 97 -75 194 -116 254c-8 -23 -25 -54 -36 -74c51 -65 106 -185 138 -289h-125v-70h139v-330h64v330h124v70h-124zM312 344l-46 -16c22 -59 51 -158 64 -225l61 17c-24 75 -55 168 -79 224zM957 598
v71h-235v287h-76v-287h-231v-71h231v-150h-215v-71h215v-334h76v334h208v71h-208v150h235z" />
</svg>
