<?xml version="1.0" standalone="no"?>
<!DOCTYPE svg PUBLIC "-//W3C//DTD SVG 1.1//EN" "http://www.w3.org/Graphics/SVG/1.1/DTD/svg11.dtd" >
<svg xmlns="http://www.w3.org/2000/svg" xmlns:xlink="http://www.w3.org/1999/xlink" version="1.1" viewBox="-10 0 1010 1000">
   <path fill="currentColor"
d="M158 326l-54 16c-5 -59 -25 -152 -49 -221l51 -15c25 70 45 160 52 220zM253 447v38c34 38 114 136 132 161l-43 60c-15 -31 -56 -93 -89 -142v391h-64v-391c-32 102 -76 206 -118 269c-7 -22 -24 -56 -35 -75c51 -70 108 -200 139 -311h-126v-70h140v-331h64v331h129v70
h-129zM321 347l-46 -18c21 -58 47 -157 59 -225l61 19c-22 75 -52 168 -74 224zM825 888h37c10 0 20 -1 26 -4s11 -12 13 -27c3 -17 4 -54 5 -103c15 13 41 24 62 30c-2 46 -5 97 -12 115c-6 20 -17 31 -32 39c-14 7 -38 10 -55 10h-58c-22 0 -47 -6 -62 -18
c-17 -13 -23 -29 -23 -92v-308h-93c-9 200 -39 344 -187 428c-9 -16 -30 -41 -47 -52c132 -73 155 -200 162 -376h-128v-67h226v-182h-116c-19 49 -42 93 -67 128c-14 -10 -45 -25 -63 -33c58 -72 95 -185 117 -299l69 10c-8 44 -19 87 -32 127h92v-171h73v171h189v67h-189
v182h223v67h-158v316c0 20 2 33 8 37c5 4 12 5 20 5z" />
</svg>
