<?xml version="1.0" standalone="no"?>
<!DOCTYPE svg PUBLIC "-//W3C//DTD SVG 1.1//EN" "http://www.w3.org/Graphics/SVG/1.1/DTD/svg11.dtd" >
<svg xmlns="http://www.w3.org/2000/svg" xmlns:xlink="http://www.w3.org/1999/xlink" version="1.1" viewBox="-10 0 1010 1000">
   <path fill="currentColor"
d="M329 106l62 16c-21 72 -46 166 -68 221l-46 -14c19 -59 43 -156 52 -223zM155 326l-54 13c-1 -58 -19 -146 -40 -212l51 -12c23 68 41 154 43 211zM377 658l-42 59c-14 -31 -52 -88 -82 -134v373h-64v-381c-32 93 -73 185 -113 243c-8 -20 -26 -50 -38 -68
c51 -66 106 -189 137 -295h-125v-70h139v-341h64v341h131v70h-131v46c28 32 107 133 124 157zM705 380v154c57 112 161 228 261 282c-17 13 -39 38 -50 56c-75 -47 -151 -129 -211 -218v300h-71v-303c-64 95 -150 180 -235 228c-11 -17 -34 -43 -50 -56
c111 -54 223 -172 285 -290v-153h-126v238h-70v-299h196v-97h-226v-67h226v-110h71v110h240v67h-240v97h197v28c-1 159 -1 219 -16 239c-11 15 -24 22 -45 24c-16 2 -45 3 -73 2c-1 -21 -8 -47 -16 -65c24 3 45 3 54 3c8 0 15 -1 19 -8c6 -11 7 -50 7 -162h-127z" />
</svg>
