<?xml version="1.0" standalone="no"?>
<!DOCTYPE svg PUBLIC "-//W3C//DTD SVG 1.1//EN" "http://www.w3.org/Graphics/SVG/1.1/DTD/svg11.dtd" >
<svg xmlns="http://www.w3.org/2000/svg" xmlns:xlink="http://www.w3.org/1999/xlink" version="1.1" viewBox="-10 0 1010 1000">
   <path fill="currentColor"
d="M829 74l63 21c-26 46 -63 103 -92 140c-13 -10 -42 -24 -59 -31c32 -36 65 -86 88 -130zM576 191l-58 33c-18 -31 -55 -84 -85 -122l55 -29c30 38 68 88 88 118zM319 105l59 16c-22 72 -51 165 -75 220l-44 -13c21 -58 48 -157 60 -223zM152 328l-51 12
c-8 -60 -27 -151 -47 -220l49 -11c20 69 41 160 49 219zM766 473h-166c-16 32 -35 63 -56 90h263v159c0 33 -6 49 -30 60c-24 10 -61 11 -117 11c-3 -19 -12 -42 -20 -59c42 1 77 1 88 0s14 -3 14 -13v-97h-176v222c0 30 9 37 62 37h178c41 0 49 -15 54 -110
c16 12 45 23 65 28c-10 118 -32 149 -114 149h-188c-98 0 -127 -21 -127 -104v-227c-26 27 -56 52 -88 74c-8 -11 -28 -29 -42 -43l-45 51c-14 -30 -49 -88 -79 -135v389h-63v-385c-30 97 -71 193 -109 252c-8 -19 -25 -48 -36 -64c50 -70 104 -200 133 -311h-118v-70h130
v-330h63v330h121v70h-121v34c28 35 94 121 120 157c67 -44 119 -98 161 -165h-123v-65h156c15 -31 28 -65 38 -101h-158v-62h174c14 -62 24 -128 32 -202l69 6c-8 71 -19 136 -33 196h236v62h-250c-11 35 -22 70 -35 101h328v65h-123c36 61 84 118 132 149
c-16 12 -37 36 -49 53c-57 -44 -114 -123 -151 -202z" />
</svg>
