<?xml version="1.0" standalone="no"?>
<!DOCTYPE svg PUBLIC "-//W3C//DTD SVG 1.1//EN" "http://www.w3.org/Graphics/SVG/1.1/DTD/svg11.dtd" >
<svg xmlns="http://www.w3.org/2000/svg" xmlns:xlink="http://www.w3.org/1999/xlink" version="1.1" viewBox="-10 0 1010 1000">
   <path fill="currentColor"
d="M819 244v-94h-319v94h319zM819 396v-95h-319v95h319zM888 89v368h-455v-368h455zM154 325l-52 16c-6 -59 -25 -151 -47 -221l49 -13c24 69 44 160 50 218zM245 47v330h129v70h-129v34c31 44 108 155 125 184l-43 60c-14 -34 -51 -102 -82 -156v387h-63v-392
c-32 102 -74 205 -114 267c-7 -21 -23 -55 -35 -73c51 -70 105 -200 136 -311h-121v-70h134v-330h63zM313 344l-45 -16c21 -59 47 -157 58 -225l59 18c-23 75 -50 167 -72 223zM500 862l158 -39c1 19 3 46 6 62c-189 53 -218 63 -235 75c-4 -19 -16 -55 -26 -74
c13 -6 30 -17 30 -52v-342h67v120h160v65h-160v185zM784 880h87c22 0 27 -17 29 -114c15 12 41 23 60 27c-7 119 -25 150 -84 150h-100c-71 0 -89 -21 -89 -95v-363h68v158c54 -27 109 -58 145 -86l49 53c-57 34 -129 67 -194 94v144c0 27 4 32 29 32z" />
</svg>
