<?xml version="1.0" standalone="no"?>
<!DOCTYPE svg PUBLIC "-//W3C//DTD SVG 1.1//EN" "http://www.w3.org/Graphics/SVG/1.1/DTD/svg11.dtd" >
<svg xmlns="http://www.w3.org/2000/svg" xmlns:xlink="http://www.w3.org/1999/xlink" version="1.1" viewBox="-10 0 1010 1000">
   <path fill="currentColor"
d="M833 226v-85h-308v85h308zM833 366v-86h-308v86h308zM904 85v337h-446v-337h446zM338 105l66 17c-24 72 -53 162 -77 215l-50 -15c22 -57 50 -153 61 -217zM155 326l-58 14c-1 -58 -18 -146 -42 -215l53 -12c25 67 44 156 47 213zM392 662l-44 58
c-17 -31 -56 -89 -90 -136v371h-68v-369c-33 91 -74 178 -116 233c-7 -20 -25 -52 -38 -70c53 -67 109 -187 141 -294h-128v-70h141v-341h68v341h130v70h-130v45c34 37 116 136 134 162zM702 729v145c32 7 67 9 103 9c20 0 135 0 163 -1c-9 16 -19 47 -22 65h-146
c-139 0 -244 -30 -312 -157c-26 68 -62 126 -110 171c-10 -12 -40 -35 -55 -45c82 -71 124 -186 140 -327l70 9c-5 39 -12 75 -20 110c27 73 67 116 117 142v-298h-230v-65h549v65h-247v114h214v63h-214z" />
</svg>
