<?xml version="1.0" standalone="no"?>
<!DOCTYPE svg PUBLIC "-//W3C//DTD SVG 1.1//EN" "http://www.w3.org/Graphics/SVG/1.1/DTD/svg11.dtd" >
<svg xmlns="http://www.w3.org/2000/svg" xmlns:xlink="http://www.w3.org/1999/xlink" version="1.1" viewBox="-10 0 1010 1000">
   <path fill="currentColor"
d="M338 101l61 18c-22 76 -51 169 -73 225l-45 -17c20 -59 46 -158 57 -226zM166 326l-53 16c-5 -59 -25 -151 -47 -221l50 -15c24 70 44 160 50 220zM256 447v17c35 39 127 154 146 184l-41 61c-19 -36 -67 -111 -105 -166v412h-63v-398c-34 105 -79 211 -124 276
c-7 -22 -23 -56 -33 -75c52 -70 110 -199 143 -311h-131v-70h145v-331h63v331h143v70h-143zM528 742h290v-72h-290v72zM818 550h-290v68h290v-68zM888 494v392c0 35 -7 50 -32 61c-25 10 -63 10 -124 10c-3 -17 -13 -40 -21 -56c43 1 81 1 92 0c11 0 15 -3 15 -14v-93h-290
v162h-69v-462h429zM847 268v-72h-142v72h142zM847 393v-73h-142v73h142zM494 320v73h147v-73h-147zM494 196v72h147v-72h-147zM705 142h210v305h-487v-305h213v-97h64v97z" />
</svg>
