<?xml version="1.0" standalone="no"?>
<!DOCTYPE svg PUBLIC "-//W3C//DTD SVG 1.1//EN" "http://www.w3.org/Graphics/SVG/1.1/DTD/svg11.dtd" >
<svg xmlns="http://www.w3.org/2000/svg" xmlns:xlink="http://www.w3.org/1999/xlink" version="1.1" viewBox="-10 0 1010 1000">
   <path fill="currentColor"
d="M597 199v100h164v-100h-164zM845 482h-131v85h131v-85zM845 704v-86h-131v86h131zM514 618v86h131v-86h-131zM514 482v85h131v-85h-131zM645 427v-69h-244v-59h130v-100h-108v-57h108v-98h66v98h164v-98h66v98h114v57h-114v100h131v59h-244v69h200v332h-467v-332h198z
M333 104l63 18c-24 76 -52 168 -75 225l-47 -18c21 -58 47 -158 59 -225zM160 326l-55 15c-5 -59 -25 -151 -49 -221l52 -14c25 69 46 160 52 220zM388 646l-44 60c-16 -32 -57 -94 -90 -143v392h-65v-390c-33 102 -76 205 -118 268c-7 -22 -25 -56 -36 -75
c51 -70 109 -200 141 -311h-125v-70h138v-331h65v331h132v70h-132v35c32 37 116 137 134 164zM572 776l62 39c-57 54 -147 110 -224 143c-10 -15 -29 -37 -42 -51c73 -31 161 -86 204 -131zM724 817l48 -40c71 44 148 99 194 140l-59 40c-42 -40 -116 -97 -183 -140z" />
</svg>
