<?xml version="1.0" standalone="no"?>
<!DOCTYPE svg PUBLIC "-//W3C//DTD SVG 1.1//EN" "http://www.w3.org/Graphics/SVG/1.1/DTD/svg11.dtd" >
<svg xmlns="http://www.w3.org/2000/svg" xmlns:xlink="http://www.w3.org/1999/xlink" version="1.1" viewBox="-10 0 1010 1000">
   <path fill="currentColor"
d="M619 238v-66h-221v-53h221v-74h73v74h238v53h-238v66h212v52h-474v-52h189zM445 394v99h-60v-152h549v152h-62v-99h-427zM834 505h-354v-51h354v51zM322 104l58 19c-21 73 -49 167 -70 223l-44 -16c20 -59 45 -158 56 -226zM154 325l-51 15c-4 -59 -22 -150 -45 -220
l47 -14c25 70 45 160 49 219zM368 646l-40 60c-14 -31 -52 -93 -83 -142v392h-61v-389c-29 101 -69 199 -109 258c-8 -19 -24 -48 -36 -64c50 -69 103 -200 131 -314h-123v-70h137v-330h61v330h109v70h-109v36c31 39 107 139 123 163zM501 610v86h310v-86h-310zM768 862h185
v59h-615v-59h194c-9 -28 -24 -66 -39 -97l62 -16c16 32 35 75 44 102l-35 11h137c19 -36 40 -82 51 -115h-318v-188h446v188h-124l67 19c-18 33 -37 67 -55 96z" />
</svg>
