<?xml version="1.0" standalone="no"?>
<!DOCTYPE svg PUBLIC "-//W3C//DTD SVG 1.1//EN" "http://www.w3.org/Graphics/SVG/1.1/DTD/svg11.dtd" >
<svg xmlns="http://www.w3.org/2000/svg" xmlns:xlink="http://www.w3.org/1999/xlink" version="1.1" viewBox="-10 0 1010 1000">
   <path fill="currentColor"
d="M949 250l-55 25c-13 -42 -46 -110 -77 -159l51 -21c32 48 67 114 81 155zM565 237l-39 35c-12 -16 -33 -41 -55 -63c-19 47 -44 87 -77 118c-8 -10 -31 -28 -44 -37c60 -54 91 -138 104 -239l55 6c-5 35 -11 68 -20 99c30 25 61 57 76 81zM309 104l55 18
c-20 76 -47 168 -68 225l-40 -18c18 -59 43 -158 53 -225zM146 325l-48 16c-5 -59 -24 -151 -45 -221l46 -14c23 69 42 159 47 219zM233 447v36c27 35 90 124 106 150l-40 59c-11 -29 -41 -82 -66 -127v389h-57v-391c-30 103 -70 206 -108 270c-7 -23 -21 -56 -31 -75
c47 -70 98 -200 126 -311h-114v-70h127v-331h57v331h104v70h-104zM723 780l1 36c19 -23 37 -49 53 -75c-14 -92 -23 -211 -28 -347h-118v62h88v52h-88v59h83v52h-83v62h93v53h-93v58zM515 394v414l61 -8v-406h-61zM746 280l-42 31c-13 -24 -39 -57 -65 -88
c-19 43 -42 80 -71 110h179zM881 468l56 19c-22 98 -57 184 -100 260c14 78 31 123 52 124c14 1 24 -45 30 -120c10 15 34 33 46 40c-19 127 -48 161 -77 160c-44 -1 -74 -49 -96 -132c-39 55 -84 102 -133 139c-10 -11 -29 -27 -42 -37c32 -24 61 -51 90 -83
c-125 19 -254 38 -347 51l-11 -59l110 -14v-77h-94v-52h94v-66h-85v-53h85v-59h-88v-52h88v-63h-104v-61h212c-11 -9 -32 -25 -45 -33c61 -56 91 -140 104 -243l54 6c-5 38 -11 73 -21 105c33 34 68 75 87 105c-2 -72 -2 -148 -3 -227h62c0 102 0 198 3 287h150v61h-148
c3 96 8 182 15 253c23 -55 43 -115 56 -179z" />
</svg>
