<?xml version="1.0" standalone="no"?>
<!DOCTYPE svg PUBLIC "-//W3C//DTD SVG 1.1//EN" "http://www.w3.org/Graphics/SVG/1.1/DTD/svg11.dtd" >
<svg xmlns="http://www.w3.org/2000/svg" xmlns:xlink="http://www.w3.org/1999/xlink" version="1.1" viewBox="-10 0 1010 1000">
   <path fill="currentColor"
d="M904 104v70h-460v-70h460zM60 414c-3 -13 -13 -46 -21 -63c16 -4 33 -25 54 -55s91 -144 130 -252l65 27c-43 94 -97 191 -153 267l106 -10c26 -43 53 -90 75 -137l60 34c-65 119 -144 238 -225 333l180 -26c-11 -33 -25 -68 -39 -98l53 -19c30 62 59 143 69 192l-57 21
c-2 -13 -6 -26 -9 -42c-232 35 -263 43 -281 53c-4 -15 -15 -47 -21 -65c19 -4 42 -29 71 -66c16 -19 48 -62 85 -118c-106 12 -127 17 -142 24zM84 682l60 10c-11 86 -30 179 -51 241c-13 -7 -42 -17 -56 -21c22 -61 38 -150 47 -230zM194 689l54 -11c13 67 25 153 28 211
l-57 14c-2 -59 -14 -146 -25 -214zM305 669l51 -16c25 61 50 141 61 192l-54 18c-11 -53 -35 -133 -58 -194zM952 402h-327c-10 47 -22 97 -32 141h302s-1 23 -3 34c-22 223 -45 314 -80 348c-22 22 -42 28 -75 30c-28 2 -80 2 -135 -2c-1 -21 -9 -51 -23 -70
c56 4 110 5 130 5c19 0 31 -1 41 -11c26 -22 46 -95 64 -264h-317c18 -57 39 -140 54 -211h-144v-70h545v70z" />
</svg>
