<?xml version="1.0" standalone="no"?>
<!DOCTYPE svg PUBLIC "-//W3C//DTD SVG 1.1//EN" "http://www.w3.org/Graphics/SVG/1.1/DTD/svg11.dtd" >
<svg xmlns="http://www.w3.org/2000/svg" xmlns:xlink="http://www.w3.org/1999/xlink" version="1.1" viewBox="-10 0 1010 1000">
   <path fill="currentColor"
d="M426 611l-58 19c-3 -15 -6 -32 -10 -50c-243 41 -275 48 -295 60c-3 -16 -13 -50 -21 -68c20 -5 44 -30 75 -66c17 -18 52 -62 91 -117c-114 13 -137 19 -149 26c-4 -15 -14 -49 -22 -66c17 -4 34 -25 56 -54c22 -30 95 -145 139 -255l63 30c-46 95 -104 192 -162 268
l119 -12c28 -42 56 -88 80 -134l57 38c-70 118 -151 231 -233 322l186 -28c-10 -34 -21 -67 -31 -96l54 -14c26 64 51 147 61 197zM95 683l60 12c-16 85 -41 180 -62 240c-14 -8 -42 -18 -58 -22c24 -62 47 -151 60 -230zM206 689l54 -13c12 66 25 154 29 211l-58 14
c-2 -57 -14 -145 -25 -212zM320 668l50 -18c22 53 45 123 56 169l-54 21c-9 -47 -32 -117 -52 -172zM682 282v69c0 50 -1 102 -6 153h139v-222h-133zM956 571h-242c43 150 125 270 246 327c-15 13 -36 40 -46 59c-124 -67 -206 -191 -253 -352c-25 129 -83 252 -209 353
c-10 -14 -35 -35 -51 -46c123 -98 176 -218 198 -341h-163v-67h173c6 -51 7 -103 7 -153v-69h-166v-70h166v-168h66v168h198v292h76v67z" />
</svg>
