<?xml version="1.0" standalone="no"?>
<!DOCTYPE svg PUBLIC "-//W3C//DTD SVG 1.1//EN" "http://www.w3.org/Graphics/SVG/1.1/DTD/svg11.dtd" >
<svg xmlns="http://www.w3.org/2000/svg" xmlns:xlink="http://www.w3.org/1999/xlink" version="1.1" viewBox="-10 0 1010 1000">
   <path fill="currentColor"
d="M814 200h-597v95h597v-95zM217 356v38c0 163 -16 402 -123 563c-12 -15 -43 -40 -61 -48c100 -152 111 -363 111 -515v-255h344c-11 -26 -24 -55 -36 -78l70 -22c16 31 35 69 48 100h317v217h-670zM399 747l62 27c-60 49 -142 107 -208 144c-11 -13 -37 -38 -52 -50
c68 -32 145 -79 198 -121zM838 679l-220 18v179c0 38 -7 55 -34 66c-27 10 -68 10 -133 10c-3 -20 -14 -45 -22 -63c48 1 91 1 103 1c13 -1 16 -4 16 -16v-172c-240 19 -274 22 -298 30c-3 -13 -11 -45 -19 -62c29 -3 68 -18 120 -42c29 -11 86 -40 155 -78
c-171 10 -196 13 -212 19v-1c-3 -15 -13 -46 -21 -64c17 -2 38 -11 62 -23c24 -14 106 -66 165 -123l61 34c-56 46 -116 88 -175 119l204 -10c49 -29 99 -62 145 -95l56 38c-125 87 -253 157 -376 212l376 -29c-19 -20 -39 -41 -56 -59l48 -35c53 53 125 127 161 172l-50 41
c-14 -19 -33 -42 -56 -67zM690 785l36 -50c69 36 163 90 212 124l-38 57c-47 -36 -140 -92 -210 -131z" />
</svg>
