<?xml version="1.0" standalone="no"?>
<!DOCTYPE svg PUBLIC "-//W3C//DTD SVG 1.1//EN" "http://www.w3.org/Graphics/SVG/1.1/DTD/svg11.dtd" >
<svg xmlns="http://www.w3.org/2000/svg" xmlns:xlink="http://www.w3.org/1999/xlink" version="1.1" viewBox="-10 0 1010 1000">
   <path fill="currentColor"
d="M439 620l-61 22c-3 -17 -7 -36 -12 -57c-232 35 -263 43 -283 54c-4 -15 -14 -48 -23 -67c21 -4 45 -29 76 -66c16 -17 49 -60 87 -116c-110 13 -132 18 -147 25c-3 -15 -14 -49 -23 -68c17 -4 34 -25 55 -55c20 -30 88 -145 127 -254l70 29c-42 94 -96 192 -151 269
l113 -10c26 -42 53 -88 75 -134l63 37c-67 115 -147 230 -229 322l173 -23c-10 -30 -20 -62 -32 -89l57 -18c28 65 57 149 65 199zM101 682l61 11c-12 86 -33 181 -55 242c-14 -6 -42 -16 -59 -21c25 -62 43 -150 53 -232zM220 689l56 -12c13 67 25 153 29 211l-60 15
c-2 -59 -14 -146 -25 -214zM337 669l54 -17c23 61 49 141 60 192l-56 20c-10 -53 -36 -134 -58 -195zM956 273h-273v140h259v68h-259v151h264v69h-264v256h-73v-684h-56c-28 67 -60 127 -95 175c-12 -13 -42 -40 -58 -52c67 -87 121 -220 152 -355l73 17
c-12 49 -27 98 -44 145h374v70z" />
</svg>
