<?xml version="1.0" standalone="no"?>
<!DOCTYPE svg PUBLIC "-//W3C//DTD SVG 1.1//EN" "http://www.w3.org/Graphics/SVG/1.1/DTD/svg11.dtd" >
<svg xmlns="http://www.w3.org/2000/svg" xmlns:xlink="http://www.w3.org/1999/xlink" version="1.1" viewBox="-10 0 1010 1000">
   <path fill="currentColor"
d="M84 682l62 11c-10 85 -28 179 -47 241c-14 -7 -43 -17 -60 -22c22 -61 36 -150 45 -230zM191 689l58 -13c13 68 26 154 29 212l-61 15c-2 -58 -13 -146 -26 -214zM300 669l54 -17c24 61 50 140 61 191l-57 20c-10 -53 -35 -133 -58 -194zM296 445l57 -18
c28 62 57 142 68 191l-62 23c-3 -16 -8 -34 -14 -55c-229 35 -260 42 -279 53c-4 -15 -15 -50 -23 -70c20 -5 44 -28 74 -65c16 -18 50 -59 86 -113c-107 12 -129 17 -143 24c-4 -15 -15 -51 -24 -70c17 -4 34 -25 55 -55c22 -28 90 -141 131 -248l71 30
c-44 93 -100 190 -156 265l109 -10c26 -41 53 -86 74 -130l64 38c-66 114 -146 229 -227 319l171 -24c-10 -29 -22 -58 -32 -85zM726 165v112v23h198v561c0 38 -7 58 -34 69c-27 12 -69 13 -139 12c-2 -19 -11 -46 -20 -65c49 2 94 1 107 1c13 -1 18 -5 18 -18v-492h-133
c-1 19 -2 36 -4 55c50 94 106 212 130 282l-58 32c-17 -56 -52 -139 -91 -216c-19 79 -56 157 -120 228c-10 -16 -34 -38 -48 -50c91 -100 118 -220 125 -331h-135v585h-67v-653h205v-24v-111h-234v-67h528v67h-228z" />
</svg>
