<?xml version="1.0" standalone="no"?>
<!DOCTYPE svg PUBLIC "-//W3C//DTD SVG 1.1//EN" "http://www.w3.org/Graphics/SVG/1.1/DTD/svg11.dtd" >
<svg xmlns="http://www.w3.org/2000/svg" xmlns:xlink="http://www.w3.org/1999/xlink" version="1.1" viewBox="-10 0 1010 1000">
   <path fill="currentColor"
d="M78 414v-3c-1 1 -1 3 -1 4c-3 -14 -14 -47 -20 -64c15 -4 33 -25 52 -55c22 -29 90 -144 130 -252l62 27c-43 95 -96 192 -150 267l105 -10c26 -43 52 -90 73 -137l58 34c-64 119 -142 238 -221 333l175 -24c-11 -35 -25 -69 -38 -99l51 -19c30 62 58 142 68 191l-55 22
c-2 -12 -6 -27 -10 -42c-225 35 -255 43 -273 52c-4 -14 -14 -47 -22 -64c20 -4 43 -30 72 -67c16 -18 47 -62 83 -118c-105 12 -126 17 -139 24zM101 682l57 10c-10 86 -29 179 -49 241c-12 -7 -41 -16 -55 -20c23 -62 38 -150 47 -231zM206 689l53 -10
c13 66 24 152 27 210l-56 14c-2 -59 -13 -146 -24 -214zM314 670l50 -17c23 60 48 137 58 187l-53 19c-10 -51 -33 -131 -55 -189zM906 404l53 14c-26 77 -57 163 -85 216l-64 -15c17 -37 38 -92 55 -145h-127v396c0 40 -8 61 -36 72c-29 12 -73 14 -141 14
c-3 -21 -14 -51 -23 -71c51 1 97 1 110 0c14 0 18 -4 18 -16v-356c-50 121 -122 239 -207 303c-8 -21 -25 -47 -38 -65c76 -61 151 -167 195 -277h-202v-67h327c-55 -48 -141 -104 -214 -141l39 -48c36 17 76 39 113 62c40 -34 84 -79 116 -122h-331v-66h383l14 -5l50 36
c-45 67 -112 141 -174 195c29 21 56 42 75 61l-21 28h103z" />
</svg>
