<?xml version="1.0" standalone="no"?>
<!DOCTYPE svg PUBLIC "-//W3C//DTD SVG 1.1//EN" "http://www.w3.org/Graphics/SVG/1.1/DTD/svg11.dtd" >
<svg xmlns="http://www.w3.org/2000/svg" xmlns:xlink="http://www.w3.org/1999/xlink" version="1.1" viewBox="-10 0 1010 1000">
   <path fill="currentColor"
d="M640 809v-399c-51 71 -109 133 -170 182c-9 -15 -33 -46 -46 -60c112 -83 209 -212 269 -358h-256v-68h508v68h-176c-18 44 -37 86 -60 126v509h-69zM716 342l52 -35c64 66 147 158 186 214l-55 42c-37 -58 -117 -152 -183 -221zM89 682l58 10c-10 86 -29 179 -50 241
c-12 -7 -41 -17 -56 -21c23 -62 38 -150 48 -230zM195 690l55 -12c13 67 25 153 28 211l-58 12c-2 -58 -13 -145 -25 -211zM307 671l51 -17c23 58 47 134 57 183l-54 18c-9 -50 -33 -126 -54 -184zM296 446l53 -17c31 62 59 143 69 193l-57 21c-3 -15 -7 -33 -13 -52
c-227 31 -258 38 -277 48c-3 -15 -15 -48 -23 -66c21 -5 46 -29 76 -65c17 -18 52 -62 91 -119c-113 14 -136 19 -150 26c-4 -15 -15 -48 -22 -66c16 -4 33 -24 54 -56c21 -28 90 -143 131 -252l66 29c-44 95 -99 191 -153 267l116 -9c27 -41 53 -85 75 -129l60 37
c-67 114 -149 231 -233 321l172 -21c-10 -30 -23 -63 -35 -90zM420 860h536v68h-536v-68z" />
</svg>
