<?xml version="1.0" standalone="no"?>
<!DOCTYPE svg PUBLIC "-//W3C//DTD SVG 1.1//EN" "http://www.w3.org/Graphics/SVG/1.1/DTD/svg11.dtd" >
<svg xmlns="http://www.w3.org/2000/svg" xmlns:xlink="http://www.w3.org/1999/xlink" version="1.1" viewBox="-10 0 1010 1000">
   <path fill="currentColor"
d="M396 619l-59 18c-2 -13 -5 -30 -9 -48c-213 34 -242 41 -261 50c-3 -14 -14 -47 -22 -64c21 -4 44 -30 74 -66c17 -18 51 -62 89 -119c-112 13 -133 18 -148 25c-3 -14 -14 -47 -21 -64c16 -4 34 -25 54 -55c21 -29 91 -144 131 -252l64 28c-44 94 -98 192 -153 267
l113 -10c27 -42 52 -85 73 -130l60 36c-66 115 -146 231 -227 322l160 -23c-9 -32 -21 -66 -32 -96l54 -15c28 63 53 146 60 196zM84 683l59 9c-10 87 -29 180 -51 241c-12 -6 -41 -16 -55 -20c22 -62 38 -150 47 -230zM190 689l56 -10c12 64 24 147 27 202l-58 14
c-2 -57 -13 -141 -25 -206zM297 670l49 -15c19 53 39 122 47 166l-52 16c-7 -46 -26 -114 -44 -167zM942 562h-212c58 96 151 191 237 240c-18 14 -42 40 -54 59c-74 -51 -152 -138 -211 -230v321h-70v-318c-55 93 -128 185 -200 236c-8 -21 -25 -52 -37 -72
c75 -51 159 -145 209 -236h-194v-66h222v-102h-192v-65h192v-100h-205v-65h205v-119h70v119h220v65h-220v100h198v65h-198v102h240v66z" />
</svg>
