<?xml version="1.0" standalone="no"?>
<!DOCTYPE svg PUBLIC "-//W3C//DTD SVG 1.1//EN" "http://www.w3.org/Graphics/SVG/1.1/DTD/svg11.dtd" >
<svg xmlns="http://www.w3.org/2000/svg" xmlns:xlink="http://www.w3.org/1999/xlink" version="1.1" viewBox="-10 0 1010 1000">
   <path fill="currentColor"
d="M214 377l40 -27c36 25 76 64 95 92l-42 32c-18 -29 -58 -70 -93 -97zM199 604l43 -27c37 28 79 71 97 102l-43 32c-19 -32 -59 -77 -97 -107zM139 742h228c4 -47 6 -108 9 -187h-215c-7 69 -15 133 -22 187zM381 329h-198c-5 53 -10 110 -16 166h211c1 -49 2 -104 3 -166
zM486 555h-48c-2 77 -5 139 -8 187h40v64h-44c-6 55 -14 83 -24 99c-15 24 -34 32 -60 35c-22 3 -60 2 -96 0c-2 -18 -8 -44 -17 -60c38 3 72 3 89 3c14 1 21 -2 28 -15c6 -8 12 -28 16 -62h-295c9 -67 21 -157 32 -251h-56v-60h62c8 -76 16 -152 20 -218
c-14 23 -28 44 -44 63c-13 -11 -41 -30 -58 -38c60 -64 108 -160 135 -258l64 14c-8 25 -16 49 -25 73h280v62h-307c-13 28 -26 53 -40 77h315s-1 26 -1 35c-1 72 -3 134 -4 190h46v60zM564 617l61 16c-21 92 -58 193 -94 257c-11 -11 -37 -29 -52 -38
c36 -61 67 -151 85 -235zM873 534l-119 13v324c0 35 -7 53 -30 63c-22 11 -57 12 -109 12c-3 -19 -11 -44 -19 -62c34 1 67 1 78 0c10 0 13 -3 13 -13v-317c-124 14 -147 19 -164 26c-3 -14 -13 -49 -20 -68c20 -3 46 -26 78 -59c18 -17 55 -57 97 -108
c-118 7 -141 12 -155 17c-4 -14 -12 -47 -20 -64c15 -3 30 -19 49 -43s82 -116 119 -205l60 26c-39 77 -87 153 -135 213l130 -5c29 -39 58 -80 84 -122l63 32c-79 113 -167 220 -254 303l230 -21c-14 -29 -29 -59 -45 -86l53 -21c40 64 80 152 94 209l-57 24
c-4 -20 -12 -43 -21 -68zM797 633l56 -18c39 76 81 179 96 242l-61 23c-13 -63 -53 -167 -91 -247z" />
</svg>
