<?xml version="1.0" standalone="no"?>
<!DOCTYPE svg PUBLIC "-//W3C//DTD SVG 1.1//EN" "http://www.w3.org/Graphics/SVG/1.1/DTD/svg11.dtd" >
<svg xmlns="http://www.w3.org/2000/svg" xmlns:xlink="http://www.w3.org/1999/xlink" version="1.1" viewBox="-10 0 1010 1000">
   <path fill="currentColor"
d="M949 211h-395c-32 63 -70 118 -106 162c-13 -12 -42 -34 -59 -43c66 -71 125 -179 160 -287l70 19c-10 27 -21 56 -34 83h364v66zM391 615l-50 20c-2 -14 -6 -30 -10 -48c-217 35 -247 42 -265 52c-3 -15 -14 -47 -21 -65c20 -4 40 -29 69 -67c15 -18 46 -61 80 -116
c-100 12 -121 17 -134 24c-4 -14 -15 -46 -22 -64c16 -4 33 -24 51 -55c21 -29 88 -144 126 -252l63 27c-42 95 -95 193 -147 268l101 -10c25 -43 51 -91 72 -138l59 35c-63 118 -138 236 -215 331l167 -24c-12 -34 -25 -69 -38 -99l48 -15c29 62 57 145 66 196zM82 682
l58 10c-10 87 -28 180 -48 241c-12 -7 -40 -16 -56 -20c23 -62 37 -150 46 -231zM183 689l53 -11c12 67 24 154 27 211l-56 14c-2 -59 -13 -146 -24 -214zM288 670l50 -17c23 62 47 141 57 192l-53 19c-9 -53 -33 -133 -54 -194zM605 412l43 -33c38 29 88 70 113 95l-44 36
c-25 -26 -74 -68 -112 -98zM750 713l-45 37c-27 -30 -78 -79 -119 -115l43 -32c41 34 94 80 121 110zM519 762h293c5 -44 9 -102 13 -178h-283c-8 64 -16 125 -23 178zM833 359h-265c-5 53 -12 107 -18 163h277c2 -48 4 -102 6 -163zM957 584h-63c-3 74 -7 132 -11 178h65
v61h-72c-7 48 -16 75 -28 90c-19 25 -40 33 -71 36c-30 3 -82 2 -132 -1c-1 -19 -9 -45 -19 -63c54 5 103 5 123 5c18 1 28 -2 37 -14c7 -8 13 -25 19 -53h-366c11 -64 24 -150 36 -239h-74v-62h81c10 -78 18 -156 24 -224h397v36c-2 71 -4 133 -6 188h60v62z" />
</svg>
