<?xml version="1.0" standalone="no"?>
<!DOCTYPE svg PUBLIC "-//W3C//DTD SVG 1.1//EN" "http://www.w3.org/Graphics/SVG/1.1/DTD/svg11.dtd" >
<svg xmlns="http://www.w3.org/2000/svg" xmlns:xlink="http://www.w3.org/1999/xlink" version="1.1" viewBox="-10 0 1010 1000">
   <path fill="currentColor"
d="M95 682l52 10c-13 85 -33 178 -56 240c-10 -7 -36 -15 -50 -19c26 -62 43 -150 54 -231zM183 692l49 -12c11 68 23 154 26 212l-51 13c-3 -58 -13 -146 -24 -213zM276 673l47 -15c21 61 44 141 53 193l-50 16c-8 -53 -31 -133 -50 -194zM264 440l46 -16
c27 62 56 142 67 190l-50 21c-2 -16 -7 -33 -13 -54c-204 41 -232 48 -249 60c-3 -14 -13 -46 -20 -63c19 -5 39 -30 68 -66c15 -19 47 -65 83 -123c-104 14 -125 19 -138 26c-3 -14 -13 -46 -20 -64c15 -4 31 -25 48 -55c20 -29 80 -144 114 -252l59 27
c-36 95 -83 192 -133 267l106 -10c25 -42 49 -87 68 -131l56 32c-61 117 -134 233 -210 326l150 -27c-10 -30 -21 -60 -32 -88zM552 87l38 23c-18 82 -40 182 -67 283c50 91 72 156 72 217c0 51 -10 101 -31 120c-10 9 -23 14 -38 17c-10 2 -26 2 -42 1
c-1 -16 -6 -40 -15 -57c14 2 27 3 37 2c9 0 15 -3 21 -8c11 -10 15 -45 15 -77c0 -56 -20 -115 -70 -207c21 -88 39 -174 52 -246h-75v803h-54v-867h148zM754 354h-73v274h73v-274zM803 690h-122v67h-49v-464h171v397zM955 90v66h-39v710c0 42 -8 65 -35 77
c-27 13 -73 14 -141 14c-3 -19 -14 -52 -24 -71c56 1 105 1 120 0c15 0 19 -5 19 -21v-709h-238v-66h338z" />
</svg>
