<?xml version="1.0" standalone="no"?>
<!DOCTYPE svg PUBLIC "-//W3C//DTD SVG 1.1//EN" "http://www.w3.org/Graphics/SVG/1.1/DTD/svg11.dtd" >
<svg xmlns="http://www.w3.org/2000/svg" xmlns:xlink="http://www.w3.org/1999/xlink" version="1.1" viewBox="-10 0 1010 1000">
   <path fill="currentColor"
d="M667 322h-9c-57 76 -147 152 -224 193c-10 -16 -30 -38 -44 -51c68 -30 145 -83 200 -142h-183v-61h253c-42 -26 -92 -54 -134 -72l42 -38c31 13 64 31 95 48c35 -20 71 -45 101 -70h-313v-58h377l15 -3l45 32c-46 49 -110 96 -172 131c18 10 34 20 46 30h131l12 -3
l50 16c-30 61 -65 128 -95 171l-59 -19c17 -28 39 -66 57 -104h-123v119c0 34 -6 50 -32 59c-25 10 -64 10 -124 10c-4 -19 -13 -40 -21 -58c43 1 83 1 94 1c12 -1 15 -4 15 -14v-117zM65 640v-5c-4 -17 -14 -45 -21 -60c21 -4 42 -30 71 -67c15 -18 46 -62 81 -117
c-103 13 -123 17 -137 24c-3 -14 -13 -46 -21 -64c17 -4 34 -24 53 -55c21 -29 90 -144 130 -251l62 27c-44 94 -98 192 -151 268l102 -9c25 -44 51 -92 73 -139l57 34c-62 118 -138 237 -216 331l149 -22c-12 -35 -25 -70 -39 -101l51 -18c30 63 60 143 69 192l-55 22
c-2 -12 -6 -27 -10 -42c-198 34 -229 41 -247 51v1v-1zM84 683l56 10c-10 86 -28 179 -50 241c-11 -7 -39 -17 -54 -21c23 -62 38 -150 48 -230zM183 690l53 -11c12 67 24 153 27 211l-56 13c-2 -58 -13 -146 -24 -213zM282 670l49 -17c22 57 46 133 55 181l-52 18
c-8 -50 -32 -125 -52 -182zM939 677h-197c59 76 147 152 223 191c-16 13 -38 37 -49 55c-71 -45 -153 -123 -214 -205v239h-70v-233c-62 86 -148 164 -229 209c-11 -18 -33 -42 -48 -56c85 -40 177 -118 236 -200h-195v-63h236v-94h70v94h237v63z" />
</svg>
