<?xml version="1.0" standalone="no"?>
<!DOCTYPE svg PUBLIC "-//W3C//DTD SVG 1.1//EN" "http://www.w3.org/Graphics/SVG/1.1/DTD/svg11.dtd" >
<svg xmlns="http://www.w3.org/2000/svg" xmlns:xlink="http://www.w3.org/1999/xlink" version="1.1" viewBox="-10 0 1010 1000">
   <path fill="currentColor"
d="M375 628l-58 20c-3 -15 -7 -35 -12 -56c-189 31 -218 38 -236 47c-3 -14 -15 -49 -23 -67c20 -5 42 -30 68 -66c15 -18 45 -60 78 -113c-96 11 -116 15 -129 22c-4 -15 -16 -49 -23 -67c16 -3 33 -24 52 -55c19 -29 84 -144 120 -252l69 28c-40 94 -92 192 -144 268
l94 -8c22 -41 46 -85 65 -128l62 35c-57 113 -129 227 -203 317l136 -19c-9 -32 -20 -65 -31 -94l55 -16c26 66 51 153 60 204zM88 682l60 11c-10 86 -29 180 -50 241c-13 -7 -43 -16 -58 -21c23 -61 38 -150 48 -231zM190 690l56 -10c13 68 25 156 28 215l-59 12
c-2 -59 -13 -149 -25 -217zM286 671l51 -16c21 56 44 128 54 176l-55 18c-9 -48 -32 -121 -50 -178zM761 314l42 21c-66 164 -219 273 -372 327c-8 -16 -25 -38 -37 -51c59 -19 120 -48 175 -86c-17 -19 -39 -40 -58 -56l48 -30c19 14 39 33 56 50c40 -33 75 -72 100 -115
h-127c-44 40 -97 77 -163 109c-10 -14 -29 -37 -44 -45c115 -50 193 -123 231 -189l68 12c-11 19 -25 37 -39 56h108zM878 549l11 -3l43 21c-77 225 -267 335 -482 386c-6 -17 -22 -41 -35 -55c95 -20 187 -53 264 -103c-19 -21 -44 -45 -67 -63l50 -33c23 17 47 38 67 59
c49 -41 89 -91 116 -150h-134c-57 55 -130 105 -221 146c-10 -15 -29 -37 -43 -47c145 -60 243 -147 291 -228l68 13c-12 20 -25 38 -40 57h112zM932 194h-144c49 48 106 80 172 105c-17 15 -36 38 -46 56c-80 -39 -146 -89 -203 -161h-102c-51 71 -118 124 -195 162
c-12 -11 -39 -36 -57 -47c66 -27 123 -66 168 -115h-138v-63h183c16 -26 28 -55 37 -86l69 14c-8 26 -18 49 -29 72h285v63z" />
</svg>
