<?xml version="1.0" standalone="no"?>
<!DOCTYPE svg PUBLIC "-//W3C//DTD SVG 1.1//EN" "http://www.w3.org/Graphics/SVG/1.1/DTD/svg11.dtd" >
<svg xmlns="http://www.w3.org/2000/svg" xmlns:xlink="http://www.w3.org/1999/xlink" version="1.1" viewBox="-10 0 1010 1000">
   <path fill="currentColor"
d="M836 240v-97h-125v97h125zM836 394v-99h-125v99h125zM513 295v99h133v-99h-133zM513 143v97h133v-97h-133zM904 84v369h-456v-369h456zM389 618l-56 21c-2 -14 -4 -29 -8 -47c-210 30 -241 37 -259 47c-4 -15 -14 -48 -22 -66c20 -4 43 -29 73 -66c17 -17 51 -60 89 -116
c-110 12 -133 17 -147 23c-3 -13 -14 -46 -21 -63c16 -4 33 -25 53 -56c21 -29 90 -146 130 -255l63 28c-42 95 -96 193 -150 268l114 -9c27 -42 53 -87 75 -131l58 37c-65 115 -144 230 -225 321l155 -20c-8 -29 -18 -59 -27 -85l53 -16c23 60 45 138 52 185zM82 682l59 10
c-10 85 -27 179 -46 240c-13 -6 -40 -16 -56 -20c21 -61 35 -149 43 -230zM187 688l54 -12c13 67 25 153 28 211l-57 15c-2 -58 -13 -146 -25 -214zM295 669l51 -17c22 60 46 137 56 187l-53 20c-10 -51 -32 -130 -54 -190zM899 615l45 48c-43 35 -97 73 -145 101
c44 57 100 100 166 127c-15 13 -36 38 -46 58c-137 -62 -224 -189 -271 -356h-103v261l166 -48c0 20 3 49 5 64c-206 65 -236 77 -255 90c-4 -19 -15 -50 -26 -67c17 -7 40 -19 40 -56v-244h-79v-66h558v66h-241c13 44 31 86 53 123c46 -30 99 -70 133 -101z" />
</svg>
