<?xml version="1.0" standalone="no"?>
<!DOCTYPE svg PUBLIC "-//W3C//DTD SVG 1.1//EN" "http://www.w3.org/Graphics/SVG/1.1/DTD/svg11.dtd" >
<svg xmlns="http://www.w3.org/2000/svg" xmlns:xlink="http://www.w3.org/1999/xlink" version="1.1" viewBox="-10 0 1010 1000">
   <path fill="currentColor"
d="M394 622l-58 17c-2 -13 -5 -30 -9 -48c-212 31 -242 38 -260 48c-4 -14 -15 -48 -23 -65c21 -4 44 -30 74 -66c16 -18 49 -61 86 -116c-108 11 -130 16 -144 23c-4 -14 -15 -47 -21 -64c15 -4 32 -25 51 -55c20 -29 87 -144 125 -252l64 26c-40 95 -92 192 -144 267
l111 -10c27 -42 53 -87 74 -132l60 35c-66 117 -145 234 -226 326l160 -21c-8 -33 -19 -66 -30 -95l53 -14c26 64 49 147 57 196zM84 682l58 10c-10 87 -29 179 -50 241c-12 -7 -41 -17 -55 -21c22 -61 38 -149 47 -230zM188 688l54 -11c12 64 23 148 27 203l-57 15
c-2 -56 -12 -141 -24 -207zM291 669l51 -16c22 54 43 125 53 170l-54 20c-9 -47 -30 -119 -50 -174zM856 144h-349v96h349v-96zM747 874h213v61h-496v-61h216v-110h-158v-59h158v-92c-105 9 -125 13 -140 19c-4 -15 -14 -49 -22 -65c14 -3 28 -15 44 -34
c12 -12 48 -55 79 -105h-134c0 154 -11 378 -82 529c-12 -12 -41 -31 -57 -38c67 -143 73 -347 73 -495v-341h483v217h-417v69h443v59h-232c-29 46 -63 92 -99 129l210 -13c-19 -25 -40 -52 -58 -74l51 -24c44 49 96 116 120 159l-54 29c-6 -10 -13 -22 -21 -35l-146 11h26
v95h175v59h-175v110z" />
</svg>
