<?xml version="1.0" standalone="no"?>
<!DOCTYPE svg PUBLIC "-//W3C//DTD SVG 1.1//EN" "http://www.w3.org/Graphics/SVG/1.1/DTD/svg11.dtd" >
<svg xmlns="http://www.w3.org/2000/svg" xmlns:xlink="http://www.w3.org/1999/xlink" version="1.1" viewBox="-10 0 1010 1000">
   <path fill="currentColor"
d="M382 620l-54 20c-2 -14 -5 -30 -9 -48c-203 29 -233 36 -252 47c-3 -15 -14 -48 -22 -66c20 -5 43 -30 72 -66c15 -18 47 -60 83 -114c-103 11 -126 16 -140 22c-3 -14 -13 -47 -21 -64c16 -4 32 -25 52 -55c19 -29 84 -144 120 -252l64 28c-39 92 -90 189 -141 264
l106 -7c26 -42 51 -87 72 -132l60 37c-63 114 -140 230 -218 321l150 -20c-8 -32 -20 -65 -31 -94l51 -16c26 64 51 146 58 195zM80 682l56 10c-10 86 -27 179 -46 241c-13 -7 -39 -16 -55 -21c22 -60 36 -149 45 -230zM178 690l52 -13c11 65 22 148 25 203l-54 15
c-2 -57 -12 -140 -23 -205zM277 669l49 -15c20 54 38 121 46 165l-52 18c-8 -45 -25 -115 -43 -168zM946 213h-451v244c0 149 -12 356 -99 499c-12 -12 -39 -30 -54 -38c83 -133 91 -322 91 -461v-309h238c-14 -29 -33 -63 -51 -89l66 -20c23 34 48 77 64 109h196v65z
M738 472v72h107v-72h-107zM738 347v71h107v-71h-107zM852 861v-133h-264v133h264zM907 598h-169v69h179v288h-65v-33h-264v36h-63v-291h150v-69h-144v-54h144v-72h-172v-54h172v-71h-141v-54h141v-67h63v67h169v120h52v64h-52v121z" />
</svg>
