<?xml version="1.0" standalone="no"?>
<!DOCTYPE svg PUBLIC "-//W3C//DTD SVG 1.1//EN" "http://www.w3.org/Graphics/SVG/1.1/DTD/svg11.dtd" >
<svg xmlns="http://www.w3.org/2000/svg" xmlns:xlink="http://www.w3.org/1999/xlink" version="1.1" viewBox="-10 0 1010 1000">
   <path fill="currentColor"
d="M799 571l54 18c-17 55 -41 111 -65 155l92 -11c-11 -28 -25 -57 -39 -81l41 -16c28 48 57 114 69 152l-44 21c-2 -9 -6 -20 -10 -32c-125 19 -148 24 -161 31c-2 -12 -11 -40 -18 -53c11 -2 19 -14 29 -32c9 -16 40 -87 52 -152zM395 633l-59 18c-2 -17 -5 -37 -10 -60
c-208 31 -238 38 -257 48c-3 -15 -15 -49 -23 -67c21 -5 44 -30 73 -66c16 -18 48 -60 84 -115c-105 12 -126 17 -140 24c-4 -15 -16 -50 -23 -68c16 -4 33 -25 54 -55s90 -143 130 -252l69 28c-43 95 -98 191 -153 268l105 -10c25 -42 50 -87 71 -132l63 36
c-64 116 -143 233 -222 325l154 -21c-8 -33 -19 -67 -29 -98l56 -13c24 68 50 157 57 210zM88 682l62 11c-11 92 -30 193 -53 258c-13 -7 -43 -17 -59 -22c24 -64 40 -161 50 -247zM192 687l57 -9c12 74 24 167 27 231l-59 10c-2 -63 -12 -158 -25 -232zM295 669l50 -15
c20 56 42 128 51 175l-54 17c-9 -48 -29 -122 -47 -177zM493 487h122c7 -38 11 -76 15 -115h-137v115zM493 201v115h141c2 -39 3 -78 5 -115h-146zM844 316v-115h-138c-2 37 -3 77 -6 115h144zM844 487v-115h-148c-3 39 -7 77 -13 115h161zM753 883h121c25 0 30 -10 34 -73
c13 10 39 20 58 24c-7 87 -27 111 -86 111h-134c-78 0 -97 -19 -97 -91v-219c-41 129 -113 242 -243 319c-11 -17 -33 -40 -51 -51c147 -81 216 -211 249 -356h-178v-405h179c12 -32 23 -72 28 -99l81 13c-12 29 -25 60 -37 86h236v405h-200v307c0 25 5 29 40 29z" />
</svg>
