<?xml version="1.0" standalone="no"?>
<!DOCTYPE svg PUBLIC "-//W3C//DTD SVG 1.1//EN" "http://www.w3.org/Graphics/SVG/1.1/DTD/svg11.dtd" >
<svg xmlns="http://www.w3.org/2000/svg" xmlns:xlink="http://www.w3.org/1999/xlink" version="1.1" viewBox="-10 0 1010 1000">
   <path fill="currentColor"
d="M390 613l-55 22c-2 -12 -5 -27 -9 -44c-213 31 -243 38 -261 47c-4 -13 -14 -47 -22 -64c20 -5 42 -30 71 -66c16 -19 48 -62 84 -117c-104 13 -126 17 -140 24c-3 -15 -14 -47 -22 -65c17 -3 32 -25 52 -55c20 -29 85 -145 123 -254l64 26c-41 96 -92 194 -144 270
l107 -10c25 -41 50 -86 71 -130l58 37c-62 113 -137 229 -215 320l158 -20c-11 -32 -23 -65 -34 -95l51 -18c27 62 54 143 63 192zM80 682l59 10c-10 85 -27 180 -46 241c-13 -6 -40 -16 -56 -20c21 -62 35 -150 43 -231zM181 688l53 -13c13 68 24 155 27 213l-57 15
c-1 -59 -12 -147 -23 -215zM287 667l49 -16c23 62 46 141 55 193l-52 19c-9 -52 -32 -135 -52 -196zM582 458v-95c-59 32 -119 62 -170 88l-30 -55c52 -22 125 -56 200 -91v-159h-193v-64h254v376h-61zM550 267l-38 39c-23 -30 -70 -74 -109 -105l37 -33c40 29 88 70 110 99
zM833 696v-90h-320v90h320zM513 847h320v-93h-320v93zM633 462l75 11c-9 25 -18 49 -27 72h222v407h-70v-43h-320v47h-68v-411h165c9 -28 18 -60 23 -83zM670 82h259v390h-60v-118c-60 33 -120 66 -171 93l-29 -58c52 -23 125 -57 200 -94v-149h-199v-64zM836 268l-39 39
c-24 -30 -72 -74 -112 -104l38 -34c40 29 89 71 113 99z" />
</svg>
