<?xml version="1.0" standalone="no"?>
<!DOCTYPE svg PUBLIC "-//W3C//DTD SVG 1.1//EN" "http://www.w3.org/Graphics/SVG/1.1/DTD/svg11.dtd" >
<svg xmlns="http://www.w3.org/2000/svg" xmlns:xlink="http://www.w3.org/1999/xlink" version="1.1" viewBox="-10 0 1010 1000">
   <path fill="currentColor"
d="M295 787l68 23c-63 51 -160 102 -240 133c-12 -12 -39 -33 -57 -44c83 -27 174 -69 229 -112zM795 739l-243 16v131c0 34 -8 51 -39 61s-79 10 -151 10c-4 -18 -15 -41 -26 -58c59 1 108 1 123 0c16 0 19 -4 19 -14v-126c-282 17 -321 22 -349 30c-3 -13 -14 -43 -21 -60
c32 -2 74 -13 129 -33c30 -10 95 -33 171 -66c-160 9 -187 13 -204 18c-4 -13 -15 -41 -22 -56c18 -2 38 -9 61 -20c24 -10 105 -55 163 -105l59 34c-46 33 -95 62 -144 86l199 -8c41 -19 82 -41 120 -63l52 45c-117 63 -240 114 -363 157l413 -23c-27 -21 -56 -41 -82 -58
l49 -33c70 44 156 110 195 157l-51 36c-14 -17 -34 -37 -58 -58zM794 460v-74h-238v74h238zM856 340v166h-360v-166h360zM636 816l50 -35c77 33 177 83 230 119l-53 40c-50 -37 -149 -90 -227 -124zM786 148h-206c-5 4 -9 9 -14 13c27 22 64 44 109 64
c44 -22 82 -48 111 -77zM355 249v-100h-78v100h78zM355 401v-102h-78v102h78zM140 299v102h85v-102h-85zM140 149v100h85v-100h-85zM842 99l38 23c-36 50 -86 93 -146 127c63 24 136 41 214 52c-13 11 -28 33 -36 47c-87 -15 -168 -39 -236 -69c-75 35 -159 58 -243 75
c-5 -10 -15 -24 -24 -34v133h-321v-357h321v209c73 -12 143 -30 207 -54c-35 -19 -64 -39 -88 -59c-23 17 -47 32 -76 47c-9 -13 -27 -30 -40 -38c91 -43 152 -104 180 -161l61 10c-10 18 -21 34 -32 51h209z" />
</svg>
