<?xml version="1.0" standalone="no"?>
<!DOCTYPE svg PUBLIC "-//W3C//DTD SVG 1.1//EN" "http://www.w3.org/Graphics/SVG/1.1/DTD/svg11.dtd" >
<svg xmlns="http://www.w3.org/2000/svg" xmlns:xlink="http://www.w3.org/1999/xlink" version="1.1" viewBox="-10 0 1010 1000">
   <path fill="currentColor"
d="M388 615l-55 21c-3 -13 -7 -29 -12 -47c-208 33 -239 40 -255 50c-4 -14 -14 -47 -22 -65c20 -4 41 -29 69 -68c15 -17 45 -60 78 -115c-98 12 -119 17 -132 24c-4 -14 -14 -46 -21 -64c16 -4 32 -24 51 -55c19 -29 84 -144 120 -252l62 27c-39 96 -91 193 -142 269
l99 -8c25 -45 51 -94 71 -141l58 35c-60 117 -134 236 -211 332l159 -23c-12 -33 -25 -68 -39 -98l51 -17c30 62 61 144 71 195zM82 683l58 9c-10 87 -29 179 -50 241c-12 -7 -40 -16 -55 -20c24 -62 39 -150 47 -230zM184 689l53 -10c11 65 21 150 25 207l-57 13
c-1 -58 -11 -143 -21 -210zM281 670l49 -16c18 50 36 114 45 155l-53 17c-7 -42 -26 -107 -41 -156zM558 204h-78v102h78v-102zM716 306v-102h-100v102h100zM864 365h-91v112h91v-112zM616 365v112h100v-112h-100zM480 455v22h78v-112h-78v90zM925 536h-446
c-4 137 -21 303 -77 419c-11 -10 -40 -27 -55 -33c65 -136 70 -328 70 -466v-316h231c-9 -26 -21 -56 -32 -80l60 -19c16 30 32 70 42 99h234v64h-179v102h152v230zM574 862l119 -28c0 18 3 43 5 58c-149 39 -174 49 -188 60c-5 -17 -17 -49 -26 -66c13 -6 30 -19 30 -55
v-269h60v93h117v59h-117v148zM805 889h79c22 0 26 -13 29 -101c13 11 36 21 53 26c-6 105 -23 133 -75 133h-94c-64 0 -80 -18 -80 -85v-300h60v125c46 -25 99 -57 132 -83l34 47c-46 37 -115 73 -166 97v113c0 24 4 28 28 28z" />
</svg>
