<?xml version="1.0" standalone="no"?>
<!DOCTYPE svg PUBLIC "-//W3C//DTD SVG 1.1//EN" "http://www.w3.org/Graphics/SVG/1.1/DTD/svg11.dtd" >
<svg xmlns="http://www.w3.org/2000/svg" xmlns:xlink="http://www.w3.org/1999/xlink" version="1.1" viewBox="-10 0 1010 1000">
   <path fill="currentColor"
d="M661 135c0 47 -21 97 -110 129c-7 -13 -27 -38 -39 -47c76 -24 90 -52 90 -84v-50h226v77c0 19 2 25 14 25h54c11 0 32 -1 44 -4c1 15 2 36 4 50c-11 5 -30 5 -46 5h-64c-56 0 -67 -22 -67 -76v-26zM297 792l66 26c-67 49 -168 98 -251 127c-12 -13 -38 -38 -55 -49
c87 -25 182 -63 240 -104zM330 423h69c3 -26 6 -54 8 -83h-131c28 18 60 42 75 60zM257 340h-76c-4 30 -7 57 -11 83h149c-20 -21 -53 -47 -81 -64zM273 224h-80c-2 24 -5 51 -8 76h142c-19 -19 -49 -42 -75 -56zM339 300h72c3 -26 5 -52 6 -76h-130c28 15 58 37 73 55z
M800 741l-248 15v122c0 35 -8 53 -38 63c-31 10 -79 11 -149 11c-4 -20 -16 -43 -27 -62c58 2 106 2 121 1c16 -1 19 -4 19 -14v-116c-281 18 -321 22 -348 30c-3 -13 -14 -45 -22 -61c33 -3 74 -15 130 -35c27 -10 84 -30 150 -60c-146 6 -171 9 -187 14
c-4 -13 -14 -42 -22 -58c17 -2 35 -8 57 -18c23 -10 100 -50 155 -96l1 1l1 -11h-287c6 -33 13 -77 19 -123h-73v-48h78c4 -36 8 -72 11 -105c-16 17 -32 34 -49 48c-12 -10 -38 -28 -54 -36c56 -40 104 -100 132 -163l60 14c-5 13 -11 25 -18 38h305v48h-336
c-9 14 -20 28 -31 41h326c-3 35 -6 75 -9 115h65v48h-70c-3 28 -6 54 -8 79h54v44h-60l-3 23h-32l35 23c-40 28 -84 53 -129 74l182 -4c48 -23 97 -50 143 -77l53 46c-119 66 -244 120 -368 165l405 -23c-28 -18 -55 -34 -82 -48l48 -37c76 39 170 100 216 145l-50 42
c-17 -16 -39 -35 -66 -55zM631 825l52 -41c85 27 192 73 250 110l-56 44c-53 -36 -159 -85 -246 -113zM822 319h-177c20 30 49 55 85 76c37 -20 68 -46 92 -76zM868 270l34 13c-26 58 -67 103 -118 137c50 20 110 32 176 38c-13 13 -28 36 -36 53c-77 -10 -144 -29 -198 -58
c-55 27 -117 44 -180 56c-5 -14 -17 -35 -28 -48c54 -8 108 -21 155 -40c-37 -28 -67 -62 -87 -102h-38v-47h309z" />
</svg>
