<?xml version="1.0" standalone="no"?>
<!DOCTYPE svg PUBLIC "-//W3C//DTD SVG 1.1//EN" "http://www.w3.org/Graphics/SVG/1.1/DTD/svg11.dtd" >
<svg xmlns="http://www.w3.org/2000/svg" xmlns:xlink="http://www.w3.org/1999/xlink" version="1.1" viewBox="-10 0 1010 1000">
   <path fill="currentColor"
d="M439 55l55 31c-30 38 -64 77 -91 102l-41 -26c24 -29 59 -76 77 -107zM221 163l-49 27c-15 -29 -47 -75 -76 -108l47 -24c31 32 64 75 78 105zM305 789l70 25c-66 49 -161 100 -240 131c-12 -12 -40 -35 -57 -46c82 -28 170 -69 227 -110zM784 731l-245 15v131
c0 33 -7 49 -37 59s-78 10 -155 10c-3 -17 -14 -40 -23 -56c56 1 109 1 123 0c15 0 19 -3 19 -14v-125c-262 15 -303 19 -334 27c-3 -11 -15 -37 -22 -52c31 -2 70 -13 123 -32c28 -9 84 -30 150 -60c-149 5 -177 9 -195 14c-3 -11 -13 -37 -21 -49c18 -2 39 -8 63 -18
c26 -9 109 -48 171 -92l65 27c-45 29 -93 53 -140 73l161 -4c45 -22 91 -47 134 -72l60 35c-115 64 -234 117 -350 159l404 -22c-23 -20 -48 -41 -71 -59l51 -36c63 48 142 118 178 161l-52 42c-15 -18 -34 -39 -57 -62zM194 282l46 9c-8 58 -24 118 -47 157
c-8 -6 -29 -16 -42 -20c25 -41 36 -93 43 -146zM340 292l43 -11c20 43 38 99 43 136l-46 13c-5 -37 -20 -94 -40 -138zM608 817l53 -37c85 33 196 85 255 123l-58 42c-54 -38 -164 -93 -250 -128zM808 209h-175c23 47 53 90 91 127c35 -36 64 -78 84 -127zM937 209h-59
c-24 66 -61 121 -106 168c52 40 116 70 187 88c-15 14 -35 40 -44 59c-73 -23 -138 -58 -192 -104c-49 39 -106 70 -168 95c-9 -14 -31 -39 -45 -51c63 -22 119 -50 167 -86c-33 -37 -61 -76 -84 -120c-17 24 -36 46 -55 66c-8 -9 -22 -23 -35 -33v214h-59v-256h-127v250
h-52v-250h-120v272h-59v-322h173v-156h64v156h180v67c56 -57 102 -137 129 -221l62 16c-11 30 -23 61 -37 89h280v59z" />
</svg>
