<?xml version="1.0" standalone="no"?>
<!DOCTYPE svg PUBLIC "-//W3C//DTD SVG 1.1//EN" "http://www.w3.org/Graphics/SVG/1.1/DTD/svg11.dtd" >
<svg xmlns="http://www.w3.org/2000/svg" xmlns:xlink="http://www.w3.org/1999/xlink" version="1.1" viewBox="-10 0 1010 1000">
   <path fill="currentColor"
d="M769 459v-173c-28 58 -65 112 -102 143c-10 -13 -28 -33 -41 -43c49 -33 97 -104 126 -172h-89v-60h106v-103h62v103h117v60h-103c32 61 84 127 125 162c-14 11 -33 31 -44 44c-29 -31 -66 -81 -95 -132v171h-62zM437 548v-61h469v61h-469zM493 459v-177
c-32 57 -72 111 -110 143c-10 -12 -28 -32 -41 -42c48 -34 102 -103 134 -169h-102v-60h119v-99h61v99h87v60h-87v17c26 19 85 68 100 83l-34 45c-12 -16 -41 -44 -66 -69v169h-61zM362 625l-57 17c-2 -15 -5 -33 -9 -52c-184 32 -212 39 -229 49c-3 -14 -13 -46 -21 -64
c18 -4 40 -29 67 -66c15 -18 46 -62 81 -118c-99 12 -121 17 -135 24c-2 -14 -14 -47 -22 -65c16 -4 31 -25 49 -55c19 -29 79 -144 110 -251l66 27c-35 92 -84 189 -133 265l102 -9c23 -41 45 -83 62 -125l62 31c-59 115 -132 232 -208 324l136 -21c-7 -32 -17 -65 -27 -93
l53 -13c23 63 45 146 53 195zM84 682l56 9c-10 86 -28 179 -48 240c-12 -5 -39 -14 -53 -18c22 -62 36 -150 45 -231zM178 692l49 -11c11 66 23 150 26 206l-51 12c-2 -57 -13 -142 -24 -207zM267 673l45 -14c21 56 44 129 53 176l-48 17c-9 -48 -31 -123 -50 -179zM472 717
l64 19c-36 66 -92 136 -141 183c-13 -11 -40 -32 -55 -41c50 -42 100 -103 132 -161zM955 686h-253v197c0 35 -7 53 -33 64c-25 12 -66 12 -125 12c-3 -20 -14 -45 -22 -64c45 1 83 1 94 0c12 0 16 -3 16 -13v-196h-254v-61h577v61zM761 745l54 -31c51 49 114 117 142 160
l-56 37c-28 -44 -88 -116 -140 -166z" />
</svg>
