<?xml version="1.0" standalone="no"?>
<!DOCTYPE svg PUBLIC "-//W3C//DTD SVG 1.1//EN" "http://www.w3.org/Graphics/SVG/1.1/DTD/svg11.dtd" >
<svg xmlns="http://www.w3.org/2000/svg" xmlns:xlink="http://www.w3.org/1999/xlink" version="1.1" viewBox="-10 0 1010 1000">
   <path fill="currentColor"
d="M276 791l71 25c-63 51 -158 105 -235 139c-14 -13 -42 -36 -60 -45c79 -30 169 -75 224 -119zM616 818l63 -34c78 37 179 92 233 129l-64 37c-53 -37 -153 -96 -232 -132zM662 641l58 -27c72 49 159 121 201 171l-62 32c-17 -21 -41 -45 -69 -72l-249 15v114
c0 36 -8 53 -40 64c-32 10 -81 11 -155 10c-4 -19 -17 -43 -27 -62c61 2 114 3 129 1c17 -1 20 -4 20 -14v-108c-264 15 -301 19 -328 29c-3 -14 -12 -46 -20 -64c32 -2 73 -13 128 -31c28 -9 83 -28 150 -55c-158 12 -184 16 -203 23c-3 -14 -12 -44 -20 -59
c18 -2 39 -9 64 -21c27 -12 115 -58 179 -108l59 35c-47 32 -97 60 -147 84l202 -13c43 -20 87 -42 128 -65l55 46c-118 60 -238 110 -357 151l376 -20c-24 -21 -48 -39 -72 -56zM232 356v63h73v-63h-73zM788 208v34c0 13 -1 27 -2 41c24 101 80 181 181 210
c-13 12 -30 35 -38 50c-81 -29 -134 -91 -167 -171c-25 57 -75 118 -170 168c-9 -13 -25 -31 -39 -42c-9 10 -22 14 -37 14c-34 0 -64 -33 -89 -90c-27 29 -54 55 -83 76c-7 -9 -22 -27 -33 -39h-124v-144h164v104c20 -17 38 -34 55 -53c-14 -52 -27 -115 -35 -187h-212v63
c0 87 -12 206 -72 289c-10 -13 -34 -36 -47 -45c54 -75 62 -172 62 -246v-118h264c-2 -25 -3 -50 -4 -75h55c0 25 2 51 3 75h73c-14 -17 -35 -37 -53 -51l35 -27c25 17 57 45 72 65l-15 13h33v57h-140c6 52 14 98 24 136c21 -30 41 -61 55 -93l48 18c-23 48 -52 95 -85 137
c16 45 36 69 52 69c15 0 20 -29 23 -92c12 13 29 25 42 31c-4 53 -12 86 -23 104c152 -76 162 -182 162 -248v-33h-54c-17 35 -38 68 -60 94c-10 -9 -35 -25 -50 -33c49 -55 88 -137 109 -220l58 13c-9 30 -19 61 -30 89h198l11 -2l41 10c-18 47 -38 99 -58 133l-50 -12
c10 -19 21 -45 30 -72h-80zM354 227v47h-169v-47h169z" />
</svg>
