<?xml version="1.0" standalone="no"?>
<!DOCTYPE svg PUBLIC "-//W3C//DTD SVG 1.1//EN" "http://www.w3.org/Graphics/SVG/1.1/DTD/svg11.dtd" >
<svg xmlns="http://www.w3.org/2000/svg" xmlns:xlink="http://www.w3.org/1999/xlink" version="1.1" viewBox="-10 0 1010 1000">
   <path fill="currentColor"
d="M834 245v-71h-79v71h79zM834 369v-73h-79v73h79zM488 296v73h76v-73h-76zM488 174v71h76v-71h-76zM702 296h-86v73h86v-73zM616 245h86v-71h-86v71zM894 121v301h-465v-301h129v-76h60v76h82v-76h61v76h133zM943 474v56h-535v-56h535zM524 628v85h292v-85h-292zM885 763
h-427v-185h427v185zM403 616l-60 23c-3 -15 -8 -32 -14 -51c-212 33 -241 40 -260 51c-4 -15 -15 -48 -23 -67c20 -4 44 -29 73 -67c16 -17 48 -59 84 -114c-105 13 -127 16 -141 23c-4 -14 -15 -48 -22 -66c15 -4 33 -25 52 -55c21 -29 88 -142 127 -249l67 27
c-42 93 -95 190 -148 265l106 -10c28 -43 54 -91 77 -137l61 35c-65 118 -144 236 -226 330l155 -21c-11 -33 -23 -67 -34 -96l56 -18c26 64 56 149 70 197zM84 682l59 13c-12 81 -32 174 -49 235c-13 -6 -42 -14 -57 -18c19 -61 36 -151 47 -230zM190 689l54 -11
c13 67 25 153 29 211l-58 14c-2 -59 -13 -146 -25 -214zM300 670l51 -17c24 62 49 141 60 192l-54 18c-10 -52 -35 -132 -57 -193zM801 879h157v58h-561v-58h146c-10 -30 -23 -65 -36 -94l57 -16c16 33 33 78 43 110h133c16 -35 34 -82 44 -113l67 19c-16 32 -34 66 -50 94z
" />
</svg>
