<?xml version="1.0" standalone="no"?>
<!DOCTYPE svg PUBLIC "-//W3C//DTD SVG 1.1//EN" "http://www.w3.org/Graphics/SVG/1.1/DTD/svg11.dtd" >
<svg xmlns="http://www.w3.org/2000/svg" xmlns:xlink="http://www.w3.org/1999/xlink" version="1.1" viewBox="-10 0 1010 1000">
   <path fill="currentColor"
d="M94 682l57 10c-11 85 -29 180 -50 240c-13 -6 -39 -15 -54 -19c23 -62 39 -150 47 -231zM184 691l52 -11c12 66 24 150 28 207l-55 13c-2 -57 -13 -143 -25 -209zM271 674l48 -15c20 53 41 120 49 165l-51 16c-7 -45 -28 -113 -46 -166zM263 441l53 -12
c23 64 45 149 52 197l-57 17c-2 -15 -5 -35 -10 -56c-183 35 -212 43 -228 52c-4 -14 -14 -47 -23 -64c20 -5 40 -31 68 -68c14 -18 43 -60 75 -115c-94 12 -114 17 -127 23c-3 -14 -14 -46 -22 -64c16 -4 31 -25 48 -56c18 -29 78 -145 108 -253l66 26
c-35 97 -83 197 -132 274l93 -8c24 -45 48 -93 67 -140l64 31c-59 118 -131 238 -205 331l137 -23c-8 -32 -18 -63 -27 -92zM969 319l-47 35v529c0 34 -7 52 -30 62c-21 12 -56 13 -110 13c-2 -18 -12 -45 -19 -62c36 1 68 1 78 1c11 -1 15 -4 15 -14v-518h-175v229
c24 -25 45 -56 65 -88c-19 -17 -38 -34 -58 -48l26 -29c18 11 36 26 53 41c13 -27 25 -54 34 -80l39 20c-11 29 -25 60 -41 89c21 21 38 41 49 58l-27 33c-11 -15 -26 -34 -44 -54c-20 33 -43 62 -67 88c-7 -8 -18 -20 -29 -27v244c25 -27 47 -62 67 -97
c-19 -18 -38 -36 -58 -52l28 -28c17 13 34 27 50 42c13 -28 25 -57 34 -84l39 19c-12 33 -25 65 -42 97c20 22 37 42 47 61l-28 32c-10 -16 -24 -35 -41 -55c-20 36 -44 68 -68 97c-6 -7 -18 -17 -28 -24v101h-57v-585h-172v228c23 -25 46 -57 65 -90
c-16 -17 -35 -32 -53 -46l25 -28c17 11 33 24 49 38c13 -26 24 -52 32 -77l39 20c-10 29 -24 59 -40 87c20 20 36 39 47 56l-27 32c-10 -15 -25 -33 -41 -51c-20 31 -42 61 -66 87c-8 -9 -20 -20 -30 -26v249c25 -29 49 -64 68 -101c-17 -18 -37 -36 -55 -51l27 -27
c16 13 32 26 48 41c13 -27 24 -55 32 -80l39 18c-10 32 -24 63 -40 93c20 22 36 43 47 61l-28 31c-10 -15 -24 -34 -40 -53c-21 36 -44 69 -70 98c-6 -7 -18 -18 -28 -25v109h-64v-600l-5 5c-12 -13 -31 -30 -47 -41c57 -49 126 -122 165 -172l53 34c-31 38 -69 81 -108 119
h172v-161h-253v-63h583v63h-261v161h185c-38 -41 -86 -86 -129 -121l48 -32c66 49 142 122 178 169z" />
</svg>
