<?xml version="1.0" standalone="no"?>
<!DOCTYPE svg PUBLIC "-//W3C//DTD SVG 1.1//EN" "http://www.w3.org/Graphics/SVG/1.1/DTD/svg11.dtd" >
<svg xmlns="http://www.w3.org/2000/svg" xmlns:xlink="http://www.w3.org/1999/xlink" version="1.1" viewBox="-10 0 1010 1000">
   <path fill="currentColor"
d="M896 45l46 49c-137 33 -354 53 -533 59c-2 -16 -10 -37 -17 -52c177 -8 388 -27 504 -56zM541 228l-57 24c-10 -21 -30 -53 -47 -77l54 -21c18 22 39 54 50 74zM954 362v51h-566v-51h238v-59h-206v-50h227c-10 -25 -29 -64 -45 -93l56 -19c16 28 37 66 47 88l-56 24h114
c27 -36 53 -82 73 -125l58 17c-18 35 -39 75 -61 108h82v50h-219v59h258zM908 458v249h-276c38 30 84 71 108 96l-43 39c-29 -30 -82 -80 -120 -112l30 -23h-205v-48h438v-56h-416v-46h416v-51h-433v-48h501zM54 415c-3 -14 -12 -47 -20 -66c15 -3 30 -23 48 -54
c19 -29 80 -144 115 -253l59 28c-39 96 -87 193 -136 268l94 -9c23 -45 47 -92 66 -139l53 36c-57 118 -126 238 -198 332l154 -25c-10 -34 -21 -68 -34 -98l48 -19c26 62 52 142 61 191l-51 22c-2 -12 -5 -27 -9 -42c-200 36 -227 43 -244 52c-3 -14 -12 -48 -19 -64
c17 -5 38 -31 64 -68c14 -18 42 -61 74 -117c-93 12 -113 17 -125 25zM74 683l55 10c-10 85 -26 180 -44 241c-13 -7 -38 -17 -53 -21c21 -62 33 -151 42 -230zM169 689l50 -11c12 66 22 153 25 210l-54 15c-1 -59 -11 -146 -21 -214zM265 670l48 -17c20 61 44 139 53 191
l-50 19c-9 -53 -31 -133 -51 -193zM388 943l-58 -27c34 -44 63 -113 80 -165l56 22c-19 54 -45 125 -78 170zM602 892h133c27 0 33 -7 35 -59c14 9 40 18 59 22c-8 75 -27 94 -86 94h-147c-84 0 -104 -16 -104 -81v-120h66v119c0 21 6 25 44 25zM804 770l57 -22
c37 50 79 116 99 158l-58 27c-20 -43 -63 -113 -98 -163z" />
</svg>
