<?xml version="1.0" standalone="no"?>
<!DOCTYPE svg PUBLIC "-//W3C//DTD SVG 1.1//EN" "http://www.w3.org/Graphics/SVG/1.1/DTD/svg11.dtd" >
<svg xmlns="http://www.w3.org/2000/svg" xmlns:xlink="http://www.w3.org/1999/xlink" version="1.1" viewBox="-10 0 1010 1000">
   <path fill="currentColor"
d="M359 262v-106h-68v-54h303c-8 -17 -18 -34 -28 -49l70 -16c13 20 29 44 40 65h271v54h-526v54h459v52h-521zM423 361v63h380v-63h-380zM357 473v-161h516v161h-516zM320 625l-47 16c-2 -15 -5 -34 -9 -53c-162 34 -186 42 -201 52c-4 -15 -13 -50 -19 -69
c16 -4 34 -28 57 -65c12 -16 39 -59 67 -114c-81 12 -99 16 -111 23c-4 -15 -13 -50 -21 -70c14 -4 28 -25 44 -56c17 -29 68 -145 96 -253l61 29c-31 96 -75 196 -118 274l79 -6c19 -42 38 -85 53 -127l57 34c-49 111 -111 225 -173 315l118 -21c-8 -32 -15 -65 -24 -93
l44 -12c21 64 41 147 47 196zM73 683l49 10c-8 85 -22 178 -39 239c-10 -6 -34 -15 -46 -19c18 -62 29 -150 36 -230zM148 693l46 -11c10 64 21 148 24 204l-47 11c-2 -56 -12 -140 -23 -204zM222 677l44 -16c20 56 41 130 50 177l-46 17c-9 -48 -29 -122 -48 -178zM379 751
h73v-69h-70c0 22 -1 44 -3 69zM452 567h-70v66h70v-66zM500 517v382c0 26 -4 40 -21 49c-17 8 -43 9 -82 9c-1 -14 -8 -34 -15 -47h60c8 0 10 -3 10 -11v-99h-79c-9 56 -27 113 -61 157c-7 -10 -29 -23 -41 -28c56 -74 62 -173 62 -250v-162h167zM699 565v49h-190v-49h88
c-9 -20 -21 -40 -31 -58l42 -14c14 21 31 49 41 72h50zM597 795l-41 13c-6 -45 -21 -116 -36 -168l40 -10c14 53 31 120 37 165zM764 619l25 -10c20 41 39 93 52 136v-175h-77v49zM901 900h8c3 0 6 -1 8 -4c1 -3 3 -11 5 -22c2 -15 3 -46 3 -85c10 8 24 15 37 20
c0 38 -3 82 -6 97c-4 16 -10 25 -17 31c-7 5 -17 9 -28 9h-22c-14 0 -27 -4 -36 -15c-10 -11 -12 -24 -12 -83v-58l-28 12c-8 -41 -28 -101 -49 -152v29c0 91 -18 208 -107 287c-8 -9 -29 -23 -41 -29c29 -25 50 -53 64 -82c-57 15 -113 29 -160 42l-8 -51
c25 -5 55 -12 89 -20c15 -57 31 -139 39 -198l47 11c-13 55 -28 124 -43 176l46 -12l2 25c20 -51 24 -104 24 -150v-161h176v338c0 22 0 37 1 41c2 3 4 4 8 4z" />
</svg>
