<?xml version="1.0" standalone="no"?>
<!DOCTYPE svg PUBLIC "-//W3C//DTD SVG 1.1//EN" "http://www.w3.org/Graphics/SVG/1.1/DTD/svg11.dtd" >
<svg xmlns="http://www.w3.org/2000/svg" xmlns:xlink="http://www.w3.org/1999/xlink" version="1.1" viewBox="-10 0 1010 1000">
   <path fill="currentColor"
d="M506 207v-45h-127v-57h127v-60h66v60h158v-59h68v59h129v57h-129v41h-68v-41h-158v45h-66zM392 619l-54 20c-2 -14 -6 -31 -11 -50c-212 35 -240 42 -259 52c-3 -14 -13 -47 -21 -64c20 -5 41 -30 70 -67c16 -19 47 -63 83 -120c-102 13 -122 18 -136 24
c-3 -14 -13 -45 -21 -63c16 -5 32 -23 50 -54c20 -27 83 -138 119 -244l61 27c-39 92 -88 186 -138 258l102 -8c25 -43 50 -89 70 -134l60 30c-64 120 -141 240 -218 334l161 -24c-11 -33 -24 -67 -37 -97l51 -16c28 62 58 146 68 196zM89 684l56 11c-10 83 -28 176 -47 235
c-12 -7 -39 -16 -54 -20c22 -61 37 -147 45 -226zM186 691l52 -10c12 64 23 146 26 201l-54 12c-3 -56 -14 -139 -24 -203zM282 674l48 -14c21 57 43 131 53 178l-52 17c-8 -48 -31 -124 -49 -181zM406 949l-51 -33c36 -29 71 -79 90 -118l52 25c-22 41 -54 93 -91 126z
M548 818l54 -6c12 38 22 87 25 117l-58 10c-1 -31 -10 -81 -21 -121zM667 818l49 -14c23 35 46 83 56 113l-53 18c-9 -30 -31 -80 -52 -117zM801 819l51 -23c35 38 77 91 96 124l-52 28c-20 -35 -59 -89 -95 -129zM757 545l-34 -17c13 -21 31 -55 39 -75l43 18
c-16 27 -33 53 -48 74zM521 470l37 -13c14 22 29 55 36 74l-39 17c-7 -22 -21 -54 -34 -78zM484 447v106h150v-106h-150zM844 553v-106h-158v106h158zM692 739h259v52h-565v-52h242v-51h-198v-47h198v-47h-200v-188h200v-40h-241v-50h241v-46c-71 4 -142 6 -208 7
c-1 -14 -8 -34 -14 -46c158 -4 350 -16 457 -33l40 44c-59 9 -133 17 -210 23v51h248v50h-248v40h210v188h-211v47h224v47h-224v51z" />
</svg>
