<?xml version="1.0" standalone="no"?>
<!DOCTYPE svg PUBLIC "-//W3C//DTD SVG 1.1//EN" "http://www.w3.org/Graphics/SVG/1.1/DTD/svg11.dtd" >
<svg xmlns="http://www.w3.org/2000/svg" xmlns:xlink="http://www.w3.org/1999/xlink" version="1.1" viewBox="-10 0 1010 1000">
   <path fill="currentColor"
d="M628 134h-100l24 22c-25 19 -57 37 -90 55h166v-77zM688 211h188c-36 -20 -79 -41 -116 -55l16 -22h-88v77zM398 241l-22 10c-8 -12 -22 -27 -35 -37c51 -21 114 -54 156 -80h-113v-54h558v54h-112c54 23 111 54 143 77l-29 43c-5 -4 -11 -8 -17 -12v282
c0 29 -5 42 -25 51c-18 8 -46 9 -88 9c-3 -15 -10 -35 -17 -49c27 1 53 1 61 0c9 0 11 -2 11 -11v-263h-186v306h-50v-306h-176v317h-59v-337zM849 374l-26 27c-10 -12 -24 -25 -39 -37c-19 15 -38 29 -59 41c-7 -7 -19 -16 -30 -22c20 -11 40 -26 58 -42
c-16 -12 -35 -22 -51 -31l26 -24c17 9 34 19 51 30c12 -12 21 -25 28 -36l39 15c-10 15 -21 30 -35 43c16 12 30 25 38 36zM855 495l-26 28c-10 -10 -23 -20 -37 -31c-18 17 -39 31 -60 43c-7 -7 -21 -17 -31 -22c20 -11 41 -26 58 -42c-17 -10 -36 -21 -53 -29l26 -23
c18 7 36 16 53 26c11 -11 18 -23 25 -33l38 14c-7 14 -18 27 -29 40c15 10 27 20 36 29zM619 374l-28 26c-9 -11 -22 -24 -36 -36c-17 13 -35 25 -54 36c-8 -7 -21 -16 -31 -21c19 -10 39 -24 55 -39c-15 -11 -31 -22 -46 -31l27 -22c16 8 31 18 46 28c11 -13 20 -26 28 -37
l38 16c-9 15 -21 31 -35 44c15 13 28 25 36 36zM623 502l-27 26c-10 -11 -24 -23 -39 -35c-19 16 -38 30 -60 43c-8 -6 -20 -16 -31 -21c21 -11 42 -27 60 -44c-16 -11 -35 -21 -52 -30l27 -22c17 7 34 16 50 27c12 -13 21 -25 28 -38l38 15c-8 15 -20 30 -34 44
c17 12 30 24 40 35zM362 625l-52 15c-2 -15 -6 -34 -10 -55c-188 37 -217 45 -233 54c-3 -12 -13 -43 -21 -59c19 -4 40 -30 68 -67c14 -19 46 -65 81 -123c-100 13 -122 18 -135 25c-3 -14 -14 -45 -21 -62c15 -4 30 -24 47 -55c20 -29 80 -144 111 -251l63 26
c-35 93 -82 190 -131 266l102 -9c23 -41 46 -85 64 -128l56 29c-59 114 -129 231 -203 324l139 -24c-6 -31 -16 -63 -25 -91l50 -11c22 64 43 147 50 196zM92 682l53 9c-10 85 -28 179 -49 240c-12 -6 -37 -14 -51 -18c23 -62 38 -151 47 -231zM186 692l51 -11
c12 65 23 148 26 203l-52 13c-2 -56 -13 -142 -25 -205zM290 676l47 -14c19 50 41 117 50 161l-49 17c-9 -44 -29 -112 -48 -164zM686 779v77h145c-17 -20 -36 -39 -56 -56l38 -21h-127zM893 779h-77c30 22 58 52 75 77h59v54h-579v-54h252v-77h-190v-54h190v-66h-220v-54
h523v54h-240v66h207v54z" />
</svg>
