<?xml version="1.0" standalone="no"?>
<!DOCTYPE svg PUBLIC "-//W3C//DTD SVG 1.1//EN" "http://www.w3.org/Graphics/SVG/1.1/DTD/svg11.dtd" >
<svg xmlns="http://www.w3.org/2000/svg" xmlns:xlink="http://www.w3.org/1999/xlink" version="1.1" viewBox="-10 0 1010 1000">
   <path fill="currentColor"
d="M349 625l-50 15c-2 -15 -5 -34 -9 -53c-180 34 -207 41 -223 52c-3 -14 -14 -45 -21 -61c19 -5 39 -30 67 -68c14 -17 45 -62 79 -120c-98 13 -119 18 -132 24c-3 -13 -14 -45 -22 -62c16 -4 31 -25 48 -55c20 -30 80 -144 111 -251l64 26c-36 94 -83 191 -132 267l97 -9
c23 -42 45 -86 63 -130l59 30c-57 116 -129 232 -201 325l130 -22c-7 -32 -16 -65 -26 -93l47 -11c23 64 44 148 51 196zM83 683l53 8c-11 85 -28 178 -49 239c-12 -6 -37 -14 -51 -18c24 -62 38 -149 47 -229zM168 692l47 -9c12 67 24 153 27 210l-50 11
c-2 -57 -13 -145 -24 -212zM253 677l41 -13c18 47 38 108 46 147l-44 14c-8 -40 -26 -101 -43 -148zM620 666v-42h-82c-15 15 -29 29 -44 42h126zM761 703h-88v50h88v-50zM673 833l83 -4c-10 -11 -20 -20 -30 -29l17 -10h-70v43zM537 753h83v-50h-83v50zM862 126h-426v66
h426v-66zM524 441v62h80v-62h-80zM652 441v62h83v-62h-83zM783 441v62h85v-62h-85zM938 581v26c-7 224 -15 300 -34 326c-13 15 -30 22 -53 23c-19 1 -51 1 -80 -1c-1 -14 -7 -35 -16 -49c33 4 62 4 75 4c12 0 19 -2 25 -10c12 -17 20 -88 26 -276h-208v42h137v124h-39
c27 26 57 59 73 82l-34 25c-6 -9 -14 -19 -22 -30c-119 8 -241 16 -334 22l-16 -44c49 -2 113 -5 182 -9v-46h-132v-119c-9 8 -18 14 -26 20c-6 -8 -23 -27 -35 -38c-10 108 -30 217 -72 303c-9 -11 -36 -31 -50 -38c65 -138 70 -331 70 -476v-366h547v167h-486v199
c0 61 -2 131 -8 204c42 -28 82 -65 112 -105h-64v-139h442v139h-315c-9 14 -18 27 -29 40h364zM732 354l14 -34c61 7 129 23 170 40l-17 37c-40 -17 -107 -35 -167 -43zM886 247l20 33c-41 18 -101 30 -141 35l-16 -28c40 -7 104 -29 137 -40zM719 385h-57v-137h57v137z
M485 391l-21 -40c46 -5 104 -14 169 -22l2 34c-53 10 -103 19 -150 28zM474 284l24 -24c40 9 94 24 124 37l-24 27c-28 -11 -82 -29 -124 -40z" />
</svg>
