<?xml version="1.0" standalone="no"?>
<!DOCTYPE svg PUBLIC "-//W3C//DTD SVG 1.1//EN" "http://www.w3.org/Graphics/SVG/1.1/DTD/svg11.dtd" >
<svg xmlns="http://www.w3.org/2000/svg" xmlns:xlink="http://www.w3.org/1999/xlink" version="1.1" viewBox="-10 0 1010 1000">
   <path fill="currentColor"
d="M52 900l-13 -74c93 -15 236 -41 374 -68l5 68c-131 26 -266 54 -366 74zM152 373l131 -12c27 -37 52 -75 74 -115l66 42c-74 112 -160 222 -246 310l231 -32c-1 20 1 48 4 64c-285 45 -323 53 -345 65c-4 -15 -16 -51 -25 -72c23 -5 48 -28 83 -65
c19 -19 61 -67 109 -129c-127 15 -152 19 -166 26c-4 -15 -16 -51 -25 -70c19 -4 38 -28 63 -61c25 -32 108 -159 158 -279l71 32c-52 105 -118 212 -183 296zM947 258v71h-133v515c0 48 -11 71 -41 83c-29 14 -81 16 -154 15c-3 -20 -14 -55 -25 -77c56 2 109 2 125 2
c17 -1 22 -5 22 -23v-366c-71 123 -162 231 -249 305c-11 -14 -34 -35 -52 -47c110 -90 224 -240 293 -407h-260v-71h268v-209h73v209h133z" />
</svg>
