<?xml version="1.0" standalone="no"?>
<!DOCTYPE svg PUBLIC "-//W3C//DTD SVG 1.1//EN" "http://www.w3.org/Graphics/SVG/1.1/DTD/svg11.dtd" >
<svg xmlns="http://www.w3.org/2000/svg" xmlns:xlink="http://www.w3.org/1999/xlink" version="1.1" viewBox="-10 0 1010 1000">
   <path fill="currentColor"
d="M57 892l-16 -67c81 -22 204 -59 324 -97l11 61c-112 37 -229 75 -319 103zM134 378l144 -15c23 -34 44 -70 64 -105l61 34c-69 110 -148 219 -229 308l198 -40c-1 19 -1 45 0 60c-252 54 -285 64 -306 76c-3 -14 -14 -45 -22 -62c22 -4 45 -30 78 -66
c20 -21 64 -75 112 -141c-134 17 -160 24 -174 31c-4 -15 -16 -48 -25 -66c18 -4 36 -29 56 -63c22 -33 91 -163 129 -283l69 31c-41 105 -97 214 -155 301zM555 736l255 -30v-128h-255v158zM810 171h-255v135h255v-135zM555 371v142h255v-142h-255zM960 754l-81 10v195h-69
v-186l-383 47l-9 -67l69 -8v-574h-72v-68h530v68h-66v526l74 -9z" />
</svg>
