<?xml version="1.0" standalone="no"?>
<!DOCTYPE svg PUBLIC "-//W3C//DTD SVG 1.1//EN" "http://www.w3.org/Graphics/SVG/1.1/DTD/svg11.dtd" >
<svg xmlns="http://www.w3.org/2000/svg" xmlns:xlink="http://www.w3.org/1999/xlink" version="1.1" viewBox="-10 0 1010 1000">
   <path fill="currentColor"
d="M708 183l-49 25c-12 -38 -42 -97 -73 -140l48 -23c31 42 63 99 74 138zM950 688l-41 36c-19 -42 -57 -100 -97 -155c14 106 2 207 -25 243c-20 28 -43 37 -75 37c-14 0 -33 0 -55 -1c0 -18 -4 -44 -13 -61c22 3 42 4 56 4c17 0 29 -3 39 -21c16 -20 26 -86 20 -162
c-59 62 -140 119 -212 150c-9 -13 -26 -35 -38 -47c87 -33 187 -100 242 -170c-4 -23 -9 -46 -17 -69c-49 48 -115 97 -169 124c-9 -14 -26 -34 -39 -45c64 -28 144 -80 190 -130c-11 -22 -23 -43 -37 -61c-39 32 -79 60 -118 83c-8 -12 -27 -35 -40 -46
c64 -32 130 -77 176 -129h-160v-59h240c26 -48 58 -117 74 -165l58 20c-22 48 -49 102 -74 145h114v59h-184c-15 20 -32 39 -50 58c28 32 51 72 67 116c35 -38 75 -90 99 -127l48 35c-38 45 -82 96 -121 132c57 67 117 150 142 206zM498 276l-52 24
c-15 -47 -49 -121 -77 -175l48 -20c31 55 64 125 81 171zM159 606l198 -37c-2 17 -2 44 0 56c-243 50 -275 59 -293 71c-3 -14 -14 -46 -21 -64c20 -5 42 -29 72 -64c17 -20 57 -73 101 -140c-122 17 -145 23 -158 30c-4 -15 -14 -48 -22 -66c17 -5 33 -29 54 -63
c21 -32 91 -162 129 -282l62 30c-42 106 -98 217 -155 303l130 -14c20 -33 40 -68 58 -103l56 35c-62 111 -137 220 -211 308zM360 747l6 58c-110 30 -225 61 -312 85l-13 -66c79 -17 200 -48 319 -77zM494 385v406c16 10 33 26 58 44c47 31 103 41 180 41
c63 0 166 -5 230 -13c-5 17 -14 48 -15 67c-52 4 -158 7 -218 7c-81 0 -140 -12 -189 -47c-32 -24 -57 -51 -75 -51c-23 0 -57 53 -90 109l-39 -57c34 -47 69 -85 100 -100v-345h-77v-61h135z" />
</svg>
