<?xml version="1.0" standalone="no"?>
<!DOCTYPE svg PUBLIC "-//W3C//DTD SVG 1.1//EN" "http://www.w3.org/Graphics/SVG/1.1/DTD/svg11.dtd" >
<svg xmlns="http://www.w3.org/2000/svg" xmlns:xlink="http://www.w3.org/1999/xlink" version="1.1" viewBox="-10 0 1010 1000">
   <path fill="currentColor"
d="M282 227v184h164v66h-164v307l83 -10v-229h61v340h-61v-54c-108 15 -212 29 -294 41v-326h60v256c27 -3 57 -6 87 -10v-315h-174v-66h174v-184h-65c-18 52 -40 98 -62 135c-14 -10 -44 -26 -61 -34c48 -72 84 -181 106 -286l67 14c-7 35 -17 71 -27 105h262v66h-156z
M872 504l48 31c-50 100 -141 209 -217 281c46 35 90 67 120 93l-46 56c-64 -56 -192 -154 -289 -220l44 -48c34 23 73 50 113 77c58 -50 127 -128 172 -197h-337v-69h379zM613 350l57 -26c34 41 74 96 93 130l-59 33c-18 -36 -58 -95 -91 -137zM681 38l68 20
c-5 13 -11 27 -17 39c59 105 160 222 242 283c-18 13 -43 40 -56 60c-73 -63 -159 -171 -222 -276c-57 102 -133 198 -221 272c-12 -15 -39 -41 -56 -52c114 -87 212 -223 262 -346z" />
</svg>
