<?xml version="1.0" standalone="no"?>
<!DOCTYPE svg PUBLIC "-//W3C//DTD SVG 1.1//EN" "http://www.w3.org/Graphics/SVG/1.1/DTD/svg11.dtd" >
<svg xmlns="http://www.w3.org/2000/svg" xmlns:xlink="http://www.w3.org/1999/xlink" version="1.1" viewBox="-10 0 1010 1000">
   <path fill="currentColor"
d="M872 68l52 54c-113 49 -291 80 -443 98c-3 -17 -12 -42 -21 -58c147 -19 320 -52 412 -94zM354 776v-231h59v340h-59v-52c-99 15 -196 28 -274 39v-326h58v256l77 -9v-316h-171v-66h171v-184h-71c-18 50 -38 96 -60 132c-12 -9 -38 -24 -54 -31c48 -72 82 -180 103 -286
l60 13c-8 35 -17 72 -27 106h257v66h-147v184h161v66h-161v309zM866 359l49 31c-71 141 -192 300 -308 404c11 9 23 20 36 31c41 34 87 49 154 49c39 0 116 -3 166 -9c-6 17 -14 49 -15 67c-39 3 -116 5 -152 5c-72 0 -121 -18 -168 -57c-34 -28 -58 -59 -78 -59
s-53 62 -82 128l-45 -58c44 -72 85 -122 122 -128c99 -84 204 -220 267 -333h-336v-67h187c-9 -36 -24 -82 -38 -118l60 -17c19 42 39 97 47 135h120z" />
</svg>
