<?xml version="1.0" standalone="no"?>
<!DOCTYPE svg PUBLIC "-//W3C//DTD SVG 1.1//EN" "http://www.w3.org/Graphics/SVG/1.1/DTD/svg11.dtd" >
<svg xmlns="http://www.w3.org/2000/svg" xmlns:xlink="http://www.w3.org/1999/xlink" version="1.1" viewBox="-10 0 1010 1000">
   <path fill="currentColor"
d="M943 185v69h-491v-69h232c-13 -32 -41 -82 -64 -119l61 -28c26 37 54 85 68 117l-60 30h254zM756 313l57 -34c50 63 116 150 148 201l-60 42c-31 -53 -95 -143 -145 -209zM573 280l69 22c-40 79 -98 169 -146 228c-13 -13 -42 -35 -59 -45c49 -54 101 -134 136 -205z
M345 778v-233h60v340h-60v-50c-96 14 -189 27 -264 37v-326h60v256l74 -9v-316h-171v-66h171v-184h-68c-18 50 -38 96 -61 132c-13 -9 -40 -24 -56 -31c48 -72 83 -180 105 -286l62 13c-8 35 -18 72 -27 106h237v66h-128v184h155v66h-155v309zM773 461l70 17
c-23 89 -58 167 -104 237c63 79 141 141 230 178c-16 15 -37 42 -49 62c-87 -41 -162 -103 -224 -181c-62 75 -138 136 -232 184c-10 -16 -32 -43 -47 -55c97 -47 176 -110 237 -187c-46 -70 -82 -148 -110 -232l64 -18c21 67 51 130 88 188c34 -58 61 -122 77 -193z" />
</svg>
