<?xml version="1.0" standalone="no"?>
<!DOCTYPE svg PUBLIC "-//W3C//DTD SVG 1.1//EN" "http://www.w3.org/Graphics/SVG/1.1/DTD/svg11.dtd" >
<svg xmlns="http://www.w3.org/2000/svg" xmlns:xlink="http://www.w3.org/1999/xlink" version="1.1" viewBox="-10 0 1010 1000">
   <path fill="currentColor"
d="M803 222v-88h-161v88h161zM573 222v-88h-158v88h158zM347 222v-88h-154v88h154zM876 82v192h-753v-192h753zM373 343l45 20c-60 125 -186 206 -317 248c-10 -15 -34 -39 -50 -50c107 -30 207 -84 265 -159h-210v-57h254zM749 681h-506v68h506v-68zM243 861h506v-62h-506
v62zM171 957v-330h651v326h-73v-39h-506v43h-72zM798 310l56 41c-46 36 -106 76 -156 106c75 40 163 71 254 88c-17 14 -37 39 -47 56c-134 -31 -262 -95 -352 -178v107c0 34 -8 49 -36 59c-27 9 -69 10 -139 9c-3 -16 -14 -39 -22 -56c48 2 94 2 106 1c14 -1 18 -4 18 -14
v-236h73v51c24 28 55 55 90 79c52 -30 116 -78 155 -113z" />
</svg>
