<?xml version="1.0" standalone="no"?>
<!DOCTYPE svg PUBLIC "-//W3C//DTD SVG 1.1//EN" "http://www.w3.org/Graphics/SVG/1.1/DTD/svg11.dtd" >
<svg xmlns="http://www.w3.org/2000/svg" xmlns:xlink="http://www.w3.org/1999/xlink" version="1.1" viewBox="-10 0 1010 1000">
   <path fill="currentColor"
d="M190 146v232h-69v-288h762v285h-72v-229h-621zM774 318l-44 40c-18 -19 -46 -40 -77 -62c-34 27 -70 50 -104 69c-9 -10 -31 -32 -45 -41c33 -17 69 -37 100 -59c-28 -18 -58 -34 -85 -47l40 -36c29 14 60 30 90 47c22 -18 41 -38 57 -58l55 17c-18 25 -40 48 -64 71
c30 20 57 40 77 59zM496 318l-43 39c-18 -18 -45 -38 -74 -58c-35 27 -72 51 -106 71c-10 -11 -31 -33 -46 -42c35 -17 71 -38 103 -61c-29 -17 -57 -34 -84 -47l41 -36c28 14 58 30 88 47c20 -17 39 -37 54 -57l57 18c-18 24 -40 47 -63 70c28 18 55 38 73 56zM499 790
l3 56c-150 25 -305 51 -417 69l-9 -62c106 -14 267 -38 423 -63zM409 702v-78h-205v78h205zM137 572h342v181h-342v-181zM795 567l70 19c-36 75 -85 142 -141 198c40 66 86 103 128 103c24 -1 33 -31 38 -114c16 14 39 26 58 32c-12 115 -38 147 -100 147
c-64 0 -124 -45 -175 -120c-55 46 -116 87 -178 118c-11 -13 -39 -39 -55 -51c73 -33 140 -75 198 -125c-34 -70 -62 -155 -79 -249h-491v-59h483c-4 -28 -7 -58 -8 -87h71c1 29 4 59 7 87h148c-22 -21 -59 -48 -91 -66l46 -35c36 19 79 47 100 70l-40 31h152v59h-306
c13 74 35 142 60 198c43 -46 79 -99 105 -156z" />
</svg>
