<?xml version="1.0" standalone="no"?>
<!DOCTYPE svg PUBLIC "-//W3C//DTD SVG 1.1//EN" "http://www.w3.org/Graphics/SVG/1.1/DTD/svg11.dtd" >
<svg xmlns="http://www.w3.org/2000/svg" xmlns:xlink="http://www.w3.org/1999/xlink" version="1.1" viewBox="-10 0 1010 1000">
   <path fill="currentColor"
d="M216 208l-65 27c-10 -45 -37 -112 -59 -163l62 -23c24 50 50 116 62 159zM444 681h-166c-19 104 -65 208 -178 276c-9 -15 -32 -42 -48 -56c97 -51 137 -136 152 -220h-152v-67h161c2 -24 2 -48 2 -70v-57h-133v-66h133v-117h-155v-67h225c24 -55 50 -136 64 -193l72 21
c-21 57 -47 122 -70 172h87v67h-150v117h126v66h-126v57c0 22 -1 46 -2 70h158v67zM919 512h-162c48 125 131 254 211 320c-17 14 -39 40 -52 58c-70 -67 -140 -183 -190 -303v369h-70v-368c-53 126 -130 238 -214 304c-11 -19 -33 -45 -49 -58c95 -65 181 -190 230 -322
h-144v-69h177v-165h-194v-70h194v-164h70v164h204v70h-204v165h193v69z" />
</svg>
