<?xml version="1.0" standalone="no"?>
<!DOCTYPE svg PUBLIC "-//W3C//DTD SVG 1.1//EN" "http://www.w3.org/Graphics/SVG/1.1/DTD/svg11.dtd" >
<svg xmlns="http://www.w3.org/2000/svg" xmlns:xlink="http://www.w3.org/1999/xlink" version="1.1" viewBox="-10 0 1010 1000">
   <path fill="currentColor"
d="M202 208l-61 26c-11 -44 -34 -111 -54 -162l57 -23c23 50 46 116 58 159zM270 487v57c0 22 -1 46 -2 70h143v67h-151c-17 105 -59 208 -163 278c-10 -16 -31 -44 -46 -57c89 -53 125 -137 140 -221h-139v-67h147c2 -24 2 -48 2 -70v-57h-123v-66h123v-117h-143v-67h206
c22 -55 47 -136 60 -193l67 22c-20 56 -42 121 -64 171h77v67h-134v117h114v66h-114zM665 868h164c43 0 50 -23 55 -139c18 13 48 24 70 28c-10 139 -32 178 -119 178h-177c-97 0 -122 -24 -122 -113v-451h-70v-173h232c-18 -39 -51 -95 -80 -137l75 -20
c33 46 70 105 88 144l-44 13h194v173h-73v-109h-322v92h73v231c96 -43 193 -97 251 -144l59 50c-82 57 -201 111 -310 157v175c0 37 9 45 56 45z" />
</svg>
