<?xml version="1.0" standalone="no"?>
<!DOCTYPE svg PUBLIC "-//W3C//DTD SVG 1.1//EN" "http://www.w3.org/Graphics/SVG/1.1/DTD/svg11.dtd" >
<svg xmlns="http://www.w3.org/2000/svg" xmlns:xlink="http://www.w3.org/1999/xlink" version="1.1" viewBox="-10 0 1010 1000">
   <path fill="currentColor"
d="M865 128h-113v81h113v-81zM879 410h-103c-62 0 -80 -16 -80 -83v-251h222v184h-166v67c0 21 4 25 30 25h91c20 0 24 -8 26 -65c12 10 35 19 50 24c-6 78 -22 99 -70 99zM591 128h-111v79h111v-79zM598 410h-96c-60 0 -77 -17 -77 -82v-252h220v182h-165v70
c0 21 4 24 28 24h84c20 0 24 -8 26 -64c11 10 33 19 49 23c-6 77 -22 99 -69 99zM746 579h-154v115h154v-115zM531 694v-115h-124v-63h124v-80h61v80h154v-79h62v79h127v63h-127v115h148v64h-573v-64h148zM192 207l-62 24c-10 -43 -32 -109 -51 -159l59 -20
c21 49 44 114 54 155zM385 685h-139c-18 102 -61 204 -165 271c-9 -15 -30 -41 -45 -54c88 -52 126 -134 141 -217h-137v-66h145c3 -26 3 -52 3 -76v-52h-126v-66h126v-121h-135v-67h199c25 -54 53 -135 68 -192l69 21c-21 56 -48 121 -72 171h67v67h-128v121h114v66h-114
v52c0 24 -1 50 -3 76h132v66zM570 771l62 25c-53 65 -143 125 -218 163c-12 -14 -36 -40 -52 -52c77 -31 161 -81 208 -136zM713 805l52 -35c65 42 151 105 196 147l-55 39c-41 -41 -127 -107 -193 -151z" />
</svg>
