<?xml version="1.0" standalone="no"?>
<!DOCTYPE svg PUBLIC "-//W3C//DTD SVG 1.1//EN" "http://www.w3.org/Graphics/SVG/1.1/DTD/svg11.dtd" >
<svg xmlns="http://www.w3.org/2000/svg" xmlns:xlink="http://www.w3.org/1999/xlink" version="1.1" viewBox="-10 0 1010 1000">
   <path fill="currentColor"
d="M852 593h-51v-154c-28 53 -64 103 -97 134c-5 -16 -17 -38 -26 -52c40 -33 86 -96 115 -154h-72v-54h80v-57c-23 6 -48 12 -71 16c-4 -13 -11 -32 -18 -43c65 -14 139 -38 178 -61l46 40c-24 13 -54 24 -84 34v71h97v54h-84c26 59 66 126 101 160c-13 10 -30 26 -40 38
c-22 -30 -50 -80 -74 -131v159zM184 207l-60 23c-9 -43 -30 -109 -49 -159l57 -19c20 49 42 114 52 155zM363 685h-123c-17 102 -58 204 -158 273c-10 -17 -30 -43 -45 -56c85 -53 121 -134 136 -217h-130v-66h138c2 -26 2 -52 2 -76v-52h-120v-66h120l-1 -121h-127v-67h187
c25 -54 51 -135 66 -192l67 21c-22 56 -46 121 -69 171h55v67h-111v121h98v66h-98v52c0 24 -1 50 -3 76h116v66zM577 593v-156c-23 51 -52 101 -81 132c-4 -14 -14 -34 -22 -49c-5 142 -25 314 -95 431c-12 -11 -40 -30 -54 -37c79 -133 86 -326 86 -470v-360h540v63h-476
v297c0 21 0 43 -1 67c32 -35 66 -91 89 -144h-71v-54h85v-60c-24 7 -49 12 -72 16c-3 -12 -12 -31 -18 -43c60 -13 130 -35 168 -57l45 40c-22 11 -46 21 -73 29v75h68v54h-68v17c20 15 69 51 81 62l-30 47c-10 -13 -31 -35 -51 -54v154h-50zM755 765v107h205v63h-514v-63
h88v-203h62v203h93v-264h66v95h166v62h-166z" />
</svg>
