<?xml version="1.0" standalone="no"?>
<!DOCTYPE svg PUBLIC "-//W3C//DTD SVG 1.1//EN" "http://www.w3.org/Graphics/SVG/1.1/DTD/svg11.dtd" >
<svg xmlns="http://www.w3.org/2000/svg" xmlns:xlink="http://www.w3.org/1999/xlink" version="1.1" viewBox="-10 0 1010 1000">
   <path fill="currentColor"
d="M817 282v-134h-305v-63h373v422h-68v-165c-96 48 -194 96 -271 133l-29 -58c75 -31 189 -84 300 -135zM542 239l32 -49c56 16 130 44 168 67l-32 55c-38 -24 -111 -55 -168 -73zM113 481l-27 -61c77 -29 192 -78 306 -126v-148h-295v-64h364v422h-69v-149
c-99 46 -200 92 -279 126zM129 232l33 -47c53 16 121 45 156 68l-33 53c-35 -24 -103 -55 -156 -74zM536 870h405v63h-881v-63h402v-103h-292v-62h292v-97h-335v-63h753v63h-344v97h296v62h-296v103z" />
</svg>
