<?xml version="1.0" standalone="no"?>
<!DOCTYPE svg PUBLIC "-//W3C//DTD SVG 1.1//EN" "http://www.w3.org/Graphics/SVG/1.1/DTD/svg11.dtd" >
<svg xmlns="http://www.w3.org/2000/svg" xmlns:xlink="http://www.w3.org/1999/xlink" version="1.1" viewBox="-10 0 1010 1000">
   <path fill="currentColor"
d="M335 612h-189v221h189v-221zM80 955v-410h323v402h-68v-48h-189v56h-66zM59 95h360s0 20 -1 31c-9 217 -18 298 -40 326c-15 18 -31 25 -55 28c-22 2 -60 1 -99 0c-2 -20 -9 -48 -19 -66c38 3 72 4 86 4s22 -1 29 -11c13 -16 22 -79 30 -243h-105
c-14 144 -50 269 -164 341c-9 -15 -28 -40 -44 -51c99 -61 129 -168 141 -290h-119v-69zM675 90v774c0 37 -8 57 -31 69c-25 11 -64 13 -122 13c-3 -18 -12 -48 -22 -66c43 2 83 1 95 1c12 -1 17 -4 17 -18v-262c-48 47 -98 93 -141 132l-36 -54c44 -38 111 -98 177 -160
v-364h-154v-65h217zM466 267l53 -16c29 64 61 146 72 195l-56 20c-11 -51 -40 -137 -69 -199zM921 91v774c0 39 -8 58 -32 70c-25 11 -65 13 -124 13c-3 -18 -14 -48 -22 -66c44 2 85 2 98 1s17 -4 17 -18v-267c-42 44 -85 88 -123 125l-36 -54c40 -37 100 -94 159 -154
v-358h-151v-66h214zM715 265l53 -13c29 63 58 145 69 193l-55 17c-11 -50 -38 -134 -67 -197z" />
</svg>
