<?xml version="1.0" standalone="no"?>
<!DOCTYPE svg PUBLIC "-//W3C//DTD SVG 1.1//EN" "http://www.w3.org/Graphics/SVG/1.1/DTD/svg11.dtd" >
<svg xmlns="http://www.w3.org/2000/svg" xmlns:xlink="http://www.w3.org/1999/xlink" version="1.1" viewBox="-10 0 1010 1000">
   <path fill="currentColor"
d="M188 292l44 -19c24 42 47 98 55 135l-47 22c-6 -38 -28 -95 -52 -138zM161 477h158v-249h-158v249zM376 167v702c0 37 -9 55 -30 66c-22 10 -57 11 -116 11c-3 -16 -11 -43 -20 -60c43 2 81 1 92 1c12 0 17 -4 17 -17v-331h-158c0 130 -10 304 -74 417
c-10 -10 -36 -25 -50 -31c62 -109 68 -263 68 -386h-64v-62h64v-310h79c12 -40 25 -92 31 -129l73 15c-13 39 -28 80 -41 114h129zM290 719l-47 22c-6 -38 -28 -96 -52 -138l43 -19c25 41 48 98 56 135zM653 88v773c0 42 -9 64 -34 76c-27 12 -72 14 -138 13
c-3 -19 -14 -51 -23 -70c50 2 97 1 111 0c14 0 19 -5 19 -20v-274c-56 54 -114 108 -163 152l-32 -55c49 -41 122 -109 195 -176v-352h-176v-67h241zM421 278l50 -14c30 60 62 143 74 192l-53 19c-12 -50 -42 -134 -71 -197zM925 88v774c0 41 -9 63 -34 76
c-27 13 -69 14 -133 14c-2 -20 -12 -52 -22 -72c47 1 91 1 104 0c13 0 18 -4 18 -19v-280c-52 51 -104 101 -148 142l-34 -55c45 -39 114 -102 182 -166v-347h-172v-67h239zM688 277l50 -12c29 61 59 143 71 191l-53 16c-11 -50 -40 -132 -68 -195z" />
</svg>
