<?xml version="1.0" standalone="no"?>
<!DOCTYPE svg PUBLIC "-//W3C//DTD SVG 1.1//EN" "http://www.w3.org/Graphics/SVG/1.1/DTD/svg11.dtd" >
<svg xmlns="http://www.w3.org/2000/svg" xmlns:xlink="http://www.w3.org/1999/xlink" version="1.1" viewBox="-10 0 1010 1000">
   <path fill="currentColor"
d="M138 492v77h193v-77h-193zM138 359v76h193v-76h-193zM265 629v83h154v68h-154v176h-65v-176h-155v-68h155v-83h-121v-329h121v-84h-146v-67h146v-106h65v106h146v67h-146v84h127v329h-127zM661 88v773c0 42 -9 64 -34 76c-26 12 -69 14 -133 13c-3 -19 -14 -51 -22 -70
c48 2 94 1 107 0c13 0 18 -5 18 -20v-274c-54 54 -109 107 -156 152l-32 -55c48 -41 118 -109 188 -177v-351h-170v-67h234zM436 278l48 -14c30 60 60 143 72 192l-52 19c-11 -50 -40 -134 -68 -197zM925 88v774c0 41 -9 63 -33 76c-25 13 -67 14 -129 14
c-2 -20 -11 -52 -22 -72c46 1 89 1 101 0c13 0 17 -4 17 -19v-279c-50 50 -99 100 -142 141l-34 -55c45 -39 111 -102 176 -166v-347h-165v-67h231zM696 277l49 -12c27 61 56 143 67 191l-52 16c-10 -50 -38 -132 -64 -195z" />
</svg>
