<?xml version="1.0" standalone="no"?>
<!DOCTYPE svg PUBLIC "-//W3C//DTD SVG 1.1//EN" "http://www.w3.org/Graphics/SVG/1.1/DTD/svg11.dtd" >
<svg xmlns="http://www.w3.org/2000/svg" xmlns:xlink="http://www.w3.org/1999/xlink" version="1.1" viewBox="-10 0 1010 1000">
   <path fill="currentColor"
d="M233 92v775c0 38 -7 58 -27 70s-52 13 -99 13c-2 -19 -10 -49 -18 -68c33 1 64 1 74 1c10 -1 14 -4 14 -17v-250c-38 43 -75 85 -110 121l-30 -56c36 -36 88 -92 140 -151v-373h-118v-65h174zM59 268l47 -16c26 63 51 145 61 194l-50 22c-9 -51 -34 -137 -58 -200z
M433 93v771c0 39 -7 58 -27 71c-20 12 -53 13 -100 13c-2 -18 -11 -50 -19 -68c35 1 68 1 77 1c10 -1 13 -5 13 -18v-253c-33 41 -67 82 -98 118l-30 -56c32 -37 80 -93 128 -151v-363h-122v-65h178zM258 266l48 -14c24 62 51 142 60 190l-49 19c-10 -49 -34 -133 -59 -195z
M533 751l49 -31c39 34 84 84 104 119l-51 36c-19 -35 -63 -87 -102 -124zM838 589v63h116v58h-116v175c0 34 -6 50 -30 60c-23 10 -59 10 -115 10c-2 -17 -12 -41 -20 -59c40 2 76 2 87 1c11 0 14 -3 14 -13v-174h-313v-58h313v-63h64zM857 319h-115v60h115v-60zM742 493
h115v-63h-115v63zM568 493h111v-63h-111v63zM679 319h-111v60h111v-60zM884 145h70v58h-212v61h179v333h-64v-51h-115v48h-63v-48h-111v56h-62v-338h173v-61h-206v-58h206v-102h63v102h126c-25 -23 -65 -49 -101 -66l35 -36c39 18 87 46 110 69z" />
</svg>
