<?xml version="1.0" standalone="no"?>
<!DOCTYPE svg PUBLIC "-//W3C//DTD SVG 1.1//EN" "http://www.w3.org/Graphics/SVG/1.1/DTD/svg11.dtd" >
<svg xmlns="http://www.w3.org/2000/svg" xmlns:xlink="http://www.w3.org/1999/xlink" version="1.1" viewBox="-10 0 1010 1000">
   <path fill="currentColor"
d="M858 108l69 26c-33 55 -73 116 -105 155l-54 -23c31 -43 70 -111 90 -158zM529 109l59 13c-13 58 -39 131 -71 175l-59 -25c30 -40 57 -105 71 -163zM933 448l-44 57c-43 -46 -125 -115 -199 -169c-34 86 -98 139 -220 176c-7 -19 -25 -47 -38 -61
c203 -56 221 -156 225 -407h69c-2 89 -6 163 -18 224c82 56 176 130 225 180zM833 731l-55 -23c29 -46 68 -122 88 -174l70 27c-32 60 -72 127 -103 170zM509 540l62 13c-16 65 -43 141 -79 189l-60 -31c33 -41 61 -110 77 -171zM406 706l-45 51c-16 -32 -55 -91 -86 -139
v338h-70v-287c-36 78 -81 154 -126 202c-8 -19 -25 -49 -38 -65c56 -59 118 -165 153 -258h-142v-65h153v-113h-134v-64h134v-107h-148v-64h148v-92h70v92h125v64h-125v107h121v64h-121v113h120v65h-102c34 45 97 133 113 158zM651 457h70c-1 50 -4 96 -8 137
c34 146 114 262 255 298c-16 16 -35 45 -44 66c-115 -38 -188 -121 -235 -235c-33 116 -106 190 -261 237c-7 -20 -27 -50 -42 -66c236 -64 258 -185 265 -437z" />
</svg>
