<?xml version="1.0" standalone="no"?>
<!DOCTYPE svg PUBLIC "-//W3C//DTD SVG 1.1//EN" "http://www.w3.org/Graphics/SVG/1.1/DTD/svg11.dtd" >
<svg xmlns="http://www.w3.org/2000/svg" xmlns:xlink="http://www.w3.org/1999/xlink" version="1.1" viewBox="-10 0 1010 1000">
   <path fill="currentColor"
d="M387 706l-43 51c-17 -31 -54 -92 -85 -141v340h-67v-289c-34 76 -75 149 -118 196c-7 -20 -24 -49 -36 -66c52 -58 110 -159 143 -249h-136v-65h147v-113h-128v-64h128v-107h-141v-64h141v-92h67v92h121v64h-121v107h117v64h-117v113h116v65h-99c33 45 94 133 111 158z
M505 478h134v-80h-134v80zM844 398h-138v80h138v-80zM585 182v64h175v-64h-175zM948 766h-220c49 70 138 113 253 131c-16 14 -34 41 -42 60c-125 -27 -217 -84 -269 -174c-38 73 -114 136 -258 175c-7 -16 -27 -42 -40 -57c130 -28 196 -77 232 -135h-206v-59h230
c5 -21 8 -41 10 -62h-213v-58h214v-56h-199v-186h199v-48h-119v-115h-111v-59h111v-78h65v78h175v-78h67v78h107v59h-107v115h-121v48h205v186h-205v56h207v58h-208c-2 21 -4 41 -9 62h252v59z" />
</svg>
