<?xml version="1.0" standalone="no"?>
<!DOCTYPE svg PUBLIC "-//W3C//DTD SVG 1.1//EN" "http://www.w3.org/Graphics/SVG/1.1/DTD/svg11.dtd" >
<svg xmlns="http://www.w3.org/2000/svg" xmlns:xlink="http://www.w3.org/1999/xlink" version="1.1" viewBox="-10 0 1010 1000">
   <path fill="currentColor"
d="M172 562v163c38 -6 79 -13 121 -20v-143h-121zM293 154h-121v140h121v-140zM172 357v143h121v-143h-121zM406 686l4 65l-51 9v197h-66v-185c-87 15 -169 30 -237 42l-15 -70c20 -3 42 -6 66 -10v-580h-55v-68h357v68h-50v540zM832 663h-297v185h297v-185zM465 957v-359
h439v356h-72v-41h-297v44h-70zM796 314h-157c-11 55 -22 107 -30 150h187v-150zM866 464h89v63h-546v-63h126c11 -43 21 -96 31 -150h-109v-62h121c6 -35 12 -71 17 -104h-166v-63h506v63h-266c-6 33 -12 69 -19 104h216v212z" />
</svg>
