<?xml version="1.0" standalone="no"?>
<!DOCTYPE svg PUBLIC "-//W3C//DTD SVG 1.1//EN" "http://www.w3.org/Graphics/SVG/1.1/DTD/svg11.dtd" >
<svg xmlns="http://www.w3.org/2000/svg" xmlns:xlink="http://www.w3.org/1999/xlink" version="1.1" viewBox="-10 0 1010 1000">
   <path fill="currentColor"
d="M462 492v-141c-92 69 -241 128 -369 156c-9 -15 -31 -40 -46 -53c108 -21 232 -60 319 -109h-302v-58h213c-13 -27 -38 -64 -63 -93l62 -23c27 29 58 70 70 98l-41 18h157v-135c-109 7 -221 11 -321 12c-1 -16 -8 -39 -15 -53c231 -5 524 -22 683 -58l34 54
c-82 18 -192 31 -308 40v140h105c32 -39 70 -97 92 -138l72 31c-28 36 -57 74 -85 107h219v58h-299c85 46 206 85 311 103c-17 13 -39 40 -49 56c-126 -28 -274 -89 -364 -159h-2v147h-73zM275 838l443 -13v-48h-443v61zM718 575h-443v56h443v-56zM275 675v58h443v-58h-443z
M947 819l2 53l-163 5v79h-68v-77l-667 19l-1 -54l158 -4v-265h-144v-53h880v53h-158v248z" />
</svg>
