<?xml version="1.0" standalone="no"?>
<!DOCTYPE svg PUBLIC "-//W3C//DTD SVG 1.1//EN" "http://www.w3.org/Graphics/SVG/1.1/DTD/svg11.dtd" >
<svg xmlns="http://www.w3.org/2000/svg" xmlns:xlink="http://www.w3.org/1999/xlink" version="1.1" viewBox="-10 0 1010 1000">
   <path fill="currentColor"
d="M815 149v582h-57v-582h57zM157 725l94 -16v-147h-94v163zM251 154h-94v140h94v-140zM157 357v143h94v-143h-94zM348 692l4 64l-44 9v192h-57v-181c-72 13 -142 27 -199 38l-13 -70c19 -3 39 -6 62 -10v-580h-53v-68h307v68h-47v545zM383 381h136v-109h-86
c-14 41 -30 79 -50 109zM575 272v109h154v59h-154v102h135v269c0 27 -4 42 -22 53c-16 10 -39 10 -73 10c-2 -16 -10 -38 -18 -54c24 1 41 1 48 0c7 0 9 -2 9 -9v-211h-79v350h-56v-350h-76v271h-54v-329h130v-102h-151v-59h12c-11 -10 -33 -26 -45 -33
c41 -61 67 -153 79 -247l57 11c-6 34 -13 69 -21 102h69v-163h56v163h128v58h-128zM875 65l56 1v809c0 38 -10 54 -32 63c-24 10 -63 11 -130 11c-3 -15 -11 -39 -18 -55c48 2 92 1 104 1c14 -1 20 -5 20 -20v-810z" />
</svg>
