<?xml version="1.0" standalone="no"?>
<!DOCTYPE svg PUBLIC "-//W3C//DTD SVG 1.1//EN" "http://www.w3.org/Graphics/SVG/1.1/DTD/svg11.dtd" >
<svg xmlns="http://www.w3.org/2000/svg" xmlns:xlink="http://www.w3.org/1999/xlink" version="1.1" viewBox="-10 0 1010 1000">
   <path fill="currentColor"
d="M895 249l60 26c-26 77 -55 178 -80 239l-42 -20c22 -64 50 -171 62 -245zM654 518l-48 -23c39 -51 55 -146 54 -233l52 8c1 89 -14 189 -58 248zM156 562v163c33 -6 70 -13 106 -21v-142h-106zM262 154h-106v140h106v-140zM156 357v143h106v-143h-106zM365 684l3 65
l-46 10v198h-60v-185l-208 42l-13 -70c18 -3 36 -6 57 -10v-580h-48v-68h320v68h-48v539zM660 593l-42 47c-12 -22 -41 -65 -66 -101v418h-64v-426c-27 80 -61 155 -96 203c-7 -18 -24 -45 -34 -60c49 -66 98 -185 125 -290h-106v-65h111v-159c-28 7 -57 14 -83 19
c-3 -15 -14 -39 -23 -54c79 -17 168 -45 217 -75l54 51c-29 16 -64 28 -101 40v178h81v65h-81v86c24 23 91 103 108 123zM818 47v331c-1 81 19 365 147 518c-13 16 -32 44 -43 61c-98 -120 -131 -327 -136 -406c-6 84 -40 281 -150 407c-8 -16 -28 -45 -40 -60
c141 -156 158 -437 157 -520v-331h65z" />
</svg>
