<?xml version="1.0" standalone="no"?>
<!DOCTYPE svg PUBLIC "-//W3C//DTD SVG 1.1//EN" "http://www.w3.org/Graphics/SVG/1.1/DTD/svg11.dtd" >
<svg xmlns="http://www.w3.org/2000/svg" xmlns:xlink="http://www.w3.org/1999/xlink" version="1.1" viewBox="-10 0 1010 1000">
   <path fill="currentColor"
d="M167 723l114 -21v-139h-114v160zM281 154h-114v140h114v-140zM167 357v143h114v-143h-114zM383 745l-40 9v203h-62v-191c-82 17 -162 32 -226 45l-14 -67c20 -2 41 -6 65 -10v-580h-55v-68h343v68h-51v537l36 -7zM407 953l-53 -30c39 -43 74 -115 93 -171l53 25
c-22 58 -53 131 -93 176zM557 778l53 -10c15 54 28 124 31 170l-56 10c-3 -46 -15 -116 -28 -170zM834 200v-67h-342v67h342zM834 320v-69h-342v69h342zM898 80v293h-468v-293h468zM562 599l38 -16c24 45 47 105 56 145l-42 19c-2 -14 -7 -29 -12 -46
c-151 17 -178 22 -195 29c-2 -10 -12 -36 -20 -49c18 -1 34 -17 56 -40c12 -11 38 -43 67 -82c-76 6 -96 10 -108 14c-3 -11 -13 -35 -19 -46c12 -2 22 -11 34 -26c13 -15 54 -72 75 -128l53 25c-21 39 -46 78 -72 111l74 -4c12 -19 23 -38 33 -58l51 30
c-40 64 -90 130 -142 184l96 -9c-8 -19 -16 -36 -23 -53zM946 730l-41 20c-3 -14 -8 -30 -15 -48c-162 18 -188 24 -206 31c-3 -11 -13 -36 -20 -48c17 -3 34 -18 54 -42c12 -10 38 -41 65 -78c-75 6 -95 10 -107 14c-3 -10 -13 -35 -19 -46c12 -2 23 -11 35 -26
c13 -15 54 -72 75 -128l53 25c-20 38 -46 78 -72 111l71 -4c14 -21 26 -42 37 -64l51 30c-40 64 -90 132 -141 186l105 -10c-7 -18 -16 -34 -24 -50l38 -19c27 46 52 106 61 146zM677 780l50 -18c28 51 55 120 66 164l-53 20c-10 -45 -37 -114 -63 -166zM802 769l50 -23
c40 56 81 131 99 180l-53 27c-17 -51 -57 -127 -96 -184z" />
</svg>
