<?xml version="1.0" standalone="no"?>
<!DOCTYPE svg PUBLIC "-//W3C//DTD SVG 1.1//EN" "http://www.w3.org/Graphics/SVG/1.1/DTD/svg11.dtd" >
<svg xmlns="http://www.w3.org/2000/svg" xmlns:xlink="http://www.w3.org/1999/xlink" version="1.1" viewBox="-10 0 1010 1000">
   <path fill="currentColor"
d="M172 550h155v-168h-153v56c0 34 -1 72 -2 112zM327 149h-153v164h153v-164zM393 80v779c0 40 -9 62 -33 75c-25 12 -63 14 -129 14c-2 -19 -10 -52 -20 -71c46 2 86 1 98 1c14 -1 18 -6 18 -19v-238h-159c-9 118 -28 242 -73 337c-12 -12 -41 -29 -58 -36
c67 -140 72 -338 72 -484v-358h284zM861 877h21c8 0 15 -2 19 -6c4 -5 8 -15 10 -27c1 -19 3 -66 2 -118c15 12 36 23 54 29c-1 49 -4 109 -8 132c-4 25 -12 38 -25 48c-12 10 -31 14 -48 14h-44c-20 0 -39 -5 -53 -20c-15 -15 -19 -31 -19 -85v-690h-219v224l50 -30
c60 69 131 163 161 223l-59 39c-29 -60 -93 -153 -152 -222v97c0 147 -13 345 -109 476c-11 -12 -38 -33 -55 -41c90 -122 98 -297 98 -435v-397h354v762c0 8 1 16 5 20c5 4 10 7 17 7z" />
</svg>
