<?xml version="1.0" standalone="no"?>
<!DOCTYPE svg PUBLIC "-//W3C//DTD SVG 1.1//EN" "http://www.w3.org/Graphics/SVG/1.1/DTD/svg11.dtd" >
<svg xmlns="http://www.w3.org/2000/svg" xmlns:xlink="http://www.w3.org/1999/xlink" version="1.1" viewBox="-10 0 1010 1000">
   <path fill="currentColor"
d="M769 197l-53 47c-36 -47 -116 -112 -186 -155l50 -42c70 41 151 103 189 150zM167 552h128v-170h-126v55c0 35 0 74 -2 115zM295 148h-126v166h126v-166zM361 80v782c0 38 -8 59 -32 71c-24 13 -61 14 -125 14c-2 -18 -11 -49 -20 -68c43 1 82 1 94 1c12 -1 17 -6 17 -19
v-240h-132c-8 117 -27 241 -69 335c-13 -11 -42 -28 -59 -34c64 -140 69 -339 69 -485v-357h257zM441 396l61 14c-12 103 -34 232 -82 307l-58 -28c46 -73 69 -192 79 -293zM964 685l-68 19c-10 -79 -46 -198 -91 -290c-49 119 -110 226 -180 319v106c0 39 6 46 42 46h115
c33 0 38 -25 43 -148c16 13 44 26 64 29c-8 143 -27 185 -102 185h-129c-82 0 -104 -24 -104 -113v-21c-40 44 -83 84 -131 120c-12 -14 -42 -38 -60 -50c71 -51 135 -112 191 -181v-438h71v341c93 -144 162 -314 212 -504l71 15c-28 100 -60 196 -98 285l56 -17
c48 94 87 216 98 297z" />
</svg>
