<?xml version="1.0" standalone="no"?>
<!DOCTYPE svg PUBLIC "-//W3C//DTD SVG 1.1//EN" "http://www.w3.org/Graphics/SVG/1.1/DTD/svg11.dtd" >
<svg xmlns="http://www.w3.org/2000/svg" xmlns:xlink="http://www.w3.org/1999/xlink" version="1.1" viewBox="-10 0 1010 1000">
   <path fill="currentColor"
d="M892 116v67h-444v-67h444zM166 552h109v-170h-107v55c0 35 0 74 -2 115zM275 148h-107v166h107v-166zM341 80v782c0 38 -8 59 -32 71c-24 13 -60 14 -123 14c-3 -18 -12 -49 -21 -68c43 1 81 1 93 1c12 -1 17 -6 17 -19v-240h-113c-8 117 -27 240 -69 335
c-13 -11 -41 -28 -58 -34c64 -140 68 -339 68 -485v-357h238zM503 495l65 15c-34 132 -90 262 -153 349c-10 -11 -37 -34 -51 -44c60 -80 109 -199 139 -320zM954 405h-246v448c0 40 -9 59 -36 71c-29 11 -73 13 -143 12c-4 -19 -15 -48 -24 -67c51 2 99 2 112 1
c14 0 19 -4 19 -17v-448h-242v-67h560v67zM771 509l61 -20c48 107 99 244 123 335l-65 23c-22 -91 -74 -232 -119 -338z" />
</svg>
