<?xml version="1.0" standalone="no"?>
<!DOCTYPE svg PUBLIC "-//W3C//DTD SVG 1.1//EN" "http://www.w3.org/Graphics/SVG/1.1/DTD/svg11.dtd" >
<svg xmlns="http://www.w3.org/2000/svg" xmlns:xlink="http://www.w3.org/1999/xlink" version="1.1" viewBox="-10 0 1010 1000">
   <path fill="currentColor"
d="M173 550h145v-168h-143v56c0 34 -1 72 -2 112zM318 149h-143v164h143v-164zM384 80v779c0 40 -8 62 -33 75c-25 12 -63 14 -130 14c-2 -19 -11 -52 -21 -71c46 2 88 1 100 1c13 -1 18 -6 18 -19v-238h-149c-9 118 -28 242 -73 337c-12 -12 -41 -29 -58 -36
c66 -140 72 -338 72 -484v-358h274zM831 849v-195h-287v195h287zM956 420h-232v166h179v367h-72v-36h-287v40h-69v-371h180v-166h-218v-71h218v-178c-65 10 -131 19 -192 26c-3 -17 -12 -43 -19 -60c146 -19 317 -50 413 -87l48 59c-51 18 -114 35 -181 48v192h232v71z" />
</svg>
