<?xml version="1.0" standalone="no"?>
<!DOCTYPE svg PUBLIC "-//W3C//DTD SVG 1.1//EN" "http://www.w3.org/Graphics/SVG/1.1/DTD/svg11.dtd" >
<svg xmlns="http://www.w3.org/2000/svg" xmlns:xlink="http://www.w3.org/1999/xlink" version="1.1" viewBox="-10 0 1010 1000">
   <path fill="currentColor"
d="M155 552h120v-170h-118v55c0 35 0 74 -2 115zM275 148h-118v166h118v-166zM336 80v782c0 38 -8 59 -31 71c-22 13 -58 14 -119 14c-3 -18 -10 -49 -19 -68c43 1 80 1 91 1c12 -1 17 -6 17 -19v-240h-124c-8 117 -25 240 -67 335c-12 -11 -38 -28 -54 -34
c62 -140 67 -339 67 -485v-357h239zM909 492l47 23c-91 263 -321 389 -574 446c-7 -19 -23 -47 -37 -61c118 -23 234 -64 329 -129c-29 -28 -71 -63 -110 -88l56 -37c36 23 80 54 110 82c55 -46 99 -102 131 -169h-210c-61 58 -137 112 -229 157c-10 -17 -31 -41 -47 -52
c141 -62 242 -151 299 -234c-79 54 -168 95 -260 122c-8 -16 -25 -41 -39 -55c86 -22 174 -60 249 -111c-28 -27 -70 -57 -106 -81l54 -36c35 20 77 50 106 76c50 -42 91 -90 122 -144h-210c-50 50 -110 97 -182 138c-10 -17 -33 -39 -49 -51c131 -67 224 -163 271 -245
l74 15c-16 27 -36 55 -58 81h191l13 -3l46 24c-42 102 -109 184 -192 247l61 12c-15 25 -34 51 -55 76h186z" />
</svg>
