<?xml version="1.0" standalone="no"?>
<!DOCTYPE svg PUBLIC "-//W3C//DTD SVG 1.1//EN" "http://www.w3.org/Graphics/SVG/1.1/DTD/svg11.dtd" >
<svg xmlns="http://www.w3.org/2000/svg" xmlns:xlink="http://www.w3.org/1999/xlink" version="1.1" viewBox="-10 0 1010 1000">
   <path fill="currentColor"
d="M165 552h113v-170h-111v54c0 35 -1 74 -2 116zM278 148h-111v166h111v-166zM948 542h-214c55 119 146 238 233 301c-17 13 -41 38 -52 58c-77 -65 -156 -176 -213 -292v347h-71v-343c-63 122 -153 234 -244 299c-11 -16 -29 -38 -44 -53v3c0 38 -8 59 -32 71
c-24 13 -60 14 -123 14c-3 -18 -10 -49 -20 -68c44 1 81 1 93 1c12 -1 17 -6 17 -19v-240h-117c-9 117 -27 240 -70 335c-12 -11 -40 -28 -57 -34c64 -140 69 -340 69 -486v-356h240v771c99 -64 197 -186 255 -309h-208v-68h241v-176h-128c-18 56 -39 106 -63 146
c-14 -10 -43 -29 -61 -37c53 -78 84 -197 100 -318l69 12c-7 44 -16 88 -26 129h109v-186h71v186h204v68h-204v176h246v68z" />
</svg>
