<?xml version="1.0" standalone="no"?>
<!DOCTYPE svg PUBLIC "-//W3C//DTD SVG 1.1//EN" "http://www.w3.org/Graphics/SVG/1.1/DTD/svg11.dtd" >
<svg xmlns="http://www.w3.org/2000/svg" xmlns:xlink="http://www.w3.org/1999/xlink" version="1.1" viewBox="-10 0 1010 1000">
   <path fill="currentColor"
d="M516 320l-60 31c-8 -17 -17 -38 -29 -61c-289 41 -326 48 -347 59c-5 -16 -17 -51 -25 -70c17 -4 31 -20 50 -43c20 -23 82 -112 119 -199l72 29c-35 68 -79 136 -122 192l222 -28c-19 -34 -38 -70 -56 -100l57 -25c42 69 94 161 119 215zM181 679h210v-91h-210v91z
M391 440h-210v84h210v-84zM464 374v489c0 37 -8 56 -34 67c-25 11 -64 12 -127 12c-4 -19 -14 -46 -23 -64c43 2 83 2 94 1c13 0 17 -4 17 -16v-120h-210v214h-73v-583h356zM970 914l-71 35c-9 -25 -20 -54 -35 -86c-278 38 -316 45 -339 56v2c-4 -15 -17 -52 -26 -72
c19 -4 36 -29 56 -65c18 -29 68 -128 105 -234h-168v-71h193v-185h-163v-71h163v-177h74v177h164v71h-164v185h195v71h-211c-37 101 -85 201 -133 282l227 -29c-24 -54 -52 -111 -76 -159l66 -28c51 97 113 225 143 298z" />
</svg>
