<?xml version="1.0" standalone="no"?>
<!DOCTYPE svg PUBLIC "-//W3C//DTD SVG 1.1//EN" "http://www.w3.org/Graphics/SVG/1.1/DTD/svg11.dtd" >
<svg xmlns="http://www.w3.org/2000/svg" xmlns:xlink="http://www.w3.org/1999/xlink" version="1.1" viewBox="-10 0 1010 1000">
   <path fill="currentColor"
d="M399 320v-114h-207v58c0 18 -1 36 -2 56h209zM298 148h172v230h-288c-12 62 -35 124 -81 173c-11 -12 -40 -34 -55 -41c67 -74 77 -172 77 -247v-115h161c-10 -25 -29 -60 -48 -86l61 -23c23 28 44 64 55 87zM625 206l-4 6c23 48 57 90 98 126c34 -37 61 -80 78 -132
h-172zM724 636v-65h-447v65h447zM277 750h447v-63h-447v63zM943 206h-71c-24 69 -57 126 -101 173c53 35 115 60 185 77c-16 14 -35 40 -45 58c-72 -21 -134 -50 -188 -90c-48 38 -104 68 -168 93h243v356c0 41 -10 58 -41 68s-83 10 -163 10c-4 -18 -14 -42 -24 -60
c59 2 117 2 132 1c17 -1 22 -5 22 -19v-70h-447v153h-74v-439h335c-10 -15 -28 -38 -40 -50c68 -21 126 -49 174 -85c-35 -34 -65 -72 -89 -115c-20 25 -40 48 -60 69c-11 -13 -38 -39 -53 -51c66 -59 126 -151 162 -244l68 19c-11 28 -24 56 -39 83h282v63z" />
</svg>
