<?xml version="1.0" standalone="no"?>
<!DOCTYPE svg PUBLIC "-//W3C//DTD SVG 1.1//EN" "http://www.w3.org/Graphics/SVG/1.1/DTD/svg11.dtd" >
<svg xmlns="http://www.w3.org/2000/svg" xmlns:xlink="http://www.w3.org/1999/xlink" version="1.1" viewBox="-10 0 1010 1000">
   <path fill="currentColor"
d="M922 351l-36 57c-48 -34 -138 -88 -215 -130c-39 61 -103 101 -216 126c-6 -16 -23 -42 -35 -54c131 -28 188 -74 213 -157h-200v-62h214c3 -26 6 -55 7 -87h68c-1 31 -3 61 -7 87h213v62h-225c-2 10 -4 20 -7 28c78 42 174 95 226 130zM163 552h126v-170h-124v55
c0 35 0 74 -2 115zM289 148h-124v166h124v-166zM354 80v782c0 38 -8 59 -32 71c-23 13 -60 14 -122 14c-3 -18 -11 -49 -20 -68c43 1 81 1 91 1c13 -1 18 -6 18 -19v-240h-130c-8 117 -26 240 -68 335c-12 -11 -41 -28 -57 -34c63 -140 67 -339 67 -485v-357h253zM668 603
h-138v123h138v-123zM730 782h-200v56h-61v-290h261v234zM958 411v63h-68v398c0 41 -10 61 -40 73c-31 11 -80 12 -157 12c-4 -20 -16 -49 -26 -68c61 2 115 2 131 1s21 -5 21 -20v-396h-417v-63h556z" />
</svg>
