<?xml version="1.0" standalone="no"?>
<!DOCTYPE svg PUBLIC "-//W3C//DTD SVG 1.1//EN" "http://www.w3.org/Graphics/SVG/1.1/DTD/svg11.dtd" >
<svg xmlns="http://www.w3.org/2000/svg" xmlns:xlink="http://www.w3.org/1999/xlink" version="1.1" viewBox="-10 0 1010 1000">
   <path fill="currentColor"
d="M627 299v-87h-238v-63h238v-105h73v105h236v63h-236v87h194v62h-468v-62h201zM815 599v-111h-310v111h310zM886 428v231h-450v-231h450zM606 821l-70 18c-3 -41 -22 -105 -46 -153l65 -17c25 47 45 110 51 152zM166 552h128v-170h-126v55c0 35 0 74 -2 115zM294 148h-126
v166h126v-166zM360 80v782c0 38 -8 59 -32 71c-24 13 -60 14 -124 14c-3 -18 -12 -49 -20 -68c43 1 81 1 93 1c12 -1 17 -6 17 -19v-240h-132c-8 117 -27 240 -69 335c-13 -11 -41 -28 -58 -34c64 -140 68 -339 68 -485v-357h257zM790 848h166v63h-579v-63h344
c21 -52 43 -125 56 -176l72 15c-19 53 -40 113 -59 161z" />
</svg>
