<?xml version="1.0" standalone="no"?>
<!DOCTYPE svg PUBLIC "-//W3C//DTD SVG 1.1//EN" "http://www.w3.org/Graphics/SVG/1.1/DTD/svg11.dtd" >
<svg xmlns="http://www.w3.org/2000/svg" xmlns:xlink="http://www.w3.org/1999/xlink" version="1.1" viewBox="-10 0 1010 1000">
   <path fill="currentColor"
d="M153 552h118v-170h-116v55c0 35 0 74 -2 115zM271 148h-116v166h116v-166zM334 80v782c0 38 -8 59 -31 71c-23 13 -60 14 -122 14c-2 -18 -11 -49 -20 -68c43 1 81 1 93 1c12 -1 17 -6 17 -19v-240h-122c-8 117 -26 240 -68 335c-12 -11 -39 -28 -55 -34
c62 -140 67 -339 67 -485v-357h241zM530 551h251c-16 -22 -30 -47 -43 -71h-164c-13 25 -28 49 -44 71zM540 849h220v-92h-220v92zM760 699v-87h-220v87h220zM952 480h-145c42 66 102 128 163 162c-15 13 -36 37 -47 56c-33 -22 -67 -53 -96 -87v341h-67v-40h-220v44h-64
v-339c-27 28 -57 55 -90 78c-10 -15 -33 -44 -48 -58c65 -41 116 -94 159 -157h-121v-64h157c12 -25 23 -50 32 -78h-143v-61h164c7 -24 14 -50 20 -76h-197v-62h208c6 -30 11 -63 15 -96l64 10c-3 29 -8 59 -13 86h237v62h-249c-6 26 -12 52 -19 76h251v61h-268
c-10 28 -20 53 -29 78h346v64z" />
</svg>
