<?xml version="1.0" standalone="no"?>
<!DOCTYPE svg PUBLIC "-//W3C//DTD SVG 1.1//EN" "http://www.w3.org/Graphics/SVG/1.1/DTD/svg11.dtd" >
<svg xmlns="http://www.w3.org/2000/svg" xmlns:xlink="http://www.w3.org/1999/xlink" version="1.1" viewBox="-10 0 1010 1000">
   <path fill="currentColor"
d="M893 252l62 25c-30 76 -62 172 -90 232l-46 -21c26 -62 58 -166 74 -236zM641 524l-50 -25c41 -53 61 -151 65 -238l53 8c-4 91 -24 193 -68 255zM149 552h95v-170h-93v56c0 35 0 74 -2 114zM244 148h-93v166h93v-166zM306 80v789c0 35 -7 55 -28 67s-54 14 -107 13
c-2 -17 -11 -47 -19 -65c36 1 68 1 78 0c10 0 14 -4 14 -16v-247h-98c-7 116 -23 240 -58 335c-11 -9 -38 -25 -54 -31c53 -141 57 -341 57 -486v-359h215zM652 635l-44 54c-15 -27 -51 -77 -81 -117v386h-65v-392c-30 95 -69 184 -109 241c-7 -18 -24 -45 -36 -61
c55 -77 110 -218 138 -341h-116v-65h123v-159c-36 12 -73 22 -108 31c-4 -13 -14 -37 -22 -51c92 -26 197 -65 254 -100l59 47c-34 18 -75 35 -118 52v180h97v65h-97v94c28 27 106 112 125 136zM802 52v389c-1 79 25 321 165 455c-14 17 -34 45 -43 63
c-108 -101 -147 -281 -155 -359c-9 81 -51 251 -174 360c-7 -17 -28 -47 -40 -61c159 -138 181 -376 181 -458v-389h66z" />
</svg>
