<?xml version="1.0" standalone="no"?>
<!DOCTYPE svg PUBLIC "-//W3C//DTD SVG 1.1//EN" "http://www.w3.org/Graphics/SVG/1.1/DTD/svg11.dtd" >
<svg xmlns="http://www.w3.org/2000/svg" xmlns:xlink="http://www.w3.org/1999/xlink" version="1.1" viewBox="-10 0 1010 1000">
   <path fill="currentColor"
d="M160 552h110v-170h-108v55c0 35 0 74 -2 115zM270 149h-108v165h108v-165zM334 80v785c0 36 -7 56 -30 68c-21 12 -56 14 -112 14c-2 -19 -9 -48 -18 -67c37 2 70 1 81 1c11 -1 15 -4 15 -17v-243h-114c-8 116 -26 240 -66 335c-13 -12 -41 -28 -58 -34
c61 -140 65 -339 65 -485v-357h237zM606 245l68 13c-12 20 -24 39 -40 59h109l11 -3l43 21c-66 160 -214 266 -362 319c-8 -15 -25 -38 -37 -50c56 -18 112 -45 163 -79c-16 -19 -38 -40 -57 -57l48 -30c18 14 39 34 55 51c41 -33 75 -72 100 -115h-125
c-40 38 -89 72 -149 103c-11 -15 -30 -36 -45 -45c109 -50 183 -121 218 -187zM870 554l12 -3l43 21c-81 217 -280 325 -497 374c-7 -16 -22 -42 -34 -56c89 -17 175 -46 251 -89c-18 -20 -41 -43 -61 -61l52 -32c19 17 43 39 62 60c57 -41 105 -93 138 -155h-129
c-63 62 -146 118 -251 163c-7 -16 -26 -39 -41 -49c159 -63 267 -157 319 -243l68 13c-11 20 -25 38 -41 57h109zM926 193h-163c53 49 119 81 189 106c-16 15 -36 38 -45 57c-87 -39 -161 -89 -224 -163h-85c-55 72 -131 126 -214 164c-10 -12 -34 -39 -49 -51
c69 -27 128 -65 175 -113h-139v-63h189c16 -25 30 -54 40 -84l67 14c-8 25 -17 48 -29 70h288v63z" />
</svg>
