<?xml version="1.0" standalone="no"?>
<!DOCTYPE svg PUBLIC "-//W3C//DTD SVG 1.1//EN" "http://www.w3.org/Graphics/SVG/1.1/DTD/svg11.dtd" >
<svg xmlns="http://www.w3.org/2000/svg" xmlns:xlink="http://www.w3.org/1999/xlink" version="1.1" viewBox="-10 0 1010 1000">
   <path fill="currentColor"
d="M826 404v-95h-303v95h303zM826 557v-98h-303v98h303zM826 710v-99h-303v99h303zM454 250h159c9 -29 17 -65 21 -95h-213v-64h509v64h-212c-11 32 -21 66 -32 95h211v518h-443v-518zM166 552h135v-170h-133v55c0 35 0 74 -2 115zM301 148h-133v166h133v-166zM367 80v782
c0 19 -2 34 -7 45c79 -29 168 -78 213 -121l63 40c-57 51 -151 103 -231 134c-11 -15 -31 -38 -46 -51c-5 10 -13 18 -24 24c-24 13 -61 14 -125 14c-2 -18 -11 -49 -20 -68c44 1 82 1 94 1c12 -1 17 -6 17 -19v-240h-139c-8 117 -27 240 -69 335c-13 -11 -41 -28 -58 -34
c64 -140 68 -339 68 -485v-357h264zM707 829l56 -39c65 34 150 88 195 126l-59 45c-41 -39 -124 -95 -192 -132z" />
</svg>
