<?xml version="1.0" standalone="no"?>
<!DOCTYPE svg PUBLIC "-//W3C//DTD SVG 1.1//EN" "http://www.w3.org/Graphics/SVG/1.1/DTD/svg11.dtd" >
<svg xmlns="http://www.w3.org/2000/svg" xmlns:xlink="http://www.w3.org/1999/xlink" version="1.1" viewBox="-10 0 1010 1000">
   <path fill="currentColor"
d="M849 159h-370v114h370v-114zM156 544h127v-163h-126v66c0 31 0 63 -1 97zM283 139h-126v180h126v-180zM937 599h-178c47 95 128 184 211 227c-14 14 -33 40 -44 59c-75 -47 -146 -130 -196 -224v294h-66v-289c-50 90 -117 171 -186 218c-11 -17 -29 -42 -42 -57
c-12 46 -26 90 -44 129c-11 -12 -37 -30 -55 -37c-4 9 -11 17 -20 22c-21 13 -51 14 -97 14c-3 -19 -12 -49 -21 -68c32 2 62 2 70 2c10 -1 14 -5 14 -16v-265h-130c-7 124 -24 259 -65 360c-11 -13 -37 -36 -52 -43c54 -138 58 -334 58 -478v-370h63v1h187v796
c0 9 0 18 -1 25c65 -156 71 -366 71 -516v-290h501v246h-436v44c0 125 -6 294 -42 441c76 -44 153 -133 200 -225h-148v-65h175v-169h66v169h207v65zM816 518l-47 -24c27 -32 61 -82 79 -116l60 28c-30 42 -64 84 -92 112zM622 490l-55 28c-14 -31 -44 -79 -72 -113l51 -26
c30 33 61 80 76 111z" />
</svg>
