<?xml version="1.0" standalone="no"?>
<!DOCTYPE svg PUBLIC "-//W3C//DTD SVG 1.1//EN" "http://www.w3.org/Graphics/SVG/1.1/DTD/svg11.dtd" >
<svg xmlns="http://www.w3.org/2000/svg" xmlns:xlink="http://www.w3.org/1999/xlink" version="1.1" viewBox="-10 0 1010 1000">
   <path fill="currentColor"
d="M151 552h100v-170h-98v56c0 35 0 74 -2 114zM251 148h-98v166h98v-166zM313 80v789c0 35 -7 55 -28 67c-22 12 -54 14 -108 13c-1 -17 -10 -47 -19 -65c36 1 68 1 78 0c11 0 15 -4 15 -16v-247h-103c-7 116 -23 240 -59 335c-12 -9 -38 -25 -54 -31
c53 -141 57 -341 57 -486v-359h221zM572 163h-125v120h125v-120zM447 469h125v-123h-125v123zM511 603l49 -15c41 92 86 213 106 282l-52 20c-8 -29 -20 -68 -34 -109c-158 76 -184 89 -200 104c-4 -17 -15 -46 -25 -62c14 -7 33 -20 33 -58v-667h242v436h-183v239l112 -49
c-15 -42 -32 -84 -48 -121zM916 98v616c0 33 -6 52 -27 63c-19 12 -49 13 -96 13c-2 -18 -12 -46 -20 -64c32 1 58 1 67 1c10 0 13 -3 13 -14v-551h-99v795h-65v-859h227z" />
</svg>
