<?xml version="1.0" standalone="no"?>
<!DOCTYPE svg PUBLIC "-//W3C//DTD SVG 1.1//EN" "http://www.w3.org/Graphics/SVG/1.1/DTD/svg11.dtd" >
<svg xmlns="http://www.w3.org/2000/svg" xmlns:xlink="http://www.w3.org/1999/xlink" version="1.1" viewBox="-10 0 1010 1000">
   <path fill="currentColor"
d="M160 552h119v-170h-117v54c0 36 0 75 -2 116zM279 148h-117v166h117v-166zM339 80v783c0 37 -7 57 -29 69c-21 11 -55 12 -111 12c-2 -17 -11 -47 -18 -65c38 1 73 1 83 1c11 -1 15 -5 15 -18v-241h-122c-8 116 -25 239 -65 335c-12 -12 -38 -28 -54 -34
c59 -140 64 -339 64 -486v-356h237zM389 141v-61h243v258h-173c-4 38 -9 78 -14 112h187s0 23 -1 31c-10 308 -19 413 -43 445c-16 20 -31 27 -56 29c-20 3 -57 2 -94 1c-2 -19 -7 -44 -17 -61c37 3 70 4 84 4c13 0 21 -2 28 -13c11 -13 18 -52 24 -136
c-64 31 -128 63 -183 88l-23 -54c54 -21 131 -56 210 -93c3 -49 5 -108 8 -181h-189c9 -62 20 -158 26 -233h163v-136h-180zM396 582l43 -29c31 30 65 73 80 100l-44 32c-16 -28 -49 -72 -79 -103zM936 450v31c-7 309 -13 413 -36 445c-14 20 -31 27 -56 29
c-23 3 -63 3 -103 1c-2 -19 -8 -44 -17 -61c40 3 76 4 91 4s23 -2 30 -13c9 -13 15 -54 20 -147c-68 34 -136 67 -194 93l-22 -54c55 -23 136 -58 218 -97c2 -47 4 -102 5 -171h-207c9 -62 19 -158 25 -233h175v-136h-191v-61h255v258h-186c-4 38 -8 78 -13 112h206z
M681 581l42 -30c33 32 69 74 86 101l-45 34c-16 -29 -52 -74 -83 -105z" />
</svg>
