<?xml version="1.0" standalone="no"?>
<!DOCTYPE svg PUBLIC "-//W3C//DTD SVG 1.1//EN" "http://www.w3.org/Graphics/SVG/1.1/DTD/svg11.dtd" >
<svg xmlns="http://www.w3.org/2000/svg" xmlns:xlink="http://www.w3.org/1999/xlink" version="1.1" viewBox="-10 0 1010 1000">
   <path fill="currentColor"
d="M813 232v-96h-311v96h311zM882 80v208h-446v-208h446zM474 656v72h369v-72h-369zM474 529v72h369v-72h-369zM474 403v71h369v-71h-369zM162 552h113v-170h-111v55c0 35 0 74 -2 115zM275 148h-111v166h111v-166zM913 786h-152c74 40 158 92 207 130l-70 40
c-44 -37 -122 -90 -192 -130l52 -40h-212l64 41c-57 50 -151 101 -229 130c-11 -14 -32 -38 -49 -51c-5 11 -13 21 -25 27c-23 13 -59 14 -122 14c-2 -18 -10 -49 -19 -68c43 1 81 1 92 1c12 -1 17 -6 17 -19v-240h-117c-8 117 -26 240 -68 335c-13 -11 -39 -28 -55 -34
c62 -140 67 -339 67 -486v-356h236v782c0 17 -2 30 -5 41c77 -27 166 -76 210 -117h-137v-440h507v440z" />
</svg>
