<?xml version="1.0" standalone="no"?>
<!DOCTYPE svg PUBLIC "-//W3C//DTD SVG 1.1//EN" "http://www.w3.org/Graphics/SVG/1.1/DTD/svg11.dtd" >
<svg xmlns="http://www.w3.org/2000/svg" xmlns:xlink="http://www.w3.org/1999/xlink" version="1.1" viewBox="-10 0 1010 1000">
   <path fill="currentColor"
d="M963 370l-52 36c-15 -40 -47 -97 -79 -151c-19 58 -42 114 -71 157c-11 -9 -35 -23 -50 -30c59 -89 93 -229 106 -334l62 9c-7 39 -16 82 -26 125c43 61 89 141 110 188zM751 287l-42 45c-12 -23 -35 -54 -57 -85c-21 63 -45 123 -77 169c-11 -11 -34 -28 -47 -36
c58 -87 90 -226 105 -331l63 10c-7 39 -16 81 -27 123c31 35 64 79 82 105zM485 49l59 17c-38 91 -101 196 -166 266c-8 -13 -27 -35 -39 -46c60 -62 117 -160 146 -237zM148 552h100v-170h-98v56c0 35 0 74 -2 114zM248 148h-98v166h98v-166zM309 80v789c0 35 -7 55 -29 67
c-20 12 -52 14 -106 13c-1 -17 -9 -47 -18 -65c36 1 67 1 78 0c10 0 14 -4 14 -16v-247h-103c-6 116 -22 240 -57 335c-12 -9 -38 -25 -53 -31c52 -141 56 -341 56 -486v-359h218zM478 259l57 16c-17 46 -39 95 -63 143v536h-61v-431c-19 27 -37 53 -57 75
c-8 -13 -23 -34 -33 -45c66 -78 128 -198 157 -294zM905 872h66c-10 16 -19 48 -21 66h-50c-111 0 -220 -33 -291 -178c-18 67 -42 131 -75 180c-13 -10 -36 -29 -51 -36c75 -111 95 -303 102 -434l68 6c-5 56 -12 123 -24 190c23 70 55 118 93 149v-393h66v130h146v62h-146
v239c38 14 78 19 117 19z" />
</svg>
