<?xml version="1.0" standalone="no"?>
<!DOCTYPE svg PUBLIC "-//W3C//DTD SVG 1.1//EN" "http://www.w3.org/Graphics/SVG/1.1/DTD/svg11.dtd" >
<svg xmlns="http://www.w3.org/2000/svg" xmlns:xlink="http://www.w3.org/1999/xlink" version="1.1" viewBox="-10 0 1010 1000">
   <path fill="currentColor"
d="M162 552h111v-170h-109v54c0 35 -1 75 -2 116zM273 148h-109v166h109v-166zM336 80v782c0 38 -8 59 -31 71c-23 13 -59 14 -121 14c-3 -18 -11 -49 -20 -68c43 1 81 1 92 1c12 -1 17 -6 17 -19v-240h-115c-8 117 -26 240 -68 335c-13 -11 -39 -28 -55 -34
c62 -140 67 -339 67 -486v-356h234zM455 488v94h173v-94h-173zM875 582v-94h-179v94h179zM392 582v-154h548v154h-56v234c0 31 -4 48 -26 58c-20 11 -51 12 -98 12c-2 -18 -10 -42 -18 -60c31 1 57 1 66 1c7 0 10 -3 10 -12v-169h-122v310h-68v-310h-115v247h-66v-311h-55z
M691 311v-88h-70v88h70zM958 223h-102v82c0 16 0 27 3 31c2 3 6 4 11 4h18c6 0 12 0 15 -3c4 -1 6 -6 9 -13c2 -9 3 -28 4 -51c10 8 26 16 40 19c-1 28 -4 56 -8 68c-6 10 -13 17 -23 22c-8 4 -22 6 -34 6h-34c-16 0 -33 -4 -44 -15c-11 -10 -14 -24 -14 -77v-73h-53v143
h-179v-143h-54c-6 74 -26 146 -92 202c-9 -13 -31 -33 -44 -41c56 -46 73 -102 79 -161h-84v-60h86v-116h56v116h53v-119h54v119h70v-119h55v119h53v-118h57v118h102v60z" />
</svg>
