<?xml version="1.0" standalone="no"?>
<!DOCTYPE svg PUBLIC "-//W3C//DTD SVG 1.1//EN" "http://www.w3.org/Graphics/SVG/1.1/DTD/svg11.dtd" >
<svg xmlns="http://www.w3.org/2000/svg" xmlns:xlink="http://www.w3.org/1999/xlink" version="1.1" viewBox="-10 0 1010 1000">
   <path fill="currentColor"
d="M165 552h117v-170h-115v55c0 35 -1 74 -2 115zM282 148h-115v166h115v-166zM347 80v782c0 38 -8 59 -31 71c-23 13 -58 14 -119 14c-3 -18 -11 -49 -19 -68c41 1 77 1 88 1c12 -1 16 -5 16 -19v-240h-121c-8 117 -27 240 -69 335c-13 -11 -41 -28 -57 -34
c63 -140 68 -339 68 -485v-357h244zM581 456v-91c-59 33 -119 63 -170 88l-29 -57c51 -21 124 -54 199 -90v-160h-193v-65h253v375h-60zM550 266l-39 37c-24 -27 -71 -71 -108 -101l38 -33c39 28 86 70 109 97zM830 697v-91h-317v91h317zM513 848h317v-94h-317v94zM634 461
l73 12c-9 26 -18 50 -27 72h219v405h-69v-41h-317v47h-67v-411h164c9 -28 18 -60 24 -84zM669 81h258v376h-60v-101c-60 33 -120 65 -170 92l-29 -59c51 -22 125 -57 199 -93v-150h-198v-65zM834 267l-40 38c-23 -29 -70 -73 -108 -102l38 -33c38 29 85 70 110 97z" />
</svg>
