<?xml version="1.0" standalone="no"?>
<!DOCTYPE svg PUBLIC "-//W3C//DTD SVG 1.1//EN" "http://www.w3.org/Graphics/SVG/1.1/DTD/svg11.dtd" >
<svg xmlns="http://www.w3.org/2000/svg" xmlns:xlink="http://www.w3.org/1999/xlink" version="1.1" viewBox="-10 0 1010 1000">
   <path fill="currentColor"
d="M160 552h108v-170h-106v55c0 35 0 74 -2 115zM268 148h-106v166h106v-166zM330 80v782c0 38 -9 59 -31 71c-23 13 -58 14 -120 14c-2 -18 -11 -49 -20 -68c43 1 81 1 92 1c12 -1 17 -6 17 -19v-240h-112c-8 117 -25 240 -67 335c-13 -11 -39 -28 -55 -34
c63 -140 67 -339 67 -485v-357h229zM541 775l65 40c-56 53 -149 109 -226 143c-10 -15 -29 -38 -44 -51c74 -32 163 -87 205 -132zM701 816l49 -41c71 43 147 97 192 139l-57 43c-43 -42 -117 -98 -184 -141zM569 199v100h162v-100h-162zM827 482h-140v85h140v-85zM827 704
v-86h-140v86h140zM476 618v86h138v-86h-138zM476 482v85h138v-85h-138zM800 299h148v59h-261v69h212v332h-492v-332h207v-69h-254v-59h139v-100h-116v-57h116v-98h70v98h162v-98h69v98h132v57h-132v100z" />
</svg>
