<?xml version="1.0" standalone="no"?>
<!DOCTYPE svg PUBLIC "-//W3C//DTD SVG 1.1//EN" "http://www.w3.org/Graphics/SVG/1.1/DTD/svg11.dtd" >
<svg xmlns="http://www.w3.org/2000/svg" xmlns:xlink="http://www.w3.org/1999/xlink" version="1.1" viewBox="-10 0 1010 1000">
   <path fill="currentColor"
d="M158 554h120v-169h-118v55c0 35 0 74 -2 114zM278 151h-118v165h118v-165zM342 82v784c0 39 -8 60 -31 72c-23 13 -59 14 -121 14c-3 -19 -11 -50 -20 -69c43 2 80 1 90 1c13 -1 18 -5 18 -18v-242h-123c-8 116 -26 239 -63 334c-13 -11 -41 -27 -57 -33
c58 -141 62 -340 62 -484v-359h245zM763 533h-226c19 30 41 70 50 96l-12 4h137c18 -31 38 -71 51 -100zM496 286v74h312v-74h-312zM955 694h-264v81h224v59h-224v123h-71v-123h-211v-59h211v-81h-254v-61h151c-10 -26 -27 -60 -44 -85l52 -15h-134v-59h231
c-8 -18 -19 -37 -28 -53l34 -11h-200v-175h186v-56h-248v-59h248v-76h71v76h255v59h-255v56h195v175h-215c13 20 26 44 35 64h228v59h-133l46 11c-19 31 -40 63 -59 89h173v61z" />
</svg>
