<?xml version="1.0" standalone="no"?>
<!DOCTYPE svg PUBLIC "-//W3C//DTD SVG 1.1//EN" "http://www.w3.org/Graphics/SVG/1.1/DTD/svg11.dtd" >
<svg xmlns="http://www.w3.org/2000/svg" xmlns:xlink="http://www.w3.org/1999/xlink" version="1.1" viewBox="-10 0 1010 1000">
   <path fill="currentColor"
d="M157 552h109v-170h-107v55c0 35 0 74 -2 115zM266 148h-107v166h107v-166zM328 80v783c0 38 -8 58 -30 70c-22 13 -56 14 -112 14c-1 -18 -9 -49 -18 -68c37 1 71 1 82 1c11 -1 16 -5 16 -18v-241h-113c-8 117 -25 240 -67 335c-12 -11 -38 -28 -55 -34
c63 -140 67 -339 67 -485v-357h230zM563 196v83h194v-83h-194zM860 761v-296h-173v316c30 -46 55 -111 72 -166c-14 -30 -27 -60 -40 -87l39 -18c40 79 82 180 102 251zM495 532l41 -17c38 83 77 190 94 261v-311h-164v315c26 -46 51 -107 65 -159c-11 -32 -23 -62 -36 -89z
M825 341h-134v66h231v473c0 35 -6 53 -28 65c-21 11 -55 12 -106 12c-2 -19 -12 -46 -20 -64c37 2 69 1 79 1s13 -4 13 -15v-89l-35 18c-8 -35 -24 -81 -42 -130c-18 49 -42 97 -67 137c-7 -9 -19 -21 -29 -28v162h-57v-155l-39 19c-7 -35 -21 -81 -36 -129
c-18 49 -41 96 -64 134c-5 -7 -16 -16 -25 -23v162h-62v-550h222v-66h-127v-145h-125v-62h125v-91h64v91h194v-91h68v91h117v62h-117v145z" />
</svg>
