<?xml version="1.0" standalone="no"?>
<!DOCTYPE svg PUBLIC "-//W3C//DTD SVG 1.1//EN" "http://www.w3.org/Graphics/SVG/1.1/DTD/svg11.dtd" >
<svg xmlns="http://www.w3.org/2000/svg" xmlns:xlink="http://www.w3.org/1999/xlink" version="1.1" viewBox="-10 0 1010 1000">
   <path fill="currentColor"
d="M610 211h87v-60h-87v60zM842 151h-86v60h86v-60zM697 301v-45h-140v-150h140v-62h59v62h142v150h-142v45h199v55h-463v-55h205zM838 489v-48h-211v48h211zM838 579v-49h-211v49h211zM838 671v-51h-211v51h211zM901 399v314h-335v-314h335zM648 717l58 19
c-33 37 -86 76 -131 100c-11 -10 -34 -30 -48 -39c46 -21 93 -50 121 -80zM948 808l-54 30c-29 -27 -83 -65 -128 -94l41 -29c49 28 107 66 141 93zM493 248l-54 32c-13 -42 -48 -109 -83 -160l52 -26c35 47 72 112 85 154zM151 551h95v-169h-93v55c0 35 0 74 -2 114z
M246 148h-93v166h93v-166zM308 80v789c0 35 -7 55 -28 67s-54 14 -107 13c-2 -17 -11 -47 -20 -65c36 1 69 1 78 0c11 0 15 -4 15 -16v-248h-98c-7 117 -23 240 -59 336c-12 -9 -38 -25 -54 -31c53 -141 57 -342 57 -487v-358h216zM490 440v349c20 9 39 26 70 45
c50 30 106 40 184 40c59 0 155 -4 217 -11c-6 15 -13 44 -14 61c-48 3 -147 7 -206 7c-80 0 -141 -13 -193 -47c-36 -23 -63 -48 -84 -48c-22 0 -55 52 -86 105l-39 -53c33 -44 66 -80 95 -95v-296h-85v-57h141z" />
</svg>
