<?xml version="1.0" standalone="no"?>
<!DOCTYPE svg PUBLIC "-//W3C//DTD SVG 1.1//EN" "http://www.w3.org/Graphics/SVG/1.1/DTD/svg11.dtd" >
<svg xmlns="http://www.w3.org/2000/svg" xmlns:xlink="http://www.w3.org/1999/xlink" version="1.1" viewBox="-10 0 1010 1000">
   <path fill="currentColor"
d="M946 118v58h-582v-58h261c-9 -22 -20 -45 -31 -64l61 -18c16 24 32 56 42 82h249zM150 552h104v-170h-102v56c0 35 0 74 -2 114zM254 148h-102v166h102v-166zM316 80v789c0 35 -7 55 -28 67s-53 14 -106 13c-2 -17 -9 -47 -18 -65c35 1 65 1 75 0c11 0 15 -4 15 -15v-248
h-107c-7 116 -23 240 -58 335c-12 -9 -38 -25 -54 -31c53 -141 57 -341 57 -486v-359h224zM575 592v53h151v-53h-151zM575 488v52h151v-52h-151zM459 262v77h108v-77h-108zM740 262v77h110v-77h-110zM891 709l44 40c-36 27 -83 53 -123 73c42 34 93 59 153 74
c-15 13 -33 37 -42 55c-132 -40 -221 -128 -268 -251h-15c-25 25 -56 47 -90 67v104l145 -33c0 18 2 43 4 57c-176 45 -203 54 -220 66c-4 -16 -14 -42 -22 -56c13 -5 31 -16 31 -51v-55c-39 18 -80 33 -119 46c-6 -13 -25 -40 -35 -53c78 -19 163 -51 223 -92h-206v-55h155
v-53h-106v-52h106v-52h-127v-53h127v-50h-104v-169h224v169h-51v50h151v-50h-44v-169h228v169h-115v50h136v53h-136v52h113v52h-113v53h159v55h-238c15 31 34 60 56 85c42 -22 90 -54 119 -76z" />
</svg>
