<?xml version="1.0" standalone="no"?>
<!DOCTYPE svg PUBLIC "-//W3C//DTD SVG 1.1//EN" "http://www.w3.org/Graphics/SVG/1.1/DTD/svg11.dtd" >
<svg xmlns="http://www.w3.org/2000/svg" xmlns:xlink="http://www.w3.org/1999/xlink" version="1.1" viewBox="-10 0 1010 1000">
   <path fill="currentColor"
d="M150 552h101v-170h-99v56c0 35 0 74 -2 114zM251 148h-99v166h99v-166zM312 80v789c0 35 -7 55 -29 67c-21 11 -53 13 -107 13c-2 -18 -10 -47 -19 -65c37 1 69 1 80 0c10 0 14 -4 14 -16v-247h-104c-6 116 -22 240 -58 335c-12 -10 -39 -25 -54 -31
c54 -141 58 -341 58 -486v-359h219zM559 137h-125v70h125v-70zM434 329h125v-72h-125v72zM617 383h-183v573h-62v-874h245v301zM716 683l-28 -12c10 -21 25 -54 31 -72l37 15c-15 26 -28 51 -40 69zM547 610l33 -11c11 21 24 51 30 68l-34 15c-4 -20 -16 -49 -29 -72z
M528 584v106h99v-106h-99zM769 690v-106h-102v106h102zM836 850l-38 44c-21 -28 -93 -94 -124 -119v152h-54v-156c-37 53 -87 103 -130 133c-10 -12 -26 -30 -38 -40c47 -27 101 -80 139 -132h-107v-190h136v-43h-153v-49h153v-53h54v53h152v49h-152v43h140v190h-140v41
l31 -22c24 15 110 81 131 99zM733 329h130v-72h-130v72zM863 137h-130v70h130v-70zM927 82v800c0 34 -8 51 -29 62c-20 11 -54 13 -102 12c-3 -16 -11 -43 -19 -60c33 1 63 1 71 1c11 0 15 -4 15 -15v-499h-190v-301h254z" />
</svg>
