<?xml version="1.0" standalone="no"?>
<!DOCTYPE svg PUBLIC "-//W3C//DTD SVG 1.1//EN" "http://www.w3.org/Graphics/SVG/1.1/DTD/svg11.dtd" >
<svg xmlns="http://www.w3.org/2000/svg" xmlns:xlink="http://www.w3.org/1999/xlink" version="1.1" viewBox="-10 0 1010 1000">
   <path fill="currentColor"
d="M282 218v-67h153v786h-63v-59h-218v76h-64v-810c44 -16 110 -50 147 -72l46 60c-41 21 -88 40 -129 54v265h97v67h-97v292h218v-293h-89v-67h89v-232h-90zM954 254h-209v131h169v378c0 31 -5 48 -25 60c-19 10 -52 11 -94 11c-2 -18 -9 -43 -18 -61c31 1 56 1 66 0
c9 0 11 -3 11 -11v-309h-109v504h-67v-504h-102v384h-62v-452h164v-131h-199v-67h199v-143h67v143h209v67z" />
</svg>
