<?xml version="1.0" standalone="no"?>
<!DOCTYPE svg PUBLIC "-//W3C//DTD SVG 1.1//EN" "http://www.w3.org/Graphics/SVG/1.1/DTD/svg11.dtd" >
<svg xmlns="http://www.w3.org/2000/svg" xmlns:xlink="http://www.w3.org/1999/xlink" version="1.1" viewBox="-10 0 1010 1000">
   <path fill="currentColor"
d="M283 521h546c-70 -36 -187 -81 -289 -112c-45 56 -124 90 -257 112zM911 521v52h-788v-492h771v52h-307c-5 24 -13 46 -23 66c37 9 77 22 117 36c23 -23 50 -53 65 -74l65 23c-24 25 -51 51 -75 71c50 19 96 39 128 56l-39 40c-64 -35 -183 -82 -285 -113
c-48 58 -133 92 -279 113c-5 -14 -20 -35 -31 -46c201 -24 270 -71 294 -172h-333v388h64c-7 -13 -20 -32 -30 -41c208 -25 277 -76 300 -180h63c-6 26 -13 50 -24 70c39 11 81 24 122 38c23 -22 48 -50 62 -69l65 21c-22 25 -48 48 -70 68c55 20 105 42 140 61l-31 32h59z
M325 442l-54 -23c37 -19 71 -50 88 -82l58 11c-18 33 -52 72 -92 94zM361 159l58 11c-19 34 -53 73 -92 94l-54 -21c36 -20 70 -51 88 -84zM436 634l42 16c-62 176 -204 265 -379 309c-8 -14 -30 -37 -44 -48c75 -16 142 -40 199 -76c-24 -21 -58 -46 -87 -64l44 -35
c31 18 67 42 92 64c36 -30 66 -67 87 -110h-144c-40 37 -87 69 -133 93c-11 -10 -35 -31 -50 -41c82 -37 159 -95 199 -164l64 15c-9 15 -19 29 -30 43h127zM951 801v54h-172v102h-71v-102h-231c10 -38 20 -92 26 -137h67c-5 27 -11 57 -16 83h154v-101h-215v-54h215v-61h71
v61h159v54h-159v101h172z" />
</svg>
