<?xml version="1.0" standalone="no"?>
<!DOCTYPE svg PUBLIC "-//W3C//DTD SVG 1.1//EN" "http://www.w3.org/Graphics/SVG/1.1/DTD/svg11.dtd" >
<svg xmlns="http://www.w3.org/2000/svg" xmlns:xlink="http://www.w3.org/1999/xlink" version="1.1" viewBox="-10 0 1010 1000">
   <path fill="currentColor"
d="M198 286l43 -20c26 44 51 101 60 139l-46 22c-9 -38 -33 -98 -57 -141zM172 468h164v-245h-164v245zM400 163v698c0 36 -8 56 -31 69c-23 12 -58 14 -117 14c-2 -19 -12 -49 -21 -67c42 1 78 1 89 0s16 -4 16 -17v-329h-164c0 131 -10 309 -81 424
c-11 -11 -39 -30 -56 -36c68 -109 74 -265 74 -388h-68v-63h68v-305h85c12 -39 25 -89 32 -125l71 14c-13 37 -27 78 -40 111h143zM312 720l-46 22c-13 -41 -43 -105 -71 -153l43 -20c30 47 60 110 74 151zM596 262l52 -29c42 56 86 130 103 178l-56 34
c-17 -49 -59 -126 -99 -183zM858 193h-324c36 160 87 309 161 431c73 -117 130 -263 163 -431zM892 119l47 15c-34 230 -105 415 -199 558c62 84 135 153 223 200c-17 13 -41 42 -52 61c-86 -49 -157 -116 -217 -198c-69 87 -148 155 -233 204c-11 -19 -33 -48 -50 -61
c88 -45 169 -116 239 -209c-84 -137 -142 -308 -183 -496h-24v-71h436z" />
</svg>
