<?xml version="1.0" standalone="no"?>
<!DOCTYPE svg PUBLIC "-//W3C//DTD SVG 1.1//EN" "http://www.w3.org/Graphics/SVG/1.1/DTD/svg11.dtd" >
<svg xmlns="http://www.w3.org/2000/svg" xmlns:xlink="http://www.w3.org/1999/xlink" version="1.1" viewBox="-10 0 1010 1000">
   <path fill="currentColor"
d="M805 57l67 31c-74 94 -193 180 -306 233c-11 -17 -32 -40 -50 -55c105 -45 225 -126 289 -209zM849 319l69 29c-82 108 -214 204 -345 262c-11 -17 -32 -43 -51 -58c124 -49 256 -138 327 -233zM219 290l51 -20c24 44 50 102 61 141l-53 23c-10 -40 -35 -100 -59 -144z
M179 476h198v-249h-198v249zM443 167v698c0 36 -8 55 -32 67c-23 12 -60 13 -120 13c-3 -18 -13 -47 -21 -64c42 1 79 1 91 0c11 0 16 -4 16 -17v-327h-198c0 131 -11 309 -85 424c-11 -12 -40 -31 -56 -38c69 -109 75 -263 75 -386h-70v-61h70v-309h92
c13 -39 26 -89 32 -125l75 14c-14 37 -29 78 -41 111h172zM342 727l-53 25c-12 -43 -44 -109 -72 -157l49 -22c31 48 62 112 76 154zM884 592l70 28c-95 153 -261 269 -456 335c-10 -19 -30 -45 -46 -61c184 -57 348 -165 432 -302z" />
</svg>
