<?xml version="1.0" standalone="no"?>
<!DOCTYPE svg PUBLIC "-//W3C//DTD SVG 1.1//EN" "http://www.w3.org/Graphics/SVG/1.1/DTD/svg11.dtd" >
<svg xmlns="http://www.w3.org/2000/svg" xmlns:xlink="http://www.w3.org/1999/xlink" version="1.1" viewBox="-10 0 1010 1000">
   <path fill="currentColor"
d="M192 292l45 -19c26 42 48 98 57 136l-49 21c-7 -38 -28 -95 -53 -138zM165 477h160v-249h-160v249zM385 167v702c0 36 -9 55 -31 66c-23 10 -59 11 -119 11c-3 -16 -11 -43 -19 -60c43 2 82 1 93 1c12 -1 16 -5 16 -19v-329h-160c0 131 -10 304 -76 418
c-10 -10 -37 -26 -52 -32c64 -109 70 -263 70 -386h-66v-62h66v-310h81c12 -40 26 -92 33 -129l75 16c-14 38 -30 79 -42 113h131zM297 718l-48 23c-7 -38 -28 -96 -53 -138l45 -20c25 42 48 98 56 135zM945 249h-388c-26 57 -57 108 -89 148c-12 -12 -41 -35 -58 -46
c66 -75 116 -191 145 -308l71 15c-11 43 -25 84 -39 123h358v68zM644 890h197c44 0 52 -20 57 -115c16 12 43 23 63 27c-10 117 -31 150 -116 150h-205c-97 0 -126 -22 -126 -109v-249l-61 28l-26 -59l87 -40v-164h67v133l96 -45v-166h63v136l105 -49l10 -7l12 -9l47 17
l-3 12c-1 137 -2 260 -6 287c-3 31 -20 48 -45 53c-22 6 -53 7 -75 6c-3 -18 -8 -42 -17 -57c19 1 45 1 53 1c12 0 18 -3 21 -18c3 -14 4 -100 5 -215l-107 50v296h-63v-267l-96 45v281c0 38 10 47 63 47z" />
</svg>
