<?xml version="1.0" standalone="no"?>
<!DOCTYPE svg PUBLIC "-//W3C//DTD SVG 1.1//EN" "http://www.w3.org/Graphics/SVG/1.1/DTD/svg11.dtd" >
<svg xmlns="http://www.w3.org/2000/svg" xmlns:xlink="http://www.w3.org/1999/xlink" version="1.1" viewBox="-10 0 1010 1000">
   <path fill="currentColor"
d="M819 617h-275v222h275v-222zM478 960v-410h409v407h-68v-51h-275v54h-66zM200 290l47 -19c25 44 50 101 61 139l-49 23c-10 -39 -34 -99 -59 -143zM529 369h307c-57 -58 -112 -132 -155 -207c-40 77 -91 147 -152 207zM174 476h168v-249h-168v249zM661 45l64 19
c-4 11 -8 21 -13 31c62 115 169 234 265 294c-17 14 -40 41 -52 59c-29 -21 -59 -47 -88 -78v67h-320v-56c-28 25 -56 50 -86 72c-6 -8 -16 -19 -26 -29v441c0 36 -8 55 -31 66c-22 12 -58 13 -118 13c-3 -18 -13 -46 -21 -63c42 1 79 1 90 0c12 0 17 -4 17 -17v-327h-168
c0 131 -11 309 -83 424c-10 -12 -39 -31 -55 -38c68 -109 74 -263 74 -386h-67v-61h67v-309h89c12 -39 25 -89 32 -125l70 13c-13 38 -26 79 -39 112h143v222c119 -87 211 -214 256 -344zM318 725l-48 24c-13 -42 -43 -106 -72 -154l45 -21c31 48 61 111 75 151z" />
</svg>
