<?xml version="1.0" standalone="no"?>
<!DOCTYPE svg PUBLIC "-//W3C//DTD SVG 1.1//EN" "http://www.w3.org/Graphics/SVG/1.1/DTD/svg11.dtd" >
<svg xmlns="http://www.w3.org/2000/svg" xmlns:xlink="http://www.w3.org/1999/xlink" version="1.1" viewBox="-10 0 1010 1000">
   <path fill="currentColor"
d="M655 219l-61 29c-16 -44 -49 -118 -78 -173l59 -25c29 54 65 127 80 169zM199 290l46 -19c25 44 50 102 61 139l-50 24c-10 -40 -34 -99 -57 -144zM173 476h164v-249h-164v249zM400 167v698c0 36 -8 55 -31 67c-22 12 -57 13 -116 13c-3 -18 -12 -47 -20 -64
c41 1 78 1 88 0c12 0 16 -4 16 -17v-327h-164c0 131 -11 309 -82 424c-10 -12 -38 -31 -54 -38c67 -109 73 -263 73 -386h-67v-61h67v-309h86c12 -39 25 -89 31 -125l70 14c-13 37 -26 78 -39 111h142zM316 724l-49 25c-12 -42 -42 -106 -71 -154l46 -22
c31 48 61 111 74 151zM634 513h128v-190h-128v190zM959 513v68h-132v373h-65v-373h-130c-8 123 -43 267 -164 366c-9 -14 -33 -39 -47 -48c109 -90 138 -210 145 -318h-127v-68h129v-190h-108v-68h265c30 -57 68 -145 88 -209l69 29c-27 58 -59 126 -87 180h147v68h-115v190
h132z" />
</svg>
