<?xml version="1.0" standalone="no"?>
<!DOCTYPE svg PUBLIC "-//W3C//DTD SVG 1.1//EN" "http://www.w3.org/Graphics/SVG/1.1/DTD/svg11.dtd" >
<svg xmlns="http://www.w3.org/2000/svg" xmlns:xlink="http://www.w3.org/1999/xlink" version="1.1" viewBox="-10 0 1010 1000">
   <path fill="currentColor"
d="M188 290l43 -19c23 44 47 101 57 139l-47 23c-8 -39 -32 -99 -53 -143zM165 476h153v-249h-153v249zM379 167v698c0 36 -7 56 -30 68c-21 11 -55 13 -109 13c-3 -19 -12 -48 -21 -65c38 1 74 1 84 0c11 0 15 -4 15 -17v-327h-153c0 132 -9 311 -75 426
c-11 -12 -38 -32 -53 -40c62 -108 67 -263 67 -386h-61v-61h61v-309h82c11 -39 24 -89 29 -125l67 14c-12 37 -25 78 -37 111h134zM297 725l-45 24c-11 -42 -40 -106 -66 -154l43 -21c27 47 56 111 68 151zM573 377v-323h66v408c0 198 -24 372 -202 495
c-11 -16 -35 -40 -49 -50c121 -83 165 -189 178 -309c-41 33 -82 65 -120 95l-33 -62c41 -25 100 -67 159 -110c1 -19 1 -40 1 -59v-51l-53 29c-10 -55 -51 -139 -94 -202l56 -30c37 51 73 117 91 169zM813 885h68c20 0 23 -29 25 -136c17 12 42 24 62 29
c-7 127 -23 172 -83 172h-83c-64 0 -82 -23 -82 -109v-787h68v321c35 -53 78 -126 100 -179l61 41c-41 66 -91 144 -131 195l-30 -21v101l6 -6c61 46 135 111 167 156l-48 52c-26 -37 -75 -87 -125 -130v257c0 38 4 44 25 44z" />
</svg>
