<?xml version="1.0" standalone="no"?>
<!DOCTYPE svg PUBLIC "-//W3C//DTD SVG 1.1//EN" "http://www.w3.org/Graphics/SVG/1.1/DTD/svg11.dtd" >
<svg xmlns="http://www.w3.org/2000/svg" xmlns:xlink="http://www.w3.org/1999/xlink" version="1.1" viewBox="-10 0 1010 1000">
   <path fill="currentColor"
d="M608 196l-41 56c-30 -35 -90 -88 -138 -124l40 -49c47 33 109 83 139 117zM189 303l44 -19c25 41 48 98 55 135l-47 22c-6 -38 -28 -96 -52 -138zM162 484h159v-245h-159v245zM377 178v697c0 35 -7 54 -28 65c-21 10 -54 12 -110 11c-2 -17 -10 -43 -19 -59
c40 1 75 1 85 0c11 -1 16 -4 16 -17v-327h-159c0 128 -12 299 -77 409c-9 -11 -33 -28 -47 -35c61 -104 68 -254 68 -374h-64v-64h64v-306h78c12 -41 27 -96 33 -135l73 14c-14 42 -30 86 -44 121h131zM292 725l-48 22c-5 -38 -27 -95 -52 -138l44 -19c25 41 48 98 56 135z
M582 434l-39 57c-30 -34 -90 -84 -138 -118l39 -49c48 30 108 77 138 110zM552 581l49 43c-41 97 -93 210 -138 295l-57 -45c42 -70 101 -189 146 -293zM807 832h144v70h-380v-70h164v-633h-125v-69h323v69h-126v633z" />
</svg>
