<?xml version="1.0" standalone="no"?>
<!DOCTYPE svg PUBLIC "-//W3C//DTD SVG 1.1//EN" "http://www.w3.org/Graphics/SVG/1.1/DTD/svg11.dtd" >
<svg xmlns="http://www.w3.org/2000/svg" xmlns:xlink="http://www.w3.org/1999/xlink" version="1.1" viewBox="-10 0 1010 1000">
   <path fill="currentColor"
d="M188 292l44 -18c25 41 48 98 55 135l-47 21c-6 -38 -28 -95 -52 -138zM161 477h158v-249h-158v249zM376 167v702c0 37 -8 55 -30 66c-22 10 -57 11 -116 11c-3 -16 -11 -42 -19 -60c42 2 81 1 92 1c12 0 16 -4 16 -17v-331h-158c0 130 -10 304 -75 417
c-10 -10 -35 -25 -50 -31c63 -109 69 -263 69 -386h-64v-62h64v-310h80c11 -40 25 -92 31 -129l73 15c-13 39 -28 80 -41 114h128zM290 719l-47 22c-6 -38 -28 -96 -52 -138l44 -19c25 41 48 98 55 135zM524 459l64 15c-27 92 -78 181 -133 238c-11 -12 -37 -35 -53 -45
c54 -51 98 -127 122 -208zM877 482l64 18c-64 255 -210 393 -497 459c-6 -21 -21 -47 -35 -63c273 -54 409 -181 468 -414zM736 348h229v66h-237v280h-64v-280h-250v-66h85v-209h62v209h111v-303h64v123h183v63h-183v117z" />
</svg>
