<?xml version="1.0" standalone="no"?>
<!DOCTYPE svg PUBLIC "-//W3C//DTD SVG 1.1//EN" "http://www.w3.org/Graphics/SVG/1.1/DTD/svg11.dtd" >
<svg xmlns="http://www.w3.org/2000/svg" xmlns:xlink="http://www.w3.org/1999/xlink" version="1.1" viewBox="-10 0 1010 1000">
   <path fill="currentColor"
d="M195 290l45 -19c26 43 52 101 64 139l-47 23c-12 -39 -37 -99 -62 -143zM171 476h166v-249h-166v249zM399 167v698c0 36 -7 55 -30 66c-23 12 -58 13 -117 13c-3 -18 -13 -46 -20 -63c42 1 78 1 89 0c12 0 16 -4 16 -17v-327h-166c0 132 -10 309 -81 424
c-10 -12 -38 -31 -53 -38c66 -108 72 -263 72 -386h-66v-61h66v-309h88c12 -39 25 -89 32 -125l69 13c-13 38 -26 79 -39 112h140zM312 725l-46 24c-13 -42 -44 -106 -73 -154l44 -20c31 48 62 111 75 150zM553 741h266v-72h-266v72zM819 543h-266v71h266v-71zM889 484v395
c0 37 -8 54 -35 64c-25 11 -68 11 -136 11c-3 -18 -11 -42 -21 -59c49 2 93 1 104 0c14 -1 18 -4 18 -16v-81h-266v159h-68v-473h404zM567 398v-56h236v56h-236zM803 217v56h-236v-56h236zM458 91h458v333h-69v-274h-323v277h-66v-336z" />
</svg>
