<?xml version="1.0" standalone="no"?>
<!DOCTYPE svg PUBLIC "-//W3C//DTD SVG 1.1//EN" "http://www.w3.org/Graphics/SVG/1.1/DTD/svg11.dtd" >
<svg xmlns="http://www.w3.org/2000/svg" xmlns:xlink="http://www.w3.org/1999/xlink" version="1.1" viewBox="-10 0 1010 1000">
   <path fill="currentColor"
d="M202 290l46 -19c26 44 51 102 62 140l-50 22c-10 -39 -34 -99 -58 -143zM175 476h169v-249h-169v249zM408 167v698c0 36 -8 55 -31 66c-23 12 -59 13 -119 13c-3 -18 -13 -46 -21 -63c42 1 79 1 90 0c12 0 17 -4 17 -17v-327h-169c0 132 -11 309 -83 424
c-10 -12 -39 -31 -56 -38c68 -108 74 -263 74 -386h-67v-61h67v-309h90c12 -39 26 -89 32 -125l72 13c-13 38 -27 79 -41 112h145zM320 725l-48 24c-13 -42 -43 -106 -72 -154l45 -21c31 49 62 111 75 151zM573 738h263v-73h-263v73zM836 534h-263v76h263v-76zM908 477v400
c0 34 -7 52 -33 63c-24 10 -63 11 -123 11c-3 -18 -14 -44 -24 -61c42 1 82 1 92 0c13 0 16 -3 16 -14v-83h-263v162h-70v-478h405zM741 363h210v56h-503v-56h220v-64h-175v-55h175v-62h-197v-56h197v-81h73v81h192v56h-192v62h177v55h-177v64z" />
</svg>
