<?xml version="1.0" standalone="no"?>
<!DOCTYPE svg PUBLIC "-//W3C//DTD SVG 1.1//EN" "http://www.w3.org/Graphics/SVG/1.1/DTD/svg11.dtd" >
<svg xmlns="http://www.w3.org/2000/svg" xmlns:xlink="http://www.w3.org/1999/xlink" version="1.1" viewBox="-10 0 1010 1000">
   <path fill="currentColor"
d="M186 292l44 -18c25 41 49 98 56 135l-48 21c-7 -38 -28 -95 -52 -138zM161 477h151v-249h-151v249zM957 251h-222c-12 36 -26 70 -42 99h203l11 -4l41 29c-31 52 -76 106 -118 147v87h125v64h-125v207c0 36 -6 54 -29 65s-57 13 -110 13c-3 -20 -12 -46 -21 -65
c40 1 74 1 84 0c11 0 13 -3 13 -13v-207h-111v-64h111v-106c28 -24 59 -58 84 -91h-168v-44c-5 8 -10 15 -15 23c-11 -10 -40 -29 -55 -37c16 -24 31 -50 45 -79h-153v145h140v31c-7 330 -14 435 -35 468c-13 19 -28 26 -49 29c-18 2 -46 2 -74 0c-1 -18 -7 -43 -15 -60
c28 3 51 3 62 3s18 -2 24 -13c13 -21 20 -118 27 -396h-80c-3 148 -21 332 -100 476c-12 -9 -36 -23 -52 -30l5 -8c-5 6 -11 11 -18 15c-22 11 -58 12 -117 12c-3 -17 -11 -43 -20 -61c43 2 81 1 92 1c12 0 17 -4 17 -18v-330h-151c0 131 -10 304 -75 417
c-10 -10 -35 -25 -50 -31c63 -108 69 -263 69 -386h-62v-62h62v-310h83c12 -40 25 -92 31 -129l73 15c-13 39 -28 80 -41 114h118v703c0 16 -2 29 -5 39c74 -149 84 -340 84 -478v-156h-64v-63h128c-12 -40 -41 -96 -69 -138l61 -21c30 43 61 102 74 140l-47 19h127v62
c29 -67 50 -147 63 -230l64 10c-8 46 -18 91 -30 133h202v64zM289 720l-47 21c-6 -39 -29 -96 -53 -138l44 -20c25 43 49 99 56 137z" />
</svg>
