<?xml version="1.0" standalone="no"?>
<!DOCTYPE svg PUBLIC "-//W3C//DTD SVG 1.1//EN" "http://www.w3.org/Graphics/SVG/1.1/DTD/svg11.dtd" >
<svg xmlns="http://www.w3.org/2000/svg" xmlns:xlink="http://www.w3.org/1999/xlink" version="1.1" viewBox="-10 0 1010 1000">
   <path fill="currentColor"
d="M177 284l42 -15c26 43 50 101 59 139l-46 17c-7 -39 -31 -98 -55 -141zM160 473h144v-246h-144v246zM552 544h380s0 21 -1 30c-13 234 -25 318 -50 347c-16 19 -33 25 -57 27c-22 2 -60 2 -100 -1c-1 -17 -8 -41 -17 -57c39 3 73 3 88 3c15 1 22 0 29 -10
c18 -19 28 -91 39 -281h-347c-14 20 -29 38 -45 57h28v112h86c2 -9 2 -19 2 -28v-112h58v113c0 8 0 18 -1 27h94v-112h55v164h-159c-19 56 -69 103 -193 135c-9 -13 -27 -35 -41 -45c97 -23 145 -55 167 -90h-122v-138c-11 11 -21 21 -33 30c-11 -13 -30 -32 -47 -40v200
c0 35 -8 54 -30 64c-22 12 -57 13 -115 13c-3 -17 -12 -45 -21 -61c42 1 79 1 89 0c12 0 16 -4 16 -16v-340h-144c0 130 -10 307 -72 423c-12 -10 -38 -28 -53 -35c58 -110 63 -266 63 -388h-54v-62h54v-306h80c10 -37 24 -88 29 -123l73 11c-14 38 -30 80 -44 112h129v505
c65 -51 112 -118 141 -178c-20 8 -42 16 -69 23c-7 -14 -23 -37 -36 -48c90 -21 138 -50 162 -81h-114v-113c-8 7 -16 15 -23 23c-12 -15 -35 -34 -50 -43c70 -61 118 -144 144 -209l66 9c-10 24 -20 47 -33 72h379s0 19 -1 29c-9 213 -19 288 -41 314c-14 18 -30 24 -53 26
c-20 2 -56 2 -91 0c-2 -17 -8 -41 -17 -56c35 3 67 3 80 3s20 -1 27 -10c13 -17 22 -79 30 -248h-347c-11 17 -23 33 -36 50h20v103h81c2 -12 3 -23 3 -35v-96h58v97c0 12 0 23 -2 34h91v-103h56v153h-159c-13 30 -36 59 -78 83l32 5c-10 23 -20 45 -33 68zM280 720l-47 20
c-8 -38 -33 -95 -58 -137l43 -18c27 42 52 98 62 135z" />
</svg>
