<?xml version="1.0" standalone="no"?>
<!DOCTYPE svg PUBLIC "-//W3C//DTD SVG 1.1//EN" "http://www.w3.org/Graphics/SVG/1.1/DTD/svg11.dtd" >
<svg xmlns="http://www.w3.org/2000/svg" xmlns:xlink="http://www.w3.org/1999/xlink" version="1.1" viewBox="-10 0 1010 1000">
   <path fill="currentColor"
d="M191 292l42 -18c25 41 49 98 56 135l-47 22c-6 -38 -28 -95 -51 -139zM165 477h154v-249h-154v249zM687 268v-61h-162v61h162zM687 378v-61h-162v61h162zM687 494v-67h-162v67h162zM462 580v-288c-18 26 -35 50 -54 71c-7 -8 -19 -22 -31 -32v538c0 37 -8 55 -30 66
s-58 12 -116 12c-3 -17 -12 -44 -20 -61c42 2 81 1 92 1c12 0 16 -4 16 -18v-330h-154c0 132 -11 304 -75 418c-10 -10 -35 -26 -50 -32c62 -108 69 -263 69 -386h-66v-62h66v-310h80c11 -39 22 -87 28 -123l74 14c-13 36 -26 76 -39 109h125v132c58 -66 107 -162 138 -257
l61 17c-11 30 -23 62 -36 91h162c-7 -25 -26 -63 -43 -91l55 -20c19 29 39 66 47 91l-50 20h214v57h-175v61h153v49h-153v61h153v49h-153v67h187v56h-412v30h-63zM293 720l-48 21c-6 -38 -27 -96 -52 -138l44 -19c25 42 48 99 56 136zM812 663h-256c32 46 75 87 127 120
c52 -33 97 -73 129 -120zM867 600l43 22c-37 81 -96 146 -167 197c65 33 141 57 222 72c-15 14 -32 41 -42 60c-89 -20 -173 -51 -243 -93c-82 45 -173 75 -265 96c-7 -18 -22 -44 -34 -58c83 -15 167 -40 240 -77c-57 -44 -104 -96 -138 -156h-71v-60h442z" />
</svg>
