<?xml version="1.0" standalone="no"?>
<!DOCTYPE svg PUBLIC "-//W3C//DTD SVG 1.1//EN" "http://www.w3.org/Graphics/SVG/1.1/DTD/svg11.dtd" >
<svg xmlns="http://www.w3.org/2000/svg" xmlns:xlink="http://www.w3.org/1999/xlink" version="1.1" viewBox="-10 0 1010 1000">
   <path fill="currentColor"
d="M176 85l64 21c-41 111 -102 236 -156 319c-8 -14 -30 -49 -43 -63c50 -73 102 -179 135 -277zM234 595h211s-1 21 -2 32c-18 184 -34 258 -62 286c-18 18 -35 25 -65 26c-23 1 -66 2 -112 -1c-1 -20 -8 -46 -20 -65c46 4 90 5 108 5c16 0 26 -1 35 -9
c19 -18 32 -75 46 -210h-230c19 -54 42 -132 58 -200h-87v-66h319v66h-163c-12 45 -24 94 -36 136zM761 211h-133c-22 44 -48 86 -73 122h144c21 -33 45 -80 62 -122zM850 585v-192h-105v192h105zM591 393v192h101v-192h-101zM652 879h181c44 0 51 -22 56 -128
c16 10 41 21 60 25c-9 127 -29 164 -112 164h-190c-92 0 -121 -22 -121 -109v-461l-12 15c-8 -7 -24 -20 -38 -29l-55 22c-25 -70 -80 -193 -125 -284l61 -19c39 78 89 179 118 249c63 -73 117 -177 152 -280l67 18c-11 29 -23 59 -36 88h134l10 -3l44 27
c-20 53 -50 112 -78 159h146v312h-323v186c0 39 10 48 61 48z" />
</svg>
