<?xml version="1.0" standalone="no"?>
<!DOCTYPE svg PUBLIC "-//W3C//DTD SVG 1.1//EN" "http://www.w3.org/Graphics/SVG/1.1/DTD/svg11.dtd" >
<svg xmlns="http://www.w3.org/2000/svg" xmlns:xlink="http://www.w3.org/1999/xlink" version="1.1" viewBox="-10 0 1010 1000">
   <path fill="currentColor"
d="M207 734l57 27c-47 60 -118 131 -175 176c-9 -14 -31 -44 -43 -58c56 -38 119 -93 161 -145zM331 768l44 -39c45 41 104 99 133 135l-46 45c-29 -37 -86 -97 -131 -141zM398 366v-82h-212v82h212zM398 501v-83h-212v83h212zM458 229v327h-331v-302h-56v-169h453v165h-64
v-102h-328v81h326zM245 577l57 -21c14 23 31 55 41 80h178v64h-459v-64h211c-9 -20 -20 -41 -28 -59zM798 211h-129c-23 45 -49 86 -75 122h143c22 -33 45 -80 61 -122zM861 585v-192h-87v192h87zM627 393v192h89v-192h-89zM682 879h162c40 0 47 -23 52 -135
c16 12 43 22 62 27c-9 133 -29 171 -111 171h-171c-89 0 -116 -22 -116 -109v-457l-3 3c-12 -11 -40 -31 -57 -42c71 -70 130 -181 166 -293l67 16c-10 30 -22 61 -36 90h133l10 -3l43 27c-20 53 -50 112 -78 159h117v312h-295v188c0 38 9 46 55 46z" />
</svg>
