<?xml version="1.0" standalone="no"?>
<!DOCTYPE svg PUBLIC "-//W3C//DTD SVG 1.1//EN" "http://www.w3.org/Graphics/SVG/1.1/DTD/svg11.dtd" >
<svg xmlns="http://www.w3.org/2000/svg" xmlns:xlink="http://www.w3.org/1999/xlink" version="1.1" viewBox="-10 0 1010 1000">
   <path fill="currentColor"
d="M194 220v-47h-133v-58h133v-71h61v71h112v-71h60v71h115v58h-115v47h-60v-47h-112v47h-61zM149 286v69h65v-69h-65zM263 286v69h67v-69h-67zM378 286v69h69v-69h-69zM95 404v-166h409v166h-409zM407 610h-219v55h219v-55zM407 767v-56h-219v56h219zM188 871h219v-57h-219
v57zM127 956v-401h344v400h-64v-33h-219v34h-61zM59 587v-135h482v133h-61v-79h-363v81h-58zM800 209h-116c-21 45 -43 87 -68 124h123c22 -34 44 -81 61 -124zM865 585v-192h-80v192h80zM641 393v192h89v-192h-89zM694 882h156c39 0 46 -22 51 -128c15 10 39 21 58 26
c-9 126 -28 162 -105 162h-165c-85 0 -111 -21 -111 -106v-449l-5 6c-11 -10 -37 -30 -52 -39c68 -76 125 -193 159 -310l61 15c-10 30 -21 62 -33 91h121l10 -3l41 27c-20 53 -48 112 -76 159h124v312h-287v191c0 38 8 46 53 46z" />
</svg>
