<?xml version="1.0" standalone="no"?>
<!DOCTYPE svg PUBLIC "-//W3C//DTD SVG 1.1//EN" "http://www.w3.org/Graphics/SVG/1.1/DTD/svg11.dtd" >
<svg xmlns="http://www.w3.org/2000/svg" xmlns:xlink="http://www.w3.org/1999/xlink" version="1.1" viewBox="-10 0 1010 1000">
   <path fill="currentColor"
d="M286 303v-100h-221v-69h221v-90h73v90h277v-90h73v90h227v69h-227v74l5 -4l73 34c-48 46 -108 88 -175 125c96 38 184 75 250 108l-53 58c-71 -38 -170 -82 -280 -124c-114 53 -243 96 -372 124c-8 -18 -27 -45 -41 -60c110 -22 224 -56 323 -97
c-89 -31 -180 -59 -266 -80l54 -51c95 23 201 56 300 91c60 -29 113 -63 154 -98h-45v-100h-277v100h-73zM697 591l75 28c-49 68 -115 123 -193 168c113 46 246 77 386 93c-17 17 -37 48 -47 68c-153 -22 -297 -61 -418 -120c-121 56 -265 93 -412 119
c-9 -17 -30 -50 -45 -66c138 -18 270 -49 382 -94c-76 -45 -140 -100 -190 -163l65 -27c48 61 118 113 202 156c82 -43 150 -96 195 -162z" />
</svg>
