<?xml version="1.0" standalone="no"?>
<!DOCTYPE svg PUBLIC "-//W3C//DTD SVG 1.1//EN" "http://www.w3.org/Graphics/SVG/1.1/DTD/svg11.dtd" >
<svg xmlns="http://www.w3.org/2000/svg" xmlns:xlink="http://www.w3.org/1999/xlink" version="1.1" viewBox="-10 0 1010 1000">
   <path fill="currentColor"
d="M290 271v-76h-227v-66h227v-85h73v85h276v-85h73v85h226v66h-226v77h-73v-77h-276v76h-73zM826 268l30 60c-179 35 -474 54 -710 57c-1 -18 -8 -44 -15 -61c235 -5 530 -23 695 -56zM817 506l55 45c-127 110 -325 217 -524 283c62 31 143 37 245 37c113 0 260 -6 357 -17
c-8 18 -18 51 -19 70c-76 5 -245 11 -339 11c-114 0 -197 -10 -263 -48c-40 -24 -69 -51 -92 -51c-35 0 -84 51 -136 110l-44 -59c64 -63 130 -112 181 -112c16 0 29 7 46 17c162 -49 332 -136 440 -217h-599v-65h345c-15 -31 -35 -67 -52 -94l65 -23c24 36 50 83 65 117
h251z" />
</svg>
