<?xml version="1.0" standalone="no"?>
<!DOCTYPE svg PUBLIC "-//W3C//DTD SVG 1.1//EN" "http://www.w3.org/Graphics/SVG/1.1/DTD/svg11.dtd" >
<svg xmlns="http://www.w3.org/2000/svg" xmlns:xlink="http://www.w3.org/1999/xlink" version="1.1" viewBox="-10 0 1010 1000">
   <path fill="currentColor"
d="M290 248v-58h-227v-66h227v-80h73v80h272v-79h73v79h235v66h-235v60h-73v-60h-272v58h-73zM746 738h-487v113h487v-113zM186 954v-276h634v274h-74v-42h-487v44h-73zM695 464h-286c-9 34 -18 67 -25 96h311v-96zM770 560h181v60h-900v-60h255c9 -29 19 -62 27 -96h-172
v-59h187c6 -24 12 -48 17 -71h-262v-60h784v60h-447c-5 24 -10 47 -16 71h346v155z" />
</svg>
