<?xml version="1.0" standalone="no"?>
<!DOCTYPE svg PUBLIC "-//W3C//DTD SVG 1.1//EN" "http://www.w3.org/Graphics/SVG/1.1/DTD/svg11.dtd" >
<svg xmlns="http://www.w3.org/2000/svg" xmlns:xlink="http://www.w3.org/1999/xlink" version="1.1" viewBox="-10 0 1010 1000">
   <path fill="currentColor"
d="M248 582l48 -23c65 75 128 175 155 245l-53 26c-12 -35 -35 -78 -60 -121c-24 54 -57 102 -95 136c-8 -8 -29 -24 -42 -30c49 -40 83 -96 102 -161c-18 -25 -36 -50 -55 -72zM798 796l-53 27c-12 -34 -33 -76 -60 -120c-22 54 -55 100 -94 133c-9 -8 -29 -23 -42 -31
c48 -38 82 -93 101 -156c-19 -25 -37 -50 -57 -72l49 -24c66 75 129 174 156 243zM75 373v-65h849v65h-392v84h362v413c0 39 -8 57 -39 69c-31 10 -81 10 -155 10c-4 -18 -16 -44 -26 -62c59 2 112 2 127 1c16 -1 20 -5 20 -19v-349h-289v421h-71v-421h-281v436h-72v-499
h353v-84h-386zM703 134h239v66h-239v77h-73v-77h-264v79h-73v-79h-236v-66h236v-90h73v90h264v-90h73v90z" />
</svg>
