<?xml version="1.0" standalone="no"?>
<!DOCTYPE svg PUBLIC "-//W3C//DTD SVG 1.1//EN" "http://www.w3.org/Graphics/SVG/1.1/DTD/svg11.dtd" >
<svg xmlns="http://www.w3.org/2000/svg" xmlns:xlink="http://www.w3.org/1999/xlink" version="1.1" viewBox="-10 0 1010 1000">
   <path fill="currentColor"
d="M290 223v-49h-225v-64h225v-66h71v66h270v-66h73v66h234v64h-234v73h-73v-73h-270v49h-71zM397 348h-123c-44 53 -99 102 -167 145c-11 -16 -33 -39 -48 -49c107 -62 180 -147 218 -219l74 11c-9 17 -20 34 -30 51h544l-3 32c-16 206 -31 285 -58 314
c-16 18 -33 25 -58 27c-21 2 -58 2 -96 0c-2 -20 -9 -47 -20 -66c38 4 70 4 85 4c13 0 21 -1 29 -11c18 -17 32 -81 45 -239h-122c-47 122 -120 226 -204 298c53 29 114 72 144 106l-51 43c-29 -34 -89 -81 -142 -111l34 -27c-12 -12 -38 -33 -54 -44
c85 -62 156 -156 200 -265h-121c-69 123 -178 227 -285 296c-12 -12 -38 -36 -54 -47c103 -58 199 -147 263 -249zM104 931l-62 -37c54 -50 97 -132 123 -199l61 26c-27 68 -68 155 -122 210zM424 878h190c44 0 52 -11 56 -98c16 12 46 23 66 28c-10 111 -33 137 -116 137
h-200c-106 0 -133 -20 -133 -96v-162h71v161c0 25 10 30 66 30zM719 729l59 -32c68 57 141 138 173 197l-63 38c-29 -59 -102 -143 -169 -203z" />
</svg>
