<?xml version="1.0" standalone="no"?>
<!DOCTYPE svg PUBLIC "-//W3C//DTD SVG 1.1//EN" "http://www.w3.org/Graphics/SVG/1.1/DTD/svg11.dtd" >
<svg xmlns="http://www.w3.org/2000/svg" xmlns:xlink="http://www.w3.org/1999/xlink" version="1.1" viewBox="-10 0 1010 1000">
   <path fill="currentColor"
d="M347 87l33 -46c236 61 273 202 569 240c-7 14 -18 38 -19 54c-225 -29 -314 -124 -437 -191c-105 87 -266 157 -416 198c-9 -16 -26 -35 -43 -49c147 -35 306 -97 406 -176c-28 -11 -58 -22 -93 -30zM693 441h-71v-55h-240v59h-70v-59h-180v-54h180v-63h70v63h240v-62h71
v62h185v54h-185v55zM254 618v62h494v-62h-494zM254 510v62h494v-62h-494zM534 729v61h410v55h-410v121h-74v-121h-400v-55h400v-61h-277v-268h638v268h-287z" />
</svg>
