<?xml version="1.0" standalone="no"?>
<!DOCTYPE svg PUBLIC "-//W3C//DTD SVG 1.1//EN" "http://www.w3.org/Graphics/SVG/1.1/DTD/svg11.dtd" >
<svg xmlns="http://www.w3.org/2000/svg" xmlns:xlink="http://www.w3.org/1999/xlink" version="1.1" viewBox="-10 0 1010 1000">
   <path fill="currentColor"
d="M58 921v-64h879v64h-879zM868 455l44 19c-24 72 -58 132 -101 182c43 34 80 69 106 97l-52 46c-24 -28 -60 -61 -100 -96c-50 45 -107 79 -167 103c-10 -14 -35 -39 -51 -49c62 -22 118 -54 166 -95c-44 -33 -89 -66 -131 -93l47 -40c41 25 86 56 129 88
c27 -30 48 -65 66 -102h-240v-57h270zM750 266l16 -4l51 38c-77 58 -186 114 -288 150v298c0 39 -9 55 -40 66c-31 10 -81 11 -155 11c-4 -19 -17 -43 -27 -62c61 2 114 2 130 1c17 -1 20 -4 20 -17v-329c70 -23 146 -56 205 -90h-499v-62h587zM161 500v161h143v-161h-143z
M94 717v-273h280v273h-280zM712 115h229v65h-229v65h-73v-65h-279v65h-73v-65h-225v-65h225v-71h73v71h279v-71h73v71z" />
</svg>
