<?xml version="1.0" standalone="no"?>
<!DOCTYPE svg PUBLIC "-//W3C//DTD SVG 1.1//EN" "http://www.w3.org/Graphics/SVG/1.1/DTD/svg11.dtd" >
<svg xmlns="http://www.w3.org/2000/svg" xmlns:xlink="http://www.w3.org/1999/xlink" version="1.1" viewBox="-10 0 1010 1000">
   <path fill="currentColor"
d="M300 242v-61h-244v-61h244v-75h72v75h252v-75h72v75h249v61h-249v52h-72v-52h-252v61h-72zM813 483h-155v84h155v-84zM429 483v84h157v-84h-157zM925 372h-267v58h228v190h-228v3c93 36 203 92 262 138l-40 50c-49 -40 -138 -90 -222 -127v171h-72v-196
c-61 67 -147 128 -227 160c-12 -16 -32 -39 -49 -52c84 -28 174 -85 232 -147h-183v-190h227v-58h-263v-56h263v-72h72v72h267v56zM95 283l42 -45c55 29 122 77 154 112l-44 52c-31 -36 -97 -87 -152 -119zM263 462v330c21 9 42 27 78 47c63 36 147 42 254 42
c116 0 268 -7 367 -18c-8 17 -18 48 -19 67c-78 5 -253 11 -350 11c-114 0 -200 -10 -266 -47c-40 -24 -70 -51 -92 -51c-35 0 -86 49 -138 108l-42 -56c48 -46 96 -84 138 -101v-267h-129v-65h199z" />
</svg>
