<?xml version="1.0" standalone="no"?>
<!DOCTYPE svg PUBLIC "-//W3C//DTD SVG 1.1//EN" "http://www.w3.org/Graphics/SVG/1.1/DTD/svg11.dtd" >
<svg xmlns="http://www.w3.org/2000/svg" xmlns:xlink="http://www.w3.org/1999/xlink" version="1.1" viewBox="-10 0 1010 1000">
   <path fill="currentColor"
d="M947 421v57h-563v-57h233v-71h-183v-56h183v-48h72v48h198v56h-198v71h258zM936 577l-37 50c-46 -25 -138 -60 -207 -82l35 -44c68 19 160 52 209 76zM416 634l-57 -43c63 -22 139 -57 194 -94l64 26c-59 40 -136 84 -201 111zM293 241v-71h-233v-64h233v-62h73v62h265
v-62h73v62h239v64h-239v68h-73v-68h-265v71h-73zM330 269l48 28c-29 66 -64 144 -97 205c72 62 91 116 92 165c0 45 -14 78 -41 95c-14 9 -31 14 -49 16c-19 3 -44 3 -67 1c-1 -18 -8 -44 -19 -62c24 2 43 2 58 2c12 -1 22 -2 30 -8c14 -9 20 -27 20 -51
c-1 -41 -22 -91 -92 -148c26 -54 54 -119 73 -172h-126v614h-68v-682h227zM567 701l-13 13c24 33 58 63 99 89c47 -28 86 -61 115 -102h-201zM820 647l40 18c-33 71 -83 127 -146 169c68 32 151 54 239 64c-16 15 -33 42 -42 61c-98 -16 -186 -45 -261 -87
c-84 43 -184 68 -288 84c-5 -18 -18 -43 -30 -58c93 -11 184 -31 261 -65c-33 -24 -61 -53 -84 -83c-24 19 -50 35 -80 52c-11 -14 -31 -33 -46 -43c99 -49 170 -118 208 -177l66 12c-11 19 -25 37 -41 55h190z" />
</svg>
