<?xml version="1.0" standalone="no"?>
<!DOCTYPE svg PUBLIC "-//W3C//DTD SVG 1.1//EN" "http://www.w3.org/Graphics/SVG/1.1/DTD/svg11.dtd" >
<svg xmlns="http://www.w3.org/2000/svg" xmlns:xlink="http://www.w3.org/1999/xlink" version="1.1" viewBox="-10 0 1010 1000">
   <path fill="currentColor"
d="M298 204v-45h-237v-55h237v-61h72v61h255v-61h73v61h243v55h-243v45h-73v-45h-255v45h-72zM334 816h432v-44h-432v44zM766 685h-432v45h432v-45zM837 640v248c0 32 -9 45 -38 54c-30 8 -78 8 -150 8c-4 -15 -14 -33 -24 -47c54 2 107 2 121 1c15 -1 20 -5 20 -16v-30
h-432v98h-71v-316h574zM816 460l60 27c-35 27 -76 49 -113 68c61 20 130 32 201 40c-14 14 -31 39 -40 56c-181 -25 -339 -89 -424 -196h-119v104l169 -22c-1 16 -1 39 1 52c-190 26 -221 33 -240 40c-4 -12 -19 -34 -28 -45c13 -6 30 -17 30 -53v-76h-95
c-3 151 -26 354 -122 496c-13 -14 -43 -35 -60 -43c99 -146 111 -347 111 -489v-197h764v52h-693v135h714v46h-357c33 30 75 56 124 77c42 -22 88 -51 117 -72zM842 363h-565v-43h565v43z" />
</svg>
