<?xml version="1.0" standalone="no"?>
<!DOCTYPE svg PUBLIC "-//W3C//DTD SVG 1.1//EN" "http://www.w3.org/Graphics/SVG/1.1/DTD/svg11.dtd" >
<svg xmlns="http://www.w3.org/2000/svg" xmlns:xlink="http://www.w3.org/1999/xlink" version="1.1" viewBox="-10 0 1010 1000">
   <path fill="currentColor"
d="M295 251v-61h-238v-66h238v-80h73v80h261v-80h73v80h242v66h-242v61h-73v-61h-261v61h-73zM157 517v100h110v-100h-110zM417 617v-100h-92v100h92zM329 672v13c40 26 131 92 154 110l-37 61c-23 -24 -75 -71 -117 -107v207h-66v-227c-50 71 -116 141 -180 180
c-6 -18 -20 -46 -31 -62c66 -37 139 -106 186 -175h-140v-211h165v-69h-192v-61h192v-74h67v74h181v61h-181v69h149v211h-150zM645 438l-6 17c20 76 48 149 86 212c33 -64 56 -140 71 -229h-151zM938 438h-68c-21 118 -54 215 -103 294c53 70 117 125 195 159
c-16 13 -38 40 -48 59c-75 -37 -137 -92 -188 -160c-57 70 -130 124 -224 166c-8 -14 -32 -44 -46 -57c100 -40 175 -94 229 -169c-34 -58 -62 -122 -85 -193c-16 30 -33 58 -50 81c-11 -11 -40 -35 -55 -46c61 -76 107 -194 133 -313l68 15c-8 33 -17 67 -28 99h270v65z
" />
</svg>
