<?xml version="1.0" standalone="no"?>
<!DOCTYPE svg PUBLIC "-//W3C//DTD SVG 1.1//EN" "http://www.w3.org/Graphics/SVG/1.1/DTD/svg11.dtd" >
<svg xmlns="http://www.w3.org/2000/svg" xmlns:xlink="http://www.w3.org/1999/xlink" version="1.1" viewBox="-10 0 1010 1000">
   <path fill="currentColor"
d="M533 779h229v-62h-229v62zM239 779h224v-62h-224v62zM463 604h-224v63h224v-63zM762 604h-229v63h229v-63zM834 552v334c0 33 -8 48 -36 58s-74 10 -150 10c-4 -17 -14 -38 -24 -53c55 2 105 1 119 0c14 0 19 -3 19 -16v-55h-229v115h-70v-115h-224v128h-71v-406h666z
M246 360l55 25c-29 44 -71 98 -122 132l-53 -36c48 -30 92 -80 120 -121zM324 356h69v85c0 20 7 24 55 24h162c35 0 42 -8 45 -67c15 8 41 16 60 20c-8 78 -29 97 -97 97h-176c-94 0 -118 -14 -118 -73v-86zM608 404l-42 40c-37 -29 -106 -69 -164 -93l41 -34
c57 22 128 61 165 87zM685 375l52 -28c49 34 107 83 134 117l-56 30c-25 -34 -81 -85 -130 -119zM435 204l71 -17c19 22 39 50 51 72h352v153h-74v-98h-673v98h-71v-153h381c-11 -19 -25 -38 -37 -55zM713 108h225v60h-225v64h-73v-64h-286v67h-73v-67h-216v-60h216v-65h73
v65h286v-65h73v65z" />
</svg>
