<?xml version="1.0" standalone="no"?>
<!DOCTYPE svg PUBLIC "-//W3C//DTD SVG 1.1//EN" "http://www.w3.org/Graphics/SVG/1.1/DTD/svg11.dtd" >
<svg xmlns="http://www.w3.org/2000/svg" xmlns:xlink="http://www.w3.org/1999/xlink" version="1.1" viewBox="-10 0 1010 1000">
   <path fill="currentColor"
d="M292 236v-70h-231v-62h231v-61h72v61h268v-60h73v60h239v62h-239v67h-73v-67h-268v70h-72zM437 510v78h366v-78h-366zM635 863h-70v-169c-63 51 -141 94 -214 123c-7 -11 -29 -37 -42 -49c87 -30 179 -76 238 -132h-174v-174h497v174h-235v36c38 12 82 28 122 43
c37 -23 80 -54 106 -76l49 29c-31 25 -69 49 -102 68c42 18 81 35 109 51l-33 50c-56 -32 -159 -78 -251 -110v136zM542 219l74 19c-48 48 -101 91 -152 127l297 -13c-31 -25 -64 -52 -96 -74l52 -29c68 45 147 111 182 157l-55 34c-8 -11 -20 -25 -34 -40
c-380 20 -422 22 -451 31c-3 -11 -14 -40 -22 -55c16 -1 35 -11 57 -25c22 -15 97 -73 148 -132zM76 287l49 -42c61 41 130 103 162 148l-51 47c-31 -45 -99 -110 -160 -153zM261 512v277c19 12 40 30 74 51c66 40 149 48 260 48c120 0 269 -8 371 -18c-8 17 -18 48 -19 67
c-71 4 -246 10 -352 10c-122 0 -206 -12 -275 -55c-39 -24 -73 -57 -96 -57c-34 0 -84 56 -135 123l-42 -55c51 -55 100 -100 143 -118v-206h-141v-67h212z" />
</svg>
