<?xml version="1.0" standalone="no"?>
<!DOCTYPE svg PUBLIC "-//W3C//DTD SVG 1.1//EN" "http://www.w3.org/Graphics/SVG/1.1/DTD/svg11.dtd" >
<svg xmlns="http://www.w3.org/2000/svg" xmlns:xlink="http://www.w3.org/1999/xlink" version="1.1" viewBox="-10 0 1010 1000">
   <path fill="currentColor"
d="M292 223v-55h-235v-60h235v-64h73v64h269v-64h73v64h237v60h-237v55h-73v-55h-269v55h-73zM189 303v185c0 137 -12 336 -86 472c-12 -13 -43 -31 -60 -39c70 -128 77 -305 77 -433v-243h380c-19 -17 -41 -35 -61 -49l53 -24c31 19 69 49 88 70l-6 3h360v58h-745zM716 694
l50 15c-17 35 -38 69 -60 97l103 -10c-11 -21 -24 -42 -36 -60l39 -16c28 38 57 90 68 122l-42 20c-3 -9 -7 -20 -11 -31c-140 17 -163 22 -176 28c-3 -10 -11 -31 -17 -42c10 -1 18 -8 27 -20s40 -58 55 -103zM337 631h165c9 -25 14 -51 19 -78h-184v78zM337 428v77h192
c4 -25 6 -50 8 -77h-200zM789 505v-77h-187c-2 27 -5 52 -8 77h195zM789 631v-78h-203c-4 27 -10 53 -17 78h220zM671 888h174c37 0 44 -10 48 -78c14 9 39 17 57 21c-8 90 -28 112 -99 112h-185c-92 0 -117 -17 -117 -84v-171c-48 117 -140 209 -325 264
c-8 -16 -25 -41 -38 -54c164 -45 249 -122 295 -217h-210v-303h205c12 -25 25 -53 32 -74l73 14c-12 22 -25 42 -36 60h313v303h-246v178c0 24 8 29 59 29z" />
</svg>
