<?xml version="1.0" standalone="no"?>
<!DOCTYPE svg PUBLIC "-//W3C//DTD SVG 1.1//EN" "http://www.w3.org/Graphics/SVG/1.1/DTD/svg11.dtd" >
<svg xmlns="http://www.w3.org/2000/svg" xmlns:xlink="http://www.w3.org/1999/xlink" version="1.1" viewBox="-10 0 1010 1000">
   <path fill="currentColor"
d="M293 237v-64h-231v-56h231v-74h73v74h268v-74h73v74h232v56h-232v68h-73v-68h-268v64h-73zM635 858v-55h-263v55h263zM871 608v272c0 36 -8 50 -34 59s-67 8 -134 8c-4 -15 -12 -32 -20 -47h-360v-134c-29 10 -56 19 -81 26l-23 -39c68 -20 168 -60 228 -89l25 35
c-38 24 -89 45 -138 63h351v134c48 2 87 2 99 1c14 -1 17 -5 17 -17v-221h-597v297h-69v-348h736zM774 751l-24 42c-48 -27 -141 -66 -213 -91l23 -36c72 21 165 59 214 85zM798 344l50 33c-38 29 -85 56 -127 78c66 29 145 50 230 62c-14 13 -32 37 -42 54
c-185 -31 -333 -106 -417 -227c-45 34 -102 64 -164 88v80l215 -37c-1 17 -1 41 1 54c-236 45 -268 52 -288 62c-5 -13 -21 -37 -32 -49c15 -8 37 -27 37 -67v-19c-59 19 -121 35 -179 48c-9 -13 -28 -38 -42 -50c133 -23 278 -63 370 -121h-331v-54h403
c-11 -20 -25 -41 -39 -58l64 -22c21 23 42 54 52 80h352v54h-355c29 36 67 68 112 94c44 -24 97 -59 130 -83z" />
</svg>
