<?xml version="1.0" standalone="no"?>
<!DOCTYPE svg PUBLIC "-//W3C//DTD SVG 1.1//EN" "http://www.w3.org/Graphics/SVG/1.1/DTD/svg11.dtd" >
<svg xmlns="http://www.w3.org/2000/svg" xmlns:xlink="http://www.w3.org/1999/xlink" version="1.1" viewBox="-10 0 1010 1000">
   <path fill="currentColor"
d="M822 779h-208v90h208v-90zM547 950v-221h344v218h-69v-28h-208v31h-67zM637 578h-279c16 18 33 40 42 60h205c12 -20 26 -42 32 -60zM244 471v59h517v-59h-517zM657 578l57 12c-11 17 -22 33 -33 48h248v53h-625c-2 19 -5 35 -9 52h193s-1 17 -2 26
c-11 97 -21 138 -39 156c-15 12 -32 17 -55 18c-21 2 -62 2 -104 -1c-1 -16 -7 -37 -17 -51c41 3 78 4 91 4c15 0 23 -1 29 -7c10 -9 17 -35 24 -93h-135c-27 76 -84 128 -197 162c-7 -14 -24 -35 -37 -45c91 -25 139 -63 165 -117h-132v-52h150c4 -17 6 -33 9 -52h-170v-53
h253c-8 -17 -20 -34 -33 -48l58 -12h-171v-155h659v155h-177zM534 183v52h397v53h-397v48h340v51h-733v-51h320v-48h-397v-53h397v-52h73zM700 100h237v57h-237v56h-72v-56h-256v57h-73v-57h-236v-57h236v-55h73v55h256v-56h72v56z" />
</svg>
