<?xml version="1.0" standalone="no"?>
<!DOCTYPE svg PUBLIC "-//W3C//DTD SVG 1.1//EN" "http://www.w3.org/Graphics/SVG/1.1/DTD/svg11.dtd" >
<svg xmlns="http://www.w3.org/2000/svg" xmlns:xlink="http://www.w3.org/1999/xlink" version="1.1" viewBox="-10 0 1010 1000">
   <path fill="currentColor"
d="M299 227v-60h-238v-61h238v-62h70v62h260v-62h70v62h242v61h-242v60h-70v-60h-260v60h-70zM688 332v-61h249v61h-249zM218 233l61 24c-50 70 -129 148 -198 197c-8 -14 -25 -39 -37 -52c63 -43 137 -112 174 -169zM235 425l57 24c-20 30 -45 62 -71 91v417h-64v-350
c-29 28 -60 53 -88 75c-5 -15 -24 -48 -35 -63c72 -48 152 -121 201 -194zM518 829l157 -33l3 57c-133 31 -274 64 -374 86l-15 -63c46 -9 106 -21 170 -35v-227h-150v-60h150v-72h-98v-40c-15 12 -30 25 -45 37c-4 -16 -19 -54 -29 -70c74 -50 152 -127 197 -211l50 25
c-6 11 -12 22 -19 33c58 38 115 85 151 121l-31 56c-36 -39 -96 -88 -152 -129c-31 44 -66 84 -102 119h235v59h-98v72h145v60h-145v215zM328 653l48 -14c16 52 31 121 35 165l-51 16c-3 -45 -17 -114 -32 -167zM605 795l-43 -16c12 -40 27 -103 34 -145l53 19
c-15 50 -30 106 -44 142zM956 440v62h-100v377c0 34 -7 49 -31 59c-22 10 -57 11 -116 11c-3 -17 -12 -40 -21 -57c41 2 79 1 88 1c13 0 16 -3 16 -14v-377h-125v-62h289z" />
</svg>
