<?xml version="1.0" standalone="no"?>
<!DOCTYPE svg PUBLIC "-//W3C//DTD SVG 1.1//EN" "http://www.w3.org/Graphics/SVG/1.1/DTD/svg11.dtd" >
<svg xmlns="http://www.w3.org/2000/svg" xmlns:xlink="http://www.w3.org/1999/xlink" version="1.1" viewBox="-10 0 1010 1000">
   <path fill="currentColor"
d="M288 234v-54h-230v-62h230v-74h73v74h276v-74h73v74h234v62h-234v54h-73v-54h-276v54h-73zM414 645l-43 57c-15 -23 -51 -66 -82 -103v355h-69v-344c-40 91 -92 181 -144 236c-7 -20 -25 -50 -36 -68c57 -57 122 -161 160 -255h-135v-64h155v-114c-46 10 -94 18 -137 24
c-2 -15 -11 -39 -19 -54c106 -18 235 -47 307 -81l31 50c164 -11 365 -33 472 -65l47 50c-128 36 -335 57 -502 66c-2 -12 -8 -29 -15 -43c-32 14 -72 27 -115 37v130h123v64h-123v4c34 29 106 98 125 118zM844 307l63 14c-24 46 -57 97 -87 129c-13 -7 -42 -19 -58 -24
c32 -35 61 -78 82 -119zM557 431l-62 27c-11 -29 -37 -71 -63 -101l59 -22c27 30 54 70 66 96zM701 735h141v-73h-141v73zM502 662v73h131v-73h-131zM633 541h-131v70h131v-70zM842 541h-141v70h141v-70zM958 735v56h-47v94c0 33 -8 50 -34 60c-25 11 -66 12 -129 11
c-4 -17 -16 -41 -25 -57c46 1 89 1 101 0c13 0 18 -3 18 -15v-93h-340v164h-68v-164h-67v-56h67v-248h199v-52h27c-7 -28 -28 -69 -49 -100l58 -17c24 29 46 70 54 98l-60 19h38v52h210v248h47z" />
</svg>
