<?xml version="1.0" standalone="no"?>
<!DOCTYPE svg PUBLIC "-//W3C//DTD SVG 1.1//EN" "http://www.w3.org/Graphics/SVG/1.1/DTD/svg11.dtd" >
<svg xmlns="http://www.w3.org/2000/svg" xmlns:xlink="http://www.w3.org/1999/xlink" version="1.1" viewBox="-10 0 1010 1000">
   <path fill="currentColor"
d="M309 218l59 24c-68 60 -176 117 -266 154c-10 -13 -33 -38 -47 -50c90 -30 193 -77 254 -128zM368 676l49 11c-13 29 -29 56 -48 83c26 18 49 38 65 53l-31 41c-15 -17 -38 -37 -63 -56c-25 28 -51 54 -77 74c-9 -8 -29 -23 -42 -30c28 -21 56 -45 81 -74
c-24 -16 -49 -32 -71 -45l28 -35c23 13 48 28 72 44c15 -21 27 -44 37 -66zM370 493l47 11c-13 23 -28 46 -46 68c25 19 47 36 63 52l-32 38c-15 -17 -37 -35 -62 -54c-25 28 -51 51 -77 71c-8 -8 -28 -22 -40 -30c27 -18 55 -41 80 -66c-23 -15 -47 -29 -68 -39l29 -35
c23 11 46 24 69 39c14 -18 26 -37 37 -55zM772 818l-31 41c-16 -18 -40 -38 -66 -58c-26 29 -56 56 -84 76c-9 -8 -30 -23 -41 -29c30 -21 60 -46 86 -74c-23 -16 -47 -31 -70 -43l30 -36c23 12 48 27 71 42c15 -19 27 -39 37 -59l48 11c-13 26 -28 51 -46 75
c26 19 49 38 66 54zM767 626l-32 38c-15 -16 -37 -34 -62 -53c-23 27 -49 51 -74 71c-9 -8 -29 -22 -40 -29c26 -19 52 -43 77 -69c-23 -15 -46 -28 -68 -38l31 -36c21 11 44 24 66 38c14 -18 26 -37 37 -56l47 11c-13 24 -28 48 -46 71c26 19 48 36 64 52zM874 421v452
c0 36 -7 52 -32 63c-24 10 -63 11 -118 11c-3 -18 -13 -42 -22 -59c40 1 76 1 87 0c11 0 14 -4 14 -14v-394h-269v463h-71v-463h-258v467h-70v-526h103c-8 -5 -15 -10 -21 -14c55 -27 111 -64 144 -105l50 15c-30 37 -76 76 -121 104h173v-169h71v169h191
c-40 -28 -99 -63 -147 -84l41 -33c58 27 130 69 168 96l-23 21h110zM616 239l52 -21c57 55 171 105 275 127c-14 12 -34 36 -43 51c-106 -27 -221 -90 -284 -157zM705 109h243v59h-243v49h-73v-49h-267v48h-73v-48h-236v-59h236v-65h73v65h267v-64h73v64z" />
</svg>
