<?xml version="1.0" standalone="no"?>
<!DOCTYPE svg PUBLIC "-//W3C//DTD SVG 1.1//EN" "http://www.w3.org/Graphics/SVG/1.1/DTD/svg11.dtd" >
<svg xmlns="http://www.w3.org/2000/svg" xmlns:xlink="http://www.w3.org/1999/xlink" version="1.1" viewBox="-10 0 1010 1000">
   <path fill="currentColor"
d="M295 245v-63h-234v-63h234v-75h73v75h260v-75h73v75h240v63h-240v55h-73v-55h-260v63h-73zM505 811l59 14c-33 44 -83 92 -126 123c-12 -8 -37 -22 -51 -29c45 -28 90 -68 118 -108zM749 835l45 -26c43 30 98 74 123 103l-46 31c-26 -32 -78 -78 -122 -108zM761 686
l46 -21c43 40 92 96 112 133l-48 24c-7 -12 -16 -26 -28 -42l-142 8v101c0 29 -5 43 -30 52c-22 9 -57 9 -107 9c-3 -16 -13 -36 -22 -51c39 2 70 2 81 1s13 -3 13 -11v-97c-145 8 -169 11 -187 16c-2 -11 -10 -38 -17 -51c22 -3 48 -12 81 -29c19 -8 56 -26 101 -52
c-94 6 -114 9 -126 14c-3 -11 -11 -36 -18 -49c15 -2 28 -8 46 -19c19 -11 79 -53 120 -99l48 29c-33 31 -70 59 -107 82l112 -5c24 -15 46 -30 68 -47l46 33c-74 52 -152 97 -230 134l237 -11c-16 -19 -33 -36 -49 -52zM171 639h116v-126h-113v24c0 32 -1 66 -3 102z
M287 335h-113v120h113v-120zM946 519h-148c40 40 99 71 163 88c-15 12 -34 33 -43 49c-79 -26 -149 -77 -191 -137h-161c-45 59 -103 104 -174 141c-7 -11 -26 -34 -41 -45v257c0 34 -7 51 -29 62c-22 10 -55 12 -109 11c-2 -17 -11 -43 -20 -60c37 2 70 1 79 1
c11 0 15 -3 15 -14v-175h-121c-9 91 -28 185 -71 258c-11 -11 -39 -28 -54 -35c64 -111 70 -268 70 -382v-263h240v337c53 -24 97 -56 134 -93h-110v-51h152c14 -20 26 -40 37 -63h-160v-50h83c-11 -25 -30 -57 -51 -80l52 -19c25 25 48 63 58 88l-27 11h65
c13 -33 22 -71 29 -110l64 6c-7 37 -15 72 -26 104h76c22 -27 51 -70 66 -98l63 19c-21 28 -43 56 -63 79h124v50h-285c-10 23 -20 43 -32 63h346v51z" />
</svg>
