<?xml version="1.0" standalone="no"?>
<!DOCTYPE svg PUBLIC "-//W3C//DTD SVG 1.1//EN" "http://www.w3.org/Graphics/SVG/1.1/DTD/svg11.dtd" >
<svg xmlns="http://www.w3.org/2000/svg" xmlns:xlink="http://www.w3.org/1999/xlink" version="1.1" viewBox="-10 0 1010 1000">
   <path fill="currentColor"
d="M289 254v-70h-227v-63h227v-76h73v76h270v-76h73v76h235v63h-235v66h-73v-66h-270v70h-73zM382 648l-41 58c-14 -28 -47 -78 -76 -122v373h-68v-383c-35 93 -81 183 -127 238c-7 -21 -24 -52 -35 -69c57 -62 117 -176 150 -278h-130v-64h142v-146h68v146h111v64h-111v35
c35 41 100 124 117 148zM469 772l63 18c-34 56 -88 113 -137 148c-10 -12 -36 -33 -52 -43c50 -31 98 -77 126 -123zM769 805l51 -29c46 38 102 92 127 130l-54 33c-24 -37 -78 -95 -124 -134zM797 597v-54h-279v54h279zM797 697v-54h-279v54h279zM689 382h-59
c-24 40 -52 79 -88 114h232c-34 -34 -63 -74 -85 -114zM893 402l42 31c-22 22 -50 44 -74 62c32 25 68 45 103 59c-14 12 -31 35 -41 51c-22 -10 -42 -23 -63 -36v175h-165v135c0 35 -7 52 -34 63c-25 10 -64 10 -126 10c-4 -19 -14 -44 -24 -62c47 2 88 2 99 1
c13 0 16 -4 16 -14v-133h-169v-176c-19 13 -39 25 -61 37c-9 -16 -28 -37 -42 -46c42 -22 78 -46 110 -72c-19 -17 -41 -36 -62 -51l38 -32c20 13 44 30 62 47c22 -21 40 -45 56 -69h-171v-57h204c12 -25 21 -49 28 -74l65 8c-7 22 -15 44 -25 66h285v57h-193
c21 29 45 58 74 84c24 -21 52 -47 68 -64z" />
</svg>
