<?xml version="1.0" standalone="no"?>
<!DOCTYPE svg PUBLIC "-//W3C//DTD SVG 1.1//EN" "http://www.w3.org/Graphics/SVG/1.1/DTD/svg11.dtd" >
<svg xmlns="http://www.w3.org/2000/svg" xmlns:xlink="http://www.w3.org/1999/xlink" version="1.1" viewBox="-10 0 1010 1000">
   <path fill="currentColor"
d="M583 380v-62h-158v62h158zM583 488v-64h-158v64h158zM647 272v262h-283v-262h81c12 -25 27 -56 34 -77l60 16c-12 22 -23 43 -34 61h142zM128 708l-38 -49c98 -20 202 -59 274 -109l57 25c-78 58 -183 108 -293 133zM925 644l-29 54c-69 -32 -202 -76 -303 -101l28 -47
c99 22 233 63 304 94zM858 294h-114v78h114v-78zM777 492h100c22 0 27 -7 29 -58c12 10 33 18 50 23c-6 70 -24 89 -72 89h-111c-66 0 -84 -15 -84 -77v-221h220v169h-165v52c0 20 5 23 33 23zM298 227v-56h-241v-58h241v-70h72v70h255v-70h73v70h246v58h-246v54h-73v-54
h-255v56h-72zM331 463l3 50c-95 23 -192 46 -269 63l-19 -55c18 -3 37 -7 58 -11v-215h52v205l56 -12v-259h52v98h68v52h-68v98zM365 722l-15 8c41 34 92 63 155 85c69 -24 129 -55 174 -93h-314zM744 670l43 31c-47 60 -115 106 -194 142c106 27 231 43 362 49
c-14 16 -30 43 -37 63c-153 -10 -298 -33 -417 -77c-131 44 -284 66 -431 77c-5 -18 -16 -44 -26 -61c127 -7 257 -23 372 -52c-46 -24 -87 -51 -123 -83c-35 16 -74 32 -116 47c-7 -16 -24 -38 -37 -50c134 -38 236 -95 290 -151l65 16c-18 19 -37 36 -59 53h295z" />
</svg>
