<?xml version="1.0" standalone="no"?>
<!DOCTYPE svg PUBLIC "-//W3C//DTD SVG 1.1//EN" "http://www.w3.org/Graphics/SVG/1.1/DTD/svg11.dtd" >
<svg xmlns="http://www.w3.org/2000/svg" xmlns:xlink="http://www.w3.org/1999/xlink" version="1.1" viewBox="-10 0 1010 1000">
   <path fill="currentColor"
d="M298 220v-62h-226v-51h226v-63h72v63h254v-63h73v63h239v51h-239v56h-73v-56h-254v62h-72zM550 280h-367v217c0 135 -12 330 -86 459c-11 -13 -41 -35 -57 -43c68 -121 74 -291 74 -416v-267h350c-6 -16 -14 -31 -21 -45l68 -18c10 18 24 43 34 63h394v50h-368
c6 14 13 31 19 45h330v48h-702v-48h298c-4 -11 -8 -23 -12 -33zM657 543v-32h-182v32h182zM714 479v95h-294v-95h294zM794 600v-148h-452v148h452zM859 411v230h-579v-230h579zM279 720v-47h579v47h-579zM409 814l52 22c-59 40 -159 82 -238 106c-8 -12 -26 -37 -38 -48
c76 -18 170 -48 224 -80zM683 851l26 -44c74 22 175 62 227 88l-25 50c-52 -26 -152 -69 -228 -94zM202 757h740v48h-342v84c0 33 -7 47 -35 55c-27 8 -71 8 -141 8c-2 -17 -10 -36 -16 -53c48 2 94 2 105 1c13 0 17 -3 17 -14v-81h-328v-48z" />
</svg>
