<?xml version="1.0" standalone="no"?>
<!DOCTYPE svg PUBLIC "-//W3C//DTD SVG 1.1//EN" "http://www.w3.org/Graphics/SVG/1.1/DTD/svg11.dtd" >
<svg xmlns="http://www.w3.org/2000/svg" xmlns:xlink="http://www.w3.org/1999/xlink" version="1.1" viewBox="-10 0 1010 1000">
   <path fill="currentColor"
d="M295 248v-59h-233v-67h233v-77h73v77h261v-77h73v77h238v67h-238v62h-73v-62h-261v60h-70c15 22 32 50 44 72h155v62h-429v-62h192c-9 -18 -21 -37 -31 -54zM356 396l57 11c-5 18 -12 38 -18 55c37 35 79 77 100 105l-45 35c-17 -24 -49 -59 -80 -91
c-16 29 -34 53 -56 74c-8 -10 -31 -27 -44 -35c43 -39 71 -94 86 -154zM273 542l-39 38c-14 -19 -36 -45 -61 -68c-22 40 -50 75 -80 101c-9 -10 -32 -30 -46 -38c54 -45 94 -111 114 -184l59 12c-5 21 -14 43 -23 63c29 24 61 53 76 76zM144 733l62 12
c-20 61 -54 126 -91 168c-12 -9 -39 -24 -55 -30c37 -39 66 -95 84 -150zM367 752l56 -19c31 40 61 96 74 132l-59 23c-12 -37 -42 -94 -71 -136zM339 585v55h165v61h-165v186c0 33 -6 48 -29 57c-21 9 -54 10 -105 10c-4 -17 -13 -40 -21 -56c34 1 63 1 72 0
c10 0 13 -3 13 -13v-184h-207v-61h207v-55h70zM606 747v109h136v-109h-136zM742 534v-96h-136v96h136zM742 691v-101h-136v101h136zM952 856v62h-346v39h-67v-460c-12 15 -24 30 -36 43c-8 -14 -31 -43 -44 -57c56 -57 104 -140 132 -226l64 17c-12 34 -26 70 -43 103h135
c-13 -31 -31 -69 -48 -99l66 -19c21 37 46 84 60 118h116v61h-132v96h114v56h-114v101h115v56h-115v109h143z" />
</svg>
