<?xml version="1.0" standalone="no"?>
<!DOCTYPE svg PUBLIC "-//W3C//DTD SVG 1.1//EN" "http://www.w3.org/Graphics/SVG/1.1/DTD/svg11.dtd" >
<svg xmlns="http://www.w3.org/2000/svg" xmlns:xlink="http://www.w3.org/1999/xlink" version="1.1" viewBox="-10 0 1010 1000">
   <path fill="currentColor"
d="M170 318v132h143v-132h-143zM290 817l101 -22l5 62c-120 28 -244 56 -336 76l-13 -67l62 -11v-268h55v256l65 -14v-321h-121v-247h269v247h-87v106h93v59h-93v144zM501 714h94v-67h-94v67zM741 647h-92v67h92v-67zM821 861l-47 22c-3 -9 -7 -19 -13 -29
c-122 13 -245 26 -337 36l-5 -52c48 -4 108 -9 176 -16v-66h-148v-152h148v-46h54v46h148v152h-148v62l85 -8c-8 -12 -16 -24 -24 -34l44 -20c27 32 55 75 67 105zM482 309v83h86v-83h-86zM620 309v83h88v-83h-88zM760 309v83h90v-83h-90zM547 494h381s0 20 -1 28
c-6 278 -12 370 -33 398c-15 18 -32 24 -57 27c-22 2 -58 2 -97 0c-1 -16 -7 -37 -16 -52c36 4 68 4 83 4c13 0 21 -2 28 -12c14 -18 20 -102 26 -340h-358c-29 29 -58 56 -88 78c-10 -10 -34 -31 -49 -40c55 -36 109 -88 144 -145h-88v-179h491v179h-330
c-10 19 -22 36 -36 54zM709 117h235v67h-235v52h-73v-52h-276v55h-73v-55h-230v-67h230v-73h73v73h276v-73h73v73z" />
</svg>
