<?xml version="1.0" standalone="no"?>
<!DOCTYPE svg PUBLIC "-//W3C//DTD SVG 1.1//EN" "http://www.w3.org/Graphics/SVG/1.1/DTD/svg11.dtd" >
<svg xmlns="http://www.w3.org/2000/svg" xmlns:xlink="http://www.w3.org/1999/xlink" version="1.1" viewBox="-10 0 1010 1000">
   <path fill="currentColor"
d="M165 458v-128c-30 45 -69 87 -106 113c-5 -14 -17 -36 -25 -49c37 -23 80 -64 108 -107h-85v-47h108v-59h61v59h85v47h-85v5c23 19 81 66 96 81l-35 39c-10 -16 -38 -46 -61 -71v117h-61zM203 893l369 -27c-1 14 -2 37 -1 47c-371 30 -409 34 -433 42
c-3 -14 -15 -41 -23 -52c12 -4 23 -11 23 -46v-87h65v24h363v35h-363v64zM381 564l-25 25c-11 -11 -29 -25 -45 -34l24 -22c16 8 36 22 46 31zM512 707v-125h66v169h-447v-124h-57v-143h851v143h-67v-94h-719v49l56 1v124h156c-8 -9 -19 -19 -28 -26l26 -18
c14 9 30 21 37 32l-14 12h140zM463 257h-52c-9 17 -21 32 -34 47h86v-47zM325 345l1 -41h41c-11 -9 -25 -19 -37 -23c32 -34 53 -74 65 -111l51 7c-3 14 -8 27 -14 39h197v41h-103v47h123v41h-123v63h64v-40h47v81h-289v-81h47v40h68v-63h-138zM837 651l55 23
c-61 54 -164 97 -255 123c-10 -14 -26 -33 -42 -44c89 -22 190 -58 242 -102zM776 559l51 19c-46 38 -119 67 -183 85c-9 -12 -25 -28 -40 -39c61 -14 133 -37 172 -65zM450 670l-22 25c-19 -16 -45 -33 -75 -52c-32 18 -65 33 -96 46c-6 -6 -20 -19 -30 -25
c31 -11 64 -25 94 -40c-27 -15 -56 -30 -82 -42l21 -21c31 12 63 29 94 47c26 -15 50 -31 69 -46l34 11c-20 18 -46 36 -72 52c25 16 49 32 65 45zM266 628l-25 22c-9 -10 -26 -24 -41 -33l26 -18c14 7 31 19 40 29zM504 634l-24 24c-10 -11 -30 -25 -46 -35l24 -20
c16 8 36 20 46 31zM887 748l57 27c-69 74 -192 133 -309 168c-10 -15 -28 -36 -43 -49c113 -29 235 -82 295 -146zM822 181v56h123v46h-123v9c31 23 103 83 121 99l-37 39c-14 -18 -53 -58 -84 -89v117h-59v-131c-24 43 -56 84 -88 107c-9 -12 -24 -29 -36 -38
c38 -22 79 -68 102 -113h-85v-46h107v-56h59zM712 92h232v51h-232v47h-72v-47h-279v45h-72v-45h-232v-51h232v-49h72v49h279v-49h72v49z" />
</svg>
