<?xml version="1.0" standalone="no"?>
<!DOCTYPE svg PUBLIC "-//W3C//DTD SVG 1.1//EN" "http://www.w3.org/Graphics/SVG/1.1/DTD/svg11.dtd" >
<svg xmlns="http://www.w3.org/2000/svg" xmlns:xlink="http://www.w3.org/1999/xlink" version="1.1" viewBox="-10 0 1010 1000">
   <path fill="currentColor"
d="M416 434h-87v517h-63v-517h-95v19c0 144 -10 356 -78 498c-12 -13 -40 -34 -55 -40c62 -134 67 -322 67 -458v-309h11c91 -22 194 -53 254 -87l51 62c-69 34 -163 60 -250 78v169h245v68zM510 305v257c0 123 -12 286 -93 393c-11 -11 -37 -30 -52 -37
c76 -100 83 -243 83 -357v-314h173v-203h70v80h241v58h-241v65h205l11 -3l47 12c-6 49 -18 108 -28 144l-58 -13c5 -22 9 -52 12 -82h-370zM839 574h-118c-73 0 -91 -16 -91 -79v-42l-95 10l-7 -56l102 -10v-89h64v83l153 -14l7 54l-160 16v48c0 22 6 25 35 25h102
c22 0 27 -7 30 -54c14 10 38 18 56 22c-7 68 -26 86 -78 86zM850 879h24c8 0 17 -1 21 -4c4 -4 8 -12 10 -22c2 -16 3 -54 3 -99c12 11 34 23 51 28c-2 46 -5 96 -9 114c-5 17 -15 29 -26 37c-11 7 -29 11 -46 11h-43c-20 0 -39 -4 -52 -16c-14 -13 -17 -27 -17 -71v-183
h-105c-5 152 -26 233 -116 286c-7 -15 -24 -39 -38 -49c85 -49 93 -124 94 -295h227v243c0 6 1 12 5 15s10 5 17 5z" />
</svg>
