<?xml version="1.0" standalone="no"?>
<!DOCTYPE svg PUBLIC "-//W3C//DTD SVG 1.1//EN" "http://www.w3.org/Graphics/SVG/1.1/DTD/svg11.dtd" >
<svg xmlns="http://www.w3.org/2000/svg" xmlns:xlink="http://www.w3.org/1999/xlink" version="1.1" viewBox="-10 0 1010 1000">
   <path fill="currentColor"
d="M150 299v189c0 129 -10 316 -71 443c-11 -11 -37 -29 -51 -35c56 -120 62 -287 62 -408v-247h160v-198h65v69h179v58h-179v71h131l10 -3l43 12c-9 46 -23 100 -36 132l-31 -7l7 50l-128 15v50c0 20 4 23 26 23h78c17 0 21 -8 24 -56c12 8 35 17 51 20
c-6 68 -23 87 -68 87h-91c-64 0 -80 -16 -80 -75v-42l-74 9l-6 -50l80 -10v-93h60v86l120 -14l-21 -5c7 -19 13 -45 18 -71h-278zM407 797l70 -37c3 17 9 39 15 51c-80 50 -113 73 -127 86l-11 13c-6 -16 -21 -44 -30 -58c11 -8 26 -25 26 -64v-123h-80
c-8 131 -31 219 -112 274c-8 -14 -25 -37 -39 -47c79 -53 91 -141 94 -285h194v190zM594 544h95c8 -54 13 -110 15 -170h-110v170zM793 196h-138c-20 39 -42 78 -68 115h135c25 -32 52 -75 71 -115zM871 544v-170h-107c-3 59 -7 116 -15 170h122zM813 875h71
c20 0 24 -10 27 -88c12 12 36 21 52 26c-6 100 -22 126 -71 126h-86c-62 0 -77 -20 -77 -88v-205c-35 135 -104 246 -250 315c-7 -19 -24 -44 -37 -58c142 -63 205 -168 235 -297h-140v-230l-10 11c-10 -15 -29 -37 -43 -46c83 -89 139 -207 170 -298l59 12
c-8 25 -18 51 -29 77h144l11 -4l40 30c-23 51 -54 106 -85 153h136v295h-192l-4 21h54v224c0 21 3 24 25 24zM921 768l-43 36c-14 -35 -48 -89 -79 -128l41 -31c32 37 66 89 81 123z" />
</svg>
