<?xml version="1.0" standalone="no"?>
<!DOCTYPE svg PUBLIC "-//W3C//DTD SVG 1.1//EN" "http://www.w3.org/Graphics/SVG/1.1/DTD/svg11.dtd" >
<svg xmlns="http://www.w3.org/2000/svg" xmlns:xlink="http://www.w3.org/1999/xlink" version="1.1" viewBox="-10 0 1010 1000">
   <path fill="currentColor"
d="M581 223v75c0 84 -10 202 -64 284c-9 -12 -32 -31 -46 -38c49 -76 56 -174 56 -247v-120h145v-133h61v47h173v45h-173v41h168l11 -3l38 11c-10 32 -23 70 -35 95l-49 -9c5 -15 11 -32 16 -48h-158v37l120 -11l4 41l-124 11v19c0 18 4 21 29 21h88c18 0 23 -7 25 -44
c11 8 29 13 43 16c-4 52 -19 68 -60 68h-101c-60 0 -76 -11 -76 -62v-13l-69 6l-4 -40l73 -7v-42h-91zM147 221v74c0 85 -11 203 -63 286c-10 -11 -32 -31 -45 -38c48 -76 55 -176 55 -250v-118h143v-133h59v47h167v45h-167v41h162l10 -3l37 10c-11 33 -23 70 -34 96
l-48 -10c5 -14 10 -30 15 -47h-150v38l110 -10l3 41l-113 10v20c0 18 3 21 27 21h81c18 0 21 -5 23 -42c11 7 28 13 42 16c-4 52 -18 66 -58 66h-94c-57 0 -72 -11 -72 -61v-15l-68 6l-5 -40l73 -7v-43h-90zM348 461h-94c-10 66 -34 109 -94 137c-6 -15 -21 -37 -33 -47
c59 -24 73 -66 76 -140h195v93l68 -23c1 13 5 34 7 45c-100 42 -121 53 -133 63c-4 -12 -16 -34 -24 -44c12 -9 32 -26 32 -67v-17zM740 660h-476v69h476v-69zM264 856h476v-75h-476v75zM192 956v-351h621v347h-73v-41h-476v45h-72zM844 524h42c14 0 17 -6 20 -56
c11 9 32 16 47 20c-4 70 -19 90 -58 90h-58c-52 0 -65 -15 -65 -72v-43h-81c-9 61 -32 103 -89 130c-5 -15 -20 -37 -33 -47c55 -24 67 -64 69 -133h190v92c0 17 2 19 16 19z" />
</svg>
