<?xml version="1.0" standalone="no"?>
<!DOCTYPE svg PUBLIC "-//W3C//DTD SVG 1.1//EN" "http://www.w3.org/Graphics/SVG/1.1/DTD/svg11.dtd" >
<svg xmlns="http://www.w3.org/2000/svg" xmlns:xlink="http://www.w3.org/1999/xlink" version="1.1" viewBox="-10 0 1010 1000">
   <path fill="currentColor"
d="M187 418v-213h-121v-65h406c-13 -27 -28 -58 -42 -82l69 -21c19 31 40 72 54 103h378v65h-671v148h623v65h-696zM229 682h234v-114h-234v114zM782 568h-246v114h246v-114zM680 783l56 -33c75 49 165 124 209 173l-58 40c-14 -17 -33 -35 -53 -55c-276 9 -567 17 -756 22
l-5 -68c103 -1 240 -4 390 -7v-112h-307v-235h307v-71h73v71h322v235h-322v110l230 -5c-29 -23 -58 -46 -86 -65z" />
</svg>
