<?xml version="1.0" standalone="no"?>
<!DOCTYPE svg PUBLIC "-//W3C//DTD SVG 1.1//EN" "http://www.w3.org/Graphics/SVG/1.1/DTD/svg11.dtd" >
<svg xmlns="http://www.w3.org/2000/svg" xmlns:xlink="http://www.w3.org/1999/xlink" version="1.1" viewBox="-10 0 1010 1000">
   <path fill="currentColor"
d="M509 323h-4c-97 89 -263 166 -401 204c-10 -17 -28 -41 -42 -54c121 -28 260 -84 354 -150h-334v-56h397c-43 -32 -97 -65 -143 -88l47 -34c47 23 101 55 144 85c47 -25 98 -58 142 -91h-494v-56h563l14 -4l58 26c-73 60 -156 121 -232 161l1 1h263l14 -3l59 21
c-47 61 -101 125 -149 165l-68 -26c30 -27 65 -64 96 -101h-215v126c0 35 -7 50 -35 59c-29 9 -73 8 -143 8c-3 -18 -11 -38 -20 -54c54 1 98 1 111 1c13 -1 17 -5 17 -16v-124zM536 780v76c76 -2 153 -5 230 -8c-18 -15 -36 -29 -53 -40l46 -28h-223zM238 724h225v-86h-225
v86zM767 638h-231v86h231v-86zM840 780h-66c61 42 131 102 168 142l-56 38c-14 -16 -32 -34 -54 -55c-273 13 -563 25 -754 31l-5 -67c103 -2 241 -6 390 -11v-78h-295v-197h295v-52h73v52h304v197z" />
</svg>
