<?xml version="1.0" standalone="no"?>
<!DOCTYPE svg PUBLIC "-//W3C//DTD SVG 1.1//EN" "http://www.w3.org/Graphics/SVG/1.1/DTD/svg11.dtd" >
<svg xmlns="http://www.w3.org/2000/svg" xmlns:xlink="http://www.w3.org/1999/xlink" version="1.1" viewBox="-10 0 1010 1000">
   <path fill="currentColor"
d="M764 197l-52 48c-37 -48 -115 -112 -185 -155l49 -42c69 41 149 102 188 149zM474 396l60 14c-11 97 -29 216 -69 287l-57 -28c39 -68 57 -180 66 -273zM141 285v247h75v-247h-75zM339 532v-247h-76v247h76zM691 884h103c30 0 35 -25 39 -148c16 13 44 25 63 29
c-7 143 -26 185 -96 185h-119c-78 0 -98 -24 -98 -112v-44c-43 51 -89 98 -140 139c-8 -13 -23 -33 -36 -49l-36 13c-3 -22 -8 -47 -13 -74c-107 26 -215 52 -295 70l-8 -69c42 -8 96 -19 156 -32v-197h-70v53h-55v-426h125v-173h56v173h126v373h-126v184l76 -16
c-9 -34 -19 -68 -27 -97l50 -16c21 63 42 142 53 202c61 -50 115 -108 164 -175v-415h69v311c80 -135 141 -293 186 -468l69 15c-61 225 -143 422 -255 584v135c0 39 6 45 39 45zM808 415l62 -18c47 91 84 210 94 289l-67 20c-9 -80 -46 -199 -89 -291z" />
</svg>
