<?xml version="1.0" standalone="no"?>
<!DOCTYPE svg PUBLIC "-//W3C//DTD SVG 1.1//EN" "http://www.w3.org/Graphics/SVG/1.1/DTD/svg11.dtd" >
<svg xmlns="http://www.w3.org/2000/svg" xmlns:xlink="http://www.w3.org/1999/xlink" version="1.1" viewBox="-10 0 1010 1000">
   <path fill="currentColor"
d="M133 285v247h71v-247h-71zM333 532v-247h-77v247h77zM854 47l58 61c-106 39 -260 69 -398 88v205c0 160 -11 395 -84 556c-11 -11 -41 -29 -57 -34c10 -22 19 -46 27 -71l-38 13c-1 -11 -3 -24 -7 -38c-108 25 -219 48 -302 66l-9 -69c43 -7 97 -17 156 -29v-200h-67v53
h-59v-426h126v-173h60v173h132v373h-131v188l79 -17c-9 -34 -20 -70 -30 -100l52 -16c19 51 37 114 49 164c35 -138 39 -295 39 -413v-262h1c143 -21 310 -55 403 -92zM913 434l46 56c-46 41 -97 86 -140 119c31 118 76 216 140 274c-15 14 -38 39 -49 59
c-111 -112 -164 -327 -194 -574c-25 5 -51 10 -76 14c2 121 2 325 0 447l118 -55c3 19 9 46 14 60c-158 80 -182 96 -197 111c-5 -19 -19 -53 -29 -70c17 -6 27 -13 30 -48c2 -48 -2 -389 -3 -497h1l-1 -1c105 -18 227 -45 293 -76l59 57c-43 18 -96 34 -152 46
c8 67 18 131 32 193c38 -36 82 -80 108 -115z" />
</svg>
