<?xml version="1.0" standalone="no"?>
<!DOCTYPE svg PUBLIC "-//W3C//DTD SVG 1.1//EN" "http://www.w3.org/Graphics/SVG/1.1/DTD/svg11.dtd" >
<svg xmlns="http://www.w3.org/2000/svg" xmlns:xlink="http://www.w3.org/1999/xlink" version="1.1" viewBox="-10 0 1010 1000">
   <path fill="currentColor"
d="M937 462l-59 31c-7 -16 -19 -33 -32 -53c-344 21 -385 24 -412 33c-4 -18 -15 -53 -23 -71c21 -4 56 -11 72 -27c17 -17 67 -95 98 -148h-164v-66h214c-13 -33 -30 -71 -44 -102l67 -19c21 38 43 85 56 121h222v66h-271c-30 49 -71 114 -103 162l239 -11
c-25 -31 -53 -62 -79 -87l54 -29c63 59 134 142 165 200zM138 285v247h65v-247h-65zM320 532v-247h-70v247h70zM399 842l-52 20c-2 -13 -5 -29 -8 -45c-98 28 -199 55 -272 76l-9 -69c38 -8 87 -20 141 -34v-195h-61v53h-54v-426h115v-173h55v173h120v373h-120v181l71 -18
c-8 -32 -17 -64 -26 -92l51 -16c20 61 41 140 49 192zM481 629v-121h62v122c0 111 -14 234 -130 325c-11 -14 -33 -36 -49 -46c105 -82 117 -188 117 -280zM618 919v-407h62v407h-62zM851 889h27c8 0 17 -1 21 -4c5 -4 9 -12 11 -25c2 -16 3 -50 4 -94c12 9 31 19 48 25
c-2 42 -5 92 -9 109c-5 18 -15 29 -26 36c-12 7 -31 10 -47 10h-45c-18 0 -39 -5 -52 -17c-14 -11 -19 -28 -19 -90v-333h64v341c0 20 1 33 6 37c3 4 9 5 17 5z" />
</svg>
