<?xml version="1.0" standalone="no"?>
<!DOCTYPE svg PUBLIC "-//W3C//DTD SVG 1.1//EN" "http://www.w3.org/Graphics/SVG/1.1/DTD/svg11.dtd" >
<svg xmlns="http://www.w3.org/2000/svg" xmlns:xlink="http://www.w3.org/1999/xlink" version="1.1" viewBox="-10 0 1010 1000">
   <path fill="currentColor"
d="M878 111l-37 46c-28 -21 -85 -52 -130 -70l35 -41c45 17 102 44 132 65zM827 241l60 22c-32 41 -76 76 -127 107c34 35 71 56 108 55c25 0 32 -23 36 -89c14 13 34 23 51 26c-11 98 -32 126 -89 126c-60 0 -116 -32 -163 -86c-68 34 -142 60 -213 81
c-8 -14 -30 -41 -42 -54c75 -18 152 -43 220 -74c-20 -33 -38 -69 -52 -109l-148 13l-6 -61l137 -11c-11 -44 -19 -92 -22 -142h66c2 49 10 95 21 136l277 -23l6 60l-265 23c13 31 27 59 42 83c42 -24 77 -52 103 -83zM700 525l34 -42c49 16 115 40 148 61l-34 47
c-33 -21 -98 -49 -148 -66zM134 287v236h82v-236h-82zM356 523v-236h-87v236h87zM443 858l-57 20c-2 -19 -7 -42 -14 -66c-113 31 -226 63 -314 88l-13 -72c45 -10 104 -24 166 -41v-201h-77v47h-57v-409h134v-176h64v176h139v362h-139v184l78 -21c-11 -32 -23 -64 -36 -91
l54 -19c33 70 63 160 72 219zM826 676l62 22c-35 49 -82 92 -136 128c40 43 82 68 122 68c25 0 34 -28 38 -105c15 13 35 23 52 29c-10 108 -33 139 -93 139c-63 0 -123 -35 -173 -95c-71 40 -151 71 -228 96c-8 -14 -29 -42 -42 -55c81 -22 164 -52 234 -90
c-23 -38 -44 -81 -61 -129l-141 13l-5 -61l129 -12c-12 -46 -20 -96 -23 -148h66c3 51 11 98 23 142l302 -26l5 60l-289 26c14 38 30 72 49 101c44 -30 81 -64 109 -103z" />
</svg>
