<?xml version="1.0" standalone="no"?>
<!DOCTYPE svg PUBLIC "-//W3C//DTD SVG 1.1//EN" "http://www.w3.org/Graphics/SVG/1.1/DTD/svg11.dtd" >
<svg xmlns="http://www.w3.org/2000/svg" xmlns:xlink="http://www.w3.org/1999/xlink" version="1.1" viewBox="-10 0 1010 1000">
   <path fill="currentColor"
d="M127 282v247h68v-247h-68zM305 529v-247h-62v247h62zM389 850l-52 23c-3 -16 -6 -36 -11 -57c-96 27 -193 53 -265 73l-10 -68c39 -7 87 -19 140 -33v-196h-64v52h-58v-425h122v-171h56v171h113v373h-113v182l64 -15c-10 -37 -21 -73 -32 -105l51 -21
c24 69 49 157 59 217zM544 545v33c0 17 0 35 -1 54h381v61h-156v266h-68v-266h-163c-11 84 -37 177 -100 258c-13 -13 -37 -32 -54 -42c83 -111 94 -243 94 -332v-80l-1 -2c133 -11 284 -29 375 -47l52 54c-102 17 -235 34 -359 43zM962 238l-53 37c-18 -24 -45 -53 -75 -84
c-29 41 -62 78 -100 111c69 46 150 82 233 103c-15 14 -33 39 -42 57c-86 -26 -170 -68 -242 -120c-76 55 -166 98 -257 129c-7 -14 -26 -44 -39 -57c88 -28 174 -65 246 -113c-36 -32 -68 -67 -95 -105c-32 30 -67 56 -99 77c-10 -13 -33 -37 -47 -48
c72 -42 150 -105 197 -169l60 22c-20 26 -42 53 -68 78c27 39 61 76 101 108c42 -34 77 -73 105 -118c-24 -20 -49 -42 -71 -59l48 -34c71 53 156 133 198 185z" />
</svg>
