<?xml version="1.0" standalone="no"?>
<!DOCTYPE svg PUBLIC "-//W3C//DTD SVG 1.1//EN" "http://www.w3.org/Graphics/SVG/1.1/DTD/svg11.dtd" >
<svg xmlns="http://www.w3.org/2000/svg" xmlns:xlink="http://www.w3.org/1999/xlink" version="1.1" viewBox="-10 0 1010 1000">
   <path fill="currentColor"
d="M125 285v247h79v-247h-79zM331 532v-247h-79v247h79zM301 666l51 -16c25 77 50 177 61 243l-55 20c-2 -26 -8 -56 -16 -90c-104 26 -210 52 -290 70l-8 -69c42 -8 97 -19 156 -32v-197h-75v53h-55v-426h130v-174h55v174h131v373h-131v184l73 -15c-9 -35 -18 -68 -27 -98z
M879 589l52 47c-44 37 -96 77 -140 107c52 61 114 112 179 143c-16 14 -38 41 -48 59c-130 -71 -244 -216 -307 -378h-67v289l151 -51c0 19 3 46 6 61c-165 59 -210 78 -230 91l-9 6c-5 -19 -17 -56 -28 -75c17 -6 40 -20 40 -56v-265h-53v-65h77v-412h414v61h-343v79h307
v56h-307v77h308v57h-308v82h380v65h-273c20 46 46 91 76 132c43 -33 92 -78 123 -110z" />
</svg>
