<?xml version="1.0" standalone="no"?>
<!DOCTYPE svg PUBLIC "-//W3C//DTD SVG 1.1//EN" "http://www.w3.org/Graphics/SVG/1.1/DTD/svg11.dtd" >
<svg xmlns="http://www.w3.org/2000/svg" xmlns:xlink="http://www.w3.org/1999/xlink" version="1.1" viewBox="-10 0 1010 1000">
   <path fill="currentColor"
d="M125 285v247h66v-247h-66zM312 532v-247h-73v247h73zM289 666l52 -17c26 78 52 177 63 244l-54 20c-4 -25 -10 -54 -17 -86c-100 25 -203 48 -281 66l-8 -69c39 -7 89 -17 143 -28v-201h-62v53h-55v-426h117v-173h56v173h124v373h-124v189l76 -17
c-10 -35 -20 -70 -30 -101zM807 739l-40 51c-18 -24 -65 -71 -102 -105v243h-61v-254c-44 83 -100 163 -154 212c-6 -19 -23 -45 -33 -61c61 -53 129 -147 171 -233h-139v-57h155v-225h61v225h146v57h-146v33c30 22 122 95 142 114zM747 344l54 19c-22 52 -46 112 -67 151
l-44 -16c20 -42 44 -109 57 -154zM575 187h360s-1 29 -1 39c-6 491 -9 643 -37 687c-17 27 -36 36 -62 40c-26 3 -65 3 -104 1c-1 -21 -7 -51 -19 -71c40 3 74 3 92 3c13 1 21 -2 29 -17c20 -30 27 -179 31 -615h-318c-19 41 -42 79 -66 113l41 -11c22 44 40 103 46 140
l-48 16c-5 -39 -22 -94 -42 -140c-6 9 -13 17 -19 25c-12 -12 -40 -35 -57 -46c67 -74 118 -189 146 -308l69 15c-11 44 -26 88 -41 129z" />
</svg>
