<?xml version="1.0" standalone="no"?>
<!DOCTYPE svg PUBLIC "-//W3C//DTD SVG 1.1//EN" "http://www.w3.org/Graphics/SVG/1.1/DTD/svg11.dtd" >
<svg xmlns="http://www.w3.org/2000/svg" xmlns:xlink="http://www.w3.org/1999/xlink" version="1.1" viewBox="-10 0 1010 1000">
   <path fill="currentColor"
d="M778 659h-242v74h242v-74zM536 783v75c77 -2 158 -4 236 -7c-18 -16 -35 -31 -51 -45l39 -23h-224zM224 733h240v-74h-240v74zM311 161h363c5 -15 10 -29 14 -43h-358c-6 15 -13 29 -19 43zM936 281h-410c-9 5 -19 9 -30 13c35 25 61 54 77 82c90 -20 198 -55 267 -82
l43 46c-42 17 -91 32 -142 47c41 57 110 103 192 123c-14 12 -34 36 -43 53c-90 -29 -164 -88 -208 -160c-30 8 -59 15 -87 20c17 56 4 107 -31 132c-9 8 -19 13 -28 17v37h312v174h-62c53 43 115 101 148 137l-56 38c-12 -15 -30 -33 -50 -53c-272 11 -560 21 -758 26
l-5 -64c107 -1 248 -4 399 -7v-77h-306v-174h306v-30c-14 0 -27 0 -42 -1c-1 -17 -8 -44 -18 -59c26 2 53 2 71 2c17 0 31 -1 42 -9c20 -12 27 -41 16 -76c-114 59 -305 114 -458 135c-6 -14 -17 -32 -28 -43c161 -17 364 -72 469 -130c-6 -10 -14 -20 -21 -30
c-98 42 -264 83 -388 100c-5 -11 -16 -28 -25 -37c124 -12 293 -50 386 -89c-11 -9 -22 -18 -34 -26c-101 32 -226 53 -328 67c-6 -10 -20 -32 -29 -42c113 -11 248 -31 346 -60h-351v-43h574c5 -12 10 -23 13 -36h-441c25 -45 53 -111 73 -164l68 12l-11 27h350v-1h9l12 -4
l50 13c-15 50 -32 104 -51 153h218v43z" />
</svg>
