<?xml version="1.0" standalone="no"?>
<!DOCTYPE svg PUBLIC "-//W3C//DTD SVG 1.1//EN" "http://www.w3.org/Graphics/SVG/1.1/DTD/svg11.dtd" >
<svg xmlns="http://www.w3.org/2000/svg" xmlns:xlink="http://www.w3.org/1999/xlink" version="1.1" viewBox="-10 0 1010 1000">
   <path fill="currentColor"
d="M849 525h-204c-100 0 -126 -17 -126 -85v-85l-74 18l-17 -53l91 -21v-85h65v70l90 -21v-80h62v66l113 -26l7 -5l11 -9l46 17l-2 10c-3 59 -5 109 -10 129c-4 21 -19 33 -42 38c-20 4 -52 4 -75 4c-2 -15 -8 -36 -16 -49c19 1 46 1 53 1c11 0 17 -2 20 -12
c2 -7 3 -32 4 -66l-109 25v123h-62v-109l-90 21v99c0 26 9 32 65 32h195c40 0 47 -10 51 -76c15 9 41 18 61 21c-9 85 -30 108 -107 108zM938 167h-385c-25 38 -53 71 -82 98c-12 -10 -38 -30 -55 -39c56 -46 102 -115 127 -188l68 13c-8 21 -17 41 -28 62h355v54zM342 308
h-118c-19 96 -57 176 -135 229c-9 -15 -31 -36 -47 -46c96 -64 120 -177 129 -306h-112v-56h173c-10 -24 -26 -51 -40 -74l62 -17c22 27 43 66 53 91h131v56h-198c-1 23 -4 46 -6 67h176s0 17 -1 26c-6 138 -11 193 -30 213c-12 14 -27 19 -51 21c-18 2 -53 2 -88 0
c-2 -17 -8 -40 -18 -56c34 4 64 4 76 4c12 1 20 -1 26 -8c9 -10 14 -48 18 -144zM536 775v78c75 -3 153 -6 230 -9c-20 -17 -41 -34 -59 -47l41 -22h-212zM220 720h243v-87h-243v87zM757 633h-221v87h221v-87zM831 775h-57c60 43 131 105 166 146l-58 36
c-15 -17 -34 -37 -57 -59c-269 15 -555 27 -745 35l-5 -66c101 -2 238 -6 388 -11v-81h-314v-197h314v-56h73v56h295v197z" />
</svg>
