<?xml version="1.0" standalone="no"?>
<!DOCTYPE svg PUBLIC "-//W3C//DTD SVG 1.1//EN" "http://www.w3.org/Graphics/SVG/1.1/DTD/svg11.dtd" >
<svg xmlns="http://www.w3.org/2000/svg" xmlns:xlink="http://www.w3.org/1999/xlink" version="1.1" viewBox="-10 0 1010 1000">
   <path fill="currentColor"
d="M522 190h-10c-21 39 -45 75 -69 105c-12 -11 -39 -32 -55 -41c49 -54 91 -134 117 -215l65 16c-9 26 -19 52 -30 77h138v58h-92c16 36 30 76 36 103l-61 17c-5 -32 -21 -80 -39 -120zM127 284v247h68v-247h-68zM310 531v-247h-64v247h64zM283 651l49 -16
c25 78 48 178 58 244l-52 18c-3 -21 -7 -45 -12 -71c-99 25 -200 48 -274 67l-9 -69c41 -8 92 -18 149 -31v-199h-65v53h-54v-426h117v-172h64v172h111v373h-117v186l65 -15c-9 -40 -20 -80 -30 -114zM609 566h134v-150h-134v150zM810 416v150h138v67h-138v320h-67v-320
h-136c-7 86 -36 226 -132 317c-10 -15 -35 -36 -52 -47c85 -76 111 -192 117 -270h-127v-67h129v-150h-104v-65h471v65h-99zM797 132h158v59h-115c25 34 47 73 57 100l-57 25c-11 -35 -41 -85 -69 -125h-1c-23 45 -49 85 -78 117c-13 -11 -40 -31 -57 -38
c55 -57 98 -142 123 -230l66 15c-8 26 -17 52 -27 77z" />
</svg>
