<?xml version="1.0" standalone="no"?>
<!DOCTYPE svg PUBLIC "-//W3C//DTD SVG 1.1//EN" "http://www.w3.org/Graphics/SVG/1.1/DTD/svg11.dtd" >
<svg xmlns="http://www.w3.org/2000/svg" xmlns:xlink="http://www.w3.org/1999/xlink" version="1.1" viewBox="-10 0 1010 1000">
   <path fill="currentColor"
d="M557 303h-129c-83 94 -198 158 -336 201c-8 -14 -32 -42 -46 -56c116 -31 213 -78 286 -145h-273v-59h327c22 -28 40 -60 54 -94h-307v-60h741v60h-355c-13 34 -29 66 -47 94h469v59h-298c74 69 193 118 320 141c-17 14 -38 40 -49 58c-145 -33 -278 -103 -357 -199z
M141 699h98v-105h-98v105zM398 594h-96v105h96v-105zM356 789l51 -22c37 52 75 120 91 165l-54 26c-6 -17 -14 -35 -24 -56c-136 9 -273 17 -373 23l-5 -65c54 -2 122 -4 197 -8v-97h-156v-218h156v-81h63v81h157v218h-157v94l88 -5c-11 -19 -22 -38 -34 -55zM580 698h103
v-106h-103v106zM852 592h-105v106h105v-106zM807 788l53 -24c40 50 81 116 101 161l-58 29c-6 -16 -15 -35 -26 -56c-136 10 -274 20 -375 28l-7 -66c52 -2 116 -5 188 -9v-97h-161v-218h161v-79h64v79h165v218h-165v93l96 -6c-12 -19 -24 -36 -36 -53z" />
</svg>
