<?xml version="1.0" standalone="no"?>
<!DOCTYPE svg PUBLIC "-//W3C//DTD SVG 1.1//EN" "http://www.w3.org/Graphics/SVG/1.1/DTD/svg11.dtd" >
<svg xmlns="http://www.w3.org/2000/svg" xmlns:xlink="http://www.w3.org/1999/xlink" version="1.1" viewBox="-10 0 1010 1000">
   <path fill="currentColor"
d="M745 193h-159c-21 32 -45 66 -72 97h170c21 -27 44 -63 61 -97zM843 461v-112h-132v112h132zM843 630v-112h-132v112h132zM519 461h135v-112h-135v112zM654 518h-135v112h135v-112zM457 690v-338c-10 10 -20 20 -29 28c-12 -13 -35 -32 -50 -41
c102 -88 178 -204 221 -292l68 12c-13 24 -27 50 -42 75h157l14 -4l41 30c-23 43 -55 91 -85 130h155v400h-450zM191 287h-62v236h62v-236zM305 523v-236h-66v236h66zM296 658l53 -14c23 76 45 174 54 240l-55 16c-3 -19 -6 -41 -11 -65c-101 20 -205 38 -286 53l-11 -72
c40 -6 89 -13 143 -22v-208h-61v54h-53v-416h115v-176h65v176h117v362h-119v197l77 -13c-9 -39 -18 -78 -28 -112zM464 952l-59 -27c30 -55 58 -141 73 -203l54 24c-15 63 -40 151 -68 206zM580 741l54 -8c10 64 18 146 20 201l-58 10c0 -56 -8 -139 -16 -203zM705 741
l52 -12c23 61 45 139 52 191l-55 14c-7 -52 -27 -132 -49 -193zM822 732l53 -16c34 61 70 140 87 192l-55 19c-17 -53 -53 -135 -85 -195z" />
</svg>
