<?xml version="1.0" standalone="no"?>
<!DOCTYPE svg PUBLIC "-//W3C//DTD SVG 1.1//EN" "http://www.w3.org/Graphics/SVG/1.1/DTD/svg11.dtd" >
<svg xmlns="http://www.w3.org/2000/svg" xmlns:xlink="http://www.w3.org/1999/xlink" version="1.1" viewBox="-10 0 1010 1000">
   <path fill="currentColor"
d="M122 285v247h64v-247h-64zM298 532v-247h-66v247h66zM365 844l-50 17c-2 -18 -5 -37 -9 -59c-91 32 -184 63 -253 85l-9 -63c38 -10 86 -25 138 -42v-187h-60v53h-53v-426h113v-173h53v173h116v373h-116v171l59 -19c-8 -36 -17 -74 -25 -106l47 -14c21 69 41 158 49 217z
M461 203v291c0 139 -9 330 -72 458c-10 -12 -37 -30 -50 -37c58 -121 63 -291 63 -421v-347h259c-13 -26 -30 -57 -47 -80l48 -23c24 31 48 73 60 103h225v56h-486zM695 618l-29 51c-8 -26 -26 -70 -44 -111v399h-53v-376c-26 93 -57 182 -88 239c-6 -19 -19 -46 -28 -62
c45 -74 92 -216 116 -335v-4h-80v-53h78v-125h57v125h60v53h-62v54c22 41 62 122 73 145zM928 420h-83c25 138 72 295 120 368c-10 9 -27 26 -36 40c-34 -60 -68 -163 -93 -271v399h-51v-393c-29 109 -69 209 -110 272c-9 -13 -25 -31 -35 -40c57 -75 108 -229 136 -375h-73
v-54h79v-126h57v126h89v54z" />
</svg>
