<?xml version="1.0" standalone="no"?>
<!DOCTYPE svg PUBLIC "-//W3C//DTD SVG 1.1//EN" "http://www.w3.org/Graphics/SVG/1.1/DTD/svg11.dtd" >
<svg xmlns="http://www.w3.org/2000/svg" xmlns:xlink="http://www.w3.org/1999/xlink" version="1.1" viewBox="-10 0 1010 1000">
   <path fill="currentColor"
d="M604 418l-36 40c-12 -17 -32 -35 -53 -54c-29 32 -60 61 -90 83c-7 -10 -26 -31 -38 -40c31 -21 61 -47 88 -76c-21 -17 -44 -32 -64 -46l33 -36c21 12 44 28 66 44c16 -21 31 -42 43 -64l46 18c-14 26 -32 52 -50 77c21 19 41 37 55 54zM595 642l-36 40
c-11 -15 -27 -33 -44 -52c-29 37 -60 69 -90 94c-8 -10 -28 -30 -40 -40c33 -24 64 -55 92 -89c-22 -21 -45 -39 -66 -55l35 -36c20 14 41 31 62 49c14 -23 28 -46 39 -70l48 17c-14 30 -30 60 -49 87c20 20 37 38 49 55zM129 285v247h63v-247h-63zM305 532v-247h-68v247h68
zM386 859l-51 19c-2 -14 -5 -32 -9 -51c-97 25 -194 48 -266 66l-8 -69c37 -7 85 -17 137 -29v-200h-60v53h-52v-426h111v-173h53v173h116v373h-117v188l73 -17c-9 -34 -19 -70 -28 -100l47 -17c23 67 45 153 54 210zM931 652l-35 42c-15 -21 -37 -45 -62 -70
c-21 27 -45 52 -67 73c-6 -6 -16 -17 -26 -27c36 79 100 164 209 218c-13 17 -30 49 -38 68c-170 -87 -231 -260 -244 -335c-14 76 -78 247 -249 335c-7 -17 -24 -48 -36 -64c207 -105 254 -320 254 -400v-257h-235v-67h235v-116h61v116h240v67h-240v256c0 34 8 94 34 160
c23 -19 44 -40 64 -64c-21 -18 -41 -34 -61 -49l35 -37c18 12 38 28 57 45c14 -22 27 -43 37 -66l48 16c-13 28 -29 57 -46 83c26 26 50 51 65 73zM925 421l-35 40c-15 -18 -36 -40 -62 -62c-26 30 -55 57 -82 79c-9 -12 -27 -32 -38 -43c27 -19 56 -42 81 -69
c-20 -15 -41 -30 -61 -43l35 -35c18 12 39 25 59 40c15 -19 28 -38 39 -59l48 18c-14 24 -30 49 -47 72c25 22 48 44 63 62z" />
</svg>
