<?xml version="1.0" standalone="no"?>
<!DOCTYPE svg PUBLIC "-//W3C//DTD SVG 1.1//EN" "http://www.w3.org/Graphics/SVG/1.1/DTD/svg11.dtd" >
<svg xmlns="http://www.w3.org/2000/svg" xmlns:xlink="http://www.w3.org/1999/xlink" version="1.1" viewBox="-10 0 1010 1000">
   <path fill="currentColor"
d="M663 124h-114l-5 62h115c1 -21 3 -42 4 -62zM837 186l3 -62h-112l-4 62h113zM713 303h117l4 -65h-115c-2 23 -4 45 -6 65zM539 238l-5 65h114c2 -20 4 -42 6 -65h-115zM460 357l10 -113h-69v-64h75l10 -110h429l-7 110h57v64h-62l-7 113h-436zM526 675v60h310v-60h-310z
M526 567v58h310v-58h-310zM526 459v58h310v-58h-310zM454 787v-381h456v381h-456zM127 292v230h71v-230h-71zM317 522v-230h-68v230h68zM424 857l-57 20c-4 -19 -10 -40 -16 -64c-104 31 -209 60 -292 83l-13 -72c41 -10 91 -23 146 -36v-202h-65v52h-57v-410h122v-179h65
v179h121v358h-123v185l77 -21c-12 -35 -25 -71 -38 -102l55 -18c29 72 61 167 75 227zM575 792l66 40c-56 49 -145 101 -216 131c-11 -15 -31 -38 -47 -53c69 -28 154 -77 197 -118zM735 835l57 -40c58 33 135 84 175 118l-62 44c-37 -33 -112 -86 -170 -122z" />
</svg>
