<?xml version="1.0" standalone="no"?>
<!DOCTYPE svg PUBLIC "-//W3C//DTD SVG 1.1//EN" "http://www.w3.org/Graphics/SVG/1.1/DTD/svg11.dtd" >
<svg xmlns="http://www.w3.org/2000/svg" xmlns:xlink="http://www.w3.org/1999/xlink" version="1.1" viewBox="-10 0 1010 1000">
   <path fill="currentColor"
d="M621 329v-194c-68 6 -135 10 -198 12c-2 -14 -10 -36 -18 -51c153 -8 344 -25 443 -54l46 48c-56 16 -128 29 -205 37v73h215v52h-215v77h237v57h-504v-195h66v138h133zM926 499h-369c-142 0 -244 -8 -322 -35c-48 39 -103 69 -162 90c-8 -15 -29 -42 -44 -52
c52 -17 100 -40 142 -71c-34 -23 -63 -54 -88 -95l54 -23c21 34 47 60 81 79c35 -33 62 -71 82 -117h-212c42 -38 90 -89 135 -137h-145v-60h281c-41 47 -89 98 -131 141h103l12 -3l41 20c-23 73 -57 133 -101 182c69 18 159 23 273 23c41 0 339 0 395 -1
c-10 14 -22 41 -25 59zM136 714h101v-91h-101v91zM398 623h-100v91h100v-91zM355 793l50 -20c36 50 72 117 89 161l-54 24c-5 -16 -13 -34 -22 -54c-135 9 -270 15 -369 21l-6 -63c53 -2 120 -4 194 -8v-87h-157v-197h157v-53h61v53h158v197h-158v84l90 -4
c-11 -18 -22 -37 -33 -54zM581 713h104v-91h-104v91zM853 622h-107v91h107v-91zM964 931l-54 29c-7 -17 -17 -36 -29 -58c-139 8 -279 14 -381 19l-8 -62c53 -2 119 -4 193 -6v-87h-160v-197h160v-51h61v51h166v197h-166v84l99 -4c-13 -17 -26 -36 -40 -52l51 -25
c43 50 88 117 108 162z" />
</svg>
