<?xml version="1.0" standalone="no"?>
<!DOCTYPE svg PUBLIC "-//W3C//DTD SVG 1.1//EN" "http://www.w3.org/Graphics/SVG/1.1/DTD/svg11.dtd" >
<svg xmlns="http://www.w3.org/2000/svg" xmlns:xlink="http://www.w3.org/1999/xlink" version="1.1" viewBox="-10 0 1010 1000">
   <path fill="currentColor"
d="M773 477l-34 -16c13 -28 30 -70 39 -97l42 20c-17 34 -34 69 -47 93zM540 382l37 -14c15 29 33 68 41 93l-39 18c-7 -26 -24 -66 -39 -97zM504 351v140h146v-140h-146zM863 491v-140h-162v140h162zM958 701v59h-562v-59h248v-61h-199v-52h199v-51h-195v-232h195v-52h-242
v-56h242v-59c-68 6 -137 11 -202 14c-1 -16 -8 -38 -14 -52c154 -8 341 -26 444 -50l40 51c-57 13 -128 23 -205 31v65h244v56h-244v52h212v232h-212v51h218v52h-218v61h251zM133 285v247h65v-247h-65zM315 532v-247h-71v247h71zM390 864l-54 17c-2 -16 -4 -33 -8 -52
c-96 24 -193 46 -266 64l-9 -69c39 -7 88 -17 141 -29v-200h-61v53h-54v-426h114v-174h55v174h121v373h-121v188l68 -15c-7 -34 -15 -69 -24 -99l51 -15c19 66 39 153 47 210zM407 958l-47 -41c52 -30 83 -88 99 -147l51 21c-16 65 -46 129 -103 167zM557 799l53 -8
c14 47 26 110 28 147l-57 12c-1 -38 -12 -102 -24 -151zM674 800l50 -17c27 45 54 106 65 144l-52 21c-11 -39 -37 -102 -63 -148zM800 796l51 -27c42 48 92 116 114 159l-53 31c-22 -44 -70 -113 -112 -163z" />
</svg>
