<?xml version="1.0" standalone="no"?>
<!DOCTYPE svg PUBLIC "-//W3C//DTD SVG 1.1//EN" "http://www.w3.org/Graphics/SVG/1.1/DTD/svg11.dtd" >
<svg xmlns="http://www.w3.org/2000/svg" xmlns:xlink="http://www.w3.org/1999/xlink" version="1.1" viewBox="-10 0 1010 1000">
   <path fill="currentColor"
d="M698 258v-62h-145v62h145zM698 371v-64h-145v64h145zM698 485v-65h-145v65h145zM487 560v-299c-14 18 -28 33 -43 48c-12 -11 -38 -30 -53 -39c61 -55 115 -137 147 -219l64 16c-11 25 -24 51 -36 76h130c-8 -24 -20 -49 -31 -70l58 -17c16 27 32 61 40 87h153v53h-153
v62h134v49h-134v64h134v49h-134v65h161v54h-371v21h-66zM90 405v-3c-1 1 -1 2 -1 3c-3 -12 -13 -38 -21 -51c20 -2 42 -16 70 -37c16 -10 51 -39 90 -75c-103 9 -126 13 -140 19c-2 -12 -13 -38 -21 -50c14 -3 27 -13 43 -29c16 -14 68 -77 98 -136l62 24
c-29 46 -65 91 -100 127l112 -8c18 -19 35 -38 51 -58l55 31c-59 63 -126 125 -194 176l161 -15c-8 -20 -18 -39 -27 -55l47 -17c25 41 49 96 57 131l-50 20c-2 -9 -4 -21 -8 -33c-232 24 -263 28 -284 36zM324 415l50 -12c23 40 46 91 54 125l-52 14
c-8 -34 -31 -87 -52 -127zM293 558l-56 8c0 -37 -9 -94 -22 -138l53 -8c14 45 24 100 25 138zM111 422l56 8c-9 57 -27 116 -48 154c-12 -5 -40 -12 -54 -15c23 -38 37 -94 46 -147zM536 785v77c81 -1 166 -2 248 -3c-20 -19 -40 -36 -59 -51l48 -23h-237zM228 734h236v-72
h-236v72zM774 662h-238v72h238v-72zM947 937l-60 32c-12 -16 -28 -34 -48 -55c-269 6 -555 12 -752 14l-4 -64c103 0 236 -1 381 -2v-77h-304v-173h304v-48h72v48h310v173h-60c59 45 128 109 161 152z" />
</svg>
