<?xml version="1.0" standalone="no"?>
<!DOCTYPE svg PUBLIC "-//W3C//DTD SVG 1.1//EN" "http://www.w3.org/Graphics/SVG/1.1/DTD/svg11.dtd" >
<svg xmlns="http://www.w3.org/2000/svg" xmlns:xlink="http://www.w3.org/1999/xlink" version="1.1" viewBox="-10 0 1010 1000">
   <path fill="currentColor"
d="M226 332v52h574v-52h-574zM759 149h-533v47h533v-47zM465 599v-68h-393v-53h393v-47h-312v-329h269c10 -22 20 -45 25 -62l81 11c-10 19 -21 35 -29 51h332v141h-605v42h646v146h-336v47h395v53h-396v68h-70zM139 750h101v-78h-101v78zM397 672h-97v78h97v-78zM368 819
l48 -20c31 40 63 96 76 134l-52 23c-4 -13 -10 -26 -17 -42c-134 9 -268 17 -367 22l-4 -58c51 -2 116 -4 188 -8v-73h-158v-172h158v-60h60v60h155v172h-155v72l96 -5c-9 -16 -19 -32 -28 -45zM746 869l103 -5c-12 -16 -24 -31 -35 -44l42 -23h-110v72zM583 750h103v-78
h-103v78zM849 672h-103v78h103v-78zM958 928l-52 29c-6 -13 -14 -28 -23 -43c-138 8 -277 16 -378 22l-6 -58l187 -8v-73h-160v-172h160v-59h60v59h162v172h-43c37 40 74 94 93 131z" />
</svg>
