<?xml version="1.0" standalone="no"?>
<!DOCTYPE svg PUBLIC "-//W3C//DTD SVG 1.1//EN" "http://www.w3.org/Graphics/SVG/1.1/DTD/svg11.dtd" >
<svg xmlns="http://www.w3.org/2000/svg" xmlns:xlink="http://www.w3.org/1999/xlink" version="1.1" viewBox="-10 0 1010 1000">
   <path fill="currentColor"
d="M583 264h-177c-42 39 -91 73 -145 101h203v-53h73v53h197c-58 -28 -110 -63 -151 -101zM731 471v-60h-194v60h194zM537 566l162 -1c-23 -11 -45 -21 -67 -28l30 -20h-125v49zM272 471h192v-60h-192v60zM204 517v-126c-37 17 -77 31 -118 44c-8 -15 -29 -45 -43 -58
c98 -26 188 -62 259 -113h-245v-56h312c21 -21 39 -44 55 -69h-305v-56h761v56h-376c-13 25 -28 47 -46 69h486v56h-263c75 49 178 87 281 106c-17 14 -38 40 -49 58c-37 -9 -75 -21 -111 -35v124h-88c73 30 153 73 198 106l-50 36c-20 -14 -47 -32 -77 -49
c-240 6 -491 10 -661 12l-5 -56c91 1 213 1 345 1v-50h-260zM146 783h99v-61h-99v61zM402 722h-100v61h100v-61zM348 850l52 -17c33 30 73 74 91 104l-54 18c-6 -9 -14 -21 -24 -34c-132 6 -263 11 -360 15l-4 -51c54 -1 122 -2 196 -3v-52h-156v-154h156v-49h57v49h159v154
h-159v51l75 -2c-10 -11 -20 -21 -29 -29zM744 830v51l77 -2c-10 -11 -22 -21 -33 -29l51 -20h-95zM587 783h99v-61h-99v61zM846 722h-102v61h102v-61zM905 830h-62c39 30 86 75 109 107l-56 22c-8 -11 -19 -24 -32 -38c-131 6 -263 11 -361 15l-7 -51c52 -1 117 -2 190 -3
v-52h-156v-155h156v-48h58v48h161v155z" />
</svg>
