<?xml version="1.0" standalone="no"?>
<!DOCTYPE svg PUBLIC "-//W3C//DTD SVG 1.1//EN" "http://www.w3.org/Graphics/SVG/1.1/DTD/svg11.dtd" >
<svg xmlns="http://www.w3.org/2000/svg" xmlns:xlink="http://www.w3.org/1999/xlink" version="1.1" viewBox="-10 0 1010 1000">
   <path fill="currentColor"
d="M740 362l39 -41c56 43 134 109 179 155l-42 48c-39 -43 -118 -114 -176 -162zM929 287l-51 40c-8 -13 -17 -27 -28 -43c-285 21 -318 26 -340 36c-4 -17 -13 -55 -20 -75c13 -2 27 -17 43 -37c17 -20 71 -94 106 -169l64 27c-35 61 -75 122 -115 171l221 -15
c-23 -35 -49 -70 -71 -99l48 -34c48 62 111 148 143 198zM611 325l55 26c-50 63 -119 135 -174 182c-11 -12 -34 -36 -46 -48c56 -42 121 -103 165 -160zM133 280v506l52 -11v-495h-52zM281 280h-54v487l54 -11v-476zM377 735v-455h-54v467zM462 717l5 65
c-147 34 -304 68 -413 92l-11 -70l39 -8v-585h101c18 -49 37 -119 48 -168l69 15c-17 52 -35 108 -51 153h180v513zM805 603h-185c22 51 51 97 87 136c40 -38 74 -83 98 -136zM848 540l41 19c-30 92 -77 166 -137 224c60 51 133 89 215 110c-15 14 -31 41 -41 60
c-86 -26 -161 -69 -223 -128c-69 55 -152 93 -237 117c-6 -19 -19 -44 -32 -60c81 -19 160 -53 226 -103c-32 -38 -60 -80 -82 -128c-27 36 -55 69 -82 95c-10 -12 -34 -36 -47 -47c68 -61 136 -152 177 -245l58 20c-11 23 -23 47 -35 69h188z" />
</svg>
