<?xml version="1.0" standalone="no"?>
<!DOCTYPE svg PUBLIC "-//W3C//DTD SVG 1.1//EN" "http://www.w3.org/Graphics/SVG/1.1/DTD/svg11.dtd" >
<svg xmlns="http://www.w3.org/2000/svg" xmlns:xlink="http://www.w3.org/1999/xlink" version="1.1" viewBox="-10 0 1010 1000">
   <path fill="currentColor"
d="M941 107v70h-256v-70h256zM202 43l66 26c-48 79 -125 170 -195 228c-7 -14 -26 -42 -38 -55c63 -51 132 -133 167 -199zM582 779v-233h63v351h-63v-58l-282 49v-32h-1v-310h63v265c24 -3 51 -7 79 -11v-322h-160v-71h160v-171h-65c-16 34 -33 65 -49 91
c-11 -13 -33 -34 -49 -46c-18 39 -41 79 -65 118v558h-67v-460c-25 32 -49 61 -74 87c-8 -15 -29 -49 -43 -64c73 -70 148 -175 194 -277l60 21c41 -59 74 -143 94 -227l58 22c-9 36 -19 72 -31 106h237v71h-137v171h152v71h-152v313zM957 331v70h-102v466
c0 40 -9 57 -35 69c-28 11 -70 12 -141 11c-3 -18 -14 -45 -23 -64c51 2 96 2 109 1c15 -1 19 -5 19 -18v-465h-114v-70h287z" />
</svg>
