<?xml version="1.0" standalone="no"?>
<!DOCTYPE svg PUBLIC "-//W3C//DTD SVG 1.1//EN" "http://www.w3.org/Graphics/SVG/1.1/DTD/svg11.dtd" >
<svg xmlns="http://www.w3.org/2000/svg" xmlns:xlink="http://www.w3.org/1999/xlink" version="1.1" viewBox="-10 0 1010 1000">
   <path fill="currentColor"
d="M314 175l-53 45c-19 -36 -61 -89 -99 -128l50 -40c40 37 82 87 102 123zM422 643l-43 57c-21 -31 -71 -91 -111 -138v395h-70v-373c-40 46 -81 87 -122 119c-7 -18 -28 -51 -41 -64c105 -79 218 -216 282 -350h-262v-68h298l14 -3l40 28c-32 83 -79 166 -132 241
c11 10 22 23 36 37c28 -31 59 -70 77 -98l49 40c-30 31 -63 67 -92 93c32 36 65 70 77 84zM834 873h32c9 0 17 -2 23 -7c6 -6 9 -15 12 -38c1 -22 3 -75 3 -142c16 14 38 26 58 31c0 57 -4 131 -9 156c-5 29 -15 44 -28 55c-15 10 -35 13 -56 13h-53c-20 0 -44 -5 -59 -19
c-17 -14 -23 -32 -23 -117v-634h-177v249c0 164 -21 389 -163 537c-12 -14 -40 -39 -57 -49c135 -138 148 -335 148 -489v-319h322v711c0 33 2 52 8 56c5 4 11 6 19 6z" />
</svg>
