<?xml version="1.0" standalone="no"?>
<!DOCTYPE svg PUBLIC "-//W3C//DTD SVG 1.1//EN" "http://www.w3.org/Graphics/SVG/1.1/DTD/svg11.dtd" >
<svg xmlns="http://www.w3.org/2000/svg" xmlns:xlink="http://www.w3.org/1999/xlink" version="1.1" viewBox="-10 0 1010 1000">
   <path fill="currentColor"
d="M289 167l-56 40c-17 -35 -51 -91 -81 -132l54 -34c30 40 65 93 83 126zM354 411l46 42c-31 32 -63 66 -91 92c29 35 57 70 68 84l-43 58c-18 -29 -56 -83 -90 -128v397h-68v-396c-35 41 -72 77 -106 107c-6 -21 -23 -57 -35 -71c91 -69 188 -189 244 -308h-219v-68h254
l13 -3l38 30c-29 78 -72 155 -121 226c9 8 21 21 33 36c27 -31 58 -71 77 -98zM472 539h141v-160h-113c-8 55 -19 111 -28 160zM686 169v140h130v-140h-130zM686 539h248s-1 21 -2 31c-15 165 -27 234 -53 260c-15 17 -31 23 -54 25c-21 2 -59 2 -100 0
c-1 -21 -8 -49 -17 -68c36 4 69 4 82 4c15 0 23 -1 31 -9c14 -15 25 -60 37 -173h-172v346h-73v-346h-223c18 -79 40 -204 52 -300h171v-140h-210v-70h485v280h-202v160z" />
</svg>
