<?xml version="1.0" standalone="no"?>
<!DOCTYPE svg PUBLIC "-//W3C//DTD SVG 1.1//EN" "http://www.w3.org/Graphics/SVG/1.1/DTD/svg11.dtd" >
<svg xmlns="http://www.w3.org/2000/svg" xmlns:xlink="http://www.w3.org/1999/xlink" version="1.1" viewBox="-10 0 1010 1000">
   <path fill="currentColor"
d="M243 171l-52 35c-13 -35 -44 -90 -72 -128l51 -33c30 39 60 90 73 126zM339 606l-41 62c-16 -27 -47 -75 -74 -118v406h-60v-398c-32 41 -66 79 -98 108c-5 -21 -20 -60 -29 -73c82 -68 166 -188 215 -310h-199v-68h229l12 -3l35 28c-23 78 -58 154 -99 221
c7 9 14 20 24 32c23 -30 48 -69 62 -98l46 37c-26 34 -54 71 -79 100c25 31 47 62 56 74zM579 798l78 -22l11 62c-116 36 -241 72 -332 99l-26 -65c20 -5 43 -11 67 -18v-584h63v567l75 -20v-763h64v308h88v65h-88v371zM785 860h77c22 0 25 -34 28 -163c17 14 42 26 62 31
c-6 144 -21 195 -85 195h-91c-67 0 -85 -23 -85 -108v-749h67v332c51 -45 106 -99 142 -144l50 49c-58 58 -130 124 -192 172v341c0 37 5 44 27 44z" />
</svg>
