<?xml version="1.0" standalone="no"?>
<!DOCTYPE svg PUBLIC "-//W3C//DTD SVG 1.1//EN" "http://www.w3.org/Graphics/SVG/1.1/DTD/svg11.dtd" >
<svg xmlns="http://www.w3.org/2000/svg" xmlns:xlink="http://www.w3.org/1999/xlink" version="1.1" viewBox="-10 0 1010 1000">
   <path fill="currentColor"
d="M269 167l-55 40c-16 -35 -50 -91 -78 -132l51 -34c30 40 65 92 82 126zM372 624l-41 61c-18 -30 -57 -85 -91 -130v401h-67v-387c-35 43 -72 81 -106 112c-7 -19 -24 -57 -35 -70c89 -73 186 -199 241 -323h-214v-68h248l12 -3l38 30c-28 78 -69 155 -115 226
c9 10 20 21 30 34c27 -29 58 -70 76 -97l46 41c-31 32 -62 67 -90 92c29 34 57 68 68 81zM854 157h-355v143h355v-143zM923 367h-424v64c0 159 -17 376 -138 517c-11 -13 -41 -32 -57 -39c115 -135 127 -330 127 -478v-341h492v277zM695 878h153c39 0 45 -22 50 -140
c16 13 44 24 65 28c-10 140 -30 178 -110 178h-164c-89 0 -114 -23 -114 -108v-432h69v210c90 -42 184 -94 239 -142l55 52c-78 56 -190 111 -294 155v157c0 35 8 42 51 42z" />
</svg>
