<?xml version="1.0" standalone="no"?>
<!DOCTYPE svg PUBLIC "-//W3C//DTD SVG 1.1//EN" "http://www.w3.org/Graphics/SVG/1.1/DTD/svg11.dtd" >
<svg xmlns="http://www.w3.org/2000/svg" xmlns:xlink="http://www.w3.org/1999/xlink" version="1.1" viewBox="-10 0 1010 1000">
   <path fill="currentColor"
d="M837 373v-206h-217v206h217zM908 105v330h-356v-330h356zM418 197h-159c-17 32 -36 63 -53 88c38 15 77 30 114 48c41 -37 74 -82 98 -136zM477 418l-48 52c-26 -19 -62 -41 -103 -63c-69 52 -150 84 -237 106c-7 -17 -22 -42 -33 -54c75 -16 147 -43 208 -83
c-51 -25 -105 -46 -155 -63c24 -32 50 -73 75 -116h-123v-61h156c16 -31 31 -64 42 -93l70 13c-11 25 -23 53 -37 80h157l13 -3l40 15c-25 89 -68 160 -123 214c39 19 72 39 98 56zM817 638l49 47c-44 35 -99 73 -146 101c68 44 151 74 245 91c-15 16 -32 47 -41 67
c-197 -43 -342 -144 -425 -305c-42 33 -94 63 -150 89v136l225 -43c-1 18 0 45 2 60c-255 53 -288 62 -310 74c-6 -16 -21 -46 -32 -61c18 -7 44 -22 44 -57v-79c-63 25 -128 44 -189 57c-9 -18 -26 -44 -38 -59c135 -24 291 -77 389 -144h-384v-63h425
c-9 -24 -22 -50 -35 -72l68 -13c17 25 35 57 46 85h384v63h-390c29 54 68 100 116 139c50 -31 110 -78 147 -113z" />
</svg>
