<?xml version="1.0" standalone="no"?>
<!DOCTYPE svg PUBLIC "-//W3C//DTD SVG 1.1//EN" "http://www.w3.org/Graphics/SVG/1.1/DTD/svg11.dtd" >
<svg xmlns="http://www.w3.org/2000/svg" xmlns:xlink="http://www.w3.org/1999/xlink" version="1.1" viewBox="-10 0 1010 1000">
   <path fill="currentColor"
d="M921 177l-57 34c-17 -36 -61 -88 -102 -124l53 -32c42 35 87 86 106 122zM287 166l-55 40c-16 -35 -51 -91 -79 -131l52 -34c30 40 65 92 82 125zM397 633l-41 60c-20 -33 -63 -91 -99 -140v403h-67v-401c-40 51 -81 97 -122 132c-5 -20 -23 -57 -35 -71
c91 -73 190 -202 247 -328h-218v-68h252l13 -3l38 29c-27 74 -65 147 -108 215v10c9 10 21 22 34 37c27 -30 58 -70 77 -98l46 41c-30 32 -63 68 -91 94c32 36 62 73 74 88zM660 579h-94c-6 111 -32 237 -124 330c-11 -12 -34 -32 -51 -41c79 -84 102 -194 108 -289h-87v-69
h89v-155h67v155h92v69zM869 360l59 14c-31 130 -77 249 -139 348c22 91 53 149 92 158c17 4 30 -56 37 -149c14 15 38 33 55 42c-17 154 -63 202 -122 171c-48 -15 -84 -70 -111 -152c-56 69 -122 127 -198 167c-9 -18 -31 -43 -47 -56c90 -41 162 -108 222 -193
c-24 -111 -40 -256 -50 -415h-272v-69h269c-3 -60 -6 -121 -8 -182h71c1 61 3 122 6 182h222v69h-220c7 124 18 238 34 332c43 -81 77 -172 100 -267z" />
</svg>
