<?xml version="1.0" standalone="no"?>
<!DOCTYPE svg PUBLIC "-//W3C//DTD SVG 1.1//EN" "http://www.w3.org/Graphics/SVG/1.1/DTD/svg11.dtd" >
<svg xmlns="http://www.w3.org/2000/svg" xmlns:xlink="http://www.w3.org/1999/xlink" version="1.1" viewBox="-10 0 1010 1000">
   <path fill="currentColor"
d="M896 82v319h-449v-57h380v-75h-350v-57h350v-73h-373v-57h442zM284 167l-55 40c-16 -35 -51 -92 -79 -132l53 -34c29 40 64 92 81 126zM353 410l46 41c-30 33 -63 68 -90 93c31 36 62 73 74 88l-41 60c-20 -32 -63 -91 -99 -138v402h-68v-385c-36 45 -74 84 -109 115
c-7 -19 -24 -57 -36 -70c91 -74 190 -202 245 -328h-226v-68h260l13 -3l37 30c-27 78 -68 156 -114 227c9 10 20 21 31 34c28 -29 59 -70 77 -98zM795 646h-206c22 50 54 93 95 128c46 -34 83 -77 111 -128zM885 618v-9c-30 87 -81 155 -145 208c63 38 138 64 226 79
c-15 15 -34 42 -43 61c-95 -20 -175 -52 -240 -99c-77 48 -168 79 -265 99c-7 -19 -21 -46 -34 -62c88 -15 173 -42 244 -83c-43 -43 -77 -93 -103 -153l51 -13h-90v-58h343l14 -3l42 17v-82h-401v98h-65v-156h533v156h-67z" />
</svg>
