<?xml version="1.0" standalone="no"?>
<!DOCTYPE svg PUBLIC "-//W3C//DTD SVG 1.1//EN" "http://www.w3.org/Graphics/SVG/1.1/DTD/svg11.dtd" >
<svg xmlns="http://www.w3.org/2000/svg" xmlns:xlink="http://www.w3.org/1999/xlink" version="1.1" viewBox="-10 0 1010 1000">
   <path fill="currentColor"
d="M269 166l-52 41c-14 -35 -47 -91 -73 -132l49 -34c28 39 61 91 76 125zM339 410l44 43c-28 30 -60 60 -85 84c31 38 64 80 75 95l-39 60c-18 -31 -58 -91 -92 -138v402h-63v-394c-37 49 -75 91 -113 125c-7 -20 -23 -58 -34 -71c89 -73 185 -202 240 -328h-221v-68h254
l11 -3l37 31c-28 77 -66 153 -110 223c7 8 15 18 24 28c25 -26 55 -64 72 -89zM508 730h300v-77h-300v77zM808 525h-300v73h300v-73zM879 468v399c0 35 -8 53 -33 63s-66 10 -130 10c-3 -17 -13 -41 -21 -58c45 1 86 1 97 0c13 -1 16 -5 16 -16v-80h-300v170h-69v-488h440z
M954 212h-303c-45 50 -94 98 -142 137l294 -16c-24 -28 -50 -55 -73 -79l54 -35c59 56 132 134 167 185l-58 41c-10 -15 -24 -34 -40 -54c-380 26 -422 30 -451 41c-3 -15 -12 -48 -20 -66c17 -2 36 -15 59 -33c20 -15 74 -64 123 -121h-181v-65h239
c-13 -29 -29 -61 -41 -86l65 -24c19 35 40 77 55 110h253v65z" />
</svg>
