<?xml version="1.0" standalone="no"?>
<!DOCTYPE svg PUBLIC "-//W3C//DTD SVG 1.1//EN" "http://www.w3.org/Graphics/SVG/1.1/DTD/svg11.dtd" >
<svg xmlns="http://www.w3.org/2000/svg" xmlns:xlink="http://www.w3.org/1999/xlink" version="1.1" viewBox="-10 0 1010 1000">
   <path fill="currentColor"
d="M404 249h181c9 -27 19 -59 26 -87h-240v-63h563v63h-250c-11 30 -23 61 -34 87h258v262c0 30 -5 48 -25 59c-18 11 -46 11 -86 11c-2 -17 -12 -42 -19 -60c29 1 50 1 58 0c9 0 11 -2 11 -11v-203h-86v253h-54v-253h-90v258h-54v-258h-97v277h-62v-335zM261 167l-52 40
c-15 -35 -49 -91 -77 -132l50 -34c29 40 63 92 79 126zM359 624l-40 60c-17 -30 -54 -85 -86 -129v401h-64v-396c-34 43 -70 81 -104 112c-7 -21 -22 -57 -34 -71c87 -70 181 -193 235 -313h-207v-68h241l11 -3l36 30c-27 78 -67 156 -113 225c7 8 16 19 25 30
c25 -29 52 -67 68 -94l44 41c-27 31 -56 65 -81 90c29 35 58 72 69 85zM944 709h-256c48 102 140 163 280 186c-15 15 -32 42 -40 63c-141 -32 -234 -100 -288 -212c-38 107 -115 176 -285 216c-6 -18 -22 -45 -35 -59c164 -34 232 -96 263 -194h-217v-64h230
c4 -21 6 -44 8 -68h68c-2 24 -5 47 -8 68h280v64z" />
</svg>
