<?xml version="1.0" standalone="no"?>
<!DOCTYPE svg PUBLIC "-//W3C//DTD SVG 1.1//EN" "http://www.w3.org/Graphics/SVG/1.1/DTD/svg11.dtd" >
<svg xmlns="http://www.w3.org/2000/svg" xmlns:xlink="http://www.w3.org/1999/xlink" version="1.1" viewBox="-10 0 1010 1000">
   <path fill="currentColor"
d="M472 218v99h-68v-160h240c-7 -31 -20 -71 -35 -101l64 -19c20 38 39 88 43 120h223v160h-71v-99h-396zM541 631v93h268v-93h-268zM541 486v92h268v-92h-268zM471 780v-350h410v350h-410zM491 301h368v59h-368v-59zM274 167l-56 40c-16 -35 -51 -91 -79 -131l53 -35
c30 40 64 92 82 126zM355 410l47 41c-31 33 -64 68 -92 94c30 36 59 72 71 86l-42 60c-19 -31 -60 -89 -95 -136v400h-68v-384c-36 45 -74 84 -109 115c-7 -20 -24 -57 -36 -70c91 -74 190 -202 246 -328h-218v-68h253l12 -3l39 30c-29 78 -70 156 -116 226
c7 10 18 22 30 36c27 -31 60 -71 78 -99zM390 861h559v66h-559v-66z" />
</svg>
