<?xml version="1.0" standalone="no"?>
<!DOCTYPE svg PUBLIC "-//W3C//DTD SVG 1.1//EN" "http://www.w3.org/Graphics/SVG/1.1/DTD/svg11.dtd" >
<svg xmlns="http://www.w3.org/2000/svg" xmlns:xlink="http://www.w3.org/1999/xlink" version="1.1" viewBox="-10 0 1010 1000">
   <path fill="currentColor"
d="M477 250h147v-82h-147v82zM846 168h-155v82h155v-82zM954 366v59h-576v-59h246v-60h-203v-193h203v-66h67v66h213v193h-213v60h263zM889 785h-66v-251h-330v251h-64v-309h460v309zM277 167l-55 40c-16 -35 -51 -91 -80 -131l53 -34c30 40 65 92 82 125zM377 616l-41 59
c-19 -29 -61 -84 -96 -128v409h-68v-381c-34 42 -71 81 -105 111c-7 -20 -24 -57 -36 -71c91 -73 189 -201 244 -327h-225v-68h259l12 -3l39 30c-28 78 -68 155 -114 225c10 10 21 23 35 36c22 -31 45 -70 59 -98l47 41c-25 31 -50 66 -74 94c28 30 54 59 64 71zM687 588
v108c0 105 -56 203 -307 258c-5 -15 -22 -43 -33 -54c235 -49 278 -125 278 -206v-106h62zM680 837l33 -50c85 28 190 76 242 114l-36 57c-51 -40 -155 -91 -239 -121z" />
</svg>
