<?xml version="1.0" standalone="no"?>
<!DOCTYPE svg PUBLIC "-//W3C//DTD SVG 1.1//EN" "http://www.w3.org/Graphics/SVG/1.1/DTD/svg11.dtd" >
<svg xmlns="http://www.w3.org/2000/svg" xmlns:xlink="http://www.w3.org/1999/xlink" version="1.1" viewBox="-10 0 1010 1000">
   <path fill="currentColor"
d="M947 277l-31 51c-29 -21 -77 -48 -124 -71c17 87 46 149 97 155c10 1 16 -23 21 -69c12 14 26 30 38 39c-11 77 -33 105 -72 95c-109 -18 -140 -157 -154 -319h-361v-68h413c2 35 4 70 8 103l23 9c25 -27 57 -65 75 -91l52 33c-26 28 -54 56 -80 79c37 18 73 37 95 54z
M254 175l-57 32c-15 -34 -49 -89 -77 -129l53 -28c31 39 66 90 81 125zM333 626l-40 49c-13 -27 -47 -79 -75 -123v400h-63v-376c-31 46 -63 87 -94 121c-7 -17 -27 -48 -37 -60c80 -81 166 -218 214 -350h-184v-66h213l13 -3l36 24c-24 77 -57 156 -96 228
c8 10 18 23 28 37c21 -30 43 -68 57 -96l45 33c-26 35 -52 73 -74 101c24 34 48 67 57 81zM956 708l-32 51c-32 -24 -86 -55 -139 -79c15 117 45 199 109 206c12 2 19 -34 23 -94c12 16 27 33 40 42c-11 97 -32 129 -76 119c-132 -19 -156 -202 -165 -421h-78v420h-61v-420
h-94c-6 143 -35 296 -159 417c-9 -15 -32 -39 -46 -50c112 -108 139 -242 145 -367h-78v-68h79v-131c-27 13 -55 25 -81 37c-4 -15 -15 -37 -23 -52c73 -33 152 -81 197 -128l50 55c-24 19 -53 38 -83 56v163h93v-265h61v265h136c0 54 2 105 5 153c9 3 18 7 26 11
c27 -27 59 -64 77 -89l55 33c-27 27 -57 55 -84 78c40 19 79 40 103 58z" />
</svg>
