<?xml version="1.0" standalone="no"?>
<!DOCTYPE svg PUBLIC "-//W3C//DTD SVG 1.1//EN" "http://www.w3.org/Graphics/SVG/1.1/DTD/svg11.dtd" >
<svg xmlns="http://www.w3.org/2000/svg" xmlns:xlink="http://www.w3.org/1999/xlink" version="1.1" viewBox="-10 0 1010 1000">
   <path fill="currentColor"
d="M274 167l-54 40c-15 -35 -50 -91 -78 -132l51 -34c30 40 65 92 81 126zM349 410l45 41c-29 33 -63 68 -89 94c30 36 61 73 72 87l-40 60c-18 -32 -62 -91 -98 -139v403h-65v-387c-35 46 -73 85 -108 117c-7 -20 -24 -57 -35 -70c90 -73 186 -202 241 -328h-221v-68h255
l12 -3l37 30c-28 78 -68 156 -113 227c9 10 20 22 31 35c26 -30 58 -70 76 -99zM820 737h-132v197h-62v-197h-127v-53h92c-13 -35 -47 -87 -78 -125l48 -19c32 37 66 89 81 124l-46 20h75c29 -42 61 -101 80 -142l55 22c-24 40 -50 84 -76 120h90v53zM921 467v415
c0 34 -6 51 -30 63c-23 11 -60 12 -114 12c-3 -19 -11 -44 -20 -63c38 2 70 2 81 1c11 0 15 -3 15 -14v-356h-381v432h-67v-490h516zM798 357v-94h-270v94h270zM868 209v202h-407v-202h407zM386 88h552v65h-552v-65z" />
</svg>
