<?xml version="1.0" standalone="no"?>
<!DOCTYPE svg PUBLIC "-//W3C//DTD SVG 1.1//EN" "http://www.w3.org/Graphics/SVG/1.1/DTD/svg11.dtd" >
<svg xmlns="http://www.w3.org/2000/svg" xmlns:xlink="http://www.w3.org/1999/xlink" version="1.1" viewBox="-10 0 1010 1000">
   <path fill="currentColor"
d="M943 132v61h-590v-61h248c-10 -23 -23 -50 -35 -71l60 -17c16 26 37 63 45 88h272zM97 83l51 -32c44 43 90 102 110 143l-56 37c-18 -43 -63 -105 -105 -148zM333 636l-40 49c-13 -28 -47 -79 -75 -123v395h-63v-370c-31 46 -63 87 -94 120c-7 -17 -27 -49 -37 -59
c81 -82 166 -218 214 -351h-184v-66h214l12 -3l36 25c-24 77 -57 156 -96 227c8 10 18 24 28 38c21 -30 43 -69 57 -96l45 33c-25 34 -52 72 -74 100c25 34 49 67 57 81zM499 418v103h294v-103h-294zM866 611l53 37c-38 35 -86 70 -127 97c47 56 104 100 172 127
c-17 13 -36 39 -46 57c-136 -63 -231 -187 -284 -344c-33 45 -76 85 -125 120v152l172 -35c-1 18 -1 44 1 58c-185 44 -212 55 -229 67c-4 -15 -17 -46 -27 -60c11 -6 21 -21 21 -57v-85c-33 18 -69 34 -105 49c-10 -15 -32 -42 -46 -54c104 -36 198 -92 259 -158h-116v-199
c-21 14 -41 28 -62 39l-45 -54c69 -32 141 -89 191 -142l59 20c-31 37 -69 78 -112 112h365c-42 -34 -91 -70 -133 -98l35 -45c74 49 167 116 211 160l-36 51c-15 -15 -34 -33 -57 -51v207h-155c16 43 36 83 61 121c37 -29 78 -65 105 -92z" />
</svg>
