<?xml version="1.0" standalone="no"?>
<!DOCTYPE svg PUBLIC "-//W3C//DTD SVG 1.1//EN" "http://www.w3.org/Graphics/SVG/1.1/DTD/svg11.dtd" >
<svg xmlns="http://www.w3.org/2000/svg" xmlns:xlink="http://www.w3.org/1999/xlink" version="1.1" viewBox="-10 0 1010 1000">
   <path fill="currentColor"
d="M940 113v58h-880v-58h414c-9 -21 -23 -44 -35 -62l73 -13c17 21 34 51 45 75h383zM375 378h-171c15 20 29 45 35 63h105c10 -20 22 -44 31 -63zM804 651l57 38c-51 38 -118 77 -175 108c75 47 169 79 276 96c-15 13 -32 40 -40 58c-197 -37 -346 -125 -429 -268
c-48 26 -104 51 -165 71v114l226 -39c0 18 3 43 6 57c-261 50 -293 57 -315 69c-6 -14 -21 -41 -33 -55c18 -6 45 -19 45 -52v-71c-56 17 -115 30 -173 43c-9 -15 -29 -39 -43 -52c184 -35 364 -90 456 -160l27 12c-7 -14 -22 -31 -34 -41h-167v61h-67v-61h-191v-45h191v-49
h-163v-44h87c-7 -18 -18 -37 -30 -53l40 -10h-136v-45h202v-49h-149v-44h149v-44h67v44h153v44h-153v49h198v45h-116l32 8c-12 21 -25 39 -36 55h77v44h-155v49h173v39c51 -25 84 -58 107 -100c-29 -15 -57 -29 -83 -41l33 -41c22 9 46 20 70 31c7 -25 13 -54 16 -86h-107
v-57h112c2 -25 2 -52 3 -80h62c-1 28 -2 55 -3 80h147c-1 197 -3 298 42 298c17 0 20 -48 22 -117c13 12 31 27 44 34c-6 101 -19 140 -70 140c-93 0 -100 -104 -101 -298h-89c-5 43 -12 81 -24 116c36 19 66 40 88 57l-35 48c-18 -16 -45 -35 -74 -53
c-27 50 -67 88 -127 118l35 15c-7 5 -13 10 -20 15c23 41 54 78 92 109c58 -32 126 -77 168 -110z" />
</svg>
