<?xml version="1.0" standalone="no"?>
<!DOCTYPE svg PUBLIC "-//W3C//DTD SVG 1.1//EN" "http://www.w3.org/Graphics/SVG/1.1/DTD/svg11.dtd" >
<svg xmlns="http://www.w3.org/2000/svg" xmlns:xlink="http://www.w3.org/1999/xlink" version="1.1" viewBox="-10 0 1010 1000">
   <path fill="currentColor"
d="M234 682l20 56c-60 46 -126 94 -181 133l-36 -61c49 -29 124 -78 197 -128zM74 511l49 -36c43 43 87 101 108 140l-52 40c-20 -40 -64 -101 -105 -144zM515 442h-178v428c0 40 -8 59 -35 71c-27 11 -72 11 -140 11c-3 -19 -12 -46 -20 -67c53 2 97 2 111 2
c15 -1 18 -5 18 -18v-427h-217v-64h326c2 -26 4 -56 6 -86h-257v-61h260c1 -28 2 -58 3 -85h-280v-63h349c-3 94 -8 212 -14 295h68v64zM419 650l-48 -32c32 -37 74 -102 96 -147l59 37c-34 49 -74 107 -107 142zM538 801l-42 52c-32 -38 -100 -93 -155 -131l41 -45
c55 36 123 87 156 124zM613 462v104h221v-104h-221zM613 303v102h221v-102h-221zM613 144v102h221v-102h-221zM842 886h30c9 0 18 0 22 -3c6 -4 10 -12 13 -24c2 -16 3 -48 4 -92c13 12 35 23 53 28c-1 41 -5 88 -10 104c-6 17 -16 28 -29 34c-12 6 -33 9 -48 9h-50
c-19 0 -42 -5 -55 -17c-15 -12 -20 -28 -20 -84v-213h-64c-9 166 -45 272 -189 335c-7 -16 -26 -40 -40 -52c130 -51 158 -140 166 -283h-75v-546h350v546h-83v221c0 18 1 29 6 33c4 3 10 4 19 4z" />
</svg>
