<?xml version="1.0" standalone="no"?>
<!DOCTYPE svg PUBLIC "-//W3C//DTD SVG 1.1//EN" "http://www.w3.org/Graphics/SVG/1.1/DTD/svg11.dtd" >
<svg xmlns="http://www.w3.org/2000/svg" xmlns:xlink="http://www.w3.org/1999/xlink" version="1.1" viewBox="-10 0 1010 1000">
   <path fill="currentColor"
d="M409 288l61 9c-4 38 -11 75 -19 109c31 36 62 77 77 106l-38 42c-12 -23 -34 -54 -56 -85c-14 39 -31 72 -51 100c-10 -11 -35 -31 -48 -40c45 -57 65 -145 74 -241zM142 286l60 9c-5 38 -12 75 -19 110c25 35 52 79 65 108l-42 37c-9 -21 -25 -51 -43 -80
c-18 48 -39 91 -67 126c-9 -11 -34 -31 -48 -41c54 -62 82 -159 94 -269zM489 744l-45 56c-21 -38 -75 -112 -117 -167v320h-68v-297c-50 93 -113 178 -173 230c-11 -18 -34 -42 -48 -55c82 -62 172 -187 221 -303v-287h-183v-65h183v-120h68v120h169v65h-169v319
c37 38 139 154 162 184zM612 462v106h222v-106h-222zM612 301v106h222v-106h-222zM612 142v104h222v-104h-222zM841 888h29c8 0 17 -1 21 -4c5 -3 10 -11 12 -24c2 -15 3 -49 4 -92c13 12 35 23 53 28c-2 41 -5 88 -10 104c-6 17 -16 28 -28 34s-32 9 -47 9h-48
c-19 0 -41 -5 -55 -17c-14 -11 -18 -27 -18 -83v-216h-53c-13 165 -47 274 -191 338c-8 -17 -27 -43 -42 -54c129 -52 157 -143 167 -284h-88v-545h355v545h-84v224c0 17 1 28 5 32s10 5 18 5z" />
</svg>
