<?xml version="1.0" standalone="no"?>
<!DOCTYPE svg PUBLIC "-//W3C//DTD SVG 1.1//EN" "http://www.w3.org/Graphics/SVG/1.1/DTD/svg11.dtd" >
<svg xmlns="http://www.w3.org/2000/svg" xmlns:xlink="http://www.w3.org/1999/xlink" version="1.1" viewBox="-10 0 1010 1000">
   <path fill="currentColor"
d="M332 50v295h-64v-295h64zM173 110l60 14c-31 90 -81 180 -129 240c-11 -11 -37 -29 -53 -37c50 -56 94 -137 122 -217zM409 598v-75h-205v75h205zM204 861h205v-79h-205v79zM409 728v-76h-205v76h205zM411 288l55 25c-52 60 -127 111 -210 151h217v488h-64v-31h-205v36
h-62v-445c-26 10 -53 19 -78 27c-6 -15 -22 -48 -32 -63c143 -36 300 -99 379 -188zM358 133l51 -27c50 54 106 129 129 181l-55 29c-22 -50 -75 -127 -125 -183zM635 453v96h206v-96h-206zM635 299v94h206v-94h-206zM635 145v94h206v-94h-206zM847 877h38
c15 0 19 -15 20 -127c14 11 39 21 57 26c-6 129 -21 161 -70 161h-54c-56 0 -69 -20 -69 -84v-240h-53c-12 164 -46 281 -178 347c-7 -16 -25 -41 -40 -52c117 -55 144 -155 154 -295h-81v-532h336v532h-75v240c0 21 2 24 15 24z" />
</svg>
