<?xml version="1.0" standalone="no"?>
<!DOCTYPE svg PUBLIC "-//W3C//DTD SVG 1.1//EN" "http://www.w3.org/Graphics/SVG/1.1/DTD/svg11.dtd" >
<svg xmlns="http://www.w3.org/2000/svg" xmlns:xlink="http://www.w3.org/1999/xlink" version="1.1" viewBox="-10 0 1010 1000">
   <path fill="currentColor"
d="M532 318v52h-483v-52h212v-54h-166v-49h166v-50h-194v-51h194v-70h70v70h187v51h-187v50h160v49h-160v54h201zM167 672v62h260v-62h-260zM167 568v59h260v-59h-260zM167 463v60h260v-60h-260zM497 781h-398v-364h398v364zM198 791l69 20c-40 55 -108 111 -166 147
c-14 -12 -42 -34 -60 -43c60 -32 121 -77 157 -124zM335 819l49 -35c41 29 91 75 114 106l-53 39c-22 -31 -69 -78 -110 -110zM623 464v103h212v-103h-212zM623 304v103h212v-103h-212zM623 146v101h212v-101h-212zM844 887h28c9 0 17 -1 21 -4c5 -3 9 -11 11 -23
c3 -16 3 -49 4 -92c13 11 36 22 53 27c-1 42 -4 88 -10 105c-5 16 -15 27 -27 33c-12 7 -32 10 -47 10h-47c-19 0 -41 -6 -54 -18c-15 -11 -19 -27 -19 -83v-213h-61c-11 162 -44 268 -179 330c-7 -16 -26 -41 -40 -51c120 -51 147 -140 156 -279h-74v-545h342v545h-80v221
c0 17 1 28 6 33c3 3 9 4 17 4z" />
</svg>
