<?xml version="1.0" standalone="no"?>
<!DOCTYPE svg PUBLIC "-//W3C//DTD SVG 1.1//EN" "http://www.w3.org/Graphics/SVG/1.1/DTD/svg11.dtd" >
<svg xmlns="http://www.w3.org/2000/svg" xmlns:xlink="http://www.w3.org/1999/xlink" version="1.1" viewBox="-10 0 1010 1000">
   <path fill="currentColor"
d="M302 650h89v-122h-89v122zM164 650h88v-122h-86v32c0 29 -1 59 -2 90zM329 191h-124c-15 36 -30 72 -47 104h128c15 -30 31 -69 43 -104zM302 354v118h89v-118h-89zM166 354v118h86v-118h-86zM449 295v574c0 31 -5 50 -25 61c-18 11 -46 13 -90 12
c-3 -17 -10 -45 -19 -62c30 1 55 1 64 0c9 0 12 -2 12 -12v-160h-89v219h-50v-219h-93c-9 89 -29 181 -72 250c-9 -10 -35 -27 -50 -34c65 -105 72 -252 72 -364v-184c-7 9 -15 19 -22 28c-9 -12 -36 -34 -52 -44c68 -77 120 -195 151 -317l62 15c-7 25 -14 49 -22 74h131
l10 -3l41 28c-15 45 -38 96 -60 138h101zM564 476h89c15 -39 21 -76 23 -105h-112v105zM564 208v105h113v-105h-113zM845 313v-105h-108v105h108zM845 476v-105h-109c-2 26 -8 64 -22 105h131zM944 689v68h-136v199h-66v-199h-275v-68h78c-10 -13 -25 -27 -36 -37
c52 -34 88 -74 114 -114h-122v-392h118c12 -32 26 -73 34 -102l71 13c-12 31 -25 63 -38 89h224v392h-221c-26 53 -65 107 -123 151h176v-127h66v127h136z" />
</svg>
