<?xml version="1.0" standalone="no"?>
<!DOCTYPE svg PUBLIC "-//W3C//DTD SVG 1.1//EN" "http://www.w3.org/Graphics/SVG/1.1/DTD/svg11.dtd" >
<svg xmlns="http://www.w3.org/2000/svg" xmlns:xlink="http://www.w3.org/1999/xlink" version="1.1" viewBox="-10 0 1010 1000">
   <path fill="currentColor"
d="M941 154v67h-470v-67h205c-10 -30 -24 -66 -35 -95l68 -15c16 34 34 78 45 110h187zM287 650h81v-122h-81v122zM158 650h80v-122h-78v33c0 28 -1 58 -2 89zM310 191h-116c-13 36 -27 72 -44 104h119c15 -30 29 -69 41 -104zM287 354v118h81v-118h-81zM160 354v118h78
v-118h-78zM425 295v574c0 32 -5 51 -24 62c-17 12 -44 13 -85 13c-2 -18 -10 -46 -19 -64c28 1 52 1 60 0c8 0 11 -2 11 -12v-160h-81v219h-49v-219h-85c-8 89 -27 182 -67 251c-10 -10 -36 -28 -49 -35c60 -105 66 -252 66 -364v-182c-6 9 -13 18 -19 26
c-10 -11 -36 -33 -51 -44c63 -77 111 -195 140 -317l61 15c-6 25 -13 49 -20 74h122l10 -3l40 28c-14 45 -36 96 -57 138h96zM702 446l-39 54c-16 -20 -44 -51 -72 -76c-25 57 -55 107 -91 146c-9 -12 -35 -35 -49 -46c64 -66 105 -168 126 -281l65 12c-8 36 -17 72 -28 106
c32 28 70 63 88 85zM955 643v68h-218v246h-72v-246h-211v-68h211v-92h52c-11 -13 -32 -34 -46 -44c61 -63 101 -159 122 -264l66 13c-8 39 -19 76 -33 112c43 46 94 101 121 135l-47 47c-23 -31 -62 -78 -99 -120c-22 46 -48 88 -78 121h14v92h218z" />
</svg>
