<?xml version="1.0" standalone="no"?>
<!DOCTYPE svg PUBLIC "-//W3C//DTD SVG 1.1//EN" "http://www.w3.org/Graphics/SVG/1.1/DTD/svg11.dtd" >
<svg xmlns="http://www.w3.org/2000/svg" xmlns:xlink="http://www.w3.org/1999/xlink" version="1.1" viewBox="-10 0 1010 1000">
   <path fill="currentColor"
d="M824 211v-79h-255v79h255zM824 344v-80h-255v80h255zM895 76v324h-394v-324h394zM283 657h74v-125h-74v125zM160 657h72v-125h-69v28c0 31 -1 63 -3 97zM317 189h-131c-14 37 -31 74 -50 106h126c19 -29 39 -70 55 -106zM283 353v122h74v-122h-74zM163 353v122h69v-122
h-69zM414 295v586c0 27 -5 45 -22 56c-17 10 -41 12 -78 12c-2 -17 -11 -42 -20 -58c26 1 45 1 53 1c7 -1 10 -3 10 -12v-165h-74v199h-51v-199h-77c-9 84 -28 171 -70 238c-9 -10 -34 -24 -47 -29c64 -106 70 -253 70 -364v-219c-11 16 -22 31 -33 44
c-8 -12 -29 -39 -41 -52c62 -71 109 -178 138 -290l58 14c-7 25 -14 49 -22 74h140l11 -4l40 27c-19 47 -46 98 -74 141h89zM512 731l55 -35c42 38 88 93 109 131l-59 40c-19 -39 -64 -96 -105 -136zM960 617v66h-126v194c0 39 -7 58 -35 69c-26 11 -66 12 -129 12
c-4 -20 -15 -47 -25 -67c47 2 89 2 102 1c12 0 16 -4 16 -16v-193h-319v-66h319v-85h-307v-65h493v65h-115v85h126z" />
</svg>
