<?xml version="1.0" standalone="no"?>
<!DOCTYPE svg PUBLIC "-//W3C//DTD SVG 1.1//EN" "http://www.w3.org/Graphics/SVG/1.1/DTD/svg11.dtd" >
<svg xmlns="http://www.w3.org/2000/svg" xmlns:xlink="http://www.w3.org/1999/xlink" version="1.1" viewBox="-10 0 1010 1000">
   <path fill="currentColor"
d="M273 657h66v-126h-66v126zM154 657h71v-126h-68v28c0 31 -1 63 -3 98zM299 185h-116c-15 39 -33 76 -52 110h114c18 -30 39 -72 54 -110zM157 353v121h68v-121h-68zM339 474v-121h-66v121h66zM394 295v586c0 27 -4 45 -22 56c-16 10 -39 12 -75 12
c-2 -17 -10 -42 -18 -58c24 1 43 1 51 1c7 -1 9 -3 9 -12v-165h-66v199h-48v-199h-75c-9 84 -28 171 -68 238c-9 -10 -33 -25 -46 -30c62 -105 68 -252 68 -363v-219c-11 16 -22 31 -32 44c-7 -12 -28 -39 -39 -52c60 -71 106 -178 134 -290l57 14c-7 25 -14 49 -22 74h125
l11 -4l38 27c-19 47 -45 98 -70 141h88zM511 171v276c0 146 -9 355 -73 492c-9 -14 -31 -38 -44 -47c58 -128 63 -310 63 -445v-321h1c145 -15 322 -42 418 -74l36 47c-104 34 -262 59 -401 72zM614 376v120c0 131 -13 323 -84 455c-8 -13 -31 -37 -41 -45
c65 -122 73 -292 73 -411v-172h146v-166h54v55h181v51h-181v60h150l8 -2l34 9c-6 47 -19 101 -31 131l-42 -11c6 -19 13 -47 17 -74h-284zM890 624h-102c-59 0 -75 -14 -75 -72v-47l-84 10l-4 -48l88 -10v-68h51v63l105 -12l3 46l-108 12v54c0 20 4 24 30 24h91
c20 0 24 -10 26 -71c11 9 29 16 43 20c-5 78 -19 99 -64 99zM866 884h24c8 0 15 -1 18 -3c4 -3 8 -10 10 -20c1 -13 2 -42 3 -79c10 11 28 22 41 28c-1 36 -3 76 -8 90c-4 15 -12 25 -22 31c-10 5 -26 8 -37 8h-41c-16 0 -33 -5 -43 -17c-12 -11 -16 -26 -16 -78v-137h-73
c-10 119 -36 196 -117 244c-5 -15 -20 -39 -31 -50c81 -44 98 -120 103 -250h170v200c0 16 0 25 3 29c4 3 9 4 16 4z" />
</svg>
