<?xml version="1.0" standalone="no"?>
<!DOCTYPE svg PUBLIC "-//W3C//DTD SVG 1.1//EN" "http://www.w3.org/Graphics/SVG/1.1/DTD/svg11.dtd" >
<svg xmlns="http://www.w3.org/2000/svg" xmlns:xlink="http://www.w3.org/1999/xlink" version="1.1" viewBox="-10 0 1010 1000">
   <path fill="currentColor"
d="M425 669h-243v165h243v-165zM500 607v289h-318v47h-74v-336h392zM108 527v-59h392v59h-392zM108 392v-60h392v60h-392zM361 167l-67 32h250v61h-487v-61h232c-16 -36 -49 -92 -78 -131l66 -30c33 40 67 93 84 129zM703 215v461h-73v-461h73zM833 47l73 1v803
c0 53 -13 76 -46 88c-34 14 -96 15 -180 15c-4 -21 -16 -57 -27 -80c68 3 135 2 155 2c19 -1 25 -6 25 -24v-805z" />
</svg>
