<?xml version="1.0" standalone="no"?>
<!DOCTYPE svg PUBLIC "-//W3C//DTD SVG 1.1//EN" "http://www.w3.org/Graphics/SVG/1.1/DTD/svg11.dtd" >
<svg xmlns="http://www.w3.org/2000/svg" xmlns:xlink="http://www.w3.org/1999/xlink" version="1.1" viewBox="-10 0 1010 1000">
   <path fill="currentColor"
d="M286 167l-62 36c-14 -38 -46 -94 -74 -135l58 -28c30 40 63 92 78 127zM389 212v61h-340v-61h340zM358 402h-273v-59h273v59zM358 473v59h-273v-59h273zM296 668h-142v165h142v-165zM364 606v290h-210v46h-67v-336h277zM947 495h-228c40 178 119 329 247 398
c-17 14 -39 40 -51 60c-110 -69 -183 -189 -230 -340c-32 121 -102 246 -263 344c-10 -17 -35 -42 -53 -55c200 -114 250 -271 262 -407h-222v-71h226v-33v-202h-201v-71h490v71h-216v203v32h239v71z" />
</svg>
