<?xml version="1.0" standalone="no"?>
<!DOCTYPE svg PUBLIC "-//W3C//DTD SVG 1.1//EN" "http://www.w3.org/Graphics/SVG/1.1/DTD/svg11.dtd" >
<svg xmlns="http://www.w3.org/2000/svg" xmlns:xlink="http://www.w3.org/1999/xlink" version="1.1" viewBox="-10 0 1010 1000">
   <path fill="currentColor"
d="M289 176l-65 23c-9 -36 -31 -92 -49 -136l61 -19c21 42 44 97 53 132zM304 670h-145v167h145v-167zM370 609v289h-211v46h-65v-335h276zM90 531v-59h294v59h-294zM89 396v-59h295v59h-295zM48 272v-61h361v61h-361zM710 568h134v-179h-134v179zM512 568h128v-179h-128
v179zM640 152h-128v171h128v-171zM844 323v-171h-134v171h134zM446 86h467v600h-69v-51h-134v320h-70v-320h-128v57h-66v-606z" />
</svg>
