<?xml version="1.0" standalone="no"?>
<!DOCTYPE svg PUBLIC "-//W3C//DTD SVG 1.1//EN" "http://www.w3.org/Graphics/SVG/1.1/DTD/svg11.dtd" >
<svg xmlns="http://www.w3.org/2000/svg" xmlns:xlink="http://www.w3.org/1999/xlink" version="1.1" viewBox="-10 0 1010 1000">
   <path fill="currentColor"
d="M274 176l-61 29c-12 -35 -39 -93 -64 -135l58 -25c25 41 55 96 67 131zM307 668h-157v166h157v-166zM368 607v289h-218v47h-61v-336h279zM90 533v-59h281v59h-281zM90 403v-59h281v59h-281zM50 273v-61h354v61h-354zM718 811h150v-212h-150v212zM509 599v212h138v-212
h-138zM647 326h-138v205h138v-205zM868 326h-150v205h150v-205zM718 255h223v678h-73v-51h-359v62h-71v-689h209v-199h71v199z" />
</svg>
