<?xml version="1.0" standalone="no"?>
<!DOCTYPE svg PUBLIC "-//W3C//DTD SVG 1.1//EN" "http://www.w3.org/Graphics/SVG/1.1/DTD/svg11.dtd" >
<svg xmlns="http://www.w3.org/2000/svg" xmlns:xlink="http://www.w3.org/1999/xlink" version="1.1" viewBox="-10 0 1010 1000">
   <path fill="currentColor"
d="M268 168l-62 34c-14 -36 -45 -92 -74 -133l58 -29c30 41 62 93 78 128zM382 213v61h-338v-61h338zM353 344v59h-268v-59h268zM85 533v-59h268v59h-268zM293 669h-143v165h143v-165zM360 607v289h-210v47h-65v-336h275zM483 528h156c-4 -36 -7 -73 -10 -112h-146v112z
M619 243h-136v110h141c-2 -35 -3 -73 -5 -110zM847 243h-158c1 38 3 75 5 110h153v-110zM709 528h138v-112h-149c3 39 7 77 11 112zM844 608l66 25c-36 58 -85 109 -143 153c26 65 60 101 101 101c26 0 37 -38 43 -149c14 15 39 30 56 36c-12 141 -35 183 -105 183
c-68 0 -117 -48 -154 -131c-85 53 -185 95 -296 127c-9 -18 -28 -45 -42 -58c120 -32 229 -77 315 -132c-15 -49 -27 -106 -36 -170h-166v59h-68v-473h203c-1 -44 -2 -88 -2 -134h72c-1 46 -1 91 0 134h229v414h-199c7 47 16 90 26 127c41 -34 76 -71 100 -112z" />
</svg>
