<?xml version="1.0" standalone="no"?>
<!DOCTYPE svg PUBLIC "-//W3C//DTD SVG 1.1//EN" "http://www.w3.org/Graphics/SVG/1.1/DTD/svg11.dtd" >
<svg xmlns="http://www.w3.org/2000/svg" xmlns:xlink="http://www.w3.org/1999/xlink" version="1.1" viewBox="-10 0 1010 1000">
   <path fill="currentColor"
d="M292 168l-60 34c-14 -36 -47 -92 -74 -133l58 -30c29 41 61 93 76 129zM299 669h-152v165h152v-165zM360 607v289h-213v47h-61v-336h274zM85 533v-59h276v59h-276zM85 344h275v59h-275v-59zM47 274v-61h352v61h-352zM731 632v-278h-111v278h111zM568 300h217v385h-217
v-385zM498 827h358v-666h-358v666zM432 97h493v857h-69v-62h-358v65h-66v-860z" />
</svg>
