<?xml version="1.0" standalone="no"?>
<!DOCTYPE svg PUBLIC "-//W3C//DTD SVG 1.1//EN" "http://www.w3.org/Graphics/SVG/1.1/DTD/svg11.dtd" >
<svg xmlns="http://www.w3.org/2000/svg" xmlns:xlink="http://www.w3.org/1999/xlink" version="1.1" viewBox="-10 0 1010 1000">
   <path fill="currentColor"
d="M287 168l-58 34c-13 -36 -45 -92 -72 -133l56 -29c27 41 59 93 74 128zM86 533v-59h274v59h-274zM86 344h273v59h-273v-59zM306 669h-156v165h156v-165zM369 607v289h-219v47h-62v-336h281zM48 274v-61h351v61h-351zM780 518l-34 -10c18 -34 42 -87 53 -126h-231
c23 39 42 91 49 125l-38 11h201zM961 315v67h-137l49 13c-21 42 -42 89 -62 123h101v66h-193v111h226v65h-226v197h-73v-197h-235v-65h235v-111h-198v-66h101c-8 -35 -25 -85 -45 -121l55 -15h-158v-67h245v-99h-188v-65h188v-108h73v108h194v65h-194v99h242z" />
</svg>
