<?xml version="1.0" standalone="no"?>
<!DOCTYPE svg PUBLIC "-//W3C//DTD SVG 1.1//EN" "http://www.w3.org/Graphics/SVG/1.1/DTD/svg11.dtd" >
<svg xmlns="http://www.w3.org/2000/svg" xmlns:xlink="http://www.w3.org/1999/xlink" version="1.1" viewBox="-10 0 1010 1000">
   <path fill="currentColor"
d="M930 357l-44 51c-47 -34 -133 -87 -208 -131c-38 61 -100 101 -210 127c-5 -17 -22 -42 -33 -54c127 -28 183 -75 207 -157h-195v-62h208c4 -26 6 -55 7 -87h67c-2 31 -4 61 -7 87h207v62h-219c-3 10 -4 20 -7 29c76 42 174 98 227 135zM277 167l-57 35
c-14 -37 -44 -93 -70 -134l55 -29c27 41 58 93 72 128zM301 669h-156v165h156v-165zM365 607v289h-220v47h-62v-336h282zM83 533v-59h275v59h-275zM358 344v59h-275v-59h275zM44 274v-61h344v61h-344zM676 603h-133v123h133v-123zM737 782h-194v56h-60v-290h254v234z
M957 411v63h-64v398c0 41 -9 61 -38 73c-30 11 -78 12 -153 12c-4 -20 -15 -49 -26 -68c60 2 113 2 128 1c16 -1 20 -5 20 -20v-396h-407v-63h540z" />
</svg>
