<?xml version="1.0" standalone="no"?>
<!DOCTYPE svg PUBLIC "-//W3C//DTD SVG 1.1//EN" "http://www.w3.org/Graphics/SVG/1.1/DTD/svg11.dtd" >
<svg xmlns="http://www.w3.org/2000/svg" xmlns:xlink="http://www.w3.org/1999/xlink" version="1.1" viewBox="-10 0 1010 1000">
   <path fill="currentColor"
d="M287 168l-60 35c-15 -37 -47 -93 -74 -134l58 -29c28 41 61 93 76 128zM400 213v61h-354v-61h354zM371 344v59h-284v-59h284zM87 533v-59h284v59h-284zM312 669h-160v165h160v-165zM378 896h-226v47h-65v-336h291v289zM843 832v-169h-220v169h220zM742 277v113h208v67
h-208v139h174v359h-73v-56h-220v56h-70v-359h117v-319h72zM741 169h211v71h-436v237c0 142 -11 343 -85 478c-13 -13 -44 -34 -61 -42c67 -126 73 -305 73 -436v-308h223c-11 -35 -29 -76 -47 -110l64 -17c23 39 46 89 58 127z" />
</svg>
