<?xml version="1.0" standalone="no"?>
<!DOCTYPE svg PUBLIC "-//W3C//DTD SVG 1.1//EN" "http://www.w3.org/Graphics/SVG/1.1/DTD/svg11.dtd" >
<svg xmlns="http://www.w3.org/2000/svg" xmlns:xlink="http://www.w3.org/1999/xlink" version="1.1" viewBox="-10 0 1010 1000">
   <path fill="currentColor"
d="M280 168l-57 34c-15 -36 -47 -92 -73 -133l55 -30c28 42 61 94 75 129zM85 533v-59h271v59h-271zM85 344h270v59h-270v-59zM295 669h-144v165h144v-165zM357 607v289h-206v47h-63v-336h269zM48 274v-61h346v61h-346zM557 245h217c6 -29 10 -58 14 -83h-210
c-7 29 -14 58 -21 83zM887 469l48 44c-30 22 -65 44 -102 64c22 113 63 219 125 270c-14 12 -34 36 -44 53c-67 -60 -108 -172 -131 -295c-18 9 -36 18 -53 26c49 124 31 255 -19 296c-24 24 -46 30 -82 30c-16 1 -39 0 -60 -1c-1 -19 -6 -45 -17 -65c25 4 47 5 65 5
c20 0 35 -2 49 -19c21 -20 34 -75 26 -141c-70 68 -171 136 -256 173c-9 -16 -26 -39 -40 -52c99 -34 218 -113 281 -187c-6 -21 -14 -41 -24 -61c-54 48 -132 97 -194 126c-8 -15 -25 -38 -38 -51c67 -23 152 -73 203 -121c-11 -16 -24 -31 -40 -46c-43 30 -89 57 -132 77
c-8 -12 -28 -39 -40 -51c72 -29 149 -72 206 -122h-206v-62h339c4 -19 9 -39 13 -60h-288c21 -68 46 -176 62 -259l67 8c-4 19 -9 39 -14 60h212l12 -4l47 8c-10 73 -29 167 -45 247h136v62h-255c-21 22 -43 43 -68 63c32 28 57 61 77 96c62 -32 134 -77 180 -111z" />
</svg>
