<?xml version="1.0" standalone="no"?>
<!DOCTYPE svg PUBLIC "-//W3C//DTD SVG 1.1//EN" "http://www.w3.org/Graphics/SVG/1.1/DTD/svg11.dtd" >
<svg xmlns="http://www.w3.org/2000/svg" xmlns:xlink="http://www.w3.org/1999/xlink" version="1.1" viewBox="-10 0 1010 1000">
   <path fill="currentColor"
d="M440 521v-394c56 -16 138 -49 185 -71l47 56c-51 23 -112 42 -165 56v104h141v63h-141v123h330v-123h-161v-63h161v-94h-159v-64h226v407h-464zM268 167l-54 34c-13 -36 -43 -92 -68 -133l52 -29c25 41 56 93 70 128zM296 669h-158v165h158v-165zM355 607v289h-217v47
h-57v-336h274zM81 533v-59h268v59h-268zM349 344v59h-268v-59h268zM44 274v-61h337v61h-337zM697 844h254v66h-558v-66h234v-175h-202v-66h485v66h-213v175z" />
</svg>
