<?xml version="1.0" standalone="no"?>
<!DOCTYPE svg PUBLIC "-//W3C//DTD SVG 1.1//EN" "http://www.w3.org/Graphics/SVG/1.1/DTD/svg11.dtd" >
<svg xmlns="http://www.w3.org/2000/svg" xmlns:xlink="http://www.w3.org/1999/xlink" version="1.1" viewBox="-10 0 1010 1000">
   <path fill="currentColor"
d="M874 145h-55c-6 175 -29 284 -134 352c-6 -14 -24 -35 -36 -44c94 -57 113 -152 118 -308h-104v-59h271v29c-7 233 -14 312 -33 338c-12 17 -25 23 -45 25c-16 2 -43 2 -68 1c-1 -17 -6 -41 -15 -57c25 2 46 2 57 2c10 1 16 0 21 -10c10 -15 18 -83 23 -269zM677 200
l41 8c-2 46 -16 110 -39 148l-42 -14c21 -35 36 -94 40 -142zM579 145h-54c-5 178 -27 287 -126 353c-6 -12 -23 -34 -35 -44c87 -56 105 -149 109 -309h-98v-59h262v28c-7 233 -14 311 -32 336c-12 16 -27 23 -46 24c-16 2 -40 2 -63 1c-1 -16 -7 -40 -15 -55
c25 3 44 3 55 3c8 0 14 -1 20 -11c11 -16 18 -82 23 -267zM253 179l-66 24c-8 -35 -32 -92 -57 -135l63 -19c26 41 51 96 60 130zM345 213v61h-303v-61h303zM255 671h-112v168h112v-168zM319 611v288h-176v47h-65v-335h241zM82 536v-60h239v60h-239zM82 403v-59h239v59h-239
zM386 199l44 9c-4 46 -19 111 -43 149l-43 -16c23 -35 37 -94 42 -142zM703 863h253v62h-603v-62h102v-273h62v273h124v-354h62v132h201v65h-201v157z" />
</svg>
