<?xml version="1.0" standalone="no"?>
<!DOCTYPE svg PUBLIC "-//W3C//DTD SVG 1.1//EN" "http://www.w3.org/Graphics/SVG/1.1/DTD/svg11.dtd" >
<svg xmlns="http://www.w3.org/2000/svg" xmlns:xlink="http://www.w3.org/1999/xlink" version="1.1" viewBox="-10 0 1010 1000">
   <path fill="currentColor"
d="M927 90v204h-504v-204h64v138h154v-183h68v183h152v-138h66zM263 167l-54 35c-12 -37 -41 -93 -65 -134l51 -29c25 40 54 93 68 128zM365 213v61h-321v-61h321zM336 344v59h-256v-59h256zM80 533v-59h256v59h-256zM284 669h-146v165h146v-165zM343 607v289h-205v47h-58
v-336h263zM499 749v94h174v-94h-174zM673 547v-85h-174v85h174zM673 692v-88h-174v88h174zM958 843v60h-459v51h-64v-437c-15 18 -29 34 -44 47c-9 -10 -32 -36 -46 -47c61 -53 116 -131 147 -213l60 18c-11 26 -24 54 -37 79h170c-12 -26 -26 -56 -39 -79l56 -20
c18 30 38 69 49 99h194v61h-207v85h191v57h-191v88h190v57h-190v94h220z" />
</svg>
