<?xml version="1.0" standalone="no"?>
<!DOCTYPE svg PUBLIC "-//W3C//DTD SVG 1.1//EN" "http://www.w3.org/Graphics/SVG/1.1/DTD/svg11.dtd" >
<svg xmlns="http://www.w3.org/2000/svg" xmlns:xlink="http://www.w3.org/1999/xlink" version="1.1" viewBox="-10 0 1010 1000">
   <path fill="currentColor"
d="M887 109l49 22c-23 40 -45 82 -65 112l-39 -19c18 -32 43 -83 55 -115zM942 374l-41 42c-25 -32 -70 -78 -113 -117c-23 49 -57 87 -109 117c-7 -13 -22 -33 -35 -42c108 -57 126 -159 131 -329h55c-3 80 -9 145 -24 201c49 40 106 93 136 128zM686 263l-40 -26
c26 -26 39 -73 45 -119l44 13c-6 50 -18 101 -49 132zM602 232l-38 -16c18 -29 40 -77 50 -108l49 20c-22 37 -43 77 -61 104zM427 117l44 13c-7 49 -19 100 -48 131l-41 -25c25 -27 39 -74 45 -119zM647 340l-36 42c-20 -22 -55 -56 -88 -85c-23 51 -57 91 -111 121
c-6 -13 -22 -32 -34 -41c108 -58 127 -163 132 -332h55c-3 79 -9 144 -24 200c39 31 84 69 106 95zM249 174l-56 24c-9 -35 -32 -89 -56 -129l54 -21c24 40 49 91 58 126zM265 671h-113v168h113v-168zM325 611v288h-173v47h-60v-335h233zM96 536v-60h229v60h-229zM96 403
v-59h229v59h-229zM57 274v-61h293v61h-293zM662 613h225s-1 20 -2 31c-15 187 -29 259 -56 286c-16 17 -34 24 -60 25c-23 2 -67 2 -110 -1c-1 -18 -8 -43 -19 -60c45 4 86 4 102 4s25 -1 33 -9c16 -16 30 -74 41 -214h-165c-29 132 -95 225 -255 282
c-7 -16 -25 -40 -40 -52c141 -46 200 -123 227 -230h-183v-62h195c5 -31 8 -63 10 -98h67c-2 35 -5 67 -10 98zM388 585v-159h535v159h-64v-98h-408v98h-63z" />
</svg>
