<?xml version="1.0" standalone="no"?>
<!DOCTYPE svg PUBLIC "-//W3C//DTD SVG 1.1//EN" "http://www.w3.org/Graphics/SVG/1.1/DTD/svg11.dtd" >
<svg xmlns="http://www.w3.org/2000/svg" xmlns:xlink="http://www.w3.org/1999/xlink" version="1.1" viewBox="-10 0 1010 1000">
   <path fill="currentColor"
d="M268 171l-56 31c-14 -36 -44 -92 -70 -133l53 -26c28 41 59 93 73 128zM365 213v61h-321v-61h321zM336 344v59h-252v-59h252zM84 533v-59h252v59h-252zM287 669h-145v165h145v-165zM347 607v289h-205v47h-59v-336h264zM405 953l-54 -31c40 -43 74 -114 94 -170l55 24
c-23 58 -54 132 -95 177zM554 777l55 -9c16 53 29 123 32 168l-59 12c-2 -46 -14 -117 -28 -171zM829 200v-67h-342v67h342zM829 320v-69h-342v69h342zM895 80v293h-472v-293h472zM555 599l40 -16c24 45 48 106 56 145l-42 19c-3 -14 -7 -29 -13 -46
c-153 17 -181 22 -196 29c-4 -10 -14 -36 -21 -48c17 -2 34 -18 55 -41c12 -11 39 -43 69 -82c-76 6 -97 10 -109 14c-3 -11 -13 -35 -20 -46c13 -2 24 -11 35 -26c13 -15 54 -72 76 -128l54 25c-21 39 -46 78 -73 111l74 -4c13 -19 24 -38 34 -58l52 30
c-40 64 -91 130 -144 184l97 -9c-8 -18 -16 -36 -24 -53zM949 729l-43 21c-3 -13 -9 -31 -15 -49c-165 19 -193 25 -211 32c-3 -11 -13 -36 -21 -48c18 -3 34 -18 56 -42c11 -10 38 -41 65 -78c-76 6 -96 10 -109 14c-3 -10 -13 -35 -19 -46c12 -2 23 -11 36 -26
c12 -15 54 -72 76 -128l54 25c-20 38 -46 78 -73 111l72 -4c13 -21 26 -42 37 -64l53 30c-41 64 -92 132 -144 186l107 -10c-8 -17 -16 -34 -25 -50l39 -20c28 46 54 106 65 146zM675 780l52 -18c28 51 55 120 67 164l-55 20c-10 -45 -37 -114 -64 -166zM799 769l52 -23
c40 56 82 131 100 180l-54 27c-18 -51 -59 -127 -98 -184z" />
</svg>
