<?xml version="1.0" standalone="no"?>
<!DOCTYPE svg PUBLIC "-//W3C//DTD SVG 1.1//EN" "http://www.w3.org/Graphics/SVG/1.1/DTD/svg11.dtd" >
<svg xmlns="http://www.w3.org/2000/svg" xmlns:xlink="http://www.w3.org/1999/xlink" version="1.1" viewBox="-10 0 1010 1000">
   <path fill="currentColor"
d="M786 569l47 -27c39 60 88 139 111 189l-48 31c-24 -51 -71 -134 -110 -193zM787 369l46 -27c38 52 84 119 107 162l-48 32c-23 -44 -68 -115 -105 -167zM688 137v122h69v-122h-69zM643 259v-122h-67v122h67zM802 137v122h70v-122h-70zM696 821v-506h-171v-234h401v234
h-170v506h-60zM613 343l53 21c-30 60 -70 132 -105 177c-10 -9 -32 -30 -45 -39c35 -43 72 -104 97 -159zM617 542l54 22c-30 70 -76 149 -118 199c-10 -12 -33 -32 -47 -41c43 -47 85 -115 111 -180zM497 218l-47 36c-20 -40 -64 -101 -103 -145l46 -33
c39 42 84 101 104 142zM350 209v62h-307v-62h148c-7 -40 -29 -97 -53 -142l54 -20c25 44 50 103 55 141l-49 21h152zM265 671h-131v168h131v-168zM322 611v288h-188v47h-56v-335h244zM83 536v-60h243v60h-243zM83 403v-59h243v59h-243zM491 418v352c13 9 25 25 45 42
c37 30 90 37 164 37c67 0 186 -5 260 -15c-5 18 -14 50 -14 68c-69 5 -188 9 -246 9c-83 0 -135 -12 -174 -44c-25 -25 -43 -48 -56 -48c-25 0 -67 45 -110 102l-34 -58c35 -39 72 -74 105 -90v-292h-80v-63h140z" />
</svg>
