<?xml version="1.0" standalone="no"?>
<!DOCTYPE svg PUBLIC "-//W3C//DTD SVG 1.1//EN" "http://www.w3.org/Graphics/SVG/1.1/DTD/svg11.dtd" >
<svg xmlns="http://www.w3.org/2000/svg" xmlns:xlink="http://www.w3.org/1999/xlink" version="1.1" viewBox="-10 0 1010 1000">
   <path fill="currentColor"
d="M936 811l-42 19c-2 -12 -6 -27 -10 -43c-114 15 -136 19 -149 26c-2 -9 -10 -29 -17 -39c15 -2 28 -16 44 -36c8 -11 29 -38 49 -73c-57 10 -74 14 -83 19c-3 -8 -10 -27 -15 -37c11 -2 20 -10 30 -25c11 -14 47 -72 64 -128l45 15c-18 44 -42 87 -67 122l50 -7
c11 -19 22 -40 29 -61l46 19c-32 63 -71 125 -112 175l73 -7c-8 -19 -15 -36 -23 -52l38 -17c23 40 43 94 50 130zM918 387l-38 18c-2 -10 -4 -23 -7 -37c-112 14 -134 18 -147 24c-2 -8 -10 -28 -15 -38c14 -2 25 -15 41 -36c9 -12 31 -43 53 -83c-62 10 -78 15 -88 19
c-3 -7 -9 -27 -15 -37c11 -2 20 -11 31 -26c10 -15 47 -76 63 -133l46 15c-19 46 -43 92 -69 129l52 -6c9 -17 16 -35 23 -52l45 18c-31 63 -69 127 -108 177l77 -9c-5 -19 -12 -38 -20 -56l35 -17c20 42 37 95 41 130zM691 387l-38 18c-1 -11 -4 -24 -9 -39
c-112 14 -134 19 -147 25c-2 -8 -10 -28 -15 -39c13 -1 26 -14 41 -33c8 -11 30 -39 52 -75c-55 10 -71 14 -80 19c-2 -9 -9 -27 -14 -37c10 -2 19 -13 30 -28c10 -15 46 -79 61 -138l46 16c-18 48 -42 96 -68 134l47 -5c10 -18 19 -37 25 -54l46 18
c-31 60 -69 120 -109 167l73 -8c-5 -13 -10 -25 -15 -37l35 -17c17 35 33 82 39 113zM264 669h-127v170h127v-170zM325 611v286h-188v49h-61v-335h249zM80 535v-59h238v59h-238zM322 342v60h-242v-60h242zM250 186l-43 19h149v62h-309v-62h144c-9 -39 -29 -95 -52 -138
l56 -21c24 44 49 103 55 140zM456 861h493v60h-556v-837h63v341h469v57h-469v379zM691 807l-40 19c-2 -11 -4 -24 -8 -38c-112 15 -134 19 -146 25c-2 -8 -11 -28 -17 -38c15 -3 28 -16 44 -36c8 -10 27 -36 48 -69c-53 11 -69 16 -78 20c-2 -7 -9 -27 -14 -37
c10 -2 19 -12 29 -26s45 -74 60 -129l45 15c-16 43 -39 86 -62 122l44 -6c11 -21 22 -42 31 -64l45 20c-31 61 -72 124 -114 174l72 -8c-5 -16 -12 -34 -20 -50l37 -15c20 38 38 89 44 121z" />
</svg>
