<?xml version="1.0" standalone="no"?>
<!DOCTYPE svg PUBLIC "-//W3C//DTD SVG 1.1//EN" "http://www.w3.org/Graphics/SVG/1.1/DTD/svg11.dtd" >
<svg xmlns="http://www.w3.org/2000/svg" xmlns:xlink="http://www.w3.org/1999/xlink" version="1.1" viewBox="-10 0 1010 1000">
   <path fill="currentColor"
d="M525 332h-48c-9 85 -32 151 -86 194c-6 -10 -22 -30 -33 -40c44 -34 62 -86 68 -154h-56v-51h209v24c-4 127 -7 177 -22 194c-10 12 -21 18 -41 19c-12 2 -34 1 -55 1c-1 -17 -6 -37 -12 -51c20 2 37 2 45 2c9 1 13 -1 18 -8c6 -9 9 -42 13 -130zM264 171l-62 28
c-14 -37 -45 -92 -73 -134l61 -23c28 41 61 94 74 129zM352 213v61h-305v-61h305zM321 403h-242v-59h242v59zM321 474v59h-242v-59h242zM263 669h-122v165h122v-165zM323 607v289h-182v47h-61v-336h243zM482 742h325v-74h-321v4c0 21 -1 46 -4 70zM807 608v-70h69v412h-69
v-148h-335c-13 56 -38 111 -85 155c-13 -11 -40 -28 -56 -36c76 -72 87 -176 87 -250v-131h68v68h321zM719 201l56 21c-31 34 -68 71 -99 98v207h-56v-210c33 -32 77 -82 99 -116zM892 244l45 37c-21 11 -44 20 -70 28c15 73 41 142 83 176c-12 9 -29 27 -37 40
c-45 -41 -72 -120 -87 -202c-17 5 -34 10 -51 14v126l67 -19c0 13 4 31 7 41c-92 32 -111 40 -122 49c-4 -13 -17 -35 -26 -47c11 -6 22 -19 22 -59v-123h1c60 -15 130 -39 168 -61zM696 139h255v61h-362c21 22 43 52 53 72l-43 28c-9 -23 -31 -55 -51 -78l38 -22h-224v-61
h259c-5 -29 -13 -66 -23 -94l69 -8c12 31 24 74 29 102z" />
</svg>
