<?xml version="1.0" standalone="no"?>
<!DOCTYPE svg PUBLIC "-//W3C//DTD SVG 1.1//EN" "http://www.w3.org/Graphics/SVG/1.1/DTD/svg11.dtd" >
<svg xmlns="http://www.w3.org/2000/svg" xmlns:xlink="http://www.w3.org/1999/xlink" version="1.1" viewBox="-10 0 1010 1000">
   <path fill="currentColor"
d="M329 199l-48 54c-32 -37 -95 -100 -143 -145l46 -48c48 44 112 103 145 139zM209 901l-13 16v-1l-1 1l-1 -3c-9 -18 -27 -48 -38 -62c17 -12 49 -46 49 -91v-334h-155v-71h223v411l109 -77c5 20 14 48 21 62c-126 95 -173 130 -194 149zM954 373v71h-159v513h-73v-513
h-185c-2 156 -22 364 -116 507c-12 -14 -43 -38 -59 -45c93 -145 102 -348 102 -496v-260l-1 -2c142 -25 302 -62 393 -100l62 57c-103 40 -247 73 -381 96v172h417z" />
</svg>
