<?xml version="1.0" standalone="no"?>
<!DOCTYPE svg PUBLIC "-//W3C//DTD SVG 1.1//EN" "http://www.w3.org/Graphics/SVG/1.1/DTD/svg11.dtd" >
<svg xmlns="http://www.w3.org/2000/svg" xmlns:xlink="http://www.w3.org/1999/xlink" version="1.1" viewBox="-10 0 1010 1000">
   <path fill="currentColor"
d="M556 328v244h182v-244h-182zM956 572v73h-598v-73h125v-244h-109v-72h109v-201h73v201h182v-201h74v201h126v72h-126v244h144zM307 204l-49 52c-32 -38 -95 -102 -142 -148l47 -45c48 44 113 105 144 141zM252 755l102 -79c6 20 19 50 27 64c-167 135 -193 155 -206 175
v-1l-1 1c-9 -18 -31 -49 -44 -63c19 -13 53 -50 53 -96v-329h-136v-71h205v399zM494 704l78 25c-51 88 -134 175 -209 230c-15 -14 -47 -39 -67 -52c78 -49 154 -124 198 -203zM720 740l64 -36c68 65 139 152 174 212l-68 42c-32 -60 -105 -153 -170 -218z" />
</svg>
