<?xml version="1.0" standalone="no"?>
<!DOCTYPE svg PUBLIC "-//W3C//DTD SVG 1.1//EN" "http://www.w3.org/Graphics/SVG/1.1/DTD/svg11.dtd" >
<svg xmlns="http://www.w3.org/2000/svg" xmlns:xlink="http://www.w3.org/1999/xlink" version="1.1" viewBox="-10 0 1010 1000">
   <path fill="currentColor"
d="M439 543h160v-96h-160v96zM840 447h-170v96h170v-96zM461 277h138v-92h-138v92zM815 185h-145v92h145v-92zM599 648v-51h-226v-205h226v-61h-204v-200h204v-88h71v88h215v200h-215v61h239v205h-239v64h-49c40 25 78 54 100 78l-45 44c-30 -36 -94 -82 -149 -111l43 -40
c9 5 19 10 29 16zM311 204l-51 52c-32 -38 -96 -102 -144 -148l48 -45c48 44 114 105 147 141zM248 754l75 -58c7 21 19 50 29 63c-112 89 -153 122 -171 141l-13 14c-10 -17 -32 -49 -45 -62c19 -14 53 -50 53 -96v-329h-129v-71h201v398zM352 929l-56 -36
c55 -40 84 -111 97 -184l61 18c-15 79 -41 157 -102 202zM598 883h119c28 0 34 -10 36 -89c15 11 42 21 61 25c-7 100 -27 124 -89 124h-134c-80 0 -101 -18 -101 -84v-150h67v149c0 21 6 25 41 25zM758 731l56 -29c57 55 114 131 134 187l-60 30
c-19 -54 -74 -133 -130 -188z" />
</svg>
