<?xml version="1.0" standalone="no"?>
<!DOCTYPE svg PUBLIC "-//W3C//DTD SVG 1.1//EN" "http://www.w3.org/Graphics/SVG/1.1/DTD/svg11.dtd" >
<svg xmlns="http://www.w3.org/2000/svg" xmlns:xlink="http://www.w3.org/1999/xlink" version="1.1" viewBox="-10 0 1010 1000">
   <path fill="currentColor"
d="M773 336h63v104c27 -21 53 -45 71 -63l44 39c-36 31 -79 63 -115 86v110c0 18 0 29 4 33c3 3 7 5 14 5h24c6 0 14 -1 18 -3c4 -3 8 -10 10 -21c2 -12 3 -40 4 -74c13 10 34 20 52 26c-1 34 -4 73 -9 87c-6 14 -15 23 -27 29c-11 4 -29 7 -42 7h-43c-18 0 -38 -5 -51 -16
s-17 -26 -17 -82v-267zM717 186h-170v71h170v-71zM477 314v-128h-151v-61h151v-77h70v77h170v-77h73v77h161v61h-161v128h-313zM588 414v201h76v-201h-76zM720 670h-186v-310h186v310zM281 218l-53 46c-28 -42 -85 -112 -128 -163l50 -38c45 49 103 115 131 155zM231 762
l71 -53c6 21 17 47 26 61c-108 84 -145 115 -162 131l-11 13c-9 -17 -29 -45 -41 -59c17 -12 51 -47 51 -93v-335h-115v-71h181v406zM362 955l-55 -43c48 -41 85 -113 105 -172l60 22c-22 66 -57 144 -110 193zM419 395v-63h63v377h-63v-79c-35 14 -70 28 -102 40l-25 -57
c35 -10 78 -24 127 -39v-120h-108v-59h108zM524 765l60 -11c17 58 26 133 26 182l-66 11c2 -49 -6 -124 -20 -182zM651 762l58 -16c30 57 57 132 67 180l-64 19c-8 -50 -32 -126 -61 -183zM783 758l61 -27c47 60 93 139 112 193l-65 30c-17 -54 -62 -136 -108 -196z" />
</svg>
