<?xml version="1.0" standalone="no"?>
<!DOCTYPE svg PUBLIC "-//W3C//DTD SVG 1.1//EN" "http://www.w3.org/Graphics/SVG/1.1/DTD/svg11.dtd" >
<svg xmlns="http://www.w3.org/2000/svg" xmlns:xlink="http://www.w3.org/1999/xlink" version="1.1" viewBox="-10 0 1010 1000">
   <path fill="currentColor"
d="M436 101v68h-383v-68h383zM341 470v-145h-199v145h199zM410 264v267h-333v-267h333zM205 752l-65 17c-6 -51 -23 -128 -39 -187l62 -14c18 59 35 135 42 184zM327 772l115 -24l6 63c-139 34 -288 67 -396 91l-16 -70c59 -11 135 -27 220 -44c20 -63 44 -158 56 -226
l69 17c-16 63 -36 136 -54 193zM829 582h-257v102h257v-102zM572 850h257v-105h-257v105zM508 956v-438h388v436h-67v-42h-257v44h-64zM623 240v131h152v-131h-152zM840 371h113v68h-507v-68h113v-131h-93v-66h93v-130h64v130h152v-130h65v130h85v66h-85v131z" />
</svg>
