<?xml version="1.0" standalone="no"?>
<!DOCTYPE svg PUBLIC "-//W3C//DTD SVG 1.1//EN" "http://www.w3.org/Graphics/SVG/1.1/DTD/svg11.dtd" >
<svg xmlns="http://www.w3.org/2000/svg" xmlns:xlink="http://www.w3.org/1999/xlink" version="1.1" viewBox="-10 0 1010 1000">
   <path fill="currentColor"
d="M168 343v63h113v-63h-113zM281 129h-113v58h113v-58zM415 295v-60h-247v60h247zM502 406v49h-401v-376h402v50h-159v58h137v156h-137v63h158zM927 495v54h-850v-54h850zM860 412l-53 37c-29 -47 -93 -115 -152 -161l50 -31c61 45 124 109 155 155zM258 646v83h493v-83
h-493zM824 777h-636v-179h636v179zM673 780l67 20c-17 26 -36 52 -55 76h254v56h-878v-56h265c-12 -24 -29 -49 -44 -70l61 -21c25 26 48 63 61 91h205c23 -31 49 -69 64 -96zM651 153h294v60h-323c-23 41 -47 78 -73 108c-12 -12 -41 -31 -58 -39c55 -59 101 -148 128 -237
l67 15c-9 31 -21 63 -35 93z" />
</svg>
