<?xml version="1.0" standalone="no"?>
<!DOCTYPE svg PUBLIC "-//W3C//DTD SVG 1.1//EN" "http://www.w3.org/Graphics/SVG/1.1/DTD/svg11.dtd" >
<svg xmlns="http://www.w3.org/2000/svg" xmlns:xlink="http://www.w3.org/1999/xlink" version="1.1" viewBox="-10 0 1010 1000">
   <path fill="currentColor"
d="M951 614l-51 43c-26 -40 -72 -94 -123 -143c16 110 1 213 -35 251c-25 29 -50 38 -89 39c-18 0 -44 -1 -70 -2c-1 -19 -7 -45 -16 -63c28 4 55 4 73 4c21 0 36 -2 51 -21c23 -24 35 -99 26 -187c-69 74 -169 145 -258 184c-9 -16 -23 -39 -37 -52
c102 -38 221 -120 284 -200c-6 -25 -12 -48 -21 -72c-58 53 -142 109 -212 142c-8 -14 -24 -37 -35 -50c75 -27 171 -86 225 -140c-11 -21 -25 -42 -41 -61c-40 33 -84 60 -127 82c-7 -12 -25 -38 -37 -51c78 -34 159 -88 209 -152h-186v-63h461v63h-205
c-20 30 -45 60 -74 86c35 36 61 82 80 131c45 -42 95 -95 125 -136l57 37c-46 50 -103 104 -152 146c69 56 142 131 178 185zM157 506v-189h65v189c0 150 -14 317 -129 449c-11 -16 -35 -40 -51 -50c104 -119 115 -269 115 -399zM178 62l67 16c-32 95 -89 202 -160 267
c-11 -12 -33 -32 -49 -43c66 -60 119 -159 142 -240zM472 272l-60 27c-18 -59 -69 -150 -119 -219l56 -24c50 67 102 156 123 216zM484 875h324c68 0 80 -18 89 -108c15 10 43 20 62 24c-12 116 -36 149 -149 149h-323c-134 0 -172 -26 -172 -128v-495h65v495
c0 50 15 63 104 63z" />
</svg>
