<?xml version="1.0" standalone="no"?>
<!DOCTYPE svg PUBLIC "-//W3C//DTD SVG 1.1//EN" "http://www.w3.org/Graphics/SVG/1.1/DTD/svg11.dtd" >
<svg xmlns="http://www.w3.org/2000/svg" xmlns:xlink="http://www.w3.org/1999/xlink" version="1.1" viewBox="-10 0 1010 1000">
   <path fill="currentColor"
d="M516 234v97h-65v-161h218c-10 -34 -24 -75 -37 -109l68 -15c18 39 36 88 46 124h199v161h-67v-97h-362zM512 413v-64h377v64h-377zM444 593l-46 26c-14 -46 -47 -113 -84 -167l-3 3c49 185 35 397 -13 454c-24 32 -50 43 -90 45c-17 0 -44 -1 -69 -3
c0 -20 -5 -46 -14 -66c26 3 54 4 69 4c21 0 36 -2 52 -25c22 -28 36 -122 29 -232c-59 73 -137 141 -211 182c-6 -17 -20 -47 -31 -62c85 -40 181 -122 233 -204c-5 -35 -12 -69 -21 -102c-47 56 -112 114 -171 150c-7 -17 -20 -46 -32 -60c64 -31 140 -93 183 -151
c-12 -30 -25 -57 -41 -81c-33 28 -68 53 -103 73c-5 -14 -23 -47 -33 -62c66 -35 133 -86 178 -146h-176v-66h390v66h-140c-21 33 -47 65 -75 95c28 37 50 82 68 130c32 -41 68 -92 88 -131l58 36c-29 38 -61 80 -91 117c40 56 80 128 96 177zM528 650l65 18
c-29 76 -70 165 -104 222c-13 -10 -40 -28 -56 -37c35 -55 70 -134 95 -203zM951 583h-219v299c0 36 -6 53 -32 65c-24 10 -63 11 -120 11c-3 -19 -12 -44 -21 -63c44 1 80 1 91 0c12 0 15 -3 15 -14v-298h-208v-66h494v66zM792 668l58 -23c36 68 81 158 103 211l-61 28
c-21 -54 -64 -147 -100 -216z" />
</svg>
