<?xml version="1.0" standalone="no"?>
<!DOCTYPE svg PUBLIC "-//W3C//DTD SVG 1.1//EN" "http://www.w3.org/Graphics/SVG/1.1/DTD/svg11.dtd" >
<svg xmlns="http://www.w3.org/2000/svg" xmlns:xlink="http://www.w3.org/1999/xlink" version="1.1" viewBox="-10 0 1010 1000">
   <path fill="currentColor"
d="M674 249l40 -43c30 18 62 41 93 64c22 -36 41 -78 54 -124h-180v-63h206l12 -2l42 16c-18 84 -46 156 -83 214c40 34 75 67 98 97l-43 49c-22 -27 -54 -60 -91 -94c-43 52 -93 92 -148 121c-10 -15 -34 -39 -48 -50c56 -26 105 -64 145 -113c-32 -26 -66 -51 -97 -72z
M417 252l37 -45c29 14 61 32 93 51c16 -34 30 -71 41 -112h-172v-63h195l13 -2l39 16c-13 75 -35 141 -63 197c28 20 53 40 70 59l-38 51c-16 -17 -37 -37 -63 -56c-38 58 -84 102 -135 133c-9 -14 -34 -38 -48 -48c50 -29 94 -70 130 -123c-32 -22 -66 -42 -99 -58z
M287 461l-2 2c48 178 38 386 -8 444c-23 31 -51 43 -90 44c-17 -1 -43 -1 -67 -2c0 -18 -5 -44 -14 -62c24 3 52 4 66 4c20 0 37 -3 52 -24c22 -29 34 -123 26 -232c-50 71 -116 134 -181 178c-4 -13 -20 -46 -30 -61c78 -49 156 -126 201 -209c-6 -32 -13 -63 -20 -94
c-42 56 -96 108 -150 143c-5 -13 -20 -43 -31 -57c61 -36 124 -91 158 -150c-10 -25 -21 -47 -33 -67c-32 27 -65 52 -97 72c-6 -13 -22 -47 -33 -61c69 -39 140 -94 188 -160h-167v-66h335v66h-98c-23 39 -54 76 -87 109c25 36 46 78 62 124c30 -39 63 -86 82 -123l54 37
c-26 36 -56 75 -84 108c36 53 74 121 88 164l-42 28c-14 -41 -45 -103 -78 -155zM662 823l-42 47c-15 -21 -38 -46 -64 -70c-45 66 -98 116 -160 150c-9 -14 -33 -39 -48 -49c62 -32 116 -80 158 -144c-33 -26 -67 -52 -101 -72l40 -42c30 17 62 39 91 61
c18 -37 32 -78 44 -123h-166v-62h190l11 -2l40 14c-14 83 -38 154 -68 214c31 27 58 55 75 78zM865 581h-127c14 56 35 109 63 157c27 -45 49 -97 64 -157zM901 517l41 15c-21 108 -56 195 -103 263c36 46 79 82 129 104c-16 13 -36 38 -46 56c-48 -25 -89 -62 -124 -107
c-43 47 -92 82 -145 108c-10 -14 -34 -38 -48 -49c59 -26 112 -64 155 -115c-34 -59 -59 -128 -78 -202l38 -9h-52v-62h222z" />
</svg>
