<?xml version="1.0" standalone="no"?>
<!DOCTYPE svg PUBLIC "-//W3C//DTD SVG 1.1//EN" "http://www.w3.org/Graphics/SVG/1.1/DTD/svg11.dtd" >
<svg xmlns="http://www.w3.org/2000/svg" xmlns:xlink="http://www.w3.org/1999/xlink" version="1.1" viewBox="-10 0 1010 1000">
   <path fill="currentColor"
d="M319 261l48 39c-23 36 -47 76 -71 110c29 46 58 104 71 144l-39 30c-11 -38 -35 -91 -61 -134l-7 9c38 183 27 392 -10 449c-20 32 -42 44 -75 46c-14 0 -35 -1 -55 -3c-1 -20 -4 -49 -13 -69c21 3 44 4 56 4c17 0 30 -3 41 -25c18 -28 28 -119 24 -226
c-47 73 -109 142 -168 183c-4 -19 -17 -50 -26 -66c69 -40 145 -123 187 -205c-4 -33 -10 -66 -17 -99c-38 56 -91 114 -137 150c-5 -17 -17 -47 -27 -61c52 -32 113 -95 148 -153c-10 -28 -20 -54 -33 -78c-25 28 -52 53 -80 73c-6 -14 -19 -48 -28 -64
c53 -34 106 -86 143 -146h-143v-66h311v66h-108c-17 33 -37 65 -59 95c22 37 40 82 54 131c26 -42 56 -94 74 -134zM551 72l42 25c-19 86 -43 200 -66 291c46 90 56 167 56 232c1 54 -8 101 -28 120c-10 10 -25 14 -41 17c-13 2 -30 2 -47 1c-1 -17 -6 -42 -15 -61
c16 2 28 2 39 2c9 -1 15 -3 21 -9c11 -11 14 -45 14 -77c0 -59 -7 -131 -53 -219c20 -83 38 -185 51 -258h-80v819h-60v-880h158zM688 753h171v-70h-171v70zM859 564h-171v66h171v-66zM921 509v376c0 33 -5 50 -27 61c-20 10 -52 11 -100 11c-3 -18 -12 -43 -20 -60
c34 1 63 1 73 1c9 -1 12 -4 12 -13v-78h-171v152h-62v-450h295zM956 190h-233c-6 22 -13 43 -21 65h222v54h-93v88h123v55h-311v-55h130v-88h-78v-35c-25 62 -59 121 -103 163c-9 -11 -29 -29 -42 -39c53 -52 89 -129 113 -208h-74v-59h88c7 -29 12 -60 16 -87l60 8
c-4 25 -9 52 -15 79h218v59z" />
</svg>
