<?xml version="1.0" standalone="no"?>
<!DOCTYPE svg PUBLIC "-//W3C//DTD SVG 1.1//EN" "http://www.w3.org/Graphics/SVG/1.1/DTD/svg11.dtd" >
<svg xmlns="http://www.w3.org/2000/svg" xmlns:xlink="http://www.w3.org/1999/xlink" version="1.1" viewBox="-10 0 1010 1000">
   <path fill="currentColor"
d="M349 50l39 46c-71 52 -191 96 -300 123c-8 -16 -22 -40 -34 -53c107 -25 228 -71 295 -116zM387 218l42 42c-34 39 -79 77 -130 111c129 175 120 471 51 538c-26 28 -50 38 -90 39c-19 0 -48 -1 -75 -3c-1 -19 -6 -46 -16 -66c30 3 59 5 76 5c23 0 38 -3 54 -22
c25 -23 41 -101 36 -194c-70 72 -166 144 -246 187c-8 -17 -23 -42 -37 -54c93 -41 209 -126 274 -205c-4 -27 -11 -53 -19 -79c-60 52 -143 110 -210 145c-8 -16 -24 -41 -36 -54c73 -31 169 -91 225 -144c-10 -22 -22 -43 -35 -61c-49 29 -102 57 -154 80
c-8 -15 -24 -37 -36 -49c33 -14 67 -30 100 -48c-15 -37 -43 -87 -69 -124l49 -26c26 36 56 85 71 120c26 -15 49 -32 72 -48c-12 -32 -34 -73 -55 -104l48 -26c21 28 41 64 54 94c21 -18 40 -37 56 -54zM864 59l59 50c-22 8 -46 16 -71 23c8 314 25 614 104 758
c-19 13 -45 41 -58 61c-85 -166 -101 -465 -108 -802c-26 6 -54 12 -81 18v778h-65v-767c-32 6 -66 11 -98 15v165c0 166 -13 420 -94 597c-12 -11 -42 -28 -58 -33c78 -169 86 -405 86 -564v-214c138 -19 297 -50 384 -85z" />
</svg>
