<?xml version="1.0" standalone="no"?>
<!DOCTYPE svg PUBLIC "-//W3C//DTD SVG 1.1//EN" "http://www.w3.org/Graphics/SVG/1.1/DTD/svg11.dtd" >
<svg xmlns="http://www.w3.org/2000/svg" xmlns:xlink="http://www.w3.org/1999/xlink" version="1.1" viewBox="-10 0 1010 1000">
   <path fill="currentColor"
d="M340 50l40 46c-72 52 -192 96 -303 123c-8 -16 -21 -40 -34 -53c107 -25 230 -71 297 -116zM379 218l43 42c-35 40 -81 77 -132 112c130 174 120 470 52 537c-27 28 -52 38 -92 39c-18 0 -48 -1 -75 -3c-1 -19 -6 -46 -16 -66c30 3 60 5 77 5c22 0 37 -3 54 -22
c24 -23 41 -101 35 -193c-70 72 -166 143 -247 185c-9 -16 -24 -41 -38 -54c94 -41 211 -125 277 -203c-5 -27 -11 -54 -19 -79c-60 52 -145 109 -212 143c-8 -15 -24 -40 -36 -53c74 -31 171 -89 226 -143c-10 -22 -22 -42 -35 -62c-49 30 -102 57 -154 80
c-9 -14 -25 -37 -36 -49c33 -13 66 -30 100 -48c-16 -37 -45 -86 -71 -124l50 -26c27 36 57 85 72 121c26 -16 49 -32 72 -48c-12 -32 -34 -74 -55 -105l49 -26c20 28 41 64 54 93c22 -17 41 -36 57 -53zM857 154h-322v138h322v-138zM925 358h-390v34c0 165 -11 400 -93 561
c-14 -10 -44 -24 -63 -31c81 -155 89 -373 89 -530v-304h457v270zM710 870h146c35 0 41 -21 46 -130c15 12 42 23 61 28c-8 131 -27 167 -103 167h-156c-85 0 -108 -23 -108 -105v-441h66v206c74 -40 161 -93 216 -136l49 49c-79 54 -182 110 -265 150v171c0 34 8 41 48 41z
" />
</svg>
