<?xml version="1.0" standalone="no"?>
<!DOCTYPE svg PUBLIC "-//W3C//DTD SVG 1.1//EN" "http://www.w3.org/Graphics/SVG/1.1/DTD/svg11.dtd" >
<svg xmlns="http://www.w3.org/2000/svg" xmlns:xlink="http://www.w3.org/1999/xlink" version="1.1" viewBox="-10 0 1010 1000">
   <path fill="currentColor"
d="M928 286l-55 40c-8 -12 -17 -27 -28 -43c-299 22 -334 27 -357 37c-3 -17 -14 -55 -21 -75c13 -3 29 -18 45 -37c18 -20 74 -94 111 -169l67 27c-36 61 -78 122 -122 170l233 -14c-25 -35 -51 -70 -75 -99l51 -34c50 62 118 147 151 197zM728 362l41 -41
c59 43 141 108 189 154l-45 49c-41 -43 -123 -114 -185 -162zM594 324l57 27c-52 63 -125 135 -182 182c-12 -13 -36 -36 -49 -48c59 -42 127 -104 174 -161zM339 50l40 45c-70 52 -188 96 -295 124c-9 -16 -23 -40 -36 -53c105 -26 225 -72 291 -116zM405 214l42 43
c-39 43 -91 83 -150 119c127 175 118 465 49 532c-26 28 -51 38 -91 39c-18 0 -48 -1 -74 -3c-1 -19 -7 -46 -17 -66c30 3 60 5 76 5c23 0 39 -3 55 -22c24 -23 40 -100 35 -191c-69 71 -164 142 -243 184c-8 -16 -24 -41 -37 -54c93 -41 207 -126 272 -204
c-5 -26 -12 -53 -20 -79c-59 53 -142 109 -207 144c-8 -16 -24 -40 -36 -53c72 -31 167 -89 222 -143c-10 -21 -22 -41 -34 -58c-52 28 -107 56 -162 78c-8 -15 -24 -37 -36 -49c35 -14 71 -30 106 -48c-16 -38 -45 -88 -72 -127l50 -26c29 38 59 89 74 126
c28 -16 55 -33 81 -50c-14 -34 -37 -77 -59 -111l49 -24c22 29 43 68 58 99c27 -20 49 -41 69 -61zM797 603h-195c23 51 54 97 92 137c42 -39 77 -84 103 -137zM843 540l41 19c-30 92 -80 166 -143 224c63 51 138 89 224 110c-13 14 -32 41 -41 60
c-90 -26 -168 -69 -233 -128c-74 55 -160 92 -249 117c-7 -19 -22 -44 -33 -60c84 -20 166 -53 236 -103c-34 -38 -63 -81 -86 -128c-29 36 -58 69 -88 95c-9 -12 -34 -36 -48 -47c72 -61 144 -152 186 -245l59 19c-10 24 -23 47 -36 70h198z" />
</svg>
