<?xml version="1.0" standalone="no"?>
<!DOCTYPE svg PUBLIC "-//W3C//DTD SVG 1.1//EN" "http://www.w3.org/Graphics/SVG/1.1/DTD/svg11.dtd" >
<svg xmlns="http://www.w3.org/2000/svg" xmlns:xlink="http://www.w3.org/1999/xlink" version="1.1" viewBox="-10 0 1010 1000">
   <path fill="currentColor"
d="M323 50l39 46c-68 52 -182 96 -287 123c-8 -16 -23 -39 -34 -53c102 -25 219 -71 282 -116zM387 214l41 43c-38 43 -89 83 -146 120c123 174 114 464 48 531c-25 28 -50 38 -89 39c-18 0 -47 -1 -72 -3c-1 -19 -6 -46 -16 -66c29 3 58 5 74 5c22 0 37 -3 53 -21
c24 -24 40 -101 35 -192c-68 70 -159 142 -236 184c-8 -16 -24 -40 -37 -54c90 -41 202 -125 264 -203c-4 -26 -11 -53 -19 -80c-57 53 -137 111 -201 144c-7 -16 -23 -40 -36 -53c71 -30 164 -89 217 -143c-10 -20 -21 -40 -33 -58c-50 29 -104 56 -158 78
c-8 -14 -23 -37 -34 -49c34 -14 68 -30 102 -48c-14 -38 -43 -88 -69 -127l48 -26c27 38 57 90 72 126c27 -16 53 -33 78 -50c-13 -34 -36 -77 -57 -111l47 -24c22 29 43 68 57 100c26 -21 48 -42 67 -62zM514 305v269c0 121 -12 280 -90 383c-12 -12 -41 -31 -57 -39
c73 -96 80 -234 80 -344v-327h195v-203h73v80h211v58h-211v65h182l11 -3l50 12c-7 50 -18 109 -30 146l-54 -13l5 39l-168 16v50c0 21 5 25 35 25h100c21 0 26 -7 29 -54c14 9 40 18 59 21c-7 68 -27 86 -80 86h-117c-75 0 -94 -16 -94 -78v-44l-107 10l-6 -51l113 -10v-91
h68v85l158 -15c4 -20 8 -47 12 -73h-367zM847 879h20c7 0 15 -1 19 -4c4 -4 7 -12 9 -22c2 -16 4 -55 4 -99c13 12 38 24 56 30c-1 46 -4 95 -10 112c-5 17 -13 29 -26 38c-11 6 -29 10 -45 10h-44c-20 0 -39 -4 -53 -16c-15 -14 -17 -27 -17 -71v-183h-92
c-6 162 -32 238 -152 286c-6 -14 -25 -39 -38 -49c114 -45 125 -114 127 -295h222v243c0 6 0 12 4 15c3 3 9 5 16 5z" />
</svg>
