<?xml version="1.0" standalone="no"?>
<!DOCTYPE svg PUBLIC "-//W3C//DTD SVG 1.1//EN" "http://www.w3.org/Graphics/SVG/1.1/DTD/svg11.dtd" >
<svg xmlns="http://www.w3.org/2000/svg" xmlns:xlink="http://www.w3.org/1999/xlink" version="1.1" viewBox="-10 0 1010 1000">
   <path fill="currentColor"
d="M326 50l40 45c-69 52 -186 96 -292 123c-8 -15 -23 -39 -35 -53c104 -25 223 -71 287 -115zM217 200l49 -25c21 30 42 67 56 98c20 -16 37 -32 52 -49l43 42c-35 40 -80 77 -132 111c126 174 116 464 50 531c-26 28 -51 38 -92 39c-17 0 -47 -1 -72 -3
c-1 -19 -7 -46 -17 -66c30 3 59 5 76 5c21 0 37 -3 53 -22c23 -23 40 -100 34 -191c-68 71 -161 142 -239 184c-8 -16 -25 -40 -37 -54c91 -41 204 -125 268 -203c-5 -26 -11 -52 -19 -79c-59 53 -141 110 -205 143c-7 -16 -24 -40 -37 -53c72 -30 166 -89 220 -143
c-9 -20 -20 -39 -32 -57c-52 31 -108 59 -163 83c-8 -15 -24 -37 -36 -49c36 -15 71 -32 107 -51c-15 -39 -45 -90 -71 -131l49 -25c28 38 58 90 74 127c28 -17 54 -35 80 -52c-14 -34 -36 -77 -59 -110zM582 195v84h179v-84h-179zM644 787v-312h-163v310
c25 -47 46 -111 59 -166c-12 -31 -24 -61 -36 -88l40 -17c42 87 83 202 100 273zM826 341h-124v72h228v473c0 32 -6 49 -28 60c-22 10 -57 11 -108 11c-1 -17 -9 -42 -17 -58c36 1 68 1 78 0c10 0 13 -4 13 -14v-97l-37 20c-8 -34 -24 -80 -42 -128c-16 49 -35 96 -57 134
c-8 -9 -22 -22 -33 -29c26 -47 48 -111 63 -168c-15 -31 -29 -62 -43 -89l39 -18c44 83 90 187 110 259v-294h-170v483h-54v-161l-41 20c-7 -35 -21 -79 -37 -126c-15 47 -34 93 -56 131c-6 -8 -19 -19 -29 -27v161h-61v-543h220v-72h-121v-146h-121v-63h121v-89h63v89h179
v-89h65v89h128v63h-128v146z" />
</svg>
