<?xml version="1.0" standalone="no"?>
<!DOCTYPE svg PUBLIC "-//W3C//DTD SVG 1.1//EN" "http://www.w3.org/Graphics/SVG/1.1/DTD/svg11.dtd" >
<svg xmlns="http://www.w3.org/2000/svg" xmlns:xlink="http://www.w3.org/1999/xlink" version="1.1" viewBox="-10 0 1010 1000">
   <path fill="currentColor"
d="M321 50l38 46c-68 52 -182 96 -285 123c-7 -16 -21 -39 -33 -53c101 -25 217 -71 280 -116zM358 218l38 42c-32 39 -75 78 -123 112c122 174 114 470 49 537c-25 28 -48 38 -87 39c-17 0 -45 -1 -69 -3c-2 -19 -7 -46 -16 -66c28 3 56 5 72 5c22 0 36 -3 52 -22
c23 -23 38 -102 33 -194c-66 72 -157 144 -233 187c-8 -17 -23 -42 -36 -54c91 -42 199 -127 261 -205c-4 -27 -10 -53 -18 -79c-56 52 -136 110 -199 144c-8 -15 -22 -40 -35 -54c70 -30 162 -88 214 -143c-9 -21 -21 -42 -33 -61c-47 30 -97 57 -146 80
c-8 -14 -22 -37 -34 -48c32 -14 63 -31 94 -48c-14 -37 -41 -87 -65 -125l46 -25c25 36 53 84 68 120c24 -15 47 -31 69 -48c-12 -31 -32 -73 -53 -105l46 -25c19 27 38 64 51 94c21 -18 38 -36 54 -55zM506 718l65 16c-29 68 -78 137 -125 182c-13 -12 -40 -31 -56 -40
c47 -40 91 -98 116 -158zM772 744l58 -29c42 51 93 121 114 166l-59 34c-22 -46 -70 -118 -113 -171zM802 497v-71h-256v71h256zM802 621v-72h-256v72h256zM702 214h-50c-24 60 -54 112 -89 158h231c-38 -47 -69 -102 -92 -158zM889 235l49 36c-25 27 -54 55 -80 76
c33 36 71 67 110 86c-15 13 -35 36 -46 54c-20 -11 -38 -24 -56 -40v229h-158v206c0 34 -6 52 -31 63c-24 10 -60 11 -112 11c-3 -20 -13 -45 -22 -63c40 1 74 1 84 0c11 -1 14 -3 14 -13v-204h-156v-224c-17 14 -34 27 -53 39c-9 -13 -33 -39 -46 -51
c41 -25 79 -55 111 -92c-20 -23 -48 -51 -73 -72l42 -40c23 18 49 42 69 63c18 -26 34 -55 47 -85h-167v-64h192c10 -33 19 -70 26 -107l65 9c-7 34 -15 67 -24 98h276v64h-184c15 31 34 63 56 91c24 -23 50 -50 67 -70z" />
</svg>
