<?xml version="1.0" standalone="no"?>
<!DOCTYPE svg PUBLIC "-//W3C//DTD SVG 1.1//EN" "http://www.w3.org/Graphics/SVG/1.1/DTD/svg11.dtd" >
<svg xmlns="http://www.w3.org/2000/svg" xmlns:xlink="http://www.w3.org/1999/xlink" version="1.1" viewBox="-10 0 1010 1000">
   <path fill="currentColor"
d="M730 674l19 -50c73 10 154 29 202 49l-24 55c-47 -22 -125 -42 -197 -54zM751 602l-21 -46c50 -9 129 -35 173 -50l27 54c-52 20 -128 35 -179 42zM835 234v-51h-311v51h311zM835 328v-51h-311v51h311zM835 423v-52h-311v52h311zM904 134v338h-447v-338h164
c7 -28 14 -62 20 -90l77 7c-9 28 -19 57 -29 83h215zM429 733l-17 -59c53 -11 133 -30 210 -49l2 52c-68 20 -139 41 -195 56zM619 555l-21 52c-40 -16 -116 -38 -173 -50l21 -47c55 9 132 29 173 45zM327 50l41 45c-70 52 -187 96 -293 124c-8 -16 -23 -40 -35 -54
c105 -25 223 -71 287 -115zM393 214l41 43c-38 43 -89 84 -148 120c127 173 116 464 49 531c-25 28 -50 38 -90 39c-18 0 -48 -1 -74 -3c0 -19 -5 -46 -15 -66c29 3 58 5 75 5c22 0 38 -3 54 -22c24 -23 40 -101 34 -192c-68 71 -162 143 -241 185c-8 -16 -24 -40 -37 -54
c92 -41 205 -125 270 -204c-5 -26 -12 -53 -19 -78c-59 52 -141 110 -205 143c-8 -16 -24 -40 -37 -53c73 -30 167 -89 220 -143c-9 -20 -21 -40 -33 -58c-51 29 -106 56 -161 79c-8 -15 -24 -38 -35 -49c37 -15 75 -33 112 -52c-14 -37 -43 -88 -69 -126l49 -26
c27 38 57 87 72 123c25 -14 48 -29 71 -45c-13 -33 -36 -77 -59 -111l49 -26c22 31 44 71 58 103c27 -21 49 -42 69 -63zM715 490v269h235v60h-235v138h-70v-138h-244v-60h244v-269h70z" />
</svg>
