<?xml version="1.0" standalone="no"?>
<!DOCTYPE svg PUBLIC "-//W3C//DTD SVG 1.1//EN" "http://www.w3.org/Graphics/SVG/1.1/DTD/svg11.dtd" >
<svg xmlns="http://www.w3.org/2000/svg" xmlns:xlink="http://www.w3.org/1999/xlink" version="1.1" viewBox="-10 0 1010 1000">
   <path fill="currentColor"
d="M309 275v-122h-159v122h159zM309 456v-122h-159v122h159zM309 638v-124h-159v124h159zM376 91v608h-291v-608h291zM143 731l63 19c-30 68 -72 146 -107 198c-12 -10 -39 -28 -56 -35c37 -49 74 -120 100 -182zM256 759l52 -29c38 53 85 122 106 166l-55 32
c-20 -45 -67 -117 -103 -169zM794 571l15 57c-115 60 -239 123 -331 169l-25 -69c85 -36 216 -98 341 -157zM741 518l-51 50c-35 -43 -105 -111 -165 -157l48 -43c62 46 132 109 168 150zM933 201v38c-13 469 -24 627 -62 675c-21 28 -43 37 -78 41c-33 4 -91 2 -148 -1
c-1 -22 -9 -52 -22 -72c63 6 119 6 142 6c20 0 30 -3 41 -16c30 -34 43 -188 54 -601h-307c-23 49 -50 93 -76 128c-14 -10 -45 -32 -64 -42c64 -77 117 -197 149 -313l72 18c-14 47 -31 94 -49 139h348z" />
</svg>
