<?xml version="1.0" standalone="no"?>
<!DOCTYPE svg PUBLIC "-//W3C//DTD SVG 1.1//EN" "http://www.w3.org/Graphics/SVG/1.1/DTD/svg11.dtd" >
<svg xmlns="http://www.w3.org/2000/svg" xmlns:xlink="http://www.w3.org/1999/xlink" version="1.1" viewBox="-10 0 1010 1000">
   <path fill="currentColor"
d="M309 275v-122h-159v122h159zM309 456v-123h-159v123h159zM309 638v-124h-159v124h159zM376 91v608h-291v-608h291zM143 731l63 19c-30 64 -72 139 -106 188c-13 -10 -40 -27 -55 -35c35 -47 72 -113 98 -172zM256 759l52 -29c34 47 75 109 94 147l-54 34
c-18 -41 -59 -105 -92 -152zM944 249h-391c-27 57 -58 108 -91 148c-12 -12 -42 -35 -59 -46c67 -75 118 -191 147 -308l72 15c-11 43 -25 84 -40 123h362v68zM643 890h198c44 0 52 -20 57 -115c17 12 43 23 64 27c-10 118 -32 152 -118 152h-206c-100 0 -128 -23 -128 -111
v-249l-61 28l-26 -59l87 -40v-164h68v133l97 -45v-166h64v136l106 -49l10 -7l13 -9l47 17l-3 12c-1 137 -2 260 -6 287c-4 32 -20 48 -45 54c-22 6 -54 6 -77 6c-3 -18 -8 -43 -17 -58c19 1 45 1 53 1c12 0 19 -3 22 -18c3 -14 4 -100 5 -215l-108 49v297h-64v-267l-97 45
v281c0 39 10 47 65 47z" />
</svg>
