<?xml version="1.0" standalone="no"?>
<!DOCTYPE svg PUBLIC "-//W3C//DTD SVG 1.1//EN" "http://www.w3.org/Graphics/SVG/1.1/DTD/svg11.dtd" >
<svg xmlns="http://www.w3.org/2000/svg" xmlns:xlink="http://www.w3.org/1999/xlink" version="1.1" viewBox="-10 0 1010 1000">
   <path fill="currentColor"
d="M363 822l59 29c-83 41 -213 83 -314 106c-10 -14 -30 -44 -43 -56c101 -17 224 -47 298 -79zM262 712v56h479v-56h-479zM262 613v55h479v-55h-479zM262 514v55h479v-55h-479zM815 814h-198c117 26 238 61 315 89l-33 51c-75 -29 -195 -66 -312 -94l25 -46h-421v-332
c-33 10 -67 19 -101 27c-6 -15 -22 -39 -35 -52c67 -13 134 -32 194 -62c-21 -20 -48 -44 -74 -61l46 -32c28 18 60 43 80 66c47 -28 89 -64 117 -104h-220c-25 32 -54 60 -85 81c-10 -11 -34 -33 -47 -43c60 -37 107 -95 128 -166l64 11c-7 22 -16 43 -26 63h69v-164h68v59
h143v53h-143v52h88l13 -2l43 18c-53 116 -161 195 -287 243h589v345zM827 157h-207c24 48 56 90 97 127c45 -36 82 -79 110 -127zM875 97l44 18c-32 84 -85 154 -150 211c55 37 120 66 191 85c-16 14 -35 38 -45 55c-75 -23 -141 -56 -198 -100c-62 42 -132 74 -203 97
c-8 -17 -25 -41 -39 -55c67 -18 133 -47 192 -85c-45 -44 -82 -95 -108 -152l46 -14h-71v-58h328z" />
</svg>
