<?xml version="1.0" standalone="no"?>
<!DOCTYPE svg PUBLIC "-//W3C//DTD SVG 1.1//EN" "http://www.w3.org/Graphics/SVG/1.1/DTD/svg11.dtd" >
<svg xmlns="http://www.w3.org/2000/svg" xmlns:xlink="http://www.w3.org/1999/xlink" version="1.1" viewBox="-10 0 1010 1000">
   <path fill="currentColor"
d="M819 342v-171h-205v171h205zM891 110v293h-346v-293h346zM494 394l-46 49c-30 -23 -101 -72 -151 -104c-33 48 -92 95 -197 133c-9 -14 -30 -36 -46 -49c112 -34 165 -78 189 -122h-183v-54h202c1 -13 2 -24 2 -35v-44h-84c-19 27 -39 53 -59 72c-13 -9 -42 -24 -59 -32
c48 -42 86 -104 108 -167l67 11c-8 22 -17 42 -27 63h272v53h-147v44c0 11 -1 22 -2 35h176v54h-177c49 26 138 77 162 93zM356 823l66 28c-80 43 -206 83 -305 107c-12 -13 -37 -39 -54 -51c102 -18 221 -49 293 -84zM256 713v61h499v-61h-499zM256 606v60h499v-60h-499z
M256 500v59h499v-59h-499zM829 822h-178c107 29 223 67 294 95l-61 40c-65 -28 -174 -67 -287 -99l45 -36h-458v-370h645v370z" />
</svg>
