<?xml version="1.0" standalone="no"?>
<!DOCTYPE svg PUBLIC "-//W3C//DTD SVG 1.1//EN" "http://www.w3.org/Graphics/SVG/1.1/DTD/svg11.dtd" >
<svg xmlns="http://www.w3.org/2000/svg" xmlns:xlink="http://www.w3.org/1999/xlink" version="1.1" viewBox="-10 0 1010 1000">
   <path fill="currentColor"
d="M287 275v-122h-137v122h137zM287 456v-122h-137v122h137zM287 638v-124h-137v124h137zM354 91v608h-269v-608h269zM141 731l64 19c-29 67 -68 146 -101 198c-12 -10 -40 -28 -55 -35c34 -49 69 -120 92 -182zM249 751l55 -22c28 46 62 108 77 147l-57 27
c-14 -40 -47 -104 -75 -152zM511 717h287v-73h-287v73zM798 521h-287v70h287v-70zM798 463h72v412c0 38 -9 57 -37 67c-29 11 -77 12 -152 11c-3 -18 -13 -44 -22 -61c57 1 106 1 120 0c15 -1 19 -5 19 -17v-105h-287v185h-71v-491zM689 348h261v57h-581v-57h248v-65h-190
v-55h190v-60h-219v-57h219v-68h72v68h240v57h-240v60h211v55h-211v65z" />
</svg>
