<?xml version="1.0" standalone="no"?>
<!DOCTYPE svg PUBLIC "-//W3C//DTD SVG 1.1//EN" "http://www.w3.org/Graphics/SVG/1.1/DTD/svg11.dtd" >
<svg xmlns="http://www.w3.org/2000/svg" xmlns:xlink="http://www.w3.org/1999/xlink" version="1.1" viewBox="-10 0 1010 1000">
   <path fill="currentColor"
d="M841 81l68 17c-26 66 -65 139 -100 186c-14 -10 -44 -24 -60 -32c36 -45 70 -111 92 -171zM815 429v-79h-314v79h314zM815 566v-81h-314v81h314zM815 703v-81h-314v81h314zM431 291h192v-248h70v248h195v471h-457v-471zM564 253l-66 23c-15 -46 -50 -120 -85 -176l61 -20
c37 54 75 127 90 173zM301 275v-122h-155v122h155zM301 456v-123h-155v123h155zM301 638v-124h-155v124h155zM364 91v608h-280v-608h280zM141 731l59 19c-28 64 -69 139 -103 188c-12 -10 -38 -27 -52 -35c34 -47 71 -113 96 -172zM248 755l50 -27c31 45 66 101 83 138
l-54 30c-16 -37 -51 -98 -79 -141zM550 778l70 23c-51 64 -135 123 -209 161c-13 -14 -40 -38 -58 -49c76 -33 153 -82 197 -135zM711 809l54 -32c71 47 152 105 198 149l-73 29c-40 -41 -112 -100 -179 -146z" />
</svg>
