<?xml version="1.0" standalone="no"?>
<!DOCTYPE svg PUBLIC "-//W3C//DTD SVG 1.1//EN" "http://www.w3.org/Graphics/SVG/1.1/DTD/svg11.dtd" >
<svg xmlns="http://www.w3.org/2000/svg" xmlns:xlink="http://www.w3.org/1999/xlink" version="1.1" viewBox="-10 0 1010 1000">
   <path fill="currentColor"
d="M894 225l-56 37c-20 -42 -67 -105 -110 -150l52 -32c44 43 92 104 114 145zM517 400l-8 -66l131 -14c-9 -85 -13 -176 -15 -270h71c0 93 4 182 12 262l237 -27l8 63l-238 29c27 229 81 382 140 382c20 0 30 -48 33 -157c16 15 39 29 57 35c-11 148 -34 192 -97 192
c-105 0 -171 -186 -201 -444zM327 620v210c72 33 163 40 273 40c46 0 306 0 363 -2c-12 17 -26 50 -30 72h-333c-212 0 -357 -30 -443 -187c-12 80 -31 150 -66 205c-9 -11 -38 -33 -53 -43c61 -96 69 -248 71 -422l67 4c-1 53 -3 103 -7 151c23 61 53 106 90 139v-367h-205
v-67h192v-125h-160v-66h160v-118h69v118h153v66h-153v125h182v67h-170v134h147v66h-147z" />
</svg>
