<?xml version="1.0" standalone="no"?>
<!DOCTYPE svg PUBLIC "-//W3C//DTD SVG 1.1//EN" "http://www.w3.org/Graphics/SVG/1.1/DTD/svg11.dtd" >
<svg xmlns="http://www.w3.org/2000/svg" xmlns:xlink="http://www.w3.org/1999/xlink" version="1.1" viewBox="-10 0 1010 1000">
   <path fill="currentColor"
d="M766 692v-301c-64 120 -155 240 -245 305c-7 -19 -25 -49 -38 -67c95 -66 197 -189 255 -311h-227v-68h255v-206h74v206h111v68h-111v374c0 44 -11 66 -39 78c-29 12 -77 14 -149 14c-3 -20 -15 -54 -26 -74c55 2 106 2 120 1c15 0 20 -4 20 -19zM341 643v163
c83 32 187 40 310 40c40 0 254 0 308 -1c-11 17 -24 49 -29 70h-280c-224 0 -379 -27 -481 -153c-15 68 -37 128 -69 177c-12 -11 -43 -34 -59 -43c64 -90 82 -233 88 -394l71 3c-3 59 -8 115 -15 168c24 42 53 73 89 97v-332h-211v-67h186v-119h-155v-67h155v-141h73v141
h142v67h-142v119h151v67h-132v134h133v71h-133z" />
</svg>
