<?xml version="1.0" standalone="no"?>
<!DOCTYPE svg PUBLIC "-//W3C//DTD SVG 1.1//EN" "http://www.w3.org/Graphics/SVG/1.1/DTD/svg11.dtd" >
<svg xmlns="http://www.w3.org/2000/svg" xmlns:xlink="http://www.w3.org/1999/xlink" version="1.1" viewBox="-10 0 1010 1000">
   <path fill="currentColor"
d="M509 505h69c4 -34 5 -70 5 -107v-3h-65c-2 37 -5 76 -9 110zM643 228v104h83v-104h-83zM856 228h-70v104h70v-104zM726 505v-110h-83v4c0 36 -1 72 -4 106h87zM726 569h-96c-17 96 -60 180 -154 247c-11 -14 -34 -35 -48 -45c82 -56 121 -125 139 -202h-126
c9 -62 17 -161 20 -237h122v-104h-128v-63h128v-119h60v119h83v-119h60v119h135v230h-135v110h160s0 17 -1 26c-5 127 -10 179 -26 198c-10 13 -23 19 -42 21c-13 1 -36 2 -58 1c-1 -18 -6 -42 -13 -57c20 3 35 3 42 3c9 0 13 -1 18 -8c8 -10 12 -41 16 -120h-96v235h-60
v-235zM317 629v173c78 36 181 46 309 47c39 0 279 0 333 -2c-11 17 -24 50 -29 70h-305c-224 0 -367 -29 -461 -157c-14 67 -36 127 -67 176c-12 -11 -41 -32 -56 -40c63 -91 81 -233 87 -394l67 4c-3 56 -8 109 -14 159c19 40 43 71 73 97v-324h-191v-67h160v-119h-136v-67
h136v-141h66v141h120v67h-120v119h137v67h-109v126h96v65h-96z" />
</svg>
