<?xml version="1.0" standalone="no"?>
<!DOCTYPE svg PUBLIC "-//W3C//DTD SVG 1.1//EN" "http://www.w3.org/Graphics/SVG/1.1/DTD/svg11.dtd" >
<svg xmlns="http://www.w3.org/2000/svg" xmlns:xlink="http://www.w3.org/1999/xlink" version="1.1" viewBox="-10 0 1010 1000">
   <path fill="currentColor"
d="M566 396v177h128v-177h-128zM505 636v-289c-10 16 -21 29 -31 42c-13 -13 -42 -36 -58 -47c65 -70 117 -180 146 -293l69 16c-8 32 -18 64 -30 94h325s-1 27 -1 36c-10 397 -19 532 -50 574c-19 26 -39 34 -69 37c-29 3 -81 2 -133 -1c-1 -21 -9 -51 -22 -71
c56 6 107 6 127 6c17 0 28 -2 37 -15c23 -29 33 -156 43 -498h-285c-18 38 -37 74 -59 106h243v303h-252zM317 638v162c72 35 166 45 286 45c49 0 299 0 360 -2c-12 18 -25 51 -29 74h-330c-222 0 -360 -34 -446 -181c-11 83 -29 155 -59 212c-12 -10 -41 -31 -57 -41
c51 -94 62 -245 66 -405l68 4c-1 43 -3 84 -6 124c21 53 47 93 79 124v-316h-194v-66h164v-142h-138v-66h138v-120h69v120h128v66h-128v142h156v66h-127v134h132v66h-132z" />
</svg>
