<?xml version="1.0" standalone="no"?>
<!DOCTYPE svg PUBLIC "-//W3C//DTD SVG 1.1//EN" "http://www.w3.org/Graphics/SVG/1.1/DTD/svg11.dtd" >
<svg xmlns="http://www.w3.org/2000/svg" xmlns:xlink="http://www.w3.org/1999/xlink" version="1.1" viewBox="-10 0 1010 1000">
   <path fill="currentColor"
d="M821 364h-205v82h205v-82zM616 588h205v-87h-205v87zM325 633v185c71 33 162 41 274 41c44 0 313 0 369 -2c-11 17 -24 50 -29 71h-341c-212 0 -352 -30 -435 -190c-17 86 -44 160 -83 219c-10 -10 -37 -32 -52 -41c68 -93 90 -245 99 -412l64 4c-3 47 -7 91 -13 134
c21 57 47 99 81 131v-345h-202v-66h176v-125h-148v-66h148v-127h67v127h139v66h-139v125h154v33c52 -48 94 -108 127 -179h-116v-64h142c13 -35 23 -73 31 -112l66 12c-8 34 -18 68 -27 100h272v64h-297c-13 31 -27 62 -44 90h279v436c0 32 -6 48 -29 58
c-21 10 -56 11 -107 11c-3 -17 -12 -40 -20 -57c35 1 67 1 76 1c10 -1 14 -4 14 -14v-98h-205v167h-69v-415c-21 26 -43 48 -67 69c-6 -9 -21 -24 -35 -36h-120v139h124v66h-124z" />
</svg>
