<?xml version="1.0" standalone="no"?>
<!DOCTYPE svg PUBLIC "-//W3C//DTD SVG 1.1//EN" "http://www.w3.org/Graphics/SVG/1.1/DTD/svg11.dtd" >
<svg xmlns="http://www.w3.org/2000/svg" xmlns:xlink="http://www.w3.org/1999/xlink" version="1.1" viewBox="-10 0 1010 1000">
   <path fill="currentColor"
d="M686 46l60 24c-5 10 -10 20 -15 29c61 94 137 159 225 213c-18 16 -38 39 -48 58c-82 -59 -150 -125 -211 -213c-57 89 -132 168 -211 222c-11 -17 -31 -39 -49 -54c100 -61 198 -169 249 -279zM578 698h244v-154h-244v154zM893 803h-71v-46h-244v51h-68v-329h383v324z
M566 325h273v62h-273v-62zM311 629v199c61 28 139 37 243 37c45 0 351 1 408 -1c-12 16 -25 48 -29 68h-377c-216 0 -332 -35 -401 -189c-13 83 -33 156 -65 214c-11 -9 -41 -30 -57 -39c56 -99 71 -257 76 -430l68 6c-2 47 -5 92 -9 136c19 65 43 113 75 148v-352h-187v-67
h172v-130h-139v-65h139v-120h70v120h122v65h-122v130h131v67h-118v137h111v66h-111z" />
</svg>
