<?xml version="1.0" standalone="no"?>
<!DOCTYPE svg PUBLIC "-//W3C//DTD SVG 1.1//EN" "http://www.w3.org/Graphics/SVG/1.1/DTD/svg11.dtd" >
<svg xmlns="http://www.w3.org/2000/svg" xmlns:xlink="http://www.w3.org/1999/xlink" version="1.1" viewBox="-10 0 1010 1000">
   <path fill="currentColor"
d="M534 146v251c0 130 -10 312 -81 435c-10 -11 -38 -30 -53 -37c65 -117 71 -278 71 -398v-307h450v643c0 37 -7 57 -32 69c-25 11 -69 13 -129 13c-3 -19 -12 -48 -22 -66c47 2 91 1 104 0c13 0 16 -4 16 -18v-585h-324zM564 373h103v-74h-94v-50h94v-76h52v76h92v50h-92
v74h107v49h-262v-49zM749 632v-104h-121v104h121zM800 478v204h-221v-204h221zM301 620v206c64 32 149 42 259 42c44 0 344 0 401 -1c-12 16 -24 47 -28 68h-372c-217 0 -339 -35 -411 -184c-12 73 -31 144 -65 205c-10 -16 -34 -38 -48 -45c65 -120 69 -287 65 -419l61 4
c1 42 0 88 -2 134c19 64 43 111 75 147v-355h-183v-67h163v-118h-139v-66h139v-128h65v128h141v66h-141v118h160v67h-140v132h123v66h-123z" />
</svg>
