<?xml version="1.0" standalone="no"?>
<!DOCTYPE svg PUBLIC "-//W3C//DTD SVG 1.1//EN" "http://www.w3.org/Graphics/SVG/1.1/DTD/svg11.dtd" >
<svg xmlns="http://www.w3.org/2000/svg" xmlns:xlink="http://www.w3.org/1999/xlink" version="1.1" viewBox="-10 0 1010 1000">
   <path fill="currentColor"
d="M696 618h-115c-40 61 -90 114 -151 157c-9 -14 -33 -42 -47 -55c92 -58 154 -139 196 -243h-143v-58h164c8 -24 15 -48 21 -74h-138v-58h149c4 -22 8 -46 11 -70h-197v-60h119c-10 -25 -31 -60 -50 -85l58 -24c23 27 46 63 56 88l-46 21h164c22 -36 44 -81 57 -114l71 19
c-18 32 -38 67 -56 95h101v60h-208c-4 24 -8 48 -12 70h185v58h-197c-5 26 -12 50 -18 74h261v58h-280c-11 28 -23 55 -35 80h277v61h-132v104h171v61h-420v-61h184v-104zM317 629v173c78 36 181 46 308 47c40 0 280 0 334 -2c-11 17 -24 50 -28 70h-306
c-224 0 -367 -29 -461 -158c-14 68 -36 128 -67 177c-12 -11 -41 -32 -56 -40c63 -91 81 -233 87 -394l67 4c-3 56 -8 109 -14 159c19 40 43 71 73 96v-323h-185v-67h154v-119h-136v-67h136v-141h66v141h115v67h-115v119h133v68h-105v125h100v65h-100z" />
</svg>
