<?xml version="1.0" standalone="no"?>
<!DOCTYPE svg PUBLIC "-//W3C//DTD SVG 1.1//EN" "http://www.w3.org/Graphics/SVG/1.1/DTD/svg11.dtd" >
<svg xmlns="http://www.w3.org/2000/svg" xmlns:xlink="http://www.w3.org/1999/xlink" version="1.1" viewBox="-10 0 1010 1000">
   <path fill="currentColor"
d="M892 200l-48 38c-7 -11 -18 -22 -31 -35c-290 15 -322 18 -341 26c-3 -14 -12 -48 -18 -66c12 -2 26 -9 40 -21c15 -11 69 -55 103 -101l62 21c-34 38 -73 74 -109 102l214 -10c-18 -16 -36 -31 -54 -45l44 -33c48 34 108 87 138 124zM701 364l-9 10l15 12
c-1 -7 -3 -14 -6 -22zM606 384l-7 -14c-147 21 -169 27 -182 34c-3 -12 -11 -43 -17 -58c10 -2 19 -8 29 -19c9 -10 44 -51 63 -93l50 24c-18 30 -41 58 -62 82l96 -12c-9 -15 -19 -29 -29 -42l39 -22c21 25 44 58 57 86l7 -9l49 14c-3 -9 -6 -18 -9 -25c9 -2 18 -9 26 -20
s34 -52 47 -96l56 24c-17 34 -38 68 -59 95l92 -9c-12 -17 -24 -34 -37 -49l45 -25c33 36 70 89 85 124l-47 30c-5 -11 -11 -24 -18 -37c-118 13 -150 19 -165 24c65 44 161 80 245 97c-10 16 -20 44 -24 61c-97 -28 -209 -80 -279 -139c-62 55 -145 99 -252 133
c-6 -15 -19 -40 -28 -52c97 -27 175 -65 229 -107zM671 467l38 28c-54 55 -164 108 -257 131c-8 -13 -23 -31 -36 -42c93 -17 205 -66 255 -117zM762 531l38 29c-70 76 -215 143 -343 168c-8 -14 -22 -32 -36 -44c129 -19 274 -83 341 -153zM865 597l41 33
c-93 99 -285 181 -458 208c-8 -16 -22 -38 -37 -51c176 -20 368 -97 454 -190zM303 629v172c79 43 186 54 320 54c38 0 282 0 334 -1c-11 16 -23 45 -27 65h-308c-225 0 -368 -31 -460 -163c-15 69 -37 129 -68 178c-11 -10 -38 -30 -53 -38c63 -91 81 -233 87 -394l63 4
c-3 56 -7 110 -14 160c18 38 40 69 67 94v-322h-181v-67h151v-119h-126v-67h126v-141h62v141h104v67h-104v119h117v67h-90v126h81v65h-81z" />
</svg>
