<?xml version="1.0" standalone="no"?>
<!DOCTYPE svg PUBLIC "-//W3C//DTD SVG 1.1//EN" "http://www.w3.org/Graphics/SVG/1.1/DTD/svg11.dtd" >
<svg xmlns="http://www.w3.org/2000/svg" xmlns:xlink="http://www.w3.org/1999/xlink" version="1.1" viewBox="-10 0 1010 1000">
   <path fill="currentColor"
d="M696 409h173c-30 -28 -60 -63 -83 -98c-19 34 -48 68 -90 98zM809 501v-44h-293v44h293zM809 587v-44h-293v44h293zM809 674v-46h-293v46h293zM453 409h224c-10 -12 -24 -27 -35 -34c45 -26 74 -59 92 -91h-67v-55h88c6 -20 8 -41 9 -59h-89v-55h90v-71h62v71h98v55h-99
c-1 18 -3 39 -8 59h118v55h-101c30 40 73 80 113 100c-15 12 -36 35 -47 50c-8 -5 -18 -12 -27 -20v308h-106c64 23 132 50 175 72l-56 40c-43 -23 -114 -55 -182 -79l35 -33h-168l42 23c-48 36 -129 69 -195 84c-10 -11 -31 -30 -45 -41c63 -14 133 -39 172 -66h-93v-313z
M296 628v173c80 40 188 50 321 51c40 0 286 0 340 -2c-11 17 -24 50 -28 71h-313c-226 0 -371 -30 -465 -157c-11 66 -29 124 -56 174c-10 -10 -37 -29 -52 -37c55 -94 65 -238 69 -399l62 4c-2 55 -5 108 -10 158c19 39 41 70 69 95v-321h-169v-67h147v-119h-123v-67h123
v-141h63v141h101v67h-101v119h118v10c41 -29 67 -63 82 -97h-83v-56h101c4 -20 6 -40 7 -58h-94v-55h94v-71h61v71h77v55h-77c-1 18 -3 38 -7 58h90v56h-106l-2 5c22 12 87 52 103 65l-43 50c-15 -18 -52 -51 -78 -75c-22 38 -52 74 -98 104c-5 -9 -16 -22 -27 -33v38h-96
v126h91v64h-91z" />
</svg>
