<?xml version="1.0" standalone="no"?>
<!DOCTYPE svg PUBLIC "-//W3C//DTD SVG 1.1//EN" "http://www.w3.org/Graphics/SVG/1.1/DTD/svg11.dtd" >
<svg xmlns="http://www.w3.org/2000/svg" xmlns:xlink="http://www.w3.org/1999/xlink" version="1.1" viewBox="-10 0 1010 1000">
   <path fill="currentColor"
d="M157 151v174h189v-174h-189zM426 735l7 64c-130 38 -268 77 -369 107l-18 -71l50 -13v-338h59v323l69 -18v-399h-129v-304h316v304h-123v138h129v66h-129v178c45 -12 91 -24 138 -37zM546 434h149c-5 -82 -8 -171 -9 -262c-47 8 -94 15 -140 21v241zM962 434v70h-193
c17 225 53 370 101 370c18 0 26 -49 29 -157c16 16 40 31 59 38c-10 148 -33 191 -95 191c-96 0 -143 -181 -163 -442h-154v348l157 -48c1 18 5 47 8 63c-195 67 -223 80 -241 95c-8 -19 -28 -52 -40 -66c17 -12 45 -40 45 -82v-674c140 -19 303 -50 397 -82l53 59
c-49 14 -105 28 -166 41c-1 99 1 192 6 276h197z" />
</svg>
