<?xml version="1.0" standalone="no"?>
<!DOCTYPE svg PUBLIC "-//W3C//DTD SVG 1.1//EN" "http://www.w3.org/Graphics/SVG/1.1/DTD/svg11.dtd" >
<svg xmlns="http://www.w3.org/2000/svg" xmlns:xlink="http://www.w3.org/1999/xlink" version="1.1" viewBox="-10 0 1010 1000">
   <path fill="currentColor"
d="M959 468l-68 25c-17 -74 -63 -189 -110 -273l63 -21c49 85 96 196 115 269zM715 44v607h-70v-607h70zM507 213l67 14c-20 113 -53 234 -88 315c-14 -9 -45 -24 -63 -30c36 -77 66 -194 84 -299zM152 151v174h178v-174h-178zM412 737l9 65c-128 37 -264 75 -364 104
l-19 -71c16 -4 32 -8 51 -13v-338h61v324l68 -18v-400h-129v-304h307v304h-114v138h117v66h-117v178zM836 529l68 21c-77 214 -237 341 -491 407c-9 -21 -26 -49 -43 -65c241 -54 394 -170 466 -363z" />
</svg>
