<?xml version="1.0" standalone="no"?>
<!DOCTYPE svg PUBLIC "-//W3C//DTD SVG 1.1//EN" "http://www.w3.org/Graphics/SVG/1.1/DTD/svg11.dtd" >
<svg xmlns="http://www.w3.org/2000/svg" xmlns:xlink="http://www.w3.org/1999/xlink" version="1.1" viewBox="-10 0 1010 1000">
   <path fill="currentColor"
d="M929 190l-53 32c-20 -35 -63 -95 -97 -138l52 -27c33 42 78 100 98 133zM148 151v174h161v-174h-161zM268 776l113 -30l8 65c-117 34 -241 68 -333 95l-18 -71c16 -4 33 -8 52 -13v-338h57v325l58 -16v-403h-118v-304h285v304h-104v138h114v66h-114v182zM856 381l67 10
c-25 146 -63 269 -121 369c22 79 47 118 71 118c18 0 29 -32 34 -146c15 15 37 31 54 37c-11 152 -35 178 -95 179c-45 0 -82 -40 -110 -119c-39 51 -84 95 -135 133c-11 -12 -39 -35 -55 -46c68 -43 122 -100 166 -167c-26 -106 -44 -254 -54 -439h-152v465l108 -65
c4 19 13 49 19 63c-124 80 -172 110 -195 128l-18 17c-7 -17 -27 -51 -40 -66c20 -13 54 -43 54 -87v-524h220c-3 -62 -5 -128 -6 -198h70c0 71 1 136 3 198h202v69h-199c7 145 20 260 35 350c36 -81 60 -174 77 -279z" />
</svg>
