<?xml version="1.0" standalone="no"?>
<!DOCTYPE svg PUBLIC "-//W3C//DTD SVG 1.1//EN" "http://www.w3.org/Graphics/SVG/1.1/DTD/svg11.dtd" >
<svg xmlns="http://www.w3.org/2000/svg" xmlns:xlink="http://www.w3.org/1999/xlink" version="1.1" viewBox="-10 0 1010 1000">
   <path fill="currentColor"
d="M153 151v174h173v-174h-173zM407 736l10 65c-126 37 -261 75 -359 105l-19 -71c16 -4 32 -8 50 -13v-337h62v322l63 -17v-400h-126v-304h306v304h-114v138h121v66h-121v177zM509 418h177c-6 -77 -10 -158 -13 -243c-55 10 -110 19 -164 27v216zM940 485h-180
c21 223 60 382 109 384c18 0 30 -54 38 -152c11 13 41 28 53 33c-18 160 -53 203 -90 203c-101 -1 -153 -192 -178 -468h-183v360l107 -46c-13 -28 -28 -57 -41 -82l51 -18c38 69 84 160 106 212l-55 24c-9 -22 -22 -51 -35 -83c-162 75 -188 90 -204 104
c-5 -17 -18 -47 -28 -62c14 -5 30 -19 30 -57v-689l-1 -2c148 -21 318 -54 414 -90l62 59c-51 16 -110 32 -175 46c3 90 7 177 14 257h186v67z" />
</svg>
