<?xml version="1.0" standalone="no"?>
<!DOCTYPE svg PUBLIC "-//W3C//DTD SVG 1.1//EN" "http://www.w3.org/Graphics/SVG/1.1/DTD/svg11.dtd" >
<svg xmlns="http://www.w3.org/2000/svg" xmlns:xlink="http://www.w3.org/1999/xlink" version="1.1" viewBox="-10 0 1010 1000">
   <path fill="currentColor"
d="M160 151v174h173v-174h-173zM291 767l114 -32l8 64c-127 38 -260 77 -358 107l-17 -71c20 -5 42 -11 67 -17v-333h58v318l66 -19v-394h-130v-304h297v304h-105v138h114v66h-114v173zM907 403l53 14c-27 76 -57 162 -86 216l-64 -15c17 -38 38 -93 55 -145h-123v397
c0 40 -9 61 -36 72c-29 12 -73 14 -142 14c-3 -21 -12 -51 -23 -71c51 1 97 1 110 0c15 0 19 -4 19 -16v-345c-50 117 -121 230 -202 291c-7 -20 -26 -47 -39 -64c78 -61 152 -168 195 -278h-197v-67h313c-55 -47 -140 -103 -213 -140l39 -48c36 17 76 39 113 62
c40 -34 84 -79 116 -122h-328v-66h380l15 -5l50 36c-46 67 -113 141 -175 195c30 21 56 42 75 61l-21 27h104z" />
</svg>
