<?xml version="1.0" standalone="no"?>
<!DOCTYPE svg PUBLIC "-//W3C//DTD SVG 1.1//EN" "http://www.w3.org/Graphics/SVG/1.1/DTD/svg11.dtd" >
<svg xmlns="http://www.w3.org/2000/svg" xmlns:xlink="http://www.w3.org/1999/xlink" version="1.1" viewBox="-10 0 1010 1000">
   <path fill="currentColor"
d="M153 151v174h190v-174h-190zM423 735l9 63c-132 39 -272 78 -373 107l-18 -70l50 -12v-339h61v323l69 -18v-399h-131v-304h319v304h-124v138h130v66h-130v178zM581 458v404h172v-404h-172zM827 862h131v69h-530v-69h78v-725h1l-1 -1c125 -20 269 -53 351 -84l67 55
c-95 32 -224 59 -343 79v204h358v68h-112v404z" />
</svg>
