<?xml version="1.0" standalone="no"?>
<!DOCTYPE svg PUBLIC "-//W3C//DTD SVG 1.1//EN" "http://www.w3.org/Graphics/SVG/1.1/DTD/svg11.dtd" >
<svg xmlns="http://www.w3.org/2000/svg" xmlns:xlink="http://www.w3.org/1999/xlink" version="1.1" viewBox="-10 0 1010 1000">
   <path fill="currentColor"
d="M669 426v-155c-45 58 -103 112 -157 145c-11 -17 -32 -40 -49 -51c65 -33 137 -92 183 -154h-143v-62h166v-105h70v105h206v62h-176c61 47 159 128 186 153l-45 56c-31 -37 -112 -113 -171 -166v172h-70zM239 426v-152c-43 63 -98 122 -150 158c-11 -14 -32 -37 -48 -49
c63 -36 130 -103 174 -172h-156v-62h180v-105h68v105h165v62h-158c38 23 127 78 149 93l-39 58c-22 -23 -76 -65 -117 -96v160h-68zM236 502v90h533v-90h-533zM536 780v90c41 3 86 4 134 4c37 0 241 0 293 -2c-11 17 -22 46 -26 66h-269c-196 0 -325 -20 -411 -112
c-39 58 -93 101 -156 135c-11 -13 -39 -38 -56 -49c103 -44 173 -118 197 -229l72 9c-7 28 -15 55 -26 79c39 50 98 77 175 90v-211h-299v-206h680v206h-308v74h343v56h-343z" />
</svg>
