<?xml version="1.0" standalone="no"?>
<!DOCTYPE svg PUBLIC "-//W3C//DTD SVG 1.1//EN" "http://www.w3.org/Graphics/SVG/1.1/DTD/svg11.dtd" >
<svg xmlns="http://www.w3.org/2000/svg" xmlns:xlink="http://www.w3.org/1999/xlink" version="1.1" viewBox="-10 0 1010 1000">
   <path fill="currentColor"
d="M138 151v174h161v-174h-161zM366 735l7 65c-112 38 -232 78 -319 107l-16 -72l44 -12v-339h55v323l56 -18v-399h-112v-304h278v304h-108v138h108v66h-108v178zM867 145h-372v115h372v-115zM932 322h-437v143c0 150 -13 355 -100 489c-12 -10 -38 -26 -53 -32
c85 -130 92 -314 92 -457v-382h498v239zM880 668h59v285h-59v-46h-359v-239h59v180h117v-233h-158v-228h56v168h102v-205h62v205h104v-168h58v228h-162v233h121v-180z" />
</svg>
