<?xml version="1.0" standalone="no"?>
<!DOCTYPE svg PUBLIC "-//W3C//DTD SVG 1.1//EN" "http://www.w3.org/Graphics/SVG/1.1/DTD/svg11.dtd" >
<svg xmlns="http://www.w3.org/2000/svg" xmlns:xlink="http://www.w3.org/1999/xlink" version="1.1" viewBox="-10 0 1010 1000">
   <path fill="currentColor"
d="M151 150v189h169v-189h-169zM279 603v185c43 -11 87 -21 131 -33l6 65c-127 34 -263 69 -363 97l-15 -70l51 -12v-343h60v329l64 -16v-402h-126v-318h300v318h-108v135h124v65h-124zM575 161l42 12c-29 139 -97 231 -189 282c-9 -14 -28 -35 -41 -47
c65 -33 120 -99 149 -183h-117v-62h144zM536 746h280v-64h-280v64zM816 561h-280v66h280v-66zM886 503v376c0 36 -7 51 -34 61c-26 11 -68 10 -133 10c-3 -17 -14 -39 -23 -56c47 2 91 2 103 1c13 -1 17 -4 17 -16v-78h-280v155h-70v-453h420zM875 118l60 45
c-41 38 -88 80 -128 110c42 55 95 97 157 119c-15 13 -36 39 -46 57c-88 -41 -156 -121 -202 -220v172c0 36 -6 53 -31 63c-24 11 -61 12 -117 12c-3 -19 -12 -44 -21 -62c41 1 76 1 87 1c12 -1 15 -4 15 -14v-356h67v51c15 45 33 90 57 129c36 -33 77 -76 102 -107z" />
</svg>
