<?xml version="1.0" standalone="no"?>
<!DOCTYPE svg PUBLIC "-//W3C//DTD SVG 1.1//EN" "http://www.w3.org/Graphics/SVG/1.1/DTD/svg11.dtd" >
<svg xmlns="http://www.w3.org/2000/svg" xmlns:xlink="http://www.w3.org/1999/xlink" version="1.1" viewBox="-10 0 1010 1000">
   <path fill="currentColor"
d="M470 198v84h-62v-142h214c-10 -23 -24 -48 -36 -69l68 -14c15 24 34 57 46 83h226v140h-65v-82h-391zM688 296l29 -37c74 28 169 75 218 108l-29 43c-48 -34 -143 -84 -218 -114zM579 249l54 23c-55 55 -131 110 -207 141l-43 -50c70 -23 145 -66 196 -114zM155 158v174
h143v-174h-143zM377 765l7 57c-115 34 -234 69 -323 94l-18 -71l47 -11v-343h57v330l67 -17v-408h-124v-303h276v303h-89v148h104v66h-104v180zM839 384l53 51c-20 5 -43 10 -67 15c18 183 57 355 137 437c-16 12 -37 36 -47 54c-86 -95 -126 -279 -146 -482
c-35 4 -72 9 -109 13v374l86 -27c-12 -42 -28 -85 -43 -122l39 -14c32 77 65 176 78 242l-41 14c-4 -21 -10 -44 -17 -70c-123 42 -145 53 -158 63c-5 -15 -18 -42 -28 -56c12 -7 24 -21 24 -59v-339c-28 3 -56 5 -83 7v58c0 117 -21 287 -124 407c-9 -14 -36 -37 -50 -44
c96 -109 111 -258 111 -364v-108h1c136 -10 295 -27 384 -50z" />
</svg>
