<?xml version="1.0" standalone="no"?>
<!DOCTYPE svg PUBLIC "-//W3C//DTD SVG 1.1//EN" "http://www.w3.org/Graphics/SVG/1.1/DTD/svg11.dtd" >
<svg xmlns="http://www.w3.org/2000/svg" xmlns:xlink="http://www.w3.org/1999/xlink" version="1.1" viewBox="-10 0 1010 1000">
   <path fill="currentColor"
d="M940 158l-48 30c-18 -29 -55 -75 -87 -108l47 -26c32 31 71 74 88 104zM492 619l48 9c-15 77 -39 157 -69 210c-9 -6 -31 -19 -44 -25c33 -51 52 -122 65 -194zM727 563h-107v319c0 27 -4 43 -24 52c-19 10 -47 10 -88 10c-2 -16 -8 -38 -16 -53c30 1 55 1 63 1
s11 -3 11 -11v-318h-101v-55h92v-227h55v93h85v54h-85v80h115v55zM729 758l-44 16c-7 -37 -26 -99 -47 -146l42 -13c22 46 42 106 49 143zM138 162v173h143v-173h-143zM886 366l60 9c-26 139 -64 263 -116 368c18 97 41 152 66 152c15 0 22 -38 25 -128c14 15 34 28 48 34
c-9 115 -28 155 -81 155c-44 0 -77 -50 -101 -136c-28 44 -60 85 -95 120c-10 -12 -34 -34 -48 -44c49 -44 90 -99 124 -162c-22 -122 -34 -287 -40 -472h-282v216c0 139 -11 339 -81 474c-11 -10 -37 -28 -51 -34c14 -28 26 -59 35 -92c-104 31 -211 64 -294 88l-20 -64
c14 -3 30 -7 46 -12v-353h52v340l55 -15v-413h-106v-297h259v297h-95v140h102v62h-102v194c33 -9 67 -19 101 -29l7 45c28 -111 31 -235 31 -332v-276h341c-1 -51 -2 -103 -2 -156h63c0 54 0 106 1 156h169v61h-168c4 144 13 271 25 372c32 -81 55 -171 72 -268z" />
</svg>
