<?xml version="1.0" standalone="no"?>
<!DOCTYPE svg PUBLIC "-//W3C//DTD SVG 1.1//EN" "http://www.w3.org/Graphics/SVG/1.1/DTD/svg11.dtd" >
<svg xmlns="http://www.w3.org/2000/svg" xmlns:xlink="http://www.w3.org/1999/xlink" version="1.1" viewBox="-10 0 1010 1000">
   <path fill="currentColor"
d="M140 149v173h127v-173h-127zM341 766l6 59c-102 29 -208 58 -292 80l-13 -64l33 -8v-348h59v334l52 -14v-421h-107v-298h252v298h-83v149h89v64h-89v192zM840 787h-255v79h255v-79zM519 953v-214h389v209h-68v-35h-255v40h-66zM522 693v-46h373v46h-373zM897 551v46h-373
v-46h373zM662 388l51 -20c14 27 30 61 40 87h197v47h-471v-47h212c-9 -22 -20 -47 -29 -67zM629 276l50 30c-45 45 -101 90 -147 120l-43 -28c45 -32 106 -85 140 -122zM743 317l28 -38c60 31 124 73 163 105l-34 43c-36 -34 -101 -77 -157 -110zM710 148h-172
c-14 22 -29 43 -45 65h176c15 -20 29 -42 41 -65zM743 213h209v57h-481v200c0 142 -10 345 -78 485c-13 -10 -43 -22 -61 -26c69 -137 75 -325 75 -459v-167l-7 6c-10 -15 -30 -40 -44 -51c81 -64 135 -148 164 -218l69 12c-6 14 -13 28 -21 42h176l11 -3l45 30
c-16 31 -36 63 -57 92z" />
</svg>
