<?xml version="1.0" standalone="no"?>
<!DOCTYPE svg PUBLIC "-//W3C//DTD SVG 1.1//EN" "http://www.w3.org/Graphics/SVG/1.1/DTD/svg11.dtd" >
<svg xmlns="http://www.w3.org/2000/svg" xmlns:xlink="http://www.w3.org/1999/xlink" version="1.1" viewBox="-10 0 1010 1000">
   <path fill="currentColor"
d="M854 180h-98c-18 41 -39 82 -63 120h109c17 -34 37 -80 52 -120zM881 440v-85h-150v85h150zM881 575v-86h-150v86h150zM881 713v-89h-150v89h150zM675 327l-3 4c-13 -11 -35 -27 -51 -35c58 -76 98 -177 121 -252l61 9c-7 23 -16 45 -25 69h104l10 -3l41 30
c-18 48 -44 104 -69 151h75v467h-264v-440zM412 376v159h64v-159h-64zM588 535v-159h-63v159h63zM132 149v173h115v-173h-115zM650 765l-48 32c-14 -32 -42 -75 -70 -114v269h-62v-290c-32 87 -75 173 -120 224c-7 -19 -19 -46 -30 -64c-94 30 -191 61 -266 83l-12 -63
l30 -8v-348h53v332l53 -15v-419h-102v-298h230v298h-72v149h83v64h-83v189l87 -25l5 51c45 -51 92 -138 120 -218h-83v-277h106v-102h-114v-62h114v-103h62v103h110v62h-110v102h108v277h-107v41l21 -12c36 45 78 103 97 142zM729 786l59 17c-28 57 -75 117 -118 156
c-11 -12 -35 -31 -50 -40c43 -34 84 -84 109 -133zM821 810l54 -25c32 43 70 102 86 140l-56 28c-14 -38 -52 -99 -84 -143z" />
</svg>
