<?xml version="1.0" standalone="no"?>
<!DOCTYPE svg PUBLIC "-//W3C//DTD SVG 1.1//EN" "http://www.w3.org/Graphics/SVG/1.1/DTD/svg11.dtd" >
<svg xmlns="http://www.w3.org/2000/svg" xmlns:xlink="http://www.w3.org/1999/xlink" version="1.1" viewBox="-10 0 1010 1000">
   <path fill="currentColor"
d="M137 151v174h157v-174h-157zM246 594v179c40 -13 81 -25 122 -38l8 65c-114 38 -234 78 -322 107l-16 -72l44 -13v-338h53v323l55 -16v-401h-108v-304h270v304h-106v138h112v66h-112zM755 731h100v-88h-100v88zM610 731h93v-88h-93v88zM467 731h91v-88h-91v88zM915 585
v301c0 32 -4 48 -24 59c-19 10 -48 11 -89 11c-3 -18 -13 -42 -21 -58c31 1 54 1 63 0c8 -1 11 -3 11 -12v-99h-100v161h-52v-161h-93v161h-52v-161h-91v169h-58v-371h506zM511 315v-59h298v59h-298zM802 414v84h65v-84h-65zM762 546v-180h147v180h-147zM627 414v84h63v-84
h-63zM732 546h-145v-180h145v180zM453 414v84h59v-84h-59zM414 546v-180h140v180h-140zM643 49l63 17c-5 6 -9 13 -14 19c61 59 174 115 267 143c-12 14 -31 41 -40 58c-87 -32 -195 -94 -264 -159c-63 65 -148 119 -257 164c-7 -17 -22 -43 -34 -55
c132 -46 229 -118 279 -187z" />
</svg>
