<?xml version="1.0" standalone="no"?>
<!DOCTYPE svg PUBLIC "-//W3C//DTD SVG 1.1//EN" "http://www.w3.org/Graphics/SVG/1.1/DTD/svg11.dtd" >
<svg xmlns="http://www.w3.org/2000/svg" xmlns:xlink="http://www.w3.org/1999/xlink" version="1.1" viewBox="-10 0 1010 1000">
   <path fill="currentColor"
d="M164 483v86h171v-86h-171zM335 207h-171v81h171v-81zM335 427v-82h-171v82h171zM399 148v718c0 38 -9 57 -32 69c-24 11 -60 12 -120 12c-3 -18 -13 -47 -21 -64c43 1 81 1 92 0c12 0 17 -4 17 -18v-207c-71 90 -170 173 -261 228c-8 -14 -29 -44 -41 -58
c92 -49 188 -122 251 -203h-233v-56h50v-421h83c11 -33 23 -75 30 -105l74 11c-14 32 -28 66 -42 94h153zM871 506l45 32c-48 95 -132 209 -198 285c33 31 62 62 85 86l-52 46c-48 -57 -145 -153 -219 -220l48 -40c28 23 58 51 89 81c50 -53 112 -134 153 -202h-341v-64h380
zM620 341l53 -24c32 44 68 103 88 141l-54 33c-18 -40 -56 -104 -87 -150zM664 45l59 21c-5 10 -8 21 -13 30c60 109 169 226 258 286c-15 13 -37 39 -49 57c-80 -62 -175 -172 -241 -281c-58 107 -136 208 -227 284c-10 -12 -32 -34 -46 -45c113 -90 209 -228 259 -352z
" />
</svg>
