<?xml version="1.0" standalone="no"?>
<!DOCTYPE svg PUBLIC "-//W3C//DTD SVG 1.1//EN" "http://www.w3.org/Graphics/SVG/1.1/DTD/svg11.dtd" >
<svg xmlns="http://www.w3.org/2000/svg" xmlns:xlink="http://www.w3.org/1999/xlink" version="1.1" viewBox="-10 0 1010 1000">
   <path fill="currentColor"
d="M155 483v86h164v-86h-164zM319 207h-164v81h164v-81zM319 427v-82h-164v82h164zM382 148v718c0 37 -8 55 -32 67c-24 11 -62 12 -123 12c-3 -18 -14 -46 -23 -62c45 1 86 1 97 0c13 0 18 -4 18 -17v-188c-68 82 -155 156 -239 208c-8 -14 -29 -44 -42 -58
c88 -49 182 -122 243 -203h-237v-56h49v-421h84c11 -33 24 -75 30 -105l78 11c-14 32 -29 66 -43 94h140zM439 587v-63h502v63h-310c-8 29 -18 60 -26 88h285s-1 20 -3 30c-14 138 -27 197 -54 221c-17 18 -37 24 -67 25c-26 2 -78 1 -131 -2c-2 -20 -10 -47 -24 -65
c54 5 108 5 129 5c17 0 28 0 37 -8c15 -14 26 -54 37 -143h-305c16 -41 35 -99 49 -151h-119zM716 238h-52c-29 55 -64 104 -105 146h261c-40 -44 -77 -94 -104 -146zM947 238h-160c46 71 116 138 183 174c-16 13 -39 38 -50 57c-27 -17 -54 -40 -80 -65v42h-295v-48
c-29 28 -62 54 -97 76c-11 -13 -38 -40 -54 -53c79 -44 142 -105 189 -183h-152v-66h187c16 -39 30 -81 41 -127l71 11c-10 42 -21 80 -36 116h253v66z" />
</svg>
