<?xml version="1.0" standalone="no"?>
<!DOCTYPE svg PUBLIC "-//W3C//DTD SVG 1.1//EN" "http://www.w3.org/Graphics/SVG/1.1/DTD/svg11.dtd" >
<svg xmlns="http://www.w3.org/2000/svg" xmlns:xlink="http://www.w3.org/1999/xlink" version="1.1" viewBox="-10 0 1010 1000">
   <path fill="currentColor"
d="M166 483v86h125v-86h-125zM291 202h-125v86h125v-86zM291 427v-82h-125v82h125zM354 148v724c0 36 -9 53 -33 64c-24 10 -62 12 -125 12c-3 -16 -12 -42 -21 -58c46 1 86 1 98 0c13 -1 18 -5 18 -18v-196c-60 81 -139 156 -213 207c-8 -13 -30 -41 -44 -54
c82 -50 165 -125 220 -206h-206v-54h57v-421h75c11 -33 24 -75 30 -105l71 10c-12 32 -28 67 -42 95h115zM482 688h125v-87h-125v87zM607 466h-125v82h125v-82zM667 410v470c0 28 -5 44 -24 54s-47 11 -88 10c-2 -15 -10 -38 -18 -54c28 1 51 1 58 1c8 0 12 -3 12 -11v-136
h-125v212h-60v-546h245zM863 876v-482h63v482c0 34 -8 50 -31 60c-24 10 -61 11 -122 11c-3 -17 -12 -40 -19 -57c43 1 82 1 93 1c12 -1 16 -4 16 -15zM784 432v369h-58v-369h58zM659 40l59 23c-5 8 -11 16 -16 25c72 84 164 139 268 183c-18 13 -36 34 -45 52
c-100 -49 -185 -107 -259 -190c-52 60 -117 114 -187 156h380v62h-385v-59c-19 12 -39 22 -59 31c-10 -14 -28 -34 -45 -47c117 -50 230 -138 289 -236z" />
</svg>
