<?xml version="1.0" standalone="no"?>
<!DOCTYPE svg PUBLIC "-//W3C//DTD SVG 1.1//EN" "http://www.w3.org/Graphics/SVG/1.1/DTD/svg11.dtd" >
<svg xmlns="http://www.w3.org/2000/svg" xmlns:xlink="http://www.w3.org/1999/xlink" version="1.1" viewBox="-10 0 1010 1000">
   <path fill="currentColor"
d="M524 225h120v-69h-120v69zM843 156h-129v69h129v-69zM955 324v55h-545v-55h234v-51h-186v-165h186v-66h70v66h198v165h-198v51h241zM533 681v60h301v-60h-301zM533 576v58h301v-58h-301zM533 472v58h301v-58h-301zM907 789h-444v-365h444v365zM174 483v86h135v-86h-135z
M309 202h-135v86h135v-86zM309 427v-82h-135v82h135zM374 148v724c0 35 -9 52 -34 63c-26 10 -66 11 -133 11c-3 -15 -12 -41 -22 -56c49 1 93 1 105 0c14 -1 19 -4 19 -18v-198c-65 82 -149 156 -230 207c-8 -12 -31 -39 -44 -52c87 -50 175 -125 234 -206h-219v-54h60
v-421h80c12 -33 25 -75 33 -105l75 10c-14 31 -30 66 -45 95h121zM569 801l70 22c-52 53 -139 104 -212 135c-11 -13 -36 -40 -53 -52c73 -25 150 -63 195 -105zM728 830l46 -36c68 39 146 89 192 125l-59 39c-42 -38 -115 -89 -179 -128z" />
</svg>
