<?xml version="1.0" standalone="no"?>
<!DOCTYPE svg PUBLIC "-//W3C//DTD SVG 1.1//EN" "http://www.w3.org/Graphics/SVG/1.1/DTD/svg11.dtd" >
<svg xmlns="http://www.w3.org/2000/svg" xmlns:xlink="http://www.w3.org/1999/xlink" version="1.1" viewBox="-10 0 1010 1000">
   <path fill="currentColor"
d="M146 494v96h91v-96h-91zM146 345v95h91v-95h-91zM382 440v-95h-88v95h88zM382 590v-96h-88v96h88zM457 788h-157v168h-69v-168h-185v-65h185v-77h-144v-357h144v-75h-174v-64h174v-106h69v106h152v64h-152v75h144v73c74 -30 148 -69 213 -116c-59 -35 -121 -68 -178 -96
l45 -49c61 28 126 64 189 101c46 -41 86 -85 117 -134l68 24c-35 53 -77 102 -125 147c64 41 122 81 163 116l-46 57c-42 -39 -103 -83 -171 -127c-71 56 -151 103 -230 139c-9 -14 -30 -44 -45 -59v281h-144v77h157v65zM809 440l71 15c-32 107 -76 200 -134 277
c63 70 137 126 222 160c-17 15 -39 42 -51 62c-83 -39 -155 -94 -217 -165c-62 69 -134 123 -220 168c-9 -15 -32 -46 -47 -61c87 -40 162 -95 222 -164c-58 -78 -103 -170 -137 -271l65 -19c28 84 67 164 117 233c47 -67 83 -146 109 -235z" />
</svg>
