<?xml version="1.0" standalone="no"?>
<!DOCTYPE svg PUBLIC "-//W3C//DTD SVG 1.1//EN" "http://www.w3.org/Graphics/SVG/1.1/DTD/svg11.dtd" >
<svg xmlns="http://www.w3.org/2000/svg" xmlns:xlink="http://www.w3.org/1999/xlink" version="1.1" viewBox="-10 0 1010 1000">
   <path fill="currentColor"
d="M933 96v67h-473v-67h473zM722 250l51 -37c60 59 134 145 169 198l-54 44c-34 -54 -106 -142 -166 -205zM488 465l-49 -40c47 -56 112 -148 149 -216l55 41c-45 74 -108 160 -155 215zM138 494v96h80v-96h-80zM138 345v95h80v-95h-80zM360 440v-95h-83v95h83zM360 590v-96
h-83v96h83zM436 788h-153v168h-70v-168h-166v-65h166v-77h-135v-357h134v-75h-155v-64h155v-106h71v106h157v64h-157v75h139v357h-139v77h153v65zM715 845h235v67h-536v-67h233v-190h-185v-64h185v-172h68v172h205v64h-205v190z" />
</svg>
