<?xml version="1.0" standalone="no"?>
<!DOCTYPE svg PUBLIC "-//W3C//DTD SVG 1.1//EN" "http://www.w3.org/Graphics/SVG/1.1/DTD/svg11.dtd" >
<svg xmlns="http://www.w3.org/2000/svg" xmlns:xlink="http://www.w3.org/1999/xlink" version="1.1" viewBox="-10 0 1010 1000">
   <path fill="currentColor"
d="M831 180h-149l-8 10c19 33 45 64 76 94c32 -31 60 -66 81 -104zM874 120l38 21c-26 71 -67 131 -116 180c47 34 101 60 158 76c-13 13 -30 37 -38 54c-60 -19 -116 -51 -165 -91c-54 43 -116 75 -178 97c-7 -16 -22 -40 -34 -52c58 -18 116 -47 168 -86
c-26 -28 -50 -57 -68 -89c-21 21 -41 40 -63 56c-9 -10 -30 -33 -44 -42c70 -48 132 -122 167 -203l54 17c-9 23 -20 44 -33 65h143zM780 839h-55v-82h-170v-54h170v-63h-125v-52h125v-57h-143v-53h143v-56h55v56h133v53h-133v57h110v52h-110v63h152v54h-152v82zM512 293
l-54 26c-8 -53 -37 -137 -69 -201l50 -21c32 61 65 144 73 196zM126 490v95h69v-95h-69zM126 343v94h69v-94h-69zM314 437v-94h-65v94h65zM314 585v-95h-65v95h65zM390 782h-136v176h-64v-176h-146v-63h146v-78h-117v-354h117v-72h-138v-62h138v-109h64v109h131v62h-131v72
h114v354h-114v78h136v63zM521 401v383c16 10 32 26 57 44c44 32 98 42 171 42c58 0 156 -5 219 -13c-7 19 -15 51 -16 71c-50 4 -150 7 -204 7c-79 0 -135 -14 -183 -50c-31 -25 -56 -51 -74 -51c-25 0 -64 53 -100 112l-40 -61c40 -51 79 -90 114 -105v-316h-68v-63h124z
" />
</svg>
