<?xml version="1.0" standalone="no"?>
<!DOCTYPE svg PUBLIC "-//W3C//DTD SVG 1.1//EN" "http://www.w3.org/Graphics/SVG/1.1/DTD/svg11.dtd" >
<svg xmlns="http://www.w3.org/2000/svg" xmlns:xlink="http://www.w3.org/1999/xlink" version="1.1" viewBox="-10 0 1010 1000">
   <path fill="currentColor"
d="M720 183l-47 25c-12 -38 -41 -97 -70 -140l45 -23c30 43 61 100 72 138zM952 688l-40 36c-18 -42 -55 -100 -95 -155c14 106 2 207 -25 243c-19 28 -42 37 -73 37c-14 0 -33 0 -54 -1c0 -18 -5 -44 -13 -61c22 3 42 4 55 4c17 0 29 -3 39 -21c16 -20 25 -86 20 -162
c-56 60 -131 117 -199 149c-9 -15 -25 -37 -37 -48c82 -33 177 -99 228 -168c-4 -23 -10 -47 -16 -70c-48 49 -111 97 -163 122c-9 -14 -26 -34 -37 -45c60 -27 136 -77 181 -127c-11 -22 -23 -44 -37 -61c-36 30 -74 56 -110 78c-8 -12 -27 -35 -37 -46
c59 -31 120 -75 164 -124h-148v-59h223c25 -48 57 -117 73 -165l56 20c-22 48 -49 102 -73 145h116v59h-179c-15 20 -31 39 -50 58c28 31 51 71 67 116c34 -39 73 -90 97 -127l46 35c-37 45 -82 96 -118 133c55 66 114 149 139 205zM515 276l-48 24
c-15 -47 -48 -121 -75 -175l46 -19c28 54 61 125 77 170zM123 490v95h68v-95h-68zM123 343v94h68v-94h-68zM309 437v-94h-66v94h66zM309 585v-95h-66v95h66zM378 780h-130v178h-62v-178h-142v-61h142v-78h-114v-354h114v-74h-134v-61h134v-108h62v108h135v61h-135v74h113
v354h-113v78h130v61zM514 385v405c16 10 32 26 58 45c45 31 100 41 176 41c61 0 162 -5 226 -13c-6 17 -14 48 -15 67c-51 4 -155 7 -213 7c-80 0 -138 -12 -186 -47c-31 -24 -56 -51 -74 -51c-22 0 -56 53 -87 109l-38 -57c33 -47 67 -85 97 -101v-344h-75v-61h131z" />
</svg>
