<?xml version="1.0" standalone="no"?>
<!DOCTYPE svg PUBLIC "-//W3C//DTD SVG 1.1//EN" "http://www.w3.org/Graphics/SVG/1.1/DTD/svg11.dtd" >
<svg xmlns="http://www.w3.org/2000/svg" xmlns:xlink="http://www.w3.org/1999/xlink" version="1.1" viewBox="-10 0 1010 1000">
   <path fill="currentColor"
d="M791 446h-227c-27 134 -81 251 -203 327c-11 -17 -33 -40 -51 -51c158 -96 187 -275 198 -459h-172v-71h270c-11 -39 -28 -88 -43 -126l66 -18c21 46 42 104 52 144h256v71h-350c-3 38 -6 76 -12 113h296s0 23 -1 33c-10 223 -20 306 -48 335c-17 21 -37 28 -67 31
c-28 2 -79 1 -131 -1c-2 -22 -11 -50 -23 -70c52 5 102 5 119 5c19 0 28 -1 37 -10c16 -17 26 -84 34 -253zM287 237l-60 43c-28 -47 -89 -116 -143 -166l56 -37c54 47 117 115 147 160zM264 409v347c19 12 40 31 73 51c64 40 148 47 260 47c118 0 266 -8 362 -18
c-8 19 -19 53 -20 74c-71 4 -249 10 -344 10c-123 0 -206 -11 -275 -55c-40 -26 -73 -59 -94 -59c-35 0 -83 58 -135 126l-47 -63c52 -57 103 -101 147 -119v-272h-139v-69h212z" />
</svg>
