<?xml version="1.0" standalone="no"?>
<!DOCTYPE svg PUBLIC "-//W3C//DTD SVG 1.1//EN" "http://www.w3.org/Graphics/SVG/1.1/DTD/svg11.dtd" >
<svg xmlns="http://www.w3.org/2000/svg" xmlns:xlink="http://www.w3.org/1999/xlink" version="1.1" viewBox="-10 0 1010 1000">
   <path fill="currentColor"
d="M864 93v255h-496v-54h432v-48h-396v-51h396v-48h-427v-54h491zM380 451v91h-66v-148h621v148h-65v179c0 36 -6 52 -32 64c-24 10 -62 11 -122 11c-4 -20 -13 -44 -22 -62c46 2 81 2 93 1c11 0 14 -4 14 -14v-123h-141v239h-68v-239h-136v188h-66v-248h202v-77h68v77h206
v-87h-486zM283 242l-58 46c-30 -49 -98 -120 -156 -169l54 -42c59 47 128 116 160 165zM259 424v360c22 10 44 28 80 47c65 33 149 40 258 40c113 0 263 -6 362 -16c-9 18 -21 52 -21 73c-79 5 -246 10 -343 10c-116 0 -202 -11 -271 -48c-42 -23 -75 -50 -98 -50
c-33 0 -82 52 -129 108l-52 -63c50 -48 102 -86 146 -101v-290h-133v-70h201z" />
</svg>
