<?xml version="1.0" standalone="no"?>
<!DOCTYPE svg PUBLIC "-//W3C//DTD SVG 1.1//EN" "http://www.w3.org/Graphics/SVG/1.1/DTD/svg11.dtd" >
<svg xmlns="http://www.w3.org/2000/svg" xmlns:xlink="http://www.w3.org/1999/xlink" version="1.1" viewBox="-10 0 1010 1000">
   <path fill="currentColor"
d="M839 99l62 36c-32 50 -74 102 -105 137l-56 -34c32 -36 75 -97 99 -139zM432 100l59 26c-24 51 -57 113 -100 152l-60 -33c42 -36 79 -97 101 -145zM594 50h75c-4 43 -9 82 -17 117c51 110 158 187 306 215c-15 15 -35 42 -45 61c-128 -32 -224 -98 -287 -194
c-41 95 -122 160 -281 200c-7 -18 -26 -44 -39 -59c232 -53 273 -157 288 -340zM776 810h-73v-212h-168c-10 78 -43 158 -146 220c-12 -17 -36 -42 -53 -54c84 -48 115 -107 126 -166h-153v-68h159v-3v-89h71v91v1h164v-92h73v92h167v68h-167v212zM298 216l-59 45
c-32 -44 -100 -117 -153 -170l55 -38c53 50 123 120 157 163zM250 380v387c17 13 36 30 65 48c66 43 153 50 271 50c127 0 283 -10 385 -22c-9 20 -22 58 -23 81c-71 5 -262 12 -365 12c-131 0 -215 -11 -286 -56c-40 -28 -74 -64 -95 -64c-32 0 -76 63 -124 133l-50 -69
c55 -65 107 -113 150 -127v-304h-130v-69h202z" />
</svg>
