<?xml version="1.0" standalone="no"?>
<!DOCTYPE svg PUBLIC "-//W3C//DTD SVG 1.1//EN" "http://www.w3.org/Graphics/SVG/1.1/DTD/svg11.dtd" >
<svg xmlns="http://www.w3.org/2000/svg" xmlns:xlink="http://www.w3.org/1999/xlink" version="1.1" viewBox="-10 0 1010 1000">
   <path fill="currentColor"
d="M754 202h-122v83h122v-83zM396 450v-248h-95v-63h95v-73h69v73h100v-89h67v89h122v-89h69v89h111v63h-111v135h-258v-135h-100v191h454v57h-523zM588 816v-198c-65 68 -158 129 -241 161c-11 -16 -31 -41 -47 -55c80 -26 168 -76 230 -132h-217v-64h275v-55h72v55h290v64
h-282c91 34 206 90 264 132l-36 53c-51 -39 -149 -91 -236 -128v167h-72zM292 235l-58 44c-29 -46 -94 -116 -150 -165l54 -39c56 47 124 114 154 160zM264 409v347c19 12 40 30 72 51c65 40 150 47 261 47c119 0 267 -8 363 -18c-8 19 -19 53 -20 74c-71 4 -250 10 -345 10
c-123 0 -206 -11 -275 -55c-40 -26 -73 -59 -94 -59c-35 0 -83 58 -135 126l-47 -63c52 -57 103 -101 147 -119v-272h-139v-69h212z" />
</svg>
