<?xml version="1.0" standalone="no"?>
<!DOCTYPE svg PUBLIC "-//W3C//DTD SVG 1.1//EN" "http://www.w3.org/Graphics/SVG/1.1/DTD/svg11.dtd" >
<svg xmlns="http://www.w3.org/2000/svg" xmlns:xlink="http://www.w3.org/1999/xlink" version="1.1" viewBox="-10 0 1010 1000">
   <path fill="currentColor"
d="M537 439l69 8c-5 43 -12 91 -23 141c25 39 58 65 95 83v-272h68v101h159v65h-159v129c43 10 88 13 131 13h72c-10 16 -20 48 -22 66h-55c-114 0 -229 -23 -307 -118c-16 54 -39 104 -68 141c-13 -11 -36 -29 -52 -37c63 -81 84 -220 92 -320zM709 312l-37 36
c-14 -24 -41 -59 -68 -89c-27 60 -59 116 -100 158c-10 -14 -31 -37 -44 -47c70 -72 112 -194 130 -292l67 12c-8 36 -18 72 -31 109c34 33 70 74 88 103c41 -68 64 -155 74 -226l67 11c-7 36 -17 74 -29 111c46 51 96 118 118 161l-48 43c-19 -38 -55 -92 -93 -139
c-21 52 -47 99 -81 135c-10 -13 -31 -34 -45 -44c12 -13 22 -27 32 -42zM422 73l64 19c-36 70 -97 147 -156 196c-10 -12 -28 -35 -41 -45c53 -44 108 -112 133 -170zM371 783v-314c-20 23 -40 42 -61 60c-7 -14 -24 -38 -34 -51c64 -55 127 -143 158 -215l63 21
c-18 35 -40 72 -65 108v391h-61zM265 264l-63 33c-23 -49 -75 -126 -123 -183l60 -29c47 55 102 129 126 179zM248 409v344c21 11 42 31 79 54c65 41 151 47 265 47c121 0 271 -8 369 -18c-9 19 -19 52 -20 73c-72 5 -255 11 -352 11c-125 0 -209 -11 -279 -55
c-41 -26 -74 -59 -96 -59c-32 0 -78 58 -126 126l-47 -63c49 -56 96 -100 138 -118v-273h-130v-69h199z" />
</svg>
