<?xml version="1.0" standalone="no"?>
<!DOCTYPE svg PUBLIC "-//W3C//DTD SVG 1.1//EN" "http://www.w3.org/Graphics/SVG/1.1/DTD/svg11.dtd" >
<svg xmlns="http://www.w3.org/2000/svg" xmlns:xlink="http://www.w3.org/1999/xlink" version="1.1" viewBox="-10 0 1010 1000">
   <path fill="currentColor"
d="M940 348v51h-613v-51h270v-53h-225v-49h225v-51h-261v-51h167c-13 -25 -33 -55 -52 -77l59 -24c25 27 51 64 62 90l-25 11h144c21 -30 45 -70 57 -98l72 20c-18 27 -36 54 -55 78h169v51h-269v51h231v49h-231v53h275zM845 641l-57 -13c15 -25 32 -61 47 -96h-103
c-4 36 -9 69 -17 98c75 50 161 119 204 167l-43 45c-38 -44 -111 -107 -179 -157c-33 73 -93 123 -201 158c-8 -15 -25 -40 -39 -51c157 -43 196 -123 210 -260h-70c-20 43 -44 82 -69 113c-11 -10 -39 -29 -54 -37c46 -51 80 -123 99 -198l64 13c-5 18 -10 36 -16 54h242
l12 -2l45 11c-24 55 -51 117 -75 155zM475 519l-40 45c-28 -24 -85 -60 -131 -82l39 -41c45 20 102 54 132 78zM453 600l39 46c-46 54 -97 110 -146 159l-46 -50c43 -37 101 -97 153 -155zM298 231l-50 51c-37 -40 -113 -96 -176 -134l48 -44c63 35 139 88 178 127zM254 391
v386c21 10 44 31 82 54c66 40 148 48 259 48c114 0 262 -8 363 -18c-9 18 -20 52 -21 72c-68 5 -239 10 -344 10c-121 0 -203 -12 -272 -54c-40 -25 -74 -58 -97 -58c-33 0 -83 58 -133 124l-46 -60c48 -53 95 -95 137 -114v-321h-125v-69h197z" />
</svg>
