<?xml version="1.0" standalone="no"?>
<!DOCTYPE svg PUBLIC "-//W3C//DTD SVG 1.1//EN" "http://www.w3.org/Graphics/SVG/1.1/DTD/svg11.dtd" >
<svg xmlns="http://www.w3.org/2000/svg" xmlns:xlink="http://www.w3.org/1999/xlink" version="1.1" viewBox="-10 0 1010 1000">
   <path fill="currentColor"
d="M575 183v-45h-272v-46h272v-47h78v47h287v46h-287v45h253v44h-563v-44h232zM813 533v-35h-384v35h384zM813 604v-37h-384v37h384zM813 675v-38h-384v38h384zM888 457v259h-532v-259h532zM511 718l57 40c-65 30 -144 63 -202 85c-8 -12 -22 -32 -33 -46
c54 -20 134 -55 178 -79zM920 793l-25 47c-54 -21 -139 -52 -215 -76l22 -43c80 22 165 51 218 72zM853 378v-68h-121v68h121zM674 378v-68h-117v68h117zM499 378v-68h-112v68h112zM924 268v152h-606v-152h606zM273 249l-63 38c-24 -50 -79 -134 -123 -195l60 -32
c44 60 99 141 126 189zM245 380v399c18 12 38 30 69 50c66 42 154 48 270 48c127 0 285 -9 387 -21c-9 19 -19 54 -21 76c-72 4 -265 11 -368 11c-129 0 -215 -10 -285 -55c-40 -27 -74 -61 -95 -61c-31 0 -75 60 -121 128l-46 -64c51 -61 101 -108 142 -123v-319h-130v-69
h198z" />
</svg>
