<?xml version="1.0" standalone="no"?>
<!DOCTYPE svg PUBLIC "-//W3C//DTD SVG 1.1//EN" "http://www.w3.org/Graphics/SVG/1.1/DTD/svg11.dtd" >
<svg xmlns="http://www.w3.org/2000/svg" xmlns:xlink="http://www.w3.org/1999/xlink" version="1.1" viewBox="-10 0 1010 1000">
   <path fill="currentColor"
d="M517 113v70h-413v-70h413zM54 459v-70h512v70h-260c-32 119 -80 245 -130 345l268 -32c-23 -57 -53 -118 -83 -170l63 -23c58 98 116 227 136 311l-68 28c-5 -23 -12 -51 -23 -81c-305 39 -344 46 -369 57v-2c-1 1 -1 3 -1 4c-4 -16 -16 -51 -25 -71c17 -5 32 -33 51 -73
c17 -35 69 -166 100 -293h-171zM899 95l54 36c-42 93 -94 205 -141 296c102 93 128 172 129 242c0 60 -15 107 -51 130c-18 12 -41 19 -66 22s-58 3 -89 1c-1 -20 -8 -52 -20 -73c30 3 58 4 79 2c16 -1 32 -4 45 -11c22 -13 29 -42 29 -78c0 -62 -31 -136 -134 -224
c43 -84 88 -191 119 -270h-179v788h-72v-858h285z" />
</svg>
