<?xml version="1.0" standalone="no"?>
<!DOCTYPE svg PUBLIC "-//W3C//DTD SVG 1.1//EN" "http://www.w3.org/Graphics/SVG/1.1/DTD/svg11.dtd" >
<svg xmlns="http://www.w3.org/2000/svg" xmlns:xlink="http://www.w3.org/1999/xlink" version="1.1" viewBox="-10 0 1010 1000">
   <path fill="currentColor"
d="M441 394h-282v205h282v-205zM159 671v173h406v73h-477v-822h467v73h-396v154h353v349h-353zM904 93l53 36c-39 91 -89 202 -135 294c97 94 122 170 123 239c0 61 -15 108 -50 131c-18 11 -41 18 -67 21c-28 3 -66 3 -98 1c-1 -20 -10 -54 -24 -74c35 3 68 4 90 2
c19 -1 35 -4 48 -11c21 -11 29 -42 29 -77c0 -61 -30 -133 -126 -222c39 -83 83 -188 113 -266h-181v790h-71v-860h284z" />
</svg>
