<?xml version="1.0" standalone="no"?>
<!DOCTYPE svg PUBLIC "-//W3C//DTD SVG 1.1//EN" "http://www.w3.org/Graphics/SVG/1.1/DTD/svg11.dtd" >
<svg xmlns="http://www.w3.org/2000/svg" xmlns:xlink="http://www.w3.org/1999/xlink" version="1.1" viewBox="-10 0 1010 1000">
   <path fill="currentColor"
d="M437 789l137 -66c2 19 7 47 9 61c-191 97 -219 111 -236 129c-6 -19 -22 -50 -34 -66c20 -9 52 -35 52 -78v-266h-105c-6 214 -34 356 -171 439c-10 -17 -31 -44 -49 -55c124 -71 143 -193 149 -384h-133v-70h240v-160h-128c-17 48 -38 91 -61 125
c-15 -10 -46 -25 -64 -33c51 -71 86 -179 106 -289l71 13c-8 40 -17 78 -28 115h104v-163h72v163h175v69h-175v160h202v70h-133v286zM895 93l53 37c-41 92 -94 201 -141 292c102 94 128 171 129 240c0 59 -16 107 -52 131c-18 10 -42 18 -69 21c-28 3 -67 3 -100 1
c-2 -20 -11 -54 -24 -74c36 3 70 4 93 2c19 -1 35 -4 50 -11c22 -12 30 -41 30 -76c0 -62 -32 -134 -134 -223c41 -83 87 -188 119 -266h-177v789h-70v-859h281z" />
</svg>
