<?xml version="1.0" standalone="no"?>
<!DOCTYPE svg PUBLIC "-//W3C//DTD SVG 1.1//EN" "http://www.w3.org/Graphics/SVG/1.1/DTD/svg11.dtd" >
<svg xmlns="http://www.w3.org/2000/svg" xmlns:xlink="http://www.w3.org/1999/xlink" version="1.1" viewBox="-10 0 1010 1000">
   <path fill="currentColor"
d="M330 834l212 -79c-2 18 -2 50 0 63c-234 92 -265 105 -285 122c-5 -15 -19 -39 -29 -52c16 -9 38 -29 38 -70v-380h268v201c0 29 -6 45 -26 56s-50 12 -93 12c-3 -18 -12 -42 -21 -59c32 1 59 1 68 1s11 -2 11 -11v-139h-143v335zM156 301h208c20 -31 42 -74 58 -112
h-196c-21 40 -45 78 -70 112zM466 125l42 29c-19 48 -49 103 -77 147h134v61h-377v153c0 125 -15 305 -97 427c-11 -11 -38 -32 -52 -39c77 -115 86 -273 86 -389v-174c-11 13 -23 25 -33 37c-12 -11 -39 -34 -54 -44c77 -69 143 -178 182 -290l65 15c-9 24 -18 47 -29 70
h199zM904 97l53 36c-41 94 -92 208 -139 299c101 93 126 172 127 243c0 60 -15 106 -49 130c-18 11 -41 18 -65 22c-26 3 -58 2 -87 1c-1 -20 -8 -52 -21 -73c30 3 58 3 78 2c16 -1 31 -4 43 -12c21 -13 28 -42 28 -78c0 -62 -29 -138 -130 -225c42 -84 86 -192 117 -271
h-168v788h-72v-858h273z" />
</svg>
