<?xml version="1.0" standalone="no"?>
<!DOCTYPE svg PUBLIC "-//W3C//DTD SVG 1.1//EN" "http://www.w3.org/Graphics/SVG/1.1/DTD/svg11.dtd" >
<svg xmlns="http://www.w3.org/2000/svg" xmlns:xlink="http://www.w3.org/1999/xlink" version="1.1" viewBox="-10 0 1010 1000">
   <path fill="currentColor"
d="M494 316h-98v224h98v-224zM258 247h72v-182h66v182h98v-181h66v181h76v69h-76v224h82v69h-395v-69h83v-224h-72v-69zM228 49l68 19c-22 69 -49 140 -79 207v682h-68v-552c-27 46 -56 88 -86 125c-7 -17 -28 -57 -40 -75c84 -100 159 -253 205 -406zM353 654l65 19
c-32 92 -82 185 -133 246c-12 -14 -38 -38 -53 -49c49 -54 94 -136 121 -216zM468 677l54 -30c46 62 99 147 122 201l-57 35c-21 -54 -73 -142 -119 -206zM901 90l47 33c-27 89 -59 193 -92 284c65 95 82 174 82 242c0 60 -11 110 -36 132c-15 12 -32 19 -52 21
c-18 2 -42 3 -63 2c-1 -21 -7 -52 -19 -73c22 2 41 2 55 2c11 -1 22 -4 29 -10c15 -11 20 -45 20 -80c0 -60 -16 -137 -81 -228c26 -79 54 -177 73 -250h-134v789h-67v-860h227z" />
</svg>
