<?xml version="1.0" standalone="no"?>
<!DOCTYPE svg PUBLIC "-//W3C//DTD SVG 1.1//EN" "http://www.w3.org/Graphics/SVG/1.1/DTD/svg11.dtd" >
<svg xmlns="http://www.w3.org/2000/svg" xmlns:xlink="http://www.w3.org/1999/xlink" version="1.1" viewBox="-10 0 1010 1000">
   <path fill="currentColor"
d="M495 81l64 18c-27 65 -67 138 -103 186c-12 -10 -41 -25 -57 -33c37 -45 73 -111 96 -171zM465 429v-79h-295v79h295zM465 566v-81h-295v81h295zM465 703v-81h-295v81h295zM103 291h184v-248h68v248h180v471h-432v-471zM232 252l-60 24c-15 -46 -51 -119 -87 -174l59 -22
c36 54 74 126 88 172zM224 779l64 22c-51 63 -134 123 -206 160c-11 -13 -38 -36 -53 -48c74 -32 151 -81 195 -134zM354 809l51 -31c68 46 145 104 190 147l-68 28c-40 -41 -109 -99 -173 -144zM893 93l49 33c-36 91 -83 206 -125 298c91 94 113 172 113 242
c0 56 -13 105 -45 126c-16 12 -38 19 -61 21c-25 3 -56 3 -83 1c-2 -19 -9 -48 -21 -68c29 3 58 3 77 2c15 -1 30 -3 41 -10c19 -13 26 -44 25 -79c0 -63 -25 -136 -116 -227c38 -86 78 -194 106 -271h-154v795h-65v-859h248z" />
</svg>
