<?xml version="1.0" standalone="no"?>
<!DOCTYPE svg PUBLIC "-//W3C//DTD SVG 1.1//EN" "http://www.w3.org/Graphics/SVG/1.1/DTD/svg11.dtd" >
<svg xmlns="http://www.w3.org/2000/svg" xmlns:xlink="http://www.w3.org/1999/xlink" version="1.1" viewBox="-10 0 1010 1000">
   <path fill="currentColor"
d="M376 632v115h156v59h-156v150h-73v-150h-156v-59h156v-115h73zM205 308v73h262v-73h-262zM205 185v73h262v-73h-262zM540 434h-187c-7 25 -16 49 -27 74h272v59h-148c55 43 114 90 148 121l-51 41c-43 -41 -124 -110 -191 -162h-60c-40 68 -101 130 -193 171
c-9 -13 -30 -36 -45 -46c71 -30 122 -76 158 -125h-136v-59h171c13 -26 22 -50 29 -74h-145v-302h141c9 -29 21 -65 27 -90l83 9c-13 29 -25 56 -35 81h189v302zM896 92l47 32c-35 93 -80 208 -121 300c87 95 110 173 110 243c0 60 -13 107 -44 128c-16 12 -37 19 -59 22
c-24 3 -56 2 -82 1c-1 -20 -8 -50 -19 -71c29 3 55 3 75 3c14 -2 28 -5 39 -12c18 -12 24 -43 24 -78c0 -63 -24 -137 -111 -227c36 -85 74 -192 101 -270h-153v794h-66v-862h248z" />
</svg>
