<?xml version="1.0" standalone="no"?>
<!DOCTYPE svg PUBLIC "-//W3C//DTD SVG 1.1//EN" "http://www.w3.org/Graphics/SVG/1.1/DTD/svg11.dtd" >
<svg xmlns="http://www.w3.org/2000/svg" xmlns:xlink="http://www.w3.org/1999/xlink" version="1.1" viewBox="-10 0 1010 1000">
   <path fill="currentColor"
d="M242 612h48c27 -18 54 -37 79 -58h-199c-2 41 -5 84 -9 129c28 -13 55 -27 81 -43v-28zM514 664h-195l-19 13v61h214v-74zM300 859h214v-73h-214v73zM523 137h-350v95h350v-95zM391 425v72h42c24 -22 45 -47 65 -72h-107zM556 337l52 23c-27 49 -61 95 -97 137h106v57
h-161c-20 21 -43 39 -65 58h184v337h-61v-38h-214v41h-58v-240c-19 11 -40 21 -59 31c-5 -10 -15 -26 -25 -39c-11 89 -30 177 -63 247c-11 -12 -39 -32 -54 -39c62 -141 66 -338 66 -483v-350h485v211h-419v139c0 21 0 45 -1 68h160v-72h-118v-54h118v-65h59v65h108v53
c21 -27 40 -56 57 -87zM910 93l48 32c-33 91 -77 206 -117 300c84 94 105 171 105 240c0 58 -12 106 -43 127c-16 12 -37 19 -60 21c-24 3 -56 3 -83 1c-2 -19 -9 -48 -21 -68c30 3 57 3 77 2c14 -1 28 -3 39 -10c18 -12 25 -45 24 -79c0 -63 -22 -136 -106 -226
c35 -85 72 -191 97 -268h-152v791h-64v-859h244z" />
</svg>
