<?xml version="1.0" standalone="no"?>
<!DOCTYPE svg PUBLIC "-//W3C//DTD SVG 1.1//EN" "http://www.w3.org/Graphics/SVG/1.1/DTD/svg11.dtd" >
<svg xmlns="http://www.w3.org/2000/svg" xmlns:xlink="http://www.w3.org/1999/xlink" version="1.1" viewBox="-10 0 1010 1000">
   <path fill="currentColor"
d="M400 509v-165h-67v152c0 13 2 15 14 15h38c10 0 13 -1 15 -2zM128 822h272v-99h-272v99zM191 344h-63v231c53 -49 63 -109 63 -158v-73zM233 151v129h58v-129h-58zM393 555h-50c-40 0 -53 -9 -53 -58v-153h-56v74c0 60 -15 136 -77 190c-6 -9 -19 -20 -29 -26v82h272
v-109h-7zM345 151v129h117v661h-62v-58h-272v72h-59v-675h111v-129h-129v-64h432v64h-138zM746 874h110c29 0 34 -31 38 -148c18 13 44 26 65 31c-8 135 -25 184 -98 184h-124c-77 0 -99 -26 -99 -119v-239l-146 24l-11 -68l157 -26v-188c-41 10 -81 19 -121 27
c-2 -17 -13 -41 -22 -58c46 -10 95 -23 143 -35v-215h71v193c65 -21 123 -43 165 -68l44 61c-56 30 -131 55 -209 77v195l232 -39l10 67l-242 41v252c0 43 6 51 37 51z" />
</svg>
