<?xml version="1.0" standalone="no"?>
<!DOCTYPE svg PUBLIC "-//W3C//DTD SVG 1.1//EN" "http://www.w3.org/Graphics/SVG/1.1/DTD/svg11.dtd" >
<svg xmlns="http://www.w3.org/2000/svg" xmlns:xlink="http://www.w3.org/1999/xlink" version="1.1" viewBox="-10 0 1010 1000">
   <path fill="currentColor"
d="M907 243l-52 33c-23 -42 -71 -110 -111 -161l50 -29c40 50 90 117 113 157zM163 821h248v-103h-248v103zM214 336h-51v240c43 -49 51 -107 51 -155v-85zM260 149v124h49v-124h-49zM411 512v-176h-56v162c0 12 2 14 14 14h32h10zM260 336v85c0 60 -13 139 -72 195
c-5 -6 -16 -15 -25 -22v67h248v-104h-1h-46c-42 0 -55 -10 -55 -59v-162h-49zM940 401h-206c37 221 111 406 236 494c-15 15 -35 43 -45 64c-104 -82 -172 -223 -216 -399c-26 139 -81 279 -190 399c-12 -16 -32 -34 -49 -47v23h-59v-53h-248v67h-58v-676h99v-124h-124v-61
h404v61h-119v124h105v632c139 -155 181 -340 193 -504h-140v-71h144c1 -22 1 -43 1 -64v-221h64v221c0 21 0 42 -1 64h209v71z" />
</svg>
