<?xml version="1.0" standalone="no"?>
<!DOCTYPE svg PUBLIC "-//W3C//DTD SVG 1.1//EN" "http://www.w3.org/Graphics/SVG/1.1/DTD/svg11.dtd" >
<svg xmlns="http://www.w3.org/2000/svg" xmlns:xlink="http://www.w3.org/1999/xlink" version="1.1" viewBox="-10 0 1010 1000">
   <path fill="currentColor"
d="M259 273v-124h-45v124h45zM351 512v-176h-50v162c0 12 2 14 12 14h30h8zM125 821h226v-103h-226v103zM172 336h-47v240c39 -49 47 -107 47 -155v-85zM351 558h-42c-38 0 -50 -11 -50 -60v-162h-45v85c0 60 -12 139 -66 195c-4 -6 -14 -16 -23 -23v68h226v-103zM50 149
v-61h367v61h-107v124h95v662h-54v-53h-226v67h-53v-676h91v-124h-113zM723 478v41c0 22 -1 47 -3 73h218v68h-218c81 78 180 177 230 241l-46 53c-46 -62 -135 -158 -213 -236c-33 82 -96 167 -219 240c-10 -16 -30 -40 -47 -52c134 -74 191 -164 215 -246h-186v-68h200
c3 -27 4 -53 4 -75v-39h-128v-40c-23 25 -48 47 -73 64c-8 -16 -25 -41 -39 -54c42 -26 83 -69 116 -123c-23 -26 -59 -58 -89 -80l35 -45c28 18 62 46 86 69c18 -37 33 -79 45 -123h-138v-62h159l11 -3l39 15c-23 131 -69 236 -129 314h274c-63 -86 -104 -202 -129 -339
l58 -12c6 34 14 66 23 98c25 -24 55 -53 73 -76l42 43c-32 32 -68 63 -98 85c8 26 19 50 31 73c32 -24 70 -56 94 -79l42 44c-35 31 -77 58 -112 79c31 48 67 88 110 115c-15 14 -34 40 -44 60c-24 -17 -46 -38 -67 -61v38h-127z" />
</svg>
