<?xml version="1.0" standalone="no"?>
<!DOCTYPE svg PUBLIC "-//W3C//DTD SVG 1.1//EN" "http://www.w3.org/Graphics/SVG/1.1/DTD/svg11.dtd" >
<svg xmlns="http://www.w3.org/2000/svg" xmlns:xlink="http://www.w3.org/1999/xlink" version="1.1" viewBox="-10 0 1010 1000">
   <path fill="currentColor"
d="M539 181v80h-62v-138h205c-9 -23 -21 -48 -32 -69l62 -15c15 25 32 58 42 84h190v136h-64v-78h-341zM737 283l39 -36c63 41 143 102 185 141l-42 42c-39 -40 -119 -103 -182 -147zM634 252l54 19c-49 57 -126 119 -191 157c-7 -11 -27 -37 -38 -48
c62 -32 132 -80 175 -128zM266 273v-123h-47v123h47zM358 512v-176h-50v162c0 12 2 14 12 14h30h8zM131 821h222v-103h-222v103zM175 336h-47v239c40 -49 47 -106 47 -154v-85zM353 558h-36c-41 0 -53 -11 -53 -60v-162h-45v85c0 60 -12 139 -66 195c-4 -6 -13 -14 -22 -21
v66h222v-103zM50 150v-62h377v62h-104v123h92v663h-62v-54h-222v69h-58v-678h89v-123h-112zM689 344l60 19c-5 8 -10 17 -15 25c54 62 154 128 234 162c-12 15 -26 41 -32 58c-80 -42 -174 -111 -235 -176c-59 75 -137 140 -224 188c-10 -13 -32 -34 -45 -43
c111 -57 208 -145 257 -233zM863 609l41 17c-28 72 -73 131 -128 179c62 33 121 65 162 89l-37 54c-43 -27 -108 -65 -178 -103c-71 47 -153 80 -238 101c-7 -16 -21 -41 -34 -55c75 -15 147 -42 210 -79c-47 -24 -93 -48 -135 -69l35 -45c47 23 101 49 155 77
c39 -31 72 -66 96 -106h-300v-57h338z" />
</svg>
