<?xml version="1.0" standalone="no"?>
<!DOCTYPE svg PUBLIC "-//W3C//DTD SVG 1.1//EN" "http://www.w3.org/Graphics/SVG/1.1/DTD/svg11.dtd" >
<svg xmlns="http://www.w3.org/2000/svg" xmlns:xlink="http://www.w3.org/1999/xlink" version="1.1" viewBox="-10 0 1010 1000">
   <path fill="currentColor"
d="M946 168l-50 31c-21 -30 -62 -82 -95 -119l48 -26c34 35 76 83 97 114zM222 175l-56 26c-11 -36 -34 -94 -56 -137l53 -21c22 41 48 97 59 132zM286 352v-76h-54v76h54zM380 570v-160h-52v146c0 14 2 15 12 15h31c4 0 7 0 9 -1zM132 840h248v-80h-248v80zM189 410h-57
v215c49 -49 57 -109 57 -157v-58zM379 615h-43c-39 0 -50 -10 -50 -59v-146h-53v59c0 57 -13 133 -67 186c-7 -10 -24 -23 -34 -28v76h248v-88h-1zM357 43l65 23c-25 48 -55 102 -81 144h117v66h-123v76h104v588h-59v-39h-248v45h-57v-594h108v-76h-131v-66h226
c28 -47 61 -118 79 -167zM712 680l5 63c-86 22 -173 45 -243 63l-13 -69c65 -12 156 -34 251 -57zM638 572v-141h-85v141h85zM502 371h188v261h-188v-261zM878 375l62 27c-29 115 -71 218 -123 305c17 103 41 164 72 166c15 1 25 -49 31 -129c11 14 38 33 49 40
c-18 139 -50 177 -82 176c-58 -2 -95 -66 -120 -177c-47 64 -100 116 -157 158c-9 -12 -31 -31 -46 -43c72 -49 135 -119 188 -204c-16 -112 -24 -256 -28 -420h-245v-67h243c-1 -52 -1 -106 -2 -162h65c0 56 0 110 1 162h163v67h-162c3 123 9 232 18 323
c30 -68 56 -142 73 -222z" />
</svg>
