<?xml version="1.0" standalone="no"?>
<!DOCTYPE svg PUBLIC "-//W3C//DTD SVG 1.1//EN" "http://www.w3.org/Graphics/SVG/1.1/DTD/svg11.dtd" >
<svg xmlns="http://www.w3.org/2000/svg" xmlns:xlink="http://www.w3.org/1999/xlink" version="1.1" viewBox="-10 0 1010 1000">
   <path fill="currentColor"
d="M258 273v-124h-45v124h45zM351 512v-176h-50v162c0 12 1 14 12 14h29h9zM123 821h228v-103h-228v103zM171 336h-48v241c41 -49 48 -107 48 -156v-85zM351 558h-42c-39 0 -51 -11 -51 -60v-162h-44v85c0 60 -12 139 -67 195c-4 -7 -15 -17 -24 -24v69h228v-103zM48 149
v-61h370v61h-109v124h96v662h-54v-53h-228v67h-52v-676h91v-124h-114zM612 195v84h164v-84h-164zM669 787v-312h-151v310c23 -47 43 -112 55 -168c-11 -29 -22 -60 -34 -86l38 -17c38 87 76 201 92 273zM836 341h-114v72h210v473c0 32 -5 49 -26 60c-19 10 -51 11 -99 11
c-2 -17 -9 -42 -16 -58c33 1 63 1 72 0c10 0 12 -4 12 -14v-96l-33 19c-8 -34 -23 -80 -40 -128c-14 49 -31 96 -52 134c-7 -9 -20 -22 -31 -29c24 -47 46 -113 58 -170c-12 -30 -26 -61 -39 -87l37 -18c40 81 80 183 100 255v-290h-157v483h-49v-161l-38 20
c-7 -35 -19 -80 -34 -128c-14 48 -31 95 -52 133c-6 -8 -17 -19 -27 -27v161h-56v-543h203v-72h-111v-146h-113v-63h113v-89h58v89h164v-89h60v89h118v63h-118v146z" />
</svg>
