<?xml version="1.0" standalone="no"?>
<!DOCTYPE svg PUBLIC "-//W3C//DTD SVG 1.1//EN" "http://www.w3.org/Graphics/SVG/1.1/DTD/svg11.dtd" >
<svg xmlns="http://www.w3.org/2000/svg" xmlns:xlink="http://www.w3.org/1999/xlink" version="1.1" viewBox="-10 0 1010 1000">
   <path fill="currentColor"
d="M253 273v-124h-44v124h44zM343 511v-175h-48v162c0 13 2 14 11 14h27c5 0 8 0 10 -1zM121 821h222v-103h-222v103zM168 336h-47v247c41 -49 47 -111 47 -161v-86zM341 556h-39c-37 0 -49 -10 -49 -57v-163h-43v87c0 58 -10 136 -58 193c-6 -8 -21 -20 -31 -27v72h222
v-105h-2zM47 149v-61h375v61h-118v124h93v662h-54v-53h-222v67h-52v-676h89v-124h-111zM706 432v-107c-66 61 -161 120 -242 153c-9 -14 -26 -36 -40 -49c79 -26 173 -79 237 -134h-209v-57h221c-39 -20 -81 -40 -118 -54l40 -37c37 14 80 33 119 52c29 -19 62 -43 90 -66
h-323v-56h390l15 -5l42 37c-48 40 -110 83 -163 117c7 4 14 8 20 12h118l11 -3l46 16c-26 54 -61 115 -93 152l-52 -24c19 -22 39 -53 56 -84h-99v137c0 30 -6 44 -28 54c-22 9 -55 9 -105 9c-3 -17 -12 -37 -21 -52c35 1 65 1 76 1c10 0 12 -3 12 -12zM760 750h-124v91h124
v-91zM812 887h-176v32h-53v-216h229v184zM929 507v382c0 32 -6 48 -29 57c-22 10 -55 12 -108 12c-4 -17 -14 -40 -22 -55c40 1 74 1 83 0c12 -1 15 -4 15 -14v-207l-31 35c-27 -33 -80 -82 -125 -115l32 -31c44 32 98 78 124 109v-119h-350v124c38 -31 88 -81 117 -115
l39 30c-38 45 -88 89 -127 120l-29 -27v265h-63v-451h474z" />
</svg>
