<?xml version="1.0" standalone="no"?>
<!DOCTYPE svg PUBLIC "-//W3C//DTD SVG 1.1//EN" "http://www.w3.org/Graphics/SVG/1.1/DTD/svg11.dtd" >
<svg xmlns="http://www.w3.org/2000/svg" xmlns:xlink="http://www.w3.org/1999/xlink" version="1.1" viewBox="-10 0 1010 1000">
   <path fill="currentColor"
d="M648 490l-44 17c-3 -13 -7 -28 -12 -45c-139 19 -162 24 -174 31c-3 -12 -10 -40 -16 -55c14 -3 30 -19 50 -43c10 -13 37 -49 64 -94c-79 11 -96 17 -106 22c-2 -12 -10 -40 -16 -54c12 -2 23 -16 36 -37c14 -19 60 -97 86 -171l51 19c-29 63 -64 128 -100 178l80 -8
c12 -21 23 -43 33 -65l49 21c-45 81 -97 162 -150 222l99 -11c-8 -23 -15 -46 -23 -66l43 -12c19 49 41 114 50 151zM123 821h212v-103h-212v103zM168 336h-45v237c38 -48 45 -105 45 -152v-85zM210 149v124h43v-124h-43zM335 511v-175h-40v162c0 13 1 14 10 14h21
c4 0 7 0 9 -1zM210 336v85c0 60 -12 139 -65 195c-5 -6 -14 -14 -22 -21v66h212v-103h-1h-33c-37 0 -48 -11 -48 -59v-163h-43zM856 628l58 23c-27 60 -65 115 -113 162c23 41 52 64 84 67c18 1 29 -36 37 -108c11 16 34 33 45 40c-17 111 -45 146 -80 143
c-56 -4 -100 -39 -134 -98c-41 33 -87 62 -137 85c-8 -14 -25 -36 -38 -48c56 -23 106 -55 149 -91c-20 -51 -37 -114 -50 -186h-134c0 12 -1 24 -2 35c45 36 103 85 132 117l-40 47c-23 -25 -63 -63 -101 -96c-14 80 -43 165 -100 233c-8 -13 -29 -34 -43 -44v26h-54v-53
h-212v67h-52v-676h88v-124h-110v-61h355v61h-101v124h86v630c72 -85 91 -197 95 -286h-71v-60h72v-60h59v60h123c-20 -142 -30 -315 -35 -506h59c4 195 15 368 36 506h129c-22 -22 -53 -48 -79 -69l36 -32c-60 10 -75 14 -84 18c-2 -11 -10 -40 -15 -55c13 -2 29 -19 46 -44
c10 -12 35 -49 60 -93c-73 11 -90 16 -100 21c-3 -12 -10 -40 -16 -54c11 -3 21 -16 33 -35c12 -18 54 -93 76 -164l49 18c-25 61 -56 123 -88 170l75 -8c11 -20 21 -42 30 -63l48 20c-41 81 -90 161 -139 223l102 -13c-8 -23 -17 -45 -25 -65l43 -13c19 48 43 112 52 149
l-43 17c-3 -12 -7 -27 -12 -43c-39 6 -68 10 -91 14c31 22 69 54 91 74l-25 27h79v60h-222c11 54 23 101 37 139c35 -38 63 -82 82 -128z" />
</svg>
