<?xml version="1.0" standalone="no"?>
<!DOCTYPE svg PUBLIC "-//W3C//DTD SVG 1.1//EN" "http://www.w3.org/Graphics/SVG/1.1/DTD/svg11.dtd" >
<svg xmlns="http://www.w3.org/2000/svg" xmlns:xlink="http://www.w3.org/1999/xlink" version="1.1" viewBox="-10 0 1010 1000">
   <path fill="currentColor"
d="M549 266v-39h-81v39h81zM549 347v-40h-81v40h81zM335 307v40h80v-40h-80zM335 227v39h80v-39h-80zM410 186v-38h-139v-47h139v-49h63v49h143v47h-143v38h128v203h-129v40h146v23c33 -69 39 -151 39 -213v-128c79 -16 170 -40 221 -64l53 43c-60 24 -139 44 -213 58v78
h233v56h-85v243h-63v-243h-86c-4 81 -21 177 -73 249c-9 -12 -35 -34 -48 -41c3 -5 6 -9 9 -14h-133v53h-62v-53h-150v-47h150v-40h-125v-203h125zM127 524l-46 -41c38 -46 95 -121 140 -190l40 39c-42 63 -91 135 -134 192zM253 127l-37 47c-27 -26 -83 -62 -127 -87
l35 -40c45 22 101 56 129 80zM218 257l-37 46c-28 -25 -83 -61 -128 -85l36 -40c45 21 101 55 129 79zM561 635v-44h-105v44h105zM787 679h-166v24c0 20 6 22 36 22h119h11v-46zM215 878h572v-36h-572v36zM388 679h-173v56c111 -11 157 -33 173 -56zM785 765h-133
c-73 0 -91 -11 -91 -63v-23h-109c-14 44 -65 79 -209 100c-5 -12 -17 -29 -28 -40v60h572v-34h-2zM953 591h-332v44h236v320h-70v-33h-572v33h-68v-320h250v-44h-352v-51h908v51z" />
</svg>
