<?xml version="1.0" standalone="no"?>
<!DOCTYPE svg PUBLIC "-//W3C//DTD SVG 1.1//EN" "http://www.w3.org/Graphics/SVG/1.1/DTD/svg11.dtd" >
<svg xmlns="http://www.w3.org/2000/svg" xmlns:xlink="http://www.w3.org/1999/xlink" version="1.1" viewBox="-10 0 1010 1000">
   <path fill="currentColor"
d="M486 235l-36 61c-42 -42 -111 -94 -175 -137c-36 50 -76 96 -117 137h265v65h-114v108h146v65h-146v276l145 -28l5 60c-133 29 -274 59 -377 80l-17 -67c48 -8 111 -19 178 -32v-289h-166v-65h166v-108h-106v-45c-18 15 -36 31 -54 45c-5 -17 -22 -57 -34 -75
c85 -59 172 -150 223 -248l61 26c-7 13 -15 27 -24 41c68 41 135 91 177 130zM386 773l-47 -16c17 -49 40 -128 49 -182l59 18c-19 61 -42 134 -61 180zM99 600l52 -13c20 58 37 134 43 183l-55 15c-4 -50 -22 -127 -40 -185zM839 59h73v894h-73v-271
c-243 62 -276 75 -299 90c-7 -18 -25 -52 -38 -69c22 -10 60 -36 60 -77v-490h72v525l205 -47v-555z" />
</svg>
