<?xml version="1.0" standalone="no"?>
<!DOCTYPE svg PUBLIC "-//W3C//DTD SVG 1.1//EN" "http://www.w3.org/Graphics/SVG/1.1/DTD/svg11.dtd" >
<svg xmlns="http://www.w3.org/2000/svg" xmlns:xlink="http://www.w3.org/1999/xlink" version="1.1" viewBox="-10 0 1010 1000">
   <path fill="currentColor"
d="M252 533v279c42 -9 86 -19 129 -29l3 59c-110 27 -227 56 -312 76l-15 -65c38 -8 85 -18 138 -29v-291h-133v-64h133v-110h-83v-55c-16 18 -31 33 -47 47c-4 -17 -20 -56 -29 -73c70 -56 143 -146 186 -240l52 25c-7 15 -14 28 -22 43c56 40 113 88 148 127l-31 59
c-35 -40 -93 -92 -147 -133c-31 50 -66 97 -102 137h227v63h-95v110h125v64h-125zM77 600l45 -13c17 58 33 134 38 183l-48 15c-4 -50 -19 -127 -35 -185zM314 773l-41 -16c15 -49 34 -128 44 -182l50 18c-17 60 -37 134 -53 180zM493 701l124 -49c5 18 13 42 18 55
c-172 75 -200 90 -215 104l-1 1c-5 -19 -19 -55 -31 -72c16 -10 39 -32 39 -71v-516c69 -24 149 -57 195 -86l47 52c-51 25 -115 51 -176 70v512zM926 154v551c0 37 -7 58 -30 71c-22 13 -56 14 -108 14c-2 -20 -12 -52 -22 -72c37 1 70 1 79 1c11 0 15 -4 15 -15v-484h-134
v737h-65v-803h265z" />
</svg>
