<?xml version="1.0" standalone="no"?>
<!DOCTYPE svg PUBLIC "-//W3C//DTD SVG 1.1//EN" "http://www.w3.org/Graphics/SVG/1.1/DTD/svg11.dtd" >
<svg xmlns="http://www.w3.org/2000/svg" xmlns:xlink="http://www.w3.org/1999/xlink" version="1.1" viewBox="-10 0 1010 1000">
   <path fill="currentColor"
d="M443 243l-46 53c-35 -40 -92 -93 -146 -138c-34 50 -75 98 -117 138h236v65h-96v108h131v66h-131v272l133 -28l7 63c-120 29 -248 60 -342 82l-20 -70c42 -8 97 -20 156 -32v-287h-146v-66h146v-108h-93v-47c-14 13 -28 24 -42 35c-6 -16 -25 -53 -35 -70
c79 -55 159 -143 206 -234l63 23c-6 11 -12 24 -20 36c58 46 119 100 156 139zM343 770l-46 -15c17 -48 39 -129 48 -183l59 18c-19 61 -42 134 -61 180zM87 600l52 -14c21 59 39 135 45 185l-55 15c-5 -50 -23 -126 -42 -186zM738 634v-280h-103v280h103zM582 301h210v386
h-210v-386zM515 831h341v-670h-341v670zM451 97h472v851h-67v-53h-341v62h-64v-860z" />
</svg>
