<?xml version="1.0" standalone="no"?>
<!DOCTYPE svg PUBLIC "-//W3C//DTD SVG 1.1//EN" "http://www.w3.org/Graphics/SVG/1.1/DTD/svg11.dtd" >
<svg xmlns="http://www.w3.org/2000/svg" xmlns:xlink="http://www.w3.org/1999/xlink" version="1.1" viewBox="-10 0 1010 1000">
   <path fill="currentColor"
d="M261 810l122 -28l4 60c-113 29 -235 59 -323 80l-16 -67c41 -8 94 -19 152 -32v-289h-140v-65h140v-108h-90v-44c-15 15 -30 30 -45 44c-5 -17 -21 -57 -30 -75c73 -59 147 -150 191 -248l54 26c-7 13 -13 27 -21 42c58 41 117 90 153 129l-32 61
c-37 -41 -95 -93 -151 -136c-31 49 -65 96 -100 136h227v65h-95v108h124v65h-124v276zM78 600l47 -14c17 59 32 134 37 183l-50 16c-3 -50 -19 -127 -34 -185zM326 774l-43 -17c15 -49 33 -128 43 -182l53 19c-17 61 -37 134 -53 180zM474 477l54 11
c-18 117 -47 229 -92 304c-7 -11 -29 -32 -43 -41c43 -68 68 -170 81 -274zM956 422h-154v453c0 38 -8 55 -31 66c-24 9 -63 10 -128 10c-3 -18 -11 -42 -19 -59c47 1 90 1 102 1c13 -1 17 -5 17 -18v-453h-114v128c0 132 -15 284 -140 398c-9 -16 -30 -39 -43 -51
c112 -101 124 -233 124 -348v-127h-160v-64h248v-126h-196v-64h196v-119h58v119h195v64h-195v126h240v64zM828 495l52 -14c33 95 65 219 77 292l-56 19c-10 -74 -41 -201 -73 -297z" />
</svg>
