<?xml version="1.0" standalone="no"?>
<!DOCTYPE svg PUBLIC "-//W3C//DTD SVG 1.1//EN" "http://www.w3.org/Graphics/SVG/1.1/DTD/svg11.dtd" >
<svg xmlns="http://www.w3.org/2000/svg" xmlns:xlink="http://www.w3.org/1999/xlink" version="1.1" viewBox="-10 0 1010 1000">
   <path fill="currentColor"
d="M260 810l138 -31l4 60c-120 30 -247 61 -338 83l-15 -66c41 -9 93 -20 151 -33v-289h-141v-65h141v-108h-89v-44c-15 15 -30 30 -45 44c-5 -17 -21 -57 -30 -74c72 -59 147 -150 191 -248l54 25c-6 15 -13 28 -20 42c57 41 115 91 152 130l-33 61
c-36 -42 -94 -94 -150 -136c-30 49 -65 95 -101 135h228v65h-97v108h127v65h-127v276zM77 600l47 -13c16 58 32 135 37 184l-50 14c-3 -50 -18 -126 -34 -185zM322 773l-42 -15c15 -49 33 -129 42 -183l53 18c-18 61 -37 134 -53 180zM557 214v-163h70v905h-70v-262h-152
v-68h152v-140h-133v-66h133v-139h-136v-67h136zM958 629v68h-169v259h-69v-905h69v163h157v67h-157v139h148v66h-148v143h169z" />
</svg>
