<?xml version="1.0" standalone="no"?>
<!DOCTYPE svg PUBLIC "-//W3C//DTD SVG 1.1//EN" "http://www.w3.org/Graphics/SVG/1.1/DTD/svg11.dtd" >
<svg xmlns="http://www.w3.org/2000/svg" xmlns:xlink="http://www.w3.org/1999/xlink" version="1.1" viewBox="-10 0 1010 1000">
   <path fill="currentColor"
d="M939 488l-35 54c-52 -35 -148 -83 -232 -116c-40 54 -103 92 -203 119c-7 -16 -25 -43 -39 -54c181 -43 222 -123 236 -264h68c-6 58 -15 108 -34 151c84 31 185 75 239 110zM543 270l52 11c-16 43 -43 96 -74 128l-50 -28c29 -26 57 -71 72 -111zM842 276l52 32
c-27 33 -54 68 -76 92l-39 -27c20 -25 49 -69 63 -97zM506 204v89h-63v-146h218c-9 -28 -21 -60 -32 -86l67 -17c14 32 30 73 39 103h195v138h-65v-81h-359zM409 767l8 60c-120 32 -248 65 -343 89l-19 -67c42 -9 96 -21 156 -35v-281h-148v-64h148v-109h-95v-52
c-15 14 -29 25 -44 37c-6 -15 -24 -50 -34 -65c79 -57 159 -144 206 -235l60 22c-5 11 -12 24 -20 36c56 43 113 94 148 132l-45 52c-34 -37 -88 -88 -138 -131c-35 51 -77 99 -120 140h242v64h-96v109h131v64h-131v267zM88 596l49 -12c20 59 38 135 44 184l-52 15
c-4 -51 -23 -127 -41 -187zM345 766l-45 -14c17 -49 39 -129 49 -183l55 17c-19 61 -41 134 -59 180zM811 635h-249c31 52 73 97 123 136c51 -38 95 -83 126 -136zM863 571l47 24c-37 89 -96 161 -166 216c65 40 141 70 223 88c-16 14 -33 40 -43 57
c-87 -22 -168 -57 -237 -104c-77 48 -162 82 -250 105c-8 -17 -26 -44 -39 -57c81 -19 161 -49 232 -92c-56 -48 -102 -104 -136 -168l14 -5h-51v-61h392z" />
</svg>
