<?xml version="1.0" standalone="no"?>
<!DOCTYPE svg PUBLIC "-//W3C//DTD SVG 1.1//EN" "http://www.w3.org/Graphics/SVG/1.1/DTD/svg11.dtd" >
<svg xmlns="http://www.w3.org/2000/svg" xmlns:xlink="http://www.w3.org/1999/xlink" version="1.1" viewBox="-10 0 1010 1000">
   <path fill="currentColor"
d="M406 782l4 60c-120 29 -251 59 -344 80l-16 -66c43 -9 99 -20 161 -33v-289h-150v-65h150v-108h-96v-44c-16 15 -32 30 -48 44c-5 -17 -22 -57 -32 -75c77 -59 156 -150 203 -248l57 26c-6 13 -13 28 -21 42c60 41 122 90 161 129l-34 61c-38 -41 -100 -93 -160 -136
c-32 49 -68 96 -106 136h241v65h-104v108h135v65h-135v277zM80 600l49 -13c18 58 34 134 39 183l-51 15c-4 -50 -20 -126 -37 -185zM342 773l-44 -15c17 -49 36 -129 45 -183l55 18c-19 61 -38 134 -56 180zM604 579l39 16c-33 150 -112 257 -206 315
c-7 -15 -25 -39 -39 -51c71 -39 135 -118 170 -216h-126v-61h150zM532 351v89h298v-89h-298zM532 208v87h298v-87h-298zM878 534l50 43c-42 42 -91 87 -133 120c45 69 101 125 167 158c-14 12 -33 37 -42 54c-83 -47 -149 -130 -198 -230v196c0 38 -7 57 -32 68
c-24 12 -64 13 -126 13c-2 -20 -10 -48 -19 -67c44 2 83 2 95 1c13 -1 16 -4 16 -15v-376h-188v-350h159c13 -35 26 -76 32 -106l78 17c-13 30 -27 62 -40 89h199v350h-174v36c12 40 28 79 47 115c39 -35 82 -81 109 -116z" />
</svg>
