<?xml version="1.0" standalone="no"?>
<!DOCTYPE svg PUBLIC "-//W3C//DTD SVG 1.1//EN" "http://www.w3.org/Graphics/SVG/1.1/DTD/svg11.dtd" >
<svg xmlns="http://www.w3.org/2000/svg" xmlns:xlink="http://www.w3.org/1999/xlink" version="1.1" viewBox="-10 0 1010 1000">
   <path fill="currentColor"
d="M144 176v103h-69v-163h385c-9 -21 -20 -42 -31 -60l77 -21c16 23 32 55 43 81h374v163h-72v-103h-707zM317 610h364c-65 -23 -128 -51 -188 -86c-52 33 -112 61 -176 86zM609 376v58h176v-58h-176zM609 272v59h176v-59h-176zM394 327v-58h-176v58h176zM394 431v-59h-176
v59h176zM704 659h-168v59h306v51h-306v113h93c21 -31 44 -74 57 -105l62 16c-17 32 -36 63 -52 89h222v48h-835v-48h220c-11 -28 -30 -62 -48 -90l60 -16c25 31 47 75 58 106h91v-113h-302v-51h302v-59h-162v-43c-74 27 -154 50 -230 67c-9 -18 -25 -43 -40 -58
c152 -28 315 -79 424 -147h-298v-256h299v255c19 -12 36 -23 51 -36l40 20v-236h299v256h-292l-15 12c123 66 275 100 424 126c-15 15 -32 37 -40 57c-75 -16 -148 -35 -220 -58v41z" />
</svg>
