<?xml version="1.0" standalone="no"?>
<!DOCTYPE svg PUBLIC "-//W3C//DTD SVG 1.1//EN" "http://www.w3.org/Graphics/SVG/1.1/DTD/svg11.dtd" >
<svg xmlns="http://www.w3.org/2000/svg" xmlns:xlink="http://www.w3.org/1999/xlink" version="1.1" viewBox="-10 0 1010 1000">
   <path fill="currentColor"
d="M275 192v-68h-192v-51h261v167h-185c-3 24 -7 46 -10 68h193s0 17 -1 26c-4 88 -10 127 -28 144c-14 15 -31 20 -60 21c-25 2 -77 1 -133 -2c-1 -18 -9 -41 -20 -57c54 6 109 6 126 6s28 -1 34 -7c8 -8 12 -30 16 -82h-191v-1h-12c10 -45 19 -110 25 -164h177zM690 381
v46l125 -5c-8 -9 -14 -17 -21 -24l43 -17h-147zM470 342h154v-51h-154v51zM830 291h-140v51h140v-51zM500 115v45h293v-45h-293zM571 478c-8 6 -17 13 -27 18c122 58 270 88 415 109c-14 14 -30 36 -37 54c-147 -28 -296 -65 -426 -135c-117 62 -275 107 -422 134
c-8 -14 -22 -37 -35 -51c150 -23 316 -66 428 -126l-75 4l-7 -49c65 -2 148 -4 239 -8v-47h-220v-130h220v-49h-190v-130h432v130h-176v49h209v130h-48c36 38 73 88 89 123l-56 23c-8 -19 -21 -41 -37 -64zM707 777l61 17c-13 26 -28 52 -42 74h205v54h-866v-54h209
c-10 -24 -25 -52 -39 -75l59 -16c20 27 40 64 50 91h121v-99h-338v-50h338v-63h-158v-47h386v47h-156v63h330v50h-330v99h122c18 -29 37 -66 48 -91z" />
</svg>
