<?xml version="1.0" standalone="no"?>
<!DOCTYPE svg PUBLIC "-//W3C//DTD SVG 1.1//EN" "http://www.w3.org/Graphics/SVG/1.1/DTD/svg11.dtd" >
<svg xmlns="http://www.w3.org/2000/svg" xmlns:xlink="http://www.w3.org/1999/xlink" version="1.1" viewBox="-10 0 1010 1000">
   <path fill="currentColor"
d="M724 226v-79h-87v79h87zM868 410v-126h-90v126h90zM491 284v126h92v-126h-92zM724 284h-87v126h87v-126zM579 226v-79h-180v-62h548v62h-165v79h148v242h-499v-242h148zM386 787l4 60c-112 26 -231 54 -318 75l-15 -67c40 -7 92 -18 147 -30v-291h-139v-65h139v-108h-89
v-47c-16 16 -32 32 -48 47c-5 -17 -22 -57 -31 -75c72 -59 147 -151 190 -248l55 25c-7 14 -14 29 -21 43c56 39 113 85 149 121l-33 61c-36 -38 -91 -87 -146 -127c-30 49 -64 95 -99 135h231v65h-98v108h125v65h-125v280zM82 600l48 -12c17 58 33 133 38 183l-50 15
c-4 -50 -19 -127 -36 -186zM326 774l-42 -16c15 -49 34 -128 44 -182l52 17c-17 61 -37 135 -54 181zM946 676h-207c57 73 149 142 228 178c-15 14 -35 39 -45 55c-74 -41 -161 -117 -220 -195v241h-66v-228c-58 77 -140 148 -217 186c-11 -17 -30 -41 -44 -55
c84 -35 174 -106 227 -182h-189v-61h118c-11 -29 -38 -72 -61 -103l52 -24c26 31 54 73 66 102l-50 25h98v-130h66v130h96l-39 -19c20 -30 48 -77 62 -108l61 26c-24 37 -50 75 -72 101h136v61z" />
</svg>
