<?xml version="1.0" standalone="no"?>
<!DOCTYPE svg PUBLIC "-//W3C//DTD SVG 1.1//EN" "http://www.w3.org/Graphics/SVG/1.1/DTD/svg11.dtd" >
<svg xmlns="http://www.w3.org/2000/svg" xmlns:xlink="http://www.w3.org/1999/xlink" version="1.1" viewBox="-10 0 1010 1000">
   <path fill="currentColor"
d="M618 95l48 24c-20 64 -47 139 -69 188l-43 -20c21 -51 50 -135 64 -192zM451 288l-46 16c-10 -49 -33 -133 -54 -196l43 -13c22 63 47 145 57 193zM196 39l45 25c-5 13 -11 27 -16 41c50 41 100 91 133 129l-28 62c-31 -40 -82 -93 -131 -136c-25 49 -55 96 -85 136h193
v65h-80v108h99v65h-99v278l93 -24l4 61c-92 26 -189 53 -262 73l-14 -67c34 -7 79 -17 127 -30v-291h-117v-65h117v-108h-73v-49c-13 16 -25 30 -38 44c-4 -17 -18 -57 -26 -75c60 -58 122 -148 158 -242zM282 776l-38 -18c13 -49 29 -128 37 -182l48 19
c-15 62 -33 134 -47 181zM67 601l41 -14c16 58 29 134 33 183l-44 16c-4 -50 -17 -127 -30 -185zM430 447l40 8c-7 100 -18 207 -38 279c-8 -5 -25 -14 -36 -18c20 -70 29 -173 34 -269zM672 890v5c47 -41 84 -96 113 -164c-26 -80 -45 -173 -59 -274c-4 13 -11 25 -17 36
c-7 -7 -23 -21 -37 -31v428zM876 286h-99c-3 18 -6 35 -10 52c10 109 26 211 52 300c29 -100 47 -220 57 -352zM957 286h-26c-12 169 -36 321 -80 445c28 69 64 126 111 164c-15 14 -36 40 -46 59c-40 -38 -72 -86 -99 -144c-29 60 -66 110 -110 147c-8 -14 -22 -33 -36 -47
c-3 17 -9 27 -21 35c-16 9 -40 11 -76 10c-1 -15 -8 -39 -16 -55c23 1 45 1 51 1c8 -1 11 -3 11 -12v-513h-87v2h-5v565h-45v-565h-5v-2h-86v579h-51v-641h137v-269h55v269h139v114c46 -96 63 -234 71 -381l62 3c-4 59 -9 116 -17 169h169v67zM610 712l-40 12
c-2 -66 -14 -181 -31 -268l36 -7c19 89 33 201 35 263z" />
</svg>
