<?xml version="1.0" standalone="no"?>
<!DOCTYPE svg PUBLIC "-//W3C//DTD SVG 1.1//EN" "http://www.w3.org/Graphics/SVG/1.1/DTD/svg11.dtd" >
<svg xmlns="http://www.w3.org/2000/svg" xmlns:xlink="http://www.w3.org/1999/xlink" version="1.1" viewBox="-10 0 1010 1000">
   <path fill="currentColor"
d="M938 251l-39 46c-26 -28 -73 -68 -119 -100c-25 48 -57 89 -93 122c-10 -12 -32 -35 -46 -45c63 -51 109 -131 130 -223l61 12c-7 29 -17 57 -28 84c50 31 106 74 134 104zM656 206l-38 47c-17 -19 -48 -44 -78 -68c-29 50 -65 94 -105 127c-9 -11 -32 -33 -47 -41
c68 -51 118 -131 142 -223l60 12c-6 26 -15 51 -26 75c35 23 71 50 92 71zM258 805l126 -33l4 59c-110 33 -228 67 -313 90l-15 -66c38 -9 87 -21 141 -36v-285h-131v-65h131v-108h-83v-44c-14 15 -28 30 -42 44c-5 -17 -20 -57 -29 -75c67 -59 137 -150 178 -248l50 26
c-6 13 -12 27 -19 41c54 41 109 91 144 130l-30 61c-34 -41 -89 -93 -142 -136c-28 49 -60 96 -93 136h216v65h-93v108h118v65h-118v271zM87 600l44 -14c15 59 30 134 34 183l-47 16c-4 -50 -18 -127 -31 -185zM322 774l-39 -17c13 -49 31 -128 39 -182l50 18
c-16 62 -34 134 -50 181zM659 431l-43 50c-18 -21 -49 -48 -80 -72c-29 47 -63 89 -101 120c-9 -12 -33 -33 -46 -43c66 -50 115 -126 138 -216l62 11c-7 26 -16 50 -26 74c35 24 76 54 96 76zM825 601h-307v96h307v-96zM518 848h307v-96h-307v96zM451 960v-417h444v413h-70
v-49h-307v53h-67zM774 273l61 11c-6 22 -13 43 -21 64c33 51 90 102 147 126c-15 13 -35 36 -44 51c-49 -24 -95 -69 -130 -118c-27 50 -60 93 -98 126c-9 -11 -32 -32 -46 -43c64 -50 109 -127 131 -217z" />
</svg>
