<?xml version="1.0" standalone="no"?>
<!DOCTYPE svg PUBLIC "-//W3C//DTD SVG 1.1//EN" "http://www.w3.org/Graphics/SVG/1.1/DTD/svg11.dtd" >
<svg xmlns="http://www.w3.org/2000/svg" xmlns:xlink="http://www.w3.org/1999/xlink" version="1.1" viewBox="-10 0 1010 1000">
   <path fill="currentColor"
d="M719 417h57v66c47 -14 95 -31 124 -46l39 37c-46 21 -107 39 -163 53v47c0 19 4 22 27 22h77c20 0 24 -8 26 -72c13 8 33 16 49 20c-5 79 -21 99 -68 99h-91c-61 0 -77 -13 -77 -69v-157zM349 777l6 58c-101 29 -207 60 -286 82l-16 -65c39 -8 88 -21 143 -35v-283h-137
v-65h137v-110h-86v-51c-15 16 -28 29 -43 42c-5 -16 -20 -55 -30 -71c71 -57 143 -146 185 -241l52 24c-7 15 -14 30 -22 45c55 40 110 88 144 126l-30 57c-35 -39 -90 -90 -143 -131c-31 50 -66 97 -102 137h226v63h-94v110h115v65h-115v269zM77 600l46 -13
c17 58 33 135 38 184l-48 14c-4 -50 -19 -126 -36 -185zM315 774l-41 -16c16 -49 35 -128 43 -182l52 17c-18 61 -37 135 -54 181zM571 171h-92v61h92v-61zM714 232v-61h-89v61h89zM873 279h-103v71h103v-71zM625 279v71h89v-71h-89zM479 279v71h92v-71h-92zM927 397h-448
c-3 169 -20 397 -102 560c-12 -11 -38 -28 -52 -33c86 -171 93 -405 93 -570v-239h220c-9 -19 -20 -38 -30 -54l62 -20c15 24 31 52 42 74h230v56h-172v61h157v165zM532 650l-5 6c-5 -14 -16 -39 -25 -52c11 -5 21 -16 21 -49v-141h52v54h113v45h-113v72l118 -22
c-1 15 0 34 2 45c-116 26 -148 35 -163 42zM640 879h190c43 0 50 -12 54 -98c15 10 39 20 57 23c-8 106 -28 132 -106 132h-197c-97 0 -122 -17 -122 -86v-177h59v87c107 -22 222 -54 287 -88l43 48c-85 41 -216 72 -330 93v36c0 25 10 30 65 30z" />
</svg>
