<?xml version="1.0" standalone="no"?>
<!DOCTYPE svg PUBLIC "-//W3C//DTD SVG 1.1//EN" "http://www.w3.org/Graphics/SVG/1.1/DTD/svg11.dtd" >
<svg xmlns="http://www.w3.org/2000/svg" xmlns:xlink="http://www.w3.org/1999/xlink" version="1.1" viewBox="-10 0 1010 1000">
   <path fill="currentColor"
d="M307 792l4 60c-89 25 -181 51 -251 70l-14 -67c35 -7 80 -18 129 -30v-291h-119v-65h119v-108h-74v-46c-14 16 -28 32 -42 46c-4 -17 -19 -57 -28 -75c65 -59 132 -150 171 -248l48 26c-5 13 -11 27 -17 41c42 33 83 72 110 104l-28 62c-26 -34 -69 -76 -110 -111
c-26 49 -57 96 -88 136h191v65h-79v108h94v65h-94v278zM65 600l43 -14c15 58 29 134 34 183l-46 16c-4 -50 -17 -127 -31 -185zM283 774l-36 -17c13 -49 30 -128 38 -182l45 18c-16 62 -32 134 -47 181zM409 385v62c0 24 0 49 -1 75h115v429h-54v-369h-63
c-5 123 -20 256 -55 361c-13 -8 -37 -19 -53 -25c48 -137 56 -332 56 -471v-369h55v246h52v-272h48v272h40v61h-140zM827 229h-82v93h82v-93zM952 642h-153c42 77 108 156 171 194c-14 13 -33 37 -43 55c-55 -41 -112 -114 -153 -190v253h-59v-248c-37 76 -89 146 -142 188
c-10 -17 -29 -40 -42 -53c60 -39 118 -119 155 -199h-140v-59h169v-85h-129v-269h-47v-59h47v-105h57v105h56v-116h46v116h82v-116h47v116h77v59h-77v146h-175v-146h-56v211h291v58h-160v85h178v59z" />
</svg>
