<?xml version="1.0" standalone="no"?>
<!DOCTYPE svg PUBLIC "-//W3C//DTD SVG 1.1//EN" "http://www.w3.org/Graphics/SVG/1.1/DTD/svg11.dtd" >
<svg xmlns="http://www.w3.org/2000/svg" xmlns:xlink="http://www.w3.org/1999/xlink" version="1.1" viewBox="-10 0 1010 1000">
   <path fill="currentColor"
d="M823 303v50h-304v-50h304zM533 377l52 18c-39 40 -99 83 -149 109c-9 -9 -30 -29 -43 -38c52 -24 106 -55 140 -89zM946 471l-35 38c-33 -29 -97 -72 -148 -98l35 -35c50 27 115 68 148 95zM480 253v103h-60v-157h199v-155h68v51h216v52h-216v52h243v157h-61v-103h-389z
M254 534v276c42 -10 86 -21 129 -32l4 60c-110 31 -229 63 -313 84l-15 -67c37 -8 84 -19 137 -31v-290h-125v-65h125v-108h-84v-50c-15 17 -30 31 -45 45c-4 -17 -19 -58 -28 -77c70 -56 142 -145 185 -241l50 27c-6 13 -12 26 -19 40c54 42 111 93 145 134l-35 57
c-33 -41 -87 -95 -140 -138c-30 50 -64 98 -99 138h218v65h-90v108h114v65h-114zM84 600l45 -14c15 58 29 135 34 184l-47 16c-4 -50 -18 -127 -32 -186zM312 776l-41 -18c14 -49 30 -128 38 -182l51 19c-16 62 -33 135 -48 181zM560 556h224c-41 -28 -79 -61 -116 -101
c-31 37 -68 71 -108 101zM540 868h255v-58h-255v58zM540 708v58h255v-58h-255zM795 665v-58h-255v58h255zM659 367l57 23c-4 7 -9 14 -13 21c75 83 168 130 265 169c-16 12 -35 35 -44 54c-21 -9 -40 -19 -60 -30v345h-69v-29h-255v33h-66v-342c-18 10 -37 20 -56 28
c-11 -15 -28 -37 -44 -51c114 -45 227 -127 285 -221z" />
</svg>
