<?xml version="1.0" standalone="no"?>
<!DOCTYPE svg PUBLIC "-//W3C//DTD SVG 1.1//EN" "http://www.w3.org/Graphics/SVG/1.1/DTD/svg11.dtd" >
<svg xmlns="http://www.w3.org/2000/svg" xmlns:xlink="http://www.w3.org/1999/xlink" version="1.1" viewBox="-10 0 1010 1000">
   <path fill="currentColor"
d="M538 239v-57h-136v-56h136v-81h63v81h142v-80h61v80h129v56h-129v58h-61v-58h-142v57h-63zM376 235l-31 55c-32 -38 -83 -88 -131 -129c-29 49 -61 95 -94 135h203v61h-75v112h115v63h-115v277l116 -27l4 58c-103 27 -211 54 -291 76l-16 -65c36 -8 80 -17 129 -28v-291
h-125v-63h125v-112h-75v-55c-17 19 -32 36 -49 52c-4 -16 -19 -52 -28 -68c68 -58 136 -151 177 -247l48 21c-7 17 -14 34 -22 49c50 41 102 89 135 126zM308 773l-42 -16c15 -49 34 -128 44 -182l52 18c-18 60 -38 134 -54 180zM75 599l45 -12c18 58 34 134 39 183l-49 15
c-3 -50 -19 -127 -35 -186zM847 435h-144v47h144v-47zM703 575h144v-47h-144v47zM493 575h147v-47h-147v47zM640 435h-147v47h147v-47zM640 382v-49h-255v-56h255v-50h63v50h165c-18 -14 -41 -27 -60 -38l31 -29c30 13 63 34 80 51l-16 16h41v56h-241v49h211v308h-67v-68
h-144v56h-63v-56h-147v73h-64v-313h211zM633 868l-37 41c-26 -29 -78 -68 -125 -95l38 -37c45 25 99 62 124 91zM952 721v56h-123v113c0 32 -6 48 -32 58c-24 10 -62 10 -123 10c-3 -17 -12 -40 -21 -56c45 1 86 1 97 0c12 -1 15 -3 15 -13v-112h-369v-56h369v-42h64v42h123
z" />
</svg>
