<?xml version="1.0" standalone="no"?>
<!DOCTYPE svg PUBLIC "-//W3C//DTD SVG 1.1//EN" "http://www.w3.org/Graphics/SVG/1.1/DTD/svg11.dtd" >
<svg xmlns="http://www.w3.org/2000/svg" xmlns:xlink="http://www.w3.org/1999/xlink" version="1.1" viewBox="-10 0 1010 1000">
   <path fill="currentColor"
d="M393 237l-30 59c-35 -41 -91 -94 -145 -137c-30 50 -63 97 -97 137h224v62h-94v111h121v63h-121v279l120 -28l3 57c-110 29 -228 59 -312 80l-15 -64c39 -8 89 -20 144 -31v-293h-133v-63h133v-111h-83v-47c-16 17 -31 33 -47 48c-4 -16 -20 -55 -28 -73
c69 -59 140 -150 182 -248l51 25c-6 14 -13 28 -20 43c55 42 112 92 147 131zM312 776l-43 -18c14 -49 32 -129 40 -183l54 20c-17 62 -34 135 -51 181zM75 600l47 -14c16 58 31 135 36 184l-50 15c-3 -49 -18 -126 -33 -185zM477 762v89h75v-89h-75zM551 494h-74v84h74v-84
zM617 712v-84h-140v84h140zM604 762v89h85v55h-269v-468h268v56h-85v84h68v184h-67zM926 440v321c0 28 -4 45 -24 55c-18 11 -46 12 -86 12c-3 -17 -11 -41 -18 -57c30 1 52 1 61 0c8 0 10 -3 10 -11v-262h-93v457h-57v-515h207zM706 202v-55h-85v55h85zM858 253h-95v83h95
v-83zM621 253v83h85v-83h-85zM477 253v83h87v-83h-87zM396 89h550v58h-183v55h152v184h-493v-184h142v-55h-168v-58z" />
</svg>
