<?xml version="1.0" standalone="no"?>
<!DOCTYPE svg PUBLIC "-//W3C//DTD SVG 1.1//EN" "http://www.w3.org/Graphics/SVG/1.1/DTD/svg11.dtd" >
<svg xmlns="http://www.w3.org/2000/svg" xmlns:xlink="http://www.w3.org/1999/xlink" version="1.1" viewBox="-10 0 1010 1000">
   <path fill="currentColor"
d="M235 810l116 -29l3 61c-104 28 -214 59 -294 80l-14 -67c36 -7 84 -19 135 -32v-289h-125v-65h125v-108h-80v-46c-14 16 -28 32 -42 46c-4 -17 -18 -57 -27 -75c65 -59 132 -150 171 -248l47 26c-5 13 -11 27 -18 41c53 41 107 92 140 132l-29 62
c-34 -42 -86 -95 -137 -139c-28 49 -58 96 -89 136h205v65h-87v108h116v65h-116v276zM71 600l43 -14c15 58 29 134 34 183l-46 16c-3 -50 -17 -126 -31 -185zM291 775l-39 -17c14 -49 30 -129 38 -183l49 20c-15 62 -32 134 -48 180zM448 744h124v-61h-124v61zM572 579h-124
v58h124v-58zM630 527v353c0 30 -4 45 -24 55c-19 10 -49 10 -90 10c-3 -16 -10 -38 -18 -54c30 1 54 1 63 0c9 0 11 -3 11 -11v-90h-124v158h-57v-421h239zM863 225v-91h-106v91h106zM702 225v-91h-105v91h105zM541 225v-91h-100v91h100zM924 79v201h-542v-201h542zM540 353
l46 -18c34 49 69 115 83 156l-48 23c-4 -12 -9 -26 -16 -40c-184 13 -212 16 -228 23c-3 -14 -13 -45 -20 -60c13 -3 26 -13 39 -28c14 -13 61 -72 90 -129l57 26c-28 46 -62 90 -94 125l132 -7c-12 -25 -26 -49 -41 -71zM877 594h-105c-69 0 -86 -17 -86 -81v-215h61v98
c49 -20 99 -44 129 -67l45 42c-48 31 -114 58 -174 78v63c0 21 3 25 30 25h93c22 0 26 -10 29 -77c13 9 37 19 54 23c-6 88 -24 111 -76 111zM780 884h95c23 0 28 -12 30 -93c14 10 37 20 55 23c-7 101 -24 127 -79 127h-108c-68 0 -85 -18 -85 -83v-245h60v111
c51 -22 101 -50 132 -75l48 43c-50 34 -117 64 -180 87v78c0 22 5 27 32 27z" />
</svg>
