<?xml version="1.0" standalone="no"?>
<!DOCTYPE svg PUBLIC "-//W3C//DTD SVG 1.1//EN" "http://www.w3.org/Graphics/SVG/1.1/DTD/svg11.dtd" >
<svg xmlns="http://www.w3.org/2000/svg" xmlns:xlink="http://www.w3.org/1999/xlink" version="1.1" viewBox="-10 0 1010 1000">
   <path fill="currentColor"
d="M943 368h-79c25 58 64 122 101 152c-12 9 -28 26 -37 37c-25 -28 -52 -73 -74 -121v166h-51v-160c-26 50 -58 96 -90 124c-8 -10 -23 -26 -34 -34c44 -33 87 -100 114 -164h-66v-50h76v-55c-23 5 -46 9 -68 12c-3 -11 -9 -29 -16 -40c63 -12 136 -32 178 -50l37 41
c-23 10 -51 17 -80 25v67h89v50zM639 602h-51v-153c-22 44 -47 84 -71 110c-6 -13 -17 -35 -26 -48c31 -31 69 -89 91 -143h-79v-50h85v-57c-24 5 -48 9 -70 12c-2 -12 -10 -29 -16 -40c61 -11 131 -30 171 -47l40 41c-22 9 -48 17 -74 23v68h70v50h-70v15
c20 16 68 57 80 69l-29 37c-10 -14 -31 -37 -51 -58v171zM358 780l5 60c-102 30 -210 59 -288 82l-15 -67c38 -8 87 -20 141 -34v-287h-131v-65h131v-108h-83v-44c-14 15 -28 30 -42 44c-5 -17 -20 -57 -29 -75c67 -59 137 -150 178 -248l50 26c-6 13 -12 27 -19 41
c54 41 109 91 143 130l-29 61c-34 -41 -89 -93 -142 -136c-28 49 -60 96 -93 136h212v65h-89v108h116v65h-116v272c33 -8 67 -17 100 -26zM87 600l44 -14c15 59 30 135 34 184l-47 15c-4 -50 -18 -126 -31 -185zM318 774l-39 -16c13 -49 30 -129 38 -183l50 18
c-16 62 -33 134 -49 181zM489 159v290c0 151 -12 363 -99 504c-10 -12 -36 -31 -50 -39c80 -132 87 -322 87 -465v-352h517v62h-455zM761 755v112h193v61h-490v-61h86v-208h59v208h90v-271h62v101h163v58h-163z" />
</svg>
