<?xml version="1.0" standalone="no"?>
<!DOCTYPE svg PUBLIC "-//W3C//DTD SVG 1.1//EN" "http://www.w3.org/Graphics/SVG/1.1/DTD/svg11.dtd" >
<svg xmlns="http://www.w3.org/2000/svg" xmlns:xlink="http://www.w3.org/1999/xlink" version="1.1" viewBox="-10 0 1010 1000">
   <path fill="currentColor"
d="M358 234h-194c-27 49 -57 92 -91 127c-7 -14 -25 -46 -37 -62c59 -61 112 -156 141 -253l63 18c-11 33 -24 67 -39 99h157v71zM253 827l108 -50c3 19 10 45 14 57c-162 83 -188 97 -204 113c-6 -18 -19 -48 -31 -65c18 -9 46 -29 46 -68v-210h-127v-68h127v-135h-79v-67
h238v67h-92v135h113v68h-113v223zM639 88v775c0 43 -9 64 -37 76c-29 13 -75 14 -147 14c-3 -19 -14 -51 -24 -70c53 2 104 1 119 1s20 -6 20 -21v-265c-57 53 -116 105 -165 147l-36 -58c51 -40 127 -106 201 -172v-360h-182v-67h251zM397 278l52 -14c31 61 63 142 77 194
l-56 18c-13 -54 -44 -135 -73 -198zM925 88v773c0 43 -9 64 -36 77c-28 13 -73 14 -141 14c-3 -20 -15 -52 -24 -72c50 2 97 1 110 1c15 -1 20 -6 20 -21v-274c-54 50 -108 99 -155 140l-36 -58c48 -39 119 -101 191 -166v-347h-180v-67h251zM676 277l53 -12
c31 60 62 141 75 194l-57 15c-12 -54 -42 -135 -71 -197z" />
</svg>
