<?xml version="1.0" standalone="no"?>
<!DOCTYPE svg PUBLIC "-//W3C//DTD SVG 1.1//EN" "http://www.w3.org/Graphics/SVG/1.1/DTD/svg11.dtd" >
<svg xmlns="http://www.w3.org/2000/svg" xmlns:xlink="http://www.w3.org/1999/xlink" version="1.1" viewBox="-10 0 1010 1000">
   <path fill="currentColor"
d="M389 234h-219c-28 47 -60 88 -94 123c-5 -17 -25 -54 -38 -71c60 -59 114 -147 144 -240l67 19c-12 33 -25 66 -40 97h180v72zM269 816l118 -58c2 19 7 48 12 63c-135 72 -182 98 -204 112l-14 12c-6 -18 -20 -54 -33 -72c20 -9 49 -31 49 -70v-199h-134v-68h134v-135
h-87v-67h257v67h-98v135h112v68h-112v212zM791 370h-121v89h40c28 -28 56 -59 81 -89zM824 745v-72h-242v72h242zM582 870h242v-74h-242v74zM819 262h-66v-72h-144v40h61v81h130v47c26 -33 50 -68 72 -103l59 25c-39 63 -85 123 -136 179h161v61h-220c-35 34 -74 67 -112 97
h268v337h-68v-29h-242v32h-64v-264c-28 19 -58 37 -86 52c-8 -13 -30 -42 -43 -55c89 -45 176 -102 255 -170h-224v-61h183v-89h-150v-59h150v-49h-60v-72h-133v-61h133v-86h66v86h144v-86h66v86h137v61h-137v72z" />
</svg>
