<?xml version="1.0" standalone="no"?>
<!DOCTYPE svg PUBLIC "-//W3C//DTD SVG 1.1//EN" "http://www.w3.org/Graphics/SVG/1.1/DTD/svg11.dtd" >
<svg xmlns="http://www.w3.org/2000/svg" xmlns:xlink="http://www.w3.org/1999/xlink" version="1.1" viewBox="-10 0 1010 1000">
   <path fill="currentColor"
d="M282 674l59 -21c39 70 82 165 100 223l-63 26c-6 -20 -14 -44 -24 -70c-221 46 -254 55 -272 67c-4 -15 -16 -49 -24 -69c15 -4 29 -21 44 -49c14 -22 55 -101 83 -182h-139v-64h78v-445h296v63h-227v87h207v60h-207v86h209v59h-209v90h242v64h-172
c-27 71 -63 146 -100 207l167 -32c-15 -34 -31 -69 -48 -100zM536 835h321v-216h-9h-63c-47 0 -60 -12 -60 -67v-394h-67v213c0 127 -11 247 -85 339c-8 -10 -25 -24 -37 -31v156zM610 158h-74v516c65 -82 74 -193 74 -304v-212zM857 568v-410h-85v393c0 18 3 19 18 19h53
c9 0 12 0 14 -2zM475 92h445v857h-63v-46h-321v55h-61v-866z" />
</svg>
