<?xml version="1.0" standalone="no"?>
<!DOCTYPE svg PUBLIC "-//W3C//DTD SVG 1.1//EN" "http://www.w3.org/Graphics/SVG/1.1/DTD/svg11.dtd" >
<svg xmlns="http://www.w3.org/2000/svg" xmlns:xlink="http://www.w3.org/1999/xlink" version="1.1" viewBox="-10 0 1010 1000">
   <path fill="currentColor"
d="M387 140h-226v78h226v-78zM161 346h226v-77h-226v77zM457 400h-296v558h-71v-872h367v314zM321 560v248h82v-248h-82zM540 808v-248h-82v248h82zM678 560h-84v248h84v-248zM790 808v57h-583v-57h60v-300h169c14 -33 28 -73 35 -101l75 11c-14 30 -27 62 -41 90h229v300
h56zM615 343h229v-74h-229v74zM844 140h-229v78h229v-78zM915 86v773c0 40 -6 62 -31 75c-24 13 -63 15 -119 14c-3 -20 -12 -52 -22 -73c39 1 75 1 86 1c12 0 15 -4 15 -17v-462h-300v-311h371z" />
</svg>
