<?xml version="1.0" standalone="no"?>
<!DOCTYPE svg PUBLIC "-//W3C//DTD SVG 1.1//EN" "http://www.w3.org/Graphics/SVG/1.1/DTD/svg11.dtd" >
<svg xmlns="http://www.w3.org/2000/svg" xmlns:xlink="http://www.w3.org/1999/xlink" version="1.1" viewBox="-10 0 1010 1000">
   <path fill="currentColor"
d="M505 522l35 -37c37 11 78 28 119 46c24 -20 45 -42 61 -66h-203v-50h236l11 -2l34 14c-20 51 -52 92 -90 126c31 16 60 32 81 46l-36 42c-23 -16 -55 -34 -91 -53c-42 28 -89 48 -138 63c-6 -12 -21 -30 -32 -40c40 -11 81 -26 117 -47c-34 -16 -71 -30 -104 -42z
M226 415h228l11 -2l34 15c-19 49 -49 90 -85 123c27 14 51 28 69 40l-36 43c-20 -14 -47 -31 -78 -47c-40 28 -86 49 -132 64c-7 -12 -22 -30 -33 -40c39 -11 79 -27 114 -49c-34 -16 -69 -30 -101 -42l34 -37c36 11 76 28 114 46c23 -20 43 -40 58 -64h-197v-50zM382 134
h-224v63h224v-63zM158 312h224v-67h-224v67zM453 364h-295v593h-70v-876h365v283zM464 655l34 15c-19 51 -48 94 -84 129c28 15 53 30 71 43l-36 42c-20 -14 -47 -32 -79 -49c-42 32 -90 55 -139 71c-8 -12 -22 -30 -34 -40c43 -13 86 -32 123 -56c-35 -18 -71 -34 -104 -47
l35 -37c36 13 77 30 115 49c23 -20 42 -43 57 -68h-198v-49h229zM612 312h231v-65h-231v65zM843 135h-231v64h231v-64zM915 83v789c0 40 -9 60 -35 73c-24 11 -66 13 -126 13c-3 -20 -13 -50 -23 -69l22 1c-24 -18 -56 -36 -92 -56c-45 30 -94 51 -144 67
c-7 -12 -21 -31 -31 -40c42 -12 85 -30 124 -52c-36 -17 -73 -33 -107 -45l36 -37c37 12 79 30 119 49c24 -21 46 -44 62 -69h-204v-50h236l11 -2l34 15c-21 52 -52 94 -91 129c33 17 64 34 86 50l-36 41c32 1 61 0 70 0c13 -1 17 -5 17 -18v-508h-302v-281h374z" />
</svg>
