<?xml version="1.0" standalone="no"?>
<!DOCTYPE svg PUBLIC "-//W3C//DTD SVG 1.1//EN" "http://www.w3.org/Graphics/SVG/1.1/DTD/svg11.dtd" >
<svg xmlns="http://www.w3.org/2000/svg" xmlns:xlink="http://www.w3.org/1999/xlink" version="1.1" viewBox="-10 0 1010 1000">
   <path fill="currentColor"
d="M387 136h-223v52h223v-52zM164 291h223v-56h-223v56zM446 343h-282v611h-68v-870h350v259zM284 703h54v94h279v48h-333v-142zM343 493v42h308v-42h-308zM343 411v40h308v-40h-308zM396 612h353s0 18 -1 25c-7 166 -14 227 -33 249c-12 14 -27 20 -49 22
c-19 2 -57 1 -94 -1c-1 -16 -7 -37 -16 -51c38 3 71 3 83 3c13 1 20 -1 26 -8c11 -14 18 -62 23 -190h-199l40 7c-3 6 -6 12 -9 17c44 17 95 41 123 60l-26 39c-28 -21 -80 -48 -125 -66c-28 27 -65 50 -101 66c-7 -7 -23 -24 -34 -31c55 -21 103 -52 125 -92h-137
c-29 24 -63 44 -103 64c-7 -13 -24 -33 -35 -41c66 -29 115 -66 146 -105h-68v-212h426v212h-291c-7 11 -15 22 -24 33zM599 290h236v-55h-236v55zM835 138h-236v50h236v-50zM903 87v781c0 40 -7 62 -32 74c-25 13 -64 14 -125 14c-2 -19 -11 -52 -20 -71c41 1 81 1 93 0
s16 -4 16 -18v-525h-295v-255h363z" />
</svg>
