<?xml version="1.0" standalone="no"?>
<!DOCTYPE svg PUBLIC "-//W3C//DTD SVG 1.1//EN" "http://www.w3.org/Graphics/SVG/1.1/DTD/svg11.dtd" >
<svg xmlns="http://www.w3.org/2000/svg" xmlns:xlink="http://www.w3.org/1999/xlink" version="1.1" viewBox="-10 0 1010 1000">
   <path fill="currentColor"
d="M387 136h-223v52h223v-52zM164 291h223v-56h-223v56zM446 343h-282v611h-68v-870h350v259zM610 761v-44h-223v44h223zM610 846v-44h-223v44h223zM576 630h-149c-11 16 -21 31 -33 45h221c-14 -15 -28 -30 -39 -45zM777 630h-134c45 45 106 84 163 106
c-12 11 -29 34 -37 49c-32 -14 -67 -36 -98 -60v164h-343v-150c-29 23 -61 43 -96 60c-7 -14 -26 -40 -37 -53c65 -27 118 -65 161 -116h-132v-49h168c8 -13 15 -26 22 -40h-136v-48h156c5 -13 9 -26 13 -40h-205v-49h218c4 -19 8 -38 11 -59l55 8c-3 18 -6 34 -10 51h242
v49h-254c-3 14 -7 27 -12 40h232v48h-250c-5 14 -11 27 -18 40h321v49zM599 290h236v-55h-236v55zM835 138h-236v50h236v-50zM903 87v779c0 42 -8 64 -34 76c-26 13 -69 14 -133 14c-4 -19 -13 -52 -22 -71c46 1 90 1 103 0s18 -5 18 -19v-524h-295v-255h363z" />
</svg>
