<?xml version="1.0" standalone="no"?>
<!DOCTYPE svg PUBLIC "-//W3C//DTD SVG 1.1//EN" "http://www.w3.org/Graphics/SVG/1.1/DTD/svg11.dtd" >
<svg xmlns="http://www.w3.org/2000/svg" xmlns:xlink="http://www.w3.org/1999/xlink" version="1.1" viewBox="-10 0 1010 1000">
   <path fill="currentColor"
d="M383 129h-218v53h218v-53zM165 279h218v-53h-218v53zM453 330h-288v626h-69v-877h357v251zM339 585l45 7c-23 150 -84 256 -174 326c-7 -9 -25 -28 -36 -37c63 -43 109 -105 138 -185c-96 15 -115 20 -125 26v1c-2 -11 -9 -38 -14 -51c14 -4 28 -19 47 -43
c10 -11 32 -40 56 -77c-67 8 -82 13 -90 18v-4c-1 1 -1 3 -1 4c-2 -13 -9 -40 -13 -56c10 -2 19 -13 29 -28c12 -15 51 -76 73 -136l41 22c-25 51 -53 101 -81 139l73 -7c13 -25 27 -49 39 -75l41 24c-42 76 -90 148 -138 205l77 -9c5 -21 10 -41 13 -64zM562 451h-116v66
h116v-66zM446 632h116v-71h-116v71zM504 727l39 -20c38 49 76 117 92 163l-41 22c-6 -16 -13 -35 -23 -54c-156 52 -176 59 -189 69v-1c-3 -15 -12 -41 -19 -52c13 -8 35 -27 35 -70v-333h-1v-47h77c-7 -18 -16 -37 -24 -54l46 -12c11 20 24 45 31 66h80v275h-161v145
l101 -30c-14 -24 -28 -47 -43 -67zM795 385l34 23c-20 53 -42 117 -65 171c47 54 62 101 62 143c0 39 -9 70 -28 84c-10 8 -22 13 -35 15c-13 1 -31 2 -47 1c-1 -17 -5 -40 -13 -56c16 3 30 3 42 2c8 -1 14 -2 19 -6c10 -7 14 -24 14 -45c0 -35 -14 -78 -63 -130
c19 -48 37 -101 50 -145h-81v480h-49v-534h152zM616 282h227v-56h-227v56zM843 129h-227v52h227v-52zM912 79v801c0 36 -7 52 -29 63c-20 11 -56 11 -101 11c-3 -16 -11 -43 -20 -60c30 2 59 2 68 2c11 -1 13 -5 13 -15v-549h-298v-253h367z" />
</svg>
