<?xml version="1.0" standalone="no"?>
<!DOCTYPE svg PUBLIC "-//W3C//DTD SVG 1.1//EN" "http://www.w3.org/Graphics/SVG/1.1/DTD/svg11.dtd" >
<svg xmlns="http://www.w3.org/2000/svg" xmlns:xlink="http://www.w3.org/1999/xlink" version="1.1" viewBox="-10 0 1010 1000">
   <path fill="currentColor"
d="M336 81l48 29c-30 82 -68 179 -103 259c75 82 93 154 93 216c0 53 -12 96 -40 116c-14 11 -33 17 -52 19c-21 3 -47 3 -70 2c0 -19 -8 -47 -19 -67c24 3 44 4 60 2c14 -1 24 -3 33 -9c16 -11 22 -39 22 -70c0 -54 -20 -123 -94 -202c30 -70 60 -158 82 -224h-144v803h-66
v-871h239zM952 292h-358c-29 276 -82 504 -198 665c-12 -12 -48 -37 -65 -47c112 -144 163 -361 190 -618h-127v-73h134c4 -54 8 -110 12 -168l74 3c-4 57 -8 112 -13 165h351v73zM958 934l-65 23c-5 -26 -13 -57 -22 -90c-249 31 -284 38 -303 49c-4 -15 -16 -51 -25 -71
c18 -4 34 -39 54 -86c20 -46 83 -227 113 -389l76 18c-35 154 -91 319 -149 444l214 -26c-23 -63 -50 -130 -78 -187l58 -22c56 106 108 245 127 337z" />
</svg>
