<?xml version="1.0" standalone="no"?>
<!DOCTYPE svg PUBLIC "-//W3C//DTD SVG 1.1//EN" "http://www.w3.org/Graphics/SVG/1.1/DTD/svg11.dtd" >
<svg xmlns="http://www.w3.org/2000/svg" xmlns:xlink="http://www.w3.org/1999/xlink" version="1.1" viewBox="-10 0 1010 1000">
   <path fill="currentColor"
d="M317 80l48 30c-30 81 -66 179 -100 258c73 82 90 155 90 216c0 54 -12 97 -39 117c-14 10 -32 16 -52 19c-20 2 -45 2 -67 1c-1 -19 -7 -47 -19 -66c23 2 42 3 58 1c12 0 23 -3 31 -9c15 -11 21 -38 21 -69c0 -54 -18 -123 -90 -202c29 -72 59 -158 79 -225h-130v803h-66
v-870h224zM686 464h-153v188h153v-188zM752 715h-219v60h-67v-374h286v314zM559 205h373s-1 29 -1 38c-14 473 -23 625 -60 672c-21 27 -42 36 -75 40c-30 3 -78 2 -126 -1c-2 -20 -9 -51 -23 -71c52 4 98 4 120 4c17 0 27 -3 37 -17c28 -32 42 -184 53 -597h-329
c-32 64 -69 121 -108 167c-14 -11 -46 -35 -65 -46c81 -84 142 -216 178 -351l76 16c-14 51 -31 99 -50 146z" />
</svg>
