<?xml version="1.0" standalone="no"?>
<!DOCTYPE svg PUBLIC "-//W3C//DTD SVG 1.1//EN" "http://www.w3.org/Graphics/SVG/1.1/DTD/svg11.dtd" >
<svg xmlns="http://www.w3.org/2000/svg" xmlns:xlink="http://www.w3.org/1999/xlink" version="1.1" viewBox="-10 0 1010 1000">
   <path fill="currentColor"
d="M313 81l46 27c-29 81 -66 180 -98 260c71 82 89 153 89 216c0 52 -12 96 -39 114c-13 11 -31 17 -50 19c-20 3 -45 3 -67 1c0 -18 -6 -44 -18 -63c24 3 42 3 58 1c12 0 23 -3 31 -9c15 -11 20 -40 20 -70c0 -55 -18 -122 -89 -203c28 -70 57 -156 78 -223h-129v804h-65
v-871h222zM471 574h147c4 -28 7 -56 8 -84h-139c-5 28 -10 58 -16 84zM700 348v80h152v-80h-152zM884 636h-190c39 131 124 222 267 257c-17 15 -37 43 -46 63c-131 -41 -213 -122 -262 -243c-44 97 -126 185 -281 247c-9 -16 -31 -45 -48 -60c174 -64 248 -160 280 -264
h-217c15 -56 31 -140 40 -208h200v-80h-224v-62h224v-77h-244v-64h244v-101h73v101h251v64h-251v77h217v204h-218c-1 28 -4 56 -8 84h265s-1 17 -1 26c-8 103 -15 147 -33 165c-11 14 -25 19 -45 20c-15 2 -44 2 -72 0c-1 -16 -7 -39 -14 -54c24 3 45 3 54 3
c10 0 15 -1 21 -7c7 -10 12 -33 18 -91z" />
</svg>
