<?xml version="1.0" standalone="no"?>
<!DOCTYPE svg PUBLIC "-//W3C//DTD SVG 1.1//EN" "http://www.w3.org/Graphics/SVG/1.1/DTD/svg11.dtd" >
<svg xmlns="http://www.w3.org/2000/svg" xmlns:xlink="http://www.w3.org/1999/xlink" version="1.1" viewBox="-10 0 1010 1000">
   <path fill="currentColor"
d="M327 81l48 29c-29 81 -66 179 -100 258c73 83 90 155 90 217c0 53 -11 97 -39 116c-14 11 -32 17 -52 19c-19 3 -45 3 -67 2c0 -19 -7 -47 -19 -66c23 2 43 3 59 1c12 -1 23 -3 30 -9c16 -11 21 -39 21 -70c0 -54 -18 -122 -89 -202c28 -71 58 -158 79 -224h-132v803h-66
v-871h226zM485 478h134v-134h-134v134zM485 152v131h134v-131h-134zM828 283v-131h-139v131h139zM828 478v-134h-139v134h139zM689 865h252v67h-565v-67h243v-145h-201v-66h201v-112h-202v-455h482v455h-210v112h217v66h-217v145z" />
</svg>
