<?xml version="1.0" standalone="no"?>
<!DOCTYPE svg PUBLIC "-//W3C//DTD SVG 1.1//EN" "http://www.w3.org/Graphics/SVG/1.1/DTD/svg11.dtd" >
<svg xmlns="http://www.w3.org/2000/svg" xmlns:xlink="http://www.w3.org/1999/xlink" version="1.1" viewBox="-10 0 1010 1000">
   <path fill="currentColor"
d="M337 81l51 29c-31 81 -68 179 -103 259c74 82 92 155 92 217c0 53 -12 96 -40 115c-15 11 -33 17 -54 19c-20 3 -46 3 -68 2c-1 -19 -8 -47 -20 -66c23 2 42 3 59 1c12 -1 24 -3 31 -9c16 -10 22 -39 22 -69c0 -54 -19 -123 -91 -202c29 -72 59 -158 80 -225h-134v803
h-69v-871h232zM526 464v101h293v-101h-293zM526 306v100h293v-100h-293zM526 150v98h293v-98h-293zM806 886h66c22 0 26 -13 29 -123c15 12 43 23 64 28c-7 129 -25 161 -85 161h-83c-69 0 -85 -20 -85 -91v-235h-86c-15 164 -61 273 -237 334c-7 -17 -27 -42 -42 -55
c161 -49 198 -141 211 -279h-102v-539h436v539h-109v234c0 23 3 26 23 26z" />
</svg>
