<?xml version="1.0" standalone="no"?>
<!DOCTYPE svg PUBLIC "-//W3C//DTD SVG 1.1//EN" "http://www.w3.org/Graphics/SVG/1.1/DTD/svg11.dtd" >
<svg xmlns="http://www.w3.org/2000/svg" xmlns:xlink="http://www.w3.org/1999/xlink" version="1.1" viewBox="-10 0 1010 1000">
   <path fill="currentColor"
d="M870 57l44 57c-133 40 -343 63 -516 73c-3 -18 -11 -43 -19 -59c172 -12 379 -36 491 -71zM800 411l-54 -25c31 -54 70 -143 91 -206l65 28c-33 70 -70 150 -102 203zM708 356l-64 20c-8 -41 -30 -110 -51 -161l60 -15c22 50 46 115 55 156zM531 382l-64 23
c-8 -44 -36 -114 -63 -167l59 -19c28 51 56 120 68 163zM308 81l45 29c-28 81 -64 179 -96 259c70 82 87 155 87 217c0 52 -11 96 -38 115c-13 11 -31 17 -50 19c-19 3 -43 3 -64 2c-1 -19 -7 -47 -19 -66c22 2 42 3 57 1c12 -1 22 -3 31 -9c14 -11 20 -39 20 -69
c0 -54 -18 -123 -88 -202c29 -72 57 -158 77 -225h-130v803h-63v-871h220zM773 572h-177c-21 42 -42 81 -61 115c46 18 94 40 141 63c44 -47 76 -106 97 -178zM956 572h-114c-23 85 -56 155 -105 211c72 39 138 80 185 116l-48 56c-47 -38 -114 -82 -189 -123
c-75 62 -177 102 -314 127c-5 -19 -18 -45 -30 -60c121 -19 212 -52 280 -101c-59 -30 -121 -57 -180 -79h-1c26 -40 55 -92 82 -147h-143v-66h175c18 -42 36 -84 49 -123l67 13c-11 35 -27 73 -44 110h330v66z" />
</svg>
