<?xml version="1.0" standalone="no"?>
<!DOCTYPE svg PUBLIC "-//W3C//DTD SVG 1.1//EN" "http://www.w3.org/Graphics/SVG/1.1/DTD/svg11.dtd" >
<svg xmlns="http://www.w3.org/2000/svg" xmlns:xlink="http://www.w3.org/1999/xlink" version="1.1" viewBox="-10 0 1010 1000">
   <path fill="currentColor"
d="M304 80l48 29c-29 81 -64 180 -97 258c70 84 87 155 87 217c0 54 -11 97 -38 117c-14 10 -32 16 -51 19c-20 2 -44 2 -66 1c-1 -19 -7 -47 -18 -66c22 2 42 2 57 1c11 0 22 -3 29 -9c16 -11 21 -38 21 -70c0 -54 -18 -122 -86 -202c28 -70 56 -157 76 -224h-119v803h-66
v-870h212zM692 708v71h247v61h-247v117h-74v-117h-250v-61h250v-71h-195v-57h195v-66h-202v-57h202v-64h74v64h203v57h-203v66h199v57h-199zM565 187l-11 15c25 38 60 77 106 113c46 -37 85 -80 113 -128h-208zM829 124l49 20c-36 84 -92 154 -161 211c67 41 148 74 245 95
c-16 14 -38 42 -49 61c-100 -25 -186 -65 -254 -112c-84 58 -183 99 -284 125c-7 -17 -26 -43 -41 -58c94 -21 189 -58 269 -110c-39 -33 -70 -69 -95 -105c-34 35 -71 65 -108 89c-13 -11 -43 -34 -62 -44c98 -58 184 -150 232 -252l74 17c-10 23 -23 44 -36 66h206z" />
</svg>
