<?xml version="1.0" standalone="no"?>
<!DOCTYPE svg PUBLIC "-//W3C//DTD SVG 1.1//EN" "http://www.w3.org/Graphics/SVG/1.1/DTD/svg11.dtd" >
<svg xmlns="http://www.w3.org/2000/svg" xmlns:xlink="http://www.w3.org/1999/xlink" version="1.1" viewBox="-10 0 1010 1000">
   <path fill="currentColor"
d="M328 80l48 30c-30 81 -66 179 -100 258c73 82 90 155 90 216c0 54 -12 97 -39 117c-14 10 -32 16 -53 19c-19 2 -44 2 -66 1c-1 -19 -7 -47 -19 -66c23 2 42 3 58 1c12 0 23 -3 31 -9c15 -11 21 -38 21 -69c0 -54 -18 -123 -89 -203c28 -71 58 -157 78 -224h-138v803h-66
v-870h232zM560 676l-4 4c28 40 66 75 112 106c49 -31 93 -68 126 -110h-234zM521 437v68h303v-68h-303zM521 323v65h303v-65h-303zM851 615l44 24c-38 74 -96 135 -167 183c69 34 149 59 237 73c-16 14 -35 43 -45 62c-96 -18 -183 -51 -256 -97c-87 47 -186 79 -286 98
c-7 -17 -23 -45 -35 -59c90 -14 183 -42 263 -80c-36 -28 -67 -61 -94 -97c-25 23 -52 43 -79 60c-10 -13 -36 -37 -50 -50c73 -41 144 -104 188 -176h-116v-244c-8 10 -16 19 -23 27c-13 -11 -44 -33 -62 -42c63 -63 119 -159 154 -255l70 18c-9 28 -21 56 -35 83h383v64
h-416c-13 23 -26 44 -39 64h404v285h-244c-12 22 -24 42 -39 62h229z" />
</svg>
