<?xml version="1.0" standalone="no"?>
<!DOCTYPE svg PUBLIC "-//W3C//DTD SVG 1.1//EN" "http://www.w3.org/Graphics/SVG/1.1/DTD/svg11.dtd" >
<svg xmlns="http://www.w3.org/2000/svg" xmlns:xlink="http://www.w3.org/1999/xlink" version="1.1" viewBox="-10 0 1010 1000">
   <path fill="currentColor"
d="M312 80l46 30c-29 81 -65 178 -97 257c70 83 88 155 88 217c0 54 -12 97 -39 117c-13 10 -31 16 -50 19c-20 2 -45 2 -66 1c-1 -19 -7 -47 -19 -66c24 2 42 3 58 1c12 0 23 -3 30 -9c16 -11 21 -38 21 -70c0 -54 -18 -123 -88 -202c28 -72 58 -158 78 -224h-130v803h-63
v-870h220zM615 418l66 -10c14 35 28 79 33 110h240v61h-313c-3 33 -7 64 -13 93h265s-1 21 -3 31c-12 146 -24 206 -49 229c-15 17 -33 22 -61 24c-23 1 -69 1 -116 -1c-2 -20 -9 -45 -20 -63c46 5 90 6 107 6c15 0 25 -1 33 -9c14 -14 24 -56 33 -156h-205
c-34 103 -99 178 -232 226c-7 -17 -26 -42 -41 -55c174 -58 215 -167 230 -325h-180v-61h254c-6 -30 -17 -68 -28 -100zM811 324h143v157h-70v-98h-428v98h-68v-157h349c20 -36 43 -85 56 -123h-249c20 34 39 76 45 104l-69 16c-6 -29 -23 -75 -44 -109l52 -11h-127v-61h239
c-6 -29 -14 -64 -24 -93l68 -9c12 31 24 71 29 102h223v61h-89l25 4c-19 42 -41 86 -61 119z" />
</svg>
