<?xml version="1.0" standalone="no"?>
<!DOCTYPE svg PUBLIC "-//W3C//DTD SVG 1.1//EN" "http://www.w3.org/Graphics/SVG/1.1/DTD/svg11.dtd" >
<svg xmlns="http://www.w3.org/2000/svg" xmlns:xlink="http://www.w3.org/1999/xlink" version="1.1" viewBox="-10 0 1010 1000">
   <path fill="currentColor"
d="M290 80l46 29c-26 81 -58 180 -89 259c65 83 79 156 79 217c1 53 -10 97 -35 116c-13 10 -30 16 -48 19c-17 2 -40 2 -61 1c-1 -19 -7 -47 -17 -66c20 2 37 2 52 1c11 0 20 -2 28 -8c13 -11 19 -39 18 -70c0 -54 -14 -123 -78 -202c26 -71 51 -158 69 -225h-110v803h-63
v-870h199zM423 646v121c42 -7 87 -14 133 -22v-99h-133zM556 327h-133v100h133v-100zM423 484v106h133v-106h-133zM671 787l-54 10v161h-61v-150c-87 14 -171 29 -240 41l-13 -66c18 -2 39 -5 59 -8v-448h-36v-64h173c17 -32 35 -69 49 -100h-184v-63h218l9 -4l45 15
c-20 48 -44 103 -67 152h96v64h-48v408l51 -8zM853 312h-101c-3 12 -6 23 -9 33c10 93 26 195 57 290c27 -93 43 -201 53 -323zM953 312h-37c-14 163 -38 300 -83 414c33 71 75 134 131 180c-13 11 -35 36 -44 53c-49 -44 -88 -101 -118 -164c-32 63 -72 117 -123 163
c-9 -12 -35 -35 -49 -46c62 -51 107 -116 139 -193c-30 -84 -49 -174 -62 -258c-10 29 -22 57 -35 82c-10 -12 -31 -33 -44 -43c61 -123 90 -316 103 -455l67 11c-8 59 -19 125 -33 192h188v64z" />
</svg>
