<?xml version="1.0" standalone="no"?>
<!DOCTYPE svg PUBLIC "-//W3C//DTD SVG 1.1//EN" "http://www.w3.org/Graphics/SVG/1.1/DTD/svg11.dtd" >
<svg xmlns="http://www.w3.org/2000/svg" xmlns:xlink="http://www.w3.org/1999/xlink" version="1.1" viewBox="-10 0 1010 1000">
   <path fill="currentColor"
d="M301 82l44 27c-31 80 -69 178 -103 259c74 84 93 156 93 218c0 52 -12 95 -39 114c-14 11 -32 17 -52 19s-46 2 -69 1c-1 -17 -7 -43 -17 -60c23 2 45 2 61 1c14 0 25 -3 34 -9c16 -11 21 -40 21 -70c0 -56 -20 -126 -96 -206c31 -73 62 -159 84 -227h-111v809h-63v-874
h202zM420 187v248c0 161 -18 381 -133 525c-10 -14 -33 -36 -46 -44c110 -137 122 -332 122 -482v-306h273c-8 -25 -18 -51 -27 -73l55 -15c13 27 26 61 36 88h256v59h-536zM524 330l48 11c-5 16 -11 33 -18 48c21 16 46 38 60 51l-33 37c-12 -14 -32 -33 -50 -48
c-18 26 -39 49 -64 66c-8 -9 -26 -26 -39 -35c47 -31 80 -75 96 -130zM772 705h-142c-16 25 -32 47 -46 69c34 9 70 21 105 34c38 -28 66 -61 83 -103zM637 557l67 14c-12 25 -25 51 -40 77h276v57h-93c-20 52 -53 93 -93 126c69 27 133 55 179 79l-48 46
c-47 -27 -115 -57 -189 -85c-67 38 -151 62 -246 80c-5 -14 -23 -38 -36 -52c80 -11 152 -28 211 -55c-47 -16 -95 -31 -140 -43c21 -26 46 -61 69 -96h-118v-57h153c19 -31 36 -63 48 -91zM958 451l-31 40c-17 -18 -48 -43 -76 -62c-13 21 -28 41 -45 55
c-8 -5 -22 -16 -34 -24c46 49 108 83 185 100c-12 13 -25 36 -32 53c-107 -29 -185 -90 -234 -180c-30 68 -94 135 -225 184c-7 -16 -22 -40 -33 -52c186 -67 221 -164 227 -247h-204v-54h205v-50h56v50h218v54h-219c0 15 -2 30 -5 45c14 33 31 64 54 90
c37 -32 63 -74 75 -123l49 11c-3 15 -9 31 -15 46c30 18 65 46 84 64z" />
</svg>
