<?xml version="1.0" standalone="no"?>
<!DOCTYPE svg PUBLIC "-//W3C//DTD SVG 1.1//EN" "http://www.w3.org/Graphics/SVG/1.1/DTD/svg11.dtd" >
<svg xmlns="http://www.w3.org/2000/svg" xmlns:xlink="http://www.w3.org/1999/xlink" version="1.1" viewBox="-10 0 1010 1000">
   <path fill="currentColor"
d="M435 186v86h-67v-140h248c-7 -25 -18 -54 -27 -77l70 -13c12 28 25 63 34 90h235v140h-69v-86h-424zM496 306l56 17c-39 43 -103 89 -158 116c-9 -11 -30 -33 -44 -43c54 -24 112 -56 146 -90zM299 80l47 28c-29 82 -66 181 -99 260c72 82 89 155 89 218
c0 52 -11 95 -38 114c-14 11 -31 16 -51 19c-19 2 -43 2 -65 1c-1 -18 -7 -45 -17 -63c22 1 41 2 56 1c12 -1 23 -3 30 -9c15 -12 21 -39 21 -70c0 -55 -18 -123 -89 -203c29 -73 58 -160 79 -228h-116v807h-65v-871h207zM580 807l55 46c-77 39 -180 78 -255 106
c-7 -15 -20 -38 -31 -54c71 -24 176 -65 231 -98zM815 565v-49h-314v49h314zM815 661v-50h-314v50h314zM815 758v-51h-314v51h314zM883 468v338h-448v-288c-22 5 -43 10 -64 14c-7 -15 -25 -43 -37 -57c94 -14 195 -36 284 -65v-120h-144v-51h342v51h-132v95
c55 -23 102 -50 136 -80l60 24c-64 59 -158 105 -262 139h265zM708 854l28 -48c79 31 167 69 222 96l-30 53c-55 -28 -140 -69 -220 -101z" />
</svg>
