<?xml version="1.0" standalone="no"?>
<!DOCTYPE svg PUBLIC "-//W3C//DTD SVG 1.1//EN" "http://www.w3.org/Graphics/SVG/1.1/DTD/svg11.dtd" >
<svg xmlns="http://www.w3.org/2000/svg" xmlns:xlink="http://www.w3.org/1999/xlink" version="1.1" viewBox="-10 0 1010 1000">
   <path fill="currentColor"
d="M615 454l26 -23c25 21 49 50 61 71l-31 25c-10 -22 -35 -53 -56 -73zM725 349l25 -25c27 19 56 43 70 62l-27 29c-14 -20 -42 -48 -68 -66zM679 266l-29 26c-13 -20 -37 -48 -59 -68l29 -21c22 18 48 45 59 63zM798 469l-34 37c-27 -31 -67 -70 -111 -111
c-43 41 -89 78 -133 108c-8 -9 -26 -26 -38 -33c47 -28 94 -64 138 -105c-42 -36 -84 -71 -122 -101l31 -30c40 30 83 64 123 98c37 -38 70 -79 96 -122l45 14c-30 48 -67 95 -107 138c45 40 85 78 112 107zM565 371l-26 31c-14 -18 -44 -43 -69 -60l22 -27
c28 17 57 40 73 56zM832 536v-346h-374v346h374zM901 129v469h-508v-469h171c12 -29 25 -65 32 -90l75 13c-12 26 -26 53 -39 77h269zM571 632l51 -24c53 37 110 93 134 134l-55 28c-24 -40 -79 -98 -130 -138zM299 83l46 29c-26 82 -59 183 -90 264c66 82 81 153 81 214
c0 52 -11 96 -36 114c-13 10 -29 16 -48 18c-17 3 -40 3 -60 2c0 -19 -6 -47 -17 -66c21 2 37 2 51 1c12 0 22 -3 28 -9c14 -11 20 -38 20 -68c-1 -52 -17 -120 -81 -198c26 -74 53 -165 72 -234h-121v804h-63v-868h208zM373 896l-59 -29c38 -49 65 -132 80 -199l58 20
c-16 69 -41 155 -79 208zM597 874h144c34 0 40 -11 44 -97c15 11 42 20 60 24c-8 106 -28 132 -97 132h-158c-86 0 -108 -18 -108 -86v-181h66v181c0 23 7 27 49 27zM788 671l51 -24c52 62 100 145 119 202l-56 26c-18 -56 -65 -141 -114 -204z" />
</svg>
