<?xml version="1.0" standalone="no"?>
<!DOCTYPE svg PUBLIC "-//W3C//DTD SVG 1.1//EN" "http://www.w3.org/Graphics/SVG/1.1/DTD/svg11.dtd" >
<svg xmlns="http://www.w3.org/2000/svg" xmlns:xlink="http://www.w3.org/1999/xlink" version="1.1" viewBox="-10 0 1010 1000">
   <path fill="currentColor"
d="M505 188h-89c-12 36 -28 73 -46 107h96c14 -30 28 -71 39 -107zM545 459v-106h-59v106h59zM545 624v-108h-59v108h59zM382 459h62v-106h-62v106zM444 516h-62v108h62v-108zM334 357l-8 12c-10 -13 -29 -29 -43 -36c62 -87 100 -202 120 -289l55 8c-7 26 -14 54 -23 82h94
l11 -4l36 26c-15 46 -37 96 -57 139h76v386h-261v-324zM271 82l45 27c-23 84 -52 191 -80 274c57 83 70 156 70 220c1 52 -10 96 -32 114c-12 10 -28 16 -45 18c-15 2 -34 2 -53 1c0 -18 -5 -44 -14 -63c16 2 31 2 43 2c9 -1 17 -4 24 -10c12 -10 16 -39 16 -70
c0 -55 -12 -125 -68 -206c23 -73 45 -166 61 -236h-92v803h-65v-871h180zM313 938l-44 -22c27 -49 47 -133 57 -196l44 14c-11 66 -29 152 -57 204zM394 734l42 -3c7 56 7 128 2 175l-44 3c6 -46 6 -118 0 -175zM463 731l41 -8c16 50 27 115 29 156l-43 9
c0 -42 -11 -106 -27 -157zM665 657l54 15c-16 73 -39 162 -68 223c-12 -10 -31 -22 -44 -30l9 -21l-39 13c-5 -37 -22 -94 -40 -137l38 -12c20 42 36 96 43 133c22 -55 37 -127 47 -184zM897 568l-88 11v283c0 42 -6 62 -26 74c-19 13 -51 13 -106 13
c-3 -22 -10 -51 -17 -71c37 1 73 1 82 1c10 -1 14 -4 14 -17v-276c-92 13 -111 18 -125 24c-3 -13 -11 -45 -19 -60c19 -4 40 -26 66 -57c14 -17 44 -55 78 -104c-91 10 -110 15 -123 21c-3 -13 -11 -43 -17 -59c13 -2 26 -16 40 -38c13 -18 57 -84 86 -153
c-40 6 -82 11 -120 15c-3 -16 -11 -41 -18 -57c103 -11 228 -32 292 -60l45 53c-41 16 -94 30 -149 41l13 6c-30 62 -67 125 -103 176l95 -8c22 -33 42 -69 61 -104l52 28c-59 101 -127 200 -195 278l159 -17c-14 -29 -29 -58 -44 -84l44 -18c39 61 76 145 88 200l-46 21
c-4 -18 -11 -39 -19 -62zM836 668l48 -15c28 64 53 151 61 203l-52 19c-7 -53 -31 -141 -57 -207z" />
</svg>
