<?xml version="1.0" standalone="no"?>
<!DOCTYPE svg PUBLIC "-//W3C//DTD SVG 1.1//EN" "http://www.w3.org/Graphics/SVG/1.1/DTD/svg11.dtd" >
<svg xmlns="http://www.w3.org/2000/svg" xmlns:xlink="http://www.w3.org/1999/xlink" version="1.1" viewBox="-10 0 1010 1000">
   <path fill="currentColor"
d="M805 187l-62 29c-12 -38 -41 -98 -65 -142l60 -24c25 43 54 99 67 137zM354 791v-226h-177v226h177zM304 310v186h120v364h-247v70h-70v-434h125v-186h-170v-70h170v-182h72v182h144v70h-144zM567 680v136h142v-136h-142zM709 417v-126h-142v126h142zM709 613v-128h-142
v128h142zM944 816v69h-377v73h-67v-580c-15 23 -30 44 -47 64c-11 -16 -31 -43 -44 -56c73 -89 138 -228 170 -337l69 19c-16 49 -38 103 -62 155h349v68h-159v126h136v68h-136v128h138v67h-138v136h168z" />
</svg>
