<?xml version="1.0" standalone="no"?>
<!DOCTYPE svg PUBLIC "-//W3C//DTD SVG 1.1//EN" "http://www.w3.org/Graphics/SVG/1.1/DTD/svg11.dtd" >
<svg xmlns="http://www.w3.org/2000/svg" xmlns:xlink="http://www.w3.org/1999/xlink" version="1.1" viewBox="-10 0 1010 1000">
   <path fill="currentColor"
d="M792 186l-64 30c-13 -38 -43 -98 -67 -142l63 -25c25 44 55 100 68 137zM549 680v136h147v-136h-147zM696 417v-126h-147v126h147zM696 613v-128h-147v128h147zM950 816v69h-401v73h-68v-572c-15 23 -30 45 -47 64c-4 -9 -11 -23 -19 -37v64h-120v7
c48 57 103 130 130 176l-42 50c-19 -35 -53 -83 -88 -129v377h-69v-376c-37 90 -86 174 -135 226c-12 -17 -36 -43 -53 -55c63 -57 126 -169 164 -276h-141v-68h165v-236c-47 9 -94 16 -138 22c-2 -15 -13 -41 -21 -55c117 -19 259 -49 338 -86l47 57c-43 19 -98 34 -157 47
v251h118c-5 -9 -10 -18 -15 -25c70 -88 131 -226 162 -335l70 20c-16 49 -36 102 -60 154h366v68h-172v126h153v68h-153v128h154v67h-154v136h186zM90 234l50 -16c19 45 42 106 51 143l-53 19c-9 -40 -30 -100 -48 -146zM377 189l55 14c-16 57 -38 125 -58 167
c-10 -6 -36 -17 -51 -22c22 -45 42 -105 54 -159z" />
</svg>
