<?xml version="1.0" standalone="no"?>
<!DOCTYPE svg PUBLIC "-//W3C//DTD SVG 1.1//EN" "http://www.w3.org/Graphics/SVG/1.1/DTD/svg11.dtd" >
<svg xmlns="http://www.w3.org/2000/svg" xmlns:xlink="http://www.w3.org/1999/xlink" version="1.1" viewBox="-10 0 1010 1000">
   <path fill="currentColor"
d="M849 197l-65 26c-10 -39 -39 -98 -65 -143l61 -24c28 45 57 103 69 141zM156 239v70h254v-70h-254zM156 128v67h254v-67h-254zM130 490v78h-55v-137h175c-7 -18 -16 -38 -24 -53l51 -17h-177v-286h368v286h-185c13 21 26 48 33 70h175v136h-56v-77h-305zM364 657h-128
c-15 28 -30 56 -44 79c34 15 68 31 100 47c33 -35 56 -76 72 -126zM236 513l57 14c-9 23 -18 47 -29 71h238v59h-77c-16 62 -42 113 -78 155c52 28 99 59 134 86l-49 50c-34 -29 -80 -61 -133 -91c-57 43 -130 75 -225 97c-6 -17 -20 -39 -32 -52c84 -17 150 -41 200 -76
c-42 -22 -87 -43 -132 -61c20 -31 42 -68 62 -108h-115v-59h144c13 -29 26 -59 35 -85zM743 434v-133h-116v133h116zM743 634v-136h-116v136h116zM743 837v-138h-116v138h116zM942 301h-133v133h118v64h-118v136h119v65h-119v138h132v68h-314v50h-66v-575
c-13 22 -25 42 -39 60c-11 -12 -38 -35 -54 -46c68 -86 125 -220 159 -350l65 16c-15 58 -36 117 -58 173h308v68z" />
</svg>
