<?xml version="1.0" standalone="no"?>
<!DOCTYPE svg PUBLIC "-//W3C//DTD SVG 1.1//EN" "http://www.w3.org/Graphics/SVG/1.1/DTD/svg11.dtd" >
<svg xmlns="http://www.w3.org/2000/svg" xmlns:xlink="http://www.w3.org/1999/xlink" version="1.1" viewBox="-10 0 1010 1000">
   <path fill="currentColor"
d="M834 205l-57 23c-8 -41 -29 -105 -51 -153l54 -21c24 47 46 110 54 151zM225 180v-48h-96v48h96zM225 274v-48h-96v48h96zM225 370v-50h-96v50h96zM277 85v332h-198v-332h198zM197 452l43 -17c16 23 36 56 45 76l-44 21c-8 -22 -28 -55 -44 -80zM113 430l52 22
c-21 44 -57 95 -86 122c-10 -9 -30 -25 -43 -33c32 -27 64 -74 77 -111zM385 673h-142c-14 29 -29 57 -43 80c38 12 77 26 116 41c33 -32 54 -72 69 -121zM357 431l51 23c-24 41 -61 88 -93 115c-4 -5 -12 -11 -18 -17c-8 20 -17 41 -27 63h275v58h-94
c-13 59 -37 107 -71 146c52 22 99 43 134 64l-46 50c-34 -21 -84 -45 -139 -69c-61 44 -144 73 -256 91c-5 -18 -18 -42 -30 -57c93 -11 164 -31 218 -62c-52 -20 -104 -39 -151 -53c20 -31 43 -69 64 -110h-129v-58h156c12 -26 23 -52 32 -76l62 12c-7 -6 -14 -11 -20 -15
c33 -26 67 -70 82 -105zM439 452l44 -19c23 32 51 77 63 105l-46 23c-11 -29 -38 -75 -61 -109zM642 699v138h113v-138h-113zM755 434v-133h-113v133h113zM755 634v-135h-113v135h113zM470 180v-48h-100v48h100zM470 274v-48h-100v48h100zM470 370v-50h-100v50h100zM961 837
l-1 68h-318v53h-66v-586c-16 28 -32 54 -50 76c-5 -7 -14 -19 -24 -31h-183v-332h204v248c49 -81 90 -184 117 -288l64 16c-17 58 -37 117 -60 172h308v68h-133v133h123v65h-123v135h123v65h-123v138h142z" />
</svg>
