<?xml version="1.0" standalone="no"?>
<!DOCTYPE svg PUBLIC "-//W3C//DTD SVG 1.1//EN" "http://www.w3.org/Graphics/SVG/1.1/DTD/svg11.dtd" >
<svg xmlns="http://www.w3.org/2000/svg" xmlns:xlink="http://www.w3.org/1999/xlink" version="1.1" viewBox="-10 0 1010 1000">
   <path fill="currentColor"
d="M146 202v107h-67v-150h380v-42h-328v-45h734v45h-334v42h388v151h-70v-108h-318v137h-72v-137h-313zM803 237v38h-219v-38h219zM584 350v-38h219v38h-219zM405 237v38h-212v-38h212zM193 350v-38h212v38h-212zM257 809h487v-48h-487v48zM744 674h-487v45h487v-45z
M816 629v260c0 33 -8 47 -38 56c-29 9 -76 9 -157 9c-4 -16 -14 -35 -23 -50c58 2 112 2 126 2c15 -1 20 -5 20 -17v-38h-487v101h-72v-323h631zM536 551h404v46h-878v-46h401v-41h-309v-43h309v-37h-339v-43h339v-31h73v31h351v43h-351v37h321v43h-321v41z" />
</svg>
