<?xml version="1.0" standalone="no"?>
<!DOCTYPE svg PUBLIC "-//W3C//DTD SVG 1.1//EN" "http://www.w3.org/Graphics/SVG/1.1/DTD/svg11.dtd" >
<svg xmlns="http://www.w3.org/2000/svg" xmlns:xlink="http://www.w3.org/1999/xlink" version="1.1" viewBox="-10 0 1010 1000">
   <path fill="currentColor"
d="M830 864v-360h72v452h-72v-35h-726v-418h73v361h653zM184 394v-40h227v40h-227zM202 269h208v41h-208v-41zM588 394v-40h233v40h-233zM588 269h213v41h-213v-41zM248 483v-53h456l15 -3l46 29c-60 47 -146 88 -228 117v53c10 4 20 8 30 13c52 -28 115 -66 153 -95l54 32
c-45 32 -102 63 -152 88c64 32 125 67 162 97l-39 43c-45 -38 -129 -87 -208 -124v94c0 30 -6 44 -31 53c-24 9 -62 9 -118 9c-4 -15 -14 -35 -23 -50c44 1 80 1 92 1c12 -1 14 -4 14 -13v-227c52 -15 107 -39 152 -64h-375zM237 801l-32 -48c58 -23 142 -61 226 -98l16 44
c-71 36 -147 72 -210 102zM223 564l35 -39c56 20 126 52 161 79l-35 44c-36 -27 -105 -62 -161 -84zM536 180h387v164h-69v-117h-318v179h-72v-179h-316v117h-67v-164h383v-50h-324v-52h723v52h-327v50z" />
</svg>
