<?xml version="1.0" standalone="no"?>
<!DOCTYPE svg PUBLIC "-//W3C//DTD SVG 1.1//EN" "http://www.w3.org/Graphics/SVG/1.1/DTD/svg11.dtd" >
<svg xmlns="http://www.w3.org/2000/svg" xmlns:xlink="http://www.w3.org/1999/xlink" version="1.1" viewBox="-10 0 1010 1000">
   <path fill="currentColor"
d="M138 220v109h-62v-155h387v-43h-319v-49h719v49h-328v43h389v155h-65v-109h-324v131h-72v-131h-325zM584 382v-42h250v42h-250zM584 261h227v41h-227v-41zM413 261v41h-220v-41h220zM171 382v-42h242v42h-242zM715 684l42 22c-35 54 -86 98 -148 132c75 24 142 50 190 72
l-36 48c-54 -26 -136 -57 -223 -86c-102 42 -225 67 -352 82c-6 -14 -23 -40 -33 -50c110 -10 215 -28 304 -57c-48 -15 -96 -29 -140 -40l34 -42c57 14 122 31 185 50c48 -22 88 -50 119 -82h-269c-59 39 -129 71 -195 94c-9 -11 -30 -32 -44 -42c102 -30 209 -80 265 -141
l60 17c-8 8 -16 17 -26 25h254zM535 469v24c28 30 65 58 107 84c40 -28 71 -65 88 -108h-195zM351 579l-30 25c58 -33 109 -70 146 -110v-25h-204l33 7c-6 15 -15 28 -24 42c31 21 62 44 79 61zM910 591l-36 45c-29 -24 -82 -59 -129 -89c-17 22 -36 41 -56 56
c83 45 181 81 273 99c-12 13 -28 35 -37 49c-139 -34 -290 -108 -390 -196v91h-68v-91c-98 88 -245 163 -381 199c-9 -14 -27 -33 -40 -43c88 -21 180 -55 260 -99c-15 -16 -41 -37 -65 -57c-33 34 -73 61 -116 82c-7 -10 -28 -29 -40 -38c67 -28 127 -72 154 -130h-153v-50
h381v-53h68v53h382v50h-163l31 6c-4 11 -8 20 -14 30c52 29 109 64 139 86z" />
</svg>
