<?xml version="1.0" standalone="no"?>
<!DOCTYPE svg PUBLIC "-//W3C//DTD SVG 1.1//EN" "http://www.w3.org/Graphics/SVG/1.1/DTD/svg11.dtd" >
<svg xmlns="http://www.w3.org/2000/svg" xmlns:xlink="http://www.w3.org/1999/xlink" version="1.1" viewBox="-10 0 1010 1000">
   <path fill="currentColor"
d="M256 659h96c14 -24 30 -53 39 -75h-180c20 23 39 52 47 74zM393 404v131h141v49h-130l46 18c-12 20 -25 39 -37 57h108v49h-186v57h154v49h-154v57c64 -5 131 -10 198 -16l-1 50c-170 16 -347 31 -468 40l-5 -55c56 -3 128 -8 206 -14v-62h-155v-49h155v-57h-188v-49h120
c-10 -19 -23 -40 -37 -57l41 -18h-143v-49h154v-131h59v131h64v-131h58zM86 440l44 -25c26 25 52 59 62 85l-46 26c-10 -24 -35 -61 -60 -86zM197 299v-39h212v39h-212zM450 526l-42 -24c21 -24 51 -62 68 -88l50 29c-25 31 -53 62 -76 83zM197 381v-39h212v39h-212z
M853 216h-317v175h-73v-175h-313v124h-67v-169h380v-52h-328v-47h734v47h-333v52h386v170h-69v-125zM807 260v39h-219v-39h219zM588 382v-40h219v40h-219zM944 534v58h-98v280c0 37 -9 54 -35 64c-29 11 -70 12 -140 12c-4 -17 -16 -44 -25 -61c52 2 99 2 113 1
c13 0 18 -4 18 -16v-280h-222v-58h222v-129h69v129h98zM704 781l-56 25c-11 -41 -45 -104 -79 -151l54 -21c34 45 70 106 81 147z" />
</svg>
