<?xml version="1.0" standalone="no"?>
<!DOCTYPE svg PUBLIC "-//W3C//DTD SVG 1.1//EN" "http://www.w3.org/Graphics/SVG/1.1/DTD/svg11.dtd" >
<svg xmlns="http://www.w3.org/2000/svg" xmlns:xlink="http://www.w3.org/1999/xlink" version="1.1" viewBox="-10 0 1010 1000">
   <path fill="currentColor"
d="M219 358l68 18c-20 41 -44 83 -72 123v452h-65v-368c-24 26 -48 52 -74 73c-8 -13 -26 -39 -38 -51c74 -62 146 -163 181 -247zM193 339v-37h211v37h-211zM404 233v37h-211v-37h211zM408 953l-48 -24c37 -17 70 -49 90 -76l49 18c-22 30 -52 61 -91 82zM551 868l50 -8
c11 22 22 54 25 73l-53 11c-3 -20 -12 -52 -22 -76zM673 870l47 -13c17 23 33 53 40 73l-49 15c-6 -20 -23 -52 -38 -75zM803 870l51 -20c29 25 62 59 78 81l-53 23c-16 -23 -48 -59 -76 -84zM566 677h61v-65h-145v65h63c-7 -15 -19 -32 -30 -45l36 -14c13 16 29 36 35 50z
M824 677v-65h-143v65h45l-9 -4c13 -16 30 -42 37 -57l40 18c-13 15 -26 30 -37 43h67zM681 777v30h253v42h-545v-42h238v-30h-200v-40h200v-26h-199v-133h453v133h-200v26h217v40h-217zM531 199v153h-72v-153h-313v103h-67v-145h380v-41h-328v-44h734v44h-334v41h388v145
h-70v-103h-318zM771 432h-228c30 19 71 36 118 50c44 -14 81 -31 110 -50zM843 386l44 17c-34 40 -85 72 -146 97c69 14 146 24 222 29c-15 11 -34 30 -43 44c-88 -9 -178 -23 -257 -46c-87 26 -185 40 -285 50c-6 -12 -20 -30 -33 -41v309h-62v-381h62v71
c83 -6 167 -16 241 -33c-33 -13 -62 -27 -88 -44c-24 18 -51 35 -81 51c-12 -11 -36 -24 -51 -30c77 -37 132 -84 163 -127l67 9c-7 8 -15 18 -23 27h258zM803 233v37h-219v-37h219zM584 339v-37h219v37h-219z" />
</svg>
