<?xml version="1.0" standalone="no"?>
<!DOCTYPE svg PUBLIC "-//W3C//DTD SVG 1.1//EN" "http://www.w3.org/Graphics/SVG/1.1/DTD/svg11.dtd" >
<svg xmlns="http://www.w3.org/2000/svg" xmlns:xlink="http://www.w3.org/1999/xlink" version="1.1" viewBox="-10 0 1010 1000">
   <path fill="currentColor"
d="M400 825v-491h-61v491h61zM124 334v491h59v-491h-59zM292 464v-130h-64v130h64zM228 695v130h64v-130h-64zM292 640v-122h-64v122h64zM472 172h-181c-8 35 -16 72 -25 103h190v648h-56v-39h-276v54h-53v-663h135c7 -32 13 -70 18 -103h-171v-64h419v64zM942 211h-342
c-26 63 -58 119 -88 163c-11 -11 -36 -34 -51 -44c55 -71 104 -179 133 -287l60 20c-8 27 -18 55 -27 82h315v66zM659 411l37 -33c31 29 74 70 95 94l-38 38c-22 -26 -62 -68 -94 -99zM780 712l-37 38c-22 -30 -65 -79 -99 -115l37 -33c34 33 78 80 99 110zM589 762h243
c4 -44 8 -102 10 -178h-233c-7 64 -14 125 -20 178zM849 359h-219c-5 53 -11 107 -15 163h230c1 -48 3 -102 4 -163zM961 584h-59c-3 74 -6 132 -10 178h53v61h-59c-6 49 -14 76 -24 91c-16 26 -33 34 -58 37c-26 3 -70 1 -112 -1c-1 -20 -7 -46 -16 -65c45 5 85 5 103 5
c15 1 23 -2 30 -14c6 -8 11 -25 16 -53h-304c9 -64 20 -150 30 -239h-75v-62h81c8 -78 15 -156 19 -224h334s-1 27 -1 37c-2 71 -3 132 -5 187h57v62z" />
</svg>
