<?xml version="1.0" standalone="no"?>
<!DOCTYPE svg PUBLIC "-//W3C//DTD SVG 1.1//EN" "http://www.w3.org/Graphics/SVG/1.1/DTD/svg11.dtd" >
<svg xmlns="http://www.w3.org/2000/svg" xmlns:xlink="http://www.w3.org/1999/xlink" version="1.1" viewBox="-10 0 1010 1000">
   <path fill="currentColor"
d="M300 825h42v-491h-42v491zM116 334v491h52v-491h-52zM259 464v-130h-50v130h50zM209 693v132h50v-132h-50zM259 640v-125h-50v125h50zM502 203v239c0 148 -8 362 -68 509c-10 -10 -29 -25 -43 -33v6h-49v-41h-226v55h-47v-663h115c5 -33 11 -71 16 -105h-148v-62h353v62
h-146c-8 36 -16 73 -24 105h156v627c51 -138 56 -326 56 -460v-295h234c-12 -26 -30 -57 -46 -80l46 -23c24 31 47 73 59 103h206v56h-444zM717 618l-30 51c-8 -26 -25 -72 -43 -113v403h-49v-373c-23 91 -51 178 -80 234c-6 -19 -19 -46 -27 -62c41 -74 85 -217 107 -336
h-70v-56h69v-120h52v120h60v56h-62v48c22 40 63 125 73 148zM932 422h-73c22 137 65 294 108 366c-11 9 -27 26 -35 40c-31 -59 -60 -158 -82 -263v394h-51v-373c-26 100 -58 193 -93 251c-9 -12 -24 -30 -35 -40c52 -76 98 -230 122 -375h-70v-56h75v-120h53v120h81v56z
" />
</svg>
