<?xml version="1.0" standalone="no"?>
<!DOCTYPE svg PUBLIC "-//W3C//DTD SVG 1.1//EN" "http://www.w3.org/Graphics/SVG/1.1/DTD/svg11.dtd" >
<svg xmlns="http://www.w3.org/2000/svg" xmlns:xlink="http://www.w3.org/1999/xlink" version="1.1" viewBox="-10 0 1010 1000">
   <path fill="currentColor"
d="M340 825h62v-491h-62v491zM125 334v491h58v-491h-58zM294 464v-130h-64v130h64zM230 695v130h64v-130h-64zM294 640v-122h-64v122h64zM590 267h257c-50 -39 -98 -84 -136 -128c-35 46 -76 89 -121 128zM563 666l63 10c-5 29 -11 56 -19 83c38 24 80 58 103 81l-40 49
c-18 -21 -50 -49 -83 -73c-21 56 -51 105 -85 142c-10 -9 -29 -27 -44 -39v5h-56v-40h-277v54h-54v-663h137c6 -32 12 -70 17 -103h-172v-64h421v64h-181c-7 35 -16 72 -25 103h190v10c101 -64 191 -159 238 -250l67 21c-6 11 -12 22 -19 33c57 67 149 139 228 180
c-13 16 -27 45 -33 64c-27 -17 -56 -37 -84 -59v52h-288v-40c-21 17 -44 34 -66 49c-10 -13 -29 -32 -43 -44v618c55 -58 89 -146 105 -243zM787 457v126h96v-126h-96zM735 635v-230h202v230h-202zM549 457v126h90v-126h-90zM497 635v-230h196v230h-196zM809 661l67 10
c-8 40 -17 77 -31 111c44 35 92 78 117 107l-46 50c-20 -27 -58 -65 -97 -99c-23 46 -53 85 -86 116c-11 -10 -37 -32 -54 -43c68 -57 111 -146 130 -252z" />
</svg>
