<?xml version="1.0" standalone="no"?>
<!DOCTYPE svg PUBLIC "-//W3C//DTD SVG 1.1//EN" "http://www.w3.org/Graphics/SVG/1.1/DTD/svg11.dtd" >
<svg xmlns="http://www.w3.org/2000/svg" xmlns:xlink="http://www.w3.org/1999/xlink" version="1.1" viewBox="-10 0 1010 1000">
   <path fill="currentColor"
d="M145 459v122h102v-122h-102zM408 581v-122h-101v122h101zM201 198v77h152v-77h-152zM496 784h-184v173h-70v-173h-199v-64h199v-81h-161v-238h161v-66h-107v-137h-87v-63h87v-90h66v90h152v-90h68v90h80v63h-80v137h-109v66h162v238h-162v81h184v64zM961 920l-65 24
c-6 -26 -15 -56 -27 -88c-293 33 -335 38 -363 50c-4 -14 -18 -46 -28 -63c23 -6 49 -35 88 -84c28 -31 93 -118 159 -225c-157 15 -187 21 -207 27c-4 -12 -17 -42 -25 -57c19 -4 36 -28 58 -64c23 -30 88 -148 130 -263h-170v-69h433v69h-182c-44 106 -101 217 -160 304
l161 -11c22 -38 42 -76 61 -115l66 32c-85 161 -187 313 -288 432l243 -25c-20 -49 -44 -99 -66 -142l61 -23c50 92 101 212 121 291z" />
</svg>
