<?xml version="1.0" standalone="no"?>
<!DOCTYPE svg PUBLIC "-//W3C//DTD SVG 1.1//EN" "http://www.w3.org/Graphics/SVG/1.1/DTD/svg11.dtd" >
<svg xmlns="http://www.w3.org/2000/svg" xmlns:xlink="http://www.w3.org/1999/xlink" version="1.1" viewBox="-10 0 1010 1000">
   <path fill="currentColor"
d="M322 275v-77h-130v77h130zM365 581v-121h-81v121h81zM139 460v121h90v-121h-90zM385 45v90h75v63h-75v137h-96v66h137v238h-137v81h167v64h-167v173h-65v-173h-180v-64h180v-81h-144v-238h143v-66h-92v-137h-80v-63h80v-90h61v90h130v-90h63zM955 919l-64 29
c-5 -22 -15 -48 -27 -76c-309 31 -346 35 -370 46c-4 -14 -16 -51 -25 -70c25 -6 53 -38 94 -85c26 -27 85 -102 150 -193c-161 13 -188 18 -206 26c-3 -16 -13 -50 -21 -69c16 -4 33 -24 54 -54c17 -24 69 -107 109 -196h-186v-69h240c-16 -39 -49 -95 -75 -136l58 -30
c31 43 65 100 82 138l-50 28h230v69h-222c-41 85 -91 169 -140 237l172 -12c31 -46 60 -95 86 -144l64 36c-97 163 -209 317 -320 437l248 -22c-21 -42 -44 -85 -68 -123l60 -24c54 81 108 189 127 257z" />
</svg>
