<?xml version="1.0" standalone="no"?>
<!DOCTYPE svg PUBLIC "-//W3C//DTD SVG 1.1//EN" "http://www.w3.org/Graphics/SVG/1.1/DTD/svg11.dtd" >
<svg xmlns="http://www.w3.org/2000/svg" xmlns:xlink="http://www.w3.org/1999/xlink" version="1.1" viewBox="-10 0 1010 1000">
   <path fill="currentColor"
d="M135 453v131h91v-131h-91zM362 584v-131h-80v131h80zM178 199v75h150v-75h-150zM459 775h-169v183h-72v-183h-175v-63h175v-72h-144v-243h147v-66h-105v-132h-69v-62h69v-93h62v93h150v-93h65v93h68v62h-68v132h-104v66h134v243h-133v72h169v63zM640 751l48 -12
c27 59 60 138 73 185l-50 17c-12 -48 -43 -129 -71 -190zM557 420h149c-6 -79 -9 -165 -12 -254c-46 10 -92 18 -137 25v229zM939 485h-162c19 223 55 380 101 381c16 1 28 -52 35 -143c12 13 38 29 50 35c-18 150 -51 190 -85 191c-96 -2 -144 -191 -167 -464h-154v378
l96 -24c0 18 0 44 2 57c-142 40 -167 50 -182 61c-5 -17 -18 -44 -29 -58c18 -10 45 -30 45 -70v-686c130 -21 278 -52 362 -86l58 52c-43 16 -95 31 -150 43c2 95 6 185 12 268h168v65z" />
</svg>
