<?xml version="1.0" standalone="no"?>
<!DOCTYPE svg PUBLIC "-//W3C//DTD SVG 1.1//EN" "http://www.w3.org/Graphics/SVG/1.1/DTD/svg11.dtd" >
<svg xmlns="http://www.w3.org/2000/svg" xmlns:xlink="http://www.w3.org/1999/xlink" version="1.1" viewBox="-10 0 1010 1000">
   <path fill="currentColor"
d="M315 275v-77h-136v77h136zM354 583v-125h-80v125h80zM133 458v125h84v-125h-84zM378 45v90h68v63h-68v136h-98v67h136v238h-136v81h160v64h-160v172h-69v-172h-166v-64h166v-81h-137v-238h140v-67h-96v-136h-71v-63h71v-90h61v90h136v-90h63zM735 833h118v-230h-118v230z
M547 603v230h123v-230h-123zM670 324h-123v211h123v-211zM853 535v-211h-118v211h118zM737 257h186v688h-70v-44h-306v55h-67v-699h188v-213h69v213z" />
</svg>
