<?xml version="1.0" standalone="no"?>
<!DOCTYPE svg PUBLIC "-//W3C//DTD SVG 1.1//EN" "http://www.w3.org/Graphics/SVG/1.1/DTD/svg11.dtd" >
<svg xmlns="http://www.w3.org/2000/svg" xmlns:xlink="http://www.w3.org/1999/xlink" version="1.1" viewBox="-10 0 1010 1000">
   <path fill="currentColor"
d="M493 209v102h-66v-168h233c-11 -26 -28 -56 -45 -79l56 -25c25 31 47 72 60 104h206v166h-66v-100h-378zM123 461v121h71v-121h-71zM322 582v-121h-75v121h75zM169 198v77h108v-77h-108zM252 641v79h142v64h-142v173h-63v-173h-145v-64h145v-79h-119v-240h119v-66h-76
v-137h-66v-63h66v-90h56v90h108v-90h58v90h63v63h-63v137h-83v66h125v240h-125zM629 361l10 -2l35 8c-26 315 -106 498 -235 591c-8 -15 -29 -37 -42 -46c72 -48 127 -124 164 -232c-21 -25 -54 -56 -84 -78l30 -47c26 17 53 37 74 58c14 -57 25 -120 32 -192h-78
c-26 84 -58 160 -98 216c-9 -11 -32 -32 -46 -42c59 -75 96 -192 117 -314l57 10c-5 24 -10 47 -15 70h79zM801 890h48c13 0 27 -1 33 -4c7 -3 14 -10 16 -25c3 -16 5 -52 6 -98c13 12 35 23 54 29c-2 42 -5 91 -12 109c-6 18 -17 30 -33 37c-15 6 -37 8 -57 8h-66
c-19 0 -44 -4 -60 -16c-17 -12 -24 -28 -24 -100v-489h208v303c0 31 -5 47 -26 58c-18 10 -49 11 -95 11c-2 -17 -9 -41 -17 -58c33 1 59 1 69 1c9 0 11 -3 11 -12v-245h-92v439c0 27 2 44 10 48c7 3 15 4 27 4z" />
</svg>
