<?xml version="1.0" standalone="no"?>
<!DOCTYPE svg PUBLIC "-//W3C//DTD SVG 1.1//EN" "http://www.w3.org/Graphics/SVG/1.1/DTD/svg11.dtd" >
<svg xmlns="http://www.w3.org/2000/svg" xmlns:xlink="http://www.w3.org/1999/xlink" version="1.1" viewBox="-10 0 1010 1000">
   <path fill="currentColor"
d="M313 275v-77h-133v77h133zM359 581v-121h-87v121h87zM131 460v121h89v-121h-89zM372 45v90h69v63h-69v137h-95v66h139v238h-139v81h161v64h-161v173h-61v-173h-172v-64h172v-81h-140v-238h140v-66h-93v-137h-75v-63h75v-90h57v90h133v-90h59zM831 707h-246v140h246v-140z
M794 371h-209v127h209v-127zM585 560v83h306v307h-60v-39h-246v44h-59v-645h328v250h-269zM724 159h202v162h-57v-101h-345v101h-55v-162h219c-10 -29 -27 -66 -43 -94l53 -27c21 33 42 77 51 106z" />
</svg>
