<?xml version="1.0" standalone="no"?>
<!DOCTYPE svg PUBLIC "-//W3C//DTD SVG 1.1//EN" "http://www.w3.org/Graphics/SVG/1.1/DTD/svg11.dtd" >
<svg xmlns="http://www.w3.org/2000/svg" xmlns:xlink="http://www.w3.org/1999/xlink" version="1.1" viewBox="-10 0 1010 1000">
   <path fill="currentColor"
d="M124 461v121h75v-121h-75zM328 582v-121h-78v121h78zM170 198v77h112v-77h-112zM256 641v79h151v64h-151v173h-63v-173h-149v-64h149v-79h-122v-240h122v-66h-78v-137h-68v-63h68v-90h55v90h112v-90h59v90h68v63h-68v137h-85v66h127v240h-127zM718 580h107
c-30 -38 -56 -82 -75 -127h-132c-24 46 -52 88 -83 127h118v-92h65v92zM958 453h-143c36 71 95 136 161 169c-16 13 -36 37 -45 53c-39 -22 -74 -54 -104 -93v59h-109v91h191v61h-191v164h-65v-164h-184v-61h184v-91h-125v-53c-27 32 -58 61 -92 86c-10 -13 -30 -37 -44 -47
c63 -46 113 -106 153 -174h-127v-62h158c12 -24 22 -50 31 -76h-143v-58h161c6 -23 12 -45 17 -69h-204v-61h217c5 -28 9 -56 13 -84l66 10c-4 24 -8 49 -13 74h218v61h-230c-5 24 -11 46 -18 69h225v58h-241c-9 26 -19 52 -29 76h312v62z" />
</svg>
