<?xml version="1.0" standalone="no"?>
<!DOCTYPE svg PUBLIC "-//W3C//DTD SVG 1.1//EN" "http://www.w3.org/Graphics/SVG/1.1/DTD/svg11.dtd" >
<svg xmlns="http://www.w3.org/2000/svg" xmlns:xlink="http://www.w3.org/1999/xlink" version="1.1" viewBox="-10 0 1010 1000">
   <path fill="currentColor"
d="M126 461v121h73v-121h-73zM328 582v-121h-77v121h77zM171 198v77h110v-77h-110zM403 784h-146v173h-64v-173h-149v-64h149v-79h-122v-240h122v-66h-78v-137h-68v-63h68v-90h56v90h110v-90h60v90h65v63h-65v137h-85v66h128v240h-127v79h146v64zM800 362h-138v98h138v-98z
M518 362v124c0 144 -12 341 -95 469c-12 -11 -40 -30 -55 -38c78 -122 85 -297 85 -431v-352h222c-10 -25 -22 -52 -34 -74l63 -19c16 27 32 63 43 93h206v64h-435v102h84v-73h60v73h138v-73h62v73h83v62h-83v154h-260v-154h-84zM831 637h-194c24 47 57 90 97 127
c41 -36 73 -78 97 -127zM878 573l43 18c-29 88 -75 159 -134 216c53 36 114 63 181 81c-15 14 -32 40 -42 57c-70 -22 -134 -54 -189 -96c-63 48 -137 82 -213 106c-8 -19 -24 -48 -38 -62c71 -18 141 -48 199 -89c-48 -47 -87 -104 -115 -167h-41v-61h336z" />
</svg>
