<?xml version="1.0" standalone="no"?>
<!DOCTYPE svg PUBLIC "-//W3C//DTD SVG 1.1//EN" "http://www.w3.org/Graphics/SVG/1.1/DTD/svg11.dtd" >
<svg xmlns="http://www.w3.org/2000/svg" xmlns:xlink="http://www.w3.org/1999/xlink" version="1.1" viewBox="-10 0 1010 1000">
   <path fill="currentColor"
d="M706 82l51 -21c43 71 131 142 216 172c-13 14 -33 39 -43 57c-87 -39 -176 -124 -224 -208zM905 422l-52 32c-10 -17 -23 -37 -39 -57c-287 27 -323 31 -343 41c-3 -15 -13 -48 -20 -66c16 -3 33 -14 52 -33c22 -19 91 -90 137 -162l57 35c-42 54 -89 106 -136 148
l212 -16c-21 -27 -44 -52 -64 -73l50 -25c55 52 117 128 146 176zM123 461v121h71v-121h-71zM321 582v-121h-75v121h75zM168 198v77h107v-77h-107zM251 641v79h141v64h-141v173h-62v-173h-145v-64h145v-79h-120v-240h120v-66h-77v-137h-65v-63h65v-90h56v90h107v-90h58v90
h63v63h-63v137h-82v66h125v240h-125zM575 61l58 18c-45 88 -122 169 -195 220c-10 -12 -32 -36 -46 -46c74 -45 145 -115 183 -192zM660 488v390c0 35 -6 53 -30 63c-21 11 -57 12 -108 12c-3 -19 -11 -43 -19 -61c38 1 71 1 81 1c11 -1 14 -5 14 -15v-108
c-60 35 -120 70 -171 99l-28 -54c51 -25 125 -64 199 -104v-160h-188v-63h250zM567 675l-40 39c-21 -31 -67 -78 -104 -111l38 -33c37 31 84 76 106 105zM935 488v390c0 36 -6 53 -29 64c-21 10 -58 11 -110 11c-3 -19 -11 -43 -19 -61c39 1 73 1 83 1c11 -1 14 -5 14 -15
v-114c-61 36 -122 71 -174 100l-27 -55c51 -24 126 -63 201 -102v-156h-188v-63h249zM848 674l-39 41c-24 -31 -71 -77 -109 -109l37 -34c38 31 87 74 111 102z" />
</svg>
