<?xml version="1.0" standalone="no"?>
<!DOCTYPE svg PUBLIC "-//W3C//DTD SVG 1.1//EN" "http://www.w3.org/Graphics/SVG/1.1/DTD/svg11.dtd" >
<svg xmlns="http://www.w3.org/2000/svg" xmlns:xlink="http://www.w3.org/1999/xlink" version="1.1" viewBox="-10 0 1010 1000">
   <path fill="currentColor"
d="M494 175v103h-57v-157h213c-10 -20 -23 -41 -36 -58l60 -15c18 22 35 51 45 73h209v157h-59v-103h-375zM132 461v121h76v-121h-76zM339 582v-121h-78v121h78zM179 198v77h113v-77h-113zM409 784h-143v173h-63v-173h-159v-64h159v-79h-125v-240h125v-66h-81v-137h-74v-63
h74v-90h57v90h113v-90h60v90h60v63h-60v137h-86v66h129v240h-129v79h143v64zM422 904l-52 -31c38 -45 67 -120 82 -179l53 18c-17 64 -43 143 -83 192zM800 275h-233v64h233v-64zM831 494h-264v73h264v-73zM891 619h-387v-393h356v163h-293v53h324v177zM630 662l43 -33
c37 33 80 80 100 112l-46 38c-19 -33 -60 -83 -97 -117zM640 878h103c26 0 31 -11 34 -91c14 11 40 20 58 24c-7 101 -26 127 -85 127h-118c-75 0 -93 -19 -93 -85v-180h65v180c0 21 5 25 36 25zM820 718l51 -22c40 54 80 126 94 173l-55 27c-12 -48 -50 -123 -90 -178z" />
</svg>
