<?xml version="1.0" standalone="no"?>
<!DOCTYPE svg PUBLIC "-//W3C//DTD SVG 1.1//EN" "http://www.w3.org/Graphics/SVG/1.1/DTD/svg11.dtd" >
<svg xmlns="http://www.w3.org/2000/svg" xmlns:xlink="http://www.w3.org/1999/xlink" version="1.1" viewBox="-10 0 1010 1000">
   <path fill="currentColor"
d="M118 461v121h64v-121h-64zM286 582v-121h-56v121h56zM162 194v84h90v-84h-90zM351 779h-117v178h-57v-178h-131v-59h131v-79h-108v-240h110v-68h-69v-139h-63v-59h63v-90h52v90h90v-90h52v90h52v59h-52v139h-68v68h100v240h-102v79h117v59zM646 741l-33 52
c-15 -28 -50 -82 -78 -126v289h-49v-278c-29 85 -68 161 -110 208c-6 -19 -18 -43 -28 -60c57 -65 110 -183 138 -298v-158h-47v236h-49v-290h96v-100h-105v-59h105v-113h49v113h108v59h-108v100h97v211c0 29 -3 44 -18 54c-14 11 -34 12 -59 12c-2 -18 -9 -41 -15 -58
c17 1 29 1 34 1c6 -1 7 -3 7 -9v-157h-46v221c25 31 94 125 111 150zM831 370v175c26 93 74 215 136 282c-11 12 -26 37 -35 52c-41 -53 -76 -128 -101 -200v277h-51v-287c-32 95 -76 174 -128 223c-8 -16 -24 -39 -35 -52c75 -59 133 -187 163 -321v-149h-50v234h-52v-288
h102v-99h-117v-59h117v-114h51v114h113v59h-113v99h98v216c0 29 -3 43 -17 54c-13 11 -31 11 -52 11c-3 -18 -9 -41 -15 -57h28c4 0 5 -2 5 -9v-161h-47z" />
</svg>
