<?xml version="1.0" standalone="no"?>
<!DOCTYPE svg PUBLIC "-//W3C//DTD SVG 1.1//EN" "http://www.w3.org/Graphics/SVG/1.1/DTD/svg11.dtd" >
<svg xmlns="http://www.w3.org/2000/svg" xmlns:xlink="http://www.w3.org/1999/xlink" version="1.1" viewBox="-10 0 1010 1000">
   <path fill="currentColor"
d="M625 199v100h128v-100h-128zM832 482h-112v85h112v-85zM832 704v-86h-112v86h112zM544 618v86h112v-86h-112zM544 482v85h112v-85h-112zM656 427v-69h-221v-59h128v-100h-104v-57h104v-98h62v98h128v-98h62v98h102v57h-102v100h121v59h-216v69h176v332h-414v-332h174z
M142 460v121h78v-121h-78zM350 581v-121h-78v121h78zM187 198v77h120v-77h-120zM428 784h-151v173h-61v-173h-171v-64h171v-81h-130v-238h129v-66h-86v-137h-78v-63h78v-90h58v90h120v-90h60v90h66v63h-66v137h-90v66h130v238h-130v81h151v64zM588 765l58 40
c-51 55 -133 112 -203 148c-9 -15 -27 -38 -40 -51c67 -34 147 -90 185 -137zM737 813l41 -44c66 41 142 95 186 135l-50 47c-41 -41 -114 -95 -177 -138z" />
</svg>
