<?xml version="1.0" standalone="no"?>
<!DOCTYPE svg PUBLIC "-//W3C//DTD SVG 1.1//EN" "http://www.w3.org/Graphics/SVG/1.1/DTD/svg11.dtd" >
<svg xmlns="http://www.w3.org/2000/svg" xmlns:xlink="http://www.w3.org/1999/xlink" version="1.1" viewBox="-10 0 1010 1000">
   <path fill="currentColor"
d="M337 180h-92c-4 30 -8 60 -12 85h104v-85zM447 265v59h-397v-59h117c5 -25 9 -55 13 -85h-96v-58h103c3 -27 6 -54 8 -78l65 4c-2 24 -5 49 -8 74h149v143h46zM154 771h95v-82h-83c-4 27 -8 56 -12 82zM159 428v91h186v-91h-186zM316 689v82h117v60h-117v125h-67v-125
h-169c8 -38 14 -93 19 -142h-55v-58h205v-60h-153v-195h314v195h-94v60h128v58h-128zM817 741l-41 51c-17 -24 -59 -69 -92 -104v240h-61v-251c-42 82 -95 161 -146 208c-7 -18 -22 -45 -33 -60c58 -53 125 -147 164 -233h-128v-57h143v-225h61v225h136v57h-136v33
c28 24 113 97 133 116zM769 344l55 19c-22 52 -46 112 -67 151l-44 -16c19 -42 43 -109 56 -154zM934 187v38c-6 491 -10 644 -37 687c-17 26 -36 35 -62 39c-26 3 -65 3 -103 1c-1 -20 -8 -49 -19 -69c39 3 75 3 91 3c15 1 23 -2 31 -16c19 -31 26 -180 30 -616h-297
c-18 41 -39 79 -61 112l37 -11c23 44 44 103 52 141l-48 16c-7 -37 -26 -94 -47 -138c-4 7 -10 14 -15 21c-11 -12 -38 -34 -55 -44c64 -74 111 -189 137 -308l67 14c-11 44 -24 88 -39 130h338z" />
</svg>
