<?xml version="1.0" standalone="no"?>
<!DOCTYPE svg PUBLIC "-//W3C//DTD SVG 1.1//EN" "http://www.w3.org/Graphics/SVG/1.1/DTD/svg11.dtd" >
<svg xmlns="http://www.w3.org/2000/svg" xmlns:xlink="http://www.w3.org/1999/xlink" version="1.1" viewBox="-10 0 1010 1000">
   <path fill="currentColor"
d="M234 771v-82h-77c-3 27 -7 56 -11 82h88zM150 428v91h169v-91h-169zM293 571v60h117v58h-117v82h108v60h-108v125h-59v-125h-152c7 -38 13 -93 17 -142h-55v-58h190v-60h-141v-195h286v195h-86zM313 180h-85c-3 30 -7 60 -11 85h96v-85zM372 122v143h40v59h-362v-59h109
c5 -25 9 -55 12 -85h-89v-58h96c3 -27 5 -54 7 -78l58 4c-2 24 -5 49 -8 74h137zM664 631h-113v87h113v-87zM843 718v-87h-117v87h117zM726 861h117v-89h-117v89zM551 861h113v-89h-113v89zM487 957v-385h422v379h-66v-31h-292v37h-64zM954 357h-175c48 67 124 134 190 167
c-15 13 -35 36 -45 53c-69 -41 -146 -120 -196 -199v169h-66v-160c-53 79 -132 153 -205 192c-10 -16 -29 -39 -43 -51c75 -33 155 -100 206 -171h-177v-63h102c-8 -30 -29 -73 -49 -106l55 -19c22 33 45 78 54 107l-43 18h100v-149c-64 9 -128 15 -189 19
c-1 -16 -10 -40 -18 -55c143 -12 313 -34 407 -65l46 53c-50 16 -112 29 -180 39v158h58c17 -43 41 -105 53 -148l63 23c-17 41 -38 87 -55 125h107v63z" />
</svg>
