<?xml version="1.0" standalone="no"?>
<!DOCTYPE svg PUBLIC "-//W3C//DTD SVG 1.1//EN" "http://www.w3.org/Graphics/SVG/1.1/DTD/svg11.dtd" >
<svg xmlns="http://www.w3.org/2000/svg" xmlns:xlink="http://www.w3.org/1999/xlink" version="1.1" viewBox="-10 0 1010 1000">
   <path fill="currentColor"
d="M430 853h139v-447h72v66h184c-97 -40 -188 -101 -250 -169h-189c-65 71 -148 127 -241 170h212v-67h73v447zM873 528h-232v70h230v54h-230v70h270v57h-270v74h301v64h-889v-64h304v-78h-267v-56h267v-68h-223v-54h223v-69h-237v-43c-11 4 -22 9 -32 13
c-8 -14 -33 -44 -47 -56c95 -33 181 -78 248 -139h-225v-62h284c23 -28 43 -59 58 -91h-272v-61h740v61h-389c-13 32 -31 63 -50 91h510v62h-280c74 64 186 115 294 141c-17 13 -39 40 -50 57c-12 -2 -24 -6 -36 -10v37z" />
</svg>
