<?xml version="1.0" standalone="no"?>
<!DOCTYPE svg PUBLIC "-//W3C//DTD SVG 1.1//EN" "http://www.w3.org/Graphics/SVG/1.1/DTD/svg11.dtd" >
<svg xmlns="http://www.w3.org/2000/svg" xmlns:xlink="http://www.w3.org/1999/xlink" version="1.1" viewBox="-10 0 1010 1000">
   <path fill="currentColor"
d="M756 186v16c0 19 -2 40 -8 62c49 78 117 112 206 138c-13 14 -26 35 -32 53c-83 -29 -147 -68 -196 -137c-30 49 -89 98 -201 133c-7 -15 -23 -38 -34 -51c192 -54 209 -146 209 -202v-12h56zM861 155h-202c-18 28 -37 55 -56 76c-10 -10 -30 -28 -43 -37
c41 -40 78 -98 100 -157l49 18c-6 17 -14 33 -22 49h202l11 -3l40 16c-24 52 -57 110 -87 145l-47 -22c17 -22 38 -54 55 -85zM566 126l-32 49c-23 -21 -67 -47 -106 -62l30 -42c40 15 83 34 108 55zM574 244l9 48c-49 27 -99 53 -143 77l-15 -53c39 -17 92 -43 149 -72z
M403 316v213c0 26 -4 41 -21 51s-41 10 -75 10c-3 -15 -11 -37 -18 -52h51c7 0 9 -3 9 -10v-153h-79v580h-55v-305c-38 79 -87 153 -134 198c-10 -16 -28 -38 -41 -50c67 -55 137 -166 175 -271v-152h-69v232h-53v-291h122v-96h-151v-58h151v-118h55v118h143v58h-143v96h133
zM773 867h183v54h-558v-54h186v-66h-148v-54h148v-61h-124v-54h124v-62h-132v-54h132v-72h59v423h72v-423h58v72h135v54h-135v62h123v55h-123v62h142v54h-142v64z" />
</svg>
