<?xml version="1.0" standalone="no"?>
<!DOCTYPE svg PUBLIC "-//W3C//DTD SVG 1.1//EN" "http://www.w3.org/Graphics/SVG/1.1/DTD/svg11.dtd" >
<svg xmlns="http://www.w3.org/2000/svg" xmlns:xlink="http://www.w3.org/1999/xlink" version="1.1" viewBox="-10 0 1010 1000">
   <path fill="currentColor"
d="M863 89l64 24c-32 37 -69 76 -98 102l-47 -22c28 -28 63 -74 81 -104zM86 360h791c-44 -30 -118 -75 -184 -111c-35 46 -93 80 -183 102c-6 -16 -24 -40 -37 -53c168 -39 202 -109 211 -255h68c-4 62 -12 113 -30 155c71 36 160 85 206 117l-40 45h28v175h-74v-118h-685
v118h-71v-175zM534 224l-50 -27c33 -26 65 -72 85 -108l49 22c-21 37 -50 83 -84 113zM427 91l60 24c-29 35 -62 73 -89 97l-44 -20c25 -28 56 -71 73 -101zM152 88l48 21c-20 39 -48 85 -81 116l-51 -27c33 -26 66 -74 84 -110zM456 299l-45 45c-31 -23 -87 -60 -137 -92
c-36 48 -94 82 -188 105c-6 -15 -24 -39 -38 -51c175 -39 208 -110 217 -263h66c-4 64 -12 116 -30 158c53 32 119 72 155 98zM729 742h-459v53h459v-53zM270 888h459v-55h-459v55zM201 956v-255h599v254h-71v-25h-459v26h-69zM643 535h-286c21 23 40 52 49 74h194
c14 -22 32 -52 43 -74zM670 609h269v49h-882v-49h273c-11 -21 -27 -46 -43 -65l36 -9h-146v-49h295c-9 -18 -23 -37 -36 -53l69 -16c17 20 36 46 47 69h281v49h-164l46 14c-14 21 -30 42 -45 60z" />
</svg>
