<?xml version="1.0" standalone="no"?>
<!DOCTYPE svg PUBLIC "-//W3C//DTD SVG 1.1//EN" "http://www.w3.org/Graphics/SVG/1.1/DTD/svg11.dtd" >
<svg xmlns="http://www.w3.org/2000/svg" xmlns:xlink="http://www.w3.org/1999/xlink" version="1.1" viewBox="-10 0 1010 1000">
   <path fill="currentColor"
d="M840 408v-96h-259v96h259zM840 559v-96h-259v96h259zM840 712v-97h-259v97h259zM519 254h132c11 -30 23 -67 33 -99h-193v-64h451v64h-189c-13 34 -27 69 -41 99h191v517h-384v-517zM394 281h-95c-5 205 -39 457 -204 668c-14 -14 -40 -31 -59 -42
c159 -202 189 -441 193 -626h-94v146h-65v-213h160v-170h70v170h161v213h-67v-146zM362 786l102 -54c3 18 11 44 16 59c-138 78 -161 95 -175 110v-1c-7 -17 -24 -50 -35 -63c12 -10 25 -30 25 -71v-330h67v350zM617 779l48 46c-57 47 -137 99 -201 131
c-7 -15 -22 -40 -32 -56c61 -29 142 -80 185 -121zM751 825l37 -47c56 34 130 87 167 124l-39 54c-36 -38 -108 -95 -165 -131z" />
</svg>
