<?xml version="1.0" standalone="no"?>
<!DOCTYPE svg PUBLIC "-//W3C//DTD SVG 1.1//EN" "http://www.w3.org/Graphics/SVG/1.1/DTD/svg11.dtd" >
<svg xmlns="http://www.w3.org/2000/svg" xmlns:xlink="http://www.w3.org/1999/xlink" version="1.1" viewBox="-10 0 1010 1000">
   <path fill="currentColor"
d="M836 402v-96h-254v96h254zM836 554v-96h-254v96h254zM836 707v-97h-254v97h254zM516 248h132c9 -29 18 -63 25 -92h-189v-65h462v65h-196c-10 31 -20 64 -31 92h186v518h-389v-518zM220 525v-185c-39 48 -83 90 -130 122c-11 -14 -37 -41 -53 -53
c89 -57 166 -142 211 -244h-192v-67h409v67h-141c-10 24 -21 49 -34 72v35l42 -36c50 54 116 128 146 172l-47 45c-31 -45 -91 -119 -141 -175v247h-70zM361 630h-201v191h201v-191zM92 944v-383h340v381h-71v-53h-201v55h-68zM617 775l63 37c-47 52 -125 105 -191 134
c-12 -14 -33 -36 -48 -49c66 -28 141 -79 176 -122zM740 821l53 -36c54 36 122 90 157 128l-55 40c-33 -37 -100 -94 -155 -132z" />
</svg>
