<?xml version="1.0" standalone="no"?>
<!DOCTYPE svg PUBLIC "-//W3C//DTD SVG 1.1//EN" "http://www.w3.org/Graphics/SVG/1.1/DTD/svg11.dtd" >
<svg xmlns="http://www.w3.org/2000/svg" xmlns:xlink="http://www.w3.org/1999/xlink" version="1.1" viewBox="-10 0 1010 1000">
   <path fill="currentColor"
d="M848 403v-96h-250v96h250zM848 556v-97h-250v97h250zM848 710v-99h-250v99h250zM537 249h135c8 -29 15 -63 22 -93h-184v-65h433v65h-170c-9 32 -20 65 -30 93h168v519h-374v-519zM138 476h83c16 -39 23 -76 26 -105h-109v105zM138 208v105h110v-105h-110zM421 313v-105
h-111v105h111zM421 476v-105h-112c-3 27 -10 64 -25 105h137zM498 758h-137v198h-69v-198h-245v-68h67c-10 -15 -30 -32 -44 -43c53 -33 90 -70 117 -109h-112v-392h123c15 -32 30 -73 37 -102l75 13c-14 31 -27 63 -40 89h217v392h-229c-29 54 -72 109 -136 152h170v-128
h69v128h137v68zM623 786l61 35c-42 51 -110 105 -169 135c-11 -13 -32 -34 -46 -46c59 -29 123 -81 154 -124zM754 823l56 -34c51 38 115 92 149 130l-60 36c-30 -35 -94 -93 -145 -132z" />
</svg>
