<?xml version="1.0" standalone="no"?>
<!DOCTYPE svg PUBLIC "-//W3C//DTD SVG 1.1//EN" "http://www.w3.org/Graphics/SVG/1.1/DTD/svg11.dtd" >
<svg xmlns="http://www.w3.org/2000/svg" xmlns:xlink="http://www.w3.org/1999/xlink" version="1.1" viewBox="-10 0 1010 1000">
   <path fill="currentColor"
d="M848 402v-96h-238v96h238zM848 554v-96h-238v96h238zM848 707v-97h-238v97h238zM547 248h126c8 -29 14 -63 20 -92h-173v-65h428v65h-180c-9 31 -20 64 -30 92h176v518h-367v-518zM140 252h157c-5 -31 -8 -66 -11 -100c-48 8 -98 15 -146 20v80zM140 437l134 -30
c0 17 2 42 4 55c-135 35 -167 47 -183 57l-5 6c-6 -18 -19 -51 -28 -68c11 -8 22 -27 22 -67v-270h1c125 -13 273 -37 356 -66l40 53c-40 14 -88 25 -140 35c3 39 7 77 12 110h153v61h-141c18 77 45 124 77 125c10 1 18 -23 22 -75c11 13 28 28 40 35
c-12 85 -31 114 -58 113c-69 -1 -113 -82 -138 -198h-168v124zM415 608h-260v82h260v-82zM155 838h260v-91h-260v91zM98 943v-397h376v395h-59v-42h-260v44h-57zM639 773l60 37c-42 54 -111 111 -172 144c-11 -15 -31 -36 -46 -50c61 -31 126 -86 158 -131zM753 816l50 -38
c51 36 117 91 150 127l-53 43c-30 -36 -95 -93 -147 -132z" />
</svg>
