<?xml version="1.0" standalone="no"?>
<!DOCTYPE svg PUBLIC "-//W3C//DTD SVG 1.1//EN" "http://www.w3.org/Graphics/SVG/1.1/DTD/svg11.dtd" >
<svg xmlns="http://www.w3.org/2000/svg" xmlns:xlink="http://www.w3.org/1999/xlink" version="1.1" viewBox="-10 0 1010 1000">
   <path fill="currentColor"
d="M842 408v-96h-226v96h226zM842 559v-96h-226v96h226zM842 712v-97h-226v97h226zM546 254h114c11 -29 22 -66 30 -97h-183v-66h433v66h-176c-12 33 -26 68 -38 97h189v517h-369v-517zM466 164v68h-388v-68h174c-12 -33 -27 -74 -42 -106l61 -17c19 38 40 88 51 123h144z
M251 408l-63 20c-8 -44 -33 -112 -58 -164l61 -17c25 50 50 117 60 161zM368 655h-191v181h191v-181zM110 950v-362h327v354h-69v-40h-191v48h-67zM358 242l68 18c-23 56 -48 120 -72 170h126v69h-423v-69h230c25 -54 55 -133 71 -188zM660 786l50 45
c-54 47 -133 98 -194 131c-7 -16 -22 -40 -34 -56c60 -30 136 -80 178 -120zM766 830l40 -46c52 31 121 83 155 119l-42 51c-33 -35 -100 -89 -153 -124z" />
</svg>
