<?xml version="1.0" standalone="no"?>
<!DOCTYPE svg PUBLIC "-//W3C//DTD SVG 1.1//EN" "http://www.w3.org/Graphics/SVG/1.1/DTD/svg11.dtd" >
<svg xmlns="http://www.w3.org/2000/svg" xmlns:xlink="http://www.w3.org/1999/xlink" version="1.1" viewBox="-10 0 1010 1000">
   <path fill="currentColor"
d="M850 403v-96h-239v96h239zM850 556v-97h-239v97h239zM850 710v-98h-239v98h239zM544 249h124c8 -29 15 -63 21 -93h-180v-65h440v65h-179c-10 32 -21 65 -31 93h182v519h-377v-519zM377 587h-205v96h205v-96zM172 843h205v-105h-205v105zM114 954v-422h323v412h-60v-47
h-205v57h-58zM310 304v14c41 26 144 100 168 119l-35 54c-24 -27 -87 -82 -133 -120v128h-62v-154c-49 72 -116 142 -178 181c-6 -17 -20 -45 -30 -62c61 -34 132 -97 178 -160h-151v-57h181v-85c-50 8 -101 14 -148 17c-2 -14 -11 -36 -17 -51c119 -12 263 -36 343 -64
l38 51c-43 14 -97 27 -154 37v95h168v57h-168zM626 783l64 39c-50 50 -126 104 -187 136c-12 -14 -33 -36 -48 -49c60 -31 134 -83 171 -126zM750 821l51 -37c53 39 124 95 159 130l-54 41c-34 -35 -102 -93 -156 -134z" />
</svg>
