<?xml version="1.0" standalone="no"?>
<!DOCTYPE svg PUBLIC "-//W3C//DTD SVG 1.1//EN" "http://www.w3.org/Graphics/SVG/1.1/DTD/svg11.dtd" >
<svg xmlns="http://www.w3.org/2000/svg" xmlns:xlink="http://www.w3.org/1999/xlink" version="1.1" viewBox="-10 0 1010 1000">
   <path fill="currentColor"
d="M847 403v-95h-250v95h250zM847 555v-97h-250v97h250zM847 707v-97h-250v97h250zM532 249h140c6 -30 14 -66 19 -98h-186v-65h438v65h-182c-9 34 -19 69 -28 98h181v517h-382v-517zM388 225v-87h-209v87h209zM453 82v199h-337v-199h337zM413 462v-68h-254v68h254zM413 581
v-68h-254v68h254zM413 702v-70h-254v70h254zM477 340v416h-381v-416h381zM196 770l60 32c-41 55 -106 117 -159 154c-12 -13 -35 -31 -51 -42c57 -35 118 -97 150 -144zM481 879l-27 21c61 -30 139 -79 181 -119l53 45c-55 46 -136 97 -197 128c-10 -15 -28 -37 -41 -51
l-23 18c-27 -33 -76 -81 -116 -115l47 -38c44 34 94 79 123 111zM760 827l40 -47c55 34 129 85 165 122l-41 52c-36 -36 -108 -91 -164 -127z" />
</svg>
