<?xml version="1.0" standalone="no"?>
<!DOCTYPE svg PUBLIC "-//W3C//DTD SVG 1.1//EN" "http://www.w3.org/Graphics/SVG/1.1/DTD/svg11.dtd" >
<svg xmlns="http://www.w3.org/2000/svg" xmlns:xlink="http://www.w3.org/1999/xlink" version="1.1" viewBox="-10 0 1010 1000">
   <path fill="currentColor"
d="M851 405v-93h-214v93h214zM851 555v-95h-214v95h214zM851 705v-95h-214v95h214zM576 254h103c9 -30 18 -68 25 -99h-165v-64h409v64h-175c-10 33 -21 69 -32 99h173v510h-338v-510zM413 720h-183c-11 17 -23 33 -33 48c36 13 75 28 112 44c42 -24 77 -55 104 -92z
M137 489v73h120v-73h-120zM433 489h-112v73h112v-73zM144 339h113v-77h-113v77zM257 156h-113v61h113v-61zM432 156h-111v61h111v-61zM321 339h111v-77h-111v77zM464 665l40 14c-29 67 -75 120 -132 161c54 25 103 50 140 70l-47 45c-39 -23 -93 -52 -153 -79
c-70 36 -152 60 -240 74c-5 -16 -18 -41 -29 -55c71 -9 140 -25 200 -51c-46 -19 -93 -37 -137 -51c17 -21 36 -47 55 -73h-116v-53h151c13 -21 25 -41 36 -62h-157v-160h182v-58h-170v-119h-53v-57h53v-102h170v-65h64v65h170v102h39v57h-39v119h-170v58h176v160h-198
c-10 20 -22 41 -35 62h188zM652 795l56 37c-45 43 -106 90 -153 121c-8 -13 -27 -32 -40 -45c46 -29 106 -76 137 -113zM770 838l39 -43c53 31 120 78 154 110l-40 48c-32 -33 -99 -83 -153 -115z" />
</svg>
