<?xml version="1.0" standalone="no"?>
<!DOCTYPE svg PUBLIC "-//W3C//DTD SVG 1.1//EN" "http://www.w3.org/Graphics/SVG/1.1/DTD/svg11.dtd" >
<svg xmlns="http://www.w3.org/2000/svg" xmlns:xlink="http://www.w3.org/1999/xlink" version="1.1" viewBox="-10 0 1010 1000">
   <path fill="currentColor"
d="M855 410v-98h-180v98h180zM855 564v-99h-180v99h180zM855 717v-98h-180v98h180zM614 254h95c9 -30 18 -68 25 -99h-157v-64h377v64h-153c-11 33 -21 69 -32 99h149v521h-304v-521zM210 314h-9c-18 67 -57 141 -133 206c-9 -14 -25 -30 -39 -39c66 -52 101 -111 117 -167
h-99c10 -37 18 -86 24 -129l43 4c-4 23 -8 47 -13 70h57c4 -30 5 -57 5 -81v-38h-112v-56h240v56h-72v39c0 23 -1 50 -6 80h76v55h-31v99l72 -35c0 15 3 38 5 50c34 -38 55 -77 69 -115h-99c9 -36 17 -85 23 -127l42 5c-4 23 -8 45 -12 67h59c7 -36 8 -71 8 -97v-21h-117
v-56h247v56h-73v22c0 26 -2 60 -8 96h86v55h-48v100l59 -29c1 15 4 38 6 50c-88 49 -106 62 -116 74c-4 -13 -16 -34 -24 -45c12 -7 27 -23 27 -61v-89h-3c-20 64 -57 132 -126 192c-10 -13 -29 -29 -43 -39c16 -12 30 -25 42 -38c-98 55 -116 69 -127 81
c-4 -13 -16 -34 -24 -45c11 -6 27 -23 27 -61v-89zM444 598h-269v93h269v-93zM175 835h269v-92h-269v92zM111 957v-419h399v415h-66v-59h-269v63h-64zM698 793l56 36c-45 43 -106 91 -154 122c-9 -13 -26 -33 -39 -45c46 -29 105 -77 137 -113zM777 834l39 -42
c52 32 119 79 154 110l-41 48c-32 -32 -99 -82 -152 -116z" />
</svg>
