<?xml version="1.0" standalone="no"?>
<!DOCTYPE svg PUBLIC "-//W3C//DTD SVG 1.1//EN" "http://www.w3.org/Graphics/SVG/1.1/DTD/svg11.dtd" >
<svg xmlns="http://www.w3.org/2000/svg" xmlns:xlink="http://www.w3.org/1999/xlink" version="1.1" viewBox="-10 0 1010 1000">
   <path fill="currentColor"
d="M859 397v-95h-217v95h217zM859 549v-96h-217v96h217zM859 702v-97h-217v97h217zM578 243h104c7 -28 15 -62 20 -90h-152v-65h403v65h-175c-10 30 -20 62 -29 90h175v518h-346v-518zM499 82v283h-390v-52h328v-61h-308v-56h308v-61h-325v-53h387zM368 465v90h114v-90h-114
zM313 604v-188h227v188h-227zM56 631l-8 -53c28 -4 61 -8 97 -14v-96h-84v-52h225v52h-82v87l86 -13l2 51c-84 14 -168 28 -236 38zM296 837l-46 41c-23 -33 -74 -81 -118 -112l44 -38c45 31 97 77 120 109zM553 728h-94v147c0 35 -6 52 -32 63c-24 9 -63 10 -123 10
c-3 -18 -12 -42 -20 -60c46 1 85 1 96 0c12 0 15 -3 15 -14v-146h-346v-58h346v-57h64v57h94v58zM659 767l61 37c-40 55 -104 116 -161 152c-11 -15 -31 -37 -46 -50c57 -33 117 -92 146 -139zM771 807l53 -34c50 40 112 98 144 138l-56 37c-29 -39 -91 -99 -141 -141z" />
</svg>
