<?xml version="1.0" standalone="no"?>
<!DOCTYPE svg PUBLIC "-//W3C//DTD SVG 1.1//EN" "http://www.w3.org/Graphics/SVG/1.1/DTD/svg11.dtd" >
<svg xmlns="http://www.w3.org/2000/svg" xmlns:xlink="http://www.w3.org/1999/xlink" version="1.1" viewBox="-10 0 1010 1000">
   <path fill="currentColor"
d="M861 401v-92h-136v92h136zM861 550v-93h-136v93h136zM861 700v-94h-136v94h136zM671 250h70c10 -30 19 -68 27 -100h-120v-63h296v63h-115c-11 34 -23 70 -34 100h122v509h-246v-509zM626 339l-32 50c-25 -29 -72 -73 -115 -109c-23 51 -59 89 -118 116
c-5 -17 -17 -43 -27 -55c70 -30 103 -77 118 -148h-112v-61h122c2 -26 4 -56 5 -87h49c-1 31 -3 60 -5 87h118v61h-126c-2 12 -5 23 -7 33c45 36 101 83 130 113zM234 178l-52 32c-12 -39 -40 -101 -65 -147l50 -26c25 44 54 104 67 141zM45 278l-1 -66h276v66h-142
c-1 47 -2 93 -3 137h128s-1 25 -1 34c-6 317 -11 422 -31 456c-12 21 -25 29 -45 32c-16 3 -42 3 -67 1c-1 -21 -7 -50 -14 -70c25 3 46 3 57 3c9 0 15 -2 21 -13c11 -21 18 -115 23 -376h-73c-8 201 -29 367 -94 480c-9 -18 -29 -43 -44 -55c78 -132 85 -358 86 -629h-76z
M464 604h-71v123h71v-123zM508 783h-115v56h-42v-291h157v235zM646 478h-42v398c0 39 -8 55 -27 64c-21 11 -51 11 -98 11c-3 -18 -11 -44 -19 -61c34 2 68 1 77 1c11 -1 14 -4 14 -16v-397h-225v-63h320v63zM728 765l46 41c-32 53 -77 116 -111 157c-9 -14 -27 -37 -38 -49
c36 -40 81 -102 103 -149zM814 806l38 -34c35 42 79 102 101 143l-41 39c-20 -40 -62 -103 -98 -148z" />
</svg>
