<?xml version="1.0" standalone="no"?>
<!DOCTYPE svg PUBLIC "-//W3C//DTD SVG 1.1//EN" "http://www.w3.org/Graphics/SVG/1.1/DTD/svg11.dtd" >
<svg xmlns="http://www.w3.org/2000/svg" xmlns:xlink="http://www.w3.org/1999/xlink" version="1.1" viewBox="-10 0 1010 1000">
   <path fill="currentColor"
d="M930 170l-46 31c-16 -33 -56 -85 -90 -122l44 -27c35 35 75 85 92 118zM614 598l94 -64c5 15 14 38 20 49c-142 101 -162 119 -175 135c-4 -16 -16 -44 -25 -57c12 -7 26 -23 26 -63v-383h163c-2 -55 -3 -112 -4 -171h62c0 60 0 117 2 171h169v63h-167
c5 104 13 194 26 265c37 -67 68 -142 89 -220l53 16c-28 106 -71 205 -125 287c16 54 35 83 55 83c16 0 23 -28 27 -107c12 16 33 31 47 38c-10 108 -28 140 -79 140c-40 0 -69 -35 -92 -95c-32 41 -69 75 -107 103c-9 -17 -28 -40 -41 -51c46 -31 89 -73 126 -125
c-19 -86 -32 -201 -39 -334h-105v320zM222 430v162h47v-162h-47zM356 592v-162h-48v162h48zM356 701l45 -14c32 65 62 149 72 204l-48 14c-2 -18 -8 -40 -15 -63c-91 13 -183 26 -256 35l-14 -60c35 -3 77 -7 123 -13v-155h-84v-276h84v-106c-30 3 -61 5 -88 6
c-3 -13 -10 -33 -17 -48c76 -5 168 -16 220 -32l37 49c-30 7 -65 14 -102 20v111h87v276h-87v150l79 -9c-11 -32 -23 -62 -36 -89zM87 86h403c-3 626 23 813 341 811c58 0 72 -20 77 -95c16 13 39 26 54 31c-10 92 -34 124 -130 124c-363 0 -402 -183 -404 -812h-284v294
c0 149 -9 369 -69 520c-9 -13 -33 -37 -45 -44c53 -140 57 -335 57 -475v-354z" />
</svg>
