<?xml version="1.0" standalone="no"?>
<!DOCTYPE svg PUBLIC "-//W3C//DTD SVG 1.1//EN" "http://www.w3.org/Graphics/SVG/1.1/DTD/svg11.dtd" >
<svg xmlns="http://www.w3.org/2000/svg" xmlns:xlink="http://www.w3.org/1999/xlink" version="1.1" viewBox="-10 0 1010 1000">
   <path fill="currentColor"
d="M604 743v-67h169c30 -106 62 -271 78 -389l66 17c-24 119 -56 268 -86 372h120v67h-347zM634 316l57 -13c19 99 38 225 43 311l-59 13c-5 -85 -22 -213 -41 -311zM949 176v66h-348v-66h138c-9 -36 -20 -76 -31 -111l58 -12c13 38 27 85 37 123h146zM254 431v162h54v-162
h-54zM401 593v-162h-51v162h51zM407 705l48 -11c25 68 56 156 68 214l-51 14c-4 -22 -10 -49 -19 -76c-97 14 -195 25 -273 35l-17 -61c39 -4 87 -9 139 -15v-155h-94v-276h94v-102c-32 7 -65 13 -94 16c-3 -12 -11 -33 -20 -47c82 -14 180 -37 234 -63l41 49
c-31 11 -68 23 -107 33v114h92v276h-92v149l80 -9c-10 -30 -19 -59 -29 -85zM101 84h441c-3 633 10 812 298 811c53 -1 65 -24 70 -100c15 13 37 27 51 31c-9 94 -31 126 -121 127c-329 -1 -358 -160 -357 -810h-320v426c0 126 -9 288 -74 394c-9 -12 -33 -35 -47 -42
c56 -97 59 -234 59 -351v-486z" />
</svg>
