<?xml version="1.0" standalone="no"?>
<!DOCTYPE svg PUBLIC "-//W3C//DTD SVG 1.1//EN" "http://www.w3.org/Graphics/SVG/1.1/DTD/svg11.dtd" >
<svg xmlns="http://www.w3.org/2000/svg" xmlns:xlink="http://www.w3.org/1999/xlink" version="1.1" viewBox="-10 0 1010 1000">
   <path fill="currentColor"
d="M928 162l-45 25c-15 -29 -49 -74 -79 -105l44 -23c30 30 65 72 80 103zM225 431v162h51v-162h-51zM363 593v-162h-50v162h50zM357 706l44 -13c34 64 67 149 79 205l-47 16c-4 -20 -10 -44 -18 -68c-92 12 -184 22 -258 31l-14 -59c36 -3 80 -7 127 -12v-156h-86v-276h86
v-101c-29 7 -60 12 -87 16c-2 -14 -10 -34 -17 -49c73 -13 162 -35 212 -60l35 50c-27 11 -59 22 -94 31v113h86v276h-86v151l76 -8c-11 -30 -24 -61 -38 -87zM722 480h-97c-5 98 -22 195 -68 276c50 96 134 134 275 134c57 -1 70 -23 76 -106c16 12 38 24 54 29
c-11 101 -34 136 -130 136c-357 0 -401 -190 -404 -803h-280v288c0 149 -9 372 -66 525c-10 -14 -34 -39 -46 -46c50 -142 54 -337 54 -478v-348h399c-1 274 5 463 39 589c34 -88 40 -195 40 -292v-178h164c-2 -52 -3 -106 -4 -161h59c0 56 0 110 2 161h158v61h-155
c5 96 13 180 24 248c22 -56 41 -118 55 -183l56 12c-22 100 -53 188 -93 265c16 63 36 98 56 98c15 0 22 -33 26 -114c12 15 30 29 44 35c-9 112 -26 147 -75 147c-37 0 -66 -36 -89 -101c-30 46 -63 86 -99 120c-11 -11 -35 -34 -47 -44c49 -40 90 -91 124 -152
c-18 -87 -31 -201 -39 -331h-108v118v37h95v58z" />
</svg>
