<?xml version="1.0" standalone="no"?>
<!DOCTYPE svg PUBLIC "-//W3C//DTD SVG 1.1//EN" "http://www.w3.org/Graphics/SVG/1.1/DTD/svg11.dtd" >
<svg xmlns="http://www.w3.org/2000/svg" xmlns:xlink="http://www.w3.org/1999/xlink" version="1.1" viewBox="-10 0 1010 1000">
   <path fill="currentColor"
d="M817 152v481h-48v-481h48zM921 81v637c0 34 -7 49 -28 59c-21 9 -55 10 -111 10c-2 -15 -10 -38 -17 -54c42 2 79 1 91 1c11 0 15 -4 15 -17v-636h50zM216 429v162h48v-162h-48zM350 591v-162h-48v162h48zM353 700l44 -13c24 65 52 148 65 202l-47 16
c-4 -19 -10 -40 -16 -63c-87 13 -175 26 -246 35l-14 -62c33 -3 74 -8 119 -13v-154h-83v-276h83v-100c-30 7 -61 13 -88 17c-3 -13 -11 -34 -18 -47c77 -15 169 -38 219 -63l38 48c-29 13 -65 23 -102 33v112h85v276h-85v148l74 -10c-9 -29 -19 -60 -28 -86zM606 804v-350
c-21 82 -48 158 -78 205c-9 -13 -27 -30 -41 -41c32 218 115 286 326 285c62 -1 76 -19 81 -91c14 12 36 22 50 27c-9 86 -32 118 -129 118c-370 0 -400 -156 -400 -814h-273v426c0 126 -8 288 -69 394c-8 -12 -29 -34 -42 -42c53 -96 56 -234 56 -351v-486h384
c-2 234 -1 405 16 529c41 -57 80 -166 100 -267h-82v-51h101v-128c-31 7 -63 13 -92 17c-3 -12 -12 -30 -19 -42c74 -14 161 -35 205 -61l49 37c-25 14 -56 25 -89 35v142h70v51h-70v21c23 36 81 141 95 167l-39 42c-10 -25 -34 -75 -56 -119v347h-54z" />
</svg>
