<?xml version="1.0" standalone="no"?>
<!DOCTYPE svg PUBLIC "-//W3C//DTD SVG 1.1//EN" "http://www.w3.org/Graphics/SVG/1.1/DTD/svg11.dtd" >
<svg xmlns="http://www.w3.org/2000/svg" xmlns:xlink="http://www.w3.org/1999/xlink" version="1.1" viewBox="-10 0 1010 1000">
   <path fill="currentColor"
d="M691 194l-56 29c-12 -36 -41 -93 -69 -135l54 -26c28 41 60 96 71 132zM234 440v163h54v-163h-54zM381 603v-163h-51v163h51zM380 719l47 -15c32 64 64 147 76 201l-50 17c-4 -20 -10 -43 -18 -68c-97 17 -195 33 -273 46l-15 -61c37 -5 84 -10 135 -18v-161h-91v-277h91
v-111c-31 6 -63 11 -91 14c-3 -15 -11 -35 -19 -49c81 -13 178 -32 231 -56l41 51c-31 12 -69 22 -108 31v120h89v277h-89v153l79 -12c-11 -28 -22 -57 -35 -82zM624 295v142h205v-142h-205zM754 500h-62c-5 130 -22 219 -95 275c-7 -14 -24 -37 -38 -48
c43 113 123 153 273 152c57 0 70 -22 75 -94c15 12 37 24 51 30c-8 90 -31 122 -126 123c-350 -1 -379 -159 -380 -790h-295v285c0 150 -9 373 -72 525c-9 -13 -34 -39 -46 -46c54 -141 58 -337 58 -479v-347h416c-2 319 1 519 45 638c54 -45 65 -116 69 -224h-64v-268h182
c29 -50 64 -122 83 -173l65 25c-24 50 -53 105 -80 148h79v268h-80v189c0 20 2 24 17 24h43c15 0 18 -12 20 -100c12 11 36 20 52 25c-6 106 -22 133 -65 133h-58c-55 0 -67 -18 -67 -82v-189z" />
</svg>
