<?xml version="1.0" standalone="no"?>
<!DOCTYPE svg PUBLIC "-//W3C//DTD SVG 1.1//EN" "http://www.w3.org/Graphics/SVG/1.1/DTD/svg11.dtd" >
<svg xmlns="http://www.w3.org/2000/svg" xmlns:xlink="http://www.w3.org/1999/xlink" version="1.1" viewBox="-10 0 1010 1000">
   <path fill="currentColor"
d="M956 260v54h-423v-54h175v-68h-147v-54h147v-86h64v86h154v54h-154v68h184zM914 788l-44 40c-26 -26 -66 -61 -109 -98c-46 39 -97 69 -150 90c-8 -14 -25 -38 -37 -50c49 -17 98 -44 140 -79c-30 -24 -59 -48 -85 -69l41 -34c26 20 55 42 84 66c31 -32 56 -69 75 -109
h-156c-31 37 -64 70 -97 95c-10 -12 -33 -33 -47 -43c65 -44 127 -112 161 -184l58 17c-9 20 -21 42 -35 61h144l11 -3l41 17c-23 74 -61 136 -108 186c45 36 86 71 113 97zM954 429l-36 43c-33 -28 -101 -74 -151 -107l36 -36c48 30 117 73 151 100zM660 330l41 36
c-40 41 -99 81 -143 109l-41 -38c44 -28 107 -73 143 -107zM230 429v162h50v-162h-50zM366 591v-162h-48v162h48zM364 700l46 -13c24 65 52 148 65 202l-48 16c-4 -18 -10 -39 -16 -63c-88 14 -177 26 -246 35l-16 -62c35 -3 77 -8 125 -14v-153h-86v-276h86v-100
c-31 7 -63 13 -91 16c-3 -12 -11 -33 -18 -47c77 -14 171 -37 222 -63l38 49c-29 11 -64 23 -101 33v112h85v276h-85v147l69 -9c-9 -29 -19 -60 -29 -86zM98 84h394c-5 651 12 812 353 811c62 -1 76 -21 82 -95c15 11 36 22 51 27c-9 89 -32 123 -132 123
c-381 0 -412 -155 -411 -807h-281v426c0 126 -9 288 -71 394c-8 -12 -29 -35 -42 -43c53 -96 57 -233 57 -350v-486z" />
</svg>
