<?xml version="1.0" standalone="no"?>
<!DOCTYPE svg PUBLIC "-//W3C//DTD SVG 1.1//EN" "http://www.w3.org/Graphics/SVG/1.1/DTD/svg11.dtd" >
<svg xmlns="http://www.w3.org/2000/svg" xmlns:xlink="http://www.w3.org/1999/xlink" version="1.1" viewBox="-10 0 1010 1000">
   <path fill="currentColor"
d="M933 151v56h-391v-56h176c-7 -27 -19 -59 -32 -83l58 -14c17 29 32 69 41 97h148zM958 328v58h-444v-58h120c-8 -29 -22 -67 -36 -97l53 -17c18 33 35 78 42 106l-22 8h113c16 -34 35 -79 43 -110l65 15c-16 33 -32 67 -48 95h114zM636 627v88h209v-88h-209zM636 493v85
h209v-85h-209zM905 768h-327v-328h327v328zM219 430v162h48v-162h-48zM354 592v-162h-49v162h49zM353 702l47 -15c31 65 62 148 72 203l-50 16c-2 -19 -8 -42 -16 -65c-94 12 -185 25 -260 35l-9 -60c36 -3 78 -8 124 -14v-152h-84v-277h84v-99c-30 6 -61 12 -89 15
c-4 -12 -11 -32 -19 -47c78 -13 171 -37 222 -63l38 50c-29 12 -65 23 -102 33v111h86v277h-86v146l77 -9c-11 -30 -22 -59 -35 -85zM88 86h396c-2 625 26 817 349 816c58 -1 73 -17 78 -87c15 11 37 22 52 28c-10 85 -35 114 -129 115c-363 -1 -405 -183 -408 -812h-282
v290c0 150 -9 373 -68 527c-9 -13 -33 -36 -45 -43c53 -142 57 -341 57 -483v-351z" />
</svg>
