<?xml version="1.0" standalone="no"?>
<!DOCTYPE svg PUBLIC "-//W3C//DTD SVG 1.1//EN" "http://www.w3.org/Graphics/SVG/1.1/DTD/svg11.dtd" >
<svg xmlns="http://www.w3.org/2000/svg" xmlns:xlink="http://www.w3.org/1999/xlink" version="1.1" viewBox="-10 0 1010 1000">
   <path fill="currentColor"
d="M357 201v-73h-213v73h213zM357 328v-75h-213v75h213zM414 72v312h-325v-312h325zM173 559h260s0 19 -1 29c-11 214 -21 291 -41 317c-13 18 -27 24 -46 25c-15 2 -40 2 -66 1c-1 -18 -4 -43 -13 -59c25 3 48 3 58 3c9 1 16 -1 22 -10c14 -16 24 -81 34 -248h-29
c-35 132 -99 241 -179 314c-7 -9 -27 -28 -39 -35c78 -65 135 -164 168 -279h-52c-37 100 -99 184 -166 241c-8 -10 -26 -29 -38 -38c65 -49 120 -120 153 -203h-56c-23 37 -49 69 -76 96c-8 -10 -28 -29 -41 -37c51 -43 93 -106 121 -177h-100v-59h410v59h-258
c-7 21 -16 40 -25 60zM603 407v210h52v-210h-52zM751 617v-210h-56v210h56zM739 733l39 -13c24 65 45 147 51 202l-41 14c-2 -22 -7 -49 -13 -76c-85 17 -171 32 -240 46l-19 -60c37 -5 83 -11 133 -19v-160h-87v-310h89v-101c-32 4 -64 7 -93 9c-3 -13 -11 -32 -17 -45
c78 -8 173 -23 223 -42l41 45c-30 11 -66 19 -105 25v109h93v310h-95v152l65 -10c-7 -26 -16 -53 -24 -76zM476 81h407c-3 389 -13 815 31 815c11 0 14 -51 15 -114c11 15 26 32 36 39c-6 99 -17 133 -58 133c-92 0 -77 -335 -79 -810h-302v473c0 119 -10 258 -89 339
c-9 -10 -30 -26 -42 -33c75 -76 81 -195 81 -305v-537z" />
</svg>
