<?xml version="1.0" standalone="no"?>
<!DOCTYPE svg PUBLIC "-//W3C//DTD SVG 1.1//EN" "http://www.w3.org/Graphics/SVG/1.1/DTD/svg11.dtd" >
<svg xmlns="http://www.w3.org/2000/svg" xmlns:xlink="http://www.w3.org/1999/xlink" version="1.1" viewBox="-10 0 1010 1000">
   <path fill="currentColor"
d="M951 267h-359c-28 62 -59 116 -93 162c-13 -13 -41 -35 -57 -45c68 -83 123 -211 155 -340l68 16c-13 48 -28 96 -46 141h332v66zM473 239l-43 54c-38 -41 -110 -105 -174 -153c-56 74 -128 140 -198 186c-5 -16 -23 -52 -33 -69c86 -51 175 -130 224 -219l60 23
c-5 10 -11 18 -17 28c64 46 142 108 181 150zM358 388h-187v77h187v-77zM171 607h187v-86h-187v86zM291 709l52 -24c39 64 82 149 100 200l-55 29c-9 -25 -23 -57 -39 -91c-208 89 -240 104 -258 119l-2 2c-6 -18 -19 -52 -31 -69c18 -9 46 -31 46 -70v-474h140
c-8 -28 -20 -61 -31 -87l57 -19c14 32 31 76 41 106h112v333h-252v170l154 -62c-11 -22 -23 -43 -34 -63zM630 870h219c35 0 44 -17 47 -137c19 11 43 20 63 24c-8 160 -34 186 -112 186h-216c-93 0 -133 -36 -133 -96c0 -47 11 -101 266 -379h-230v-65h301l17 -3l46 23
c-2 5 -5 11 -9 15c-297 315 -318 365 -318 400c0 23 23 32 59 32z" />
</svg>
