<?xml version="1.0" standalone="no"?>
<!DOCTYPE svg PUBLIC "-//W3C//DTD SVG 1.1//EN" "http://www.w3.org/Graphics/SVG/1.1/DTD/svg11.dtd" >
<svg xmlns="http://www.w3.org/2000/svg" xmlns:xlink="http://www.w3.org/1999/xlink" version="1.1" viewBox="-10 0 1010 1000">
   <path fill="currentColor"
d="M546 556h196c-91 -34 -179 -78 -244 -127c-66 51 -149 93 -236 127h213c-8 -21 -21 -42 -34 -60l61 -16c18 22 35 51 44 76zM302 738h398v-49h-398v49zM302 601v47h398v-47h-398zM511 346l51 26l-17 17c96 71 267 130 416 154c-17 16 -36 44 -47 64
c-46 -10 -95 -24 -143 -40v214c20 -18 37 -34 51 -49l55 35c-35 31 -77 63 -115 89c59 18 113 36 153 51l-33 52c-89 -36 -264 -92 -395 -127l33 -45c55 14 119 31 181 50c22 -16 44 -34 66 -53h-465v96l211 -29c-2 16 -3 41 -2 54c-235 37 -266 44 -286 53
c-5 -16 -22 -44 -34 -56c16 -9 38 -31 38 -73v-261c-47 16 -94 31 -142 43c-9 -19 -26 -44 -41 -61c171 -35 354 -107 451 -204h-34v-97c-106 68 -238 118 -361 152c-9 -16 -32 -47 -46 -62c160 -36 327 -100 432 -188h-420v-67h863v67h-345c-16 17 -33 32 -52 48v147h-23z
M560 257l46 -48c114 34 258 96 337 139l-45 54c-77 -46 -221 -109 -338 -145z" />
</svg>
