<?xml version="1.0" standalone="no"?>
<!DOCTYPE svg PUBLIC "-//W3C//DTD SVG 1.1//EN" "http://www.w3.org/Graphics/SVG/1.1/DTD/svg11.dtd" >
<svg xmlns="http://www.w3.org/2000/svg" xmlns:xlink="http://www.w3.org/1999/xlink" version="1.1" viewBox="-10 0 1010 1000">
   <path fill="currentColor"
d="M471 247l-45 50c-36 -41 -107 -103 -169 -153c-51 70 -118 135 -183 180c-5 -15 -22 -50 -34 -66c81 -51 163 -131 209 -218l61 20l-18 33c64 48 140 113 179 154zM357 386h-191v80h191v-80zM166 605h191v-84h-191v84zM275 708l55 -21c36 68 79 158 98 211l-58 27
c-8 -23 -20 -52 -33 -85c-198 81 -225 93 -242 107c-7 -16 -23 -41 -35 -54c14 -11 39 -36 39 -81v-483h143c-8 -28 -21 -61 -32 -87l59 -17c15 31 31 73 41 104h113v333h-257v180l148 -54c-13 -28 -27 -55 -39 -80zM640 751l48 -13c27 59 59 139 73 186l-50 16
c-13 -48 -43 -128 -71 -189zM556 420h150c-6 -79 -9 -166 -12 -255c-46 9 -93 17 -138 24v231zM939 485h-163c19 223 55 381 102 382c15 1 28 -52 34 -143c12 12 38 29 50 34c-18 150 -51 190 -84 191c-96 -1 -144 -191 -167 -464h-155v377l97 -23c0 17 1 43 2 57
c-142 40 -167 50 -182 61c-5 -17 -17 -44 -28 -58c17 -9 44 -29 44 -69v-691c130 -19 278 -49 362 -81l57 53c-44 15 -95 29 -150 41c2 94 6 185 13 268h168v65z" />
</svg>
