<?xml version="1.0" standalone="no"?>
<!DOCTYPE svg PUBLIC "-//W3C//DTD SVG 1.1//EN" "http://www.w3.org/Graphics/SVG/1.1/DTD/svg11.dtd" >
<svg xmlns="http://www.w3.org/2000/svg" xmlns:xlink="http://www.w3.org/1999/xlink" version="1.1" viewBox="-10 0 1010 1000">
   <path fill="currentColor"
d="M333 388h-153v77h153v-77zM180 608h153v-87h-153v87zM290 709l58 -22c34 61 74 144 90 192l-61 28c-6 -21 -15 -46 -27 -73c-207 81 -239 97 -258 110l-1 1c-6 -16 -21 -51 -33 -67c20 -9 51 -31 51 -70v-477h135c-9 -27 -22 -59 -34 -84l62 -18c15 31 34 73 43 102h89
v334h-224v171l146 -53c-12 -26 -24 -51 -36 -74zM245 38l67 21c-6 10 -12 20 -18 31c59 46 130 106 163 145l-51 51c-32 -39 -92 -96 -148 -142c-54 72 -121 137 -189 183c-5 -15 -25 -52 -36 -69c82 -52 166 -134 212 -220zM846 622h-268v224h268v-224zM510 957v-402h405
v398h-69v-41h-268v45h-68zM480 95h455s-1 21 -2 31c-10 214 -21 295 -45 323c-16 19 -34 25 -60 28c-24 2 -66 2 -110 -1c-1 -20 -9 -47 -20 -65c44 4 85 4 100 4c16 0 25 -2 33 -10c14 -17 24 -81 33 -244h-155c-19 147 -64 273 -200 346c-9 -17 -30 -41 -46 -53
c122 -61 160 -170 176 -293h-159v-66z" />
</svg>
