<?xml version="1.0" standalone="no"?>
<!DOCTYPE svg PUBLIC "-//W3C//DTD SVG 1.1//EN" "http://www.w3.org/Graphics/SVG/1.1/DTD/svg11.dtd" >
<svg xmlns="http://www.w3.org/2000/svg" xmlns:xlink="http://www.w3.org/1999/xlink" version="1.1" viewBox="-10 0 1010 1000">
   <path fill="currentColor"
d="M426 237l-47 48c-27 -38 -83 -94 -134 -140c-48 71 -108 136 -168 180c-5 -14 -23 -50 -34 -66c75 -53 149 -134 191 -221l62 21c-6 12 -12 23 -19 34c54 44 118 104 149 144zM328 388h-160v77h160v-77zM168 607h160v-86h-160v86zM302 702l52 -22c36 71 78 165 98 219
l-56 28c-9 -28 -24 -66 -41 -107c-219 96 -247 109 -264 125c-6 -16 -21 -42 -32 -54c17 -11 45 -36 45 -79v-481h121c-9 -27 -20 -58 -31 -84l57 -17c15 31 30 72 40 101h103v334h-226v169l164 -65c-10 -24 -21 -46 -30 -67zM688 464h-125v188h125v-188zM750 715h-187v60
h-63v-374h250v314zM585 205h333s0 29 -1 38c-11 473 -22 625 -57 672c-19 27 -39 36 -70 40c-27 3 -72 2 -117 0c-2 -21 -9 -52 -22 -72c49 4 92 4 113 4c15 0 24 -3 34 -17c26 -32 39 -185 50 -597h-291c-29 64 -63 120 -99 165c-13 -10 -42 -34 -59 -44
c74 -84 131 -215 164 -351l69 16c-13 50 -29 99 -47 146z" />
</svg>
