<?xml version="1.0" standalone="no"?>
<!DOCTYPE svg PUBLIC "-//W3C//DTD SVG 1.1//EN" "http://www.w3.org/Graphics/SVG/1.1/DTD/svg11.dtd" >
<svg xmlns="http://www.w3.org/2000/svg" xmlns:xlink="http://www.w3.org/1999/xlink" version="1.1" viewBox="-10 0 1010 1000">
   <path fill="currentColor"
d="M877 104l69 18c-33 79 -79 170 -115 230c-15 -9 -45 -24 -63 -32c38 -59 81 -144 109 -216zM617 310l-64 32c-24 -56 -75 -144 -117 -210l61 -26c45 65 95 150 120 204zM313 388h-142v77h142v-77zM171 608h142v-87h-142v87zM273 709l56 -20c30 62 65 145 78 193l-59 26
c-5 -21 -13 -46 -23 -72c-178 74 -216 93 -233 105l-5 4c-6 -16 -19 -51 -31 -67c18 -9 47 -31 47 -70v-477h127c-9 -27 -22 -59 -33 -84l59 -18c15 31 32 73 41 102h83v334h-209v170l134 -51c-11 -27 -21 -52 -32 -75zM231 38l62 21c-4 10 -10 21 -16 31
c54 45 117 104 148 143l-48 50c-28 -38 -84 -94 -135 -139c-49 72 -112 137 -175 183c-5 -15 -24 -52 -35 -69c78 -52 155 -134 199 -220zM961 598v71h-230v287h-74v-287h-229v-71h229v-150h-212v-71h212v-334h74v334h203v71h-203v150h230z" />
</svg>
