<?xml version="1.0" standalone="no"?>
<!DOCTYPE svg PUBLIC "-//W3C//DTD SVG 1.1//EN" "http://www.w3.org/Graphics/SVG/1.1/DTD/svg11.dtd" >
<svg xmlns="http://www.w3.org/2000/svg" xmlns:xlink="http://www.w3.org/1999/xlink" version="1.1" viewBox="-10 0 1010 1000">
   <path fill="currentColor"
d="M453 239l-40 54c-36 -42 -105 -105 -167 -153c-53 74 -121 139 -189 185c-5 -16 -21 -52 -31 -68c82 -51 167 -131 214 -219l57 23c-5 9 -11 18 -17 28c62 46 137 108 173 150zM346 388h-181v77h181v-77zM165 607h181v-86h-181v86zM281 705l50 -23c34 59 73 140 90 188
l-53 29c-7 -21 -18 -49 -31 -77c-169 75 -218 99 -239 113l-11 10c-5 -18 -18 -53 -29 -70c17 -9 44 -31 44 -70v-474h134c-8 -28 -19 -61 -30 -87l53 -19c15 33 30 76 40 106h108v333h-242v170l149 -63c-11 -23 -22 -45 -33 -66zM925 514l46 22c-80 242 -282 364 -505 421
c-7 -19 -24 -46 -37 -61c101 -22 199 -61 282 -119c-31 -30 -74 -62 -112 -85l49 -42c39 23 84 55 116 85c47 -44 86 -96 114 -155h-194c-53 56 -119 109 -201 154c-9 -17 -30 -41 -46 -51c140 -71 236 -174 283 -263c-71 47 -150 81 -232 104c-8 -17 -24 -44 -38 -59
c81 -20 162 -52 230 -99c-27 -26 -65 -56 -99 -77l46 -38c36 21 76 51 105 77c44 -36 82 -79 109 -128h-192c-44 47 -97 92 -161 130c-9 -17 -31 -40 -47 -50c118 -65 198 -158 238 -236l73 12c-15 27 -32 55 -52 82h178l14 -3l45 22c-43 113 -120 199 -213 261l70 12
c-16 29 -34 58 -56 87h175z" />
</svg>
