<?xml version="1.0" standalone="no"?>
<!DOCTYPE svg PUBLIC "-//W3C//DTD SVG 1.1//EN" "http://www.w3.org/Graphics/SVG/1.1/DTD/svg11.dtd" >
<svg xmlns="http://www.w3.org/2000/svg" xmlns:xlink="http://www.w3.org/1999/xlink" version="1.1" viewBox="-10 0 1010 1000">
   <path fill="currentColor"
d="M444 233l-51 50c-30 -38 -87 -94 -140 -138c-52 71 -118 136 -184 183c-6 -15 -25 -53 -37 -69c82 -53 163 -135 208 -221l67 21c-6 10 -12 21 -18 32c56 44 123 103 155 142zM326 388h-149v77h149v-77zM177 608h149v-87h-149v87zM283 709l59 -20c31 62 68 145 81 193
l-62 26c-5 -21 -13 -45 -24 -72c-202 81 -230 96 -247 109v-1l-1 1c-6 -16 -20 -51 -32 -67c19 -9 49 -31 49 -70v-477h133c-9 -27 -22 -59 -34 -84l62 -18c15 32 33 73 42 102h88v334h-220v170l139 -51c-10 -26 -22 -52 -33 -75zM954 671v70h-229v217h-72v-217h-223v-70
h223v-153h-180v-69h180v-142h-205v-69h115c-15 -46 -49 -113 -83 -163l59 -28c37 52 75 120 89 166l-47 25h220l-51 -23c29 -47 65 -121 84 -173l75 28c-31 59 -68 125 -99 168h130v69h-215v142h186v69h-186v153h229z" />
</svg>
