<?xml version="1.0" standalone="no"?>
<!DOCTYPE svg PUBLIC "-//W3C//DTD SVG 1.1//EN" "http://www.w3.org/Graphics/SVG/1.1/DTD/svg11.dtd" >
<svg xmlns="http://www.w3.org/2000/svg" xmlns:xlink="http://www.w3.org/1999/xlink" version="1.1" viewBox="-10 0 1010 1000">
   <path fill="currentColor"
d="M445 241l-46 50c-31 -39 -92 -97 -147 -145c-50 70 -115 133 -179 179c-5 -15 -22 -50 -33 -66c79 -51 159 -132 204 -219l60 21c-6 11 -12 22 -19 33c58 46 126 108 160 147zM336 386h-175v80h175v-80zM161 604h175v-83h-175v83zM410 898l-59 27c-7 -22 -18 -49 -31 -79
c-188 75 -215 87 -231 101c-6 -16 -22 -41 -35 -54c15 -12 39 -36 39 -81v-483h142c-8 -28 -21 -61 -32 -87l59 -17c14 32 31 73 41 104h99v332h-241v181l137 -50c-14 -29 -28 -58 -41 -84l54 -21c37 68 80 158 99 211zM551 310v194h296v-194h-296zM818 878h57
c17 0 22 -16 24 -124c14 11 43 23 62 28c-6 129 -24 162 -79 162h-75c-64 0 -80 -22 -80 -94v-279h-67c-17 165 -58 309 -210 389c-9 -18 -30 -44 -45 -55c134 -68 169 -194 183 -334h-107v-327h108c-15 -46 -49 -118 -85 -172l61 -25c36 53 75 123 89 169l-63 28h153
c29 -57 66 -141 84 -202l73 25c-25 58 -56 125 -84 177h103v327h-123v279c0 24 3 28 21 28z" />
</svg>
