<?xml version="1.0" standalone="no"?>
<!DOCTYPE svg PUBLIC "-//W3C//DTD SVG 1.1//EN" "http://www.w3.org/Graphics/SVG/1.1/DTD/svg11.dtd" >
<svg xmlns="http://www.w3.org/2000/svg" xmlns:xlink="http://www.w3.org/1999/xlink" version="1.1" viewBox="-10 0 1010 1000">
   <path fill="currentColor"
d="M728 168v249h104c-1 -77 0 -162 0 -249h-104zM668 830v-348h-114v-65h114v-249h-102v-64h329c-3 338 -6 641 22 654c5 1 11 -42 15 -96c9 17 24 40 34 50c-12 110 -43 131 -77 112c-41 -22 -53 -156 -56 -342h-105v348h-60zM535 278l-51 29c-15 -50 -52 -129 -90 -188
l49 -26c38 57 78 135 92 185zM393 239l-42 48c-25 -39 -77 -96 -123 -143c-45 72 -102 137 -162 183c-4 -15 -19 -49 -29 -65c73 -53 144 -135 183 -225l55 18c-6 13 -12 25 -18 37c50 46 109 107 136 147zM305 388h-138v77h138v-77zM167 608h138v-87h-138v87zM527 401v383
c16 10 32 25 56 42c44 32 98 43 170 43c55 0 151 -5 213 -13c-6 19 -15 52 -16 71c-49 4 -146 7 -199 7c-77 0 -133 -15 -181 -50c-32 -25 -57 -51 -75 -51c-26 0 -66 53 -104 112l-31 -44l-37 15c-5 -21 -13 -48 -22 -77c-167 77 -192 92 -205 107v-2
c-5 -17 -18 -50 -29 -67c15 -9 38 -30 38 -70v-476h110c-9 -26 -20 -57 -30 -81l51 -14c14 29 29 66 38 95h91v334h-198v170l115 -50c-8 -26 -18 -51 -27 -74l52 -18c23 52 47 119 62 168c34 -39 69 -70 99 -81v-316h-85v-63h144z" />
</svg>
