<?xml version="1.0" standalone="no"?>
<!DOCTYPE svg PUBLIC "-//W3C//DTD SVG 1.1//EN" "http://www.w3.org/Graphics/SVG/1.1/DTD/svg11.dtd" >
<svg xmlns="http://www.w3.org/2000/svg" xmlns:xlink="http://www.w3.org/1999/xlink" version="1.1" viewBox="-10 0 1010 1000">
   <path fill="currentColor"
d="M62 349l-9 -58c47 -5 105 -13 170 -21v-85h-156v-55h156v-87h69v87h151v55h-151v76c48 -6 98 -12 147 -18l1 53l-148 21v90c0 34 -8 49 -33 58s-65 10 -126 9c-3 -16 -12 -38 -21 -54c43 1 83 1 95 1c12 -1 16 -4 16 -15v-80zM561 571h169c-86 -31 -169 -72 -233 -116
c-60 45 -135 84 -215 116h214c-15 -22 -38 -46 -62 -65l60 -18c32 21 64 55 77 80zM311 748h393v-50h-393v50zM704 660v-45h-393v45h393zM553 409l-13 12c104 69 277 125 426 149c-15 14 -33 38 -43 56c-48 -10 -98 -24 -148 -39v204h-203c44 14 92 28 137 44
c44 -26 92 -63 122 -89l56 34c-36 27 -78 54 -118 77c52 18 100 37 135 54l-34 48c-88 -43 -256 -105 -387 -143l21 -25h-193v91l237 -29c-3 15 -4 38 -3 51c-271 37 -304 44 -325 54v-1c-6 -15 -20 -43 -33 -57c20 -6 51 -23 51 -56v-256c-52 18 -105 35 -158 48
c-9 -18 -25 -42 -40 -57c144 -29 299 -83 402 -155c-13 -14 -31 -28 -44 -36c91 -47 102 -115 102 -178v-100c121 -15 261 -41 337 -68l57 45c-88 29 -213 52 -327 67v58v11h377v56h-148v193h-69v-193h-165c-6 38 -21 75 -51 109z" />
</svg>
