<?xml version="1.0" standalone="no"?>
<!DOCTYPE svg PUBLIC "-//W3C//DTD SVG 1.1//EN" "http://www.w3.org/Graphics/SVG/1.1/DTD/svg11.dtd" >
<svg xmlns="http://www.w3.org/2000/svg" xmlns:xlink="http://www.w3.org/1999/xlink" version="1.1" viewBox="-10 0 1010 1000">
   <path fill="currentColor"
d="M772 290h-138c-6 55 -21 115 -52 159c-12 -12 -40 -32 -56 -39c42 -59 46 -135 46 -193v-105c110 -11 240 -32 313 -58l39 53c-75 24 -186 42 -286 52v59v15h317v57h-114v211h-69v-211zM303 698v45h407v-45h-407zM557 579h143c-76 -28 -149 -62 -204 -100
c-51 38 -112 72 -177 100h171c-11 -18 -27 -38 -43 -54l54 -15c22 20 44 47 56 69zM303 619v44h407v-44h-407zM152 323h107v-40h-107v40zM152 214v37h107v-37h-107zM431 214h-106v37h106v-37zM431 323v-40h-106v40h106zM775 783h-302c71 15 151 35 227 57
c49 -27 110 -64 146 -91l43 40c-37 24 -81 49 -123 70c56 17 107 35 147 50l-31 47c-102 -43 -300 -102 -453 -137l28 -36h-154v98l197 -26c-3 16 -3 40 -2 52c-235 37 -266 44 -285 53c-3 -17 -16 -47 -26 -62c18 -6 46 -22 46 -59v-226c-53 19 -109 35 -163 48
c-8 -16 -23 -40 -37 -53c154 -32 320 -91 425 -169h-133v64h-66v-64h-202v-44h202v-35h-166v-183h166v-37h-194v-44h194v-54h66v54h192v44h-192v37h166v183h-166v35h157v24c6 -4 12 -9 18 -15l52 28c-5 5 -11 10 -16 15c103 65 282 119 433 140c-14 14 -31 39 -40 56
c-49 -9 -102 -23 -154 -38v178z" />
</svg>
