<?xml version="1.0" standalone="no"?>
<!DOCTYPE svg PUBLIC "-//W3C//DTD SVG 1.1//EN" "http://www.w3.org/Graphics/SVG/1.1/DTD/svg11.dtd" >
<svg xmlns="http://www.w3.org/2000/svg" xmlns:xlink="http://www.w3.org/1999/xlink" version="1.1" viewBox="-10 0 1010 1000">
   <path fill="currentColor"
d="M936 121v59h-473v-59h200c-8 -23 -18 -47 -27 -68l63 -14c12 24 27 57 36 82h201zM956 300v60h-521v-60h141c-6 -27 -20 -68 -32 -99l58 -13c13 31 28 72 35 97l-54 15h165c15 -33 32 -79 41 -110l67 15c-15 33 -31 67 -44 95h144zM419 234l-49 49
c-27 -38 -81 -93 -131 -137c-48 71 -111 135 -173 182c-5 -15 -23 -52 -34 -69c77 -53 153 -134 196 -220l61 20c-4 11 -10 22 -16 32c53 44 115 104 146 143zM308 388h-140v77h140v-77zM168 608h140v-87h-140v87zM402 882l-59 26c-4 -21 -12 -46 -23 -73
c-191 82 -218 97 -234 110v-1l-1 1c-5 -16 -19 -51 -30 -67c18 -9 46 -31 46 -70v-477h126c-9 -27 -22 -59 -33 -84l57 -18c15 31 32 73 41 102h81v334h-205v170l132 -51c-10 -27 -20 -52 -31 -75l55 -20c30 62 64 145 78 193zM548 577v68h298v-68h-298zM548 463v66h298v-66
h-298zM824 893h38c10 0 21 -1 26 -3c6 -2 12 -10 15 -22c2 -14 2 -46 3 -86c14 13 39 26 59 32c-2 39 -5 82 -12 97c-6 16 -17 27 -33 33c-12 5 -36 8 -52 8h-57c-21 0 -47 -5 -61 -18c-16 -11 -22 -28 -22 -81v-158h-84c-13 147 -60 221 -232 265c-6 -17 -24 -44 -38 -58
c153 -33 191 -87 203 -207h-90v-282h423v282h-114v165c0 16 1 25 7 29c5 3 11 4 21 4z" />
</svg>
