<?xml version="1.0" standalone="no"?>
<!DOCTYPE svg PUBLIC "-//W3C//DTD SVG 1.1//EN" "http://www.w3.org/Graphics/SVG/1.1/DTD/svg11.dtd" >
<svg xmlns="http://www.w3.org/2000/svg" xmlns:xlink="http://www.w3.org/1999/xlink" version="1.1" viewBox="-10 0 1010 1000">
   <path fill="currentColor"
d="M417 233l-47 50c-29 -38 -84 -94 -134 -139c-48 73 -110 137 -173 184c-5 -15 -23 -52 -35 -69c78 -53 154 -135 198 -221l60 21c-4 10 -10 20 -16 31c54 44 116 104 147 143zM307 388h-141v77h141v-77zM166 608h141v-87h-141v87zM267 709l54 -21c31 63 65 145 78 193
l-58 27c-4 -21 -12 -46 -23 -74c-158 69 -204 90 -225 103l-9 8v-1l-1 1v-4c-7 -18 -19 -48 -30 -64c18 -9 47 -30 47 -69v-477h125c-9 -27 -21 -59 -32 -84l56 -17c15 31 32 72 42 102h81v333h-206v170l132 -51c-10 -27 -20 -52 -31 -75zM530 576v69h121v-69h-121zM530 461
v67h121v-67h-121zM845 528v-67h-127v67h127zM845 645v-69h-127v69h127zM720 806v69h235v57h-545v-57h237v-69h-193v-56h193v-56h-181v-282h444v282h-190v56h201v56h-201zM809 304h151v60h-548v-60h142c-6 -28 -19 -66 -33 -94l61 -13c16 31 32 75 38 102l-20 5h142
c15 -33 33 -76 43 -107h-347v-60h218c-8 -26 -22 -56 -37 -79l65 -19c21 29 39 69 47 98h205v60h-141l62 14c-16 31 -33 65 -48 93z" />
</svg>
