<?xml version="1.0" standalone="no"?>
<!DOCTYPE svg PUBLIC "-//W3C//DTD SVG 1.1//EN" "http://www.w3.org/Graphics/SVG/1.1/DTD/svg11.dtd" >
<svg xmlns="http://www.w3.org/2000/svg" xmlns:xlink="http://www.w3.org/1999/xlink" version="1.1" viewBox="-10 0 1010 1000">
   <path fill="currentColor"
d="M213 525v-170c-38 67 -88 132 -138 170c-7 -18 -21 -47 -32 -64c49 -37 105 -102 141 -167h-134v-65h163v-83c-46 6 -93 10 -135 13c-2 -16 -12 -40 -19 -56c109 -9 239 -27 310 -52l52 53c-40 14 -89 25 -141 33v92h146v65h-145c35 34 112 120 132 142l-47 50
c-17 -26 -53 -74 -86 -114v153h-67zM332 604h-182v89h182v-89zM150 842h182v-95h-182v95zM87 939v-393h310v389h-65v-34h-182v38h-63zM730 646v91h185v62h-185v158h-67v-158h-188v-62h188v-91h-118v-61h118v-97h67v97h107v61h-107zM945 453h-119c33 64 86 124 142 157
c-16 10 -36 34 -47 50c-65 -44 -126 -126 -163 -207h-122c-46 84 -104 159 -182 215c-10 -14 -32 -38 -46 -50c63 -44 112 -100 150 -165h-113v-62h146c12 -24 23 -50 33 -76h-133v-58h151c7 -23 13 -45 19 -69h-197v-61h210c6 -28 10 -57 14 -84l70 10c-3 24 -8 49 -13 74
h176v61h-189c-6 24 -12 46 -19 69h183v58h-201c-9 26 -19 52 -30 76h280v62z" />
</svg>
