<?xml version="1.0" standalone="no"?>
<!DOCTYPE svg PUBLIC "-//W3C//DTD SVG 1.1//EN" "http://www.w3.org/Graphics/SVG/1.1/DTD/svg11.dtd" >
<svg xmlns="http://www.w3.org/2000/svg" xmlns:xlink="http://www.w3.org/1999/xlink" version="1.1" viewBox="-10 0 1010 1000">
   <path fill="currentColor"
d="M84 898l-45 -18c18 -58 35 -156 42 -222l42 15c-7 66 -21 164 -39 225zM150 672l37 -4c11 58 18 133 17 182l-41 6c2 -50 -3 -125 -13 -184zM148 450v94h94v-94h-94zM242 146h-94v90h94v-90zM242 391v-95h-94v95h94zM302 544h140s0 21 -1 31c-12 237 -24 321 -48 349
c-15 19 -31 26 -55 27c-19 2 -56 2 -91 0c-1 -18 -8 -43 -17 -60c37 4 69 4 84 4c11 0 20 -2 27 -12c11 -12 18 -46 26 -119l-34 14c-9 -36 -32 -90 -55 -131l35 -12c22 38 45 88 54 122c4 -39 7 -89 11 -152h-291v-520h349v61h-134v90h113v60h-113v95h113v59h-113v94z
M293 815l-39 10c-3 -43 -20 -110 -38 -161l37 -8c20 51 35 117 40 159zM954 542v71h-199v344h-69v-344h-218v-71h218v-226h-117c-17 58 -37 111 -60 153c-13 -10 -43 -26 -59 -35c48 -82 80 -212 98 -339l65 12c-6 47 -15 94 -26 138h99v-191h69v191h169v71h-169v226h199z
" />
</svg>
