<?xml version="1.0" standalone="no"?>
<!DOCTYPE svg PUBLIC "-//W3C//DTD SVG 1.1//EN" "http://www.w3.org/Graphics/SVG/1.1/DTD/svg11.dtd" >
<svg xmlns="http://www.w3.org/2000/svg" xmlns:xlink="http://www.w3.org/1999/xlink" version="1.1" viewBox="-10 0 1010 1000">
   <path fill="currentColor"
d="M86 898l-43 -19c16 -58 32 -156 39 -221l41 14c-7 67 -20 166 -37 226zM151 672l37 -4c11 57 16 133 15 182l-40 6c2 -50 -3 -125 -12 -184zM146 450v94h99v-94h-99zM245 148h-99v88h99v-88zM245 391v-95h-99v95h99zM304 544h131s-1 21 -2 30c-11 238 -23 324 -46 353
c-14 18 -29 25 -52 27c-18 2 -53 1 -87 0c-2 -19 -8 -44 -17 -61c36 3 66 4 79 4c12 0 20 -2 27 -11c10 -13 18 -47 24 -121l-31 13c-8 -36 -30 -90 -52 -131l35 -12c19 35 40 82 49 115c4 -37 7 -84 10 -143h-286v-522h339v63h-121v88h100v60h-100v95h100v59h-100v94z
M290 815l-39 9c-3 -43 -18 -110 -34 -161l35 -7c18 49 34 116 38 159zM719 348v89h116v-89h-116zM719 199v87h116v-87h-116zM901 498h-182v79h193v63h-193v86h225v64h-225v165h-69v-165h-200v-64h200v-86h-171v-63h171v-79h-167v-61h167v-89h-202v-62h202v-87h-164v-61h164
v-92h69v92h182v148h60v62h-60v150z" />
</svg>
