<?xml version="1.0" standalone="no"?>
<!DOCTYPE svg PUBLIC "-//W3C//DTD SVG 1.1//EN" "http://www.w3.org/Graphics/SVG/1.1/DTD/svg11.dtd" >
<svg xmlns="http://www.w3.org/2000/svg" xmlns:xlink="http://www.w3.org/1999/xlink" version="1.1" viewBox="-10 0 1010 1000">
   <path fill="currentColor"
d="M823 239v-94h-246v94h246zM823 391v-95h-246v95h246zM895 85v366h-388v-366h388zM87 898l-45 -19c18 -58 34 -156 41 -222l43 15c-7 66 -21 165 -39 226zM148 672l40 -5c11 59 17 134 16 183l-43 6c2 -50 -3 -125 -13 -184zM255 147h-102v89h102v-89zM255 391v-95h-102
v95h102zM255 544v-94h-102v94h102zM89 604v-520h348v63h-121v89h100v60h-100v95h100v59h-100v94h118s-1 19 -2 29c-12 239 -24 324 -48 353c-15 18 -30 25 -55 26c-19 3 -55 2 -92 0c0 -18 -7 -43 -15 -59c35 3 67 4 81 4s22 -2 29 -11c10 -13 19 -47 26 -121l-31 11
c-8 -35 -32 -89 -54 -129l36 -13c20 35 40 78 51 111c3 -37 6 -84 10 -141h-281zM290 814l-41 9c-4 -43 -20 -110 -37 -160l38 -9c19 52 35 117 40 160zM546 851h307v-114h-307v114zM853 583h-307v91h307v-91zM476 518h450v436h-73v-38h-307v42h-70v-440z" />
</svg>
