<?xml version="1.0" standalone="no"?>
<!DOCTYPE svg PUBLIC "-//W3C//DTD SVG 1.1//EN" "http://www.w3.org/Graphics/SVG/1.1/DTD/svg11.dtd" >
<svg xmlns="http://www.w3.org/2000/svg" xmlns:xlink="http://www.w3.org/1999/xlink" version="1.1" viewBox="-10 0 1010 1000">
   <path fill="currentColor"
d="M937 95v206h-432v-206h60v139h127v-190h64v190h118v-139h63zM79 890l-43 -17c20 -57 37 -154 45 -219l40 14c-8 66 -23 164 -42 222zM140 673l37 -4c7 57 13 130 14 180l-39 4c1 -49 -5 -122 -12 -180zM196 662l35 -7c16 51 33 118 40 161l-37 10
c-6 -44 -23 -112 -38 -164zM337 765l-35 14c-10 -36 -33 -91 -52 -133l32 -11c20 42 44 96 55 130zM149 449v94h86v-94h-86zM235 151h-86v92h86v-92zM235 390v-88h-86v88h86zM409 543v29c-8 244 -15 327 -35 355c-13 17 -27 24 -50 26c-17 2 -47 2 -76 0
c-1 -18 -7 -42 -16 -58c30 3 56 3 67 3c12 0 19 -1 24 -11c13 -17 20 -87 26 -281h-259v-518h330v63h-128v92h101v59h-101v88h103v59h-103v94h117zM787 576v108h163v64h-163v209h-62v-209h-167v-64h167v-108h-144v-64h343v64h-137zM958 352v66h-417v126
c0 122 -15 296 -93 414c-11 -12 -38 -31 -52 -38c74 -111 83 -266 83 -377v-191h479z" />
</svg>
