<?xml version="1.0" standalone="no"?>
<!DOCTYPE svg PUBLIC "-//W3C//DTD SVG 1.1//EN" "http://www.w3.org/Graphics/SVG/1.1/DTD/svg11.dtd" >
<svg xmlns="http://www.w3.org/2000/svg" xmlns:xlink="http://www.w3.org/1999/xlink" version="1.1" viewBox="-10 0 1010 1000">
   <path fill="currentColor"
d="M79 890l-42 -16c19 -58 36 -154 43 -220l41 15c-8 65 -23 163 -42 221zM141 673l36 -4c8 57 14 130 15 180l-39 4c0 -49 -5 -122 -12 -180zM200 662l34 -7c16 51 33 118 39 161l-36 10c-7 -44 -23 -112 -37 -164zM347 764l-33 15c-11 -35 -35 -90 -55 -132l32 -12
c21 42 46 96 56 129zM147 449v94h87v-94h-87zM234 151h-87v92h87v-92zM234 390v-88h-87v88h87zM420 543v29c-8 244 -15 327 -35 355c-13 17 -27 24 -50 26c-16 2 -47 2 -76 0c-1 -18 -7 -42 -16 -58c29 3 55 3 67 3c11 0 17 -1 24 -11c13 -17 20 -87 26 -281h-273v-518h328
v63h-123v92h109v59h-109v88h110v59h-110v94h128zM587 552h212c-15 -23 -29 -48 -41 -72h-132c-12 25 -25 50 -39 72zM584 844h213v-90h-213v90zM797 698v-84h-213v84h213zM956 480h-133c39 64 93 121 147 155c-14 12 -34 38 -43 55c-24 -16 -46 -38 -69 -62v325h-61v-46
h-213v50h-59v-320c-19 20 -39 40 -61 58c-9 -14 -32 -44 -45 -58c56 -42 100 -93 136 -157h-109v-64h140c11 -25 20 -50 29 -78h-133v-61h149c7 -24 12 -50 18 -76h-179v-62h188c5 -30 9 -63 13 -96l61 9c-4 30 -8 59 -12 87h207v62h-217c-5 26 -10 52 -16 76h218v61h-234
c-7 28 -16 53 -25 78h303v64z" />
</svg>
