<?xml version="1.0" standalone="no"?>
<!DOCTYPE svg PUBLIC "-//W3C//DTD SVG 1.1//EN" "http://www.w3.org/Graphics/SVG/1.1/DTD/svg11.dtd" >
<svg xmlns="http://www.w3.org/2000/svg" xmlns:xlink="http://www.w3.org/1999/xlink" version="1.1" viewBox="-10 0 1010 1000">
   <path fill="currentColor"
d="M86 898l-46 -19c18 -58 34 -156 41 -221l44 14c-8 66 -22 165 -39 226zM145 672l38 -5c11 59 17 134 16 183l-41 6c2 -50 -3 -125 -13 -184zM247 144h-96v92h96v-92zM247 391v-95h-96v95h96zM247 544v-94h-96v94h96zM308 544l119 1s-1 20 -2 29c-12 239 -24 323 -47 352
c-15 19 -32 25 -56 27c-20 2 -56 2 -92 -1c0 -18 -7 -42 -16 -58c35 3 69 3 82 3s21 -1 29 -11c11 -13 19 -47 26 -123l-35 13c-8 -35 -30 -89 -51 -129l34 -12c22 38 43 86 53 120c4 -39 7 -88 10 -150h-241v-1h-33v-520h330v60h-110v92h90v60h-90v95h90v59h-90v94z
M283 814l-39 9c-4 -43 -19 -109 -37 -159l37 -8c19 50 35 115 39 158zM664 580h-127v107h127v-107zM860 687v-107h-133v107h133zM727 856h133v-110h-133v110zM537 856h127v-110h-127v110zM471 957v-440h458v440h-69v-38h-323v38h-66zM817 393v-108h-236v108h236zM515 226
h370v225h-370v-225zM451 97h493v65h-493v-65z" />
</svg>
