<?xml version="1.0" standalone="no"?>
<!DOCTYPE svg PUBLIC "-//W3C//DTD SVG 1.1//EN" "http://www.w3.org/Graphics/SVG/1.1/DTD/svg11.dtd" >
<svg xmlns="http://www.w3.org/2000/svg" xmlns:xlink="http://www.w3.org/1999/xlink" version="1.1" viewBox="-10 0 1010 1000">
   <path fill="currentColor"
d="M867 56l60 56c-120 32 -303 53 -456 63c-3 -15 -13 -40 -24 -56c147 -12 323 -35 420 -63zM834 341l-56 -27c22 -40 52 -100 77 -156l55 30c-25 52 -51 109 -76 153zM743 305l-61 17c-5 -33 -25 -86 -46 -126l57 -16c23 39 43 90 50 125zM600 316l-59 25
c-10 -33 -36 -83 -63 -121l55 -22c29 36 55 85 67 118zM88 900l-44 -21c16 -59 31 -155 37 -222l42 17c-6 67 -18 166 -35 226zM150 672l38 -5c10 58 15 133 14 182l-41 6c2 -50 -2 -124 -11 -183zM542 615v61h285v-61h-285zM542 506v61h285v-61h-285zM542 398v60h285v-60
h-285zM146 450v94h100v-94h-100zM246 148h-100v88h100v-88zM246 391v-95h-100v95h100zM797 878h80c22 0 26 -10 29 -95c12 11 36 21 54 24c-7 106 -23 132 -77 132h-92c-67 0 -83 -19 -83 -84v-130h-71c-19 115 -69 190 -211 233c-7 -16 -22 -41 -34 -54c-4 10 -8 18 -12 23
c-13 18 -28 25 -50 26c-19 3 -54 2 -89 0c-1 -19 -6 -43 -15 -61c36 4 67 5 81 5c12 0 20 -2 26 -11c9 -13 17 -47 24 -122l-29 13c-7 -35 -26 -89 -45 -130l34 -14c17 32 32 74 42 107c3 -37 6 -81 9 -133h-278v-522h339v63h-129v88h107v60h-107v95h107v59h-107v94h126
s-1 21 -1 30c-10 189 -18 281 -32 326c120 -31 164 -89 179 -175h-91v-376h409v376h-120v130c0 20 3 23 27 23zM288 813l-39 11c-3 -43 -17 -110 -33 -161l37 -8c17 50 31 115 35 158z" />
</svg>
