<?xml version="1.0" standalone="no"?>
<!DOCTYPE svg PUBLIC "-//W3C//DTD SVG 1.1//EN" "http://www.w3.org/Graphics/SVG/1.1/DTD/svg11.dtd" >
<svg xmlns="http://www.w3.org/2000/svg" xmlns:xlink="http://www.w3.org/1999/xlink" version="1.1" viewBox="-10 0 1010 1000">
   <path fill="currentColor"
d="M952 202h-541v-62h244c-6 -26 -15 -60 -25 -87l58 -15c13 31 27 76 31 102h233v62zM655 524v-199c30 -33 69 -87 89 -123l49 20c-27 36 -60 74 -88 103h1v199h-51zM585 223l38 -17c18 23 35 56 43 78l-41 22c-7 -24 -23 -58 -40 -83zM560 333h-48c-10 90 -35 160 -90 204
c-5 -10 -21 -32 -31 -42c46 -35 65 -90 73 -162h-46v-51h190v24c-4 127 -7 176 -21 193c-8 12 -18 18 -36 19c-11 2 -31 2 -50 1c-1 -16 -5 -36 -11 -50c18 2 33 2 41 2c8 1 13 0 17 -7c5 -10 9 -43 12 -131zM78 898l-43 -18c17 -58 32 -156 39 -222l40 15
c-7 66 -20 165 -36 225zM138 672l36 -4c9 58 13 133 11 182l-38 6c3 -50 0 -125 -9 -184zM199 664l34 -8c15 51 27 116 30 160l-37 8c-1 -43 -13 -109 -27 -160zM333 764l-35 13c-6 -35 -23 -89 -42 -130l32 -12c20 40 38 94 45 129zM139 450v94h90v-94h-90zM229 148h-90v88
h90v-88zM229 391v-95h-90v95h90zM285 544h120s0 21 -1 30c-11 238 -22 324 -44 353c-14 18 -29 25 -51 27c-19 2 -51 1 -85 0c-1 -19 -7 -44 -15 -61c33 3 63 4 76 4s20 -2 27 -11c14 -18 25 -91 35 -279h-265v-522h312v63h-109v88h93v60h-93v95h93v59h-93v94zM533 741h297
v-82h-293v10c0 22 -1 47 -4 72zM830 599v-66h63v423h-63v-154h-308c-14 56 -40 113 -88 156c-12 -13 -35 -31 -50 -40c78 -72 90 -175 90 -251v-132h63v64h293zM908 244l42 38c-18 10 -38 20 -60 28c13 72 37 141 75 175c-11 9 -25 25 -33 39c-41 -41 -65 -119 -79 -201
c-17 6 -32 11 -49 16v121l68 -20c1 13 5 31 6 41c-88 33 -106 42 -116 50c-4 -15 -15 -38 -23 -50c10 -6 20 -22 20 -61v-114v-1c53 -15 115 -39 149 -61z" />
</svg>
