<?xml version="1.0" standalone="no"?>
<!DOCTYPE svg PUBLIC "-//W3C//DTD SVG 1.1//EN" "http://www.w3.org/Graphics/SVG/1.1/DTD/svg11.dtd" >
<svg xmlns="http://www.w3.org/2000/svg" xmlns:xlink="http://www.w3.org/1999/xlink" version="1.1" viewBox="-10 0 1010 1000">
   <path fill="currentColor"
d="M656 212v-51h-204v-47h204v-71h67v71h219v47h-219v51h184v46h-418v-46h167zM870 394v15c6 -18 12 -38 18 -59h-455v-48h473l11 -2l41 10c-11 42 -26 90 -39 120l-49 -8v16h-147v48h199v43h-456v-43h191v-48h-144v-44h357zM84 897l-42 -18c16 -58 31 -156 37 -222l39 15
c-6 67 -19 166 -34 225zM141 672l34 -5c11 58 16 134 15 183l-37 5c2 -50 -3 -124 -12 -183zM141 450v93h89v-93h-89zM230 147h-89v89h89v-89zM230 391v-95h-89v95h89zM285 543h122s0 21 -1 31c-11 238 -21 323 -43 352c-13 18 -27 25 -48 28c-19 1 -51 1 -83 -1
c-1 -19 -7 -44 -15 -60c33 3 61 3 73 3s19 -1 26 -11c9 -13 16 -46 23 -120l-29 13c-8 -36 -29 -90 -49 -131l31 -12c20 36 37 82 48 116c3 -38 6 -87 9 -147h-264v-520h314v63h-114v89h94v60h-94v95h94v59h-94v93zM273 814l-35 10c-3 -43 -17 -109 -33 -160l34 -8
c16 50 31 116 34 158zM957 574v48h-530v-48h530zM600 717h-91v107h91v-107zM652 670v201h-143v39h-52v-240h195zM683 777l46 -25c26 30 52 71 64 98l-47 30c-12 -29 -38 -72 -63 -103zM890 624v70h68v49h-68v153c0 30 -5 43 -26 52c-20 9 -52 9 -99 9
c-3 -15 -10 -35 -17 -50h69c9 0 12 -3 12 -11v-153h-160v-49h160v-70h61z" />
</svg>
