<?xml version="1.0" standalone="no"?>
<!DOCTYPE svg PUBLIC "-//W3C//DTD SVG 1.1//EN" "http://www.w3.org/Graphics/SVG/1.1/DTD/svg11.dtd" >
<svg xmlns="http://www.w3.org/2000/svg" xmlns:xlink="http://www.w3.org/1999/xlink" version="1.1" viewBox="-10 0 1010 1000">
   <path fill="currentColor"
d="M500 240v119h-67v-185h231c-10 -30 -33 -78 -52 -115l67 -17c21 35 45 82 56 112l-68 20h258v185h-69v-119h-356zM284 673l6 56l-237 67l-15 -62c64 -13 154 -37 246 -61zM325 511h71s0 22 -1 31c-16 257 -32 352 -61 384c-17 20 -34 27 -62 28c-22 3 -61 2 -102 0
c-1 -19 -8 -46 -18 -63c40 4 77 4 94 4c13 1 23 -1 32 -11c20 -21 35 -103 48 -312h-248c11 -88 25 -236 31 -343l63 4c-6 87 -15 195 -25 278h112c15 -102 29 -251 39 -376h-227v-64h297c-10 138 -28 323 -43 440zM788 509h-161c-18 50 -36 97 -53 138c41 24 84 49 127 75
c42 -56 72 -126 87 -213zM952 893l-46 59c-46 -40 -116 -91 -192 -142c-68 66 -156 113 -270 146c-5 -17 -23 -47 -35 -63c105 -26 185 -65 247 -120c-58 -38 -117 -73 -171 -102c22 -44 45 -101 68 -162h-137v-66h160c19 -58 36 -118 47 -170l71 8c-12 51 -27 107 -45 162
h299v66h-86c-21 102 -54 183 -103 249c76 48 146 96 193 135z" />
</svg>
