<?xml version="1.0" standalone="no"?>
<!DOCTYPE svg PUBLIC "-//W3C//DTD SVG 1.1//EN" "http://www.w3.org/Graphics/SVG/1.1/DTD/svg11.dtd" >
<svg xmlns="http://www.w3.org/2000/svg" xmlns:xlink="http://www.w3.org/1999/xlink" version="1.1" viewBox="-10 0 1010 1000">
   <path fill="currentColor"
d="M912 193l-49 41c-28 -37 -82 -100 -125 -145l47 -36c42 44 98 104 127 140zM408 465v-66h-271v66h271zM194 596h156v-71h-156v71zM194 723h156v-74h-156v74zM186 253v92h66v-92h-66zM356 139h-170v63h111v143h59v-206zM471 475h-56v399c0 36 -6 54 -29 66
c-20 11 -51 11 -99 11c-3 -19 -13 -46 -20 -65c32 2 61 2 71 1c9 0 12 -3 12 -14v-96h-156v184h-64v-480h-54v-136h51v-267h291v267h53v130zM841 498h-191c23 79 56 152 97 214c40 -60 72 -131 94 -214zM876 431l39 19c-27 128 -72 231 -129 314c50 57 110 102 180 130
c-13 15 -32 42 -41 61c-70 -32 -130 -79 -180 -139c-52 61 -113 107 -179 141c-7 -18 -25 -47 -38 -60c66 -32 127 -76 179 -133c-34 -52 -62 -110 -85 -175c-24 146 -66 276 -141 370c-13 -16 -35 -37 -53 -47c113 -134 147 -360 159 -590h-113v-67h115
c2 -72 3 -143 3 -211h62c0 69 -1 139 -3 211h296v67h-299c-2 38 -4 75 -7 112h225z" />
</svg>
