<?xml version="1.0" standalone="no"?>
<!DOCTYPE svg PUBLIC "-//W3C//DTD SVG 1.1//EN" "http://www.w3.org/Graphics/SVG/1.1/DTD/svg11.dtd" >
<svg xmlns="http://www.w3.org/2000/svg" xmlns:xlink="http://www.w3.org/1999/xlink" version="1.1" viewBox="-10 0 1010 1000">
   <path fill="currentColor"
d="M856 109l68 19c-23 81 -50 178 -73 239l-55 -17c21 -63 47 -169 60 -241zM625 347l-60 20c-11 -62 -38 -158 -61 -231l56 -18c25 74 53 167 65 229zM393 465v-66h-272v66h272zM179 596h157v-71h-157v71zM179 723h157v-74h-157v74zM170 253v92h66v-92h-66zM342 139h-172
v63h111v143h61v-206zM455 475h-56v399c0 36 -6 54 -28 66c-20 11 -52 11 -98 11c-3 -19 -13 -46 -21 -65c32 2 63 2 71 1c10 0 13 -3 13 -14v-96h-157v184h-63v-480h-55v-136h50v-267h292v267h52v130zM825 871h54c19 0 22 -18 24 -137c14 13 42 25 60 30
c-5 140 -22 176 -77 176h-70c-61 0 -76 -22 -76 -98v-357h-78c-8 220 -33 384 -171 479c-9 -17 -28 -42 -44 -53c124 -81 142 -229 149 -426h-106v-68h189v-360h65v360h202v68h-141v357c0 25 2 29 20 29z" />
</svg>
