<?xml version="1.0" standalone="no"?>
<!DOCTYPE svg PUBLIC "-//W3C//DTD SVG 1.1//EN" "http://www.w3.org/Graphics/SVG/1.1/DTD/svg11.dtd" >
<svg xmlns="http://www.w3.org/2000/svg" xmlns:xlink="http://www.w3.org/1999/xlink" version="1.1" viewBox="-10 0 1010 1000">
   <path fill="currentColor"
d="M761 395v-212c-37 12 -74 22 -110 31c-3 -14 -12 -37 -20 -51c89 -24 191 -62 247 -98l49 49c-29 17 -65 33 -103 47v234h90v64h-90v250h115v63h-298v-63h120v-250h-95v-64h95zM372 465v-66h-262v66h262zM164 596h153v-71h-153v71zM164 723h153v-74h-153v74zM157 253v92
h64v-92h-64zM324 139h-167v63h106v143h61v-206zM432 475h-55v399c0 36 -5 54 -26 66c-20 11 -50 11 -95 11c-3 -19 -12 -46 -19 -65c31 2 59 2 68 1c9 0 12 -3 12 -14v-96h-153v184h-59v-480h-52v-136h48v-267h281v267h50v130zM819 871h141c-10 17 -19 48 -22 67h-123
c-103 0 -191 -23 -258 -115c-24 56 -55 101 -92 136c-8 -15 -24 -39 -37 -51c38 -34 69 -84 92 -150c-25 -52 -46 -120 -62 -205l47 -18c10 56 23 103 38 143c14 -63 24 -137 30 -220h-121c28 -74 60 -183 87 -279h-92v-63h170c-24 88 -57 198 -84 282h54l11 -1l34 5
c-7 146 -23 263 -50 354c61 95 144 115 237 115z" />
</svg>
