<?xml version="1.0" standalone="no"?>
<!DOCTYPE svg PUBLIC "-//W3C//DTD SVG 1.1//EN" "http://www.w3.org/Graphics/SVG/1.1/DTD/svg11.dtd" >
<svg xmlns="http://www.w3.org/2000/svg" xmlns:xlink="http://www.w3.org/1999/xlink" version="1.1" viewBox="-10 0 1010 1000">
   <path fill="currentColor"
d="M882 501h-88c-64 0 -81 -20 -81 -92v-354h63v171c50 -29 100 -62 131 -93l48 48c-50 40 -117 76 -179 105v123c0 25 4 29 26 29h74c20 0 24 -14 26 -98c14 12 39 23 56 28c-6 104 -23 133 -76 133zM542 436l143 -38c0 17 0 43 2 57c-161 50 -186 60 -200 70
c-6 -15 -23 -45 -32 -58c11 -9 26 -31 26 -73v-337h61v140h143v61h-143v178zM384 465v-66h-268v66h268zM172 596h155v-71h-155v71zM172 723h155v-74h-155v74zM164 253v92h66v-92h-66zM333 139h-169v63h110v143h59v-206zM447 475h-58v399c0 36 -5 54 -27 66
c-20 11 -52 11 -97 11c-4 -19 -12 -46 -21 -65c32 2 62 2 70 1c10 0 13 -3 13 -14v-96h-155v184h-62v-480h-54v-136h49v-267h289v267h53v130zM723 705v149h228v68h-525v-68h231v-149h-198v-67h198v-130h66v130h197v67h-197z" />
</svg>
