<?xml version="1.0" standalone="no"?>
<!DOCTYPE svg PUBLIC "-//W3C//DTD SVG 1.1//EN" "http://www.w3.org/Graphics/SVG/1.1/DTD/svg11.dtd" >
<svg xmlns="http://www.w3.org/2000/svg" xmlns:xlink="http://www.w3.org/1999/xlink" version="1.1" viewBox="-10 0 1010 1000">
   <path fill="currentColor"
d="M650 170l-59 27c-16 -32 -49 -89 -78 -128l56 -23c30 39 64 92 81 124zM375 465v-66h-262v66h262zM165 725h160v-74h-160v74zM325 598v-73h-160v73h160zM153 252v93h79v-93h-79zM333 139h-180v63h127v143h53v-206zM434 475h-47v403c0 33 -6 49 -30 59
c-22 11 -57 11 -113 11c-4 -17 -14 -40 -21 -56c41 1 77 1 87 0c11 0 15 -4 15 -14v-98h-160v177h-63v-476h-47v-136h42v-267h294v267h43v130zM631 614h88v-85h-88v85zM631 391v80h88v-80h-88zM631 260v74h88v-74h-88zM848 391h-69v80h69v-80zM848 614v-85h-69v85h69z
M902 670h-101c40 73 103 146 161 184c-15 12 -36 36 -48 52c-46 -37 -96 -98 -135 -162v214h-60v-288h-88v289h-59v-212c-34 67 -78 127 -123 164c-11 -17 -32 -39 -47 -51c58 -38 114 -113 150 -190h-88v-56h108v-85h-123v-58h123v-80h-104v-57h104v-74h-123v-58h267
c33 -44 71 -110 93 -156l63 26c-29 43 -61 91 -91 130h161v58h-163v74h123v137h53v58h-53v141z" />
</svg>
