<?xml version="1.0" standalone="no"?>
<!DOCTYPE svg PUBLIC "-//W3C//DTD SVG 1.1//EN" "http://www.w3.org/Graphics/SVG/1.1/DTD/svg11.dtd" >
<svg xmlns="http://www.w3.org/2000/svg" xmlns:xlink="http://www.w3.org/1999/xlink" version="1.1" viewBox="-10 0 1010 1000">
   <path fill="currentColor"
d="M383 188v-59h-231v59h231zM383 298v-62h-231v62h231zM445 78v271h-353v-271h353zM134 734l55 19c-23 59 -62 121 -97 162c-11 -9 -33 -29 -46 -39c36 -37 68 -90 88 -142zM160 576v84h202v-84h-202zM424 713h-127v172c0 33 -5 48 -27 57c-20 11 -52 11 -97 11
c-3 -19 -12 -41 -20 -58c33 1 62 1 71 0c9 0 12 -3 12 -12v-170h-136v-190h324v190zM342 752l49 -23c27 47 57 108 70 147l-51 29c-11 -40 -40 -105 -68 -153zM211 368l57 -18c12 18 26 42 36 65h175v59h-430v-59h186c-7 -17 -16 -33 -24 -47zM937 495v381
c0 37 -9 54 -32 64c-25 10 -64 10 -125 10c-3 -18 -12 -42 -20 -59c44 2 88 2 100 1c11 -1 16 -4 16 -17v-318h-321v399h-62v-461h444zM763 764v-100h-101v100h101zM811 616v196h-196v-196h196zM816 386v-87h-212v87h212zM878 246v193h-335v-193h335zM752 132h201v59h-466
v-59h195c-11 -24 -24 -50 -36 -71l58 -18c16 24 36 60 48 89z" />
</svg>
