<?xml version="1.0" standalone="no"?>
<!DOCTYPE svg PUBLIC "-//W3C//DTD SVG 1.1//EN" "http://www.w3.org/Graphics/SVG/1.1/DTD/svg11.dtd" >
<svg xmlns="http://www.w3.org/2000/svg" xmlns:xlink="http://www.w3.org/1999/xlink" version="1.1" viewBox="-10 0 1010 1000">
   <path fill="currentColor"
d="M888 249v-108h-97v108h97zM945 90v210h-208v-210h208zM640 249v-108h-86v108h86zM696 90v210h-196v-210h196zM219 458v37h102v-37h-102zM174 528v-103h193v103h-193zM125 395v163h289v-163h-289zM72 600v-247h397v247h-397zM350 284v-46h-164v46h164zM119 198h302v126
h-302v-126zM467 115v51h-407v-51h182c-4 -21 -10 -42 -16 -61l62 -12c8 23 16 50 22 73h157zM165 673v48h207v-48h-207zM306 764v42h173v50h-173v102h-69v-102h-185v-50h185v-42h-138v-134h341v134h-134zM583 615h98v-81h-98v81zM583 404v77h98v-77h-98zM849 481v-77h-102
v77h102zM849 615v-81h-102v81h102zM955 738v66h-208v154h-66v-154h-193v-66h193v-67h-160v-323h392v323h-166v67h208z" />
</svg>
