<?xml version="1.0" standalone="no"?>
<!DOCTYPE svg PUBLIC "-//W3C//DTD SVG 1.1//EN" "http://www.w3.org/Graphics/SVG/1.1/DTD/svg11.dtd" >
<svg xmlns="http://www.w3.org/2000/svg" xmlns:xlink="http://www.w3.org/1999/xlink" version="1.1" viewBox="-10 0 1010 1000">
   <path fill="currentColor"
d="M886 302l62 26c-75 69 -215 114 -358 138c-7 -15 -23 -37 -38 -50c133 -18 269 -57 334 -114zM857 171l60 26c-74 57 -194 99 -303 125c-10 -16 -27 -36 -41 -50c101 -18 221 -55 284 -101zM824 45l57 30c-75 49 -194 90 -290 113c-10 -13 -27 -34 -43 -46
c92 -20 211 -55 276 -97zM201 427l203 -13c-10 -11 -20 -21 -31 -29l19 -11h-133c-19 19 -38 38 -58 53zM108 488c-4 -11 -14 -34 -21 -47c12 -1 24 -6 36 -15c9 -5 36 -27 58 -52h-124v-48h87v-256h374v48h-306v41h277v42h-277v41h277v42h-277v42h336v48h-110
c30 27 62 59 76 84l-35 19h55v64h295v56h-295v74h-68v-74h-299v-56h299v-57l-2 1c-6 -10 -14 -20 -23 -31c-276 21 -311 25 -333 34zM708 623v99h232v58h-232v175h-72v-175h-282c-16 70 -69 135 -221 178c-8 -14 -29 -39 -44 -52c123 -32 172 -78 190 -126h-212v-58h223v-10
v-86h71v88v8h275v-99h72z" />
</svg>
