<?xml version="1.0" standalone="no"?>
<!DOCTYPE svg PUBLIC "-//W3C//DTD SVG 1.1//EN" "http://www.w3.org/Graphics/SVG/1.1/DTD/svg11.dtd" >
<svg xmlns="http://www.w3.org/2000/svg" xmlns:xlink="http://www.w3.org/1999/xlink" version="1.1" viewBox="-10 0 1010 1000">
   <path fill="currentColor"
d="M761 560v-54h-228v54h228zM761 660v-56h-228v56h228zM241 604v56h222v-56h-222zM241 506v54h222v-54h-222zM833 459v248h-353c50 30 107 72 132 101l-54 38c-25 -30 -83 -76 -132 -108l48 -31h-302v-248h661zM887 267l61 22c-74 72 -214 116 -358 141
c-8 -15 -23 -37 -38 -50c135 -18 269 -56 335 -113zM858 155l59 23c-72 58 -191 99 -298 124c-10 -14 -27 -33 -41 -46c101 -19 219 -56 280 -101zM828 45l58 28c-76 49 -194 89 -293 111c-10 -13 -28 -31 -43 -44c94 -18 214 -53 278 -95zM185 393l221 -14
c-11 -8 -21 -16 -32 -24l22 -12h-146c-21 19 -43 35 -65 50zM520 419l-49 27c-7 -9 -16 -20 -27 -30c-289 19 -323 22 -343 30c-3 -11 -10 -35 -17 -48c13 -2 24 -6 37 -14c9 -5 33 -21 57 -41h-121v-45h87v-232h374v45h-306v37h276v38h-276v39h276v39h-276v34h339v45h-113
c33 24 65 53 82 76zM122 922l-65 -26c45 -39 82 -102 104 -153l65 19c-24 52 -57 118 -104 160zM431 886h203c50 0 59 -11 64 -91c17 9 47 17 69 20c-10 99 -34 122 -127 122h-214c-111 0 -140 -15 -140 -76v-118h74v118c0 21 11 25 71 25zM761 762l62 -26
c48 48 99 113 117 155l-65 29c-18 -42 -67 -109 -114 -158z" />
</svg>
