<?xml version="1.0" standalone="no"?>
<!DOCTYPE svg PUBLIC "-//W3C//DTD SVG 1.1//EN" "http://www.w3.org/Graphics/SVG/1.1/DTD/svg11.dtd" >
<svg xmlns="http://www.w3.org/2000/svg" xmlns:xlink="http://www.w3.org/1999/xlink" version="1.1" viewBox="-10 0 1010 1000">
   <path fill="currentColor"
d="M887 275l55 23c-76 73 -217 120 -359 146c-8 -14 -21 -36 -34 -48c133 -21 269 -62 338 -121zM855 162l52 24c-71 56 -189 98 -295 123c-9 -14 -24 -33 -38 -44c101 -20 219 -57 281 -103zM820 45l51 26c-75 48 -192 87 -287 111c-9 -14 -24 -32 -38 -43
c91 -19 208 -54 274 -94zM197 384l213 -9c-11 -10 -22 -20 -33 -29l16 -9h-138c-19 18 -38 34 -58 47zM522 421l-48 28c-6 -8 -14 -19 -23 -30c-294 15 -330 18 -354 25c-3 -11 -13 -36 -21 -48c13 -1 25 -6 39 -14c9 -5 35 -22 60 -45h-112v-43h85v-227h374v40h-307v36h276
v37h-276v39h276v37h-276v38h341v43h-111c30 27 61 60 77 84zM745 641v-44h-491v44h491zM745 726v-45h-491v45h491zM745 812v-46h-491v46h491zM70 511v-49h861v49h-407c-9 16 -19 30 -28 44h323v299h-181c107 20 213 44 283 65l-28 45c-77 -25 -200 -54 -321 -79l17 -31h-200
l38 20c-84 32 -217 67 -318 86c-4 -12 -20 -40 -30 -52c89 -12 203 -31 279 -54h-177v-299h240c6 -15 13 -30 18 -44h-369z" />
</svg>
