<?xml version="1.0" standalone="no"?>
<!DOCTYPE svg PUBLIC "-//W3C//DTD SVG 1.1//EN" "http://www.w3.org/Graphics/SVG/1.1/DTD/svg11.dtd" >
<svg xmlns="http://www.w3.org/2000/svg" xmlns:xlink="http://www.w3.org/1999/xlink" version="1.1" viewBox="-10 0 1010 1000">
   <path fill="currentColor"
d="M887 234l55 23c-77 63 -218 103 -358 125c-8 -14 -22 -35 -34 -47c131 -15 268 -50 337 -101zM856 138l52 24c-75 50 -198 87 -305 108c-9 -13 -23 -31 -36 -41c102 -18 224 -51 289 -91zM820 44l51 25c-75 43 -192 79 -286 99c-9 -13 -25 -30 -38 -41
c90 -16 207 -47 273 -83zM258 467h205v-35h-205v35zM753 432h-217v35h217v-35zM371 295h-115c-18 15 -37 27 -57 39l196 -11c-9 -9 -18 -18 -28 -26zM942 534v43h-881v-43h402v-32h-275v-105h275v-19l-16 8c-5 -8 -10 -16 -18 -26c-276 18 -310 23 -332 30
c-3 -11 -13 -34 -21 -47c14 0 27 -4 41 -12c8 -5 33 -18 58 -36h-112v-40h85v-191h372v37h-305v29h276v34h-276v28h276v34h-276v29h342v40h-120c24 21 47 45 59 65h40v37h290v105h-290v32h406zM243 785v39h520v-39h-520zM243 713v38h520v-38h-520zM243 644v36h520v-36h-520z
M836 858h-147c97 22 195 47 258 67l-82 34c-63 -23 -173 -52 -285 -77l41 -24h-244l37 12c-75 40 -203 71 -304 90c-12 -12 -40 -34 -57 -45c93 -12 197 -32 265 -57h-145v-249h663v249z" />
</svg>
