<?xml version="1.0" standalone="no"?>
<!DOCTYPE svg PUBLIC "-//W3C//DTD SVG 1.1//EN" "http://www.w3.org/Graphics/SVG/1.1/DTD/svg11.dtd" >
<svg xmlns="http://www.w3.org/2000/svg" xmlns:xlink="http://www.w3.org/1999/xlink" version="1.1" viewBox="-10 0 1010 1000">
   <path fill="currentColor"
d="M362 187h-123c-16 36 -34 73 -56 108h130c17 -30 35 -71 49 -108zM434 459v-101h-90v101h90zM434 620v-101h-90v101h90zM197 459h94v-101h-94v101zM291 519h-94v101h94v-101zM139 683v-324c-10 13 -20 25 -30 37c-11 -13 -35 -33 -50 -42c84 -92 137 -215 163 -310l68 10
c-8 24 -17 49 -26 74h128l12 -4l43 29c-19 47 -43 99 -69 142h115v388h-354zM114 960l-52 -28c28 -53 52 -141 63 -205l50 18c-12 65 -33 157 -61 215zM219 740l50 -6c10 64 16 148 15 203l-52 8c2 -56 -4 -141 -13 -205zM315 737l48 -13c22 58 41 132 48 181l-51 14
c-5 -49 -24 -124 -45 -182zM420 724l46 -20c26 48 52 112 61 153l-48 22c-9 -42 -35 -107 -59 -155zM712 868h114c39 0 45 -44 50 -215c18 15 48 30 69 35c-8 185 -26 250 -114 250h-128c-84 0 -107 -29 -107 -131v-751h75v752c0 51 7 60 41 60z" />
</svg>
