<?xml version="1.0" standalone="no"?>
<!DOCTYPE svg PUBLIC "-//W3C//DTD SVG 1.1//EN" "http://www.w3.org/Graphics/SVG/1.1/DTD/svg11.dtd" >
<svg xmlns="http://www.w3.org/2000/svg" xmlns:xlink="http://www.w3.org/1999/xlink" version="1.1" viewBox="-10 0 1010 1000">
   <path fill="currentColor"
d="M303 188h-106c-14 36 -29 72 -48 107h107c16 -30 33 -70 47 -107zM373 459v-101h-83v101h83zM373 620v-102h-83v102h83zM147 518v102h89v-102h-89zM147 358v101h89v-101h-89zM89 391l-2 3c-12 -13 -33 -32 -49 -40c72 -93 116 -216 137 -310l64 9c-6 24 -14 50 -22 75
h115l13 -4l40 31c-18 46 -42 97 -67 140h114v388h-343v-292zM94 956l-52 -26c22 -55 44 -143 56 -203l50 21c-13 60 -32 152 -54 208zM185 741l50 -7c7 59 12 134 13 184l-52 9c1 -51 -4 -127 -11 -186zM271 737l47 -12c17 53 34 123 41 167l-49 14
c-5 -45 -23 -115 -39 -169zM359 725l45 -19c23 43 46 100 55 136l-47 22c-9 -38 -31 -96 -53 -139zM956 636v69h-212v250h-73v-250h-211v-69h211v-153h-168v-69h168v-138h-194v-70h194v-162h73v162h200v70h-200v138h175v69h-175v153h212z" />
</svg>
