<?xml version="1.0" standalone="no"?>
<!DOCTYPE svg PUBLIC "-//W3C//DTD SVG 1.1//EN" "http://www.w3.org/Graphics/SVG/1.1/DTD/svg11.dtd" >
<svg xmlns="http://www.w3.org/2000/svg" xmlns:xlink="http://www.w3.org/1999/xlink" version="1.1" viewBox="-10 0 1010 1000">
   <path fill="currentColor"
d="M929 205l-56 38c-24 -43 -80 -107 -132 -151l52 -35c52 43 109 103 136 148zM336 188h-118c-16 36 -33 72 -54 107h124c16 -30 34 -70 48 -107zM405 459v-101h-88v101h88zM405 620v-102h-88v102h88zM172 459h92v-101h-92v101zM264 518h-92v102h92v-102zM114 683v-314
c-7 9 -14 17 -21 25c-10 -13 -33 -32 -48 -40c82 -92 133 -215 158 -310l64 9c-7 24 -16 50 -25 75h122l13 -4l40 31c-19 46 -42 97 -67 140h114v388h-350zM102 955l-52 -27c28 -55 54 -141 68 -201l50 21c-17 62 -40 151 -66 207zM212 741l49 -7c7 60 13 134 13 185l-51 8
c0 -51 -4 -127 -11 -186zM311 737l46 -12c17 54 34 123 40 168l-48 13c-6 -45 -22 -115 -38 -169zM411 725l45 -19c22 44 45 99 55 137l-48 21c-9 -38 -31 -96 -52 -139zM867 404l57 33c-35 105 -90 209 -157 298c27 84 60 133 99 136c21 1 36 -53 45 -153
c12 15 43 32 56 39c-21 156 -58 202 -99 201c-67 -3 -117 -61 -155 -158c-52 58 -109 106 -170 141c-14 -17 -36 -39 -56 -51c72 -39 141 -97 200 -167c-25 -91 -43 -205 -56 -334l-139 16l-7 -66l140 -16c-7 -87 -12 -178 -16 -274h71c3 92 8 182 14 265l240 -28l8 65
l-242 29c11 102 25 194 43 270c53 -76 95 -161 124 -246z" />
</svg>
