<?xml version="1.0" standalone="no"?>
<!DOCTYPE svg PUBLIC "-//W3C//DTD SVG 1.1//EN" "http://www.w3.org/Graphics/SVG/1.1/DTD/svg11.dtd" >
<svg xmlns="http://www.w3.org/2000/svg" xmlns:xlink="http://www.w3.org/1999/xlink" version="1.1" viewBox="-10 0 1010 1000">
   <path fill="currentColor"
d="M307 188h-109c-14 36 -29 72 -48 107h109c16 -30 34 -70 48 -107zM374 459v-101h-82v101h82zM374 620v-102h-82v102h82zM157 459h81v-101h-81v101zM238 518h-81v102h81v-102zM99 379l-12 15c-12 -13 -34 -32 -50 -40c74 -93 118 -216 140 -310l64 9c-7 24 -14 50 -22 75
h117l12 -4l41 31c-19 46 -42 97 -67 140h112v388h-335v-304zM362 725l44 -20c23 41 47 95 56 131l-48 22c-9 -36 -30 -92 -52 -133zM94 956l-52 -26c23 -55 45 -143 57 -203l51 21c-14 60 -34 152 -56 208zM187 741l50 -8c8 60 14 135 15 186l-51 9c0 -51 -6 -128 -14 -187z
M275 737l46 -12c20 54 38 122 45 166l-49 16c-6 -45 -25 -116 -42 -170zM935 561h-200c35 154 106 275 226 331c-16 14 -40 42 -51 62c-103 -56 -171 -155 -213 -284c-35 108 -104 209 -239 286c-10 -17 -33 -43 -51 -57c166 -86 224 -214 243 -338h-191v-71h199
c3 -34 3 -68 3 -99v-97h-100c-15 54 -34 103 -56 142c-14 -11 -45 -29 -63 -37c47 -77 73 -195 88 -312l70 11c-5 43 -13 86 -22 127h83v-176h72v176h181v69h-181v97c0 32 -1 65 -3 99h205v71z" />
</svg>
