<?xml version="1.0" standalone="no"?>
<!DOCTYPE svg PUBLIC "-//W3C//DTD SVG 1.1//EN" "http://www.w3.org/Graphics/SVG/1.1/DTD/svg11.dtd" >
<svg xmlns="http://www.w3.org/2000/svg" xmlns:xlink="http://www.w3.org/1999/xlink" version="1.1" viewBox="-10 0 1010 1000">
   <path fill="currentColor"
d="M301 192h-93c-13 34 -27 70 -44 103h94c15 -29 31 -68 43 -103zM370 458v-105h-77v105h77zM370 620v-106h-77v106h77zM171 458h72v-105h-72v105zM243 514h-72v106h72v-106zM115 379l-9 13c-12 -13 -34 -31 -50 -39c69 -94 110 -217 132 -310l63 9c-7 26 -15 53 -24 81
h104l11 -4l42 27c-18 46 -41 97 -64 139h108v384h-313v-300zM104 956l-48 -26c40 -46 57 -128 64 -206l51 12c-8 83 -23 169 -67 220zM202 733l47 -6c10 58 13 133 9 181l-50 7c5 -49 2 -124 -6 -182zM283 732l45 -8c18 49 32 116 35 159l-48 10c-2 -45 -15 -110 -32 -161z
M366 723l42 -14c19 37 37 86 44 117l-45 16c-6 -33 -24 -82 -41 -119zM592 667v195h216v-195h-216zM808 153h-216v189h216v-189zM808 600v-191h-216v191h216zM877 862h80v70h-533v-70h101v-778h352v778z" />
</svg>
