<?xml version="1.0" standalone="no"?>
<!DOCTYPE svg PUBLIC "-//W3C//DTD SVG 1.1//EN" "http://www.w3.org/Graphics/SVG/1.1/DTD/svg11.dtd" >
<svg xmlns="http://www.w3.org/2000/svg" xmlns:xlink="http://www.w3.org/1999/xlink" version="1.1" viewBox="-10 0 1010 1000">
   <path fill="currentColor"
d="M825 270v-124h-241v124h241zM894 82v251h-377v-251h377zM313 188h-109c-14 36 -29 72 -48 107h109c16 -30 34 -70 48 -107zM383 459v-101h-85v101h85zM383 620v-102h-85v102h85zM154 518v102h90v-102h-90zM154 358v101h90v-101h-90zM96 390l-3 4c-12 -13 -34 -32 -49 -40
c73 -93 117 -216 139 -310l64 9c-7 24 -14 50 -22 75h117l13 -4l40 31c-19 46 -42 97 -67 140h115v388h-347v-293zM101 956l-53 -26c23 -55 46 -143 57 -203l51 21c-14 60 -33 152 -55 208zM193 741l49 -7c8 60 14 134 14 185l-52 8c0 -51 -4 -127 -11 -186zM281 737l46 -11
c17 53 35 122 41 167l-49 13c-6 -45 -23 -115 -38 -169zM369 726l45 -19c23 43 46 99 55 136l-48 21c-9 -38 -31 -95 -52 -138zM675 464h-114v143h114v-143zM853 607v-143h-113v143h113zM628 867h206c48 0 56 -19 61 -119c17 12 45 23 64 27c-10 125 -31 159 -121 159h-213
c-102 0 -133 -22 -133 -113v-423h430v309h-69v-35h-292v149c0 38 10 46 67 46z" />
</svg>
