<?xml version="1.0" standalone="no"?>
<!DOCTYPE svg PUBLIC "-//W3C//DTD SVG 1.1//EN" "http://www.w3.org/Graphics/SVG/1.1/DTD/svg11.dtd" >
<svg xmlns="http://www.w3.org/2000/svg" xmlns:xlink="http://www.w3.org/1999/xlink" version="1.1" viewBox="-10 0 1010 1000">
   <path fill="currentColor"
d="M94 955l-49 -25c25 -54 46 -141 57 -206l48 21c-13 64 -31 155 -56 210zM176 743l45 -7c9 57 13 130 11 178l-48 7c3 -47 1 -120 -8 -178zM249 736l42 -12c19 53 33 120 38 164l-46 13c-3 -45 -16 -113 -34 -165zM323 727l39 -18c23 41 45 98 55 134l-42 21
c-9 -37 -30 -95 -52 -137zM326 458v-103h-66v103h66zM326 619v-103h-66v103h66zM145 516v103h67v-103h-67zM212 355h-67v103h67v-103zM274 188h-95c-11 35 -25 72 -41 106h95c14 -30 29 -70 41 -106zM505 45l58 14c-17 79 -39 156 -65 227v679h-58v-546
c-15 30 -33 58 -50 83c-2 -6 -6 -14 -11 -22v200h-286v-299l-9 13c-10 -13 -29 -32 -42 -40c62 -93 100 -216 119 -310l56 9c-6 24 -12 50 -19 75h101l11 -3l37 28c-16 46 -38 98 -58 141h90v107c56 -95 99 -224 126 -356zM849 292h-126c-5 14 -10 27 -15 40
c16 105 39 204 71 291c37 -93 58 -204 70 -331zM958 292h-50c-16 161 -45 296 -97 408c41 88 94 158 160 204c-15 12 -35 37 -44 54c-61 -47 -110 -112 -151 -193c-47 79 -107 142 -188 193c-8 -13 -26 -37 -40 -48c87 -55 151 -125 198 -214c-33 -83 -58 -177 -76 -279
c-13 24 -25 46 -39 65c-5 -8 -15 -20 -26 -32v337h-55v-572h55v188c57 -92 97 -223 122 -357l58 12c-10 58 -25 116 -41 170h214v64z" />
</svg>
