<?xml version="1.0" standalone="no"?>
<!DOCTYPE svg PUBLIC "-//W3C//DTD SVG 1.1//EN" "http://www.w3.org/Graphics/SVG/1.1/DTD/svg11.dtd" >
<svg xmlns="http://www.w3.org/2000/svg" xmlns:xlink="http://www.w3.org/1999/xlink" version="1.1" viewBox="-10 0 1010 1000">
   <path fill="currentColor"
d="M291 188h-101c-13 36 -29 72 -48 107h100c16 -30 35 -70 49 -107zM348 458v-102h-72v102h72zM348 619v-103h-72v103h72zM150 458h73v-102h-73v102zM223 516h-73v103h73v-103zM92 377l-12 15c-11 -12 -33 -31 -48 -38c73 -93 117 -216 140 -310l62 9c-7 24 -14 50 -23 75
h109l11 -3l42 27c-19 48 -43 100 -69 143h103v385h-315v-303zM90 953l-54 -23c31 -53 55 -141 67 -205l52 18c-15 65 -36 155 -65 210zM184 741l49 -7c7 60 13 134 13 186l-51 7c0 -51 -5 -127 -11 -186zM267 737l46 -11c16 55 31 125 36 171l-50 13
c-4 -47 -18 -118 -32 -173zM345 725l46 -17c22 49 42 112 50 155l-49 18c-7 -42 -27 -107 -47 -156zM879 498l55 36c-46 48 -105 101 -155 140c48 63 112 118 176 147c-13 13 -33 39 -43 55c-72 -38 -140 -109 -189 -189v186c0 38 -6 56 -31 68c-24 11 -61 12 -119 12
c-3 -20 -12 -47 -21 -66c42 2 80 2 91 1c13 -1 16 -4 16 -15v-135c-62 48 -126 95 -180 133l-39 -57c55 -35 138 -92 219 -147v-214h-204v-66h359v-88h-309v-59h309v-94h-325v-63h389v304h67v66h-222v130c8 16 16 32 26 47c46 -40 97 -92 130 -132zM458 532l45 -37
c40 38 93 91 120 124l-46 43c-27 -34 -79 -89 -119 -130z" />
</svg>
