<?xml version="1.0" standalone="no"?>
<!DOCTYPE svg PUBLIC "-//W3C//DTD SVG 1.1//EN" "http://www.w3.org/Graphics/SVG/1.1/DTD/svg11.dtd" >
<svg xmlns="http://www.w3.org/2000/svg" xmlns:xlink="http://www.w3.org/1999/xlink" version="1.1" viewBox="-10 0 1010 1000">
   <path fill="currentColor"
d="M291 188h-101c-13 36 -29 72 -48 107h100c16 -30 35 -70 49 -107zM353 458v-102h-77v102h77zM353 619v-103h-77v103h77zM150 458h73v-102h-73v102zM223 516h-73v103h73v-103zM92 377l-12 15c-11 -12 -33 -31 -48 -38c73 -93 117 -216 140 -310l62 9c-7 24 -14 50 -23 75
h109l12 -3l41 27c-19 48 -43 100 -69 143h108v385h-320v-303zM90 953l-54 -23c31 -53 55 -141 67 -205l52 18c-15 65 -36 155 -65 210zM187 741l50 -7c7 60 12 134 13 185l-52 8c1 -51 -4 -127 -11 -186zM275 737l46 -12c18 54 35 123 41 168l-49 13
c-5 -45 -23 -115 -38 -169zM520 657l64 18c-27 70 -69 151 -104 204c-12 -11 -40 -27 -56 -36l6 -10l-23 11c-8 -33 -25 -82 -44 -119l45 -18c16 29 32 66 41 96c27 -44 53 -98 71 -146zM935 606h-215v255c0 37 -6 55 -33 66c-25 11 -64 11 -123 11c-2 -19 -12 -45 -21 -64
c45 1 83 1 95 0c13 0 15 -3 15 -13v-255h-214v-64h496v64zM777 679l60 -25c41 62 91 146 114 196l-62 31c-23 -51 -71 -138 -112 -202zM561 386h245c-43 -42 -80 -92 -107 -144h-41c-27 55 -59 103 -97 144zM940 242h-171c46 71 119 133 194 165c-17 13 -38 40 -49 59
c-34 -18 -68 -43 -99 -71v55h-275v-43c-25 24 -54 46 -85 66c-8 -13 -29 -41 -42 -54c75 -42 133 -101 175 -177h-146v-70h178c13 -37 24 -76 32 -120l63 10c-8 39 -18 76 -28 110h253v70z" />
</svg>
