<?xml version="1.0" standalone="no"?>
<!DOCTYPE svg PUBLIC "-//W3C//DTD SVG 1.1//EN" "http://www.w3.org/Graphics/SVG/1.1/DTD/svg11.dtd" >
<svg xmlns="http://www.w3.org/2000/svg" xmlns:xlink="http://www.w3.org/1999/xlink" version="1.1" viewBox="-10 0 1010 1000">
   <path fill="currentColor"
d="M291 188h-100c-13 35 -29 72 -48 107h99c16 -30 35 -70 49 -107zM353 458v-102h-77v102h77zM353 619v-103h-77v103h77zM150 458h73v-102h-73v102zM223 516h-73v103h73v-103zM92 380l-10 13c-11 -13 -32 -31 -47 -39c71 -93 115 -216 137 -310l62 9c-6 24 -14 50 -22 75
h108l12 -3l41 27c-19 48 -43 100 -69 143h108v385h-320v-300zM87 953l-54 -23c31 -53 55 -141 67 -205l52 18c-15 65 -36 155 -65 210zM184 741l49 -7c8 60 13 134 14 185l-52 8c0 -51 -5 -127 -11 -186zM271 737l47 -12c16 54 34 123 41 168l-49 14
c-7 -45 -24 -116 -39 -170zM360 725l46 -18c21 44 44 100 54 136l-48 21c-10 -37 -32 -96 -52 -139zM799 739l-40 51c-19 -23 -66 -70 -103 -105v221h-61v-247c-37 61 -84 119 -129 153c-6 -18 -20 -46 -31 -62c49 -35 104 -96 141 -157h-132v-57h151v-226h61v226h152v57
h-152v31c29 22 122 95 143 115zM474 369l46 -13c21 44 40 103 46 140l-48 16c-5 -39 -23 -98 -44 -143zM735 344l54 19c-21 52 -45 113 -65 152l-45 -17c19 -42 44 -109 56 -154zM589 187h328s-1 28 -1 37c-5 495 -9 646 -36 690c-17 26 -35 34 -61 38c-26 3 -63 3 -101 0
c-1 -19 -8 -47 -19 -66c39 3 75 3 91 3c14 1 22 -2 30 -17c19 -30 26 -180 31 -618h-300c-25 41 -54 77 -83 108c-11 -13 -38 -36 -53 -46c68 -66 126 -166 159 -273l66 16c-13 44 -31 87 -51 128z" />
</svg>
