<?xml version="1.0" standalone="no"?>
<!DOCTYPE svg PUBLIC "-//W3C//DTD SVG 1.1//EN" "http://www.w3.org/Graphics/SVG/1.1/DTD/svg11.dtd" >
<svg xmlns="http://www.w3.org/2000/svg" xmlns:xlink="http://www.w3.org/1999/xlink" version="1.1" viewBox="-10 0 1010 1000">
   <path fill="currentColor"
d="M290 188h-100c-13 36 -29 72 -48 107h100c16 -30 35 -70 48 -107zM352 458v-102h-77v102h77zM352 619v-103h-77v103h77zM149 458h74v-102h-74v102zM223 516h-74v103h74v-103zM92 377l-12 15c-11 -12 -32 -31 -47 -38c72 -93 116 -216 139 -310l61 9c-6 24 -14 50 -22 75
h109l11 -3l41 27c-19 48 -43 100 -69 143h108v385h-319v-303zM91 953l-54 -23c30 -53 54 -141 67 -205l50 18c-14 65 -35 155 -63 210zM187 741l50 -6c7 59 12 134 13 185l-52 8c1 -51 -4 -128 -11 -187zM274 738l46 -12c17 54 35 122 41 167l-49 14
c-5 -45 -22 -116 -38 -169zM362 726l44 -19c23 43 46 99 55 136l-47 22c-9 -38 -31 -96 -52 -139zM836 646v-107h-124v107h124zM712 370v101h124v-101h-124zM749 198h-147c-22 37 -46 73 -71 105h155c22 -30 45 -69 63 -105zM966 471v68h-66v214h-64v-40h-124v150
c0 44 -8 64 -34 77c-28 11 -71 13 -138 13c-3 -21 -12 -52 -21 -74c51 2 97 2 110 2c15 -1 19 -5 19 -19v-149h-157v-67h157v-107h-204v-68h204v-101h-149v-28c-11 12 -22 24 -32 35c-11 -13 -37 -39 -52 -51c77 -68 149 -174 192 -282l62 20c-10 24 -20 46 -32 69h151
l11 -4l44 36c-22 44 -53 95 -83 138h140v168h66z" />
</svg>
