<?xml version="1.0" standalone="no"?>
<!DOCTYPE svg PUBLIC "-//W3C//DTD SVG 1.1//EN" "http://www.w3.org/Graphics/SVG/1.1/DTD/svg11.dtd" >
<svg xmlns="http://www.w3.org/2000/svg" xmlns:xlink="http://www.w3.org/1999/xlink" version="1.1" viewBox="-10 0 1010 1000">
   <path fill="currentColor"
d="M827 223h-213c-36 68 -76 130 -116 178c-12 -11 -40 -32 -57 -42c72 -79 136 -198 175 -318l66 18c-11 32 -23 66 -37 97h220l11 -3l47 30c-34 79 -94 175 -145 236c-14 -11 -37 -25 -53 -34c36 -43 74 -106 102 -162zM302 188h-107c-14 36 -29 72 -48 107h103
c18 -30 37 -70 52 -107zM359 461v-109h-78v109h78zM359 624v-110h-78v110h78zM153 461h76v-109h-76v109zM229 514h-76v110h76v-110zM97 377l-12 15c-11 -13 -33 -31 -48 -38c73 -93 117 -216 139 -310l62 9c-7 24 -14 50 -23 75h118l12 -3l41 27c-20 48 -46 100 -72 143h104
v385h-321v-303zM95 951l-54 -22c31 -53 55 -141 67 -205l52 18c-15 65 -36 155 -65 209zM186 740l49 -5c8 62 12 142 12 197l-51 5c1 -54 -3 -134 -10 -197zM269 737l47 -9c16 54 33 126 39 172l-50 12c-5 -47 -20 -120 -36 -175zM348 723l44 -16c24 47 46 109 55 148
l-47 19c-8 -41 -30 -103 -52 -151zM728 457h206v495h-66v-43h-323v47h-67v-472c59 -26 125 -62 165 -91l53 50c-45 26 -99 51 -151 72v131h144v62h-144v136h323v-136h-141v-62h141v-126h-140v-63z" />
</svg>
