<?xml version="1.0" standalone="no"?>
<!DOCTYPE svg PUBLIC "-//W3C//DTD SVG 1.1//EN" "http://www.w3.org/Graphics/SVG/1.1/DTD/svg11.dtd" >
<svg xmlns="http://www.w3.org/2000/svg" xmlns:xlink="http://www.w3.org/1999/xlink" version="1.1" viewBox="-10 0 1010 1000">
   <path fill="currentColor"
d="M821 181l-64 30c-13 -38 -43 -98 -67 -142l62 -25c25 44 55 101 69 137zM291 188h-101c-13 36 -29 72 -48 107h100c16 -30 35 -70 49 -107zM353 458v-102h-77v102h77zM353 619v-103h-77v103h77zM150 458h73v-102h-73v102zM223 516h-73v103h73v-103zM92 377l-12 15
c-11 -12 -33 -31 -48 -38c73 -93 117 -216 140 -310l62 9c-7 24 -14 50 -23 75h109l12 -3l41 27c-19 48 -43 100 -69 143h108v385h-320v-303zM90 953l-54 -23c31 -53 55 -141 67 -205l52 18c-15 65 -36 155 -65 210zM187 741l50 -7c7 59 12 134 13 185l-52 8
c1 -51 -4 -128 -11 -186zM275 737l46 -12c18 54 35 123 41 168l-49 14c-5 -46 -23 -116 -38 -170zM363 725l45 -19c23 43 46 99 55 137l-48 21c-9 -38 -31 -96 -52 -139zM589 680v136h141v-136h-141zM730 417v-128h-141v128h141zM730 612v-127h-141v127h141zM958 816v69
h-369v71h-66v-575c-17 30 -35 59 -54 83c-6 -15 -26 -52 -39 -69c66 -86 121 -218 154 -348l64 16c-15 54 -33 108 -52 160h343v66h-143v128h126v68h-126v127h126v68h-126v136h162z" />
</svg>
