<?xml version="1.0" standalone="no"?>
<!DOCTYPE svg PUBLIC "-//W3C//DTD SVG 1.1//EN" "http://www.w3.org/Graphics/SVG/1.1/DTD/svg11.dtd" >
<svg xmlns="http://www.w3.org/2000/svg" xmlns:xlink="http://www.w3.org/1999/xlink" version="1.1" viewBox="-10 0 1010 1000">
   <path fill="currentColor"
d="M259 190h-91c-11 35 -24 71 -40 105h91c14 -29 29 -69 40 -105zM303 458v-103h-60v103h60zM303 618v-103h-60v103h60zM137 458h60v-103h-60v103zM197 515h-60v103h60v-103zM87 377l-11 17c-10 -13 -27 -32 -41 -40c61 -93 98 -216 118 -310l52 9c-6 25 -12 53 -20 80h98
l10 -4l35 28c-15 46 -35 96 -55 138h81v384h-267v-302zM85 952l-46 -25c24 -54 45 -140 56 -204l45 20c-13 64 -30 154 -55 209zM162 739l42 -7c9 56 13 130 11 177l-45 7c3 -47 0 -120 -8 -177zM225 730l39 -11c17 52 32 119 37 163l-43 12c-3 -44 -17 -112 -33 -164z
M284 722l37 -16c21 40 42 95 51 130l-40 20c-7 -36 -28 -92 -48 -134zM588 49v115h128v59h-128v93h108v216c0 25 -4 37 -19 46s-36 10 -63 10c-3 -15 -10 -34 -17 -48c18 1 32 1 39 0c5 0 7 -2 7 -8v-160h-55v238c28 36 90 122 106 145l-34 43c-14 -26 -44 -75 -72 -115v273
h-55v-289c-33 78 -74 152 -117 197c-7 -16 -21 -39 -30 -52c57 -60 115 -170 147 -271v-169h-60v221h-55v-277h115v-93h-138v-59h138v-115h55zM807 145v567h-54v-567h54zM864 63h55v821c0 35 -8 52 -27 62c-21 11 -53 13 -105 13c-3 -17 -10 -42 -18 -59c37 1 69 0 80 0
c10 0 15 -3 15 -15v-822z" />
</svg>
