<?xml version="1.0" standalone="no"?>
<!DOCTYPE svg PUBLIC "-//W3C//DTD SVG 1.1//EN" "http://www.w3.org/Graphics/SVG/1.1/DTD/svg11.dtd" >
<svg xmlns="http://www.w3.org/2000/svg" xmlns:xlink="http://www.w3.org/1999/xlink" version="1.1" viewBox="-10 0 1010 1000">
   <path fill="currentColor"
d="M293 188h-101c-13 36 -29 72 -48 107h100c16 -30 35 -70 49 -107zM355 458v-102h-77v102h77zM355 619v-103h-77v103h77zM152 458h73v-102h-73v102zM225 516h-73v103h73v-103zM93 378l-11 14c-11 -12 -33 -31 -48 -38c73 -93 117 -216 140 -310l62 9c-7 24 -14 50 -23 75
h109l12 -3l41 27c-19 48 -43 100 -69 143h108v385h-321v-302zM92 953l-54 -23c30 -53 55 -141 67 -205l52 18c-15 65 -36 155 -65 210zM189 741l50 -7c8 60 13 135 13 186l-52 7c1 -51 -4 -127 -11 -186zM276 737l47 -12c18 54 35 123 41 168l-49 14
c-6 -45 -23 -116 -39 -170zM365 725l45 -18c22 43 45 99 54 136l-47 22c-9 -39 -31 -97 -52 -140zM586 739h248v-73h-248v73zM834 539h-248v72h248v-72zM906 480v402c0 34 -7 52 -32 63c-24 11 -62 12 -115 12c-3 -20 -13 -45 -23 -63c38 1 73 1 83 0c11 0 15 -3 15 -13v-84
h-248v161h-71v-478h391zM742 279v90c20 2 41 3 64 3c19 0 128 0 158 -1c-9 15 -18 43 -20 60h-142c-108 0 -183 -19 -234 -91c-20 54 -48 101 -90 136c-10 -14 -29 -34 -44 -44c71 -60 96 -170 104 -263h65c-3 32 -8 65 -15 98c21 44 50 71 87 86v-212h-183v-59h400l12 -3
l48 14c-15 43 -32 92 -50 125l-58 -17c7 -17 15 -38 23 -60h-125v83h156v55h-156z" />
</svg>
