<?xml version="1.0" standalone="no"?>
<!DOCTYPE svg PUBLIC "-//W3C//DTD SVG 1.1//EN" "http://www.w3.org/Graphics/SVG/1.1/DTD/svg11.dtd" >
<svg xmlns="http://www.w3.org/2000/svg" xmlns:xlink="http://www.w3.org/1999/xlink" version="1.1" viewBox="-10 0 1010 1000">
   <path fill="currentColor"
d="M266 192h-91c-11 34 -24 70 -40 103h92c14 -28 28 -68 39 -103zM306 458v-103h-54v103h54zM306 618v-103h-54v103h54zM144 458h62v-103h-62v103zM206 515h-62v103h62v-103zM94 377l-11 17c-10 -13 -28 -32 -41 -40c62 -93 98 -216 118 -310l53 9c-6 25 -13 53 -21 80h99
l10 -4l34 28c-14 46 -34 96 -55 138h77v384h-263v-302zM93 952l-46 -25c23 -54 45 -140 55 -204l45 20c-11 64 -29 154 -54 209zM172 739l44 -6c9 55 13 128 10 176l-46 7c4 -47 1 -120 -8 -177zM241 731l41 -11c17 52 32 119 36 163l-43 13c-4 -45 -18 -112 -34 -165z
M309 723l38 -19c22 43 45 100 53 136l-39 22c-9 -38 -30 -96 -52 -139zM409 236l40 5c1 75 -10 186 -32 255l-42 -15c20 -64 32 -170 34 -245zM468 43h60v912h-60v-912zM618 399l-42 19c-5 -50 -24 -134 -48 -197l39 -14c26 64 46 144 51 192zM860 865h100v64h-405v-64h244
c21 -131 45 -333 61 -498h-153c-21 125 -45 252 -64 339l-59 -7c30 -133 71 -361 96 -531h-99v-63h366v63h-207c-7 44 -15 91 -23 139h208c-17 177 -44 414 -65 558zM677 651l29 -43c35 25 78 65 98 93l-31 48c-20 -29 -61 -71 -96 -98zM828 518l-29 49
c-17 -26 -56 -60 -87 -84l27 -44c31 23 70 55 89 79z" />
</svg>
