<?xml version="1.0" standalone="no"?>
<!DOCTYPE svg PUBLIC "-//W3C//DTD SVG 1.1//EN" "http://www.w3.org/Graphics/SVG/1.1/DTD/svg11.dtd" >
<svg xmlns="http://www.w3.org/2000/svg" xmlns:xlink="http://www.w3.org/1999/xlink" version="1.1" viewBox="-10 0 1010 1000">
   <path fill="currentColor"
d="M289 188h-100c-13 36 -29 72 -48 107h100c16 -30 34 -70 48 -107zM350 458v-102h-77v102h77zM350 619v-103h-77v103h77zM149 458h73v-102h-73v102zM222 516h-73v103h73v-103zM91 377l-12 15c-11 -12 -32 -31 -47 -38c73 -93 117 -216 139 -310l61 9c-6 24 -14 50 -22 75
h108l12 -3l40 27c-19 48 -43 100 -68 143h107v385h-318v-303zM89 953l-53 -23c30 -53 55 -141 67 -205l51 18c-15 65 -36 155 -65 210zM186 741l49 -7c8 60 13 135 13 186l-51 8c1 -51 -4 -128 -11 -187zM273 737l46 -12c17 54 34 123 41 168l-49 14
c-6 -45 -23 -116 -38 -170zM360 725l45 -18c23 43 46 99 54 136l-47 22c-8 -38 -30 -96 -52 -140zM890 533v257c0 33 -5 51 -28 63c-22 11 -57 12 -107 12c-2 -20 -11 -45 -20 -64c38 1 68 1 78 1s13 -4 13 -13v-192h-111v359h-67v-359h-109v263h-63v-327h172v-104h67v104
h175zM803 339h134v159h-65v-101h-373v102h-63v-160h120c-6 -34 -22 -86 -38 -125l56 -14c19 40 37 94 43 126l-44 13h167c17 -42 36 -99 47 -140h-340v-64h203c-8 -25 -18 -49 -28 -72l60 -20c15 28 29 63 37 92h206v64h-134l62 18c-16 40 -34 85 -50 122z" />
</svg>
