<?xml version="1.0" standalone="no"?>
<!DOCTYPE svg PUBLIC "-//W3C//DTD SVG 1.1//EN" "http://www.w3.org/Graphics/SVG/1.1/DTD/svg11.dtd" >
<svg xmlns="http://www.w3.org/2000/svg" xmlns:xlink="http://www.w3.org/1999/xlink" version="1.1" viewBox="-10 0 1010 1000">
   <path fill="currentColor"
d="M280 188h-96c-11 35 -25 72 -41 106h95c15 -30 30 -70 42 -106zM333 458v-103h-69v103h69zM333 619v-103h-69v103h69zM152 458h64v-103h-64v103zM216 516h-64v103h64v-103zM98 379l-10 15c-10 -13 -29 -32 -43 -40c63 -93 102 -216 121 -310l56 9c-5 24 -12 50 -19 75
h102l11 -3l37 28c-17 46 -37 98 -59 141h94v386h-290v-301zM98 955l-49 -25c25 -54 46 -141 57 -206l49 21c-13 64 -31 155 -57 210zM181 743l46 -7c9 57 13 129 11 177l-48 7c2 -47 0 -119 -9 -177zM255 735l44 -12c17 53 33 120 37 165l-46 12c-3 -45 -17 -112 -35 -165z
M519 160v138c0 173 -11 446 -87 635c-11 -12 -39 -32 -54 -38c10 -23 18 -49 26 -75l-38 18c-5 -31 -21 -76 -36 -112l40 -16c15 31 29 70 37 99c45 -167 50 -369 50 -511v-204h496v66h-434zM610 532h100v-93h-100v93zM610 294v91h100v-91h-100zM871 385v-91h-102v91h102z
M871 532v-93h-102v93h102zM769 862h186v64h-453v-64h208v-115h-157v-64h157v-96h-156v-349h374v349h-159v96h160v64h-160v115z" />
</svg>
