<?xml version="1.0" standalone="no"?>
<!DOCTYPE svg PUBLIC "-//W3C//DTD SVG 1.1//EN" "http://www.w3.org/Graphics/SVG/1.1/DTD/svg11.dtd" >
<svg xmlns="http://www.w3.org/2000/svg" xmlns:xlink="http://www.w3.org/1999/xlink" version="1.1" viewBox="-10 0 1010 1000">
   <path fill="currentColor"
d="M938 100v62h-367v-62h367zM671 530v150h179v-150h-179zM671 329v147h179v-147h-179zM911 737h-299v-464h299v464zM269 188h-92c-11 35 -24 72 -40 106h92c14 -30 29 -70 40 -106zM307 458v-103h-62v103h62zM307 619v-103h-62v103h62zM144 458h56v-103h-56v103zM200 516
h-56v103h56v-103zM94 379l-10 15c-9 -13 -27 -32 -39 -40c60 -93 97 -216 116 -310l52 9c-5 24 -11 50 -18 75h98l11 -3l33 28c-15 46 -35 98 -56 141h77v386h-264v-301zM94 955l-46 -25c24 -54 45 -141 56 -206l44 21c-12 64 -29 155 -54 210zM174 744l43 -7
c9 57 13 129 11 177l-45 7c2 -47 -1 -120 -9 -177zM246 736l40 -13c18 53 35 120 40 165l-43 13c-4 -45 -20 -112 -37 -165zM319 727l36 -20c24 41 48 98 59 135l-39 23c-10 -38 -33 -96 -56 -138zM411 500l-47 -26c22 -57 32 -153 33 -231l48 6c0 81 -11 186 -34 251z
M605 417l-47 23c-6 -43 -23 -114 -43 -173v689h-56v-913h56v208l39 -16c24 58 45 136 51 182zM556 855h404v61h-404v-61z" />
</svg>
