<?xml version="1.0" standalone="no"?>
<!DOCTYPE svg PUBLIC "-//W3C//DTD SVG 1.1//EN" "http://www.w3.org/Graphics/SVG/1.1/DTD/svg11.dtd" >
<svg xmlns="http://www.w3.org/2000/svg" xmlns:xlink="http://www.w3.org/1999/xlink" version="1.1" viewBox="-10 0 1010 1000">
   <path fill="currentColor"
d="M268 188h-86c-12 35 -26 72 -43 107h87c14 -30 30 -70 42 -107zM322 458v-102h-65v102h65zM322 619v-103h-65v103h65zM143 458h70v-102h-70v102zM213 516h-70v103h70v-103zM92 381l-9 12c-9 -12 -28 -31 -42 -39c65 -94 101 -217 121 -310l58 8c-5 24 -12 50 -19 76h93
l12 -3l39 25c-17 48 -40 101 -63 145h94v385h-284v-299zM89 950l-47 -20c25 -54 48 -143 58 -205l45 16c-12 63 -31 154 -56 209zM173 741l46 -6c7 59 12 135 13 185l-48 8c1 -51 -4 -128 -11 -187zM244 737l43 -10c17 54 33 122 40 167l-45 13c-7 -46 -23 -116 -38 -170z
M607 229h-124v100h124v-100zM483 503h124v-115h-124v115zM549 636l47 -17c39 82 79 191 94 254l-50 21c-5 -21 -13 -48 -23 -77c-151 71 -175 86 -191 101c-5 -15 -21 -40 -31 -51c4 -4 9 -10 13 -19l-37 17c-10 -37 -32 -96 -52 -139l41 -17c20 42 42 94 52 131
c5 -12 9 -28 9 -50v-621h109c-9 -30 -25 -74 -42 -107l54 -19c18 35 38 81 47 109l-40 17h116v394h-182v247l115 -50c-16 -42 -32 -86 -49 -124zM908 106l44 25c-24 87 -52 190 -84 296c59 101 88 178 88 246c0 56 -12 110 -37 131c-13 10 -31 16 -49 18c-19 2 -44 2 -67 1
c-1 -16 -8 -40 -17 -58c23 3 47 3 61 2c12 -1 23 -3 30 -9c15 -13 21 -52 20 -87c0 -63 -25 -134 -86 -236c26 -94 49 -185 66 -262h-103v781h-61v-844h186z" />
</svg>
