<?xml version="1.0" standalone="no"?>
<!DOCTYPE svg PUBLIC "-//W3C//DTD SVG 1.1//EN" "http://www.w3.org/Graphics/SVG/1.1/DTD/svg11.dtd" >
<svg xmlns="http://www.w3.org/2000/svg" xmlns:xlink="http://www.w3.org/1999/xlink" version="1.1" viewBox="-10 0 1010 1000">
   <path fill="currentColor"
d="M250 192h-84c-11 34 -24 70 -40 103h85c14 -28 28 -68 39 -103zM302 458v-103h-63v103h63zM302 618v-103h-63v103h63zM134 458h59v-103h-59v103zM193 515h-59v103h59v-103zM83 379l-10 15c-10 -13 -28 -32 -41 -40c62 -93 99 -216 118 -310l54 9c-6 25 -12 53 -20 80h91
l11 -4l36 28c-16 46 -37 96 -56 138h88v384h-271v-300zM80 941l-48 -24c26 -53 46 -139 57 -202l46 20c-13 64 -30 152 -55 206zM159 731l44 -7c9 57 12 130 10 177l-47 7c4 -48 1 -120 -7 -177zM232 723l41 -11c16 51 30 117 34 160l-44 12c-3 -43 -16 -110 -31 -161z
M634 156h-173v120h173v-120zM461 340v109c0 148 -8 356 -68 495c-11 -11 -37 -28 -53 -35c11 -23 19 -49 27 -76l-23 10c-6 -35 -22 -89 -38 -129l38 -15c13 27 25 61 33 91c23 -113 25 -240 25 -341v-357h293v248h-234zM688 467h-192v-61h192v61zM502 667l48 14
c-16 65 -43 135 -74 181c-8 -9 -29 -22 -42 -29c31 -44 54 -105 68 -166zM713 613h-85v268c0 32 -4 48 -24 58c-18 10 -46 11 -88 11c-3 -18 -10 -42 -17 -59c29 1 55 1 63 0c8 0 11 -3 11 -11v-267h-104v-62h244v62zM640 682l45 -17c29 51 59 119 70 161l-48 20
c-10 -43 -38 -113 -67 -164zM836 629l-53 22c-10 -49 -37 -128 -66 -189l51 -19c30 59 58 138 68 186zM965 272v69h-63v519c0 42 -9 62 -30 74c-23 13 -57 15 -112 15c-3 -20 -13 -51 -22 -71c39 1 76 1 86 1c12 -1 17 -5 17 -18v-520h-128v-69h128v-220h61v220h63z" />
</svg>
