<?xml version="1.0" standalone="no"?>
<!DOCTYPE svg PUBLIC "-//W3C//DTD SVG 1.1//EN" "http://www.w3.org/Graphics/SVG/1.1/DTD/svg11.dtd" >
<svg xmlns="http://www.w3.org/2000/svg" xmlns:xlink="http://www.w3.org/1999/xlink" version="1.1" viewBox="-10 0 1010 1000">
   <path fill="currentColor"
d="M910 108l47 22c-21 40 -44 83 -62 112l-38 -19c17 -31 41 -82 53 -115zM961 374l-38 42c-23 -31 -66 -77 -107 -116c-22 49 -54 86 -104 116c-7 -13 -21 -33 -33 -41c102 -58 120 -160 124 -330h53c-3 79 -8 145 -23 201c47 39 101 93 128 128zM718 263l-39 -27
c25 -25 38 -73 43 -119l43 13c-7 50 -18 101 -47 133zM636 231l-36 -16c17 -29 37 -77 48 -108l47 20c-20 37 -41 78 -59 104zM468 116l42 13c-7 49 -19 100 -46 132l-38 -26c24 -26 37 -74 42 -119zM681 340l-36 42c-18 -22 -52 -56 -83 -85c-22 51 -55 91 -106 121
c-7 -13 -23 -32 -33 -40c103 -59 120 -164 125 -333h53c-3 78 -8 144 -23 200c38 30 81 70 103 95zM276 188h-91c-12 36 -27 72 -44 107h90c15 -30 32 -70 45 -107zM331 458v-102h-70v102h70zM331 619v-103h-70v103h70zM148 458h67v-102h-67v102zM215 516h-67v103h67v-103z
M96 378l-10 14c-10 -12 -28 -31 -43 -38c66 -93 106 -216 126 -310l56 9c-6 24 -13 50 -21 75h97l11 -3l37 27c-17 48 -40 100 -62 143h97v385h-288v-302zM94 953l-47 -23c26 -53 49 -141 60 -205l46 18c-13 65 -32 155 -59 210zM182 742l44 -7c7 60 12 134 12 185l-45 8
c0 -51 -4 -128 -11 -186zM261 738l41 -12c15 53 31 120 36 164l-44 13c-5 -44 -20 -113 -33 -165zM340 724l40 -18c21 40 39 92 48 128l-43 21c-8 -36 -26 -90 -45 -131zM911 613l-3 31c-14 187 -28 259 -53 286c-16 17 -33 24 -58 25c-22 2 -63 2 -104 -1
c-2 -18 -9 -43 -19 -60c43 4 82 4 96 4c16 0 25 -1 33 -9c15 -16 27 -74 39 -214h-159c-27 132 -90 225 -243 282c-7 -15 -25 -40 -38 -52c134 -46 191 -123 216 -230h-174v-62h186c4 -30 7 -63 9 -97h64c-2 34 -5 67 -9 97h217zM432 585v-159h510v159h-62v-98h-388v98h-60z
" />
</svg>
