<?xml version="1.0" standalone="no"?>
<!DOCTYPE svg PUBLIC "-//W3C//DTD SVG 1.1//EN" "http://www.w3.org/Graphics/SVG/1.1/DTD/svg11.dtd" >
<svg xmlns="http://www.w3.org/2000/svg" xmlns:xlink="http://www.w3.org/1999/xlink" version="1.1" viewBox="-10 0 1010 1000">
   <path fill="currentColor"
d="M572 267h265c-52 -40 -103 -85 -143 -130c-35 47 -76 90 -122 130zM547 326v-39c-21 16 -44 33 -67 48c-11 -14 -34 -36 -49 -46c106 -65 199 -163 248 -255l67 21c-5 11 -11 22 -18 32c60 69 157 141 239 182c-13 16 -27 45 -33 64c-28 -17 -59 -37 -88 -59v52h-299z
M771 456v126h96v-126h-96zM718 635v-230h205v230h-205zM526 456v126h91v-126h-91zM473 635v-230h199v230h-199zM290 188h-99c-14 36 -30 72 -48 107h99c16 -30 35 -70 48 -107zM353 458v-102h-76v102h76zM353 619v-103h-76v103h76zM151 458h73v-102h-73v102zM224 516h-73
v103h73v-103zM92 378l-11 14c-12 -12 -33 -31 -48 -38c73 -93 117 -216 140 -310l62 9c-7 24 -14 50 -23 75h109l12 -3l41 27c-19 48 -44 100 -69 143h108v385h-321v-302zM91 953l-54 -23c30 -53 55 -141 67 -205l52 18c-15 65 -36 155 -65 210zM188 741l50 -7
c7 60 12 134 13 185l-52 8c0 -51 -4 -127 -11 -186zM275 737l47 -12c17 54 35 123 41 168l-49 13c-6 -45 -23 -115 -39 -169zM364 725l45 -18c23 43 46 99 55 136l-48 21c-9 -38 -30 -96 -52 -139zM546 665l64 11c-6 29 -14 56 -23 81c42 27 88 61 111 87l-39 49
c-21 -22 -57 -53 -93 -80c-26 57 -58 106 -97 144c-11 -10 -36 -33 -50 -43c64 -58 107 -147 127 -249zM793 660l68 11c-7 38 -17 75 -30 108c47 34 101 78 129 110l-46 50c-23 -29 -67 -67 -109 -100c-24 46 -53 85 -87 116c-11 -10 -38 -32 -55 -43
c68 -57 112 -146 130 -252z" />
</svg>
