<?xml version="1.0" standalone="no"?>
<!DOCTYPE svg PUBLIC "-//W3C//DTD SVG 1.1//EN" "http://www.w3.org/Graphics/SVG/1.1/DTD/svg11.dtd" >
<svg xmlns="http://www.w3.org/2000/svg" xmlns:xlink="http://www.w3.org/1999/xlink" version="1.1" viewBox="-10 0 1010 1000">
   <path fill="currentColor"
d="M945 107v63h-180v-63h180zM448 43l56 21c-33 80 -86 174 -137 235c-8 -13 -24 -38 -34 -50c45 -55 93 -139 115 -206zM76 952l-47 -24c24 -54 45 -141 56 -204l45 18c-12 66 -31 155 -54 210zM153 739l43 -6c9 58 12 134 10 182l-47 8c4 -49 2 -125 -6 -184zM223 731
l41 -10c17 54 32 124 35 170l-43 12c-3 -47 -17 -118 -33 -172zM300 723l38 -16c20 43 39 101 45 137l-40 20c-7 -38 -24 -98 -43 -141zM288 458v-104h-57v104h57zM288 620v-105h-57v105h57zM129 515v105h56v-105h-56zM185 354h-56v104h56v-104zM245 192h-80
c-11 34 -24 70 -39 103h80c14 -28 28 -68 39 -103zM664 811l97 -21l4 61c-87 22 -178 45 -247 63l-14 -66c30 -6 67 -14 107 -24v-291h-98v-65h98v-109h-68v-39c-8 9 -15 19 -23 28c-3 -9 -9 -26 -16 -43c-13 31 -28 63 -44 92v558h-56v-464c-15 21 -29 41 -43 59
c-4 -10 -14 -30 -24 -46v175h-254v-301l-10 16c-9 -14 -27 -32 -40 -40c61 -93 98 -216 116 -310l54 9c-6 25 -13 53 -20 80h87l11 -4l34 28c-15 46 -35 96 -55 138h77v183c49 -61 97 -146 128 -226l35 14c54 -58 105 -142 137 -230l48 25c-6 15 -12 32 -19 48
c43 40 87 88 114 124l-32 58c-26 -37 -68 -86 -108 -126c-23 47 -51 92 -78 130h174v64h-72v109h91v65h-91v278zM518 599l41 -13c15 57 27 133 30 182l-43 15c-2 -50 -13 -126 -28 -184zM725 765l-37 -16c11 -48 24 -124 30 -176l46 18c-12 59 -26 128 -39 174zM957 331v64
h-68v488c0 31 -5 45 -24 56c-16 9 -43 11 -80 11c-3 -16 -12 -40 -19 -56c25 1 47 1 55 0c8 0 10 -3 10 -12v-487h-74v-64h200z" />
</svg>
