<?xml version="1.0" standalone="no"?>
<!DOCTYPE svg PUBLIC "-//W3C//DTD SVG 1.1//EN" "http://www.w3.org/Graphics/SVG/1.1/DTD/svg11.dtd" >
<svg xmlns="http://www.w3.org/2000/svg" xmlns:xlink="http://www.w3.org/1999/xlink" version="1.1" viewBox="-10 0 1010 1000">
   <path fill="currentColor"
d="M871 440v-85h-135v85h135zM871 575v-86h-135v86h135zM871 713v-89h-135v89h135zM842 180h-92c-24 50 -52 100 -87 146c-11 -11 -32 -23 -47 -30c63 -77 105 -177 129 -252l56 8c-8 23 -16 46 -26 70h98l9 -2l36 24c-21 51 -52 109 -80 156h89v467h-245v-467h99
c21 -33 43 -79 61 -120zM259 188h-77c-13 35 -26 72 -43 107h77c16 -29 31 -70 43 -107zM296 458v-102h-60v102h60zM296 619v-103h-60v103h60zM137 516v103h57v-103h-57zM137 356v102h57v-102h-57zM92 381l-9 12c-9 -12 -28 -31 -42 -39c65 -94 101 -217 121 -310l57 8
c-4 24 -11 50 -18 76h84l11 -3l36 24c-16 49 -39 102 -62 146h73v385h-251v-299zM85 949l-43 -19c25 -54 48 -143 58 -205l41 15c-12 63 -31 153 -56 209zM164 741l39 -6c7 60 12 135 13 185l-42 7c1 -51 -4 -127 -10 -186zM224 737l37 -9c17 53 33 123 41 167l-40 12
c-7 -46 -24 -116 -38 -170zM287 725l36 -13c20 43 44 100 54 136l-38 16c-10 -37 -32 -96 -52 -139zM416 376v159h57v-159h-57zM589 535v-159h-62v159h62zM649 751l-45 31c-15 -25 -42 -60 -70 -95v260h-68v-258c-23 55 -52 107 -82 140c-6 -17 -20 -42 -30 -58
c38 -39 78 -110 101 -177h-85v-277h99v-102h-107v-62h107v-107h62v107h105v62h-105v102h105v277h-102v16c42 45 90 103 115 141zM727 786l55 15c-28 53 -70 113 -108 152c-10 -10 -33 -26 -48 -34c39 -36 77 -86 101 -133zM823 806l50 -20c32 43 74 104 92 139l-52 25
c-18 -36 -58 -98 -90 -144z" />
</svg>
