<?xml version="1.0" standalone="no"?>
<!DOCTYPE svg PUBLIC "-//W3C//DTD SVG 1.1//EN" "http://www.w3.org/Graphics/SVG/1.1/DTD/svg11.dtd" >
<svg xmlns="http://www.w3.org/2000/svg" xmlns:xlink="http://www.w3.org/1999/xlink" version="1.1" viewBox="-10 0 1010 1000">
   <path fill="currentColor"
d="M319 189h-111c-18 37 -38 75 -62 110h112c22 -30 44 -72 61 -110zM355 485v-126h-75v126h75zM355 671v-129h-75v129h75zM152 485h75v-126h-75v126zM227 542h-75v129h75v-129zM92 372l-3 4c-13 -14 -35 -33 -52 -42c78 -87 131 -203 158 -291l68 10c-9 24 -17 50 -28 76
h118l14 -4l42 31c-23 47 -54 100 -84 143h92v431h-325v-358zM61 907l-12 -66c95 -12 239 -32 378 -53l2 60c-130 22 -268 44 -368 59zM652 866h155c43 0 50 -24 55 -151c17 13 46 24 66 29c-9 148 -30 189 -115 189h-167c-90 0 -118 -23 -118 -109v-432h316s0 19 -1 29
c-7 172 -15 238 -35 262c-15 17 -31 23 -55 25c-21 2 -61 3 -103 0c-1 -19 -8 -45 -18 -62c39 3 75 4 88 4c15 0 23 -2 30 -9c10 -15 17 -62 23 -184h-175v366c0 36 8 43 54 43zM677 33l65 22c-6 15 -13 31 -21 47c58 104 159 220 250 284c-18 15 -36 39 -46 57
c-85 -69 -177 -175 -237 -277c-62 109 -142 208 -224 279c-8 -16 -29 -49 -43 -64c103 -82 200 -211 256 -348z" />
</svg>
