<?xml version="1.0" standalone="no"?>
<!DOCTYPE svg PUBLIC "-//W3C//DTD SVG 1.1//EN" "http://www.w3.org/Graphics/SVG/1.1/DTD/svg11.dtd" >
<svg xmlns="http://www.w3.org/2000/svg" xmlns:xlink="http://www.w3.org/1999/xlink" version="1.1" viewBox="-10 0 1010 1000">
   <path fill="currentColor"
d="M58 906l-12 -65c86 -15 215 -39 341 -65l3 61c-117 25 -240 51 -332 69zM339 485v-126h-70v126h70zM339 671v-129h-70v129h70zM147 542v129h71v-129h-71zM218 359h-71v126h71v-126zM297 189h-96c-18 37 -37 75 -61 110h98c20 -30 42 -72 59 -110zM344 125l40 31
c-23 47 -53 100 -83 143h96v431h-306v-362l-7 8c-11 -14 -33 -33 -49 -42c77 -87 128 -203 155 -291l66 10c-9 24 -17 50 -28 76h102zM915 103v581c0 39 -6 61 -27 73c-21 14 -54 15 -98 15c-3 -21 -13 -55 -22 -74c33 2 63 2 73 1s13 -4 13 -16v-513h-123v785h-62v-832
c-52 26 -117 49 -179 67v196h160v62h-160v286l157 -58c2 18 6 42 10 56c-182 72 -206 85 -222 99c-5 -19 -19 -59 -29 -77c11 -10 25 -33 25 -74v-534c66 -20 142 -49 184 -76l54 49v-16h246z" />
</svg>
