<?xml version="1.0" standalone="no"?>
<!DOCTYPE svg PUBLIC "-//W3C//DTD SVG 1.1//EN" "http://www.w3.org/Graphics/SVG/1.1/DTD/svg11.dtd" >
<svg xmlns="http://www.w3.org/2000/svg" xmlns:xlink="http://www.w3.org/1999/xlink" version="1.1" viewBox="-10 0 1010 1000">
   <path fill="currentColor"
d="M392 543h-95c-15 17 -31 32 -47 47h101c14 -13 28 -29 41 -47zM485 675v-42h-92v42h92zM485 761v-44h-92v44h92zM250 675h89v-42h-89v42zM339 717h-89v44h89v-44zM197 804v-172c-5 4 -11 7 -16 10c-4 -6 -13 -15 -22 -23c-7 115 -26 241 -70 338c-11 -12 -37 -30 -52 -37
c59 -131 65 -310 65 -438v-262h180v-176h67v66h194v55h-194v55h182l11 -2l39 9c-12 41 -29 90 -44 119l-50 -10c8 -16 16 -40 24 -64h-187v41l128 -11l4 43l-132 13v22c0 19 5 21 31 21h91c19 0 23 -6 26 -48c12 8 33 15 49 18c-5 59 -22 76 -68 76h-104
c-67 0 -83 -13 -83 -66v-18l-90 9l-4 -46l94 -8v-46h-103v209c0 35 -1 73 -3 112c57 -37 112 -93 139 -144l57 18c-6 10 -14 20 -22 31h94l11 -3l34 25c-15 24 -36 48 -56 70h122v214h-342zM684 298l-5 14c18 114 44 222 81 315c39 -93 62 -203 78 -329h-154zM956 298h-49
c-21 163 -54 298 -110 410c44 84 100 151 171 193c-16 13 -38 38 -49 57c-65 -43 -119 -105 -161 -181c-48 72 -106 132 -181 182c-7 -15 -25 -42 -39 -57h-376v-55h377v50c78 -49 138 -113 182 -190c-36 -84 -63 -179 -84 -283c-17 36 -34 69 -54 98
c-11 -12 -38 -37 -55 -49c74 -101 118 -263 141 -430l70 11c-10 60 -22 119 -36 176h253v68z" />
</svg>
