<?xml version="1.0" standalone="no"?>
<!DOCTYPE svg PUBLIC "-//W3C//DTD SVG 1.1//EN" "http://www.w3.org/Graphics/SVG/1.1/DTD/svg11.dtd" >
<svg xmlns="http://www.w3.org/2000/svg" xmlns:xlink="http://www.w3.org/1999/xlink" version="1.1" viewBox="-10 0 1010 1000">
   <path fill="currentColor"
d="M670 182h-223c-48 98 -146 161 -355 196c-5 -16 -24 -42 -38 -55c175 -26 261 -71 306 -141h-262v-61h290c8 -24 13 -49 16 -76h81c-4 27 -9 52 -16 76h276v150c0 20 5 23 30 23h81c23 0 27 -12 30 -100c17 11 46 20 67 25c-7 107 -27 134 -89 134h-100
c-73 0 -94 -17 -94 -82v-89zM114 939l-59 -35c47 -27 89 -74 114 -113l58 29c-27 43 -64 89 -113 119zM288 817l60 -12c15 35 26 81 29 111l-65 13c-1 -30 -11 -77 -24 -112zM445 807l55 -14c22 31 42 74 49 103l-59 18c-7 -30 -27 -75 -45 -107zM599 806l51 -21
c25 24 49 57 61 81l-54 24c-11 -24 -34 -60 -58 -84zM711 415h-451v45h451v-45zM260 546h451v-47h-451v47zM260 591v43h672v46h-672v42h624s-1 19 -3 28c-13 115 -27 162 -47 182c-16 14 -33 18 -55 19c-20 1 -57 1 -95 -2c-1 -15 -7 -37 -14 -51c35 4 68 4 80 4
c14 0 21 -1 28 -8c11 -12 23 -46 33 -126h-624v-398h222c11 -25 24 -53 32 -74l75 11c-12 23 -26 44 -39 63h307v221h-524z" />
</svg>
