<?xml version="1.0" standalone="no"?>
<!DOCTYPE svg PUBLIC "-//W3C//DTD SVG 1.1//EN" "http://www.w3.org/Graphics/SVG/1.1/DTD/svg11.dtd" >
<svg xmlns="http://www.w3.org/2000/svg" xmlns:xlink="http://www.w3.org/1999/xlink" version="1.1" viewBox="-10 0 1010 1000">
   <path fill="currentColor"
d="M802 167h-275v54h275v-54zM527 318h275v-54h-275v54zM884 518h42s0 19 -1 26c-10 163 -21 225 -42 248c-14 16 -30 22 -54 23c-20 2 -58 1 -95 -1c-1 -16 -8 -39 -16 -54c36 3 71 4 83 4c14 0 22 -1 29 -9c12 -15 21 -65 30 -191h-401v-443h146c8 -26 17 -57 22 -78l72 8
c-10 25 -21 48 -31 70h201v243h-342v48h404v48h-404v56h357v2zM712 610l39 -17c27 26 51 63 63 90l-42 20c-10 -26 -35 -65 -60 -93zM705 720l-46 14c-5 -33 -23 -82 -42 -119l43 -12c20 36 39 85 45 117zM587 748l-49 7c2 -37 -2 -94 -12 -139l45 -5c11 43 17 101 16 137z
M419 775l-47 -30c31 -33 58 -92 72 -139l48 20c-17 51 -39 111 -73 149zM448 869h363c70 0 83 -19 92 -98c16 10 44 19 63 23c-14 103 -37 137 -153 137h-361c-138 0 -180 -28 -180 -142v-619h-73v235c0 183 -12 379 -121 540c-11 -14 -33 -35 -49 -44
c98 -148 108 -329 108 -496v-235h-88v-66h379v66h-92v620c0 63 17 79 112 79z" />
</svg>
