<?xml version="1.0" standalone="no"?>
<!DOCTYPE svg PUBLIC "-//W3C//DTD SVG 1.1//EN" "http://www.w3.org/Graphics/SVG/1.1/DTD/svg11.dtd" >
<svg xmlns="http://www.w3.org/2000/svg" xmlns:xlink="http://www.w3.org/1999/xlink" version="1.1" viewBox="-10 0 1010 1000">
   <path fill="currentColor"
d="M421 94v69h-336v-69h336zM361 753l94 -43c2 16 7 37 11 51c6 -21 12 -41 17 -59l55 24c-16 57 -42 145 -67 200l-59 -27c18 -35 37 -85 52 -131c-134 67 -166 86 -182 99l-4 4c-7 -17 -25 -48 -36 -64c19 -10 53 -36 53 -77v-329h-95v100c0 123 -14 294 -116 420
c-12 -14 -35 -36 -53 -45c92 -115 102 -267 102 -375v-100h-78v-70h398v70h-92v352zM578 730l47 -7c13 51 22 118 23 162l-51 7c1 -43 -7 -111 -19 -162zM666 720l42 -11c22 42 41 99 49 136l-46 13c-6 -37 -26 -95 -45 -138zM848 798l-42 18c-10 -32 -34 -80 -56 -116
l40 -15c25 36 49 83 58 113zM808 190h-246v66h246v-66zM562 373h246v-68h-246v68zM959 540h-397v60h374s-1 20 -2 29c-13 201 -27 275 -51 302c-16 18 -33 24 -57 25c-21 2 -60 2 -99 0c-1 -18 -7 -41 -16 -57c39 4 74 5 89 5c14 0 22 -2 30 -10c16 -17 28 -80 39 -237h-376
v-521h116c12 -30 24 -68 31 -95l77 14c-12 28 -26 56 -39 81h199v291h-315v58h397v55z" />
</svg>
