<?xml version="1.0" standalone="no"?>
<!DOCTYPE svg PUBLIC "-//W3C//DTD SVG 1.1//EN" "http://www.w3.org/Graphics/SVG/1.1/DTD/svg11.dtd" >
<svg xmlns="http://www.w3.org/2000/svg" xmlns:xlink="http://www.w3.org/1999/xlink" version="1.1" viewBox="-10 0 1010 1000">
   <path fill="currentColor"
d="M426 835l-50 39c-9 -26 -23 -55 -39 -88c-41 72 -88 130 -140 171c-9 -17 -31 -45 -46 -57c58 -43 109 -105 150 -183c-31 -58 -66 -118 -98 -168l45 -33c28 41 57 88 84 135c28 -67 49 -142 63 -227h-135c18 -68 40 -166 57 -255h-112c-9 330 -30 602 -122 789
c-11 -11 -41 -33 -57 -43c91 -168 110 -435 116 -746h-70v-67h322c-16 81 -37 179 -56 256h78l11 -3l39 18c-19 136 -52 253 -95 348c22 42 42 81 55 114zM479 927l-54 -28c34 -48 54 -129 64 -197l54 17c-11 71 -29 157 -64 208zM578 730l45 -6c12 52 19 118 19 162l-48 7
c1 -43 -6 -111 -16 -163zM671 720l42 -10c19 43 37 100 43 136l-44 12c-6 -37 -23 -94 -41 -138zM815 190h-252v66h252v-66zM563 373h252v-68h-252v68zM954 540h-391v60h378s0 19 -1 29c-11 198 -22 273 -44 298c-14 17 -31 24 -55 25c-21 2 -60 2 -100 0
c-1 -18 -7 -40 -16 -56c40 4 76 4 90 4s22 -1 29 -10c15 -15 25 -76 34 -233h-381v-521h137c14 -30 29 -67 35 -93l79 15c-14 27 -28 54 -41 78h173v291h-317v58h391v55zM757 701l37 -15c24 33 50 76 60 104l-41 18c-9 -29 -34 -75 -56 -107z" />
</svg>
