<?xml version="1.0" standalone="no"?>
<!DOCTYPE svg PUBLIC "-//W3C//DTD SVG 1.1//EN" "http://www.w3.org/Graphics/SVG/1.1/DTD/svg11.dtd" >
<svg xmlns="http://www.w3.org/2000/svg" xmlns:xlink="http://www.w3.org/1999/xlink" version="1.1" viewBox="-10 0 1010 1000">
   <path fill="currentColor"
d="M85 925l-51 -21c22 -50 41 -134 51 -190l48 17c-11 58 -28 142 -48 194zM157 720l45 -2c10 57 18 129 19 170l-48 6c0 -43 -7 -117 -16 -174zM374 191h-228v62h228v-62zM146 367h228v-63h-228v63zM146 594h324s-1 19 -2 29c-14 200 -27 276 -51 302c-15 17 -30 24 -52 25
c-18 2 -49 2 -80 1c-1 -19 -7 -44 -17 -61c30 3 58 4 70 4s19 -1 26 -10c10 -11 19 -39 26 -97l-35 16c-11 -29 -34 -75 -54 -110l38 -13c18 31 40 72 52 98c4 -32 8 -72 12 -124h-326v-519h110c13 -30 24 -67 31 -93l82 13c-14 27 -28 56 -41 80h180v289h-293v55h346v58
h-346v57zM312 840l-44 12c-6 -36 -21 -97 -36 -143l42 -8c16 45 32 105 38 139zM955 279h-294v153h253v35c-8 307 -17 413 -43 448c-16 22 -35 30 -63 33c-27 2 -74 2 -120 0c-2 -22 -10 -51 -22 -71c47 5 91 5 109 5c16 0 25 -2 34 -13c17 -22 25 -115 32 -369h-181
c-6 150 -36 317 -156 458c-14 -15 -39 -35 -58 -46c126 -152 142 -333 142 -475v-158h-112v-73h218c-9 -41 -28 -96 -47 -138l70 -19c24 50 47 115 56 156l-3 1h185v73z" />
</svg>
