<?xml version="1.0" standalone="no"?>
<!DOCTYPE svg PUBLIC "-//W3C//DTD SVG 1.1//EN" "http://www.w3.org/Graphics/SVG/1.1/DTD/svg11.dtd" >
<svg xmlns="http://www.w3.org/2000/svg" xmlns:xlink="http://www.w3.org/1999/xlink" version="1.1" viewBox="-10 0 1010 1000">
   <path fill="currentColor"
d="M296 224l56 19c-23 67 -49 152 -70 203l-42 -15c19 -54 45 -146 56 -207zM89 253l49 7c-1 92 -16 199 -55 260l-46 -27c35 -53 50 -152 52 -240zM341 808l-47 48c-17 -34 -54 -102 -85 -153c-20 91 -58 176 -124 253c-10 -15 -32 -36 -46 -47c122 -144 135 -327 135 -507
v-347h62v347c0 75 -2 150 -12 223c27 38 100 155 117 183zM381 924l-61 -25c29 -53 59 -138 74 -197l57 23c-17 57 -44 144 -70 199zM492 730l50 -7c14 51 23 118 24 162l-54 7c0 -43 -9 -111 -20 -162zM597 720l47 -11c22 42 43 99 50 136l-49 13c-7 -37 -27 -95 -48 -138z
M771 190h-295v66h295v-66zM476 373h295v-68h-295v68zM942 540h-466v60h438s-1 20 -2 29c-13 201 -27 275 -53 302c-17 18 -34 24 -60 25c-23 2 -64 2 -104 0c-2 -18 -9 -41 -18 -57c40 4 77 5 93 5c14 0 23 -2 31 -10c17 -17 29 -80 41 -237h-433v-521h132
c13 -30 26 -68 33 -95l85 14c-14 28 -29 56 -41 81h221v291h-363v58h466v55zM700 700l43 -15c26 36 50 83 61 113l-47 18c-10 -32 -34 -80 -57 -116z" />
</svg>
