<?xml version="1.0" standalone="no"?>
<!DOCTYPE svg PUBLIC "-//W3C//DTD SVG 1.1//EN" "http://www.w3.org/Graphics/SVG/1.1/DTD/svg11.dtd" >
<svg xmlns="http://www.w3.org/2000/svg" xmlns:xlink="http://www.w3.org/1999/xlink" version="1.1" viewBox="-10 0 1010 1000">
   <path fill="currentColor"
d="M431 856l-55 17c-3 -16 -7 -34 -12 -54c-239 38 -270 44 -290 56c-4 -16 -14 -53 -22 -73c22 -6 45 -35 80 -79c20 -26 69 -92 121 -175c-142 17 -165 22 -178 31c-3 -18 -13 -56 -20 -78c15 -2 30 -21 49 -49c18 -22 68 -102 105 -186h-154v-68h176
c-11 -39 -31 -89 -48 -128l59 -18c23 46 45 106 56 146h153v68h-170c-41 84 -90 168 -139 232l149 -15c25 -42 49 -87 70 -133l61 32c-79 148 -172 293 -263 403l188 -26c-13 -40 -25 -81 -39 -118l53 -12c28 74 59 171 70 227zM480 918l-57 -19c24 -53 48 -139 59 -197
l53 21c-13 58 -33 142 -55 195zM578 730l47 -7c11 52 20 119 22 163l-49 6c-1 -44 -10 -110 -20 -162zM666 721l43 -11c18 43 38 99 47 135l-45 14c-9 -37 -28 -94 -45 -138zM848 798l-43 18c-11 -30 -35 -79 -54 -116l40 -14c22 36 45 83 57 112zM804 189h-243v67h243v-67z
M561 372h243v-67h-243v67zM955 540h-394v60h371s0 20 -1 29c-8 203 -18 277 -39 302c-14 18 -32 24 -56 25c-22 2 -61 2 -100 0c-2 -18 -8 -41 -17 -57c39 4 76 5 90 5c15 0 23 -2 30 -10c13 -15 21 -77 29 -237h-375v-522h116c13 -30 25 -68 31 -94l77 14
c-12 27 -26 55 -38 80h193v291h-311v59h394v55z" />
</svg>
