<?xml version="1.0" standalone="no"?>
<!DOCTYPE svg PUBLIC "-//W3C//DTD SVG 1.1//EN" "http://www.w3.org/Graphics/SVG/1.1/DTD/svg11.dtd" >
<svg xmlns="http://www.w3.org/2000/svg" xmlns:xlink="http://www.w3.org/1999/xlink" version="1.1" viewBox="-10 0 1010 1000">
   <path fill="currentColor"
d="M86 926l-52 -21c22 -52 44 -136 56 -192l49 20c-13 57 -33 140 -53 193zM159 719l49 -2c8 52 14 119 15 156l-52 7c0 -40 -5 -109 -12 -161zM236 708l46 -9c12 41 24 96 29 126l-48 13c-4 -33 -16 -88 -27 -130zM385 780l-43 17c-8 -28 -22 -72 -36 -105l42 -12
c13 31 30 75 37 100zM373 190h-215v64h215v-64zM158 369h215v-66h-215v66zM158 595h315s-1 20 -3 29c-13 200 -26 278 -51 306c-15 17 -31 23 -55 26c-22 1 -61 1 -102 -1c-1 -20 -8 -46 -17 -63c40 4 77 4 91 4s23 -1 31 -10c15 -17 28 -79 38 -233h-311v-517h107
c12 -30 24 -67 32 -93l74 12c-13 28 -28 56 -41 81h172v287h-280v57h286v56h-286v59zM940 561h-203c35 154 105 275 224 331c-16 14 -39 42 -50 62c-102 -55 -168 -153 -211 -280c-32 105 -94 205 -213 281c-10 -16 -34 -42 -50 -56c147 -86 199 -214 216 -338h-186v-71h194
c2 -34 2 -68 2 -99v-97h-95c-16 54 -35 103 -56 142c-14 -11 -45 -29 -62 -37c46 -77 74 -195 88 -312l69 11c-5 43 -13 86 -22 127h78v-176h72v176h179v69h-179v97c0 31 -1 65 -3 99h208v71z" />
</svg>
