<?xml version="1.0" standalone="no"?>
<!DOCTYPE svg PUBLIC "-//W3C//DTD SVG 1.1//EN" "http://www.w3.org/Graphics/SVG/1.1/DTD/svg11.dtd" >
<svg xmlns="http://www.w3.org/2000/svg" xmlns:xlink="http://www.w3.org/1999/xlink" version="1.1" viewBox="-10 0 1010 1000">
   <path fill="currentColor"
d="M137 549h73v-1h4v-270h-77v271zM337 549v-271h-70v270h4v1h66zM317 674l50 -13c23 66 43 151 47 207l-52 15c-1 -15 -3 -32 -6 -49c-107 19 -216 39 -300 54l-12 -68c45 -6 103 -16 166 -26v-185h-73v71h-57v-462h129v-174h64v174h117v391h-119v175l73 -11
c-7 -35 -17 -69 -27 -99zM477 927l-59 -25c23 -54 47 -141 60 -200l56 23c-15 59 -36 146 -57 202zM571 730l47 -7c13 51 25 119 26 162l-50 8c-1 -44 -11 -111 -23 -163zM664 720l43 -11c21 42 42 99 49 136l-46 13c-7 -37 -26 -95 -46 -138zM849 798l-42 18
c-10 -31 -33 -79 -57 -115l41 -14c24 34 48 81 58 111zM804 190h-267v66h267v-66zM537 373h267v-68h-267v68zM957 540h-420v60h399s-1 20 -2 29c-13 201 -27 275 -51 302c-16 18 -33 24 -57 25c-21 2 -60 2 -99 0c-1 -18 -7 -41 -17 -57c40 4 75 5 89 5c15 0 23 -2 31 -10
c15 -17 28 -80 39 -237h-400v-521h131c12 -30 24 -68 31 -95l78 14c-13 28 -27 56 -39 81h202v291h-335v58h420v55z" />
</svg>
