<?xml version="1.0" standalone="no"?>
<!DOCTYPE svg PUBLIC "-//W3C//DTD SVG 1.1//EN" "http://www.w3.org/Graphics/SVG/1.1/DTD/svg11.dtd" >
<svg xmlns="http://www.w3.org/2000/svg" xmlns:xlink="http://www.w3.org/1999/xlink" version="1.1" viewBox="-10 0 1010 1000">
   <path fill="currentColor"
d="M151 692h210v-89h-210v89zM361 446h-210v95h210v-95zM428 382v490c0 35 -8 52 -31 63c-23 10 -60 11 -115 11c-3 -18 -11 -43 -20 -60c38 1 73 1 84 0c11 0 15 -3 15 -14v-118h-210v202h-66v-574h343zM308 138l52 -31c49 62 107 149 133 203l-56 37
c-6 -14 -14 -30 -24 -47c-284 17 -319 20 -342 29c-4 -14 -13 -49 -21 -66c14 -3 29 -18 47 -40c18 -21 77 -104 112 -184l69 23c-38 68 -83 136 -127 189l227 -11c-22 -35 -46 -72 -70 -102zM517 923l-57 -24c20 -53 40 -140 51 -197l53 22c-12 57 -29 145 -47 199z
M593 729l45 -6c12 52 21 118 22 162l-47 7c0 -43 -8 -111 -20 -163zM677 720l41 -11c21 43 40 100 47 136l-43 13c-6 -38 -26 -95 -45 -138zM851 796l-41 17c-9 -31 -31 -77 -53 -112l39 -15c22 35 46 80 55 110zM815 190h-227v66h227v-66zM588 373h227v-68h-227v68z
M957 540h-369v60h348s0 20 -1 29c-13 197 -26 271 -51 298c-15 17 -32 23 -56 24c-22 3 -60 2 -99 0c-1 -17 -8 -41 -17 -56c40 4 75 4 89 4s22 -2 30 -10c16 -17 28 -78 38 -232h-351v-521h97c13 -30 25 -68 32 -95l77 14c-13 28 -25 56 -38 81h197v291h-295v58h369v55z
" />
</svg>
