<?xml version="1.0" standalone="no"?>
<!DOCTYPE svg PUBLIC "-//W3C//DTD SVG 1.1//EN" "http://www.w3.org/Graphics/SVG/1.1/DTD/svg11.dtd" >
<svg xmlns="http://www.w3.org/2000/svg" xmlns:xlink="http://www.w3.org/1999/xlink" version="1.1" viewBox="-10 0 1010 1000">
   <path fill="currentColor"
d="M464 383l1 60h-406v-60h175v-137h-142v-60h142v-141h68v141h150v60h-150v137h162zM458 760l5 61c-144 31 -296 63 -404 87l-12 -67c51 -10 115 -21 187 -36v-156h-151v-60h151v-115h68v115h146v60h-146v142c51 -10 104 -20 156 -31zM511 925l-56 -26
c25 -53 50 -138 64 -197l53 22c-16 59 -38 146 -61 201zM600 729l44 -7c12 51 21 119 22 162l-48 8c0 -43 -7 -111 -18 -163zM684 720l40 -11c19 42 38 99 45 136l-43 13c-7 -38 -25 -95 -42 -138zM858 788l-40 20c-11 -30 -35 -75 -58 -107l38 -17c24 33 49 76 60 104z
M815 190h-227v66h227v-66zM588 373h227v-68h-227v68zM957 540h-369v60h351s-1 20 -2 29c-12 201 -25 276 -48 303c-14 17 -30 24 -53 25c-20 2 -57 2 -92 -1c-2 -17 -8 -41 -17 -57c36 4 70 5 83 5c14 0 22 -2 29 -10c15 -17 26 -80 36 -236h-352v-522h108
c12 -30 24 -68 29 -95l74 14c-12 28 -25 56 -36 81h181v291h-291v58h369v55z" />
</svg>
