<?xml version="1.0" standalone="no"?>
<!DOCTYPE svg PUBLIC "-//W3C//DTD SVG 1.1//EN" "http://www.w3.org/Graphics/SVG/1.1/DTD/svg11.dtd" >
<svg xmlns="http://www.w3.org/2000/svg" xmlns:xlink="http://www.w3.org/1999/xlink" version="1.1" viewBox="-10 0 1010 1000">
   <path fill="currentColor"
d="M396 267v-81h-93v81h93zM396 403v-82h-93v82h93zM145 321v82h95v-82h-95zM145 186v81h95v-81h-95zM460 130v329h-377v-329h157v-86h63v86h157zM235 673h211s-1 20 -4 30c-15 138 -32 198 -58 221c-16 16 -34 21 -61 23c-23 2 -68 2 -115 -1c-1 -19 -9 -44 -20 -62
c46 5 91 5 108 5c18 0 27 -1 34 -9c17 -14 30 -54 42 -147h-225c15 -42 32 -100 46 -153h-146v-62h441v62h-226c-9 31 -18 64 -27 93zM521 930l-51 -21c27 -51 51 -134 63 -194l49 18c-14 61 -35 145 -61 197zM612 723l45 -5c9 52 16 118 16 162l-48 7
c1 -45 -5 -112 -13 -164zM692 712l43 -9c16 42 34 98 42 133l-45 13c-7 -38 -25 -93 -40 -137zM825 190h-228v66h228v-66zM597 373h228v-68h-228v68zM957 539h-360v61h336s0 19 -1 29c-12 204 -23 278 -45 303c-15 17 -30 24 -52 25c-19 2 -52 2 -85 0
c-1 -17 -7 -40 -16 -55c33 3 62 3 74 3c13 0 20 -1 27 -10c10 -12 17 -44 24 -113l-38 17c-11 -28 -34 -72 -56 -105l38 -14c22 30 45 70 57 98c3 -33 6 -72 8 -120h-336v-522h113c11 -30 21 -67 27 -93l73 13c-11 28 -24 55 -34 80h179v291h-293v57h360v55z" />
</svg>
