<?xml version="1.0" standalone="no"?>
<!DOCTYPE svg PUBLIC "-//W3C//DTD SVG 1.1//EN" "http://www.w3.org/Graphics/SVG/1.1/DTD/svg11.dtd" >
<svg xmlns="http://www.w3.org/2000/svg" xmlns:xlink="http://www.w3.org/1999/xlink" version="1.1" viewBox="-10 0 1010 1000">
   <path fill="currentColor"
d="M118 610l63 14c-20 93 -54 188 -93 249c-11 -10 -38 -29 -54 -38c40 -58 67 -142 84 -225zM484 557h-167v311c0 39 -7 60 -32 73c-25 12 -65 13 -121 13c-3 -20 -11 -51 -21 -71c42 1 80 1 91 0c12 0 15 -4 15 -16v-310h-192v-66h192v-105h-129v-48c-21 17 -40 34 -61 49
c-5 -17 -21 -55 -32 -73c96 -64 197 -166 255 -276l58 25c-7 12 -14 25 -21 37c75 54 151 120 197 169l-42 58c-46 -52 -120 -118 -191 -173c-42 61 -91 118 -143 166h303v66h-126v105h167v66zM358 623l56 -21c28 57 59 132 71 182l-59 24c-12 -50 -40 -128 -68 -185z
M504 924l-56 -25c26 -53 52 -138 67 -197l52 22c-16 59 -39 146 -63 200zM598 729l44 -7c12 51 21 119 22 163l-48 7c0 -43 -7 -111 -18 -163zM681 720l40 -11c20 42 39 99 46 136l-44 13c-6 -38 -23 -95 -42 -138zM856 788l-40 20c-11 -30 -35 -75 -58 -107l37 -16
c25 32 50 75 61 103zM814 190h-224v66h224v-66zM590 373h224v-68h-224v68zM960 540h-370v60h349s-1 20 -2 29c-12 201 -25 276 -48 303c-14 17 -30 24 -54 25c-20 2 -56 2 -93 -1c-1 -17 -7 -41 -16 -57c36 4 71 5 84 5c14 0 21 -2 29 -10c15 -17 25 -80 36 -237h-351v-521
h105c12 -30 24 -68 30 -95l74 14c-12 28 -25 56 -36 81h182v291h-289v58h370v55z" />
</svg>
