<?xml version="1.0" standalone="no"?>
<!DOCTYPE svg PUBLIC "-//W3C//DTD SVG 1.1//EN" "http://www.w3.org/Graphics/SVG/1.1/DTD/svg11.dtd" >
<svg xmlns="http://www.w3.org/2000/svg" xmlns:xlink="http://www.w3.org/1999/xlink" version="1.1" viewBox="-10 0 1010 1000">
   <path fill="currentColor"
d="M879 143l-42 37c-29 -27 -89 -62 -139 -85l41 -32c50 20 110 55 140 80zM133 958l-58 -31c36 -30 75 -82 99 -118l57 29c-28 38 -63 88 -98 120zM307 836l60 -10c13 33 21 76 23 104l-65 11c0 -28 -8 -72 -18 -105zM463 834l55 -13c18 29 35 68 42 94l-59 15
c-6 -25 -22 -65 -38 -96zM613 830l52 -14c21 27 41 62 50 87l-55 17c-8 -25 -28 -63 -47 -90zM730 495h-456v37h456v-37zM274 606h456v-37h-456v37zM941 728h-667v37h612s0 16 -2 24c-10 95 -20 135 -40 152c-14 13 -31 17 -51 18c-17 1 -48 0 -80 -1c0 -13 -6 -33 -14 -46
c29 3 52 4 63 4s18 -1 24 -7c9 -11 17 -38 25 -101h-609v-354h248c7 -12 14 -24 20 -35c-9 3 -20 4 -33 4c-15 2 -48 1 -81 -1c-2 -13 -7 -31 -14 -43c32 3 61 3 72 3c12 0 20 -1 24 -6c8 -7 14 -20 20 -50h-181c-31 53 -80 98 -157 129c-8 -15 -26 -35 -39 -45
c100 -35 144 -97 163 -169h-184v-51h249v-44h-177v-47h177v-53h68v53h168v47h-168v44h241c-11 -44 -18 -92 -21 -144h67c2 53 10 101 22 144h250v51h-234c11 29 23 54 36 75c41 -20 77 -43 101 -70l51 20c-30 34 -73 64 -122 88c26 28 55 44 83 43c21 0 28 -19 32 -76
c15 12 36 22 54 25c-11 82 -34 105 -89 105c-52 0 -99 -26 -138 -70c-41 18 -83 33 -123 44c-8 -11 -27 -34 -39 -44c44 -10 89 -23 131 -39c-17 -29 -34 -63 -47 -101h-323c-3 14 -7 28 -12 41h231s-1 16 -3 23c-10 60 -21 89 -36 103l59 9c-7 14 -15 26 -23 37h277v193
h-528v38h667v43z" />
</svg>
