<?xml version="1.0" standalone="no"?>
<!DOCTYPE svg PUBLIC "-//W3C//DTD SVG 1.1//EN" "http://www.w3.org/Graphics/SVG/1.1/DTD/svg11.dtd" >
<svg xmlns="http://www.w3.org/2000/svg" xmlns:xlink="http://www.w3.org/1999/xlink" version="1.1" viewBox="-10 0 1010 1000">
   <path fill="currentColor"
d="M350 701l-39 48c-11 -24 -38 -68 -61 -106v312h-56v-285c-34 76 -76 145 -118 189c-10 -15 -30 -37 -43 -47c63 -56 127 -174 161 -280v-31l-25 25c-7 -18 -19 -41 -32 -66c-11 47 -27 89 -48 124c-8 -9 -28 -25 -40 -32c42 -63 57 -159 64 -265l49 7
c-3 35 -7 69 -12 102c17 25 33 53 44 76v-235h-118v-61h118v-121h56v121h114v61h-114v278c31 -57 38 -140 41 -230l48 6c-2 32 -4 63 -7 93c26 32 51 70 63 96l-33 34c-9 -18 -24 -43 -40 -67c-7 38 -18 73 -35 102c-8 -8 -25 -21 -37 -30v51c26 32 86 110 100 131zM576 275
v31c-12 435 -21 564 -45 603c-12 21 -27 29 -46 31c-14 2 -30 2 -47 1c0 -16 -5 -39 -13 -54c18 1 30 1 40 1c9 1 15 -1 21 -15c16 -28 28 -159 38 -544h-44c-1 184 -18 446 -134 631c-8 -11 -28 -31 -38 -37c109 -177 121 -417 122 -594h-63v-54h63v-220h50v220h96z
M617 921l-43 -19c23 -51 43 -134 53 -193l42 16c-11 61 -29 144 -52 196zM685 723l39 -6c9 52 16 117 18 161l-42 7c0 -44 -7 -112 -15 -162zM743 713l36 -9c16 42 34 97 40 132l-38 13c-7 -37 -22 -93 -38 -136zM875 775l-34 17c-10 -25 -28 -67 -46 -98l32 -15
c19 32 39 71 48 96zM843 190h-163v66h163v-66zM680 373h163v-68h-163v68zM956 540h-276v60h262s-1 19 -2 29c-11 204 -21 277 -41 303c-13 17 -27 23 -46 24c-17 1 -44 2 -72 0c-1 -17 -6 -39 -13 -55c28 3 52 4 63 4s17 -1 24 -10c12 -16 22 -77 31 -237h-261v-522h72
c9 -30 19 -67 24 -93l62 13c-10 27 -21 55 -30 80h145v291h-218v58h276v55z" />
</svg>
