<?xml version="1.0" standalone="no"?>
<!DOCTYPE svg PUBLIC "-//W3C//DTD SVG 1.1//EN" "http://www.w3.org/Graphics/SVG/1.1/DTD/svg11.dtd" >
<svg xmlns="http://www.w3.org/2000/svg" xmlns:xlink="http://www.w3.org/1999/xlink" version="1.1" viewBox="-10 0 1010 1000">
   <path fill="currentColor"
d="M767 448h-59v-113c-36 42 -83 81 -127 104c-9 -14 -27 -33 -40 -43c52 -21 107 -62 144 -104h-123v-49h146v-43h59v43h149v49h-122c45 40 109 81 163 102c-13 11 -31 29 -41 43c-48 -25 -106 -67 -149 -110v121zM428 448h-58v-113c-37 39 -84 77 -128 97
c-9 -13 -27 -31 -39 -41c52 -21 107 -59 145 -99h-120v-49h142v-43h58v43h110v49h-110v9c28 14 98 50 117 62l-40 41c-14 -13 -48 -38 -77 -57v101zM188 180v250c0 153 -12 376 -93 526c-11 -13 -41 -37 -56 -45c73 -141 80 -337 80 -481v-310h382c-7 -23 -15 -47 -23 -68
l73 -14c11 25 23 57 30 82h368v60h-761zM239 945l-58 -23c25 -27 51 -70 70 -107l57 12c-18 36 -46 85 -69 118zM374 835l56 -9c12 34 22 78 26 106l-58 13c-4 -28 -14 -75 -24 -110zM518 836l53 -10c13 29 28 68 35 92l-56 15c-6 -25 -20 -66 -32 -97zM650 835l47 -16
c15 24 33 56 41 75l-50 22c-8 -22 -24 -55 -38 -81zM762 520h-412v31h412v-31zM350 624h412v-34h-412v34zM350 664v29h596v43h-596v32h571s-1 16 -3 24c-12 89 -25 127 -44 144c-14 11 -30 15 -50 17c-17 1 -49 1 -81 -1c-1 -14 -7 -33 -14 -47c30 3 56 3 68 3
c11 0 18 -1 24 -7c10 -8 20 -34 29 -90h-567v-331h179c10 -21 21 -43 27 -61l76 9c-11 19 -23 36 -34 52h299v184h-480z" />
</svg>
