<?xml version="1.0" standalone="no"?>
<!DOCTYPE svg PUBLIC "-//W3C//DTD SVG 1.1//EN" "http://www.w3.org/Graphics/SVG/1.1/DTD/svg11.dtd" >
<svg xmlns="http://www.w3.org/2000/svg" xmlns:xlink="http://www.w3.org/1999/xlink" version="1.1" viewBox="-10 0 1010 1000">
   <path fill="currentColor"
d="M157 414h102c8 -25 10 -49 10 -72v-31h-112v103zM366 174h-146c-18 27 -37 54 -59 80h146c20 -22 41 -52 59 -80zM427 414v-103h-104v33c0 23 -1 46 -6 70h110zM453 509l47 36c-30 34 -67 72 -98 101c42 29 84 66 110 95c4 -13 7 -26 9 -38l54 19c-15 64 -38 150 -70 202
l-54 -27c22 -37 43 -88 57 -138l-34 28c-21 -27 -57 -60 -94 -90c14 92 1 179 -29 214c-23 27 -47 35 -81 36c-15 0 -36 -1 -58 -2c-1 -18 -6 -46 -17 -65c24 3 47 4 62 4c18 0 31 -2 44 -19c17 -18 27 -69 22 -129c-65 66 -155 125 -235 158c-10 -14 -27 -38 -41 -50
c95 -32 206 -103 267 -174c-3 -17 -8 -33 -15 -50c-58 54 -144 107 -213 136c-9 -15 -26 -36 -39 -48c78 -26 178 -81 231 -136c-8 -14 -18 -28 -28 -40c-36 33 -91 64 -171 91c-7 -16 -21 -36 -33 -47c96 -31 151 -67 183 -105h-133v-147c-6 5 -12 11 -18 15
c-9 -14 -29 -35 -44 -44c90 -73 153 -172 187 -251l64 12c-9 20 -20 39 -31 60h151l11 -4l40 32c-22 37 -51 76 -81 110h116v217h-195c-2 6 -6 12 -10 18c34 35 59 80 75 128c32 -32 70 -76 92 -108zM593 729l44 -6c13 51 22 119 23 162l-47 8c0 -43 -8 -111 -20 -164z
M821 190h-224v66h224v-66zM597 373h224v-67h-224v67zM954 540h-357v61h347s0 19 -1 29c-13 194 -26 267 -50 293c-16 18 -32 23 -56 25c-23 2 -65 2 -110 -1c-1 -18 -7 -41 -15 -56c43 4 83 4 97 4c17 1 25 -1 33 -10c10 -10 17 -35 24 -86l-40 18c-11 -32 -37 -80 -61 -114
l39 -16c24 35 51 82 62 112c5 -34 9 -80 13 -141h-349v-522h114c10 -30 20 -68 26 -94l77 14c-12 28 -24 55 -35 80h176v291h-291v57h357v56zM767 845l-43 13c-7 -37 -25 -94 -45 -137l41 -11c21 42 41 99 47 135z" />
</svg>
