<?xml version="1.0" standalone="no"?>
<!DOCTYPE svg PUBLIC "-//W3C//DTD SVG 1.1//EN" "http://www.w3.org/Graphics/SVG/1.1/DTD/svg11.dtd" >
<svg xmlns="http://www.w3.org/2000/svg" xmlns:xlink="http://www.w3.org/1999/xlink" version="1.1" viewBox="-10 0 1010 1000">
   <path fill="currentColor"
d="M155 200v428h-55v-490h120c16 -30 34 -70 44 -98l62 17c-15 28 -30 56 -45 81h221v490h-56v-428h-291zM431 411h-110v20l21 -16c28 33 62 79 78 108l-32 27c-13 -28 -42 -69 -67 -102v131h-44v-121c-23 43 -51 84 -78 111c-5 -13 -17 -33 -27 -44c31 -24 64 -68 85 -114
h-83v-53h103v-127h44v127h110v53zM182 259l33 -16c22 27 39 65 48 90l-37 19c-8 -25 -25 -65 -44 -93zM378 241l36 22c-16 34 -32 69 -46 93l-31 -19c13 -26 32 -69 41 -96zM522 732h-194c63 54 133 123 169 168l-48 43c-32 -44 -96 -111 -155 -165c-31 77 -89 131 -196 167
c-6 -17 -23 -43 -34 -57c109 -32 159 -82 183 -156h-176v-59h191c4 -23 6 -47 8 -72l58 -1c-2 26 -4 50 -8 73h202v59zM560 924l-53 -25c25 -53 50 -139 63 -197l50 22c-15 58 -37 145 -60 200zM648 729l42 -7c12 52 21 119 21 163l-44 7c0 -43 -8 -111 -19 -163zM727 719
l38 -11c21 44 38 99 45 136l-41 13c-7 -37 -25 -95 -42 -138zM890 795l-39 18c-10 -31 -31 -77 -52 -112l36 -15c22 33 45 79 55 109zM860 190h-222v66h222v-66zM638 373h222v-68h-222v68zM974 540h-336v60h326s-1 20 -2 29c-12 201 -24 276 -47 303c-14 17 -30 24 -52 25
c-20 2 -55 2 -91 -1c-2 -17 -7 -41 -15 -57c35 4 68 5 82 5c13 0 21 -2 28 -10c15 -17 25 -80 35 -237h-327v-521h103c12 -30 24 -68 30 -95l70 14c-11 28 -24 56 -36 81h181v291h-285v58h336v55z" />
</svg>
