<?xml version="1.0" standalone="no"?>
<!DOCTYPE svg PUBLIC "-//W3C//DTD SVG 1.1//EN" "http://www.w3.org/Graphics/SVG/1.1/DTD/svg11.dtd" >
<svg xmlns="http://www.w3.org/2000/svg" xmlns:xlink="http://www.w3.org/1999/xlink" version="1.1" viewBox="-10 0 1010 1000">
   <path fill="currentColor"
d="M865 235v-102h-85v102h85zM735 235v-102h-84v102h84zM606 235v-102h-80v102h80zM921 79v210h-449v-210h449zM951 339v61h-515v-61h515zM94 922l-48 -24c11 -53 25 -140 31 -196l45 22c-7 55 -18 143 -28 198zM148 729l38 -7c12 52 22 118 24 162l-40 9
c-1 -44 -10 -112 -22 -164zM343 190h-197v66h197v-66zM146 373h197v-68h-197v68zM146 600h285s-1 20 -1 29c-12 201 -22 276 -42 303c-13 17 -28 24 -49 25c-16 2 -49 2 -80 -1c-1 -17 -7 -41 -15 -57c32 4 62 5 74 5s18 -2 24 -10c9 -12 16 -40 23 -99l-35 19
c-8 -32 -28 -78 -47 -113l33 -15c19 34 40 80 49 109c4 -35 7 -80 10 -138h-286v-521h93c10 -30 21 -68 26 -95l63 14c-10 28 -21 56 -31 81h160v291h-254v58h298v55h-298v60zM295 844l-37 14c-6 -37 -23 -95 -39 -138l34 -11c19 42 35 99 42 135zM550 510v94h284v-94h-284z
M901 674l44 44c-39 27 -83 56 -123 77c40 44 89 77 146 95c-14 13 -30 39 -39 57c-119 -45 -200 -150 -243 -283c-27 31 -62 63 -99 89v121l145 -40c-1 18 -1 43 1 56c-166 49 -190 58 -205 69v-1c-4 -15 -15 -41 -23 -54c12 -7 29 -23 29 -63v-54c-24 15 -47 27 -70 36
c-9 -16 -25 -39 -38 -51c67 -22 142 -64 194 -112h-128v-205h403v205h-154c13 35 30 68 51 97c38 -25 81 -59 109 -83z" />
</svg>
