<?xml version="1.0" standalone="no"?>
<!DOCTYPE svg PUBLIC "-//W3C//DTD SVG 1.1//EN" "http://www.w3.org/Graphics/SVG/1.1/DTD/svg11.dtd" >
<svg xmlns="http://www.w3.org/2000/svg" xmlns:xlink="http://www.w3.org/1999/xlink" version="1.1" viewBox="-10 0 1010 1000">
   <path fill="currentColor"
d="M446 155v-40h-112v40h112zM446 236v-41h-112v41h112zM179 195v41h107v-41h-107zM179 115v40h107v-40h-107zM494 74v204h-362v-204h362zM360 425v41h49v-41h-49zM360 348v39h49v-39h-49zM500 387v-39h-51v39h51zM500 466v-41h-51v41h51zM318 505v-197h224v197h-224z
M250 387v-39h-48v39h48zM250 467v-41h-48v41h48zM114 426v41h49v-41h-49zM114 348v39h49v-39h-49zM293 309v197h-221v-197h221zM116 586v88h-53v-137h477v137h-55v-88h-369zM195 818v50c63 -6 134 -12 208 -19v-31h-208zM403 664h-208v34h208v-34zM403 778v-39h-208v39h208z
M460 617v227l44 -4v50c-148 16 -303 33 -413 43l-11 -56l60 -5v-255h320zM566 925l-46 -20c19 -53 35 -140 42 -202l46 16c-8 65 -22 153 -42 206zM638 710l42 -6c9 55 17 124 18 170l-45 7c0 -46 -7 -117 -15 -171zM713 701l39 -9c15 44 32 103 39 140l-41 12
c-7 -39 -23 -97 -37 -143zM870 776l-38 18c-10 -30 -32 -75 -52 -110l36 -14c21 34 45 78 54 106zM830 190h-194v66h194v-66zM636 372h194v-67h-194v67zM947 537h-311v59h304s0 19 -1 27c-11 208 -22 282 -44 308c-14 17 -30 24 -51 25c-18 1 -51 2 -84 0
c-1 -17 -6 -40 -14 -55c32 3 61 4 74 4c12 0 20 -2 26 -10c14 -17 24 -80 34 -245h-305v-514h103c13 -30 27 -66 33 -92l68 13c-13 27 -26 54 -38 79h150v290h-255v57h311v54z" />
</svg>
