<?xml version="1.0" standalone="no"?>
<!DOCTYPE svg PUBLIC "-//W3C//DTD SVG 1.1//EN" "http://www.w3.org/Graphics/SVG/1.1/DTD/svg11.dtd" >
<svg xmlns="http://www.w3.org/2000/svg" xmlns:xlink="http://www.w3.org/1999/xlink" version="1.1" viewBox="-10 0 1010 1000">
   <path fill="currentColor"
d="M456 294v449c0 33 -5 52 -26 63c-21 12 -53 13 -97 13c-2 -18 -11 -47 -19 -65c30 1 56 1 65 1s12 -3 12 -12v-389h-88v602h-65v-602h-91v480h-64v-540h155v-115h-180v-67h425v67h-180v115h153zM808 695v63h-325v-63h325zM588 541h352s-1 20 -1 29
c-10 226 -19 308 -43 335c-16 18 -33 25 -60 27c-25 2 -70 1 -117 -1c-1 -18 -8 -42 -17 -58c45 3 87 4 103 4s25 -1 33 -11c15 -17 24 -85 32 -268h-350v-462h109c14 -31 29 -70 37 -97l73 13c-14 28 -30 59 -44 84h194s0 19 -1 29c-7 191 -14 260 -34 284
c-14 16 -30 23 -56 25c-19 1 -56 1 -94 -1c-1 -17 -8 -41 -17 -56c36 3 69 3 82 3c14 1 21 -1 28 -10c11 -15 18 -69 23 -216h-232v347zM628 269l41 -33c38 33 84 75 106 100l-44 38c-23 -28 -68 -74 -103 -105z" />
</svg>
