<?xml version="1.0" standalone="no"?>
<!DOCTYPE svg PUBLIC "-//W3C//DTD SVG 1.1//EN" "http://www.w3.org/Graphics/SVG/1.1/DTD/svg11.dtd" >
<svg xmlns="http://www.w3.org/2000/svg" xmlns:xlink="http://www.w3.org/1999/xlink" version="1.1" viewBox="-10 0 1010 1000">
   <path fill="currentColor"
d="M137 162v276c0 144 -9 353 -73 490c-8 -13 -31 -38 -44 -46c58 -128 63 -310 63 -444v-321c146 -16 323 -42 419 -76l35 48c-102 35 -260 59 -400 73zM240 469v17c0 131 -13 324 -83 455c-9 -13 -31 -36 -43 -44c66 -123 74 -292 74 -412v-172h134v-166h54v55h168v51
h-168v60h158l6 -2l33 10c-5 46 -18 100 -31 131l-43 -12c8 -19 15 -47 19 -74h-278v91l88 -10v-68h50v63l104 -12l4 46l-108 12v53c0 21 4 24 26 24h76c17 0 21 -10 23 -71c10 9 29 16 42 20c-4 78 -18 100 -59 100h-88c-56 0 -70 -15 -70 -73v-46l-85 10zM830 756h-277v-63
h277v63zM471 827l71 -47c4 15 11 36 16 46c-82 58 -112 79 -126 92l-8 10v-1l-1 1v-3c-7 -13 -19 -35 -27 -47c11 -7 24 -24 24 -63v-119h-75c-9 119 -34 196 -112 245c-5 -16 -19 -39 -30 -50c75 -45 92 -121 96 -251h172v187zM940 541v29c-10 238 -19 321 -42 349
c-15 18 -32 24 -56 27c-21 2 -59 2 -97 -1c-1 -18 -8 -42 -17 -59c37 4 72 5 86 5c13 0 21 -2 29 -11c14 -18 23 -89 31 -281h-284v-463h96c11 -31 22 -70 28 -97l68 12c-12 29 -24 59 -35 85h155s0 19 -1 29c-7 191 -14 260 -33 284c-14 16 -29 23 -54 25
c-19 1 -55 1 -91 -1c-2 -17 -8 -41 -17 -56c36 3 68 3 81 3c13 1 20 -1 27 -10c11 -15 17 -69 23 -216h-182v347h285zM816 324l-37 45c-25 -26 -74 -70 -113 -99l36 -39c41 30 89 69 114 93z" />
</svg>
