<?xml version="1.0" standalone="no"?>
<!DOCTYPE svg PUBLIC "-//W3C//DTD SVG 1.1//EN" "http://www.w3.org/Graphics/SVG/1.1/DTD/svg11.dtd" >
<svg xmlns="http://www.w3.org/2000/svg" xmlns:xlink="http://www.w3.org/1999/xlink" version="1.1" viewBox="-10 0 1010 1000">
   <path fill="currentColor"
d="M214 703l31 -19c22 29 46 68 56 95l-33 20c-10 -27 -31 -67 -54 -96zM286 457l-35 20c-9 -24 -32 -61 -53 -88l33 -18c21 26 44 62 55 86zM370 595v-241h-245v85l25 -27c40 36 82 83 108 120c25 -45 45 -93 63 -141l43 12c-23 63 -53 124 -84 181c35 48 71 108 87 147
l-35 30c-15 -38 -44 -92 -76 -137c-31 50 -64 96 -99 133c-6 -6 -21 -19 -32 -26v82h245v-195l-21 17c-9 -22 -31 -55 -50 -78l26 -22c17 18 33 40 45 60zM125 558v166c39 -41 76 -92 109 -148c-26 -39 -69 -92 -109 -131v102l22 -16c22 23 45 52 56 72l-30 23
c-10 -19 -29 -47 -48 -68zM279 201v92h146v581h-300v66h-53v-647h143v-250h64v97h169v61h-169zM947 785l-42 21c-2 -9 -5 -17 -8 -28c-123 17 -143 22 -155 29c-2 -12 -11 -40 -17 -54c10 -2 18 -13 27 -30c8 -17 37 -82 50 -146l49 19c-16 51 -38 104 -60 145l89 -11
c-9 -26 -20 -55 -31 -78l39 -18c24 49 48 113 59 151zM553 491h96c6 -38 11 -76 14 -114h-110v114zM553 206v112h113c3 -38 4 -77 5 -112h-118zM847 318v-112h-117c-1 36 -2 74 -5 112h122zM847 491v-114h-125c-3 38 -7 76 -13 114h138zM763 885h115c25 0 30 -11 32 -76
c13 10 36 20 53 25c-7 89 -24 114 -79 114h-127c-72 0 -91 -20 -91 -95v-178c-37 112 -96 212 -194 282c-9 -19 -29 -41 -45 -54c121 -81 180 -211 210 -351h-143v-408h141c10 -33 20 -73 26 -102l70 11c-11 31 -23 64 -34 91h212v408h-184v301c0 27 5 32 38 32z" />
</svg>
