<?xml version="1.0" standalone="no"?>
<!DOCTYPE svg PUBLIC "-//W3C//DTD SVG 1.1//EN" "http://www.w3.org/Graphics/SVG/1.1/DTD/svg11.dtd" >
<svg xmlns="http://www.w3.org/2000/svg" xmlns:xlink="http://www.w3.org/1999/xlink" version="1.1" viewBox="-10 0 1010 1000">
   <path fill="currentColor"
d="M721 398l-18 -57c42 -17 105 -45 167 -73v-124h-163v-60h224v322h-61v-83c-53 28 -106 54 -149 75zM851 239l-37 38c-19 -26 -58 -62 -88 -85l35 -36c32 20 70 56 90 83zM476 409l-15 -57c41 -18 100 -45 161 -74v-134h-161v-60h221v321h-60v-71c-51 28 -103 54 -146 75z
M596 241l-37 38c-19 -26 -58 -63 -89 -87l35 -35c30 21 70 56 91 84zM210 389l32 -18c21 26 45 62 55 86l-35 20c-9 -24 -31 -61 -52 -88zM226 703l30 -19c23 30 46 69 57 95l-34 21c-9 -28 -31 -68 -53 -97zM566 784v73h148v-73h-148zM714 614v-70h-148v70h148zM714 734
v-70h-148v70h148zM137 813h244v-194l-20 16c-9 -23 -30 -55 -51 -78l27 -22c16 17 32 39 44 58v-239h-244v85l25 -27c40 36 81 83 108 120c24 -45 44 -93 62 -141l43 12c-23 63 -53 124 -84 181c35 48 71 108 87 147l-34 30c-15 -38 -45 -92 -77 -138c-31 51 -64 97 -99 134
c-7 -6 -20 -17 -31 -25v81zM137 547l22 -16c22 23 46 52 56 72l-30 23c-10 -20 -29 -47 -48 -68v164c39 -41 75 -91 109 -147c-27 -39 -69 -91 -109 -130v102zM950 857l1 59h-385v40h-63v-343c-14 17 -28 32 -41 46c-5 -12 -16 -30 -26 -45v260h-299v66h-53v-647h143v-250
h64v97h150v61h-150v92h145v308c52 -53 99 -135 121 -202l59 20c-9 22 -20 46 -32 69h130c-9 -22 -20 -45 -29 -65l58 -20c13 26 29 59 40 85h157v56h-165v70h137v50h-137v70h140v50h-140v73h175z" />
</svg>
