<?xml version="1.0" standalone="no"?>
<!DOCTYPE svg PUBLIC "-//W3C//DTD SVG 1.1//EN" "http://www.w3.org/Graphics/SVG/1.1/DTD/svg11.dtd" >
<svg xmlns="http://www.w3.org/2000/svg" xmlns:xlink="http://www.w3.org/1999/xlink" version="1.1" viewBox="-10 0 1010 1000">
   <path fill="currentColor"
d="M359 174h-170v56h170v-56zM589 230v-56h-162v56h162zM821 280h-164v59h164v-59zM427 339h162v-59h-162v59zM189 280v59h170v-59h-170zM189 389v5c0 161 -12 399 -93 562c-13 -11 -43 -28 -60 -34c77 -156 84 -375 84 -528v-276h375c-8 -22 -17 -44 -26 -63l72 -17
c13 24 26 55 35 80h347v56h-266v56h232v159h-240v70c76 -13 158 -30 206 -49l43 43c-66 24 -165 43 -249 54v23c0 23 8 27 50 27h151c31 0 37 -8 40 -62c15 10 40 17 58 22c-7 73 -27 93 -90 93h-165c-88 0 -111 -15 -111 -80v-141h-251v55h210v47h-210v59l217 -19
c-1 15 -1 36 0 47c-252 26 -283 30 -302 38c-3 -17 -11 -53 -22 -73c17 -5 40 -10 40 -42v-112h-75zM928 733h-282c80 61 200 111 306 136c-14 14 -35 40 -45 58c-113 -33 -240 -99 -323 -176v209h-73v-207c-79 75 -197 141 -300 175c-11 -18 -31 -42 -46 -56
c98 -26 210 -79 286 -139h-252v-58h312v-78h73v78h344v58z" />
</svg>
