<?xml version="1.0" standalone="no"?>
<!DOCTYPE svg PUBLIC "-//W3C//DTD SVG 1.1//EN" "http://www.w3.org/Graphics/SVG/1.1/DTD/svg11.dtd" >
<svg xmlns="http://www.w3.org/2000/svg" xmlns:xlink="http://www.w3.org/1999/xlink" version="1.1" viewBox="-10 0 1010 1000">
   <path fill="currentColor"
d="M348 142h-163v37h163v-37zM577 179v-37h-162v37h162zM812 222h-167v32h167v-32zM415 222v32h162v-32h-162zM185 222v32h163v-32h-163zM250 296h-65v54c0 171 -11 431 -91 610c-12 -11 -42 -29 -57 -35c75 -172 82 -410 82 -576v-256h366c-6 -17 -12 -33 -17 -47l73 -16
c9 19 17 42 25 63h378v49h-299v37h235v117h-236v44c90 -9 188 -23 246 -38l36 34c-77 20 -186 34 -282 42v4c0 21 8 24 52 24h162c30 0 37 -6 40 -51c13 8 34 14 50 18c-5 62 -24 78 -82 78h-174c-85 0 -108 -12 -108 -69v-86h-273v32h225v43h-225v34l232 -12
c-1 12 -1 29 0 39c-263 17 -294 20 -311 27c-3 -16 -11 -50 -21 -68c17 -3 39 -7 39 -40v-55zM624 552v-35h-118v35h118zM829 591h-138v37h138v-37zM506 591v37h118v-37h-118zM305 591v37h133v-37h-133zM922 517h-231v35h209v116h-663v-116h201v-35h-217v-45h701v45z
M874 747h-607v-44h607v44zM383 831l53 21c-53 38 -137 75 -206 98c-9 -9 -29 -32 -42 -42c71 -19 147 -47 195 -77zM686 865l28 -37c69 21 158 55 206 83l-29 41c-46 -28 -134 -65 -205 -87zM199 827v-45h730v45h-322v70c0 33 -8 48 -36 56c-30 9 -78 9 -157 9
c-4 -16 -15 -36 -24 -51c65 1 120 1 135 1c16 -1 20 -4 20 -17v-68h-346z" />
</svg>
