<?xml version="1.0" standalone="no"?>
<!DOCTYPE svg PUBLIC "-//W3C//DTD SVG 1.1//EN" "http://www.w3.org/Graphics/SVG/1.1/DTD/svg11.dtd" >
<svg xmlns="http://www.w3.org/2000/svg" xmlns:xlink="http://www.w3.org/1999/xlink" version="1.1" viewBox="-10 0 1010 1000">
   <path fill="currentColor"
d="M139 195l48 7c-5 23 -11 44 -18 65c22 20 45 44 58 61l-33 36c-10 -15 -27 -34 -44 -52c-17 32 -37 60 -61 82c-8 -8 -28 -22 -41 -29c48 -40 77 -100 91 -170zM813 187h-178c-4 8 -9 15 -14 22c22 38 52 75 91 109c41 -38 76 -82 101 -131zM396 558l40 21
c-25 84 -66 153 -114 210c32 29 60 59 79 83l-49 42c-17 -24 -42 -52 -73 -81c-60 56 -129 96 -205 125c-7 -16 -25 -44 -38 -57c73 -25 140 -61 196 -111c-25 -22 -52 -43 -76 -61l46 -36c23 17 48 35 71 55c34 -38 62 -82 82 -133h-140c-37 56 -80 107 -125 144
c-9 -12 -31 -37 -45 -49c69 -53 130 -132 166 -218l26 7v-100c-46 55 -108 106 -162 135c-9 -14 -26 -35 -39 -45c72 -32 156 -98 201 -162v-151h-177v-57h177v-76h62v76h176v57h-176v154c36 -33 59 -80 70 -135l46 10c-5 22 -11 44 -20 64c27 25 58 54 73 74l-34 37
c-13 -18 -37 -44 -61 -68c-11 20 -25 38 -40 51c-7 -8 -23 -23 -34 -31v19c38 27 122 90 151 112c75 -21 149 -57 212 -104c-33 -31 -59 -64 -81 -98c-25 31 -52 58 -79 81c-12 -12 -39 -35 -54 -45c79 -59 148 -151 185 -253l66 16c-9 23 -19 45 -30 67h179l13 -3l44 20
c-32 85 -81 157 -140 214c56 39 127 73 209 92c-14 15 -33 43 -43 62c-86 -24 -159 -64 -219 -109c-71 55 -155 95 -239 122c-5 -13 -15 -32 -26 -46l-27 40c-23 -25 -78 -73 -121 -108v97h-31l4 1c-7 18 -15 35 -25 52h136zM744 708v71h208v61h-208v117h-70v-117h-214v-61
h214v-71h-170v-57h170v-66h-176v-57h176v-64h70v64h172v57h-172v66h168v57h-168z" />
</svg>
