<?xml version="1.0" standalone="no"?>
<!DOCTYPE svg PUBLIC "-//W3C//DTD SVG 1.1//EN" "http://www.w3.org/Graphics/SVG/1.1/DTD/svg11.dtd" >
<svg xmlns="http://www.w3.org/2000/svg" xmlns:xlink="http://www.w3.org/1999/xlink" version="1.1" viewBox="-10 0 1010 1000">
   <path fill="currentColor"
d="M897 43l37 58c-108 44 -278 70 -420 83c-2 -18 -9 -43 -16 -60c140 -15 306 -43 399 -81zM765 348l-58 27c-4 -49 -23 -122 -43 -176l55 -24c21 54 40 126 46 173zM624 355l-55 31c-8 -46 -31 -116 -56 -167l51 -27c28 50 52 117 60 163zM137 195l49 7
c-5 23 -11 45 -18 65c23 21 45 44 58 61l-33 36c-10 -15 -28 -34 -44 -53c-17 33 -38 61 -62 83c-9 -7 -28 -22 -41 -29c48 -40 78 -100 91 -170zM299 43v76h180v57h-180v154c37 -34 60 -81 71 -135l47 9c-5 23 -12 44 -20 65c27 25 58 54 73 74l-34 37
c-14 -18 -38 -44 -62 -67c-11 19 -25 36 -40 50c-7 -8 -24 -23 -35 -31v19c42 28 139 97 164 117l-36 52c-24 -25 -83 -75 -128 -111v99h-31l4 1c-7 18 -15 35 -25 52h137l13 -3l41 21c-26 83 -66 154 -115 210c32 30 60 59 79 84l-49 41c-18 -24 -43 -52 -74 -80
c-61 55 -132 96 -208 124c-7 -16 -26 -44 -38 -57c74 -24 141 -61 198 -111c-25 -21 -52 -43 -76 -60l46 -37c23 17 48 36 72 55c35 -38 62 -82 83 -133h-142c-37 56 -81 107 -127 144c-8 -12 -30 -37 -44 -49c70 -53 132 -132 168 -218l26 7v-101c-47 56 -109 107 -164 136
c-9 -14 -27 -35 -40 -45c74 -32 158 -98 204 -162v-151h-178v-57h178v-76h62zM956 622v67h-199v184c0 38 -6 57 -31 69c-24 11 -60 11 -115 11c-3 -20 -12 -48 -20 -67c38 1 74 1 85 0s15 -3 15 -14v-183h-200v-67h200v-66c37 -27 79 -66 111 -103h-267v-64h311l-47 -28
c27 -53 60 -141 79 -203l59 32c-27 69 -59 147 -87 199h6l15 -5l43 37c-42 54 -102 113 -157 156v45h199z" />
</svg>
