<?xml version="1.0" standalone="no"?>
<!DOCTYPE svg PUBLIC "-//W3C//DTD SVG 1.1//EN" "http://www.w3.org/Graphics/SVG/1.1/DTD/svg11.dtd" >
<svg xmlns="http://www.w3.org/2000/svg" xmlns:xlink="http://www.w3.org/1999/xlink" version="1.1" viewBox="-10 0 1010 1000">
   <path fill="currentColor"
d="M879 112l-35 46c-28 -21 -83 -52 -128 -70l34 -42c43 18 99 45 129 66zM501 259l-6 -61l112 -9c-11 -45 -19 -93 -22 -144h63c3 50 10 96 22 138l273 -22l5 60l-260 22c12 30 26 56 40 79c41 -23 76 -50 101 -81l60 22c-31 40 -76 75 -126 105c34 37 71 58 108 57
c23 0 31 -23 35 -89c14 13 33 23 49 26c-10 98 -31 126 -87 126c-60 0 -116 -32 -162 -89c-54 27 -113 49 -169 66c-8 -13 -28 -41 -41 -54c60 -14 121 -35 177 -59c-19 -31 -35 -66 -49 -104zM705 525l33 -42c49 16 113 41 146 61l-33 47c-33 -20 -96 -49 -146 -66z
M140 194l48 8c-4 22 -10 44 -18 65c23 20 46 44 59 60l-34 36c-10 -14 -27 -35 -44 -52c-17 32 -37 60 -61 83c-9 -8 -29 -23 -42 -30c49 -40 78 -99 92 -170zM400 558l40 21c-27 83 -66 154 -116 210c33 30 61 59 80 84l-49 41c-17 -24 -43 -52 -74 -80
c-61 54 -131 96 -207 124c-7 -16 -25 -44 -39 -57c74 -24 142 -62 198 -111c-24 -22 -51 -43 -75 -60l46 -37c23 17 48 36 72 55c34 -38 62 -82 83 -133h-143c-36 56 -80 107 -126 144c-9 -12 -31 -37 -45 -49c71 -53 132 -132 168 -218l27 8v-102c-47 55 -110 107 -165 136
c-8 -14 -26 -35 -39 -45c74 -32 159 -99 204 -163v-150h-179v-57h179v-76h62v76h180v57h-180v152c37 -33 59 -80 71 -134l46 10c-5 22 -11 44 -20 65c27 24 58 53 73 73l-34 37c-14 -18 -38 -44 -61 -67c-12 19 -25 37 -41 50c-7 -7 -22 -22 -34 -31v20
c42 27 138 97 164 116l-36 53c-24 -25 -83 -74 -128 -111v99h-31l3 1c-7 17 -15 35 -25 52h138zM828 677l60 21c-33 49 -79 92 -132 128c38 43 80 68 120 68c25 0 33 -28 38 -105c14 13 33 23 50 29c-10 108 -33 139 -92 139c-62 0 -121 -35 -171 -95
c-69 40 -147 71 -223 96c-8 -14 -29 -42 -41 -55c80 -22 160 -51 229 -90c-22 -38 -43 -80 -59 -127l-118 11l-5 -61l106 -10c-12 -47 -20 -97 -23 -149h64c3 51 11 100 23 144l295 -27l5 60l-282 27c14 37 31 70 48 99c44 -31 81 -65 108 -103z" />
</svg>
