<?xml version="1.0" standalone="no"?>
<!DOCTYPE svg PUBLIC "-//W3C//DTD SVG 1.1//EN" "http://www.w3.org/Graphics/SVG/1.1/DTD/svg11.dtd" >
<svg xmlns="http://www.w3.org/2000/svg" xmlns:xlink="http://www.w3.org/1999/xlink" version="1.1" viewBox="-10 0 1010 1000">
   <path fill="currentColor"
d="M139 195l48 7c-5 23 -11 44 -18 65c22 20 45 44 58 60l-33 36c-10 -14 -28 -34 -44 -52c-17 32 -38 60 -62 83c-8 -8 -28 -23 -40 -30c48 -40 77 -99 91 -169zM397 558l40 21c-25 83 -66 153 -114 210c32 30 60 59 79 84l-49 41c-17 -24 -43 -52 -73 -81
c-61 56 -131 97 -207 125c-6 -15 -25 -44 -37 -57c73 -24 140 -61 196 -111c-24 -21 -51 -43 -75 -61l45 -36c23 17 48 35 72 55c34 -38 62 -83 83 -133h-141c-37 55 -81 106 -126 144c-9 -12 -31 -38 -44 -49c69 -53 130 -132 166 -218l27 8v-101c-47 55 -108 106 -163 134
c-9 -14 -26 -34 -39 -45c74 -31 157 -99 202 -163v-149h-179v-57h179v-76h61v76h178v57h-178v153c36 -33 60 -80 70 -134l46 9c-4 23 -10 44 -19 65c27 24 58 53 73 73l-34 37c-14 -18 -38 -44 -61 -67c-11 19 -25 37 -40 50c-7 -7 -24 -23 -35 -31v19c41 27 138 98 163 117
l-34 52c-25 -25 -84 -75 -129 -110v99h-31l4 1c-7 17 -15 35 -24 52h136zM783 857h173v64h-441v-64h203v-166h-101c-33 57 -74 106 -122 148c-9 -14 -32 -43 -46 -56c74 -61 128 -141 166 -240h-135v-63h157c9 -28 15 -58 22 -88h-141v-61h154c5 -27 9 -56 13 -84h-194v-63
h134c-13 -32 -36 -80 -58 -115l58 -24c24 37 52 86 64 117l-49 22h115c24 -41 52 -99 66 -140l72 17c-22 42 -45 87 -68 123h122v63h-194c-4 28 -8 57 -13 84h179v61h-191c-7 30 -15 60 -23 88h245v63h-264c-11 29 -23 58 -36 85h270v63h-137v166z" />
</svg>
