<?xml version="1.0" standalone="no"?>
<!DOCTYPE svg PUBLIC "-//W3C//DTD SVG 1.1//EN" "http://www.w3.org/Graphics/SVG/1.1/DTD/svg11.dtd" >
<svg xmlns="http://www.w3.org/2000/svg" xmlns:xlink="http://www.w3.org/1999/xlink" version="1.1" viewBox="-10 0 1010 1000">
   <path fill="currentColor"
d="M202 328l-29 36c-8 -15 -23 -34 -37 -52c-15 32 -33 60 -53 82c-8 -7 -25 -22 -36 -29c41 -40 67 -100 78 -170l42 7c-4 23 -9 44 -15 65c19 21 39 44 50 61zM347 558l35 21c-22 83 -56 153 -99 210c28 30 52 59 68 83l-42 42c-15 -24 -37 -52 -63 -81
c-52 56 -112 96 -177 125c-6 -16 -22 -44 -33 -57c63 -25 121 -61 170 -111c-21 -21 -44 -43 -66 -60l40 -37c20 17 41 36 61 55c30 -38 53 -82 71 -133h-122c-31 56 -68 107 -107 144c-8 -12 -27 -37 -40 -49c60 -53 114 -132 144 -218l24 8v-101c-40 55 -93 106 -140 135
c-9 -14 -24 -35 -34 -45c62 -32 135 -99 174 -162v-151h-153v-57h153v-76h53v76h154v57h-154v154c31 -34 51 -82 61 -135l40 9c-4 23 -10 45 -18 66c24 24 49 53 63 72l-30 38c-11 -18 -32 -45 -51 -67c-11 20 -23 36 -36 50c-6 -8 -19 -24 -29 -31v19c36 28 118 97 140 117
l-30 52c-21 -25 -71 -75 -110 -110v98h-27l2 1c-5 18 -13 35 -21 52h118zM907 117l39 16c-46 195 -157 326 -284 391c-8 -15 -24 -39 -35 -50c43 -20 84 -50 121 -88c-24 -25 -54 -53 -82 -73l33 -32c27 18 58 44 81 68c13 -16 24 -32 35 -49c-25 -21 -57 -45 -85 -61
l28 -36c26 15 56 36 81 55c14 -27 26 -56 35 -86h-119c-33 56 -73 111 -124 158c-4 -5 -10 -11 -16 -17v644h-56v-359h-60v49c0 101 -7 220 -64 312c-10 -12 -31 -28 -45 -34c51 -82 58 -191 58 -279v-48h-23v-64h134v-114h-118v-326h53v262h65v-311h56v221
c68 -68 114 -152 139 -222l57 9c-9 22 -17 43 -28 66h114zM956 542v64h-74v273c0 36 -7 55 -30 66s-59 12 -118 12c-3 -19 -11 -45 -19 -64c44 2 81 2 92 2c11 -1 15 -5 15 -17v-272h-186v-64h186v-117h60v117h74zM777 792l-48 28c-11 -43 -43 -108 -71 -156l45 -23
c30 47 61 112 74 151z" />
</svg>
