<?xml version="1.0" standalone="no"?>
<!DOCTYPE svg PUBLIC "-//W3C//DTD SVG 1.1//EN" "http://www.w3.org/Graphics/SVG/1.1/DTD/svg11.dtd" >
<svg xmlns="http://www.w3.org/2000/svg" xmlns:xlink="http://www.w3.org/1999/xlink" version="1.1" viewBox="-10 0 1010 1000">
   <path fill="currentColor"
d="M801 189h-173c-23 36 -50 68 -79 94c-11 -11 -36 -31 -51 -41c60 -47 107 -120 133 -198l61 13c-9 27 -19 53 -32 78h289v54h-82c-17 51 -43 95 -76 130c55 27 106 55 140 77l-33 50c-36 -25 -91 -56 -152 -88c-52 40 -118 69 -193 90c-5 -14 -22 -40 -33 -54
c64 -14 122 -35 168 -65c-34 -17 -67 -33 -99 -46l32 -44c35 16 75 34 115 52c29 -27 51 -62 65 -102zM405 366h-181c-32 40 -77 69 -130 90c-8 -12 -30 -35 -45 -46c74 -23 127 -60 146 -120h-145v-42h200v-36h-148v-42h148v-37h-171v-41h171v-49h67v49h185v41h-185v37h159
v42h-159v36h189v42h-246c-3 12 -7 23 -11 34h224s-1 16 -2 23c-9 49 -17 75 -34 87c-12 11 -29 14 -51 15c-18 0 -56 0 -97 -3c-1 -12 -6 -29 -12 -42c38 5 73 5 86 5s21 -1 25 -6c7 -6 12 -16 17 -37zM644 769h-301c-10 6 -21 11 -32 17c66 10 141 26 216 43
c45 -17 85 -36 117 -60zM707 723l36 24c-35 41 -82 74 -138 101c69 18 133 35 181 51l-35 45c-55 -18 -137 -41 -225 -64c-122 44 -269 66 -407 77c-4 -16 -15 -38 -23 -52c112 -6 232 -21 337 -46c-55 -13 -110 -25 -160 -34l29 -35c-41 20 -88 37 -140 52
c-9 -14 -26 -32 -38 -41c124 -30 217 -76 266 -123l62 12c-13 13 -26 25 -42 36h285zM529 528v39c28 22 67 41 110 60c-9 -8 -20 -17 -28 -22c42 -20 83 -46 108 -77h-190zM370 605l-17 20c43 -19 82 -38 110 -61v-36h-167l5 1c-6 11 -13 21 -22 29c33 15 69 33 91 47z
M909 620l-27 44c-35 -20 -99 -49 -155 -69c-19 15 -40 31 -62 43c89 34 197 62 293 77c-13 11 -29 34 -37 50c-131 -25 -287 -76 -392 -141v74h-66v-78c-102 65 -254 115 -386 139c-8 -15 -24 -36 -36 -49c95 -13 199 -40 286 -74c-23 -14 -55 -30 -84 -44
c-42 30 -94 54 -143 71c-9 -10 -31 -30 -45 -40c73 -20 144 -51 180 -95h-162v-52h390v-56h66v56h403v52h-147c-6 10 -14 21 -22 30c53 19 113 44 146 62z" />
</svg>
