<?xml version="1.0" standalone="no"?>
<!DOCTYPE svg PUBLIC "-//W3C//DTD SVG 1.1//EN" "http://www.w3.org/Graphics/SVG/1.1/DTD/svg11.dtd" >
<svg xmlns="http://www.w3.org/2000/svg" xmlns:xlink="http://www.w3.org/1999/xlink" version="1.1" viewBox="-10 0 1010 1000">
   <path fill="currentColor"
d="M930 346l-47 39c-35 -25 -86 -55 -144 -85c-59 39 -127 66 -199 85c-8 -13 -27 -36 -41 -46c65 -16 127 -39 180 -70c-53 -25 -108 -49 -158 -70l43 -33c51 20 109 45 164 71c38 -29 71 -63 94 -104h-301v-52h335l12 -2l41 17c-27 69 -70 125 -122 168
c56 29 107 57 143 82zM157 279v49h126v-49h-126zM283 116h-126v43h126v-43zM408 240v-43h-251v43h251zM496 328v43h-402v-298h397v43h-149v43h127v120h-127v49h154zM690 728l62 24c-27 23 -57 44 -86 62c86 23 173 50 230 71l-45 42c-74 -31 -203 -71 -319 -98v59
c0 33 -8 46 -35 55c-29 9 -72 9 -139 9c-4 -16 -14 -36 -23 -51c52 1 96 1 110 1c14 -1 17 -5 17 -15v-58c-121 33 -245 67 -340 91l-25 -48c91 -21 230 -55 365 -89v-87h70v85c23 5 46 11 70 17c31 -21 67 -50 88 -70zM231 751l54 -26c36 17 75 42 96 61l-56 31
c-20 -20 -60 -48 -94 -66zM535 597l33 13c-8 5 -17 11 -26 16c122 45 268 67 411 82c-15 12 -33 32 -42 47c-145 -20 -291 -48 -422 -103c-114 50 -267 88 -410 109c-8 -12 -24 -31 -37 -44c160 -19 340 -62 447 -117h-26v-52c-100 44 -245 83 -360 103
c-10 -14 -29 -34 -45 -45c106 -13 235 -42 329 -75h-308v-45h384v-43c-100 5 -201 7 -294 7c-1 -12 -9 -31 -16 -42c224 -3 499 -14 644 -37l54 39c-87 14 -197 23 -316 30v46h394v45h-273c101 26 206 57 272 82l-39 40c-80 -32 -228 -76 -354 -108v52z" />
</svg>
