<?xml version="1.0" standalone="no"?>
<!DOCTYPE svg PUBLIC "-//W3C//DTD SVG 1.1//EN" "http://www.w3.org/Graphics/SVG/1.1/DTD/svg11.dtd" >
<svg xmlns="http://www.w3.org/2000/svg" xmlns:xlink="http://www.w3.org/1999/xlink" version="1.1" viewBox="-10 0 1010 1000">
   <path fill="currentColor"
d="M396 592l55 29c-27 37 -58 79 -84 109c37 31 72 62 94 84l-35 48c-28 -29 -75 -72 -120 -111v127c0 31 -4 46 -26 57c-19 10 -49 11 -90 11c-4 -17 -15 -42 -23 -58c30 1 55 1 64 1c9 -1 12 -4 12 -12v-103c-57 34 -115 67 -165 94l-27 -54c50 -23 119 -59 192 -97v-169
h63v130l22 19c24 -32 52 -75 68 -105zM98 632l43 -29c27 28 60 68 77 92l-45 34c-16 -26 -49 -66 -75 -97zM470 368l-39 50c-24 -24 -83 -69 -127 -101v99l25 17c-4 5 -9 10 -14 15c48 27 126 74 149 89l-31 57c-31 -26 -107 -79 -156 -108c-62 58 -143 111 -215 139
c-6 -18 -20 -45 -31 -62c74 -25 160 -74 220 -125h-10v-129c-49 64 -115 128 -176 162c-5 -19 -20 -46 -30 -63c61 -29 132 -87 177 -143h-159v-57h188v-70c-55 5 -112 8 -163 10c-3 -15 -10 -38 -17 -53c120 -7 267 -22 349 -43l42 54c-42 11 -93 19 -148 25v77h151v57
h-140c43 26 130 85 155 103zM674 580h-122v107h122v-107zM862 687v-107h-124v107h124zM738 856h124v-110h-124v110zM552 856h122v-110h-122v110zM486 957v-440h444v440h-68v-38h-310v38h-66zM827 392v-108h-235v108h235zM527 226h367v225h-367v-225zM466 97h485v65h-485v-65
z" />
</svg>
