<?xml version="1.0" standalone="no"?>
<!DOCTYPE svg PUBLIC "-//W3C//DTD SVG 1.1//EN" "http://www.w3.org/Graphics/SVG/1.1/DTD/svg11.dtd" >
<svg xmlns="http://www.w3.org/2000/svg" xmlns:xlink="http://www.w3.org/1999/xlink" version="1.1" viewBox="-10 0 1010 1000">
   <path fill="currentColor"
d="M418 359l-37 -14c16 -41 38 -108 48 -152l49 18c-19 50 -42 110 -60 148zM185 210l42 -13c22 46 39 107 45 146l-44 15c-6 -40 -24 -101 -43 -148zM159 156v232h146v-232h-146zM499 388v-232h-140v232h140zM72 722l-9 -64c64 -3 145 -7 235 -13v-71h-195v-62h195v-67
h-205v-346h475v346h-202v67h191v62h-191v67l223 -13l-2 58c-185 14 -380 27 -515 36zM112 958l-59 -28c31 -48 59 -126 74 -183l57 22c-16 59 -41 139 -72 189zM242 762l58 -8c16 57 26 131 27 180l-63 10c1 -49 -8 -125 -22 -182zM370 749l57 -13c22 54 41 124 48 170
l-61 15c-4 -47 -23 -118 -44 -172zM494 732l52 -18c27 46 53 106 64 146l-56 22c-10 -41 -35 -103 -60 -150zM722 155v552h-66v-552h66zM833 63h71v804c0 45 -13 65 -41 76c-30 12 -77 14 -159 13c-4 -19 -15 -47 -23 -67c59 3 113 2 129 1c17 -1 23 -6 23 -23v-804z" />
</svg>
