<?xml version="1.0" standalone="no"?>
<!DOCTYPE svg PUBLIC "-//W3C//DTD SVG 1.1//EN" "http://www.w3.org/Graphics/SVG/1.1/DTD/svg11.dtd" >
<svg xmlns="http://www.w3.org/2000/svg" xmlns:xlink="http://www.w3.org/1999/xlink" version="1.1" viewBox="-10 0 1010 1000">
   <path fill="currentColor"
d="M355 345l-32 -14c14 -42 34 -112 43 -158l44 15c-18 52 -37 117 -55 157zM154 183l38 -10c16 48 30 111 33 151l-40 12c-2 -42 -14 -105 -31 -153zM139 133v242h119v-242h-119zM420 375v-242h-111v242h111zM56 715l-3 -65c54 -2 123 -6 197 -10v-77h-177v-60h177v-73
h-169v-353h400v353h-164v73h164v60h-164v73c58 -3 119 -6 180 -10l-2 60c-159 12 -325 22 -439 29zM92 958l-55 -24c26 -50 52 -132 67 -185l50 23c-16 54 -39 134 -62 186zM198 764l50 -4c9 54 16 124 16 170l-54 5c2 -46 -4 -117 -12 -171zM299 756l48 -8
c19 52 38 118 43 160l-52 10c-4 -43 -21 -110 -39 -162zM403 744l49 -14c28 47 54 110 62 151l-51 17c-8 -42 -34 -106 -60 -154zM960 437v70h-200v450h-73v-450h-183v-70h183v-269h-159v-68h399v68h-167v269h200z" />
</svg>
