<?xml version="1.0" standalone="no"?>
<!DOCTYPE svg PUBLIC "-//W3C//DTD SVG 1.1//EN" "http://www.w3.org/Graphics/SVG/1.1/DTD/svg11.dtd" >
<svg xmlns="http://www.w3.org/2000/svg" xmlns:xlink="http://www.w3.org/1999/xlink" version="1.1" viewBox="-10 0 1010 1000">
   <path fill="currentColor"
d="M357 345l-32 -14c14 -41 34 -112 42 -158l44 15c-18 53 -37 117 -54 157zM157 183l36 -10c17 48 30 112 33 152l-39 11c-2 -41 -15 -105 -30 -153zM142 133v242h118v-242h-118zM421 375v-242h-111v242h111zM60 715l-4 -65c54 -2 122 -6 196 -10v-77h-175v-60h175v-73
h-168v-353h397v353h-163v73h164v60h-164v73c58 -3 119 -6 179 -10l-1 60c-159 12 -323 22 -436 29zM95 958l-54 -24c25 -50 51 -132 66 -185l50 23c-17 54 -39 134 -62 186zM200 765l49 -5c10 55 16 124 15 169l-52 6c1 -46 -5 -117 -12 -170zM299 757l48 -8
c19 51 36 117 42 160l-51 10c-5 -44 -21 -111 -39 -162zM402 745l48 -15c28 47 53 110 62 150l-51 18c-8 -41 -34 -105 -59 -153zM790 627l-53 48c-32 -58 -105 -146 -171 -208l48 -41c67 59 143 142 176 201zM935 215v38c-11 462 -20 616 -54 662c-19 27 -38 36 -70 40
c-30 3 -82 2 -133 -1c-2 -21 -9 -51 -21 -71c56 5 107 5 128 5c17 0 27 -3 37 -15c26 -34 38 -181 47 -589h-251c-22 58 -48 109 -76 151c-13 -12 -41 -35 -58 -44c63 -84 109 -214 134 -347l67 14c-11 54 -26 107 -42 157h292z" />
</svg>
