<?xml version="1.0" standalone="no"?>
<!DOCTYPE svg PUBLIC "-//W3C//DTD SVG 1.1//EN" "http://www.w3.org/Graphics/SVG/1.1/DTD/svg11.dtd" >
<svg xmlns="http://www.w3.org/2000/svg" xmlns:xlink="http://www.w3.org/1999/xlink" version="1.1" viewBox="-10 0 1010 1000">
   <path fill="currentColor"
d="M392 152v69v14h232v-83h-232zM624 293h-247c-27 57 -97 107 -251 139c-8 -14 -31 -39 -44 -49c120 -24 181 -55 211 -90h-216v-58h240c1 -5 1 -11 1 -16v-67h-192v-57h750v57h-178v83h225v58h-225v118h-74v-118zM133 960l-69 -27c38 -29 90 -74 126 -115l68 20
c-37 40 -87 91 -125 122zM348 839l65 -7c11 37 21 85 24 112l-70 12c-3 -30 -11 -79 -19 -117zM551 839l67 -13c19 34 39 82 46 111l-70 17c-6 -30 -26 -78 -43 -115zM748 840l60 -28c45 33 100 83 128 116l-65 32c-23 -33 -79 -83 -123 -120zM640 567l-34 -20
c15 -21 37 -54 48 -76l43 24c-20 29 -40 53 -57 72zM300 495l42 -22c19 20 41 49 50 70l-44 23c-9 -22 -29 -51 -48 -71zM229 567h234v-96h-234v96zM779 471h-245v96h245v-96zM534 757h408v52h-883v-52h404v-52h-315v-46h315v-51h-298v-179h681v179h-312v51h335v46h-335v52z
" />
</svg>
