<?xml version="1.0" standalone="no"?>
<!DOCTYPE svg PUBLIC "-//W3C//DTD SVG 1.1//EN" "http://www.w3.org/Graphics/SVG/1.1/DTD/svg11.dtd" >
<svg xmlns="http://www.w3.org/2000/svg" xmlns:xlink="http://www.w3.org/1999/xlink" version="1.1" viewBox="-10 0 1010 1000">
   <path fill="currentColor"
d="M314 344l-31 -12c14 -42 34 -113 43 -159l40 16c-17 51 -36 115 -52 155zM138 183l36 -8c13 48 27 111 32 151l-37 11c-6 -42 -19 -105 -31 -154zM127 134v241h102v-241h-102zM377 375v-241h-101v241h101zM53 715l-4 -64c48 -3 106 -7 171 -12v-76h-149v-59h149v-74h-145
v-351h356v351h-147v74h142v59h-142v72l158 -12l-1 60c-141 13 -285 24 -388 32zM90 951l-50 -23c23 -50 51 -133 65 -186l47 22c-15 53 -40 135 -62 187zM188 754l47 -3c6 59 10 133 9 182l-50 3c2 -49 -1 -124 -6 -182zM277 759l48 -6c13 54 27 124 31 169l-48 9
c-4 -46 -17 -117 -31 -172zM376 760l46 -12c19 52 42 119 50 163l-48 14c-8 -45 -30 -113 -48 -165zM829 674v-96h-221v96h221zM608 841h221v-109h-221v109zM955 427h-207c-31 32 -64 63 -98 91h249v434h-70v-51h-221v55h-67v-357c-24 15 -49 30 -73 44
c-6 -16 -24 -48 -36 -63c80 -40 156 -92 224 -153h-190v-65h146v-131h-119v-64h119v-122h70v122h110v64h-110v131h41c69 -73 127 -157 171 -247l59 22c-40 81 -89 156 -147 225h149v65z" />
</svg>
