<?xml version="1.0" standalone="no"?>
<!DOCTYPE svg PUBLIC "-//W3C//DTD SVG 1.1//EN" "http://www.w3.org/Graphics/SVG/1.1/DTD/svg11.dtd" >
<svg xmlns="http://www.w3.org/2000/svg" xmlns:xlink="http://www.w3.org/1999/xlink" version="1.1" viewBox="-10 0 1010 1000">
   <path fill="currentColor"
d="M309 345l-27 -13c12 -43 29 -113 37 -159l37 16c-15 51 -32 116 -47 156zM138 183l31 -10c15 48 27 111 29 152l-35 11c-1 -41 -12 -104 -25 -153zM126 133v242h99v-242h-99zM368 375v-242h-98v242h98zM53 715l-2 -65c46 -2 103 -6 167 -10v-77h-150v-60h150v-73h-143
v-353h346v353h-144v73h142v60h-142v74c51 -4 104 -7 156 -11l-1 61c-138 11 -280 21 -379 28zM86 959l-49 -25c21 -50 44 -131 57 -185l45 24c-14 54 -34 135 -53 186zM171 764l46 -5c8 55 13 125 13 170l-48 6c1 -46 -4 -116 -11 -171zM256 756l44 -8c15 52 30 117 35 160
l-46 10c-4 -43 -18 -111 -33 -162zM343 745l42 -15c24 47 46 110 53 150l-45 18c-7 -41 -28 -105 -50 -153zM660 143v686c0 44 7 54 52 54h9v-740h-61zM506 721h99v-114h-99v114zM605 440h-99v109h99v-109zM529 252h76v-109h-76v109zM855 253v-110h-80v110h80zM878 439h-103
v110h103v-110zM775 720h103v-113h-103v113zM775 883h94c34 0 40 -16 44 -83c13 9 34 18 49 22c-6 88 -22 115 -90 115h-163c-82 0 -104 -23 -104 -109v-47h-155v-401h155v-73h-129v-220h433v221h-134v72h157v399h-157v104z" />
</svg>
