<?xml version="1.0" standalone="no"?>
<!DOCTYPE svg PUBLIC "-//W3C//DTD SVG 1.1//EN" "http://www.w3.org/Graphics/SVG/1.1/DTD/svg11.dtd" >
<svg xmlns="http://www.w3.org/2000/svg" xmlns:xlink="http://www.w3.org/1999/xlink" version="1.1" viewBox="-10 0 1010 1000">
   <path fill="currentColor"
d="M861 102l59 24c-26 52 -59 110 -85 149l-51 -22c25 -40 60 -105 77 -151zM722 44v131c0 41 29 156 227 208c-12 15 -29 39 -37 54c-149 -41 -209 -134 -223 -179c-13 46 -73 135 -230 179c-7 -14 -23 -37 -36 -51c204 -57 233 -170 233 -211v-131h66zM520 104l57 10
c-5 51 -20 124 -43 169l-56 -19c21 -41 37 -108 42 -160zM242 424v-132c-44 57 -101 109 -155 139c-10 -15 -28 -35 -42 -47c63 -27 128 -82 172 -139h-153v-53h178v-63c-50 5 -101 8 -147 10c-3 -13 -10 -32 -16 -46c113 -7 255 -22 335 -43l27 47c-36 10 -82 18 -132 24
v71h144v53h-134c36 24 106 75 124 90l-33 51c-19 -20 -65 -62 -101 -93v131h-67zM544 893v-409h-94v358c0 40 14 51 94 51zM175 749v51h213v-51h-213zM388 660h-213v47h213v-47zM203 529h185v-45h-185v45zM800 527v-43h-193v43h193zM826 659h-219v47h219v-47zM607 796h219
v-49h-219v49zM607 893h232c53 0 64 -13 69 -79c16 9 38 16 56 20c-9 86 -29 109 -121 109h-299c-119 0 -155 -18 -156 -98h-282v-230h282v-43h-253v-132h735v131h-263v43h288v227h-288v52z" />
</svg>
