<?xml version="1.0" standalone="no"?>
<!DOCTYPE svg PUBLIC "-//W3C//DTD SVG 1.1//EN" "http://www.w3.org/Graphics/SVG/1.1/DTD/svg11.dtd" >
<svg xmlns="http://www.w3.org/2000/svg" xmlns:xlink="http://www.w3.org/1999/xlink" version="1.1" viewBox="-10 0 1010 1000">
   <path fill="currentColor"
d="M763 381v-95h-132v-54h132v-81h-106v-53h257v53h-90v81h117v54h-117v96c0 28 -5 43 -29 52c-22 9 -58 9 -115 9c-2 -15 -10 -35 -19 -50c42 1 78 1 88 0c11 0 14 -3 14 -12zM546 351v-180h-97v180h97zM605 110v302h-212v-302h212zM363 397l-45 45
c-17 -24 -59 -72 -90 -105c-24 45 -66 92 -142 130c-9 -15 -26 -35 -39 -47c79 -34 118 -77 136 -119h-125v-54h140c2 -13 2 -25 2 -36v-48h-44c-15 27 -32 53 -50 72c-11 -9 -35 -24 -49 -31c40 -40 71 -98 89 -158l55 12c-5 18 -12 35 -19 52h178v53h-103v48
c0 12 -1 23 -2 36h118v54h-109c31 28 84 80 99 96zM544 896v-387h-94v338c0 39 14 49 94 49zM175 759v49h213v-49h-213zM388 674h-213v46h213v-46zM203 551h185v-42h-185v42zM800 550v-41h-193v41h193zM826 673h-219v45h219v-45zM607 804h219v-46h-219v46zM607 896h232
c53 0 64 -12 69 -75c16 8 38 15 56 18c-9 82 -29 105 -121 105h-299c-119 0 -155 -18 -156 -94h-282v-219h282v-39h-253v-125h735v124h-263v40h288v215h-288v50z" />
</svg>
