<?xml version="1.0" standalone="no"?>
<!DOCTYPE svg PUBLIC "-//W3C//DTD SVG 1.1//EN" "http://www.w3.org/Graphics/SVG/1.1/DTD/svg11.dtd" >
<svg xmlns="http://www.w3.org/2000/svg" xmlns:xlink="http://www.w3.org/1999/xlink" version="1.1" viewBox="-10 0 1010 1000">
   <path fill="currentColor"
d="M811 120h-232c-48 23 -103 43 -167 61c-8 -12 -23 -31 -33 -40c113 -26 204 -63 254 -104l57 12c-13 11 -28 22 -43 32h208l11 -3l36 21c-89 116 -290 160 -487 179c-6 -13 -18 -33 -27 -45c45 -3 91 -8 136 -14c-15 -13 -31 -26 -45 -36l38 -21c20 14 43 31 61 48
c23 -5 46 -10 67 -16c-18 -14 -40 -30 -60 -42l37 -20c23 12 51 31 73 48c46 -16 85 -36 116 -60zM331 619v32h330v-32h-330zM331 554v29h330v-29h-330zM331 489v29h330v-29h-330zM264 686v-233h467v233h-467zM187 310v6c0 33 -16 100 -86 138c-13 -12 -38 -26 -52 -33
c65 -33 77 -82 77 -108v-3h-71v-48h232v-58h-181v-148h63v100h118v-114h67v386h-67v-118h-100zM191 511v201h251v241h-69v-111h-130c-2 35 -25 92 -131 121c-14 -11 -39 -25 -54 -33c98 -23 119 -63 122 -88h-129v-44h322v-41h-251v-246h69zM904 800v148h-69v-104h-210v109
h-69v-237h259v-219h71v263h-261v40h279zM816 288h131v42h-131v57c0 33 -8 43 -34 51c-26 7 -68 7 -137 7c-5 -15 -14 -32 -21 -45c50 2 95 1 106 0c14 -1 18 -4 18 -15v-55h-232c35 19 75 43 96 63l-49 34c-25 -23 -73 -55 -114 -74l34 -23h-98v-42h363v-64h68v64z" />
</svg>
