<?xml version="1.0" standalone="no"?>
<!DOCTYPE svg PUBLIC "-//W3C//DTD SVG 1.1//EN" "http://www.w3.org/Graphics/SVG/1.1/DTD/svg11.dtd" >
<svg xmlns="http://www.w3.org/2000/svg" xmlns:xlink="http://www.w3.org/1999/xlink" version="1.1" viewBox="-10 0 1010 1000">
   <path fill="currentColor"
d="M256 174v-38h-186v-43h186v-49h70v49h172v43h-172v38h156v42h-385v-42h159zM176 287v51h222v-51h-222zM482 423v48c-149 14 -303 28 -412 37l-9 -53l116 -8c-4 -19 -12 -40 -21 -58l53 -11c11 19 21 47 25 65l94 -8c11 -19 24 -43 30 -60h-243v-125h347v125h-95l50 13
c-9 16 -19 30 -28 43zM742 783h-481v81h481v-81zM188 957v-229h629v226h-75v-36h-481v39h-73zM342 620h301c-61 -25 -114 -52 -154 -76c-44 27 -93 52 -147 76zM549 484l13 5c-7 7 -16 13 -25 20c91 53 264 110 425 136c-17 13 -39 39 -50 56c-72 -13 -146 -36 -215 -60v32
h-398v-35c-67 26 -138 49 -212 67c-9 -14 -31 -40 -47 -53c184 -42 364 -109 454 -190l52 21c-7 -15 -20 -38 -32 -49c54 -9 108 -24 155 -44c-44 -21 -88 -41 -129 -56l30 -38c49 18 103 41 156 65c39 -23 70 -51 94 -84h-292v-50h152v-61h-166v-53h166v-69h70v69h183v53
h-183v61h105l12 -2l37 17c-25 61 -67 109 -119 147c52 25 99 50 132 72l-31 45c-38 -25 -92 -56 -153 -86c-56 29 -118 50 -184 64z" />
</svg>
