<?xml version="1.0" standalone="no"?>
<!DOCTYPE svg PUBLIC "-//W3C//DTD SVG 1.1//EN" "http://www.w3.org/Graphics/SVG/1.1/DTD/svg11.dtd" >
<svg xmlns="http://www.w3.org/2000/svg" xmlns:xlink="http://www.w3.org/1999/xlink" version="1.1" viewBox="-10 0 1010 1000">
   <path fill="currentColor"
d="M478 97v335h-396v-310c42 -15 106 -46 143 -65l38 45c-37 21 -82 38 -121 51v84h121v56h-121v82h276v-82h-129v-56h129v-82h-127v-58h187zM243 748l-37 29c-13 -20 -37 -49 -61 -72v154l52 -18c1 16 5 37 7 49c-101 40 -122 51 -134 61c-4 -13 -18 -36 -28 -48
c17 -9 47 -30 47 -72v-367h56v98l26 -18c25 21 56 52 72 73l-38 29c-12 -18 -36 -45 -60 -66v108l26 -18c26 22 57 56 72 78zM407 616l-36 31c-14 -19 -40 -48 -66 -69v112l25 -18c28 23 61 59 77 81l-37 29c-14 -20 -40 -50 -65 -74v154l81 -28c1 16 3 38 6 49
c-123 48 -146 58 -159 69c-4 -13 -17 -33 -26 -43c15 -9 41 -30 41 -71v-373h57v98l26 -21c27 22 60 53 76 74zM408 468h59c-5 261 5 430 27 430c10 0 15 -28 17 -84c12 13 29 22 42 28c-8 84 -24 113 -63 113c-69 0 -81 -202 -82 -487zM955 552v68h-193v337h-69v-337h-188
v-68h188v-384h-162v-67h408v67h-177v384h193zM527 240l57 -17c31 78 56 178 64 245l-62 17c-7 -66 -31 -168 -59 -245zM857 485l-55 -15c24 -67 53 -177 66 -252l68 17c-23 83 -53 187 -79 250z" />
</svg>
