<?xml version="1.0" standalone="no"?>
<!DOCTYPE svg PUBLIC "-//W3C//DTD SVG 1.1//EN" "http://www.w3.org/Graphics/SVG/1.1/DTD/svg11.dtd" >
<svg xmlns="http://www.w3.org/2000/svg" xmlns:xlink="http://www.w3.org/1999/xlink" version="1.1" viewBox="-10 0 1010 1000">
   <path fill="currentColor"
d="M443 97v337h-371v-315c43 -15 107 -46 144 -65l37 45c-35 21 -80 37 -118 50v87h101v55h-101v86h245v-86h-105v-55h105v-81h-105v-58h168zM133 691l33 -21c22 18 48 45 64 65v-123l-31 24c-15 -19 -42 -46 -66 -65v120zM376 468h60c-5 270 7 428 32 428
c11 0 17 -26 19 -87c14 12 31 21 45 26c-8 90 -25 118 -68 118c-63 0 -81 -134 -86 -345l-32 27c-14 -16 -37 -40 -60 -58v112l23 -16c27 20 59 52 74 72l-37 29c-13 -19 -37 -43 -60 -65v154l76 -27c1 15 5 37 8 50c-114 47 -137 58 -149 69c-4 -16 -13 -42 -23 -56
c15 -6 32 -17 32 -53v-103l-34 25c-13 -20 -40 -49 -63 -70v165l66 -24c1 16 5 38 8 51c-106 43 -128 54 -140 65c-4 -16 -15 -44 -24 -58c13 -7 32 -20 32 -56v-370h58v98l34 -25c21 16 47 38 63 56v-128h56v90l25 -19c23 17 50 39 67 57c-1 -41 -2 -85 -2 -132zM562 596
h311c-58 -31 -111 -69 -158 -117c-47 46 -99 86 -153 117zM613 850h207v-189h-207v189zM820 206h-182c-4 9 -8 17 -12 25c26 60 56 110 90 151c42 -51 79 -110 104 -176zM865 138l44 23c-34 107 -85 197 -149 270c59 58 127 96 204 131c-17 13 -36 37 -45 58l-30 -15v345
h-69v-36h-207v41h-66v-350c-16 9 -31 17 -47 24c-9 -17 -30 -46 -45 -58c78 -33 153 -81 217 -142c-30 -38 -58 -83 -84 -136c-16 26 -35 49 -56 72c-11 -15 -35 -36 -52 -44c78 -81 125 -190 147 -276l68 9c-8 28 -18 58 -29 87h186z" />
</svg>
