<?xml version="1.0" standalone="no"?>
<!DOCTYPE svg PUBLIC "-//W3C//DTD SVG 1.1//EN" "http://www.w3.org/Graphics/SVG/1.1/DTD/svg11.dtd" >
<svg xmlns="http://www.w3.org/2000/svg" xmlns:xlink="http://www.w3.org/1999/xlink" version="1.1" viewBox="-10 0 1010 1000">
   <path fill="currentColor"
d="M356 194v-40h-198v40h198zM356 276v-41h-198v41h198zM356 359v-42h-198v42h198zM416 112v289h-316v-289h112c9 -24 18 -51 22 -71l67 11c-9 21 -19 41 -26 60h141zM389 527v-43h-106v43h106zM389 613v-45h-106v45h106zM123 568v45h106v-45h-106zM123 484v43h106v-43h-106
zM444 441v214h-374v-214h374zM41 755v-58h425v58h-92v195h-60v-195h-103c-13 96 -43 163 -131 204c-7 -15 -25 -38 -37 -49c72 -31 98 -81 108 -155h-110zM830 692h-252v66h252v-66zM578 874h252v-68h-252v68zM520 958v-318h370v314h-60v-27h-252v31h-58zM786 529l-31 -15
c14 -28 33 -71 42 -98l38 18c-17 35 -34 70 -49 95zM567 430l34 -13c17 28 34 67 40 92l-35 17c-6 -27 -22 -66 -39 -96zM539 399v144h137v-144h-137zM864 543v-144h-137v144h137zM485 594v-247h434v247h-434zM685 28l58 21c-3 7 -7 14 -11 19c60 73 161 150 241 190
c-15 13 -33 39 -44 58c-72 -44 -164 -122 -227 -199c-31 46 -68 86 -110 122h231v53h-242v-44c-34 28 -70 53 -110 73c-10 -14 -28 -40 -42 -52c113 -55 210 -145 256 -241z" />
</svg>
