<?xml version="1.0" standalone="no"?>
<!DOCTYPE svg PUBLIC "-//W3C//DTD SVG 1.1//EN" "http://www.w3.org/Graphics/SVG/1.1/DTD/svg11.dtd" >
<svg xmlns="http://www.w3.org/2000/svg" xmlns:xlink="http://www.w3.org/1999/xlink" version="1.1" viewBox="-10 0 1010 1000">
   <path fill="currentColor"
d="M266 488l-31 31c-7 -13 -18 -30 -29 -47c-11 28 -26 53 -43 72c-6 -8 -21 -24 -31 -31c37 -40 53 -98 60 -167l42 6c-3 26 -7 51 -14 74c19 22 37 47 46 62zM409 799l-30 31c-11 -18 -30 -46 -49 -71c-12 27 -28 52 -47 71c-7 -7 -21 -23 -31 -31c40 -39 58 -97 67 -166
l41 5c-3 27 -8 52 -15 76c24 29 50 63 64 85zM132 853l278 -13v-225h-278v185c37 -40 52 -100 59 -168l42 6c-3 26 -7 51 -14 75c19 22 38 48 49 64l-31 31c-7 -14 -20 -31 -31 -49c-12 28 -26 53 -44 73c-6 -8 -19 -23 -30 -30v51zM410 558v-199h56v575h-56v-44l-332 20
v-551h54v199h278zM317 347l42 6c-3 26 -8 51 -15 74c24 27 49 60 61 82l-28 31c-11 -19 -30 -46 -48 -70c-12 27 -28 52 -47 71c-6 -7 -20 -24 -30 -31c39 -39 57 -95 65 -163zM308 189v76h187v60h-450v-60h68v-164h58v164h75v-221h62v88h156v57h-156zM713 376h-112v238h112
v-238zM771 674h-170v68h-56v-426h226v358zM957 110v69h-56v681c0 48 -10 70 -39 82c-30 12 -80 14 -157 14c-2 -20 -13 -54 -23 -75c60 2 115 2 132 1c16 0 21 -5 21 -22v-681h-323v-69h445z" />
</svg>
