<?xml version="1.0" standalone="no"?>
<!DOCTYPE svg PUBLIC "-//W3C//DTD SVG 1.1//EN" "http://www.w3.org/Graphics/SVG/1.1/DTD/svg11.dtd" >
<svg xmlns="http://www.w3.org/2000/svg" xmlns:xlink="http://www.w3.org/1999/xlink" version="1.1" viewBox="-10 0 1010 1000">
   <path fill="currentColor"
d="M135 853l257 -12v-225h-257v183c33 -43 47 -103 55 -169l41 5c-3 27 -8 52 -14 76c16 20 34 46 43 62c22 -39 34 -88 40 -142l40 5c-3 25 -7 49 -13 72c23 28 48 64 60 86l-30 30c-9 -19 -26 -46 -43 -70c-11 28 -25 54 -42 73c-6 -6 -20 -21 -30 -28c6 -7 11 -14 15 -21
l-27 24c-6 -13 -16 -28 -27 -45c-11 29 -25 55 -42 76c-5 -7 -16 -18 -26 -26v46zM392 558v-199h55v567h-55v-32l-314 18v-553h57v151c33 -41 47 -99 55 -162l41 5c-3 23 -7 45 -13 67c15 20 32 47 41 65c22 -38 35 -86 42 -137l41 6c-4 23 -8 46 -14 68c23 27 46 61 58 82
l-29 32c-9 -20 -26 -46 -43 -70c-11 27 -25 52 -43 72c-6 -7 -20 -22 -30 -30c6 -7 12 -15 17 -23l-32 25c-5 -12 -14 -26 -22 -42c-11 27 -24 52 -40 71c-5 -6 -19 -20 -29 -27v46h257zM312 189v78h160v59h-426v-59h67v-166h58v166h80v-223h61v88h127v57h-127zM835 217
h-185c-33 73 -72 138 -112 188c-11 -11 -39 -31 -56 -41c69 -79 129 -201 164 -323l65 17c-10 33 -22 66 -34 98h189l11 -3l43 26c-29 80 -78 176 -121 237c-13 -10 -34 -23 -50 -30c30 -45 63 -111 86 -169zM724 520v-63h192v495h-65v-43h-289v47h-67v-472
c56 -26 121 -62 159 -91l52 51c-43 25 -95 49 -144 70v132h117v62h-117v136h289v-136h-128v-62h128v-126h-127z" />
</svg>
