<?xml version="1.0" standalone="no"?>
<!DOCTYPE svg PUBLIC "-//W3C//DTD SVG 1.1//EN" "http://www.w3.org/Graphics/SVG/1.1/DTD/svg11.dtd" >
<svg xmlns="http://www.w3.org/2000/svg" xmlns:xlink="http://www.w3.org/1999/xlink" version="1.1" viewBox="-10 0 1010 1000">
   <path fill="currentColor"
d="M957 303v52h-472v-52h202v-56h-157v-49h157v-49h-169v-51h169v-54h64v54h184v51h-184v49h166v49h-166v56h206zM595 675v65h258v-65h-258zM595 565v62h258v-62h-258zM595 454v63h258v-63h-258zM915 790h-380v-386h380v386zM469 267v59h-424v-59h66v-166h58v166h81v-223h61
v88h126v57h-126v78h158zM299 349l40 4c-3 25 -7 48 -12 70c23 29 45 63 58 85l-30 30c-10 -19 -26 -45 -42 -69c-11 26 -24 51 -42 70c-5 -8 -19 -23 -29 -31c36 -38 51 -94 57 -159zM259 484l-32 26c-5 -11 -14 -26 -23 -41c-10 27 -24 52 -41 71c-6 -7 -20 -23 -30 -30
c36 -40 50 -96 56 -162l40 4c-3 24 -6 47 -11 69c17 22 33 46 41 63zM386 796l-30 29c-10 -18 -26 -44 -42 -68c-11 27 -24 52 -42 72c-6 -7 -20 -23 -30 -31c36 -40 51 -98 57 -167l40 5c-3 26 -6 49 -12 72c23 29 47 65 59 88zM133 853l258 -12v-225h-258v186
c36 -42 49 -103 56 -172l41 6c-3 26 -7 51 -13 75c17 21 33 45 42 62l-30 27c-6 -11 -15 -27 -26 -43c-10 30 -24 56 -40 77c-6 -8 -20 -23 -30 -30v49zM391 558v-199h54v565h-54v-32l-313 18v-551h55v199h258zM626 798l55 39c-50 48 -130 96 -198 124
c-9 -15 -25 -38 -36 -52c65 -24 142 -71 179 -111zM760 840l43 -38c57 34 119 81 156 117l-55 38c-33 -35 -92 -82 -144 -117z" />
</svg>
