<?xml version="1.0" standalone="no"?>
<!DOCTYPE svg PUBLIC "-//W3C//DTD SVG 1.1//EN" "http://www.w3.org/Graphics/SVG/1.1/DTD/svg11.dtd" >
<svg xmlns="http://www.w3.org/2000/svg" xmlns:xlink="http://www.w3.org/1999/xlink" version="1.1" viewBox="-10 0 1010 1000">
   <path fill="currentColor"
d="M591 223l31 -21h-163v-62h219c-5 -27 -13 -63 -23 -91l66 -9c12 31 24 73 28 100h193v62h-312c25 22 53 51 65 72l-39 29c-12 -24 -39 -57 -65 -80zM673 526v-201c30 -32 69 -85 89 -121l52 19c-29 38 -64 79 -94 108v195h-47zM592 333h-37c-5 55 -15 104 -34 142
c19 2 33 2 41 2c9 1 13 0 18 -7c6 -10 9 -44 12 -137zM469 283h173s-1 14 -1 22c-3 131 -8 181 -22 197c-8 12 -20 18 -39 18c-11 2 -33 2 -51 1c-2 -14 -5 -29 -10 -42c-13 23 -27 43 -47 60c-5 -9 -20 -29 -30 -37c44 -38 60 -95 66 -169h-39v-50zM447 265v60h-403v-60h71
v-164h56v164h61v-221h60v88h127v57h-127v76h155zM133 851l234 -11v-39l-30 23c-8 -15 -20 -36 -33 -56c-8 26 -20 50 -35 68c-5 -7 -21 -20 -30 -27c4 -6 9 -13 13 -20l-19 17c-7 -12 -18 -29 -29 -44c-9 30 -21 57 -39 78c-6 -8 -21 -21 -31 -28c35 -43 45 -105 50 -176
l41 4c-2 26 -5 52 -10 76c16 19 33 42 45 59c16 -39 22 -87 26 -139l40 4c-2 28 -5 55 -11 81c20 24 41 54 52 74v-178h-234v234zM367 507v-148h52v575h-52v-38l-289 17v-554h55v202h234v-51l-32 25c-8 -15 -20 -36 -32 -55c-9 27 -21 51 -36 70c-7 -7 -22 -20 -31 -27
c5 -7 10 -15 14 -23l-16 15c-7 -12 -18 -27 -30 -42c-9 28 -21 53 -38 73c-6 -7 -20 -20 -30 -27c34 -42 44 -104 49 -174l41 4c-2 27 -6 53 -11 78c17 17 33 38 45 54c15 -38 20 -84 24 -135l41 3c-2 29 -5 57 -11 83c20 25 42 56 53 75zM578 747h247v-75h-244v6
c0 21 -1 45 -3 69zM825 616v-72h66v409h-66v-149h-257c-13 56 -36 110 -81 155c-12 -11 -35 -28 -51 -36c71 -70 82 -172 82 -246v-132h63v71h244zM898 247l44 35c-18 11 -40 20 -63 29c16 71 43 140 84 174c-12 9 -28 25 -36 39c-45 -41 -72 -118 -87 -199
c-11 4 -23 8 -35 11v125l59 -16c1 13 4 31 7 41c-83 27 -101 36 -112 45v-1c-4 -11 -17 -30 -25 -40c11 -6 23 -19 23 -57v-125l-1 -2c51 -16 110 -38 142 -59z" />
</svg>
