<?xml version="1.0" standalone="no"?>
<!DOCTYPE svg PUBLIC "-//W3C//DTD SVG 1.1//EN" "http://www.w3.org/Graphics/SVG/1.1/DTD/svg11.dtd" >
<svg xmlns="http://www.w3.org/2000/svg" xmlns:xlink="http://www.w3.org/1999/xlink" version="1.1" viewBox="-10 0 1010 1000">
   <path fill="currentColor"
d="M945 220l-50 32c-13 -39 -46 -102 -78 -147l47 -28c32 43 67 103 81 143zM432 267v59h-383v-59h60v-166h56v166h74v-223h57v88h115v57h-115v78h136zM286 348l38 5c-3 26 -7 49 -13 72c20 28 41 61 51 83l-29 28c-8 -16 -22 -41 -36 -64c-10 25 -22 48 -37 66
c-5 -8 -20 -22 -29 -30c35 -38 49 -94 55 -160zM522 730v67h81v-67h-81zM603 566v-65h-81v65h81zM603 681v-65h-81v65h81zM128 854l235 -12v-226h-235v185c34 -42 47 -102 54 -171l38 6c-3 26 -6 51 -12 76c17 20 32 45 41 62c21 -39 32 -87 36 -143l39 6
c-3 26 -7 51 -12 76c19 28 39 62 50 84l-29 28c-8 -17 -21 -42 -35 -65c-9 26 -22 50 -37 69c-6 -7 -21 -23 -30 -31c6 -8 12 -16 17 -23l-28 26c-6 -12 -15 -27 -25 -42c-9 28 -23 55 -40 75c-6 -7 -17 -21 -27 -29v49zM886 408l56 14c-24 109 -57 218 -102 315
c16 94 37 149 59 149c12 0 20 -42 23 -132c13 14 30 27 44 34c-10 119 -26 161 -75 161c-38 0 -69 -50 -91 -134c-32 54 -68 103 -108 143c-11 -13 -29 -30 -45 -40c20 -18 38 -39 56 -62h-181v49h-53v-340c-9 13 -18 24 -27 35c-5 -8 -17 -21 -28 -32v356h-51v-32l-287 18
v-551h52v150c33 -40 47 -96 54 -162l37 5c-2 23 -6 47 -10 68c15 21 31 47 39 63l-30 27c-5 -12 -14 -27 -22 -42c-10 28 -23 53 -40 72c-5 -8 -18 -22 -28 -29v47h235v-199h51v183c43 -52 79 -124 103 -196l51 15c-9 27 -21 56 -33 83h76c-9 -22 -22 -45 -33 -65l47 -18
c17 25 34 57 45 83h63v57h-77v65h66v50h-66v65h66v49h-66v67h74v21c19 -28 36 -58 51 -91c-18 -102 -30 -237 -37 -386h-298v-60h115v-87h-95v-58h95v-92h57v92h87v58h-87v87h124c-3 -75 -5 -155 -6 -236h59c-1 82 1 162 3 236h155v60h-152c5 109 13 206 23 288
c26 -71 47 -147 62 -221z" />
</svg>
