<?xml version="1.0" standalone="no"?>
<!DOCTYPE svg PUBLIC "-//W3C//DTD SVG 1.1//EN" "http://www.w3.org/Graphics/SVG/1.1/DTD/svg11.dtd" >
<svg xmlns="http://www.w3.org/2000/svg" xmlns:xlink="http://www.w3.org/1999/xlink" version="1.1" viewBox="-10 0 1010 1000">
   <path fill="currentColor"
d="M254 330v-75h-185v-52h185v-64h-156v-52h367v52h-144v64h170v52h-170v76h-33c12 15 24 35 32 51h164v49h-401v-49h168c-7 -15 -16 -29 -23 -42l54 -10h-28zM178 797h212v-53h-212v53zM390 650h-212v52h212v-52zM459 601v283c0 33 -7 47 -31 56c-23 10 -61 10 -113 10
c-4 -17 -13 -37 -21 -53c39 1 72 1 82 1c11 -1 14 -4 14 -13v-45h-212v114h-67v-353h348zM362 435l60 12c-11 23 -22 43 -32 61h108v54h-440v-54h111c-5 -21 -14 -45 -24 -64l55 -10c13 22 25 51 29 74h100c11 -24 26 -53 33 -73zM686 331v-72h-173v-52h173v-67h-149v-51
h367v51h-150v67h186v52h-186v72h-68zM655 901h195c36 0 43 -9 48 -60c15 8 39 15 57 19c-6 68 -27 88 -98 88h-207c-96 0 -125 -15 -125 -81v-314h308v-45h-308v-176h66v45h333v44h-333v44h310v132h-308v44h282v42h-282v41h276v42h-276v42h290v42h-290v17c0 28 9 34 62 34z
" />
</svg>
