<?xml version="1.0" standalone="no"?>
<!DOCTYPE svg PUBLIC "-//W3C//DTD SVG 1.1//EN" "http://www.w3.org/Graphics/SVG/1.1/DTD/svg11.dtd" >
<svg xmlns="http://www.w3.org/2000/svg" xmlns:xlink="http://www.w3.org/1999/xlink" version="1.1" viewBox="-10 0 1010 1000">
   <path fill="currentColor"
d="M673 383v-201h-171v-68h418v68h-176v201h156v67h-156v227h192v67h-458v-67h195v-227h-153v-67h153zM479 200l-55 38c-24 -36 -77 -94 -120 -134l52 -33c44 38 97 93 123 129zM308 334h-50c-10 175 -32 343 -89 478c50 -32 97 -76 139 -128v-350zM483 856h326
c65 0 78 -18 85 -101c18 11 47 21 68 25c-13 110 -38 142 -150 142h-328c-137 0 -176 -26 -176 -129v-7c-32 34 -67 63 -101 87c-11 -16 -29 -35 -43 -47c-21 44 -45 85 -74 121c-14 -18 -39 -40 -60 -51c113 -128 148 -339 159 -562h-136v-68h139c2 -73 3 -148 3 -221h69
c0 73 -1 148 -4 221h246v68h-127v251c31 -52 57 -106 75 -160l55 33c-30 83 -75 168 -130 243v92c0 50 16 63 104 63z" />
</svg>
