<?xml version="1.0" standalone="no"?>
<!DOCTYPE svg PUBLIC "-//W3C//DTD SVG 1.1//EN" "http://www.w3.org/Graphics/SVG/1.1/DTD/svg11.dtd" >
<svg xmlns="http://www.w3.org/2000/svg" xmlns:xlink="http://www.w3.org/1999/xlink" version="1.1" viewBox="-10 0 1010 1000">
   <path fill="currentColor"
d="M261 597h73v-144h-73v144zM135 453v144h74v-144h-74zM209 245h-74v144h74v-144zM334 389v-144h-73v144h73zM386 181v416h24v62h-24v223c0 32 -5 48 -25 58c-19 10 -49 11 -94 11c-2 -15 -9 -40 -17 -56c32 1 63 1 71 1c10 -1 13 -3 13 -14v-223h-199v292h-53v-292h-35
v-62h35v-416h123v-139h60v139h121zM865 670l-29 20c-5 -15 -12 -34 -20 -55c-11 28 -22 52 -35 74c-6 -5 -22 -15 -31 -20c17 -28 33 -63 47 -100c-14 -30 -30 -62 -45 -88l27 -20c11 20 22 41 33 62c7 -24 14 -50 20 -74l36 8c-10 38 -21 76 -34 112c14 30 24 58 31 81z
M648 275v570c0 32 7 40 49 40h4v-610h144v-94h-339v94h142zM872 449h-122v282h122v-282zM750 885h106c29 0 35 -14 38 -71c11 9 33 18 47 21c-6 78 -22 104 -82 104h-164c-75 0 -97 -18 -97 -93v-89h-37v84h-129v-42h85v-42h-101v-41h101v-44h-85v-41h129v85h37v-218h-37v83
h-128v-42h84v-41h-99v-41h99v-41h-84v-42h128v83h37v-132h-144v-13h-9v-181h143c18 -30 37 -68 47 -96l64 21c-14 26 -27 51 -42 75h246v195h-153v68h165v392h-165v99z" />
</svg>
