<?xml version="1.0" standalone="no"?>
<!DOCTYPE svg PUBLIC "-//W3C//DTD SVG 1.1//EN" "http://www.w3.org/Graphics/SVG/1.1/DTD/svg11.dtd" >
<svg xmlns="http://www.w3.org/2000/svg" xmlns:xlink="http://www.w3.org/1999/xlink" version="1.1" viewBox="-10 0 1010 1000">
   <path fill="currentColor"
d="M645 56l79 5c-5 74 -11 142 -20 207c34 162 104 362 240 464c-16 14 -42 45 -54 66c-106 -89 -174 -234 -214 -371c-39 161 -104 289 -213 385c-12 -15 -44 -45 -62 -58c176 -138 226 -376 244 -698zM507 579l-58 54c-27 -58 -80 -143 -135 -218
c-32 162 -87 291 -183 389c-12 -14 -44 -43 -63 -56c154 -144 194 -384 208 -695l78 5c-5 93 -13 180 -23 259c68 84 141 191 176 262zM59 926v-76h884v76h-884z" />
</svg>
