<?xml version="1.0" standalone="no"?>
<!DOCTYPE svg PUBLIC "-//W3C//DTD SVG 1.1//EN" "http://www.w3.org/Graphics/SVG/1.1/DTD/svg11.dtd" >
<svg xmlns="http://www.w3.org/2000/svg" xmlns:xlink="http://www.w3.org/1999/xlink" version="1.1" viewBox="-10 0 1010 1000">
   <path fill="currentColor"
d="M428 315v523h139v-523h-139zM640 838h304v75h-887v-75h298v-523h-272v-72h229c-16 -48 -57 -121 -96 -172l65 -26c42 53 84 122 100 170l-63 28h339l-41 -15c35 -50 78 -128 102 -184l79 24c-33 60 -74 127 -109 175h230v72h-278v523zM131 429l66 -18
c49 99 88 229 100 315l-71 18c-9 -86 -48 -216 -95 -315zM755 746l-67 -20c39 -85 86 -225 110 -324l78 19c-34 109 -82 240 -121 325z" />
</svg>
