<?xml version="1.0" standalone="no"?>
<!DOCTYPE svg PUBLIC "-//W3C//DTD SVG 1.1//EN" "http://www.w3.org/Graphics/SVG/1.1/DTD/svg11.dtd" >
<svg xmlns="http://www.w3.org/2000/svg" xmlns:xlink="http://www.w3.org/1999/xlink" version="1.1" viewBox="-10 0 1010 1000">
   <path fill="currentColor"
d="M88 825v-661h70v661h-70zM253 949v-892h73v892h-73zM639 573h-140v261h140v-261zM846 834v-261h-138v261h138zM427 956v-454h494v450h-75v-49h-347v53h-72zM801 413l-50 53c-37 -40 -111 -107 -170 -154l49 -44c60 46 134 107 171 145zM565 160h382v72h-412
c-35 77 -76 146 -122 199c-13 -11 -45 -32 -64 -41c80 -84 141 -214 177 -351l73 14c-10 36 -22 73 -34 107z" />
</svg>
