<?xml version="1.0" standalone="no"?>
<!DOCTYPE svg PUBLIC "-//W3C//DTD SVG 1.1//EN" "http://www.w3.org/Graphics/SVG/1.1/DTD/svg11.dtd" >
<svg xmlns="http://www.w3.org/2000/svg" xmlns:xlink="http://www.w3.org/1999/xlink" version="1.1" viewBox="-10 0 1010 1000">
   <path fill="currentColor"
d="M388 386l52 -44c62 47 133 114 165 163l-56 49c-29 -49 -99 -119 -161 -168zM335 588h323v-283h-316v136c0 50 -1 99 -7 147zM951 588v70h-218v298h-75v-298h-333c-24 116 -79 219 -202 300c-13 -16 -40 -43 -57 -56c105 -67 156 -151 181 -244h-197v-70h211
c6 -48 8 -97 8 -148v-135h-189v-70h189v-187h73v187h316v-188h75v188h190v70h-190v283h218z" />
</svg>
