<?xml version="1.0" standalone="no"?>
<!DOCTYPE svg PUBLIC "-//W3C//DTD SVG 1.1//EN" "http://www.w3.org/Graphics/SVG/1.1/DTD/svg11.dtd" >
<svg xmlns="http://www.w3.org/2000/svg" xmlns:xlink="http://www.w3.org/1999/xlink" version="1.1" viewBox="-10 0 1010 1000">
   <path fill="currentColor"
d="M238 601l72 24c-56 95 -138 200 -207 269c-13 -13 -44 -37 -60 -48c69 -62 147 -157 195 -245zM922 515h-364v345c0 46 -12 69 -43 80c-32 13 -83 15 -169 14c-4 -20 -15 -53 -26 -74c63 2 122 2 139 1s24 -5 24 -22v-344h-234c-66 0 -107 4 -117 13
c-4 -16 -17 -51 -25 -69c13 -5 22 -29 31 -64c9 -32 35 -160 36 -275c225 -6 504 -25 655 -65l43 65c-158 39 -410 60 -625 65c-9 88 -25 181 -45 256h281v-199h75v199h364v74zM691 632l64 -30c72 78 161 186 202 253l-69 36c-39 -68 -125 -180 -197 -259z" />
</svg>
