<?xml version="1.0" standalone="no"?>
<!DOCTYPE svg PUBLIC "-//W3C//DTD SVG 1.1//EN" "http://www.w3.org/Graphics/SVG/1.1/DTD/svg11.dtd" >
<svg xmlns="http://www.w3.org/2000/svg" xmlns:xlink="http://www.w3.org/1999/xlink" version="1.1" viewBox="-10 0 1010 1000">
   <path fill="currentColor"
d="M426 848h328c84 0 98 -33 110 -169c19 13 49 24 70 29c-15 156 -43 208 -179 208h-327c-141 0 -184 -31 -184 -155v-304l-188 59l-20 -67l208 -65v-310h73v288l437 -135l8 -7l14 -12l53 23l-4 14c-2 174 -11 289 -34 347c-20 50 -51 69 -89 75c-37 4 -98 5 -139 4
c-3 -20 -12 -52 -21 -70c45 3 104 3 125 3c28 0 46 -6 61 -46c15 -42 22 -128 24 -261l-435 137v329c0 68 18 85 109 85z" />
</svg>
