<?xml version="1.0" standalone="no"?>
<!DOCTYPE svg PUBLIC "-//W3C//DTD SVG 1.1//EN" "http://www.w3.org/Graphics/SVG/1.1/DTD/svg11.dtd" >
<svg xmlns="http://www.w3.org/2000/svg" xmlns:xlink="http://www.w3.org/1999/xlink" version="1.1" viewBox="-10 0 1010 1000">
   <path fill="currentColor"
d="M750 862h98c30 0 35 -29 39 -166c17 14 48 27 69 33c-7 156 -26 204 -102 204h-113c-81 0 -102 -26 -102 -115v-477h-222c-20 245 -86 479 -311 617c-12 -18 -38 -44 -59 -58c214 -122 274 -334 291 -559h-261v-73h266c3 -74 3 -149 3 -221h80c0 72 -1 147 -5 221h294
v550c0 37 5 44 35 44z" />
</svg>
