<?xml version="1.0" standalone="no"?>
<!DOCTYPE svg PUBLIC "-//W3C//DTD SVG 1.1//EN" "http://www.w3.org/Graphics/SVG/1.1/DTD/svg11.dtd" >
<svg xmlns="http://www.w3.org/2000/svg" xmlns:xlink="http://www.w3.org/1999/xlink" version="1.1" viewBox="-10 0 1010 1000">
   <path fill="currentColor"
d="M926 244h-659c-50 72 -105 138 -161 187c-15 -14 -46 -41 -65 -54c101 -78 194 -204 249 -335l76 23c-15 36 -34 72 -54 106h614v73zM326 863l459 1c56 0 72 -21 77 -143c22 12 49 21 73 25c-13 161 -47 191 -156 191h-444c-125 0 -183 -42 -183 -112
c0 -57 18 -119 422 -373h-371v-72h498l17 -3l54 38c-4 3 -10 8 -17 12c-493 299 -526 353 -526 391c0 32 38 45 97 45z" />
</svg>
