<?xml version="1.0" standalone="no"?>
<!DOCTYPE svg PUBLIC "-//W3C//DTD SVG 1.1//EN" "http://www.w3.org/Graphics/SVG/1.1/DTD/svg11.dtd" >
<svg xmlns="http://www.w3.org/2000/svg" xmlns:xlink="http://www.w3.org/1999/xlink" version="1.1" viewBox="-10 0 1010 1000">
   <path fill="currentColor"
d="M809 424l79 27c-134 302 -402 434 -772 502c-6 -21 -27 -57 -40 -75c280 -43 498 -125 634 -288c-470 37 -521 44 -557 56c-3 -15 -15 -53 -25 -74c37 -5 82 -27 147 -62c41 -20 134 -75 239 -147c-271 21 -305 27 -328 36c-4 -16 -16 -54 -25 -76c25 -3 51 -20 87 -46
c40 -26 164 -127 253 -230l69 43c-82 84 -172 163 -261 224l301 -19c42 -33 85 -67 124 -101l67 49c-148 123 -304 226 -459 306l419 -30c17 -29 34 -61 48 -95z" />
</svg>
