<?xml version="1.0" standalone="no"?>
<!DOCTYPE svg PUBLIC "-//W3C//DTD SVG 1.1//EN" "http://www.w3.org/Graphics/SVG/1.1/DTD/svg11.dtd" >
<svg xmlns="http://www.w3.org/2000/svg" xmlns:xlink="http://www.w3.org/1999/xlink" version="1.1" viewBox="-10 0 1010 1000">
   <path fill="currentColor"
d="M368 609l63 -15c39 96 81 222 99 297l-70 21c-5 -27 -13 -63 -24 -101c-301 58 -338 67 -362 81c-4 -15 -17 -52 -27 -71c24 -7 52 -42 93 -95c27 -32 91 -125 157 -238c-188 14 -218 19 -237 25c-3 -14 -15 -50 -24 -69c20 -5 38 -32 63 -70c25 -37 106 -184 153 -320
l71 29c-52 125 -118 253 -186 351l197 -11c25 -48 51 -98 73 -147l67 37c-86 174 -195 345 -303 480l246 -43c-16 -48 -32 -98 -49 -141zM693 859h144c43 0 50 -36 55 -184c17 14 45 27 65 31c-9 163 -27 218 -115 218h-156c-89 0 -114 -28 -114 -126v-732h70v733
c0 51 8 60 51 60z" />
</svg>
