<?xml version="1.0" standalone="no"?>
<!DOCTYPE svg PUBLIC "-//W3C//DTD SVG 1.1//EN" "http://www.w3.org/Graphics/SVG/1.1/DTD/svg11.dtd" >
<svg xmlns="http://www.w3.org/2000/svg" xmlns:xlink="http://www.w3.org/1999/xlink" version="1.1" viewBox="-10 0 1010 1000">
   <path fill="currentColor"
d="M309 354v109c0 37 -8 54 -36 65c-25 10 -66 11 -129 10c-3 -19 -13 -44 -22 -62c44 2 86 2 98 1c13 0 16 -4 16 -16v-97c-65 8 -124 16 -174 22l-6 -65c49 -5 111 -13 180 -21v-95h-166v-63h166v-99h73v99h146v63h-146v87l151 -19v61zM310 864h480c48 0 63 -12 68 -123
c21 11 47 20 69 24c-11 147 -45 169 -144 169h-465c-116 0 -168 -35 -168 -95c0 -43 14 -93 333 -199h-337v-63h549l16 -3l54 41c-4 5 -10 9 -20 12c-484 138 -520 178 -520 205c0 23 33 32 85 32zM575 262h376v63h-138v227h-72v-227h-170c-9 79 -40 156 -136 214
c-10 -15 -36 -38 -51 -50c111 -65 125 -153 125 -236v-130c121 -16 260 -43 337 -71l55 48c-86 30 -212 54 -326 70v84v8z" />
</svg>
