<?xml version="1.0" standalone="no"?>
<!DOCTYPE svg PUBLIC "-//W3C//DTD SVG 1.1//EN" "http://www.w3.org/Graphics/SVG/1.1/DTD/svg11.dtd" >
<svg xmlns="http://www.w3.org/2000/svg" xmlns:xlink="http://www.w3.org/1999/xlink" version="1.1" viewBox="-10 0 1010 1000">
   <path fill="currentColor"
d="M946 278l-59 35c-30 -53 -100 -132 -164 -186l55 -32c64 54 136 130 168 183zM762 246l69 15c-86 146 -286 211 -491 248c-6 -15 -26 -44 -39 -58c200 -28 389 -84 461 -205zM653 44v294h-69v-294h69zM446 101l66 17c-31 84 -85 166 -139 220c-13 -11 -41 -30 -57 -39
c54 -49 102 -122 130 -198zM309 122l-40 50c-33 -27 -96 -60 -147 -76l39 -46c52 16 115 47 148 72zM239 238l-38 53c-35 -25 -98 -57 -150 -72l38 -47c52 14 116 44 150 66zM265 303l29 53c-60 62 -126 125 -179 176l-46 -52c49 -40 125 -108 196 -177zM309 867h460
c48 0 64 -15 69 -137c21 13 46 21 69 25c-11 157 -44 183 -144 183h-447c-116 0 -168 -37 -168 -99c0 -46 15 -99 364 -232h-347v-63h531l16 -3l53 40c-4 5 -11 9 -19 12c-489 167 -524 210 -524 239c0 24 34 35 87 35z" />
</svg>
