<?xml version="1.0" standalone="no"?>
<!DOCTYPE svg PUBLIC "-//W3C//DTD SVG 1.1//EN" "http://www.w3.org/Graphics/SVG/1.1/DTD/svg11.dtd" >
<svg xmlns="http://www.w3.org/2000/svg" xmlns:xlink="http://www.w3.org/1999/xlink" version="1.1" viewBox="-10 0 1010 1000">
   <path fill="currentColor"
d="M420 363v-97h-201c-1 30 -4 64 -12 97h213zM484 418h-293c-19 51 -51 99 -102 138c-10 -13 -38 -38 -53 -46c100 -75 114 -178 114 -261v-134h1c107 -11 234 -29 305 -52l51 53c-79 23 -188 40 -288 50v46h265v206zM309 862h481c48 0 63 -12 68 -123c21 11 47 20 69 24
c-11 147 -45 169 -144 169h-466c-115 0 -167 -35 -167 -95c0 -43 14 -93 334 -199h-338v-62h549l16 -4l54 42c-4 4 -10 8 -20 11c-485 138 -520 179 -520 205c0 23 32 32 84 32zM616 249h330v67h-127v240h-73v-240h-134c-11 82 -43 170 -131 234c-11 -14 -39 -40 -54 -49
c102 -72 118 -172 118 -254v-140c110 -11 238 -30 312 -52l52 55c-79 22 -190 39 -293 49v89v1z" />
</svg>
