<?xml version="1.0" standalone="no"?>
<!DOCTYPE svg PUBLIC "-//W3C//DTD SVG 1.1//EN" "http://www.w3.org/Graphics/SVG/1.1/DTD/svg11.dtd" >
<svg xmlns="http://www.w3.org/2000/svg" xmlns:xlink="http://www.w3.org/1999/xlink" version="1.1" viewBox="-10 0 1010 1000">
   <path fill="currentColor"
d="M365 336h-139c-19 105 -57 197 -135 260c-10 -15 -33 -35 -50 -45c99 -78 122 -217 130 -359h-121v-59h195c-10 -25 -24 -56 -38 -79l71 -11c16 27 34 63 45 90h162v59h-241c-2 28 -5 57 -8 84h201s0 19 -1 27c-7 153 -14 211 -34 232c-12 15 -28 21 -51 23
c-18 2 -55 2 -91 0c-2 -18 -9 -41 -18 -57c33 3 63 3 76 3c12 0 19 -1 25 -9c11 -11 17 -53 22 -159zM319 878h466c48 0 65 -11 70 -112c21 9 48 17 72 21c-12 131 -47 151 -148 151h-452c-118 0 -170 -31 -170 -85c0 -40 14 -85 343 -196h-335v-58h524l15 -3l56 35
c-4 3 -11 7 -19 10c-471 142 -506 181 -506 206c0 21 32 31 84 31zM534 464l36 -49c108 23 246 73 318 116l-39 56c-68 -43 -204 -96 -315 -123zM601 313l40 -45c69 21 155 56 200 88l-42 49c-42 -32 -127 -70 -198 -92zM685 44l66 17c-5 10 -11 20 -16 30
c55 62 154 146 235 193c-15 10 -37 32 -50 47c-75 -49 -161 -130 -217 -192c-53 74 -123 141 -202 192c-11 -12 -36 -33 -51 -42c102 -62 191 -155 235 -245z" />
</svg>
