<?xml version="1.0" standalone="no"?>
<!DOCTYPE svg PUBLIC "-//W3C//DTD SVG 1.1//EN" "http://www.w3.org/Graphics/SVG/1.1/DTD/svg11.dtd" >
<svg xmlns="http://www.w3.org/2000/svg" xmlns:xlink="http://www.w3.org/1999/xlink" version="1.1" viewBox="-10 0 1010 1000">
   <path fill="currentColor"
d="M945 404h-549c-19 57 -37 112 -55 160h466s-1 23 -3 34c-17 205 -36 289 -71 323c-23 22 -47 28 -87 30c-36 2 -107 1 -180 -4c-2 -22 -12 -51 -27 -71c76 6 155 7 182 7c25 0 37 -1 49 -9c25 -20 41 -89 56 -240h-494c26 -62 55 -144 83 -230h-260v-71h284
c18 -56 35 -111 49 -162h-230v-71h690v71h-378c-15 51 -33 106 -51 162h526v71z" />
</svg>
