<?xml version="1.0" standalone="no"?>
<!DOCTYPE svg PUBLIC "-//W3C//DTD SVG 1.1//EN" "http://www.w3.org/Graphics/SVG/1.1/DTD/svg11.dtd" >
<svg xmlns="http://www.w3.org/2000/svg" xmlns:xlink="http://www.w3.org/1999/xlink" version="1.1" viewBox="-10 0 1010 1000">
   <path fill="currentColor"
d="M694 502h-251c-19 119 -40 236 -59 327h279c11 -107 23 -235 31 -327zM740 829h203v73h-883v-73h243c20 -91 41 -208 61 -327h-186v-73h198c12 -74 23 -148 32 -215h-285v-73h748v73h-384c-10 67 -21 142 -33 215h252l13 -4l57 6c-7 110 -21 268 -36 398z" />
</svg>
