<?xml version="1.0" standalone="no"?>
<!DOCTYPE svg PUBLIC "-//W3C//DTD SVG 1.1//EN" "http://www.w3.org/Graphics/SVG/1.1/DTD/svg11.dtd" >
<svg xmlns="http://www.w3.org/2000/svg" xmlns:xlink="http://www.w3.org/1999/xlink" version="1.1" viewBox="-10 0 1010 1000">
   <path fill="currentColor"
d="M574 378v-66h272l12 -3l41 17c-22 105 -59 193 -105 266c43 48 80 94 104 131l-55 45c-22 -34 -53 -76 -91 -119c-47 57 -99 103 -157 136c-10 -15 -36 -39 -51 -50c60 -32 116 -78 163 -137c-47 -51 -99 -102 -147 -145l51 -38c44 38 91 82 136 128
c30 -48 54 -103 72 -165h-245zM458 707v-457c68 -25 146 -66 206 -105h-497v-67h584l15 -4l51 40c-75 64 -184 128 -286 170v424c0 42 -11 60 -42 72c-30 11 -82 12 -156 12c-4 -20 -17 -48 -28 -67c61 2 116 1 132 1c16 -1 21 -5 21 -19zM307 613v-242h-134v242h134z
M375 311v361h-267v-361h267zM56 840h889v70h-889v-70z" />
</svg>
