<?xml version="1.0" standalone="no"?>
<!DOCTYPE svg PUBLIC "-//W3C//DTD SVG 1.1//EN" "http://www.w3.org/Graphics/SVG/1.1/DTD/svg11.dtd" >
<svg xmlns="http://www.w3.org/2000/svg" xmlns:xlink="http://www.w3.org/1999/xlink" version="1.1" viewBox="-10 0 1010 1000">
   <path fill="currentColor"
d="M795 451l69 39c-59 86 -134 161 -221 227c99 56 216 130 280 182l-66 53c-61 -53 -177 -131 -279 -191c-135 87 -295 152 -472 195c-9 -20 -27 -50 -45 -69c323 -74 591 -218 734 -436zM555 173h388v72h-468c-48 57 -109 125 -158 176l272 -14c29 -29 55 -60 77 -92
l68 34c-128 186 -349 320 -598 395c-9 -21 -28 -49 -46 -68c155 -41 301 -108 416 -196c-259 18 -297 23 -321 31c-2 -19 -13 -61 -20 -77c18 -4 45 -12 67 -31c25 -21 97 -100 147 -158h-318v-72h425c-15 -34 -39 -78 -60 -113l73 -22c28 39 60 94 74 129z" />
</svg>
