<?xml version="1.0" standalone="no"?>
<!DOCTYPE svg PUBLIC "-//W3C//DTD SVG 1.1//EN" "http://www.w3.org/Graphics/SVG/1.1/DTD/svg11.dtd" >
<svg xmlns="http://www.w3.org/2000/svg" xmlns:xlink="http://www.w3.org/1999/xlink" version="1.1" viewBox="-10 0 1010 1000">
   <path fill="currentColor"
d="M829 540l53 46c-91 57 -219 110 -339 144v146c0 43 -12 63 -50 73c-38 11 -101 10 -201 10c-4 -21 -16 -47 -28 -67c79 3 157 3 176 2c21 -1 27 -6 27 -20v-184c78 -18 166 -49 235 -81h-601v-65h710zM727 422v-102h-448v102h448zM804 266v209h-598v-209h598zM555 136
h385v67h-880v-67h409c-12 -26 -28 -56 -42 -79l72 -19c20 29 41 68 56 98z" />
</svg>
