<?xml version="1.0" standalone="no"?>
<!DOCTYPE svg PUBLIC "-//W3C//DTD SVG 1.1//EN" "http://www.w3.org/Graphics/SVG/1.1/DTD/svg11.dtd" >
<svg xmlns="http://www.w3.org/2000/svg" xmlns:xlink="http://www.w3.org/1999/xlink" version="1.1" viewBox="-10 0 1010 1000">
   <path fill="currentColor"
d="M361 251v-51h-302v-65h422c-13 -27 -32 -60 -48 -85l71 -18c21 30 45 73 59 103h381v65h-292v262c0 38 -7 57 -36 69c-27 12 -70 13 -134 13c-3 -20 -17 -49 -27 -69c53 2 95 2 108 1c14 -1 17 -4 17 -15v-261h-151v53c0 103 -21 227 -196 314c-10 -17 -33 -42 -48 -54
c160 -74 176 -179 176 -262zM696 293l60 -29c62 57 132 140 165 196l-64 34c-30 -56 -99 -141 -161 -201zM216 260l66 19c-45 76 -114 155 -175 205c-13 -12 -39 -33 -56 -43c62 -46 126 -115 165 -181zM98 598h625c0 130 22 234 226 306c-15 12 -42 39 -52 56
c-181 -68 -230 -175 -241 -296h-558v-66z" />
</svg>
