<?xml version="1.0" standalone="no"?>
<!DOCTYPE svg PUBLIC "-//W3C//DTD SVG 1.1//EN" "http://www.w3.org/Graphics/SVG/1.1/DTD/svg11.dtd" >
<svg xmlns="http://www.w3.org/2000/svg" xmlns:xlink="http://www.w3.org/1999/xlink" version="1.1" viewBox="-10 0 1010 1000">
   <path fill="currentColor"
d="M929 117v57h-856v-57h391c-11 -20 -24 -39 -37 -56l60 -28c21 25 43 58 57 84h385zM619 395v-50h-239v50h239zM673 306v128h-346v-128h346zM782 475v-210h-559v210h559zM847 217v307h-687v-307h687zM272 711v57h451v-57h-451zM272 611v56h451v-56h-451zM794 813h-591
v-247h591v247zM62 860h877v58h-877v-58z" />
</svg>
