<?xml version="1.0" standalone="no"?>
<!DOCTYPE svg PUBLIC "-//W3C//DTD SVG 1.1//EN" "http://www.w3.org/Graphics/SVG/1.1/DTD/svg11.dtd" >
<svg xmlns="http://www.w3.org/2000/svg" xmlns:xlink="http://www.w3.org/1999/xlink" version="1.1" viewBox="-10 0 1010 1000">
   <path fill="currentColor"
d="M301 47l69 23c-29 69 -65 139 -104 204v680h-71v-574c-38 52 -79 100 -121 140c-7 -18 -28 -56 -42 -72c106 -97 208 -247 269 -401zM958 886l-73 37c-8 -31 -21 -67 -36 -106c-406 61 -451 68 -481 84c-3 -16 -17 -52 -25 -72c23 -8 46 -61 77 -140
c30 -75 126 -358 174 -611l79 14c-54 248 -134 513 -216 715l368 -52c-40 -94 -89 -199 -136 -286l66 -28c79 144 168 331 203 445z" />
</svg>
