<?xml version="1.0" standalone="no"?>
<!DOCTYPE svg PUBLIC "-//W3C//DTD SVG 1.1//EN" "http://www.w3.org/Graphics/SVG/1.1/DTD/svg11.dtd" >
<svg xmlns="http://www.w3.org/2000/svg" xmlns:xlink="http://www.w3.org/1999/xlink" version="1.1" viewBox="-10 0 1010 1000">
   <path fill="currentColor"
d="M534 348v230h400v67h-400v312h-71v-312h-393v-67h393v-230h71zM488 41l65 28c-5 8 -10 16 -15 23c118 156 265 249 431 323c-17 14 -36 39 -45 58c-163 -79 -302 -174 -424 -328c-106 140 -257 259 -417 334c-11 -18 -32 -43 -49 -59c182 -79 357 -220 454 -379z" />
</svg>
