<?xml version="1.0" standalone="no"?>
<!DOCTYPE svg PUBLIC "-//W3C//DTD SVG 1.1//EN" "http://www.w3.org/Graphics/SVG/1.1/DTD/svg11.dtd" >
<svg xmlns="http://www.w3.org/2000/svg" xmlns:xlink="http://www.w3.org/1999/xlink" version="1.1" viewBox="-10 0 1010 1000">
   <path fill="currentColor"
d="M415 852h275c68 0 79 -24 88 -148c18 13 49 25 71 29c-13 149 -38 189 -157 189h-278c-127 0 -165 -24 -165 -123v-401h73v201c145 -45 293 -106 379 -169l67 55c-115 76 -286 139 -446 185v129c0 43 15 53 93 53zM502 41l67 31c-7 11 -15 21 -22 31
c95 116 267 235 418 288c-18 16 -43 46 -56 67c-141 -60 -300 -179 -404 -303c-108 130 -259 238 -410 306c-11 -19 -32 -47 -51 -64c177 -70 360 -204 458 -356z" />
</svg>
