<?xml version="1.0" standalone="no"?>
<!DOCTYPE svg PUBLIC "-//W3C//DTD SVG 1.1//EN" "http://www.w3.org/Graphics/SVG/1.1/DTD/svg11.dtd" >
<svg xmlns="http://www.w3.org/2000/svg" xmlns:xlink="http://www.w3.org/1999/xlink" version="1.1" viewBox="-10 0 1010 1000">
   <path fill="currentColor"
d="M243 741l39 -58c146 40 341 114 442 171l-40 67c-98 -59 -290 -137 -441 -180zM359 465l45 -49c94 46 212 118 271 170l-47 56c-57 -52 -174 -128 -269 -177zM486 45l64 28c-5 8 -10 17 -15 25c114 165 258 263 425 344c-17 15 -36 38 -47 58
c-161 -85 -296 -185 -414 -346c-102 146 -248 271 -405 352c-11 -19 -32 -44 -49 -58c178 -86 348 -236 441 -403z" />
</svg>
