<?xml version="1.0" standalone="no"?>
<!DOCTYPE svg PUBLIC "-//W3C//DTD SVG 1.1//EN" "http://www.w3.org/Graphics/SVG/1.1/DTD/svg11.dtd" >
<svg xmlns="http://www.w3.org/2000/svg" xmlns:xlink="http://www.w3.org/1999/xlink" version="1.1" viewBox="-10 0 1010 1000">
   <path fill="currentColor"
d="M269 47l70 22c-29 73 -64 146 -103 214v672h-73v-559c-31 45 -65 85 -99 121c-7 -18 -28 -56 -42 -73c98 -96 191 -245 247 -397zM956 443v73h-281v441h-74v-441h-289v-73h289v-230c-77 13 -158 24 -232 33c-4 -18 -14 -46 -22 -62c180 -23 389 -61 504 -107l60 60
c-65 24 -148 44 -236 62v244h281z" />
</svg>
