<?xml version="1.0" standalone="no"?>
<!DOCTYPE svg PUBLIC "-//W3C//DTD SVG 1.1//EN" "http://www.w3.org/Graphics/SVG/1.1/DTD/svg11.dtd" >
<svg xmlns="http://www.w3.org/2000/svg" xmlns:xlink="http://www.w3.org/1999/xlink" version="1.1" viewBox="-10 0 1010 1000">
   <path fill="currentColor"
d="M798 498l54 34c-74 78 -182 187 -278 281c43 31 82 62 111 87l-57 62c-68 -66 -210 -167 -320 -234l53 -53c47 27 100 62 152 96c68 -65 141 -138 198 -197h-541v-72h615zM608 429l-56 48c-30 -44 -96 -109 -151 -154l53 -42c54 43 123 106 154 148zM509 40l68 36
c-9 11 -18 22 -27 34c103 107 278 219 419 273c-18 16 -42 47 -55 67c-133 -61 -298 -174 -410 -289c-113 119 -263 222 -412 291c-12 -18 -33 -44 -53 -62c180 -76 367 -208 470 -350z" />
</svg>
