<?xml version="1.0" standalone="no"?>
<!DOCTYPE svg PUBLIC "-//W3C//DTD SVG 1.1//EN" "http://www.w3.org/Graphics/SVG/1.1/DTD/svg11.dtd" >
<svg xmlns="http://www.w3.org/2000/svg" xmlns:xlink="http://www.w3.org/1999/xlink" version="1.1" viewBox="-10 0 1010 1000">
   <path fill="currentColor"
d="M279 46l69 21c-28 70 -63 141 -102 206v680h-70v-573c-36 50 -73 94 -111 132c-7 -16 -29 -56 -42 -72c101 -95 198 -243 256 -394zM839 194h-203c-4 113 -13 245 -46 372c60 58 131 107 211 145c15 -105 27 -270 38 -517zM347 125h569s0 30 -1 40
c-13 283 -26 463 -42 577c33 12 68 23 105 32c-15 16 -37 45 -47 65c-25 -7 -49 -14 -72 -23c-10 48 -23 77 -37 94c-22 31 -46 40 -80 43c-33 3 -88 2 -143 -1c-1 -21 -9 -52 -22 -71c60 5 112 6 136 6c19 0 31 -4 43 -19c12 -12 22 -38 32 -81c-84 -38 -157 -87 -221 -146
c-44 125 -118 239 -241 318c-12 -17 -35 -40 -54 -53c127 -78 198 -196 237 -324c-71 -80 -127 -175 -169 -282l62 -20c31 81 74 155 128 220c22 -106 27 -214 30 -306h-213v-69z" />
</svg>
