<?xml version="1.0" standalone="no"?>
<!DOCTYPE svg PUBLIC "-//W3C//DTD SVG 1.1//EN" "http://www.w3.org/Graphics/SVG/1.1/DTD/svg11.dtd" >
<svg xmlns="http://www.w3.org/2000/svg" xmlns:xlink="http://www.w3.org/1999/xlink" version="1.1" viewBox="-10 0 1010 1000">
   <path fill="currentColor"
d="M265 680v160h564v67h-631v-500h614v66h-547v140h525v67h-525zM487 40l65 29c-5 8 -10 16 -15 22c119 149 267 237 432 307c-17 15 -37 39 -45 59c-162 -76 -301 -166 -425 -315c-106 133 -255 245 -411 318c-12 -19 -31 -43 -49 -60c179 -74 353 -209 448 -360z" />
</svg>
