<?xml version="1.0" standalone="no"?>
<!DOCTYPE svg PUBLIC "-//W3C//DTD SVG 1.1//EN" "http://www.w3.org/Graphics/SVG/1.1/DTD/svg11.dtd" >
<svg xmlns="http://www.w3.org/2000/svg" xmlns:xlink="http://www.w3.org/1999/xlink" version="1.1" viewBox="-10 0 1010 1000">
   <path fill="currentColor"
d="M296 44l72 22c-30 73 -65 144 -106 212v679h-73v-569c-37 50 -77 96 -118 135c-7 -18 -30 -56 -46 -74c109 -97 210 -250 271 -405zM956 540h-282v307h267v72h-598v-72h257v-307h-295v-72h295v-264c-80 14 -163 26 -239 35c-3 -18 -15 -46 -23 -63
c185 -24 401 -64 523 -108l55 62c-68 22 -152 43 -242 61v277h282v72z" />
</svg>
