<?xml version="1.0" standalone="no"?>
<!DOCTYPE svg PUBLIC "-//W3C//DTD SVG 1.1//EN" "http://www.w3.org/Graphics/SVG/1.1/DTD/svg11.dtd" >
<svg xmlns="http://www.w3.org/2000/svg" xmlns:xlink="http://www.w3.org/1999/xlink" version="1.1" viewBox="-10 0 1010 1000">
   <path fill="currentColor"
d="M517 149v45c0 94 -32 204 -178 274c-9 -15 -35 -43 -49 -54c133 -62 154 -146 154 -222v-113h338v230c0 29 3 39 21 39h86c16 0 39 -2 53 -5c2 19 4 47 7 64c-13 4 -38 5 -59 5h-92c-73 0 -89 -28 -89 -104v-159h-192zM269 47l70 21c-29 78 -65 156 -105 229v658h-71
v-544c-27 38 -56 74 -84 106c-8 -18 -30 -56 -42 -73c92 -97 179 -246 232 -397zM780 552h-323c37 73 92 138 161 191c68 -52 124 -115 162 -191zM834 479l49 22c-42 120 -113 213 -201 285c79 47 173 81 277 100c-17 16 -38 47 -49 68c-111 -25 -210 -66 -293 -122
c-92 60 -199 101 -310 127c-7 -21 -23 -52 -38 -68c102 -20 201 -55 286 -106c-70 -61 -127 -133 -168 -219l40 -14h-87v-70h479z" />
</svg>
