<?xml version="1.0" standalone="no"?>
<!DOCTYPE svg PUBLIC "-//W3C//DTD SVG 1.1//EN" "http://www.w3.org/Graphics/SVG/1.1/DTD/svg11.dtd" >
<svg xmlns="http://www.w3.org/2000/svg" xmlns:xlink="http://www.w3.org/1999/xlink" version="1.1" viewBox="-10 0 1010 1000">
   <path fill="currentColor"
d="M679 184l-71 25c-14 -42 -43 -107 -69 -154l68 -21c27 48 57 110 72 150zM326 292v-70h615v70h-615zM269 47l69 21c-27 73 -61 144 -100 212v675h-71v-564c-33 46 -68 90 -103 126c-7 -18 -28 -56 -42 -73c98 -96 191 -246 247 -397zM818 882h38c10 0 20 -2 26 -6
s11 -15 13 -33c2 -22 3 -67 4 -127c14 13 38 25 57 31c-1 53 -5 118 -10 140c-6 25 -16 38 -31 48c-14 8 -37 12 -56 12h-57c-22 0 -47 -5 -62 -19c-18 -13 -24 -30 -24 -101v-366h-210v114c0 124 -29 284 -180 387c-9 -16 -35 -46 -49 -56c137 -94 157 -225 157 -333v-181
h355v439c0 27 2 41 8 46c6 3 13 5 21 5z" />
</svg>
