<?xml version="1.0" standalone="no"?>
<!DOCTYPE svg PUBLIC "-//W3C//DTD SVG 1.1//EN" "http://www.w3.org/Graphics/SVG/1.1/DTD/svg11.dtd" >
<svg xmlns="http://www.w3.org/2000/svg" xmlns:xlink="http://www.w3.org/1999/xlink" version="1.1" viewBox="-10 0 1010 1000">
   <path fill="currentColor"
d="M883 198l-49 47c-37 -38 -111 -100 -168 -145l47 -40c57 42 132 102 170 138zM296 48l71 22c-28 72 -64 145 -104 212v672h-74v-557c-33 46 -69 87 -104 123c-8 -16 -30 -54 -44 -71c102 -97 198 -247 255 -401zM829 406l71 26c-53 103 -122 192 -203 269
c41 113 93 181 148 181c28 0 41 -49 48 -176c17 15 44 32 65 39c-14 165 -42 212 -119 212c-85 0 -153 -77 -204 -202c-83 66 -177 122 -277 166c-10 -18 -34 -49 -50 -63c112 -44 215 -102 302 -176c-27 -86 -47 -188 -61 -300l-244 26l-7 -70l244 -24
c-8 -84 -13 -171 -14 -259h76c0 87 4 171 12 251l312 -32l6 69l-310 32c11 92 28 178 49 249c62 -63 116 -137 156 -218z" />
</svg>
