<?xml version="1.0" standalone="no"?>
<!DOCTYPE svg PUBLIC "-//W3C//DTD SVG 1.1//EN" "http://www.w3.org/Graphics/SVG/1.1/DTD/svg11.dtd" >
<svg xmlns="http://www.w3.org/2000/svg" xmlns:xlink="http://www.w3.org/1999/xlink" version="1.1" viewBox="-10 0 1010 1000">
   <path fill="currentColor"
d="M489 158v462h-68v-528h450v528h-70v-462h-312zM281 47l70 21c-29 75 -65 150 -105 219v667h-71v-558c-31 45 -65 85 -99 120c-7 -17 -28 -55 -42 -72c98 -96 191 -245 247 -397zM675 242v190c0 167 -45 381 -306 515c-8 -15 -31 -43 -45 -53c250 -127 283 -311 283 -464
v-188h68zM760 872h82c35 0 40 -26 45 -168c19 14 42 24 61 28c-9 157 -21 197 -107 197h-91c-68 0 -95 -19 -95 -84v-241h69v234c0 27 9 34 36 34z" />
</svg>
