<?xml version="1.0" standalone="no"?>
<!DOCTYPE svg PUBLIC "-//W3C//DTD SVG 1.1//EN" "http://www.w3.org/Graphics/SVG/1.1/DTD/svg11.dtd" >
<svg xmlns="http://www.w3.org/2000/svg" xmlns:xlink="http://www.w3.org/1999/xlink" version="1.1" viewBox="-10 0 1010 1000">
   <path fill="currentColor"
d="M269 47l70 22c-29 77 -65 156 -105 228v656h-71v-542c-27 38 -56 74 -84 106c-8 -18 -30 -56 -42 -73c92 -97 179 -246 232 -397zM776 570l14 58c-139 68 -287 140 -398 190l-26 -72c102 -39 261 -110 410 -176zM444 418l39 -46c82 42 177 103 226 145l-42 54
c-49 -44 -144 -111 -223 -153zM923 203v39c-13 470 -26 624 -61 672c-21 28 -42 37 -74 40c-31 4 -82 3 -131 0c-2 -21 -10 -51 -22 -71c54 5 103 5 124 5c18 0 28 -3 37 -16c30 -34 43 -187 54 -600h-381c-32 63 -68 119 -104 164c-14 -11 -46 -31 -65 -40
c77 -84 144 -217 182 -350l72 18c-14 47 -32 94 -53 139h422z" />
</svg>
