<?xml version="1.0" standalone="no"?>
<!DOCTYPE svg PUBLIC "-//W3C//DTD SVG 1.1//EN" "http://www.w3.org/Graphics/SVG/1.1/DTD/svg11.dtd" >
<svg xmlns="http://www.w3.org/2000/svg" xmlns:xlink="http://www.w3.org/1999/xlink" version="1.1" viewBox="-10 0 1010 1000">
   <path fill="currentColor"
d="M269 47l70 21c-29 78 -65 156 -105 229v658h-71v-544c-27 38 -56 74 -84 106c-8 -18 -30 -56 -42 -73c92 -97 179 -246 232 -397zM779 308h-305c34 127 85 241 156 335c68 -90 116 -201 149 -335zM952 308h-94c-40 161 -98 291 -179 395c77 83 172 146 289 184
c-18 16 -40 46 -53 67c-116 -42 -211 -108 -287 -191c-77 80 -173 144 -289 193c-11 -17 -36 -50 -53 -66c120 -45 217 -106 293 -187c-80 -108 -138 -241 -179 -395h-79v-72h323c-22 -48 -67 -119 -110 -170l61 -28c44 52 95 124 115 173l-50 25h292v72z" />
</svg>
