<?xml version="1.0" standalone="no"?>
<!DOCTYPE svg PUBLIC "-//W3C//DTD SVG 1.1//EN" "http://www.w3.org/Graphics/SVG/1.1/DTD/svg11.dtd" >
<svg xmlns="http://www.w3.org/2000/svg" xmlns:xlink="http://www.w3.org/1999/xlink" version="1.1" viewBox="-10 0 1010 1000">
   <path fill="currentColor"
d="M285 47l70 21c-28 74 -64 146 -103 214v673h-72v-560c-32 45 -66 87 -100 122c-8 -18 -28 -56 -42 -73c98 -96 190 -245 247 -397zM673 608h171v-149h-171v149zM433 608h165v-149h-165v149zM598 246h-165v145h165v-145zM844 246h-171v145h171v-145zM673 177h242v549h-71
v-49h-171v280h-75v-280h-165v54h-69v-554h234v-133h75v133z" />
</svg>
