<?xml version="1.0" standalone="no"?>
<!DOCTYPE svg PUBLIC "-//W3C//DTD SVG 1.1//EN" "http://www.w3.org/Graphics/SVG/1.1/DTD/svg11.dtd" >
<svg xmlns="http://www.w3.org/2000/svg" xmlns:xlink="http://www.w3.org/1999/xlink" version="1.1" viewBox="-10 0 1010 1000">
   <path fill="currentColor"
d="M267 47l69 22c-29 76 -64 154 -104 225v661h-70v-548c-27 40 -57 77 -86 109c-7 -17 -29 -55 -41 -72c92 -97 179 -246 232 -397zM958 531v71h-283v354h-74v-354h-284v-71h284v-366h-249v-71h580v71h-257v366h283zM393 237l61 -16c27 78 52 179 59 245l-65 17
c-6 -66 -29 -168 -55 -246zM816 485l-59 -18c24 -66 52 -175 66 -251l72 17c-24 85 -53 187 -79 252z" />
</svg>
