<?xml version="1.0" standalone="no"?>
<!DOCTYPE svg PUBLIC "-//W3C//DTD SVG 1.1//EN" "http://www.w3.org/Graphics/SVG/1.1/DTD/svg11.dtd" >
<svg xmlns="http://www.w3.org/2000/svg" xmlns:xlink="http://www.w3.org/1999/xlink" version="1.1" viewBox="-10 0 1010 1000">
   <path fill="currentColor"
d="M267 47l70 20c-26 72 -58 143 -95 212v676h-72v-557c-32 48 -67 92 -102 130c-8 -17 -28 -57 -42 -73c97 -100 187 -252 241 -408zM577 748l54 -17c35 59 75 140 92 189l-58 21c-15 -50 -54 -132 -88 -193zM447 425h222c-8 -79 -13 -165 -17 -255c-68 14 -137 26 -205 35
v220zM948 495h-201c25 215 69 363 124 366c19 0 31 -51 39 -144c13 13 40 32 54 38c-20 150 -54 193 -93 193c-108 -2 -166 -184 -195 -453h-229v365l141 -35c-1 18 0 47 2 61c-182 52 -210 63 -227 75c-3 -18 -16 -47 -27 -63c17 -7 41 -21 41 -60v-686h1l-1 -1
c168 -25 359 -64 467 -105l63 59c-54 18 -117 35 -185 51c3 95 9 186 17 269h209v70z" />
</svg>
