<?xml version="1.0" standalone="no"?>
<!DOCTYPE svg PUBLIC "-//W3C//DTD SVG 1.1//EN" "http://www.w3.org/Graphics/SVG/1.1/DTD/svg11.dtd" >
<svg xmlns="http://www.w3.org/2000/svg" xmlns:xlink="http://www.w3.org/1999/xlink" version="1.1" viewBox="-10 0 1010 1000">
   <path fill="currentColor"
d="M268 47l69 21c-27 76 -62 151 -101 221v669h-73v-549c-27 39 -56 77 -84 108c-8 -18 -30 -56 -43 -72c93 -98 179 -247 232 -398zM793 654h-355v190h355v-190zM365 958v-372h504v368h-76v-42h-355v46h-73zM940 261h-282v150h241v70h-562v-70h246v-150h-275v-70h275v-148
h75v148h282v70z" />
</svg>
