<?xml version="1.0" standalone="no"?>
<!DOCTYPE svg PUBLIC "-//W3C//DTD SVG 1.1//EN" "http://www.w3.org/Graphics/SVG/1.1/DTD/svg11.dtd" >
<svg xmlns="http://www.w3.org/2000/svg" xmlns:xlink="http://www.w3.org/1999/xlink" version="1.1" viewBox="-10 0 1010 1000">
   <path fill="currentColor"
d="M315 186h307c-11 -32 -38 -84 -59 -122l64 -24c25 37 51 87 64 119l-63 27h330v70h-643v-70zM712 318l56 -35c71 61 155 148 194 207l-61 40c-38 -58 -119 -149 -189 -212zM473 285l72 22c-49 89 -127 178 -200 235c-12 -14 -41 -38 -58 -50c74 -50 144 -128 186 -207z
M267 49l68 21c-24 65 -55 130 -88 192v695h-72v-577c-36 55 -75 104 -115 145c-7 -17 -27 -55 -41 -73c99 -97 192 -249 248 -403zM738 461l76 16c-28 99 -72 186 -133 259c78 73 175 128 288 159c-16 15 -38 44 -49 64c-113 -36 -210 -93 -289 -170
c-79 76 -181 132 -311 171c-8 -18 -26 -46 -39 -62c128 -35 227 -89 301 -161c-60 -70 -107 -154 -141 -248l66 -19c29 80 70 153 124 214c51 -64 86 -139 107 -223z" />
</svg>
