<?xml version="1.0" standalone="no"?>
<!DOCTYPE svg PUBLIC "-//W3C//DTD SVG 1.1//EN" "http://www.w3.org/Graphics/SVG/1.1/DTD/svg11.dtd" >
<svg xmlns="http://www.w3.org/2000/svg" xmlns:xlink="http://www.w3.org/1999/xlink" version="1.1" viewBox="-10 0 1010 1000">
   <path fill="currentColor"
d="M64 727v-62h874v62h-529c-44 47 -92 92 -140 130l428 -24c-29 -26 -59 -51 -89 -73l62 -31c81 57 171 137 214 193l-64 40c-16 -21 -38 -46 -64 -72c-509 31 -561 34 -597 46c-4 -15 -16 -49 -24 -67c18 -3 37 -15 61 -33c17 -14 68 -57 115 -109h-247zM142 526h498
c21 -31 44 -64 62 -94h-529v-59h570l12 -5l52 20c-25 45 -56 93 -85 138h127v61h-707v-61zM376 257l26 -49c69 18 159 51 206 77l-25 55c-46 -26 -137 -62 -207 -83zM481 33l69 28c-5 8 -11 16 -17 23c94 71 267 151 430 190c-17 16 -39 45 -51 65
c-158 -44 -324 -133 -423 -209c-100 93 -242 160 -404 206c-10 -18 -32 -49 -48 -64c191 -49 364 -130 444 -239z" />
</svg>
