<?xml version="1.0" standalone="no"?>
<!DOCTYPE svg PUBLIC "-//W3C//DTD SVG 1.1//EN" "http://www.w3.org/Graphics/SVG/1.1/DTD/svg11.dtd" >
<svg xmlns="http://www.w3.org/2000/svg" xmlns:xlink="http://www.w3.org/1999/xlink" version="1.1" viewBox="-10 0 1010 1000">
   <path fill="currentColor"
d="M922 323l-62 36c-10 -16 -21 -37 -36 -59c-372 25 -414 27 -442 38c-3 -16 -15 -51 -23 -70c17 -3 37 -18 58 -40c24 -22 101 -107 150 -190l74 24c-50 71 -108 139 -163 193l303 -16c-28 -38 -58 -78 -85 -111l57 -30c60 70 134 167 169 225zM270 47l70 21
c-27 74 -60 147 -98 217v670h-71v-555c-29 44 -60 82 -90 116c-8 -17 -30 -56 -42 -72c92 -97 179 -246 231 -397zM942 676v68h-269v218h-73v-218h-301v-68h301v-140h-171c-21 40 -44 76 -68 106c-14 -10 -46 -27 -64 -35c56 -60 101 -154 127 -245l70 16
c-9 31 -21 62 -34 92h140v-120h73v120h227v66h-227v140h269z" />
</svg>
