<?xml version="1.0" standalone="no"?>
<!DOCTYPE svg PUBLIC "-//W3C//DTD SVG 1.1//EN" "http://www.w3.org/Graphics/SVG/1.1/DTD/svg11.dtd" >
<svg xmlns="http://www.w3.org/2000/svg" xmlns:xlink="http://www.w3.org/1999/xlink" version="1.1" viewBox="-10 0 1010 1000">
   <path fill="currentColor"
d="M265 48l69 21c-29 74 -63 146 -102 215v672h-69v-563c-32 46 -66 88 -100 124c-7 -18 -28 -56 -41 -72c97 -97 188 -245 243 -397zM451 603v-56h72v58c0 109 -35 256 -171 357c-11 -15 -39 -39 -54 -48c129 -93 153 -219 153 -311zM707 955v-407h73v407h-73zM933 375
h-191c54 77 141 148 225 184c-16 14 -37 38 -49 56c-94 -48 -194 -143 -250 -240h-101c-61 110 -148 189 -266 247c-8 -16 -31 -46 -45 -60c99 -43 174 -105 230 -187h-191v-67h228c20 -40 35 -85 47 -134c-67 6 -134 11 -194 14c-2 -19 -12 -45 -20 -62
c164 -10 363 -31 476 -62l43 62c-63 17 -144 31 -230 40c-12 52 -27 99 -46 142h334v67z" />
</svg>
