<?xml version="1.0" standalone="no"?>
<!DOCTYPE svg PUBLIC "-//W3C//DTD SVG 1.1//EN" "http://www.w3.org/Graphics/SVG/1.1/DTD/svg11.dtd" >
<svg xmlns="http://www.w3.org/2000/svg" xmlns:xlink="http://www.w3.org/1999/xlink" version="1.1" viewBox="-10 0 1010 1000">
   <path fill="currentColor"
d="M245 49l68 20c-22 67 -50 135 -80 200v688h-71v-557c-29 48 -60 92 -92 131c-7 -18 -27 -57 -39 -76c86 -100 166 -252 214 -406zM881 441l50 52c-51 45 -118 95 -173 131c49 109 117 197 210 250c-16 13 -40 41 -51 59c-179 -112 -266 -329 -313 -611
c-29 74 -64 140 -106 198v320l188 -57c1 20 5 49 9 65c-228 74 -260 87 -279 102v1c-6 -18 -21 -48 -32 -64c17 -8 44 -26 44 -65v-221c-34 35 -73 67 -116 94c-11 -14 -40 -41 -57 -53c145 -83 238 -209 296 -379h-167v101h-68v-167h255c12 -44 22 -91 31 -140l71 11
c-9 45 -17 88 -29 129h290v167h-70v-101h-202c16 111 40 214 73 303c51 -37 108 -86 146 -125z" />
</svg>
