<?xml version="1.0" standalone="no"?>
<!DOCTYPE svg PUBLIC "-//W3C//DTD SVG 1.1//EN" "http://www.w3.org/Graphics/SVG/1.1/DTD/svg11.dtd" >
<svg xmlns="http://www.w3.org/2000/svg" xmlns:xlink="http://www.w3.org/1999/xlink" version="1.1" viewBox="-10 0 1010 1000">
   <path fill="currentColor"
d="M274 47l70 22c-28 74 -64 148 -104 217v669h-71v-560c-31 45 -65 86 -99 122c-8 -18 -29 -56 -42 -73c98 -96 190 -245 246 -397zM947 499h-231c12 49 27 97 44 141c38 -33 83 -77 109 -111l50 43c-42 42 -94 87 -137 119c40 81 91 149 156 189c-16 13 -39 37 -50 55
c-117 -83 -189 -248 -230 -436h-80v358l116 -48c1 17 6 43 9 57c-139 64 -168 80 -183 94l-2 2v-1l-1 1v-2c-10 -16 -31 -43 -41 -53c13 -13 36 -46 36 -92v-316h-67c-5 145 -22 319 -80 446c-12 -11 -43 -27 -60 -32c67 -149 73 -358 73 -508v-308h530v65h-462v243v28h501
v66zM881 327h-389v-64h389v64z" />
</svg>
