<?xml version="1.0" standalone="no"?>
<!DOCTYPE svg PUBLIC "-//W3C//DTD SVG 1.1//EN" "http://www.w3.org/Graphics/SVG/1.1/DTD/svg11.dtd" >
<svg xmlns="http://www.w3.org/2000/svg" xmlns:xlink="http://www.w3.org/1999/xlink" version="1.1" viewBox="-10 0 1010 1000">
   <path fill="currentColor"
d="M945 87v69h-580v-69h580zM809 507v-175h-329v175h329zM886 266v308h-479v-308h479zM583 824l-77 18c-8 -58 -36 -147 -67 -212l72 -16c33 66 62 152 72 210zM269 47l70 21c-29 75 -65 150 -105 220v667h-71v-558c-31 44 -65 85 -99 120c-7 -18 -28 -56 -42 -73
c98 -95 191 -245 247 -397zM753 865h205v70h-644v-70h357c39 -71 81 -179 105 -255l86 17c-32 77 -72 171 -109 238z" />
</svg>
