<?xml version="1.0" standalone="no"?>
<!DOCTYPE svg PUBLIC "-//W3C//DTD SVG 1.1//EN" "http://www.w3.org/Graphics/SVG/1.1/DTD/svg11.dtd" >
<svg xmlns="http://www.w3.org/2000/svg" xmlns:xlink="http://www.w3.org/1999/xlink" version="1.1" viewBox="-10 0 1010 1000">
   <path fill="currentColor"
d="M711 384v-203c-51 9 -103 17 -151 24c-4 -16 -13 -40 -22 -56c120 -16 263 -47 339 -82l54 52c-42 18 -95 34 -152 47v218h138v65h-138v244h160v65h-387v-65h159v-244h-135v-65h135zM223 49l63 19c-20 68 -45 138 -73 204v685h-66v-550c-25 45 -52 87 -79 123
c-6 -17 -25 -57 -37 -75c80 -101 149 -253 192 -406zM488 399l41 11c-13 136 -40 248 -80 337c81 99 192 123 323 124c28 0 165 0 200 -1c-11 17 -21 47 -24 66h-180c-145 0 -263 -27 -350 -126c-36 61 -80 109 -131 146c-8 -16 -28 -40 -42 -52c50 -34 94 -86 130 -153
c-30 -50 -55 -113 -75 -190l57 -21c13 55 29 101 49 139c24 -61 41 -133 52 -213h-162c39 -79 87 -195 126 -298h-121v-65h217c-36 94 -84 210 -123 299h82z" />
</svg>
