<?xml version="1.0" standalone="no"?>
<!DOCTYPE svg PUBLIC "-//W3C//DTD SVG 1.1//EN" "http://www.w3.org/Graphics/SVG/1.1/DTD/svg11.dtd" >
<svg xmlns="http://www.w3.org/2000/svg" xmlns:xlink="http://www.w3.org/1999/xlink" version="1.1" viewBox="-10 0 1010 1000">
   <path fill="currentColor"
d="M269 47l70 22c-29 74 -65 149 -105 218v668h-71v-559c-31 45 -65 85 -99 121c-7 -18 -28 -56 -42 -73c98 -96 191 -245 247 -397zM457 310v194h334v-194h-334zM774 877h79c24 0 28 -16 31 -124c16 13 48 24 70 29c-8 129 -28 162 -93 162h-98c-75 0 -93 -22 -93 -97v-276
h-98c-21 167 -71 309 -253 387c-9 -17 -31 -44 -48 -57c164 -64 206 -188 223 -330h-111v-327h120c-15 -46 -53 -118 -90 -172l65 -26c39 53 80 124 95 169l-68 29h180c31 -56 69 -140 89 -201l79 26c-26 57 -58 123 -87 175h102v327h-122v276c0 26 4 30 28 30z" />
</svg>
