<?xml version="1.0" standalone="no"?>
<!DOCTYPE svg PUBLIC "-//W3C//DTD SVG 1.1//EN" "http://www.w3.org/Graphics/SVG/1.1/DTD/svg11.dtd" >
<svg xmlns="http://www.w3.org/2000/svg" xmlns:xlink="http://www.w3.org/1999/xlink" version="1.1" viewBox="-10 0 1010 1000">
   <path fill="currentColor"
d="M259 47l70 21c-26 75 -58 151 -95 221v666h-71v-545c-25 39 -53 75 -80 107c-8 -18 -30 -56 -43 -73c88 -97 170 -246 219 -397zM426 570h173c1 -17 1 -36 1 -53v-50h-174v103zM426 309v103h174v-103h-174zM836 309h-163v103h163v-103zM836 570v-103h-163v50
c0 17 0 36 -2 53h165zM909 628h-244c-10 63 -31 123 -75 177c102 43 230 67 376 77c-16 17 -34 47 -44 69c-150 -14 -280 -44 -385 -95c-52 41 -124 76 -222 104c-10 -17 -30 -46 -45 -61c89 -21 155 -48 202 -81c-58 -37 -107 -84 -143 -141l63 -24c33 49 78 88 134 120
c40 -44 58 -93 67 -145h-237v-377h244v-83h-270v-67h613v67h-270v83h236v377z" />
</svg>
