<?xml version="1.0" standalone="no"?>
<!DOCTYPE svg PUBLIC "-//W3C//DTD SVG 1.1//EN" "http://www.w3.org/Graphics/SVG/1.1/DTD/svg11.dtd" >
<svg xmlns="http://www.w3.org/2000/svg" xmlns:xlink="http://www.w3.org/1999/xlink" version="1.1" viewBox="-10 0 1010 1000">
   <path fill="currentColor"
d="M865 57l46 57c-145 41 -374 64 -564 74c-2 -18 -11 -43 -19 -59c187 -12 414 -36 537 -72zM793 412l-56 -26c31 -54 72 -143 94 -206l67 28c-32 70 -71 151 -105 204zM689 356l-65 20c-9 -41 -31 -109 -53 -161l62 -16c23 51 48 117 56 157zM499 382l-66 23
c-10 -43 -38 -114 -67 -167l63 -19c29 51 60 120 70 163zM264 47l69 21c-29 78 -64 156 -104 229v658h-69v-546c-27 39 -56 75 -84 108c-7 -18 -29 -56 -41 -73c91 -97 178 -246 229 -397zM762 572h-206c-18 41 -38 80 -57 114c53 18 107 42 160 66c48 -48 81 -107 103 -180
zM956 572h-120c-24 86 -60 156 -111 212c75 39 145 80 194 115l-51 56c-49 -38 -120 -80 -198 -121c-78 60 -183 100 -323 125c-6 -20 -20 -45 -33 -60c123 -19 217 -51 287 -99c-65 -31 -134 -59 -199 -81c26 -40 53 -92 80 -147h-170v-66h198c19 -42 35 -84 46 -123l72 11
c-12 35 -27 74 -42 112h370v66z" />
</svg>
