<?xml version="1.0" standalone="no"?>
<!DOCTYPE svg PUBLIC "-//W3C//DTD SVG 1.1//EN" "http://www.w3.org/Graphics/SVG/1.1/DTD/svg11.dtd" >
<svg xmlns="http://www.w3.org/2000/svg" xmlns:xlink="http://www.w3.org/1999/xlink" version="1.1" viewBox="-10 0 1010 1000">
   <path fill="currentColor"
d="M678 173l-67 29c-13 -35 -44 -92 -69 -133l63 -26c29 42 59 95 73 130zM259 47l66 20c-23 67 -52 134 -84 197v696h-69v-576c-30 48 -63 91 -95 129c-7 -16 -28 -52 -41 -69c90 -97 172 -246 223 -397zM810 698h-375v158h375v-158zM370 957v-321h506v318h-66v-36h-375v39
h-65zM384 552v-61h482v61h-482zM866 351v61h-482v-61h482zM312 208h633v63h-633v-63z" />
</svg>
