<?xml version="1.0" standalone="no"?>
<!DOCTYPE svg PUBLIC "-//W3C//DTD SVG 1.1//EN" "http://www.w3.org/Graphics/SVG/1.1/DTD/svg11.dtd" >
<svg xmlns="http://www.w3.org/2000/svg" xmlns:xlink="http://www.w3.org/1999/xlink" version="1.1" viewBox="-10 0 1010 1000">
   <path fill="currentColor"
d="M264 44l66 22c-27 71 -59 144 -95 211v678h-70v-561c-29 44 -61 84 -92 120c-7 -18 -29 -56 -40 -73c92 -97 178 -245 231 -397zM518 706l57 -35c42 41 89 98 109 137l-60 41c-19 -40 -65 -100 -106 -143zM957 493h-398c-10 31 -22 62 -33 91h252v-68h73v68h101v64h-101
v225c0 41 -8 61 -38 71c-31 12 -79 13 -156 13c-3 -20 -14 -48 -24 -68c57 2 111 2 126 1s19 -5 19 -18v-224h-281c-44 90 -100 169 -171 233c-12 -12 -42 -37 -60 -49c102 -84 172 -199 219 -339h-178v-64h199c8 -26 15 -53 21 -80h-157v-62h169c5 -24 10 -49 14 -74h-209
v-63h218c5 -34 9 -71 13 -107l71 6c-4 34 -8 68 -13 101h300v63h-309c-4 25 -9 50 -13 74h297v62h-311c-6 27 -12 54 -19 80h379v64z" />
</svg>
