<?xml version="1.0" standalone="no"?>
<!DOCTYPE svg PUBLIC "-//W3C//DTD SVG 1.1//EN" "http://www.w3.org/Graphics/SVG/1.1/DTD/svg11.dtd" >
<svg xmlns="http://www.w3.org/2000/svg" xmlns:xlink="http://www.w3.org/1999/xlink" version="1.1" viewBox="-10 0 1010 1000">
   <path fill="currentColor"
d="M312 189h262v-144h74v144h300v68h-300v151h258v69h-566v-69h234v-151h-262v-68zM517 526l52 -37c54 41 117 99 146 142l-55 42c-28 -43 -88 -104 -143 -147zM245 49l68 19c-21 66 -48 133 -78 197v691h-71v-559c-29 49 -62 95 -94 134c-7 -18 -28 -57 -39 -76
c86 -100 166 -252 214 -406zM322 874l-55 -40c45 -51 69 -139 79 -219l60 16c-11 85 -33 183 -84 243zM559 862h127c36 0 42 -17 46 -135c16 13 44 24 64 28c-8 138 -29 172 -103 172h-142c-85 0 -107 -21 -107 -95v-247h70v246c0 27 7 31 45 31zM782 634l59 -25
c51 71 94 167 109 232l-64 28c-13 -66 -56 -162 -104 -235z" />
</svg>
