<?xml version="1.0" standalone="no"?>
<!DOCTYPE svg PUBLIC "-//W3C//DTD SVG 1.1//EN" "http://www.w3.org/Graphics/SVG/1.1/DTD/svg11.dtd" >
<svg xmlns="http://www.w3.org/2000/svg" xmlns:xlink="http://www.w3.org/1999/xlink" version="1.1" viewBox="-10 0 1010 1000">
   <path fill="currentColor"
d="M246 46l68 20c-24 73 -54 147 -88 216v673h-71v-545c-27 43 -56 83 -85 118c-6 -17 -27 -57 -39 -76c87 -99 166 -252 215 -406zM410 419v-65c-40 34 -82 64 -125 90c-9 -15 -31 -46 -45 -60c141 -75 269 -200 341 -346l65 23c-6 13 -13 24 -19 37c78 98 220 208 336 268
c-14 17 -31 47 -38 66c-114 -67 -247 -176 -334 -277c-51 75 -113 142 -181 199h391v65h-391zM662 710l-63 11c-6 -63 -25 -160 -45 -234l60 -10c20 74 41 169 48 233zM350 517l58 -16c32 78 63 177 74 243l-60 19c-11 -67 -41 -169 -72 -246zM816 491l69 19
c-43 105 -101 234 -153 325h198v69h-649v-69h383c53 -92 117 -239 152 -344z" />
</svg>
