<?xml version="1.0" standalone="no"?>
<!DOCTYPE svg PUBLIC "-//W3C//DTD SVG 1.1//EN" "http://www.w3.org/Graphics/SVG/1.1/DTD/svg11.dtd" >
<svg xmlns="http://www.w3.org/2000/svg" xmlns:xlink="http://www.w3.org/1999/xlink" version="1.1" viewBox="-10 0 1010 1000">
   <path fill="currentColor"
d="M283 256v-65h345v65h-345zM484 314l45 -34c46 54 99 129 121 176l-48 39c-22 -49 -73 -125 -118 -181zM495 154l-58 30c-10 -32 -36 -81 -61 -116l53 -27c27 34 54 81 66 113zM230 47l68 20c-20 66 -46 134 -75 199v686h-68v-554c-27 47 -57 91 -86 128
c-8 -17 -28 -56 -40 -75c82 -99 157 -251 201 -404zM359 283l61 20c-37 85 -90 179 -140 241c-8 -13 -32 -38 -45 -50c48 -55 94 -135 124 -211zM603 794l-55 40c-17 -33 -43 -74 -74 -119c-48 87 -111 158 -186 212c-9 -13 -33 -39 -46 -51c81 -53 144 -126 190 -217
c-36 -49 -76 -98 -114 -140l51 -35c30 34 62 71 94 109c17 -45 32 -94 43 -146l64 12c-15 69 -37 133 -63 191c40 53 74 104 96 144zM946 279v35c-11 421 -21 555 -48 596c-17 23 -35 31 -59 34s-58 3 -92 0c-1 -19 -8 -46 -19 -64c36 3 68 3 82 3s22 -1 30 -15
c20 -28 32 -156 41 -523h-101c-11 261 -48 482 -185 619c-10 -15 -34 -36 -49 -45c128 -123 162 -329 172 -574h-85v-66h87c2 -74 2 -151 2 -229h62c0 78 0 155 -2 229h164z" />
</svg>
