<?xml version="1.0" standalone="no"?>
<!DOCTYPE svg PUBLIC "-//W3C//DTD SVG 1.1//EN" "http://www.w3.org/Graphics/SVG/1.1/DTD/svg11.dtd" >
<svg xmlns="http://www.w3.org/2000/svg" xmlns:xlink="http://www.w3.org/1999/xlink" version="1.1" viewBox="-10 0 1010 1000">
   <path fill="currentColor"
d="M277 48l70 21c-28 75 -65 149 -105 218v668h-71v-559c-31 45 -65 85 -99 120c-7 -17 -28 -55 -42 -72c98 -96 191 -245 247 -396zM416 308v222c0 127 -14 303 -102 420c-11 -13 -41 -34 -56 -41c80 -109 88 -262 88 -379v-283h228v-203h74v78h271v57h-271v68h235l13 -3
l51 13c-16 50 -33 108 -49 144l-63 -15c7 -21 16 -50 24 -78h-443zM832 577h-153c-87 0 -108 -16 -108 -79v-40l-128 14l-7 -53l135 -14v-80h69v72l174 -17l6 53l-180 18v46c0 21 7 26 45 26h138c30 0 36 -9 39 -67c15 9 41 17 60 22c-7 77 -28 99 -90 99zM801 886h62
c21 0 25 -15 27 -117c14 11 43 21 62 27c-6 120 -24 150 -80 150h-81c-67 0 -82 -20 -82 -85v-179h-118c-7 157 -41 234 -174 279c-7 -16 -27 -42 -40 -53c127 -42 143 -109 146 -283h256v236c0 22 3 25 22 25z" />
</svg>
