<?xml version="1.0" standalone="no"?>
<!DOCTYPE svg PUBLIC "-//W3C//DTD SVG 1.1//EN" "http://www.w3.org/Graphics/SVG/1.1/DTD/svg11.dtd" >
<svg xmlns="http://www.w3.org/2000/svg" xmlns:xlink="http://www.w3.org/1999/xlink" version="1.1" viewBox="-10 0 1010 1000">
   <path fill="currentColor"
d="M377 238v116h-69v-181h298c-16 -34 -38 -73 -60 -103l62 -25c27 39 57 89 74 128h258v181h-70v-116h-493zM236 50l68 19c-22 67 -50 135 -80 199v689h-69v-562c-29 49 -62 95 -94 133c-7 -17 -27 -57 -39 -76c86 -99 166 -249 214 -402zM562 400l13 -2l40 13
c-39 281 -147 453 -293 545c-10 -16 -35 -41 -49 -51c82 -48 151 -122 201 -224c-25 -26 -59 -55 -90 -76l32 -48c29 18 60 40 84 61c17 -46 31 -97 41 -153h-118c-32 81 -73 153 -120 207c-13 -11 -41 -31 -58 -40c77 -81 132 -207 162 -340l68 13c-8 33 -18 64 -28 95h115
zM751 876h112c28 0 33 -19 37 -119c14 12 41 23 60 27c-8 122 -26 156 -92 156h-126c-73 0 -95 -20 -95 -100v-466h262v280c0 32 -5 49 -28 60c-21 12 -57 12 -108 12c-3 -18 -12 -42 -21 -61c39 2 70 2 80 1c10 0 13 -3 13 -13v-214h-133v400c0 31 6 37 39 37z" />
</svg>
