<?xml version="1.0" standalone="no"?>
<!DOCTYPE svg PUBLIC "-//W3C//DTD SVG 1.1//EN" "http://www.w3.org/Graphics/SVG/1.1/DTD/svg11.dtd" >
<svg xmlns="http://www.w3.org/2000/svg" xmlns:xlink="http://www.w3.org/1999/xlink" version="1.1" viewBox="-10 0 1010 1000">
   <path fill="currentColor"
d="M780 285l67 13c-8 38 -20 75 -33 109c53 43 110 96 141 132l-45 54c-27 -34 -76 -83 -124 -126c-20 38 -43 71 -69 99c-12 -12 -40 -34 -55 -43c59 -56 99 -143 118 -238zM243 48l68 19c-24 74 -55 148 -89 217v672h-71v-548c-25 39 -52 75 -79 107
c-7 -18 -27 -58 -41 -76c87 -96 165 -242 212 -391zM551 510l-42 56c-17 -27 -50 -65 -82 -98c-30 59 -67 110 -110 150c-11 -12 -39 -35 -56 -46c79 -64 132 -166 157 -285l69 11c-9 37 -20 74 -33 108c38 34 77 76 97 104zM650 254v261c70 120 200 248 315 310
c-18 14 -41 41 -53 58c-91 -57 -188 -153 -262 -257v332h-75v-318c-71 104 -164 194 -256 250c-12 -17 -34 -43 -51 -58c121 -62 240 -188 307 -317v-261h-280v-69h280v-137h75v137h289v69h-289z" />
</svg>
