<?xml version="1.0" standalone="no"?>
<!DOCTYPE svg PUBLIC "-//W3C//DTD SVG 1.1//EN" "http://www.w3.org/Graphics/SVG/1.1/DTD/svg11.dtd" >
<svg xmlns="http://www.w3.org/2000/svg" xmlns:xlink="http://www.w3.org/1999/xlink" version="1.1" viewBox="-10 0 1010 1000">
   <path fill="currentColor"
d="M829 110l70 26c-34 54 -76 116 -109 156l-54 -24c32 -42 72 -110 93 -158zM933 452l-45 56c-59 -49 -172 -119 -273 -170c-43 84 -123 137 -270 171c-7 -17 -25 -43 -39 -56c252 -54 280 -160 288 -409h74c-3 95 -10 172 -29 235c103 48 229 120 294 173zM808 727
l-54 -23c30 -45 69 -118 90 -169l69 25c-33 58 -73 125 -105 167zM383 745l-58 -30c45 -37 75 -108 88 -177l62 13c-11 72 -42 149 -92 194zM425 115l59 12c-10 62 -37 135 -75 179l-57 -25c35 -38 62 -106 73 -166zM267 47l69 21c-28 74 -63 147 -103 216v670h-70v-561
c-32 46 -66 87 -101 123c-8 -17 -28 -56 -42 -72c98 -96 191 -245 247 -397zM667 456v173c0 56 50 201 303 264c-13 15 -33 47 -43 63c-202 -54 -280 -172 -299 -230c-17 58 -93 174 -294 230c-7 -16 -27 -45 -42 -60c247 -65 298 -209 298 -267v-173h77z" />
</svg>
