<?xml version="1.0" standalone="no"?>
<!DOCTYPE svg PUBLIC "-//W3C//DTD SVG 1.1//EN" "http://www.w3.org/Graphics/SVG/1.1/DTD/svg11.dtd" >
<svg xmlns="http://www.w3.org/2000/svg" xmlns:xlink="http://www.w3.org/1999/xlink" version="1.1" viewBox="-10 0 1010 1000">
   <path fill="currentColor"
d="M265 47l70 22c-28 74 -62 149 -100 219v668h-71v-553c-28 42 -59 80 -89 113c-8 -17 -30 -55 -42 -72c93 -97 179 -246 232 -397zM736 641h-200c-17 29 -35 58 -52 83c54 16 112 36 168 56c43 -38 68 -85 84 -139zM657 338v166h-57l5 1c-10 23 -22 49 -35 73h383v63h-142
c-19 65 -45 121 -90 166c73 30 140 61 188 91l-48 56c-48 -31 -120 -66 -199 -99c-73 48 -176 81 -326 103c-5 -18 -20 -46 -32 -60c128 -16 216 -40 281 -74c-68 -26 -139 -50 -202 -67c24 -33 51 -73 77 -116h-165v-63h200c17 -29 30 -59 42 -86l49 9v-152
c-73 72 -176 135 -268 168c-10 -16 -29 -41 -45 -53c95 -30 203 -88 273 -152h-238v-63h278v-96c-76 9 -154 14 -227 18c-2 -17 -12 -41 -18 -57c177 -11 393 -33 508 -67l49 53c-66 19 -150 34 -241 45v104h288v63h-240c71 63 176 123 265 154c-16 11 -37 37 -46 53
c-88 -37 -193 -108 -267 -181z" />
</svg>
