<?xml version="1.0" standalone="no"?>
<!DOCTYPE svg PUBLIC "-//W3C//DTD SVG 1.1//EN" "http://www.w3.org/Graphics/SVG/1.1/DTD/svg11.dtd" >
<svg xmlns="http://www.w3.org/2000/svg" xmlns:xlink="http://www.w3.org/1999/xlink" version="1.1" viewBox="-10 0 1010 1000">
   <path fill="currentColor"
d="M769 77l60 -12c24 154 57 262 121 359c-19 14 -40 35 -51 54c-72 -112 -105 -235 -130 -401zM638 81l63 8c-18 152 -51 292 -110 385c-10 -10 -37 -29 -52 -38c56 -84 85 -216 99 -355zM221 45l66 19c-19 66 -44 131 -71 194v697h-66v-566c-25 42 -51 81 -78 115
c-6 -16 -25 -56 -37 -75c78 -94 146 -238 186 -384zM563 555l-39 55c-13 -31 -42 -89 -67 -137v484h-67v-475c-27 89 -63 173 -100 227c-8 -18 -24 -46 -35 -63c51 -70 102 -202 126 -318h-118v-69h127v-206h67v206h100v69h-100v55c24 34 91 145 106 172zM790 635l55 -17
c44 99 86 227 98 307l-59 20c-3 -22 -9 -50 -16 -78c-236 32 -267 39 -288 49c-2 -15 -13 -49 -22 -67c17 -5 31 -37 49 -83c18 -43 72 -213 97 -365l69 18c-29 142 -76 295 -124 413l203 -26c-18 -58 -39 -118 -62 -171z" />
</svg>
