<?xml version="1.0" standalone="no"?>
<!DOCTYPE svg PUBLIC "-//W3C//DTD SVG 1.1//EN" "http://www.w3.org/Graphics/SVG/1.1/DTD/svg11.dtd" >
<svg xmlns="http://www.w3.org/2000/svg" xmlns:xlink="http://www.w3.org/1999/xlink" version="1.1" viewBox="-10 0 1010 1000">
   <path fill="currentColor"
d="M802 239v-90h-334v90h334zM802 386v-91h-334v91h334zM802 533v-91h-334v91h334zM875 90v502h-478v-502h478zM289 732v-68h672v68h-672zM260 47l69 21c-25 67 -57 134 -92 197v690h-70v-577c-34 50 -71 96 -108 134c-7 -17 -29 -56 -42 -73c97 -95 188 -242 243 -392z
M498 755l63 37c-57 65 -147 127 -233 169c-11 -16 -32 -38 -49 -51c85 -38 172 -99 219 -155zM704 799l58 -38c70 45 162 113 209 157l-62 43c-43 -44 -135 -113 -205 -162z" />
</svg>
