<?xml version="1.0" standalone="no"?>
<!DOCTYPE svg PUBLIC "-//W3C//DTD SVG 1.1//EN" "http://www.w3.org/Graphics/SVG/1.1/DTD/svg11.dtd" >
<svg xmlns="http://www.w3.org/2000/svg" xmlns:xlink="http://www.w3.org/1999/xlink" version="1.1" viewBox="-10 0 1010 1000">
   <path fill="currentColor"
d="M543 273h121c11 -31 23 -69 31 -103h-194v-64h452v64h-180c-13 36 -28 72 -42 103h176v460h-67v-395h-232v397h-65v-462zM220 46l67 19c-20 63 -44 126 -70 187v704h-68v-568c-28 51 -59 98 -91 137c-6 -17 -26 -58 -37 -75c82 -100 155 -251 199 -404zM378 676l118 -57
c-1 19 0 48 2 62c-148 83 -171 99 -185 114c-4 -18 -19 -49 -29 -66c13 -7 29 -24 29 -63v-513h65v188h127v64h-127v271zM751 390v207c0 123 -22 273 -246 362c-8 -14 -25 -35 -40 -46c202 -77 225 -217 225 -317v-206h61zM728 804l42 -45c64 42 147 104 187 145l-43 53
c-40 -43 -120 -108 -186 -153z" />
</svg>
