<?xml version="1.0" standalone="no"?>
<!DOCTYPE svg PUBLIC "-//W3C//DTD SVG 1.1//EN" "http://www.w3.org/Graphics/SVG/1.1/DTD/svg11.dtd" >
<svg xmlns="http://www.w3.org/2000/svg" xmlns:xlink="http://www.w3.org/1999/xlink" version="1.1" viewBox="-10 0 1010 1000">
   <path fill="currentColor"
d="M243 48l68 19c-24 74 -55 147 -89 217v672h-71v-548c-25 39 -52 75 -79 107c-7 -18 -27 -58 -41 -76c87 -96 165 -242 212 -391zM844 155h-416v118h416v-118zM428 339v53c0 165 -16 402 -126 558c-12 -13 -41 -37 -57 -45c103 -149 112 -359 112 -513v-303h560v250h-489z
M617 655h133v-108h-133v108zM950 655v63h-132v238h-68v-238h-136c-11 86 -48 175 -163 238c-10 -13 -33 -33 -48 -44c98 -53 132 -125 143 -194h-121v-63h125v-108h-105v-62h124c-10 -34 -34 -81 -58 -118l57 -21c27 38 56 90 65 123l-40 16h191l-47 -13
c24 -35 52 -91 67 -128l69 16c-24 45 -49 91 -72 125h135v62h-118v108h132z" />
</svg>
