<?xml version="1.0" standalone="no"?>
<!DOCTYPE svg PUBLIC "-//W3C//DTD SVG 1.1//EN" "http://www.w3.org/Graphics/SVG/1.1/DTD/svg11.dtd" >
<svg xmlns="http://www.w3.org/2000/svg" xmlns:xlink="http://www.w3.org/1999/xlink" version="1.1" viewBox="-10 0 1010 1000">
   <path fill="currentColor"
d="M801 214v-80h-327v80h327zM801 349v-81h-327v81h327zM872 78v328h-466v-328h466zM273 51l69 21c-26 71 -59 142 -95 209v676h-72v-558c-32 49 -67 93 -102 131c-7 -17 -28 -55 -42 -72c97 -100 187 -252 242 -407zM764 871h192c-9 16 -19 45 -21 63h-174
c-141 0 -245 -26 -311 -152c-25 70 -60 130 -104 177c-13 -11 -42 -35 -59 -46c77 -73 117 -189 136 -325l72 9c-5 39 -12 77 -22 112c28 73 71 114 124 137v-308h-277v-63h618v63h-274v118h236v61h-236v147c31 5 65 7 100 7z" />
</svg>
