<?xml version="1.0" standalone="no"?>
<!DOCTYPE svg PUBLIC "-//W3C//DTD SVG 1.1//EN" "http://www.w3.org/Graphics/SVG/1.1/DTD/svg11.dtd" >
<svg xmlns="http://www.w3.org/2000/svg" xmlns:xlink="http://www.w3.org/1999/xlink" version="1.1" viewBox="-10 0 1010 1000">
   <path fill="currentColor"
d="M801 215v-78h-324v78h324zM801 348v-79h-324v79h324zM871 81v324h-462v-324h462zM267 47l69 21c-28 74 -63 147 -103 216v670h-70v-561c-32 46 -66 87 -101 123c-8 -17 -28 -56 -42 -72c98 -96 190 -245 247 -397zM958 522h-433c-11 20 -23 41 -37 62h441s-1 20 -2 30
c-16 208 -34 286 -60 316c-16 16 -33 23 -57 25c-20 1 -56 2 -93 0c-1 -19 -7 -47 -18 -63c35 3 67 4 80 4c14 0 22 -2 30 -11c17 -19 33 -82 47 -238h-89c-39 119 -114 245 -195 310c-12 -15 -33 -36 -51 -47c74 -53 143 -157 183 -263h-95c-53 105 -149 217 -238 279
c-10 -17 -29 -37 -45 -51c79 -46 164 -138 217 -228h-101c-37 45 -78 86 -117 115c-11 -15 -31 -36 -48 -48c63 -40 134 -117 179 -192h-147v-62h649v62z" />
</svg>
