<?xml version="1.0" standalone="no"?>
<!DOCTYPE svg PUBLIC "-//W3C//DTD SVG 1.1//EN" "http://www.w3.org/Graphics/SVG/1.1/DTD/svg11.dtd" >
<svg xmlns="http://www.w3.org/2000/svg" xmlns:xlink="http://www.w3.org/1999/xlink" version="1.1" viewBox="-10 0 1010 1000">
   <path fill="currentColor"
d="M757 355v-198h-278v198h278zM834 86v340h-428v-340h428zM257 49l68 21c-25 66 -55 133 -89 196v692h-72v-573c-29 43 -61 83 -92 116c-7 -17 -28 -56 -41 -72c89 -94 173 -236 226 -380zM517 588h-131v246h131v-246zM317 956v-440h272v435h-72v-45h-131v50h-69zM722 834
h134v-246h-134v246zM653 516h275v435h-72v-45h-134v50h-69v-440z" />
</svg>
