<?xml version="1.0" standalone="no"?>
<!DOCTYPE svg PUBLIC "-//W3C//DTD SVG 1.1//EN" "http://www.w3.org/Graphics/SVG/1.1/DTD/svg11.dtd" >
<svg xmlns="http://www.w3.org/2000/svg" xmlns:xlink="http://www.w3.org/1999/xlink" version="1.1" viewBox="-10 0 1010 1000">
   <path fill="currentColor"
d="M897 254l59 24c-31 77 -68 172 -98 231l-46 -20c29 -63 66 -165 85 -235zM622 526l-47 -31c35 -57 53 -154 61 -234l52 14c-9 83 -26 188 -66 251zM619 620l-42 64c-18 -32 -61 -92 -96 -138v412h-66v-420c-36 105 -83 204 -136 265c-8 -19 -25 -48 -38 -64
c69 -75 132 -214 166 -344h-135v-66h143v-156c-41 9 -82 17 -120 24c-4 -15 -12 -35 -19 -51c-16 41 -33 81 -52 120v690h-69v-561c-30 49 -61 94 -94 132c-7 -17 -27 -57 -39 -75c86 -99 165 -250 213 -403l69 19c-8 24 -17 49 -26 73c100 -20 217 -50 286 -80l46 54
c-37 15 -82 29 -129 42v172h115v66h-115v73c31 31 118 128 138 152zM794 48v388c0 79 25 325 181 458c-13 16 -34 47 -44 64c-120 -102 -162 -285 -171 -364c-8 81 -53 258 -184 363c-7 -15 -28 -46 -40 -61c167 -136 192 -378 191 -461v-387h67z" />
</svg>
