<?xml version="1.0" standalone="no"?>
<!DOCTYPE svg PUBLIC "-//W3C//DTD SVG 1.1//EN" "http://www.w3.org/Graphics/SVG/1.1/DTD/svg11.dtd" >
<svg xmlns="http://www.w3.org/2000/svg" xmlns:xlink="http://www.w3.org/1999/xlink" version="1.1" viewBox="-10 0 1010 1000">
   <path fill="currentColor"
d="M868 488h-113c-74 0 -92 -20 -92 -94v-343h68v164c59 -28 118 -62 155 -92l51 49c-57 39 -134 75 -206 103v119c0 26 4 31 33 31h98c24 0 28 -14 31 -98c15 12 41 23 61 28c-7 104 -26 133 -86 133zM263 441l58 -10v-279h62v267l68 -12v-355h65v139h115v63h-115v141
l119 -23l5 61c-128 27 -262 54 -361 74zM221 49l67 19c-20 64 -44 128 -70 190v700h-68v-565c-25 45 -52 85 -80 120c-6 -16 -25 -57 -38 -74c78 -97 148 -242 189 -390zM940 645h-262c66 84 179 165 289 199c-17 15 -39 41 -49 59c-106 -41 -211 -125 -280 -217v270h-69
v-269c-70 94 -170 178 -267 226c-10 -18 -32 -43 -48 -55c100 -42 208 -124 275 -213h-247v-67h287v-84h69v84h302v67z" />
</svg>
