<?xml version="1.0" standalone="no"?>
<!DOCTYPE svg PUBLIC "-//W3C//DTD SVG 1.1//EN" "http://www.w3.org/Graphics/SVG/1.1/DTD/svg11.dtd" >
<svg xmlns="http://www.w3.org/2000/svg" xmlns:xlink="http://www.w3.org/1999/xlink" version="1.1" viewBox="-10 0 1010 1000">
   <path fill="currentColor"
d="M267 47l69 21c-28 74 -63 147 -103 216v670h-70v-561c-32 46 -66 87 -101 123c-8 -17 -28 -56 -42 -72c98 -96 190 -245 247 -397zM439 423h346c-59 -58 -108 -131 -142 -210h-58c-38 82 -87 152 -146 210zM457 856h320v-88h-320v88zM777 567v-83h-320v83h320zM457 624
v87h320v-87h-320zM876 229l57 41c-34 35 -72 73 -105 100c41 39 87 70 137 91c-15 14 -37 39 -48 57c-24 -12 -47 -26 -69 -42v478h-71v-37h-320v39h-69v-487c-23 18 -48 35 -74 51c-10 -14 -35 -43 -49 -57c50 -27 95 -59 134 -98c-24 -29 -57 -63 -87 -88l47 -36
c27 21 58 50 82 76c26 -31 49 -66 68 -104h-206v-63h235c13 -34 25 -69 34 -107l69 13c-9 33 -18 64 -30 94h339v63h-239c21 42 47 82 78 118c31 -32 66 -73 87 -102z" />
</svg>
