<?xml version="1.0" standalone="no"?>
<!DOCTYPE svg PUBLIC "-//W3C//DTD SVG 1.1//EN" "http://www.w3.org/Graphics/SVG/1.1/DTD/svg11.dtd" >
<svg xmlns="http://www.w3.org/2000/svg" xmlns:xlink="http://www.w3.org/1999/xlink" version="1.1" viewBox="-10 0 1010 1000">
   <path fill="currentColor"
d="M256 49l68 20c-24 70 -54 140 -88 206v683h-72v-561c-29 45 -61 87 -92 122c-8 -18 -29 -57 -41 -74c90 -97 174 -246 225 -396zM325 911l-53 -33c45 -52 73 -139 85 -215l58 18c-15 79 -41 173 -90 230zM468 681l54 -10c15 63 24 145 23 198l-58 10
c1 -54 -6 -135 -19 -198zM588 676l50 -16c28 54 53 126 62 173l-54 19c-7 -49 -32 -121 -58 -176zM438 462v94h177v-94h-177zM615 156h-177v93h177v-93zM615 402v-94h-177v94h177zM685 556h260s0 22 -1 32c-12 225 -25 308 -51 337c-16 20 -34 26 -61 28c-24 2 -69 2 -115 0
c-1 -21 -8 -47 -19 -65c46 4 88 5 105 5c15 0 24 -2 32 -11c17 -18 29 -86 39 -260h-507v-531h552v65h-234v93h207v59h-207v94h210v60h-210v94zM704 665l45 -21c37 40 75 94 92 133l-48 24c-16 -38 -54 -96 -89 -136z" />
</svg>
