<?xml version="1.0" standalone="no"?>
<!DOCTYPE svg PUBLIC "-//W3C//DTD SVG 1.1//EN" "http://www.w3.org/Graphics/SVG/1.1/DTD/svg11.dtd" >
<svg xmlns="http://www.w3.org/2000/svg" xmlns:xlink="http://www.w3.org/1999/xlink" version="1.1" viewBox="-10 0 1010 1000">
   <path fill="currentColor"
d="M530 235v481h373v66h-373v178h-73v-178h-368v-66h368v-481h73zM274 477l59 13c-8 20 -19 41 -31 59c49 30 107 69 137 97l-42 43c-27 -27 -79 -66 -126 -96c-36 43 -80 79 -125 105c-8 -10 -32 -30 -46 -40c78 -40 143 -103 174 -181zM685 487l61 11c-7 20 -15 39 -26 57
c58 32 126 77 161 108l-43 44c-33 -30 -92 -72 -147 -106c-31 41 -68 75 -108 101c-10 -11 -33 -32 -47 -41c67 -39 123 -101 149 -174zM499 49l61 44c-6 8 -14 15 -22 23c94 76 266 143 423 171c-17 17 -41 50 -53 71c-56 -11 -113 -29 -169 -52c-6 22 -15 42 -25 60
c56 30 122 72 156 102l-41 44c-31 -28 -90 -68 -144 -100c-29 40 -65 74 -104 99c-10 -11 -34 -32 -49 -41c70 -40 123 -103 146 -180l35 7c-86 -37 -166 -83 -228 -133c-54 44 -121 86 -191 121l50 10c-9 23 -19 45 -33 65c48 30 103 69 131 96l-37 43
c-25 -28 -77 -67 -123 -98c-38 46 -84 83 -132 111c-9 -11 -30 -33 -44 -43c78 -39 144 -101 177 -178c-65 31 -133 57 -198 74c-6 -23 -21 -59 -34 -80c172 -35 358 -131 448 -236z" />
</svg>
