<?xml version="1.0" standalone="no"?>
<!DOCTYPE svg PUBLIC "-//W3C//DTD SVG 1.1//EN" "http://www.w3.org/Graphics/SVG/1.1/DTD/svg11.dtd" >
<svg xmlns="http://www.w3.org/2000/svg" xmlns:xlink="http://www.w3.org/1999/xlink" version="1.1" viewBox="-10 0 1010 1000">
   <path fill="currentColor"
d="M938 209l-53 29c-15 -38 -51 -97 -84 -140l52 -27c33 42 71 99 85 138zM233 43l68 19c-21 70 -47 140 -77 207v687h-69v-553c-25 44 -52 84 -79 119c-7 -17 -28 -57 -41 -75c82 -100 154 -251 198 -404zM677 799l-145 18v135h-67v-126l-185 22l-8 -64
c52 -5 120 -12 193 -21v-90h-84c-34 0 -60 6 -68 14c-4 -15 -15 -49 -21 -67c13 -3 25 -24 39 -51c7 -13 20 -43 34 -80h-97v-61h120c9 -29 18 -61 25 -91l69 17c-8 24 -17 50 -26 74h206v61h-229c-19 44 -39 86 -57 122h89v-90h67v90h113v62h-113v83c47 -5 96 -10 144 -16z
M869 374l60 13c-28 124 -66 246 -118 351c20 95 43 150 69 150c15 0 23 -31 27 -113c13 15 35 29 51 36c-11 106 -31 143 -85 143c-45 0 -81 -49 -106 -134c-32 52 -70 101 -111 140c-11 -13 -31 -31 -48 -40c53 -49 99 -112 137 -184c-21 -109 -35 -251 -42 -409h-446v-64
h192v-71h-141v-60h141v-81h67v81h144v60h-144v71h184c-3 -70 -4 -144 -5 -218h68c-1 75 0 149 2 218h185v64h-182c5 115 14 219 25 305c33 -83 58 -172 76 -258z" />
</svg>
