<?xml version="1.0" standalone="no"?>
<!DOCTYPE svg PUBLIC "-//W3C//DTD SVG 1.1//EN" "http://www.w3.org/Graphics/SVG/1.1/DTD/svg11.dtd" >
<svg xmlns="http://www.w3.org/2000/svg" xmlns:xlink="http://www.w3.org/1999/xlink" version="1.1" viewBox="-10 0 1010 1000">
   <path fill="currentColor"
d="M486 387v60h309v-60h-309zM486 286v58h309v-58h-309zM418 494v-247c-23 35 -47 67 -71 93c-13 -12 -40 -33 -57 -43c65 -64 123 -160 159 -254l67 18c-9 23 -19 46 -30 68h451v58h-482c-10 18 -21 35 -31 52h443v255h-449zM267 47l69 21c-28 74 -63 147 -103 216v670h-70
v-561c-32 46 -66 87 -101 123c-8 -17 -28 -56 -42 -72c98 -96 190 -245 247 -397zM962 600h-430c-13 20 -28 40 -44 59h444s-1 19 -3 29c-16 157 -34 219 -61 246c-15 15 -31 20 -55 21c-19 2 -55 2 -93 0c0 -18 -7 -43 -16 -59c36 4 68 4 82 4s23 -1 30 -8
c16 -16 31 -66 45 -179h-84c-42 102 -112 190 -188 250c-11 -11 -36 -31 -50 -41c72 -50 133 -123 171 -209h-103c-54 94 -138 177 -221 232c-9 -10 -33 -33 -47 -43c76 -45 148 -112 197 -189h-98c-37 37 -77 69 -116 95c-9 -11 -34 -35 -47 -45c69 -41 137 -99 184 -163
h-167v-58h670v58z" />
</svg>
