<?xml version="1.0" standalone="no"?>
<!DOCTYPE svg PUBLIC "-//W3C//DTD SVG 1.1//EN" "http://www.w3.org/Graphics/SVG/1.1/DTD/svg11.dtd" >
<svg xmlns="http://www.w3.org/2000/svg" xmlns:xlink="http://www.w3.org/1999/xlink" version="1.1" viewBox="-10 0 1010 1000">
   <path fill="currentColor"
d="M253 47l65 19c-26 74 -57 149 -93 218v671h-69v-553c-26 41 -55 79 -83 112c-7 -17 -28 -53 -40 -70c89 -97 170 -246 220 -397zM333 923l-55 -29c32 -47 58 -126 73 -185l54 22c-15 60 -40 141 -72 192zM463 728l54 -12c13 54 21 125 19 171l-58 12
c3 -45 -4 -116 -15 -171zM589 724l51 -17c22 44 42 102 49 139l-54 19c-6 -39 -25 -98 -46 -141zM426 619h523s-1 20 -2 28c-12 185 -25 255 -49 281c-17 18 -35 23 -62 26c-25 1 -72 0 -120 -2c-1 -18 -7 -42 -18 -58c47 4 93 5 109 5s25 -2 34 -10c15 -16 27 -73 36 -214
h-535c22 -65 48 -168 64 -246l65 7c-5 21 -10 44 -16 67h474v54h-487c-5 21 -10 43 -16 62zM715 715l45 -20c27 33 53 79 64 111l-47 23c-11 -32 -36 -79 -62 -114zM672 361h283v58h-658v-58h121v-155h67v155h119v-212h-261v-58h597v58h-268v78h241v56h-241v78z" />
</svg>
