<?xml version="1.0" standalone="no"?>
<!DOCTYPE svg PUBLIC "-//W3C//DTD SVG 1.1//EN" "http://www.w3.org/Graphics/SVG/1.1/DTD/svg11.dtd" >
<svg xmlns="http://www.w3.org/2000/svg" xmlns:xlink="http://www.w3.org/1999/xlink" version="1.1" viewBox="-10 0 1010 1000">
   <path fill="currentColor"
d="M263 47l67 21c-27 72 -59 145 -96 213v674h-69v-561c-29 45 -61 85 -92 120c-8 -17 -29 -53 -42 -70c93 -97 179 -246 232 -397zM729 698h-203c-15 25 -31 49 -44 72c53 10 111 24 168 39c40 -30 64 -66 79 -111zM408 468v61h174v-61h-174zM815 468h-164v61h164v-61z
M428 317h154v-58h-154v58zM582 157h-154v54h154v-54zM796 157h-145v54h145v-54zM651 317h145v-58h-145v58zM936 698h-136c-17 53 -40 96 -78 131c73 22 139 44 188 65l-38 58c-53 -24 -131 -51 -215 -77c-74 42 -180 67 -336 83c-4 -16 -17 -42 -27 -56
c122 -11 210 -28 275 -51c-65 -18 -131 -33 -191 -44c22 -31 48 -69 73 -109h-160v-59h196c13 -21 25 -40 36 -60h-182v-162h241v-50h-219v-103h-56v-58h56v-99h219v-64h69v64h212v99h68v58h-68v103h-212v50h233v162h-286c-11 19 -24 39 -35 60h373v59z" />
</svg>
