<?xml version="1.0" standalone="no"?>
<!DOCTYPE svg PUBLIC "-//W3C//DTD SVG 1.1//EN" "http://www.w3.org/Graphics/SVG/1.1/DTD/svg11.dtd" >
<svg xmlns="http://www.w3.org/2000/svg" xmlns:xlink="http://www.w3.org/1999/xlink" version="1.1" viewBox="-10 0 1010 1000">
   <path fill="currentColor"
d="M853 333h-114v76h114v-76zM853 536v-76h-114v76h114zM562 536h114v-76h-114v76zM562 333v76h114v-76h-114zM676 279v-77h-201v-59h201v-95h63v95h205v59h-205v77h175v311h-175v76h214v59h-214v117h-63v-117h-210v-59h210v-76h-173v-311h173zM479 235l-51 39
c-24 -39 -73 -103 -113 -149l47 -33c43 45 93 106 117 143zM230 49l64 20c-21 66 -47 133 -76 195v693h-67v-563c-29 50 -61 97 -93 136c-6 -17 -25 -56 -37 -75c85 -100 162 -252 209 -406zM446 385v409c19 8 38 24 69 41c51 28 115 38 197 38c69 0 177 -4 248 -13
c-7 19 -17 52 -18 72c-55 4 -167 8 -232 8c-88 0 -153 -13 -209 -45c-37 -23 -65 -47 -86 -47c-24 0 -60 51 -91 103l-47 -63c36 -43 73 -79 106 -94v-349h-83v-60h146z" />
</svg>
