<?xml version="1.0" standalone="no"?>
<!DOCTYPE svg PUBLIC "-//W3C//DTD SVG 1.1//EN" "http://www.w3.org/Graphics/SVG/1.1/DTD/svg11.dtd" >
<svg xmlns="http://www.w3.org/2000/svg" xmlns:xlink="http://www.w3.org/1999/xlink" version="1.1" viewBox="-10 0 1010 1000">
   <path fill="currentColor"
d="M224 482v130h158v-130h-158zM611 482v130h167v-130h-167zM848 671h-133c-10 29 -22 57 -38 82c82 41 186 102 239 144l-52 54c-50 -41 -144 -99 -223 -143c-49 62 -111 111 -179 146c-12 -14 -39 -41 -55 -54l8 -4c-33 -28 -84 -63 -132 -91c-46 62 -108 111 -176 146
c-11 -13 -37 -42 -54 -54c103 -46 184 -121 222 -226h-117v-249h294v249h-99c-10 28 -22 56 -35 81c53 29 113 68 145 96l-26 38c90 -47 164 -120 201 -215h-93v-249h303v249zM306 301h352c-68 -43 -130 -93 -180 -147c-49 53 -108 104 -172 147zM477 32l64 45
c-6 7 -12 16 -18 24c99 106 280 204 450 244c-18 18 -44 52 -56 75c-73 -21 -147 -53 -216 -92v37h-432v-39c-62 38 -128 70 -192 92c-10 -23 -30 -56 -47 -76c176 -52 358 -177 447 -310z" />
</svg>
