<?xml version="1.0" standalone="no"?>
<!DOCTYPE svg PUBLIC "-//W3C//DTD SVG 1.1//EN" "http://www.w3.org/Graphics/SVG/1.1/DTD/svg11.dtd" >
<svg xmlns="http://www.w3.org/2000/svg" xmlns:xlink="http://www.w3.org/1999/xlink" version="1.1" viewBox="-10 0 1010 1000">
   <path fill="currentColor"
d="M235 49l66 20c-21 66 -48 132 -77 196v692h-69v-562c-29 50 -62 96 -94 135c-7 -18 -27 -57 -38 -75c85 -100 164 -252 212 -406zM485 802l55 23c-59 49 -156 102 -233 133c-7 -12 -25 -41 -37 -54c74 -25 163 -64 215 -102zM798 537v-56h-381v56h381zM798 642v-58h-381
v58h381zM798 748v-58h-381v58h381zM348 431h295c29 -24 58 -52 83 -76h-333v-54h391l11 -4l47 30c-33 33 -70 69 -108 104h136v367h-522v-367zM552 200l49 -24c27 28 52 65 64 92l-53 28c-11 -26 -36 -67 -60 -96zM667 847l27 -43c87 33 182 75 241 109l-33 48
c-57 -35 -149 -80 -235 -114zM597 34l59 21c-6 9 -13 18 -20 26c67 61 201 135 328 171c-15 13 -37 40 -47 58c-122 -41 -248 -123 -317 -185c-72 77 -169 143 -278 191c-11 -15 -33 -40 -48 -51c136 -54 261 -140 323 -231z" />
</svg>
