<?xml version="1.0" standalone="no"?>
<!DOCTYPE svg PUBLIC "-//W3C//DTD SVG 1.1//EN" "http://www.w3.org/Graphics/SVG/1.1/DTD/svg11.dtd" >
<svg xmlns="http://www.w3.org/2000/svg" xmlns:xlink="http://www.w3.org/1999/xlink" version="1.1" viewBox="-10 0 1010 1000">
   <path fill="currentColor"
d="M727 368v-28h-74v-55h-155v63h152v291h-153v64h156v58h-156v78c47 -4 96 -9 145 -14c76 -144 85 -315 85 -457zM339 516v73h99v-73h-99zM339 398v71h99v-71h-99zM492 469h104v-71h-104v71zM492 589h104v-73h-104v73zM792 274h156s-1 26 -1 35c-9 428 -16 564 -44 604
c-16 25 -33 32 -59 35c-25 3 -63 3 -100 0c-1 -18 -7 -47 -18 -65c39 3 74 4 90 4c13 0 22 -2 30 -16c19 -28 28 -158 36 -531h-90v28c0 192 -19 426 -160 593c-11 -12 -37 -30 -55 -39c10 -12 20 -24 29 -37c-121 15 -242 28 -335 39l-12 -63l174 -16v-84h-149v-58h149v-64
h-146v-291h146v-63h-159v-58h159v-61c-50 5 -100 9 -147 12c-3 -16 -10 -38 -18 -53c-15 45 -32 89 -51 132v700h-67v-565c-28 49 -57 94 -88 133c-6 -18 -26 -57 -37 -75c81 -99 153 -249 196 -401l66 18c-6 19 -12 39 -19 58c118 -10 261 -27 345 -48l40 54
c-44 11 -98 20 -155 27v69h159v47h70v-226h65v226z" />
</svg>
