<?xml version="1.0" standalone="no"?>
<!DOCTYPE svg PUBLIC "-//W3C//DTD SVG 1.1//EN" "http://www.w3.org/Graphics/SVG/1.1/DTD/svg11.dtd" >
<svg xmlns="http://www.w3.org/2000/svg" xmlns:xlink="http://www.w3.org/1999/xlink" version="1.1" viewBox="-10 0 1010 1000">
   <path fill="currentColor"
d="M862 136h-147v82h147v-82zM868 425h-123c-72 0 -92 -16 -92 -82v-259h268v187h-206v72c0 22 5 26 37 26h109c24 0 29 -9 32 -70c14 10 38 19 56 23c-7 82 -26 103 -81 103zM537 136h-145v82h145v-82zM539 425h-118c-71 0 -91 -16 -91 -82v-259h266v187h-204v72
c0 22 5 26 35 26h105c24 0 29 -9 32 -70c12 10 37 19 55 23c-7 82 -25 103 -80 103zM709 594h-175v110h175v-110zM467 704v-110h-140v-62h140v-85h67v85h175v-85h68v85h150v62h-150v110h179v63h-669v-63h180zM235 49l69 19c-22 66 -48 132 -78 195v693h-71v-560
c-30 50 -61 95 -94 134c-7 -18 -27 -57 -39 -75c86 -100 165 -252 213 -406zM493 792l69 21c-55 59 -147 113 -229 145c-10 -13 -37 -40 -53 -52c81 -26 166 -67 213 -114zM699 823l57 -35c68 33 156 88 202 127l-60 41c-43 -39 -129 -96 -199 -133z" />
</svg>
