<?xml version="1.0" standalone="no"?>
<!DOCTYPE svg PUBLIC "-//W3C//DTD SVG 1.1//EN" "http://www.w3.org/Graphics/SVG/1.1/DTD/svg11.dtd" >
<svg xmlns="http://www.w3.org/2000/svg" xmlns:xlink="http://www.w3.org/1999/xlink" version="1.1" viewBox="-10 0 1010 1000">
   <path fill="currentColor"
d="M235 49l68 20c-21 62 -47 125 -76 184v703h-71v-574c-31 49 -63 93 -97 131c-6 -17 -26 -57 -39 -75c87 -96 166 -241 215 -389zM708 730h-169v84h169v-84zM769 863h-230v42h-61v-224h291v182zM922 570v308c0 37 -7 57 -37 67c-29 11 -79 11 -156 11
c-3 -19 -12 -45 -21 -62c58 2 110 1 124 1c16 -1 20 -5 20 -18v-248h-455v326h-70v-385h595zM737 472v-84h-227v84h227zM698 277h-147c-14 22 -30 42 -46 62h239c-17 -20 -33 -41 -46 -62zM949 277h-176c51 64 130 125 202 156c-15 13 -37 38 -48 55
c-40 -20 -81 -50 -119 -84v116h-366v-116c-37 33 -78 62 -122 86c-10 -14 -34 -42 -49 -55c78 -38 144 -91 195 -158h-168v-57h206c13 -21 23 -43 33 -66c-63 4 -125 7 -183 8c-3 -14 -11 -39 -18 -53c173 -6 382 -23 491 -49l55 50c-73 17 -168 29 -267 38
c-10 25 -20 49 -32 72h366v57z" />
</svg>
