<?xml version="1.0" standalone="no"?>
<!DOCTYPE svg PUBLIC "-//W3C//DTD SVG 1.1//EN" "http://www.w3.org/Graphics/SVG/1.1/DTD/svg11.dtd" >
<svg xmlns="http://www.w3.org/2000/svg" xmlns:xlink="http://www.w3.org/1999/xlink" version="1.1" viewBox="-10 0 1010 1000">
   <path fill="currentColor"
d="M847 68l67 23c-28 46 -56 99 -81 132l-52 -19c23 -37 51 -95 66 -136zM474 200l-58 21c-10 -34 -38 -89 -62 -129l55 -19c27 40 55 92 65 127zM267 47l69 21c-28 74 -63 147 -103 216v670h-70v-561c-32 46 -66 87 -101 123c-8 -17 -28 -56 -42 -72
c98 -96 190 -245 247 -397zM754 298h-256c21 34 39 77 45 106l-25 7h209l-21 -6c16 -30 35 -74 48 -107zM959 739h-274c56 79 155 134 283 157c-16 15 -37 44 -48 64c-129 -30 -229 -94 -291 -188c-40 72 -124 139 -293 188c-9 -16 -30 -43 -45 -57
c167 -42 241 -102 274 -164h-267v-62h287c3 -18 4 -37 4 -54v-24h-229v-57h229v-73h-258v-58h143c-8 -31 -27 -74 -46 -107l22 -6h-146v-63h218v-183h62v183h86v-183h62v183h219v63h-140l19 5c-19 38 -40 78 -58 108h151v58h-260v73h230v57h-230v24c0 18 -1 36 -3 54h299v62
z" />
</svg>
