<?xml version="1.0" standalone="no"?>
<!DOCTYPE svg PUBLIC "-//W3C//DTD SVG 1.1//EN" "http://www.w3.org/Graphics/SVG/1.1/DTD/svg11.dtd" >
<svg xmlns="http://www.w3.org/2000/svg" xmlns:xlink="http://www.w3.org/1999/xlink" version="1.1" viewBox="-10 0 1010 1000">
   <path fill="currentColor"
d="M895 267h-195c-20 74 -45 140 -75 192c-10 -10 -37 -32 -52 -42c55 -90 90 -232 106 -379l63 11c-7 51 -16 102 -27 150h199l11 -3l41 15c-16 88 -42 192 -66 255l-51 -18c15 -46 33 -116 46 -181zM504 233h-128v90h128v-90zM376 638h128v-102h-128v102zM504 476v-93
h-128v93h128zM267 166h50v-121h59v121h128v-121h59v121h55v67h-55v405h51v66h-368v-66h71v-405h-50v-67zM207 45l66 16c-18 66 -38 132 -63 195v699h-64v-556c-24 45 -48 86 -74 122c-6 -17 -26 -56 -38 -73c75 -100 137 -250 173 -403zM349 740l58 20
c-27 66 -73 134 -116 178c-10 -13 -34 -34 -49 -43c44 -39 84 -97 107 -155zM457 764l45 -33c29 31 61 73 77 100l-48 38c-15 -30 -48 -74 -74 -105zM786 326v70c0 26 -1 55 -2 84c29 192 77 310 179 414c-15 14 -33 36 -42 57c-80 -87 -128 -179 -160 -304
c-24 107 -73 217 -167 312c-10 -18 -31 -42 -45 -55c163 -159 176 -369 176 -509v-69h61z" />
</svg>
