<?xml version="1.0" standalone="no"?>
<!DOCTYPE svg PUBLIC "-//W3C//DTD SVG 1.1//EN" "http://www.w3.org/Graphics/SVG/1.1/DTD/svg11.dtd" >
<svg xmlns="http://www.w3.org/2000/svg" xmlns:xlink="http://www.w3.org/1999/xlink" version="1.1" viewBox="-10 0 1010 1000">
   <path fill="currentColor"
d="M235 49l66 18c-21 68 -49 136 -79 201v689h-68v-561c-29 49 -62 94 -94 134c-6 -17 -26 -57 -38 -75c86 -100 165 -252 213 -406zM726 700l74 22c-21 48 -44 102 -65 145h211v65h-647v-65h191c-7 -40 -27 -99 -50 -143l65 -18c25 44 48 102 55 143l-60 18h163
c23 -48 49 -118 63 -167zM778 635v-117h-322v117h322zM848 456v241h-459v-241h459zM906 177l47 49c-39 29 -84 60 -123 82c42 43 88 75 139 102c-19 16 -40 40 -48 61c-61 -36 -114 -78 -161 -134v41h-280v-40c-52 64 -112 116 -176 150c-10 -16 -29 -41 -43 -53
c52 -27 104 -68 149 -119c-25 -29 -62 -62 -93 -86l42 -46c30 22 66 52 92 78c23 -34 44 -73 61 -113h-162v-65h191l13 -3l45 19c-23 81 -58 154 -102 215h246c-48 -63 -88 -144 -124 -255l62 -15c14 40 28 75 43 108c35 -28 76 -63 100 -90l47 48c-38 32 -83 66 -120 91
c13 25 28 46 44 66c38 -28 83 -65 111 -91z" />
</svg>
