<?xml version="1.0" standalone="no"?>
<!DOCTYPE svg PUBLIC "-//W3C//DTD SVG 1.1//EN" "http://www.w3.org/Graphics/SVG/1.1/DTD/svg11.dtd" >
<svg xmlns="http://www.w3.org/2000/svg" xmlns:xlink="http://www.w3.org/1999/xlink" version="1.1" viewBox="-10 0 1010 1000">
   <path fill="currentColor"
d="M716 471v49c0 31 -6 44 -31 53c-24 8 -62 7 -121 7c-4 -15 -13 -35 -20 -50c43 2 81 2 92 1c12 0 15 -3 15 -13v-47h-224v-52h224v-29h1l-1 -1c28 -9 58 -21 85 -35h-247v-49h327l14 -3l39 32c-44 30 -102 55 -153 76v9h223v52h-223zM224 50l66 18
c-21 67 -47 133 -76 197v689h-66v-564c-26 44 -54 84 -83 118c-7 -17 -26 -57 -38 -74c82 -94 154 -239 197 -384zM851 134h-460v70h460v-70zM391 262v127c0 162 -14 394 -111 550c-12 -11 -41 -30 -58 -36c93 -150 101 -361 101 -514v-312h597v185h-529zM625 598l37 30
c-32 30 -73 60 -110 84v40l93 -16l2 51l-95 18v81c0 31 -5 45 -27 55c-22 8 -56 8 -108 8c-2 -16 -10 -36 -18 -51c38 1 69 1 80 0s13 -4 13 -12v-70l-111 19l-14 -55c35 -4 78 -11 125 -18v-66c20 -12 41 -27 62 -43h-150v-51h208zM964 752v54h-117v87c0 32 -5 47 -29 57
c-23 9 -58 8 -114 8c-3 -16 -11 -37 -19 -54c41 2 75 2 85 1c11 0 14 -3 14 -13v-86h-119v-54h119v-56c22 -12 45 -27 66 -43h-160v-51h220l12 -4l39 30c-32 31 -75 60 -114 84v40h117z" />
</svg>
