<?xml version="1.0" standalone="no"?>
<!DOCTYPE svg PUBLIC "-//W3C//DTD SVG 1.1//EN" "http://www.w3.org/Graphics/SVG/1.1/DTD/svg11.dtd" >
<svg xmlns="http://www.w3.org/2000/svg" xmlns:xlink="http://www.w3.org/1999/xlink" version="1.1" viewBox="-10 0 1010 1000">
   <path fill="currentColor"
d="M235 49l69 19c-22 66 -48 132 -78 195v693h-71v-560c-30 50 -61 95 -94 134c-7 -18 -27 -57 -39 -75c86 -100 165 -252 213 -406zM809 622h-362v87h362v-87zM447 858h362v-92h-362v92zM377 953v-391h505v387h-73v-30h-362v34h-70zM951 334h-135c34 73 94 140 162 172
c-14 13 -34 36 -44 52c-61 -34 -114 -93 -151 -162c-25 54 -71 111 -151 148c-10 -15 -31 -36 -48 -47l-11 12c-24 -27 -66 -65 -107 -97c-25 58 -70 119 -147 161c-11 -15 -35 -36 -51 -48c100 -50 140 -129 153 -191h-124v-60h130v-77h-112v-59h112v-85h67v85h115v59h-115
v77h115v60h-120c-1 6 -2 12 -4 19c47 33 102 79 131 108l-30 34c94 -41 134 -107 148 -161h-106v-60h112v-77h-104v-59h104v-85h69v85h128v59h-128v77h142v60z" />
</svg>
