<?xml version="1.0" standalone="no"?>
<!DOCTYPE svg PUBLIC "-//W3C//DTD SVG 1.1//EN" "http://www.w3.org/Graphics/SVG/1.1/DTD/svg11.dtd" >
<svg xmlns="http://www.w3.org/2000/svg" xmlns:xlink="http://www.w3.org/1999/xlink" version="1.1" viewBox="-10 0 1010 1000">
   <path fill="currentColor"
d="M856 244v-103h-133v103h133zM918 85v215h-254v-215h254zM524 244v-103h-125v103h125zM586 85v215h-248v-215h248zM267 47l69 21c-28 74 -63 147 -103 216v670h-70v-561c-32 46 -66 87 -101 123c-8 -17 -28 -56 -42 -72c98 -96 190 -245 247 -397zM424 620h169v-78h-169
v78zM424 410v78h169v-78h-169zM837 488v-78h-173v78h173zM837 620v-78h-173v78h173zM958 747v62h-294v147h-71v-147h-302v-62h302v-70h-237v-322h551v322h-243v70h294z" />
</svg>
