<?xml version="1.0" standalone="no"?>
<!DOCTYPE svg PUBLIC "-//W3C//DTD SVG 1.1//EN" "http://www.w3.org/Graphics/SVG/1.1/DTD/svg11.dtd" >
<svg xmlns="http://www.w3.org/2000/svg" xmlns:xlink="http://www.w3.org/1999/xlink" version="1.1" viewBox="-10 0 1010 1000">
   <path fill="currentColor"
d="M948 230l-57 26c-10 -42 -43 -104 -75 -150l53 -21c32 45 67 105 79 145zM275 174h150c-11 -33 -26 -74 -42 -106l63 -16c18 39 38 88 49 122h126v64h-346v-64zM231 41l64 17c-22 74 -51 148 -82 217v680h-67v-552c-22 38 -44 71 -68 101c-6 -15 -28 -51 -40 -67
c79 -98 149 -247 193 -396zM316 629l57 13c-20 89 -53 181 -91 242c-11 -9 -35 -26 -48 -34c38 -57 65 -139 82 -221zM369 371v147h153v-147h-153zM584 576h-101v308c0 31 -6 48 -26 58c-19 10 -48 11 -93 11c-2 -17 -11 -41 -19 -58c31 1 57 1 65 1c10 -1 12 -3 12 -12
v-308h-113v-262h275v262zM621 787l-51 21c-7 -44 -28 -111 -53 -162l48 -18c26 50 48 116 56 159zM841 885h30c10 0 19 -1 23 -4c5 -3 9 -12 11 -28c3 -17 4 -56 4 -107c14 13 37 24 56 30c-1 44 -5 97 -10 115c-6 21 -15 33 -27 40c-13 7 -32 10 -48 10h-53
c-18 0 -41 -5 -53 -17c-14 -11 -20 -27 -20 -91v-165c-27 119 -75 215 -159 288c-11 -14 -32 -36 -49 -44c135 -114 169 -294 179 -543h-106v-67h107c1 -79 1 -165 1 -256h65c0 91 0 177 -2 256h161v67h-163c-1 25 -3 51 -4 75h33v398c0 22 1 35 6 39c4 3 11 4 18 4z" />
</svg>
