<?xml version="1.0" standalone="no"?>
<!DOCTYPE svg PUBLIC "-//W3C//DTD SVG 1.1//EN" "http://www.w3.org/Graphics/SVG/1.1/DTD/svg11.dtd" >
<svg xmlns="http://www.w3.org/2000/svg" xmlns:xlink="http://www.w3.org/1999/xlink" version="1.1" viewBox="-10 0 1010 1000">
   <path fill="currentColor"
d="M239 49l66 19c-23 68 -50 137 -81 203v686h-69v-559c-29 48 -60 92 -92 130c-7 -16 -27 -55 -39 -73c87 -100 166 -252 215 -406zM850 610v149h107v59h-107v141h-64v-141h-103v1h-58c5 -49 7 -125 8 -183h57c-1 39 -2 84 -4 123h100v-149h-161v-59h161v-79h64v79h93v59
h-93zM526 595h-118c-36 57 -78 106 -123 143c-10 -11 -34 -32 -49 -42c76 -58 140 -146 173 -245l61 14c-9 24 -19 49 -30 72h109l12 -1l38 13c-44 217 -151 338 -293 402c-8 -14 -31 -36 -46 -45c65 -27 122 -65 167 -119c-17 -28 -45 -64 -69 -92l44 -33
c21 21 45 50 63 74c25 -40 46 -87 61 -141zM679 226v-75h-112v75h112zM858 281h-117v115h117v-115zM567 281v115h112v-115h-112zM394 396h112v-115h-112v115zM310 94h649v57h-218v75h185v225h-597v-225h177v-75h-196v-57z" />
</svg>
