<?xml version="1.0" standalone="no"?>
<!DOCTYPE svg PUBLIC "-//W3C//DTD SVG 1.1//EN" "http://www.w3.org/Graphics/SVG/1.1/DTD/svg11.dtd" >
<svg xmlns="http://www.w3.org/2000/svg" xmlns:xlink="http://www.w3.org/1999/xlink" version="1.1" viewBox="-10 0 1010 1000">
   <path fill="currentColor"
d="M901 160l61 19c-29 59 -63 125 -92 169l-52 -18c29 -46 64 -119 83 -170zM793 51v229c0 47 19 200 174 277c-11 13 -28 38 -36 53c-115 -61 -159 -177 -168 -227c-8 50 -49 164 -159 227c-7 -14 -23 -39 -34 -51c145 -81 163 -232 163 -279v-229h60zM514 638l45 -37
c56 34 123 87 155 127l-48 42c-30 -39 -96 -96 -152 -132zM626 368l-51 -23c28 -42 43 -116 47 -179l53 9c-3 64 -19 145 -49 193zM318 922l-56 -40c48 -45 78 -126 90 -200l63 19c-16 79 -42 168 -97 221zM482 615h-63v-244c-35 75 -81 148 -128 191
c-6 -19 -22 -47 -32 -63c50 -43 104 -123 137 -197h-114v-63h137v-91c-36 7 -73 12 -107 16c-3 -14 -12 -35 -18 -49c-21 56 -46 112 -72 165v676h-71v-549c-26 42 -55 80 -83 114c-8 -17 -28 -56 -40 -75c86 -97 164 -246 213 -397l68 20c-5 14 -10 28 -14 43
c86 -14 187 -35 241 -58l52 51c-31 11 -67 21 -106 30v104h99v63h-99v33c27 23 90 81 106 96l-39 52c-13 -19 -41 -56 -67 -85v217zM572 881h129c32 0 38 -12 41 -101c15 12 43 23 64 28c-9 110 -29 137 -97 137h-145c-85 0 -107 -21 -107 -91v-187h70v186c0 24 7 28 45 28z
M771 691l60 -29c57 67 113 156 134 219l-66 32c-19 -61 -73 -154 -128 -222z" />
</svg>
