<?xml version="1.0" standalone="no"?>
<!DOCTYPE svg PUBLIC "-//W3C//DTD SVG 1.1//EN" "http://www.w3.org/Graphics/SVG/1.1/DTD/svg11.dtd" >
<svg xmlns="http://www.w3.org/2000/svg" xmlns:xlink="http://www.w3.org/1999/xlink" version="1.1" viewBox="-10 0 1010 1000">
   <path fill="currentColor"
d="M489 296h212c16 -31 32 -70 41 -97h-401v-58h250c-10 -27 -22 -61 -35 -87l69 -13c15 30 33 72 43 100h258v58h-175l67 17c-16 27 -31 56 -45 80h186v61h-665v-61h179c-6 -24 -21 -56 -37 -81l63 -14c17 24 34 60 40 82zM806 523v-64h-357v64h357zM806 633v-64h-357v64
h357zM879 409v274h-288c47 29 101 69 129 99l-47 41c-30 -31 -92 -79 -142 -112l36 -28h-189v-274h501zM269 47l69 21c-28 78 -64 156 -104 229v658h-71v-544c-27 38 -56 75 -84 106c-8 -18 -30 -56 -42 -73c92 -97 179 -246 232 -397zM341 931l-59 -32
c30 -42 62 -113 80 -162l58 25c-19 51 -49 122 -79 169zM573 893h149c32 0 39 -9 41 -75c16 10 43 20 62 24c-8 89 -29 111 -95 111h-164c-89 0 -112 -18 -112 -86v-132h69v132c0 23 6 26 50 26zM784 749l59 -25c44 54 97 128 119 176l-61 30c-22 -49 -72 -126 -117 -181z
" />
</svg>
