<?xml version="1.0" standalone="no"?>
<!DOCTYPE svg PUBLIC "-//W3C//DTD SVG 1.1//EN" "http://www.w3.org/Graphics/SVG/1.1/DTD/svg11.dtd" >
<svg xmlns="http://www.w3.org/2000/svg" xmlns:xlink="http://www.w3.org/1999/xlink" version="1.1" viewBox="-10 0 1010 1000">
   <path fill="currentColor"
d="M751 454v-155c-32 54 -72 105 -113 137c-7 -14 -22 -38 -35 -51c52 -36 104 -107 135 -177h-104v-62h117v-102h68v102h131v62h-117c34 42 103 130 120 156l-46 52c-16 -32 -56 -96 -88 -146v184h-68zM317 147h121v-103h67v103h105v61h-105v12c21 21 83 89 98 107l-41 47
c-11 -18 -35 -52 -57 -83v163h-67v-171c-34 56 -79 110 -122 146c-6 -16 -22 -40 -36 -53c50 -36 105 -103 139 -168h-102v-61zM265 47l73 22c-29 76 -66 152 -107 222v664h-74v-548c-29 40 -61 78 -92 111c-8 -18 -30 -59 -44 -77c97 -95 189 -244 244 -394zM664 737v129
c22 2 46 3 70 3c27 0 190 0 227 -1c-10 16 -21 48 -24 67h-207c-148 0 -246 -28 -309 -141c-20 64 -53 120 -106 160l-56 -50c86 -61 116 -175 128 -300l68 12c-3 30 -7 60 -12 89c30 85 80 127 147 147v-299h-284v-65h571l11 -4l50 17c-17 50 -39 106 -58 143l-59 -23
c9 -18 18 -43 27 -68h-184v120h263v64h-263z" />
</svg>
