<?xml version="1.0" standalone="no"?>
<!DOCTYPE svg PUBLIC "-//W3C//DTD SVG 1.1//EN" "http://www.w3.org/Graphics/SVG/1.1/DTD/svg11.dtd" >
<svg xmlns="http://www.w3.org/2000/svg" xmlns:xlink="http://www.w3.org/1999/xlink" version="1.1" viewBox="-10 0 1010 1000">
   <path fill="currentColor"
d="M221 45l66 19c-19 65 -44 131 -71 194v697h-66v-567c-25 43 -51 82 -78 116c-6 -17 -25 -57 -37 -75c78 -95 146 -238 186 -384zM712 303l-4 12c13 100 33 209 70 310c33 -92 52 -199 65 -322h-131zM540 278v-78h-176v78h176zM540 411v-81h-176v81h176zM959 303h-48
c-17 162 -46 297 -95 408c37 74 87 140 154 187c-14 13 -37 40 -47 58c-60 -47 -106 -108 -143 -176c-41 71 -92 130 -157 180c-10 -13 -36 -36 -52 -48c-2 3 -4 5 -6 7c-12 16 -28 22 -51 24c-18 2 -56 2 -93 0c-1 -19 -8 -44 -18 -61c36 4 68 4 81 4s21 -2 26 -9
c9 -12 15 -50 21 -150h-109c-13 78 -49 166 -147 236c-12 -13 -34 -32 -51 -43c127 -90 141 -207 141 -281v-36h-108v-62h159c-9 -19 -18 -38 -26 -55l64 -15c13 21 27 47 36 70h156v62h-217v38v25h170s0 18 -1 28c-6 125 -11 186 -25 215c76 -53 131 -121 172 -205
c-37 -90 -60 -188 -74 -279c-14 33 -30 64 -47 92c-10 -13 -34 -38 -50 -51h-271v-322h95c11 -33 22 -73 27 -101l78 11c-12 30 -23 63 -34 90h135v260c44 -98 71 -228 86 -361l71 11c-9 62 -19 122 -33 180h231v69z" />
</svg>
