<?xml version="1.0" standalone="no"?>
<!DOCTYPE svg PUBLIC "-//W3C//DTD SVG 1.1//EN" "http://www.w3.org/Graphics/SVG/1.1/DTD/svg11.dtd" >
<svg xmlns="http://www.w3.org/2000/svg" xmlns:xlink="http://www.w3.org/1999/xlink" version="1.1" viewBox="-10 0 1010 1000">
   <path fill="currentColor"
d="M641 103l-27 30c-15 -15 -44 -38 -68 -53l27 -26c24 13 53 33 68 49zM782 273l-34 40c-32 -27 -79 -59 -130 -91c-49 39 -100 72 -150 100c-8 -10 -28 -29 -40 -38c49 -24 100 -55 147 -89c-40 -23 -80 -46 -117 -65l32 -33c39 20 82 42 124 67c41 -33 77 -69 104 -106
l47 17c-30 40 -67 78 -108 114c50 30 94 60 125 84zM703 184l24 -28c26 12 57 30 73 45l-26 32c-16 -15 -46 -36 -71 -49zM581 281l29 -25c24 14 53 35 67 52l-28 29c-15 -17 -43 -40 -68 -56zM519 206l-28 29c-15 -14 -44 -34 -67 -47l27 -26c23 12 54 29 68 44zM889 90
v314h-548v-314h63v257h420v-257h65zM675 453l41 -34c79 41 179 102 232 143l-43 40c-50 -41 -151 -105 -230 -149zM221 45l66 19c-19 65 -44 131 -71 194v697h-66v-567c-25 42 -51 82 -78 116c-6 -17 -25 -57 -37 -76c78 -94 146 -237 186 -383zM485 422l60 20
c-59 67 -151 132 -230 172c-11 -11 -37 -32 -52 -41c83 -37 170 -92 222 -151zM732 653h-227c26 40 64 78 115 112c45 -32 84 -69 112 -112zM783 595l45 23c-33 74 -84 135 -147 183c76 38 172 68 285 82c-13 16 -30 44 -39 62c-123 -21 -224 -58 -305 -105
c-94 57 -207 92 -323 114c-6 -18 -21 -44 -33 -60c105 -16 209 -46 297 -94c-46 -34 -82 -73 -108 -114c-40 28 -86 54 -138 77c-9 -16 -30 -36 -44 -46c141 -56 236 -138 282 -214l69 13c-18 28 -41 57 -66 83h211z" />
</svg>
