<?xml version="1.0" standalone="no"?>
<!DOCTYPE svg PUBLIC "-//W3C//DTD SVG 1.1//EN" "http://www.w3.org/Graphics/SVG/1.1/DTD/svg11.dtd" >
<svg xmlns="http://www.w3.org/2000/svg" xmlns:xlink="http://www.w3.org/1999/xlink" version="1.1" viewBox="-10 0 1010 1000">
   <path fill="currentColor"
d="M629 255l48 -36c33 22 69 46 103 72c27 -35 49 -74 66 -117h-207v-61h236l12 -3l41 15c-21 80 -56 148 -99 204c47 38 91 76 118 107l-52 44c-25 -31 -63 -67 -107 -104c-47 48 -102 85 -160 111c-9 -14 -25 -37 -39 -49c54 -21 107 -56 151 -101
c-36 -30 -74 -58 -111 -82zM236 49l68 20c-21 66 -48 132 -78 196v692h-71v-560c-29 49 -62 94 -94 133c-7 -17 -27 -56 -39 -75c86 -100 166 -252 214 -406zM577 213l39 18c-55 157 -186 265 -317 318c-7 -14 -24 -37 -37 -49c56 -19 113 -51 162 -92
c-16 -18 -37 -35 -54 -49l38 -34c19 13 39 29 56 45c29 -29 54 -64 72 -100h-148c-17 41 -38 78 -59 107c-11 -8 -35 -23 -50 -30c37 -47 66 -113 84 -179l58 12c-3 11 -7 24 -12 36h43v-158h65v51h89v57h-89v50h49zM943 709h-227c59 70 156 138 243 171
c-16 13 -38 38 -49 54c-92 -43 -197 -129 -258 -214v238h-71v-231c-65 85 -171 167 -264 210c-12 -16 -33 -40 -50 -54c89 -34 189 -102 251 -174h-222v-61h168c-19 -27 -48 -63 -74 -87l44 -37c32 27 67 68 84 96l-32 28h95v-153h71v153h59c32 -40 72 -97 94 -137l61 31
c-26 35 -54 74 -82 106h159v61z" />
</svg>
