<?xml version="1.0" standalone="no"?>
<!DOCTYPE svg PUBLIC "-//W3C//DTD SVG 1.1//EN" "http://www.w3.org/Graphics/SVG/1.1/DTD/svg11.dtd" >
<svg xmlns="http://www.w3.org/2000/svg" xmlns:xlink="http://www.w3.org/1999/xlink" version="1.1" viewBox="-10 0 1010 1000">
   <path fill="currentColor"
d="M369 191v97h-63v-154h267c-10 -25 -24 -54 -36 -76l70 -19c17 29 35 67 47 95h275v154h-65v-97h-495zM439 326l52 20c-41 34 -105 75 -156 100c-9 -11 -29 -32 -42 -42c52 -21 110 -49 146 -78zM227 49l68 18c-19 67 -43 134 -70 199v690h-70v-546c-25 46 -52 88 -80 124
c-6 -18 -25 -60 -38 -79c79 -101 148 -254 190 -406zM451 704v52h365v-52h-365zM816 562v-50h-365v50h365zM816 658v-50h-365v50h365zM884 804h-158c84 31 176 71 233 99l-29 52c-59 -28 -150 -72 -235 -106l25 -45h-180l52 45c-80 37 -185 78 -263 105
c-7 -15 -19 -38 -31 -53c72 -23 178 -65 236 -97h-149v-291c-34 7 -68 13 -100 19c-5 -15 -22 -44 -32 -58c104 -14 216 -35 316 -63v-119h-160v-50h419v50h-194v99c76 -25 143 -55 192 -90l57 28c-76 56 -183 101 -299 135h300v340z" />
</svg>
