<?xml version="1.0" standalone="no"?>
<!DOCTYPE svg PUBLIC "-//W3C//DTD SVG 1.1//EN" "http://www.w3.org/Graphics/SVG/1.1/DTD/svg11.dtd" >
<svg xmlns="http://www.w3.org/2000/svg" xmlns:xlink="http://www.w3.org/1999/xlink" version="1.1" viewBox="-10 0 1010 1000">
   <path fill="currentColor"
d="M249 48l67 20c-25 69 -55 137 -88 203v684h-69v-565c-27 43 -57 82 -86 116c-8 -16 -29 -53 -41 -69c87 -95 168 -242 217 -389zM324 954l-58 -29c44 -43 82 -117 105 -173l58 25c-25 58 -60 132 -105 177zM494 778l58 -10c16 54 30 123 33 169l-62 11
c-2 -46 -14 -116 -29 -170zM805 200v-67h-395v67h395zM805 320v-69h-395v69h395zM876 80v293h-534v-293h534zM504 599l42 -17c29 45 54 105 64 146l-44 19c-3 -14 -9 -30 -15 -48c-174 18 -204 24 -221 30c-3 -9 -14 -35 -22 -48c19 -2 37 -16 61 -40c14 -11 44 -43 78 -84
c-89 7 -110 11 -123 16c-4 -11 -14 -35 -22 -46c15 -2 26 -11 38 -26c15 -15 60 -72 84 -128l57 25c-23 39 -50 78 -80 111l86 -5c14 -19 27 -38 39 -57l55 30c-46 64 -102 130 -160 184l110 -10c-9 -18 -18 -36 -27 -52zM945 728l-44 22c-5 -15 -12 -32 -20 -51
c-190 21 -220 26 -239 34c-3 -11 -13 -36 -21 -48c18 -3 37 -18 62 -40c12 -11 42 -43 75 -81c-89 6 -111 10 -124 15c-3 -10 -14 -35 -21 -46c14 -2 25 -11 38 -26c13 -14 59 -70 81 -125l58 24c-22 38 -49 77 -78 109l87 -4c16 -21 30 -41 42 -62l56 31
c-47 63 -103 129 -162 182l121 -11c-9 -17 -18 -33 -28 -48l41 -20c32 46 63 105 76 145zM637 780l55 -18c29 51 57 120 69 164l-59 20c-10 -45 -38 -114 -65 -166zM785 769l56 -24c44 57 90 134 109 185l-56 27c-19 -52 -65 -131 -109 -188z" />
</svg>
