<?xml version="1.0" standalone="no"?>
<!DOCTYPE svg PUBLIC "-//W3C//DTD SVG 1.1//EN" "http://www.w3.org/Graphics/SVG/1.1/DTD/svg11.dtd" >
<svg xmlns="http://www.w3.org/2000/svg" xmlns:xlink="http://www.w3.org/1999/xlink" version="1.1" viewBox="-10 0 1010 1000">
   <path fill="currentColor"
d="M937 139v61h-647v-61h279c-5 -29 -13 -66 -23 -94l68 -9c12 32 24 75 28 103h295zM674 201l54 20c-30 34 -66 69 -96 96h1v211h-57v-211h-1c33 -32 76 -82 99 -116zM518 281v24c-4 127 -8 176 -22 193c-10 12 -21 18 -41 19c-12 2 -34 2 -54 1c-1 -16 -6 -36 -13 -50
c20 2 37 2 45 2c9 1 14 -1 19 -7c6 -10 9 -43 13 -131h-57c-14 93 -49 161 -115 204c-6 -11 -22 -32 -34 -42c54 -35 84 -89 95 -162h-56v-51h220zM589 282l-46 23c-7 -24 -25 -58 -44 -83l43 -18c19 24 39 56 47 78zM221 45l67 18c-20 66 -45 132 -72 194v698h-66v-567
c-25 43 -51 82 -78 116c-6 -16 -25 -57 -37 -75c78 -95 146 -238 186 -384zM433 740h343v-82h-338v9c0 23 -1 48 -5 73zM776 598v-66h70v426h-70v-158h-356c-17 58 -50 115 -113 159c-12 -13 -38 -32 -56 -40c102 -72 118 -176 118 -253v-133h69v65h338zM862 243l46 38
c-19 10 -40 19 -64 28c19 72 51 141 97 174c-12 9 -27 27 -34 40c-51 -42 -85 -119 -104 -201c-19 6 -39 11 -57 16v126l80 -23c1 13 5 32 8 42c-102 34 -122 43 -134 52v-1c-4 -12 -16 -37 -25 -49c10 -7 22 -22 22 -60v-121c60 -15 127 -38 165 -61z" />
</svg>
