<?xml version="1.0" standalone="no"?>
<!DOCTYPE svg PUBLIC "-//W3C//DTD SVG 1.1//EN" "http://www.w3.org/Graphics/SVG/1.1/DTD/svg11.dtd" >
<svg xmlns="http://www.w3.org/2000/svg" xmlns:xlink="http://www.w3.org/1999/xlink" version="1.1" viewBox="-10 0 1010 1000">
   <path fill="currentColor"
d="M628 235l42 -42c28 14 57 31 85 49c30 -31 61 -70 85 -106h-247v-59h288l12 -4l44 29c-35 60 -85 125 -133 175c28 22 53 44 70 64l-45 47c-39 -48 -125 -112 -201 -153zM517 364h-118c-72 0 -89 -16 -89 -83v-236h62v118c60 -22 122 -49 160 -74l44 49
c-56 31 -134 59 -204 79v64c0 23 5 27 35 27h102c23 0 28 -9 31 -72c14 10 38 19 56 23c-6 83 -24 105 -79 105zM220 49l66 18c-19 63 -43 125 -70 185v702h-66v-573c-28 47 -57 90 -88 126c-7 -16 -26 -56 -37 -74c81 -94 153 -238 195 -384zM563 826l-39 51
c-20 -27 -54 -65 -87 -99c-24 64 -68 128 -149 181c-9 -14 -28 -33 -43 -44c105 -62 141 -147 153 -223h-139v-61h145v-23v-97h-48c-14 39 -30 73 -49 101c-11 -9 -36 -26 -51 -34c39 -55 64 -134 77 -216l60 13c-5 26 -11 52 -18 77h194v59h-104v97v23h113v61h-119l-3 21
c40 38 85 83 107 113zM862 878h104c-8 15 -17 44 -19 61h-89c-94 0 -167 -24 -217 -128c-17 57 -41 106 -76 147c-11 -10 -36 -28 -50 -36c79 -84 98 -215 103 -380l58 3c-2 65 -7 124 -15 177c16 54 38 90 65 114v-379h-146v-60h321l10 -2l37 11c-16 60 -34 130 -52 174
l-47 -15c10 -29 21 -69 31 -108h-93v164h135v62h-135v186c23 7 49 9 75 9z" />
</svg>
