<?xml version="1.0" standalone="no"?>
<!DOCTYPE svg PUBLIC "-//W3C//DTD SVG 1.1//EN" "http://www.w3.org/Graphics/SVG/1.1/DTD/svg11.dtd" >
<svg xmlns="http://www.w3.org/2000/svg" xmlns:xlink="http://www.w3.org/1999/xlink" version="1.1" viewBox="-10 0 1010 1000">
   <path fill="currentColor"
d="M235 49l69 19c-22 66 -48 132 -78 195v693h-71v-560c-30 50 -61 95 -94 134c-7 -18 -27 -57 -39 -75c86 -100 165 -252 213 -406zM398 743v128h107v-128h-107zM667 743h-107v128h107v-128zM830 743h-110v128h110v-128zM897 689v182h65v57h-696v-57h68v-182h563zM365 533
l54 23c-25 53 -61 110 -115 145l-50 -41c50 -28 89 -80 111 -127zM477 561l57 -13c17 35 34 82 38 111l-60 18c-4 -31 -19 -79 -35 -116zM633 560l54 -18c24 34 48 79 58 109l-57 23c-10 -30 -33 -78 -55 -114zM960 659l-54 34c-22 -37 -69 -93 -111 -133l52 -29
c41 38 90 92 113 128zM800 357v-69h-157v69h157zM643 168v64h157v-64h-157zM868 232h94v56h-94v122h-225v63h312v56h-680v-56h295v-63h-219v-53h219v-69h-291v-56h291v-64h-219v-53h219v-66h73v66h225v117z" />
</svg>
