<?xml version="1.0" standalone="no"?>
<!DOCTYPE svg PUBLIC "-//W3C//DTD SVG 1.1//EN" "http://www.w3.org/Graphics/SVG/1.1/DTD/svg11.dtd" >
<svg xmlns="http://www.w3.org/2000/svg" xmlns:xlink="http://www.w3.org/1999/xlink" version="1.1" viewBox="-10 0 1010 1000">
   <path fill="currentColor"
d="M236 50l68 19c-21 69 -48 138 -78 204v683h-71v-546c-26 44 -54 85 -82 121c-6 -18 -27 -57 -40 -76c84 -100 157 -252 203 -405zM294 658v-150h661v149h-70v-90h-262l34 7c-16 20 -34 39 -54 57h191l12 -3l43 26c-90 181 -288 269 -505 310c-7 -16 -24 -46 -37 -60
c99 -15 193 -41 274 -79c-28 -23 -65 -51 -98 -70l50 -33c35 19 76 46 104 71c47 -30 88 -66 117 -109h-218c-52 36 -114 71 -188 99c-9 -16 -28 -38 -43 -48c129 -44 225 -108 276 -168h-220v91h-67zM846 409v-100h-113v100h113zM677 409v-100h-110v100h110zM511 409v-100
h-107v100h107zM340 257h573v203h-573v-203zM779 127h175v60h-175v55h-68v-55h-175v55h-68v-55h-164v-60h164v-74h68v74h175v-74h68v74z" />
</svg>
