<?xml version="1.0" standalone="no"?>
<!DOCTYPE svg PUBLIC "-//W3C//DTD SVG 1.1//EN" "http://www.w3.org/Graphics/SVG/1.1/DTD/svg11.dtd" >
<svg xmlns="http://www.w3.org/2000/svg" xmlns:xlink="http://www.w3.org/1999/xlink" version="1.1" viewBox="-10 0 1010 1000">
   <path fill="currentColor"
d="M241 43l67 19c-22 70 -51 140 -82 207v687h-71v-557c-28 46 -59 89 -90 126c-7 -17 -27 -57 -39 -76c87 -99 166 -252 215 -406zM558 590l12 -2l39 17c-47 181 -152 291 -280 350c-8 -15 -28 -40 -41 -49c58 -25 110 -60 153 -106c-25 -19 -58 -40 -86 -56l36 -39
c28 13 61 33 86 51c23 -34 42 -71 56 -112h-116c-35 52 -77 99 -120 133c-9 -11 -31 -33 -43 -43c70 -52 131 -131 165 -217l57 15c-8 20 -17 39 -26 58h108zM836 654v105h120v54h-120v143h-61v-143h-160v-139h59v85h101v-105h-162v-59h162v-72h61v72h111v59h-111zM455 357
v99h73v-99h-73zM455 194v101h73v-101h-73zM789 295v-101h-74v101h74zM584 295h75v-101h-75v101zM659 357h-75v99h75v-99zM789 456v-99h-74v99h74zM846 456h112v60h-670v-60h112v-99h-89v-62h89v-97c-21 24 -44 48 -71 71c-9 -14 -30 -34 -45 -44c69 -53 119 -124 145 -181
l64 11c-13 25 -27 52 -44 78h482v61h-85v101h101v62h-101v99z" />
</svg>
