<?xml version="1.0" standalone="no"?>
<!DOCTYPE svg PUBLIC "-//W3C//DTD SVG 1.1//EN" "http://www.w3.org/Graphics/SVG/1.1/DTD/svg11.dtd" >
<svg xmlns="http://www.w3.org/2000/svg" xmlns:xlink="http://www.w3.org/1999/xlink" version="1.1" viewBox="-10 0 1010 1000">
   <path fill="currentColor"
d="M235 49l69 19c-22 66 -48 132 -78 195v693h-71v-560c-30 50 -61 95 -94 134c-7 -18 -27 -57 -39 -75c86 -100 165 -252 213 -406zM521 632l43 10c-10 29 -22 57 -37 84c20 18 36 36 46 52l-31 30c-9 -13 -21 -28 -36 -44c-21 34 -44 64 -68 88c-8 -5 -26 -19 -38 -24
c28 -26 52 -58 73 -93c-17 -15 -36 -29 -55 -41l29 -28c16 9 31 20 46 32c11 -21 20 -44 28 -66zM571 564l-30 32c-10 -15 -24 -32 -42 -48c-18 29 -38 54 -58 75c-8 -6 -26 -18 -38 -22c23 -23 45 -50 64 -79c-17 -14 -35 -26 -53 -36l28 -29c16 9 31 18 47 29
c11 -21 21 -42 29 -64l42 10c-11 27 -24 54 -38 80c20 17 38 35 49 52zM971 332l-55 38c-4 -6 -9 -11 -15 -17v524c0 35 -7 55 -32 66c-23 11 -61 11 -118 11c-3 -17 -12 -45 -21 -63c42 2 79 2 90 1c12 0 15 -4 15 -16v-490h-193v439c27 -24 52 -54 73 -86
c-19 -16 -39 -31 -59 -43l29 -28c17 10 34 22 51 35c11 -21 21 -42 29 -64l43 9c-10 28 -24 57 -39 83c21 19 38 38 49 56l-31 30c-9 -15 -23 -32 -40 -49c-22 32 -46 62 -70 85c-7 -5 -23 -16 -35 -22v123h-57v-568h-186v572h-62v-592c-8 6 -16 12 -24 17
c-10 -12 -34 -37 -50 -48c68 -39 138 -98 180 -159l64 20c-30 44 -72 89 -117 128h189v-156h-270v-68h646v68h-307v156h224c-44 -39 -103 -82 -156 -113l51 -35c75 42 162 106 204 156zM818 569l-33 30c-9 -15 -23 -32 -40 -48c-19 29 -40 56 -61 77c-8 -6 -26 -18 -37 -24
c24 -23 46 -51 66 -81c-18 -15 -38 -29 -58 -40l30 -27c16 9 33 20 50 32c11 -20 21 -40 29 -61l41 10c-11 26 -23 52 -38 77c21 19 39 38 51 55z" />
</svg>
