<?xml version="1.0" standalone="no"?>
<!DOCTYPE svg PUBLIC "-//W3C//DTD SVG 1.1//EN" "http://www.w3.org/Graphics/SVG/1.1/DTD/svg11.dtd" >
<svg xmlns="http://www.w3.org/2000/svg" xmlns:xlink="http://www.w3.org/1999/xlink" version="1.1" viewBox="-10 0 1010 1000">
   <path fill="currentColor"
d="M223 49l66 19c-19 69 -45 138 -73 204v684h-67v-551c-25 45 -53 87 -82 122c-6 -17 -25 -57 -38 -74c82 -100 153 -250 194 -404zM379 269v170c0 148 -13 367 -94 518c-12 -12 -40 -31 -55 -38c76 -144 84 -341 84 -480v-224h238v-171h74v64h281v53h-281v54h269l12 -3
l50 14c-12 46 -27 98 -42 132l-61 -20c7 -19 14 -44 20 -69h-255v47l166 -9l3 45l-169 9v20c0 20 6 23 40 23h124c25 0 30 -7 33 -51c15 8 38 14 57 18c-6 61 -24 78 -81 78h-140c-81 0 -103 -11 -103 -68v-17l-163 9l-3 -45l166 -9v-50h-170zM821 583v-52h-133v52h133z
M821 680v-53h-133v53h133zM497 627v53h131v-53h-131zM497 531v52h131v-52h-131zM885 485v240h-240c34 22 69 50 88 72l-43 37c-22 -27 -67 -63 -107 -87l25 -22h-172v-240h449zM409 943l-52 -33c30 -35 50 -97 58 -151l56 18c-9 59 -27 125 -62 166zM623 889h118
c27 0 31 -6 34 -64c13 9 38 19 55 22c-8 80 -26 99 -80 99h-133c-76 0 -94 -17 -94 -79v-100h60v99c0 20 5 23 40 23zM787 777l49 -31c54 41 108 100 127 147l-53 33c-19 -46 -70 -107 -123 -149z" />
</svg>
