<?xml version="1.0" standalone="no"?>
<!DOCTYPE svg PUBLIC "-//W3C//DTD SVG 1.1//EN" "http://www.w3.org/Graphics/SVG/1.1/DTD/svg11.dtd" >
<svg xmlns="http://www.w3.org/2000/svg" xmlns:xlink="http://www.w3.org/1999/xlink" version="1.1" viewBox="-10 0 1010 1000">
   <path fill="currentColor"
d="M679 441h57v84c52 -17 112 -39 151 -56l32 42c-51 25 -126 48 -183 63v61c0 21 4 24 32 24h94c23 0 27 -9 30 -82c12 8 36 16 52 20c-6 89 -23 111 -76 111h-106c-66 0 -83 -15 -83 -72v-195zM236 49l68 19c-23 71 -52 142 -84 209v680h-67v-557c-29 48 -60 92 -92 131
c-7 -18 -27 -58 -39 -76c86 -100 165 -252 214 -406zM506 192h-128v64h128v-64zM684 256v-64h-117v64h117zM861 310h-116v67h116v-67zM567 310v67h117v-67h-117zM378 310v67h128v-67h-128zM378 430v20c0 146 -12 366 -90 508c-10 -12 -38 -34 -51 -41
c70 -135 76 -328 76 -467v-315h289c-9 -25 -21 -52 -32 -74l64 -17c15 27 32 64 42 91h268v57h-199v64h176v174h-543zM419 956l-54 -23c28 -53 56 -139 72 -198l51 20c-17 60 -43 146 -69 201zM548 756l53 -4c12 61 23 139 25 184l-56 8c-3 -47 -11 -127 -22 -188zM486 438
v67h154v52h-154v86l143 -30c0 16 2 37 4 50c-160 39 -185 47 -200 57c-4 -14 -15 -39 -24 -51c11 -5 22 -17 22 -54v-177h55zM677 755l53 -11c18 57 39 133 48 177l-55 15c-9 -46 -27 -123 -46 -181zM806 748l47 -20c35 58 76 135 95 180l-50 24c-18 -47 -58 -125 -92 -184z
" />
</svg>
