<?xml version="1.0" standalone="no"?>
<!DOCTYPE svg PUBLIC "-//W3C//DTD SVG 1.1//EN" "http://www.w3.org/Graphics/SVG/1.1/DTD/svg11.dtd" >
<svg xmlns="http://www.w3.org/2000/svg" xmlns:xlink="http://www.w3.org/1999/xlink" version="1.1" viewBox="-10 0 1010 1000">
   <path fill="currentColor"
d="M210 49l65 17c-16 62 -36 124 -59 183v707h-67v-559c-25 48 -52 92 -80 130c-6 -18 -26 -57 -39 -74c77 -100 142 -251 180 -404zM313 730l63 13c-20 81 -59 161 -102 213c-11 -10 -38 -29 -53 -37c43 -48 75 -118 92 -189zM412 753l53 -23c31 48 64 110 78 152l-56 26
c-14 -42 -46 -107 -75 -155zM438 271v-128h-100v128h100zM438 457v-128h-100v128h100zM438 645v-129h-100v129h100zM615 292v93h221v-93h-221zM615 144v92h221v-92h-221zM642 524h300s-1 22 -1 31c-12 253 -22 343 -47 372c-15 19 -32 26 -56 28c-23 2 -61 2 -100 0
c-1 -20 -8 -45 -18 -63c39 4 75 4 89 4c15 0 23 -1 31 -11c16 -18 26 -95 36 -299h-21c-43 150 -116 276 -210 361c-10 -11 -36 -32 -52 -42c91 -74 158 -186 197 -319h-64c-40 89 -97 170 -158 226c-10 -11 -34 -31 -47 -41c57 -46 106 -112 140 -185h-57
c-23 32 -48 62 -74 86c-7 -8 -21 -25 -33 -37v72h-217v-626h217v535c47 -45 89 -106 117 -170h-68v-363h362v363h-228c-11 26 -24 53 -38 78z" />
</svg>
