<?xml version="1.0" standalone="no"?>
<!DOCTYPE svg PUBLIC "-//W3C//DTD SVG 1.1//EN" "http://www.w3.org/Graphics/SVG/1.1/DTD/svg11.dtd" >
<svg xmlns="http://www.w3.org/2000/svg" xmlns:xlink="http://www.w3.org/1999/xlink" version="1.1" viewBox="-10 0 1010 1000">
   <path fill="currentColor"
d="M311 120h277c-14 -23 -30 -47 -46 -66l57 -24c23 26 49 62 64 90h281v57h-633v-57zM940 548h-69v-85h-501v85h-67v-134h637v134zM786 329v-64h-326v64h326zM392 221h463v152h-463v-152zM258 48l62 21c-28 75 -61 148 -99 218v668h-64v-563c-31 46 -64 89 -97 125
c-6 -18 -26 -56 -38 -73c94 -95 182 -245 236 -396zM866 567l49 45c-36 22 -79 46 -120 67c41 70 113 151 171 191c-16 10 -38 31 -49 47c-58 -48 -129 -136 -172 -214l-29 13c48 86 39 177 -5 214c-25 22 -51 29 -83 30c-17 0 -40 0 -61 -2c-2 -16 -8 -41 -19 -57
c25 3 50 3 67 3s32 -1 45 -14c23 -19 30 -70 10 -127c-91 67 -233 133 -354 166c-6 -15 -20 -38 -32 -50c129 -27 283 -94 364 -160c-7 -12 -15 -23 -25 -35c-73 49 -182 99 -274 126c-6 -13 -20 -34 -30 -45c92 -21 205 -66 274 -111c-13 -12 -26 -22 -42 -32
c-55 33 -118 61 -179 80c-5 -11 -23 -35 -34 -46c78 -22 160 -54 217 -96h-160v-49h457v49h-222c-10 11 -22 21 -35 30c39 25 70 52 94 83c59 -30 132 -74 177 -106z" />
</svg>
