<?xml version="1.0" standalone="no"?>
<!DOCTYPE svg PUBLIC "-//W3C//DTD SVG 1.1//EN" "http://www.w3.org/Graphics/SVG/1.1/DTD/svg11.dtd" >
<svg xmlns="http://www.w3.org/2000/svg" xmlns:xlink="http://www.w3.org/1999/xlink" version="1.1" viewBox="-10 0 1010 1000">
   <path fill="currentColor"
d="M829 598h-54v-157c-26 50 -58 98 -91 127c-9 -10 -23 -26 -35 -34c43 -34 87 -97 113 -162h-88v-52h101v-62c-25 6 -51 10 -76 14c-3 -12 -9 -32 -17 -44c68 -13 149 -34 193 -54l43 43c-25 11 -57 20 -89 29v74h109v52h-94c27 59 70 122 108 154c-11 8 -27 24 -36 36
c-29 -29 -62 -81 -87 -134v170zM580 598h-54v-162c-27 51 -60 101 -92 132c-6 -16 -19 -40 -27 -54c36 -31 77 -87 103 -142h-91v-52h107v-66c-29 6 -57 11 -85 14c-3 -12 -10 -32 -17 -43c65 -12 142 -31 186 -50l43 43c-22 9 -46 17 -73 23v79h67v52h-67v23
c20 15 68 55 81 67l-31 37c-9 -12 -30 -35 -50 -56v155zM221 49l67 19c-20 64 -44 128 -70 190v699h-68v-563c-25 45 -52 85 -80 120c-6 -17 -25 -57 -38 -74c78 -97 148 -243 189 -391zM383 152v288c0 151 -13 364 -100 505c-11 -12 -40 -33 -54 -40
c81 -133 88 -323 88 -465v-353h628v65h-562zM723 752v115h218v61h-562v-61h114v-208h59v208h109v-271h62v99h176v57h-176z" />
</svg>
