<?xml version="1.0" standalone="no"?>
<!DOCTYPE svg PUBLIC "-//W3C//DTD SVG 1.1//EN" "http://www.w3.org/Graphics/SVG/1.1/DTD/svg11.dtd" >
<svg xmlns="http://www.w3.org/2000/svg" xmlns:xlink="http://www.w3.org/1999/xlink" version="1.1" viewBox="-10 0 1010 1000">
   <path fill="currentColor"
d="M557 179l-4 5c25 31 62 62 109 89c46 -26 86 -58 116 -94h-221zM836 120l44 22c-35 66 -89 119 -154 162c67 29 147 50 241 61c-14 14 -32 40 -41 58c-103 -17 -191 -46 -262 -83c-80 41 -170 68 -260 86c-7 -16 -22 -42 -35 -56c80 -13 160 -35 233 -68
c-36 -24 -67 -50 -89 -77c-27 24 -54 46 -82 64c-11 -12 -39 -34 -54 -43c82 -48 156 -123 196 -205l67 17c-11 23 -24 44 -39 65h222zM761 561l-33 -16c14 -22 34 -56 43 -77l41 22c-18 27 -37 53 -51 71zM529 490l38 -17c16 20 34 50 42 68l-38 21c-8 -20 -26 -51 -42 -72
zM496 571h145v-105h-145v105zM842 571v-105h-144v105h144zM395 755h246v-50h-206v-51h206v-40h-201v-191h461v191h-203v40h218v51h-218v50h254v54h-557v-54zM238 49l68 20c-22 67 -48 134 -78 198v690h-71v-557c-28 48 -60 92 -91 131c-7 -18 -28 -57 -39 -76
c86 -100 164 -252 211 -406zM301 794v-630h64v630h-64zM418 957l-52 -30c38 -27 73 -75 94 -111l51 24c-23 41 -55 87 -93 117zM562 837l53 -10c13 34 27 81 31 108l-55 15c-4 -29 -16 -76 -29 -113zM687 840l49 -16c21 33 43 78 52 107l-52 19c-8 -29 -29 -75 -49 -110z
M813 834l53 -24c36 36 77 87 96 121l-56 28c-18 -34 -58 -87 -93 -125z" />
</svg>
