<?xml version="1.0" standalone="no"?>
<!DOCTYPE svg PUBLIC "-//W3C//DTD SVG 1.1//EN" "http://www.w3.org/Graphics/SVG/1.1/DTD/svg11.dtd" >
<svg xmlns="http://www.w3.org/2000/svg" xmlns:xlink="http://www.w3.org/1999/xlink" version="1.1" viewBox="-10 0 1010 1000">
   <path fill="currentColor"
d="M236 49l68 20c-23 70 -49 140 -80 207v679h-71v-544c-26 44 -54 84 -82 119c-7 -17 -28 -56 -41 -75c85 -100 159 -253 206 -406zM696 811h-137v54h137v-54zM750 772v133h-191v30h-58v-163h249zM915 631v253c0 32 -6 46 -29 56c-22 9 -59 9 -112 9
c-2 -17 -10 -36 -18 -52c38 1 66 1 77 0c11 0 13 -3 13 -13v-202h-135c45 26 95 56 122 78l-28 35c-32 -26 -95 -68 -145 -96l16 -17h-109l30 10c-40 36 -94 79 -141 105l-43 -28c44 -21 95 -53 132 -87h-147v275h-68v-326h585zM440 501v45h173v-45h-173zM634 220h-174l33 9
c-10 19 -21 38 -33 56h152c-8 -17 -17 -36 -24 -51zM613 374v-42h-173v42h173zM613 459v-43h-173v43h173zM683 546h245v47h-488v27h-69v-228c-18 17 -36 32 -54 46c-10 -12 -33 -36 -48 -47c63 -42 120 -104 157 -171h-84v-148h68v95h182v-123h72v123h163v-95h71v148h-249
c13 20 25 46 33 65h225v47h-224v42h188v42h-188v43h191v42h-191v45z" />
</svg>
