<?xml version="1.0" standalone="no"?>
<!DOCTYPE svg PUBLIC "-//W3C//DTD SVG 1.1//EN" "http://www.w3.org/Graphics/SVG/1.1/DTD/svg11.dtd" >
<svg xmlns="http://www.w3.org/2000/svg" xmlns:xlink="http://www.w3.org/1999/xlink" version="1.1" viewBox="-10 0 1010 1000">
   <path fill="currentColor"
d="M779 201h-134v39h134v-39zM447 240h130v-39h-130v39zM577 164v-32h-259v-46h259v-43h68v43h267v46h-267v32h194v114h-194v34h312v127h-62v-85h-556v86h-60v-128h298v-34h-188v-114h188zM221 45l66 18c-19 66 -44 132 -71 195v697h-66v-567c-25 43 -51 82 -78 116
c-6 -17 -25 -57 -37 -75c78 -95 146 -238 186 -384zM854 741h-182c20 27 44 52 73 74c37 -23 81 -52 109 -74zM532 658v37h159v-37h-159zM532 579v36h159v-36h-159zM427 420v39h108v-39h-108zM694 420v39h111v-39h-111zM856 741l43 30c-36 27 -78 50 -114 70
c50 29 110 51 175 64c-13 11 -30 33 -38 50c-137 -34 -248 -109 -308 -214h-24c-29 24 -65 44 -105 63v73l174 -32c-1 15 0 38 2 50c-191 40 -219 48 -235 59c-4 -16 -13 -45 -22 -60c12 -5 26 -14 26 -48v-20c-48 18 -99 33 -146 44c-8 -10 -25 -33 -36 -44
c92 -16 194 -45 262 -85h-234v-46h192v-37h-119v-43h119v-36h-149v-44h149v-39h-89v-113h205v113h-52v39h159v-39h-45v-113h209v113h-99v39h147v44h-147v36h114v43h-114v37h194v46h-94z" />
</svg>
