<?xml version="1.0" standalone="no"?>
<!DOCTYPE svg PUBLIC "-//W3C//DTD SVG 1.1//EN" "http://www.w3.org/Graphics/SVG/1.1/DTD/svg11.dtd" >
<svg xmlns="http://www.w3.org/2000/svg" xmlns:xlink="http://www.w3.org/1999/xlink" version="1.1" viewBox="-10 0 1010 1000">
   <path fill="currentColor"
d="M583 176l-77 26c-15 -37 -50 -97 -80 -140l73 -22c32 43 67 99 84 136zM698 862h135c39 0 46 -23 51 -158c17 15 49 28 70 34c-8 154 -30 195 -115 195h-150c-92 0 -117 -25 -117 -108v-285l-148 8c-19 205 -76 339 -318 410c-8 -19 -30 -50 -47 -65
c219 -59 267 -168 285 -340c-139 9 -167 13 -190 20c-5 -16 -17 -55 -26 -76c20 -3 42 -22 69 -48c24 -22 91 -94 149 -174h-276v-72h862v72h-486c-58 77 -123 150 -186 210l469 -21c-42 -42 -89 -83 -131 -117l60 -36c92 70 203 173 256 244l-65 43
c-15 -21 -35 -44 -58 -70l-140 8v288c0 32 7 38 47 38z" />
</svg>
