<?xml version="1.0" standalone="no"?>
<!DOCTYPE svg PUBLIC "-//W3C//DTD SVG 1.1//EN" "http://www.w3.org/Graphics/SVG/1.1/DTD/svg11.dtd" >
<svg xmlns="http://www.w3.org/2000/svg" xmlns:xlink="http://www.w3.org/1999/xlink" version="1.1" viewBox="-10 0 1010 1000">
   <path fill="currentColor"
d="M467 502h-149c-32 155 -97 319 -227 459c-12 -13 -36 -37 -53 -47c119 -126 181 -273 214 -412h-87c-38 0 -69 6 -78 14c-4 -17 -19 -47 -26 -61c12 -4 20 -9 27 -27c10 -20 37 -149 46 -192h65c-11 44 -31 139 -47 201h112c17 -97 21 -187 22 -263h-196v-67h381v67h-121
c-1 76 -5 166 -20 263h137v65zM384 779l118 -70c4 18 13 43 20 56c-165 106 -189 126 -202 143c-5 -16 -19 -48 -29 -64c12 -6 29 -23 29 -62v-235h64v232zM828 865h39c11 0 23 -2 29 -6s11 -12 14 -23c2 -18 4 -60 3 -110c13 12 36 24 54 30c-1 49 -5 103 -10 124
c-6 19 -17 32 -31 41c-14 7 -37 11 -55 11h-58c-22 0 -47 -4 -62 -17c-16 -13 -20 -28 -20 -74v-266c-39 132 -108 268 -225 385c-12 -13 -36 -37 -53 -47c128 -125 195 -270 230 -408h-86c-42 0 -73 5 -82 13c-5 -17 -20 -47 -27 -61c12 -4 21 -9 27 -27
c11 -20 37 -149 46 -192h64c-10 44 -30 139 -46 201h118c18 -97 22 -188 23 -263h-197v-67h417v67h-156c-1 75 -5 166 -22 263h180v66h-192c-5 20 -10 38 -15 58h61v280c0 6 2 13 8 17c5 3 14 5 24 5z" />
</svg>
