<?xml version="1.0" standalone="no"?>
<!DOCTYPE svg PUBLIC "-//W3C//DTD SVG 1.1//EN" "http://www.w3.org/Graphics/SVG/1.1/DTD/svg11.dtd" >
<svg xmlns="http://www.w3.org/2000/svg" xmlns:xlink="http://www.w3.org/1999/xlink" version="1.1" viewBox="-10 0 1010 1000">
   <path fill="currentColor"
d="M727 87l59 -19c38 107 112 221 180 280c-16 13 -38 35 -50 53c-73 -69 -146 -196 -189 -314zM875 384v30c-7 244 -14 328 -34 355c-14 19 -30 25 -54 28c-19 2 -55 2 -89 0c-1 -19 -8 -46 -18 -63c34 3 64 3 77 3c12 1 20 -1 25 -10c13 -17 19 -87 25 -280h-109v1
c0 96 -18 246 -179 357c-11 -13 -35 -32 -51 -43c151 -101 167 -235 167 -315h-89v-63h329zM159 376v140h248v-140h-248zM504 878h301c71 0 82 -19 89 -127c17 12 47 22 67 26c-13 133 -37 165 -153 165h-303c-134 0 -172 -21 -172 -110v-252h-92v29c0 95 -23 245 -155 349
c-11 -16 -34 -40 -51 -51c119 -92 137 -218 137 -300v-27h-82v-268h161v-99h-203v-66h203v-104h70v104h192v66h-192v99h157v35c64 -65 113 -163 140 -269l66 13c-32 124 -91 235 -162 308c-9 -9 -29 -25 -44 -35v216h-75v253c0 36 16 45 101 45z" />
</svg>
