<?xml version="1.0" standalone="no"?>
<!DOCTYPE svg PUBLIC "-//W3C//DTD SVG 1.1//EN" "http://www.w3.org/Graphics/SVG/1.1/DTD/svg11.dtd" >
<svg xmlns="http://www.w3.org/2000/svg" xmlns:xlink="http://www.w3.org/1999/xlink" version="1.1" viewBox="-10 0 1010 1000">
   <path fill="currentColor"
d="M207 717h203v-88h-203v88zM410 483h-203v87h203v-87zM410 419h71v457c0 37 -7 56 -32 68c-23 12 -61 12 -115 12c-4 -20 -14 -48 -24 -66c40 1 75 1 85 0c12 0 15 -4 15 -15v-98h-203v179h-68v-536zM629 417l69 17c-29 83 -71 166 -108 240c53 85 109 193 133 260l-70 26
c-21 -74 -76 -188 -134 -286c41 -84 87 -190 110 -257zM813 419l69 18c-33 78 -84 163 -128 237c60 83 125 189 153 255l-66 29c-29 -73 -92 -187 -160 -283c50 -84 105 -190 132 -256zM378 99l35 -52c221 77 275 222 548 281c-8 16 -18 45 -20 62
c-222 -47 -313 -161 -447 -239c-50 49 -116 97 -187 139h379v62h-385v-59c-70 42 -147 79 -217 102c-11 -17 -29 -42 -47 -58c139 -39 299 -126 397 -218c-18 -7 -37 -14 -56 -20z" />
</svg>
