<?xml version="1.0" standalone="no"?>
<!DOCTYPE svg PUBLIC "-//W3C//DTD SVG 1.1//EN" "http://www.w3.org/Graphics/SVG/1.1/DTD/svg11.dtd" >
<svg xmlns="http://www.w3.org/2000/svg" xmlns:xlink="http://www.w3.org/1999/xlink" version="1.1" viewBox="-10 0 1010 1000">
   <path fill="currentColor"
d="M276 740h448v-73h-448v73zM724 542h-448v70h448v-70zM800 483v391c0 41 -11 60 -42 71c-32 10 -85 10 -165 10c-4 -18 -15 -46 -24 -63c59 2 118 1 134 1c17 -1 21 -5 21 -20v-76h-448v159h-75v-473h599zM265 398v-56h472v56h-472zM269 216h464v56h-464v-56zM129 90h743
v336h-76v-276h-594v279h-73v-339z" />
</svg>
