<?xml version="1.0" standalone="no"?>
<!DOCTYPE svg PUBLIC "-//W3C//DTD SVG 1.1//EN" "http://www.w3.org/Graphics/SVG/1.1/DTD/svg11.dtd" >
<svg xmlns="http://www.w3.org/2000/svg" xmlns:xlink="http://www.w3.org/1999/xlink" version="1.1" viewBox="-10 0 1010 1000">
   <path fill="currentColor"
d="M156 155v136h-72v-202h826v202h-74v-136h-680zM762 461h-223c-5 48 -12 93 -23 135h246v-135zM257 596h183c12 -42 18 -87 23 -135h-206v135zM563 310h-212c-27 30 -57 61 -89 89h230c24 -25 51 -59 71 -89zM653 876h176c45 0 53 -17 57 -129c17 13 47 23 67 28
c-10 135 -32 169 -119 169h-186c-101 0 -128 -22 -128 -101v-185h-22c-52 141 -161 244 -408 300c-7 -19 -26 -48 -39 -64c217 -45 316 -126 366 -236h-233v-197c-26 19 -55 37 -84 54c-11 -17 -34 -42 -50 -54c151 -80 258 -193 313 -288l78 15c-13 21 -27 41 -42 62h208
l12 -3l48 33c-24 39 -57 83 -91 119h261v259h-245v184c0 28 10 34 61 34zM645 713l51 -35c45 32 97 80 122 114l-54 38c-23 -34 -74 -84 -119 -117z" />
</svg>
