<?xml version="1.0" standalone="no"?>
<!DOCTYPE svg PUBLIC "-//W3C//DTD SVG 1.1//EN" "http://www.w3.org/Graphics/SVG/1.1/DTD/svg11.dtd" >
<svg xmlns="http://www.w3.org/2000/svg" xmlns:xlink="http://www.w3.org/1999/xlink" version="1.1" viewBox="-10 0 1010 1000">
   <path fill="currentColor"
d="M130 349v-68h-47v-190h836v190h-74v-120h-690v119h323v69h-348zM912 360h-195v86h116l13 -3l43 18c-25 86 -67 158 -120 216c39 32 74 62 98 88l-49 50c-23 -27 -57 -58 -96 -91c-59 51 -127 89 -198 115c-7 -17 -25 -43 -39 -57c66 -21 129 -55 184 -100
c-43 -34 -89 -67 -131 -94l45 -42c43 26 89 58 134 91c34 -38 64 -81 85 -129h-267v-62h115v-232h67v86h195v60zM509 878h298c71 0 83 -21 91 -136c17 10 47 22 67 26c-13 139 -39 176 -156 176h-299c-133 0 -171 -23 -171 -114v-286h-107v69c0 107 -26 249 -146 347
c-9 -15 -37 -42 -51 -52c110 -87 129 -205 129 -296v-68h-106v-69h453v69h-102v285c0 39 15 49 100 49z" />
</svg>
