<?xml version="1.0" standalone="no"?>
<!DOCTYPE svg PUBLIC "-//W3C//DTD SVG 1.1//EN" "http://www.w3.org/Graphics/SVG/1.1/DTD/svg11.dtd" >
<svg xmlns="http://www.w3.org/2000/svg" xmlns:xlink="http://www.w3.org/1999/xlink" version="1.1" viewBox="-10 0 1010 1000">
   <path fill="currentColor"
d="M271 305l-71 37c-28 -60 -91 -156 -147 -227l65 -30c56 67 124 160 153 220zM207 533l64 36c-46 114 -106 244 -156 340l-74 -35c47 -83 116 -221 166 -341zM455 615h278c9 -76 18 -149 25 -208h-261c-14 74 -28 146 -42 208zM775 854h177v71h-703v-71h450
c9 -52 17 -111 25 -170h-362c33 -126 73 -335 98 -495h-168v-70h638v70h-394c-8 48 -17 98 -27 150h263l12 -4l53 6c-12 135 -38 347 -62 513z" />
</svg>
