<?xml version="1.0" standalone="no"?>
<!DOCTYPE svg PUBLIC "-//W3C//DTD SVG 1.1//EN" "http://www.w3.org/Graphics/SVG/1.1/DTD/svg11.dtd" >
<svg xmlns="http://www.w3.org/2000/svg" xmlns:xlink="http://www.w3.org/1999/xlink" version="1.1" viewBox="-10 0 1010 1000">
   <path fill="currentColor"
d="M282 275l-60 45c-30 -55 -99 -141 -157 -201l56 -38c58 58 129 140 161 194zM117 913l-62 -48c51 -79 125 -211 181 -327l54 47c-50 107 -116 234 -173 328zM664 566h196v-250h-196v250zM401 566h190v-250h-190v250zM664 246h269v444h-73v-55h-196v320h-73v-320h-190v62
h-70v-451h260v-192h73v192z" />
</svg>
