<?xml version="1.0" standalone="no"?>
<!DOCTYPE svg PUBLIC "-//W3C//DTD SVG 1.1//EN" "http://www.w3.org/Graphics/SVG/1.1/DTD/svg11.dtd" >
<svg xmlns="http://www.w3.org/2000/svg" xmlns:xlink="http://www.w3.org/1999/xlink" version="1.1" viewBox="-10 0 1010 1000">
   <path fill="currentColor"
d="M275 270l-60 46c-31 -53 -102 -137 -161 -197l56 -39c59 57 132 137 165 190zM104 915l-63 -48c53 -79 129 -212 187 -327l55 49c-53 106 -121 232 -179 326zM790 627h-351v218h351v-218zM367 958v-400h497v397h-74v-41h-351v44h-72zM668 205l63 -32
c84 89 174 209 216 288l-66 38c-10 -19 -23 -42 -38 -66c-434 29 -481 32 -512 44c-4 -15 -16 -51 -25 -71c21 -4 41 -28 69 -65c29 -35 121 -169 179 -298l76 22c-61 117 -133 233 -206 323l375 -21c-40 -57 -86 -115 -131 -162z" />
</svg>
