<?xml version="1.0" standalone="no"?>
<!DOCTYPE svg PUBLIC "-//W3C//DTD SVG 1.1//EN" "http://www.w3.org/Graphics/SVG/1.1/DTD/svg11.dtd" >
<svg xmlns="http://www.w3.org/2000/svg" xmlns:xlink="http://www.w3.org/1999/xlink" version="1.1" viewBox="-10 0 1010 1000">
   <path fill="currentColor"
d="M256 313l-65 40c-25 -62 -86 -159 -139 -232l60 -33c54 69 117 165 144 225zM111 907l-68 -39c46 -78 110 -211 156 -326l60 38c-43 108 -101 234 -148 327zM413 631l74 21c-37 86 -97 186 -157 253c-15 -15 -42 -35 -58 -46c58 -59 112 -153 141 -228zM903 548h-226v316
c0 44 -9 64 -38 76c-30 12 -77 13 -150 13c-3 -21 -13 -51 -23 -71c54 1 104 1 118 1c15 -1 20 -5 20 -19v-316h-158c-51 0 -84 6 -94 15c-4 -16 -16 -53 -25 -73c19 -6 36 -37 57 -82c13 -25 39 -87 66 -163h-162v-69h185c14 -45 28 -93 39 -139l78 19
c-10 40 -22 80 -36 120h389v69h-412c-32 85 -67 166 -101 235h174v-150h73v150h226v68zM747 657l63 -27c51 74 114 173 142 233l-67 33c-28 -61 -88 -164 -138 -239z" />
</svg>
