<?xml version="1.0" standalone="no"?>
<!DOCTYPE svg PUBLIC "-//W3C//DTD SVG 1.1//EN" "http://www.w3.org/Graphics/SVG/1.1/DTD/svg11.dtd" >
<svg xmlns="http://www.w3.org/2000/svg" xmlns:xlink="http://www.w3.org/1999/xlink" version="1.1" viewBox="-10 0 1010 1000">
   <path fill="currentColor"
d="M245 340l-68 37c-21 -70 -75 -180 -126 -264l65 -29c51 80 108 189 129 256zM198 534l63 38c-44 112 -102 241 -150 338l-71 -38c46 -81 111 -219 158 -338zM421 546h147c12 -56 18 -115 22 -176h-169v176zM697 195h-200c-27 37 -57 76 -90 111h214
c25 -29 54 -72 76 -111zM831 546v-176h-168c-4 61 -11 120 -22 176h190zM736 869h117c31 0 37 -16 40 -122c15 11 44 22 65 27c-8 128 -28 161 -98 161h-133c-83 0 -104 -21 -104 -96v-220c-44 145 -135 266 -335 339c-9 -19 -29 -45 -45 -59c183 -61 267 -164 308 -288
h-202v-249c-14 12 -28 24 -43 35c-13 -14 -36 -36 -54 -45c125 -89 210 -211 254 -309l74 13c-12 24 -25 48 -40 73h198l15 -4l48 32c-26 50 -60 104 -94 149h197v305h-209v228c0 26 6 30 41 30z" />
</svg>
