<?xml version="1.0" standalone="no"?>
<!DOCTYPE svg PUBLIC "-//W3C//DTD SVG 1.1//EN" "http://www.w3.org/Graphics/SVG/1.1/DTD/svg11.dtd" >
<svg xmlns="http://www.w3.org/2000/svg" xmlns:xlink="http://www.w3.org/1999/xlink" version="1.1" viewBox="-10 0 1010 1000">
   <path fill="currentColor"
d="M105 905l-65 -32c36 -80 86 -215 122 -331l57 34c-33 108 -77 235 -114 329zM47 115l56 -30c46 67 100 158 121 216l-59 36c-21 -58 -72 -152 -118 -222zM611 427v75h179v-75h-179zM611 301v72h179v-72h-179zM693 688h-194c-17 22 -33 42 -48 61c51 11 104 24 156 39
c38 -26 68 -59 86 -100zM862 559h-277c-12 22 -27 46 -43 69h408v60h-177c-21 49 -51 89 -91 123c91 28 175 59 235 90l-58 48c-58 -31 -144 -65 -239 -95c-97 53 -222 80 -359 98c-5 -17 -22 -46 -34 -61c117 -10 224 -29 308 -64c-67 -19 -134 -36 -196 -49
c25 -25 52 -57 78 -90h-169v-60h214c16 -23 32 -47 46 -69h-207v-57h238v-75h-306v-54h306v-72h-233v-56h233v-63h-292v-60h292v-78h72v78h325v60h-325v63h251v126h92v61h-92v127z" />
</svg>
