<?xml version="1.0" standalone="no"?>
<!DOCTYPE svg PUBLIC "-//W3C//DTD SVG 1.1//EN" "http://www.w3.org/Graphics/SVG/1.1/DTD/svg11.dtd" >
<svg xmlns="http://www.w3.org/2000/svg" xmlns:xlink="http://www.w3.org/1999/xlink" version="1.1" viewBox="-10 0 1010 1000">
   <path fill="currentColor"
d="M920 159v70h-621v-70h285c-12 -31 -28 -68 -42 -97l71 -20c19 37 41 83 54 117h253zM252 329l-67 40c-23 -67 -81 -175 -133 -254l63 -33c53 77 114 181 137 247zM196 532l65 33c-43 115 -100 246 -148 342l-72 -34c46 -82 109 -220 155 -341zM396 639l69 21
c-40 87 -98 182 -150 245c-12 -13 -41 -35 -59 -44c52 -58 105 -144 140 -222zM432 375v147h349v-147h-349zM855 585h-206v288c0 40 -9 59 -39 69c-30 12 -76 12 -148 12c-4 -21 -15 -48 -26 -67c51 1 104 1 117 0c15 0 19 -3 19 -16v-286h-211v-274h494v274zM741 666
l62 -26c47 69 103 160 128 217l-64 31c-27 -58 -81 -152 -126 -222z" />
</svg>
