<?xml version="1.0" standalone="no"?>
<!DOCTYPE svg PUBLIC "-//W3C//DTD SVG 1.1//EN" "http://www.w3.org/Graphics/SVG/1.1/DTD/svg11.dtd" >
<svg xmlns="http://www.w3.org/2000/svg" xmlns:xlink="http://www.w3.org/1999/xlink" version="1.1" viewBox="-10 0 1010 1000">
   <path fill="currentColor"
d="M234 353l-67 27c-19 -69 -67 -180 -114 -264l62 -22c49 82 100 190 119 259zM192 533l62 35c-42 113 -98 243 -144 339l-69 -34c44 -83 106 -220 151 -340zM789 395h-367v67h367v-67zM418 577h371v-66h-367c-1 21 -2 43 -4 66zM852 632h-441c-16 104 -50 216 -123 301
c-10 -13 -38 -36 -53 -44c106 -123 121 -292 121 -412v-137h496v292zM538 227l52 -25c27 30 58 73 72 99l-54 31c-14 -28 -44 -72 -70 -105zM798 749h-324v108h324v-108zM411 955v-264h452v262h-65v-38h-324v40h-63zM587 37l72 16c-7 10 -14 19 -21 28
c82 80 221 163 330 205c-16 15 -37 40 -49 58c-100 -45 -232 -131 -320 -215c-74 82 -177 159 -312 219c-7 -16 -25 -42 -38 -55c164 -67 280 -167 338 -256z" />
</svg>
