<?xml version="1.0" standalone="no"?>
<!DOCTYPE svg PUBLIC "-//W3C//DTD SVG 1.1//EN" "http://www.w3.org/Graphics/SVG/1.1/DTD/svg11.dtd" >
<svg xmlns="http://www.w3.org/2000/svg" xmlns:xlink="http://www.w3.org/1999/xlink" version="1.1" viewBox="-10 0 1010 1000">
   <path fill="currentColor"
d="M254 332l-67 39c-23 -68 -81 -176 -135 -257l62 -32c53 78 115 183 140 250zM186 534l60 38c-39 110 -92 239 -137 336l-68 -37c42 -81 103 -218 145 -337zM536 134v113h126v-113h-126zM477 247v-113h-120v113h120zM721 134v113h127v-113h-127zM951 770v59h-318v127h-73
v-127h-315v-59h315v-70h-264v-59h143c-7 -24 -21 -54 -36 -77l52 -14h-202v-60h307v-65h-250v-58h250v-62h-270v-228h627v228h-284v62h260v58h-260v65h311v60h-476c18 28 35 66 43 91h169c15 -27 33 -65 42 -90l71 18c-13 26 -28 50 -41 72h153v59h-272v70h318z" />
</svg>
