<?xml version="1.0" standalone="no"?>
<!DOCTYPE svg PUBLIC "-//W3C//DTD SVG 1.1//EN" "http://www.w3.org/Graphics/SVG/1.1/DTD/svg11.dtd" >
<svg xmlns="http://www.w3.org/2000/svg" xmlns:xlink="http://www.w3.org/1999/xlink" version="1.1" viewBox="-10 0 1010 1000">
   <path fill="currentColor"
d="M741 464v-177c-34 57 -77 110 -119 142c-9 -14 -28 -34 -42 -45c54 -35 111 -104 147 -174h-104v-59h118v-100h66v100h140v59h-115c32 65 85 137 127 175c-14 10 -33 31 -45 45c-34 -37 -75 -99 -107 -159v193h-66zM350 551v-58h540v58h-540zM422 465v-176
c-32 59 -73 114 -110 147c-11 -14 -30 -35 -44 -46c50 -37 105 -109 139 -180h-112v-59h127v-100h65v100h115v59h-115v19l1 -1c23 15 101 81 121 100l-42 56c-15 -21 -51 -61 -80 -93v174h-65zM243 337l-66 36c-22 -67 -73 -176 -122 -257l60 -30c50 80 105 186 128 251z
M195 534l57 36c-43 113 -100 244 -149 339l-65 -37c45 -81 111 -219 157 -338zM402 723l69 22c-46 68 -119 135 -183 179c-14 -13 -41 -37 -58 -48c66 -38 132 -95 172 -153zM947 688h-296v196c0 36 -8 53 -37 63c-31 10 -77 10 -147 10c-5 -18 -15 -42 -24 -59
c54 2 106 2 119 1c15 -1 20 -5 20 -16v-195h-298v-61h663v61zM735 760l54 -34c60 46 135 112 172 155l-58 39c-34 -45 -107 -113 -168 -160z" />
</svg>
