<?xml version="1.0" standalone="no"?>
<!DOCTYPE svg PUBLIC "-//W3C//DTD SVG 1.1//EN" "http://www.w3.org/Graphics/SVG/1.1/DTD/svg11.dtd" >
<svg xmlns="http://www.w3.org/2000/svg" xmlns:xlink="http://www.w3.org/1999/xlink" version="1.1" viewBox="-10 0 1010 1000">
   <path fill="currentColor"
d="M937 127v58h-652v-58h282c-10 -25 -21 -52 -32 -74l74 -18c14 29 31 64 43 92h285zM691 406v-48h-161v48h161zM746 323v118h-272v-118h272zM818 485v-205h-413v205h413zM886 236v293h-546v-293h546zM863 632h-502v-54h502v54zM275 296l-51 48
c-30 -51 -100 -127 -159 -181l48 -42c60 52 131 124 162 175zM234 478l52 46c-54 99 -123 218 -181 305l-59 -47c54 -72 130 -196 188 -304zM420 759l67 21c-48 58 -122 119 -186 157c-13 -12 -39 -35 -56 -47c64 -32 133 -81 175 -131zM946 743h-298v137c0 36 -7 53 -35 64
c-28 10 -72 10 -140 10c-4 -19 -15 -43 -23 -61c53 2 96 2 110 0c14 -1 17 -4 17 -14v-136h-297v-57h666v57zM726 792l57 -31c59 40 131 99 168 139l-60 37c-35 -41 -106 -102 -165 -145z" />
</svg>
