<?xml version="1.0" standalone="no"?>
<!DOCTYPE svg PUBLIC "-//W3C//DTD SVG 1.1//EN" "http://www.w3.org/Graphics/SVG/1.1/DTD/svg11.dtd" >
<svg xmlns="http://www.w3.org/2000/svg" xmlns:xlink="http://www.w3.org/1999/xlink" version="1.1" viewBox="-10 0 1010 1000">
   <path fill="currentColor"
d="M484 355h-123c-78 0 -96 -19 -96 -87v-223h69v111c63 -20 131 -46 172 -70l40 51c-60 27 -143 54 -212 73v58c0 23 5 27 34 27h108c25 0 30 -10 33 -71c14 11 41 20 60 24c-6 84 -26 107 -85 107zM229 317l-66 28c-19 -61 -67 -156 -111 -230l63 -22
c44 70 94 164 114 224zM150 536l64 27c-29 111 -71 242 -104 335l-69 -25c33 -82 79 -218 109 -337zM423 713l2 -2c46 37 99 90 122 125l-50 46c-20 -29 -57 -71 -94 -106c-26 64 -72 129 -155 183c-10 -14 -31 -35 -46 -46c103 -62 144 -146 159 -220h-129v-66h137
c1 -13 1 -25 1 -37v-85h-51c-14 40 -31 76 -48 105c-12 -9 -38 -27 -54 -35c37 -56 62 -139 76 -220l63 13c-4 25 -11 51 -18 75h210v62h-113v86c0 12 0 23 -1 36h126v66h-133c-1 7 -3 13 -4 20zM866 881h97c-9 16 -18 46 -21 64h-79c-99 0 -180 -29 -231 -165
c-16 72 -43 132 -86 176c-8 -14 -28 -35 -43 -44c80 -80 95 -223 100 -389h57c-2 53 -5 103 -10 150c18 82 45 133 79 163v-394h-156v-65h248c-42 -42 -126 -101 -196 -140l41 -43c26 13 54 29 82 46c31 -30 65 -68 90 -104h-249v-63h296l14 -4l44 32
c-37 60 -91 125 -143 175c26 18 51 37 67 53l-42 48h80l10 -2l42 10c-11 55 -27 119 -41 160l-50 -14c6 -23 14 -56 20 -89h-94v169h150v62h-150v198c24 8 49 10 74 10z" />
</svg>
