<?xml version="1.0" standalone="no"?>
<!DOCTYPE svg PUBLIC "-//W3C//DTD SVG 1.1//EN" "http://www.w3.org/Graphics/SVG/1.1/DTD/svg11.dtd" >
<svg xmlns="http://www.w3.org/2000/svg" xmlns:xlink="http://www.w3.org/1999/xlink" version="1.1" viewBox="-10 0 1010 1000">
   <path fill="currentColor"
d="M652 286l45 17c-27 128 -73 235 -132 326c60 59 113 116 146 165l-54 53c-30 -46 -79 -103 -135 -160c-71 88 -154 154 -244 198c-9 -18 -28 -45 -43 -58c86 -38 168 -104 237 -190c-56 -53 -116 -105 -172 -150l49 -46c53 42 110 89 164 138c42 -65 77 -140 100 -222
h-315v-68h342zM153 93h687c-2 360 0 773 58 773c12 0 18 -66 20 -152c13 20 31 42 45 54c-8 127 -22 178 -73 178c-122 0 -121 -362 -123 -784h-541v185c0 176 -16 437 -123 613c-14 -14 -45 -35 -64 -42c104 -169 114 -403 114 -571v-254z" />
</svg>
