<?xml version="1.0" standalone="no"?>
<!DOCTYPE svg PUBLIC "-//W3C//DTD SVG 1.1//EN" "http://www.w3.org/Graphics/SVG/1.1/DTD/svg11.dtd" >
<svg xmlns="http://www.w3.org/2000/svg" xmlns:xlink="http://www.w3.org/1999/xlink" version="1.1" viewBox="-10 0 1010 1000">
   <path fill="currentColor"
d="M599 179v132c0 136 -17 331 -110 465c-13 -13 -43 -34 -60 -40c90 -126 101 -300 101 -426v-196h271v563c0 29 2 33 17 33h40c14 0 17 -17 19 -90c14 11 38 19 56 24c-5 91 -22 118 -68 118h-59c-59 0 -72 -20 -72 -87v-496h-135zM371 278h-146c-8 29 -15 58 -23 86
c21 102 51 184 85 250c40 -93 69 -206 84 -336zM767 865h196c-11 17 -24 51 -28 72h-172c-182 0 -346 -35 -465 -186c-54 90 -123 157 -202 208c-11 -18 -31 -45 -46 -59c81 -47 149 -118 203 -215c-35 -59 -64 -131 -88 -218c-21 56 -48 106 -77 149
c-11 -14 -40 -42 -57 -54c88 -120 136 -313 162 -518l73 10c-7 54 -16 108 -27 159h150l14 -2l44 9c-18 194 -56 347 -114 466c112 148 267 179 434 179z" />
</svg>
