<?xml version="1.0" standalone="no"?>
<!DOCTYPE svg PUBLIC "-//W3C//DTD SVG 1.1//EN" "http://www.w3.org/Graphics/SVG/1.1/DTD/svg11.dtd" >
<svg xmlns="http://www.w3.org/2000/svg" xmlns:xlink="http://www.w3.org/1999/xlink" version="1.1" viewBox="-10 0 1010 1000">
   <path fill="currentColor"
d="M541 524v288h235v70h-576v-70h107v-453h66v453h100v-603h68v247h177v68h-177zM158 98h682c-2 361 2 780 61 780c13 0 19 -66 20 -154c13 20 32 41 45 53c-7 128 -22 179 -72 179c-123 0 -122 -365 -125 -790h-540v194c0 174 -16 425 -131 596c-13 -12 -42 -34 -60 -41
c109 -163 120 -390 120 -555v-262z" />
</svg>
