<?xml version="1.0" standalone="no"?>
<!DOCTYPE svg PUBLIC "-//W3C//DTD SVG 1.1//EN" "http://www.w3.org/Graphics/SVG/1.1/DTD/svg11.dtd" >
<svg xmlns="http://www.w3.org/2000/svg" xmlns:xlink="http://www.w3.org/1999/xlink" version="1.1" viewBox="-10 0 1010 1000">
   <path fill="currentColor"
d="M251 428h671s-1 20 -2 30c-11 158 -20 221 -43 245c-15 17 -31 24 -55 25c-21 3 -60 3 -99 0c-1 -20 -9 -48 -19 -66c37 4 70 4 84 4c13 1 21 -1 28 -9c12 -12 20 -55 28 -161h-667v-364h209c16 -29 32 -64 41 -89l80 14c-14 26 -29 51 -44 75h343v28
c-5 118 -11 166 -27 185c-14 15 -30 21 -54 23c-21 1 -60 1 -101 -1c-1 -17 -7 -41 -16 -57c36 4 71 4 82 4c13 0 20 -1 27 -8c7 -10 11 -38 15 -106h-481v228zM570 323l-34 55c-44 -30 -130 -67 -198 -90l32 -49c68 20 156 55 200 84zM704 869h95c22 0 45 0 57 -3
c13 -2 23 -8 28 -20c4 -13 7 -43 8 -82c16 13 43 26 65 32c-2 39 -7 81 -17 99c-10 16 -26 27 -51 32c-20 5 -61 7 -87 7h-108c-33 0 -72 -4 -94 -16c-24 -12 -36 -30 -36 -91v-191h-225v40c0 105 -45 214 -242 279c-10 -16 -39 -46 -55 -57c188 -59 221 -144 221 -225v-103
h376v259c0 22 4 33 17 37c11 3 28 3 48 3z" />
</svg>
