<?xml version="1.0" standalone="no"?>
<!DOCTYPE svg PUBLIC "-//W3C//DTD SVG 1.1//EN" "http://www.w3.org/Graphics/SVG/1.1/DTD/svg11.dtd" >
<svg xmlns="http://www.w3.org/2000/svg" xmlns:xlink="http://www.w3.org/1999/xlink" version="1.1" viewBox="-10 0 1010 1000">
   <path fill="currentColor"
d="M234 685l195 -82c2 19 8 49 13 64c-237 107 -269 125 -289 142c-6 -17 -22 -50 -35 -65c18 -10 44 -33 44 -73v-272l-118 25l-13 -67l131 -28v-246h72v231l188 -40l13 67l-201 43v301zM421 131h515s0 31 -1 41c-14 507 -25 676 -65 728c-22 29 -43 39 -77 43
c-33 3 -88 2 -141 0c-1 -23 -10 -55 -23 -76c58 5 111 5 133 5c19 0 29 -3 40 -18c32 -36 46 -202 59 -652h-206c-7 310 -29 600 -288 753c-11 -19 -35 -46 -55 -58c248 -137 264 -408 270 -695h-161v-71z" />
</svg>
