<?xml version="1.0" standalone="no"?>
<!DOCTYPE svg PUBLIC "-//W3C//DTD SVG 1.1//EN" "http://www.w3.org/Graphics/SVG/1.1/DTD/svg11.dtd" >
<svg xmlns="http://www.w3.org/2000/svg" xmlns:xlink="http://www.w3.org/1999/xlink" version="1.1" viewBox="-10 0 1010 1000">
   <path fill="currentColor"
d="M707 242h-357c-44 54 -95 108 -154 157h403c38 -44 79 -104 108 -157zM687 399h205v560h-77v-70h-687v-73h687v-133h-623v-72h623v-139h-639v-56c-23 19 -47 36 -72 53c-10 -18 -34 -45 -51 -58c164 -105 278 -252 338 -369l84 16c-21 38 -45 76 -72 114h348l14 -3l53 35
c-32 63 -82 136 -131 195z" />
</svg>
