<?xml version="1.0" standalone="no"?>
<!DOCTYPE svg PUBLIC "-//W3C//DTD SVG 1.1//EN" "http://www.w3.org/Graphics/SVG/1.1/DTD/svg11.dtd" >
<svg xmlns="http://www.w3.org/2000/svg" xmlns:xlink="http://www.w3.org/1999/xlink" version="1.1" viewBox="-10 0 1010 1000">
   <path fill="currentColor"
d="M500 116v69h-402v-69h402zM421 790l143 -54c0 20 4 47 8 62c-190 79 -219 92 -236 106c-7 -17 -25 -49 -37 -65c20 -10 54 -38 54 -79v-325h-106c-11 213 -37 409 -165 523c-11 -17 -33 -40 -51 -51c116 -100 137 -280 144 -472h-128v-69h507v69h-133v355zM684 164v550
h-73v-550h73zM836 63h73v794c0 50 -14 72 -45 84c-32 13 -88 15 -179 14c-4 -20 -16 -54 -28 -74c71 2 134 1 153 1c19 -1 26 -7 26 -25v-794z" />
</svg>
