<?xml version="1.0" standalone="no"?>
<!DOCTYPE svg PUBLIC "-//W3C//DTD SVG 1.1//EN" "http://www.w3.org/Graphics/SVG/1.1/DTD/svg11.dtd" >
<svg xmlns="http://www.w3.org/2000/svg" xmlns:xlink="http://www.w3.org/1999/xlink" version="1.1" viewBox="-10 0 1010 1000">
   <path fill="currentColor"
d="M375 177l-66 31h254v69h-87c-23 124 -55 234 -96 330c60 70 113 139 146 194l-58 53c-28 -50 -72 -111 -123 -176c-62 115 -142 207 -248 279c-10 -15 -36 -43 -52 -57c111 -69 192 -163 251 -280c-64 -75 -133 -150 -198 -213l50 -43c59 55 121 120 179 184
c32 -81 57 -171 75 -271h-352v-69h257c-14 -36 -43 -94 -69 -137l66 -28c25 42 57 99 71 134zM700 159v544h-72v-544h72zM838 62h73v799c0 49 -12 69 -42 82c-31 12 -81 14 -164 14c-4 -21 -15 -53 -26 -74c61 1 119 1 136 1c16 -1 23 -6 23 -23v-799z" />
</svg>
