<?xml version="1.0" standalone="no"?>
<!DOCTYPE svg PUBLIC "-//W3C//DTD SVG 1.1//EN" "http://www.w3.org/Graphics/SVG/1.1/DTD/svg11.dtd" >
<svg xmlns="http://www.w3.org/2000/svg" xmlns:xlink="http://www.w3.org/1999/xlink" version="1.1" viewBox="-10 0 1010 1000">
   <path fill="currentColor"
d="M484 734l-55 30c-18 -51 -45 -113 -77 -180c-40 95 -84 180 -131 250c-12 -10 -40 -27 -55 -35c56 -77 106 -177 150 -286c-42 -81 -88 -163 -131 -233l52 -26c35 57 73 120 107 184c27 -75 52 -155 71 -233l61 12c-26 100 -59 199 -94 292c43 83 79 162 102 225zM585 93
v757c0 42 -10 61 -38 73c-28 11 -73 12 -148 12c-4 -18 -15 -47 -25 -65c56 2 107 2 121 1c16 0 22 -6 22 -22v-690h-358v794h-69v-860h495zM750 151v555h-67v-555h67zM848 62h68v799c0 45 -12 65 -39 77c-28 11 -75 13 -157 13c-3 -19 -13 -48 -23 -68c60 2 113 1 128 1
c16 -1 23 -6 23 -23v-799z" />
</svg>
