<?xml version="1.0" standalone="no"?>
<!DOCTYPE svg PUBLIC "-//W3C//DTD SVG 1.1//EN" "http://www.w3.org/Graphics/SVG/1.1/DTD/svg11.dtd" >
<svg xmlns="http://www.w3.org/2000/svg" xmlns:xlink="http://www.w3.org/1999/xlink" version="1.1" viewBox="-10 0 1010 1000">
   <path fill="currentColor"
d="M63 112h522v69h-522v-69zM179 538v144h275v-144h-275zM179 337v141h275v-141h-275zM107 273h421v473h-421v-473zM42 855c138 -14 355 -37 557 -61v68c-196 25 -405 49 -548 65zM835 69h73v777c0 45 -11 67 -39 79c-28 13 -74 15 -151 15c-3 -20 -14 -53 -24 -74
c55 1 105 1 119 1c16 -1 22 -5 22 -21v-777zM661 130h72v593h-72v-593z" />
</svg>
