<?xml version="1.0" standalone="no"?>
<!DOCTYPE svg PUBLIC "-//W3C//DTD SVG 1.1//EN" "http://www.w3.org/Graphics/SVG/1.1/DTD/svg11.dtd" >
<svg xmlns="http://www.w3.org/2000/svg" xmlns:xlink="http://www.w3.org/1999/xlink" version="1.1" viewBox="-10 0 1010 1000">
   <path fill="currentColor"
d="M209 515h99v-208h-98v133c0 23 0 49 -1 75zM453 583h-80v367h-65v-367h-103c-10 125 -36 260 -106 362c-11 -13 -37 -36 -52 -44c62 -91 84 -207 92 -318h-92v-68h96c1 -25 1 -51 1 -75v-133h-79v-68h79v-185h66v185h98v-181h65v181h63v68h-63v208h80v68zM495 269l54 7
c-2 74 -18 175 -44 238l-54 -21c24 -57 39 -152 44 -224zM465 113h382s0 30 -1 39c-16 518 -29 682 -64 733c-18 27 -36 36 -64 40c-25 3 -61 2 -98 0c-1 -20 -8 -50 -20 -70c39 3 72 4 90 4c13 0 22 -3 31 -18c27 -37 42 -200 56 -658h-102c-6 259 -26 580 -205 757
c-12 -15 -35 -34 -53 -45c171 -159 185 -472 190 -712h-142v-70zM857 315l53 -13c27 97 49 220 55 292l-57 17c-5 -73 -26 -200 -51 -296z" />
</svg>
