<?xml version="1.0" standalone="no"?>
<!DOCTYPE svg PUBLIC "-//W3C//DTD SVG 1.1//EN" "http://www.w3.org/Graphics/SVG/1.1/DTD/svg11.dtd" >
<svg xmlns="http://www.w3.org/2000/svg" xmlns:xlink="http://www.w3.org/1999/xlink" version="1.1" viewBox="-10 0 1010 1000">
   <path fill="currentColor"
d="M381 155h-112c-13 156 -48 283 -165 357c-9 -17 -30 -42 -46 -53c102 -62 130 -171 140 -304h-119v-66h385c-11 47 -25 101 -37 148h154l-3 30c-11 123 -22 176 -42 197c-14 15 -29 21 -53 22c-19 2 -57 2 -98 0c-1 -19 -6 -46 -17 -63c38 3 72 4 85 4c14 0 22 -2 29 -8
c10 -11 18 -44 25 -120h-167c14 -39 29 -93 41 -144zM357 448v109h234v66h-228c76 57 169 133 214 183l-49 47c-37 -43 -105 -105 -171 -158v262h-72v-259c-57 79 -130 152 -199 196c-11 -18 -33 -43 -49 -57c79 -43 167 -127 223 -214h-200v-66h225v-109h72zM726 154v548
h-66v-548h66zM848 48h68v811c0 47 -12 67 -39 80c-28 12 -74 15 -150 14c-4 -20 -14 -52 -24 -73c57 2 108 2 123 1s22 -6 22 -22v-811z" />
</svg>
