<?xml version="1.0" standalone="no"?>
<!DOCTYPE svg PUBLIC "-//W3C//DTD SVG 1.1//EN" "http://www.w3.org/Graphics/SVG/1.1/DTD/svg11.dtd" >
<svg xmlns="http://www.w3.org/2000/svg" xmlns:xlink="http://www.w3.org/1999/xlink" version="1.1" viewBox="-10 0 1010 1000">
   <path fill="currentColor"
d="M546 345l-49 51c-39 -33 -96 -71 -160 -110c-75 56 -158 102 -239 138c-10 -14 -33 -42 -47 -56c78 -29 157 -69 227 -117c-64 -37 -130 -72 -190 -100l45 -43c63 28 133 64 200 101c54 -43 101 -91 137 -144l62 25c-38 56 -86 107 -140 153c61 35 116 71 154 102z
M180 603l55 30c-30 79 -88 178 -137 237c-14 -16 -36 -38 -54 -50c50 -49 108 -142 136 -217zM562 541h-208v332c0 36 -8 54 -33 65c-23 11 -58 13 -114 12c-3 -18 -14 -45 -23 -63c38 1 73 0 83 0c11 0 15 -3 15 -14v-332h-216v-65h216v-110h72v110h208v65zM393 625l57 -25
c49 68 102 160 123 217l-60 30c-21 -59 -73 -153 -120 -222zM706 156v548h-71v-548h71zM836 62l73 1v802c0 45 -12 65 -39 77c-28 12 -74 14 -152 13c-3 -19 -13 -49 -23 -69c54 2 105 2 119 1c16 -1 22 -6 22 -22v-803z" />
</svg>
