<?xml version="1.0" standalone="no"?>
<!DOCTYPE svg PUBLIC "-//W3C//DTD SVG 1.1//EN" "http://www.w3.org/Graphics/SVG/1.1/DTD/svg11.dtd" >
<svg xmlns="http://www.w3.org/2000/svg" xmlns:xlink="http://www.w3.org/1999/xlink" version="1.1" viewBox="-10 0 1010 1000">
   <path fill="currentColor"
d="M575 90v68h-521v-68h521zM147 181l64 16c-24 47 -56 105 -83 150c36 53 74 115 93 156l-61 25c-19 -48 -58 -117 -102 -180c34 -55 71 -123 89 -167zM381 498l-59 25c-20 -47 -61 -116 -107 -177c35 -54 73 -121 93 -164l64 16c-25 46 -58 102 -88 147
c40 52 79 112 97 153zM548 500l-60 26c-21 -47 -65 -117 -115 -178c36 -56 76 -123 97 -167l63 16c-24 48 -59 104 -89 149c41 52 83 113 104 154zM350 813l231 -24l1 69c-190 22 -393 42 -529 56l-10 -72c64 -5 146 -13 235 -22v-204h-200v-66h473v66h-201v197zM689 163
v550h-70v-550h70zM842 63h72v795c0 50 -13 72 -44 85c-31 12 -84 14 -173 13c-3 -19 -15 -53 -26 -74c68 3 127 2 146 1c17 0 25 -6 25 -24v-796z" />
</svg>
