<?xml version="1.0" standalone="no"?>
<!DOCTYPE svg PUBLIC "-//W3C//DTD SVG 1.1//EN" "http://www.w3.org/Graphics/SVG/1.1/DTD/svg11.dtd" >
<svg xmlns="http://www.w3.org/2000/svg" xmlns:xlink="http://www.w3.org/1999/xlink" version="1.1" viewBox="-10 0 1010 1000">
   <path fill="currentColor"
d="M253 208l-65 28c-14 -40 -46 -108 -72 -160l62 -23c28 50 62 116 75 155zM231 485h107v-174h-107v174zM497 553h-88v392h-71v-392h-108c-5 124 -30 277 -122 388c-11 -14 -38 -38 -54 -46c82 -100 102 -231 106 -342h-112v-68h113v-174h-89v-68h241
c24 -54 55 -138 69 -196l73 29c-24 54 -50 118 -74 167h107v68h-79v174h88v68zM533 628l-54 -21c36 -68 55 -185 62 -277l53 7c-5 94 -25 216 -61 291zM917 111v40c-12 514 -21 678 -55 727c-18 29 -38 38 -66 42c-29 3 -72 2 -115 0c-1 -22 -8 -52 -21 -73c44 4 85 4 103 4
c16 0 25 -3 35 -18c25 -35 36 -195 47 -652h-112c-7 266 -29 584 -236 754c-11 -15 -33 -36 -51 -47c197 -154 213 -460 218 -707h-157v-70h410z" />
</svg>
