<?xml version="1.0" standalone="no"?>
<!DOCTYPE svg PUBLIC "-//W3C//DTD SVG 1.1//EN" "http://www.w3.org/Graphics/SVG/1.1/DTD/svg11.dtd" >
<svg xmlns="http://www.w3.org/2000/svg" xmlns:xlink="http://www.w3.org/1999/xlink" version="1.1" viewBox="-10 0 1010 1000">
   <path fill="currentColor"
d="M574 164v68h-498v-68h225c-11 -33 -27 -74 -42 -106l63 -17c21 38 42 89 53 123h199zM277 405l-69 19c-8 -45 -34 -115 -60 -168l65 -16c28 51 53 120 64 165zM464 655h-273v181h273v-181zM118 950v-362h420v354h-74v-40h-273v48h-73zM441 238l76 16
c-23 58 -49 124 -74 176h158v69h-554v-69h323c26 -56 56 -136 71 -192zM724 155v555h-70v-555h70zM834 63h69v798c0 46 -11 66 -38 79c-29 12 -76 14 -155 13c-3 -20 -13 -50 -24 -70c58 1 110 1 124 0c17 0 24 -5 24 -22v-798z" />
</svg>
