<?xml version="1.0" standalone="no"?>
<!DOCTYPE svg PUBLIC "-//W3C//DTD SVG 1.1//EN" "http://www.w3.org/Graphics/SVG/1.1/DTD/svg11.dtd" >
<svg xmlns="http://www.w3.org/2000/svg" xmlns:xlink="http://www.w3.org/1999/xlink" version="1.1" viewBox="-10 0 1010 1000">
   <path fill="currentColor"
d="M217 282h212c10 -38 20 -74 27 -105h-204c-11 37 -23 73 -35 105zM615 484h-227v388c0 42 -9 62 -39 73s-80 12 -155 12c-4 -20 -15 -49 -25 -68c60 2 114 2 130 1s21 -5 21 -19v-145c-82 44 -170 90 -237 125l-34 -60c67 -29 170 -79 269 -127l2 8v-188h-268v-66h340
c7 -23 14 -49 21 -74h-231l-62 -1c30 -78 72 -204 98 -300l72 11c-6 20 -12 40 -19 62h205l12 -4l51 10c-17 86 -47 199 -75 296h151v66zM110 545l54 -30c35 41 77 96 93 132l-57 34c-16 -37 -55 -95 -90 -136zM484 669l-43 -35c29 -33 72 -90 93 -129l56 42
c-34 43 -74 91 -106 122zM401 720l42 -41c65 40 146 101 186 142l-44 47c-38 -42 -119 -106 -184 -148zM724 154v548h-68v-548h68zM845 48h71v809c0 48 -12 69 -40 82c-30 12 -79 15 -161 14c-3 -20 -14 -52 -24 -73c61 2 114 2 130 1c17 -1 24 -6 24 -23v-810z" />
</svg>
