<?xml version="1.0" standalone="no"?>
<!DOCTYPE svg PUBLIC "-//W3C//DTD SVG 1.1//EN" "http://www.w3.org/Graphics/SVG/1.1/DTD/svg11.dtd" >
<svg xmlns="http://www.w3.org/2000/svg" xmlns:xlink="http://www.w3.org/1999/xlink" version="1.1" viewBox="-10 0 1010 1000">
   <path fill="currentColor"
d="M344 232l39 -45c35 21 72 46 107 72c18 -34 32 -72 43 -114h-187v-63h211l13 -1l40 13c-15 81 -39 149 -69 206c31 26 58 53 77 76l-41 51c-17 -22 -41 -47 -70 -72c-39 55 -86 97 -139 127c-9 -15 -34 -39 -48 -49c53 -28 100 -68 137 -120c-36 -30 -76 -58 -113 -81z
M323 362l-42 50c-14 -18 -34 -40 -57 -61c-36 58 -80 103 -129 136c-10 -15 -33 -38 -48 -48c50 -31 94 -74 128 -131c-33 -27 -69 -54 -103 -76l38 -44c31 19 63 42 95 65c14 -32 27 -69 36 -108h-179v-63h203l12 -1l39 14c-14 76 -35 143 -61 199c27 24 51 47 68 68z
M321 809l-44 48c-13 -18 -30 -38 -51 -59c-38 69 -85 121 -140 157c-8 -14 -33 -38 -48 -48c56 -35 103 -86 139 -154c-36 -32 -76 -63 -114 -88l40 -43c33 21 68 46 101 72c14 -35 26 -74 34 -116h-179v-63h202l13 -1l38 12c-12 81 -32 152 -57 212c27 25 50 49 66 71z
M569 514l40 14c-14 81 -36 151 -65 211c33 29 60 57 79 83l-45 50c-16 -23 -39 -48 -66 -74c-42 66 -93 116 -151 151c-10 -13 -34 -39 -48 -49c58 -33 110 -82 150 -147c-38 -32 -79 -63 -118 -88l41 -43c35 21 72 47 107 74c16 -35 30 -75 40 -118h-192v-63h216zM721 158
v549h-68v-549h68zM845 63h70v800c0 46 -11 67 -40 80c-28 11 -75 13 -155 13c-2 -19 -13 -52 -23 -72c58 2 110 2 124 1c17 -1 24 -6 24 -22v-800z" />
</svg>
