<?xml version="1.0" standalone="no"?>
<!DOCTYPE svg PUBLIC "-//W3C//DTD SVG 1.1//EN" "http://www.w3.org/Graphics/SVG/1.1/DTD/svg11.dtd" >
<svg xmlns="http://www.w3.org/2000/svg" xmlns:xlink="http://www.w3.org/1999/xlink" version="1.1" viewBox="-10 0 1010 1000">
   <path fill="currentColor"
d="M874 651l-3 31c-16 153 -32 217 -59 243c-20 19 -39 24 -72 26c-29 1 -87 1 -147 -3c-2 -20 -10 -46 -22 -65c60 7 120 7 141 7s32 -1 41 -9c18 -15 31 -62 43 -169h-309c-39 136 -135 210 -399 248c-6 -18 -23 -48 -35 -63c238 -28 323 -83 357 -185h-323v-61h787z
M201 467h218v-60h-218v60zM419 303h-218v59h218v-59zM482 254v294c0 30 -6 42 -27 51c-20 9 -54 9 -100 9c-3 -16 -11 -34 -18 -48c33 1 60 1 70 1c10 -1 12 -4 12 -13v-36h-218v95h-63v-353h344zM595 266h65v255h-65v-255zM852 239v309c0 34 -7 47 -32 56
c-23 9 -61 9 -117 9c-4 -17 -12 -37 -20 -53c41 2 77 2 88 1c12 -1 15 -4 15 -14v-308h66zM698 143h236v59h-866v-59h226c-13 -26 -35 -61 -56 -86l67 -17c24 28 51 66 62 92l-38 11h293c22 -31 49 -73 62 -102l74 16c-19 30 -40 61 -60 86z" />
</svg>
