<?xml version="1.0" standalone="no"?>
<!DOCTYPE svg PUBLIC "-//W3C//DTD SVG 1.1//EN" "http://www.w3.org/Graphics/SVG/1.1/DTD/svg11.dtd" >
<svg xmlns="http://www.w3.org/2000/svg" xmlns:xlink="http://www.w3.org/1999/xlink" version="1.1" viewBox="-10 0 1010 1000">
   <path fill="currentColor"
d="M519 157h-363v104h363v-104zM156 323v44c0 161 -9 409 -68 579c-11 -13 -39 -34 -55 -41c53 -162 57 -384 57 -538v-273h498v229h-432zM513 606l-93 7v87h159v61h-159v89c58 -4 120 -8 180 -13l-1 57c-155 16 -317 30 -436 40l-17 -66c55 -3 125 -8 201 -13v-94h-169v-61
h169v-80c-110 9 -131 12 -146 18c-3 -13 -13 -45 -21 -61c13 -3 27 -14 43 -31c11 -12 41 -48 68 -91h-124v-61h428v61h-228c-27 40 -57 79 -88 112l197 -14c-14 -19 -29 -37 -43 -54l51 -29c44 48 94 114 117 157l-56 34c-8 -16 -19 -35 -32 -55zM729 162v548h-66v-548h66z
M845 64h68v795c0 44 -11 65 -38 76c-29 13 -76 15 -154 15c-3 -20 -13 -51 -24 -71c59 2 110 2 127 1c14 -1 21 -6 21 -21v-795z" />
</svg>
