<?xml version="1.0" standalone="no"?>
<!DOCTYPE svg PUBLIC "-//W3C//DTD SVG 1.1//EN" "http://www.w3.org/Graphics/SVG/1.1/DTD/svg11.dtd" >
<svg xmlns="http://www.w3.org/2000/svg" xmlns:xlink="http://www.w3.org/1999/xlink" version="1.1" viewBox="-10 0 1010 1000">
   <path fill="currentColor"
d="M217 301v137h109v-137h-109zM473 148h-256v93h165v197h91v-290zM539 438h65v434c0 38 -7 58 -32 70c-26 11 -68 12 -134 12c-1 -20 -10 -47 -19 -66c49 2 91 1 103 1c13 -1 17 -5 17 -17v-369h-397v453h-64v-518h76v-356h385v356zM410 756v-131h-137v131h137zM466 570
v242h-247v-242h247zM747 154v548h-69v-548h69zM843 48l71 1v809c0 47 -12 69 -40 81c-30 12 -79 15 -160 14c-4 -19 -15 -52 -25 -72c61 2 115 2 130 1c17 -1 24 -6 24 -23v-811z" />
</svg>
