<?xml version="1.0" standalone="no"?>
<!DOCTYPE svg PUBLIC "-//W3C//DTD SVG 1.1//EN" "http://www.w3.org/Graphics/SVG/1.1/DTD/svg11.dtd" >
<svg xmlns="http://www.w3.org/2000/svg" xmlns:xlink="http://www.w3.org/1999/xlink" version="1.1" viewBox="-10 0 1010 1000">
   <path fill="currentColor"
d="M467 399h-263v59v5h263v-64zM198 578h269v-66h-264c-1 21 -2 44 -5 66zM531 632h-339c-15 101 -45 206 -106 286c-12 -14 -38 -35 -54 -44c96 -123 110 -296 110 -418v-111h389v287zM270 227l51 -23c25 30 58 74 75 103l-54 27c-15 -28 -47 -73 -72 -107zM470 743h-209
v101h209v-101zM198 951v-266h339v264h-67v-47h-209v49h-63zM322 45l60 23c-7 11 -14 23 -21 35c78 47 173 110 222 150l-40 52c-48 -41 -140 -104 -218 -154c-67 84 -156 157 -246 207c-6 -15 -26 -46 -38 -61c111 -57 221 -147 281 -252zM711 154v548h-69v-548h69zM834 48
h72v809c0 48 -13 69 -41 82c-29 12 -78 15 -160 14c-3 -20 -14 -52 -24 -73c60 2 114 2 130 1c17 -1 23 -6 23 -23v-810z" />
</svg>
