<?xml version="1.0" standalone="no"?>
<!DOCTYPE svg PUBLIC "-//W3C//DTD SVG 1.1//EN" "http://www.w3.org/Graphics/SVG/1.1/DTD/svg11.dtd" >
<svg xmlns="http://www.w3.org/2000/svg" xmlns:xlink="http://www.w3.org/1999/xlink" version="1.1" viewBox="-10 0 1010 1000">
   <path fill="currentColor"
d="M220 236h212c7 -27 15 -53 21 -76h-207c-9 26 -18 53 -26 76zM540 472l51 42c-44 39 -99 79 -146 110c64 50 136 119 170 168l-49 40c-24 -32 -63 -77 -106 -118c14 89 -4 168 -42 202c-27 25 -52 32 -90 33c-18 0 -42 -1 -67 -2c-1 -18 -6 -45 -17 -64c28 3 53 4 71 4
c21 0 38 -2 53 -19c27 -24 39 -90 23 -165c-78 78 -196 155 -297 199c-8 -17 -23 -41 -37 -54c112 -40 246 -125 316 -207c-8 -18 -17 -38 -29 -57c-67 56 -164 114 -241 147c-8 -15 -23 -38 -36 -51c80 -28 184 -85 248 -139c-15 -16 -31 -33 -48 -49
c-51 35 -107 64 -160 86c-8 -12 -27 -39 -39 -50c73 -27 152 -67 210 -114h-220v-60h336c7 -21 14 -42 21 -64h-287c27 -65 61 -168 84 -247l68 9c-4 17 -10 35 -16 53h210l13 -4l49 11c-18 72 -46 164 -70 242h145v60h-249c-16 15 -32 29 -49 44c43 36 76 78 101 122
c44 -32 96 -76 126 -108zM720 154v548h-70v-548h70zM845 58h71v797c0 47 -12 68 -40 80c-30 12 -79 14 -160 14c-4 -20 -15 -51 -25 -72c60 2 115 2 131 1c16 0 23 -5 23 -23v-797z" />
</svg>
