<?xml version="1.0" standalone="no"?>
<!DOCTYPE svg PUBLIC "-//W3C//DTD SVG 1.1//EN" "http://www.w3.org/Graphics/SVG/1.1/DTD/svg11.dtd" >
<svg xmlns="http://www.w3.org/2000/svg" xmlns:xlink="http://www.w3.org/1999/xlink" version="1.1" viewBox="-10 0 1010 1000">
   <path fill="currentColor"
d="M618 134v60h-521v-60h243c-10 -24 -23 -51 -37 -73l67 -19c20 28 37 65 48 92h200zM437 720v116c62 -5 126 -9 190 -14l1 62c-166 13 -339 25 -458 34l-8 -64c57 -3 129 -8 209 -14v-120h-149v-57h149v-97h-110c-17 37 -36 71 -55 98c-11 -9 -33 -25 -48 -31
c42 -54 71 -132 89 -210l57 11c-6 25 -13 50 -22 74h89v-83h66v83h160v58h-160v97h147v57h-147zM483 201l72 23c-24 41 -51 85 -75 121h158v60h-484v105c0 125 -11 310 -70 441c-12 -11 -39 -31 -54 -38c54 -123 61 -289 61 -403v-165h160c-15 -34 -47 -88 -78 -128l60 -21
c31 38 67 91 81 126l-60 23h155c27 -42 57 -103 74 -144zM755 169v553h-69v-553h69zM842 44h71v820c0 45 -12 66 -39 79c-29 12 -76 14 -154 14c-3 -20 -14 -52 -24 -73c58 2 108 2 124 1c15 -1 22 -5 22 -21v-820z" />
</svg>
