<?xml version="1.0" standalone="no"?>
<!DOCTYPE svg PUBLIC "-//W3C//DTD SVG 1.1//EN" "http://www.w3.org/Graphics/SVG/1.1/DTD/svg11.dtd" >
<svg xmlns="http://www.w3.org/2000/svg" xmlns:xlink="http://www.w3.org/1999/xlink" version="1.1" viewBox="-10 0 1010 1000">
   <path fill="currentColor"
d="M365 500v63l120 -4c-15 -15 -31 -29 -46 -41l32 -18h-106zM166 452h130v-60h-130v60zM166 287v59h130v-59h-130zM497 287h-132v59h132v-59zM365 452h132v-60h-132v60zM622 620l-52 32c-8 -12 -19 -25 -32 -39l-88 4h17v69h154v59h-154v138c0 35 -7 53 -33 62
c-26 11 -65 11 -127 11c-4 -18 -14 -44 -23 -61c46 1 86 1 98 1c13 -1 16 -4 16 -15v-136h-212c41 33 84 76 104 107l-52 40c-22 -35 -68 -86 -110 -121l39 -26h-124v-59h355v-67c-126 6 -247 11 -338 15l-5 -62c65 -2 149 -4 241 -7v-65h-197v-261h197v-55h-233v-59h233
v-80h69v80h243v59h-243v55h202v261h-65c45 37 95 85 120 120zM720 163v550h-70v-550h70zM842 58h72v806c0 44 -11 66 -39 78c-27 13 -71 14 -144 14c-4 -19 -13 -52 -24 -72c53 2 100 1 114 0c15 0 21 -4 21 -20v-806z" />
</svg>
