<?xml version="1.0" standalone="no"?>
<!DOCTYPE svg PUBLIC "-//W3C//DTD SVG 1.1//EN" "http://www.w3.org/Graphics/SVG/1.1/DTD/svg11.dtd" >
<svg xmlns="http://www.w3.org/2000/svg" xmlns:xlink="http://www.w3.org/1999/xlink" version="1.1" viewBox="-10 0 1010 1000">
   <path fill="currentColor"
d="M371 396l-18 -54c43 -21 110 -56 175 -90v-115h-161v-58h222v337h-61v-111c-56 34 -112 66 -157 91zM495 227l-30 43c-21 -23 -62 -55 -95 -74l28 -39c32 16 74 46 97 70zM485 721l58 26c-82 102 -234 174 -399 215c-9 -15 -24 -36 -38 -48c158 -35 306 -103 379 -193z
M353 538l57 23c-65 62 -167 116 -260 149c-9 -12 -25 -31 -40 -41c86 -29 188 -78 243 -131zM426 623l56 26c-73 76 -198 139 -317 176c-10 -14 -26 -32 -40 -45c113 -31 237 -90 301 -157zM333 392l69 17c-8 8 -16 17 -24 24c95 39 193 89 244 126l-32 55
c-54 -41 -161 -100 -258 -141c-73 56 -165 107 -256 143c-4 -12 -22 -41 -34 -52c101 -37 206 -93 274 -155h-60v-100c-61 35 -123 70 -172 98l-18 -58c48 -23 119 -59 190 -96v-116h-184v-58h245v329c6 -5 11 -11 16 -16zM208 227l-31 44c-19 -23 -58 -56 -90 -75l31 -40
c30 16 69 48 90 71zM736 159v555h-70v-555h70zM850 49h70v811c0 44 -12 64 -39 75c-28 12 -73 13 -147 13c-4 -19 -14 -48 -24 -68c54 3 104 2 118 2c16 -1 22 -6 22 -22v-811z" />
</svg>
