<?xml version="1.0" standalone="no"?>
<!DOCTYPE svg PUBLIC "-//W3C//DTD SVG 1.1//EN" "http://www.w3.org/Graphics/SVG/1.1/DTD/svg11.dtd" >
<svg xmlns="http://www.w3.org/2000/svg" xmlns:xlink="http://www.w3.org/1999/xlink" version="1.1" viewBox="-10 0 1010 1000">
   <path fill="currentColor"
d="M160 579v95h92v-95h-92zM401 579h-91v95h91v-95zM148 141v110h91v-110h-91zM293 141v110h96v-110h-96zM443 141v110h98v-110h-98zM603 379v32c-7 363 -12 478 -34 512c-14 22 -31 28 -55 31c-22 3 -57 3 -93 0c0 -16 -7 -42 -16 -58c33 3 64 3 78 3c13 0 20 -1 27 -13
c15 -24 21 -131 26 -448h-355c-22 33 -46 64 -71 91h142v-70h58v70h148v195h-148v85l76 -7c-10 -17 -21 -35 -31 -50l47 -17c28 39 60 92 73 125l-49 22c-3 -9 -8 -19 -13 -31c-123 15 -246 29 -338 39l-9 -59c50 -4 115 -10 186 -16v-91h-148v-189c-9 9 -17 18 -26 26
c-11 -11 -36 -35 -51 -46c62 -52 118 -127 155 -207h-93v-223h513v223h-349c-10 24 -22 48 -35 71h385zM734 161v549h-66v-549h66zM842 63h68v805c0 43 -10 64 -36 76c-26 11 -68 12 -138 12c-3 -18 -13 -50 -22 -68c50 1 95 1 108 1c14 -1 20 -5 20 -20v-806z" />
</svg>
