<?xml version="1.0" standalone="no"?>
<!DOCTYPE svg PUBLIC "-//W3C//DTD SVG 1.1//EN" "http://www.w3.org/Graphics/SVG/1.1/DTD/svg11.dtd" >
<svg xmlns="http://www.w3.org/2000/svg" xmlns:xlink="http://www.w3.org/1999/xlink" version="1.1" viewBox="-10 0 1010 1000">
   <path fill="currentColor"
d="M168 183v312c0 138 -10 329 -74 455c-11 -12 -39 -31 -54 -39c60 -118 65 -287 65 -416v-372h258c-8 -25 -19 -51 -29 -73l61 -14c13 27 27 61 36 87h212v60h-475zM549 642v-61h-66v61h66zM358 642h68v-61h-68v61zM358 466v62h68v-62h-68zM358 352v61h68v-61h-68z
M549 466h-66v62h66v-62zM603 413v115h58v53h-58v114h-102c49 46 106 110 137 158l-36 39c-26 -41 -73 -98 -119 -145v208h-57v-260h-68v260h-56v-188c-34 54 -77 106 -114 137c-10 -14 -27 -34 -40 -44c48 -35 108 -102 144 -165h-82v-53h92v-61h-116v-53h116v-62h-90v-53
h90v-61h-103v-57h102c-14 -28 -32 -60 -48 -88l50 -16c20 32 44 74 60 104h80c22 -33 46 -74 59 -102l57 17c-18 29 -37 59 -54 85h125v57h-147v61h120zM768 165v563h-64v-563h64zM843 49h67v809c0 42 -11 60 -35 71c-26 10 -68 13 -136 12c-3 -18 -11 -45 -21 -64
c48 2 93 2 106 1c14 -1 19 -5 19 -20v-809z" />
</svg>
