<?xml version="1.0" standalone="no"?>
<!DOCTYPE svg PUBLIC "-//W3C//DTD SVG 1.1//EN" "http://www.w3.org/Graphics/SVG/1.1/DTD/svg11.dtd" >
<svg xmlns="http://www.w3.org/2000/svg" xmlns:xlink="http://www.w3.org/1999/xlink" version="1.1" viewBox="-10 0 1010 1000">
   <path fill="currentColor"
d="M177 279v211c0 140 -11 336 -87 469c-11 -12 -40 -28 -55 -35c70 -127 78 -304 78 -434v-267h191v-178h70v62h223v55h-223v61h204l11 -3l43 11c-11 51 -28 108 -44 144l-54 -12c8 -23 17 -54 24 -84h-191v60l134 -14l6 45l-140 15v29c0 20 6 23 38 23h118
c23 0 28 -6 30 -51c13 8 33 14 49 17c-5 60 -22 77 -71 77h-132c-72 0 -91 -13 -91 -66v-22l-106 12l-6 -46l112 -13v-66h-131zM549 595l47 35c-20 18 -43 38 -65 56c29 41 97 145 115 172l-48 44c-19 -41 -74 -138 -105 -187c-10 7 -19 14 -28 20c30 84 14 167 -27 197
c-23 20 -42 25 -76 25c-17 0 -38 0 -60 -1c-1 -16 -7 -39 -17 -55c27 3 51 4 66 4c19 0 34 -1 46 -13c20 -13 31 -54 24 -103c-65 55 -161 110 -243 140c-6 -13 -20 -33 -31 -44c92 -26 203 -86 262 -144c-5 -12 -11 -26 -18 -39c-49 36 -119 74 -177 96
c-6 -13 -18 -31 -29 -41c60 -17 138 -53 183 -88c-9 -11 -19 -21 -29 -30c-39 18 -80 35 -118 47c-5 -11 -17 -29 -25 -39c59 -17 130 -47 179 -79h-174v-51h414v51h-169c-18 16 -39 31 -62 45c26 24 47 51 62 78c37 -30 78 -68 103 -96zM746 164v561h-68v-561h68zM842 75
h70v784c0 48 -11 69 -40 81c-31 13 -82 15 -156 14c-3 -20 -13 -53 -23 -74c57 2 111 2 128 1c16 0 21 -5 21 -21v-785z" />
</svg>
