<?xml version="1.0" standalone="no"?>
<!DOCTYPE svg PUBLIC "-//W3C//DTD SVG 1.1//EN" "http://www.w3.org/Graphics/SVG/1.1/DTD/svg11.dtd" >
<svg xmlns="http://www.w3.org/2000/svg" xmlns:xlink="http://www.w3.org/1999/xlink" version="1.1" viewBox="-10 0 1010 1000">
   <path fill="currentColor"
d="M664 257v60h-611v-60h104v-168h64v168h112v-209h67v74h194v58h-194v77h264zM365 637l52 10c-40 115 -126 229 -242 292c-7 -10 -22 -29 -32 -37c46 -24 87 -56 121 -93v-227h-95v-52h233v52h-86v160c22 -34 38 -70 49 -105zM195 632l48 12c-13 54 -36 119 -67 160
c-9 -7 -26 -18 -38 -24c28 -40 48 -100 57 -148zM576 516l60 13c-28 97 -68 184 -119 259c23 69 51 107 81 107c19 0 27 -38 30 -124c13 13 35 25 49 30c-9 119 -31 154 -85 154c-48 0 -87 -41 -117 -111c-36 44 -76 83 -119 115c-9 -12 -33 -34 -47 -45
c54 -36 102 -83 143 -137c-23 -81 -38 -186 -47 -304h-253v101c0 110 -12 271 -72 381c-12 -10 -40 -28 -53 -34c56 -105 63 -247 63 -347v-162h312c-1 -29 -2 -58 -3 -88h64c0 30 0 60 1 88h111c-18 -20 -48 -45 -74 -62l42 -29c30 18 65 46 82 66l-34 25h68v61h-192
c6 91 16 171 30 236c33 -58 60 -123 79 -193zM752 153v558h-61v-558h61zM853 59h63v815c0 39 -9 59 -33 70s-64 12 -129 12c-3 -16 -12 -46 -21 -64c47 2 88 2 101 1c14 -1 19 -5 19 -19v-815z" />
</svg>
