<?xml version="1.0" standalone="no"?>
<!DOCTYPE svg PUBLIC "-//W3C//DTD SVG 1.1//EN" "http://www.w3.org/Graphics/SVG/1.1/DTD/svg11.dtd" >
<svg xmlns="http://www.w3.org/2000/svg" xmlns:xlink="http://www.w3.org/1999/xlink" version="1.1" viewBox="-10 0 1010 1000">
   <path fill="currentColor"
d="M240 173h226l13 -44h-221c-7 15 -13 30 -18 44zM635 537l-35 46c-35 -30 -96 -69 -158 -99c5 44 -7 82 -28 102c-17 20 -38 25 -62 25c-14 1 -30 1 -46 0c-1 -16 -6 -37 -14 -52c19 2 35 2 48 2c11 0 22 0 29 -9c14 -13 22 -45 15 -82c-74 53 -189 102 -290 126
c-5 -12 -18 -31 -30 -42c110 -19 241 -72 307 -128c-5 -11 -11 -21 -19 -31c-64 43 -164 86 -249 108c-5 -12 -17 -29 -28 -38c86 -17 194 -58 252 -99c-9 -9 -17 -17 -28 -25c-61 31 -134 54 -198 72c-6 -10 -20 -31 -30 -40c73 -15 153 -39 215 -69h-217v-48h369
c4 -13 9 -26 13 -40h-253v-1h-50c25 -46 55 -115 75 -171l64 11l-12 32h223l11 -4l48 12c-15 52 -34 110 -52 161h150v48h-291c-6 4 -13 9 -20 13c35 24 58 54 74 84c57 -21 127 -55 169 -78l43 44c-50 25 -113 51 -166 69c64 31 133 70 171 101zM114 754h64v-67h-64v67z
M290 687h-60v67h60v-67zM253 827l44 -15c26 37 53 86 64 121l-46 18c-3 -9 -8 -21 -13 -34c-90 8 -177 14 -247 19l-8 -56c37 -2 82 -4 131 -6v-74h-112v-159h112v-48h52v48h108v159h-108v71l46 -3c-6 -15 -15 -28 -23 -41zM423 755h60v-68h-60v68zM597 687h-62v68h62v-68z
M566 822l42 -17c29 39 60 92 72 128l-45 19c-4 -12 -11 -25 -17 -40c-91 8 -178 16 -249 21l-8 -56c35 -2 76 -5 122 -8v-67h-108v-161h108v-54h52v54h112v161h-112v65l57 -4c-9 -15 -18 -29 -26 -41zM764 155v547h-62v-547h62zM856 58h66v802c0 44 -10 64 -36 75
c-25 12 -67 14 -137 14c-3 -19 -13 -49 -21 -69c50 2 95 2 108 2c15 -1 20 -6 20 -22v-802z" />
</svg>
