<?xml version="1.0" standalone="no"?>
<!DOCTYPE svg PUBLIC "-//W3C//DTD SVG 1.1//EN" "http://www.w3.org/Graphics/SVG/1.1/DTD/svg11.dtd" >
<svg xmlns="http://www.w3.org/2000/svg" xmlns:xlink="http://www.w3.org/1999/xlink" version="1.1" viewBox="-10 0 1010 1000">
   <path fill="currentColor"
d="M633 362l-19 41c-36 -16 -97 -31 -150 -40l15 -38c55 7 117 22 154 37zM602 241l23 39c-40 20 -98 34 -137 41l-18 -32c38 -10 99 -34 132 -48zM552 895l-34 14h18c8 0 14 -2 19 -10c10 -16 18 -81 24 -263h-176v32h122v127h-122v50l76 -4c-5 -10 -11 -20 -16 -28l41 -14
c20 30 41 70 48 96zM403 706v51h75v-51h-75zM276 757h76v-51h-76v51zM352 636h-71c-8 11 -17 22 -26 32h97v-32zM561 121h-384v60h384v-60zM264 454v59h71v-59h-71zM382 454v59h75v-59h-75zM504 454v59h77v-59h-77zM313 591h324s0 17 -1 25c-6 218 -13 292 -30 316
c-12 15 -26 21 -46 22c-14 2 -37 3 -59 1c-1 -15 -6 -35 -14 -49c7 1 14 2 21 2c-3 -8 -6 -16 -10 -25c-108 9 -220 16 -303 22l-10 -48c46 -2 104 -5 167 -9v-53h-123v-99c-18 18 -35 34 -53 47c-4 -5 -12 -13 -20 -22c-13 83 -38 163 -77 229c-11 -11 -38 -28 -54 -35
c83 -137 90 -330 90 -477v-368h511v162h-449v206c0 72 -3 157 -14 242c42 -35 82 -80 110 -127h-61v-140h422v140h-299c-7 13 -14 25 -22 38zM446 398h-56v-154h56v154zM212 280l18 -35c43 8 102 24 136 37l-18 41c-30 -13 -91 -32 -136 -43zM220 407l-14 -45
c41 -8 98 -22 158 -36l1 40c-51 15 -103 30 -145 41zM762 160v554h-61v-554h61zM855 44h63v826c0 41 -10 60 -34 72c-26 11 -67 13 -137 13c-3 -18 -12 -46 -21 -66c51 2 95 2 108 1c15 0 21 -4 21 -20v-826z" />
</svg>
