<?xml version="1.0" standalone="no"?>
<!DOCTYPE svg PUBLIC "-//W3C//DTD SVG 1.1//EN" "http://www.w3.org/Graphics/SVG/1.1/DTD/svg11.dtd" >
<svg xmlns="http://www.w3.org/2000/svg" xmlns:xlink="http://www.w3.org/1999/xlink" version="1.1" viewBox="-10 0 1010 1000">
   <path fill="currentColor"
d="M469 227h284s-1 30 -1 41c-16 429 -31 579 -70 627c-24 29 -47 39 -84 42c-35 4 -99 2 -160 -1c-1 -23 -12 -56 -26 -79c67 6 128 6 154 6c20 1 31 -2 43 -15c31 -32 48 -177 61 -547h-203c-9 213 -64 473 -361 660c-13 -18 -41 -47 -60 -61c279 -171 333 -405 342 -599
h-298v-74h300v-9v-173h79v173v9zM186 385l67 28c-31 89 -79 205 -136 280l-68 -40c60 -69 110 -180 137 -268zM777 400l67 -23c47 98 95 228 113 308l-74 26c-14 -80 -60 -211 -106 -311z" />
</svg>
