<?xml version="1.0" standalone="no"?>
<!DOCTYPE svg PUBLIC "-//W3C//DTD SVG 1.1//EN" "http://www.w3.org/Graphics/SVG/1.1/DTD/svg11.dtd" >
<svg xmlns="http://www.w3.org/2000/svg" xmlns:xlink="http://www.w3.org/1999/xlink" version="1.1" viewBox="-10 0 1010 1000">
   <path fill="currentColor"
d="M538 354h-365v62c0 180 -10 367 -89 524c-11 -16 -37 -38 -53 -48c67 -143 74 -313 74 -476v-298h1l-1 -1c131 -13 287 -36 378 -62l43 59c-94 27 -231 48 -353 59v113h365v68zM261 781h195v-225h-195v225zM524 488v361h-263v71h-66v-432h329zM930 278v36
c-11 414 -21 551 -51 593c-18 24 -36 32 -65 36c-26 3 -69 2 -114 0c-1 -21 -8 -49 -19 -69c45 4 86 4 102 4c17 1 26 -2 34 -14c23 -30 33 -158 43 -518h-130c-11 258 -47 473 -181 612c-11 -17 -37 -40 -55 -50c125 -123 158 -322 168 -562h-98v-68h99
c2 -72 2 -147 2 -224h69c0 77 -1 151 -3 224h199z" />
</svg>
