<?xml version="1.0" standalone="no"?>
<!DOCTYPE svg PUBLIC "-//W3C//DTD SVG 1.1//EN" "http://www.w3.org/Graphics/SVG/1.1/DTD/svg11.dtd" >
<svg xmlns="http://www.w3.org/2000/svg" xmlns:xlink="http://www.w3.org/1999/xlink" version="1.1" viewBox="-10 0 1010 1000">
   <path fill="currentColor"
d="M517 839v68h-440v-805h454v68h-384v669h370zM180 677h133v-153h-104v-63h104v-142h-120v-64h298v64h-112v142h91v63h-91v153h121v65h-320v-65zM922 275v36c-5 418 -9 551 -34 590c-16 24 -34 32 -61 35c-23 3 -63 3 -104 1c-1 -21 -8 -49 -18 -68c40 3 75 3 91 3
c15 1 22 -2 30 -15c17 -26 23 -150 27 -514h-108c-10 265 -44 481 -175 616c-10 -16 -37 -41 -53 -51c120 -120 151 -319 159 -565h-116v-68h118c1 -73 1 -150 1 -231h70c0 81 -1 158 -2 231h175z" />
</svg>
