<?xml version="1.0" standalone="no"?>
<!DOCTYPE svg PUBLIC "-//W3C//DTD SVG 1.1//EN" "http://www.w3.org/Graphics/SVG/1.1/DTD/svg11.dtd" >
<svg xmlns="http://www.w3.org/2000/svg" xmlns:xlink="http://www.w3.org/1999/xlink" version="1.1" viewBox="-10 0 1010 1000">
   <path fill="currentColor"
d="M401 311l67 22c-83 164 -221 302 -367 389c-10 -14 -34 -45 -47 -58c89 -49 174 -117 244 -197c-158 12 -185 17 -201 23c-4 -13 -16 -50 -24 -68c17 -4 33 -20 52 -44c16 -16 60 -76 96 -140h-168v-69h216c-10 -33 -27 -78 -46 -112l71 -13c22 40 46 92 54 125h179v69
h-223c-37 62 -81 124 -125 175l169 -11c20 -28 38 -59 53 -91zM505 799l-54 53c-19 -29 -56 -70 -92 -107c-80 81 -172 150 -269 201c-9 -15 -33 -45 -46 -60c171 -82 328 -220 416 -388l67 24c-33 61 -74 119 -120 172c37 35 77 77 98 105zM735 273h193s0 26 -1 36
c-17 412 -33 551 -68 594c-19 25 -37 33 -66 37c-26 3 -67 2 -109 0c-1 -21 -9 -51 -20 -70c42 4 82 5 99 5c16 0 25 -3 35 -16c27 -30 43 -161 58 -516h-124c-13 244 -56 473 -197 617c-13 -18 -39 -40 -59 -51c134 -128 174 -339 187 -566h-121v-70h124
c2 -72 3 -147 3 -220h70c0 73 -1 148 -4 220z" />
</svg>
