<?xml version="1.0" standalone="no"?>
<!DOCTYPE svg PUBLIC "-//W3C//DTD SVG 1.1//EN" "http://www.w3.org/Graphics/SVG/1.1/DTD/svg11.dtd" >
<svg xmlns="http://www.w3.org/2000/svg" xmlns:xlink="http://www.w3.org/1999/xlink" version="1.1" viewBox="-10 0 1010 1000">
   <path fill="currentColor"
d="M409 241v-98h-219v98h219zM480 87v210h-358v-210h358zM157 429v328h-65v-389h415v389h-67v-328h-283zM334 488v143c0 110 -33 242 -261 329c-8 -17 -27 -43 -43 -58c214 -71 236 -186 236 -271v-143h68zM312 801l51 -40c42 35 96 84 121 116l-53 45
c-24 -33 -77 -84 -119 -121zM732 264h195s-1 29 -1 38c-9 422 -16 560 -45 603c-19 24 -37 33 -66 37c-27 3 -72 3 -118 0c-2 -21 -8 -51 -20 -71c47 4 88 4 106 4c16 0 25 -3 34 -16c21 -28 30 -158 38 -525h-124c-8 278 -41 492 -182 624c-11 -16 -38 -42 -55 -51
c129 -120 158 -317 165 -573h-134v-70h134c1 -70 1 -143 1 -220h73c0 77 0 150 -1 220z" />
</svg>
