<?xml version="1.0" standalone="no"?>
<!DOCTYPE svg PUBLIC "-//W3C//DTD SVG 1.1//EN" "http://www.w3.org/Graphics/SVG/1.1/DTD/svg11.dtd" >
<svg xmlns="http://www.w3.org/2000/svg" xmlns:xlink="http://www.w3.org/1999/xlink" version="1.1" viewBox="-10 0 1010 1000">
   <path fill="currentColor"
d="M354 216v-71h-78v71h78zM497 395v-125h-89v125h89zM135 270v125h87v-125h-87zM354 270h-79v125h79v-125zM215 216v-71h-159v-60h521v60h-162v71h146v233h-487v-233h141zM539 560h-443v-57h443v57zM154 709l58 32c-32 63 -82 126 -135 169c-11 -14 -31 -33 -47 -44
c51 -40 99 -103 124 -157zM580 687h-234v194c0 33 -7 51 -31 62c-26 10 -65 9 -129 9c-3 -17 -12 -42 -21 -58c45 1 87 1 99 0c13 0 15 -2 15 -13v-194h-229v-61h530v61zM741 276h194s0 27 -1 36c-10 424 -19 563 -51 604c-16 26 -35 33 -65 36c-26 4 -70 2 -115 0
c-2 -20 -9 -49 -21 -67c46 3 88 4 107 4c16 0 25 -3 33 -15c23 -29 35 -161 44 -529h-127c-11 258 -47 477 -181 614c-12 -15 -37 -39 -55 -49c21 -20 39 -43 55 -67l-53 37c-21 -37 -66 -95 -105 -136l52 -35c39 40 85 94 107 131c80 -124 104 -297 112 -495h-98v-69h100
c2 -71 2 -145 2 -221h69c0 76 -1 150 -3 221z" />
</svg>
