<?xml version="1.0" standalone="no"?>
<!DOCTYPE svg PUBLIC "-//W3C//DTD SVG 1.1//EN" "http://www.w3.org/Graphics/SVG/1.1/DTD/svg11.dtd" >
<svg xmlns="http://www.w3.org/2000/svg" xmlns:xlink="http://www.w3.org/1999/xlink" version="1.1" viewBox="-10 0 1010 1000">
   <path fill="currentColor"
d="M138 520h133v-70h-133v70zM138 330v69h133v-69h-133zM471 399v-69h-133v69h133zM471 520v-70h-133v70h133zM520 812l-43 58c-27 -24 -90 -73 -139 -107v192h-67v-202c-55 69 -128 134 -192 172c-12 -17 -33 -40 -47 -53c72 -36 155 -104 210 -174h-189v-60h218v-65h-194
v-296h62c-17 -34 -48 -76 -84 -119c29 -39 59 -84 75 -115l59 15c-20 34 -45 69 -66 99c29 34 58 72 73 101l-51 19h155c-18 -34 -51 -77 -88 -119c31 -39 62 -84 79 -115l60 15c-22 34 -48 69 -72 99c32 34 61 72 78 100l-51 20h168c-19 -34 -55 -77 -97 -119
c34 -39 68 -84 88 -115l60 16c-24 34 -52 68 -79 98c34 33 68 72 86 100l-52 20h55v296h-197v65h213v60h-213v2c43 23 153 93 182 112zM739 276h196s0 27 -1 36c-10 424 -19 563 -51 604c-16 26 -35 33 -65 36c-26 4 -70 2 -115 0c-2 -20 -9 -49 -21 -67c46 3 88 4 107 4
c16 0 25 -3 33 -15c23 -29 35 -161 44 -529h-130c-11 267 -50 484 -201 619c-11 -19 -37 -43 -56 -55c142 -120 179 -318 189 -564h-111v-69h113c1 -71 1 -144 1 -221h70c0 76 -1 150 -2 221z" />
</svg>
