<?xml version="1.0" standalone="no"?>
<!DOCTYPE svg PUBLIC "-//W3C//DTD SVG 1.1//EN" "http://www.w3.org/Graphics/SVG/1.1/DTD/svg11.dtd" >
<svg xmlns="http://www.w3.org/2000/svg" xmlns:xlink="http://www.w3.org/1999/xlink" version="1.1" viewBox="-10 0 1010 1000">
   <path fill="currentColor"
d="M164 414h120c8 -25 10 -49 10 -72v-31h-130v103zM392 174h-160c-18 27 -39 54 -61 80h157c22 -22 46 -52 64 -80zM478 414v-103h-126v32c0 23 -1 47 -7 71h133zM575 755l-46 39c-26 -30 -69 -70 -116 -105c17 95 3 186 -30 222c-22 27 -48 35 -84 36c-17 0 -38 -1 -61 -2
c0 -18 -6 -46 -17 -65c25 3 48 4 63 4c20 0 33 -2 45 -19c17 -17 26 -64 24 -120c-76 70 -180 132 -272 167c-9 -16 -28 -39 -43 -51c110 -35 237 -108 306 -184c-3 -13 -7 -27 -12 -41l-4 -3l3 -1l-3 -8c-66 57 -164 115 -242 145c-9 -15 -27 -37 -41 -48
c88 -29 201 -89 262 -145c-9 -16 -19 -31 -31 -44c-39 37 -99 70 -191 99c-7 -14 -23 -37 -36 -47c110 -32 171 -72 204 -113h-154v-144l-15 12c-10 -14 -32 -35 -48 -44c95 -73 161 -172 196 -251l69 12c-10 20 -21 39 -32 60h166l13 -4l42 32c-25 37 -56 76 -87 110h143
v217h-222c-2 6 -5 12 -9 17c33 32 58 73 74 117c41 -34 89 -82 118 -116l51 36c-40 38 -87 79 -126 109c56 40 112 86 143 121zM742 274h185s0 28 -1 37c-12 425 -23 564 -53 607c-18 24 -36 32 -63 36c-25 3 -65 3 -105 1c-1 -21 -8 -51 -20 -70c40 3 77 3 93 3
c16 1 24 -2 33 -15c21 -29 34 -160 45 -532h-117c-11 268 -49 485 -200 618c-11 -15 -35 -38 -52 -49c141 -119 177 -320 186 -569h-100v-67h102c2 -69 2 -142 2 -219h67c0 76 -1 149 -2 219z" />
</svg>
