<?xml version="1.0" standalone="no"?>
<!DOCTYPE svg PUBLIC "-//W3C//DTD SVG 1.1//EN" "http://www.w3.org/Graphics/SVG/1.1/DTD/svg11.dtd" >
<svg xmlns="http://www.w3.org/2000/svg" xmlns:xlink="http://www.w3.org/1999/xlink" version="1.1" viewBox="-10 0 1010 1000">
   <path fill="currentColor"
d="M287 604h-115v81h115v-81zM460 685v-81h-116v81h116zM344 827h116v-85h-116v85zM172 827h115v-85h-115v85zM115 941v-395h404v383h-59v-46h-288v58h-57zM552 346h-190c70 36 149 85 190 119l-30 52c-37 -33 -106 -79 -171 -116v116h-62v-144c-57 70 -138 143 -206 181
c-6 -17 -20 -44 -31 -60c64 -32 142 -90 195 -148h-167v-57h93c-10 -28 -25 -62 -39 -89l51 -15c19 32 39 73 47 104h57v-139c-65 6 -132 12 -194 15c-3 -15 -10 -37 -16 -52c145 -10 323 -29 423 -54l38 52c-52 13 -118 24 -189 31v147h48c21 -36 45 -90 58 -126l59 21
c-18 35 -37 74 -56 105h92v57zM761 263h166s-1 25 -1 35c-11 418 -20 551 -47 591c-16 22 -32 30 -56 34c-21 3 -52 2 -84 0c-1 -18 -7 -45 -17 -63c31 3 59 3 72 3c12 1 20 -2 28 -15c18 -28 30 -155 40 -521h-103c-11 255 -46 485 -173 628c-11 -14 -35 -35 -53 -45
c121 -129 154 -344 164 -583h-113v-64h115c2 -68 3 -137 3 -206h62c0 70 -1 138 -3 206z" />
</svg>
