<?xml version="1.0" standalone="no"?>
<!DOCTYPE svg PUBLIC "-//W3C//DTD SVG 1.1//EN" "http://www.w3.org/Graphics/SVG/1.1/DTD/svg11.dtd" >
<svg xmlns="http://www.w3.org/2000/svg" xmlns:xlink="http://www.w3.org/1999/xlink" version="1.1" viewBox="-10 0 1010 1000">
   <path fill="currentColor"
d="M158 710v-68h527v68h-527zM210 415h432v69h-432v-69zM305 202h592s-1 29 -2 40c-18 455 -35 617 -80 669c-25 31 -49 39 -90 43c-39 3 -111 1 -181 -3c-2 -22 -11 -54 -25 -74c79 6 152 6 179 6c23 0 36 -2 49 -15c37 -35 56 -194 71 -594h-552c-48 84 -104 158 -163 215
c-14 -13 -46 -37 -66 -48c107 -93 198 -241 251 -397l77 19c-17 48 -37 94 -60 139z" />
</svg>
