<?xml version="1.0" standalone="no"?>
<!DOCTYPE svg PUBLIC "-//W3C//DTD SVG 1.1//EN" "http://www.w3.org/Graphics/SVG/1.1/DTD/svg11.dtd" >
<svg xmlns="http://www.w3.org/2000/svg" xmlns:xlink="http://www.w3.org/1999/xlink" version="1.1" viewBox="-10 0 1010 1000">
   <path fill="currentColor"
d="M313 177h579s0 30 -1 40c-13 485 -24 643 -60 691c-21 29 -42 38 -76 41c-31 4 -85 2 -138 -1c-1 -20 -9 -49 -20 -68c56 4 107 4 129 4c19 1 28 -3 39 -17c29 -34 43 -191 54 -619h-543c-30 55 -65 106 -100 151h65v336h482v69h-555v-396c-22 27 -45 52 -68 74
c-13 -13 -45 -38 -62 -50c105 -91 195 -235 249 -388l74 18c-14 40 -30 78 -48 115zM487 284l69 17c-11 48 -25 92 -43 134c80 67 176 158 224 218l-55 47c-40 -54 -122 -136 -197 -204c-44 85 -101 154 -171 205c-12 -12 -41 -35 -57 -45c117 -78 194 -207 230 -372z" />
</svg>
