<?xml version="1.0" standalone="no"?>
<!DOCTYPE svg PUBLIC "-//W3C//DTD SVG 1.1//EN" "http://www.w3.org/Graphics/SVG/1.1/DTD/svg11.dtd" >
<svg xmlns="http://www.w3.org/2000/svg" xmlns:xlink="http://www.w3.org/1999/xlink" version="1.1" viewBox="-10 0 1010 1000">
   <path fill="currentColor"
d="M653 391l48 23c-73 284 -250 442 -465 520c-10 -17 -33 -47 -50 -60c104 -34 198 -87 273 -161c-33 -36 -91 -79 -141 -107l45 -47c49 26 108 67 143 101c45 -56 80 -122 104 -199h-227c-53 83 -117 157 -184 211c-12 -14 -40 -41 -57 -52c107 -78 199 -200 252 -335
l70 18c-12 32 -26 62 -42 91h218zM312 204h589s0 30 -1 39c-19 461 -37 620 -78 670c-22 28 -43 37 -76 41s-88 2 -142 -1c-1 -22 -9 -54 -22 -75c57 5 109 6 131 6c19 0 30 -3 41 -17c34 -35 53 -186 70 -591h-552c-51 84 -109 158 -172 216c-13 -13 -45 -37 -65 -49
c113 -92 208 -241 264 -398l75 20c-17 48 -39 94 -62 139z" />
</svg>
