<?xml version="1.0" standalone="no"?>
<!DOCTYPE svg PUBLIC "-//W3C//DTD SVG 1.1//EN" "http://www.w3.org/Graphics/SVG/1.1/DTD/svg11.dtd" >
<svg xmlns="http://www.w3.org/2000/svg" xmlns:xlink="http://www.w3.org/1999/xlink" version="1.1" viewBox="-10 0 1010 1000">
   <path fill="currentColor"
d="M735 465h40c8 0 27 -1 37 -4c1 15 3 35 4 49c-9 4 -26 4 -40 4h-49c-53 0 -63 -22 -63 -78v-90h-96v24c0 55 -13 121 -80 167c-9 -11 -32 -33 -44 -42c58 -38 67 -84 67 -127v-80h211v149c0 22 2 28 13 28zM781 844l-39 45c16 1 30 1 40 1c11 0 19 -3 28 -18
c19 -33 26 -187 32 -651h-596c-13 21 -27 43 -42 63h232v331h-217v198l127 -63c-16 -25 -32 -50 -48 -72l52 -29c45 59 93 138 114 190l-13 8c53 -20 102 -50 144 -89c-40 -34 -83 -70 -123 -98l40 -41c40 28 84 62 126 95c24 -32 46 -67 61 -106h-233v-56h262l12 -3l39 14
c-21 75 -53 138 -94 190c38 33 72 66 96 91zM374 427v-85h-155v85h155zM219 476v81h155v-81h-155zM915 157v40c-8 516 -12 670 -40 716c-17 27 -34 36 -60 40c-24 4 -58 3 -94 1c0 -19 -7 -48 -18 -67c11 1 21 2 31 2c-24 -25 -56 -57 -92 -89c-50 47 -107 82 -170 107
c-8 -15 -21 -38 -35 -52l-29 17c-7 -21 -20 -48 -36 -75c-176 93 -202 110 -218 125c-7 -15 -23 -43 -35 -56c15 -11 38 -38 38 -81v-440c-19 23 -38 42 -58 61c-12 -13 -40 -34 -57 -44c90 -76 169 -193 215 -318l67 18c-12 32 -26 64 -43 95h634z" />
</svg>
