<?xml version="1.0" standalone="no"?>
<!DOCTYPE svg PUBLIC "-//W3C//DTD SVG 1.1//EN" "http://www.w3.org/Graphics/SVG/1.1/DTD/svg11.dtd" >
<svg xmlns="http://www.w3.org/2000/svg" xmlns:xlink="http://www.w3.org/1999/xlink" version="1.1" viewBox="-10 0 1010 1000">
   <path fill="currentColor"
d="M169 855h783v64h-856v-829h831v64h-758v701zM390 288h428s-1 23 -2 32c-21 291 -41 397 -75 434c-19 20 -36 27 -64 29c-22 2 -59 2 -98 0c-2 -19 -8 -45 -18 -62c39 4 72 4 88 4c15 0 24 -1 33 -13c25 -24 45 -119 63 -361h-76c-55 186 -147 340 -267 442
c-11 -11 -36 -33 -51 -42c116 -92 201 -233 250 -400h-87c-57 134 -145 254 -240 333c-10 -11 -35 -32 -50 -42c91 -70 170 -174 220 -291h-89c-38 61 -82 114 -127 156c-12 -12 -40 -34 -57 -43c83 -70 155 -177 195 -291l68 16c-12 34 -27 67 -44 99z" />
</svg>
