<?xml version="1.0" standalone="no"?>
<!DOCTYPE svg PUBLIC "-//W3C//DTD SVG 1.1//EN" "http://www.w3.org/Graphics/SVG/1.1/DTD/svg11.dtd" >
<svg xmlns="http://www.w3.org/2000/svg" xmlns:xlink="http://www.w3.org/1999/xlink" version="1.1" viewBox="-10 0 1010 1000">
   <path fill="currentColor"
d="M866 790h-39c-17 0 -36 -5 -48 -17c-13 -11 -17 -27 -17 -89v-291h-73v37c0 141 -15 274 -131 375c-9 -13 -31 -32 -46 -41c106 -91 119 -211 119 -334v-37h-80v-60h80v-145h58v145h133v360c0 22 1 34 5 39c3 3 8 5 14 5h22c7 0 13 -1 17 -5c4 -3 7 -11 10 -24
c2 -17 3 -50 4 -95c12 11 29 19 45 24c-2 42 -4 92 -9 108c-5 18 -13 28 -23 35c-11 7 -27 10 -41 10zM440 815h-59v-139l-158 32l-14 -60c47 -8 108 -18 172 -30v-96h-70c-32 0 -58 6 -67 14c-4 -14 -13 -45 -21 -62c13 -4 25 -25 37 -53c6 -14 19 -49 33 -92h-79v-58h97
c8 -30 14 -61 19 -91l69 13c-6 26 -14 52 -22 78h158v58h-176c-17 50 -37 97 -55 137h77v-91h59v91h87v56h-87v86l99 -19l4 54l-103 21v151zM173 861h776v68h-847v-845h823v67h-752v710z" />
</svg>
