<?xml version="1.0" standalone="no"?>
<!DOCTYPE svg PUBLIC "-//W3C//DTD SVG 1.1//EN" "http://www.w3.org/Graphics/SVG/1.1/DTD/svg11.dtd" >
<svg xmlns="http://www.w3.org/2000/svg" xmlns:xlink="http://www.w3.org/1999/xlink" version="1.1" viewBox="-10 0 1010 1000">
   <path fill="currentColor"
d="M169 855h783v64h-856v-829h830v64h-757v701zM916 451h-179v250h168v64h-394v-64h160v-250h-173v-64h173v-198h66v198h179v64zM471 815h-64v-244h-72c0 76 -10 174 -87 249c-11 -13 -34 -31 -50 -39c70 -64 80 -149 80 -210h-60v-60h189v-70h-154v-223h61v164h93v-193h64
v626z" />
</svg>
