<?xml version="1.0" standalone="no"?>
<!DOCTYPE svg PUBLIC "-//W3C//DTD SVG 1.1//EN" "http://www.w3.org/Graphics/SVG/1.1/DTD/svg11.dtd" >
<svg xmlns="http://www.w3.org/2000/svg" xmlns:xlink="http://www.w3.org/1999/xlink" version="1.1" viewBox="-10 0 1010 1000">
   <path fill="currentColor"
d="M171 857h775v65h-848v-846h827v65h-754v716zM823 727h-74v-170h-384v175h-72v-224h530v219zM586 592v30c0 64 -26 159 -339 217c-9 -14 -28 -37 -43 -51c301 -43 315 -121 315 -168v-28h67zM875 794l-33 49c-58 -34 -172 -81 -260 -109l31 -44c89 26 202 70 262 104z
M346 313h169v-69h-169v69zM770 244h-182v69h182v-69zM911 412v49h-708v-49h312v-57h-239v-154h239v-36h73v36h255v154h-255v57h323z" />
</svg>
