<?xml version="1.0" standalone="no"?>
<!DOCTYPE svg PUBLIC "-//W3C//DTD SVG 1.1//EN" "http://www.w3.org/Graphics/SVG/1.1/DTD/svg11.dtd" >
<svg xmlns="http://www.w3.org/2000/svg" xmlns:xlink="http://www.w3.org/1999/xlink" version="1.1" viewBox="-10 0 1010 1000">
   <path fill="currentColor"
d="M164 846h779v65h-852v-821h823v65h-385l59 21c-6 7 -12 14 -19 21c83 68 233 118 370 140c-13 14 -33 40 -42 58c-133 -27 -277 -85 -368 -158c-85 72 -200 126 -305 164c-11 -14 -38 -39 -54 -50c138 -39 278 -107 351 -196h-357v691zM455 568v-93h-113v93h113zM515 427
v189h-230v-189h230zM519 744l-40 45c-20 -20 -55 -49 -89 -71c-37 45 -83 83 -128 111c-12 -11 -38 -32 -54 -42c72 -38 138 -99 169 -171l65 18c-6 12 -13 25 -19 37c35 23 74 53 96 73zM684 331v51h-287v-51h287zM750 567v-92h-120v92h120zM810 427v188h-237v-188h237z
M867 779l-45 46c-33 -28 -91 -68 -144 -101c-31 43 -71 79 -112 105c-11 -11 -36 -31 -52 -41c67 -38 124 -100 149 -173l64 16c-5 15 -11 30 -18 44c55 32 123 75 158 104z" />
</svg>
