<?xml version="1.0" standalone="no"?>
<!DOCTYPE svg PUBLIC "-//W3C//DTD SVG 1.1//EN" "http://www.w3.org/Graphics/SVG/1.1/DTD/svg11.dtd" >
<svg xmlns="http://www.w3.org/2000/svg" xmlns:xlink="http://www.w3.org/1999/xlink" version="1.1" viewBox="-10 0 1010 1000">
   <path fill="currentColor"
d="M170 874h779v55h-853v-845h831v55h-757v735zM448 763l43 22c-67 28 -165 63 -239 84c-6 -10 -23 -32 -33 -41c75 -17 168 -41 229 -65zM356 727h390v-35h-390v35zM356 623v34h390v-34h-390zM356 555v32h390v-32h-390zM866 833l-24 36c-57 -23 -150 -51 -239 -75l19 -31
h-331v-244h522v244h-186c88 23 180 48 239 70zM795 446v-67h-130v67h130zM612 446v-67h-128v67h128zM432 446v-67h-123v67h123zM853 338v150h-599v-150h599zM873 193v39h-293v37h251v39h-554v-39h235v-37h-279v-39h279v-43h68v43h293z" />
</svg>
