<?xml version="1.0" standalone="no"?>
<!DOCTYPE svg PUBLIC "-//W3C//DTD SVG 1.1//EN" "http://www.w3.org/Graphics/SVG/1.1/DTD/svg11.dtd" >
<svg xmlns="http://www.w3.org/2000/svg" xmlns:xlink="http://www.w3.org/1999/xlink" version="1.1" viewBox="-10 0 1010 1000">
   <path fill="currentColor"
d="M528 587v-41h-196v41h196zM528 673v-44h-196v44h196zM528 762v-46h-196v46h196zM282 374v38h176v-38h-176zM282 303v36h176v-36h-176zM282 232v36h176v-36h-176zM617 373v38h183v-38h-183zM617 302v36h183v-36h-183zM617 230v37h183v-37h-183zM162 846h781v65h-853v-821
h823v65h-751v439c61 -35 119 -85 154 -141h-87v-262h284v262h-154l24 7c-8 14 -17 27 -27 40h174c-6 -15 -14 -30 -22 -43l56 -18v-249h290v262h-273c9 16 18 32 24 48h241v46h-246v41h224v42h-224v44h225v43h-225v46h264v45h-532v25h-68v-233c-24 20 -49 38 -74 54
c-4 -9 -17 -27 -28 -39v232z" />
</svg>
