<?xml version="1.0" standalone="no"?>
<!DOCTYPE svg PUBLIC "-//W3C//DTD SVG 1.1//EN" "http://www.w3.org/Graphics/SVG/1.1/DTD/svg11.dtd" >
<svg xmlns="http://www.w3.org/2000/svg" xmlns:xlink="http://www.w3.org/1999/xlink" version="1.1" viewBox="-10 0 1010 1000">
   <path fill="currentColor"
d="M169 863h778v63h-852v-834h830v64h-756v707zM714 623h98v-78h-98v78zM570 623h91v-78h-91v78zM418 623h99v-78h-99v78zM873 493v264c0 29 -5 43 -25 53c-18 9 -47 9 -88 9c-2 -16 -10 -37 -18 -53c27 1 52 1 59 1c8 0 11 -3 11 -11v-81h-98v121h-53v-121h-91v121h-53
v-121h-99v147h-62v-329h517zM787 289h-444v88h444v-88zM277 238h271c-9 -20 -19 -40 -28 -58l64 -16c13 22 27 50 37 74h236v190h-515c-4 122 -26 282 -107 397c-9 -15 -36 -43 -49 -52c80 -118 91 -276 91 -389v-146z" />
</svg>
