<?xml version="1.0" standalone="no"?>
<!DOCTYPE svg PUBLIC "-//W3C//DTD SVG 1.1//EN" "http://www.w3.org/Graphics/SVG/1.1/DTD/svg11.dtd" >
<svg xmlns="http://www.w3.org/2000/svg" xmlns:xlink="http://www.w3.org/1999/xlink" version="1.1" viewBox="-10 0 1010 1000">
   <path fill="currentColor"
d="M947 444v72h-215v441h-75v-441h-305c-8 165 -51 327 -254 443c-11 -17 -37 -44 -53 -56c185 -104 226 -244 234 -387h-224v-72h225v-222c-64 18 -128 35 -190 49c-4 -18 -16 -45 -27 -60c158 -37 334 -92 433 -152l56 61c-56 29 -125 55 -199 79v245h304v-381h75v381h215
z" />
</svg>
