<?xml version="1.0" standalone="no"?>
<!DOCTYPE svg PUBLIC "-//W3C//DTD SVG 1.1//EN" "http://www.w3.org/Graphics/SVG/1.1/DTD/svg11.dtd" >
<svg xmlns="http://www.w3.org/2000/svg" xmlns:xlink="http://www.w3.org/1999/xlink" version="1.1" viewBox="-10 0 1010 1000">
   <path fill="currentColor"
d="M468 411v-211c54 -16 114 -41 164 -66h-442v-59h534l16 -4l46 40c-67 46 -160 89 -247 119v7l1 -1c30 27 70 51 117 75c60 -40 136 -98 180 -141l58 44c-54 43 -120 89 -178 123c76 31 160 57 238 70c-15 15 -34 41 -45 58c-124 -28 -269 -88 -371 -158v105
c0 36 -7 52 -34 62c-26 10 -66 11 -125 11c-5 -19 -16 -43 -24 -61c45 2 84 2 96 0c13 0 16 -3 16 -13zM408 196l39 22c-68 137 -215 219 -365 262c-7 -16 -27 -43 -38 -55c120 -29 237 -85 305 -167h-231v-59h278zM832 505v59h-690v-59h690zM372 879h389
c82 0 97 -15 105 -106c18 11 48 19 68 23c-12 116 -42 144 -171 144h-386c-158 0 -206 -20 -206 -107v-215h630v120c0 47 -14 66 -61 75c-48 9 -130 7 -260 7c-6 -19 -20 -38 -31 -56c119 4 216 4 245 2c29 -3 35 -9 35 -27v-63h-485v156c0 37 20 47 128 47z" />
</svg>
