<?xml version="1.0" standalone="no"?>
<!DOCTYPE svg PUBLIC "-//W3C//DTD SVG 1.1//EN" "http://www.w3.org/Graphics/SVG/1.1/DTD/svg11.dtd" >
<svg xmlns="http://www.w3.org/2000/svg" xmlns:xlink="http://www.w3.org/1999/xlink" version="1.1" viewBox="-10 0 1010 1000">
   <path fill="currentColor"
d="M478 582l49 33c-33 37 -73 76 -108 105c61 37 121 80 158 113l-41 46c-40 -38 -113 -91 -183 -134v127c0 33 -6 48 -30 57c-22 10 -59 10 -114 10c-3 -17 -12 -39 -20 -55c39 1 75 1 86 1c11 -1 14 -4 14 -15v-110c-71 39 -143 77 -202 108l-28 -56
c59 -26 144 -69 230 -113v-173h64v156l20 12c36 -33 79 -78 105 -112zM246 685l-48 32c-15 -31 -50 -76 -85 -106l46 -30c35 30 72 73 87 104zM322 362l36 15c-4 5 -9 12 -13 18c87 44 193 107 247 152l-41 47c-52 -44 -154 -110 -241 -155c-62 68 -145 125 -229 162
c-10 -16 -27 -37 -43 -50c100 -40 201 -110 258 -189h-10v-125c-52 68 -126 132 -192 167c-11 -16 -29 -39 -43 -52c66 -28 141 -84 193 -143h-183v-62h225v-95h68v95h217v62h-161c61 43 123 92 159 127l-48 37c-37 -39 -103 -91 -167 -139v128h-32zM914 118v561
c0 40 -7 65 -34 78s-71 15 -136 15c-2 -22 -11 -56 -21 -77c50 2 93 1 107 0c13 0 17 -4 17 -17v-488h-170v765h-67v-837h304z" />
</svg>
