<?xml version="1.0" standalone="no"?>
<!DOCTYPE svg PUBLIC "-//W3C//DTD SVG 1.1//EN" "http://www.w3.org/Graphics/SVG/1.1/DTD/svg11.dtd" >
<svg xmlns="http://www.w3.org/2000/svg" xmlns:xlink="http://www.w3.org/1999/xlink" version="1.1" viewBox="-10 0 1010 1000">
   <path fill="currentColor"
d="M227 319h263c29 -33 60 -75 84 -113h-259c-26 38 -55 76 -88 113zM937 319v68h-692v114c0 136 -21 328 -144 456c-11 -14 -40 -41 -56 -50c114 -118 128 -285 128 -407v-125c-24 23 -50 46 -78 67c-12 -17 -36 -41 -53 -53c138 -98 231 -234 278 -344l79 14
c-12 26 -26 53 -42 80h264l12 -3l53 34c-27 49 -68 103 -107 149h358z" />
</svg>
