<?xml version="1.0" standalone="no"?>
<!DOCTYPE svg PUBLIC "-//W3C//DTD SVG 1.1//EN" "http://www.w3.org/Graphics/SVG/1.1/DTD/svg11.dtd" >
<svg xmlns="http://www.w3.org/2000/svg" xmlns:xlink="http://www.w3.org/1999/xlink" version="1.1" viewBox="-10 0 1010 1000">
   <path fill="currentColor"
d="M606 501v343h343v71h-753v-71h336v-343h-271v-71h271v-213h74v213h295v71h-295zM683 609l53 -36c55 46 115 108 143 150l-56 43c-27 -44 -87 -110 -140 -157zM952 91v72h-762v248c0 161 -12 391 -94 547c-12 -13 -43 -34 -60 -42c76 -146 82 -353 82 -504v-321h834z" />
</svg>
