<?xml version="1.0" standalone="no"?>
<!DOCTYPE svg PUBLIC "-//W3C//DTD SVG 1.1//EN" "http://www.w3.org/Graphics/SVG/1.1/DTD/svg11.dtd" >
<svg xmlns="http://www.w3.org/2000/svg" xmlns:xlink="http://www.w3.org/1999/xlink" version="1.1" viewBox="-10 0 1010 1000">
   <path fill="currentColor"
d="M406 177l73 16c-12 40 -27 77 -42 114h495v66h-327v126h294v63h-294v119h302v65h-302v209h-74v-582h-126c-33 65 -72 124 -114 170c-14 -11 -46 -32 -63 -41c77 -78 141 -201 178 -325zM936 94v69h-733v226c0 165 -12 405 -102 568c-14 -12 -46 -31 -65 -38
c86 -154 94 -374 94 -529v-296h806z" />
</svg>
