<?xml version="1.0" standalone="no"?>
<!DOCTYPE svg PUBLIC "-//W3C//DTD SVG 1.1//EN" "http://www.w3.org/Graphics/SVG/1.1/DTD/svg11.dtd" >
<svg xmlns="http://www.w3.org/2000/svg" xmlns:xlink="http://www.w3.org/1999/xlink" version="1.1" viewBox="-10 0 1010 1000">
   <path fill="currentColor"
d="M944 157h-755v229c0 163 -11 404 -87 570c-13 -12 -45 -31 -62 -36c71 -157 78 -379 78 -534v-296h826v67zM495 557v-129h-179v129h179zM564 374v238h-314v-238h314zM373 810l-64 15c-4 -44 -23 -117 -43 -173l59 -12c22 55 43 127 48 170zM595 239v63h-371v-63h371z
M485 831l121 -15l2 62c-144 20 -294 40 -402 53l-10 -66c59 -6 139 -16 224 -26c22 -59 49 -145 62 -205l67 16c-19 59 -42 127 -64 181zM745 698l-63 24c-8 -55 -41 -141 -77 -206l59 -20c37 63 71 147 81 202zM951 357v68h-82v444c0 43 -10 62 -37 74
c-29 11 -74 13 -145 13c-3 -19 -12 -49 -23 -69c52 1 99 1 114 1c14 -1 19 -5 19 -19v-444h-201v-68h201v-161h72v161h82z" />
</svg>
