<?xml version="1.0" standalone="no"?>
<!DOCTYPE svg PUBLIC "-//W3C//DTD SVG 1.1//EN" "http://www.w3.org/Graphics/SVG/1.1/DTD/svg11.dtd" >
<svg xmlns="http://www.w3.org/2000/svg" xmlns:xlink="http://www.w3.org/1999/xlink" version="1.1" viewBox="-10 0 1010 1000">
   <path fill="currentColor"
d="M907 402l-47 51c-29 -32 -71 -68 -120 -104c-63 59 -138 102 -215 131c-8 -17 -26 -41 -40 -55c71 -23 140 -63 199 -115c-50 -33 -104 -63 -154 -88l44 -45c51 24 105 54 156 86c30 -35 56 -73 76 -116h-296v-64h330l13 -3l44 18c-24 79 -63 146 -111 203
c49 34 92 69 121 101zM458 391l-48 50c-23 -28 -58 -60 -98 -91c-59 59 -130 102 -204 132c-9 -17 -25 -41 -40 -55c69 -24 135 -64 190 -117c-46 -32 -95 -63 -142 -87l44 -43c46 23 95 52 141 83c28 -35 52 -74 70 -116h-278v-64h309l13 -3l44 17c-22 80 -58 148 -103 204
c41 31 77 62 102 90zM410 496l46 16c-22 87 -56 162 -100 225c43 33 79 65 105 95l-50 49c-23 -28 -56 -60 -95 -91c-65 75 -144 130 -228 167c-8 -17 -27 -43 -42 -57c79 -30 154 -82 215 -153c-53 -38 -110 -75 -164 -103l46 -43c51 26 106 60 157 95
c28 -40 51 -85 68 -134h-285v-63h314zM852 496l45 17c-30 111 -80 200 -145 271c58 50 127 89 205 112c-16 14 -37 43 -47 60c-79 -27 -149 -69 -208 -124c-65 56 -140 97 -220 124c-7 -17 -26 -43 -41 -57c77 -23 151 -62 213 -116c-49 -58 -89 -126 -118 -201l62 -18
c25 63 60 121 105 171c44 -48 80 -106 105 -173h-306v-63h336z" />
</svg>
