<?xml version="1.0" standalone="no"?>
<!DOCTYPE svg PUBLIC "-//W3C//DTD SVG 1.1//EN" "http://www.w3.org/Graphics/SVG/1.1/DTD/svg11.dtd" >
<svg xmlns="http://www.w3.org/2000/svg" xmlns:xlink="http://www.w3.org/1999/xlink" version="1.1" viewBox="-10 0 1010 1000">
   <path fill="currentColor"
d="M128 251v92h-62v-146h198v-154h68v55h176v53h-176v46h218v146h-65v-92h-357zM391 403l36 -30c43 21 96 58 123 85l-37 35c-27 -28 -79 -67 -122 -90zM161 373l52 14c-27 42 -71 87 -112 115c-9 -9 -30 -25 -43 -33c40 -27 79 -60 103 -96zM200 560h236
c-42 -36 -92 -75 -140 -108c-28 39 -60 76 -96 108zM205 861h204v-55h-204v55zM205 709v53h204v-53h-204zM409 664v-54h-204v54h204zM307 346l43 16c-8 14 -15 30 -24 45c82 54 178 126 226 178l-44 43c-8 -10 -19 -21 -32 -33v355h-67v-39h-204v44h-65v-345
c-21 15 -41 28 -63 41c-10 -15 -27 -34 -43 -46c108 -55 207 -154 260 -259h-127v-49h282v49h-142zM852 175h-199c21 153 51 298 97 419c48 -117 84 -259 102 -419zM882 103l44 11c-21 234 -68 422 -137 568c45 91 101 164 172 215c-16 13 -40 39 -52 58
c-65 -51 -117 -119 -160 -199c-49 83 -106 150 -172 202c-12 -17 -32 -40 -48 -53c70 -52 132 -128 183 -227c-58 -142 -94 -313 -119 -503h-37v-70h314z" />
</svg>
