<?xml version="1.0" standalone="no"?>
<!DOCTYPE svg PUBLIC "-//W3C//DTD SVG 1.1//EN" "http://www.w3.org/Graphics/SVG/1.1/DTD/svg11.dtd" >
<svg xmlns="http://www.w3.org/2000/svg" xmlns:xlink="http://www.w3.org/1999/xlink" version="1.1" viewBox="-10 0 1010 1000">
   <path fill="currentColor"
d="M548 471h-245v224h245v-224zM621 763h-318v71h-72v-431h390v360zM318 189h596s-1 30 -1 40c-16 469 -31 634 -74 685c-25 31 -48 40 -87 44s-108 2 -174 -2c-1 -23 -12 -55 -25 -77c75 6 144 6 170 6c22 0 35 -3 47 -16c36 -35 53 -196 67 -607h-554
c-51 102 -112 193 -178 261c-14 -14 -46 -39 -65 -52c108 -99 197 -259 250 -427l76 19c-14 43 -31 85 -48 126z" />
</svg>
