<?xml version="1.0" standalone="no"?>
<!DOCTYPE svg PUBLIC "-//W3C//DTD SVG 1.1//EN" "http://www.w3.org/Graphics/SVG/1.1/DTD/svg11.dtd" >
<svg xmlns="http://www.w3.org/2000/svg" xmlns:xlink="http://www.w3.org/1999/xlink" version="1.1" viewBox="-10 0 1010 1000">
   <path fill="currentColor"
d="M732 354v-198h-462v198h462zM807 88v334h-610v-334h610zM879 509l-3 36c-18 245 -38 342 -73 377c-22 23 -44 29 -80 32c-33 2 -95 1 -158 -3c-2 -21 -12 -52 -25 -70c66 6 130 6 154 6c22 0 33 -1 44 -11c27 -23 44 -105 60 -297h-307c-32 182 -110 316 -388 380
c-7 -18 -26 -49 -40 -65c255 -53 322 -165 350 -315h-320v-70h786z" />
</svg>
