<?xml version="1.0" standalone="no"?>
<!DOCTYPE svg PUBLIC "-//W3C//DTD SVG 1.1//EN" "http://www.w3.org/Graphics/SVG/1.1/DTD/svg11.dtd" >
<svg xmlns="http://www.w3.org/2000/svg" xmlns:xlink="http://www.w3.org/1999/xlink" version="1.1" viewBox="-10 0 1010 1000">
   <path fill="currentColor"
d="M786 566h-443v264h443v-264zM935 301h-519c-26 68 -56 133 -92 194h538v458h-76v-52h-443v57h-73v-381c-52 69 -113 132 -185 184c-11 -17 -34 -44 -49 -59c141 -96 237 -241 300 -401h-268v-72h295c20 -62 37 -124 50 -186l77 14c-14 58 -29 115 -48 172h493v72z" />
</svg>
