<?xml version="1.0" standalone="no"?>
<!DOCTYPE svg PUBLIC "-//W3C//DTD SVG 1.1//EN" "http://www.w3.org/Graphics/SVG/1.1/DTD/svg11.dtd" >
<svg xmlns="http://www.w3.org/2000/svg" xmlns:xlink="http://www.w3.org/1999/xlink" version="1.1" viewBox="-10 0 1010 1000">
   <path fill="currentColor"
d="M485 462v-187c83 -27 178 -71 248 -116h-621v-64h704l14 -4l49 38c-83 69 -205 136 -318 180v155c0 41 -10 58 -44 69c-35 12 -86 11 -167 11c-6 -20 -20 -47 -33 -65c69 2 128 2 145 1c19 -1 23 -5 23 -18zM760 652h-520v195h520v-195zM166 958v-373h671v370h-77v-42
h-520v45h-74z" />
</svg>
