<?xml version="1.0" standalone="no"?>
<!DOCTYPE svg PUBLIC "-//W3C//DTD SVG 1.1//EN" "http://www.w3.org/Graphics/SVG/1.1/DTD/svg11.dtd" >
<svg xmlns="http://www.w3.org/2000/svg" xmlns:xlink="http://www.w3.org/1999/xlink" version="1.1" viewBox="-10 0 1010 1000">
   <path fill="currentColor"
d="M327 836h444v-227h-444v227zM847 540v416h-76v-52h-444v52h-73v-329c-55 19 -111 35 -166 48c-6 -20 -23 -52 -38 -68c124 -26 252 -70 368 -132c-44 -40 -103 -88 -152 -123l56 -43c53 36 119 86 165 126c99 -61 186 -137 245 -224h-370c-64 62 -143 120 -237 169
c-11 -17 -35 -45 -51 -56c161 -78 274 -189 334 -284l83 18c-19 28 -40 57 -65 85h354l12 -4l50 31c-82 159 -226 282 -392 370h397z" />
</svg>
