<?xml version="1.0" standalone="no"?>
<!DOCTYPE svg PUBLIC "-//W3C//DTD SVG 1.1//EN" "http://www.w3.org/Graphics/SVG/1.1/DTD/svg11.dtd" >
<svg xmlns="http://www.w3.org/2000/svg" xmlns:xlink="http://www.w3.org/1999/xlink" version="1.1" viewBox="-10 0 1010 1000">
   <path fill="currentColor"
d="M269 207h-123v417h123v-417zM339 693h-193v95h-69v-650h262v555zM804 509h-199c-15 120 -31 236 -45 326h213c10 -91 21 -207 31 -326zM825 167h-181c-9 85 -19 178 -31 271h195c7 -93 13 -186 17 -271zM845 835h110v71h-640v-71h173c15 -91 31 -207 46 -326h-146v-71
h155c10 -94 20 -187 28 -271h-181v-71h509c-12 231 -33 544 -54 739z" />
</svg>
