<?xml version="1.0" standalone="no"?>
<!DOCTYPE svg PUBLIC "-//W3C//DTD SVG 1.1//EN" "http://www.w3.org/Graphics/SVG/1.1/DTD/svg11.dtd" >
<svg xmlns="http://www.w3.org/2000/svg" xmlns:xlink="http://www.w3.org/1999/xlink" version="1.1" viewBox="-10 0 1010 1000">
   <path fill="currentColor"
d="M276 207h-127v417h127v-417zM345 138v555h-196v95h-68v-650h264zM642 177h-136v321h136v-321zM851 498v-321h-141v321h141zM582 868h239c56 0 66 -28 74 -142c18 13 47 26 68 30c-12 136 -35 181 -139 181h-245c-110 0 -146 -27 -146 -138v-691h491v521h-73v-63h-345v234
c0 56 12 68 76 68z" />
</svg>
