<?xml version="1.0" standalone="no"?>
<!DOCTYPE svg PUBLIC "-//W3C//DTD SVG 1.1//EN" "http://www.w3.org/Graphics/SVG/1.1/DTD/svg11.dtd" >
<svg xmlns="http://www.w3.org/2000/svg" xmlns:xlink="http://www.w3.org/1999/xlink" version="1.1" viewBox="-10 0 1010 1000">
   <path fill="currentColor"
d="M738 311v-157h-341v157h341zM811 90v285h-484v-285h484zM776 523h-244c-4 44 -10 84 -18 121h262v-121zM939 712h-367c58 115 183 168 388 180c-16 16 -35 46 -43 68c-228 -24 -356 -92 -419 -248h-3c-49 134 -159 210 -419 249c-5 -19 -21 -46 -33 -62
c225 -29 326 -86 374 -187h-355v-68h378c9 -36 14 -76 18 -121h-313v-393h73v326h632v188h89v68z" />
</svg>
