<?xml version="1.0" standalone="no"?>
<!DOCTYPE svg PUBLIC "-//W3C//DTD SVG 1.1//EN" "http://www.w3.org/Graphics/SVG/1.1/DTD/svg11.dtd" >
<svg xmlns="http://www.w3.org/2000/svg" xmlns:xlink="http://www.w3.org/1999/xlink" version="1.1" viewBox="-10 0 1010 1000">
   <path fill="currentColor"
d="M264 207h-120v417h120v-417zM332 693h-188v95h-67v-650h255v273c125 -62 146 -144 146 -219v-113h307v231c0 28 3 38 20 38h78c15 0 38 -2 51 -5c1 19 3 47 6 64c-13 4 -35 5 -55 5h-85c-70 0 -86 -29 -86 -104v-159h-167v45c0 94 -31 204 -174 274
c-8 -13 -27 -36 -41 -49v274zM785 552h-311c36 73 88 138 154 192c65 -52 121 -116 157 -192zM838 479l47 22c-41 120 -110 215 -195 286c74 47 164 81 263 101c-17 16 -38 46 -48 68c-106 -26 -200 -67 -278 -123c-87 59 -187 99 -291 126c-7 -21 -24 -52 -38 -68
c95 -21 188 -55 270 -105c-67 -61 -121 -133 -160 -218l44 -16h-83v-70h455z" />
</svg>
