<?xml version="1.0" standalone="no"?>
<!DOCTYPE svg PUBLIC "-//W3C//DTD SVG 1.1//EN" "http://www.w3.org/Graphics/SVG/1.1/DTD/svg11.dtd" >
<svg xmlns="http://www.w3.org/2000/svg" xmlns:xlink="http://www.w3.org/1999/xlink" version="1.1" viewBox="-10 0 1010 1000">
   <path fill="currentColor"
d="M289 216h-144v408h144v-408zM360 147v546h-215v87h-68v-633h283zM962 539v72h-246v345h-74v-345h-255v-72h255v-220h-142c-20 58 -43 110 -71 152c-13 -11 -46 -30 -63 -38c59 -81 93 -208 110 -340l73 12c-7 49 -17 97 -28 142h121v-191h74v191h220v72h-220v220h246z
" />
</svg>
