<?xml version="1.0" standalone="no"?>
<!DOCTYPE svg PUBLIC "-//W3C//DTD SVG 1.1//EN" "http://www.w3.org/Graphics/SVG/1.1/DTD/svg11.dtd" >
<svg xmlns="http://www.w3.org/2000/svg" xmlns:xlink="http://www.w3.org/1999/xlink" version="1.1" viewBox="-10 0 1010 1000">
   <path fill="currentColor"
d="M750 838v-165h-490v165h490zM944 486h-387v118h270v351h-77v-47h-490v48h-75v-352h297v-118h-421v-69h421v-159h-226c-30 51 -61 98 -93 135c-14 -11 -47 -32 -65 -42c68 -72 133 -185 173 -292l72 21c-14 36 -31 74 -50 110h189v-147h75v147h304v68h-304v159h387v69z
" />
</svg>
