<?xml version="1.0" standalone="no"?>
<!DOCTYPE svg PUBLIC "-//W3C//DTD SVG 1.1//EN" "http://www.w3.org/Graphics/SVG/1.1/DTD/svg11.dtd" >
<svg xmlns="http://www.w3.org/2000/svg" xmlns:xlink="http://www.w3.org/1999/xlink" version="1.1" viewBox="-10 0 1010 1000">
   <path fill="currentColor"
d="M733 312v-171h-337v171h337zM806 77v300h-481v-300h481zM361 764l70 47c-87 55 -221 113 -326 147c-13 -15 -36 -41 -54 -56c107 -32 241 -90 310 -138zM584 816l40 -51c118 41 243 95 320 136l-52 56c-72 -42 -191 -97 -308 -141zM845 655h100v69h-887v-69h713v-127
h-627v-397h74v330h627v194z" />
</svg>
