<?xml version="1.0" standalone="no"?>
<!DOCTYPE svg PUBLIC "-//W3C//DTD SVG 1.1//EN" "http://www.w3.org/Graphics/SVG/1.1/DTD/svg11.dtd" >
<svg xmlns="http://www.w3.org/2000/svg" xmlns:xlink="http://www.w3.org/1999/xlink" version="1.1" viewBox="-10 0 1010 1000">
   <path fill="currentColor"
d="M269 153v113h465v-113h-465zM193 88h620v244h-620v-244zM456 552h78v93c0 104 -45 232 -415 315c-9 -16 -32 -46 -49 -61c358 -70 386 -176 386 -256v-91zM528 812l37 -54c118 39 281 98 368 140l-39 62c-82 -42 -244 -106 -366 -148zM158 419h695v359h-79v-289h-541v296
h-75v-366z" />
</svg>
