<?xml version="1.0" standalone="no"?>
<!DOCTYPE svg PUBLIC "-//W3C//DTD SVG 1.1//EN" "http://www.w3.org/Graphics/SVG/1.1/DTD/svg11.dtd" >
<svg xmlns="http://www.w3.org/2000/svg" xmlns:xlink="http://www.w3.org/1999/xlink" version="1.1" viewBox="-10 0 1010 1000">
   <path fill="currentColor"
d="M895 111v68h-453v-68h453zM283 211h-133v404h133v-404zM353 686h-203v95h-69v-640h272v545zM468 516l69 16c-32 115 -87 228 -146 303c-13 -11 -44 -31 -62 -39c60 -70 109 -175 139 -280zM944 418h-251v455c0 41 -8 60 -36 72c-28 11 -72 12 -138 12
c-3 -20 -13 -49 -23 -69c48 2 94 2 108 1c14 0 18 -4 18 -17v-454h-240v-68h562v68zM779 535l64 -22c51 96 105 224 122 302l-67 28c-18 -80 -68 -210 -119 -308z" />
</svg>
