<?xml version="1.0" standalone="no"?>
<!DOCTYPE svg PUBLIC "-//W3C//DTD SVG 1.1//EN" "http://www.w3.org/Graphics/SVG/1.1/DTD/svg11.dtd" >
<svg xmlns="http://www.w3.org/2000/svg" xmlns:xlink="http://www.w3.org/1999/xlink" version="1.1" viewBox="-10 0 1010 1000">
   <path fill="currentColor"
d="M266 208h-125v407h125v-407zM330 139v545h-189v76h-63v-621h252zM457 825h393v-227h-12h-80c-59 0 -73 -17 -73 -84v-340h-75v176c0 119 -13 238 -111 327c-9 -11 -27 -27 -42 -37v185zM551 174h-94v456c84 -79 94 -180 94 -282v-174zM850 534v-360h-106v340
c0 19 2 23 21 23h66c12 0 15 -2 17 -5zM391 107h526v841h-67v-55h-393v64h-66v-850z" />
</svg>
