<?xml version="1.0" standalone="no"?>
<!DOCTYPE svg PUBLIC "-//W3C//DTD SVG 1.1//EN" "http://www.w3.org/Graphics/SVG/1.1/DTD/svg11.dtd" >
<svg xmlns="http://www.w3.org/2000/svg" xmlns:xlink="http://www.w3.org/1999/xlink" version="1.1" viewBox="-10 0 1010 1000">
   <path fill="currentColor"
d="M267 207h-121v417h121v-417zM336 138v555h-190v95h-69v-650h259zM957 920l-70 34c-12 -27 -29 -60 -48 -96c-367 43 -411 49 -440 62v2c-5 -16 -18 -56 -27 -77c20 -5 40 -29 66 -64c22 -29 90 -133 142 -242h-219v-70h246v-183h-208v-71h208v-172h76v172h231v71h-231
v183h271v70h-284c-50 102 -113 203 -176 284l309 -31c-27 -47 -54 -95 -80 -137l65 -27c59 93 133 219 169 292z" />
</svg>
