<?xml version="1.0" standalone="no"?>
<!DOCTYPE svg PUBLIC "-//W3C//DTD SVG 1.1//EN" "http://www.w3.org/Graphics/SVG/1.1/DTD/svg11.dtd" >
<svg xmlns="http://www.w3.org/2000/svg" xmlns:xlink="http://www.w3.org/1999/xlink" version="1.1" viewBox="-10 0 1010 1000">
   <path fill="currentColor"
d="M263 207h-120v417h120v-417zM329 137v556h-186v95h-66v-651h252zM840 874h30c11 0 19 -1 24 -6s10 -14 13 -25c1 -20 3 -66 2 -120c15 13 37 25 56 31c-1 51 -5 112 -9 134c-5 23 -15 36 -29 45c-13 10 -34 14 -53 14h-51c-21 0 -43 -5 -58 -19c-17 -15 -21 -31 -21 -83
v-471h-214c-11 163 -25 358 -36 468l218 -45c-2 19 -2 48 0 62c-256 59 -291 69 -311 82v-1c-5 -19 -20 -53 -30 -71c26 -7 49 -16 55 -53c10 -52 38 -498 48 -651h-119v-68h589v68h-400l-10 144h280v540c0 8 2 15 7 19c6 3 13 6 19 6zM693 681l-53 18
c-12 -60 -45 -151 -81 -220l50 -15c37 69 72 158 84 217z" />
</svg>
