<?xml version="1.0" standalone="no"?>
<!DOCTYPE svg PUBLIC "-//W3C//DTD SVG 1.1//EN" "http://www.w3.org/Graphics/SVG/1.1/DTD/svg11.dtd" >
<svg xmlns="http://www.w3.org/2000/svg" xmlns:xlink="http://www.w3.org/1999/xlink" version="1.1" viewBox="-10 0 1010 1000">
   <path fill="currentColor"
d="M277 222h-125v399h125v-399zM345 690h-193v88h-68v-625h261v537zM749 850h207v71h-501v-71h223v-284h-136v-30c-45 122 -102 230 -176 314c-11 -14 -40 -41 -56 -55c111 -118 182 -291 229 -496h-146v-71h162c10 -58 20 -118 29 -179l70 7c-8 59 -18 116 -29 172h318v71
h-333c-15 70 -34 135 -54 197h367v70h-174v284z" />
</svg>
