<?xml version="1.0" standalone="no"?>
<!DOCTYPE svg PUBLIC "-//W3C//DTD SVG 1.1//EN" "http://www.w3.org/Graphics/SVG/1.1/DTD/svg11.dtd" >
<svg xmlns="http://www.w3.org/2000/svg" xmlns:xlink="http://www.w3.org/1999/xlink" version="1.1" viewBox="-10 0 1010 1000">
   <path fill="currentColor"
d="M255 207h-113v417h113v-417zM320 693h-178v95h-64v-650h242v555zM459 559h134c5 -27 7 -55 8 -81h-131c-3 27 -7 56 -11 81zM672 417h150v-82h-150v82zM851 621h-177c46 137 136 237 287 276c-16 14 -35 42 -45 60c-142 -45 -230 -140 -282 -276
c-42 106 -123 204 -286 275c-8 -14 -29 -41 -46 -56c175 -69 248 -172 278 -279h-197c10 -55 21 -137 27 -204h192v-5v-77h-205v-61h205v-78h-242v-65h242v-88h70v88h262v65h-262v78h219v204h-220c-2 26 -4 54 -8 81h259s0 17 -1 26c-6 109 -13 153 -30 172
c-11 12 -26 18 -45 20c-15 1 -42 1 -68 0c-1 -17 -8 -39 -15 -53c23 3 42 3 51 3c10 0 14 -1 19 -8c8 -9 14 -35 18 -98z" />
</svg>
