<?xml version="1.0" standalone="no"?>
<!DOCTYPE svg PUBLIC "-//W3C//DTD SVG 1.1//EN" "http://www.w3.org/Graphics/SVG/1.1/DTD/svg11.dtd" >
<svg xmlns="http://www.w3.org/2000/svg" xmlns:xlink="http://www.w3.org/1999/xlink" version="1.1" viewBox="-10 0 1010 1000">
   <path fill="currentColor"
d="M271 207h-126v417h126v-417zM338 138v555h-193v95h-68v-650h261zM801 657h-284v182h284v-182zM448 955v-364h425v362h-72v-48h-284v50h-69zM544 221l-4 8c30 58 72 110 124 155c57 -47 106 -101 141 -163h-261zM862 150l43 28c-42 99 -108 181 -187 249
c72 50 158 90 250 114c-13 18 -24 48 -29 68c-102 -33 -196 -80 -274 -140c-87 63 -185 111 -286 144c-5 -20 -20 -53 -31 -68c93 -27 184 -68 263 -121c-44 -41 -81 -87 -111 -136c-29 40 -61 76 -93 105c-9 -13 -32 -44 -47 -58c80 -70 153 -178 196 -290l68 19
c-12 30 -26 60 -41 89h265z" />
</svg>
