<?xml version="1.0" standalone="no"?>
<!DOCTYPE svg PUBLIC "-//W3C//DTD SVG 1.1//EN" "http://www.w3.org/Graphics/SVG/1.1/DTD/svg11.dtd" >
<svg xmlns="http://www.w3.org/2000/svg" xmlns:xlink="http://www.w3.org/1999/xlink" version="1.1" viewBox="-10 0 1010 1000">
   <path fill="currentColor"
d="M820 43l77 27c-34 64 -76 138 -108 185l-60 -25c32 -50 71 -130 91 -187zM289 215h-142v397h142v-397zM360 681h-213v93h-68v-627h281v534zM428 80l62 -28c38 55 77 126 92 175l-66 33c-14 -50 -50 -125 -88 -180zM954 577h-253c43 151 129 268 267 319
c-17 14 -39 43 -50 62c-125 -53 -206 -155 -257 -293c-37 105 -121 209 -311 290c-11 -16 -33 -43 -51 -58c225 -87 290 -209 308 -320h-229v-71h235v-24v-152h-212v-70h528v70h-241v152v24h266v71z" />
</svg>
