<?xml version="1.0" standalone="no"?>
<!DOCTYPE svg PUBLIC "-//W3C//DTD SVG 1.1//EN" "http://www.w3.org/Graphics/SVG/1.1/DTD/svg11.dtd" >
<svg xmlns="http://www.w3.org/2000/svg" xmlns:xlink="http://www.w3.org/1999/xlink" version="1.1" viewBox="-10 0 1010 1000">
   <path fill="currentColor"
d="M629 651h-245v137h245v-137zM698 848h-314v60h-69v-316h383v256zM291 320v125h225v-125h-225zM720 157h-429v103h293v185h136v-288zM901 445v422c0 44 -10 65 -43 77c-32 12 -88 13 -169 13c-4 -22 -16 -51 -28 -71c67 2 126 2 144 0c18 0 23 -5 23 -19v-356h-647v447
h-73v-513h113v-355h572v355h108z" />
</svg>
