<?xml version="1.0" standalone="no"?>
<!DOCTYPE svg PUBLIC "-//W3C//DTD SVG 1.1//EN" "http://www.w3.org/Graphics/SVG/1.1/DTD/svg11.dtd" >
<svg xmlns="http://www.w3.org/2000/svg" xmlns:xlink="http://www.w3.org/1999/xlink" version="1.1" viewBox="-10 0 1010 1000">
   <path fill="currentColor"
d="M245 207h-102v417h102v-417zM310 138v555h-167v95h-66v-650h233zM836 758l-52 30c-26 -59 -74 -152 -122 -236c-22 87 -64 174 -145 250c-11 -14 -33 -33 -47 -43c110 -102 143 -225 152 -337h-130v-62h134v-37v-133h60v134v36h137v62h-140c-1 17 -3 32 -5 49
c58 94 125 215 158 287zM455 833h403v-676h-403v676zM388 89h540v861h-70v-49h-403v57h-67v-869z" />
</svg>
