<?xml version="1.0" standalone="no"?>
<!DOCTYPE svg PUBLIC "-//W3C//DTD SVG 1.1//EN" "http://www.w3.org/Graphics/SVG/1.1/DTD/svg11.dtd" >
<svg xmlns="http://www.w3.org/2000/svg" xmlns:xlink="http://www.w3.org/1999/xlink" version="1.1" viewBox="-10 0 1010 1000">
   <path fill="currentColor"
d="M267 212h-126v408h126v-408zM334 145v543h-193v85h-66v-628h259zM722 474h-129v193h129v-193zM778 726h-185v67h-56v-378h241v311zM809 259v62h-302v-62h302zM920 89v778c0 40 -7 63 -35 75c-26 12 -70 14 -138 13c-3 -18 -12 -51 -23 -70c49 2 96 1 110 1s19 -5 19 -20
v-710h-387v800h-67v-867h521z" />
</svg>
