<?xml version="1.0" standalone="no"?>
<!DOCTYPE svg PUBLIC "-//W3C//DTD SVG 1.1//EN" "http://www.w3.org/Graphics/SVG/1.1/DTD/svg11.dtd" >
<svg xmlns="http://www.w3.org/2000/svg" xmlns:xlink="http://www.w3.org/1999/xlink" version="1.1" viewBox="-10 0 1010 1000">
   <path fill="currentColor"
d="M258 205h-114v434h114v-434zM324 712h-180v77h-65v-656h245v579zM838 44l62 58c-117 39 -280 68 -431 88v210c0 163 -16 401 -118 561c-12 -12 -41 -29 -57 -35c99 -154 109 -371 109 -526v-266c156 -20 335 -53 435 -90zM879 420l51 54c-46 40 -97 83 -141 114
c41 124 97 227 174 288c-17 13 -41 39 -54 59c-128 -115 -198 -337 -236 -586c-21 5 -42 8 -63 12v472l123 -51c3 18 10 45 15 58c-169 77 -196 92 -211 107c-5 -17 -18 -47 -30 -63c16 -7 36 -24 36 -62v-514c105 -18 227 -45 294 -77l59 57c-47 19 -105 36 -165 49
c10 66 23 130 40 189c38 -33 81 -75 108 -106z" />
</svg>
