<?xml version="1.0" standalone="no"?>
<!DOCTYPE svg PUBLIC "-//W3C//DTD SVG 1.1//EN" "http://www.w3.org/Graphics/SVG/1.1/DTD/svg11.dtd" >
<svg xmlns="http://www.w3.org/2000/svg" xmlns:xlink="http://www.w3.org/1999/xlink" version="1.1" viewBox="-10 0 1010 1000">
   <path fill="currentColor"
d="M262 207h-119v417h119v-417zM326 138v555h-183v95h-66v-650h249zM723 444h-117v221h117v-221zM776 720h-170v57h-54v-388h224v331zM930 211v658c0 39 -8 59 -34 71s-67 14 -129 13c-3 -19 -14 -49 -23 -69c44 3 85 2 97 2c13 -1 17 -5 17 -18v-592h-387v674h-71v-739h170
c22 -52 44 -120 56 -170l83 18c-19 50 -42 106 -63 152h284z" />
</svg>
