<?xml version="1.0" standalone="no"?>
<!DOCTYPE svg PUBLIC "-//W3C//DTD SVG 1.1//EN" "http://www.w3.org/Graphics/SVG/1.1/DTD/svg11.dtd" >
<svg xmlns="http://www.w3.org/2000/svg" xmlns:xlink="http://www.w3.org/1999/xlink" version="1.1" viewBox="-10 0 1010 1000">
   <path fill="currentColor"
d="M830 227l65 26c-46 56 -110 103 -183 143c43 45 91 71 137 70c28 0 37 -26 42 -99c14 13 36 23 55 28c-12 107 -36 137 -100 137c-70 0 -139 -39 -197 -105c-72 33 -150 60 -226 80c-8 -15 -30 -45 -45 -59c80 -17 160 -41 232 -72c-27 -42 -51 -91 -70 -145l-150 16
l-11 -64l144 -14c-10 -42 -17 -84 -20 -128h69c3 42 9 82 19 120l322 -34l10 62l-314 35c18 46 39 88 63 122c64 -33 120 -73 158 -119zM275 207h-128v417h128v-417zM342 693h-195v95h-67v-650h262v555zM791 877h76c21 0 25 -18 28 -125c15 12 43 23 62 28
c-6 124 -23 157 -84 157h-92c-72 0 -89 -20 -89 -88v-216h-102c-15 160 -58 262 -217 323c-8 -19 -28 -49 -45 -62c141 -47 177 -130 189 -261h-145v-64h574v64h-181v217c0 24 4 27 26 27z" />
</svg>
