<?xml version="1.0" standalone="no"?>
<!DOCTYPE svg PUBLIC "-//W3C//DTD SVG 1.1//EN" "http://www.w3.org/Graphics/SVG/1.1/DTD/svg11.dtd" >
<svg xmlns="http://www.w3.org/2000/svg" xmlns:xlink="http://www.w3.org/1999/xlink" version="1.1" viewBox="-10 0 1010 1000">
   <path fill="currentColor"
d="M668 442v-60c-26 17 -53 32 -78 46c-10 -14 -29 -37 -46 -49c39 -20 82 -47 124 -77v-244h69v192c54 -44 104 -93 141 -143l51 52c-51 63 -120 124 -192 176v100c0 31 8 38 35 38h82c28 0 35 -20 38 -106c19 13 42 23 61 27c-8 104 -20 135 -98 135h-92
c-68 0 -95 -18 -95 -87zM266 210h-120v442h120v-442zM332 140v582h-186v74h-67v-656h253zM455 558v-230c-21 32 -44 60 -67 84c-6 -15 -27 -51 -39 -67c71 -73 135 -185 170 -302l66 18c-16 52 -37 103 -61 152v345h-69zM693 549v96h257v68h-257v247h-73v-247h-250v-68h250
v-96h73z" />
</svg>
