<?xml version="1.0" standalone="no"?>
<!DOCTYPE svg PUBLIC "-//W3C//DTD SVG 1.1//EN" "http://www.w3.org/Graphics/SVG/1.1/DTD/svg11.dtd" >
<svg xmlns="http://www.w3.org/2000/svg" xmlns:xlink="http://www.w3.org/1999/xlink" version="1.1" viewBox="-10 0 1010 1000">
   <path fill="currentColor"
d="M836 447h-177c-97 0 -124 -21 -124 -99v-283h73v139c92 -30 189 -70 250 -102l50 56c-85 39 -197 77 -300 108v81c0 31 8 36 57 36h165c41 0 48 -17 52 -117c17 11 46 22 66 27c-9 122 -31 154 -112 154zM363 352v-195h-179v195h179zM435 97v316h-319v-316h319zM563 476
l56 -23c68 83 208 148 349 175c-17 16 -39 44 -50 64c-50 -13 -101 -32 -148 -55l-2 16c-18 170 -37 242 -66 269c-19 19 -38 25 -69 26c-26 2 -77 1 -131 -1c-1 -20 -9 -48 -20 -66c52 5 103 6 123 6c19 0 28 -1 37 -10c20 -17 36 -71 50 -196h-221
c-47 166 -171 238 -359 277c-6 -16 -23 -46 -36 -60c171 -25 283 -85 320 -217h-175v-52c-48 24 -99 46 -147 63c-7 -14 -26 -45 -37 -60c123 -36 259 -99 328 -178l59 25c-46 55 -115 103 -188 142h503c-71 -39 -134 -89 -176 -145z" />
</svg>
