<?xml version="1.0" standalone="no"?>
<!DOCTYPE svg PUBLIC "-//W3C//DTD SVG 1.1//EN" "http://www.w3.org/Graphics/SVG/1.1/DTD/svg11.dtd" >
<svg xmlns="http://www.w3.org/2000/svg" xmlns:xlink="http://www.w3.org/1999/xlink" version="1.1" viewBox="-10 0 1010 1000">
   <path fill="currentColor"
d="M237 657v-469h-100v469h100zM466 45l65 16c-19 66 -42 131 -69 192v701h-65v-577c-24 40 -50 76 -78 107c-4 -8 -12 -20 -20 -32v273h-162v79h-62v-684h224v277c73 -90 132 -218 167 -352zM695 387h-106v226h106v-226zM753 672h-164v60h-57v-404h221v344zM958 120v66h-66
v681c0 43 -10 64 -39 76c-28 11 -77 13 -146 13c-4 -19 -14 -50 -25 -70c56 2 107 2 123 1c15 -1 20 -5 20 -20v-681h-304v-66h437z" />
</svg>
