<?xml version="1.0" standalone="no"?>
<!DOCTYPE svg PUBLIC "-//W3C//DTD SVG 1.1//EN" "http://www.w3.org/Graphics/SVG/1.1/DTD/svg11.dtd" >
<svg xmlns="http://www.w3.org/2000/svg" xmlns:xlink="http://www.w3.org/1999/xlink" version="1.1" viewBox="-10 0 1010 1000">
   <path fill="currentColor"
d="M266 207h-121v417h121v-417zM334 138v555h-189v95h-68v-650h257zM886 46l41 62c-139 40 -357 68 -538 84c-3 -17 -12 -43 -20 -60c180 -18 394 -49 517 -86zM861 172l64 16c-25 76 -59 164 -89 221c-14 -9 -43 -22 -60 -28c32 -57 64 -138 85 -209zM720 373l-68 21
c-10 -45 -36 -122 -57 -180l63 -15c24 56 50 131 62 174zM548 395l-66 22c-13 -45 -45 -120 -73 -176l62 -18c29 54 62 129 77 172zM440 657l56 -37c44 51 102 121 131 162l-59 42c-28 -42 -84 -114 -128 -167zM953 528v68h-128v267c0 43 -11 63 -42 74
c-32 12 -85 13 -164 13c-4 -21 -16 -50 -27 -70c63 2 122 2 138 1c18 -1 22 -5 22 -19v-266h-378v-68h378v-96h73v96h128z" />
</svg>
