<?xml version="1.0" standalone="no"?>
<!DOCTYPE svg PUBLIC "-//W3C//DTD SVG 1.1//EN" "http://www.w3.org/Graphics/SVG/1.1/DTD/svg11.dtd" >
<svg xmlns="http://www.w3.org/2000/svg" xmlns:xlink="http://www.w3.org/1999/xlink" version="1.1" viewBox="-10 0 1010 1000">
   <path fill="currentColor"
d="M264 193h-123v396h123v-396zM330 124v534h-189v87h-65v-621h254zM853 531l48 38c-57 45 -134 88 -205 119v191c0 38 -8 55 -38 66s-77 10 -152 10c-4 -19 -14 -43 -24 -62c57 1 108 1 123 1c14 -1 18 -4 18 -17v-213c42 -18 90 -42 129 -67h-336v-62h422zM807 419v-95
h-294v95h294zM878 271v202h-434v-202h434zM707 145h246v65h-578v-65h254c-13 -28 -28 -61 -42 -87l66 -19c17 32 39 75 54 106z" />
</svg>
