<?xml version="1.0" standalone="no"?>
<!DOCTYPE svg PUBLIC "-//W3C//DTD SVG 1.1//EN" "http://www.w3.org/Graphics/SVG/1.1/DTD/svg11.dtd" >
<svg xmlns="http://www.w3.org/2000/svg" xmlns:xlink="http://www.w3.org/1999/xlink" version="1.1" viewBox="-10 0 1010 1000">
   <path fill="currentColor"
d="M825 361v-182h-206v182h206zM898 113v314h-350v-314h350zM409 209h-129c-23 119 -75 204 -194 257c-7 -16 -28 -41 -42 -53c100 -44 145 -110 165 -204h-143v-64h154c3 -31 5 -65 7 -101h70c-2 36 -4 70 -8 101l195 1s-1 19 -2 28c-11 152 -22 214 -45 238
c-15 17 -31 23 -55 25c-21 2 -60 1 -100 -1c-1 -19 -9 -46 -19 -64c38 4 72 5 86 5s22 -1 30 -9c12 -13 21 -55 30 -159zM464 678h-220v117h220v-117zM534 617v238h-290v54h-72v-292h362zM937 490v66h-138v315c0 41 -10 62 -42 74c-33 11 -89 12 -170 12
c-4 -22 -15 -49 -26 -69c66 2 125 2 141 0c17 0 22 -4 22 -18v-314h-665v-66h878z" />
</svg>
