<?xml version="1.0" standalone="no"?>
<!DOCTYPE svg PUBLIC "-//W3C//DTD SVG 1.1//EN" "http://www.w3.org/Graphics/SVG/1.1/DTD/svg11.dtd" >
<svg xmlns="http://www.w3.org/2000/svg" xmlns:xlink="http://www.w3.org/1999/xlink" version="1.1" viewBox="-10 0 1010 1000">
   <path fill="currentColor"
d="M711 179l-71 28c-13 -38 -44 -98 -71 -141l68 -24c30 43 61 99 74 137zM258 207h-115v417h115v-417zM323 138v555h-180v95h-66v-650h246zM814 694h-331v162h331v-162zM414 958v-326h473v323h-73v-37h-331v40h-69zM431 550v-61h446v61h-446zM877 350v61h-446v-61h446z
M365 208h577v63h-577v-63z" />
</svg>
