<?xml version="1.0" standalone="no"?>
<!DOCTYPE svg PUBLIC "-//W3C//DTD SVG 1.1//EN" "http://www.w3.org/Graphics/SVG/1.1/DTD/svg11.dtd" >
<svg xmlns="http://www.w3.org/2000/svg" xmlns:xlink="http://www.w3.org/1999/xlink" version="1.1" viewBox="-10 0 1010 1000">
   <path fill="currentColor"
d="M264 207h-121v417h121v-417zM329 138v555h-186v95h-66v-650h252zM800 860v-165h-312v165h312zM818 404l53 26c-45 62 -104 139 -158 202h161v322h-74v-31h-312v34h-71v-325h281l-54 -23c36 -43 78 -95 110 -138h-335v-62h386zM574 271l53 -31c40 38 84 86 107 117l-58 35
c-21 -32 -65 -84 -102 -121zM644 37l60 24c-7 12 -14 23 -22 34c68 80 189 169 286 216c-15 17 -32 45 -41 64c-93 -56 -207 -145 -282 -229c-77 97 -175 181 -270 239c-8 -15 -29 -48 -41 -62c119 -65 239 -169 310 -286z" />
</svg>
