<?xml version="1.0" standalone="no"?>
<!DOCTYPE svg PUBLIC "-//W3C//DTD SVG 1.1//EN" "http://www.w3.org/Graphics/SVG/1.1/DTD/svg11.dtd" >
<svg xmlns="http://www.w3.org/2000/svg" xmlns:xlink="http://www.w3.org/1999/xlink" version="1.1" viewBox="-10 0 1010 1000">
   <path fill="currentColor"
d="M934 258l-45 56c-53 -32 -127 -69 -211 -103c-91 44 -191 80 -283 108c-10 -15 -33 -44 -48 -57c83 -21 172 -49 252 -84c-67 -25 -136 -48 -200 -65l45 -50c75 20 157 48 235 78c58 -29 110 -63 150 -98l64 30c-39 36 -87 69 -140 99c70 29 133 60 181 86zM255 207h-116
v417h116v-417zM323 138v555h-184v95h-66v-650h250zM952 427h-374c-22 42 -47 82 -73 118h132v-89h67v89h205v250c0 34 -5 52 -29 63c-22 11 -57 11 -108 11c-3 -19 -12 -44 -20 -62c35 1 65 1 75 0c10 0 13 -3 13 -12v-185h-136v347h-67v-347h-128v261h-68v-251
c-20 22 -42 42 -64 60c-10 -14 -35 -40 -51 -52c68 -50 129 -120 176 -201h-139v-65h172c15 -32 29 -67 39 -102l68 16c-10 29 -21 59 -33 86h343v65z" />
</svg>
