<?xml version="1.0" standalone="no"?>
<!DOCTYPE svg PUBLIC "-//W3C//DTD SVG 1.1//EN" "http://www.w3.org/Graphics/SVG/1.1/DTD/svg11.dtd" >
<svg xmlns="http://www.w3.org/2000/svg" xmlns:xlink="http://www.w3.org/1999/xlink" version="1.1" viewBox="-10 0 1010 1000">
   <path fill="currentColor"
d="M262 215h-122v396h122v-396zM325 679h-185v86h-62v-617h247v531zM590 694v160h102v-160h-102zM435 372v258h96v-258h-96zM590 176v133h102v-133h-102zM853 630v-258h-101v258h101zM692 372h-102v258h102v-258zM760 854h198v69h-659v-69h225v-160h-153v-385h153v-133h-179
v-67h600v67h-185v133h160v385h-160v160z" />
</svg>
