<?xml version="1.0" standalone="no"?>
<!DOCTYPE svg PUBLIC "-//W3C//DTD SVG 1.1//EN" "http://www.w3.org/Graphics/SVG/1.1/DTD/svg11.dtd" >
<svg xmlns="http://www.w3.org/2000/svg" xmlns:xlink="http://www.w3.org/1999/xlink" version="1.1" viewBox="-10 0 1010 1000">
   <path fill="currentColor"
d="M290 448l408 -19c-30 -23 -62 -45 -90 -65l56 -30h-233c-46 42 -94 81 -141 114zM173 525v-4c-1 2 -2 4 -2 6c-4 -15 -15 -52 -23 -72c18 -3 39 -14 63 -30c19 -12 67 -47 114 -91h-261v-62h398v-88h-315v-61h315v-79h75v79h319v61h-319v88h396v62h-260
c80 54 180 129 232 176l-63 39c-19 -19 -45 -41 -74 -65c-511 27 -562 29 -595 41zM372 638h-187v178h187v-178zM442 578v298h-257v49h-69v-347h326zM666 872h172c41 0 49 -16 53 -117c17 12 46 23 66 27c-9 123 -31 155 -113 155h-184c-98 0 -125 -22 -125 -100v-287h73
v134c94 -31 193 -71 255 -105l50 57c-86 39 -201 79 -305 110v90c0 30 8 36 58 36z" />
</svg>
