<?xml version="1.0" standalone="no"?>
<!DOCTYPE svg PUBLIC "-//W3C//DTD SVG 1.1//EN" "http://www.w3.org/Graphics/SVG/1.1/DTD/svg11.dtd" >
<svg xmlns="http://www.w3.org/2000/svg" xmlns:xlink="http://www.w3.org/1999/xlink" version="1.1" viewBox="-10 0 1010 1000">
   <path fill="currentColor"
d="M852 83l68 23c-38 62 -86 132 -125 177l-56 -21c37 -48 86 -126 113 -179zM414 310h204v-273h69v273h192v462h-74v-392h-319v394h-72v-464zM562 258l-59 31c-20 -51 -68 -128 -114 -185l56 -27c47 55 95 131 117 181zM263 195h-119v452h119v-452zM330 713h-186v84h-65
v-669h251v585zM680 434v170c0 122 -41 263 -324 352c-10 -16 -30 -42 -46 -56c272 -76 297 -199 297 -296v-170h73zM651 815l41 -49c91 35 211 92 274 133l-43 56c-60 -41 -178 -102 -272 -140z" />
</svg>
