<?xml version="1.0" standalone="no"?>
<!DOCTYPE svg PUBLIC "-//W3C//DTD SVG 1.1//EN" "http://www.w3.org/Graphics/SVG/1.1/DTD/svg11.dtd" >
<svg xmlns="http://www.w3.org/2000/svg" xmlns:xlink="http://www.w3.org/1999/xlink" version="1.1" viewBox="-10 0 1010 1000">
   <path fill="currentColor"
d="M961 468l-63 21c-10 -73 -49 -186 -88 -270l58 -19c42 84 80 194 93 268zM768 43v593h-69v-593h69zM587 203l67 13c-24 129 -62 261 -108 347c-13 -10 -42 -27 -59 -35c46 -81 81 -205 100 -325zM550 159l-49 54c-28 -31 -87 -77 -134 -108l47 -48c46 29 107 72 136 102z
M502 407l-48 53c-27 -28 -83 -68 -127 -94l46 -47c44 23 101 61 129 88zM250 178h-104v467h104v-467zM314 117v590h-168v97h-66v-687h234zM440 578l59 39c-32 106 -78 232 -116 325l-67 -37c37 -80 88 -212 124 -327zM858 514l65 17c-56 212 -178 350 -391 425
c-7 -20 -25 -45 -42 -62c201 -62 316 -186 368 -380z" />
</svg>
