<?xml version="1.0" standalone="no"?>
<!DOCTYPE svg PUBLIC "-//W3C//DTD SVG 1.1//EN" "http://www.w3.org/Graphics/SVG/1.1/DTD/svg11.dtd" >
<svg xmlns="http://www.w3.org/2000/svg" xmlns:xlink="http://www.w3.org/1999/xlink" version="1.1" viewBox="-10 0 1010 1000">
   <path fill="currentColor"
d="M561 553v93h219v-93h-219zM780 252h-219v89h219v-89zM561 401v92h219v-92h-219zM960 646v67h-592v-67h122v-394h-100v-68h100v-140h71v140h219v-140h72v140h94v68h-94v394h108zM264 207h-121v417h121v-417zM330 138v555h-187v95h-66v-650h253zM546 732l68 38
c-52 68 -139 143 -214 189c-13 -15 -37 -39 -53 -52c75 -43 158 -116 199 -175zM728 772l56 -37c64 52 143 129 180 179l-59 42c-35 -51 -111 -130 -177 -184z" />
</svg>
