<?xml version="1.0" standalone="no"?>
<!DOCTYPE svg PUBLIC "-//W3C//DTD SVG 1.1//EN" "http://www.w3.org/Graphics/SVG/1.1/DTD/svg11.dtd" >
<svg xmlns="http://www.w3.org/2000/svg" xmlns:xlink="http://www.w3.org/1999/xlink" version="1.1" viewBox="-10 0 1010 1000">
   <path fill="currentColor"
d="M915 148v64h-531v-64h231c-16 -28 -34 -60 -52 -85l70 -17c23 30 49 71 64 102h218zM589 346l-63 28c-13 -33 -43 -88 -72 -127l61 -24c30 39 62 90 74 123zM945 380v65h-587v-65h331c28 -43 60 -109 78 -155l69 20c-23 45 -50 95 -73 135h182zM252 207h-111v417h111
v-417zM318 138v555h-177v95h-65v-650h242zM760 619h-198c-20 33 -40 64 -59 91c54 18 111 37 166 60c42 -39 71 -89 91 -151zM956 619h-121c-19 74 -51 133 -96 180c74 33 141 68 188 99l-50 57c-47 -33 -117 -71 -195 -107c-78 54 -185 88 -328 108c-6 -21 -19 -49 -32 -65
c121 -13 215 -37 283 -76c-68 -28 -140 -54 -206 -73c27 -34 57 -77 86 -123h-140v-64h178c19 -36 38 -73 52 -106l69 15c-12 29 -28 61 -45 91h357v64z" />
</svg>
