<?xml version="1.0" standalone="no"?>
<!DOCTYPE svg PUBLIC "-//W3C//DTD SVG 1.1//EN" "http://www.w3.org/Graphics/SVG/1.1/DTD/svg11.dtd" >
<svg xmlns="http://www.w3.org/2000/svg" xmlns:xlink="http://www.w3.org/1999/xlink" version="1.1" viewBox="-10 0 1010 1000">
   <path fill="currentColor"
d="M255 624v-417h-111v417h111zM898 289l52 54c-38 32 -84 66 -130 97c27 137 81 280 149 349c-17 13 -41 39 -53 57c-70 -77 -121 -224 -149 -370c-17 10 -33 21 -48 30c49 174 21 353 -39 405c-29 29 -56 39 -100 40c-20 0 -55 -1 -84 -3c0 -21 -6 -49 -18 -70
c33 4 67 5 87 5c26 0 43 -3 61 -23c32 -28 54 -124 44 -236c-80 91 -199 179 -302 228c-10 -18 -26 -42 -41 -57c119 -47 261 -153 330 -251c-7 -30 -15 -60 -27 -90c-30 29 -65 60 -102 88c15 25 26 49 34 69l-49 34c-7 -20 -18 -44 -33 -70c-35 24 -72 45 -105 62
c-9 -18 -27 -42 -41 -56c36 -15 75 -35 114 -59c-14 -22 -30 -45 -46 -64l47 -29c16 20 32 41 47 62c42 -29 80 -62 108 -93c-14 -27 -32 -53 -52 -77c-62 46 -129 85 -194 116c-7 -10 -23 -32 -37 -48v304h-177v95h-67v-649h244v237c106 -45 215 -113 292 -190h-254v-71
h581v71h-240c-29 34 -62 66 -100 97c45 49 77 104 99 163c69 -46 149 -108 199 -157z" />
</svg>
