<?xml version="1.0" standalone="no"?>
<!DOCTYPE svg PUBLIC "-//W3C//DTD SVG 1.1//EN" "http://www.w3.org/Graphics/SVG/1.1/DTD/svg11.dtd" >
<svg xmlns="http://www.w3.org/2000/svg" xmlns:xlink="http://www.w3.org/1999/xlink" version="1.1" viewBox="-10 0 1010 1000">
   <path fill="currentColor"
d="M397 439l53 25c-51 60 -130 127 -193 170c-5 -12 -23 -45 -34 -58c59 -37 128 -87 174 -137zM618 658h-238v116h238v-116zM680 829h-300v46h-65v-273h365v227zM798 578l-44 52c-43 -41 -129 -107 -195 -154l42 -44c65 44 152 107 197 146zM882 359v515
c0 39 -10 56 -39 67c-30 9 -80 10 -165 10c-4 -18 -13 -41 -23 -57c62 2 120 1 136 0s22 -5 22 -21v-452h-620v534h-71v-596h461c27 -41 57 -96 74 -136l79 17c-25 41 -51 84 -77 119h223zM276 239l67 -22c21 34 50 82 63 111l-68 27c-13 -29 -40 -79 -62 -116zM561 151h376
v64h-872v-64h415c-11 -30 -25 -65 -39 -92l72 -19c17 35 37 78 48 111z" />
</svg>
