<?xml version="1.0" standalone="no"?>
<!DOCTYPE svg PUBLIC "-//W3C//DTD SVG 1.1//EN" "http://www.w3.org/Graphics/SVG/1.1/DTD/svg11.dtd" >
<svg xmlns="http://www.w3.org/2000/svg" xmlns:xlink="http://www.w3.org/1999/xlink" version="1.1" viewBox="-10 0 1010 1000">
   <path fill="currentColor"
d="M266 207h-121v417h121v-417zM334 138v555h-189v95h-68v-650h257zM774 223h-211c-45 81 -100 153 -158 207c-14 -13 -43 -37 -60 -46c96 -81 177 -206 222 -341l71 19c-12 32 -25 64 -40 94h213l11 -4l51 32c-35 82 -94 181 -144 246c-15 -12 -39 -28 -55 -36
c36 -45 73 -112 100 -171zM672 464h243v488h-72v-49h-363v50h-72v-463c73 -26 153 -62 201 -92l56 50c-54 28 -120 54 -185 76v124h164v61h-164v131h363v-130h-161v-62h161v-121h-171v-63z" />
</svg>
