<?xml version="1.0" standalone="no"?>
<!DOCTYPE svg PUBLIC "-//W3C//DTD SVG 1.1//EN" "http://www.w3.org/Graphics/SVG/1.1/DTD/svg11.dtd" >
<svg xmlns="http://www.w3.org/2000/svg" xmlns:xlink="http://www.w3.org/1999/xlink" version="1.1" viewBox="-10 0 1010 1000">
   <path fill="currentColor"
d="M241 179h-100v466h100v-466zM298 117v590h-157v97h-57v-687h214zM632 638l7 62l-110 32v225h-66v-208c-47 14 -92 26 -132 36l-17 -69c41 -9 93 -22 149 -36v-144h-63c-31 0 -60 6 -68 14c-4 -13 -13 -45 -21 -60c16 -4 28 -36 44 -80c10 -26 31 -95 51 -179h-85v-67h98
c8 -38 15 -78 19 -117l67 10c-6 35 -14 72 -22 107h121v67h-137c-22 86 -49 168 -78 237h85v-159h54v159h91v68h-90v128zM954 414h-199c-8 39 -14 76 -20 109h139l11 -4l50 15c-34 80 -86 190 -130 279c32 38 58 75 75 106l-56 36c-34 -65 -114 -166 -183 -237l52 -32
c22 23 46 47 68 73c27 -55 55 -117 77 -167h-185c11 -49 24 -111 37 -178h-96v-69h109c7 -38 13 -76 20 -114h-99v-69h109c6 -41 12 -81 17 -118h66c-5 38 -12 77 -18 118h131v69h-142c-7 38 -13 76 -20 114h187v69z" />
</svg>
