<?xml version="1.0" standalone="no"?>
<!DOCTYPE svg PUBLIC "-//W3C//DTD SVG 1.1//EN" "http://www.w3.org/Graphics/SVG/1.1/DTD/svg11.dtd" >
<svg xmlns="http://www.w3.org/2000/svg" xmlns:xlink="http://www.w3.org/1999/xlink" version="1.1" viewBox="-10 0 1010 1000">
   <path fill="currentColor"
d="M242 207h-105v417h105v-417zM305 138v555h-168v95h-61v-650h229zM846 828v-382h69v498h-69v-49h-457v-448h70v381h387zM631 422h67c-6 50 -14 101 -28 148c55 51 117 119 146 165l-51 38c-24 -38 -70 -94 -117 -142c-27 62 -66 116 -126 156c-10 -16 -30 -38 -45 -49
c111 -69 141 -197 154 -316zM703 334h254v65h-616v-65h107v-224h69v224h116v-285h70v104h194v63h-194v118z" />
</svg>
