<?xml version="1.0" standalone="no"?>
<!DOCTYPE svg PUBLIC "-//W3C//DTD SVG 1.1//EN" "http://www.w3.org/Graphics/SVG/1.1/DTD/svg11.dtd" >
<svg xmlns="http://www.w3.org/2000/svg" xmlns:xlink="http://www.w3.org/1999/xlink" version="1.1" viewBox="-10 0 1010 1000">
   <path fill="currentColor"
d="M260 207h-120v417h120v-417zM322 693h-182v95h-63v-650h245v555zM469 454h191v-110h-190v42c0 22 0 44 -1 68zM850 152h-380v127h380v-127zM856 855v-151h-304v151h304zM954 518h-224v123h194v313h-68v-37h-304v41h-65v-317h173v-123h-194c-9 147 -37 315 -119 437
c-13 -13 -42 -33 -59 -40c103 -153 112 -370 112 -529v-299h520v257h-190v110h224v64z" />
</svg>
