<?xml version="1.0" standalone="no"?>
<!DOCTYPE svg PUBLIC "-//W3C//DTD SVG 1.1//EN" "http://www.w3.org/Graphics/SVG/1.1/DTD/svg11.dtd" >
<svg xmlns="http://www.w3.org/2000/svg" xmlns:xlink="http://www.w3.org/1999/xlink" version="1.1" viewBox="-10 0 1010 1000">
   <path fill="currentColor"
d="M377 642h-217v201h217v-201zM91 951v-377h358v373h-72v-38h-217v42h-69zM299 44v140h174v70h-174v156h165v69h-399v-69h162v-156h-184v-70h184v-140h72zM843 643h-226v203h226v-203zM547 955v-380h369v376h-73v-38h-226v42h-70zM957 254h-195v156h174v69h-417v-69h169
v-156h-190v-70h190v-140h74v140h195v70z" />
</svg>
