<?xml version="1.0" standalone="no"?>
<!DOCTYPE svg PUBLIC "-//W3C//DTD SVG 1.1//EN" "http://www.w3.org/Graphics/SVG/1.1/DTD/svg11.dtd" >
<svg xmlns="http://www.w3.org/2000/svg" xmlns:xlink="http://www.w3.org/1999/xlink" version="1.1" viewBox="-10 0 1010 1000">
   <path fill="currentColor"
d="M246 207h-107v417h107v-417zM311 693h-172v95h-64v-650h236v555zM500 257h256c6 -32 12 -65 16 -92h-246c-9 32 -18 64 -26 92zM886 475l50 44c-39 28 -86 54 -134 79c29 116 85 221 165 270c-16 12 -36 37 -46 55c-84 -58 -139 -171 -170 -299c-19 9 -37 17 -53 25
c51 118 33 235 -24 278c-30 24 -56 31 -93 31c-21 1 -49 0 -76 -1c-1 -19 -7 -45 -18 -63c32 3 60 4 79 4c23 0 41 -3 58 -18c31 -21 46 -82 32 -154c-88 79 -218 151 -331 190c-8 -16 -23 -40 -37 -54c125 -35 270 -113 349 -194c-7 -19 -17 -39 -30 -59
c-68 52 -168 107 -247 137c-9 -15 -24 -37 -38 -50c83 -26 189 -78 255 -128c-13 -14 -28 -29 -44 -44c-51 29 -106 53 -156 72c-8 -13 -29 -40 -41 -51c82 -26 172 -64 240 -109h-240v-61h397c4 -19 9 -40 13 -61h-332c22 -71 51 -185 69 -271l70 8c-4 19 -9 38 -14 58h249
l12 -4l50 9c-12 76 -31 177 -48 261h152v61h-289c-24 21 -51 40 -81 59c37 32 66 67 89 104c72 -35 159 -85 213 -124z" />
</svg>
