<?xml version="1.0" standalone="no"?>
<!DOCTYPE svg PUBLIC "-//W3C//DTD SVG 1.1//EN" "http://www.w3.org/Graphics/SVG/1.1/DTD/svg11.dtd" >
<svg xmlns="http://www.w3.org/2000/svg" xmlns:xlink="http://www.w3.org/1999/xlink" version="1.1" viewBox="-10 0 1010 1000">
   <path fill="currentColor"
d="M254 207h-115v417h115v-417zM318 138v555h-179v95h-63v-650h242zM489 428v90h315v-90h-315zM708 693v87h241v59h-241v116h-71v-116h-247c11 -38 23 -92 30 -137l66 6c-4 23 -9 49 -14 72h165v-87h-258v-57h258v-63h-217v-200h456v200h-168v63h204v57h-204zM786 181h-176
c-7 29 -15 59 -22 83h198v-83zM855 264h100v59h-599v-59h160c8 -25 16 -54 24 -83h-123v-58h137c6 -27 12 -55 17 -80l70 7c-5 23 -11 48 -17 73h231v141z" />
</svg>
