<?xml version="1.0" standalone="no"?>
<!DOCTYPE svg PUBLIC "-//W3C//DTD SVG 1.1//EN" "http://www.w3.org/Graphics/SVG/1.1/DTD/svg11.dtd" >
<svg xmlns="http://www.w3.org/2000/svg" xmlns:xlink="http://www.w3.org/1999/xlink" version="1.1" viewBox="-10 0 1010 1000">
   <path fill="currentColor"
d="M262 207h-116v417h116v-417zM331 138v555h-185v95h-69v-650h254zM685 839h155v-136h-119v-63h119v-128h-129v-64h202v510h-73v-53h-374v51h-71v-484c56 -15 124 -38 165 -58l40 60c-41 15 -89 29 -134 40v126h119v63h-119v136h148v-494h-251v-66h251v-122
c-67 7 -134 12 -196 15c-3 -17 -13 -41 -21 -57c158 -10 355 -31 461 -65l42 57c-58 18 -134 32 -215 42v130h270v66h-270v494z" />
</svg>
