<?xml version="1.0" standalone="no"?>
<!DOCTYPE svg PUBLIC "-//W3C//DTD SVG 1.1//EN" "http://www.w3.org/Graphics/SVG/1.1/DTD/svg11.dtd" >
<svg xmlns="http://www.w3.org/2000/svg" xmlns:xlink="http://www.w3.org/1999/xlink" version="1.1" viewBox="-10 0 1010 1000">
   <path fill="currentColor"
d="M803 226v-94h-193v94h193zM872 82v194h-330v-194h330zM392 226v-94h-191v94h191zM462 82v194h-328v-194h328zM233 614h226v-86h-226v86zM233 386v85h226v-85h-226zM773 471v-85h-238v85h238zM773 614v-86h-238v86h238zM941 750v65h-406v141h-76v-141h-398v-65h398v-76
h-298v-348h688v348h-314v76h406z" />
</svg>
