<?xml version="1.0" standalone="no"?>
<!DOCTYPE svg PUBLIC "-//W3C//DTD SVG 1.1//EN" "http://www.w3.org/Graphics/SVG/1.1/DTD/svg11.dtd" >
<svg xmlns="http://www.w3.org/2000/svg" xmlns:xlink="http://www.w3.org/1999/xlink" version="1.1" viewBox="-10 0 1010 1000">
   <path fill="currentColor"
d="M621 625l-55 18c-2 -16 -6 -35 -10 -54c-174 32 -201 40 -216 50c-3 -14 -14 -45 -21 -61c18 -5 36 -30 61 -68c12 -17 39 -61 69 -117c-85 11 -105 16 -116 21c-4 -13 -14 -45 -22 -62c15 -3 29 -25 44 -55c17 -30 69 -145 95 -252l64 25c-30 94 -72 192 -116 270l81 -8
c22 -42 42 -88 58 -132l58 28c-50 115 -115 233 -180 327l127 -20c-9 -32 -18 -66 -28 -95l52 -14c23 65 47 149 55 199zM223 157h-85v466h85v-466zM284 95v590h-146v98h-61v-688h207zM355 682l56 9c-12 86 -29 179 -50 240c-13 -6 -39 -14 -53 -18c24 -62 38 -151 47 -231z
M441 692l51 -11c9 68 16 154 17 212l-55 12c1 -59 -5 -145 -13 -213zM528 676l50 -15c19 62 40 141 49 193l-52 16c-8 -53 -29 -133 -47 -194zM709 228h215s-1 27 -1 36c-13 460 -24 606 -56 651c-17 25 -34 34 -61 37c-24 3 -61 3 -98 1c-2 -20 -8 -48 -18 -67
c38 4 71 4 88 4c14 0 22 -3 31 -17c24 -31 37 -175 48 -582h-166c-18 53 -37 100 -58 139c-11 -9 -38 -24 -52 -32c51 -87 87 -221 108 -351l58 11c-9 58 -22 116 -38 170zM802 659l-55 27c-12 -63 -56 -165 -102 -240l51 -22c47 75 92 174 106 235z" />
</svg>
