<?xml version="1.0" standalone="no"?>
<!DOCTYPE svg PUBLIC "-//W3C//DTD SVG 1.1//EN" "http://www.w3.org/Graphics/SVG/1.1/DTD/svg11.dtd" >
<svg xmlns="http://www.w3.org/2000/svg" xmlns:xlink="http://www.w3.org/1999/xlink" version="1.1" viewBox="-10 0 1010 1000">
   <path fill="currentColor"
d="M774 718h-531v136h531v-136zM172 958v-306h675v305h-73v-37h-531v38h-71zM697 517v-116h-385v116h385zM242 343h528v231h-528v-231zM760 201h158v195h-72v-130h-682v130h-69v-195h140c-18 -35 -51 -80 -80 -116l63 -28c36 39 76 94 93 130l-30 14h208
c-14 -38 -45 -95 -74 -136l65 -23c31 42 65 102 79 140l-49 19h168c36 -42 79 -105 103 -149l76 26c-30 43 -65 87 -97 123z" />
</svg>
