<?xml version="1.0" standalone="no"?>
<!DOCTYPE svg PUBLIC "-//W3C//DTD SVG 1.1//EN" "http://www.w3.org/Graphics/SVG/1.1/DTD/svg11.dtd" >
<svg xmlns="http://www.w3.org/2000/svg" xmlns:xlink="http://www.w3.org/1999/xlink" version="1.1" viewBox="-10 0 1010 1000">
   <path fill="currentColor"
d="M608 265v-73h-223v-62h223v-82h70v82h231v62h-231v73h-70zM461 433v-66h-119v-62h119v-67h68v67h231v-67h69v67h121v62h-121v66h-69v-66h-231v66h-68zM879 784h-69v-266h-330v268h-66v-330h465v328zM241 207h-104v417h104v-417zM301 138v555h-164v95h-61v-650h225z
M611 697v-109h69v111c0 90 -44 190 -336 251c-8 -16 -26 -40 -40 -53c275 -49 307 -132 307 -200zM683 817l34 -40c48 21 211 99 250 121l-34 59c-51 -34 -194 -113 -250 -140z" />
</svg>
