<?xml version="1.0" standalone="no"?>
<!DOCTYPE svg PUBLIC "-//W3C//DTD SVG 1.1//EN" "http://www.w3.org/Graphics/SVG/1.1/DTD/svg11.dtd" >
<svg xmlns="http://www.w3.org/2000/svg" xmlns:xlink="http://www.w3.org/1999/xlink" version="1.1" viewBox="-10 0 1010 1000">
   <path fill="currentColor"
d="M241 178h-102v465h102v-465zM301 117v588h-162v99h-60v-687h222zM433 693h136v-82h-136v82zM569 475h-136v79h136v-79zM633 415v458c0 33 -6 52 -27 63c-20 12 -52 13 -94 13c-3 -19 -11 -46 -20 -65c30 1 57 1 65 1c9 -1 12 -3 12 -12v-124h-136v204h-65v-538h265z
M841 872v-475h62v475c0 37 -7 55 -32 66s-64 12 -123 12c-2 -18 -11 -45 -20 -63c46 1 85 1 97 0c12 0 16 -3 16 -15zM759 434v358h-61v-358h61zM644 39l59 28c-8 10 -16 21 -25 31c83 83 186 136 296 179c-18 15 -38 39 -46 58c-108 -49 -204 -107 -289 -192
c-53 55 -117 104 -184 145h374v60h-379v-56c-33 19 -65 35 -98 50c-11 -16 -30 -39 -47 -54c132 -52 266 -146 339 -249z" />
</svg>
