<?xml version="1.0" standalone="no"?>
<!DOCTYPE svg PUBLIC "-//W3C//DTD SVG 1.1//EN" "http://www.w3.org/Graphics/SVG/1.1/DTD/svg11.dtd" >
<svg xmlns="http://www.w3.org/2000/svg" xmlns:xlink="http://www.w3.org/1999/xlink" version="1.1" viewBox="-10 0 1010 1000">
   <path fill="currentColor"
d="M277 215h-134v391h134v-391zM341 675h-198v88h-65v-616h263v528zM521 699l-5 4c31 36 75 70 131 99c53 -27 98 -61 132 -103h-258zM488 485v61h326v-61h-326zM488 379v59h326v-59h-326zM488 273v59h326v-59h-326zM836 642l44 26c-38 70 -94 124 -163 166
c71 29 156 50 251 62c-13 16 -32 44 -41 62c-108 -17 -203 -48 -280 -87c-96 44 -210 70 -329 86c-7 -17 -26 -46 -39 -60c109 -12 212 -32 300 -65c-44 -29 -81 -60 -108 -93c-39 28 -84 55 -135 79c-9 -16 -31 -39 -46 -49c112 -48 193 -112 243 -174h-113v-370h162
c7 -22 13 -47 18 -70h-242v-62h587v62h-270c-8 24 -16 49 -24 70h233v370h-269c-12 17 -25 34 -40 50h248z" />
</svg>
