<?xml version="1.0" standalone="no"?>
<!DOCTYPE svg PUBLIC "-//W3C//DTD SVG 1.1//EN" "http://www.w3.org/Graphics/SVG/1.1/DTD/svg11.dtd" >
<svg xmlns="http://www.w3.org/2000/svg" xmlns:xlink="http://www.w3.org/1999/xlink" version="1.1" viewBox="-10 0 1010 1000">
   <path fill="currentColor"
d="M945 263v66h-577v-66h243v-111h-197v-65h477v65h-208v111h262zM485 669v72h338v-72h-338zM485 551v72h338v-72h-338zM485 435v71h338v-71h-338zM892 793h-474v-411h474v411zM276 245h-132v389h132v-389zM343 704h-199v96h-66v-625h265v529zM563 814l55 37
c-62 44 -163 83 -252 107c-10 -15 -28 -36 -43 -49c89 -22 187 -61 240 -95zM682 859l40 -46c84 27 177 63 233 95l-52 48c-51 -31 -139 -69 -221 -97z" />
</svg>
