<?xml version="1.0" standalone="no"?>
<!DOCTYPE svg PUBLIC "-//W3C//DTD SVG 1.1//EN" "http://www.w3.org/Graphics/SVG/1.1/DTD/svg11.dtd" >
<svg xmlns="http://www.w3.org/2000/svg" xmlns:xlink="http://www.w3.org/1999/xlink" version="1.1" viewBox="-10 0 1010 1000">
   <path fill="currentColor"
d="M261 207h-115v417h115v-417zM328 693h-182v95h-67v-650h249v555zM528 748l52 -29c39 36 78 88 95 123l-55 34c-17 -35 -55 -90 -92 -128zM890 378l45 38c-34 26 -76 51 -112 69c37 31 81 53 135 66c-14 12 -32 36 -41 53c-27 -8 -52 -19 -75 -31v70h105v60h-105v180
c0 37 -7 54 -33 64s-69 10 -134 10c-2 -18 -10 -42 -20 -61c49 2 91 2 103 2c13 -1 17 -5 17 -16v-179h-295v-60h295v-75h59c-77 -45 -127 -114 -156 -202h-78v146l116 -28c0 18 1 44 4 57c-141 37 -165 48 -179 58c-5 -17 -18 -47 -26 -62c11 -6 26 -20 26 -57v-114h-74v14
c0 167 -16 401 -127 559c-13 -11 -44 -27 -61 -34c109 -152 120 -368 120 -525v-291h535v58h-467v164h477v55h-207c13 31 29 59 50 84c36 -22 78 -51 103 -72zM890 252h-362v-51h362v51z" />
</svg>
