<?xml version="1.0" standalone="no"?>
<!DOCTYPE svg PUBLIC "-//W3C//DTD SVG 1.1//EN" "http://www.w3.org/Graphics/SVG/1.1/DTD/svg11.dtd" >
<svg xmlns="http://www.w3.org/2000/svg" xmlns:xlink="http://www.w3.org/1999/xlink" version="1.1" viewBox="-10 0 1010 1000">
   <path fill="currentColor"
d="M259 207h-119v417h119v-417zM322 138v555h-182v95h-64v-650h246zM501 558l48 -19c30 37 64 89 79 121l-50 24c-15 -33 -47 -86 -77 -126zM818 737h-139v197h-64v-197h-128v-53h184c27 -42 58 -101 76 -142l53 22c-22 40 -49 84 -73 120h91v53zM928 467v415
c0 34 -6 51 -29 63c-22 11 -58 12 -109 12c-3 -19 -11 -44 -20 -63c36 2 69 2 78 1c11 0 14 -3 14 -14v-356h-422v432h-65v-490h553zM818 357v-94h-333v94h333zM886 209v202h-466v-202h466zM371 88h574v65h-574v-65z" />
</svg>
