<?xml version="1.0" standalone="no"?>
<!DOCTYPE svg PUBLIC "-//W3C//DTD SVG 1.1//EN" "http://www.w3.org/Graphics/SVG/1.1/DTD/svg11.dtd" >
<svg xmlns="http://www.w3.org/2000/svg" xmlns:xlink="http://www.w3.org/1999/xlink" version="1.1" viewBox="-10 0 1010 1000">
   <path fill="currentColor"
d="M936 222v68h-599v-68h189c-18 -41 -52 -103 -81 -147l59 -27c31 47 69 110 86 150l-48 24h168c27 -52 61 -126 76 -179l72 24c-24 51 -52 109 -79 155h157zM243 191h-104v472h104v-472zM306 728h-167v94h-62v-696h229v602zM516 719l56 -13c24 75 50 171 60 236l-58 13
c-3 -22 -9 -48 -15 -76c-189 27 -219 34 -235 43c-4 -14 -15 -46 -23 -64c21 -5 42 -34 72 -77c18 -24 60 -90 104 -171c-95 11 -115 15 -129 21v1c-4 -13 -14 -44 -20 -60c13 -3 26 -23 41 -49s64 -128 90 -222l62 24c-29 81 -68 164 -107 231l96 -8c19 -39 39 -80 55 -121
l61 30c-63 137 -144 276 -225 384l144 -19c-9 -35 -19 -71 -29 -103zM957 937l-58 18c-5 -22 -13 -48 -22 -76c-174 26 -202 32 -217 41c-4 -14 -14 -46 -23 -63c20 -5 39 -35 65 -78c16 -25 53 -91 90 -172c-113 12 -135 17 -148 23v-3c-1 1 -1 3 -1 4
c-3 -13 -14 -46 -21 -63c13 -3 27 -22 42 -48c14 -26 63 -127 88 -220l65 25c-29 80 -69 165 -109 231l111 -9c17 -41 34 -83 48 -126l62 28c-55 138 -126 281 -199 392l129 -17c-14 -37 -29 -74 -42 -108l54 -17c33 76 69 174 86 238z" />
</svg>
