<?xml version="1.0" standalone="no"?>
<!DOCTYPE svg PUBLIC "-//W3C//DTD SVG 1.1//EN" "http://www.w3.org/Graphics/SVG/1.1/DTD/svg11.dtd" >
<svg xmlns="http://www.w3.org/2000/svg" xmlns:xlink="http://www.w3.org/1999/xlink" version="1.1" viewBox="-10 0 1010 1000">
   <path fill="currentColor"
d="M894 415l-56 33c-11 -15 -24 -32 -41 -50c-329 28 -368 32 -391 42c-3 -14 -14 -46 -22 -63c18 -2 36 -14 57 -33c23 -18 98 -92 149 -165l59 33c-45 56 -96 110 -148 154l247 -20c-27 -27 -57 -54 -84 -75l53 -27c66 49 141 123 177 171zM521 56l62 19
c-49 86 -134 167 -212 216c-11 -11 -36 -34 -50 -44c79 -45 157 -114 200 -191zM242 178h-101v467h101v-467zM302 117v590h-161v97h-61v-687h222zM607 488v393c0 34 -6 51 -31 62c-23 11 -61 11 -116 11c-3 -18 -11 -42 -21 -59c42 1 77 1 88 0c11 0 14 -3 14 -14v-117
c-70 38 -139 76 -196 107l-30 -54c58 -26 141 -68 226 -111v-155h-206v-63h272zM504 676l-42 38c-25 -31 -73 -78 -112 -111l41 -33c39 33 88 77 113 106zM917 488v393c0 34 -7 51 -32 62c-24 11 -62 11 -118 11c-3 -18 -12 -42 -21 -59c42 1 79 1 90 0c11 0 15 -4 15 -14
v-120c-71 38 -142 76 -201 107l-30 -55c59 -26 145 -67 231 -109v-153h-211v-63h277zM810 678l-41 39c-27 -30 -78 -77 -118 -110l40 -32c41 31 93 76 119 103zM679 77l54 -21c47 72 142 143 233 173c-15 13 -36 38 -46 55c-94 -39 -190 -123 -241 -207z" />
</svg>
