<?xml version="1.0" standalone="no"?>
<!DOCTYPE svg PUBLIC "-//W3C//DTD SVG 1.1//EN" "http://www.w3.org/Graphics/SVG/1.1/DTD/svg11.dtd" >
<svg xmlns="http://www.w3.org/2000/svg" xmlns:xlink="http://www.w3.org/1999/xlink" version="1.1" viewBox="-10 0 1010 1000">
   <path fill="currentColor"
d="M792 245v-95h-306v95h306zM792 401v-96h-306v96h306zM865 87v377h-449v-377h449zM278 206h-130v435h130v-435zM347 713h-199v77h-69v-656h268v579zM448 619v242h88v-242h-88zM683 619h-89v242h89v-242zM831 619h-90v242h90v-242zM902 861h54v67h-650v-67h74v-308h522v308
z" />
</svg>
