<?xml version="1.0" standalone="no"?>
<!DOCTYPE svg PUBLIC "-//W3C//DTD SVG 1.1//EN" "http://www.w3.org/Graphics/SVG/1.1/DTD/svg11.dtd" >
<svg xmlns="http://www.w3.org/2000/svg" xmlns:xlink="http://www.w3.org/1999/xlink" version="1.1" viewBox="-10 0 1010 1000">
   <path fill="currentColor"
d="M932 364v63h-570v-63h247v-78h-221v-204h66v142h155v-180h69v180h156v-142h69v204h-225v78h254zM257 209h-116v439h116v-439zM320 137v583h-179v77h-63v-660h242zM676 854l142 -6c-22 -26 -47 -52 -70 -74l45 -23h-117v103zM464 693h143v-110h-143v110zM817 583h-141v110
h141v-110zM965 929l-59 32c-9 -16 -23 -33 -38 -53c-191 10 -394 20 -532 25l-8 -66c74 -2 172 -6 279 -10v-106h-210v-225h210v-69h69v69h212v225h-78c58 54 124 128 155 178z" />
</svg>
