<?xml version="1.0" standalone="no"?>
<!DOCTYPE svg PUBLIC "-//W3C//DTD SVG 1.1//EN" "http://www.w3.org/Graphics/SVG/1.1/DTD/svg11.dtd" >
<svg xmlns="http://www.w3.org/2000/svg" xmlns:xlink="http://www.w3.org/1999/xlink" version="1.1" viewBox="-10 0 1010 1000">
   <path fill="currentColor"
d="M205 188h-78v469h78v-469zM259 129v587h-132v83h-54v-670h186zM439 185h-82v221h82v-221zM357 697h82v-232h-82v232zM494 123v635h-137v89h-54v-724h191zM758 279v-126h-51v126h51zM882 569v-229h-73v213c0 14 2 17 15 17h46c6 0 10 0 12 -1zM591 841h291v-222h-4h-60
c-47 0 -60 -12 -60 -65v-214h-51v112c0 78 -15 179 -94 249c-5 -7 -13 -16 -22 -24v164zM657 340h-66v308c57 -60 66 -135 66 -197v-111zM948 153h-136v126h129v668h-59v-46h-291v53h-57v-675h119v-126h-135v-62h430v62z" />
</svg>
