<?xml version="1.0" standalone="no"?>
<!DOCTYPE svg PUBLIC "-//W3C//DTD SVG 1.1//EN" "http://www.w3.org/Graphics/SVG/1.1/DTD/svg11.dtd" >
<svg xmlns="http://www.w3.org/2000/svg" xmlns:xlink="http://www.w3.org/1999/xlink" version="1.1" viewBox="-10 0 1010 1000">
   <path fill="currentColor"
d="M253 207h-110v417h110v-417zM323 138v555h-180v95h-68v-650h248zM505 627h104v-86h-104v86zM505 400v82h104v-82h-104zM449 267v76h160v-76h-160zM449 138v76h160v-76h-160zM843 214v-76h-167v76h167zM843 343v-76h-167v76h167zM783 482v-82h-107v82h107zM783 627v-86
h-107v86h107zM955 758v60h-279v139h-67v-139h-271v-60h271v-71h-240v-60h72v-86h-87v-59h87v-82h-56v-319h523v319h-62v82h95v59h-95v86h74v60h-244v71h279z" />
</svg>
