<?xml version="1.0" standalone="no"?>
<!DOCTYPE svg PUBLIC "-//W3C//DTD SVG 1.1//EN" "http://www.w3.org/Graphics/SVG/1.1/DTD/svg11.dtd" >
<svg xmlns="http://www.w3.org/2000/svg" xmlns:xlink="http://www.w3.org/1999/xlink" version="1.1" viewBox="-10 0 1010 1000">
   <path fill="currentColor"
d="M924 91v218h-518v-219h69v153h151v-198h72v198h155v-152h71zM489 766v81h178v-81h-178zM667 571v-77h-178v77h178zM667 709v-81h-178v81h178zM247 645v-467h-108v467h108zM956 847l-1 64h-466v47h-68v-392c-22 32 -46 60 -69 85c-9 -9 -29 -27 -45 -38v94h-168v97h-60
v-687h228v483c70 -69 129 -171 164 -276l65 15c-11 31 -24 63 -38 93h190c-11 -30 -29 -66 -45 -95l56 -19c21 35 46 82 55 114h186v62h-203v77h187v57h-187v81h187v57h-187v81h219z" />
</svg>
