<?xml version="1.0" standalone="no"?>
<!DOCTYPE svg PUBLIC "-//W3C//DTD SVG 1.1//EN" "http://www.w3.org/Graphics/SVG/1.1/DTD/svg11.dtd" >
<svg xmlns="http://www.w3.org/2000/svg" xmlns:xlink="http://www.w3.org/1999/xlink" version="1.1" viewBox="-10 0 1010 1000">
   <path fill="currentColor"
d="M266 207h-121v417h121v-417zM335 693h-190v95h-68v-650h258v555zM471 222v238c0 149 -16 358 -122 496c-13 -11 -41 -30 -58 -37c102 -132 112 -319 112 -459v-305h252c-12 -29 -28 -61 -44 -87l64 -26c25 35 46 80 58 113h222v67h-484zM504 933l-52 -28
c30 -48 52 -128 64 -190l52 16c-13 66 -33 150 -64 202zM790 443h-141v149h141v-149zM856 657h-270v-214h-93v-65h93v-121h63v121h141v-121h66v121h99v65h-99v214zM603 735l49 -5c17 58 30 134 30 184l-52 7c-1 -50 -12 -127 -27 -186zM712 729l49 -13c26 57 50 130 59 178
l-52 15c-9 -49 -31 -124 -56 -180zM817 714l52 -21c39 63 78 146 93 201l-56 24c-14 -56 -52 -140 -89 -204z" />
</svg>
