<?xml version="1.0" standalone="no"?>
<!DOCTYPE svg PUBLIC "-//W3C//DTD SVG 1.1//EN" "http://www.w3.org/Graphics/SVG/1.1/DTD/svg11.dtd" >
<svg xmlns="http://www.w3.org/2000/svg" xmlns:xlink="http://www.w3.org/1999/xlink" version="1.1" viewBox="-10 0 1010 1000">
   <path fill="currentColor"
d="M852 373v-191h-119v191h119zM916 121v313h-243v-313h243zM268 373v-191h-119v191h119zM331 121v313h-242v-313h242zM280 602h-144v213h144v-213zM73 931v-393h272v389h-65v-48h-144v52h-63zM544 599v-537h64v889h-64v-290c-118 48 -139 59 -153 72
c-6 -15 -21 -39 -30 -50c13 -9 33 -28 33 -68v-437h60v453zM722 817h143v-215h-143v215zM659 538h272v389h-66v-47h-143v51h-63v-393z" />
</svg>
