<?xml version="1.0" standalone="no"?>
<!DOCTYPE svg PUBLIC "-//W3C//DTD SVG 1.1//EN" "http://www.w3.org/Graphics/SVG/1.1/DTD/svg11.dtd" >
<svg xmlns="http://www.w3.org/2000/svg" xmlns:xlink="http://www.w3.org/1999/xlink" version="1.1" viewBox="-10 0 1010 1000">
   <path fill="currentColor"
d="M925 79v185h-539v-185h66v121h164v-157h69v157h171v-121h69zM246 200h-107v388h107v-388zM310 656h-171v77h-62v-600h233v523zM446 385v124c0 132 -17 319 -113 447c-11 -12 -42 -30 -58 -36c92 -122 103 -291 103 -412v-186h572v63h-504zM460 592h186v-74h-143v-57h143
v-63h69v63h165v57h-165v74h216v57h-471v-57zM715 872h241v59h-537v-59h227v-84h-158v-57h158v-70h69v70h181v57h-181v84z" />
</svg>
