<?xml version="1.0" standalone="no"?>
<!DOCTYPE svg PUBLIC "-//W3C//DTD SVG 1.1//EN" "http://www.w3.org/Graphics/SVG/1.1/DTD/svg11.dtd" >
<svg xmlns="http://www.w3.org/2000/svg" xmlns:xlink="http://www.w3.org/1999/xlink" version="1.1" viewBox="-10 0 1010 1000">
   <path fill="currentColor"
d="M251 220h-112v397h112v-397zM316 684h-177v86h-62v-616h239v530zM608 273h-161v201c0 142 -17 339 -122 472c-11 -12 -38 -34 -52 -42c99 -124 109 -300 109 -430v-258h225v-172h67v63h222v53h-222v56h221l13 -3l46 11c-14 47 -34 101 -51 135l-58 -10
c10 -20 20 -48 28 -76h-202v54l152 -13l3 47l-155 14v30c0 19 5 22 41 22h127c26 0 31 -6 33 -48c14 9 37 16 53 19c-5 62 -23 79 -77 79h-141c-80 0 -99 -14 -99 -72v-24l-128 12l-4 -49l132 -11v-60zM958 716v55h-228v115c0 34 -7 51 -32 60c-26 10 -67 11 -134 11
c-2 -17 -11 -40 -19 -58c48 1 91 1 104 1c14 -1 18 -4 18 -15v-114h-217v-55h217v-146c-58 6 -117 11 -172 14c-2 -14 -10 -33 -16 -46c134 -10 292 -28 380 -49l43 45c-48 11 -108 21 -172 29v153h228zM511 609l51 -19c25 30 48 72 58 101l-55 23c-8 -29 -31 -73 -54 -105z
M823 709l-45 -18c20 -33 46 -84 60 -118l61 21c-26 41 -54 86 -76 115z" />
</svg>
