<?xml version="1.0" standalone="no"?>
<!DOCTYPE svg PUBLIC "-//W3C//DTD SVG 1.1//EN" "http://www.w3.org/Graphics/SVG/1.1/DTD/svg11.dtd" >
<svg xmlns="http://www.w3.org/2000/svg" xmlns:xlink="http://www.w3.org/1999/xlink" version="1.1" viewBox="-10 0 1010 1000">
   <path fill="currentColor"
d="M247 178h-108v467h108v-467zM307 117v590h-168v97h-60v-687h228zM371 918l-53 -33c35 -42 60 -115 71 -175l55 20c-13 63 -35 141 -73 188zM502 726l54 -12c12 52 19 119 18 163l-57 11c2 -43 -4 -109 -15 -162zM621 723l49 -16c20 40 39 95 46 130l-52 19
c-6 -36 -23 -92 -43 -133zM458 619h492s-1 19 -1 28c-9 187 -18 256 -40 281c-15 17 -33 23 -59 25c-23 2 -68 2 -113 -1c-2 -17 -9 -41 -18 -57c45 4 87 4 101 4c16 1 25 -1 32 -9c13 -16 21 -72 29 -215h-505c21 -65 47 -168 63 -246l64 8c-5 20 -10 44 -16 66h433v54
h-445c-6 21 -11 43 -17 62zM739 719l44 -20c28 33 53 80 64 111l-46 23c-11 -31 -37 -79 -62 -114zM693 362h262v57h-625v-57h120v-156h64v156h111v-214h-261v-57h581v57h-252v83h209v56h-209v75z" />
</svg>
