<?xml version="1.0" standalone="no"?>
<!DOCTYPE svg PUBLIC "-//W3C//DTD SVG 1.1//EN" "http://www.w3.org/Graphics/SVG/1.1/DTD/svg11.dtd" >
<svg xmlns="http://www.w3.org/2000/svg" xmlns:xlink="http://www.w3.org/1999/xlink" version="1.1" viewBox="-10 0 1010 1000">
   <path fill="currentColor"
d="M956 302v52h-596v-52h256v-53h-196v-48h196v-52h-223v-50h223v-55h73v55h233v50h-233v52h210v48h-210v53h267zM493 673v64h330v-64h-330zM493 562v63h330v-63h-330zM493 453v61h330v-61h-330zM893 787h-467v-385h467v385zM277 211h-136v396h136v-396zM341 676h-200v87
h-63v-620h263v533zM522 799l68 25c-61 56 -164 106 -248 136c-12 -14 -38 -41 -55 -53c87 -24 182 -63 235 -108zM706 832l49 -38c77 37 162 87 211 126l-65 38c-43 -38 -122 -88 -195 -126z" />
</svg>
