<?xml version="1.0" standalone="no"?>
<!DOCTYPE svg PUBLIC "-//W3C//DTD SVG 1.1//EN" "http://www.w3.org/Graphics/SVG/1.1/DTD/svg11.dtd" >
<svg xmlns="http://www.w3.org/2000/svg" xmlns:xlink="http://www.w3.org/1999/xlink" version="1.1" viewBox="-10 0 1010 1000">
   <path fill="currentColor"
d="M214 179h-77v466h77v-466zM272 117v590h-135v97h-58v-687h193zM373 329v114h71v-114h-71zM373 158v113h71v-113h-71zM571 271v-113h-76v113h76zM571 443v-114h-76v114h76zM498 820l146 -21l1 66c-123 22 -253 42 -345 57l-7 -73c41 -4 92 -12 148 -20v-152h-128v-68h128
v-104h-119v-409h301v409h-125v104h133v68h-133v143zM920 414l40 13c-17 73 -38 156 -59 208l-48 -17c12 -34 26 -83 37 -131h-71v386c0 38 -7 60 -32 72c-24 13 -62 14 -117 14c-3 -21 -12 -54 -21 -74c41 2 79 2 90 1c11 0 14 -3 14 -15v-384h-113v-70h190
c-40 -47 -104 -105 -162 -145l41 -43c24 16 51 36 76 55c24 -34 51 -78 70 -119h-202v-67h239l12 -4l38 33c-30 66 -73 139 -116 193c22 22 43 43 58 62l-30 35h57z" />
</svg>
