<?xml version="1.0" standalone="no"?>
<!DOCTYPE svg PUBLIC "-//W3C//DTD SVG 1.1//EN" "http://www.w3.org/Graphics/SVG/1.1/DTD/svg11.dtd" >
<svg xmlns="http://www.w3.org/2000/svg" xmlns:xlink="http://www.w3.org/1999/xlink" version="1.1" viewBox="-10 0 1010 1000">
   <path fill="currentColor"
d="M245 214h-109v396h109v-396zM308 677h-172v85h-61v-614h233v529zM430 445v173c0 112 -16 246 -127 339c-11 -12 -32 -32 -48 -42c99 -84 112 -202 112 -297v-173h63zM848 956v-511h64v511h-64zM820 358v-72h-151v72h151zM669 160v69h151v-69h-151zM887 229h71v57h-71v126
h-222v214h155v57h-155v11c32 26 126 117 148 141l-38 49c-19 -28 -71 -88 -110 -131v203h-60v-214c-42 70 -99 140 -151 179c-6 -18 -20 -43 -29 -59c56 -38 122 -111 161 -179h-135v-57h154v-214h-227v-54h224v-72h-269v-57h269v-69h-216v-55h216v-61h67v61h218v124z
M736 615l-40 -18c20 -39 44 -101 57 -142l55 22c-24 47 -50 103 -72 138zM467 480l45 -19c25 43 49 98 58 135l-47 20c-9 -36 -32 -94 -56 -136z" />
</svg>
