<?xml version="1.0" standalone="no"?>
<!DOCTYPE svg PUBLIC "-//W3C//DTD SVG 1.1//EN" "http://www.w3.org/Graphics/SVG/1.1/DTD/svg11.dtd" >
<svg xmlns="http://www.w3.org/2000/svg" xmlns:xlink="http://www.w3.org/1999/xlink" version="1.1" viewBox="-10 0 1010 1000">
   <path fill="currentColor"
d="M866 64l63 21c-48 91 -123 184 -198 242c-11 -15 -32 -34 -50 -46c70 -51 145 -137 185 -217zM872 339l64 23c-50 95 -130 189 -210 248c-12 -15 -33 -35 -50 -47c74 -52 153 -140 196 -224zM469 281v-79h-143v-61h143v-97h69v97h150v61h-150v79h127v61h-314v-61h118z
M590 555v-99h-171v99h171zM656 402v207h-301v-207h301zM471 779l-58 20c-6 -39 -26 -100 -50 -145l55 -19c24 45 46 104 53 144zM234 189h-95v436h95v-436zM295 120v574h-156v86h-61v-660h217zM694 760l6 57c-131 32 -269 64 -373 88l-23 -65c55 -11 126 -24 205 -41
c21 -49 46 -122 58 -173l69 20c-19 45 -39 96 -59 139c38 -9 78 -17 117 -25zM886 626l66 20c-56 131 -154 245 -278 313c-11 -17 -30 -39 -48 -52c115 -58 211 -164 260 -281z" />
</svg>
