<?xml version="1.0" standalone="no"?>
<!DOCTYPE svg PUBLIC "-//W3C//DTD SVG 1.1//EN" "http://www.w3.org/Graphics/SVG/1.1/DTD/svg11.dtd" >
<svg xmlns="http://www.w3.org/2000/svg" xmlns:xlink="http://www.w3.org/1999/xlink" version="1.1" viewBox="-10 0 1010 1000">
   <path fill="currentColor"
d="M589 485l-49 16c-3 -11 -6 -24 -11 -39c-143 20 -166 24 -179 31c-3 -11 -11 -40 -18 -54c15 -3 32 -20 50 -45c12 -12 39 -48 67 -93c-80 12 -98 17 -109 22c-2 -12 -11 -39 -17 -54c12 -2 24 -15 38 -35c14 -19 60 -94 86 -168l53 18c-29 63 -64 125 -99 174l80 -8
c11 -21 23 -43 33 -64l51 20c-44 81 -97 160 -149 221l99 -12c-7 -23 -16 -45 -24 -66l47 -12c22 48 43 110 51 148zM242 178h-103v467h103v-467zM303 707h-164v97h-60v-687h224v590zM830 628l64 23c-30 60 -72 114 -123 160c30 44 64 68 104 72c21 2 34 -36 42 -108
c12 14 37 31 50 38c-19 109 -50 146 -90 143c-65 -4 -116 -40 -157 -102c-53 38 -111 71 -175 97c-9 -13 -27 -35 -41 -47c70 -27 133 -62 186 -105c-23 -50 -42 -112 -57 -182h-164c-1 12 -2 23 -3 36c48 37 109 89 140 121l-47 45c-23 -26 -65 -66 -106 -100
c-20 82 -65 168 -149 235c-10 -15 -34 -38 -48 -47c111 -86 143 -197 149 -290h-76v-60h77v-60h64v60h151c-24 -142 -37 -314 -43 -506h64c5 195 19 369 44 506h143c-24 -21 -59 -46 -88 -64l37 -35c-50 8 -62 12 -71 16c-3 -12 -12 -41 -18 -57c15 -2 29 -19 49 -44
c10 -13 34 -47 61 -90c-76 10 -93 15 -103 20c-3 -12 -11 -39 -18 -54c12 -2 23 -13 34 -32c12 -17 53 -87 74 -154l54 18c-24 57 -55 114 -85 158l73 -8c13 -22 24 -44 34 -67l54 21c-43 81 -95 161 -146 223l103 -12c-8 -22 -16 -44 -25 -63l45 -14c22 47 47 111 56 148
l-48 17c-3 -11 -7 -26 -12 -42c-50 7 -85 12 -111 16c35 20 82 51 104 72l-26 27h83v60h-241c13 53 26 99 43 137c37 -38 68 -81 89 -126z" />
</svg>
