<?xml version="1.0" standalone="no"?>
<!DOCTYPE svg PUBLIC "-//W3C//DTD SVG 1.1//EN" "http://www.w3.org/Graphics/SVG/1.1/DTD/svg11.dtd" >
<svg xmlns="http://www.w3.org/2000/svg" xmlns:xlink="http://www.w3.org/1999/xlink" version="1.1" viewBox="-10 0 1010 1000">
   <path fill="currentColor"
d="M723 602l-21 -46c51 -9 135 -36 181 -50l27 54c-54 19 -133 35 -187 42zM695 674l21 -50c76 9 163 30 214 50l-25 54c-51 -21 -133 -43 -210 -54zM803 234v-51h-327v51h327zM803 328v-51h-327v51h327zM803 423v-52h-327v52h327zM876 134v338h-471v-338h168
c9 -28 16 -62 22 -90l82 7c-9 28 -19 57 -30 83h229zM573 555l-23 52c-40 -15 -119 -38 -178 -50l23 -47c56 9 135 29 178 45zM576 625l2 52c-70 20 -144 41 -201 57l-18 -60c55 -11 137 -30 217 -49zM245 207h-105v417h105v-417zM308 138v555h-168v96h-63v-651h231z
M940 759v60h-269v138h-71v-138h-265v-60h265v-270h71v270h269z" />
</svg>
