<?xml version="1.0" standalone="no"?>
<!DOCTYPE svg PUBLIC "-//W3C//DTD SVG 1.1//EN" "http://www.w3.org/Graphics/SVG/1.1/DTD/svg11.dtd" >
<svg xmlns="http://www.w3.org/2000/svg" xmlns:xlink="http://www.w3.org/1999/xlink" version="1.1" viewBox="-10 0 1010 1000">
   <path fill="currentColor"
d="M607 243v-64h-255v-56h255v-79h73v79h261v56h-261v64h229v55h-524v-55h222zM250 207h-107v417h107v-417zM315 139v554h-172v95h-66v-649h238zM822 775h-342v98h342v-98zM409 957v-236h486v232h-73v-25h-342v29h-71zM762 522h-243c19 28 37 65 44 89l-26 8h206l-26 -7
c16 -25 34 -62 45 -90zM485 395v76h321v-76h-321zM782 619h175v56h-617v-56h159c-9 -25 -25 -59 -42 -85l42 -12h-83v-178h463v178h-90l44 10c-19 33 -37 63 -51 87z" />
</svg>
