<?xml version="1.0" standalone="no"?>
<!DOCTYPE svg PUBLIC "-//W3C//DTD SVG 1.1//EN" "http://www.w3.org/Graphics/SVG/1.1/DTD/svg11.dtd" >
<svg xmlns="http://www.w3.org/2000/svg" xmlns:xlink="http://www.w3.org/1999/xlink" version="1.1" viewBox="-10 0 1010 1000">
   <path fill="currentColor"
d="M831 50l41 55c-128 30 -329 51 -493 58c-2 -16 -10 -39 -17 -55c163 -9 359 -30 469 -58zM786 294l-52 -16c20 -37 47 -96 59 -137l65 20c-23 47 -50 100 -72 133zM661 278l-61 20c-5 -32 -22 -85 -41 -124l59 -18c20 38 38 89 43 122zM258 206h-117v416h117v-416z
M321 691h-180v96h-64v-650h244v554zM455 923l-49 -21c30 -46 49 -124 59 -187l47 14c-9 67 -26 146 -57 194zM554 722l45 -7c15 55 25 127 23 169l-48 12c1 -44 -7 -117 -20 -174zM644 714l42 -14c23 44 44 101 51 137l-44 18c-7 -37 -28 -96 -49 -141zM841 797l-41 21
c-11 -32 -37 -83 -64 -119l39 -18c26 35 55 84 66 116zM378 189l56 -18c23 38 44 89 52 122l-60 23c-7 -34 -28 -87 -48 -127zM809 517h-364c-1 27 -3 57 -6 87h361c3 -28 6 -60 9 -87zM740 374h-294v86h286c3 -27 6 -59 8 -86zM863 604h76s-1 21 -2 30
c-13 190 -25 265 -49 291c-16 18 -32 24 -56 27c-21 1 -61 2 -104 -1c-1 -20 -8 -46 -17 -64c40 3 78 4 92 4c15 0 23 -1 31 -10c15 -15 25 -73 36 -218h-440c-16 98 -49 200 -113 280c-11 -13 -39 -32 -55 -40c105 -129 120 -310 120 -437v-150h368l11 -3l45 4
c-2 50 -6 100 -11 143h24l10 -4l47 5c-3 50 -7 100 -13 143z" />
</svg>
