<?xml version="1.0" standalone="no"?>
<!DOCTYPE svg PUBLIC "-//W3C//DTD SVG 1.1//EN" "http://www.w3.org/Graphics/SVG/1.1/DTD/svg11.dtd" >
<svg xmlns="http://www.w3.org/2000/svg" xmlns:xlink="http://www.w3.org/1999/xlink" version="1.1" viewBox="-10 0 1010 1000">
   <path fill="currentColor"
d="M948 234l-51 24c-12 -41 -45 -105 -79 -152l50 -20c33 45 69 107 80 148zM667 170v65h-337v-65h144c-10 -31 -24 -69 -37 -98l59 -14c17 35 35 79 45 112h126zM234 207h-95v417h95v-417zM294 693h-155v95h-61v-650h216v555zM372 632l58 12c-20 92 -53 186 -93 248
c-10 -9 -36 -24 -50 -31c39 -58 67 -144 85 -229zM423 371v147h134v-147h-134zM616 576h-93v308c0 32 -5 50 -27 61c-21 11 -53 12 -106 12c-3 -18 -12 -43 -21 -61c39 1 72 1 82 1c10 -1 13 -3 13 -13v-308h-98v-262h250v262zM954 367h-168c-6 192 -38 405 -182 586
c-12 -13 -34 -27 -51 -37c33 -41 61 -84 83 -130l-41 20c-7 -43 -29 -110 -54 -161l46 -21c25 46 46 106 56 149c64 -135 81 -278 85 -406h-78v-68h79v-7v-248h58v248v7h167v68zM864 889h22c8 0 14 -2 18 -5c4 -4 7 -13 9 -28c3 -19 3 -58 4 -108c12 11 31 21 48 26
c-1 45 -4 99 -8 117c-5 20 -12 32 -23 39c-10 8 -27 10 -40 10h-42c-16 0 -35 -4 -46 -16c-13 -12 -17 -26 -17 -89v-390h57v400c0 21 0 34 4 39c3 3 9 5 14 5z" />
</svg>
