<?xml version="1.0" standalone="no"?>
<!DOCTYPE svg PUBLIC "-//W3C//DTD SVG 1.1//EN" "http://www.w3.org/Graphics/SVG/1.1/DTD/svg11.dtd" >
<svg xmlns="http://www.w3.org/2000/svg" xmlns:xlink="http://www.w3.org/1999/xlink" version="1.1" viewBox="-10 0 1010 1000">
   <path fill="currentColor"
d="M781 43l56 46c-185 28 -453 44 -685 52c-2 -13 -16 -31 -29 -44c234 -9 496 -27 658 -54zM743 726h-496v135h496v-135zM176 958v-293h640v290h-73v-33h-496v36h-71zM277 512l52 23c-17 41 -40 91 -68 123l-55 -28c28 -30 56 -80 71 -118zM377 534l55 -16
c23 35 44 82 51 113l-58 18c-5 -30 -25 -78 -48 -115zM516 529l49 -18c26 29 53 72 63 101l-53 22c-9 -29 -35 -72 -59 -105zM770 395h-532c-2 19 -5 37 -9 56h531c4 -19 7 -38 10 -56zM679 283h-437v40v19h428c4 -20 7 -40 9 -59zM829 451h89s-2 19 -4 28
c-13 98 -24 144 -45 162c-12 12 -25 18 -45 19c-16 1 -45 2 -74 0c-1 -15 -6 -35 -13 -52l-13 8c-15 -27 -47 -64 -76 -90l44 -25c30 25 64 62 78 87l-23 14c20 2 37 2 46 2c10 0 18 -1 23 -7c10 -11 19 -37 28 -97h-629c-19 61 -54 122 -109 171c-9 -14 -36 -36 -50 -43
c104 -93 122 -215 122 -307v-91h86c-13 -23 -37 -50 -62 -72l52 -19c35 26 65 63 76 86l-14 5h156c-11 -27 -31 -62 -55 -88l61 -15c31 32 56 76 64 103h86c33 -34 75 -83 97 -120l67 20c-26 30 -56 66 -84 95l46 6c-4 40 -9 77 -15 111h43l12 -4l50 7c-4 38 -9 74 -15 106z
" />
</svg>
