<?xml version="1.0" standalone="no"?>
<!DOCTYPE svg PUBLIC "-//W3C//DTD SVG 1.1//EN" "http://www.w3.org/Graphics/SVG/1.1/DTD/svg11.dtd" >
<svg xmlns="http://www.w3.org/2000/svg" xmlns:xlink="http://www.w3.org/1999/xlink" version="1.1" viewBox="-10 0 1010 1000">
   <path fill="currentColor"
d="M536 858h408v67h-887v-67h407v-331h-360v-62h360v-314h-391v-62h856v62h-393v314h364v62h-364v331zM332 752v-126h-129v126h129zM144 576h249v226h-249v-226zM332 366v-120h-127v120h127zM146 196h247v220h-247v-220zM663 247v120h128v-120h-128zM853 417h-250v-220h250
v220zM663 627v126h134v-126h-134zM859 803h-256v-225h256v225z" />
</svg>
