<?xml version="1.0" standalone="no"?>
<!DOCTYPE svg PUBLIC "-//W3C//DTD SVG 1.1//EN" "http://www.w3.org/Graphics/SVG/1.1/DTD/svg11.dtd" >
<svg xmlns="http://www.w3.org/2000/svg" xmlns:xlink="http://www.w3.org/1999/xlink" version="1.1" viewBox="-10 0 1010 1000">
   <path fill="currentColor"
d="M765 217h-32c-27 55 -57 105 -90 143c-13 -11 -41 -31 -58 -39c62 -69 110 -172 140 -278l66 15c-8 33 -20 67 -32 99h197v60h-118c34 42 63 88 80 122l-58 28c-18 -41 -57 -103 -95 -150zM242 216h-108v394h108v-394zM305 677h-171v81h-61v-610h232v154
c55 -66 99 -162 124 -259l68 15c-10 33 -21 67 -34 99h181v60h-122c24 40 47 86 57 118l-60 23c-11 -38 -37 -95 -65 -141h-17c-27 56 -58 106 -91 145c-9 -9 -26 -21 -41 -31v346zM438 493l64 10c-8 38 -19 74 -32 107c42 39 89 89 113 119l-42 45
c-21 -29 -60 -72 -96 -110c-28 55 -66 102 -108 138c-11 -12 -37 -31 -53 -41c80 -60 131 -154 154 -268zM665 853h294v66h-685v-66h320v-395h-251v-66h589v66h-267v276c62 -57 104 -142 123 -238l64 11c-8 36 -18 71 -31 103c49 42 107 97 136 132l-43 45
c-27 -32 -75 -80 -119 -122c-26 49 -58 91 -96 124c-7 -8 -21 -21 -34 -32v96z" />
</svg>
