<?xml version="1.0" standalone="no"?>
<!DOCTYPE svg PUBLIC "-//W3C//DTD SVG 1.1//EN" "http://www.w3.org/Graphics/SVG/1.1/DTD/svg11.dtd" >
<svg xmlns="http://www.w3.org/2000/svg" xmlns:xlink="http://www.w3.org/1999/xlink" version="1.1" viewBox="-10 0 1010 1000">
   <path fill="currentColor"
d="M248 207h-108v417h108v-417zM310 693h-170v95h-63v-650h233v555zM439 272v221c0 140 -15 333 -110 463c-11 -12 -39 -31 -54 -38c88 -123 98 -296 98 -426v-276h224v-173h69v63h235v55h-235v55h224l6 -2l43 11c-13 48 -29 103 -44 137l-53 -12c8 -20 16 -50 23 -78h-212
v63l161 -19l7 46l-168 20v19c0 21 7 24 44 24h138c25 0 31 -6 34 -47c14 8 36 14 53 18c-6 60 -24 77 -80 77h-151c-80 0 -101 -14 -101 -72v-12l-122 14l-5 -47l127 -14v-70h-151zM891 590l43 34c-30 22 -65 43 -100 64c25 76 74 146 138 179c-14 10 -32 31 -41 46
c-66 -39 -113 -118 -139 -202c-11 6 -22 11 -33 16c27 85 15 169 -19 202c-22 20 -44 27 -74 28c-16 0 -35 -1 -55 -2c-1 -16 -7 -41 -17 -57c24 3 44 3 59 3c16 0 29 -1 40 -15c18 -16 27 -62 18 -114c-71 62 -178 125 -266 160c-6 -13 -19 -33 -31 -44
c99 -31 220 -101 283 -165c-4 -12 -9 -25 -16 -37c-58 46 -146 94 -217 121c-6 -12 -19 -32 -31 -41c76 -22 170 -69 224 -115c-8 -9 -16 -19 -25 -28c-50 29 -104 52 -155 69c-5 -12 -17 -31 -24 -40c67 -21 145 -54 198 -92h-186v-53h461v53h-206c-13 13 -29 24 -44 36
c29 26 51 57 67 89c52 -28 110 -68 148 -95z" />
</svg>
