<?xml version="1.0" standalone="no"?>
<!DOCTYPE svg PUBLIC "-//W3C//DTD SVG 1.1//EN" "http://www.w3.org/Graphics/SVG/1.1/DTD/svg11.dtd" >
<svg xmlns="http://www.w3.org/2000/svg" xmlns:xlink="http://www.w3.org/1999/xlink" version="1.1" viewBox="-10 0 1010 1000">
   <path fill="currentColor"
d="M234 253h-100v399h100v-399zM290 719h-156v73h-57v-605h213v532zM547 269h-128v55l128 -8v-47zM419 369v72c0 150 -20 362 -144 506c-10 -13 -36 -33 -50 -41c117 -136 131 -325 131 -466v-229h234v-168h69v63h241v54h-241v51h238l12 -3l47 14c-13 48 -28 103 -44 138
l-58 -19c7 -20 14 -46 21 -72h-263v43l192 -12l3 44l-195 12v16c0 20 6 23 44 23h139c28 0 33 -6 37 -51c14 8 35 14 52 17c-6 60 -24 76 -80 76h-154c-80 0 -103 -11 -103 -65v-11zM541 508v61h281v-61h-281zM479 611v-145h408v145h-408zM948 802h-209
c45 57 121 94 219 109c-13 12 -29 35 -36 52c-113 -25 -195 -80 -242 -161h-5c-34 55 -103 112 -234 156c-10 -15 -29 -34 -42 -46c106 -33 167 -71 202 -110h-193v-48h225c9 -21 12 -41 12 -59h-195v-49h460v49h-205v1c0 18 -2 37 -9 58h252v48z" />
</svg>
