<?xml version="1.0" standalone="no"?>
<!DOCTYPE svg PUBLIC "-//W3C//DTD SVG 1.1//EN" "http://www.w3.org/Graphics/SVG/1.1/DTD/svg11.dtd" >
<svg xmlns="http://www.w3.org/2000/svg" xmlns:xlink="http://www.w3.org/1999/xlink" version="1.1" viewBox="-10 0 1010 1000">
   <path fill="currentColor"
d="M255 207h-115v416h115v-416zM319 142v547h-179v99h-64v-646h243zM637 632l56 9c-6 19 -12 39 -21 57c42 28 90 66 118 90l-41 37c-22 -22 -64 -56 -103 -84c-26 40 -61 73 -101 97c-9 -10 -31 -28 -43 -38c67 -37 115 -94 135 -168zM769 896h-32c30 2 55 2 67 2
c13 1 20 -1 27 -10c15 -18 24 -84 33 -262h-363c-15 19 -31 37 -48 55h27v161h289v54zM479 407v64h336v-64h-336zM479 296v63h336v-63h-336zM540 569h395s-1 21 -2 29c-10 224 -22 304 -44 332c-15 18 -32 24 -54 27c-20 1 -56 2 -94 0c-1 -19 -7 -44 -15 -61h-308v-180
c-14 11 -27 23 -42 35c-12 -16 -33 -37 -50 -47c74 -54 129 -123 162 -184h-78v-274h475v274h-318c-9 17 -18 32 -27 49zM807 108h140v63h-140v56h-68v-56h-177v56h-67v-56h-140v-63h140v-64h67v64h177v-64h68v64z" />
</svg>
