<?xml version="1.0" standalone="no"?>
<!DOCTYPE svg PUBLIC "-//W3C//DTD SVG 1.1//EN" "http://www.w3.org/Graphics/SVG/1.1/DTD/svg11.dtd" >
<svg xmlns="http://www.w3.org/2000/svg" xmlns:xlink="http://www.w3.org/1999/xlink" version="1.1" viewBox="-10 0 1010 1000">
   <path fill="currentColor"
d="M431 397v87h85v-87h-85zM518 132h-87v81h87v-81zM595 347v-84h-164v84h164zM670 484v58h-299v-469h288v59h-87v81h75v150c49 -86 85 -202 109 -318l67 13c-10 46 -22 91 -34 134h168v66h-190c-25 69 -54 132 -86 181c-13 -10 -43 -27 -60 -35l5 -7h-55v87h99zM924 480
l-54 38c-25 -46 -76 -119 -116 -172l51 -33c43 54 94 124 119 167zM246 179h-107v466h107v-466zM307 117v590h-168v97h-60v-687h228zM476 653v214h90v-214h-90zM707 653h-91v214h91v-214zM849 653h-92v214h92v-214zM912 867h54v64h-643v-64h92v-275h497v275z" />
</svg>
