<?xml version="1.0" standalone="no"?>
<!DOCTYPE svg PUBLIC "-//W3C//DTD SVG 1.1//EN" "http://www.w3.org/Graphics/SVG/1.1/DTD/svg11.dtd" >
<svg xmlns="http://www.w3.org/2000/svg" xmlns:xlink="http://www.w3.org/1999/xlink" version="1.1" viewBox="-10 0 1010 1000">
   <path fill="currentColor"
d="M757 479l-38 -16c14 -28 34 -70 43 -97l46 19c-19 35 -36 70 -51 94zM496 384l40 -14c18 29 36 68 44 93l-41 18c-8 -26 -26 -66 -43 -97zM456 352v141h164v-141h-164zM858 493v-141h-182v141h182zM958 703v59h-615v-59h270v-61h-217v-52h217v-51h-216v-232h216v-52h-267
v-56h267v-59c-72 6 -146 10 -214 12c-1 -14 -9 -37 -16 -51c169 -8 376 -25 490 -48l44 50c-65 13 -146 23 -234 31v65h267v56h-267v52h237v232h-237v51h237v52h-237v61h275zM250 207h-107v417h107v-417zM311 693h-168v95h-60v-650h228v555zM353 958l-50 -41
c56 -30 90 -88 107 -147l58 21c-19 65 -51 129 -115 167zM519 799l58 -8c14 47 28 110 30 147l-61 12c-2 -38 -14 -102 -27 -151zM648 800l54 -17c28 45 59 106 71 144l-57 21c-12 -39 -41 -102 -68 -148zM784 796l56 -27c45 48 100 116 126 159l-59 31
c-25 -44 -78 -113 -123 -163z" />
</svg>
