<?xml version="1.0" standalone="no"?>
<!DOCTYPE svg PUBLIC "-//W3C//DTD SVG 1.1//EN" "http://www.w3.org/Graphics/SVG/1.1/DTD/svg11.dtd" >
<svg xmlns="http://www.w3.org/2000/svg" xmlns:xlink="http://www.w3.org/1999/xlink" version="1.1" viewBox="-10 0 1010 1000">
   <path fill="currentColor"
d="M683 314v-108h-86v108h86zM683 474v-109h-86v109h86zM738 302v187c14 -6 27 -24 44 -48c12 -16 38 -58 66 -109c-67 10 -84 14 -94 19c-3 -11 -10 -34 -16 -49zM738 501v26h-195v-374h53c8 -35 18 -80 22 -113l61 12c-10 33 -20 71 -30 101h89v144c12 -4 23 -18 33 -40
c12 -22 53 -108 73 -188l52 21c-23 71 -55 143 -87 199l64 -7c11 -23 21 -48 30 -71l49 26c-40 86 -90 174 -140 242l77 -10c-7 -23 -14 -46 -20 -67l43 -12c17 49 37 112 45 154l-45 15c-3 -13 -6 -30 -11 -48c-117 19 -138 25 -150 33c-2 -9 -7 -28 -13 -43zM541 548
l-44 14c-2 -16 -5 -34 -8 -53c-114 20 -134 25 -147 33c-2 -12 -11 -38 -16 -52c14 -3 29 -21 47 -48c11 -15 39 -59 66 -112c-67 11 -85 16 -95 21c-4 -10 -12 -39 -18 -53c12 -3 23 -18 36 -40c12 -22 56 -109 77 -189l52 23c-25 68 -59 141 -93 196l66 -8
c9 -21 18 -43 26 -65l49 26c-39 84 -87 170 -137 237l78 -12c-5 -24 -11 -48 -16 -70l41 -11c15 52 30 120 36 163zM245 178h-107v467h107v-467zM303 707h-165v97h-59v-687h224v590zM953 662h-232c64 75 163 152 247 191c-15 13 -37 36 -48 53c-83 -46 -179 -131 -246 -216
v266h-70v-260c-68 88 -168 168 -260 211c-11 -17 -32 -41 -47 -55c94 -36 196 -111 262 -190h-218v-64h263v-56h70v56h279v64z" />
</svg>
