<?xml version="1.0" standalone="no"?>
<!DOCTYPE svg PUBLIC "-//W3C//DTD SVG 1.1//EN" "http://www.w3.org/Graphics/SVG/1.1/DTD/svg11.dtd" >
<svg xmlns="http://www.w3.org/2000/svg" xmlns:xlink="http://www.w3.org/1999/xlink" version="1.1" viewBox="-10 0 1010 1000">
   <path fill="currentColor"
d="M721 278l-34 -14c16 -29 37 -71 47 -100l43 20c-19 33 -39 70 -56 94zM499 184l38 -15c19 28 39 66 46 91l-40 17c-5 -25 -24 -64 -44 -93zM467 144v148h145v-148h-145zM813 292v-148h-150v148h150zM938 504v53h-583v-53h250v-59h-211v-51h211v-54h-201v-243h474v243
h-208v54h212v51h-212v59h268zM791 584l48 -25c35 31 75 75 93 106l-51 29c-17 -32 -56 -77 -90 -110zM764 670l-51 19c-8 -30 -30 -73 -51 -106l49 -16c22 31 45 73 53 103zM601 679l-56 13c-2 -30 -11 -76 -24 -110l53 -10c14 34 25 79 27 107zM429 565l52 22
c-20 42 -50 90 -89 120l-50 -32c37 -27 69 -72 87 -110zM262 250h-124v409h124v-409zM322 182v544h-184v81h-59v-625h243zM672 874h273v58h-616v-58h274v-86h-197v-56h197v-74h69v74h208v56h-208v86z" />
</svg>
