<?xml version="1.0" standalone="no"?>
<!DOCTYPE svg PUBLIC "-//W3C//DTD SVG 1.1//EN" "http://www.w3.org/Graphics/SVG/1.1/DTD/svg11.dtd" >
<svg xmlns="http://www.w3.org/2000/svg" xmlns:xlink="http://www.w3.org/1999/xlink" version="1.1" viewBox="-10 0 1010 1000">
   <path fill="currentColor"
d="M729 180h-195v73h195v-73zM469 307v-127h-148v-59h148v-77h65v77h195v-77h68v77h156v59h-156v127h-328zM578 413v201h89v-201h-89zM720 669h-194v-310h194v310zM310 954l-51 -39c59 -39 96 -109 113 -178l57 18c-20 77 -52 153 -119 199zM236 609v-394h-101v394h101z
M419 395v-73h58v384h-58v-76c-35 13 -69 27 -101 39l-22 -50v57h-161v81h-59v-609h220v463c35 -9 77 -23 123 -39v-118h-106v-59h106zM494 759l61 -8c15 58 26 134 28 184l-63 9c-1 -50 -12 -127 -26 -185zM635 760l57 -17c32 56 65 131 79 179l-60 21
c-14 -49 -45 -126 -76 -183zM883 703h-47c-18 0 -39 -3 -52 -15c-14 -11 -17 -26 -17 -84v-286h58v128c30 -23 62 -49 83 -70l41 39c-39 34 -86 67 -124 90v108c0 19 1 32 6 35c3 4 9 4 17 4h28c9 0 19 0 22 -2c5 -3 10 -9 13 -21c2 -12 3 -39 4 -75c11 10 33 21 50 26
c-1 34 -5 73 -10 87c-6 15 -15 25 -29 30c-10 5 -29 6 -43 6zM781 756l58 -25c52 59 106 139 130 193l-60 29c-24 -54 -77 -137 -128 -197z" />
</svg>
