<?xml version="1.0" standalone="no"?>
<!DOCTYPE svg PUBLIC "-//W3C//DTD SVG 1.1//EN" "http://www.w3.org/Graphics/SVG/1.1/DTD/svg11.dtd" >
<svg xmlns="http://www.w3.org/2000/svg" xmlns:xlink="http://www.w3.org/1999/xlink" version="1.1" viewBox="-10 0 1010 1000">
   <path fill="currentColor"
d="M258 207h-117v416h117v-416zM322 692h-181v96h-65v-651h246v555zM453 178v231c0 157 -13 384 -101 539c-11 -13 -39 -34 -54 -42c81 -146 89 -349 89 -497v-292h253c-8 -20 -18 -42 -28 -60l70 -14c11 23 27 51 37 74h234v61h-500zM623 511h-54v-137
c-21 42 -46 82 -72 106c-9 -12 -24 -29 -36 -38c35 -28 70 -81 92 -133h-74v-46h90v-48h54v48h71v46h-69c21 23 68 73 80 87l-36 33c-9 -15 -27 -40 -46 -62v144zM840 846v-111h-227v111h227zM484 600v-60h457v60h-273c-14 26 -30 54 -48 79h285v271h-65v-49h-227v51h-63
v-188c-28 30 -60 56 -92 78c-5 -16 -20 -44 -30 -59c67 -45 129 -115 166 -183h-110zM939 309h-81c26 53 66 109 105 137c-11 9 -27 25 -36 36c-27 -23 -55 -59 -79 -100v124h-57v-124c-25 44 -55 85 -82 110c-9 -12 -25 -28 -36 -37c38 -30 80 -90 105 -146h-59v-46h72v-49
h57v49h91v46z" />
</svg>
