<?xml version="1.0" standalone="no"?>
<!DOCTYPE svg PUBLIC "-//W3C//DTD SVG 1.1//EN" "http://www.w3.org/Graphics/SVG/1.1/DTD/svg11.dtd" >
<svg xmlns="http://www.w3.org/2000/svg" xmlns:xlink="http://www.w3.org/1999/xlink" version="1.1" viewBox="-10 0 1010 1000">
   <path fill="currentColor"
d="M578 163l-33 32c-13 -13 -30 -29 -51 -44c-26 20 -54 38 -82 52c-7 -7 -26 -24 -36 -32c27 -13 56 -28 81 -46c-16 -11 -33 -20 -49 -29l33 -28c16 9 35 19 51 30c19 -15 35 -32 48 -48l45 12c-16 21 -34 42 -56 60c20 15 38 29 49 41zM147 410v105h-67v-155h84l-13 -251
c57 -15 138 -46 184 -65l44 35c-48 22 -110 40 -163 54l3 43h144v45h-142l2 46h144v45h-142l3 48h184c-8 -9 -24 -24 -35 -31c30 -15 62 -33 90 -52c-19 -13 -38 -26 -56 -35l33 -28c18 10 39 22 58 35c20 -16 37 -34 51 -51l46 12c-17 23 -37 44 -60 65c22 14 40 30 53 44
l-33 31c-14 -14 -33 -30 -55 -47c-28 22 -58 41 -86 57h342c2 -15 3 -31 5 -48h-129v-45h133l3 -46h-130v-45h133l2 -46h-144v-48h212c-4 89 -10 203 -17 278h93v155h-69v-105h-705zM747 785h-502v81h502v-81zM173 955v-228h648v226h-74v-30h-502v32h-72zM542 616h401v53
h-885v-53h411v-75h-212c-21 29 -44 54 -66 75c-13 -10 -41 -29 -56 -38c49 -40 92 -99 118 -157l65 15c-8 18 -17 35 -27 52h178v-63h73v63h286v53h-286v75z" />
</svg>
