<?xml version="1.0" standalone="no"?>
<!DOCTYPE svg PUBLIC "-//W3C//DTD SVG 1.1//EN" "http://www.w3.org/Graphics/SVG/1.1/DTD/svg11.dtd" >
<svg xmlns="http://www.w3.org/2000/svg" xmlns:xlink="http://www.w3.org/1999/xlink" version="1.1" viewBox="-10 0 1010 1000">
   <path fill="currentColor"
d="M201 152h-79v487h79v-487zM256 95v600h-134v95h-54v-695h188zM544 885h-43v-40l-180 24v-323h44v265l43 -5v-336h-112v-58h112v-189h-35c-16 51 -33 97 -53 134c-10 -10 -32 -25 -46 -32c41 -72 71 -180 89 -283l51 11c-7 38 -16 76 -26 112h161v58h-89v189h105v58h-105
v329l41 -5v-249h43v340zM719 278h-77v237c0 130 -8 315 -57 442c-10 -11 -32 -28 -46 -35c47 -120 51 -285 51 -407v-292h127v-179h56v68h154v55h-154v56h134l9 -2l36 9c-9 48 -22 103 -35 137l-46 -9c7 -21 15 -51 20 -80h-120v58l89 -8l4 47l-93 8v32c0 19 4 22 27 22h78
c17 0 21 -7 23 -50c12 8 30 15 44 18c-4 60 -19 77 -60 77h-91c-59 0 -73 -13 -73 -67v-27l-58 5l-4 -47l62 -5v-63zM830 723h125v54h-125v108c0 31 -5 44 -25 53c-18 9 -47 10 -91 9c-3 -15 -10 -35 -17 -51c33 1 62 1 70 0c10 0 12 -3 12 -13v-106h-128v-54h128v-146
c-34 4 -68 7 -101 9c-2 -13 -7 -33 -13 -46c87 -6 190 -21 249 -38l34 44c-34 10 -75 18 -118 24v153zM910 594l47 19c-18 40 -37 82 -53 110l-39 -17c15 -31 36 -80 45 -112zM663 621l40 -16c19 29 37 70 43 98l-43 19c-5 -28 -22 -70 -40 -101z" />
</svg>
