<?xml version="1.0" standalone="no"?>
<!DOCTYPE svg PUBLIC "-//W3C//DTD SVG 1.1//EN" "http://www.w3.org/Graphics/SVG/1.1/DTD/svg11.dtd" >
<svg xmlns="http://www.w3.org/2000/svg" xmlns:xlink="http://www.w3.org/1999/xlink" version="1.1" viewBox="-10 0 1010 1000">
   <path fill="currentColor"
d="M394 239v-110h-77v110h77zM444 78v213h-176v-213h176zM184 237v-110h-73v110h73zM234 76v213h-172v-213h172zM136 612h88v-85h-88v85zM136 391v83h88v-83h-88zM372 474v-83h-90v83h90zM372 612v-85h-90v85h90zM436 795h-154v158h-58v-158h-177v-61h177v-67h-144v-331h350
v331h-148v67h154v61zM631 448h-74c0 33 -1 69 -2 106h76v-106zM858 137h-301v92h301v-92zM777 448h-85v106h85v-106zM887 635l46 43c-30 31 -67 65 -98 90c34 52 79 92 137 115c-14 11 -32 35 -41 52c-119 -52 -183 -170 -216 -319h-53v242l102 -30c1 16 4 40 7 53
c-129 46 -152 54 -165 64c-5 -15 -18 -46 -27 -60c10 -9 23 -27 23 -67v-202h-52c-11 121 -37 249 -102 344c-12 -12 -39 -29 -55 -36c91 -136 100 -329 100 -475v-368h432v204h-368v103h74v-78h61v78h85v-78h60v78h94v60h-94v106h113v62h-179c9 36 21 70 36 101
c28 -26 60 -58 80 -82z" />
</svg>
