<?xml version="1.0" standalone="no"?>
<!DOCTYPE svg PUBLIC "-//W3C//DTD SVG 1.1//EN" "http://www.w3.org/Graphics/SVG/1.1/DTD/svg11.dtd" >
<svg xmlns="http://www.w3.org/2000/svg" xmlns:xlink="http://www.w3.org/1999/xlink" version="1.1" viewBox="-10 0 1010 1000">
   <path fill="currentColor"
d="M854 254v-108h-113v108h113zM689 254v-108h-112v108h112zM525 254v-108h-106v108h106zM921 89v221h-566v-221h566zM234 178h-105v467h105v-467zM294 707h-165v97h-60v-687h225v590zM341 748l47 11c-15 67 -37 142 -57 191c-11 -5 -33 -12 -46 -16c23 -50 42 -122 56 -186
zM420 760l46 -6c9 55 16 125 17 172l-49 6c0 -47 -6 -117 -14 -172zM500 749l42 -10c17 50 36 114 44 155l-45 12c-7 -42 -25 -107 -41 -157zM492 576l45 -10c20 52 42 118 50 159l-48 12c-2 -12 -6 -27 -10 -44c-155 21 -179 26 -194 33c-3 -11 -10 -37 -17 -51
c17 -2 35 -21 57 -49c12 -12 37 -46 67 -89c-74 5 -91 9 -103 13c-3 -11 -11 -38 -17 -52c13 -2 24 -13 38 -31c12 -16 57 -85 81 -150l55 22c-26 54 -60 109 -93 151l71 -2c19 -30 37 -63 52 -94l51 27c-49 85 -109 171 -169 240l108 -12c-7 -25 -15 -50 -24 -73zM683 761
v86h94v-86h-94zM777 569v-87h-94v87h94zM777 707v-84h-94v84h94zM948 847v59h-265v50h-59v-392l-18 24c-10 -9 -36 -27 -50 -34c51 -61 95 -151 123 -238l58 15c-11 31 -23 64 -36 94h90c-8 -29 -21 -64 -32 -92l51 -14c15 33 30 76 39 106h92v57h-108v87h96v54h-96v84h96
v54h-96v86h115z" />
</svg>
