<?xml version="1.0" standalone="no"?>
<!DOCTYPE svg PUBLIC "-//W3C//DTD SVG 1.1//EN" "http://www.w3.org/Graphics/SVG/1.1/DTD/svg11.dtd" >
<svg xmlns="http://www.w3.org/2000/svg" xmlns:xlink="http://www.w3.org/1999/xlink" version="1.1" viewBox="-10 0 1010 1000">
   <path fill="currentColor"
d="M216 198h-81v434h81v-434zM272 692h-137v96h-57v-650h194v554zM821 891l-40 16c18 2 32 2 41 2s15 -2 21 -10c10 -16 17 -81 24 -263h-207v38h135v125h-27c21 29 44 68 53 92zM660 843l80 -4c-6 -10 -13 -18 -18 -27l39 -13h-101v44zM660 711v51h84v-51h-84zM525 762h79
v-51h-79v51zM604 636h-75c-11 13 -23 26 -33 38h108v-38zM847 122h-445v60h445v-60zM515 452v60h78v-60h-78zM644 452v60h81v-60h-81zM776 452v60h85v-60h-85zM565 589h365s0 18 -1 25c-6 220 -14 294 -32 318c-12 15 -27 21 -48 22c-15 2 -39 2 -63 1
c-1 -15 -7 -35 -15 -49h2c-3 -7 -5 -15 -9 -24c-121 8 -243 15 -332 20l-10 -48l182 -8v-47h-129v-105c-18 17 -36 33 -55 46c-8 -9 -28 -30 -42 -41c-18 92 -54 181 -115 252c-11 -12 -40 -31 -56 -38c117 -133 128 -325 128 -476v-366h584v162h-517v204
c0 79 -4 170 -23 260c55 -37 107 -90 143 -146h-64v-138h462v138h-332c-7 13 -14 25 -23 38zM912 364l-19 40c-41 -17 -108 -32 -166 -42l14 -37c62 7 130 23 171 39zM886 240l24 39c-46 19 -112 33 -157 40l-20 -32c44 -9 115 -34 153 -47zM712 398h-57v-154h57v154z
M465 407l-15 -46c46 -8 114 -23 181 -38l2 39c-59 15 -119 32 -168 45zM457 280l19 -34c48 8 113 24 151 39l-19 40c-34 -14 -101 -34 -151 -45z" />
</svg>
