<?xml version="1.0" standalone="no"?>
<!DOCTYPE svg PUBLIC "-//W3C//DTD SVG 1.1//EN" "http://www.w3.org/Graphics/SVG/1.1/DTD/svg11.dtd" >
<svg xmlns="http://www.w3.org/2000/svg" xmlns:xlink="http://www.w3.org/1999/xlink" version="1.1" viewBox="-10 0 1010 1000">
   <path fill="currentColor"
d="M225 179h-89v466h89v-466zM281 117v590h-145v97h-56v-687h201zM522 657l34 -9c10 22 19 52 23 72l-37 11c-2 -20 -11 -51 -20 -74zM697 733l-30 -13c11 -22 25 -53 33 -73l36 16c-13 27 -26 51 -39 70zM713 439h151v-57h-151v57zM400 441h145v-59h-145v59zM545 286h-145
v50h145v-50zM864 286h-151v50h151v-50zM759 736v-97h-108v97h108zM499 639v97h105v-97h-105zM925 236v652c0 33 -8 48 -30 57s-58 10 -113 10c-3 -16 -11 -37 -19 -51c39 1 75 1 86 0c11 0 15 -4 15 -15v-400h-207v33h171v47h-171v30h150v177h-106c41 30 82 66 105 93
l-41 33c-23 -29 -66 -68 -107 -98v134h-61v-139c-39 51 -93 99 -144 126c-4 -17 -16 -39 -25 -54c44 -20 94 -56 130 -95h-106v-177h145v-30h-169v-47h169v-31h-197v464h-59v-719h260v244h54v-244h270zM771 111h181v54h-181v54h-65v-54h-165v57h-64v-57h-163v-54h163v-68h64
v68h165v-68h65v68z" />
</svg>
