<?xml version="1.0" standalone="no"?>
<!DOCTYPE svg PUBLIC "-//W3C//DTD SVG 1.1//EN" "http://www.w3.org/Graphics/SVG/1.1/DTD/svg11.dtd" >
<svg xmlns="http://www.w3.org/2000/svg" xmlns:xlink="http://www.w3.org/1999/xlink" version="1.1" viewBox="-10 0 1010 1000">
   <path fill="currentColor"
d="M376 289h397s-1 22 -2 31c-22 298 -42 406 -76 443c-17 20 -36 27 -62 29c-21 2 -57 2 -96 -1c-1 -18 -8 -44 -17 -60c38 4 71 4 87 4c15 0 23 -2 32 -12c25 -27 45 -123 64 -371h-68c-53 181 -138 332 -254 432c-9 -10 -33 -30 -48 -40c111 -90 193 -228 240 -392h-84
c-55 132 -138 250 -229 328c-11 -11 -33 -31 -48 -41c88 -69 164 -171 214 -287h-86c-36 60 -78 112 -122 153c-12 -11 -38 -33 -54 -41c81 -69 152 -176 191 -289l64 16c-12 33 -27 67 -43 98zM157 844h682v-685h-682v685zM86 90h826v869h-73v-46h-682v46h-71v-869z" />
</svg>
