<?xml version="1.0" standalone="no"?>
<!DOCTYPE svg PUBLIC "-//W3C//DTD SVG 1.1//EN" "http://www.w3.org/Graphics/SVG/1.1/DTD/svg11.dtd" >
<svg xmlns="http://www.w3.org/2000/svg" xmlns:xlink="http://www.w3.org/1999/xlink" version="1.1" viewBox="-10 0 1010 1000">
   <path fill="currentColor"
d="M620 303l-46 45c-27 -41 -89 -98 -143 -137l44 -40c54 37 117 92 145 132zM564 449l-50 39c-24 -44 -79 -109 -130 -154l48 -34c51 43 107 106 132 149zM699 268l74 10c-45 150 -116 260 -216 342c74 45 162 77 265 96c-15 16 -34 46 -44 67c-111 -24 -206 -63 -284 -116
c-77 50 -167 88 -272 118c-7 -18 -28 -49 -41 -64c98 -24 183 -56 254 -99c-96 -84 -164 -196 -209 -336l65 -13c42 127 109 231 207 307c96 -75 163 -176 201 -312zM165 811h671v-650h-671v650zM92 90h819v864h-75v-71h-671v71h-73v-864z" />
</svg>
