<?xml version="1.0" standalone="no"?>
<!DOCTYPE svg PUBLIC "-//W3C//DTD SVG 1.1//EN" "http://www.w3.org/Graphics/SVG/1.1/DTD/svg11.dtd" >
<svg xmlns="http://www.w3.org/2000/svg" xmlns:xlink="http://www.w3.org/1999/xlink" version="1.1" viewBox="-10 0 1010 1000">
   <path fill="currentColor"
d="M571 226l52 -26c47 60 135 140 189 181c-16 13 -39 35 -51 52c-51 -49 -139 -140 -190 -207zM373 200l64 18c-45 94 -126 173 -208 225c-10 -13 -35 -38 -49 -48c80 -44 155 -114 193 -195zM532 536v162h257v65h-580v-65h254v-162h-192v-63h192v-97h69v97h194v63h-194z
M161 844h678v-688h-678v688zM88 88h826v870h-75v-45h-678v45h-73v-870z" />
</svg>
