<?xml version="1.0" standalone="no"?>
<!DOCTYPE svg PUBLIC "-//W3C//DTD SVG 1.1//EN" "http://www.w3.org/Graphics/SVG/1.1/DTD/svg11.dtd" >
<svg xmlns="http://www.w3.org/2000/svg" xmlns:xlink="http://www.w3.org/1999/xlink" version="1.1" viewBox="-10 0 1010 1000">
   <path fill="currentColor"
d="M666 187l59 17c-22 37 -47 75 -68 100l-50 -16c20 -28 46 -72 59 -101zM369 285l-53 17c-8 -26 -28 -66 -53 -95l53 -16c24 27 47 66 53 94zM370 522h263c-15 -17 -28 -34 -39 -52h-180c-14 19 -28 35 -44 52zM812 470h-152c41 52 105 97 171 119c-15 11 -33 33 -43 48
c-56 -23 -109 -63 -151 -109v146h-251v61c0 23 9 26 60 26h180c37 0 44 -8 47 -71c14 10 38 17 56 21c-7 81 -27 101 -95 101h-193c-93 0 -120 -14 -120 -77v-106h252v-63h-224v-23c-41 38 -88 70 -141 98c-8 -11 -31 -34 -45 -45c70 -32 128 -74 175 -126h-144v-50h183
c14 -21 26 -43 38 -67h-182v-48h204c14 -38 26 -79 35 -124l63 7c-9 42 -20 81 -34 117h276v48h-295c-10 24 -22 46 -35 67h365v50zM156 847h686v-692h-686v692zM85 87h830v870h-73v-42h-686v42h-71v-870z" />
</svg>
