<?xml version="1.0" standalone="no"?>
<!DOCTYPE svg PUBLIC "-//W3C//DTD SVG 1.1//EN" "http://www.w3.org/Graphics/SVG/1.1/DTD/svg11.dtd" >
<svg xmlns="http://www.w3.org/2000/svg" xmlns:xlink="http://www.w3.org/1999/xlink" version="1.1" viewBox="-10 0 1010 1000">
   <path fill="currentColor"
d="M632 312v-57h-267v57h267zM697 213v141h-394v-141h394zM324 607v48h347v-48h-347zM324 520v46h347v-46h-347zM324 433v46h347v-46h-347zM737 698h-147c70 25 150 59 196 90l-60 28c-41 -28 -113 -64 -183 -89l43 -29h-189l54 17c-50 38 -129 77 -195 100
c-10 -11 -32 -32 -45 -42c66 -20 137 -46 181 -75h-132v-307h477v307zM156 846h686v-689h-686v689zM85 89h830v870h-73v-46h-686v46h-71v-870z" />
</svg>
