<?xml version="1.0" standalone="no"?>
<!DOCTYPE svg PUBLIC "-//W3C//DTD SVG 1.1//EN" "http://www.w3.org/Graphics/SVG/1.1/DTD/svg11.dtd" >
<svg xmlns="http://www.w3.org/2000/svg" xmlns:xlink="http://www.w3.org/1999/xlink" version="1.1" viewBox="-10 0 1010 1000">
   <path fill="currentColor"
d="M577 608l-17 -5c11 -19 25 -45 34 -65h-199c13 22 26 49 31 66l-12 4h163zM448 240v68h92v-68h-92zM395 308v-68h-89v68h89zM593 240v68h94v-68h-94zM784 491v47h-155l28 7c-15 24 -30 45 -42 63h142v47h-232v51h211v46h-211v82h-62v-82h-199v-46h199v-51h-226v-47h130
c-7 -20 -19 -45 -30 -63l25 -7h-156v-47h257v-47h-206v-46h206v-45h-216v-158h501v158h-223v45h209v46h-209v47h259zM168 858h660v-710h-660v710zM99 89h800v858h-71v-30h-660v39h-69v-867z" />
</svg>
