<?xml version="1.0" standalone="no"?>
<!DOCTYPE svg PUBLIC "-//W3C//DTD SVG 1.1//EN" "http://www.w3.org/Graphics/SVG/1.1/DTD/svg11.dtd" >
<svg xmlns="http://www.w3.org/2000/svg" xmlns:xlink="http://www.w3.org/1999/xlink" version="1.1" viewBox="-10 0 1010 1000">
   <path fill="currentColor"
d="M595 280v45h-199v-45h92c-11 -30 -28 -69 -46 -98l39 -15c23 36 45 83 53 113h61zM576 382v44h-161v-44h161zM415 529v-45h161v45h-161zM415 563l-38 18c-2 -10 -6 -23 -10 -36c-141 22 -164 27 -178 34c-3 -9 -10 -33 -16 -46c14 -3 30 -19 49 -45c10 -13 34 -46 59 -88
c-68 7 -86 12 -96 16c-3 -10 -9 -35 -15 -46c12 -3 22 -16 33 -35c13 -18 55 -94 75 -163l47 18c-23 59 -55 119 -86 166l71 -5c14 -24 27 -51 39 -77l43 23c-40 77 -89 157 -140 219l100 -13c-8 -22 -17 -45 -27 -63l36 -14c23 43 46 102 54 137zM207 615l40 10
c-7 56 -20 117 -35 157c-7 -7 -25 -19 -34 -25c16 -40 23 -92 29 -142zM268 624l38 -6c12 44 23 100 23 133l-40 10c-1 -36 -9 -92 -21 -137zM336 616l35 -11c18 37 34 87 39 118l-36 15c-5 -32 -21 -84 -38 -122zM455 639v114h82v-114h-82zM411 801v-210h171v210h-171z
M829 565l-38 16c-2 -11 -6 -22 -10 -35c-140 21 -163 26 -178 34c-2 -10 -9 -33 -15 -46c15 -3 30 -19 49 -45c10 -13 34 -45 59 -87c-68 7 -85 11 -95 16v-1c-3 -10 -10 -35 -16 -46c12 -3 22 -16 34 -35c12 -18 54 -94 75 -164l46 20c-23 59 -55 118 -86 166l71 -6
c14 -24 27 -51 39 -77l44 21c-41 79 -90 158 -140 221l99 -13c-9 -22 -18 -44 -28 -63l35 -14c24 44 46 102 55 138zM621 615l41 11c-7 56 -20 117 -35 157c-7 -6 -26 -19 -36 -25c17 -40 25 -92 30 -143zM683 625l38 -7c13 48 24 108 26 146l-41 10
c-1 -39 -11 -102 -23 -149zM753 616l34 -11c22 46 41 108 47 145l-36 15c-6 -39 -25 -101 -45 -149zM161 859h674v-714h-674v714zM95 86h810v862h-70v-30h-674v39h-66v-871z" />
</svg>
