<?xml version="1.0" standalone="no"?>
<!DOCTYPE svg PUBLIC "-//W3C//DTD SVG 1.1//EN" "http://www.w3.org/Graphics/SVG/1.1/DTD/svg11.dtd" >
<svg xmlns="http://www.w3.org/2000/svg" xmlns:xlink="http://www.w3.org/1999/xlink" version="1.1" viewBox="-10 0 1010 1000">
   <path fill="currentColor"
d="M726 173h-449c56 66 132 119 223 163c92 -42 170 -96 226 -163zM796 100l51 33c-61 103 -152 180 -263 239c112 43 241 71 378 87c-15 16 -34 47 -44 67c-154 -20 -297 -57 -420 -113c-130 54 -278 88 -427 107c-5 -19 -20 -50 -32 -66c131 -15 261 -41 377 -83
c-89 -51 -165 -115 -222 -190l16 -8h-107v-69h679zM537 685v166h403v71h-878v-71h400v-166h-291v-70h291v-119h75v119h289v70h-289z" />
</svg>
