<?xml version="1.0" standalone="no"?>
<!DOCTYPE svg PUBLIC "-//W3C//DTD SVG 1.1//EN" "http://www.w3.org/Graphics/SVG/1.1/DTD/svg11.dtd" >
<svg xmlns="http://www.w3.org/2000/svg" xmlns:xlink="http://www.w3.org/1999/xlink" version="1.1" viewBox="-10 0 1010 1000">
   <path fill="currentColor"
d="M244 382v287c41 -16 83 -32 124 -48l15 64c-108 48 -224 97 -312 133l-32 -73c37 -12 84 -30 135 -50v-313h-119v-70h119v-246h70v246h122v70h-122zM953 451v73h-241v431h-74v-431h-244v-73h244v-255c-69 15 -138 28 -204 38c-3 -18 -15 -46 -24 -62
c153 -26 328 -66 424 -112l66 58c-53 23 -118 43 -188 61v272h241z" />
</svg>
