<?xml version="1.0" standalone="no"?>
<!DOCTYPE svg PUBLIC "-//W3C//DTD SVG 1.1//EN" "http://www.w3.org/Graphics/SVG/1.1/DTD/svg11.dtd" >
<svg xmlns="http://www.w3.org/2000/svg" xmlns:xlink="http://www.w3.org/1999/xlink" version="1.1" viewBox="-10 0 1010 1000">
   <path fill="currentColor"
d="M537 365h400s-1 26 -3 35c-20 350 -41 472 -76 514c-19 23 -38 31 -67 33c-24 3 -64 3 -107 1c-1 -21 -8 -51 -19 -71c41 4 77 5 95 5c16 0 25 -2 34 -15c27 -27 47 -141 66 -432h-68c-68 234 -187 408 -356 521c-12 -12 -40 -34 -57 -43c169 -100 282 -265 344 -478h-84
c-45 128 -126 233 -222 302c-9 -11 -36 -30 -52 -41l2 8c-105 42 -217 87 -304 120l-24 -75c37 -12 84 -28 136 -47v-346h-122v-70h122v-231h70v231h110v70h-110v321l107 -40l13 57c90 -59 162 -150 203 -259h-70c-46 0 -79 4 -87 12c-5 -16 -21 -52 -31 -70
c25 -4 61 -24 100 -49c33 -21 130 -88 216 -167h-321v-71h401l14 -6l56 42c-106 96 -211 176 -309 239z" />
</svg>
