<?xml version="1.0" standalone="no"?>
<!DOCTYPE svg PUBLIC "-//W3C//DTD SVG 1.1//EN" "http://www.w3.org/Graphics/SVG/1.1/DTD/svg11.dtd" >
<svg xmlns="http://www.w3.org/2000/svg" xmlns:xlink="http://www.w3.org/1999/xlink" version="1.1" viewBox="-10 0 1010 1000">
   <path fill="currentColor"
d="M395 588l13 66c-117 50 -244 101 -340 138l-29 -75c42 -13 95 -32 153 -54v-309h-135v-72h135v-231h73v231h135v72h-135v283c42 -17 86 -32 130 -49zM946 365v73h-128v515h-75v-515h-193c-2 159 -23 376 -132 522c-13 -15 -45 -40 -62 -49c107 -144 118 -349 118 -499
v-264c132 -23 281 -61 366 -99l62 58c-96 38 -229 71 -352 93v165h396z" />
</svg>
