<?xml version="1.0" standalone="no"?>
<!DOCTYPE svg PUBLIC "-//W3C//DTD SVG 1.1//EN" "http://www.w3.org/Graphics/SVG/1.1/DTD/svg11.dtd" >
<svg xmlns="http://www.w3.org/2000/svg" xmlns:xlink="http://www.w3.org/1999/xlink" version="1.1" viewBox="-10 0 1010 1000">
   <path fill="currentColor"
d="M547 149v45c0 94 -31 204 -175 274c-9 -15 -34 -43 -47 -54c130 -62 153 -146 153 -222v-113h308v231c0 28 2 38 19 38h78c15 0 38 -2 51 -5c1 19 3 47 6 64c-13 4 -34 5 -55 5h-85c-70 0 -86 -29 -86 -104v-159h-167zM354 587l16 66c-105 49 -217 99 -303 137l-29 -73
c38 -15 86 -34 139 -56v-308h-122v-71h122v-228h70v228h110v71h-110v279zM785 552h-311c36 73 88 138 154 192c65 -52 120 -116 157 -192zM837 479l48 22c-41 121 -110 215 -196 286c75 47 164 82 263 101c-17 16 -38 46 -47 68c-106 -26 -200 -67 -278 -123
c-87 59 -187 99 -292 126c-7 -21 -23 -52 -37 -68c96 -21 188 -55 270 -106c-67 -60 -121 -133 -160 -217l44 -16h-84v-70h455z" />
</svg>
