<?xml version="1.0" standalone="no"?>
<!DOCTYPE svg PUBLIC "-//W3C//DTD SVG 1.1//EN" "http://www.w3.org/Graphics/SVG/1.1/DTD/svg11.dtd" >
<svg xmlns="http://www.w3.org/2000/svg" xmlns:xlink="http://www.w3.org/1999/xlink" version="1.1" viewBox="-10 0 1010 1000">
   <path fill="currentColor"
d="M366 586l13 68c-110 45 -227 91 -318 126l-24 -76c40 -12 88 -29 141 -48v-312h-122v-71h122v-224h70v224h109v71h-109v286zM519 300l-1 2c29 124 72 237 133 331c61 -90 102 -199 130 -333h-262zM957 300h-95c-36 163 -88 293 -164 398c71 86 161 152 272 192
c-16 15 -40 45 -52 65c-109 -44 -197 -111 -268 -198c-78 85 -177 151 -303 201c-8 -17 -29 -52 -44 -69c128 -46 226 -109 301 -195c-55 -84 -98 -183 -131 -293c-27 52 -55 99 -86 138c-14 -12 -48 -34 -66 -45c92 -107 160 -277 201 -451l75 16c-14 58 -31 115 -51 170
h411v71z" />
</svg>
