<?xml version="1.0" standalone="no"?>
<!DOCTYPE svg PUBLIC "-//W3C//DTD SVG 1.1//EN" "http://www.w3.org/Graphics/SVG/1.1/DTD/svg11.dtd" >
<svg xmlns="http://www.w3.org/2000/svg" xmlns:xlink="http://www.w3.org/1999/xlink" version="1.1" viewBox="-10 0 1010 1000">
   <path fill="currentColor"
d="M217 344v-61c-38 28 -78 52 -119 72c-10 -14 -37 -43 -53 -55c119 -51 230 -137 286 -242l70 21c-42 78 -106 145 -177 199h547c-75 -57 -148 -128 -196 -199l62 -26c67 96 200 196 316 244c-18 14 -42 42 -53 61c-37 -18 -75 -42 -113 -68c0 6 -1 13 -1 18
c-12 138 -24 197 -46 220c-17 17 -35 23 -61 25c-25 1 -72 1 -121 -2c-1 -20 -8 -46 -20 -64c48 4 92 5 109 5c16 0 25 -2 33 -9c13 -13 22 -50 31 -139h-241c-34 119 -110 199 -306 243c-7 -17 -25 -48 -39 -62c173 -32 241 -94 271 -181h-179zM533 716v140h413v71h-887
v-71h398v-140h-290v-68h290v-93h76v93h309v68h-309z" />
</svg>
