<?xml version="1.0" standalone="no"?>
<!DOCTYPE svg PUBLIC "-//W3C//DTD SVG 1.1//EN" "http://www.w3.org/Graphics/SVG/1.1/DTD/svg11.dtd" >
<svg xmlns="http://www.w3.org/2000/svg" xmlns:xlink="http://www.w3.org/1999/xlink" version="1.1" viewBox="-10 0 1010 1000">
   <path fill="currentColor"
d="M246 678l114 -41l13 68c-107 42 -221 86 -309 119l-24 -75c37 -12 83 -27 133 -45v-348h-117v-70h117v-231h73v231h109v70h-109v322zM675 386l56 -38c74 81 165 191 208 261l-61 46c-40 -71 -129 -185 -203 -269zM354 108h587v71h-215c-15 43 -32 84 -52 125v650h-73
v-517c-57 90 -123 169 -193 230c-11 -15 -40 -44 -57 -58c125 -99 230 -255 295 -430h-292v-71z" />
</svg>
