<?xml version="1.0" standalone="no"?>
<!DOCTYPE svg PUBLIC "-//W3C//DTD SVG 1.1//EN" "http://www.w3.org/Graphics/SVG/1.1/DTD/svg11.dtd" >
<svg xmlns="http://www.w3.org/2000/svg" xmlns:xlink="http://www.w3.org/1999/xlink" version="1.1" viewBox="-10 0 1010 1000">
   <path fill="currentColor"
d="M433 436l-51 53c-30 -40 -85 -103 -137 -155c-38 81 -87 150 -146 203c-12 -14 -42 -40 -57 -52c104 -86 171 -227 204 -396l74 12c-12 59 -28 115 -46 166c57 54 124 125 159 169zM535 847h411v72h-890v-72h405v-190h-333v-71h333v-530h74v402
c101 -81 166 -211 197 -366l73 13c-13 62 -31 119 -53 172c69 65 151 148 193 203l-53 52c-36 -50 -105 -126 -171 -191c-36 69 -81 127 -134 173c-11 -11 -35 -34 -52 -48v120h343v71h-343v190z" />
</svg>
