<?xml version="1.0" standalone="no"?>
<!DOCTYPE svg PUBLIC "-//W3C//DTD SVG 1.1//EN" "http://www.w3.org/Graphics/SVG/1.1/DTD/svg11.dtd" >
<svg xmlns="http://www.w3.org/2000/svg" xmlns:xlink="http://www.w3.org/1999/xlink" version="1.1" viewBox="-10 0 1010 1000">
   <path fill="currentColor"
d="M798 154h-259c29 75 71 140 125 195c57 -54 103 -119 134 -195zM842 86l46 17c-34 122 -93 218 -170 292c65 49 143 85 234 106c-15 16 -37 45 -48 66c-94 -27 -173 -68 -240 -124c-64 51 -138 88 -215 115c-8 -20 -26 -49 -41 -64c72 -20 143 -55 204 -101
c-59 -65 -105 -144 -137 -236l10 -3h-44v-65h388zM372 64v490h-68v-490h68zM184 110v406h-68v-406h68zM535 715v144h411v66h-889v-66h404v-144h-304v-64h304v-75h74v75h307v64h-307z" />
</svg>
