<?xml version="1.0" standalone="no"?>
<!DOCTYPE svg PUBLIC "-//W3C//DTD SVG 1.1//EN" "http://www.w3.org/Graphics/SVG/1.1/DTD/svg11.dtd" >
<svg xmlns="http://www.w3.org/2000/svg" xmlns:xlink="http://www.w3.org/1999/xlink" version="1.1" viewBox="-10 0 1010 1000">
   <path fill="currentColor"
d="M241 636l106 -46l16 66c-102 48 -211 97 -295 135l-29 -74c36 -14 81 -31 130 -52v-312h-121v-71h121v-228h72v228h111v71h-111v283zM686 608h155v-149h-155v149zM461 608h154v-149h-154v149zM615 246h-154v145h154v-145zM841 246h-155v145h155v-145zM686 177h226v549
h-71v-49h-155v280h-71v-280h-154v54h-69v-554h223v-133h71v133z" />
</svg>
