<?xml version="1.0" standalone="no"?>
<!DOCTYPE svg PUBLIC "-//W3C//DTD SVG 1.1//EN" "http://www.w3.org/Graphics/SVG/1.1/DTD/svg11.dtd" >
<svg xmlns="http://www.w3.org/2000/svg" xmlns:xlink="http://www.w3.org/1999/xlink" version="1.1" viewBox="-10 0 1010 1000">
   <path fill="currentColor"
d="M930 402h-860v-67h390v-116h-301v-66h301v-109h76v109h306v66h-306v116h394v67zM914 591l-58 48c-51 -57 -157 -139 -247 -195l54 -42c89 52 197 132 251 189zM335 410l70 27c-71 75 -181 152 -271 200c-12 -15 -40 -43 -56 -57c90 -41 194 -106 257 -170zM535 858h417
v68h-904v-68h412v-140h-306v-67h306v-124h75v124h315v67h-315v140z" />
</svg>
