<?xml version="1.0" standalone="no"?>
<!DOCTYPE svg PUBLIC "-//W3C//DTD SVG 1.1//EN" "http://www.w3.org/Graphics/SVG/1.1/DTD/svg11.dtd" >
<svg xmlns="http://www.w3.org/2000/svg" xmlns:xlink="http://www.w3.org/1999/xlink" version="1.1" viewBox="-10 0 1010 1000">
   <path fill="currentColor"
d="M351 589l17 65c-104 48 -216 98 -301 136l-29 -73c37 -14 84 -33 135 -54v-310h-118v-71h118v-227h70v227h105v71h-105v282c35 -16 72 -31 108 -46zM517 470v381h193v-381h-193zM781 851h174v69h-630v-69h119v-707c132 -23 284 -56 369 -88l63 54c-99 34 -235 62 -359 83
v209h417v68h-153v381z" />
</svg>
