<?xml version="1.0" standalone="no"?>
<!DOCTYPE svg PUBLIC "-//W3C//DTD SVG 1.1//EN" "http://www.w3.org/Graphics/SVG/1.1/DTD/svg11.dtd" >
<svg xmlns="http://www.w3.org/2000/svg" xmlns:xlink="http://www.w3.org/1999/xlink" version="1.1" viewBox="-10 0 1010 1000">
   <path fill="currentColor"
d="M241 669l110 -45l15 64c-102 47 -213 94 -297 130l-32 -72c37 -13 83 -30 134 -50v-328h-116v-70h116v-246h70v246h108v70h-108v301zM959 527v71h-272v263c0 46 -12 66 -41 79c-30 12 -80 14 -163 13c-3 -20 -15 -51 -26 -71c62 2 118 1 133 1c18 0 24 -6 24 -23v-262
h-268v-71h268v-350c-77 9 -154 16 -227 21c-3 -17 -13 -44 -20 -61c174 -14 382 -40 497 -74l52 59c-63 18 -144 33 -229 45v360h272zM394 263l63 -21c38 74 70 170 79 233l-66 23c-9 -64 -41 -162 -76 -235zM816 496l-62 -21c32 -66 72 -176 92 -253l77 22
c-32 86 -73 188 -107 252z" />
</svg>
