<?xml version="1.0" standalone="no"?>
<!DOCTYPE svg PUBLIC "-//W3C//DTD SVG 1.1//EN" "http://www.w3.org/Graphics/SVG/1.1/DTD/svg11.dtd" >
<svg xmlns="http://www.w3.org/2000/svg" xmlns:xlink="http://www.w3.org/1999/xlink" version="1.1" viewBox="-10 0 1010 1000">
   <path fill="currentColor"
d="M866 161l67 33c-41 74 -92 164 -133 220l-53 -28c40 -60 91 -157 119 -225zM510 391l-59 32c-19 -61 -64 -154 -107 -223l56 -29c45 69 91 160 110 220zM339 536l19 66c-101 54 -210 112 -294 155l-28 -72c35 -16 78 -36 125 -59v-279h-114v-68h114v-213h69v213h106v68
h-106v245c36 -18 73 -37 109 -56zM514 484v-426h68v427c0 203 -31 367 -257 473c-9 -16 -31 -43 -46 -56c166 -75 217 -182 230 -314c-56 47 -113 93 -164 131l-34 -65c51 -32 127 -87 203 -142v-28zM775 882h92c20 0 25 -26 27 -117c18 13 43 25 63 30
c-7 112 -24 152 -87 152h-104c-70 0 -90 -22 -90 -110v-780h69v433l15 -15c70 57 154 134 195 183l-49 53c-35 -43 -101 -109 -161 -163v289c0 39 4 45 30 45z" />
</svg>
