<?xml version="1.0" standalone="no"?>
<!DOCTYPE svg PUBLIC "-//W3C//DTD SVG 1.1//EN" "http://www.w3.org/Graphics/SVG/1.1/DTD/svg11.dtd" >
<svg xmlns="http://www.w3.org/2000/svg" xmlns:xlink="http://www.w3.org/1999/xlink" version="1.1" viewBox="-10 0 1010 1000">
   <path fill="currentColor"
d="M237 634l108 -46l15 66c-102 48 -214 98 -299 136l-29 -73c37 -14 84 -33 135 -54v-310h-119v-71h119v-227h70v227h105v71h-105v281zM791 617h-303v222h303v-222zM415 960v-410h452v407h-76v-51h-303v54h-73zM617 45l69 18c-4 10 -9 20 -14 30c71 115 192 235 301 296
c-19 14 -43 39 -56 58c-97 -63 -204 -176 -279 -291c-45 79 -104 151 -173 213h345v68h-351v-63c-34 30 -71 58 -111 83c-10 -14 -34 -37 -50 -48c147 -88 263 -224 319 -364z" />
</svg>
