<?xml version="1.0" standalone="no"?>
<!DOCTYPE svg PUBLIC "-//W3C//DTD SVG 1.1//EN" "http://www.w3.org/Graphics/SVG/1.1/DTD/svg11.dtd" >
<svg xmlns="http://www.w3.org/2000/svg" xmlns:xlink="http://www.w3.org/1999/xlink" version="1.1" viewBox="-10 0 1010 1000">
   <path fill="currentColor"
d="M430 157v301h135v-301h-135zM936 458v67h-872v-67h296v-301h-252v-65h794v65h-265v301h299zM149 226l63 -22c40 56 74 130 87 181l-66 25c-12 -51 -45 -128 -84 -184zM743 414l-60 -22c33 -51 76 -133 97 -190l76 24c-35 64 -79 140 -113 188zM535 857h418v69h-904v-69
h411v-136h-326v-68h326v-103h75v103h329v68h-329v136z" />
</svg>
