<?xml version="1.0" standalone="no"?>
<!DOCTYPE svg PUBLIC "-//W3C//DTD SVG 1.1//EN" "http://www.w3.org/Graphics/SVG/1.1/DTD/svg11.dtd" >
<svg xmlns="http://www.w3.org/2000/svg" xmlns:xlink="http://www.w3.org/1999/xlink" version="1.1" viewBox="-10 0 1010 1000">
   <path fill="currentColor"
d="M816 42l76 23c-29 64 -65 137 -93 184l-61 -22c27 -49 61 -129 78 -185zM573 531h172v-211h-172v196v15zM957 531v71h-139v355h-73v-355h-175c-10 133 -54 264 -211 361c-11 -17 -34 -42 -51 -55c138 -85 179 -194 190 -306h-129l14 59c-110 46 -229 95 -318 132l-28 -75
c38 -13 86 -30 138 -50v-310h-119v-71h119v-234h70v234h112v71h-112v283c36 -14 73 -28 109 -43v-67h148v-16v-195h-119v-70h137c-12 -48 -46 -125 -80 -182l64 -23c35 58 71 132 84 180l-60 25h414v70h-124v211h139z" />
</svg>
