<?xml version="1.0" standalone="no"?>
<!DOCTYPE svg PUBLIC "-//W3C//DTD SVG 1.1//EN" "http://www.w3.org/Graphics/SVG/1.1/DTD/svg11.dtd" >
<svg xmlns="http://www.w3.org/2000/svg" xmlns:xlink="http://www.w3.org/1999/xlink" version="1.1" viewBox="-10 0 1010 1000">
   <path fill="currentColor"
d="M736 403h-232c26 40 63 74 110 101c49 -26 92 -60 122 -101zM386 403v-56h391l13 -3l43 21c-33 72 -87 128 -154 171c69 28 150 47 243 54c-15 15 -34 43 -43 61c-103 -13 -193 -39 -268 -78c-75 35 -162 59 -252 72c-6 -16 -21 -43 -32 -58c78 -9 155 -26 223 -53
c-48 -36 -86 -79 -113 -130l2 -1h-53zM527 140v17c0 67 -26 142 -134 190c-8 -12 -34 -34 -48 -43c99 -42 118 -98 118 -149v-77h289v143c0 23 1 31 17 31h70c14 0 38 -1 51 -4c1 18 3 38 6 54c-13 5 -35 5 -55 5h-84c-62 0 -75 -26 -75 -88v-79h-155zM283 52l63 26
c-60 63 -159 127 -242 164c-10 -13 -30 -36 -42 -49c78 -33 173 -89 221 -141zM194 649v-253c-35 29 -72 55 -108 76c-9 -16 -26 -42 -38 -55c94 -52 195 -139 243 -219l67 24c-25 38 -58 77 -95 113v314h-69zM537 865h412v61h-896v-61h410v-93h-305v-59h305v-71h74v71h306
v59h-306v93z" />
</svg>
