<?xml version="1.0" standalone="no"?>
<!DOCTYPE svg PUBLIC "-//W3C//DTD SVG 1.1//EN" "http://www.w3.org/Graphics/SVG/1.1/DTD/svg11.dtd" >
<svg xmlns="http://www.w3.org/2000/svg" xmlns:xlink="http://www.w3.org/1999/xlink" version="1.1" viewBox="-10 0 1010 1000">
   <path fill="currentColor"
d="M345 624l15 63c-100 46 -208 93 -290 128l-32 -73c37 -12 83 -30 134 -50v-324h-115v-70h115v-246h69v246h107v70h-107v298zM878 516l11 -3l47 13c-25 67 -53 145 -79 193l-57 -15c16 -33 35 -80 52 -127h-123v303c0 36 -7 54 -33 66c-25 10 -65 11 -126 11
c-3 -19 -13 -45 -22 -63c45 1 87 1 99 0c13 -1 16 -4 16 -15v-302h-183v-61h235c-46 -32 -106 -68 -160 -92l39 -44c30 13 62 28 93 45c32 -26 66 -62 93 -96h-267v-60h315l14 -4l45 32c-38 55 -95 116 -146 160c23 15 43 31 59 44l-12 15h90zM723 143h225v64h-504v261
c0 150 -17 355 -127 490c-11 -13 -37 -34 -53 -42c104 -128 114 -308 114 -448v-325h271c-10 -30 -23 -65 -39 -92l65 -17c20 33 38 77 48 109z" />
</svg>
