<?xml version="1.0" standalone="no"?>
<!DOCTYPE svg PUBLIC "-//W3C//DTD SVG 1.1//EN" "http://www.w3.org/Graphics/SVG/1.1/DTD/svg11.dtd" >
<svg xmlns="http://www.w3.org/2000/svg" xmlns:xlink="http://www.w3.org/1999/xlink" version="1.1" viewBox="-10 0 1010 1000">
   <path fill="currentColor"
d="M791 278v-131h-290v131h290zM862 87v251h-429v-251h429zM241 668l113 -44l14 64c-103 46 -214 94 -299 131l-32 -73c37 -13 83 -30 134 -51v-327h-116v-70h116v-246h70v246h111v70h-111v300zM477 692h342v-84h-342v84zM819 466h-342v84h342v-84zM890 403v472
c0 37 -8 55 -34 66s-67 11 -133 11c-3 -18 -12 -44 -22 -62c45 2 88 2 100 1c13 0 18 -4 18 -16v-125h-342v206h-71v-553h484z" />
</svg>
