<?xml version="1.0" standalone="no"?>
<!DOCTYPE svg PUBLIC "-//W3C//DTD SVG 1.1//EN" "http://www.w3.org/Graphics/SVG/1.1/DTD/svg11.dtd" >
<svg xmlns="http://www.w3.org/2000/svg" xmlns:xlink="http://www.w3.org/1999/xlink" version="1.1" viewBox="-10 0 1010 1000">
   <path fill="currentColor"
d="M231 676l94 -37l15 68c-96 41 -198 84 -276 117l-25 -75c34 -12 75 -27 120 -44v-349h-106v-70h106v-234h72v234h104v70h-104v320zM523 322l66 19c-18 46 -41 91 -66 134v480h-69v-381c-27 35 -56 66 -85 92c-10 -13 -34 -42 -49 -54c84 -69 159 -176 203 -290zM768 879
h89c26 0 30 -24 33 -145c16 13 44 25 64 30c-7 141 -25 182 -90 182h-105c-72 0 -91 -24 -91 -106v-163c-20 14 -41 27 -62 38c-11 -14 -30 -38 -45 -50c36 -20 72 -43 107 -68v-272h70v219c60 -50 113 -104 150 -156l57 41c-53 72 -127 141 -207 200v212c0 32 5 38 30 38z
M801 145h155v66h-155v101h-71v-101h-162v101h-72v-101h-151v-66h151v-101h72v101h162v-101h71v101z" />
</svg>
