<?xml version="1.0" standalone="no"?>
<!DOCTYPE svg PUBLIC "-//W3C//DTD SVG 1.1//EN" "http://www.w3.org/Graphics/SVG/1.1/DTD/svg11.dtd" >
<svg xmlns="http://www.w3.org/2000/svg" xmlns:xlink="http://www.w3.org/1999/xlink" version="1.1" viewBox="-10 0 1010 1000">
   <path fill="currentColor"
d="M785 259v-120h-273v120h273zM859 82v234h-420v-234h420zM481 455v294h-70v-355h485v353h-73v-292h-342zM364 640l14 65c-111 45 -228 90 -319 125l-19 -73c37 -12 83 -29 134 -47v-354h-121v-71h121v-229h73v229h113v71h-113v327zM611 627v-113h73v114
c0 110 -39 243 -317 334c-9 -19 -29 -47 -44 -62c263 -75 288 -189 288 -273zM685 805l43 -48c73 45 177 108 228 146l-45 55c-51 -40 -152 -106 -226 -153z" />
</svg>
