<?xml version="1.0" standalone="no"?>
<!DOCTYPE svg PUBLIC "-//W3C//DTD SVG 1.1//EN" "http://www.w3.org/Graphics/SVG/1.1/DTD/svg11.dtd" >
<svg xmlns="http://www.w3.org/2000/svg" xmlns:xlink="http://www.w3.org/1999/xlink" version="1.1" viewBox="-10 0 1010 1000">
   <path fill="currentColor"
d="M236 356v324c32 -11 65 -24 98 -37l15 69c-98 40 -202 81 -283 112l-24 -75c35 -11 78 -27 125 -43v-350h-111v-70h111v-231h69v231h104v70h-104zM498 139v151h305v-151h-305zM925 438v432c0 38 -8 57 -35 69c-27 11 -70 12 -139 12c-3 -19 -15 -47 -25 -65
c50 1 97 1 109 0c14 0 19 -3 19 -16v-362h-185c-2 11 -5 22 -8 31c59 65 128 149 162 202l-52 40c-28 -45 -80 -114 -131 -175c-28 78 -70 143 -130 193c-8 -13 -34 -40 -48 -53c71 -55 113 -135 137 -238h-153v447h-73v-517h239c4 -27 8 -57 10 -87h-194v-273h448v273h-184
c-3 30 -7 60 -11 87h244z" />
</svg>
