<?xml version="1.0" standalone="no"?>
<!DOCTYPE svg PUBLIC "-//W3C//DTD SVG 1.1//EN" "http://www.w3.org/Graphics/SVG/1.1/DTD/svg11.dtd" >
<svg xmlns="http://www.w3.org/2000/svg" xmlns:xlink="http://www.w3.org/1999/xlink" version="1.1" viewBox="-10 0 1010 1000">
   <path fill="currentColor"
d="M337 609l15 68c-100 41 -207 84 -290 117l-25 -74c36 -11 80 -27 129 -45v-319h-110v-70h110v-232h68v232h95v70h-95v293c34 -13 69 -27 103 -40zM584 862h105v-245h149v-241h-149v-217h-105v217h-141v240h141v246zM758 862h199v69h-660v-69h222v-180h-142v-371h142v-152
h-183v-69h612v69h-190v152h149v372h-149v179z" />
</svg>
