<?xml version="1.0" standalone="no"?>
<!DOCTYPE svg PUBLIC "-//W3C//DTD SVG 1.1//EN" "http://www.w3.org/Graphics/SVG/1.1/DTD/svg11.dtd" >
<svg xmlns="http://www.w3.org/2000/svg" xmlns:xlink="http://www.w3.org/1999/xlink" version="1.1" viewBox="-10 0 1010 1000">
   <path fill="currentColor"
d="M815 74l66 19c-25 48 -62 106 -92 143c-15 -10 -45 -25 -62 -32c33 -36 65 -85 88 -130zM543 196l-57 37c-20 -33 -59 -90 -90 -130l54 -31c32 38 73 92 93 124zM235 677l94 -37l11 68c-96 41 -199 84 -278 116l-22 -75c34 -12 78 -28 125 -46v-347h-110v-70h110v-231h70
v231h90v70h-90v321zM944 473h-123c35 62 87 119 143 149c-16 13 -38 37 -49 54c-67 -43 -127 -121 -165 -203h-177c-17 32 -38 63 -60 90h285v159c0 32 -5 49 -31 59c-23 11 -60 10 -118 10c-3 -18 -13 -40 -21 -57c42 1 77 1 87 0c12 0 14 -3 14 -12v-98h-184v223
c0 29 9 36 62 36h183c43 0 51 -15 56 -110c16 11 45 22 66 26c-10 118 -32 148 -116 148h-194c-99 0 -128 -20 -128 -100v-240c-26 28 -57 53 -90 75c-10 -11 -37 -39 -53 -49c68 -42 121 -95 162 -160h-132v-65h167c16 -31 29 -65 39 -101h-166v-62h184
c15 -62 25 -129 33 -202l72 6c-9 71 -20 136 -34 196h247v62h-263c-11 35 -23 70 -36 101h340v65z" />
</svg>
