<?xml version="1.0" standalone="no"?>
<!DOCTYPE svg PUBLIC "-//W3C//DTD SVG 1.1//EN" "http://www.w3.org/Graphics/SVG/1.1/DTD/svg11.dtd" >
<svg xmlns="http://www.w3.org/2000/svg" xmlns:xlink="http://www.w3.org/1999/xlink" version="1.1" viewBox="-10 0 1010 1000">
   <path fill="currentColor"
d="M936 164v68h-551v-68h246c-13 -32 -29 -73 -44 -104l67 -20c20 39 44 91 56 124h226zM770 260l67 12c-10 39 -22 77 -36 112c49 40 105 90 134 123l-43 52c-25 -31 -73 -78 -118 -116c-23 45 -50 85 -80 117c-10 -13 -36 -38 -51 -50c61 -61 104 -152 127 -250zM230 681
l101 -40l12 68c-96 41 -200 83 -280 116l-23 -76c34 -10 77 -26 124 -44v-349h-109v-70h109v-231h66v231h94v70h-94v325zM639 478l-40 51c-20 -23 -56 -55 -90 -86c-28 50 -60 95 -95 131c-11 -13 -35 -39 -51 -50c68 -63 120 -162 147 -268l68 15c-11 40 -26 79 -42 116
c38 31 80 67 103 91zM955 649v69h-267v239h-72v-239h-249v-69h249v-96h72v96h267z" />
</svg>
