<?xml version="1.0" standalone="no"?>
<!DOCTYPE svg PUBLIC "-//W3C//DTD SVG 1.1//EN" "http://www.w3.org/Graphics/SVG/1.1/DTD/svg11.dtd" >
<svg xmlns="http://www.w3.org/2000/svg" xmlns:xlink="http://www.w3.org/1999/xlink" version="1.1" viewBox="-10 0 1010 1000">
   <path fill="currentColor"
d="M859 79l68 23c-46 69 -105 149 -154 202l-53 -24c47 -52 105 -140 139 -201zM236 680l95 -35l14 67c-97 40 -200 82 -281 113l-24 -76c35 -10 78 -26 126 -44v-349h-110v-70h110v-231h70v231h97v70h-97v324zM539 268l-57 35c-25 -55 -82 -139 -134 -198l54 -30
c54 60 111 139 137 193zM702 563h-134v152h134v-152zM764 774h-196v52h-61v-322h257v270zM916 352v516c0 42 -10 63 -38 74c-31 12 -79 12 -158 12c-3 -19 -13 -48 -23 -67c59 1 111 1 126 0c17 0 22 -5 22 -19v-449h-417v538h-71v-605h240v-309h73v309h246z" />
</svg>
