<?xml version="1.0" standalone="no"?>
<!DOCTYPE svg PUBLIC "-//W3C//DTD SVG 1.1//EN" "http://www.w3.org/Graphics/SVG/1.1/DTD/svg11.dtd" >
<svg xmlns="http://www.w3.org/2000/svg" xmlns:xlink="http://www.w3.org/1999/xlink" version="1.1" viewBox="-10 0 1010 1000">
   <path fill="currentColor"
d="M351 624l14 64c-101 47 -212 94 -296 130l-32 -72c37 -13 83 -30 134 -50v-328h-116v-70h116v-246h70v246h108v70h-108v301zM450 498v90h155v-90h-155zM450 354v89h155v-89h-155zM840 354h-162v89h162v-89zM840 588v-90h-162v90h162zM908 646h-183c57 87 149 171 234 216
c-17 12 -39 39 -51 57c-83 -51 -170 -142 -230 -238v274h-73v-286c-75 111 -191 210 -302 264c-12 -18 -35 -44 -50 -58c107 -45 220 -133 289 -229h-158v-349h221v-82h-267v-67h267v-105h73v105h279v67h-279v82h230v349z" />
</svg>
