<?xml version="1.0" standalone="no"?>
<!DOCTYPE svg PUBLIC "-//W3C//DTD SVG 1.1//EN" "http://www.w3.org/Graphics/SVG/1.1/DTD/svg11.dtd" >
<svg xmlns="http://www.w3.org/2000/svg" xmlns:xlink="http://www.w3.org/1999/xlink" version="1.1" viewBox="-10 0 1010 1000">
   <path fill="currentColor"
d="M346 591l16 66c-101 48 -209 96 -293 133l-29 -73c35 -14 80 -32 129 -51v-314h-113v-70h113v-227h70v227h103v70h-103v284c35 -14 71 -29 107 -45zM668 361v90h140v-90h-140zM668 214v86h140v-86h-140zM862 544l53 46c-46 41 -101 87 -149 122c56 52 125 95 194 118
c-15 14 -37 41 -48 60c-93 -39 -181 -115 -244 -202v183c0 40 -9 58 -34 69c-24 12 -61 13 -124 13c-2 -18 -12 -46 -20 -64c41 1 79 0 90 0c13 0 18 -4 18 -18v-138c-85 55 -174 110 -244 152l-39 -58c71 -37 179 -101 283 -161v-154h-191v-61h191v-90h-228v-61h228v-86
h-188v-62h188v-108h70v108h210v148h74v61h-74v151h-210v77c16 29 36 56 58 83c47 -39 102 -89 136 -128zM381 581l50 -35c38 39 87 93 110 128l-50 39c-24 -36 -71 -91 -110 -132z" />
</svg>
