<?xml version="1.0" standalone="no"?>
<!DOCTYPE svg PUBLIC "-//W3C//DTD SVG 1.1//EN" "http://www.w3.org/Graphics/SVG/1.1/DTD/svg11.dtd" >
<svg xmlns="http://www.w3.org/2000/svg" xmlns:xlink="http://www.w3.org/1999/xlink" version="1.1" viewBox="-10 0 1010 1000">
   <path fill="currentColor"
d="M396 347h-150c-21 116 -66 211 -164 273c-10 -15 -29 -39 -45 -50c121 -73 147 -203 157 -362h-139v-63h211c-16 -28 -37 -61 -57 -85l57 -25c29 34 59 78 74 110h142v63h-220c-1 25 -3 51 -6 75h211s-1 20 -2 30c-10 163 -20 227 -42 250c-15 17 -31 23 -55 25
c-20 2 -58 1 -97 0c-1 -20 -8 -45 -19 -63c38 3 73 4 86 4c14 0 22 -1 29 -9c12 -14 21 -59 29 -173zM535 744v119h408v67h-884v-67h402v-119h-315v-66h315v-71h74v71h334v66h-334zM777 145h170v63h-263c-1 25 -4 51 -7 75h226s-1 20 -2 30c-11 170 -21 236 -43 260
c-16 17 -31 23 -55 25c-21 2 -59 2 -98 0c-1 -20 -8 -46 -18 -63c36 4 71 4 85 4s22 -2 29 -9c12 -15 22 -63 31 -183h-165c-21 108 -65 194 -157 251c-9 -16 -29 -38 -44 -50c115 -69 141 -191 150 -340h-107v-63h196c-16 -28 -38 -62 -58 -87l57 -25c28 34 58 79 73 112z
" />
</svg>
