<?xml version="1.0" standalone="no"?>
<!DOCTYPE svg PUBLIC "-//W3C//DTD SVG 1.1//EN" "http://www.w3.org/Graphics/SVG/1.1/DTD/svg11.dtd" >
<svg xmlns="http://www.w3.org/2000/svg" xmlns:xlink="http://www.w3.org/1999/xlink" version="1.1" viewBox="-10 0 1010 1000">
   <path fill="currentColor"
d="M816 348h-200c-23 103 -72 184 -174 236c-8 -15 -28 -40 -43 -51c128 -62 158 -174 169 -323h-126v-63h234c-13 -28 -33 -61 -53 -86l62 -21c26 32 55 76 67 107h185v63h-300c-3 26 -5 51 -9 75h261s-1 20 -2 29c-12 148 -23 209 -46 232c-17 17 -34 23 -61 24
c-23 2 -67 2 -111 -1c-2 -19 -10 -45 -20 -63c45 5 87 5 103 5s25 -1 33 -8c13 -14 22 -55 31 -155zM224 588v-267c-39 81 -88 156 -137 202c-12 -17 -35 -39 -49 -52c62 -49 126 -144 166 -236h-135v-64h155v-125h68v125h126v64h-126v18c33 25 120 101 141 122l-42 58
c-18 -25 -63 -73 -99 -111v266h-68zM536 865h407v66h-885v-66h405v-115h-317v-66h317v-86h73v86h333v66h-333v115z" />
</svg>
