<?xml version="1.0" standalone="no"?>
<!DOCTYPE svg PUBLIC "-//W3C//DTD SVG 1.1//EN" "http://www.w3.org/Graphics/SVG/1.1/DTD/svg11.dtd" >
<svg xmlns="http://www.w3.org/2000/svg" xmlns:xlink="http://www.w3.org/1999/xlink" version="1.1" viewBox="-10 0 1010 1000">
   <path fill="currentColor"
d="M684 251v-93h-104v93h104zM854 468v-155h-105v155h105zM417 313v155h99v-155h-99zM687 313h-108v155h108v-155zM507 251v-93h-179v-66h617v66h-187v93h164v280h-571v-280h156zM325 642l12 67c-95 43 -198 88 -276 122l-22 -75c32 -12 69 -26 111 -43v-357h-110v-70h110
v-231h70v231h101v70h-101v329zM669 861h286v65h-656v-65h297v-143h-232v-64h232v-104h73v104h239v64h-239v143z" />
</svg>
