<?xml version="1.0" standalone="no"?>
<!DOCTYPE svg PUBLIC "-//W3C//DTD SVG 1.1//EN" "http://www.w3.org/Graphics/SVG/1.1/DTD/svg11.dtd" >
<svg xmlns="http://www.w3.org/2000/svg" xmlns:xlink="http://www.w3.org/1999/xlink" version="1.1" viewBox="-10 0 1010 1000">
   <path fill="currentColor"
d="M241 677l100 -38l14 68c-101 41 -208 85 -291 117l-24 -75c36 -12 81 -27 131 -46v-347h-115v-70h115v-231h70v231h107v70h-107v321zM519 303v137h117v-137h-117zM797 150h-278v93h178v197h100v-290zM937 440v434c0 38 -8 58 -35 70c-28 11 -73 12 -143 12
c-4 -20 -13 -47 -22 -66c52 2 97 1 111 1c14 -1 18 -5 18 -17v-369h-428v452h-69v-517h82v-356h416v356h70zM728 758v-131h-148v131h148zM789 572v241h-267v-241h267z" />
</svg>
