<?xml version="1.0" standalone="no"?>
<!DOCTYPE svg PUBLIC "-//W3C//DTD SVG 1.1//EN" "http://www.w3.org/Graphics/SVG/1.1/DTD/svg11.dtd" >
<svg xmlns="http://www.w3.org/2000/svg" xmlns:xlink="http://www.w3.org/1999/xlink" version="1.1" viewBox="-10 0 1010 1000">
   <path fill="currentColor"
d="M766 230h-172c21 57 52 109 90 153c36 -43 64 -94 82 -153zM273 572v-174c-52 70 -123 139 -189 180c-9 -16 -26 -38 -41 -52c69 -36 145 -106 195 -176h-180v-56h234c-41 -27 -93 -57 -139 -76l39 -37c23 9 50 21 74 34c34 -22 69 -52 98 -80h-262v-56h299v-1h17l14 -4
l45 35c-42 48 -101 100 -156 138c16 10 31 21 43 30l-17 17h95l11 -4l28 9c-8 -8 -18 -17 -26 -21c61 -56 109 -140 137 -229l66 15c-11 37 -26 72 -43 105h322v61h-98c-24 81 -60 146 -108 200c55 48 123 84 203 105c-16 14 -35 40 -45 60c-81 -26 -149 -66 -206 -119
c-60 51 -133 89 -219 119c-8 -14 -32 -41 -46 -54c89 -26 163 -62 221 -112c-36 -45 -67 -96 -90 -153c-14 18 -28 34 -42 48l-9 -9c-21 50 -47 103 -70 139l-58 -21c14 -22 29 -53 43 -83h-77v223c0 31 -5 47 -28 58c-21 9 -54 10 -104 10c-3 -17 -12 -41 -21 -57
c36 1 67 1 77 0s13 -3 13 -12zM535 864h411v63h-890v-63h405v-111h-305v-61h305v-93h74v93h307v61h-307v111z" />
</svg>
