<?xml version="1.0" standalone="no"?>
<!DOCTYPE svg PUBLIC "-//W3C//DTD SVG 1.1//EN" "http://www.w3.org/Graphics/SVG/1.1/DTD/svg11.dtd" >
<svg xmlns="http://www.w3.org/2000/svg" xmlns:xlink="http://www.w3.org/1999/xlink" version="1.1" viewBox="-10 0 1010 1000">
   <path fill="currentColor"
d="M338 547l18 66c-101 50 -208 102 -290 141l-29 -73c37 -15 83 -35 133 -57v-307h-114v-70h114v-199h68v199h102v70h-102v276c33 -15 67 -31 100 -46zM446 310v105h161v-105h-161zM446 147v104h161v-104h-161zM838 251v-104h-163v104h163zM838 415v-105h-163v105h163z
M910 479h-160c56 71 141 136 222 170c-16 14 -39 41 -51 59c-45 -23 -91 -56 -133 -94v343h-71v-376h38c-31 -32 -59 -67 -81 -102h-62c-23 36 -52 69 -85 99h22v90c0 102 -24 218 -211 292c-10 -15 -31 -41 -47 -54c169 -63 187 -159 187 -240v-46c-46 35 -97 65 -148 89
c-9 -13 -36 -43 -52 -56c96 -39 188 -100 248 -174h-149v-395h533v395z" />
</svg>
