<?xml version="1.0" standalone="no"?>
<!DOCTYPE svg PUBLIC "-//W3C//DTD SVG 1.1//EN" "http://www.w3.org/Graphics/SVG/1.1/DTD/svg11.dtd" >
<svg xmlns="http://www.w3.org/2000/svg" xmlns:xlink="http://www.w3.org/1999/xlink" version="1.1" viewBox="-10 0 1010 1000">
   <path fill="currentColor"
d="M852 295v-137h-99v137h99zM698 295v-137h-98v137h98zM545 295v-137h-94v137h94zM918 94v265h-530v-265h530zM355 594l15 64c-105 49 -216 100 -303 138l-28 -73c37 -14 82 -31 132 -52v-319h-116v-70h116v-227h70v227h105v70h-105v290c37 -16 75 -32 114 -48zM589 525v35
c0 17 -1 37 -3 56h289s-1 21 -2 32c-12 176 -23 248 -49 274c-16 19 -34 25 -61 27c-25 2 -71 2 -118 0c-1 -22 -10 -51 -21 -71c45 5 90 6 106 6s26 -1 34 -10c15 -15 25 -66 35 -192h-224c-22 93 -79 197 -208 277c-11 -16 -36 -40 -53 -51c179 -107 203 -254 203 -350
v-33h-163v-67h270c-9 -25 -23 -53 -37 -76l68 -16c18 28 37 65 47 92h247v67h-360z" />
</svg>
