<?xml version="1.0" standalone="no"?>
<!DOCTYPE svg PUBLIC "-//W3C//DTD SVG 1.1//EN" "http://www.w3.org/Graphics/SVG/1.1/DTD/svg11.dtd" >
<svg xmlns="http://www.w3.org/2000/svg" xmlns:xlink="http://www.w3.org/1999/xlink" version="1.1" viewBox="-10 0 1010 1000">
   <path fill="currentColor"
d="M443 218v99h-68v-160h247c-8 -31 -21 -71 -36 -101l64 -19c20 38 38 88 44 120h234v160h-71v-99h-414zM506 631v93h289v-93h-289zM506 486v92h289v-92h-289zM437 780v-350h429v350h-429zM457 301h384v59h-384v-59zM340 593l17 65c-100 47 -207 95 -290 132l-29 -74
c36 -14 83 -32 133 -53v-310h-116v-71h116v-227h70v227h102v71h-102v282zM351 861h602v66h-602v-66z" />
</svg>
