<?xml version="1.0" standalone="no"?>
<!DOCTYPE svg PUBLIC "-//W3C//DTD SVG 1.1//EN" "http://www.w3.org/Graphics/SVG/1.1/DTD/svg11.dtd" >
<svg xmlns="http://www.w3.org/2000/svg" xmlns:xlink="http://www.w3.org/1999/xlink" version="1.1" viewBox="-10 0 1010 1000">
   <path fill="currentColor"
d="M421 153v108h-70v-174h581v174h-74v-108h-437zM336 562l14 64c-98 46 -205 95 -286 132l-24 -73c34 -13 75 -29 120 -48v-286h-112v-69h112v-225h70v225h102v69h-102v256zM855 394l49 50c-29 23 -63 47 -97 71c28 118 81 236 154 289c-17 14 -41 42 -53 60
c-75 -62 -127 -184 -157 -314c-19 13 -39 25 -58 35c49 138 29 278 -27 326c-27 27 -53 35 -93 36c-17 0 -46 -1 -71 -2c-1 -20 -7 -49 -19 -69c29 3 58 4 76 4c22 0 38 -3 53 -20c29 -24 45 -96 33 -182c-89 81 -219 164 -323 211c-9 -18 -26 -41 -40 -55
c116 -44 267 -137 348 -221c-7 -25 -17 -49 -29 -74c-26 23 -58 45 -90 68c12 20 23 40 29 56l-54 31c-6 -16 -15 -34 -27 -55c-35 22 -71 41 -101 56c-10 -16 -27 -36 -42 -48c34 -14 74 -33 114 -55c-11 -17 -24 -34 -36 -50l51 -26c12 14 24 29 36 46
c35 -23 67 -47 93 -69c-14 -19 -29 -38 -45 -55c-51 29 -105 54 -154 75c-9 -13 -32 -39 -46 -50c92 -32 191 -81 265 -136h-190v-63h467v63h-186c-30 27 -65 54 -104 78c40 38 69 83 91 127c63 -39 137 -95 183 -138z" />
</svg>
