<?xml version="1.0" standalone="no"?>
<!DOCTYPE svg PUBLIC "-//W3C//DTD SVG 1.1//EN" "http://www.w3.org/Graphics/SVG/1.1/DTD/svg11.dtd" >
<svg xmlns="http://www.w3.org/2000/svg" xmlns:xlink="http://www.w3.org/1999/xlink" version="1.1" viewBox="-10 0 1010 1000">
   <path fill="currentColor"
d="M341 640l14 68c-102 41 -209 84 -295 117l-20 -76c36 -12 82 -27 131 -45v-348h-123v-70h123v-231h70v231h105v70h-105v322zM457 160v204c0 168 -14 414 -114 580c-12 -11 -42 -28 -59 -35c96 -161 105 -384 105 -545v-271h566v67h-498zM541 661l63 17
c-26 72 -68 152 -105 205c-14 -9 -41 -25 -57 -33c38 -50 76 -122 99 -189zM567 464v84h291v-84h-291zM567 327v82h291v-82h-291zM924 605h-182v279c0 35 -6 52 -31 63c-24 10 -61 11 -118 10c-3 -19 -11 -43 -19 -62c40 1 75 2 85 1c12 0 15 -3 15 -14v-277h-170v-336h146
c8 -33 18 -73 23 -101l78 17c-11 28 -22 58 -32 84h205v336zM801 679l60 -17c35 63 79 149 99 199l-63 22c-19 -51 -61 -138 -96 -204z" />
</svg>
