<?xml version="1.0" standalone="no"?>
<!DOCTYPE svg PUBLIC "-//W3C//DTD SVG 1.1//EN" "http://www.w3.org/Graphics/SVG/1.1/DTD/svg11.dtd" >
<svg xmlns="http://www.w3.org/2000/svg" xmlns:xlink="http://www.w3.org/1999/xlink" version="1.1" viewBox="-10 0 1010 1000">
   <path fill="currentColor"
d="M939 174h-498c-32 44 -71 87 -117 127c-12 -15 -36 -36 -53 -45c81 -62 139 -146 171 -213l72 12c-11 21 -21 42 -35 63h460v56zM290 147l-46 51c-28 -28 -88 -69 -136 -96l43 -46c48 25 108 63 139 91zM137 661l-52 -40c37 -54 90 -140 132 -216l46 38
c-38 70 -85 154 -126 218zM235 313l-43 53c-31 -29 -94 -67 -143 -93l42 -47c50 23 112 59 144 87zM536 779v89h416v60h-901v-60h412v-89h-318v-60h318v-87h73v87h328v60h-328zM657 524h116c5 -25 10 -56 14 -95h-225c44 18 95 47 122 68zM546 429h-110c-8 34 -16 66 -24 95
h218c-31 -22 -77 -48 -117 -66zM571 282h-103c-6 31 -13 62 -21 94h206c-29 -21 -75 -47 -114 -61zM676 376h117c3 -29 6 -59 8 -94h-216c42 17 93 44 118 63zM861 376h97v53h-102c-5 38 -9 69 -14 95h98v53h-110c-8 32 -17 52 -28 64c-18 19 -38 25 -64 26
c-23 2 -66 2 -110 -1c-1 -15 -7 -36 -16 -51c43 4 82 5 98 5c17 0 24 -1 33 -12c6 -6 11 -16 17 -31h-431c12 -41 26 -93 39 -148h-99v-53h111c11 -50 22 -102 30 -146h464s-1 21 -3 30c-3 44 -6 81 -10 116z" />
</svg>
