<?xml version="1.0" standalone="no"?>
<!DOCTYPE svg PUBLIC "-//W3C//DTD SVG 1.1//EN" "http://www.w3.org/Graphics/SVG/1.1/DTD/svg11.dtd" >
<svg xmlns="http://www.w3.org/2000/svg" xmlns:xlink="http://www.w3.org/1999/xlink" version="1.1" viewBox="-10 0 1010 1000">
   <path fill="currentColor"
d="M518 384v59h292v-59h-292zM518 284v57h292v-57h-292zM448 487v-224c-18 23 -37 44 -56 63c-12 -13 -41 -36 -58 -46c66 -59 124 -147 157 -239l70 18c-8 22 -17 43 -27 64h406v61h-439c-11 19 -23 38 -35 55h415v248h-433zM956 593h-404c-11 18 -23 36 -36 54h412
s-1 18 -2 28c-12 167 -26 232 -50 258c-15 15 -31 21 -56 23c-19 1 -57 2 -96 0c-1 -18 -7 -44 -16 -60c36 3 69 3 83 3c13 1 22 0 28 -7c14 -16 26 -66 37 -190h-80c-31 96 -92 202 -155 259c-13 -15 -34 -30 -52 -40c58 -46 114 -134 147 -219h-87
c-46 89 -130 187 -206 241c-11 -15 -32 -34 -47 -45c67 -40 142 -118 189 -196h-93c-38 43 -81 81 -123 111c-11 -12 -35 -35 -51 -45c68 -43 134 -105 178 -175h-132l14 61c-101 46 -208 93 -291 128l-30 -75c36 -12 81 -29 130 -48v-318h-113v-71h113v-221h68v221h98v71
h-98v291l98 -39h-2v-59h625v59z" />
</svg>
