<?xml version="1.0" standalone="no"?>
<!DOCTYPE svg PUBLIC "-//W3C//DTD SVG 1.1//EN" "http://www.w3.org/Graphics/SVG/1.1/DTD/svg11.dtd" >
<svg xmlns="http://www.w3.org/2000/svg" xmlns:xlink="http://www.w3.org/1999/xlink" version="1.1" viewBox="-10 0 1010 1000">
   <path fill="currentColor"
d="M744 470l17 -39c64 12 135 32 178 50l-21 43c-41 -20 -111 -41 -174 -54zM770 414l-18 -36c41 -10 108 -38 144 -53l26 42c-44 20 -108 38 -152 47zM333 595l16 62c-99 46 -204 92 -286 128l-27 -68c37 -14 83 -33 134 -53v-314h-117v-68h117v-227h68v227h100v68h-100
v285zM847 148h-396v100h396v-100zM451 306v86c0 163 -14 401 -105 561c-13 -13 -42 -34 -58 -40c86 -152 94 -367 94 -521v-302h535v216h-466zM732 541h-64v-220h64v220zM482 522l-15 -48c47 -11 108 -28 175 -48l5 43c-58 19 -113 37 -165 53zM484 364l17 -38
c47 9 110 26 143 41l-17 44c-33 -16 -95 -36 -143 -47zM946 768v59h-212v130h-66v-130h-223v-59h223v-85h-121c-11 24 -25 47 -38 65c-12 -8 -39 -20 -55 -26c36 -45 62 -107 79 -166l59 11c-6 20 -12 39 -20 59h96v-70h66v70h181v57h-181v85h212z" />
</svg>
