<?xml version="1.0" standalone="no"?>
<!DOCTYPE svg PUBLIC "-//W3C//DTD SVG 1.1//EN" "http://www.w3.org/Graphics/SVG/1.1/DTD/svg11.dtd" >
<svg xmlns="http://www.w3.org/2000/svg" xmlns:xlink="http://www.w3.org/1999/xlink" version="1.1" viewBox="-10 0 1010 1000">
   <path fill="currentColor"
d="M938 163l-52 35c-21 -33 -69 -82 -111 -118l50 -31c42 33 91 80 113 114zM453 616l49 10c-14 60 -36 124 -63 166c-9 -7 -29 -20 -41 -26c27 -41 44 -95 55 -150zM572 503h129c-7 -73 -12 -151 -15 -233h-280v203v30h110v-208h56v80h107v55h-107v73zM854 362l65 11
c-29 132 -68 249 -122 347c23 108 51 172 84 172c17 0 27 -50 31 -162c14 15 35 29 51 35c-10 145 -30 192 -90 192c-54 0 -94 -60 -123 -160c-39 57 -86 108 -138 152c-9 -13 -35 -36 -50 -47c67 -50 123 -114 167 -191c-11 -58 -20 -126 -27 -199v48h-119v255
c0 29 -5 42 -24 51s-49 10 -92 10c-1 -16 -10 -36 -17 -51c31 1 58 1 67 1c8 -1 11 -4 11 -12v-254h-124c-6 130 -30 287 -103 397c-10 -12 -37 -34 -51 -42c47 -73 70 -162 81 -250c-88 43 -184 87 -258 120l-33 -72c33 -12 73 -29 118 -46v-322h-103v-71h103v-220h68v220
h95v71h-95v293l91 -38l14 64c8 -67 10 -133 10 -191v-270h342c-1 -52 -2 -106 -3 -160h67c0 55 0 108 1 160h196v67h-194c5 130 15 248 28 345c33 -77 57 -161 76 -253zM706 737l-47 26c-10 -35 -41 -90 -70 -130l44 -22c29 39 61 92 73 126z" />
</svg>
