<?xml version="1.0" standalone="no"?>
<!DOCTYPE svg PUBLIC "-//W3C//DTD SVG 1.1//EN" "http://www.w3.org/Graphics/SVG/1.1/DTD/svg11.dtd" >
<svg xmlns="http://www.w3.org/2000/svg" xmlns:xlink="http://www.w3.org/1999/xlink" version="1.1" viewBox="-10 0 1010 1000">
   <path fill="currentColor"
d="M234 680l113 -42l13 64c-104 42 -213 86 -297 119l-23 -72c36 -12 81 -28 130 -45v-348h-115v-70h115v-231h64v231h96v70h-96v324zM439 488v94h174v-94h-174zM868 582v-94h-184v94h184zM372 582v-154h564v154h-58v234c0 31 -4 48 -26 58c-22 11 -53 12 -101 12
c-2 -18 -11 -42 -19 -60c31 1 57 1 66 1c8 0 11 -3 11 -12v-169h-125v311h-71v-311h-117v247h-69v-311h-55zM679 311v-88h-69v88h69zM957 223h-104v82c0 16 1 27 3 31c3 3 7 4 13 4h17c6 0 12 0 15 -3c4 -1 6 -6 9 -13c2 -9 3 -28 4 -51c11 8 27 16 42 19c-1 28 -4 56 -9 68
c-5 10 -13 17 -23 22c-9 4 -23 6 -36 6h-34c-17 0 -35 -4 -45 -15c-12 -10 -15 -24 -15 -77v-73h-56v143h-185v-143h-58c-5 73 -27 144 -103 199c-10 -13 -31 -32 -46 -41c64 -44 84 -100 90 -158h-89v-60h91v-116h59v116h56v-119h57v119h69v-119h59v119h56v-118h59v118h104
v60z" />
</svg>
