<?xml version="1.0" standalone="no"?>
<!DOCTYPE svg PUBLIC "-//W3C//DTD SVG 1.1//EN" "http://www.w3.org/Graphics/SVG/1.1/DTD/svg11.dtd" >
<svg xmlns="http://www.w3.org/2000/svg" xmlns:xlink="http://www.w3.org/1999/xlink" version="1.1" viewBox="-10 0 1010 1000">
   <path fill="currentColor"
d="M212 668l82 -34l14 60c-83 38 -172 77 -244 107l-23 -66c30 -11 66 -25 105 -41v-341h-93v-66h93v-227h66v227h87v66h-87v315zM425 480v78h121v-78h-121zM546 229h-121v73h121v-73zM425 354v74h121v-74h-121zM786 265h144s0 24 -1 33c-5 422 -8 554 -31 592
c-14 21 -29 29 -52 32c-20 3 -49 2 -79 1c-1 -19 -7 -45 -16 -63c30 2 55 2 68 2c12 1 18 -2 25 -15c14 -25 20 -149 24 -518h-83c-7 276 -30 487 -129 626c-10 -14 -35 -36 -51 -44c7 -9 14 -19 20 -29h-288v-264h-49v-60h79v-329h-61v-60h61v-102h58v102h121v-102h58v102
h66v60h-66v329h78v60h-287v202h241v42c66 -125 83 -306 88 -533h-72v-64h73c1 -70 1 -144 1 -221h61c0 77 0 150 -1 221zM641 771l-49 25c-11 -36 -40 -96 -67 -140l47 -23c28 44 57 101 69 138zM449 804l-46 -26c18 -37 44 -97 57 -139l51 27c-20 50 -43 101 -62 138z" />
</svg>
