<?xml version="1.0" standalone="no"?>
<!DOCTYPE svg PUBLIC "-//W3C//DTD SVG 1.1//EN" "http://www.w3.org/Graphics/SVG/1.1/DTD/svg11.dtd" >
<svg xmlns="http://www.w3.org/2000/svg" xmlns:xlink="http://www.w3.org/1999/xlink" version="1.1" viewBox="-10 0 1010 1000">
   <path fill="currentColor"
d="M52 497h187v-72h-158v-54h84c-7 -23 -19 -48 -32 -69l53 -17c17 27 32 60 40 86h100c14 -27 30 -62 39 -87h-320v-54h194v-64h-150v-53h150v-70h68v70h150v53h-150v64h189v54h-124l51 16c-13 25 -26 49 -38 71h84v54h-162v72h187v54h-187v99h-68v-99h-187v-54zM534 762
v105h411v64h-886v-64h402v-105h-313v-63h313v-74h19c-9 -12 -23 -25 -33 -33c75 -52 118 -114 144 -178c-34 -21 -71 -43 -104 -60l38 -45c28 13 56 29 84 45c10 -41 14 -83 15 -121h-117v-63h117v-123h65v123h168c-2 265 -4 408 43 408c14 0 18 -53 20 -123
c13 15 32 32 45 42c-6 108 -19 146 -70 146c-101 0 -106 -144 -106 -410h-100c-1 50 -6 105 -21 159c43 27 80 55 104 81l-42 51c-19 -22 -49 -46 -83 -71c-27 62 -68 122 -134 172h21v74h314v63h-314z" />
</svg>
