<?xml version="1.0" standalone="no"?>
<!DOCTYPE svg PUBLIC "-//W3C//DTD SVG 1.1//EN" "http://www.w3.org/Graphics/SVG/1.1/DTD/svg11.dtd" >
<svg xmlns="http://www.w3.org/2000/svg" xmlns:xlink="http://www.w3.org/1999/xlink" version="1.1" viewBox="-10 0 1010 1000">
   <path fill="currentColor"
d="M222 683l95 -36l13 68c-92 38 -190 78 -267 109l-24 -75c33 -11 73 -25 117 -41v-352h-101v-70h101v-231h66v231h92v70h-92v327zM855 672l44 35c-104 109 -305 209 -484 250c-6 -18 -19 -43 -29 -59c176 -32 376 -126 469 -226zM645 508l42 27c-58 65 -173 131 -271 162
c-5 -16 -17 -40 -28 -54c94 -22 205 -79 257 -135zM745 590l43 32c-81 82 -236 162 -367 199c-7 -16 -20 -41 -31 -55c129 -28 283 -101 355 -176zM938 416l-45 20c-5 -15 -12 -34 -21 -54c-149 19 -177 25 -191 31c72 54 184 98 284 118c-10 16 -19 45 -23 62
c-108 -30 -229 -86 -307 -151c-72 63 -171 113 -297 151c-5 -17 -19 -43 -30 -57c135 -35 238 -88 297 -146l-39 21c-2 -7 -4 -16 -7 -24c-166 28 -190 34 -203 42c-3 -12 -11 -43 -16 -58c10 -2 20 -10 30 -23c12 -14 48 -61 69 -110c-4 1 -6 2 -9 3
c-4 -14 -13 -48 -19 -66c13 -3 28 -11 44 -23c18 -13 77 -62 117 -114l64 22c-41 43 -85 83 -127 114l254 -13c-19 -22 -37 -45 -55 -63l46 -31c44 47 100 112 127 154l-48 36c-8 -14 -20 -31 -33 -47c-251 15 -323 20 -354 26l45 21c-21 38 -47 76 -73 106l124 -19
c-7 -19 -17 -37 -26 -54l43 -20c20 36 42 84 51 115c4 -4 8 -7 11 -11l52 15c-3 -11 -8 -24 -11 -33c9 -2 16 -10 25 -23c7 -12 33 -59 47 -106l51 23c-15 36 -36 72 -55 101l122 -12c-9 -18 -18 -34 -25 -49l42 -16c26 44 56 105 69 142z" />
</svg>
