<?xml version="1.0" standalone="no"?>
<!DOCTYPE svg PUBLIC "-//W3C//DTD SVG 1.1//EN" "http://www.w3.org/Graphics/SVG/1.1/DTD/svg11.dtd" >
<svg xmlns="http://www.w3.org/2000/svg" xmlns:xlink="http://www.w3.org/1999/xlink" version="1.1" viewBox="-10 0 1010 1000">
   <path fill="currentColor"
d="M715 534v-135c-42 91 -108 155 -213 202c-6 -13 -24 -39 -37 -51c107 -42 171 -108 207 -205h-170c14 -49 30 -123 41 -179l58 5c-7 37 -16 78 -25 114h112c10 -41 15 -87 18 -138h-190v-58h416v58h-162c-3 51 -9 97 -18 138h193v60h-209c-3 9 -6 17 -9 25h49v163
c0 20 3 23 26 23h72c21 0 25 -8 27 -83c13 11 38 20 56 25c-7 95 -24 117 -74 117h-88c-65 0 -80 -18 -80 -81zM397 210v-59h-241v59h241zM397 313v-61h-241v61h241zM463 108v248h-370v-248h122c13 -23 28 -49 36 -68l74 13c-11 20 -24 38 -36 55h174zM177 567l275 -36
c-3 15 -4 39 -4 52c-288 43 -323 50 -345 60c-3 -16 -15 -44 -24 -58c15 -6 33 -16 33 -51v-164h65v57h279v52h-279v88zM540 748v113h405v64h-887v-64h409v-113h-318v-63h318v-76h73v76h320v63h-320z" />
</svg>
