<?xml version="1.0" standalone="no"?>
<!DOCTYPE svg PUBLIC "-//W3C//DTD SVG 1.1//EN" "http://www.w3.org/Graphics/SVG/1.1/DTD/svg11.dtd" >
<svg xmlns="http://www.w3.org/2000/svg" xmlns:xlink="http://www.w3.org/1999/xlink" version="1.1" viewBox="-10 0 1010 1000">
   <path fill="currentColor"
d="M335 593l14 60c-98 48 -203 95 -285 131l-26 -68c35 -13 79 -30 127 -51v-316h-111v-67h111v-227h70v227h94v67h-94v287c32 -14 66 -29 100 -43zM378 921l-53 -33c35 -42 58 -117 70 -179l55 20c-13 65 -34 143 -72 192zM508 725l52 -12c13 52 20 120 19 163l-56 12
c2 -43 -4 -110 -15 -163zM625 722l49 -16c21 41 39 96 46 131l-51 19c-6 -37 -24 -93 -44 -134zM462 619h488s0 19 -1 28c-9 187 -18 256 -39 281c-16 17 -33 23 -58 25c-24 2 -68 2 -112 -1c-2 -17 -8 -41 -18 -57c45 4 86 4 100 4c16 1 24 -1 32 -9c13 -16 21 -72 28 -215
h-502c22 -65 47 -168 64 -247l61 8c-4 21 -9 44 -14 67h429v54h-442c-6 21 -11 43 -16 62zM745 719l43 -20c28 33 53 80 64 111l-46 23c-10 -31 -35 -79 -61 -114zM695 362h255v57h-600v-57h105v-156h62v156h112v-214h-256v-57h561v57h-239v83h207v56h-207v75z" />
</svg>
