<?xml version="1.0" standalone="no"?>
<!DOCTYPE svg PUBLIC "-//W3C//DTD SVG 1.1//EN" "http://www.w3.org/Graphics/SVG/1.1/DTD/svg11.dtd" >
<svg xmlns="http://www.w3.org/2000/svg" xmlns:xlink="http://www.w3.org/1999/xlink" version="1.1" viewBox="-10 0 1010 1000">
   <path fill="currentColor"
d="M161 144v502h-66v-563h217l10 -3l46 24c-26 64 -58 140 -87 203c64 60 82 113 82 162c1 44 -12 77 -36 93c-14 9 -29 14 -46 16s-39 2 -60 1c-1 -17 -7 -42 -18 -58c21 2 38 2 52 1c11 0 20 -3 26 -7c13 -9 19 -28 19 -52c0 -40 -20 -90 -83 -148c24 -55 48 -119 66 -171
h-122zM536 762v99h409v63h-888v-63h405v-99h-302v-61h302v-78h74v78h315v61h-315zM857 249l45 45c-28 19 -59 39 -91 57c27 80 82 153 150 187c-14 12 -34 35 -44 52c-71 -42 -127 -123 -157 -211c-14 7 -27 14 -39 20c31 91 18 183 -22 217c-24 21 -45 28 -78 29
c-16 0 -38 -1 -60 -2c-1 -16 -5 -42 -16 -57c25 3 48 3 63 3c19 0 33 -1 46 -16c21 -18 31 -69 20 -128c-69 63 -173 119 -263 149c-8 -14 -24 -35 -37 -45c104 -29 222 -90 284 -156c-5 -14 -12 -28 -20 -41c-57 42 -142 83 -209 104c-8 -12 -26 -32 -38 -43
c76 -18 169 -58 219 -99c-10 -13 -22 -25 -36 -36c-55 30 -117 53 -176 70c-8 -13 -23 -33 -34 -44c80 -21 171 -55 231 -96h-218v-57h141c-9 -25 -31 -62 -51 -90l58 -19c22 28 45 66 56 90l-50 19h166c25 -32 53 -75 68 -106l70 18c-21 30 -43 62 -64 88h166v57h-261
c-16 16 -35 30 -56 44c34 28 61 62 80 97c53 -29 116 -70 157 -100z" />
</svg>
