<?xml version="1.0" standalone="no"?>
<!DOCTYPE svg PUBLIC "-//W3C//DTD SVG 1.1//EN" "http://www.w3.org/Graphics/SVG/1.1/DTD/svg11.dtd" >
<svg xmlns="http://www.w3.org/2000/svg" xmlns:xlink="http://www.w3.org/1999/xlink" version="1.1" viewBox="-10 0 1010 1000">
   <path fill="currentColor"
d="M228 651l104 -40l15 66c-99 40 -205 82 -287 115l-23 -72c34 -11 76 -26 122 -43v-322h-103v-69h103v-232h69v232h97v69h-97v296zM444 574h429c-70 -50 -141 -122 -189 -194v174h-67v-173c-42 72 -106 142 -173 193zM682 861h132v-88h-132v88zM490 773v88h129v-88h-129z
M619 717v-85h-129v85h129zM814 717v-85h-132v85h132zM950 367h-208c57 75 147 148 228 185c-15 12 -36 37 -48 53c-13 -7 -26 -15 -39 -24v369h-69v-33h-324v38h-66v-367c-17 12 -34 22 -51 31c-10 -16 -31 -40 -45 -53c87 -38 177 -116 232 -199h-209v-61h140
c-10 -33 -34 -83 -57 -121l59 -19c24 37 50 87 60 118l-59 22h123v-165c-74 8 -151 13 -221 17c-2 -16 -10 -40 -17 -55c165 -11 363 -32 475 -60l43 54c-59 15 -133 27 -213 36v173h266v61zM794 305l-53 -20c26 -37 58 -96 76 -135l64 22c-27 47 -61 99 -87 133z" />
</svg>
