<?xml version="1.0" standalone="no"?>
<!DOCTYPE svg PUBLIC "-//W3C//DTD SVG 1.1//EN" "http://www.w3.org/Graphics/SVG/1.1/DTD/svg11.dtd" >
<svg xmlns="http://www.w3.org/2000/svg" xmlns:xlink="http://www.w3.org/1999/xlink" version="1.1" viewBox="-10 0 1010 1000">
   <path fill="currentColor"
d="M330 590l17 65c-95 48 -198 97 -278 134l-29 -73c34 -13 77 -32 125 -52v-311h-109v-71h109v-227h69v227h104v71h-104v280zM419 788l49 -32c42 37 96 88 124 119l-51 38c-26 -33 -79 -86 -122 -125zM440 535v57h401v-57h-401zM555 336h-115v151h401v-37
c-10 1 -25 1 -34 1h-55c-18 0 -39 -3 -49 -13c-13 -9 -17 -23 -17 -60v-42h-81v13c0 46 -24 97 -111 131c-8 -11 -27 -29 -38 -36c80 -27 99 -63 99 -97v-11zM605 226v61h81v-61h-81zM841 406v-70h-103v50c0 11 0 17 5 19c3 2 10 3 18 3h40h25c4 0 10 -1 12 -1zM954 696v57
h-155v123c0 37 -7 53 -34 64c-28 10 -72 10 -142 10c-3 -19 -13 -42 -21 -60c53 1 98 1 110 1c15 -1 18 -4 18 -16v-122h-393v-57h393v-56h-351v-353h170v-61h-196v-55h180c-14 -29 -42 -72 -66 -103l58 -23c25 33 55 75 70 102l-49 24h159c28 -37 61 -90 80 -127l67 22
c-24 36 -50 74 -76 105h163v55h-196v61h162v353h-106v56h155z" />
</svg>
