<?xml version="1.0" standalone="no"?>
<!DOCTYPE svg PUBLIC "-//W3C//DTD SVG 1.1//EN" "http://www.w3.org/Graphics/SVG/1.1/DTD/svg11.dtd" >
<svg xmlns="http://www.w3.org/2000/svg" xmlns:xlink="http://www.w3.org/1999/xlink" version="1.1" viewBox="-10 0 1010 1000">
   <path fill="currentColor"
d="M560 251l53 15c-16 24 -36 48 -58 71c28 21 54 42 70 60l-40 35c-17 -18 -41 -39 -68 -61c-32 25 -65 48 -97 66c-8 -9 -30 -28 -43 -37c34 -16 67 -37 98 -60c-25 -17 -51 -34 -76 -48l38 -31c25 14 50 29 76 46c18 -18 34 -36 47 -56zM613 189l-39 37
c-15 -16 -37 -35 -61 -52c-33 25 -68 48 -101 66c-8 -10 -29 -28 -42 -36c34 -17 69 -37 101 -60c-27 -18 -55 -35 -82 -48l38 -32c26 14 55 30 83 47c19 -17 36 -36 50 -56l53 15c-17 25 -38 48 -61 70c24 17 46 35 61 49zM147 516v113h-71v-178h85l-23 -350
c57 -10 144 -34 194 -49l32 46c-43 16 -102 29 -154 38l4 63h146v52h-142l4 70h143v53h-139l5 77h539c3 -22 6 -48 8 -75h-144v-53h149c2 -23 3 -46 5 -70h-149v-52h153c1 -23 2 -47 4 -69h-159v-53h230c-6 118 -16 274 -25 372h81v178h-73v-113h-703zM536 859h397v66h-855
v-66h384v-126h-306v-64h306v-115h74v115h305v64h-305v126z" />
</svg>
