<?xml version="1.0" standalone="no"?>
<!DOCTYPE svg PUBLIC "-//W3C//DTD SVG 1.1//EN" "http://www.w3.org/Graphics/SVG/1.1/DTD/svg11.dtd" >
<svg xmlns="http://www.w3.org/2000/svg" xmlns:xlink="http://www.w3.org/1999/xlink" version="1.1" viewBox="-10 0 1010 1000">
   <path fill="currentColor"
d="M482 384l42 -15c18 30 38 69 46 93l-43 19c-7 -26 -27 -67 -45 -97zM751 479l-37 -17c14 -27 34 -69 43 -97l47 20c-19 34 -37 70 -53 94zM855 493v-141h-187v141h187zM440 352v141h171v-141h-171zM604 307v-52h-275v-56h275v-59c-75 6 -151 10 -221 12
c-2 -14 -8 -38 -15 -51c173 -8 385 -26 501 -48l46 50c-66 12 -151 23 -240 31v65h274v56h-274v52h242v232h-242v51h244v52h-244v60h284v59h-633v-59h278v-60h-224v-52h224v-51h-224v-232h224zM333 599l17 66c-98 43 -202 89 -284 123l-28 -74c35 -12 77 -28 124 -46v-318
h-106v-70h106v-224h68v224h97v70h-97v291zM337 957l-52 -40c58 -30 93 -88 110 -147l58 21c-19 64 -51 129 -116 166zM506 799l59 -8c15 47 29 109 32 147l-63 11c-3 -38 -14 -101 -28 -150zM638 799l56 -16c28 45 61 106 74 144l-59 20c-12 -39 -41 -101 -71 -148zM779 796
l57 -27c47 48 103 116 129 159l-59 30c-26 -43 -81 -112 -127 -162z" />
</svg>
