<?xml version="1.0" standalone="no"?>
<!DOCTYPE svg PUBLIC "-//W3C//DTD SVG 1.1//EN" "http://www.w3.org/Graphics/SVG/1.1/DTD/svg11.dtd" >
<svg xmlns="http://www.w3.org/2000/svg" xmlns:xlink="http://www.w3.org/1999/xlink" version="1.1" viewBox="-10 0 1010 1000">
   <path fill="currentColor"
d="M223 652l84 -33l15 66c-91 38 -185 77 -260 109l-24 -73c33 -11 73 -26 117 -43v-324h-100v-69h100v-228h68v228h82v69h-82v298zM732 726h141v-80h-137c0 25 -1 52 -4 80zM873 516h-137v77h137v-77zM373 732h76v-55h-76v55zM580 677h-76v55h76v-55zM417 523v40h122v-40
h-122zM931 459v427c0 31 -6 49 -27 59c-23 10 -58 10 -113 10c-2 -16 -10 -40 -19 -57c42 1 76 1 87 0c11 0 14 -2 14 -13v-106h-148c-13 65 -37 131 -84 183c-11 -11 -34 -29 -48 -36c18 -19 32 -40 43 -62h-132v93h-55v-93h-166v-50h166v-41h-127v-136h127v-32h-85v-82
h-69v-45h69v-43h53v43h122v-43h54v43h61v45h-61v82h-89v32h129v136h-129v41h140v34c30 -68 35 -143 35 -205v-184h252zM368 410v-41h186v41h-186zM392 285h161v41h-161v-41zM695 410v-41h191v41h-191zM695 285h165v41h-165v-41zM657 191h287v137h-62v-89h-225v184h-65v-184
h-218v89h-61v-137h279v-49h-247v-54h578v54h-266v49z" />
</svg>
