<?xml version="1.0" standalone="no"?>
<!DOCTYPE svg PUBLIC "-//W3C//DTD SVG 1.1//EN" "http://www.w3.org/Graphics/SVG/1.1/DTD/svg11.dtd" >
<svg xmlns="http://www.w3.org/2000/svg" xmlns:xlink="http://www.w3.org/1999/xlink" version="1.1" viewBox="-10 0 1010 1000">
   <path fill="currentColor"
d="M958 359l-42 15c-3 -10 -6 -21 -11 -34c-128 22 -150 27 -164 35c-2 -12 -10 -36 -17 -50c15 -3 29 -15 45 -35c10 -10 31 -36 54 -70c-56 7 -71 10 -81 15c-3 -12 -12 -37 -18 -50c11 -2 20 -10 30 -24c9 -13 44 -68 59 -120l49 24c-18 39 -41 80 -65 111l57 -4
c10 -16 19 -33 27 -50l45 28c-33 57 -73 114 -115 161l78 -10c-7 -16 -15 -31 -23 -45l41 -11c22 36 44 83 51 114zM879 392l36 -12c22 40 40 91 46 124l-39 15c-6 -33 -23 -87 -43 -127zM876 527l-42 11c0 -33 -9 -90 -22 -132l39 -8c14 43 24 97 25 129zM754 396l45 9
c-10 49 -26 102 -46 138c-9 -6 -28 -17 -40 -23c22 -35 33 -80 41 -124zM664 128l-51 13c-7 -23 -23 -57 -38 -82l50 -10c16 24 32 59 39 79zM723 143v46h-206v-46h206zM544 339v-41h160v41h-160zM705 224v42h-160v-42h160zM588 416v66h72v-66h-72zM543 523v-147h165v147
h-165zM533 355l-39 14c-2 -8 -5 -16 -8 -26c-122 23 -145 28 -157 35c-2 -11 -11 -37 -17 -50c14 -2 28 -14 43 -34c10 -11 31 -37 52 -71c-56 7 -72 11 -81 15c-3 -12 -12 -38 -19 -51c12 -3 21 -11 31 -24c9 -13 44 -66 60 -118l50 26c-18 38 -42 77 -66 108l54 -3
c9 -16 18 -32 26 -49l46 28c-33 56 -72 113 -112 159l74 -11c-6 -15 -14 -29 -21 -42l37 -11c20 33 40 78 47 105zM531 494l-37 15c-6 -30 -20 -78 -38 -114l37 -11c18 36 34 82 38 110zM393 408l41 -7c13 40 23 91 23 123l-42 10c-1 -32 -9 -85 -22 -126zM216 688l94 -35
l13 62c-90 38 -185 74 -261 104l-23 -70c32 -10 69 -22 110 -37v-358h-94v-68h94v-231h67v231h80v68h-80v334zM336 400l46 10c-10 49 -26 103 -46 138c-9 -6 -30 -17 -42 -22c22 -36 34 -81 42 -126zM425 758h505s-2 20 -5 29c-19 87 -38 130 -65 150c-21 16 -42 19 -74 20
c-28 0 -86 0 -147 -4c-1 -17 -10 -41 -20 -57c60 5 123 6 146 6c22 0 33 -1 42 -7c16 -12 29 -37 43 -87h-508c16 -41 33 -99 45 -148h444v-53h-468v-48h537v148h-461c-4 18 -9 34 -14 51z" />
</svg>
