<?xml version="1.0" standalone="no"?>
<!DOCTYPE svg PUBLIC "-//W3C//DTD SVG 1.1//EN" "http://www.w3.org/Graphics/SVG/1.1/DTD/svg11.dtd" >
<svg xmlns="http://www.w3.org/2000/svg" xmlns:xlink="http://www.w3.org/1999/xlink" version="1.1" viewBox="-10 0 1010 1000">
   <path fill="currentColor"
d="M459 291v-97h-391v-65h391v-85h76v85h397v65h-397v97h330v65h-726v-65h320zM235 499v129h534v-129h-534zM656 865h288v65h-887v-65h270c-8 -41 -32 -106 -57 -154l70 -17c29 48 56 112 63 154l-61 17h287l-45 -12c25 -44 55 -112 71 -161h-491v-257h681v257h-186l74 18
c-25 54 -53 114 -77 155z" />
</svg>
