<?xml version="1.0" standalone="no"?>
<!DOCTYPE svg PUBLIC "-//W3C//DTD SVG 1.1//EN" "http://www.w3.org/Graphics/SVG/1.1/DTD/svg11.dtd" >
<svg xmlns="http://www.w3.org/2000/svg" xmlns:xlink="http://www.w3.org/1999/xlink" version="1.1" viewBox="-10 0 1010 1000">
   <path fill="currentColor"
d="M462 240v-68h-397v-59h397v-70h74v70h401v59h-401v68h324v55h-718v-55h320zM916 516h-72v-108h-691v108h-69v-165h832v165zM786 515h-576v-51h576v51zM266 625v89h462v-89h-462zM677 867h269v62h-890v-62h272c-10 -27 -28 -60 -44 -86l66 -14c23 30 44 72 53 100h199
c16 -31 33 -73 44 -101h-451v-194h606v194h-151l70 16c-15 29 -29 59 -43 85z" />
</svg>
