<?xml version="1.0" standalone="no"?>
<!DOCTYPE svg PUBLIC "-//W3C//DTD SVG 1.1//EN" "http://www.w3.org/Graphics/SVG/1.1/DTD/svg11.dtd" >
<svg xmlns="http://www.w3.org/2000/svg" xmlns:xlink="http://www.w3.org/1999/xlink" version="1.1" viewBox="-10 0 1010 1000">
   <path fill="currentColor"
d="M747 782l-42 62c-33 -32 -84 -72 -140 -112c-73 66 -159 112 -249 145c-9 -18 -29 -49 -43 -62c85 -27 165 -69 232 -124c-48 -32 -97 -63 -142 -88l39 -53c48 27 103 59 155 92c35 -37 64 -80 87 -127h-285v-59h319l14 -3l45 25c-28 79 -70 146 -121 203
c52 36 99 72 131 101zM692 327h234s0 27 -1 37c-18 361 -35 491 -71 534c-21 25 -40 33 -73 37c-29 3 -84 2 -138 -1c-1 -23 -10 -54 -22 -75c55 4 107 5 128 5c20 0 29 -2 40 -14c28 -30 45 -147 61 -454h-251c22 -62 49 -153 71 -235h-330v30c0 207 -14 514 -236 760
c-13 -14 -42 -35 -61 -44c214 -232 226 -521 226 -716v-30h-161v-66h652c-21 73 -45 161 -68 232z" />
</svg>
