<?xml version="1.0" standalone="no"?>
<!DOCTYPE svg PUBLIC "-//W3C//DTD SVG 1.1//EN" "http://www.w3.org/Graphics/SVG/1.1/DTD/svg11.dtd" >
<svg xmlns="http://www.w3.org/2000/svg" xmlns:xlink="http://www.w3.org/1999/xlink" version="1.1" viewBox="-10 0 1010 1000">
   <path fill="currentColor"
d="M911 317l-59 45c-15 -18 -35 -37 -58 -59c-559 21 -614 22 -650 34c-4 -14 -15 -50 -22 -69c20 -2 44 -17 74 -39c32 -21 137 -103 211 -189l65 39c-66 66 -141 129 -214 180l468 -14c-43 -35 -90 -70 -133 -99l54 -39c92 60 207 148 264 210zM568 394l35 -49
c101 36 235 97 303 141l-36 56c-66 -44 -199 -108 -302 -148zM352 342l59 33c-79 77 -187 144 -289 181l-46 -54c96 -31 203 -89 276 -160zM360 624l-6 5c40 52 94 96 160 132c68 -37 126 -82 168 -137h-322zM744 560l50 32c-47 85 -118 153 -203 205c106 44 233 72 373 85
c-17 16 -36 49 -46 70c-154 -18 -291 -55 -405 -112c-127 61 -277 98 -426 118c-6 -20 -19 -51 -32 -67c133 -15 268 -46 384 -95c-54 -35 -100 -77 -139 -125c-45 33 -93 62 -141 85c-13 -14 -40 -42 -58 -55c130 -53 252 -144 317 -254l73 24c-20 33 -44 64 -71 93h309z
" />
</svg>
