<?xml version="1.0" standalone="no"?>
<!DOCTYPE svg PUBLIC "-//W3C//DTD SVG 1.1//EN" "http://www.w3.org/Graphics/SVG/1.1/DTD/svg11.dtd" >
<svg xmlns="http://www.w3.org/2000/svg" xmlns:xlink="http://www.w3.org/1999/xlink" version="1.1" viewBox="-10 0 1010 1000">
   <path fill="currentColor"
d="M903 149l58 19c-26 55 -57 118 -81 160l-45 -18c23 -44 54 -114 68 -161zM671 342l-44 -25c25 -40 47 -105 57 -156l45 14c-12 55 -31 124 -58 167zM100 161l44 15c-10 53 -28 125 -51 170l-47 -24c24 -42 44 -111 54 -161zM342 520l-45 43c-20 -30 -58 -74 -96 -113
c-20 62 -57 119 -117 169c-9 -14 -31 -36 -45 -46c115 -93 129 -216 129 -333v-196h61v196c0 20 0 42 -2 63c20 -42 46 -106 59 -150l45 17v-28h135c-12 -26 -27 -58 -42 -81l60 -17c18 29 39 69 51 98h118v47h-319c-22 48 -45 100 -65 136l-42 -18c-1 27 -4 53 -9 79
c46 42 99 98 124 134zM619 238v45h-250v-45h250zM369 375v-46h250v46h-250zM694 692h-377c49 42 116 78 193 107c73 -29 136 -64 184 -107zM424 464v70h136v-70h-136zM772 627l47 31c-52 71 -128 127 -217 170c107 31 229 49 353 59c-15 16 -33 46 -42 66
c-144 -14 -284 -41 -405 -85c-132 48 -283 75 -430 90c-5 -20 -18 -48 -29 -65c125 -9 253 -30 369 -63c-63 -30 -119 -65 -163 -108c-45 35 -94 64 -142 87c-9 -14 -31 -44 -45 -58c100 -41 201 -107 252 -188l45 14v-158h256v142c122 -86 136 -206 136 -318v-198h63v199
c0 46 -2 92 -11 136c55 55 123 129 154 177l-51 47c-25 -43 -74 -103 -123 -155c-21 60 -60 114 -126 161c-9 -13 -27 -35 -42 -46v15h-248l14 4c-10 16 -22 32 -35 47h406z" />
</svg>
