<?xml version="1.0" standalone="no"?>
<!DOCTYPE svg PUBLIC "-//W3C//DTD SVG 1.1//EN" "http://www.w3.org/Graphics/SVG/1.1/DTD/svg11.dtd" >
<svg xmlns="http://www.w3.org/2000/svg" xmlns:xlink="http://www.w3.org/1999/xlink" version="1.1" viewBox="-10 0 1010 1000">
   <path fill="currentColor"
d="M849 240h-109v83h109v-83zM771 470h94c21 0 25 -9 28 -64c12 9 34 17 49 20c-6 73 -22 94 -71 94h-105c-63 0 -81 -15 -81 -75v-253h217v178h-162v75c0 21 5 25 31 25zM578 560l34 -41c99 31 228 81 294 118l-35 46c-65 -38 -193 -90 -293 -123zM573 285v-45h-152v45h152
zM573 373v-48h-152v48h152zM573 460v-47h-152v47h152zM364 194h85c7 -18 14 -37 20 -55h-409v-55h881v55h-405c-9 20 -17 38 -24 55h121v312h-269v-312zM114 692l-39 -49c100 -23 205 -69 274 -124l57 23c-74 64 -179 120 -292 150zM337 439l4 47c-93 25 -187 50 -263 69
l-22 -55c17 -3 35 -7 55 -11v-264h51v254l48 -11v-298h53v109h75v50h-75v127zM661 724h-306c37 37 88 67 150 92c62 -24 116 -54 156 -92zM731 665l45 27c-44 65 -109 115 -186 152c104 30 229 46 362 52c-13 14 -30 40 -39 59c-153 -10 -293 -33 -407 -76
c-127 46 -278 67 -431 78c-5 -18 -17 -44 -28 -60c132 -7 263 -22 376 -54c-47 -24 -89 -54 -123 -89c-39 21 -82 40 -129 58c-9 -15 -30 -37 -43 -48c136 -45 237 -111 290 -173l72 15c-18 22 -39 42 -62 62h289z" />
</svg>
