<?xml version="1.0" standalone="no"?>
<!DOCTYPE svg PUBLIC "-//W3C//DTD SVG 1.1//EN" "http://www.w3.org/Graphics/SVG/1.1/DTD/svg11.dtd" >
<svg xmlns="http://www.w3.org/2000/svg" xmlns:xlink="http://www.w3.org/1999/xlink" version="1.1" viewBox="-10 0 1010 1000">
   <path fill="currentColor"
d="M745 127l48 30c-126 221 -417 355 -676 409c-6 -20 -22 -51 -35 -67c111 -20 229 -56 335 -107c-33 -30 -77 -62 -117 -85l54 -38c42 24 92 58 128 90c79 -46 148 -100 197 -162h-282c-64 53 -142 102 -232 143c-11 -17 -34 -40 -50 -52c159 -67 278 -164 342 -246l81 17
c-19 24 -41 47 -65 71h259zM891 476l50 31c-139 294 -480 410 -832 452c-5 -21 -17 -54 -30 -72c169 -16 337 -51 477 -116c-33 -32 -78 -70 -117 -100l61 -35c40 29 88 68 124 101c85 -49 156 -111 206 -189h-270c-83 67 -186 128 -311 177c-9 -16 -30 -43 -47 -55
c202 -73 344 -184 417 -282l82 18c-20 25 -41 50 -66 74h241z" />
</svg>
