<?xml version="1.0" standalone="no"?>
<!DOCTYPE svg PUBLIC "-//W3C//DTD SVG 1.1//EN" "http://www.w3.org/Graphics/SVG/1.1/DTD/svg11.dtd" >
<svg xmlns="http://www.w3.org/2000/svg" xmlns:xlink="http://www.w3.org/1999/xlink" version="1.1" viewBox="-10 0 1010 1000">
   <path fill="currentColor"
d="M955 450h-497c-18 27 -38 55 -62 81h375l14 -3l50 34c-122 243 -394 349 -692 394c-7 -19 -26 -51 -40 -66c131 -18 257 -46 364 -92c-45 -37 -110 -82 -165 -114l51 -41c62 33 138 83 182 122c81 -45 146 -100 192 -171h-394c-60 54 -130 101 -204 135
c-10 -16 -32 -43 -46 -57c114 -51 223 -134 286 -222h-324v-63h644v-87h-494v-60h494v-82h-522v-63h595v292h193v63z" />
</svg>
