<?xml version="1.0" standalone="no"?>
<!DOCTYPE svg PUBLIC "-//W3C//DTD SVG 1.1//EN" "http://www.w3.org/Graphics/SVG/1.1/DTD/svg11.dtd" >
<svg xmlns="http://www.w3.org/2000/svg" xmlns:xlink="http://www.w3.org/1999/xlink" version="1.1" viewBox="-10 0 1010 1000">
   <path fill="currentColor"
d="M830 184h-159c-39 48 -87 94 -145 134c-11 -16 -34 -35 -50 -45c103 -65 171 -155 207 -228l69 11c-11 23 -23 44 -38 67h149l14 -3l46 20c-65 198 -221 315 -393 374c-9 -17 -26 -40 -40 -54c65 -20 129 -50 185 -91c-26 -24 -59 -49 -87 -69l49 -38c28 18 62 42 88 64
c43 -41 79 -87 105 -142zM273 408h-104v234h104v-234zM466 170v39c-8 480 -14 633 -46 679c-19 27 -38 35 -68 39c-28 4 -74 3 -120 0c-1 -20 -9 -50 -21 -69c49 4 93 4 113 4c16 1 24 -3 33 -17c23 -31 31 -181 39 -606h-211c-19 39 -39 75 -59 107h206v358h-163v70h-60
v-403c-5 6 -9 12 -14 18c-13 -11 -45 -30 -62 -40c62 -73 116 -187 148 -300l70 17c-10 35 -22 70 -36 104h251zM918 507l46 19c-69 249 -247 372 -464 431c-8 -18 -25 -47 -39 -61c95 -22 184 -61 257 -118c-30 -30 -70 -64 -106 -89l52 -39c34 23 74 55 105 83
c44 -45 79 -98 104 -160h-169c-48 52 -108 102 -182 145c-10 -16 -32 -40 -46 -49c122 -66 207 -159 248 -239l71 12c-11 23 -26 46 -42 69h136v-1h15z" />
</svg>
