<?xml version="1.0" standalone="no"?>
<!DOCTYPE svg PUBLIC "-//W3C//DTD SVG 1.1//EN" "http://www.w3.org/Graphics/SVG/1.1/DTD/svg11.dtd" >
<svg xmlns="http://www.w3.org/2000/svg" xmlns:xlink="http://www.w3.org/1999/xlink" version="1.1" viewBox="-10 0 1010 1000">
   <path fill="currentColor"
d="M939 607h-359c63 147 192 241 383 277c-17 15 -37 45 -47 66c-201 -47 -332 -153 -404 -326c-76 204 -222 291 -430 335c-7 -20 -22 -50 -37 -66c190 -31 325 -108 397 -286h-381v-69h404c11 -41 20 -86 26 -136h-315c32 -93 74 -245 99 -358l76 9
c-22 88 -49 197 -75 281h234l12 -3l46 12c-6 74 -16 138 -30 195h401v69z" />
</svg>
