<?xml version="1.0" standalone="no"?>
<!DOCTYPE svg PUBLIC "-//W3C//DTD SVG 1.1//EN" "http://www.w3.org/Graphics/SVG/1.1/DTD/svg11.dtd" >
<svg xmlns="http://www.w3.org/2000/svg" xmlns:xlink="http://www.w3.org/1999/xlink" version="1.1" viewBox="-10 0 1010 1000">
   <path fill="currentColor"
d="M932 550h-385c69 174 206 290 416 334c-16 17 -38 48 -49 70c-204 -53 -337 -166 -417 -339c-50 136 -162 259 -407 343c-9 -19 -31 -51 -47 -66c251 -83 352 -209 390 -342h-364v-75h381c5 -41 7 -83 7 -123v-83h-320v-75h320v-151h78v151h340v75h-340v83
c0 41 -2 82 -6 123h403v75z" />
</svg>
