<?xml version="1.0" standalone="no"?>
<!DOCTYPE svg PUBLIC "-//W3C//DTD SVG 1.1//EN" "http://www.w3.org/Graphics/SVG/1.1/DTD/svg11.dtd" >
<svg xmlns="http://www.w3.org/2000/svg" xmlns:xlink="http://www.w3.org/1999/xlink" version="1.1" viewBox="-10 0 1010 1000">
   <path fill="currentColor"
d="M462 903v-432h78v432h-78zM934 259h-278c70 83 181 149 301 180c-17 16 -39 45 -50 65c-33 -11 -67 -25 -98 -40v492h-80v-497h71c-91 -48 -172 -118 -226 -200h-139c-60 80 -135 146 -222 198h77v156c0 124 -18 256 -152 348c-12 -17 -42 -44 -60 -57
c121 -81 135 -191 135 -292v-155c-37 22 -75 42 -117 60c-9 -17 -36 -50 -54 -65c118 -43 218 -108 295 -193h-270v-71h325c30 -43 53 -91 72 -143l78 19c-17 44 -36 86 -60 124h452v71z" />
</svg>
