<?xml version="1.0" standalone="no"?>
<!DOCTYPE svg PUBLIC "-//W3C//DTD SVG 1.1//EN" "http://www.w3.org/Graphics/SVG/1.1/DTD/svg11.dtd" >
<svg xmlns="http://www.w3.org/2000/svg" xmlns:xlink="http://www.w3.org/1999/xlink" version="1.1" viewBox="-10 0 1010 1000">
   <path fill="currentColor"
d="M245 281l70 13c-11 45 -24 87 -40 127c49 41 106 91 135 126l-43 54c-26 -33 -74 -80 -119 -120c-37 72 -82 132 -136 179c-12 -12 -40 -36 -56 -48c94 -73 158 -192 189 -331zM935 591l-49 52c-34 -42 -101 -106 -162 -159c-27 54 -61 101 -101 137
c-11 -10 -37 -25 -55 -35c47 106 157 234 387 303c-16 16 -37 48 -47 68c-287 -92 -387 -291 -411 -379c-22 89 -121 285 -405 379c-10 -16 -32 -45 -49 -61c340 -105 415 -343 415 -440v-202h-399v-72h399v-134h79v134h405v72h-405v202c0 30 7 74 28 123
c79 -67 129 -172 151 -296l70 10c-9 46 -20 90 -35 130c65 54 144 123 184 168z" />
</svg>
