<?xml version="1.0" standalone="no"?>
<!DOCTYPE svg PUBLIC "-//W3C//DTD SVG 1.1//EN" "http://www.w3.org/Graphics/SVG/1.1/DTD/svg11.dtd" >
<svg xmlns="http://www.w3.org/2000/svg" xmlns:xlink="http://www.w3.org/1999/xlink" version="1.1" viewBox="-10 0 1010 1000">
   <path fill="currentColor"
d="M475 735l58 -23c39 63 91 150 114 202l-61 29c-22 -53 -72 -142 -111 -208zM248 560h304c-10 -39 -17 -81 -22 -124c-91 11 -190 19 -282 24v100zM570 223h-131c-49 65 -112 124 -192 175c161 -11 335 -29 442 -52l40 60c-38 8 -81 16 -128 22c4 46 13 90 24 132h274v65
h-255c54 149 143 251 204 250c24 0 34 -39 39 -133c16 14 43 28 62 32c-11 135 -40 171 -104 171c-102 0 -214 -134 -275 -320h-322v229l212 -56c0 18 4 48 8 61c-243 71 -274 83 -294 98c-5 -18 -19 -49 -30 -63c13 -9 31 -26 31 -65v-389c-29 15 -62 30 -95 43
c-8 -19 -29 -48 -46 -61c137 -49 238 -120 309 -199h-280v-67h332c24 -37 42 -75 55 -113l80 13c-13 33 -28 68 -47 100h456v67h-286c73 82 193 151 312 183c-17 15 -39 42 -50 62c-134 -44 -267 -137 -345 -245z" />
</svg>
