<?xml version="1.0" standalone="no"?>
<!DOCTYPE svg PUBLIC "-//W3C//DTD SVG 1.1//EN" "http://www.w3.org/Graphics/SVG/1.1/DTD/svg11.dtd" >
<svg xmlns="http://www.w3.org/2000/svg" xmlns:xlink="http://www.w3.org/1999/xlink" version="1.1" viewBox="-10 0 1010 1000">
   <path fill="currentColor"
d="M263 371h491c-62 -38 -116 -86 -156 -138h-164c-46 51 -102 97 -171 138zM754 592h-488v104h488v-104zM938 233h-256c68 68 174 124 282 151c-15 15 -36 41 -47 60c-33 -10 -66 -23 -99 -39v31h-552v93h561v229h-561v104h602v66h-675v-519c-35 17 -73 33 -113 48
c-8 -19 -28 -46 -43 -59c127 -42 226 -100 299 -165h-271v-65h331c34 -40 57 -82 74 -123l78 12c-16 37 -37 75 -62 111h452v65z" />
</svg>
