<?xml version="1.0" standalone="no"?>
<!DOCTYPE svg PUBLIC "-//W3C//DTD SVG 1.1//EN" "http://www.w3.org/Graphics/SVG/1.1/DTD/svg11.dtd" >
<svg xmlns="http://www.w3.org/2000/svg" xmlns:xlink="http://www.w3.org/1999/xlink" version="1.1" viewBox="-10 0 1010 1000">
   <path fill="currentColor"
d="M754 536l61 34c-48 61 -106 117 -174 165c96 55 211 124 274 174l-60 49c-60 -50 -176 -124 -276 -182c-129 80 -285 141 -454 180c-8 -18 -25 -45 -41 -62c284 -60 536 -182 670 -358zM562 378h220c-80 -44 -156 -103 -210 -166h-144c-50 61 -113 117 -195 166h250
c-13 -24 -28 -51 -44 -72l64 -24c22 30 48 68 59 96zM939 212h-279c77 71 194 133 304 163c-17 14 -39 42 -48 61c-40 -13 -79 -29 -117 -49v53h-339c-42 41 -94 90 -137 126l185 -5c41 -30 76 -64 104 -99l61 30c-111 140 -308 242 -522 298c-9 -17 -26 -42 -41 -56
c107 -25 211 -63 301 -111c-162 7 -190 11 -207 17c-2 -17 -13 -54 -19 -69c17 -4 42 -10 63 -26c20 -16 76 -66 118 -105h-169v-41c-35 19 -74 37 -115 53c-9 -18 -28 -44 -44 -57c129 -45 228 -111 297 -183h-271v-66h326c24 -34 42 -69 55 -103l77 13
c-12 30 -28 61 -47 90h464v66z" />
</svg>
