<?xml version="1.0" standalone="no"?>
<!DOCTYPE svg PUBLIC "-//W3C//DTD SVG 1.1//EN" "http://www.w3.org/Graphics/SVG/1.1/DTD/svg11.dtd" >
<svg xmlns="http://www.w3.org/2000/svg" xmlns:xlink="http://www.w3.org/1999/xlink" version="1.1" viewBox="-10 0 1010 1000">
   <path fill="currentColor"
d="M631 454v-179h-236v-66h236v-165h73v165h238v66h-238v179h214v66h-500v-66h213zM287 383h-90c-1 60 -13 138 -90 194c-12 -16 -39 -37 -55 -46c66 -43 78 -103 80 -148h-75v-60h230v-84h-177v-178h67v120h110v-137h72v510h-72v-171zM944 706h-380c65 111 199 164 395 180
c-17 16 -35 46 -44 67c-200 -24 -335 -87 -410 -216c-54 119 -168 189 -424 223c-5 -19 -22 -47 -34 -63c243 -29 345 -87 392 -191h-382v-67h403c6 -27 11 -57 14 -89h76c-4 31 -8 62 -14 89h408v67z" />
</svg>
