<?xml version="1.0" standalone="no"?>
<!DOCTYPE svg PUBLIC "-//W3C//DTD SVG 1.1//EN" "http://www.w3.org/Graphics/SVG/1.1/DTD/svg11.dtd" >
<svg xmlns="http://www.w3.org/2000/svg" xmlns:xlink="http://www.w3.org/1999/xlink" version="1.1" viewBox="-10 0 1010 1000">
   <path fill="currentColor"
d="M591 666h180v-105h-175c0 32 -1 68 -5 105zM771 407h-175v92h175v-92zM380 498v-91h-165v91h165zM210 665h170v-106h-165c0 33 -1 69 -5 106zM943 209h-284c74 70 190 129 306 156c-16 14 -38 43 -49 63c-26 -8 -52 -17 -77 -28v480c0 36 -8 55 -33 65
c-24 12 -61 13 -123 13c-3 -18 -13 -46 -22 -63c43 1 82 1 93 1c13 -1 17 -4 17 -17v-152h-187c-13 83 -38 166 -87 231c-10 -13 -37 -37 -52 -45c75 -105 84 -249 84 -356v-212h203c-63 -38 -117 -85 -159 -136h-138c-44 50 -100 96 -167 136h179v534c0 35 -7 53 -31 64
c-23 11 -59 12 -115 12c-3 -18 -13 -45 -23 -62c40 2 76 1 86 1c12 -1 16 -4 16 -15v-153h-178c-14 83 -40 167 -93 233c-11 -14 -37 -38 -52 -46c81 -104 91 -248 91 -356v-152c-25 11 -50 21 -76 29c-8 -17 -27 -44 -42 -57c134 -41 237 -100 311 -168h-281v-64h341
c26 -33 47 -67 61 -101l74 13c-14 30 -30 60 -50 88h457v64z" />
</svg>
