<?xml version="1.0" standalone="no"?>
<!DOCTYPE svg PUBLIC "-//W3C//DTD SVG 1.1//EN" "http://www.w3.org/Graphics/SVG/1.1/DTD/svg11.dtd" >
<svg xmlns="http://www.w3.org/2000/svg" xmlns:xlink="http://www.w3.org/1999/xlink" version="1.1" viewBox="-10 0 1010 1000">
   <path fill="currentColor"
d="M816 396v138c0 36 -8 52 -36 63c-28 9 -70 9 -135 9c-4 -18 -15 -42 -23 -59c49 2 93 2 106 1c14 -1 17 -4 17 -16v-136h-388v-58h388v-24l-45 -24c40 -42 92 -110 120 -158l63 30c-32 43 -69 88 -102 126h35v50h135v58h-135zM428 429l51 -30c46 33 96 83 119 118l-55 36
c-21 -37 -70 -89 -115 -124zM379 186l54 -20c30 41 61 94 72 131l-57 22c-11 -36 -40 -92 -69 -133zM545 164l57 -16c26 42 52 98 60 135l-60 19c-7 -37 -31 -94 -57 -138zM840 44l49 50c-135 30 -344 48 -518 55c-2 -14 -10 -38 -17 -53c170 -8 374 -27 486 -52zM204 270
l-60 27c-12 -45 -47 -115 -81 -167l56 -23c35 51 72 119 85 163zM239 618v-178c-57 31 -115 62 -163 86l-32 -63c50 -21 122 -54 195 -91v-328h70v574h-70zM943 729h-368c63 103 191 148 386 160c-17 16 -35 47 -44 68c-217 -22 -349 -85 -418 -228
c-54 120 -166 192 -423 227c-6 -17 -22 -47 -35 -62c221 -27 323 -79 374 -165h-357v-63h384c9 -29 15 -62 20 -97h77c-5 35 -10 67 -18 97h422v63z" />
</svg>
