<?xml version="1.0" standalone="no"?>
<!DOCTYPE svg PUBLIC "-//W3C//DTD SVG 1.1//EN" "http://www.w3.org/Graphics/SVG/1.1/DTD/svg11.dtd" >
<svg xmlns="http://www.w3.org/2000/svg" xmlns:xlink="http://www.w3.org/1999/xlink" version="1.1" viewBox="-10 0 1010 1000">
   <path fill="currentColor"
d="M242 830l50 -42c44 27 99 70 126 100l-52 47c-26 -30 -79 -75 -124 -105zM487 414v-54h-176c-7 7 -13 15 -20 22v32h196zM487 512v-55h-196v55h196zM487 615v-60h-196v60h196zM622 192h-233c-16 14 -31 28 -49 40l49 17c-12 22 -25 42 -40 63h149c-9 -25 -29 -58 -47 -83
l51 -24c22 25 44 61 53 84l-43 23h267c-60 -32 -116 -74 -157 -120zM800 360h-245v54h251v43h-251v55h251v43h-251v60h292v49h-136v63h232v60h-232v93c0 39 -9 56 -38 66c-31 10 -80 10 -154 10c-4 -19 -15 -44 -25 -62c58 2 111 2 126 1c16 -1 19 -5 19 -17v-91h-582v-60
h582v-63h-348v38h-66v-260c-42 36 -88 66 -134 92c-8 -13 -28 -42 -40 -53c106 -52 208 -134 268 -232c-75 54 -164 95 -255 128c-5 -14 -19 -44 -30 -59c95 -30 186 -71 262 -126h-226v-62h298c28 -28 52 -59 71 -92l58 19c-15 26 -32 50 -50 73h484v62h-232
c66 55 167 100 266 121c-15 14 -35 38 -44 55c-41 -11 -82 -27 -121 -45v37z" />
</svg>
