<?xml version="1.0" standalone="no"?>
<!DOCTYPE svg PUBLIC "-//W3C//DTD SVG 1.1//EN" "http://www.w3.org/Graphics/SVG/1.1/DTD/svg11.dtd" >
<svg xmlns="http://www.w3.org/2000/svg" xmlns:xlink="http://www.w3.org/1999/xlink" version="1.1" viewBox="-10 0 1010 1000">
   <path fill="currentColor"
d="M820 425v123c0 36 -8 52 -35 62c-26 11 -67 12 -128 12c-6 -19 -19 -44 -29 -61c50 2 92 2 105 1s16 -4 16 -15v-122h-368v-56h368v-71h71v71h138v56h-138zM449 462l49 -33c45 30 98 73 122 106l-52 36c-24 -33 -75 -78 -119 -109zM815 140h-229c-51 28 -112 52 -181 74
c-9 -14 -27 -35 -40 -43c126 -34 222 -80 276 -128l65 14c-14 12 -30 25 -45 37h193l13 -3l41 23c-89 153 -294 219 -501 247c-6 -15 -20 -38 -31 -51c57 -6 114 -15 168 -29c-24 -21 -56 -43 -84 -59l39 -23c32 18 71 45 97 67c25 -8 48 -16 70 -25
c-27 -21 -61 -43 -93 -59l38 -25c33 16 72 39 100 62c41 -22 76 -48 104 -79zM185 412v19c0 55 -16 148 -85 205c-13 -10 -41 -25 -57 -33c63 -52 75 -129 75 -174v-17h-69v-60h224v-74h-174v-206h64v147h110v-175h68v576h-68v-208h-88zM946 728h-373
c64 104 192 149 388 161c-17 16 -34 47 -43 68c-218 -22 -350 -85 -419 -228c-54 121 -166 193 -423 227c-6 -17 -22 -47 -34 -62c220 -27 323 -80 374 -166h-361v-63h387c9 -29 15 -60 20 -95h77c-5 34 -11 66 -19 95h426v63z" />
</svg>
