<?xml version="1.0" standalone="no"?>
<!DOCTYPE svg PUBLIC "-//W3C//DTD SVG 1.1//EN" "http://www.w3.org/Graphics/SVG/1.1/DTD/svg11.dtd" >
<svg xmlns="http://www.w3.org/2000/svg" xmlns:xlink="http://www.w3.org/1999/xlink" version="1.1" viewBox="-10 0 1010 1000">
   <path fill="currentColor"
d="M330 317h-119c-17 89 -38 175 -57 246c36 25 74 53 110 82c33 -88 55 -196 66 -328zM359 246l45 6c-9 188 -35 332 -80 442c46 39 86 79 112 111l-50 61c-23 -30 -56 -65 -96 -101c-49 86 -111 148 -189 192c-11 -19 -31 -46 -47 -61c74 -36 134 -96 179 -181
c-53 -45 -111 -90 -163 -127c23 -71 47 -169 69 -271h-91v-69h105c13 -71 24 -141 31 -204l73 4c-8 62 -18 130 -32 200h122zM955 439v73h-233v445h-75v-445h-227v-73h227v-257c-62 9 -124 16 -183 21c-2 -20 -13 -47 -21 -65c151 -14 329 -42 432 -76l49 63
c-57 18 -128 34 -202 46v268h233z" />
</svg>
