<?xml version="1.0" standalone="no"?>
<!DOCTYPE svg PUBLIC "-//W3C//DTD SVG 1.1//EN" "http://www.w3.org/Graphics/SVG/1.1/DTD/svg11.dtd" >
<svg xmlns="http://www.w3.org/2000/svg" xmlns:xlink="http://www.w3.org/1999/xlink" version="1.1" viewBox="-10 0 1010 1000">
   <path fill="currentColor"
d="M324 319h-130c-17 89 -36 174 -55 243c37 27 74 58 111 88c37 -89 62 -199 74 -331zM354 246l44 6c-12 190 -43 336 -92 448c52 47 98 94 127 132l-53 59c-26 -36 -64 -78 -109 -122c-49 82 -112 142 -187 185c-11 -19 -30 -46 -45 -61c71 -36 131 -94 177 -176
c-51 -46 -106 -92 -156 -131c21 -69 44 -167 63 -267h-74v-71h87c11 -69 21 -139 27 -200l72 4c-7 61 -17 129 -28 196h135zM955 437v73h-232v446h-79v-446h-224v-73h224v-258h-192v-73h470v73h-199v258h232z" />
</svg>
