<?xml version="1.0" standalone="no"?>
<!DOCTYPE svg PUBLIC "-//W3C//DTD SVG 1.1//EN" "http://www.w3.org/Graphics/SVG/1.1/DTD/svg11.dtd" >
<svg xmlns="http://www.w3.org/2000/svg" xmlns:xlink="http://www.w3.org/1999/xlink" version="1.1" viewBox="-10 0 1010 1000">
   <path fill="currentColor"
d="M790 324h-148c-25 62 -49 119 -72 165c45 26 89 52 132 80c44 -65 71 -146 88 -245zM918 725l-58 45c-37 -34 -85 -72 -140 -111c-57 62 -133 110 -235 145c-8 -19 -26 -45 -41 -59c95 -29 166 -70 218 -125c-57 -39 -118 -77 -180 -112c26 -50 56 -115 83 -184h-103v-65
h129c26 -71 49 -141 64 -205l73 11c-16 61 -38 128 -62 194h272v65h-80c-17 114 -48 207 -98 283c61 42 116 82 158 118zM478 872h346c52 0 64 -13 69 -109c17 10 44 20 62 23c-11 124 -36 149 -136 149h-331c-87 0 -121 -34 -121 -87v-509h-101v22c0 66 -2 135 -11 202
c40 37 76 72 98 101l-46 50c-16 -21 -39 -47 -65 -73c-23 110 -67 216 -150 314c-13 -15 -36 -34 -55 -46c87 -99 128 -210 147 -323c-39 -35 -80 -69 -119 -97l43 -41c28 19 58 41 86 63c5 -51 6 -101 6 -150v-22h-133v-64h133v-220h66v220h166v19v543c0 25 17 35 46 35z
" />
</svg>
