<?xml version="1.0" standalone="no"?>
<!DOCTYPE svg PUBLIC "-//W3C//DTD SVG 1.1//EN" "http://www.w3.org/Graphics/SVG/1.1/DTD/svg11.dtd" >
<svg xmlns="http://www.w3.org/2000/svg" xmlns:xlink="http://www.w3.org/1999/xlink" version="1.1" viewBox="-10 0 1010 1000">
   <path fill="currentColor"
d="M319 317h-110c-20 89 -42 176 -62 248c32 24 68 50 102 77c34 -89 58 -197 70 -325zM348 245l44 9c-12 181 -41 322 -87 433c47 38 89 75 116 105l-48 56c-24 -28 -59 -60 -99 -95c-48 90 -110 155 -185 202c-9 -19 -28 -45 -44 -59c70 -39 129 -102 175 -190
c-51 -41 -104 -83 -151 -118c24 -70 49 -168 72 -271h-94v-69h108c13 -71 25 -141 32 -204l70 5c-8 62 -20 130 -34 199h113zM738 638l-54 47c-36 -62 -118 -153 -192 -217l50 -41c75 62 159 150 196 211zM923 225v38c-14 447 -26 598 -63 646c-22 28 -44 36 -79 40
c-33 3 -90 2 -145 -1c-1 -21 -11 -51 -23 -71c62 5 118 5 142 5c19 1 29 -3 40 -15c30 -33 44 -182 55 -573h-295c-28 61 -59 117 -91 161c-14 -12 -47 -32 -64 -41c72 -91 131 -231 165 -370l72 13c-15 58 -33 114 -54 168h340z" />
</svg>
