<?xml version="1.0" standalone="no"?>
<!DOCTYPE svg PUBLIC "-//W3C//DTD SVG 1.1//EN" "http://www.w3.org/Graphics/SVG/1.1/DTD/svg11.dtd" >
<svg xmlns="http://www.w3.org/2000/svg" xmlns:xlink="http://www.w3.org/1999/xlink" version="1.1" viewBox="-10 0 1010 1000">
   <path fill="currentColor"
d="M400 317h-157c-19 88 -42 173 -62 244c42 29 86 62 129 95c45 -88 76 -201 90 -339zM432 245l46 9c-14 193 -51 339 -110 450c45 38 84 75 109 107l-49 62c-25 -31 -60 -66 -100 -103c-61 86 -138 146 -232 188c-10 -19 -30 -46 -46 -62c90 -34 164 -91 221 -176
c-56 -47 -118 -94 -173 -132c25 -71 51 -169 74 -271h-122v-69h136c14 -70 25 -140 33 -203l73 5c-8 62 -21 130 -35 198h162zM602 786h245v-564h-245v564zM532 151h388v766h-73v-60h-245v74h-70v-780z" />
</svg>
