<?xml version="1.0" standalone="no"?>
<!DOCTYPE svg PUBLIC "-//W3C//DTD SVG 1.1//EN" "http://www.w3.org/Graphics/SVG/1.1/DTD/svg11.dtd" >
<svg xmlns="http://www.w3.org/2000/svg" xmlns:xlink="http://www.w3.org/1999/xlink" version="1.1" viewBox="-10 0 1010 1000">
   <path fill="currentColor"
d="M311 317h-117c-18 88 -39 174 -57 242c36 26 72 53 108 83c33 -89 55 -197 66 -325zM341 247l42 6c-11 182 -38 325 -83 437c42 36 77 72 100 104l-53 56c-19 -27 -47 -57 -79 -90c-46 85 -105 148 -176 192c-10 -17 -29 -44 -45 -58c68 -38 124 -98 167 -184
c-49 -43 -103 -86 -154 -121c23 -71 47 -170 68 -272h-83v-68h96c12 -69 23 -138 29 -199l67 4c-7 61 -18 128 -31 195h122zM608 457h157v-288h-157v276v12zM956 457v70h-118v430h-73v-430h-159c-7 152 -40 316 -162 434c-13 -14 -41 -35 -58 -45
c110 -107 141 -256 148 -389h-127v-70h129v-12v-276h-102v-70h504v70h-100v288h118z" />
</svg>
