<?xml version="1.0" standalone="no"?>
<!DOCTYPE svg PUBLIC "-//W3C//DTD SVG 1.1//EN" "http://www.w3.org/Graphics/SVG/1.1/DTD/svg11.dtd" >
<svg xmlns="http://www.w3.org/2000/svg" xmlns:xlink="http://www.w3.org/1999/xlink" version="1.1" viewBox="-10 0 1010 1000">
   <path fill="currentColor"
d="M307 317h-111c-17 91 -35 179 -53 251c33 24 65 50 97 76c34 -88 56 -198 67 -327zM397 802l-49 56c-19 -28 -49 -62 -83 -96c-45 86 -105 150 -177 195c-10 -19 -30 -46 -46 -61c69 -38 126 -100 169 -185c-47 -43 -98 -84 -145 -119c21 -71 42 -171 61 -275h-80v-69h92
c10 -72 20 -142 25 -205l69 4c-6 62 -16 131 -27 201h118l13 -2l43 6c-11 185 -38 330 -84 442c42 39 77 76 101 108zM788 307h-223c23 132 58 249 113 344c55 -91 89 -205 110 -344zM947 307h-86c-26 170 -70 303 -140 408c59 78 136 138 236 174c-15 14 -37 42 -48 61
c-98 -39 -174 -98 -234 -175c-65 76 -148 135 -254 181c-8 -16 -30 -47 -45 -62c111 -42 195 -101 258 -178c-68 -109 -109 -247 -136 -409h-88v-72h253c-16 -45 -50 -116 -77 -169l67 -20c30 54 67 127 85 170l-52 19h261v72z" />
</svg>
