<?xml version="1.0" standalone="no"?>
<!DOCTYPE svg PUBLIC "-//W3C//DTD SVG 1.1//EN" "http://www.w3.org/Graphics/SVG/1.1/DTD/svg11.dtd" >
<svg xmlns="http://www.w3.org/2000/svg" xmlns:xlink="http://www.w3.org/1999/xlink" version="1.1" viewBox="-10 0 1010 1000">
   <path fill="currentColor"
d="M302 317h-105c-16 90 -35 179 -53 251c31 23 62 49 93 75c33 -89 54 -198 65 -326zM331 246l44 6c-11 186 -37 330 -82 442c42 39 78 78 102 111l-50 57c-20 -30 -49 -63 -83 -98c-45 85 -103 148 -174 193c-11 -19 -30 -46 -45 -61c67 -38 122 -100 164 -185
c-45 -42 -95 -84 -141 -119c21 -71 43 -171 62 -275h-81v-69h93c11 -72 21 -146 27 -209l70 4c-7 63 -17 134 -29 205h111zM936 186h-191c-20 49 -43 97 -68 144v627h-72v-515c-60 84 -129 155 -204 211c-10 -16 -37 -46 -52 -60c136 -91 249 -237 316 -407h-277v-69h548v69
zM687 398l51 -46c78 66 176 157 220 217l-53 54c-45 -62 -140 -157 -218 -225z" />
</svg>
