<?xml version="1.0" standalone="no"?>
<!DOCTYPE svg PUBLIC "-//W3C//DTD SVG 1.1//EN" "http://www.w3.org/Graphics/SVG/1.1/DTD/svg11.dtd" >
<svg xmlns="http://www.w3.org/2000/svg" xmlns:xlink="http://www.w3.org/1999/xlink" version="1.1" viewBox="-10 0 1010 1000">
   <path fill="currentColor"
d="M295 331v-288h71v913h-71v-348h-101v33c0 85 -16 216 -94 306c-15 -12 -42 -28 -58 -35c72 -83 84 -199 84 -273v-31h-77v-68h246v-142h-206v-312h67v245h139zM784 359h-182c-18 82 -39 160 -62 227c46 28 95 58 143 90c51 -83 84 -187 101 -317zM951 359h-90
c-23 148 -59 266 -119 358c80 57 149 114 193 163l-54 56c-41 -48 -106 -106 -181 -162c-67 79 -157 137 -275 181c-7 -17 -29 -49 -41 -65c111 -37 195 -88 256 -160c-59 -42 -123 -83 -183 -116c28 -67 52 -158 74 -255h-121v-70h134c17 -81 30 -165 39 -239l76 7
c-12 72 -25 153 -42 232h334v70z" />
</svg>
