<?xml version="1.0" standalone="no"?>
<!DOCTYPE svg PUBLIC "-//W3C//DTD SVG 1.1//EN" "http://www.w3.org/Graphics/SVG/1.1/DTD/svg11.dtd" >
<svg xmlns="http://www.w3.org/2000/svg" xmlns:xlink="http://www.w3.org/1999/xlink" version="1.1" viewBox="-10 0 1010 1000">
   <path fill="currentColor"
d="M734 187l-73 20c-8 -38 -29 -103 -46 -152l68 -15c20 47 41 110 51 147zM315 317h-108c-18 88 -38 175 -56 247c31 21 63 45 95 68c34 -86 56 -192 69 -315zM343 245l45 9c-12 175 -40 316 -84 425c36 31 67 61 90 87l-41 62c-20 -24 -48 -53 -79 -82
c-50 93 -113 162 -190 210c-11 -19 -30 -46 -46 -59c72 -41 133 -107 179 -199c-49 -40 -101 -78 -149 -111c23 -70 46 -168 67 -270h-81v-69h94c12 -71 23 -140 29 -202l72 4c-7 62 -18 129 -30 198h113zM635 290v127v29h265s-1 25 -1 35c-13 292 -24 398 -55 433
c-18 24 -39 31 -70 34c-30 2 -83 2 -138 -1c-1 -23 -10 -53 -22 -73c55 4 109 5 128 5s29 -1 38 -12c21 -22 34 -114 45 -351h-194c-12 146 -56 309 -213 442c-14 -16 -41 -37 -60 -50c183 -153 204 -347 204 -492v-126h-137v-72h529v72h-319z" />
</svg>
