<?xml version="1.0" standalone="no"?>
<!DOCTYPE svg PUBLIC "-//W3C//DTD SVG 1.1//EN" "http://www.w3.org/Graphics/SVG/1.1/DTD/svg11.dtd" >
<svg xmlns="http://www.w3.org/2000/svg" xmlns:xlink="http://www.w3.org/1999/xlink" version="1.1" viewBox="-10 0 1010 1000">
   <path fill="currentColor"
d="M897 186l-45 47c-32 -35 -95 -95 -143 -137l44 -40c48 39 111 96 144 130zM310 317h-114c-17 91 -35 180 -53 253c32 24 65 51 98 79c35 -89 58 -200 69 -332zM381 794l-48 54c-17 -25 -41 -52 -69 -81c-45 83 -104 145 -176 190c-10 -19 -29 -46 -45 -61
c68 -37 125 -98 168 -182c-46 -44 -98 -87 -145 -122c21 -71 42 -172 61 -275h-80v-69h92c10 -72 20 -142 25 -205l69 4c-6 62 -16 131 -27 201h121l13 -2l43 6c-11 188 -40 335 -87 448c35 33 64 66 85 94zM844 499h-248c31 82 73 157 126 221c52 -61 93 -135 122 -221z
M885 432l44 20c-33 129 -89 235 -160 318c56 55 122 98 194 126c-15 14 -36 39 -47 58c-72 -32 -137 -77 -193 -133c-62 60 -132 107 -207 142c-9 -18 -30 -48 -45 -60c76 -32 145 -76 206 -134c-46 -56 -85 -122 -116 -194c-25 148 -70 283 -149 379
c-14 -15 -38 -36 -57 -45c117 -136 152 -364 163 -589h-101v-67h104c2 -72 3 -141 3 -208h71c0 67 -1 137 -4 208h360v67h-363c-2 38 -5 76 -9 114h293z" />
</svg>
