<?xml version="1.0" standalone="no"?>
<!DOCTYPE svg PUBLIC "-//W3C//DTD SVG 1.1//EN" "http://www.w3.org/Graphics/SVG/1.1/DTD/svg11.dtd" >
<svg xmlns="http://www.w3.org/2000/svg" xmlns:xlink="http://www.w3.org/1999/xlink" version="1.1" viewBox="-10 0 1010 1000">
   <path fill="currentColor"
d="M289 317h-99c-17 95 -38 189 -57 266c30 22 61 46 90 72c33 -90 55 -203 66 -338zM348 787l-51 52c-14 -20 -31 -42 -52 -66c-44 80 -99 138 -166 182c-11 -19 -29 -44 -44 -59c64 -37 117 -94 159 -175c-43 -40 -91 -80 -136 -112c23 -76 47 -182 68 -292h-80v-68h92
c11 -72 20 -144 26 -207l67 3c-7 63 -17 134 -29 204h103l12 -2l42 6c-10 192 -36 339 -83 452c30 29 54 57 72 82zM852 157h-356v143h356v-143zM923 367h-427v67c0 161 -16 379 -138 522c-12 -12 -42 -32 -58 -40c116 -135 127 -332 127 -482v-344h496v277zM694 878h153
c39 0 45 -22 50 -140c16 13 45 24 65 28c-9 140 -29 178 -109 178h-166c-89 0 -114 -23 -114 -108v-432h70v210c91 -42 183 -95 239 -142l56 52c-78 56 -191 111 -295 154v158c0 35 8 42 51 42z" />
</svg>
