<?xml version="1.0" standalone="no"?>
<!DOCTYPE svg PUBLIC "-//W3C//DTD SVG 1.1//EN" "http://www.w3.org/Graphics/SVG/1.1/DTD/svg11.dtd" >
<svg xmlns="http://www.w3.org/2000/svg" xmlns:xlink="http://www.w3.org/1999/xlink" version="1.1" viewBox="-10 0 1010 1000">
   <path fill="currentColor"
d="M323 317h-127c-16 92 -35 183 -53 256c35 27 71 56 108 86c37 -89 61 -202 72 -342zM352 246l44 6c-10 196 -38 344 -88 456c51 43 97 85 128 118l-47 58c-27 -32 -68 -71 -113 -112c-50 84 -116 144 -199 186c-10 -20 -28 -46 -44 -62c77 -34 139 -91 187 -174
c-52 -45 -106 -90 -154 -127c21 -72 43 -173 62 -278h-83v-69h94c11 -71 20 -140 25 -202l69 4c-6 62 -15 129 -26 198h133zM955 273h-289v140h265v68h-265v151h279v69h-279v256h-74v-684h-40c-31 69 -65 131 -103 180c-11 -15 -39 -48 -56 -62c70 -85 125 -217 157 -350
l75 18c-13 49 -27 97 -45 144h375v70z" />
</svg>
