<?xml version="1.0" standalone="no"?>
<!DOCTYPE svg PUBLIC "-//W3C//DTD SVG 1.1//EN" "http://www.w3.org/Graphics/SVG/1.1/DTD/svg11.dtd" >
<svg xmlns="http://www.w3.org/2000/svg" xmlns:xlink="http://www.w3.org/1999/xlink" version="1.1" viewBox="-10 0 1010 1000">
   <path fill="currentColor"
d="M837 415v-224h-203v224h203zM912 125v355h-350v-355h350zM677 653h-285c-25 31 -49 62 -73 87c78 16 154 34 228 52c58 -35 101 -80 130 -139zM947 653h-194c-26 67 -66 119 -120 161c113 29 216 60 294 88l-61 56c-80 -32 -186 -65 -309 -98c-112 56 -265 84 -466 97
c-5 -22 -16 -47 -27 -64c164 -7 293 -24 391 -59c-81 -20 -166 -40 -255 -58c35 -34 72 -77 109 -123h-257v-62h303c22 -33 43 -66 61 -97c-7 2 -14 3 -22 4c-21 2 -61 2 -99 1c-2 -21 -9 -47 -20 -66c39 4 73 4 87 4c13 1 22 -1 29 -9c12 -16 20 -69 27 -212h-137
c-21 142 -71 249 -194 316c-10 -18 -31 -43 -46 -55c107 -55 150 -143 168 -261h-149v-66h158c3 -33 5 -68 6 -105h72c-2 36 -4 72 -7 105h200s0 20 -1 30c-9 194 -17 267 -38 293c-6 7 -12 12 -19 16l60 17c-16 28 -35 57 -54 85h510v62z" />
</svg>
