<?xml version="1.0" standalone="no"?>
<!DOCTYPE svg PUBLIC "-//W3C//DTD SVG 1.1//EN" "http://www.w3.org/Graphics/SVG/1.1/DTD/svg11.dtd" >
<svg xmlns="http://www.w3.org/2000/svg" xmlns:xlink="http://www.w3.org/1999/xlink" version="1.1" viewBox="-10 0 1010 1000">
   <path fill="currentColor"
d="M290 317h-97c-18 96 -38 190 -60 268c29 21 60 46 89 71c35 -90 57 -203 68 -339zM318 247l43 6c-10 192 -37 340 -84 453c43 40 80 80 103 114l-52 52c-19 -29 -49 -63 -82 -99c-44 80 -100 139 -168 182c-11 -18 -30 -44 -45 -59c64 -37 118 -94 160 -174
c-43 -39 -90 -78 -134 -111l-2 -1v-1c26 -75 49 -181 68 -292h-81v-68h91c10 -71 19 -143 25 -207l72 7c-8 63 -17 131 -29 200h103zM500 511h167c-5 -46 -7 -95 -9 -146h-158v146zM835 155h-335v142h335v-142zM955 581h-208c23 179 70 295 129 295c20 0 28 -43 32 -140
c16 16 41 30 60 36c-10 139 -35 177 -98 177c-108 0 -169 -150 -196 -368h-174v274l165 -39c-1 21 1 51 3 68c-180 48 -226 62 -248 74l-7 5v-1l-1 1v-5c-7 -20 -18 -52 -29 -71c19 -7 46 -23 46 -59v-741h478v278h-176c2 51 4 100 8 146h216v70z" />
</svg>
