<?xml version="1.0" standalone="no"?>
<!DOCTYPE svg PUBLIC "-//W3C//DTD SVG 1.1//EN" "http://www.w3.org/Graphics/SVG/1.1/DTD/svg11.dtd" >
<svg xmlns="http://www.w3.org/2000/svg" xmlns:xlink="http://www.w3.org/1999/xlink" version="1.1" viewBox="-10 0 1010 1000">
   <path fill="currentColor"
d="M298 317h-96c-17 95 -38 189 -59 265c29 23 60 47 88 72c34 -90 56 -202 67 -337zM326 247l43 6c-10 190 -37 338 -83 451c47 43 86 85 111 122l-52 52c-20 -32 -53 -69 -89 -106c-44 80 -100 140 -168 183c-10 -18 -30 -44 -45 -59c64 -36 118 -95 160 -175
c-44 -41 -90 -78 -133 -110l-3 -1v-1h1c26 -76 48 -182 67 -292h-81v-68h92c10 -72 19 -143 25 -207l71 7c-8 63 -18 131 -29 200h101zM706 647h136v-150h-136v150zM507 497v150h130v-150h-130zM637 273h-130v158h130v-158zM842 273h-136v158h136v-158zM957 647v66h-46v156
c0 41 -9 62 -35 74c-28 12 -74 13 -140 13c-3 -20 -12 -50 -22 -69c50 1 96 1 109 0c15 0 19 -4 19 -19v-155h-335v243h-68v-243h-61v-66h61v-441h198v-164h69v164h205v441h46z" />
</svg>
