<?xml version="1.0" standalone="no"?>
<!DOCTYPE svg PUBLIC "-//W3C//DTD SVG 1.1//EN" "http://www.w3.org/Graphics/SVG/1.1/DTD/svg11.dtd" >
<svg xmlns="http://www.w3.org/2000/svg" xmlns:xlink="http://www.w3.org/1999/xlink" version="1.1" viewBox="-10 0 1010 1000">
   <path fill="currentColor"
d="M287 317h-95c-17 96 -38 189 -59 265c29 23 59 46 88 72c33 -90 55 -202 66 -337zM380 819l-49 55c-20 -30 -51 -66 -85 -103c-44 82 -100 141 -168 184c-11 -18 -30 -44 -45 -59c64 -36 118 -95 160 -175c-44 -41 -90 -79 -134 -110l-2 -1v-1l1 -1
c25 -76 48 -181 67 -291h-81v-68h91c10 -72 19 -143 25 -207l72 7c-8 63 -17 131 -29 200h100l13 -2l42 6c-10 190 -36 338 -82 451c44 40 81 80 104 115zM514 532h119c4 -34 5 -69 5 -105v-156h-124v261zM836 271h-127v157c0 36 -1 70 -4 104h131v-261zM970 600h-242
c42 140 124 247 247 298c-16 15 -38 43 -49 62c-117 -57 -196 -158 -247 -294c-37 116 -120 218 -299 291c-9 -17 -31 -45 -48 -58c188 -75 262 -179 290 -299h-252v-68h76v-329h192v-148h71v148h197v329h64v68z" />
</svg>
