<?xml version="1.0" standalone="no"?>
<!DOCTYPE svg PUBLIC "-//W3C//DTD SVG 1.1//EN" "http://www.w3.org/Graphics/SVG/1.1/DTD/svg11.dtd" >
<svg xmlns="http://www.w3.org/2000/svg" xmlns:xlink="http://www.w3.org/1999/xlink" version="1.1" viewBox="-10 0 1010 1000">
   <path fill="currentColor"
d="M296 317h-95c-18 96 -38 190 -60 268c29 21 60 46 89 70c33 -90 55 -203 66 -338zM367 798l-52 51c-15 -22 -37 -49 -61 -75c-44 79 -100 138 -167 181c-11 -18 -30 -45 -45 -59c64 -37 117 -95 159 -175c-43 -39 -89 -78 -132 -110l-4 -1c26 -75 49 -182 68 -293h-80
v-68h91c10 -72 19 -143 25 -207l72 7c-8 63 -18 131 -29 200h100l13 -2l42 6c-10 192 -36 340 -83 453c35 32 63 64 83 92zM838 583h-240v230h240v-230zM530 946v-432h379v428h-71v-60h-240v64h-68zM495 315h461v70h-461v83c0 167 -16 356 -125 489c-12 -12 -37 -32 -54 -41
c101 -122 114 -299 114 -448v-354l-1 -2c154 -12 335 -32 442 -59l44 64c-113 26 -275 46 -420 55v143z" />
</svg>
