<?xml version="1.0" standalone="no"?>
<!DOCTYPE svg PUBLIC "-//W3C//DTD SVG 1.1//EN" "http://www.w3.org/Graphics/SVG/1.1/DTD/svg11.dtd" >
<svg xmlns="http://www.w3.org/2000/svg" xmlns:xlink="http://www.w3.org/1999/xlink" version="1.1" viewBox="-10 0 1010 1000">
   <path fill="currentColor"
d="M283 321h-91c-16 88 -34 175 -54 247c30 22 60 47 90 71c27 -87 45 -193 55 -318zM310 251l41 6c-9 179 -32 321 -70 432c42 40 80 80 103 114l-44 54c-21 -30 -51 -64 -86 -101c-41 91 -95 156 -164 204c-9 -17 -28 -43 -44 -57c65 -40 117 -105 156 -197
c-43 -41 -91 -80 -135 -114c22 -70 43 -168 60 -271h-84v-68h94c11 -71 19 -143 25 -208l69 7c-8 63 -17 132 -28 201h95zM556 659h124v-198h-124v198zM952 659v72h-200v226h-72v-226h-289v-72h97v-268h192v-153h-136c-32 75 -72 143 -114 195c-10 -13 -35 -43 -50 -57
c70 -81 126 -208 159 -335l70 16c-11 37 -23 75 -36 111h365v70h-186v153h163v70h-163v198h200z" />
</svg>
