<?xml version="1.0" standalone="no"?>
<!DOCTYPE svg PUBLIC "-//W3C//DTD SVG 1.1//EN" "http://www.w3.org/Graphics/SVG/1.1/DTD/svg11.dtd" >
<svg xmlns="http://www.w3.org/2000/svg" xmlns:xlink="http://www.w3.org/1999/xlink" version="1.1" viewBox="-10 0 1010 1000">
   <path fill="currentColor"
d="M949 474l-63 34c-10 -20 -24 -46 -40 -72c-353 25 -395 29 -421 40c-3 -19 -14 -57 -20 -74c18 -4 40 -10 57 -27c21 -22 94 -143 134 -208h-189v-68h534v68h-261c-39 63 -98 162 -140 224l268 -17c-25 -37 -51 -76 -75 -109l61 -28c56 76 123 175 155 237zM310 317h-113
c-17 93 -36 184 -55 259c32 25 65 53 97 81c36 -91 60 -204 71 -340zM386 801l-48 55c-19 -23 -46 -53 -76 -83c-46 81 -105 141 -177 184c-9 -18 -29 -46 -44 -61c68 -36 124 -94 168 -175c-47 -44 -98 -88 -143 -126c22 -72 44 -173 63 -278h-83v-69h95
c10 -71 20 -142 25 -205l69 4c-6 62 -16 132 -27 201h119l13 -2l43 6c-11 193 -40 342 -89 455c37 35 69 67 92 94zM700 855h255v69h-582v-69h255v-175h-205v-68h205v-127h72v127h216v68h-216v175z" />
</svg>
