<?xml version="1.0" standalone="no"?>
<!DOCTYPE svg PUBLIC "-//W3C//DTD SVG 1.1//EN" "http://www.w3.org/Graphics/SVG/1.1/DTD/svg11.dtd" >
<svg xmlns="http://www.w3.org/2000/svg" xmlns:xlink="http://www.w3.org/1999/xlink" version="1.1" viewBox="-10 0 1010 1000">
   <path fill="currentColor"
d="M841 94l73 23c-32 86 -73 192 -106 258l-60 -21c32 -68 72 -179 93 -260zM554 356l-66 19c-9 -68 -41 -174 -78 -254l62 -18c39 79 72 184 82 253zM286 317h-95c-17 95 -38 190 -59 267c29 22 59 45 88 71c33 -90 55 -203 66 -338zM366 806l-51 52
c-18 -25 -43 -55 -71 -86c-44 81 -100 139 -167 183c-10 -18 -29 -44 -44 -59c64 -37 117 -94 159 -176c-43 -39 -89 -77 -132 -109l-3 -1v-1c26 -76 49 -182 68 -292h-81v-68h91c10 -72 19 -143 25 -207l71 7c-8 63 -18 131 -29 200h100l12 -2l43 6
c-10 191 -37 338 -83 452c38 35 70 71 92 101zM788 877h78c24 0 29 -21 32 -151c15 13 44 25 63 31c-6 149 -24 187 -88 187h-94c-72 0 -89 -23 -89 -99v-350h-104c-14 211 -50 375 -237 464c-9 -18 -29 -46 -45 -59c172 -76 200 -221 212 -405h-134v-68h238v-376h70v376
h263v68h-193v349c0 28 4 33 28 33z" />
</svg>
