<?xml version="1.0" standalone="no"?>
<!DOCTYPE svg PUBLIC "-//W3C//DTD SVG 1.1//EN" "http://www.w3.org/Graphics/SVG/1.1/DTD/svg11.dtd" >
<svg xmlns="http://www.w3.org/2000/svg" xmlns:xlink="http://www.w3.org/1999/xlink" version="1.1" viewBox="-10 0 1010 1000">
   <path fill="currentColor"
d="M285 317h-94c-17 95 -38 189 -59 266c28 22 59 46 87 71c34 -90 55 -202 66 -337zM314 247l42 6c-10 191 -37 338 -82 451c46 43 85 85 110 122l-51 52c-20 -32 -53 -69 -89 -106c-44 80 -99 140 -167 183c-10 -18 -29 -44 -44 -59c64 -36 117 -94 158 -175
c-44 -41 -90 -79 -133 -111h-1l-1 -1l2 -2c26 -76 48 -181 66 -290h-80v-68h91c10 -72 19 -143 25 -207l70 7c-8 63 -17 131 -28 200h99zM680 434h-158v102h158v-102zM522 699h158v-104h-158v104zM740 760h-218v65h-61v-453h279v388zM913 194v40c-9 474 -17 630 -49 679
c-19 29 -40 39 -71 42c-30 4 -85 2 -135 -1c-1 -21 -10 -52 -22 -73c59 6 113 6 135 6c16 0 26 -3 35 -16c26 -33 35 -192 42 -606h-336c-32 67 -69 125 -106 172c-12 -13 -39 -38 -55 -50c73 -82 136 -213 175 -344l65 21c-13 44 -29 88 -47 130h369z" />
</svg>
