<?xml version="1.0" standalone="no"?>
<!DOCTYPE svg PUBLIC "-//W3C//DTD SVG 1.1//EN" "http://www.w3.org/Graphics/SVG/1.1/DTD/svg11.dtd" >
<svg xmlns="http://www.w3.org/2000/svg" xmlns:xlink="http://www.w3.org/1999/xlink" version="1.1" viewBox="-10 0 1010 1000">
   <path fill="currentColor"
d="M302 317h-105c-16 91 -36 179 -53 251c31 22 62 46 94 72c32 -89 53 -196 64 -323zM332 246l42 6c-11 182 -37 324 -81 436c47 41 88 82 114 118l-47 57c-22 -32 -57 -69 -97 -107c-45 88 -104 153 -176 199c-10 -18 -30 -44 -44 -59c68 -38 124 -101 167 -189
c-47 -42 -98 -82 -144 -115c21 -72 44 -172 63 -275h-76v-69h89c11 -72 21 -146 27 -210l69 4c-7 64 -17 135 -29 206h110zM401 581v-63h544v63h-378c-7 32 -16 66 -25 97h340s-1 21 -2 31c-13 136 -27 195 -54 220c-22 19 -44 24 -82 26c-34 1 -106 0 -180 -4
c-2 -20 -12 -46 -26 -65c76 7 156 8 184 8c23 0 36 -1 47 -8c17 -14 28 -56 38 -145h-284v1h-72c15 -45 32 -106 46 -161h-96zM535 379h280c-43 -47 -82 -104 -109 -161h-53c-32 62 -71 115 -118 161zM942 218h-168c47 82 123 159 197 199c-16 13 -38 39 -50 55
c-35 -22 -70 -54 -103 -90v58h-301v-44c-32 29 -67 55 -106 77c-7 -16 -25 -49 -38 -64c85 -46 152 -109 200 -191h-170v-66h204c14 -33 26 -70 35 -108l71 13c-9 33 -19 65 -31 95h260v66z" />
</svg>
