<?xml version="1.0" standalone="no"?>
<!DOCTYPE svg PUBLIC "-//W3C//DTD SVG 1.1//EN" "http://www.w3.org/Graphics/SVG/1.1/DTD/svg11.dtd" >
<svg xmlns="http://www.w3.org/2000/svg" xmlns:xlink="http://www.w3.org/1999/xlink" version="1.1" viewBox="-10 0 1010 1000">
   <path fill="currentColor"
d="M287 317h-94c-18 96 -38 189 -60 266c29 21 60 44 89 68c33 -89 54 -201 65 -334zM316 247l43 6c-10 189 -36 335 -81 447c49 43 92 87 119 124l-51 54c-23 -33 -58 -71 -99 -111c-43 83 -100 144 -169 188c-11 -18 -30 -44 -45 -59c65 -37 119 -96 161 -179
c-44 -39 -91 -75 -134 -106l-3 -1v-1l1 -1c25 -75 48 -180 67 -291h-81v-68h91c10 -72 19 -143 25 -207l72 7c-8 63 -17 131 -29 200h100zM825 424h-257v93h257v-93zM568 673h257v-93h-257v93zM953 252h-355c-12 37 -26 74 -41 108h339v512c0 39 -7 59 -34 71
c-26 12 -67 13 -132 13c-2 -21 -12 -49 -21 -69c46 2 87 2 98 1c14 -1 18 -4 18 -16v-136h-257v220h-70v-484c-29 48 -63 90 -100 126c-10 -15 -35 -46 -52 -59c78 -71 134 -170 176 -287h-144v-70h166c12 -44 23 -90 32 -138l73 12c-9 43 -18 85 -29 126h333v70z" />
</svg>
