<?xml version="1.0" standalone="no"?>
<!DOCTYPE svg PUBLIC "-//W3C//DTD SVG 1.1//EN" "http://www.w3.org/Graphics/SVG/1.1/DTD/svg11.dtd" >
<svg xmlns="http://www.w3.org/2000/svg" xmlns:xlink="http://www.w3.org/1999/xlink" version="1.1" viewBox="-10 0 1010 1000">
   <path fill="currentColor"
d="M306 317h-115c-16 87 -34 173 -51 244c34 25 67 54 100 83c33 -89 55 -198 66 -327zM335 246l44 6c-11 187 -39 331 -84 444c39 38 71 76 93 109l-47 60c-18 -30 -46 -64 -78 -100c-46 85 -104 147 -175 192c-10 -19 -30 -46 -46 -61c69 -37 125 -99 168 -184
c-46 -44 -96 -88 -143 -124c20 -70 41 -168 60 -271h-80v-69h92c10 -71 20 -142 25 -204l65 4c-6 62 -16 131 -28 200h122zM844 752l-50 30c-25 -59 -72 -151 -119 -234c-21 87 -62 175 -141 253c-10 -13 -31 -33 -46 -42c105 -102 137 -224 146 -337h-125v-62h129v-37v-133
h59v134v36h137v62h-140c-1 15 -3 29 -5 44c59 95 124 214 155 286zM485 831h373v-675h-373v675zM418 88h510v862h-70v-52h-373v60h-67v-870z" />
</svg>
