<?xml version="1.0" standalone="no"?>
<!DOCTYPE svg PUBLIC "-//W3C//DTD SVG 1.1//EN" "http://www.w3.org/Graphics/SVG/1.1/DTD/svg11.dtd" >
<svg xmlns="http://www.w3.org/2000/svg" xmlns:xlink="http://www.w3.org/1999/xlink" version="1.1" viewBox="-10 0 1010 1000">
   <path fill="currentColor"
d="M728 195h-167c-18 37 -37 74 -57 107h172c18 -30 38 -70 52 -107zM296 317h-104c-18 96 -37 190 -60 267c31 23 63 48 93 74c37 -89 60 -203 71 -341zM946 369h-434v155c0 130 -14 314 -96 439c-13 -12 -43 -31 -60 -39c78 -118 87 -281 87 -400v-134
c-13 17 -26 33 -40 47c-10 -10 -30 -29 -47 -42c-15 127 -40 229 -76 312c44 42 81 82 105 116l-53 52c-19 -29 -49 -65 -84 -100c-45 79 -102 137 -172 181c-10 -19 -29 -46 -44 -60c66 -36 121 -92 164 -172c-45 -41 -93 -81 -139 -114c26 -76 49 -183 68 -293h-81v-68h91
c10 -72 19 -143 25 -207l72 7c-8 62 -17 131 -29 200h109l13 -2l43 6c-2 42 -6 83 -10 121c79 -83 146 -206 185 -332l72 17c-8 25 -17 48 -27 72h174l12 -3l48 33c-19 45 -46 98 -73 141h197v67zM697 878h145c36 0 42 -19 46 -121c16 12 43 23 63 28
c-8 124 -29 157 -103 157h-158c-85 0 -110 -21 -110 -103v-390h311v27c0 153 -2 212 -16 231c-12 16 -26 23 -50 24c-20 2 -59 2 -97 0c-2 -18 -8 -43 -17 -59c37 3 69 3 82 3c11 0 19 -1 24 -8c7 -10 8 -49 8 -153h-176v325c0 32 7 39 48 39z" />
</svg>
