<?xml version="1.0" standalone="no"?>
<!DOCTYPE svg PUBLIC "-//W3C//DTD SVG 1.1//EN" "http://www.w3.org/Graphics/SVG/1.1/DTD/svg11.dtd" >
<svg xmlns="http://www.w3.org/2000/svg" xmlns:xlink="http://www.w3.org/1999/xlink" version="1.1" viewBox="-10 0 1010 1000">
   <path fill="currentColor"
d="M287 317h-95c-17 96 -38 190 -60 267c29 21 60 46 88 72c34 -91 56 -203 67 -339zM367 810l-52 51c-17 -26 -42 -56 -70 -87c-44 79 -100 138 -167 180c-11 -17 -30 -44 -45 -58c64 -37 117 -94 159 -175c-43 -39 -89 -78 -133 -111l-2 -1v-1c26 -75 49 -180 68 -291h-81
v-68h91c10 -72 19 -143 25 -207l72 7c-8 63 -17 131 -29 200h100l13 -2l42 6c-10 192 -37 340 -83 453c38 37 70 73 92 104zM484 469v99h323v-99h-323zM484 309v100h323v-100h-323zM484 151v99h323v-99h-323zM774 882h85c26 0 31 -18 34 -142c15 13 45 24 65 29
c-7 143 -26 178 -91 178h-104c-74 0 -93 -22 -93 -95v-221h-91c-17 155 -67 268 -236 331c-7 -18 -28 -46 -44 -58c151 -50 192 -147 207 -273h-93v-543h467v543h-138v221c0 25 5 30 32 30z" />
</svg>
