<?xml version="1.0" standalone="no"?>
<!DOCTYPE svg PUBLIC "-//W3C//DTD SVG 1.1//EN" "http://www.w3.org/Graphics/SVG/1.1/DTD/svg11.dtd" >
<svg xmlns="http://www.w3.org/2000/svg" xmlns:xlink="http://www.w3.org/1999/xlink" version="1.1" viewBox="-10 0 1010 1000">
   <path fill="currentColor"
d="M297 318h-93c-19 95 -41 189 -60 265c27 22 57 47 84 71c35 -90 58 -202 69 -336zM326 247l43 6c-11 191 -39 340 -86 453c40 39 74 78 96 109l-47 57c-19 -29 -48 -63 -80 -98c-43 80 -100 139 -166 183c-11 -18 -30 -45 -45 -60c64 -37 117 -96 159 -177
c-45 -42 -92 -84 -136 -119c24 -74 49 -177 71 -283h-81v-69h94c12 -71 23 -142 29 -205l71 5c-8 62 -19 131 -32 200h98zM508 390v116h306v-116h-306zM814 221h-306v105h306v-105zM885 596l49 48c-45 38 -104 77 -154 106c49 57 110 101 180 129c-16 13 -39 41 -49 60
c-147 -65 -250 -199 -305 -368h-98v281l156 -50c0 21 5 49 9 64c-188 66 -220 78 -238 92v1v-1l-1 1v-3c-8 -16 -26 -41 -37 -53c15 -12 40 -38 40 -84v-664h199c-12 -32 -27 -70 -43 -99l66 -18c20 36 41 82 53 117h175v416h-212c18 46 39 90 67 129
c49 -30 107 -71 143 -104z" />
</svg>
