<?xml version="1.0" standalone="no"?>
<!DOCTYPE svg PUBLIC "-//W3C//DTD SVG 1.1//EN" "http://www.w3.org/Graphics/SVG/1.1/DTD/svg11.dtd" >
<svg xmlns="http://www.w3.org/2000/svg" xmlns:xlink="http://www.w3.org/1999/xlink" version="1.1" viewBox="-10 0 1010 1000">
   <path fill="currentColor"
d="M810 296v-156h-184v156h184zM875 82v272h-311v-272h311zM306 316h-96c-18 88 -38 173 -60 245c31 21 62 45 92 69c33 -85 54 -189 64 -314zM399 782l-48 60c-20 -28 -49 -61 -83 -94c-49 88 -112 151 -191 196c-11 -19 -31 -46 -46 -61c75 -37 136 -98 181 -185
c-45 -39 -94 -79 -140 -110l-2 -1c26 -70 51 -169 70 -271h-93v-69h105c12 -71 22 -140 29 -204l75 7c-9 62 -20 129 -32 197h100l12 -2l43 7c-10 179 -36 318 -79 426c41 38 76 74 99 104zM815 505h-136c-4 46 -8 89 -16 129h152v-129zM953 634v66h-257
c43 100 128 168 256 193c-15 15 -34 42 -43 62c-134 -36 -220 -114 -268 -230c-39 107 -112 184 -261 233c-8 -18 -27 -45 -42 -59c136 -41 203 -106 238 -199h-199v-66h216c8 -39 13 -82 16 -129h-182v-361h69v295h389v195h68z" />
</svg>
