<?xml version="1.0" standalone="no"?>
<!DOCTYPE svg PUBLIC "-//W3C//DTD SVG 1.1//EN" "http://www.w3.org/Graphics/SVG/1.1/DTD/svg11.dtd" >
<svg xmlns="http://www.w3.org/2000/svg" xmlns:xlink="http://www.w3.org/1999/xlink" version="1.1" viewBox="-10 0 1010 1000">
   <path fill="currentColor"
d="M300 317h-104c-18 96 -38 192 -56 269c30 22 61 45 92 71c35 -90 57 -203 68 -340zM328 247l41 6c-10 191 -37 337 -84 450c39 35 72 70 95 101l-50 50c-18 -26 -45 -55 -76 -87c-44 83 -102 143 -172 186c-9 -17 -28 -43 -42 -57c66 -36 121 -94 163 -177
c-45 -39 -94 -78 -140 -109c23 -77 46 -184 67 -293h-75v-68h87c11 -71 20 -143 26 -206l67 3c-7 63 -17 133 -28 203h109zM895 529l50 46c-44 39 -94 80 -137 110c40 84 91 153 159 193c-16 14 -37 39 -48 57c-119 -83 -190 -248 -228 -440h-61v357l128 -52
c1 18 5 45 10 60c-160 71 -185 85 -201 99c-7 -15 -25 -41 -36 -51c14 -12 34 -37 34 -83v-330h-64c-2 149 -17 337 -90 466c-13 -11 -43 -31 -60 -39c74 -133 81 -320 81 -464v-361h504v68h-435v264h448v66h-202c10 48 23 95 40 138c38 -32 81 -72 108 -104zM911 326h-364
v-65h364v65z" />
</svg>
