<?xml version="1.0" standalone="no"?>
<!DOCTYPE svg PUBLIC "-//W3C//DTD SVG 1.1//EN" "http://www.w3.org/Graphics/SVG/1.1/DTD/svg11.dtd" >
<svg xmlns="http://www.w3.org/2000/svg" xmlns:xlink="http://www.w3.org/1999/xlink" version="1.1" viewBox="-10 0 1010 1000">
   <path fill="currentColor"
d="M305 317h-106c-17 96 -38 190 -56 267c30 23 61 48 92 74c36 -90 59 -204 70 -341zM389 819l-51 51c-20 -28 -48 -61 -81 -96c-45 81 -104 140 -175 182c-9 -19 -29 -45 -44 -60c67 -35 123 -92 166 -173c-44 -41 -92 -81 -137 -113c23 -76 46 -182 66 -293h-78v-68h90
c10 -72 20 -142 26 -205l67 4c-7 63 -16 131 -28 201h112l13 -2l42 6c-10 194 -39 342 -87 455c41 39 76 77 99 111zM513 540h119c9 -57 14 -118 17 -183h-136v183zM753 189h-174c-21 36 -45 73 -73 108h181c22 -30 46 -70 66 -108zM847 540v-183h-129c-3 65 -8 125 -17 183
h146zM757 878h104c28 0 33 -16 36 -122c15 12 42 22 62 28c-7 125 -26 156 -91 156h-120c-77 0 -96 -20 -96 -91v-131c-45 102 -123 185 -259 240c-8 -17 -28 -44 -44 -56c166 -63 237 -168 271 -301h-174v-237l-14 13c-11 -16 -34 -41 -50 -50c94 -83 154 -194 187 -282
l72 10c-9 24 -18 47 -29 71h179l14 -3l54 18c-29 53 -60 110 -90 156h149v304h-197v248c0 25 5 29 36 29z" />
</svg>
