<?xml version="1.0" standalone="no"?>
<!DOCTYPE svg PUBLIC "-//W3C//DTD SVG 1.1//EN" "http://www.w3.org/Graphics/SVG/1.1/DTD/svg11.dtd" >
<svg xmlns="http://www.w3.org/2000/svg" xmlns:xlink="http://www.w3.org/1999/xlink" version="1.1" viewBox="-10 0 1010 1000">
   <path fill="currentColor"
d="M308 317h-106c-17 95 -38 188 -59 264c32 23 65 48 97 72c35 -89 57 -201 68 -336zM337 247l43 6c-11 189 -38 334 -84 447c46 38 84 78 109 111l-49 55c-21 -31 -54 -65 -91 -100c-45 84 -104 145 -176 189c-11 -17 -30 -44 -45 -59c68 -36 124 -95 167 -178
c-46 -38 -95 -77 -142 -107l-3 -1v-1l1 -1c26 -76 49 -180 68 -291h-83v-68h93c10 -72 19 -143 25 -207l71 7c-8 63 -17 131 -28 200h112zM820 663h-296v185h296v-185zM455 957v-359h438v356h-73v-41h-296v44h-69zM781 314h-147c-11 55 -22 107 -30 150h177v-150zM851 464
h106v63h-564v-63h137c11 -43 21 -96 31 -150h-110v-62h122c6 -35 12 -71 17 -104h-172v-63h511v63h-265c-6 33 -12 69 -19 104h206v212z" />
</svg>
