<?xml version="1.0" standalone="no"?>
<!DOCTYPE svg PUBLIC "-//W3C//DTD SVG 1.1//EN" "http://www.w3.org/Graphics/SVG/1.1/DTD/svg11.dtd" >
<svg xmlns="http://www.w3.org/2000/svg" xmlns:xlink="http://www.w3.org/1999/xlink" version="1.1" viewBox="-10 0 1010 1000">
   <path fill="currentColor"
d="M803 424l-58 25c-16 -55 -55 -149 -90 -219l53 -20c38 68 78 159 95 214zM275 321h-94c-15 90 -32 178 -49 250c27 24 55 52 83 80c30 -89 50 -199 60 -330zM473 48l62 16c-15 66 -33 133 -54 197v695h-64v-530c-19 40 -38 76 -58 109c-7 -13 -26 -43 -40 -58
c-13 86 -31 161 -56 224c34 35 63 67 84 92l-48 52c-17 -22 -39 -49 -64 -77c-41 83 -95 144 -160 188c-9 -16 -27 -40 -42 -53c64 -38 116 -100 155 -186c-40 -43 -84 -87 -122 -125c17 -70 37 -168 54 -271h-74v-68h83c10 -71 18 -140 22 -202l64 3c-6 61 -14 129 -25 199
h100l12 -2l38 6c-4 78 -10 147 -20 211c68 -107 122 -263 153 -420zM630 651l119 -64c4 19 11 46 17 59c-162 93 -187 113 -204 132c-6 -17 -20 -45 -32 -59c15 -10 36 -33 36 -76v-542h64v550zM963 900l-62 34c-18 -50 -53 -126 -90 -195c-45 91 -111 163 -209 221
c-6 -14 -30 -44 -44 -59c256 -133 280 -396 279 -823h67c-1 246 -11 437 -61 585c47 77 98 176 120 237z" />
</svg>
