<?xml version="1.0" standalone="no"?>
<!DOCTYPE svg PUBLIC "-//W3C//DTD SVG 1.1//EN" "http://www.w3.org/Graphics/SVG/1.1/DTD/svg11.dtd" >
<svg xmlns="http://www.w3.org/2000/svg" xmlns:xlink="http://www.w3.org/1999/xlink" version="1.1" viewBox="-10 0 1010 1000">
   <path fill="currentColor"
d="M821 293v-138h-311v138h311zM894 90v268h-453v-268h453zM321 317h-120c-18 87 -38 172 -56 240c35 24 70 50 105 79c35 -88 59 -194 71 -319zM413 795l-55 59c-20 -30 -50 -63 -86 -98c-48 85 -109 148 -182 194c-10 -19 -30 -45 -46 -59c69 -38 128 -100 173 -185
c-48 -43 -100 -84 -149 -118c23 -70 46 -169 67 -271h-88v-69h101c11 -70 22 -137 28 -198l66 4c-7 60 -17 126 -29 194h126l12 -3l43 8c-12 179 -41 320 -87 431c44 39 81 78 106 111zM959 690h-251c45 101 133 173 256 205c-16 15 -38 43 -48 63
c-121 -39 -208 -115 -260 -224c-40 104 -114 176 -265 224c-8 -19 -27 -48 -43 -61c148 -42 215 -108 247 -207h-213v-67h228c6 -33 9 -69 12 -108h-207v-67h507v67h-228c-2 39 -6 75 -11 108h276v67z" />
</svg>
