<?xml version="1.0" standalone="no"?>
<!DOCTYPE svg PUBLIC "-//W3C//DTD SVG 1.1//EN" "http://www.w3.org/Graphics/SVG/1.1/DTD/svg11.dtd" >
<svg xmlns="http://www.w3.org/2000/svg" xmlns:xlink="http://www.w3.org/1999/xlink" version="1.1" viewBox="-10 0 1010 1000">
   <path fill="currentColor"
d="M279 316h-93c-17 96 -37 189 -56 267c28 21 58 46 86 70c32 -90 53 -202 63 -337zM307 246l40 7c-9 191 -35 336 -79 450c34 33 62 65 81 93l-44 59c-17 -25 -39 -54 -67 -84c-41 79 -93 138 -156 181c-10 -17 -29 -43 -45 -56c61 -38 111 -95 151 -176
c-43 -40 -88 -79 -131 -111c22 -75 45 -182 64 -293h-77v-68h88c11 -71 20 -143 25 -206l69 3c-7 63 -17 133 -29 203h97zM549 192l-56 42c-23 -41 -72 -104 -116 -148l53 -37c44 43 95 103 119 143zM380 955v-702h67v702h-67zM840 681l-46 34c-24 -44 -65 -106 -109 -164
v323h-60v-334c-33 87 -77 167 -121 217c-10 -14 -29 -35 -43 -45c60 -58 118 -174 152 -284h-127v-64h139v-149h60v149h134v64h-134v38c61 71 125 158 155 215zM919 88v772c0 41 -8 63 -33 76s-65 14 -125 14c-2 -19 -11 -53 -22 -73c43 1 84 1 96 0c12 0 16 -4 16 -18v-704
h-285v-67h353z" />
</svg>
