<?xml version="1.0" standalone="no"?>
<!DOCTYPE svg PUBLIC "-//W3C//DTD SVG 1.1//EN" "http://www.w3.org/Graphics/SVG/1.1/DTD/svg11.dtd" >
<svg xmlns="http://www.w3.org/2000/svg" xmlns:xlink="http://www.w3.org/1999/xlink" version="1.1" viewBox="-10 0 1010 1000">
   <path fill="currentColor"
d="M286 319h-100c-16 91 -33 180 -50 251c29 25 58 51 88 78c31 -89 52 -200 62 -329zM314 251l40 7c-10 183 -36 327 -79 440c36 36 66 69 87 98l-48 50c-17 -24 -41 -51 -68 -82c-42 84 -96 147 -162 192c-10 -16 -28 -41 -44 -55c64 -39 117 -102 157 -188
c-43 -42 -90 -86 -132 -121c19 -71 40 -171 58 -273h-74v-66h84c11 -74 20 -147 25 -211l65 3c-6 64 -16 135 -27 208h106zM803 657v-124h-105v124h105zM526 657h104v-124h-104v124zM526 345v122h104v-122h-104zM803 345h-105v122h105v-122zM954 533h-87v124h68v65h-237v138
h215v66h-496v-66h213v-138h-239v-65h73v-124h-94v-66h94v-122h-70v-66h236v-118c-67 6 -135 11 -198 13c-2 -18 -11 -43 -19 -60c157 -8 346 -26 457 -52l35 62c-58 13 -130 23 -207 31v124h239v66h-70v122h87v66z" />
</svg>
