<?xml version="1.0" standalone="no"?>
<!DOCTYPE svg PUBLIC "-//W3C//DTD SVG 1.1//EN" "http://www.w3.org/Graphics/SVG/1.1/DTD/svg11.dtd" >
<svg xmlns="http://www.w3.org/2000/svg" xmlns:xlink="http://www.w3.org/1999/xlink" version="1.1" viewBox="-10 0 1010 1000">
   <path fill="currentColor"
d="M926 155v66h-508v-66h225c-6 -33 -16 -73 -27 -104l71 -10c12 36 25 80 32 114h207zM303 317h-104c-17 90 -37 177 -55 249c30 22 62 48 92 73c34 -87 55 -195 67 -322zM332 246l41 6c-11 181 -37 323 -82 435c49 43 93 85 120 121l-45 56c-26 -33 -62 -72 -104 -112
c-47 90 -108 156 -182 202c-10 -18 -29 -43 -44 -58c71 -39 129 -103 173 -193c-46 -40 -94 -80 -138 -114l-2 -1v-1v-1c22 -69 44 -168 64 -269h-89v-69h102c12 -72 22 -142 28 -204l66 3c-7 62 -17 131 -29 201h108zM827 655h-309v187h309v-187zM446 955v-363h455v357h-74
v-40h-309v46h-72zM791 425h167v67h-562v-67h134c-6 -43 -27 -115 -50 -169l63 -15c23 54 48 123 54 166l-63 18h186c27 -54 59 -134 76 -190l73 20c-24 56 -52 120 -78 170z" />
</svg>
