<?xml version="1.0" standalone="no"?>
<!DOCTYPE svg PUBLIC "-//W3C//DTD SVG 1.1//EN" "http://www.w3.org/Graphics/SVG/1.1/DTD/svg11.dtd" >
<svg xmlns="http://www.w3.org/2000/svg" xmlns:xlink="http://www.w3.org/1999/xlink" version="1.1" viewBox="-10 0 1010 1000">
   <path fill="currentColor"
d="M796 742l-39 50c-27 -30 -77 -79 -123 -121v238h-64v-243c-45 78 -102 149 -155 193c-10 -17 -32 -40 -46 -52c65 -45 137 -134 183 -221h-166v-62h184v-222h64v222h178v62h-178v11l1 -1c55 45 125 109 161 146zM425 366l50 -14c23 44 45 103 52 139l-53 18
c-8 -37 -28 -98 -49 -143zM733 342l61 20c-26 50 -54 111 -77 148l-44 -16c21 -41 47 -108 60 -152zM293 317h-101c-18 97 -38 191 -61 269c30 24 60 50 89 77c38 -91 61 -206 73 -346zM936 184v39c-10 489 -19 645 -51 691c-18 27 -37 36 -66 40c-26 3 -69 3 -114 0
c-1 -21 -7 -50 -19 -70c45 4 84 4 103 4c14 0 23 -3 33 -17c23 -32 34 -184 43 -619h-369c-27 45 -56 86 -87 121c-13 -13 -35 -33 -52 -43c-14 160 -41 286 -83 385c41 44 76 86 99 121l-54 50c-19 -30 -46 -66 -78 -103c-43 75 -99 131 -164 172c-10 -18 -29 -44 -44 -59
c63 -35 115 -90 158 -167c-43 -42 -89 -84 -133 -119l-1 -1l2 -2c26 -76 49 -181 68 -290h-83v-68h95c10 -72 19 -143 25 -207l70 7c-8 63 -18 131 -30 200h104l13 -2l41 6c-1 27 -3 51 -5 76c68 -73 125 -186 154 -286l70 21c-14 41 -31 81 -49 120h404z" />
</svg>
