<?xml version="1.0" standalone="no"?>
<!DOCTYPE svg PUBLIC "-//W3C//DTD SVG 1.1//EN" "http://www.w3.org/Graphics/SVG/1.1/DTD/svg11.dtd" >
<svg xmlns="http://www.w3.org/2000/svg" xmlns:xlink="http://www.w3.org/1999/xlink" version="1.1" viewBox="-10 0 1010 1000">
   <path fill="currentColor"
d="M884 65l34 62c-131 40 -349 62 -523 72c-2 -18 -10 -44 -18 -61c173 -12 387 -36 507 -73zM849 191l65 19c-32 75 -76 163 -113 220c-13 -9 -43 -23 -60 -30c40 -56 81 -137 108 -209zM703 378l-64 21c-8 -47 -32 -118 -53 -173l61 -18c23 54 47 124 56 170zM542 409
l-60 26c-14 -47 -46 -122 -74 -178l57 -22c30 56 63 127 77 174zM295 317h-103c-17 95 -37 187 -59 264c32 21 66 44 98 69c32 -90 53 -201 64 -333zM324 247l42 6c-10 186 -36 331 -79 443c33 26 60 54 80 77l-48 55c-16 -20 -37 -42 -61 -66c-44 87 -101 148 -172 193
c-11 -17 -30 -44 -46 -58c67 -38 122 -97 163 -183c-45 -37 -96 -73 -143 -103l-3 -1v-1l1 -1c25 -75 48 -180 67 -291h-81v-68h91c10 -72 19 -143 25 -207l72 7c-8 63 -17 131 -29 200h108zM949 582h-241c63 99 164 199 255 250c-17 14 -42 41 -55 61
c-80 -54 -167 -149 -231 -248v309h-72v-304c-59 103 -138 199 -215 255c-12 -17 -36 -44 -54 -57c86 -56 178 -161 235 -266h-198v-68h232v-95h72v95h272v68z" />
</svg>
