<?xml version="1.0" standalone="no"?>
<!DOCTYPE svg PUBLIC "-//W3C//DTD SVG 1.1//EN" "http://www.w3.org/Graphics/SVG/1.1/DTD/svg11.dtd" >
<svg xmlns="http://www.w3.org/2000/svg" xmlns:xlink="http://www.w3.org/1999/xlink" version="1.1" viewBox="-10 0 1010 1000">
   <path fill="currentColor"
d="M797 186l-66 30c-13 -38 -43 -98 -67 -142l64 -25c26 44 56 100 69 137zM306 317h-97c-18 88 -37 174 -60 245c32 22 63 45 93 69c33 -86 53 -191 64 -314zM335 246l44 6c-11 177 -36 317 -78 427c45 39 83 77 107 110l-47 60c-22 -31 -54 -65 -91 -100
c-47 92 -109 160 -186 208c-10 -19 -30 -47 -47 -61c73 -41 132 -106 177 -197c-47 -40 -97 -78 -144 -110c26 -71 51 -169 70 -272h-79v-69h91c12 -71 22 -141 29 -204l73 7c-9 62 -19 129 -31 197h100zM546 680v136h150v-136h-150zM696 417v-126h-150v126h150zM696 613
v-128h-150v128h150zM956 816v69h-410v73h-69v-572c-19 29 -38 56 -59 80c-8 -17 -25 -49 -37 -66c76 -92 143 -238 176 -351l72 20c-16 50 -38 102 -61 154h370v68h-173v126h154v68h-154v128h155v67h-155v136h191z" />
</svg>
