<?xml version="1.0" standalone="no"?>
<!DOCTYPE svg PUBLIC "-//W3C//DTD SVG 1.1//EN" "http://www.w3.org/Graphics/SVG/1.1/DTD/svg11.dtd" >
<svg xmlns="http://www.w3.org/2000/svg" xmlns:xlink="http://www.w3.org/1999/xlink" version="1.1" viewBox="-10 0 1010 1000">
   <path fill="currentColor"
d="M296 317h-96c-17 96 -38 189 -59 267c29 21 60 46 89 71c33 -90 55 -203 66 -338zM377 807l-52 52c-18 -26 -43 -56 -71 -87c-45 81 -100 140 -168 183c-10 -18 -29 -44 -45 -59c65 -36 118 -94 160 -175c-44 -39 -92 -79 -136 -111c27 -75 49 -182 68 -293h-81v-68h92
c10 -71 19 -143 25 -207l71 7c-8 63 -17 132 -29 200h101l12 -2l43 6c-10 191 -37 339 -83 452c38 36 71 71 93 102zM797 883h75c22 0 27 -17 30 -127c14 12 43 22 62 27c-7 132 -26 165 -84 165h-92c-71 0 -87 -22 -87 -95v-281h-85c-16 183 -63 315 -250 387
c-8 -17 -27 -44 -43 -57c171 -60 208 -175 222 -330h-118v-434c67 -25 144 -60 187 -93l56 50c-49 30 -114 57 -175 79v134h147v62h-147v137h349v-135h-150v-62h150v-130h-157v-65h227v457h-144v281c0 26 4 30 27 30z" />
</svg>
