<?xml version="1.0" standalone="no"?>
<!DOCTYPE svg PUBLIC "-//W3C//DTD SVG 1.1//EN" "http://www.w3.org/Graphics/SVG/1.1/DTD/svg11.dtd" >
<svg xmlns="http://www.w3.org/2000/svg" xmlns:xlink="http://www.w3.org/1999/xlink" version="1.1" viewBox="-10 0 1010 1000">
   <path fill="currentColor"
d="M290 317h-95c-17 95 -37 189 -58 266c29 21 60 44 88 69c33 -90 54 -201 65 -335zM352 782l-48 53c-14 -20 -33 -43 -55 -67c-43 82 -98 143 -166 186c-10 -17 -28 -44 -43 -58c64 -37 117 -96 158 -179c-42 -38 -88 -76 -131 -107l-3 -1v-1l1 -1c25 -75 47 -180 65 -290
h-79v-68h90c10 -72 19 -143 25 -207l68 7c-8 63 -17 131 -28 200h100l12 -2l41 6c-10 189 -36 335 -80 448c30 28 55 56 73 81zM506 427h119v-102h-104v-56h104v-84h59v84h107v56h-107v102h126v56h-304v-56zM724 621h-147v120h147v-120zM780 797h-203v45h-55v-277h258v232z
M910 88v776c0 41 -10 62 -34 74c-26 12 -67 13 -136 13c-3 -19 -13 -49 -23 -68c50 2 96 2 109 1c14 -1 20 -5 20 -20v-709h-376v303c0 158 -17 366 -138 500c-10 -12 -36 -34 -50 -41c113 -128 124 -312 124 -459v-370h504z" />
</svg>
