<?xml version="1.0" standalone="no"?>
<!DOCTYPE svg PUBLIC "-//W3C//DTD SVG 1.1//EN" "http://www.w3.org/Graphics/SVG/1.1/DTD/svg11.dtd" >
<svg xmlns="http://www.w3.org/2000/svg" xmlns:xlink="http://www.w3.org/1999/xlink" version="1.1" viewBox="-10 0 1010 1000">
   <path fill="currentColor"
d="M293 317h-94c-17 96 -37 190 -58 267c28 22 58 46 87 71c33 -90 54 -203 65 -338zM320 247l41 6c-10 190 -36 338 -81 450c46 43 86 86 110 122l-50 53c-20 -32 -53 -69 -89 -107c-43 81 -98 141 -165 184c-10 -18 -28 -44 -43 -59c63 -36 116 -95 157 -175
c-44 -40 -90 -79 -133 -111c26 -75 48 -182 67 -293h-79v-68h89c11 -72 19 -143 25 -207l69 7c-8 63 -17 131 -28 200h98zM760 662h83v-136h-83v136zM619 662h82v-136h-82v136zM482 662h79v-136h-79v136zM907 463v410c0 30 -4 48 -24 60c-17 11 -43 13 -81 12
c-2 -18 -12 -44 -21 -62h53c7 0 9 -2 9 -11v-148h-83v215h-59v-215h-82v215h-58v-215h-79v232h-64v-493h489zM517 315h298c-54 -50 -106 -103 -157 -165c-42 59 -90 116 -141 165zM657 37l56 24c-5 12 -12 24 -20 34c84 101 181 183 281 252c-18 15 -41 39 -53 58
c-29 -23 -58 -48 -86 -72v44h-337v-44c-30 28 -63 54 -93 76c-11 -17 -31 -39 -50 -54c113 -72 234 -197 302 -318z" />
</svg>
