<?xml version="1.0" standalone="no"?>
<!DOCTYPE svg PUBLIC "-//W3C//DTD SVG 1.1//EN" "http://www.w3.org/Graphics/SVG/1.1/DTD/svg11.dtd" >
<svg xmlns="http://www.w3.org/2000/svg" xmlns:xlink="http://www.w3.org/1999/xlink" version="1.1" viewBox="-10 0 1010 1000">
   <path fill="currentColor"
d="M812 213v-75h-265v75h265zM812 341v-75h-265v75h265zM887 82v316h-413v-316h413zM300 317h-106c-17 96 -38 189 -59 266c32 23 64 49 97 76c35 -92 57 -205 68 -342zM329 247l42 6c-10 193 -37 341 -84 455c46 41 85 82 109 116l-52 53c-20 -30 -52 -65 -88 -102
c-43 79 -98 138 -166 180c-10 -18 -29 -44 -45 -59c64 -35 117 -92 157 -172c-45 -41 -94 -80 -140 -114l-3 -1h1c25 -76 48 -181 67 -292h-81v-68h92c10 -72 19 -143 25 -207l71 7c-8 63 -17 131 -29 200h111zM958 517h-379c-9 21 -20 42 -31 62h383s-1 20 -2 30
c-13 214 -25 293 -52 321c-16 17 -33 23 -58 25c-22 2 -60 2 -98 0c-2 -18 -9 -43 -19 -59c37 3 72 3 85 3c15 1 24 0 31 -10c16 -16 29 -81 40 -250h-63c-37 131 -102 243 -186 319c-11 -10 -37 -28 -53 -36c82 -67 140 -168 174 -283h-76c-47 114 -121 213 -206 281
c-10 -10 -35 -29 -50 -38c82 -59 149 -146 192 -243h-78c-27 40 -58 77 -89 105c-12 -10 -38 -28 -54 -36c57 -49 107 -118 140 -191h-106v-60h555v60z" />
</svg>
