<?xml version="1.0" standalone="no"?>
<!DOCTYPE svg PUBLIC "-//W3C//DTD SVG 1.1//EN" "http://www.w3.org/Graphics/SVG/1.1/DTD/svg11.dtd" >
<svg xmlns="http://www.w3.org/2000/svg" xmlns:xlink="http://www.w3.org/1999/xlink" version="1.1" viewBox="-10 0 1010 1000">
   <path fill="currentColor"
d="M675 656h-281c-21 29 -45 58 -66 82c76 16 151 33 223 50c55 -34 95 -77 124 -132zM410 506l73 18c-12 23 -28 47 -45 71h503v61h-190c-27 63 -65 113 -117 153c113 28 214 58 291 85l-66 55c-77 -29 -181 -62 -299 -93c-113 57 -268 84 -473 97c-6 -21 -15 -45 -26 -62
c167 -7 300 -24 400 -61c-80 -19 -166 -38 -253 -56c31 -32 67 -74 102 -118h-254v-61h298c22 -30 40 -61 56 -89zM802 211h-171c22 51 52 97 91 137c36 -40 63 -87 80 -137zM950 211h-76c-22 68 -57 129 -105 181c53 43 119 77 193 96c-15 14 -35 40 -43 58
c-75 -23 -142 -62 -196 -110c-56 46 -124 84 -203 110c-7 -15 -24 -40 -36 -53c77 -23 142 -59 193 -102c-35 -38 -63 -82 -87 -131c-18 24 -38 46 -58 65c-4 -5 -12 -12 -20 -18c-19 43 -41 86 -64 116l-52 -21c16 -21 33 -52 46 -82h-85v168c0 30 -6 45 -30 54
c-22 9 -58 9 -113 9c-3 -16 -11 -36 -19 -52c41 2 76 2 87 1s14 -3 14 -13v-149c-55 75 -136 141 -214 186c-7 -12 -29 -37 -42 -47c75 -38 148 -92 198 -157h-177v-54h251c-50 -24 -112 -47 -164 -63l32 -37c35 9 74 22 110 37c35 -19 69 -43 98 -68h-285v-53h344l13 -4
l41 31c-41 43 -98 86 -152 119c23 10 41 19 57 28l-8 10h72l10 -3l21 6c60 -61 110 -150 135 -223l66 16c-12 30 -27 59 -42 90h290v59z" />
</svg>
