<?xml version="1.0" standalone="no"?>
<!DOCTYPE svg PUBLIC "-//W3C//DTD SVG 1.1//EN" "http://www.w3.org/Graphics/SVG/1.1/DTD/svg11.dtd" >
<svg xmlns="http://www.w3.org/2000/svg" xmlns:xlink="http://www.w3.org/1999/xlink" version="1.1" viewBox="-10 0 1010 1000">
   <path fill="currentColor"
d="M293 317h-93c-18 88 -37 173 -59 244c30 21 61 46 91 69c31 -86 50 -191 61 -313zM322 246l43 6c-10 177 -36 318 -76 427c40 37 73 72 95 102l-46 61c-19 -27 -47 -58 -79 -90c-46 91 -105 159 -179 207c-9 -20 -28 -47 -44 -63c69 -39 126 -105 168 -195
c-45 -41 -95 -80 -141 -113c25 -69 50 -168 68 -271h-73v-69h86c12 -70 21 -140 27 -204l73 7c-9 62 -19 130 -31 197h96zM825 747h-131v166h-62v-166h-127v-56h127v-89h-117v-55h168c21 -42 44 -100 57 -140l54 15c-19 42 -38 88 -57 125h79v55h-122v89h131v56zM530 426
l46 -18c20 36 41 83 51 115l-50 20c-8 -32 -29 -81 -47 -117zM947 219h-258c-5 36 -10 72 -16 102h251v551c0 37 -7 58 -32 70c-23 12 -61 14 -118 14c-2 -20 -12 -50 -22 -69c42 1 79 1 90 0c12 0 15 -4 15 -15v-487h-384v571h-66v-635h203c4 -30 8 -66 12 -102h-238v-66
h244c3 -39 6 -78 7 -111l73 8c-4 32 -7 68 -11 103h250v66z" />
</svg>
