<?xml version="1.0" standalone="no"?>
<!DOCTYPE svg PUBLIC "-//W3C//DTD SVG 1.1//EN" "http://www.w3.org/Graphics/SVG/1.1/DTD/svg11.dtd" >
<svg xmlns="http://www.w3.org/2000/svg" xmlns:xlink="http://www.w3.org/1999/xlink" version="1.1" viewBox="-10 0 1010 1000">
   <path fill="currentColor"
d="M926 135v64h-516v-64h223c-7 -26 -18 -55 -29 -79l64 -16c15 29 29 67 36 95h222zM289 319h-101c-16 90 -33 177 -50 248c30 24 60 50 90 75c31 -88 51 -196 61 -323zM317 250l42 8c-10 179 -35 321 -77 432c39 36 73 71 96 99l-48 56c-19 -25 -46 -55 -77 -86
c-44 87 -100 152 -169 198c-9 -17 -28 -42 -44 -56c66 -40 120 -104 161 -192c-45 -41 -93 -83 -136 -117c19 -71 40 -171 58 -273h-74v-66h84c11 -74 20 -147 25 -211l66 3c-6 64 -15 135 -27 208h108zM899 533v257c0 33 -5 51 -28 63c-23 11 -59 12 -108 12
c-3 -20 -12 -45 -21 -64c38 1 69 1 78 1c11 0 13 -4 13 -13v-192h-131v359h-69v-359h-125v263h-66v-327h191v-104h69v104h197zM796 339h150v159h-70v-101h-417v102h-68v-160h147c-7 -32 -25 -82 -42 -120l58 -13c19 38 39 90 47 122l-40 11h169c20 -39 40 -94 52 -132l68 19
c-17 37 -37 80 -54 113z" />
</svg>
