<?xml version="1.0" standalone="no"?>
<!DOCTYPE svg PUBLIC "-//W3C//DTD SVG 1.1//EN" "http://www.w3.org/Graphics/SVG/1.1/DTD/svg11.dtd" >
<svg xmlns="http://www.w3.org/2000/svg" xmlns:xlink="http://www.w3.org/1999/xlink" version="1.1" viewBox="-10 0 1010 1000">
   <path fill="currentColor"
d="M671 322h-9c-58 77 -149 152 -227 193c-10 -16 -31 -38 -45 -51c68 -30 147 -83 203 -142h-184v-61h255c-42 -26 -91 -54 -134 -72l42 -38c30 13 64 31 96 48c35 -19 71 -45 100 -70h-307v-58h371l16 -3l44 32c-46 49 -110 95 -172 130c18 10 34 21 46 31h131l13 -3
l50 16c-31 58 -65 122 -94 163l-60 -19c17 -26 38 -61 56 -96h-122v119c0 34 -7 50 -33 59c-25 10 -64 10 -124 10c-3 -19 -12 -40 -21 -58c44 1 83 1 94 1c12 -1 15 -4 15 -14v-117zM296 317h-96c-17 96 -38 190 -59 267c29 22 60 46 89 71c33 -90 55 -203 66 -338z
M389 821l-51 52c-19 -30 -50 -66 -84 -101c-44 80 -100 140 -168 183c-10 -17 -29 -44 -45 -58c65 -37 118 -95 160 -176c-44 -40 -92 -78 -136 -111c27 -75 49 -182 68 -293h-81v-68h92c10 -71 19 -143 25 -206l71 6c-8 63 -17 132 -29 200h101l12 -2l43 6
c-10 191 -37 338 -83 451c44 42 82 82 105 117zM945 677h-199c60 76 148 152 223 191c-16 13 -37 37 -48 55c-72 -45 -154 -123 -215 -205v239h-70v-234c-63 86 -150 165 -232 210c-11 -18 -32 -42 -49 -56c87 -40 180 -118 240 -200h-187v-63h228v-94h70v94h239v63z" />
</svg>
