<?xml version="1.0" standalone="no"?>
<!DOCTYPE svg PUBLIC "-//W3C//DTD SVG 1.1//EN" "http://www.w3.org/Graphics/SVG/1.1/DTD/svg11.dtd" >
<svg xmlns="http://www.w3.org/2000/svg" xmlns:xlink="http://www.w3.org/1999/xlink" version="1.1" viewBox="-10 0 1010 1000">
   <path fill="currentColor"
d="M634 320v-81h-220v-61h137c-11 -33 -34 -78 -56 -111l57 -22c27 34 53 83 63 115l-41 18h157c22 -39 47 -96 61 -135l70 22c-21 39 -43 80 -64 113h138v61h-232v81h213v59h-213v86h249v63h-570v-63h251v-86h-197v-59h197zM321 319h-125c-16 78 -34 153 -54 216
c34 27 70 56 104 87c34 -86 61 -188 75 -303zM382 771l-35 65c-20 -29 -48 -64 -82 -98c-49 96 -108 170 -179 222c-9 -17 -27 -45 -41 -58c66 -46 124 -119 171 -215c-46 -45 -97 -89 -144 -125l-2 -1c24 -63 46 -149 64 -242h-90v-71h104c12 -69 22 -140 29 -202l65 8
c-9 61 -20 127 -32 194h130l12 -2l40 12c-18 165 -50 302 -96 412c35 37 66 71 86 101zM945 690h-235c42 107 127 177 257 207c-16 13 -35 40 -45 60c-124 -36 -208 -107 -258 -213c-40 103 -119 171 -284 214c-7 -18 -25 -46 -39 -59c168 -39 237 -105 267 -209h-216v-63
h230c4 -25 7 -53 9 -83h70c-2 30 -5 57 -9 83h253v63z" />
</svg>
