<?xml version="1.0" standalone="no"?>
<!DOCTYPE svg PUBLIC "-//W3C//DTD SVG 1.1//EN" "http://www.w3.org/Graphics/SVG/1.1/DTD/svg11.dtd" >
<svg xmlns="http://www.w3.org/2000/svg" xmlns:xlink="http://www.w3.org/1999/xlink" version="1.1" viewBox="-10 0 1010 1000">
   <path fill="currentColor"
d="M570 176l-62 25c-12 -34 -42 -91 -67 -132l60 -22c26 40 57 95 69 129zM268 321h-85c-16 93 -33 184 -50 258c24 25 49 53 73 81c32 -90 52 -203 62 -339zM295 251l39 5c-10 196 -35 345 -80 460c42 48 79 95 104 130l-46 52c-20 -32 -52 -73 -86 -117
c-40 77 -92 134 -154 176c-10 -17 -27 -41 -42 -54c61 -37 111 -96 150 -178c-39 -46 -79 -92 -115 -133c18 -70 39 -168 57 -271h-79v-68h89c11 -72 20 -143 25 -206l63 2c-6 63 -16 133 -27 204h90zM442 664h140v-94h-140v94zM582 422h-140v84h140v-84zM645 360v514
c0 32 -5 50 -26 62c-21 10 -53 11 -101 11c-3 -17 -11 -43 -19 -61c32 1 61 1 71 1c9 -1 12 -3 12 -13v-146h-140v229h-63v-597h266zM866 877v-541h66v542c0 36 -8 55 -33 66c-26 11 -65 13 -126 13c-4 -18 -16 -46 -26 -64c48 2 89 1 103 1c12 -1 16 -5 16 -17zM775 372
v392h-60v-392h60zM786 217h171v67h-592v-67h347c29 -45 64 -118 83 -169l72 20c-25 51 -54 108 -81 149z" />
</svg>
