<?xml version="1.0" standalone="no"?>
<!DOCTYPE svg PUBLIC "-//W3C//DTD SVG 1.1//EN" "http://www.w3.org/Graphics/SVG/1.1/DTD/svg11.dtd" >
<svg xmlns="http://www.w3.org/2000/svg" xmlns:xlink="http://www.w3.org/1999/xlink" version="1.1" viewBox="-10 0 1010 1000">
   <path fill="currentColor"
d="M314 317h-118c-17 92 -36 181 -54 255c33 25 67 54 100 82c36 -90 60 -202 72 -337zM387 800l-48 54c-19 -25 -45 -55 -76 -86c-47 82 -107 143 -179 186c-10 -18 -29 -43 -44 -58c69 -36 127 -96 171 -178c-47 -44 -98 -89 -145 -126c21 -71 42 -171 61 -275h-80v-69h92
c10 -72 20 -142 25 -205l69 4c-6 62 -16 131 -27 201h125l13 -2l41 6c-11 190 -41 337 -90 451c37 34 69 69 92 97zM755 542l-38 -18c22 -37 49 -100 62 -141l48 21c-24 48 -50 102 -72 138zM509 401l44 -14c23 42 49 97 58 134l-45 17c-10 -37 -33 -95 -57 -137zM483 354
v217h154v-217h-154zM854 571v-217h-161v217h161zM919 632h-180c58 84 152 172 229 219c-16 12 -39 37 -50 54c-71 -50 -158 -140 -219 -227v278h-70v-281c-57 92 -147 184 -232 235c-9 -17 -29 -44 -46 -58c86 -44 177 -132 230 -220h-160v-339h209v-78h-235v-66h235v-105
h70v105h242v66h-242v78h219v339z" />
</svg>
