<?xml version="1.0" standalone="no"?>
<!DOCTYPE svg PUBLIC "-//W3C//DTD SVG 1.1//EN" "http://www.w3.org/Graphics/SVG/1.1/DTD/svg11.dtd" >
<svg xmlns="http://www.w3.org/2000/svg" xmlns:xlink="http://www.w3.org/1999/xlink" version="1.1" viewBox="-10 0 1010 1000">
   <path fill="currentColor"
d="M879 55l45 57c-138 36 -354 57 -531 67c-2 -17 -11 -41 -17 -58c173 -11 385 -35 503 -66zM823 389l-56 -23c29 -53 66 -139 85 -199l73 26c-33 67 -70 145 -102 196zM703 334l-64 17c-5 -39 -23 -106 -40 -156l60 -14c19 49 38 114 44 153zM530 343l-62 21
c-8 -39 -31 -101 -56 -148l60 -17c25 45 51 106 58 144zM287 317h-94c-18 95 -38 189 -60 265c29 22 60 45 89 69c33 -90 54 -201 65 -334zM316 247l43 6c-10 188 -36 334 -81 446c40 36 73 71 96 101l-52 53c-18 -26 -45 -55 -75 -85c-43 83 -100 143 -169 187
c-11 -18 -30 -44 -45 -59c65 -37 119 -96 161 -179c-44 -38 -90 -76 -134 -106l-3 -1v-1h1c25 -76 48 -182 67 -292h-81v-68h91c10 -71 19 -143 25 -206l72 6c-8 63 -17 132 -29 200h100zM694 667v181h152v-139h68v245h-68v-43h-443v-203h68v140h153v-181h-264v-64h264v-110
h-126c-22 33 -48 63 -71 86c-13 -10 -41 -30 -58 -40c51 -45 98 -110 126 -175l67 19c-7 16 -16 31 -25 47h385v63h-228v110h268v64h-268z" />
</svg>
