<?xml version="1.0" standalone="no"?>
<!DOCTYPE svg PUBLIC "-//W3C//DTD SVG 1.1//EN" "http://www.w3.org/Graphics/SVG/1.1/DTD/svg11.dtd" >
<svg xmlns="http://www.w3.org/2000/svg" xmlns:xlink="http://www.w3.org/1999/xlink" version="1.1" viewBox="-10 0 1010 1000">
   <path fill="currentColor"
d="M814 282v-78h-295v78h295zM814 416v-79h-295v79h295zM814 551v-80h-295v80h295zM887 146v463h-438v-463h147c10 -34 20 -75 24 -106l84 8c-12 33 -25 69 -37 98h220zM582 643l46 -31c48 35 104 88 130 126l-48 35c-24 -38 -79 -93 -128 -130zM297 317h-100
c-17 95 -38 189 -57 266c30 21 62 45 91 70c34 -90 56 -202 66 -336zM365 787l-50 54c-15 -22 -35 -45 -60 -71c-43 82 -100 142 -169 185c-10 -18 -29 -44 -44 -59c65 -36 119 -95 161 -177c-45 -40 -94 -79 -139 -110c23 -77 46 -182 67 -292h-80v-69h92
c11 -72 20 -143 26 -206l69 3c-7 63 -17 132 -29 203h111l6 -1l43 6c-10 190 -37 337 -82 450c32 29 59 59 78 84zM399 931l-58 -31c32 -51 57 -135 70 -199l60 20c-15 66 -38 155 -72 210zM610 886h126c30 0 36 -11 39 -96c14 11 40 21 59 25c-7 106 -28 132 -91 132h-140
c-82 0 -102 -19 -102 -87v-174h66v173c0 23 7 27 43 27zM802 713l55 -26c46 61 93 143 109 197l-58 30c-16 -54 -62 -139 -106 -201z" />
</svg>
