<?xml version="1.0" standalone="no"?>
<!DOCTYPE svg PUBLIC "-//W3C//DTD SVG 1.1//EN" "http://www.w3.org/Graphics/SVG/1.1/DTD/svg11.dtd" >
<svg xmlns="http://www.w3.org/2000/svg" xmlns:xlink="http://www.w3.org/1999/xlink" version="1.1" viewBox="-10 0 1010 1000">
   <path fill="currentColor"
d="M799 52l69 21c-23 45 -49 94 -70 126l-56 -19c19 -35 45 -91 57 -128zM521 169l-59 23c-7 -33 -31 -83 -56 -121l55 -19c26 35 50 84 60 117zM761 656h-158c-15 28 -29 55 -43 78c41 13 83 28 124 44c35 -33 60 -73 77 -122zM606 471l74 13c-13 36 -29 74 -47 111h298v61
h-99c-18 60 -44 109 -82 149c66 29 128 60 172 88l-52 53c-44 -31 -107 -63 -175 -94c-70 48 -165 80 -289 101c-6 -19 -19 -44 -31 -58c106 -14 187 -37 249 -73c-56 -21 -113 -41 -166 -54c21 -32 44 -70 66 -112h-132v-61h163c19 -42 38 -85 51 -124zM151 552h123v-170
h-121v56c0 35 0 73 -2 114zM274 148h-121v166h121v-166zM949 416h-145c40 54 97 101 161 124c-15 13 -35 37 -46 53c-75 -34 -143 -102 -185 -177h-170c-46 74 -105 135 -180 183c-8 -12 -30 -37 -46 -50v318c0 36 -8 55 -31 67c-22 11 -57 13 -114 13
c-3 -18 -11 -46 -20 -64c40 1 75 1 85 0c12 0 16 -4 16 -17v-245h-126c-7 116 -24 240 -59 335c-12 -10 -39 -27 -55 -32c53 -142 56 -341 56 -485v-359h248v466c59 -34 107 -78 146 -130h-124v-61h163c16 -27 29 -57 40 -88h-177v-62h198c14 -49 24 -103 32 -160l69 7
c-9 55 -19 106 -32 153h267v62h-286c-11 31 -23 61 -36 88h351v61z" />
</svg>
