<?xml version="1.0" standalone="no"?>
<!DOCTYPE svg PUBLIC "-//W3C//DTD SVG 1.1//EN" "http://www.w3.org/Graphics/SVG/1.1/DTD/svg11.dtd" >
<svg xmlns="http://www.w3.org/2000/svg" xmlns:xlink="http://www.w3.org/1999/xlink" version="1.1" viewBox="-10 0 1010 1000">
   <path fill="currentColor"
d="M954 364v63h-559v-63h240v-78h-200v-201h68v139h132v-183h70v183h137v-139h71v201h-208v78h249zM303 317h-103c-18 98 -38 192 -57 271c30 22 61 46 90 72c36 -91 59 -204 70 -343zM387 821l-49 50c-20 -30 -50 -64 -83 -98c-45 80 -103 139 -173 181
c-9 -18 -28 -44 -42 -58c66 -35 122 -92 165 -174c-45 -40 -93 -80 -138 -112c23 -77 46 -184 66 -293h-78v-68h90c11 -72 20 -143 26 -206l68 3c-7 63 -17 132 -28 203h109l12 -2l41 6c-10 194 -39 342 -87 456c42 39 77 78 101 112zM498 693h138v-110h-138v110zM848 583
h-143v110h143v-110zM964 935l-63 27c-8 -16 -18 -34 -32 -55c-174 11 -351 18 -477 24l-6 -68c67 -2 155 -5 250 -8v-104h-205v-225h205v-67h69v67h213v225h-213v101l120 -5c-16 -22 -35 -44 -52 -64l59 -22c51 52 108 126 132 174z" />
</svg>
