<?xml version="1.0" standalone="no"?>
<!DOCTYPE svg PUBLIC "-//W3C//DTD SVG 1.1//EN" "http://www.w3.org/Graphics/SVG/1.1/DTD/svg11.dtd" >
<svg xmlns="http://www.w3.org/2000/svg" xmlns:xlink="http://www.w3.org/1999/xlink" version="1.1" viewBox="-10 0 1010 1000">
   <path fill="currentColor"
d="M643 139v241h-292v-242h51v185h65v-278h57v278h66v-184h53zM249 321h-80c-13 89 -29 176 -44 247c26 22 51 45 76 70c24 -88 40 -194 48 -317zM316 769l-38 56c-13 -22 -32 -46 -54 -72c-36 92 -84 159 -145 207c-8 -18 -24 -43 -37 -57c58 -41 104 -107 138 -200
c-37 -40 -79 -79 -117 -111c17 -70 36 -168 51 -271h-71v-68h81c11 -73 19 -145 23 -208l56 2c-5 63 -14 134 -24 206h84l11 -2l35 6c-8 178 -28 318 -61 429c28 29 51 57 68 83zM604 740l70 -40c4 17 11 40 17 52c-117 75 -136 92 -147 106c-5 -17 -18 -46 -27 -61
c11 -7 27 -23 27 -62v-116h-117c-7 141 -28 242 -101 305c-8 -15 -28 -37 -42 -49c72 -61 83 -164 85 -317h235v182zM755 306l-4 12c11 106 28 207 53 295c26 -88 41 -191 50 -307h-99zM959 306h-43c-14 158 -36 290 -80 399c33 78 75 142 131 185c-15 13 -36 39 -47 58
c-49 -43 -88 -100 -119 -169c-38 71 -88 130 -154 179c-8 -13 -32 -38 -45 -49c77 -52 131 -121 170 -206c-29 -83 -48 -179 -62 -284c-11 21 -22 41 -34 58c-4 -8 -14 -22 -25 -34v59h-320v-61h319c-7 -7 -13 -14 -18 -19c62 -92 97 -233 117 -379l64 11
c-10 64 -23 127 -38 187h184v65z" />
</svg>
