<?xml version="1.0" standalone="no"?>
<!DOCTYPE svg PUBLIC "-//W3C//DTD SVG 1.1//EN" "http://www.w3.org/Graphics/SVG/1.1/DTD/svg11.dtd" >
<svg xmlns="http://www.w3.org/2000/svg" xmlns:xlink="http://www.w3.org/1999/xlink" version="1.1" viewBox="-10 0 1010 1000">
   <path fill="currentColor"
d="M783 362l-35 39c-27 -28 -76 -68 -119 -103c-25 44 -57 82 -95 111c-7 -10 -27 -31 -38 -40c64 -48 108 -120 128 -208l56 10c-8 29 -16 57 -28 83c46 33 103 80 131 108zM806 423v-278h-325v278h325zM873 87v394h-456v-394h456zM294 317h-106c-17 95 -36 189 -54 266
c31 22 62 46 93 71c34 -90 56 -202 67 -337zM355 783l-50 52c-14 -20 -32 -41 -55 -65c-45 81 -102 141 -172 185c-11 -18 -30 -45 -45 -59c66 -37 121 -95 164 -176c-44 -40 -94 -79 -139 -111c22 -76 45 -183 65 -292h-78v-68h89c10 -73 20 -144 25 -207l67 4
c-6 63 -16 132 -27 203h111l13 -2l43 6c-10 190 -37 337 -85 450c31 28 56 56 74 80zM458 620v249h88v-249h-88zM690 620h-89v249h89v-249zM835 620h-90v249h90v-249zM901 869h57v65h-642v-65h79v-314h506v314z" />
</svg>
