<?xml version="1.0" standalone="no"?>
<!DOCTYPE svg PUBLIC "-//W3C//DTD SVG 1.1//EN" "http://www.w3.org/Graphics/SVG/1.1/DTD/svg11.dtd" >
<svg xmlns="http://www.w3.org/2000/svg" xmlns:xlink="http://www.w3.org/1999/xlink" version="1.1" viewBox="-10 0 1010 1000">
   <path fill="currentColor"
d="M788 577l53 19c-17 51 -41 104 -65 145l99 -11c-11 -27 -23 -55 -36 -78l44 -18c26 48 53 113 62 151l-45 22c-2 -9 -5 -18 -8 -29c-133 18 -157 23 -170 30c-3 -12 -11 -41 -17 -54c10 -2 19 -14 28 -31c9 -16 40 -82 55 -146zM285 317h-95c-17 96 -37 190 -58 266
c28 23 58 46 87 72c33 -90 55 -203 66 -338zM382 825l-50 52c-21 -31 -53 -68 -89 -106c-43 81 -99 141 -166 184c-10 -18 -29 -44 -44 -59c64 -36 116 -95 158 -175c-43 -41 -89 -79 -132 -110l-2 -1v-1c26 -76 48 -182 67 -292h-80v-68h90c10 -72 19 -143 25 -207l70 7
c-8 63 -17 131 -28 200h99l13 -2l41 6c-10 191 -36 338 -81 451c46 43 85 85 109 121zM467 491h131c6 -38 12 -76 15 -114h-146v114zM467 206v112h152c2 -38 4 -77 5 -112h-157zM850 318v-112h-162c-1 36 -3 74 -6 112h168zM850 491v-114h-173c-4 38 -9 76 -16 114h189z
M736 884h133c27 0 33 -11 36 -76c14 10 38 20 56 24c-7 89 -26 114 -86 114h-145c-79 0 -100 -20 -100 -95v-229c-43 133 -118 253 -256 332c-10 -18 -30 -42 -46 -56c147 -79 219 -207 255 -346h-180v-408h191c13 -33 26 -73 33 -102l76 11c-13 31 -27 64 -41 91h255v408
h-225v300c0 27 7 32 44 32z" />
</svg>
