<?xml version="1.0" standalone="no"?>
<!DOCTYPE svg PUBLIC "-//W3C//DTD SVG 1.1//EN" "http://www.w3.org/Graphics/SVG/1.1/DTD/svg11.dtd" >
<svg xmlns="http://www.w3.org/2000/svg" xmlns:xlink="http://www.w3.org/1999/xlink" version="1.1" viewBox="-10 0 1010 1000">
   <path fill="currentColor"
d="M298 317h-96c-18 96 -38 190 -60 267c29 23 60 47 88 73c35 -91 57 -204 68 -340zM380 817l-53 51c-18 -27 -44 -59 -74 -91c-44 78 -98 136 -165 178c-10 -17 -29 -44 -44 -59c63 -36 116 -93 157 -172c-42 -41 -88 -81 -131 -113l-2 -1v-1c26 -76 49 -181 67 -292h-80
v-68h91c10 -72 19 -143 25 -207l70 7c-8 63 -17 131 -28 200h101l13 -2l41 6c-10 193 -37 341 -83 455c39 38 73 77 95 109zM554 772l59 47c-68 46 -155 100 -217 139c-9 -16 -26 -39 -39 -54c61 -36 147 -91 197 -132zM949 903l-45 54c-42 -37 -127 -99 -191 -141l43 -46
c63 40 149 97 193 133zM505 705h300v-67h-300v67zM805 316h-300v64h300v-64zM805 484v-59h-300v59h300zM505 530v62h300v-62h-300zM952 705v65h-590v-65h77v-441h147c5 -20 9 -41 14 -63h-204v-62h215c5 -33 10 -66 13 -94l78 5c-6 28 -13 59 -20 89h244v62h-258
c-5 23 -11 43 -16 63h221v441h79z" />
</svg>
