<?xml version="1.0" standalone="no"?>
<!DOCTYPE svg PUBLIC "-//W3C//DTD SVG 1.1//EN" "http://www.w3.org/Graphics/SVG/1.1/DTD/svg11.dtd" >
<svg xmlns="http://www.w3.org/2000/svg" xmlns:xlink="http://www.w3.org/1999/xlink" version="1.1" viewBox="-10 0 1010 1000">
   <path fill="currentColor"
d="M283 317h-93c-18 97 -38 192 -59 268c28 24 58 48 85 75c34 -91 56 -205 67 -343zM351 810l-52 51c-15 -25 -36 -52 -61 -82c-43 77 -96 135 -161 176c-11 -18 -29 -44 -44 -59c62 -35 114 -92 155 -170c-42 -42 -87 -82 -129 -115l-2 -1v-1c26 -76 48 -181 67 -292h-80
v-68h90c10 -72 19 -143 25 -207l70 7c-8 63 -18 131 -29 200h99l12 -2l42 6c-11 195 -38 344 -84 459c34 34 62 68 82 98zM554 663l61 15c-27 76 -71 155 -114 208c-13 -11 -38 -27 -54 -35c45 -49 84 -120 107 -188zM580 465v84h286v-84h-286zM580 328v82h286v-82h-286z
M929 606h-178v278c0 35 -6 52 -30 63c-23 10 -60 11 -114 10c-3 -19 -11 -43 -20 -62c39 1 74 2 85 1c11 0 14 -3 14 -14v-276h-166v-335h141c9 -33 18 -77 24 -111h-212v204c0 167 -14 413 -105 580c-12 -12 -41 -28 -58 -35c89 -161 97 -385 97 -545v-271h549v67h-194
c-13 38 -25 78 -37 111h204v335zM810 683l55 -21c41 63 86 146 101 200l-58 24c-15 -54 -58 -140 -98 -203z" />
</svg>
