<?xml version="1.0" standalone="no"?>
<!DOCTYPE svg PUBLIC "-//W3C//DTD SVG 1.1//EN" "http://www.w3.org/Graphics/SVG/1.1/DTD/svg11.dtd" >
<svg xmlns="http://www.w3.org/2000/svg" xmlns:xlink="http://www.w3.org/1999/xlink" version="1.1" viewBox="-10 0 1010 1000">
   <path fill="currentColor"
d="M274 319h-83c-18 93 -39 185 -57 259c27 18 56 37 83 56c29 -86 48 -191 57 -315zM361 754l-46 60c-17 -19 -39 -41 -65 -64c-44 92 -102 158 -174 206c-11 -19 -29 -47 -46 -62c66 -39 120 -102 161 -191c-45 -35 -93 -68 -137 -94c24 -76 48 -182 69 -290h-78v-71h90
c11 -70 21 -140 27 -202l70 3c-7 62 -17 131 -29 199h88l12 -2l45 6c-9 177 -32 317 -70 427c33 27 62 52 83 75zM955 544h-353c-10 31 -22 61 -35 89h335v65h-170v156h222v66h-530v-66h235v-156h-125c-48 83 -109 152 -187 208c-11 -16 -39 -46 -54 -60
c110 -71 183 -173 232 -302h-166v-66h187c9 -27 16 -57 23 -86h-164v-63h176c5 -26 9 -53 12 -80h-224v-66h161c-14 -33 -41 -80 -66 -115l64 -25c27 35 58 83 71 115l-56 25h169c30 -42 60 -100 79 -141l76 20c-24 41 -52 85 -78 121h131v66h-251c-4 27 -8 54 -13 80h234
v63h-246c-6 29 -13 59 -21 86h332v66z" />
</svg>
