<?xml version="1.0" standalone="no"?>
<!DOCTYPE svg PUBLIC "-//W3C//DTD SVG 1.1//EN" "http://www.w3.org/Graphics/SVG/1.1/DTD/svg11.dtd" >
<svg xmlns="http://www.w3.org/2000/svg" xmlns:xlink="http://www.w3.org/1999/xlink" version="1.1" viewBox="-10 0 1010 1000">
   <path fill="currentColor"
d="M283 317h-95c-17 95 -37 189 -58 266c29 22 59 46 87 71c34 -90 55 -203 66 -337zM379 825l-50 52c-20 -31 -52 -68 -88 -107c-43 82 -98 142 -165 185c-10 -18 -28 -44 -43 -59c63 -36 116 -94 157 -176c-43 -39 -89 -77 -132 -110l-2 -1v-1l1 -1
c25 -75 48 -180 66 -290h-79v-68h89c11 -72 19 -143 25 -207l69 7c-8 63 -17 131 -28 200h99l12 -2l41 6c-10 190 -36 337 -81 450c46 43 85 86 109 122zM615 418l66 -10c14 35 28 79 34 110h239v61h-313c-3 33 -7 64 -13 93h265s-1 21 -3 31c-12 146 -24 206 -49 229
c-15 17 -33 22 -61 24c-23 1 -69 1 -116 -1c-2 -20 -9 -45 -20 -63c46 5 90 6 107 6c15 0 25 -1 33 -9c14 -14 24 -56 33 -156h-205c-34 103 -99 178 -232 226c-7 -17 -26 -42 -41 -55c174 -58 215 -168 230 -325h-180v-61h254c-6 -30 -17 -68 -28 -100zM812 324h142v157
h-70v-98h-428v98h-68v-157h349c20 -36 43 -85 56 -123h-249c21 34 39 76 45 104l-68 16c-6 -29 -24 -75 -44 -109l51 -11h-127v-61h239c-6 -29 -14 -64 -23 -93l67 -9c12 31 24 71 29 102h223v61h-89l25 4c-19 42 -41 86 -60 119z" />
</svg>
