<?xml version="1.0" standalone="no"?>
<!DOCTYPE svg PUBLIC "-//W3C//DTD SVG 1.1//EN" "http://www.w3.org/Graphics/SVG/1.1/DTD/svg11.dtd" >
<svg xmlns="http://www.w3.org/2000/svg" xmlns:xlink="http://www.w3.org/1999/xlink" version="1.1" viewBox="-10 0 1010 1000">
   <path fill="currentColor"
d="M534 525v147h175v-147h-175zM948 672l1 65h-599v-65h115v-362c128 -7 282 -23 373 -43l28 54v-111h-408v114h-68v-176h253c-12 -29 -28 -64 -43 -90l71 -17c18 33 40 76 53 107h212v176h-69l3 5c-89 18 -220 31 -336 37v95h360v64h-117v147h171zM276 317h-85
c-17 99 -38 196 -56 274c25 22 52 45 77 69c32 -91 53 -206 64 -343zM347 819l-52 47c-15 -26 -37 -56 -62 -87c-40 75 -91 131 -152 173c-10 -17 -28 -42 -43 -56c59 -36 108 -92 147 -170c-40 -42 -83 -83 -123 -116c22 -76 44 -183 64 -293h-71v-68h82
c11 -72 20 -143 26 -206l65 3c-6 63 -15 132 -27 203h90l13 -2l39 6c-9 195 -35 345 -80 459c35 38 64 74 84 107zM545 763l62 41c-63 55 -158 113 -235 151c-9 -15 -28 -38 -41 -53c73 -34 167 -92 214 -139zM710 803l47 -43c67 43 160 106 207 145l-49 50
c-45 -40 -136 -106 -205 -152z" />
</svg>
