<?xml version="1.0" standalone="no"?>
<!DOCTYPE svg PUBLIC "-//W3C//DTD SVG 1.1//EN" "http://www.w3.org/Graphics/SVG/1.1/DTD/svg11.dtd" >
<svg xmlns="http://www.w3.org/2000/svg" xmlns:xlink="http://www.w3.org/1999/xlink" version="1.1" viewBox="-10 0 1010 1000">
   <path fill="currentColor"
d="M820 188v-66h-309v66h309zM820 300v-67h-309v67h309zM891 76v271h-448v-271h448zM872 534v-87h-107v87h107zM713 534v-87h-106v87h106zM556 534v-87h-101v87h101zM933 397v187h-537v-187h537zM290 320h-100c-17 91 -35 179 -52 251c29 25 59 51 89 78
c32 -90 53 -199 63 -329zM377 804l-46 53c-20 -27 -49 -59 -82 -93c-43 86 -99 149 -167 195c-10 -17 -28 -42 -43 -54c65 -40 119 -103 160 -190c-44 -44 -92 -87 -134 -123c21 -71 41 -170 60 -272h-71v-67h82c11 -74 20 -149 26 -215l66 4c-6 65 -16 137 -28 211h106
l12 -3l40 8c-11 184 -37 328 -80 440c40 38 76 75 99 106zM811 695h-281c35 43 82 79 140 110c57 -30 106 -66 141 -110zM870 635l45 27c-39 74 -99 131 -173 176c67 27 143 45 224 56c-14 15 -34 42 -43 61c-93 -16 -180 -42 -255 -79c-88 39 -189 65 -294 82
c-7 -18 -26 -47 -40 -62c94 -12 184 -31 263 -60c-61 -39 -111 -86 -147 -141h-43v-57h434v-1h15z" />
</svg>
