<?xml version="1.0" standalone="no"?>
<!DOCTYPE svg PUBLIC "-//W3C//DTD SVG 1.1//EN" "http://www.w3.org/Graphics/SVG/1.1/DTD/svg11.dtd" >
<svg xmlns="http://www.w3.org/2000/svg" xmlns:xlink="http://www.w3.org/1999/xlink" version="1.1" viewBox="-10 0 1010 1000">
   <path fill="currentColor"
d="M155 131v339h54c-7 -12 -22 -28 -33 -36c74 -28 106 -67 120 -104h-122v-44h131c1 -6 1 -12 1 -17v-44h-54c-11 20 -23 39 -35 54c-9 -7 -31 -18 -42 -23c29 -36 51 -80 65 -125h-85zM795 338h-174c23 33 53 62 91 86c34 -24 62 -53 83 -86zM842 283l38 15
c-23 65 -63 116 -113 155c53 23 116 39 186 47c-14 14 -32 39 -39 57c-78 -13 -147 -35 -203 -65c-54 29 -115 50 -180 64c-4 -10 -11 -22 -18 -33h-421v-444h416v52h-244l25 6c-5 15 -9 29 -16 44h187v44h-102v44c0 5 0 11 -1 17h130v44h-137l-2 6c43 28 95 64 121 89
l-33 34c-23 -22 -66 -56 -106 -83c-22 34 -57 67 -118 94h301v32c51 -9 100 -24 144 -46c-44 -32 -78 -72 -103 -118h-21v-53h1c-11 -13 -25 -28 -33 -34c69 -33 80 -72 80 -111v-65h205v-1h61v114c0 19 1 25 13 25h41c11 0 29 -1 39 -4c2 15 3 36 5 51c-10 3 -27 4 -43 4
h-51c-54 0 -65 -22 -65 -77v-58h-141v12c0 49 -15 102 -75 144h260zM669 670h-291c-20 28 -41 56 -60 80c76 14 152 30 226 46c55 -32 96 -73 125 -126zM385 524l72 19c-11 21 -25 44 -38 66h532v61h-203c-27 60 -66 108 -117 147c111 26 211 55 287 83l-60 57
c-79 -32 -185 -63 -305 -93c-112 54 -265 80 -464 93c-6 -22 -16 -47 -27 -64c160 -6 287 -22 385 -55c-79 -17 -164 -34 -250 -49l7 -7c28 -32 60 -71 90 -112h-244v-61h285c19 -29 37 -58 50 -85z" />
</svg>
