<?xml version="1.0" standalone="no"?>
<!DOCTYPE svg PUBLIC "-//W3C//DTD SVG 1.1//EN" "http://www.w3.org/Graphics/SVG/1.1/DTD/svg11.dtd" >
<svg xmlns="http://www.w3.org/2000/svg" xmlns:xlink="http://www.w3.org/1999/xlink" version="1.1" viewBox="-10 0 1010 1000">
   <path fill="currentColor"
d="M916 123v59h-501v-59h214c-8 -22 -18 -45 -27 -65l62 -17c14 25 28 57 37 82h215zM281 317h-91c-16 89 -33 176 -50 248c28 21 55 45 82 69c30 -86 49 -192 59 -317zM309 246l40 6c-10 181 -34 323 -76 432c40 41 73 81 94 114l-51 52c-16 -28 -43 -62 -73 -96
c-44 87 -102 151 -173 196c-9 -19 -27 -45 -40 -59c67 -38 122 -101 164 -189c-40 -42 -84 -81 -126 -114c18 -70 39 -170 56 -271h-79v-69h89c11 -72 19 -141 24 -204l68 2c-6 63 -15 131 -26 202h97zM506 559v69h313v-69h-313zM506 444v69h313v-69h-313zM699 679v64h254
v61h-254v151h-73v-151h-254v-61h254v-64h-188v-286h452v286h-191zM783 277h170v59h-579v-59h162c-5 -23 -18 -55 -28 -79l58 -13c12 24 26 59 32 79l-47 13h165c15 -28 32 -66 41 -92l66 17c-14 26 -28 52 -40 75z" />
</svg>
