<?xml version="1.0" standalone="no"?>
<!DOCTYPE svg PUBLIC "-//W3C//DTD SVG 1.1//EN" "http://www.w3.org/Graphics/SVG/1.1/DTD/svg11.dtd" >
<svg xmlns="http://www.w3.org/2000/svg" xmlns:xlink="http://www.w3.org/1999/xlink" version="1.1" viewBox="-10 0 1010 1000">
   <path fill="currentColor"
d="M284 317h-101c-17 88 -36 175 -54 246c31 24 63 52 95 79c30 -89 50 -198 60 -325zM312 247l41 7c-10 182 -35 325 -77 437c42 40 78 79 101 112l-45 61c-20 -31 -51 -66 -85 -103c-42 85 -96 148 -162 194c-9 -18 -28 -43 -44 -56c64 -39 115 -102 155 -188
c-46 -44 -96 -87 -142 -123c21 -70 44 -169 64 -271h-74v-68h86c12 -71 22 -142 28 -204l66 4c-7 61 -18 130 -30 200h106zM488 206l61 -17c18 33 35 79 42 107l-65 20c-6 -30 -22 -76 -38 -110zM740 756v-101h-151v101h151zM946 127v62h-139l40 11c-16 39 -33 82 -48 116
h129v558c0 36 -9 56 -34 67c-24 12 -63 13 -123 13c-3 -19 -12 -47 -22 -65c43 2 83 1 94 1c12 -1 16 -4 16 -17v-494h-166v87h130v54h-130v83h101v206h-205v40h-53v-246h97v-83h-129v-54h129v-87h-165v578h-68v-641h333c16 -37 35 -89 46 -127h-396v-62h257
c-8 -25 -19 -51 -30 -74l63 -18c17 27 32 63 40 92h233z" />
</svg>
