<?xml version="1.0" standalone="no"?>
<!DOCTYPE svg PUBLIC "-//W3C//DTD SVG 1.1//EN" "http://www.w3.org/Graphics/SVG/1.1/DTD/svg11.dtd" >
<svg xmlns="http://www.w3.org/2000/svg" xmlns:xlink="http://www.w3.org/1999/xlink" version="1.1" viewBox="-10 0 1010 1000">
   <path fill="currentColor"
d="M285 313h-100c-17 97 -38 192 -56 271c30 21 62 45 91 70c33 -91 54 -205 65 -341zM369 805l-51 49c-18 -26 -44 -56 -74 -87c-43 82 -98 142 -165 186c-10 -18 -28 -43 -43 -57c64 -36 116 -96 157 -178c-44 -39 -91 -78 -136 -109c23 -76 47 -184 67 -296h-80v-64h91
c11 -73 21 -144 27 -207l62 3c-7 63 -17 133 -29 204h106l12 -2l40 6c-9 190 -35 336 -80 448c40 36 73 73 96 104zM403 919l-53 -34c34 -42 57 -114 68 -175l55 20c-11 63 -33 141 -70 189zM525 726l53 -12c12 52 19 120 18 163l-56 11c2 -43 -4 -109 -15 -162zM636 723
l48 -16c22 41 40 95 47 130l-51 19c-6 -36 -24 -92 -44 -133zM950 419h-417c-5 24 -10 50 -16 76h422v54h-434c-5 24 -11 48 -17 69h459s0 19 -1 29c-8 186 -17 255 -38 280c-15 16 -32 23 -57 24c-23 2 -67 2 -111 -1c-2 -17 -8 -40 -16 -56c43 5 84 5 98 5
c15 0 24 -1 31 -9c13 -16 21 -72 27 -215h-474c21 -67 45 -173 62 -256h-100v-57h107v-156h63v156h105v-214h-250v-57h547v57h-231v77h193v55h-193v82h241v57zM752 719l45 -19c25 34 50 80 60 111l-47 22c-10 -31 -34 -79 -58 -114z" />
</svg>
