<?xml version="1.0" standalone="no"?>
<!DOCTYPE svg PUBLIC "-//W3C//DTD SVG 1.1//EN" "http://www.w3.org/Graphics/SVG/1.1/DTD/svg11.dtd" >
<svg xmlns="http://www.w3.org/2000/svg" xmlns:xlink="http://www.w3.org/1999/xlink" version="1.1" viewBox="-10 0 1010 1000">
   <path fill="currentColor"
d="M253 312h-74c-17 100 -37 198 -55 274c23 25 47 52 69 79c31 -95 51 -213 60 -353zM278 247l35 5c-9 198 -33 351 -77 469c29 36 51 71 66 101l-39 50c-13 -26 -31 -56 -53 -88c-34 74 -78 129 -130 171c-9 -15 -27 -38 -40 -49c52 -38 95 -97 130 -177
c-36 -45 -74 -90 -111 -128c22 -74 44 -180 63 -289h-67v-63h77c11 -72 20 -142 25 -205l59 2c-6 63 -16 132 -27 203h78zM856 289h-96c-2 10 -5 20 -7 29c8 92 22 194 50 289c28 -91 45 -198 53 -318zM581 517v-162h-63v162h63zM397 355v162h70v-162h-70zM957 289h-40
c-13 160 -36 298 -83 411c33 78 76 146 136 196c-14 12 -38 42 -47 59c-53 -48 -93 -111 -124 -179c-39 72 -91 133 -158 181c-10 -13 -32 -36 -46 -46c77 -54 133 -125 174 -214c-28 -84 -46 -173 -56 -256c-12 31 -26 59 -41 85c-8 -10 -22 -29 -36 -41v90h-111v29
c29 29 113 123 133 146l-43 51c-17 -27 -57 -78 -90 -119v275h-65v-260c-33 82 -76 159 -122 206c-7 -18 -21 -42 -32 -58c57 -58 113 -168 145 -270h-106v-278h115v-85h-137v-63h137v-107h66v107h129v63h-129v85h110v153c53 -103 81 -253 97 -405l67 9
c-7 58 -16 116 -26 172h183v63z" />
</svg>
