<?xml version="1.0" standalone="no"?>
<!DOCTYPE svg PUBLIC "-//W3C//DTD SVG 1.1//EN" "http://www.w3.org/Graphics/SVG/1.1/DTD/svg11.dtd" >
<svg xmlns="http://www.w3.org/2000/svg" xmlns:xlink="http://www.w3.org/1999/xlink" version="1.1" viewBox="-10 0 1010 1000">
   <path fill="currentColor"
d="M277 321h-93c-16 91 -33 179 -50 252c27 21 55 45 83 68c30 -88 50 -195 60 -320zM365 776l-46 53c-19 -21 -46 -49 -76 -78c-42 90 -97 157 -164 205c-10 -17 -29 -41 -45 -55c65 -41 118 -106 158 -198c-44 -39 -90 -78 -131 -111c20 -71 40 -169 58 -271h-76v-68h87
c11 -73 20 -147 25 -211l66 3c-6 64 -15 136 -27 208h99l12 -3l40 8c-10 177 -34 318 -76 429c39 33 72 64 96 89zM587 281h-125v233c0 133 -13 319 -97 445c-12 -12 -39 -34 -53 -41c77 -117 86 -281 86 -405v-290h198v-179h68v68h257v53h-257v58h232l10 -2l45 9
c-10 48 -25 104 -38 138l-56 -9c7 -20 14 -50 20 -78h-226v53l151 -14l6 45l-157 15v32c0 20 7 24 42 24h128c26 0 31 -7 34 -51c14 9 36 16 54 19c-6 63 -25 80 -80 80h-141c-80 0 -101 -14 -101 -72v-27l-104 10l-4 -46l108 -10v-58zM954 723v56h-210v101
c0 36 -8 52 -34 62c-27 10 -70 10 -134 10c-2 -18 -11 -41 -20 -59c49 2 93 2 106 2c14 -1 17 -5 17 -16v-100h-209v-56h95c-9 -27 -27 -63 -43 -89l49 -15c21 30 42 70 49 97l-19 7h78v-134c-61 5 -123 8 -180 9c-2 -14 -10 -34 -15 -49c136 -7 305 -22 404 -41l26 52
c-48 10 -107 17 -170 23v140h63l-3 -1c16 -31 38 -80 49 -112l53 17c-18 33 -35 69 -50 96h98z" />
</svg>
