<?xml version="1.0" standalone="no"?>
<!DOCTYPE svg PUBLIC "-//W3C//DTD SVG 1.1//EN" "http://www.w3.org/Graphics/SVG/1.1/DTD/svg11.dtd" >
<svg xmlns="http://www.w3.org/2000/svg" xmlns:xlink="http://www.w3.org/1999/xlink" version="1.1" viewBox="-10 0 1010 1000">
   <path fill="currentColor"
d="M286 310h-96c-17 98 -38 193 -57 273c28 22 58 45 86 69c34 -93 56 -207 67 -342zM316 239l43 7c-11 191 -39 340 -86 456c45 41 83 82 106 116l-52 52c-19 -30 -50 -64 -84 -101c-42 80 -96 140 -160 184c-10 -19 -30 -44 -46 -59c62 -37 113 -96 153 -176
c-43 -40 -90 -78 -133 -109c23 -78 46 -186 66 -299h-74v-69h84c11 -68 20 -135 25 -195l68 4c-6 59 -15 125 -26 191h103zM496 284v74h306v-74h-306zM952 696h-266v80h224v60h-224v122h-72v-122h-209v-60h209v-80h-253v-61h153c-9 -24 -29 -56 -46 -80l56 -22h-134v-59h234
c-9 -18 -19 -37 -29 -53l38 -12h-205v-176h186v-56h-250v-59h250v-74h72v74h254v59h-254v56h188v176h-208c14 20 26 45 36 65h229v59h-403c21 26 41 62 51 86l-38 16h174c19 -31 40 -71 52 -99l74 18c-17 27 -36 56 -54 81h165v61z" />
</svg>
