<?xml version="1.0" standalone="no"?>
<!DOCTYPE svg PUBLIC "-//W3C//DTD SVG 1.1//EN" "http://www.w3.org/Graphics/SVG/1.1/DTD/svg11.dtd" >
<svg xmlns="http://www.w3.org/2000/svg" xmlns:xlink="http://www.w3.org/1999/xlink" version="1.1" viewBox="-10 0 1010 1000">
   <path fill="currentColor"
d="M249 321h-80c-13 89 -29 176 -44 247c26 22 51 45 76 70c24 -88 40 -194 48 -317zM274 251l35 6c-8 178 -28 318 -61 428c28 30 51 58 68 84l-38 56c-13 -22 -32 -46 -54 -72c-36 92 -84 159 -145 207c-8 -18 -24 -43 -37 -57c58 -41 104 -107 138 -200
c-37 -40 -79 -79 -117 -111c17 -70 36 -168 51 -271h-71v-68h81c11 -73 19 -145 23 -208l56 2c-5 63 -14 134 -24 206h84zM525 72l43 25c-19 86 -46 199 -71 291c50 90 61 167 61 232c0 54 -8 101 -30 120c-11 9 -26 14 -43 17c-14 2 -33 2 -51 1c0 -17 -6 -42 -16 -60
c17 1 30 1 42 1c10 0 17 -3 24 -9c11 -11 15 -45 15 -77c-1 -59 -9 -131 -58 -220c22 -82 41 -184 55 -257h-91v819h-61v-880h170zM670 753h183v-70h-183v70zM853 564h-183v66h183v-66zM919 509v376c0 33 -6 50 -28 61c-22 10 -57 11 -107 11c-3 -18 -12 -43 -21 -60
c36 1 67 1 77 1c10 -1 13 -4 13 -13v-78h-183v152h-65v-450h314zM956 190h-249c-7 22 -14 43 -23 65h239v54h-99v88h130v55h-333v-55h141v-88h-85v-36c-27 63 -63 122 -109 164c-10 -11 -31 -29 -44 -39c57 -52 95 -129 119 -208h-82v-59h99c7 -29 12 -60 16 -87l64 8
c-4 25 -10 52 -16 79h232v59z" />
</svg>
