<?xml version="1.0" standalone="no"?>
<!DOCTYPE svg PUBLIC "-//W3C//DTD SVG 1.1//EN" "http://www.w3.org/Graphics/SVG/1.1/DTD/svg11.dtd" >
<svg xmlns="http://www.w3.org/2000/svg" xmlns:xlink="http://www.w3.org/1999/xlink" version="1.1" viewBox="-10 0 1010 1000">
   <path fill="currentColor"
d="M652 528h114v-79h-94v-53h94v-65h60v65h99v53h-99v79h123v54h-297v-54zM939 258v57h-553v-57h236v-80h-189v-57h189v-76h68v76h197v57h-197v80h249zM633 564l-255 39l-12 -57l114 -14v-83h-93v-53h93v-65h60v65h84v53h-84v76l92 -11zM286 319h-93c-16 90 -34 177 -55 250
c31 22 61 47 92 72c28 -88 46 -195 56 -322zM381 796l-46 52c-18 -28 -46 -59 -78 -91c-41 89 -96 155 -165 202c-9 -18 -28 -43 -43 -56c65 -41 117 -105 156 -196c-44 -41 -92 -81 -137 -114l-2 -1c23 -71 45 -169 62 -273h-74v-66h83c11 -72 19 -143 25 -208l70 7
c-8 63 -17 131 -28 201h97l13 -2l40 6c-9 180 -33 321 -71 433c40 37 76 75 98 106zM796 882h80c22 0 26 -12 28 -102c15 11 43 21 62 26c-7 109 -26 137 -82 137h-97c-71 0 -88 -20 -88 -86v-158h-96c-17 135 -67 214 -232 258c-7 -17 -26 -45 -40 -58
c146 -34 189 -93 202 -200h-165v-63h585v63h-184v158c0 22 4 25 27 25z" />
</svg>
