<?xml version="1.0" standalone="no"?>
<!DOCTYPE svg PUBLIC "-//W3C//DTD SVG 1.1//EN" "http://www.w3.org/Graphics/SVG/1.1/DTD/svg11.dtd" >
<svg xmlns="http://www.w3.org/2000/svg" xmlns:xlink="http://www.w3.org/1999/xlink" version="1.1" viewBox="-10 0 1010 1000">
   <path fill="currentColor"
d="M280 317h-93c-17 96 -37 189 -58 266c28 22 58 46 86 72c33 -91 54 -203 65 -338zM307 247l41 6c-10 190 -36 337 -80 451c45 42 84 86 108 122l-50 52c-20 -32 -52 -69 -87 -107c-43 81 -98 141 -164 184c-10 -17 -28 -44 -43 -59c63 -36 115 -95 156 -176
c-43 -40 -87 -78 -130 -110l-2 -1v-1v-1c26 -75 48 -180 66 -290h-79v-68h89c11 -72 19 -143 25 -207l68 7c-8 63 -17 131 -28 200h99zM620 627h-126v88h126v-88zM814 715v-88h-131v88h131zM683 861h131v-92h-131v92zM494 861h126v-92h-126v92zM950 367h-213
c56 68 145 133 226 164c-14 13 -34 37 -44 55c-84 -40 -175 -119 -235 -200v159h-65v-157c-48 69 -116 135 -184 180h444v385h-65v-32h-320v36h-63v-387c-14 10 -28 19 -42 26c-10 -17 -29 -41 -42 -52c78 -36 166 -104 222 -177h-203v-63h130c-10 -33 -32 -81 -54 -117
l54 -22c25 36 50 87 59 120l-43 19h107v-158c-70 9 -144 15 -212 20c-1 -16 -10 -39 -17 -54c158 -13 345 -37 446 -69l49 52c-56 17 -127 31 -201 43v166h57c21 -44 48 -109 61 -154l65 23c-20 43 -43 92 -65 131h148v63z" />
</svg>
