<?xml version="1.0" standalone="no"?>
<!DOCTYPE svg PUBLIC "-//W3C//DTD SVG 1.1//EN" "http://www.w3.org/Graphics/SVG/1.1/DTD/svg11.dtd" >
<svg xmlns="http://www.w3.org/2000/svg" xmlns:xlink="http://www.w3.org/1999/xlink" version="1.1" viewBox="-10 0 1010 1000">
   <path fill="currentColor"
d="M671 399v-70h-192v-56h116c-5 -26 -16 -62 -32 -89l54 -13c17 28 32 69 37 95l-24 7h127c14 -31 33 -76 42 -105h-298v-54h179c-6 -20 -15 -40 -23 -58l67 -16c13 22 25 50 31 74h170v54h-123l56 17c-14 30 -28 62 -42 88h131v56h-207v70h179v55h-179v98h-69v-98h-169
v-55h169zM669 670h-289c-20 28 -42 55 -61 78c77 14 154 30 228 46c53 -31 94 -72 122 -124zM220 382v91h176v-91h-176zM386 136h-214v76v7h214v-83zM951 670h-203c-27 59 -65 107 -114 145c118 28 224 58 304 87l-65 57c-81 -33 -191 -66 -318 -96c-112 55 -266 81 -466 94
c-5 -22 -15 -47 -27 -64c162 -6 289 -22 387 -55c-80 -18 -164 -35 -252 -50c31 -33 65 -74 98 -118h-245v-61h288c19 -29 36 -58 51 -85h-230v-171c-12 61 -33 122 -73 171c-9 -14 -36 -38 -50 -47c62 -81 70 -186 70 -266v-129h346v191h-282c-2 18 -4 39 -7 58h296v193
h-62l66 19c-12 21 -26 44 -40 66h528v61z" />
</svg>
