<?xml version="1.0" standalone="no"?>
<!DOCTYPE svg PUBLIC "-//W3C//DTD SVG 1.1//EN" "http://www.w3.org/Graphics/SVG/1.1/DTD/svg11.dtd" >
<svg xmlns="http://www.w3.org/2000/svg" xmlns:xlink="http://www.w3.org/1999/xlink" version="1.1" viewBox="-10 0 1010 1000">
   <path fill="currentColor"
d="M844 235v-102h-87v102h87zM704 235v-102h-85v102h85zM567 235v-102h-84v102h84zM908 79v210h-487v-210h487zM952 339v61h-571v-61h571zM504 511v94h320v-94h-320zM285 321h-97c-15 92 -33 181 -50 254c27 22 55 47 84 70c31 -88 52 -196 63 -324zM898 662l50 43
c-44 31 -95 64 -141 89c44 44 98 78 162 96c-16 13 -35 39 -44 57c-128 -44 -218 -144 -267 -272c-24 23 -53 46 -84 67v128l160 -38c-1 17 0 43 1 55c-200 52 -230 60 -247 72c-3 -15 -15 -41 -24 -55c18 -6 45 -19 45 -56v-66c-40 22 -81 41 -121 54
c-10 -16 -28 -40 -42 -53l-33 43c-17 -21 -41 -44 -66 -70c-44 89 -100 154 -169 201c-10 -17 -28 -42 -43 -56c65 -40 119 -105 161 -194c-43 -40 -90 -80 -130 -115c19 -70 40 -168 57 -271h-80v-68h91c11 -74 20 -147 25 -211l66 3c-6 64 -15 135 -27 208h103l12 -3l40 9
c-10 180 -36 323 -79 434c32 29 60 56 81 79l-8 11c84 -24 180 -71 247 -123h-156v-205h456v205h-178c15 34 34 67 56 96c44 -28 94 -66 126 -94z" />
</svg>
