<?xml version="1.0" standalone="no"?>
<!DOCTYPE svg PUBLIC "-//W3C//DTD SVG 1.1//EN" "http://www.w3.org/Graphics/SVG/1.1/DTD/svg11.dtd" >
<svg xmlns="http://www.w3.org/2000/svg" xmlns:xlink="http://www.w3.org/1999/xlink" version="1.1" viewBox="-10 0 1010 1000">
   <path fill="currentColor"
d="M381 160h-182c12 23 24 52 31 74h121c12 -25 23 -54 30 -74zM514 234v53h-467v-53h122c-6 -20 -16 -44 -25 -63l39 -11h-112v-51h193c-6 -18 -14 -36 -21 -52l57 -18c13 21 24 48 31 70h172v51h-105l49 9c-11 21 -22 45 -34 65h101zM671 699h-303c-19 24 -37 45 -55 65
c79 13 159 28 234 44c53 -28 94 -64 124 -109zM180 473v57h225v-57h-225zM180 375v55h225v-55h-225zM371 576l68 20c-8 14 -18 29 -29 45h541v58h-203c-27 52 -65 94 -114 128c113 27 214 54 293 81l-55 52c-82 -30 -190 -61 -316 -89c-113 50 -266 74 -463 86
c-5 -20 -15 -44 -25 -60c157 -6 283 -21 381 -50c-80 -17 -166 -32 -253 -47h-2c28 -28 59 -64 89 -101h-233v-58h276c15 -22 29 -44 41 -65h-245v-247h343v247h-94zM752 225l-1 6c27 148 86 255 211 300c-15 12 -33 38 -43 57c-98 -42 -157 -116 -194 -219
c-31 98 -89 173 -205 222c-8 -17 -27 -41 -41 -52c151 -59 190 -168 205 -314h-64c-21 53 -46 101 -76 138c-10 -10 -38 -29 -53 -38c56 -68 92 -171 111 -278l64 10c-7 36 -16 73 -26 107h244l13 -3l46 13c-16 61 -38 130 -58 173l-57 -15c11 -28 23 -68 33 -107h-109z" />
</svg>
