<?xml version="1.0" standalone="no"?>
<!DOCTYPE svg PUBLIC "-//W3C//DTD SVG 1.1//EN" "http://www.w3.org/Graphics/SVG/1.1/DTD/svg11.dtd" >
<svg xmlns="http://www.w3.org/2000/svg" xmlns:xlink="http://www.w3.org/1999/xlink" version="1.1" viewBox="-10 0 1010 1000">
   <path fill="currentColor"
d="M683 395l-21 -55c50 -18 120 -49 192 -78v-127h-188v-55h253v327h-65v-89c-60 27 -121 55 -171 77zM817 237l-44 36c-20 -22 -60 -58 -91 -83l42 -31c30 23 72 57 93 78zM565 265v-130h-194v-55h254v313h-60v-73c-61 31 -121 62 -172 86l-22 -55c50 -20 121 -53 194 -86z
M524 242l-41 40c-21 -23 -63 -61 -95 -88l39 -34c31 24 74 60 97 82zM284 319h-95c-16 95 -34 187 -52 261c27 23 55 48 83 73c32 -90 53 -202 64 -334zM312 249l42 6c-10 189 -36 335 -81 449c42 39 78 76 103 106l-47 51c-21 -27 -51 -58 -84 -94c-43 84 -97 145 -163 190
c-11 -18 -30 -43 -45 -58c64 -37 116 -98 156 -182c-43 -42 -89 -84 -129 -121c20 -72 41 -172 59 -277h-81v-68h91c11 -70 19 -140 24 -201l67 3c-5 61 -14 130 -25 198h101zM488 786v72h175v-72h-175zM663 614v-69h-175v69h175zM663 734v-67h-175v67h175zM951 858v58h-463
v38h-67v-330c-20 25 -42 50 -63 70c-7 -14 -23 -46 -35 -60c65 -64 131 -163 163 -242l68 26c-11 22 -25 46 -38 69h146c-8 -22 -20 -47 -30 -67l61 -20c15 27 30 60 41 87h196v58h-201v69h169v53h-169v67h169v52h-169v72h222z" />
</svg>
