<?xml version="1.0" standalone="no"?>
<!DOCTYPE svg PUBLIC "-//W3C//DTD SVG 1.1//EN" "http://www.w3.org/Graphics/SVG/1.1/DTD/svg11.dtd" >
<svg xmlns="http://www.w3.org/2000/svg" xmlns:xlink="http://www.w3.org/1999/xlink" version="1.1" viewBox="-10 0 1010 1000">
   <path fill="currentColor"
d="M600 220v-57h-251v-48h251v-67h73v67h268v48h-268v57h232v48h-517v-48h212zM913 456l-55 -15c8 -22 16 -53 23 -82h-541v-50h559l11 -3l43 13c-11 47 -27 102 -40 137zM364 492h230v-46h-179v-44h422v44h-175v46h232v45h-530v-45zM262 317h-88c-14 96 -33 190 -53 266
c27 23 54 46 81 72c30 -91 50 -203 60 -338zM288 247l37 6c-9 190 -33 337 -75 450c38 39 69 77 90 110l-46 52c-16 -28 -42 -60 -71 -95c-40 82 -90 141 -152 184c-8 -17 -25 -44 -39 -58c59 -37 107 -95 144 -177c-38 -38 -78 -76 -117 -108l-4 -1c23 -76 44 -182 61 -293
h-72v-68h82c9 -72 17 -143 23 -206l62 6c-7 63 -16 132 -26 200h92zM520 724h-107v109h107v-109zM576 677v203h-163v44h-57v-247h220zM741 851l-47 32c-13 -27 -45 -70 -75 -98l45 -29c30 28 63 67 77 95zM856 638v60h92v50h-92v143c0 33 -6 49 -30 58s-61 9 -117 9
c-2 -17 -12 -38 -20 -55c41 1 75 1 86 0c11 0 14 -3 14 -13v-142h-190v-50h190v-60h67zM322 582h636v50h-636v-50z" />
</svg>
