<?xml version="1.0" standalone="no"?>
<!DOCTYPE svg PUBLIC "-//W3C//DTD SVG 1.1//EN" "http://www.w3.org/Graphics/SVG/1.1/DTD/svg11.dtd" >
<svg xmlns="http://www.w3.org/2000/svg" xmlns:xlink="http://www.w3.org/1999/xlink" version="1.1" viewBox="-10 0 1010 1000">
   <path fill="currentColor"
d="M639 638l-56 16c-2 -16 -6 -37 -10 -59c-156 26 -180 32 -195 41c-3 -13 -12 -42 -19 -58c17 -3 36 -20 57 -46c13 -14 40 -49 72 -93c-83 10 -101 14 -113 19c-4 -14 -13 -44 -20 -59c13 -2 25 -13 38 -30c12 -16 57 -81 82 -145l57 25c-26 50 -58 101 -89 141l81 -7
c15 -23 29 -47 42 -72l50 31c-46 78 -102 156 -158 219l105 -16c-4 -20 -9 -40 -14 -58l52 -11c15 53 31 123 38 162zM736 760l-48 39c-25 -32 -77 -74 -123 -102l46 -34c45 25 99 65 125 97zM934 625l-49 21c-4 -15 -10 -33 -18 -53c-167 22 -193 28 -208 36
c-4 -12 -12 -42 -19 -58c15 -3 33 -20 54 -45c11 -13 38 -49 67 -93c-84 8 -104 13 -114 18c-4 -13 -13 -43 -20 -58c12 -3 23 -13 36 -29c12 -16 54 -77 77 -138l56 25c-24 48 -54 97 -85 135l83 -6c12 -20 24 -42 35 -63l53 31c-44 75 -96 150 -150 210l117 -13
c-9 -23 -18 -44 -27 -64l48 -16c25 52 52 121 64 160zM929 156v64h-576v-65h157c-14 -25 -34 -56 -51 -78l54 -29c27 34 56 77 71 104l-6 3l117 1c23 -35 48 -79 63 -112l67 22c-19 30 -38 62 -58 90h162zM275 319h-90c-16 89 -35 177 -51 248c27 21 56 46 84 70
c28 -87 47 -193 57 -318zM351 772l-45 52c-15 -22 -39 -50 -65 -77c-41 90 -96 156 -164 203c-9 -16 -26 -39 -40 -52c64 -40 117 -106 157 -198c-41 -39 -86 -78 -127 -110c20 -71 41 -170 60 -271h-84v-68h96c10 -71 20 -142 25 -205l60 3c-7 62 -16 132 -28 202h93l12 -2
l37 6c-9 177 -32 318 -71 428c34 32 63 63 84 89zM376 919l-52 -34c33 -42 60 -115 75 -169l54 21c-17 59 -41 134 -77 182zM580 887h144c32 0 37 -9 41 -79c14 10 39 19 58 23c-7 91 -27 113 -91 113h-157c-86 0 -107 -17 -107 -82v-149h64v148c0 22 7 26 48 26zM790 729
l58 -21c44 57 85 136 99 188l-62 25c-14 -52 -54 -132 -95 -192z" />
</svg>
