<?xml version="1.0" standalone="no"?>
<!DOCTYPE svg PUBLIC "-//W3C//DTD SVG 1.1//EN" "http://www.w3.org/Graphics/SVG/1.1/DTD/svg11.dtd" >
<svg xmlns="http://www.w3.org/2000/svg" xmlns:xlink="http://www.w3.org/1999/xlink" version="1.1" viewBox="-10 0 1010 1000">
   <path fill="currentColor"
d="M929 135h-748v238c0 164 -9 407 -81 572c-13 -11 -43 -26 -60 -31c69 -160 74 -384 74 -541v-293h815v55zM800 183l41 -26c30 24 62 59 78 83l-44 30c-15 -25 -46 -62 -75 -87zM295 261v30h173v-30h-173zM295 199v30h173v-30h-173zM525 323h-285v-155h285v155zM281 481
h202v-31h-202v31zM483 389h-202v28h202v-28zM695 706h-212c-18 25 -36 47 -53 68c55 10 111 23 164 36c43 -28 76 -62 101 -104zM925 330h-154c28 98 87 175 178 208c-14 11 -32 32 -40 49c-81 -35 -137 -102 -170 -189c-20 68 -64 135 -157 187c-8 -12 -26 -30 -40 -40
c-2 21 -9 29 -27 36l-5 2l45 13c-10 18 -21 35 -33 53h416v57h-174c-22 49 -54 89 -96 123c94 24 178 50 241 74l-59 48c-63 -26 -149 -54 -247 -80c-87 45 -202 71 -350 87c-4 -19 -15 -41 -26 -56c117 -9 212 -25 286 -54c-62 -15 -128 -29 -195 -42
c26 -27 56 -63 84 -100h-204v-57h245c14 -22 27 -42 38 -62c-19 1 -44 1 -75 1c-4 -14 -12 -28 -19 -40c37 1 73 1 82 1c10 -1 14 -4 14 -13v-22h-202v79h-60v-241h321v184v6c107 -60 141 -139 150 -212h-134v-53h137v-120h60v120h170v53z" />
</svg>
