<?xml version="1.0" standalone="no"?>
<!DOCTYPE svg PUBLIC "-//W3C//DTD SVG 1.1//EN" "http://www.w3.org/Graphics/SVG/1.1/DTD/svg11.dtd" >
<svg xmlns="http://www.w3.org/2000/svg" xmlns:xlink="http://www.w3.org/1999/xlink" version="1.1" viewBox="-10 0 1010 1000">
   <path fill="currentColor"
d="M162 268v-112h-118v-53h428c-9 -18 -19 -36 -28 -52l67 -16c15 21 31 47 41 68h400v53h-728v60h664v52h-726zM235 356v55h530v-55h-530zM836 459h-668v-151h668v151zM158 736h111v-70h-109v8c0 19 -1 41 -2 62zM269 551h-109v65h109v-65zM325 500v386c0 30 -6 45 -27 55
c-20 10 -55 10 -107 10c-2 -16 -9 -38 -17 -53c38 1 70 1 81 1c11 -1 14 -4 14 -13v-100h-117c-10 60 -29 122 -69 168c-8 -10 -33 -27 -47 -32c62 -73 69 -173 69 -249v-173h220zM534 606h-77c-14 43 -30 84 -45 119c21 13 42 28 63 44c27 -44 46 -98 59 -163zM581 853
l-39 37c-14 -14 -32 -29 -52 -46c-37 46 -82 79 -134 102c-5 -14 -19 -35 -31 -47c47 -19 87 -48 122 -89c-33 -25 -68 -49 -98 -70c17 -36 36 -84 53 -134h-56v-53h72c9 -29 17 -59 23 -86l57 5c-7 25 -15 54 -23 81h76l11 -1l33 5c-13 102 -39 182 -75 244
c24 19 45 37 61 52zM681 627l37 -16c33 50 64 115 82 163v-220h-119v73zM872 902h19c6 0 13 -1 16 -4s7 -9 9 -21s3 -40 3 -77c12 10 29 19 44 23c-1 36 -4 76 -8 90c-5 15 -13 25 -22 30c-10 6 -24 8 -38 8h-35c-17 0 -33 -4 -44 -15c-13 -11 -16 -25 -16 -86v-60l-42 19
c-14 -46 -46 -114 -77 -168v24c0 94 -18 214 -108 295c-10 -11 -33 -28 -47 -34c85 -76 98 -180 98 -262v-164h232v357c0 21 0 37 4 41c2 3 6 4 12 4z" />
</svg>
