<?xml version="1.0" standalone="no"?>
<!DOCTYPE svg PUBLIC "-//W3C//DTD SVG 1.1//EN" "http://www.w3.org/Graphics/SVG/1.1/DTD/svg11.dtd" >
<svg xmlns="http://www.w3.org/2000/svg" xmlns:xlink="http://www.w3.org/1999/xlink" version="1.1" viewBox="-10 0 1010 1000">
   <path fill="currentColor"
d="M437 195v92h-65v-152h255c-16 -26 -39 -58 -61 -80l60 -29c31 30 61 70 77 98l-22 11h262v151h-66v-91h-440zM284 321h-91c-16 88 -34 175 -54 246c30 23 60 47 90 72c27 -87 45 -193 55 -318zM312 251l41 6c-9 179 -32 320 -70 431c39 37 74 73 96 104l-44 56
c-18 -27 -47 -60 -79 -92c-41 90 -96 155 -165 203c-9 -17 -29 -43 -45 -57c66 -40 119 -105 158 -196c-45 -41 -93 -81 -138 -114c23 -71 44 -169 62 -271h-85v-68h94c11 -72 19 -143 25 -208l70 7c-8 63 -17 131 -28 201h96zM451 637h406c-63 -39 -126 -91 -170 -146v130
h-66v-124c-45 52 -106 102 -170 140zM686 874h130v-67h-130v67zM498 807v67h123v-67h-123zM621 758v-66h-123v66h123zM816 758v-66h-130v66h130zM954 483h-203c57 59 145 114 225 140c-15 13 -34 37 -44 52c-15 -7 -30 -13 -46 -22v300h-70v-25h-318v28h-67v-307
c-21 11 -41 21 -61 29c-10 -15 -28 -38 -43 -51c80 -28 172 -84 233 -144h-199v-59h149c-18 -26 -45 -56 -71 -80l49 -26c33 28 69 68 84 96l-16 10h65v-115c-55 5 -111 8 -161 9c-3 -14 -10 -35 -17 -50c126 -5 286 -20 371 -44l36 49c-45 13 -101 23 -163 30v121h51
c25 -33 56 -82 72 -116l60 25c-21 32 -45 64 -67 91h151v59z" />
</svg>
