<?xml version="1.0" standalone="no"?>
<!DOCTYPE svg PUBLIC "-//W3C//DTD SVG 1.1//EN" "http://www.w3.org/Graphics/SVG/1.1/DTD/svg11.dtd" >
<svg xmlns="http://www.w3.org/2000/svg" xmlns:xlink="http://www.w3.org/1999/xlink" version="1.1" viewBox="-10 0 1010 1000">
   <path fill="currentColor"
d="M947 127v60h-596v-60h267c-8 -25 -20 -51 -32 -73l60 -17c17 27 33 63 42 90h259zM565 591v52h147v-52h-147zM565 492v51h147v-51h-147zM266 322h-81c-15 93 -32 183 -48 255c23 22 48 45 71 69c30 -89 49 -197 58 -324zM449 270v77h110v-77h-110zM727 270v78h112v-78
h-112zM880 706l47 38c-39 28 -89 55 -131 76c46 36 103 62 168 78c-14 14 -32 37 -41 55c-136 -40 -235 -128 -288 -249c-29 26 -64 50 -103 70v101l156 -33c-1 16 1 40 3 52c-187 46 -214 55 -231 66c-3 -16 -14 -42 -22 -55c13 -6 31 -16 31 -51v-49
c-41 17 -85 33 -126 45c-6 -11 -23 -34 -34 -47l-21 24c-15 -18 -34 -42 -56 -66c-39 83 -88 147 -148 193c-10 -17 -28 -40 -43 -53c58 -40 106 -104 143 -191c-39 -41 -81 -83 -118 -118c18 -70 37 -168 53 -270h-76v-69h87c11 -74 19 -147 24 -211l66 2
c-6 65 -15 136 -25 209h87l11 -2l39 7c-9 181 -33 325 -74 438c30 29 55 58 74 80l-18 21c89 -23 183 -56 247 -100h-218v-54h158v-52h-102v-48h102v-51h-130v-53h130v-50h-106v-162h220v162h-50v50h147v-48h-41v-164h226v164h-121v48h145v53h-145v51h125v48h-125v52h173v54
h-254c15 32 36 61 61 87c42 -23 94 -55 124 -78z" />
</svg>
