<?xml version="1.0" standalone="no"?>
<!DOCTYPE svg PUBLIC "-//W3C//DTD SVG 1.1//EN" "http://www.w3.org/Graphics/SVG/1.1/DTD/svg11.dtd" >
<svg xmlns="http://www.w3.org/2000/svg" xmlns:xlink="http://www.w3.org/1999/xlink" version="1.1" viewBox="-10 0 1010 1000">
   <path fill="currentColor"
d="M718 811h-133v54h133v-54zM928 631v253c0 32 -6 46 -29 56c-21 9 -56 9 -108 9c-3 -17 -9 -36 -18 -52c38 1 66 1 76 0c11 0 13 -3 13 -13v-202h-134c43 26 91 56 119 78l-28 35c-32 -26 -92 -68 -142 -96l16 -17h-96l29 10c-27 27 -61 55 -95 80h239v133h-185v30h-56
v-161c-13 9 -25 17 -37 23l-41 -28c41 -21 90 -53 126 -87h-137v275h-65v-326h553zM481 501v45h162v-45h-162zM501 220l32 9c-10 19 -21 38 -33 56h138c-7 -17 -15 -36 -23 -51l45 -14h-159zM643 374v-42h-162v42h162zM643 459v-43h-162v43h162zM265 317h-83
c-17 97 -36 191 -57 268c26 22 53 44 79 69c31 -90 51 -203 61 -337zM709 546h228v47h-456v27h-66v-231c-18 18 -36 35 -54 48c-9 -11 -29 -33 -43 -45c-13 125 -34 226 -65 310c37 37 67 74 88 106l-45 53c-17 -28 -42 -59 -71 -92c-39 82 -90 142 -152 186
c-8 -18 -26 -44 -40 -59c59 -36 107 -95 145 -177c-40 -39 -82 -78 -122 -109c24 -76 47 -181 65 -293h-67v-68h76c10 -72 18 -143 24 -207l65 7c-7 63 -16 131 -27 200h87l11 -2l38 6c-2 48 -6 94 -10 138c59 -44 115 -105 150 -171h-80v-148h66v95h162v-123h65v123h163
v-95h68v148h-237c11 20 23 46 32 65h213v47h-211v42h182v42h-182v43h182v42h-182v45z" />
</svg>
