<?xml version="1.0" standalone="no"?>
<!DOCTYPE svg PUBLIC "-//W3C//DTD SVG 1.1//EN" "http://www.w3.org/Graphics/SVG/1.1/DTD/svg11.dtd" >
<svg xmlns="http://www.w3.org/2000/svg" xmlns:xlink="http://www.w3.org/1999/xlink" version="1.1" viewBox="-10 0 1010 1000">
   <path fill="currentColor"
d="M282 321h-98c-16 91 -34 180 -50 252c28 24 56 48 85 74c32 -89 53 -197 63 -326zM310 250l40 8c-10 181 -36 324 -79 437c42 37 79 74 104 102l-47 52c-21 -25 -51 -57 -85 -90c-42 86 -97 151 -164 197c-10 -16 -29 -41 -44 -55c65 -39 118 -103 158 -190
c-44 -42 -91 -84 -132 -119c20 -71 40 -169 58 -271h-76v-68h87c11 -74 20 -147 25 -211l66 3c-6 64 -15 135 -27 208h104zM492 797v62h175v-62h-175zM667 639v-60h-175v60h175zM667 748v-60h-175v60h175zM453 301v91h119v-91h-119zM736 301v91h125v-91h-125zM733 797v62
h219v56h-460v42h-67v-314c-20 22 -40 42 -60 59c-10 -12 -35 -34 -49 -46c67 -52 132 -131 172 -212h-92v-195h236v195h-133l52 16c-10 21 -22 43 -36 63h158c-15 -20 -31 -40 -48 -56l53 -27v-191h244v195h-238c25 24 51 55 66 79h188v56h-205v60h172v49h-172v60h170v49
h-170zM799 118h156v59h-156v56h-67v-56h-161v56h-66v-56h-151v-59h151v-74h66v74h161v-74h67v74z" />
</svg>
