<?xml version="1.0" standalone="no"?>
<!DOCTYPE svg PUBLIC "-//W3C//DTD SVG 1.1//EN" "http://www.w3.org/Graphics/SVG/1.1/DTD/svg11.dtd" >
<svg xmlns="http://www.w3.org/2000/svg" xmlns:xlink="http://www.w3.org/1999/xlink" version="1.1" viewBox="-10 0 1010 1000">
   <path fill="currentColor"
d="M556 378v200c127 56 269 98 411 123c-17 16 -38 50 -48 70c-125 -24 -248 -62 -363 -111v196c0 49 -13 72 -50 83c-36 12 -99 13 -194 13c-5 -21 -19 -54 -31 -74c78 2 151 2 172 1c20 -1 27 -6 27 -24v-230c-144 -70 -269 -160 -360 -264l63 -36c72 81 175 156 297 218
v-204c79 -38 171 -100 239 -157h-565v-73h643l17 -4l56 41c-83 84 -205 172 -314 232z" />
</svg>
