<?xml version="1.0" standalone="no"?>
<!DOCTYPE svg PUBLIC "-//W3C//DTD SVG 1.1//EN" "http://www.w3.org/Graphics/SVG/1.1/DTD/svg11.dtd" >
<svg xmlns="http://www.w3.org/2000/svg" xmlns:xlink="http://www.w3.org/1999/xlink" version="1.1" viewBox="-10 0 1010 1000">
   <path fill="currentColor"
d="M156 219v133h-73v-204h394c-14 -29 -33 -62 -52 -88l71 -24c26 34 53 78 67 112h353v204h-76v-133h-684zM926 579v71h-388v215c0 44 -11 66 -46 77c-35 12 -87 13 -170 13c-6 -21 -21 -54 -34 -73c68 2 132 2 149 1c19 -1 24 -5 24 -19v-214h-390v-71h390v-62
c58 -28 124 -73 174 -117h-400v-70h475l16 -4l51 39c-63 64 -152 131 -239 177v37h388z" />
</svg>
