<?xml version="1.0" standalone="no"?>
<!DOCTYPE svg PUBLIC "-//W3C//DTD SVG 1.1//EN" "http://www.w3.org/Graphics/SVG/1.1/DTD/svg11.dtd" >
<svg xmlns="http://www.w3.org/2000/svg" xmlns:xlink="http://www.w3.org/1999/xlink" version="1.1" viewBox="-10 0 1010 1000">
   <path fill="currentColor"
d="M463 467v-124h-391v-62h391v-63c67 -16 142 -42 202 -69h-491v-62h598l18 -3l50 42c-83 50 -196 95 -304 125v30h394v62h-394v126c0 40 -9 57 -41 67s-85 10 -169 10c-4 -19 -15 -43 -24 -61c64 2 123 2 139 0c17 -1 22 -4 22 -18zM398 597l50 -43c65 36 145 92 185 131
l-53 49c-38 -39 -117 -98 -182 -137zM109 894l-67 -38c57 -58 100 -151 125 -227l67 25c-28 79 -70 177 -125 240zM422 860h192c48 0 56 -16 61 -120c16 12 46 23 68 28c-10 128 -34 160 -123 160h-203c-107 0 -134 -21 -134 -101v-204h73v204c0 28 10 33 66 33zM721 646
l64 -32c65 70 138 164 170 227l-68 36c-29 -64 -100 -161 -166 -231z" />
</svg>
