<?xml version="1.0" standalone="no"?>
<!DOCTYPE svg PUBLIC "-//W3C//DTD SVG 1.1//EN" "http://www.w3.org/Graphics/SVG/1.1/DTD/svg11.dtd" >
<svg xmlns="http://www.w3.org/2000/svg" xmlns:xlink="http://www.w3.org/1999/xlink" version="1.1" viewBox="-10 0 1010 1000">
   <path fill="currentColor"
d="M388 523l-134 49v289c0 39 -9 60 -35 72c-24 12 -64 15 -128 14c-3 -20 -13 -50 -23 -71c45 2 86 1 98 1s17 -4 17 -16v-262c-45 17 -87 32 -124 45l-19 -71c39 -12 88 -29 143 -47v-211c40 -36 84 -90 115 -141h-237v-69h285l14 -4l48 33c-40 69 -98 148 -154 204v163
l124 -44zM880 42l57 58c-32 9 -68 18 -106 26c16 311 45 616 132 765c-17 13 -43 36 -56 56c-92 -170 -121 -478 -137 -809c-33 5 -67 11 -102 16v221c0 132 -2 307 -69 456l131 -33c-16 -51 -35 -103 -53 -147l51 -16c38 90 77 206 93 282l-55 19c-5 -24 -11 -51 -19 -81
c-159 46 -184 56 -200 67c-9 -14 -34 -42 -48 -53c103 -143 104 -341 104 -495v-211c-37 5 -75 10 -111 13v139c0 176 -16 447 -121 635c-11 -14 -41 -36 -55 -42c100 -178 109 -425 109 -593v-193c163 -18 349 -47 455 -80z" />
</svg>
