<?xml version="1.0" standalone="no"?>
<!DOCTYPE svg PUBLIC "-//W3C//DTD SVG 1.1//EN" "http://www.w3.org/Graphics/SVG/1.1/DTD/svg11.dtd" >
<svg xmlns="http://www.w3.org/2000/svg" xmlns:xlink="http://www.w3.org/1999/xlink" version="1.1" viewBox="-10 0 1010 1000">
   <path fill="currentColor"
d="M389 524l-134 53v302c0 34 -8 50 -33 61c-23 10 -60 11 -115 11c-4 -17 -15 -42 -24 -59c40 1 76 1 87 1c11 -1 15 -4 15 -14v-274c-44 16 -86 32 -123 47l-18 -68c39 -13 88 -30 141 -49v-179c35 -48 77 -120 105 -182h-210v-64h248l14 -4l49 31
c-36 73 -88 157 -136 221v152c39 -15 79 -31 119 -45zM471 651l67 16c-35 93 -91 181 -150 238c-14 -9 -45 -25 -63 -32c63 -55 116 -137 146 -222zM857 568l-175 17v293c0 36 -6 53 -31 64c-23 11 -60 12 -113 12c-3 -20 -13 -45 -21 -64c38 1 73 1 83 1
c10 -1 14 -4 14 -14v-285c-151 15 -177 20 -195 28c-4 -14 -14 -48 -22 -66c24 -4 55 -25 96 -55c22 -17 71 -57 127 -109c-148 14 -173 19 -188 25c-4 -13 -14 -46 -21 -63c16 -2 35 -16 56 -36c22 -18 90 -85 140 -156c-59 8 -117 14 -173 18c-2 -16 -12 -40 -20 -56
c159 -15 347 -41 447 -78l55 51c-73 26 -172 46 -274 60l38 19c-47 60 -101 118 -154 165l159 -12c33 -34 67 -70 97 -106l56 41c-95 104 -202 202 -307 279l296 -25c-20 -32 -41 -63 -63 -91l52 -26c53 64 108 151 130 209l-56 31c-7 -21 -19 -44 -33 -71zM762 666l57 -28
c55 70 115 163 142 224l-59 32c-27 -62 -87 -159 -140 -228z" />
</svg>
