<?xml version="1.0" standalone="no"?>
<!DOCTYPE svg PUBLIC "-//W3C//DTD SVG 1.1//EN" "http://www.w3.org/Graphics/SVG/1.1/DTD/svg11.dtd" >
<svg xmlns="http://www.w3.org/2000/svg" xmlns:xlink="http://www.w3.org/1999/xlink" version="1.1" viewBox="-10 0 1010 1000">
   <path fill="currentColor"
d="M503 147v63h-452v-63h197c-12 -27 -29 -60 -42 -85l70 -17c19 30 41 71 54 102h173zM173 319v91h203v-91h-203zM448 464h-345v-200h345v200zM493 736l-185 20v126c0 37 -8 53 -35 63c-26 11 -67 11 -132 11c-3 -19 -12 -44 -21 -62c45 1 87 1 99 1c12 -1 16 -4 16 -15
v-116l-183 19l-7 -62c52 -5 118 -11 190 -18v-62c35 -17 73 -41 104 -65h-261v-60h333l14 -4l45 35c-45 43 -105 84 -162 114v34c59 -5 122 -11 184 -18zM678 238h188c-3 339 -13 621 34 638c6 2 13 -80 14 -177c12 16 33 42 47 51c-7 195 -52 225 -96 199
c-84 -42 -76 -323 -73 -643h-114v37c0 69 -3 142 -15 214c49 47 92 95 117 135l-48 59c-21 -32 -51 -70 -88 -110c-32 116 -94 226 -211 316c-13 -14 -39 -35 -56 -46c125 -93 183 -209 210 -327c-37 -37 -76 -71 -113 -100l45 -50c26 20 55 43 82 66c6 -54 8 -107 8 -157
v-37h-131v-68h131v-194h69v194z" />
</svg>
