<?xml version="1.0" standalone="no"?>
<!DOCTYPE svg PUBLIC "-//W3C//DTD SVG 1.1//EN" "http://www.w3.org/Graphics/SVG/1.1/DTD/svg11.dtd" >
<svg xmlns="http://www.w3.org/2000/svg" xmlns:xlink="http://www.w3.org/1999/xlink" version="1.1" viewBox="-10 0 1010 1000">
   <path fill="currentColor"
d="M729 320v56h130v-56h-130zM729 221v54h130v-54h-130zM729 123v52h130v-52h-130zM817 450l40 -27h-184v-348h245v348h-59c31 34 70 78 89 106l-42 33c-19 -29 -58 -77 -89 -112zM714 427l56 30c-31 34 -73 77 -98 105c-12 -10 -33 -26 -47 -36c28 -28 68 -70 89 -99z
M520 451l41 -25c24 21 54 52 69 70l-43 29c-14 -19 -44 -50 -67 -74zM436 320v56h121v-56h-121zM436 221v54h121v-54h-121zM436 123v52h121v-52h-121zM330 539l-96 40v282c0 39 -8 60 -33 72c-23 12 -61 15 -123 14c-3 -20 -12 -50 -22 -71c44 2 84 1 95 1
c13 0 17 -4 17 -16v-256l-89 37l-19 -72c31 -10 68 -23 108 -39v-216c38 -36 81 -90 112 -141h-203v-69h248l13 -4l41 29v-55h236v348h-236v-280c-38 69 -93 145 -145 198v166l94 -37l9 54c28 -30 64 -69 83 -97l54 30c-31 38 -74 84 -101 114c-10 -9 -29 -23 -43 -32z
M755 681h-190c-15 27 -31 53 -46 75c47 12 98 27 149 43c43 -32 71 -71 87 -118zM960 681h-128c-19 57 -47 104 -90 142c72 27 141 53 190 79l-55 50c-48 -27 -119 -56 -197 -85c-74 42 -180 71 -330 89c-4 -17 -19 -44 -29 -58c122 -13 210 -33 275 -59
c-60 -20 -121 -37 -176 -51c23 -30 47 -68 71 -107h-160v-60h194c15 -28 29 -57 39 -83l67 14c-10 22 -21 46 -32 69h361v60z" />
</svg>
