<?xml version="1.0" standalone="no"?>
<!DOCTYPE svg PUBLIC "-//W3C//DTD SVG 1.1//EN" "http://www.w3.org/Graphics/SVG/1.1/DTD/svg11.dtd" >
<svg xmlns="http://www.w3.org/2000/svg" xmlns:xlink="http://www.w3.org/1999/xlink" version="1.1" viewBox="-10 0 1010 1000">
   <path fill="currentColor"
d="M170 261v155h-73v-227h391c-13 -37 -37 -91 -62 -131l72 -17c27 44 58 102 69 139l-35 9h374v227h-76v-155h-660zM715 861h122c35 0 41 -22 45 -153c17 13 47 25 68 31c-8 151 -29 193 -107 193h-136c-86 0 -108 -24 -108 -110v-353h-228v59c0 136 -36 311 -273 427
c-11 -16 -35 -42 -52 -55c222 -104 252 -259 252 -373v-128h375v423c0 33 6 39 42 39z" />
</svg>
