<?xml version="1.0" standalone="no"?>
<!DOCTYPE svg PUBLIC "-//W3C//DTD SVG 1.1//EN" "http://www.w3.org/Graphics/SVG/1.1/DTD/svg11.dtd" >
<svg xmlns="http://www.w3.org/2000/svg" xmlns:xlink="http://www.w3.org/1999/xlink" version="1.1" viewBox="-10 0 1010 1000">
   <path fill="currentColor"
d="M162 227v136h-74v-207h385c-6 -33 -17 -74 -26 -107l73 -10c13 37 27 83 32 117h360v207h-77v-136h-673zM361 287l50 -45c76 48 165 119 207 172l-55 51c-40 -53 -127 -128 -202 -178zM162 466l69 23c-24 92 -61 207 -116 278l-69 -32c56 -70 96 -180 116 -269zM451 871
h191c55 0 63 -25 69 -163c18 13 49 25 70 30c-11 161 -34 205 -135 205h-200c-104 0 -134 -25 -135 -114c-64 35 -131 67 -203 93c-9 -17 -30 -45 -45 -61c88 -31 172 -70 248 -115v-344h73v296c147 -103 263 -230 335 -368l74 31c-96 165 -234 311 -409 424v38
c0 40 11 48 67 48zM732 493l65 -29c64 85 134 198 161 272l-70 34c-26 -73 -91 -190 -156 -277z" />
</svg>
