<?xml version="1.0" standalone="no"?>
<!DOCTYPE svg PUBLIC "-//W3C//DTD SVG 1.1//EN" "http://www.w3.org/Graphics/SVG/1.1/DTD/svg11.dtd" >
<svg xmlns="http://www.w3.org/2000/svg" xmlns:xlink="http://www.w3.org/1999/xlink" version="1.1" viewBox="-10 0 1010 1000">
   <path fill="currentColor"
d="M162 229v95h-74v-165h401c-13 -33 -34 -74 -53 -104l73 -17c26 38 52 87 66 121h334v165h-77v-95h-670zM769 834v-188h-444v188h444zM928 433h-487c-27 50 -58 98 -94 144h497v370h-75v-44h-444v53h-73v-276c-50 48 -106 90 -166 124c-11 -18 -32 -47 -48 -61
c134 -72 248 -190 312 -310h-279v-71h857v71z" />
</svg>
