<?xml version="1.0" standalone="no"?>
<!DOCTYPE svg PUBLIC "-//W3C//DTD SVG 1.1//EN" "http://www.w3.org/Graphics/SVG/1.1/DTD/svg11.dtd" >
<svg xmlns="http://www.w3.org/2000/svg" xmlns:xlink="http://www.w3.org/1999/xlink" version="1.1" viewBox="-10 0 1010 1000">
   <path fill="currentColor"
d="M156 203v121h-73v-190h390c-12 -26 -25 -55 -39 -78l79 -19c18 29 36 66 49 97h358v190h-74v-121h-690zM201 613h270s-1 22 -3 32c-15 173 -30 243 -57 270c-19 19 -39 25 -69 28c-25 1 -75 0 -126 -2c-2 -21 -10 -50 -23 -69c52 5 104 6 124 6c17 0 27 -1 36 -9
c18 -16 31 -69 43 -192h-279c14 -62 31 -156 40 -230h238v-101h-219v-64h288v229h-246c-6 34 -12 70 -17 102zM942 925l-72 26c-5 -26 -12 -55 -21 -86c-296 39 -333 45 -356 57c-4 -14 -17 -51 -26 -69c20 -7 38 -48 61 -108c25 -55 102 -280 135 -481l79 12
c-42 198 -111 404 -181 558l267 -30c-26 -75 -61 -157 -97 -223l66 -24c64 116 124 267 145 368z" />
</svg>
