<?xml version="1.0" standalone="no"?>
<!DOCTYPE svg PUBLIC "-//W3C//DTD SVG 1.1//EN" "http://www.w3.org/Graphics/SVG/1.1/DTD/svg11.dtd" >
<svg xmlns="http://www.w3.org/2000/svg" xmlns:xlink="http://www.w3.org/1999/xlink" version="1.1" viewBox="-10 0 1010 1000">
   <path fill="currentColor"
d="M765 486h-230v139h230v-139zM535 839h230v-149h-230v149zM240 690v149h222v-149h-222zM462 486h-222v139h222v-139zM535 267v150h304v538h-74v-47h-525v47h-73v-538h295v-150h73zM564 158h347v208h-75v-139h-674v139h-73v-208h385c-13 -32 -31 -70 -48 -98l76 -23
c23 38 48 86 62 121z" />
</svg>
