<?xml version="1.0" standalone="no"?>
<!DOCTYPE svg PUBLIC "-//W3C//DTD SVG 1.1//EN" "http://www.w3.org/Graphics/SVG/1.1/DTD/svg11.dtd" >
<svg xmlns="http://www.w3.org/2000/svg" xmlns:xlink="http://www.w3.org/1999/xlink" version="1.1" viewBox="-10 0 1010 1000">
   <path fill="currentColor"
d="M537 858h395v69h-863v-69h389v-201h-269v-69h269v-157h-294v-69h672v-123h-676v139h-73v-210h397c-14 -36 -35 -79 -53 -114l72 -17c23 40 50 93 66 131h343v210h-75v53h-300v157h277v69h-277v201zM613 707l52 -36c53 41 124 100 160 135l-54 44
c-35 -37 -104 -98 -158 -143z" />
</svg>
