<?xml version="1.0" standalone="no"?>
<!DOCTYPE svg PUBLIC "-//W3C//DTD SVG 1.1//EN" "http://www.w3.org/Graphics/SVG/1.1/DTD/svg11.dtd" >
<svg xmlns="http://www.w3.org/2000/svg" xmlns:xlink="http://www.w3.org/1999/xlink" version="1.1" viewBox="-10 0 1010 1000">
   <path fill="currentColor"
d="M940 695h-364c71 109 199 173 374 199c-15 16 -35 45 -45 65c-195 -36 -332 -120 -407 -264h-7c-51 100 -160 192 -390 262c-8 -17 -30 -44 -46 -60c198 -55 300 -127 352 -202h-342v-65h374c11 -30 17 -62 19 -92h-278v-62h280v-88h-295v-62h295v-86h74v86h309v-118
h-690v125h-73v-192h397c-9 -28 -25 -59 -43 -83l71 -18c23 29 44 69 54 101h359v192h-75v55h-309v88h295v62h-297c-2 30 -7 62 -16 92h424v65z" />
</svg>
