<?xml version="1.0" standalone="no"?>
<!DOCTYPE svg PUBLIC "-//W3C//DTD SVG 1.1//EN" "http://www.w3.org/Graphics/SVG/1.1/DTD/svg11.dtd" >
<svg xmlns="http://www.w3.org/2000/svg" xmlns:xlink="http://www.w3.org/1999/xlink" version="1.1" viewBox="-10 0 1010 1000">
   <path fill="currentColor"
d="M764 848v-148h-517v148h517zM314 354v130h370v-130h-370zM757 546h-226c-14 30 -29 61 -44 88h352v316h-75v-36h-517v40h-73v-320h236c13 -27 25 -60 35 -88h-201v-254h513v254zM552 138h366v226h-74v-157h-687v157h-72v-226h380c-12 -26 -26 -55 -39 -78l73 -23
c20 31 39 70 53 101z" />
</svg>
