<?xml version="1.0" standalone="no"?>
<!DOCTYPE svg PUBLIC "-//W3C//DTD SVG 1.1//EN" "http://www.w3.org/Graphics/SVG/1.1/DTD/svg11.dtd" >
<svg xmlns="http://www.w3.org/2000/svg" xmlns:xlink="http://www.w3.org/1999/xlink" version="1.1" viewBox="-10 0 1010 1000">
   <path fill="currentColor"
d="M503 408h83c41 -27 80 -57 115 -87h-198v87zM943 470h-338c-35 23 -72 45 -109 65h229l15 -4l47 40c-63 40 -149 76 -229 101v23h362v62h-362v123c0 39 -8 56 -38 67c-32 10 -80 10 -157 10c-4 -20 -17 -44 -27 -62c60 2 114 2 129 1c16 -1 20 -5 20 -17v-122h-345v-62
h345v-55h4c43 -12 90 -28 131 -46h-240c-99 46 -202 85 -306 117c-7 -16 -25 -47 -36 -62c71 -20 143 -42 213 -70v-44h106c44 -20 87 -42 129 -65h-427v-62h371v-87h-242v-61h242v-57h73v57h218v43c26 -24 51 -49 73 -75l56 32v-77h-705v105h-72v-172h384
c-11 -20 -25 -41 -39 -58l63 -26c23 25 46 59 56 84h388v172h-75v-26c-46 53 -100 101 -158 146h251v62z" />
</svg>
