<?xml version="1.0" standalone="no"?>
<!DOCTYPE svg PUBLIC "-//W3C//DTD SVG 1.1//EN" "http://www.w3.org/Graphics/SVG/1.1/DTD/svg11.dtd" >
<svg xmlns="http://www.w3.org/2000/svg" xmlns:xlink="http://www.w3.org/1999/xlink" version="1.1" viewBox="-10 0 1010 1000">
   <path fill="currentColor"
d="M159 201v136h-72v-205h375c-11 -25 -24 -51 -37 -73l76 -22c18 28 38 66 49 95h369v205h-75v-136h-685zM788 400l61 48c-45 37 -100 77 -154 113c46 132 141 245 266 293c-16 14 -38 42 -48 61c-127 -57 -222 -173 -276 -317c-15 10 -32 20 -47 28c34 129 9 252 -45 294
c-32 27 -58 35 -102 35c-23 0 -54 -1 -86 -2c0 -21 -8 -50 -19 -70c36 3 69 5 90 5c26 0 45 -3 64 -21c30 -22 48 -91 39 -172c-114 87 -285 170 -428 214c-8 -19 -25 -46 -39 -63c160 -37 354 -130 453 -220c-7 -23 -15 -47 -27 -70c-98 67 -252 137 -371 174
c-8 -16 -24 -43 -38 -58c125 -30 292 -101 379 -166c-13 -21 -29 -40 -48 -59c-89 50 -192 89 -288 118c-7 -15 -28 -45 -41 -59c126 -30 262 -80 357 -145h-228v-65h575v65h-248c-22 19 -45 36 -71 53c46 46 81 99 102 153c76 -49 162 -115 218 -167z" />
</svg>
