<?xml version="1.0" standalone="no"?>
<!DOCTYPE svg PUBLIC "-//W3C//DTD SVG 1.1//EN" "http://www.w3.org/Graphics/SVG/1.1/DTD/svg11.dtd" >
<svg xmlns="http://www.w3.org/2000/svg" xmlns:xlink="http://www.w3.org/1999/xlink" version="1.1" viewBox="-10 0 1010 1000">
   <path fill="currentColor"
d="M146 198v110h-73v-176h406c-11 -25 -24 -53 -38 -75l77 -18c18 28 37 65 50 93h360v176h-75v-110h-707zM497 628h-110v240l219 -45c-2 19 -4 45 -3 59c-258 59 -290 67 -309 78c-6 -17 -23 -48 -35 -62c19 -10 53 -34 53 -76v-194h-86c-13 116 -47 241 -126 334
c-13 -14 -45 -34 -63 -42c110 -125 122 -303 122 -433v-201h689v66h-615v136c0 24 -1 48 -2 75h692v65h-355c24 44 53 82 91 117c55 -30 123 -74 164 -107l55 44c-51 36 -117 73 -172 100c69 48 155 82 255 99c-15 16 -35 43 -45 63c-202 -43 -345 -148 -419 -316zM815 486
h-535v-60h535v60z" />
</svg>
