<?xml version="1.0" standalone="no"?>
<!DOCTYPE svg PUBLIC "-//W3C//DTD SVG 1.1//EN" "http://www.w3.org/Graphics/SVG/1.1/DTD/svg11.dtd" >
<svg xmlns="http://www.w3.org/2000/svg" xmlns:xlink="http://www.w3.org/1999/xlink" version="1.1" viewBox="-10 0 1010 1000">
   <path fill="currentColor"
d="M148 204v134h-73v-200h410c-14 -26 -32 -56 -48 -79l70 -23c22 31 49 72 64 102h355v200h-75v-134h-703zM732 232l43 58c-138 35 -365 54 -548 60c-2 -18 -10 -43 -18 -60c180 -7 403 -26 523 -58zM562 493l-71 24c-9 -38 -34 -100 -60 -147l66 -22c27 45 56 106 65 145z
M342 521l-70 25c-10 -41 -39 -107 -66 -156l68 -20c28 48 58 111 68 151zM735 332l69 30c-34 58 -77 122 -111 164l-60 -27c34 -43 79 -116 102 -167zM933 653h-327c89 86 229 165 352 203c-16 15 -39 44 -51 64c-129 -48 -276 -144 -371 -249v285h-73v-281
c-96 106 -243 202 -370 252c-12 -19 -35 -47 -51 -62c124 -41 263 -123 354 -212h-329v-66h396v-64h73v64h397v66z" />
</svg>
