<?xml version="1.0" standalone="no"?>
<!DOCTYPE svg PUBLIC "-//W3C//DTD SVG 1.1//EN" "http://www.w3.org/Graphics/SVG/1.1/DTD/svg11.dtd" >
<svg xmlns="http://www.w3.org/2000/svg" xmlns:xlink="http://www.w3.org/1999/xlink" version="1.1" viewBox="-10 0 1010 1000">
   <path fill="currentColor"
d="M151 196v110h-72v-177h390c-10 -24 -23 -49 -36 -70l72 -20c17 27 35 62 47 90h372v177h-74v-110h-699zM750 523v-70h-488v70h488zM750 640v-69h-488v69h488zM750 760v-71h-488v71h488zM848 341h-330v62h305v408h-633v-408h255v-184h73v63h330v59zM352 819l66 30
c-81 44 -205 85 -304 111c-12 -14 -37 -42 -53 -54c101 -20 220 -52 291 -87zM578 853l54 -39c108 31 225 71 297 101l-73 41c-62 -30 -169 -71 -278 -103z" />
</svg>
