<?xml version="1.0" standalone="no"?>
<!DOCTYPE svg PUBLIC "-//W3C//DTD SVG 1.1//EN" "http://www.w3.org/Graphics/SVG/1.1/DTD/svg11.dtd" >
<svg xmlns="http://www.w3.org/2000/svg" xmlns:xlink="http://www.w3.org/1999/xlink" version="1.1" viewBox="-10 0 1010 1000">
   <path fill="currentColor"
d="M140 171v89h-69v-147h404c-10 -21 -23 -43 -36 -61l63 -24c23 24 42 58 53 85h373v147h-71v-89h-717zM535 763v101h237v-79h72v169h-72v-37h-611v-134h72v81h230v-101h-400v-55h400v-67h-214c-21 24 -42 44 -63 62c-12 -12 -38 -30 -55 -39c49 -38 95 -88 124 -138h-175
v-54h384v-69h-291v-53h291v-67h-301v-54h680v54h-306v67h297v53h-297v69h392v54h-671l61 17c-8 15 -18 29 -28 44h539v54h-295v67h400v55h-400z" />
</svg>
