<?xml version="1.0" standalone="no"?>
<!DOCTYPE svg PUBLIC "-//W3C//DTD SVG 1.1//EN" "http://www.w3.org/Graphics/SVG/1.1/DTD/svg11.dtd" >
<svg xmlns="http://www.w3.org/2000/svg" xmlns:xlink="http://www.w3.org/1999/xlink" version="1.1" viewBox="-10 0 1010 1000">
   <path fill="currentColor"
d="M234 931l-60 -29c40 -45 74 -120 93 -177l59 24c-21 59 -52 134 -92 182zM369 740l58 -7c20 55 36 128 36 173l-61 9c1 -46 -14 -119 -33 -175zM494 740l54 -15c31 47 59 110 68 151l-57 18c-9 -41 -35 -106 -65 -154zM345 633h549s-1 21 -2 31c-11 170 -22 239 -47 264
c-16 19 -35 25 -62 26c-25 3 -73 2 -122 -1c-2 -20 -9 -47 -21 -65c49 4 94 5 111 4c17 1 26 0 34 -8c14 -16 24 -67 33 -190h-538c-57 47 -123 86 -189 116c-9 -15 -31 -45 -44 -59c102 -40 205 -104 268 -182h-118v-282c82 -17 177 -42 233 -65l46 47
c-60 23 -139 42 -212 57v67h194v53h-194v69h470v-69h-190v-53h190v-66h-207v-55h275v297h-405c-15 22 -32 44 -52 64zM756 824l-52 27c-15 -33 -51 -80 -84 -113l49 -23c34 31 72 77 87 109zM546 125h377v175h-71v-110h-705v111h-69v-176h382c-10 -23 -22 -45 -33 -65
l74 -21c16 26 33 59 45 86z" />
</svg>
