<?xml version="1.0" standalone="no"?>
<!DOCTYPE svg PUBLIC "-//W3C//DTD SVG 1.1//EN" "http://www.w3.org/Graphics/SVG/1.1/DTD/svg11.dtd" >
<svg xmlns="http://www.w3.org/2000/svg" xmlns:xlink="http://www.w3.org/1999/xlink" version="1.1" viewBox="-10 0 1010 1000">
   <path fill="currentColor"
d="M830 55l59 66c-207 38 -519 61 -780 70c-2 -20 -12 -51 -19 -68c259 -11 567 -34 740 -68zM764 398l-60 -29c35 -49 80 -130 103 -187l75 32c-38 63 -82 136 -118 184zM551 368l-72 24c-6 -46 -29 -119 -55 -174l67 -19c27 54 53 124 60 169zM307 403l-69 27
c-12 -47 -49 -119 -86 -173l65 -25c38 53 76 124 90 171zM222 616l57 -36c58 58 126 138 155 192l-62 41c-29 -53 -95 -137 -150 -197zM948 487v70h-231v296c0 47 -11 67 -46 79c-35 11 -94 12 -190 12c-4 -21 -15 -51 -26 -71c74 2 144 2 163 1c20 -1 26 -6 26 -23v-294
h-577v-70h577v-102h73v102h231z" />
</svg>
