<?xml version="1.0" standalone="no"?>
<!DOCTYPE svg PUBLIC "-//W3C//DTD SVG 1.1//EN" "http://www.w3.org/Graphics/SVG/1.1/DTD/svg11.dtd" >
<svg xmlns="http://www.w3.org/2000/svg" xmlns:xlink="http://www.w3.org/1999/xlink" version="1.1" viewBox="-10 0 1010 1000">
   <path fill="currentColor"
d="M781 325v-46h-334v46h334zM781 410v-46h-334v46h334zM781 496v-47h-334v47h334zM377 239h171c7 -16 13 -33 19 -50h-255v-54h165c-10 -24 -28 -53 -45 -75l60 -19c21 26 45 64 54 90l-13 4h161c18 -28 40 -66 52 -91l70 15c-17 26 -35 53 -52 76h166v54h-290
c-9 18 -18 35 -27 50h240v297h-476v-297zM270 187l-53 46c-26 -39 -83 -93 -134 -129l50 -41c50 35 109 86 137 124zM737 637v61h201v59h-201v115c0 39 -8 58 -40 69c-31 11 -82 10 -164 10c-3 -19 -15 -45 -25 -64c64 3 120 2 136 1c17 -1 21 -4 21 -17v-114h-392
c51 31 115 78 146 113l-53 48c-29 -37 -92 -87 -146 -120l50 -41h-211v-59h606v-59c-33 1 -65 1 -89 1c-116 0 -199 -9 -262 -47c-37 -24 -65 -52 -86 -52c-32 0 -80 49 -131 109l-40 -53c45 -45 89 -83 129 -100v-151h-132v-60h200v206c20 10 39 28 72 49
c61 36 143 42 252 42c122 0 278 -8 377 -18c-7 16 -17 46 -18 65c-48 3 -124 6 -200 7z" />
</svg>
