<?xml version="1.0" standalone="no"?>
<!DOCTYPE svg PUBLIC "-//W3C//DTD SVG 1.1//EN" "http://www.w3.org/Graphics/SVG/1.1/DTD/svg11.dtd" >
<svg xmlns="http://www.w3.org/2000/svg" xmlns:xlink="http://www.w3.org/1999/xlink" version="1.1" viewBox="-10 0 1010 1000">
   <path fill="currentColor"
d="M839 277h-574c-43 74 -91 142 -140 194c-15 -13 -48 -35 -67 -45c95 -92 181 -238 233 -384l75 20c-18 49 -39 97 -63 143h572l14 -4l55 20c-33 82 -81 173 -126 231l-64 -25c30 -38 61 -95 85 -150zM265 469l75 18c-49 126 -127 249 -204 330c-15 -12 -47 -35 -65 -45
c80 -73 151 -189 194 -303zM470 861v-527h76v528c0 47 -12 69 -46 80c-34 13 -91 13 -179 13c-4 -20 -16 -53 -26 -73c66 2 133 1 151 0c18 0 24 -5 24 -21zM658 497l64 -26c75 97 161 228 198 311l-69 32c-36 -83 -119 -217 -193 -317z" />
</svg>
