<?xml version="1.0" standalone="no"?>
<!DOCTYPE svg PUBLIC "-//W3C//DTD SVG 1.1//EN" "http://www.w3.org/Graphics/SVG/1.1/DTD/svg11.dtd" >
<svg xmlns="http://www.w3.org/2000/svg" xmlns:xlink="http://www.w3.org/1999/xlink" version="1.1" viewBox="-10 0 1010 1000">
   <path fill="currentColor"
d="M933 398l-67 37c-38 -75 -127 -190 -210 -272l61 -32c84 79 177 191 216 267zM534 44v376h-77v-376h77zM261 133l70 19c-48 110 -126 220 -200 291c-13 -12 -42 -36 -59 -47c74 -64 147 -163 189 -263zM941 621h-387c67 150 199 237 402 269c-15 15 -34 46 -44 66
c-207 -40 -338 -133 -413 -297c-52 140 -160 243 -408 297c-6 -18 -25 -49 -39 -64c242 -48 336 -143 379 -271h-373v-68h390c7 -32 11 -67 15 -103h79c-4 35 -9 70 -15 103h414v68z" />
</svg>
