<?xml version="1.0" standalone="no"?>
<!DOCTYPE svg PUBLIC "-//W3C//DTD SVG 1.1//EN" "http://www.w3.org/Graphics/SVG/1.1/DTD/svg11.dtd" >
<svg xmlns="http://www.w3.org/2000/svg" xmlns:xlink="http://www.w3.org/1999/xlink" version="1.1" viewBox="-10 0 1010 1000">
   <path fill="currentColor"
d="M615 566h-228v156h228v-156zM683 787h-296v63h-68v-347h364v284zM931 296l-55 45v526c0 42 -9 65 -41 77c-31 12 -84 13 -163 13c-2 -20 -14 -52 -25 -72c62 2 118 2 135 2c17 -1 22 -6 22 -22v-460h-603v552h-73v-617c-8 5 -15 9 -23 14c-13 -16 -38 -40 -54 -52
c88 -51 185 -135 232 -207l76 27c-55 77 -140 157 -224 213h324v-292h75v292h325c-51 -60 -142 -144 -221 -204l59 -42c87 63 186 149 234 207z" />
</svg>
