<?xml version="1.0" standalone="no"?>
<!DOCTYPE svg PUBLIC "-//W3C//DTD SVG 1.1//EN" "http://www.w3.org/Graphics/SVG/1.1/DTD/svg11.dtd" >
<svg xmlns="http://www.w3.org/2000/svg" xmlns:xlink="http://www.w3.org/1999/xlink" version="1.1" viewBox="-10 0 1010 1000">
   <path fill="currentColor"
d="M933 494v63h-220v275h-68v-243c-49 81 -121 159 -190 201c-11 -16 -31 -38 -46 -51c71 -36 144 -108 192 -182h-172v-63h216v-81h68v81h220zM716 599l46 -32c57 51 126 122 162 167l-49 38c-34 -46 -103 -120 -159 -173zM723 137h-101c-12 140 -42 253 -143 322
c-8 -15 -27 -35 -41 -46c86 -57 111 -157 120 -276h-89v-61h331c-10 43 -21 92 -31 135h133s-1 18 -2 28c-11 113 -21 161 -39 181c-14 13 -27 19 -49 20c-16 2 -48 2 -79 0c-1 -17 -7 -42 -16 -57c30 3 57 3 68 3c12 0 19 -1 25 -8c10 -10 18 -38 24 -106h-147
c12 -37 25 -87 36 -135zM476 871h344c62 0 73 -14 81 -78c17 11 47 21 68 25c-13 92 -37 119 -146 119h-345c-141 0 -181 -26 -181 -132v-507h-61c-10 254 -38 502 -138 659c-13 -18 -42 -41 -62 -52c94 -140 120 -371 128 -607h-118v-69h120c1 -62 2 -123 2 -184h72
c0 61 -1 123 -2 184h203v69h-73v507c0 53 15 66 108 66z" />
</svg>
