<?xml version="1.0" standalone="no"?>
<!DOCTYPE svg PUBLIC "-//W3C//DTD SVG 1.1//EN" "http://www.w3.org/Graphics/SVG/1.1/DTD/svg11.dtd" >
<svg xmlns="http://www.w3.org/2000/svg" xmlns:xlink="http://www.w3.org/1999/xlink" version="1.1" viewBox="-10 0 1010 1000">
   <path fill="currentColor"
d="M809 156h-599v119h599v-119zM883 340h-673v41c0 168 -13 411 -109 574c-14 -12 -47 -30 -66 -37c93 -156 102 -378 102 -536v-291h746v249zM870 491h-564v-66h564v66zM939 661h-405c-47 72 -100 142 -153 199l384 -23c-27 -41 -55 -84 -81 -120l64 -28
c56 78 125 183 160 243l-68 34c-10 -20 -23 -43 -39 -70c-434 30 -481 34 -512 45c-4 -15 -17 -50 -26 -69c17 -3 36 -21 58 -45c18 -21 73 -91 117 -166h-197v-66h698v66z" />
</svg>
