<?xml version="1.0" standalone="no"?>
<!DOCTYPE svg PUBLIC "-//W3C//DTD SVG 1.1//EN" "http://www.w3.org/Graphics/SVG/1.1/DTD/svg11.dtd" >
<svg xmlns="http://www.w3.org/2000/svg" xmlns:xlink="http://www.w3.org/1999/xlink" version="1.1" viewBox="-10 0 1010 1000">
   <path fill="currentColor"
d="M820 157h-603v118h603v-118zM217 341v37c0 169 -15 408 -118 569c-13 -12 -44 -30 -62 -37c100 -155 109 -373 109 -532v-287h747v250h-676zM869 641h-69v-113h-456v115h-68v-177h260c-8 -29 -19 -62 -29 -90l69 -13c14 31 28 72 38 103h255v175zM448 592l66 16
c-54 144 -148 269 -255 348c-11 -12 -35 -35 -51 -47c105 -71 193 -186 240 -317zM617 606l58 -17c52 130 157 255 270 312c-15 13 -38 39 -49 56c-119 -67 -222 -205 -279 -351z" />
</svg>
