<?xml version="1.0" standalone="no"?>
<!DOCTYPE svg PUBLIC "-//W3C//DTD SVG 1.1//EN" "http://www.w3.org/Graphics/SVG/1.1/DTD/svg11.dtd" >
<svg xmlns="http://www.w3.org/2000/svg" xmlns:xlink="http://www.w3.org/1999/xlink" version="1.1" viewBox="-10 0 1010 1000">
   <path fill="currentColor"
d="M807 161h-589v121h589v-121zM881 351h-663v33c0 168 -14 411 -117 574c-14 -12 -46 -31 -65 -38c100 -156 109 -377 109 -536v-291h736v258zM391 705h166v-147h-137v-63h137v-119h68v119h138v63h-138v147h160v62h-394v-62zM827 443h71v514h-71v-43h-550v-470h72v404h478
v-405z" />
</svg>
