<?xml version="1.0" standalone="no"?>
<!DOCTYPE svg PUBLIC "-//W3C//DTD SVG 1.1//EN" "http://www.w3.org/Graphics/SVG/1.1/DTD/svg11.dtd" >
<svg xmlns="http://www.w3.org/2000/svg" xmlns:xlink="http://www.w3.org/1999/xlink" version="1.1" viewBox="-10 0 1010 1000">
   <path fill="currentColor"
d="M819 156h-611v108h611v-108zM208 329v54c0 166 -13 408 -104 572c-15 -12 -48 -31 -67 -38c89 -156 97 -377 97 -534v-292h759v238h-685zM735 878h122c29 0 34 -16 37 -104c16 12 43 23 64 28c-8 111 -28 142 -95 142h-137c-80 0 -102 -22 -102 -101v-375h-187
c-9 25 -20 50 -31 73h134l13 -2l41 13c-49 219 -179 347 -339 409c-8 -16 -24 -42 -37 -55c70 -24 136 -64 189 -121c-26 -24 -61 -50 -91 -69l41 -40c29 17 62 39 88 62c29 -41 54 -88 70 -141h-142c-38 60 -86 112 -137 151c-9 -12 -35 -34 -49 -44
c80 -54 145 -137 183 -236h-139v-67h696v67h-234v197c67 -35 133 -76 173 -113l58 48c-63 47 -150 92 -231 128v115c0 30 6 35 42 35z" />
</svg>
