<?xml version="1.0" standalone="no"?>
<!DOCTYPE svg PUBLIC "-//W3C//DTD SVG 1.1//EN" "http://www.w3.org/Graphics/SVG/1.1/DTD/svg11.dtd" >
<svg xmlns="http://www.w3.org/2000/svg" xmlns:xlink="http://www.w3.org/1999/xlink" version="1.1" viewBox="-10 0 1010 1000">
   <path fill="currentColor"
d="M462 159h-271v110h271v-110zM528 334h-337v69c0 158 -13 387 -102 542c-12 -14 -40 -37 -55 -44c83 -145 90 -349 90 -498v-308h404v239zM495 883h314c64 0 75 -18 83 -105c16 12 43 22 63 25c-12 112 -36 143 -144 143h-314c-130 0 -168 -22 -168 -118v-62l-122 21
l-11 -60l133 -22v-88l-107 19l-10 -60l117 -19v-87c-37 10 -75 16 -110 23c-3 -13 -11 -37 -19 -51c97 -20 209 -51 270 -82l53 47c-37 18 -82 33 -130 46v92l124 -20l10 57l-134 24v89l153 -26l9 59l-162 28v72c0 44 16 55 102 55zM790 393h170v67h-170v254
c0 40 -8 60 -36 73c-28 12 -72 13 -138 13c-2 -21 -13 -51 -22 -72c49 2 93 2 107 1s17 -4 17 -17v-252h-169v-67h169v-110c40 -29 85 -71 119 -111h-260v-66h317l14 -4l46 35c-44 57 -106 118 -164 164v92z" />
</svg>
