<?xml version="1.0" standalone="no"?>
<!DOCTYPE svg PUBLIC "-//W3C//DTD SVG 1.1//EN" "http://www.w3.org/Graphics/SVG/1.1/DTD/svg11.dtd" >
<svg xmlns="http://www.w3.org/2000/svg" xmlns:xlink="http://www.w3.org/1999/xlink" version="1.1" viewBox="-10 0 1010 1000">
   <path fill="currentColor"
d="M815 131h-611v77h611v-77zM370 439l58 18c-20 35 -44 69 -70 102v397h-64v-326c-22 21 -44 42 -67 59c-6 -12 -25 -38 -38 -50c-14 109 -41 221 -93 308c-14 -11 -45 -32 -62 -40c90 -154 98 -372 98 -528v-306h756v193h-684v112c0 75 -3 165 -14 257
c69 -50 137 -122 180 -196zM824 406l-46 -19c24 -23 57 -61 75 -86l56 22c-28 32 -60 62 -85 83zM473 323l43 -27c26 26 61 61 79 83l-46 30c-17 -22 -50 -60 -76 -86zM355 291l60 20c-41 60 -108 126 -169 166c-9 -12 -28 -32 -40 -41c55 -37 118 -95 149 -145zM796 719
h-207c-14 20 -28 37 -42 54c52 14 105 28 155 44c41 -26 73 -59 94 -98zM948 719h-84c-22 48 -53 87 -95 120c73 25 139 51 189 74l-52 42c-50 -25 -117 -53 -194 -79c-73 38 -166 63 -280 80c-5 -17 -17 -39 -29 -51c94 -11 172 -28 234 -54c-60 -18 -123 -37 -188 -53
c22 -22 44 -50 67 -79h-99v-53h137c19 -27 35 -53 48 -79l48 13v-109c-56 57 -137 112 -212 141c-8 -15 -26 -36 -38 -47c72 -21 150 -66 203 -115h-164v-54h211v-125h63v125h219v54h-174c51 47 127 88 201 108c-14 11 -32 32 -41 47c-74 -26 -152 -77 -205 -133v120h-52
c-11 18 -22 35 -35 54h322v53z" />
</svg>
