<?xml version="1.0" standalone="no"?>
<!DOCTYPE svg PUBLIC "-//W3C//DTD SVG 1.1//EN" "http://www.w3.org/Graphics/SVG/1.1/DTD/svg11.dtd" >
<svg xmlns="http://www.w3.org/2000/svg" xmlns:xlink="http://www.w3.org/1999/xlink" version="1.1" viewBox="-10 0 1010 1000">
   <path fill="currentColor"
d="M807 125h-597v57h597v-57zM210 230v144c0 169 -13 413 -108 577c-14 -11 -45 -29 -64 -36c94 -158 100 -381 100 -541v-297h740v153h-668zM312 856l51 16c-38 31 -101 65 -153 86c-10 -10 -30 -26 -43 -34c53 -19 111 -42 145 -68zM671 856l50 15c-35 31 -94 66 -143 86
c-8 -9 -30 -25 -43 -33c50 -19 103 -42 136 -68zM556 910l-53 24c-21 -18 -57 -42 -86 -58l39 -24c34 16 76 40 100 58zM835 667v-33h-179v33h179zM835 739v-34h-179v34h179zM835 813v-35h-179v35h179zM395 437v30h352v-30h-352zM395 369v29h352v-29h-352zM395 302v28h352
v-28h-352zM475 667v-33h-172v33h172zM475 739v-34h-172v34h172zM475 813v-35h-172v35h172zM900 594v258h-306v-258h213c-46 -20 -119 -46 -190 -69l34 -19h-153l35 14c-50 28 -126 56 -191 74h196v258h-297v-258h73c-9 -10 -25 -26 -35 -34c65 -13 140 -32 191 -54h-142
v-244h490v244h-129c68 20 141 44 187 63l-55 25h79zM777 877l41 -25c46 23 100 54 131 79l-55 24c-26 -23 -74 -55 -117 -78z" />
</svg>
