<?xml version="1.0" standalone="no"?>
<!DOCTYPE svg PUBLIC "-//W3C//DTD SVG 1.1//EN" "http://www.w3.org/Graphics/SVG/1.1/DTD/svg11.dtd" >
<svg xmlns="http://www.w3.org/2000/svg" xmlns:xlink="http://www.w3.org/1999/xlink" version="1.1" viewBox="-10 0 1010 1000">
   <path fill="currentColor"
d="M893 97v244h-784v-244h74v173h278v-227h74v227h281v-173h77zM497 504h410s0 23 -1 34c-15 254 -31 352 -63 386c-21 23 -43 30 -79 32c-33 3 -97 1 -163 -2c-2 -22 -12 -52 -27 -72c69 6 138 7 161 7c22 0 34 -2 45 -12c23 -22 37 -103 49 -303h-342
c-33 190 -120 316 -385 383c-8 -20 -27 -51 -43 -66c238 -56 318 -159 349 -317h-333v-70h343c5 -44 7 -91 9 -142h80c-2 50 -5 98 -10 142z" />
</svg>
