<?xml version="1.0" standalone="no"?>
<!DOCTYPE svg PUBLIC "-//W3C//DTD SVG 1.1//EN" "http://www.w3.org/Graphics/SVG/1.1/DTD/svg11.dtd" >
<svg xmlns="http://www.w3.org/2000/svg" xmlns:xlink="http://www.w3.org/1999/xlink" version="1.1" viewBox="-10 0 1010 1000">
   <path fill="currentColor"
d="M407 837h-57v-49l-272 32v-608h59v539l73 -8v-689h64v682l76 -9v-518h57v628zM578 564h262v-169h-259v66c0 33 -1 68 -3 103zM840 159h-259v169h259v-169zM913 91v763c0 42 -9 64 -37 77c-29 12 -74 14 -147 14c-3 -20 -13 -53 -24 -73c52 1 101 1 114 1
c15 -1 21 -5 21 -20v-221h-268c-15 118 -49 238 -132 329c-12 -13 -44 -31 -62 -38c118 -128 130 -315 130 -462v-370h405z" />
</svg>
