<?xml version="1.0" standalone="no"?>
<!DOCTYPE svg PUBLIC "-//W3C//DTD SVG 1.1//EN" "http://www.w3.org/Graphics/SVG/1.1/DTD/svg11.dtd" >
<svg xmlns="http://www.w3.org/2000/svg" xmlns:xlink="http://www.w3.org/1999/xlink" version="1.1" viewBox="-10 0 1010 1000">
   <path fill="currentColor"
d="M397 821h-56v-33l-268 32v-614h56v545l75 -9v-688h64v681l73 -8v-516h56v610zM618 443h140v-271h-140v271zM955 443v71h-126v441h-71v-441h-141c-4 155 -34 324 -168 443c-13 -12 -40 -31 -59 -41c127 -109 153 -263 157 -402h-111v-71h112v-271h-106v-70h501v70h-114
v271h126z" />
</svg>
