<?xml version="1.0" standalone="no"?>
<!DOCTYPE svg PUBLIC "-//W3C//DTD SVG 1.1//EN" "http://www.w3.org/Graphics/SVG/1.1/DTD/svg11.dtd" >
<svg xmlns="http://www.w3.org/2000/svg" xmlns:xlink="http://www.w3.org/1999/xlink" version="1.1" viewBox="-10 0 1010 1000">
   <path fill="currentColor"
d="M721 90l68 -9c30 179 80 283 185 373c-19 15 -40 40 -51 64c-13 -13 -26 -25 -38 -38v5c-14 290 -28 394 -56 429c-17 21 -35 29 -61 31c-25 3 -67 3 -110 0c-1 -21 -8 -49 -18 -68c42 4 80 4 97 4c14 0 23 -1 32 -12c20 -23 33 -112 44 -349h-162
c-20 205 -76 346 -201 438c-9 -14 -33 -43 -49 -54c115 -78 164 -205 181 -384h-106v-36c-9 8 -17 16 -27 24c-11 -13 -38 -37 -55 -47v385h-62v-43l-255 24v-616h62v544l62 -5v-695h63v689l68 -6v-527h62v248c105 -78 163 -206 186 -369l70 6c-23 149 -69 268 -143 355h353
c-74 -92 -113 -202 -139 -361z" />
</svg>
