<?xml version="1.0" standalone="no"?>
<!DOCTYPE svg PUBLIC "-//W3C//DTD SVG 1.1//EN" "http://www.w3.org/Graphics/SVG/1.1/DTD/svg11.dtd" >
<svg xmlns="http://www.w3.org/2000/svg" xmlns:xlink="http://www.w3.org/1999/xlink" version="1.1" viewBox="-10 0 1010 1000">
   <path fill="currentColor"
d="M760 611l12 -4l54 30c-75 92 -191 223 -285 328l-69 -35c74 -79 162 -178 226 -252h-540v-67h602zM594 557l-59 40c-24 -38 -76 -96 -124 -135l55 -33c50 37 102 91 128 128zM531 264l36 17c-7 8 -15 16 -23 25c92 73 264 156 423 196c-14 14 -36 43 -47 61
c-157 -46 -325 -138 -421 -216c-107 92 -251 168 -411 224c-10 -17 -33 -47 -48 -61c183 -58 357 -147 452 -246h-370v-188h72v123h267v-156h73v156h280v-123h74v188h-357z" />
</svg>
