<?xml version="1.0" standalone="no"?>
<!DOCTYPE svg PUBLIC "-//W3C//DTD SVG 1.1//EN" "http://www.w3.org/Graphics/SVG/1.1/DTD/svg11.dtd" >
<svg xmlns="http://www.w3.org/2000/svg" xmlns:xlink="http://www.w3.org/1999/xlink" version="1.1" viewBox="-10 0 1010 1000">
   <path fill="currentColor"
d="M303 631v-65h72v67c0 104 -22 235 -210 324c-11 -16 -33 -43 -49 -54c170 -78 187 -189 187 -272zM611 954v-388h73v388h-73zM522 293l18 12c-4 6 -9 12 -14 18c96 103 278 199 448 239c-20 18 -44 50 -57 73c-160 -46 -326 -144 -434 -260c-101 113 -253 214 -398 266
c-10 -22 -29 -52 -46 -72c159 -46 325 -156 417 -276h-326v-206h74v140h257v-184h74v184h261v-140h76v206h-350z" />
</svg>
