<?xml version="1.0" standalone="no"?>
<!DOCTYPE svg PUBLIC "-//W3C//DTD SVG 1.1//EN" "http://www.w3.org/Graphics/SVG/1.1/DTD/svg11.dtd" >
<svg xmlns="http://www.w3.org/2000/svg" xmlns:xlink="http://www.w3.org/1999/xlink" version="1.1" viewBox="-10 0 1010 1000">
   <path fill="currentColor"
d="M881 100v216h-759v-216h72v150h265v-206h74v206h274v-150h74zM779 607v-146h-247v146h247zM217 607h242v-146h-242v146zM347 860h398c86 0 100 -18 111 -110c19 12 50 22 72 25c-15 120 -45 153 -180 153h-395c-162 0 -210 -25 -210 -132v-398h41v-1h669v274h-636v125
c0 51 20 64 130 64z" />
</svg>
