<?xml version="1.0" standalone="no"?>
<!DOCTYPE svg PUBLIC "-//W3C//DTD SVG 1.1//EN" "http://www.w3.org/Graphics/SVG/1.1/DTD/svg11.dtd" >
<svg xmlns="http://www.w3.org/2000/svg" xmlns:xlink="http://www.w3.org/1999/xlink" version="1.1" viewBox="-10 0 1010 1000">
   <path fill="currentColor"
d="M607 819v-406c-59 74 -126 137 -197 187c-12 -15 -37 -43 -54 -57v302h-55v-40l-227 22v-615h54v550l58 -6v-701h56v696l59 -6v-534h55v331c129 -81 242 -210 310 -359h-285v-70h559v70h-193c-20 44 -42 87 -67 127v509h-73zM688 356l53 -41c74 68 169 162 214 221
l-56 47c-44 -60 -136 -157 -211 -227zM357 856h599v70h-599v-70z" />
</svg>
