<?xml version="1.0" standalone="no"?>
<!DOCTYPE svg PUBLIC "-//W3C//DTD SVG 1.1//EN" "http://www.w3.org/Graphics/SVG/1.1/DTD/svg11.dtd" >
<svg xmlns="http://www.w3.org/2000/svg" xmlns:xlink="http://www.w3.org/1999/xlink" version="1.1" viewBox="-10 0 1010 1000">
   <path fill="currentColor"
d="M293 742v-530h50v633h-50v-43l-209 20v-609h51v544l53 -5v-696h52v691zM779 258h157s0 27 -1 36c-10 431 -20 567 -45 609c-14 24 -30 32 -51 35s-51 3 -82 1c-2 -19 -7 -47 -15 -65c29 3 56 3 69 3c12 0 19 -3 26 -16c18 -30 29 -159 38 -536h-97
c-9 268 -39 495 -162 633c-10 -14 -31 -37 -45 -46c28 -30 50 -65 68 -104l-35 16c-2 -16 -6 -37 -11 -59c-181 42 -208 49 -223 60c-3 -14 -13 -47 -20 -64c18 -5 37 -37 63 -81c18 -29 63 -113 106 -213c-100 14 -120 20 -133 26c-3 -14 -13 -47 -19 -64
c13 -4 26 -30 41 -65c15 -34 63 -169 86 -291l60 20c-27 111 -67 230 -107 322l99 -10c12 -32 24 -65 35 -98l56 28c-55 142 -125 286 -195 399l137 -26c-10 -37 -22 -77 -33 -110l50 -20c22 62 45 142 56 198c47 -120 63 -277 68 -451h-85v-67h86c1 -68 1 -138 1 -211h59
c0 73 0 142 -2 211z" />
</svg>
