<?xml version="1.0" standalone="no"?>
<!DOCTYPE svg PUBLIC "-//W3C//DTD SVG 1.1//EN" "http://www.w3.org/Graphics/SVG/1.1/DTD/svg11.dtd" >
<svg xmlns="http://www.w3.org/2000/svg" xmlns:xlink="http://www.w3.org/1999/xlink" version="1.1" viewBox="-10 0 1010 1000">
   <path fill="currentColor"
d="M856 143l-43 51c-35 -28 -103 -71 -156 -98l42 -45c53 24 121 65 157 92zM185 569v-253c-32 35 -66 66 -99 92c-12 -16 -40 -45 -58 -59c103 -71 197 -184 253 -305l74 22c-26 56 -60 111 -97 162v341h-73zM780 833v-207h72v330h-72v-53h-631v-275h72v205h239v-300h73
v300h247zM944 274l-337 24c64 124 157 206 235 205c29 -1 39 -29 45 -115c16 14 41 28 60 33c-12 121 -40 152 -108 152c-117 1 -236 -110 -308 -269l-204 15l-7 -69l184 -13c-21 -60 -35 -125 -41 -193h73c5 67 20 130 42 188l360 -25z" />
</svg>
