<?xml version="1.0" standalone="no"?>
<!DOCTYPE svg PUBLIC "-//W3C//DTD SVG 1.1//EN" "http://www.w3.org/Graphics/SVG/1.1/DTD/svg11.dtd" >
<svg xmlns="http://www.w3.org/2000/svg" xmlns:xlink="http://www.w3.org/1999/xlink" version="1.1" viewBox="-10 0 1010 1000">
   <path fill="currentColor"
d="M320 738v-527h59v635h-59v-42l-243 23v-616h59v544l61 -6v-694h61v689zM606 751l52 -21c34 53 75 125 93 169l-55 24c-16 -45 -56 -118 -90 -172zM528 401h141c-7 -70 -12 -142 -15 -219c-42 9 -85 18 -126 26v193zM942 470h-197c27 223 74 380 134 382
c19 1 32 -49 39 -142c13 14 40 30 53 36c-19 147 -53 190 -91 189c-112 -3 -173 -193 -204 -465h-148v369l98 -24c-1 18 0 44 2 58c-146 42 -172 52 -186 62l-1 -6c0 2 -1 4 -1 6c-5 -16 -19 -45 -31 -60c19 -8 47 -29 47 -70v-646l2 1l-1 -2c145 -26 311 -66 404 -106
l60 55c-57 22 -126 42 -199 60c3 81 8 160 15 234h205v69z" />
</svg>
