<?xml version="1.0" standalone="no"?>
<!DOCTYPE svg PUBLIC "-//W3C//DTD SVG 1.1//EN" "http://www.w3.org/Graphics/SVG/1.1/DTD/svg11.dtd" >
<svg xmlns="http://www.w3.org/2000/svg" xmlns:xlink="http://www.w3.org/1999/xlink" version="1.1" viewBox="-10 0 1010 1000">
   <path fill="currentColor"
d="M872 97v174h-735v-174h73v107h252v-158h74v158h261v-107h75zM275 705l74 26c-55 73 -140 150 -217 200c-14 -14 -40 -36 -57 -47c75 -45 159 -117 200 -179zM868 662h-307v203c0 44 -10 65 -42 77c-33 11 -86 12 -168 12c-3 -22 -14 -51 -24 -72c62 1 120 1 136 1
c17 -1 22 -5 22 -19v-202h-224c-62 0 -96 6 -106 17v1c-4 -16 -16 -51 -24 -71c21 -5 44 -27 75 -58c15 -15 44 -48 78 -91h-193v-67h243c27 -37 54 -77 76 -117l75 29c-20 30 -40 60 -61 88h477v67h-527c-40 50 -81 96 -121 137h232v-94h76v94h307v65zM661 753l55 -43
c68 54 157 130 203 177l-58 50c-43 -48 -132 -128 -200 -184z" />
</svg>
