<?xml version="1.0" standalone="no"?>
<!DOCTYPE svg PUBLIC "-//W3C//DTD SVG 1.1//EN" "http://www.w3.org/Graphics/SVG/1.1/DTD/svg11.dtd" >
<svg xmlns="http://www.w3.org/2000/svg" xmlns:xlink="http://www.w3.org/1999/xlink" version="1.1" viewBox="-10 0 1010 1000">
   <path fill="currentColor"
d="M820 317l64 22c-85 165 -231 311 -395 399c-11 -17 -30 -39 -48 -53c93 -46 181 -114 255 -193c-167 13 -195 17 -212 24c-3 -18 -12 -52 -19 -68c19 -4 46 -11 60 -29c19 -20 72 -113 104 -171h-184v-69h233c-8 -34 -27 -81 -48 -117l65 -19c24 39 48 93 55 128l-23 8
h217v69h-240c-32 56 -76 134 -109 190l154 -9c27 -36 52 -74 71 -112zM342 735v-524h59v635h-59v-45l-270 26v-616h61v544l72 -7v-693h59v688zM875 514l66 23c-37 76 -87 145 -146 207c61 53 129 120 163 165l-58 46c-31 -44 -94 -112 -153 -165c-77 69 -170 126 -271 167
c-10 -18 -29 -42 -46 -57c198 -74 361 -215 445 -386z" />
</svg>
