<?xml version="1.0" standalone="no"?>
<!DOCTYPE svg PUBLIC "-//W3C//DTD SVG 1.1//EN" "http://www.w3.org/Graphics/SVG/1.1/DTD/svg11.dtd" >
<svg xmlns="http://www.w3.org/2000/svg" xmlns:xlink="http://www.w3.org/1999/xlink" version="1.1" viewBox="-10 0 1010 1000">
   <path fill="currentColor"
d="M537 746v121h388v61h-846v-61h382v-121h-264v-60h264v-105h-242v-61h558v61h-240v105h265v60h-265zM529 278l31 14c-6 6 -11 12 -17 18c116 92 256 148 405 192c-17 15 -37 38 -47 56c-146 -51 -281 -110 -401 -207c-105 91 -250 164 -398 209c-10 -16 -30 -41 -49 -56
c165 -45 331 -125 426 -226h-358v-193h73v128h267v-170h73v170h263v-128h76v193h-344z" />
</svg>
