<?xml version="1.0" standalone="no"?>
<!DOCTYPE svg PUBLIC "-//W3C//DTD SVG 1.1//EN" "http://www.w3.org/Graphics/SVG/1.1/DTD/svg11.dtd" >
<svg xmlns="http://www.w3.org/2000/svg" xmlns:xlink="http://www.w3.org/1999/xlink" version="1.1" viewBox="-10 0 1010 1000">
   <path fill="currentColor"
d="M510 875h266c53 0 63 -13 69 -88c16 11 43 20 62 23c-10 98 -32 123 -126 123h-272c-119 0 -154 -18 -154 -98v-260h417v149c0 37 -7 54 -38 65c-32 10 -83 10 -160 10c-3 -20 -13 -42 -22 -60c65 3 114 3 130 1c16 -1 19 -5 19 -17v-91h-277v202c0 33 13 41 86 41z
M258 447h262c16 -23 32 -52 44 -79h-237c-22 27 -46 55 -69 79zM597 447h316v63h-653v85c0 112 -24 261 -141 361c-10 -14 -38 -38 -53 -47c109 -91 126 -218 126 -316v-85c-25 21 -50 41 -75 57c-12 -13 -42 -38 -58 -49c100 -60 195 -152 255 -255h-185v-182h73v120h259
v-156h75v156h262v-120h76v182h-477c-8 17 -18 32 -28 48h228v1h4l12 -4l48 32c-17 36 -41 75 -64 109z" />
</svg>
