<?xml version="1.0" standalone="no"?>
<!DOCTYPE svg PUBLIC "-//W3C//DTD SVG 1.1//EN" "http://www.w3.org/Graphics/SVG/1.1/DTD/svg11.dtd" >
<svg xmlns="http://www.w3.org/2000/svg" xmlns:xlink="http://www.w3.org/1999/xlink" version="1.1" viewBox="-10 0 1010 1000">
   <path fill="currentColor"
d="M281 742v-530h49v633h-49v-43l-207 20v-609h51v544l52 -5v-696h52v691zM382 162v-64h304v64h-145c-6 47 -14 93 -24 138h104l10 -2l38 9c-27 328 -119 542 -260 652c-9 -16 -28 -39 -43 -52c72 -51 133 -141 176 -262c-23 -26 -54 -57 -81 -80l32 -49c23 18 49 42 70 63
c18 -64 33 -136 42 -214h-101c-26 105 -59 197 -103 268c-11 -10 -37 -31 -50 -41c67 -104 106 -260 128 -430h-97zM774 169v559h-60v-559h60zM857 45h63v823c0 41 -9 60 -32 72c-25 11 -64 13 -127 13c-3 -18 -12 -47 -20 -66c46 1 86 1 98 0c13 0 18 -4 18 -18v-824z" />
</svg>
