<?xml version="1.0" standalone="no"?>
<!DOCTYPE svg PUBLIC "-//W3C//DTD SVG 1.1//EN" "http://www.w3.org/Graphics/SVG/1.1/DTD/svg11.dtd" >
<svg xmlns="http://www.w3.org/2000/svg" xmlns:xlink="http://www.w3.org/1999/xlink" version="1.1" viewBox="-10 0 1010 1000">
   <path fill="currentColor"
d="M329 736v-524h58v632h-58v-44l-259 27v-616h56v545l70 -7v-695h59v689zM547 618v-72h71v74c0 102 -30 242 -154 337c-11 -14 -40 -39 -55 -48c115 -87 138 -204 138 -291zM761 954v-406h72v406h-72zM951 367h-149c42 68 106 136 166 172c-15 13 -37 37 -49 54
c-69 -48 -144 -139 -188 -226h-75c-47 104 -116 183 -211 242c-8 -15 -31 -45 -46 -59c78 -44 136 -106 179 -183h-159v-68h189c15 -40 27 -83 35 -130c-56 6 -113 10 -164 12c-3 -16 -12 -42 -19 -59c136 -10 303 -29 396 -59l45 59c-51 16 -116 29 -185 38
c-9 50 -20 96 -34 139h269v68z" />
</svg>
