<?xml version="1.0" standalone="no"?>
<!DOCTYPE svg PUBLIC "-//W3C//DTD SVG 1.1//EN" "http://www.w3.org/Graphics/SVG/1.1/DTD/svg11.dtd" >
<svg xmlns="http://www.w3.org/2000/svg" xmlns:xlink="http://www.w3.org/1999/xlink" version="1.1" viewBox="-10 0 1010 1000">
   <path fill="currentColor"
d="M938 185v69h-494v-69h233c-14 -32 -41 -82 -65 -119l62 -28c25 37 55 85 69 117l-61 30h256zM749 313l57 -34c50 63 117 149 149 200l-61 43c-30 -53 -95 -144 -145 -209zM565 279l70 23c-40 78 -98 169 -146 227c-14 -12 -43 -35 -60 -45c49 -54 102 -133 136 -205z
M322 744v-533h57v634h-57v-41l-248 23v-615h56v550l70 -7v-700h59v695zM766 461l70 16c-24 90 -58 168 -104 238c63 79 142 141 232 178c-18 15 -39 42 -50 62c-87 -40 -163 -102 -225 -181c-62 75 -139 137 -234 184c-9 -16 -32 -42 -48 -55c98 -47 178 -110 239 -187
c-46 -70 -83 -148 -110 -233l64 -17c22 66 51 130 88 187c35 -57 60 -122 78 -192z" />
</svg>
