<?xml version="1.0" standalone="no"?>
<!DOCTYPE svg PUBLIC "-//W3C//DTD SVG 1.1//EN" "http://www.w3.org/Graphics/SVG/1.1/DTD/svg11.dtd" >
<svg xmlns="http://www.w3.org/2000/svg" xmlns:xlink="http://www.w3.org/1999/xlink" version="1.1" viewBox="-10 0 1010 1000">
   <path fill="currentColor"
d="M293 742v-529h51v632h-51v-44l-219 21v-609h52v544l55 -5v-696h53v691zM612 160v258h72v67h-72v382c0 40 -8 61 -29 73c-21 13 -55 16 -104 16c-3 -20 -13 -52 -22 -72c39 1 72 1 82 0c11 0 14 -4 14 -16v-339c-39 141 -97 276 -161 354c-9 -17 -29 -40 -44 -52
c65 -71 125 -210 160 -346h-99h-26c14 -73 30 -194 39 -282l55 5c-7 66 -17 145 -27 210h103v-258h-162v-67h281v67h-60zM911 85l41 32c-27 92 -60 210 -90 305c64 96 80 174 80 244c0 59 -10 109 -34 130c-13 12 -29 18 -47 21c-18 2 -40 2 -62 1c-1 -20 -6 -50 -16 -71
c22 4 40 4 55 3c12 -1 22 -4 29 -11c15 -12 20 -45 20 -80c-1 -63 -18 -137 -82 -229c27 -87 56 -196 74 -275h-121v802h-56v-869h200z" />
</svg>
