<?xml version="1.0" standalone="no"?>
<!DOCTYPE svg PUBLIC "-//W3C//DTD SVG 1.1//EN" "http://www.w3.org/Graphics/SVG/1.1/DTD/svg11.dtd" >
<svg xmlns="http://www.w3.org/2000/svg" xmlns:xlink="http://www.w3.org/1999/xlink" version="1.1" viewBox="-10 0 1010 1000">
   <path fill="currentColor"
d="M883 89l60 28c-32 65 -74 141 -108 190l-54 -25c34 -51 79 -134 102 -193zM334 736v-494h57v603h-57v-49l-259 32v-586h59v517l70 -8v-697h63v690zM604 276l-59 29c-19 -49 -58 -132 -90 -193l56 -24c33 61 74 140 93 188zM543 678h301v-106h-301v106zM844 409h-301v103
h301v-103zM917 343v523c0 38 -9 59 -35 71s-67 13 -133 13c-4 -20 -16 -50 -26 -69c46 2 91 2 103 2c13 -1 18 -5 18 -18v-124h-301v216h-73v-614h189v-299h73v299h185z" />
</svg>
