<?xml version="1.0" standalone="no"?>
<!DOCTYPE svg PUBLIC "-//W3C//DTD SVG 1.1//EN" "http://www.w3.org/Graphics/SVG/1.1/DTD/svg11.dtd" >
<svg xmlns="http://www.w3.org/2000/svg" xmlns:xlink="http://www.w3.org/1999/xlink" version="1.1" viewBox="-10 0 1010 1000">
   <path fill="currentColor"
d="M495 226v109h-66v-173h247c-12 -32 -29 -72 -44 -103l67 -17c18 38 40 85 52 120h206v163h-68v-99h-394zM728 329l47 -38c58 52 136 128 175 172l-49 45c-38 -46 -114 -124 -173 -179zM612 290l62 22c-49 76 -127 157 -195 208c-9 -12 -31 -42 -45 -54
c66 -45 134 -112 178 -176zM331 728v-519h54v626h-54v-46l-261 31v-614h55v545l72 -8v-689h61v682zM732 858h226v66h-535v-66h235v-249h-183v-67h428v67h-171v249z" />
</svg>
