<?xml version="1.0" standalone="no"?>
<!DOCTYPE svg PUBLIC "-//W3C//DTD SVG 1.1//EN" "http://www.w3.org/Graphics/SVG/1.1/DTD/svg11.dtd" >
<svg xmlns="http://www.w3.org/2000/svg" xmlns:xlink="http://www.w3.org/1999/xlink" version="1.1" viewBox="-10 0 1010 1000">
   <path fill="currentColor"
d="M886 74v178h-764v-178h73v113h266v-144h75v144h273v-113h77zM700 626v-92h-167v92h167zM298 626h163v-92h-163v92zM298 379v92h163v-92h-163zM700 471v-92h-167v92h167zM954 534h-185v92h140v62h-376v82h399v62h-399v124h-72v-124h-388v-62h388v-82h-354v-62h122v-92
h-180v-63h180v-92h-115v-61h786v61h-131v92h185v63z" />
</svg>
