<?xml version="1.0" standalone="no"?>
<!DOCTYPE svg PUBLIC "-//W3C//DTD SVG 1.1//EN" "http://www.w3.org/Graphics/SVG/1.1/DTD/svg11.dtd" >
<svg xmlns="http://www.w3.org/2000/svg" xmlns:xlink="http://www.w3.org/1999/xlink" version="1.1" viewBox="-10 0 1010 1000">
   <path fill="currentColor"
d="M894 69v169h-777v-169h74v107h270v-133h75v133h282v-107h76zM232 454v70h547v-70h-547zM232 337v69h547v-69h-547zM858 573h-701v-286h701v286zM226 863l274 -22c-1 20 0 47 2 62c-305 27 -342 32 -365 42v-1l-1 1c-6 -19 -22 -50 -35 -68c21 -7 52 -25 52 -62v-211h73
v73h260v61h-260v125zM668 890h169c39 0 46 -14 49 -98c18 12 46 22 66 25c-9 106 -30 134 -108 134h-183c-98 0 -124 -19 -124 -94v-251h74v108c83 -22 181 -56 243 -82l52 50c-87 36 -204 71 -295 92v83c0 28 9 33 57 33z" />
</svg>
