<?xml version="1.0" standalone="no"?>
<!DOCTYPE svg PUBLIC "-//W3C//DTD SVG 1.1//EN" "http://www.w3.org/Graphics/SVG/1.1/DTD/svg11.dtd" >
<svg xmlns="http://www.w3.org/2000/svg" xmlns:xlink="http://www.w3.org/1999/xlink" version="1.1" viewBox="-10 0 1010 1000">
   <path fill="currentColor"
d="M935 254l-40 50c-43 -29 -106 -62 -175 -97c-83 42 -174 78 -258 104c-9 -15 -30 -44 -44 -57c77 -19 158 -47 232 -79c-67 -30 -138 -59 -202 -81l37 -44c73 25 155 57 233 93c55 -30 105 -63 143 -98l60 27c-38 36 -85 70 -137 100c59 28 112 57 151 82zM824 621v-63
h-247v63h247zM577 744h247v-70h-247v70zM954 429h-317c-14 24 -30 48 -46 70h302v386c0 33 -7 50 -31 61c-23 10 -59 11 -113 11c-4 -18 -15 -43 -25 -59c40 1 76 1 86 0c11 0 14 -3 14 -14v-87h-247v160h-66v-369c-29 27 -59 51 -91 72c-6 -12 -23 -36 -37 -52v237h-57v-38
l-243 20v-615h57v550l64 -5v-698h58v694l64 -6v-536h57v387c69 -42 129 -100 175 -169h-142v-64h181c16 -33 31 -69 42 -106l66 15c-10 31 -22 62 -35 91h284v64z" />
</svg>
