<?xml version="1.0" standalone="no"?>
<!DOCTYPE svg PUBLIC "-//W3C//DTD SVG 1.1//EN" "http://www.w3.org/Graphics/SVG/1.1/DTD/svg11.dtd" >
<svg xmlns="http://www.w3.org/2000/svg" xmlns:xlink="http://www.w3.org/1999/xlink" version="1.1" viewBox="-10 0 1010 1000">
   <path fill="currentColor"
d="M882 82v184h-754v-184h73v119h260v-158h75v158h270v-119h76zM559 311l68 14c-35 117 -96 228 -162 299c-13 -11 -42 -31 -60 -41c68 -66 122 -167 154 -272zM288 487v21c33 36 115 133 135 158l-44 58c-17 -29 -57 -88 -91 -134v365h-71v-340c-37 90 -82 172 -130 224
c-11 -16 -34 -40 -50 -52c65 -63 129 -182 167 -300h-145v-66h158v-131h71v131h138v66h-138zM714 669l59 -25c59 85 125 200 152 271l-63 31c-7 -20 -17 -43 -29 -67c-316 34 -353 40 -379 52c-3 -15 -15 -51 -23 -70c18 -4 36 -27 59 -62c24 -34 102 -166 146 -288l74 26
c-49 109 -111 219 -174 307l267 -27c-27 -50 -59 -103 -89 -148zM716 325l63 -19c37 103 107 209 184 260c-17 14 -41 41 -52 59c-83 -63 -155 -181 -195 -300z" />
</svg>
