<?xml version="1.0" standalone="no"?>
<!DOCTYPE svg PUBLIC "-//W3C//DTD SVG 1.1//EN" "http://www.w3.org/Graphics/SVG/1.1/DTD/svg11.dtd" >
<svg xmlns="http://www.w3.org/2000/svg" xmlns:xlink="http://www.w3.org/1999/xlink" version="1.1" viewBox="-10 0 1010 1000">
   <path fill="currentColor"
d="M800 347h-581v96h581v-96zM873 501h-654c-2 135 -24 323 -121 450c-12 -13 -40 -37 -56 -45c95 -125 106 -299 106 -425v-193h725v213zM810 853v-111h71v212h-71v-41h-558v-171h68v111h203v-152h-249v-166h69v110h180v-133h72v133h189v-110h71v166h-260v152h215zM817 69
h75v165h-773v-165h72v103h270v-127h73v127h283v-103z" />
</svg>
