<?xml version="1.0" standalone="no"?>
<!DOCTYPE svg PUBLIC "-//W3C//DTD SVG 1.1//EN" "http://www.w3.org/Graphics/SVG/1.1/DTD/svg11.dtd" >
<svg xmlns="http://www.w3.org/2000/svg" xmlns:xlink="http://www.w3.org/1999/xlink" version="1.1" viewBox="-10 0 1010 1000">
   <path fill="currentColor"
d="M951 436l-59 30c-26 -56 -80 -140 -139 -212c43 -65 91 -145 116 -195l63 17c-29 55 -73 122 -108 176c50 62 102 136 127 184zM772 433l-60 30c-22 -57 -73 -140 -127 -212c42 -65 88 -144 111 -195l64 18c-28 54 -69 122 -105 176c47 62 94 136 117 183zM344 735v-524
h60v635h-60v-45l-271 26v-616h62v544l70 -7v-693h61v688zM597 438l-62 28c-20 -57 -67 -141 -118 -215c41 -65 85 -146 108 -197l63 18c-27 54 -67 123 -102 178c45 63 90 139 111 188zM662 555h-139v118h139v-118zM873 673v-118h-149v118h149zM724 855h149v-122h-149v122z
M523 855h139v-122h-139v122zM459 958v-466h480v464h-66v-38h-350v40h-64z" />
</svg>
