<?xml version="1.0" standalone="no"?>
<!DOCTYPE svg PUBLIC "-//W3C//DTD SVG 1.1//EN" "http://www.w3.org/Graphics/SVG/1.1/DTD/svg11.dtd" >
<svg xmlns="http://www.w3.org/2000/svg" xmlns:xlink="http://www.w3.org/1999/xlink" version="1.1" viewBox="-10 0 1010 1000">
   <path fill="currentColor"
d="M610 172l-59 29c-11 -33 -38 -88 -64 -127l57 -26c26 39 55 90 66 124zM304 745v-534h55v634h-55v-41l-230 23v-615h54v550l60 -6v-701h57v696zM719 371v-94h-82v94h82zM866 574v-139h-97v124c0 15 2 17 20 17h61c10 0 14 0 16 -2zM501 846h365v-79h-365v79zM590 435h-89
v272h365v-81h-8h-74c-52 0 -66 -12 -66 -67v-124h-77v40c0 60 -20 136 -92 191c-9 -10 -30 -28 -42 -34c67 -49 83 -110 83 -159v-38zM957 277h-176v94h151v580h-66v-44h-365v50h-65v-586h140v-94h-165v-66h304c34 -46 76 -116 100 -165l67 25c-29 47 -63 99 -94 140h169v66
z" />
</svg>
