<?xml version="1.0" standalone="no"?>
<!DOCTYPE svg PUBLIC "-//W3C//DTD SVG 1.1//EN" "http://www.w3.org/Graphics/SVG/1.1/DTD/svg11.dtd" >
<svg xmlns="http://www.w3.org/2000/svg" xmlns:xlink="http://www.w3.org/1999/xlink" version="1.1" viewBox="-10 0 1010 1000">
   <path fill="currentColor"
d="M835 404v-95h-301v95h301zM835 557v-98h-301v98h301zM835 710v-99h-301v99h301zM467 250h158c9 -29 17 -65 22 -95h-212v-64h501v64h-208c-10 32 -20 66 -30 95h207v518h-438v-518zM407 846h-61v-44l-272 25v-616h63v544l70 -6v-694h63v688l76 -7v-525h61v635zM581 786
l62 40c-58 51 -150 103 -228 134c-11 -15 -32 -39 -46 -52c77 -29 168 -79 212 -122zM715 829l54 -39c64 34 149 88 193 127l-58 44c-39 -39 -123 -94 -189 -132z" />
</svg>
