<?xml version="1.0" standalone="no"?>
<!DOCTYPE svg PUBLIC "-//W3C//DTD SVG 1.1//EN" "http://www.w3.org/Graphics/SVG/1.1/DTD/svg11.dtd" >
<svg xmlns="http://www.w3.org/2000/svg" xmlns:xlink="http://www.w3.org/1999/xlink" version="1.1" viewBox="-10 0 1010 1000">
   <path fill="currentColor"
d="M863 263v-125h-107v125h107zM923 81v239h-225v-239h225zM465 449v-62h420v62h-420zM584 263v-125h-104v125h104zM644 81v239h-221v-239h221zM309 745v-534h57v634h-57v-40l-235 22v-615h56v550l60 -6v-701h59v695zM957 583h-358c-8 25 -17 49 -26 73h321s-1 21 -4 31
c-22 146 -44 212 -74 238c-18 17 -36 23 -64 24c-24 2 -71 2 -119 -1c-2 -21 -10 -48 -21 -67c49 5 96 6 115 6c17 0 26 -1 36 -9c19 -16 37 -62 52 -161h-337c16 -36 33 -87 48 -134h-127v-63h558v63z" />
</svg>
