<?xml version="1.0" standalone="no"?>
<!DOCTYPE svg PUBLIC "-//W3C//DTD SVG 1.1//EN" "http://www.w3.org/Graphics/SVG/1.1/DTD/svg11.dtd" >
<svg xmlns="http://www.w3.org/2000/svg" xmlns:xlink="http://www.w3.org/1999/xlink" version="1.1" viewBox="-10 0 1010 1000">
   <path fill="currentColor"
d="M323 738v-527h59v635h-59v-42l-246 23v-19h-1v-597h59v545l61 -6v-695h60v689zM571 482v83h199v-83h-199zM770 210h-199v76h199v-76zM571 345v79h199v-79h-199zM956 565v64h-434v220h413v64h-482v-284h-47v-64h95v-355h-75v-63h75v-103h70v103h199v-103h71v103h91v63h-91
v355h115zM891 806l-56 33c-20 -47 -66 -122 -107 -178l54 -27c42 54 89 126 109 172zM604 845l-50 -31c35 -48 80 -124 104 -179l56 32c-32 62 -76 131 -110 178z" />
</svg>
