<?xml version="1.0" standalone="no"?>
<!DOCTYPE svg PUBLIC "-//W3C//DTD SVG 1.1//EN" "http://www.w3.org/Graphics/SVG/1.1/DTD/svg11.dtd" >
<svg xmlns="http://www.w3.org/2000/svg" xmlns:xlink="http://www.w3.org/1999/xlink" version="1.1" viewBox="-10 0 1010 1000">
   <path fill="currentColor"
d="M655 223l-1 3c18 59 46 115 80 163c37 -46 64 -102 83 -166h-162zM944 223h-54c-24 87 -60 160 -111 220c50 52 110 91 179 116c-16 14 -36 39 -46 58c-70 -28 -130 -71 -180 -125c-54 50 -119 90 -196 120v228h258v-190h73v303h-73v-44h-637v-7h-18v-252h71v190h252
v-233h72c-9 -17 -25 -43 -37 -57c76 -26 140 -63 192 -111c-29 -41 -54 -87 -74 -137c-21 36 -44 68 -69 96c-8 -9 -25 -24 -39 -36c-15 35 -29 68 -44 93l-54 -21c14 -27 29 -65 43 -102h-90v209c0 34 -6 50 -31 61c-23 10 -59 11 -113 11c-4 -19 -13 -43 -22 -61
c41 1 76 1 87 1s14 -4 14 -14v-190c-49 84 -136 173 -217 221c-10 -16 -27 -41 -42 -53c73 -37 153 -110 201 -185h-183v-56h220c-38 -28 -88 -59 -130 -81l42 -35c35 16 75 40 110 62c36 -22 75 -54 105 -84h-310v-60h369l15 -4l45 34c-45 54 -111 110 -175 150
c8 5 14 10 20 15l-3 3h115l10 -4l46 15l-10 25c55 -71 94 -168 117 -272l68 13c-9 37 -19 73 -31 108h265v62z" />
</svg>
