<?xml version="1.0" standalone="no"?>
<!DOCTYPE svg PUBLIC "-//W3C//DTD SVG 1.1//EN" "http://www.w3.org/Graphics/SVG/1.1/DTD/svg11.dtd" >
<svg xmlns="http://www.w3.org/2000/svg" xmlns:xlink="http://www.w3.org/1999/xlink" version="1.1" viewBox="-10 0 1010 1000">
   <path fill="currentColor"
d="M166 264h67v173h526v-173h70v231h-663v-231zM698 389l-44 41c-35 -21 -86 -47 -142 -71c-64 29 -136 53 -209 70c-6 -13 -21 -32 -33 -43c62 -13 123 -31 178 -54c-46 -17 -93 -34 -136 -47l42 -37c50 15 106 35 160 55c41 -20 75 -44 100 -68l52 25
c-24 25 -57 47 -93 68c49 21 93 42 125 61zM905 617l-35 48c-66 -37 -195 -89 -297 -120l34 -42c99 29 231 78 298 114zM884 72v155h-758v-155h74v96h262v-124h74v124h271v-96h77zM348 504l57 25c-74 64 -179 119 -292 150l-39 -49c99 -24 205 -69 274 -126zM664 712h-310
c37 39 88 71 150 98c63 -26 118 -58 160 -98zM731 652l46 28c-46 67 -111 119 -190 159c105 31 231 48 366 55c-14 15 -31 42 -40 61c-154 -11 -295 -35 -409 -81c-126 47 -277 69 -429 81c-5 -19 -17 -45 -27 -61c132 -8 263 -24 376 -57c-49 -26 -92 -58 -127 -96
c-38 22 -81 41 -128 59c-9 -15 -28 -38 -43 -48c139 -46 239 -115 290 -179l72 14c-18 24 -41 46 -65 68h295z" />
</svg>
