<?xml version="1.0" standalone="no"?>
<!DOCTYPE svg PUBLIC "-//W3C//DTD SVG 1.1//EN" "http://www.w3.org/Graphics/SVG/1.1/DTD/svg11.dtd" >
<svg xmlns="http://www.w3.org/2000/svg" xmlns:xlink="http://www.w3.org/1999/xlink" version="1.1" viewBox="-10 0 1010 1000">
   <path fill="currentColor"
d="M851 78v164h-701v-164h74v102h237v-136h75v136h239v-102h76zM911 333v60h-826v-60h378c-11 -22 -26 -43 -40 -61l61 -28c26 25 47 61 60 89h367zM518 689h-273v96h273v-96zM591 837h-346v56h-73v-256h419v200zM956 511v63h-155v295c0 45 -12 64 -50 74
c-37 11 -98 11 -192 11c-6 -20 -20 -47 -31 -66c78 3 153 2 173 2c21 -2 26 -7 26 -23v-293h-682v-63h261c-16 -30 -35 -62 -55 -89l68 -17c24 32 50 73 66 106h240c18 -32 39 -70 51 -98l82 12c-16 31 -34 60 -51 86h249z" />
</svg>
