<?xml version="1.0" standalone="no"?>
<!DOCTYPE svg PUBLIC "-//W3C//DTD SVG 1.1//EN" "http://www.w3.org/Graphics/SVG/1.1/DTD/svg11.dtd" >
<svg xmlns="http://www.w3.org/2000/svg" xmlns:xlink="http://www.w3.org/1999/xlink" version="1.1" viewBox="-10 0 1010 1000">
   <path fill="currentColor"
d="M876 48l39 58c-126 37 -326 59 -489 68c-3 -17 -11 -42 -17 -58c162 -12 358 -35 467 -68zM820 319l-51 -20c24 -40 55 -105 71 -151l59 23c-26 52 -55 110 -79 148zM716 287l-59 25c-7 -34 -28 -89 -49 -130l56 -22c22 40 44 93 52 127zM549 302l-59 25
c-8 -34 -30 -87 -53 -127l56 -21c24 38 46 90 56 123zM299 745v-534h54v634h-54v-40l-225 22v-615h53v550l58 -6v-701h56v696zM952 750h-232c42 80 124 128 248 144c-15 14 -33 42 -41 62c-128 -25 -211 -81 -258 -177c-41 91 -119 146 -279 180c-6 -17 -22 -44 -34 -58
c149 -28 218 -74 252 -151h-217v-62h236c4 -23 7 -47 10 -74c-167 17 -193 21 -213 29v-1c-2 -14 -10 -46 -17 -64c21 -3 50 -16 85 -39c15 -8 42 -25 76 -49c-91 5 -110 8 -123 13c-3 -14 -12 -46 -19 -64c15 -2 30 -11 47 -24c20 -14 82 -66 124 -123l55 34
c-37 39 -77 77 -116 107l111 -3c35 -27 72 -59 104 -90l47 42c-77 69 -161 131 -243 181l270 -22c-20 -27 -42 -54 -62 -77l48 -29c50 53 106 127 129 178l-52 33c-7 -16 -16 -33 -28 -52l-190 18h36c-3 27 -6 52 -10 76h256v62z" />
</svg>
