<?xml version="1.0" standalone="no"?>
<!DOCTYPE svg PUBLIC "-//W3C//DTD SVG 1.1//EN" "http://www.w3.org/Graphics/SVG/1.1/DTD/svg11.dtd" >
<svg xmlns="http://www.w3.org/2000/svg" xmlns:xlink="http://www.w3.org/1999/xlink" version="1.1" viewBox="-10 0 1010 1000">
   <path fill="currentColor"
d="M856 104l60 25c-28 43 -59 88 -85 118l-49 -21c25 -33 57 -86 74 -122zM569 98l50 16c-16 53 -40 115 -77 153l-49 -29c35 -34 62 -93 76 -140zM928 353l-48 50c-41 -32 -116 -82 -182 -124c-33 57 -86 99 -174 129c-7 -16 -26 -42 -40 -54c161 -50 187 -139 195 -308h69
c-4 69 -10 127 -26 176c68 40 158 96 206 131zM418 110l58 23c-25 41 -52 83 -75 111l-48 -20c20 -31 50 -82 65 -114zM152 100l50 19c-16 50 -41 109 -76 146l-48 -29c32 -33 61 -91 74 -136zM463 337l-50 46c-27 -28 -78 -69 -126 -103c-33 60 -89 101 -184 131
c-6 -17 -24 -42 -38 -54c169 -47 195 -132 201 -311h67c-3 69 -9 127 -23 175c52 35 118 84 153 116zM775 843v-231h73v343h-73v-43h-621v-298h73v229h235v-309h73v309h240zM88 582v-164h828v164h-73v-98h-683v98h-72z" />
</svg>
