<?xml version="1.0" standalone="no"?>
<!DOCTYPE svg PUBLIC "-//W3C//DTD SVG 1.1//EN" "http://www.w3.org/Graphics/SVG/1.1/DTD/svg11.dtd" >
<svg xmlns="http://www.w3.org/2000/svg" xmlns:xlink="http://www.w3.org/1999/xlink" version="1.1" viewBox="-10 0 1010 1000">
   <path fill="currentColor"
d="M378 838h-57v-34l-242 23v-615h56v550l65 -6v-701h58v695l63 -6v-533h57v627zM401 938l-54 -33c46 -44 71 -120 82 -193l58 15c-13 81 -35 162 -86 211zM522 732l56 -12c17 53 30 123 30 168l-60 13c1 -46 -10 -115 -26 -169zM625 723l51 -16c25 44 50 101 58 139l-54 17
c-7 -38 -31 -97 -55 -140zM853 802l-51 22c-14 -32 -45 -81 -74 -116l47 -20c32 34 63 81 78 114zM798 204h-277v123h277v-123zM964 525h-443v75h419s-1 20 -2 30c-11 197 -23 273 -48 300c-15 17 -32 24 -58 26c-24 2 -69 1 -116 -1c0 -19 -7 -45 -18 -63c45 5 86 6 103 6
c14 0 24 -2 31 -10c16 -17 26 -76 36 -225h-416v-521h137c13 -32 27 -72 34 -100l82 14c-14 30 -28 61 -42 86h205v247h-347v73h443v63z" />
</svg>
