<?xml version="1.0" standalone="no"?>
<!DOCTYPE svg PUBLIC "-//W3C//DTD SVG 1.1//EN" "http://www.w3.org/Graphics/SVG/1.1/DTD/svg11.dtd" >
<svg xmlns="http://www.w3.org/2000/svg" xmlns:xlink="http://www.w3.org/1999/xlink" version="1.1" viewBox="-10 0 1010 1000">
   <path fill="currentColor"
d="M953 222v68h-558v-68h176c-18 -39 -54 -102 -85 -148l57 -27c33 45 70 104 88 144l-58 31h137c32 -51 68 -126 88 -179l72 23c-26 52 -59 110 -88 156h171zM311 745v-534h52v634h-52v-41l-240 18v-610h52v546l63 -4v-704h60v699zM563 703l49 -9c28 74 52 171 61 234
l-52 11c-3 -20 -7 -43 -12 -69c-172 28 -199 35 -216 44c-3 -13 -13 -44 -20 -59c18 -5 39 -35 66 -79c17 -25 57 -95 99 -181c-99 12 -120 16 -133 23c-3 -13 -14 -45 -20 -60c12 -4 26 -22 40 -47c15 -23 63 -120 86 -208l60 26c-27 75 -65 152 -103 213l97 -8
c17 -38 32 -77 46 -116l59 26c-57 137 -129 279 -204 389l130 -17c-9 -40 -21 -79 -33 -113zM966 925l-54 14c-3 -20 -8 -44 -15 -69c-168 27 -195 33 -210 42c-4 -13 -14 -42 -21 -59c18 -4 35 -35 59 -80c15 -25 49 -96 82 -180c-102 11 -124 16 -137 23
c-3 -13 -14 -45 -21 -60c13 -3 25 -21 38 -46c12 -24 57 -121 75 -209l60 25c-24 75 -57 152 -92 215l101 -9c14 -39 28 -81 39 -121l59 23c-47 138 -111 285 -176 398l128 -17c-13 -40 -28 -80 -42 -114l52 -13c34 75 64 173 75 237z" />
</svg>
