<?xml version="1.0" standalone="no"?>
<!DOCTYPE svg PUBLIC "-//W3C//DTD SVG 1.1//EN" "http://www.w3.org/Graphics/SVG/1.1/DTD/svg11.dtd" >
<svg xmlns="http://www.w3.org/2000/svg" xmlns:xlink="http://www.w3.org/1999/xlink" version="1.1" viewBox="-10 0 1010 1000">
   <path fill="currentColor"
d="M349 845h-52v-40l-223 22v-615h51v550l59 -6v-701h54v695l59 -5v-534h52v634zM619 418l65 -10c14 35 28 79 34 110h235v61h-309c-3 33 -7 64 -13 93h263s-1 21 -3 31c-12 146 -24 206 -48 229c-16 17 -33 22 -60 24c-23 1 -68 1 -114 -1c-2 -20 -10 -45 -20 -63
c45 5 88 6 105 6c15 0 25 -1 33 -9c13 -14 23 -56 32 -156h-204c-33 103 -97 178 -228 226c-8 -17 -26 -42 -41 -55c172 -58 212 -168 227 -325h-178v-61h252c-6 -30 -16 -68 -28 -100zM812 324h141v157h-69v-98h-423v98h-66v-157h344c19 -36 42 -85 55 -123h-246
c20 34 38 76 44 104l-67 16c-6 -29 -24 -75 -43 -109l50 -11h-125v-61h237c-6 -29 -14 -64 -23 -93l66 -9c12 31 24 71 30 102h219v61h-88l25 4c-19 42 -42 86 -61 119z" />
</svg>
