<?xml version="1.0" standalone="no"?>
<!DOCTYPE svg PUBLIC "-//W3C//DTD SVG 1.1//EN" "http://www.w3.org/Graphics/SVG/1.1/DTD/svg11.dtd" >
<svg xmlns="http://www.w3.org/2000/svg" xmlns:xlink="http://www.w3.org/1999/xlink" version="1.1" viewBox="-10 0 1010 1000">
   <path fill="currentColor"
d="M879 69l48 42c-47 31 -106 63 -151 82l-37 -35c43 -23 105 -62 140 -89zM742 252l29 -42c56 23 132 61 170 86l-30 49c-38 -26 -113 -66 -169 -93zM592 147l-27 52c-30 -21 -91 -54 -138 -75l27 -46c46 18 108 49 138 69zM582 212l11 48c-58 28 -114 56 -165 80l-26 -59
c47 -16 112 -42 180 -69zM313 740v-526h54v632h-54v-41l-236 22v-615h54v544l62 -5v-696h58v690zM538 725h275v-77h-275v77zM813 590v-76h-275v76h275zM536 451h286c-63 -42 -114 -100 -151 -171c-26 71 -66 127 -135 171zM642 44h68c-3 54 -8 104 -17 149
c44 121 138 215 272 251c-14 13 -33 39 -42 56c-15 -5 -29 -11 -43 -17v394c0 37 -7 56 -33 67c-25 11 -67 11 -129 11c-3 -19 -12 -45 -22 -64c47 2 88 2 100 1c13 -1 17 -4 17 -15v-94h-275v173h-67v-471c-19 8 -39 16 -62 23c-8 -17 -25 -41 -39 -53
c226 -67 260 -196 272 -411z" />
</svg>
