<?xml version="1.0" standalone="no"?>
<!DOCTYPE svg PUBLIC "-//W3C//DTD SVG 1.1//EN" "http://www.w3.org/Graphics/SVG/1.1/DTD/svg11.dtd" >
<svg xmlns="http://www.w3.org/2000/svg" xmlns:xlink="http://www.w3.org/1999/xlink" version="1.1" viewBox="-10 0 1010 1000">
   <path fill="currentColor"
d="M956 360l-52 36c-15 -37 -42 -91 -72 -142c-19 59 -41 114 -71 158c-11 -10 -35 -24 -50 -31c59 -88 93 -228 106 -333l62 10c-7 37 -15 79 -25 121c38 59 83 136 102 181zM751 287l-42 45c-12 -22 -33 -52 -55 -82c-18 62 -41 121 -72 166c-10 -11 -32 -29 -45 -36
c57 -87 84 -226 96 -331l61 9c-6 39 -13 82 -23 126c30 35 62 77 80 103zM490 49l62 19c-36 89 -96 195 -159 264c-10 -12 -28 -34 -40 -46c57 -62 110 -159 137 -237zM484 259l57 16c-16 49 -38 101 -63 152v530h-61v-424c-16 24 -32 47 -48 66c-7 -12 -23 -32 -33 -44v292
h-51v-44l-211 19v-611h52v545l53 -4v-697h56v692l50 -5v-530h51v339c64 -78 119 -197 148 -292zM900 879h64c-9 17 -19 48 -21 67h-49c-108 0 -213 -33 -281 -180c-18 65 -41 126 -72 173c-11 -10 -35 -27 -48 -35c72 -112 90 -303 98 -434l65 6c-5 57 -12 126 -24 195
c23 71 54 118 90 150v-399h66v130h146v62h-146v246c36 15 74 19 112 19z" />
</svg>
