<?xml version="1.0" standalone="no"?>
<!DOCTYPE svg PUBLIC "-//W3C//DTD SVG 1.1//EN" "http://www.w3.org/Graphics/SVG/1.1/DTD/svg11.dtd" >
<svg xmlns="http://www.w3.org/2000/svg" xmlns:xlink="http://www.w3.org/1999/xlink" version="1.1" viewBox="-10 0 1010 1000">
   <path fill="currentColor"
d="M750 277l68 5c-6 35 -14 66 -25 95c55 42 120 100 151 138l-49 42c-26 -34 -77 -84 -127 -125c-27 49 -64 88 -108 119c-11 -11 -38 -34 -53 -43c81 -48 129 -127 143 -231zM483 280l66 7c-7 36 -16 68 -28 98c39 29 83 66 107 92l-45 43c-18 -22 -53 -55 -87 -82
c-33 60 -78 108 -131 145c-12 -11 -39 -32 -55 -41c93 -55 151 -144 173 -262zM888 80v178h-769v-178h73v116h269v-153h74v153h278v-116h75zM248 273l65 24c-53 76 -140 156 -220 207c-10 -14 -30 -37 -43 -49c76 -45 158 -119 198 -182zM286 422l64 24
c-26 41 -60 81 -96 119v391h-70v-323c-33 29 -67 56 -99 78c-8 -14 -31 -44 -44 -58c91 -55 186 -142 245 -231zM678 734v135c26 4 56 5 86 5c25 0 161 0 196 -1c-11 17 -20 48 -23 67h-178c-144 0 -245 -27 -311 -146c-26 66 -62 122 -110 166c-10 -13 -38 -38 -55 -49
c84 -68 125 -178 141 -315l70 8c-5 38 -11 72 -19 105c29 79 74 122 133 143v-294h70v111h220v65h-220z" />
</svg>
