<?xml version="1.0" standalone="no"?>
<!DOCTYPE svg PUBLIC "-//W3C//DTD SVG 1.1//EN" "http://www.w3.org/Graphics/SVG/1.1/DTD/svg11.dtd" >
<svg xmlns="http://www.w3.org/2000/svg" xmlns:xlink="http://www.w3.org/1999/xlink" version="1.1" viewBox="-10 0 1010 1000">
   <path fill="currentColor"
d="M407 412l-21 -57c47 -21 117 -54 185 -89v-128h-170v-58h233v332h-63v-89c-58 32 -118 64 -164 89zM529 241l-38 40c-19 -23 -57 -57 -88 -78l35 -38c30 19 69 50 91 76zM293 745v-534h54v634h-54v-40l-223 22v-615h53v550l57 -6v-701h55v696zM832 714l61 23
c-82 115 -248 183 -448 219c-7 -16 -22 -38 -34 -52c189 -29 348 -90 421 -190zM660 554l52 20c-50 60 -134 114 -210 148c-10 -12 -27 -28 -41 -37c73 -29 155 -80 199 -131zM745 639l54 23c-67 74 -184 134 -297 170c-9 -12 -25 -30 -39 -41c108 -30 223 -88 282 -152z
M697 400l14 12c-6 7 -12 15 -19 23c91 76 187 116 272 146c-11 17 -25 45 -30 68c-86 -36 -179 -85 -277 -175c-75 77 -174 140 -264 179c-7 -17 -19 -43 -29 -59c111 -44 239 -125 307 -216l4 3l-12 -31c48 -21 117 -55 186 -88v-124h-179v-58h241v349h-62v-113
c-53 31 -107 60 -152 84zM803 243l-38 40c-19 -23 -57 -57 -89 -78l36 -37c30 18 69 49 91 75z" />
</svg>
