<?xml version="1.0" standalone="no"?>
<!DOCTYPE svg PUBLIC "-//W3C//DTD SVG 1.1//EN" "http://www.w3.org/Graphics/SVG/1.1/DTD/svg11.dtd" >
<svg xmlns="http://www.w3.org/2000/svg" xmlns:xlink="http://www.w3.org/1999/xlink" version="1.1" viewBox="-10 0 1010 1000">
   <path fill="currentColor"
d="M274 744v-532h48v633h-48v-41l-204 18v-609h50v545l52 -5v-697h49v693zM420 491v97h62v-97h-62zM420 345v97h62v-97h-62zM591 442v-97h-66v97h66zM591 588v-97h-66v97h66zM653 785h-120v172h-60v-172h-125v-60h125v-85h-105v-346h106v-88h-120v-60h120v-103h60v103h120
v60h-120v88h110v346h-111v85h120v60zM965 365v59h-66v533h-58v-533h-84v47c0 146 -13 346 -101 475c-9 -13 -32 -39 -45 -49c80 -121 88 -293 88 -426v-327c79 -17 171 -45 222 -75l36 52c-53 28 -130 51 -200 67v177h208z" />
</svg>
