<?xml version="1.0" standalone="no"?>
<!DOCTYPE svg PUBLIC "-//W3C//DTD SVG 1.1//EN" "http://www.w3.org/Graphics/SVG/1.1/DTD/svg11.dtd" >
<svg xmlns="http://www.w3.org/2000/svg" xmlns:xlink="http://www.w3.org/1999/xlink" version="1.1" viewBox="-10 0 1010 1000">
   <path fill="currentColor"
d="M301 745v-534h57v634h-57v-40l-227 22v-615h55v550l57 -6v-701h58v696zM584 456v-91c-60 31 -119 62 -169 88l-29 -58c52 -22 124 -55 198 -90v-159h-191v-65h251v375h-60zM553 266l-38 37c-24 -28 -70 -71 -108 -101l38 -33c38 28 85 70 108 97zM831 697v-91h-315v91
h315zM516 848h315v-94h-315v94zM636 461l73 12c-10 26 -19 50 -27 72h217v405h-68v-41h-315v47h-66v-411h162c9 -28 19 -60 24 -84zM671 81h256v376h-59v-101c-60 32 -119 65 -170 92l-28 -59c51 -22 124 -57 198 -93v-150h-197v-65zM835 267l-40 38
c-23 -29 -69 -73 -107 -102l37 -33c38 29 85 70 110 97z" />
</svg>
