<?xml version="1.0" standalone="no"?>
<!DOCTYPE svg PUBLIC "-//W3C//DTD SVG 1.1//EN" "http://www.w3.org/Graphics/SVG/1.1/DTD/svg11.dtd" >
<svg xmlns="http://www.w3.org/2000/svg" xmlns:xlink="http://www.w3.org/1999/xlink" version="1.1" viewBox="-10 0 1010 1000">
   <path fill="currentColor"
d="M283 742v-530h49v633h-49v-43l-209 20v-609h51v544l53 -5v-696h52v691zM638 545v338c0 35 -6 51 -30 62c-23 10 -62 10 -118 10c-2 -18 -10 -41 -18 -59c42 2 75 2 88 1c10 0 13 -4 13 -14v-88c-63 34 -127 68 -181 95l-29 -54c54 -22 132 -60 210 -98v-137h-185v-56h250
zM549 710l-42 36c-22 -28 -68 -72 -105 -103l42 -32c37 29 83 71 105 99zM805 448v-85h-275v85h275zM873 312v187h-408v-187h408zM927 545v337c0 35 -6 52 -31 63c-24 10 -65 10 -124 10c-3 -18 -11 -41 -19 -59c45 2 82 2 94 1c11 0 14 -4 14 -15v-93
c-65 35 -130 69 -185 96l-29 -54c56 -23 134 -59 214 -98v-132h-193v-56h259zM830 709l-42 36c-23 -28 -69 -70 -108 -100l42 -31c38 27 85 67 108 95zM549 210h249c-45 -25 -90 -54 -134 -87c-34 31 -73 61 -115 87zM660 36l59 25c-5 7 -10 14 -16 20
c83 60 177 101 270 132c-17 14 -39 38 -48 57c-40 -16 -78 -34 -116 -54v47h-278v-42c-40 23 -82 44 -124 61c-11 -17 -31 -39 -47 -53c118 -40 238 -113 300 -193z" />
</svg>
