<?xml version="1.0" standalone="no"?>
<!DOCTYPE svg PUBLIC "-//W3C//DTD SVG 1.1//EN" "http://www.w3.org/Graphics/SVG/1.1/DTD/svg11.dtd" >
<svg xmlns="http://www.w3.org/2000/svg" xmlns:xlink="http://www.w3.org/1999/xlink" version="1.1" viewBox="-10 0 1010 1000">
   <path fill="currentColor"
d="M808 404l-178 16c16 25 36 46 57 65c49 -23 91 -50 121 -81zM784 726l57 27c-32 35 -74 67 -123 94c44 31 94 48 139 47c28 0 35 -18 39 -74c14 11 35 20 52 25c-10 88 -34 111 -93 111c-69 0 -140 -29 -200 -79c-77 35 -166 61 -256 80c-7 -17 -22 -40 -37 -55
c87 -15 174 -37 249 -68c-23 -26 -43 -56 -60 -89l-142 13l-6 -57l126 -11c-8 -26 -15 -53 -18 -83c-24 6 -48 12 -72 17c-9 -16 -23 -39 -38 -54c78 -13 154 -32 223 -57c-25 -26 -46 -54 -64 -87l-144 13v56h-133v47c33 30 113 111 132 133l-44 59
c-18 -26 -55 -74 -88 -113v336h-69v-337c-35 86 -78 164 -123 214c-11 -15 -34 -39 -49 -52c61 -60 121 -175 157 -287h-136v-66h151v-147h69v147h130l-4 -48l126 -10c-13 -33 -21 -67 -25 -104h65c4 35 13 68 25 98l147 -13c-28 -20 -70 -45 -105 -62l34 -35h-548v-178h73
v115h260v-149h75v149h270v-115h76v178h-196c41 19 91 47 116 68l-23 27l134 -12l5 56l-110 10l55 26c-33 35 -76 66 -126 93c39 22 80 34 117 33c27 0 34 -17 38 -73c15 12 35 22 52 27c-10 86 -34 108 -92 108c-62 0 -126 -23 -180 -64c-43 19 -90 34 -138 47h41
c3 30 10 57 20 83l143 -12c-27 -21 -69 -46 -104 -64l35 -37c42 18 94 48 120 70l-25 29l152 -14l6 56l-302 27c15 26 32 48 51 68c46 -24 85 -50 113 -81z" />
</svg>
