<?xml version="1.0" standalone="no"?>
<!DOCTYPE svg PUBLIC "-//W3C//DTD SVG 1.1//EN" "http://www.w3.org/Graphics/SVG/1.1/DTD/svg11.dtd" >
<svg xmlns="http://www.w3.org/2000/svg" xmlns:xlink="http://www.w3.org/1999/xlink" version="1.1" viewBox="-10 0 1010 1000">
   <path fill="currentColor"
d="M842 54l62 25c-33 48 -71 101 -103 135l-50 -22c30 -37 70 -97 91 -138zM588 183l-55 31c-13 -35 -46 -89 -78 -127l53 -28c32 38 66 90 80 124zM641 498v-179c-58 66 -138 129 -211 162c-9 -14 -28 -37 -43 -49c71 -29 151 -84 206 -143h-179v-60h227v-186h65v186h234
v60h-182c50 55 127 105 199 129c-14 13 -34 38 -45 54c-73 -31 -152 -90 -206 -154v180h-65zM295 741v-527h55v632h-55v-40l-225 21v-615h55v544l55 -5v-696h58v691zM609 553l10 -3l37 13c-37 193 -133 325 -251 392c-8 -15 -24 -38 -37 -50c55 -28 104 -74 146 -134
c-21 -22 -48 -50 -71 -71l40 -38c20 16 43 38 62 57c18 -35 32 -72 43 -112h-98c-26 46 -58 88 -90 120c-10 -9 -31 -29 -44 -38c56 -52 104 -128 131 -208l56 13c-7 20 -16 39 -24 59h90zM873 599v149h80v60h-80v148h-61v-148h-125v-1h-28c10 -49 19 -125 25 -183l58 3
c-4 40 -11 83 -17 121h87v-149h-139v-54h139v-62h61v62h69v54h-69z" />
</svg>
