<?xml version="1.0" standalone="no"?>
<!DOCTYPE svg PUBLIC "-//W3C//DTD SVG 1.1//EN" "http://www.w3.org/Graphics/SVG/1.1/DTD/svg11.dtd" >
<svg xmlns="http://www.w3.org/2000/svg" xmlns:xlink="http://www.w3.org/1999/xlink" version="1.1" viewBox="-10 0 1010 1000">
   <path fill="currentColor"
d="M482 713l61 -18c26 44 48 104 55 143l-64 22c-6 -40 -27 -102 -52 -147zM761 689l72 21c-24 50 -53 107 -78 150h197v65h-586v-65h316c29 -48 61 -120 79 -171zM800 619v-108h-287v108h287zM866 451v228h-417v-228h417zM909 180l47 47c-35 28 -74 58 -111 81
c38 47 79 82 126 112c-18 14 -37 36 -47 57c-55 -39 -102 -81 -144 -142v49h-250v-42c-41 59 -90 105 -142 138c-8 -15 -25 -39 -40 -50v415h-52v-39l-224 23v-617h55v550l56 -6v-700h59v695l54 -6v-534h52v214c44 -25 86 -66 124 -115c-27 -24 -64 -55 -96 -77l40 -45
c29 20 64 47 91 69c19 -34 36 -72 50 -110h-153v-65h180l12 -3l42 16c-20 85 -53 162 -94 226h226c-41 -65 -76 -147 -106 -262l61 -12c10 37 21 69 33 100c29 -27 62 -59 81 -83l47 48c-34 30 -72 63 -107 88c12 24 23 44 36 64c33 -27 71 -59 94 -84z" />
</svg>
