<?xml version="1.0" standalone="no"?>
<!DOCTYPE svg PUBLIC "-//W3C//DTD SVG 1.1//EN" "http://www.w3.org/Graphics/SVG/1.1/DTD/svg11.dtd" >
<svg xmlns="http://www.w3.org/2000/svg" xmlns:xlink="http://www.w3.org/1999/xlink" version="1.1" viewBox="-10 0 1010 1000">
   <path fill="currentColor"
d="M867 60l58 22c-28 44 -61 91 -88 122l-48 -18c26 -35 60 -89 78 -126zM548 182l-53 24c-12 -32 -41 -83 -69 -119l49 -22c29 35 59 84 73 117zM302 745v-534h57v634h-57v-40l-231 22l1 -60v-555h56v550l58 -6v-701h59v696zM951 716h-207c54 69 137 133 220 163
c-14 14 -34 38 -43 54c-81 -38 -165 -112 -219 -192v216h-65v-222c-56 83 -145 159 -228 198c-10 -15 -29 -39 -43 -51c81 -31 169 -97 224 -166h-195v-59h242v-76h-195v-58h195v-72h-220v-60h130c-9 -31 -28 -71 -46 -102l55 -19c24 34 47 82 54 112l-23 9h159l-22 -8
c18 -31 42 -79 55 -113h-374v-60h173v-167h58v167h69v-167h58v167h180v60h-138l43 13c-22 38 -46 79 -68 108h146v60h-224v72h197v58h-197v76h249v59z" />
</svg>
