<?xml version="1.0" standalone="no"?>
<!DOCTYPE svg PUBLIC "-//W3C//DTD SVG 1.1//EN" "http://www.w3.org/Graphics/SVG/1.1/DTD/svg11.dtd" >
<svg xmlns="http://www.w3.org/2000/svg" xmlns:xlink="http://www.w3.org/1999/xlink" version="1.1" viewBox="-10 0 1010 1000">
   <path fill="currentColor"
d="M560 860v15c44 -30 84 -64 121 -103c-33 -78 -56 -175 -72 -285h-217c16 25 33 56 42 82h134v54h-161v47h145v47h-145v43h145v47h-145v53h153zM227 807v53h117v-53h-117zM227 670h117v-47h-117v47zM227 717v43h117v-43h-117zM212 487l57 17c-10 22 -21 43 -32 65h122
c-9 -23 -21 -46 -33 -66l58 -16h-172zM819 530l68 15c-30 91 -74 170 -129 239c32 64 71 100 110 100c25 0 35 -40 40 -142c15 14 38 27 56 32c-12 137 -36 175 -99 175c-60 0 -111 -41 -152 -113c-44 47 -94 86 -147 118c-8 -11 -24 -28 -39 -42h-300v44h-66v-272
c-21 26 -42 50 -63 70c-10 -13 -32 -41 -47 -54c61 -54 118 -133 153 -213h-140v-58h249v-65h-177v-55h177v-68h-194v-159h73v98h269v-137h73v137h281v-98h75v159h-509v68h168v55h-168v65h221c-6 -54 -9 -111 -11 -170h68c1 60 4 117 10 170h271v58h-264
c11 87 30 163 52 226c38 -54 69 -116 91 -183zM876 370l-41 42c-31 -30 -91 -69 -140 -93l41 -38c50 23 110 60 140 89z" />
</svg>
