<?xml version="1.0" standalone="no"?>
<!DOCTYPE svg PUBLIC "-//W3C//DTD SVG 1.1//EN" "http://www.w3.org/Graphics/SVG/1.1/DTD/svg11.dtd" >
<svg xmlns="http://www.w3.org/2000/svg" xmlns:xlink="http://www.w3.org/1999/xlink" version="1.1" viewBox="-10 0 1010 1000">
   <path fill="currentColor"
d="M942 317h-187c-9 28 -18 57 -26 80h178v385h-68v-329h-234v329h-65v-385h127c6 -24 13 -54 18 -80h-165v-59h422v59zM905 66v142h-794v-142h73v85h279v-108h73v108h293v-85h76zM189 801l64 19c-39 47 -99 98 -151 130c-12 -10 -37 -31 -53 -40c53 -28 107 -69 140 -109z
M179 747h211v-45h-211v45zM390 441h-211v48h211v-48zM179 615v47h211v-47h-211zM390 575v-46h-211v46h211zM505 747v54h-455v-54h65v-361h110c6 -16 11 -33 16 -51h-176v-54h190c5 -23 10 -43 13 -62l75 9l-16 53h163v54h-182c-6 18 -12 35 -18 51h165v361h50zM309 829
l49 -28c39 28 89 71 113 99l-51 31c-23 -28 -71 -71 -111 -102zM695 502h65c-4 272 -31 391 -233 457c-5 -17 -23 -42 -37 -55c183 -55 202 -152 205 -402zM751 829l47 -38c57 37 119 86 154 123l-57 40c-32 -37 -91 -87 -144 -125z" />
</svg>
