<?xml version="1.0" standalone="no"?>
<!DOCTYPE svg PUBLIC "-//W3C//DTD SVG 1.1//EN" "http://www.w3.org/Graphics/SVG/1.1/DTD/svg11.dtd" >
<svg xmlns="http://www.w3.org/2000/svg" xmlns:xlink="http://www.w3.org/1999/xlink" version="1.1" viewBox="-10 0 1010 1000">
   <path fill="currentColor"
d="M933 243l-48 23c-9 -40 -36 -102 -64 -149l46 -19c28 45 57 106 66 145zM321 845h-50v-42l-197 19v-609h51v544l47 -4v-697h52v692l47 -4v-532h50v633zM429 268v249c0 129 -11 309 -79 431c-10 -10 -34 -26 -47 -32c65 -116 72 -278 72 -399v-302h133v-171h60v63h133v51
h-133v57h116l10 -2l37 9c-9 42 -23 91 -35 121l-40 -8l3 24l-101 12v29c0 17 3 19 21 19h57c15 0 19 -4 21 -38c11 8 31 15 46 18c-5 50 -20 64 -59 64h-72c-56 0 -69 -12 -69 -63v-24l-58 7l-7 -44l65 -8v-60h55v55l95 -11v1c4 -15 9 -31 13 -48h-237zM722 501v48h-281v-48
h281zM512 634v61h134v-61h-134zM703 738h-246v-147h246v147zM870 435l53 8c-21 110 -49 210 -87 297c16 103 36 162 59 162c14 0 22 -43 25 -139c12 13 30 23 42 29c-8 121 -24 166 -73 166c-42 0 -70 -50 -91 -137c-28 52 -61 98 -98 138c-9 -10 -32 -28 -45 -35
c19 -18 35 -38 51 -59c-98 20 -194 40 -271 55l-11 -53c24 -4 52 -8 81 -13c-3 -26 -14 -66 -25 -95l46 -11c13 30 26 71 29 97l-5 1l50 -8l-2 -1c10 -27 23 -67 28 -94l55 14c-11 25 -21 51 -30 72l61 -10l3 34c25 -36 48 -76 67 -120c-12 -90 -20 -202 -25 -329l-47 7
l-9 -53l54 -8c-3 -95 -5 -197 -6 -304h56c-1 106 0 206 3 296l139 -20l9 54l-146 21c3 85 8 162 14 228c18 -59 34 -123 46 -190z" />
</svg>
