<?xml version="1.0" standalone="no"?>
<!DOCTYPE svg PUBLIC "-//W3C//DTD SVG 1.1//EN" "http://www.w3.org/Graphics/SVG/1.1/DTD/svg11.dtd" >
<svg xmlns="http://www.w3.org/2000/svg" xmlns:xlink="http://www.w3.org/1999/xlink" version="1.1" viewBox="-10 0 1010 1000">
   <path fill="currentColor"
d="M888 71v166h-773v-166h74v106h272v-134h75v134h275v-106h77zM149 675h92v-84h-92v84zM393 591h-88v84h88v-84zM208 390v53h131v-53h-131zM483 841h-178v116h-64v-116h-191v-56h191v-59h-151v-186h151v-48h-95v-102h-91v-53h91v-61h62v61h131v-61h64v61h80v53h-80v102h-98
v48h149v186h-149v59h178v56zM809 796l-35 54c-15 -25 -57 -74 -88 -110v191h-55v-199c-31 66 -73 127 -114 163c-10 -14 -28 -34 -43 -44c49 -38 99 -107 131 -177h-120v-56h146v-175h55v175h123v56h-123v6c27 21 105 96 123 116zM767 456l51 16c-20 43 -44 89 -63 121
l-42 -14c17 -35 42 -89 54 -123zM921 353v34c-8 377 -14 499 -38 536c-16 21 -33 29 -58 32c-22 3 -55 2 -91 1c-1 -20 -8 -47 -18 -64c35 3 64 4 79 3c12 1 20 -2 28 -14c15 -25 24 -139 30 -468h-284c-10 20 -20 39 -31 57l19 -6c20 36 38 84 45 116l-47 15
c-5 -27 -18 -66 -34 -101c-12 17 -23 33 -36 47c-9 -12 -32 -38 -46 -50c56 -59 99 -149 124 -241l63 15c-9 29 -19 60 -30 88h325z" />
</svg>
