<?xml version="1.0" standalone="no"?>
<!DOCTYPE svg PUBLIC "-//W3C//DTD SVG 1.1//EN" "http://www.w3.org/Graphics/SVG/1.1/DTD/svg11.dtd" >
<svg xmlns="http://www.w3.org/2000/svg" xmlns:xlink="http://www.w3.org/1999/xlink" version="1.1" viewBox="-10 0 1010 1000">
   <path fill="currentColor"
d="M899 349l44 35c-55 18 -132 31 -202 38v26c0 20 6 23 35 23h105c21 0 25 -7 28 -48c13 8 35 15 51 19c-5 57 -22 73 -71 73h-120c-72 0 -91 -12 -91 -67v-108h63v42c60 -8 121 -20 158 -33zM775 134h-264c-14 15 -29 30 -46 45h244c24 -13 48 -29 66 -45zM845 281v-59
h-384v59h384zM397 324v-95c-7 4 -14 9 -21 13c-8 -14 -26 -38 -40 -47c80 -44 140 -102 172 -152l64 11c-7 11 -15 24 -24 36h273l9 -3l40 24c-18 24 -43 48 -69 68h110v145h-514zM339 847h-53v-44l-212 19v-611h52v545l53 -4v-697h56v692l51 -5v-530h53v635zM473 743h150
c9 -21 15 -43 20 -69h-170v69zM754 591h-245c-12 12 -24 23 -37 35h192c29 -10 62 -21 90 -35zM878 743v-69h-171c-4 25 -10 47 -18 69h189zM759 901h120c26 0 32 -9 34 -69c13 9 36 16 52 19c-6 75 -23 94 -78 94h-135c-77 0 -96 -13 -96 -68v-67c-50 72 -138 117 -297 145
c-6 -15 -22 -40 -32 -52c143 -22 222 -57 267 -113h-185v-116c-7 4 -14 9 -21 13c-7 -14 -26 -36 -39 -46c73 -40 126 -93 158 -140c-71 12 -88 17 -99 23c-4 -16 -16 -43 -25 -55c13 -6 32 -18 32 -56v-75h63v31h152v44h-152v42l155 -20c-1 13 -2 35 -2 45
c-43 7 -76 12 -103 17l47 8c-9 14 -18 28 -29 42h278l10 -2l38 25c-23 21 -55 40 -89 56h162v164h-227v87c0 21 7 24 41 24zM894 850l-35 37c-22 -17 -66 -44 -102 -63l34 -33c35 16 80 40 103 59z" />
</svg>
