<?xml version="1.0" standalone="no"?>
<!DOCTYPE svg PUBLIC "-//W3C//DTD SVG 1.1//EN" "http://www.w3.org/Graphics/SVG/1.1/DTD/svg11.dtd" >
<svg xmlns="http://www.w3.org/2000/svg" xmlns:xlink="http://www.w3.org/1999/xlink" version="1.1" viewBox="-10 0 1010 1000">
   <path fill="currentColor"
d="M737 320v56h123v-56h-123zM737 221v54h123v-54h-123zM737 123v53h123v-53h-123zM821 450l36 -26h-175v-349h234v349h-54c28 34 66 78 84 105l-40 33c-18 -29 -56 -77 -85 -112zM725 427l53 30c-30 34 -69 77 -93 105c-11 -10 -31 -26 -45 -36c26 -28 66 -70 85 -99z
M539 451l39 -25c22 21 51 52 65 70l-41 29c-13 -19 -41 -50 -63 -74zM571 176v-53h-115v53h115zM571 275v-54h-115v54h115zM571 376v-56h-115v56h115zM626 75v349h-224v-349h224zM293 745v-534h54v634h-54v-40l-222 22l1 -60v-555h53v550l57 -6v-701h56v696zM446 427l53 30
c-30 38 -70 84 -97 114c-11 -10 -31 -26 -45 -35c28 -31 69 -77 89 -109zM763 681h-182c-16 28 -30 53 -45 76c46 12 95 27 144 43c41 -32 66 -72 83 -119zM954 681h-119c-17 57 -44 104 -85 143c69 26 134 53 181 78l-52 50c-47 -27 -113 -56 -188 -84
c-69 41 -166 69 -304 88c-4 -17 -17 -43 -28 -58c112 -13 193 -32 252 -59c-58 -19 -116 -37 -169 -51c22 -29 45 -68 68 -107h-143v-60h175c13 -28 26 -57 37 -83l64 14c-9 22 -20 46 -32 69h343v60z" />
</svg>
