<?xml version="1.0" standalone="no"?>
<!DOCTYPE svg PUBLIC "-//W3C//DTD SVG 1.1//EN" "http://www.w3.org/Graphics/SVG/1.1/DTD/svg11.dtd" >
<svg xmlns="http://www.w3.org/2000/svg" xmlns:xlink="http://www.w3.org/1999/xlink" version="1.1" viewBox="-10 0 1010 1000">
   <path fill="currentColor"
d="M910 59v128h-793v-128h74v72h279v-87h73v87h291v-72h76zM608 263v47h207v-47h-207zM884 348h-341v-123h341v123zM201 263v47h207v-47h-207zM475 348h-338v-123h338v123zM183 439v146c0 111 -15 268 -94 375c-10 -14 -37 -39 -50 -47c71 -97 79 -229 79 -329v-198h821v53
h-756zM315 795v53c46 -2 96 -4 147 -7v-46h-147zM462 621h-147v47h147v-47zM315 708v47h147v-47h-147zM586 883l-61 4v69h-63v-65c-105 6 -204 12 -281 16l-5 -54l76 -3v-229h-58v-46h220c13 -18 24 -37 35 -54h-198v-43h229l10 -3l43 14c-17 30 -34 59 -51 86h109v46h-66
v217l62 -3zM681 604l-6 12c20 54 46 103 80 146c35 -44 60 -96 76 -158h-150zM946 604h-50c-19 82 -53 149 -98 203c46 43 103 76 168 97c-14 12 -32 37 -41 54c-66 -24 -122 -60 -169 -107c-50 45 -110 80 -181 108c-9 -12 -30 -38 -44 -49c74 -25 136 -59 185 -105
c-29 -38 -55 -81 -74 -128c-15 26 -32 49 -48 69c-11 -11 -37 -31 -52 -40c57 -63 102 -157 126 -254l62 13c-7 28 -16 56 -26 82h242v57z" />
</svg>
