<?xml version="1.0" standalone="no"?>
<!DOCTYPE svg PUBLIC "-//W3C//DTD SVG 1.1//EN" "http://www.w3.org/Graphics/SVG/1.1/DTD/svg11.dtd" >
<svg xmlns="http://www.w3.org/2000/svg" xmlns:xlink="http://www.w3.org/1999/xlink" version="1.1" viewBox="-10 0 1010 1000">
   <path fill="currentColor"
d="M859 208v-80h-124v80h124zM921 79v178h-246v-178h246zM565 208v-80h-122v80h122zM626 79v178h-242v-178h242zM310 845h-48v-42l-188 19v-609h47v544l47 -4v-697h47v692l47 -5v-531h48v633zM514 829l98 -10v-54h-98v64zM612 562h-98v57h98v-57zM514 663v58h98v-58h-98z
M715 857l-47 6v94h-56v-87c-72 10 -140 19 -197 27l-10 -56l53 -6v-273h-40c-3 123 -21 281 -92 394c-11 -12 -37 -31 -51 -38c73 -117 82 -277 82 -394v-218h599v58h-538v149h160c8 -20 15 -40 22 -59h-156v-47h176l10 -4l39 12c-11 35 -22 68 -33 98h74v49h-42v250l45 -5z
M866 528h-82c-3 15 -8 30 -12 44c10 49 25 104 48 156c22 -58 37 -124 46 -200zM956 528h-32c-13 103 -35 191 -71 264c29 47 65 89 111 117c-12 11 -30 34 -38 50c-42 -29 -76 -69 -104 -113c-28 43 -62 81 -104 113c-7 -12 -27 -33 -40 -43c48 -33 85 -76 114 -126
c-22 -45 -39 -91 -50 -135c-9 21 -20 41 -31 59c-4 -12 -20 -42 -31 -54c42 -73 65 -182 79 -291l55 11c-5 31 -11 63 -18 94h160v54z" />
</svg>
