<?xml version="1.0" standalone="no"?>
<!DOCTYPE svg PUBLIC "-//W3C//DTD SVG 1.1//EN" "http://www.w3.org/Graphics/SVG/1.1/DTD/svg11.dtd" >
<svg xmlns="http://www.w3.org/2000/svg" xmlns:xlink="http://www.w3.org/1999/xlink" version="1.1" viewBox="-10 0 1010 1000">
   <path fill="currentColor"
d="M942 749l-73 32c-31 -96 -108 -248 -190 -378c59 -109 127 -252 158 -338l72 20c-38 101 -101 219 -152 318c72 115 151 259 185 346zM733 748l-71 30c-29 -95 -100 -246 -176 -375c55 -109 116 -252 144 -338l73 19c-36 101 -93 219 -141 318c67 115 141 259 171 346z
M529 752l-72 31c-26 -96 -91 -248 -162 -379c50 -109 106 -253 131 -339l73 18c-32 102 -85 221 -130 321c64 117 132 262 160 348zM279 233l-63 42c-29 -49 -97 -125 -155 -179l59 -37c58 52 126 125 159 174zM247 404v348c20 13 41 34 76 56c67 43 151 50 267 50
c123 0 271 -8 367 -19c-8 20 -21 57 -22 80c-68 4 -253 10 -346 10c-129 0 -213 -11 -283 -58c-41 -27 -74 -62 -96 -62c-31 0 -77 61 -125 133l-52 -68c50 -59 99 -105 141 -124v-275h-124v-71h197z" />
</svg>
