<?xml version="1.0" standalone="no"?>
<!DOCTYPE svg PUBLIC "-//W3C//DTD SVG 1.1//EN" "http://www.w3.org/Graphics/SVG/1.1/DTD/svg11.dtd" >
<svg xmlns="http://www.w3.org/2000/svg" xmlns:xlink="http://www.w3.org/1999/xlink" version="1.1" viewBox="-10 0 1010 1000">
   <path fill="currentColor"
d="M269 665l148 -33l7 71c-131 31 -270 61 -372 85l-16 -75c44 -8 99 -20 159 -33v-433h-149v-73h359v73h-136v418zM956 178h-321c-19 87 -40 185 -59 264h355s-1 25 -2 36c-19 280 -38 388 -78 428c-25 27 -50 33 -91 36c-37 3 -108 1 -181 -3c-2 -23 -14 -54 -29 -76
c79 7 157 8 186 8c23 0 37 -1 49 -12c32 -25 49 -123 67 -345h-373c26 -87 57 -222 80 -336h-147v-73h544v73z" />
</svg>
