<?xml version="1.0" standalone="no"?>
<!DOCTYPE svg PUBLIC "-//W3C//DTD SVG 1.1//EN" "http://www.w3.org/Graphics/SVG/1.1/DTD/svg11.dtd" >
<svg xmlns="http://www.w3.org/2000/svg" xmlns:xlink="http://www.w3.org/1999/xlink" version="1.1" viewBox="-10 0 1010 1000">
   <path fill="currentColor"
d="M563 140v60c0 92 -22 209 -133 287c-11 -14 -38 -38 -53 -48c101 -69 117 -165 117 -241v-122h292v280c0 21 1 35 7 38c5 4 12 5 20 5h35c10 0 20 -2 25 -5s11 -12 13 -25c3 -18 3 -53 4 -100c14 11 38 23 57 30c-1 44 -5 95 -10 112c-6 19 -18 31 -31 38s-36 10 -53 10
h-55c-20 0 -45 -5 -59 -18c-16 -12 -22 -29 -22 -89v-212h-154zM66 466l-18 -68c47 -12 106 -26 172 -44v-191h-141v-64h352v64h-139v171c42 -11 86 -23 129 -35l8 60c-128 38 -263 78 -363 107zM935 755h-356c88 74 225 121 378 140c-16 15 -36 42 -44 62
c-176 -29 -328 -96 -422 -202h-9c-52 75 -163 148 -395 203c-9 -16 -30 -41 -46 -56c195 -41 298 -93 351 -147h-328v-66h371c12 -28 14 -56 14 -82v-3h-312v-65h312v-64h74v64h342v65h-342v4c0 26 -3 54 -11 81h423v66z" />
</svg>
