<?xml version="1.0" standalone="no"?>
<!DOCTYPE svg PUBLIC "-//W3C//DTD SVG 1.1//EN" "http://www.w3.org/Graphics/SVG/1.1/DTD/svg11.dtd" >
<svg xmlns="http://www.w3.org/2000/svg" xmlns:xlink="http://www.w3.org/1999/xlink" version="1.1" viewBox="-10 0 1010 1000">
   <path fill="currentColor"
d="M936 553h-521c-14 28 -28 55 -45 80h491v69h-230v142h302v70h-709v-70h331v-142h-200v-46c-67 97 -151 175 -259 236c-10 -16 -37 -48 -54 -63c129 -65 222 -157 288 -276h-266v-70h302c13 -28 24 -58 34 -88h-244v-67h264c8 -27 15 -56 20 -85h-332v-69h198
c-17 -33 -41 -72 -66 -102l64 -26c34 38 67 90 84 128h228c27 -38 58 -94 76 -132l80 24c-23 36 -50 76 -74 108h201v69h-379c-7 29 -14 58 -22 85h352v67h-371c-10 30 -21 60 -32 88h489v70z" />
</svg>
