<?xml version="1.0" standalone="no"?>
<!DOCTYPE svg PUBLIC "-//W3C//DTD SVG 1.1//EN" "http://www.w3.org/Graphics/SVG/1.1/DTD/svg11.dtd" >
<svg xmlns="http://www.w3.org/2000/svg" xmlns:xlink="http://www.w3.org/1999/xlink" version="1.1" viewBox="-10 0 1010 1000">
   <path fill="currentColor"
d="M947 262h-413v135h324v350c0 43 -10 65 -42 78c-34 12 -90 13 -175 13c-3 -23 -16 -53 -26 -74c68 2 128 2 145 2c18 -2 23 -6 23 -20v-276h-249v485h-75v-485h-234v371h-74v-444h308v-135h-405v-73h426c-16 -39 -43 -91 -66 -131l71 -22c30 46 64 109 78 148l-13 5h397
v73z" />
</svg>
