<?xml version="1.0" standalone="no"?>
<!DOCTYPE svg PUBLIC "-//W3C//DTD SVG 1.1//EN" "http://www.w3.org/Graphics/SVG/1.1/DTD/svg11.dtd" >
<svg xmlns="http://www.w3.org/2000/svg" xmlns:xlink="http://www.w3.org/1999/xlink" version="1.1" viewBox="-10 0 1010 1000">
   <path fill="currentColor"
d="M159 170v465h-70v-465h70zM259 436v-390h73v390c0 168 -20 385 -174 524c-12 -14 -41 -38 -59 -47c146 -132 160 -321 160 -477zM917 218v491c0 37 -7 57 -32 70c-25 12 -65 13 -123 13c-4 -20 -14 -50 -23 -69c42 2 77 1 90 1c12 0 15 -4 15 -16v-416h-133v663h-74v-663
h-135v506h-73v-580h208v-173h74v173h206z" />
</svg>
