<?xml version="1.0" standalone="no"?>
<!DOCTYPE svg PUBLIC "-//W3C//DTD SVG 1.1//EN" "http://www.w3.org/Graphics/SVG/1.1/DTD/svg11.dtd" >
<svg xmlns="http://www.w3.org/2000/svg" xmlns:xlink="http://www.w3.org/1999/xlink" version="1.1" viewBox="-10 0 1010 1000">
   <path fill="currentColor"
d="M392 213h-143c-17 29 -35 57 -51 81c38 15 78 32 117 49c33 -35 59 -78 77 -130zM486 432l-50 47c-28 -19 -64 -40 -105 -61c-68 60 -154 97 -252 119c-7 -16 -21 -43 -33 -56c85 -17 160 -47 221 -94c-54 -26 -112 -50 -165 -68c23 -30 47 -67 72 -106h-116v-63h151
c20 -36 38 -72 51 -105l68 13c-13 29 -27 61 -44 92h138l13 -2l40 11c-20 89 -54 159 -99 213c42 21 81 42 110 60zM820 160h-221c25 68 61 126 109 176c48 -47 88 -105 112 -176zM863 94l44 17c-28 117 -80 206 -149 271c55 44 121 76 196 96c-16 14 -36 41 -45 59
c-79 -24 -146 -61 -203 -110c-51 38 -109 66 -171 87l-1 -2v59h304v236c0 36 -7 55 -35 66c-26 11 -69 12 -136 12c-4 -20 -14 -46 -23 -65c49 2 92 2 104 2c13 -1 17 -5 17 -16v-172h-231v323h-73v-323h-226v260h-72v-323h298v-66h70c-9 -17 -22 -37 -35 -49
c58 -17 112 -42 161 -77c-52 -57 -92 -127 -120 -207l46 -12h-77v-63h343z" />
</svg>
