<?xml version="1.0" standalone="no"?>
<!DOCTYPE svg PUBLIC "-//W3C//DTD SVG 1.1//EN" "http://www.w3.org/Graphics/SVG/1.1/DTD/svg11.dtd" >
<svg xmlns="http://www.w3.org/2000/svg" xmlns:xlink="http://www.w3.org/1999/xlink" version="1.1" viewBox="-10 0 1010 1000">
   <path fill="currentColor"
d="M426 232v442c0 30 -4 50 -23 62s-45 14 -83 14c-2 -19 -10 -48 -19 -67c27 1 47 1 55 0c8 0 10 -2 10 -10v-374h-86v658h-69v-658h-81v454h-60v-521h141v-188h69v188h146zM558 833h274v-241h-274v241zM832 293h-274v233h274v-233zM692 224h211v726h-71v-48h-274v55h-68
v-733h133c16 -55 34 -129 43 -182l75 11c-16 57 -32 121 -49 171z" />
</svg>
