<?xml version="1.0" standalone="no"?>
<!DOCTYPE svg PUBLIC "-//W3C//DTD SVG 1.1//EN" "http://www.w3.org/Graphics/SVG/1.1/DTD/svg11.dtd" >
<svg xmlns="http://www.w3.org/2000/svg" xmlns:xlink="http://www.w3.org/1999/xlink" version="1.1" viewBox="-10 0 1010 1000">
   <path fill="currentColor"
d="M788 78v310h-609v-55h536v-74h-509v-58h509v-67h-534v-56h607zM823 606v216c0 36 -7 55 -36 66c-27 11 -73 11 -145 11c-3 -20 -13 -45 -23 -64c54 2 101 2 114 1s17 -4 17 -16v-153h-216v289h-73v-289h-208v230h-72v-291h280v-75h73v75h289zM81 450h844v184h-72v-121
h-702v121h-70v-184z" />
</svg>
