<?xml version="1.0" standalone="no"?>
<!DOCTYPE svg PUBLIC "-//W3C//DTD SVG 1.1//EN" "http://www.w3.org/Graphics/SVG/1.1/DTD/svg11.dtd" >
<svg xmlns="http://www.w3.org/2000/svg" xmlns:xlink="http://www.w3.org/1999/xlink" version="1.1" viewBox="-10 0 1010 1000">
   <path fill="currentColor"
d="M809 617h-272v222h272v-222zM467 960v-410h414v407h-72v-51h-272v54h-70zM648 45l69 20c-5 12 -9 24 -15 36c61 112 165 228 258 288c-17 14 -42 41 -54 59c-83 -61 -172 -168 -236 -278c-38 74 -86 144 -142 203h286v66h-292v-60c-27 29 -58 57 -89 82
c-10 -14 -32 -36 -50 -49v263c0 28 -4 47 -21 58s-39 12 -72 12c-2 -17 -10 -44 -18 -62c22 1 40 1 46 1c7 -1 9 -3 9 -11v-374h-66v658h-61v-658h-73v454h-57v-521h130v-188h61v188h122v174c119 -89 217 -227 265 -361z" />
</svg>
