<?xml version="1.0" standalone="no"?>
<!DOCTYPE svg PUBLIC "-//W3C//DTD SVG 1.1//EN" "http://www.w3.org/Graphics/SVG/1.1/DTD/svg11.dtd" >
<svg xmlns="http://www.w3.org/2000/svg" xmlns:xlink="http://www.w3.org/1999/xlink" version="1.1" viewBox="-10 0 1010 1000">
   <path fill="currentColor"
d="M81 580v-203h839v203h-75v-139h-311v113h292v234c0 38 -7 57 -35 68c-28 12 -73 12 -141 12c-4 -21 -14 -47 -25 -66c52 2 97 2 110 1c14 -1 17 -4 17 -15v-168h-218v337h-75v-337h-195v248h-74v-314h269v-113h-306v139h-72zM788 163h158v64h-158v104h-73v-104h-181v99
h-73v-99h-171v101h-73v-101h-162v-64h162v-114h73v114h171v-115h73v115h181v-114h73v114z" />
</svg>
