<?xml version="1.0" standalone="no"?>
<!DOCTYPE svg PUBLIC "-//W3C//DTD SVG 1.1//EN" "http://www.w3.org/Graphics/SVG/1.1/DTD/svg11.dtd" >
<svg xmlns="http://www.w3.org/2000/svg" xmlns:xlink="http://www.w3.org/1999/xlink" version="1.1" viewBox="-10 0 1010 1000">
   <path fill="currentColor"
d="M706 490v-98h-258v98h258zM778 241v89h162v62h-162v159h-162v78h270v206c0 37 -7 56 -36 67c-28 11 -73 11 -145 11c-3 -20 -13 -45 -21 -65c54 2 99 2 112 1c13 0 17 -3 17 -15v-140h-197v265h-73v-265h-189v221h-73v-286h262v-78h-165v-159h-151v-62h151v-89h70v89h258
v-89h72zM594 144h355v68h-755v218c0 154 -12 380 -98 531c-13 -14 -45 -34 -61 -42c81 -143 88 -345 88 -489v-286h388c-12 -28 -28 -61 -43 -87l71 -21c20 34 42 75 55 108z" />
</svg>
