<?xml version="1.0" standalone="no"?>
<!DOCTYPE svg PUBLIC "-//W3C//DTD SVG 1.1//EN" "http://www.w3.org/Graphics/SVG/1.1/DTD/svg11.dtd" >
<svg xmlns="http://www.w3.org/2000/svg" xmlns:xlink="http://www.w3.org/1999/xlink" version="1.1" viewBox="-10 0 1010 1000">
   <path fill="currentColor"
d="M540 451h-216c-31 63 -92 128 -199 171c-12 -17 -35 -40 -52 -54c85 -28 135 -72 166 -117h-186v-59h214c6 -20 9 -39 9 -56v-22h-186v-58h186v-72h-207v-61h207v-79h75v79h182v61h-182v72h162v58h-162v23c0 17 -2 35 -7 55h196v59zM862 617v204c0 38 -10 58 -41 69
s-84 11 -167 11c-4 -21 -16 -46 -26 -64c64 1 122 1 138 0c17 -1 21 -4 21 -17v-135h-252v270h-76v-270h-232v218h-74v-286h306v-78h76v78h327zM883 82l52 31c-38 53 -82 113 -123 163c85 52 114 99 114 145c1 43 -16 71 -49 88c-17 9 -40 15 -59 17c-35 3 -77 3 -116 0
c-1 -19 -12 -46 -23 -63c43 4 78 5 107 3c15 -1 30 -4 42 -8c18 -8 25 -23 25 -43c-1 -37 -32 -81 -121 -130c33 -43 66 -92 93 -135h-170v426h-72v-491h287z" />
</svg>
