<?xml version="1.0" standalone="no"?>
<!DOCTYPE svg PUBLIC "-//W3C//DTD SVG 1.1//EN" "http://www.w3.org/Graphics/SVG/1.1/DTD/svg11.dtd" >
<svg xmlns="http://www.w3.org/2000/svg" xmlns:xlink="http://www.w3.org/1999/xlink" version="1.1" viewBox="-10 0 1010 1000">
   <path fill="currentColor"
d="M878 72v299h-490v-57h419v-67h-383v-54h383v-64h-407v-57h478zM104 276l63 6c-6 86 -23 194 -48 262l-64 -17c24 -63 44 -169 49 -251zM217 443v-398h67v398c0 197 -19 378 -166 514c-12 -15 -38 -37 -54 -47c136 -125 153 -289 153 -467zM869 585v-100h-469v100h195v-84
h70v84h204zM939 426v162h-65v233c0 33 -5 51 -29 62c-22 11 -57 12 -108 12c-2 -20 -10 -44 -19 -63c37 1 64 1 74 1c10 -1 13 -4 13 -13v-173h-140v311h-70v-311h-131v252h-67v-311h-64v-162h606z" />
</svg>
