<?xml version="1.0" standalone="no"?>
<!DOCTYPE svg PUBLIC "-//W3C//DTD SVG 1.1//EN" "http://www.w3.org/Graphics/SVG/1.1/DTD/svg11.dtd" >
<svg xmlns="http://www.w3.org/2000/svg" xmlns:xlink="http://www.w3.org/1999/xlink" version="1.1" viewBox="-10 0 1010 1000">
   <path fill="currentColor"
d="M372 232v442c0 30 -4 49 -21 61s-39 13 -73 13c-2 -19 -9 -46 -17 -64h48c6 0 8 -3 8 -11v-374h-69v658h-58v-658h-62v454h-53v-521h115v-188h58v188h124zM957 491h-347c-10 31 -20 62 -31 91h202v-64h70v64h101v65h-101v228c0 37 -8 56 -35 68c-27 11 -69 13 -135 13
c-3 -20 -15 -48 -26 -67c52 2 96 2 109 0c14 0 17 -3 17 -15v-227h-229c-43 96 -100 177 -173 245c-11 -12 -41 -35 -58 -47c105 -87 173 -207 219 -354h-143v-62h160c7 -27 14 -55 20 -84h-133v-61h144c4 -23 8 -48 11 -73h-175v-62h183c4 -33 8 -69 11 -104l68 6
c-3 33 -7 66 -11 98h261v62h-269c-3 25 -7 50 -11 73h258v61h-270c-5 28 -12 57 -19 84h332v62zM721 813l-55 39c-21 -38 -66 -96 -107 -138l53 -35c42 40 89 96 109 134z" />
</svg>
