<?xml version="1.0" standalone="no"?>
<!DOCTYPE svg PUBLIC "-//W3C//DTD SVG 1.1//EN" "http://www.w3.org/Graphics/SVG/1.1/DTD/svg11.dtd" >
<svg xmlns="http://www.w3.org/2000/svg" xmlns:xlink="http://www.w3.org/1999/xlink" version="1.1" viewBox="-10 0 1010 1000">
   <path fill="currentColor"
d="M931 148v65h-510v-65h220c-16 -27 -35 -56 -52 -79l51 -29c26 33 54 75 71 108h220zM947 374v66h-535v-66h142c-14 -34 -43 -88 -71 -127l55 -22c29 38 61 89 73 123l-55 26h153c29 -43 62 -105 81 -149l68 19c-24 43 -52 92 -77 130h166zM385 233v438c0 28 -4 49 -21 61
c-16 12 -38 14 -71 14c-2 -19 -11 -48 -19 -67c23 1 41 1 48 1c7 -1 8 -3 8 -11v-369h-70v658h-59v-658h-63v453h-55v-520h118v-188h59v188h125zM782 615h-186c-21 34 -42 67 -62 96c53 16 108 37 162 59c45 -44 70 -96 86 -155zM956 615h-101c-17 70 -45 132 -93 183
c74 32 139 67 186 99l-51 54c-46 -33 -114 -70 -190 -105c-66 47 -159 82 -292 106c-6 -18 -21 -45 -33 -59c113 -18 194 -44 253 -78c-67 -28 -135 -53 -199 -73c26 -35 57 -80 86 -127h-118v-65h155c19 -34 36 -68 48 -99l66 13c-12 27 -26 57 -41 86h324v65z" />
</svg>
