<?xml version="1.0" standalone="no"?>
<!DOCTYPE svg PUBLIC "-//W3C//DTD SVG 1.1//EN" "http://www.w3.org/Graphics/SVG/1.1/DTD/svg11.dtd" >
<svg xmlns="http://www.w3.org/2000/svg" xmlns:xlink="http://www.w3.org/1999/xlink" version="1.1" viewBox="-10 0 1010 1000">
   <path fill="currentColor"
d="M466 645h61v147h287v54h-348v-201zM670 564l55 6c-6 25 -14 48 -25 71c43 30 92 72 117 99l-41 36c-21 -24 -62 -60 -101 -91c-24 35 -54 67 -91 90c-7 -9 -27 -29 -39 -38c64 -39 106 -99 125 -173zM534 275v82h293v-82h-293zM534 140v81h293v-81h-293zM588 488h358
s-1 21 -2 30c-12 284 -25 376 -51 408c-16 18 -34 25 -59 27c-22 1 -59 1 -96 -1c-1 -15 -7 -37 -15 -51c36 3 68 4 82 4s21 -2 29 -12c19 -22 30 -109 42 -345h-329c-31 40 -68 78 -115 113c-9 -13 -27 -30 -42 -40v53c0 30 -4 50 -20 62c-15 12 -38 14 -71 14
c-1 -19 -8 -48 -15 -67c22 1 40 1 47 0c7 0 9 -2 9 -10v-374h-75v658h-58v-658h-73v454h-49v-521h122v-188h58v188h125v383c81 -60 134 -137 163 -201h-87v-331h432v331h-331l55 8c-10 21 -22 44 -34 66z" />
</svg>
