<?xml version="1.0" standalone="no"?>
<!DOCTYPE svg PUBLIC "-//W3C//DTD SVG 1.1//EN" "http://www.w3.org/Graphics/SVG/1.1/DTD/svg11.dtd" >
<svg xmlns="http://www.w3.org/2000/svg" xmlns:xlink="http://www.w3.org/1999/xlink" version="1.1" viewBox="-10 0 1010 1000">
   <path fill="currentColor"
d="M952 226v61h-532v-61h224v-88h-181v-59h446v59h-194v88h237zM534 647v71h309v-71h-309zM534 524v71h309v-71h-309zM534 402v70h309v-70h-309zM914 772h-448v-425h448v425zM397 232v438c0 28 -4 48 -21 60s-40 13 -75 13c-1 -18 -10 -46 -19 -64c23 1 42 1 50 1
c6 -1 8 -3 8 -12v-369h-76v658h-65v-658h-72v453h-57v-520h129v-187h65v187h133zM576 781l61 36c-59 56 -155 108 -245 142c-10 -16 -30 -38 -45 -51c89 -30 179 -80 229 -127zM733 818l50 -38c66 41 137 95 177 136l-61 40c-37 -41 -104 -96 -166 -138z" />
</svg>
