<?xml version="1.0" standalone="no"?>
<!DOCTYPE svg PUBLIC "-//W3C//DTD SVG 1.1//EN" "http://www.w3.org/Graphics/SVG/1.1/DTD/svg11.dtd" >
<svg xmlns="http://www.w3.org/2000/svg" xmlns:xlink="http://www.w3.org/1999/xlink" version="1.1" viewBox="-10 0 1010 1000">
   <path fill="currentColor"
d="M846 211v-78h-328v78h328zM846 342v-79h-328v79h328zM915 79v317h-463v-317h463zM831 594l-57 -21c27 -41 62 -106 81 -151l64 24c-28 52 -61 110 -88 148zM583 571l-60 23c-11 -39 -41 -102 -70 -148l57 -20c30 45 61 105 73 145zM389 231v438c0 28 -4 47 -22 59
c-17 12 -40 14 -74 14c-1 -18 -11 -46 -19 -64h49c7 0 9 -2 9 -11v-369h-68v657h-64v-657h-73v453h-57v-520h130v-188h64v188h125zM818 885h41c11 0 24 -1 29 -4c6 -3 12 -9 15 -20c2 -14 3 -43 4 -81c14 12 37 24 55 29c-1 38 -5 79 -11 94c-7 15 -17 26 -33 32
c-13 6 -37 8 -54 8h-60c-22 0 -48 -5 -62 -17c-17 -12 -22 -28 -22 -83v-172h-92c-15 150 -63 238 -227 287c-7 -18 -24 -43 -39 -57c146 -38 186 -107 199 -230h-142v-64h228v-193h70v193h226v64h-154v180c0 16 1 26 7 29c5 4 13 5 22 5z" />
</svg>
