<?xml version="1.0" standalone="no"?>
<!DOCTYPE svg PUBLIC "-//W3C//DTD SVG 1.1//EN" "http://www.w3.org/Graphics/SVG/1.1/DTD/svg11.dtd" >
<svg xmlns="http://www.w3.org/2000/svg" xmlns:xlink="http://www.w3.org/1999/xlink" version="1.1" viewBox="-10 0 1010 1000">
   <path fill="currentColor"
d="M475 216v101h-57v-161h238c-10 -29 -24 -63 -34 -90l51 -23c17 36 36 80 46 113h213v161h-59v-101h-398zM379 232v438c0 28 -4 48 -20 60s-37 13 -70 13c-1 -18 -10 -46 -19 -64c23 1 42 1 49 1c7 -1 9 -3 9 -12v-369h-70v658h-58v-658h-67v453h-52v-520h119v-187h58v187
h121zM872 416l44 43c-32 28 -70 56 -108 81c35 108 96 223 155 282c-13 12 -32 38 -42 55c-58 -68 -118 -192 -155 -310c-12 6 -24 12 -35 19c28 141 11 290 -26 335c-21 27 -41 35 -74 36c-14 0 -37 0 -58 -2c0 -19 -5 -48 -15 -67c24 3 48 4 63 4c17 0 28 -3 40 -21
c18 -21 31 -98 27 -187c-67 80 -164 157 -249 199c-6 -16 -20 -41 -31 -56c97 -40 213 -130 272 -215c-4 -24 -9 -46 -14 -69c-61 67 -154 136 -227 175c-6 -15 -19 -39 -30 -53c81 -35 184 -109 239 -175c-7 -17 -15 -33 -24 -49c-54 49 -117 89 -176 119
c-5 -14 -22 -41 -32 -54c77 -33 159 -83 215 -145h-150v-59h375v59h-157c-11 15 -24 29 -36 43c23 37 42 80 54 126c53 -33 116 -78 155 -114z" />
</svg>
