<?xml version="1.0" standalone="no"?>
<!DOCTYPE svg PUBLIC "-//W3C//DTD SVG 1.1//EN" "http://www.w3.org/Graphics/SVG/1.1/DTD/svg11.dtd" >
<svg xmlns="http://www.w3.org/2000/svg" xmlns:xlink="http://www.w3.org/1999/xlink" version="1.1" viewBox="-10 0 1010 1000">
   <path fill="currentColor"
d="M820 183v-63h-295v63h295zM820 291v-63h-295v63h295zM891 73v265h-433v-265h433zM874 522v-87h-104v87h104zM718 522v-87h-102v87h102zM565 522v-87h-99v87h99zM935 384v188h-528v-188h528zM364 232v441c0 30 -4 49 -23 61c-18 12 -43 13 -81 13c-2 -18 -10 -46 -19 -64
c27 1 48 1 55 0c8 0 10 -2 10 -10v-374h-65v658h-59v-658h-65v454h-55v-521h120v-188h59v188h123zM810 682h-272c33 45 78 84 132 117c57 -31 105 -70 140 -117zM868 620l46 26c-40 79 -102 141 -176 188c66 30 143 52 225 65c-16 14 -35 42 -45 60
c-92 -17 -176 -47 -250 -87c-85 41 -183 69 -286 86c-7 -17 -27 -47 -39 -61c93 -13 182 -35 259 -66c-56 -41 -104 -91 -140 -149h-46v-59h440z" />
</svg>
