<?xml version="1.0" standalone="no"?>
<!DOCTYPE svg PUBLIC "-//W3C//DTD SVG 1.1//EN" "http://www.w3.org/Graphics/SVG/1.1/DTD/svg11.dtd" >
<svg xmlns="http://www.w3.org/2000/svg" xmlns:xlink="http://www.w3.org/1999/xlink" version="1.1" viewBox="-10 0 1010 1000">
   <path fill="currentColor"
d="M942 281l-61 24c-10 -47 -41 -123 -75 -179l58 -21c35 56 68 128 78 176zM691 151v59h-312v-59h133c-10 -26 -24 -56 -37 -79l62 -19c18 29 37 68 48 98h106zM350 232v439c0 28 -3 47 -17 59c-13 12 -32 13 -57 13c-2 -18 -9 -46 -17 -64c16 1 30 1 35 1c5 -1 7 -2 7 -10
v-371h-64v658h-55v-658h-55v453h-51v-520h106v-187h55v187h113zM463 759h147v-94h-147v94zM610 520h-147v91h147v-91zM887 484l59 28c-30 84 -70 162 -117 229c16 70 36 109 62 111c15 0 25 -45 30 -120c12 15 39 35 51 43c-19 128 -52 163 -84 162
c-49 -2 -84 -48 -110 -130c-47 55 -97 102 -151 139c-9 -12 -29 -31 -42 -42c27 -19 54 -40 80 -64h-55v-27h-147v70h-56v-418h262v371c32 -30 62 -64 90 -102c-17 -86 -28 -197 -35 -325h-352v-65h68c-5 -35 -13 -79 -24 -115l52 -8c13 38 24 88 28 123h74
c11 -38 23 -89 29 -124l59 10c-11 39 -23 81 -34 114h96c-4 -93 -6 -193 -8 -300h69c0 107 2 208 6 300h170v65h-167c5 93 13 177 23 244c30 -52 55 -109 74 -169z" />
</svg>
