<?xml version="1.0" standalone="no"?>
<!DOCTYPE svg PUBLIC "-//W3C//DTD SVG 1.1//EN" "http://www.w3.org/Graphics/SVG/1.1/DTD/svg11.dtd" >
<svg xmlns="http://www.w3.org/2000/svg" xmlns:xlink="http://www.w3.org/1999/xlink" version="1.1" viewBox="-10 0 1010 1000">
   <path fill="currentColor"
d="M822 406v-165h-70v165h70zM822 640v-167h-70v167h70zM507 473v167h68v-167h-68zM700 473h-73v167h73v-167zM627 406h73v-165h-73v165zM507 241v165h68v-165h-68zM363 323v344c0 26 -3 46 -19 57c-15 12 -34 14 -62 14c-2 -18 -9 -45 -19 -63c18 1 32 1 38 1
c6 -1 7 -3 7 -10v-373h-64v664h-59v-664h-65v456h-55v-517h120v-188h59v188h119v73c61 -66 113 -161 143 -259l64 17c-12 38 -27 76 -45 112h410v66h-58v165h67v67h-67v167h74v67h-569v-67h74v-167h-71v-67h71v-109c-17 25 -34 47 -52 67c-9 -10 -26 -29 -41 -41zM388 956
l-55 -36c53 -42 87 -116 103 -185l59 21c-18 72 -49 153 -107 200zM544 759l58 -4c16 60 28 137 27 184l-61 6c1 -47 -8 -125 -24 -186zM673 760l56 -14c28 57 57 132 66 178l-59 19c-9 -47 -35 -125 -63 -183zM803 751l58 -22c41 62 86 146 102 200l-62 27
c-15 -54 -57 -140 -98 -205z" />
</svg>
