<?xml version="1.0" standalone="no"?>
<!DOCTYPE svg PUBLIC "-//W3C//DTD SVG 1.1//EN" "http://www.w3.org/Graphics/SVG/1.1/DTD/svg11.dtd" >
<svg xmlns="http://www.w3.org/2000/svg" xmlns:xlink="http://www.w3.org/1999/xlink" version="1.1" viewBox="-10 0 1010 1000">
   <path fill="currentColor"
d="M645 628h-129v91h129v-91zM839 719v-91h-131v91h131zM708 866h131v-96h-131v96zM516 866h129v-96h-129v96zM451 956v-385h455v381h-67v-28h-323v32h-65zM470 173l59 -17c20 35 46 84 58 113l-60 21c-12 -30 -37 -80 -57 -117zM945 352h-177c52 62 132 123 200 155
c-16 13 -38 38 -50 55c-72 -41 -154 -117 -208 -193v177h-67v-175c-53 79 -134 154 -206 196c-9 -13 -24 -32 -38 -45v147c0 28 -4 47 -21 59s-40 14 -74 14c-2 -18 -11 -46 -20 -64h50c7 0 9 -2 9 -11v-369h-79v657h-64v-657h-72v453h-57v-520h129v-188h64v188h135v278
c65 -34 137 -94 184 -157h-166v-62h226v-148c-70 5 -143 9 -209 10c-2 -16 -9 -40 -17 -56c155 -5 346 -22 452 -44l42 54c-56 13 -127 22 -201 29v155h45c25 -42 57 -106 73 -150l61 25c-22 42 -48 88 -71 125h127v62z" />
</svg>
