<?xml version="1.0" standalone="no"?>
<!DOCTYPE svg PUBLIC "-//W3C//DTD SVG 1.1//EN" "http://www.w3.org/Graphics/SVG/1.1/DTD/svg11.dtd" >
<svg xmlns="http://www.w3.org/2000/svg" xmlns:xlink="http://www.w3.org/1999/xlink" version="1.1" viewBox="-10 0 1010 1000">
   <path fill="currentColor"
d="M395 216l-72 32c-16 -48 -60 -122 -102 -177l68 -29c43 54 89 126 106 174zM364 535h276v-215h-276v191v24zM945 535v72h-228v350h-77v-350h-281c-14 133 -66 264 -247 357c-11 -18 -37 -46 -53 -60c158 -80 208 -187 223 -297h-225v-72h231v-25v-190h-194v-71h516
c34 -61 71 -145 92 -208l84 25c-30 60 -64 129 -96 183h224v71h-197v215h228z" />
</svg>
