<?xml version="1.0" standalone="no"?>
<!DOCTYPE svg PUBLIC "-//W3C//DTD SVG 1.1//EN" "http://www.w3.org/Graphics/SVG/1.1/DTD/svg11.dtd" >
<svg xmlns="http://www.w3.org/2000/svg" xmlns:xlink="http://www.w3.org/1999/xlink" version="1.1" viewBox="-10 0 1010 1000">
   <path fill="currentColor"
d="M842 740l-45 18c-3 -19 -8 -43 -15 -67c-181 31 -208 37 -223 46c-3 -13 -12 -43 -19 -58c17 -4 36 -31 60 -67c16 -22 57 -91 96 -171c-100 11 -120 16 -133 22c-3 -13 -12 -43 -20 -59c13 -3 26 -22 41 -49c14 -26 63 -129 87 -224l62 21c-30 86 -72 174 -114 243
l103 -10c11 -28 23 -55 33 -83l59 23c-53 121 -122 244 -191 339l145 -22c-13 -40 -30 -82 -47 -117l40 -19c38 74 70 170 81 234zM458 746l-42 18c-2 -19 -7 -40 -13 -64c-173 31 -198 39 -215 47c-3 -12 -11 -41 -19 -56c17 -4 36 -31 59 -69c15 -23 53 -90 91 -170
c-99 12 -120 17 -132 23c-3 -13 -12 -43 -20 -59c14 -4 26 -23 41 -51c15 -26 64 -131 88 -228l62 21c-30 88 -74 178 -116 248l101 -8c13 -30 25 -60 35 -91l56 23c-50 121 -115 246 -182 342l137 -21c-11 -39 -27 -79 -44 -113l39 -18c36 72 65 165 74 226zM844 152h70
v798h-70v-68h-756v-731h69v662h307v-754h67v754h313v-661z" />
</svg>
