<?xml version="1.0" standalone="no"?>
<!DOCTYPE svg PUBLIC "-//W3C//DTD SVG 1.1//EN" "http://www.w3.org/Graphics/SVG/1.1/DTD/svg11.dtd" >
<svg xmlns="http://www.w3.org/2000/svg" xmlns:xlink="http://www.w3.org/1999/xlink" version="1.1" viewBox="-10 0 1010 1000">
   <path fill="currentColor"
d="M446 480l-55 23c-3 -14 -9 -28 -15 -45c-232 23 -261 28 -279 37c-2 -13 -12 -43 -19 -60c19 -2 39 -19 66 -45c12 -11 39 -39 70 -74c-95 10 -114 15 -125 21c-3 -14 -12 -43 -18 -58c14 -3 28 -18 44 -38c18 -22 76 -105 111 -186l57 22c-38 70 -83 139 -129 193
l106 -8c22 -30 46 -62 66 -94l57 25c-63 87 -134 168 -204 231l175 -15c-12 -24 -26 -48 -39 -69l53 -18c33 49 67 115 78 158zM758 624l68 21c-32 57 -76 107 -127 150c43 53 91 82 143 82c38 0 50 -26 58 -128c16 16 40 29 59 36c-16 128 -42 163 -120 163
c-76 0 -142 -40 -198 -110c-69 48 -150 86 -231 115c-10 -14 -35 -42 -49 -56c88 -27 173 -63 244 -112c-30 -50 -57 -109 -79 -176h-235c-3 22 -7 45 -12 67c59 31 128 77 163 111l-49 49c-27 -28 -79 -68 -130 -100c-30 91 -81 172 -164 220c-11 -14 -36 -40 -51 -50
c110 -62 155 -178 171 -297h-164v-64h170c2 -22 2 -43 2 -64h75c-1 21 -2 42 -3 64h208c-40 -147 -62 -322 -64 -501h73c0 186 24 361 66 501h183c-27 -21 -67 -46 -100 -62l32 -32c-69 9 -85 13 -96 17c-2 -12 -12 -42 -18 -58c17 -3 39 -21 64 -46c13 -11 39 -39 69 -74
c-93 10 -113 16 -124 21c-3 -13 -11 -43 -18 -58c14 -2 26 -15 41 -36c16 -19 69 -96 100 -169l56 21c-34 64 -74 127 -114 176l102 -8c24 -30 47 -63 68 -95l56 25c-61 86 -131 166 -199 230l152 -15c-12 -23 -26 -45 -40 -65l52 -23c38 51 76 119 88 164l-55 25
c-4 -14 -11 -32 -20 -52c-65 8 -113 14 -148 18c38 18 82 45 106 67l-29 29h157v64h-345c18 50 38 94 60 132c39 -35 72 -73 96 -117z" />
</svg>
