<?xml version="1.0" standalone="no"?>
<!DOCTYPE svg PUBLIC "-//W3C//DTD SVG 1.1//EN" "http://www.w3.org/Graphics/SVG/1.1/DTD/svg11.dtd" >
<svg xmlns="http://www.w3.org/2000/svg" xmlns:xlink="http://www.w3.org/1999/xlink" version="1.1" viewBox="-10 0 1010 1000">
   <path fill="currentColor"
d="M202 212v202c0 159 -12 390 -98 548c-14 -12 -47 -27 -66 -34c83 -151 91 -364 91 -513v-272h379c-12 -27 -27 -58 -41 -83l74 -21c19 31 39 72 54 104h350v69h-743zM749 576h-353c40 71 99 131 173 179c75 -47 137 -106 180 -179zM806 506l49 29
c-49 109 -125 194 -219 260c91 46 198 77 318 95c-17 15 -37 47 -48 68c-130 -22 -244 -62 -340 -119c-101 55 -216 94 -335 118c-7 -17 -29 -49 -45 -63c113 -20 221 -52 315 -99c-73 -55 -132 -122 -175 -201l52 -18h-105v-67h259v-116h-290v-67h290v-86h73v86h310v67
h-310v116h187z" />
</svg>
