<?xml version="1.0" standalone="no"?>
<!DOCTYPE svg PUBLIC "-//W3C//DTD SVG 1.1//EN" "http://www.w3.org/Graphics/SVG/1.1/DTD/svg11.dtd" >
<svg xmlns="http://www.w3.org/2000/svg" xmlns:xlink="http://www.w3.org/1999/xlink" version="1.1" viewBox="-10 0 1010 1000">
   <path fill="currentColor"
d="M808 541v-134h-418v105v29h418zM533 250l70 -15c17 33 34 76 45 107h233v316h-73v-51h-421c-9 119 -37 257 -116 358c-12 -13 -43 -36 -60 -43c94 -122 106 -290 106 -411v-169h252c-10 -29 -24 -63 -36 -92zM600 153h339v69h-741v231c0 150 -13 365 -95 509
c-13 -14 -46 -37 -62 -45c76 -135 83 -324 83 -464v-300h391c-13 -32 -29 -68 -43 -97l74 -19c19 36 40 81 54 116z" />
</svg>
