<?xml version="1.0" standalone="no"?>
<!DOCTYPE svg PUBLIC "-//W3C//DTD SVG 1.1//EN" "http://www.w3.org/Graphics/SVG/1.1/DTD/svg11.dtd" >
<svg xmlns="http://www.w3.org/2000/svg" xmlns:xlink="http://www.w3.org/1999/xlink" version="1.1" viewBox="-10 0 1010 1000">
   <path fill="currentColor"
d="M787 838v-179h-422v179h422zM586 270v118h323v68h-323v134h275v352h-74v-38h-422v40h-72v-354h218v-320h75zM602 165h338v72h-736v187c0 154 -15 382 -104 533c-14 -12 -47 -34 -65 -42c85 -144 94 -347 94 -491v-259h390c-14 -33 -32 -71 -52 -101l71 -18
c26 36 50 83 64 119z" />
</svg>
