<?xml version="1.0" standalone="no"?>
<!DOCTYPE svg PUBLIC "-//W3C//DTD SVG 1.1//EN" "http://www.w3.org/Graphics/SVG/1.1/DTD/svg11.dtd" >
<svg xmlns="http://www.w3.org/2000/svg" xmlns:xlink="http://www.w3.org/1999/xlink" version="1.1" viewBox="-10 0 1010 1000">
   <path fill="currentColor"
d="M480 821l127 -23l4 61c-140 30 -290 59 -397 81l-13 -69l72 -13v-466h62v456l79 -14v-574h66v227h110v67h-110v267zM733 879h105c29 0 34 -25 37 -148c17 13 43 25 62 29c-7 142 -25 184 -94 184h-120c-73 0 -94 -23 -94 -107v-577h67v266c57 -36 113 -80 150 -116l52 55
c-57 46 -133 91 -202 129v243c0 36 6 42 37 42zM593 155h354v68h-755v207c0 153 -13 378 -95 530c-13 -13 -44 -35 -61 -43c77 -142 84 -342 84 -487v-275h394c-15 -29 -35 -61 -55 -86l64 -26c28 34 54 78 70 112z" />
</svg>
