<?xml version="1.0" standalone="no"?>
<!DOCTYPE svg PUBLIC "-//W3C//DTD SVG 1.1//EN" "http://www.w3.org/Graphics/SVG/1.1/DTD/svg11.dtd" >
<svg xmlns="http://www.w3.org/2000/svg" xmlns:xlink="http://www.w3.org/1999/xlink" version="1.1" viewBox="-10 0 1010 1000">
   <path fill="currentColor"
d="M197 212v194c0 156 -13 385 -98 540c-13 -13 -46 -35 -63 -41c81 -147 88 -353 88 -499v-265h379c-11 -27 -24 -58 -35 -82l73 -19c16 31 32 71 43 101h365v71h-752zM616 272l48 -37c42 32 98 77 125 105l-50 42c-27 -29 -81 -76 -123 -110zM703 878h143
c38 0 44 -22 48 -138c16 12 44 23 63 27c-8 137 -27 174 -106 174h-155c-87 0 -111 -22 -111 -103c-37 26 -76 50 -116 71c-11 -14 -30 -37 -48 -50c56 -27 112 -63 164 -103v-305h-101c-23 204 -80 394 -259 505c-9 -17 -32 -41 -48 -51c164 -98 216 -271 235 -454h-171
v-65h177c3 -47 5 -95 6 -142h74c-2 47 -4 95 -8 142h429v65h-266v246c59 -55 110 -117 146 -179l66 26c-54 88 -128 171 -212 242v52c0 33 8 40 50 40z" />
</svg>
