<?xml version="1.0" standalone="no"?>
<!DOCTYPE svg PUBLIC "-//W3C//DTD SVG 1.1//EN" "http://www.w3.org/Graphics/SVG/1.1/DTD/svg11.dtd" >
<svg xmlns="http://www.w3.org/2000/svg" xmlns:xlink="http://www.w3.org/1999/xlink" version="1.1" viewBox="-10 0 1010 1000">
   <path fill="currentColor"
d="M946 219h-758v207c0 152 -12 377 -94 528c-13 -13 -45 -35 -62 -42c76 -142 84 -343 84 -487v-276h417c-15 -30 -34 -63 -53 -89l69 -23c25 34 52 77 69 112h328v70zM351 276l68 8c-7 43 -18 84 -31 121c47 42 100 94 127 129l-45 48c-22 -31 -64 -77 -106 -116
c-27 57 -63 105 -107 143c-11 -12 -40 -33 -55 -42c82 -65 130 -167 149 -291zM605 717v148h344v66h-756v-66h340v-148h-276v-65h276v-393h72v292c81 -61 129 -157 150 -275l67 10c-8 44 -20 85 -35 123c59 48 127 108 162 147l-45 48c-31 -37 -88 -91 -142 -138
c-28 52 -63 95 -105 129c-11 -11 -36 -31 -52 -42v99h283v65h-283z" />
</svg>
