<?xml version="1.0" standalone="no"?>
<!DOCTYPE svg PUBLIC "-//W3C//DTD SVG 1.1//EN" "http://www.w3.org/Graphics/SVG/1.1/DTD/svg11.dtd" >
<svg xmlns="http://www.w3.org/2000/svg" xmlns:xlink="http://www.w3.org/1999/xlink" version="1.1" viewBox="-10 0 1010 1000">
   <path fill="currentColor"
d="M594 460v78h193v-78h-193zM594 331v73h193v-73h-193zM845 607l55 44c-51 37 -115 75 -169 104c66 45 145 78 232 97c-16 14 -35 40 -44 59c-134 -36 -248 -106 -325 -204v164c0 47 -12 64 -43 75c-33 11 -86 11 -169 11c-4 -19 -14 -45 -24 -64c61 3 122 2 138 1
c18 -1 24 -6 24 -23v-105c-106 47 -215 94 -300 130l-30 -61c82 -29 208 -79 330 -128v-115h-264v-54h264v-78h-303v-56h303v-73h-255v-54h255v-80h-327v228c0 155 -13 381 -97 532c-13 -13 -44 -33 -60 -40c78 -144 86 -347 86 -492v-294h392c-13 -25 -29 -54 -44 -76
l71 -21c21 30 44 68 59 97h345v66h-351v80h264v122h98v65h-98v128h-264v16c23 40 54 77 90 110c54 -32 121 -77 161 -111zM243 643l42 -41c49 29 114 73 147 102l-43 46c-31 -30 -95 -76 -146 -107z" />
</svg>
