<?xml version="1.0" standalone="no"?>
<!DOCTYPE svg PUBLIC "-//W3C//DTD SVG 1.1//EN" "http://www.w3.org/Graphics/SVG/1.1/DTD/svg11.dtd" >
<svg xmlns="http://www.w3.org/2000/svg" xmlns:xlink="http://www.w3.org/1999/xlink" version="1.1" viewBox="-10 0 1010 1000">
   <path fill="currentColor"
d="M190 189v233c0 156 -13 382 -97 533c-12 -13 -43 -34 -58 -41c78 -144 85 -346 85 -492v-297h381c-10 -24 -21 -48 -34 -69l70 -20c18 27 36 61 47 89h360v64h-754zM722 737h-288c36 34 84 63 141 85c58 -22 109 -51 147 -85zM376 557v47h412v-47h-412zM376 472v47h412
v-47h-412zM376 389v45h412v-45h-412zM786 685l44 28c-42 56 -103 102 -175 137c89 25 193 40 302 47c-15 15 -31 42 -40 61c-127 -12 -246 -34 -345 -73c-109 39 -234 62 -359 75c-5 -18 -18 -41 -30 -56c106 -10 216 -27 310 -54c-44 -24 -82 -51 -113 -83
c-43 23 -92 45 -145 64c-9 -14 -29 -37 -44 -47c120 -38 213 -89 272 -141h-157v-293h201c7 -16 14 -33 21 -50h-293v-53h690v53h-319l-27 50h281v293h-310c-15 16 -32 31 -51 46h274z" />
</svg>
