<?xml version="1.0" standalone="no"?>
<!DOCTYPE svg PUBLIC "-//W3C//DTD SVG 1.1//EN" "http://www.w3.org/Graphics/SVG/1.1/DTD/svg11.dtd" >
<svg xmlns="http://www.w3.org/2000/svg" xmlns:xlink="http://www.w3.org/1999/xlink" version="1.1" viewBox="-10 0 1010 1000">
   <path fill="currentColor"
d="M187 198v243c0 151 -12 371 -93 519c-12 -13 -43 -34 -59 -42c75 -139 81 -335 81 -477v-309h396c-10 -25 -22 -54 -33 -76l73 -16c15 28 30 64 40 92h354v66h-759zM677 670h121v-75h-121v75zM497 670h113v-75h-113v75zM497 475v68h113v-68h-113zM497 357v66h113v-66
h-113zM798 475h-121v68h121v-68zM864 596v126h-155c56 68 144 131 224 163c-16 13 -38 38 -49 57c-72 -38 -151 -105 -207 -178v185h-67v-227h-113v227h-67v-175c-57 69 -132 130 -202 166c-11 -17 -31 -40 -46 -52c79 -33 168 -97 223 -166h-144v-52h169v-75h-211v-52h211
v-68h-161v-52h161v-66h-197v-57h175c-13 -25 -30 -52 -45 -74l65 -16c20 27 41 63 56 90h161c21 -29 43 -66 54 -92l72 17c-17 26 -33 52 -50 75h210v57h-254v66h187v116h93v57h-93z" />
</svg>
