<?xml version="1.0" standalone="no"?>
<!DOCTYPE svg PUBLIC "-//W3C//DTD SVG 1.1//EN" "http://www.w3.org/Graphics/SVG/1.1/DTD/svg11.dtd" >
<svg xmlns="http://www.w3.org/2000/svg" xmlns:xlink="http://www.w3.org/1999/xlink" version="1.1" viewBox="-10 0 1010 1000">
   <path fill="currentColor"
d="M245 941l-54 -25c31 -39 54 -105 65 -159l56 18c-12 57 -33 125 -67 166zM373 769l56 -9c15 48 26 110 27 150l-61 10c0 -41 -9 -103 -22 -151zM497 764l54 -17c25 40 50 94 61 130l-57 20c-10 -36 -34 -93 -58 -133zM582 271v-77h-163v77h163zM818 328h-168v84h168v-84z
M419 328v84h163v-84h-163zM351 412v-84h-169v84h169zM351 194h-169v77h169v-77zM917 194h-267v77h237v198h-536v63h526v58h-526v65h563l-3 29c-14 158 -29 221 -52 244c-15 17 -32 22 -55 24c-21 1 -58 1 -96 -1c-1 -18 -8 -42 -18 -59c36 4 70 5 83 4c14 1 22 -1 29 -9
c14 -14 27 -61 38 -174h-557v-244h-101c-1 147 -16 350 -86 485c-12 -15 -43 -38 -59 -47c67 -133 73 -323 73 -462v-313h369c-11 -24 -24 -51 -37 -73l69 -19c17 28 36 65 48 92h358v62zM763 830l-50 25c-15 -28 -47 -69 -77 -100l48 -22c31 28 64 68 79 97z" />
</svg>
