<?xml version="1.0" standalone="no"?>
<!DOCTYPE svg PUBLIC "-//W3C//DTD SVG 1.1//EN" "http://www.w3.org/Graphics/SVG/1.1/DTD/svg11.dtd" >
<svg xmlns="http://www.w3.org/2000/svg" xmlns:xlink="http://www.w3.org/1999/xlink" version="1.1" viewBox="-10 0 1010 1000">
   <path fill="currentColor"
d="M183 184v268c0 151 -12 367 -92 510c-10 -15 -40 -39 -56 -47c71 -134 77 -322 77 -463v-330h385c-9 -24 -19 -48 -29 -69l73 -17c14 26 28 59 38 86h370v62h-766zM792 751l59 30c-112 100 -329 152 -560 176c-6 -16 -19 -40 -31 -55c221 -18 431 -65 532 -151zM580 587
l53 22c-72 55 -187 100 -285 127c-10 -12 -24 -29 -37 -40c92 -22 206 -64 269 -109zM674 671l54 25c-91 67 -243 116 -380 144c-8 -14 -22 -33 -35 -46c130 -21 282 -67 361 -123zM636 501l-17 -30l-17 17c108 67 234 104 350 130c-15 14 -32 36 -40 55
c-117 -31 -237 -75 -352 -151c-93 68 -219 122 -339 156c-9 -17 -25 -39 -41 -53c124 -30 258 -83 345 -149h-55v-45c-76 30 -152 61 -215 85l-25 -47c61 -20 150 -51 240 -84v-96h-236v-53h301v232c11 -8 21 -17 29 -26l54 27l-8 -15c57 -17 138 -46 220 -76v-89h-244v-53
h310v275h-66v-87c-69 27 -136 55 -194 77zM267 331l34 -27c33 19 76 50 100 68l-35 31c-23 -20 -66 -50 -99 -72zM618 332l36 -27c33 20 78 51 102 70l-36 31c-23 -20 -67 -52 -102 -74z" />
</svg>
