<?xml version="1.0" standalone="no"?>
<!DOCTYPE svg PUBLIC "-//W3C//DTD SVG 1.1//EN" "http://www.w3.org/Graphics/SVG/1.1/DTD/svg11.dtd" >
<svg xmlns="http://www.w3.org/2000/svg" xmlns:xlink="http://www.w3.org/1999/xlink" version="1.1" viewBox="-10 0 1010 1000">
   <path fill="currentColor"
d="M183 185v242c0 152 -11 376 -89 526c-11 -13 -41 -35 -56 -43c70 -140 76 -340 76 -483v-306h400c-10 -22 -23 -44 -35 -63l68 -20c18 24 35 57 47 83h343v64h-754zM339 616v80h148v-80h-148zM487 363h-148v75h148v-75zM339 489v76h148v-76h-148zM196 696h82v-333h-60
v-56h60v-81h61v81h148v-82h62v82h56v56h-56v333h64v59h-417v-59zM296 768l64 15c-30 60 -79 120 -126 159c-13 -11 -39 -30 -54 -39c47 -35 91 -84 116 -135zM955 482v63h-78v406h-65v-406h-109c-1 125 -17 295 -102 410c-10 -13 -36 -36 -50 -44c6 -8 11 -16 15 -24l-45 27
c-15 -32 -52 -81 -84 -116l52 -30c29 32 66 77 83 109c60 -103 66 -235 66 -339v-270v-1c96 -8 210 -26 279 -48l34 61c-67 19 -163 33 -248 40v162h252z" />
</svg>
