<?xml version="1.0" standalone="no"?>
<!DOCTYPE svg PUBLIC "-//W3C//DTD SVG 1.1//EN" "http://www.w3.org/Graphics/SVG/1.1/DTD/svg11.dtd" >
<svg xmlns="http://www.w3.org/2000/svg" xmlns:xlink="http://www.w3.org/1999/xlink" version="1.1" viewBox="-10 0 1010 1000">
   <path fill="currentColor"
d="M474 671h-105v168h105v-168zM466 318h-127v135v9h127v-144zM537 611v288h-168v49h-61v-224c-16 59 -39 116 -74 165c-10 -15 -34 -39 -48 -47c80 -116 90 -274 90 -390v-194h254v264h-193c-1 28 -4 59 -8 89h208zM825 397l63 14c-20 44 -41 95 -61 135h112v62h-159v111
h139v61h-139v174h-69v-174h-137v-61h137v-111h-150v-62h207c21 -45 44 -106 57 -149zM570 376v-62h141c-11 -26 -26 -54 -42 -78l60 -23c23 30 45 71 55 101h136v62h-350zM709 515l-54 19c-8 -34 -29 -85 -53 -123l50 -17c26 37 48 87 57 121zM601 131h340v64h-746v255
c0 150 -13 362 -98 505c-12 -13 -42 -35 -57 -43c79 -134 86 -322 86 -462v-319h394c-12 -22 -26 -44 -41 -64l62 -28c22 26 46 63 60 92z" />
</svg>
