<?xml version="1.0" standalone="no"?>
<!DOCTYPE svg PUBLIC "-//W3C//DTD SVG 1.1//EN" "http://www.w3.org/Graphics/SVG/1.1/DTD/svg11.dtd" >
<svg xmlns="http://www.w3.org/2000/svg" xmlns:xlink="http://www.w3.org/1999/xlink" version="1.1" viewBox="-10 0 1010 1000">
   <path fill="currentColor"
d="M656 783v-60h-174v60h174zM710 687v132h-281v-132h281zM797 644h-454v217h454v-217zM276 956v-363h591v359h-70v-40h-454v44h-67zM604 305v185h333v57h-719v-57h319v-185h-271v-56h271v-53h67v53h280v56h-280zM364 315l59 10c-5 14 -12 28 -19 41c37 19 80 48 104 68
l-38 39c-20 -19 -59 -47 -94 -68c-26 30 -59 57 -94 76c-9 -11 -30 -31 -44 -41c59 -28 106 -71 126 -125zM743 318l59 9c-4 13 -9 26 -16 39c43 19 92 48 118 69l-36 43c-24 -19 -68 -47 -108 -68c-23 30 -50 56 -81 74c-9 -10 -31 -31 -45 -41c54 -29 93 -71 109 -125z
M590 114h355v60h-763v252c0 154 -11 378 -84 530c-11 -13 -41 -33 -57 -40c68 -144 73 -345 73 -489v-313h395c-9 -20 -20 -41 -30 -59l71 -16c14 22 29 51 40 75z" />
</svg>
