<?xml version="1.0" standalone="no"?>
<!DOCTYPE svg PUBLIC "-//W3C//DTD SVG 1.1//EN" "http://www.w3.org/Graphics/SVG/1.1/DTD/svg11.dtd" >
<svg xmlns="http://www.w3.org/2000/svg" xmlns:xlink="http://www.w3.org/1999/xlink" version="1.1" viewBox="-10 0 1010 1000">
   <path fill="currentColor"
d="M177 184v236c0 156 -11 385 -84 540c-12 -14 -42 -36 -58 -44c67 -145 72 -349 72 -496v-298h398c-12 -23 -27 -46 -40 -66l72 -21c20 26 41 60 55 87h357v62h-772zM588 243h338s-1 18 -1 27c-5 138 -11 191 -29 210c-11 15 -26 21 -49 22c-17 2 -52 2 -85 0
c-2 -16 -8 -39 -16 -54c32 3 62 3 72 3c12 1 19 -1 25 -8c7 -11 12 -47 16 -141h-107c-19 104 -66 173 -146 221c-9 -11 -32 -36 -46 -46c71 -36 111 -93 126 -175h-98v-59zM419 676h77v-94h-77v94zM293 676h78v-94h-76v19c0 23 -1 49 -2 75zM437 312h-100
c-14 26 -30 52 -47 75h106c15 -22 30 -50 41 -75zM295 443v88h76v-88h-76zM496 531v-88h-77v88h77zM552 387v503c0 28 -5 43 -23 52c-16 9 -40 11 -75 11c-3 -16 -10 -38 -16 -53c22 1 41 1 49 0c6 0 9 -3 9 -10v-159h-77v180h-48v-180h-83c-10 81 -31 165 -75 230
c-9 -10 -33 -26 -46 -32c65 -97 73 -230 73 -329v-149l-4 4c-13 -11 -40 -28 -55 -36c60 -57 111 -141 142 -227l62 15c-6 17 -13 34 -21 51h104l9 -3l41 27c-16 34 -37 72 -57 105h91zM955 758v59h-154v139h-63v-139h-164v-59h164v-93h-91c-11 24 -24 46 -36 65
c-12 -8 -37 -21 -51 -27c36 -46 59 -109 74 -172l55 9c-5 23 -12 45 -20 67h69v-83h63v83h134v58h-134v93h154z" />
</svg>
