<?xml version="1.0" standalone="no"?>
<!DOCTYPE svg PUBLIC "-//W3C//DTD SVG 1.1//EN" "http://www.w3.org/Graphics/SVG/1.1/DTD/svg11.dtd" >
<svg xmlns="http://www.w3.org/2000/svg" xmlns:xlink="http://www.w3.org/1999/xlink" version="1.1" viewBox="-10 0 1010 1000">
   <path fill="currentColor"
d="M190 178v241c0 155 -13 386 -97 540c-12 -13 -42 -35 -57 -43c78 -144 85 -350 85 -497v-302h372c-7 -21 -16 -43 -24 -62l72 -17c13 24 25 54 35 79h369v61h-755zM339 361v131c0 135 -15 330 -103 467c-13 -12 -40 -30 -57 -36c84 -130 94 -306 94 -432v-180h254v-123
h68v39h273v44h-273v40h274l12 -2l47 10c-16 39 -34 84 -50 113l-59 -11c8 -17 17 -38 26 -60h-250v49l191 -8l3 36l-194 10v11c0 20 9 24 59 24h184c31 0 38 -6 40 -44c14 8 35 13 51 16c-6 54 -25 68 -84 68h-196c-90 0 -115 -11 -115 -65v-6l-160 8l-3 -40l163 -7v-52
h-195zM467 659v41h131v-41h-131zM467 584v41h131v-41h-131zM802 625v-41h-146v41h146zM802 700v-41h-146v41h146zM409 734v-184h452v184h-452zM443 813v77h92v-77h-92zM680 813h-93v77h93v-77zM826 813h-93v77h93v-77zM887 890h73v48h-653v-48h78v-119h502v119z" />
</svg>
