<?xml version="1.0" standalone="no"?>
<!DOCTYPE svg PUBLIC "-//W3C//DTD SVG 1.1//EN" "http://www.w3.org/Graphics/SVG/1.1/DTD/svg11.dtd" >
<svg xmlns="http://www.w3.org/2000/svg" xmlns:xlink="http://www.w3.org/1999/xlink" version="1.1" viewBox="-10 0 1010 1000">
   <path fill="currentColor"
d="M699 720h-221c-16 23 -34 45 -51 64c55 11 114 24 173 39c48 -27 79 -61 99 -103zM516 618l25 7c-7 12 -16 26 -23 39h424v56h-169c-20 50 -50 90 -93 123c90 24 175 49 239 72l-53 49c-61 -24 -155 -53 -257 -81c-86 40 -209 63 -385 76c-3 -16 -16 -41 -24 -56
c135 -9 236 -23 311 -44c-67 -17 -134 -32 -194 -44c26 -26 53 -60 80 -95h-166v-56h206c13 -20 26 -39 35 -58l40 11c-15 -19 -45 -46 -70 -63l41 -26c27 17 58 42 74 62zM330 530l53 17c-26 36 -69 73 -107 94c-10 -9 -28 -23 -40 -30c35 -19 74 -52 94 -81zM494 329v-41
h-160v41h160zM494 407v-41h-160v41h160zM494 487v-42h-160v42h160zM552 250v275h-274v-275h274zM663 445v43h163v-43h-163zM663 367v41h163v-41h-163zM663 289v40h163v-40h-163zM607 526v-276h276v276h-276zM777 559l41 -28c36 23 79 57 100 81l-42 31
c-21 -24 -64 -60 -99 -84zM667 534l52 17c-27 35 -69 72 -107 92c-10 -10 -29 -23 -40 -29c35 -20 74 -52 95 -80zM586 125h358v63h-753v245c0 153 -12 377 -91 525c-12 -13 -43 -35 -59 -43c72 -139 79 -339 79 -482v-308h388c-12 -23 -27 -47 -41 -67l64 -19
c21 25 43 60 55 86z" />
</svg>
