<?xml version="1.0" standalone="no"?>
<!DOCTYPE svg PUBLIC "-//W3C//DTD SVG 1.1//EN" "http://www.w3.org/Graphics/SVG/1.1/DTD/svg11.dtd" >
<svg xmlns="http://www.w3.org/2000/svg" xmlns:xlink="http://www.w3.org/1999/xlink" version="1.1" viewBox="-10 0 1010 1000">
   <path fill="currentColor"
d="M191 189v258c0 151 -13 365 -96 508c-12 -12 -42 -35 -57 -43c76 -134 83 -325 83 -466v-321h397c-10 -23 -23 -47 -35 -67l72 -20c17 26 34 60 47 87h338v64h-749zM839 385l-49 -18c19 -38 44 -100 56 -140l59 19c-23 49 -45 103 -66 139zM716 365l-53 20
c-7 -38 -31 -95 -55 -136l51 -18c26 41 49 97 57 134zM443 331h-95c-12 29 -27 55 -43 81h103c12 -23 25 -53 35 -81zM512 545v-82h-73v82h73zM512 678v-84h-73v84h73zM317 545h75v-82h-75v82zM392 594h-75v84h75v-84zM567 728h-304v-254c-5 7 -11 13 -16 19
c-10 -10 -35 -26 -50 -34c58 -62 107 -155 137 -249l56 14c-6 18 -12 36 -19 54h97l9 -2l38 23c-13 38 -32 79 -50 113h102v316zM234 943l-49 -24c29 -41 54 -110 67 -163l49 19c-14 55 -37 125 -67 168zM328 782l46 -6c10 47 17 108 17 147l-48 7c0 -40 -6 -101 -15 -148z
M415 774l44 -10c19 42 36 99 43 136l-47 11c-6 -36 -24 -94 -40 -137zM514 761l42 -13c24 40 49 93 58 128l-45 16c-8 -36 -33 -90 -55 -131zM948 702v59h-161v195h-62v-195h-143v-59h143v-103h-116v-57h116v-95h-133v-58h338v58h-143v95h130v57h-130v103h161z" />
</svg>
