<?xml version="1.0" standalone="no"?>
<!DOCTYPE svg PUBLIC "-//W3C//DTD SVG 1.1//EN" "http://www.w3.org/Graphics/SVG/1.1/DTD/svg11.dtd" >
<svg xmlns="http://www.w3.org/2000/svg" xmlns:xlink="http://www.w3.org/1999/xlink" version="1.1" viewBox="-10 0 1010 1000">
   <path fill="currentColor"
d="M310 615v12c0 14 0 30 -1 46h118v-58h-117zM427 516h-117v53h117v-53zM607 569v-53h-119v53h119zM607 673v-58h-119v58h119zM804 615h-136v58h136v-58zM714 901h105c21 0 26 -7 29 -55c13 8 35 15 52 18c-5 67 -23 85 -74 85h-118c-73 0 -91 -14 -91 -72v-158h-196v54
h157v47h-157v77l164 -20c0 12 1 30 2 40c-204 27 -231 33 -247 40c-3 -17 -10 -51 -20 -70c16 -3 39 -9 39 -41v-127h-53c-7 79 -26 168 -67 233c-12 -11 -41 -28 -57 -35c56 -88 62 -206 62 -292v-159h285c-4 -10 -9 -20 -13 -30h-49v-106h-161v108h-54v-152h271v133
l50 -13c10 19 19 41 27 60h295v50h-227v53h203v150h-191v73c51 -15 109 -36 147 -50l38 36c-55 25 -127 43 -185 56v43c0 21 5 24 34 24zM542 207v49h-322v-49h322zM438 408l-39 24c-14 -20 -43 -52 -66 -74l36 -21c26 23 55 52 69 71zM869 438h-56v-108h-161v108h-54v-152
h271v152zM682 358l37 -19c25 22 55 51 68 70l-38 24c-16 -20 -44 -52 -67 -75zM574 256v-49h331v49h-331zM576 117h369v60h-762v252c0 153 -11 377 -86 526c-11 -12 -41 -33 -57 -40c69 -142 75 -342 75 -486v-312h379c-8 -21 -16 -43 -25 -62l72 -17c12 24 26 54 35 79z
" />
</svg>
