<?xml version="1.0" standalone="no"?>
<!DOCTYPE svg PUBLIC "-//W3C//DTD SVG 1.1//EN" "http://www.w3.org/Graphics/SVG/1.1/DTD/svg11.dtd" >
<svg xmlns="http://www.w3.org/2000/svg" xmlns:xlink="http://www.w3.org/1999/xlink" version="1.1" viewBox="-10 0 1010 1000">
   <path fill="currentColor"
d="M795 787l-46 28c-15 -34 -52 -85 -86 -122l45 -24c34 35 73 84 87 118zM953 615v54h-432v-54h432zM767 520v-97h-65v97h65zM812 423v97h65v-97h-65zM657 520v-97h-62v97h62zM699 206h64v60h172v55h-172v55h165v191h-382v-191h153v-55h-161v-55h161v-60zM945 178h-768v252
c0 154 -11 378 -84 529c-11 -13 -41 -33 -57 -40c67 -143 73 -344 73 -488v-314h378c-10 -20 -23 -39 -36 -56l63 -26c20 24 41 56 55 82h376v61zM323 867l74 -8l1 47c-76 10 -150 20 -213 26l-7 -51l94 -10v-64h-68v-46h68v-56h-71v-47h194v47h-72v56h69v46h-69v60z
M423 341v-55h-113v55h113zM310 486v67c36 -2 74 -5 113 -7v-60h-113zM423 443v-58h-113v58h113zM530 286h-49v673h-58v-362c-81 7 -159 14 -225 19l-6 -57l62 -3v-270h-46v-51h322v51zM550 924l-48 -25c24 -36 39 -96 45 -149l50 14c-7 57 -20 121 -47 160zM703 900h71
c19 0 23 -6 25 -67c12 9 33 17 50 21c-6 78 -22 98 -67 98h-86c-60 0 -75 -15 -75 -72v-137h56v137c0 18 3 20 26 20zM827 756l50 -19c39 49 72 115 82 161l-53 21c-10 -45 -42 -113 -79 -163z" />
</svg>
