<?xml version="1.0" standalone="no"?>
<!DOCTYPE svg PUBLIC "-//W3C//DTD SVG 1.1//EN" "http://www.w3.org/Graphics/SVG/1.1/DTD/svg11.dtd" >
<svg xmlns="http://www.w3.org/2000/svg" xmlns:xlink="http://www.w3.org/1999/xlink" version="1.1" viewBox="-10 0 1010 1000">
   <path fill="currentColor"
d="M724 548v107h223v68h-223v230h-73v-230h-319c-18 86 -72 173 -221 238c-11 -17 -33 -43 -50 -57c124 -50 175 -116 194 -181h-201v-68h213c1 -10 1 -20 1 -29v-78h73v80c0 9 0 18 -1 27h311v-107h73zM576 75l62 -29c72 98 210 199 326 248c-17 15 -41 43 -53 62
c-41 -20 -84 -47 -127 -78c0 3 -1 7 -1 9c-11 137 -22 196 -46 219c-16 17 -34 23 -60 25c-24 1 -72 1 -120 -2c-2 -20 -9 -46 -21 -64c48 4 93 5 109 5c17 0 26 -1 34 -8c12 -12 21 -50 30 -139h-241c-35 116 -112 195 -305 238c-7 -17 -25 -47 -39 -61
c172 -31 240 -91 271 -177h-179v-43c-36 26 -75 49 -114 67c-10 -14 -38 -43 -54 -57c115 -48 224 -128 279 -229l73 22c-37 66 -92 125 -154 174h511c-69 -55 -134 -119 -181 -182z" />
</svg>
