<?xml version="1.0" standalone="no"?>
<!DOCTYPE svg PUBLIC "-//W3C//DTD SVG 1.1//EN" "http://www.w3.org/Graphics/SVG/1.1/DTD/svg11.dtd" >
<svg xmlns="http://www.w3.org/2000/svg" xmlns:xlink="http://www.w3.org/1999/xlink" version="1.1" viewBox="-10 0 1010 1000">
   <path fill="currentColor"
d="M361 258v-53h-302v-64h425c-14 -28 -34 -64 -51 -91l71 -18c22 34 49 79 61 109h377v64h-289v239c0 39 -7 58 -35 70s-71 13 -134 13c-4 -21 -17 -49 -28 -69c53 1 95 1 109 1c14 -1 17 -4 17 -15v-239h-153v55c0 106 -28 226 -255 301c-9 -16 -31 -41 -45 -54
c209 -65 232 -164 232 -249zM693 279l59 -30c62 53 131 129 164 181l-63 33c-30 -52 -99 -130 -160 -184zM213 245l66 21c-40 65 -103 134 -158 179c-12 -11 -39 -34 -55 -44c56 -39 113 -98 147 -156zM947 647v66h-235v251h-73v-251h-270c-15 95 -71 190 -257 253
c-9 -18 -30 -44 -45 -58c159 -52 211 -123 228 -195h-240v-66h247v-5v-110h72v111v4h265v-115h73v115h235z" />
</svg>
