<?xml version="1.0" standalone="no"?>
<!DOCTYPE svg PUBLIC "-//W3C//DTD SVG 1.1//EN" "http://www.w3.org/Graphics/SVG/1.1/DTD/svg11.dtd" >
<svg xmlns="http://www.w3.org/2000/svg" xmlns:xlink="http://www.w3.org/1999/xlink" version="1.1" viewBox="-10 0 1010 1000">
   <path fill="currentColor"
d="M922 211l-53 43c-32 -44 -102 -111 -162 -156l51 -38c60 43 131 105 164 151zM491 110v67h-379v-67h379zM82 927l-20 -73c114 -18 292 -54 461 -86l4 68c-157 33 -326 67 -445 91zM109 517h384v70h-384v-70zM947 376h-288c29 296 102 504 193 504c26 0 38 -55 44 -188
c18 17 46 34 67 42c-13 174 -42 224 -118 224c-151 0 -233 -250 -264 -582h-527v-71h521c-6 -82 -9 -169 -10 -257h80c-1 90 2 176 8 257h294v71z" />
</svg>
