<?xml version="1.0" standalone="no"?>
<!DOCTYPE svg PUBLIC "-//W3C//DTD SVG 1.1//EN" "http://www.w3.org/Graphics/SVG/1.1/DTD/svg11.dtd" >
<svg xmlns="http://www.w3.org/2000/svg" xmlns:xlink="http://www.w3.org/1999/xlink" version="1.1" viewBox="-10 0 1010 1000">
   <path fill="currentColor"
d="M857 262h-291c-25 79 -58 146 -99 199c-13 -12 -43 -34 -60 -44c73 -86 116 -224 138 -372l70 8c-8 49 -17 96 -29 141h293l13 -3l47 15c-18 75 -42 162 -66 216l-58 -18c14 -37 30 -90 42 -142zM136 534h225s0 22 -1 32c-12 234 -24 322 -51 353c-18 20 -36 27 -65 30
c-24 2 -73 1 -121 -1c-2 -23 -10 -52 -22 -73c49 5 95 6 115 6c17 0 25 -2 34 -11c18 -18 29 -89 38 -270h-223c7 -76 11 -198 11 -290h214v-153h-234v-67h306v287h-222c0 53 -2 109 -4 157zM697 322v71c0 18 0 37 -1 57c36 208 116 375 269 444c-16 15 -38 42 -48 62
c-125 -65 -199 -186 -247 -343c-34 120 -111 246 -286 348c-10 -17 -35 -41 -52 -52c275 -155 295 -371 295 -518v-69h70z" />
</svg>
