<?xml version="1.0" standalone="no"?>
<!DOCTYPE svg PUBLIC "-//W3C//DTD SVG 1.1//EN" "http://www.w3.org/Graphics/SVG/1.1/DTD/svg11.dtd" >
<svg xmlns="http://www.w3.org/2000/svg" xmlns:xlink="http://www.w3.org/1999/xlink" version="1.1" viewBox="-10 0 1010 1000">
   <path fill="currentColor"
d="M137 534h209s-1 23 -2 33c-11 234 -24 323 -51 354c-17 20 -36 27 -65 30c-24 2 -73 2 -121 -1c-2 -23 -10 -52 -23 -73c49 5 97 5 115 5c17 0 26 -1 35 -11c17 -18 29 -89 39 -271h-206c7 -76 11 -198 11 -290h194v-153h-208v-67h280v287h-202c-1 53 -3 109 -5 157z
M499 431l69 12c-27 135 -72 268 -128 354c-13 -12 -44 -30 -61 -38c57 -81 97 -204 120 -328zM859 245h-146v618c0 43 -10 62 -36 74c-26 13 -69 15 -131 14c-4 -20 -16 -51 -27 -70c47 1 91 1 104 0s17 -4 17 -18v-618h-104c-29 77 -65 146 -104 198
c-14 -10 -45 -30 -63 -39c71 -85 123 -221 151 -358l71 13c-9 40 -20 79 -31 116h334l11 -3l48 14c-23 61 -54 129 -81 186l-65 -17c18 -34 36 -75 52 -110zM778 440l63 -18c45 109 89 249 104 343l-68 22c-15 -94 -57 -238 -99 -347z" />
</svg>
