<?xml version="1.0" standalone="no"?>
<!DOCTYPE svg PUBLIC "-//W3C//DTD SVG 1.1//EN" "http://www.w3.org/Graphics/SVG/1.1/DTD/svg11.dtd" >
<svg xmlns="http://www.w3.org/2000/svg" xmlns:xlink="http://www.w3.org/1999/xlink" version="1.1" viewBox="-10 0 1010 1000">
   <path fill="currentColor"
d="M137 534h234s-1 22 -2 32c-12 234 -24 322 -52 353c-17 20 -36 27 -65 30c-26 2 -76 1 -125 -1c-1 -23 -10 -52 -23 -73c50 5 99 6 117 6c17 0 27 -2 36 -11c18 -18 29 -89 39 -270h-232c7 -76 11 -198 11 -290h220v-153h-241v-67h314v287h-226c-1 53 -3 110 -5 157z
M830 615h-308v225h308v-225zM451 956v-408h452v404h-73v-44h-308v48h-71zM420 92h507s-1 22 -2 33c-11 218 -21 301 -47 330c-16 19 -34 26 -60 29c-24 2 -68 2 -113 0c-1 -22 -9 -50 -20 -69c43 4 85 4 100 4c16 0 25 -1 33 -10c15 -17 26 -82 35 -248h-191
c-21 149 -73 277 -230 348c-9 -16 -29 -42 -45 -55c141 -59 185 -169 202 -293h-169v-69z" />
</svg>
