<?xml version="1.0" standalone="no"?>
<!DOCTYPE svg PUBLIC "-//W3C//DTD SVG 1.1//EN" "http://www.w3.org/Graphics/SVG/1.1/DTD/svg11.dtd" >
<svg xmlns="http://www.w3.org/2000/svg" xmlns:xlink="http://www.w3.org/1999/xlink" version="1.1" viewBox="-10 0 1010 1000">
   <path fill="currentColor"
d="M135 534h223s0 22 -1 32c-12 234 -24 322 -52 353c-17 20 -35 27 -64 30c-24 2 -73 1 -121 -1c-1 -23 -10 -52 -22 -73c49 5 96 6 115 6c17 0 25 -2 34 -11c18 -18 29 -89 39 -270h-221c7 -76 11 -198 11 -290h209v-153h-228v-67h299v287h-216c-1 53 -3 109 -5 157z
M507 656v200h168v-200h-168zM675 163h-168v175h168v-175zM849 587v-180h-342v180h342zM744 856h213v69h-517v-831h504v69h-200v175h174v318h-174v200z" />
</svg>
