<?xml version="1.0" standalone="no"?>
<!DOCTYPE svg PUBLIC "-//W3C//DTD SVG 1.1//EN" "http://www.w3.org/Graphics/SVG/1.1/DTD/svg11.dtd" >
<svg xmlns="http://www.w3.org/2000/svg" xmlns:xlink="http://www.w3.org/1999/xlink" version="1.1" viewBox="-10 0 1010 1000">
   <path fill="currentColor"
d="M311 473h373c-28 -25 -54 -52 -75 -81h-218c-23 28 -50 56 -80 81zM938 392h-247c68 72 173 131 284 159c-17 14 -38 39 -47 58c-57 -18 -113 -44 -163 -76v123h-479c-5 21 -10 43 -16 63h589s-2 22 -5 31c-23 104 -45 154 -75 177c-22 16 -43 20 -76 21
c-30 1 -91 0 -157 -5c-1 -17 -9 -42 -21 -60c64 7 131 8 155 8c23 0 34 -1 44 -8c17 -13 34 -44 50 -104h-599c18 -50 39 -121 52 -182h465v-65h-440v-12c-51 36 -108 68 -172 96c-8 -17 -28 -43 -44 -54c110 -44 197 -103 265 -170h-235v-62h289c19 -23 34 -47 49 -71h-276
v-61h157c-17 -32 -47 -73 -73 -104l55 -27c33 36 70 86 87 119l-22 12h103c23 -51 38 -104 47 -155l73 7c-10 49 -25 99 -45 148h121c33 -38 70 -92 92 -130l67 22c-25 36 -55 76 -82 108h162v61h-389c-12 24 -27 48 -43 71h500v62z" />
</svg>
