<?xml version="1.0" standalone="no"?>
<!DOCTYPE svg PUBLIC "-//W3C//DTD SVG 1.1//EN" "http://www.w3.org/Graphics/SVG/1.1/DTD/svg11.dtd" >
<svg xmlns="http://www.w3.org/2000/svg" xmlns:xlink="http://www.w3.org/1999/xlink" version="1.1" viewBox="-10 0 1010 1000">
   <path fill="currentColor"
d="M229 731h656s-2 23 -6 33c-18 97 -37 146 -65 168c-21 17 -42 21 -80 22c-32 2 -99 1 -171 -3c-1 -21 -9 -48 -22 -67c70 7 145 8 171 8c23 0 35 -1 46 -8c16 -12 28 -40 41 -96h-663c19 -52 41 -127 55 -189h36v-1h513v-75h-551v-57h622v188h-560c-7 26 -15 53 -22 77z
M228 230l68 18c-34 75 -91 149 -144 198c-14 -11 -42 -31 -59 -40c55 -44 106 -110 135 -176zM689 267l57 -34c65 48 139 119 177 166l-58 39c-37 -49 -113 -123 -176 -171zM560 130h368v65h-279v247h-73v-247h-154v247h-72v-247h-276v-65h404c-13 -26 -30 -56 -45 -80
l71 -18c19 29 43 69 56 98z" />
</svg>
