<?xml version="1.0" standalone="no"?>
<!DOCTYPE svg PUBLIC "-//W3C//DTD SVG 1.1//EN" "http://www.w3.org/Graphics/SVG/1.1/DTD/svg11.dtd" >
<svg xmlns="http://www.w3.org/2000/svg" xmlns:xlink="http://www.w3.org/1999/xlink" version="1.1" viewBox="-10 0 1010 1000">
   <path fill="currentColor"
d="M941 134v64h-560v-64h259c-12 -25 -28 -51 -44 -73l59 -27c24 28 47 68 60 100h226zM515 309v104h298v-104h-298zM885 468h-439v-214h439v214zM70 157v-67h273v287h-193c-1 53 -3 109 -5 157h195s-1 22 -2 32c-12 234 -24 322 -51 353c-16 20 -35 27 -63 30
c-24 2 -72 1 -120 -1c-2 -23 -10 -52 -23 -73c49 5 96 6 115 6c16 0 25 -2 34 -11c18 -18 28 -89 38 -270h-192c6 -76 11 -198 11 -290h186v-153h-203zM954 698v61h-255v118c0 38 -8 56 -38 67c-29 10 -75 10 -145 9c-4 -19 -14 -44 -23 -63c52 2 102 2 115 1
c15 -1 19 -4 19 -16v-116h-254v-61h254v-57c43 -15 91 -36 132 -58h-344v-59h434l14 -4l47 37c-59 43 -138 83 -211 112v29h255z" />
</svg>
