<?xml version="1.0" standalone="no"?>
<!DOCTYPE svg PUBLIC "-//W3C//DTD SVG 1.1//EN" "http://www.w3.org/Graphics/SVG/1.1/DTD/svg11.dtd" >
<svg xmlns="http://www.w3.org/2000/svg" xmlns:xlink="http://www.w3.org/1999/xlink" version="1.1" viewBox="-10 0 1010 1000">
   <path fill="currentColor"
d="M146 533l203 1s0 22 -1 32c-12 236 -25 326 -52 357c-17 20 -35 27 -64 30c-25 2 -73 2 -121 -1c-2 -23 -10 -52 -24 -73c50 5 97 6 116 6c16 0 26 -2 35 -12c18 -18 28 -90 39 -273h-202c7 -76 11 -198 11 -290h192v-153h-213v-67h282v287h-196c-1 53 -3 108 -5 156z
M863 594l56 46c-45 38 -98 78 -142 108c55 58 120 105 188 135c-17 14 -40 40 -51 59c-139 -71 -260 -215 -329 -375h-82v291l162 -54c0 18 3 46 6 60c-190 68 -218 82 -236 95c-4 -17 -21 -48 -31 -63c13 -8 29 -22 29 -60v-269h-60v-65h82v-412h471v61h-399v78h362v56
h-362v78h362v57h-362v82h418v65h-293c24 48 53 95 89 138c42 -33 92 -78 122 -111z" />
</svg>
