<?xml version="1.0" standalone="no"?>
<!DOCTYPE svg PUBLIC "-//W3C//DTD SVG 1.1//EN" "http://www.w3.org/Graphics/SVG/1.1/DTD/svg11.dtd" >
<svg xmlns="http://www.w3.org/2000/svg" xmlns:xlink="http://www.w3.org/1999/xlink" version="1.1" viewBox="-10 0 1010 1000">
   <path fill="currentColor"
d="M943 338l-56 38c-11 -19 -25 -43 -44 -69c-349 31 -390 35 -415 45c-4 -14 -16 -47 -24 -65c16 -3 33 -19 52 -42c21 -22 88 -111 128 -196l76 19c-45 75 -98 150 -149 208l291 -24c-25 -30 -51 -61 -76 -87l53 -33c61 63 133 150 164 206zM129 543h247s-1 23 -2 33
c-14 226 -28 311 -55 342c-18 20 -37 27 -65 29c-25 2 -70 2 -116 -1c-1 -21 -8 -49 -20 -68c45 4 88 4 105 4c16 0 26 -1 34 -10c19 -19 32 -88 44 -261h-250c13 -75 29 -194 37 -285h209v-160h-235v-69h304v297h-218c-6 51 -12 103 -19 149zM489 635h135v-139h-135v139z
M835 496h-139v139h139v-139zM963 932l-65 31c-7 -20 -17 -42 -29 -67c-172 14 -351 27 -477 36l-10 -72c65 -3 150 -8 242 -14v-149h-201v-263h201v-97h72v97h208v263h-208v144l137 -9c-19 -30 -39 -62 -59 -88l61 -27c52 66 107 155 128 215z" />
</svg>
