<?xml version="1.0" standalone="no"?>
<!DOCTYPE svg PUBLIC "-//W3C//DTD SVG 1.1//EN" "http://www.w3.org/Graphics/SVG/1.1/DTD/svg11.dtd" >
<svg xmlns="http://www.w3.org/2000/svg" xmlns:xlink="http://www.w3.org/1999/xlink" version="1.1" viewBox="-10 0 1010 1000">
   <path fill="currentColor"
d="M131 539h180s-1 22 -1 31c-10 236 -19 320 -43 348c-15 19 -32 26 -57 28c-21 3 -58 3 -97 0c-1 -20 -7 -46 -18 -63c38 3 71 4 86 4c13 0 21 -2 29 -11c15 -17 23 -87 32 -271h-180c9 -74 16 -194 18 -285h153v-158h-180v-67h247v292h-160c-3 51 -5 105 -9 152zM595 606
v-256h-78v8c0 27 -1 57 -3 88c30 50 62 110 81 160zM398 800h197v-142l-23 12c-12 -41 -37 -100 -67 -156c-11 69 -35 141 -80 206c-6 -8 -17 -17 -27 -25v105zM473 350h-75v325c70 -104 75 -229 75 -318v-7zM331 181v-67h332v67h-137v106h126v643h-57v-65h-197v71h-55v-649
h121v-106h-133zM755 540h187s-1 21 -2 31c-10 234 -21 318 -45 347c-16 20 -33 26 -59 28c-23 3 -63 2 -104 0c-2 -20 -9 -46 -20 -65c41 5 80 5 94 5c15 0 24 -1 31 -11c15 -17 25 -88 34 -269h-183c6 -75 11 -194 11 -286h164v-155h-185v-66h252v287h-170
c-1 52 -3 107 -5 154z" />
</svg>
