<?xml version="1.0" standalone="no"?>
<!DOCTYPE svg PUBLIC "-//W3C//DTD SVG 1.1//EN" "http://www.w3.org/Graphics/SVG/1.1/DTD/svg11.dtd" >
<svg xmlns="http://www.w3.org/2000/svg" xmlns:xlink="http://www.w3.org/1999/xlink" version="1.1" viewBox="-10 0 1010 1000">
   <path fill="currentColor"
d="M303 248h381c6 -25 12 -50 17 -72h-373c-9 25 -17 50 -25 72zM823 471l56 50c-47 33 -101 65 -156 95c47 100 130 185 233 223c-17 14 -38 42 -49 61c-105 -48 -188 -141 -239 -254c-25 12 -48 23 -70 33c28 104 9 204 -40 240c-30 25 -56 32 -97 33c-22 0 -50 -1 -78 -3
c-2 -19 -8 -48 -20 -68c33 3 62 4 83 4c23 0 43 -1 60 -18c28 -20 42 -82 28 -154c-112 86 -288 165 -437 204c-8 -19 -23 -46 -37 -61c162 -33 356 -118 456 -205c-7 -19 -17 -39 -29 -57c-93 61 -245 124 -363 156c-8 -17 -23 -42 -37 -57c123 -25 282 -85 368 -142
c-14 -16 -29 -31 -46 -44c-94 42 -203 73 -302 96c-7 -15 -27 -45 -39 -59c123 -22 259 -59 359 -109h-371v-65h593c6 -20 13 -42 19 -63h-465c29 -71 69 -181 95 -265l71 10c-6 21 -13 42 -20 65h373l11 -4l53 10c-15 74 -39 168 -62 247h222v65h-408c-22 15 -45 29 -71 43
c51 41 87 91 110 143c84 -42 183 -102 246 -150z" />
</svg>
