<?xml version="1.0" standalone="no"?>
<!DOCTYPE svg PUBLIC "-//W3C//DTD SVG 1.1//EN" "http://www.w3.org/Graphics/SVG/1.1/DTD/svg11.dtd" >
<svg xmlns="http://www.w3.org/2000/svg" xmlns:xlink="http://www.w3.org/1999/xlink" version="1.1" viewBox="-10 0 1010 1000">
   <path fill="currentColor"
d="M715 671v66h236v59h-236v160h-73v-160h-278c-9 71 -57 133 -235 170c-9 -16 -28 -39 -42 -52c147 -28 193 -73 204 -118h-241v-59h245v-62h71v62h276v-66h73zM255 667v-118c-41 50 -96 96 -147 123c-10 -15 -28 -36 -41 -46c53 -22 111 -63 152 -107h-136v-53h87
c-9 -26 -32 -63 -54 -89l48 -22c24 26 49 62 57 88l-46 23h80v-118h64v118h153v53h-141c42 23 117 65 138 77l-37 47c-21 -17 -72 -54 -113 -80v104h-64zM414 351l55 22c-25 34 -52 69 -75 92l-44 -19c21 -26 49 -68 64 -95zM793 514h-108c-24 82 -74 138 -183 172
c-7 -13 -22 -37 -34 -48c92 -24 137 -65 158 -124h-80v-14c-6 4 -13 9 -19 13c-9 -11 -31 -31 -45 -41c54 -32 102 -77 127 -128l57 13c-17 37 -43 72 -73 102h217c-33 -29 -60 -65 -79 -99l50 -17c31 49 91 101 150 124c-13 12 -32 33 -42 48c-11 -5 -22 -12 -34 -20
c-6 90 -13 128 -28 145c-11 13 -26 19 -47 20c-16 1 -48 2 -80 -1c-1 -16 -6 -38 -14 -53c30 3 58 4 68 4c11 0 17 -1 23 -8c7 -9 12 -32 16 -88zM784 276h169v50h-903v-50h663v-55h-520v-51h520v-50h-549v-51h620v207z" />
</svg>
