<?xml version="1.0" standalone="no"?>
<!DOCTYPE svg PUBLIC "-//W3C//DTD SVG 1.1//EN" "http://www.w3.org/Graphics/SVG/1.1/DTD/svg11.dtd" >
<svg xmlns="http://www.w3.org/2000/svg" xmlns:xlink="http://www.w3.org/1999/xlink" version="1.1" viewBox="-10 0 1010 1000">
   <path fill="currentColor"
d="M707 379v-49h-127v49h127zM707 471v-48h-127v48h127zM707 565v-50h-127v50h127zM518 640v-261c-17 22 -33 42 -49 59c-7 -12 -24 -41 -36 -55c48 -47 94 -115 123 -180l34 12v-53h-127v-56h127v-62h63v62h125v-63h63v63h113v56h-113v56h-63v-56h-125v57h-51l9 2
c-9 20 -19 39 -31 59h134c-11 -20 -30 -46 -46 -64l43 -25c21 23 44 52 55 71l-28 18h204v50h-170v49h138v44h-138v48h138v44h-138v50h177v51h-369v24h-62zM422 86v349h-351v-57h286v-94h-265v-56h265v-85h-284v-57h349zM258 762l-50 37c-20 -35 -62 -87 -100 -123l49 -32
c37 34 81 84 101 118zM474 620h-90v251c0 39 -7 57 -33 69c-25 11 -65 11 -125 11c-2 -19 -12 -47 -21 -66c44 2 86 2 98 1s15 -4 15 -16v-250h-270v-62h270v-98h66v98h90v62zM819 717h-209c28 33 65 63 108 89c40 -26 75 -55 101 -89zM875 657l43 21
c-31 65 -79 118 -138 160c56 25 118 43 184 55c-15 14 -33 39 -43 58c-73 -16 -143 -40 -204 -75c-72 40 -156 66 -240 83c-7 -17 -21 -42 -34 -57c74 -12 149 -33 213 -63c-48 -34 -88 -74 -117 -119l8 -3h-53v-58h368z" />
</svg>
