<?xml version="1.0" standalone="no"?>
<!DOCTYPE svg PUBLIC "-//W3C//DTD SVG 1.1//EN" "http://www.w3.org/Graphics/SVG/1.1/DTD/svg11.dtd" >
<svg xmlns="http://www.w3.org/2000/svg" xmlns:xlink="http://www.w3.org/1999/xlink" version="1.1" viewBox="-10 0 1010 1000">
   <path fill="currentColor"
d="M885 500l65 29c-88 125 -246 218 -420 269c-10 -16 -28 -41 -44 -55c165 -44 322 -131 399 -243zM851 277l64 28c-82 103 -217 191 -349 245c-10 -16 -29 -38 -45 -51c125 -46 260 -131 330 -222zM385 187l-62 38c-20 -41 -65 -103 -106 -146l57 -32
c44 42 89 101 111 140zM411 294h-218c25 144 62 253 110 335c50 -95 85 -207 108 -335zM545 294h-60c-31 158 -75 290 -139 400c110 143 260 176 419 176c32 0 163 0 200 -1c-11 18 -23 50 -26 69h-178c-174 0 -335 -35 -455 -184c-58 83 -131 150 -222 205
c-9 -15 -35 -44 -51 -57c97 -53 172 -122 230 -207c-58 -95 -105 -225 -134 -401h-85v-67h507v43c106 -48 213 -125 272 -208l64 27c-74 98 -194 187 -313 240c-7 -11 -19 -24 -29 -35z" />
</svg>
