<?xml version="1.0" standalone="no"?>
<!DOCTYPE svg PUBLIC "-//W3C//DTD SVG 1.1//EN" "http://www.w3.org/Graphics/SVG/1.1/DTD/svg11.dtd" >
<svg xmlns="http://www.w3.org/2000/svg" xmlns:xlink="http://www.w3.org/1999/xlink" version="1.1" viewBox="-10 0 1010 1000">
   <path fill="currentColor"
d="M834 64l68 27c-67 88 -170 174 -261 228c-12 -15 -34 -37 -52 -50c86 -47 188 -129 245 -205zM860 336l67 28c-71 92 -184 184 -283 240c-13 -15 -34 -38 -53 -51c95 -49 207 -136 269 -217zM354 218v-70h-78v70h78zM488 384v-112h-80v112h80zM144 272v112h78v-112h-78z
M354 272h-79v112h79v-112zM215 218v-70h-157v-61h523v61h-166v70h137v220h-469v-220h132zM540 560h-443v-57h443v57zM158 715l58 33c-33 62 -84 125 -135 168c-11 -14 -32 -33 -47 -44c49 -40 98 -103 124 -157zM583 687h-237v195c0 32 -7 50 -31 61c-25 10 -63 9 -126 9
c-2 -17 -11 -42 -20 -58c43 1 83 1 95 0c12 0 15 -2 15 -13v-194h-224v-61h528v61zM396 745l52 -36c41 41 91 98 114 135l-54 39c-22 -37 -70 -96 -112 -138zM886 621l70 28c-79 128 -210 240 -352 308c-12 -17 -32 -42 -51 -56c134 -58 265 -164 333 -280z" />
</svg>
