<?xml version="1.0" standalone="no"?>
<!DOCTYPE svg PUBLIC "-//W3C//DTD SVG 1.1//EN" "http://www.w3.org/Graphics/SVG/1.1/DTD/svg11.dtd" >
<svg xmlns="http://www.w3.org/2000/svg" xmlns:xlink="http://www.w3.org/1999/xlink" version="1.1" viewBox="-10 0 1010 1000">
   <path fill="currentColor"
d="M725 187l-72 20c-9 -38 -29 -103 -47 -152l69 -15c18 47 41 110 50 147zM260 44l71 28c-60 89 -158 184 -247 245c-9 -16 -27 -46 -40 -61c81 -53 172 -138 216 -212zM293 247l67 25c-27 49 -62 98 -99 144v541h-72v-460c-35 37 -72 71 -107 99c-8 -15 -30 -51 -44 -66
c95 -70 194 -176 255 -283zM599 288v101c0 17 0 33 -1 51h300s-1 25 -2 35c-17 291 -32 399 -65 436c-20 23 -39 31 -71 33c-28 3 -78 2 -131 0c-2 -23 -9 -54 -22 -74c52 4 102 5 122 5c18 0 28 -2 37 -12c25 -24 41 -117 54 -352h-227c-14 148 -67 314 -230 449
c-14 -16 -40 -37 -60 -50c199 -164 222 -374 222 -522v-100h-156v-72h581v72h-351z" />
</svg>
