<?xml version="1.0" standalone="no"?>
<!DOCTYPE svg PUBLIC "-//W3C//DTD SVG 1.1//EN" "http://www.w3.org/Graphics/SVG/1.1/DTD/svg11.dtd" >
<svg xmlns="http://www.w3.org/2000/svg" xmlns:xlink="http://www.w3.org/1999/xlink" version="1.1" viewBox="-10 0 1010 1000">
   <path fill="currentColor"
d="M254 46l66 27c-56 85 -150 179 -235 237c-8 -16 -26 -45 -38 -59c77 -51 164 -135 207 -205zM271 264l62 27c-22 41 -50 83 -80 123v542h-68v-459c-37 41 -76 79 -114 111c-6 -17 -25 -55 -38 -73c88 -66 182 -168 238 -271zM586 738l50 -20c35 53 75 124 93 168l-54 25
c-16 -45 -55 -119 -89 -173zM454 425h223c-9 -82 -15 -172 -19 -266c-67 15 -136 27 -204 38v228zM916 494h-165c27 209 71 354 128 357c20 1 32 -51 39 -144c13 14 39 30 52 36c-19 148 -52 191 -90 191c-105 -3 -164 -181 -196 -440h-230v349l111 -27c-1 17 1 44 3 57
c-156 45 -183 56 -198 67c-5 -18 -18 -46 -29 -61c18 -8 45 -29 45 -69v-665c165 -26 354 -66 459 -107l58 55c-52 18 -113 36 -179 52c4 99 10 194 19 280h173v69z" />
</svg>
