<?xml version="1.0" standalone="no"?>
<!DOCTYPE svg PUBLIC "-//W3C//DTD SVG 1.1//EN" "http://www.w3.org/Graphics/SVG/1.1/DTD/svg11.dtd" >
<svg xmlns="http://www.w3.org/2000/svg" xmlns:xlink="http://www.w3.org/1999/xlink" version="1.1" viewBox="-10 0 1010 1000">
   <path fill="currentColor"
d="M246 44l68 26c-56 83 -146 176 -227 236c-9 -15 -29 -40 -40 -54c73 -53 157 -138 199 -208zM270 246l66 24c-25 46 -55 92 -88 137v553h-70v-468c-32 37 -66 69 -98 97c-8 -15 -30 -51 -43 -66c87 -68 177 -172 233 -277zM506 618c32 51 77 97 130 136
c53 -38 98 -84 130 -136h-260zM818 556l47 24c-37 87 -97 158 -169 214c79 47 172 82 273 101c-15 16 -35 43 -45 63c-107 -24 -205 -66 -287 -122c-93 58 -202 99 -311 124c-6 -20 -23 -49 -37 -64c101 -19 202 -55 289 -105c-46 -38 -85 -81 -118 -130
c-38 33 -78 63 -117 87c-9 -13 -34 -42 -49 -55c90 -50 179 -125 239 -212c-139 10 -164 13 -183 20c-3 -13 -14 -48 -22 -66c28 -3 63 -21 110 -47c23 -13 70 -43 127 -81c-151 7 -178 12 -194 18c-2 -16 -13 -49 -21 -68c18 -3 38 -17 62 -37c25 -20 108 -96 165 -174
l69 32c-57 64 -121 127 -183 176l185 -6c45 -33 91 -70 131 -107l64 36c-118 98 -241 181 -361 247l319 -18c-23 -29 -47 -59 -71 -84l57 -31c63 66 133 157 165 217l-61 35c-11 -23 -29 -51 -49 -81l-225 14c-17 29 -38 58 -59 84h248z" />
</svg>
