<?xml version="1.0" standalone="no"?>
<!DOCTYPE svg PUBLIC "-//W3C//DTD SVG 1.1//EN" "http://www.w3.org/Graphics/SVG/1.1/DTD/svg11.dtd" >
<svg xmlns="http://www.w3.org/2000/svg" xmlns:xlink="http://www.w3.org/1999/xlink" version="1.1" viewBox="-10 0 1010 1000">
   <path fill="currentColor"
d="M946 95v67h-592v-67h592zM923 555l-64 24c-29 -52 -88 -129 -150 -198c46 -60 96 -135 122 -182l67 17c-31 55 -76 113 -114 164c53 57 111 129 139 175zM642 199l67 17c-30 54 -73 114 -108 164c48 58 99 130 124 176l-65 23c-25 -52 -78 -129 -135 -198
c46 -60 93 -134 117 -182zM536 557l-65 22c-23 -52 -73 -129 -125 -198c41 -61 87 -135 111 -183l67 17c-30 54 -70 115 -105 165c46 59 94 130 117 177zM246 44l68 25c-59 85 -152 177 -236 237c-10 -15 -29 -41 -42 -54c78 -52 166 -138 210 -208zM270 246l66 23
c-25 44 -54 88 -87 131v555h-69v-474c-37 40 -75 77 -113 107c-7 -15 -30 -50 -42 -66c91 -67 186 -171 245 -276zM673 864h284v67h-656v-67h299v-184h-234v-66h543v66h-236v184z" />
</svg>
