<?xml version="1.0" standalone="no"?>
<!DOCTYPE svg PUBLIC "-//W3C//DTD SVG 1.1//EN" "http://www.w3.org/Graphics/SVG/1.1/DTD/svg11.dtd" >
<svg xmlns="http://www.w3.org/2000/svg" xmlns:xlink="http://www.w3.org/1999/xlink" version="1.1" viewBox="-10 0 1010 1000">
   <path fill="currentColor"
d="M243 47l71 28c-55 85 -147 178 -230 237c-9 -15 -28 -45 -40 -60c75 -52 159 -134 199 -205zM261 263l66 26c-22 44 -51 88 -81 131v537h-72v-445c-32 37 -65 70 -97 99c-7 -16 -27 -54 -41 -71c84 -69 172 -172 225 -277zM515 211v-163h73v907h-73v-245h-187v-68h187
v-153h-156v-67h156v-142h-162v-69h162zM956 635v68h-191v251h-73v-907h73v164h174v69h-174v141h166v68h-166v146h191z" />
</svg>
