<?xml version="1.0" standalone="no"?>
<!DOCTYPE svg PUBLIC "-//W3C//DTD SVG 1.1//EN" "http://www.w3.org/Graphics/SVG/1.1/DTD/svg11.dtd" >
<svg xmlns="http://www.w3.org/2000/svg" xmlns:xlink="http://www.w3.org/1999/xlink" version="1.1" viewBox="-10 0 1010 1000">
   <path fill="currentColor"
d="M629 307l-36 57c-22 -26 -62 -64 -100 -96c-34 74 -77 138 -129 187c-11 -13 -39 -40 -56 -50c94 -82 153 -210 181 -361l72 11c-11 54 -26 106 -43 153c41 32 87 72 111 99zM246 44l68 25c-59 85 -152 177 -236 237c-10 -15 -29 -41 -42 -54c78 -52 166 -138 210 -208z
M270 246l66 23c-25 44 -54 88 -87 131v559h-69v-478c-37 40 -75 77 -113 107c-7 -15 -30 -50 -42 -66c91 -67 186 -171 245 -276zM685 664v208c27 5 57 7 88 7h185c-10 16 -21 48 -23 67h-166c-149 0 -253 -36 -319 -184c-25 77 -63 141 -119 192c-10 -12 -40 -37 -56 -48
c102 -84 137 -219 147 -401l71 5c-3 53 -9 102 -17 147c30 106 77 164 140 194v-418h13c-15 -13 -37 -30 -51 -38c101 -74 157 -195 179 -351l71 9c-9 59 -22 114 -40 163c65 55 139 127 175 174l-51 51c-32 -44 -93 -108 -150 -162c-30 62 -69 113 -116 154h39v168h222v63
h-222z" />
</svg>
