<?xml version="1.0" standalone="no"?>
<!DOCTYPE svg PUBLIC "-//W3C//DTD SVG 1.1//EN" "http://www.w3.org/Graphics/SVG/1.1/DTD/svg11.dtd" >
<svg xmlns="http://www.w3.org/2000/svg" xmlns:xlink="http://www.w3.org/1999/xlink" version="1.1" viewBox="-10 0 1010 1000">
   <path fill="currentColor"
d="M201 43l68 26c-49 79 -127 169 -197 228c-9 -15 -29 -42 -41 -56c64 -51 134 -132 170 -198zM225 257l64 24c-21 38 -45 76 -71 115v559h-68v-471c-30 36 -61 69 -91 97c-6 -16 -27 -52 -39 -69c75 -64 155 -160 205 -255zM525 798l142 -22l2 63c-138 24 -287 48 -393 64
l-17 -68l56 -7v-311h60v303l84 -12v-367h-170v-68h170v-155h-89c-17 29 -34 57 -53 78c-12 -10 -39 -30 -56 -39c48 -54 87 -134 110 -214l66 14c-9 32 -21 64 -34 94h241v67h-119v155h128v68h-128v122h122v64h-122v171zM938 121v607c0 34 -6 54 -28 67
c-20 13 -52 14 -103 14c-2 -19 -12 -49 -21 -68c34 1 63 1 72 0c9 0 13 -3 13 -14v-540h-117v770h-67v-836h251z" />
</svg>
