<?xml version="1.0" standalone="no"?>
<!DOCTYPE svg PUBLIC "-//W3C//DTD SVG 1.1//EN" "http://www.w3.org/Graphics/SVG/1.1/DTD/svg11.dtd" >
<svg xmlns="http://www.w3.org/2000/svg" xmlns:xlink="http://www.w3.org/1999/xlink" version="1.1" viewBox="-10 0 1010 1000">
   <path fill="currentColor"
d="M924 98v303h-280v-65h211v-174h-211v-64h280zM201 43l68 26c-49 79 -127 169 -197 228c-9 -15 -29 -42 -41 -56c64 -51 134 -132 170 -198zM222 242l66 23c-21 41 -45 83 -70 124v566h-68v-468c-28 38 -58 73 -86 102c-8 -14 -31 -50 -44 -65c75 -71 153 -177 202 -282z
M537 159h-151v177h151v-177zM603 760h-217v192h-68v-858h287v306h-219v107h210v65h-210v124h217v64zM898 486l43 12c-23 124 -66 220 -125 294c42 47 93 84 152 108c-16 14 -36 40 -46 59c-58 -28 -108 -68 -150 -118c-54 53 -117 92 -187 120c-8 -18 -25 -45 -40 -59
c70 -24 134 -62 188 -116c-41 -63 -71 -137 -92 -218l55 -12c18 67 44 127 79 180c38 -51 67 -112 87 -185h-243v-63h267z" />
</svg>
