<?xml version="1.0" standalone="no"?>
<!DOCTYPE svg PUBLIC "-//W3C//DTD SVG 1.1//EN" "http://www.w3.org/Graphics/SVG/1.1/DTD/svg11.dtd" >
<svg xmlns="http://www.w3.org/2000/svg" xmlns:xlink="http://www.w3.org/1999/xlink" version="1.1" viewBox="-10 0 1010 1000">
   <path fill="currentColor"
d="M251 46l66 27c-56 86 -149 179 -234 237c-8 -16 -25 -45 -36 -59c76 -51 162 -135 204 -205zM268 264l61 27c-22 41 -49 82 -78 121v544h-68v-460c-37 42 -75 80 -113 111c-7 -16 -25 -55 -37 -72c86 -66 179 -168 235 -271zM597 430l69 -11c12 32 25 70 31 99h230v64
h-325c-3 33 -6 64 -11 93h286s-1 20 -2 30c-13 148 -24 208 -49 233c-16 17 -35 22 -61 24c-24 1 -70 2 -117 -1c-1 -20 -9 -46 -20 -64c45 5 88 5 104 5c17 0 26 -1 33 -8c14 -14 24 -56 33 -156h-221c-30 100 -86 174 -203 223c-8 -17 -29 -42 -44 -55
c153 -60 187 -168 199 -324h-155v-64h248c-5 -27 -15 -62 -25 -88zM788 327h156v158h-73v-98h-441v98h-71v-158h355c18 -37 39 -89 50 -129h-220c15 37 31 84 36 112l-71 17c-5 -31 -19 -83 -35 -120l47 -9h-148v-61h252c-5 -30 -14 -66 -24 -94l70 -10c13 32 24 73 30 104
h225v61h-105l22 4c-18 43 -38 89 -55 125z" />
</svg>
