<?xml version="1.0" standalone="no"?>
<!DOCTYPE svg PUBLIC "-//W3C//DTD SVG 1.1//EN" "http://www.w3.org/Graphics/SVG/1.1/DTD/svg11.dtd" >
<svg xmlns="http://www.w3.org/2000/svg" xmlns:xlink="http://www.w3.org/1999/xlink" version="1.1" viewBox="-10 0 1010 1000">
   <path fill="currentColor"
d="M723 472l18 -41c67 12 140 31 184 50l-24 45c-43 -19 -114 -41 -178 -54zM758 414l-21 -36c43 -10 113 -38 150 -53l27 43c-46 20 -111 37 -156 46zM213 43l67 25c-48 80 -125 170 -197 229c-7 -15 -27 -42 -39 -56c63 -51 134 -132 169 -198zM237 257l64 24
c-22 42 -48 83 -76 123v551h-68v-465c-28 33 -57 65 -85 90c-7 -16 -27 -52 -39 -68c75 -64 155 -160 204 -255zM838 148h-437v100h437v-100zM913 306h-512v85c0 162 -12 399 -100 559c-13 -12 -43 -30 -59 -37c81 -154 89 -368 89 -522v-301h582v216zM709 541h-67v-220h67
v220zM443 525l-16 -50c47 -11 119 -29 189 -49l2 42c-62 22 -125 42 -175 57zM439 365l22 -39c49 8 116 25 154 41l-22 45c-34 -14 -103 -35 -154 -47zM943 768v59h-231v130h-70v-130h-237v-59h237v-86h-128c-13 25 -27 48 -41 67c-12 -8 -42 -21 -58 -27
c36 -44 63 -106 80 -165l64 11c-6 20 -13 39 -20 58h103v-70h70v70h197v56h-197v86h231z" />
</svg>
