<?xml version="1.0" standalone="no"?>
<!DOCTYPE svg PUBLIC "-//W3C//DTD SVG 1.1//EN" "http://www.w3.org/Graphics/SVG/1.1/DTD/svg11.dtd" >
<svg xmlns="http://www.w3.org/2000/svg" xmlns:xlink="http://www.w3.org/1999/xlink" version="1.1" viewBox="-10 0 1010 1000">
   <path fill="currentColor"
d="M195 43l63 26c-47 79 -122 169 -189 228c-8 -14 -26 -42 -38 -56c62 -51 129 -132 164 -198zM218 257l59 25c-19 38 -43 77 -68 114v559h-63v-474c-29 38 -60 71 -89 99c-7 -16 -26 -52 -37 -68c72 -64 149 -160 198 -255zM834 277h-101c-7 23 -15 46 -22 67
c12 85 33 182 66 273c31 -97 47 -212 57 -340zM398 711h127v-79h-127v79zM525 503h-127v76h127v-76zM956 277h-53c-14 169 -39 312 -87 431c38 76 89 144 156 193c-16 11 -40 39 -51 56c-58 -47 -104 -108 -141 -174c-36 66 -84 124 -145 172c-8 -13 -31 -39 -45 -51
c-5 11 -13 19 -26 25c-23 11 -58 11 -109 11c-2 -17 -11 -41 -21 -58c37 1 69 1 78 1c10 -1 13 -4 13 -13v-106h-127v186h-67v-505h263v425c0 13 -1 24 -4 32c69 -51 118 -117 154 -195c-36 -86 -61 -178 -78 -263c-8 19 -18 35 -28 51c-9 -14 -30 -46 -44 -61
c7 -11 14 -21 20 -34l-45 18c-4 -12 -9 -26 -16 -42c-185 26 -213 31 -230 39c-4 -13 -15 -43 -23 -59c13 -2 24 -14 36 -31c9 -14 36 -61 56 -112h-82v-62h131c-12 -29 -27 -65 -42 -92l66 -15c19 33 39 76 52 107h122v62h-175c-19 47 -45 93 -69 130l133 -16
c-12 -23 -24 -45 -36 -65l55 -19c27 44 58 100 75 140c46 -93 78 -216 97 -339l69 13c-10 53 -23 106 -36 157h204v63z" />
</svg>
