<?xml version="1.0" standalone="no"?>
<!DOCTYPE svg PUBLIC "-//W3C//DTD SVG 1.1//EN" "http://www.w3.org/Graphics/SVG/1.1/DTD/svg11.dtd" >
<svg xmlns="http://www.w3.org/2000/svg" xmlns:xlink="http://www.w3.org/1999/xlink" version="1.1" viewBox="-10 0 1010 1000">
   <path fill="currentColor"
d="M542 266v-78h-166v78h166zM542 396v-78h-166v78h166zM605 133v318h-289v-318h82c10 -30 20 -66 25 -91l72 8c-11 28 -21 58 -32 83h142zM214 43l66 23c-46 80 -118 169 -184 228c-9 -13 -26 -40 -38 -53c59 -51 123 -133 156 -198zM233 257l61 24c-19 40 -44 81 -70 120
v557h-67v-466c-25 31 -52 60 -77 84c-6 -13 -27 -49 -39 -64c71 -65 146 -161 192 -255zM431 668h172s-1 18 -2 28c-10 145 -20 203 -40 224c-13 15 -27 21 -49 22c-17 2 -50 2 -81 0c-1 -18 -7 -41 -16 -57c31 4 58 4 69 4c12 0 19 -1 26 -9c10 -12 19 -53 27 -155h-114
c-16 104 -53 180 -134 232c-8 -15 -28 -37 -41 -46c98 -60 118 -164 125 -314h-88v-61h151c-10 -23 -22 -49 -32 -69l61 -14c14 25 30 57 41 83h124v61h-195c-1 24 -2 49 -4 71zM851 313h-119c-2 10 -5 19 -7 28c14 101 36 197 64 282c31 -90 50 -196 62 -310zM957 313h-48
c-15 149 -42 285 -85 397c36 80 81 146 139 191c-16 13 -39 38 -50 57c-50 -44 -90 -103 -124 -173c-37 72 -84 131 -142 172c-11 -18 -32 -41 -49 -53c68 -44 120 -111 159 -198c-30 -79 -51 -168 -68 -264c-12 28 -26 55 -41 79c-10 -11 -34 -36 -49 -47
c66 -101 99 -262 117 -430l64 8c-7 67 -18 132 -31 194h208v67z" />
</svg>
