<?xml version="1.0" standalone="no"?>
<!DOCTYPE svg PUBLIC "-//W3C//DTD SVG 1.1//EN" "http://www.w3.org/Graphics/SVG/1.1/DTD/svg11.dtd" >
<svg xmlns="http://www.w3.org/2000/svg" xmlns:xlink="http://www.w3.org/1999/xlink" version="1.1" viewBox="-10 0 1010 1000">
   <path fill="currentColor"
d="M621 112v208h-327v-209h54v148h77v-215h62v215h78v-147h56zM191 43l69 25c-47 79 -120 170 -187 229c-8 -14 -27 -42 -39 -56c59 -51 124 -132 157 -198zM213 242l65 23c-20 45 -45 91 -72 135v555h-65v-458c-25 33 -50 64 -74 90c-8 -16 -31 -49 -45 -65
c72 -70 146 -177 191 -280zM329 764l53 12c-21 44 -53 100 -88 133l-48 -36c31 -27 63 -70 83 -109zM605 714l-113 10v167c0 28 -5 41 -25 50s-49 9 -94 9c-3 -15 -12 -35 -21 -49c31 1 59 1 68 0c9 0 12 -3 12 -11v-160c-115 11 -138 15 -153 21c-3 -12 -11 -43 -18 -58
c19 -2 43 -14 70 -33c16 -10 52 -35 92 -68c-99 9 -118 13 -130 18c-4 -13 -13 -43 -21 -58c14 -3 27 -9 42 -21c14 -11 62 -53 94 -98h-129v-61h328v61h-184l48 23c-29 33 -63 65 -95 90l110 -7c17 -15 34 -31 48 -47l51 35c-61 56 -127 107 -191 150l186 -15
c-10 -17 -20 -34 -30 -50l45 -22c32 46 66 108 80 148l-49 26c-5 -15 -12 -31 -21 -50zM528 775l46 -21c30 33 59 80 71 112l-49 24c-11 -31 -40 -80 -68 -115zM850 299h-106c-2 9 -5 17 -7 26c13 103 32 203 58 291c29 -91 44 -197 55 -317zM958 299h-46
c-15 161 -38 295 -84 407c37 86 85 156 148 197c-16 12 -39 37 -48 55c-56 -41 -101 -102 -136 -176c-38 69 -87 128 -152 178c-8 -13 -29 -39 -42 -51c73 -52 125 -120 164 -203c-29 -81 -50 -174 -65 -274c-14 29 -28 56 -44 81c-8 -14 -30 -44 -44 -58
c64 -100 100 -254 120 -412l66 11c-9 62 -21 125 -34 184h197v61z" />
</svg>
