<?xml version="1.0" standalone="no"?>
<!DOCTYPE svg PUBLIC "-//W3C//DTD SVG 1.1//EN" "http://www.w3.org/Graphics/SVG/1.1/DTD/svg11.dtd" >
<svg xmlns="http://www.w3.org/2000/svg" xmlns:xlink="http://www.w3.org/1999/xlink" version="1.1" viewBox="-10 0 1010 1000">
   <path fill="currentColor"
d="M945 127v60h-639v-60h289c-10 -25 -24 -51 -36 -73l62 -18c19 27 37 64 47 91h277zM210 44l68 25c-49 80 -128 170 -199 228c-9 -14 -28 -42 -41 -55c65 -51 136 -133 172 -198zM234 257l64 25c-20 37 -44 75 -70 112v561h-68v-473c-31 36 -63 70 -94 98
c-6 -15 -27 -52 -39 -68c76 -64 157 -160 207 -255zM535 590v53h159v-53h-159zM535 492v50h159v-50h-159zM412 271v76h119v-76h-119zM709 271v78h122v-78h-122zM874 706l48 37c-40 29 -94 57 -138 77c50 37 112 63 180 79c-14 14 -34 38 -43 56
c-143 -40 -252 -131 -310 -253c-32 26 -71 51 -114 72v95l163 -31c0 18 2 44 3 58c-187 41 -215 50 -232 60c-6 -14 -21 -38 -33 -48c15 -10 40 -35 40 -79v-28c-46 19 -95 36 -140 50c-7 -13 -26 -39 -39 -51c93 -23 197 -58 270 -103h-232v-54h172v-53h-111v-48h111v-50
h-141v-53h141v-49h-114v-162h235v162h-55v49h159v-48h-43v-163h240v163h-130v48h155v53h-155v50h135v48h-135v53h185v54h-273c17 32 41 62 69 88c44 -22 99 -55 132 -79z" />
</svg>
