<?xml version="1.0" standalone="no"?>
<!DOCTYPE svg PUBLIC "-//W3C//DTD SVG 1.1//EN" "http://www.w3.org/Graphics/SVG/1.1/DTD/svg11.dtd" >
<svg xmlns="http://www.w3.org/2000/svg" xmlns:xlink="http://www.w3.org/1999/xlink" version="1.1" viewBox="-10 0 1010 1000">
   <path fill="currentColor"
d="M344 127l49 -49c93 64 212 158 269 221l-53 55c-55 -62 -171 -160 -265 -227zM759 396l69 -27c58 119 113 272 134 375l-73 29c-20 -103 -74 -260 -130 -377zM138 395l72 14c-16 117 -47 286 -88 392l-74 -31c43 -102 76 -258 90 -375zM297 320h75v493c0 46 12 55 69 55
h191c62 0 71 -35 79 -207c18 14 49 27 70 33c-11 189 -34 244 -145 244h-201c-108 0 -138 -27 -138 -126v-492z" />
</svg>
