<?xml version="1.0" standalone="no"?>
<!DOCTYPE svg PUBLIC "-//W3C//DTD SVG 1.1//EN" "http://www.w3.org/Graphics/SVG/1.1/DTD/svg11.dtd" >
<svg xmlns="http://www.w3.org/2000/svg" xmlns:xlink="http://www.w3.org/1999/xlink" version="1.1" viewBox="-10 0 1010 1000">
   <path fill="currentColor"
d="M94 512l-61 -22c26 -65 44 -174 51 -255l59 8c-5 82 -23 196 -49 269zM183 956v-913h72v913h-72zM264 227l52 -24c31 59 64 135 76 181l-55 28c-11 -48 -43 -127 -73 -185zM531 852h271c55 0 67 -33 73 -203c19 10 47 21 67 25c-11 211 -41 250 -143 250h-263
c-120 0 -175 -45 -175 -119c0 -64 19 -137 419 -597h-389v-70h463l17 -3l47 25c-2 4 -6 9 -10 13c-448 505 -474 576 -474 624c0 38 39 55 97 55z" />
</svg>
