<?xml version="1.0" standalone="no"?>
<!DOCTYPE svg PUBLIC "-//W3C//DTD SVG 1.1//EN" "http://www.w3.org/Graphics/SVG/1.1/DTD/svg11.dtd" >
<svg xmlns="http://www.w3.org/2000/svg" xmlns:xlink="http://www.w3.org/1999/xlink" version="1.1" viewBox="-10 0 1010 1000">
   <path fill="currentColor"
d="M88 514l-54 -24c36 -60 52 -168 54 -255l56 8c-1 90 -16 203 -56 271zM190 955v-912h72v912h-72zM276 226l48 -21c33 57 66 133 78 179l-51 26c-12 -48 -43 -126 -75 -184zM961 439v73h-266v444h-74v-444h-267v-73h267v-251h-220v-72h532v72h-238v251h266z" />
</svg>
