<?xml version="1.0" standalone="no"?>
<!DOCTYPE svg PUBLIC "-//W3C//DTD SVG 1.1//EN" "http://www.w3.org/Graphics/SVG/1.1/DTD/svg11.dtd" >
<svg xmlns="http://www.w3.org/2000/svg" xmlns:xlink="http://www.w3.org/1999/xlink" version="1.1" viewBox="-10 0 1010 1000">
   <path fill="currentColor"
d="M88 511l-57 -20c26 -66 45 -175 52 -255l55 8c-5 80 -24 195 -50 267zM173 956v-912h72v912h-72zM508 560v-154h70v155c0 135 -15 282 -144 397c-13 -14 -43 -32 -63 -42c123 -105 137 -236 137 -356zM752 956v-550h71v550h-71zM640 40l72 12c-4 12 -9 25 -15 38
c57 117 161 231 266 287c-17 14 -39 39 -51 58c-93 -58 -185 -160 -249 -272c-54 103 -136 204 -255 282c-10 -17 -30 -42 -45 -52l-45 20c-10 -48 -39 -126 -67 -186l51 -21c28 57 59 132 70 179c145 -93 231 -230 268 -345z" />
</svg>
