<?xml version="1.0" standalone="no"?>
<!DOCTYPE svg PUBLIC "-//W3C//DTD SVG 1.1//EN" "http://www.w3.org/Graphics/SVG/1.1/DTD/svg11.dtd" >
<svg xmlns="http://www.w3.org/2000/svg" xmlns:xlink="http://www.w3.org/1999/xlink" version="1.1" viewBox="-10 0 1010 1000">
   <path fill="currentColor"
d="M405 218h-131c-48 64 -101 119 -155 162c-14 -12 -44 -36 -62 -47c97 -68 187 -176 240 -290l72 20c-14 30 -31 60 -49 88h556s-1 23 -2 33c-17 257 -32 353 -62 386c-19 22 -38 29 -68 31c-25 3 -73 2 -121 0c-1 -22 -10 -50 -21 -70c48 5 92 5 111 5c17 0 26 -1 35 -12
c22 -21 36 -102 50 -306h-105c-62 164 -162 298 -285 388c-10 -14 -39 -38 -55 -50c116 -77 208 -195 264 -338h-132c-70 137 -178 251 -292 327c-11 -13 -38 -40 -54 -52c108 -64 206 -162 266 -275zM430 629l60 -30c49 47 105 113 132 157l-64 34
c-24 -44 -80 -112 -128 -161zM110 899l-65 -29c41 -60 74 -154 93 -227l63 22c-20 75 -50 173 -91 234zM412 876h217c53 0 62 -16 67 -122c17 12 47 23 68 28c-10 129 -34 161 -129 161h-227c-113 0 -143 -22 -143 -102v-201h73v200c0 30 11 36 74 36zM754 665l67 -22
c48 68 100 159 121 218l-72 25c-18 -59 -68 -153 -116 -221z" />
</svg>
