<?xml version="1.0" standalone="no"?>
<!DOCTYPE svg PUBLIC "-//W3C//DTD SVG 1.1//EN" "http://www.w3.org/Graphics/SVG/1.1/DTD/svg11.dtd" >
<svg xmlns="http://www.w3.org/2000/svg" xmlns:xlink="http://www.w3.org/1999/xlink" version="1.1" viewBox="-10 0 1010 1000">
   <path fill="currentColor"
d="M89 512l-55 -22c29 -62 46 -172 50 -254l55 7c-3 85 -20 198 -50 269zM171 956v-913h70v913h-70zM954 227h-470c-28 52 -60 98 -92 135c-12 -11 -39 -32 -57 -44c9 28 16 56 19 76l-54 24c-6 -48 -28 -126 -53 -185l49 -18c15 32 29 67 38 101c65 -67 118 -169 149 -272
l71 17c-11 34 -24 68 -39 100h439v66zM867 369h-424v-63h424v63zM351 452h485c1 247 7 437 58 437c15 0 19 -58 21 -136c13 16 33 33 47 43c-6 118 -19 162 -74 163c-106 -1 -119 -176 -123 -440h-414v-67z" />
</svg>
