<?xml version="1.0" standalone="no"?>
<!DOCTYPE svg PUBLIC "-//W3C//DTD SVG 1.1//EN" "http://www.w3.org/Graphics/SVG/1.1/DTD/svg11.dtd" >
<svg xmlns="http://www.w3.org/2000/svg" xmlns:xlink="http://www.w3.org/1999/xlink" version="1.1" viewBox="-10 0 1010 1000">
   <path fill="currentColor"
d="M98 511l-58 -19c22 -68 38 -178 44 -256l56 8c-3 78 -20 193 -42 267zM175 956v-913h71v913h-71zM260 207l54 -16c20 60 41 137 47 182l-58 20c-6 -47 -24 -125 -43 -186zM957 273h-305v140h278v68h-278v151h287v69h-287v256h-72v-684h-64c-31 77 -67 148 -106 202
c-10 -14 -37 -41 -53 -55c70 -91 124 -234 157 -377l70 15c-12 49 -26 98 -42 145h415v70z" />
</svg>
