<?xml version="1.0" standalone="no"?>
<!DOCTYPE svg PUBLIC "-//W3C//DTD SVG 1.1//EN" "http://www.w3.org/Graphics/SVG/1.1/DTD/svg11.dtd" >
<svg xmlns="http://www.w3.org/2000/svg" xmlns:xlink="http://www.w3.org/1999/xlink" version="1.1" viewBox="-10 0 1010 1000">
   <path fill="currentColor"
d="M88 514l-54 -24c36 -60 52 -168 54 -255l56 8c-1 90 -16 203 -56 271zM190 955v-912h72v912h-72zM402 384l-51 26c-12 -48 -43 -126 -75 -184l48 -21c33 57 66 133 78 179zM518 670v181h282v-181h-282zM800 177h-282v176h282v-176zM800 602v-180h-282v180h282zM875 851
h90v71h-635v-71h115v-744h430v744z" />
</svg>
