<?xml version="1.0" standalone="no"?>
<!DOCTYPE svg PUBLIC "-//W3C//DTD SVG 1.1//EN" "http://www.w3.org/Graphics/SVG/1.1/DTD/svg11.dtd" >
<svg xmlns="http://www.w3.org/2000/svg" xmlns:xlink="http://www.w3.org/1999/xlink" version="1.1" viewBox="-10 0 1010 1000">
   <path fill="currentColor"
d="M179 43h70v911h-70v-911zM83 236l58 7c-5 81 -23 196 -49 268l-60 -21c26 -66 44 -174 51 -254zM258 227l54 -24c31 57 65 133 77 179l-58 30c-12 -49 -43 -127 -73 -185zM343 847h600v70h-600v-70zM489 450v199h309v-199h-309zM489 185v195h309v-195h-309zM417 115h455
v604h-455v-604z" />
</svg>
