<?xml version="1.0" standalone="no"?>
<!DOCTYPE svg PUBLIC "-//W3C//DTD SVG 1.1//EN" "http://www.w3.org/Graphics/SVG/1.1/DTD/svg11.dtd" >
<svg xmlns="http://www.w3.org/2000/svg" xmlns:xlink="http://www.w3.org/1999/xlink" version="1.1" viewBox="-10 0 1010 1000">
   <path fill="currentColor"
d="M888 292l-55 45c-14 -18 -34 -40 -56 -61c-537 21 -589 23 -624 35c-4 -15 -15 -51 -24 -71c21 -3 44 -15 74 -35c31 -18 132 -89 204 -165l69 36c-64 59 -134 113 -203 157l439 -15c-43 -37 -91 -72 -135 -101l54 -39c96 59 204 150 257 214zM735 544v-126h-474v126h474
zM808 357v249h-617v-249h617zM626 747l-53 46c-41 -41 -123 -102 -190 -142l50 -40c67 38 150 95 193 136zM126 931l-66 -32c36 -55 69 -143 87 -210l64 26c-20 66 -50 158 -85 216zM417 874h222c51 0 60 -13 65 -99c17 12 47 23 68 26c-11 114 -34 141 -127 141h-231
c-117 0 -147 -21 -147 -98v-154h73v153c0 26 11 31 77 31zM768 709l64 -25c42 65 94 151 118 203l-68 31c-23 -54 -72 -143 -114 -209z" />
</svg>
