<?xml version="1.0" standalone="no"?>
<!DOCTYPE svg PUBLIC "-//W3C//DTD SVG 1.1//EN" "http://www.w3.org/Graphics/SVG/1.1/DTD/svg11.dtd" >
<svg xmlns="http://www.w3.org/2000/svg" xmlns:xlink="http://www.w3.org/1999/xlink" version="1.1" viewBox="-10 0 1010 1000">
   <path fill="currentColor"
d="M93 511l-60 -21c26 -66 43 -174 51 -255l58 8c-6 81 -24 195 -49 268zM179 956v-913h73v913h-73zM797 620h-300v226h300v-226zM428 956v-403h441v401h-72v-41h-300v43h-69zM713 216l59 -30c72 87 152 202 188 278l-63 36c-9 -21 -22 -47 -38 -73c-397 29 -444 34 -473 46
c-3 -16 -16 -50 -24 -70l-32 16c-12 -49 -40 -132 -66 -192l56 -24c28 58 57 134 69 182c12 -11 24 -28 38 -48c26 -34 110 -168 162 -295l76 23c-55 114 -121 228 -187 318l341 -22c-33 -50 -71 -102 -106 -145z" />
</svg>
