<?xml version="1.0" standalone="no"?>
<!DOCTYPE svg PUBLIC "-//W3C//DTD SVG 1.1//EN" "http://www.w3.org/Graphics/SVG/1.1/DTD/svg11.dtd" >
<svg xmlns="http://www.w3.org/2000/svg" xmlns:xlink="http://www.w3.org/1999/xlink" version="1.1" viewBox="-10 0 1010 1000">
   <path fill="currentColor"
d="M82 513l-51 -23c34 -60 50 -168 52 -255l52 7c0 90 -16 204 -53 271zM181 955v-912h71v912h-71zM950 560h-250c48 154 136 275 271 331c-17 15 -40 45 -52 65c-124 -62 -210 -174 -262 -322c-36 121 -116 237 -291 322c-10 -15 -34 -43 -51 -58
c197 -85 264 -212 286 -338h-250v-68h258c3 -34 3 -67 3 -99v-95h-137c-18 46 -39 86 -63 119c-14 -10 -46 -28 -65 -36l1 -1l-16 8c-10 -46 -40 -122 -70 -178l46 -21c27 47 53 106 67 151c40 -68 66 -156 82 -249l72 12c-8 44 -18 87 -30 127h113v-185h73v185h232v68h-232
v95c0 32 -1 65 -3 99h268v68z" />
</svg>
