<?xml version="1.0" standalone="no"?>
<!DOCTYPE svg PUBLIC "-//W3C//DTD SVG 1.1//EN" "http://www.w3.org/Graphics/SVG/1.1/DTD/svg11.dtd" >
<svg xmlns="http://www.w3.org/2000/svg" xmlns:xlink="http://www.w3.org/1999/xlink" version="1.1" viewBox="-10 0 1010 1000">
   <path fill="currentColor"
d="M737 192l-48 62c-44 -49 -139 -113 -221 -152l45 -55c81 37 178 97 224 145zM90 510l-58 -20c27 -66 45 -175 52 -255l56 8c-6 80 -24 195 -50 267zM170 956v-913h72v913h-72zM367 372l-53 27c-11 -44 -41 -118 -69 -173l51 -22c29 54 61 125 71 168zM340 710l-62 -33
c52 -71 79 -189 89 -291l65 15c-13 107 -37 233 -92 309zM610 875h139c40 0 46 -29 51 -164c18 13 47 26 67 32c-8 154 -29 201 -113 201h-153c-88 0 -113 -26 -113 -118v-39c-55 53 -115 100 -178 142c-11 -15 -40 -43 -56 -56c87 -53 164 -117 234 -190v-413h73v329
c113 -143 199 -317 264 -513l70 17c-81 241 -190 446 -334 608v115c0 41 9 49 49 49zM774 407l68 -22c55 92 103 212 120 292l-72 24c-15 -80 -63 -202 -116 -294z" />
</svg>
