<?xml version="1.0" standalone="no"?>
<!DOCTYPE svg PUBLIC "-//W3C//DTD SVG 1.1//EN" "http://www.w3.org/Graphics/SVG/1.1/DTD/svg11.dtd" >
<svg xmlns="http://www.w3.org/2000/svg" xmlns:xlink="http://www.w3.org/1999/xlink" version="1.1" viewBox="-10 0 1010 1000">
   <path fill="currentColor"
d="M832 139l-44 52c-36 -31 -109 -74 -166 -102l41 -46c58 25 132 66 169 96zM461 583v-299c-91 128 -232 241 -367 301c-11 -17 -33 -45 -50 -60c127 -49 262 -149 347 -259h-330v-70h400v-153h73v153h407v70h-339c85 106 221 202 351 249c-18 14 -39 42 -51 61
c-135 -57 -278 -170 -368 -296v303h-73zM401 639l48 -45c63 27 136 74 172 113l-51 49c-34 -39 -106 -87 -169 -117zM98 920l-60 -41c69 -49 114 -130 138 -210l64 23c-27 85 -67 173 -142 228zM439 877h182c43 0 50 -14 55 -108c16 12 46 23 66 27c-9 119 -32 149 -116 149
h-192c-105 0 -131 -22 -131 -99v-186h73v185c0 27 10 32 63 32zM714 693l61 -35c76 61 155 150 187 217l-65 38c-30 -65 -106 -156 -183 -220z" />
</svg>
