<?xml version="1.0" standalone="no"?>
<!DOCTYPE svg PUBLIC "-//W3C//DTD SVG 1.1//EN" "http://www.w3.org/Graphics/SVG/1.1/DTD/svg11.dtd" >
<svg xmlns="http://www.w3.org/2000/svg" xmlns:xlink="http://www.w3.org/1999/xlink" version="1.1" viewBox="-10 0 1010 1000">
   <path fill="currentColor"
d="M582 292v-131c-72 10 -146 18 -215 25c-3 -17 -13 -42 -20 -58c170 -17 368 -47 475 -83l64 52c-65 21 -146 38 -231 52v143h291v66h-291v149h244v66h-550v-66h233v-149h-279v-66h279zM414 648l49 -44c65 33 145 84 183 123l-50 49c-38 -39 -116 -93 -182 -128zM118 922
l-66 -35c53 -56 93 -143 115 -216l66 25c-25 74 -63 167 -115 226zM275 43l66 23c-25 46 -54 92 -86 135v406h-72v-320c-34 38 -71 73 -106 102c-9 -13 -32 -44 -48 -58c95 -69 189 -178 246 -288zM435 877h204c48 0 56 -15 60 -111c17 12 48 23 68 27
c-9 121 -33 151 -123 151h-214c-110 0 -138 -21 -138 -99v-171h73v170c0 27 10 33 70 33zM744 677l66 -26c58 73 125 171 153 237l-70 29c-26 -64 -91 -166 -149 -240z" />
</svg>
