<?xml version="1.0" standalone="no"?>
<!DOCTYPE svg PUBLIC "-//W3C//DTD SVG 1.1//EN" "http://www.w3.org/Graphics/SVG/1.1/DTD/svg11.dtd" >
<svg xmlns="http://www.w3.org/2000/svg" xmlns:xlink="http://www.w3.org/1999/xlink" version="1.1" viewBox="-10 0 1010 1000">
   <path fill="currentColor"
d="M82 513l-51 -23c34 -60 50 -168 52 -255l52 7c0 90 -16 204 -53 271zM181 955v-912h71v912h-71zM262 226l46 -21c33 58 66 134 76 181l-49 25c-10 -48 -42 -126 -73 -185zM839 580h-332v102h332v-102zM507 847h332v-104h-332v104zM436 956v-440h477v433h-74v-39h-332v46
h-71zM577 371h243c56 0 65 -16 71 -115c18 11 47 22 69 27c-11 124 -36 155 -135 155h-250c-119 0 -151 -22 -151 -108v-287h72v150c126 -26 260 -59 339 -94l57 55c-106 41 -259 76 -396 100v75c0 34 12 42 81 42z" />
</svg>
