<?xml version="1.0" standalone="no"?>
<!DOCTYPE svg PUBLIC "-//W3C//DTD SVG 1.1//EN" "http://www.w3.org/Graphics/SVG/1.1/DTD/svg11.dtd" >
<svg xmlns="http://www.w3.org/2000/svg" xmlns:xlink="http://www.w3.org/1999/xlink" version="1.1" viewBox="-10 0 1010 1000">
   <path fill="currentColor"
d="M180 43h72v913h-72v-913zM84 235l59 8c-5 81 -23 196 -49 268l-61 -21c26 -66 44 -175 51 -255zM262 226l53 -23c29 55 61 130 74 174l-57 29c-12 -46 -43 -123 -70 -180zM384 97h555v68h-555v-68zM353 833h601v69h-601v-69zM503 540v140h303v-140h-303zM503 339v138h303
v-138h-303zM432 273h447v473h-447v-473z" />
</svg>
