<?xml version="1.0" standalone="no"?>
<!DOCTYPE svg PUBLIC "-//W3C//DTD SVG 1.1//EN" "http://www.w3.org/Graphics/SVG/1.1/DTD/svg11.dtd" >
<svg xmlns="http://www.w3.org/2000/svg" xmlns:xlink="http://www.w3.org/1999/xlink" version="1.1" viewBox="-10 0 1010 1000">
   <path fill="currentColor"
d="M81 514l-50 -24c34 -60 50 -167 52 -254l51 6c0 91 -17 203 -53 272zM171 956v-913h70v913h-70zM697 630v-266h-132v266h132zM507 305h250v385h-250v-385zM420 820h427v-647h-427v647zM351 103h569v845h-73v-55h-427v63h-69v-557l-39 18c-8 -50 -35 -132 -62 -193l46 -18
c22 44 42 97 55 142v-245z" />
</svg>
