<?xml version="1.0" standalone="no"?>
<!DOCTYPE svg PUBLIC "-//W3C//DTD SVG 1.1//EN" "http://www.w3.org/Graphics/SVG/1.1/DTD/svg11.dtd" >
<svg xmlns="http://www.w3.org/2000/svg" xmlns:xlink="http://www.w3.org/1999/xlink" version="1.1" viewBox="-10 0 1010 1000">
   <path fill="currentColor"
d="M99 510l-56 -21c27 -64 45 -173 49 -256l55 9c-3 83 -20 196 -48 268zM169 956v-913h69v913h-69zM362 393l-56 25c-7 -50 -33 -131 -61 -194l53 -20c29 62 56 141 64 189zM941 263h-394c-36 230 -98 417 -213 552c-11 -13 -39 -39 -55 -51c109 -118 166 -291 199 -501
h-130v-68h139c7 -49 12 -100 17 -153l70 6c-5 51 -10 100 -17 147h384v68zM865 392l59 13c-19 90 -50 185 -84 248c-11 -9 -38 -22 -53 -27c34 -60 62 -149 78 -234zM587 400l57 10c-15 93 -41 186 -77 248c-10 -9 -34 -24 -49 -31c36 -58 57 -143 69 -227zM702 298l63 3
c-4 114 -12 213 -29 297c36 137 108 249 220 298c-16 13 -36 38 -47 56c-92 -48 -158 -136 -200 -249c-42 122 -114 205 -242 256c-9 -20 -28 -46 -42 -61c222 -79 264 -277 277 -600z" />
</svg>
