<?xml version="1.0" standalone="no"?>
<!DOCTYPE svg PUBLIC "-//W3C//DTD SVG 1.1//EN" "http://www.w3.org/Graphics/SVG/1.1/DTD/svg11.dtd" >
<svg xmlns="http://www.w3.org/2000/svg" xmlns:xlink="http://www.w3.org/1999/xlink" version="1.1" viewBox="-10 0 1010 1000">
   <path fill="currentColor"
d="M90 509l-51 -18c22 -68 38 -177 45 -256l49 7c-3 78 -19 193 -43 267zM162 956v-913h70v913h-70zM243 221l50 -14c22 64 43 148 49 195l-54 20c-7 -51 -26 -136 -45 -201zM838 831v-491h72v615h-72v-54h-472v-558h72v488h400zM806 726l-54 43c-24 -41 -61 -94 -103 -149
c-43 70 -93 131 -148 180c-10 -13 -37 -39 -51 -50c59 -49 111 -112 156 -184c-46 -56 -95 -112 -142 -160l49 -37c42 41 85 89 126 137c33 -64 60 -131 81 -203l66 16c-26 86 -61 167 -101 241c50 60 94 120 121 166zM683 196h251v71h-599v-71h269
c-18 -40 -43 -90 -66 -130l64 -23c29 48 63 111 81 153z" />
</svg>
