<?xml version="1.0" standalone="no"?>
<!DOCTYPE svg PUBLIC "-//W3C//DTD SVG 1.1//EN" "http://www.w3.org/Graphics/SVG/1.1/DTD/svg11.dtd" >
<svg xmlns="http://www.w3.org/2000/svg" xmlns:xlink="http://www.w3.org/1999/xlink" version="1.1" viewBox="-10 0 1010 1000">
   <path fill="currentColor"
d="M118 915l-67 -29c41 -59 80 -148 101 -212l64 25c-26 65 -61 156 -98 216zM275 431l66 21c-54 67 -143 130 -220 169c-13 -13 -39 -37 -55 -49c78 -34 162 -85 209 -141zM414 874h220c52 0 61 -15 66 -113c17 11 48 22 69 26c-11 123 -34 153 -130 153h-229
c-116 0 -146 -20 -146 -98v-175h74v175c0 27 11 32 76 32zM610 776l-60 35c-26 -46 -85 -118 -138 -168l57 -31c54 49 115 117 141 164zM920 573l-59 40c-47 -43 -144 -108 -223 -149l54 -35c78 38 177 100 228 144zM756 683l65 -22c47 68 93 159 110 220l-70 26
c-15 -59 -59 -152 -105 -224zM315 229h375c-72 -32 -138 -70 -191 -111c-54 41 -116 79 -184 111zM502 31l65 28c-8 8 -15 16 -24 23c94 71 266 135 418 162c-18 14 -40 41 -51 59c-62 -14 -127 -35 -190 -61v44h-184v75h356v59h-356v122c0 38 -8 53 -36 63
c-29 10 -71 10 -138 10c-5 -18 -15 -42 -24 -59c48 1 95 1 107 0c14 0 18 -3 18 -15v-121h-356v-59h356v-75h-179v-42c-65 28 -131 53 -198 72c-11 -16 -30 -41 -48 -57c173 -42 364 -125 464 -228z" />
</svg>
