<?xml version="1.0" standalone="no"?>
<!DOCTYPE svg PUBLIC "-//W3C//DTD SVG 1.1//EN" "http://www.w3.org/Graphics/SVG/1.1/DTD/svg11.dtd" >
<svg xmlns="http://www.w3.org/2000/svg" xmlns:xlink="http://www.w3.org/1999/xlink" version="1.1" viewBox="-10 0 1010 1000">
   <path fill="currentColor"
d="M98 511l-60 -21c26 -65 45 -174 52 -254l57 8c-5 81 -23 196 -49 267zM176 956v-913h71v913h-71zM383 392l-53 28c-14 -51 -46 -135 -76 -198l50 -22c30 63 65 144 79 192zM801 658h-307v182h307v-182zM421 959v-368h455v364h-75v-48h-307v52h-73zM778 229h-261
c33 56 78 107 132 150c53 -42 97 -91 129 -150zM947 229h-88c-37 76 -89 139 -152 191c75 47 163 82 261 101c-17 15 -37 46 -47 65c-103 -24 -197 -66 -275 -122c-86 57 -189 98 -302 128c-7 -17 -27 -49 -40 -65c107 -24 205 -59 286 -108c-61 -54 -111 -118 -148 -190
h-96v-68h282c-16 -32 -40 -72 -62 -101l59 -24c32 38 64 89 80 125h242v68z" />
</svg>
