<?xml version="1.0" standalone="no"?>
<!DOCTYPE svg PUBLIC "-//W3C//DTD SVG 1.1//EN" "http://www.w3.org/Graphics/SVG/1.1/DTD/svg11.dtd" >
<svg xmlns="http://www.w3.org/2000/svg" xmlns:xlink="http://www.w3.org/1999/xlink" version="1.1" viewBox="-10 0 1010 1000">
   <path fill="currentColor"
d="M797 266v-120h-306v120h306zM868 82v248h-445v-248h445zM97 512l-60 -22c23 -65 37 -175 40 -254l58 6c-1 82 -14 197 -38 270zM172 955v-912h70v912h-70zM259 221l51 -23c29 60 59 137 71 183l-55 27c-11 -48 -40 -127 -67 -187zM612 469h-153v145h153v-145zM836 614
v-145h-156v145h156zM546 868h267c59 0 69 -19 75 -117c18 12 48 24 68 28c-12 123 -36 157 -139 157h-272c-121 0 -157 -24 -157 -120v-412h518v275h-447v137c0 42 14 52 87 52z" />
</svg>
