<?xml version="1.0" standalone="no"?>
<!DOCTYPE svg PUBLIC "-//W3C//DTD SVG 1.1//EN" "http://www.w3.org/Graphics/SVG/1.1/DTD/svg11.dtd" >
<svg xmlns="http://www.w3.org/2000/svg" xmlns:xlink="http://www.w3.org/1999/xlink" version="1.1" viewBox="-10 0 1010 1000">
   <path fill="currentColor"
d="M107 915l-60 -37c41 -47 71 -125 87 -190l64 22c-18 69 -45 153 -91 205zM881 560v60h-753v-534h738v59h-668v415h569c-55 -35 -156 -87 -240 -126c-42 45 -115 88 -241 122c-9 -15 -28 -38 -44 -51c130 -30 198 -69 233 -108h-245v-53h276c6 -18 7 -34 7 -49v-26h-154
c-20 24 -43 46 -65 63c-12 -9 -41 -25 -57 -33c54 -37 100 -89 124 -145l63 15c-8 15 -16 31 -25 47h402v53h-220v27c0 15 -1 31 -5 48h259v53h-257c83 36 182 85 238 119l-41 44h106zM601 796l-62 30c-15 -47 -58 -118 -101 -169l58 -27c45 50 90 118 105 166zM412 878h244
c51 0 61 -13 66 -95c17 12 46 23 66 27c-10 108 -33 134 -126 134h-253c-119 0 -150 -20 -150 -99v-172h71v171c0 29 13 34 82 34zM757 706l62 -32c62 57 125 138 148 198l-66 36c-22 -59 -83 -142 -144 -202z" />
</svg>
