<?xml version="1.0" standalone="no"?>
<!DOCTYPE svg PUBLIC "-//W3C//DTD SVG 1.1//EN" "http://www.w3.org/Graphics/SVG/1.1/DTD/svg11.dtd" >
<svg xmlns="http://www.w3.org/2000/svg" xmlns:xlink="http://www.w3.org/1999/xlink" version="1.1" viewBox="-10 0 1010 1000">
   <path fill="currentColor"
d="M92 511l-60 -20c26 -66 44 -175 51 -256l58 8c-5 82 -23 197 -49 268zM173 956v-913h71v913h-71zM251 227l52 -23c29 59 64 136 77 181l-55 27c-13 -47 -45 -126 -74 -185zM811 678h-331v169h331v-169zM411 958v-345h472v341h-72v-41h-331v45h-69zM788 322h-182
c-11 52 -21 101 -30 142h200c5 -46 9 -98 12 -142zM849 464h106v66h-605v-66h153c10 -41 20 -90 30 -142h-131v-65h142c7 -36 13 -73 18 -107h-188v-65h552v65h-290c-5 34 -12 71 -19 107h181l13 -3l52 4c-3 66 -8 141 -14 206z" />
</svg>
