<?xml version="1.0" standalone="no"?>
<!DOCTYPE svg PUBLIC "-//W3C//DTD SVG 1.1//EN" "http://www.w3.org/Graphics/SVG/1.1/DTD/svg11.dtd" >
<svg xmlns="http://www.w3.org/2000/svg" xmlns:xlink="http://www.w3.org/1999/xlink" version="1.1" viewBox="-10 0 1010 1000">
   <path fill="currentColor"
d="M100 512l-62 -22c27 -66 45 -175 52 -254l59 8c-5 80 -24 195 -49 268zM182 956v-913h72v913h-72zM263 227l52 -23c31 59 62 135 74 181l-56 28c-11 -49 -41 -128 -70 -186zM490 391v113h326v-113h-326zM816 221h-326v106h326v-106zM885 594l49 48
c-46 39 -107 77 -159 106c50 60 113 107 188 134c-16 14 -38 43 -49 62c-154 -63 -253 -199 -307 -375h-117v285l173 -53c1 21 4 49 8 65c-206 67 -236 78 -256 92c-7 -15 -26 -43 -39 -56c17 -12 41 -40 41 -87v-659h212c-11 -31 -25 -69 -38 -98l68 -16
c17 35 37 80 48 114h181v413h-210c16 46 35 89 61 128c49 -30 109 -71 146 -103z" />
</svg>
