<?xml version="1.0" standalone="no"?>
<!DOCTYPE svg PUBLIC "-//W3C//DTD SVG 1.1//EN" "http://www.w3.org/Graphics/SVG/1.1/DTD/svg11.dtd" >
<svg xmlns="http://www.w3.org/2000/svg" xmlns:xlink="http://www.w3.org/1999/xlink" version="1.1" viewBox="-10 0 1010 1000">
   <path fill="currentColor"
d="M461 236v-58h-396v-56h396v-77h74v77h402v56h-402v58h325v56h-718v-56h319zM915 506h-72v-103h-690v103h-70v-160h832v160zM612 522h-237c-1 79 -57 142 -273 178c-6 -18 -25 -52 -38 -64c200 -27 239 -66 239 -119v-59h380v133c0 20 6 24 40 24h117c26 0 31 -8 35 -71
c13 11 43 21 63 25c-8 87 -28 109 -90 109h-133c-81 0 -103 -18 -103 -86v-70zM590 753l-56 39c-26 -41 -82 -108 -126 -157l53 -34c44 48 100 113 129 152zM112 931l-60 -36c45 -49 83 -131 105 -194l60 25c-24 65 -59 151 -105 205zM412 871h218c52 0 61 -16 66 -120
c17 12 46 23 67 27c-10 126 -33 157 -128 157h-227c-110 0 -141 -19 -141 -95v-145h73v145c0 26 11 31 72 31zM769 727l60 -26c34 53 73 126 90 171l-63 31c-16 -47 -54 -121 -87 -176z" />
</svg>
