<?xml version="1.0" standalone="no"?>
<!DOCTYPE svg PUBLIC "-//W3C//DTD SVG 1.1//EN" "http://www.w3.org/Graphics/SVG/1.1/DTD/svg11.dtd" >
<svg xmlns="http://www.w3.org/2000/svg" xmlns:xlink="http://www.w3.org/1999/xlink" version="1.1" viewBox="-10 0 1010 1000">
   <path fill="currentColor"
d="M90 509l-58 -19c22 -68 39 -176 45 -255l56 7c-4 79 -20 194 -43 267zM164 956v-913h69v913h-69zM249 218l53 -16c24 67 49 154 57 203l-55 22c-8 -53 -32 -142 -55 -209zM683 673v22h266v64h-266v121c0 38 -8 55 -37 66c-28 10 -73 11 -139 10c-3 -19 -13 -44 -21 -63
c50 2 95 2 108 1c14 0 17 -4 17 -15v-120h-274v-64h274v-48c37 -17 80 -40 116 -65h-302v-62h381l14 -4l47 35c-51 46 -121 91 -184 122zM945 301h-205c56 65 144 124 226 153c-15 14 -38 42 -50 59c-86 -38 -175 -112 -234 -192v172h-72v-171c-66 81 -164 156 -251 197
c-10 -17 -30 -41 -45 -54c84 -32 177 -96 238 -164h-197v-63h255v-85c-71 7 -143 11 -210 14c-2 -16 -10 -42 -18 -58c161 -8 358 -27 463 -56l53 54c-59 16 -136 29 -216 38v93h263v63z" />
</svg>
