<?xml version="1.0" standalone="no"?>
<!DOCTYPE svg PUBLIC "-//W3C//DTD SVG 1.1//EN" "http://www.w3.org/Graphics/SVG/1.1/DTD/svg11.dtd" >
<svg xmlns="http://www.w3.org/2000/svg" xmlns:xlink="http://www.w3.org/1999/xlink" version="1.1" viewBox="-10 0 1010 1000">
   <path fill="currentColor"
d="M88 510l-57 -20c22 -67 39 -176 45 -255l54 7c-4 79 -19 193 -42 268zM154 956v-913h68v913h-68zM234 217l48 -17c21 51 42 119 50 157l-51 23c-8 -42 -28 -111 -47 -163zM648 504h160v-75h-160v75zM648 300v75h160v-75h-160zM751 690h-197c-16 23 -32 44 -46 63
c49 11 104 25 156 40c39 -27 69 -61 87 -103zM878 432v127h-311l58 14c-10 18 -20 38 -32 57h354v60h-119c-21 51 -52 92 -92 125c80 27 155 56 209 85l-53 51c-53 -30 -134 -62 -221 -91c-93 51 -215 79 -347 96c-5 -17 -21 -46 -32 -61c112 -9 214 -28 297 -61
c-65 -20 -131 -36 -190 -49c23 -26 50 -60 75 -95h-166v-60h207c16 -24 31 -49 42 -71h-181v-55h200v-75h-250v-54h250v-75h-200v-56h200v-59h-236v-59h236v-79h72v79h286v59h-286v59h230v128h75v60h-75z" />
</svg>
