<?xml version="1.0" standalone="no"?>
<!DOCTYPE svg PUBLIC "-//W3C//DTD SVG 1.1//EN" "http://www.w3.org/Graphics/SVG/1.1/DTD/svg11.dtd" >
<svg xmlns="http://www.w3.org/2000/svg" xmlns:xlink="http://www.w3.org/1999/xlink" version="1.1" viewBox="-10 0 1010 1000">
   <path fill="currentColor"
d="M60 653l-6 -66c111 -9 281 -26 445 -43l1 57c45 -26 87 -57 124 -93c-44 -74 -78 -169 -100 -274h-457v-65h446c-6 -41 -10 -82 -12 -125h73c2 43 6 85 12 125h206c-34 -28 -88 -60 -137 -79l44 -44c54 19 118 55 151 86l-35 37h119v65h-336c18 84 45 159 78 218
c42 -53 78 -111 102 -177l70 18c-33 83 -79 156 -134 220c42 54 87 84 130 84c28 -1 38 -32 44 -122c16 14 41 27 60 34c-13 125 -40 159 -108 159c-65 0 -125 -37 -175 -103c-38 36 -77 67 -118 93c-12 -14 -38 -40 -55 -52c-156 18 -318 35 -432 47zM380 441v-94h-181v94
h181zM132 294h318v201h-318v-201zM403 688l46 -43c63 30 136 78 172 118l-48 48c-34 -40 -106 -90 -170 -123zM124 932l-66 -37c40 -50 74 -132 93 -197l65 26c-20 67 -51 152 -92 208zM414 879h212c49 0 57 -12 62 -97c16 11 46 22 66 26c-10 110 -33 136 -121 136h-223
c-112 0 -141 -20 -141 -94v-141h73v140c0 25 11 30 72 30zM757 721l67 -23c48 63 99 147 118 203l-71 26c-19 -55 -68 -143 -114 -206z" />
</svg>
