<?xml version="1.0" standalone="no"?>
<!DOCTYPE svg PUBLIC "-//W3C//DTD SVG 1.1//EN" "http://www.w3.org/Graphics/SVG/1.1/DTD/svg11.dtd" >
<svg xmlns="http://www.w3.org/2000/svg" xmlns:xlink="http://www.w3.org/1999/xlink" version="1.1" viewBox="-10 0 1010 1000">
   <path fill="currentColor"
d="M818 487v-301h-188v301h188zM892 121v431h-334v-431h334zM420 632l57 -31c53 49 114 116 141 163l-62 35c-25 -46 -84 -117 -136 -167zM126 913l-68 -31c40 -53 79 -138 101 -201l65 26c-26 62 -61 150 -98 206zM338 590h-69v-202c-50 75 -115 144 -173 187
c-11 -17 -33 -41 -48 -53c71 -44 152 -130 202 -213h-180v-63h199v-95c-53 7 -107 11 -157 14c-2 -16 -11 -39 -18 -55c124 -10 273 -28 358 -53l42 54c-44 13 -98 23 -156 31v104h176v63h-176v22c41 30 144 114 170 136l-46 52c-24 -26 -79 -78 -124 -117v188zM426 871h213
c51 0 60 -15 65 -114c17 12 47 23 69 27c-10 123 -34 153 -129 153h-222c-113 0 -143 -20 -143 -98v-181h74v180c0 28 11 33 73 33zM759 669l67 -25c48 67 97 154 116 214l-72 29c-17 -58 -64 -149 -111 -218z" />
</svg>
