<?xml version="1.0" standalone="no"?>
<!DOCTYPE svg PUBLIC "-//W3C//DTD SVG 1.1//EN" "http://www.w3.org/Graphics/SVG/1.1/DTD/svg11.dtd" >
<svg xmlns="http://www.w3.org/2000/svg" xmlns:xlink="http://www.w3.org/1999/xlink" version="1.1" viewBox="-10 0 1010 1000">
   <path fill="currentColor"
d="M624 40l63 24c-5 11 -10 20 -14 31c72 129 168 205 291 271c-18 14 -38 37 -46 58c-117 -68 -207 -147 -280 -265c-67 113 -163 211 -269 275c-11 -16 -31 -40 -50 -54c131 -71 245 -200 305 -340zM821 440l48 17c-36 71 -86 159 -129 229l-63 -20
c32 -49 66 -110 94 -159h-337v-63h375zM576 625l54 -23c40 52 84 123 104 168l-57 27c-19 -45 -62 -119 -101 -172zM569 304l53 -30c35 39 78 91 99 123l-55 35c-21 -33 -63 -89 -97 -128zM90 511l-56 -21c25 -67 42 -175 49 -255l55 8c-4 79 -22 195 -48 268zM161 956v-913
h71v913h-71zM241 226l50 -21c24 47 51 109 62 146l-52 25c-10 -38 -36 -103 -60 -150zM377 914l-60 -28c34 -53 63 -139 78 -204l57 22c-17 65 -42 155 -75 210zM598 883h124c30 0 36 -12 39 -94c14 11 41 21 60 24c-8 105 -28 130 -91 130h-139c-83 0 -103 -19 -103 -87
v-190h67v189c0 24 7 28 43 28zM793 698l55 -22c43 64 86 148 104 203l-57 26c-18 -57 -61 -144 -102 -207z" />
</svg>
