<?xml version="1.0" standalone="no"?>
<!DOCTYPE svg PUBLIC "-//W3C//DTD SVG 1.1//EN" "http://www.w3.org/Graphics/SVG/1.1/DTD/svg11.dtd" >
<svg xmlns="http://www.w3.org/2000/svg" xmlns:xlink="http://www.w3.org/1999/xlink" version="1.1" viewBox="-10 0 1010 1000">
   <path fill="currentColor"
d="M250 43l65 26c-53 68 -138 143 -212 189c-10 -14 -31 -37 -44 -50c69 -42 150 -108 191 -165zM118 916l-68 -34c39 -53 78 -135 102 -195l64 30c-26 59 -62 143 -98 199zM266 199l66 24c-22 35 -51 71 -82 107v303h-71v-235c-29 27 -60 49 -90 69c-8 -15 -27 -40 -38 -53
c83 -53 172 -139 215 -215zM420 872h223c49 0 58 -12 63 -91c17 12 48 22 69 26c-10 106 -34 132 -126 132h-233c-116 0 -146 -20 -146 -97v-153h76v152c0 26 10 31 74 31zM621 768l-62 41c-27 -45 -89 -115 -143 -164l58 -37c53 47 117 114 147 160zM764 707l64 -24
c41 62 88 145 107 197l-69 29c-18 -53 -63 -138 -102 -202zM692 541h258v65h-643v-65h111v-301h69v301h132v-380h-255v-65h557v65h-229v143h215v65h-215v172z" />
</svg>
