<?xml version="1.0" standalone="no"?>
<!DOCTYPE svg PUBLIC "-//W3C//DTD SVG 1.1//EN" "http://www.w3.org/Graphics/SVG/1.1/DTD/svg11.dtd" >
<svg xmlns="http://www.w3.org/2000/svg" xmlns:xlink="http://www.w3.org/1999/xlink" version="1.1" viewBox="-10 0 1010 1000">
   <path fill="currentColor"
d="M946 404l-62 28c-30 -52 -93 -130 -159 -198c49 -60 102 -135 130 -182l67 19c-34 53 -80 112 -120 162c55 55 114 126 144 171zM97 507l-48 -17c22 -68 39 -177 45 -255l47 7c-4 76 -20 190 -44 265zM173 956v-913h63v913h-63zM251 220l47 -13c22 64 43 148 49 195
l-52 18c-6 -50 -25 -135 -44 -200zM540 400l-62 26c-23 -51 -73 -127 -128 -194c40 -59 82 -131 105 -178l66 17c-28 53 -65 111 -99 160c48 56 95 124 118 169zM810 773l-38 44c-27 -26 -66 -58 -111 -90c-44 40 -91 74 -136 102c-10 -11 -34 -30 -49 -40
c48 -25 95 -58 138 -94c-39 -25 -79 -48 -116 -68l36 -38c39 20 81 44 121 69c30 -30 58 -61 80 -93l57 18c-25 37 -56 73 -90 106c43 30 82 59 108 84zM851 841v-293h-401v293h401zM740 394l-56 25c-10 25 -21 47 -31 68h269v468h-71v-53h-401v58h-69v-473h199
c13 -28 25 -62 32 -86l63 10c-30 -50 -80 -120 -135 -182c42 -59 88 -130 112 -177l66 18c-29 52 -69 110 -103 158c49 54 100 122 125 166z" />
</svg>
