<?xml version="1.0" standalone="no"?>
<!DOCTYPE svg PUBLIC "-//W3C//DTD SVG 1.1//EN" "http://www.w3.org/Graphics/SVG/1.1/DTD/svg11.dtd" >
<svg xmlns="http://www.w3.org/2000/svg" xmlns:xlink="http://www.w3.org/1999/xlink" version="1.1" viewBox="-10 0 1010 1000">
   <path fill="currentColor"
d="M889 254l62 12c-19 89 -41 200 -62 269l-52 -13c19 -71 41 -189 52 -268zM653 538l-47 -33c27 -60 37 -161 38 -246l51 5c0 94 -11 205 -42 274zM91 508l-54 -22c30 -62 45 -173 46 -259l54 8c0 87 -15 203 -46 273zM163 956v-913h69v913h-69zM623 620l-38 61
c-13 -33 -47 -100 -74 -153v428h-65v-429c-32 110 -77 218 -124 285c-8 -21 -25 -48 -37 -64c56 -77 113 -220 142 -344h-100v-56l-39 17c-6 -40 -24 -105 -43 -153l48 -16c18 44 37 101 45 138h108v-175c-36 7 -72 13 -106 18c-3 -15 -13 -39 -21 -55
c91 -15 195 -40 254 -65l51 55c-34 12 -72 23 -113 33v189h96v70h-96v35c26 40 96 153 112 181zM803 51v243c0 33 0 69 -2 104c19 215 62 412 161 495c-15 13 -37 39 -47 57c-71 -68 -113 -183 -140 -324c-23 116 -68 232 -150 335c-9 -17 -32 -42 -46 -51
c146 -188 160 -423 160 -616v-243h64z" />
</svg>
