<?xml version="1.0" standalone="no"?>
<!DOCTYPE svg PUBLIC "-//W3C//DTD SVG 1.1//EN" "http://www.w3.org/Graphics/SVG/1.1/DTD/svg11.dtd" >
<svg xmlns="http://www.w3.org/2000/svg" xmlns:xlink="http://www.w3.org/1999/xlink" version="1.1" viewBox="-10 0 1010 1000">
   <path fill="currentColor"
d="M856 268h-130c-19 184 -68 322 -211 408c-8 -17 -30 -41 -47 -53c127 -74 172 -194 189 -355h-104v-69h109c3 -47 5 -97 6 -150h70c-1 53 -3 103 -6 150h195v33c-12 275 -24 374 -50 406c-17 21 -35 28 -62 31c-26 3 -72 2 -119 -1c-2 -20 -9 -48 -20 -66
c46 5 91 5 106 5c17 0 26 -2 35 -12c18 -21 29 -104 39 -327zM424 703l53 -35c45 37 101 90 127 125l-54 42c-25 -37 -80 -93 -126 -132zM266 219v-49h-201v-59h201v-64h71v64h208v59h-208v49h190v130h-53l11 8c-40 41 -94 83 -143 115v7c60 -6 122 -11 183 -16v58l-183 18
v83c0 34 -7 50 -35 59c-27 10 -68 10 -135 10c-4 -19 -15 -40 -24 -56c52 1 94 1 107 0c13 0 17 -4 17 -15v-75l-198 18l-8 -62c56 -4 128 -10 206 -16v-33c29 -18 62 -42 90 -67h-221v-59h284l15 -4l20 16v-69h-321v80h-64v-130h191zM121 929l-58 -51
c40 -43 77 -114 98 -171l61 32c-23 58 -59 138 -101 190zM437 871h192c47 0 55 -13 59 -113c17 12 47 23 68 27c-11 124 -33 152 -121 152h-203c-106 0 -135 -20 -135 -95v-132h72v132c0 24 11 29 68 29zM768 721l63 -26c41 61 88 146 108 198l-68 30
c-19 -53 -64 -138 -103 -202z" />
</svg>
