<?xml version="1.0" standalone="no"?>
<!DOCTYPE svg PUBLIC "-//W3C//DTD SVG 1.1//EN" "http://www.w3.org/Graphics/SVG/1.1/DTD/svg11.dtd" >
<svg xmlns="http://www.w3.org/2000/svg" xmlns:xlink="http://www.w3.org/1999/xlink" version="1.1" viewBox="-10 0 1010 1000">
   <path fill="currentColor"
d="M917 83v64h-303v-64h303zM390 647l-44 -59c53 -41 130 -110 195 -177l35 53c-57 61 -124 127 -186 183zM413 670l54 -38c58 40 128 98 162 140l-57 43c-31 -42 -100 -103 -159 -145zM572 163l-42 52c-32 -29 -96 -66 -150 -88l40 -47c53 20 119 54 152 83zM542 331
l-42 54c-34 -29 -101 -64 -157 -85l40 -49c55 19 123 52 159 80zM238 47l69 24c-53 66 -137 136 -209 179c-12 -15 -34 -37 -47 -49c68 -38 147 -100 187 -154zM122 930l-67 -32c38 -52 75 -134 97 -193l64 28c-24 59 -59 142 -94 197zM258 213l68 22c-21 35 -49 70 -79 104
v325h-69v-258c-31 28 -64 51 -96 72c-9 -15 -28 -42 -40 -55c85 -51 173 -135 216 -210zM413 878h221c53 0 62 -15 67 -116c17 12 46 22 67 27c-10 123 -33 152 -129 152h-230c-114 0 -145 -19 -145 -94v-146h74v145c0 27 12 32 75 32zM758 720l62 -28c46 58 97 136 117 188
l-66 33c-18 -53 -66 -133 -113 -193zM589 260h351v64h-110v261c0 38 -8 56 -37 67c-28 10 -73 11 -144 11c-3 -19 -13 -45 -23 -63c53 1 101 1 114 0c14 0 18 -4 18 -16v-260h-169v-64z" />
</svg>
