<?xml version="1.0" standalone="no"?>
<!DOCTYPE svg PUBLIC "-//W3C//DTD SVG 1.1//EN" "http://www.w3.org/Graphics/SVG/1.1/DTD/svg11.dtd" >
<svg xmlns="http://www.w3.org/2000/svg" xmlns:xlink="http://www.w3.org/1999/xlink" version="1.1" viewBox="-10 0 1010 1000">
   <path fill="currentColor"
d="M91 512l-56 -21c28 -65 45 -174 50 -255l54 7c-3 82 -19 196 -48 269zM164 956v-912h68v912h-68zM431 692h136v-81h-136v81zM567 475h-136v79h136v-79zM631 415v462c0 33 -5 51 -27 63c-20 11 -52 12 -94 12c-3 -18 -11 -46 -20 -65c30 1 57 1 65 1c9 0 12 -3 12 -12
v-127h-136v204h-65v-538h265zM840 872v-475h62v475c0 37 -7 55 -31 66c-25 11 -65 12 -123 12c-3 -18 -12 -45 -20 -63c45 1 84 1 96 0c13 0 16 -3 16 -15zM758 434v358h-61v-358h61zM468 288h360c-68 -39 -129 -84 -185 -143c-51 54 -111 103 -175 143zM647 39l60 28
c-8 10 -16 22 -24 33c78 82 176 135 283 178c-17 15 -36 39 -46 58c-32 -15 -61 -30 -90 -47v59h-381v-48c-26 16 -54 30 -80 43c-11 -17 -30 -38 -46 -53c12 39 23 77 28 104l-56 24c-9 -51 -32 -135 -57 -199l52 -18c11 27 22 57 32 87c126 -53 256 -147 325 -249z" />
</svg>
