<?xml version="1.0" standalone="no"?>
<!DOCTYPE svg PUBLIC "-//W3C//DTD SVG 1.1//EN" "http://www.w3.org/Graphics/SVG/1.1/DTD/svg11.dtd" >
<svg xmlns="http://www.w3.org/2000/svg" xmlns:xlink="http://www.w3.org/1999/xlink" version="1.1" viewBox="-10 0 1010 1000">
   <path fill="currentColor"
d="M872 44l44 53c-146 40 -379 65 -571 78c-2 -16 -11 -40 -18 -55c190 -15 420 -41 545 -76zM679 290l-65 18c-5 -34 -21 -90 -39 -133l61 -15c18 40 37 96 43 130zM500 295l-62 24c-9 -30 -30 -80 -49 -119l60 -19c19 36 42 84 51 114zM95 506l-59 -20
c22 -67 39 -177 45 -255l56 8c-3 78 -19 193 -42 267zM165 959v-915h68v915h-68zM352 376l-55 26c-9 -48 -32 -126 -54 -186l53 -19c22 58 47 135 56 179zM806 662h-259c34 49 80 92 136 127c51 -34 93 -76 123 -127zM859 597l45 25c-35 84 -90 151 -157 203
c64 30 139 54 218 66c-15 15 -34 43 -44 62c-87 -18 -167 -47 -236 -87c-73 43 -156 72 -243 93c-8 -17 -29 -46 -43 -59c80 -16 156 -40 223 -74c-49 -37 -90 -79 -123 -127c-43 97 -99 176 -175 238c-12 -11 -41 -34 -58 -45c113 -83 180 -207 218 -368h-158v-62h172
c4 -25 8 -52 12 -78h-153v-62h381c31 -48 68 -122 89 -172l71 21c-26 50 -58 107 -88 151h110v62h-339c-4 26 -9 53 -14 78h382v62h-395c-5 26 -12 52 -20 76h312z" />
</svg>
