<?xml version="1.0" standalone="no"?>
<!DOCTYPE svg PUBLIC "-//W3C//DTD SVG 1.1//EN" "http://www.w3.org/Graphics/SVG/1.1/DTD/svg11.dtd" >
<svg xmlns="http://www.w3.org/2000/svg" xmlns:xlink="http://www.w3.org/1999/xlink" version="1.1" viewBox="-10 0 1010 1000">
   <path fill="currentColor"
d="M621 338h-160v65h160v-65zM853 403v-65h-165v65h165zM688 519h165v-66h-165v66zM461 519h160v-66h-160v66zM461 571v52h-67v-339h307c-62 -25 -141 -51 -206 -69l33 -46c41 10 89 24 134 39c46 -20 91 -46 129 -73h-395v-59h469l15 -4l46 37c-50 45 -120 90 -192 124
c26 10 49 20 68 29l-15 22h134v339h-68v-52h-165v37h-67v-37h-160zM80 513l-49 -23c34 -60 50 -168 52 -255l50 7c0 90 -16 203 -53 271zM172 955v-912h70v912h-70zM362 394l-50 22c-8 -50 -34 -131 -62 -193l46 -17c31 60 58 140 66 188zM667 675h275s-1 20 -3 29
c-14 144 -28 204 -55 228c-17 17 -37 22 -65 23c-26 2 -78 1 -132 -2c-1 -18 -9 -44 -18 -60c51 4 102 4 121 4c18 0 28 -1 36 -7c16 -15 27 -57 38 -154h-213c-39 111 -120 182 -306 221c-6 -15 -22 -42 -35 -55c158 -30 231 -84 268 -166h-236v-61h255c5 -19 8 -39 11 -60
h69c-3 21 -6 41 -10 60z" />
</svg>
