<?xml version="1.0" standalone="no"?>
<!DOCTYPE svg PUBLIC "-//W3C//DTD SVG 1.1//EN" "http://www.w3.org/Graphics/SVG/1.1/DTD/svg11.dtd" >
<svg xmlns="http://www.w3.org/2000/svg" xmlns:xlink="http://www.w3.org/1999/xlink" version="1.1" viewBox="-10 0 1010 1000">
   <path fill="currentColor"
d="M816 216v-81h-316v81h316zM816 355v-84h-316v84h316zM887 77v335h-457v-335h457zM82 513l-51 -23c34 -60 50 -168 52 -255l52 7c0 90 -16 204 -53 271zM181 955v-912h71v912h-71zM384 386l-49 25c-10 -48 -42 -126 -73 -185l46 -21c33 58 66 134 76 181zM959 525h-405
c-10 21 -23 42 -36 63h417s-1 20 -3 30c-17 203 -34 281 -63 311c-15 17 -32 23 -55 25c-21 2 -55 2 -93 0c-1 -19 -7 -46 -17 -62c35 3 65 3 80 3c14 1 22 -1 30 -10c17 -19 34 -81 48 -234h-87c-37 118 -108 242 -182 309c-12 -15 -32 -35 -51 -45
c70 -54 134 -159 173 -264h-91c-48 101 -134 211 -212 271c-12 -15 -33 -34 -50 -45c71 -47 148 -138 197 -226h-86c-36 46 -76 89 -113 119c-12 -15 -32 -34 -50 -45c62 -43 131 -123 177 -200h-153v-63h625v63z" />
</svg>
