<?xml version="1.0" standalone="no"?>
<!DOCTYPE svg PUBLIC "-//W3C//DTD SVG 1.1//EN" "http://www.w3.org/Graphics/SVG/1.1/DTD/svg11.dtd" >
<svg xmlns="http://www.w3.org/2000/svg" xmlns:xlink="http://www.w3.org/1999/xlink" version="1.1" viewBox="-10 0 1010 1000">
   <path fill="currentColor"
d="M420 201v106h-64v-168h248c-11 -25 -23 -54 -35 -76l69 -19c15 28 35 67 47 95h237v168h-66v-106h-436zM96 510l-59 -20c22 -67 39 -176 45 -255l56 8c-3 78 -20 193 -42 267zM172 959v-916h70v916h-70zM368 389l-56 25c-9 -49 -33 -131 -54 -193l53 -20
c23 62 49 142 57 188zM453 657h373c-65 -26 -129 -59 -186 -96c-56 38 -120 71 -187 96zM479 867h301v-150h-301v150zM751 361h-210c-5 6 -9 11 -14 16c28 38 65 74 108 106c46 -36 86 -76 116 -122zM806 300l43 28c-36 76 -91 140 -156 194c77 45 167 81 257 103
c-12 16 -24 46 -28 65c-24 -6 -47 -14 -71 -23v288h-71v-27h-301v29h-68v-285c-24 8 -47 15 -71 21c-5 -18 -22 -51 -34 -64c99 -24 195 -60 277 -110c-38 -31 -71 -63 -98 -97c-33 31 -72 61 -117 87c-9 -16 -30 -38 -45 -49c114 -62 185 -149 218 -228l69 12
c-9 20 -19 39 -30 59h213z" />
</svg>
