<?xml version="1.0" standalone="no"?>
<!DOCTYPE svg PUBLIC "-//W3C//DTD SVG 1.1//EN" "http://www.w3.org/Graphics/SVG/1.1/DTD/svg11.dtd" >
<svg xmlns="http://www.w3.org/2000/svg" xmlns:xlink="http://www.w3.org/1999/xlink" version="1.1" viewBox="-10 0 1010 1000">
   <path fill="currentColor"
d="M548 362l55 8c-4 28 -10 54 -17 79c23 21 45 45 58 64l-36 41c-9 -14 -24 -32 -39 -50c-15 35 -32 68 -51 93c-11 -9 -34 -24 -48 -32c43 -50 65 -123 78 -203zM908 754l-47 47c-33 -49 -99 -122 -162 -184c-28 76 -82 146 -182 205c-10 -15 -30 -38 -45 -49
c176 -100 195 -239 195 -371v-70h-184v-62h184v-73h64v73h183v62h-183v71c0 49 -3 99 -13 147c70 66 151 151 190 204zM813 362l54 9c-4 27 -9 55 -16 80c34 31 69 68 87 93l-40 36c-13 -20 -38 -50 -63 -76c-9 25 -21 48 -35 67c-9 -9 -31 -25 -44 -32
c33 -45 49 -109 57 -177zM97 511l-55 -21c27 -65 44 -173 49 -255l53 8c-3 83 -19 197 -47 268zM172 955v-912h69v912h-69zM248 223l50 -17c25 64 51 147 60 196l-53 22c-8 -52 -33 -137 -57 -201zM433 860h523v66h-590v-832h567v66h-500v700z" />
</svg>
