<?xml version="1.0" standalone="no"?>
<!DOCTYPE svg PUBLIC "-//W3C//DTD SVG 1.1//EN" "http://www.w3.org/Graphics/SVG/1.1/DTD/svg11.dtd" >
<svg xmlns="http://www.w3.org/2000/svg" xmlns:xlink="http://www.w3.org/1999/xlink" version="1.1" viewBox="-10 0 1010 1000">
   <path fill="currentColor"
d="M822 278v-127h-154v127h154zM822 466v-130h-154v130h154zM448 336v130h151v-130h-151zM448 151v127h151v-127h-151zM892 89v439h-511v-439h511zM745 713l-58 36c-21 -48 -73 -122 -119 -175l54 -30c46 51 100 122 123 169zM96 511l-60 -20c22 -67 38 -178 45 -256l57 8
c-3 78 -19 193 -42 268zM172 956v-912h69v912h-69zM366 412l-56 23c-8 -55 -30 -148 -53 -218l53 -17c24 69 49 160 56 212zM346 888l-58 -27c36 -66 62 -175 76 -256l58 17c-15 82 -41 196 -76 266zM578 869h145c37 0 43 -16 47 -123c15 11 43 22 63 27
c-8 127 -28 159 -104 159h-158c-89 0 -113 -21 -113 -95v-239h70v239c0 27 7 32 50 32zM802 635l56 -20c44 76 85 175 97 238l-61 23c-12 -63 -50 -164 -92 -241z" />
</svg>
