<?xml version="1.0" standalone="no"?>
<!DOCTYPE svg PUBLIC "-//W3C//DTD SVG 1.1//EN" "http://www.w3.org/Graphics/SVG/1.1/DTD/svg11.dtd" >
<svg xmlns="http://www.w3.org/2000/svg" xmlns:xlink="http://www.w3.org/1999/xlink" version="1.1" viewBox="-10 0 1010 1000">
   <path fill="currentColor"
d="M80 235l56 7c1 86 -13 200 -41 270l-56 -22c27 -62 40 -172 41 -255zM172 956v-913h69v913h-69zM365 393l-53 24c-10 -49 -37 -131 -62 -193l50 -19c27 61 56 142 65 188zM454 491h126c8 -38 13 -76 18 -114h-144v114zM454 206v113h149c3 -38 5 -77 6 -113h-155zM829 319
v-113h-150c-1 36 -3 75 -6 113h156zM829 491v-114h-162c-4 38 -9 76 -16 114h178zM929 789l-33 15c14 9 40 18 59 23c-8 88 -27 111 -89 111h-143c-82 0 -103 -18 -103 -88v-242c-46 140 -130 265 -288 346c-11 -18 -32 -43 -50 -56c163 -78 242 -206 282 -346h-181v-408
h197c15 -33 29 -73 36 -102l84 11c-15 31 -31 64 -46 91h248v408h-265c-3 11 -6 21 -9 32h58v266c0 25 6 29 43 29h130c28 0 34 -10 37 -75l-11 5c-3 -11 -7 -24 -11 -38c-123 23 -147 30 -158 37c-3 -12 -12 -39 -19 -54c11 -1 20 -14 30 -31c9 -18 43 -87 55 -152l54 17
c-17 54 -41 110 -65 153l87 -13c-10 -25 -23 -53 -35 -75l42 -16c27 49 55 113 64 152z" />
</svg>
