<?xml version="1.0" standalone="no"?>
<!DOCTYPE svg PUBLIC "-//W3C//DTD SVG 1.1//EN" "http://www.w3.org/Graphics/SVG/1.1/DTD/svg11.dtd" >
<svg xmlns="http://www.w3.org/2000/svg" xmlns:xlink="http://www.w3.org/1999/xlink" version="1.1" viewBox="-10 0 1010 1000">
   <path fill="currentColor"
d="M869 52l44 57c-143 36 -370 59 -556 68c-2 -17 -10 -41 -17 -58c183 -11 405 -34 529 -67zM807 389l-57 -23c29 -53 67 -139 85 -199l73 26c-33 67 -70 145 -101 196zM682 333l-63 18c-6 -40 -25 -109 -43 -160l60 -14c19 50 40 116 46 156zM509 336l-60 24
c-9 -38 -34 -100 -59 -146l58 -18c25 44 52 103 61 140zM94 509l-57 -19c21 -68 37 -177 42 -254l54 6c-2 78 -17 192 -39 267zM171 959v-915h69v915h-69zM255 224l52 -19c25 59 49 136 59 181l-56 23c-8 -46 -32 -126 -55 -185zM674 667v181h164v-139h69v245h-69v-43h-473
v-203h69v140h170v-181h-291v-64h291v-110h-139c-23 34 -49 65 -74 89c-12 -10 -40 -30 -56 -39c54 -46 99 -112 125 -180l66 16c-7 17 -15 34 -24 51h406v63h-234v110h283v64h-283z" />
</svg>
