<?xml version="1.0" standalone="no"?>
<!DOCTYPE svg PUBLIC "-//W3C//DTD SVG 1.1//EN" "http://www.w3.org/Graphics/SVG/1.1/DTD/svg11.dtd" >
<svg xmlns="http://www.w3.org/2000/svg" xmlns:xlink="http://www.w3.org/1999/xlink" version="1.1" viewBox="-10 0 1010 1000">
   <path fill="currentColor"
d="M654 267v-60h-172v60h172zM654 377v-60h-172v60h172zM654 492v-65h-172v65h172zM416 580v-262c-16 25 -31 47 -48 67c-11 -11 -35 -36 -50 -47c66 -73 121 -185 154 -296l64 16c-10 30 -21 61 -32 90h156c-8 -25 -24 -63 -39 -90l61 -15c17 30 36 70 44 94l-38 11h219v59
h-187v60h169v50h-169v60h167v50h-167v65h200v58h-438v30h-66zM94 491l-56 -18c24 -66 41 -176 46 -256l54 8c-3 80 -19 194 -44 266zM166 956v-913h69v913h-69zM256 187l50 -18c18 39 38 92 45 123l-53 25c-6 -34 -24 -88 -42 -130zM788 664h-268c33 44 79 83 131 117
c54 -33 102 -72 137 -117zM847 599l46 25c-41 79 -103 142 -178 192c73 35 157 61 247 75c-16 15 -35 42 -45 61c-99 -19 -191 -52 -269 -97c-95 48 -202 80 -311 100c-6 -19 -21 -45 -33 -61c97 -14 196 -40 282 -80c-58 -42 -106 -92 -143 -150h-80v-61h472z" />
</svg>
