<?xml version="1.0" standalone="no"?>
<!DOCTYPE svg PUBLIC "-//W3C//DTD SVG 1.1//EN" "http://www.w3.org/Graphics/SVG/1.1/DTD/svg11.dtd" >
<svg xmlns="http://www.w3.org/2000/svg" xmlns:xlink="http://www.w3.org/1999/xlink" version="1.1" viewBox="-10 0 1010 1000">
   <path fill="currentColor"
d="M80 513l-49 -23c34 -60 50 -168 52 -255l50 7c0 90 -16 203 -53 271zM172 955v-912h70v912h-70zM362 394l-50 22c-8 -50 -34 -131 -62 -193l46 -17c31 60 58 140 66 188zM460 266v79h359v-79h-359zM460 134v77h359v-77h-359zM781 884h83c24 0 30 -16 32 -121
c15 12 43 23 63 28c-7 125 -26 155 -88 155h-101c-72 0 -90 -19 -90 -90v-182h-106c-17 144 -69 234 -241 285c-6 -17 -27 -46 -42 -59c152 -40 195 -110 210 -226h-177v-65h279v-207h-213v-325h502v325h-219v207h282v65h-203v182c0 23 4 28 29 28zM391 445l62 -23
c33 48 68 114 80 156l-65 25c-11 -42 -44 -109 -77 -158zM809 602l-59 -22c29 -44 67 -116 86 -164l72 24c-32 57 -70 120 -99 162z" />
</svg>
