<?xml version="1.0" standalone="no"?>
<!DOCTYPE svg PUBLIC "-//W3C//DTD SVG 1.1//EN" "http://www.w3.org/Graphics/SVG/1.1/DTD/svg11.dtd" >
<svg xmlns="http://www.w3.org/2000/svg" xmlns:xlink="http://www.w3.org/1999/xlink" version="1.1" viewBox="-10 0 1010 1000">
   <path fill="currentColor"
d="M843 268h-115c-7 125 -42 272 -172 380c-13 -12 -39 -31 -56 -40c120 -98 153 -229 161 -340h-127v-63h129v-1v-160h67v161h184s-1 22 -1 31c-10 261 -19 352 -43 383c-16 20 -32 27 -57 30c-22 1 -61 2 -101 0c-1 -21 -8 -48 -18 -66c38 4 72 4 87 4c14 0 23 -2 30 -12
c15 -19 24 -98 32 -307zM415 662l57 -29c55 45 117 110 145 154l-61 33c-25 -44 -87 -111 -141 -158zM416 227l55 7c-5 28 -11 55 -20 80c32 25 66 61 82 86l-40 33c-13 -20 -37 -47 -61 -71c-13 26 -30 50 -48 68c-10 -8 -32 -25 -45 -32c44 -42 67 -102 77 -171zM236 389
l-44 30c-8 -17 -24 -37 -42 -58c-16 32 -37 61 -61 83c-9 -8 -31 -25 -45 -34c50 -44 82 -108 96 -183l54 8c-5 28 -13 55 -23 80c25 22 52 53 65 74zM127 903l-69 -29c39 -49 79 -127 101 -183l66 24c-27 56 -63 136 -98 188zM331 659h-68v-178c-49 67 -114 127 -176 161
c-10 -15 -30 -37 -44 -49c86 -39 173 -125 220 -210v-181h-200v-61h200v-98h68v98h194v61h-194v215c34 18 146 92 174 112l-38 52c-26 -23 -90 -72 -136 -106v184zM413 880h221c52 0 60 -13 66 -104c17 12 48 21 69 25c-10 113 -34 140 -131 140h-229
c-115 0 -145 -19 -145 -90v-149h74v149c0 24 11 29 75 29zM757 704l66 -23c45 57 92 132 109 183l-72 27c-15 -51 -59 -129 -103 -187z" />
</svg>
