<?xml version="1.0" standalone="no"?>
<!DOCTYPE svg PUBLIC "-//W3C//DTD SVG 1.1//EN" "http://www.w3.org/Graphics/SVG/1.1/DTD/svg11.dtd" >
<svg xmlns="http://www.w3.org/2000/svg" xmlns:xlink="http://www.w3.org/1999/xlink" version="1.1" viewBox="-10 0 1010 1000">
   <path fill="currentColor"
d="M192 145v218c0 168 -11 425 -94 599c-12 -13 -44 -35 -59 -41c77 -165 84 -397 84 -558v-279h791v61h-722zM781 323v-62h-433v62h433zM781 431v-62h-433v62h433zM853 214v264h-259v114c0 34 -7 48 -33 58c-25 9 -63 9 -123 9c-4 -17 -15 -39 -24 -55c45 1 84 1 96 0
c12 0 15 -4 15 -13v-113h-245v-264h217c6 -23 13 -48 16 -67l83 14c-9 18 -17 36 -25 53h282zM496 706l50 -31c38 35 88 85 113 115l-51 36c-24 -32 -73 -83 -112 -120zM370 494l63 22c-49 48 -119 104 -172 139c-12 -13 -37 -34 -54 -44c57 -32 119 -77 163 -117zM900 611
l-48 45c-41 -33 -120 -87 -181 -125l46 -39c61 34 142 86 183 119zM236 912l-58 -25c33 -47 62 -124 78 -183l55 21c-18 59 -44 138 -75 187zM489 880h182c42 0 49 -11 53 -97c15 11 42 21 61 24c-8 109 -30 134 -108 134h-191c-99 0 -125 -18 -125 -88v-146h66v145
c0 24 9 28 62 28zM763 710l57 -22c42 53 94 125 120 168l-60 29c-24 -44 -75 -120 -117 -175z" />
</svg>
