<?xml version="1.0" standalone="no"?>
<!DOCTYPE svg PUBLIC "-//W3C//DTD SVG 1.1//EN" "http://www.w3.org/Graphics/SVG/1.1/DTD/svg11.dtd" >
<svg xmlns="http://www.w3.org/2000/svg" xmlns:xlink="http://www.w3.org/1999/xlink" version="1.1" viewBox="-10 0 1010 1000">
   <path fill="currentColor"
d="M91 508l-54 -18c21 -67 37 -177 42 -255l52 7c-3 78 -19 192 -40 266zM170 959v-915h68v915h-68zM246 224l49 -25c24 48 51 111 63 147l-52 31c-11 -40 -37 -104 -60 -153zM604 624h-156v91h156v-91zM826 715v-91h-159v91h159zM667 859h159v-93h-159v93zM448 766v93h156
v-93h-156zM380 955v-386h516v386h-70v-39h-378v39h-68zM756 376l50 -27c55 50 118 122 150 168l-53 32c-11 -17 -27 -39 -45 -62c-441 30 -483 33 -511 44c-2 -14 -12 -47 -19 -65c29 -4 66 -18 115 -38c29 -12 91 -43 164 -82c-184 15 -210 20 -227 27
c-3 -14 -12 -45 -18 -60c17 -3 38 -12 61 -27c20 -11 71 -45 121 -87h-218v-62h284c-11 -26 -24 -58 -35 -82l70 -19c17 32 36 73 47 101h261v62h-319c-49 41 -99 77 -149 108l216 -15c36 -21 71 -45 105 -68l61 39c-120 79 -243 144 -364 195l312 -20
c-19 -21 -40 -43 -59 -62z" />
</svg>
