<?xml version="1.0" standalone="no"?>
<!DOCTYPE svg PUBLIC "-//W3C//DTD SVG 1.1//EN" "http://www.w3.org/Graphics/SVG/1.1/DTD/svg11.dtd" >
<svg xmlns="http://www.w3.org/2000/svg" xmlns:xlink="http://www.w3.org/1999/xlink" version="1.1" viewBox="-10 0 1010 1000">
   <path fill="currentColor"
d="M767 338l-38 40c-23 -24 -69 -58 -110 -86c-24 37 -53 69 -88 94c-7 -10 -29 -28 -43 -36c65 -44 107 -108 126 -189l55 6c-6 29 -15 56 -27 81c44 26 97 63 125 90zM796 406v-259h-329v259h329zM867 83v387h-468v-387h468zM91 505l-54 -32c35 -54 49 -150 51 -236l60 9
c-2 93 -16 196 -57 259zM174 955v-912h72v912h-72zM367 350l-54 29c-11 -40 -37 -105 -62 -155l52 -23c25 48 53 110 64 149zM432 618v243h94v-243h-94zM677 618h-94v243h94v-243zM829 618h-95v243h95v-243zM897 861h60v67h-657v-67h68v-308h529v308z" />
</svg>
