<?xml version="1.0" standalone="no"?>
<!DOCTYPE svg PUBLIC "-//W3C//DTD SVG 1.1//EN" "http://www.w3.org/Graphics/SVG/1.1/DTD/svg11.dtd" >
<svg xmlns="http://www.w3.org/2000/svg" xmlns:xlink="http://www.w3.org/1999/xlink" version="1.1" viewBox="-10 0 1010 1000">
   <path fill="currentColor"
d="M551 171h-364c-28 39 -58 75 -89 101c-12 -11 -40 -29 -56 -38c60 -46 113 -116 143 -189l62 17c-7 19 -17 37 -27 56h331v53zM372 335l-28 31c-17 -22 -52 -49 -81 -66l26 -28c30 16 66 42 83 63zM337 510h74c4 -31 7 -65 11 -98h-237c-5 34 -11 69 -16 98h164
c-17 -23 -53 -52 -85 -71l28 -27c31 19 69 47 87 69zM434 270h-230c-4 31 -9 65 -14 98h235c4 -33 7 -67 9 -98zM152 222h344c-4 44 -8 93 -13 142h70v52h-74c-4 32 -7 65 -10 94h57v49h-63c-2 19 -5 35 -7 51l-59 -2c2 -15 5 -31 7 -49h-303c8 -39 17 -90 25 -143h-69v-52
h77c7 -49 13 -99 18 -142zM380 658l46 -41c63 28 137 77 173 115l-50 45c-35 -38 -106 -89 -169 -119zM118 927l-64 -38c52 -50 96 -131 122 -198l63 26c-28 70 -68 155 -121 210zM436 876h184c44 0 51 -13 55 -105c17 11 47 23 68 27c-10 117 -33 145 -117 145h-195
c-105 0 -131 -20 -131 -96v-154h73v153c0 25 9 30 63 30zM722 711l61 -32c66 60 134 143 162 204l-65 33c-26 -59 -93 -145 -158 -205zM807 222h-158c21 68 50 129 88 182c33 -51 56 -110 70 -182zM949 222h-71c-20 95 -51 173 -96 237c50 52 110 92 183 117
c-16 13 -35 38 -44 57c-72 -28 -132 -70 -181 -123c-47 49 -103 87 -172 118c-7 -15 -28 -44 -42 -58c69 -28 126 -65 170 -113c-35 -48 -64 -103 -87 -164c-15 22 -30 42 -46 59c-10 -12 -35 -38 -51 -49c61 -62 106 -158 130 -260l67 15c-9 35 -19 70 -32 102h272v62z" />
</svg>
