<?xml version="1.0" standalone="no"?>
<!DOCTYPE svg PUBLIC "-//W3C//DTD SVG 1.1//EN" "http://www.w3.org/Graphics/SVG/1.1/DTD/svg11.dtd" >
<svg xmlns="http://www.w3.org/2000/svg" xmlns:xlink="http://www.w3.org/1999/xlink" version="1.1" viewBox="-10 0 1010 1000">
   <path fill="currentColor"
d="M704 235h-112c-14 34 -30 65 -47 91c-10 -9 -37 -25 -51 -32c40 -57 67 -142 85 -225l60 12c-7 30 -15 61 -25 90h90v-126h67v126h160v64h-160v116h186v63h-459v-63h206v-116zM630 702h214v-147h-214v147zM912 797h-68v-35h-214v41h-67v-310h349v304zM463 282l-62 22
c-13 -51 -48 -133 -84 -194l59 -19c36 59 73 139 87 191zM87 508l-53 -18c22 -67 38 -177 45 -254l50 7c-4 77 -20 191 -42 265zM159 955v-911h66v911h-66zM238 214l51 -17c20 57 43 132 50 175l-54 23c-8 -46 -28 -122 -47 -181zM473 430v342c13 11 26 26 45 42
c44 35 101 44 182 44c74 0 189 -5 262 -14c-8 19 -18 55 -19 75c-64 3 -183 7 -243 7c-90 0 -147 -15 -193 -51c-30 -26 -53 -54 -68 -54c-26 0 -66 55 -106 116l-48 -66c43 -49 85 -89 122 -106v-270h-101v-65h167z" />
</svg>
