<?xml version="1.0" standalone="no"?>
<!DOCTYPE svg PUBLIC "-//W3C//DTD SVG 1.1//EN" "http://www.w3.org/Graphics/SVG/1.1/DTD/svg11.dtd" >
<svg xmlns="http://www.w3.org/2000/svg" xmlns:xlink="http://www.w3.org/1999/xlink" version="1.1" viewBox="-10 0 1010 1000">
   <path fill="currentColor"
d="M815 217h-158c-5 13 -11 24 -17 37c21 53 52 104 89 150c38 -54 67 -117 86 -187zM942 217h-57c-23 90 -59 171 -109 238c51 51 113 92 179 117c-17 12 -41 34 -53 52c-63 -28 -120 -70 -169 -119c-52 52 -117 95 -194 120c-12 -17 -33 -39 -53 -52
c83 -23 150 -64 202 -119c-33 -42 -62 -88 -85 -137c-22 32 -45 60 -71 86c-11 -13 -37 -36 -53 -47c79 -72 134 -186 164 -312l70 12c-8 34 -18 68 -30 99h259v62zM409 623l56 -32c55 50 118 122 146 171l-61 37c-26 -48 -88 -124 -141 -176zM80 551l-33 -52
c57 -30 138 -79 219 -128v-140h-202v-62h202v-125h72v125h115c-16 -26 -50 -64 -82 -90l51 -29c32 26 69 62 84 89l-49 30h67v62h-186v138l12 6c37 -35 82 -87 108 -124l54 35c-33 41 -76 87 -113 119c46 30 92 62 119 87l-43 45c-30 -29 -85 -69 -137 -103v123
c0 37 -10 53 -36 63c-28 10 -72 10 -144 10c-3 -16 -13 -40 -22 -56c51 1 98 1 111 0c14 -1 19 -4 19 -17v-122c-65 41 -131 83 -186 116zM229 359l-50 35c-19 -31 -59 -78 -94 -111l47 -31c36 32 78 77 97 107zM121 913l-68 -31c40 -59 79 -150 101 -215l65 27
c-27 65 -62 159 -98 219zM414 874h219c53 0 62 -15 67 -115c17 12 48 23 69 27c-11 126 -34 157 -131 157h-228c-115 0 -146 -22 -146 -102v-177h75v177c0 28 11 33 75 33zM757 676l67 -24c45 68 91 159 108 219l-73 29c-15 -60 -58 -153 -102 -224z" />
</svg>
