<?xml version="1.0" standalone="no"?>
<!DOCTYPE svg PUBLIC "-//W3C//DTD SVG 1.1//EN" "http://www.w3.org/Graphics/SVG/1.1/DTD/svg11.dtd" >
<svg xmlns="http://www.w3.org/2000/svg" xmlns:xlink="http://www.w3.org/1999/xlink" version="1.1" viewBox="-10 0 1010 1000">
   <path fill="currentColor"
d="M519 389v56h294v-56h-294zM519 290v55h294v-55h-294zM454 491v-232c-18 25 -38 47 -57 67c-13 -11 -42 -31 -59 -41c66 -60 124 -150 157 -242l68 18c-10 25 -21 50 -33 74h415v60h-448c-11 17 -22 34 -33 50h416v246h-426zM81 513l-50 -23c34 -60 50 -168 52 -255l50 7
c0 90 -16 203 -52 271zM172 955v-912h70v912h-70zM362 394l-50 22c-8 -50 -34 -131 -62 -193l46 -17c31 60 58 140 66 188zM956 596h-391c-14 21 -29 41 -46 61h416s-1 20 -3 30c-18 154 -37 217 -65 243c-15 15 -32 21 -55 23c-20 1 -56 1 -94 -1c-1 -18 -8 -44 -17 -60
c36 3 69 4 82 4c15 0 23 -1 32 -9c16 -17 32 -64 46 -170h-76c-44 100 -114 184 -190 241c-10 -11 -33 -32 -48 -42c71 -48 133 -117 172 -199h-93c-57 89 -144 164 -228 214c-9 -12 -31 -35 -44 -46c76 -39 150 -99 201 -168h-95c-35 31 -71 58 -107 80
c-10 -11 -33 -36 -47 -46c70 -38 139 -93 186 -155h-152v-59h616v59z" />
</svg>
