<?xml version="1.0" standalone="no"?>
<!DOCTYPE svg PUBLIC "-//W3C//DTD SVG 1.1//EN" "http://www.w3.org/Graphics/SVG/1.1/DTD/svg11.dtd" >
<svg xmlns="http://www.w3.org/2000/svg" xmlns:xlink="http://www.w3.org/1999/xlink" version="1.1" viewBox="-10 0 1010 1000">
   <path fill="currentColor"
d="M841 279h-162v56h162v-56zM841 436v-56h-162v56h162zM679 546l126 -4c-16 -13 -32 -26 -47 -37l33 -22h-112v63zM452 436h154v-56h-154v56zM452 279v56h154v-56h-154zM606 233v-54h-259v-59h259v-77h73v77h265v59h-265v54h232v250h-91c54 38 111 88 140 125l-50 37
c-12 -15 -27 -32 -45 -50c-189 8 -387 15 -523 20l-7 -61c73 -1 168 -3 271 -6v-65h-222v-250h222zM80 513l-49 -23c34 -60 50 -168 52 -255l50 7c0 90 -16 203 -53 271zM172 955v-912h70v912h-70zM250 223l46 -17c31 60 58 140 66 188l-50 22c-8 -50 -34 -131 -62 -193z
M408 786l47 -39c43 34 96 83 120 115l-49 45c-24 -35 -75 -86 -118 -121zM783 614v65h173v60h-173v140c0 39 -8 57 -38 67c-29 10 -78 10 -149 10c-4 -18 -14 -44 -23 -63c55 2 103 2 118 1c15 0 19 -4 19 -16v-139h-396v-60h396v-65h73z" />
</svg>
