<?xml version="1.0" standalone="no"?>
<!DOCTYPE svg PUBLIC "-//W3C//DTD SVG 1.1//EN" "http://www.w3.org/Graphics/SVG/1.1/DTD/svg11.dtd" >
<svg xmlns="http://www.w3.org/2000/svg" xmlns:xlink="http://www.w3.org/1999/xlink" version="1.1" viewBox="-10 0 1010 1000">
   <path fill="currentColor"
d="M82 509l-52 -18c23 -68 39 -177 45 -256l50 6c-5 79 -20 193 -43 268zM156 956v-912h68v912h-68zM333 406l-49 17c-8 -50 -28 -136 -46 -202l46 -12c20 65 41 149 49 197zM692 449v80h139v-80h-139zM692 325v71h139v-71h-139zM873 605l53 41c-42 37 -92 73 -134 100
c49 43 108 78 169 101c-12 16 -24 42 -29 61c-90 -41 -175 -105 -237 -179v152c0 34 -7 50 -32 60s-63 11 -123 11c-4 -18 -14 -42 -23 -59c46 2 85 1 97 1c13 -1 16 -4 16 -15v-100c-69 38 -139 77 -198 107l-29 -56c58 -25 142 -66 227 -108v-139h-170v-54h177v-80h-194
v-53h194v-71h-173v-54h168v-73h-214v288c0 141 -13 340 -96 467c-11 -13 -40 -35 -54 -42c76 -121 83 -293 83 -425v-349h263c-11 -30 -26 -66 -40 -94l69 -15c19 35 37 77 49 109h256v61h-250v73h188v120h63v64h-63v128h-191v50c16 26 35 51 58 75c40 -30 91 -72 120 -103z
M578 695l-36 45c-22 -27 -67 -70 -103 -99l35 -38c38 29 82 67 104 92z" />
</svg>
