<?xml version="1.0" standalone="no"?>
<!DOCTYPE svg PUBLIC "-//W3C//DTD SVG 1.1//EN" "http://www.w3.org/Graphics/SVG/1.1/DTD/svg11.dtd" >
<svg xmlns="http://www.w3.org/2000/svg" xmlns:xlink="http://www.w3.org/1999/xlink" version="1.1" viewBox="-10 0 1010 1000">
   <path fill="currentColor"
d="M95 509l-54 -19c22 -67 39 -177 45 -255l52 7c-4 79 -20 192 -43 267zM168 956v-913h69v913h-69zM478 859h291v-71h-291v71zM478 669v70h291v-70h-291zM769 621v-71h-291v71h291zM712 404h-169c-18 30 -40 59 -63 86h292c-23 -26 -44 -56 -60 -86zM941 404h-154
c44 63 111 116 183 143c-15 14 -37 40 -48 58c-28 -13 -55 -29 -80 -49v397h-73v-39h-291v42h-71v-395c-25 21 -51 39 -80 57c-9 -17 -30 -41 -46 -53c76 -44 135 -99 180 -161h-143v-51l-27 10c-7 -38 -23 -100 -39 -147l48 -13c17 45 34 104 42 139h158
c15 -27 29 -55 39 -83h-185v-62h105c-17 -31 -53 -76 -83 -110l55 -30c31 33 69 80 88 111l-49 29h90c14 -53 24 -106 28 -157l70 5c-5 50 -14 101 -28 152h110l-28 -12c28 -33 64 -86 84 -122l67 25c-28 38 -59 80 -87 109h137v62h-301c-10 28 -22 56 -36 83h365v62z" />
</svg>
