<?xml version="1.0" standalone="no"?>
<!DOCTYPE svg PUBLIC "-//W3C//DTD SVG 1.1//EN" "http://www.w3.org/Graphics/SVG/1.1/DTD/svg11.dtd" >
<svg xmlns="http://www.w3.org/2000/svg" xmlns:xlink="http://www.w3.org/1999/xlink" version="1.1" viewBox="-10 0 1010 1000">
   <path fill="currentColor"
d="M716 295h-143c-21 30 -46 59 -78 85c-9 -11 -27 -26 -40 -34c55 -41 91 -97 110 -145l54 8c-6 13 -12 26 -19 40h143l10 -2l35 15c-21 60 -55 111 -96 154c29 21 56 43 74 61l-36 40c-18 -20 -46 -44 -76 -67c-44 34 -93 60 -144 78c-8 -12 -22 -33 -33 -43
c46 -14 92 -37 133 -67c-24 -17 -47 -32 -70 -45l36 -34c23 13 49 29 73 45c27 -25 50 -56 67 -89zM830 546v-358h-402v358h402zM893 129v476h-526v-476h172c11 -29 25 -64 32 -89l78 15c-13 25 -26 51 -39 74h283zM545 640l53 -24c45 39 99 98 125 137l-55 28
c-24 -39 -77 -99 -123 -141zM94 507l-54 -17c21 -68 37 -177 43 -255l50 7c-3 77 -19 191 -39 265zM167 956v-912h68v912h-68zM246 220l49 -15c24 63 46 145 52 193l-54 20c-7 -50 -26 -134 -47 -198zM349 893l-55 -30c33 -48 57 -130 70 -195l56 20c-15 68 -37 153 -71 205
zM571 870h155c37 0 44 -13 47 -114c15 11 42 21 60 25c-8 122 -27 150 -101 150h-166c-89 0 -112 -19 -112 -89v-176h65v175c0 25 7 29 52 29zM789 667l53 -23c46 60 91 139 111 193l-57 26c-19 -53 -64 -135 -107 -196z" />
</svg>
