<?xml version="1.0" standalone="no"?>
<!DOCTYPE svg PUBLIC "-//W3C//DTD SVG 1.1//EN" "http://www.w3.org/Graphics/SVG/1.1/DTD/svg11.dtd" >
<svg xmlns="http://www.w3.org/2000/svg" xmlns:xlink="http://www.w3.org/1999/xlink" version="1.1" viewBox="-10 0 1010 1000">
   <path fill="currentColor"
d="M89 508l-53 -18c22 -68 38 -177 43 -254l50 6c-3 77 -18 191 -40 266zM158 959v-914h70v914h-70zM437 700l62 21c-42 64 -102 140 -149 189c-12 -11 -40 -30 -56 -38c51 -47 105 -113 143 -172zM911 659h-236v213c0 37 -8 55 -36 65c-29 11 -72 11 -135 11
c-4 -19 -15 -45 -25 -63c54 2 97 2 110 1c15 -1 18 -5 18 -16v-211h-237v-63h541v63zM763 731l55 -30c46 55 105 129 135 174l-58 38c-29 -47 -86 -124 -132 -182zM874 185h-147c15 53 35 101 59 145c34 -41 67 -95 88 -145zM917 125l41 25c-33 83 -87 171 -142 230
c41 60 92 107 153 139c-15 11 -34 36 -44 54c-52 -30 -97 -70 -134 -118v48h-295v-55c-47 54 -100 97 -157 128c-8 -13 -25 -36 -38 -47c50 -25 98 -63 141 -110c-23 -20 -52 -43 -77 -60l35 -35c24 14 54 35 76 53c15 -19 29 -41 42 -63c-23 -18 -55 -36 -80 -51l30 -40
c24 13 52 28 75 44c14 -29 25 -60 34 -91h-107c-33 62 -73 115 -116 156c-8 -6 -23 -19 -37 -28c9 27 16 52 20 71l-53 23c-8 -45 -29 -118 -51 -174l50 -17c11 26 21 54 30 81c66 -60 119 -149 150 -244l59 13c-7 22 -15 42 -24 63h103l10 -2l40 15
c-30 126 -83 230 -150 309h280c-70 -96 -115 -224 -142 -372l58 -10c4 24 9 46 15 69h194z" />
</svg>
