<?xml version="1.0" standalone="no"?>
<!DOCTYPE svg PUBLIC "-//W3C//DTD SVG 1.1//EN" "http://www.w3.org/Graphics/SVG/1.1/DTD/svg11.dtd" >
<svg xmlns="http://www.w3.org/2000/svg" xmlns:xlink="http://www.w3.org/1999/xlink" version="1.1" viewBox="-10 0 1010 1000">
   <path fill="currentColor"
d="M91 509l-54 -19c22 -67 38 -177 45 -255l52 7c-4 78 -20 193 -43 267zM168 955v-911h68v911h-68zM251 221l51 -18c17 46 36 106 45 142l-53 22c-8 -37 -27 -99 -43 -146zM741 711l75 23c-22 42 -49 90 -71 127h200v65h-627v-65h177c-9 -35 -28 -87 -46 -127l62 -21
c20 41 41 94 49 128l-50 20h163c24 -41 52 -105 68 -150zM778 643v-127h-295v127h295zM849 458v242h-434v-242h434zM900 191l42 48c-33 27 -72 54 -104 74c35 40 76 74 125 103c-17 13 -36 37 -46 57c-57 -37 -104 -79 -144 -130v38h-272v-40c-47 64 -103 114 -163 150
c-8 -17 -28 -42 -43 -54c57 -31 112 -80 157 -142c-26 -21 -65 -48 -96 -67l36 -44c30 18 66 42 93 61c19 -32 36 -68 48 -104h-171v-60h196l13 -2l42 17c-21 85 -55 161 -97 224h240c-44 -65 -78 -146 -107 -253l61 -13c10 38 21 72 34 104c30 -24 67 -56 88 -80l42 47
c-35 29 -76 59 -110 79c13 26 26 47 41 68c32 -24 72 -58 95 -81z" />
</svg>
