<?xml version="1.0" standalone="no"?>
<!DOCTYPE svg PUBLIC "-//W3C//DTD SVG 1.1//EN" "http://www.w3.org/Graphics/SVG/1.1/DTD/svg11.dtd" >
<svg xmlns="http://www.w3.org/2000/svg" xmlns:xlink="http://www.w3.org/1999/xlink" version="1.1" viewBox="-10 0 1010 1000">
   <path fill="currentColor"
d="M693 242v-80h-103v80h103zM862 301h-107v126h107v-126zM590 301v126h103v-126h-103zM432 301v126h97v-126h-97zM529 242v-80h-183v-62h600v62h-191v80h171v244h-555v-244h158zM81 513l-50 -23c34 -60 50 -168 52 -255l50 7c0 90 -16 203 -52 271zM172 955v-912h70v912
h-70zM362 394l-50 22c-8 -50 -34 -131 -62 -193l46 -17c31 60 58 140 66 188zM947 714h-211c58 69 145 131 228 164c-16 13 -39 39 -48 56c-88 -41 -182 -119 -244 -202v225h-68v-220c-63 83 -160 158 -250 200c-12 -18 -32 -43 -48 -56c86 -33 177 -97 237 -167h-210v-63
h130c-10 -36 -37 -86 -64 -125l62 -19c30 39 59 91 68 127l-53 17h128v-156h68v156h127l-50 -17c22 -36 53 -92 68 -131l69 21c-26 46 -56 94 -80 127h141v63z" />
</svg>
