<?xml version="1.0" standalone="no"?>
<!DOCTYPE svg PUBLIC "-//W3C//DTD SVG 1.1//EN" "http://www.w3.org/Graphics/SVG/1.1/DTD/svg11.dtd" >
<svg xmlns="http://www.w3.org/2000/svg" xmlns:xlink="http://www.w3.org/1999/xlink" version="1.1" viewBox="-10 0 1010 1000">
   <path fill="currentColor"
d="M846 84l62 25c-31 39 -65 80 -92 108l-47 -21c26 -31 59 -80 77 -112zM568 89l50 18c-15 49 -39 103 -79 135l-48 -31c37 -27 64 -77 77 -122zM418 85l61 25c-30 39 -63 80 -90 107l-45 -20c25 -31 57 -80 74 -112zM161 89l50 18c-15 49 -38 102 -79 135l-46 -31
c36 -27 62 -77 75 -122zM84 351h25c-7 -15 -22 -35 -33 -45c158 -40 187 -110 195 -262h62c-3 60 -9 109 -23 151c47 30 112 74 144 102l-47 44c-27 -25 -77 -63 -121 -94c-30 47 -77 80 -154 104h393c-6 -15 -23 -38 -35 -49c156 -40 185 -108 192 -258h63
c-3 58 -9 106 -22 146c54 35 127 84 164 116l-47 45c-31 -28 -90 -72 -141 -107c-31 49 -82 83 -166 107h383v152h-71v-96h-328c-4 25 -9 48 -15 70h316s-1 19 -3 29c-12 94 -25 137 -46 155c-15 14 -33 20 -58 21c-22 1 -67 1 -112 -2c-1 -18 -9 -42 -19 -59
c44 4 88 5 103 5c16 0 25 -1 32 -7c10 -10 18 -34 27 -87h-262c-49 93 -148 145 -359 172c-4 -15 -20 -44 -32 -57c176 -19 265 -54 312 -115h-223v-55h253c8 -21 13 -44 17 -70h-295v96h-69v-152zM389 695l47 -40c60 27 131 71 164 108l-50 44c-32 -37 -100 -83 -161 -112z
M99 930l-56 -43c74 -32 119 -92 139 -160l63 23c-23 75 -64 143 -146 180zM435 881h179c41 0 49 -12 53 -97c15 12 44 20 63 24c-9 107 -31 133 -109 133h-192c-101 0 -126 -18 -126 -88v-131h72v130c0 25 8 29 60 29zM720 751l58 -36c70 47 145 117 179 173l-62 39
c-30 -54 -104 -127 -175 -176z" />
</svg>
