<?xml version="1.0" standalone="no"?>
<!DOCTYPE svg PUBLIC "-//W3C//DTD SVG 1.1//EN" "http://www.w3.org/Graphics/SVG/1.1/DTD/svg11.dtd" >
<svg xmlns="http://www.w3.org/2000/svg" xmlns:xlink="http://www.w3.org/1999/xlink" version="1.1" viewBox="-10 0 1010 1000">
   <path fill="currentColor"
d="M94 510l-56 -19c26 -66 44 -175 51 -255l54 7c-5 80 -23 195 -49 267zM163 956v-912h68v912h-68zM337 362l-53 23c-8 -42 -29 -111 -49 -163l50 -18c21 51 44 119 52 158zM502 423v-71c-28 68 -81 140 -176 203c-10 -13 -29 -32 -44 -43c96 -57 144 -121 167 -183h-116
c9 -45 17 -113 21 -166l58 4c-4 33 -9 71 -14 104h67c6 -34 7 -66 7 -94v-39h-139v-57h284v57h-83v40c0 28 -2 60 -8 93h90v58h-61v108l73 -38c5 13 13 32 19 42c-118 68 -139 82 -151 96c-4 -14 -17 -36 -26 -47c12 -8 32 -27 32 -67zM813 635h-352v83h352v-83zM461 862
h352v-90h-352v90zM391 957v-381h495v377h-73v-32h-352v36h-70zM849 489h39c15 0 18 -6 20 -78c11 8 33 16 49 20c-5 89 -20 109 -61 109h-54c-50 0 -62 -14 -62 -69v-57c-28 49 -68 99 -128 144c-9 -13 -29 -32 -44 -42c82 -57 125 -122 148 -185h-94v-1h-26
c9 -45 18 -114 22 -168l58 4c-4 34 -9 73 -15 107h69c8 -40 9 -77 9 -107v-28h-129v-57h285v57h-95v29c0 30 -2 67 -9 106h111v58h-126c-3 10 -7 20 -10 29h28v111c0 16 2 18 15 18z" />
</svg>
