<?xml version="1.0" standalone="no"?>
<!DOCTYPE svg PUBLIC "-//W3C//DTD SVG 1.1//EN" "http://www.w3.org/Graphics/SVG/1.1/DTD/svg11.dtd" >
<svg xmlns="http://www.w3.org/2000/svg" xmlns:xlink="http://www.w3.org/1999/xlink" version="1.1" viewBox="-10 0 1010 1000">
   <path fill="currentColor"
d="M845 234v-67h-90v67h90zM845 350v-69h-90v69h90zM431 281v69h102v-69h-102zM431 167v67h102v-67h-102zM696 281h-103v69h103v-69zM696 167h-103v67h103v-67zM908 118v281h-537v-281h162v-72h60v72h103v-72h59v72h153zM93 510l-56 -20c22 -68 38 -176 44 -255l55 7
c-4 79 -20 193 -43 268zM160 956v-913h66v913h-66zM340 404l-54 21c-8 -51 -30 -139 -52 -204l51 -17c22 66 46 151 55 200zM895 715l42 38c-37 27 -83 51 -122 70c41 30 91 54 148 66c-14 14 -32 39 -41 55c-128 -37 -220 -119 -270 -234h-102v158l140 -31c1 18 5 43 8 57
c-180 42 -207 51 -224 62c-4 -17 -17 -44 -27 -57c15 -8 37 -24 37 -65v-124h-74c-12 87 -40 180 -100 251c-12 -13 -40 -32 -56 -39c84 -99 97 -235 97 -334v-143h594v57h-527v87c0 21 -1 43 -2 66h533v55h-233c15 29 35 56 58 79c42 -21 92 -53 121 -74zM887 602h-424v-49
h424v49z" />
</svg>
