<?xml version="1.0" standalone="no"?>
<!DOCTYPE svg PUBLIC "-//W3C//DTD SVG 1.1//EN" "http://www.w3.org/Graphics/SVG/1.1/DTD/svg11.dtd" >
<svg xmlns="http://www.w3.org/2000/svg" xmlns:xlink="http://www.w3.org/1999/xlink" version="1.1" viewBox="-10 0 1010 1000">
   <path fill="currentColor"
d="M492 250v-65h-163v-59h163v-77h66v77h153v-77h66v77h155v59h-155v65h-66v-65h-153v65h-66zM88 509l-56 -19c22 -68 39 -176 45 -255l54 8c-4 78 -20 193 -43 266zM160 956v-913h65v913h-65zM340 373l-55 24c-8 -46 -30 -122 -50 -179l51 -18c22 57 45 130 54 173z
M336 899l-58 -25c34 -51 61 -134 74 -198l56 21c-17 65 -40 150 -72 202zM689 349h-86c-12 30 -27 59 -42 86c26 10 52 21 77 31c21 -36 37 -75 51 -117zM760 530l-33 53c-18 -12 -42 -26 -68 -40c-28 39 -58 73 -90 101c-11 -10 -35 -29 -49 -38c31 -25 60 -54 85 -88
c-25 -12 -51 -23 -77 -34c-33 43 -71 81 -112 110c-9 -11 -32 -30 -47 -40c38 -25 73 -55 103 -91c-22 -8 -44 -15 -63 -22l31 -46c21 6 42 13 65 21c13 -22 24 -43 34 -67h-98c-26 43 -56 82 -86 113c-11 -11 -36 -29 -49 -38c53 -47 99 -119 126 -191l59 15l-18 42h417
s-1 20 -3 29c-14 205 -29 283 -53 309c-14 16 -28 23 -48 24c-16 2 -41 2 -66 1c-2 -18 -7 -43 -15 -59c24 2 43 3 53 3s17 -2 25 -11c15 -16 27 -78 40 -237h-71c-16 51 -37 99 -61 142c26 14 51 26 69 39zM535 675l42 -34c54 40 116 97 145 137l-44 38
c-29 -41 -90 -100 -143 -141zM560 877h165c37 0 43 -12 47 -99c14 11 40 21 59 25c-9 107 -28 133 -101 133h-175c-90 0 -114 -18 -114 -86v-176h64v175c0 24 8 28 55 28zM789 699l47 -26c43 55 88 129 105 178l-51 29c-16 -49 -59 -125 -101 -181z" />
</svg>
