<?xml version="1.0" standalone="no"?>
<!DOCTYPE svg PUBLIC "-//W3C//DTD SVG 1.1//EN" "http://www.w3.org/Graphics/SVG/1.1/DTD/svg11.dtd" >
<svg xmlns="http://www.w3.org/2000/svg" xmlns:xlink="http://www.w3.org/1999/xlink" version="1.1" viewBox="-10 0 1010 1000">
   <path fill="currentColor"
d="M88 508l-54 -18c23 -67 39 -177 45 -255l52 7c-4 78 -20 192 -43 266zM207 216l44 -15c21 56 42 128 49 171l-47 19c-8 -43 -26 -116 -46 -172v740h-63v-916h63v173zM359 408v84h88v-84h-88zM586 492v-84h-87v84h87zM402 181v66h138v-66h-138zM938 265v34
c-10 429 -20 565 -47 606c-17 23 -34 31 -58 34c-22 3 -57 2 -91 0c-1 -18 -7 -44 -18 -61c37 3 68 3 83 3c13 0 21 -3 29 -16c20 -29 31 -160 40 -537h-78c-8 267 -33 484 -134 628c-11 -14 -36 -34 -52 -42c7 -10 14 -20 21 -32c-126 16 -254 30 -351 42l-7 -67
c46 -4 103 -9 166 -13v-71h-135v-56h135v-56h-153v-56h153v-58h-141v-193h139v-54h-98v-119h-70v-56h70v-80h61v80h138v-80h63v80h72v56h-72v119h-97v54h142v193h-143v58h144v56h-144v56h124v56h-124v65l137 -13v40c70 -129 89 -315 94 -537h-72v-63h74c1 -70 1 -144 1 -220
h62c0 76 -1 150 -2 220h139z" />
</svg>
