<?xml version="1.0" standalone="no"?>
<!DOCTYPE svg PUBLIC "-//W3C//DTD SVG 1.1//EN" "http://www.w3.org/Graphics/SVG/1.1/DTD/svg11.dtd" >
<svg xmlns="http://www.w3.org/2000/svg" xmlns:xlink="http://www.w3.org/1999/xlink" version="1.1" viewBox="-10 0 1010 1000">
   <path fill="currentColor"
d="M87 501l-53 -17c22 -68 38 -178 45 -255l50 7c-4 77 -20 192 -42 265zM158 956v-913h64v913h-64zM335 401l-54 18c-7 -52 -27 -140 -47 -207l50 -15c22 67 44 153 51 204zM423 272v221c0 140 -15 335 -112 463c-12 -12 -39 -31 -55 -38c92 -123 102 -295 102 -426v-276
h223v-173h72v63h241v55h-241v55h239l11 -2l46 10c-13 49 -30 105 -45 139l-57 -13c8 -20 17 -50 25 -78h-235v62l185 -22l6 46l-191 23v22c0 22 7 25 44 25h139c25 0 31 -6 34 -48c14 8 36 15 53 19c-6 60 -24 76 -80 76h-152c-80 0 -101 -13 -101 -72v-14l-128 14l-6 -46
l134 -15v-70h-151zM886 590l44 35c-30 20 -66 43 -101 62c25 77 77 147 144 180c-14 11 -34 32 -43 48c-68 -39 -118 -119 -146 -203c-12 6 -24 12 -36 17c28 84 15 169 -19 202c-22 21 -42 27 -72 28c-16 0 -36 -1 -55 -2c-1 -15 -6 -39 -16 -55c24 3 44 3 58 3
c16 0 30 -1 40 -14c19 -16 28 -65 17 -121c-71 61 -179 125 -267 161c-6 -14 -19 -35 -32 -45c98 -31 221 -102 285 -165c-5 -12 -10 -25 -17 -37c-59 47 -147 94 -217 120c-6 -13 -18 -32 -30 -42c75 -21 168 -68 222 -112c-8 -10 -17 -19 -28 -28c-47 27 -100 51 -150 66
c-5 -11 -17 -30 -24 -41c65 -19 141 -52 193 -88h-190v-52h470v52h-209c-14 13 -29 25 -46 36c31 28 54 59 71 92c54 -28 115 -68 154 -97z" />
</svg>
