<?xml version="1.0" standalone="no"?>
<!DOCTYPE svg PUBLIC "-//W3C//DTD SVG 1.1//EN" "http://www.w3.org/Graphics/SVG/1.1/DTD/svg11.dtd" >
<svg xmlns="http://www.w3.org/2000/svg" xmlns:xlink="http://www.w3.org/1999/xlink" version="1.1" viewBox="-10 0 1010 1000">
   <path fill="currentColor"
d="M434 192v429h-63v-492h174c16 -29 32 -65 40 -90l78 18c-15 25 -30 49 -44 72h287v492h-66v-429h-406zM822 366v52h-155v151h-56v-115c-32 47 -78 96 -119 126c-7 -14 -23 -36 -34 -47c41 -25 86 -70 118 -115h-119v-52h154v-150h56v150h155zM688 460l36 -29
c32 30 72 70 93 95l-38 35c-20 -28 -59 -70 -91 -101zM474 252l45 -21c24 33 52 75 65 101l-46 24c-14 -27 -41 -72 -64 -104zM749 229l55 19c-24 37 -48 77 -70 103l-42 -15c19 -30 44 -76 57 -107zM88 511l-55 -21c25 -65 42 -174 48 -255l54 7c-4 82 -20 197 -47 269z
M169 955v-912h68v912h-68zM357 394l-51 23c-11 -48 -38 -132 -61 -194l47 -17c26 63 53 143 65 188zM951 728h-272c50 90 147 145 286 166c-17 14 -34 42 -44 60c-139 -27 -235 -88 -293 -187c-46 90 -129 152 -292 190c-7 -17 -25 -46 -39 -60c160 -32 233 -88 271 -169
h-247v-61h267c6 -23 11 -49 14 -76h72c-3 26 -7 52 -13 76h290v61z" />
</svg>
