<?xml version="1.0" standalone="no"?>
<!DOCTYPE svg PUBLIC "-//W3C//DTD SVG 1.1//EN" "http://www.w3.org/Graphics/SVG/1.1/DTD/svg11.dtd" >
<svg xmlns="http://www.w3.org/2000/svg" xmlns:xlink="http://www.w3.org/1999/xlink" version="1.1" viewBox="-10 0 1010 1000">
   <path fill="currentColor"
d="M463 221v-55h-163v-54h163v-68h70v68h172v-68h71v68h155v54h-155v55h-71v-55h-172v55h-70zM238 320l-41 53c-33 -26 -100 -61 -153 -83l40 -48c53 20 119 51 154 78zM129 937l-62 -37c49 -44 92 -116 116 -174l62 27c-28 61 -66 136 -116 184zM118 688l-56 -45
c44 -57 109 -151 159 -235l46 41c-44 79 -100 167 -149 239zM85 104l39 -48c52 20 117 52 152 79l-41 52c-33 -26 -97 -61 -150 -83zM547 368h130c2 -22 4 -45 5 -69h-129c-2 24 -4 47 -6 69zM312 368h176c3 -22 5 -45 6 -69h-209v-54h655v54h-199c-1 24 -3 47 -5 69h168
v254c0 32 -7 46 -30 56c-22 9 -61 9 -117 9c-3 -16 -12 -36 -20 -52c39 1 76 1 85 1c11 -1 15 -4 15 -14v-202h-108c-3 14 -5 26 -8 39c39 30 81 71 101 100l-40 41c-16 -24 -46 -56 -76 -84c-20 56 -49 104 -90 144c-8 -11 -31 -33 -44 -43c54 -46 84 -113 98 -197h-131
c-3 11 -5 22 -7 31c32 29 66 64 83 88l-41 41c-13 -19 -36 -46 -60 -71c-20 53 -48 96 -87 132c-8 -12 -30 -32 -43 -42c52 -43 81 -103 95 -179h-101v266h-66v-318zM433 712l43 -40c57 27 127 69 160 103l-47 43c-32 -34 -99 -78 -156 -106zM446 880h196
c43 0 51 -12 55 -92c16 11 45 20 65 24c-9 104 -32 129 -114 129h-206c-107 0 -135 -18 -135 -88v-120h73v119c0 23 10 28 66 28zM749 749l58 -31c57 51 118 123 143 175l-62 33c-24 -51 -83 -125 -139 -177z" />
</svg>
