<?xml version="1.0" standalone="no"?>
<!DOCTYPE svg PUBLIC "-//W3C//DTD SVG 1.1//EN" "http://www.w3.org/Graphics/SVG/1.1/DTD/svg11.dtd" >
<svg xmlns="http://www.w3.org/2000/svg" xmlns:xlink="http://www.w3.org/1999/xlink" version="1.1" viewBox="-10 0 1010 1000">
   <path fill="currentColor"
d="M940 144h-763v287c0 153 -10 369 -81 515c-13 -12 -43 -28 -60 -35c68 -139 74 -335 74 -480v-345h830v58zM798 211l44 -25c32 28 69 70 87 97l-46 30c-17 -29 -53 -72 -85 -102zM292 289v36h179v-36h-179zM292 219v34h179v-34h-179zM528 362h-291v-179h291v179zM247 918
l-55 -34c37 -45 72 -120 93 -174l55 23c-23 57 -56 135 -93 185zM277 548h210v-37h-210v37zM487 437h-210v37h210v-37zM938 381h-156c29 107 86 201 170 243c-15 12 -34 35 -43 52c-77 -45 -131 -130 -164 -232c-25 102 -71 173 -164 222c-6 -14 -22 -33 -35 -44
c-1 24 -7 34 -28 41c-22 8 -58 8 -115 8c-3 -14 -11 -30 -19 -44c42 2 79 1 88 1c11 0 15 -3 15 -13v-30h-210v90h-60v-278h329v218v3c95 -49 135 -123 151 -237h-130v-57h137c3 -45 5 -95 6 -151h60c-1 55 -3 105 -7 151h175v57zM499 695l48 -32c48 34 105 85 129 121
l-51 35c-24 -36 -78 -88 -126 -124zM510 888h166c37 0 44 -12 48 -97c14 11 42 21 61 24c-9 109 -30 134 -103 134h-177c-95 0 -118 -19 -118 -88v-143h65v142c0 24 10 28 58 28zM767 724l57 -23c49 57 102 135 123 189l-60 27c-20 -54 -71 -134 -120 -193z" />
</svg>
