<?xml version="1.0" standalone="no"?>
<!DOCTYPE svg PUBLIC "-//W3C//DTD SVG 1.1//EN" "http://www.w3.org/Graphics/SVG/1.1/DTD/svg11.dtd" >
<svg xmlns="http://www.w3.org/2000/svg" xmlns:xlink="http://www.w3.org/1999/xlink" version="1.1" viewBox="-10 0 1010 1000">
   <path fill="currentColor"
d="M87 508l-53 -18c22 -68 38 -178 45 -255l50 7c-4 77 -20 192 -42 266zM158 955v-912h65v912h-65zM235 220l49 -15c22 67 43 151 50 200l-53 19c-7 -52 -26 -138 -46 -204zM495 752l61 27c-64 61 -154 132 -226 177c-8 -12 -30 -43 -44 -56c70 -40 153 -96 209 -148z
M683 798l41 -46c75 44 174 108 224 151l-43 53c-48 -44 -146 -112 -222 -158zM890 664h67v67h-662v-67h69l-13 -521c38 -19 95 -52 127 -74l47 45c-35 23 -77 43 -113 57l3 123h94v60h-92l3 124h89v59h-88l3 127h118v-214h49v214h62v-280h-109v-338h58v111h120v63h-120v105
h104v339h124c2 -37 3 -79 5 -124h-90v-60h92c1 -40 2 -81 3 -123h-95v-60h96v-126h-101v-59h163c-1 172 -5 406 -13 552z" />
</svg>
