<?xml version="1.0" standalone="no"?>
<!DOCTYPE svg PUBLIC "-//W3C//DTD SVG 1.1//EN" "http://www.w3.org/Graphics/SVG/1.1/DTD/svg11.dtd" >
<svg xmlns="http://www.w3.org/2000/svg" xmlns:xlink="http://www.w3.org/1999/xlink" version="1.1" viewBox="-10 0 1010 1000">
   <path fill="currentColor"
d="M643 232l41 -43c28 14 58 31 86 50c29 -31 58 -68 81 -103h-230v-59h271l12 -4l44 29c-33 59 -82 122 -130 171c29 22 53 45 70 65l-44 47c-39 -49 -125 -113 -201 -153zM546 366h-112c-70 0 -88 -16 -88 -82v-240h63v116c56 -19 115 -44 151 -67l44 48
c-54 29 -128 55 -195 74v68c0 23 4 26 32 26h99c23 0 28 -8 30 -72c12 10 38 19 56 23c-7 84 -25 106 -80 106zM79 230l49 8c1 88 -13 201 -48 268l-48 -20c32 -61 46 -169 47 -256zM161 955v-912h69v912h-69zM335 382l-50 19c-3 -47 -20 -125 -41 -184l46 -13
c23 58 41 133 45 178zM590 821l-40 50c-18 -23 -48 -56 -79 -85c-25 61 -69 121 -146 173c-10 -14 -30 -33 -46 -44c103 -63 140 -149 154 -224h-134v-61h140c1 -11 1 -22 1 -32v-85h-45c-13 37 -29 71 -47 97c-12 -8 -37 -23 -53 -30c38 -56 62 -135 76 -216l60 12
c-5 26 -11 52 -18 78h181v59h-91v86c0 10 0 20 -1 31h104v61h-109c-2 11 -4 21 -6 32c36 33 78 72 99 98zM867 878h101c-8 15 -17 44 -19 61h-85c-89 0 -158 -24 -207 -124c-16 56 -40 105 -74 147c-10 -10 -36 -29 -50 -37c77 -85 94 -218 98 -383l60 3
c-2 65 -6 125 -14 178c17 59 41 96 69 119v-385h-138v-60h297l10 -3l39 11c-12 60 -28 129 -42 173l-48 -14c7 -28 15 -68 23 -107h-82v164h130v62h-130v188c20 5 40 7 62 7z" />
</svg>
