<?xml version="1.0" standalone="no"?>
<!DOCTYPE svg PUBLIC "-//W3C//DTD SVG 1.1//EN" "http://www.w3.org/Graphics/SVG/1.1/DTD/svg11.dtd" >
<svg xmlns="http://www.w3.org/2000/svg" xmlns:xlink="http://www.w3.org/1999/xlink" version="1.1" viewBox="-10 0 1010 1000">
   <path fill="currentColor"
d="M936 345h-91c31 61 79 125 119 159c-12 10 -31 26 -41 40c-28 -30 -62 -79 -89 -129v158h-56v-166c-27 58 -63 113 -95 146c-9 -12 -26 -30 -38 -38c41 -36 89 -105 117 -170h-67v-56h83v-86h56v86h102v56zM95 508l-55 -20c25 -66 42 -173 48 -253l53 7
c-4 80 -21 193 -46 266zM168 956v-912h68v912h-68zM346 398l-55 21c-5 -50 -25 -135 -46 -199l51 -16c23 64 44 146 50 194zM543 571v-159c-23 55 -54 109 -84 142c-10 -13 -26 -31 -39 -40c-6 145 -28 316 -91 442c-13 -12 -43 -29 -59 -36c78 -153 85 -365 85 -517v-283
h269c-8 -21 -20 -43 -30 -62l67 -17c14 24 31 54 43 79h241v61h-523v221c0 34 -1 70 -2 110c39 -34 79 -101 104 -166h-71v-56h90v-86h56v86h76v56h-76c21 19 69 69 81 84l-37 40c-8 -14 -26 -42 -44 -65v166h-56zM631 574l55 21c-52 71 -133 145 -205 190
c-8 -11 -29 -37 -40 -48c71 -40 145 -99 190 -163zM766 754l53 -25c48 61 106 142 135 191l-57 29c-9 -16 -21 -35 -34 -56c-332 31 -370 35 -392 44c-3 -14 -13 -46 -21 -64c21 -3 45 -17 75 -40c33 -23 140 -111 214 -200l64 30c-71 74 -147 144 -223 198l246 -22
c-19 -29 -41 -60 -60 -85z" />
</svg>
