<?xml version="1.0" standalone="no"?>
<!DOCTYPE svg PUBLIC "-//W3C//DTD SVG 1.1//EN" "http://www.w3.org/Graphics/SVG/1.1/DTD/svg11.dtd" >
<svg xmlns="http://www.w3.org/2000/svg" xmlns:xlink="http://www.w3.org/1999/xlink" version="1.1" viewBox="-10 0 1010 1000">
   <path fill="currentColor"
d="M404 277v81h-60v-133h260v-59h-222v-55h222v-68h71v68h224v55h-224v59h263v133h-62v-81h-472zM471 472v63h136v-63h-136zM471 366v63h136v-63h-136zM807 429v-63h-137v63h137zM807 535v-63h-137v63h137zM873 579h-466v-257h466v257zM94 507l-54 -19
c25 -66 42 -174 48 -253l52 8c-4 80 -20 193 -46 264zM168 956v-913h68v913h-68zM245 219l49 -14c23 63 44 146 50 194l-54 20c-6 -51 -25 -135 -45 -200zM673 803v77c19 2 39 2 61 2c25 0 191 0 229 -1c-10 15 -19 42 -21 59h-211c-141 0 -227 -18 -284 -103
c-27 47 -61 88 -98 119l-56 -37c64 -46 117 -131 147 -217l61 15c-8 22 -17 44 -26 65c27 53 71 79 131 91v-193h-235v-57h507l11 -2l44 10c-13 36 -30 78 -44 104l-55 -11c6 -12 11 -27 17 -44h-178v70h212v53h-212z" />
</svg>
