<?xml version="1.0" standalone="no"?>
<!DOCTYPE svg PUBLIC "-//W3C//DTD SVG 1.1//EN" "http://www.w3.org/Graphics/SVG/1.1/DTD/svg11.dtd" >
<svg xmlns="http://www.w3.org/2000/svg" xmlns:xlink="http://www.w3.org/1999/xlink" version="1.1" viewBox="-10 0 1010 1000">
   <path fill="currentColor"
d="M75 235l49 7c1 87 -13 201 -47 268l-47 -20c31 -61 45 -170 45 -255zM156 955v-912h68v912h-68zM323 368l-49 19c-4 -43 -20 -115 -41 -169l46 -14c22 55 41 123 44 164zM948 157h-551v296c0 150 -10 363 -81 505c-12 -12 -41 -28 -58 -36c68 -134 73 -326 73 -468v-364
h617v67zM853 251l44 -18c26 39 54 92 65 126l-46 21c-10 -35 -37 -89 -63 -129zM500 349v57h121v-57h-121zM500 251v56h121v-56h-121zM672 451h-223v-244h223v244zM493 726h133v-63h-133v63zM626 553h-133v60h133v-60zM682 499v373c0 28 -4 45 -22 56c-19 9 -45 10 -86 10
c-1 -16 -8 -40 -16 -55c28 1 51 1 59 0c7 -1 9 -3 9 -11v-92h-133v175h-56v-456h245zM958 475h-104c13 189 43 349 119 434c-14 11 -35 34 -45 49c-55 -66 -87 -165 -107 -287c-16 120 -45 217 -97 290c-9 -13 -31 -31 -47 -40c72 -99 94 -250 102 -446h-91v-64h93
c1 -68 2 -141 2 -218h58c0 77 -1 150 -2 218h119v64z" />
</svg>
