<?xml version="1.0" standalone="no"?>
<!DOCTYPE svg PUBLIC "-//W3C//DTD SVG 1.1//EN" "http://www.w3.org/Graphics/SVG/1.1/DTD/svg11.dtd" >
<svg xmlns="http://www.w3.org/2000/svg" xmlns:xlink="http://www.w3.org/1999/xlink" version="1.1" viewBox="-10 0 1010 1000">
   <path fill="currentColor"
d="M230 937l-57 -32c40 -38 73 -102 93 -154l57 23c-21 55 -52 122 -93 163zM497 880h186c38 0 45 -8 48 -69c15 11 42 20 62 24c-8 84 -30 105 -102 105h-198c-100 0 -126 -18 -126 -86v-116h70v115c0 23 8 27 60 27zM662 793l-49 36c-22 -30 -72 -71 -116 -98l47 -33
c44 24 94 64 118 95zM762 770l56 -27c49 39 101 97 122 140l-59 30c-20 -42 -69 -102 -119 -143zM191 154v169h196v-59h-152v-46h152v-64h-196zM670 218v-64h-213v64h213zM670 323v-59h-213v59h213zM795 452h-198v48h198v-48zM795 591v-49h-198v49h198zM333 542v49h194v-49
h-194zM333 452v48h194v-48h-194zM740 323h213v46h-356v40h270v225h-173c85 27 172 60 227 87l-46 38c-59 -32 -160 -71 -260 -102l22 -23h-164l35 21c-70 40 -183 75 -275 93c-9 -12 -26 -32 -39 -42c82 -15 181 -44 240 -72h-170v-225h263v-40h-336v46
c0 157 -12 391 -94 547c-11 -12 -43 -33 -58 -40c75 -148 82 -356 82 -507v-310h388c-9 -18 -22 -35 -33 -50l65 -22c18 21 37 48 50 72h344v49h-195v64h170v46h-170v59z" />
</svg>
