<?xml version="1.0" standalone="no"?>
<!DOCTYPE svg PUBLIC "-//W3C//DTD SVG 1.1//EN" "http://www.w3.org/Graphics/SVG/1.1/DTD/svg11.dtd" >
<svg xmlns="http://www.w3.org/2000/svg" xmlns:xlink="http://www.w3.org/1999/xlink" version="1.1" viewBox="-10 0 1010 1000">
   <path fill="currentColor"
d="M125 927l-60 -36c52 -42 93 -113 116 -172l60 26c-26 63 -64 136 -116 182zM442 883h199c42 0 50 -10 55 -79c16 11 44 20 65 24c-9 95 -32 118 -113 118h-211c-107 0 -135 -18 -135 -90v-120h73v119c0 24 10 28 67 28zM617 812l-52 38c-24 -37 -78 -88 -127 -123l49 -34
c49 32 105 81 130 119zM729 716l60 -29c60 56 122 133 147 190l-65 32c-24 -55 -84 -136 -142 -193zM636 244l-3 6c20 64 48 132 90 194c37 -57 64 -122 82 -200h-169zM323 363h108v-39h-108v39zM150 363h107v-39h-107v39zM257 242h-107v42h107v-42zM431 242h-108v42h108
v-42zM943 244h-68c-23 102 -59 186 -109 256c51 61 118 113 202 147c-14 14 -35 40 -45 59c-82 -37 -148 -92 -200 -154c-53 59 -117 105 -195 142c-8 -14 -31 -41 -45 -55c82 -34 148 -81 199 -141c-37 -56 -65 -115 -86 -172c-16 25 -31 50 -49 70
c-10 -11 -33 -31 -49 -43v83h-67v-32h-108v18h-18c11 15 20 32 28 48h208v44h-278c-3 13 -6 25 -10 38h229s-1 16 -2 23c-7 65 -15 96 -32 110c-12 12 -29 17 -52 17c-18 1 -55 1 -93 -2c-1 -13 -7 -32 -14 -46c35 4 68 4 81 4s19 0 25 -6c7 -7 12 -22 16 -54h-176
c-28 58 -75 104 -155 134c-8 -13 -25 -36 -39 -46c99 -35 138 -96 155 -172h-147v-44h211c-7 -14 -14 -28 -22 -39l38 -9h-19v-18h-107v33h-65v-239h172v-38h-204v-46h204v-69h66v69h112c-22 -14 -49 -28 -73 -35l29 -34c33 9 73 30 94 45l-20 24h72v46h-214v38h175v148
c64 -74 107 -184 130 -302l67 12c-10 44 -22 87 -35 127h283v61z" />
</svg>
