<?xml version="1.0" standalone="no"?>
<!DOCTYPE svg PUBLIC "-//W3C//DTD SVG 1.1//EN" "http://www.w3.org/Graphics/SVG/1.1/DTD/svg11.dtd" >
<svg xmlns="http://www.w3.org/2000/svg" xmlns:xlink="http://www.w3.org/1999/xlink" version="1.1" viewBox="-10 0 1010 1000">
   <path fill="currentColor"
d="M87 507l-51 -17c25 -66 40 -175 44 -255l50 7c-3 79 -18 193 -43 265zM297 363l-47 20c-6 -41 -23 -108 -43 -161v733h-64v-912h64v173l43 -14c21 52 40 119 47 159c11 -5 25 -18 25 -53v-195c52 -18 111 -46 144 -70l48 41c-39 24 -91 46 -139 63v171l69 -32
c-10 -27 -22 -57 -33 -81l43 -15c22 45 44 102 54 143c43 -42 57 -113 63 -195h-58v-53h214s0 17 -1 25c-8 177 -16 239 -33 261c-12 14 -25 19 -44 21c-14 1 -36 2 -57 0c-1 -14 -6 -34 -13 -47c22 2 39 2 49 2c9 0 15 -1 19 -9c11 -14 18 -64 24 -200h-51
c-6 99 -24 181 -78 232c-7 -11 -22 -27 -34 -35l3 12l-47 17c-2 -9 -4 -20 -7 -31c-107 54 -126 67 -137 78c-4 -13 -15 -36 -23 -48zM411 527h234c-40 -27 -90 -56 -137 -79c-30 28 -63 55 -97 79zM651 580h-109v62h172v54h-172v149l40 -4l-8 -3c19 -34 45 -88 58 -124
l57 16c-17 37 -37 75 -55 105l98 -11l1 56c-160 19 -327 37 -442 49l-11 -57c54 -5 122 -12 197 -20v-156h-166v-54h166v-62h-90v-36c-25 15 -51 30 -75 42c-10 -16 -28 -35 -43 -49c90 -37 189 -103 242 -173l52 22c-6 8 -12 16 -18 22c72 35 152 82 196 118l-39 43
c-14 -12 -31 -24 -51 -38v49zM338 735l51 -15c22 35 44 83 54 114l-53 19c-9 -32 -30 -81 -52 -118zM810 153v563h-55v-563h55zM871 48h58v831c0 37 -10 54 -30 64c-23 10 -59 12 -118 11c-3 -15 -11 -40 -19 -57c43 2 81 1 93 1c11 -1 16 -4 16 -18v-832z" />
</svg>
