<?xml version="1.0" standalone="no"?>
<!DOCTYPE svg PUBLIC "-//W3C//DTD SVG 1.1//EN" "http://www.w3.org/Graphics/SVG/1.1/DTD/svg11.dtd" >
<svg xmlns="http://www.w3.org/2000/svg" xmlns:xlink="http://www.w3.org/1999/xlink" version="1.1" viewBox="-10 0 1010 1000">
   <path fill="currentColor"
d="M840 180h-104c-18 41 -41 82 -66 120h114c19 -34 40 -80 56 -120zM869 439v-85h-158v85h158zM869 575v-86h-158v86h158zM869 712v-88h-158v88h158zM650 327l-3 4c-14 -11 -38 -27 -56 -35c63 -76 106 -177 130 -252l66 9c-8 23 -17 45 -26 69h109l10 -3l46 30
c-20 48 -48 104 -75 151h81v467h-282v-440zM95 506l-53 -18c22 -67 36 -174 39 -252l52 5c-1 80 -15 192 -38 265zM159 956v-912h63v912h-63zM365 376v159h69v-159h-69zM554 535v-159h-68v159h68zM622 765l-53 31c-15 -31 -46 -76 -76 -115v271h-66v-289
c-34 86 -81 171 -128 222c-8 -20 -22 -48 -34 -66c51 -50 104 -140 136 -225h-89v-228l-41 15c-5 -42 -24 -112 -41 -165l50 -16c13 37 27 81 36 117h110v-102h-123v-62h123v-103h65v103h121v62h-121v102h118v277h-116v42l25 -13c39 45 83 103 104 142zM706 785l65 18
c-31 57 -81 116 -127 156c-12 -12 -39 -32 -55 -41c47 -34 92 -84 117 -133zM807 810l57 -26c35 43 75 102 93 140l-60 29c-18 -39 -56 -99 -90 -143z" />
</svg>
