<?xml version="1.0" standalone="no"?>
<!DOCTYPE svg PUBLIC "-//W3C//DTD SVG 1.1//EN" "http://www.w3.org/Graphics/SVG/1.1/DTD/svg11.dtd" >
<svg xmlns="http://www.w3.org/2000/svg" xmlns:xlink="http://www.w3.org/1999/xlink" version="1.1" viewBox="-10 0 1010 1000">
   <path fill="currentColor"
d="M88 509l-54 -19c22 -67 38 -177 45 -255l52 7c-4 78 -20 192 -43 267zM160 956v-912h64v912h-64zM335 402l-52 19c-7 -50 -26 -135 -45 -200l48 -15c22 65 43 148 49 196zM408 186v213c0 158 -10 393 -81 556c-11 -11 -40 -27 -54 -33c66 -156 72 -372 72 -523v-272h281
c-10 -24 -21 -49 -31 -71l66 -13c15 26 31 59 41 84h254v59h-548zM580 525h-55v-119c-24 45 -54 87 -79 114c-9 -12 -25 -29 -37 -38c39 -35 85 -102 113 -165h-91v-51h94v-65h55v65h89v51h-89v11c26 23 79 71 94 86l-30 38c-12 -15 -39 -46 -64 -71v144zM581 589v-56h63
v421h-63v-101h-174v-56h174v-51h-150v-52h150v-54h-157v-51h157zM779 522v-136c-29 51 -67 100 -101 130c-9 -13 -24 -30 -37 -39c46 -33 97 -97 128 -158h-73v-51h83v-66h54v66h111v51h-111c30 53 83 114 125 144c-11 10 -28 25 -37 38c-27 -24 -61 -65 -88 -105v126h-54z
M777 744v55h173v57h-173v99h-62v-422h62v57h157v52h-157v51h148v51h-148z" />
</svg>
