<?xml version="1.0" standalone="no"?>
<!DOCTYPE svg PUBLIC "-//W3C//DTD SVG 1.1//EN" "http://www.w3.org/Graphics/SVG/1.1/DTD/svg11.dtd" >
<svg xmlns="http://www.w3.org/2000/svg" xmlns:xlink="http://www.w3.org/1999/xlink" version="1.1" viewBox="-10 0 1010 1000">
   <path fill="currentColor"
d="M483 116v48h-413v-48h169c-8 -20 -20 -39 -32 -56l53 -17c18 22 33 49 43 73h180zM119 922l-69 -25c39 -39 78 -101 102 -147l65 21c-27 45 -63 110 -98 151zM159 455v45h231v-45h-231zM159 369v43h231v-43h-231zM307 715h-69v-81h-191v-49h191v-40h-140v-221h356v221
h-147v40h186v49h-186v81zM410 727l58 -24c47 33 101 79 125 111l-61 28c-22 -33 -75 -81 -122 -115zM413 889h220c53 0 61 -11 67 -91c17 9 48 18 69 21c-10 99 -34 122 -131 122h-229c-115 0 -145 -16 -145 -76v-119h74v118c0 21 11 25 75 25zM761 757l60 -22
c42 43 87 102 105 141l-65 26c-16 -39 -58 -100 -100 -145zM604 573v35h237v-35h-237zM604 505v32h237v-32h-237zM604 437v32h237v-32h-237zM905 644h-82c44 21 95 48 124 69l-46 32c-31 -24 -95 -59 -144 -82l29 -19h-136l41 14c-35 31 -92 61 -139 76
c-10 -10 -30 -25 -42 -32c42 -13 92 -34 119 -58h-86v-244h362v244zM637 128l-3 3c25 18 58 36 98 52c36 -16 68 -35 93 -55h-188zM878 85l31 21c-30 39 -72 70 -121 96c56 17 118 29 178 36c-11 9 -25 29 -33 42c-66 -11 -137 -29 -200 -53c-40 17 -83 30 -128 41h266v38
h-117v30h178v39h-419v-39h178v-30h-110v-32c-22 5 -44 9 -66 13c-5 -10 -13 -24 -22 -35v38h-445v-48h114c-6 -19 -15 -42 -23 -59l56 -15c13 22 25 53 32 74h86c12 -23 27 -53 35 -73l63 16c-12 21 -22 40 -32 57h114v1c64 -9 127 -22 183 -41c-28 -14 -54 -29 -75 -46
c-18 12 -35 24 -56 34c-9 -11 -25 -26 -39 -33c68 -32 120 -75 149 -114l53 9c-9 11 -18 23 -29 35h190z" />
</svg>
