<?xml version="1.0" standalone="no"?>
<!DOCTYPE svg PUBLIC "-//W3C//DTD SVG 1.1//EN" "http://www.w3.org/Graphics/SVG/1.1/DTD/svg11.dtd" >
<svg xmlns="http://www.w3.org/2000/svg" xmlns:xlink="http://www.w3.org/1999/xlink" version="1.1" viewBox="-10 0 1010 1000">
   <path fill="currentColor"
d="M888 157l-48 50c-35 -35 -110 -81 -172 -110l46 -46c62 26 137 70 174 106zM808 375l71 18c-48 137 -116 253 -201 348c43 89 98 141 162 141c34 -1 48 -42 55 -165c17 16 44 32 63 39c-14 155 -43 199 -123 199c-90 0 -160 -58 -213 -156c-69 63 -146 117 -233 160
c-10 -15 -36 -45 -52 -59c97 -42 181 -100 254 -171c-45 -111 -73 -258 -88 -421h-269v425l230 -93c4 20 13 47 20 62c-282 118 -317 135 -341 156c-7 -20 -28 -54 -41 -70c21 -13 59 -45 59 -89v-462h337c-4 -62 -6 -126 -7 -191h76c0 66 2 129 5 191h364v71h-358
c13 139 36 263 70 359c68 -83 121 -181 160 -292z" />
</svg>
