<?xml version="1.0" standalone="no"?>
<!DOCTYPE svg PUBLIC "-//W3C//DTD SVG 1.1//EN" "http://www.w3.org/Graphics/SVG/1.1/DTD/svg11.dtd" >
<svg xmlns="http://www.w3.org/2000/svg" xmlns:xlink="http://www.w3.org/1999/xlink" version="1.1" viewBox="-10 0 1010 1000">
   <path fill="currentColor"
d="M887 166l-47 49c-38 -35 -112 -87 -174 -120l45 -44c61 31 137 80 176 115zM812 387l70 23c-52 118 -119 220 -202 307c41 96 96 157 170 166c28 3 44 -60 54 -171c15 13 42 30 60 38c-15 160 -53 223 -133 204c-93 -14 -159 -79 -207 -182c-81 74 -174 134 -277 182
c-11 -15 -37 -45 -53 -57c115 -48 216 -114 303 -195c-38 -106 -60 -240 -75 -391h-306v171c0 144 -17 344 -122 477c-12 -14 -42 -39 -59 -49c98 -124 108 -298 108 -428v-242h373c-5 -62 -9 -126 -12 -193h73c2 67 6 131 11 193h349v71h-343c13 126 32 240 60 332
c65 -74 118 -160 158 -256z" />
</svg>
