<?xml version="1.0" standalone="no"?>
<!DOCTYPE svg PUBLIC "-//W3C//DTD SVG 1.1//EN" "http://www.w3.org/Graphics/SVG/1.1/DTD/svg11.dtd" >
<svg xmlns="http://www.w3.org/2000/svg" xmlns:xlink="http://www.w3.org/1999/xlink" version="1.1" viewBox="-10 0 1010 1000">
   <path fill="currentColor"
d="M670 93l44 -45c62 31 140 79 179 114l-46 51c-38 -35 -114 -86 -177 -120zM812 363l75 19c-43 129 -102 243 -176 338c37 98 83 155 134 155c28 0 40 -52 47 -185c17 17 44 34 64 40c-14 170 -41 219 -117 219c-77 0 -137 -61 -183 -164c-60 65 -129 121 -206 166
c-11 -15 -37 -45 -54 -59c89 -48 166 -110 230 -185c-36 -113 -60 -260 -73 -421h-345v130h255v32c-5 224 -11 308 -32 334c-15 19 -32 26 -60 29c-25 2 -70 2 -119 0c-1 -23 -9 -51 -21 -70c46 4 89 5 106 5c14 0 24 -2 30 -11c14 -15 19 -78 23 -250h-182v8
c0 140 -15 341 -105 471c-13 -15 -45 -41 -62 -50c82 -122 91 -293 91 -422v-279h417c-4 -55 -5 -111 -6 -168h77c0 58 1 114 4 168h323v73h-318c10 133 28 252 55 347c54 -79 97 -169 128 -270z" />
</svg>
