<?xml version="1.0" standalone="no"?>
<!DOCTYPE svg PUBLIC "-//W3C//DTD SVG 1.1//EN" "http://www.w3.org/Graphics/SVG/1.1/DTD/svg11.dtd" >
<svg xmlns="http://www.w3.org/2000/svg" xmlns:xlink="http://www.w3.org/1999/xlink" version="1.1" viewBox="-10 0 1010 1000">
   <path fill="currentColor"
d="M84 269l-5 -61l310 -23c-18 -44 -30 -91 -35 -140h71c6 48 19 93 38 135l269 -20c-37 -24 -107 -53 -161 -70l36 -47c56 15 128 43 166 68l-35 48l181 -13l6 61l-428 32c24 35 53 67 86 94c68 -28 127 -59 172 -96l62 31c-49 40 -109 75 -177 104c59 34 125 52 192 51
c40 -1 51 -22 57 -103c17 13 42 25 62 30c-13 113 -41 141 -121 142c-97 0 -191 -32 -269 -88c-133 47 -283 80 -421 103c-8 -14 -31 -44 -46 -57c141 -18 288 -47 414 -90c-35 -33 -66 -72 -90 -116zM764 651l63 31c-54 55 -124 100 -205 137c63 44 136 69 212 68
c41 -1 53 -28 61 -121c17 14 43 27 64 32c-14 126 -44 158 -126 158c-106 0 -205 -39 -286 -105c-132 50 -281 83 -425 106c-9 -15 -32 -45 -45 -60c146 -18 294 -47 421 -92c-40 -42 -73 -91 -98 -146l-327 23l-5 -63l309 -21c-13 -40 -22 -82 -26 -125h73
c4 42 13 82 27 120l245 -17c-38 -24 -103 -54 -155 -71l37 -44c56 16 129 47 167 72l-32 42l217 -15l5 61l-457 32c24 47 55 89 92 124c79 -35 146 -76 194 -126z" />
</svg>
