<?xml version="1.0" standalone="no"?>
<!DOCTYPE svg PUBLIC "-//W3C//DTD SVG 1.1//EN" "http://www.w3.org/Graphics/SVG/1.1/DTD/svg11.dtd" >
<svg xmlns="http://www.w3.org/2000/svg" xmlns:xlink="http://www.w3.org/1999/xlink" version="1.1" viewBox="-10 0 1010 1000">
   <path fill="currentColor"
d="M919 229l-54 35c-20 -41 -64 -104 -102 -149l51 -29c39 44 84 105 105 143zM328 457h-89v212h89v-212zM376 727h-137v54h-48v-381h185v327zM388 250v62h-210v-62h210zM861 412l56 31c-33 97 -82 193 -143 277c26 94 58 151 96 153c20 1 35 -53 42 -152c12 15 42 33 54 40
c-20 154 -56 197 -95 196c-66 -3 -114 -64 -150 -170c-54 62 -116 115 -182 151c-12 -15 -34 -38 -52 -51c-2 32 -10 47 -32 58c-24 11 -62 12 -123 12c-3 -17 -13 -46 -22 -63c46 1 87 1 100 0c12 0 17 -4 17 -18v-715h-288v794h-62v-858h410v780v8
c79 -39 150 -102 212 -177c-21 -86 -36 -190 -47 -309l-139 16l-8 -67l141 -14c-7 -90 -12 -185 -15 -285h69c2 97 7 190 14 278l230 -25l9 64l-233 26c9 90 21 172 34 242c45 -70 83 -146 107 -222z" />
</svg>
