<?xml version="1.0" standalone="no"?>
<!DOCTYPE svg PUBLIC "-//W3C//DTD SVG 1.1//EN" "http://www.w3.org/Graphics/SVG/1.1/DTD/svg11.dtd" >
<svg xmlns="http://www.w3.org/2000/svg" xmlns:xlink="http://www.w3.org/1999/xlink" version="1.1" viewBox="-10 0 1010 1000">
   <path fill="currentColor"
d="M609 565h-189c5 29 14 57 27 83l223 -10c-29 -18 -61 -36 -90 -49zM245 461v58h526v-58h-526zM245 360v57h526v-57h-526zM245 260v55h526v-55h-526zM769 698l60 31c-51 44 -118 80 -194 110c65 35 138 54 208 53c39 0 49 -20 56 -94c16 12 40 23 61 28
c-13 107 -43 132 -118 132c-100 0 -203 -33 -288 -90c-136 43 -290 70 -432 89c-9 -15 -30 -45 -44 -59c143 -13 292 -36 420 -73c-38 -34 -71 -73 -96 -117l-343 17l-3 -59l318 -15c-11 -27 -18 -56 -23 -86h-174v-351h259c6 -18 12 -38 16 -57h-385v-60h868v60h-404
c-8 20 -16 39 -24 57h336v351h-195c43 20 91 46 118 67l-1 1l176 -8l4 57l-465 23c26 36 58 69 95 96c78 -28 145 -62 194 -103z" />
</svg>
