<?xml version="1.0" standalone="no"?>
<!DOCTYPE svg PUBLIC "-//W3C//DTD SVG 1.1//EN" "http://www.w3.org/Graphics/SVG/1.1/DTD/svg11.dtd" >
<svg xmlns="http://www.w3.org/2000/svg" xmlns:xlink="http://www.w3.org/1999/xlink" version="1.1" viewBox="-10 0 1010 1000">
   <path fill="currentColor"
d="M928 213l-56 39c-26 -42 -84 -107 -133 -152l54 -33c49 42 108 104 135 146zM163 493v85h263v-85h-263zM163 354v84h263v-84h-263zM536 786h-208v171h-72v-171h-213v-67h213v-83h-161v-340h161v-83h-197v-64h197v-105h72v105h194v64h-194v83h168v340h-168v83h208v67z
M869 404l60 33c-37 98 -91 196 -157 281c27 93 62 148 102 151c21 1 35 -53 44 -154c13 15 43 34 58 40c-22 158 -59 204 -101 203c-70 -3 -122 -66 -160 -173c-58 63 -124 117 -192 154c-12 -17 -36 -40 -57 -53c82 -41 159 -104 225 -180c-23 -87 -40 -194 -52 -316
l-121 15l-7 -66l122 -14c-7 -87 -12 -179 -16 -276h72c3 93 8 184 15 268l247 -30l8 66l-248 29c10 94 23 179 38 251c51 -72 92 -151 120 -229z" />
</svg>
