<?xml version="1.0" standalone="no"?>
<!DOCTYPE svg PUBLIC "-//W3C//DTD SVG 1.1//EN" "http://www.w3.org/Graphics/SVG/1.1/DTD/svg11.dtd" >
<svg xmlns="http://www.w3.org/2000/svg" xmlns:xlink="http://www.w3.org/1999/xlink" version="1.1" viewBox="-10 0 1010 1000">
   <path fill="currentColor"
d="M911 208l-51 41c-23 -36 -72 -89 -117 -127l49 -36c45 35 96 85 119 122zM570 249l-40 56c-47 -44 -143 -107 -224 -152c-60 88 -142 164 -228 216c-12 -18 -32 -42 -49 -56c107 -56 212 -158 265 -271l64 23c-6 11 -13 24 -19 36c82 43 181 104 231 148zM261 252l42 -38
c36 23 74 57 91 83l-45 44c-17 -26 -55 -64 -88 -89zM225 849h250v-115h-250v115zM456 397h-257v57h257v-57zM195 563h261v-59h-257c-1 19 -2 38 -4 59zM871 408l57 32c-33 104 -83 209 -145 300c23 79 51 126 84 128c19 0 32 -54 40 -149c13 15 42 33 55 40
c-21 156 -58 198 -96 197c-59 -2 -103 -55 -137 -145c-44 52 -93 98 -144 133c-11 -15 -27 -32 -44 -44v31h-66v-25h-250v32h-64v-213c-15 40 -34 78 -62 111c-11 -11 -39 -32 -54 -39c78 -96 88 -225 88 -319v-136h390v277h-335c-3 19 -7 38 -13 57h366v209
c60 -37 116 -91 165 -154c-23 -91 -39 -206 -50 -338l-110 14l-9 -67l114 -14c-7 -87 -11 -180 -14 -278h72c2 94 6 185 12 269l227 -27l9 66l-230 28c9 101 21 192 35 266c46 -75 85 -159 109 -242z" />
</svg>
