<?xml version="1.0" standalone="no"?>
<!DOCTYPE svg PUBLIC "-//W3C//DTD SVG 1.1//EN" "http://www.w3.org/Graphics/SVG/1.1/DTD/svg11.dtd" >
<svg xmlns="http://www.w3.org/2000/svg" xmlns:xlink="http://www.w3.org/1999/xlink" version="1.1" viewBox="-10 0 1010 1000">
   <path fill="currentColor"
d="M918 234l-54 34c-17 -42 -61 -107 -102 -154l50 -30c42 45 87 108 106 150zM272 149v270h75v-270h-75zM574 419v65h-525v-65h160v-270h-140v-65h485v65h-144v270h164zM64 210l54 -18c29 54 57 127 67 174l-58 20c-10 -48 -36 -121 -63 -176zM490 384l-55 -14
c23 -48 51 -129 65 -182l62 15c-22 62 -48 134 -72 181zM450 608h-273v85h273v-85zM177 840h273v-90h-273v90zM107 948v-400h415v395h-72v-46h-273v51h-70zM870 431l57 30c-29 100 -77 197 -136 280c22 78 49 124 78 126c19 1 33 -53 39 -147c13 16 41 33 54 40
c-20 151 -56 194 -93 193c-56 -2 -98 -55 -130 -146c-44 50 -93 91 -145 122c-12 -17 -35 -40 -54 -52c65 -34 124 -86 175 -148c-22 -90 -38 -203 -49 -332l-95 12l-7 -67l97 -12c-6 -88 -11 -183 -14 -282h69c2 95 6 188 12 274l207 -25l8 67l-209 25c9 100 21 190 35 264
c43 -69 78 -145 101 -222z" />
</svg>
