<?xml version="1.0" standalone="no"?>
<!DOCTYPE svg PUBLIC "-//W3C//DTD SVG 1.1//EN" "http://www.w3.org/Graphics/SVG/1.1/DTD/svg11.dtd" >
<svg xmlns="http://www.w3.org/2000/svg" xmlns:xlink="http://www.w3.org/1999/xlink" version="1.1" viewBox="-10 0 1010 1000">
   <path fill="currentColor"
d="M949 223l-56 34c-20 -47 -67 -117 -112 -168l55 -29c45 49 94 117 113 163zM887 408l57 31c-32 109 -82 216 -146 307c23 76 52 121 84 123c21 0 34 -53 42 -151c13 16 42 34 55 40c-20 155 -58 199 -97 197c-58 -2 -103 -53 -137 -142c-48 57 -103 105 -163 139
c-12 -16 -35 -38 -54 -52c8 -4 17 -9 25 -14c-144 23 -290 46 -397 61l-12 -63l135 -19v-307h53v300l66 -9v-291h55v283l140 -21l1 39c47 -33 89 -75 127 -122c-24 -92 -41 -209 -53 -343l-91 12l-8 -59c-4 13 -7 24 -11 34l-55 -12c7 -24 15 -55 21 -87h-370v226
c0 127 -11 310 -71 431c-10 -13 -38 -36 -51 -43c52 -113 57 -271 57 -388v-284h196v-181h70v64h217v53h-217v64h188l12 -3l43 10c-8 36 -17 75 -27 109l91 -12c-6 -88 -11 -182 -14 -280h71c2 94 6 186 12 271l219 -29l9 66l-223 29c10 105 23 199 39 275
c49 -77 87 -164 112 -252zM278 293h60v65l158 -15l5 47l-163 17v51c0 21 5 24 35 24h101c23 0 27 -7 30 -63c13 9 36 17 52 21c-6 74 -24 94 -75 94h-115c-72 0 -88 -15 -88 -76v-45l-101 10l-6 -49l107 -10v-71zM523 785l-47 -16c20 -48 45 -124 55 -176l59 17
c-21 60 -46 130 -67 175zM260 780l-52 15c-4 -48 -25 -122 -49 -178l48 -13c25 55 47 128 53 176z" />
</svg>
