<?xml version="1.0" standalone="no"?>
<!DOCTYPE svg PUBLIC "-//W3C//DTD SVG 1.1//EN" "http://www.w3.org/Graphics/SVG/1.1/DTD/svg11.dtd" >
<svg xmlns="http://www.w3.org/2000/svg" xmlns:xlink="http://www.w3.org/1999/xlink" version="1.1" viewBox="-10 0 1010 1000">
   <path fill="currentColor"
d="M921 227l-57 32c-15 -42 -53 -106 -90 -153l54 -27c39 44 78 107 93 148zM249 176v-49h-112v49h112zM249 269v-50h-112v50h112zM249 363v-51h-112v51h112zM300 81v327h-213v-327h213zM192 783v69h141v-69h-141zM333 616v-68h-141v68h141zM333 731v-64h-141v64h141z
M396 783v69h166v58h-370v43h-65v-337c-18 21 -36 40 -56 57c-7 -13 -25 -43 -36 -57c60 -50 115 -125 144 -205l60 17c-9 22 -19 43 -29 64h124c-10 -22 -24 -43 -37 -62l55 -17c19 22 38 53 49 79h160v56h-165v68h142v51h-142v64h142v52h-142zM398 314v53h116v-53h-116z
M398 220v51h116v-51h-116zM398 127v50h116v-50h-116zM347 412v-331h218v331h-218zM868 423l56 30c-26 96 -65 194 -115 281c20 85 44 136 71 137c17 0 30 -54 37 -150c12 15 41 33 53 39c-20 156 -55 197 -89 196c-52 -1 -92 -55 -121 -146c-41 59 -88 109 -137 145
c-11 -17 -34 -37 -53 -49c62 -42 119 -106 167 -181c-18 -91 -32 -205 -42 -333l-105 14l-9 -66l110 -14c-6 -87 -9 -180 -12 -277h69c1 93 5 183 10 268l173 -24l7 65l-175 25c7 93 16 177 27 249c33 -67 59 -139 78 -209z" />
</svg>
