<?xml version="1.0" standalone="no"?>
<!DOCTYPE svg PUBLIC "-//W3C//DTD SVG 1.1//EN" "http://www.w3.org/Graphics/SVG/1.1/DTD/svg11.dtd" >
<svg xmlns="http://www.w3.org/2000/svg" xmlns:xlink="http://www.w3.org/1999/xlink" version="1.1" viewBox="-10 0 1010 1000">
   <path fill="currentColor"
d="M796 242h-583v131h583v-131zM869 433h-656c-3 151 -23 353 -114 493c-13 -13 -45 -30 -64 -37c95 -144 105 -348 105 -491v-216h346c-15 -36 -37 -77 -60 -110l64 -28c32 42 61 97 75 138h304v251zM895 643h-296c65 122 188 203 351 237c-16 15 -37 44 -47 64
c-158 -40 -277 -124 -351 -250c-49 115 -146 201 -342 250c-7 -18 -25 -45 -40 -60c197 -45 283 -128 324 -241h-260v-66h278c8 -37 13 -76 17 -119h75c-4 42 -10 82 -17 119h308v66z" />
</svg>
