<?xml version="1.0" standalone="no"?>
<!DOCTYPE svg PUBLIC "-//W3C//DTD SVG 1.1//EN" "http://www.w3.org/Graphics/SVG/1.1/DTD/svg11.dtd" >
<svg xmlns="http://www.w3.org/2000/svg" xmlns:xlink="http://www.w3.org/1999/xlink" version="1.1" viewBox="-10 0 1010 1000">
   <path fill="currentColor"
d="M806 209h-581v112h581v-112zM879 386h-654c-2 165 -24 403 -135 563c-11 -16 -42 -45 -56 -54c107 -158 118 -380 118 -534v-216h333c-10 -26 -22 -57 -32 -81l76 -17c15 30 32 69 43 98h307v241zM700 669h133v-136h-133v136zM505 669h130v-136h-130v136zM313 669h128
v-136h-128v136zM905 471v404c0 34 -7 52 -31 64c-23 11 -59 12 -112 11c-3 -18 -13 -45 -23 -63c37 1 71 1 80 1c11 -1 14 -4 14 -14v-139h-133v191h-65v-191h-130v192h-64v-192h-128v216h-69v-480h661z" />
</svg>
