<?xml version="1.0" standalone="no"?>
<!DOCTYPE svg PUBLIC "-//W3C//DTD SVG 1.1//EN" "http://www.w3.org/Graphics/SVG/1.1/DTD/svg11.dtd" >
<svg xmlns="http://www.w3.org/2000/svg" xmlns:xlink="http://www.w3.org/1999/xlink" version="1.1" viewBox="-10 0 1010 1000">
   <path fill="currentColor"
d="M815 195h-587v127h587v-127zM888 381h-660v17c0 162 -12 398 -128 559c-12 -15 -38 -40 -57 -52c106 -141 112 -367 112 -507v-262h346c-11 -25 -24 -50 -36 -71l68 -27c20 30 41 69 54 98h301v245zM809 855v-145h-452v145h452zM927 549h-338v97h290v303h-70v-31h-452v33
h-67v-305h229v-246h70v85h338v64z" />
</svg>
