<?xml version="1.0" standalone="no"?>
<!DOCTYPE svg PUBLIC "-//W3C//DTD SVG 1.1//EN" "http://www.w3.org/Graphics/SVG/1.1/DTD/svg11.dtd" >
<svg xmlns="http://www.w3.org/2000/svg" xmlns:xlink="http://www.w3.org/1999/xlink" version="1.1" viewBox="-10 0 1010 1000">
   <path fill="currentColor"
d="M373 545l-118 37v289c0 41 -10 61 -36 73c-25 11 -65 13 -131 13c-3 -19 -13 -48 -23 -68c45 1 87 1 99 1c14 0 19 -5 19 -19v-266c-46 14 -89 27 -128 39l-21 -72c42 -11 93 -25 149 -42v-217h-138v-69h138v-200h72v200h111v69h-111v197l108 -31zM749 325v12
c0 127 -14 264 -93 388c74 80 171 137 301 167c-17 16 -37 45 -47 66c-127 -34 -224 -92 -299 -173c-57 64 -136 124 -246 174c-10 -17 -35 -47 -52 -61c115 -50 194 -110 248 -174c-61 -86 -102 -190 -131 -315l66 -13c24 101 59 190 109 265c62 -106 71 -219 71 -324v-12
h-288v-71h288v-206h73v206h207v71h-207z" />
</svg>
