<?xml version="1.0" standalone="no"?>
<!DOCTYPE svg PUBLIC "-//W3C//DTD SVG 1.1//EN" "http://www.w3.org/Graphics/SVG/1.1/DTD/svg11.dtd" >
<svg xmlns="http://www.w3.org/2000/svg" xmlns:xlink="http://www.w3.org/1999/xlink" version="1.1" viewBox="-10 0 1010 1000">
   <path fill="currentColor"
d="M374 476l9 67c-44 14 -89 28 -133 41v279c0 42 -10 61 -36 72c-26 13 -66 14 -135 14c-3 -19 -13 -48 -23 -67c48 1 91 1 103 1c14 -1 20 -5 20 -20v-258l-121 36l-21 -72c40 -10 89 -23 142 -38v-217h-130v-70h130v-199h71v199h121v70h-121v197zM565 273l57 -31
c39 55 85 129 105 174l-61 36c-19 -47 -63 -123 -101 -179zM840 196h-353c32 178 85 331 169 450c87 -114 152 -262 184 -450zM875 122l48 16c-34 249 -110 435 -219 570c68 77 154 137 260 175c-16 16 -40 47 -52 67c-106 -43 -192 -105 -261 -184
c-84 86 -183 147 -295 189c-9 -20 -30 -50 -45 -65c110 -37 209 -98 293 -184c-92 -133 -149 -305 -187 -510h-27v-70h472z" />
</svg>
