<?xml version="1.0" standalone="no"?>
<!DOCTYPE svg PUBLIC "-//W3C//DTD SVG 1.1//EN" "http://www.w3.org/Graphics/SVG/1.1/DTD/svg11.dtd" >
<svg xmlns="http://www.w3.org/2000/svg" xmlns:xlink="http://www.w3.org/1999/xlink" version="1.1" viewBox="-10 0 1010 1000">
   <path fill="currentColor"
d="M307 464l11 68l-98 35v307c0 40 -9 59 -33 72c-23 11 -60 14 -121 13c-3 -18 -12 -48 -22 -68c42 1 80 1 91 0c13 0 17 -4 17 -17v-284c-36 13 -71 25 -102 34l-19 -71c34 -10 76 -23 121 -37v-203h-107v-69h107v-200h68v200h93v69h-93v180zM359 957v-713h73v713h-73z
M382 80l55 -30c43 58 93 135 115 184l-59 35c-20 -49 -68 -130 -111 -189zM918 80v779c0 47 -11 67 -41 80c-30 12 -81 13 -158 13c-3 -20 -15 -51 -25 -71c57 3 113 2 128 1c17 -1 23 -6 23 -23v-711h-270v-68h343z" />
</svg>
