<?xml version="1.0" standalone="no"?>
<!DOCTYPE svg PUBLIC "-//W3C//DTD SVG 1.1//EN" "http://www.w3.org/Graphics/SVG/1.1/DTD/svg11.dtd" >
<svg xmlns="http://www.w3.org/2000/svg" xmlns:xlink="http://www.w3.org/1999/xlink" version="1.1" viewBox="-10 0 1010 1000">
   <path fill="currentColor"
d="M353 476l11 72c-38 13 -76 26 -114 38v278c0 42 -10 62 -35 74c-24 12 -62 15 -126 15c-2 -20 -12 -51 -22 -72c43 1 83 1 94 1c12 0 17 -4 17 -19v-253c-43 13 -84 26 -121 38l-19 -75c39 -11 87 -25 140 -41v-216h-126v-72h126v-200h72v200h114v72h-114v193
c34 -10 69 -22 103 -33zM796 512h-185c-15 128 -32 251 -46 346h198c12 -96 24 -218 33 -346zM820 155h-168c-10 89 -20 188 -32 286h181c8 -98 14 -197 19 -286zM839 858h116v73h-604v-73h138c16 -96 33 -219 48 -346h-133v-71h142c11 -99 20 -198 29 -286h-172v-68h493
c-13 243 -36 571 -57 771z" />
</svg>
