<?xml version="1.0" standalone="no"?>
<!DOCTYPE svg PUBLIC "-//W3C//DTD SVG 1.1//EN" "http://www.w3.org/Graphics/SVG/1.1/DTD/svg11.dtd" >
<svg xmlns="http://www.w3.org/2000/svg" xmlns:xlink="http://www.w3.org/1999/xlink" version="1.1" viewBox="-10 0 1010 1000">
   <path fill="currentColor"
d="M901 213l-54 42c-27 -41 -86 -106 -134 -152l52 -37c48 44 108 107 136 147zM394 542l-139 41v279c0 42 -11 62 -37 73c-26 12 -67 14 -135 14c-3 -19 -14 -49 -23 -69c47 2 90 1 102 1c14 0 20 -5 20 -19v-257c-45 14 -87 26 -125 37l-22 -71c41 -10 92 -24 147 -40
v-217h-137v-70h137v-200h73v200h115v70h-115v198l130 -38zM947 350h-327c-19 231 -76 458 -247 595c-14 -17 -37 -37 -57 -49c162 -124 213 -333 232 -546h-153v-71h157c5 -79 5 -158 6 -231h73c-1 74 -2 153 -6 231h322v71zM753 864h104c29 0 35 -23 38 -153
c17 13 47 26 67 31c-7 150 -27 191 -99 191h-119c-79 0 -100 -24 -100 -106v-396h73v396c0 31 5 37 36 37z" />
</svg>
