<?xml version="1.0" standalone="no"?>
<!DOCTYPE svg PUBLIC "-//W3C//DTD SVG 1.1//EN" "http://www.w3.org/Graphics/SVG/1.1/DTD/svg11.dtd" >
<svg xmlns="http://www.w3.org/2000/svg" xmlns:xlink="http://www.w3.org/1999/xlink" version="1.1" viewBox="-10 0 1010 1000">
   <path fill="currentColor"
d="M339 478l9 68l-109 36v282c0 41 -9 60 -34 72c-23 12 -61 15 -124 14c-3 -18 -12 -48 -22 -69c43 1 83 1 94 1c12 0 17 -4 17 -19v-258c-43 14 -83 26 -119 38l-19 -71c38 -11 85 -26 138 -42v-217h-124v-69h124v-200h69v200h107v69h-107v196zM492 560v-154h70v155
c0 135 -14 282 -142 397c-15 -14 -44 -33 -65 -42c124 -105 137 -237 137 -356zM738 956v-550h70v550h-70zM620 33l72 12c-5 13 -10 27 -15 40c61 121 177 238 290 295c-17 13 -39 39 -50 57c-102 -58 -204 -163 -274 -279c-56 106 -140 210 -262 288
c-10 -16 -30 -43 -45 -54c154 -95 246 -238 284 -359z" />
</svg>
