<?xml version="1.0" standalone="no"?>
<!DOCTYPE svg PUBLIC "-//W3C//DTD SVG 1.1//EN" "http://www.w3.org/Graphics/SVG/1.1/DTD/svg11.dtd" >
<svg xmlns="http://www.w3.org/2000/svg" xmlns:xlink="http://www.w3.org/1999/xlink" version="1.1" viewBox="-10 0 1010 1000">
   <path fill="currentColor"
d="M346 481l10 67c-36 13 -75 24 -111 36v280c0 41 -9 60 -33 73c-23 12 -60 14 -117 14c-3 -19 -12 -50 -22 -70c39 1 76 1 86 1c12 0 17 -4 17 -17v-258l-114 36l-19 -72c37 -9 83 -23 133 -38v-220h-119v-69h119v-200h69v200h107v69h-107v199zM945 151h-465v293
c0 157 -15 374 -118 517c-12 -14 -41 -37 -57 -44c97 -135 105 -326 105 -473v-361h535v68zM681 873h160c42 0 49 -26 54 -151c17 11 44 24 64 28c-9 144 -29 188 -114 188h-171c-87 0 -116 -23 -116 -115v-554h342v310c0 35 -8 54 -33 66c-25 11 -66 12 -132 12
c-4 -20 -13 -46 -22 -64c48 1 90 1 102 0c13 0 17 -4 17 -15v-242h-206v488c0 41 9 49 55 49z" />
</svg>
