<?xml version="1.0" standalone="no"?>
<!DOCTYPE svg PUBLIC "-//W3C//DTD SVG 1.1//EN" "http://www.w3.org/Graphics/SVG/1.1/DTD/svg11.dtd" >
<svg xmlns="http://www.w3.org/2000/svg" xmlns:xlink="http://www.w3.org/1999/xlink" version="1.1" viewBox="-10 0 1010 1000">
   <path fill="currentColor"
d="M297 297l46 18c-39 252 -131 448 -244 552c-13 -16 -41 -44 -57 -55c102 -88 181 -247 218 -444h-187v-68h210zM544 584v93h175v65h-175v111c0 46 -11 66 -44 79c-32 12 -88 13 -173 13c-4 -21 -16 -51 -27 -72c67 2 129 2 146 2c19 -1 24 -7 24 -22v-111h-179v-65h179
v-93h-134v-64h134v-88h-117v-65h117v-90c69 -30 146 -77 202 -123h-469v-68h545l16 -4l51 37c-69 71 -171 143 -271 190v58h114v65h-114v88h130v64h-130zM884 292l59 49c-46 55 -107 119 -157 164c40 125 98 228 176 289c-17 14 -41 41 -53 60
c-134 -113 -203 -327 -242 -574l66 -11c9 58 20 115 33 169c43 -46 89 -101 118 -146z" />
</svg>
