<?xml version="1.0" standalone="no"?>
<!DOCTYPE svg PUBLIC "-//W3C//DTD SVG 1.1//EN" "http://www.w3.org/Graphics/SVG/1.1/DTD/svg11.dtd" >
<svg xmlns="http://www.w3.org/2000/svg" xmlns:xlink="http://www.w3.org/1999/xlink" version="1.1" viewBox="-10 0 1010 1000">
   <path fill="currentColor"
d="M365 480l9 68c-40 12 -81 24 -120 36v283c0 42 -11 62 -37 74c-25 12 -67 14 -135 13c-3 -19 -14 -48 -24 -68c48 1 91 1 103 0c15 0 20 -5 20 -19v-261l-120 35l-21 -73c40 -9 88 -21 141 -36v-218h-128v-70h128v-200h73v200h111v70h-111v198c36 -10 74 -21 111 -32z
M810 487h-308c34 87 84 166 147 230c69 -62 125 -139 161 -230zM857 415l49 21c-42 137 -113 246 -203 329c72 59 158 102 258 129c-16 15 -37 44 -48 64c-104 -32 -193 -80 -267 -145c-85 65 -182 111 -284 143c-8 -20 -26 -51 -40 -67c97 -26 190 -68 271 -127
c-70 -75 -125 -167 -164 -274l3 -1h-33v-69h214v-149h-234v-69h234v-157h73v157h239v69h-239v149h159z" />
</svg>
