<?xml version="1.0" standalone="no"?>
<!DOCTYPE svg PUBLIC "-//W3C//DTD SVG 1.1//EN" "http://www.w3.org/Graphics/SVG/1.1/DTD/svg11.dtd" >
<svg xmlns="http://www.w3.org/2000/svg" xmlns:xlink="http://www.w3.org/1999/xlink" version="1.1" viewBox="-10 0 1010 1000">
   <path fill="currentColor"
d="M952 469l-68 24c-17 -73 -64 -188 -111 -273l63 -21c50 85 97 196 116 270zM697 44v614h-71v-614h71zM480 214l69 12c-18 116 -47 239 -83 318c-14 -10 -45 -24 -63 -31c36 -76 63 -190 77 -299zM395 541l-134 40v286c0 42 -10 61 -36 74c-26 11 -67 13 -135 12
c-3 -18 -14 -48 -23 -67c47 1 90 1 102 0c14 0 20 -5 20 -19v-265c-47 15 -92 27 -132 39l-22 -72c43 -10 96 -24 154 -41v-214h-140v-70h140v-200h72v200h124v70h-124v195l125 -35zM836 529l70 22c-80 216 -246 340 -509 404c-8 -21 -25 -50 -41 -67
c249 -51 408 -163 480 -359z" />
</svg>
