<?xml version="1.0" standalone="no"?>
<!DOCTYPE svg PUBLIC "-//W3C//DTD SVG 1.1//EN" "http://www.w3.org/Graphics/SVG/1.1/DTD/svg11.dtd" >
<svg xmlns="http://www.w3.org/2000/svg" xmlns:xlink="http://www.w3.org/1999/xlink" version="1.1" viewBox="-10 0 1010 1000">
   <path fill="currentColor"
d="M379 545l-123 37v280c0 42 -10 62 -36 73c-26 12 -67 14 -136 14c-2 -19 -13 -49 -23 -69c48 2 91 1 103 1c14 0 20 -5 20 -19v-258c-45 14 -87 26 -125 37l-22 -72c41 -10 92 -23 147 -39v-216h-135v-70h135v-200h72v200h111v70h-111v197l114 -33zM783 309h-247
c27 138 68 258 133 353c58 -91 95 -206 114 -353zM949 309h-87c-27 176 -72 310 -146 414c63 72 145 126 248 159c-18 16 -40 45 -51 66c-102 -37 -183 -92 -247 -165c-71 74 -162 130 -280 172c-8 -17 -34 -50 -50 -66c124 -37 215 -90 284 -165
c-77 -108 -125 -248 -157 -415h-74v-72h276c-20 -49 -62 -119 -102 -171l61 -25c44 55 91 128 110 178l-41 18h256v72z" />
</svg>
