<?xml version="1.0" standalone="no"?>
<!DOCTYPE svg PUBLIC "-//W3C//DTD SVG 1.1//EN" "http://www.w3.org/Graphics/SVG/1.1/DTD/svg11.dtd" >
<svg xmlns="http://www.w3.org/2000/svg" xmlns:xlink="http://www.w3.org/1999/xlink" version="1.1" viewBox="-10 0 1010 1000">
   <path fill="currentColor"
d="M365 479l10 69c-40 12 -79 24 -118 35v279c0 42 -10 62 -37 73c-25 12 -66 14 -135 14c-3 -19 -14 -49 -23 -69c48 2 91 1 103 1c14 0 19 -5 19 -19v-257l-125 36l-22 -72c41 -10 92 -23 147 -39v-216h-135v-70h135v-200h73v200h113v70h-113v196zM857 304h-184
c-16 202 -79 450 -302 647c-15 -14 -41 -32 -63 -43c218 -188 278 -420 295 -604h-130v145h-66v-212h200c1 -24 1 -46 1 -68v-124h70v123c0 22 0 45 -1 69h248v212h-68v-145zM769 877h96c29 0 33 -22 36 -146c15 13 42 25 62 29c-7 144 -25 183 -92 183h-110
c-73 0 -92 -23 -92 -101v-416h67v416c0 30 6 35 33 35z" />
</svg>
