<?xml version="1.0" standalone="no"?>
<!DOCTYPE svg PUBLIC "-//W3C//DTD SVG 1.1//EN" "http://www.w3.org/Graphics/SVG/1.1/DTD/svg11.dtd" >
<svg xmlns="http://www.w3.org/2000/svg" xmlns:xlink="http://www.w3.org/1999/xlink" version="1.1" viewBox="-10 0 1010 1000">
   <path fill="currentColor"
d="M367 485l9 67c-42 14 -84 27 -125 39v274c0 43 -10 62 -35 75c-26 12 -66 13 -133 13c-3 -19 -13 -50 -23 -69c45 1 87 1 98 0c14 -1 19 -5 19 -19v-251c-45 14 -87 26 -125 38l-14 -73c39 -10 87 -23 139 -37v-228h-130v-69h130v-201h74v201h113v69h-113v205
c38 -11 78 -22 116 -34zM913 401l50 18c-39 90 -85 191 -128 254l-58 -24c28 -44 61 -110 88 -174h-163v394c0 43 -11 63 -42 75c-30 12 -81 14 -158 13c-3 -21 -14 -51 -26 -72c59 2 114 2 131 1c15 0 21 -4 21 -18v-393h-238v-70h337c-59 -45 -149 -106 -219 -149l42 -48
c30 17 63 38 97 59c47 -31 99 -73 139 -113h-352v-68h417l16 -5l50 39c-57 64 -139 134 -214 184c37 25 72 48 95 68l-26 33h128z" />
</svg>
