<?xml version="1.0" standalone="no"?>
<!DOCTYPE svg PUBLIC "-//W3C//DTD SVG 1.1//EN" "http://www.w3.org/Graphics/SVG/1.1/DTD/svg11.dtd" >
<svg xmlns="http://www.w3.org/2000/svg" xmlns:xlink="http://www.w3.org/1999/xlink" version="1.1" viewBox="-10 0 1010 1000">
   <path fill="currentColor"
d="M354 476l10 67c-41 14 -82 28 -122 41v278c0 41 -9 60 -34 72c-23 12 -61 15 -125 14c-2 -18 -11 -48 -21 -69c43 1 82 1 93 1c13 0 18 -4 18 -18v-255c-40 13 -79 25 -114 36l-18 -71c37 -10 82 -24 132 -40v-219h-123v-69h123v-202h69v202h121v69h-121v198
c36 -11 75 -24 112 -35zM861 66l58 55c-26 8 -56 16 -87 24c8 319 25 610 126 739c-17 15 -42 45 -53 66c-110 -154 -131 -443 -141 -790c-37 7 -75 13 -114 19v771h-69v-762c-40 6 -81 10 -120 14v157c0 167 -15 418 -109 591c-14 -12 -43 -29 -60 -35
c92 -166 101 -397 101 -556v-211h1c167 -17 361 -46 467 -82z" />
</svg>
