<?xml version="1.0" standalone="no"?>
<!DOCTYPE svg PUBLIC "-//W3C//DTD SVG 1.1//EN" "http://www.w3.org/Graphics/SVG/1.1/DTD/svg11.dtd" >
<svg xmlns="http://www.w3.org/2000/svg" xmlns:xlink="http://www.w3.org/1999/xlink" version="1.1" viewBox="-10 0 1010 1000">
   <path fill="currentColor"
d="M700 186l-72 25c-13 -42 -43 -107 -68 -154l67 -21c28 47 58 110 73 150zM957 220v70h-566v-70h566zM376 479l9 66c-42 13 -84 26 -126 38v281c0 43 -10 62 -37 74c-26 12 -67 14 -135 14c-3 -19 -13 -49 -24 -68c48 1 91 1 103 0c14 -1 20 -5 20 -20v-260l-133 39
l-18 -72c42 -10 94 -24 151 -40v-217h-135v-69h135v-200h73v200h113v69h-113v198zM837 883h31c9 0 18 -2 23 -6c5 -5 9 -15 11 -34c2 -21 3 -67 4 -126c14 12 38 24 56 31c0 53 -3 117 -8 140c-6 24 -16 38 -29 47s-35 13 -53 13h-53c-20 0 -43 -6 -58 -19
c-16 -13 -22 -31 -22 -101v-369h-187v115c0 125 -30 286 -186 390c-9 -16 -35 -47 -49 -57c142 -94 162 -227 162 -334v-183h333v442c0 26 1 41 7 46c5 4 11 5 18 5z" />
</svg>
