<?xml version="1.0" standalone="no"?>
<!DOCTYPE svg PUBLIC "-//W3C//DTD SVG 1.1//EN" "http://www.w3.org/Graphics/SVG/1.1/DTD/svg11.dtd" >
<svg xmlns="http://www.w3.org/2000/svg" xmlns:xlink="http://www.w3.org/1999/xlink" version="1.1" viewBox="-10 0 1010 1000">
   <path fill="currentColor"
d="M374 472l10 67c-42 15 -84 30 -126 44v285c0 41 -10 62 -35 74c-27 11 -67 13 -133 12c-3 -18 -13 -49 -22 -67c45 1 86 1 99 0c13 0 18 -4 18 -19v-260l-126 43l-22 -75c41 -11 92 -27 148 -44v-224h-135v-70h135v-195h73v195h110v70h-110v201zM807 483h-241
c29 89 73 170 132 238c48 -65 86 -144 109 -238zM843 413l45 14c-25 145 -74 258 -141 345c61 56 134 99 218 124c-17 15 -38 44 -49 64c-83 -29 -155 -75 -216 -134c-55 57 -119 99 -189 129c-9 -17 -29 -45 -43 -59c68 -26 131 -66 184 -121c-45 -54 -82 -116 -112 -183
c-34 142 -95 270 -203 359c-11 -16 -35 -38 -54 -49c172 -136 215 -380 227 -619h-130v-69h133c1 -58 2 -115 2 -170h71c0 55 -1 112 -3 170h369v69h-372c-2 44 -5 89 -10 133h260z" />
</svg>
