<?xml version="1.0" standalone="no"?>
<!DOCTYPE svg PUBLIC "-//W3C//DTD SVG 1.1//EN" "http://www.w3.org/Graphics/SVG/1.1/DTD/svg11.dtd" >
<svg xmlns="http://www.w3.org/2000/svg" xmlns:xlink="http://www.w3.org/1999/xlink" version="1.1" viewBox="-10 0 1010 1000">
   <path fill="currentColor"
d="M443 242v136h-71v-204h238c-15 -35 -38 -78 -59 -114l64 -18c28 40 57 95 71 132h237v204h-73v-136h-407zM337 480l10 67c-36 12 -71 24 -106 36v281c0 41 -10 60 -35 72c-23 12 -62 15 -126 14c-2 -18 -12 -48 -22 -69c44 1 83 1 95 1s18 -4 18 -19v-258
c-43 14 -84 27 -121 38l-19 -71c39 -11 87 -25 140 -41v-218h-126v-69h126v-200h70v200h91v69h-91v197zM817 852h58c21 0 24 -23 26 -154c17 14 45 27 65 32c-6 148 -23 190 -84 190h-77c-66 0 -82 -23 -82 -101v-390h-173v76c0 138 -25 323 -190 449
c-11 -14 -37 -39 -53 -51c152 -116 171 -280 171 -399v-145h316v460c0 28 3 33 23 33z" />
</svg>
