<?xml version="1.0" standalone="no"?>
<!DOCTYPE svg PUBLIC "-//W3C//DTD SVG 1.1//EN" "http://www.w3.org/Graphics/SVG/1.1/DTD/svg11.dtd" >
<svg xmlns="http://www.w3.org/2000/svg" xmlns:xlink="http://www.w3.org/1999/xlink" version="1.1" viewBox="-10 0 1010 1000">
   <path fill="currentColor"
d="M371 479l9 67l-118 35v281c0 42 -10 62 -36 73c-26 12 -67 14 -136 14c-2 -19 -13 -49 -23 -69c48 2 91 1 103 1c14 0 20 -5 20 -19v-260c-47 14 -92 27 -131 39l-22 -72c42 -10 95 -25 153 -41v-215h-141v-70h141v-199h72v199h112v70h-112v196zM841 607l63 26
c-86 160 -250 266 -459 324c-8 -19 -25 -44 -40 -61c200 -47 359 -145 436 -289zM663 316l59 24c-59 86 -155 166 -244 216c-11 -16 -30 -36 -46 -48c84 -43 179 -119 231 -192zM755 458l60 25c-72 108 -191 201 -312 258c-11 -16 -28 -38 -45 -52
c116 -49 234 -135 297 -231zM649 42l67 20c-6 13 -13 28 -20 42c65 94 176 190 273 240c-16 14 -39 41 -51 60c-87 -51 -186 -144 -256 -241c-62 100 -148 185 -249 249c-10 -14 -33 -40 -47 -52c127 -76 232 -194 283 -318z" />
</svg>
