<?xml version="1.0" standalone="no"?>
<!DOCTYPE svg PUBLIC "-//W3C//DTD SVG 1.1//EN" "http://www.w3.org/Graphics/SVG/1.1/DTD/svg11.dtd" >
<svg xmlns="http://www.w3.org/2000/svg" xmlns:xlink="http://www.w3.org/1999/xlink" version="1.1" viewBox="-10 0 1010 1000">
   <path fill="currentColor"
d="M338 478l10 68l-110 36v282c0 41 -9 60 -34 72c-23 12 -61 15 -125 14c-2 -18 -11 -48 -21 -69c43 1 82 1 93 1c13 0 18 -4 18 -19v-258c-42 13 -82 27 -118 38l-19 -71c37 -11 85 -25 137 -41v-218h-123v-69h123v-200h69v200h108v69h-108v197zM566 232l48 -30
c43 42 98 101 126 135l-50 37c-27 -37 -81 -97 -124 -142zM725 646l-48 39c-28 -37 -84 -99 -128 -144l47 -33c43 43 100 102 129 138zM465 717h333c5 -60 9 -139 13 -243h-324c-7 88 -14 173 -22 243zM819 166h-310c-5 76 -11 161 -17 243h321c2 -71 4 -151 6 -243z
M959 474h-76c-3 102 -7 182 -12 243h71v66h-77c-8 66 -18 101 -30 120c-20 30 -40 40 -70 43c-30 4 -77 3 -122 1c-2 -20 -9 -49 -21 -69c48 4 92 4 112 4c16 1 26 -3 35 -18c9 -11 16 -37 22 -81h-406c10 -82 22 -193 32 -309h-75v-65h80c9 -107 16 -215 20 -307h450v41
c-2 101 -4 190 -7 266h74v65z" />
</svg>
