<?xml version="1.0" standalone="no"?>
<!DOCTYPE svg PUBLIC "-//W3C//DTD SVG 1.1//EN" "http://www.w3.org/Graphics/SVG/1.1/DTD/svg11.dtd" >
<svg xmlns="http://www.w3.org/2000/svg" xmlns:xlink="http://www.w3.org/1999/xlink" version="1.1" viewBox="-10 0 1010 1000">
   <path fill="currentColor"
d="M703 433l-64 30c-19 -79 -73 -206 -127 -302l61 -25c55 95 111 220 130 297zM333 480l10 68l-104 34v287c0 41 -10 60 -34 72c-23 12 -61 15 -124 14c-3 -18 -12 -48 -22 -69c43 1 83 1 94 1c12 0 17 -4 17 -18v-264l-119 38l-19 -71c38 -11 86 -25 138 -41v-218h-124
v-69h124v-200h69v200h94v69h-94v197zM479 707l164 -117c6 20 17 48 24 62c-221 162 -250 186 -268 211l-1 -6c-1 2 -1 4 -1 6c-7 -16 -27 -44 -40 -55c19 -15 50 -46 50 -94v-629h72v622zM970 891l-70 34c-18 -69 -59 -175 -104 -272c-42 122 -105 221 -202 299
c-10 -14 -43 -43 -59 -56c214 -153 254 -430 266 -825l74 1c-7 186 -19 346 -51 480c60 112 123 252 146 339z" />
</svg>
