<?xml version="1.0" standalone="no"?>
<!DOCTYPE svg PUBLIC "-//W3C//DTD SVG 1.1//EN" "http://www.w3.org/Graphics/SVG/1.1/DTD/svg11.dtd" >
<svg xmlns="http://www.w3.org/2000/svg" xmlns:xlink="http://www.w3.org/1999/xlink" version="1.1" viewBox="-10 0 1010 1000">
   <path fill="currentColor"
d="M346 485l9 68c-38 12 -75 24 -112 34v283c0 38 -9 57 -32 69c-22 12 -57 14 -111 14c-3 -18 -11 -49 -21 -69c35 1 67 1 77 1c11 0 15 -4 15 -15v-260l-114 34l-17 -71c36 -9 82 -22 131 -37v-223h-114v-69h114v-200h72v200h101v69h-101v203zM552 336l43 14
c-37 204 -119 342 -227 418c-10 -15 -36 -39 -51 -48c93 -62 165 -169 200 -318h-151v-64h175zM340 936v-69h605v69h-605zM885 298l55 45c-51 50 -113 105 -165 145c47 93 111 169 187 214c-15 14 -38 38 -49 57c-99 -68 -174 -184 -224 -324v311c0 38 -8 57 -34 68
c-25 11 -64 13 -124 13c-3 -19 -14 -47 -24 -67c44 2 84 1 96 1s16 -4 16 -15v-487c53 -25 111 -63 156 -101h-348v-66h418l15 -4l47 36c-54 58 -133 118 -207 161h1c13 51 28 101 48 148c48 -41 102 -94 136 -135z" />
</svg>
