<?xml version="1.0" standalone="no"?>
<!DOCTYPE svg PUBLIC "-//W3C//DTD SVG 1.1//EN" "http://www.w3.org/Graphics/SVG/1.1/DTD/svg11.dtd" >
<svg xmlns="http://www.w3.org/2000/svg" xmlns:xlink="http://www.w3.org/1999/xlink" version="1.1" viewBox="-10 0 1010 1000">
   <path fill="currentColor"
d="M938 418h-245c67 78 174 140 286 171c-17 15 -37 42 -48 61c-127 -42 -247 -127 -321 -232h-222c-26 32 -55 63 -89 91c120 -9 257 -23 334 -42l48 46c-41 10 -91 19 -145 25v74h251v55h-251v68h348v57h-348v82c0 40 -11 58 -42 68c-32 10 -83 11 -164 11
c-5 -19 -17 -45 -28 -62c63 2 123 2 139 1c17 -1 22 -5 22 -19v-81h-347v-57h347v-68h-248v-55h248v-66c-58 6 -117 10 -171 13c-1 -10 -6 -23 -10 -34c-58 47 -125 88 -202 122c-9 -17 -30 -45 -45 -57c107 -44 192 -104 258 -172h-228v-63h282c20 -25 38 -52 52 -78h-272
v-64h163c-16 -33 -49 -82 -79 -119l55 -26c33 36 70 86 85 120l-47 25h128c24 -57 41 -116 50 -172l75 8c-10 55 -26 110 -48 164h130c31 -41 68 -99 89 -139l68 23c-26 40 -55 81 -84 116h157v64h-389c-14 26 -29 53 -45 78h503v63z" />
</svg>
