<?xml version="1.0" standalone="no"?>
<!DOCTYPE svg PUBLIC "-//W3C//DTD SVG 1.1//EN" "http://www.w3.org/Graphics/SVG/1.1/DTD/svg11.dtd" >
<svg xmlns="http://www.w3.org/2000/svg" xmlns:xlink="http://www.w3.org/1999/xlink" version="1.1" viewBox="-10 0 1010 1000">
   <path fill="currentColor"
d="M958 404l-65 30c-26 -51 -83 -129 -144 -195c46 -60 96 -134 123 -182l69 19c-32 52 -75 111 -114 162c50 55 104 122 131 166zM765 399l-66 27c-24 -51 -75 -125 -131 -191c44 -59 91 -131 115 -178l69 19c-29 51 -71 109 -107 158c47 55 95 121 120 165zM575 408
l-66 26c-23 -52 -69 -128 -121 -195c43 -60 89 -134 112 -182l68 18c-29 52 -69 112 -104 163c44 57 89 126 111 170zM365 424l14 65c-39 16 -78 31 -116 47v314c0 41 -10 60 -36 72c-25 12 -65 14 -131 13c-3 -18 -13 -47 -23 -67c45 1 87 1 99 1c13 0 19 -5 19 -19v-287
c-46 19 -90 35 -129 50l-22 -71c41 -13 94 -32 151 -53v-208h-138v-70h138v-168h72v168h111v70h-111v181c33 -12 69 -25 102 -38zM883 504l14 -4l47 22c-86 279 -318 384 -596 430c-7 -20 -21 -49 -34 -65c122 -16 238 -45 332 -99c-30 -37 -73 -83 -112 -117l54 -36
c39 34 84 79 116 116c63 -47 114 -107 146 -184h-272c-46 55 -105 107 -179 151c-10 -17 -30 -42 -45 -52c124 -69 203 -167 241 -252l74 13c-13 25 -28 52 -44 77h258z" />
</svg>
