<?xml version="1.0" standalone="no"?>
<!DOCTYPE svg PUBLIC "-//W3C//DTD SVG 1.1//EN" "http://www.w3.org/Graphics/SVG/1.1/DTD/svg11.dtd" >
<svg xmlns="http://www.w3.org/2000/svg" xmlns:xlink="http://www.w3.org/1999/xlink" version="1.1" viewBox="-10 0 1010 1000">
   <path fill="currentColor"
d="M340 544l-104 36v284c0 41 -9 60 -34 72c-22 12 -60 15 -123 14c-2 -18 -11 -48 -21 -69c43 1 82 1 93 1c12 0 18 -4 18 -19v-259c-41 14 -80 27 -116 39l-19 -71c37 -11 84 -26 135 -43v-216h-122v-69h122v-200h67v200h97v69h-97v194l92 -30zM951 226h-391
c-35 210 -96 375 -209 492c-11 -11 -39 -38 -55 -48c107 -101 164 -255 195 -444h-136v-68h146c5 -34 9 -71 12 -107l69 6c-3 34 -7 69 -12 101h381v68zM852 608l-54 -14c28 -59 65 -157 82 -223l65 15c-27 75 -64 166 -93 222zM550 628l-49 -28c33 -51 48 -138 55 -216
l54 11c-7 84 -21 178 -60 233zM686 289h65c-2 117 -4 216 -16 299c29 151 98 262 233 305c-15 13 -34 39 -43 57c-110 -41 -178 -124 -218 -237c-39 111 -113 186 -257 237c-7 -17 -26 -42 -40 -55c261 -86 272 -249 276 -606z" />
</svg>
