<?xml version="1.0" standalone="no"?>
<!DOCTYPE svg PUBLIC "-//W3C//DTD SVG 1.1//EN" "http://www.w3.org/Graphics/SVG/1.1/DTD/svg11.dtd" >
<svg xmlns="http://www.w3.org/2000/svg" xmlns:xlink="http://www.w3.org/1999/xlink" version="1.1" viewBox="-10 0 1010 1000">
   <path fill="currentColor"
d="M609 220l-68 31c-15 -46 -52 -119 -88 -173l63 -26c36 52 76 124 93 168zM337 548l-98 33v281c0 42 -9 63 -34 76c-24 12 -63 15 -124 15c-4 -20 -13 -52 -23 -74c42 2 80 2 91 1c14 0 18 -4 18 -18v-257l-116 38l-19 -72c37 -11 84 -24 135 -40v-218h-122v-69h122v-200
h72v200h99v69h-99v195l88 -28zM586 524h144v-199h-144v189v10zM948 524v72h-145v357h-73v-357h-146c-11 125 -52 266 -196 365c-10 -16 -34 -42 -50 -53c130 -81 164 -204 173 -312h-150v-72h152v-11v-188h-119v-71h322c33 -59 71 -146 92 -209l76 28
c-28 58 -61 128 -92 181h133v71h-122v199h145z" />
</svg>
