<?xml version="1.0" standalone="no"?>
<!DOCTYPE svg PUBLIC "-//W3C//DTD SVG 1.1//EN" "http://www.w3.org/Graphics/SVG/1.1/DTD/svg11.dtd" >
<svg xmlns="http://www.w3.org/2000/svg" xmlns:xlink="http://www.w3.org/1999/xlink" version="1.1" viewBox="-10 0 1010 1000">
   <path fill="currentColor"
d="M937 454l-66 35c-10 -20 -25 -46 -41 -73c-390 27 -434 31 -463 43c-3 -20 -16 -60 -21 -76c16 -4 37 -11 55 -29c24 -23 95 -121 137 -181h-178v-68h571v68h-305c-41 59 -99 141 -143 199l309 -19c-25 -39 -50 -80 -74 -115l61 -28c54 77 123 182 158 244zM340 549
l-102 33v282c0 41 -9 60 -34 72c-23 12 -61 15 -125 14c-2 -18 -11 -48 -21 -69c43 1 82 1 93 1c13 0 18 -4 18 -19v-258l-118 38l-19 -71c38 -11 85 -25 137 -41v-218h-123v-69h123v-200h69v200h101v69h-101v197l92 -29zM674 850h278v69h-637v-69h286v-179h-225v-67h225
v-137h73v137h228v67h-228v179z" />
</svg>
