<?xml version="1.0" standalone="no"?>
<!DOCTYPE svg PUBLIC "-//W3C//DTD SVG 1.1//EN" "http://www.w3.org/Graphics/SVG/1.1/DTD/svg11.dtd" >
<svg xmlns="http://www.w3.org/2000/svg" xmlns:xlink="http://www.w3.org/1999/xlink" version="1.1" viewBox="-10 0 1010 1000">
   <path fill="currentColor"
d="M377 543l-122 38v290c0 40 -10 61 -35 73c-26 10 -66 12 -132 12c-3 -18 -12 -48 -22 -67c45 1 86 1 99 1c14 0 18 -5 18 -19v-268l-131 41l-19 -73c42 -11 94 -25 150 -41v-218h-138v-68h138v-200h72v200h111v68h-111v197l112 -33zM481 589h380
c-71 -31 -136 -72 -193 -122c-58 49 -121 90 -187 122zM521 842h289v-187h-289v187zM564 209l-9 12c29 55 67 106 113 152c49 -49 92 -104 122 -164h-226zM839 141l46 23c-37 99 -95 184 -165 255c73 59 160 105 254 132c-16 14 -38 44 -49 62c-15 -5 -29 -10 -43 -15v353
h-72v-43h-289v47h-71v-351c-25 11 -51 21 -76 30c-9 -19 -28 -49 -43 -64c100 -30 201 -82 286 -152c-40 -42 -76 -90 -105 -141c-35 41 -73 77 -111 105c-10 -14 -33 -34 -50 -46c91 -64 175 -174 220 -294l71 22c-11 28 -24 55 -39 81h223z" />
</svg>
