<?xml version="1.0" standalone="no"?>
<!DOCTYPE svg PUBLIC "-//W3C//DTD SVG 1.1//EN" "http://www.w3.org/Graphics/SVG/1.1/DTD/svg11.dtd" >
<svg xmlns="http://www.w3.org/2000/svg" xmlns:xlink="http://www.w3.org/1999/xlink" version="1.1" viewBox="-10 0 1010 1000">
   <path fill="currentColor"
d="M700 192l-67 26c-9 -39 -33 -102 -58 -149l62 -21c26 46 53 107 63 144zM326 546l-97 34v286c0 41 -9 62 -33 74c-24 13 -61 16 -120 15c-3 -20 -12 -51 -22 -72c40 1 76 1 87 0c12 0 17 -3 17 -16v-262c-38 14 -74 26 -108 38l-18 -71c35 -11 78 -25 126 -41v-218h-113
v-69h113v-200h71v200h95v69h-95v194l86 -30zM902 393l52 51c-56 55 -130 118 -190 163c54 108 123 198 204 251c-16 13 -41 39 -53 59c-142 -104 -241 -306 -301 -534c-23 38 -49 73 -76 106v362l173 -61c4 19 12 46 18 60c-219 80 -250 94 -271 110c-5 -18 -18 -48 -29 -64
c17 -8 40 -25 40 -64v-265c-35 37 -72 70 -108 98c-9 -13 -33 -46 -48 -59c103 -74 204 -185 272 -307h-226v-70h580v70h-275l-4 8c19 84 46 168 79 245c56 -47 122 -110 163 -159z" />
</svg>
