<?xml version="1.0" standalone="no"?>
<!DOCTYPE svg PUBLIC "-//W3C//DTD SVG 1.1//EN" "http://www.w3.org/Graphics/SVG/1.1/DTD/svg11.dtd" >
<svg xmlns="http://www.w3.org/2000/svg" xmlns:xlink="http://www.w3.org/1999/xlink" version="1.1" viewBox="-10 0 1010 1000">
   <path fill="currentColor"
d="M782 692v-403h-236v-68h236v-156h69v156h101v68h-101v403c0 43 -11 63 -39 74c-29 12 -77 13 -152 13c-3 -19 -14 -49 -23 -68c57 1 109 1 124 0c16 0 21 -4 21 -19zM564 392l55 -24c45 64 94 148 117 201l-60 28c-20 -53 -69 -140 -112 -205zM505 274l-67 27
c-15 -50 -52 -132 -85 -193l61 -21c36 59 74 137 91 187zM317 520l-90 35v306c0 41 -8 61 -32 73c-24 13 -60 16 -118 15c-2 -19 -12 -51 -21 -72c38 1 74 1 84 0c12 0 17 -3 17 -16v-280l-96 37l-21 -71c33 -10 73 -25 117 -41v-191h-107v-71h107v-200h70v200h89v71h-89
v166l78 -30zM498 416v340c17 12 34 31 60 51c48 35 104 47 184 47c63 0 163 -4 228 -12c-7 20 -17 56 -18 77c-50 4 -155 6 -210 6c-88 0 -147 -15 -199 -55c-34 -29 -61 -59 -80 -60c-29 0 -72 59 -115 127l-50 -67c46 -56 91 -100 131 -117v-266h-96v-71h165z" />
</svg>
