<?xml version="1.0" standalone="no"?>
<!DOCTYPE svg PUBLIC "-//W3C//DTD SVG 1.1//EN" "http://www.w3.org/Graphics/SVG/1.1/DTD/svg11.dtd" >
<svg xmlns="http://www.w3.org/2000/svg" xmlns:xlink="http://www.w3.org/1999/xlink" version="1.1" viewBox="-10 0 1010 1000">
   <path fill="currentColor"
d="M350 534l-112 41v287c0 42 -10 61 -36 72c-25 12 -66 13 -134 13c-3 -18 -14 -47 -23 -67c48 2 91 1 103 1c14 0 19 -5 19 -19v-260l-105 38l-23 -71c36 -11 80 -26 128 -42v-213h-117v-69h117v-200h71v200h95v69h-95v188l101 -36zM487 620v-75h72v76
c0 107 -34 247 -172 342c-10 -15 -38 -42 -53 -51c129 -87 153 -202 153 -292zM729 954v-408h73v408h-73zM944 376h-183c50 73 128 147 201 183c-16 13 -38 38 -50 56c-82 -50 -173 -147 -226 -239h-87c-50 108 -123 190 -222 250c-8 -15 -32 -46 -46 -59
c84 -46 145 -110 190 -191h-161v-68h192c17 -41 29 -86 39 -135c-64 6 -126 11 -185 14c-2 -18 -12 -44 -20 -62c157 -10 347 -31 455 -61l43 62c-60 17 -138 30 -219 39c-10 51 -23 99 -39 143h318v68z" />
</svg>
