<?xml version="1.0" standalone="no"?>
<!DOCTYPE svg PUBLIC "-//W3C//DTD SVG 1.1//EN" "http://www.w3.org/Graphics/SVG/1.1/DTD/svg11.dtd" >
<svg xmlns="http://www.w3.org/2000/svg" xmlns:xlink="http://www.w3.org/1999/xlink" version="1.1" viewBox="-10 0 1010 1000">
   <path fill="currentColor"
d="M925 317l-63 39c-10 -19 -25 -41 -40 -65c-366 25 -408 28 -435 39c-4 -15 -15 -52 -24 -70c18 -3 36 -17 58 -38c24 -20 101 -99 151 -178l76 25c-50 64 -107 128 -162 178l290 -17c-25 -32 -52 -64 -78 -92l59 -33c62 65 134 153 168 212zM952 686h-281
c52 107 151 179 291 208c-16 16 -35 44 -46 64c-135 -35 -229 -107 -290 -216c-40 82 -126 161 -303 217c-7 -18 -24 -46 -37 -61c181 -56 255 -134 285 -212h-262v-66h278c2 -19 3 -37 3 -55v-76h-137c-22 41 -48 78 -72 108c-14 -11 -44 -31 -62 -41l2 -1l-89 29v281
c0 42 -9 62 -33 74s-62 15 -125 14c-2 -19 -12 -49 -21 -70c42 1 81 1 92 0c13 0 18 -3 18 -18v-259c-40 13 -78 26 -113 37l-18 -72c36 -10 81 -23 131 -38v-220h-118v-69h118v-200h69v200h97v69h-97v198c28 -8 58 -18 87 -28l9 64c51 -59 96 -142 122 -223l70 17
c-10 27 -21 55 -34 82h413v66h-237v78c0 18 -1 35 -2 53h292v66z" />
</svg>
