<?xml version="1.0" standalone="no"?>
<!DOCTYPE svg PUBLIC "-//W3C//DTD SVG 1.1//EN" "http://www.w3.org/Graphics/SVG/1.1/DTD/svg11.dtd" >
<svg xmlns="http://www.w3.org/2000/svg" xmlns:xlink="http://www.w3.org/1999/xlink" version="1.1" viewBox="-10 0 1010 1000">
   <path fill="currentColor"
d="M346 485l9 68c-37 12 -75 23 -112 34v282c0 39 -9 58 -32 70c-22 12 -57 14 -111 14c-3 -18 -11 -49 -21 -69c35 1 67 1 77 1c11 0 15 -4 15 -16v-259l-114 34l-17 -72c36 -8 82 -21 131 -36v-223h-114v-69h114v-200h72v200h101v69h-101v203zM888 528l51 45
c-42 40 -93 80 -136 110c40 83 93 151 159 192c-17 13 -39 39 -50 57c-117 -84 -190 -250 -229 -441h-67v356l134 -54c1 18 7 46 10 61c-168 74 -194 89 -210 104c-7 -16 -25 -42 -37 -54c15 -12 35 -38 35 -83v-330h-69c-2 149 -17 338 -91 468c-12 -12 -44 -32 -62 -40
c75 -134 81 -321 81 -465v-363h525v69h-453v265h465v66h-205c11 49 25 96 42 139c38 -31 81 -70 107 -102zM904 322h-377v-66h377v66z" />
</svg>
