<?xml version="1.0" standalone="no"?>
<!DOCTYPE svg PUBLIC "-//W3C//DTD SVG 1.1//EN" "http://www.w3.org/Graphics/SVG/1.1/DTD/svg11.dtd" >
<svg xmlns="http://www.w3.org/2000/svg" xmlns:xlink="http://www.w3.org/1999/xlink" version="1.1" viewBox="-10 0 1010 1000">
   <path fill="currentColor"
d="M956 273l-59 34c-32 -48 -105 -124 -165 -178l55 -30c60 51 134 126 169 174zM762 243l71 15c-83 138 -282 200 -476 235c-9 -14 -34 -42 -49 -55c196 -26 384 -81 454 -195zM653 45v290h-69v-290h69zM440 100l67 19c-38 68 -96 143 -145 191c-13 -11 -42 -29 -59 -37
c52 -45 104 -112 137 -173zM309 116l-42 53c-36 -23 -104 -57 -154 -78l41 -46c51 20 118 51 155 71zM232 234l-39 53c-36 -22 -101 -54 -149 -73l38 -47c50 18 114 47 150 67zM261 284l24 54c-61 62 -129 128 -185 179l-44 -54c52 -41 131 -111 205 -179zM536 677v65h404
v57h-404v78c0 41 -10 59 -41 70c-32 10 -84 11 -164 11c-4 -20 -15 -45 -26 -64c63 2 120 2 136 1c17 -1 22 -5 22 -19v-77h-402v-57h402v-65h-339v-57h339v-62c-90 6 -182 9 -268 11c-1 -15 -8 -39 -15 -53c210 -6 467 -23 604 -51l50 50c-81 16 -187 28 -298 37v68h348v57
h-348z" />
</svg>
