<?xml version="1.0" standalone="no"?>
<!DOCTYPE svg PUBLIC "-//W3C//DTD SVG 1.1//EN" "http://www.w3.org/Graphics/SVG/1.1/DTD/svg11.dtd" >
<svg xmlns="http://www.w3.org/2000/svg" xmlns:xlink="http://www.w3.org/1999/xlink" version="1.1" viewBox="-10 0 1010 1000">
   <path fill="currentColor"
d="M348 533l-109 36v301c0 41 -9 61 -34 73c-24 11 -62 14 -124 13c-3 -17 -12 -48 -22 -68c43 1 82 1 94 0c12 0 17 -3 17 -18v-279l-119 39l-19 -72c38 -10 86 -25 138 -41v-205h-125v-68h125v-200h69v200h107v68h-107v184c33 -10 66 -21 99 -32zM717 623h-160v127h160
v-127zM777 805h-220v55h-60v-294h280v239zM837 149h-395v124h395v-124zM943 423v33c-11 321 -21 432 -49 467c-18 22 -37 30 -67 32c-27 2 -74 2 -123 0c-1 -19 -9 -47 -21 -65c50 5 97 5 115 5c17 0 26 -2 35 -13c21 -24 31 -124 39 -394h-430c-3 150 -21 341 -105 470
c-12 -12 -43 -31 -59 -39c87 -135 95 -329 95 -475v-360h536v255h-467v84h501z" />
</svg>
