<?xml version="1.0" standalone="no"?>
<!DOCTYPE svg PUBLIC "-//W3C//DTD SVG 1.1//EN" "http://www.w3.org/Graphics/SVG/1.1/DTD/svg11.dtd" >
<svg xmlns="http://www.w3.org/2000/svg" xmlns:xlink="http://www.w3.org/1999/xlink" version="1.1" viewBox="-10 0 1010 1000">
   <path fill="currentColor"
d="M571 336v-196h-152v196h152zM638 76v323h-283v-323h283zM315 516l-96 39v320c0 37 -8 55 -30 66c-21 11 -54 13 -106 13c-3 -17 -11 -45 -20 -63c35 1 65 1 75 0c11 0 15 -3 15 -15v-296l-90 35l-21 -68c32 -10 70 -24 111 -40v-195h-101v-68h101v-200h66v200h87v68h-87
v171l84 -31zM497 527h155s-1 20 -1 29c-10 246 -21 331 -43 359c-14 18 -30 25 -53 27c-20 2 -55 2 -90 0c-1 -18 -7 -42 -16 -58c34 3 64 3 77 3s21 -1 28 -11c14 -18 23 -91 32 -287h-95c-18 153 -59 287 -165 371c-9 -15 -29 -36 -43 -46c93 -71 130 -191 145 -325h-93
v-62h99c3 -32 5 -65 6 -97h63c-2 32 -3 66 -6 97zM766 150v590h-62v-590h62zM859 43h66v829c0 41 -11 60 -36 71c-26 12 -68 14 -138 13c-4 -17 -13 -46 -21 -64c50 2 96 1 109 0c14 -1 20 -5 20 -20v-829z" />
</svg>
