<?xml version="1.0" standalone="no"?>
<!DOCTYPE svg PUBLIC "-//W3C//DTD SVG 1.1//EN" "http://www.w3.org/Graphics/SVG/1.1/DTD/svg11.dtd" >
<svg xmlns="http://www.w3.org/2000/svg" xmlns:xlink="http://www.w3.org/1999/xlink" version="1.1" viewBox="-10 0 1010 1000">
   <path fill="currentColor"
d="M842 229v-92h-244v92h244zM842 375v-93h-244v93h244zM908 79v354h-374v-354h374zM351 461l11 69c-40 13 -79 26 -118 39v290c0 41 -9 61 -33 73c-25 12 -62 14 -126 14c-2 -19 -12 -49 -21 -70c43 2 82 2 93 1c13 0 18 -4 18 -18v-268l-122 39l-18 -71
c38 -11 87 -26 140 -42v-204h-130v-69h130v-200h69v200h113v69h-113v183c35 -12 72 -23 107 -35zM949 718h-233c48 86 135 151 244 180c-16 14 -35 40 -45 59c-108 -35 -194 -106 -247 -199c-64 107 -161 165 -288 199c-6 -19 -22 -47 -35 -62c117 -26 207 -78 266 -177
h-256v-62h286c13 -32 23 -68 30 -108h-270v-386h69v325h223l14 -2l42 8c-8 62 -20 116 -35 163h235v62z" />
</svg>
