<?xml version="1.0" standalone="no"?>
<!DOCTYPE svg PUBLIC "-//W3C//DTD SVG 1.1//EN" "http://www.w3.org/Graphics/SVG/1.1/DTD/svg11.dtd" >
<svg xmlns="http://www.w3.org/2000/svg" xmlns:xlink="http://www.w3.org/1999/xlink" version="1.1" viewBox="-10 0 1010 1000">
   <path fill="currentColor"
d="M377 543l-122 38v290c0 40 -10 61 -35 73c-26 10 -66 12 -132 12c-3 -18 -12 -48 -22 -67c45 1 86 1 99 1c14 0 18 -5 18 -19v-268l-131 41l-19 -73c42 -11 94 -25 150 -41v-218h-138v-68h138v-200h72v200h111v68h-111v197l112 -33zM463 385v149h145v-149h-145zM839 385
h-159v149h159v-149zM911 599h-184c56 104 149 203 239 251c-16 14 -40 42 -51 60c-87 -57 -176 -162 -235 -272v318h-72v-308c-64 109 -158 208 -252 262c-11 -17 -32 -43 -48 -56c97 -49 196 -150 256 -255h-171v-279h215v-90h-249v-68h249v-118h72v118h259v68h-259v90h231
v279z" />
</svg>
