<?xml version="1.0" standalone="no"?>
<!DOCTYPE svg PUBLIC "-//W3C//DTD SVG 1.1//EN" "http://www.w3.org/Graphics/SVG/1.1/DTD/svg11.dtd" >
<svg xmlns="http://www.w3.org/2000/svg" xmlns:xlink="http://www.w3.org/1999/xlink" version="1.1" viewBox="-10 0 1010 1000">
   <path fill="currentColor"
d="M377 543l-122 38v290c0 40 -10 61 -35 73c-26 10 -66 12 -132 12c-3 -18 -12 -48 -22 -67c45 1 86 1 99 1c14 0 18 -5 18 -19v-268l-131 41l-19 -73c42 -11 94 -25 150 -41v-218h-138v-68h138v-200h72v200h111v68h-111v197l112 -33zM465 498v95h152v-95h-152zM465 348v93
h152v-93h-152zM848 441v-93h-165v93h165zM848 593v-95h-165v95h165zM955 735v66h-269v156h-72v-156h-283v-66h283v-83h-218v-364h218v-76h-243v-64h243v-101h73v101h253v64h-253v76h232v364h-233v83h269z" />
</svg>
