<?xml version="1.0" standalone="no"?>
<!DOCTYPE svg PUBLIC "-//W3C//DTD SVG 1.1//EN" "http://www.w3.org/Graphics/SVG/1.1/DTD/svg11.dtd" >
<svg xmlns="http://www.w3.org/2000/svg" xmlns:xlink="http://www.w3.org/1999/xlink" version="1.1" viewBox="-10 0 1010 1000">
   <path fill="currentColor"
d="M325 471l10 68c-34 12 -68 23 -102 34v291c0 41 -9 60 -33 72c-23 12 -60 15 -123 14c-2 -18 -12 -48 -21 -69c43 1 82 1 93 1c12 0 17 -4 17 -19v-268l-108 35l-18 -71c35 -10 78 -23 126 -37v-209h-113v-69h113v-200h67v200h104v69h-104v187zM572 242l67 16
c-14 46 -31 96 -53 144v554h-63v-436c-18 29 -38 55 -59 79c-7 -11 -19 -29 -31 -43c-7 132 -28 282 -82 394c-12 -11 -43 -27 -60 -32c71 -149 77 -357 77 -502v-262h271c-10 -29 -28 -69 -47 -98l62 -22c25 33 47 79 56 108l-31 12h271v66h-513v196c0 37 -1 79 -3 122
c66 -79 115 -199 138 -296zM953 388v64h-77v422c0 37 -9 55 -34 66s-66 12 -131 12c-3 -18 -13 -44 -21 -62c47 1 89 1 101 1c13 -1 18 -5 18 -17v-422h-180v-64h180v-139h67v139h77zM776 727l-60 18c-11 -57 -44 -144 -79 -209l56 -15c37 64 70 150 83 206z" />
</svg>
