<?xml version="1.0" standalone="no"?>
<!DOCTYPE svg PUBLIC "-//W3C//DTD SVG 1.1//EN" "http://www.w3.org/Graphics/SVG/1.1/DTD/svg11.dtd" >
<svg xmlns="http://www.w3.org/2000/svg" xmlns:xlink="http://www.w3.org/1999/xlink" version="1.1" viewBox="-10 0 1010 1000">
   <path fill="currentColor"
d="M810 238v-91h-377v91h377zM810 389v-92h-377v92h377zM881 85v367h-516v-367h516zM347 546l-109 36v282c0 41 -9 60 -33 72c-23 12 -61 15 -124 14c-3 -18 -12 -48 -22 -69c43 1 83 1 94 1c12 0 17 -4 17 -19v-259c-43 14 -83 27 -120 39l-18 -72c38 -11 86 -25 138 -41
v-217h-124v-69h124v-200h68v200h107v69h-107v196l100 -32zM439 858l172 -42c0 20 3 49 7 64c-207 57 -237 67 -256 80v-1l-1 1c-4 -19 -15 -55 -26 -75c16 -5 35 -18 35 -53v-336h69v120h177v67h-177v175zM756 874h107c27 0 33 -17 36 -119c15 13 43 24 62 29
c-7 123 -27 156 -92 156h-122c-77 0 -97 -22 -97 -99v-344h70v165c66 -31 134 -69 175 -104l52 56c-63 41 -150 82 -227 113v113c0 29 5 34 36 34z" />
</svg>
