<?xml version="1.0" standalone="no"?>
<!DOCTYPE svg PUBLIC "-//W3C//DTD SVG 1.1//EN" "http://www.w3.org/Graphics/SVG/1.1/DTD/svg11.dtd" >
<svg xmlns="http://www.w3.org/2000/svg" xmlns:xlink="http://www.w3.org/1999/xlink" version="1.1" viewBox="-10 0 1010 1000">
   <path fill="currentColor"
d="M933 380l-46 55c-52 -38 -149 -92 -235 -133c-44 63 -117 104 -241 131c-6 -16 -24 -43 -38 -55c149 -32 215 -82 246 -169h-219v-64h234c5 -30 8 -64 10 -102h73c-2 37 -5 71 -10 102h224v64h-237c-4 13 -8 24 -13 36c90 39 195 94 252 135zM339 480l10 67
c-37 13 -75 24 -112 37v280c0 41 -10 60 -35 72c-23 12 -61 15 -125 14c-3 -18 -12 -48 -22 -69c43 1 83 1 94 1c12 0 18 -4 18 -19v-256l-116 36l-19 -72c37 -9 84 -23 135 -39v-219h-121v-69h121v-200h70v200h110v69h-110v199zM637 642h-145v124h145v-124zM701 826h-209
v60h-64v-304h64v1h209v243zM956 448v65h-83v360c0 41 -8 60 -37 71s-76 12 -149 12c-3 -20 -12 -47 -21 -67c54 2 104 1 118 0c14 0 18 -3 18 -16v-360h-434v-65h588z" />
</svg>
