<?xml version="1.0" standalone="no"?>
<!DOCTYPE svg PUBLIC "-//W3C//DTD SVG 1.1//EN" "http://www.w3.org/Graphics/SVG/1.1/DTD/svg11.dtd" >
<svg xmlns="http://www.w3.org/2000/svg" xmlns:xlink="http://www.w3.org/1999/xlink" version="1.1" viewBox="-10 0 1010 1000">
   <path fill="currentColor"
d="M299 548l-79 31v287c0 39 -8 59 -31 71s-59 15 -115 15c-2 -19 -12 -49 -21 -70c38 1 72 1 82 0c12 0 16 -3 16 -16v-259l-91 35l-21 -71c32 -10 70 -24 112 -40v-218h-102v-69h102v-200h69v200h87v69h-87v193l66 -25zM337 564l60 12c-17 86 -44 180 -73 241
c-11 -8 -39 -24 -53 -30c29 -61 53 -145 66 -223zM621 459h-124v416c0 33 -6 50 -30 62c-21 10 -55 11 -107 11c-2 -18 -13 -44 -21 -61c37 1 69 1 79 1c11 -1 14 -4 14 -14v-415h-129v-66h110v-350h68v155h118v61h-118v134h140v66zM655 736l-57 25
c-11 -47 -36 -120 -61 -175l54 -20c26 54 52 124 64 170zM868 195h-156c14 147 38 286 74 404c40 -111 68 -244 82 -404zM897 130l43 9c-18 229 -59 413 -121 554c37 87 83 159 142 209c-16 12 -38 37 -48 54c-53 -48 -96 -111 -131 -186c-44 80 -96 144 -156 191
c-10 -17 -36 -43 -52 -54c70 -52 128 -125 175 -220c-50 -138 -80 -307 -99 -492h-30v-63h264z" />
</svg>
