<?xml version="1.0" standalone="no"?>
<!DOCTYPE svg PUBLIC "-//W3C//DTD SVG 1.1//EN" "http://www.w3.org/Graphics/SVG/1.1/DTD/svg11.dtd" >
<svg xmlns="http://www.w3.org/2000/svg" xmlns:xlink="http://www.w3.org/1999/xlink" version="1.1" viewBox="-10 0 1010 1000">
   <path fill="currentColor"
d="M940 318v61h-577v-61h250v-109h-203v-61h203v-104h72v104h213v61h-213v109h255zM696 438l28 -46c72 26 170 72 222 105l-31 53c-49 -33 -147 -82 -219 -112zM548 390l44 36c-67 54 -152 109 -214 142l-37 -54c61 -27 144 -75 207 -124zM326 483l10 67
c-34 12 -70 24 -104 35v279c0 41 -9 60 -34 72c-23 12 -61 15 -124 14c-2 -18 -12 -48 -21 -69c43 1 82 1 93 1c12 0 18 -4 18 -19v-257l-114 37l-18 -71c37 -10 82 -24 132 -39v-220h-119v-69h119v-200h68v200h99v69h-99v199zM561 618l-11 12c27 48 62 90 106 126
c50 -38 91 -83 122 -138h-217zM829 555l44 27c-36 89 -92 159 -161 214c72 45 158 76 254 94c-16 16 -35 45 -45 66c-103 -23 -193 -62 -268 -117c-88 56 -191 93 -299 118c-7 -19 -25 -51 -38 -66c104 -20 201 -51 283 -98c-37 -34 -69 -74 -95 -118c-34 29 -72 56 -115 82
c-9 -17 -31 -41 -45 -51c122 -66 203 -160 243 -241l71 13c-13 27 -30 54 -49 80h206z" />
</svg>
