<?xml version="1.0" standalone="no"?>
<!DOCTYPE svg PUBLIC "-//W3C//DTD SVG 1.1//EN" "http://www.w3.org/Graphics/SVG/1.1/DTD/svg11.dtd" >
<svg xmlns="http://www.w3.org/2000/svg" xmlns:xlink="http://www.w3.org/1999/xlink" version="1.1" viewBox="-10 0 1010 1000">
   <path fill="currentColor"
d="M925 152l-45 40c-24 -28 -71 -74 -111 -105l43 -35c42 29 91 72 113 100zM360 477l9 68c-39 12 -79 24 -117 36v291c0 42 -10 60 -36 72c-24 11 -64 13 -129 13c-2 -18 -13 -47 -22 -66c44 1 85 1 97 0c14 0 19 -4 19 -18v-270c-46 14 -90 28 -129 41l-20 -73
c42 -11 93 -24 149 -41v-217h-136v-69h136v-200h71v200h105v69h-105v197c35 -11 72 -22 108 -33zM659 668l6 62c-106 29 -214 57 -299 79l-15 -67c79 -17 194 -45 308 -74zM572 572v-163h-118v163h118zM396 351h236v280h-236v-280zM845 359l66 12c-31 125 -72 236 -126 331
c26 118 58 190 92 190c16 0 26 -42 30 -144c14 16 35 30 52 37c-12 131 -32 174 -91 174c-57 0 -101 -68 -132 -180c-51 71 -111 132 -181 181c-9 -13 -37 -37 -53 -49c87 -56 157 -130 213 -219c-23 -116 -39 -263 -46 -423h-300v-66h297c-2 -52 -3 -105 -4 -158h69
c0 54 0 107 2 158h213v66h-211c6 122 17 234 30 328c34 -72 60 -152 80 -238z" />
</svg>
