<?xml version="1.0" standalone="no"?>
<!DOCTYPE svg PUBLIC "-//W3C//DTD SVG 1.1//EN" "http://www.w3.org/Graphics/SVG/1.1/DTD/svg11.dtd" >
<svg xmlns="http://www.w3.org/2000/svg" xmlns:xlink="http://www.w3.org/1999/xlink" version="1.1" viewBox="-10 0 1010 1000">
   <path fill="currentColor"
d="M865 59l51 57c-137 41 -356 63 -536 74c-2 -18 -11 -44 -19 -61c175 -11 388 -35 504 -70zM807 461l-57 -24c42 -65 97 -172 126 -247l70 26c-41 84 -95 183 -139 245zM689 386l-67 16c-1 -48 -21 -127 -47 -187l64 -12c27 59 47 135 50 183zM510 413l-64 21
c-9 -51 -38 -129 -71 -189l59 -17c35 58 66 135 76 185zM348 533l-109 36v301c0 40 -9 61 -34 73c-24 11 -62 14 -124 13c-3 -17 -12 -48 -22 -68c43 1 82 1 94 0c12 0 17 -3 17 -18v-279l-119 39l-19 -72c38 -10 86 -25 138 -41v-205h-125v-68h125v-200h69v200h107v68h-107
v184c33 -10 66 -21 99 -32zM944 600h-209c56 96 151 190 239 237c-16 12 -38 38 -50 56c-86 -54 -176 -151 -236 -252v309h-70v-308c-65 106 -162 200 -260 254c-12 -19 -34 -46 -51 -58c102 -47 202 -139 263 -238h-205v-67h253v-110h70v110h256v67z" />
</svg>
