<?xml version="1.0" standalone="no"?>
<!DOCTYPE svg PUBLIC "-//W3C//DTD SVG 1.1//EN" "http://www.w3.org/Graphics/SVG/1.1/DTD/svg11.dtd" >
<svg xmlns="http://www.w3.org/2000/svg" xmlns:xlink="http://www.w3.org/1999/xlink" version="1.1" viewBox="-10 0 1010 1000">
   <path fill="currentColor"
d="M320 473l10 68c-35 11 -70 23 -104 34v290c0 39 -9 59 -32 71c-22 12 -57 15 -113 14c-2 -18 -11 -49 -20 -69c37 1 70 1 80 1c12 0 16 -4 16 -17v-268l-102 33l-19 -71c34 -10 76 -22 121 -36v-210h-107v-69h107v-200h69v200h94v69h-94v189zM687 632h217s0 20 -1 29
c-9 177 -19 245 -41 270c-15 17 -32 23 -57 25c-22 3 -62 2 -103 0c-1 -19 -9 -46 -18 -63c40 4 77 4 91 4c14 1 23 0 30 -9c12 -15 21 -66 28 -193h-155c-23 138 -84 221 -246 272c-7 -17 -26 -44 -41 -55c143 -42 198 -106 219 -217h-151v-63h160c2 -24 4 -51 5 -79h68
c-1 28 -3 55 -5 79zM670 472h146c32 0 37 -10 41 -76c15 9 39 18 57 22c-7 85 -26 107 -90 107h-161c-85 0 -108 -16 -108 -80v-28l-94 7l-4 -55l98 -7v-76h-131v160c0 148 -16 367 -113 516c-11 -15 -38 -39 -52 -46c89 -140 99 -332 99 -470v-219h206v-183h71v65h240v58
h-240v60h249l12 -2l45 12c-18 50 -40 106 -62 142l-54 -13c11 -22 23 -50 34 -80h-238v71l172 -12l5 55l-177 13v30c0 24 7 29 49 29z" />
</svg>
