<?xml version="1.0" standalone="no"?>
<!DOCTYPE svg PUBLIC "-//W3C//DTD SVG 1.1//EN" "http://www.w3.org/Graphics/SVG/1.1/DTD/svg11.dtd" >
<svg xmlns="http://www.w3.org/2000/svg" xmlns:xlink="http://www.w3.org/1999/xlink" version="1.1" viewBox="-10 0 1010 1000">
   <path fill="currentColor"
d="M329 549l-98 32v291c0 40 -9 59 -32 71c-22 12 -59 14 -120 14c-2 -18 -11 -48 -20 -68c41 1 78 1 88 1c12 0 17 -4 17 -18v-269l-114 37l-18 -68c36 -10 82 -24 132 -40v-212h-117v-67h117v-209h67v209h91v67h-91v192l88 -28zM434 188v212c0 161 -13 398 -96 561
c-13 -12 -42 -30 -59 -37c80 -154 88 -370 88 -524v-274h262c-7 -24 -18 -51 -28 -73l64 -13c13 26 27 60 36 86h246v62h-513zM701 601h120v-99h-112c-1 33 -3 66 -8 99zM709 354v89h112v-89h-112zM883 502v156h-158c46 116 113 182 217 239c-17 14 -35 36 -44 57
c-104 -63 -172 -137 -221 -252c-33 95 -98 184 -228 256c-8 -17 -27 -42 -41 -55c125 -68 184 -154 212 -245h-146v-57h159c6 -33 9 -67 10 -99h-182v-59h182v-89h-166v-57h166v-70h66v70h174v146h66v59h-66z" />
</svg>
