<?xml version="1.0" standalone="no"?>
<!DOCTYPE svg PUBLIC "-//W3C//DTD SVG 1.1//EN" "http://www.w3.org/Graphics/SVG/1.1/DTD/svg11.dtd" >
<svg xmlns="http://www.w3.org/2000/svg" xmlns:xlink="http://www.w3.org/1999/xlink" version="1.1" viewBox="-10 0 1010 1000">
   <path fill="currentColor"
d="M951 252h-287c-21 54 -47 102 -76 141c-10 -11 -34 -32 -49 -43c60 -73 96 -186 117 -306l62 12c-8 46 -19 90 -32 132h265v64zM503 173l-60 27c-11 -37 -38 -94 -59 -138l58 -23c23 42 49 98 61 134zM299 544l-85 35v287c0 38 -9 57 -31 69c-22 11 -57 13 -113 13
c-3 -18 -12 -46 -20 -66c39 1 74 1 84 0c11 0 16 -3 16 -16v-263c-32 13 -63 25 -91 35l-20 -67c31 -10 69 -24 111 -39v-220h-101v-68h101v-200h64v200h71v68h-71v196l74 -28zM559 402v33c-8 337 -15 448 -37 483c-14 20 -29 27 -51 30c-19 1 -49 2 -79 1
c-1 -20 -7 -46 -16 -64c30 4 56 4 68 4s19 -2 25 -14c14 -22 22 -122 29 -406h-78c-10 208 -37 378 -125 490c-9 -15 -31 -35 -47 -44c106 -134 115 -364 117 -648h-69v-62h290v62h-161c-1 46 -1 92 -3 135h137zM728 876h139c29 0 34 -15 38 -97c14 11 37 22 55 26
c-8 102 -26 132 -89 132h-147c-76 0 -97 -19 -97 -97v-264l-44 20l-23 -54l67 -32v-146h57v119l67 -32v-152h53v127l73 -36l4 -4l10 -8l39 16l-3 10c-1 134 -2 264 -6 289c-3 28 -18 44 -39 48c-19 5 -41 5 -59 4c-1 -15 -6 -36 -12 -49c13 1 32 1 41 1s15 -3 17 -19
c3 -14 5 -106 5 -220l-70 34v312h-53v-287l-67 31v292c0 31 6 36 44 36z" />
</svg>
