<?xml version="1.0" standalone="no"?>
<!DOCTYPE svg PUBLIC "-//W3C//DTD SVG 1.1//EN" "http://www.w3.org/Graphics/SVG/1.1/DTD/svg11.dtd" >
<svg xmlns="http://www.w3.org/2000/svg" xmlns:xlink="http://www.w3.org/1999/xlink" version="1.1" viewBox="-10 0 1010 1000">
   <path fill="currentColor"
d="M817 208v-80h-312v80h312zM817 339v-80h-312v80h312zM886 74v319h-449v-319h449zM359 548l-105 33v285c0 42 -9 63 -34 76c-26 12 -66 14 -132 13c-3 -18 -12 -51 -22 -71c45 2 86 2 99 1c13 0 18 -4 18 -19v-264l-135 42l-17 -72c42 -10 94 -25 152 -42v-218h-135v-68
h135v-200h71v200h100v68h-100v197l96 -28zM958 518h-391c-13 25 -28 49 -44 72h401s-1 19 -2 29c-12 204 -25 281 -51 310c-15 16 -32 23 -57 25c-23 2 -64 2 -107 -1c-1 -18 -8 -46 -18 -62c41 4 80 4 95 4s24 -1 32 -10c15 -18 28 -79 39 -235h-69
c-44 126 -117 234 -200 307c-12 -11 -37 -31 -53 -41c81 -62 146 -157 186 -266h-87c-60 114 -152 211 -247 277c-9 -11 -34 -34 -49 -44c90 -55 172 -138 226 -233h-86c-35 40 -72 75 -110 103c-11 -11 -35 -34 -49 -44c70 -47 135 -115 181 -191h-127v-62h587v62z" />
</svg>
