<?xml version="1.0" standalone="no"?>
<!DOCTYPE svg PUBLIC "-//W3C//DTD SVG 1.1//EN" "http://www.w3.org/Graphics/SVG/1.1/DTD/svg11.dtd" >
<svg xmlns="http://www.w3.org/2000/svg" xmlns:xlink="http://www.w3.org/1999/xlink" version="1.1" viewBox="-10 0 1010 1000">
   <path fill="currentColor"
d="M337 548l-111 38v278c0 41 -9 61 -34 73c-23 12 -61 15 -123 14c-3 -19 -12 -49 -22 -70c42 1 81 1 92 1c12 0 17 -4 17 -18v-256l-106 34l-18 -69c34 -10 77 -23 124 -36v-224h-111v-69h111v-200h70v200h108v69h-108v202l101 -32zM838 144h-400v96h400v-96zM719 874h238
v61h-566v-61h255v-110h-195v-59h195v-93c-127 10 -149 14 -166 19v-4c-1 2 -1 3 -1 4c-4 -13 -15 -46 -22 -62c14 -3 29 -15 47 -33c12 -13 51 -57 84 -108h-150c-3 162 -22 380 -121 530c-13 -12 -43 -32 -61 -39c100 -152 110 -370 110 -526v-310h546v217h-474v69h477v59
h-244c-33 47 -70 93 -107 131l244 -16c-21 -25 -42 -51 -64 -72l53 -23c50 47 103 113 126 159l-57 27c-5 -11 -12 -24 -20 -37l-127 9v99h196v59h-196v110z" />
</svg>
