<?xml version="1.0" standalone="no"?>
<!DOCTYPE svg PUBLIC "-//W3C//DTD SVG 1.1//EN" "http://www.w3.org/Graphics/SVG/1.1/DTD/svg11.dtd" >
<svg xmlns="http://www.w3.org/2000/svg" xmlns:xlink="http://www.w3.org/1999/xlink" version="1.1" viewBox="-10 0 1010 1000">
   <path fill="currentColor"
d="M917 91v233h-532v-233h67v173h157v-220h70v220h168v-173h70zM341 478l10 67c-39 14 -78 27 -117 40v280c0 42 -9 61 -34 74c-24 12 -62 15 -125 14c-3 -19 -12 -49 -22 -70c43 1 82 1 93 0c13 0 18 -3 18 -18v-257l-110 36l-18 -72c35 -10 79 -24 128 -38v-221h-119v-69
h119v-200h70v200h112v69h-112v199c35 -11 71 -23 107 -34zM958 464h-282c-10 34 -22 69 -33 98h283v322c0 31 -5 49 -27 60c-20 11 -52 12 -96 12c-3 -19 -13 -44 -22 -62c32 1 58 1 67 1c8 0 11 -3 11 -12v-261h-102v322h-59v-322h-100v322h-60v-322h-94v335h-65v-395h194
c9 -29 18 -65 25 -98h-251v-64h611v64z" />
</svg>
