<?xml version="1.0" standalone="no"?>
<!DOCTYPE svg PUBLIC "-//W3C//DTD SVG 1.1//EN" "http://www.w3.org/Graphics/SVG/1.1/DTD/svg11.dtd" >
<svg xmlns="http://www.w3.org/2000/svg" xmlns:xlink="http://www.w3.org/1999/xlink" version="1.1" viewBox="-10 0 1010 1000">
   <path fill="currentColor"
d="M239 44v200h109v69h-109v197l93 -30l10 68c-35 12 -69 23 -103 34v282c0 41 -9 60 -34 72c-23 12 -61 15 -124 14c-3 -18 -12 -48 -22 -69c43 1 83 1 94 1c12 0 17 -4 17 -19v-258l-119 38l-19 -72c38 -10 86 -24 138 -41v-217h-124v-69h124v-200h69zM882 533v257
c0 33 -5 51 -28 63c-23 11 -58 12 -109 12c-3 -20 -12 -45 -20 -64c38 1 68 1 78 1s13 -4 13 -13v-192h-137v359h-70v-359h-130v262h-66v-326h196v-104h70v104h203zM774 339h161v159h-67v-101h-439v102h-65v-160h148c-6 -34 -21 -86 -37 -125l59 -14c18 40 36 94 42 126
l-45 13h179c17 -42 37 -99 48 -140h-378v-64h226c-7 -25 -18 -49 -27 -72l62 -20c14 28 29 63 37 92h244v64h-160l63 18c-16 40 -34 85 -51 122z" />
</svg>
