<?xml version="1.0" standalone="no"?>
<!DOCTYPE svg PUBLIC "-//W3C//DTD SVG 1.1//EN" "http://www.w3.org/Graphics/SVG/1.1/DTD/svg11.dtd" >
<svg xmlns="http://www.w3.org/2000/svg" xmlns:xlink="http://www.w3.org/1999/xlink" version="1.1" viewBox="-10 0 1010 1000">
   <path fill="currentColor"
d="M894 51v390c0 35 -8 51 -34 61s-67 10 -130 10c-3 -17 -13 -41 -23 -58c45 2 89 2 101 1c13 0 17 -4 17 -15v-389h69zM704 82v328h-68v-328h68zM157 238v65h127v-65h-127zM477 238h-125v65h125v-65zM284 521v-135c-60 56 -140 108 -212 136c-4 -17 -16 -43 -26 -56
c70 -25 153 -70 209 -119h-161v-153h190v-48h-217v-47h217v-44h68v44h216v47h-216v48h191v153h-153c54 31 136 81 161 97l-32 54c-34 -26 -114 -82 -167 -118v141h-68zM928 756v54h-385v72c0 39 -11 54 -42 63c-32 10 -84 10 -168 9c-4 -17 -15 -39 -25 -55
c62 2 124 1 139 1c17 -1 23 -5 23 -20v-70h-398v-54h398v-58h-336v-55h336v-57c-95 4 -192 5 -280 3c0 -13 -8 -34 -14 -47c196 2 444 -6 567 -28l54 41c-69 13 -158 22 -254 28v60h326v55h-326v58h385z" />
</svg>
