<?xml version="1.0" standalone="no"?>
<!DOCTYPE svg PUBLIC "-//W3C//DTD SVG 1.1//EN" "http://www.w3.org/Graphics/SVG/1.1/DTD/svg11.dtd" >
<svg xmlns="http://www.w3.org/2000/svg" xmlns:xlink="http://www.w3.org/1999/xlink" version="1.1" viewBox="-10 0 1010 1000">
   <path fill="currentColor"
d="M890 254l63 12c-19 89 -41 200 -63 269l-52 -13c20 -71 42 -189 52 -268zM654 538l-48 -33c27 -60 37 -161 38 -246l52 5c0 94 -11 206 -42 274zM320 532l-96 35v307c0 39 -9 58 -32 70c-22 11 -58 13 -116 13c-3 -18 -12 -47 -21 -66c40 1 76 1 87 0c12 0 17 -4 17 -17
v-285l-107 37l-19 -72c35 -11 79 -25 126 -39v-202h-114v-69h114v-200h65v200h80v69h-80v180l85 -28zM613 586l-37 63c-13 -29 -42 -82 -66 -125v432h-66v-429c-34 111 -80 220 -128 286c-9 -20 -26 -48 -38 -65c57 -77 116 -219 147 -344h-99v-70h118v-174
c-35 6 -69 12 -103 17c-3 -15 -12 -39 -21 -56c89 -14 191 -39 250 -64l51 55c-33 12 -71 23 -111 33v189h96v70h-96v32c24 33 89 127 103 150zM805 51v243c0 35 0 73 -2 110c20 214 62 408 161 491c-15 12 -37 38 -48 57c-72 -68 -113 -184 -139 -326
c-24 116 -68 232 -151 335c-9 -17 -31 -41 -46 -51c147 -189 160 -423 160 -616v-243h65z" />
</svg>
