<?xml version="1.0" standalone="no"?>
<!DOCTYPE svg PUBLIC "-//W3C//DTD SVG 1.1//EN" "http://www.w3.org/Graphics/SVG/1.1/DTD/svg11.dtd" >
<svg xmlns="http://www.w3.org/2000/svg" xmlns:xlink="http://www.w3.org/1999/xlink" version="1.1" viewBox="-10 0 1010 1000">
   <path fill="currentColor"
d="M765 184v76h86v-76h-86zM851 396v-78h-86v78h86zM701 396v-78h-173v-58h173v-76h-127v-57h127v-83h64v83h145v133h51v58h-51v135h-145v73h164v61h-164v78h181v61h-181v120h-64v-120h-170v-61h170v-78h-145v-61h145v-73h-127v-57h127zM499 405l38 5
c-11 148 -34 264 -72 352c89 97 210 119 339 119c26 0 127 0 161 -1c-10 16 -21 45 -24 63h-142c-141 0 -267 -24 -362 -122c-32 58 -74 102 -124 137c-9 -16 -25 -39 -38 -50c49 -31 89 -77 120 -139c-34 -49 -63 -111 -85 -189l54 -21c15 58 35 105 58 144
c24 -65 40 -145 50 -237h-157l10 60l-98 34v305c0 39 -9 58 -32 70s-60 13 -120 13c-3 -18 -12 -46 -21 -66c42 2 80 1 91 1c12 -1 17 -4 17 -18v-282c-40 14 -77 26 -112 38l-18 -71c36 -11 81 -26 130 -41v-196h-117v-69h117v-200h65v200h83v69h-83v174l86 -28
c35 -74 79 -182 114 -278h-110v-65h200c-34 91 -79 205 -115 291h86z" />
</svg>
