<?xml version="1.0" standalone="no"?>
<!DOCTYPE svg PUBLIC "-//W3C//DTD SVG 1.1//EN" "http://www.w3.org/Graphics/SVG/1.1/DTD/svg11.dtd" >
<svg xmlns="http://www.w3.org/2000/svg" xmlns:xlink="http://www.w3.org/1999/xlink" version="1.1" viewBox="-10 0 1010 1000">
   <path fill="currentColor"
d="M318 543l-94 36v287c0 38 -9 57 -32 69c-22 11 -58 13 -115 13c-3 -18 -11 -46 -21 -66c40 1 76 1 86 0c12 0 16 -3 16 -16v-262l-97 38l-21 -71c34 -11 74 -25 118 -41v-217h-106v-69h106v-200h66v200h89v69h-89v192l81 -30zM535 306v-145h-113v145h113zM422 578v141
c36 -7 74 -15 113 -22v-119h-113zM535 513v-143h-113v143h113zM305 161v-66h343v66h-52v523l44 -9l6 60l-50 12v209h-61v-196c-85 19 -167 38 -235 52l-18 -67c23 -4 50 -9 79 -15v-569h-56zM911 88l45 29c-30 90 -68 199 -104 289c75 93 93 173 93 241
c1 59 -11 106 -38 127c-14 11 -33 17 -54 20c-20 3 -45 3 -68 1c-1 -18 -7 -45 -19 -64c24 2 46 2 61 2c14 -1 26 -4 34 -11c16 -12 22 -45 22 -80c0 -62 -19 -139 -94 -229c31 -83 64 -183 87 -258h-136v804h-65v-867h214v-1h12z" />
</svg>
