<?xml version="1.0" standalone="no"?>
<!DOCTYPE svg PUBLIC "-//W3C//DTD SVG 1.1//EN" "http://www.w3.org/Graphics/SVG/1.1/DTD/svg11.dtd" >
<svg xmlns="http://www.w3.org/2000/svg" xmlns:xlink="http://www.w3.org/1999/xlink" version="1.1" viewBox="-10 0 1010 1000">
   <path fill="currentColor"
d="M937 207h-229c-22 49 -47 95 -77 132c-12 -11 -36 -28 -50 -37c54 -67 93 -173 111 -256l67 14c-8 27 -17 57 -28 86h206v61zM862 765h-68v-252h-337v259h-66v-321h471v314zM703 294l41 -38c55 31 117 75 148 108l-44 46c-30 -34 -92 -84 -145 -116zM572 43v367h-65v-367
h65zM425 81v299h-63v-299h63zM322 558l-97 28v286c0 37 -8 55 -30 66c-21 12 -55 13 -108 13c-2 -17 -10 -45 -19 -63c35 1 66 1 76 0c11 -1 15 -4 15 -15v-268c-37 11 -74 22 -106 30l-16 -67c35 -8 76 -19 122 -32v-218h-103v-65h103v-209h66v209h94v65h-94v201l88 -25z
M740 882h128c29 0 34 -9 37 -76c14 10 40 18 58 22c-7 90 -27 111 -87 111h-142c-82 0 -102 -16 -102 -80v-108c-35 112 -117 169 -306 204c-5 -17 -22 -42 -34 -56c256 -41 291 -120 299 -343h68c-3 73 -9 134 -24 184h62v118c0 20 6 24 43 24z" />
</svg>
