<?xml version="1.0" standalone="no"?>
<!DOCTYPE svg PUBLIC "-//W3C//DTD SVG 1.1//EN" "http://www.w3.org/Graphics/SVG/1.1/DTD/svg11.dtd" >
<svg xmlns="http://www.w3.org/2000/svg" xmlns:xlink="http://www.w3.org/1999/xlink" version="1.1" viewBox="-10 0 1010 1000">
   <path fill="currentColor"
d="M351 548l-112 40v281c0 38 -8 56 -31 68c-21 12 -56 14 -110 13c-2 -17 -10 -47 -20 -66c35 1 67 1 77 1c11 0 15 -4 15 -16v-256l-110 38l-19 -72c36 -10 80 -24 129 -41v-225h-112v-69h112v-200h69v200h99v69h-99v203c33 -11 66 -23 101 -35zM404 814l33 -49
c134 29 311 88 404 136l-36 59c-89 -50 -263 -112 -401 -146zM518 686l34 -47c82 23 193 63 250 93l-35 54c-56 -31 -165 -74 -249 -100zM841 306h-146c-7 31 -15 63 -25 92h171v-92zM481 398h120c12 -29 20 -61 27 -92h-147v92zM721 171h-178c-22 27 -46 55 -73 80h193
c20 -21 41 -52 58 -80zM769 585h103c22 0 27 -7 30 -66c13 10 40 20 60 25c-8 81 -27 102 -82 102h-118c-77 0 -95 -18 -95 -83v-110h-19c-49 103 -139 187 -309 237c-8 -17 -26 -44 -40 -58c147 -38 228 -102 275 -179h-158v-155c-10 8 -20 15 -30 23
c-10 -15 -32 -39 -46 -49c99 -65 167 -154 205 -226l71 13c-9 18 -20 36 -32 54h175l10 -3l46 31c-20 37 -49 77 -77 110h171v202h-174v109c0 20 4 23 34 23z" />
</svg>
