<?xml version="1.0" standalone="no"?>
<!DOCTYPE svg PUBLIC "-//W3C//DTD SVG 1.1//EN" "http://www.w3.org/Graphics/SVG/1.1/DTD/svg11.dtd" >
<svg xmlns="http://www.w3.org/2000/svg" xmlns:xlink="http://www.w3.org/1999/xlink" version="1.1" viewBox="-10 0 1010 1000">
   <path fill="currentColor"
d="M329 536l-101 41v289c0 39 -9 58 -32 69c-22 13 -59 15 -115 15c-3 -19 -13 -48 -22 -68c40 1 75 1 85 0c12 0 17 -3 17 -16v-264l-98 39l-21 -70c34 -11 75 -26 119 -42v-218h-109v-67h109v-200h67v200h94v67h-94v193l88 -35zM424 169v273c0 151 -14 362 -105 500
c-12 -14 -39 -38 -54 -46c85 -129 93 -314 93 -454v-325c173 -13 384 -36 499 -67l47 53c-124 31 -314 54 -480 66zM547 378v119c0 132 -16 324 -102 458c-8 -13 -33 -36 -47 -43c79 -125 89 -294 89 -416v-173h171v-164h63v51h212v51h-212v62h173l11 -2l41 9
c-7 47 -22 101 -39 132l-51 -13c9 -19 16 -45 21 -71h-330zM869 620h-120c-70 0 -88 -14 -88 -72v-43l-93 10l-5 -48l98 -9v-66h60v60l128 -12l4 45l-132 14v49c0 21 5 25 35 25h106c23 0 28 -11 31 -75c12 9 33 17 49 20c-5 80 -21 102 -73 102zM842 891h30
c10 0 18 -1 22 -3c5 -3 9 -9 11 -20c3 -13 4 -42 4 -78c12 11 32 21 48 26c-2 36 -4 76 -9 90c-6 14 -15 24 -26 30c-12 5 -31 8 -44 8h-48c-18 0 -39 -5 -51 -17c-13 -10 -18 -25 -18 -77v-145h-87c-11 121 -41 199 -136 246c-7 -15 -23 -38 -36 -49
c93 -45 112 -122 118 -253h200v209c0 16 0 25 5 29c3 2 10 4 17 4z" />
</svg>
