<?xml version="1.0" standalone="no"?>
<!DOCTYPE svg PUBLIC "-//W3C//DTD SVG 1.1//EN" "http://www.w3.org/Graphics/SVG/1.1/DTD/svg11.dtd" >
<svg xmlns="http://www.w3.org/2000/svg" xmlns:xlink="http://www.w3.org/1999/xlink" version="1.1" viewBox="-10 0 1010 1000">
   <path fill="currentColor"
d="M366 546l-114 37v281c0 41 -9 60 -33 72s-61 15 -123 14c-3 -18 -12 -48 -22 -69c43 1 81 1 92 1c13 0 18 -4 18 -18v-259l-121 39l-18 -71c38 -11 86 -26 139 -41v-219h-131v-69h131v-200h68v200h113v69h-113v197l103 -32zM637 475v117h130v-117h-130zM851 143h-374v101
h374v-101zM889 668l48 38c-37 32 -80 63 -117 87c38 46 85 80 142 101c-15 13 -34 37 -43 55c-120 -51 -193 -158 -231 -296h-89v207l145 -39c-1 20 0 48 2 63c-186 53 -216 63 -232 75c-5 -16 -20 -43 -30 -55c19 -9 50 -29 50 -70v-181h-76c-17 107 -52 213 -117 297
c-12 -11 -42 -31 -58 -37c115 -148 126 -360 126 -517v-315h511v225h-443v90c0 59 -2 127 -10 196h108v-117h-94v-61h94v-97h62v97h130v-97h63v97h92v61h-92v117h125v61h-209c11 35 26 69 45 99c34 -27 74 -60 98 -84z" />
</svg>
