<?xml version="1.0" standalone="no"?>
<!DOCTYPE svg PUBLIC "-//W3C//DTD SVG 1.1//EN" "http://www.w3.org/Graphics/SVG/1.1/DTD/svg11.dtd" >
<svg xmlns="http://www.w3.org/2000/svg" xmlns:xlink="http://www.w3.org/1999/xlink" version="1.1" viewBox="-10 0 1010 1000">
   <path fill="currentColor"
d="M318 487l11 67l-100 34v278c0 38 -8 58 -30 70c-22 13 -57 15 -111 15c-2 -19 -10 -49 -20 -70c35 1 67 1 77 1c11 0 15 -4 15 -16v-257c-36 13 -72 24 -103 34l-19 -72c35 -10 76 -22 122 -35v-223h-108v-69h108v-200h69v200h91v69h-91v201zM960 526l-58 30
c-11 -19 -27 -43 -47 -67c-416 31 -459 35 -486 46c-3 -14 -12 -47 -20 -65c27 -3 62 -16 107 -39c26 -11 82 -40 146 -78c-163 12 -188 16 -206 22c-3 -13 -13 -46 -20 -63c19 -2 41 -12 66 -27c22 -11 79 -45 133 -88h-217v-64h276c-10 -25 -22 -54 -34 -77l69 -20
c16 29 34 69 45 97h232v64h-273c-52 41 -106 78 -159 109l183 -11c32 -21 64 -43 93 -66l50 45c-102 72 -209 134 -316 184l288 -20c-19 -20 -39 -41 -58 -59l54 -27c57 50 123 123 152 174zM620 627h-157v85h157v-85zM836 712v-85h-147v85h147zM689 859h147v-92h-147v92z
M463 767v92h157v-92h-157zM391 956v-387h518v387h-73v-40h-373v40h-72z" />
</svg>
