<?xml version="1.0" standalone="no"?>
<!DOCTYPE svg PUBLIC "-//W3C//DTD SVG 1.1//EN" "http://www.w3.org/Graphics/SVG/1.1/DTD/svg11.dtd" >
<svg xmlns="http://www.w3.org/2000/svg" xmlns:xlink="http://www.w3.org/1999/xlink" version="1.1" viewBox="-10 0 1010 1000">
   <path fill="currentColor"
d="M322 549l-92 33v287c0 38 -8 56 -30 68s-55 14 -106 13c-3 -17 -11 -47 -21 -66c34 1 63 1 73 1c11 0 15 -4 15 -16v-262c-36 14 -71 25 -102 36l-19 -70c35 -11 76 -24 121 -40v-220h-111v-69h111v-200h69v200h90v69h-90v198l82 -29zM951 554h-386c-14 32 -29 63 -45 91
h381v66h-178v141h225v67h-564v-67h266v-141h-172c-46 64 -100 119 -165 166c-10 -14 -36 -45 -52 -58c99 -65 172 -154 226 -265h-139v-66h167c12 -28 21 -58 30 -89h-152v-64h170c7 -27 13 -56 18 -85h-214v-66h149c-15 -32 -43 -81 -68 -118l63 -24c27 36 58 84 71 116
l-58 26h163c29 -42 61 -101 78 -143l76 20c-24 42 -51 87 -77 123h172v66h-281c-6 29 -12 58 -19 85h270v64h-286c-9 30 -18 61 -29 89h360v66z" />
</svg>
