<?xml version="1.0" standalone="no"?>
<!DOCTYPE svg PUBLIC "-//W3C//DTD SVG 1.1//EN" "http://www.w3.org/Graphics/SVG/1.1/DTD/svg11.dtd" >
<svg xmlns="http://www.w3.org/2000/svg" xmlns:xlink="http://www.w3.org/1999/xlink" version="1.1" viewBox="-10 0 1010 1000">
   <path fill="currentColor"
d="M698 713v139h148v-106h68v211h-68v-42h-435v-167h67v104h148v-139h-284v-63h284v-103h-115c-23 37 -49 72 -73 98c-14 -10 -43 -27 -60 -35c37 -36 71 -85 98 -136c-30 9 -59 17 -88 23c-6 -18 -21 -46 -34 -61c54 -10 109 -23 161 -43c-23 -23 -54 -50 -82 -71l45 -27
c30 22 66 52 91 78c33 -15 65 -31 95 -49c-28 -26 -67 -55 -100 -77l43 -29c35 20 75 49 104 74c46 -32 84 -70 113 -113h-227c-59 48 -130 92 -216 128c-7 -15 -24 -36 -37 -48v54h-104v183l99 -32l9 69l-108 36v301c0 41 -10 61 -35 73c-23 12 -61 15 -124 14
c-3 -18 -12 -48 -22 -69c43 1 83 1 94 0c12 0 17 -3 17 -18v-279l-119 39l-19 -71c38 -11 85 -26 138 -42v-204h-124v-69h124v-199h70v199h104v11c142 -56 243 -137 295 -210l72 14c-16 22 -34 42 -53 63h207l12 -3l43 21c-68 146 -205 245 -361 306l5 1
c-5 13 -11 24 -18 37h365v63h-213v103h260v63h-260z" />
</svg>
