<?xml version="1.0" standalone="no"?>
<!DOCTYPE svg PUBLIC "-//W3C//DTD SVG 1.1//EN" "http://www.w3.org/Graphics/SVG/1.1/DTD/svg11.dtd" >
<svg xmlns="http://www.w3.org/2000/svg" xmlns:xlink="http://www.w3.org/1999/xlink" version="1.1" viewBox="-10 0 1010 1000">
   <path fill="currentColor"
d="M322 543l-102 33v290c0 38 -8 58 -30 70c-21 12 -56 14 -108 14c-3 -18 -11 -49 -20 -69c34 1 64 1 75 1s14 -3 14 -16v-267c-34 12 -67 22 -96 32l-19 -72c33 -9 72 -21 115 -35v-211h-101v-69h101v-200h69v200h89v69h-89v190l91 -28zM562 613h102v-84h-102v84zM562 393
v77h102v-77h-102zM562 262v72h102v-72h-102zM824 393h-94v77h94v-77zM824 613v-84h-94v84h94zM888 673h-132c54 81 134 161 206 203c-15 13 -36 36 -48 53c-62 -44 -131 -118 -184 -197v224h-66v-283h-102v283h-64v-221c-48 81 -113 156 -177 199c-11 -16 -32 -41 -46 -52
c74 -42 149 -124 197 -209h-103v-60h129v-84h-164v-59h164v-77h-121v-59h121v-72h-157v-60h159c-21 -34 -62 -88 -95 -127l54 -27c35 39 77 92 99 125l-53 29h163c31 -45 69 -111 89 -158l68 29c-28 43 -60 90 -88 129h202v60h-209v72h158v136h64v59h-64v144z" />
</svg>
