<?xml version="1.0" standalone="no"?>
<!DOCTYPE svg PUBLIC "-//W3C//DTD SVG 1.1//EN" "http://www.w3.org/Graphics/SVG/1.1/DTD/svg11.dtd" >
<svg xmlns="http://www.w3.org/2000/svg" xmlns:xlink="http://www.w3.org/1999/xlink" version="1.1" viewBox="-10 0 1010 1000">
   <path fill="currentColor"
d="M351 529l-111 44v291c0 40 -9 60 -33 73c-23 12 -60 15 -118 15c-2 -20 -12 -50 -22 -72c39 1 75 1 85 1c12 0 17 -4 17 -17v-264l-106 41l-20 -71c35 -11 79 -26 126 -44v-213h-119v-69h119v-199h71v199h100v69h-100v187l98 -38zM807 653h-315c38 55 93 101 158 138
c65 -36 119 -81 157 -138zM864 586l44 23c-41 92 -107 162 -190 216c72 32 154 55 241 69c-16 15 -34 42 -44 61c-97 -19 -187 -49 -266 -91c-94 47 -200 77 -311 95c-5 -18 -20 -46 -32 -61c97 -14 193 -38 277 -73c-68 -46 -125 -103 -166 -169l7 -3h-44v-63h233v-97h-220
v-341c57 -19 123 -47 160 -72l53 49c-43 24 -97 44 -148 59v92h107v57h-107v94h155v-387h68v387h164v-95h-120v-57h120v-91h-125v-62h192v367h-231v97h170z" />
</svg>
