<?xml version="1.0" standalone="no"?>
<!DOCTYPE svg PUBLIC "-//W3C//DTD SVG 1.1//EN" "http://www.w3.org/Graphics/SVG/1.1/DTD/svg11.dtd" >
<svg xmlns="http://www.w3.org/2000/svg" xmlns:xlink="http://www.w3.org/1999/xlink" version="1.1" viewBox="-10 0 1010 1000">
   <path fill="currentColor"
d="M325 482l10 68l-101 35v279c0 41 -9 60 -33 72c-23 12 -60 15 -122 14c-3 -18 -12 -48 -21 -69c42 1 81 1 92 1c12 0 18 -4 18 -19v-257c-40 14 -79 27 -114 37l-18 -71c37 -11 82 -25 132 -40v-219h-118v-69h118v-200h66v200h97v69h-97v199zM807 619h-324v92h324v-92z
M483 858h324v-91h-324v91zM414 951v-392h464v388h-71v-32h-324v36h-69zM602 159v260h91v-260h-91zM758 419h191v67h-606v-67h194v-260h-168v-66h560v66h-171v260zM397 211l55 -15c28 55 53 127 62 175l-59 18c-7 -48 -31 -122 -58 -178zM828 390l-56 -15
c27 -47 62 -123 78 -175l64 15c-26 60 -58 129 -86 175z" />
</svg>
