<?xml version="1.0" standalone="no"?>
<!DOCTYPE svg PUBLIC "-//W3C//DTD SVG 1.1//EN" "http://www.w3.org/Graphics/SVG/1.1/DTD/svg11.dtd" >
<svg xmlns="http://www.w3.org/2000/svg" xmlns:xlink="http://www.w3.org/1999/xlink" version="1.1" viewBox="-10 0 1010 1000">
   <path fill="currentColor"
d="M320 541l-93 37v288c0 38 -9 57 -32 69c-22 11 -58 13 -115 13c-2 -18 -11 -46 -21 -66c40 1 76 1 86 0c12 0 16 -3 16 -16v-262l-98 38l-21 -71c34 -11 75 -26 119 -42v-216h-109v-69h109v-200h66v200h84v69h-84v192l80 -31zM833 206h-415v109h415v-109zM418 373v30
c0 159 -14 392 -106 553c-13 -12 -44 -30 -62 -36c89 -152 98 -366 98 -517v-256h255c-11 -29 -27 -65 -40 -92l65 -15c19 33 38 76 50 107h226v226h-486zM657 444v436c0 31 -6 46 -28 57c-21 9 -55 10 -107 10c-3 -16 -11 -39 -19 -55c35 2 68 2 77 1c10 -1 14 -3 14 -14
v-144c-58 35 -115 69 -165 97l-31 -53c51 -22 123 -59 196 -98v-178h-157v-59h220zM448 564l43 -25c34 34 70 81 85 112l-45 29c-15 -32 -50 -81 -83 -116zM923 444v431c0 32 -7 47 -29 57s-58 11 -114 11c-2 -17 -11 -39 -19 -55c39 1 75 1 84 1c11 -1 15 -4 15 -14v-146
c-57 36 -114 69 -163 98l-30 -52c50 -23 121 -61 193 -101v-171h-182v-59h245zM702 563l43 -26c35 35 74 83 91 114l-46 29c-16 -32 -54 -82 -88 -117z" />
</svg>
