<?xml version="1.0" standalone="no"?>
<!DOCTYPE svg PUBLIC "-//W3C//DTD SVG 1.1//EN" "http://www.w3.org/Graphics/SVG/1.1/DTD/svg11.dtd" >
<svg xmlns="http://www.w3.org/2000/svg" xmlns:xlink="http://www.w3.org/1999/xlink" version="1.1" viewBox="-10 0 1010 1000">
   <path fill="currentColor"
d="M812 211v-77h-340v77h340zM812 345v-79h-340v79h340zM883 78v323h-479v-323h479zM340 546l-106 37v281c0 41 -9 60 -33 72c-23 12 -60 15 -122 14c-2 -18 -11 -48 -21 -69c42 1 80 1 91 1c12 0 17 -4 17 -19v-258c-41 14 -80 28 -116 38l-18 -71c37 -11 83 -24 134 -41
v-218h-121v-69h121v-200h68v200h105v69h-105v196l97 -32zM622 469v411c0 34 -7 51 -31 62c-24 10 -64 11 -126 11c-2 -18 -10 -42 -18 -59c45 1 86 1 97 0c13 0 16 -3 16 -15v-134c-72 39 -147 78 -208 111l-29 -54c62 -27 149 -73 237 -117v-155h-201v-61h263zM361 575
l51 -21c35 42 72 95 87 132l-54 24c-15 -36 -51 -93 -84 -135zM927 469v413c0 35 -7 52 -32 62c-25 11 -65 11 -127 11c-4 -17 -13 -41 -22 -59c47 2 88 2 100 1c13 0 17 -4 17 -15v-142c-68 39 -139 77 -197 107l-30 -54c57 -26 142 -69 227 -113v-150h-205v-61h269z
M667 574l50 -22c36 40 75 95 91 131l-53 25c-15 -36 -53 -93 -88 -134z" />
</svg>
