<?xml version="1.0" standalone="no"?>
<!DOCTYPE svg PUBLIC "-//W3C//DTD SVG 1.1//EN" "http://www.w3.org/Graphics/SVG/1.1/DTD/svg11.dtd" >
<svg xmlns="http://www.w3.org/2000/svg" xmlns:xlink="http://www.w3.org/1999/xlink" version="1.1" viewBox="-10 0 1010 1000">
   <path fill="currentColor"
d="M334 479l10 68c-36 12 -71 24 -106 35v282c0 41 -9 60 -34 72c-23 12 -61 15 -125 14c-2 -18 -11 -48 -21 -69c43 1 82 1 93 1c13 0 18 -4 18 -19v-258c-42 14 -82 27 -118 38l-19 -71c38 -10 85 -25 137 -41v-218h-123v-69h123v-200h69v200h104v69h-104v196zM519 735
h261v-71h-261v71zM780 538h-261v70h261v-70zM849 478v404c0 36 -8 53 -34 64s-69 11 -136 11c-3 -18 -12 -42 -21 -59c49 1 92 1 104 1c14 -1 18 -5 18 -17v-91h-261v166h-68v-479h398zM499 258v91h115v-91h-115zM786 140h-287v67h173v142h114v-209zM857 349h78v168h-72
v-108h-426v108h-69v-168h63v-269h426v269z" />
</svg>
