<?xml version="1.0" standalone="no"?>
<!DOCTYPE svg PUBLIC "-//W3C//DTD SVG 1.1//EN" "http://www.w3.org/Graphics/SVG/1.1/DTD/svg11.dtd" >
<svg xmlns="http://www.w3.org/2000/svg" xmlns:xlink="http://www.w3.org/1999/xlink" version="1.1" viewBox="-10 0 1010 1000">
   <path fill="currentColor"
d="M350 480l9 67c-36 11 -72 22 -107 34v280c0 43 -10 63 -35 76c-25 12 -65 14 -131 14c-3 -20 -13 -51 -23 -72c45 2 87 1 99 1c13 0 19 -5 19 -19v-258c-45 13 -88 26 -126 38l-18 -72c39 -11 89 -24 144 -40v-216h-133v-69h133v-200h71v200h102v69h-102v196zM852 144
h-393v96h393v-96zM686 297h-227v92c0 165 -14 401 -111 560c-14 -12 -43 -29 -60 -35c94 -152 103 -368 103 -525v-303h530v211h-230c14 26 30 59 40 85h198v59h-443v-59h176c-10 -23 -21 -50 -33 -71zM958 638h-219v101h198v61h-198v156h-69v-156h-192v-61h192v-101h-208
v-62h114c-5 -32 -21 -82 -38 -118l61 -14c18 37 34 86 41 118l-56 14h174c18 -39 40 -94 52 -133l70 18c-18 38 -38 81 -56 115h134v62z" />
</svg>
