<?xml version="1.0" standalone="no"?>
<!DOCTYPE svg PUBLIC "-//W3C//DTD SVG 1.1//EN" "http://www.w3.org/Graphics/SVG/1.1/DTD/svg11.dtd" >
<svg xmlns="http://www.w3.org/2000/svg" xmlns:xlink="http://www.w3.org/1999/xlink" version="1.1" viewBox="-10 0 1010 1000">
   <path fill="currentColor"
d="M152 178v95h-68v-156h389c-9 -21 -20 -42 -30 -61l74 -20c16 24 31 55 43 81h355v156h-70v-95h-693zM533 725v54h327v50h-327v57c0 38 -9 53 -39 62s-77 9 -148 8c-4 -17 -14 -38 -23 -55c55 2 106 1 120 0c15 -1 19 -4 19 -16v-56h-333v-50h333v-54h-252v-48h252v-52
c-47 4 -95 7 -139 8c-2 -12 -9 -30 -15 -43c110 -6 245 -19 319 -36l35 43c-36 8 -81 15 -129 20v60h249v48h-249zM385 406v55h229v-55h-229zM385 305v54h229v-54h-229zM940 521h-228c62 60 157 114 245 141c-16 13 -36 39 -47 55c-101 -38 -211 -114 -277 -196h-261
c-68 84 -185 162 -286 202c-11 -16 -31 -40 -46 -54c87 -28 186 -86 250 -148h-228v-60h253v-55h-136v-47h136v-54h-155v-50h155v-55h70v55h229v-56h71v56h150v50h-150v54h134v47h-134v55h255v60z" />
</svg>
