<?xml version="1.0" standalone="no"?>
<!DOCTYPE svg PUBLIC "-//W3C//DTD SVG 1.1//EN" "http://www.w3.org/Graphics/SVG/1.1/DTD/svg11.dtd" >
<svg xmlns="http://www.w3.org/2000/svg" xmlns:xlink="http://www.w3.org/1999/xlink" version="1.1" viewBox="-10 0 1010 1000">
   <path fill="currentColor"
d="M345 552l-108 34v276c0 42 -10 62 -34 73c-24 12 -63 14 -129 14c-3 -19 -13 -49 -22 -69c46 2 88 1 100 1c13 0 19 -5 19 -19v-257l-113 36l-20 -73c37 -8 83 -21 133 -36v-218h-122v-70h122v-200h66v200h96v70h-96v200c33 -10 66 -21 99 -30zM783 400h-308v61v2h308
v-63zM470 578h313v-66h-309c-1 21 -2 44 -4 66zM849 632h-386c-16 106 -50 217 -121 301c-11 -15 -39 -37 -54 -46c108 -127 124 -301 124 -427v-114h437v286zM578 228l51 -24c26 30 59 74 76 103l-55 27c-16 -27 -47 -73 -72 -106zM815 749h-283v101h283v-101zM468 957
v-266h414v264h-67v-47h-283v49h-64zM633 33l62 24c-6 10 -12 19 -18 29c69 75 188 154 290 195c-11 18 -26 50 -32 71c-101 -51 -218 -134 -295 -215c-73 90 -170 168 -265 222c-7 -15 -28 -47 -39 -62c117 -59 233 -153 297 -264z" />
</svg>
