<?xml version="1.0" standalone="no"?>
<!DOCTYPE svg PUBLIC "-//W3C//DTD SVG 1.1//EN" "http://www.w3.org/Graphics/SVG/1.1/DTD/svg11.dtd" >
<svg xmlns="http://www.w3.org/2000/svg" xmlns:xlink="http://www.w3.org/1999/xlink" version="1.1" viewBox="-10 0 1010 1000">
   <path fill="currentColor"
d="M323 533l-91 39v290c0 40 -8 60 -32 72c-23 12 -59 14 -117 14c-3 -19 -12 -49 -22 -70c40 1 75 1 86 1c12 0 16 -4 16 -17v-263l-98 40l-22 -70c34 -11 75 -27 120 -44v-214h-110v-69h110v-200h69v200h82v69h-82v186l77 -30zM671 778l39 -44c74 44 173 108 223 148
l-39 51c-49 -41 -147 -109 -223 -155zM953 457h-175c47 61 116 114 187 145c-12 18 -25 50 -30 70c-93 -48 -180 -129 -232 -215h-161c-17 30 -36 59 -57 85c83 -9 175 -25 228 -45l48 47c-32 11 -69 20 -108 27v89h237v59h-237v235h-69v-196c-64 70 -154 138 -231 175
c-11 -17 -31 -41 -47 -55c81 -31 177 -95 240 -159h-174v-59h212v-77c-36 5 -72 9 -105 12c-2 -9 -6 -21 -11 -31c-41 45 -89 84 -147 118c-6 -17 -23 -51 -36 -67c76 -41 134 -93 178 -158h-141v-63h177c11 -21 20 -45 29 -69h-136v-60h154c6 -21 11 -43 16 -66h-202v-61
h212c5 -30 9 -63 13 -96l66 8c-3 30 -7 60 -12 88h283v61h-293c-4 23 -9 44 -14 66h269v60h-287c-7 24 -15 47 -26 69h382v63z" />
</svg>
