<?xml version="1.0" standalone="no"?>
<!DOCTYPE svg PUBLIC "-//W3C//DTD SVG 1.1//EN" "http://www.w3.org/Graphics/SVG/1.1/DTD/svg11.dtd" >
<svg xmlns="http://www.w3.org/2000/svg" xmlns:xlink="http://www.w3.org/1999/xlink" version="1.1" viewBox="-10 0 1010 1000">
   <path fill="currentColor"
d="M551 577h-128v218h128v-218zM362 917v-404h252v395h-63v-49h-128v58h-61zM376 356h211v62h-211v-62zM956 546v66h-129v262c0 37 -9 56 -32 67c-24 12 -59 15 -117 14c-3 -18 -14 -47 -24 -66c42 2 78 2 89 1c13 0 17 -4 17 -16v-262h-124v-66h124v-160h-117v-65l-39 27
c-23 -46 -72 -110 -119 -165c-37 70 -82 135 -135 184l-23 -23v41h-86v66c0 32 0 63 -2 94h92v67h-95c-12 125 -44 245 -129 346c-12 -13 -39 -34 -57 -42c76 -89 107 -194 119 -304h-123v-67h127c2 -31 2 -63 2 -95v-65h-124v-67h124v-144c-37 10 -75 18 -112 24
c-4 -14 -14 -39 -23 -55c99 -21 213 -55 275 -93l55 55c-37 19 -81 37 -129 50v163h68c75 -71 135 -174 164 -273l61 16c-6 22 -14 43 -23 65c58 58 118 134 147 185l-12 8h114v-157c-40 10 -80 18 -118 25c-3 -15 -13 -39 -20 -54c97 -20 213 -50 275 -84l51 51
c-35 17 -76 32 -121 45v174h110v67h-110v160h129z" />
</svg>
