<?xml version="1.0" standalone="no"?>
<!DOCTYPE svg PUBLIC "-//W3C//DTD SVG 1.1//EN" "http://www.w3.org/Graphics/SVG/1.1/DTD/svg11.dtd" >
<svg xmlns="http://www.w3.org/2000/svg" xmlns:xlink="http://www.w3.org/1999/xlink" version="1.1" viewBox="-10 0 1010 1000">
   <path fill="currentColor"
d="M785 439l-38 43c-25 -31 -75 -76 -120 -112c-25 50 -61 91 -116 121c-8 -12 -25 -32 -37 -41c67 -34 103 -86 121 -152h-112v-54h125c3 -23 6 -45 8 -70h55c-2 25 -5 47 -8 70h116v54h-127l-6 21c49 37 110 88 139 120zM817 511v-369h-371v369h371zM888 81v492h-509v-492
h509zM732 745l-54 33c-14 -41 -51 -105 -88 -153l54 -30c36 46 75 108 88 150zM339 535l-103 40v291c0 39 -9 58 -32 70s-59 14 -116 14c-3 -19 -12 -48 -21 -68c39 1 75 1 85 0c12 0 17 -3 17 -16v-265l-106 41l-20 -71c35 -12 78 -28 126 -45v-213h-117v-69h117v-200h67
v200h99v69h-99v188c29 -11 59 -22 89 -34zM337 895l-57 -36c38 -59 70 -154 86 -228l56 21c-17 74 -47 176 -85 243zM581 866h134c35 0 41 -15 45 -121c15 12 43 23 63 28c-8 125 -29 157 -101 157h-148c-87 0 -109 -20 -109 -92v-202h69v201c0 25 7 29 47 29zM791 639
l50 -26c45 72 93 166 110 225l-54 29c-16 -60 -62 -156 -106 -228z" />
</svg>
