<?xml version="1.0" standalone="no"?>
<!DOCTYPE svg PUBLIC "-//W3C//DTD SVG 1.1//EN" "http://www.w3.org/Graphics/SVG/1.1/DTD/svg11.dtd" >
<svg xmlns="http://www.w3.org/2000/svg" xmlns:xlink="http://www.w3.org/1999/xlink" version="1.1" viewBox="-10 0 1010 1000">
   <path fill="currentColor"
d="M862 307v-165h-103v165h103zM700 307v-165h-100v165h100zM541 307v-165h-97v165h97zM934 84v281h-560v-281h560zM351 546l-111 37v281c0 42 -9 62 -34 74c-24 13 -63 15 -127 15c-3 -20 -12 -51 -22 -71c44 1 84 1 95 1c13 -1 18 -5 18 -19v-258l-116 38l-19 -73
c37 -11 84 -24 135 -40v-218h-119v-70h119v-199h70v199h99v70h-99v196l101 -32zM952 707h-333c-38 55 -79 109 -124 154l318 -26c-18 -28 -38 -57 -56 -82l56 -30c45 62 105 147 134 197l-59 37c-10 -18 -23 -39 -37 -63c-389 35 -431 41 -459 52c-3 -15 -15 -50 -23 -69
c18 -3 36 -17 59 -41c18 -17 64 -69 106 -129h-192v-67h269v-106h-220v-66h220v-81h72v81h233v66h-233v106h269v67z" />
</svg>
