<?xml version="1.0" standalone="no"?>
<!DOCTYPE svg PUBLIC "-//W3C//DTD SVG 1.1//EN" "http://www.w3.org/Graphics/SVG/1.1/DTD/svg11.dtd" >
<svg xmlns="http://www.w3.org/2000/svg" xmlns:xlink="http://www.w3.org/1999/xlink" version="1.1" viewBox="-10 0 1010 1000">
   <path fill="currentColor"
d="M716 141v58c0 77 -13 180 -75 250c-11 -11 -37 -31 -52 -38c57 -65 65 -149 65 -214v-119h232v262c0 25 1 31 10 31h24c10 0 24 -1 34 -4c0 16 3 40 5 55c-10 4 -25 4 -38 4h-30c-57 0 -68 -23 -68 -88v-197h-107zM601 305l-47 50c-20 -27 -50 -59 -86 -91
c-44 42 -90 80 -134 112c-10 -12 -37 -36 -51 -47c46 -30 93 -66 137 -108c-36 -31 -75 -61 -111 -86l43 -43c37 24 76 54 113 84c30 -31 56 -63 78 -95l63 23c-27 38 -58 76 -92 113c35 31 66 61 87 88zM284 481l16 67c-25 12 -51 23 -76 35v291c0 39 -10 58 -33 70
c-22 11 -59 13 -119 13c-4 -18 -13 -46 -22 -66c42 1 80 1 91 0c13 0 17 -4 17 -17v-261l-99 44l-23 -71c34 -13 76 -30 122 -50v-223h-114v-69h114v-200h66v200h76v69h-76v194zM351 612l48 21c-24 64 -66 149 -93 196c-11 -14 -31 -32 -45 -42c27 -40 68 -116 90 -175z
M608 547h-120v320c0 32 -5 50 -26 61c-20 12 -50 13 -92 13c-3 -18 -13 -45 -21 -63c29 1 55 1 64 0c9 0 12 -2 12 -12v-319h-124v-61h124v-125h63v125h120v61zM643 769l-50 26c-16 -43 -55 -112 -91 -162l48 -22c37 49 77 115 93 158zM851 537h-148c17 65 41 124 70 177
c33 -52 60 -111 78 -177zM888 472l42 14c-22 116 -63 213 -116 290c41 53 90 95 148 123c-14 12 -35 38 -45 55c-57 -29 -105 -71 -145 -123c-46 53 -99 95 -156 125c-9 -16 -27 -43 -42 -56c58 -29 112 -72 158 -128c-39 -65 -69 -143 -89 -227l34 -8h-48v-62h246z" />
</svg>
