<?xml version="1.0" standalone="no"?>
<!DOCTYPE svg PUBLIC "-//W3C//DTD SVG 1.1//EN" "http://www.w3.org/Graphics/SVG/1.1/DTD/svg11.dtd" >
<svg xmlns="http://www.w3.org/2000/svg" xmlns:xlink="http://www.w3.org/1999/xlink" version="1.1" viewBox="-10 0 1010 1000">
   <path fill="currentColor"
d="M923 132v60h-571v-60h250c-9 -25 -22 -52 -32 -74l66 -19c17 28 35 67 44 93h243zM578 317l-65 19c-8 -29 -29 -77 -49 -113l63 -15c20 34 43 80 51 109zM313 472l13 67c-31 12 -62 25 -92 36v291c0 38 -9 57 -31 69c-23 11 -59 13 -115 13c-3 -18 -12 -46 -21 -66
c39 1 75 1 85 0c12 0 17 -3 17 -16v-265l-106 41l-20 -72c35 -11 78 -27 126 -44v-213h-117v-69h117v-200h65v200h95v69h-95v189zM712 750v108h226v60h-534v-60h243v-108h-180v-58h180v-99h-138c-15 27 -31 53 -47 74c-12 -8 -37 -21 -52 -27c42 -51 77 -123 99 -191l58 13
c-8 24 -18 49 -29 72h109v-100h65v100h203v59h-203v99h183v58h-183zM765 342h179v61h-530v55c0 135 -18 340 -104 487c-12 -10 -41 -28 -56 -34c82 -139 94 -328 94 -453v-116h350c26 -41 55 -98 72 -138l68 20c-22 40 -49 83 -73 118z" />
</svg>
