<?xml version="1.0" standalone="no"?>
<!DOCTYPE svg PUBLIC "-//W3C//DTD SVG 1.1//EN" "http://www.w3.org/Graphics/SVG/1.1/DTD/svg11.dtd" >
<svg xmlns="http://www.w3.org/2000/svg" xmlns:xlink="http://www.w3.org/1999/xlink" version="1.1" viewBox="-10 0 1010 1000">
   <path fill="currentColor"
d="M333 463l11 69l-109 35v305c0 40 -9 59 -34 72c-23 11 -60 14 -123 13c-3 -18 -12 -48 -22 -68c43 1 83 1 94 1c12 0 17 -4 17 -18v-282c-42 13 -81 27 -117 38l-19 -72c38 -10 85 -24 136 -40v-203h-122v-69h122v-199h68v199h91v69h-91v182zM830 243l-35 30
c-16 -21 -48 -51 -76 -72l33 -25c29 18 62 47 78 67zM629 612l6 46c-64 19 -126 39 -182 54l-17 -50c50 -11 119 -30 193 -50zM579 424h-76v105h76v-105zM623 573h-120v32h-45v-225h165v193zM779 379l48 7c-20 91 -51 169 -91 235c14 73 33 115 57 116c12 0 21 -36 27 -101
c9 11 27 24 38 28c-14 104 -38 136 -64 135c-43 -1 -74 -46 -96 -123c-43 55 -95 101 -155 139c-7 -10 -26 -29 -37 -37c74 -41 132 -95 177 -163c-14 -77 -23 -174 -29 -282h-215v-54h213c-1 -33 -2 -68 -3 -103h53c0 35 1 70 2 103h136v54h-134c4 79 10 152 18 212
c23 -49 42 -105 55 -166zM414 834h450v-685h-450v685zM349 88h581v861h-66v-53h-450v58h-65v-866z" />
</svg>
