<?xml version="1.0" standalone="no"?>
<!DOCTYPE svg PUBLIC "-//W3C//DTD SVG 1.1//EN" "http://www.w3.org/Graphics/SVG/1.1/DTD/svg11.dtd" >
<svg xmlns="http://www.w3.org/2000/svg" xmlns:xlink="http://www.w3.org/1999/xlink" version="1.1" viewBox="-10 0 1010 1000">
   <path fill="currentColor"
d="M445 708l65 20c-34 61 -81 136 -119 184c-12 -11 -40 -30 -56 -38c40 -46 82 -110 110 -166zM910 658h-225v220c0 37 -6 55 -34 66c-26 12 -66 12 -125 12c-3 -20 -14 -46 -24 -65c48 1 84 1 97 0c13 0 16 -4 16 -14v-219h-221v-62h516v62zM773 733l58 -29
c42 54 96 127 123 170l-59 37c-26 -45 -79 -122 -122 -178zM505 442h290c-65 -79 -110 -183 -140 -303c-30 123 -84 226 -150 303zM872 183h-144c17 50 38 98 62 141c33 -40 61 -94 82 -141zM914 125l43 25c-31 80 -81 167 -132 226c40 52 88 95 146 122
c-15 13 -35 37 -44 55c-43 -24 -81 -54 -114 -90v40h-320v-48c-36 39 -75 72 -115 97c-9 -14 -26 -34 -39 -46c43 -25 84 -59 121 -103c-23 -20 -52 -42 -77 -60l31 -31c24 15 53 35 76 55c15 -22 30 -43 42 -67c-22 -18 -52 -36 -77 -50l27 -35c23 11 50 27 73 42
c13 -28 23 -57 32 -86h-110c-35 67 -78 126 -126 170c-7 -10 -25 -33 -38 -45v17h-80v190l79 -30l13 68l-92 36v289c0 38 -9 57 -32 69c-23 11 -58 14 -117 13c-3 -18 -12 -46 -21 -66c41 1 77 1 88 0c12 0 17 -3 17 -16v-264l-103 40l-20 -71c34 -11 76 -27 123 -44v-214
h-114v-69h114v-199h65v199h80v47c69 -61 123 -149 155 -247l58 13c-7 22 -15 42 -24 63h106l11 -2l35 14c-5 -19 -9 -37 -13 -57l57 -11c4 22 9 44 15 65h189z" />
</svg>
