<?xml version="1.0" standalone="no"?>
<!DOCTYPE svg PUBLIC "-//W3C//DTD SVG 1.1//EN" "http://www.w3.org/Graphics/SVG/1.1/DTD/svg11.dtd" >
<svg xmlns="http://www.w3.org/2000/svg" xmlns:xlink="http://www.w3.org/1999/xlink" version="1.1" viewBox="-10 0 1010 1000">
   <path fill="currentColor"
d="M884 265h-141c-17 65 -40 122 -67 169c-10 -12 -34 -36 -48 -46c51 -81 77 -206 92 -334l63 10c-6 47 -14 94 -24 138h144l11 -4l42 17c-18 87 -41 190 -64 254l-49 -24c14 -46 29 -115 41 -180zM303 557l-79 28v284c0 40 -9 59 -34 72c-22 11 -60 14 -123 13
c-3 -18 -12 -48 -21 -68c43 1 82 1 93 1c12 0 18 -4 18 -18v-261c-37 14 -73 25 -105 36l-19 -72c34 -9 77 -22 124 -37v-222h-110v-69h110v-200h67v200h76v69h-76v202l71 -22zM376 347v167h74v-167h-74zM572 514v-167h-73v167h73zM642 712l-45 54c-17 -24 -57 -70 -91 -106
v297h-64v-296c-44 86 -102 169 -161 218c-7 -19 -23 -46 -34 -63c69 -54 140 -153 181 -248h-103v-276h118v-80h-135v-61h135v-109h63v109h143v61h-143v80h119v276h-119v20c30 26 114 103 136 124zM803 344v80c0 27 -1 58 -3 91c31 183 79 293 174 390c-16 12 -36 31 -45 51
c-75 -79 -122 -167 -155 -284c-24 94 -70 194 -155 283c-11 -13 -32 -31 -49 -41c164 -163 171 -369 171 -491v-79h62z" />
</svg>
