<?xml version="1.0" standalone="no"?>
<!DOCTYPE svg PUBLIC "-//W3C//DTD SVG 1.1//EN" "http://www.w3.org/Graphics/SVG/1.1/DTD/svg11.dtd" >
<svg xmlns="http://www.w3.org/2000/svg" xmlns:xlink="http://www.w3.org/1999/xlink" version="1.1" viewBox="-10 0 1010 1000">
   <path fill="currentColor"
d="M337 481l12 68c-36 12 -73 25 -109 36v280c0 41 -9 61 -33 74c-23 12 -59 15 -117 14c-4 -19 -13 -51 -23 -71c39 1 75 1 85 0c12 0 16 -4 16 -17v-257c-40 13 -77 24 -112 35l-18 -71c36 -10 81 -23 130 -38v-221h-117v-69h117v-199h72v199h99v69h-99v200zM479 749
l62 20c-44 53 -107 114 -159 153c-13 -10 -39 -29 -55 -38c54 -36 113 -88 152 -135zM462 274v81h159v-81h-159zM462 141v80h159v-80h-159zM833 221v-80h-148v80h148zM833 355v-81h-148v81h148zM864 687l-172 13v183c0 35 -6 52 -33 62c-25 11 -65 11 -127 11
c-3 -19 -11 -43 -20 -62c45 1 84 1 95 1c13 -1 16 -3 16 -14v-175c-182 14 -210 18 -231 26c-3 -13 -13 -46 -20 -63c25 -3 57 -17 98 -39c22 -10 69 -38 125 -73c-129 6 -153 10 -167 16c-4 -14 -13 -46 -22 -64c17 -1 35 -10 55 -23c17 -9 61 -39 102 -75h-167v-326h505
v326h-245c-40 34 -81 67 -123 93l148 -6c30 -20 60 -44 87 -66l57 38c-93 71 -191 134 -288 184l288 -19c-17 -22 -34 -44 -51 -63l50 -29c47 53 104 126 130 172l-52 32c-10 -17 -23 -37 -38 -60zM766 769l49 -31c49 46 110 111 139 152l-53 36c-28 -42 -86 -108 -135 -157
z" />
</svg>
