<?xml version="1.0" standalone="no"?>
<!DOCTYPE svg PUBLIC "-//W3C//DTD SVG 1.1//EN" "http://www.w3.org/Graphics/SVG/1.1/DTD/svg11.dtd" >
<svg xmlns="http://www.w3.org/2000/svg" xmlns:xlink="http://www.w3.org/1999/xlink" version="1.1" viewBox="-10 0 1010 1000">
   <path fill="currentColor"
d="M727 294h-127c-22 30 -48 59 -81 84c-10 -12 -29 -25 -42 -32c56 -41 95 -96 114 -143l55 7c-5 12 -12 26 -19 39h127l9 -2l37 14c-20 57 -50 104 -87 144c27 19 50 39 67 55l-39 37c-17 -17 -40 -37 -67 -57c-42 35 -91 63 -142 81c-7 -11 -23 -30 -35 -40
c47 -16 94 -40 134 -71c-21 -15 -43 -29 -63 -41l38 -32c20 11 42 24 63 38c24 -24 44 -52 58 -81zM833 535v-345h-379v345h379zM902 129v468h-513v-468h174c12 -29 25 -65 32 -90l75 13c-12 26 -27 53 -40 77h272zM569 628l55 -25c52 38 107 94 131 134l-59 27
c-23 -39 -76 -97 -127 -136zM343 533l-111 36v297c0 40 -9 59 -32 71c-22 11 -59 14 -117 13c-3 -18 -12 -48 -21 -67c40 1 76 1 87 0c12 0 17 -3 17 -16v-276c-41 13 -80 26 -116 37l-18 -70c37 -10 83 -24 134 -40v-206h-121v-68h121v-200h66v200h107v68h-107v187l101 -33
zM381 896l-60 -29c34 -49 60 -133 73 -199l59 20c-13 68 -37 155 -72 208zM600 873h143c35 0 41 -12 45 -97c15 12 44 21 64 25c-9 107 -30 134 -101 134h-158c-89 0 -111 -19 -111 -89v-180h69v179c0 24 8 28 49 28zM787 671l56 -25c51 62 99 144 119 201l-60 28
c-18 -56 -65 -141 -115 -204z" />
</svg>
