<?xml version="1.0" standalone="no"?>
<!DOCTYPE svg PUBLIC "-//W3C//DTD SVG 1.1//EN" "http://www.w3.org/Graphics/SVG/1.1/DTD/svg11.dtd" >
<svg xmlns="http://www.w3.org/2000/svg" xmlns:xlink="http://www.w3.org/1999/xlink" version="1.1" viewBox="-10 0 1010 1000">
   <path fill="currentColor"
d="M348 533l-109 36v301c0 40 -9 61 -34 73c-24 11 -62 14 -124 13c-3 -17 -12 -48 -22 -68c43 1 82 1 94 0c12 0 17 -3 17 -18v-279l-119 39l-19 -72c38 -10 86 -25 138 -41v-205h-125v-68h125v-200h69v200h104v68h-104v184c33 -10 66 -21 99 -32zM436 267v223
c0 140 -14 335 -104 465c-11 -11 -40 -31 -55 -38c84 -124 93 -297 93 -427v-279h227v-168h71v63h230v55h-230v50h226l11 -1l46 10c-14 47 -32 103 -47 137l-56 -12c8 -21 17 -50 24 -78h-217v56l167 -20l7 45l-174 21v25c0 20 6 23 44 23h135c27 0 33 -5 34 -48
c14 9 38 15 53 19c-5 61 -23 76 -78 76h-150c-81 0 -101 -12 -101 -70v-18l-124 15l-6 -45l130 -16v-63h-156zM576 806v67h225v-67h-225zM801 574h-225v65h225v-65zM801 755v-65h-225v65h225zM868 873h87v59h-539v-59h96v-357h356v357z" />
</svg>
