<?xml version="1.0" standalone="no"?>
<!DOCTYPE svg PUBLIC "-//W3C//DTD SVG 1.1//EN" "http://www.w3.org/Graphics/SVG/1.1/DTD/svg11.dtd" >
<svg xmlns="http://www.w3.org/2000/svg" xmlns:xlink="http://www.w3.org/1999/xlink" version="1.1" viewBox="-10 0 1010 1000">
   <path fill="currentColor"
d="M574 418l-40 40c-15 -16 -37 -35 -61 -54c-32 33 -68 61 -102 84c-9 -10 -30 -32 -43 -41c34 -21 69 -47 101 -76c-25 -17 -50 -32 -74 -46l39 -36c23 13 49 27 73 44c19 -21 34 -42 48 -64l53 18c-17 26 -35 52 -57 77c25 19 47 37 63 54zM564 642l-42 40
c-13 -15 -30 -33 -50 -52c-32 37 -67 69 -101 94c-10 -10 -32 -30 -45 -40c36 -24 71 -55 104 -89c-25 -20 -51 -39 -76 -55l41 -36c22 14 47 31 70 49c17 -22 31 -46 44 -69l54 16c-16 31 -34 59 -56 87c23 20 43 39 57 55zM318 484l10 67c-32 12 -66 23 -99 34v279
c0 41 -9 61 -31 72c-22 13 -58 15 -114 15c-2 -19 -11 -49 -20 -70c39 1 74 1 84 1c11 0 16 -4 16 -17v-258c-39 13 -76 25 -110 36l-17 -71c35 -10 79 -24 127 -39v-220h-114v-69h114v-199h65v199h94v69h-94v200zM945 652l-42 41c-15 -20 -41 -45 -68 -69
c-26 27 -52 51 -78 72c-7 -8 -21 -22 -34 -31c40 81 114 169 241 225c-14 18 -31 47 -40 66c-195 -89 -263 -263 -279 -337c-15 75 -88 247 -282 337c-9 -17 -27 -45 -41 -62c237 -105 290 -322 290 -401v-258h-266v-67h266v-116h66v116h275v67h-275v258c0 34 10 94 39 160
c27 -19 52 -41 75 -65c-23 -18 -46 -35 -69 -50l38 -37c21 13 43 28 66 45c16 -20 29 -43 41 -66l55 16c-15 30 -32 58 -53 84c30 26 57 50 75 72zM938 421l-40 40c-17 -18 -42 -40 -70 -63c-30 31 -63 57 -94 79c-9 -12 -30 -32 -42 -42c31 -19 62 -42 92 -69
c-24 -16 -47 -30 -70 -43l38 -35c22 12 46 25 69 40c17 -19 31 -38 44 -59l53 18c-15 24 -33 49 -53 72c29 22 55 43 73 62z" />
</svg>
