<?xml version="1.0" standalone="no"?>
<!DOCTYPE svg PUBLIC "-//W3C//DTD SVG 1.1//EN" "http://www.w3.org/Graphics/SVG/1.1/DTD/svg11.dtd" >
<svg xmlns="http://www.w3.org/2000/svg" xmlns:xlink="http://www.w3.org/1999/xlink" version="1.1" viewBox="-10 0 1010 1000">
   <path fill="currentColor"
d="M242 317h102c12 -23 27 -51 34 -73h-322v-49h199v-46h-156v-49h156v-55h68v55h156v49h-156v46h196v49h-121l43 12c-12 22 -25 42 -35 61h79v49h-162v50h179v41c49 -27 81 -63 103 -108c-29 -17 -57 -34 -84 -47l35 -43c22 10 46 23 68 35c9 -28 14 -60 18 -94h-115v-60
h120c2 -29 3 -62 4 -96h63c-1 34 -2 66 -4 96h151c-1 229 -3 327 42 328c14 0 18 -39 20 -101c13 14 30 29 44 36c-7 94 -22 124 -69 124c-93 0 -101 -96 -103 -327h-90c-5 47 -13 90 -25 128c34 21 64 44 84 63l-37 49c-17 -16 -42 -36 -69 -55c-29 56 -73 100 -141 133
c-8 -14 -26 -37 -40 -48l10 -5h-164v65h-68v-65h-190v-49h190v-50h-159v-49h84c-8 -19 -19 -39 -30 -56l53 -16c16 21 31 49 39 72zM536 702v55h410v55h-410v71c0 39 -10 55 -40 65c-32 9 -82 9 -161 9c-5 -18 -16 -41 -25 -57c60 2 116 1 132 0c15 -1 21 -5 21 -19v-69
h-409v-55h409v-55h-338v-53h338v-61c-106 6 -217 9 -318 9c-1 -14 -8 -35 -13 -48c228 -3 505 -17 657 -39l42 46c-81 12 -184 21 -295 28v65h348v53h-348z" />
</svg>
