<?xml version="1.0" standalone="no"?>
<!DOCTYPE svg PUBLIC "-//W3C//DTD SVG 1.1//EN" "http://www.w3.org/Graphics/SVG/1.1/DTD/svg11.dtd" >
<svg xmlns="http://www.w3.org/2000/svg" xmlns:xlink="http://www.w3.org/1999/xlink" version="1.1" viewBox="-10 0 1010 1000">
   <path fill="currentColor"
d="M83 361l-31 -36c44 -21 109 -61 147 -90h-144v-45h199v-50h-156v-45h156v-51h68v51h156v45h-156v50h189v45h-139c47 23 105 55 135 78l-27 42c-34 -25 -96 -62 -144 -87l24 -33h-154l36 37c-40 29 -92 57 -136 78h148v-55h68v55h150v45h-150v61c56 -2 116 -6 176 -9
l-1 28c55 -33 89 -77 110 -134c-26 -16 -53 -31 -78 -44l33 -40c20 8 40 19 60 31c6 -26 10 -54 13 -84h-110v-56h114c2 -32 3 -68 4 -105h61c-1 37 -2 72 -4 105h155c0 188 1 325 41 325c15 0 19 -46 20 -110c13 13 30 28 43 36c-6 97 -18 134 -67 134
c-89 0 -98 -132 -100 -329h-96c-4 43 -11 81 -20 117c36 23 68 48 89 68l-35 45c-17 -17 -43 -38 -71 -59c-26 63 -66 111 -129 147c-6 -11 -21 -30 -33 -40v9c-155 11 -313 21 -426 29l-5 -52c52 -2 117 -5 188 -8v-65h-151v-43zM536 699v57h415v55h-415v68
c0 40 -10 56 -40 66c-32 10 -82 10 -161 10c-4 -18 -16 -42 -25 -59c60 2 116 1 132 1c15 -1 21 -5 21 -19v-67h-413v-55h413v-57h-343v-54h343v-59c-103 5 -211 8 -310 9c-1 -15 -8 -36 -14 -50c226 -2 501 -15 645 -40l53 44c-82 15 -188 25 -301 32v64h349v54h-349z" />
</svg>
