<?xml version="1.0" standalone="no"?>
<!DOCTYPE svg PUBLIC "-//W3C//DTD SVG 1.1//EN" "http://www.w3.org/Graphics/SVG/1.1/DTD/svg11.dtd" >
<svg xmlns="http://www.w3.org/2000/svg" xmlns:xlink="http://www.w3.org/1999/xlink" version="1.1" viewBox="-10 0 1010 1000">
   <path fill="currentColor"
d="M805 181v-57h-319v57h319zM805 284v-57h-319v57h319zM876 75v257h-459v-257h459zM857 523v-92h-106v92h106zM694 523v-92h-105v92h105zM533 523v-92h-100v92h100zM923 380v194h-553v-194h553zM344 549l-101 33v282c0 41 -9 60 -34 72c-23 12 -61 15 -125 14
c-2 -18 -11 -48 -21 -69c43 1 82 1 93 1c13 0 18 -4 18 -19v-259l-120 39l-18 -72c38 -11 86 -24 138 -41v-217h-124v-69h124v-200h69v200h103v69h-103v195l91 -28zM790 684h-294c38 43 87 81 146 112c59 -31 110 -68 148 -112zM852 620l46 26c-42 76 -107 137 -183 183
c72 29 155 51 242 63c-15 16 -33 44 -43 64c-99 -17 -193 -45 -275 -87c-93 44 -197 72 -302 89c-7 -19 -22 -48 -35 -64c92 -12 184 -34 266 -65c-60 -40 -113 -88 -152 -145h-69v-61h492z" />
</svg>
