<?xml version="1.0" standalone="no"?>
<!DOCTYPE svg PUBLIC "-//W3C//DTD SVG 1.1//EN" "http://www.w3.org/Graphics/SVG/1.1/DTD/svg11.dtd" >
<svg xmlns="http://www.w3.org/2000/svg" xmlns:xlink="http://www.w3.org/1999/xlink" version="1.1" viewBox="-10 0 1010 1000">
   <path fill="currentColor"
d="M412 254v90h-66v-142h267v-59h-234v-56h536v56h-234v59h263v142h-69v-90h-194v220h-68v-220h-201zM407 443v-44h171v44h-171zM429 305h148v44h-148v-44zM403 553v-54h497v54h-497zM717 443v-44h176v44h-176zM717 305h153v44h-153v-44zM322 486l11 68l-103 34v277
c0 39 -9 59 -32 71c-22 12 -58 15 -113 14c-3 -18 -12 -49 -22 -69c38 1 72 1 82 1c11 0 16 -4 16 -16v-256c-36 13 -72 24 -103 33l-20 -71c35 -10 77 -22 123 -36v-223h-112v-69h112v-200h69v200h87v69h-87v202c30 -9 62 -19 92 -29zM958 666h-399c-8 20 -17 42 -26 61
h351s-1 20 -4 29c-16 106 -30 155 -58 177c-21 18 -42 22 -79 23c-34 2 -100 1 -170 -4c-2 -18 -12 -43 -24 -61c71 6 147 7 174 7c23 0 35 0 46 -7c16 -12 28 -44 39 -108h-373c17 -33 36 -76 53 -117h-148v-56h618v56z" />
</svg>
