<?xml version="1.0" standalone="no"?>
<!DOCTYPE svg PUBLIC "-//W3C//DTD SVG 1.1//EN" "http://www.w3.org/Graphics/SVG/1.1/DTD/svg11.dtd" >
<svg xmlns="http://www.w3.org/2000/svg" xmlns:xlink="http://www.w3.org/1999/xlink" version="1.1" viewBox="-10 0 1010 1000">
   <path fill="currentColor"
d="M936 154l-51 32c-18 -29 -54 -75 -86 -106l49 -27c33 30 71 72 88 101zM318 543l-96 38v285c0 38 -9 57 -32 69c-23 11 -58 13 -115 13c-3 -18 -12 -46 -21 -66c39 1 75 1 85 0c12 0 17 -3 17 -16v-260l-93 36l-21 -71c32 -10 71 -25 114 -40v-218h-105v-69h105v-200h66
v200h84v69h-84v194l83 -31zM456 622l52 11c-13 72 -35 147 -62 197c-11 -8 -33 -20 -47 -26c29 -49 47 -116 57 -182zM708 566h-114v299c0 31 -4 48 -25 59c-19 11 -51 11 -96 11c-2 -17 -8 -41 -16 -59c34 1 61 1 71 0c9 0 12 -3 12 -11v-299h-117v-57h107v-232h55v87h101
v55h-101v90h123v57zM713 763l-45 15c-6 -37 -27 -99 -47 -145l42 -12c22 46 43 105 50 142zM874 364l60 9c-27 138 -63 261 -113 366c20 98 46 155 76 155c17 0 26 -39 29 -135c14 14 34 28 49 35c-11 123 -29 165 -87 165c-49 0 -85 -51 -111 -138c-32 49 -66 94 -106 133
c-10 -12 -32 -36 -45 -47c52 -47 94 -105 130 -172c-24 -123 -37 -291 -44 -477h-301v195c0 148 -13 363 -96 508c-11 -12 -39 -32 -52 -39c76 -138 84 -331 84 -469v-258h364c-2 -49 -2 -100 -3 -151h66c0 52 0 102 1 151h181v63h-180c4 143 14 271 27 374
c31 -82 54 -172 71 -268z" />
</svg>
