<?xml version="1.0" standalone="no"?>
<!DOCTYPE svg PUBLIC "-//W3C//DTD SVG 1.1//EN" "http://www.w3.org/Graphics/SVG/1.1/DTD/svg11.dtd" >
<svg xmlns="http://www.w3.org/2000/svg" xmlns:xlink="http://www.w3.org/1999/xlink" version="1.1" viewBox="-10 0 1010 1000">
   <path fill="currentColor"
d="M320 542l-93 36v288c0 38 -9 57 -32 69c-22 11 -58 13 -115 13c-2 -18 -11 -46 -21 -66c40 1 76 1 86 0c12 0 16 -3 16 -16v-262l-98 38l-21 -71c34 -11 75 -26 119 -42v-216h-109v-69h109v-199h66v199h81v69h-81v191l80 -30zM338 138v-61h210v281h-141
c-4 55 -8 114 -12 163h147s0 20 -1 29c-13 238 -24 324 -49 353c-16 19 -32 25 -59 28c-22 2 -64 1 -108 -1c-1 -19 -7 -44 -17 -61c44 4 87 4 104 4c15 0 23 -1 31 -10c19 -19 29 -94 39 -286h-149c8 -73 14 -190 16 -279h142v-160h-153zM644 482v158h74v-158h-74zM849 640
v-158h-78v158h78zM666 138v126h161v-126h-161zM952 926l-58 20c-3 -16 -7 -34 -13 -55c-116 12 -232 23 -321 30l-9 -68c44 -2 100 -5 161 -9v-145h-123v-276h123v-100h-110v-245h291v245h-116v100h129v276h-129v141l85 -5c-10 -32 -23 -64 -37 -91l54 -17
c33 62 62 145 73 199z" />
</svg>
