<?xml version="1.0" standalone="no"?>
<!DOCTYPE svg PUBLIC "-//W3C//DTD SVG 1.1//EN" "http://www.w3.org/Graphics/SVG/1.1/DTD/svg11.dtd" >
<svg xmlns="http://www.w3.org/2000/svg" xmlns:xlink="http://www.w3.org/1999/xlink" version="1.1" viewBox="-10 0 1010 1000">
   <path fill="currentColor"
d="M924 571l-40 -13c8 -39 15 -96 21 -150h-122c-13 62 -30 118 -52 163c-7 -9 -29 -28 -41 -36c41 -86 58 -214 68 -346l52 8c-4 52 -10 104 -18 153h126l8 -3l33 11c-9 73 -22 160 -35 213zM321 541l-99 40v290c0 36 -8 55 -29 66c-20 12 -52 14 -101 14
c-2 -18 -10 -47 -19 -67c32 2 60 2 69 1c10 0 14 -3 14 -14v-265l-94 36l-21 -71c33 -11 72 -25 115 -40v-218h-107v-69h107v-200h66v200h91v69h-91v193l86 -32zM947 158h-540v277c0 151 -12 365 -100 508c-10 -13 -35 -36 -48 -43c79 -134 86 -322 86 -465v-343h602v66z
M539 320l-50 13c-5 -34 -19 -87 -32 -128l47 -12c14 40 29 93 35 127zM689 716h-95v2c0 67 -16 163 -138 230c-9 -15 -28 -35 -42 -47c111 -56 121 -133 121 -184v-1h-88v-271h45v215h49v-251h-107v-58h154c16 -47 34 -116 42 -163l58 15c-16 49 -32 104 -48 148h59v58h-107
v251h52v-215h45v271zM796 452h52c-1 37 -3 75 -6 110c8 97 34 265 123 350c-15 9 -33 26 -43 40c-54 -55 -86 -141 -104 -224c-22 94 -60 173 -128 229c-8 -13 -26 -32 -39 -41c118 -93 138 -272 145 -464z" />
</svg>
