<?xml version="1.0" standalone="no"?>
<!DOCTYPE svg PUBLIC "-//W3C//DTD SVG 1.1//EN" "http://www.w3.org/Graphics/SVG/1.1/DTD/svg11.dtd" >
<svg xmlns="http://www.w3.org/2000/svg" xmlns:xlink="http://www.w3.org/1999/xlink" version="1.1" viewBox="-10 0 1010 1000">
   <path fill="currentColor"
d="M887 77v266h-516v-53h445v-53h-418v-56h418v-50h-443v-54h514zM709 442v92h147v-92h-147zM645 586v-195h277v195h-277zM329 616l-10 -54c34 -5 75 -10 120 -17v-99h-104v-54h274v54h-105v89l106 -15l2 51c-100 17 -203 34 -283 45zM315 534l-90 40v292c0 38 -9 57 -31 69
c-22 11 -57 13 -112 13c-3 -18 -11 -46 -21 -66c38 1 72 1 82 0c12 0 16 -3 16 -15v-266c-33 15 -67 29 -96 40l-23 -70c34 -12 74 -28 119 -46v-212h-107v-69h107v-200h66v200h88v69h-88v185l75 -30zM407 769l46 -41c53 30 115 76 144 112l-48 45
c-29 -35 -89 -84 -142 -116zM956 662v61h-155v151c0 40 -9 57 -39 67c-31 11 -81 11 -157 11c-3 -20 -14 -44 -23 -63c60 2 113 2 127 1c16 -1 20 -5 20 -17v-150h-423v-61h423v-58h72v58h155z" />
</svg>
