<?xml version="1.0" standalone="no"?>
<!DOCTYPE svg PUBLIC "-//W3C//DTD SVG 1.1//EN" "http://www.w3.org/Graphics/SVG/1.1/DTD/svg11.dtd" >
<svg xmlns="http://www.w3.org/2000/svg" xmlns:xlink="http://www.w3.org/1999/xlink" version="1.1" viewBox="-10 0 1010 1000">
   <path fill="currentColor"
d="M429 247v97h-65v-157h108c-11 -31 -34 -74 -58 -106l61 -19c26 32 52 76 62 106l-50 19h131v-144h72v144h128l-40 -15c20 -32 48 -81 61 -114l71 22c-24 38 -49 78 -71 107h110v157h-67v-97h-453zM518 360v87h273v-87h-273zM857 501h-402v-195h402v195zM353 536l-113 39
v294c0 42 -10 62 -34 73c-24 13 -62 15 -125 15c-3 -19 -12 -49 -22 -70c43 1 82 1 93 0c13 0 18 -3 18 -18v-272c-40 13 -78 26 -113 36l-18 -70c36 -10 81 -24 131 -39v-207h-128v-69h128v-205h70v205h107v69h-107v185l104 -33zM954 698v60h-134v122c0 37 -7 55 -35 66
c-25 11 -67 11 -131 11c-4 -19 -13 -44 -23 -63c49 1 89 1 103 1c13 -1 16 -4 16 -15v-122h-3c-94 86 -251 164 -392 200c-8 -17 -21 -40 -35 -55c119 -24 250 -80 340 -145h-255c9 -38 17 -91 23 -136l70 4c-4 23 -9 49 -14 72h266v-90h-364v-57h547v57h-113v90h134z" />
</svg>
