<?xml version="1.0" standalone="no"?>
<!DOCTYPE svg PUBLIC "-//W3C//DTD SVG 1.1//EN" "http://www.w3.org/Graphics/SVG/1.1/DTD/svg11.dtd" >
<svg xmlns="http://www.w3.org/2000/svg" xmlns:xlink="http://www.w3.org/1999/xlink" version="1.1" viewBox="-10 0 1010 1000">
   <path fill="currentColor"
d="M312 470l14 69c-31 13 -63 25 -94 37v288c0 40 -9 60 -32 72c-24 12 -60 15 -118 15c-3 -20 -12 -50 -22 -71c40 1 75 1 86 1c12 0 16 -4 16 -17v-261l-101 39l-21 -72c35 -10 76 -25 122 -43v-214h-110v-69h110v-200h70v200h65v69h-65v189c26 -11 54 -21 80 -32z
M422 646v118c42 -6 87 -13 133 -20v-98h-133zM555 327h-133v100h133v-100zM422 484v106h133v-106h-133zM673 785l-56 10v163h-62v-152c-92 16 -180 31 -252 43l-13 -66c22 -3 46 -6 71 -10v-446h-47v-64h184c18 -32 35 -69 50 -101h-206v-62h240l9 -4l45 15
c-20 48 -44 103 -67 152h92v64h-44v407l53 -9zM862 306h-107c-3 11 -6 23 -8 33c9 96 26 204 59 303c29 -97 46 -210 56 -336zM959 306h-34c-15 168 -39 308 -86 423c32 70 74 132 130 177c-13 11 -34 35 -43 51c-48 -44 -87 -99 -117 -161c-33 62 -73 115 -123 161
c-9 -12 -34 -35 -48 -45c61 -50 105 -115 138 -190c-32 -88 -52 -182 -65 -269c-11 32 -24 64 -39 91c-11 -13 -32 -34 -46 -44c62 -123 92 -316 106 -455l68 11c-8 56 -18 119 -31 183h190v67z" />
</svg>
