<?xml version="1.0" standalone="no"?>
<!DOCTYPE svg PUBLIC "-//W3C//DTD SVG 1.1//EN" "http://www.w3.org/Graphics/SVG/1.1/DTD/svg11.dtd" >
<svg xmlns="http://www.w3.org/2000/svg" xmlns:xlink="http://www.w3.org/1999/xlink" version="1.1" viewBox="-10 0 1010 1000">
   <path fill="currentColor"
d="M821 59l66 27c-36 46 -77 95 -110 127l-50 -22c32 -36 72 -94 94 -132zM530 184l-59 32c-18 -32 -55 -85 -84 -123l58 -28c30 37 68 88 85 119zM597 487v-172c-65 65 -153 124 -230 158c-11 -16 -32 -40 -49 -51c79 -29 169 -84 230 -142h-207v-63h256v-173h73v173h261
v63h-218c63 57 159 110 242 135c-16 13 -38 37 -49 54c-81 -33 -171 -92 -236 -156v174h-73zM316 543l-92 36v287c0 38 -9 57 -32 69c-22 11 -58 13 -115 13c-3 -18 -11 -46 -21 -66c40 1 76 1 86 0c12 0 16 -3 16 -16v-261l-95 37l-21 -71c33 -11 73 -25 116 -41v-217h-106
v-69h106v-200h66v200h78v69h-78v193l79 -29zM591 542l39 13c-42 197 -151 333 -279 402c-7 -14 -25 -36 -40 -47c59 -29 114 -76 159 -137c-22 -20 -52 -44 -77 -61l39 -38c23 14 49 33 70 50c22 -37 40 -78 54 -122h-108c-30 53 -67 99 -107 134c-10 -10 -34 -32 -48 -41
c67 -57 120 -141 149 -233l63 12c-8 24 -16 47 -27 70h101zM857 599v149h96v60h-96v148h-69v-148h-157c10 -50 20 -126 26 -184l64 3c-5 40 -12 83 -19 121h86v-149h-141v-56h141v-75h69v75h82v56h-82z" />
</svg>
