<?xml version="1.0" standalone="no"?>
<!DOCTYPE svg PUBLIC "-//W3C//DTD SVG 1.1//EN" "http://www.w3.org/Graphics/SVG/1.1/DTD/svg11.dtd" >
<svg xmlns="http://www.w3.org/2000/svg" xmlns:xlink="http://www.w3.org/1999/xlink" version="1.1" viewBox="-10 0 1010 1000">
   <path fill="currentColor"
d="M951 227l-55 31c-20 -46 -67 -118 -113 -168l53 -27c46 49 95 119 115 164zM312 520l-86 34v320c0 39 -9 58 -32 70c-23 11 -59 13 -119 13c-3 -18 -12 -46 -21 -66c42 1 79 1 90 0c12 0 17 -4 17 -17v-294c-38 15 -74 28 -107 41l-20 -71c35 -12 79 -28 127 -45v-192
h-116v-69h116v-200h65v200h74v69h-74v167l73 -27zM555 437v-79h-172v79h172zM555 570v-80h-172v80h172zM884 412l56 29c-30 105 -78 208 -137 298c20 84 44 134 73 135c17 1 30 -54 38 -149c11 15 38 31 50 38c-19 153 -54 194 -89 193c-54 -1 -93 -56 -122 -149
c-45 56 -96 104 -151 138c-13 -16 -33 -37 -53 -49c69 -39 130 -99 184 -171c-19 -90 -31 -203 -40 -330l-71 9l-6 -42v264h-113v87h145v65h-145v179h-65v-179h-147v-65h147v-87h-114v-323h114v-86h-127v-64h127v-109h65v109h137v64h-137v86h113v37l73 -10
c-5 -88 -9 -183 -11 -282h66c1 95 4 189 9 275l196 -26l8 64l-200 25c7 98 16 186 27 261c44 -74 78 -154 100 -235z" />
</svg>
