<?xml version="1.0" standalone="no"?>
<!DOCTYPE svg PUBLIC "-//W3C//DTD SVG 1.1//EN" "http://www.w3.org/Graphics/SVG/1.1/DTD/svg11.dtd" >
<svg xmlns="http://www.w3.org/2000/svg" xmlns:xlink="http://www.w3.org/1999/xlink" version="1.1" viewBox="-10 0 1010 1000">
   <path fill="currentColor"
d="M488 259v-73h-152v-62h152v-79h70v79h163v-79h70v79h161v62h-161v73h-70v-73h-163v73h-70zM320 542l-93 36v288c0 38 -9 57 -32 69c-22 11 -58 13 -115 13c-2 -18 -11 -46 -21 -66c40 1 76 1 86 0c12 0 16 -3 16 -16v-262l-98 38l-21 -71c34 -11 75 -26 119 -42v-216
h-109v-69h109v-199h66v199h84v69h-84v192l80 -30zM789 609v-102h-111v102h111zM497 609h111v-102h-111v102zM497 345v99h111v-99h-111zM789 444v-99h-111v99h111zM962 507h-106v102h77v62h-255v86h280v64h-280v137h-70v-137h-301v-64h301v-86h-250v-62h72v-102h-99v-63h99
v-99h-68v-62h568v62h-74v99h106v63z" />
</svg>
