<?xml version="1.0" standalone="no"?>
<!DOCTYPE svg PUBLIC "-//W3C//DTD SVG 1.1//EN" "http://www.w3.org/Graphics/SVG/1.1/DTD/svg11.dtd" >
<svg xmlns="http://www.w3.org/2000/svg" xmlns:xlink="http://www.w3.org/1999/xlink" version="1.1" viewBox="-10 0 1010 1000">
   <path fill="currentColor"
d="M553 264v-82h-160v82h160zM553 398v-82h-160v82h160zM615 128v325h-281v-325h90c7 -29 12 -61 16 -85l71 8c-8 25 -16 52 -24 77h128zM305 548l-85 33v285c0 38 -9 57 -32 69c-22 11 -58 13 -115 13c-3 -18 -12 -46 -21 -66c40 1 75 1 85 0c12 0 17 -3 17 -16v-259
l-91 35l-21 -72c32 -9 70 -23 112 -39v-218h-102v-69h102v-200h66v200h82v69h-82v195l72 -28zM457 668h158s0 18 -1 28c-11 151 -21 210 -41 232c-13 14 -27 20 -48 22c-18 1 -49 2 -82 0c-1 -18 -7 -41 -15 -57c31 3 57 4 69 4c11 0 19 -2 25 -9c10 -13 20 -56 28 -163
h-100c-17 103 -53 181 -134 233c-7 -15 -27 -37 -40 -47c97 -60 118 -163 124 -312h-86v-60h138c-10 -23 -21 -49 -32 -69l61 -15c13 26 29 58 40 84h119v60h-178c-1 24 -3 47 -5 69zM848 313h-116c-1 7 -3 14 -5 21c13 102 33 200 60 287c30 -90 48 -195 61 -308zM955 313
h-49c-16 148 -42 285 -85 397c33 81 76 148 131 193c-16 13 -38 37 -50 56c-46 -44 -84 -102 -116 -171c-35 70 -79 127 -132 168c-11 -17 -31 -39 -49 -52c64 -44 113 -111 150 -196c-27 -80 -48 -169 -64 -266c-11 28 -24 56 -39 79c-10 -11 -34 -36 -48 -47
c63 -102 93 -262 110 -430l63 8c-8 67 -17 132 -30 194h208v67z" />
</svg>
