<?xml version="1.0" standalone="no"?>
<!DOCTYPE svg PUBLIC "-//W3C//DTD SVG 1.1//EN" "http://www.w3.org/Graphics/SVG/1.1/DTD/svg11.dtd" >
<svg xmlns="http://www.w3.org/2000/svg" xmlns:xlink="http://www.w3.org/1999/xlink" version="1.1" viewBox="-10 0 1010 1000">
   <path fill="currentColor"
d="M598 271v115h80v-115h-80zM801 137h-203v82h130v167h73v-249zM543 446v351h-59v-411h56v-306h321v306h58v364c0 31 -5 48 -27 59c-20 11 -51 11 -98 11c-2 -17 -12 -42 -19 -59c33 1 63 1 72 1c9 -1 12 -3 12 -12v-304h-316zM752 658v-110h-93v110h93zM799 505v197h-140
v49h-47v-246h187zM468 226l-52 38c-19 -44 -64 -110 -105 -158l50 -32c41 47 88 111 107 152zM303 548l-93 37v282c0 37 -8 56 -30 68c-21 11 -55 13 -108 13c-2 -18 -11 -46 -20 -66c36 1 67 1 77 0c11 0 15 -3 15 -15v-256l-81 31l-21 -71c29 -10 64 -22 102 -36v-222h-92
v-69h92v-200h66v200h74v69h-74v198l80 -30zM428 356v418c13 11 26 27 45 44c46 39 105 47 194 47c86 0 212 -5 292 -15c-7 18 -17 51 -17 69c-74 5 -211 8 -275 8c-98 0 -158 -13 -206 -53c-28 -28 -51 -57 -65 -57c-25 0 -65 56 -103 121l-45 -60c41 -53 82 -96 119 -112
v-346h-87v-64h148z" />
</svg>
