<?xml version="1.0" standalone="no"?>
<!DOCTYPE svg PUBLIC "-//W3C//DTD SVG 1.1//EN" "http://www.w3.org/Graphics/SVG/1.1/DTD/svg11.dtd" >
<svg xmlns="http://www.w3.org/2000/svg" xmlns:xlink="http://www.w3.org/1999/xlink" version="1.1" viewBox="-10 0 1010 1000">
   <path fill="currentColor"
d="M326 539l-96 38v289c0 38 -9 57 -32 69c-22 11 -58 13 -115 13c-2 -18 -11 -46 -21 -66c40 1 76 1 86 0c12 0 16 -3 16 -16v-263l-101 39l-21 -71c34 -11 76 -26 122 -43v-215h-112v-69h112v-200h66v200h84v44c128 -65 239 -159 299 -252l72 25c-7 11 -15 21 -23 31
c76 69 201 137 303 174c-13 17 -27 48 -33 67c-104 -46 -226 -120 -308 -194c-74 80 -171 152 -274 206c-9 -10 -23 -25 -36 -37v5h-84v191l84 -31zM784 268v60h-298v-60h298zM439 455v131h107v-131h-107zM382 640v-240h223v240h-223zM836 586v-131h-111v131h111zM896 400
v240h-229v-240h229zM467 663l66 13c-8 26 -17 50 -28 74c41 26 88 61 113 87l-40 50c-21 -25 -62 -59 -101 -86c-40 64 -92 118 -150 158c-11 -12 -35 -37 -51 -49c91 -53 159 -140 191 -247zM745 662l68 9c-7 31 -15 60 -26 88c63 40 135 94 173 132l-45 51
c-34 -35 -96 -86 -154 -127c-30 57 -71 105 -122 142c-9 -13 -35 -38 -50 -49c81 -53 135 -139 156 -246z" />
</svg>
