<?xml version="1.0" standalone="no"?>
<!DOCTYPE svg PUBLIC "-//W3C//DTD SVG 1.1//EN" "http://www.w3.org/Graphics/SVG/1.1/DTD/svg11.dtd" >
<svg xmlns="http://www.w3.org/2000/svg" xmlns:xlink="http://www.w3.org/1999/xlink" version="1.1" viewBox="-10 0 1010 1000">
   <path fill="currentColor"
d="M493 198l-60 22c-11 -37 -41 -94 -71 -136l56 -18c30 40 63 96 75 132zM336 536l-103 33v304c0 39 -9 58 -33 71c-22 11 -60 14 -118 13c-3 -18 -13 -48 -22 -68c41 1 78 1 88 1c12 0 17 -4 17 -18v-280l-112 36l-18 -72c36 -9 81 -23 130 -39v-204h-120v-69h120v-200h68
v200h82v69h-82v184l92 -29zM869 59l68 18c-30 52 -64 107 -93 144l-53 -17c26 -39 60 -102 78 -145zM774 285h-265c21 31 40 72 48 99l-32 7h209l-13 -4c18 -28 38 -69 53 -102zM952 714h-228c60 66 152 125 239 154c-16 14 -36 40 -48 58c-86 -36 -176 -103 -240 -180v211
h-71v-224c-66 83 -167 158 -260 198c-12 -17 -33 -43 -48 -56c88 -31 183 -93 244 -161h-224v-63h288v-72h-237v-57h237v-70h-264v-61h147c-9 -29 -29 -70 -47 -100l37 -6h-149v-63h213v-178h62v178h75v-178h63v178h209v63h-95c-20 37 -44 76 -64 106h149v61h-265v70h233v57
h-233v72h277v63z" />
</svg>
