<?xml version="1.0" standalone="no"?>
<!DOCTYPE svg PUBLIC "-//W3C//DTD SVG 1.1//EN" "http://www.w3.org/Graphics/SVG/1.1/DTD/svg11.dtd" >
<svg xmlns="http://www.w3.org/2000/svg" xmlns:xlink="http://www.w3.org/1999/xlink" version="1.1" viewBox="-10 0 1010 1000">
   <path fill="currentColor"
d="M397 272v-66h-80v-64h80v-98h61v98h89v-98h61v98h74v64h-74v80h-61v-80h-89v66h-61zM859 318h-104c-2 7 -3 14 -5 21c10 92 27 196 57 296c28 -93 44 -198 52 -317zM475 564h-77v142h77v-142zM958 318h-37c-12 157 -36 295 -79 411c31 69 70 132 122 178
c-14 12 -36 37 -46 54c-44 -44 -81 -99 -109 -159c-32 63 -73 117 -125 161c-11 -13 -33 -36 -49 -46c61 -52 107 -118 142 -195c-32 -87 -52 -180 -64 -265c-12 29 -24 56 -38 80c-7 -8 -21 -24 -34 -37c-9 291 -20 391 -43 425c-16 21 -33 28 -58 31c-23 2 -61 2 -99 0
c-1 -18 -7 -43 -17 -59c40 3 76 3 90 3c15 0 23 -2 30 -14c20 -25 29 -139 38 -459h-179c-12 28 -25 55 -39 78h162v260h-128v60h-51v-293c-6 7 -11 15 -17 22c-4 -5 -13 -12 -23 -18l-78 29v309c0 39 -9 58 -32 70c-23 11 -58 13 -117 13c-3 -18 -12 -46 -21 -66
c41 1 77 1 88 0c12 0 17 -4 17 -17v-286c-38 13 -74 26 -108 37l-19 -71c35 -11 79 -24 127 -41v-200h-116v-69h116v-200h65v200h95v69h-95v178l76 -26l2 11c35 -57 63 -129 79 -203l64 12c-7 27 -14 54 -22 79h216v32l-2 57c50 -107 77 -258 92 -410l67 10
c-8 67 -19 135 -31 199h188v66z" />
</svg>
