<?xml version="1.0" standalone="no"?>
<!DOCTYPE svg PUBLIC "-//W3C//DTD SVG 1.1//EN" "http://www.w3.org/Graphics/SVG/1.1/DTD/svg11.dtd" >
<svg xmlns="http://www.w3.org/2000/svg" xmlns:xlink="http://www.w3.org/1999/xlink" version="1.1" viewBox="-10 0 1010 1000">
   <path fill="currentColor"
d="M771 441v-82h-105v82h105zM771 576v-85h-105v85h105zM771 720v-94h-105v94h105zM666 834h-59v-398c-10 17 -21 32 -30 47c-9 -11 -33 -31 -46 -41c52 -67 99 -167 127 -266l54 17c-11 36 -25 74 -39 109h256v57h-101v82h89v50h-89v85h89v50h-89v94h108v55h-270v59z
M551 470l-42 44c-20 -25 -63 -59 -99 -83l41 -39c35 21 80 53 100 78zM568 286l-41 46c-20 -26 -63 -62 -100 -85l39 -41c38 21 81 55 102 80zM527 581l45 38c-30 66 -67 142 -100 203l-53 -39c31 -50 73 -131 108 -202zM743 198l47 -21c24 31 49 72 58 99l-50 24
c-9 -27 -33 -71 -55 -102zM304 453l13 67l-90 35v311c0 39 -9 58 -33 70c-22 11 -59 14 -119 13c-4 -18 -12 -46 -22 -66c42 1 80 1 91 0c13 0 17 -4 17 -17v-286c-35 13 -69 27 -99 39l-20 -70c34 -11 74 -25 119 -42v-194h-108v-69h108v-200h66v200h77v69h-77v169z
M403 861h547v61h-611v-834h592v59h-528v714z" />
</svg>
