<?xml version="1.0" standalone="no"?>
<!DOCTYPE svg PUBLIC "-//W3C//DTD SVG 1.1//EN" "http://www.w3.org/Graphics/SVG/1.1/DTD/svg11.dtd" >
<svg xmlns="http://www.w3.org/2000/svg" xmlns:xlink="http://www.w3.org/1999/xlink" version="1.1" viewBox="-10 0 1010 1000">
   <path fill="currentColor"
d="M944 169l-1 63h-317v-63h136c-6 -35 -17 -78 -28 -114l62 -8c14 39 28 88 34 122h114zM751 395l-57 19c-4 -38 -20 -101 -37 -148l54 -14c18 47 35 106 40 143zM296 478l14 67c-29 11 -59 23 -88 35v286c0 38 -9 57 -32 69c-22 11 -57 13 -112 13c-4 -18 -12 -46 -22 -66
c39 1 74 1 84 0c11 0 16 -3 16 -16v-260l-93 36l-21 -72c32 -10 71 -24 114 -40v-217h-107v-69h107v-200h66v200h79v69h-79v193zM546 584h-104v225h104v-225zM533 161h-128v170h128v-170zM603 524v344h-161v74h-55v-332c-14 90 -37 180 -76 254c-9 -14 -35 -37 -47 -46
c72 -140 79 -332 79 -470v-247h249v290h-187c-1 41 -3 86 -8 133h206zM953 502h-130v132h120v63h-120v259h-69v-259h-115v-63h115v-132h-136v-64h178c24 -54 51 -135 64 -191l68 18c-22 56 -47 123 -70 173h95v64z" />
</svg>
