<?xml version="1.0" standalone="no"?>
<!DOCTYPE svg PUBLIC "-//W3C//DTD SVG 1.1//EN" "http://www.w3.org/Graphics/SVG/1.1/DTD/svg11.dtd" >
<svg xmlns="http://www.w3.org/2000/svg" xmlns:xlink="http://www.w3.org/1999/xlink" version="1.1" viewBox="-10 0 1010 1000">
   <path fill="currentColor"
d="M433 187v436h-61v-494h173c16 -29 32 -65 40 -90l78 18c-15 25 -30 49 -44 72h294v494h-63v-436h-417zM812 541l-40 31c-19 -34 -58 -90 -92 -129l38 -26c35 38 74 91 94 124zM832 365v52h-164v153h-55v-144c-30 58 -78 124 -125 162c-7 -14 -22 -35 -34 -46
c38 -27 80 -76 109 -125h-107v-52h157v-148h55v148h164zM472 250l45 -22c29 31 57 72 67 102l-48 24c-10 -30 -36 -74 -64 -104zM754 227l52 23c-24 35 -49 75 -70 101l-40 -19c20 -29 45 -75 58 -105zM321 483l9 68c-31 11 -62 21 -93 31v282c0 41 -9 60 -34 72
c-24 12 -62 15 -125 14c-2 -18 -12 -48 -21 -69c43 1 82 1 93 1c13 0 18 -4 18 -19v-259l-117 39l-19 -72c38 -9 85 -24 136 -40v-218h-123v-69h123v-200h69v200h93v69h-93v197zM952 726h-262c47 90 143 146 278 168c-16 15 -34 42 -44 61c-141 -31 -237 -98 -293 -203
c-44 103 -131 168 -317 207c-6 -17 -23 -44 -35 -58c174 -32 253 -87 292 -175h-243v-61h261c5 -23 9 -49 12 -76h67c-3 27 -7 53 -12 76h296v61z" />
</svg>
