<?xml version="1.0" standalone="no"?>
<!DOCTYPE svg PUBLIC "-//W3C//DTD SVG 1.1//EN" "http://www.w3.org/Graphics/SVG/1.1/DTD/svg11.dtd" >
<svg xmlns="http://www.w3.org/2000/svg" xmlns:xlink="http://www.w3.org/1999/xlink" version="1.1" viewBox="-10 0 1010 1000">
   <path fill="currentColor"
d="M536 700v59h404v53h-404v68c0 39 -10 55 -40 65c-32 9 -82 9 -162 9c-5 -18 -16 -41 -25 -57c59 2 117 1 132 0c16 -1 22 -5 22 -18v-67h-400v-53h400v-59h-339v-52h339v-56c-97 5 -196 7 -287 7c-1 -13 -7 -34 -13 -46c209 -2 469 -14 605 -35l47 42
c-76 13 -174 21 -279 28v60h348v52h-348zM405 321v-67h-251v67h251zM281 440v-69h-127v69h127zM281 140h-127v62h127v-62zM344 202h125v169h-125v69h136v53h-392v-406h392v53h-136v62zM810 315v128h64v-128h-64zM764 443v-128h-64v128h64zM654 443v-128h-61v128h61zM631 117
h320v55h-211c35 23 70 51 90 72l-34 23h136v225h-395v-225h224c-25 -25 -64 -57 -99 -79l26 -16h-85c-25 42 -53 80 -83 110c-9 -11 -36 -30 -52 -39c55 -50 100 -124 126 -200l62 14c-7 21 -16 40 -25 60z" />
</svg>
