<?xml version="1.0" standalone="no"?>
<!DOCTYPE svg PUBLIC "-//W3C//DTD SVG 1.1//EN" "http://www.w3.org/Graphics/SVG/1.1/DTD/svg11.dtd" >
<svg xmlns="http://www.w3.org/2000/svg" xmlns:xlink="http://www.w3.org/1999/xlink" version="1.1" viewBox="-10 0 1010 1000">
   <path fill="currentColor"
d="M662 384v-48h-157v48h157zM662 478v-51h-157v51h157zM662 574v-52h-157v52h157zM473 204l41 12v-50h-152v-59h152v-63h71v63h147v-63h70v63h143v59h-143v53h-70v-53h-147v53h-59l11 3c-8 21 -18 44 -29 65h146c-12 -22 -27 -46 -41 -65l55 -21c22 25 43 61 56 86h184v49
h-178v48h159v43h-159v51h159v44h-159v52h201v50h-426v29h-68v-249c-18 22 -35 42 -54 60c-6 -13 -27 -44 -41 -58c55 -49 104 -125 131 -202zM348 546l-109 37v281c0 41 -9 60 -34 72c-23 12 -61 15 -124 14c-3 -18 -12 -48 -22 -69c43 1 83 1 94 1c12 0 17 -4 17 -19v-258
c-43 14 -83 27 -119 38l-19 -71c38 -11 85 -26 138 -41v-218h-124v-69h124v-200h69v200h107v69h-107v196l99 -31zM785 723h-242c29 33 70 62 118 88c49 -25 92 -54 124 -88zM847 665l46 23c-36 63 -93 114 -161 154c69 25 147 45 227 56c-17 15 -35 41 -45 59
c-90 -16 -178 -41 -254 -79c-85 38 -181 64 -278 80c-6 -18 -21 -45 -34 -60c83 -11 168 -30 244 -57c-49 -31 -92 -66 -123 -107l34 -11h-117v-55h448z" />
</svg>
