<?xml version="1.0" standalone="no"?>
<!DOCTYPE svg PUBLIC "-//W3C//DTD SVG 1.1//EN" "http://www.w3.org/Graphics/SVG/1.1/DTD/svg11.dtd" >
<svg xmlns="http://www.w3.org/2000/svg" xmlns:xlink="http://www.w3.org/1999/xlink" version="1.1" viewBox="-10 0 1010 1000">
   <path fill="currentColor"
d="M931 221l-54 34c-17 -41 -60 -105 -101 -150l52 -29c41 43 86 104 103 145zM431 730v67h94v-67h-94zM525 566v-64h-94v64h94zM525 681v-65h-94v65h94zM861 408l64 13c-27 109 -64 214 -113 309c23 99 50 157 76 157c15 0 24 -40 28 -133c13 13 33 26 48 33
c-11 120 -30 162 -84 162c-46 0 -83 -54 -111 -144c-38 59 -81 111 -130 153c-11 -13 -33 -30 -49 -40c23 -18 44 -39 64 -62h-223v49h-60v-339c-12 17 -24 31 -37 45c-9 -11 -31 -33 -44 -43c7 -7 13 -14 19 -22l-82 33v288c0 37 -9 56 -32 68c-22 11 -58 13 -115 13
c-2 -18 -11 -46 -21 -66c40 1 76 1 86 0c12 0 16 -3 16 -15v-263l-98 38l-21 -71c34 -11 75 -26 119 -41v-217h-109v-69h109v-200h66v200h84v68h-84v193l80 -31l12 61c42 -52 79 -119 103 -188l57 16c-9 27 -21 55 -34 81h88c-10 -22 -23 -45 -36 -65l54 -18
c18 25 37 57 49 83h75v58h-90v64h81v50h-81v65h81v49h-81v67h90v32c27 -33 50 -70 71 -111c-22 -101 -37 -232 -47 -377h-367v-60h154v-86h-121v-58h121v-93h64v93h113v58h-113v86h145c-4 -76 -7 -156 -8 -236h64c0 82 2 162 6 236h198v60h-195c7 107 19 203 31 284
c30 -70 53 -144 70 -217z" />
</svg>
