<?xml version="1.0" standalone="no"?>
<!DOCTYPE svg PUBLIC "-//W3C//DTD SVG 1.1//EN" "http://www.w3.org/Graphics/SVG/1.1/DTD/svg11.dtd" >
<svg xmlns="http://www.w3.org/2000/svg" xmlns:xlink="http://www.w3.org/1999/xlink" version="1.1" viewBox="-10 0 1010 1000">
   <path fill="currentColor"
d="M335 547l-103 35v282c0 41 -9 60 -33 72c-23 12 -59 15 -120 14c-2 -18 -12 -48 -21 -69c42 1 79 1 89 1c13 0 18 -4 18 -19v-258c-41 14 -80 26 -115 38l-18 -71c37 -11 83 -25 133 -42v-217h-121v-69h121v-200h67v200h100v69h-100v196l93 -30zM621 327v74h127v-74h-127
zM843 562h-130v74h130v-74zM843 759v-78h-130v78h130zM530 681v78h121v-78h-121zM530 562v74h121v-74h-121zM959 457h-246v56h194v294h-133c66 33 141 76 184 110l-54 43c-41 -35 -114 -80 -180 -116l38 -37h-170l50 21c-53 50 -140 101 -212 131c-11 -14 -35 -41 -49 -54
c68 -24 145 -60 194 -98h-107v-294h183v-56h-221c-4 154 -26 352 -120 491c-12 -13 -40 -30 -56 -37c101 -145 111 -349 111 -499v-277h275c-15 -26 -37 -55 -56 -76l58 -29c32 32 62 75 80 105h232v61h-524v205h128v-74h-88v-54h88v-62h63v62h127v-61h63v61h102v54h-102v74
h148v56z" />
</svg>
