<?xml version="1.0" standalone="no"?>
<!DOCTYPE svg PUBLIC "-//W3C//DTD SVG 1.1//EN" "http://www.w3.org/Graphics/SVG/1.1/DTD/svg11.dtd" >
<svg xmlns="http://www.w3.org/2000/svg" xmlns:xlink="http://www.w3.org/1999/xlink" version="1.1" viewBox="-10 0 1010 1000">
   <path fill="currentColor"
d="M627 363l-35 45c-20 -17 -55 -43 -87 -67c-24 47 -65 92 -131 127c-9 -14 -28 -35 -43 -47c77 -36 114 -86 130 -137h-98v-54h110c2 -15 2 -30 2 -44v-18h-100v-53h100v-71h63v71h91v53h-91v18c0 14 -1 29 -2 44h97v54h-107l-1 7c36 24 79 53 102 72zM348 533l-109 36
v301c0 41 -9 61 -34 73c-24 11 -62 14 -124 13c-3 -17 -12 -48 -22 -68c43 1 82 1 94 0c12 0 17 -3 17 -18v-279l-119 39l-19 -72c38 -10 86 -25 138 -41v-205h-125v-68h125v-200h69v200h107v68h-107v184c33 -10 66 -21 99 -32zM489 700v58h325v-58h-325zM489 594v58h325
v-58h-325zM489 490v56h325v-56h-325zM884 808h-131c73 36 154 76 205 105l-58 44c-49 -30 -130 -75 -204 -112l41 -37h-206l58 35c-59 46 -155 90 -236 113c-11 -13 -31 -36 -46 -49c78 -20 169 -62 215 -99h-100v-368h238c-9 -14 -26 -32 -38 -42c63 -30 97 -72 114 -114
h-86v-54h100c3 -19 4 -37 4 -53v-9h-93v-53h93v-71h63v71h117v53h-117v9c0 17 -1 35 -3 53h137v54h-116c31 54 79 106 130 131c-14 12 -34 34 -44 48c-50 -31 -99 -89 -131 -149c-21 46 -57 90 -120 126h214v368z" />
</svg>
