<?xml version="1.0" standalone="no"?>
<!DOCTYPE svg PUBLIC "-//W3C//DTD SVG 1.1//EN" "http://www.w3.org/Graphics/SVG/1.1/DTD/svg11.dtd" >
<svg xmlns="http://www.w3.org/2000/svg" xmlns:xlink="http://www.w3.org/1999/xlink" version="1.1" viewBox="-10 0 1010 1000">
   <path fill="currentColor"
d="M338 522l-103 35v312c0 39 -9 59 -32 71c-22 12 -58 14 -111 14c-3 -19 -12 -50 -22 -70c37 2 70 2 81 1c11 0 15 -3 15 -16v-289l-106 34l-19 -72c35 -10 78 -22 125 -36v-193h-112v-69h112v-200h69v200h95v69h-95v171l94 -30zM465 798v59h184v-59h-184zM649 645v-53
h-184v53h184zM649 750v-57h-184v57h184zM715 798v59h223v56h-473v44h-66v-306c-25 29 -53 56 -78 78c-11 -11 -35 -34 -49 -44c72 -55 146 -140 190 -225l59 18c-11 20 -23 40 -35 60h168c-9 -21 -19 -43 -30 -62l59 -21c18 25 35 57 43 83h198v54h-209v53h195v48h-195v57
h195v48h-195zM409 442v-49h179v49h-179zM588 295v48h-151v-48h151zM715 441v-49h184v49h-184zM715 295h152v48h-152v-48zM683 189h268v152h-65v-97h-203v200h-64v-200h-196v97h-63v-152h259v-55h-207v-55h483v55h-212v55z" />
</svg>
