<?xml version="1.0" standalone="no"?>
<!DOCTYPE svg PUBLIC "-//W3C//DTD SVG 1.1//EN" "http://www.w3.org/Graphics/SVG/1.1/DTD/svg11.dtd" >
<svg xmlns="http://www.w3.org/2000/svg" xmlns:xlink="http://www.w3.org/1999/xlink" version="1.1" viewBox="-10 0 1010 1000">
   <path fill="currentColor"
d="M666 663v83h244v61h-244v145h-67v-145h-247v-61h247v-83h-152v-61h152v-88h67v88h149v61h-149zM943 489h-144c46 62 113 122 172 153c-15 13 -35 36 -47 52c-66 -45 -143 -126 -189 -205h-212c-48 83 -126 163 -198 206c-10 -15 -30 -38 -45 -50c62 -32 127 -92 173 -156
h-123l8 52l-102 34v289c0 40 -9 59 -33 71s-61 14 -124 14c-2 -19 -11 -48 -21 -68c43 2 82 2 93 1c14 0 18 -4 18 -18v-266c-41 14 -79 27 -115 37l-19 -71c37 -11 83 -25 134 -41v-210h-123v-69h123v-200h67v200h98v69h-98v190l91 -30v-43h52l-12 -313
c36 -15 93 -47 123 -67l38 46c-32 19 -69 35 -103 48l3 60h89v50h-87l3 66h88v50h-86l2 60h123v-115h50v115h61v-147h-111v-231h51v63h113v49h-113v70h110v196h103c2 -21 3 -45 5 -70h-85v-50h87l3 -62h-86v-49h87c1 -22 1 -46 2 -67h-98v-50h156c-2 111 -7 257 -15 348h63
v59z" />
</svg>
