<?xml version="1.0" standalone="no"?>
<!DOCTYPE svg PUBLIC "-//W3C//DTD SVG 1.1//EN" "http://www.w3.org/Graphics/SVG/1.1/DTD/svg11.dtd" >
<svg xmlns="http://www.w3.org/2000/svg" xmlns:xlink="http://www.w3.org/1999/xlink" version="1.1" viewBox="-10 0 1010 1000">
   <path fill="currentColor"
d="M549 107l30 -31c19 9 38 20 57 31c13 -13 22 -29 31 -45l47 11c-10 21 -23 41 -39 60c20 12 37 26 50 37l-32 35c-12 -11 -30 -24 -48 -38c-21 21 -43 39 -65 54c-8 -9 -26 -26 -38 -33c22 -14 43 -30 63 -47c-19 -12 -39 -24 -56 -34zM334 533l-96 34v294
c0 41 -9 61 -34 73c-24 12 -62 14 -125 14c-2 -19 -12 -49 -21 -70c43 2 82 2 93 2c13 -1 18 -5 18 -19v-270c-38 14 -75 27 -108 37l-19 -71c35 -10 79 -24 127 -40v-204h-121v-69h121v-201h69v201h88v69h-88v181l85 -30l5 32v-121h66l-10 -280c45 -11 101 -28 134 -46
l36 46c-30 13 -69 26 -105 34l1 42h84v46h-82l2 56h83v46h-81l2 56h112c-8 -9 -24 -23 -34 -29c24 -15 46 -32 67 -50c-19 -13 -38 -25 -56 -36l32 -31c18 10 38 22 56 33c14 -15 25 -32 34 -50l46 12c-10 23 -25 44 -42 65c23 15 43 31 57 45l-32 36
c-14 -14 -34 -29 -56 -46c-21 19 -41 36 -63 51h247c2 -17 3 -34 4 -53h-92v-46h95l3 -55h-95v-46h97l1 -56h-99v-46h161c-2 96 -8 220 -14 302h53v157h-59v-103h-495v103h-52v1zM484 690v48h297v-48h-297zM484 604v46h297v-46h-297zM484 519v46h297v-46h-297zM776 895h97
c23 0 28 -9 31 -83c13 10 38 19 55 22c-6 92 -24 115 -79 115h-111c-72 0 -90 -16 -90 -76v-91h-88c-22 97 -82 147 -234 178c-7 -16 -23 -39 -36 -51c132 -21 182 -57 200 -127h-102v-307h430v307h-105v90c0 20 4 23 32 23z" />
</svg>
