<?xml version="1.0" standalone="no"?>
<!DOCTYPE svg PUBLIC "-//W3C//DTD SVG 1.1//EN" "http://www.w3.org/Graphics/SVG/1.1/DTD/svg11.dtd" >
<svg xmlns="http://www.w3.org/2000/svg" xmlns:xlink="http://www.w3.org/1999/xlink" version="1.1" viewBox="-10 0 1010 1000">
   <path fill="currentColor"
d="M728 495h-440c50 94 122 172 216 233c95 -60 172 -136 224 -233zM785 419l51 32c-57 136 -148 239 -263 317c109 56 238 94 387 112c-16 18 -36 50 -46 72c-161 -25 -300 -70 -413 -138c-124 69 -269 114 -420 143c-7 -20 -27 -54 -41 -71c142 -23 277 -60 393 -118
c-95 -69 -169 -157 -223 -265l22 -8h-106v-73h334v-153h-379v-73h379v-152h76v152h381v73h-381v153h234z" />
</svg>
