<?xml version="1.0" standalone="no"?>
<!DOCTYPE svg PUBLIC "-//W3C//DTD SVG 1.1//EN" "http://www.w3.org/Graphics/SVG/1.1/DTD/svg11.dtd" >
<svg xmlns="http://www.w3.org/2000/svg" xmlns:xlink="http://www.w3.org/1999/xlink" version="1.1" viewBox="-10 0 1010 1000">
   <path fill="currentColor"
d="M236 49l69 19c-22 68 -49 136 -79 201v688h-71v-557c-29 49 -62 94 -94 132c-6 -17 -27 -58 -40 -77c87 -100 167 -252 215 -406zM560 305l-2 3c24 111 61 225 123 327c57 -90 97 -200 124 -330h-245zM953 305h-73c-33 160 -83 290 -156 395c63 82 144 152 252 198
c-16 15 -38 43 -50 63c-104 -50 -184 -120 -247 -202c-70 83 -161 149 -272 200c-9 -16 -36 -47 -50 -61c118 -48 209 -114 280 -201c-58 -91 -96 -192 -122 -292c-23 46 -48 87 -76 123c-10 -10 -28 -30 -44 -44v279h-71v-569h71v268c77 -104 136 -259 170 -419l70 14
c-14 60 -31 121 -50 178h368v70z" />
</svg>
