<?xml version="1.0" standalone="no"?>
<!DOCTYPE svg PUBLIC "-//W3C//DTD SVG 1.1//EN" "http://www.w3.org/Graphics/SVG/1.1/DTD/svg11.dtd" >
<svg xmlns="http://www.w3.org/2000/svg" xmlns:xlink="http://www.w3.org/1999/xlink" version="1.1" viewBox="-10 0 1010 1000">
   <path fill="currentColor"
d="M604 296l-2 5c22 120 55 233 103 328c52 -91 88 -201 111 -333h-212zM144 757h216v-210h-216v210zM360 281h-216v198h216v-198zM956 296h-64c-31 164 -76 298 -145 406c55 85 125 152 214 194c-17 13 -41 42 -52 62c-85 -45 -154 -109 -209 -192
c-66 81 -151 144 -259 194c-8 -16 -30 -51 -45 -66c114 -47 200 -111 264 -196c-45 -85 -78 -185 -104 -293c-23 46 -50 88 -78 123c-10 -12 -31 -31 -48 -45v392h-70v-48h-216v74h-68v-690h118c17 -51 34 -119 43 -168l82 13c-18 51 -39 109 -57 155h168v251
c81 -102 136 -257 169 -419l74 13c-13 59 -27 116 -44 170h327v70z" />
</svg>
