<?xml version="1.0" standalone="no"?>
<!DOCTYPE svg PUBLIC "-//W3C//DTD SVG 1.1//EN" "http://www.w3.org/Graphics/SVG/1.1/DTD/svg11.dtd" >
<svg xmlns="http://www.w3.org/2000/svg" xmlns:xlink="http://www.w3.org/1999/xlink" version="1.1" viewBox="-10 0 1010 1000">
   <path fill="currentColor"
d="M659 296l-9 26c22 106 52 207 93 295c38 -92 65 -200 82 -321h-166zM167 512h146c-4 -45 -7 -94 -8 -147h-138v147zM438 147h-271v152h271v-152zM955 296h-66c-19 152 -53 288 -105 399c49 83 109 149 182 192c-17 15 -43 44 -55 65c-66 -44 -121 -107 -167 -181
c-48 78 -108 141 -182 185c-7 -21 -24 -52 -39 -68c-12 19 -29 26 -52 26c-74 -1 -126 -116 -151 -335h-153v266l160 -44c-1 21 2 51 5 67c-183 57 -212 69 -229 81c-8 -17 -28 -52 -39 -68c13 -10 31 -35 31 -77v-723h412v284h-133c1 54 3 103 6 147h154v67h-148
c19 178 58 265 91 265c14 0 21 -22 24 -100c13 13 30 25 45 32c-4 55 -11 90 -23 110c75 -41 135 -106 181 -188c-39 -82 -71 -176 -96 -276c-14 27 -29 53 -45 75c-11 -12 -40 -40 -58 -53c70 -95 112 -243 134 -400l76 12c-10 58 -22 116 -36 171h276v69z" />
</svg>
