<?xml version="1.0" standalone="no"?>
<!DOCTYPE svg PUBLIC "-//W3C//DTD SVG 1.1//EN" "http://www.w3.org/Graphics/SVG/1.1/DTD/svg11.dtd" >
<svg xmlns="http://www.w3.org/2000/svg" xmlns:xlink="http://www.w3.org/1999/xlink" version="1.1" viewBox="-10 0 1010 1000">
   <path fill="currentColor"
d="M393 661h-226v182h226v-182zM97 956v-360h369v353h-73v-42h-226v49h-70zM818 300h-174c-4 11 -7 23 -11 34c23 104 55 203 99 290c42 -91 69 -198 86 -324zM373 317h-117c-9 51 -18 99 -26 140h143v-140zM957 300h-63c-24 160 -60 292 -119 400c54 85 122 152 203 195
c-16 14 -40 43 -53 62c-77 -45 -141 -109 -193 -189c-55 77 -124 139 -214 189c-8 -16 -31 -50 -45 -64c94 -48 165 -113 217 -194c-41 -77 -73 -165 -99 -260c-16 36 -34 68 -54 97c-7 -8 -21 -22 -34 -33v19h-460v-65h115c10 -41 19 -90 28 -140h-101v-64h112
c6 -36 11 -72 16 -106h-148v-65h431v65h-212c-5 34 -11 70 -17 106h174v204h55c65 -104 106 -257 128 -413l75 14c-10 59 -21 117 -36 173h294v69z" />
</svg>
