<?xml version="1.0" standalone="no"?>
<!DOCTYPE svg PUBLIC "-//W3C//DTD SVG 1.1//EN" "http://www.w3.org/Graphics/SVG/1.1/DTD/svg11.dtd" >
<svg xmlns="http://www.w3.org/2000/svg" xmlns:xlink="http://www.w3.org/1999/xlink" version="1.1" viewBox="-10 0 1010 1000">
   <path fill="currentColor"
d="M145 378v147h103v-147h-103zM405 525v-147h-94v147h94zM316 584v21c40 29 150 121 177 146l-43 58c-25 -31 -87 -93 -134 -138v283h-73v-262c-45 79 -101 152 -157 197c-11 -17 -33 -40 -49 -52c75 -52 149 -152 194 -253h-150v-266h163v-91h-193v-67h193v-115h73v115
h187v67h-187v91h155v266h-156zM651 298l-2 6c19 113 46 218 86 309c40 -88 66 -192 83 -315h-167zM953 298h-64c-23 158 -58 288 -116 394c49 87 112 156 192 199c-17 13 -39 40 -49 59c-76 -46 -136 -110 -184 -191c-58 82 -133 147 -230 199c-6 -16 -28 -48 -42 -62
c103 -50 179 -119 234 -207c-38 -80 -66 -174 -89 -275c-18 41 -40 77 -62 109c-11 -13 -43 -37 -59 -48c78 -101 127 -263 155 -432l72 12c-11 59 -23 117 -39 173h281v70z" />
</svg>
