<?xml version="1.0" standalone="no"?>
<!DOCTYPE svg PUBLIC "-//W3C//DTD SVG 1.1//EN" "http://www.w3.org/Graphics/SVG/1.1/DTD/svg11.dtd" >
<svg xmlns="http://www.w3.org/2000/svg" xmlns:xlink="http://www.w3.org/1999/xlink" version="1.1" viewBox="-10 0 1010 1000">
   <path fill="currentColor"
d="M129 600l65 13c-22 94 -61 189 -104 251c-13 -10 -41 -27 -57 -35c44 -58 77 -144 96 -229zM815 298h-185c21 118 50 227 92 322c46 -90 74 -196 93 -322zM957 298h-66c-25 162 -65 293 -127 401c51 85 116 153 199 195c-17 15 -41 43 -52 64
c-79 -45 -142 -110 -192 -191c-60 78 -136 142 -234 192c-8 -17 -30 -51 -44 -66c103 -49 181 -114 237 -198c-41 -84 -71 -181 -95 -289c-18 39 -38 75 -58 107c-5 -6 -14 -14 -23 -22v58h-180v327c0 39 -9 57 -35 69c-25 11 -65 12 -131 12c-3 -19 -14 -46 -23 -65
c46 1 89 1 101 0c13 0 18 -4 18 -16v-327h-191v-66h191v-104h-121v-50c-24 21 -46 40 -70 58c-5 -17 -22 -55 -33 -73c96 -64 197 -167 256 -275l59 25c-6 12 -13 24 -21 35c81 53 162 117 213 167l-43 58c-49 -51 -129 -116 -205 -170c-41 58 -90 113 -139 160h304v65h-130
v104h171c-10 -9 -21 -17 -28 -22c71 -102 123 -259 154 -418l73 14c-12 58 -26 117 -43 172h308v69zM520 795l-65 27c-13 -53 -48 -141 -84 -206l59 -22c38 64 76 149 90 201z" />
</svg>
