<?xml version="1.0" standalone="no"?>
<!DOCTYPE svg PUBLIC "-//W3C//DTD SVG 1.1//EN" "http://www.w3.org/Graphics/SVG/1.1/DTD/svg11.dtd" >
<svg xmlns="http://www.w3.org/2000/svg" xmlns:xlink="http://www.w3.org/1999/xlink" version="1.1" viewBox="-10 0 1010 1000">
   <path fill="currentColor"
d="M643 298c19 115 48 223 88 317c42 -88 68 -193 87 -317h-175zM957 298h-63c-24 161 -62 292 -122 399c49 86 113 155 193 197c-18 15 -41 43 -52 64c-76 -45 -138 -111 -187 -192c-59 79 -134 143 -232 194c-8 -18 -30 -51 -45 -67c104 -49 181 -115 238 -201
c-39 -81 -68 -174 -91 -277c-19 44 -43 83 -67 117c-11 -11 -35 -33 -54 -46c-41 47 -98 95 -151 131v48c68 -7 139 -13 209 -21v64l-209 23v147c0 38 -7 56 -35 67c-27 11 -70 11 -134 11c-3 -20 -13 -45 -23 -65c49 2 92 1 105 1c13 -1 17 -4 17 -15v-138
c-75 8 -145 16 -203 22l-9 -68c58 -5 132 -12 212 -21v-72l-1 -1c38 -23 81 -57 114 -89h-105c-53 49 -111 91 -172 127c-11 -14 -38 -42 -52 -55c40 -21 77 -46 113 -72h-25v-60h98c26 -23 49 -48 72 -73h-252v-66h173v-99h-131v-64h131v-105h69v105h124v64h-124v99h63
c53 -74 98 -155 131 -244l70 19c-33 82 -72 156 -117 225h92v66h-139c-21 25 -41 50 -63 73h103l14 -4l35 26c76 -104 127 -263 156 -429l74 12c-11 60 -24 118 -40 173h292v70z" />
</svg>
