<?xml version="1.0" standalone="no"?>
<!DOCTYPE svg PUBLIC "-//W3C//DTD SVG 1.1//EN" "http://www.w3.org/Graphics/SVG/1.1/DTD/svg11.dtd" >
<svg xmlns="http://www.w3.org/2000/svg" xmlns:xlink="http://www.w3.org/1999/xlink" version="1.1" viewBox="-10 0 1010 1000">
   <path fill="currentColor"
d="M524 254l-46 49c-40 -46 -121 -114 -194 -166c-57 79 -130 149 -209 197c-10 -17 -28 -38 -43 -52c100 -55 197 -153 249 -255l57 22c-7 12 -14 25 -20 38c74 49 163 117 206 167zM439 366l47 27c-41 57 -92 118 -139 172l-56 -30c27 -31 58 -68 83 -100h-287v-65h341z
M532 807l-57 24c-11 -48 -40 -124 -63 -182l53 -19c26 56 54 130 67 177zM196 567l43 -36c43 33 102 81 132 112l-44 42c-28 -32 -86 -82 -131 -118zM232 253l50 -33c28 33 58 76 74 105l-51 38c-15 -29 -46 -76 -73 -110zM100 879l-53 -27c25 -55 47 -145 59 -209l51 18
c-12 67 -32 160 -57 218zM278 858h79c23 0 27 -14 29 -109c13 11 38 21 55 25c-6 115 -24 143 -78 143h-91c-68 0 -84 -19 -84 -85v-205h63v205c0 23 3 26 27 26zM643 298c19 119 49 230 90 325c44 -90 73 -197 90 -325h-180zM956 298h-62c-25 162 -62 293 -123 399
c49 87 113 155 193 197c-15 14 -37 40 -48 58c-76 -45 -138 -110 -187 -190c-58 79 -134 144 -232 195c-7 -16 -29 -47 -42 -62c105 -49 181 -114 238 -201c-40 -84 -71 -181 -93 -288c-21 46 -44 87 -70 122c-12 -12 -40 -35 -56 -46c81 -104 133 -269 162 -439l70 12
c-12 59 -25 117 -42 173h292v70z" />
</svg>
