<?xml version="1.0" standalone="no"?>
<!DOCTYPE svg PUBLIC "-//W3C//DTD SVG 1.1//EN" "http://www.w3.org/Graphics/SVG/1.1/DTD/svg11.dtd" >
<svg xmlns="http://www.w3.org/2000/svg" xmlns:xlink="http://www.w3.org/1999/xlink" version="1.1" viewBox="-10 0 1010 1000">
   <path fill="currentColor"
d="M191 735l69 20c-42 75 -107 153 -166 204c-12 -12 -40 -34 -58 -45c60 -45 119 -113 155 -179zM340 760l56 -28c45 42 98 103 123 143l-60 33c-24 -40 -75 -103 -119 -148zM824 295h-156c-2 5 -4 10 -5 16c18 112 44 218 82 310c39 -92 63 -201 79 -326zM395 653h69v-170
h-69v170zM154 483v170h64v-170h-64zM218 258h-64v162h64v-162zM339 483h-65v170h65v-170zM339 258h-65v162h65v-162zM464 258h-69v162h69v-162zM957 295h-61c-22 162 -57 297 -113 407c45 86 104 153 179 196c-17 14 -40 41 -50 59c-70 -44 -125 -108 -170 -186
c-50 75 -114 137 -195 187c-8 -15 -29 -47 -43 -62c88 -49 153 -115 202 -197c-36 -81 -63 -173 -84 -273c-16 37 -33 72 -52 102c-9 -10 -29 -27 -45 -40v165h43v64h-525v-64h51v-459h124v-145h56v145h65v-145h56v145h130v267c63 -105 101 -259 124 -418l71 11
c-9 59 -21 117 -34 173h271v68z" />
</svg>
