<?xml version="1.0" standalone="no"?>
<!DOCTYPE svg PUBLIC "-//W3C//DTD SVG 1.1//EN" "http://www.w3.org/Graphics/SVG/1.1/DTD/svg11.dtd" >
<svg xmlns="http://www.w3.org/2000/svg" xmlns:xlink="http://www.w3.org/1999/xlink" version="1.1" viewBox="-10 0 1010 1000">
   <path fill="currentColor"
d="M204 646v115c57 -8 119 -18 182 -27v-88h-182zM386 330h-182v97h182v-97zM204 486v101h182v-101h-182zM535 777l-79 13v168h-70v-156c-122 19 -241 38 -333 53l-14 -72c28 -4 61 -8 96 -13v-440h-76v-68h291c9 -32 17 -69 24 -100h-265v-64h285l12 -4l50 10
c-9 53 -23 109 -36 158h118v68h-82v394l76 -11zM809 313h-164c-2 7 -4 13 -7 20c16 105 41 215 88 313c42 -93 67 -204 83 -333zM958 313h-78c-20 164 -55 298 -111 407c48 71 111 133 198 175c-16 14 -40 44 -50 63c-81 -44 -142 -103 -189 -172c-49 70 -109 128 -187 175
c-10 -15 -37 -42 -54 -54c88 -47 152 -110 201 -188c-47 -88 -75 -186 -93 -282c-20 44 -44 83 -69 118c-9 -19 -29 -49 -42 -66c82 -116 129 -302 151 -444l79 16c-12 56 -27 118 -45 179h289v73z" />
</svg>
