<?xml version="1.0" standalone="no"?>
<!DOCTYPE svg PUBLIC "-//W3C//DTD SVG 1.1//EN" "http://www.w3.org/Graphics/SVG/1.1/DTD/svg11.dtd" >
<svg xmlns="http://www.w3.org/2000/svg" xmlns:xlink="http://www.w3.org/1999/xlink" version="1.1" viewBox="-10 0 1010 1000">
   <path fill="currentColor"
d="M443 108l65 25c-31 53 -67 114 -97 152l-55 -22c30 -42 67 -109 87 -155zM134 113l58 11c-6 66 -30 140 -76 180l-53 -27c41 -34 65 -101 71 -164zM487 416l-48 51c-35 -38 -99 -89 -161 -131c-35 71 -91 123 -185 160c-8 -16 -27 -40 -41 -52c177 -68 202 -190 210 -400
h70c-4 90 -12 167 -31 231c68 42 146 98 186 141zM418 699l-55 -22c29 -41 66 -108 86 -154l66 24c-31 53 -67 114 -97 152zM127 534l59 11c-10 74 -34 149 -84 193l-52 -31c42 -36 68 -105 77 -173zM260 452h70c-4 88 -10 165 -26 232c67 47 144 111 182 156l-49 52
c-32 -39 -93 -95 -153 -141c-35 89 -94 157 -202 204c-8 -18 -29 -43 -43 -55c190 -78 213 -223 221 -448zM874 385l47 16c-28 144 -81 261 -151 353c54 61 119 109 193 139c-16 16 -39 43 -50 64c-73 -35 -137 -85 -191 -146c-59 62 -129 110 -203 146
c-10 -19 -29 -48 -45 -64c74 -30 143 -78 202 -143c-53 -79 -94 -173 -124 -276l63 -15c24 85 61 166 108 234c48 -67 86 -147 111 -238h-325v-68h149v-344h72v143h214v68h-214v133h130z" />
</svg>
