<?xml version="1.0" standalone="no"?>
<!DOCTYPE svg PUBLIC "-//W3C//DTD SVG 1.1//EN" "http://www.w3.org/Graphics/SVG/1.1/DTD/svg11.dtd" >
<svg xmlns="http://www.w3.org/2000/svg" xmlns:xlink="http://www.w3.org/1999/xlink" version="1.1" viewBox="-10 0 1010 1000">
   <path fill="currentColor"
d="M419 213v-75h-238v75h238zM419 341v-75h-238v75h238zM488 82v316h-373v-316h373zM190 579h337s-1 20 -2 30c-9 153 -17 238 -30 284c91 -50 157 -115 209 -198c-38 -82 -66 -176 -88 -279c-14 33 -30 64 -48 91c-7 -9 -20 -20 -34 -32v42h-318c-8 21 -16 42 -26 62z
M827 302h-166c18 115 44 222 84 316c39 -89 65 -195 82 -316zM955 302h-56c-23 159 -59 290 -116 398c46 85 106 154 180 199c-17 14 -39 40 -50 60c-70 -47 -126 -112 -172 -190c-52 76 -119 139 -204 189c-9 -14 -30 -38 -45 -54c-4 13 -9 22 -14 27c-15 17 -30 23 -52 25
c-19 2 -51 2 -85 0c-2 -18 -6 -42 -15 -58c31 3 60 3 71 3c13 1 21 -1 28 -10c15 -17 25 -82 35 -252h-57c-34 129 -94 238 -170 313c-10 -9 -34 -28 -47 -36c74 -65 128 -163 158 -277h-65c-42 110 -110 207 -185 271c-9 -8 -31 -27 -45 -35c73 -58 135 -142 172 -236h-63
c-22 38 -48 73 -74 101c-10 -10 -35 -27 -47 -35c49 -48 90 -117 118 -188h-99v-60h455c67 -100 111 -256 136 -414l71 12c-11 60 -23 121 -39 179h276v68z" />
</svg>
