<?xml version="1.0" standalone="no"?>
<!DOCTYPE svg PUBLIC "-//W3C//DTD SVG 1.1//EN" "http://www.w3.org/Graphics/SVG/1.1/DTD/svg11.dtd" >
<svg xmlns="http://www.w3.org/2000/svg" xmlns:xlink="http://www.w3.org/1999/xlink" version="1.1" viewBox="-10 0 1010 1000">
   <path fill="currentColor"
d="M150 263v73h108v-73h-108zM423 263h-99v73h99v-73zM258 558v-120c-48 52 -113 101 -172 128c-10 -14 -29 -37 -43 -49c68 -25 144 -77 191 -131h-145v-172h169v-51h-198v-57h198v-63h66v63h188v57h-188v51h163v172h-163v37l28 -34c48 22 105 58 136 84l-33 44
c-29 -26 -84 -62 -131 -87v128h-66zM536 784v82h416v64h-901v-64h164v-165h71v165h177v-218h-346v-62h771v62h-352v78h286v58h-286zM641 218c20 51 51 103 93 151c35 -42 63 -93 80 -152zM949 217h-64c-24 79 -59 144 -105 197c48 42 108 77 179 101c-14 13 -34 41 -42 57
c-72 -27 -133 -67 -182 -113c-54 47 -120 82 -195 110c-8 -13 -30 -41 -43 -53c77 -25 142 -59 194 -104c-37 -43 -66 -89 -86 -134c-19 25 -39 49 -59 69c-10 -13 -36 -38 -50 -50c65 -59 115 -153 142 -253l68 15c-10 33 -21 65 -35 96h278v62z" />
</svg>
