<?xml version="1.0" standalone="no"?>
<!DOCTYPE svg PUBLIC "-//W3C//DTD SVG 1.1//EN" "http://www.w3.org/Graphics/SVG/1.1/DTD/svg11.dtd" >
<svg xmlns="http://www.w3.org/2000/svg" xmlns:xlink="http://www.w3.org/1999/xlink" version="1.1" viewBox="-10 0 1010 1000">
   <path fill="currentColor"
d="M398 371l-32 30c-11 -13 -26 -29 -43 -45c-19 19 -39 36 -57 50c-8 -8 -26 -22 -36 -29c21 -15 42 -32 61 -51c-15 -13 -32 -26 -47 -38l31 -26c14 10 29 22 45 34c13 -15 23 -30 33 -46l43 12c-12 20 -27 42 -45 62c19 17 36 33 47 47zM248 125l32 -27
c13 10 26 20 41 31c12 -15 21 -29 30 -45l43 12c-10 20 -25 41 -41 62c18 15 34 31 44 44l-32 31c-10 -13 -24 -27 -41 -43c-17 18 -35 33 -53 47c-8 -8 -25 -22 -36 -29c19 -14 39 -30 58 -47c-15 -13 -31 -25 -45 -36zM128 480v91h-61v-148h37l-12 -323
c41 -10 102 -31 135 -44l33 37c-34 15 -75 26 -112 34l3 66h78v49h-76l2 59h77v49h-75l3 73h312c2 -22 4 -46 5 -73h-69v-49h72l3 -59h-75v-49h77l1 -56h-84v-51h142c-2 106 -7 246 -14 337h41v148h-64v-91h-379zM538 697v51c-56 7 -112 13 -168 19v120c0 36 -7 52 -34 63
c-28 10 -69 10 -134 10c-3 -18 -14 -42 -23 -60c50 2 93 2 107 1c13 -1 16 -4 16 -15v-111c-84 9 -163 17 -226 24l-7 -62c62 -4 143 -11 233 -19v-53c30 -18 61 -45 89 -70h-236v-56h292l14 -4l44 35c-37 40 -87 81 -135 113v28zM857 438h-195c20 86 49 167 87 238
c47 -68 84 -147 108 -238zM898 367l44 18c-31 143 -85 262 -154 356c48 69 107 126 176 160c-14 14 -36 40 -47 59c-67 -38 -124 -95 -172 -166c-65 75 -142 131 -224 171c-9 -17 -31 -48 -45 -61c87 -39 166 -97 231 -173c-46 -85 -80 -185 -104 -293h-26v-68h132v-326h71
v138h164v66h-164v122h104z" />
</svg>
