<?xml version="1.0" standalone="no"?>
<!DOCTYPE svg PUBLIC "-//W3C//DTD SVG 1.1//EN" "http://www.w3.org/Graphics/SVG/1.1/DTD/svg11.dtd" >
<svg xmlns="http://www.w3.org/2000/svg" xmlns:xlink="http://www.w3.org/1999/xlink" version="1.1" viewBox="-10 0 1010 1000">
   <path fill="currentColor"
d="M936 308l-61 30c-7 -17 -16 -38 -29 -60c-251 25 -285 31 -305 39c-3 -14 -14 -46 -22 -64c14 -3 29 -16 46 -35c18 -20 74 -96 109 -171l71 19c-38 65 -82 127 -125 175l195 -16c-16 -26 -34 -51 -50 -74l57 -26c44 57 93 133 114 183zM495 306l-59 30
c-7 -16 -17 -36 -29 -57c-244 26 -277 31 -296 40c-3 -14 -15 -46 -23 -64c15 -3 30 -17 46 -36c18 -20 75 -97 108 -172l73 19c-37 64 -82 127 -125 177l186 -19c-16 -25 -33 -49 -49 -71l57 -26c43 56 92 130 111 179zM152 420v110h-72v-172h839v172h-74v-110h-693z
M548 553l-38 55c-42 -35 -126 -86 -193 -121l38 -47c66 31 150 80 193 113zM215 619l36 -49c71 29 162 76 208 110l-38 56c-45 -36 -136 -85 -206 -117zM928 713l5 64l-239 18v160h-73v-154l-545 40l-5 -66l550 -39v-279h73v273z" />
</svg>
