<?xml version="1.0" standalone="no"?>
<!DOCTYPE svg PUBLIC "-//W3C//DTD SVG 1.1//EN" "http://www.w3.org/Graphics/SVG/1.1/DTD/svg11.dtd" >
<svg xmlns="http://www.w3.org/2000/svg" xmlns:xlink="http://www.w3.org/1999/xlink" version="1.1" viewBox="-10 0 1010 1000">
   <path fill="currentColor"
d="M223 413h186s0 23 -1 34c-7 326 -14 437 -39 471c-16 22 -33 29 -59 32c-23 3 -64 3 -105 0c-1 -21 -8 -49 -18 -67c40 3 76 4 92 4c14 0 22 -3 30 -13c16 -23 24 -119 30 -393h-120c-12 190 -42 362 -127 476c-12 -17 -36 -38 -56 -49c104 -138 116 -386 120 -632h-109
v-70h201c-9 -39 -32 -98 -55 -142l64 -19c24 45 48 103 59 141l-62 20h187v70h-214c-1 46 -2 92 -4 137zM951 251h-386c-28 62 -61 117 -98 161c-12 -13 -39 -39 -57 -51c70 -76 122 -195 149 -318l71 15c-10 43 -23 85 -37 125h358v68zM645 888h196c44 0 52 -19 57 -114
c16 10 43 22 63 26c-9 119 -31 152 -116 152h-204c-99 0 -126 -23 -126 -111v-244l-59 27l-27 -60l86 -40v-157h66v125l96 -45v-159h64v129l110 -51l5 -5l13 -10l46 18l-3 12c0 142 -2 267 -6 295c-3 32 -19 48 -45 54c-22 6 -52 7 -75 6c-2 -18 -8 -42 -16 -58
c19 2 44 1 52 1c12 0 18 -2 21 -19c3 -14 5 -103 5 -221l-107 50v299h-64v-268l-96 46v276c0 38 10 46 64 46z" />
</svg>
