<?xml version="1.0" standalone="no"?>
<!DOCTYPE svg PUBLIC "-//W3C//DTD SVG 1.1//EN" "http://www.w3.org/Graphics/SVG/1.1/DTD/svg11.dtd" >
<svg xmlns="http://www.w3.org/2000/svg" xmlns:xlink="http://www.w3.org/1999/xlink" version="1.1" viewBox="-10 0 1010 1000">
   <path fill="currentColor"
d="M306 172l-60 37c-16 -38 -59 -97 -94 -140l56 -32c36 42 80 98 98 135zM387 415v33c-7 317 -12 423 -35 455c-14 21 -31 29 -55 31c-20 3 -55 3 -89 1c-1 -21 -8 -49 -19 -67c35 3 64 3 78 3c12 0 20 -2 26 -13c15 -20 22 -113 27 -375h-116c-11 198 -38 364 -118 474
c-11 -17 -34 -39 -53 -50c96 -130 106 -358 109 -626h-99v-70h381v70h-214c-1 46 -2 91 -3 134h180zM952 226h-402c-28 70 -62 133 -103 182c-10 -12 -37 -39 -53 -51c65 -75 112 -192 139 -314l70 14c-7 34 -17 68 -28 100h377v69zM625 434l50 -27c36 39 75 92 90 128
l-52 30c-15 -37 -53 -91 -88 -131zM583 585h239v-198h-239v198zM958 585v66h-67v223c0 36 -7 56 -32 68c-23 12 -58 13 -109 13c-4 -20 -15 -49 -25 -68c37 1 71 1 82 0c11 0 15 -3 15 -14v-222h-240c-5 107 -30 229 -118 310c-13 -12 -40 -35 -56 -43
c82 -74 101 -174 105 -267h-85v-66h86v-265h377v265h67z" />
</svg>
