<?xml version="1.0" standalone="no"?>
<!DOCTYPE svg PUBLIC "-//W3C//DTD SVG 1.1//EN" "http://www.w3.org/Graphics/SVG/1.1/DTD/svg11.dtd" >
<svg xmlns="http://www.w3.org/2000/svg" xmlns:xlink="http://www.w3.org/1999/xlink" version="1.1" viewBox="-10 0 1010 1000">
   <path fill="currentColor"
d="M220 415h183s0 24 -1 34c-7 315 -13 421 -37 455c-16 21 -34 28 -59 31c-22 3 -60 3 -98 1c-1 -21 -9 -49 -19 -68c37 3 70 3 85 3c13 0 21 -1 28 -13c16 -21 23 -115 29 -377h-114c-10 201 -38 367 -125 479c-12 -18 -37 -42 -56 -53c103 -130 112 -355 115 -627h-102
v-70h196c-15 -38 -50 -99 -77 -144l65 -26c29 45 65 104 80 142l-61 28h180v69c43 -65 77 -149 100 -235l71 16c-10 40 -23 78 -38 115h380v66h-409c-22 46 -46 88 -72 121c-14 -12 -45 -31 -64 -40c11 -13 21 -27 32 -42h-209c-1 46 -2 91 -3 135zM958 435h-229v99h202v266
c0 34 -5 51 -29 63c-23 11 -59 11 -116 11c-3 -19 -11 -44 -20 -62c40 1 72 1 82 1c11 -1 14 -4 14 -14v-200h-133v358h-71v-358h-125v279h-68v-344h193v-99h-225v-65h225v-97h71v97h229v65z" />
</svg>
