<?xml version="1.0" standalone="no"?>
<!DOCTYPE svg PUBLIC "-//W3C//DTD SVG 1.1//EN" "http://www.w3.org/Graphics/SVG/1.1/DTD/svg11.dtd" >
<svg xmlns="http://www.w3.org/2000/svg" xmlns:xlink="http://www.w3.org/1999/xlink" version="1.1" viewBox="-10 0 1010 1000">
   <path fill="currentColor"
d="M780 281h-248v51h248v-51zM532 433h248v-52h-248v52zM221 433h238v-52h-238v52zM459 281h-238v51h238v-51zM459 228v-54h-382v-58h382v-72h73v72h206c-33 -15 -76 -30 -110 -40l35 -36c48 11 109 34 143 51l-22 25h139v58h-391v54h323v320h-75v-66h-248v33h-73v-33h-238
v66h-73v-320h311zM943 644h-502c-5 25 -11 49 -19 71h415s-1 22 -5 32c-21 110 -41 162 -72 185c-20 16 -42 21 -76 22c-28 2 -88 1 -152 -4c-1 -18 -10 -45 -22 -63c62 6 127 7 150 7c22 0 34 -1 44 -8c17 -14 32 -46 47 -110h-358c-49 85 -138 146 -307 182
c-7 -19 -25 -49 -40 -64c225 -42 290 -128 317 -250h-305v-60h414c-7 -17 -17 -34 -27 -49l62 -18c14 20 29 45 38 67h398v60z" />
</svg>
