<?xml version="1.0" standalone="no"?>
<!DOCTYPE svg PUBLIC "-//W3C//DTD SVG 1.1//EN" "http://www.w3.org/Graphics/SVG/1.1/DTD/svg11.dtd" >
<svg xmlns="http://www.w3.org/2000/svg" xmlns:xlink="http://www.w3.org/1999/xlink" version="1.1" viewBox="-10 0 1010 1000">
   <path fill="currentColor"
d="M927 234h-382c-22 52 -48 98 -76 134c-14 -11 -43 -29 -60 -37c58 -68 99 -171 122 -277l68 12c-8 34 -18 69 -28 101h356v67zM300 179l-64 31c-13 -38 -45 -100 -71 -146l60 -26c26 44 59 104 75 141zM207 415h180s0 25 -1 34c-7 316 -13 421 -35 456
c-15 21 -30 29 -53 32c-21 3 -56 3 -90 1c-2 -22 -9 -51 -19 -70c35 3 64 3 77 3s20 -2 27 -13c14 -21 20 -115 26 -376h-114c-10 202 -37 368 -119 480c-12 -18 -34 -43 -51 -55c97 -130 105 -355 107 -628h-97v-67h366v67h-200c-1 47 -2 92 -4 136zM855 580l47 31
c-45 69 -125 150 -188 206c43 30 84 58 113 82l-45 51c-63 -53 -186 -140 -282 -197l41 -44c36 20 76 46 116 71c46 -36 99 -88 140 -135h-326v-61h373zM616 456l49 -30c35 35 75 81 95 112l-50 38c-20 -32 -61 -83 -94 -120zM670 245l68 20c-6 10 -13 21 -19 31
c57 71 157 147 240 183c-17 13 -40 38 -52 54c-74 -40 -163 -116 -224 -188c-60 76 -139 146 -227 196c-13 -11 -37 -34 -51 -44c113 -64 213 -160 265 -252z" />
</svg>
