<?xml version="1.0" standalone="no"?>
<!DOCTYPE svg PUBLIC "-//W3C//DTD SVG 1.1//EN" "http://www.w3.org/Graphics/SVG/1.1/DTD/svg11.dtd" >
<svg xmlns="http://www.w3.org/2000/svg" xmlns:xlink="http://www.w3.org/1999/xlink" version="1.1" viewBox="-10 0 1010 1000">
   <path fill="currentColor"
d="M948 240h-396c-28 53 -58 100 -90 137c-13 -12 -42 -31 -58 -41c67 -71 122 -181 153 -293l67 14c-12 40 -25 78 -41 115h365v68zM224 417h182s0 24 -1 33c-7 316 -14 421 -38 454c-16 21 -32 29 -57 32c-23 2 -60 2 -97 1c-2 -21 -8 -49 -20 -67c38 3 71 3 86 3
c13 0 21 -2 28 -13c15 -21 22 -115 29 -376h-115c-11 200 -40 364 -129 473c-11 -16 -35 -40 -54 -51c107 -130 116 -356 119 -630h-112v-70h209c-21 -35 -63 -93 -98 -135l60 -30c36 42 81 97 102 133l-59 32h171v70h-202c-1 49 -2 96 -4 141zM946 654h-196
c38 109 111 197 212 239c-15 13 -37 39 -48 58c-94 -46 -162 -131 -206 -237c-31 85 -100 172 -240 241c-10 -15 -33 -39 -48 -51c159 -72 215 -165 234 -250h-206v-67h215c1 -13 1 -25 1 -37v-110h-79c-24 39 -49 74 -75 103c-13 -11 -42 -30 -59 -39
c59 -57 107 -144 135 -232l67 15c-10 29 -21 59 -34 86h287v67h-171v111c0 12 0 23 -1 36h212v67z" />
</svg>
