<?xml version="1.0" standalone="no"?>
<!DOCTYPE svg PUBLIC "-//W3C//DTD SVG 1.1//EN" "http://www.w3.org/Graphics/SVG/1.1/DTD/svg11.dtd" >
<svg xmlns="http://www.w3.org/2000/svg" xmlns:xlink="http://www.w3.org/1999/xlink" version="1.1" viewBox="-10 0 1010 1000">
   <path fill="currentColor"
d="M855 186h-85v77h85v-77zM855 397v-76h-85v76h85zM707 263v-77h-115v-57h115v-86h63v86h144v134h43v58h-43v133h-144v75h154v61h-154v76h184v61h-184v110h-63v-110h-158v-61h158v-76h-131v-61h131v-75h-115v-57h115v-76h-158v-58h158zM269 172l-60 29
c-12 -37 -36 -94 -58 -135l58 -24c23 41 48 95 60 130zM196 412h150s0 23 -1 33c-10 325 -19 433 -43 467c-15 20 -30 27 -53 30c-21 2 -53 2 -85 0c-1 -19 -7 -45 -17 -63c32 3 60 3 73 3c12 1 19 -2 27 -13c15 -22 26 -119 34 -391h-88c-11 191 -37 365 -110 480
c-12 -16 -35 -36 -54 -46c90 -140 102 -392 105 -639h-90v-64h331v64h-175c-1 47 -2 93 -4 139zM530 405l36 5c-9 145 -29 259 -61 348c66 92 158 114 270 114c24 0 162 0 195 -1c-10 17 -21 47 -24 65h-175c-124 0 -222 -24 -293 -115c-29 58 -65 102 -110 137
c-8 -16 -23 -39 -36 -51c44 -32 80 -80 108 -144c-25 -49 -47 -111 -63 -189l50 -18c10 52 24 96 40 133c18 -63 31 -138 39 -223h-133c33 -75 76 -186 110 -285h-97v-65h181c-32 91 -74 205 -109 291h62z" />
</svg>
