<?xml version="1.0" standalone="no"?>
<!DOCTYPE svg PUBLIC "-//W3C//DTD SVG 1.1//EN" "http://www.w3.org/Graphics/SVG/1.1/DTD/svg11.dtd" >
<svg xmlns="http://www.w3.org/2000/svg" xmlns:xlink="http://www.w3.org/1999/xlink" version="1.1" viewBox="-10 0 1010 1000">
   <path fill="currentColor"
d="M288 180l-65 26c-14 -39 -45 -98 -72 -142l63 -21c29 43 60 100 74 137zM940 212h-440c-27 54 -59 102 -95 139c-11 -11 -38 -34 -54 -45c11 -9 21 -20 31 -32h-171c-1 46 -2 92 -4 138h171s0 24 -1 34c-9 323 -17 431 -41 466c-15 20 -31 27 -54 30c-21 3 -53 3 -87 1
c-1 -20 -8 -48 -18 -66c32 2 60 3 74 3c13 0 20 -3 27 -14c16 -22 24 -117 32 -386h-106c-11 190 -38 363 -113 478c-12 -16 -35 -37 -54 -47c94 -141 104 -391 108 -637h-100v-66h340v62c50 -61 89 -143 111 -230l66 15c-9 32 -19 64 -32 94h410v63zM567 772l67 20
c-41 63 -107 128 -165 169c-12 -12 -38 -34 -55 -45c59 -37 118 -89 153 -144zM719 805l50 -35c57 43 128 107 161 148l-53 42c-33 -42 -102 -108 -158 -155zM582 621v72h199v-72h-199zM781 383h-199v65h199v-65zM582 499v70h199v-70h-199zM848 693h102v62h-542v-62h108
v-310h-62v-63h62v-65h66v65h199v-65h67v65h74v63h-74v310z" />
</svg>
