<?xml version="1.0" standalone="no"?>
<!DOCTYPE svg PUBLIC "-//W3C//DTD SVG 1.1//EN" "http://www.w3.org/Graphics/SVG/1.1/DTD/svg11.dtd" >
<svg xmlns="http://www.w3.org/2000/svg" xmlns:xlink="http://www.w3.org/1999/xlink" version="1.1" viewBox="-10 0 1010 1000">
   <path fill="currentColor"
d="M287 183l-66 22c-12 -38 -41 -100 -68 -146l63 -18c26 44 58 105 71 142zM525 777l62 18c-38 53 -99 109 -151 144c-13 -10 -38 -29 -53 -39c53 -32 109 -77 142 -123zM938 763h-233v130c0 32 -5 47 -30 56c-22 9 -58 9 -111 9c-3 -17 -11 -38 -19 -54c38 1 70 1 81 1
c11 -1 13 -4 13 -13v-129h-236v-54h535v54zM455 605h437v50h-437v-50zM763 807l43 -34c48 35 109 87 137 120l-44 40c-28 -34 -87 -88 -136 -126zM728 371v-73h-86v73h86zM868 418h-87v95h87v-95zM642 418v95h86v-95h-86zM490 418v95h98v-95h-98zM481 242h472v56h-172v73
h147v189h-495v-189h155v-73h-146v-15l-6 6c-11 -9 -31 -25 -48 -36v22h-175c-1 48 -2 95 -3 140h157v32c-8 327 -14 432 -38 466c-15 20 -32 27 -55 30c-21 3 -55 2 -89 0c-1 -18 -7 -44 -17 -60c34 3 63 3 76 3s20 -2 27 -13c15 -22 23 -120 30 -397h-94
c-10 204 -37 371 -121 482c-11 -16 -33 -38 -50 -46c99 -133 108 -362 111 -637h-91v-63h332v28c57 -50 109 -122 137 -195l68 16c-9 22 -20 42 -30 63h385v59h-422c-13 21 -29 41 -45 59z" />
</svg>
