<?xml version="1.0" standalone="no"?>
<!DOCTYPE svg PUBLIC "-//W3C//DTD SVG 1.1//EN" "http://www.w3.org/Graphics/SVG/1.1/DTD/svg11.dtd" >
<svg xmlns="http://www.w3.org/2000/svg" xmlns:xlink="http://www.w3.org/1999/xlink" version="1.1" viewBox="-10 0 1010 1000">
   <path fill="currentColor"
d="M291 176l-67 25c-14 -36 -44 -96 -71 -139l64 -21c28 43 59 99 74 135zM810 727h-277v53h277v-53zM533 872h277v-49h-277v49zM472 952v-270h402v267h-64v-30h-277v33h-61zM774 594l-33 -15c13 -22 31 -60 40 -81l40 15c-16 30 -33 60 -47 81zM531 511l35 -12
c18 24 35 57 41 78l-38 16c-6 -22 -21 -57 -38 -82zM494 481v125h151v-125h-151zM857 606v-125h-159v125h159zM436 651v-216h479v216h-479zM940 140l-1 62h-425c-28 48 -59 91 -91 125c-12 -11 -38 -30 -55 -39c5 -5 10 -9 14 -14h-164c-1 46 -2 91 -4 137h152s0 24 -1 34
c-6 325 -11 433 -34 466c-15 21 -31 28 -55 31c-22 3 -56 3 -92 1c-1 -20 -7 -48 -18 -66c34 2 65 3 78 3s20 -3 27 -13c14 -22 20 -116 26 -387h-87c-11 189 -39 363 -115 478c-12 -16 -35 -36 -54 -47c94 -140 105 -391 109 -637h-102v-66h339v61c53 -57 98 -134 126 -213
l62 14c-8 24 -18 47 -29 70h394zM576 350h201c-38 -23 -75 -47 -106 -71c-27 26 -60 49 -95 71zM664 202l61 19c-6 7 -11 14 -18 21c67 51 176 104 260 131c-14 12 -35 35 -45 50c-41 -16 -88 -40 -134 -66v40h-237v-32c-38 20 -79 38 -122 54c-9 -13 -30 -36 -44 -46
c118 -39 226 -100 279 -171z" />
</svg>
