<?xml version="1.0" standalone="no"?>
<!DOCTYPE svg PUBLIC "-//W3C//DTD SVG 1.1//EN" "http://www.w3.org/Graphics/SVG/1.1/DTD/svg11.dtd" >
<svg xmlns="http://www.w3.org/2000/svg" xmlns:xlink="http://www.w3.org/1999/xlink" version="1.1" viewBox="-10 0 1010 1000">
   <path fill="currentColor"
d="M942 705l-28 43c-24 -32 -66 -74 -110 -112c6 72 -5 136 -26 163c-17 24 -36 32 -65 32c-14 0 -31 -1 -49 -2c-1 -16 -6 -41 -15 -57c22 2 39 3 52 3c14 0 25 -2 33 -17c11 -14 19 -53 18 -100c-54 44 -126 85 -186 106c-8 -14 -24 -34 -36 -45c77 -22 167 -68 217 -117
c-3 -19 -7 -38 -13 -56c-49 39 -118 77 -172 99c-8 -14 -24 -35 -36 -44c64 -20 148 -61 192 -98c-7 -16 -16 -31 -26 -45c-41 29 -86 53 -128 72c-7 -11 -25 -32 -36 -43c61 -24 127 -57 175 -95h-167v-56h119c-12 -23 -32 -53 -50 -75l42 -27c22 24 46 58 56 81l-29 21h92
c21 -32 48 -78 63 -110l55 21c-18 30 -39 63 -58 89h108v56h-162c-12 13 -26 25 -41 37c25 30 43 68 54 108c33 -32 68 -71 90 -99l42 31c-35 38 -76 77 -112 108c53 40 109 92 137 128zM934 203h-450c-24 38 -53 73 -81 101c-11 -11 -36 -31 -49 -40
c60 -52 111 -131 139 -215l60 13c-10 27 -22 55 -34 80h415v61zM502 419l-49 30c-13 -33 -40 -84 -61 -121l47 -23c24 36 50 84 63 114zM252 173l-56 26c-11 -36 -36 -93 -58 -136l54 -21c22 41 48 96 60 131zM189 408h147s0 22 -1 31c-6 326 -13 432 -34 465
c-14 19 -29 26 -51 29c-19 2 -48 2 -79 1c-1 -19 -7 -43 -14 -60c29 3 54 3 67 3c12 0 19 -1 25 -13c13 -21 21 -118 27 -394h-87c0 159 -15 328 -107 474c-12 -13 -31 -30 -47 -40c85 -138 96 -300 96 -440v-194h-74v-61h292v61h-160v138zM493 480v309c17 10 34 27 62 46
c46 32 104 42 181 42c66 0 171 -5 237 -14c-7 18 -15 50 -15 69c-54 4 -162 7 -224 7c-82 0 -142 -12 -191 -47c-32 -24 -57 -51 -76 -51c-22 0 -57 53 -90 110l-39 -59c34 -47 70 -87 101 -102v-255h-78v-55h132z" />
</svg>
