<?xml version="1.0" standalone="no"?>
<!DOCTYPE svg PUBLIC "-//W3C//DTD SVG 1.1//EN" "http://www.w3.org/Graphics/SVG/1.1/DTD/svg11.dtd" >
<svg xmlns="http://www.w3.org/2000/svg" xmlns:xlink="http://www.w3.org/1999/xlink" version="1.1" viewBox="-10 0 1010 1000">
   <path fill="currentColor"
d="M203 295v135h85v-135h-85zM400 150h-197v89h135v191h62v-280zM823 869h45c19 0 22 -20 24 -172c15 13 42 24 60 28c-5 166 -20 205 -78 205h-62c-57 0 -73 -19 -73 -88v-228c-34 110 -89 225 -180 332c-13 -13 -34 -30 -52 -39c-5 9 -13 16 -24 21c-25 11 -68 11 -134 11
c-2 -18 -11 -45 -19 -64c50 2 95 2 107 1c14 0 18 -5 18 -18v-363h-305v460h-61v-525h53v-345h321v345h52v429c0 13 -1 23 -3 32c110 -128 164 -266 189 -393h-153c16 -72 31 -187 40 -274l65 4c-7 63 -17 136 -28 198h87c11 -83 12 -159 12 -220v-40h-183v-70h390v70h-139
v41c0 61 -2 137 -13 219h163v72h-174c-3 17 -7 33 -11 50h47v293c0 24 2 28 19 28zM350 742v-125h-100v125h100zM401 561v237h-199v-237h199z" />
</svg>
