<?xml version="1.0" standalone="no"?>
<!DOCTYPE svg PUBLIC "-//W3C//DTD SVG 1.1//EN" "http://www.w3.org/Graphics/SVG/1.1/DTD/svg11.dtd" >
<svg xmlns="http://www.w3.org/2000/svg" xmlns:xlink="http://www.w3.org/1999/xlink" version="1.1" viewBox="-10 0 1010 1000">
   <path fill="currentColor"
d="M546 432h-247v118h247v-118zM299 740h247v-129h-247v129zM618 804h-319v58h-70v-496h389v438zM317 181h615s-1 30 -1 41c-14 475 -27 639 -69 690c-24 31 -48 39 -88 43c-38 4 -108 2 -174 -2c-2 -21 -12 -54 -26 -74c76 6 146 7 173 7c22 0 34 -4 46 -17
c35 -36 51 -198 63 -616h-573c-52 104 -114 195 -181 264c-15 -12 -48 -38 -68 -49c108 -99 197 -257 249 -424l79 18c-14 41 -29 80 -45 119z" />
</svg>
