<?xml version="1.0" standalone="no"?>
<!DOCTYPE svg PUBLIC "-//W3C//DTD SVG 1.1//EN" "http://www.w3.org/Graphics/SVG/1.1/DTD/svg11.dtd" >
<svg xmlns="http://www.w3.org/2000/svg" xmlns:xlink="http://www.w3.org/1999/xlink" version="1.1" viewBox="-10 0 1010 1000">
   <path fill="currentColor"
d="M788 563l18 61c-127 71 -265 149 -367 204l-27 -70c94 -44 241 -122 376 -195zM718 535l-52 43c-36 -42 -109 -113 -167 -163l48 -36c61 50 134 115 171 156zM150 694h149v-225h-149v225zM299 186h-149v217h149v-217zM563 208h371s-1 29 -1 38c-14 461 -27 618 -67 667
c-23 30 -46 38 -83 42c-36 3 -99 2 -159 -2c-1 -21 -11 -52 -25 -73c70 6 134 6 158 6c20 1 31 -3 43 -16c34 -34 48 -191 60 -596h-329c-37 66 -77 127 -119 175c-9 -11 -27 -30 -43 -45v358h-219v79h-69v-723h288v263c75 -85 140 -211 180 -338l72 19
c-17 50 -36 99 -58 146z" />
</svg>
