<?xml version="1.0" standalone="no"?>
<!DOCTYPE svg PUBLIC "-//W3C//DTD SVG 1.1//EN" "http://www.w3.org/Graphics/SVG/1.1/DTD/svg11.dtd" >
<svg xmlns="http://www.w3.org/2000/svg" xmlns:xlink="http://www.w3.org/1999/xlink" version="1.1" viewBox="-10 0 1010 1000">
   <path fill="currentColor"
d="M777 231v-93h-553v93h553zM777 385v-96h-553v96h553zM854 77v369h-704v-369h704zM239 845l262 -36c1 20 4 49 7 64c-305 47 -342 55 -366 67c-4 -19 -17 -52 -28 -68c20 -7 49 -21 49 -58v-328h76v107h244v68h-244v184zM668 866h167c42 0 49 -19 54 -128
c16 13 47 25 69 29c-10 132 -33 168 -118 168h-178c-99 0 -125 -24 -125 -108v-343h74v165c94 -35 192 -80 249 -122l60 53c-82 52 -201 99 -309 134v112c0 33 10 40 57 40z" />
</svg>
