<?xml version="1.0" standalone="no"?>
<!DOCTYPE svg PUBLIC "-//W3C//DTD SVG 1.1//EN" "http://www.w3.org/Graphics/SVG/1.1/DTD/svg11.dtd" >
<svg xmlns="http://www.w3.org/2000/svg" xmlns:xlink="http://www.w3.org/1999/xlink" version="1.1" viewBox="-10 0 1010 1000">
   <path fill="currentColor"
d="M682 197v240h-75v-390h75v127l34 -31c70 47 156 115 198 163l-51 50c-36 -45 -113 -111 -181 -159zM758 646h-495v76h495v-76zM263 860h495v-82h-495v82zM187 957v-372h649v370h-78v-33h-495v35h-76zM423 202h-176c-5 9 -11 18 -17 26c24 57 56 102 94 134
c41 -45 75 -99 99 -160zM468 133l47 19c-28 102 -74 184 -132 251c88 48 199 59 324 60c34 0 203 0 250 -2c-11 18 -24 50 -28 70h-226c-147 0 -271 -16 -369 -79c-73 65 -158 110 -249 140c-9 -19 -26 -47 -41 -61c85 -24 165 -65 233 -123c-34 -33 -64 -74 -88 -125
c-26 31 -52 57 -79 81c-11 -14 -39 -39 -54 -51c83 -64 153 -162 193 -269l70 17c-10 25 -22 50 -33 75h168z" />
</svg>
