<?xml version="1.0" standalone="no"?>
<!DOCTYPE svg PUBLIC "-//W3C//DTD SVG 1.1//EN" "http://www.w3.org/Graphics/SVG/1.1/DTD/svg11.dtd" >
<svg xmlns="http://www.w3.org/2000/svg" xmlns:xlink="http://www.w3.org/1999/xlink" version="1.1" viewBox="-10 0 1010 1000">
   <path fill="currentColor"
d="M276 185h-131v220h131v-220zM145 702h131v-229h-131v229zM343 117v653h-198v78h-68v-731h266zM955 913l-68 29c-7 -22 -18 -49 -30 -76c-377 36 -419 40 -446 53c-4 -15 -17 -51 -27 -71c27 -5 58 -37 103 -85c28 -28 92 -101 161 -193c-172 14 -200 19 -219 26
c-4 -15 -14 -50 -22 -69c17 -4 36 -24 58 -53c21 -25 81 -110 128 -201h-215v-69h283c-16 -39 -49 -95 -76 -135l61 -30c31 43 65 100 83 138l-50 27h274v69h-279c-47 86 -103 171 -160 240l184 -11c36 -51 71 -105 102 -158l66 37c-107 169 -235 327 -357 451l317 -28
c-24 -48 -54 -97 -82 -139l62 -25c60 86 124 200 149 273z" />
</svg>
