<?xml version="1.0" standalone="no"?>
<!DOCTYPE svg PUBLIC "-//W3C//DTD SVG 1.1//EN" "http://www.w3.org/Graphics/SVG/1.1/DTD/svg11.dtd" >
<svg xmlns="http://www.w3.org/2000/svg" xmlns:xlink="http://www.w3.org/1999/xlink" version="1.1" viewBox="-10 0 1010 1000">
   <path fill="currentColor"
d="M655 397h-286l46 21c-47 38 -98 73 -148 103l454 -13c-39 -27 -80 -55 -118 -77zM237 266v72h523v-72h-523zM237 138v72h523v-72h-523zM914 585l-59 41c-16 -18 -36 -39 -60 -59c-573 20 -627 22 -665 35c-3 -15 -15 -50 -23 -68c19 -3 39 -12 64 -25s101 -59 163 -112
h-169v-318h669v318h-172c92 50 199 128 252 188zM941 689v64h-232v204h-76v-204h-277c-14 76 -67 152 -236 203c-10 -18 -34 -44 -52 -58c140 -38 193 -91 210 -145h-218v-64h228v-3v-74h74v76v1h271v-83h76v83h232z" />
</svg>
