<?xml version="1.0" standalone="no"?>
<!DOCTYPE svg PUBLIC "-//W3C//DTD SVG 1.1//EN" "http://www.w3.org/Graphics/SVG/1.1/DTD/svg11.dtd" >
<svg xmlns="http://www.w3.org/2000/svg" xmlns:xlink="http://www.w3.org/1999/xlink" version="1.1" viewBox="-10 0 1010 1000">
   <path fill="currentColor"
d="M262 179h-121v222h121v-222zM141 694h121v-228h-121v228zM326 113v648h-185v80h-63v-728h248zM403 587v-63h521v63h-331c-9 32 -18 66 -28 96h302s-1 20 -2 30c-14 134 -28 193 -53 216c-17 16 -35 22 -63 23c-25 3 -73 2 -124 -1c-1 -20 -10 -45 -22 -63
c51 4 100 5 118 5c16 0 27 -1 35 -8c14 -14 26 -52 36 -139h-249v1h-75c17 -44 36 -105 52 -160h-117zM943 238h-160c48 72 118 138 186 174c-17 13 -38 38 -49 55c-78 -48 -157 -138 -208 -229h-91c-30 55 -65 104 -106 146h303v62h-310v-55c-31 31 -66 59 -103 83
c-11 -14 -38 -41 -54 -53c79 -45 141 -106 188 -183h-154v-66h190c17 -39 32 -82 43 -127l72 10c-11 42 -23 81 -38 117h291v66z" />
</svg>
