<?xml version="1.0" standalone="no"?>
<!DOCTYPE svg PUBLIC "-//W3C//DTD SVG 1.1//EN" "http://www.w3.org/Graphics/SVG/1.1/DTD/svg11.dtd" >
<svg xmlns="http://www.w3.org/2000/svg" xmlns:xlink="http://www.w3.org/1999/xlink" version="1.1" viewBox="-10 0 1010 1000">
   <path fill="currentColor"
d="M953 185v69h-567v-69h269c-14 -32 -43 -82 -65 -119l64 -29c25 38 54 86 69 118l-59 30h289zM734 315l58 -36c57 61 131 146 168 196l-60 43c-36 -52 -109 -139 -166 -203zM275 186h-128v219h128v-219zM147 703h128v-230h-128v230zM341 117v654h-194v78h-66v-732h260z
M516 280l72 22c-44 81 -110 171 -164 230c-12 -12 -43 -35 -60 -45c54 -54 113 -135 152 -207zM753 461l72 17c-26 94 -66 176 -117 248c70 75 157 134 260 168c-16 14 -39 43 -50 62c-101 -37 -187 -97 -257 -173c-65 71 -146 129 -243 175c-9 -15 -32 -42 -49 -55
c99 -44 182 -104 245 -176c-53 -71 -95 -152 -126 -242l67 -19c24 74 60 142 104 203c43 -62 74 -130 94 -208z" />
</svg>
