<?xml version="1.0" standalone="no"?>
<!DOCTYPE svg PUBLIC "-//W3C//DTD SVG 1.1//EN" "http://www.w3.org/Graphics/SVG/1.1/DTD/svg11.dtd" >
<svg xmlns="http://www.w3.org/2000/svg" xmlns:xlink="http://www.w3.org/1999/xlink" version="1.1" viewBox="-10 0 1010 1000">
   <path fill="currentColor"
d="M947 456l-64 34c-11 -21 -24 -45 -40 -71c-358 24 -402 28 -428 39c-3 -19 -14 -57 -20 -74c18 -3 40 -9 58 -27c21 -22 93 -129 132 -190h-188v-68h541v68h-267c-38 59 -97 148 -139 207l273 -17c-25 -38 -51 -76 -76 -110l61 -28c57 75 124 174 157 237zM285 186h-139
v219h139v-219zM146 703h139v-230h-139v230zM351 117v654h-205v77h-65v-731h270zM694 860h264v69h-603v-69h266v-182h-202v-69h202v-141h73v141h215v69h-215v182z" />
</svg>
