<?xml version="1.0" standalone="no"?>
<!DOCTYPE svg PUBLIC "-//W3C//DTD SVG 1.1//EN" "http://www.w3.org/Graphics/SVG/1.1/DTD/svg11.dtd" >
<svg xmlns="http://www.w3.org/2000/svg" xmlns:xlink="http://www.w3.org/1999/xlink" version="1.1" viewBox="-10 0 1010 1000">
   <path fill="currentColor"
d="M227 258v70h546v-70h-546zM227 135v71h546v-71h-546zM158 521v73h-69v-131h393c-13 -22 -27 -45 -39 -65l42 -16h-330v-301h691v301h-335c17 26 37 58 51 81h354v131h-72v-73h-686zM673 681h-284c-23 27 -47 54 -69 78c76 13 152 29 224 45c56 -31 99 -72 129 -123z
M943 681h-192c-28 59 -68 106 -121 143c113 28 212 57 290 85l-57 50c-79 -30 -185 -62 -307 -92c-111 52 -262 78 -460 91c-6 -20 -16 -43 -27 -59c162 -7 288 -24 385 -56c-81 -19 -168 -36 -256 -52c33 -30 69 -69 104 -110h-240v-58h287c26 -33 49 -66 68 -97l71 22
c-15 24 -34 50 -52 75h507v58z" />
</svg>
