<?xml version="1.0" standalone="no"?>
<!DOCTYPE svg PUBLIC "-//W3C//DTD SVG 1.1//EN" "http://www.w3.org/Graphics/SVG/1.1/DTD/svg11.dtd" >
<svg xmlns="http://www.w3.org/2000/svg" xmlns:xlink="http://www.w3.org/1999/xlink" version="1.1" viewBox="-10 0 1010 1000">
   <path fill="currentColor"
d="M771 220v-75h-538v75h538zM771 349v-75h-538v75h538zM846 87v320h-686v-320h686zM606 671h-215v95h215v-95zM673 822h-282v42h-66v-248h348v206zM876 488v387c0 40 -9 58 -37 69c-29 12 -77 12 -152 12c-4 -19 -13 -46 -22 -64c55 2 105 1 119 1c16 -1 20 -5 20 -18v-327
h-604v409h-71v-469h210c19 -24 41 -53 53 -73l83 15c-16 21 -35 40 -51 58h452z" />
</svg>
