<?xml version="1.0" standalone="no"?>
<!DOCTYPE svg PUBLIC "-//W3C//DTD SVG 1.1//EN" "http://www.w3.org/Graphics/SVG/1.1/DTD/svg11.dtd" >
<svg xmlns="http://www.w3.org/2000/svg" xmlns:xlink="http://www.w3.org/1999/xlink" version="1.1" viewBox="-10 0 1010 1000">
   <path fill="currentColor"
d="M829 234l66 25c-45 57 -108 104 -180 142c40 45 85 70 129 69c26 0 35 -25 40 -99c14 14 35 24 54 30c-12 105 -36 135 -98 135c-68 0 -133 -38 -187 -103c-76 35 -159 61 -239 82c-8 -15 -30 -45 -45 -59c85 -18 171 -42 247 -75c-26 -42 -48 -90 -65 -143l-165 16
l-10 -63l158 -16c-9 -40 -15 -83 -18 -127h69c2 42 9 83 18 120l303 -29l10 62l-296 30c15 46 36 86 57 121c63 -33 115 -72 152 -118zM278 179h-139v222h139v-222zM139 694h139v-228h-139v228zM341 761h-202v80h-61v-728h263v648zM794 881h74c21 0 26 -14 28 -102
c16 11 43 21 62 26c-6 107 -25 136 -82 136h-94c-70 0 -88 -19 -88 -87v-216h-95c-14 163 -57 263 -226 320c-6 -19 -27 -48 -43 -62c149 -45 184 -123 196 -258h-157v-64h573v64h-175v216c0 23 4 27 27 27z" />
</svg>
