<?xml version="1.0" standalone="no"?>
<!DOCTYPE svg PUBLIC "-//W3C//DTD SVG 1.1//EN" "http://www.w3.org/Graphics/SVG/1.1/DTD/svg11.dtd" >
<svg xmlns="http://www.w3.org/2000/svg" xmlns:xlink="http://www.w3.org/1999/xlink" version="1.1" viewBox="-10 0 1010 1000">
   <path fill="currentColor"
d="M272 185h-126v218h126v-218zM146 699h126v-229h-126v229zM337 118v649h-191v76h-65v-725h256zM800 846v-159h-313v159h313zM828 401l51 26c-48 61 -111 135 -168 198h162v329h-73v-45h-313v48h-71v-332h271l-46 -22c39 -41 83 -92 119 -134h-350v-64h407zM583 262l51 -29
c35 38 69 91 84 127l-55 33c-14 -37 -47 -92 -80 -131zM635 38l62 21c-5 10 -11 19 -17 28c62 72 176 165 282 214c-16 14 -40 41 -52 58c-97 -53 -201 -149 -264 -222c-66 91 -152 171 -253 231c-11 -16 -37 -41 -52 -54c124 -68 236 -174 294 -276z" />
</svg>
