<?xml version="1.0" standalone="no"?>
<!DOCTYPE svg PUBLIC "-//W3C//DTD SVG 1.1//EN" "http://www.w3.org/Graphics/SVG/1.1/DTD/svg11.dtd" >
<svg xmlns="http://www.w3.org/2000/svg" xmlns:xlink="http://www.w3.org/1999/xlink" version="1.1" viewBox="-10 0 1010 1000">
   <path fill="currentColor"
d="M464 634h-235c-6 25 -12 48 -17 71h252v-71zM537 506v72h243v-72h-243zM243 248v65h514v-65h-514zM243 135v63h514v-63h-514zM907 705l-3 29c-11 99 -23 144 -44 164c-16 14 -35 20 -62 21c-25 2 -73 2 -124 -1c-1 -19 -9 -44 -19 -62c48 5 95 6 112 6s26 -1 33 -8
c11 -10 19 -36 27 -93h-290v196h-73v-176c-89 81 -229 144 -357 174c-10 -17 -28 -44 -43 -58c123 -22 256 -72 341 -136h-281c16 -50 34 -123 46 -183h294v-72h-346v-56h206c-12 -21 -33 -48 -52 -67l50 -17h-151v-284h660v284h-490c23 22 46 52 55 73l-30 11h220
c22 -26 47 -60 61 -84l70 21c-17 22 -34 43 -51 63h187v184h-316v71h370z" />
</svg>
