<?xml version="1.0" standalone="no"?>
<!DOCTYPE svg PUBLIC "-//W3C//DTD SVG 1.1//EN" "http://www.w3.org/Graphics/SVG/1.1/DTD/svg11.dtd" >
<svg xmlns="http://www.w3.org/2000/svg" xmlns:xlink="http://www.w3.org/1999/xlink" version="1.1" viewBox="-10 0 1010 1000">
   <path fill="currentColor"
d="M228 259v71h550v-71h-550zM228 136v71h550v-71h-550zM783 558l69 20c-35 76 -84 142 -142 199c47 64 100 101 147 101c26 -1 36 -29 41 -111c16 15 40 28 59 33c-13 116 -39 147 -104 147c-68 0 -138 -45 -195 -121c-57 48 -122 89 -189 122c-11 -15 -37 -42 -54 -55
c75 -32 144 -74 205 -124c-39 -65 -71 -146 -90 -233h-328v56c0 11 0 23 -1 35h253s0 19 -1 29c-6 132 -13 186 -31 206c-15 16 -31 22 -56 24c-22 2 -65 3 -109 0c-2 -20 -9 -46 -20 -64c43 4 82 4 96 4c15 0 22 0 29 -8c9 -10 14 -44 19 -128h-184c-10 91 -34 193 -94 270
c-12 -13 -44 -37 -60 -45c75 -99 86 -230 86 -325v-117h389c-5 -27 -8 -57 -10 -85h73c2 29 5 58 9 85h195c-36 -22 -86 -46 -128 -63l26 -25h-527v-304h696v304h-125c44 19 93 43 121 62l-24 26h118v63h-339c16 68 42 130 70 182c45 -47 82 -101 110 -160z" />
</svg>
