<?xml version="1.0" standalone="no"?>
<!DOCTYPE svg PUBLIC "-//W3C//DTD SVG 1.1//EN" "http://www.w3.org/Graphics/SVG/1.1/DTD/svg11.dtd" >
<svg xmlns="http://www.w3.org/2000/svg" xmlns:xlink="http://www.w3.org/1999/xlink" version="1.1" viewBox="-10 0 1010 1000">
   <path fill="currentColor"
d="M926 122l-40 44c-33 -23 -97 -60 -145 -86l38 -39c47 23 112 59 147 81zM288 201h-138v217h138v-217zM150 711h138v-227h-138v227zM357 133v645h-207v78h-69v-723h276zM850 412h-152v104h152v-104zM698 682h152v-104h-152v104zM486 682h142v-104h-142v104zM628 412h-142
v104h142v-104zM949 249h-251v98h223v529c0 36 -6 55 -30 68c-24 12 -60 13 -117 13c-2 -19 -11 -49 -21 -68c38 1 72 1 82 1c12 -1 15 -5 15 -16v-130h-152v203h-70v-203h-142v212h-69v-609h211v-98h-249v-68h249v-137h70v137h251v68z" />
</svg>
