<?xml version="1.0" standalone="no"?>
<!DOCTYPE svg PUBLIC "-//W3C//DTD SVG 1.1//EN" "http://www.w3.org/Graphics/SVG/1.1/DTD/svg11.dtd" >
<svg xmlns="http://www.w3.org/2000/svg" xmlns:xlink="http://www.w3.org/1999/xlink" version="1.1" viewBox="-10 0 1010 1000">
   <path fill="currentColor"
d="M762 200v-63h-526v63h526zM762 321v-66h-526v66h526zM835 79v299h-671v-299h671zM798 548h-162c-4 9 -8 17 -12 25c22 57 53 109 90 155c38 -50 66 -110 84 -180zM950 548h-77c-24 93 -60 169 -109 232c55 51 124 90 202 114c-16 14 -37 43 -47 62
c-79 -27 -146 -69 -203 -124c-56 54 -124 95 -205 127c-9 -14 -34 -45 -49 -59c83 -28 152 -67 206 -120c-32 -40 -61 -85 -84 -135c-17 27 -36 52 -55 73c-11 -12 -36 -33 -52 -45v5h-150v129l174 -27l2 61c-157 28 -325 57 -446 77l-15 -69c21 -3 45 -6 70 -10v-264h67
v254l78 -12v-310h-182v-60h434v60h-182v111h150v48c61 -65 110 -163 137 -265l70 16c-7 23 -15 47 -24 70h290v61z" />
</svg>
