<?xml version="1.0" standalone="no"?>
<!DOCTYPE svg PUBLIC "-//W3C//DTD SVG 1.1//EN" "http://www.w3.org/Graphics/SVG/1.1/DTD/svg11.dtd" >
<svg xmlns="http://www.w3.org/2000/svg" xmlns:xlink="http://www.w3.org/1999/xlink" version="1.1" viewBox="-10 0 1010 1000">
   <path fill="currentColor"
d="M478 699h130v-96h-130v96zM702 232h-104c-33 64 -73 121 -120 169h130v-88h67v88h135c-43 -49 -81 -108 -108 -169zM675 460v89h139v-89h-139zM478 460v89h130v-89h-130zM675 699h139v-96h-139v96zM144 704h121v-228h-121v228zM265 192h-121v219h121v-219zM720 889h135
c32 0 38 -21 42 -117c15 11 41 23 61 27c-8 118 -28 152 -99 152h-145c-84 0 -106 -21 -106 -105v-88h-130v42h-65v-340c-14 11 -29 22 -44 32c-8 -11 -24 -28 -38 -42v320h-187v79h-65v-723h252v301c77 -48 140 -114 187 -195h-162v-67h196c17 -38 31 -80 42 -123l72 13
c-10 39 -23 75 -37 110h323v67h-179c45 85 117 165 194 205c-16 14 -37 39 -49 56c-13 -8 -26 -17 -38 -26v291h-205v88c0 36 7 43 45 43z" />
</svg>
