<?xml version="1.0" standalone="no"?>
<!DOCTYPE svg PUBLIC "-//W3C//DTD SVG 1.1//EN" "http://www.w3.org/Graphics/SVG/1.1/DTD/svg11.dtd" >
<svg xmlns="http://www.w3.org/2000/svg" xmlns:xlink="http://www.w3.org/1999/xlink" version="1.1" viewBox="-10 0 1010 1000">
   <path fill="currentColor"
d="M948 252h-280c-21 55 -46 103 -75 142c-10 -11 -34 -32 -49 -43c59 -74 96 -187 116 -306l61 12c-8 45 -18 89 -31 131h258v64zM508 173l-59 27c-11 -37 -37 -94 -58 -138l56 -23c24 42 49 98 61 134zM230 179h-94v222h94v-222zM136 694h94v-228h-94v228zM288 761h-152
v80h-57v-728h209v648zM560 402v33c-8 337 -15 448 -36 483c-14 20 -29 27 -51 30c-19 1 -48 2 -78 1c-1 -20 -7 -46 -16 -64c29 4 56 4 68 4c11 0 18 -2 25 -14c14 -22 21 -122 28 -406h-77c-10 207 -38 376 -126 489c-9 -15 -31 -34 -47 -43c108 -135 117 -368 119 -648
h-62v-62h282v62h-160c-1 46 -2 91 -3 135h134zM732 876h137c29 0 34 -15 38 -96c14 10 37 21 54 24c-7 103 -25 133 -88 133h-146c-75 0 -96 -19 -96 -97v-265l-43 21l-24 -54l67 -32v-146h57v118l64 -30v-153h52v129l70 -35l8 -7l10 -8l38 16l-3 10c-1 134 -2 264 -5 289
c-4 28 -19 44 -40 48c-18 5 -40 5 -58 4c-2 -15 -6 -36 -12 -49c13 1 32 1 40 1c9 0 16 -3 18 -19c3 -14 4 -106 4 -220l-70 34v312h-52v-286l-64 30v292c0 31 6 36 44 36z" />
</svg>
