<?xml version="1.0" standalone="no"?>
<!DOCTYPE svg PUBLIC "-//W3C//DTD SVG 1.1//EN" "http://www.w3.org/Graphics/SVG/1.1/DTD/svg11.dtd" >
<svg xmlns="http://www.w3.org/2000/svg" xmlns:xlink="http://www.w3.org/1999/xlink" version="1.1" viewBox="-10 0 1010 1000">
   <path fill="currentColor"
d="M762 169v-48h-528v48h528zM762 262v-49h-528v49h528zM835 75v234h-672v-234h672zM245 729h217v-50h-217v50zM245 589v49h217v-49h-217zM753 589h-220v49h220v-49zM753 729v-50h-220v50h220zM943 818v56h-410v81h-71v-81h-402v-56h402v-46h-285v-226h285v-46h-276v-49h276
v-46h-313v100h-68v-154h837v154h-70v-100h-315v46h280v49h-280v46h291v226h-291v46h410z" />
</svg>
