<?xml version="1.0" standalone="no"?>
<!DOCTYPE svg PUBLIC "-//W3C//DTD SVG 1.1//EN" "http://www.w3.org/Graphics/SVG/1.1/DTD/svg11.dtd" >
<svg xmlns="http://www.w3.org/2000/svg" xmlns:xlink="http://www.w3.org/1999/xlink" version="1.1" viewBox="-10 0 1010 1000">
   <path fill="currentColor"
d="M273 184h-131v223h131v-223zM142 698h131v-225h-131v225zM338 765h-196v75h-66v-724h262v649zM917 204l47 43c-41 31 -90 58 -130 79c35 48 77 86 126 113c-16 13 -38 39 -49 58c-29 -17 -56 -40 -81 -64v45h-149v40c0 22 -1 48 -4 74h239v68h-251c93 75 208 175 266 237
l-51 53c-52 -59 -152 -151 -240 -226c-39 79 -112 163 -254 233c-12 -16 -34 -39 -52 -51c159 -73 227 -164 255 -246h-218v-68h234c4 -27 5 -53 5 -75v-39h-148v-37c-25 23 -50 44 -78 60c-10 -15 -28 -40 -43 -53c47 -26 92 -68 130 -121c-28 -26 -68 -57 -103 -79l40 -45
c32 19 69 45 97 69c22 -39 39 -81 52 -126h-157v-62h182l12 -3l43 15c-26 130 -79 236 -146 314h318c-73 -85 -121 -204 -151 -341l64 -13c8 35 17 70 28 102c32 -23 67 -54 89 -76l47 43c-37 31 -81 62 -117 83c11 27 24 51 37 75c39 -25 84 -56 111 -79z" />
</svg>
