<?xml version="1.0" standalone="no"?>
<!DOCTYPE svg PUBLIC "-//W3C//DTD SVG 1.1//EN" "http://www.w3.org/Graphics/SVG/1.1/DTD/svg11.dtd" >
<svg xmlns="http://www.w3.org/2000/svg" xmlns:xlink="http://www.w3.org/1999/xlink" version="1.1" viewBox="-10 0 1010 1000">
   <path fill="currentColor"
d="M941 159h-746v226c0 165 -12 405 -96 569c-13 -11 -43 -29 -62 -36c81 -157 89 -376 89 -533v-294h815v68zM355 566v-161c-34 59 -76 113 -116 146c-10 -15 -29 -36 -43 -47c53 -36 109 -106 145 -175h-114v-60h128v-86h63v86h116v60h-116v19c26 17 95 67 112 82l-38 49
c-14 -17 -46 -46 -74 -71v158h-63zM774 652h-415v78h415v-78zM359 864h415v-81h-415v81zM288 956v-361h559v359h-73v-32h-415v34h-71zM927 329h-139c38 67 101 132 167 163c-14 12 -34 34 -43 50c-57 -33 -111 -93 -150 -159v183h-64v-184c-39 67 -91 129 -141 165
c-10 -16 -30 -38 -44 -48c59 -34 121 -102 160 -170h-108v-60h133v-86h64v86h165v60z" />
</svg>
