<?xml version="1.0" standalone="no"?>
<!DOCTYPE svg PUBLIC "-//W3C//DTD SVG 1.1//EN" "http://www.w3.org/Graphics/SVG/1.1/DTD/svg11.dtd" >
<svg xmlns="http://www.w3.org/2000/svg" xmlns:xlink="http://www.w3.org/1999/xlink" version="1.1" viewBox="-10 0 1010 1000">
   <path fill="currentColor"
d="M506 199v51h-450v-51h190v-58h-149v-48h149v-50h68v50h152v48h-152v58h192zM335 287l27 -36c50 23 113 58 145 82l-27 42c-33 -25 -95 -62 -145 -88zM203 252l38 40c-48 34 -112 67 -159 88l-30 -35c45 -22 113 -64 151 -93zM484 485l-2 52c-154 14 -313 26 -427 35
l-4 -56c53 -3 121 -7 195 -13v-77h-153v-49h153v-49h68v49h155v49h-155v72c55 -4 113 -8 170 -13zM743 636h-475v83h475v-83zM268 862h475v-88h-475v88zM194 957v-378h626v374h-77v-34h-475v38h-74zM704 155h165c0 218 0 378 40 378c12 0 17 -53 18 -123c13 15 31 31 44 40
c-6 106 -18 147 -68 147c-91 0 -98 -155 -101 -381h-103c-4 48 -11 92 -21 132c41 25 77 53 100 76l-34 54c-20 -21 -51 -46 -85 -69c-27 64 -68 116 -132 155c-9 -14 -28 -38 -43 -48c60 -36 97 -83 120 -144c-30 -17 -60 -35 -89 -49l34 -47c23 11 48 24 71 38
c7 -31 12 -63 15 -98h-105v-61h109c2 -35 3 -72 4 -112h65c-1 39 -2 77 -4 112z" />
</svg>
