<?xml version="1.0" standalone="no"?>
<!DOCTYPE svg PUBLIC "-//W3C//DTD SVG 1.1//EN" "http://www.w3.org/Graphics/SVG/1.1/DTD/svg11.dtd" >
<svg xmlns="http://www.w3.org/2000/svg" xmlns:xlink="http://www.w3.org/1999/xlink" version="1.1" viewBox="-10 0 1010 1000">
   <path fill="currentColor"
d="M960 378l-43 46c-19 -37 -52 -90 -84 -139c-22 53 -49 99 -83 137c-9 -11 -33 -33 -48 -43c73 -75 107 -191 123 -330l62 7c-7 57 -17 111 -30 160c39 55 82 121 103 162zM749 290l-36 54c-13 -18 -35 -44 -59 -69c-19 63 -45 118 -77 163c-11 -10 -37 -30 -52 -39
c65 -81 97 -209 114 -350l60 7c-6 54 -15 105 -26 153c29 29 59 59 76 81zM473 47l64 18c-40 94 -102 192 -162 256c-10 -12 -34 -36 -48 -47c56 -58 112 -144 146 -227zM250 187h-108v216h108v-216zM142 692h108v-223h-108v223zM311 121v637h-169v72h-61v-709h230zM489 248
l61 17c-19 54 -42 108 -68 160v532h-62v-427c-18 27 -37 52 -56 74c-8 -14 -29 -44 -41 -58c67 -74 128 -186 166 -298zM858 879h109c-9 16 -17 46 -20 65h-92c-104 0 -189 -30 -242 -171c-17 72 -44 137 -83 185c-11 -15 -31 -34 -47 -44c76 -94 94 -268 99 -422h64
c-2 58 -6 118 -14 176c20 87 50 139 87 170v-414h64v171h144v65h-144v210c24 7 49 9 75 9z" />
</svg>
