<?xml version="1.0" standalone="no"?>
<!DOCTYPE svg PUBLIC "-//W3C//DTD SVG 1.1//EN" "http://www.w3.org/Graphics/SVG/1.1/DTD/svg11.dtd" >
<svg xmlns="http://www.w3.org/2000/svg" xmlns:xlink="http://www.w3.org/1999/xlink" version="1.1" viewBox="-10 0 1010 1000">
   <path fill="currentColor"
d="M828 59l62 28c-34 45 -73 95 -105 126l-48 -22c30 -36 70 -94 91 -132zM548 184l-57 32c-17 -32 -52 -85 -80 -124l55 -27c29 37 65 88 82 119zM612 487v-172c-62 65 -147 124 -221 159c-10 -17 -31 -41 -46 -52c75 -29 162 -84 220 -142h-197v-63h244v-174h72v174h250
v63h-210c60 57 152 109 232 135c-16 13 -36 37 -47 55c-77 -33 -163 -91 -225 -155v172h-72zM253 179h-114v222h114v-222zM139 694h114v-228h-114v228zM315 113v648h-176v80h-61v-728h237zM608 542l38 13c-41 198 -145 334 -268 403c-8 -15 -26 -36 -39 -48
c56 -28 109 -75 152 -135c-20 -21 -50 -46 -75 -63l38 -38c23 15 48 34 69 51c21 -38 39 -79 52 -123h-105c-29 53 -65 99 -103 135c-9 -9 -32 -32 -46 -42c65 -57 115 -141 143 -233l61 13c-8 23 -16 47 -26 69h97zM862 599v149h92v60h-92v148h-67v-148h-150
c9 -50 19 -126 25 -184l61 3c-4 40 -11 83 -18 121h82v-149h-136v-56h136v-75h67v75h79v56h-79z" />
</svg>
