<?xml version="1.0" standalone="no"?>
<!DOCTYPE svg PUBLIC "-//W3C//DTD SVG 1.1//EN" "http://www.w3.org/Graphics/SVG/1.1/DTD/svg11.dtd" >
<svg xmlns="http://www.w3.org/2000/svg" xmlns:xlink="http://www.w3.org/1999/xlink" version="1.1" viewBox="-10 0 1010 1000">
   <path fill="currentColor"
d="M715 464v-78c-36 75 -100 127 -211 162c-6 -15 -23 -40 -36 -52c122 -36 179 -91 206 -178h-174c13 -41 25 -101 35 -150l58 5c-6 29 -13 61 -20 90h114c6 -36 10 -77 12 -122h-190v-55h417v55h-163c-2 44 -6 86 -12 122h191v55h-202c-3 9 -5 18 -8 26h44v120
c0 19 4 21 27 21h75c20 0 25 -8 27 -76c12 10 37 17 53 21c-5 87 -22 109 -72 109h-91c-65 0 -80 -16 -80 -75zM264 711v61h486v-61h-486zM264 609v60h486v-60h-486zM193 817v-253h630v253h-630zM397 191v-47h-245v47h245zM397 279v-50h-245v50h245zM461 103v216h-370v-216
h124c13 -22 27 -46 35 -64l73 12c-13 19 -25 36 -37 52h175zM180 497l265 -41c-2 14 -3 35 -2 47c-292 47 -325 54 -345 64c-5 -15 -19 -39 -30 -52c18 -8 47 -26 47 -62v-131h65v51h266v47h-266v77zM57 925v-60h888v60h-888z" />
</svg>
