<?xml version="1.0" standalone="no"?>
<!DOCTYPE svg PUBLIC "-//W3C//DTD SVG 1.1//EN" "http://www.w3.org/Graphics/SVG/1.1/DTD/svg11.dtd" >
<svg xmlns="http://www.w3.org/2000/svg" xmlns:xlink="http://www.w3.org/1999/xlink" version="1.1" viewBox="-10 0 1010 1000">
   <path fill="currentColor"
d="M739 308v75h85v-75h-85zM739 179v74h85v-74h-85zM522 748l-31 -52c49 -23 116 -61 186 -100v-157h-135v-56h135v-75h-179v-55h179v-74h-132v-57h132v-77h62v77h143v131h59v55h-59v131h-143v103l35 33c35 -33 75 -76 99 -108l50 32c-35 38 -77 79 -114 110
c45 46 90 91 117 122l-40 41c-33 -40 -91 -103 -147 -159v148c0 33 -8 47 -29 57c-20 9 -52 11 -102 10c-3 -15 -11 -38 -19 -53c33 1 64 1 73 0c11 0 15 -3 15 -15v-104c-54 32 -108 65 -155 92zM524 498l44 -28c36 34 81 81 103 108l-45 32c-22 -29 -67 -77 -102 -112z
M472 259l-62 24c-15 -49 -51 -130 -83 -191l58 -20c33 60 71 140 87 187zM225 179h-90v222h90v-222zM135 694h90v-228h-90v228zM285 761h-150v80h-58v-728h208v648zM470 385v394c18 12 36 30 63 51c50 36 108 49 193 49c68 0 169 -5 237 -14c-7 19 -17 54 -18 74
c-49 3 -162 7 -221 7c-90 0 -151 -16 -207 -57c-34 -28 -63 -60 -82 -60c-27 0 -66 61 -105 129l-46 -62c43 -59 85 -105 122 -122v-324h-82v-65h146z" />
</svg>
