<?xml version="1.0" standalone="no"?>
<!DOCTYPE svg PUBLIC "-//W3C//DTD SVG 1.1//EN" "http://www.w3.org/Graphics/SVG/1.1/DTD/svg11.dtd" >
<svg xmlns="http://www.w3.org/2000/svg" xmlns:xlink="http://www.w3.org/1999/xlink" version="1.1" viewBox="-10 0 1010 1000">
   <path fill="currentColor"
d="M747 166v-49h-508v49h508zM747 261v-50h-508v50h508zM822 71v236h-656v-236h656zM311 461v-42h-233v-53h233v-46h72v46h228v-46h72v46h230v53h-230v42h-72v-42h-228v42h-72zM333 700h129v-62h-129v62zM333 527v58h129v-58h-129zM661 585v-58h-126v58h126zM661 700v-62
h-126v62h126zM937 805v53h-402v99h-73v-99h-396v-53h396v-53h-337v-52h138v-62h-178v-53h178v-58h-136v-54h748v54h-144v58h187v53h-187v62h152v52h-348v53h402z" />
</svg>
