<?xml version="1.0" standalone="no"?>
<!DOCTYPE svg PUBLIC "-//W3C//DTD SVG 1.1//EN" "http://www.w3.org/Graphics/SVG/1.1/DTD/svg11.dtd" >
<svg xmlns="http://www.w3.org/2000/svg" xmlns:xlink="http://www.w3.org/1999/xlink" version="1.1" viewBox="-10 0 1010 1000">
   <path fill="currentColor"
d="M717 602l-21 -46c51 -9 135 -36 181 -50l27 54c-54 19 -133 35 -187 42zM689 674l20 -50c77 9 164 30 215 50l-24 54c-52 -21 -134 -43 -211 -54zM803 234v-51h-327v51h327zM803 328v-51h-327v51h327zM803 423v-52h-327v52h327zM876 134v338h-471v-338h168
c9 -28 16 -62 22 -90l82 7c-9 28 -19 57 -30 83h229zM575 555l-23 52c-41 -15 -119 -38 -178 -50l23 -47c56 9 135 29 178 45zM578 625l1 52c-70 20 -143 41 -200 57l-18 -60c54 -11 137 -30 217 -49zM257 179h-118v222h118v-222zM139 694h118v-228h-118v228zM319 113v648
h-180v80h-61v-728h241zM944 759v60h-273v138h-71v-138h-253v-60h253v-270h71v270h273z" />
</svg>
