<?xml version="1.0" standalone="no"?>
<!DOCTYPE svg PUBLIC "-//W3C//DTD SVG 1.1//EN" "http://www.w3.org/Graphics/SVG/1.1/DTD/svg11.dtd" >
<svg xmlns="http://www.w3.org/2000/svg" xmlns:xlink="http://www.w3.org/1999/xlink" version="1.1" viewBox="-10 0 1010 1000">
   <path fill="currentColor"
d="M553 264v-82h-160v82h160zM553 398v-82h-160v82h160zM615 128v325h-281v-325h90c7 -29 12 -61 16 -85l71 8c-8 25 -16 52 -24 77h128zM232 179h-96v222h96v-222zM136 694h96v-228h-96v228zM289 761h-153v80h-57v-728h210v648zM457 668h158s0 18 -1 28
c-11 151 -21 210 -41 232c-13 14 -27 20 -48 22c-18 1 -49 2 -82 0c-1 -18 -7 -41 -14 -57c30 3 56 4 68 4c11 0 19 -2 25 -9c10 -13 20 -56 28 -163h-100c-17 103 -53 181 -134 233c-7 -15 -27 -36 -40 -47c97 -60 118 -163 124 -312h-86v-60h138c-10 -23 -21 -49 -32 -69
l61 -15c13 26 29 58 40 84h119v60h-178c-1 24 -3 47 -5 69zM848 313h-116c-1 7 -3 14 -5 21c13 102 33 200 60 287c30 -90 48 -195 61 -308zM955 313h-49c-16 148 -42 285 -85 397c33 81 76 148 131 193c-16 13 -38 37 -50 56c-46 -44 -84 -102 -116 -171
c-35 70 -79 127 -132 168c-11 -17 -31 -39 -49 -52c64 -44 113 -111 150 -196c-27 -80 -48 -169 -64 -266c-11 29 -24 56 -39 79c-10 -11 -34 -36 -48 -47c63 -102 93 -262 110 -430l63 8c-8 67 -17 132 -30 194h208v67z" />
</svg>
