<?xml version="1.0" standalone="no"?>
<!DOCTYPE svg PUBLIC "-//W3C//DTD SVG 1.1//EN" "http://www.w3.org/Graphics/SVG/1.1/DTD/svg11.dtd" >
<svg xmlns="http://www.w3.org/2000/svg" xmlns:xlink="http://www.w3.org/1999/xlink" version="1.1" viewBox="-10 0 1010 1000">
   <path fill="currentColor"
d="M854 291h-97c-3 11 -6 23 -9 34c13 94 30 185 54 269c25 -89 41 -191 52 -303zM480 546h-80v152h80v-152zM134 702h92v-229h-92v229zM226 190h-92v220h92v-220zM958 291h-41c-15 155 -39 288 -81 401c35 90 81 165 138 212c-14 12 -36 36 -47 52
c-51 -46 -92 -110 -125 -186c-37 73 -85 136 -147 189c-7 -14 -27 -42 -40 -55c70 -56 119 -128 155 -216c-25 -75 -44 -159 -60 -247c-13 34 -29 66 -46 95c-4 -8 -14 -20 -23 -31c-8 281 -18 377 -39 409c-15 22 -31 29 -55 31c-20 2 -51 2 -82 0c-1 -16 -7 -41 -16 -56
c32 2 60 3 74 2c12 1 19 -1 26 -13c18 -26 27 -140 35 -463h-178c-11 28 -24 55 -38 80h162v255h-130v56h-50v-280c-7 12 -15 23 -23 33c-9 -7 -27 -18 -41 -27v233h-152v84h-59v-722h211v382c46 -63 79 -148 98 -236l13 2v-74h-81v-60h81v-97h60v97h82v-97h60v97h72v60h-72
v85h-60v-85h-82v83h-15l5 1c-6 24 -12 47 -19 70h216v31l-1 54c49 -105 75 -248 91 -396l64 9c-7 60 -16 119 -28 175h188v63z" />
</svg>
