<?xml version="1.0" standalone="no"?>
<!DOCTYPE svg PUBLIC "-//W3C//DTD SVG 1.1//EN" "http://www.w3.org/Graphics/SVG/1.1/DTD/svg11.dtd" >
<svg xmlns="http://www.w3.org/2000/svg" xmlns:xlink="http://www.w3.org/1999/xlink" version="1.1" viewBox="-10 0 1010 1000">
   <path fill="currentColor"
d="M520 507v-100h58v100c0 19 4 21 36 21h104c23 0 28 -6 31 -63c12 9 35 17 52 21c-6 76 -23 95 -76 95h-117c-71 0 -88 -14 -88 -74zM722 429l-40 37c-23 -28 -71 -68 -112 -91l38 -32c43 21 91 60 114 86zM950 549l-50 31c-22 -42 -71 -105 -118 -149l47 -28
c48 43 99 103 121 146zM865 57l45 54c-141 28 -358 46 -539 52c-2 -15 -10 -40 -18 -54c178 -9 391 -28 512 -52zM415 341v96h-64v-155h96c-8 -29 -27 -67 -47 -96l55 -18c23 32 45 75 53 103l-30 11h139c-3 -30 -17 -76 -35 -112l59 -13c18 35 33 80 36 110l-56 15h145
c24 -39 53 -95 68 -134l67 21c-23 38 -47 79 -69 113h113v155h-66v-96h-464zM434 411l52 21c-17 51 -45 109 -88 144l-50 -32c40 -31 71 -86 86 -133zM256 172h-117v219h117v-219zM139 684h117v-228h-117v228zM320 750h-181v79h-61v-723h242v644zM768 697h-245
c28 41 68 76 117 105c52 -28 96 -63 128 -105zM822 642l43 22c-37 72 -93 128 -162 171c75 33 165 54 264 64c-14 15 -31 42 -41 61c-110 -16 -208 -45 -288 -89c-89 42 -192 69 -299 85c-6 -16 -19 -43 -32 -59c95 -11 189 -32 269 -65c-40 -29 -75 -64 -102 -103
c-35 27 -72 51 -107 70c-10 -12 -34 -36 -48 -47c88 -42 176 -105 226 -178l61 20c-12 17 -26 35 -41 51h245z" />
</svg>
