<?xml version="1.0" standalone="no"?>
<!DOCTYPE svg PUBLIC "-//W3C//DTD SVG 1.1//EN" "http://www.w3.org/Graphics/SVG/1.1/DTD/svg11.dtd" >
<svg xmlns="http://www.w3.org/2000/svg" xmlns:xlink="http://www.w3.org/1999/xlink" version="1.1" viewBox="-10 0 1010 1000">
   <path fill="currentColor"
d="M485 382l43 -14c17 29 37 68 45 93l-43 18c-7 -26 -26 -66 -45 -97zM748 477l-37 -16c15 -28 34 -70 43 -97l47 20c-19 34 -37 69 -53 93zM850 491v-140h-182v140h182zM445 351v140h166v-140h-166zM604 305v-52h-273v-56h273v-59c-77 6 -155 11 -227 14
c-2 -16 -10 -38 -16 -52c173 -8 382 -26 498 -50l45 51c-64 13 -143 23 -228 31v65h273v56h-273v52h237v232h-237v51h244v52h-244v61h278v59h-621v-59h271v-61h-224v-52h224v-51h-219v-232h219zM245 179h-106v222h106v-222zM139 694h106v-228h-106v228zM307 761h-168v80h-61
v-728h229v648zM339 955l-55 -36c50 -35 90 -95 111 -148l57 24c-24 56 -60 121 -113 160zM506 799l59 -8c15 47 29 110 32 147l-63 12c-3 -38 -15 -102 -28 -151zM638 800l56 -16c28 45 61 105 74 144l-59 20c-12 -39 -41 -102 -71 -148zM779 796l57 -26
c47 48 103 115 129 159l-59 30c-26 -43 -81 -113 -127 -163z" />
</svg>
