<?xml version="1.0" standalone="no"?>
<!DOCTYPE svg PUBLIC "-//W3C//DTD SVG 1.1//EN" "http://www.w3.org/Graphics/SVG/1.1/DTD/svg11.dtd" >
<svg xmlns="http://www.w3.org/2000/svg" xmlns:xlink="http://www.w3.org/1999/xlink" version="1.1" viewBox="-10 0 1010 1000">
   <path fill="currentColor"
d="M694 145v-34h-381v34h381zM694 220v-36h-381v36h381zM768 69v193h-527v-193h527zM593 410v35h233v-35h-233zM593 335v35h233v-35h-233zM526 487v-194h370v194h-370zM399 370v-35h-224v35h224zM399 445v-35h-224v35h224zM469 293v194h-361v-194h361zM811 747h-249
c26 29 59 54 100 75c51 -21 112 -51 149 -75zM496 747h-138v130l226 -32c-3 15 -5 38 -6 51c-249 40 -283 47 -302 57v1h-1v-3c-5 -16 -19 -40 -29 -53c19 -9 49 -30 49 -72v-79h-92c-14 74 -44 150 -108 209c-12 -14 -40 -38 -56 -47c88 -81 103 -188 103 -270v-111h763v47
h-693v65c0 20 -1 42 -3 63h727v44h-121l56 25c-47 28 -106 54 -157 75c69 27 151 45 242 54c-14 14 -31 38 -38 56c-191 -26 -343 -93 -422 -210zM832 660h-564v-42h564v42z" />
</svg>
