<?xml version="1.0" standalone="no"?>
<!DOCTYPE svg PUBLIC "-//W3C//DTD SVG 1.1//EN" "http://www.w3.org/Graphics/SVG/1.1/DTD/svg11.dtd" >
<svg xmlns="http://www.w3.org/2000/svg" xmlns:xlink="http://www.w3.org/1999/xlink" version="1.1" viewBox="-10 0 1010 1000">
   <path fill="currentColor"
d="M260 182h-118v218h118v-218zM142 694h118v-228h-118v228zM322 760h-180v78h-63v-722h243v644zM450 249v203c0 148 -16 360 -122 503c-11 -13 -38 -36 -53 -43c98 -135 109 -322 109 -460v-257h219v-151h71v54h217v49h-217v48h225l12 -2l44 11c-12 46 -25 98 -37 133
l-55 -13c6 -21 12 -47 18 -75h-231v51l170 -16l5 46l-175 16v20c0 21 7 24 44 24h135c26 0 31 -7 34 -51c14 8 37 15 54 19c-6 63 -24 80 -81 80h-148c-81 0 -102 -14 -102 -72v-13l-106 10l-6 -47l112 -10v-57h-136zM557 596v48h106v-48h-106zM557 510v46h106v-46h-106z
M830 556v-46h-110v46h110zM830 644v-48h-110v48h110zM499 685v-216h391v216h-391zM529 774v103h75v-103h-75zM727 774h-74v103h74v-103zM852 774h-76v103h76v-103zM913 877h47v57h-549v-57h60v-152h442v152z" />
</svg>
