<?xml version="1.0" standalone="no"?>
<!DOCTYPE svg PUBLIC "-//W3C//DTD SVG 1.1//EN" "http://www.w3.org/Graphics/SVG/1.1/DTD/svg11.dtd" >
<svg xmlns="http://www.w3.org/2000/svg" xmlns:xlink="http://www.w3.org/1999/xlink" version="1.1" viewBox="-10 0 1010 1000">
   <path fill="currentColor"
d="M956 352v49h-623v-49h268v-52h-214v-48h214v-52h-242v-49h138c-12 -25 -36 -61 -57 -86l56 -23c24 27 52 65 64 90l-42 19h187c24 -33 49 -76 64 -108l68 21c-19 29 -41 61 -60 87h138v49h-247v52h232v48h-232v52h288zM248 179h-109v222h109v-222zM139 694h109v-228h-109
v228zM310 113v648h-171v80h-61v-728h232zM764 444l35 -36c42 19 94 49 122 72l-37 41c-26 -23 -77 -56 -120 -77zM887 588l48 28c-29 69 -74 139 -126 199c23 52 50 81 79 81c19 -1 26 -30 29 -102c14 12 33 24 49 29c-10 103 -30 132 -82 132c-46 0 -86 -34 -118 -95
c-36 34 -75 64 -114 85c-10 -16 -28 -33 -45 -45c-5 18 -11 28 -18 35c-13 12 -26 16 -47 18c-17 1 -51 1 -85 -2c-1 -14 -6 -34 -13 -47c33 4 64 4 76 4c13 0 20 -1 26 -6c7 -9 14 -28 20 -70h-195c12 -27 22 -60 32 -92h-64v-47h325v47h-207c-4 16 -8 31 -13 46h182
s-1 16 -3 23c-5 41 -9 69 -15 89c46 -23 91 -56 132 -96c-24 -63 -41 -143 -51 -233h-156c27 13 106 48 126 61l-29 41c-18 -15 -62 -40 -97 -60v73h-55v-84c-39 35 -89 71 -129 91c-10 -13 -26 -30 -38 -40c44 -17 96 -50 136 -82h-119v-48h150v-42c-42 2 -84 4 -122 4
c-2 -12 -8 -28 -15 -40c96 -3 214 -12 279 -25l34 39c-34 6 -75 12 -121 17v47h151c-3 -33 -5 -67 -6 -103h62c1 36 2 70 5 103h208v48h-204c8 72 21 133 36 184c43 -51 79 -109 102 -165z" />
</svg>
