<?xml version="1.0" standalone="no"?>
<!DOCTYPE svg PUBLIC "-//W3C//DTD SVG 1.1//EN" "http://www.w3.org/Graphics/SVG/1.1/DTD/svg11.dtd" >
<svg xmlns="http://www.w3.org/2000/svg" xmlns:xlink="http://www.w3.org/1999/xlink" version="1.1" viewBox="-10 0 1010 1000">
   <path fill="currentColor"
d="M408 210v105h-63v-157h104c-12 -25 -30 -57 -48 -81l56 -22c22 29 48 68 59 93l-23 10h106v-114h72v114h90l-11 -5c18 -28 44 -71 57 -102l67 24c-19 29 -41 59 -60 83h127v157h-65v-105h-468zM504 296v54h273v-54h-273zM845 392h-405v-139h405v139zM475 495l41 -17
c15 22 34 52 42 72l-40 20c-8 -20 -26 -52 -43 -75zM431 573h172v-100h-172v100zM847 573v-100h-83l39 21c-19 29 -38 57 -55 78l-35 -20c16 -22 37 -56 49 -79h-94v100h179zM948 755v50h-623v-50h278v-51h-239v-46h239v-42h-229v-187h532v187h-238v42h238v46h-238v51h280z
M245 187h-105v216h105v-216zM140 692h105v-223h-105v223zM307 758h-167v73h-61v-710h228v637zM352 958l-53 -32c43 -24 79 -66 97 -105l55 22c-23 42 -53 87 -99 115zM518 843l56 -11c13 34 27 78 30 105l-59 14c-3 -28 -15 -73 -27 -108zM664 844l53 -17
c19 32 42 75 51 103l-55 20c-9 -28 -30 -72 -49 -106zM806 840l53 -24c36 33 80 83 100 115l-54 29c-20 -33 -62 -83 -99 -120z" />
</svg>
