<?xml version="1.0" standalone="no"?>
<!DOCTYPE svg PUBLIC "-//W3C//DTD SVG 1.1//EN" "http://www.w3.org/Graphics/SVG/1.1/DTD/svg11.dtd" >
<svg xmlns="http://www.w3.org/2000/svg" xmlns:xlink="http://www.w3.org/1999/xlink" version="1.1" viewBox="-10 0 1010 1000">
   <path fill="currentColor"
d="M218 546h257c-7 -36 -14 -74 -20 -113h-237v113zM438 263h-220v106h229c-4 -34 -7 -70 -9 -106zM777 263h-266c3 36 6 72 10 106h256v-106zM550 546h227v-113h-248c6 40 13 77 21 113zM737 614l73 31c-43 55 -99 101 -164 140c48 66 108 103 183 103c44 0 58 -32 66 -146
c17 15 43 30 62 36c-15 142 -43 180 -130 180c-106 0 -186 -51 -246 -138c-139 68 -309 108 -480 136c-8 -17 -29 -52 -43 -68c179 -22 353 -62 488 -128c-21 -44 -40 -93 -55 -148h-273v53h-73v-468h289c-2 -49 -4 -100 -4 -151h76c0 52 0 102 2 151h251
c-38 -35 -108 -81 -168 -109l43 -46c61 27 135 71 172 106l-43 49h88v415h-284c12 42 27 79 43 113c51 -32 94 -69 127 -111z" />
</svg>
