<?xml version="1.0" standalone="no"?>
<!DOCTYPE svg PUBLIC "-//W3C//DTD SVG 1.1//EN" "http://www.w3.org/Graphics/SVG/1.1/DTD/svg11.dtd" >
<svg xmlns="http://www.w3.org/2000/svg" xmlns:xlink="http://www.w3.org/1999/xlink" version="1.1" viewBox="-10 0 1010 1000">
   <path fill="currentColor"
d="M256 277v86h497v-86h-497zM256 136v85h497v-85h-497zM331 498h572s0 24 -1 34c-14 263 -28 359 -57 392c-19 22 -39 29 -69 31c-28 3 -82 2 -134 -1c-2 -21 -10 -48 -21 -68c53 5 103 6 121 6c19 0 28 -2 38 -11c19 -22 33 -105 45 -318h-549c-19 20 -41 41 -63 60h49
v187h450v64h-522v-231c-29 24 -62 46 -96 68c-12 -18 -35 -42 -51 -53c117 -67 202 -157 253 -237h-113v-343h646v343h-445c-15 25 -33 52 -53 77zM493 575l64 9c-7 24 -17 47 -30 69c61 29 133 72 172 103l-43 46c-36 -29 -102 -72 -163 -104c-37 43 -87 76 -141 100
c-10 -13 -33 -35 -47 -47c92 -33 164 -90 188 -176z" />
</svg>
