<?xml version="1.0" standalone="no"?>
<!DOCTYPE svg PUBLIC "-//W3C//DTD SVG 1.1//EN" "http://www.w3.org/Graphics/SVG/1.1/DTD/svg11.dtd" >
<svg xmlns="http://www.w3.org/2000/svg" xmlns:xlink="http://www.w3.org/1999/xlink" version="1.1" viewBox="-10 0 1010 1000">
   <path fill="currentColor"
d="M711 680h-414v68h414v-68zM297 869h414v-68h-414v68zM224 955v-328h562v325h-75v-30h-414v33h-73zM643 525l-50 -18c18 -33 44 -86 55 -120l63 20c-22 43 -47 88 -68 118zM290 408l53 -17c26 35 51 81 60 113l-57 21c-8 -32 -31 -80 -56 -117zM230 380v149h236v-149h-236
zM767 529v-149h-238v149h238zM166 580v-252h668v252h-668zM375 225h261c-48 -30 -94 -64 -132 -100c-38 37 -82 71 -129 100zM494 40l65 24c-5 6 -10 13 -14 19c93 91 266 171 422 208c-15 13 -36 39 -47 57c-81 -23 -167 -57 -245 -100v31h-346v-27
c-77 42 -162 76 -245 102c-8 -13 -29 -43 -42 -57c181 -48 358 -136 452 -257z" />
</svg>
