<?xml version="1.0" standalone="no"?>
<!DOCTYPE svg PUBLIC "-//W3C//DTD SVG 1.1//EN" "http://www.w3.org/Graphics/SVG/1.1/DTD/svg11.dtd" >
<svg xmlns="http://www.w3.org/2000/svg" xmlns:xlink="http://www.w3.org/1999/xlink" version="1.1" viewBox="-10 0 1010 1000">
   <path fill="currentColor"
d="M166 285v-48c-32 25 -65 49 -97 68c-6 -15 -24 -49 -36 -63c89 -47 185 -122 239 -202l57 24c-8 12 -16 24 -25 36c70 40 141 88 185 127l-32 57c-47 -42 -123 -96 -193 -137c-30 31 -62 61 -94 87h215v51h-219zM375 683h-209v61h209v-61zM166 857h209v-66h-209v66z
M107 952v-322h329v319h-61v-43h-209v46h-59zM345 520l-29 -12c14 -30 31 -78 38 -108l39 14c-17 38 -35 80 -48 106zM156 411l33 -11c16 33 30 78 35 107l-35 15c-5 -30 -19 -76 -33 -111zM128 385v150h118v-150h-118zM409 535v-150h-117v150h117zM76 586v-251h387v251h-387
zM569 476h91c15 -39 21 -76 23 -105h-114v105zM569 208v105h115v-105h-115zM856 313v-105h-113v105h113zM856 476v-105h-114c-2 26 -8 64 -22 105h136zM956 689v68h-138v199h-68v-199h-284v-68h83c-11 -13 -26 -27 -37 -37c53 -34 90 -74 117 -114h-124v-392h119
c13 -32 27 -73 35 -102l72 13c-13 31 -26 63 -39 89h230v392h-227c-26 53 -66 107 -125 151h180v-127h68v127h138z" />
</svg>
