<?xml version="1.0" standalone="no"?>
<!DOCTYPE svg PUBLIC "-//W3C//DTD SVG 1.1//EN" "http://www.w3.org/Graphics/SVG/1.1/DTD/svg11.dtd" >
<svg xmlns="http://www.w3.org/2000/svg" xmlns:xlink="http://www.w3.org/1999/xlink" version="1.1" viewBox="-10 0 1010 1000">
   <path fill="currentColor"
d="M273 574h468v-168h-457c0 52 -3 109 -11 168zM741 169h-457v166h457v-166zM818 96v752c0 52 -15 78 -52 90c-38 13 -104 14 -211 14c-5 -21 -19 -56 -32 -77c84 3 164 2 187 2c23 -1 31 -8 31 -30v-200h-480c-25 113 -75 226 -172 311c-10 -16 -40 -43 -55 -54
c159 -140 175 -343 175 -502v-306h609z" />
</svg>
