<?xml version="1.0" standalone="no"?>
<!DOCTYPE svg PUBLIC "-//W3C//DTD SVG 1.1//EN" "http://www.w3.org/Graphics/SVG/1.1/DTD/svg11.dtd" >
<svg xmlns="http://www.w3.org/2000/svg" xmlns:xlink="http://www.w3.org/1999/xlink" version="1.1" viewBox="-10 0 1010 1000">
   <path fill="currentColor"
d="M906 114v71h-452v-71h452zM169 553h138v-171h-136v54c0 37 0 76 -2 117zM307 148h-136v166h136v-166zM811 884h61c21 0 25 -21 27 -142c16 13 44 25 65 31c-7 141 -24 179 -85 179h-79c-67 0 -83 -23 -83 -100v-392h-106c-8 245 -33 404 -192 498c-9 -17 -30 -43 -47 -56
c-5 18 -13 30 -29 38c-25 13 -62 14 -126 14c-2 -19 -12 -51 -21 -70c43 1 82 1 94 1c12 -1 17 -6 17 -19v-244h-142c-8 117 -27 241 -70 335c-13 -11 -43 -29 -60 -35c64 -140 68 -338 68 -485v-357h272v787c0 12 -1 23 -3 33c142 -81 161 -220 166 -440h-137v-71h555v71
h-168v392c0 27 3 32 23 32z" />
</svg>
