<?xml version="1.0" standalone="no"?>
<!DOCTYPE svg PUBLIC "-//W3C//DTD SVG 1.1//EN" "http://www.w3.org/Graphics/SVG/1.1/DTD/svg11.dtd" >
<svg xmlns="http://www.w3.org/2000/svg" xmlns:xlink="http://www.w3.org/1999/xlink" version="1.1" viewBox="-10 0 1010 1000">
   <path fill="currentColor"
d="M170 552h130v-171h-128v56c0 35 0 74 -2 115zM300 148h-128v165h128v-165zM368 80v788c0 39 -8 61 -33 74c-24 11 -62 13 -127 13c-2 -18 -12 -51 -21 -69c44 1 84 1 95 0c13 -1 18 -5 18 -18v-248h-134c-8 118 -28 243 -72 338c-12 -12 -42 -28 -59 -34
c66 -140 71 -340 71 -486v-358h262zM861 752l-48 41c-27 -40 -78 -102 -128 -155c-31 69 -75 124 -135 165c-10 -11 -34 -35 -49 -45c97 -59 147 -156 163 -292l64 6c-5 38 -12 73 -21 105c56 56 122 128 154 175zM932 189v680c0 39 -9 60 -34 72c-27 10 -70 12 -137 12
c-3 -18 -13 -48 -22 -66c48 1 92 1 106 1c14 -1 18 -6 18 -19v-613h-160c-2 11 -5 21 -8 31c59 57 128 134 162 182l-49 40c-28 -42 -82 -107 -134 -162c-28 69 -69 123 -128 168c-9 -12 -33 -37 -47 -48c74 -49 116 -119 139 -211h-145v699h-67v-766h225
c5 -39 9 -82 10 -128l65 2c-2 45 -5 87 -11 126h217z" />
</svg>
