<?xml version="1.0" standalone="no"?>
<!DOCTYPE svg PUBLIC "-//W3C//DTD SVG 1.1//EN" "http://www.w3.org/Graphics/SVG/1.1/DTD/svg11.dtd" >
<svg xmlns="http://www.w3.org/2000/svg" xmlns:xlink="http://www.w3.org/1999/xlink" version="1.1" viewBox="-10 0 1010 1000">
   <path fill="currentColor"
d="M875 176l64 36c-41 67 -88 146 -126 198l-46 -30c35 -54 83 -142 108 -204zM537 393l-58 27c-13 -56 -49 -142 -86 -206l54 -26c38 64 75 149 90 205zM166 552h106v-170h-104v55c0 35 0 74 -2 115zM272 148h-104v166h104v-166zM338 80v783c0 37 -7 58 -30 70
c-22 13 -57 14 -117 14c-2 -18 -9 -49 -19 -68c40 1 74 1 84 1c12 -1 16 -5 16 -18v-241h-110c-8 117 -27 240 -69 335c-13 -11 -41 -28 -58 -34c64 -140 68 -339 68 -485v-357h235zM547 486v-431h66v432c0 195 -23 356 -190 470c-10 -16 -34 -41 -49 -52
c128 -86 162 -198 171 -334c-50 42 -101 84 -145 120l-30 -66c46 -30 110 -78 177 -128v-11zM789 880h81c21 0 24 -23 27 -112c16 12 40 24 59 28c-7 111 -24 149 -82 149h-94c-68 0 -85 -23 -85 -113v-778h66v402l5 -5c63 54 140 131 175 182l-46 48
c-27 -42 -81 -102 -134 -153v305c0 40 4 47 28 47z" />
</svg>
