<?xml version="1.0" standalone="no"?>
<!DOCTYPE svg PUBLIC "-//W3C//DTD SVG 1.1//EN" "http://www.w3.org/Graphics/SVG/1.1/DTD/svg11.dtd" >
<svg xmlns="http://www.w3.org/2000/svg" xmlns:xlink="http://www.w3.org/1999/xlink" version="1.1" viewBox="-10 0 1010 1000">
   <path fill="currentColor"
d="M942 294l-57 38c-10 -15 -22 -33 -36 -51c-346 24 -386 28 -412 39c-3 -15 -13 -49 -20 -68c14 -3 33 -17 53 -38c22 -20 94 -100 141 -179l68 24c-45 65 -96 127 -147 177l271 -16c-28 -36 -57 -71 -84 -102l53 -31c57 65 133 154 170 207zM706 354l43 -41
c63 42 148 112 196 165l-46 47c-41 -50 -128 -123 -193 -171zM556 316l61 27c-53 64 -129 141 -190 189c-10 -12 -34 -40 -49 -52c61 -42 131 -107 178 -164zM553 614l-9 10c26 47 66 93 118 135c53 -39 97 -87 128 -145h-237zM163 552h122v-170h-120v55c0 35 -1 74 -2 115z
M285 148h-120v166h120v-166zM837 553l46 23c-35 94 -93 167 -165 223c69 43 153 77 252 97c-14 14 -32 43 -42 63c-106 -26 -195 -68 -267 -119c-84 51 -181 85 -283 107c-6 -17 -20 -41 -32 -58c-3 22 -12 35 -29 44c-23 13 -60 14 -122 14c-3 -18 -10 -49 -19 -68
c43 1 80 1 92 1c12 -1 17 -6 17 -19v-240h-126c-8 117 -27 240 -69 335c-13 -11 -40 -27 -56 -33c63 -140 68 -340 68 -487v-356h246v783c0 8 0 16 -1 21c92 -16 181 -45 258 -89c-44 -40 -80 -83 -105 -128c-30 29 -62 55 -91 76c-11 -12 -36 -39 -50 -51
c87 -55 178 -143 232 -234l63 22c-16 26 -34 51 -52 76h222z" />
</svg>
