<?xml version="1.0" standalone="no"?>
<!DOCTYPE svg PUBLIC "-//W3C//DTD SVG 1.1//EN" "http://www.w3.org/Graphics/SVG/1.1/DTD/svg11.dtd" >
<svg xmlns="http://www.w3.org/2000/svg" xmlns:xlink="http://www.w3.org/1999/xlink" version="1.1" viewBox="-10 0 1010 1000">
   <path fill="currentColor"
d="M934 327h-309c72 169 198 327 336 405c-19 16 -45 43 -57 63c-148 -93 -277 -273 -352 -468h-14v369h232v74h-232v186h-77v-186h-232v-74h232v-369h-16c-77 195 -206 373 -350 471c-12 -18 -36 -45 -53 -59c132 -81 255 -243 328 -412h-302v-74h393v-209h77v209h396v74z
" />
</svg>
