<?xml version="1.0" standalone="no"?>
<!DOCTYPE svg PUBLIC "-//W3C//DTD SVG 1.1//EN" "http://www.w3.org/Graphics/SVG/1.1/DTD/svg11.dtd" >
<svg xmlns="http://www.w3.org/2000/svg" xmlns:xlink="http://www.w3.org/1999/xlink" version="1.1" viewBox="-10 0 1010 1000">
   <path fill="currentColor"
d="M834 193l-48 46c-35 -37 -106 -96 -164 -137l46 -41c57 39 129 95 166 132zM228 484v-96h73v97c0 134 -20 302 -205 424c-11 -16 -37 -41 -53 -53c169 -111 185 -259 185 -372zM933 314h-403v643h-75v-643h-389v-71h389v-199h75v199h403v71zM785 816h91c15 0 40 -2 53 -5
c2 20 4 50 6 67c-13 5 -36 6 -59 6h-91c-78 0 -97 -30 -97 -113v-376h75v378c0 33 3 43 22 43z" />
</svg>
