<?xml version="1.0" standalone="no"?>
<!DOCTYPE svg PUBLIC "-//W3C//DTD SVG 1.1//EN" "http://www.w3.org/Graphics/SVG/1.1/DTD/svg11.dtd" >
<svg xmlns="http://www.w3.org/2000/svg" xmlns:xlink="http://www.w3.org/1999/xlink" version="1.1" viewBox="-10 0 1010 1000">
   <path fill="currentColor"
d="M434 583l-46 61c-18 -33 -63 -95 -100 -144v455h-71v-478c-39 115 -91 226 -145 294c-8 -21 -27 -50 -39 -68c69 -83 140 -238 175 -376h-153v-70h162v-214h71v214h139v70h-139v89c36 37 125 140 146 167zM688 274h250s0 29 -1 38c-10 422 -20 562 -52 604
c-18 27 -37 34 -67 38c-29 3 -76 2 -122 0c-2 -21 -10 -52 -22 -71c48 4 93 4 111 4c17 1 26 -2 34 -15c24 -30 36 -161 45 -527h-180c-15 256 -66 478 -249 613c-11 -17 -37 -42 -56 -55c172 -120 219 -322 232 -558h-161v-71h164c2 -74 2 -150 2 -228h75
c0 77 -1 154 -3 228z" />
</svg>
