<?xml version="1.0" standalone="no"?>
<!DOCTYPE svg PUBLIC "-//W3C//DTD SVG 1.1//EN" "http://www.w3.org/Graphics/SVG/1.1/DTD/svg11.dtd" >
<svg xmlns="http://www.w3.org/2000/svg" xmlns:xlink="http://www.w3.org/1999/xlink" version="1.1" viewBox="-10 0 1010 1000">
   <path fill="currentColor"
d="M374 530l-45 53c-13 -31 -44 -90 -71 -139v512h-68v-484c-33 110 -76 216 -121 281c-7 -21 -25 -53 -38 -71c61 -83 122 -241 152 -377h-135v-70h142v-192h68v192h115v70h-115v47c26 35 100 150 116 178zM838 871h31c9 0 18 -2 24 -7c5 -6 10 -19 11 -35
c2 -26 4 -86 2 -158c14 13 37 25 55 31c-1 63 -4 142 -8 169c-5 29 -14 45 -28 57c-14 11 -35 16 -53 16h-51c-22 0 -43 -5 -59 -20c-15 -14 -20 -30 -20 -84v-493h-144c-1 207 -21 434 -192 613c-14 -14 -43 -36 -62 -46c162 -166 182 -375 183 -567h-114v-71h114v-232h71
v232h214v569c0 9 2 16 7 19c5 4 12 7 19 7z" />
</svg>
