<?xml version="1.0" standalone="no"?>
<!DOCTYPE svg PUBLIC "-//W3C//DTD SVG 1.1//EN" "http://www.w3.org/Graphics/SVG/1.1/DTD/svg11.dtd" >
<svg xmlns="http://www.w3.org/2000/svg" xmlns:xlink="http://www.w3.org/1999/xlink" version="1.1" viewBox="-10 0 1010 1000">
   <path fill="currentColor"
d="M864 396l-51 59c-72 -48 -183 -108 -303 -168c-127 67 -264 125 -390 169c-11 -15 -37 -47 -54 -61c123 -38 249 -88 367 -145c-98 -47 -198 -93 -288 -129l46 -49c98 38 209 87 318 137c94 -52 179 -108 248 -168l62 42c-67 58 -148 113 -234 163
c109 53 209 106 279 150zM270 645l70 25c-65 87 -159 177 -239 236c-11 -14 -39 -43 -55 -55c81 -51 168 -131 224 -206zM938 592h-398v277c0 44 -9 63 -39 75c-29 12 -77 13 -143 13c-4 -21 -16 -52 -27 -73c51 3 100 3 114 2s19 -5 19 -17v-277h-403v-68h403v-116h76v116
h398v68zM656 683l58 -35c82 62 181 149 229 210l-63 40c-46 -60 -143 -151 -224 -215z" />
</svg>
