<?xml version="1.0" standalone="no"?>
<!DOCTYPE svg PUBLIC "-//W3C//DTD SVG 1.1//EN" "http://www.w3.org/Graphics/SVG/1.1/DTD/svg11.dtd" >
<svg xmlns="http://www.w3.org/2000/svg" xmlns:xlink="http://www.w3.org/1999/xlink" version="1.1" viewBox="-10 0 1010 1000">
   <path fill="currentColor"
d="M427 535l-44 71c-19 -36 -62 -105 -98 -159v509h-72v-474c-37 109 -85 213 -135 279c-9 -22 -29 -50 -41 -67c68 -88 136 -250 169 -388h-145v-70h152v-192h72v192h127v70h-127v42c33 40 122 159 142 187zM506 296l56 12c-12 109 -34 241 -82 316l-56 -17
c47 -78 71 -204 82 -311zM930 124v41c-21 519 -41 694 -84 747c-21 30 -43 40 -76 44c-30 3 -79 2 -127 -1c-1 -22 -9 -55 -22 -75c52 4 99 4 120 4c18 1 29 -2 39 -18c36 -39 57 -209 76 -672h-153c-14 382 -67 618 -291 767c-11 -14 -42 -42 -60 -55
c221 -128 268 -356 277 -712h-184v-70h485z" />
</svg>
