<?xml version="1.0" standalone="no"?>
<!DOCTYPE svg PUBLIC "-//W3C//DTD SVG 1.1//EN" "http://www.w3.org/Graphics/SVG/1.1/DTD/svg11.dtd" >
<svg xmlns="http://www.w3.org/2000/svg" xmlns:xlink="http://www.w3.org/1999/xlink" version="1.1" viewBox="-10 0 1010 1000">
   <path fill="currentColor"
d="M185 438v-233h-123v-68h404c-12 -27 -27 -57 -40 -81l66 -22c20 31 40 71 54 103h388v68h-676v163h617v70h-690zM941 634h-340c85 99 224 182 359 223c-16 15 -39 44 -50 63c-138 -50 -282 -146 -374 -261v297h-75v-302c-92 116 -238 217 -372 271
c-11 -19 -33 -46 -50 -61c127 -44 267 -132 354 -230h-333v-67h401v-105h75v105h405v67z" />
</svg>
