<?xml version="1.0" standalone="no"?>
<!DOCTYPE svg PUBLIC "-//W3C//DTD SVG 1.1//EN" "http://www.w3.org/Graphics/SVG/1.1/DTD/svg11.dtd" >
<svg xmlns="http://www.w3.org/2000/svg" xmlns:xlink="http://www.w3.org/1999/xlink" version="1.1" viewBox="-10 0 1010 1000">
   <path fill="currentColor"
d="M404 528l-48 55c-12 -32 -41 -86 -67 -136v509h-72v-500c-39 115 -91 226 -145 294c-8 -21 -27 -50 -39 -67c69 -83 141 -239 175 -377h-153v-71h162v-192h72v192h132v71h-132v40c31 46 98 153 115 182zM707 840h250v72h-580v-72h255v-412h-200v-72h200v-302h75v302h215
v72h-215v412z" />
</svg>
