<?xml version="1.0" standalone="no"?>
<!DOCTYPE svg PUBLIC "-//W3C//DTD SVG 1.1//EN" "http://www.w3.org/Graphics/SVG/1.1/DTD/svg11.dtd" >
<svg xmlns="http://www.w3.org/2000/svg" xmlns:xlink="http://www.w3.org/1999/xlink" version="1.1" viewBox="-10 0 1010 1000">
   <path fill="currentColor"
d="M270 306v52c30 47 94 151 109 177l-46 71c-13 -32 -39 -84 -63 -132v482h-72v-464c-34 104 -77 204 -123 268c-9 -21 -28 -49 -42 -66c64 -89 128 -250 158 -388h-135v-70h142v-192h72v192h127v70h-127zM599 867h227c54 0 64 -27 71 -142c18 13 46 25 66 30
c-11 135 -33 179 -134 179h-234c-109 0 -141 -27 -141 -133v-315l-69 30l-29 -64l98 -43v-273h71v241l132 -58v-276h71v244l130 -58l8 -7l14 -11l52 20l-3 14c-1 187 -3 336 -10 374c-6 41 -25 59 -54 66c-26 7 -64 8 -90 7c-3 -20 -9 -48 -18 -64c22 1 53 1 64 1
c15 0 24 -4 29 -26c5 -24 7 -135 8 -298l-130 59v371h-71v-340l-132 59v348c0 53 11 65 74 65z" />
</svg>
