<?xml version="1.0" standalone="no"?>
<!DOCTYPE svg PUBLIC "-//W3C//DTD SVG 1.1//EN" "http://www.w3.org/Graphics/SVG/1.1/DTD/svg11.dtd" >
<svg xmlns="http://www.w3.org/2000/svg" xmlns:xlink="http://www.w3.org/1999/xlink" version="1.1" viewBox="-10 0 1010 1000">
   <path fill="currentColor"
d="M420 586l-46 60c-18 -33 -59 -94 -94 -143v452h-70v-477c-38 114 -88 224 -139 292c-8 -20 -27 -49 -39 -67c67 -83 135 -239 168 -376h-145v-70h155v-214h70v214h137v70h-137v88c31 35 119 144 140 171zM954 194h-328c-1 62 -3 125 -7 188h299v36
c-11 341 -22 459 -52 497c-19 24 -38 31 -68 35c-28 2 -77 1 -126 -1c-1 -21 -9 -52 -21 -71c49 4 96 5 115 5c16 0 25 -3 35 -14c21 -25 33 -131 42 -417h-230c-19 199 -70 387 -206 507c-13 -17 -37 -40 -57 -52c185 -154 196 -448 201 -713h-152v-71h555v71z" />
</svg>
