<?xml version="1.0" standalone="no"?>
<!DOCTYPE svg PUBLIC "-//W3C//DTD SVG 1.1//EN" "http://www.w3.org/Graphics/SVG/1.1/DTD/svg11.dtd" >
<svg xmlns="http://www.w3.org/2000/svg" xmlns:xlink="http://www.w3.org/1999/xlink" version="1.1" viewBox="-10 0 1010 1000">
   <path fill="currentColor"
d="M419 533l-45 71c-18 -35 -59 -103 -93 -156v508h-71v-472c-36 107 -82 211 -130 277c-8 -22 -28 -50 -41 -67c66 -88 132 -250 164 -388h-142v-70h149v-192h71v192h129v70h-129v42c33 41 119 157 138 185zM747 850h213v71h-622v-71h125v-588h73v588h138v-800h73v338h192
v71h-192v391z" />
</svg>
