<?xml version="1.0" standalone="no"?>
<!DOCTYPE svg PUBLIC "-//W3C//DTD SVG 1.1//EN" "http://www.w3.org/Graphics/SVG/1.1/DTD/svg11.dtd" >
<svg xmlns="http://www.w3.org/2000/svg" xmlns:xlink="http://www.w3.org/1999/xlink" version="1.1" viewBox="-10 0 1010 1000">
   <path fill="currentColor"
d="M411 503l-50 61c-18 -33 -59 -94 -94 -144v537h-72v-469c-34 106 -77 207 -123 273c-9 -22 -29 -50 -42 -68c63 -90 126 -250 156 -387h-136v-70h145v-192h72v192h122v70h-122v24c31 34 122 145 144 173zM931 179h-198c-15 43 -32 84 -51 125v650h-73v-515
c-56 91 -122 171 -192 233c-11 -15 -40 -45 -57 -58c126 -100 229 -258 294 -435h-260v-71h537v71zM683 386l56 -38c74 80 165 191 208 261l-61 46c-40 -71 -130 -185 -203 -269z" />
</svg>
