<?xml version="1.0" standalone="no"?>
<!DOCTYPE svg PUBLIC "-//W3C//DTD SVG 1.1//EN" "http://www.w3.org/Graphics/SVG/1.1/DTD/svg11.dtd" >
<svg xmlns="http://www.w3.org/2000/svg" xmlns:xlink="http://www.w3.org/1999/xlink" version="1.1" viewBox="-10 0 1010 1000">
   <path fill="currentColor"
d="M263 329v79c27 37 102 148 120 176l-42 54c-14 -32 -49 -93 -78 -142v460h-68v-467c-33 108 -76 214 -123 279c-7 -20 -25 -47 -37 -64c62 -83 122 -239 152 -375h-132v-70h140v-216h68v216h113v70h-113zM547 51l67 18c-22 67 -50 132 -83 194v696h-69v-584
c-28 41 -60 78 -91 110c-9 -14 -34 -44 -49 -58c95 -89 176 -229 225 -376zM769 885h97c26 0 31 -34 34 -162c18 14 46 28 66 33c-7 145 -24 197 -95 197h-112c-74 0 -96 -26 -96 -119v-291c-20 16 -40 31 -59 43c-11 -12 -33 -34 -50 -47c36 -23 73 -50 109 -82v-400h73
v334c55 -54 104 -114 141 -174l64 40c-55 81 -128 159 -205 227v351c0 43 5 50 33 50z" />
</svg>
