<?xml version="1.0" standalone="no"?>
<!DOCTYPE svg PUBLIC "-//W3C//DTD SVG 1.1//EN" "http://www.w3.org/Graphics/SVG/1.1/DTD/svg11.dtd" >
<svg xmlns="http://www.w3.org/2000/svg" xmlns:xlink="http://www.w3.org/1999/xlink" version="1.1" viewBox="-10 0 1010 1000">
   <path fill="currentColor"
d="M272 43v192h128v70h-128v54c30 39 110 153 128 183l-46 59c-14 -34 -51 -101 -82 -155v510h-73v-495c-34 114 -79 226 -125 295c-7 -22 -27 -54 -39 -74c61 -83 124 -243 154 -377h-137v-70h147v-192h73zM922 401l50 17c-39 91 -85 191 -126 255l-59 -25
c28 -43 60 -109 87 -173h-164v394c0 43 -10 64 -40 76c-31 12 -80 13 -153 12c-3 -21 -16 -51 -27 -72c56 2 109 2 125 1c16 0 20 -4 20 -18v-393h-224v-71h323c-59 -45 -147 -105 -215 -148l41 -49c29 17 62 38 96 60c48 -31 100 -73 140 -113h-343v-68h407l16 -4l50 38
c-56 64 -138 135 -214 184c37 25 71 48 94 67l-25 33h128z" />
</svg>
