<?xml version="1.0" standalone="no"?>
<!DOCTYPE svg PUBLIC "-//W3C//DTD SVG 1.1//EN" "http://www.w3.org/Graphics/SVG/1.1/DTD/svg11.dtd" >
<svg xmlns="http://www.w3.org/2000/svg" xmlns:xlink="http://www.w3.org/1999/xlink" version="1.1" viewBox="-10 0 1010 1000">
   <path fill="currentColor"
d="M714 82l70 -16c40 154 93 267 169 366c-20 14 -46 40 -59 61c-84 -115 -136 -241 -180 -411zM543 77l76 13c-36 159 -97 308 -173 405c-13 -11 -47 -34 -65 -44c76 -88 132 -228 162 -374zM409 561l-51 61c-16 -37 -52 -103 -84 -158v492h-73v-468
c-34 111 -79 218 -125 285c-9 -21 -27 -53 -41 -72c65 -82 128 -240 158 -377h-143v-70h151v-211h73v211h124v70h-124v40c34 45 117 167 135 197zM734 635l61 -26c54 94 115 220 139 295l-68 32c-6 -22 -16 -48 -27 -75c-333 44 -377 51 -405 65h-1v-4
c-6 -17 -18 -51 -27 -71c22 -6 41 -39 65 -88c26 -48 107 -231 149 -400l77 29c-46 152 -110 312 -177 439l293 -35c-25 -55 -52 -112 -79 -161z" />
</svg>
