<?xml version="1.0" standalone="no"?>
<!DOCTYPE svg PUBLIC "-//W3C//DTD SVG 1.1//EN" "http://www.w3.org/Graphics/SVG/1.1/DTD/svg11.dtd" >
<svg xmlns="http://www.w3.org/2000/svg" xmlns:xlink="http://www.w3.org/1999/xlink" version="1.1" viewBox="-10 0 1010 1000">
   <path fill="currentColor"
d="M385 514l-44 57c-13 -34 -45 -95 -72 -146v531h-70v-497c-34 116 -79 227 -125 294c-8 -20 -25 -53 -38 -71c64 -80 127 -239 158 -377h-133v-70h138v-192h70v192h119v70h-119v30c26 36 99 150 116 179zM824 405h-228c26 100 63 192 113 270c51 -74 91 -165 115 -270z
M862 335l46 14c-28 162 -82 289 -155 389c57 70 126 125 210 157c-17 15 -40 43 -50 64c-83 -38 -150 -93 -206 -163c-65 70 -139 123 -222 161c-10 -19 -29 -46 -45 -61c84 -34 159 -88 223 -162c-59 -93 -102 -205 -133 -329h-29c-2 166 -24 397 -133 555
c-13 -14 -43 -36 -60 -42c110 -158 120 -381 120 -539v-242c156 -9 348 -33 447 -74l50 58c-105 43 -275 66 -424 77v139h348z" />
</svg>
