<?xml version="1.0" standalone="no"?>
<!DOCTYPE svg PUBLIC "-//W3C//DTD SVG 1.1//EN" "http://www.w3.org/Graphics/SVG/1.1/DTD/svg11.dtd" >
<svg xmlns="http://www.w3.org/2000/svg" xmlns:xlink="http://www.w3.org/1999/xlink" version="1.1" viewBox="-10 0 1010 1000">
   <path fill="currentColor"
d="M269 307v46c22 27 103 153 121 183l-46 53c-14 -33 -47 -97 -75 -148v515h-71v-481c-33 102 -75 199 -120 257c-6 -20 -24 -53 -37 -71c62 -78 124 -228 153 -354h-140v-69h144v-195h71v195h108v69h-108zM582 547h297s-1 22 -3 33c-18 211 -37 296 -70 328
c-21 21 -41 28 -75 29c-30 2 -86 2 -144 -2c-1 -21 -11 -50 -25 -69c61 5 121 6 143 6c20 0 32 -1 42 -10c24 -20 40 -90 55 -251h-318c24 -58 53 -144 73 -218h-96v-52c-16 18 -31 34 -48 49c-10 -13 -35 -39 -51 -51c75 -63 140 -160 178 -261l67 16
c-32 85 -79 166 -133 232h364v67h-207c-16 51 -34 106 -49 154zM685 84l61 -22c44 106 131 218 214 275c-16 12 -38 37 -50 56c-86 -67 -174 -190 -225 -309z" />
</svg>
