<?xml version="1.0" standalone="no"?>
<!DOCTYPE svg PUBLIC "-//W3C//DTD SVG 1.1//EN" "http://www.w3.org/Graphics/SVG/1.1/DTD/svg11.dtd" >
<svg xmlns="http://www.w3.org/2000/svg" xmlns:xlink="http://www.w3.org/1999/xlink" version="1.1" viewBox="-10 0 1010 1000">
   <path fill="currentColor"
d="M399 537l-46 55c-16 -36 -57 -107 -90 -164v527h-73v-477c-33 108 -77 211 -123 276c-8 -22 -26 -54 -40 -72c65 -83 128 -241 158 -377h-133v-70h138v-192h73v192h121v70h-121v32c28 36 118 168 136 200zM815 487h-297c33 86 81 163 143 227c64 -62 118 -138 154 -227z
M860 415l46 20c-39 135 -107 243 -193 327c71 59 157 103 256 130c-16 14 -37 43 -48 62c-102 -31 -190 -79 -263 -144c-83 67 -180 115 -281 147c-7 -19 -26 -50 -39 -65c96 -27 189 -71 269 -132c-68 -74 -121 -165 -160 -269l13 -4h-37v-69h200v-149h-213v-69h213v-157
h73v157h233v69h-233v149h151z" />
</svg>
