<?xml version="1.0" standalone="no"?>
<!DOCTYPE svg PUBLIC "-//W3C//DTD SVG 1.1//EN" "http://www.w3.org/Graphics/SVG/1.1/DTD/svg11.dtd" >
<svg xmlns="http://www.w3.org/2000/svg" xmlns:xlink="http://www.w3.org/1999/xlink" version="1.1" viewBox="-10 0 1010 1000">
   <path fill="currentColor"
d="M268 43v192h118v70h-118v41c27 37 99 149 117 178l-45 53c-14 -32 -45 -91 -72 -140v519h-69v-487c-34 111 -79 218 -125 285c-8 -22 -27 -54 -40 -72c64 -83 127 -241 158 -377h-139v-70h146v-192h69zM487 849h471v68h-543v-815h520v68h-448v679zM904 729l-60 45
c-27 -56 -68 -126 -117 -199c-51 85 -108 162 -167 225c-11 -14 -40 -38 -56 -50c65 -64 127 -147 181 -239c-54 -78 -113 -157 -169 -225l55 -36c49 60 101 127 151 194c36 -69 68 -142 94 -216l69 19c-33 89 -74 178 -119 260c58 82 108 161 138 222z" />
</svg>
