<?xml version="1.0" standalone="no"?>
<!DOCTYPE svg PUBLIC "-//W3C//DTD SVG 1.1//EN" "http://www.w3.org/Graphics/SVG/1.1/DTD/svg11.dtd" >
<svg xmlns="http://www.w3.org/2000/svg" xmlns:xlink="http://www.w3.org/1999/xlink" version="1.1" viewBox="-10 0 1010 1000">
   <path fill="currentColor"
d="M377 534l-45 52c-12 -31 -42 -90 -68 -139v509h-68v-482c-32 110 -75 214 -120 280c-7 -22 -26 -54 -39 -71c61 -84 122 -242 152 -378h-131v-70h138v-192h68v192h121v70h-121v48c25 35 97 152 113 181zM908 512h-177c53 125 142 256 231 320c-18 14 -42 41 -54 59
c-77 -67 -154 -184 -209 -306v372h-73v-369c-55 127 -134 239 -221 304c-13 -17 -34 -45 -51 -58c97 -63 186 -190 238 -322h-152v-69h186v-165h-205v-70h205v-164h73v164h234v70h-234v165h209v69z" />
</svg>
