<?xml version="1.0" standalone="no"?>
<!DOCTYPE svg PUBLIC "-//W3C//DTD SVG 1.1//EN" "http://www.w3.org/Graphics/SVG/1.1/DTD/svg11.dtd" >
<svg xmlns="http://www.w3.org/2000/svg" xmlns:xlink="http://www.w3.org/1999/xlink" version="1.1" viewBox="-10 0 1010 1000">
   <path fill="currentColor"
d="M362 545l-40 53c-13 -34 -49 -98 -77 -149v506h-63v-505c-30 112 -73 222 -116 289c-7 -21 -23 -52 -35 -70c56 -80 112 -232 139 -364h-116v-70h128v-192h63v192h100v70h-100v60c26 36 100 151 117 180zM598 571h98v-129h-95v21c0 38 -1 73 -3 108zM431 571h102
c3 -35 4 -70 4 -108v-21h-88c-5 44 -12 89 -18 129zM601 245v132h95v-132h-95zM858 245h-98v132h98v-132zM949 571v27c-7 150 -14 208 -32 230c-11 15 -25 20 -46 23c-16 2 -46 2 -76 1c0 -19 -7 -45 -15 -61c27 3 50 4 60 4c11 0 18 -2 23 -9c9 -12 14 -51 19 -151h-122
v319h-64v-319h-105c-17 125 -64 235 -184 321c-12 -14 -37 -35 -53 -45c109 -74 154 -168 172 -276h-169c13 -68 28 -174 36 -258h144v-132h-153v-65h153v-137h64v137h95v-135h64v135h164v262h-164v129h189z" />
</svg>
