<?xml version="1.0" standalone="no"?>
<!DOCTYPE svg PUBLIC "-//W3C//DTD SVG 1.1//EN" "http://www.w3.org/Graphics/SVG/1.1/DTD/svg11.dtd" >
<svg xmlns="http://www.w3.org/2000/svg" xmlns:xlink="http://www.w3.org/1999/xlink" version="1.1" viewBox="-10 0 1010 1000">
   <path fill="currentColor"
d="M263 328v69c28 37 102 148 119 175l-41 55c-14 -32 -49 -93 -78 -142v470h-68v-467c-33 109 -76 214 -122 279c-8 -19 -26 -47 -38 -64c62 -83 123 -239 152 -375h-132v-69h140v-216h68v216h112v69h-112zM762 459h86v-299h-86v299zM624 459h83v-299h-83v299zM490 459h80
v-299h-80v299zM969 459v68h-54v352c0 30 -5 52 -25 64c-21 12 -44 14 -83 14c-3 -18 -14 -49 -25 -66h55c8 0 11 -3 11 -13v-351h-86v418h-55v-418h-83v418h-54v-418h-80v428h-65v-428h-64v-68h64v-364h490v364h54z" />
</svg>
