<?xml version="1.0" standalone="no"?>
<!DOCTYPE svg PUBLIC "-//W3C//DTD SVG 1.1//EN" "http://www.w3.org/Graphics/SVG/1.1/DTD/svg11.dtd" >
<svg xmlns="http://www.w3.org/2000/svg" xmlns:xlink="http://www.w3.org/1999/xlink" version="1.1" viewBox="-10 0 1010 1000">
   <path fill="currentColor"
d="M297 795v73h405v-73h-405zM702 541h-405v71h405v-71zM702 740v-73h-405v73h405zM777 478v390h167v67h-887v-67h168v-390h552zM941 235h-330c88 92 223 173 350 214c-17 13 -39 41 -49 59c-138 -51 -288 -154 -379 -270v209h-72v-210c-91 119 -239 224 -375 278
c-10 -17 -31 -44 -47 -58c123 -42 256 -127 342 -222h-320v-66h400v-126h72v126h408v66z" />
</svg>
