<?xml version="1.0" standalone="no"?>
<!DOCTYPE svg PUBLIC "-//W3C//DTD SVG 1.1//EN" "http://www.w3.org/Graphics/SVG/1.1/DTD/svg11.dtd" >
<svg xmlns="http://www.w3.org/2000/svg" xmlns:xlink="http://www.w3.org/1999/xlink" version="1.1" viewBox="-10 0 1010 1000">
   <path fill="currentColor"
d="M390 533l-45 53c-13 -33 -48 -95 -76 -145v515h-68v-487c-34 112 -79 218 -125 285c-9 -22 -27 -54 -41 -71c65 -84 128 -242 158 -378h-140v-70h148v-191h68v191h125v70h-125v47c27 35 105 153 121 181zM710 848h247v70h-604v-70h88v-479h73v479h121v-658h-230v-70h531
v70h-226v260h195v70h-195v328z" />
</svg>
