<?xml version="1.0" standalone="no"?>
<!DOCTYPE svg PUBLIC "-//W3C//DTD SVG 1.1//EN" "http://www.w3.org/Graphics/SVG/1.1/DTD/svg11.dtd" >
<svg xmlns="http://www.w3.org/2000/svg" xmlns:xlink="http://www.w3.org/1999/xlink" version="1.1" viewBox="-10 0 1010 1000">
   <path fill="currentColor"
d="M612 197l13 -2l41 11c-32 366 -131 616 -275 747c-10 -16 -34 -43 -50 -53c79 -67 141 -170 186 -306c-25 -33 -61 -73 -94 -103l37 -50c28 23 56 50 80 78c19 -77 35 -162 45 -256h-110c-24 113 -59 225 -111 309c-9 -14 -29 -38 -43 -50l-12 18
c-12 -26 -38 -74 -61 -116v532h-69v-480c-33 103 -75 203 -119 266c-8 -20 -26 -48 -39 -65c60 -84 122 -238 152 -370h-130v-68h136v-195h69v195h107v68h-107v21c25 34 78 112 98 145c54 -122 79 -288 91 -416l71 10c-6 41 -12 86 -20 130h114zM930 126v562
c0 34 -7 53 -30 66c-21 12 -56 13 -111 13c-3 -19 -12 -47 -21 -66c38 2 71 1 81 1s14 -4 14 -16v-497h-122v768h-65v-831h254z" />
</svg>
