<?xml version="1.0" standalone="no"?>
<!DOCTYPE svg PUBLIC "-//W3C//DTD SVG 1.1//EN" "http://www.w3.org/Graphics/SVG/1.1/DTD/svg11.dtd" >
<svg xmlns="http://www.w3.org/2000/svg" xmlns:xlink="http://www.w3.org/1999/xlink" version="1.1" viewBox="-10 0 1010 1000">
   <path fill="currentColor"
d="M394 525l-44 54c-14 -32 -50 -93 -79 -142v518h-68v-488c-34 113 -79 220 -126 287c-8 -22 -26 -54 -40 -72c64 -83 127 -241 158 -377h-142v-70h150v-192h68v192h124v70h-124v47c27 33 106 144 123 173zM722 860h233v70h-572v-70h266v-237h-201v-69h201v-216h-131
c-20 59 -41 111 -67 153c-14 -10 -45 -29 -63 -38c55 -86 92 -221 112 -356l72 13c-9 54 -20 107 -34 158h111v-215h73v215h216v70h-216v216h196v69h-196v237z" />
</svg>
