<?xml version="1.0" standalone="no"?>
<!DOCTYPE svg PUBLIC "-//W3C//DTD SVG 1.1//EN" "http://www.w3.org/Graphics/SVG/1.1/DTD/svg11.dtd" >
<svg xmlns="http://www.w3.org/2000/svg" xmlns:xlink="http://www.w3.org/1999/xlink" version="1.1" viewBox="-10 0 1010 1000">
   <path fill="currentColor"
d="M377 532l-47 55c-13 -34 -43 -93 -70 -144v513h-71v-459c-31 100 -71 196 -112 257c-8 -22 -26 -54 -39 -71c61 -84 121 -241 151 -378h-131v-70h131v-192h71v192h108v70h-108v41c26 38 100 157 117 186zM471 591l67 15c-28 108 -77 212 -136 280
c-10 -14 -35 -40 -49 -52c53 -59 95 -149 118 -243zM937 482h-229v388c0 42 -9 61 -35 74c-26 12 -68 13 -130 13c-3 -20 -14 -50 -23 -71c44 2 85 1 97 1c13 -1 18 -4 18 -17v-388h-133c-48 0 -83 4 -91 13c-4 -15 -16 -48 -23 -66c12 -4 20 -27 27 -60
c5 -31 26 -151 23 -258c144 -5 330 -23 428 -61l33 63c-95 36 -257 54 -391 58c-4 83 -17 170 -32 241h159v-180h73v180h230zM778 609l60 -23c49 85 95 197 115 272l-67 25c-16 -74 -62 -188 -108 -274z" />
</svg>
