<?xml version="1.0" standalone="no"?>
<!DOCTYPE svg PUBLIC "-//W3C//DTD SVG 1.1//EN" "http://www.w3.org/Graphics/SVG/1.1/DTD/svg11.dtd" >
<svg xmlns="http://www.w3.org/2000/svg" xmlns:xlink="http://www.w3.org/1999/xlink" version="1.1" viewBox="-10 0 1010 1000">
   <path fill="currentColor"
d="M347 561l-42 59c-13 -36 -46 -103 -72 -158v494h-66v-424c-25 93 -59 181 -93 237c-9 -19 -26 -47 -38 -62c54 -87 105 -248 128 -384h-108v-68h111v-212h66v212h89v68h-89v38c24 38 98 169 114 200zM557 163l42 12c-12 143 -34 271 -65 383c38 67 72 128 92 175l-54 45
c-15 -37 -38 -83 -64 -134c-39 112 -87 201 -144 265c-12 -16 -33 -40 -50 -51c60 -63 110 -167 150 -294c-40 -71 -83 -143 -122 -206l48 -37c32 49 65 103 97 158c19 -78 33 -162 42 -249h-170v-64h186zM955 263v68h-78v528c0 45 -11 66 -38 77c-27 13 -72 15 -150 15
c-2 -19 -12 -50 -22 -71c57 2 106 2 120 1c16 0 22 -5 22 -21v-529h-195v-68h195v-216h68v216h78zM793 634l-58 27c-18 -58 -61 -147 -102 -213l55 -22c42 65 87 152 105 208z" />
</svg>
