<?xml version="1.0" standalone="no"?>
<!DOCTYPE svg PUBLIC "-//W3C//DTD SVG 1.1//EN" "http://www.w3.org/Graphics/SVG/1.1/DTD/svg11.dtd" >
<svg xmlns="http://www.w3.org/2000/svg" xmlns:xlink="http://www.w3.org/1999/xlink" version="1.1" viewBox="-10 0 1010 1000">
   <path fill="currentColor"
d="M231 537v-74h-169v-56h169v-93h-141v-55h141v-88h-161v-55h161v-67h70v67h158v55h-158v88h136v55h-136v93h167v56h-167v74h-70zM943 672h-354c87 86 231 154 377 183c-16 16 -38 45 -49 65c-145 -37 -289 -116 -381 -219v255h-73v-253c-92 103 -235 184 -375 224
c-11 -19 -31 -46 -47 -61c141 -33 284 -105 370 -194h-354v-62h406v-72h17c-10 -15 -28 -37 -42 -48c137 -62 171 -174 183 -323h-129v-64h418v32c-11 241 -20 327 -44 356c-16 20 -34 27 -60 28c-23 3 -66 3 -109 1c-2 -21 -9 -48 -20 -67c42 4 82 4 97 4s24 -1 32 -11
c15 -17 24 -89 32 -279h-147c-15 171 -54 298 -202 372h47v71h407v62z" />
</svg>
