<?xml version="1.0" standalone="no"?>
<!DOCTYPE svg PUBLIC "-//W3C//DTD SVG 1.1//EN" "http://www.w3.org/Graphics/SVG/1.1/DTD/svg11.dtd" >
<svg xmlns="http://www.w3.org/2000/svg" xmlns:xlink="http://www.w3.org/1999/xlink" version="1.1" viewBox="-10 0 1010 1000">
   <path fill="currentColor"
d="M911 492l46 23c-89 264 -317 389 -566 446c-7 -19 -23 -46 -37 -61c117 -22 231 -64 325 -127c-30 -30 -73 -65 -110 -90l56 -37c36 23 79 55 109 84c53 -48 98 -104 129 -171h-207c-60 58 -133 112 -224 157c-10 -17 -33 -40 -47 -52c136 -61 235 -150 291 -233
c-77 54 -165 94 -254 121c-7 -16 -25 -41 -38 -55c85 -23 170 -61 245 -112c-29 -26 -70 -56 -105 -80l54 -36c35 20 75 50 105 75c48 -41 90 -89 119 -143h-206c-50 50 -108 97 -179 137c-11 -15 -31 -36 -47 -48v15h-101v47c26 35 100 150 117 178l-44 54
c-14 -33 -46 -93 -73 -142v514h-68v-487c-34 112 -79 218 -125 285c-9 -22 -27 -54 -41 -72c65 -83 128 -241 158 -377h-140v-70h148v-192h68v192h101v52c127 -68 218 -162 265 -244l74 15c-17 27 -36 55 -58 81h188l12 -3l46 24c-41 102 -108 183 -188 247l60 12
c-16 25 -35 51 -55 76h183z" />
</svg>
