<?xml version="1.0" standalone="no"?>
<!DOCTYPE svg PUBLIC "-//W3C//DTD SVG 1.1//EN" "http://www.w3.org/Graphics/SVG/1.1/DTD/svg11.dtd" >
<svg xmlns="http://www.w3.org/2000/svg" xmlns:xlink="http://www.w3.org/1999/xlink" version="1.1" viewBox="-10 0 1010 1000">
   <path fill="currentColor"
d="M628 208l-63 36c-17 -40 -58 -100 -95 -143l59 -31c40 42 80 99 99 138zM377 526l-45 53c-12 -31 -41 -87 -67 -134v511h-68v-483c-33 110 -76 216 -121 281c-7 -21 -26 -53 -39 -71c62 -83 123 -242 153 -378h-137v-70h144v-192h68v192h116v70h-116v47
c26 35 96 146 112 174zM950 579h-242c46 142 135 263 253 319c-17 14 -40 42 -51 61c-108 -62 -191 -172 -245 -307c-37 103 -109 211 -250 306c-12 -14 -37 -38 -57 -50c161 -102 226 -222 253 -329h-215v-68h227c5 -42 6 -81 6 -115v-71h-206v-69h262
c42 -52 92 -131 121 -188l76 22c-34 56 -77 119 -116 166h155v69h-218v71c0 35 -1 73 -6 115h253v68z" />
</svg>
