<?xml version="1.0" standalone="no"?>
<!DOCTYPE svg PUBLIC "-//W3C//DTD SVG 1.1//EN" "http://www.w3.org/Graphics/SVG/1.1/DTD/svg11.dtd" >
<svg xmlns="http://www.w3.org/2000/svg" xmlns:xlink="http://www.w3.org/1999/xlink" version="1.1" viewBox="-10 0 1010 1000">
   <path fill="currentColor"
d="M477 218l-45 54c-29 -36 -91 -86 -142 -119l42 -48c52 31 115 79 145 113zM332 532l-34 53c-12 -30 -41 -91 -65 -140v511h-65v-455c-26 104 -62 205 -98 267c-8 -18 -24 -45 -35 -61c52 -84 102 -243 126 -379h-106v-69h113v-216h65v216h101v69h-101v36
c25 39 85 142 99 168zM401 479l59 37c-35 105 -83 230 -123 321l-65 -35c39 -79 92 -210 129 -323zM619 298l41 13c-31 235 -111 424 -216 526c-10 -16 -30 -39 -45 -53c84 -76 157 -236 189 -413h-130v-70h150zM882 249l56 43c-43 58 -95 120 -138 167
c45 131 103 249 169 319c-16 12 -41 36 -54 54c-74 -90 -136 -241 -181 -405v440c0 41 -11 62 -36 75c-26 12 -67 15 -131 15c-4 -19 -15 -52 -26 -71c49 2 92 2 105 1c14 -1 19 -5 19 -20v-822h69v171c12 59 26 119 44 177c37 -46 79 -101 104 -144z" />
</svg>
