<?xml version="1.0" standalone="no"?>
<!DOCTYPE svg PUBLIC "-//W3C//DTD SVG 1.1//EN" "http://www.w3.org/Graphics/SVG/1.1/DTD/svg11.dtd" >
<svg xmlns="http://www.w3.org/2000/svg" xmlns:xlink="http://www.w3.org/1999/xlink" version="1.1" viewBox="-10 0 1010 1000">
   <path fill="currentColor"
d="M263 305v48c27 37 99 149 116 177l-45 53c-13 -32 -44 -90 -71 -139v512h-69v-484c-33 110 -77 216 -122 282c-7 -22 -26 -54 -38 -72c62 -83 123 -241 153 -377h-134v-70h141v-192h69v192h104v70h-104zM736 208h-185c-23 41 -49 80 -76 115h193l-1 -1
c23 -30 50 -74 69 -114zM831 571v-183h-129v183h129zM508 388v183h130v-183h-130zM585 874h234c54 0 63 -23 70 -131c17 12 45 23 65 27c-11 131 -33 170 -133 170h-240c-109 0 -142 -24 -142 -121v-451c-12 13 -22 26 -34 38c-13 -13 -41 -37 -58 -48
c85 -79 164 -201 210 -325l69 20c-11 30 -25 61 -40 90h189l14 -5l46 33c-25 51 -60 107 -94 152h159v313h-392v183c0 44 12 55 77 55z" />
</svg>
