<?xml version="1.0" standalone="no"?>
<!DOCTYPE svg PUBLIC "-//W3C//DTD SVG 1.1//EN" "http://www.w3.org/Graphics/SVG/1.1/DTD/svg11.dtd" >
<svg xmlns="http://www.w3.org/2000/svg" xmlns:xlink="http://www.w3.org/1999/xlink" version="1.1" viewBox="-10 0 1010 1000">
   <path fill="currentColor"
d="M941 188l-53 35c-17 -34 -54 -89 -88 -129l52 -29c34 37 73 89 89 123zM576 766l143 -31l6 65c-124 29 -254 60 -353 82l-21 -72c43 -8 97 -18 156 -31v-262h-109l2 4l-44 65c-16 -34 -53 -100 -85 -154v524h-71v-465c-33 107 -76 210 -122 276c-8 -22 -28 -49 -41 -66
c64 -90 126 -252 155 -392h-139v-70h147v-196h71v196h103v70h-103v23c32 43 101 144 124 181v-63h297v67h-116v249zM961 239v70h-183c12 336 51 576 101 576c14 0 23 -51 25 -162c16 16 39 32 56 39c-10 149 -30 196 -91 196c-109 0 -148 -284 -162 -649h-314v-70h312
c-1 -63 -2 -127 -3 -193h73c-1 67 0 131 1 193h185z" />
</svg>
