<?xml version="1.0" standalone="no"?>
<!DOCTYPE svg PUBLIC "-//W3C//DTD SVG 1.1//EN" "http://www.w3.org/Graphics/SVG/1.1/DTD/svg11.dtd" >
<svg xmlns="http://www.w3.org/2000/svg" xmlns:xlink="http://www.w3.org/1999/xlink" version="1.1" viewBox="-10 0 1010 1000">
   <path fill="currentColor"
d="M925 230l-57 40c-29 -46 -93 -116 -150 -165l53 -36c57 47 124 114 154 161zM345 595l11 -8c59 45 125 109 154 155l-53 41c-23 -36 -66 -84 -112 -126v291h-71v-282c-49 86 -114 165 -176 213c-12 -18 -35 -43 -50 -55c76 -50 157 -148 206 -244h-185v-66h205v-102h71
v102h191v66h-191v15zM844 440l66 24c-42 103 -99 200 -169 285c32 83 71 131 116 131c26 0 38 -45 44 -164c16 15 42 31 61 38c-13 153 -39 199 -111 199c-69 0 -123 -53 -163 -144c-54 56 -115 106 -178 145c-12 -18 -34 -41 -52 -56c73 -42 142 -98 201 -163
c-28 -92 -49 -210 -61 -343h-552v-68h230v-115h-177v-66h177v-100h71v100h169v66h-169v115h246c-7 -89 -10 -184 -11 -282h74c-1 100 2 195 9 282h290v68h-285c11 106 25 200 46 276c53 -69 96 -147 128 -228z" />
</svg>
