<?xml version="1.0" standalone="no"?>
<!DOCTYPE svg PUBLIC "-//W3C//DTD SVG 1.1//EN" "http://www.w3.org/Graphics/SVG/1.1/DTD/svg11.dtd" >
<svg xmlns="http://www.w3.org/2000/svg" xmlns:xlink="http://www.w3.org/1999/xlink" version="1.1" viewBox="-10 0 1010 1000">
   <path fill="currentColor"
d="M932 116v66h-318v-66h318zM509 56l61 23c-47 86 -121 177 -186 237c-8 -13 -32 -43 -44 -55c63 -52 127 -129 169 -205zM235 305v68c26 40 91 147 106 174l-38 51c-11 -30 -42 -91 -68 -141v499h-63v-494c-28 106 -66 209 -105 272c-7 -18 -24 -48 -35 -64
c52 -81 105 -234 130 -365h-108v-70h118v-192h63v192h87v70h-87zM528 263l62 22c-20 43 -44 85 -70 126v543h-65v-451c-24 32 -49 60 -73 84c-7 -13 -30 -46 -43 -60c71 -67 144 -166 189 -264zM957 355v66h-109v449c0 39 -9 61 -37 72c-29 12 -74 13 -142 13
c-4 -20 -15 -49 -26 -69c53 2 103 2 116 1c15 0 20 -4 20 -17v-449h-197v-66h375z" />
</svg>
