<?xml version="1.0" standalone="no"?>
<!DOCTYPE svg PUBLIC "-//W3C//DTD SVG 1.1//EN" "http://www.w3.org/Graphics/SVG/1.1/DTD/svg11.dtd" >
<svg xmlns="http://www.w3.org/2000/svg" xmlns:xlink="http://www.w3.org/1999/xlink" version="1.1" viewBox="-10 0 1010 1000">
   <path fill="currentColor"
d="M448 236v119h-70v-185h243c-13 -35 -30 -76 -47 -110l72 -17c21 40 45 91 56 127h230v184h-73v-118h-411zM361 540l-46 58c-11 -32 -39 -91 -64 -142v500h-67v-469c-30 104 -69 205 -108 269c-8 -22 -26 -54 -39 -74c57 -83 114 -244 143 -377h-129v-70h133v-192h67v192
h103v70h-103v56c27 39 95 150 110 179zM767 510h-185c-20 48 -41 93 -62 133c51 25 104 51 157 81c44 -56 73 -127 90 -214zM957 510h-114c-20 103 -54 183 -104 248c80 47 154 95 203 136l-54 58c-48 -41 -119 -91 -199 -140c-73 66 -170 112 -294 144
c-6 -17 -24 -47 -37 -63c114 -24 203 -62 268 -117c-68 -40 -139 -77 -205 -106c26 -44 54 -100 82 -160h-143v-67h171c24 -57 44 -115 59 -167l75 11c-14 49 -34 103 -55 156h347v67z" />
</svg>
