<?xml version="1.0" standalone="no"?>
<!DOCTYPE svg PUBLIC "-//W3C//DTD SVG 1.1//EN" "http://www.w3.org/Graphics/SVG/1.1/DTD/svg11.dtd" >
<svg xmlns="http://www.w3.org/2000/svg" xmlns:xlink="http://www.w3.org/1999/xlink" version="1.1" viewBox="-10 0 1010 1000">
   <path fill="currentColor"
d="M939 433h-252c68 77 172 138 281 168c-17 14 -37 41 -47 60c-125 -41 -242 -124 -314 -228h-216c-52 64 -116 121 -195 170h265v-123h73v123h258v64h-212c102 61 218 139 280 196l-53 45c-58 -55 -171 -136 -273 -200v250h-73v-258c-81 93 -204 177 -316 220
c-11 -17 -32 -43 -48 -58c114 -36 238 -113 316 -195h-226v-58c-33 20 -70 38 -109 55c-9 -19 -28 -46 -44 -58c110 -44 196 -104 264 -173h-233v-65h288c24 -31 44 -65 60 -98h-283v-63h160c-17 -33 -49 -79 -78 -114l56 -29c33 35 71 86 86 118l-42 25h130
c20 -55 34 -111 41 -166l73 8c-8 53 -20 106 -39 158h130c31 -40 66 -96 86 -136l69 22c-25 38 -53 80 -80 114h140v63h-370c-15 33 -33 67 -54 98h501v65z" />
</svg>
