<?xml version="1.0" standalone="no"?>
<!DOCTYPE svg PUBLIC "-//W3C//DTD SVG 1.1//EN" "http://www.w3.org/Graphics/SVG/1.1/DTD/svg11.dtd" >
<svg xmlns="http://www.w3.org/2000/svg" xmlns:xlink="http://www.w3.org/1999/xlink" version="1.1" viewBox="-10 0 1010 1000">
   <path fill="currentColor"
d="M936 401l-63 27c-23 -50 -72 -125 -126 -192c39 -59 81 -131 103 -177l66 16c-26 53 -63 111 -95 160c45 55 92 123 115 166zM740 403l-65 26c-21 -51 -66 -125 -118 -193c38 -59 78 -131 99 -178l67 16c-26 54 -61 112 -92 161c43 56 86 124 109 168zM554 407l-65 26
c-22 -52 -69 -127 -121 -195c40 -60 82 -133 104 -180l67 16c-26 54 -64 113 -96 163c44 57 88 125 111 170zM349 523l-43 56c-11 -30 -36 -83 -60 -129v504h-65v-470c-30 108 -70 211 -110 275c-7 -22 -25 -57 -37 -76c57 -85 114 -242 141 -378h-124v-70h130v-192h65v192
h102v70h-102v49c24 37 87 141 103 169zM840 500l13 -3l48 20c-84 241 -291 379 -523 444c-9 -18 -27 -45 -41 -59c108 -26 211 -71 296 -136c-35 -31 -88 -70 -134 -97l45 -43c48 25 106 64 142 97c48 -46 88 -99 118 -159h-265c-50 62 -112 114 -175 153
c-10 -13 -35 -38 -49 -50c99 -54 189 -141 235 -243l68 16c-9 21 -20 40 -33 60h255z" />
</svg>
