<?xml version="1.0" standalone="no"?>
<!DOCTYPE svg PUBLIC "-//W3C//DTD SVG 1.1//EN" "http://www.w3.org/Graphics/SVG/1.1/DTD/svg11.dtd" >
<svg xmlns="http://www.w3.org/2000/svg" xmlns:xlink="http://www.w3.org/1999/xlink" version="1.1" viewBox="-10 0 1010 1000">
   <path fill="currentColor"
d="M385 530l-44 53c-13 -32 -45 -92 -72 -141v514h-68v-488c-34 112 -79 219 -125 286c-9 -22 -27 -54 -41 -72c65 -83 128 -241 158 -377h-140v-70h148v-192h68v192h119v70h-119v47c26 35 100 150 116 178zM892 529l49 43c-42 42 -93 87 -134 119c38 81 89 149 152 189
c-16 13 -37 37 -48 55c-114 -83 -185 -248 -223 -436h-65v359l114 -49c2 17 6 43 9 57c-143 68 -166 82 -180 96v-1l-1 1c-8 -16 -28 -44 -39 -55c13 -13 35 -46 35 -92v-316h-65c-6 147 -29 322 -108 448c-12 -11 -40 -28 -57 -34c93 -147 103 -355 103 -508v-308h495v65
h-431v243v28h449v66h-204c11 50 25 97 43 142c37 -33 80 -78 106 -112zM908 327h-363v-64h363v64z" />
</svg>
