<?xml version="1.0" standalone="no"?>
<!DOCTYPE svg PUBLIC "-//W3C//DTD SVG 1.1//EN" "http://www.w3.org/Graphics/SVG/1.1/DTD/svg11.dtd" >
<svg xmlns="http://www.w3.org/2000/svg" xmlns:xlink="http://www.w3.org/1999/xlink" version="1.1" viewBox="-10 0 1010 1000">
   <path fill="currentColor"
d="M943 96v67h-572v-67h572zM741 552l-65 21c-25 -51 -77 -127 -133 -195c43 -60 91 -133 116 -180l66 16c-30 54 -72 113 -108 163c49 57 99 128 124 175zM478 197l67 16c-29 54 -70 114 -104 163c45 59 92 129 116 176l-66 21c-22 -51 -70 -128 -123 -196
c41 -59 87 -133 110 -180zM932 549l-65 24c-27 -51 -85 -127 -146 -195c46 -60 95 -133 121 -180l68 17c-32 53 -76 112 -113 162c52 56 107 127 135 172zM377 567l-42 56c-15 -34 -50 -100 -79 -151v483h-69v-467c-33 107 -76 210 -121 273c-8 -18 -26 -47 -38 -63
c61 -83 122 -236 151 -370h-124v-69h132v-216h69v216h113v69h-113v56c25 32 104 155 121 183zM687 863h270v67h-629v-67h287v-188h-225v-66h532v66h-235v188z" />
</svg>
