<?xml version="1.0" standalone="no"?>
<!DOCTYPE svg PUBLIC "-//W3C//DTD SVG 1.1//EN" "http://www.w3.org/Graphics/SVG/1.1/DTD/svg11.dtd" >
<svg xmlns="http://www.w3.org/2000/svg" xmlns:xlink="http://www.w3.org/1999/xlink" version="1.1" viewBox="-10 0 1010 1000">
   <path fill="currentColor"
d="M885 47l47 60c-137 35 -350 55 -528 62c-2 -18 -11 -43 -19 -61c174 -9 384 -30 500 -61zM806 379l-57 -26c32 -52 75 -137 98 -197l69 29c-35 66 -77 143 -110 194zM704 344l-66 24c-8 -46 -32 -118 -54 -171l61 -19c24 51 49 121 59 166zM558 355l-60 26
c-14 -43 -45 -112 -76 -163l58 -23c32 50 65 117 78 160zM385 534l-45 53c-14 -34 -48 -100 -77 -154v523h-69v-465c-31 113 -73 223 -116 290c-8 -20 -27 -53 -40 -70c62 -91 122 -261 150 -406h-130v-70h136v-192h69v192h109v70h-109v36c27 38 105 163 122 193zM936 622
v68h-239v187c0 38 -8 56 -35 67c-25 12 -65 13 -126 13c-3 -20 -13 -48 -23 -67c44 1 85 1 96 0c13 0 16 -3 16 -14v-186h-255v-68h255v-66c43 -26 93 -65 131 -102h-327v-65h391l15 -4l45 36c-49 54 -118 113 -183 155v46h239z" />
</svg>
