<?xml version="1.0" standalone="no"?>
<!DOCTYPE svg PUBLIC "-//W3C//DTD SVG 1.1//EN" "http://www.w3.org/Graphics/SVG/1.1/DTD/svg11.dtd" >
<svg xmlns="http://www.w3.org/2000/svg" xmlns:xlink="http://www.w3.org/1999/xlink" version="1.1" viewBox="-10 0 1010 1000">
   <path fill="currentColor"
d="M379 527l-46 54c-14 -33 -49 -94 -78 -144v519h-69v-474c-30 105 -71 206 -112 270c-9 -21 -26 -52 -39 -70c59 -83 118 -241 146 -377h-117v-70h122v-192h69v192h108v70h-108v43c28 37 106 150 124 179zM717 641h140v-114h-140v114zM512 641h140v-114h-136v26
c0 28 -1 58 -4 88zM728 188h-160c-22 38 -45 75 -71 108h170c21 -31 43 -72 61 -108zM516 360v107h136v-107h-136zM857 467v-107h-140v107h140zM929 296v582c0 36 -5 53 -29 65c-20 12 -56 13 -103 13c-2 -19 -10 -48 -19 -66c30 1 58 1 66 0c10 0 13 -3 13 -13v-171h-140
v245h-65v-245h-148c-15 90 -48 182 -118 251c-10 -14 -38 -39 -53 -48c102 -101 113 -244 113 -356v-196c-14 16 -27 30 -42 42c-7 -15 -27 -51 -39 -68c80 -69 155 -177 199 -289l65 19c-8 22 -18 43 -28 65h164l11 -4l49 34c-21 45 -53 96 -83 140h187z" />
</svg>
