<?xml version="1.0" standalone="no"?>
<!DOCTYPE svg PUBLIC "-//W3C//DTD SVG 1.1//EN" "http://www.w3.org/Graphics/SVG/1.1/DTD/svg11.dtd" >
<svg xmlns="http://www.w3.org/2000/svg" xmlns:xlink="http://www.w3.org/1999/xlink" version="1.1" viewBox="-10 0 1010 1000">
   <path fill="currentColor"
d="M417 741l12 56c-102 42 -209 85 -291 117l-30 -62c77 -26 194 -69 309 -111zM390 710l-58 33c-23 -31 -69 -77 -109 -109l57 -27c43 30 87 71 110 103zM461 868v-334h70v335c0 38 -8 55 -35 66c-27 10 -71 10 -135 10c-4 -18 -14 -44 -23 -62c50 2 93 2 106 1
s17 -5 17 -16zM552 784l46 -45c97 34 220 92 289 130l-46 51c-68 -40 -191 -100 -289 -136zM698 592l61 31c-39 42 -86 83 -124 111l-52 -28c36 -30 87 -80 115 -114zM517 381l30 19c-5 6 -10 11 -15 17c96 68 279 133 433 160c-18 17 -40 48 -52 68
c-147 -31 -319 -104 -429 -184c-108 89 -264 162 -412 197c-6 -22 -22 -55 -35 -75c162 -28 336 -107 430 -202h-6v-152c-93 104 -240 195 -371 241c-10 -18 -31 -43 -46 -57c121 -37 255 -112 343 -195h-322v-64h396v-111h72v111h406v64h-338c118 59 246 134 320 186
l-46 52c-78 -59 -217 -142 -342 -204v129h-16z" />
</svg>
