<?xml version="1.0" standalone="no"?>
<!DOCTYPE svg PUBLIC "-//W3C//DTD SVG 1.1//EN" "http://www.w3.org/Graphics/SVG/1.1/DTD/svg11.dtd" >
<svg xmlns="http://www.w3.org/2000/svg" xmlns:xlink="http://www.w3.org/1999/xlink" version="1.1" viewBox="-10 0 1010 1000">
   <path fill="currentColor"
d="M836 232v-91h-333v91h333zM836 380v-92h-333v92h333zM908 83v356h-475v-356h475zM401 585l-42 57c-17 -35 -56 -100 -88 -152v465h-70v-465c-34 109 -79 214 -126 279c-8 -20 -26 -49 -39 -66c63 -84 127 -240 158 -377h-139v-69h146v-214h70v214h121v69h-121v76
c30 37 111 154 130 183zM957 687v67h-253v204h-73v-204h-263v-67h263v-109h-225v-69h528v69h-230v109h253z" />
</svg>
