<?xml version="1.0" standalone="no"?>
<!DOCTYPE svg PUBLIC "-//W3C//DTD SVG 1.1//EN" "http://www.w3.org/Graphics/SVG/1.1/DTD/svg11.dtd" >
<svg xmlns="http://www.w3.org/2000/svg" xmlns:xlink="http://www.w3.org/1999/xlink" version="1.1" viewBox="-10 0 1010 1000">
   <path fill="currentColor"
d="M240 323v39c24 37 94 153 109 182l-41 60c-13 -33 -43 -93 -68 -142v494h-68v-432c-27 96 -62 187 -98 246c-9 -20 -26 -47 -38 -63c55 -87 107 -248 132 -384h-113v-68h117v-212h68v212h95v68h-95zM936 219h-435c-29 58 -61 110 -95 151c-12 -12 -40 -34 -55 -44
c63 -69 114 -175 143 -284l68 16c-9 32 -20 64 -33 94h407v67zM579 426l39 -37c44 27 102 66 132 89l-41 42c-30 -25 -89 -67 -130 -94zM734 699l-41 41c-32 -27 -88 -71 -129 -100l40 -36c43 28 100 71 130 95zM477 757h328c4 -41 8 -95 11 -163h-317
c-7 59 -15 115 -22 163zM825 377h-301c-6 49 -11 100 -17 152h312c2 -45 4 -95 6 -152zM956 594h-72c-4 67 -7 120 -11 163h70v63h-76c-7 51 -16 79 -28 95c-16 23 -35 31 -64 34c-24 3 -65 2 -107 0c-1 -19 -7 -46 -18 -63c42 3 80 3 97 3c16 1 25 -1 32 -14
c7 -8 13 -26 18 -55h-400c10 -60 23 -141 34 -226h-73v-65h81c10 -75 18 -150 23 -215h432s-1 26 -1 35c-2 68 -4 127 -7 180h70v65z" />
</svg>
