<?xml version="1.0" standalone="no"?>
<!DOCTYPE svg PUBLIC "-//W3C//DTD SVG 1.1//EN" "http://www.w3.org/Graphics/SVG/1.1/DTD/svg11.dtd" >
<svg xmlns="http://www.w3.org/2000/svg" xmlns:xlink="http://www.w3.org/1999/xlink" version="1.1" viewBox="-10 0 1010 1000">
   <path fill="currentColor"
d="M817 270v-125h-296v125h296zM891 82v251h-441v-251h441zM275 327v87c31 34 116 144 135 172l-45 58c-17 -34 -57 -95 -90 -144v456h-71v-472c-36 111 -84 220 -134 287c-8 -21 -26 -50 -38 -67c65 -83 131 -240 163 -377h-140v-70h149v-214h71v214h129v70h-129zM495 714
h348v-92h-348v92zM843 472h-348v89h348v-89zM916 407v468c0 40 -9 60 -37 71c-28 12 -72 12 -137 12c-4 -20 -14 -48 -23 -68c47 2 94 2 106 1c14 0 18 -4 18 -16v-99h-348v179h-71v-548h492z" />
</svg>
