<?xml version="1.0" standalone="no"?>
<!DOCTYPE svg PUBLIC "-//W3C//DTD SVG 1.1//EN" "http://www.w3.org/Graphics/SVG/1.1/DTD/svg11.dtd" >
<svg xmlns="http://www.w3.org/2000/svg" xmlns:xlink="http://www.w3.org/1999/xlink" version="1.1" viewBox="-10 0 1010 1000">
   <path fill="currentColor"
d="M255 305v48c27 39 103 169 121 200l-45 53c-14 -35 -48 -103 -76 -159v509h-67v-478c-31 108 -74 211 -116 276c-7 -22 -26 -54 -38 -72c60 -83 119 -241 148 -377h-122v-70h128v-192h67v192h104v70h-104zM800 860v-165h-312v165h312zM818 404l53 26
c-45 62 -104 139 -158 202h161v322h-74v-31h-312v34h-71v-325h281l-54 -23c36 -43 78 -95 110 -138h-335v-62h386zM574 270l53 -30c40 37 84 86 107 117l-58 35c-21 -32 -65 -84 -102 -122zM644 36l60 25c-7 11 -14 22 -22 34c68 79 189 169 286 216c-15 17 -32 45 -41 64
c-93 -56 -207 -146 -282 -229c-77 97 -175 181 -270 239c-8 -15 -28 -48 -41 -62c119 -65 239 -169 310 -287z" />
</svg>
