<?xml version="1.0" standalone="no"?>
<!DOCTYPE svg PUBLIC "-//W3C//DTD SVG 1.1//EN" "http://www.w3.org/Graphics/SVG/1.1/DTD/svg11.dtd" >
<svg xmlns="http://www.w3.org/2000/svg" xmlns:xlink="http://www.w3.org/1999/xlink" version="1.1" viewBox="-10 0 1010 1000">
   <path fill="currentColor"
d="M476 233v109h-68v-174h245c-15 -32 -38 -74 -58 -106l68 -19c27 39 55 90 70 122l-9 3h222v174h-71v-109h-399zM869 410h-385v-66h385v66zM380 530l-45 53c-14 -31 -45 -90 -72 -139v512h-68v-490c-34 113 -79 221 -126 288c-8 -22 -26 -54 -40 -72
c64 -83 127 -241 158 -377h-132v-70h140v-192h68v192h113v70h-113v47c26 35 100 150 117 178zM809 880h66c21 0 25 -17 27 -126c15 12 44 24 63 29c-6 130 -24 164 -82 164h-85c-67 0 -84 -22 -84 -95v-262h-99c-16 182 -62 300 -245 366c-8 -18 -28 -45 -42 -59
c165 -54 203 -152 216 -307h-133v-67h543v67h-168v261c0 25 3 29 23 29z" />
</svg>
