<?xml version="1.0" standalone="no"?>
<!DOCTYPE svg PUBLIC "-//W3C//DTD SVG 1.1//EN" "http://www.w3.org/Graphics/SVG/1.1/DTD/svg11.dtd" >
<svg xmlns="http://www.w3.org/2000/svg" xmlns:xlink="http://www.w3.org/1999/xlink" version="1.1" viewBox="-10 0 1010 1000">
   <path fill="currentColor"
d="M922 97v218h-484v-218h68v155h138v-201h67v201h142v-155h69zM261 43v205h119v68h-119v57c26 38 95 152 112 180l-45 52c-12 -31 -41 -89 -67 -139v490h-66v-472c-32 113 -75 222 -121 288c-6 -21 -25 -52 -38 -71c62 -84 123 -247 152 -385h-129v-68h136v-205h66z
M715 344l54 -20c39 84 117 169 194 208c-15 14 -34 40 -44 57c-17 -9 -33 -21 -49 -35c0 2 0 21 -1 31c-4 224 -7 302 -27 328c-14 18 -30 25 -57 28c-21 2 -62 2 -103 0c-2 -20 -8 -47 -18 -65c39 5 75 5 89 5s22 -2 27 -11c12 -15 16 -77 18 -251h-141
c-20 150 -67 271 -216 341c-8 -17 -28 -41 -44 -52c136 -57 175 -164 191 -289h-118v-57c-15 13 -30 25 -46 35c-6 -14 -26 -46 -38 -60c76 -49 147 -123 185 -206l64 16c-36 79 -93 151 -156 207h391c-63 -53 -120 -131 -155 -210z" />
</svg>
