<?xml version="1.0" standalone="no"?>
<!DOCTYPE svg PUBLIC "-//W3C//DTD SVG 1.1//EN" "http://www.w3.org/Graphics/SVG/1.1/DTD/svg11.dtd" >
<svg xmlns="http://www.w3.org/2000/svg" xmlns:xlink="http://www.w3.org/1999/xlink" version="1.1" viewBox="-10 0 1010 1000">
   <path fill="currentColor"
d="M239 475v-197c-43 67 -99 130 -152 167c-11 -17 -32 -39 -47 -52c64 -37 132 -109 175 -181h-156v-64h180v-104h68v104h164v64h-157c41 30 130 100 152 120l-40 59c-22 -25 -77 -79 -119 -118v202h-68zM769 521l14 -3l50 35c-128 245 -412 358 -714 408
c-5 -19 -24 -52 -39 -68c138 -20 272 -52 385 -104c-49 -33 -117 -72 -174 -98l57 -41c61 26 136 67 189 103c76 -46 141 -100 186 -168h-337c-73 51 -156 95 -235 127c-13 -15 -38 -39 -55 -52c132 -49 279 -135 350 -218l73 29c-15 17 -32 33 -52 50h302zM945 212h-176
c49 73 127 145 197 182c-16 13 -38 37 -49 54c-61 -40 -128 -109 -178 -180v207h-70v-195c-45 65 -103 126 -158 162c-11 -17 -33 -40 -48 -53c67 -36 138 -106 184 -177h-144v-64h166v-104h70v104h206v64z" />
</svg>
