<?xml version="1.0" standalone="no"?>
<!DOCTYPE svg PUBLIC "-//W3C//DTD SVG 1.1//EN" "http://www.w3.org/Graphics/SVG/1.1/DTD/svg11.dtd" >
<svg xmlns="http://www.w3.org/2000/svg" xmlns:xlink="http://www.w3.org/1999/xlink" version="1.1" viewBox="-10 0 1010 1000">
   <path fill="currentColor"
d="M669 476v-191c-45 64 -103 125 -158 161c-11 -16 -33 -40 -48 -54c67 -35 138 -104 184 -176h-144v-64h166v-108h70v108h206v64h-176c49 73 127 145 198 182c-17 13 -39 37 -49 54c-62 -40 -129 -109 -179 -181v205h-70zM239 476v-188c-42 72 -98 138 -150 179
c-11 -17 -32 -40 -48 -52c64 -41 133 -121 176 -199h-158v-64h180v-108h68v108h164v64h-164v4c32 21 129 95 152 114l-40 60c-21 -24 -73 -74 -112 -110v192h-68zM357 675l53 -44c70 44 159 109 203 156l-57 49c-40 -47 -127 -115 -199 -161zM756 873h100
c29 0 34 -20 37 -137c17 13 48 26 69 31c-8 139 -28 175 -99 175h-117c-78 0 -100 -22 -100 -103v-266h-319v54c0 115 -42 249 -236 333c-8 -17 -31 -50 -45 -61c177 -75 207 -180 207 -274v-121h467v335c0 29 6 34 36 34z" />
</svg>
