<?xml version="1.0" standalone="no"?>
<!DOCTYPE svg PUBLIC "-//W3C//DTD SVG 1.1//EN" "http://www.w3.org/Graphics/SVG/1.1/DTD/svg11.dtd" >
<svg xmlns="http://www.w3.org/2000/svg" xmlns:xlink="http://www.w3.org/1999/xlink" version="1.1" viewBox="-10 0 1010 1000">
   <path fill="currentColor"
d="M690 81l60 -26c47 84 136 187 202 240c-18 14 -44 39 -56 58c-66 -63 -154 -179 -206 -272zM437 548v-3c-5 -17 -15 -46 -22 -63c16 -3 34 -21 54 -47c21 -24 90 -121 131 -215l68 30c-41 77 -92 155 -143 217l240 -24c-22 -32 -46 -65 -67 -93l53 -28
c53 65 116 154 146 209l-57 35c-10 -20 -24 -43 -40 -69c-299 33 -339 41 -362 51v1v-1h-1zM534 608l46 -41c62 25 132 72 167 110l-49 46c-33 -39 -103 -88 -164 -115zM530 67l68 21c-47 101 -123 202 -199 267c-9 -15 -32 -47 -46 -62c69 -55 137 -139 177 -226zM368 529
l-42 56c-15 -30 -47 -86 -76 -134v505h-68v-491c-28 110 -67 221 -105 291c-8 -24 -25 -58 -37 -78c52 -84 106 -247 131 -375h-117v-68h128v-192h68v192h101v68h-101v61c34 44 101 139 118 165zM373 915l-59 -31c37 -45 65 -125 78 -197l62 11c-13 74 -39 163 -81 217z
M615 893h118c28 0 34 -13 37 -97c14 11 41 22 60 25c-7 106 -27 132 -90 132h-133c-82 0 -102 -19 -102 -88v-191h68v191c0 24 7 28 42 28zM782 700l54 -30c56 64 113 149 134 208l-59 35c-19 -59 -75 -147 -129 -213z" />
</svg>
