<?xml version="1.0" standalone="no"?>
<!DOCTYPE svg PUBLIC "-//W3C//DTD SVG 1.1//EN" "http://www.w3.org/Graphics/SVG/1.1/DTD/svg11.dtd" >
<svg xmlns="http://www.w3.org/2000/svg" xmlns:xlink="http://www.w3.org/1999/xlink" version="1.1" viewBox="-10 0 1010 1000">
   <path fill="currentColor"
d="M656 728l49 -43c87 61 187 149 232 213l-53 49c-44 -64 -143 -156 -228 -219zM883 569l-52 45c-28 -44 -91 -107 -145 -151l49 -40c55 42 119 102 148 146zM749 49l66 15c-4 15 -8 31 -12 45c36 94 102 223 167 295c-16 12 -39 37 -51 52c-53 -69 -105 -175 -141 -262
c-34 98 -79 189 -137 259c-5 -7 -16 -16 -26 -25v25c-8 326 -15 433 -39 467c-15 20 -32 28 -56 30c-22 3 -57 3 -92 1c-1 -19 -7 -45 -17 -63c34 3 66 3 80 3c13 1 21 -1 28 -12c16 -22 24 -119 31 -393h-102c-14 201 -52 368 -164 475c-11 -14 -30 -34 -47 -45v40h-67
v-461c-29 104 -68 206 -108 270c-8 -18 -23 -45 -35 -61c55 -84 110 -243 137 -376h-110v-67h116v-217h67v217h81v67h-81v42c25 39 89 147 103 175l-39 57c-11 -32 -40 -90 -64 -141v452c136 -129 147 -360 152 -629h-70v-65h153c-11 -38 -40 -100 -65 -146l64 -19
c28 46 59 108 70 145l-60 20h157v65h-182c-1 47 -2 92 -5 137h156c-7 -5 -13 -10 -18 -14c76 -88 133 -230 160 -358z" />
</svg>
