<?xml version="1.0" standalone="no"?>
<!DOCTYPE svg PUBLIC "-//W3C//DTD SVG 1.1//EN" "http://www.w3.org/Graphics/SVG/1.1/DTD/svg11.dtd" >
<svg xmlns="http://www.w3.org/2000/svg" xmlns:xlink="http://www.w3.org/1999/xlink" version="1.1" viewBox="-10 0 1010 1000">
   <path fill="currentColor"
d="M261 305v53c28 40 96 145 111 172l-43 53c-13 -30 -42 -86 -68 -134v507h-69v-484c-32 110 -74 216 -117 282c-6 -21 -25 -54 -38 -72c60 -83 119 -241 148 -377h-132v-70h139v-192h69v192h94v70h-94zM814 646v-107h-133v107h133zM681 370v101h133v-101h-133zM714 194
h-166c-23 39 -49 76 -75 109h174c24 -30 49 -71 67 -109zM957 471v68h-74v214h-69v-40h-133v148c0 43 -9 63 -36 75c-28 12 -72 13 -141 13c-3 -21 -13 -51 -22 -71c51 2 99 1 112 1c15 -1 19 -5 19 -19v-147h-177v-67h177v-107h-236v-68h236v-101h-169v-33
c-13 16 -28 31 -42 45c-12 -14 -38 -40 -55 -51c81 -69 156 -178 200 -289l67 20c-9 23 -20 45 -30 67h167l12 -4l46 34c-21 47 -52 100 -83 144h157v168h74z" />
</svg>
