<?xml version="1.0" standalone="no"?>
<!DOCTYPE svg PUBLIC "-//W3C//DTD SVG 1.1//EN" "http://www.w3.org/Graphics/SVG/1.1/DTD/svg11.dtd" >
<svg xmlns="http://www.w3.org/2000/svg" xmlns:xlink="http://www.w3.org/1999/xlink" version="1.1" viewBox="-10 0 1010 1000">
   <path fill="currentColor"
d="M953 136l-43 45c-28 -28 -83 -71 -128 -101l41 -39c45 27 101 68 130 95zM355 537l-39 54c-11 -25 -37 -70 -60 -107v471h-68v-460c-32 107 -73 209 -115 272c-9 -18 -27 -47 -39 -64c60 -83 119 -239 147 -375h-126v-69h133v-216h68v216h97v69h-97v75
c24 29 84 113 99 134zM638 705l11 61c-106 40 -219 82 -306 111l-30 -70c81 -22 206 -62 325 -102zM568 590v-177h-133v177h133zM376 355h253v293h-253v-293zM868 357l69 13c-34 133 -80 250 -140 349c23 107 53 169 88 169c20 0 29 -40 32 -143c15 15 38 31 53 38
c-11 132 -32 174 -94 174c-59 0 -101 -60 -131 -161c-47 62 -101 116 -162 161c-10 -13 -38 -38 -55 -50c78 -51 143 -118 196 -198c-24 -122 -37 -279 -44 -452h-334v-69h332c-1 -47 -2 -94 -2 -142h72c0 48 0 96 1 142h210v69h-209c5 135 14 257 28 356
c38 -77 68 -163 90 -256z" />
</svg>
