<?xml version="1.0" standalone="no"?>
<!DOCTYPE svg PUBLIC "-//W3C//DTD SVG 1.1//EN" "http://www.w3.org/Graphics/SVG/1.1/DTD/svg11.dtd" >
<svg xmlns="http://www.w3.org/2000/svg" xmlns:xlink="http://www.w3.org/1999/xlink" version="1.1" viewBox="-10 0 1010 1000">
   <path fill="currentColor"
d="M953 162v67h-625v-67h278c-12 -32 -28 -71 -45 -102l67 -19c22 37 45 86 56 121h269zM336 467l-41 52c-11 -21 -34 -61 -56 -95v532h-66v-464c-29 98 -66 190 -106 247c-8 -21 -26 -53 -40 -71c59 -83 114 -232 140 -365h-112v-68h118v-192h66v192h90v68h-90v40
c23 26 83 102 97 124zM471 251l66 17c-18 58 -41 115 -67 167v520h-66v-409c-24 35 -49 66 -76 92c-9 -12 -33 -40 -48 -53c84 -79 153 -202 191 -334zM678 479l46 -28c31 33 69 80 86 109l-47 32c-18 -31 -54 -79 -85 -113zM858 413h-180c-11 26 -23 53 -35 77
c23 74 55 143 96 204c53 -77 95 -172 119 -281zM892 351l43 15c-29 157 -83 284 -154 384c53 64 116 116 190 148c-17 15 -37 40 -48 59c-71 -36 -133 -89 -184 -154c-59 68 -127 120 -199 157c-10 -18 -29 -43 -43 -56c74 -33 143 -85 201 -156c-37 -56 -68 -118 -94 -186
c-22 38 -48 72 -75 103c-9 -13 -34 -39 -48 -52c82 -85 145 -220 180 -362l66 14c-8 29 -17 60 -27 88h180z" />
</svg>
