<?xml version="1.0" standalone="no"?>
<!DOCTYPE svg PUBLIC "-//W3C//DTD SVG 1.1//EN" "http://www.w3.org/Graphics/SVG/1.1/DTD/svg11.dtd" >
<svg xmlns="http://www.w3.org/2000/svg" xmlns:xlink="http://www.w3.org/1999/xlink" version="1.1" viewBox="-10 0 1010 1000">
   <path fill="currentColor"
d="M363 530l-43 50c-13 -31 -44 -90 -70 -139v515h-68v-476c-30 106 -70 207 -111 271c-8 -21 -25 -51 -38 -69c59 -83 116 -244 143 -379h-117v-68h123v-192h68v192h104v68h-104v49c25 35 97 150 113 178zM390 914l-60 -28c35 -53 63 -139 79 -204l57 23
c-17 65 -42 155 -76 209zM442 506v-62h366l11 -4l47 17c-34 71 -84 159 -128 229l-60 -20c30 -49 65 -110 92 -160h-328zM568 304l52 -30c35 39 78 91 99 123l-54 35c-21 -33 -63 -89 -97 -128zM577 624l53 -22c38 51 83 121 101 165l-56 27c-18 -45 -60 -117 -98 -170z
M605 883h114c28 0 33 -12 36 -94c14 11 41 21 59 24c-7 105 -26 130 -88 130h-129c-79 0 -99 -19 -99 -87v-189h67v189c0 23 6 27 40 27zM785 698l55 -22c43 64 86 148 104 203l-57 26c-18 -57 -61 -143 -102 -207zM631 40l58 22c-5 10 -9 22 -15 33c71 125 166 201 286 265
c-17 13 -35 36 -45 56c-114 -65 -202 -143 -274 -259c-65 110 -155 206 -258 268c-10 -15 -30 -36 -47 -50c127 -70 237 -199 295 -335z" />
</svg>
