<?xml version="1.0" standalone="no"?>
<!DOCTYPE svg PUBLIC "-//W3C//DTD SVG 1.1//EN" "http://www.w3.org/Graphics/SVG/1.1/DTD/svg11.dtd" >
<svg xmlns="http://www.w3.org/2000/svg" xmlns:xlink="http://www.w3.org/1999/xlink" version="1.1" viewBox="-10 0 1010 1000">
   <path fill="currentColor"
d="M322 564l-35 56c-12 -32 -40 -89 -63 -138v474h-60v-479c-27 110 -63 218 -100 285c-7 -22 -23 -55 -33 -74c51 -81 100 -236 124 -369h-102v-65h111v-211h60v211h82v65h-82v72c25 41 84 146 98 173zM411 550h106v-175h-104v63c0 34 0 72 -2 112zM517 142h-104v171h104
v-171zM576 80v790c0 35 -7 55 -29 66s-56 12 -114 12c-2 -17 -10 -45 -19 -61c41 1 76 1 87 0s16 -4 16 -17v-257h-109c-9 119 -28 247 -75 343c-11 -10 -38 -27 -54 -32c68 -141 74 -340 74 -486v-358h223zM686 482v419c38 -33 74 -80 104 -138c-39 -82 -69 -180 -89 -281
h-15zM885 482h-129c16 75 38 149 67 214c26 -64 48 -137 62 -214zM914 419l38 12c-17 130 -51 243 -95 335c33 55 69 102 111 133c-14 11 -34 32 -44 48c-37 -31 -70 -72 -99 -120c-31 51 -65 93 -103 126c-8 -13 -22 -30 -36 -42v45h-63v-873h298v214c0 32 -6 50 -31 60
c-24 11 -63 11 -123 11c-2 -18 -11 -41 -20 -59c48 1 84 1 96 0c13 0 15 -3 15 -14v-147h-172v273h216z" />
</svg>
