<?xml version="1.0" standalone="no"?>
<!DOCTYPE svg PUBLIC "-//W3C//DTD SVG 1.1//EN" "http://www.w3.org/Graphics/SVG/1.1/DTD/svg11.dtd" >
<svg xmlns="http://www.w3.org/2000/svg" xmlns:xlink="http://www.w3.org/1999/xlink" version="1.1" viewBox="-10 0 1010 1000">
   <path fill="currentColor"
d="M246 448v-171c-46 62 -104 120 -159 155c-10 -16 -30 -40 -45 -51c65 -35 134 -101 180 -169h-158v-62h182v-107h69v107h146v62h-146v8c41 26 124 86 147 103l-40 51c-22 -22 -67 -60 -107 -90v164h-69zM760 652l12 -5l54 31c-67 81 -166 191 -249 280l-69 -36
c62 -64 136 -144 191 -206h-535v-64h359c-24 -34 -71 -84 -113 -117l51 -36c44 33 93 80 116 113l-50 40h233zM531 392l-10 10c92 69 274 145 440 182c-17 16 -40 46 -50 66c-163 -43 -340 -132 -436 -206c-104 86 -243 157 -394 209c-10 -17 -33 -47 -50 -62
c186 -57 361 -147 451 -246l23 11c53 -30 107 -86 144 -144h-156v-62h180v-107h70v107h197v62h-190c45 35 149 124 175 149l-40 51c-27 -29 -93 -93 -142 -137v173h-70v-170c-37 54 -83 102 -128 132c-4 -5 -9 -12 -14 -18z" />
</svg>
