<?xml version="1.0" standalone="no"?>
<!DOCTYPE svg PUBLIC "-//W3C//DTD SVG 1.1//EN" "http://www.w3.org/Graphics/SVG/1.1/DTD/svg11.dtd" >
<svg xmlns="http://www.w3.org/2000/svg" xmlns:xlink="http://www.w3.org/1999/xlink" version="1.1" viewBox="-10 0 1010 1000">
   <path fill="currentColor"
d="M864 486l-59 -15c13 -32 30 -75 44 -118h-475v-65h243v-89h-206v-63h206v-92h73v92h202v63h-202v89h185l11 -3l48 13c-21 66 -47 141 -70 188zM630 486l-37 43c-29 -31 -92 -73 -143 -101l35 -37c52 26 113 66 145 95zM378 519l35 -39c52 26 117 68 147 99l-35 43
c-31 -31 -94 -75 -147 -103zM348 544l-40 60c-13 -33 -43 -92 -68 -142v494h-68v-432c-27 95 -62 187 -98 245c-9 -19 -26 -47 -38 -62c55 -88 107 -248 132 -384h-113v-68h117v-212h68v212h95v68h-95v39c25 37 94 154 108 182zM944 694h-260c-37 97 -120 193 -303 266
c-9 -18 -28 -44 -43 -56c153 -59 231 -134 270 -210h-253v-66h277c11 -41 13 -81 13 -118v-118h69v119c0 37 -2 77 -10 117h240v66zM681 772l45 -41c80 52 181 129 229 181l-46 48c-48 -52 -146 -133 -228 -188z" />
</svg>
