<?xml version="1.0" standalone="no"?>
<!DOCTYPE svg PUBLIC "-//W3C//DTD SVG 1.1//EN" "http://www.w3.org/Graphics/SVG/1.1/DTD/svg11.dtd" >
<svg xmlns="http://www.w3.org/2000/svg" xmlns:xlink="http://www.w3.org/1999/xlink" version="1.1" viewBox="-10 0 1010 1000">
   <path fill="currentColor"
d="M762 328h-134c-6 81 -27 172 -78 237c-13 -10 -41 -30 -57 -37c63 -80 71 -187 71 -269v-149c110 -9 240 -27 315 -52l40 56c-75 23 -187 39 -288 47v99v7h317v61h-117v249h-69v-249zM292 335h-120c-41 0 -71 6 -80 14c-4 -15 -15 -49 -23 -68c15 -3 32 -20 51 -43
c8 -11 27 -36 48 -69h-111v-58h145c13 -23 24 -46 34 -70l75 21c-9 17 -19 32 -29 49h234v58h-271c-27 39 -54 75 -81 106h128v-65h70v65h156v60h-156v80l151 -15l1 57l-152 16v106h-70v-98l-227 25l-7 -63c63 -6 144 -13 234 -21v-87zM941 689h-344c88 83 230 152 361 185
c-16 14 -36 42 -48 60c-134 -42 -283 -126 -375 -225v249h-74v-249c-93 99 -240 185 -370 228c-11 -18 -31 -45 -47 -60c125 -34 264 -107 352 -188h-336v-63h401v-63h74v63h406v63z" />
</svg>
