<?xml version="1.0" standalone="no"?>
<!DOCTYPE svg PUBLIC "-//W3C//DTD SVG 1.1//EN" "http://www.w3.org/Graphics/SVG/1.1/DTD/svg11.dtd" >
<svg xmlns="http://www.w3.org/2000/svg" xmlns:xlink="http://www.w3.org/1999/xlink" version="1.1" viewBox="-10 0 1010 1000">
   <path fill="currentColor"
d="M249 325v81c26 34 98 141 114 167l-43 57c-13 -31 -44 -88 -71 -135v460h-68v-452c-31 103 -70 203 -111 265c-8 -19 -26 -48 -37 -65c57 -85 115 -242 143 -378h-121v-68h126v-214h68v214h107v68h-107zM684 694h144v61h-348v-61h142v-185h-116v-59h116v-145h-129v-61
h320v61h-129v145h120v59h-120v185zM707 556l41 -20c28 35 59 82 72 113l-43 23c-12 -30 -44 -80 -70 -116zM445 836h416v-686h-416v686zM378 85h552v864h-69v-50h-416v59h-67v-873z" />
</svg>
