<?xml version="1.0" standalone="no"?>
<!DOCTYPE svg PUBLIC "-//W3C//DTD SVG 1.1//EN" "http://www.w3.org/Graphics/SVG/1.1/DTD/svg11.dtd" >
<svg xmlns="http://www.w3.org/2000/svg" xmlns:xlink="http://www.w3.org/1999/xlink" version="1.1" viewBox="-10 0 1010 1000">
   <path fill="currentColor"
d="M333 569l-37 55c-12 -33 -40 -94 -64 -146v478h-61v-467c-28 109 -66 213 -104 278c-7 -23 -22 -55 -33 -74c52 -82 106 -241 130 -375h-102v-64h109v-211h61v211h97v64h-97v67c26 43 88 155 101 184zM578 242l67 15c-14 46 -30 95 -52 142v558h-64v-437
c-19 29 -38 55 -60 79c-5 -12 -18 -30 -30 -43c-7 132 -29 282 -82 394c-12 -11 -43 -27 -60 -32c71 -149 77 -357 77 -502v-262h273c-10 -29 -27 -69 -46 -98l63 -22c22 33 45 78 54 107l-34 13h266v66h-507v196c0 37 -1 78 -3 121c67 -79 115 -198 138 -295zM954 388v64
h-78v421c0 38 -8 56 -33 67c-26 10 -66 12 -131 11c-4 -17 -13 -43 -22 -61c47 1 89 0 101 0c14 0 19 -4 19 -17v-421h-181v-64h181v-139h66v139h78zM777 726l-60 18c-11 -56 -44 -143 -80 -209l56 -15c37 64 71 150 84 206z" />
</svg>
