<?xml version="1.0" standalone="no"?>
<!DOCTYPE svg PUBLIC "-//W3C//DTD SVG 1.1//EN" "http://www.w3.org/Graphics/SVG/1.1/DTD/svg11.dtd" >
<svg xmlns="http://www.w3.org/2000/svg" xmlns:xlink="http://www.w3.org/1999/xlink" version="1.1" viewBox="-10 0 1010 1000">
   <path fill="currentColor"
d="M570 212l-65 27c-10 -43 -42 -109 -74 -158l61 -24c34 49 67 112 78 155zM352 545l-40 56c-13 -32 -44 -92 -70 -141v496h-67v-490c-29 108 -68 211 -109 276c-7 -21 -23 -54 -36 -72c55 -81 108 -234 134 -365h-111v-70h122v-192h67v192h90v70h-90v64
c26 39 94 148 110 176zM589 309v550h95v-550h-95zM751 859h205v68h-646v-68h211v-550h-162v-67h325c30 -53 67 -136 87 -194l76 22c-27 57 -61 123 -90 172h182v67h-188v550zM360 417l62 -13c33 103 67 237 78 314l-68 18c-10 -80 -41 -216 -72 -319zM828 736l-55 -17
c30 -82 67 -219 86 -315l67 18c-27 103 -65 233 -98 314z" />
</svg>
