<?xml version="1.0" standalone="no"?>
<!DOCTYPE svg PUBLIC "-//W3C//DTD SVG 1.1//EN" "http://www.w3.org/Graphics/SVG/1.1/DTD/svg11.dtd" >
<svg xmlns="http://www.w3.org/2000/svg" xmlns:xlink="http://www.w3.org/1999/xlink" version="1.1" viewBox="-10 0 1010 1000">
   <path fill="currentColor"
d="M566 675l-3 3c27 40 64 75 108 106c49 -31 91 -67 123 -109h-228zM524 437v68h297v-68h-297zM524 321v66h297v-66h-297zM851 614l45 24c-37 74 -94 134 -163 182c68 35 149 60 236 74c-16 14 -35 43 -45 62c-96 -18 -182 -51 -256 -96c-86 47 -186 80 -284 100
c-7 -17 -23 -45 -35 -60c90 -15 181 -43 261 -82c-35 -28 -66 -60 -91 -95c-35 32 -72 60 -108 82c-11 -12 -37 -38 -53 -50c86 -47 167 -118 215 -200h-116v-239c-10 12 -19 23 -29 34c-13 -11 -41 -31 -59 -41v19h-106v53c28 37 103 149 120 177l-41 54
c-14 -32 -50 -94 -79 -144v487h-68v-467c-33 109 -76 214 -122 279c-8 -19 -26 -47 -38 -64c62 -83 123 -239 152 -375h-132v-69h140v-216h68v216h106v44c64 -66 122 -164 156 -261l73 19c-10 28 -22 55 -35 82h380v64h-413c-13 22 -26 43 -39 63h401v285h-241
c-11 21 -24 42 -39 62h225z" />
</svg>
