<?xml version="1.0" standalone="no"?>
<!DOCTYPE svg PUBLIC "-//W3C//DTD SVG 1.1//EN" "http://www.w3.org/Graphics/SVG/1.1/DTD/svg11.dtd" >
<svg xmlns="http://www.w3.org/2000/svg" xmlns:xlink="http://www.w3.org/1999/xlink" version="1.1" viewBox="-10 0 1010 1000">
   <path fill="currentColor"
d="M700 145v60c0 84 -17 197 -97 273c-10 -12 -35 -35 -49 -42c72 -69 83 -161 83 -233v-123h225v254c0 25 2 32 14 32h43c11 0 28 0 39 -4c1 17 2 42 5 58c-11 4 -27 5 -43 5h-51c-59 0 -70 -26 -70 -92v-188h-99zM334 527l-38 52c-12 -30 -39 -87 -63 -135v512h-66v-479
c-26 100 -61 197 -96 257c-8 -19 -24 -48 -35 -64c50 -81 100 -234 123 -365h-105v-70h113v-192h66v192h94v70h-94v49c25 41 87 146 101 173zM584 669l6 63c-53 12 -106 24 -158 35v175h-69v-161c-24 5 -47 10 -68 15l-14 -70c24 -3 52 -9 82 -15v-579
c63 -25 134 -63 174 -94l58 52c-47 27 -106 55 -163 77v114h134v66h-134v140h137v66h-137v145zM845 559h-171c20 66 50 127 87 179c37 -50 66 -108 84 -179zM882 492l41 12c-22 120 -63 214 -118 286c42 44 93 80 151 101c-16 14 -36 40 -46 59c-58 -25 -108 -62 -150 -109
c-53 53 -117 91 -186 118c-8 -18 -24 -44 -39 -58c69 -23 131 -60 183 -112c-46 -64 -80 -141 -103 -226l16 -4h-36v-65h275z" />
</svg>
