<?xml version="1.0" standalone="no"?>
<!DOCTYPE svg PUBLIC "-//W3C//DTD SVG 1.1//EN" "http://www.w3.org/Graphics/SVG/1.1/DTD/svg11.dtd" >
<svg xmlns="http://www.w3.org/2000/svg" xmlns:xlink="http://www.w3.org/1999/xlink" version="1.1" viewBox="-10 0 1010 1000">
   <path fill="currentColor"
d="M441 201v106h-61v-168h228c-9 -25 -22 -53 -33 -75l64 -20c15 29 33 67 45 95h251v168h-64v-106h-430zM363 523l-43 53c-12 -31 -40 -88 -65 -134v514h-63v-482c-28 104 -66 203 -104 265c-8 -21 -25 -53 -37 -71c55 -82 109 -233 134 -363h-123v-70h130v-192h63v192h98
v70h-98v47c24 34 92 143 108 171zM507 657h325c-64 -26 -122 -59 -172 -95c-47 37 -99 69 -153 95zM524 867h273v-150h-273v150zM565 361l-10 12c26 36 60 73 103 108c40 -36 74 -76 101 -120h-194zM809 300l43 27c-34 74 -82 138 -141 193c70 46 157 84 254 108
c-14 14 -33 42 -42 60c-20 -5 -39 -11 -58 -18v285h-68v-27h-273v29h-66v-277c-27 10 -55 21 -82 30c-8 -18 -29 -47 -42 -60c98 -27 194 -71 275 -130c-38 -33 -69 -67 -94 -101c-32 32 -70 63 -114 89c-9 -16 -28 -38 -43 -48c109 -63 178 -151 209 -230l67 11
c-9 21 -19 41 -31 62h194z" />
</svg>
