<?xml version="1.0" standalone="no"?>
<!DOCTYPE svg PUBLIC "-//W3C//DTD SVG 1.1//EN" "http://www.w3.org/Graphics/SVG/1.1/DTD/svg11.dtd" >
<svg xmlns="http://www.w3.org/2000/svg" xmlns:xlink="http://www.w3.org/1999/xlink" version="1.1" viewBox="-10 0 1010 1000">
   <path fill="currentColor"
d="M346 545l-39 56c-13 -33 -43 -92 -68 -141v496h-64v-498c-29 111 -68 218 -108 284c-7 -22 -24 -54 -36 -73c54 -80 107 -233 133 -364h-111v-70h122v-192h64v192h88v70h-88v66c27 40 92 146 107 174zM782 686h94v-151h-94v151zM637 686h91v-151h-91v151zM484 686h100
v-151h-100v151zM830 211h-392v118h392v-118zM933 480v408c0 26 -4 41 -24 49c-18 9 -46 9 -86 9c-3 -13 -10 -35 -17 -48h58c9 0 12 -3 12 -11v-141h-94v166h-54v-166h-91v168h-53v-168h-100v201h-58v-309c-12 100 -36 203 -81 283c-13 -11 -42 -28 -57 -34
c76 -137 83 -328 83 -465v-270h246c-14 -29 -34 -63 -54 -89l63 -23c28 34 54 78 69 112h202v236h-459v34c0 19 0 37 -1 58h496z" />
</svg>
