<?xml version="1.0" standalone="no"?>
<!DOCTYPE svg PUBLIC "-//W3C//DTD SVG 1.1//EN" "http://www.w3.org/Graphics/SVG/1.1/DTD/svg11.dtd" >
<svg xmlns="http://www.w3.org/2000/svg" xmlns:xlink="http://www.w3.org/1999/xlink" version="1.1" viewBox="-10 0 1010 1000">
   <path fill="currentColor"
d="M349 563l-38 54c-12 -32 -42 -91 -67 -141v479h-66v-459c-29 105 -67 205 -107 268c-8 -17 -25 -45 -36 -61c55 -83 111 -241 137 -376h-117v-68h123v-216h66v216h96v68h-96v63c26 38 90 146 105 173zM609 589l-53 -16c15 -35 29 -87 40 -137h-73v442c0 34 -7 54 -31 66
c-23 10 -58 11 -113 11c-2 -18 -13 -46 -24 -63c41 1 76 1 87 1c11 -1 15 -4 15 -15v-306c-39 97 -88 186 -137 241c-11 -16 -33 -38 -47 -50c68 -67 136 -199 178 -327h-138v-63h230c-41 -44 -116 -104 -180 -144l43 -39c26 16 54 35 81 54c30 -28 60 -65 84 -99h-243v-61
h289l13 -4l45 32c-38 58 -91 122 -141 169c25 20 47 41 62 58l-36 34h57l9 -3l45 12c-15 72 -39 156 -62 207zM951 317h-124c33 146 92 307 148 390c-14 11 -37 34 -50 50c-40 -67 -77 -177 -107 -291v489h-67v-458c-33 112 -78 218 -127 283c-7 -20 -26 -46 -39 -63
c67 -90 129 -254 157 -400h-111v-65h120v-209h67v209h133v65z" />
</svg>
