<?xml version="1.0" standalone="no"?>
<!DOCTYPE svg PUBLIC "-//W3C//DTD SVG 1.1//EN" "http://www.w3.org/Graphics/SVG/1.1/DTD/svg11.dtd" >
<svg xmlns="http://www.w3.org/2000/svg" xmlns:xlink="http://www.w3.org/1999/xlink" version="1.1" viewBox="-10 0 1010 1000">
   <path fill="currentColor"
d="M593 172l-62 29c-12 -33 -40 -88 -68 -127l60 -26c27 39 58 90 70 124zM247 305v49c26 36 98 148 115 176l-44 53c-13 -31 -44 -90 -71 -139v511h-66v-480c-31 109 -72 213 -114 278c-8 -21 -25 -53 -38 -71c59 -83 118 -241 145 -377h-121v-70h128v-192h66v192h102v70
h-102zM707 371v-94h-84v94h84zM862 574v-139h-103v124c0 16 2 18 21 18h65c11 0 15 -1 17 -3zM476 846h386v-79h-386v79zM572 435h-96v272h386v-81h-10h-77c-54 0 -69 -12 -69 -67v-124h-81v40c0 60 -20 136 -97 191c-8 -10 -31 -28 -42 -34c70 -49 86 -110 86 -159v-38z
M955 277h-183v94h158v580h-68v-44h-386v50h-66v-586h149v-94h-174v-66h318c36 -46 80 -116 105 -165l69 25c-30 47 -66 99 -98 140h176v66z" />
</svg>
