<?xml version="1.0" standalone="no"?>
<!DOCTYPE svg PUBLIC "-//W3C//DTD SVG 1.1//EN" "http://www.w3.org/Graphics/SVG/1.1/DTD/svg11.dtd" >
<svg xmlns="http://www.w3.org/2000/svg" xmlns:xlink="http://www.w3.org/1999/xlink" version="1.1" viewBox="-10 0 1010 1000">
   <path fill="currentColor"
d="M880 46l47 56c-139 34 -358 55 -538 63c-2 -18 -11 -43 -19 -59c178 -10 391 -30 510 -60zM691 289l-62 23c-8 -36 -27 -94 -46 -139l59 -19c20 43 40 100 49 135zM356 532l-45 52c-12 -30 -40 -87 -64 -135v507h-67v-477c-30 107 -71 210 -112 275
c-9 -22 -26 -54 -38 -72c58 -83 116 -241 143 -377h-119v-70h126v-192h67v192h116v70h-116v48c24 36 93 150 109 179zM797 655h-222c29 47 68 90 115 126c44 -36 81 -78 107 -126zM845 594l44 21c-31 83 -80 151 -142 205c61 35 131 62 209 78c-15 14 -34 41 -43 59
c-82 -20 -156 -52 -221 -96c-66 45 -141 78 -219 101c-7 -18 -24 -43 -38 -57c71 -18 141 -47 203 -85c-43 -38 -79 -80 -109 -126c-40 107 -99 192 -185 259c-11 -11 -40 -33 -57 -43c123 -84 188 -212 221 -382h-135v-62h146c4 -27 7 -56 10 -85h-137v-63h67
c-10 -33 -34 -87 -56 -128l56 -22c23 40 49 93 61 125l-55 25h281c30 -50 66 -121 85 -173l67 23c-26 49 -57 106 -84 150h112v63h-330c-3 29 -7 58 -11 85h359v62h-370c-4 24 -9 47 -14 69h272z" />
</svg>
