<?xml version="1.0" standalone="no"?>
<!DOCTYPE svg PUBLIC "-//W3C//DTD SVG 1.1//EN" "http://www.w3.org/Graphics/SVG/1.1/DTD/svg11.dtd" >
<svg xmlns="http://www.w3.org/2000/svg" xmlns:xlink="http://www.w3.org/1999/xlink" version="1.1" viewBox="-10 0 1010 1000">
   <path fill="currentColor"
d="M248 319v87c26 37 97 148 113 175l-38 54c-14 -32 -47 -97 -75 -147v467h-67v-469c-30 106 -69 208 -110 272c-8 -19 -25 -46 -37 -61c57 -85 113 -243 140 -378h-119v-67h126v-209h67v209h108v67h-108zM467 45l70 16c-14 60 -33 123 -57 185v709h-64v-570
c-22 39 -47 76 -75 108c-10 -15 -29 -40 -42 -53c86 -101 142 -264 168 -395zM603 458v95h104v-95h-104zM603 313v93h104v-93h-104zM873 406v-93h-110v93h110zM873 553v-95h-110v95h110zM934 608h-169c-7 73 -19 134 -43 186c63 50 145 85 244 102c-15 14 -34 42 -43 60
c-94 -20 -173 -55 -235 -105c-35 45 -84 80 -156 106c-7 -16 -26 -41 -39 -54c70 -23 116 -55 147 -96c-41 -45 -73 -98 -96 -159l60 -14c16 42 39 80 68 113c15 -40 23 -86 28 -139h-157v-350h158v-88h-162v-63h407v63h-177v88h165v350z" />
</svg>
