<?xml version="1.0" standalone="no"?>
<!DOCTYPE svg PUBLIC "-//W3C//DTD SVG 1.1//EN" "http://www.w3.org/Graphics/SVG/1.1/DTD/svg11.dtd" >
<svg xmlns="http://www.w3.org/2000/svg" xmlns:xlink="http://www.w3.org/1999/xlink" version="1.1" viewBox="-10 0 1010 1000">
   <path fill="currentColor"
d="M649 284h-294c22 31 42 73 50 100l-32 7h235l-10 -3c17 -29 37 -70 51 -104zM936 719h-332c91 72 229 131 357 158c-17 16 -40 45 -50 66c-134 -38 -280 -113 -376 -205v218h-73v-213c-96 87 -242 159 -373 197c-10 -19 -32 -47 -48 -63c124 -28 263 -88 353 -158h-327
v-63h395v-74h-301v-57h301v-73h-351v-61h218c-9 -30 -29 -70 -49 -100l35 -7h-244v-64h159c-14 -40 -49 -100 -79 -145l63 -21c34 45 70 107 85 147l-51 19h123v-177h69v177h119v-177h70v177h121l-37 -12c26 -42 58 -107 76 -152l76 20c-28 51 -60 106 -88 144h155v64h-200
c-20 38 -42 77 -62 107h227v61h-362v73h313v57h-313v74h401v63z" />
</svg>
