<?xml version="1.0" standalone="no"?>
<!DOCTYPE svg PUBLIC "-//W3C//DTD SVG 1.1//EN" "http://www.w3.org/Graphics/SVG/1.1/DTD/svg11.dtd" >
<svg xmlns="http://www.w3.org/2000/svg" xmlns:xlink="http://www.w3.org/1999/xlink" version="1.1" viewBox="-10 0 1010 1000">
   <path fill="currentColor"
d="M890 254l63 12c-19 89 -41 200 -63 269l-52 -13c20 -71 42 -189 52 -268zM654 538l-48 -33c27 -60 37 -161 38 -246l52 5c0 94 -11 206 -42 274zM327 513l-39 61c-12 -31 -41 -89 -65 -137v519h-68v-467c-25 98 -57 191 -90 250c-8 -19 -25 -52 -37 -69
c49 -82 96 -235 117 -365h-93v-70h103v-192h68v192h92v70h-92v36c23 36 89 145 104 172zM612 584l-38 63c-12 -28 -40 -80 -64 -122v431h-66v-430c-34 111 -81 220 -130 286c-8 -21 -25 -48 -38 -65c58 -77 117 -218 148 -343h-98v-70h118v-174c-35 6 -69 12 -103 17
c-3 -15 -12 -39 -21 -56c88 -14 190 -39 248 -64l52 55c-33 12 -70 23 -110 33v189h96v70h-96v32c24 33 87 125 102 148zM805 51v243c0 35 0 73 -2 110c20 214 62 409 161 492c-15 13 -37 39 -48 58c-72 -69 -113 -186 -139 -328c-24 117 -68 232 -151 335
c-9 -17 -31 -42 -46 -51c147 -188 160 -423 160 -616v-243h65z" />
</svg>
