<?xml version="1.0" standalone="no"?>
<!DOCTYPE svg PUBLIC "-//W3C//DTD SVG 1.1//EN" "http://www.w3.org/Graphics/SVG/1.1/DTD/svg11.dtd" >
<svg xmlns="http://www.w3.org/2000/svg" xmlns:xlink="http://www.w3.org/1999/xlink" version="1.1" viewBox="-10 0 1010 1000">
   <path fill="currentColor"
d="M639 322h-9c-59 77 -152 154 -230 195c-10 -16 -30 -38 -45 -51c68 -30 149 -85 206 -144h-179v-61h250c-42 -26 -91 -54 -134 -72l42 -38c30 13 64 31 96 48c35 -19 71 -45 100 -70h-307v-58h371l16 -3l44 32c-46 49 -110 96 -172 130c18 11 34 21 46 31h135l11 -3
l51 16c-30 59 -65 124 -95 166l-59 -18c17 -27 38 -63 56 -100h-126v118c0 34 -6 49 -32 59c-25 10 -64 10 -124 10c-3 -19 -12 -41 -21 -58c44 1 83 1 94 1c12 -1 15 -4 15 -14v-116zM362 531l-45 53c-13 -31 -42 -88 -67 -136v508h-68v-465c-30 103 -70 202 -111 263
c-8 -21 -26 -53 -39 -71c60 -84 119 -242 148 -378h-122v-70h124v-191h68v191h104v70h-104v48c25 35 96 149 112 178zM945 677h-227c63 71 155 138 232 174c-15 14 -37 39 -48 55c-75 -41 -163 -117 -228 -195v246h-70v-239c-64 82 -154 156 -237 197
c-12 -18 -34 -43 -48 -56c86 -36 180 -107 241 -182h-200v-64h244v-93h70v93h271v64z" />
</svg>
