<?xml version="1.0" standalone="no"?>
<!DOCTYPE svg PUBLIC "-//W3C//DTD SVG 1.1//EN" "http://www.w3.org/Graphics/SVG/1.1/DTD/svg11.dtd" >
<svg xmlns="http://www.w3.org/2000/svg" xmlns:xlink="http://www.w3.org/1999/xlink" version="1.1" viewBox="-10 0 1010 1000">
   <path fill="currentColor"
d="M859 97l64 38c-54 58 -123 119 -179 160l-55 -36c55 -41 128 -111 170 -162zM292 256l-53 48c-32 -48 -102 -114 -165 -158l51 -43c64 43 135 105 167 153zM386 361v103h228v-103h-228zM386 204v101h228v-101h-228zM686 524h-369v-380h125c11 -33 21 -72 26 -101l80 12
c-11 31 -23 62 -33 89h171v246l38 -45c78 37 179 94 229 136l-45 58c-47 -42 -145 -101 -222 -142v127zM296 341l21 61c-78 48 -165 99 -232 139l-38 -61c62 -33 157 -87 249 -139zM941 676h-339c88 87 226 160 357 196c-16 14 -38 42 -49 61c-136 -44 -281 -132 -375 -233
v255h-74v-259c-92 105 -239 197 -370 244c-12 -19 -34 -46 -50 -61c126 -38 262 -116 350 -203h-331v-65h401v-73h74v73h406v65z" />
</svg>
