<?xml version="1.0" standalone="no"?>
<!DOCTYPE svg PUBLIC "-//W3C//DTD SVG 1.1//EN" "http://www.w3.org/Graphics/SVG/1.1/DTD/svg11.dtd" >
<svg xmlns="http://www.w3.org/2000/svg" xmlns:xlink="http://www.w3.org/1999/xlink" version="1.1" viewBox="-10 0 1010 1000">
   <path fill="currentColor"
d="M936 207h-219c-20 49 -44 95 -71 132c-13 -11 -36 -29 -51 -37c50 -67 85 -173 101 -256l67 14c-7 27 -15 57 -25 86h198v61zM865 765h-68v-252h-329v259h-67v-321h464v314zM708 294l41 -38c55 31 117 75 148 108l-44 46c-30 -34 -92 -84 -145 -116zM579 43v367h-64v-367
h64zM434 82v298h-63v-298h63zM349 544l-41 60c-13 -32 -42 -92 -68 -142v494h-68v-431c-27 95 -62 186 -98 244c-9 -19 -26 -47 -38 -62c55 -87 107 -248 132 -384h-113v-68h117v-212h68v212h96v68h-96v39c25 37 95 154 109 182zM744 882h119c27 0 32 -9 35 -76
c14 9 40 18 58 23c-7 88 -26 110 -85 110h-134c-79 0 -98 -16 -98 -81v-112c-34 114 -113 173 -300 208c-6 -16 -22 -43 -35 -55c250 -42 285 -121 292 -343h68c-3 73 -9 134 -23 184h63v118c0 20 5 24 40 24z" />
</svg>
