<?xml version="1.0" standalone="no"?>
<!DOCTYPE svg PUBLIC "-//W3C//DTD SVG 1.1//EN" "http://www.w3.org/Graphics/SVG/1.1/DTD/svg11.dtd" >
<svg xmlns="http://www.w3.org/2000/svg" xmlns:xlink="http://www.w3.org/1999/xlink" version="1.1" viewBox="-10 0 1010 1000">
   <path fill="currentColor"
d="M795 49l73 30c-34 56 -74 122 -107 163l-57 -25c30 -45 71 -117 91 -168zM594 215l-65 28c-14 -47 -48 -117 -83 -169l61 -25c36 52 71 120 87 166zM924 254v68h-547v-68h547zM688 399l32 -54c71 42 172 112 225 163l-35 62c-49 -48 -149 -124 -222 -171zM346 542l-42 54
c-12 -32 -36 -91 -60 -142v501h-61v-483c-30 111 -71 218 -112 284c-8 -22 -24 -55 -36 -73c57 -84 114 -242 141 -378h-125v-70h132v-192h61v192h98v70h-98v49c24 38 87 159 102 188zM468 624v237h78v-237h-78zM680 624h-79v237h79v-237zM815 624h-80v237h80v-237zM880 861
h71v66h-628v-66h82v-287l-11 7c-8 -21 -24 -51 -36 -66c81 -47 156 -116 205 -171l59 34c-56 62 -124 128 -199 183h457v300z" />
</svg>
