<?xml version="1.0" standalone="no"?>
<!DOCTYPE svg PUBLIC "-//W3C//DTD SVG 1.1//EN" "http://www.w3.org/Graphics/SVG/1.1/DTD/svg11.dtd" >
<svg xmlns="http://www.w3.org/2000/svg" xmlns:xlink="http://www.w3.org/1999/xlink" version="1.1" viewBox="-10 0 1010 1000">
   <path fill="currentColor"
d="M336 528l-42 60c-11 -30 -38 -83 -61 -128v496h-66v-423c-26 93 -59 180 -93 237c-9 -20 -26 -47 -38 -63c54 -87 105 -248 128 -384h-108v-68h111v-211h66v211h89v68h-89v37c22 32 90 141 103 168zM565 230h-149v99h149v-99zM416 501h149v-113h-149v113zM498 633l55 -19
c40 82 81 189 94 253l-58 26c-5 -25 -14 -58 -26 -91c-173 82 -199 96 -216 112c-7 -14 -25 -39 -36 -50c15 -12 40 -41 40 -88v-605h130c-17 -29 -45 -68 -70 -96l54 -29c30 32 64 75 79 103l-35 22h119v389h-212v241l127 -58c-13 -37 -29 -75 -45 -110zM897 106l46 26
c-23 87 -51 186 -83 290c59 102 88 182 88 249c0 58 -13 112 -39 133c-12 10 -31 17 -49 19c-20 2 -45 2 -70 1c0 -18 -7 -44 -17 -63c24 3 46 3 61 3c12 -1 23 -4 30 -9c15 -12 21 -52 20 -86c0 -63 -25 -136 -85 -239c26 -92 49 -181 65 -257h-113v780h-63v-843h199z" />
</svg>
