<?xml version="1.0" standalone="no"?>
<!DOCTYPE svg PUBLIC "-//W3C//DTD SVG 1.1//EN" "http://www.w3.org/Graphics/SVG/1.1/DTD/svg11.dtd" >
<svg xmlns="http://www.w3.org/2000/svg" xmlns:xlink="http://www.w3.org/1999/xlink" version="1.1" viewBox="-10 0 1010 1000">
   <path fill="currentColor"
d="M377 567l-41 64c-14 -28 -49 -79 -78 -121v446h-69v-458c-32 106 -74 207 -118 272c-8 -21 -26 -48 -39 -65c61 -87 122 -248 151 -383h-128v-68h134v-211h69v211h109v68h-109v103c27 30 102 120 119 142zM538 663l63 15c-28 76 -73 155 -118 208
c-12 -11 -40 -27 -55 -35c46 -49 86 -120 110 -188zM567 465v84h291v-84h-291zM567 328v82h291v-82h-291zM924 606h-183v278c0 35 -7 52 -32 63c-24 10 -60 11 -118 10c-2 -19 -10 -43 -19 -62c40 1 75 2 86 1c11 0 14 -3 14 -14v-276h-168v-335h143c9 -33 18 -77 24 -111
h-216v204c0 168 -14 414 -113 580c-14 -11 -43 -28 -60 -35c96 -161 105 -384 105 -545v-271h566v67h-201c-13 38 -26 78 -38 111h210v335zM801 683l57 -21c42 63 88 146 105 200l-62 24c-16 -54 -59 -140 -100 -203z" />
</svg>
