<?xml version="1.0" standalone="no"?>
<!DOCTYPE svg PUBLIC "-//W3C//DTD SVG 1.1//EN" "http://www.w3.org/Graphics/SVG/1.1/DTD/svg11.dtd" >
<svg xmlns="http://www.w3.org/2000/svg" xmlns:xlink="http://www.w3.org/1999/xlink" version="1.1" viewBox="-10 0 1010 1000">
   <path fill="currentColor"
d="M664 262l58 6c-6 31 -15 66 -23 98h113v-141h-132v-59h132v-110h61v110h74v59h-74v141h82v60h-82v127h-61v-127h-190c15 -46 31 -111 42 -164zM586 204h-100c-29 57 -65 113 -114 161c-11 -13 -32 -30 -47 -38c82 -79 131 -187 154 -272l62 8c-8 27 -18 55 -29 83h94
l12 -2l37 13c-37 202 -135 335 -255 405c-9 -15 -26 -36 -39 -48c53 -27 102 -71 142 -129c-19 -21 -45 -44 -67 -61l36 -41c21 15 43 34 62 52c21 -40 39 -83 52 -131zM354 530l-44 51c-12 -30 -40 -85 -64 -133v508h-67v-490c-34 112 -79 221 -125 288
c-7 -21 -25 -54 -39 -71c64 -84 126 -241 156 -378h-113v-70h121v-192h67v192h89v70h-89v49c25 38 92 147 108 176zM947 662h-220c56 82 148 160 234 200c-16 13 -38 39 -50 57c-81 -45 -167 -129 -226 -218v256h-70v-254c-62 92 -153 177 -236 225c-11 -17 -32 -42 -48 -55
c88 -42 182 -125 242 -211h-207v-65h249v-108h70v108h262v65z" />
</svg>
