<?xml version="1.0" standalone="no"?>
<!DOCTYPE svg PUBLIC "-//W3C//DTD SVG 1.1//EN" "http://www.w3.org/Graphics/SVG/1.1/DTD/svg11.dtd" >
<svg xmlns="http://www.w3.org/2000/svg" xmlns:xlink="http://www.w3.org/1999/xlink" version="1.1" viewBox="-10 0 1010 1000">
   <path fill="currentColor"
d="M265 322v82c29 29 106 115 123 136l-42 66c-15 -28 -50 -77 -81 -118v467h-71v-455c-32 107 -74 212 -118 277c-8 -21 -28 -51 -41 -69c60 -88 121 -250 149 -386h-134v-67h144v-212h71v212h114v67h-114zM478 263v80h353v-80h-353zM478 132v78h353v-78h-353zM794 884h78
c24 0 29 -15 32 -114c14 11 43 22 62 27c-6 119 -25 149 -85 149h-97c-72 0 -90 -19 -90 -89v-187h-105c-17 147 -68 237 -241 289c-8 -17 -27 -46 -42 -59c154 -41 196 -112 211 -230h-172v-64h273v-206h-208v-325h493v325h-216v206h271v64h-192v186c0 23 4 28 28 28z
M404 442l62 -22c32 45 64 108 76 149l-65 26c-10 -41 -42 -105 -73 -153zM815 595l-60 -22c29 -42 66 -111 86 -158l72 24c-32 55 -69 116 -98 156z" />
</svg>
