<?xml version="1.0" standalone="no"?>
<!DOCTYPE svg PUBLIC "-//W3C//DTD SVG 1.1//EN" "http://www.w3.org/Graphics/SVG/1.1/DTD/svg11.dtd" >
<svg xmlns="http://www.w3.org/2000/svg" xmlns:xlink="http://www.w3.org/1999/xlink" version="1.1" viewBox="-10 0 1010 1000">
   <path fill="currentColor"
d="M862 93l63 25c-32 42 -70 85 -100 113l-47 -21c28 -32 65 -83 84 -117zM87 556v-160h829v160h-74v-96h-683v96h-72zM926 346l-48 50c-41 -33 -117 -87 -183 -131c-34 54 -89 91 -179 118c-7 -16 -26 -42 -40 -55c166 -44 195 -122 203 -285h68c-3 66 -10 121 -26 167
c68 42 157 101 205 136zM524 247l-47 -31c44 -26 73 -75 87 -122l51 17c-17 52 -42 104 -91 136zM427 95l62 24c-30 40 -63 81 -90 108l-45 -20c24 -31 57 -80 73 -112zM152 97l49 17c-17 51 -43 103 -88 136l-47 -31c41 -27 70 -76 86 -122zM460 322l-50 47
c-29 -25 -83 -64 -130 -97c-35 56 -94 94 -191 121c-6 -16 -24 -41 -37 -54c176 -44 206 -123 213 -296h66c-3 69 -10 126 -25 174c52 32 119 77 154 105zM893 655h-309c85 94 226 172 365 208c-18 16 -40 46 -52 67c-136 -44 -274 -131 -364 -237v262h-72v-258
c-90 104 -226 187 -366 229c-11 -20 -31 -48 -48 -63c142 -35 282 -113 366 -208h-297v-66h345v-103h72v103h360v66z" />
</svg>
