<?xml version="1.0" standalone="no"?>
<!DOCTYPE svg PUBLIC "-//W3C//DTD SVG 1.1//EN" "http://www.w3.org/Graphics/SVG/1.1/DTD/svg11.dtd" >
<svg xmlns="http://www.w3.org/2000/svg" xmlns:xlink="http://www.w3.org/1999/xlink" version="1.1" viewBox="-10 0 1010 1000">
   <path fill="currentColor"
d="M263 328v74c28 37 102 149 119 176l-41 55c-14 -33 -49 -94 -78 -143v465h-68v-467c-33 109 -76 214 -122 279c-8 -19 -26 -47 -38 -64c62 -83 123 -239 152 -375h-132v-69h140v-216h68v216h86v69h-86zM815 675h-327v69h327v-69zM488 866h327v-71h-327v71zM421 955v-335
h464v335h-70v-35h-327v35h-67zM959 317h-256c-41 28 -83 53 -127 77v22c99 -17 206 -40 270 -64l43 44c-83 30 -205 54 -313 69v32c0 24 9 28 65 28h195c39 0 46 -8 49 -65c16 9 41 18 59 22c-8 79 -28 100 -101 100h-206c-101 0 -126 -17 -126 -84v-71
c-48 24 -97 45 -146 63c-11 -14 -36 -40 -52 -52c68 -22 134 -49 198 -80v-4h8c23 -12 47 -24 69 -37h-221v-58h181v-76h-156v-56h156v-81h71v81h152v56h-152v76h61c73 -51 137 -109 187 -173l61 27c-42 53 -92 102 -147 146h178v58z" />
</svg>
