<?xml version="1.0" standalone="no"?>
<!DOCTYPE svg PUBLIC "-//W3C//DTD SVG 1.1//EN" "http://www.w3.org/Graphics/SVG/1.1/DTD/svg11.dtd" >
<svg xmlns="http://www.w3.org/2000/svg" xmlns:xlink="http://www.w3.org/1999/xlink" version="1.1" viewBox="-10 0 1010 1000">
   <path fill="currentColor"
d="M536 746v107h159v-107h-159zM695 529v-95h-159v95h159zM695 688v-101h-159v101h159zM953 853v64h-417v39h-71v-437c-25 29 -52 55 -81 79c-9 -15 -31 -41 -46 -56l-7 8c-12 -29 -41 -82 -67 -127v533h-68v-490c-34 113 -79 221 -126 288c-8 -22 -26 -54 -40 -72
c64 -83 127 -241 158 -377h-130v-70h138v-192h68v192h97v70h-97v28c23 29 97 135 113 162l-22 27c90 -74 158 -178 207 -302h-112v101h-64v-166h199c11 -36 21 -74 30 -112l71 13c-8 34 -17 67 -26 99h292v166h-67v-101h-247c-20 54 -43 103 -69 150h137
c-11 -31 -27 -66 -41 -95l62 -14c18 33 37 76 49 109h156v64h-168v95h154v58h-154v101h155v58h-155v107h189z" />
</svg>
