<?xml version="1.0" standalone="no"?>
<!DOCTYPE svg PUBLIC "-//W3C//DTD SVG 1.1//EN" "http://www.w3.org/Graphics/SVG/1.1/DTD/svg11.dtd" >
<svg xmlns="http://www.w3.org/2000/svg" xmlns:xlink="http://www.w3.org/1999/xlink" version="1.1" viewBox="-10 0 1010 1000">
   <path fill="currentColor"
d="M810 649v-114h-316v114h316zM880 478v228h-453v-228h453zM590 840l-66 23c-6 -34 -25 -86 -47 -127l63 -19c22 38 43 90 50 123zM940 352v64h-563v-64h563zM906 90v198h-494v-198h67v137h143v-184h69v184h146v-137h69zM393 534l-45 53c-14 -32 -45 -93 -73 -143v512h-69
v-487c-34 111 -79 218 -125 285c-8 -22 -26 -54 -40 -72c64 -83 127 -241 158 -377h-146v-70h153v-192h69v192h113v70h-113v48c27 37 100 153 118 181zM766 873h188v64h-606v-64h348c22 -46 50 -112 63 -159l68 23c-19 45 -40 95 -61 136z" />
</svg>
