<?xml version="1.0" standalone="no"?>
<!DOCTYPE svg PUBLIC "-//W3C//DTD SVG 1.1//EN" "http://www.w3.org/Graphics/SVG/1.1/DTD/svg11.dtd" >
<svg xmlns="http://www.w3.org/2000/svg" xmlns:xlink="http://www.w3.org/1999/xlink" version="1.1" viewBox="-10 0 1010 1000">
   <path fill="currentColor"
d="M542 501l-84 37v325c0 33 -7 49 -30 59c-22 11 -56 12 -108 12c-3 -17 -14 -41 -23 -58c40 1 74 0 85 0s14 -3 14 -13v-298l-89 40l-17 -62l-9 15c-11 -23 -34 -64 -55 -100v498h-61v-473c-27 108 -64 214 -101 278c-6 -21 -22 -55 -32 -73c51 -81 100 -237 124 -370
h-104v-64h113v-211h61v211h82v64h-82v61c23 30 77 103 90 124l-25 38c30 -10 66 -25 105 -40v-145h1c31 -48 65 -122 87 -185h-162v-61h191l11 -3l42 23c-27 77 -69 163 -108 229v116l68 -28zM612 657l60 14c-21 89 -59 179 -100 238c-11 -9 -37 -27 -51 -35
c41 -55 73 -136 91 -217zM876 579l-98 10v289c0 35 -5 51 -27 61c-21 11 -55 11 -103 11c-3 -18 -11 -42 -19 -60c35 1 66 1 75 1c9 -1 12 -3 12 -13v-283c-106 11 -126 15 -141 22c-3 -14 -13 -47 -20 -64c19 -4 43 -26 72 -58c16 -16 48 -53 85 -102
c-91 10 -110 14 -123 20c-3 -14 -13 -46 -20 -61c14 -3 27 -16 41 -36c14 -19 61 -86 90 -156c-35 5 -71 9 -104 12c-3 -15 -12 -38 -19 -54c107 -12 236 -33 306 -60l48 52c-57 20 -131 35 -207 47l41 18c-30 58 -67 116 -103 163l94 -6c26 -36 51 -75 73 -113l56 37
c-67 104 -145 205 -224 285l190 -17c-15 -29 -33 -58 -49 -85l48 -22c43 62 86 147 100 202l-49 27c-5 -20 -14 -42 -25 -67zM812 673l52 -18c40 69 81 160 92 218l-55 23c-11 -59 -49 -153 -89 -223z" />
</svg>
