<?xml version="1.0" standalone="no"?>
<!DOCTYPE svg PUBLIC "-//W3C//DTD SVG 1.1//EN" "http://www.w3.org/Graphics/SVG/1.1/DTD/svg11.dtd" >
<svg xmlns="http://www.w3.org/2000/svg" xmlns:xlink="http://www.w3.org/1999/xlink" version="1.1" viewBox="-10 0 1010 1000">
   <path fill="currentColor"
d="M253 43v192h103v70h-103v47c24 34 87 136 101 161l-44 53c-11 -27 -34 -75 -57 -119v509h-68v-477c-31 107 -72 210 -114 275c-8 -22 -26 -54 -39 -72c60 -84 118 -242 146 -377h-125v-70h132v-192h68zM796 737h-131v197h-62v-197h-127v-53h88c-14 -35 -47 -87 -78 -125
l47 -19c33 37 68 89 81 124l-45 20h84c28 -42 61 -101 79 -142l55 22c-23 40 -50 84 -75 120h84v53zM916 467v415c0 34 -6 51 -30 63c-23 11 -59 12 -113 12c-2 -19 -12 -44 -21 -63c38 2 72 2 81 1c11 0 14 -3 14 -14v-356h-416v432h-68v-490h553zM793 357v-94h-312v94h312
zM863 209v202h-449v-202h449zM349 88h586v65h-586v-65z" />
</svg>
