<?xml version="1.0" standalone="no"?>
<!DOCTYPE svg PUBLIC "-//W3C//DTD SVG 1.1//EN" "http://www.w3.org/Graphics/SVG/1.1/DTD/svg11.dtd" >
<svg xmlns="http://www.w3.org/2000/svg" xmlns:xlink="http://www.w3.org/1999/xlink" version="1.1" viewBox="-10 0 1010 1000">
   <path fill="currentColor"
d="M244 305v48c24 34 92 145 108 173l-43 53c-12 -31 -41 -87 -65 -135v512h-65v-475c-29 106 -69 208 -108 273c-8 -22 -25 -54 -38 -72c57 -83 114 -242 140 -377h-120v-67h126v-195h65v195h104v67h-104zM664 519h-180v85h180v-85zM484 750h180v-92h-180v92zM729 805h-245
v49h-65v-389h310v340zM907 345v34c-8 365 -17 483 -44 520c-17 23 -38 31 -67 33c-27 3 -73 2 -117 -1c-1 -17 -8 -41 -19 -57c48 4 92 4 110 4c15 0 24 -2 33 -14c20 -25 28 -141 36 -456h-386c-25 41 -54 79 -83 108c-9 -12 -32 -37 -46 -49c54 -50 100 -124 127 -200
l63 16c-8 21 -16 42 -26 62h419zM799 134h157v63h-157v73h-68v-73h-173v73h-68v-73h-146v-63h146v-89h68v89h173v-89h68v89z" />
</svg>
