<?xml version="1.0" standalone="no"?>
<!DOCTYPE svg PUBLIC "-//W3C//DTD SVG 1.1//EN" "http://www.w3.org/Graphics/SVG/1.1/DTD/svg11.dtd" >
<svg xmlns="http://www.w3.org/2000/svg" xmlns:xlink="http://www.w3.org/1999/xlink" version="1.1" viewBox="-10 0 1010 1000">
   <path fill="currentColor"
d="M834 287h-254c-114 0 -145 -17 -145 -87v-155h66v77c120 -13 257 -32 337 -56l35 50c-95 28 -246 47 -372 58v25c0 27 12 32 80 32h247c47 0 56 -9 60 -68c16 10 41 18 60 22c-9 82 -31 102 -114 102zM588 573v57h233v-57h-233zM588 474v55h233v-55h-233zM588 375v54h233
v-54h-233zM522 679v-353h367v353h-367zM951 726v60h-565v-432h67v372h498zM382 544l-41 54c-14 -32 -49 -90 -78 -139v496h-68v-462c-32 107 -74 210 -119 275c-7 -20 -25 -48 -37 -64c60 -84 120 -240 148 -375h-132v-70h140v-215h68v215h112v70h-112v43
c27 36 102 144 119 172zM545 792l63 41c-61 47 -157 96 -235 124c-10 -15 -31 -38 -44 -52c76 -26 170 -73 216 -113zM715 832l47 -39c65 32 153 83 198 116l-50 46c-42 -34 -129 -87 -195 -123z" />
</svg>
