<?xml version="1.0" standalone="no"?>
<!DOCTYPE svg PUBLIC "-//W3C//DTD SVG 1.1//EN" "http://www.w3.org/Graphics/SVG/1.1/DTD/svg11.dtd" >
<svg xmlns="http://www.w3.org/2000/svg" xmlns:xlink="http://www.w3.org/1999/xlink" version="1.1" viewBox="-10 0 1010 1000">
   <path fill="currentColor"
d="M827 223h-192v133h192v-133zM846 567h-211v162h211v-162zM568 791v-630h106c13 -37 26 -84 33 -118l78 16c-15 33 -31 71 -46 102h155v257h-259v87h278v286h-345zM505 232l-53 38c-21 -41 -67 -105 -107 -149l50 -34c43 46 89 105 110 145zM346 525l-44 51
c-12 -30 -40 -85 -64 -133v513h-67v-471c-28 102 -65 198 -103 259c-8 -21 -26 -51 -38 -70c56 -82 111 -242 136 -375h-113v-68h118v-188h67v188h107v68h-107v48c23 34 93 149 108 178zM475 380v409c18 10 36 26 64 44c49 31 108 41 189 41c65 0 169 -5 237 -13
c-7 19 -17 52 -18 72c-53 4 -159 7 -221 7c-85 0 -147 -14 -200 -48c-35 -24 -62 -50 -82 -50c-25 0 -63 54 -97 109l-47 -63c38 -46 77 -84 112 -99v-349h-83v-60h146z" />
</svg>
