<?xml version="1.0" standalone="no"?>
<!DOCTYPE svg PUBLIC "-//W3C//DTD SVG 1.1//EN" "http://www.w3.org/Graphics/SVG/1.1/DTD/svg11.dtd" >
<svg xmlns="http://www.w3.org/2000/svg" xmlns:xlink="http://www.w3.org/1999/xlink" version="1.1" viewBox="-10 0 1010 1000">
   <path fill="currentColor"
d="M961 252v64h-553v-64h228v-104h-196v-64h475v64h-206v104h252zM524 652v67h306v-67h-306zM524 539v65h306v-65h-306zM524 426v64h306v-64h-306zM903 770h-450v-395h450v395zM401 585l-42 57c-17 -35 -56 -100 -88 -152v465h-70v-465c-34 109 -79 214 -126 279
c-8 -20 -26 -49 -39 -66c63 -84 127 -240 158 -377h-139v-69h146v-214h70v214h121v69h-121v76c30 37 111 154 130 183zM561 776l65 41c-54 52 -144 108 -216 140c-12 -13 -34 -36 -50 -51c72 -31 159 -85 201 -130zM733 819l51 -39c61 40 142 97 183 135l-51 45
c-40 -38 -120 -99 -183 -141z" />
</svg>
