<?xml version="1.0" standalone="no"?>
<!DOCTYPE svg PUBLIC "-//W3C//DTD SVG 1.1//EN" "http://www.w3.org/Graphics/SVG/1.1/DTD/svg11.dtd" >
<svg xmlns="http://www.w3.org/2000/svg" xmlns:xlink="http://www.w3.org/1999/xlink" version="1.1" viewBox="-10 0 1010 1000">
   <path fill="currentColor"
d="M651 271v-61h-168v61h168zM651 382v-63h-168v63h168zM651 495v-65h-168v65h168zM365 517l-40 54c-15 -31 -49 -92 -79 -139v524h-66v-456c-28 99 -64 194 -101 254c-8 -22 -25 -54 -38 -72c55 -84 109 -243 133 -377h-121v-70h127v-192h66v192h90v52
c59 -62 106 -149 133 -244l65 16c-10 32 -22 65 -35 95h170c-15 -27 -38 -64 -56 -91l66 -25c24 33 54 78 68 106l-23 10h210v56h-216v61h184v48h-184v63h184v48h-184v65h221v56h-456v28h-64v-283c-19 26 -39 49 -60 69c-6 -12 -24 -44 -37 -60h-76v47
c27 32 102 137 119 165zM948 695l-3 29c-14 127 -27 182 -51 204c-17 17 -36 22 -64 24c-23 1 -71 1 -120 -2c-1 -19 -9 -45 -21 -63c50 4 98 5 116 5c17 0 26 -1 35 -8c15 -13 24 -49 34 -133h-188c10 -25 20 -53 30 -82h-141c-21 152 -93 237 -221 292
c-9 -15 -33 -43 -49 -55c117 -41 179 -114 197 -237h-139v-62h435c-8 30 -18 60 -28 88h178z" />
</svg>
