<?xml version="1.0" standalone="no"?>
<!DOCTYPE svg PUBLIC "-//W3C//DTD SVG 1.1//EN" "http://www.w3.org/Graphics/SVG/1.1/DTD/svg11.dtd" >
<svg xmlns="http://www.w3.org/2000/svg" xmlns:xlink="http://www.w3.org/1999/xlink" version="1.1" viewBox="-10 0 1010 1000">
   <path fill="currentColor"
d="M924 142v62h-498v-62h225c-10 -28 -23 -62 -36 -88l61 -17c17 32 35 74 45 105h203zM958 319v63h-566l-1 -63h145c-11 -30 -27 -66 -42 -94l60 -18c20 35 40 78 53 112h135c18 -35 36 -78 46 -110l73 20c-15 30 -32 63 -47 90h144zM270 329v73c29 35 110 147 129 173
l-42 56c-16 -33 -55 -97 -87 -146v474h-70v-470c-34 109 -80 214 -127 279c-8 -20 -27 -48 -39 -65c63 -83 128 -237 159 -374h-139v-70h146v-215h70v215h117v70h-117zM502 718h134v-83h-134v83zM636 502h-134v79h134v-79zM850 581v-79h-144v79h144zM706 718h144v-83h-144
v83zM747 886h123c27 0 32 -13 35 -82c16 12 43 22 63 27c-8 91 -28 118 -91 118h-139c-79 0 -102 -19 -102 -97v-75h-203v-334h482v334h-209v75c0 28 6 34 41 34z" />
</svg>
