<?xml version="1.0" standalone="no"?>
<!DOCTYPE svg PUBLIC "-//W3C//DTD SVG 1.1//EN" "http://www.w3.org/Graphics/SVG/1.1/DTD/svg11.dtd" >
<svg xmlns="http://www.w3.org/2000/svg" xmlns:xlink="http://www.w3.org/1999/xlink" version="1.1" viewBox="-10 0 1010 1000">
   <path fill="currentColor"
d="M882 458l-34 47c-47 -37 -137 -88 -216 -125c-39 60 -107 100 -225 125c-5 -15 -22 -39 -34 -51c116 -24 175 -58 207 -114h-149v-42h-58v-156h233c-12 -26 -27 -58 -44 -81l58 -21c24 30 44 72 56 102h250v156h-64v-99h-426v80h166c4 -18 7 -36 9 -57h67
c-2 21 -5 39 -9 57h191v61h-193c77 34 167 81 215 118zM238 305v48c26 31 90 125 106 149l-40 53c-12 -27 -40 -78 -66 -122v523h-62v-477c-29 107 -67 210 -106 275c-8 -22 -24 -54 -35 -72c54 -83 109 -242 134 -377h-116v-70h123v-192h62v192h100v70h-100zM642 685h-167
v102h167v-102zM702 841h-227v47h-60v-257h287v210zM951 510v64h-102v309c0 38 -8 55 -36 64c-28 10 -74 11 -146 11c-3 -18 -12 -42 -21 -59c57 2 106 2 121 1s19 -5 19 -17v-309h-431v-64h596z" />
</svg>
