<?xml version="1.0" standalone="no"?>
<!DOCTYPE svg PUBLIC "-//W3C//DTD SVG 1.1//EN" "http://www.w3.org/Graphics/SVG/1.1/DTD/svg11.dtd" >
<svg xmlns="http://www.w3.org/2000/svg" xmlns:xlink="http://www.w3.org/1999/xlink" version="1.1" viewBox="-10 0 1010 1000">
   <path fill="currentColor"
d="M312 493l-35 55c-10 -22 -30 -62 -50 -97v505h-61v-495c-27 110 -64 215 -102 281c-6 -22 -22 -54 -32 -73c50 -80 100 -233 123 -364h-103v-70h114v-192h61v192h78v70h-78v65c22 29 72 103 85 123zM657 664l1 59l-143 18v144c0 34 -6 49 -31 59c-23 9 -60 9 -117 9
c-3 -17 -12 -40 -20 -57c39 1 77 2 87 1c11 0 15 -3 15 -13v-134c-56 7 -108 14 -153 19l-13 -64c46 -5 102 -11 166 -18v-62c29 -17 60 -42 88 -66h-220v-59h279l15 -4l42 35c-38 40 -90 81 -138 112v36zM572 393v-91h-172v91h172zM639 248v200h-304v-200h304zM431 62
l56 -16c16 27 32 62 42 87h133v64h-355v-64h156c-9 -24 -21 -49 -32 -71zM907 86l44 26c-28 85 -63 185 -100 286c73 96 104 167 104 232c0 56 -14 107 -42 128c-13 10 -31 16 -50 19c-20 2 -44 2 -68 0c-1 -17 -8 -41 -19 -60c24 3 47 3 63 2c13 0 24 -3 32 -8
c17 -12 24 -48 24 -82c0 -61 -32 -126 -106 -222c32 -90 60 -179 82 -253h-120v799h-60v-864h206z" />
</svg>
