<?xml version="1.0" standalone="no"?>
<!DOCTYPE svg PUBLIC "-//W3C//DTD SVG 1.1//EN" "http://www.w3.org/Graphics/SVG/1.1/DTD/svg11.dtd" >
<svg xmlns="http://www.w3.org/2000/svg" xmlns:xlink="http://www.w3.org/1999/xlink" version="1.1" viewBox="-10 0 1010 1000">
   <path fill="currentColor"
d="M542 280l62 18c-18 34 -40 68 -65 99c24 18 45 36 61 52c50 -48 94 -130 120 -214h-101v-64h118v-126h66v126h135v64h-135v25c36 40 125 148 148 176l-44 50c-19 -33 -66 -100 -104 -152v225h-66v-221c-28 69 -65 132 -105 171c-8 -13 -23 -31 -36 -42l-34 34
c-15 -18 -38 -37 -62 -58c-35 37 -74 70 -112 96c-10 -12 -36 -33 -51 -43c41 -24 80 -55 114 -90c-27 -20 -57 -39 -84 -55l43 -39c26 14 53 31 80 50c21 -26 38 -54 52 -82zM614 218l-46 45c-15 -16 -38 -36 -63 -57c-32 33 -67 62 -101 85c-10 -12 -33 -34 -48 -43
c35 -22 69 -47 100 -77c-26 -18 -55 -35 -80 -50l43 -40c25 14 53 30 79 47c20 -22 36 -44 50 -68l60 18c-17 28 -39 57 -61 84c26 20 51 40 67 56zM194 559v-234c-35 71 -78 139 -124 180c-7 -19 -22 -44 -33 -60c52 -47 108 -130 142 -210h-115v-64h130v-126h65v126h108
v64h-108v25c31 30 95 96 113 115l-41 49c-14 -21 -45 -61 -72 -95v230h-65zM930 692h-364c69 117 201 178 394 198c-17 17 -34 46 -43 67c-209 -30 -344 -105 -419 -250c-51 127 -161 208 -417 250c-6 -19 -23 -49 -36 -65c232 -33 331 -98 378 -200h-352v-67h375
c7 -30 13 -64 17 -100h75c-4 35 -9 69 -16 100h408v67z" />
</svg>
