<?xml version="1.0" standalone="no"?>
<!DOCTYPE svg PUBLIC "-//W3C//DTD SVG 1.1//EN" "http://www.w3.org/Graphics/SVG/1.1/DTD/svg11.dtd" >
<svg xmlns="http://www.w3.org/2000/svg" xmlns:xlink="http://www.w3.org/1999/xlink" version="1.1" viewBox="-10 0 1010 1000">
   <path fill="currentColor"
d="M425 251v85h-61v-138h252v-58h-229v-58h533v58h-235v58h259v138h-63v-85h-196v219h-69v-219h-191zM412 439v-45h165v45h-165zM578 303v44h-137v-44h137zM401 548v-51h498v51h-498zM725 439v-45h168v45h-168zM725 303h140v44h-140v-44zM365 522l-46 51
c-13 -32 -45 -89 -72 -138v521h-68v-496c-30 113 -71 223 -112 293c-8 -22 -25 -53 -37 -71c56 -84 112 -247 138 -379h-116v-68h127v-192h68v192h99v68h-99v45c29 40 100 146 118 174zM947 657h-384c-10 26 -22 53 -33 77h354s-1 20 -3 29c-11 101 -24 146 -47 166
c-21 18 -43 22 -81 24c-33 1 -104 0 -178 -4c-1 -19 -11 -43 -23 -61c75 7 155 8 182 8c23 0 37 -1 47 -7c13 -11 21 -40 30 -101h-379c19 -36 40 -86 58 -131h-142v-53h599v53z" />
</svg>
