<?xml version="1.0" standalone="no"?>
<!DOCTYPE svg PUBLIC "-//W3C//DTD SVG 1.1//EN" "http://www.w3.org/Graphics/SVG/1.1/DTD/svg11.dtd" >
<svg xmlns="http://www.w3.org/2000/svg" xmlns:xlink="http://www.w3.org/1999/xlink" version="1.1" viewBox="-10 0 1010 1000">
   <path fill="currentColor"
d="M227 301v71c26 41 85 146 99 172l-37 56c-12 -30 -39 -88 -62 -137v493h-62v-491c-27 107 -64 212 -101 277c-6 -22 -22 -54 -32 -73c51 -81 100 -236 124 -368h-104v-66h113v-192h62v192h83v66h-83zM449 43l59 14c-20 75 -48 150 -80 218v679h-61v-566
c-16 26 -32 49 -49 71c-8 -13 -27 -42 -40 -55c72 -89 134 -225 171 -361zM834 211h-166c18 42 45 85 82 125c34 -37 63 -79 84 -125zM539 297v471h-57v-547h57v68c60 -60 108 -152 133 -249l59 13c-10 33 -22 67 -35 98h168l13 -2l40 18c-26 82 -69 153 -122 211
c46 37 102 67 168 87c-12 12 -31 38 -39 54c-68 -23 -124 -58 -172 -98c-51 46 -106 82 -164 107c-9 -14 -26 -37 -39 -49c56 -22 111 -56 160 -101c-32 -36 -57 -73 -76 -109c-17 26 -35 50 -55 70c-8 -9 -26 -29 -39 -42zM613 686l53 15c-24 63 -60 136 -92 183
c-10 -8 -34 -22 -47 -29c34 -46 65 -110 86 -169zM811 702l48 -19c35 55 74 128 92 172l-50 22c-18 -45 -56 -119 -90 -175zM779 482v111h173v60h-173v223c0 33 -5 49 -26 60c-20 11 -53 12 -98 12c-2 -18 -11 -43 -19 -60c34 1 60 1 70 0s12 -3 12 -12v-223h-156v-60h156
v-111h61z" />
</svg>
