<?xml version="1.0" standalone="no"?>
<!DOCTYPE svg PUBLIC "-//W3C//DTD SVG 1.1//EN" "http://www.w3.org/Graphics/SVG/1.1/DTD/svg11.dtd" >
<svg xmlns="http://www.w3.org/2000/svg" xmlns:xlink="http://www.w3.org/1999/xlink" version="1.1" viewBox="-10 0 1010 1000">
   <path fill="currentColor"
d="M366 549l-40 53c-13 -30 -45 -86 -71 -132v487h-69v-463c-29 107 -68 210 -107 274c-9 -20 -26 -52 -38 -70c55 -83 109 -242 135 -375h-121v-70h131v-209h69v209h94v1c46 -57 78 -141 93 -208l67 14c-8 26 -17 54 -27 82h164v59h-90c17 30 32 63 38 86l-56 21
c-8 -28 -26 -71 -46 -107h-36c-19 38 -41 75 -67 103c-9 -9 -26 -20 -40 -29v48h-94v61c26 35 96 138 111 165zM694 695v173h257v66h-601v-66h270v-173h-204v-64h204v-147h-228v-66h239c-15 -30 -40 -70 -64 -99l62 -29c29 34 61 80 75 112l-32 16h254v66h-232v147h199v64
h-199zM759 143h197v59h-110c20 33 40 69 50 93l-56 25c-12 -31 -36 -79 -61 -118h-46c-17 37 -39 73 -63 100c-13 -11 -36 -26 -51 -34c50 -57 84 -148 99 -220l66 14c-7 26 -16 54 -25 81z" />
</svg>
