<?xml version="1.0" standalone="no"?>
<!DOCTYPE svg PUBLIC "-//W3C//DTD SVG 1.1//EN" "http://www.w3.org/Graphics/SVG/1.1/DTD/svg11.dtd" >
<svg xmlns="http://www.w3.org/2000/svg" xmlns:xlink="http://www.w3.org/1999/xlink" version="1.1" viewBox="-10 0 1010 1000">
   <path fill="currentColor"
d="M383 520l-44 49c-13 -30 -48 -85 -78 -131v517h-69v-464c-32 106 -74 209 -119 273c-8 -19 -25 -48 -38 -63c61 -83 120 -238 149 -372h-131v-70h139v-216h69v216h102c48 -57 88 -138 111 -218l69 16c-9 29 -20 58 -33 86h435v65h-466c-21 38 -43 73 -66 100
c-10 -8 -30 -20 -46 -29v50h-106v28c28 35 104 137 122 163zM534 782v81h163v-81h-163zM713 378h-108c-16 32 -33 64 -51 93h135c-12 -23 -24 -48 -37 -69zM697 601v-74h-163v74h163zM697 730v-76h-163v76h163zM956 863v58h-422v34h-70v-358c-26 31 -52 58 -80 82
c-11 -13 -36 -42 -52 -54c76 -62 143 -148 196 -247h-131v-65h161c14 -31 26 -63 37 -95l68 19c-9 25 -19 51 -29 76h311v65h-229c17 28 38 65 51 93h173v56h-176v74h159v53h-159v76h160v52h-160v81h192z" />
</svg>
