<?xml version="1.0" standalone="no"?>
<!DOCTYPE svg PUBLIC "-//W3C//DTD SVG 1.1//EN" "http://www.w3.org/Graphics/SVG/1.1/DTD/svg11.dtd" >
<svg xmlns="http://www.w3.org/2000/svg" xmlns:xlink="http://www.w3.org/1999/xlink" version="1.1" viewBox="-10 0 1010 1000">
   <path fill="currentColor"
d="M580 199v98h158v-98h-158zM823 483h-138v85h138v-85zM823 704v-86h-138v86h138zM474 618v86h143v-86h-143zM474 483v85h143v-85h-143zM617 427v-67h-260v-63h153v-98h-122v-61h122v-94h70v94h158v-94h70v94h104v61h-104v98h132v63h-255v67h210v333h-490v-333h212z
M372 533l-44 55c-14 -33 -52 -101 -83 -153v521h-70v-488c-30 106 -70 206 -111 270c-8 -20 -25 -51 -37 -68c56 -81 113 -234 139 -365h-115v-70h124v-192h70v192h95v70h-95v44c28 37 109 156 127 184zM534 775l62 39c-57 54 -148 109 -224 144c-10 -15 -30 -38 -43 -51
c74 -32 162 -87 205 -132zM711 817l45 -42c71 44 148 98 195 139l-55 44c-43 -41 -119 -98 -185 -141z" />
</svg>
