<?xml version="1.0" standalone="no"?>
<!DOCTYPE svg PUBLIC "-//W3C//DTD SVG 1.1//EN" "http://www.w3.org/Graphics/SVG/1.1/DTD/svg11.dtd" >
<svg xmlns="http://www.w3.org/2000/svg" xmlns:xlink="http://www.w3.org/1999/xlink" version="1.1" viewBox="-10 0 1010 1000">
   <path fill="currentColor"
d="M940 539l-43 33c-25 -31 -76 -81 -118 -116l40 -29c42 34 94 81 121 112zM765 167h52c-3 239 -22 340 -166 401c-5 -13 -21 -32 -33 -42c132 -53 146 -137 147 -359zM705 131v282h-51v-338h263v338h-52v-282h-160zM480 449l35 -31c36 23 84 58 109 81l-36 36
c-24 -24 -71 -61 -108 -86zM406 130v283h-52v-338h261v338h-52v-283h-157zM327 533l-11 14c-14 -31 -43 -87 -70 -134v542h-67v-473c-30 106 -71 208 -112 272c-8 -22 -26 -54 -38 -72c58 -84 116 -242 144 -377h-128v-70h134v-191h67v191h86v70h-86v18
c27 37 97 143 114 171l-23 26c110 -55 123 -146 126 -352h51c-3 235 -23 340 -158 404c-6 -12 -19 -27 -29 -39zM755 681h-192c-16 27 -32 53 -47 75c48 13 99 28 149 44c45 -32 72 -71 90 -119zM959 681h-126c-20 58 -48 105 -94 144c75 26 145 54 195 79l-56 48
c-49 -25 -121 -55 -200 -84c-76 41 -182 70 -333 87c-4 -16 -18 -43 -29 -57c122 -13 212 -33 276 -59c-59 -20 -121 -37 -177 -51c23 -30 48 -68 73 -107h-159v-60h192c16 -28 29 -57 40 -83l69 14c-10 22 -21 46 -34 69h363v60z" />
</svg>
