<?xml version="1.0" standalone="no"?>
<!DOCTYPE svg PUBLIC "-//W3C//DTD SVG 1.1//EN" "http://www.w3.org/Graphics/SVG/1.1/DTD/svg11.dtd" >
<svg xmlns="http://www.w3.org/2000/svg" xmlns:xlink="http://www.w3.org/1999/xlink" version="1.1" viewBox="-10 0 1010 1000">
   <path fill="currentColor"
d="M879 83v267h-490v-50h424v-59h-391v-49h391v-59h-420v-50h486zM711 429v99h124v-99h-124zM658 573v-189h232v189h-232zM369 615l-13 -55c31 -4 68 -9 107 -16v-100h-106v-54h266v54h-102v90c35 -6 73 -13 110 -20l3 51c-95 18 -190 36 -265 50zM346 517l-45 53
c-12 -29 -42 -85 -68 -132v518h-68v-453c-25 96 -57 186 -91 245c-8 -20 -26 -53 -37 -71c51 -83 99 -241 122 -372h-106v-70h112v-192h68v192h113v70h-113v42c25 34 96 143 113 170zM442 756l51 -29c40 34 81 83 99 117l-52 32c-18 -34 -59 -84 -98 -120zM949 658v61h-155
v154c0 37 -7 55 -32 66c-27 11 -69 12 -132 12c-3 -19 -11 -46 -20 -65c49 2 90 2 103 1c12 -1 16 -4 16 -15v-153h-395v-61h395v-71h65v71h155z" />
</svg>
