<?xml version="1.0" standalone="no"?>
<!DOCTYPE svg PUBLIC "-//W3C//DTD SVG 1.1//EN" "http://www.w3.org/Graphics/SVG/1.1/DTD/svg11.dtd" >
<svg xmlns="http://www.w3.org/2000/svg" xmlns:xlink="http://www.w3.org/1999/xlink" version="1.1" viewBox="-10 0 1010 1000">
   <path fill="currentColor"
d="M353 518l-44 52c-13 -32 -42 -89 -68 -137v523h-66v-497c-29 102 -68 199 -107 260c-8 -20 -25 -50 -37 -68c55 -76 108 -220 134 -346h-110v-70h120v-192h66v192h100v70h-100v34c25 39 95 150 112 179zM386 963l-62 -35c40 -47 74 -124 92 -184l62 24
c-21 63 -52 144 -92 195zM666 353v-82h-179v82h179zM666 495v-83h-179v83h179zM666 640v-87h-179v87h179zM953 703h-466v29h-65v-391c-20 32 -40 60 -62 85c-9 -14 -32 -44 -47 -57c74 -80 135 -202 171 -326l66 17c-16 51 -34 101 -56 149h195c-13 -38 -39 -96 -61 -139
l62 -24c25 43 53 101 66 138l-59 25h245v62h-206v82h176v59h-176v83h179v58h-179v87h217v63zM532 767l61 -9c15 57 26 131 27 180l-65 10c0 -49 -10 -123 -23 -181zM667 765l60 -15c26 56 50 128 59 177l-62 18c-9 -49 -32 -123 -57 -180zM809 755l61 -22
c38 62 80 142 99 193l-64 27c-19 -53 -61 -136 -96 -198z" />
</svg>
