<?xml version="1.0" standalone="no"?>
<!DOCTYPE svg PUBLIC "-//W3C//DTD SVG 1.1//EN" "http://www.w3.org/Graphics/SVG/1.1/DTD/svg11.dtd" >
<svg xmlns="http://www.w3.org/2000/svg" xmlns:xlink="http://www.w3.org/1999/xlink" version="1.1" viewBox="-10 0 1010 1000">
   <path fill="currentColor"
d="M808 191v-67h-331v67h331zM808 310v-69h-331v69h331zM880 72v291h-472v-291h472zM338 545l-36 56c-12 -32 -41 -92 -65 -142v496h-60v-494c-27 109 -64 215 -101 281c-7 -22 -22 -54 -33 -73c49 -80 99 -232 124 -364h-115v-70h125v-192h60v192h100v70h-100v64
c24 37 87 148 101 176zM860 598h-126c17 53 39 102 66 147c26 -43 46 -92 60 -147zM445 797l120 -21v-50h-120v71zM565 479h-120v69h120v-69zM445 601v71h120v-71h-120zM895 537l39 10c-18 104 -50 187 -93 254c36 44 80 79 130 103c-16 12 -34 35 -44 52
c-47 -25 -89 -61 -126 -104c-39 45 -85 79 -136 105c-8 -16 -22 -39 -36 -51v51h-64v-122c-90 19 -179 36 -250 49l-11 -63c23 -4 50 -8 78 -13v-329h-59v-60h634v60h-328v286l35 -6l5 56l-40 8v82c50 -24 96 -59 134 -106c-38 -59 -66 -126 -88 -201h-25v-59h232z" />
</svg>
