<?xml version="1.0" standalone="no"?>
<!DOCTYPE svg PUBLIC "-//W3C//DTD SVG 1.1//EN" "http://www.w3.org/Graphics/SVG/1.1/DTD/svg11.dtd" >
<svg xmlns="http://www.w3.org/2000/svg" xmlns:xlink="http://www.w3.org/1999/xlink" version="1.1" viewBox="-10 0 1010 1000">
   <path fill="currentColor"
d="M870 67l63 26c-27 46 -59 97 -83 130l-51 -22c24 -37 56 -94 71 -134zM515 201l-57 26c-11 -36 -40 -93 -67 -136l54 -23c28 43 57 97 70 133zM372 577l-40 55c-14 -32 -48 -94 -76 -143v466h-68v-457c-32 105 -73 207 -115 270c-9 -19 -27 -48 -39 -65
c60 -83 119 -239 147 -375h-126v-69h133v-216h68v216h110v69h-110v75c27 37 99 148 116 174zM960 745h-227c48 75 130 130 235 153c-14 15 -34 42 -44 61c-118 -34 -206 -105 -257 -205c-34 77 -110 151 -277 205c-8 -15 -28 -40 -43 -54c147 -42 216 -100 248 -160h-233
v-61h255c4 -22 5 -44 5 -64v-11h-196v-57h196v-69h-221v-59h122c-8 -29 -24 -73 -41 -106l58 -15c19 33 38 77 45 105l-46 16h219l-33 -11c17 -30 38 -77 49 -112h-395v-63h171v-195h64v195h86v-195h65v195h184v63h-148l46 13c-21 39 -43 81 -63 110h151v59h-243v69h224v57
h-224v11c0 21 -1 42 -5 64h273v61z" />
</svg>
