<?xml version="1.0" standalone="no"?>
<!DOCTYPE svg PUBLIC "-//W3C//DTD SVG 1.1//EN" "http://www.w3.org/Graphics/SVG/1.1/DTD/svg11.dtd" >
<svg xmlns="http://www.w3.org/2000/svg" xmlns:xlink="http://www.w3.org/1999/xlink" version="1.1" viewBox="-10 0 1010 1000">
   <path fill="currentColor"
d="M342 519l-47 55c-10 -29 -35 -83 -57 -129v511h-67v-456c-28 100 -65 193 -102 254c-9 -22 -26 -54 -40 -72c57 -84 113 -242 139 -377h-121v-70h124v-192h67v192h93v70h-93v39c21 31 88 148 104 175zM436 535v57h396v-57h-396zM548 338h-112v149h396v-36h-31h-55
c-18 0 -40 -3 -50 -12c-13 -10 -17 -23 -17 -60v-41h-80v11c0 46 -24 97 -112 131c-8 -11 -27 -29 -39 -36c80 -27 100 -63 100 -96v-10zM599 227v63h80v-63h-80zM832 408v-70h-101v49c0 10 1 17 5 19c3 2 11 2 19 2h40h25h12zM956 696v57h-164v126c0 36 -7 53 -35 63
s-72 10 -142 10c-3 -18 -13 -42 -21 -59c53 1 97 1 110 0c14 0 18 -4 18 -15v-125h-253c42 35 91 82 116 115l-55 40c-25 -36 -77 -88 -122 -126l44 -29h-122v-57h392v-56h-351v-350h170v-63h-193v-56h180c-14 -30 -42 -74 -67 -105l57 -23c29 32 59 76 73 105l-47 23h153
c29 -37 61 -90 80 -127l69 22c-24 36 -50 74 -76 105h177v56h-211v63h164v350h-108v56h164z" />
</svg>
