<?xml version="1.0" standalone="no"?>
<!DOCTYPE svg PUBLIC "-//W3C//DTD SVG 1.1//EN" "http://www.w3.org/Graphics/SVG/1.1/DTD/svg11.dtd" >
<svg xmlns="http://www.w3.org/2000/svg" xmlns:xlink="http://www.w3.org/1999/xlink" version="1.1" viewBox="-10 0 1010 1000">
   <path fill="currentColor"
d="M958 171l-46 28c-16 -31 -51 -85 -79 -122l44 -23c28 36 65 86 81 117zM691 610l74 -37c3 16 9 40 15 52c-124 68 -145 82 -158 95c-5 -15 -18 -44 -29 -57c15 -9 38 -29 38 -69v-379h133c-2 -53 -4 -109 -5 -169h59c0 60 1 117 3 169h124v65h-123c5 104 11 191 19 260
c28 -62 49 -130 61 -205l52 12c-20 108 -54 204 -101 286c15 85 31 125 45 125c12 0 20 -37 23 -128c13 13 30 27 44 32c-9 134 -27 157 -74 158c-33 0 -59 -42 -79 -124c-39 54 -86 100 -142 138c-9 -11 -28 -31 -42 -40c69 -46 125 -105 169 -174
c-13 -87 -24 -200 -31 -340h-75v330zM327 513l-39 55c-9 -28 -33 -77 -55 -120v508h-67v-428c-25 95 -58 184 -93 241c-8 -19 -27 -47 -38 -62c54 -87 103 -248 125 -384h-104v-68h110v-212h67v212h85v68h-85v29c26 40 82 135 94 161zM509 605v224c50 30 113 38 192 38
c31 0 224 0 265 -1c-11 16 -22 48 -24 67h-241c-165 0 -268 -33 -330 -189c-13 75 -35 141 -68 194c-10 -10 -35 -28 -50 -37c61 -92 76 -230 82 -390l60 5c-2 40 -4 78 -8 115c16 63 36 109 62 144v-364h-133v-66h124v-112h-104v-65h104v-122h61v122h99v65h-99v112h110v66
h-102v129h90v65h-90z" />
</svg>
