<?xml version="1.0" standalone="no"?>
<!DOCTYPE svg PUBLIC "-//W3C//DTD SVG 1.1//EN" "http://www.w3.org/Graphics/SVG/1.1/DTD/svg11.dtd" >
<svg xmlns="http://www.w3.org/2000/svg" xmlns:xlink="http://www.w3.org/1999/xlink" version="1.1" viewBox="-10 0 1010 1000">
   <path fill="currentColor"
d="M332 515l-42 49c-13 -31 -48 -94 -75 -143v535h-64v-466c-24 95 -52 189 -81 253c-8 -23 -26 -56 -38 -74c45 -84 92 -243 113 -363h-103v-70h109v-193h64v193h83v70h-83v34c21 26 99 147 117 175zM422 646v119c42 -7 87 -14 133 -21v-98h-133zM555 327h-133v100h133
v-100zM422 484v106h133v-106h-133zM673 785l-56 10v163h-62v-152c-92 16 -180 31 -253 43l-13 -66c22 -3 47 -6 72 -10v-446h-50v-64h187c17 -32 35 -69 49 -101h-205v-62h239l10 -4l45 15c-20 48 -44 103 -67 152h92v64h-44v407l52 -9zM862 306h-106c-3 12 -6 24 -9 35
c10 96 26 203 59 301c29 -97 46 -210 56 -336zM959 306h-34c-15 168 -39 308 -86 423c32 70 74 132 130 177c-13 11 -34 35 -43 51c-48 -44 -87 -99 -117 -161c-33 62 -73 115 -123 161c-9 -12 -34 -35 -48 -45c61 -50 105 -115 138 -190c-31 -87 -51 -180 -65 -266
c-10 31 -23 62 -37 88c-11 -13 -32 -34 -47 -44c62 -123 91 -316 105 -455l68 11c-8 56 -18 119 -31 183h190v67z" />
</svg>
