<?xml version="1.0" standalone="no"?>
<!DOCTYPE svg PUBLIC "-//W3C//DTD SVG 1.1//EN" "http://www.w3.org/Graphics/SVG/1.1/DTD/svg11.dtd" >
<svg xmlns="http://www.w3.org/2000/svg" xmlns:xlink="http://www.w3.org/1999/xlink" version="1.1" viewBox="-10 0 1010 1000">
   <path fill="currentColor"
d="M817 406v-173h-79v173h79zM817 647v-175h-79v175h79zM469 472v175h75v-175h-75zM680 472h-78v175h78v-175zM602 406h78v-173h-78v173zM469 233v173h75v-173h-75zM406 406v-107c-12 16 -24 31 -37 44c-12 -11 -40 -32 -56 -42c65 -62 117 -158 146 -258l67 14
c-11 38 -26 77 -42 112h466v64h-70v173h85v66h-85v175h76v64h-628v-64h78v-175h-85v-66h85zM329 545l-36 56c-12 -32 -40 -91 -64 -140v495h-61v-495c-27 110 -64 215 -101 281c-7 -21 -22 -54 -33 -72c50 -81 100 -234 124 -365h-103v-70h113v-192h61v192h83v70h-83v65
c24 39 86 148 100 175zM323 957l-56 -41c56 -42 97 -111 118 -175l60 25c-24 69 -62 145 -122 191zM503 761l61 -10c16 58 31 133 34 183l-66 11c-2 -50 -15 -126 -29 -184zM641 765l57 -20c32 57 65 130 77 179l-60 23c-12 -50 -43 -126 -74 -182zM783 761l60 -27
c50 60 103 139 127 192l-63 32c-23 -54 -76 -137 -124 -197z" />
</svg>
