<?xml version="1.0" standalone="no"?>
<!DOCTYPE svg PUBLIC "-//W3C//DTD SVG 1.1//EN" "http://www.w3.org/Graphics/SVG/1.1/DTD/svg11.dtd" >
<svg xmlns="http://www.w3.org/2000/svg" xmlns:xlink="http://www.w3.org/1999/xlink" version="1.1" viewBox="-10 0 1010 1000">
   <path fill="currentColor"
d="M271 360v104h106v-104h-106zM271 198v102h106v-102h-106zM725 300v-102h-109v102h109zM441 300h110v-102h-110v102zM551 360h-110v104h110v-104zM725 464v-104h-109v104h109zM936 464v59h-873v-59h140v-104h-113v-60h113v-92c-27 25 -57 50 -91 72
c-11 -15 -32 -39 -47 -49c88 -55 151 -127 186 -188l72 14c-16 26 -34 54 -56 80h638v61h-111v102h106v60h-106v104h142zM304 675v22c33 21 130 89 152 106l-41 61c-21 -23 -71 -68 -111 -103v196h-68v-209c-45 70 -106 139 -162 183c-10 -19 -29 -44 -44 -58
c64 -41 133 -120 178 -198h-152v-63h180v-80h68v80h158v63h-158zM941 675h-165c47 78 119 156 185 196c-16 14 -40 39 -51 57c-60 -45 -125 -122 -173 -202v231h-70v-224c-48 75 -115 151 -178 196c-11 -18 -28 -42 -44 -56c67 -40 140 -120 186 -198h-139v-63h175v-80h70
v80h204v63z" />
</svg>
