<?xml version="1.0" standalone="no"?>
<!DOCTYPE svg PUBLIC "-//W3C//DTD SVG 1.1//EN" "http://www.w3.org/Graphics/SVG/1.1/DTD/svg11.dtd" >
<svg xmlns="http://www.w3.org/2000/svg" xmlns:xlink="http://www.w3.org/1999/xlink" version="1.1" viewBox="-10 0 1010 1000">
   <path fill="currentColor"
d="M248 328v75c26 38 97 148 113 176l-38 54c-14 -33 -48 -96 -75 -146v469h-67v-463c-30 106 -70 209 -111 273c-8 -19 -24 -46 -36 -62c57 -83 112 -241 139 -376h-118v-69h126v-216h67v216h108v69h-108zM565 145h-108v79h108v-79zM457 358h108v-80h-108v80zM624 415h-167
v542h-66v-870h233v328zM599 707h111v-65h-110v15c0 16 0 32 -1 50zM710 530h-110v62h110v-62zM765 477v356c0 28 -5 44 -24 54c-17 10 -46 11 -87 11c-1 -16 -9 -39 -17 -55c30 1 54 1 62 1c9 -1 11 -4 11 -11v-76h-116c-7 54 -21 109 -51 150c-10 -10 -33 -28 -45 -34
c43 -63 48 -148 48 -216v-180h219zM742 358h114v-80h-114v80zM856 145h-114v79h114v-79zM923 87v783c0 37 -7 59 -32 71c-22 12 -60 14 -114 14c-3 -19 -13 -50 -23 -69c39 1 75 1 87 1c11 -1 15 -4 15 -18v-454h-174v-328h241z" />
</svg>
