<?xml version="1.0" standalone="no"?>
<!DOCTYPE svg PUBLIC "-//W3C//DTD SVG 1.1//EN" "http://www.w3.org/Graphics/SVG/1.1/DTD/svg11.dtd" >
<svg xmlns="http://www.w3.org/2000/svg" xmlns:xlink="http://www.w3.org/1999/xlink" version="1.1" viewBox="-10 0 1010 1000">
   <path fill="currentColor"
d="M261 324v33c26 35 97 137 114 161l-44 67c-14 -31 -44 -84 -70 -129v500h-70v-456c-32 106 -74 209 -118 274c-8 -21 -27 -48 -39 -65c60 -87 121 -248 150 -385h-128v-69h135v-212h70v212h96v69h-96zM435 269v88h-60v-144h247v-66h-217v-60h519v60h-236v66h254v144h-62
v-88h-192v220h-66v-220h-187zM432 462v-43h149v43h-149zM581 323v43h-129v-43h129zM891 526v60h-456v-60h456zM730 462v-43h156v43h-156zM730 323h135v43h-135v-43zM947 721h-331c-30 50 -66 99 -103 139l282 -15c-24 -29 -48 -58 -73 -84l57 -27c56 57 119 136 148 189
l-61 31c-7 -14 -18 -31 -29 -49c-342 20 -382 23 -410 32c-4 -14 -15 -45 -22 -62c14 -3 29 -16 46 -34c13 -16 53 -65 84 -120h-156v-60h568v60z" />
</svg>
