<?xml version="1.0" standalone="no"?>
<!DOCTYPE svg PUBLIC "-//W3C//DTD SVG 1.1//EN" "http://www.w3.org/Graphics/SVG/1.1/DTD/svg11.dtd" >
<svg xmlns="http://www.w3.org/2000/svg" xmlns:xlink="http://www.w3.org/1999/xlink" version="1.1" viewBox="-10 0 1010 1000">
   <path fill="currentColor"
d="M355 233l39 -46c29 20 64 46 91 68c20 -33 37 -70 50 -108h-153v-65h180l12 -3l42 16c-20 86 -53 162 -94 226h246v63h-260v-43c-42 59 -91 105 -145 138c-8 -16 -27 -41 -42 -53c46 -25 90 -67 129 -118c-28 -24 -64 -54 -95 -75zM496 511v108h293v-108h-293zM428 679
v-228h432v228h-432zM365 543l-44 56c-12 -33 -43 -92 -70 -142v498h-67v-483c-32 108 -74 213 -117 276c-7 -19 -24 -49 -37 -66c60 -83 119 -241 149 -377h-120v-70h125v-192h67v192h97v70h-97v58c27 39 99 152 114 180zM464 713l64 -18c26 43 47 103 54 143l-66 22
c-6 -40 -28 -102 -52 -147zM749 688l77 23c-25 50 -54 105 -80 149h204v65h-619v-65h338c29 -48 63 -120 80 -172zM904 191l49 48c-35 27 -73 53 -108 74c38 46 80 80 126 111c-18 13 -38 36 -48 56c-114 -81 -199 -186 -265 -418l60 -14c11 38 24 73 37 105
c28 -25 59 -54 78 -76l48 47c-33 30 -70 59 -103 82c11 23 23 44 36 64c32 -25 69 -57 90 -79z" />
</svg>
