<?xml version="1.0" standalone="no"?>
<!DOCTYPE svg PUBLIC "-//W3C//DTD SVG 1.1//EN" "http://www.w3.org/Graphics/SVG/1.1/DTD/svg11.dtd" >
<svg xmlns="http://www.w3.org/2000/svg" xmlns:xlink="http://www.w3.org/1999/xlink" version="1.1" viewBox="-10 0 1010 1000">
   <path fill="currentColor"
d="M480 301v106h122c23 -39 30 -77 32 -106h-154zM711 163h-172c-18 27 -38 55 -61 81h185c16 -24 34 -54 48 -81zM833 407v-106h-141c-1 30 -6 67 -23 106h164zM866 490l38 46c-30 25 -65 49 -100 72c35 93 99 189 161 238c-16 12 -38 35 -49 52
c-61 -56 -121 -161 -157 -262c-15 9 -30 18 -44 26c29 110 12 219 -31 257c-25 24 -47 31 -85 32c-17 0 -42 -1 -66 -2c-1 -18 -7 -44 -19 -62c30 3 56 4 73 4c19 0 35 -2 49 -18c22 -19 35 -78 27 -148c-79 71 -196 141 -294 178c-8 -15 -24 -36 -36 -49
c111 -34 245 -113 318 -187c-4 -16 -10 -32 -16 -47c-74 55 -182 111 -266 145c-8 -15 -24 -38 -36 -49c92 -28 212 -86 279 -140c-10 -18 -22 -34 -36 -49c-43 34 -102 67 -182 95c-7 -13 -25 -32 -39 -42c97 -34 162 -75 203 -116h-142v-156c-15 13 -30 25 -46 38
c-7 -12 -21 -29 -34 -41h-86v43c26 33 98 136 115 162l-43 53c-14 -28 -44 -84 -72 -129v522h-68v-471c-30 105 -69 205 -110 269c-8 -22 -26 -54 -39 -72c59 -83 116 -242 143 -377h-122v-70h128v-192h68v192h89v51c95 -72 161 -169 193 -247l70 12c-9 18 -18 35 -27 54
h171l11 -3l46 30c-17 37 -40 78 -65 112h162v220h-263c-7 9 -14 17 -22 25c37 35 62 76 81 119c57 -33 125 -80 170 -118z" />
</svg>
