<?xml version="1.0" standalone="no"?>
<!DOCTYPE svg PUBLIC "-//W3C//DTD SVG 1.1//EN" "http://www.w3.org/Graphics/SVG/1.1/DTD/svg11.dtd" >
<svg xmlns="http://www.w3.org/2000/svg" xmlns:xlink="http://www.w3.org/1999/xlink" version="1.1" viewBox="-10 0 1010 1000">
   <path fill="currentColor"
d="M248 328v41c27 38 95 146 111 173l-38 54c-13 -32 -46 -94 -73 -143v503h-67v-464c-30 107 -70 210 -111 274c-8 -19 -24 -46 -36 -62c57 -83 112 -241 139 -376h-118v-69h126v-216h67v216h101v69h-101zM694 748h159v-73h-159v73zM479 748h149v-73h-149v73zM628 546h-149
v72h149v-72zM853 618v-72h-159v72h159zM921 486v400c0 34 -7 50 -32 60c-23 11 -61 11 -120 11c-4 -17 -13 -41 -22 -58c42 2 80 1 90 1c12 0 16 -3 16 -14v-79h-159v135h-66v-135h-149v149h-68v-470h510zM454 266l53 22c-19 50 -50 111 -90 148l-51 -35
c38 -32 71 -89 88 -135zM520 251h62v119c0 21 5 23 37 23h112c24 0 29 -7 32 -67c13 10 37 18 54 22c-6 78 -25 99 -79 99h-125c-74 0 -93 -16 -93 -76v-120zM788 284l50 -27c43 42 94 102 116 142l-53 30c-21 -40 -70 -102 -113 -145zM707 140h249v161h-66v-99h-257
c42 27 92 65 116 91l-47 38c-26 -31 -79 -74 -122 -101l38 -28h-184v99h-64v-161h258c-14 -25 -33 -54 -51 -77l66 -22c28 30 54 71 67 98z" />
</svg>
