<?xml version="1.0" standalone="no"?>
<!DOCTYPE svg PUBLIC "-//W3C//DTD SVG 1.1//EN" "http://www.w3.org/Graphics/SVG/1.1/DTD/svg11.dtd" >
<svg xmlns="http://www.w3.org/2000/svg" xmlns:xlink="http://www.w3.org/1999/xlink" version="1.1" viewBox="-10 0 1010 1000">
   <path fill="currentColor"
d="M900 595h-56c-50 0 -63 -19 -63 -85v-442h58v178c28 -26 54 -55 73 -78l37 49c-34 31 -73 64 -110 94v199c0 25 3 29 16 29h40c14 0 16 -19 18 -110c14 11 34 23 49 28c-3 106 -16 138 -62 138zM692 341v-136h-100v136h100zM692 532v-138h-100v138h100zM747 150v437h-209
v-437h56c11 -35 23 -77 29 -109l62 14c-11 32 -23 66 -35 95h97zM341 526l-18 -57c33 -8 71 -20 113 -32v-171h-97v-59h97v-136h62v546h-62v-124c-33 12 -65 23 -95 33zM322 565l-36 56c-12 -32 -41 -90 -65 -139v474h-59v-459c-26 104 -60 202 -95 265
c-7 -22 -23 -55 -33 -74c50 -82 100 -239 123 -372h-99v-62h104v-211h59v211h92v62h-92v75c26 43 88 147 101 174zM529 620h67c-16 169 -64 279 -251 339c-6 -17 -25 -43 -39 -54c172 -50 209 -142 223 -285zM793 880h85c27 0 33 -17 35 -143c14 12 40 22 57 26
c-6 143 -23 176 -85 176h-99c-69 0 -86 -18 -86 -86v-234h62v235c0 22 5 26 31 26z" />
</svg>
