<?xml version="1.0" standalone="no"?>
<!DOCTYPE svg PUBLIC "-//W3C//DTD SVG 1.1//EN" "http://www.w3.org/Graphics/SVG/1.1/DTD/svg11.dtd" >
<svg xmlns="http://www.w3.org/2000/svg" xmlns:xlink="http://www.w3.org/1999/xlink" version="1.1" viewBox="-10 0 1010 1000">
   <path fill="currentColor"
d="M776 309h-190c-9 37 -17 73 -24 103h199c4 -32 10 -68 15 -103zM796 153h-176c-6 31 -13 64 -21 97h185c5 -35 9 -69 12 -97zM933 412v59h-576v-59h131c9 -30 18 -66 27 -103h-104v-59h117c7 -33 14 -67 21 -97h-154v-59h415l11 -4l52 6c-9 89 -25 214 -41 316h101z
M347 482l-43 52c-11 -23 -34 -64 -57 -100v522h-68v-476c-28 98 -66 191 -104 249c-8 -19 -25 -52 -38 -71c55 -77 110 -225 136 -353h-118v-70h124v-192h68v192h88v70h-88v47c23 27 85 108 100 130zM523 744h-74c-6 38 -11 76 -17 108l80 -9c4 -30 8 -65 11 -99zM536 592
h-67c-4 31 -8 65 -13 99h71c4 -35 7 -70 9 -99zM570 837l36 -4l3 56l-298 34l-4 -58l70 -8c6 -33 12 -72 18 -113h-62v-53h69c5 -34 9 -68 12 -99h-84v-57h216l10 -3l41 4c-5 83 -17 202 -27 301zM839 746h-84c-6 43 -12 85 -18 120h89c4 -37 9 -79 13 -120zM852 594h-78
c-4 31 -8 66 -11 99h81c3 -35 6 -70 8 -99zM883 866h71v55h-336v-55h65c6 -35 12 -77 18 -120h-64v-53h71c5 -34 9 -68 11 -99h-84v-57h226l11 -3l40 4c-5 89 -17 224 -29 328z" />
</svg>
