<?xml version="1.0" standalone="no"?>
<!DOCTYPE svg PUBLIC "-//W3C//DTD SVG 1.1//EN" "http://www.w3.org/Graphics/SVG/1.1/DTD/svg11.dtd" >
<svg xmlns="http://www.w3.org/2000/svg" xmlns:xlink="http://www.w3.org/1999/xlink" version="1.1" viewBox="-10 0 1010 1000">
   <path fill="currentColor"
d="M680 857v-122h-190v-54h190v-72h-156v-54h156v-67h-182v-54h103c-8 -30 -27 -73 -45 -105l54 -18c21 33 41 78 48 107l-43 16h128c28 -36 59 -89 77 -126h-328v-54h188v-77h-155v-54h155v-79h70v79h159v54h-159v77h184v54h-107l56 17c-24 37 -52 77 -76 109h126v54h-183
v67h155v54h-155v72h188v54h-188v122h-70zM477 231l-51 44c-20 -38 -65 -93 -103 -132l47 -39c39 39 86 92 107 127zM320 534l-37 56c-10 -28 -31 -78 -51 -123v489h-62v-494c-27 109 -63 215 -101 280c-7 -22 -22 -54 -33 -73c50 -80 100 -233 124 -364h-108v-70h118v-191
h62v191h95v70h-95v66c23 39 75 138 88 163zM458 430v349c18 9 34 27 61 48c47 34 104 42 186 42c71 0 183 -4 258 -13c-7 18 -17 51 -18 70c-63 3 -175 7 -240 7c-89 0 -148 -14 -197 -48c-30 -25 -55 -52 -73 -52c-32 0 -81 49 -132 111l-45 -59c46 -46 93 -85 135 -102
v-289h-82v-64h147z" />
</svg>
