<?xml version="1.0" standalone="no"?>
<!DOCTYPE svg PUBLIC "-//W3C//DTD SVG 1.1//EN" "http://www.w3.org/Graphics/SVG/1.1/DTD/svg11.dtd" >
<svg xmlns="http://www.w3.org/2000/svg" xmlns:xlink="http://www.w3.org/1999/xlink" version="1.1" viewBox="-10 0 1010 1000">
   <path fill="currentColor"
d="M841 225v-74h-82v74h82zM841 347v-75h-82v75h82zM478 272v75h94v-75h-94zM478 151v74h94v-74h-94zM707 272h-83v75h83v-75zM707 151h-83v74h83v-74zM902 102v294h-483v-294h153v-57h52v57h83v-57h52v57h143zM379 530l-45 53c-13 -31 -44 -90 -71 -139v512h-63v-489
c-34 112 -79 220 -125 287c-8 -22 -26 -54 -40 -72c64 -83 128 -242 158 -379h-128v-68h135v-192h63v192h116v68h-116v51c26 36 98 148 116 176zM855 712l41 33c-31 27 -69 52 -102 71c44 43 99 75 164 94c-13 11 -30 34 -39 51c-129 -44 -217 -138 -265 -264h-71v182
l113 -28c2 16 6 38 9 50c-151 41 -176 50 -191 61c-4 -16 -15 -46 -26 -61c16 -7 36 -23 36 -60v-144h-58c-5 88 -21 188 -63 262c-12 -10 -41 -25 -57 -31c53 -92 59 -217 59 -308v-179h521v54h-458v126v25h466v51h-221c12 29 29 57 48 82c33 -21 71 -48 94 -67zM885 595
h-379v-49h379v49z" />
</svg>
