<?xml version="1.0" standalone="no"?>
<!DOCTYPE svg PUBLIC "-//W3C//DTD SVG 1.1//EN" "http://www.w3.org/Graphics/SVG/1.1/DTD/svg11.dtd" >
<svg xmlns="http://www.w3.org/2000/svg" xmlns:xlink="http://www.w3.org/1999/xlink" version="1.1" viewBox="-10 0 1010 1000">
   <path fill="currentColor"
d="M846 235v-102h-101v102h101zM692 235v-102h-98v102h98zM540 235v-102h-94v102h94zM910 79v210h-527v-210h527zM944 339v61h-602v-61h602zM329 545l-37 56c-11 -32 -39 -91 -63 -140v495h-61v-492c-27 109 -63 214 -101 278c-7 -21 -22 -54 -33 -72
c50 -81 100 -234 124 -365h-106v-70h116v-191h61v191h101v70h-101v64c24 40 86 149 100 176zM477 510v94h334v-94h-334zM882 674l51 44c-43 27 -95 56 -139 77c46 43 104 77 172 95c-17 13 -35 39 -45 57c-138 -45 -234 -148 -285 -282c-34 31 -76 61 -121 87v117l168 -39
c-2 16 -1 42 0 55c-192 49 -219 58 -237 68c-4 -16 -17 -42 -26 -55c13 -7 33 -22 33 -62v-52c-38 19 -77 35 -114 47c-9 -16 -28 -40 -43 -52c89 -23 191 -68 262 -119h-148v-205h471v205h-183c15 34 35 68 59 96c44 -24 93 -58 125 -82z" />
</svg>
