<?xml version="1.0" standalone="no"?>
<!DOCTYPE svg PUBLIC "-//W3C//DTD SVG 1.1//EN" "http://www.w3.org/Graphics/SVG/1.1/DTD/svg11.dtd" >
<svg xmlns="http://www.w3.org/2000/svg" xmlns:xlink="http://www.w3.org/1999/xlink" version="1.1" viewBox="-10 0 1010 1000">
   <path fill="currentColor"
d="M256 328v75c27 37 99 148 116 174l-40 55c-14 -32 -48 -94 -76 -144v467h-68v-457c-32 105 -73 207 -115 270c-9 -19 -27 -48 -39 -65c60 -83 119 -239 147 -375h-126v-69h133v-216h68v216h101v69h-101zM620 646h-156v79h156v-79zM845 725v-79h-161v79h161zM684 860h161
v-80h-161v80zM464 860h156v-80h-156v80zM396 956v-368h520v366h-71v-37h-381v39h-68zM790 479v-92h-263v92h263zM462 333h398v200h-398v-200zM817 205h127v160h-70v-101h-437v101h-67v-160h106c-9 -35 -35 -88 -61 -127l61 -20c27 38 54 90 64 124l-61 23h138v-161h70v161
h124l-51 -20c22 -36 52 -93 66 -131l68 23c-25 45 -54 94 -77 128z" />
</svg>
