<?xml version="1.0" standalone="no"?>
<!DOCTYPE svg PUBLIC "-//W3C//DTD SVG 1.1//EN" "http://www.w3.org/Graphics/SVG/1.1/DTD/svg11.dtd" >
<svg xmlns="http://www.w3.org/2000/svg" xmlns:xlink="http://www.w3.org/1999/xlink" version="1.1" viewBox="-10 0 1010 1000">
   <path fill="currentColor"
d="M945 168v63h-316v-63h130c-6 -34 -17 -76 -27 -111l70 -9c14 38 26 85 33 120h110zM746 397l-59 16c-3 -38 -17 -102 -33 -149l57 -12c16 47 31 108 35 145zM329 546l-37 55c-12 -32 -40 -90 -64 -139v494h-62v-495c-27 109 -63 216 -101 281c-7 -21 -23 -54 -34 -73
c51 -80 101 -233 125 -364h-104v-70h114v-192h62v192h84v70h-84v66c25 41 86 146 101 175zM552 584h-86v225h86v-225zM544 161h-113v170h113v-170zM608 524v344h-142v74h-55v-344c-17 95 -46 190 -99 266c-8 -13 -32 -38 -44 -46c92 -138 102 -330 102 -470v-247h233v290
h-172c-1 41 -4 86 -9 133h186zM957 500h-138v131h122v63h-122v262h-68v-262h-108v-63h108v-131h-134v-64h181c24 -54 49 -133 63 -189l68 17c-23 56 -46 122 -69 172h97v64z" />
</svg>
