<?xml version="1.0" standalone="no"?>
<!DOCTYPE svg PUBLIC "-//W3C//DTD SVG 1.1//EN" "http://www.w3.org/Graphics/SVG/1.1/DTD/svg11.dtd" >
<svg xmlns="http://www.w3.org/2000/svg" xmlns:xlink="http://www.w3.org/1999/xlink" version="1.1" viewBox="-10 0 1010 1000">
   <path fill="currentColor"
d="M809 692h-300v66h300v-66zM509 874h300v-68h-300v68zM441 958v-318h438v314h-70v-27h-300v31h-68zM757 529l-35 -15c16 -28 36 -71 46 -98l44 18c-20 35 -38 70 -55 95zM503 430l39 -13c20 28 39 67 45 92l-40 17c-7 -27 -25 -66 -44 -96zM472 399v143h153v-143h-153z
M848 542v-143h-165v143h165zM409 594v-247h503v247h-503zM525 239h270c-51 -36 -101 -77 -142 -119c-37 45 -79 84 -128 119zM636 28l68 22c-5 8 -9 16 -14 22c71 73 192 150 286 189c-17 13 -39 39 -51 56c-39 -19 -84 -47 -129 -78v53h-280v-47c-41 29 -86 55 -134 76
c-5 -6 -13 -16 -22 -26v34h-104v75c26 37 99 147 116 174l-40 55c-13 -33 -48 -94 -76 -144v467h-68v-457c-31 105 -73 207 -116 270c-8 -20 -26 -48 -38 -65c60 -83 119 -239 146 -375h-125v-70h133v-216h68v216h102c121 -56 226 -139 278 -231z" />
</svg>
