<?xml version="1.0" standalone="no"?>
<!DOCTYPE svg PUBLIC "-//W3C//DTD SVG 1.1//EN" "http://www.w3.org/Graphics/SVG/1.1/DTD/svg11.dtd" >
<svg xmlns="http://www.w3.org/2000/svg" xmlns:xlink="http://www.w3.org/1999/xlink" version="1.1" viewBox="-10 0 1010 1000">
   <path fill="currentColor"
d="M343 535l-36 56c-12 -31 -42 -89 -67 -137v502h-61v-496c-28 110 -66 216 -104 282c-7 -21 -22 -54 -33 -73c51 -80 102 -232 127 -364h-109v-70h119v-192h61v192h91v53c118 -63 225 -160 279 -251l72 23c-7 11 -14 23 -22 34c75 68 200 136 302 172
c-12 18 -27 48 -33 67c-103 -44 -223 -118 -307 -192c-39 46 -85 89 -136 127h295v60h-298v-58c-34 26 -70 49 -107 70c-9 -13 -30 -34 -45 -47v12h-91v65c25 36 88 139 103 165zM723 455v131h110v-131h-110zM665 640v-240h229v240h-229zM437 455v131h107v-131h-107z
M380 640v-240h223v240h-223zM465 663l66 13c-8 26 -17 50 -28 74c41 26 88 62 113 87l-40 50c-21 -24 -62 -57 -102 -86c-39 65 -91 119 -149 159c-11 -13 -35 -37 -51 -49c91 -54 159 -140 191 -248zM743 662l68 9c-7 31 -15 60 -26 88c63 40 135 94 173 132l-45 51
c-34 -35 -96 -86 -154 -126c-30 57 -71 105 -122 141c-9 -13 -35 -37 -50 -49c81 -53 135 -138 156 -246z" />
</svg>
