<?xml version="1.0" standalone="no"?>
<!DOCTYPE svg PUBLIC "-//W3C//DTD SVG 1.1//EN" "http://www.w3.org/Graphics/SVG/1.1/DTD/svg11.dtd" >
<svg xmlns="http://www.w3.org/2000/svg" xmlns:xlink="http://www.w3.org/1999/xlink" version="1.1" viewBox="-10 0 1010 1000">
   <path fill="currentColor"
d="M537 218v-69h-50v69h50zM630 271h-46v125h46v-125zM487 271v125h50v-125h-50zM386 271v125h55v-125h-55zM441 218v-69h-124v-59h380v59h-113v69h98v230h-346v-230h105zM654 557h-291v-59h291v59zM307 538l-35 56c-10 -26 -31 -72 -51 -114v475h-59v-476
c-25 107 -60 210 -95 273c-7 -21 -22 -54 -32 -73c48 -79 95 -231 117 -360h-96v-65h106v-208h59v208h77v65h-77v69c22 36 73 127 86 150zM379 710l57 15c-23 68 -62 139 -101 185c-10 -10 -35 -25 -49 -33c40 -43 73 -105 93 -167zM690 682h-149v207c0 31 -5 46 -27 56
c-21 10 -53 10 -102 10c-3 -17 -13 -39 -22 -55c37 1 69 1 78 1c10 0 13 -3 13 -13v-206h-163v-61h372v61zM571 732l50 -22c32 50 63 114 77 157l-53 24c-13 -44 -43 -110 -74 -159zM789 154v561h-58v-561h58zM856 48h60v820c0 37 -8 55 -30 65c-22 11 -56 13 -112 13
c-2 -16 -11 -43 -20 -61c40 1 76 1 86 1c12 -1 16 -4 16 -17v-821z" />
</svg>
