<?xml version="1.0" standalone="no"?>
<!DOCTYPE svg PUBLIC "-//W3C//DTD SVG 1.1//EN" "http://www.w3.org/Graphics/SVG/1.1/DTD/svg11.dtd" >
<svg xmlns="http://www.w3.org/2000/svg" xmlns:xlink="http://www.w3.org/1999/xlink" version="1.1" viewBox="-10 0 1010 1000">
   <path fill="currentColor"
d="M237 305v65c25 39 86 148 100 175l-37 56c-11 -32 -39 -91 -63 -140v495h-61v-493c-27 109 -63 214 -100 279c-8 -21 -23 -54 -34 -72c51 -81 100 -234 124 -365h-103v-70h113v-192h61v192h84v70h-84zM617 553l-26 32c-10 -15 -25 -33 -41 -52c-21 32 -42 62 -66 88
c-8 -9 -20 -21 -30 -27c23 -25 46 -58 66 -91c-17 -17 -36 -32 -54 -46l26 -29c16 12 32 25 48 39c13 -26 24 -52 32 -77l38 20c-10 29 -24 59 -39 87c19 20 35 39 46 56zM967 319l-46 35v529c0 34 -7 52 -29 63s-56 12 -110 12c-2 -18 -11 -44 -19 -62c36 1 68 1 78 1
c11 -1 15 -4 15 -14v-518h-174v229c23 -25 45 -56 65 -88c-19 -18 -38 -34 -58 -48l25 -29c18 11 36 26 54 41c13 -27 25 -54 34 -80l38 20c-11 29 -25 60 -41 89c21 21 37 41 48 58l-26 33c-11 -15 -26 -34 -44 -54c-20 33 -43 62 -66 88c-7 -8 -19 -19 -29 -27v244
c24 -27 46 -62 66 -97c-18 -18 -37 -36 -57 -52l27 -28c17 13 34 27 50 43c14 -29 25 -58 34 -85l39 19c-12 33 -25 65 -42 97c20 22 37 42 47 61l-28 32c-10 -16 -24 -35 -41 -55c-20 36 -43 68 -67 97c-7 -7 -19 -17 -28 -24v101h-56v-585h-172v480c24 -29 48 -65 68 -101
c-17 -18 -37 -37 -55 -52l27 -27c16 13 32 26 48 41c13 -27 24 -55 32 -80l38 18c-11 32 -24 63 -40 93c21 22 37 43 47 61l-28 31c-9 -15 -23 -34 -39 -53c-21 36 -44 69 -69 98c-8 -7 -18 -19 -29 -26v110h-63v-600l-5 5c-12 -13 -31 -30 -46 -41
c56 -49 125 -122 163 -172l53 34c-31 38 -69 81 -108 119h171v-161h-255v-63h582v63h-258v161h184c-38 -41 -86 -86 -129 -121l48 -32c65 49 141 121 176 169z" />
</svg>
