<?xml version="1.0" standalone="no"?>
<!DOCTYPE svg PUBLIC "-//W3C//DTD SVG 1.1//EN" "http://www.w3.org/Graphics/SVG/1.1/DTD/svg11.dtd" >
<svg xmlns="http://www.w3.org/2000/svg" xmlns:xlink="http://www.w3.org/1999/xlink" version="1.1" viewBox="-10 0 1010 1000">
   <path fill="currentColor"
d="M595 633v51h346v55h-307c79 53 200 99 307 121c-16 13 -37 39 -46 57c-102 -27 -219 -82 -300 -146v183h-73v-184c-74 68 -184 125 -287 153c-10 -17 -30 -44 -44 -58c104 -21 216 -68 289 -126h-272v-55h314v-51h73zM499 411h-212v32h212v-32zM287 515h212v-35h-212v35z
M227 638v-267h332v207c0 28 -6 38 -25 45s-51 8 -98 7c-4 -13 -12 -28 -17 -40c31 1 59 1 68 0c9 0 12 -2 12 -11v-27h-212v86h-60zM486 237v-29h-188v29h188zM486 303v-30h-188v30h188zM542 172v167h-299v-167h299zM930 582l-44 32c-27 -50 -86 -125 -139 -180
c-20 85 -59 146 -131 190c-7 -14 -24 -36 -39 -46c75 -45 108 -111 123 -208h-122v-55h128c4 -44 6 -93 7 -149h59c-1 55 -3 104 -7 149h149v55h-155c-3 22 -7 42 -11 62l42 -26c54 54 114 129 140 176zM791 199l46 -23c27 27 58 66 72 93l-47 27c-14 -27 -44 -68 -71 -97z
M950 79v56h-762v237c0 165 -11 407 -88 572c-12 -10 -43 -27 -60 -33c74 -159 80 -382 80 -539v-293h830z" />
</svg>
