<?xml version="1.0" standalone="no"?>
<!DOCTYPE svg PUBLIC "-//W3C//DTD SVG 1.1//EN" "http://www.w3.org/Graphics/SVG/1.1/DTD/svg11.dtd" >
<svg xmlns="http://www.w3.org/2000/svg" xmlns:xlink="http://www.w3.org/1999/xlink" version="1.1" viewBox="-10 0 1010 1000">
   <path fill="currentColor"
d="M668 398l-18 -57c50 -19 122 -51 193 -82v-124h-189v-55h253v317h-64v-82c-63 30 -125 60 -175 83zM802 239l-39 38c-20 -26 -59 -62 -90 -85l37 -36c31 21 71 56 92 83zM362 411l-19 -57c52 -22 131 -57 208 -92v-127h-194v-55h253v313h-59v-77c-67 35 -136 69 -189 95z
M506 241l-40 38c-18 -26 -59 -63 -91 -87l38 -35c32 22 72 56 93 84zM358 505l-44 53c-11 -27 -38 -76 -63 -118v516h-69v-476c-31 108 -72 210 -113 274c-9 -22 -26 -54 -39 -71c59 -84 117 -243 146 -378h-123v-70h129v-191h69v191h87v70h-87v48c26 32 91 127 107 152z
M481 788v72h170v-72h-170zM651 616v-69h-170v69h170zM651 736v-68h-170v68h170zM940 860v58h-459v38h-67v-335c-20 24 -39 47 -59 66c-13 -12 -35 -34 -51 -45c69 -66 137 -169 170 -250l68 24c-11 23 -24 49 -39 73h148c-9 -23 -20 -49 -31 -69l61 -20c15 27 32 62 42 89
h192v58h-198v69h168v52h-168v68h168v52h-168v72h223z" />
</svg>
