<?xml version="1.0" standalone="no"?>
<!DOCTYPE svg PUBLIC "-//W3C//DTD SVG 1.1//EN" "http://www.w3.org/Graphics/SVG/1.1/DTD/svg11.dtd" >
<svg xmlns="http://www.w3.org/2000/svg" xmlns:xlink="http://www.w3.org/1999/xlink" version="1.1" viewBox="-10 0 1010 1000">
   <path fill="currentColor"
d="M353 570l-40 54c-13 -34 -44 -100 -70 -152v483h-66v-464c-30 105 -69 207 -110 270c-7 -18 -25 -45 -36 -60c55 -84 111 -240 138 -375h-114v-67h122v-216h66v216h110v67h-110v58c24 36 94 157 110 186zM442 251v218c0 142 -15 345 -100 481c-13 -11 -40 -33 -55 -40
c82 -128 90 -308 90 -442v-271h227v-154h65v56h224v49h-224v49h234l11 -3l43 11c-11 42 -26 93 -39 124l-54 -11c6 -18 12 -42 18 -67h-219v50l171 -14l5 42l-176 15v20c0 21 6 24 44 24h137c25 0 31 -6 34 -46c13 9 37 16 53 18c-5 59 -23 76 -79 76h-150
c-81 0 -102 -13 -102 -72v-14l-128 11l-5 -44l133 -11v-55h-158zM832 568v-54h-115v54h115zM832 669v-56h-115v56h115zM546 613v56h112v-56h-112zM546 514v54h112v-54h-112zM896 466v250h-218c37 19 74 44 95 65l-36 43c-26 -28 -80 -64 -127 -86l20 -22h-145v-250h411z
M454 945l-51 -33c41 -30 66 -84 76 -137l55 18c-13 56 -35 116 -80 152zM667 898h93c21 0 25 -6 28 -60c12 9 36 16 52 20c-5 75 -23 92 -71 92h-108c-69 0 -86 -14 -86 -73v-101h61v101c0 19 4 21 31 21zM810 791l50 -26c43 46 89 109 105 152l-52 29
c-16 -44 -59 -108 -103 -155z" />
</svg>
