<?xml version="1.0" standalone="no"?>
<!DOCTYPE svg PUBLIC "-//W3C//DTD SVG 1.1//EN" "http://www.w3.org/Graphics/SVG/1.1/DTD/svg11.dtd" >
<svg xmlns="http://www.w3.org/2000/svg" xmlns:xlink="http://www.w3.org/1999/xlink" version="1.1" viewBox="-10 0 1010 1000">
   <path fill="currentColor"
d="M333 535l-36 56c-11 -30 -38 -86 -62 -134v499h-60v-497c-28 111 -66 217 -105 283c-7 -22 -23 -54 -34 -73c52 -80 104 -232 129 -364h-100v-70h110v-192h60v192h91v70h-91v64c24 38 85 140 98 166zM956 187h-544v273c0 148 -11 355 -84 497c-11 -11 -35 -31 -50 -37
c69 -133 75 -320 75 -460v-332h268c-10 -23 -21 -47 -33 -67l70 -16c14 25 31 58 43 83h255v59zM499 687l137 1s-1 16 -2 25c-12 134 -24 187 -44 207c-12 13 -26 19 -46 20c-16 1 -43 1 -70 -1c-1 -15 -6 -35 -14 -49c28 4 53 4 65 4c10 0 17 -1 23 -8
c12 -13 22 -53 31 -151h-136c8 -49 17 -121 22 -179h119v-76h-95v-32c-12 6 -25 10 -38 14c-8 -11 -25 -31 -37 -40c37 -10 72 -26 102 -45c-20 -17 -47 -37 -69 -51l33 -31c23 15 53 36 75 53c22 -20 41 -45 55 -72h-145v-49h175l10 -1l32 13c-31 93 -88 154 -161 193h114
v172h-125c-3 28 -7 57 -11 83zM889 660l34 17c-20 58 -50 109 -86 153c37 31 70 60 93 84l-35 40c-22 -24 -55 -55 -92 -86c-38 37 -80 66 -120 88c-8 -13 -24 -33 -35 -42c40 -18 79 -46 115 -81c-31 -26 -64 -51 -93 -74l32 -34c29 21 62 47 95 73c21 -25 40 -54 54 -83
h-178v-52h206zM880 571h27c8 0 23 -1 33 -3c0 12 2 31 3 43c-8 4 -23 4 -35 4h-34c-46 0 -54 -19 -54 -71v-61h-67v3c0 49 -13 109 -71 152c-7 -10 -26 -29 -37 -36c51 -36 60 -80 60 -117v-55h147c-83 -45 -139 -112 -167 -206l44 -19c9 31 22 57 37 82
c21 -20 43 -43 58 -61l43 27c-23 28 -50 50 -73 69c9 12 21 22 34 32c26 -21 56 -50 73 -68l43 26c-24 25 -51 48 -77 67c27 14 57 26 90 34c-12 13 -22 35 -27 50c-22 -7 -41 -14 -60 -24v106c0 21 1 26 10 26z" />
</svg>
