<?xml version="1.0" standalone="no"?>
<!DOCTYPE svg PUBLIC "-//W3C//DTD SVG 1.1//EN" "http://www.w3.org/Graphics/SVG/1.1/DTD/svg11.dtd" >
<svg xmlns="http://www.w3.org/2000/svg" xmlns:xlink="http://www.w3.org/1999/xlink" version="1.1" viewBox="-10 0 1010 1000">
   <path fill="currentColor"
d="M415 746h136v-71h-136v71zM551 558h-136v68h136v-68zM611 507v387c0 31 -6 45 -27 55c-20 10 -53 10 -99 10c-2 -16 -7 -38 -15 -54c33 1 59 1 69 1c10 -1 12 -3 12 -13v-98h-136v158h-57v-446h253zM844 886v-396h63v396c0 34 -7 49 -30 59s-57 11 -111 11
c-3 -17 -14 -40 -23 -57c40 2 76 2 86 1c12 -1 15 -3 15 -14zM749 519v296h-58v-296h58zM757 275l63 30c-18 27 -37 56 -53 80h186v63h-639v-63h164c-11 -26 -28 -58 -45 -82l59 -22l1 2c-13 -27 -30 -60 -47 -88h-30c-21 34 -42 65 -66 89c-11 -10 -33 -27 -48 -36v57h-84
v64c23 35 76 125 90 149l-35 55c-11 -26 -34 -75 -55 -116v499h-62v-481c-25 105 -58 204 -92 267c-7 -21 -22 -54 -32 -72c47 -81 95 -234 117 -365h-97v-70h104v-192h62v192h84v8c51 -49 89 -122 110 -198l62 13c-8 27 -19 55 -30 81h182v56h-115c20 32 39 67 49 90
l-48 25c16 26 30 55 38 75h147c21 -31 46 -77 60 -110zM737 139h217v56h-134c27 29 52 61 65 83l-50 36c-18 -33 -57 -81 -92 -119h-32c-19 34 -40 64 -62 88c-12 -10 -39 -28 -55 -37c50 -50 85 -124 106 -202l65 13c-8 28 -17 56 -28 82z" />
</svg>
