<?xml version="1.0" standalone="no"?>
<!DOCTYPE svg PUBLIC "-//W3C//DTD SVG 1.1//EN" "http://www.w3.org/Graphics/SVG/1.1/DTD/svg11.dtd" >
<svg xmlns="http://www.w3.org/2000/svg" xmlns:xlink="http://www.w3.org/1999/xlink" version="1.1" viewBox="-10 0 1010 1000">
   <path fill="currentColor"
d="M332 545l-38 50c-11 -28 -37 -79 -59 -123v483h-60v-484c-29 114 -70 224 -110 290c-7 -21 -22 -55 -33 -73c53 -80 106 -231 132 -363h-112v-70h123v-211h60v211h94v70h-94v61c23 35 82 133 97 159zM430 188v301c0 145 -13 342 -102 472c-11 -13 -38 -35 -52 -42
c81 -123 89 -294 89 -430v-365h266c-8 -23 -17 -46 -27 -66l62 -19c14 25 27 59 35 85h247v64h-518zM610 204v59h104v52h-104v59h80v52h-223v-52h83v-59h-102v-52h102v-59h60zM820 726l-53 13c-4 -55 -26 -145 -54 -214l50 -11c30 69 53 157 57 212zM635 614v-87h-117v87
h117zM686 476v189h-217v-189h217zM554 821l-50 12c0 -39 -12 -100 -28 -147l47 -10c18 47 31 107 31 145zM637 822l84 -14l4 53c-102 20 -205 42 -287 59l-13 -59c45 -8 102 -18 163 -30c12 -47 25 -113 29 -160l56 13c-12 45 -23 96 -36 138zM958 386v59h-58v437
c0 36 -7 53 -30 64c-21 10 -57 12 -109 12c-3 -17 -11 -44 -20 -62c38 2 73 2 83 1c11 0 15 -3 15 -15v-437h-118v-59h118v-179h61v179h58z" />
</svg>
