<?xml version="1.0" standalone="no"?>
<!DOCTYPE svg PUBLIC "-//W3C//DTD SVG 1.1//EN" "http://www.w3.org/Graphics/SVG/1.1/DTD/svg11.dtd" >
<svg xmlns="http://www.w3.org/2000/svg" xmlns:xlink="http://www.w3.org/1999/xlink" version="1.1" viewBox="-10 0 1010 1000">
   <path fill="currentColor"
d="M306 234l44 -38c20 14 42 30 62 46c22 -27 45 -62 62 -93h-181v-61h219l13 -4l42 30c-29 57 -72 118 -111 167c20 19 38 39 49 57l-46 43c-30 -45 -95 -107 -153 -147zM335 559l-40 62c-12 -22 -40 -63 -64 -97v432h-66v-425c-25 93 -58 181 -91 238
c-9 -20 -27 -47 -38 -64c52 -87 104 -249 126 -384h-110v-66h113v-212h66v212h87v66h-87v121c25 26 89 99 104 117zM626 422h60c19 -31 34 -67 44 -107h-104v107zM782 172h-107c-17 29 -36 59 -59 87h117c17 -25 35 -57 49 -87zM872 422v-107h-83c-9 39 -23 75 -40 107h123z
M907 507l38 41c-24 22 -55 45 -84 66c18 93 53 180 112 220c-15 11 -34 31 -42 48c-58 -49 -93 -141 -112 -240l-24 14c28 107 14 214 -21 252c-22 24 -45 32 -78 32c-15 1 -37 0 -58 -1c-2 -16 -6 -40 -15 -57c24 3 47 4 61 4c17 0 31 -3 42 -18c18 -18 29 -72 24 -135
c-62 60 -147 119 -221 152c-8 -15 -23 -36 -37 -48c85 -32 190 -101 248 -166c-4 -17 -9 -33 -15 -49c-49 46 -118 94 -175 123c-7 -13 -22 -33 -35 -45c63 -26 143 -77 191 -124c-10 -17 -21 -34 -34 -49c-37 36 -79 65 -128 89c-6 -10 -22 -30 -33 -41
c-5 14 -11 28 -17 40l-44 -18c15 -37 31 -92 41 -144h-56v423c0 31 -5 50 -27 61c-20 11 -51 12 -95 12c-2 -17 -13 -44 -22 -61c35 1 63 1 72 0c10 0 13 -3 13 -13v-422h-93v-64h226l10 -3l37 12c-10 56 -25 119 -43 170c52 -23 96 -53 132 -91h-75v-166
c-5 6 -11 11 -16 16c-11 -14 -34 -32 -50 -40c81 -71 133 -165 159 -241l66 10c-7 20 -16 39 -25 59h111l10 -3l44 28c-18 39 -42 83 -67 119h128v218h-215l-10 13c33 32 57 73 74 116c44 -30 95 -68 128 -99z" />
</svg>
