<?xml version="1.0" standalone="no"?>
<!DOCTYPE svg PUBLIC "-//W3C//DTD SVG 1.1//EN" "http://www.w3.org/Graphics/SVG/1.1/DTD/svg11.dtd" >
<svg xmlns="http://www.w3.org/2000/svg" xmlns:xlink="http://www.w3.org/1999/xlink" version="1.1" viewBox="-10 0 1010 1000">
   <path fill="currentColor"
d="M943 127v60h-598v-60h270c-8 -25 -20 -51 -31 -73l59 -17c17 27 33 63 42 90h258zM342 551l-40 51c-12 -32 -40 -91 -64 -142v496h-66v-486c-27 104 -63 205 -100 268c-8 -20 -25 -51 -37 -68c52 -81 102 -235 125 -365h-108v-70h120v-192h66v192h94v70h-94v62
c23 37 90 155 104 184zM562 591v52h147v-52h-147zM562 492v51h147v-51h-147zM446 270v77h112v-77h-112zM724 270v78h114v-78h-114zM880 706l47 38c-39 28 -91 56 -133 76c47 36 104 63 168 78c-14 14 -32 37 -41 55c-137 -39 -236 -127 -289 -249c-28 25 -63 49 -100 68v103
l156 -33c0 16 1 40 3 52c-186 46 -213 55 -230 66c-4 -16 -15 -42 -22 -55c13 -6 31 -16 31 -51v-51c-44 18 -90 34 -134 47c-6 -12 -25 -39 -36 -51c91 -22 191 -56 257 -102h-220v-54h161v-52h-102v-48h102v-51h-133v-53h133v-50h-107v-162h223v162h-52v50h147v-48h-41
v-164h228v164h-122v48h143v53h-143v51h126v48h-126v52h169v54h-252c16 32 37 62 62 88c44 -22 96 -56 127 -79z" />
</svg>
