<?xml version="1.0" standalone="no"?>
<!DOCTYPE svg PUBLIC "-//W3C//DTD SVG 1.1//EN" "http://www.w3.org/Graphics/SVG/1.1/DTD/svg11.dtd" >
<svg xmlns="http://www.w3.org/2000/svg" xmlns:xlink="http://www.w3.org/1999/xlink" version="1.1" viewBox="-10 0 1010 1000">
   <path fill="currentColor"
d="M310 545l-35 56c-12 -32 -38 -93 -61 -143v498h-57v-490c-25 109 -59 212 -93 276c-7 -22 -22 -54 -32 -73c47 -80 93 -233 116 -364h-96v-70h105v-192h57v192h80v70h-80v62c22 36 83 150 96 178zM579 720v74h52v-74h-52zM631 490h-52v70h52v-70zM691 672v-64h-112v64
h112zM889 449l53 25c-22 106 -55 201 -97 283c14 80 31 127 54 128c12 1 21 -39 26 -108c12 13 33 29 44 34c-15 114 -43 147 -70 146c-44 -1 -75 -48 -95 -130c-31 47 -65 88 -102 121c-9 -10 -27 -27 -41 -34c24 -21 46 -45 66 -71h-192v-402h203v49h-64v70h64v160h-64v74
h64v34c18 -23 35 -50 50 -78c-16 -100 -24 -227 -29 -372h-257v199c0 114 -8 275 -59 382c-12 -9 -38 -22 -53 -28c36 -73 49 -167 53 -255h-43c-5 88 -16 168 -46 224c-10 -6 -30 -18 -44 -24c29 -51 37 -122 41 -200h-30v-54h124v-45v-33h-101v-222h48v167h53v-172h311
l-1 -43h-38v-82h-154v82h-67v-82h-155v-64h155v-84h67v84h154v-84h68v84h168v64h-168v58h30l1 67h96c-20 -26 -59 -60 -92 -84l42 -27c33 22 74 57 94 82l-39 29h41v61h-141c3 103 8 199 16 277c24 -63 43 -131 56 -206z" />
</svg>
