<?xml version="1.0" standalone="no"?>
<!DOCTYPE svg PUBLIC "-//W3C//DTD SVG 1.1//EN" "http://www.w3.org/Graphics/SVG/1.1/DTD/svg11.dtd" >
<svg xmlns="http://www.w3.org/2000/svg" xmlns:xlink="http://www.w3.org/1999/xlink" version="1.1" viewBox="-10 0 1010 1000">
   <path fill="currentColor"
d="M879 261h-242c-25 77 -54 145 -90 199c-13 -10 -44 -30 -61 -38c67 -90 108 -231 129 -379l69 11c-8 48 -18 95 -29 140h245l13 -3l46 15c-19 89 -46 193 -72 257l-57 -17c18 -48 36 -119 49 -185zM390 594h-215v241h215v-241zM114 956v-425h338v415h-62v-50h-215v60h-61
zM154 373h274v63h-274v-63zM275 41l56 20l-12 33c66 68 149 157 189 210l-44 49c-37 -53 -108 -134 -172 -201c-55 109 -131 211 -213 280c-12 -16 -32 -37 -49 -50c100 -77 194 -210 245 -341zM743 322v70c0 22 0 46 -2 71c38 210 100 332 228 437c-16 13 -36 35 -46 55
c-103 -89 -163 -187 -205 -327c-27 113 -83 232 -199 332c-10 -16 -32 -40 -46 -52c189 -161 205 -374 205 -517v-69h65z" />
</svg>
