<?xml version="1.0" standalone="no"?>
<!DOCTYPE svg PUBLIC "-//W3C//DTD SVG 1.1//EN" "http://www.w3.org/Graphics/SVG/1.1/DTD/svg11.dtd" >
<svg xmlns="http://www.w3.org/2000/svg" xmlns:xlink="http://www.w3.org/1999/xlink" version="1.1" viewBox="-10 0 1010 1000">
   <path fill="currentColor"
d="M879 262h-243c-25 81 -57 153 -94 208c-13 -10 -44 -30 -62 -38c70 -93 112 -238 135 -389l69 11c-8 48 -18 95 -29 140h246l12 -3l48 15c-19 89 -46 193 -73 259l-58 -19c18 -47 37 -118 49 -184zM391 370h-178c-99 0 -123 -22 -123 -99v-225h71v114
c91 -23 186 -52 243 -81l52 51c-80 35 -193 66 -295 88v52c0 28 9 32 58 32h166c37 0 44 -12 48 -91c16 12 46 22 66 27c-9 105 -32 132 -108 132zM470 853l-44 60c-25 -36 -88 -110 -134 -159c-27 70 -82 144 -190 204c-11 -16 -33 -39 -49 -50c120 -61 167 -139 185 -211
h-190v-64h200c1 -14 1 -27 1 -39v-71h-84c-15 38 -32 72 -50 99c-13 -10 -44 -26 -61 -33c40 -55 69 -139 85 -220l68 13c-6 26 -13 53 -21 79h280v62h-147v73c0 12 0 24 -1 37h185v64h-188c44 41 132 132 155 156zM746 323v70c0 26 -1 53 -2 83c37 202 97 320 223 424
c-17 14 -38 37 -48 58c-99 -88 -160 -184 -202 -316c-28 110 -86 225 -200 321c-10 -17 -34 -43 -50 -55c193 -159 209 -373 209 -516v-69h70z" />
</svg>
