<?xml version="1.0" standalone="no"?>
<!DOCTYPE svg PUBLIC "-//W3C//DTD SVG 1.1//EN" "http://www.w3.org/Graphics/SVG/1.1/DTD/svg11.dtd" >
<svg xmlns="http://www.w3.org/2000/svg" xmlns:xlink="http://www.w3.org/1999/xlink" version="1.1" viewBox="-10 0 1010 1000">
   <path fill="currentColor"
d="M485 89v236h-408v-236h62v172h106v-206h64v206h112v-172h64zM885 271h-232c-22 73 -49 138 -82 189c-12 -10 -44 -31 -60 -39c62 -90 101 -232 121 -379l69 11c-8 52 -18 102 -30 150h235l12 -4l47 16c-19 89 -45 193 -71 258l-57 -19c18 -46 36 -118 48 -183zM758 331
v68c0 27 -1 54 -2 84c37 196 97 312 217 412c-18 13 -38 36 -46 57c-96 -87 -155 -181 -196 -312c-27 110 -84 224 -199 320c-10 -15 -30 -40 -45 -53c-3 4 -7 8 -12 11c-17 10 -41 11 -73 11c-3 -17 -14 -41 -21 -57c23 1 41 1 49 0c7 0 9 -2 9 -10v-253h-71v320h-47v-320
h-68v320h-47v-320h-69v331h-58v-394h149c5 -26 11 -57 16 -85h-190v-66h457v66h-197c-7 29 -15 59 -23 85h206v317c0 15 -1 28 -6 38c184 -157 199 -365 199 -503v-67h68z" />
</svg>
