<?xml version="1.0" standalone="no"?>
<!DOCTYPE svg PUBLIC "-//W3C//DTD SVG 1.1//EN" "http://www.w3.org/Graphics/SVG/1.1/DTD/svg11.dtd" >
<svg xmlns="http://www.w3.org/2000/svg" xmlns:xlink="http://www.w3.org/1999/xlink" version="1.1" viewBox="-10 0 1010 1000">
   <path fill="currentColor"
d="M860 272h-209c-24 70 -52 134 -86 184c-11 -13 -39 -38 -56 -49c64 -87 103 -223 123 -364l70 12c-8 51 -19 101 -32 148h213l13 -3l49 15c-25 91 -57 195 -87 261l-59 -18c21 -48 43 -120 61 -186zM203 295v135h85v-135h-85zM400 150h-197v89h135v191h62v-280zM744 330
v58c0 24 0 52 -2 80c41 203 107 326 231 432c-17 12 -38 35 -47 56c-100 -91 -161 -188 -205 -323c-24 110 -73 225 -170 326c-11 -15 -31 -36 -47 -48c-5 7 -12 13 -21 17c-25 11 -68 11 -134 11c-2 -18 -11 -45 -19 -64c50 2 95 2 107 1c14 0 18 -5 18 -18v-363h-305v460
h-61v-525h53v-345h321v345h52v430c0 13 -1 24 -3 34c152 -164 165 -369 165 -507v-57h67zM350 742v-125h-100v125h100zM401 561v237h-199v-237h199z" />
</svg>
