<?xml version="1.0" standalone="no"?>
<!DOCTYPE svg PUBLIC "-//W3C//DTD SVG 1.1//EN" "http://www.w3.org/Graphics/SVG/1.1/DTD/svg11.dtd" >
<svg xmlns="http://www.w3.org/2000/svg" xmlns:xlink="http://www.w3.org/1999/xlink" version="1.1" viewBox="-10 0 1010 1000">
   <path fill="currentColor"
d="M505 146v63h-438v-63h203c-12 -29 -28 -63 -44 -89l66 -16c21 31 43 74 55 105h158zM229 358l-64 15c-2 -39 -18 -99 -34 -144l60 -14c18 45 33 104 38 143zM502 438l1 7h-455v-65h278c20 -50 44 -119 56 -167l69 16c-19 50 -40 105 -60 151h112v31
c54 -93 86 -229 104 -368l73 11c-7 48 -16 95 -26 140h246l13 -3l51 15c-18 89 -44 193 -69 258l-63 -18c17 -47 34 -119 47 -184h-241c-22 81 -49 152 -85 209c-10 -9 -33 -23 -51 -33zM173 836h234v-105h-234v105zM407 574h-234v100h234v-100zM104 514h375v423h-72v-41
h-234v56h-69v-438zM744 324v69c0 24 0 49 -2 76c36 206 97 326 225 431c-19 14 -41 37 -51 58c-99 -86 -159 -180 -201 -309c-27 107 -80 218 -183 313c-11 -18 -36 -43 -53 -56c178 -161 193 -372 193 -514v-68h72z" />
</svg>
