<?xml version="1.0" standalone="no"?>
<!DOCTYPE svg PUBLIC "-//W3C//DTD SVG 1.1//EN" "http://www.w3.org/Graphics/SVG/1.1/DTD/svg11.dtd" >
<svg xmlns="http://www.w3.org/2000/svg" xmlns:xlink="http://www.w3.org/1999/xlink" version="1.1" viewBox="-10 0 1010 1000">
   <path fill="currentColor"
d="M875 270h-224c-24 75 -53 142 -88 194c-14 -10 -45 -28 -62 -37c65 -92 107 -236 129 -384l71 12c-9 51 -19 101 -31 148h224l12 -3l49 15c-16 89 -39 193 -63 257l-59 -17c15 -47 30 -118 42 -185zM282 669h-123v103h123v-103zM342 827h-183v43h-63v-256h246v213z
M570 551h-90v331c0 36 -8 50 -33 59c-25 10 -66 11 -129 11c-4 -17 -12 -40 -21 -56c45 1 87 1 100 0c13 0 16 -4 16 -15v-330h-369v-66h363v-328h-352v-64h493v64h-74v328h96v66zM279 368v-99h-117v99h117zM106 216h233v205h-233v-205zM764 330v68c0 26 -1 53 -2 81
c36 200 94 320 217 423c-19 14 -40 36 -49 56c-96 -87 -154 -182 -194 -311c-28 108 -85 219 -195 314c-11 -16 -35 -40 -50 -53c189 -159 205 -369 205 -510v-68h68z" />
</svg>
