<?xml version="1.0" standalone="no"?>
<!DOCTYPE svg PUBLIC "-//W3C//DTD SVG 1.1//EN" "http://www.w3.org/Graphics/SVG/1.1/DTD/svg11.dtd" >
<svg xmlns="http://www.w3.org/2000/svg" xmlns:xlink="http://www.w3.org/1999/xlink" version="1.1" viewBox="-10 0 1010 1000">
   <path fill="currentColor"
d="M862 278h-209c-21 74 -49 141 -81 193c-13 -12 -44 -35 -62 -45c62 -92 98 -237 117 -384l74 12c-7 53 -17 106 -30 156h213l12 -3l49 14c-16 79 -42 171 -68 228l-59 -20c16 -38 32 -96 44 -151zM528 192h-353c-22 37 -46 72 -71 99c-13 -11 -41 -30 -58 -39
c53 -53 97 -132 122 -212l67 17c-7 25 -18 49 -29 74h322v61zM191 761v77h129v-77h-129zM320 580v-69h-129v69h129zM320 706v-72h-129v72h129zM692 368h69c-2 43 -4 85 -8 126c34 171 105 327 209 402c-17 13 -39 36 -51 54c-80 -64 -140 -171 -182 -296
c-28 124 -81 231 -185 304c-11 -17 -33 -39 -50 -52c5 -3 10 -7 15 -10h-318v54h-67v-403c-17 18 -33 34 -51 49c-6 -16 -25 -48 -38 -63c58 -46 108 -107 149 -179h-127v-62h158c13 -28 24 -58 33 -88l63 15c-7 25 -16 49 -26 73h252v62h-280c-18 35 -37 69 -58 100h124
c-10 -25 -21 -53 -33 -75l59 -23c16 30 35 69 46 98h131v57h-140v69h122v54h-122v72h125v55h-125v77h139v45c141 -114 159 -315 167 -515z" />
</svg>
