<?xml version="1.0" standalone="no"?>
<!DOCTYPE svg PUBLIC "-//W3C//DTD SVG 1.1//EN" "http://www.w3.org/Graphics/SVG/1.1/DTD/svg11.dtd" >
<svg xmlns="http://www.w3.org/2000/svg" xmlns:xlink="http://www.w3.org/1999/xlink" version="1.1" viewBox="-10 0 1010 1000">
   <path fill="currentColor"
d="M886 272h-229c-23 74 -51 139 -85 191c-12 -11 -42 -30 -58 -39c66 -90 105 -233 126 -381l66 11c-8 51 -18 101 -31 149h231l11 -3l44 16c-17 88 -43 192 -67 257l-55 -18c16 -46 34 -117 47 -183zM267 243v-70h-216v-52h216v-74h73v74h207v52h-207v70h177v53h-431v-53
h181zM174 391v82h255v-82h-255zM563 611v58h-515v-58h135c-8 -22 -19 -48 -30 -69l57 -16c15 26 31 61 37 85h113c14 -28 28 -65 38 -90h-292v-179h395v179h-99l59 15c-13 26 -25 53 -37 75h139zM169 864h264v-96h-264v96zM758 331v69c0 25 0 50 -2 77
c34 203 91 322 210 426c-16 14 -35 35 -43 56c-95 -88 -152 -185 -190 -321c-27 111 -82 228 -194 325c-8 -13 -22 -32 -35 -44v21h-71v-23h-264v28h-69v-227h404v182c176 -157 190 -362 190 -501v-68h64z" />
</svg>
