<?xml version="1.0" standalone="no"?>
<!DOCTYPE svg PUBLIC "-//W3C//DTD SVG 1.1//EN" "http://www.w3.org/Graphics/SVG/1.1/DTD/svg11.dtd" >
<svg xmlns="http://www.w3.org/2000/svg" xmlns:xlink="http://www.w3.org/1999/xlink" version="1.1" viewBox="-10 0 1010 1000">
   <path fill="currentColor"
d="M886 271h-220c-22 74 -49 140 -81 192c-12 -11 -41 -31 -57 -39c63 -90 100 -233 121 -381l64 11c-8 51 -18 101 -29 149h221l11 -4l44 16c-17 89 -44 193 -67 258l-54 -19c17 -47 34 -117 47 -183zM172 221v-52h-120v-57h120v-68h63v68h147v-68h64v68h122v57h-122v52
h-64v-52h-147v52h-63zM382 287v86h95v-86h-95zM333 418v-176h194v176h-194zM134 287v87h94v-87h-94zM85 419v-177h194v177h-194zM319 615v-60h-131v60h131zM319 728v-62h-131v62h131zM319 850v-70h-131v70h131zM535 904h-347v53h-61v-335c-18 23 -36 45 -54 63
c-7 -10 -27 -37 -38 -49c56 -54 108 -132 139 -212l55 16c-8 21 -18 40 -27 61h123c-8 -18 -20 -37 -30 -53l50 -21c18 22 35 51 44 74h147v54h-153v60h135v51h-135v62h140v52h-140v70h152v54zM772 330v70c0 27 0 54 -2 83c31 197 82 314 190 417c-16 14 -34 36 -43 57
c-84 -86 -136 -180 -171 -305c-24 105 -73 217 -170 311c-9 -17 -30 -41 -45 -54c165 -159 179 -369 179 -510v-69h62z" />
</svg>
