<?xml version="1.0" standalone="no"?>
<!DOCTYPE svg PUBLIC "-//W3C//DTD SVG 1.1//EN" "http://www.w3.org/Graphics/SVG/1.1/DTD/svg11.dtd" >
<svg xmlns="http://www.w3.org/2000/svg" xmlns:xlink="http://www.w3.org/1999/xlink" version="1.1" viewBox="-10 0 1010 1000">
   <path fill="currentColor"
d="M684 166v-19h-155v-61h388s0 19 -1 29c-7 220 -13 298 -33 323c-13 18 -29 24 -52 27c-19 1 -53 2 -86 0c-2 -19 -8 -44 -18 -61c33 3 64 3 76 3c12 1 19 -1 26 -10c12 -16 18 -78 23 -250h-110v20c0 99 -19 238 -184 337c-11 -14 -32 -32 -47 -44
c156 -90 173 -214 173 -294zM567 194l47 16c-11 54 -31 114 -67 150l-44 -28c32 -32 54 -88 64 -138zM142 195l47 18c-14 54 -36 116 -73 155l-44 -30c34 -33 59 -92 70 -143zM317 147v15c0 101 -20 246 -201 348c-10 -14 -30 -33 -46 -45c171 -93 189 -222 189 -304v-14
h-158v-61h387s-1 19 -1 29c-9 220 -17 299 -37 325c-14 17 -29 24 -52 26c-19 1 -52 2 -85 -1c-1 -18 -8 -42 -17 -58c33 3 64 3 76 3c12 1 20 -1 27 -10c12 -16 20 -80 27 -253h-109zM488 796l4 59c-151 31 -310 62 -423 84l-13 -65l77 -13v-276h61v265l91 -16v-336h63v134
h145v60h-145v130c46 -9 93 -18 140 -26zM777 864h176v63h-486v-63h95v-282h61v282h90v-369h64v136h145v62h-145v171z" />
</svg>
