<?xml version="1.0" standalone="no"?>
<!DOCTYPE svg PUBLIC "-//W3C//DTD SVG 1.1//EN" "http://www.w3.org/Graphics/SVG/1.1/DTD/svg11.dtd" >
<svg xmlns="http://www.w3.org/2000/svg" xmlns:xlink="http://www.w3.org/1999/xlink" version="1.1" viewBox="-10 0 1010 1000">
   <path fill="currentColor"
d="M842 195h-217c-26 109 -69 197 -133 259c-11 -12 -39 -35 -55 -45c87 -76 128 -199 144 -351l67 7c-3 23 -6 45 -10 67h273s-1 20 -2 29c-12 155 -24 217 -46 241c-16 16 -33 22 -58 23c-23 2 -64 1 -107 -1c-1 -17 -8 -40 -17 -56c43 4 83 5 98 4c14 0 24 -1 31 -8
c13 -15 23 -60 32 -169zM388 291l42 13c-42 334 -163 540 -333 646c-10 -17 -34 -43 -50 -54c96 -57 175 -143 231 -266c-33 -30 -76 -64 -113 -91l40 -55c31 21 71 49 101 75c21 -59 37 -125 49 -198h-144c-34 98 -79 184 -134 250c-10 -14 -36 -44 -51 -57
c84 -94 136 -236 166 -397h-132v-68h406v68h-202c-9 47 -20 92 -33 136h145zM808 549h-241c26 69 64 129 113 181c54 -50 98 -109 128 -181zM855 478l47 20c-35 118 -93 210 -169 280c64 51 140 89 228 113c-17 15 -37 43 -48 64c-92 -29 -169 -72 -235 -130
c-81 62 -176 104 -279 133c-8 -20 -24 -49 -39 -65c98 -24 190 -63 267 -119c-54 -60 -96 -133 -127 -215l37 -10h-100v-68h405z" />
</svg>
