<?xml version="1.0" standalone="no"?>
<!DOCTYPE svg PUBLIC "-//W3C//DTD SVG 1.1//EN" "http://www.w3.org/Graphics/SVG/1.1/DTD/svg11.dtd" >
<svg xmlns="http://www.w3.org/2000/svg" xmlns:xlink="http://www.w3.org/1999/xlink" version="1.1" viewBox="-10 0 1010 1000">
   <path fill="currentColor"
d="M358 291l42 12c-36 325 -136 536 -280 647c-11 -16 -35 -41 -50 -52c81 -58 145 -146 191 -266c-35 -28 -83 -62 -123 -85l39 -57c34 20 76 45 109 70c17 -60 30 -126 40 -199h-130c-29 96 -66 181 -113 248c-10 -14 -34 -43 -49 -55c71 -96 114 -240 141 -397h-119v-68
h362v68h-173c-9 46 -19 92 -30 136h131zM541 532h100c3 -32 4 -65 4 -99v-162h-104v261zM824 271h-109v162c0 34 -1 67 -3 99h112v-261zM956 600h-223c39 138 115 247 230 300c-16 14 -38 40 -48 59c-109 -58 -182 -159 -227 -292c-34 113 -110 213 -273 287
c-11 -16 -33 -42 -49 -55c172 -77 240 -180 265 -299h-236v-68h78v-329h172v-148h70v148h179v329h62v68z" />
</svg>
