<?xml version="1.0" standalone="no"?>
<!DOCTYPE svg PUBLIC "-//W3C//DTD SVG 1.1//EN" "http://www.w3.org/Graphics/SVG/1.1/DTD/svg11.dtd" >
<svg xmlns="http://www.w3.org/2000/svg" xmlns:xlink="http://www.w3.org/1999/xlink" version="1.1" viewBox="-10 0 1010 1000">
   <path fill="currentColor"
d="M858 611l69 26c-94 160 -268 264 -492 320c-9 -20 -27 -46 -42 -63c212 -46 382 -141 465 -283zM770 473l63 26c-74 101 -203 183 -340 231c-9 -15 -28 -39 -45 -52c129 -41 257 -117 322 -205zM698 323l65 26c-61 76 -161 141 -257 183c-11 -15 -30 -37 -47 -49
c89 -35 188 -96 239 -160zM662 42l67 19c-6 12 -12 25 -18 38c61 95 171 194 268 243c-17 14 -40 41 -52 58c-86 -52 -183 -145 -249 -240c-59 96 -140 180 -237 242c-7 -9 -20 -22 -33 -35c-41 305 -146 490 -299 586c-10 -16 -35 -43 -49 -55c92 -54 163 -139 214 -261
c-36 -30 -87 -65 -128 -90l38 -57c37 21 82 49 116 76c18 -61 33 -129 43 -205h-142c-30 96 -70 181 -119 247c-9 -14 -34 -41 -48 -54c73 -96 120 -240 149 -397h-122v-68h387v68h-195c-9 47 -20 92 -32 136h141l12 -2l42 11c-1 13 -3 26 -4 38c113 -74 205 -185 250 -298z
" />
</svg>
