<?xml version="1.0" standalone="no"?>
<!DOCTYPE svg PUBLIC "-//W3C//DTD SVG 1.1//EN" "http://www.w3.org/Graphics/SVG/1.1/DTD/svg11.dtd" >
<svg xmlns="http://www.w3.org/2000/svg" xmlns:xlink="http://www.w3.org/1999/xlink" version="1.1" viewBox="-10 0 1010 1000">
   <path fill="currentColor"
d="M370 293l44 15c-40 329 -153 536 -312 644c-10 -16 -36 -44 -52 -55c87 -56 158 -140 210 -256c-36 -31 -86 -64 -126 -90l38 -56c37 21 81 48 116 75c21 -62 37 -130 49 -206h-143c-31 89 -69 168 -116 230c-9 -13 -34 -43 -50 -57c72 -91 120 -228 148 -377h-127v-68
h390v68h-191c-9 47 -20 92 -33 136h142zM824 620h-287v226h287v-226zM468 957v-404h427v402h-71v-42h-287v44h-69zM729 216l57 -30c72 87 147 202 180 280l-62 34c-9 -21 -21 -46 -35 -71c-367 27 -410 32 -438 44c-3 -16 -15 -51 -24 -71c19 -4 38 -28 63 -65
c25 -34 105 -168 155 -295l76 23c-53 115 -118 230 -183 321l314 -22c-32 -51 -68 -104 -103 -148z" />
</svg>
