<?xml version="1.0" standalone="no"?>
<!DOCTYPE svg PUBLIC "-//W3C//DTD SVG 1.1//EN" "http://www.w3.org/Graphics/SVG/1.1/DTD/svg11.dtd" >
<svg xmlns="http://www.w3.org/2000/svg" xmlns:xlink="http://www.w3.org/1999/xlink" version="1.1" viewBox="-10 0 1010 1000">
   <path fill="currentColor"
d="M889 147l-43 46c-31 -27 -94 -66 -143 -90l42 -41c49 21 113 59 144 85zM364 291l43 13c-40 331 -151 540 -309 648c-11 -16 -35 -42 -51 -54c87 -56 159 -142 210 -261c-32 -26 -75 -58 -110 -79l39 -50c31 18 67 41 96 63c21 -62 37 -133 48 -210h-128
c-30 96 -68 182 -115 249c-10 -15 -35 -43 -50 -56c72 -96 116 -240 144 -397h-128v-68h385v68h-187c-8 46 -19 92 -30 136h130zM884 531l62 29c-50 76 -118 145 -197 203c31 74 69 117 113 117c27 0 38 -24 42 -112c15 16 38 32 55 40c-13 110 -36 143 -104 143
c-71 0 -125 -54 -166 -145c-84 53 -177 98 -276 130c-9 -19 -28 -44 -45 -61c107 -32 208 -77 296 -135c-20 -61 -35 -133 -48 -214l-192 37l-12 -67l195 -36c-5 -43 -8 -87 -12 -133l-151 22l-12 -67l159 -23c-4 -70 -6 -143 -7 -217h73c0 72 1 140 4 206l245 -36l13 65
l-254 39c4 45 8 89 13 130l256 -48l12 65l-260 50c11 69 24 131 40 184c63 -49 118 -105 158 -166z" />
</svg>
