<?xml version="1.0" standalone="no"?>
<!DOCTYPE svg PUBLIC "-//W3C//DTD SVG 1.1//EN" "http://www.w3.org/Graphics/SVG/1.1/DTD/svg11.dtd" >
<svg xmlns="http://www.w3.org/2000/svg" xmlns:xlink="http://www.w3.org/1999/xlink" version="1.1" viewBox="-10 0 1010 1000">
   <path fill="currentColor"
d="M913 159l-43 45c-23 -33 -72 -80 -114 -110l41 -39c42 29 92 73 116 104zM352 291l40 13c-37 331 -144 540 -295 648c-10 -16 -33 -42 -48 -54c84 -57 153 -143 202 -264c-34 -29 -81 -62 -121 -87l37 -57c34 21 76 48 109 74c20 -60 35 -128 45 -203h-136
c-30 97 -68 183 -115 250c-9 -15 -33 -44 -47 -57c70 -96 116 -240 145 -397h-120v-68h369v68h-183c-8 47 -18 92 -29 136h135zM886 342l62 35c-49 73 -115 158 -167 215c44 97 106 171 198 237c-16 13 -36 35 -45 56c-110 -84 -180 -177 -226 -303v282c0 45 -11 66 -38 78
c-28 14 -72 16 -148 16c-4 -20 -15 -52 -26 -72c57 2 106 1 121 1c16 -1 22 -6 22 -23v-242c-79 82 -164 165 -230 229l-44 -64c66 -57 175 -153 274 -247v-250h-226v-69h226v-177h69v177h255v69h-255v32c13 81 27 149 48 208c47 -57 99 -131 130 -188zM415 380l54 -26
c44 56 90 133 107 184l-59 30c-17 -51 -60 -129 -102 -188z" />
</svg>
