<?xml version="1.0" standalone="no"?>
<!DOCTYPE svg PUBLIC "-//W3C//DTD SVG 1.1//EN" "http://www.w3.org/Graphics/SVG/1.1/DTD/svg11.dtd" >
<svg xmlns="http://www.w3.org/2000/svg" xmlns:xlink="http://www.w3.org/1999/xlink" version="1.1" viewBox="-10 0 1010 1000">
   <path fill="currentColor"
d="M800 265v-125h-261v125h261zM874 83v239h-408v-239h408zM512 456v299h-70v-360h464v357h-73v-296h-321zM359 289l42 12c-36 333 -144 543 -299 652c-10 -17 -35 -44 -51 -55c86 -57 156 -144 206 -266c-35 -26 -80 -58 -116 -83l38 -55c32 20 70 45 102 68
c20 -61 35 -129 45 -203h-128c-29 99 -68 187 -116 256c-8 -14 -33 -42 -48 -55c70 -97 114 -243 140 -400h-125v-68h354v68h-159c-8 45 -17 89 -27 131h128zM705 516v126c0 108 -41 234 -315 316c-9 -19 -28 -47 -44 -63c259 -66 286 -172 286 -254v-125h73zM699 805
l44 -48c71 45 174 108 224 147l-45 55c-50 -40 -150 -107 -223 -154z" />
</svg>
