<?xml version="1.0" standalone="no"?>
<!DOCTYPE svg PUBLIC "-//W3C//DTD SVG 1.1//EN" "http://www.w3.org/Graphics/SVG/1.1/DTD/svg11.dtd" >
<svg xmlns="http://www.w3.org/2000/svg" xmlns:xlink="http://www.w3.org/1999/xlink" version="1.1" viewBox="-10 0 1010 1000">
   <path fill="currentColor"
d="M340 299l40 13c-35 321 -137 534 -277 646c-11 -16 -36 -41 -50 -51c80 -60 145 -152 192 -276c-29 -27 -68 -57 -103 -79l31 -57c32 18 68 42 95 66c17 -59 31 -123 40 -192h-120c-26 89 -59 168 -100 230c-11 -13 -37 -37 -53 -48c67 -96 108 -240 132 -397h-110v-69
h334v69h-155c-9 51 -19 100 -30 148h121zM686 361v89h135v-89h-135zM686 214v86h135v-86h-135zM867 544l50 46c-42 41 -94 87 -139 122c53 52 116 95 181 118c-15 14 -35 41 -45 60c-86 -39 -168 -115 -228 -203v184c0 40 -9 58 -32 69c-21 12 -56 13 -113 13
c-3 -18 -12 -46 -20 -64c39 1 74 0 84 0c12 0 17 -4 17 -18v-138c-79 55 -161 110 -226 152l-36 -58c65 -37 165 -101 262 -162v-154h-178v-61h178v-89h-214v-61h214v-86h-175v-62h175v-108h64v108h201v148h68v61h-68v150h-201v77c15 29 33 56 56 83c44 -38 94 -89 125 -127
zM419 569l46 -34c37 40 84 96 106 132l-47 40c-22 -37 -68 -96 -105 -138z" />
</svg>
