<?xml version="1.0" standalone="no"?>
<!DOCTYPE svg PUBLIC "-//W3C//DTD SVG 1.1//EN" "http://www.w3.org/Graphics/SVG/1.1/DTD/svg11.dtd" >
<svg xmlns="http://www.w3.org/2000/svg" xmlns:xlink="http://www.w3.org/1999/xlink" version="1.1" viewBox="-10 0 1010 1000">
   <path fill="currentColor"
d="M878 108l-37 47c-31 -22 -92 -52 -140 -71l35 -42c48 17 109 44 142 66zM417 195l158 -13c-12 -43 -21 -90 -24 -139h66c3 48 11 92 24 133l292 -23l5 59l-277 23c15 34 32 64 51 90c43 -25 79 -54 106 -86l62 21c-34 41 -79 76 -130 108c37 35 79 54 119 53
c26 0 34 -23 38 -90c14 12 35 22 52 27c-11 97 -34 125 -93 125c-63 0 -123 -31 -174 -84c-71 35 -149 62 -225 83c-7 -13 -29 -40 -43 -52c80 -18 160 -43 231 -75c-23 -33 -44 -72 -61 -115l-172 15zM686 525l37 -45c53 16 123 42 160 63l-37 51
c-36 -22 -106 -51 -160 -69zM377 290l43 15c-42 318 -156 528 -310 636c-10 -16 -36 -42 -52 -52c83 -55 152 -137 203 -248c-29 -29 -71 -59 -109 -82l39 -51c33 18 69 43 99 66c23 -64 41 -135 54 -213h-137c-31 97 -71 184 -121 250c-11 -13 -37 -42 -53 -56
c76 -95 124 -238 152 -398h-133v-68h386v68h-181c-8 47 -18 92 -30 136h137zM818 680l66 26c-40 48 -92 90 -153 125c43 39 90 61 137 60c29 0 38 -26 43 -103c15 13 37 23 55 28c-11 112 -36 142 -101 142c-73 0 -141 -34 -197 -92c-81 39 -171 69 -259 92
c-9 -15 -30 -46 -45 -60c91 -20 183 -47 262 -83c-27 -39 -50 -84 -69 -134l-166 13l-5 -64l153 -12c-9 -39 -16 -80 -19 -123h69c3 41 10 81 20 118l342 -26l6 63l-327 25c15 41 36 78 59 108c52 -29 97 -64 129 -103z" />
</svg>
