<?xml version="1.0" standalone="no"?>
<!DOCTYPE svg PUBLIC "-//W3C//DTD SVG 1.1//EN" "http://www.w3.org/Graphics/SVG/1.1/DTD/svg11.dtd" >
<svg xmlns="http://www.w3.org/2000/svg" xmlns:xlink="http://www.w3.org/1999/xlink" version="1.1" viewBox="-10 0 1010 1000">
   <path fill="currentColor"
d="M949 234l-51 24c-12 -41 -46 -105 -78 -152l49 -20c33 45 67 107 80 148zM336 170h140c-9 -31 -23 -69 -37 -98l59 -14c18 35 35 79 46 112h124v65h-332v-65zM302 300l39 13c-32 319 -125 533 -253 646c-10 -16 -33 -41 -48 -52c75 -62 135 -157 177 -283
c-22 -25 -52 -52 -80 -72l28 -52c25 16 50 37 72 57c15 -57 27 -119 35 -188h-94c-25 89 -58 169 -99 230c-9 -12 -33 -37 -48 -48c66 -96 107 -240 132 -397h-107v-69h295v69h-126c-9 51 -18 101 -29 148h94zM375 633l57 11c-19 92 -52 187 -90 248c-11 -9 -36 -24 -51 -31
c39 -58 68 -144 84 -228zM426 371v147h133v-147h-133zM618 576h-93v308c0 32 -5 50 -27 61c-20 11 -53 12 -105 12c-3 -18 -11 -43 -20 -61c38 1 71 1 81 1c10 -1 13 -3 13 -13v-308h-98v-262h249v262zM646 782l-49 24c-7 -43 -29 -110 -54 -161l46 -21c27 50 50 115 57 158
zM844 890h29c9 0 17 -1 21 -4c6 -4 10 -13 12 -29c2 -17 3 -56 4 -108c12 12 31 21 47 27c-1 45 -3 98 -8 117c-5 20 -14 31 -25 39c-11 7 -30 10 -45 10h-47c-18 0 -39 -4 -50 -16c-14 -11 -19 -27 -19 -89v-183c-24 108 -72 211 -160 303c-12 -14 -33 -31 -47 -41
c156 -159 174 -358 174 -542v-7h-78v-68h78v-255h58v255h166v68h-166v7c0 23 0 46 -1 69h32v403c0 22 2 36 6 40c4 3 11 4 19 4z" />
</svg>
