<?xml version="1.0" standalone="no"?>
<!DOCTYPE svg PUBLIC "-//W3C//DTD SVG 1.1//EN" "http://www.w3.org/Graphics/SVG/1.1/DTD/svg11.dtd" >
<svg xmlns="http://www.w3.org/2000/svg" xmlns:xlink="http://www.w3.org/1999/xlink" version="1.1" viewBox="-10 0 1010 1000">
   <path fill="currentColor"
d="M952 260l-57 25c-17 -45 -58 -114 -94 -166l53 -22c38 50 79 118 98 163zM719 267l-36 41c-15 -24 -45 -59 -75 -90c-19 39 -44 73 -72 100c-10 -10 -33 -28 -47 -36c61 -54 98 -137 114 -234l57 8c-7 40 -17 77 -29 112c34 33 70 73 88 99zM529 213l-34 42
c-11 -13 -30 -30 -51 -45c-19 41 -44 77 -71 105c-11 -9 -36 -25 -50 -33c59 -56 95 -140 111 -235l58 9c-7 37 -15 72 -28 106c24 16 50 36 65 51zM291 299l36 13c-33 322 -127 534 -256 646c-10 -16 -31 -42 -46 -51c76 -61 137 -154 180 -280c-24 -24 -54 -48 -81 -67
l29 -57c24 15 51 34 73 54c15 -58 28 -120 35 -188h-91c-23 89 -53 168 -91 230c-9 -12 -34 -37 -48 -48c62 -96 99 -240 122 -397h-105v-69h281v69h-115c-7 51 -16 100 -27 148h93zM711 799v26c18 -21 34 -45 48 -70c-17 -95 -27 -220 -33 -368h-104v67h82v51h-82v66h79v51
h-79v67h85v51h-85v70zM509 387v436l58 -7v-429h-58zM869 444l56 26c-21 109 -55 204 -100 285c16 75 37 118 65 120c15 0 26 -46 32 -121c11 17 36 36 48 44c-19 124 -51 160 -83 159c-50 -2 -84 -47 -109 -126c-38 54 -82 98 -131 134c-9 -11 -28 -28 -41 -37
c27 -21 53 -43 78 -70c-132 17 -265 35 -362 46l-10 -59l143 -15v-90h-94v-51h94v-67h-88v-51h88v-67h-91v-51h91v-66h-106v-63h375c-2 -86 -3 -180 -4 -279h66c0 100 1 193 3 279h153v63h-151c4 103 10 193 19 268c26 -64 46 -134 59 -211z" />
</svg>
