<?xml version="1.0" standalone="no"?>
<!DOCTYPE svg PUBLIC "-//W3C//DTD SVG 1.1//EN" "http://www.w3.org/Graphics/SVG/1.1/DTD/svg11.dtd" >
<svg xmlns="http://www.w3.org/2000/svg" xmlns:xlink="http://www.w3.org/1999/xlink" version="1.1" viewBox="-10 0 1010 1000">
   <path fill="currentColor"
d="M396 664v-104h-190v104h190zM206 830h190v-108h-190v108zM274 214v114h32c29 -36 55 -74 78 -114h-110zM463 891h-257v49h-69v-362c-21 15 -41 29 -62 41c-8 -14 -29 -43 -42 -56c79 -45 151 -101 216 -169h-197v-66h154v-114h-125v-62h125v-105h68v105h111v60
c24 -40 45 -84 63 -128l63 19c-35 81 -77 157 -125 225h120v45c66 -46 75 -102 75 -158v-135h270v234c0 26 1 34 13 34h50c11 0 29 -1 40 -4c1 17 3 43 5 60c-10 4 -29 5 -44 5h-56c-63 0 -76 -27 -76 -96v-167h-136v70c0 75 -18 163 -106 219c-6 -15 -23 -41 -35 -54v13
h-171c-31 37 -64 73 -99 105h227v392zM827 536h-208c25 70 59 131 102 185c45 -52 82 -113 106 -185zM871 465l46 18c-29 120 -80 216 -146 290c54 51 119 89 194 114c-15 16 -37 43 -47 64c-76 -30 -142 -72 -197 -127c-64 59 -141 102 -223 133c-8 -19 -26 -49 -41 -64
c80 -26 155 -67 217 -124c-52 -65 -91 -144 -120 -233h-34v-68h338z" />
</svg>
