<?xml version="1.0" standalone="no"?>
<!DOCTYPE svg PUBLIC "-//W3C//DTD SVG 1.1//EN" "http://www.w3.org/Graphics/SVG/1.1/DTD/svg11.dtd" >
<svg xmlns="http://www.w3.org/2000/svg" xmlns:xlink="http://www.w3.org/1999/xlink" version="1.1" viewBox="-10 0 1010 1000">
   <path fill="currentColor"
d="M652 150v74c0 75 -18 164 -107 222c-6 -17 -27 -48 -38 -59c71 -47 81 -108 81 -165v-139h264v234c0 26 1 34 13 34h48c11 0 29 -1 39 -4c1 17 3 43 6 59c-11 4 -29 5 -44 5h-55c-61 0 -73 -27 -73 -95v-166h-134zM302 506v128h86v-128h-86zM158 634h89v-128h-79v-60h79
v-112h55v112h86v-112h56v112h60v60h-60v128h83v61h-369v-61zM441 140h-275v110h275v-110zM166 310v116c0 147 -11 359 -84 500c-11 -12 -40 -31 -56 -38c68 -133 74 -323 74 -462v-345h410v229h-344zM251 730l63 16c-24 73 -63 150 -102 201c-12 -11 -38 -29 -55 -38
c40 -46 74 -113 94 -179zM372 747l55 -23c36 45 73 105 90 145l-59 28c-16 -42 -52 -104 -86 -150zM833 536h-211c24 73 59 139 104 195c46 -54 83 -120 107 -195zM874 465l41 17c-28 124 -78 223 -144 299c54 51 118 90 192 114c-14 14 -34 42 -44 60
c-75 -28 -140 -70 -195 -125c-58 56 -126 97 -199 126c-8 -18 -25 -47 -39 -61c71 -25 136 -63 193 -116c-52 -67 -93 -148 -121 -241l8 -2h-39v-68h334z" />
</svg>
