<?xml version="1.0" standalone="no"?>
<!DOCTYPE svg PUBLIC "-//W3C//DTD SVG 1.1//EN" "http://www.w3.org/Graphics/SVG/1.1/DTD/svg11.dtd" >
<svg xmlns="http://www.w3.org/2000/svg" xmlns:xlink="http://www.w3.org/1999/xlink" version="1.1" viewBox="-10 0 1010 1000">
   <path fill="currentColor"
d="M658 146v58c0 75 -17 169 -101 230c-7 -16 -30 -48 -42 -57c70 -52 79 -117 79 -175v-122h264v234c0 26 1 34 13 34h47c11 0 28 -1 39 -4c1 17 3 43 5 60c-10 4 -28 5 -43 5h-54c-60 0 -72 -27 -72 -96v-167h-135zM837 536h-206c25 72 58 135 102 189
c44 -53 80 -116 104 -189zM879 465l43 18c-29 122 -78 218 -141 294c54 51 118 90 193 115c-16 16 -35 44 -46 65c-76 -30 -140 -74 -195 -130c-61 58 -134 101 -211 132c-7 -18 -22 -43 -36 -60h-418v-809h434v64h-368v680h378v50c64 -25 123 -63 174 -111
c-50 -66 -90 -146 -118 -237h-34v-68h332zM403 397v-125h-146v125h146zM458 222v224h-255v-224h255zM211 563v153h60v-153h-60zM169 766v-253h144v253h-144zM460 717v-152h-67v152h67zM502 515v251h-151v-251h151z" />
</svg>
