<?xml version="1.0" standalone="no"?>
<!DOCTYPE svg PUBLIC "-//W3C//DTD SVG 1.1//EN" "http://www.w3.org/Graphics/SVG/1.1/DTD/svg11.dtd" >
<svg xmlns="http://www.w3.org/2000/svg" xmlns:xlink="http://www.w3.org/1999/xlink" version="1.1" viewBox="-10 0 1010 1000">
   <path fill="currentColor"
d="M906 210h-630c-40 62 -90 122 -151 176c-14 -16 -41 -36 -61 -46c106 -86 179 -203 217 -297l79 14c-13 28 -27 57 -43 86h589v67zM509 747h212c7 -43 13 -97 18 -165h-206c-8 60 -16 117 -24 165zM464 582h-192c-10 59 -20 115 -29 165h197c8 -48 16 -105 24 -165z
M488 364h-183c-7 48 -14 99 -22 150h189c6 -52 12 -103 16 -150zM541 514h203c4 -45 7 -95 9 -150h-195c-5 47 -10 99 -17 150zM958 582h-146c-5 66 -11 121 -17 165h134v66h-145c-11 52 -22 82 -37 99c-20 25 -43 33 -74 35c-32 3 -86 2 -140 -1c0 -18 -7 -42 -18 -59
c56 6 107 6 127 6s31 -3 40 -15c10 -10 20 -31 28 -65h-557c15 -62 31 -144 45 -231h-149v-68h160c12 -75 24 -151 31 -216h588s-1 27 -1 36c-4 67 -7 127 -11 180h142v68z" />
</svg>
