<?xml version="1.0" standalone="no"?>
<!DOCTYPE svg PUBLIC "-//W3C//DTD SVG 1.1//EN" "http://www.w3.org/Graphics/SVG/1.1/DTD/svg11.dtd" >
<svg xmlns="http://www.w3.org/2000/svg" xmlns:xlink="http://www.w3.org/1999/xlink" version="1.1" viewBox="-10 0 1010 1000">
   <path fill="currentColor"
d="M460 286v-84h-393v-64h393v-95h75v95h400v64h-400v84h328v64h-721v-64h318zM479 758h232c5 -31 9 -70 13 -117h-207c-8 42 -21 82 -38 117zM448 641h-197c-8 41 -17 82 -24 117h172c23 -34 39 -74 49 -117zM471 464h-188c-7 38 -14 77 -21 116h198c5 -36 8 -75 11 -116z
M528 580h202c2 -35 5 -73 7 -116h-197c-3 41 -6 80 -12 116zM956 641h-160c-4 45 -8 85 -12 117h132v59h-142c-10 55 -22 85 -37 102c-20 23 -40 30 -71 33c-27 2 -75 1 -125 -1c-1 -20 -9 -48 -20 -66c50 4 96 5 116 5c19 0 28 -2 38 -13c9 -9 18 -28 26 -60h-260
c-48 59 -118 106 -223 140c-7 -16 -27 -40 -41 -54c75 -22 130 -51 171 -86h-208c13 -48 27 -110 40 -176h-135v-61h147c12 -60 23 -122 31 -175h589s-1 25 -2 34c-3 52 -6 99 -10 141h156v61z" />
</svg>
