<?xml version="1.0" standalone="no"?>
<!DOCTYPE svg PUBLIC "-//W3C//DTD SVG 1.1//EN" "http://www.w3.org/Graphics/SVG/1.1/DTD/svg11.dtd" >
<svg xmlns="http://www.w3.org/2000/svg" xmlns:xlink="http://www.w3.org/1999/xlink" version="1.1" viewBox="-10 0 1010 1000">
   <path fill="currentColor"
d="M965 577l-66 21c-18 -93 -66 -237 -113 -346l63 -19c50 108 99 250 116 344zM730 44v642c0 42 -9 62 -35 74c-27 12 -69 14 -131 14c-3 -20 -15 -51 -25 -71c47 2 89 1 102 1c14 -1 18 -4 18 -17v-643h71zM534 242l67 12c-21 131 -59 261 -105 346
c-13 -10 -44 -25 -61 -32c48 -81 79 -204 99 -326zM399 863h385c81 0 97 -22 107 -121c17 11 48 22 69 26c-15 123 -43 161 -175 161h-381c-151 0 -197 -30 -197 -150v-141l-157 33l-10 -66l167 -33v-162l-141 29l-10 -64l151 -32v-158c-49 15 -99 30 -147 42
c-4 -16 -15 -41 -24 -56c123 -33 261 -82 339 -130l54 56c-43 23 -95 44 -151 64v168l138 -29l10 64l-148 31v162l150 -30l10 64l-160 33v156c0 67 18 83 121 83z" />
</svg>
