<?xml version="1.0" standalone="no"?>
<!DOCTYPE svg PUBLIC "-//W3C//DTD SVG 1.1//EN" "http://www.w3.org/Graphics/SVG/1.1/DTD/svg11.dtd" >
<svg xmlns="http://www.w3.org/2000/svg" xmlns:xlink="http://www.w3.org/1999/xlink" version="1.1" viewBox="-10 0 1010 1000">
   <path fill="currentColor"
d="M628 320v-126c-41 9 -82 17 -122 24c-3 -18 -13 -45 -21 -61c127 -24 274 -61 355 -99l57 57c-57 24 -128 46 -201 63v128l196 -39l7 65l-203 41v110l208 -41l7 65l-215 43v149c0 34 4 40 30 40h85c24 0 28 -24 31 -134c16 13 43 26 62 31c-7 136 -26 176 -88 176h-99
c-70 0 -89 -25 -89 -113v-135l-136 27l-9 -66l145 -28v-110l-136 28l-7 -67zM499 260l-52 36c-29 -54 -90 -144 -137 -211l48 -28c49 65 111 152 141 203zM242 206l66 23c-35 71 -79 142 -122 197l189 -17c-18 -35 -37 -71 -55 -101l52 -25c40 66 88 154 110 204l-55 31
c-7 -16 -15 -36 -25 -56c-245 24 -277 30 -297 39c-4 -15 -14 -46 -22 -63c16 -3 30 -18 48 -41c17 -22 76 -108 111 -191zM185 60l62 18c-39 93 -100 188 -158 250c-11 -11 -34 -36 -48 -47c57 -56 111 -139 144 -221zM173 521h66c-6 210 -29 353 -156 435
c-8 -16 -28 -41 -42 -53c110 -69 127 -193 132 -382zM494 873h323c65 0 76 -14 82 -95c17 10 44 20 64 23c-12 107 -35 134 -144 134h-322c-136 0 -172 -21 -172 -108v-306h65v306c0 37 15 46 104 46z" />
</svg>
