<?xml version="1.0" standalone="no"?>
<!DOCTYPE svg PUBLIC "-//W3C//DTD SVG 1.1//EN" "http://www.w3.org/Graphics/SVG/1.1/DTD/svg11.dtd" >
<svg xmlns="http://www.w3.org/2000/svg" xmlns:xlink="http://www.w3.org/1999/xlink" version="1.1" viewBox="-10 0 1010 1000">
   <path fill="currentColor"
d="M915 152l-51 33c-19 -28 -60 -72 -96 -103l48 -31c36 29 78 71 99 101zM826 305l64 11c-27 108 -64 204 -112 288c20 80 45 126 68 126c16 0 23 -35 27 -116c13 14 35 27 49 33c-5 62 -14 101 -30 123c18 10 45 19 64 22c-14 108 -41 142 -168 142h-391
c-153 0 -199 -30 -199 -150v-146l-147 32l-11 -66l158 -35v-158l-127 29l-11 -65l138 -30v-153c-45 14 -90 27 -133 39c-4 -15 -15 -38 -24 -53c120 -35 255 -84 330 -135l53 53c-44 25 -97 49 -155 71v163l132 -29l10 62l-142 32v159l164 -36l10 66l-174 38v163
c0 66 17 83 123 83h394c74 0 90 -17 100 -91c-12 11 -26 16 -45 16c-43 0 -78 -45 -106 -123c-43 61 -94 113 -151 157c-9 -13 -32 -37 -47 -50c70 -48 128 -111 175 -186c-21 -91 -36 -208 -45 -339h-251v-62h248c-3 -47 -4 -95 -5 -145h65c0 50 1 99 3 145h219v62h-216
c5 97 15 183 27 255c29 -62 52 -129 69 -202zM512 292h62v133h93v61h-94c-5 102 -27 206 -116 289c-11 -15 -32 -37 -47 -48c75 -70 95 -158 101 -241h-93v-61h94v-133z" />
</svg>
