<?xml version="1.0" standalone="no"?>
<!DOCTYPE svg PUBLIC "-//W3C//DTD SVG 1.1//EN" "http://www.w3.org/Graphics/SVG/1.1/DTD/svg11.dtd" >
<svg xmlns="http://www.w3.org/2000/svg" xmlns:xlink="http://www.w3.org/1999/xlink" version="1.1" viewBox="-10 0 1010 1000">
   <path fill="currentColor"
d="M615 244h-121c-21 40 -43 77 -67 106c-13 -12 -42 -29 -60 -38c53 -59 93 -148 118 -236l67 15c-8 30 -18 61 -30 89h93v-137h72v137h197v64h-197v156h242v65h-183v237c0 24 4 27 25 27h69c20 0 24 -14 26 -112c15 12 43 24 64 29c-7 121 -26 152 -84 152h-84
c-70 0 -86 -21 -86 -95v-238h-88c-17 163 -63 283 -225 352c-9 -17 -28 -44 -44 -57c146 -57 183 -158 197 -295h-152v-65h251v-156zM377 875h422c69 0 85 -12 93 -65c17 9 46 18 66 22c-12 80 -36 104 -157 104h-417c-156 0 -203 -29 -203 -146v-155l-128 28l-13 -65
l141 -29v-165l-119 26l-13 -64l132 -29v-147c-33 12 -67 22 -98 29c-8 -13 -26 -39 -41 -52c99 -24 221 -70 288 -115l49 48c-35 23 -80 45 -129 64v159l110 -23l13 64l-123 26v164l135 -28l13 63l-148 31v171c0 65 17 84 127 84z" />
</svg>
