<?xml version="1.0" standalone="no"?>
<!DOCTYPE svg PUBLIC "-//W3C//DTD SVG 1.1//EN" "http://www.w3.org/Graphics/SVG/1.1/DTD/svg11.dtd" >
<svg xmlns="http://www.w3.org/2000/svg" xmlns:xlink="http://www.w3.org/1999/xlink" version="1.1" viewBox="-10 0 1010 1000">
   <path fill="currentColor"
d="M191 749h253v-68h-253v68zM444 563h-253v66h253v-66zM512 509v375c0 35 -7 51 -31 62c-23 10 -58 10 -113 10c-3 -17 -12 -42 -21 -59c38 1 73 1 82 0c11 0 15 -3 15 -13v-81h-253v154h-68v-448h389zM780 879h91c24 0 28 -26 31 -133c16 13 42 25 62 30
c-7 126 -24 168 -88 168h-105c-71 0 -90 -23 -90 -108v-180l-132 23l-8 -66l140 -24v-162l-115 21l-9 -68l124 -21v-155c-37 12 -74 24 -110 33c-5 -14 -16 -39 -26 -55v23h-306c-7 21 -16 41 -25 61h279v55h-120v79h169v55h-406v-55h170v-79h-104v-30
c-31 60 -69 113 -113 155c-10 -13 -37 -37 -51 -48c55 -49 98 -115 129 -193h-112v-59h134c10 -32 19 -68 26 -103l68 11c-7 31 -15 63 -24 92h286v34c112 -32 235 -80 302 -130l65 51c-45 28 -102 55 -163 78v168l175 -30l8 66l-183 33v162l197 -34l9 66l-206 35v192
c0 35 4 42 31 42z" />
</svg>
