<?xml version="1.0" standalone="no"?>
<!DOCTYPE svg PUBLIC "-//W3C//DTD SVG 1.1//EN" "http://www.w3.org/Graphics/SVG/1.1/DTD/svg11.dtd" >
<svg xmlns="http://www.w3.org/2000/svg" xmlns:xlink="http://www.w3.org/1999/xlink" version="1.1" viewBox="-10 0 1010 1000">
   <path fill="currentColor"
d="M535 225l-50 36c-9 -13 -20 -27 -32 -43c-289 20 -322 24 -342 33c-3 -14 -13 -47 -21 -66c14 -3 28 -10 44 -23c18 -13 75 -62 112 -114l65 20c-36 42 -77 82 -117 113l213 -13c-19 -20 -40 -40 -58 -57l46 -31c48 42 110 104 140 145zM519 688l46 34
c-99 101 -292 196 -463 236c-6 -17 -19 -43 -32 -57c169 -32 360 -119 449 -213zM336 517l42 28c-55 58 -164 116 -259 144c-6 -15 -21 -36 -34 -48c93 -20 200 -71 251 -124zM422 603l45 30c-73 76 -216 150 -343 182c-6 -15 -20 -40 -32 -54c123 -23 265 -89 330 -158z
M776 874h85c25 0 30 -31 33 -163c16 13 43 26 61 31c-5 145 -21 192 -90 192h-99c-72 0 -90 -24 -90 -105v-197l-118 21l-11 -66l129 -23v-152l-102 17l-3 -16l-43 23c-5 -12 -12 -27 -20 -42c-100 13 -134 18 -150 23c75 40 165 92 214 127l-39 53
c-51 -39 -151 -99 -228 -143c-58 55 -137 102 -239 140c-5 -17 -21 -43 -33 -55c104 -33 184 -81 233 -130l-13 5c-1 -5 -3 -9 -5 -15c-148 24 -170 30 -184 38c-2 -13 -11 -43 -17 -59c10 -1 19 -10 29 -21c11 -14 45 -63 65 -113l56 18c-20 39 -45 77 -70 107l102 -13
c-9 -19 -18 -39 -27 -55l43 -17c17 28 36 67 47 95l47 12c-3 -10 -7 -20 -10 -27c9 -3 16 -9 22 -21s26 -59 33 -105l54 18c-10 36 -26 72 -40 101l85 -9c-10 -17 -21 -35 -30 -49l42 -20c27 40 60 94 75 130l-8 -45l114 -18v-133c-34 10 -70 19 -102 26
c-8 -15 -23 -40 -38 -54c112 -24 255 -71 333 -120l45 50c-45 28 -105 53 -169 76v143l173 -28l10 64l-183 31v152l190 -33l12 65l-202 35v209c0 38 5 45 31 45z" />
</svg>
