<?xml version="1.0" standalone="no"?>
<!DOCTYPE svg PUBLIC "-//W3C//DTD SVG 1.1//EN" "http://www.w3.org/Graphics/SVG/1.1/DTD/svg11.dtd" >
<svg xmlns="http://www.w3.org/2000/svg" xmlns:xlink="http://www.w3.org/1999/xlink" version="1.1" viewBox="-10 0 1010 1000">
   <path fill="currentColor"
d="M236 152l-54 25c-14 -28 -48 -69 -79 -100l52 -22c32 27 67 68 81 97zM442 52l57 16c-22 41 -57 89 -86 120c-12 -8 -36 -24 -51 -30c31 -31 61 -70 80 -106zM154 239v285h-60v-336h176v-142h66v142h179v267c0 31 -5 47 -28 57c-22 9 -57 10 -110 10
c-2 -17 -10 -39 -18 -55c39 1 71 1 82 0c10 0 13 -3 13 -12v-216h-300zM352 410v-79h-99v79h99zM206 286h196v169h-196v-169zM582 878h235c47 0 56 -11 60 -76c18 10 46 19 67 23c-10 90 -33 114 -121 114h-244c-115 0 -147 -20 -147 -99v-20l-367 35l-7 -52l374 -35v-59
l-315 31l-6 -52l321 -31v-57c-92 11 -186 19 -275 26c-2 -14 -10 -35 -16 -48c212 -17 461 -46 594 -81l54 43c-79 19 -178 37 -284 51v60l344 -34l6 52l-350 33v59l427 -41l7 51l-434 42v27c0 31 12 38 77 38zM655 202l-2 5c20 45 49 87 83 124c37 -36 67 -78 86 -129h-167
zM948 202h-58c-25 68 -62 125 -109 171c51 44 111 78 176 98c-15 13 -34 35 -43 52c-65 -25 -126 -63 -178 -111c-53 41 -114 72 -182 95c-7 -13 -25 -42 -36 -54c66 -21 125 -48 174 -85c-28 -32 -53 -67 -73 -105c-16 23 -33 45 -50 63c-11 -10 -36 -31 -50 -40
c59 -60 107 -150 135 -242l61 13c-8 29 -20 59 -32 87h265v58z" />
</svg>
