<?xml version="1.0" standalone="no"?>
<!DOCTYPE svg PUBLIC "-//W3C//DTD SVG 1.1//EN" "http://www.w3.org/Graphics/SVG/1.1/DTD/svg11.dtd" >
<svg xmlns="http://www.w3.org/2000/svg" xmlns:xlink="http://www.w3.org/1999/xlink" version="1.1" viewBox="-10 0 1010 1000">
   <path fill="currentColor"
d="M45 932l-5 -63c112 -7 283 -21 448 -35v60c-160 14 -327 28 -443 38zM330 401v-47h-96v47h96zM377 319v117h-189v-117h189zM423 469v-184h-282v184h282zM485 237v280h-404v-280h404zM175 700v56h215v-56h-215zM175 602v56h215v-56h-215zM454 799h-341v-240h341v240z
M327 122l-15 7h200v61h-462v-61h206c-10 -23 -24 -48 -38 -69l61 -24c19 26 40 62 48 86zM768 872h98c27 0 32 -26 35 -140c17 14 43 27 63 33c-7 136 -26 180 -93 180h-112c-74 0 -94 -26 -94 -120v-176l-146 30l-6 -68l152 -30v-160l-135 27l-7 -68l142 -28v-154
c-39 10 -78 18 -115 25c-4 -15 -14 -42 -22 -59c119 -24 254 -63 329 -105l57 56c-51 24 -114 45 -180 64v159l190 -37l7 67l-197 39v160l209 -41l8 66l-217 43v191c0 39 5 46 34 46z" />
</svg>
