<?xml version="1.0" standalone="no"?>
<!DOCTYPE svg PUBLIC "-//W3C//DTD SVG 1.1//EN" "http://www.w3.org/Graphics/SVG/1.1/DTD/svg11.dtd" >
<svg xmlns="http://www.w3.org/2000/svg" xmlns:xlink="http://www.w3.org/1999/xlink" version="1.1" viewBox="-10 0 1010 1000">
   <path fill="currentColor"
d="M534 762h267v-54h-267v54zM801 610h-267v52h267v-52zM874 838h-73v-28h-267v30h-71v-278h411v276zM459 442l51 20c-22 35 -52 75 -87 103l-52 -27c34 -22 68 -64 88 -96zM555 456l53 -10c10 28 20 67 24 90l-54 12c-4 -23 -14 -63 -23 -92zM680 457l51 -14
c18 28 37 65 45 88l-53 18c-8 -24 -26 -64 -43 -92zM948 534l-49 30c-20 -27 -58 -70 -90 -102l47 -24c34 30 72 71 92 96zM705 141h-147c-14 20 -31 39 -48 58h149c15 -17 32 -37 46 -58zM831 292v-51h-133v51h133zM831 385v-51h-133v51h133zM502 334v51h128v-51h-128z
M502 241v51h128v-51h-128zM432 428v-156c-7 5 -13 11 -20 16c-11 -13 -34 -29 -51 -36c88 -64 152 -147 188 -213l69 10c-9 15 -17 29 -27 45h152l15 -3l43 27c-20 28 -43 56 -68 81h170v229h-471zM372 872h415c80 0 96 -19 107 -104c18 11 48 22 70 26
c-15 110 -42 144 -176 144h-410c-158 0 -207 -30 -207 -153v-138l-121 25l-10 -67l131 -27v-166l-111 25l-12 -66l123 -26v-162c-36 11 -73 20 -108 27c-7 -15 -22 -40 -35 -55c106 -19 231 -59 296 -107l44 47c-32 24 -77 46 -126 65v169l110 -23l10 63l-120 28v165
l126 -26l11 65l-137 30v154c0 69 19 87 130 87z" />
</svg>
