<?xml version="1.0" standalone="no"?>
<!DOCTYPE svg PUBLIC "-//W3C//DTD SVG 1.1//EN" "http://www.w3.org/Graphics/SVG/1.1/DTD/svg11.dtd" >
<svg xmlns="http://www.w3.org/2000/svg" xmlns:xlink="http://www.w3.org/1999/xlink" version="1.1" viewBox="-10 0 1010 1000">
   <path fill="currentColor"
d="M444 157v-40h-99v40h99zM444 242v-41h-99v41h99zM189 201v41h97v-41h-97zM189 117v40h97v-40h-97zM507 71v217h-379v-217h379zM252 410v-41h-51v41h51zM252 494v-43h-51v43h51zM112 451v43h48v-43h-48zM112 369v41h48v-41h-48zM381 451v43h50v-43h-50zM381 369v41h50v-41
h-50zM524 410v-41h-52v41h52zM524 494v-43h-52v43h52zM119 633v73h-57v-123h244c-9 -14 -19 -27 -29 -39l17 -7h-226v-211h229v210l31 -14l8 9v-205h234v211h-228c12 16 24 32 32 46h202v123h-59v-73h-398zM462 681l48 14c-33 60 -69 126 -102 177h178v54h-539v-54h293
c27 -39 57 -92 82 -141h-191c-30 43 -61 84 -88 116c-10 -9 -33 -24 -48 -31c48 -50 97 -120 133 -182l54 18c-6 10 -13 21 -21 32h189zM216 776l34 -34c36 18 81 47 104 69l-35 36c-22 -21 -67 -51 -103 -71zM782 875h80c22 0 26 -26 29 -133c16 12 42 25 62 29
c-7 127 -24 168 -85 168h-95c-68 0 -87 -22 -87 -105v-182l-90 19l-12 -66l102 -22v-163l-83 20l-14 -66l97 -22v-154c-32 12 -66 21 -97 31c-4 -15 -16 -41 -25 -56c106 -33 225 -80 291 -126l62 52c-47 27 -103 53 -163 75v162l164 -37l13 64l-177 42v163l193 -42l12 65
l-205 45v198c0 35 4 41 28 41z" />
</svg>
