<?xml version="1.0" standalone="no"?>
<!DOCTYPE svg PUBLIC "-//W3C//DTD SVG 1.1//EN" "http://www.w3.org/Graphics/SVG/1.1/DTD/svg11.dtd" >
<svg xmlns="http://www.w3.org/2000/svg" xmlns:xlink="http://www.w3.org/1999/xlink" version="1.1" viewBox="-10 0 1010 1000">
   <path fill="currentColor"
d="M928 188h-658c-46 66 -99 125 -152 168c-14 -12 -46 -36 -65 -47c88 -63 168 -161 213 -265l75 19c-10 23 -22 45 -35 67h622v58zM857 328h-606v-57h606v57zM217 590v-54h71v56c0 112 -37 260 -182 361c-11 -14 -40 -39 -56 -48c139 -93 167 -220 167 -315zM466 943v-407
h72v407h-72zM147 414h641c-1 322 3 471 92 471c21 0 27 -59 29 -141c15 16 35 34 51 44c-6 125 -22 168 -84 168c-147 0 -159 -150 -162 -482h-567v-60z" />
</svg>
