<?xml version="1.0" standalone="no"?>
<!DOCTYPE svg PUBLIC "-//W3C//DTD SVG 1.1//EN" "http://www.w3.org/Graphics/SVG/1.1/DTD/svg11.dtd" >
<svg xmlns="http://www.w3.org/2000/svg" xmlns:xlink="http://www.w3.org/1999/xlink" version="1.1" viewBox="-10 0 1010 1000">
   <path fill="currentColor"
d="M928 197h-668c-46 76 -100 142 -155 192c-13 -14 -47 -35 -65 -46c90 -70 169 -183 215 -300l74 19c-11 25 -22 49 -35 74h634v61zM850 319h-594v-58h594v58zM580 822v-266h68v384h-68v-51h-459v-332h68v265h160v-338h68v338h163zM156 383h630c4 254 23 495 93 495
c17 0 23 -56 25 -142c14 17 34 34 50 43c-6 124 -22 172 -80 172c-127 0 -152 -218 -161 -507h-557v-61z" />
</svg>
