<?xml version="1.0" standalone="no"?>
<!DOCTYPE svg PUBLIC "-//W3C//DTD SVG 1.1//EN" "http://www.w3.org/Graphics/SVG/1.1/DTD/svg11.dtd" >
<svg xmlns="http://www.w3.org/2000/svg" xmlns:xlink="http://www.w3.org/1999/xlink" version="1.1" viewBox="-10 0 1010 1000">
   <path fill="currentColor"
d="M929 188h-660c-47 82 -104 154 -162 207c-15 -13 -47 -35 -67 -46c90 -73 170 -187 216 -305l75 18c-9 23 -20 45 -31 68h629v58zM850 302h-594v-57h594v57zM556 803l-41 33c-27 -31 -74 -76 -121 -112c-25 54 -65 93 -133 121c-6 -13 -21 -33 -32 -42
c76 -29 114 -74 131 -143h-117v-49h126c3 -22 5 -45 6 -71h52c-1 26 -3 49 -5 71h130v49h-139c-1 6 -2 12 -4 17c53 37 115 90 147 126zM590 530h-387v327h387v-327zM136 955v-481h524v476h-70v-38h-387v43h-67zM147 359h646c3 269 23 525 96 525c18 0 24 -59 26 -147
c15 17 35 34 50 43c-6 129 -22 177 -81 177c-131 0 -155 -232 -164 -538h-573v-60z" />
</svg>
