<?xml version="1.0" standalone="no"?>
<!DOCTYPE svg PUBLIC "-//W3C//DTD SVG 1.1//EN" "http://www.w3.org/Graphics/SVG/1.1/DTD/svg11.dtd" >
<svg xmlns="http://www.w3.org/2000/svg" xmlns:xlink="http://www.w3.org/1999/xlink" version="1.1" viewBox="-10 0 1010 1000">
   <path fill="currentColor"
d="M928 182h-667c-46 73 -102 139 -158 188c-12 -12 -43 -33 -60 -43c87 -68 165 -172 211 -283l70 17c-10 23 -21 45 -32 67h636v54zM853 280h-584v-49h584v49zM89 535v-57h283c-8 -22 -18 -44 -26 -64l64 -21c14 26 28 60 37 85h241v57h-292c-43 34 -90 64 -135 89l191 -8
c19 -15 36 -31 49 -47l56 23c-90 109 -254 186 -429 229c-7 -15 -23 -37 -35 -50c102 -22 203 -57 283 -103c-176 9 -201 14 -218 21c-3 -14 -11 -45 -18 -62c15 -2 35 -10 57 -22c16 -9 62 -36 106 -70h-214zM598 642l59 28c-34 44 -78 83 -128 118c65 34 140 78 184 110
l-45 51c-43 -34 -126 -87 -197 -125c-100 59 -222 103 -350 133c-8 -17 -23 -39 -37 -55c216 -44 413 -133 514 -260zM155 332h629c4 286 25 556 105 556c19 0 25 -61 27 -153c14 16 33 33 49 42c-7 132 -23 181 -82 181c-134 0 -160 -246 -169 -573h-559v-53z" />
</svg>
