<?xml version="1.0" standalone="no"?>
<!DOCTYPE svg PUBLIC "-//W3C//DTD SVG 1.1//EN" "http://www.w3.org/Graphics/SVG/1.1/DTD/svg11.dtd" >
<svg xmlns="http://www.w3.org/2000/svg" xmlns:xlink="http://www.w3.org/1999/xlink" version="1.1" viewBox="-10 0 1010 1000">
   <path fill="currentColor"
d="M197 751v114h92v-114h-92zM434 751h-93v114h93v-114zM580 751h-94v114h94v-114zM642 700v165h78v57h-661v-57h78v-165h505zM553 613v-136h-170l39 5c-4 15 -10 29 -18 42c38 18 82 44 106 62l-26 27h69zM303 613h171c-23 -17 -60 -40 -93 -58c-21 24 -49 44 -78 58z
M232 477v136h68c-8 -9 -24 -22 -36 -30c55 -23 95 -58 111 -106h-143zM174 431h441v228h-441v-228zM157 336h628c5 283 26 551 104 550c19 0 25 -60 27 -152c14 16 34 33 49 42c-6 132 -22 181 -81 181c-135 0 -161 -243 -169 -566h-559v-54c-16 18 -33 34 -49 49
c-14 -12 -46 -33 -64 -44c89 -71 168 -182 213 -298l73 19c-9 23 -20 45 -31 67h629v53h-658c-33 56 -72 109 -112 153zM853 282h-583v-48h583v48z" />
</svg>
