<?xml version="1.0" standalone="no"?>
<!DOCTYPE svg PUBLIC "-//W3C//DTD SVG 1.1//EN" "http://www.w3.org/Graphics/SVG/1.1/DTD/svg11.dtd" >
<svg xmlns="http://www.w3.org/2000/svg" xmlns:xlink="http://www.w3.org/1999/xlink" version="1.1" viewBox="-10 0 1010 1000">
   <path fill="currentColor"
d="M684 174l-38 69c-81 -46 -242 -106 -366 -137l36 -61c122 29 284 83 368 129zM342 438l49 22c-51 204 -166 352 -294 434c-11 -16 -41 -44 -58 -56c110 -65 208 -180 258 -326h-238v-71h270zM859 320l67 48c-78 73 -180 159 -263 217c74 110 173 195 297 242
c-16 15 -40 44 -51 65c-168 -73 -288 -208 -367 -385v354c0 45 -11 68 -43 80s-85 13 -168 13c-3 -20 -15 -53 -27 -74c61 3 120 3 136 2c18 -1 24 -6 24 -22v-540h-275v-72h353v74c22 74 50 144 86 208c79 -60 173 -145 231 -210z" />
</svg>
