<?xml version="1.0" standalone="no"?>
<!DOCTYPE svg PUBLIC "-//W3C//DTD SVG 1.1//EN" "http://www.w3.org/Graphics/SVG/1.1/DTD/svg11.dtd" >
<svg xmlns="http://www.w3.org/2000/svg" xmlns:xlink="http://www.w3.org/1999/xlink" version="1.1" viewBox="-10 0 1010 1000">
   <path fill="currentColor"
d="M359 172l44 19c-53 176 -180 288 -321 346c-9 -17 -28 -43 -42 -55c111 -41 218 -126 272 -242h-234v-65h268zM460 527h76c-1 7 -2 13 -4 19c25 129 89 290 420 347c-15 18 -32 46 -40 67c-263 -50 -365 -172 -414 -292c-54 133 -161 238 -411 291
c-7 -18 -25 -47 -39 -62c314 -62 381 -204 412 -370zM843 109l60 45c-70 53 -162 113 -237 153c76 75 174 129 293 158c-15 15 -36 44 -46 65c-169 -49 -295 -151 -377 -293v202c0 39 -8 56 -36 66s-72 11 -140 11c-4 -19 -15 -44 -23 -62c49 1 96 1 108 1
c14 -1 19 -4 19 -17v-395h72v63c23 57 53 110 90 157c72 -42 162 -106 217 -154z" />
</svg>
