<?xml version="1.0" standalone="no"?>
<!DOCTYPE svg PUBLIC "-//W3C//DTD SVG 1.1//EN" "http://www.w3.org/Graphics/SVG/1.1/DTD/svg11.dtd" >
<svg xmlns="http://www.w3.org/2000/svg" xmlns:xlink="http://www.w3.org/1999/xlink" version="1.1" viewBox="-10 0 1010 1000">
   <path fill="currentColor"
d="M269 429l-42 61c-40 -33 -120 -80 -185 -108l42 -55c61 27 144 70 185 102zM139 942l-63 -49c53 -77 129 -207 185 -320l55 48c-51 104 -120 229 -177 321zM96 109l42 -54c65 26 147 71 190 105l-44 60c-40 -34 -122 -82 -188 -111zM847 270h73v685h-73v-61h-489v-620h73
v550h168v-769h74v769h174v-554z" />
</svg>
