<?xml version="1.0" standalone="no"?>
<!DOCTYPE svg PUBLIC "-//W3C//DTD SVG 1.1//EN" "http://www.w3.org/Graphics/SVG/1.1/DTD/svg11.dtd" >
<svg xmlns="http://www.w3.org/2000/svg" xmlns:xlink="http://www.w3.org/1999/xlink" version="1.1" viewBox="-10 0 1010 1000">
   <path fill="currentColor"
d="M310 161l-43 60c-36 -37 -110 -85 -172 -115l41 -53c61 27 138 72 174 108zM260 420l-43 62c-37 -35 -112 -80 -176 -108l41 -54c62 25 140 67 178 100zM239 576l56 46c-47 104 -108 228 -161 320l-64 -47c49 -76 118 -206 169 -319zM814 493h-343c37 89 94 168 166 231
c75 -61 136 -138 177 -231zM864 421l48 26c-46 135 -123 241 -218 323c78 57 172 99 277 125c-18 14 -38 45 -49 65c-111 -30 -208 -79 -289 -143c-91 64 -194 110 -303 141c-8 -18 -31 -49 -47 -63c107 -28 207 -69 294 -127c-73 -70 -131 -156 -173 -255l60 -20h-136v-69
h267v-156h-280v-70h280v-152h74v152h287v70h-287v156h181z" />
</svg>
