<?xml version="1.0" standalone="no"?>
<!DOCTYPE svg PUBLIC "-//W3C//DTD SVG 1.1//EN" "http://www.w3.org/Graphics/SVG/1.1/DTD/svg11.dtd" >
<svg xmlns="http://www.w3.org/2000/svg" xmlns:xlink="http://www.w3.org/1999/xlink" version="1.1" viewBox="-10 0 1010 1000">
   <path fill="currentColor"
d="M332 160l-43 62c-41 -34 -127 -83 -192 -114l40 -54c66 28 151 73 195 106zM269 427l-41 62c-40 -33 -120 -79 -183 -109l39 -54c63 26 144 69 185 101zM262 574l54 49c-52 105 -121 229 -180 322l-63 -50c54 -77 133 -208 189 -321zM953 388h-264
c48 222 137 416 278 512c-16 12 -40 39 -52 58c-143 -105 -233 -297 -285 -527c-19 109 -52 219 -111 317l7 -7c65 41 140 101 176 142l-51 55c-35 -41 -102 -100 -163 -143c-44 61 -100 116 -171 160c-12 -16 -36 -38 -56 -51c198 -117 274 -320 303 -516h-248v-73h257
c10 -99 10 -193 11 -269h74c-1 78 -2 171 -12 269h307v73z" />
</svg>
