<?xml version="1.0" standalone="no"?>
<!DOCTYPE svg PUBLIC "-//W3C//DTD SVG 1.1//EN" "http://www.w3.org/Graphics/SVG/1.1/DTD/svg11.dtd" >
<svg xmlns="http://www.w3.org/2000/svg" xmlns:xlink="http://www.w3.org/1999/xlink" version="1.1" viewBox="-10 0 1010 1000">
   <path fill="currentColor"
d="M319 159l-43 62c-40 -36 -122 -83 -188 -112l41 -54c65 26 149 70 190 104zM271 428l-41 62c-41 -34 -120 -80 -185 -108l41 -56c63 26 144 69 185 102zM251 573l57 46c-50 105 -117 229 -171 322l-65 -48c52 -77 125 -207 179 -320zM717 179h-186c-4 71 -8 139 -15 202
c40 117 102 228 182 318c53 -70 95 -154 121 -254h-183c25 -70 57 -173 81 -266zM859 376l45 20c-31 145 -87 262 -158 355c61 59 132 106 209 137c-16 15 -39 43 -51 63c-76 -35 -146 -84 -206 -144c-62 65 -133 115 -209 152c-11 -18 -35 -46 -51 -57
c78 -35 151 -84 212 -147c-60 -70 -110 -152 -151 -241c-32 188 -89 335 -200 445c-12 -11 -46 -35 -63 -46c168 -150 209 -399 222 -734h-114v-71h464c-23 86 -53 189 -79 271h117z" />
</svg>
