<?xml version="1.0" standalone="no"?>
<!DOCTYPE svg PUBLIC "-//W3C//DTD SVG 1.1//EN" "http://www.w3.org/Graphics/SVG/1.1/DTD/svg11.dtd" >
<svg xmlns="http://www.w3.org/2000/svg" xmlns:xlink="http://www.w3.org/1999/xlink" version="1.1" viewBox="-10 0 1010 1000">
   <path fill="currentColor"
d="M314 159l-43 59c-37 -35 -114 -83 -177 -112l40 -54c64 27 142 71 180 107zM265 419l-42 62c-39 -34 -117 -79 -182 -106l41 -56c63 25 143 67 183 100zM240 572l57 46c-48 106 -111 230 -164 324l-64 -47c49 -78 119 -209 171 -323zM633 272v112c0 38 -1 77 -4 115h173
v-227h-169zM957 568h-277c49 155 143 272 285 327c-17 14 -41 43 -51 63c-149 -64 -245 -191 -299 -362c-30 138 -107 266 -294 362c-13 -15 -40 -41 -58 -53c183 -91 254 -209 281 -337h-235v-69h246c4 -38 5 -77 5 -116v-111h-197v-69h197v-158h73v158h241v296h83v69z" />
</svg>
