<?xml version="1.0" standalone="no"?>
<!DOCTYPE svg PUBLIC "-//W3C//DTD SVG 1.1//EN" "http://www.w3.org/Graphics/SVG/1.1/DTD/svg11.dtd" >
<svg xmlns="http://www.w3.org/2000/svg" xmlns:xlink="http://www.w3.org/1999/xlink" version="1.1" viewBox="-10 0 1010 1000">
   <path fill="currentColor"
d="M746 383v340c0 39 -9 58 -34 70c-25 11 -66 13 -128 13c-3 -19 -15 -48 -24 -66c47 1 89 1 101 0c14 0 18 -4 18 -17v-668h67v211c15 23 29 45 44 69c34 -36 73 -82 96 -118l56 36c-37 47 -83 96 -122 132c58 100 109 204 133 280l-63 28c-23 -81 -80 -202 -144 -310z
M622 253l39 15c-35 204 -115 359 -213 447c-11 -14 -34 -38 -50 -47c85 -72 155 -195 189 -348h-114v-65h137zM385 287h-90c-10 269 -46 516 -198 667c-12 -17 -36 -38 -55 -49c142 -135 176 -366 184 -618h-98v111h-61v-175h161c1 -59 2 -118 2 -177h69c0 59 -1 118 -2 177
h152v175h-64v-111zM463 870h335c70 0 82 -17 91 -114c17 12 45 22 66 26c-13 121 -39 153 -156 153h-334c-140 0 -179 -24 -179 -120v-378h68v378c0 44 15 55 109 55z" />
</svg>
