<?xml version="1.0" standalone="no"?>
<!DOCTYPE svg PUBLIC "-//W3C//DTD SVG 1.1//EN" "http://www.w3.org/Graphics/SVG/1.1/DTD/svg11.dtd" >
<svg xmlns="http://www.w3.org/2000/svg" xmlns:xlink="http://www.w3.org/1999/xlink" version="1.1" viewBox="-10 0 1010 1000">
   <path fill="currentColor"
d="M256 419l-43 60c-38 -28 -115 -74 -172 -105l43 -53c54 28 132 70 172 98zM134 943l-66 -45c47 -77 114 -206 163 -320l57 45c-45 105 -104 228 -154 320zM92 106l43 -52c55 30 132 76 171 104l-45 60c-37 -29 -113 -78 -169 -112zM718 884h85c20 0 41 -1 52 -4
c12 -3 22 -9 27 -23c4 -15 8 -48 9 -93c17 14 43 27 68 34c-2 40 -8 88 -18 108c-9 20 -25 32 -48 38c-22 6 -56 9 -85 9h-102c-28 0 -63 -5 -86 -18c-25 -14 -38 -33 -38 -119v-144h-228v-333h70v263h158v-351h-256v-70h256v-136h73v136h270v70h-270v351h160v-263h72v406
h-72v-73h-160v151c0 31 5 50 19 55c13 4 26 6 44 6z" />
</svg>
