<?xml version="1.0" standalone="no"?>
<!DOCTYPE svg PUBLIC "-//W3C//DTD SVG 1.1//EN" "http://www.w3.org/Graphics/SVG/1.1/DTD/svg11.dtd" >
<svg xmlns="http://www.w3.org/2000/svg" xmlns:xlink="http://www.w3.org/1999/xlink" version="1.1" viewBox="-10 0 1010 1000">
   <path fill="currentColor"
d="M293 171l-49 54c-33 -32 -99 -81 -152 -114l47 -47c52 29 120 76 154 107zM247 429l-49 53c-33 -34 -100 -84 -155 -117l47 -46c53 29 122 77 157 110zM131 934l-66 -42c44 -76 104 -205 148 -315l59 42c-40 102 -95 224 -141 315zM449 635l119 -72c2 19 11 49 16 63
c-165 108 -190 126 -205 143c-5 -18 -20 -52 -31 -67c15 -8 34 -26 34 -65v-262l-94 20l-10 -64l104 -23v-242h67v228l118 -26l10 65l-128 27v275zM930 111v40c-9 539 -14 708 -46 756c-17 28 -36 37 -63 41c-26 4 -65 4 -105 1c-1 -21 -8 -52 -19 -74c40 4 76 4 94 4
c13 0 22 -3 31 -19c22 -33 31 -198 39 -678h-123c-4 359 -20 630 -269 776c-10 -17 -33 -43 -50 -54c238 -131 249 -382 252 -722h-111v-71h370z" />
</svg>
