<?xml version="1.0" standalone="no"?>
<!DOCTYPE svg PUBLIC "-//W3C//DTD SVG 1.1//EN" "http://www.w3.org/Graphics/SVG/1.1/DTD/svg11.dtd" >
<svg xmlns="http://www.w3.org/2000/svg" xmlns:xlink="http://www.w3.org/1999/xlink" version="1.1" viewBox="-10 0 1010 1000">
   <path fill="currentColor"
d="M816 203h-282c-33 120 -86 214 -162 282c-13 -12 -45 -36 -63 -47c106 -83 158 -221 179 -395l76 10c-4 28 -8 55 -14 81h345s-1 21 -3 32c-12 173 -25 242 -51 270c-18 19 -37 24 -66 26c-26 2 -75 2 -126 -1c-2 -21 -11 -50 -23 -68c50 4 99 5 118 5c17 0 26 -1 35 -9
c17 -16 28 -66 37 -186zM319 161l-44 59c-38 -36 -116 -85 -180 -115l41 -53c64 27 143 72 183 109zM267 420l-41 62c-40 -34 -119 -80 -184 -109l40 -54c64 25 145 68 185 101zM252 574l55 47c-49 105 -115 229 -170 321l-63 -48c51 -77 123 -207 178 -320zM796 575h-297
c35 65 84 123 146 172c63 -46 115 -104 151 -172zM849 505l48 21c-40 111 -107 197 -191 264c74 46 160 80 255 100c-17 15 -38 46 -48 66c-101 -26 -192 -67 -270 -122c-93 58 -200 97 -312 121c-6 -19 -23 -50 -37 -66c103 -18 203 -52 290 -102
c-63 -55 -115 -120 -154 -195l49 -17h-116v-67h472z" />
</svg>
