<?xml version="1.0" standalone="no"?>
<!DOCTYPE svg PUBLIC "-//W3C//DTD SVG 1.1//EN" "http://www.w3.org/Graphics/SVG/1.1/DTD/svg11.dtd" >
<svg xmlns="http://www.w3.org/2000/svg" xmlns:xlink="http://www.w3.org/1999/xlink" version="1.1" viewBox="-10 0 1010 1000">
   <path fill="currentColor"
d="M289 158l-37 61c-34 -34 -104 -80 -159 -108l35 -54c55 25 126 68 161 101zM235 420l-35 62c-35 -31 -105 -75 -159 -103l34 -54c54 24 125 64 160 95zM120 938l-54 -51c45 -75 113 -205 162 -317l47 50c-45 103 -104 226 -155 318zM477 235h460s0 28 -1 38
c-21 443 -40 592 -80 642c-19 26 -40 35 -71 39c-28 2 -74 2 -121 -1c-1 -21 -9 -52 -20 -72c49 4 92 5 111 5c18 0 28 -3 38 -17c31 -34 52 -180 71 -566h-85c-47 256 -147 514 -286 648c-13 -17 -38 -37 -55 -50c133 -118 229 -355 278 -598h-101
c-56 191 -164 396 -283 506c-12 -17 -34 -39 -53 -50c112 -94 216 -279 272 -456h-105c-40 76 -85 144 -132 198c-13 -12 -43 -35 -61 -46c96 -96 172 -251 216 -412l72 16c-18 60 -40 120 -64 176z" />
</svg>
