<?xml version="1.0" standalone="no"?>
<!DOCTYPE svg PUBLIC "-//W3C//DTD SVG 1.1//EN" "http://www.w3.org/Graphics/SVG/1.1/DTD/svg11.dtd" >
<svg xmlns="http://www.w3.org/2000/svg" xmlns:xlink="http://www.w3.org/1999/xlink" version="1.1" viewBox="-10 0 1010 1000">
   <path fill="currentColor"
d="M421 212l74 14c-30 132 -79 269 -131 356c-14 -11 -47 -29 -65 -38c54 -83 97 -210 122 -332zM754 222l62 -27c61 85 119 200 143 275l-69 31c-21 -76 -78 -192 -136 -279zM822 497l68 23c-82 240 -256 377 -548 443c-8 -22 -26 -50 -42 -68c280 -54 444 -177 522 -398z
M583 52h76v599h-76v-599zM95 109l41 -54c65 26 148 71 190 105l-44 60c-40 -34 -122 -82 -187 -111zM41 382l40 -55c63 27 144 70 185 102l-42 61c-39 -32 -119 -79 -183 -108zM74 892c52 -76 129 -206 185 -319l55 48c-51 104 -119 228 -177 320z" />
</svg>
