<?xml version="1.0" standalone="no"?>
<!DOCTYPE svg PUBLIC "-//W3C//DTD SVG 1.1//EN" "http://www.w3.org/Graphics/SVG/1.1/DTD/svg11.dtd" >
<svg xmlns="http://www.w3.org/2000/svg" xmlns:xlink="http://www.w3.org/1999/xlink" version="1.1" viewBox="-10 0 1010 1000">
   <path fill="currentColor"
d="M328 156l-44 60c-40 -36 -120 -83 -188 -111l41 -54c66 25 149 69 191 105zM276 412l-41 63c-41 -32 -124 -74 -193 -100l40 -56c66 23 151 62 194 93zM262 574l55 48c-52 105 -121 228 -178 321l-63 -49c53 -77 129 -207 186 -320zM693 852h265v73h-667v-73h114v-577h74
v577h139v-808h75v349h237v71h-237v388z" />
</svg>
