<?xml version="1.0" standalone="no"?>
<!DOCTYPE svg PUBLIC "-//W3C//DTD SVG 1.1//EN" "http://www.w3.org/Graphics/SVG/1.1/DTD/svg11.dtd" >
<svg xmlns="http://www.w3.org/2000/svg" xmlns:xlink="http://www.w3.org/1999/xlink" version="1.1" viewBox="-10 0 1010 1000">
   <path fill="currentColor"
d="M518 149v45c0 94 -32 204 -178 274c-9 -15 -35 -43 -49 -54c132 -62 155 -147 155 -222v-113h340v219c0 29 3 39 20 39h86c16 0 40 -2 54 -6c2 22 4 52 7 72c-13 5 -38 6 -59 6h-93c-72 0 -88 -31 -88 -113v-147h-195zM310 165l-43 60c-41 -31 -120 -81 -180 -115l42 -53
c59 31 140 78 181 108zM264 426l-42 61c-41 -30 -122 -77 -184 -108l41 -55c60 29 143 73 185 102zM247 575l54 46c-49 104 -115 229 -170 321l-62 -48c51 -77 124 -208 178 -319zM782 552h-323c37 73 91 137 159 190c68 -51 125 -114 164 -190zM835 479l49 22
c-42 120 -114 213 -203 284c79 48 175 84 280 103c-16 17 -38 48 -48 69c-113 -26 -214 -68 -297 -126c-92 59 -199 99 -310 125c-8 -20 -25 -51 -38 -68c102 -19 201 -54 287 -104c-72 -61 -129 -137 -170 -225l20 -7h-63v-70h479z" />
</svg>
