<?xml version="1.0" standalone="no"?>
<!DOCTYPE svg PUBLIC "-//W3C//DTD SVG 1.1//EN" "http://www.w3.org/Graphics/SVG/1.1/DTD/svg11.dtd" >
<svg xmlns="http://www.w3.org/2000/svg" xmlns:xlink="http://www.w3.org/1999/xlink" version="1.1" viewBox="-10 0 1010 1000">
   <path fill="currentColor"
d="M323 180l-48 57c-37 -39 -112 -93 -176 -127l46 -51c64 32 140 82 178 121zM261 442l-46 60c-35 -37 -108 -87 -170 -120l44 -54c61 31 136 78 172 114zM142 943l-63 -50c52 -77 130 -207 187 -319l55 49c-52 105 -121 227 -179 320zM599 38l68 23c-4 10 -9 20 -15 30
c70 117 196 238 308 297c-17 15 -42 43 -56 62c-103 -62 -213 -177 -291 -294c-58 90 -131 170 -210 236h415s-1 20 -2 30c-8 171 -16 238 -39 262c-16 19 -34 25 -62 27c-25 1 -75 1 -125 -2c-2 -19 -9 -46 -21 -64c49 4 97 5 114 5s26 -2 34 -9c13 -14 21 -61 27 -179
h-271v349c0 42 12 50 77 50h222c59 0 69 -22 76 -150c18 13 49 25 71 30c-12 151 -36 192 -143 192h-230c-114 0 -148 -24 -148 -122v-415c-26 22 -54 42 -82 60c-8 -17 -30 -52 -43 -69c133 -77 256 -205 326 -349z" />
</svg>
