<?xml version="1.0" standalone="no"?>
<!DOCTYPE svg PUBLIC "-//W3C//DTD SVG 1.1//EN" "http://www.w3.org/Graphics/SVG/1.1/DTD/svg11.dtd" >
<svg xmlns="http://www.w3.org/2000/svg" xmlns:xlink="http://www.w3.org/1999/xlink" version="1.1" viewBox="-10 0 1010 1000">
   <path fill="currentColor"
d="M946 244h-495c-36 68 -78 127 -122 174c-12 -12 -41 -37 -59 -49c81 -77 148 -199 185 -326l73 16c-13 41 -28 80 -44 117h462v68zM314 163l-44 61c-40 -31 -119 -82 -177 -119l43 -52c57 33 137 81 178 110zM256 418l-43 61c-38 -28 -115 -74 -171 -106l42 -53
c55 29 132 71 172 98zM134 943l-66 -45c47 -77 114 -207 163 -320l58 44c-46 105 -104 229 -155 321zM565 886h249c57 0 67 -21 73 -123c18 11 46 22 67 27c-12 126 -34 162 -137 162h-253c-116 0 -150 -25 -150 -121v-244l-91 34l-23 -63l114 -43v-170h70v145l129 -49v-163
h69v137l142 -53l13 -10l46 17l-2 12c-1 139 -3 266 -6 294c-3 33 -20 51 -46 57c-23 7 -56 7 -80 6c-1 -19 -7 -45 -16 -61c20 2 48 1 57 1c11 0 18 -3 21 -19c3 -15 5 -104 5 -225l-134 51v301h-69v-276l-129 50v271c0 44 12 55 81 55z" />
</svg>
