<?xml version="1.0" standalone="no"?>
<!DOCTYPE svg PUBLIC "-//W3C//DTD SVG 1.1//EN" "http://www.w3.org/Graphics/SVG/1.1/DTD/svg11.dtd" >
<svg xmlns="http://www.w3.org/2000/svg" xmlns:xlink="http://www.w3.org/1999/xlink" version="1.1" viewBox="-10 0 1010 1000">
   <path fill="currentColor"
d="M316 160l-41 61c-39 -36 -118 -83 -183 -111l38 -55c66 25 146 69 186 105zM258 429l-40 62c-38 -35 -115 -81 -179 -108l38 -56c63 26 141 68 181 102zM131 943l-60 -50c53 -75 130 -206 186 -319l51 49c-51 105 -119 228 -177 320zM812 610l69 29
c-97 160 -280 263 -511 318c-8 -20 -26 -46 -43 -64c221 -45 398 -139 485 -283zM619 316l66 27c-70 91 -182 176 -286 229c-12 -17 -32 -38 -49 -51c99 -46 209 -125 269 -205zM713 462l66 28c-80 109 -215 203 -351 260c-11 -17 -30 -41 -48 -56
c128 -48 262 -135 333 -232zM596 43l68 21c-5 10 -11 21 -15 32c75 106 205 213 319 267c-18 15 -41 42 -54 61c-103 -58 -218 -161 -302 -267c-71 110 -174 205 -297 274c-10 -15 -34 -40 -50 -52c149 -80 272 -205 331 -336z" />
</svg>
