<?xml version="1.0" standalone="no"?>
<!DOCTYPE svg PUBLIC "-//W3C//DTD SVG 1.1//EN" "http://www.w3.org/Graphics/SVG/1.1/DTD/svg11.dtd" >
<svg xmlns="http://www.w3.org/2000/svg" xmlns:xlink="http://www.w3.org/1999/xlink" version="1.1" viewBox="-10 0 1010 1000">
   <path fill="currentColor"
d="M336 159l-43 62c-42 -31 -125 -79 -188 -112l42 -53c61 29 146 74 189 103zM269 429l-41 60c-40 -28 -123 -76 -183 -107l40 -54c60 27 142 72 184 101zM132 943l-63 -50c54 -75 131 -206 189 -319l54 49c-53 105 -122 228 -180 320zM800 627h-358v218h358v-218zM370 958
v-400h504v397h-74v-41h-358v44h-72zM672 205l62 -32c82 87 169 206 209 284l-66 38c-9 -18 -21 -40 -35 -62c-431 29 -478 32 -509 44c-4 -15 -16 -51 -25 -71c20 -4 42 -28 69 -65c29 -35 120 -169 177 -298l77 22c-61 117 -133 233 -205 323l372 -21
c-38 -56 -84 -114 -126 -162z" />
</svg>
