<?xml version="1.0" standalone="no"?>
<!DOCTYPE svg PUBLIC "-//W3C//DTD SVG 1.1//EN" "http://www.w3.org/Graphics/SVG/1.1/DTD/svg11.dtd" >
<svg xmlns="http://www.w3.org/2000/svg" xmlns:xlink="http://www.w3.org/1999/xlink" version="1.1" viewBox="-10 0 1010 1000">
   <path fill="currentColor"
d="M303 158l-43 61c-37 -30 -113 -78 -171 -110l42 -53c57 29 134 73 172 102zM257 419l-43 62c-38 -30 -115 -74 -173 -103l41 -54c57 26 135 68 175 95zM134 933l-66 -45c49 -78 119 -210 171 -324l57 44c-47 106 -110 233 -162 325zM774 387h-131v227h131v-227zM846 683
h-272v-296h-131v442h506v72h-577v-514h-97v-72h97v-241h71v241h131v-269h69v269h131v-248h72v248h112v72h-112v296z" />
</svg>
