<?xml version="1.0" standalone="no"?>
<!DOCTYPE svg PUBLIC "-//W3C//DTD SVG 1.1//EN" "http://www.w3.org/Graphics/SVG/1.1/DTD/svg11.dtd" >
<svg xmlns="http://www.w3.org/2000/svg" xmlns:xlink="http://www.w3.org/1999/xlink" version="1.1" viewBox="-10 0 1010 1000">
   <path fill="currentColor"
d="M760 279v-82h-522v82h522zM760 420v-84h-522v84h522zM836 137v343h-671v-343h250c17 -30 33 -66 43 -92l86 16c-16 26 -32 52 -48 76h340zM355 581l45 20c-55 161 -181 265 -320 320c-9 -17 -28 -45 -43 -59c107 -38 210 -113 266 -212h-228v-66h266zM831 525l63 45
c-65 51 -147 107 -218 149c80 60 179 104 287 128c-16 15 -37 44 -49 65c-155 -42 -289 -127 -379 -242v201c0 42 -10 60 -41 71c-32 10 -84 10 -162 10c-5 -19 -14 -46 -25 -65c62 3 117 2 134 1c16 0 21 -4 21 -18v-372h73v62c24 43 56 82 93 118
c70 -44 152 -107 203 -153z" />
</svg>
