<?xml version="1.0" standalone="no"?>
<!DOCTYPE svg PUBLIC "-//W3C//DTD SVG 1.1//EN" "http://www.w3.org/Graphics/SVG/1.1/DTD/svg11.dtd" >
<svg xmlns="http://www.w3.org/2000/svg" xmlns:xlink="http://www.w3.org/1999/xlink" version="1.1" viewBox="-10 0 1010 1000">
   <path fill="currentColor"
d="M271 433l-37 64c-43 -32 -128 -79 -194 -107l36 -57c65 26 152 69 195 100zM124 938l-57 -51c47 -74 116 -197 167 -306l51 49c-47 101 -108 219 -161 308zM99 117l38 -54c64 28 147 76 188 111l-40 62c-40 -36 -122 -87 -186 -119zM855 544h72v400h-72v-53h-513v-345h71
v273h181v-367h-225v-314h68v247h157v-334h73v334h156v-247h71v314h-227v367h188v-275z" />
</svg>
