<?xml version="1.0" standalone="no"?>
<!DOCTYPE svg PUBLIC "-//W3C//DTD SVG 1.1//EN" "http://www.w3.org/Graphics/SVG/1.1/DTD/svg11.dtd" >
<svg xmlns="http://www.w3.org/2000/svg" xmlns:xlink="http://www.w3.org/1999/xlink" version="1.1" viewBox="-10 0 1010 1000">
   <path fill="currentColor"
d="M125 940l-56 -37c37 -75 91 -201 128 -309l50 37c-35 102 -82 221 -122 309zM236 427l-37 51c-30 -30 -92 -73 -141 -101l37 -45c48 25 111 66 141 95zM85 97l42 -42c46 32 103 81 131 116l-43 47c-27 -35 -83 -86 -130 -121zM473 594l57 -18c30 68 63 160 78 214
c58 -122 76 -282 82 -464h-103c-62 144 -140 290 -220 404l148 -27c-13 -37 -28 -76 -42 -109zM938 258v36c-12 432 -23 569 -52 611c-16 25 -33 33 -58 35c-23 4 -56 3 -91 1c-2 -19 -9 -47 -18 -65c34 3 63 4 78 4c14 0 21 -3 29 -16c21 -30 32 -160 43 -538h-112
c-9 274 -44 501 -190 637c-11 -15 -37 -38 -51 -47c38 -34 67 -76 91 -124l-58 23c-4 -16 -9 -34 -16 -54c-200 40 -228 48 -247 59c-4 -15 -15 -49 -23 -68c20 -5 41 -35 70 -80c20 -28 69 -112 116 -210c-120 15 -142 21 -157 28c-4 -15 -15 -48 -23 -67
c16 -3 31 -28 48 -65c16 -33 72 -169 99 -291l68 24c-30 111 -76 229 -123 320l117 -12c15 -33 29 -67 41 -101l62 26v-66h111c1 -69 1 -140 1 -214h68c0 74 -1 145 -2 214h179z" />
</svg>
