<?xml version="1.0" standalone="no"?>
<!DOCTYPE svg PUBLIC "-//W3C//DTD SVG 1.1//EN" "http://www.w3.org/Graphics/SVG/1.1/DTD/svg11.dtd" >
<svg xmlns="http://www.w3.org/2000/svg" xmlns:xlink="http://www.w3.org/1999/xlink" version="1.1" viewBox="-10 0 1010 1000">
   <path fill="currentColor"
d="M271 423l-41 62c-41 -34 -120 -79 -185 -108l40 -54c63 25 145 68 186 100zM141 943l-62 -50c53 -76 132 -207 189 -320l54 49c-52 105 -122 229 -181 321zM99 108l40 -54c66 27 148 72 190 104l-43 62c-40 -34 -121 -82 -187 -112zM937 922l-65 33
c-10 -28 -27 -62 -46 -99c-371 46 -413 53 -440 66c-4 -17 -16 -54 -25 -74c19 -5 39 -29 64 -65c22 -30 88 -136 138 -248h-223v-71h257v-178h-213v-71h213v-172h74v172h221v71h-221v178h262v71h-282c-52 106 -114 212 -176 296l316 -35c-28 -45 -58 -90 -89 -129l60 -28
c70 87 145 206 175 283z" />
</svg>
