<?xml version="1.0" standalone="no"?>
<!DOCTYPE svg PUBLIC "-//W3C//DTD SVG 1.1//EN" "http://www.w3.org/Graphics/SVG/1.1/DTD/svg11.dtd" >
<svg xmlns="http://www.w3.org/2000/svg" xmlns:xlink="http://www.w3.org/1999/xlink" version="1.1" viewBox="-10 0 1010 1000">
   <path fill="currentColor"
d="M253 428l-37 62c-36 -34 -110 -80 -171 -108l37 -56c58 26 133 68 171 102zM132 943l-55 -50c50 -75 121 -207 175 -320l48 50c-48 104 -113 228 -168 320zM95 109l37 -55c61 25 137 70 175 105l-39 62c-37 -36 -111 -84 -173 -112zM956 531v71h-280v354h-73v-354h-284
v-71h284v-366h-249v-71h577v71h-255v366h280zM395 237l60 -16c27 78 51 179 58 245l-64 17c-5 -66 -28 -168 -54 -246zM815 485l-58 -18c24 -66 52 -175 66 -251l71 17c-24 85 -53 187 -79 252z" />
</svg>
