<?xml version="1.0" standalone="no"?>
<!DOCTYPE svg PUBLIC "-//W3C//DTD SVG 1.1//EN" "http://www.w3.org/Graphics/SVG/1.1/DTD/svg11.dtd" >
<svg xmlns="http://www.w3.org/2000/svg" xmlns:xlink="http://www.w3.org/1999/xlink" version="1.1" viewBox="-10 0 1010 1000">
   <path fill="currentColor"
d="M289 155l-44 59c-32 -33 -101 -79 -157 -107l43 -53c56 26 124 68 158 101zM247 412l-42 61c-34 -31 -105 -73 -164 -99l42 -54c58 23 129 61 164 92zM204 587l60 39c-37 104 -87 226 -132 318l-66 -40c41 -77 98 -205 138 -317zM523 806l117 -26l7 64
c-136 34 -279 67 -386 93l-22 -71c23 -4 48 -9 75 -15v-599h66v585l75 -16v-776h68v303h111v69h-111v389zM765 874h92c27 0 31 -33 35 -155c18 14 44 26 65 31c-8 142 -26 192 -95 192h-107c-73 0 -93 -24 -93 -119v-779h70v360c53 -41 112 -94 151 -136l52 53
c-62 56 -140 117 -203 159v344c0 43 5 50 33 50z" />
</svg>
