<?xml version="1.0" standalone="no"?>
<!DOCTYPE svg PUBLIC "-//W3C//DTD SVG 1.1//EN" "http://www.w3.org/Graphics/SVG/1.1/DTD/svg11.dtd" >
<svg xmlns="http://www.w3.org/2000/svg" xmlns:xlink="http://www.w3.org/1999/xlink" version="1.1" viewBox="-10 0 1010 1000">
   <path fill="currentColor"
d="M310 191l-49 53c-36 -37 -108 -91 -167 -128l47 -48c58 34 132 86 169 123zM257 462l-50 54c-34 -37 -104 -93 -162 -130l48 -47c56 34 128 87 164 123zM129 938l-63 -50c49 -72 119 -193 172 -300l55 48c-48 98 -110 213 -164 302zM822 506l51 34
c-55 95 -155 209 -230 280c43 31 82 63 110 87l-54 51c-58 -56 -178 -147 -271 -208l50 -44c33 22 69 46 105 72c57 -50 129 -130 179 -199h-400v-69h447zM527 355l58 -30c38 35 82 84 104 114l-61 39c-21 -33 -64 -85 -101 -123zM593 43l71 22c-6 12 -12 24 -19 34
c71 115 195 236 303 297c-18 15 -41 41 -54 60c-97 -65 -208 -181 -284 -297c-76 117 -180 222 -300 301c-11 -15 -37 -41 -53 -53c147 -91 271 -230 336 -364z" />
</svg>
