<?xml version="1.0" standalone="no"?>
<!DOCTYPE svg PUBLIC "-//W3C//DTD SVG 1.1//EN" "http://www.w3.org/Graphics/SVG/1.1/DTD/svg11.dtd" >
<svg xmlns="http://www.w3.org/2000/svg" xmlns:xlink="http://www.w3.org/1999/xlink" version="1.1" viewBox="-10 0 1010 1000">
   <path fill="currentColor"
d="M310 161l-43 60c-37 -34 -113 -83 -172 -115l42 -53c59 29 136 75 173 108zM260 420l-43 61c-37 -31 -115 -77 -176 -107l43 -54c58 27 137 70 176 100zM229 578l57 44c-45 105 -104 229 -155 321l-65 -45c47 -77 114 -207 163 -320zM792 499h-271c33 83 80 157 140 220
c56 -60 101 -133 131 -220zM596 257h-169v175h169v-175zM837 429l46 22c-35 130 -94 234 -169 316c70 57 153 100 250 126c-18 16 -38 44 -49 64c-98 -31 -182 -78 -253 -140c-73 63 -156 109 -245 142c-10 -18 -32 -48 -48 -62c89 -30 171 -72 241 -130
c-68 -75 -120 -165 -159 -268h-25c-5 147 -31 329 -129 457c-13 -12 -43 -31 -62 -38c109 -138 120 -335 120 -479v-252h241v-144h73v144h220l12 -3l53 15c-25 72 -57 151 -85 201l-63 -20c16 -32 34 -78 51 -123h-188v175h154z" />
</svg>
