<?xml version="1.0" standalone="no"?>
<!DOCTYPE svg PUBLIC "-//W3C//DTD SVG 1.1//EN" "http://www.w3.org/Graphics/SVG/1.1/DTD/svg11.dtd" >
<svg xmlns="http://www.w3.org/2000/svg" xmlns:xlink="http://www.w3.org/1999/xlink" version="1.1" viewBox="-10 0 1010 1000">
   <path fill="currentColor"
d="M931 227v71h-604v-71h604zM546 793l-74 14c-9 -119 -40 -299 -71 -436l70 -14c32 139 63 314 75 436zM677 198l-72 21c-9 -43 -30 -112 -48 -163l68 -17c21 50 43 115 52 159zM330 158l-42 62c-40 -35 -122 -83 -188 -112l40 -53c66 25 149 69 190 103zM271 428l-41 62
c-40 -33 -120 -80 -184 -108l40 -56c63 26 144 70 185 102zM268 573l54 49c-52 105 -121 229 -180 321l-63 -50c54 -76 132 -207 189 -320zM732 840h225v72h-676v-72h378c40 -131 86 -345 107 -495l80 14c-30 155 -74 351 -114 481z" />
</svg>
