<?xml version="1.0" standalone="no"?>
<!DOCTYPE svg PUBLIC "-//W3C//DTD SVG 1.1//EN" "http://www.w3.org/Graphics/SVG/1.1/DTD/svg11.dtd" >
<svg xmlns="http://www.w3.org/2000/svg" xmlns:xlink="http://www.w3.org/1999/xlink" version="1.1" viewBox="-10 0 1010 1000">
   <path fill="currentColor"
d="M268 422l-41 62c-39 -35 -118 -81 -183 -108l39 -56c65 26 145 68 185 102zM141 941l-64 -48c52 -76 127 -206 182 -319l55 47c-50 105 -116 228 -173 320zM98 109l41 -54c64 28 139 74 177 109l-43 60c-37 -37 -112 -86 -175 -115zM950 280h-320
c-47 84 -103 167 -159 235l198 -10c37 -48 73 -99 106 -150l67 38c-115 165 -249 319 -377 438l346 -31c-25 -46 -51 -93 -78 -134l63 -28c61 88 125 205 147 281l-68 33c-8 -25 -20 -57 -35 -90c-406 39 -451 44 -482 57c-4 -15 -16 -51 -26 -70c26 -7 60 -37 109 -84
c30 -27 99 -100 174 -192c-181 12 -211 16 -229 24c-4 -16 -16 -51 -24 -70c18 -4 37 -24 60 -53c21 -24 78 -105 124 -194h-217v-71h309c-16 -37 -48 -93 -77 -135l61 -29c31 43 66 99 82 137l-53 27h299v71z" />
</svg>
