<?xml version="1.0" standalone="no"?>
<!DOCTYPE svg PUBLIC "-//W3C//DTD SVG 1.1//EN" "http://www.w3.org/Graphics/SVG/1.1/DTD/svg11.dtd" >
<svg xmlns="http://www.w3.org/2000/svg" xmlns:xlink="http://www.w3.org/1999/xlink" version="1.1" viewBox="-10 0 1010 1000">
   <path fill="currentColor"
d="M693 604l60 37c-31 35 -67 73 -100 105c79 39 158 81 210 112l-44 57c-65 -43 -178 -104 -280 -151v112c0 38 -9 54 -37 65c-27 10 -70 10 -140 10c-3 -19 -14 -43 -23 -61c51 2 97 2 109 1c14 0 18 -4 18 -17v-90c-111 44 -227 89 -317 122l-35 -62
c88 -29 223 -76 352 -123v-204h73v176c18 8 35 17 54 24c35 -35 75 -80 100 -113zM396 714l-52 42c-21 -31 -67 -76 -107 -106l50 -39c40 29 88 72 109 103zM944 483h-236c64 73 161 133 258 165c-16 14 -38 42 -49 61c-113 -45 -223 -128 -294 -226h-260
c-68 91 -155 174 -266 236c-11 -16 -37 -41 -55 -51c94 -50 170 -113 231 -185h-220v-63h267c19 -27 35 -55 50 -83h-212v-60h239c11 -25 21 -52 29 -78h-318v-61h334c8 -31 13 -63 17 -94l78 7c-5 28 -10 58 -18 87h380v61h-396c-7 26 -17 53 -27 78h381v60h-408
c-12 28 -28 56 -45 83h540v63z" />
</svg>
