<?xml version="1.0" standalone="no"?>
<!DOCTYPE svg PUBLIC "-//W3C//DTD SVG 1.1//EN" "http://www.w3.org/Graphics/SVG/1.1/DTD/svg11.dtd" >
<svg xmlns="http://www.w3.org/2000/svg" xmlns:xlink="http://www.w3.org/1999/xlink" version="1.1" viewBox="-10 0 1010 1000">
   <path fill="currentColor"
d="M896 201l-51 44c-25 -34 -74 -88 -114 -126l49 -37c42 38 92 88 116 119zM304 184l-49 55c-35 -36 -104 -92 -157 -133l47 -47c53 38 123 92 159 125zM263 443l-48 57c-37 -35 -112 -93 -170 -133l46 -50c57 38 135 93 172 126zM219 580l62 45c-43 101 -98 217 -147 306
l-69 -46c45 -74 107 -198 154 -305zM796 513h-260c-5 11 -10 22 -15 31c36 62 85 121 142 174c56 -58 103 -127 133 -205zM842 443l48 22c-36 121 -97 219 -172 299c75 59 159 107 244 136c-16 15 -37 41 -47 61c-86 -34 -171 -86 -247 -149c-74 65 -160 114 -250 147
c-8 -19 -27 -48 -42 -64c85 -27 168 -72 238 -132c-47 -47 -90 -98 -126 -152c-51 92 -113 171 -188 236c-10 -16 -37 -47 -52 -62c129 -103 214 -253 272 -438h-92c-56 0 -90 4 -100 12c-4 -16 -16 -50 -24 -69c12 -3 23 -17 34 -37c10 -21 45 -98 60 -173l75 17
c-17 63 -44 129 -70 181h137c18 -72 34 -149 47 -229l72 9c-12 77 -28 150 -46 220h327v69h-345c-10 34 -22 68 -34 100h268z" />
</svg>
