<?xml version="1.0" standalone="no"?>
<!DOCTYPE svg PUBLIC "-//W3C//DTD SVG 1.1//EN" "http://www.w3.org/Graphics/SVG/1.1/DTD/svg11.dtd" >
<svg xmlns="http://www.w3.org/2000/svg" xmlns:xlink="http://www.w3.org/1999/xlink" version="1.1" viewBox="-10 0 1010 1000">
   <path fill="currentColor"
d="M957 452l-42 62c-60 -39 -175 -99 -270 -141c-93 63 -197 113 -296 149c-9 -19 -29 -47 -45 -62c170 -54 358 -163 461 -294h-393v-70h444l14 -3l54 32c-43 76 -106 144 -179 203c92 38 195 88 252 124zM329 161l-43 60c-41 -33 -125 -83 -191 -113l42 -52
c63 27 149 73 192 105zM273 429l-41 61c-42 -31 -123 -78 -187 -108l42 -54c60 26 144 70 186 101zM141 943l-62 -50c54 -76 132 -207 189 -319l54 49c-52 104 -122 227 -181 320zM678 617v242h276v70h-630v-70h280v-242h-220v-69h511v69h-217z" />
</svg>
