<?xml version="1.0" standalone="no"?>
<!DOCTYPE svg PUBLIC "-//W3C//DTD SVG 1.1//EN" "http://www.w3.org/Graphics/SVG/1.1/DTD/svg11.dtd" >
<svg xmlns="http://www.w3.org/2000/svg" xmlns:xlink="http://www.w3.org/1999/xlink" version="1.1" viewBox="-10 0 1010 1000">
   <path fill="currentColor"
d="M305 160l-44 59c-34 -35 -107 -83 -167 -112l42 -54c60 27 134 71 169 107zM253 415l-43 60c-35 -33 -107 -76 -167 -103l41 -55c59 24 132 65 169 98zM134 944l-66 -45c47 -77 114 -208 163 -321l59 44c-45 105 -105 229 -156 322zM446 664h317v-103h-317v103zM763 395
h-317v104h317v-104zM647 68l58 -18c49 130 148 262 254 324c-17 14 -43 43 -55 63c-24 -16 -46 -35 -69 -58v493c0 40 -9 60 -36 72s-71 13 -139 13c-3 -20 -13 -50 -23 -69c49 2 95 2 107 1c14 0 19 -4 19 -18v-145h-317v229h-71v-581c-25 28 -50 53 -76 75
c-10 -15 -35 -44 -50 -58c101 -77 188 -198 237 -332l69 18c-36 93 -86 181 -145 255h383c-61 -74 -113 -169 -146 -264z" />
</svg>
