<?xml version="1.0" standalone="no"?>
<!DOCTYPE svg PUBLIC "-//W3C//DTD SVG 1.1//EN" "http://www.w3.org/Graphics/SVG/1.1/DTD/svg11.dtd" >
<svg xmlns="http://www.w3.org/2000/svg" xmlns:xlink="http://www.w3.org/1999/xlink" version="1.1" viewBox="-10 0 1010 1000">
   <path fill="currentColor"
d="M279 161l-45 57c-30 -33 -96 -80 -151 -111l43 -52c55 28 121 72 153 106zM241 419l-44 59c-31 -33 -99 -78 -156 -106l42 -53c56 26 125 66 158 100zM128 945l-66 -40c40 -77 97 -205 137 -317l60 39c-37 104 -87 226 -131 318zM461 44l67 17c-19 67 -42 133 -68 195
v701h-67v-561c-26 48 -55 93 -85 131c-9 -14 -35 -46 -49 -59c87 -103 159 -262 202 -424zM836 561v-159h-110v54c0 33 -1 69 -3 105h113zM726 178v154h110v-154h-110zM959 332v70h-55v295h-68v-67h-118c-14 122 -49 247 -138 335c-11 -14 -33 -37 -49 -49
c78 -71 108 -180 120 -286h-116v-69h122c2 -37 2 -73 2 -105v-54h-162v-70h162v-154h-104v-70h349v224h55z" />
</svg>
