<?xml version="1.0" standalone="no"?>
<!DOCTYPE svg PUBLIC "-//W3C//DTD SVG 1.1//EN" "http://www.w3.org/Graphics/SVG/1.1/DTD/svg11.dtd" >
<svg xmlns="http://www.w3.org/2000/svg" xmlns:xlink="http://www.w3.org/1999/xlink" version="1.1" viewBox="-10 0 1010 1000">
   <path fill="currentColor"
d="M941 189v69h-626v-69h299c-12 -33 -38 -84 -60 -123l63 -27c24 38 51 87 64 120l-65 30h325zM706 317l53 -39c61 62 143 150 182 200l-55 48c-40 -53 -119 -145 -180 -209zM477 285l66 31c-51 71 -122 157 -181 219c-12 -12 -37 -31 -54 -42c59 -59 128 -146 169 -208z
M298 162l-43 60c-35 -37 -106 -86 -166 -116l41 -54c60 28 131 74 168 110zM251 422l-43 60c-35 -33 -107 -79 -167 -107l40 -55c60 26 133 68 170 102zM237 577l55 44c-45 104 -106 229 -158 321l-64 -45c47 -76 116 -207 167 -320zM730 460l75 16c-30 95 -73 179 -133 251
c75 78 172 135 293 165c-16 15 -36 45 -47 65c-121 -36 -218 -95 -294 -177c-77 77 -176 137 -302 177c-8 -17 -25 -45 -38 -60c123 -38 221 -96 295 -171c-53 -70 -93 -153 -124 -248l64 -15c25 79 60 150 107 211c48 -63 82 -136 104 -214z" />
</svg>
