<?xml version="1.0" standalone="no"?>
<!DOCTYPE svg PUBLIC "-//W3C//DTD SVG 1.1//EN" "http://www.w3.org/Graphics/SVG/1.1/DTD/svg11.dtd" >
<svg xmlns="http://www.w3.org/2000/svg" xmlns:xlink="http://www.w3.org/1999/xlink" version="1.1" viewBox="-10 0 1010 1000">
   <path fill="currentColor"
d="M310 595l-56 -31c40 -59 67 -158 81 -238l55 17c-13 84 -38 188 -80 252zM291 158l-46 59c-34 -32 -104 -79 -160 -110l44 -53c54 29 126 73 162 104zM253 416l-43 61c-37 -30 -112 -73 -168 -102l42 -54c56 26 131 67 169 95zM129 944l-67 -39c40 -77 97 -206 138 -318
l59 40c-37 104 -87 226 -130 317zM414 413v-347h70v347c0 195 -15 390 -145 544c-14 -14 -43 -34 -62 -44c123 -142 137 -321 137 -500zM488 360l53 -20c31 68 59 156 68 215l-57 22c-9 -59 -35 -149 -64 -217zM840 65h72v891h-72v-403l-52 25c-15 -61 -54 -151 -95 -222
v578h-70v-854h70v263l49 -20c39 62 78 144 98 205v-463z" />
</svg>
