<?xml version="1.0" standalone="no"?>
<!DOCTYPE svg PUBLIC "-//W3C//DTD SVG 1.1//EN" "http://www.w3.org/Graphics/SVG/1.1/DTD/svg11.dtd" >
<svg xmlns="http://www.w3.org/2000/svg" xmlns:xlink="http://www.w3.org/1999/xlink" version="1.1" viewBox="-10 0 1010 1000">
   <path fill="currentColor"
d="M837 95l77 23c-37 87 -83 191 -121 255l-61 -22c37 -67 82 -178 105 -256zM506 348l-69 24c-11 -67 -52 -168 -95 -245l64 -22c46 75 86 175 100 243zM311 158l-43 59c-37 -35 -112 -83 -176 -111l41 -54c63 26 140 70 178 106zM265 419l-42 62
c-39 -34 -117 -79 -182 -106l41 -56c63 25 143 67 183 100zM248 572l56 46c-49 106 -115 231 -170 324l-63 -47c50 -78 123 -209 177 -323zM783 883h88c28 0 33 -22 36 -151c15 13 46 24 65 30c-7 148 -25 187 -94 187h-105c-76 0 -95 -22 -95 -101v-355h-126
c-12 229 -47 380 -241 466c-9 -17 -30 -44 -46 -57c177 -73 205 -206 213 -409h-171v-71h277v-378h73v378h300v71h-206v355c0 30 5 35 32 35z" />
</svg>
