<?xml version="1.0" standalone="no"?>
<!DOCTYPE svg PUBLIC "-//W3C//DTD SVG 1.1//EN" "http://www.w3.org/Graphics/SVG/1.1/DTD/svg11.dtd" >
<svg xmlns="http://www.w3.org/2000/svg" xmlns:xlink="http://www.w3.org/1999/xlink" version="1.1" viewBox="-10 0 1010 1000">
   <path fill="currentColor"
d="M427 385v340h-69v-407h203v-272h73v84h283v68h-283v120h247v406h-71v-339h-383zM327 176l-44 59c-39 -31 -117 -81 -178 -116l42 -52c59 31 139 78 180 109zM273 433l-41 62c-41 -31 -120 -77 -181 -107l40 -54c60 26 141 71 182 99zM246 575l56 45
c-48 105 -112 230 -164 322l-65 -47c49 -77 120 -208 173 -320zM583 593v-132h71v134c0 115 -37 261 -322 359c-9 -15 -29 -43 -45 -56c274 -85 296 -211 296 -305zM656 801l41 -49c84 39 193 103 248 149l-44 56c-52 -47 -159 -114 -245 -156z" />
</svg>
