<?xml version="1.0" standalone="no"?>
<!DOCTYPE svg PUBLIC "-//W3C//DTD SVG 1.1//EN" "http://www.w3.org/Graphics/SVG/1.1/DTD/svg11.dtd" >
<svg xmlns="http://www.w3.org/2000/svg" xmlns:xlink="http://www.w3.org/1999/xlink" version="1.1" viewBox="-10 0 1010 1000">
   <path fill="currentColor"
d="M305 159l-44 59c-35 -35 -108 -83 -169 -112l42 -54c60 27 135 71 171 107zM255 417l-43 61c-35 -33 -109 -77 -171 -105l42 -55c60 25 135 66 172 99zM228 575l56 42c-44 106 -103 229 -152 322l-65 -44c46 -77 113 -207 161 -320zM844 151h-415v112h415v-112zM429 328
v36c0 173 -16 422 -139 588c-11 -13 -40 -37 -56 -45c115 -158 126 -380 126 -543v-278h556v242h-487zM712 885h134c30 0 36 -16 40 -99c15 11 42 22 62 26c-8 108 -29 138 -97 138h-147c-82 0 -105 -20 -105 -102v-87l-172 29l-11 -60l183 -31v-89l-146 25l-12 -60l158 -27
v-85c-44 9 -89 17 -132 24c-4 -15 -13 -38 -22 -52c128 -22 274 -56 353 -91l61 47c-54 21 -121 40 -191 57v89l225 -38l11 58l-236 41v90l279 -47l11 58l-290 50v99c0 31 6 37 44 37z" />
</svg>
