<?xml version="1.0" standalone="no"?>
<!DOCTYPE svg PUBLIC "-//W3C//DTD SVG 1.1//EN" "http://www.w3.org/Graphics/SVG/1.1/DTD/svg11.dtd" >
<svg xmlns="http://www.w3.org/2000/svg" xmlns:xlink="http://www.w3.org/1999/xlink" version="1.1" viewBox="-10 0 1010 1000">
   <path fill="currentColor"
d="M270 422l-43 62c-40 -33 -122 -83 -185 -116l42 -56c61 31 145 78 186 110zM128 933l-74 -36c46 -74 112 -199 160 -310l65 36c-45 104 -103 222 -151 310zM98 110l44 -53c62 31 144 80 186 113l-46 60c-40 -34 -121 -85 -184 -120zM484 717l74 23
c-46 81 -118 164 -181 219c-15 -13 -46 -36 -64 -47c65 -48 132 -122 171 -195zM699 748l62 -34c68 59 151 142 190 197l-66 39c-36 -55 -117 -141 -186 -202zM483 403v205h236v-205h-236zM792 608h163v66h-655v-66h110v-459c141 -25 301 -62 390 -98l73 51
c-107 38 -254 71 -390 95v137h446v69h-137v205z" />
</svg>
