<?xml version="1.0" standalone="no"?>
<!DOCTYPE svg PUBLIC "-//W3C//DTD SVG 1.1//EN" "http://www.w3.org/Graphics/SVG/1.1/DTD/svg11.dtd" >
<svg xmlns="http://www.w3.org/2000/svg" xmlns:xlink="http://www.w3.org/1999/xlink" version="1.1" viewBox="-10 0 1010 1000">
   <path fill="currentColor"
d="M403 226v104h-69v-170h281c-13 -31 -32 -70 -50 -99l65 -21c24 38 50 87 63 120h248v170h-72v-104h-466zM403 411v-67h471v67h-471zM317 164l-41 61c-40 -37 -121 -86 -188 -114l38 -55c68 27 150 72 191 108zM263 429l-40 62c-39 -35 -118 -83 -184 -111l38 -56
c64 27 145 70 186 105zM254 573l52 49c-51 105 -120 229 -178 321l-61 -50c54 -76 131 -207 187 -320zM782 878h84c24 0 29 -18 31 -133c16 12 44 23 64 28c-7 136 -25 170 -88 170h-101c-72 0 -90 -22 -90 -94v-258h-113c-16 183 -59 299 -243 365c-8 -17 -27 -45 -43 -57
c165 -55 200 -152 213 -308h-164v-68h620v68h-199v258c0 24 4 29 29 29z" />
</svg>
