<?xml version="1.0" standalone="no"?>
<!DOCTYPE svg PUBLIC "-//W3C//DTD SVG 1.1//EN" "http://www.w3.org/Graphics/SVG/1.1/DTD/svg11.dtd" >
<svg xmlns="http://www.w3.org/2000/svg" xmlns:xlink="http://www.w3.org/1999/xlink" version="1.1" viewBox="-10 0 1010 1000">
   <path fill="currentColor"
d="M394 229v132h-69v-203h265c-14 -30 -33 -66 -50 -94l63 -23c22 35 48 81 64 117h254v203h-72v-132h-455zM288 158l-37 62c-34 -34 -104 -81 -159 -109l35 -54c55 26 126 69 161 101zM234 419l-35 63c-35 -31 -105 -75 -159 -103l34 -54c54 24 125 64 160 94zM227 571
l47 50c-45 103 -104 225 -155 317l-54 -51c45 -75 113 -204 162 -316zM930 512h-257c69 129 183 256 289 320c-15 15 -35 44 -46 64c-95 -66 -196 -184 -268 -311v371h-73v-372c-68 131 -164 248 -259 318c-11 -20 -30 -47 -45 -63c102 -65 209 -195 273 -327h-233v-72h264
v-161h73v161h282v72z" />
</svg>
