<?xml version="1.0" standalone="no"?>
<!DOCTYPE svg PUBLIC "-//W3C//DTD SVG 1.1//EN" "http://www.w3.org/Graphics/SVG/1.1/DTD/svg11.dtd" >
<svg xmlns="http://www.w3.org/2000/svg" xmlns:xlink="http://www.w3.org/1999/xlink" version="1.1" viewBox="-10 0 1010 1000">
   <path fill="currentColor"
d="M288 158l-36 62c-35 -35 -105 -81 -160 -109l35 -54c55 25 127 69 161 101zM234 419l-35 63c-34 -31 -105 -75 -159 -103l34 -54c54 24 125 64 160 94zM227 570l47 50c-45 103 -104 226 -155 318l-53 -51c45 -75 112 -205 161 -317zM882 525l48 44
c-46 43 -101 89 -147 122c51 79 114 145 188 184c-17 13 -40 39 -50 59c-135 -83 -232 -248 -288 -437h-77v358l139 -54c1 17 5 43 8 57c-184 77 -211 92 -228 106v-1c-6 -18 -22 -50 -34 -67c18 -9 47 -30 47 -70v-329h-85c-7 151 -31 328 -107 459
c-12 -13 -41 -34 -57 -41c91 -156 99 -377 99 -535v-284h597v64h-529v220v52h550v65h-263c18 52 38 102 64 149c43 -35 94 -83 125 -121zM894 326h-436v-64h436v64z" />
</svg>
