<?xml version="1.0" standalone="no"?>
<!DOCTYPE svg PUBLIC "-//W3C//DTD SVG 1.1//EN" "http://www.w3.org/Graphics/SVG/1.1/DTD/svg11.dtd" >
<svg xmlns="http://www.w3.org/2000/svg" xmlns:xlink="http://www.w3.org/1999/xlink" version="1.1" viewBox="-10 0 1010 1000">
   <path fill="currentColor"
d="M941 280l-61 44c-44 -60 -135 -159 -209 -231l58 -38c72 68 166 163 212 225zM501 55l70 23c-56 96 -139 196 -213 261c-12 -12 -43 -34 -61 -45c76 -60 154 -151 204 -239zM322 175l-45 58c-39 -36 -120 -91 -181 -127l45 -50c60 34 141 85 181 119zM260 427l-43 61
c-37 -30 -113 -76 -172 -106l41 -54c57 28 135 71 174 99zM143 941l-65 -48c42 -69 101 -183 145 -283l57 45c-39 93 -92 202 -137 286zM384 582h456c-90 -62 -165 -136 -233 -241c-58 95 -134 177 -223 241zM449 849h328v-199h-328v199zM592 219l67 24c-5 11 -10 21 -15 32
c86 144 194 230 328 298c-19 15 -40 40 -49 61c-25 -15 -49 -29 -72 -44v361h-74v-34h-328v41h-73v-370c-23 16 -46 30 -71 44c-10 -18 -32 -44 -50 -59c146 -73 272 -205 337 -354z" />
</svg>
