<?xml version="1.0" standalone="no"?>
<!DOCTYPE svg PUBLIC "-//W3C//DTD SVG 1.1//EN" "http://www.w3.org/Graphics/SVG/1.1/DTD/svg11.dtd" >
<svg xmlns="http://www.w3.org/2000/svg" xmlns:xlink="http://www.w3.org/1999/xlink" version="1.1" viewBox="-10 0 1010 1000">
   <path fill="currentColor"
d="M876 73l58 29c-55 84 -144 163 -227 212c-11 -17 -28 -39 -45 -53c79 -41 167 -115 214 -188zM887 332l58 28c-53 89 -141 166 -231 214c-10 -16 -29 -39 -43 -54c84 -40 171 -112 216 -188zM288 170l-39 59c-33 -35 -101 -83 -155 -113l37 -52c54 27 123 72 157 106z
M240 423l-36 63c-35 -31 -108 -72 -164 -96l33 -57c56 22 129 61 167 90zM218 591l47 49c-43 97 -99 212 -146 298l-54 -51c43 -70 106 -190 153 -296zM414 252l47 -21c24 57 51 132 59 176l-49 28c-8 -47 -33 -124 -57 -183zM388 473h152v-307h-152v307zM668 542h-61v308
c0 44 -8 67 -32 80s-62 15 -121 14c-2 -21 -12 -57 -21 -77c40 2 79 2 91 1s16 -4 16 -18v-308h-152c-3 135 -20 299 -96 404c-13 -14 -41 -37 -55 -46c71 -98 84 -237 86 -358h-70v-69h70v-375h284v375h61v69zM894 618l60 27c-65 119 -173 222 -286 286
c-10 -18 -29 -43 -44 -59c106 -53 213 -149 270 -254z" />
</svg>
