<?xml version="1.0" standalone="no"?>
<!DOCTYPE svg PUBLIC "-//W3C//DTD SVG 1.1//EN" "http://www.w3.org/Graphics/SVG/1.1/DTD/svg11.dtd" >
<svg xmlns="http://www.w3.org/2000/svg" xmlns:xlink="http://www.w3.org/1999/xlink" version="1.1" viewBox="-10 0 1010 1000">
   <path fill="currentColor"
d="M250 443l-42 58c-36 -32 -106 -76 -163 -103l41 -51c57 25 128 66 164 96zM139 940l-65 -41c40 -78 97 -210 138 -324l57 42c-37 104 -87 230 -130 323zM98 108l42 -51c59 25 135 69 173 100l-44 57c-36 -32 -111 -78 -171 -106zM935 224h-489c-32 65 -70 123 -107 168
c-15 -12 -46 -32 -65 -41c71 -76 132 -192 168 -308l73 18c-11 32 -24 64 -37 95h457v68zM531 622l43 -27c44 34 96 84 121 120l-46 31c-23 -34 -74 -87 -118 -124zM425 746h369c5 -40 10 -90 14 -154h-361c-7 55 -15 108 -22 154zM818 385h-343c-6 45 -12 92 -18 139h210
c-21 -33 -68 -80 -110 -112l41 -27c42 31 91 78 113 110l-42 29h142c3 -42 5 -87 7 -139zM960 592h-82c-5 62 -9 113 -13 154h67v66h-76c-10 54 -20 83 -34 100c-18 24 -39 32 -69 35c-28 3 -78 1 -126 -2c-2 -19 -9 -45 -19 -63c51 4 98 5 116 5s28 -2 37 -14
c9 -9 16 -29 23 -61h-442c12 -59 25 -138 36 -220h-92v-68h102c9 -71 18 -142 24 -204h478s-1 26 -1 35c-3 63 -6 119 -8 169h79v68z" />
</svg>
