<?xml version="1.0" standalone="no"?>
<!DOCTYPE svg PUBLIC "-//W3C//DTD SVG 1.1//EN" "http://www.w3.org/Graphics/SVG/1.1/DTD/svg11.dtd" >
<svg xmlns="http://www.w3.org/2000/svg" xmlns:xlink="http://www.w3.org/1999/xlink" version="1.1" viewBox="-10 0 1010 1000">
   <path fill="currentColor"
d="M790 310l69 10c-6 39 -15 77 -26 112c47 48 100 107 128 145l-45 53c-24 -35 -66 -86 -109 -132c-21 46 -47 86 -79 117c-11 -11 -40 -32 -56 -42c65 -60 102 -154 118 -263zM422 310l67 11c-7 39 -16 76 -27 111c34 34 72 74 91 100l-39 58c-17 -25 -47 -60 -77 -92
c-24 55 -56 103 -94 140c-10 -13 -34 -39 -50 -50c70 -63 110 -162 129 -278zM304 159l-43 59c-35 -35 -108 -83 -169 -112l42 -54c60 27 135 71 170 107zM255 417l-43 61c-35 -33 -109 -77 -171 -105l42 -55c60 25 135 66 172 99zM230 578l58 44c-45 105 -104 228 -155 321
l-65 -46c47 -76 113 -206 162 -319zM653 260v214c0 83 53 308 312 416c-14 16 -34 48 -44 66c-213 -90 -288 -272 -305 -352c-16 81 -92 260 -306 352c-9 -16 -30 -46 -43 -62c258 -110 313 -337 313 -420v-214h-273v-69h273v-144h73v144h297v69h-297z" />
</svg>
