<?xml version="1.0" standalone="no"?>
<!DOCTYPE svg PUBLIC "-//W3C//DTD SVG 1.1//EN" "http://www.w3.org/Graphics/SVG/1.1/DTD/svg11.dtd" >
<svg xmlns="http://www.w3.org/2000/svg" xmlns:xlink="http://www.w3.org/1999/xlink" version="1.1" viewBox="-10 0 1010 1000">
   <path fill="currentColor"
d="M325 164l-45 60c-38 -37 -118 -88 -185 -119l41 -53c66 28 148 75 189 112zM272 423l-42 62c-40 -35 -121 -82 -188 -112l40 -54c65 26 148 70 190 104zM265 560l54 47c-53 109 -125 239 -184 335l-62 -49c54 -80 133 -216 192 -333zM471 456v102h331v-102h-331zM471 300
v101h331v-101h-331zM471 145v100h331v-100h-331zM778 880h89c26 0 32 -16 34 -130c15 11 45 22 64 28c-6 134 -25 167 -91 167h-105c-75 0 -94 -20 -94 -94v-231h-104c-22 154 -80 274 -266 338c-8 -17 -27 -44 -42 -57c167 -52 216 -153 235 -281h-98v-537h475v537h-128
v231c0 26 5 29 31 29z" />
</svg>
