<?xml version="1.0" standalone="no"?>
<!DOCTYPE svg PUBLIC "-//W3C//DTD SVG 1.1//EN" "http://www.w3.org/Graphics/SVG/1.1/DTD/svg11.dtd" >
<svg xmlns="http://www.w3.org/2000/svg" xmlns:xlink="http://www.w3.org/1999/xlink" version="1.1" viewBox="-10 0 1010 1000">
   <path fill="currentColor"
d="M259 421l-43 62c-36 -36 -112 -81 -175 -108l41 -55c62 25 139 67 177 101zM131 942l-66 -44c46 -76 112 -207 160 -319l58 44c-44 104 -102 227 -152 319zM93 109l41 -53c61 28 136 73 173 108l-44 60c-35 -36 -109 -84 -170 -115zM838 483l72 21
c-74 257 -238 392 -549 455c-7 -22 -23 -50 -39 -68c295 -52 447 -174 516 -408zM453 467l69 17c-26 88 -72 178 -119 237c-13 -12 -43 -31 -60 -39c47 -54 87 -135 110 -215zM684 348h271v66h-278v292h-77v-292h-276v-66h98v-209h73v209h114v-303h75v123h223v63h-223v117z
" />
</svg>
