<?xml version="1.0" standalone="no"?>
<!DOCTYPE svg PUBLIC "-//W3C//DTD SVG 1.1//EN" "http://www.w3.org/Graphics/SVG/1.1/DTD/svg11.dtd" >
<svg xmlns="http://www.w3.org/2000/svg" xmlns:xlink="http://www.w3.org/1999/xlink" version="1.1" viewBox="-10 0 1010 1000">
   <path fill="currentColor"
d="M925 316l-63 39c-11 -18 -26 -41 -43 -65c-366 25 -409 28 -437 39c-5 -16 -16 -51 -24 -72c16 -2 36 -16 57 -37c24 -20 99 -99 149 -178l77 25c-49 64 -104 126 -157 177l288 -17c-25 -31 -50 -63 -74 -89l60 -33c59 65 132 154 167 211zM327 158l-42 62
c-39 -36 -119 -83 -186 -112l40 -54c66 25 147 69 188 104zM268 428l-41 62c-38 -34 -116 -81 -182 -108l39 -56c64 25 144 68 184 102zM953 686h-284c52 107 151 179 291 208c-16 15 -36 44 -46 63c-136 -34 -231 -107 -291 -217c-40 82 -126 161 -305 217
c-6 -17 -25 -46 -38 -59c183 -56 257 -135 286 -212h-262v-48c-48 100 -110 216 -163 303l-63 -48c49 -74 121 -199 173 -308l53 44v-9h279c2 -19 3 -37 3 -55v-76h-136c-24 41 -48 78 -74 108c-13 -11 -44 -31 -61 -41c54 -58 101 -146 130 -233l70 18c-9 27 -20 55 -33 82
h419v66h-243v77c0 18 -1 35 -2 54h297v66z" />
</svg>
