<?xml version="1.0" standalone="no"?>
<!DOCTYPE svg PUBLIC "-//W3C//DTD SVG 1.1//EN" "http://www.w3.org/Graphics/SVG/1.1/DTD/svg11.dtd" >
<svg xmlns="http://www.w3.org/2000/svg" xmlns:xlink="http://www.w3.org/1999/xlink" version="1.1" viewBox="-10 0 1010 1000">
   <path fill="currentColor"
d="M684 446h-111c-41 0 -72 6 -81 15c-4 -15 -14 -49 -23 -68c16 -4 32 -29 50 -64c10 -17 31 -64 54 -122h-129v-66h153c11 -33 21 -68 29 -101l75 17c-9 28 -19 56 -30 84h256v66h-281c-27 64 -55 124 -83 175h121v-112h71v112h156l-1 64h-155v142h180v65h-180v180h-71
v-180h-226v-65h226v-142zM426 255l-62 33c-17 -45 -56 -116 -92 -168l58 -30c38 52 78 120 96 165zM268 200l-54 45c-26 -38 -81 -97 -128 -137l51 -40c47 39 104 94 131 132zM229 457l-51 48c-27 -35 -85 -89 -133 -126l49 -41c48 34 107 84 135 119zM194 575l59 40
c-34 104 -81 226 -122 318l-66 -39c38 -78 92 -207 129 -319zM418 388v398c19 10 38 27 68 46c53 33 119 42 208 42c81 0 199 -6 276 -15c-7 19 -17 54 -18 74c-62 4 -187 8 -260 8c-95 0 -162 -13 -219 -49c-36 -24 -64 -51 -85 -51c-29 0 -71 53 -114 111l-48 -62
c42 -45 83 -82 120 -100v-333h-94v-69h166z" />
</svg>
