<?xml version="1.0" standalone="no"?>
<!DOCTYPE svg PUBLIC "-//W3C//DTD SVG 1.1//EN" "http://www.w3.org/Graphics/SVG/1.1/DTD/svg11.dtd" >
<svg xmlns="http://www.w3.org/2000/svg" xmlns:xlink="http://www.w3.org/1999/xlink" version="1.1" viewBox="-10 0 1010 1000">
   <path fill="currentColor"
d="M862 69l65 19c-52 122 -134 240 -216 316c-11 -13 -37 -37 -52 -49c82 -70 157 -176 203 -286zM251 189l-51 45c-25 -36 -82 -92 -130 -129l49 -40c47 36 106 88 132 124zM124 943l-65 -33c30 -78 70 -205 96 -316l59 33c-24 103 -60 225 -90 316zM38 375l47 -41
c47 34 105 83 133 118l-49 46c-27 -35 -84 -87 -131 -123zM259 148l-1 -68h230v292h-156c-3 56 -8 114 -12 165h167s-1 22 -2 32c-12 234 -23 322 -49 351c-16 19 -32 25 -58 28c-23 2 -66 3 -110 0c-2 -21 -8 -49 -19 -68c44 4 84 4 99 5c16 0 25 -2 32 -11
c17 -18 27 -89 37 -273h-168c10 -78 19 -202 23 -297h153v-156h-166zM957 495h-185c35 168 98 318 193 393c-15 13 -37 36 -48 53c-103 -91 -170 -257 -206 -446h-68v351l135 -48c0 18 4 47 7 62c-180 72 -208 84 -223 98c-5 -18 -18 -48 -30 -63c18 -8 43 -27 43 -66v-334
h-81v-69h81v-371h68v371h314v69z" />
</svg>
