<?xml version="1.0" standalone="no"?>
<!DOCTYPE svg PUBLIC "-//W3C//DTD SVG 1.1//EN" "http://www.w3.org/Graphics/SVG/1.1/DTD/svg11.dtd" >
<svg xmlns="http://www.w3.org/2000/svg" xmlns:xlink="http://www.w3.org/1999/xlink" version="1.1" viewBox="-10 0 1010 1000">
   <path fill="currentColor"
d="M656 257l45 -41c33 18 67 40 100 62c23 -36 42 -76 55 -119h-205v-62h230l13 -2l42 15c-18 80 -46 149 -83 207c43 32 82 64 106 93l-48 47c-22 -27 -56 -58 -95 -90c-45 56 -99 98 -158 128c-8 -16 -26 -39 -41 -52c54 -25 105 -64 147 -115c-35 -25 -72 -51 -108 -71z
M338 255l43 -41c33 16 70 38 103 60c22 -35 40 -73 54 -115h-199v-62h224l13 -2l41 15c-16 78 -44 145 -80 202c34 25 65 52 85 76l-46 45c-19 -21 -44 -46 -75 -71c-47 58 -104 102 -166 133c-9 -15 -26 -38 -40 -51c57 -26 111 -67 155 -121c-37 -25 -76 -49 -112 -68z
M306 160l-44 60c-35 -36 -108 -84 -168 -113l42 -54c60 27 134 72 170 107zM256 416l-43 61c-36 -33 -109 -77 -170 -105l41 -54c60 24 135 65 172 98zM231 577l59 44c-45 105 -105 230 -156 323l-66 -45c48 -78 114 -209 163 -322zM573 526l42 14c-17 86 -46 158 -84 219
c31 24 59 49 77 71l-48 47c-16 -19 -40 -43 -66 -66c-53 65 -119 112 -191 145c-9 -17 -26 -42 -41 -54c68 -27 130 -72 180 -134c-38 -28 -79 -56 -117 -79l44 -40c36 19 73 44 109 69c23 -38 42 -80 57 -127h-205v-63h230zM899 525l44 15c-23 112 -65 199 -122 267
c42 42 91 74 147 95c-16 13 -35 38 -46 56c-55 -24 -104 -60 -145 -104c-51 46 -109 80 -173 104c-7 -17 -24 -42 -39 -55c63 -22 120 -55 169 -102c-37 -52 -67 -113 -87 -179l55 -15c17 54 43 104 75 147c35 -45 65 -99 83 -163h-219v-63h246z" />
</svg>
