<?xml version="1.0" standalone="no"?>
<!DOCTYPE svg PUBLIC "-//W3C//DTD SVG 1.1//EN" "http://www.w3.org/Graphics/SVG/1.1/DTD/svg11.dtd" >
<svg xmlns="http://www.w3.org/2000/svg" xmlns:xlink="http://www.w3.org/1999/xlink" version="1.1" viewBox="-10 0 1010 1000">
   <path fill="currentColor"
d="M270 429l-41 61c-40 -34 -118 -80 -184 -107l40 -57c64 26 144 68 185 103zM141 943l-63 -50c54 -75 133 -206 189 -319l54 49c-52 105 -121 228 -180 320zM99 109l40 -55c67 25 149 69 190 105l-43 61c-39 -36 -121 -83 -187 -111zM879 596l53 46
c-50 40 -111 80 -161 109c54 59 118 107 187 135c-15 15 -37 42 -47 61c-144 -68 -258 -212 -321 -380h-98v284l151 -50c0 20 2 48 6 64c-192 69 -221 83 -239 97c-6 -19 -18 -56 -30 -76c17 -6 42 -24 42 -64v-255h-82v-65h92v-412h458v61h-387v76h353v58h-353v79h359v58
h-359v80h446v65h-294c21 51 49 99 82 143c48 -32 107 -79 142 -114z" />
</svg>
