<?xml version="1.0" standalone="no"?>
<!DOCTYPE svg PUBLIC "-//W3C//DTD SVG 1.1//EN" "http://www.w3.org/Graphics/SVG/1.1/DTD/svg11.dtd" >
<svg xmlns="http://www.w3.org/2000/svg" xmlns:xlink="http://www.w3.org/1999/xlink" version="1.1" viewBox="-10 0 1010 1000">
   <path fill="currentColor"
d="M582 506v-232c55 -29 114 -73 160 -115h-397v-68h465l15 -4l47 34c-57 65 -141 134 -221 181v185l18 13c38 -47 84 -111 111 -157l52 39c-36 50 -81 106 -120 149c55 42 108 89 138 124l-44 44c-33 -40 -94 -94 -155 -141v156c0 37 -7 54 -32 65c-24 10 -62 11 -119 11
c-3 -19 -13 -44 -21 -63c40 2 78 1 88 1c12 0 15 -3 15 -14v-138c-55 44 -110 87 -157 123l-35 -54c48 -33 121 -85 192 -139zM571 477l-51 36c-19 -39 -66 -94 -108 -134l47 -30c43 38 92 92 112 128zM232 424l-42 60c-31 -30 -98 -73 -150 -102l41 -54
c51 27 119 68 151 96zM137 935l-65 -42c40 -72 98 -189 139 -293l60 41c-40 96 -90 209 -134 294zM90 109l44 -52c48 27 112 70 142 101l-45 58c-29 -32 -92 -77 -141 -107zM851 270h70v686h-70v-54h-552v-638h72v571h480v-565z" />
</svg>
