<?xml version="1.0" standalone="no"?>
<!DOCTYPE svg PUBLIC "-//W3C//DTD SVG 1.1//EN" "http://www.w3.org/Graphics/SVG/1.1/DTD/svg11.dtd" >
<svg xmlns="http://www.w3.org/2000/svg" xmlns:xlink="http://www.w3.org/1999/xlink" version="1.1" viewBox="-10 0 1010 1000">
   <path fill="currentColor"
d="M288 158l-37 62c-34 -34 -104 -81 -159 -109l35 -54c55 26 126 69 161 101zM234 420l-36 62c-34 -31 -104 -75 -158 -102l34 -55c54 24 124 65 160 95zM119 939l-54 -52c45 -75 113 -205 162 -317l47 50c-45 103 -104 226 -155 319zM775 851v-161h-337v161h337zM587 40
l61 25c-5 9 -11 17 -16 25c75 88 215 186 327 238c-12 17 -27 51 -33 70c-112 -60 -245 -162 -330 -256c-46 62 -99 118 -155 168h345v64h-148v98h269v65h-269v90h209v322h-72v-35h-337v38h-69v-325h198v-90h-257v-65h257v-98h-139v-53c-38 32 -77 62 -117 87
c-9 -15 -31 -44 -44 -58c124 -70 248 -184 320 -310z" />
</svg>
