<?xml version="1.0" standalone="no"?>
<!DOCTYPE svg PUBLIC "-//W3C//DTD SVG 1.1//EN" "http://www.w3.org/Graphics/SVG/1.1/DTD/svg11.dtd" >
<svg xmlns="http://www.w3.org/2000/svg" xmlns:xlink="http://www.w3.org/1999/xlink" version="1.1" viewBox="-10 0 1010 1000">
   <path fill="currentColor"
d="M948 159v66h-615v-66h270c-13 -31 -30 -69 -45 -99l74 -18c20 37 42 83 56 117h260zM311 159l-41 62c-38 -36 -115 -84 -179 -112l38 -55c64 26 143 70 182 105zM254 429l-40 61c-37 -34 -112 -80 -176 -107l38 -56c62 25 139 67 178 102zM253 573l51 49
c-51 105 -117 229 -174 321l-60 -50c52 -76 127 -207 183 -320zM430 640l71 20c-43 82 -106 172 -160 232c-14 -12 -43 -33 -60 -41c55 -55 112 -137 149 -211zM457 376v146h350v-146h-350zM882 588h-209v281c0 39 -10 57 -41 68c-30 10 -79 11 -155 11
c-4 -19 -16 -47 -28 -65c57 1 111 1 125 1c16 -1 21 -4 21 -17v-279h-211v-279h498v279zM754 667l65 -23c47 68 104 159 132 216l-68 28c-26 -58 -82 -152 -129 -221z" />
</svg>
