<?xml version="1.0" standalone="no"?>
<!DOCTYPE svg PUBLIC "-//W3C//DTD SVG 1.1//EN" "http://www.w3.org/Graphics/SVG/1.1/DTD/svg11.dtd" >
<svg xmlns="http://www.w3.org/2000/svg" xmlns:xlink="http://www.w3.org/1999/xlink" version="1.1" viewBox="-10 0 1010 1000">
   <path fill="currentColor"
d="M315 152l-40 62c-39 -29 -118 -74 -176 -105l40 -55c57 28 136 71 176 98zM257 421l-38 63c-39 -28 -116 -71 -172 -101l37 -56c55 27 133 68 173 94zM142 943l-63 -50c52 -73 126 -199 182 -306l55 48c-52 101 -118 219 -174 308zM811 622h-373v90h373v-90zM438 857h373
v-91h-373v91zM366 957v-397h519v395h-74v-39h-373v41h-72zM427 247h186c-7 -32 -13 -68 -18 -103c-57 4 -113 7 -168 9v94zM924 309h-217c34 90 86 148 152 151c17 1 27 -28 33 -90c15 15 38 32 54 38c-18 97 -46 131 -85 129c-117 -3 -189 -95 -231 -228h-203v131l205 -38
c-3 18 -3 45 -2 60c-234 47 -265 56 -285 66c-5 -16 -17 -47 -28 -61c15 -7 38 -23 38 -62v-307c183 -8 406 -25 533 -52l34 58c-69 15 -159 25 -254 34c5 38 11 76 20 109h236v62z" />
</svg>
