<?xml version="1.0" standalone="no"?>
<!DOCTYPE svg PUBLIC "-//W3C//DTD SVG 1.1//EN" "http://www.w3.org/Graphics/SVG/1.1/DTD/svg11.dtd" >
<svg xmlns="http://www.w3.org/2000/svg" xmlns:xlink="http://www.w3.org/1999/xlink" version="1.1" viewBox="-10 0 1010 1000">
   <path fill="currentColor"
d="M281 194l-44 53c-30 -40 -94 -96 -144 -136l41 -47c51 36 115 90 147 130zM234 439l-41 56c-32 -37 -99 -89 -152 -124l38 -51c54 32 121 82 155 119zM210 590l52 37c-40 103 -93 221 -137 309l-59 -38c41 -75 101 -199 144 -308zM628 427v75h178v-75h-178zM628 301v72
h178v-72h-178zM706 687h-196c-14 20 -28 39 -41 56c51 10 104 22 157 36c35 -24 63 -55 80 -92zM876 559h-285c-12 22 -27 46 -42 69h392v59h-158c-19 45 -47 82 -83 113c93 27 178 59 239 91l-57 51c-60 -32 -149 -67 -248 -97c-94 51 -215 77 -346 94
c-5 -17 -22 -46 -33 -62c109 -9 212 -24 292 -57c-62 -17 -126 -32 -186 -42l5 -4c21 -25 46 -55 70 -87h-154v-59h195c14 -23 29 -47 41 -69h-183v-57h223v-75h-286v-54h286v-72h-219v-56h219v-63h-258v-60h258v-78h70v78h310v60h-310v63h248v126h90v61h-90v127z" />
</svg>
