<?xml version="1.0" standalone="no"?>
<!DOCTYPE svg PUBLIC "-//W3C//DTD SVG 1.1//EN" "http://www.w3.org/Graphics/SVG/1.1/DTD/svg11.dtd" >
<svg xmlns="http://www.w3.org/2000/svg" xmlns:xlink="http://www.w3.org/1999/xlink" version="1.1" viewBox="-10 0 1010 1000">
   <path fill="currentColor"
d="M305 161l-43 60c-35 -37 -110 -85 -171 -115l41 -53c62 27 137 72 173 108zM265 420l-43 62c-36 -35 -113 -80 -175 -108l41 -55c60 26 139 68 177 101zM230 576l57 44c-45 106 -105 229 -156 322l-66 -45c47 -77 115 -209 165 -321zM848 200h-410v126h410v-126zM438 390
v26c0 161 -19 388 -138 538c-11 -14 -41 -39 -56 -48c110 -141 122 -341 122 -490v-279h251c-13 -26 -28 -57 -43 -80l69 -18c19 30 41 70 54 98h216v253h-475zM764 430l44 -29c33 31 70 75 86 106l-46 33c-16 -31 -52 -76 -84 -110zM943 609h-209c37 136 110 239 232 286
c-16 13 -35 38 -45 57c-115 -53 -187 -149 -232 -281c-32 130 -100 226 -250 285c-7 -16 -27 -40 -41 -53c154 -58 213 -156 237 -294h-181v-63h190c5 -44 8 -91 10 -141h67c-2 50 -5 97 -10 141h232v63z" />
</svg>
