<?xml version="1.0" standalone="no"?>
<!DOCTYPE svg PUBLIC "-//W3C//DTD SVG 1.1//EN" "http://www.w3.org/Graphics/SVG/1.1/DTD/svg11.dtd" >
<svg xmlns="http://www.w3.org/2000/svg" xmlns:xlink="http://www.w3.org/1999/xlink" version="1.1" viewBox="-10 0 1010 1000">
   <path fill="currentColor"
d="M282 158l-45 57c-32 -32 -99 -79 -154 -108l42 -51c56 26 123 70 157 102zM251 414l-44 61c-34 -32 -106 -74 -165 -99l42 -55c58 24 131 63 167 93zM184 586l58 38c-33 103 -78 227 -117 318l-66 -36c36 -79 88 -208 125 -320zM421 417h166s0 24 -1 34
c-8 318 -15 425 -39 458c-16 21 -32 29 -57 31c-21 3 -57 2 -94 1c-2 -21 -8 -48 -18 -67c36 3 68 3 82 3c13 1 21 -1 28 -12c15 -22 24 -115 31 -379h-103c-14 190 -50 358 -151 468c-12 -16 -34 -37 -52 -46c127 -135 140 -378 145 -632h-86v-68h165
c-12 -38 -40 -100 -65 -145l64 -19c28 47 58 108 68 145l-55 19h159v68h-182c-2 48 -3 95 -5 141zM624 764l44 -51c86 46 191 116 242 169l-47 58c-49 -55 -153 -128 -239 -176zM881 596l-49 49c-28 -48 -95 -118 -154 -167l46 -42c59 46 128 114 157 160zM748 48l64 15
c-4 17 -8 33 -13 49c37 93 101 221 165 293c-15 12 -39 37 -51 52c-53 -69 -105 -176 -141 -264c-36 99 -84 191 -146 259c-11 -12 -36 -34 -52 -45c83 -90 144 -230 174 -359z" />
</svg>
