<?xml version="1.0" standalone="no"?>
<!DOCTYPE svg PUBLIC "-//W3C//DTD SVG 1.1//EN" "http://www.w3.org/Graphics/SVG/1.1/DTD/svg11.dtd" >
<svg xmlns="http://www.w3.org/2000/svg" xmlns:xlink="http://www.w3.org/1999/xlink" version="1.1" viewBox="-10 0 1010 1000">
   <path fill="currentColor"
d="M388 232v129h-71v-197h272c-14 -33 -32 -73 -50 -103l68 -20c23 38 49 87 63 123h256v197h-73v-129h-465zM475 303l38 -47c62 27 134 73 168 109l-40 53c-33 -37 -105 -85 -166 -115zM241 424l-36 63c-35 -31 -108 -72 -164 -96l33 -57c56 21 129 61 167 90zM122 934
l-56 -46c41 -74 101 -198 146 -306l50 46c-41 100 -94 217 -140 306zM95 116l39 -50c50 29 113 75 145 110l-40 56c-31 -34 -94 -85 -144 -116zM361 462l63 18c-15 91 -38 213 -76 287l-63 -26c38 -73 65 -189 76 -279zM596 856h140c42 0 49 -25 54 -176c16 12 46 24 66 30
c-9 169 -29 214 -115 214h-151c-77 0 -105 -18 -112 -78c-44 36 -91 67 -145 95c-10 -16 -30 -43 -44 -57c71 -36 134 -79 188 -129v-337h70v265c90 -105 153 -231 190 -360l74 18c-55 166 -139 322 -264 444v31c0 34 8 40 49 40zM803 458l62 -17c43 90 81 206 88 280
l-67 19c-7 -73 -42 -192 -83 -282z" />
</svg>
