<?xml version="1.0" standalone="no"?>
<!DOCTYPE svg PUBLIC "-//W3C//DTD SVG 1.1//EN" "http://www.w3.org/Graphics/SVG/1.1/DTD/svg11.dtd" >
<svg xmlns="http://www.w3.org/2000/svg" xmlns:xlink="http://www.w3.org/1999/xlink" version="1.1" viewBox="-10 0 1010 1000">
   <path fill="currentColor"
d="M946 289v65h-632v-65h269v-95h-208v-63h208v-88h73v88h226v63h-226v95h290zM937 501l-33 53c-49 -36 -147 -89 -222 -122l32 -48c71 30 170 81 223 117zM500 382l45 37c-63 55 -144 109 -211 141l-36 -55c63 -26 143 -71 202 -123zM288 158l-36 61
c-35 -34 -105 -80 -160 -109l35 -53c55 25 127 68 161 101zM234 420l-35 63c-34 -32 -105 -76 -159 -103l34 -56c54 25 125 65 160 96zM119 939l-53 -51c45 -76 112 -205 161 -317l47 50c-45 103 -104 226 -155 318zM520 627l-7 8c29 49 68 93 117 129
c57 -40 99 -86 125 -137h-235zM802 566l49 22c-29 83 -82 156 -159 215c76 43 167 72 269 88c-16 15 -36 44 -45 64c-110 -21 -206 -58 -287 -109c-81 49 -184 87 -308 111c-8 -18 -25 -43 -42 -60c117 -20 214 -53 290 -96c-40 -34 -75 -74 -105 -119
c-37 34 -77 64 -116 88c-11 -14 -36 -40 -53 -52c103 -56 202 -145 258 -245l66 21c-15 26 -31 51 -50 75h219z" />
</svg>
