<?xml version="1.0" standalone="no"?>
<!DOCTYPE svg PUBLIC "-//W3C//DTD SVG 1.1//EN" "http://www.w3.org/Graphics/SVG/1.1/DTD/svg11.dtd" >
<svg xmlns="http://www.w3.org/2000/svg" xmlns:xlink="http://www.w3.org/1999/xlink" version="1.1" viewBox="-10 0 1010 1000">
   <path fill="currentColor"
d="M938 157v70h-598v-70h263c-9 -31 -23 -71 -36 -101l70 -18c18 37 37 87 46 119h255zM307 154l-43 61c-36 -29 -109 -75 -164 -104l41 -54c54 26 129 69 166 97zM243 415l-41 62c-36 -27 -108 -69 -162 -97l40 -55c53 24 127 64 163 90zM136 940l-66 -49
c44 -78 107 -207 154 -320l57 48c-41 105 -97 227 -145 321zM604 479l-44 53c-19 -25 -53 -59 -88 -90c-32 59 -69 110 -110 150c-12 -11 -40 -34 -55 -44c78 -69 138 -177 171 -295l67 15c-12 40 -27 78 -42 115c37 31 79 69 101 96zM956 652v70h-291v235h-74v-235h-279
v-70h279v-92h54c-14 -12 -32 -26 -43 -33c72 -64 126 -163 154 -273l67 16c-10 38 -23 75 -38 109c53 44 114 100 146 138l-48 51c-27 -36 -78 -86 -127 -129c-26 47 -58 89 -91 123v90h291z" />
</svg>
