<?xml version="1.0" standalone="no"?>
<!DOCTYPE svg PUBLIC "-//W3C//DTD SVG 1.1//EN" "http://www.w3.org/Graphics/SVG/1.1/DTD/svg11.dtd" >
<svg xmlns="http://www.w3.org/2000/svg" xmlns:xlink="http://www.w3.org/1999/xlink" version="1.1" viewBox="-10 0 1010 1000">
   <path fill="currentColor"
d="M600 40l60 25c-6 10 -12 19 -18 29c88 118 197 195 322 259c-18 15 -37 39 -47 59c-121 -70 -223 -148 -311 -264c-80 110 -187 207 -299 271c-11 -16 -31 -38 -48 -51c134 -72 269 -197 341 -328zM792 440l52 20c-42 69 -98 154 -148 222l-59 -21
c34 -48 71 -107 101 -155h-347v-62h390zM536 619l52 -24c37 52 84 124 107 167l-55 29c-22 -44 -67 -118 -104 -172zM544 298l56 -26c31 38 65 88 82 120l-59 31c-17 -34 -50 -87 -79 -125zM291 160l-37 61c-34 -34 -106 -81 -162 -110l36 -54c55 26 128 69 163 103z
M237 421l-35 63c-35 -32 -107 -77 -162 -105l35 -55c54 25 126 66 162 97zM229 570l46 50c-46 103 -104 225 -155 318l-54 -51c45 -75 113 -206 163 -317zM322 917l-59 -29c37 -54 70 -141 89 -205l58 22c-21 66 -51 155 -88 212zM568 883h146c34 0 40 -13 44 -96
c14 11 42 21 62 25c-9 106 -30 132 -98 132h-161c-90 0 -112 -19 -112 -90v-187h69v187c0 24 7 29 50 29zM790 692l58 -22c43 65 87 150 106 207l-60 27c-19 -58 -63 -147 -104 -212z" />
</svg>
