<?xml version="1.0" standalone="no"?>
<!DOCTYPE svg PUBLIC "-//W3C//DTD SVG 1.1//EN" "http://www.w3.org/Graphics/SVG/1.1/DTD/svg11.dtd" >
<svg xmlns="http://www.w3.org/2000/svg" xmlns:xlink="http://www.w3.org/1999/xlink" version="1.1" viewBox="-10 0 1010 1000">
   <path fill="currentColor"
d="M285 155l-44 59c-32 -33 -101 -79 -157 -107l43 -53c56 26 124 68 158 101zM247 412l-42 61c-34 -31 -105 -73 -164 -99l42 -54c58 23 129 61 164 92zM192 587l58 38c-37 104 -87 226 -130 318l-65 -39c40 -77 97 -206 137 -317zM843 56h68v899h-68v-291h-120v271h-63
v-336h183v-83h-454c-1 28 -2 55 -4 83h182v336h-63v-271h-126c-14 105 -42 206 -97 294c-13 -13 -41 -32 -59 -41c92 -146 103 -328 103 -507v-352h66v245h115v-230h63v295h-178v42v40h452v-82h-183v-295h62v230h121v-247z" />
</svg>
