<?xml version="1.0" standalone="no"?>
<!DOCTYPE svg PUBLIC "-//W3C//DTD SVG 1.1//EN" "http://www.w3.org/Graphics/SVG/1.1/DTD/svg11.dtd" >
<svg xmlns="http://www.w3.org/2000/svg" xmlns:xlink="http://www.w3.org/1999/xlink" version="1.1" viewBox="-10 0 1010 1000">
   <path fill="currentColor"
d="M799 238v-91h-375v91h375zM799 390v-93h-375v93h375zM872 85v367h-518v-367h518zM266 434l-43 58c-40 -28 -118 -76 -176 -110l42 -52c57 30 137 76 177 104zM134 943l-63 -50c54 -75 131 -207 189 -319l54 49c-53 104 -123 228 -180 320zM93 109l44 -51
c58 31 140 78 182 107l-45 57c-41 -29 -121 -79 -181 -113zM433 861l172 -40c2 20 7 47 11 63c-215 54 -245 64 -265 76c-5 -21 -16 -55 -27 -75c16 -6 37 -18 37 -53v-339h72v121h173v66h-173v181zM754 874h106c29 0 34 -17 37 -118c16 13 44 23 64 28
c-7 123 -27 156 -94 156h-123c-79 0 -99 -22 -99 -99v-344h71v162c67 -31 135 -69 178 -103l53 55c-65 42 -152 83 -231 114v115c0 29 6 34 38 34z" />
</svg>
