<?xml version="1.0" standalone="no"?>
<!DOCTYPE svg PUBLIC "-//W3C//DTD SVG 1.1//EN" "http://www.w3.org/Graphics/SVG/1.1/DTD/svg11.dtd" >
<svg xmlns="http://www.w3.org/2000/svg" xmlns:xlink="http://www.w3.org/1999/xlink" version="1.1" viewBox="-10 0 1010 1000">
   <path fill="currentColor"
d="M539 262v141c0 39 -8 57 -36 68c-26 10 -65 11 -130 11c-3 -19 -13 -46 -23 -65c45 1 87 1 99 0c13 0 17 -3 17 -15v-358h73v127c17 23 36 46 59 68c56 -37 125 -91 167 -131l63 43c-56 44 -127 93 -185 128c73 58 165 104 261 128c-16 15 -37 42 -47 61
c-122 -38 -237 -113 -318 -206zM376 148l43 22c-54 148 -170 249 -292 305c-10 -16 -35 -43 -49 -54c99 -40 192 -111 246 -204h-199v-66h238zM206 577l37 12c-25 164 -85 269 -170 326c-9 -14 -31 -39 -44 -48c68 -42 117 -117 143 -225h-105v-63h128zM468 775l-40 52
c-22 -33 -61 -77 -102 -116v163c0 36 -5 54 -29 66c-21 11 -56 12 -107 12c-2 -19 -10 -46 -19 -66c35 1 64 1 75 0c9 0 12 -2 12 -12v-397h68v152l17 15c27 -33 58 -75 77 -105l57 31c-31 37 -66 77 -97 107c36 34 69 70 88 98zM615 594l40 18c-35 152 -108 261 -196 323
c-10 -13 -34 -36 -50 -46c73 -46 134 -126 167 -228h-115v-64h143zM872 539l55 42c-41 46 -91 99 -132 136c46 65 106 121 173 152c-15 12 -38 39 -49 58c-74 -41 -138 -115 -185 -202v153c0 37 -6 56 -30 69c-23 11 -59 13 -114 13c-2 -21 -11 -48 -19 -69c38 1 70 1 80 1
c11 -1 14 -4 14 -14v-401h69v129c8 21 18 41 29 61c39 -38 82 -90 109 -128z" />
</svg>
