<?xml version="1.0" standalone="no"?>
<!DOCTYPE svg PUBLIC "-//W3C//DTD SVG 1.1//EN" "http://www.w3.org/Graphics/SVG/1.1/DTD/svg11.dtd" >
<svg xmlns="http://www.w3.org/2000/svg" xmlns:xlink="http://www.w3.org/1999/xlink" version="1.1" viewBox="-10 0 1010 1000">
   <path fill="currentColor"
d="M299 165l-48 57c-33 -36 -103 -85 -162 -116l45 -51c59 29 130 75 165 110zM259 421l-45 60c-36 -33 -111 -79 -173 -107l43 -54c61 26 137 69 175 101zM134 941l-63 -44c44 -76 109 -206 156 -319l54 42c-42 105 -99 228 -147 321zM803 512v112h150v66h-150v265h-68
v-265h-231c-9 95 -42 193 -161 267c-10 -15 -33 -39 -49 -50c102 -62 133 -141 142 -217h-145v-66h148v-112h67v112h229v-112h68zM946 222h-196c51 78 133 148 218 184c-15 12 -37 38 -48 55c-97 -47 -189 -139 -242 -239h-105c-30 59 -70 115 -123 165h138v-108h67v108h147
v62h-147v129h-67v-129h-139v-61c-35 32 -75 62 -121 88c-9 -17 -31 -43 -47 -54c98 -52 166 -123 212 -200h-177v-65h210c16 -38 27 -76 34 -113l72 8c-7 35 -17 70 -30 105h344v65z" />
</svg>
