<?xml version="1.0" standalone="no"?>
<!DOCTYPE svg PUBLIC "-//W3C//DTD SVG 1.1//EN" "http://www.w3.org/Graphics/SVG/1.1/DTD/svg11.dtd" >
<svg xmlns="http://www.w3.org/2000/svg" xmlns:xlink="http://www.w3.org/1999/xlink" version="1.1" viewBox="-10 0 1010 1000">
   <path fill="currentColor"
d="M321 159l-41 62c-39 -35 -119 -82 -183 -112l40 -54c63 27 144 71 184 104zM262 427l-39 61c-38 -33 -116 -79 -179 -107l38 -55c62 25 141 68 180 101zM258 574l53 49c-52 104 -119 229 -177 321l-61 -50c53 -77 129 -207 185 -320zM777 585h-295c31 75 77 137 140 184
c69 -46 121 -106 155 -184zM445 278v87h363v-87h-363zM445 137v85h363v-85h-363zM941 585h-85c-38 95 -98 168 -174 223c75 42 168 68 280 82c-14 14 -32 43 -41 62c-124 -18 -224 -51 -303 -103c-86 47 -188 79 -303 103c-7 -16 -26 -48 -39 -62c109 -19 204 -45 284 -85
c-65 -56 -113 -129 -147 -220h-99v-66h283c-11 -26 -27 -54 -41 -78l61 -17h-240v-346h502v346h-249c19 29 40 66 53 95h258v66z" />
</svg>
