<?xml version="1.0" standalone="no"?>
<!DOCTYPE svg PUBLIC "-//W3C//DTD SVG 1.1//EN" "http://www.w3.org/Graphics/SVG/1.1/DTD/svg11.dtd" >
<svg xmlns="http://www.w3.org/2000/svg" xmlns:xlink="http://www.w3.org/1999/xlink" version="1.1" viewBox="-10 0 1010 1000">
   <path fill="currentColor"
d="M278 176l-41 57c-30 -36 -94 -88 -145 -122l39 -51c50 31 115 80 147 116zM226 434l-39 60c-31 -35 -96 -82 -147 -115l37 -52c51 29 116 75 149 107zM120 937l-54 -50c43 -75 108 -198 155 -308l48 49c-43 101 -100 220 -149 309zM458 717h305v-87h-293
c-2 27 -5 57 -12 87zM763 569v-73h71v452h-71v-171h-321c-20 63 -56 126 -115 178c-12 -12 -40 -31 -57 -41c115 -100 131 -237 131 -329v-87h70v71h292zM767 209h-305c36 53 92 95 160 128c62 -33 112 -75 145 -128zM948 209h-103c-36 65 -89 115 -152 157
c78 26 170 44 269 52c-13 15 -31 43 -41 63c-114 -14 -216 -38 -302 -76c-85 39 -183 65 -290 85c-5 -15 -21 -44 -33 -59c92 -14 180 -33 255 -62c-64 -38 -117 -86 -156 -145l42 -15h-126v-65h271c-11 -28 -28 -60 -45 -86l62 -20c21 32 44 75 57 106h292v65z" />
</svg>
