<?xml version="1.0" standalone="no"?>
<!DOCTYPE svg PUBLIC "-//W3C//DTD SVG 1.1//EN" "http://www.w3.org/Graphics/SVG/1.1/DTD/svg11.dtd" >
<svg xmlns="http://www.w3.org/2000/svg" xmlns:xlink="http://www.w3.org/1999/xlink" version="1.1" viewBox="-10 0 1010 1000">
   <path fill="currentColor"
d="M685 194h-193c-26 41 -55 81 -84 117h202c25 -32 54 -77 75 -117zM818 494v-122h-168v122h168zM818 675v-123h-168v123h168zM416 494h164v-122h-164v122zM580 552h-164v123h164v-123zM348 736v-359c-14 14 -26 26 -40 38c-12 -13 -40 -41 -56 -54
c96 -76 186 -196 240 -317l70 21c-9 22 -20 43 -32 64h196l15 -4l49 35c-28 50 -63 105 -99 151h197v425h-540zM311 161l-43 62c-38 -35 -114 -84 -175 -117l42 -52c60 28 138 74 176 107zM257 421l-42 61c-38 -33 -115 -79 -176 -107l41 -55c61 26 139 70 177 101zM229 577
l57 43c-44 105 -104 230 -155 322l-63 -43c46 -78 112 -209 161 -322zM272 839h678v70h-678v-70z" />
</svg>
