<?xml version="1.0" standalone="no"?>
<!DOCTYPE svg PUBLIC "-//W3C//DTD SVG 1.1//EN" "http://www.w3.org/Graphics/SVG/1.1/DTD/svg11.dtd" >
<svg xmlns="http://www.w3.org/2000/svg" xmlns:xlink="http://www.w3.org/1999/xlink" version="1.1" viewBox="-10 0 1010 1000">
   <path fill="currentColor"
d="M311 167l-47 60c-36 -35 -109 -84 -168 -116l44 -53c59 28 134 75 171 109zM252 424l-46 60c-35 -33 -108 -81 -166 -112l44 -53c57 27 131 72 168 105zM135 934l-69 -47c43 -76 103 -206 147 -317l60 46c-39 104 -91 226 -138 318zM840 690l66 34
c-111 117 -311 192 -528 231c-8 -20 -24 -46 -40 -64c207 -30 405 -98 502 -201zM648 487l59 25c-73 75 -196 135 -312 170c-10 -15 -28 -37 -43 -51c109 -28 232 -82 296 -144zM737 592l64 30c-92 88 -246 152 -396 189c-8 -17 -26 -42 -42 -57c140 -30 295 -87 374 -162z
M947 404h-184c52 62 129 118 202 148c-17 13 -38 39 -49 57c-85 -41 -177 -123 -233 -205h-131c-60 90 -143 159 -239 206c-10 -14 -39 -40 -55 -52c83 -35 154 -86 207 -154h-164v-62h205c13 -22 24 -47 34 -71c-131 8 -154 12 -172 19c-3 -15 -14 -54 -22 -73
c16 -3 35 -15 57 -32c23 -17 101 -80 152 -145l74 34c-51 51 -108 101 -164 140l312 -19c-23 -26 -46 -53 -68 -75l51 -35c53 54 123 130 157 177l-54 41c-11 -15 -24 -33 -40 -53l-203 15c-10 27 -20 53 -32 77h359v62z" />
</svg>
