<?xml version="1.0" standalone="no"?>
<!DOCTYPE svg PUBLIC "-//W3C//DTD SVG 1.1//EN" "http://www.w3.org/Graphics/SVG/1.1/DTD/svg11.dtd" >
<svg xmlns="http://www.w3.org/2000/svg" xmlns:xlink="http://www.w3.org/1999/xlink" version="1.1" viewBox="-10 0 1010 1000">
   <path fill="currentColor"
d="M290 167l-48 56c-34 -32 -104 -83 -158 -117l46 -49c53 32 124 80 160 110zM252 428l-47 57c-36 -31 -108 -79 -164 -111l45 -51c55 30 128 75 166 105zM128 944l-67 -40c42 -78 100 -207 141 -319l60 41c-39 104 -90 227 -134 318zM402 693h152v-83h-152v83zM554 475
h-152v78h152v-78zM618 415v458c0 33 -6 52 -27 63c-20 12 -52 13 -95 13c-3 -19 -11 -46 -19 -65c30 1 56 1 65 1c9 -1 12 -3 12 -12v-124h-152v204h-65v-538h281zM833 872v-475h64v475c0 38 -7 56 -32 68c-25 11 -65 12 -124 12c-3 -19 -12 -46 -21 -65c45 1 85 1 97 0
c12 0 16 -3 16 -15zM755 433v359h-61v-359h61zM618 39l63 31c-8 11 -16 22 -25 32c88 80 194 128 309 168c-18 16 -38 41 -47 60c-112 -46 -213 -101 -302 -184c-54 53 -119 102 -187 142h376v60h-383v-56c-37 23 -76 41 -115 58c-10 -19 -31 -44 -50 -61
c140 -51 284 -145 361 -250z" />
</svg>
