<?xml version="1.0" standalone="no"?>
<!DOCTYPE svg PUBLIC "-//W3C//DTD SVG 1.1//EN" "http://www.w3.org/Graphics/SVG/1.1/DTD/svg11.dtd" >
<svg xmlns="http://www.w3.org/2000/svg" xmlns:xlink="http://www.w3.org/1999/xlink" version="1.1" viewBox="-10 0 1010 1000">
   <path fill="currentColor"
d="M378 338v123h158v-123h-158zM378 523v125h158v-125h-158zM378 154v122h158v-122h-158zM314 88h289v625h-289v-625zM490 762l56 -31c41 47 91 113 114 153l-59 37c-22 -42 -71 -110 -111 -159zM355 734l69 18c-34 77 -91 157 -144 207c-12 -11 -42 -31 -58 -41
c53 -46 104 -116 133 -184zM852 44h67v819c0 46 -11 67 -39 79s-75 14 -157 14c-3 -19 -12 -51 -22 -70c59 2 112 1 127 0c17 0 24 -5 24 -22v-820zM678 146h66v568h-66v-568zM84 107l43 -53c56 26 124 68 158 101l-44 59c-32 -33 -101 -79 -157 -107zM41 374l42 -54
c58 23 129 61 164 92l-42 61c-34 -31 -105 -73 -164 -99zM62 904c40 -77 97 -205 138 -317l59 39c-37 104 -87 226 -130 318z" />
</svg>
