<?xml version="1.0" standalone="no"?>
<!DOCTYPE svg PUBLIC "-//W3C//DTD SVG 1.1//EN" "http://www.w3.org/Graphics/SVG/1.1/DTD/svg11.dtd" >
<svg xmlns="http://www.w3.org/2000/svg" xmlns:xlink="http://www.w3.org/1999/xlink" version="1.1" viewBox="-10 0 1010 1000">
   <path fill="currentColor"
d="M293 163l-46 58c-33 -32 -98 -77 -151 -105l44 -51c52 25 119 67 153 98zM246 426l-43 61c-36 -30 -106 -73 -163 -99l42 -54c55 25 127 63 164 92zM201 586l57 43c-35 97 -84 213 -126 301l-67 -43c40 -74 95 -196 136 -301zM708 408h-186c-15 38 -36 76 -60 111h309
c-24 -35 -46 -73 -63 -111zM518 224v116h193v-116h-193zM738 685v-109h-247v109h247zM799 742h-308v98c0 33 11 41 74 41h224c50 0 59 -17 64 -114c16 12 43 22 62 26c-10 119 -31 150 -122 150h-230c-106 0 -137 -20 -137 -103v-271c-36 47 -76 88 -115 117
c-13 -17 -36 -43 -52 -56c71 -46 146 -133 189 -222h-178v-68h176v-116h-134v-67h134v-112h72v112h193v-112h73v112h149v67h-149v116h177v68h-179c42 82 112 158 185 198c-18 13 -42 39 -53 58c-41 -27 -80 -65 -115 -108v186z" />
</svg>
