<?xml version="1.0" standalone="no"?>
<!DOCTYPE svg PUBLIC "-//W3C//DTD SVG 1.1//EN" "http://www.w3.org/Graphics/SVG/1.1/DTD/svg11.dtd" >
<svg xmlns="http://www.w3.org/2000/svg" xmlns:xlink="http://www.w3.org/1999/xlink" version="1.1" viewBox="-10 0 1010 1000">
   <path fill="currentColor"
d="M932 134v67h-616v-67h268c-11 -25 -24 -54 -36 -76l68 -21c18 29 37 67 50 97h266zM294 168l-38 61c-38 -32 -113 -80 -171 -112l37 -54c57 30 133 74 172 105zM252 431l-37 61c-37 -32 -112 -80 -171 -109l35 -55c58 27 134 71 173 103zM244 583l48 48
c-48 102 -111 221 -164 312l-55 -50c48 -74 119 -201 171 -310zM454 424v128h338v-128h-338zM778 872h86c25 0 30 -18 33 -129c14 12 43 23 63 28c-7 133 -26 166 -89 166h-102c-74 0 -93 -22 -93 -95v-227h-112c-17 178 -68 280 -260 337c-8 -18 -26 -45 -41 -58
c173 -45 216 -129 230 -279h-110v-227c-15 12 -30 24 -44 35c-13 -13 -42 -36 -60 -48c66 -42 139 -106 187 -166l69 25c-33 42 -76 87 -120 126h418c-40 -36 -89 -77 -131 -108l46 -45c65 49 153 118 197 161l-48 52c-9 -9 -20 -20 -32 -30v225h-117v227c0 26 5 30 30 30z
" />
</svg>
