<?xml version="1.0" standalone="no"?>
<!DOCTYPE svg PUBLIC "-//W3C//DTD SVG 1.1//EN" "http://www.w3.org/Graphics/SVG/1.1/DTD/svg11.dtd" >
<svg xmlns="http://www.w3.org/2000/svg" xmlns:xlink="http://www.w3.org/1999/xlink" version="1.1" viewBox="-10 0 1010 1000">
   <path fill="currentColor"
d="M436 110l69 18c-37 83 -96 169 -153 224c-14 -10 -43 -31 -61 -41c58 -50 112 -126 145 -201zM330 159l-44 62c-39 -36 -120 -83 -187 -112l40 -55c67 26 149 70 191 105zM271 429l-41 62c-41 -35 -119 -81 -185 -108l41 -56c63 25 144 67 185 102zM141 944l-62 -51
c54 -75 132 -207 189 -319l54 49c-52 104 -122 228 -181 321zM804 600v-77h-326v77h326zM478 863h326v-81h-326v81zM804 729v-76h-326v76h326zM771 241l64 27c-69 82 -172 146 -287 196h330v488h-74v-31h-326v36h-72v-441c-39 13 -79 24 -119 33c-4 -15 -22 -51 -33 -66
c140 -29 283 -76 392 -141h-64v-292h66v291c48 -30 90 -63 123 -100zM743 136l59 -31c62 59 132 142 162 199l-62 35c-29 -57 -96 -143 -159 -203z" />
</svg>
