<?xml version="1.0" standalone="no"?>
<!DOCTYPE svg PUBLIC "-//W3C//DTD SVG 1.1//EN" "http://www.w3.org/Graphics/SVG/1.1/DTD/svg11.dtd" >
<svg xmlns="http://www.w3.org/2000/svg" xmlns:xlink="http://www.w3.org/1999/xlink" version="1.1" viewBox="-10 0 1010 1000">
   <path fill="currentColor"
d="M854 263v-125h-109v125h109zM913 81v239h-225v-239h225zM438 449v-62h439v62h-439zM574 263v-125h-103v125h103zM633 81v239h-219v-239h219zM271 428l-41 62c-40 -34 -119 -80 -184 -108l40 -55c63 25 144 67 185 101zM142 943l-63 -50c54 -75 132 -206 189 -320l54 49
c-52 106 -122 229 -180 321zM99 109l41 -55c66 25 149 69 190 105l-43 62c-40 -37 -121 -84 -188 -112zM945 583h-357c-8 25 -17 49 -25 73h321s0 21 -3 31c-22 146 -44 212 -74 238c-19 17 -36 23 -65 24c-24 2 -71 2 -120 -1c-1 -21 -9 -48 -20 -67c49 5 96 6 114 6
c17 0 27 -1 37 -9c19 -16 37 -62 53 -161h-338c17 -36 34 -87 49 -134h-154v-63h582v63z" />
</svg>
