<?xml version="1.0" standalone="no"?>
<!DOCTYPE svg PUBLIC "-//W3C//DTD SVG 1.1//EN" "http://www.w3.org/Graphics/SVG/1.1/DTD/svg11.dtd" >
<svg xmlns="http://www.w3.org/2000/svg" xmlns:xlink="http://www.w3.org/1999/xlink" version="1.1" viewBox="-10 0 1010 1000">
   <path fill="currentColor"
d="M279 156l-45 55c-31 -33 -96 -78 -150 -106l43 -49c54 25 119 67 152 100zM238 410l-42 57c-32 -30 -100 -70 -155 -95l41 -51c55 22 122 59 156 89zM126 942l-64 -38c40 -77 97 -206 138 -317l56 37c-37 104 -87 227 -130 318zM297 500l-53 -27c35 -56 53 -155 54 -238
l56 9c0 86 -17 192 -57 256zM377 955v-908h68v908h-68zM452 202l53 -18c19 44 40 102 48 136l-56 23c-7 -36 -26 -96 -45 -141zM847 847v-190h-226v190h226zM957 416h-191v174h150v363h-69v-39h-226v42h-68v-366h143v-174h-184v-67h184v-186c-50 10 -100 19 -147 26
c-3 -16 -13 -39 -22 -55c122 -20 262 -53 340 -89l51 53c-43 18 -95 34 -152 49v202h191v67z" />
</svg>
