<?xml version="1.0" standalone="no"?>
<!DOCTYPE svg PUBLIC "-//W3C//DTD SVG 1.1//EN" "http://www.w3.org/Graphics/SVG/1.1/DTD/svg11.dtd" >
<svg xmlns="http://www.w3.org/2000/svg" xmlns:xlink="http://www.w3.org/1999/xlink" version="1.1" viewBox="-10 0 1010 1000">
   <path fill="currentColor"
d="M281 159l-45 58c-31 -34 -95 -81 -150 -110l43 -53c54 28 119 72 152 105zM241 417l-44 59c-31 -32 -98 -76 -153 -103l42 -54c55 26 122 67 155 98zM128 943l-66 -37c39 -78 95 -207 133 -318l59 37c-35 104 -84 227 -126 318zM478 43v216h118v69h-118v72
c25 36 93 143 109 169l-38 54c-13 -31 -44 -94 -71 -142v475h-67v-464c-31 109 -72 213 -114 277c-8 -18 -25 -46 -36 -61c57 -85 115 -244 143 -380h-123v-69h130v-216h67zM685 828h182v-237h-182v237zM867 298h-182v225h182v-225zM780 228h155v717h-68v-47h-182v59h-66
v-729h91c15 -58 29 -133 37 -188l82 15c-16 56 -33 121 -49 173z" />
</svg>
