<?xml version="1.0" standalone="no"?>
<!DOCTYPE svg PUBLIC "-//W3C//DTD SVG 1.1//EN" "http://www.w3.org/Graphics/SVG/1.1/DTD/svg11.dtd" >
<svg xmlns="http://www.w3.org/2000/svg" xmlns:xlink="http://www.w3.org/1999/xlink" version="1.1" viewBox="-10 0 1010 1000">
   <path fill="currentColor"
d="M884 254l63 13c-22 88 -47 199 -71 268l-52 -13c23 -71 48 -189 60 -268zM636 542l-48 -35c28 -59 39 -162 41 -248l52 5c-1 96 -12 209 -45 278zM268 174l-53 50c-28 -33 -87 -83 -136 -116l50 -45c50 31 110 78 139 111zM237 434l-53 51c-30 -36 -93 -88 -145 -125
l50 -46c52 35 116 85 148 120zM130 937l-65 -38c39 -78 94 -209 133 -322l57 40c-35 104 -84 228 -125 320zM600 592l-37 63c-14 -31 -49 -93 -76 -139v440h-65v-436c-32 110 -78 221 -125 288c-9 -21 -26 -48 -39 -65c56 -76 112 -215 141 -338h-113v-71h136v-175
c-39 6 -77 12 -115 17c-3 -15 -11 -40 -19 -55c95 -14 205 -39 269 -64l49 55c-35 12 -76 24 -119 34v188h112v71h-112v25c20 25 97 137 113 162zM796 51v246c0 36 -1 73 -2 112c22 214 68 407 174 488c-16 12 -39 39 -49 58c-78 -69 -123 -189 -152 -336
c-26 118 -76 235 -169 338c-9 -17 -31 -43 -45 -54c161 -181 177 -414 177 -605v-247h66z" />
</svg>
