<?xml version="1.0" standalone="no"?>
<!DOCTYPE svg PUBLIC "-//W3C//DTD SVG 1.1//EN" "http://www.w3.org/Graphics/SVG/1.1/DTD/svg11.dtd" >
<svg xmlns="http://www.w3.org/2000/svg" xmlns:xlink="http://www.w3.org/1999/xlink" version="1.1" viewBox="-10 0 1010 1000">
   <path fill="currentColor"
d="M525 214l-68 25c-9 -44 -41 -115 -74 -168l64 -22c35 52 67 120 78 165zM280 171l-39 60c-32 -36 -98 -87 -150 -120l37 -52c52 30 119 78 152 112zM229 427l-36 61c-33 -33 -100 -79 -153 -108l34 -55c52 26 121 69 155 102zM214 571l48 48c-41 103 -96 225 -142 317
l-55 -49c42 -75 104 -205 149 -316zM542 313v529h116v-529h-116zM727 842h226v69h-704v-69h225v-529h-177v-70h360c31 -54 67 -138 87 -198l78 24c-28 58 -61 124 -90 174h187v70h-192v529zM302 417l62 -12c34 103 67 236 80 315l-68 16c-11 -79 -42 -215 -74 -319zM824 736
l-58 -16c32 -83 70 -220 87 -316l71 18c-28 104 -68 234 -100 314z" />
</svg>
