<?xml version="1.0" standalone="no"?>
<!DOCTYPE svg PUBLIC "-//W3C//DTD SVG 1.1//EN" "http://www.w3.org/Graphics/SVG/1.1/DTD/svg11.dtd" >
<svg xmlns="http://www.w3.org/2000/svg" xmlns:xlink="http://www.w3.org/1999/xlink" version="1.1" viewBox="-10 0 1010 1000">
   <path fill="currentColor"
d="M302 160l-44 60c-36 -35 -108 -83 -169 -113l42 -54c60 28 134 72 171 107zM256 416l-42 61c-37 -33 -110 -77 -171 -105l41 -54c60 24 135 65 172 98zM130 944l-65 -45c47 -78 113 -209 162 -322l58 44c-45 105 -105 230 -155 323zM744 566l43 21c-17 46 -41 88 -69 126
c49 86 144 160 247 193c-16 13 -36 38 -45 55c-97 -38 -186 -112 -242 -201c-91 97 -214 162 -339 198c-7 -17 -24 -44 -36 -57c156 -40 312 -133 389 -268h-190c-42 46 -92 89 -149 126c-11 -14 -34 -36 -48 -46c105 -63 180 -150 221 -224h-225v-63h280v-73h-204v-59h204
v-66h-249v-63h153c-12 -29 -37 -71 -63 -101l54 -21c27 31 55 74 67 102l-45 20h230l-37 -14c19 -30 43 -76 55 -108l66 21c-23 36 -46 74 -66 101h191v63h-285v66h222v59h-222v73h300v63h-384l33 6c-14 24 -30 50 -47 74h176z" />
</svg>
