<?xml version="1.0" standalone="no"?>
<!DOCTYPE svg PUBLIC "-//W3C//DTD SVG 1.1//EN" "http://www.w3.org/Graphics/SVG/1.1/DTD/svg11.dtd" >
<svg xmlns="http://www.w3.org/2000/svg" xmlns:xlink="http://www.w3.org/1999/xlink" version="1.1" viewBox="-10 0 1010 1000">
   <path fill="currentColor"
d="M310 161l-43 59c-36 -36 -110 -84 -172 -114l41 -53c61 27 138 72 174 108zM260 420l-43 62c-36 -35 -112 -80 -176 -108l42 -55c61 26 139 68 177 101zM233 577l57 45c-45 104 -106 226 -157 320l-64 -46c47 -77 114 -206 164 -319zM508 581l43 19
c-44 158 -141 264 -253 323c-10 -16 -34 -43 -50 -54c91 -43 170 -119 214 -221h-151v-65h184zM438 351v87h379v-87h-379zM438 209v86h379v-86h-379zM885 531l60 46c-53 49 -117 101 -171 140c48 57 111 107 191 138c-15 15 -38 44 -48 63c-121 -56 -203 -157 -254 -258v214
c0 39 -9 59 -37 71c-27 11 -71 11 -140 11c-3 -19 -12 -48 -22 -67c51 1 96 1 109 1c14 -1 18 -5 18 -17v-375h-221v-348h185c13 -35 25 -77 32 -108l84 16c-13 31 -27 64 -40 92h257v348h-225v12c16 52 40 107 74 158c52 -41 110 -95 148 -137z" />
</svg>
