<?xml version="1.0" standalone="no"?>
<!DOCTYPE svg PUBLIC "-//W3C//DTD SVG 1.1//EN" "http://www.w3.org/Graphics/SVG/1.1/DTD/svg11.dtd" >
<svg xmlns="http://www.w3.org/2000/svg" xmlns:xlink="http://www.w3.org/1999/xlink" version="1.1" viewBox="-10 0 1010 1000">
   <path fill="currentColor"
d="M299 155l-44 60c-34 -33 -103 -79 -161 -108l42 -54c58 27 128 69 163 102zM247 411l-42 61c-35 -32 -104 -74 -162 -99l41 -55c57 22 128 62 163 93zM135 942l-67 -43c46 -78 110 -208 156 -321l58 43c-42 105 -99 229 -147 321zM455 55l67 17c-19 73 -44 148 -71 218
v665h-65v-521c-23 43 -47 82 -73 118c-6 -17 -28 -54 -41 -71c80 -104 145 -264 183 -426zM621 170v189h207v-189h-207zM949 587h-170c45 97 117 201 179 255c-17 13 -39 35 -52 54c-52 -55 -109 -147 -152 -241v301h-63v-302c-45 97 -107 191 -172 245
c-6 -21 -23 -49 -34 -67c66 -53 134 -150 175 -245h-153v-66h184v-101h-133v-311h337v311h-141v101h195v66z" />
</svg>
