<?xml version="1.0" standalone="no"?>
<!DOCTYPE svg PUBLIC "-//W3C//DTD SVG 1.1//EN" "http://www.w3.org/Graphics/SVG/1.1/DTD/svg11.dtd" >
<svg xmlns="http://www.w3.org/2000/svg" xmlns:xlink="http://www.w3.org/1999/xlink" version="1.1" viewBox="-10 0 1010 1000">
   <path fill="currentColor"
d="M263 181l-47 49c-29 -36 -90 -90 -141 -126l45 -43c51 34 113 85 143 120zM228 448l-43 51c-31 -31 -94 -78 -146 -108l42 -46c50 28 115 73 147 103zM185 596l53 36c-36 100 -85 219 -127 306l-60 -35c39 -75 94 -199 134 -307zM310 624l57 12c-21 81 -53 169 -89 224
c-10 -7 -36 -20 -50 -27c36 -55 64 -133 82 -209zM622 561h-149v298c0 37 -6 56 -29 68c-22 11 -58 11 -112 11c-1 -18 -7 -44 -16 -65c36 1 68 1 78 0c11 -1 14 -4 14 -14v-298h-153v-62h153v-106h-106v-56c-22 22 -42 41 -64 59c-10 -11 -33 -35 -47 -46
c97 -74 192 -190 249 -308l58 19c-9 20 -20 41 -31 60c62 50 131 119 166 162l-43 45c-33 -44 -95 -109 -153 -159c-38 58 -82 113 -127 160h272v64h-109v106h149v62zM635 785l-55 19c-12 -45 -41 -121 -70 -177l54 -15c28 56 59 129 71 173zM854 190h-147
c12 154 30 294 66 411c40 -113 67 -250 81 -411zM879 125l39 7c-15 234 -52 419 -112 559c37 88 89 158 159 203c-15 12 -37 41 -47 59c-63 -47 -112 -110 -148 -187c-44 80 -97 142 -159 189c-10 -17 -29 -42 -44 -53c67 -47 124 -118 170 -214c-48 -136 -71 -306 -86 -498
h-39v-63h256z" />
</svg>
