<?xml version="1.0" standalone="no"?>
<!DOCTYPE svg PUBLIC "-//W3C//DTD SVG 1.1//EN" "http://www.w3.org/Graphics/SVG/1.1/DTD/svg11.dtd" >
<svg xmlns="http://www.w3.org/2000/svg" xmlns:xlink="http://www.w3.org/1999/xlink" version="1.1" viewBox="-10 0 1010 1000">
   <path fill="currentColor"
d="M587 264v-78h-246v-60h246v-81h79v81h227v60h-227v78h276v62h-642v-62h287zM311 165l-39 61c-38 -37 -114 -87 -178 -117l37 -55c62 28 141 74 180 111zM257 433l-37 62c-37 -35 -113 -83 -175 -113l36 -55c61 26 138 71 176 106zM250 568l48 49
c-48 107 -113 233 -166 326l-56 -50c50 -77 121 -211 174 -325zM432 441v106h357v-106h-357zM886 625l56 47c-50 34 -114 69 -167 96c51 57 116 103 195 129c-19 13 -42 39 -54 57c-149 -58 -246 -174 -298 -324c-38 38 -83 71 -133 101v142l167 -44c0 16 4 40 6 52
c-193 58 -222 68 -239 79c-4 -17 -16 -46 -26 -60c12 -6 24 -17 24 -53v-77c-46 23 -93 44 -140 60c-9 -14 -33 -44 -48 -58c117 -37 238 -95 318 -168h-193v-220h516v220h-189c15 41 33 80 57 116c50 -29 112 -67 148 -95z" />
</svg>
