<?xml version="1.0" standalone="no"?>
<!DOCTYPE svg PUBLIC "-//W3C//DTD SVG 1.1//EN" "http://www.w3.org/Graphics/SVG/1.1/DTD/svg11.dtd" >
<svg xmlns="http://www.w3.org/2000/svg" xmlns:xlink="http://www.w3.org/1999/xlink" version="1.1" viewBox="-10 0 1010 1000">
   <path fill="currentColor"
d="M941 590v71h-624v-71h269v-131h-213v-67h213v-117h-250v-69h151c-11 -39 -35 -96 -60 -139l69 -20c27 45 55 107 65 146l-41 13h212l-37 -11c23 -41 48 -106 61 -150l79 21c-23 49 -50 103 -72 140h162v69h-266v117h230v67h-230v131h282zM306 160l-44 60
c-36 -36 -108 -84 -169 -113l42 -54c60 28 134 72 171 107zM257 417l-42 61c-37 -34 -110 -78 -171 -106l41 -54c60 24 135 65 172 99zM229 577l58 44c-44 106 -103 230 -153 322l-65 -44c46 -77 112 -209 160 -322zM335 960l-64 -28c50 -49 90 -137 110 -218l65 15
c-20 83 -58 175 -111 231zM502 734l64 -6c15 67 27 154 28 206l-68 9c-1 -53 -11 -141 -24 -209zM649 730l63 -10c24 65 49 153 56 205l-67 13c-6 -53 -28 -142 -52 -208zM795 725l63 -22c42 70 84 163 98 223l-66 24c-14 -59 -53 -154 -95 -225z" />
</svg>
