<?xml version="1.0" standalone="no"?>
<!DOCTYPE svg PUBLIC "-//W3C//DTD SVG 1.1//EN" "http://www.w3.org/Graphics/SVG/1.1/DTD/svg11.dtd" >
<svg xmlns="http://www.w3.org/2000/svg" xmlns:xlink="http://www.w3.org/1999/xlink" version="1.1" viewBox="-10 0 1010 1000">
   <path fill="currentColor"
d="M387 155v124h-61v-188h601v187h-64v-123h-476zM817 283h-386v-57h386v57zM304 160l-44 60c-35 -35 -107 -84 -168 -113l42 -54c60 27 134 71 170 107zM255 417l-42 60c-36 -33 -109 -77 -170 -104l41 -55c60 24 135 65 171 99zM228 577l58 43c-44 106 -103 230 -153 323
l-66 -44c46 -78 113 -209 161 -322zM861 430l45 51c-29 25 -62 51 -96 76c30 111 83 218 150 269c-13 14 -34 42 -44 62c-70 -61 -122 -175 -154 -297c-22 15 -43 28 -64 41c29 115 15 231 -31 274c-26 28 -49 35 -90 36c-18 0 -42 -1 -68 -3c-1 -21 -6 -50 -18 -71
c29 4 56 5 75 5c22 0 39 -2 55 -20c23 -21 34 -78 28 -144c-91 77 -228 149 -346 186c-7 -19 -21 -45 -35 -62c132 -32 287 -112 369 -193c-6 -24 -14 -46 -23 -69c-73 60 -178 122 -260 156c-9 -18 -25 -44 -40 -60c90 -28 204 -89 271 -147c-13 -20 -28 -39 -46 -55
c-59 39 -126 73 -187 97c-7 -14 -27 -43 -39 -56c72 -25 153 -60 215 -101h-186v-63h573v63h-296c-10 9 -21 18 -33 26c42 40 74 91 95 143c61 -41 134 -99 180 -144z" />
</svg>
