<?xml version="1.0" standalone="no"?>
<!DOCTYPE svg PUBLIC "-//W3C//DTD SVG 1.1//EN" "http://www.w3.org/Graphics/SVG/1.1/DTD/svg11.dtd" >
<svg xmlns="http://www.w3.org/2000/svg" xmlns:xlink="http://www.w3.org/1999/xlink" version="1.1" viewBox="-10 0 1010 1000">
   <path fill="currentColor"
d="M577 303v-95h-227v-65h227v-100h73v100h242v65h-242v95h301v64h-373c-33 43 -78 96 -112 135l322 -10c-27 -30 -57 -60 -84 -84l55 -30c63 55 136 134 169 187l-58 35c-9 -17 -22 -36 -38 -55c-406 16 -450 18 -476 26c-4 -17 -17 -51 -23 -66c18 -4 48 -12 66 -28
c17 -15 63 -69 97 -110h-201v-64h282zM308 159l-42 60c-39 -35 -115 -82 -177 -112l41 -52c60 27 139 71 178 104zM252 429l-40 59c-37 -32 -113 -78 -173 -107l40 -53c58 26 135 69 173 101zM246 573l55 48c-49 105 -114 229 -170 322l-62 -50c51 -77 123 -207 177 -320z
M415 680v183h94v-183h-94zM663 680h-95v183h95v-183zM817 680h-95v183h95v-183zM886 863h71v67h-693v-67h84v-244h538v244z" />
</svg>
