<?xml version="1.0" standalone="no"?>
<!DOCTYPE svg PUBLIC "-//W3C//DTD SVG 1.1//EN" "http://www.w3.org/Graphics/SVG/1.1/DTD/svg11.dtd" >
<svg xmlns="http://www.w3.org/2000/svg" xmlns:xlink="http://www.w3.org/1999/xlink" version="1.1" viewBox="-10 0 1010 1000">
   <path fill="currentColor"
d="M386 188v100h-66v-161h269c-11 -23 -25 -49 -38 -70l74 -15c17 26 35 59 48 85h253v160h-69v-99h-471zM647 274l31 -48c81 31 191 79 247 112l-30 55c-55 -35 -163 -86 -248 -119zM559 219l53 29c-70 58 -164 115 -259 146l-35 -56c83 -23 176 -68 241 -119zM301 190
l-47 53c-34 -36 -105 -90 -160 -128l45 -47c56 35 127 87 162 122zM251 450l-45 55c-35 -33 -109 -83 -166 -115l42 -49c57 30 132 77 169 109zM221 581l54 43c-42 101 -99 219 -148 308l-62 -45c44 -74 109 -198 156 -306zM837 387l54 52c-29 7 -61 13 -96 18
c21 189 66 356 160 433c-16 13 -37 38 -48 56c-102 -93 -147 -270 -169 -480c-38 4 -77 9 -117 13v110c0 71 -4 171 -34 256l114 -36c-11 -40 -25 -79 -39 -114l50 -16c31 77 63 176 76 241l-53 18c-4 -22 -10 -48 -18 -76c-138 48 -162 58 -176 69c-9 -15 -34 -42 -48 -52
c59 -81 63 -204 63 -291v-103c-42 4 -85 7 -126 9v57c0 118 -25 286 -141 403c-10 -15 -38 -41 -51 -48c107 -107 124 -251 124 -357v-106c169 -11 365 -30 475 -56z" />
</svg>
