<?xml version="1.0" standalone="no"?>
<!DOCTYPE svg PUBLIC "-//W3C//DTD SVG 1.1//EN" "http://www.w3.org/Graphics/SVG/1.1/DTD/svg11.dtd" >
<svg xmlns="http://www.w3.org/2000/svg" xmlns:xlink="http://www.w3.org/1999/xlink" version="1.1" viewBox="-10 0 1010 1000">
   <path fill="currentColor"
d="M848 48l41 58c-138 37 -358 59 -538 69c-2 -18 -11 -43 -19 -59c178 -12 395 -35 516 -68zM793 325l-53 -18c23 -42 53 -111 69 -159l63 22c-25 55 -54 115 -79 155zM672 287l-64 25c-8 -34 -30 -89 -53 -130l60 -21c25 40 48 93 57 126zM482 301l-63 25
c-9 -32 -33 -82 -58 -120l59 -21c26 36 52 85 62 116zM302 164l-45 59c-36 -34 -107 -81 -165 -112l44 -52c57 29 130 73 166 105zM258 417l-44 61c-37 -32 -114 -78 -174 -106l41 -53c60 25 138 67 177 98zM214 570l58 44c-40 104 -95 226 -142 316l-65 -43
c44 -76 105 -205 149 -317zM947 755h-258c52 74 146 122 274 138c-16 15 -35 41 -43 61c-146 -27 -246 -93 -302 -199h-3c-43 100 -131 166 -315 203c-7 -17 -25 -44 -39 -59c154 -27 232 -74 274 -144h-242v-62h268c7 -25 13 -51 17 -80c-174 16 -203 20 -223 29
c-2 -14 -12 -46 -19 -63c23 -4 54 -17 92 -39c17 -9 47 -26 85 -51c-101 6 -121 9 -135 14c-4 -14 -14 -46 -20 -63c15 -2 32 -11 51 -25c20 -13 89 -65 135 -121l58 32c-39 39 -83 77 -126 107l123 -3c37 -27 77 -58 112 -89l50 42c-84 68 -172 129 -260 178l291 -25
c-20 -25 -42 -50 -64 -72l52 -29c56 53 116 127 142 178l-57 33c-8 -17 -20 -36 -34 -57l-232 22h52c-4 29 -9 57 -15 82h311v62z" />
</svg>
