<?xml version="1.0" standalone="no"?>
<!DOCTYPE svg PUBLIC "-//W3C//DTD SVG 1.1//EN" "http://www.w3.org/Graphics/SVG/1.1/DTD/svg11.dtd" >
<svg xmlns="http://www.w3.org/2000/svg" xmlns:xlink="http://www.w3.org/1999/xlink" version="1.1" viewBox="-10 0 1010 1000">
   <path fill="currentColor"
d="M803 649v-115h-379v115h379zM873 478v227h-516v-227h516zM532 839l-67 23c-6 -34 -25 -86 -47 -126l64 -20c21 38 43 90 50 123zM945 352v63h-662v-63h662zM898 89v198h-563v-198h67v137h174v-184h69v184h183v-137h70zM288 157l-36 62c-35 -34 -105 -80 -160 -109l35 -54
c55 26 127 69 161 101zM234 419l-35 63c-35 -31 -105 -75 -159 -103l34 -55c54 25 125 65 160 95zM227 570l47 50c-45 103 -104 226 -155 318l-53 -51c45 -76 112 -205 161 -317zM745 873h210v63h-696v-63h415c23 -46 50 -113 65 -160l67 23c-19 45 -41 96 -61 137z" />
</svg>
