<?xml version="1.0" standalone="no"?>
<!DOCTYPE svg PUBLIC "-//W3C//DTD SVG 1.1//EN" "http://www.w3.org/Graphics/SVG/1.1/DTD/svg11.dtd" >
<svg xmlns="http://www.w3.org/2000/svg" xmlns:xlink="http://www.w3.org/1999/xlink" version="1.1" viewBox="-10 0 1010 1000">
   <path fill="currentColor"
d="M320 157l-43 60c-39 -32 -117 -78 -179 -108l40 -54c62 27 141 70 182 102zM258 423l-40 62c-38 -30 -113 -75 -173 -103l39 -55c59 26 136 67 174 96zM253 574l56 48c-49 105 -114 228 -170 320l-64 -49c51 -75 124 -206 178 -319zM813 653h-364c45 58 109 106 185 144
c74 -36 135 -84 179 -144zM871 586l48 25c-46 95 -118 166 -207 220c77 30 165 50 259 63c-15 15 -35 43 -44 64c-107 -18 -206 -46 -294 -86c-99 44 -211 71 -327 88c-6 -19 -21 -49 -33 -66c99 -11 197 -31 284 -64c-77 -46 -140 -103 -186 -172l11 -5h-46v-63h248v-97
h-236v-341c58 -19 123 -47 160 -72l53 49c-42 24 -94 43 -145 59v91h123v57h-123v95h168v-386h70v386h182v-95h-142v-57h142v-91h-144v-62h214v367h-252v97h205z" />
</svg>
