<?xml version="1.0" standalone="no"?>
<!DOCTYPE svg PUBLIC "-//W3C//DTD SVG 1.1//EN" "http://www.w3.org/Graphics/SVG/1.1/DTD/svg11.dtd" >
<svg xmlns="http://www.w3.org/2000/svg" xmlns:xlink="http://www.w3.org/1999/xlink" version="1.1" viewBox="-10 0 1010 1000">
   <path fill="currentColor"
d="M779 577l54 19c-17 51 -43 104 -67 145l103 -11c-11 -26 -25 -55 -38 -78l44 -18c29 48 57 113 67 151l-46 22c-2 -9 -5 -18 -9 -29c-140 18 -164 23 -178 30c-3 -12 -12 -41 -18 -54c10 -2 20 -14 30 -31c9 -16 43 -82 58 -146zM326 159l-43 62
c-39 -37 -118 -84 -185 -112l40 -55c66 25 147 69 188 105zM267 429l-40 61c-39 -34 -117 -80 -182 -107l40 -56c62 25 142 68 182 102zM265 574l53 49c-51 104 -121 228 -179 320l-60 -50c53 -76 130 -207 186 -319zM425 491h144c8 -38 13 -76 18 -114h-162v114zM425 206
v112h167c3 -38 5 -76 6 -112h-173zM839 318v-112h-170c-2 36 -4 74 -7 112h177zM839 491v-114h-182c-4 38 -10 76 -17 114h199zM719 887h143c30 0 36 -11 39 -76c15 10 42 20 61 24c-8 89 -28 114 -93 114h-156c-86 0 -108 -20 -108 -94v-232c-46 131 -128 250 -276 328
c-10 -18 -33 -42 -50 -56c157 -79 235 -205 275 -343h-199v-408h204c12 -33 24 -73 30 -102l82 11c-13 31 -26 64 -38 91h278v408h-238v303c0 27 6 32 46 32z" />
</svg>
