<?xml version="1.0" standalone="no"?>
<!DOCTYPE svg PUBLIC "-//W3C//DTD SVG 1.1//EN" "http://www.w3.org/Graphics/SVG/1.1/DTD/svg11.dtd" >
<svg xmlns="http://www.w3.org/2000/svg" xmlns:xlink="http://www.w3.org/1999/xlink" version="1.1" viewBox="-10 0 1010 1000">
   <path fill="currentColor"
d="M238 170l-43 48c-26 -36 -82 -87 -129 -121l41 -42c47 31 104 80 131 115zM217 428l-40 50c-30 -30 -89 -73 -137 -101l39 -45c48 25 108 66 138 96zM106 942l-57 -39c38 -76 90 -201 129 -310l51 39c-35 101 -83 221 -123 310zM394 43l64 15c-22 73 -50 146 -82 214v682
h-66v-565c-18 27 -35 51 -54 74c-7 -14 -27 -45 -39 -59c75 -89 139 -224 177 -361zM578 686l57 15c-24 63 -63 136 -96 183c-11 -8 -36 -22 -50 -29c34 -46 67 -110 89 -169zM936 653h-180v223c0 33 -6 49 -28 60c-21 11 -55 12 -103 12c-2 -18 -10 -43 -19 -60
c34 1 61 1 72 0c10 -1 12 -3 12 -12v-223h-165v-60h165v-111h66v111h180v60zM797 702l52 -19c35 55 77 128 95 172l-55 22c-17 -45 -58 -119 -92 -175zM810 211h-180c20 42 49 86 91 125c35 -37 66 -79 89 -125zM856 149l43 18c-28 82 -74 152 -130 210c50 38 112 68 187 88
c-14 12 -33 38 -42 54c-76 -23 -139 -58 -191 -99c-57 47 -118 83 -181 108c-9 -14 -27 -37 -42 -49c61 -21 121 -56 175 -101c-34 -36 -61 -73 -82 -109c-19 26 -38 50 -59 70c-9 -10 -27 -30 -42 -42v471h-60v-547h60v67c64 -61 114 -152 140 -249l64 14
c-11 33 -23 67 -37 98h184z" />
</svg>
