<?xml version="1.0" standalone="no"?>
<!DOCTYPE svg PUBLIC "-//W3C//DTD SVG 1.1//EN" "http://www.w3.org/Graphics/SVG/1.1/DTD/svg11.dtd" >
<svg xmlns="http://www.w3.org/2000/svg" xmlns:xlink="http://www.w3.org/1999/xlink" version="1.1" viewBox="-10 0 1010 1000">
   <path fill="currentColor"
d="M627 266l69 7c-6 33 -14 71 -22 104h109v-151h-154v-60h154v-107h65v107h89v60h-89v151h101v60h-101v116h-65v-116h-196c14 -47 29 -116 40 -171zM542 200h-113c-30 60 -70 118 -120 169c-11 -13 -34 -31 -49 -39c83 -80 136 -187 161 -272l64 9c-8 24 -18 50 -29 75h107
l12 -2l41 15c-41 212 -148 347 -282 417c-8 -15 -25 -39 -40 -51c63 -30 120 -79 166 -145c-23 -20 -52 -44 -76 -61l37 -45c23 15 49 36 72 54c20 -38 37 -79 49 -124zM282 158l-36 62c-35 -35 -103 -81 -159 -109l35 -54c54 25 125 68 160 101zM228 420l-35 62
c-33 -31 -103 -75 -157 -103l33 -54c54 24 124 64 159 95zM114 938l-53 -51c46 -75 111 -204 160 -316l47 50c-45 103 -104 225 -154 317zM946 667h-254c64 85 168 165 265 204c-18 15 -40 42 -52 61c-91 -45 -187 -129 -255 -218v243h-72v-242c-70 90 -168 172 -258 218
c-11 -18 -33 -43 -49 -56c96 -42 201 -124 267 -210h-243v-65h283v-110h72v110h296v65z" />
</svg>
