<?xml version="1.0" standalone="no"?>
<!DOCTYPE svg PUBLIC "-//W3C//DTD SVG 1.1//EN" "http://www.w3.org/Graphics/SVG/1.1/DTD/svg11.dtd" >
<svg xmlns="http://www.w3.org/2000/svg" xmlns:xlink="http://www.w3.org/1999/xlink" version="1.1" viewBox="-10 0 1010 1000">
   <path fill="currentColor"
d="M261 180l-50 44c-25 -35 -78 -87 -122 -123l48 -37c44 34 98 84 124 116zM220 464l-51 43c-26 -36 -81 -93 -127 -133l49 -37c46 37 103 92 129 127zM129 936l-63 -31c30 -79 72 -211 100 -323l56 33c-25 104 -61 230 -93 321zM430 476v153h113v69h-113v257h-65v-257
h-126v-69h126v-153h-106v-69h106v-138h-123v-69h123v-150h65v150h106v69h-106v138h97v69h-97zM816 208h-137c-23 42 -49 81 -74 115h146c22 -31 46 -75 65 -115zM858 569v-180h-81v180h81zM638 389v180h83v-180h-83zM690 880h158c38 0 45 -22 50 -130c15 11 41 22 61 27
c-9 128 -29 166 -107 166h-168c-85 0 -112 -22 -112 -108v-472l-2 2c-12 -11 -38 -33 -53 -43c68 -68 129 -175 166 -281l64 18c-11 29 -23 59 -37 87h140l14 -4l43 31c-22 50 -55 105 -86 150h96v311h-279v202c0 36 8 44 52 44z" />
</svg>
