<?xml version="1.0" standalone="no"?>
<!DOCTYPE svg PUBLIC "-//W3C//DTD SVG 1.1//EN" "http://www.w3.org/Graphics/SVG/1.1/DTD/svg11.dtd" >
<svg xmlns="http://www.w3.org/2000/svg" xmlns:xlink="http://www.w3.org/1999/xlink" version="1.1" viewBox="-10 0 1010 1000">
   <path fill="currentColor"
d="M445 373v73c96 -3 205 -7 317 -12v-61h-317zM762 144h-317v66h317v-66zM445 257v69h317v-69h-317zM293 451l85 -2v-305h-78v-57h622v57h-93v287l115 -6l-2 52l-113 6v51h-67v-47c-171 9 -338 17 -461 22zM273 175l-55 51c-30 -37 -95 -92 -147 -130l51 -45
c52 36 118 87 151 124zM243 429l-51 52c-33 -34 -100 -87 -153 -123l50 -46c52 33 120 83 154 117zM184 587l58 39c-35 103 -85 225 -128 316l-65 -39c39 -76 95 -205 135 -316zM567 839l-43 46c-19 -19 -44 -41 -73 -64c-56 62 -120 109 -188 140c-8 -15 -25 -40 -39 -53
c64 -26 125 -69 177 -125c-40 -31 -82 -60 -121 -85l41 -40c37 23 78 50 119 79c25 -35 47 -73 63 -113h-218v-61h247l11 -3l41 18c-20 74 -54 139 -94 196c30 23 58 45 77 65zM847 622h-163c18 51 45 97 77 137c35 -39 65 -85 86 -137zM887 559l37 15
c-24 93 -68 169 -122 229c47 42 101 75 163 94c-14 14 -34 40 -44 59c-63 -24 -118 -62 -164 -108c-54 48 -117 85 -182 109c-7 -15 -23 -40 -36 -54c63 -20 126 -55 179 -101c-40 -52 -71 -112 -93 -180h-26v-61h276z" />
</svg>
