<?xml version="1.0" standalone="no"?>
<!DOCTYPE svg PUBLIC "-//W3C//DTD SVG 1.1//EN" "http://www.w3.org/Graphics/SVG/1.1/DTD/svg11.dtd" >
<svg xmlns="http://www.w3.org/2000/svg" xmlns:xlink="http://www.w3.org/1999/xlink" version="1.1" viewBox="-10 0 1010 1000">
   <path fill="currentColor"
d="M294 185l-46 51c-34 -34 -101 -86 -156 -120l43 -45c56 32 124 80 159 114zM251 437l-44 53c-35 -32 -105 -79 -162 -109l42 -48c56 29 127 72 164 104zM213 580l56 41c-40 100 -94 218 -140 307l-64 -41c42 -74 104 -200 148 -307zM395 289v152c0 148 -16 370 -112 520
c-10 -14 -39 -38 -53 -46c88 -141 97 -336 97 -474v-210h239v-187h71v68h274v57h-274v62h261l10 -3l46 12c-20 56 -45 118 -67 158l-55 -15c14 -25 27 -60 39 -94h-476zM656 514h151c33 0 39 -9 42 -77c15 11 41 20 59 24c-7 88 -27 110 -94 110h-163
c-88 0 -111 -17 -111 -85v-39l-104 9l-4 -55l108 -9v-88h66v82l182 -15l5 54l-187 16v44c0 24 7 29 50 29zM763 765l-48 28c-18 -43 -61 -107 -100 -154l46 -25c40 45 84 109 102 151zM421 912l-51 -22c37 -53 64 -141 79 -208l50 17c-17 68 -41 159 -78 213zM631 886h129
c31 0 37 -13 40 -105c14 10 37 19 54 23c-6 108 -24 135 -87 135h-141c-78 0 -99 -17 -99 -79v-179h61v178c0 22 7 27 43 27zM801 681l48 -22c48 67 98 157 115 214l-51 25c-17 -58 -64 -149 -112 -217z" />
</svg>
