<?xml version="1.0" standalone="no"?>
<!DOCTYPE svg PUBLIC "-//W3C//DTD SVG 1.1//EN" "http://www.w3.org/Graphics/SVG/1.1/DTD/svg11.dtd" >
<svg xmlns="http://www.w3.org/2000/svg" xmlns:xlink="http://www.w3.org/1999/xlink" version="1.1" viewBox="-10 0 1010 1000">
   <path fill="currentColor"
d="M482 485v-272h-169v-65h287c-10 -31 -26 -69 -41 -99l67 -18c22 37 41 84 50 117h265v65h-195v271h-70v-271h-124v272h-70zM769 288l56 -27c48 55 104 130 130 178l-62 32c-24 -48 -77 -126 -124 -183zM399 253l64 16c-27 75 -72 151 -119 199c-13 -10 -40 -29 -56 -38
c47 -45 87 -110 111 -177zM279 217l-63 41c-27 -43 -85 -113 -131 -163l59 -35c46 49 106 115 135 157zM245 476l-62 40c-26 -42 -84 -105 -134 -149l58 -36c50 43 110 103 138 145zM135 938l-68 -43c40 -74 97 -194 138 -299l60 43c-37 97 -87 213 -130 299zM946 649h-241
c66 87 168 170 262 212c-16 12 -38 38 -49 56c-92 -48 -192 -137 -261 -232v274h-73v-271c-71 98 -170 185 -267 233c-10 -17 -33 -43 -49 -57c99 -43 203 -125 271 -215h-238v-66h283v-92h73v92h289v66z" />
</svg>
