<?xml version="1.0" standalone="no"?>
<!DOCTYPE svg PUBLIC "-//W3C//DTD SVG 1.1//EN" "http://www.w3.org/Graphics/SVG/1.1/DTD/svg11.dtd" >
<svg xmlns="http://www.w3.org/2000/svg" xmlns:xlink="http://www.w3.org/1999/xlink" version="1.1" viewBox="-10 0 1010 1000">
   <path fill="currentColor"
d="M623 188v65h-351v-65h151c-11 -32 -33 -81 -57 -116l53 -23c26 34 50 81 61 114l-52 25h195zM605 405l-46 37c-15 -36 -53 -91 -87 -129l44 -33c34 37 73 90 89 125zM361 287l57 23c-33 74 -83 155 -128 207c-11 -12 -35 -34 -50 -44c47 -49 92 -119 121 -186zM241 157
l-40 50c-28 -33 -85 -80 -131 -110l39 -45c47 28 104 72 132 105zM215 425l-36 52c-29 -29 -89 -72 -136 -101l35 -46c47 26 108 66 137 95zM182 590l50 37c-35 102 -83 224 -123 314l-55 -38c37 -76 90 -204 128 -313zM590 785l-48 45c-17 -33 -42 -72 -72 -113
c-53 92 -118 166 -195 222c-9 -14 -32 -40 -46 -54c82 -53 150 -128 200 -221c-34 -44 -72 -86 -109 -122l43 -40c32 30 65 65 95 101c18 -41 33 -83 45 -130l58 16c-15 60 -36 115 -59 165c37 47 68 93 88 131zM838 297h-113c-7 26 -14 51 -22 75c17 81 39 159 66 231
c32 -88 54 -190 69 -306zM954 297h-50c-20 152 -51 281 -99 390c43 86 96 159 158 204c-15 14 -35 40 -46 59c-58 -46 -106 -113 -147 -191c-44 78 -100 144 -170 197c-9 -15 -34 -44 -48 -57c80 -54 140 -127 184 -217c-28 -66 -50 -137 -68 -213c-12 28 -24 53 -38 76
c-10 -14 -35 -42 -50 -55c67 -107 105 -275 127 -448l65 11c-8 59 -19 118 -30 174h212v70z" />
</svg>
