<?xml version="1.0" standalone="no"?>
<!DOCTYPE svg PUBLIC "-//W3C//DTD SVG 1.1//EN" "http://www.w3.org/Graphics/SVG/1.1/DTD/svg11.dtd" >
<svg xmlns="http://www.w3.org/2000/svg" xmlns:xlink="http://www.w3.org/1999/xlink" version="1.1" viewBox="-10 0 1010 1000">
   <path fill="currentColor"
d="M585 562h-94c-63 0 -79 -15 -79 -74v-38l-55 8l-8 -52l63 -9v-87h57v80l94 -13l9 51l-103 14v46c0 20 4 22 27 22h83c18 0 22 -7 25 -61c12 9 35 17 51 21c-6 72 -23 92 -70 92zM895 503l55 25c-59 114 -160 214 -270 274c-10 -18 -28 -40 -43 -55
c106 -50 207 -140 258 -244zM856 72l57 25c-49 78 -126 156 -196 204c-12 -15 -30 -36 -45 -48c66 -42 143 -112 184 -181zM881 283l55 23c-53 94 -141 180 -229 232c-10 -15 -27 -36 -43 -49c83 -45 170 -123 217 -206zM235 184l-42 45c-26 -37 -81 -89 -126 -123l40 -41
c46 34 102 84 128 119zM209 437l-36 51c-28 -31 -87 -76 -134 -106l35 -45c47 28 106 71 135 100zM170 597l50 36c-33 100 -77 218 -114 306l-56 -36c35 -74 85 -199 120 -306zM332 293v176c0 136 -12 342 -76 482c-10 -13 -34 -38 -47 -45c55 -132 61 -311 61 -437v-234
h150v-187h62v65h142v58h-142v64h129l10 -2l40 10c-13 47 -31 99 -48 132l-50 -12c9 -20 17 -44 24 -70h-255zM653 870h192c50 0 58 -18 63 -141c14 11 39 20 56 25c-8 141 -28 174 -115 174h-199c-96 0 -123 -19 -123 -91v-166h-85c-5 140 -25 228 -99 284
c-7 -14 -25 -37 -39 -48c69 -53 78 -138 80 -294h203v224c0 27 10 33 66 33z" />
</svg>
