<?xml version="1.0" standalone="no"?>
<!DOCTYPE svg PUBLIC "-//W3C//DTD SVG 1.1//EN" "http://www.w3.org/Graphics/SVG/1.1/DTD/svg11.dtd" >
<svg xmlns="http://www.w3.org/2000/svg" xmlns:xlink="http://www.w3.org/1999/xlink" version="1.1" viewBox="-10 0 1010 1000">
   <path fill="currentColor"
d="M833 213h-143c17 67 39 128 70 181c33 -51 57 -111 73 -181zM485 148h59v149c57 -64 104 -158 130 -254l64 15c-10 32 -21 65 -33 95h241v60h-46c-21 96 -55 173 -102 238c42 55 95 96 161 121c-15 14 -36 40 -45 58c-64 -29 -117 -72 -159 -128c-44 46 -96 83 -158 114
c-8 -14 -31 -40 -45 -51c66 -30 122 -68 166 -117c-31 -52 -54 -112 -72 -178c-20 32 -41 62 -64 86c-8 -9 -24 -27 -38 -39v205h-59v-374zM496 640l43 -42c58 26 127 70 163 105l-46 48c-33 -35 -102 -82 -160 -111zM281 160l-45 58c-30 -35 -96 -82 -151 -111l44 -53
c54 27 120 72 152 106zM243 418l-44 59c-32 -33 -100 -77 -156 -104l42 -54c55 25 125 66 158 99zM200 588l59 39c-37 104 -87 227 -130 318l-67 -39c40 -77 97 -206 138 -318zM302 926l-55 -40c50 -44 79 -122 93 -195l62 19c-16 77 -43 164 -100 216zM422 43l63 18
c-19 50 -44 99 -71 145v417h-63v-326c-26 34 -55 64 -83 89c-8 -12 -31 -42 -44 -54c83 -69 156 -175 198 -289zM568 884h129c31 0 37 -11 40 -96c15 11 43 22 62 25c-8 107 -28 134 -94 134h-144c-85 0 -106 -20 -106 -89v-170h68v169c0 23 7 27 45 27zM762 705l60 -28
c60 63 119 149 140 212l-64 30c-20 -60 -76 -151 -136 -214z" />
</svg>
