<?xml version="1.0" standalone="no"?>
<!DOCTYPE svg PUBLIC "-//W3C//DTD SVG 1.1//EN" "http://www.w3.org/Graphics/SVG/1.1/DTD/svg11.dtd" >
<svg xmlns="http://www.w3.org/2000/svg" xmlns:xlink="http://www.w3.org/1999/xlink" version="1.1" viewBox="-10 0 1010 1000">
   <path fill="currentColor"
d="M305 163l-45 61c-36 -36 -112 -85 -173 -115l43 -55c60 29 136 74 175 109zM261 420l-43 62c-37 -35 -113 -80 -175 -108l41 -55c61 25 139 68 177 101zM227 579l57 43c-46 105 -107 229 -159 320l-63 -44c47 -77 115 -206 165 -319zM697 405v58h130v-58h-130zM697 303
v51h130v-51h-130zM843 610h-146v58h146v-58zM697 777h146v-61h-146v61zM495 777h137v-61h-137v61zM632 610h-137v58h137v-58zM892 512h-195v49h213v315c0 33 -6 48 -29 58c-22 10 -60 10 -113 10c-3 -17 -12 -39 -20 -55c38 1 71 1 82 1c10 0 13 -4 13 -14v-50h-146v98h-65
v-98h-137v129h-64v-394h201v-49h-175v-49h175v-58h-215v-51h215v-51h-175v-49h175v-58h-229v192c0 161 -15 399 -111 559c-12 -12 -41 -31 -57 -38c92 -153 101 -368 101 -521v-249h290c-11 -26 -25 -56 -38 -80l69 -16c16 30 36 68 48 96h234v57h-242v58h195v95h62v63h-62
v100z" />
</svg>
