<?xml version="1.0" standalone="no"?>
<!DOCTYPE svg PUBLIC "-//W3C//DTD SVG 1.1//EN" "http://www.w3.org/Graphics/SVG/1.1/DTD/svg11.dtd" >
<svg xmlns="http://www.w3.org/2000/svg" xmlns:xlink="http://www.w3.org/1999/xlink" version="1.1" viewBox="-10 0 1010 1000">
   <path fill="currentColor"
d="M944 132v61h-651v-61h277c-10 -23 -24 -50 -36 -71l62 -16c17 26 37 62 47 87h301zM292 162l-37 62c-35 -32 -106 -78 -160 -109l35 -55c54 28 125 72 162 102zM241 424l-36 62c-35 -30 -108 -71 -164 -96l33 -57c56 22 129 61 167 91zM214 581l50 46
c-42 101 -96 219 -142 308l-56 -48c42 -74 103 -197 148 -306zM427 417l1 108h341v-108h-342zM871 601l57 37c-44 41 -104 85 -153 116c52 51 116 92 189 116c-16 13 -38 37 -47 54c-152 -59 -261 -178 -323 -331c-36 44 -83 83 -137 117v150l199 -36c-1 19 -1 44 0 58
c-209 43 -239 54 -257 66c-5 -15 -18 -45 -29 -59c12 -6 23 -21 23 -56v-86c-36 18 -75 34 -115 49c-10 -15 -31 -39 -45 -49c116 -39 222 -95 289 -164h-155v-202c-23 16 -47 32 -71 45l-45 -50c76 -38 155 -100 208 -160l61 19c-34 41 -77 86 -125 124h427
c-44 -36 -97 -75 -143 -105l34 -40c78 49 176 118 222 164l-37 48c-17 -18 -41 -38 -67 -60v217h-173c20 48 47 92 80 131c46 -34 101 -79 133 -113z" />
</svg>
