<?xml version="1.0" standalone="no"?>
<!DOCTYPE svg PUBLIC "-//W3C//DTD SVG 1.1//EN" "http://www.w3.org/Graphics/SVG/1.1/DTD/svg11.dtd" >
<svg xmlns="http://www.w3.org/2000/svg" xmlns:xlink="http://www.w3.org/1999/xlink" version="1.1" viewBox="-10 0 1010 1000">
   <path fill="currentColor"
d="M367 198v103h-69v-170h279c-10 -25 -22 -55 -34 -78l72 -14c15 28 33 65 43 92h293v169h-72v-102h-512zM278 158l-45 58c-29 -34 -94 -80 -148 -110l43 -52c54 27 119 70 150 104zM240 416l-44 59c-31 -32 -98 -75 -153 -103l42 -54c54 26 122 66 155 98zM200 589l57 38
c-37 104 -87 226 -130 316l-65 -37c40 -77 98 -207 138 -317zM332 607l61 12c-20 88 -55 175 -96 233c-12 -9 -37 -25 -52 -32c41 -54 71 -134 87 -213zM657 565h-168v321c0 32 -5 49 -29 59c-22 10 -55 11 -107 11c-2 -18 -12 -42 -21 -58c37 1 69 1 80 0
c11 0 14 -3 14 -13v-320h-148v-64h150v-254h65v108h119v60h-119v86h164v64zM658 782l-55 25c-13 -47 -45 -120 -78 -173l51 -22c35 53 68 123 82 170zM863 386h-150c14 105 35 201 65 282c39 -77 69 -171 85 -282zM896 323l40 13c-22 170 -65 303 -125 407
c36 70 83 125 143 162c-14 12 -34 35 -44 52c-56 -38 -102 -90 -138 -155c-50 69 -108 120 -173 158c-10 -16 -32 -42 -46 -54c72 -39 135 -96 186 -172c-40 -97 -67 -214 -83 -348h-31v-61h259z" />
</svg>
