<?xml version="1.0" standalone="no"?>
<!DOCTYPE svg PUBLIC "-//W3C//DTD SVG 1.1//EN" "http://www.w3.org/Graphics/SVG/1.1/DTD/svg11.dtd" >
<svg xmlns="http://www.w3.org/2000/svg" xmlns:xlink="http://www.w3.org/1999/xlink" version="1.1" viewBox="-10 0 1010 1000">
   <path fill="currentColor"
d="M967 373l-43 47c-20 -40 -58 -98 -96 -150c-20 58 -49 111 -92 150c-9 -14 -29 -34 -45 -43c83 -73 106 -207 114 -328h63c-4 51 -10 102 -21 151c46 58 96 128 120 173zM727 290l-35 49c-15 -21 -44 -54 -70 -82c-23 72 -54 141 -102 190c-11 -15 -31 -34 -47 -43
c84 -83 112 -243 123 -354h64c-5 45 -12 95 -23 145c32 32 70 72 90 95zM419 45l65 20c-42 83 -109 178 -178 240c-9 -15 -28 -38 -40 -49c61 -55 123 -140 153 -211zM282 160l-46 58c-30 -35 -96 -82 -150 -111l43 -53c55 28 120 72 153 106zM243 418l-44 59
c-32 -33 -100 -77 -156 -104l43 -54c54 25 124 66 157 99zM129 945l-67 -39c40 -76 97 -206 138 -318l59 40c-36 104 -87 226 -130 317zM438 234l63 22c-21 47 -48 97 -79 146v553h-64v-465c-26 33 -53 62 -81 87c-7 -14 -22 -43 -33 -57c82 -73 156 -190 194 -286zM770 658
v213c13 1 25 2 39 2c19 0 131 0 157 -1c-9 17 -18 47 -21 65h-141c-108 0 -181 -31 -227 -164c-16 74 -43 142 -84 191c-11 -11 -33 -30 -46 -38c84 -104 95 -298 96 -423l65 2c-1 41 -4 87 -9 135c21 123 56 184 105 211v-422h66v168h162v61h-162z" />
</svg>
