<?xml version="1.0" standalone="no"?>
<!DOCTYPE svg PUBLIC "-//W3C//DTD SVG 1.1//EN" "http://www.w3.org/Graphics/SVG/1.1/DTD/svg11.dtd" >
<svg xmlns="http://www.w3.org/2000/svg" xmlns:xlink="http://www.w3.org/1999/xlink" version="1.1" viewBox="-10 0 1010 1000">
   <path fill="currentColor"
d="M288 156l-45 58c-35 -29 -108 -76 -160 -109l44 -52c52 30 124 74 161 103zM257 418l-43 61c-38 -28 -115 -74 -171 -104l41 -52c56 27 133 70 173 95zM192 585l60 40c-37 105 -87 227 -131 319l-67 -39c41 -77 98 -208 138 -320zM481 778l33 -33c32 24 75 58 95 80
l-34 38c-21 -23 -62 -59 -94 -85zM483 640l33 -35c31 22 73 53 94 73l-32 40c-22 -22 -63 -55 -95 -78zM834 816l-34 39c-21 -23 -63 -58 -95 -83l32 -34c32 24 74 57 97 78zM839 678l-32 39c-21 -22 -64 -56 -96 -79l31 -34c32 22 74 54 97 74zM838 141h-445v96h445v-96z
M942 432h-251v76h234v383c0 32 -6 47 -29 56c-21 10 -58 10 -117 10c-3 -16 -11 -37 -19 -53c40 2 77 1 87 1c11 0 15 -3 15 -14v-325h-171v384h-63v-384h-165v390h-62v-448h227v-76h-236c-4 163 -27 372 -121 519c-12 -12 -41 -32 -59 -39c102 -159 111 -383 111 -545v-288
h586v221h-516v67v4h549v61z" />
</svg>
