<?xml version="1.0" standalone="no"?>
<!DOCTYPE svg PUBLIC "-//W3C//DTD SVG 1.1//EN" "http://www.w3.org/Graphics/SVG/1.1/DTD/svg11.dtd" >
<svg xmlns="http://www.w3.org/2000/svg" xmlns:xlink="http://www.w3.org/1999/xlink" version="1.1" viewBox="-10 0 1010 1000">
   <path fill="currentColor"
d="M104 940l-55 -38c37 -75 90 -200 128 -309l49 37c-34 102 -82 221 -122 310zM218 426l-39 51c-30 -30 -91 -72 -141 -101l37 -44c49 25 111 65 143 94zM66 97l41 -43c47 33 104 82 131 116l-43 48c-26 -36 -82 -87 -129 -121zM338 521h163s0 20 -1 29
c-17 229 -32 315 -60 345c-17 18 -34 24 -61 27c-22 1 -63 1 -105 -1c-2 -20 -8 -44 -19 -61c43 4 83 4 101 4c15 0 24 -1 33 -11c19 -18 34 -92 47 -276h-164c9 -73 18 -190 21 -279h146v-161h-158v-61h219v282h-146c-5 54 -10 114 -16 163zM609 483v158h87v-158h-87z
M841 641v-158h-88v158h88zM632 138v127h183v-127h-183zM949 926l-63 19c-3 -18 -8 -37 -13 -60c-129 12 -256 24 -352 31l-12 -68c50 -3 112 -6 180 -10v-137h-139v-277h138v-100h-124v-245h323v245h-129v100h145v277h-144v133l95 -5c-10 -31 -22 -63 -35 -90l59 -16
c31 64 60 148 71 203z" />
</svg>
