<?xml version="1.0" standalone="no"?>
<!DOCTYPE svg PUBLIC "-//W3C//DTD SVG 1.1//EN" "http://www.w3.org/Graphics/SVG/1.1/DTD/svg11.dtd" >
<svg xmlns="http://www.w3.org/2000/svg" xmlns:xlink="http://www.w3.org/1999/xlink" version="1.1" viewBox="-10 0 1010 1000">
   <path fill="currentColor"
d="M259 442l-46 58c-35 -33 -109 -83 -168 -115l44 -52c57 30 132 76 170 109zM131 933l-66 -46c46 -74 113 -201 162 -311l58 46c-45 101 -103 221 -154 311zM94 113l48 -45c55 36 122 88 156 125l-51 52c-32 -37 -98 -93 -153 -132zM925 588v290c0 36 -9 52 -36 62
c-28 9 -72 9 -140 9c-4 -17 -14 -39 -22 -56c50 2 96 2 108 1c14 0 18 -4 18 -16v-231h-242c-21 39 -42 76 -64 110l161 -14c-14 -22 -28 -44 -40 -63l49 -19c35 49 76 116 95 157l-52 25c-6 -14 -14 -30 -24 -48c-210 22 -241 27 -258 35c-3 -14 -14 -47 -22 -63
c16 -4 30 -24 47 -52c7 -11 21 -36 37 -68h-139v309h-70v-368h237c10 -21 19 -45 27 -68h-225v-286h65v227h382v-227h67v286h-215c-9 22 -19 46 -30 68h286zM787 398l-37 45c-28 -24 -70 -52 -116 -80c-48 32 -97 60 -143 83c-9 -12 -30 -35 -43 -46c43 -19 89 -42 133 -69
c-37 -21 -75 -42 -110 -60l35 -39c39 19 83 41 126 66c34 -24 64 -48 88 -74l56 23c-27 27 -58 55 -93 81c41 25 78 49 104 70zM683 133h267v65h-639v-65h292c-11 -26 -25 -56 -37 -79l67 -21c18 31 39 72 50 100z" />
</svg>
