<?xml version="1.0" standalone="no"?>
<!DOCTYPE svg PUBLIC "-//W3C//DTD SVG 1.1//EN" "http://www.w3.org/Graphics/SVG/1.1/DTD/svg11.dtd" >
<svg xmlns="http://www.w3.org/2000/svg" xmlns:xlink="http://www.w3.org/1999/xlink" version="1.1" viewBox="-10 0 1010 1000">
   <path fill="currentColor"
d="M288 167l-34 57c-35 -34 -104 -80 -160 -109l33 -51c55 27 127 70 161 103zM237 427l-32 59c-36 -30 -108 -71 -165 -96l31 -53c56 22 129 61 166 90zM217 583l49 48c-43 100 -99 217 -147 305l-54 -49c44 -72 106 -196 152 -304zM519 759h299v-59h-299v59zM818 590h-299
v59h299v-59zM882 537v341c0 35 -7 49 -32 58c-24 10 -64 10 -126 10c-3 -16 -12 -37 -19 -53c44 2 85 2 96 1c13 -1 17 -5 17 -16v-67h-299v139h-66v-413h429zM857 349l46 34c-25 20 -49 39 -73 55c36 15 75 26 120 32c-13 11 -29 32 -38 46c-129 -26 -217 -84 -263 -172
h-95v103l121 -25c-1 16 0 39 1 50c-147 35 -172 43 -187 52c-5 -14 -18 -40 -27 -53c13 -5 32 -15 32 -48v-79h-95c-1 173 -18 426 -107 597c-12 -14 -42 -37 -58 -45c88 -169 96 -408 96 -573v-239h596v60h-527v153h519v47h-209c19 28 45 52 77 72c25 -21 55 -48 71 -67z
M875 244h-417v-47h417v47z" />
</svg>
