<?xml version="1.0" standalone="no"?>
<!DOCTYPE svg PUBLIC "-//W3C//DTD SVG 1.1//EN" "http://www.w3.org/Graphics/SVG/1.1/DTD/svg11.dtd" >
<svg xmlns="http://www.w3.org/2000/svg" xmlns:xlink="http://www.w3.org/1999/xlink" version="1.1" viewBox="-10 0 1010 1000">
   <path fill="currentColor"
d="M234 420l-35 62c-34 -31 -105 -75 -159 -103l34 -55c54 25 125 65 160 96zM120 938l-54 -51c45 -75 112 -205 161 -316l47 50c-45 103 -104 225 -154 317zM92 111l35 -55c55 26 127 69 161 102l-36 62c-34 -35 -105 -81 -160 -109zM542 456v-103c-73 37 -149 74 -210 104
l-31 -58c62 -25 151 -65 241 -106v-147h-216v-65h280v375h-64zM480 266l-43 37c-23 -28 -72 -71 -111 -101l41 -33c40 28 88 70 113 97zM807 697v-91h-347v91h347zM460 848h347v-94h-347v94zM606 463l77 11c-9 25 -18 49 -27 71h225v405h-74v-41h-347v47h-71v-411h191
c9 -28 20 -59 26 -82zM641 81h279v376h-64v-108c-68 35 -134 70 -190 99l-31 -59c56 -23 138 -62 221 -100v-143h-215v-65zM807 267l-42 38c-24 -29 -72 -73 -112 -102l41 -33c40 29 89 70 113 97z" />
</svg>
