<?xml version="1.0" standalone="no"?>
<!DOCTYPE svg PUBLIC "-//W3C//DTD SVG 1.1//EN" "http://www.w3.org/Graphics/SVG/1.1/DTD/svg11.dtd" >
<svg xmlns="http://www.w3.org/2000/svg" xmlns:xlink="http://www.w3.org/1999/xlink" version="1.1" viewBox="-10 0 1010 1000">
   <path fill="currentColor"
d="M269 167l-47 55c-28 -33 -90 -81 -139 -112l46 -48c48 29 110 74 140 105zM231 425l-44 56c-31 -31 -97 -75 -148 -104l42 -51c52 26 118 68 150 99zM199 570l58 41c-37 103 -86 225 -129 315l-63 -39c39 -77 95 -206 134 -317zM338 77l57 -23c33 40 65 96 80 134l-61 26
c-13 -37 -46 -95 -76 -137zM396 410h140s0 22 -1 31c-11 328 -21 439 -45 472c-14 20 -29 27 -51 30c-17 2 -44 2 -70 1c-2 -20 -6 -47 -16 -65c26 3 48 3 59 3s18 -2 25 -13c16 -23 26 -120 35 -396h-80c-14 189 -47 367 -137 484c-12 -14 -36 -34 -52 -44
c113 -140 129 -400 134 -635h-82v-64h310v64h-165c-1 44 -2 88 -4 132zM792 652v214c25 8 50 11 76 11c15 0 77 0 99 -1c-9 16 -17 46 -20 64h-83c-98 0 -176 -30 -227 -162c-17 72 -42 134 -80 181c-10 -15 -30 -38 -47 -48c73 -87 92 -250 97 -402h60
c-2 52 -6 105 -12 156c18 81 44 131 75 164v-414h-129v-36l-1 2c-13 -11 -42 -30 -59 -40c54 -72 89 -184 107 -298l67 12c-7 43 -17 85 -29 125h266v63h-285c-15 41 -31 79 -50 111h286l7 -2l42 11c-14 61 -30 130 -44 175l-52 -13c8 -30 15 -70 23 -110h-87v177h149v60
h-149z" />
</svg>
