<?xml version="1.0" standalone="no"?>
<!DOCTYPE svg PUBLIC "-//W3C//DTD SVG 1.1//EN" "http://www.w3.org/Graphics/SVG/1.1/DTD/svg11.dtd" >
<svg xmlns="http://www.w3.org/2000/svg" xmlns:xlink="http://www.w3.org/1999/xlink" version="1.1" viewBox="-10 0 1010 1000">
   <path fill="currentColor"
d="M252 162l-49 51c-30 -31 -92 -78 -141 -109l47 -46c48 29 112 73 143 104zM230 419l-44 55c-32 -28 -97 -70 -148 -98l43 -47c50 26 116 64 149 90zM184 593l57 40c-36 101 -85 220 -126 309l-63 -39c38 -75 93 -201 132 -310zM331 346v168h81v-168h-81zM539 514v-168
h-76v168h76zM618 708l-47 54c-19 -25 -64 -73 -101 -112v307h-66v-281c-40 76 -92 148 -144 192c-8 -20 -24 -47 -35 -64c64 -51 131 -147 171 -236h-119v-276h127v-80h-144v-61h144v-109h66v109h145v61h-145v80h125v88c47 -81 72 -201 87 -326l63 10c-6 47 -14 94 -24 138
h173l12 -4l41 17c-18 87 -41 190 -64 254l-49 -24c14 -46 30 -115 41 -180h-168c-18 65 -41 123 -69 169c-9 -10 -28 -30 -43 -42v176h-125v10c33 26 125 108 148 130zM780 347v62c0 30 -1 65 -4 102c35 186 88 296 191 391c-17 13 -36 33 -45 51
c-82 -80 -134 -169 -171 -294c-25 98 -74 203 -165 298c-11 -14 -33 -33 -50 -43c175 -170 181 -380 181 -505v-62h63z" />
</svg>
