<?xml version="1.0" standalone="no"?>
<!DOCTYPE svg PUBLIC "-//W3C//DTD SVG 1.1//EN" "http://www.w3.org/Graphics/SVG/1.1/DTD/svg11.dtd" >
<svg xmlns="http://www.w3.org/2000/svg" xmlns:xlink="http://www.w3.org/1999/xlink" version="1.1" viewBox="-10 0 1010 1000">
   <path fill="currentColor"
d="M107 943l-58 -40c37 -74 91 -199 130 -306l52 40c-35 99 -83 217 -124 306zM214 437l-39 52c-28 -31 -88 -77 -137 -106l38 -49c47 29 108 72 138 103zM67 106l43 -42c47 32 105 82 131 117l-44 48c-26 -37 -83 -89 -130 -123zM269 147v-65h233v291h-155
c-3 55 -7 113 -12 163h163s-1 20 -2 30c-12 235 -24 320 -51 349c-15 18 -32 24 -59 27c-23 2 -68 2 -112 -1c-1 -19 -8 -43 -17 -60c44 4 85 4 100 4c16 1 25 -1 33 -10c16 -18 29 -90 39 -276h-163c10 -76 18 -198 21 -290h153v-162h-171zM905 594l50 45
c-37 33 -81 68 -120 96c40 59 86 108 135 139c-14 13 -34 38 -44 55c-100 -71 -185 -215 -232 -365h-66v294l144 -51c1 17 5 43 9 56c-163 63 -199 79 -217 93l-4 3c-5 -17 -16 -52 -26 -70c14 -6 31 -19 31 -55v-270h-48v-62h63v-408h359v61h-293v76h262v55h-262v77h263v56
h-263v83h308v62h-204c15 42 33 84 56 123c35 -29 74 -65 99 -93z" />
</svg>
