<?xml version="1.0" standalone="no"?>
<!DOCTYPE svg PUBLIC "-//W3C//DTD SVG 1.1//EN" "http://www.w3.org/Graphics/SVG/1.1/DTD/svg11.dtd" >
<svg xmlns="http://www.w3.org/2000/svg" xmlns:xlink="http://www.w3.org/1999/xlink" version="1.1" viewBox="-10 0 1010 1000">
   <path fill="currentColor"
d="M400 531h189v-93h-189v93zM850 438h-188v93h188v-93zM428 269h161v-93h-161v93zM825 176h-163v93h163v-93zM589 639v-52h-260v-205h260v-58h-231v-204h231v-76h73v76h236v204h-236v58h262v205h-262v57h-65c54 30 115 73 146 105l-43 44c-34 -35 -103 -85 -162 -118
l41 -41zM316 167l-44 57c-39 -33 -118 -83 -182 -113l42 -51c63 28 144 74 184 107zM264 419l-42 61c-39 -33 -119 -79 -182 -109l41 -53c62 27 142 69 183 101zM228 563l57 46c-44 105 -103 230 -153 323l-66 -45c46 -78 113 -210 162 -324zM312 924l-59 -33
c45 -47 83 -126 105 -186l59 24c-25 64 -58 144 -105 195zM583 877h139c32 0 39 -11 42 -91c15 11 43 19 62 24c-7 102 -28 127 -96 127h-154c-88 0 -111 -18 -111 -86v-159h71v158c0 23 7 27 47 27zM776 722l57 -27c55 59 113 140 136 196l-62 30
c-21 -55 -77 -138 -131 -199z" />
</svg>
