<?xml version="1.0" standalone="no"?>
<!DOCTYPE svg PUBLIC "-//W3C//DTD SVG 1.1//EN" "http://www.w3.org/Graphics/SVG/1.1/DTD/svg11.dtd" >
<svg xmlns="http://www.w3.org/2000/svg" xmlns:xlink="http://www.w3.org/1999/xlink" version="1.1" viewBox="-10 0 1010 1000">
   <path fill="currentColor"
d="M289 158l-37 62c-34 -34 -105 -81 -159 -109l35 -54c55 25 126 68 161 101zM235 420l-36 62c-34 -31 -104 -75 -158 -102l34 -55c54 24 124 65 160 95zM228 571l47 49c-45 103 -104 226 -155 318l-54 -51c45 -75 113 -205 162 -316zM332 923l-57 -29
c33 -47 60 -126 73 -185l56 22c-15 60 -40 141 -72 192zM469 728l56 -12c13 54 20 125 19 171l-59 12c3 -45 -4 -116 -16 -171zM599 724l51 -17c23 44 43 102 50 139l-54 19c-7 -39 -25 -98 -47 -141zM424 619h525s-1 20 -2 28c-12 185 -25 255 -50 281
c-16 18 -35 23 -62 26c-24 1 -71 0 -119 -2c-1 -18 -8 -42 -19 -58c47 4 93 5 109 5c17 0 26 -2 34 -10c16 -16 27 -73 37 -214h-538c22 -65 47 -168 64 -246l65 8c-5 20 -9 44 -15 66h476v54h-489c-6 21 -11 43 -16 62zM724 715l44 -20c28 33 53 79 65 111l-48 23
c-11 -32 -36 -79 -61 -114zM671 361h285v58h-662v-58h122v-155h68v155h117v-212h-262v-58h600v58h-268v78h241v56h-241v78z" />
</svg>
