<?xml version="1.0" standalone="no"?>
<!DOCTYPE svg PUBLIC "-//W3C//DTD SVG 1.1//EN" "http://www.w3.org/Graphics/SVG/1.1/DTD/svg11.dtd" >
<svg xmlns="http://www.w3.org/2000/svg" xmlns:xlink="http://www.w3.org/1999/xlink" version="1.1" viewBox="-10 0 1010 1000">
   <path fill="currentColor"
d="M453 494l30 -45h-194v-60h292v-60h-226v-54h226v-59h-259v-58h151c-15 -28 -43 -65 -69 -92l57 -28c32 31 65 72 80 102l-36 18h181c25 -33 56 -82 73 -117l67 25c-19 32 -42 65 -62 92h159v58h-270v59h247v54h-247v60h294v60h-435c92 15 198 42 260 67l-34 54
c-65 -29 -187 -63 -285 -76zM287 177l-44 54c-31 -34 -98 -83 -151 -115l42 -47c53 29 121 75 153 108zM245 429l-42 55c-35 -30 -103 -74 -158 -103l40 -49c54 26 125 67 160 97zM208 579l57 42c-40 100 -91 219 -135 309l-64 -43c41 -76 99 -200 142 -308zM495 667l41 18
c-47 122 -154 210 -262 254c-8 -14 -24 -39 -37 -52c79 -28 162 -87 210 -160h-166v-57h203zM880 577l52 42c-54 44 -124 92 -183 128c56 57 127 99 213 122c-15 13 -35 41 -45 59c-114 -39 -203 -112 -265 -210v162c0 36 -7 55 -34 66c-26 11 -68 11 -133 11
c-2 -19 -12 -44 -21 -63c47 2 90 2 102 1c13 -1 17 -4 17 -16v-262h-197v-59h266v38c16 39 35 75 61 107c56 -35 124 -86 167 -126z" />
</svg>
