<?xml version="1.0" standalone="no"?>
<!DOCTYPE svg PUBLIC "-//W3C//DTD SVG 1.1//EN" "http://www.w3.org/Graphics/SVG/1.1/DTD/svg11.dtd" >
<svg xmlns="http://www.w3.org/2000/svg" xmlns:xlink="http://www.w3.org/1999/xlink" version="1.1" viewBox="-10 0 1010 1000">
   <path fill="currentColor"
d="M230 427l-37 61c-32 -33 -100 -79 -153 -108l35 -54c52 26 121 69 155 101zM119 937l-53 -50c41 -70 99 -187 145 -291l48 48c-42 95 -94 207 -140 293zM92 111l37 -52c53 29 120 76 153 111l-39 58c-32 -36 -98 -85 -151 -117zM507 300v-143h-108v143h108zM564 157v143
h111v-143h-111zM733 157v143h115v-143h-115zM856 407l59 56c-35 28 -76 57 -118 86c36 107 101 216 172 270c-17 14 -39 39 -52 57c-71 -61 -134 -175 -174 -292c-15 11 -30 21 -46 31c38 126 22 255 -25 298c-26 26 -49 34 -88 34c-17 1 -40 0 -64 -2
c-2 -18 -8 -45 -19 -64c28 3 52 4 72 4s36 -2 50 -20c20 -21 32 -76 28 -143c-92 63 -216 114 -332 151c-4 -15 -14 -40 -23 -56c127 -42 264 -104 341 -176c-5 -21 -13 -44 -21 -66c-78 60 -188 106 -290 140c-3 -16 -15 -41 -23 -56c103 -37 215 -88 277 -150
c-12 -18 -26 -34 -42 -50c-61 41 -133 73 -203 99c-4 -17 -17 -41 -26 -57c88 -33 178 -82 241 -141h-214v-263h577v263h-261c-20 24 -42 45 -67 65c40 38 70 83 90 131c67 -46 138 -104 181 -149z" />
</svg>
