<?xml version="1.0" standalone="no"?>
<!DOCTYPE svg PUBLIC "-//W3C//DTD SVG 1.1//EN" "http://www.w3.org/Graphics/SVG/1.1/DTD/svg11.dtd" >
<svg xmlns="http://www.w3.org/2000/svg" xmlns:xlink="http://www.w3.org/1999/xlink" version="1.1" viewBox="-10 0 1010 1000">
   <path fill="currentColor"
d="M254 187l-45 44c-29 -37 -88 -90 -137 -126l42 -39c50 34 111 85 140 121zM220 438l-38 50c-31 -31 -93 -76 -144 -106l37 -44c50 27 113 71 145 100zM181 597l52 36c-35 100 -83 218 -124 306l-58 -36c38 -75 92 -199 130 -306zM307 613l56 13c-22 85 -56 175 -93 233
c-12 -8 -37 -21 -51 -27c38 -57 69 -139 88 -219zM603 559h-138v298c0 37 -5 56 -29 67c-21 11 -57 12 -111 12c-1 -18 -8 -45 -16 -66c36 1 69 1 78 1c11 -1 14 -4 14 -14v-298h-146v-62h146v-105h-99v-55c-22 22 -42 41 -64 59c-10 -11 -33 -36 -47 -46
c97 -73 191 -189 248 -308l59 20c-10 19 -20 40 -31 60c64 51 139 122 174 168l-49 38c-33 -44 -96 -108 -155 -159c-38 58 -81 112 -126 159h270v64h-116v105h138v62zM630 794l-56 18c-11 -47 -42 -124 -70 -183l53 -14c29 56 61 133 73 179zM855 472h-168
c18 79 45 155 80 220c38 -62 68 -136 88 -220zM890 403l42 19c-25 135 -69 245 -127 333c44 64 98 116 160 149c-14 13 -34 39 -44 58c-61 -36 -113 -88 -157 -152c-51 63 -109 111 -171 146c-11 -16 -35 -41 -50 -52c69 -36 132 -87 184 -155c-44 -80 -77 -174 -100 -277
h-21v-66h116v-358h67v151h164v65h-164v142h89z" />
</svg>
