<?xml version="1.0" standalone="no"?>
<!DOCTYPE svg PUBLIC "-//W3C//DTD SVG 1.1//EN" "http://www.w3.org/Graphics/SVG/1.1/DTD/svg11.dtd" >
<svg xmlns="http://www.w3.org/2000/svg" xmlns:xlink="http://www.w3.org/1999/xlink" version="1.1" viewBox="-10 0 1010 1000">
   <path fill="currentColor"
d="M288 158l-37 62c-34 -34 -104 -81 -159 -109l35 -54c55 26 126 69 161 101zM234 419l-36 63c-34 -31 -104 -75 -158 -103l34 -55c54 25 124 65 160 95zM227 571l47 49c-45 103 -104 226 -155 318l-54 -51c45 -75 113 -205 162 -316zM439 442v63h160v-63h-160zM599 280
v-63h-160v63h160zM599 392v-62h-160v62h160zM951 697h-249c68 74 171 142 267 175c-16 14 -38 41 -50 59c-96 -41 -200 -122 -270 -209v236h-72v-232c-72 88 -178 167 -274 210c-11 -18 -32 -43 -47 -57c96 -34 203 -106 273 -182h-237v-63h285v-70h-138v25h-70v-299
c-20 25 -40 48 -61 69c-10 -14 -35 -41 -51 -54c73 -64 139 -163 178 -264l68 19c-14 33 -30 67 -47 99h166c-13 -28 -35 -70 -54 -100l66 -23c23 33 50 78 62 105l-45 18h255v58h-239v63h205v50h-205v62h206v50h-206v63h241v59h-259v70h302v63z" />
</svg>
