<?xml version="1.0" standalone="no"?>
<!DOCTYPE svg PUBLIC "-//W3C//DTD SVG 1.1//EN" "http://www.w3.org/Graphics/SVG/1.1/DTD/svg11.dtd" >
<svg xmlns="http://www.w3.org/2000/svg" xmlns:xlink="http://www.w3.org/1999/xlink" version="1.1" viewBox="-10 0 1010 1000">
   <path fill="currentColor"
d="M308 156l-43 61c-39 -29 -117 -77 -174 -111l42 -54c57 32 135 77 175 104zM260 417l-42 62c-40 -28 -119 -73 -177 -104l41 -54c58 27 137 70 178 96zM135 943l-67 -46c44 -72 106 -194 153 -301l57 45c-41 99 -96 213 -143 302zM387 565h480
c-80 -47 -161 -116 -217 -186v164h-70v-163c-50 69 -121 136 -193 185zM650 862h155v-92h-155v92zM436 770v92h148v-92h-148zM584 714v-90h-148v90h148zM805 714v-90h-155v90h155zM946 372h-226c65 68 162 129 247 161c-17 13 -39 40 -50 59c-14 -7 -27 -14 -41 -22v382h-71
v-30h-369v32h-68v-377c-18 12 -35 21 -52 30c-11 -17 -33 -42 -49 -56c83 -37 178 -106 241 -179h-214v-64h286v-159c-82 9 -167 15 -245 20c-2 -17 -11 -42 -18 -58c185 -12 406 -35 527 -67l50 56c-68 17 -154 31 -244 41v167h67c25 -45 56 -111 71 -158l70 22
c-22 45 -48 96 -71 136h159v64zM385 189l58 -21c22 36 48 84 61 113l-61 26c-12 -30 -38 -80 -58 -118z" />
</svg>
