<?xml version="1.0" standalone="no"?>
<!DOCTYPE svg PUBLIC "-//W3C//DTD SVG 1.1//EN" "http://www.w3.org/Graphics/SVG/1.1/DTD/svg11.dtd" >
<svg xmlns="http://www.w3.org/2000/svg" xmlns:xlink="http://www.w3.org/1999/xlink" version="1.1" viewBox="-10 0 1010 1000">
   <path fill="currentColor"
d="M687 234v-78h-115v78h115zM868 430v-137h-123v137h123zM398 293v137h117v-137h-117zM687 293h-115v137h115v-137zM510 234v-78h-188v-61h624v61h-196v78h185v255h-601v-255h176zM303 159l-44 59c-35 -34 -107 -82 -167 -111l42 -54c59 26 132 71 169 106zM256 416l-43 61
c-36 -33 -109 -77 -170 -105l41 -55c60 25 135 66 172 99zM132 942l-66 -43c47 -77 112 -209 160 -322l59 44c-44 105 -103 229 -153 321zM954 714h-229c61 70 156 132 243 165c-16 12 -38 39 -49 55c-92 -42 -193 -119 -258 -203v226h-69v-217c-67 83 -166 157 -257 197
c-11 -16 -31 -42 -48 -55c89 -34 184 -97 246 -168h-226v-63h139c-9 -35 -35 -85 -63 -123l62 -20c30 38 59 89 68 125l-56 18h135v-151h69v151h124l-45 -16c23 -36 52 -92 67 -130l70 21c-27 45 -55 92 -78 125h155v63z" />
</svg>
