<?xml version="1.0" standalone="no"?>
<!DOCTYPE svg PUBLIC "-//W3C//DTD SVG 1.1//EN" "http://www.w3.org/Graphics/SVG/1.1/DTD/svg11.dtd" >
<svg xmlns="http://www.w3.org/2000/svg" xmlns:xlink="http://www.w3.org/1999/xlink" version="1.1" viewBox="-10 0 1010 1000">
   <path fill="currentColor"
d="M890 93l56 27c-26 62 -58 137 -85 184l-47 -24c25 -50 59 -131 76 -187zM267 160l-47 55c-28 -33 -88 -78 -139 -106l46 -49c50 26 111 68 140 100zM227 422l-48 56c-28 -32 -88 -75 -138 -102l46 -50c50 25 110 64 140 96zM167 585l57 34c-27 105 -65 230 -100 323
l-64 -34c32 -80 76 -211 107 -323zM451 392v43c35 41 101 122 117 144l-38 61c-15 -27 -49 -77 -79 -120v435h-64v-431c-36 97 -81 191 -127 249c-8 -20 -26 -53 -38 -71c60 -69 124 -196 158 -310h-116v-70h123v-155c-34 9 -68 17 -100 23c-3 -16 -14 -40 -22 -57
c87 -19 188 -49 245 -82l49 56l-7 4l53 -21c30 60 66 137 82 182l-56 26c-16 -47 -50 -128 -79 -187c-30 15 -64 28 -101 39v172h103v70h-103zM641 671h217v-100h-217v100zM858 409h-217v103h217v-103zM925 343v525c0 36 -7 57 -33 70c-25 11 -64 12 -127 12
c-4 -19 -15 -48 -24 -68c46 3 88 2 100 2c13 -1 17 -5 17 -17v-133h-217v222h-67v-613h140v-300h67v300h144z" />
</svg>
