<?xml version="1.0" standalone="no"?>
<!DOCTYPE svg PUBLIC "-//W3C//DTD SVG 1.1//EN" "http://www.w3.org/Graphics/SVG/1.1/DTD/svg11.dtd" >
<svg xmlns="http://www.w3.org/2000/svg" xmlns:xlink="http://www.w3.org/1999/xlink" version="1.1" viewBox="-10 0 1010 1000">
   <path fill="currentColor"
d="M739 192h-36c-14 35 -30 66 -48 91c-13 -11 -44 -31 -62 -39c38 -50 63 -126 76 -201l74 13c-5 26 -12 52 -19 77h220v59h-129c17 29 33 59 39 81l-67 24c-8 -28 -28 -71 -48 -105zM422 192h-27c-22 44 -50 83 -78 114c-14 -9 -44 -29 -62 -38c57 -55 101 -140 126 -226
l71 15c-8 25 -17 51 -28 76h168v59h-97c16 31 29 63 35 87l-67 23c-6 -29 -23 -73 -41 -110zM279 175l-40 57c-31 -35 -94 -85 -144 -117l39 -50c50 30 113 76 145 110zM241 424l-36 62c-35 -30 -108 -71 -164 -95l33 -57c56 21 129 60 167 90zM217 582l49 47
c-42 100 -97 218 -145 306l-55 -48c43 -73 105 -197 151 -305zM636 497v63h159v-63h-159zM636 379v61h159v-61h-159zM870 616h-234v55h258v58h-258v63h306v59h-306v99h-74v-99h-298v-59h298v-63h-252v-58h252v-55h-231v-56h231v-63h-283v-57h283v-61h-225v-55h225v-49h74v49
h234v116h79v57h-79v119z" />
</svg>
