<?xml version="1.0" standalone="no"?>
<!DOCTYPE svg PUBLIC "-//W3C//DTD SVG 1.1//EN" "http://www.w3.org/Graphics/SVG/1.1/DTD/svg11.dtd" >
<svg xmlns="http://www.w3.org/2000/svg" xmlns:xlink="http://www.w3.org/1999/xlink" version="1.1" viewBox="-10 0 1010 1000">
   <path fill="currentColor"
d="M281 164l-39 60c-32 -35 -99 -81 -152 -109l38 -53c52 26 119 68 153 102zM233 425l-37 61c-34 -30 -102 -71 -156 -96l35 -54c54 21 122 59 158 89zM208 588l51 37c-41 104 -93 223 -137 311l-58 -37c41 -75 101 -200 144 -311zM497 731l13 50c-78 37 -158 73 -225 102
l-27 -57c63 -21 151 -57 239 -95zM503 670l-38 42c-20 -25 -61 -61 -96 -84l37 -38c35 23 77 56 97 80zM554 878v-336h66v336c0 34 -7 49 -32 59c-23 9 -60 10 -121 10c-4 -18 -13 -40 -22 -56c43 2 83 2 93 1c12 0 16 -4 16 -14zM648 776l28 -47c78 31 180 79 231 114
l-26 53c-51 -35 -152 -87 -233 -120zM770 592l43 40c-34 31 -79 62 -115 82l-36 -38c33 -20 81 -59 108 -84zM630 420l-12 12c77 59 222 118 340 144c-16 12 -34 38 -44 55c-114 -32 -252 -95 -336 -164c-85 69 -197 128 -296 169c-7 -13 -26 -43 -38 -55
c115 -40 245 -105 323 -179h-16v-109c-68 63 -170 126 -257 161c-7 -16 -22 -44 -35 -59c79 -23 171 -73 234 -126h-208v-60h266v-69c-74 6 -151 9 -220 10c0 -16 -9 -39 -16 -54c168 -5 380 -21 493 -51l40 53c-60 17 -142 28 -229 37v74h292v60h-292
c100 30 223 79 290 116l-29 56c-59 -34 -166 -80 -261 -113v74h-30z" />
</svg>
