<?xml version="1.0" standalone="no"?>
<!DOCTYPE svg PUBLIC "-//W3C//DTD SVG 1.1//EN" "http://www.w3.org/Graphics/SVG/1.1/DTD/svg11.dtd" >
<svg xmlns="http://www.w3.org/2000/svg" xmlns:xlink="http://www.w3.org/1999/xlink" version="1.1" viewBox="-10 0 1010 1000">
   <path fill="currentColor"
d="M304 159l-43 59c-35 -35 -108 -83 -169 -112l42 -54c60 27 135 71 170 107zM255 417l-43 61c-35 -33 -109 -77 -171 -105l42 -55c60 25 135 66 172 99zM133 943l-66 -46c46 -76 112 -206 160 -319l57 44c-43 105 -102 227 -151 321zM794 637h-330v80h330v-80zM464 857
h330v-84h-330v84zM394 956v-378h473v374h-73v-36h-330v40h-70zM576 244v208h90v-208h-90zM727 452h232v65h-670v-65h226v-208h-180v-64h151c-11 -34 -32 -80 -55 -116l60 -21c26 38 51 88 62 122l-38 15h221l-39 -14c22 -33 50 -88 64 -124l68 22c-22 42 -47 86 -69 116h168
v64h-201v208zM365 286l52 -15c23 46 46 107 54 146l-56 17c-7 -40 -28 -102 -50 -148zM822 439l-52 -17c19 -41 45 -108 57 -153l61 19c-21 53 -45 111 -66 151z" />
</svg>
