<?xml version="1.0" standalone="no"?>
<!DOCTYPE svg PUBLIC "-//W3C//DTD SVG 1.1//EN" "http://www.w3.org/Graphics/SVG/1.1/DTD/svg11.dtd" >
<svg xmlns="http://www.w3.org/2000/svg" xmlns:xlink="http://www.w3.org/1999/xlink" version="1.1" viewBox="-10 0 1010 1000">
   <path fill="currentColor"
d="M285 69l57 25c-63 61 -162 117 -245 151c-11 -14 -29 -34 -44 -45c79 -30 177 -81 232 -131zM319 205l57 23c-67 71 -174 132 -269 170c-10 -15 -28 -36 -44 -48c90 -32 198 -88 256 -145zM340 353l60 24c-70 84 -190 153 -310 193c-9 -16 -27 -37 -43 -51
c113 -33 232 -95 293 -166zM377 642l42 16c-57 147 -192 230 -340 270c-7 -17 -24 -43 -37 -58c113 -25 223 -80 282 -166h-232v-60h273zM512 419h316v-42h-316v42zM512 295v41h316v-41h-316zM512 213v41h316v-41h-316zM704 491l42 -30h-303v-290h174c3 -13 6 -27 9 -41
h-236v-51h557v51h-249c-6 15 -11 28 -17 41h217v290h-135c72 27 151 60 200 86l-66 34c-44 -26 -122 -62 -193 -90zM818 576l60 40c-63 48 -143 97 -211 132c75 55 172 92 290 107c-16 16 -35 43 -43 63c-174 -30 -300 -106 -380 -221v180c0 38 -7 58 -35 68
c-28 11 -73 11 -139 11c-3 -19 -14 -46 -24 -64c52 1 95 1 110 0c14 -1 17 -4 17 -15v-315c-28 9 -56 18 -83 25c-9 -13 -34 -37 -50 -48c87 -18 182 -45 237 -78l63 21c-40 29 -98 55 -157 76h61v23c21 48 50 92 88 129c66 -38 147 -92 196 -134z" />
</svg>
