<?xml version="1.0" standalone="no"?>
<!DOCTYPE svg PUBLIC "-//W3C//DTD SVG 1.1//EN" "http://www.w3.org/Graphics/SVG/1.1/DTD/svg11.dtd" >
<svg xmlns="http://www.w3.org/2000/svg" xmlns:xlink="http://www.w3.org/1999/xlink" version="1.1" viewBox="-10 0 1010 1000">
   <path fill="currentColor"
d="M751 250v-110h-282v110h282zM824 81v227h-425v-227h425zM233 437l-37 61c-33 -34 -102 -82 -157 -111l36 -54c53 27 123 71 158 104zM113 939l-54 -52c44 -72 108 -197 155 -306l47 50c-43 100 -100 218 -148 308zM97 115l36 -50c54 34 122 86 154 122l-38 57
c-31 -37 -99 -92 -152 -129zM515 546v-123h-148v123h148zM585 366v237h-286v-237h286zM837 842v-173h73v276h-73v-35l-516 13v-245h73v173l185 -3v-219h73v217zM851 546v-123h-147v123h147zM638 366h282v237h-282v-237z" />
</svg>
