<?xml version="1.0" standalone="no"?>
<!DOCTYPE svg PUBLIC "-//W3C//DTD SVG 1.1//EN" "http://www.w3.org/Graphics/SVG/1.1/DTD/svg11.dtd" >
<svg xmlns="http://www.w3.org/2000/svg" xmlns:xlink="http://www.w3.org/1999/xlink" version="1.1" viewBox="-10 0 1010 1000">
   <path fill="currentColor"
d="M287 164l-44 58c-33 -35 -101 -85 -158 -115l43 -53c57 29 125 76 159 110zM249 423l-45 59c-33 -35 -102 -81 -161 -109l42 -54c58 27 128 71 164 104zM203 589l58 39c-37 103 -87 226 -131 317l-66 -39c41 -77 97 -206 139 -317zM389 272v151c0 156 -19 380 -135 534
c-11 -12 -38 -32 -51 -39c110 -146 123 -349 123 -495v-209h250v-171h69v61h257v54h-257v56h249l12 -3l47 13c-13 50 -29 107 -44 144l-58 -19c7 -21 15 -49 22 -77h-263v44l180 -9l2 44l-182 9v15c0 19 6 23 44 23h140c27 0 33 -7 36 -51c14 8 35 14 52 17
c-5 60 -24 76 -79 76h-155c-80 0 -103 -11 -103 -65v-11l-145 7l-2 -45l147 -7v-47h-156zM517 508v60h292v-60h-292zM452 611v-145h424v145h-424zM941 802h-220c50 54 134 88 238 101c-13 12 -29 35 -37 52c-121 -23 -213 -75 -265 -153h-6c-34 56 -105 113 -246 157
c-8 -14 -28 -34 -41 -45c114 -33 178 -73 214 -112h-199v-49h229c8 -20 11 -38 11 -56v-2h-197v-49h478v49h-220v4c0 17 -2 35 -7 54h268v49z" />
</svg>
