<?xml version="1.0" standalone="no"?>
<!DOCTYPE svg PUBLIC "-//W3C//DTD SVG 1.1//EN" "http://www.w3.org/Graphics/SVG/1.1/DTD/svg11.dtd" >
<svg xmlns="http://www.w3.org/2000/svg" xmlns:xlink="http://www.w3.org/1999/xlink" version="1.1" viewBox="-10 0 1010 1000">
   <path fill="currentColor"
d="M194 587l59 39c-38 104 -88 226 -131 318l-66 -40c40 -77 97 -205 138 -317zM238 419l-44 60c-31 -33 -99 -78 -156 -105l42 -54c56 26 125 66 158 99zM798 460v130h145v67h-145v300h-67v-300h-134v-67h134v-130h-96v-67h270v67h-107zM516 437v-79h-171v79h171zM516 570
v-80h-171v80h171zM745 34l58 18c-3 10 -6 19 -8 28c34 103 102 218 175 267c-16 14 -37 38 -49 56c-62 -50 -119 -144 -158 -243c-41 97 -96 184 -157 245c-7 -10 -17 -22 -29 -33v254h-113v87h143v65h-143v178h-66v-178h-148v-65h148v-87h-112v-323h112v-86h-132v-24
l-37 49c-31 -34 -97 -80 -152 -111l43 -52c51 26 112 66 146 99v-25h132v-109h66v109h126v64h-126v86h113v35c72 -73 134 -189 168 -304z" />
</svg>
