<?xml version="1.0" standalone="no"?>
<!DOCTYPE svg PUBLIC "-//W3C//DTD SVG 1.1//EN" "http://www.w3.org/Graphics/SVG/1.1/DTD/svg11.dtd" >
<svg xmlns="http://www.w3.org/2000/svg" xmlns:xlink="http://www.w3.org/1999/xlink" version="1.1" viewBox="-10 0 1010 1000">
   <path fill="currentColor"
d="M288 158l-36 62c-35 -35 -105 -80 -160 -109l35 -54c55 26 127 69 161 101zM234 420l-35 63c-34 -32 -105 -76 -159 -103l34 -55c54 24 125 64 160 95zM220 571l48 47c-43 104 -99 226 -148 318l-54 -48c43 -76 106 -205 154 -317zM824 662l44 32
c-55 54 -125 122 -191 183c20 13 37 24 50 34l-36 46c-48 -36 -144 -96 -218 -136l37 -40c34 17 73 39 109 62c47 -41 95 -85 134 -122h-378v-55h250c-22 -22 -59 -54 -87 -77l40 -31c34 25 75 56 95 77l-35 31h175zM623 437l40 19l-21 21c78 57 218 114 325 144
c-11 16 -24 43 -29 60c-110 -38 -249 -103 -337 -167c-87 72 -198 131 -297 173c-8 -14 -27 -43 -38 -55c122 -44 255 -113 336 -195h-24v-183h-225v101h-62v-160h287v-59h-234v-59h550v59h-248v59h301v160h-64v-101h-237v183h-23zM370 459v-46h176v46h-176zM378 312h167v45
h-167v-45zM677 459v-46h185v46h-185zM677 312h175v45h-175v-45z" />
</svg>
