<?xml version="1.0" standalone="no"?>
<!DOCTYPE svg PUBLIC "-//W3C//DTD SVG 1.1//EN" "http://www.w3.org/Graphics/SVG/1.1/DTD/svg11.dtd" >
<svg xmlns="http://www.w3.org/2000/svg" xmlns:xlink="http://www.w3.org/1999/xlink" version="1.1" viewBox="-10 0 1010 1000">
   <path fill="currentColor"
d="M256 416l-42 61c-37 -33 -110 -77 -171 -105l41 -54c60 24 136 65 172 98zM132 944l-65 -45c47 -77 113 -208 162 -321l59 44c-45 105 -105 229 -156 322zM92 107l42 -54c59 27 132 71 167 105l-44 60c-35 -34 -106 -81 -165 -111zM453 507h145v-70h-145v70zM453 321v67
h145v-67h-145zM815 388v-67h-152v67h152zM815 507v-70h-152v70h152zM921 615v269c0 35 -8 51 -34 61c-28 11 -70 11 -137 11c-4 -18 -13 -40 -22 -57c52 1 96 1 109 1c14 -1 17 -4 17 -16v-210h-191v91l76 -4c-8 -19 -18 -38 -27 -56l42 -12c28 49 55 113 66 154l-45 16
c-3 -15 -9 -31 -15 -50c-110 8 -218 14 -301 19l-8 -57c41 -2 92 -4 147 -7v-94h-189v283h-65v-342h254v-56h-208v-290h490v290h-217v56h258zM778 125h176v62h-176v62h-68v-62h-150v62h-66v-62h-168v-62h168v-81h66v81h150v-81h68v81z" />
</svg>
