<?xml version="1.0" standalone="no"?>
<!DOCTYPE svg PUBLIC "-//W3C//DTD SVG 1.1//EN" "http://www.w3.org/Graphics/SVG/1.1/DTD/svg11.dtd" >
<svg xmlns="http://www.w3.org/2000/svg" xmlns:xlink="http://www.w3.org/1999/xlink" version="1.1" viewBox="-10 0 1010 1000">
   <path fill="currentColor"
d="M857 59l67 20c-29 51 -62 105 -90 142l-52 -19c25 -39 58 -101 75 -143zM480 198l-60 22c-11 -37 -42 -94 -72 -136l57 -19c30 40 63 97 75 133zM306 160l-44 60c-35 -35 -108 -83 -168 -113l42 -54c60 28 135 72 170 107zM256 417l-42 60c-37 -33 -110 -77 -171 -104
l41 -55c60 24 136 65 172 99zM229 577l59 43c-45 107 -104 231 -154 323l-65 -44c47 -77 112 -209 160 -322zM762 285h-265c21 31 40 72 48 99l-32 7h209l-13 -4c18 -28 38 -69 53 -102zM951 720h-231c64 69 159 129 249 159c-17 14 -37 40 -48 59
c-94 -39 -192 -113 -258 -195v214h-71v-216c-66 83 -167 156 -259 197c-10 -18 -32 -44 -48 -56c88 -32 184 -93 245 -162h-232v-63h294v-75h-241v-57h241v-73h-265v-61h147c-8 -29 -28 -70 -47 -100l38 -6h-160v-63h224v-178h62v178h75v-178h63v178h225v63h-111
c-20 37 -44 76 -64 106h156v61h-272v73h250v57h-250v75h288v63z" />
</svg>
