<?xml version="1.0" standalone="no"?>
<!DOCTYPE svg PUBLIC "-//W3C//DTD SVG 1.1//EN" "http://www.w3.org/Graphics/SVG/1.1/DTD/svg11.dtd" >
<svg xmlns="http://www.w3.org/2000/svg" xmlns:xlink="http://www.w3.org/1999/xlink" version="1.1" viewBox="-10 0 1010 1000">
   <path fill="currentColor"
d="M489 296h212c16 -31 32 -70 41 -97h-401v-58h250c-10 -27 -22 -61 -35 -87l69 -13c15 30 33 72 43 100h255v58h-172l67 17c-16 27 -31 56 -45 80h184v61h-663v-61h179c-6 -24 -21 -56 -37 -81l63 -14c17 24 34 60 40 82zM806 523v-64h-357v64h357zM806 633v-64h-357v64
h357zM879 409v274h-291c49 29 105 68 135 99l-47 42c-32 -32 -94 -78 -145 -110l38 -31h-191v-274h501zM304 157l-44 62c-35 -35 -108 -82 -166 -112l42 -54c58 27 131 71 168 104zM253 413l-44 62c-35 -32 -108 -76 -166 -102l41 -55c57 24 131 65 169 95zM219 578l60 41
c-41 106 -96 231 -143 323l-68 -43c44 -78 106 -209 151 -321zM314 931l-59 -32c30 -42 62 -113 81 -162l58 25c-20 51 -49 122 -80 169zM549 890h161c34 0 41 -8 44 -75c14 11 42 20 61 24c-8 90 -29 112 -97 112h-175c-92 0 -116 -18 -116 -87v-129h69v128
c0 24 7 27 53 27zM784 749l58 -24c45 53 96 127 118 174l-63 29c-20 -48 -69 -124 -113 -179z" />
</svg>
