<?xml version="1.0" standalone="no"?>
<!DOCTYPE svg PUBLIC "-//W3C//DTD SVG 1.1//EN" "http://www.w3.org/Graphics/SVG/1.1/DTD/svg11.dtd" >
<svg xmlns="http://www.w3.org/2000/svg" xmlns:xlink="http://www.w3.org/1999/xlink" version="1.1" viewBox="-10 0 1010 1000">
   <path fill="currentColor"
d="M301 159l-41 57c-35 -35 -108 -83 -169 -112l41 -52c59 27 134 71 169 107zM253 419l-41 59c-35 -34 -109 -78 -171 -106l40 -52c60 25 135 66 172 99zM220 578l53 40c-43 105 -100 229 -149 322l-62 -43c45 -77 111 -207 158 -319zM605 622l52 10
c-42 138 -135 236 -250 300c-7 -10 -26 -31 -37 -40c47 -23 90 -53 126 -89v-243h-99v-52h253v52h-100v179c24 -35 42 -74 55 -117zM425 612l51 10c-15 63 -42 126 -74 167c-10 -7 -32 -21 -46 -27c33 -40 55 -94 69 -150zM788 300h-72c1 33 3 64 5 94h118
c-23 -22 -58 -49 -87 -66zM822 496l63 11c-23 90 -56 170 -98 240c34 95 72 143 99 143c20 0 29 -26 33 -116c13 14 33 25 48 31c-9 126 -33 149 -85 150c-49 0 -98 -50 -138 -145c-44 58 -95 108 -152 148c-11 -12 -36 -33 -52 -43c71 -44 131 -103 178 -175
c-24 -77 -44 -173 -57 -287h-287v73c0 124 -17 304 -105 430c-12 -11 -39 -31 -55 -38c83 -119 95 -279 95 -393v-131h346c-2 -30 -4 -62 -6 -94h-366v-58h120v-162h66v162h123v-199h69v72h204v55h-204v72h297v58h-155c33 19 70 48 90 67l-29 27h90v59h-228
c8 81 21 151 36 210c25 -51 45 -107 60 -167z" />
</svg>
