<?xml version="1.0" standalone="no"?>
<!DOCTYPE svg PUBLIC "-//W3C//DTD SVG 1.1//EN" "http://www.w3.org/Graphics/SVG/1.1/DTD/svg11.dtd" >
<svg xmlns="http://www.w3.org/2000/svg" xmlns:xlink="http://www.w3.org/1999/xlink" version="1.1" viewBox="-10 0 1010 1000">
   <path fill="currentColor"
d="M739 454v-156c-31 55 -71 105 -112 138c-8 -14 -23 -38 -36 -51c52 -36 104 -107 134 -177h-103v-62h117v-102h67v102h135v62h-120c34 42 102 130 119 156l-45 52c-16 -32 -57 -97 -89 -146v184h-67zM426 454v-175c-37 57 -86 114 -132 150c-8 -15 -24 -40 -37 -53
c54 -36 113 -103 150 -168h-126v-61h145v-103h66v103h103v61h-103v12c25 20 95 91 110 109l-40 47c-13 -20 -43 -59 -70 -91v169h-66zM274 156l-48 60c-31 -31 -96 -77 -146 -108l46 -52c50 27 115 71 148 100zM254 424l-47 61c-37 -30 -110 -78 -166 -109l45 -53
c56 27 130 72 168 101zM198 586l62 41c-37 104 -87 225 -130 317l-69 -41c40 -77 97 -205 137 -317zM650 737v129c21 2 45 3 70 3c27 0 193 0 231 -1c-11 16 -22 48 -25 67h-209c-149 0 -248 -27 -313 -140c-20 64 -52 120 -105 160l-57 -51c86 -61 115 -174 127 -300l69 12
c-3 31 -7 61 -12 90c32 84 81 126 148 146v-299h-286v-65h582l11 -4l50 17c-17 50 -39 106 -59 143l-58 -23c9 -18 18 -43 27 -68h-191v120h268v64h-268z" />
</svg>
