<?xml version="1.0" standalone="no"?>
<!DOCTYPE svg PUBLIC "-//W3C//DTD SVG 1.1//EN" "http://www.w3.org/Graphics/SVG/1.1/DTD/svg11.dtd" >
<svg xmlns="http://www.w3.org/2000/svg" xmlns:xlink="http://www.w3.org/1999/xlink" version="1.1" viewBox="-10 0 1010 1000">
   <path fill="currentColor"
d="M836 180h-107c-16 43 -36 86 -61 126h121c16 -35 34 -84 47 -126zM636 747v-425c-12 -9 -26 -17 -37 -21c55 -79 92 -181 112 -257l60 8c-6 23 -12 46 -21 70h113l10 -3l42 27c-17 51 -43 111 -65 160h79v439h-60v-382h-175v384h-58zM261 200l-49 45
c-24 -36 -77 -91 -121 -129l48 -39c43 36 97 88 122 123zM220 453l-46 49c-26 -33 -83 -83 -129 -116l43 -42c47 31 105 77 132 109zM202 576l56 41c-37 100 -87 220 -129 311l-63 -41c40 -75 96 -202 136 -311zM348 376v159h72v-159h-72zM531 535v-159h-61v159h61zM607 754
l-45 37c-17 -32 -51 -77 -86 -120v281h-63v-288c-35 86 -84 171 -132 221c-7 -20 -22 -48 -34 -66c52 -50 107 -140 140 -225h-93v-277h118v-102h-130v-62h130v-103h65v103h119v62h-119v102h109v277h-108c47 49 102 117 129 160zM759 417h53c-2 320 -20 458 -203 542
c-6 -14 -23 -36 -36 -47c171 -73 183 -193 186 -495zM776 805l43 -35c48 44 109 102 139 140l-46 40c-28 -38 -88 -101 -136 -145z" />
</svg>
