<?xml version="1.0" standalone="no"?>
<!DOCTYPE svg PUBLIC "-//W3C//DTD SVG 1.1//EN" "http://www.w3.org/Graphics/SVG/1.1/DTD/svg11.dtd" >
<svg xmlns="http://www.w3.org/2000/svg" xmlns:xlink="http://www.w3.org/1999/xlink" version="1.1" viewBox="-10 0 1010 1000">
   <path fill="currentColor"
d="M462 222v-47h-186v-62h186v-67h59v67h168v-67h60v67h191v62h-191v47h-60v-47h-168v47h-59zM243 171l-43 47c-26 -35 -84 -86 -133 -121l42 -42c48 33 107 82 134 116zM224 427l-40 51c-31 -31 -94 -73 -146 -102l38 -45c51 26 115 66 148 96zM183 594l50 37
c-37 101 -86 221 -127 309l-56 -37c38 -76 93 -201 133 -309zM630 701h153c-26 -23 -50 -50 -69 -77h-209c-23 26 -50 53 -79 77h142v-61h62v61zM412 396v66h389v-66h-389zM412 284v65h389v-65h-389zM949 624h-170c48 49 118 92 183 113c-12 12 -29 38 -37 55
c-32 -13 -65 -32 -96 -54v125c0 33 -5 49 -27 59c-21 10 -56 10 -112 10c-2 -18 -10 -40 -17 -57c40 1 74 1 83 1c11 -1 14 -3 14 -14v-102h-140v197h-62v-197h-134v175h-59v-196c-31 22 -67 42 -104 61c-7 -16 -25 -41 -38 -53c77 -34 140 -77 190 -123h-164v-60h220
c13 -18 26 -36 36 -54h-162v-274h509v274h-278c-10 19 -21 36 -32 54h397v60z" />
</svg>
