<?xml version="1.0" standalone="no"?>
<!DOCTYPE svg PUBLIC "-//W3C//DTD SVG 1.1//EN" "http://www.w3.org/Graphics/SVG/1.1/DTD/svg11.dtd" >
<svg xmlns="http://www.w3.org/2000/svg" xmlns:xlink="http://www.w3.org/1999/xlink" version="1.1" viewBox="-10 0 1010 1000">
   <path fill="currentColor"
d="M883 95l48 22c-22 41 -47 83 -68 113l-43 -18c20 -32 48 -83 63 -117zM937 336l-36 45c-32 -30 -91 -75 -145 -111c-26 49 -65 88 -125 115c-6 -15 -23 -38 -35 -49c118 -52 140 -143 146 -293h60c-4 69 -10 127 -26 177c56 35 125 83 161 116zM922 389v161h-66v-99h-511
v99h-65v-161h642zM752 717l-50 -25c31 -39 74 -102 97 -147l62 28c-34 51 -76 106 -109 144zM353 732l-52 -32c43 -40 79 -107 99 -162l53 23c-23 59 -55 127 -100 171zM657 93l42 17c-11 44 -28 97 -51 131l-42 -24c22 -32 42 -84 51 -124zM556 93l47 21
c-20 40 -43 82 -62 110l-40 -17c18 -32 43 -81 55 -114zM580 316l-40 44c-23 -24 -67 -56 -107 -84c-26 45 -67 82 -124 108c-7 -15 -23 -37 -36 -49c123 -53 149 -151 158 -292h58c-5 72 -14 133 -33 185c44 27 96 63 124 88zM340 91l45 19c-13 45 -31 102 -56 138l-45 -26
c23 -33 45 -89 56 -131zM283 171l-37 61c-33 -35 -99 -85 -152 -116l36 -53c53 28 121 75 153 108zM237 434l-36 62c-34 -34 -103 -83 -159 -114l35 -55c55 29 126 74 160 107zM205 581l48 49c-39 99 -89 218 -133 307l-55 -50c40 -73 97 -198 140 -306zM564 487h66
c-4 42 -8 82 -15 118c50 149 159 248 330 282c-14 15 -31 41 -39 61c-151 -37 -253 -122 -314 -251c-43 119 -129 203 -313 252c-6 -18 -23 -44 -34 -58c261 -64 302 -200 319 -404z" />
</svg>
