<?xml version="1.0" standalone="no"?>
<!DOCTYPE svg PUBLIC "-//W3C//DTD SVG 1.1//EN" "http://www.w3.org/Graphics/SVG/1.1/DTD/svg11.dtd" >
<svg xmlns="http://www.w3.org/2000/svg" xmlns:xlink="http://www.w3.org/1999/xlink" version="1.1" viewBox="-10 0 1010 1000">
   <path fill="currentColor"
d="M881 115l55 28c-27 39 -56 80 -79 109l-39 -23c20 -30 49 -81 63 -114zM943 366l-44 46c-29 -29 -82 -73 -132 -111c-26 48 -67 85 -129 112c-6 -14 -24 -37 -37 -49c126 -52 147 -145 152 -312h62c-3 77 -9 140 -25 193c54 39 119 88 153 121zM936 587h-69v-88h-490v88
h-67v-150h626v150zM646 267l-42 -28c33 -27 51 -76 59 -124l46 13c-10 54 -25 108 -63 139zM570 116l52 22c-24 37 -49 78 -68 105l-40 -18c18 -30 43 -77 56 -109zM599 332l-42 43c-20 -20 -56 -49 -90 -76c-26 53 -67 91 -134 120c-6 -15 -24 -39 -38 -50
c129 -52 148 -140 153 -317h61c-2 77 -8 141 -22 193c40 27 87 63 112 87zM347 267l-44 -27c30 -28 49 -78 57 -126l46 15c-9 52 -25 106 -59 138zM304 159l-43 59c-35 -35 -108 -83 -169 -112l42 -54c60 27 135 71 170 107zM255 417l-43 61c-35 -33 -109 -77 -171 -105
l42 -55c60 25 135 66 172 99zM230 578l58 44c-46 105 -107 229 -158 321l-65 -46c47 -76 116 -206 165 -319zM926 685h-231c65 78 168 150 265 183c-16 15 -38 40 -49 59c-94 -40 -193 -119 -260 -205v234h-70v-228c-69 85 -166 162 -254 205c-12 -17 -34 -42 -49 -56
c93 -37 195 -112 261 -192h-211v-63h253v-100h70v100h275v63z" />
</svg>
