<?xml version="1.0" standalone="no"?>
<!DOCTYPE svg PUBLIC "-//W3C//DTD SVG 1.1//EN" "http://www.w3.org/Graphics/SVG/1.1/DTD/svg11.dtd" >
<svg xmlns="http://www.w3.org/2000/svg" xmlns:xlink="http://www.w3.org/1999/xlink" version="1.1" viewBox="-10 0 1010 1000">
   <path fill="currentColor"
d="M654 272v60h142v-60h-142zM654 161v61h142v-61h-142zM946 439v54h-635v-54h269v-56h-220v-51h220v-60h-253v-50h253v-61h-216v-51h216v-67h74v67h214v107h78v61h-78v105h-214v56h292zM778 522l55 -26c44 42 99 103 124 142l-57 31c-24 -40 -76 -102 -122 -147zM748 626
l-59 22c-9 -34 -32 -86 -55 -125l55 -19c25 38 49 88 59 122zM583 636l-62 15c-1 -34 -11 -88 -24 -129l57 -13c15 40 27 94 29 127zM288 158l-36 62c-34 -34 -105 -80 -160 -109l36 -54c54 26 126 69 160 101zM234 419l-35 63c-34 -31 -105 -75 -159 -103l35 -55
c54 25 124 65 159 95zM228 571l47 50c-45 103 -104 225 -155 318l-54 -51c45 -76 113 -205 162 -317zM417 723v153h97v-153h-97zM667 723h-99v153h99v-153zM819 723h-97v153h97v-153zM887 665v211h68v59h-711v-59h108v-203l-3 2l-51 -37c44 -32 77 -87 93 -136l56 22
c-17 49 -44 104 -86 141h526z" />
</svg>
