<?xml version="1.0" standalone="no"?>
<!DOCTYPE svg PUBLIC "-//W3C//DTD SVG 1.1//EN" "http://www.w3.org/Graphics/SVG/1.1/DTD/svg11.dtd" >
<svg xmlns="http://www.w3.org/2000/svg" xmlns:xlink="http://www.w3.org/1999/xlink" version="1.1" viewBox="-10 0 1010 1000">
   <path fill="currentColor"
d="M941 139v61h-657v-61h284c-5 -29 -13 -66 -23 -94l68 -9c12 32 24 75 29 103h299zM669 201l54 20c-29 34 -66 69 -95 96v211h-57v-211c33 -32 76 -82 98 -116zM290 281h221s-1 15 -1 24c-4 127 -7 176 -22 193c-9 12 -21 18 -40 19c-13 2 -35 2 -54 1
c-1 -16 -6 -36 -13 -50c21 2 37 2 45 2c9 1 14 -1 18 -7c7 -10 9 -43 13 -131h-57c-14 93 -49 161 -115 204c-5 -11 -22 -32 -33 -42c54 -35 83 -89 95 -162h-57v-51zM584 282l-45 23c-7 -24 -26 -58 -44 -83l42 -18c20 24 39 57 47 78zM252 179l-42 49
c-29 -39 -92 -94 -144 -131l40 -43c52 35 116 88 146 125zM104 940l-55 -37c39 -76 93 -205 132 -314l49 37c-36 103 -85 224 -126 314zM39 376l36 -45c54 27 122 71 157 104l-39 52c-33 -34 -100 -80 -154 -111zM426 740h349v-82h-344v9c0 23 -1 48 -5 73zM775 598v-66h70
v426h-70v-158h-362c-17 58 -50 115 -113 159c-12 -13 -38 -32 -56 -40c103 -72 118 -176 118 -253v-133h69v65h344zM861 243l46 38c-19 10 -40 19 -64 28c20 72 53 141 101 174c-12 9 -27 27 -35 40c-52 -42 -87 -119 -106 -201c-20 6 -40 11 -58 16v126l80 -23
c1 13 5 32 8 42c-102 34 -122 43 -133 52v-1c-5 -12 -17 -37 -25 -49c10 -7 22 -22 22 -60v-121c59 -15 126 -38 164 -61z" />
</svg>
