<?xml version="1.0" standalone="no"?>
<!DOCTYPE svg PUBLIC "-//W3C//DTD SVG 1.1//EN" "http://www.w3.org/Graphics/SVG/1.1/DTD/svg11.dtd" >
<svg xmlns="http://www.w3.org/2000/svg" xmlns:xlink="http://www.w3.org/1999/xlink" version="1.1" viewBox="-10 0 1010 1000">
   <path fill="currentColor"
d="M610 85l59 17c-18 51 -39 109 -58 148l-45 -15c16 -40 36 -107 44 -150zM352 237l-50 14c-4 -40 -21 -101 -41 -147l46 -13c22 46 40 106 45 146zM105 940l-56 -37c38 -76 89 -201 127 -310l49 37c-35 102 -82 222 -120 310zM215 426l-37 51c-31 -30 -90 -72 -139 -101
l37 -45c48 26 109 66 139 95zM66 97l40 -42c45 32 102 81 129 115l-43 47c-25 -35 -81 -86 -126 -120zM530 340l62 12c-15 43 -31 93 -47 132h92v57h-149v101h135v57h-135v116c47 -6 96 -13 144 -20l2 56c-131 21 -267 42 -371 58l-13 -65c49 -6 110 -13 178 -22v-123h-140
v-57h140v-101h-153v-57h216c15 -43 31 -103 39 -144zM325 353l52 -12c15 38 27 90 29 122l-55 14c-1 -33 -12 -85 -26 -124zM534 56v220h107v58h-381v-58h121v-220h51v220h51v-220h51zM952 249v68h-70v553c0 41 -9 59 -34 70c-25 12 -67 14 -129 14c-3 -17 -13 -47 -23 -65
c47 1 89 1 102 0c14 0 18 -4 18 -18v-554h-156v-68h156v-187h66v187h70zM792 703l-60 19c-6 -61 -30 -164 -57 -243l55 -13c29 76 55 177 62 237z" />
</svg>
