<?xml version="1.0" standalone="no"?>
<!DOCTYPE svg PUBLIC "-//W3C//DTD SVG 1.1//EN" "http://www.w3.org/Graphics/SVG/1.1/DTD/svg11.dtd" >
<svg xmlns="http://www.w3.org/2000/svg" xmlns:xlink="http://www.w3.org/1999/xlink" version="1.1" viewBox="-10 0 1010 1000">
   <path fill="currentColor"
d="M858 197l-61 25c-11 -38 -39 -95 -66 -137l58 -22c28 41 57 97 69 134zM249 413c-2 -13 -12 -44 -20 -60c16 -3 29 -25 46 -55c18 -30 73 -143 102 -251l61 21c-33 95 -78 195 -123 271l90 -9c24 -47 48 -98 67 -148l59 27c-57 123 -129 250 -200 348l135 -24
c-8 -28 -18 -58 -28 -83l46 -14c24 61 50 141 59 188l-49 18c-3 -16 -7 -36 -13 -57c-182 35 -209 43 -226 53c-3 -13 -11 -44 -19 -60c18 -4 38 -31 64 -69c14 -19 41 -62 72 -118c-89 11 -110 16 -123 22zM254 167l-45 54c-27 -35 -90 -83 -141 -115l42 -48
c52 29 115 75 144 109zM232 419l-43 56c-31 -32 -95 -77 -149 -105l41 -51c54 27 118 68 151 100zM177 595l56 33c-32 102 -76 224 -113 313l-63 -33c37 -77 86 -204 120 -313zM273 681l52 10c-13 85 -33 178 -57 239c-11 -6 -36 -14 -50 -18c27 -62 44 -150 55 -231z
M360 691l49 -11c11 68 23 154 26 212l-51 12c-2 -58 -13 -146 -24 -213zM448 675l46 -14c23 61 49 141 59 192l-49 16c-10 -52 -35 -132 -56 -194zM646 693v135h115v-135h-115zM761 431v-131h-115v131h115zM761 628v-132h-115v132h115zM953 828v66h-307v62h-66v-589
c-15 24 -30 45 -46 66c-8 -17 -24 -44 -34 -60c67 -87 123 -223 151 -330l67 19c-18 55 -41 115 -67 173h292v65h-118v131h109v65h-109v132h110v65h-110v135h128z" />
</svg>
