<?xml version="1.0" standalone="no"?>
<!DOCTYPE svg PUBLIC "-//W3C//DTD SVG 1.1//EN" "http://www.w3.org/Graphics/SVG/1.1/DTD/svg11.dtd" >
<svg xmlns="http://www.w3.org/2000/svg" xmlns:xlink="http://www.w3.org/1999/xlink" version="1.1" viewBox="-10 0 1010 1000">
   <path fill="currentColor"
d="M285 154l-41 61c-32 -33 -101 -79 -156 -109l39 -55c55 28 124 71 158 103zM245 414l-40 62c-35 -31 -106 -75 -164 -101l38 -55c58 23 130 63 166 94zM206 585l57 42c-39 104 -90 225 -135 317l-64 -42c41 -76 100 -206 142 -317zM586 302h-155v72h155v-72zM804 374v-72
h-151v72h151zM876 426h-446c-4 156 -33 365 -153 513c-10 -15 -37 -40 -52 -48c123 -152 139 -363 139 -510v-130h512v175zM510 712v52h284v-52h-284zM510 616v51h284v-51h-284zM510 522v50h284v-50h-284zM861 812h-318l58 34c-50 42 -128 86 -190 110
c-12 -13 -35 -35 -51 -46c61 -23 136 -64 175 -98h-91v-338h417v338zM701 850l46 -37c61 32 130 74 170 107l-59 38c-35 -32 -99 -75 -157 -108zM661 124h287v153h-72v-95h-515v97h-70v-155h294c-9 -22 -21 -44 -35 -63l63 -20c18 24 36 56 48 83z" />
</svg>
