<?xml version="1.0" standalone="no"?>
<!DOCTYPE svg PUBLIC "-//W3C//DTD SVG 1.1//EN" "http://www.w3.org/Graphics/SVG/1.1/DTD/svg11.dtd" >
<svg xmlns="http://www.w3.org/2000/svg" xmlns:xlink="http://www.w3.org/1999/xlink" version="1.1" viewBox="-10 0 1010 1000">
   <path fill="currentColor"
d="M247 412l-42 61c-34 -31 -105 -73 -164 -99l42 -54c58 23 129 61 164 92zM126 944l-67 -40c40 -77 97 -205 137 -317l60 39c-37 104 -87 226 -130 318zM83 107l42 -53c56 26 124 68 157 101l-44 59c-32 -33 -100 -79 -155 -107zM504 142h-139v69h139v-69zM365 337h139
v-73h-139v73zM567 395h-202v561h-68v-871h270v310zM693 727h-178v91h178v-91zM752 870h-237v31h-58v-226h115v-70h-158v-53h158v-61c-41 4 -82 7 -121 9c-3 -13 -10 -34 -17 -46c101 -7 222 -22 287 -40l46 43c-38 11 -84 20 -133 26v69h164v53h-164v70h118v195zM703 337
h146v-73h-146v73zM849 142h-146v69h146v-69zM917 85v785c0 41 -9 63 -36 74c-27 12 -73 13 -145 12c-4 -17 -14 -48 -22 -66c52 2 101 2 115 1c15 0 20 -5 20 -21v-475h-211v-310h279z" />
</svg>
