<?xml version="1.0" standalone="no"?>
<!DOCTYPE svg PUBLIC "-//W3C//DTD SVG 1.1//EN" "http://www.w3.org/Graphics/SVG/1.1/DTD/svg11.dtd" >
<svg xmlns="http://www.w3.org/2000/svg" xmlns:xlink="http://www.w3.org/1999/xlink" version="1.1" viewBox="-10 0 1010 1000">
   <path fill="currentColor"
d="M431 251v-73h-161v-64h161v-63h70v63h194v-62h70v62h178v64h-178v74h-70v-74h-194v73h-70zM237 183l-44 46c-26 -36 -80 -88 -127 -123l43 -41c46 33 102 83 128 118zM211 437l-38 52c-28 -32 -87 -77 -135 -106l36 -46c47 27 107 70 137 100zM176 597l49 38
c-35 100 -81 218 -120 305l-56 -37c37 -73 89 -199 127 -306zM766 478h-348v50h348v-50zM415 627h351v-49h-348c-1 16 -1 32 -3 49zM833 676h-424c-17 95 -57 198 -148 274c-11 -14 -35 -39 -50 -48c122 -101 142 -239 142 -345v-129h242c-16 -25 -38 -56 -57 -80l51 -22
c25 29 55 68 68 92l-19 10h195v248zM798 780h-314v74h314v-74zM419 952v-231h446v230h-67v-42h-314v43h-65zM585 195l58 27c-4 5 -8 11 -13 16c75 56 215 109 335 131c-16 15 -36 42 -46 61c-114 -27 -246 -87 -330 -153c-80 69 -187 121 -293 155c-9 -18 -25 -41 -41 -57
c127 -34 261 -98 330 -180z" />
</svg>
