<?xml version="1.0" standalone="no"?>
<!DOCTYPE svg PUBLIC "-//W3C//DTD SVG 1.1//EN" "http://www.w3.org/Graphics/SVG/1.1/DTD/svg11.dtd" >
<svg xmlns="http://www.w3.org/2000/svg" xmlns:xlink="http://www.w3.org/1999/xlink" version="1.1" viewBox="-10 0 1010 1000">
   <path fill="currentColor"
d="M728 282l-38 -16c17 -31 38 -81 48 -113l47 17c-19 41 -39 83 -57 112zM463 173l38 -14c22 32 42 75 51 102l-42 18c-7 -29 -28 -72 -47 -106zM431 296h155v-161h-155v161zM818 296v-161h-166v161h166zM586 498v-54h-225v-52h225v-46h-217v-261h515v261h-232v46h235v52
h-235v54h292v56h-107c42 39 91 93 115 129l-54 30c-23 -37 -72 -94 -114 -135l50 -24h-536v-56h288zM761 673l-57 22c-12 -32 -39 -79 -65 -113l54 -18c27 34 55 79 68 109zM346 719l-49 -37c40 -24 76 -70 93 -118l57 12c-20 55 -53 111 -101 143zM299 161l-44 58
c-34 -35 -106 -83 -165 -113l42 -53c59 28 133 72 167 108zM252 419l-43 60c-34 -33 -107 -78 -168 -106l42 -54c59 26 133 67 169 100zM221 580l58 41c-42 105 -98 229 -147 322l-66 -43c45 -77 109 -207 155 -320zM656 871h303v59h-684v-59h310v-74h-226v-56h226v-59
l-53 13c-4 -31 -17 -78 -32 -114l57 -11c15 32 28 75 34 104h65v67h232v56h-232v74z" />
</svg>
