<?xml version="1.0" standalone="no"?>
<!DOCTYPE svg PUBLIC "-//W3C//DTD SVG 1.1//EN" "http://www.w3.org/Graphics/SVG/1.1/DTD/svg11.dtd" >
<svg xmlns="http://www.w3.org/2000/svg" xmlns:xlink="http://www.w3.org/1999/xlink" version="1.1" viewBox="-10 0 1010 1000">
   <path fill="currentColor"
d="M889 105l54 24c-25 40 -50 86 -71 116l-40 -21c20 -32 44 -84 57 -119zM957 358l-37 50c-31 -33 -91 -81 -146 -120c-29 53 -74 92 -148 121c-6 -13 -22 -35 -35 -45c141 -52 164 -143 170 -321h58c-2 77 -8 139 -24 191c60 39 127 89 162 124zM642 256l-40 -32
c40 -23 65 -69 76 -115l46 15c-13 50 -35 102 -82 132zM565 105l53 24c-26 40 -53 85 -75 116l-39 -21c20 -32 47 -84 61 -119zM587 336l-36 47c-22 -26 -62 -64 -101 -97c-28 54 -74 93 -146 122c-7 -13 -23 -34 -35 -44c140 -53 163 -147 170 -321h59
c-3 77 -10 140 -26 192c42 31 91 73 115 101zM323 256l-41 -32c39 -24 62 -69 74 -115l46 15c-13 50 -34 102 -79 132zM282 161l-41 59c-31 -32 -96 -81 -148 -113l39 -53c52 29 118 74 150 107zM229 420l-40 62c-33 -32 -100 -77 -153 -108l39 -55c53 28 121 71 154 101z
M221 587l59 40c-39 104 -92 225 -136 317l-66 -40c41 -77 101 -205 143 -317zM643 752v120h151c-27 -29 -71 -65 -106 -91l29 -29h-74zM847 842l-27 30h130v62h-671v-62h291v-120h-200v-57h200v-91h-217v-59h513v-73h-517v96h-70v-155h659v155h-71v36h-224v91h219v57h-123
c40 28 84 65 108 90z" />
</svg>
