<?xml version="1.0" standalone="no"?>
<!DOCTYPE svg PUBLIC "-//W3C//DTD SVG 1.1//EN" "http://www.w3.org/Graphics/SVG/1.1/DTD/svg11.dtd" >
<svg xmlns="http://www.w3.org/2000/svg" xmlns:xlink="http://www.w3.org/1999/xlink" version="1.1" viewBox="-10 0 1010 1000">
   <path fill="currentColor"
d="M853 226v-92h-242v-52h302v262h-60v-70c-74 24 -150 49 -212 68l-23 -50c60 -15 147 -41 235 -66zM634 180l28 -37c41 14 94 37 122 57l-29 42c-27 -20 -79 -46 -121 -62zM298 342l-21 -51c61 -15 150 -37 239 -61v-97h-228v-53h289v263h-61v-66c-77 23 -154 47 -218 65z
M311 177l29 -36c40 16 93 41 120 61l-31 41c-25 -20 -76 -48 -118 -66zM261 171l-45 55c-27 -36 -86 -86 -137 -119l42 -50c50 32 111 79 140 114zM219 431l-42 57c-29 -35 -90 -83 -142 -114l40 -51c52 30 115 75 144 108zM120 942l-64 -40c37 -72 90 -194 128 -300l57 40
c-34 98 -80 213 -121 300zM403 727h161v-46h-161v46zM403 595v45h161v-45h-161zM804 595h-176v45h176v-45zM804 727v-46h-176v46h176zM958 815v56h-330v85h-64v-85h-308v-56h308v-44h-224v-220h224v-39h-201v-50h201v-43h-237v95h-61v-149h679v149h-63v-95h-254v43h215v50
h-215v39h241v220h-241v44h330z" />
</svg>
