<?xml version="1.0" standalone="no"?>
<!DOCTYPE svg PUBLIC "-//W3C//DTD SVG 1.1//EN" "http://www.w3.org/Graphics/SVG/1.1/DTD/svg11.dtd" >
<svg xmlns="http://www.w3.org/2000/svg" xmlns:xlink="http://www.w3.org/1999/xlink" version="1.1" viewBox="-10 0 1010 1000">
   <path fill="currentColor"
d="M707 141v12c0 53 -12 119 -67 168c-9 -11 -33 -31 -45 -38c48 -41 55 -90 55 -131v-67h197v135c0 22 1 28 11 28h37c10 0 26 -1 35 -3c2 14 4 34 5 48c-9 3 -24 4 -39 4h-43c-51 0 -61 -21 -61 -78v-78h-85zM400 216l41 -17c20 28 43 69 52 93l-43 21
c-9 -27 -31 -68 -50 -97zM379 309v13h142v-136h-142v123zM521 376h-145c-6 87 -29 186 -93 259c-9 -11 -33 -31 -45 -38c57 -64 75 -147 82 -221h-68v-54h70v-14v-176h83c12 -28 24 -65 30 -90l66 9c-12 28 -24 56 -34 81h112v421c0 30 -5 45 -24 55c-18 10 -48 10 -87 10
c-2 -16 -10 -37 -17 -54c28 1 52 1 60 1s10 -3 10 -11v-178zM401 415l42 -16c21 30 45 71 55 98l-44 20c-9 -27 -32 -70 -53 -102zM238 183l-44 47c-26 -37 -81 -89 -127 -124l42 -41c46 34 102 84 129 118zM211 437l-37 52c-28 -32 -87 -77 -135 -106l36 -46
c47 27 107 70 136 100zM105 940l-55 -37c37 -73 89 -199 127 -306l49 38c-35 100 -81 218 -121 305zM384 702v169h98v-169h-98zM643 702h-99v169h99v-169zM806 702h-101v169h101v-169zM876 642v229h78v61h-718v-61h81v-229h559zM826 389h-123c15 32 35 62 61 87
c24 -25 46 -54 62 -87zM868 333l35 14c-21 68 -54 122 -95 165c42 30 94 51 151 63c-13 13 -30 35 -39 51c-60 -16 -112 -41 -157 -75c-42 31 -90 55 -142 71c-7 -13 -24 -38 -36 -49c50 -13 96 -34 135 -62c-31 -32 -55 -70 -73 -112l38 -10h-60v-54h218v-1l14 1z" />
</svg>
