<?xml version="1.0" standalone="no"?>
<!DOCTYPE svg PUBLIC "-//W3C//DTD SVG 1.1//EN" "http://www.w3.org/Graphics/SVG/1.1/DTD/svg11.dtd" >
<svg xmlns="http://www.w3.org/2000/svg" xmlns:xlink="http://www.w3.org/1999/xlink" version="1.1" viewBox="-10 0 1010 1000">
   <path fill="currentColor"
d="M463 342l-46 18c-2 -10 -4 -21 -7 -33c-108 58 -127 71 -139 84c-4 -14 -15 -37 -22 -49c11 -5 25 -17 25 -53v-195c52 -18 110 -46 143 -71l42 43c-39 25 -87 45 -133 62v164l69 -35c-9 -26 -18 -53 -29 -76l44 -15c23 47 44 108 52 150c45 -42 59 -114 64 -198h-58v-53
h212s0 18 -1 26c-7 175 -14 238 -30 260c-11 15 -23 21 -41 23c-12 1 -34 1 -54 0c0 -16 -4 -38 -11 -53c20 3 36 3 45 3c8 0 14 -1 18 -9c9 -14 17 -64 22 -197h-52c-7 100 -25 183 -79 235c-7 -11 -23 -27 -35 -35zM249 199l-50 45c-24 -39 -77 -97 -122 -137l47 -39
c44 38 99 94 125 131zM215 448l-46 45c-26 -34 -84 -84 -131 -119l44 -40c47 32 105 80 133 114zM115 924l-57 -37c39 -73 93 -199 132 -306l50 36c-36 102 -84 220 -125 307zM689 525l-33 46c-42 -38 -123 -92 -194 -129c-28 31 -60 60 -94 85h223v53h-101v62h167v54h-167
v148l38 -4c18 -35 39 -90 52 -128l49 17c-15 37 -30 74 -47 105l97 -11v56c-156 18 -318 36 -430 48l-9 -59c53 -5 121 -11 195 -18v-154h-164v-54h164v-62h-85v-40c-26 18 -54 35 -80 49c-9 -16 -24 -37 -36 -51c86 -39 181 -106 232 -179l43 23c-3 7 -8 13 -13 19
c69 36 150 86 193 124zM301 732l45 -16c22 35 42 83 51 114l-47 20c-8 -33 -28 -82 -49 -118zM775 153v563h-55v-563h55zM848 48h61v817c0 42 -10 60 -33 71c-25 11 -67 13 -134 12c-2 -17 -10 -45 -18 -65c48 2 92 2 105 1c13 0 19 -4 19 -19v-817z" />
</svg>
