<?xml version="1.0" standalone="no"?>
<!DOCTYPE svg PUBLIC "-//W3C//DTD SVG 1.1//EN" "http://www.w3.org/Graphics/SVG/1.1/DTD/svg11.dtd" >
<svg xmlns="http://www.w3.org/2000/svg" xmlns:xlink="http://www.w3.org/1999/xlink" version="1.1" viewBox="-10 0 1010 1000">
   <path fill="currentColor"
d="M243 419l-36 63c-34 -31 -104 -75 -159 -103l34 -55c54 25 125 65 161 95zM127 938l-53 -51c45 -75 112 -205 161 -317l48 50c-46 103 -105 226 -156 318zM100 111l35 -54c55 26 127 69 162 101l-37 61c-35 -34 -104 -79 -160 -108zM462 800v57h184v-57h-184zM646 644
v-52h-184v52h184zM646 750v-56h-184v56h184zM712 800v57h223v56h-473v46h-66v-319c-13 14 -26 27 -39 38c-11 -10 -35 -33 -49 -43c57 -44 111 -110 144 -175l60 18c-11 20 -23 40 -35 60h173c-7 -21 -20 -47 -33 -67l50 -20c16 21 33 51 38 71l-35 16h251v54h-209v52h195
v50h-195v56h195v50h-195zM406 442v-49h179v49h-179zM585 295v48h-151v-48h151zM712 441v-49h184v49h-184zM712 295h152v48h-152v-48zM679 189h267v152h-65v-97h-202v200h-64v-200h-200v97h-63v-152h263v-55h-204v-55h483v55h-215v55z" />
</svg>
