<?xml version="1.0" standalone="no"?>
<!DOCTYPE svg PUBLIC "-//W3C//DTD SVG 1.1//EN" "http://www.w3.org/Graphics/SVG/1.1/DTD/svg11.dtd" >
<svg xmlns="http://www.w3.org/2000/svg" xmlns:xlink="http://www.w3.org/1999/xlink" version="1.1" viewBox="-10 0 1010 1000">
   <path fill="currentColor"
d="M107 940l-58 -37c35 -76 82 -202 116 -311l52 38c-32 100 -74 220 -110 310zM196 444l-39 50c-24 -33 -76 -80 -119 -111l39 -44c42 31 94 75 119 105zM67 106l42 -40c42 36 91 87 115 122l-45 45c-22 -37 -71 -91 -112 -127zM537 733h-70v190h-50v-190h-78v-52h103
c20 -42 46 -101 59 -143l45 21c-18 40 -39 85 -58 122h49v52zM339 559l40 -16c21 37 44 87 52 118l-42 19c-8 -32 -28 -84 -50 -121zM621 466v417c0 30 -5 46 -24 57c-19 9 -49 10 -93 10c-2 -16 -10 -41 -17 -55c32 1 58 1 67 0s12 -3 12 -12v-360h-254v432h-55v-489h364z
M530 357v-96h-176v96h176zM588 208v202h-289v-202h289zM260 152v-64h363v64h-363zM710 302v253h63v-253h-63zM882 555v-253h-62v253h62zM963 912l-52 13c-2 -20 -5 -43 -10 -69c-89 22 -179 44 -251 60l-16 -61c37 -8 84 -18 134 -29v-209h-110v-376h111v-190h57v190h110
v376h-111v196l63 -15c-8 -33 -18 -66 -27 -97l49 -11c25 70 46 161 53 222z" />
</svg>
