<?xml version="1.0" standalone="no"?>
<!DOCTYPE svg PUBLIC "-//W3C//DTD SVG 1.1//EN" "http://www.w3.org/Graphics/SVG/1.1/DTD/svg11.dtd" >
<svg xmlns="http://www.w3.org/2000/svg" xmlns:xlink="http://www.w3.org/1999/xlink" version="1.1" viewBox="-10 0 1010 1000">
   <path fill="currentColor"
d="M744 283h-94c-22 33 -46 63 -74 88c-8 -11 -31 -32 -45 -41c45 -38 83 -89 111 -147h-73v-54h95c10 -27 19 -56 26 -85l56 10c-6 26 -14 50 -22 75h211v54h-231c-8 17 -16 34 -25 50h233v50h-111v67h143v49h-331v-49h131v-67zM690 658h168v-52h-168v52zM858 505h-168v53
h168v-53zM915 454v314c0 30 -6 42 -25 52c-19 8 -50 8 -98 8c-3 -15 -10 -34 -17 -48c34 1 62 1 71 1c9 -1 12 -3 12 -13v-60h-168v121h-56v-375h281zM552 258l-49 17c-8 -45 -25 -113 -41 -165l47 -16c18 53 36 120 43 164zM100 940l-51 -37c35 -74 85 -199 121 -306l47 37
c-35 100 -80 219 -117 306zM202 436l-34 52c-28 -31 -84 -76 -130 -106l34 -46c46 28 102 71 130 100zM66 106l39 -41c44 34 97 84 123 118l-41 46c-24 -36 -77 -88 -121 -123zM407 84l39 26c-21 80 -49 184 -74 265c53 84 65 155 66 216c0 52 -9 95 -30 114
c-11 9 -26 14 -41 17c-14 2 -33 2 -50 1c-1 -18 -6 -44 -16 -63c19 2 32 2 44 1c10 0 18 -2 23 -8c12 -10 16 -39 16 -70c0 -53 -12 -120 -63 -200c20 -75 42 -167 57 -236h-78v806h-56v-867h154zM556 392v404c15 10 31 26 55 43c43 31 92 42 161 42c50 0 138 -4 195 -12
c-6 17 -14 49 -15 68c-46 3 -132 6 -182 6c-74 0 -125 -14 -171 -48c-31 -25 -54 -51 -72 -51c-26 0 -65 52 -102 110l-39 -58c39 -50 79 -89 114 -104v-342h-73v-58h129z" />
</svg>
