<?xml version="1.0" standalone="no"?>
<!DOCTYPE svg PUBLIC "-//W3C//DTD SVG 1.1//EN" "http://www.w3.org/Graphics/SVG/1.1/DTD/svg11.dtd" >
<svg xmlns="http://www.w3.org/2000/svg" xmlns:xlink="http://www.w3.org/1999/xlink" version="1.1" viewBox="-10 0 1010 1000">
   <path fill="currentColor"
d="M948 120v60h-637v-60h275c-7 -21 -17 -44 -27 -64l69 -14c13 23 28 54 35 78h285zM846 373v-96h-109v96h109zM681 373v-96h-106v96h106zM519 373v-96h-103v96h103zM908 229v193h-553v-193h553zM661 605h-69v-159h69v159zM340 653l-21 -54c58 -14 137 -38 219 -62l8 51
c-72 24 -145 46 -206 65zM336 480l21 -43c58 13 139 34 182 48l-19 48c-44 -15 -124 -38 -184 -53zM727 522l-14 -42c50 -7 131 -30 177 -43l20 50c-55 17 -130 30 -183 35zM931 600l-22 49c-48 -19 -138 -47 -206 -63l23 -43c67 14 157 38 205 57zM300 166l-44 60
c-36 -34 -107 -82 -164 -115l43 -52c56 30 130 76 165 107zM248 424l-40 62c-37 -31 -110 -77 -168 -107l39 -54c57 26 132 69 169 99zM213 571l59 45c-40 103 -94 225 -140 316l-66 -45c42 -76 103 -205 147 -316zM869 653l49 42c-43 34 -100 69 -149 95
c53 40 116 71 188 87c-15 14 -34 40 -43 58c-138 -40 -246 -128 -308 -247c-32 20 -65 39 -102 56v126l153 -42c-2 17 -1 44 0 57c-182 57 -209 67 -224 78c-4 -17 -18 -44 -27 -59c14 -6 32 -20 32 -58v-74c-43 16 -91 32 -142 47c-8 -17 -26 -42 -40 -53
c157 -39 280 -94 349 -150l76 17c-9 7 -18 15 -27 22c18 35 41 68 71 96c49 -28 107 -68 144 -98z" />
</svg>
