<?xml version="1.0" standalone="no"?>
<!DOCTYPE svg PUBLIC "-//W3C//DTD SVG 1.1//EN" "http://www.w3.org/Graphics/SVG/1.1/DTD/svg11.dtd" >
<svg xmlns="http://www.w3.org/2000/svg" xmlns:xlink="http://www.w3.org/1999/xlink" version="1.1" viewBox="-10 0 1010 1000">
   <path fill="currentColor"
d="M820 171h-109c-22 43 -46 82 -68 113h114c21 -35 44 -77 63 -113zM858 422v-82h-173v82h173zM858 554v-82h-173v82h173zM858 688v-83h-173v83h173zM625 284h9c-13 -12 -30 -26 -45 -37c43 -52 90 -137 116 -210l56 19c-7 18 -14 36 -22 55h115l11 -4l42 15
c-22 52 -52 110 -79 162h92v460h-295v-460zM243 170l-43 47c-27 -35 -85 -86 -134 -120l43 -42c48 32 106 81 134 115zM223 426l-39 51c-31 -30 -94 -72 -146 -101l37 -45c51 26 116 66 148 95zM183 593l50 37c-37 102 -86 222 -127 310l-56 -37c38 -76 93 -201 133 -310z
M336 381v149h73v-149h-73zM533 530v-149h-74v149h74zM592 723l-39 64c-17 -24 -55 -69 -87 -104v274h-64v-280c-41 84 -94 166 -145 217c-7 -21 -24 -53 -36 -72c59 -51 126 -146 165 -232h-105v-269h121v-89h-138v-66h138v-122h63v122h133v66h-133v89h124v269h-123v23
c30 24 109 93 126 110zM674 770l62 30c-35 55 -93 121 -143 158c-13 -10 -37 -29 -53 -39c53 -36 108 -100 134 -149zM801 802l54 -31c39 46 84 110 103 150l-57 36c-19 -43 -62 -108 -100 -155z" />
</svg>
