<?xml version="1.0" standalone="no"?>
<!DOCTYPE svg PUBLIC "-//W3C//DTD SVG 1.1//EN" "http://www.w3.org/Graphics/SVG/1.1/DTD/svg11.dtd" >
<svg xmlns="http://www.w3.org/2000/svg" xmlns:xlink="http://www.w3.org/1999/xlink" version="1.1" viewBox="-10 0 1010 1000">
   <path fill="currentColor"
d="M808 179h-166c-25 44 -55 83 -88 114c-10 -11 -34 -34 -49 -44c58 -49 101 -124 125 -205l64 12c-7 23 -15 46 -24 68h277v55h-72c-20 63 -49 116 -88 160c50 35 94 72 123 101l-46 43c-27 -29 -71 -66 -119 -102c-49 43 -108 76 -175 101c-7 -12 -28 -37 -41 -49
c64 -21 121 -50 166 -89c-32 -23 -66 -46 -98 -65l43 -37c32 18 65 39 97 61c31 -35 55 -76 71 -124zM274 221h-81c-2 24 -5 49 -8 74h139c-18 -18 -47 -38 -72 -53zM332 295h79c3 -25 5 -50 6 -74h-131c26 14 53 35 68 51zM322 411h77c3 -25 6 -50 8 -77h-133
c28 15 56 35 71 52zM258 334h-77c-3 28 -7 53 -10 77h145c-19 -19 -50 -41 -78 -57zM51 291h79c4 -35 8 -70 11 -101c-16 17 -32 33 -49 47c-12 -10 -38 -27 -54 -35c56 -40 104 -99 132 -162l61 14c-6 13 -12 25 -19 38h305v47h-336c-9 14 -20 27 -30 40h325
c-3 35 -6 73 -9 112h71v47h-76c-2 26 -5 50 -7 73h56v44h-62l-2 19l-57 -1l3 -18h-286c6 -32 12 -74 18 -117h-74v-47zM381 736l37 16c-57 103 -190 162 -319 189c-5 -15 -20 -38 -31 -50c94 -15 195 -51 255 -105h-222v-48h269zM250 624v39h503v-39h-503zM250 550v36h503
v-36h-503zM818 704l53 35c-52 31 -116 59 -170 81c75 30 166 51 260 61c-13 14 -30 39 -39 55c-154 -21 -295 -74 -387 -156v102c0 35 -7 50 -34 59c-25 9 -65 9 -125 9c-3 -18 -13 -38 -22 -56c46 2 83 2 94 1c13 0 16 -4 16 -14v-179h-283v-191h253c7 -17 15 -33 19 -46
l82 7c-7 15 -15 27 -22 39h311v191h-289v9c27 32 65 60 111 84c59 -25 130 -63 172 -91z" />
</svg>
