<?xml version="1.0" standalone="no"?>
<!DOCTYPE svg PUBLIC "-//W3C//DTD SVG 1.1//EN" "http://www.w3.org/Graphics/SVG/1.1/DTD/svg11.dtd" >
<svg xmlns="http://www.w3.org/2000/svg" xmlns:xlink="http://www.w3.org/1999/xlink" version="1.1" viewBox="-10 0 1010 1000">
   <path fill="currentColor"
d="M750 145v78c0 74 -13 169 -79 232c-10 -10 -34 -29 -48 -35c61 -58 69 -135 69 -198v-138h194v243c0 24 0 31 9 31h22c8 0 22 -2 31 -5c1 16 3 40 5 54c-10 4 -23 4 -36 4h-27c-53 0 -63 -23 -63 -86v-180h-77zM412 242v-70h-154v-59h154v-69h64v69h145v59h-145v70h120
v57h-309v-57h125zM305 402v74h-54v-131h367v132h-57v-75h-256zM105 940l-56 -37c34 -75 82 -199 117 -306l49 37c-31 100 -73 219 -110 306zM203 438l-36 50c-28 -31 -84 -76 -129 -106l36 -44c45 28 101 71 129 100zM67 106l41 -39c42 32 94 82 118 115l-43 45
c-23 -35 -74 -87 -116 -121zM314 772l53 17c-25 46 -61 99 -96 134c-11 -9 -30 -21 -42 -28c33 -33 67 -83 85 -123zM577 733l-103 10v146c0 28 -4 42 -23 51c-19 10 -46 10 -85 10c-3 -16 -11 -36 -18 -51c29 1 51 1 59 0c8 0 10 -3 10 -10v-139c-108 12 -127 15 -142 21
c-3 -12 -11 -38 -17 -53c17 -2 39 -13 65 -30c15 -9 47 -34 85 -64c-87 7 -105 11 -116 16c-3 -12 -12 -39 -18 -52c13 -2 24 -7 36 -17c13 -9 52 -43 81 -80h-61v-48h210v48h-113l23 11c-24 29 -51 55 -78 77l94 -5c14 -15 30 -30 44 -45l47 28c-58 55 -118 104 -179 146
l176 -16c-11 -19 -23 -37 -33 -54l45 -19c32 46 65 105 77 145l-47 22c-4 -14 -11 -30 -19 -48zM509 785l37 -20c29 27 58 64 70 91l-39 22c-13 -26 -41 -64 -68 -93zM857 526h-132c16 63 37 124 66 179c28 -52 51 -112 66 -179zM890 463l39 14c-20 117 -55 212 -102 288
c38 57 84 104 139 132c-16 12 -35 35 -45 52c-52 -30 -96 -75 -133 -128c-46 58 -101 103 -163 136c-8 -15 -26 -37 -40 -49c64 -32 120 -80 167 -143c-36 -68 -63 -145 -83 -227l48 -12h-77v-60h238z" />
</svg>
