<?xml version="1.0" standalone="no"?>
<!DOCTYPE svg PUBLIC "-//W3C//DTD SVG 1.1//EN" "http://www.w3.org/Graphics/SVG/1.1/DTD/svg11.dtd" >
<svg xmlns="http://www.w3.org/2000/svg" xmlns:xlink="http://www.w3.org/1999/xlink" version="1.1" viewBox="-10 0 1010 1000">
   <path fill="currentColor"
d="M860 395v-89h-168v89h168zM860 541v-90h-168v90h168zM860 688v-91h-168v91h168zM630 246h91c6 -29 12 -64 16 -95h-139v-66h358v66h-142c-9 32 -18 66 -27 95h136v502h-293v-502zM190 588l61 38c-35 104 -84 227 -125 319l-68 -38c39 -77 94 -207 132 -319zM241 418
l-44 59c-31 -32 -99 -77 -156 -105l42 -53c56 26 125 66 158 99zM339 381v146h73v-146h-73zM541 527v-146h-76v146h76zM605 744l-38 63c-18 -23 -60 -69 -95 -106v256h-67v-286c-41 86 -95 170 -146 221c-8 -21 -24 -51 -35 -70c58 -52 125 -146 164 -233h-103v-270h119v-88
h-136v-60l-38 46c-31 -33 -97 -80 -151 -110l43 -52c55 27 120 71 154 106l-3 4h131v-118h68v118h139v66h-139v88h126v270h-126v45c37 28 115 92 133 110zM683 766l65 31c-38 56 -102 123 -156 160c-13 -12 -39 -30 -56 -41c57 -36 117 -100 147 -150zM791 793l57 -27
c44 48 93 116 116 160l-60 31c-21 -45 -70 -114 -113 -164z" />
</svg>
