<?xml version="1.0" standalone="no"?>
<!DOCTYPE svg PUBLIC "-//W3C//DTD SVG 1.1//EN" "http://www.w3.org/Graphics/SVG/1.1/DTD/svg11.dtd" >
<svg xmlns="http://www.w3.org/2000/svg" xmlns:xlink="http://www.w3.org/1999/xlink" version="1.1" viewBox="-10 0 1010 1000">
   <path fill="currentColor"
d="M107 938l-60 -35c36 -72 87 -190 123 -293l54 36c-34 94 -79 209 -117 292zM205 438l-42 49c-26 -32 -80 -79 -125 -110l41 -43c45 30 99 74 126 104zM68 97l45 -41c45 31 101 79 126 111l-46 48c-25 -34 -79 -84 -125 -118zM303 634v208h78v-208h-78zM378 154h-75v189
h75v-189zM449 569v-162h-146v162h146zM437 634v208h86v55h-276v-799h275v56h-88v189h71v291h-68zM934 190h-311c-26 48 -57 93 -88 127c-9 -13 -31 -38 -45 -50c55 -56 104 -141 134 -225l60 16c-9 25 -19 49 -30 73h280v59zM643 319v119h184v-119h-184zM887 492h-301v-226
h301v226zM672 612h-79v243h79v-243zM545 956v-402h177v402h-50v-43h-79v43h-48zM806 855h84v-242h-84v242zM757 554h183v402h-50v-43h-84v43h-49v-402z" />
</svg>
