<?xml version="1.0" standalone="no"?>
<!DOCTYPE svg PUBLIC "-//W3C//DTD SVG 1.1//EN" "http://www.w3.org/Graphics/SVG/1.1/DTD/svg11.dtd" >
<svg xmlns="http://www.w3.org/2000/svg" xmlns:xlink="http://www.w3.org/1999/xlink" version="1.1" viewBox="-10 0 1010 1000">
   <path fill="currentColor"
d="M270 166l-35 55c-31 -33 -94 -77 -144 -105l34 -49c49 26 113 68 145 99zM224 426l-33 58c-34 -30 -101 -71 -153 -94l30 -51c53 22 121 59 156 87zM199 582l50 46c-38 100 -87 217 -129 306l-58 -47c40 -73 96 -198 137 -305zM511 883l285 -23c-13 -13 -24 -26 -35 -37
l34 -20h-197c-27 29 -58 57 -87 80zM675 708v46h268v49h-134c38 39 86 90 109 123l-45 29c-10 -14 -23 -31 -39 -51c-354 30 -391 35 -414 44c-4 -13 -12 -40 -19 -55c15 -2 29 -9 45 -20c13 -9 45 -37 77 -70h-151v-49h245v-46h-200v-50h200v-51h50c-5 -24 -15 -55 -26 -79
l45 -10c13 26 26 62 32 85l-43 11v44h208v50h-208zM448 518l46 15c-9 39 -22 84 -45 112l-45 -21c20 -26 36 -70 44 -106zM535 534l47 -5c10 30 16 70 17 96l-51 8c0 -27 -5 -67 -13 -99zM819 567l-46 16c-5 -16 -18 -42 -32 -60l43 -14c14 18 29 41 35 58zM374 249v53h123
v-53h-123zM497 161h-123v45h123v-45zM660 206v-45h-106v45h106zM845 249h-128v53h128v-53zM554 302h106v-53h-106v53zM502 380h443v45h-448l-5 35h436s0 15 -1 24c-6 82 -12 119 -27 133c-11 11 -24 16 -44 17c-13 1 -41 1 -66 0c-1 -15 -7 -33 -14 -46c27 3 48 3 58 3
s16 0 20 -6c6 -8 11 -28 15 -76h-384v1h-55c7 -45 14 -110 19 -166h-75v99c0 153 -12 372 -92 517c-12 -11 -42 -29 -57 -35c77 -139 84 -337 84 -482v-339h277c-8 -20 -20 -41 -32 -58l56 -18c17 22 34 52 44 76h284v57h-221v45h182v138h-393z" />
</svg>
