<?xml version="1.0" standalone="no"?>
<!DOCTYPE svg PUBLIC "-//W3C//DTD SVG 1.1//EN" "http://www.w3.org/Graphics/SVG/1.1/DTD/svg11.dtd" >
<svg xmlns="http://www.w3.org/2000/svg" xmlns:xlink="http://www.w3.org/1999/xlink" version="1.1" viewBox="-10 0 1010 1000">
   <path fill="currentColor"
d="M472 233v-60h-163v-59h163v-71h68v71h164v-71h70v71h174v59h-174v60h-70v-60h-164v60h-68zM298 166l-43 56c-36 -33 -107 -83 -165 -116l41 -49c57 31 130 77 167 109zM253 420l-41 59c-37 -31 -112 -76 -171 -105l40 -53c58 26 134 70 172 99zM228 578l54 41
c-46 105 -108 230 -160 321l-61 -42c47 -76 117 -208 167 -320zM452 797v62h198v-62h-198zM650 639v-60h-198v60h198zM650 748v-60h-198v60h198zM402 301v91h131v-91h-131zM709 301v91h133v-91h-133zM951 859v56h-499v42h-69v-312c-18 21 -35 40 -53 55
c-12 -12 -37 -34 -53 -46c64 -51 125 -130 160 -210h-93v-195h249v195h-144l54 15c-10 21 -22 43 -34 64h172c-13 -20 -28 -40 -44 -57l55 -22h-3v-195h255v195h-249c24 23 48 55 62 79h221v56h-220v60h182v49h-182v60h182v49h-182v62h233z" />
</svg>
