<?xml version="1.0" standalone="no"?>
<!DOCTYPE svg PUBLIC "-//W3C//DTD SVG 1.1//EN" "http://www.w3.org/Graphics/SVG/1.1/DTD/svg11.dtd" >
<svg xmlns="http://www.w3.org/2000/svg" xmlns:xlink="http://www.w3.org/1999/xlink" version="1.1" viewBox="-10 0 1010 1000">
   <path fill="currentColor"
d="M176 589l58 36c-34 104 -79 229 -117 320l-65 -35c38 -79 88 -209 124 -321zM240 421l-42 57c-33 -31 -102 -75 -159 -102l41 -51c57 25 126 65 160 96zM706 700v147h91v-147h-91zM797 437v-138h-91v138h91zM797 637v-138h-91v138h91zM536 482v-94h-83v94h83zM317 388v94
h81v-94h-81zM372 181v64h113v-64h-113zM965 847v64h-259v46h-65v-578c-11 20 -23 37 -34 54c-4 -6 -9 -14 -15 -22v123h-135v51h131v56h-131c0 19 -2 37 -5 57h151v58h-157c40 30 123 99 147 118l-47 53c-26 -28 -83 -83 -126 -120c-27 56 -72 109 -143 151
c-8 -15 -31 -41 -43 -51c76 -44 117 -97 138 -151h-128v-58h144c3 -20 4 -38 5 -57h-129v-56h129v-51h-130v-197h130v-42h-78v-114h-75v-2l-39 45c-29 -33 -88 -79 -139 -109l45 -47c46 25 100 63 133 94v-39h75v-78h57v78h113v-78h59v78h73v58h-73v114h-87v42h135v3
c51 -87 87 -204 105 -297l67 17l-3 11l55 -20c30 49 60 113 72 156l-60 23c-10 -43 -41 -109 -67 -158c-14 52 -32 108 -52 162h241v65h-92v138h81v62h-81v138h83v63h-83v147h107z" />
</svg>
