<?xml version="1.0" standalone="no"?>
<!DOCTYPE svg PUBLIC "-//W3C//DTD SVG 1.1//EN" "http://www.w3.org/Graphics/SVG/1.1/DTD/svg11.dtd" >
<svg xmlns="http://www.w3.org/2000/svg" xmlns:xlink="http://www.w3.org/1999/xlink" version="1.1" viewBox="-10 0 1010 1000">
   <path fill="currentColor"
d="M759 484v-55h-99v55h99zM803 390v133h-186v-133h186zM105 940l-56 -37c37 -74 89 -199 127 -306l49 37c-35 100 -81 219 -120 306zM210 436l-37 52c-28 -32 -87 -77 -135 -106l36 -46c47 28 107 71 136 100zM66 106l42 -41c47 34 102 83 129 117l-44 47
c-26 -37 -81 -88 -127 -123zM509 128h-165v62h165v-62zM344 305h165v-66h-165v66zM568 357h-224v593h-66v-875h290v282zM432 429v55h102v-55h-102zM391 523v-133h185v133h-185zM468 675v46h103v-46h-103zM468 593v43h103v-43h-103zM726 636v-43h-99v43h99zM726 721v-46h-99
v46h99zM810 852h-181v79h-60v-79h-186v-51h186v-40h-156v-209h370v209h-154v40h181v51zM681 303h176v-64h-176v64zM857 128h-176v62h176v-62zM922 75v792c0 41 -7 58 -30 70c-21 12 -60 13 -112 13c-3 -19 -11 -48 -19 -66c36 2 70 2 81 1c12 -1 15 -5 15 -17v-513h-235
v-280h300z" />
</svg>
