<?xml version="1.0" standalone="no"?>
<!DOCTYPE svg PUBLIC "-//W3C//DTD SVG 1.1//EN" "http://www.w3.org/Graphics/SVG/1.1/DTD/svg11.dtd" >
<svg xmlns="http://www.w3.org/2000/svg" xmlns:xlink="http://www.w3.org/1999/xlink" version="1.1" viewBox="-10 0 1010 1000">
   <path fill="currentColor"
d="M859 398v-92h-171v92h171zM859 546v-92h-171v92h171zM859 695v-93h-171v93h171zM628 248h88c10 -30 21 -66 29 -97h-141v-64h348v64h-140c-12 33 -25 68 -37 97h147v506h-294v-506zM239 474v-59h148c-7 -17 -15 -34 -23 -47l53 -18c10 18 23 42 33 65h151v59h-362z
M517 188v-59h-200v59h200zM517 297v-61h-200v61h200zM580 78v270h-324v-270h324zM242 159l-42 49c-24 -33 -78 -79 -122 -110l41 -44c44 29 99 74 123 105zM202 436l-40 51c-27 -32 -82 -79 -127 -110l37 -45c46 29 103 73 130 104zM176 604l51 38c-33 97 -77 212 -114 297
l-59 -36c35 -72 86 -194 122 -299zM291 733l53 17c-22 60 -60 125 -96 167c-9 -11 -30 -30 -43 -39c35 -39 67 -92 86 -145zM331 576v84h175v-84h-175zM568 713h-120v170c0 34 -4 48 -25 58c-20 10 -50 10 -95 10c-3 -19 -11 -41 -19 -58c34 1 61 1 70 1c9 -1 11 -3 11 -12
v-169h-118v-190h296v190zM486 754l46 -24c22 35 49 85 60 115l-48 29c-10 -32 -35 -83 -58 -120zM698 772l45 38c-38 51 -92 109 -133 146c-8 -14 -23 -35 -34 -48c42 -36 95 -92 122 -136zM796 812l36 -37c43 40 97 96 124 136l-38 42c-26 -39 -79 -99 -122 -141z" />
</svg>
