<?xml version="1.0" standalone="no"?>
<!DOCTYPE svg PUBLIC "-//W3C//DTD SVG 1.1//EN" "http://www.w3.org/Graphics/SVG/1.1/DTD/svg11.dtd" >
<svg xmlns="http://www.w3.org/2000/svg" xmlns:xlink="http://www.w3.org/1999/xlink" version="1.1" viewBox="-10 0 1010 1000">
   <path fill="currentColor"
d="M249 165l-45 54c-31 -30 -95 -78 -142 -112l44 -49c47 33 111 80 143 107zM231 423l-44 57c-33 -30 -99 -77 -148 -109l43 -49c48 29 115 73 149 101zM115 942l-63 -36c37 -79 88 -211 125 -324l57 36c-34 106 -80 231 -119 324zM330 682v53h84v-53h-84zM546 735v-53h-80
v53h80zM383 523v42h116v-42h-116zM616 872h-145v84h-62v-84h-161v-50h161v-44h-134v-139h134v-33h-85v-79h-73v-54h73v-41h59v45h116v-45h61v41h64v54h-64v79h-88v33h131v139h-132v44h145v50zM318 397v-43h206v43h-206zM523 271v41h-171v-41h171zM714 719h143v-80h-142v23
c0 18 0 37 -1 57zM857 509h-142v77h142v-77zM923 454v428c0 34 -7 51 -30 61s-61 11 -118 10c-2 -17 -9 -41 -17 -58c39 1 74 1 85 1c11 -1 14 -4 14 -14v-110h-147c-7 68 -22 138 -54 191c-11 -10 -38 -27 -52 -33c45 -79 51 -185 51 -269v-207h268zM663 397v-43h204v43
h-204zM663 271h177v41h-177v-41zM629 182h315v141h-70v-93h-249v188h-62v-188h-236v93h-68v-141h300v-47h-241v-53h572v53h-261v47z" />
</svg>
