<?xml version="1.0" standalone="no"?>
<!DOCTYPE svg PUBLIC "-//W3C//DTD SVG 1.1//EN" "http://www.w3.org/Graphics/SVG/1.1/DTD/svg11.dtd" >
<svg xmlns="http://www.w3.org/2000/svg" xmlns:xlink="http://www.w3.org/1999/xlink" version="1.1" viewBox="-10 0 1010 1000">
   <path fill="currentColor"
d="M723 395c-3 -9 -11 -29 -17 -40c15 -2 30 -15 47 -35c11 -10 37 -42 64 -80c-68 7 -84 11 -95 15c-3 -8 -11 -29 -17 -39c12 -2 20 -12 31 -27c10 -16 47 -78 61 -136l47 19c-17 45 -42 91 -68 128l69 -4c9 -14 18 -28 25 -43l46 21c-35 56 -78 114 -122 162l86 -10
c-6 -12 -12 -24 -18 -34l36 -13c22 33 44 77 52 105l-38 17c-3 -11 -8 -23 -14 -37c-136 19 -160 24 -175 31zM869 421l36 -14c21 41 38 96 43 128l-38 18c-5 -35 -23 -90 -41 -132zM858 557l-40 13c-1 -35 -11 -92 -25 -136l40 -10c14 44 24 99 25 133zM730 423l43 11
c-8 52 -21 109 -39 147c-8 -7 -27 -19 -37 -26c17 -37 27 -85 33 -132zM709 147v47h-240v-47h106c-7 -24 -25 -57 -39 -81l51 -13c16 24 34 60 43 81l-44 13h123zM499 358v-42h184v42h-184zM683 234v43h-184v-43h184zM545 443v67h88v-67h-88zM496 552v-151h188v151h-188z
M484 380l-39 18c-3 -10 -7 -21 -11 -33c-137 19 -160 25 -174 32c-2 -9 -11 -30 -17 -40c15 -2 29 -16 46 -35c11 -10 38 -42 65 -81c-68 7 -85 11 -95 15c-3 -9 -11 -30 -17 -40c11 -1 21 -12 31 -28c10 -15 48 -80 63 -139l47 19c-18 47 -44 95 -70 133l70 -4
c9 -14 17 -28 24 -42l45 20c-34 57 -78 115 -121 162l85 -11c-6 -10 -12 -22 -18 -32l38 -15c20 33 40 75 48 101zM406 423l37 -13c16 35 31 83 36 111l-38 19c-4 -31 -19 -80 -35 -117zM395 549l-41 15c-1 -33 -10 -86 -22 -127l39 -11c13 41 23 92 24 123zM268 428l43 11
c-10 51 -25 107 -44 144c-8 -7 -27 -21 -37 -27c19 -36 30 -82 38 -128zM245 164l-46 54c-27 -34 -88 -81 -138 -112l43 -49c51 28 112 73 141 107zM227 419l-44 56c-30 -31 -93 -76 -145 -105l43 -50c52 26 114 68 146 99zM170 590l57 35c-31 103 -74 226 -110 316l-65 -34
c34 -78 82 -206 118 -317zM943 694h-266c68 76 179 145 284 177c-16 14 -35 40 -46 56c-108 -39 -220 -119 -294 -209v239h-68v-232c-74 92 -183 168 -293 209c-10 -17 -29 -41 -45 -54c109 -34 218 -104 288 -186h-246v-59h296v-65h68v65h322v59z" />
</svg>
