<?xml version="1.0" standalone="no"?>
<!DOCTYPE svg PUBLIC "-//W3C//DTD SVG 1.1//EN" "http://www.w3.org/Graphics/SVG/1.1/DTD/svg11.dtd" >
<svg xmlns="http://www.w3.org/2000/svg" xmlns:xlink="http://www.w3.org/1999/xlink" version="1.1" viewBox="-10 0 1010 1000">
   <path fill="currentColor"
d="M714 782l-49 49c-44 -57 -132 -143 -211 -214c-40 103 -117 206 -270 291c-10 -16 -33 -40 -49 -51c266 -144 288 -346 288 -491v-95h69v96c0 57 -3 120 -19 185c86 73 190 168 241 230zM248 359l53 11c-12 73 -40 168 -77 226l-52 -29c34 -51 62 -137 76 -208zM686 354
l61 26c-33 68 -77 152 -112 205l-49 -22c33 -55 78 -146 100 -209zM911 159v41c-15 490 -29 653 -68 702c-22 29 -44 39 -80 42c-35 4 -97 2 -154 -1c-1 -20 -9 -47 -21 -65c65 5 122 6 146 6c20 0 31 -3 42 -18c33 -36 49 -200 61 -639h-580c-48 74 -103 142 -155 194
c-15 -13 -46 -36 -64 -46c93 -79 180 -204 234 -330l73 23c-14 30 -30 62 -46 91h612z" />
</svg>
