<?xml version="1.0" standalone="no"?>
<!DOCTYPE svg PUBLIC "-//W3C//DTD SVG 1.1//EN" "http://www.w3.org/Graphics/SVG/1.1/DTD/svg11.dtd" >
<svg xmlns="http://www.w3.org/2000/svg" xmlns:xlink="http://www.w3.org/1999/xlink" version="1.1" viewBox="-10 0 1010 1000">
   <path fill="currentColor"
d="M949 463l-45 62c-82 -49 -238 -120 -372 -171c-118 86 -270 138 -420 166c-6 -18 -23 -49 -36 -64c206 -33 417 -118 520 -262h-245c-57 52 -125 101 -206 142c-11 -18 -34 -42 -51 -54c141 -64 240 -158 292 -238l79 14c-15 25 -34 48 -54 72h232l13 -4l49 29
c-28 58 -67 108 -114 151c128 47 275 110 358 157zM701 745l-56 -28c41 -48 95 -127 125 -184l70 29c-42 64 -96 136 -139 183zM184 752l-62 -39c58 -44 106 -117 135 -177l61 28c-31 64 -75 139 -134 188zM468 445h78c-4 42 -9 81 -16 118c56 187 187 292 427 322
c-16 16 -34 45 -43 66c-213 -36 -339 -124 -413 -282c-51 139 -161 237 -419 288c-7 -18 -24 -49 -38 -64c357 -65 404 -218 424 -448z" />
</svg>
