<?xml version="1.0" standalone="no"?>
<!DOCTYPE svg PUBLIC "-//W3C//DTD SVG 1.1//EN" "http://www.w3.org/Graphics/SVG/1.1/DTD/svg11.dtd" >
<svg xmlns="http://www.w3.org/2000/svg" xmlns:xlink="http://www.w3.org/1999/xlink" version="1.1" viewBox="-10 0 1010 1000">
   <path fill="currentColor"
d="M937 337v70h-875v-70h399v-114h-304v-68h304v-110h75v110h318v68h-318v114h401zM734 693l-58 -28c38 -45 89 -120 116 -173l67 31c-37 59 -86 126 -125 170zM189 704l-57 -38c55 -44 99 -119 123 -181l60 26c-27 66 -70 144 -126 193zM473 429l78 6c-4 32 -9 62 -15 90
c64 189 204 314 424 360c-15 15 -36 44 -47 65c-196 -49 -327 -158 -406 -323c-67 183 -199 273 -424 327c-7 -17 -28 -50 -42 -67c281 -53 403 -173 432 -458z" />
</svg>
