<?xml version="1.0" standalone="no"?>
<!DOCTYPE svg PUBLIC "-//W3C//DTD SVG 1.1//EN" "http://www.w3.org/Graphics/SVG/1.1/DTD/svg11.dtd" >
<svg xmlns="http://www.w3.org/2000/svg" xmlns:xlink="http://www.w3.org/1999/xlink" version="1.1" viewBox="-10 0 1010 1000">
   <path fill="currentColor"
d="M362 218l66 25c-28 69 -58 151 -84 203l-48 -22c24 -54 52 -143 66 -206zM93 246l56 8c-3 80 -17 188 -43 257l-57 -22c24 -62 40 -164 44 -243zM403 764l-49 53c-22 -33 -72 -98 -112 -146c-23 104 -68 203 -153 287c-12 -15 -35 -41 -52 -52
c145 -146 162 -336 162 -519v-338h69v338c0 69 -2 140 -12 209c36 37 126 141 147 168zM593 73l63 -28c38 44 77 100 95 139l-66 32c-18 -39 -56 -99 -92 -143zM534 472h319v-189h-319v189zM925 216v389h-72v-66h-319c-3 137 -26 308 -132 422c-12 -15 -42 -41 -59 -50
c106 -113 118 -276 118 -405v-291h73v1h391z" />
</svg>
