<?xml version="1.0" standalone="no"?>
<!DOCTYPE svg PUBLIC "-//W3C//DTD SVG 1.1//EN" "http://www.w3.org/Graphics/SVG/1.1/DTD/svg11.dtd" >
<svg xmlns="http://www.w3.org/2000/svg" xmlns:xlink="http://www.w3.org/1999/xlink" version="1.1" viewBox="-10 0 1010 1000">
   <path fill="currentColor"
d="M347 218l60 23c-27 68 -57 151 -82 205l-44 -21c22 -55 51 -146 66 -207zM92 246l55 8c-3 80 -18 189 -43 258l-56 -22c24 -62 40 -164 44 -244zM384 763l-48 54c-20 -30 -64 -88 -101 -131c-22 97 -65 190 -142 270c-11 -15 -33 -38 -49 -49c138 -147 153 -336 153 -519
v-339h66v339c0 74 -2 150 -13 223c34 34 115 128 134 152zM834 422h-221c24 100 61 191 110 269c50 -75 89 -164 111 -269zM871 352l43 15c-28 158 -80 283 -150 381c52 65 116 116 191 149c-16 14 -37 39 -48 58c-74 -36 -135 -88 -186 -153c-61 69 -133 121 -210 157
c-9 -18 -27 -43 -41 -56c78 -32 150 -85 211 -157c-59 -91 -101 -201 -131 -324h-37v36c0 152 -16 364 -119 503c-13 -13 -42 -33 -60 -40c99 -132 109 -321 109 -463v-314c158 -11 353 -35 453 -77l46 53c-105 44 -278 67 -429 78v157h345z" />
</svg>
