<?xml version="1.0" standalone="no"?>
<!DOCTYPE svg PUBLIC "-//W3C//DTD SVG 1.1//EN" "http://www.w3.org/Graphics/SVG/1.1/DTD/svg11.dtd" >
<svg xmlns="http://www.w3.org/2000/svg" xmlns:xlink="http://www.w3.org/1999/xlink" version="1.1" viewBox="-10 0 1010 1000">
   <path fill="currentColor"
d="M865 232l74 24c-34 92 -79 205 -116 277l-58 -23c34 -73 78 -194 100 -278zM486 243l64 12c-10 109 -28 228 -81 298l-59 -35c49 -64 68 -173 76 -275zM299 181h-149v225h149v-225zM150 699h149v-226h-149v226zM368 766h-218v79h-69v-731h287v652zM636 50h72
c0 136 0 257 -8 364c32 227 104 405 267 481c-18 15 -40 43 -53 62c-126 -68 -198 -187 -242 -347c-37 154 -112 267 -268 343c-10 -16 -31 -40 -49 -52c290 -137 279 -405 281 -851z" />
</svg>
