<?xml version="1.0" standalone="no"?>
<!DOCTYPE svg PUBLIC "-//W3C//DTD SVG 1.1//EN" "http://www.w3.org/Graphics/SVG/1.1/DTD/svg11.dtd" >
<svg xmlns="http://www.w3.org/2000/svg" xmlns:xlink="http://www.w3.org/1999/xlink" version="1.1" viewBox="-10 0 1010 1000">
   <path fill="currentColor"
d="M897 186l-45 47c-31 -35 -95 -95 -143 -137l44 -40c48 39 112 96 144 130zM346 202l61 24c-28 67 -61 151 -88 203l-46 -21c25 -55 58 -145 73 -206zM88 246l54 8c-3 81 -18 188 -43 258l-56 -23c24 -62 40 -163 45 -243zM395 787l-51 54c-20 -35 -69 -103 -108 -153
c-23 97 -66 189 -142 270c-11 -16 -34 -41 -50 -51c138 -147 153 -336 153 -520v-338h67v338c0 75 -2 150 -13 224c36 38 124 149 144 176zM810 498h-203c26 80 60 152 105 214c42 -60 75 -131 98 -214zM846 431l40 19c-27 127 -73 231 -132 314c56 60 123 106 203 134
c-15 15 -33 41 -42 61c-80 -33 -146 -81 -202 -143c-56 63 -122 111 -192 146c-8 -18 -28 -48 -40 -60c71 -32 136 -78 190 -138c-39 -54 -70 -116 -96 -184c-27 146 -74 280 -158 375c-11 -16 -36 -37 -54 -47c123 -135 160 -362 171 -588h-123v-67h126
c3 -72 3 -141 3 -208h71c0 67 -1 137 -4 208h340v67h-343c-2 38 -5 76 -9 114h239z" />
</svg>
