<?xml version="1.0" standalone="no"?>
<!DOCTYPE svg PUBLIC "-//W3C//DTD SVG 1.1//EN" "http://www.w3.org/Graphics/SVG/1.1/DTD/svg11.dtd" >
<svg xmlns="http://www.w3.org/2000/svg" xmlns:xlink="http://www.w3.org/1999/xlink" version="1.1" viewBox="-10 0 1010 1000">
   <path fill="currentColor"
d="M952 244h-450c-31 68 -67 128 -106 174c-11 -12 -40 -37 -55 -49c72 -77 128 -200 160 -326l68 15c-11 41 -23 80 -38 118h421v68zM298 224l56 19c-23 67 -49 151 -70 203l-41 -16c19 -54 44 -145 55 -206zM89 246l49 7c-4 82 -20 191 -49 259l-49 -25
c28 -60 44 -161 49 -241zM238 54v348c0 74 -2 149 -12 220c27 36 105 157 124 187l-47 48c-18 -36 -59 -104 -92 -156c-20 91 -58 178 -125 255c-10 -15 -32 -37 -46 -47c122 -145 135 -327 135 -507v-348h63zM602 886h228c52 0 61 -21 67 -123c16 11 43 22 62 27
c-11 126 -32 162 -126 162h-234c-106 0 -136 -25 -136 -121v-247l-93 37l-20 -63l113 -45v-168h64v143l121 -49v-161h63v136l132 -52l12 -10l43 17l-2 12c-1 139 -2 266 -6 294c-3 33 -19 51 -43 57c-22 7 -52 7 -74 6c-2 -19 -7 -45 -15 -61c18 2 44 1 53 1
c11 0 18 -3 20 -19c3 -15 4 -104 4 -225l-124 50v302h-63v-277l-121 49v274c0 43 12 54 75 54z" />
</svg>
