<?xml version="1.0" standalone="no"?>
<!DOCTYPE svg PUBLIC "-//W3C//DTD SVG 1.1//EN" "http://www.w3.org/Graphics/SVG/1.1/DTD/svg11.dtd" >
<svg xmlns="http://www.w3.org/2000/svg" xmlns:xlink="http://www.w3.org/1999/xlink" version="1.1" viewBox="-10 0 1010 1000">
   <path fill="currentColor"
d="M88 247l52 7c-3 80 -18 187 -43 255l-54 -21c24 -60 40 -163 45 -241zM250 49v341c0 74 -2 149 -12 222c36 36 126 139 148 166l-48 54c-21 -35 -73 -98 -114 -146c-20 98 -61 190 -131 272c-11 -17 -34 -40 -50 -51c126 -147 140 -335 140 -517v-341h67zM313 444
l-43 -19c20 -55 46 -145 57 -207l59 24c-23 67 -51 150 -73 202zM953 914l-64 27c-7 -21 -17 -46 -29 -72c-359 33 -400 38 -427 50c-4 -14 -16 -49 -25 -68c25 -6 57 -37 102 -85c28 -28 93 -103 162 -196c-179 14 -207 19 -227 26c-3 -14 -14 -48 -23 -66
c18 -4 37 -24 59 -53c21 -25 82 -112 128 -204h-205v-69h261c-16 -38 -48 -95 -77 -136l60 -29c32 43 67 101 83 139l-51 26h269v69h-260c-47 86 -103 173 -160 242l191 -12c35 -48 68 -99 97 -150l67 34c-108 167 -233 325 -355 447l301 -25c-25 -49 -55 -100 -85 -144
l59 -23c60 86 124 199 149 272z" />
</svg>
