<?xml version="1.0" standalone="no"?>
<!DOCTYPE svg PUBLIC "-//W3C//DTD SVG 1.1//EN" "http://www.w3.org/Graphics/SVG/1.1/DTD/svg11.dtd" >
<svg xmlns="http://www.w3.org/2000/svg" xmlns:xlink="http://www.w3.org/1999/xlink" version="1.1" viewBox="-10 0 1010 1000">
   <path fill="currentColor"
d="M91 245l51 7c-4 79 -19 187 -45 254l-51 -20c24 -61 40 -162 45 -241zM255 51v336c0 75 -2 150 -13 224c32 37 111 144 130 171l-50 50c-19 -34 -60 -96 -95 -144c-22 93 -61 182 -132 260c-11 -16 -33 -38 -49 -49c129 -145 144 -331 144 -511v-337h65zM323 442l-44 -20
c18 -55 41 -145 51 -207l58 24c-20 68 -45 152 -65 203zM945 169h-243v133h230v569c0 42 -9 63 -37 75c-29 12 -77 13 -148 13c-3 -20 -12 -51 -22 -71c53 2 102 2 116 1c15 0 19 -4 19 -19v-501h-161v25c0 13 -1 31 -4 52c57 87 124 194 156 258l-55 35
c-26 -53 -72 -134 -119 -209c-20 72 -60 155 -134 222c-11 -14 -37 -34 -52 -44c125 -103 141 -249 141 -315v-24h-152v591h-70v-658h221v-133h-243v-69h557v69z" />
</svg>
