<?xml version="1.0" standalone="no"?>
<!DOCTYPE svg PUBLIC "-//W3C//DTD SVG 1.1//EN" "http://www.w3.org/Graphics/SVG/1.1/DTD/svg11.dtd" >
<svg xmlns="http://www.w3.org/2000/svg" xmlns:xlink="http://www.w3.org/1999/xlink" version="1.1" viewBox="-10 0 1010 1000">
   <path fill="currentColor"
d="M96 248l55 8c-2 92 -17 196 -58 258l-53 -26c37 -54 53 -152 56 -240zM401 792l-54 53c-21 -39 -68 -111 -106 -166c-24 101 -69 195 -152 277c-10 -16 -34 -41 -50 -53c144 -143 160 -332 160 -514v-334h69v335v23c27 -56 60 -139 76 -197l65 26
c-32 68 -70 152 -101 206l-40 -20c-1 56 -4 113 -12 168c33 39 123 165 145 196zM508 533h117c3 -32 4 -64 4 -97v-167h-121v264zM829 269h-130v167c0 33 -1 65 -3 97h133v-264zM957 601h-241c44 140 128 247 253 297c-16 14 -38 42 -48 60c-118 -55 -199 -153 -250 -285
c-34 113 -109 211 -268 284c-10 -16 -32 -42 -48 -56c170 -76 236 -181 261 -300h-238v-68h63v-330h188v-146h70v146h199v330h59v68z" />
</svg>
