<?xml version="1.0" standalone="no"?>
<!DOCTYPE svg PUBLIC "-//W3C//DTD SVG 1.1//EN" "http://www.w3.org/Graphics/SVG/1.1/DTD/svg11.dtd" >
<svg xmlns="http://www.w3.org/2000/svg" xmlns:xlink="http://www.w3.org/1999/xlink" version="1.1" viewBox="-10 0 1010 1000">
   <path fill="currentColor"
d="M325 215l58 25c-20 67 -45 150 -65 203l-44 -21c18 -55 41 -145 51 -207zM91 245l51 7c-4 79 -19 187 -45 254l-51 -20c24 -61 40 -162 45 -241zM250 51v336c0 75 -2 151 -13 224c31 35 108 134 127 160l-49 49c-19 -31 -59 -89 -93 -134c-21 94 -61 183 -132 262
c-11 -16 -33 -38 -49 -49c129 -145 144 -331 144 -511v-337h65zM494 591l68 15c-28 108 -77 212 -136 280c-10 -14 -35 -40 -50 -52c54 -59 96 -149 118 -243zM939 482h-221v388c0 42 -9 61 -35 74c-25 12 -67 13 -130 13c-2 -20 -12 -50 -22 -71c44 2 85 1 97 1
c13 -1 17 -4 17 -17v-388h-131c-48 0 -82 4 -90 13c-4 -15 -16 -48 -24 -66c13 -4 21 -27 27 -60c6 -30 27 -151 24 -258c140 -5 320 -22 415 -61l34 63c-93 36 -248 54 -379 59c-4 82 -17 169 -32 240h156v-179h73v179h221v70zM777 609l61 -23c49 85 95 197 114 272l-66 25
c-17 -74 -63 -188 -109 -274z" />
</svg>
