<?xml version="1.0" standalone="no"?>
<!DOCTYPE svg PUBLIC "-//W3C//DTD SVG 1.1//EN" "http://www.w3.org/Graphics/SVG/1.1/DTD/svg11.dtd" >
<svg xmlns="http://www.w3.org/2000/svg" xmlns:xlink="http://www.w3.org/1999/xlink" version="1.1" viewBox="-10 0 1010 1000">
   <path fill="currentColor"
d="M963 451l-42 61c-57 -38 -165 -94 -258 -135c-81 57 -171 103 -260 136c-9 -18 -29 -46 -45 -61c157 -53 326 -158 417 -287h-351v-69h399l13 -3l53 29c-39 80 -99 150 -168 209c88 38 187 85 242 120zM350 218l62 26c-30 67 -67 147 -96 199l-45 -23
c26 -54 62 -141 79 -202zM84 246l54 8c-2 80 -16 188 -41 258l-54 -23c22 -61 37 -163 41 -243zM397 777l-49 55c-21 -36 -69 -102 -108 -151c-23 101 -67 196 -147 279c-11 -16 -35 -42 -52 -54c139 -146 154 -335 154 -519v-338h71v339c0 73 -2 145 -12 216
c36 39 122 147 143 173zM703 617v242h255v70h-586v-70h258v-242h-197v-69h478v69h-208z" />
</svg>
