<?xml version="1.0" standalone="no"?>
<!DOCTYPE svg PUBLIC "-//W3C//DTD SVG 1.1//EN" "http://www.w3.org/Graphics/SVG/1.1/DTD/svg11.dtd" >
<svg xmlns="http://www.w3.org/2000/svg" xmlns:xlink="http://www.w3.org/1999/xlink" version="1.1" viewBox="-10 0 1010 1000">
   <path fill="currentColor"
d="M953 185v69h-558v-69h265c-13 -32 -41 -82 -64 -119l61 -29c26 38 55 86 69 118l-57 30h284zM738 315l56 -37c55 62 129 147 166 196l-60 44c-34 -52 -106 -140 -162 -203zM86 246l50 8c-3 80 -17 188 -41 258l-52 -23c23 -62 39 -163 43 -243zM237 49v341
c0 75 -2 149 -11 222c32 40 108 144 127 170l-47 54c-19 -35 -59 -97 -93 -145c-19 95 -56 186 -118 266c-10 -16 -32 -40 -46 -50c113 -148 126 -335 126 -517v-341h62zM286 446l-42 -21c24 -55 56 -146 70 -207l57 24c-26 68 -59 151 -85 204zM524 279l70 23
c-44 80 -109 171 -162 229c-13 -11 -42 -34 -60 -45c55 -54 114 -134 152 -207zM757 461l70 16c-27 95 -65 177 -116 248c70 76 156 135 257 168c-17 15 -37 43 -48 63c-100 -38 -184 -97 -255 -174c-63 72 -143 130 -239 176c-10 -16 -32 -43 -47 -55
c98 -44 178 -104 241 -177c-52 -70 -94 -152 -124 -242l64 -18c25 74 60 143 104 204c42 -62 74 -132 93 -209z" />
</svg>
