<?xml version="1.0" standalone="no"?>
<!DOCTYPE svg PUBLIC "-//W3C//DTD SVG 1.1//EN" "http://www.w3.org/Graphics/SVG/1.1/DTD/svg11.dtd" >
<svg xmlns="http://www.w3.org/2000/svg" xmlns:xlink="http://www.w3.org/1999/xlink" version="1.1" viewBox="-10 0 1010 1000">
   <path fill="currentColor"
d="M89 249l50 8c-1 97 -15 203 -58 264l-45 -30c38 -53 52 -149 53 -242zM267 438l-38 -17c-1 65 -3 131 -12 194c30 37 104 144 123 170l-49 50c-17 -33 -55 -93 -87 -141c-20 94 -57 183 -122 262c-10 -15 -34 -37 -48 -48c118 -147 132 -333 132 -513v-340h63v340v15
c23 -56 48 -144 61 -204l56 23c-26 69 -54 156 -79 209zM475 43l65 14c-18 71 -40 141 -65 206v692h-65v-550c-24 44 -50 85 -78 120c-9 -15 -30 -48 -43 -63c84 -100 149 -257 186 -419zM947 338h-170c39 163 109 335 187 419c-16 12 -37 34 -49 50
c-61 -77 -117 -211 -156 -351v500h-65v-508c-41 147 -101 286 -168 365c-12 -15 -33 -38 -48 -50c82 -84 155 -257 195 -425h-160v-65h181v-227h65v227h188v65z" />
</svg>
