<?xml version="1.0" standalone="no"?>
<!DOCTYPE svg PUBLIC "-//W3C//DTD SVG 1.1//EN" "http://www.w3.org/Graphics/SVG/1.1/DTD/svg11.dtd" >
<svg xmlns="http://www.w3.org/2000/svg" xmlns:xlink="http://www.w3.org/1999/xlink" version="1.1" viewBox="-10 0 1010 1000">
   <path fill="currentColor"
d="M645 405v-152h-182v-67h182v-142h74v142h195v67h-195v152h230v66h-530v-66h226zM379 215l66 29c-34 67 -75 151 -109 203l-49 -25c32 -54 72 -144 92 -207zM105 244l55 9c-4 93 -25 196 -70 258l-53 -27c43 -53 63 -150 68 -240zM441 764l-51 54
c-26 -37 -87 -108 -134 -160c-25 105 -74 203 -168 287c-10 -15 -36 -41 -52 -52c159 -141 177 -328 177 -508v-328h68v328c0 67 -2 135 -11 201c43 40 145 150 171 178zM719 854h244v68h-594v-68h276v-169h-203v-67h203v-126h74v126h207v67h-207v169z" />
</svg>
