<?xml version="1.0" standalone="no"?>
<!DOCTYPE svg PUBLIC "-//W3C//DTD SVG 1.1//EN" "http://www.w3.org/Graphics/SVG/1.1/DTD/svg11.dtd" >
<svg xmlns="http://www.w3.org/2000/svg" xmlns:xlink="http://www.w3.org/1999/xlink" version="1.1" viewBox="-10 0 1010 1000">
   <path fill="currentColor"
d="M328 214l62 27c-23 67 -46 150 -68 202l-46 -21c19 -55 41 -146 52 -208zM91 245l53 7c-4 79 -18 186 -44 255l-54 -22c24 -60 40 -161 45 -240zM376 780l-52 53c-19 -33 -61 -94 -97 -142c-22 95 -63 185 -133 263c-12 -16 -36 -40 -53 -52c129 -145 144 -332 144 -514
v-337h70v337c0 75 -2 150 -13 224c34 38 114 141 134 168zM485 305v237h137v-237h-137zM821 542v-237h-131v237h131zM966 924l-67 30c-7 -24 -18 -52 -30 -82c-180 19 -369 41 -494 54l-14 -73c67 -6 158 -16 259 -26v-220h-203v-368h201v-193h75v193h199v368h-199v213
l148 -16c-20 -47 -42 -94 -62 -135l62 -24c45 90 100 209 125 279z" />
</svg>
