<?xml version="1.0" standalone="no"?>
<!DOCTYPE svg PUBLIC "-//W3C//DTD SVG 1.1//EN" "http://www.w3.org/Graphics/SVG/1.1/DTD/svg11.dtd" >
<svg xmlns="http://www.w3.org/2000/svg" xmlns:xlink="http://www.w3.org/1999/xlink" version="1.1" viewBox="-10 0 1010 1000">
   <path fill="currentColor"
d="M942 105v68h-525v-68h525zM549 538v143h274v-143h-274zM549 336v142h274v-142h-274zM898 745h-421v-473h421v473zM379 215l66 29c-34 67 -75 151 -109 203l-49 -25c32 -54 72 -144 92 -207zM106 246l55 8c-4 93 -24 197 -70 258l-52 -26c42 -54 62 -151 67 -240zM428 772
l-51 54c-25 -37 -81 -107 -125 -157c-25 101 -74 195 -166 276c-9 -15 -35 -41 -51 -52c159 -141 177 -328 177 -508v-328h68v328c0 70 -2 141 -13 210c39 39 137 149 161 177zM377 851h586v70h-586v-70z" />
</svg>
