<?xml version="1.0" standalone="no"?>
<!DOCTYPE svg PUBLIC "-//W3C//DTD SVG 1.1//EN" "http://www.w3.org/Graphics/SVG/1.1/DTD/svg11.dtd" >
<svg xmlns="http://www.w3.org/2000/svg" xmlns:xlink="http://www.w3.org/1999/xlink" version="1.1" viewBox="-10 0 1010 1000">
   <path fill="currentColor"
d="M668 442v-59c-27 17 -54 33 -79 47c-9 -13 -29 -36 -45 -48c39 -21 82 -47 124 -78v-247h68v196c55 -46 105 -96 142 -147l51 51c-52 65 -121 127 -193 180v98c0 32 9 38 36 38h82c27 0 34 -20 38 -106c19 13 41 23 60 27c-8 104 -20 135 -98 135h-92
c-67 0 -94 -18 -94 -87zM473 557v-262c-23 35 -50 67 -76 95c-6 -15 -26 -46 -38 -62c70 -70 131 -175 167 -285l63 16c-15 42 -31 84 -51 123v375h-65zM93 246l51 7c-3 80 -18 187 -43 257l-52 -21c24 -62 39 -165 44 -243zM290 425l-41 -19c0 68 -3 137 -12 203
c34 38 124 153 146 180l-52 55c-21 -36 -69 -104 -109 -155c-21 97 -61 189 -132 269c-11 -17 -34 -40 -50 -51c128 -147 142 -336 142 -519v-339h67v340v11c25 -54 58 -135 74 -193l57 23c-28 66 -62 145 -90 195zM692 548v93h254v68h-254v250h-73v-250h-244v-68h244v-93
h73z" />
</svg>
