<?xml version="1.0" standalone="no"?>
<!DOCTYPE svg PUBLIC "-//W3C//DTD SVG 1.1//EN" "http://www.w3.org/Graphics/SVG/1.1/DTD/svg11.dtd" >
<svg xmlns="http://www.w3.org/2000/svg" xmlns:xlink="http://www.w3.org/1999/xlink" version="1.1" viewBox="-10 0 1010 1000">
   <path fill="currentColor"
d="M634 40l67 22c-6 14 -12 27 -19 40c64 93 178 198 271 258c-14 17 -31 48 -39 68c-91 -67 -196 -170 -265 -265c-68 113 -160 211 -257 280c-7 -17 -26 -54 -38 -70c115 -75 221 -196 280 -333zM483 442v-68h339v68h-339zM93 246l51 6c-3 81 -18 188 -43 259l-52 -22
c24 -62 39 -165 44 -243zM292 443l-43 -19c-1 62 -4 124 -12 185c35 38 125 153 146 180l-53 56c-20 -37 -69 -104 -108 -154c-22 96 -61 188 -132 267c-11 -17 -34 -40 -50 -51c128 -147 142 -335 142 -519v-339h67v340v25c25 -52 58 -133 74 -190l61 25
c-28 65 -63 144 -92 194zM715 712l60 -26c59 75 126 176 154 241l-64 31c-9 -23 -22 -49 -39 -77c-351 37 -391 43 -416 54c-4 -18 -18 -54 -26 -70c20 -4 44 -11 60 -29c22 -26 94 -154 129 -220h-171v-69h512v69h-259c-37 64 -93 166 -135 232l272 -26
c-25 -38 -51 -77 -77 -110z" />
</svg>
