<?xml version="1.0" standalone="no"?>
<!DOCTYPE svg PUBLIC "-//W3C//DTD SVG 1.1//EN" "http://www.w3.org/Graphics/SVG/1.1/DTD/svg11.dtd" >
<svg xmlns="http://www.w3.org/2000/svg" xmlns:xlink="http://www.w3.org/1999/xlink" version="1.1" viewBox="-10 0 1010 1000">
   <path fill="currentColor"
d="M628 213l-63 36c-17 -40 -58 -100 -95 -143l59 -31c40 42 80 99 99 138zM345 218l62 24c-25 68 -55 152 -79 203l-45 -20c21 -55 50 -145 62 -207zM88 246l54 8c-3 81 -18 188 -43 258l-56 -23c24 -61 40 -163 45 -243zM397 790l-51 54c-21 -37 -70 -104 -109 -154
c-23 97 -66 188 -142 268c-11 -15 -34 -40 -50 -51c137 -147 153 -336 153 -519v-339h67v339c0 74 -2 150 -13 223c35 39 124 151 145 179zM955 577h-249c47 144 141 266 264 323c-17 14 -40 42 -51 60c-111 -60 -198 -170 -254 -305c-36 103 -108 211 -247 306
c-12 -15 -37 -38 -57 -50c162 -104 226 -225 251 -334h-221v-69h233c5 -39 5 -75 5 -107v-70h-199v-69h255c42 -52 92 -132 121 -188l76 22c-34 56 -78 118 -117 166h156v69h-218v71c0 32 -1 68 -5 106h257v69z" />
</svg>
