<?xml version="1.0" standalone="no"?>
<!DOCTYPE svg PUBLIC "-//W3C//DTD SVG 1.1//EN" "http://www.w3.org/Graphics/SVG/1.1/DTD/svg11.dtd" >
<svg xmlns="http://www.w3.org/2000/svg" xmlns:xlink="http://www.w3.org/1999/xlink" version="1.1" viewBox="-10 0 1010 1000">
   <path fill="currentColor"
d="M116 959l-69 -28c45 -48 97 -124 130 -192l69 19c-35 69 -85 150 -130 201zM414 422l-126 36v170c0 40 -9 59 -35 70c-25 12 -65 13 -130 13c-3 -19 -12 -48 -22 -67c46 1 88 1 100 1c13 -1 18 -4 18 -17v-151c-55 16 -107 31 -151 44l-19 -72c47 -11 105 -26 170 -43
v-154h-149v-70h149v-138h69v138h116v70h-116v135c39 -11 79 -21 118 -32zM345 768l68 -7c13 58 24 134 25 178l-73 11c0 -46 -9 -123 -20 -182zM550 766l68 -13c28 57 55 133 65 180l-73 16c-9 -47 -35 -124 -60 -183zM765 251h-134c-4 81 -12 151 -28 212
c53 34 103 67 136 94l-38 59c-29 -25 -71 -56 -118 -89c-33 81 -84 140 -167 187c-9 -17 -30 -42 -47 -54c78 -42 125 -97 154 -173c-35 -21 -69 -43 -100 -62l36 -50c26 15 54 32 82 48c11 -50 17 -106 20 -172h-133v-64h135c1 -45 2 -93 2 -145h71c-1 52 -1 100 -3 145
h203c-7 311 -8 466 46 465c18 0 25 -26 28 -109c16 12 41 24 58 30c-8 113 -30 146 -89 146c-118 0 -117 -175 -114 -468zM755 761l65 -29c50 60 109 143 134 196l-68 33c-25 -53 -82 -139 -131 -200z" />
</svg>
