<?xml version="1.0" standalone="no"?>
<!DOCTYPE svg PUBLIC "-//W3C//DTD SVG 1.1//EN" "http://www.w3.org/Graphics/SVG/1.1/DTD/svg11.dtd" >
<svg xmlns="http://www.w3.org/2000/svg" xmlns:xlink="http://www.w3.org/1999/xlink" version="1.1" viewBox="-10 0 1010 1000">
   <path fill="currentColor"
d="M741 377v-204c-46 9 -92 17 -134 24c-4 -16 -13 -40 -21 -56c107 -19 235 -48 305 -80l52 54c-38 15 -84 29 -134 42v220h110v66h-110v238h136v65h-356v-65h152v-238h-125v-66h125zM296 224l56 19c-23 66 -48 151 -70 203l-42 -16c19 -54 45 -145 56 -206zM89 246l49 7
c-4 82 -20 191 -49 260l-49 -26c28 -60 44 -161 49 -241zM341 807l-47 48c-17 -34 -54 -101 -85 -152c-20 91 -58 176 -124 253c-10 -15 -32 -37 -46 -48c122 -143 135 -326 135 -506v-347h62v347c0 75 -2 150 -12 222c27 38 100 155 117 183zM802 865h165
c-10 17 -21 50 -24 70h-146c-126 0 -236 -24 -319 -122c-35 62 -78 109 -130 145c-9 -17 -27 -41 -41 -54c53 -33 95 -83 129 -151c-31 -53 -55 -120 -75 -204l53 -20c14 60 30 110 51 150c22 -64 37 -140 46 -228h-160c37 -79 83 -196 119 -299h-130v-65h224
c-34 95 -80 213 -118 302h81l12 -2l40 7c-11 148 -34 264 -71 355c77 95 180 116 294 116z" />
</svg>
