<?xml version="1.0" standalone="no"?>
<!DOCTYPE svg PUBLIC "-//W3C//DTD SVG 1.1//EN" "http://www.w3.org/Graphics/SVG/1.1/DTD/svg11.dtd" >
<svg xmlns="http://www.w3.org/2000/svg" xmlns:xlink="http://www.w3.org/1999/xlink" version="1.1" viewBox="-10 0 1010 1000">
   <path fill="currentColor"
d="M931 119v60h-856v-60h403c-10 -22 -21 -45 -32 -65l70 -17c18 24 37 57 48 82h367zM286 277v72h434v-72h-434zM793 397h-577v-169h577v169zM129 959l-72 -26c41 -43 87 -112 118 -173l72 15c-31 61 -76 136 -118 184zM345 781l68 -6c14 54 24 125 25 165l-73 11
c0 -43 -9 -115 -20 -170zM815 448l49 42c-89 45 -213 85 -324 110v74c0 40 -10 57 -46 67c-35 10 -93 9 -187 9c-3 -20 -15 -42 -25 -60c78 3 145 3 164 1c18 -1 23 -5 23 -18v-111c69 -13 149 -33 215 -56h-566v-55h681zM549 778l70 -11c26 53 54 122 64 165l-75 15
c-8 -43 -34 -115 -59 -169zM754 775l66 -23c47 52 102 124 127 172l-71 27c-22 -47 -75 -122 -122 -176z" />
</svg>
