<?xml version="1.0" standalone="no"?>
<!DOCTYPE svg PUBLIC "-//W3C//DTD SVG 1.1//EN" "http://www.w3.org/Graphics/SVG/1.1/DTD/svg11.dtd" >
<svg xmlns="http://www.w3.org/2000/svg" xmlns:xlink="http://www.w3.org/1999/xlink" version="1.1" viewBox="-10 0 1010 1000">
   <path fill="currentColor"
d="M273 79l60 25c-29 47 -67 100 -115 135l-61 -32c48 -31 90 -84 116 -128zM919 322l-57 51c-81 -45 -236 -107 -369 -152c-58 83 -167 134 -377 162c-5 -15 -22 -41 -34 -55c307 -36 374 -118 398 -282h75c-7 46 -17 86 -33 123c42 12 87 27 133 43
c37 -35 85 -89 112 -129l71 29c-38 44 -84 89 -123 122c79 30 153 61 204 88zM715 519l-60 -29c37 -30 87 -81 114 -117l70 30c-38 43 -86 86 -124 116zM196 531l-57 -35c58 -29 109 -81 141 -124l59 27c-36 46 -84 99 -143 132zM475 294h75c-4 25 -9 47 -14 69
c48 149 168 224 392 242c-15 14 -32 43 -41 62c-201 -24 -318 -91 -383 -217c-56 107 -165 177 -403 214c-6 -17 -22 -44 -35 -57c317 -44 382 -144 409 -313zM536 861h407v65h-884v-65h402v-108h-287v-62h287v-95h75v95h297v62h-297v108z" />
</svg>
