<?xml version="1.0" standalone="no"?>
<!DOCTYPE svg PUBLIC "-//W3C//DTD SVG 1.1//EN" "http://www.w3.org/Graphics/SVG/1.1/DTD/svg11.dtd" >
<svg xmlns="http://www.w3.org/2000/svg" xmlns:xlink="http://www.w3.org/1999/xlink" version="1.1" viewBox="-10 0 1010 1000">
   <path fill="currentColor"
d="M79 246l46 9c-3 80 -15 188 -35 259l-47 -25c19 -61 32 -164 36 -243zM228 49v339c0 76 -2 153 -11 228c32 43 98 147 116 174l-42 56c-17 -37 -55 -101 -87 -152c-18 97 -54 188 -115 268c-9 -18 -30 -43 -42 -55c112 -147 124 -337 124 -519v-339h57zM274 447l-38 -23
c20 -55 47 -145 61 -206l50 26c-24 68 -51 151 -73 203zM845 621l-40 47c-21 -37 -80 -124 -122 -184v320h-61v-327c-39 86 -91 167 -140 215c-10 -14 -28 -33 -42 -43c62 -53 128 -158 167 -258h-142v-57h157v-138h61v138h144v57h-144v24c37 41 139 173 162 206zM436 841
h416v-683h-416v683zM369 94h553v864h-70v-51h-416v51h-67v-864z" />
</svg>
