<?xml version="1.0" standalone="no"?>
<!DOCTYPE svg PUBLIC "-//W3C//DTD SVG 1.1//EN" "http://www.w3.org/Graphics/SVG/1.1/DTD/svg11.dtd" >
<svg xmlns="http://www.w3.org/2000/svg" xmlns:xlink="http://www.w3.org/1999/xlink" version="1.1" viewBox="-10 0 1010 1000">
   <path fill="currentColor"
d="M813 354v-204h-298v204h298zM886 83v338h-441v-338h441zM355 218l60 24c-28 68 -60 151 -87 204l-44 -21c24 -55 55 -146 71 -207zM91 246l54 8c-3 80 -17 189 -43 258l-54 -22c24 -62 39 -164 43 -244zM269 49v338c0 75 -2 151 -13 224c35 38 123 148 143 175l-50 53
c-20 -36 -68 -102 -107 -151c-23 97 -66 189 -142 270c-10 -16 -33 -40 -48 -51c136 -147 151 -336 151 -520v-338h66zM484 832h365v-225h-365v225zM413 539h509v409h-73v-48h-365v54h-71v-415z" />
</svg>
