<?xml version="1.0" standalone="no"?>
<!DOCTYPE svg PUBLIC "-//W3C//DTD SVG 1.1//EN" "http://www.w3.org/Graphics/SVG/1.1/DTD/svg11.dtd" >
<svg xmlns="http://www.w3.org/2000/svg" xmlns:xlink="http://www.w3.org/1999/xlink" version="1.1" viewBox="-10 0 1010 1000">
   <path fill="currentColor"
d="M88 249l52 6c3 76 -5 185 -24 255l-53 -21c17 -62 25 -163 25 -240zM269 49v338c0 76 -2 151 -13 223c35 41 123 151 144 179l-51 54c-20 -37 -69 -104 -109 -154c-23 97 -66 188 -142 269c-11 -16 -35 -41 -50 -51c138 -147 153 -337 153 -520v-338h68zM328 446l-45 -22
c24 -54 56 -144 72 -206l61 24c-28 68 -61 151 -88 204zM796 220h-191c-34 68 -75 130 -119 176c-14 -12 -44 -33 -61 -43c78 -73 137 -188 171 -309l72 15c-10 32 -21 65 -34 96h196l12 -3l48 29c-30 81 -83 177 -132 238c-14 -11 -38 -26 -54 -35c33 -43 68 -107 92 -164z
M431 955v-532h68v532h-68zM649 823h207v-130h-207v130zM856 502h-207v126h207v-126zM583 434h343v515h-70v-57h-207v63h-66v-521z" />
</svg>
