<?xml version="1.0" standalone="no"?>
<!DOCTYPE svg PUBLIC "-//W3C//DTD SVG 1.1//EN" "http://www.w3.org/Graphics/SVG/1.1/DTD/svg11.dtd" >
<svg xmlns="http://www.w3.org/2000/svg" xmlns:xlink="http://www.w3.org/1999/xlink" version="1.1" viewBox="-10 0 1010 1000">
   <path fill="currentColor"
d="M937 164v68h-555v-68h247c-13 -32 -29 -73 -44 -104l67 -20c20 39 44 91 56 124h229zM508 256l67 15c-11 40 -26 80 -42 117c38 30 81 66 104 90l-40 52c-20 -24 -56 -56 -92 -87c-27 50 -59 95 -94 131c-11 -13 -36 -39 -51 -50c68 -63 120 -162 148 -268zM330 218
l59 25c-28 67 -60 150 -87 203l-43 -21c24 -55 56 -145 71 -207zM87 247l52 8c-3 80 -17 187 -42 257l-54 -23c24 -61 39 -163 44 -242zM250 49v339c0 74 -2 148 -13 221c34 37 123 153 144 181l-49 53c-21 -37 -70 -105 -109 -157c-22 99 -64 191 -140 272
c-10 -16 -32 -40 -48 -51c136 -146 151 -336 151 -519v-339h64zM956 649v69h-269v239h-72v-239h-252v-69h252v-96h72c-13 -14 -33 -33 -45 -43c60 -61 104 -152 127 -250l68 13c-10 38 -23 76 -36 112c50 40 105 89 133 122l-42 52c-26 -31 -73 -76 -119 -116
c-23 45 -50 86 -80 117l-6 -7v96h269z" />
</svg>
