<?xml version="1.0" standalone="no"?>
<!DOCTYPE svg PUBLIC "-//W3C//DTD SVG 1.1//EN" "http://www.w3.org/Graphics/SVG/1.1/DTD/svg11.dtd" >
<svg xmlns="http://www.w3.org/2000/svg" xmlns:xlink="http://www.w3.org/1999/xlink" version="1.1" viewBox="-10 0 1010 1000">
   <path fill="currentColor"
d="M442 209v102h-69v-168h256c-13 -26 -29 -56 -47 -79l59 -25c25 31 50 72 64 104h231v166h-71v-100h-423zM86 246l49 8c-3 81 -17 189 -41 258l-51 -22c23 -62 38 -164 43 -244zM371 789l-47 54c-19 -37 -67 -106 -105 -157c-22 98 -62 190 -136 272
c-10 -16 -30 -40 -45 -51c132 -146 146 -336 146 -519v-339h61v339v16c23 -53 53 -135 67 -192l55 23c-26 66 -58 147 -84 197l-38 -20c-1 67 -3 133 -12 199c33 39 118 151 138 178zM596 361l11 -2l37 8c-27 318 -114 500 -253 591c-9 -15 -32 -38 -44 -46
c76 -48 134 -122 175 -228c-23 -26 -59 -58 -94 -80l33 -49c29 18 59 40 83 62c15 -58 27 -123 35 -196h-93c-26 84 -62 160 -105 215c-10 -10 -34 -31 -47 -41c62 -75 101 -192 124 -314l60 10c-5 24 -9 47 -15 70h93zM778 890h56c15 0 30 -1 37 -4c8 -3 16 -10 19 -24
c3 -17 5 -53 6 -99c15 13 37 23 57 29c-1 42 -6 91 -12 109c-7 18 -19 30 -37 37c-16 6 -42 8 -64 8h-73c-21 0 -49 -4 -66 -16c-20 -12 -27 -28 -27 -100v-489h232v302c0 32 -5 48 -26 59c-21 10 -55 11 -107 11c-3 -17 -10 -41 -18 -58c38 1 67 1 77 1s13 -4 13 -13v-244
h-109v439c0 27 3 44 12 48c8 3 17 4 30 4z" />
</svg>
