<?xml version="1.0" standalone="no"?>
<!DOCTYPE svg PUBLIC "-//W3C//DTD SVG 1.1//EN" "http://www.w3.org/Graphics/SVG/1.1/DTD/svg11.dtd" >
<svg xmlns="http://www.w3.org/2000/svg" xmlns:xlink="http://www.w3.org/1999/xlink" version="1.1" viewBox="-10 0 1010 1000">
   <path fill="currentColor"
d="M698 81l58 -26c46 82 132 182 196 234c-17 13 -43 39 -55 56c-64 -60 -150 -172 -199 -264zM444 558v-4c-5 -17 -14 -46 -21 -63c16 -3 34 -22 55 -50c21 -26 92 -130 135 -231l67 30c-44 84 -97 169 -150 237l240 -25c-22 -35 -44 -72 -65 -103l55 -24
c50 70 110 166 137 225l-60 30c-9 -20 -21 -46 -36 -72c-294 32 -332 39 -356 50h-1zM534 608l46 -41c62 26 131 73 167 111l-49 45c-33 -39 -103 -88 -164 -115zM531 68l69 18c-40 98 -106 197 -170 261c-12 -14 -38 -41 -53 -54c61 -56 120 -140 154 -225zM321 218l58 24
c-19 67 -41 150 -60 203l-43 -20c16 -55 36 -145 45 -207zM86 246l53 8c-2 79 -16 187 -41 258l-54 -23c23 -61 38 -163 42 -243zM346 759l-46 58c-16 -31 -50 -85 -80 -128c-22 95 -60 187 -126 269c-11 -17 -35 -40 -51 -51c129 -161 143 -367 143 -552v-306h66v306
c0 83 -3 171 -16 256c28 34 94 124 110 148zM384 915l-58 -31c38 -45 65 -125 78 -197l62 11c-13 74 -40 162 -82 217zM615 893h116c28 0 33 -13 36 -97c14 11 41 22 60 25c-7 106 -27 132 -89 132h-131c-80 0 -100 -20 -100 -88v-191h68v191c0 24 6 28 40 28zM782 700
l53 -29c56 63 114 149 134 207l-58 35c-19 -59 -75 -147 -129 -213z" />
</svg>
