<?xml version="1.0" standalone="no"?>
<!DOCTYPE svg PUBLIC "-//W3C//DTD SVG 1.1//EN" "http://www.w3.org/Graphics/SVG/1.1/DTD/svg11.dtd" >
<svg xmlns="http://www.w3.org/2000/svg" xmlns:xlink="http://www.w3.org/1999/xlink" version="1.1" viewBox="-10 0 1010 1000">
   <path fill="currentColor"
d="M282 225l54 18c-23 67 -47 152 -68 203l-39 -15c20 -54 42 -146 53 -206zM85 246l46 7c-4 83 -19 191 -47 260l-46 -26c27 -59 42 -160 47 -241zM316 781l-47 42c-13 -27 -42 -81 -68 -124c-19 93 -56 179 -119 257c-10 -15 -30 -38 -44 -48c116 -144 129 -326 129 -506
v-347h58v347c0 75 -2 150 -11 222c24 33 86 133 102 157zM731 548h121v-170h-121v122v48zM852 147h-121v166h121v-166zM430 548h111v-170h-109v80c0 28 -1 59 -2 90zM541 147h-109v166h109v-166zM918 80v792c0 38 -7 59 -31 71c-23 13 -59 14 -117 14
c-2 -19 -12 -49 -21 -68c40 1 76 0 87 0c12 0 16 -4 16 -17v-258h-124c-7 120 -29 253 -89 345c-11 -13 -37 -35 -52 -43l5 -7c-5 5 -10 9 -17 13c-22 12 -56 13 -113 13c-3 -18 -11 -48 -20 -66c39 2 73 2 83 1c12 0 16 -4 16 -17v-239h-116c-13 121 -44 250 -123 344
c-10 -13 -37 -34 -52 -43c107 -127 117 -311 117 -457v-378h238v774c0 18 -2 32 -6 43c62 -114 67 -270 67 -396v-421h252z" />
</svg>
