<?xml version="1.0" standalone="no"?>
<!DOCTYPE svg PUBLIC "-//W3C//DTD SVG 1.1//EN" "http://www.w3.org/Graphics/SVG/1.1/DTD/svg11.dtd" >
<svg xmlns="http://www.w3.org/2000/svg" xmlns:xlink="http://www.w3.org/1999/xlink" version="1.1" viewBox="-10 0 1010 1000">
   <path fill="currentColor"
d="M88 250l46 7c-1 94 -15 200 -54 261l-43 -27c35 -54 50 -151 51 -241zM314 783l-50 47c-13 -31 -41 -88 -67 -136c-19 93 -55 181 -116 261c-9 -15 -30 -36 -43 -46c113 -147 126 -334 126 -514v-340h58v340v25c22 -61 49 -151 62 -214l58 22c-25 72 -56 163 -81 220
l-39 -16c-1 59 -3 118 -10 175c25 42 87 149 102 176zM603 433h-60v500h-57v-500h-78v39c0 142 -12 343 -90 479c-11 -11 -37 -29 -51 -35c73 -128 80 -309 80 -444v-324c78 -16 164 -42 214 -70l49 54c-57 27 -132 47 -202 62v178h197v56c41 -104 65 -242 80 -380l61 8
c-6 49 -13 98 -21 145h184l11 -3l38 12c-15 79 -37 174 -60 232l-48 -15c15 -41 29 -105 40 -163h-176c-21 96 -47 185 -81 251c-12 -8 -40 -23 -55 -30c9 -16 17 -33 25 -52zM798 317v73c0 43 -1 90 -6 140c23 130 73 285 181 368c-13 14 -36 44 -45 62
c-82 -73 -130 -191 -158 -298c-24 102 -71 207 -160 299c-11 -12 -34 -30 -49 -39c165 -170 177 -380 177 -533v-72h60z" />
</svg>
