<?xml version="1.0" standalone="no"?>
<!DOCTYPE svg PUBLIC "-//W3C//DTD SVG 1.1//EN" "http://www.w3.org/Graphics/SVG/1.1/DTD/svg11.dtd" >
<svg xmlns="http://www.w3.org/2000/svg" xmlns:xlink="http://www.w3.org/1999/xlink" version="1.1" viewBox="-10 0 1010 1000">
   <path fill="currentColor"
d="M818 252v-99h-214v99h214zM818 412v-101h-214v101h214zM890 91v382h-354v-382h354zM732 740l-62 -25c40 -43 89 -113 117 -163l70 26c-37 59 -86 120 -125 162zM387 252v-99h-208v99h208zM387 412v-101h-208v101h208zM458 91v382h-348v-382h348zM180 749l-54 -44
c63 -37 107 -104 132 -165l60 23c-28 69 -70 141 -138 186zM475 504l78 10c-5 24 -10 47 -16 69c67 163 209 271 418 310c-16 16 -36 45 -46 65c-190 -44 -323 -140 -403 -290c-74 161 -210 242 -411 292c-8 -17 -30 -49 -45 -65c249 -48 386 -153 425 -391z" />
</svg>
