<?xml version="1.0" standalone="no"?>
<!DOCTYPE svg PUBLIC "-//W3C//DTD SVG 1.1//EN" "http://www.w3.org/Graphics/SVG/1.1/DTD/svg11.dtd" >
<svg xmlns="http://www.w3.org/2000/svg" xmlns:xlink="http://www.w3.org/1999/xlink" version="1.1" viewBox="-10 0 1010 1000">
   <path fill="currentColor"
d="M312 218l55 22c-24 68 -50 151 -74 203l-40 -18c21 -55 46 -145 59 -207zM86 246l50 7c-3 79 -18 187 -44 257l-50 -21c24 -62 40 -164 44 -243zM340 768l-47 47c-15 -31 -51 -86 -82 -132c-19 99 -57 194 -125 276c-10 -14 -32 -36 -47 -46c120 -149 133 -338 133 -521
v-343h62v343c0 73 -2 145 -11 216c28 33 100 134 117 160zM453 189v211c0 161 -12 398 -93 561c-13 -12 -43 -31 -60 -36c78 -155 86 -372 86 -525v-274h255c-9 -24 -20 -50 -30 -72l68 -14c14 26 29 61 39 86h225v63h-490zM709 601h117v-97h-109c-1 32 -3 65 -8 97z
M717 354v89h109v-89h-109zM886 504v154h-157c45 115 110 181 209 239c-16 14 -34 37 -44 56c-98 -62 -162 -134 -210 -244c-33 91 -96 176 -215 246c-8 -16 -27 -41 -41 -54c119 -69 176 -154 202 -243h-127v-57h141c5 -32 8 -65 9 -97h-175v-61h175v-89h-149v-57h149v-70
h64v70h169v146h61v61h-61z" />
</svg>
