<?xml version="1.0" standalone="no"?>
<!DOCTYPE svg PUBLIC "-//W3C//DTD SVG 1.1//EN" "http://www.w3.org/Graphics/SVG/1.1/DTD/svg11.dtd" >
<svg xmlns="http://www.w3.org/2000/svg" xmlns:xlink="http://www.w3.org/1999/xlink" version="1.1" viewBox="-10 0 1010 1000">
   <path fill="currentColor"
d="M93 247l54 7c-3 89 -18 194 -56 256l-52 -23c34 -55 51 -154 54 -240zM389 789l-51 51c-20 -36 -67 -105 -106 -156c-23 97 -66 190 -147 271c-10 -16 -33 -40 -48 -50c141 -144 157 -332 157 -515v-335h66v335c0 72 -2 144 -12 215c33 39 120 156 141 184zM485 614h139
v-79h-139v79zM485 408v77h139v-77h-139zM836 408h-140v77h140v-77zM836 614v-79h-140v79h140zM696 874h263v62h-605v-62h270v-78h-216v-60h216v-66h-205v-318h205v-62h-239v-5c-26 57 -55 119 -79 160l-45 -21c24 -50 57 -131 72 -187l52 22v-30h239v-84
c-72 8 -147 13 -216 16c-2 -16 -10 -40 -17 -55c169 -11 375 -32 485 -64l51 54c-64 18 -145 32 -231 41v92h248v61h-248v62h208v318h-208v66h224v60h-224v78z" />
</svg>
