<?xml version="1.0" standalone="no"?>
<!DOCTYPE svg PUBLIC "-//W3C//DTD SVG 1.1//EN" "http://www.w3.org/Graphics/SVG/1.1/DTD/svg11.dtd" >
<svg xmlns="http://www.w3.org/2000/svg" xmlns:xlink="http://www.w3.org/1999/xlink" version="1.1" viewBox="-10 0 1010 1000">
   <path fill="currentColor"
d="M282 437l-44 -18c23 -57 50 -152 64 -215l59 19c-25 71 -54 159 -79 214zM90 250l51 8c-1 95 -15 202 -58 263l-46 -30c38 -53 52 -149 53 -241zM340 774l-49 51c-15 -31 -49 -86 -79 -131c-21 94 -59 183 -126 262c-11 -16 -34 -38 -49 -49c121 -146 135 -332 135 -512
v-337h66v337c0 72 -2 146 -12 218c29 37 98 135 114 161zM521 434v165h78v-165h-78zM723 599v-165h-80v165h80zM707 728l46 -12c30 67 60 154 72 211l-48 16c-4 -22 -12 -50 -21 -78c-111 13 -224 26 -312 36l-15 -64c46 -4 102 -9 163 -16v-164h-114v-281h115v-92
c-39 6 -79 11 -115 14c-3 -14 -11 -35 -19 -50c96 -11 212 -29 276 -52l43 49c-36 12 -81 23 -128 30v101h117v281h-117v158l88 -8c-10 -28 -21 -54 -31 -79zM371 83h507c-4 433 -8 785 41 800c7 2 14 -73 17 -155c12 17 31 39 42 48c-10 163 -41 195 -86 177
c-88 -33 -83 -374 -82 -804h-375v299c0 155 -12 368 -101 512c-11 -12 -38 -31 -54 -37c83 -136 91 -328 91 -474v-366z" />
</svg>
