<?xml version="1.0" standalone="no"?>
<!DOCTYPE svg PUBLIC "-//W3C//DTD SVG 1.1//EN" "http://www.w3.org/Graphics/SVG/1.1/DTD/svg11.dtd" >
<svg xmlns="http://www.w3.org/2000/svg" xmlns:xlink="http://www.w3.org/1999/xlink" version="1.1" viewBox="-10 0 1010 1000">
   <path fill="currentColor"
d="M895 253l60 25c-29 77 -62 172 -91 232l-45 -21c26 -63 59 -165 76 -236zM624 524l-46 -31c44 -54 69 -151 81 -232l51 14c-12 84 -37 188 -86 249zM89 250l50 7c-1 97 -15 203 -58 264l-45 -30c38 -53 52 -149 53 -241zM264 448l-35 -17c-1 67 -4 133 -14 199
c28 34 98 139 115 164l-49 50c-16 -33 -51 -90 -80 -136c-21 89 -58 173 -119 248c-10 -15 -34 -37 -48 -48c118 -147 132 -333 132 -513v-339h63v339v22c22 -58 47 -144 60 -204l56 23c-27 69 -55 158 -81 212zM628 622l-38 55c-14 -29 -50 -84 -80 -127v407h-66v-420
c-31 94 -71 182 -116 237c-7 -19 -24 -48 -35 -66c58 -69 113 -198 142 -318h-114v-65h123v-160c-37 10 -75 18 -111 25c-4 -14 -14 -37 -22 -51c93 -21 201 -51 261 -82l53 51c-34 15 -73 28 -115 41v176h105v65h-105v85c28 32 102 124 118 147zM798 48v388
c0 79 24 324 172 459c-13 16 -33 46 -44 63c-112 -102 -153 -285 -161 -363c-8 81 -51 257 -175 362c-7 -15 -27 -46 -39 -60c159 -137 181 -379 181 -461v-388h66z" />
</svg>
