<?xml version="1.0" standalone="no"?>
<!DOCTYPE svg PUBLIC "-//W3C//DTD SVG 1.1//EN" "http://www.w3.org/Graphics/SVG/1.1/DTD/svg11.dtd" >
<svg xmlns="http://www.w3.org/2000/svg" xmlns:xlink="http://www.w3.org/1999/xlink" version="1.1" viewBox="-10 0 1010 1000">
   <path fill="currentColor"
d="M513 303v-96h-135v-66h135v-97h65v97h163v-97h67v97h142v66h-142v94h-67v-94h-163v96h-65zM340 218l63 25c-28 67 -62 151 -90 204l-46 -23c25 -55 58 -145 73 -206zM99 246l54 7c-3 93 -21 196 -64 257l-51 -24c40 -54 57 -151 61 -240zM391 782l-52 51
c-20 -35 -67 -101 -104 -151c-24 99 -69 192 -152 272c-10 -15 -33 -39 -49 -50c147 -144 162 -332 162 -513v-334h66v334c0 72 -2 144 -13 215c33 36 120 148 142 176zM495 585h128c1 -21 2 -42 2 -62v-106h-130v168zM828 417h-134v106c0 20 -1 41 -2 62h136v-168zM958 651
h-259c42 125 130 213 269 248c-14 14 -34 41 -43 59c-128 -40 -214 -120 -265 -236c-38 90 -118 175 -280 238c-8 -15 -29 -39 -45 -53c184 -65 252 -161 277 -256h-253v-66h70v-232h196v-84h69v84h202v232h62v66z" />
</svg>
