<?xml version="1.0" standalone="no"?>
<!DOCTYPE svg PUBLIC "-//W3C//DTD SVG 1.1//EN" "http://www.w3.org/Graphics/SVG/1.1/DTD/svg11.dtd" >
<svg xmlns="http://www.w3.org/2000/svg" xmlns:xlink="http://www.w3.org/1999/xlink" version="1.1" viewBox="-10 0 1010 1000">
   <path fill="currentColor"
d="M87 247l53 7c-3 80 -17 188 -43 256l-54 -20c24 -62 40 -164 44 -243zM299 431l-42 -21c-1 67 -3 134 -13 199c33 36 122 152 144 180l-50 54c-20 -36 -70 -106 -109 -157c-23 98 -65 190 -143 272c-11 -16 -34 -41 -49 -51c137 -148 153 -336 153 -519v-339h67v339v17
c25 -54 55 -140 71 -199l60 24c-28 67 -62 149 -89 201zM499 429v89h308v-89h-308zM717 693v87h232v59h-232v116h-70v-116h-245c11 -38 23 -92 30 -137l65 6c-4 23 -9 49 -14 72h164v-87h-254v-57h254v-62h-215v-200h445v200h-160v62h194v57h-194zM789 181h-168
c-8 29 -15 58 -23 83h191v-83zM857 264h98v59h-579v-59h153c7 -25 15 -54 22 -83h-122v-58h137c7 -28 12 -56 18 -81l67 7c-5 23 -11 49 -17 74h223v141z" />
</svg>
