<?xml version="1.0" standalone="no"?>
<!DOCTYPE svg PUBLIC "-//W3C//DTD SVG 1.1//EN" "http://www.w3.org/Graphics/SVG/1.1/DTD/svg11.dtd" >
<svg xmlns="http://www.w3.org/2000/svg" xmlns:xlink="http://www.w3.org/1999/xlink" version="1.1" viewBox="-10 0 1010 1000">
   <path fill="currentColor"
d="M442 108l65 25c-30 53 -65 114 -93 152l-55 -22c29 -41 65 -109 83 -155zM134 112l58 12c-6 66 -30 139 -76 180l-53 -27c41 -34 65 -101 71 -165zM494 419l-49 51c-36 -38 -102 -92 -165 -136c-35 71 -92 124 -187 163c-8 -17 -27 -42 -41 -53
c177 -67 202 -189 210 -399h70c-4 89 -12 164 -30 228c70 43 150 103 192 146zM127 534l59 11c-10 74 -34 149 -84 193l-52 -31c42 -37 68 -105 77 -173zM260 452h70c-4 88 -10 167 -27 234c72 54 155 128 196 179l-52 50c-33 -45 -99 -109 -164 -161
c-35 88 -94 155 -201 201c-8 -18 -29 -43 -43 -55c190 -78 213 -223 221 -448zM418 699l-55 -22c28 -41 65 -109 85 -155l66 25c-31 53 -67 114 -96 152zM860 839v-242h-262v242h262zM959 319h-208v208h183v425h-74v-43h-262v48h-71v-430h151v-483h73v205h208v70z" />
</svg>
