<?xml version="1.0" standalone="no"?>
<!DOCTYPE svg PUBLIC "-//W3C//DTD SVG 1.1//EN" "http://www.w3.org/Graphics/SVG/1.1/DTD/svg11.dtd" >
<svg xmlns="http://www.w3.org/2000/svg" xmlns:xlink="http://www.w3.org/1999/xlink" version="1.1" viewBox="-10 0 1010 1000">
   <path fill="currentColor"
d="M662 322h-9c-58 77 -149 152 -227 193c-10 -16 -30 -38 -45 -51c69 -30 147 -83 203 -142h-176v-61h247c-42 -26 -91 -54 -134 -72l42 -38c31 13 64 31 95 48c35 -19 71 -45 101 -70h-306v-58h370l15 -3l45 32c-46 49 -110 96 -172 130c18 11 34 21 46 31h131l12 -3
l50 16c-30 61 -65 128 -95 171l-59 -19c17 -28 39 -66 57 -104h-123v119c0 34 -6 50 -32 59c-25 10 -64 10 -124 10c-3 -19 -12 -40 -21 -58c44 1 83 1 94 1c12 -1 15 -4 15 -14v-117zM333 218l60 24c-28 68 -61 151 -88 204l-44 -21c25 -55 57 -145 72 -207zM95 246l53 8
c-3 81 -18 188 -43 258l-53 -23c23 -61 38 -163 43 -243zM377 783l-49 53c-19 -35 -65 -98 -102 -146c-22 97 -61 188 -131 268c-10 -16 -33 -40 -48 -51c126 -147 140 -335 140 -518v-340h65v340c0 75 -2 149 -12 223c34 38 118 144 137 171zM937 677h-200
c59 76 148 152 223 191c-16 13 -38 37 -48 55c-72 -45 -154 -123 -215 -205v239h-70v-234c-63 86 -151 165 -232 210c-12 -18 -33 -42 -49 -56c87 -40 180 -118 240 -200h-195v-63h236v-94h70v94h240v63z" />
</svg>
