<?xml version="1.0" standalone="no"?>
<!DOCTYPE svg PUBLIC "-//W3C//DTD SVG 1.1//EN" "http://www.w3.org/Graphics/SVG/1.1/DTD/svg11.dtd" >
<svg xmlns="http://www.w3.org/2000/svg" xmlns:xlink="http://www.w3.org/1999/xlink" version="1.1" viewBox="-10 0 1010 1000">
   <path fill="currentColor"
d="M95 248l53 7c-2 94 -17 197 -60 259l-50 -26c38 -53 56 -150 57 -240zM386 791l-51 53c-20 -37 -66 -106 -104 -157c-23 96 -66 187 -143 267c-10 -16 -33 -39 -50 -51c138 -144 153 -332 153 -513v-335h68v277c31 -46 62 -98 82 -139l64 20c-43 68 -100 150 -146 202
c-1 64 -3 128 -13 191c34 40 119 157 140 185zM829 542l-50 21c-16 -46 -56 -121 -94 -177l47 -17c39 55 81 128 97 173zM589 369l53 17c-28 75 -70 154 -112 204c-10 -9 -28 -22 -42 -29c41 -46 80 -124 101 -192zM487 631h124c9 -39 15 -82 19 -127h71
c-4 45 -10 87 -18 127h157v-275h-353v275zM740 179h-176c-20 40 -45 79 -73 117h187c22 -34 45 -78 62 -117zM957 695h-259c53 94 150 168 267 200c-16 14 -36 40 -46 60c-115 -40 -210 -118 -269 -219c-44 100 -126 175 -282 221c-6 -18 -25 -45 -40 -59
c153 -41 226 -111 264 -203h-236v-64h68v-256l-10 9c-11 -14 -35 -36 -51 -45c94 -87 155 -204 187 -296l70 10c-8 22 -17 45 -27 68h179l11 -3l44 28c-19 49 -50 103 -79 150h158v335h51v64z" />
</svg>
