<?xml version="1.0" standalone="no"?>
<!DOCTYPE svg PUBLIC "-//W3C//DTD SVG 1.1//EN" "http://www.w3.org/Graphics/SVG/1.1/DTD/svg11.dtd" >
<svg xmlns="http://www.w3.org/2000/svg" xmlns:xlink="http://www.w3.org/1999/xlink" version="1.1" viewBox="-10 0 1010 1000">
   <path fill="currentColor"
d="M837 240v-98h-149v98h149zM837 395v-100h-149v100h149zM480 295v100h142v-100h-142zM480 142v98h142v-98h-142zM906 83v370h-492v-370h492zM343 217l62 25c-28 68 -62 151 -89 204l-46 -22c25 -54 57 -145 73 -207zM86 246l52 8c-3 79 -18 187 -43 257l-53 -22
c24 -62 40 -164 44 -243zM261 49v339c0 74 -2 148 -13 221c35 37 125 150 147 177l-52 54c-21 -36 -70 -104 -109 -154c-23 99 -67 191 -144 273c-11 -16 -35 -42 -51 -52c137 -146 153 -337 153 -520v-338h69zM891 633l46 48c-44 36 -101 70 -149 95c47 58 108 102 182 128
c-17 13 -37 40 -47 59c-150 -62 -246 -192 -297 -365h-110v264l167 -38c-2 20 -2 48 0 65c-198 50 -228 60 -247 73c-4 -19 -18 -51 -29 -68c15 -7 37 -23 37 -61v-235h-81v-66h594v66h-265c16 48 36 92 62 131c47 -27 102 -66 137 -96z" />
</svg>
