<?xml version="1.0" standalone="no"?>
<!DOCTYPE svg PUBLIC "-//W3C//DTD SVG 1.1//EN" "http://www.w3.org/Graphics/SVG/1.1/DTD/svg11.dtd" >
<svg xmlns="http://www.w3.org/2000/svg" xmlns:xlink="http://www.w3.org/1999/xlink" version="1.1" viewBox="-10 0 1010 1000">
   <path fill="currentColor"
d="M586 172l-63 29c-12 -33 -41 -88 -69 -127l61 -26c29 39 60 90 71 124zM89 246l49 7c-4 82 -20 191 -49 259l-49 -25c28 -60 44 -161 49 -241zM237 55v347c0 75 -2 150 -12 222c27 38 100 156 116 184l-46 48c-17 -34 -54 -101 -85 -152c-20 90 -59 175 -125 252
c-10 -15 -31 -37 -46 -47c122 -144 135 -327 135 -507v-347h63zM283 446l-42 -16c20 -54 45 -144 56 -205l56 19c-23 66 -49 150 -70 202zM702 371v-94h-85v94h85zM859 574v-139h-104v124c0 15 3 17 22 17h65c11 0 15 0 17 -2zM468 846h391v-79h-391v79zM565 435h-97v272
h391v-81h-9h-79c-55 0 -70 -12 -70 -67v-124h-81v40c0 60 -21 136 -98 191c-10 -10 -32 -28 -45 -34c72 -49 88 -110 88 -159v-38zM954 277h-185v94h160v580h-70v-44h-391v50h-68v-586h150v-94h-176v-66h325c37 -46 81 -116 106 -165l72 25c-31 47 -68 99 -101 140h178v66z
" />
</svg>
