<?xml version="1.0" standalone="no"?>
<!DOCTYPE svg PUBLIC "-//W3C//DTD SVG 1.1//EN" "http://www.w3.org/Graphics/SVG/1.1/DTD/svg11.dtd" >
<svg xmlns="http://www.w3.org/2000/svg" xmlns:xlink="http://www.w3.org/1999/xlink" version="1.1" viewBox="-10 0 1010 1000">
   <path fill="currentColor"
d="M899 490l42 48c-34 29 -73 57 -109 81c40 50 77 100 98 140l-51 36c-39 -73 -126 -187 -202 -270l48 -31c24 26 48 53 73 82c35 -26 75 -60 101 -86zM837 148h-202v95h202v-95zM635 398h202v-95h-202v95zM635 703l121 -39c5 17 11 42 17 55c-171 61 -198 72 -213 86
c-6 -15 -21 -43 -31 -54c16 -10 39 -31 39 -72v-592h335v373h-268v243zM508 272l-60 29c-17 -47 -54 -121 -89 -175l57 -25c36 53 74 124 92 171zM316 224l57 19c-23 67 -49 151 -71 203l-41 -16c19 -54 44 -145 55 -206zM98 246l49 7c-4 82 -20 191 -49 260l-49 -26
c28 -59 44 -160 49 -241zM354 796l-48 50c-17 -34 -54 -94 -86 -142c-21 92 -60 178 -130 255c-10 -16 -32 -40 -48 -50c126 -144 140 -328 140 -507v-347h66v346c0 76 -2 151 -13 223c31 41 101 146 119 172zM488 385v407c17 9 34 25 61 42c48 31 107 42 186 42
c64 0 166 -5 232 -13c-7 19 -16 52 -17 71c-53 4 -156 7 -217 7c-84 0 -145 -14 -197 -48c-34 -24 -62 -51 -81 -51c-26 0 -65 54 -102 110l-47 -62c41 -47 80 -85 116 -100v-344h-76v-61h142z" />
</svg>
