<?xml version="1.0" standalone="no"?>
<!DOCTYPE svg PUBLIC "-//W3C//DTD SVG 1.1//EN" "http://www.w3.org/Graphics/SVG/1.1/DTD/svg11.dtd" >
<svg xmlns="http://www.w3.org/2000/svg" xmlns:xlink="http://www.w3.org/1999/xlink" version="1.1" viewBox="-10 0 1010 1000">
   <path fill="currentColor"
d="M332 210l63 20c-27 68 -60 149 -87 201l-46 -19c24 -54 55 -142 70 -202zM94 248l52 7c0 93 -15 197 -58 258l-50 -25c39 -53 54 -151 56 -240zM377 786l-50 53c-19 -35 -62 -102 -97 -153c-23 98 -66 191 -142 271c-9 -15 -33 -39 -50 -51c136 -145 150 -332 150 -513
v-336h68v336c0 71 -2 143 -12 213c33 40 113 151 133 180zM481 260v79h351v-79h-351zM481 126v79h351v-79h-351zM798 891h52c15 0 30 -1 36 -3c8 -3 15 -9 18 -20c4 -12 5 -38 6 -73c13 12 41 25 61 31c-2 35 -6 71 -12 86c-8 15 -21 25 -40 30c-14 4 -42 6 -61 6h-73
c-23 0 -52 -3 -68 -16c-18 -12 -26 -29 -26 -84v-182h-92c-16 151 -65 242 -237 291c-7 -16 -25 -42 -39 -55c153 -39 195 -111 208 -236h-169v-64h256v-206h-203v-327h487v327h-215v206h270v64h-197v189c0 18 2 28 9 31c6 3 15 5 29 5zM412 439l59 -23c30 46 63 107 76 146
l-62 25c-11 -39 -43 -102 -73 -148zM804 587l-52 -23c28 -41 65 -107 83 -152l68 27c-32 52 -69 110 -99 148z" />
</svg>
