<?xml version="1.0" standalone="no"?>
<!DOCTYPE svg PUBLIC "-//W3C//DTD SVG 1.1//EN" "http://www.w3.org/Graphics/SVG/1.1/DTD/svg11.dtd" >
<svg xmlns="http://www.w3.org/2000/svg" xmlns:xlink="http://www.w3.org/1999/xlink" version="1.1" viewBox="-10 0 1010 1000">
   <path fill="currentColor"
d="M459 618h69c-2 14 -5 29 -8 43c55 152 197 219 439 234c-14 15 -31 42 -38 62c-217 -21 -352 -82 -427 -213c-52 118 -163 181 -419 214c-5 -17 -19 -43 -31 -59c317 -33 389 -112 415 -281zM241 636l55 26c-31 53 -72 114 -125 153l-57 -32c54 -36 99 -98 127 -147z
M831 439h-141c-35 78 -98 136 -214 174c-7 -15 -23 -38 -36 -48c94 -28 149 -71 181 -126h-130v-53h154c7 -18 11 -38 15 -58h62c-4 20 -8 40 -13 58h191s-1 17 -2 26c-10 102 -20 147 -38 164c-14 13 -29 18 -52 20c-17 0 -51 1 -87 -2c-1 -15 -8 -37 -15 -51
c33 3 63 3 76 3c11 0 19 -1 25 -7c9 -10 17 -37 24 -100zM706 794l-56 -29c45 -35 106 -93 141 -134l62 32c-45 48 -101 97 -147 131zM812 157h-205c24 29 58 54 100 76c43 -23 78 -48 105 -76zM870 105l40 19c-31 52 -80 97 -143 135c59 22 127 37 197 45
c-14 13 -30 37 -38 52c-80 -12 -156 -34 -221 -65c-59 27 -129 49 -206 64c-6 -11 -19 -28 -31 -40c-15 43 -34 87 -52 118l-49 -19c12 -23 26 -57 38 -89h-67v214c0 32 -5 47 -28 57c-21 10 -55 10 -107 10c-2 -17 -10 -39 -19 -56c37 1 69 1 80 0c10 0 13 -3 13 -12v-157
c-54 70 -130 137 -202 177c-7 -16 -20 -41 -33 -54c76 -35 160 -107 210 -179h-195v-56h242c-42 -27 -96 -55 -142 -73l38 -38c26 10 56 24 84 38c28 -18 59 -42 83 -65h-270v-55h325l14 -4l42 32c-38 45 -91 89 -142 122c17 9 31 18 42 27l-13 16h70l11 -2l41 13l-12 30
c67 -13 126 -30 178 -51c-31 -19 -57 -42 -80 -67c-19 20 -41 37 -61 51c-11 -10 -35 -31 -49 -41c63 -37 120 -95 152 -159l59 16c-8 17 -17 33 -28 49h217z" />
</svg>
