<?xml version="1.0" standalone="no"?>
<!DOCTYPE svg PUBLIC "-//W3C//DTD SVG 1.1//EN" "http://www.w3.org/Graphics/SVG/1.1/DTD/svg11.dtd" >
<svg xmlns="http://www.w3.org/2000/svg" xmlns:xlink="http://www.w3.org/1999/xlink" version="1.1" viewBox="-10 0 1010 1000">
   <path fill="currentColor"
d="M341 222l60 23c-28 69 -60 151 -87 204l-44 -20c24 -55 55 -145 71 -207zM87 246l52 8c-3 81 -17 188 -42 257l-54 -22c24 -61 39 -163 44 -243zM260 49v338c0 76 -2 152 -13 225c35 39 115 142 135 167l-49 53c-20 -33 -64 -95 -101 -143c-22 97 -65 188 -139 268
c-10 -15 -32 -40 -48 -51c136 -147 151 -336 151 -519v-338h64zM923 523v364c0 33 -6 49 -28 59c-22 11 -57 12 -111 11c-2 -17 -11 -41 -19 -58c36 1 68 1 77 0c10 0 14 -3 14 -13v-300h-406v371h-66v-434h539zM726 792v-95h-147v95h147zM784 644v202h-261v-202h261z
M784 412v-91h-261v91h261zM457 266h396v201h-396v-201zM708 146h239v65h-570v-65h254c-10 -29 -25 -62 -39 -89l66 -19c19 33 39 75 50 108z" />
</svg>
