<?xml version="1.0" standalone="no"?>
<!DOCTYPE svg PUBLIC "-//W3C//DTD SVG 1.1//EN" "http://www.w3.org/Graphics/SVG/1.1/DTD/svg11.dtd" >
<svg xmlns="http://www.w3.org/2000/svg" xmlns:xlink="http://www.w3.org/1999/xlink" version="1.1" viewBox="-10 0 1010 1000">
   <path fill="currentColor"
d="M839 376h-167c-93 0 -117 -19 -117 -92v-238h71v114c80 -20 163 -47 216 -71l49 50c-74 30 -174 57 -265 78v66c0 27 8 32 52 32h154c34 0 41 -12 44 -89c16 11 44 20 64 24c-9 100 -30 126 -101 126zM845 726h-172c-94 0 -118 -20 -118 -95v-240h71v111
c81 -21 168 -50 220 -77l48 51c-72 33 -176 61 -268 83v72c0 27 8 32 53 32h159c36 0 43 -12 46 -91c16 12 44 22 64 26c-9 102 -30 128 -103 128zM125 958l-67 -30c44 -39 89 -106 113 -167l69 16c-26 64 -67 136 -115 181zM341 788l68 -5c13 51 22 119 22 159l-72 10
c0 -42 -7 -111 -18 -164zM186 538h205v-64h-205v64zM391 362h-205v64h205v-64zM460 308v343c0 36 -8 52 -35 62c-26 10 -71 10 -137 10c-2 -18 -12 -40 -20 -57c51 2 92 1 105 1c14 -1 18 -5 18 -17v-64h-205v144h-67v-422h341zM329 122l58 -29c52 50 112 121 139 169
l-63 31c-8 -14 -18 -31 -31 -49c-290 25 -327 31 -348 40c-3 -13 -14 -47 -22 -64c16 -2 32 -14 49 -32c20 -17 82 -85 121 -151l68 22c-39 53 -84 105 -128 146l218 -16c-20 -23 -40 -47 -61 -67zM549 790l69 -13c22 49 47 117 56 157l-72 17c-9 -42 -31 -109 -53 -161z
M751 788l68 -26c48 51 102 121 127 168l-72 28c-22 -46 -75 -118 -123 -170z" />
</svg>
