<?xml version="1.0" standalone="no"?>
<!DOCTYPE svg PUBLIC "-//W3C//DTD SVG 1.1//EN" "http://www.w3.org/Graphics/SVG/1.1/DTD/svg11.dtd" >
<svg xmlns="http://www.w3.org/2000/svg" xmlns:xlink="http://www.w3.org/1999/xlink" version="1.1" viewBox="-10 0 1010 1000">
   <path fill="currentColor"
d="M644 502l-48 -17c20 -32 46 -81 60 -113l61 18c-24 41 -51 83 -73 112zM278 392l53 -17c24 31 50 74 61 102l-55 20c-10 -28 -36 -72 -59 -105zM213 508h248v-153h-248v153zM786 355h-253v153h253v-153zM938 724v54h-876v-54h399v-61h-322v-51h322v-56h-314v-248h314v-57
h-398v-53h398v-58c-105 6 -213 10 -312 11c-1 -15 -8 -39 -15 -52c230 -4 513 -19 661 -47l53 48c-86 16 -197 27 -315 36v62h407v53h-407v57h323v248h-323v56h329v51h-329v61h405zM127 972l-61 -37c43 -32 85 -86 110 -137l65 16c-25 56 -67 120 -114 158zM339 832l53 -25
c27 40 60 92 74 125l-55 27c-14 -33 -45 -87 -72 -127zM545 824l55 -24c35 37 78 89 97 122l-59 28c-18 -33 -60 -87 -93 -126zM747 822l57 -35c52 37 114 93 143 131l-61 39c-28 -38 -88 -96 -139 -135z" />
</svg>
