<?xml version="1.0" standalone="no"?>
<!DOCTYPE svg PUBLIC "-//W3C//DTD SVG 1.1//EN" "http://www.w3.org/Graphics/SVG/1.1/DTD/svg11.dtd" >
<svg xmlns="http://www.w3.org/2000/svg" xmlns:xlink="http://www.w3.org/1999/xlink" version="1.1" viewBox="-10 0 1010 1000">
   <path fill="currentColor"
d="M318 212l61 24c-22 67 -50 151 -72 203l-46 -20c20 -56 46 -146 57 -207zM88 248l52 7c-1 92 -15 197 -56 259l-49 -25c36 -54 52 -152 53 -241zM350 776l-48 49c-17 -32 -54 -91 -85 -138c-21 97 -60 189 -133 271c-10 -16 -33 -38 -48 -49c127 -145 141 -331 141 -513
v-336h65v337c0 71 -2 142 -11 211c30 38 101 141 119 168zM341 933l-54 -33c51 -42 79 -116 92 -189l58 16c-16 80 -40 159 -96 206zM482 731l54 -11c18 53 30 123 30 168l-58 12c0 -46 -10 -115 -26 -169zM594 722l49 -15c26 44 50 101 59 139l-53 17
c-8 -39 -31 -97 -55 -141zM790 204h-293v123h293v-123zM956 525h-459v75h443s-1 20 -2 30c-11 197 -24 273 -48 300c-16 17 -33 24 -59 26c-24 2 -68 1 -115 -1c-2 -19 -8 -45 -18 -63c45 5 86 6 101 6c16 0 25 -2 33 -10c15 -17 26 -76 35 -225h-440v-521h144
c14 -32 28 -72 35 -100l82 14c-15 30 -28 61 -43 86h216v247h-364v73h459v63zM705 708l46 -20c30 35 62 82 76 114l-49 22c-13 -32 -44 -82 -73 -116z" />
</svg>
