<?xml version="1.0" standalone="no"?>
<!DOCTYPE svg PUBLIC "-//W3C//DTD SVG 1.1//EN" "http://www.w3.org/Graphics/SVG/1.1/DTD/svg11.dtd" >
<svg xmlns="http://www.w3.org/2000/svg" xmlns:xlink="http://www.w3.org/1999/xlink" version="1.1" viewBox="-10 0 1010 1000">
   <path fill="currentColor"
d="M952 226v61h-534v-61h226v-88h-181v-59h446v59h-194v88h237zM532 647v71h310v-71h-310zM532 523v72h310v-72h-310zM532 402v69h310v-69h-310zM913 772h-448v-425h448v425zM353 205l64 25c-31 69 -66 153 -95 206l-47 -22c26 -56 61 -147 78 -209zM99 246l54 7
c-2 93 -21 197 -64 258l-52 -25c40 -54 58 -151 62 -240zM410 788l-52 53c-22 -36 -75 -103 -116 -154c-25 98 -71 190 -155 269c-10 -15 -34 -41 -50 -52c150 -144 167 -333 167 -515v-334h68v334c0 75 -3 150 -14 223c38 41 128 148 152 176zM576 781l61 35
c-59 57 -155 109 -245 142c-10 -15 -30 -37 -45 -51c89 -29 179 -79 229 -126zM735 818l51 -37c67 42 141 97 183 140l-65 36c-37 -41 -106 -97 -169 -139z" />
</svg>
