<?xml version="1.0" standalone="no"?>
<!DOCTYPE svg PUBLIC "-//W3C//DTD SVG 1.1//EN" "http://www.w3.org/Graphics/SVG/1.1/DTD/svg11.dtd" >
<svg xmlns="http://www.w3.org/2000/svg" xmlns:xlink="http://www.w3.org/1999/xlink" version="1.1" viewBox="-10 0 1010 1000">
   <path fill="currentColor"
d="M716 217v-66h-91v66h91zM870 274h-98v120h98v-120zM625 274v120h91v-120h-91zM480 274v120h90v-120h-90zM570 217v-66h-175v-61h557v61h-180v66h163v234h-517v-234h152zM889 562h-428v-58h428v58zM344 224l63 26c-31 64 -69 142 -98 191l-46 -23c27 -51 64 -135 81 -194z
M93 247l54 7c-3 89 -17 194 -56 256l-52 -23c35 -55 51 -154 54 -240zM389 789l-51 51c-21 -36 -67 -105 -105 -157c-24 98 -68 191 -148 271c-9 -15 -33 -39 -48 -50c142 -144 157 -332 157 -514v-335h66v335c0 72 -2 145 -12 215c35 41 121 155 141 184zM500 727l67 19
c-38 67 -94 137 -147 182c-13 -12 -42 -32 -58 -40c54 -41 106 -101 138 -161zM958 693h-251v192c0 34 -6 51 -31 61c-24 10 -61 10 -118 10c-2 -17 -12 -43 -20 -60h85c11 0 14 -3 14 -13v-190h-240v-61h561v61zM770 754l54 -30c53 50 110 118 138 164l-58 35
c-26 -47 -83 -118 -134 -169z" />
</svg>
