<?xml version="1.0" standalone="no"?>
<!DOCTYPE svg PUBLIC "-//W3C//DTD SVG 1.1//EN" "http://www.w3.org/Graphics/SVG/1.1/DTD/svg11.dtd" >
<svg xmlns="http://www.w3.org/2000/svg" xmlns:xlink="http://www.w3.org/1999/xlink" version="1.1" viewBox="-10 0 1010 1000">
   <path fill="currentColor"
d="M320 218l57 24c-26 68 -59 151 -85 204l-42 -22c24 -54 55 -144 70 -206zM92 246l50 8c-2 81 -16 188 -41 257l-51 -22c23 -62 38 -163 42 -243zM345 777l-48 51c-16 -31 -51 -88 -82 -134c-21 95 -58 185 -125 265c-10 -17 -32 -41 -47 -52c121 -147 134 -336 134 -518
v-340h64v340c0 75 -2 151 -12 225c31 39 98 138 116 163zM554 204h-101v102h101v-102zM716 306v-102h-103v102h103zM869 365h-94v112h94v-112zM613 365v112h103v-112h-103zM453 455v22h101v-112h-101v90zM931 536h-479c-4 137 -22 304 -82 420c-11 -11 -40 -28 -56 -34
c69 -136 75 -327 75 -466v-316h253c-8 -26 -20 -56 -32 -80l63 -19c16 30 32 70 42 99h236v64h-176v102h156v230zM557 862l131 -30c0 18 1 43 4 58c-159 41 -185 51 -200 62c-5 -17 -18 -49 -27 -66c13 -6 31 -19 31 -55v-269h61v93h127v59h-127v148zM803 889h80
c22 0 25 -13 28 -101c14 11 37 21 54 26c-5 105 -22 133 -76 133h-94c-65 0 -81 -18 -81 -85v-300h61v124c46 -24 98 -56 132 -82l35 47c-47 37 -114 73 -167 97v113c0 24 4 28 28 28z" />
</svg>
