<?xml version="1.0" standalone="no"?>
<!DOCTYPE svg PUBLIC "-//W3C//DTD SVG 1.1//EN" "http://www.w3.org/Graphics/SVG/1.1/DTD/svg11.dtd" >
<svg xmlns="http://www.w3.org/2000/svg" xmlns:xlink="http://www.w3.org/1999/xlink" version="1.1" viewBox="-10 0 1010 1000">
   <path fill="currentColor"
d="M412 422v94h81v-94h-81zM493 142h-81v95h81v-95zM566 369v-81h-154v81h154zM638 516v59h-289v-492h279v59h-77v95h76v185h-76v94h87zM289 224l54 19c-22 67 -48 151 -69 203l-40 -15c19 -55 44 -146 55 -207zM88 246l48 7c-3 82 -19 191 -48 260l-48 -25
c27 -60 43 -162 48 -242zM332 807l-45 48c-16 -34 -52 -100 -82 -151c-20 91 -56 176 -118 252c-10 -15 -31 -37 -46 -48c115 -144 128 -325 128 -505v-348h61v347c0 76 -2 151 -12 224c28 37 98 153 114 181zM661 740v128h287v63h-630v-63h273v-128h-213v-63h213v-83h70v83
h222v63h-222zM866 163h-136c17 69 43 135 73 194c28 -57 49 -121 63 -194zM897 99l37 8c-16 126 -49 230 -94 312c35 51 74 93 119 122c-15 11 -35 37 -45 55c-41 -30 -78 -70 -110 -118c-32 46 -70 83 -112 112c-8 -16 -24 -41 -38 -52c42 -27 81 -67 115 -119
c-40 -76 -71 -163 -93 -256h-23v-62h232z" />
</svg>
