<?xml version="1.0" standalone="no"?>
<!DOCTYPE svg PUBLIC "-//W3C//DTD SVG 1.1//EN" "http://www.w3.org/Graphics/SVG/1.1/DTD/svg11.dtd" >
<svg xmlns="http://www.w3.org/2000/svg" xmlns:xlink="http://www.w3.org/1999/xlink" version="1.1" viewBox="-10 0 1010 1000">
   <path fill="currentColor"
d="M90 246l49 8c-2 81 -16 188 -41 258l-50 -23c23 -61 38 -163 42 -243zM360 800l-46 54c-18 -37 -60 -103 -95 -156c-20 95 -58 185 -124 265c-11 -18 -34 -45 -49 -56c120 -146 133 -336 133 -517v-341h66v341c0 76 -2 153 -12 227c35 47 109 155 127 183zM287 446
l-41 -21c25 -55 55 -145 71 -207l56 24c-28 68 -59 151 -86 204zM765 698h-202c-15 25 -31 51 -45 74c52 11 108 25 163 42c42 -31 68 -69 84 -116zM463 467v62h156v-62h-156zM846 467h-160v62h160v-62zM484 317h135v-58h-135v58zM619 157h-135v54h135v-54zM827 157h-141v54
h141v-54zM686 317h141v-58h-141v58zM958 698h-126c-16 55 -41 100 -81 136c69 23 132 46 179 68l-43 54c-49 -25 -120 -52 -200 -78c-71 39 -173 64 -319 80c-4 -16 -18 -42 -28 -56c115 -11 200 -27 263 -49c-63 -18 -125 -34 -183 -46c21 -31 46 -69 71 -109h-131v-59h167
c12 -21 24 -40 35 -60h-164v-162h221v-50h-198v-103h-49v-58h49v-99h198v-64h67v64h206v99h54v58h-54v103h-206v50h227v162h-279c-11 19 -23 39 -36 60h360v59z" />
</svg>
