<?xml version="1.0" standalone="no"?>
<!DOCTYPE svg PUBLIC "-//W3C//DTD SVG 1.1//EN" "http://www.w3.org/Graphics/SVG/1.1/DTD/svg11.dtd" >
<svg xmlns="http://www.w3.org/2000/svg" xmlns:xlink="http://www.w3.org/1999/xlink" version="1.1" viewBox="-10 0 1010 1000">
   <path fill="currentColor"
d="M863 446v-88h-107v88h107zM756 590h107v-89h-107v89zM595 590h103v-89h-103v89zM698 358h-103v88h103v-88zM599 200l42 -37c26 14 53 32 80 49c33 -21 67 -50 96 -77h-294v-58h349l13 -3l42 31c-42 51 -104 103 -160 141c17 14 32 28 43 40l-14 14h130v456
c0 30 -5 45 -24 55s-46 10 -87 10c-2 -16 -8 -39 -16 -55c25 1 46 1 53 0c8 0 11 -3 11 -11v-107h-107v164h-58v-164h-103v169h-62v-517h205c-38 -34 -92 -72 -139 -100zM491 269l-56 33c-22 -48 -71 -123 -116 -179l54 -28c45 54 97 126 118 174zM290 206l57 21
c-24 70 -50 159 -72 213l-42 -19c20 -58 45 -153 57 -215zM89 251l50 8c-4 86 -20 194 -54 260l-48 -27c31 -58 48 -157 52 -241zM333 771l-46 49c-16 -30 -52 -86 -82 -131c-20 96 -57 187 -123 268c-10 -15 -34 -37 -48 -48c118 -147 132 -333 132 -513v-339h63v339
c0 72 -2 145 -11 216c26 32 99 135 115 159zM468 424v347c20 11 39 30 70 52c52 36 110 48 192 48c64 0 163 -5 230 -13c-8 19 -17 52 -18 72c-47 3 -152 7 -213 7c-89 0 -150 -16 -205 -56c-35 -26 -65 -57 -86 -57c-26 0 -67 60 -104 125l-47 -63c40 -53 80 -95 116 -113
v-285h-104v-64h169z" />
</svg>
