<?xml version="1.0" standalone="no"?>
<!DOCTYPE svg PUBLIC "-//W3C//DTD SVG 1.1//EN" "http://www.w3.org/Graphics/SVG/1.1/DTD/svg11.dtd" >
<svg xmlns="http://www.w3.org/2000/svg" xmlns:xlink="http://www.w3.org/1999/xlink" version="1.1" viewBox="-10 0 1010 1000">
   <path fill="currentColor"
d="M611 308h8c-13 -11 -34 -27 -46 -35c82 -47 140 -123 163 -222l67 10c-8 34 -20 65 -35 95c56 34 121 81 154 115l-47 42c-29 -30 -84 -73 -136 -108c-29 41 -63 76 -103 103h45v69h200v57h-200v98c22 1 45 2 69 2h190c-10 15 -20 45 -23 63h-172
c-136 0 -232 -20 -297 -97c-25 45 -59 82 -100 112c-11 -12 -39 -34 -56 -44c83 -51 127 -131 140 -240l69 6c-5 38 -14 73 -25 105c30 48 76 72 135 84v-215zM740 784l-63 -24c34 -36 79 -90 104 -130l71 27c-36 47 -78 95 -112 127zM201 803l-60 -36
c45 -33 86 -91 110 -136l61 28c-28 49 -64 107 -111 144zM610 227l-41 43c-18 -18 -49 -44 -80 -66c-29 52 -68 96 -114 129c-11 -12 -39 -33 -54 -43c80 -51 132 -133 154 -237l66 8c-7 34 -15 64 -27 93c35 22 74 52 96 73zM244 50l67 25c-55 64 -140 131 -212 174
c-11 -14 -32 -38 -45 -49c68 -39 149 -98 190 -150zM173 612v-217c-27 21 -56 40 -83 56c-10 -15 -31 -40 -43 -52c78 -44 166 -114 208 -179l68 24c-21 30 -48 60 -78 90v278h-72zM489 588l72 11c-6 25 -13 50 -22 72c68 128 212 196 419 216c-15 16 -33 45 -42 66
c-192 -26 -329 -93 -409 -215c-79 126 -223 188 -422 218c-7 -18 -25 -48 -36 -63c244 -32 400 -111 440 -305z" />
</svg>
