<?xml version="1.0" standalone="no"?>
<!DOCTYPE svg PUBLIC "-//W3C//DTD SVG 1.1//EN" "http://www.w3.org/Graphics/SVG/1.1/DTD/svg11.dtd" >
<svg xmlns="http://www.w3.org/2000/svg" xmlns:xlink="http://www.w3.org/1999/xlink" version="1.1" viewBox="-10 0 1010 1000">
   <path fill="currentColor"
d="M296 224l56 19c-23 67 -49 151 -70 203l-42 -16c19 -54 45 -145 56 -206zM89 246l49 7c-4 82 -20 191 -49 260l-49 -26c28 -60 44 -160 49 -241zM340 808l-46 48c-17 -34 -54 -102 -85 -153c-20 91 -58 177 -124 253c-10 -15 -32 -37 -46 -47c122 -144 135 -326 135 -507
v-347h62v347c0 75 -2 150 -12 223c27 38 100 155 116 183zM534 776l65 39c-57 54 -149 110 -227 143c-11 -15 -32 -37 -46 -51c75 -31 165 -86 208 -131zM698 817l49 -41c71 43 149 97 196 138l-60 43c-43 -41 -119 -97 -185 -140zM564 199v100h164v-100h-164zM826 482h-143
v85h143v-85zM826 704v-86h-143v86h143zM469 618v86h141v-86h-141zM469 482v85h141v-85h-141zM798 299h151v59h-266v69h215v332h-499v-332h211v-69h-259v-59h142v-100h-119v-57h119v-98h71v98h164v-98h70v98h135v57h-135v100z" />
</svg>
