<?xml version="1.0" standalone="no"?>
<!DOCTYPE svg PUBLIC "-//W3C//DTD SVG 1.1//EN" "http://www.w3.org/Graphics/SVG/1.1/DTD/svg11.dtd" >
<svg xmlns="http://www.w3.org/2000/svg" xmlns:xlink="http://www.w3.org/1999/xlink" version="1.1" viewBox="-10 0 1010 1000">
   <path fill="currentColor"
d="M870 114l64 24c-28 53 -61 109 -86 146l-52 -21c25 -40 57 -105 74 -149zM549 118l59 12c-10 58 -36 130 -71 171l-55 -30c33 -35 57 -97 67 -153zM292 524v-63h163v482h-64v-42h-254v59h-67v-472h1l-1 -1c53 -25 113 -61 149 -91l45 53c-38 24 -83 48 -127 68v133h106
v62h-106v125h254v-124h-105v-62h105v-127h-99zM402 160l11 -3l42 31c-29 77 -79 170 -121 229c-12 -10 -33 -26 -48 -34c30 -41 61 -102 84 -156h-171c-33 70 -70 135 -108 185c-11 -12 -38 -33 -52 -43c67 -79 125 -201 160 -325l60 19c-10 32 -20 66 -33 97h176zM938 438
l-49 47c-38 -46 -114 -112 -184 -164c-34 77 -91 133 -193 172c-7 -16 -26 -41 -40 -54c179 -63 202 -181 210 -395h68c-4 85 -10 156 -25 216c78 53 168 127 213 178zM851 720l-53 -25c26 -44 63 -115 80 -165l65 28c-29 55 -64 120 -92 162zM540 731l-55 -33
c36 -37 62 -104 74 -165l59 11c-12 66 -38 142 -78 187zM686 453h68c-2 54 -5 105 -11 151c32 135 100 245 216 289c-16 14 -35 42 -45 60c-93 -43 -155 -122 -195 -226c-31 102 -88 178 -197 230c-8 -16 -28 -39 -44 -51c177 -80 200 -230 208 -453z" />
</svg>
