<?xml version="1.0" standalone="no"?>
<!DOCTYPE svg PUBLIC "-//W3C//DTD SVG 1.1//EN" "http://www.w3.org/Graphics/SVG/1.1/DTD/svg11.dtd" >
<svg xmlns="http://www.w3.org/2000/svg" xmlns:xlink="http://www.w3.org/1999/xlink" version="1.1" viewBox="-10 0 1010 1000">
   <path fill="currentColor"
d="M874 112l63 25c-31 50 -70 106 -101 144l-53 -23c31 -39 69 -102 91 -146zM957 450l-49 50c-41 -45 -121 -114 -192 -171c-32 80 -86 138 -183 179c-8 -16 -27 -40 -41 -52c171 -68 192 -192 198 -413h66c-2 86 -8 159 -22 221c76 58 174 136 223 186zM853 710l-58 -22
c31 -41 70 -107 90 -153l67 24c-31 54 -69 111 -99 151zM547 721l-54 -30c31 -38 57 -100 71 -149l54 22c-16 51 -40 116 -71 157zM574 125l54 19c-16 55 -42 121 -77 163l-53 -30c34 -37 63 -102 76 -152zM492 312v67h-440v-67h189v-93h-158v-64h158v-104h68v104h157v64
h-157v93h183zM318 425l44 -33c44 41 100 98 126 135l-46 38c-25 -37 -80 -97 -124 -140zM200 390l54 38c-46 53 -108 110 -156 147l-47 -35c47 -39 112 -103 149 -150zM465 763l4 67c-145 30 -298 62 -405 84l-7 -72c51 -8 114 -20 184 -34v-125h-153v-64h153v-107h69v107
h154v64h-154v112c51 -10 103 -21 155 -32zM681 464h72c-2 57 -5 109 -11 156c32 138 99 237 233 274c-14 14 -34 44 -43 62c-108 -37 -175 -110 -215 -211c-35 100 -100 168 -229 214c-8 -17 -27 -44 -42 -57c207 -68 228 -196 235 -438z" />
</svg>
