<?xml version="1.0" standalone="no"?>
<!DOCTYPE svg PUBLIC "-//W3C//DTD SVG 1.1//EN" "http://www.w3.org/Graphics/SVG/1.1/DTD/svg11.dtd" >
<svg xmlns="http://www.w3.org/2000/svg" xmlns:xlink="http://www.w3.org/1999/xlink" version="1.1" viewBox="-10 0 1010 1000">
   <path fill="currentColor"
d="M879 83v267h-490v-50h424v-59h-391v-49h391v-59h-420v-50h486zM711 429v99h124v-99h-124zM658 573v-189h232v189h-232zM369 615l-13 -55c30 -4 68 -9 107 -16v-100h-106v-54h266v54h-102v90c35 -6 73 -13 110 -20l3 51c-95 18 -190 36 -265 50zM300 224l57 19
c-24 67 -49 151 -71 203l-41 -16c20 -54 44 -145 55 -206zM90 246l50 7c-4 82 -20 191 -49 259l-49 -25c28 -60 44 -161 48 -241zM237 55v347c0 75 -2 149 -12 221c29 39 105 154 124 182l-47 48c-18 -34 -58 -102 -91 -153c-20 92 -57 179 -124 256
c-10 -15 -32 -37 -46 -47c120 -144 134 -327 134 -507v-347h62zM442 756l51 -29c40 34 81 83 99 117l-52 32c-18 -34 -59 -84 -98 -120zM949 658v61h-155v154c0 37 -7 55 -32 66c-27 11 -69 12 -132 12c-3 -19 -11 -46 -20 -65c49 2 90 2 103 1c12 -1 16 -4 16 -15v-153
h-396v-61h396v-71h65v71h155z" />
</svg>
