<?xml version="1.0" standalone="no"?>
<!DOCTYPE svg PUBLIC "-//W3C//DTD SVG 1.1//EN" "http://www.w3.org/Graphics/SVG/1.1/DTD/svg11.dtd" >
<svg xmlns="http://www.w3.org/2000/svg" xmlns:xlink="http://www.w3.org/1999/xlink" version="1.1" viewBox="-10 0 1010 1000">
   <path fill="currentColor"
d="M711 138h-117v78h117v-78zM844 335v-70h-250v70h250zM711 463v-78h-117v78h117zM525 522v-443h407v59h-159v78h140v169h-140v78h166v59h-414zM735 771l-61 -25c39 -44 90 -115 117 -165l71 26c-39 58 -88 122 -127 164zM294 463h116v-78h-116v78zM161 265v69h249v-69
h-249zM294 138v77h116v-77h-116zM66 522v-59h166v-78h-140v-170h140v-77h-160v-59h407v443h-413zM167 785l-57 -40c55 -41 103 -108 130 -164l59 28c-32 59 -76 130 -132 176zM459 554h77c-3 22 -7 42 -11 63c56 161 189 243 422 266c-15 15 -33 45 -42 64
c-207 -27 -335 -100 -407 -237c-53 127 -162 208 -416 250c-6 -19 -22 -47 -35 -63c325 -47 387 -157 412 -343z" />
</svg>
