<?xml version="1.0" standalone="no"?>
<!DOCTYPE svg PUBLIC "-//W3C//DTD SVG 1.1//EN" "http://www.w3.org/Graphics/SVG/1.1/DTD/svg11.dtd" >
<svg xmlns="http://www.w3.org/2000/svg" xmlns:xlink="http://www.w3.org/1999/xlink" version="1.1" viewBox="-10 0 1010 1000">
   <path fill="currentColor"
d="M90 250l51 8c-1 96 -14 201 -58 263l-46 -30c39 -53 52 -149 53 -241zM235 55v339c0 73 -2 146 -11 217c28 38 100 146 117 173l-49 53c-16 -34 -52 -95 -82 -143c-21 94 -59 183 -126 261c-9 -14 -32 -37 -47 -48c122 -147 135 -333 135 -513v-339h63zM279 437l-44 -18
c24 -57 50 -152 65 -215l61 19c-27 71 -56 160 -82 214zM549 138h-117v83h117v-83zM432 358h117v-83h-117v83zM610 415h-178v541h-64v-876h242v335zM483 809l-46 -26c32 -47 47 -128 54 -197l48 12c-8 73 -22 159 -56 211zM729 558l-43 38c-25 -35 -80 -81 -128 -113l40 -32
c48 29 104 74 131 107zM849 779l-49 21c-9 -51 -39 -137 -72 -200l46 -18c34 63 65 146 75 197zM637 804h53c19 0 23 -11 25 -105c10 8 32 17 49 21c-5 110 -20 136 -67 136h-67c-55 0 -67 -15 -67 -74v-230h54v230c0 19 3 22 20 22zM735 358h122v-83h-122v83zM857 138h-122
v83h122v-83zM922 80v799c0 37 -8 56 -32 66c-23 11 -60 12 -120 12c-3 -16 -13 -45 -23 -61c42 1 81 1 93 0c12 0 17 -4 17 -17v-464h-183v-335h248z" />
</svg>
