<?xml version="1.0" standalone="no"?>
<!DOCTYPE svg PUBLIC "-//W3C//DTD SVG 1.1//EN" "http://www.w3.org/Graphics/SVG/1.1/DTD/svg11.dtd" >
<svg xmlns="http://www.w3.org/2000/svg" xmlns:xlink="http://www.w3.org/1999/xlink" version="1.1" viewBox="-10 0 1010 1000">
   <path fill="currentColor"
d="M116 960l-70 -27c45 -43 97 -116 130 -180l70 18c-34 65 -84 140 -130 189zM344 775l69 -7c13 56 24 129 25 171l-73 11c0 -44 -9 -119 -21 -175zM550 773l68 -13c28 56 55 128 65 173l-73 15c-9 -44 -35 -119 -60 -175zM202 512v99h121v-99h-121zM323 307v-93h-121v93
h121zM323 457v-95h-121v95h121zM757 221v117c0 58 23 248 195 340c-12 17 -31 44 -41 62c-129 -73 -177 -215 -188 -278c-10 63 -64 201 -209 278c-9 -16 -27 -43 -39 -57l15 -8h-288v64h-64v-437c-18 27 -36 52 -55 74c-9 -14 -32 -41 -46 -53c62 -69 119 -172 154 -272
l63 19c-11 29 -23 59 -36 87h125c-13 -27 -35 -60 -54 -85l57 -20c26 30 53 71 66 99l-15 6h122v57h-133v93h108v26c61 -71 104 -176 127 -289l65 14c-7 31 -16 63 -26 93h230l12 -3l46 13c-18 74 -45 158 -71 210l-56 -18c17 -35 33 -87 46 -137h-230
c-27 66 -59 124 -96 170c-9 -11 -31 -31 -47 -43v19h-108v95h107v55h-107v99h124v52c161 -103 179 -270 179 -325v-117h68zM755 772l67 -26c48 55 107 134 134 184l-71 31c-25 -50 -82 -131 -130 -189z" />
</svg>
