<?xml version="1.0" standalone="no"?>
<!DOCTYPE svg PUBLIC "-//W3C//DTD SVG 1.1//EN" "http://www.w3.org/Graphics/SVG/1.1/DTD/svg11.dtd" >
<svg xmlns="http://www.w3.org/2000/svg" xmlns:xlink="http://www.w3.org/1999/xlink" version="1.1" viewBox="-10 0 1010 1000">
   <path fill="currentColor"
d="M959 689l-47 38c-19 -40 -58 -96 -99 -149c15 103 2 199 -27 235c-22 28 -47 37 -80 38c-15 0 -35 -1 -57 -2c-1 -18 -6 -44 -15 -61c23 3 44 3 58 3c18 0 31 -2 42 -21c18 -21 28 -88 21 -164c-64 67 -150 130 -227 163c-9 -14 -28 -36 -41 -48
c92 -36 198 -110 256 -186c-5 -20 -11 -41 -17 -61c-52 50 -124 101 -182 130c-9 -15 -28 -36 -41 -45c67 -29 151 -85 200 -137c-11 -20 -23 -39 -38 -56c-41 34 -85 64 -128 87c-9 -12 -31 -38 -45 -48c69 -34 140 -80 190 -135h-172v-61h128c-13 -40 -46 -100 -75 -143
l54 -23c32 44 65 105 80 144l-46 22h111c28 -48 60 -117 78 -165l63 20c-23 48 -52 102 -77 145h128v61h-197c-15 20 -33 41 -53 59c30 31 54 69 72 110c36 -39 77 -89 103 -126l52 36c-39 44 -87 96 -127 132c61 68 126 152 155 208zM472 276l-58 24
c-12 -48 -44 -121 -72 -175l54 -20c31 54 62 125 76 171zM297 224l57 19c-23 67 -50 151 -71 203l-41 -16c19 -54 44 -145 55 -206zM88 246l50 7c-4 82 -21 191 -50 260l-48 -26c27 -60 44 -161 48 -241zM340 792l-47 48c-15 -32 -50 -94 -80 -144c-21 94 -59 182 -127 261
c-10 -16 -32 -37 -47 -48c122 -144 135 -327 135 -507v-347h64v347c0 71 -2 143 -11 213c29 40 98 150 113 177zM465 385v402c20 9 39 27 70 47c49 32 107 42 188 42c65 0 169 -5 238 -13c-7 18 -17 52 -18 71c-53 4 -160 7 -222 7c-85 0 -147 -14 -199 -48
c-34 -24 -62 -51 -81 -51c-25 0 -62 54 -97 110l-46 -61c36 -43 71 -80 104 -97v-348h-78v-61h141z" />
</svg>
