<?xml version="1.0" standalone="no"?>
<!DOCTYPE svg PUBLIC "-//W3C//DTD SVG 1.1//EN" "http://www.w3.org/Graphics/SVG/1.1/DTD/svg11.dtd" >
<svg xmlns="http://www.w3.org/2000/svg" xmlns:xlink="http://www.w3.org/1999/xlink" version="1.1" viewBox="-10 0 1010 1000">
   <path fill="currentColor"
d="M326 494v-372c30 -15 76 -44 100 -62l41 50c-27 17 -57 31 -84 43v117h65v60h-65v104h170v-104h-75v-60h75v-99h-67v-61h125v266c52 -53 59 -122 59 -179v-115h204v225c0 27 0 36 11 36h36c10 0 26 -1 36 -4c1 18 3 40 5 56c-10 5 -26 5 -40 5h-46c-53 0 -64 -28 -64 -94
v-158h-81v51c0 74 -13 168 -80 231c-8 -12 -28 -34 -40 -44v108h-285zM272 225l54 19c-22 66 -47 151 -68 202l-39 -15c19 -54 43 -145 53 -206zM87 246l47 7c-4 82 -20 191 -48 259l-46 -25c28 -59 44 -160 47 -241zM316 768l-42 48c-16 -27 -49 -80 -78 -121
c-18 94 -52 182 -111 261c-10 -15 -31 -38 -45 -48c107 -144 119 -326 119 -504v-349h59v349c0 75 -2 149 -11 220c28 33 92 122 109 144zM621 753l4 59c-116 33 -236 66 -326 91l-12 -73c40 -9 92 -20 149 -33v-158h-124v-64h309v64h-122v143zM893 461l41 19
c-24 104 -65 193 -117 267c42 57 95 101 157 128c-15 15 -34 41 -44 62c-60 -32 -113 -78 -156 -136c-50 58 -109 105 -170 138c-8 -17 -27 -44 -41 -58c61 -30 121 -78 172 -139c-33 -58 -59 -125 -78 -198l58 -14c14 57 36 110 62 157c32 -47 58 -100 78 -157h-228v-66
h254z" />
</svg>
