<?xml version="1.0" standalone="no"?>
<!DOCTYPE svg PUBLIC "-//W3C//DTD SVG 1.1//EN" "http://www.w3.org/Graphics/SVG/1.1/DTD/svg11.dtd" >
<svg xmlns="http://www.w3.org/2000/svg" xmlns:xlink="http://www.w3.org/1999/xlink" version="1.1" viewBox="-10 0 1010 1000">
   <path fill="currentColor"
d="M903 149l58 20c-26 54 -57 117 -81 158l-45 -18c23 -43 54 -113 68 -160zM559 536v-70h-136v70h136zM620 421v147c123 -88 137 -209 137 -324v-200h63v201c0 45 -2 91 -10 135c55 55 122 129 153 177l-51 47c-25 -43 -73 -102 -121 -154c-22 62 -61 118 -128 166
c-8 -14 -28 -35 -43 -46v11h-256v-160h256zM368 376v-46h251v46h-251zM619 240v45h-251v-45h251zM678 341l-44 -25c22 -39 41 -105 50 -155l45 14c-10 54 -27 123 -51 166zM652 192h-319c-18 47 -35 98 -51 132l-43 -18c15 -41 37 -108 46 -152l44 16v-24h140
c-11 -28 -26 -61 -42 -86l59 -17c19 31 41 73 53 103h113v46zM100 161l44 15c-10 53 -28 125 -51 169l-47 -24c24 -41 44 -110 54 -160zM343 520l-45 43c-21 -30 -59 -74 -97 -113c-20 61 -57 119 -117 169c-9 -14 -31 -36 -45 -46c115 -94 129 -216 129 -333v-196h61v196
c0 49 -2 98 -11 145c46 42 99 99 125 135zM716 692h-409c52 45 124 82 207 113c81 -30 150 -67 202 -113zM793 627l47 32c-53 74 -134 131 -229 175c104 28 220 45 339 54c-15 16 -33 46 -42 67c-141 -14 -276 -40 -395 -82c-132 46 -282 72 -428 86c-4 -20 -17 -49 -29 -66
c122 -9 248 -27 362 -58c-76 -36 -142 -79 -192 -131l24 -12h-108v-62h638z" />
</svg>
