<?xml version="1.0" standalone="no"?>
<!DOCTYPE svg PUBLIC "-//W3C//DTD SVG 1.1//EN" "http://www.w3.org/Graphics/SVG/1.1/DTD/svg11.dtd" >
<svg xmlns="http://www.w3.org/2000/svg" xmlns:xlink="http://www.w3.org/1999/xlink" version="1.1" viewBox="-10 0 1010 1000">
   <path fill="currentColor"
d="M843 225v-74h-86v74h86zM843 347v-75h-86v75h86zM477 272v75h92v-75h-92zM477 151v74h92v-74h-92zM704 272h-82v75h82v-75zM704 151h-82v74h82v-74zM903 102v294h-485v-294h151v-57h53v57h82v-57h53v57h146zM344 218l59 25c-27 67 -60 150 -87 203l-43 -22
c24 -54 56 -144 71 -206zM86 247l54 7c-2 80 -17 188 -43 258l-55 -23c23 -62 39 -163 44 -242zM371 782l-49 53c-18 -33 -57 -93 -90 -141c-23 95 -64 185 -138 264c-10 -16 -33 -41 -48 -51c136 -146 150 -336 150 -520v-338h65v338c0 77 -2 153 -13 228
c33 41 105 142 123 167zM855 712l40 33c-31 27 -69 52 -102 71c44 43 100 75 165 94c-13 11 -31 34 -39 51c-129 -44 -218 -137 -265 -264h-70v182l108 -27c2 16 6 38 10 50c-147 40 -171 49 -186 60c-4 -16 -15 -46 -26 -61c15 -7 36 -23 36 -60v-144h-60
c-7 89 -27 189 -79 263c-12 -10 -41 -26 -56 -32c66 -92 75 -218 75 -312v-175h524v54h-461v122v29h472v51h-228c13 29 28 57 48 82c33 -21 70 -48 94 -67zM886 595h-381v-49h381v49z" />
</svg>
