<?xml version="1.0" standalone="no"?>
<!DOCTYPE svg PUBLIC "-//W3C//DTD SVG 1.1//EN" "http://www.w3.org/Graphics/SVG/1.1/DTD/svg11.dtd" >
<svg xmlns="http://www.w3.org/2000/svg" xmlns:xlink="http://www.w3.org/1999/xlink" version="1.1" viewBox="-10 0 1010 1000">
   <path fill="currentColor"
d="M942 123v56h-606v-56h268c-9 -23 -20 -46 -30 -66l52 -25c14 27 32 64 43 91h273zM700 394v-49h-128v49h128zM753 306v128h-233v-128h233zM829 471v-202h-390v202h390zM891 221v299h-512v-299h512zM862 619h-459v-55h459v55zM293 225l57 19c-24 66 -49 150 -71 202
l-41 -16c19 -54 44 -144 55 -205zM89 253l49 7c-1 92 -16 199 -55 261l-46 -27c35 -55 50 -153 52 -241zM337 804l-47 49c-16 -35 -52 -100 -83 -150c-20 91 -58 176 -124 253c-10 -15 -32 -38 -46 -47c121 -145 135 -326 135 -507v-347h62v347c0 76 -2 150 -12 223
c27 36 99 152 115 179zM470 746l57 23c-46 61 -120 119 -184 155c-11 -14 -34 -37 -49 -48c67 -32 136 -78 176 -130zM938 726h-269v140c0 39 -7 55 -33 65c-27 10 -68 11 -128 10c-4 -20 -14 -44 -23 -63c49 2 90 2 103 1c12 -1 15 -5 15 -15v-138h-272v-59h607v59z
M724 787l42 -40c61 36 145 92 188 130l-44 46c-41 -37 -122 -97 -186 -136z" />
</svg>
