<?xml version="1.0" standalone="no"?>
<!DOCTYPE svg PUBLIC "-//W3C//DTD SVG 1.1//EN" "http://www.w3.org/Graphics/SVG/1.1/DTD/svg11.dtd" >
<svg xmlns="http://www.w3.org/2000/svg" xmlns:xlink="http://www.w3.org/1999/xlink" version="1.1" viewBox="-10 0 1010 1000">
   <path fill="currentColor"
d="M669 161v60h138v-60h-138zM669 332h138v-61h-138v61zM360 271v-48c-25 69 -51 151 -75 202l-43 -18c22 -57 48 -151 62 -216l60 21l-3 9h236v-60h-192v-51h192v-67h72v67h205v106h79v61h-79v106h-205v56h288v54h-630v-54h270v-56h-196v-51h196v-61h-237zM790 522l53 -26
c43 42 97 103 122 142l-55 30c-24 -40 -75 -102 -120 -146zM760 625l-56 23c-9 -35 -33 -87 -55 -125l54 -19c23 38 47 88 57 121zM599 636l-60 15c-1 -35 -11 -89 -23 -130l55 -13c14 41 25 95 28 128zM361 674l-48 -37c47 -31 81 -85 100 -135l53 21
c-21 55 -53 115 -105 151zM92 250l51 7c-2 95 -15 200 -58 262l-47 -29c38 -54 52 -151 54 -240zM342 773l-50 51c-15 -30 -49 -86 -78 -131c-21 95 -59 185 -127 264c-10 -14 -34 -38 -50 -49c125 -148 139 -336 139 -519v-342h64v342c0 74 -2 149 -11 221
c27 37 97 139 113 163zM443 722v154h93v-154h-93zM683 722h-94v154h94v-154zM831 722h-96v154h96v-154zM895 664v212h63v59h-679v-59h103v-212h513z" />
</svg>
