<?xml version="1.0" standalone="no"?>
<!DOCTYPE svg PUBLIC "-//W3C//DTD SVG 1.1//EN" "http://www.w3.org/Graphics/SVG/1.1/DTD/svg11.dtd" >
<svg xmlns="http://www.w3.org/2000/svg" xmlns:xlink="http://www.w3.org/1999/xlink" version="1.1" viewBox="-10 0 1010 1000">
   <path fill="currentColor"
d="M670 398l-18 -57c49 -19 122 -51 193 -82v-124h-189v-55h253v317h-64v-82c-63 30 -125 61 -175 83zM805 240l-40 38c-20 -27 -58 -63 -90 -85l37 -36c31 20 71 55 93 83zM553 262v-127h-194v-55h253v313h-59v-76c-66 34 -135 68 -189 94l-18 -57c52 -21 130 -57 207 -92z
M508 242l-40 38c-19 -27 -59 -64 -91 -87l37 -36c32 22 73 56 94 85zM294 225l55 19c-23 66 -48 150 -70 202l-41 -16c19 -53 45 -144 56 -205zM88 246l49 7c-4 82 -20 191 -49 260l-48 -26c27 -60 44 -160 48 -241zM235 55v347c0 75 -2 150 -12 223c28 39 99 154 115 183
l-46 48c-17 -34 -53 -101 -84 -152c-21 90 -59 176 -124 252c-10 -14 -31 -37 -45 -47c120 -145 134 -327 134 -507v-347h62zM483 788v72h170v-72h-170zM653 616v-69h-170v69h170zM653 736v-68h-170v68h170zM942 860v58h-459v38h-68v-334c-19 23 -38 46 -58 65
c-12 -12 -35 -34 -51 -45c69 -66 137 -169 170 -250l68 24c-11 23 -25 49 -39 73h148c-10 -23 -20 -49 -32 -69l62 -20c15 27 31 62 42 89h192v58h-198v69h168v52h-168v68h168v52h-168v72h223z" />
</svg>
