<?xml version="1.0" standalone="no"?>
<!DOCTYPE svg PUBLIC "-//W3C//DTD SVG 1.1//EN" "http://www.w3.org/Graphics/SVG/1.1/DTD/svg11.dtd" >
<svg xmlns="http://www.w3.org/2000/svg" xmlns:xlink="http://www.w3.org/1999/xlink" version="1.1" viewBox="-10 0 1010 1000">
   <path fill="currentColor"
d="M309 218l52 25c-24 68 -52 151 -76 203l-38 -21c21 -55 48 -145 62 -207zM81 246l47 9c-2 80 -15 187 -36 258l-48 -24c20 -60 33 -163 37 -243zM332 767l-42 54c-16 -32 -49 -87 -79 -131c-19 97 -56 190 -121 270c-9 -17 -30 -41 -43 -53c117 -146 130 -336 130 -519
v-339h58v338c0 76 -2 152 -11 227c30 36 92 128 108 153zM551 681v78h115v-78h-115zM551 562v74h115v-74h-115zM848 562h-123v74h123v-74zM848 759v-78h-123v78h123zM639 327v74h119v-74h-119zM909 807h-126c64 33 133 76 174 110l-52 43c-39 -35 -107 -80 -171 -116l37 -37
h-161l49 21c-50 50 -133 101 -201 131c-10 -14 -34 -41 -47 -54c64 -24 138 -60 182 -98h-101v-294h174v-56h-210c-3 154 -23 352 -114 491c-11 -13 -37 -30 -53 -37c96 -145 105 -349 105 -499v-277h263c-16 -26 -36 -55 -55 -76l57 -29c29 32 58 75 74 105h219v61h-496
v205h122v-74h-83v-54h83v-62h61v62h119v-61h60v61h97v54h-97v74h139v56h-232v56h184v294z" />
</svg>
