<?xml version="1.0" standalone="no"?>
<!DOCTYPE svg PUBLIC "-//W3C//DTD SVG 1.1//EN" "http://www.w3.org/Graphics/SVG/1.1/DTD/svg11.dtd" >
<svg xmlns="http://www.w3.org/2000/svg" xmlns:xlink="http://www.w3.org/1999/xlink" version="1.1" viewBox="-10 0 1010 1000">
   <path fill="currentColor"
d="M493 228v-52h-147v-62h147v-71h68v71h182v-70h68v70h136v62h-136v52h-68v-52h-182v52h-68zM313 218l53 25c-26 68 -55 151 -81 203l-38 -22c22 -55 51 -144 66 -206zM82 246l49 9c-3 79 -16 187 -38 257l-50 -23c21 -61 36 -164 39 -243zM336 770l-43 54
c-16 -32 -50 -88 -80 -133c-20 97 -58 188 -125 267c-9 -16 -30 -41 -43 -52c122 -147 135 -336 135 -519v-338h59v338c0 75 -2 152 -12 225c29 39 93 134 109 158zM360 959l-57 -31c37 -45 70 -120 89 -175l56 25c-21 57 -52 132 -88 181zM644 431v-64h-164v64h164z
M644 546v-63h-164v63h164zM644 664v-66h-164v66h164zM923 720h-443v25h-65v-307c-20 25 -39 48 -60 68c-8 -11 -30 -35 -45 -46c63 -56 118 -142 151 -228l63 13c-9 23 -19 45 -30 68h163c-12 -23 -25 -48 -37 -69l57 -21c17 28 37 63 50 90h193v54h-209v64h184v52h-184v63
h185v52h-185v66h212v56zM512 784l57 -11c12 54 25 122 30 168l-60 13c-4 -46 -15 -116 -27 -170zM661 784l55 -15c22 53 45 122 55 167l-58 17c-10 -46 -33 -116 -52 -169zM807 776l56 -22c34 54 74 125 93 171l-58 26c-18 -47 -58 -120 -91 -175z" />
</svg>
