<?xml version="1.0" standalone="no"?>
<!DOCTYPE svg PUBLIC "-//W3C//DTD SVG 1.1//EN" "http://www.w3.org/Graphics/SVG/1.1/DTD/svg11.dtd" >
<svg xmlns="http://www.w3.org/2000/svg" xmlns:xlink="http://www.w3.org/1999/xlink" version="1.1" viewBox="-10 0 1010 1000">
   <path fill="currentColor"
d="M601 252v-52h-241v-49h139c-13 -25 -36 -60 -58 -86l56 -24c24 28 51 66 63 91l-43 19h189c23 -33 49 -76 64 -108l68 21c-19 29 -41 61 -61 87h138v49h-246v52h231v48h-231v52h275v49h-607v-49h264v-52h-213v-48h213zM295 225l57 18c-24 67 -49 151 -70 203l-42 -16
c19 -54 45 -145 55 -205zM89 246l49 7c-4 82 -20 191 -49 260l-49 -26c28 -60 44 -161 49 -241zM236 55v347c0 75 -2 150 -12 223c27 38 99 154 116 183l-47 48c-16 -35 -53 -102 -84 -153c-20 91 -58 176 -124 253c-10 -15 -32 -37 -46 -47c122 -145 135 -326 135 -507
v-347h62zM764 444l35 -36c42 19 95 49 122 72l-37 41c-25 -23 -77 -56 -120 -77zM887 588l49 28c-29 70 -74 141 -128 201c23 51 49 79 76 79c19 0 26 -29 29 -102c14 12 33 24 49 29c-10 103 -31 132 -82 132c-45 0 -84 -34 -115 -94c-35 34 -73 63 -113 84
c-9 -16 -27 -33 -44 -45c-5 18 -11 28 -18 35c-13 12 -26 16 -47 18c-16 1 -51 1 -84 -2c-1 -14 -6 -34 -14 -47c34 4 65 4 77 4c13 0 18 -1 24 -6c9 -9 15 -28 21 -70h-195c12 -27 23 -60 32 -92h-64v-47h325v47h-206c-4 16 -9 31 -13 46h181s-1 16 -3 23
c-5 41 -9 69 -15 89c45 -23 90 -55 130 -95c-22 -63 -39 -143 -50 -234h-155c26 13 105 48 125 61l-29 41c-19 -15 -62 -40 -96 -60v74h-54v-86c-39 37 -89 72 -130 92c-9 -12 -26 -30 -38 -40c44 -16 97 -50 136 -82h-118v-48h150v-43c-42 3 -84 5 -122 5
c-3 -12 -9 -28 -15 -40c95 -3 213 -12 277 -25l34 39c-34 6 -76 12 -120 17v47h151c-3 -33 -5 -67 -6 -103h61c1 36 2 70 5 103h212v48h-208c8 73 21 135 35 186c44 -52 80 -110 103 -167z" />
</svg>
