<?xml version="1.0" standalone="no"?>
<!DOCTYPE svg PUBLIC "-//W3C//DTD SVG 1.1//EN" "http://www.w3.org/Graphics/SVG/1.1/DTD/svg11.dtd" >
<svg xmlns="http://www.w3.org/2000/svg" xmlns:xlink="http://www.w3.org/1999/xlink" version="1.1" viewBox="-10 0 1010 1000">
   <path fill="currentColor"
d="M635 139v60h-303v-60h133c-9 -27 -21 -60 -31 -86l56 -13c14 31 29 70 37 99h108zM453 317l-50 18c-6 -31 -19 -79 -32 -115l47 -17c15 36 29 83 35 114zM286 224l55 19c-23 67 -48 151 -70 203l-40 -16c20 -54 44 -145 55 -206zM88 246l48 7c-4 82 -20 191 -49 259
l-47 -25c27 -60 44 -161 48 -241zM228 55v347c0 75 -2 150 -12 222c27 39 97 151 114 178l-45 48c-16 -33 -52 -97 -82 -147c-20 91 -55 177 -117 253c-10 -15 -31 -37 -45 -47c114 -144 127 -327 127 -506v-348h60zM415 709h139v-73h-139v73zM554 511h-139v73h139v-73z
M615 455v422c0 31 -6 49 -27 60s-52 12 -102 12c-2 -17 -12 -44 -21 -60c35 1 66 1 75 1c11 -1 14 -4 14 -14v-116h-139v196h-62v-501h262zM543 204l55 16c-13 40 -27 83 -39 118h85v62h-325v-62h189c11 -40 28 -96 35 -134zM765 881h105c22 0 27 -10 29 -64
c15 11 40 22 59 26c-7 79 -27 103 -82 103h-120c-72 0 -92 -20 -92 -97v-441h196v-94h-196v-270h66v80h221v61h-221v72h196v208h-196v58h187v52h-187v58h178v52h-178v61h200v52h-200v50c0 28 5 33 35 33z" />
</svg>
