<?xml version="1.0" standalone="no"?>
<!DOCTYPE svg PUBLIC "-//W3C//DTD SVG 1.1//EN" "http://www.w3.org/Graphics/SVG/1.1/DTD/svg11.dtd" >
<svg xmlns="http://www.w3.org/2000/svg" xmlns:xlink="http://www.w3.org/1999/xlink" version="1.1" viewBox="-10 0 1010 1000">
   <path fill="currentColor"
d="M941 127v60h-593v-60h269c-8 -25 -20 -51 -31 -73l59 -17c17 27 33 63 42 90h254zM290 225l54 20c-22 66 -48 149 -69 201l-41 -16c19 -54 45 -143 56 -205zM88 247l48 6c-5 80 -21 189 -50 258l-47 -24c26 -61 44 -162 49 -240zM335 761l-42 50
c-17 -28 -55 -80 -86 -120c-21 96 -59 186 -126 268c-9 -16 -29 -39 -43 -49c119 -149 132 -337 132 -519v-341h62v341c0 78 -2 156 -13 231c29 32 99 118 116 139zM565 591v52h145v-52h-145zM565 492v51h145v-51h-145zM450 270v77h108v-77h-108zM725 270v78h111v-78h-111z
M880 706l47 38c-40 28 -90 56 -133 76c47 36 104 63 169 78c-14 14 -32 37 -40 54c-136 -39 -235 -126 -289 -246c-28 26 -63 50 -101 70v99l156 -33c0 16 1 40 3 52c-186 46 -213 55 -230 66c-4 -16 -15 -42 -22 -55c13 -6 31 -16 31 -51v-47c-38 16 -77 31 -115 43
c-7 -14 -25 -40 -37 -52c87 -22 180 -56 242 -101h-221v-54h161v-52h-102v-48h102v-51h-131v-53h131v-50h-106v-162h219v162h-49v50h145v-48h-40v-164h224v164h-120v48h140v53h-140v51h122v48h-122v52h168v54h-250c15 32 37 62 62 87c43 -22 95 -55 126 -78z" />
</svg>
