<?xml version="1.0" standalone="no"?>
<!DOCTYPE svg PUBLIC "-//W3C//DTD SVG 1.1//EN" "http://www.w3.org/Graphics/SVG/1.1/DTD/svg11.dtd" >
<svg xmlns="http://www.w3.org/2000/svg" xmlns:xlink="http://www.w3.org/1999/xlink" version="1.1" viewBox="-10 0 1010 1000">
   <path fill="currentColor"
d="M887 53l31 58c-141 25 -368 41 -551 44c-1 -16 -9 -40 -16 -56c183 -6 408 -23 536 -46zM429 327v82h97v-82h-97zM583 327v82h102v-82h-102zM742 327v82h103v-82h-103zM371 461v-185h78c-6 -27 -27 -68 -49 -99l54 -19c23 30 44 70 51 96l-54 22h179
c-7 -29 -28 -74 -50 -107l55 -18c24 33 45 76 52 105l-54 20h127c23 -39 51 -91 65 -129l67 21c-20 36 -43 76 -65 108h79v185h-535zM294 225l54 17c-23 66 -46 151 -67 203l-39 -14c18 -54 41 -145 52 -206zM88 247l46 6c-4 81 -20 189 -48 257l-46 -23
c26 -60 42 -161 48 -240zM337 812l-46 46c-16 -34 -52 -102 -83 -154c-20 90 -58 175 -124 252c-10 -15 -32 -37 -46 -47c122 -144 135 -326 135 -507v-346h62v346c0 76 -2 150 -12 223c26 38 97 157 114 187zM563 542h-147v46h147v-46zM416 677h147v-46h-147v46zM490 757
l49 -21c42 57 88 133 109 181l-54 27c-7 -19 -19 -43 -33 -68c-165 64 -191 75 -207 88c-6 -13 -23 -38 -33 -49c13 -10 34 -32 34 -77v-340h269v223h-208v147l118 -41c-15 -25 -30 -48 -44 -70zM953 578v58h-73v249c0 34 -6 50 -30 61c-22 11 -58 11 -108 11
c-4 -17 -13 -42 -23 -59c38 1 73 1 83 0c11 0 14 -3 14 -13v-249h-167v-58h167v-95h64v95h73zM785 808l-50 22c-11 -38 -41 -96 -71 -138l46 -19c33 41 63 96 75 135z" />
</svg>
