<?xml version="1.0" standalone="no"?>
<!DOCTYPE svg PUBLIC "-//W3C//DTD SVG 1.1//EN" "http://www.w3.org/Graphics/SVG/1.1/DTD/svg11.dtd" >
<svg xmlns="http://www.w3.org/2000/svg" xmlns:xlink="http://www.w3.org/1999/xlink" version="1.1" viewBox="-10 0 1010 1000">
   <path fill="currentColor"
d="M668 323v85l144 -8c-15 -18 -29 -37 -44 -53l51 -24h-151zM465 265h138v-100h-138v100zM808 165h-140v100h140v-100zM373 485l-5 -62c64 -3 146 -7 235 -11v-89h-203v-215h203v-64h65v64h207v215h-53c48 51 99 117 124 162l-57 32c-9 -18 -22 -38 -37 -60
c-174 11 -354 22 -479 28zM292 210l56 23c-23 68 -48 157 -69 211l-42 -18c19 -57 44 -153 55 -216zM89 250l50 8c-1 96 -15 202 -58 264l-45 -31c38 -53 52 -149 53 -241zM327 789l-47 48c-15 -31 -49 -88 -79 -133c-20 91 -57 177 -119 253c-10 -16 -34 -37 -48 -48
c118 -147 132 -333 132 -513v-340h63v340c0 78 -2 155 -13 232c27 35 95 136 111 161zM371 718h65v-99h-65v99zM555 619h-65v99h65v-99zM523 799l47 -14c26 46 53 106 63 146l-49 17c-4 -14 -8 -31 -15 -49c-100 13 -196 25 -273 33l-9 -58c41 -3 93 -8 149 -13v-93h-113
v-200h113v-62h54v62h115v200h-115v88l58 -6c-8 -17 -17 -35 -25 -51zM694 718h65v-99h-65v99zM881 619h-67v99h67v-99zM965 932l-48 19c-5 -16 -11 -36 -20 -57c-93 12 -184 22 -258 31l-9 -57c37 -3 81 -6 129 -11v-89h-115v-200h115v-62h55v62h119v200h-119v84l61 -6
c-8 -17 -17 -34 -26 -50l45 -17c30 48 60 112 71 153z" />
</svg>
