<?xml version="1.0" standalone="no"?>
<!DOCTYPE svg PUBLIC "-//W3C//DTD SVG 1.1//EN" "http://www.w3.org/Graphics/SVG/1.1/DTD/svg11.dtd" >
<svg xmlns="http://www.w3.org/2000/svg" xmlns:xlink="http://www.w3.org/1999/xlink" version="1.1" viewBox="-10 0 1010 1000">
   <path fill="currentColor"
d="M289 214l57 22c-22 69 -46 158 -66 212l-41 -18c18 -57 41 -152 50 -216zM89 250l50 8c-1 96 -15 202 -58 263l-45 -30c38 -52 52 -149 53 -241zM230 56v339c0 74 -2 149 -12 221c30 37 102 139 120 165l-49 49c-17 -31 -53 -88 -85 -134c-19 93 -57 181 -121 260
c-11 -14 -34 -37 -49 -48c118 -146 132 -333 132 -513v-339h64zM458 353h132v-38h-132v38zM458 240v37h132v-37h-132zM789 277v-37h-137v37h137zM789 353v-38h-137v38h137zM402 465v173h-60v-219h248v-27h-192v-191h452v191h-198v27h264v163c0 27 -5 39 -24 47
c-18 9 -47 9 -88 9c-3 -15 -11 -32 -18 -46c28 1 51 1 59 0c8 0 11 -2 11 -10v-117h-204v55l85 -7c-9 -10 -20 -20 -31 -28l40 -20c34 26 74 67 91 94l-42 22c-6 -10 -15 -21 -25 -33c-114 12 -229 24 -317 33l-15 -46c42 -3 95 -7 152 -11v-59h-188zM655 875l146 -9
c-13 -12 -25 -24 -37 -34l38 -24h-147v67zM440 762h152v-72h-152v72zM801 690h-146v72h146v-72zM861 808h-42c42 35 86 83 109 114l-51 35c-9 -14 -21 -29 -36 -46c-173 14 -354 26 -481 35l-10 -55c65 -3 149 -8 242 -13v-70h-209v-164h209v-50h63v50h206v164zM777 97h169
v53h-169v38h-68v-38h-177v38h-68v-38h-155v-53h155v-54h68v54h177v-54h68v54z" />
</svg>
