<?xml version="1.0" standalone="no"?>
<!DOCTYPE svg PUBLIC "-//W3C//DTD SVG 1.1//EN" "http://www.w3.org/Graphics/SVG/1.1/DTD/svg11.dtd" >
<svg xmlns="http://www.w3.org/2000/svg" xmlns:xlink="http://www.w3.org/1999/xlink" version="1.1" viewBox="-10 0 1010 1000">
   <path fill="currentColor"
d="M931 158h-745v208c0 151 -12 369 -92 519c-12 -12 -43 -30 -59 -36c76 -141 83 -341 83 -483v-263h372c-5 -17 -10 -34 -15 -49l73 -15c8 20 16 43 23 64h360v55zM536 294h-117c30 18 101 59 118 74l-40 42c-14 -16 -49 -43 -78 -66v125h-61v-123c-35 45 -78 87 -119 113
c-8 -14 -27 -33 -40 -43c48 -25 102 -73 138 -122h-101v-51h122v-63h61v63h117v51zM513 792h-65v-60h-236v-45h236v-47h-209v-45h209v-44h-226v-46h226v-56h65v343zM247 952l-56 -34c41 -30 80 -83 102 -125l56 22c-24 45 -59 100 -102 137zM421 817l61 -12
c14 42 29 95 35 129l-64 14c-5 -36 -20 -90 -32 -131zM690 458v-119c-39 45 -90 88 -136 114c-10 -13 -27 -32 -40 -42c53 -25 111 -70 153 -117h-104v-51h127v-63h63v63h154v51h-143c49 32 139 96 162 115l-38 44c-24 -25 -87 -77 -135 -114v119h-63zM595 819l58 -16
c22 39 48 92 61 124l-61 21c-11 -34 -36 -89 -58 -129zM762 813l49 -29c45 42 97 96 123 130l-52 33c-25 -35 -78 -93 -120 -134zM679 686h266v45h-266v61h-64v-342h64v55h252v46h-252v44h240v45h-240v46z" />
</svg>
