<?xml version="1.0" standalone="no"?>
<!DOCTYPE svg PUBLIC "-//W3C//DTD SVG 1.1//EN" "http://www.w3.org/Graphics/SVG/1.1/DTD/svg11.dtd" >
<svg xmlns="http://www.w3.org/2000/svg" xmlns:xlink="http://www.w3.org/1999/xlink" version="1.1" viewBox="-10 0 1010 1000">
   <path fill="currentColor"
d="M87 246l46 7c-4 82 -20 191 -48 260l-45 -26c28 -60 42 -161 47 -241zM251 446l-37 -15c-1 66 -3 131 -11 195c28 37 92 141 107 167l-43 48c-15 -32 -48 -90 -76 -136c-18 89 -50 174 -106 250c-9 -14 -29 -36 -44 -47c103 -144 115 -326 115 -504v-349h58v349v21
c20 -55 41 -142 52 -201l53 19c-22 67 -48 151 -68 203zM526 657l34 -9c10 21 18 52 22 71l-36 11c-2 -20 -11 -50 -20 -73zM700 733l-30 -14c11 -21 26 -53 32 -72l36 15c-13 28 -26 51 -38 71zM715 439h150v-57h-150v57zM406 441h143v-59h-143v59zM549 286h-143v50h143
v-50zM865 286h-150v50h150v-50zM761 736v-97h-107v97h107zM503 639v97h104v-97h-104zM925 236v652c0 33 -7 48 -29 57s-57 10 -112 10c-3 -16 -12 -37 -19 -51c38 1 74 1 85 0c11 0 15 -4 15 -15v-400h-206v33h171v47h-171v30h150v177h-106c41 30 82 66 104 93l-41 33
c-22 -29 -64 -67 -105 -97v133h-60v-140c-39 51 -92 100 -143 128c-4 -17 -17 -40 -25 -54c44 -20 93 -57 129 -96h-105v-177h143v-30h-166v-47h166v-31h-194v464h-59v-719h258v244h53v-244h267zM772 111h180v54h-180v54h-63v-54h-164v57h-63v-57h-162v-54h162v-68h63v68
h164v-68h63v68z" />
</svg>
