<?xml version="1.0" standalone="no"?>
<!DOCTYPE svg PUBLIC "-//W3C//DTD SVG 1.1//EN" "http://www.w3.org/Graphics/SVG/1.1/DTD/svg11.dtd" >
<svg xmlns="http://www.w3.org/2000/svg" xmlns:xlink="http://www.w3.org/1999/xlink" version="1.1" viewBox="-10 0 1010 1000">
   <path fill="currentColor"
d="M407 245v79h-61v-128h261v-53h-227v-56h536v56h-243v53h272v128h-63v-79h-209v168h-66v-168h-200zM573 367v44h-165v-44h165zM416 487v73h64v-73h-64zM372 600v-153h154v153h-154zM574 284v43h-148v-43h148zM673 560v-73h-65v73h65zM720 447v153h-157v-153h157zM874 367
v44h-166v-44h166zM709 284h146v43h-146v-43zM869 560v-73h-68v73h68zM915 447v153h-159v-153h159zM289 214l57 22c-24 69 -50 158 -73 212l-41 -19c21 -56 45 -152 57 -215zM89 250l50 8c-1 96 -15 202 -58 263l-45 -30c38 -53 52 -149 53 -241zM335 780l-49 50
c-16 -31 -51 -88 -82 -133c-20 93 -57 181 -121 259c-11 -14 -34 -37 -49 -48c118 -146 132 -333 132 -513v-339h64v339c0 74 -2 149 -12 222c29 37 100 138 117 163zM673 873h283v58h-643v-58h295v-187h-254v-54h582v54h-263v187zM466 691l56 12c-5 16 -12 32 -21 49
c30 24 63 53 81 73l-35 34c-16 -17 -44 -44 -69 -67c-22 31 -48 58 -78 78c-9 -10 -27 -26 -39 -34c53 -33 91 -91 105 -145zM785 691l56 12c-5 15 -12 31 -20 47c35 29 75 63 98 86l-36 36c-20 -21 -54 -53 -87 -82c-19 29 -45 55 -72 72c-9 -10 -27 -26 -39 -34
c50 -31 87 -86 100 -137z" />
</svg>
