<?xml version="1.0" standalone="no"?>
<!DOCTYPE svg PUBLIC "-//W3C//DTD SVG 1.1//EN" "http://www.w3.org/Graphics/SVG/1.1/DTD/svg11.dtd" >
<svg xmlns="http://www.w3.org/2000/svg" xmlns:xlink="http://www.w3.org/1999/xlink" version="1.1" viewBox="-10 0 1010 1000">
   <path fill="currentColor"
d="M719 330h-111v112h111v-112zM546 653v-323c-11 17 -22 32 -32 47c-12 -11 -39 -30 -54 -39c61 -73 107 -183 133 -296l64 14c-8 31 -17 63 -28 93h292v29c-7 258 -14 346 -34 374c-13 17 -30 24 -53 26c-19 2 -54 2 -88 0c-1 -17 -7 -40 -16 -55c33 2 63 2 76 2
c12 1 19 -1 25 -11c14 -18 20 -93 26 -306h-249c-10 23 -20 43 -30 64h204v228h-174v153c0 33 9 39 58 39h176c39 0 47 -16 51 -104c15 11 40 21 58 25c-9 109 -29 138 -104 138h-184c-91 0 -117 -19 -117 -98zM461 44l52 49c-18 6 -36 12 -56 17c0 573 -8 732 509 786
c-14 17 -29 44 -35 64c-536 -63 -533 -263 -535 -835c-26 6 -54 12 -81 17v786h-61v-775c-26 5 -53 9 -79 13v253c0 154 -12 381 -90 535c-11 -12 -39 -31 -53 -38c73 -145 80 -350 80 -496v-300c123 -18 267 -47 349 -76z" />
</svg>
