<?xml version="1.0" standalone="no"?>
<!DOCTYPE svg PUBLIC "-//W3C//DTD SVG 1.1//EN" "http://www.w3.org/Graphics/SVG/1.1/DTD/svg11.dtd" >
<svg xmlns="http://www.w3.org/2000/svg" xmlns:xlink="http://www.w3.org/1999/xlink" version="1.1" viewBox="-10 0 1010 1000">
   <path fill="currentColor"
d="M835 53l41 55c-183 46 -504 65 -757 66c-1 -17 -7 -42 -14 -57c250 -3 569 -22 730 -64zM582 297l-69 23c-15 -32 -44 -86 -69 -125l67 -19c24 37 56 90 71 121zM338 300l-68 28c-17 -31 -50 -83 -79 -121l65 -22c27 35 64 85 82 115zM708 677h-308c44 43 101 80 167 111
c55 -31 104 -68 141 -111zM936 541h-558c-5 26 -13 53 -22 77h399l13 -4l44 25c-41 73 -100 132 -173 180c90 33 190 57 294 70c-16 16 -33 45 -42 65c-115 -17 -225 -49 -322 -95c-94 48 -201 80 -307 98c-6 -18 -20 -47 -31 -62c90 -13 183 -38 265 -73
c-66 -38 -122 -83 -166 -135c-49 110 -119 198 -218 260c-10 -15 -32 -43 -48 -55c121 -78 198 -196 239 -351h-240v-63h255c6 -27 10 -55 13 -84h-211v-62h545c34 -51 75 -125 99 -178l71 28c-29 50 -64 105 -95 150h148v62h-481c-4 29 -9 57 -14 84h543v63z" />
</svg>
