<?xml version="1.0" standalone="no"?>
<!DOCTYPE svg PUBLIC "-//W3C//DTD SVG 1.1//EN" "http://www.w3.org/Graphics/SVG/1.1/DTD/svg11.dtd" >
<svg xmlns="http://www.w3.org/2000/svg" xmlns:xlink="http://www.w3.org/1999/xlink" version="1.1" viewBox="-10 0 1010 1000">
   <path fill="currentColor"
d="M933 193l-54 50c-61 -49 -188 -116 -291 -155l50 -45c100 37 229 100 295 150zM332 46l67 28c-75 67 -193 133 -291 173c-10 -13 -36 -43 -51 -55c99 -34 210 -89 275 -146zM645 158l68 29c-37 41 -85 75 -140 104c111 42 246 67 387 79c-15 15 -33 45 -41 63
c-155 -15 -302 -50 -421 -105c-125 52 -271 85 -412 107c-10 -16 -31 -47 -45 -62c134 -16 271 -42 385 -84c-49 -29 -91 -63 -125 -102l60 -27c34 38 81 72 137 99c60 -27 111 -62 147 -101zM203 742v71c60 -4 125 -10 193 -16v-55h-193zM396 516h-193v59h193v-59zM203 627
v65h193v-65h-193zM468 516v275l72 -7v54l-72 7v112h-72v-104c-124 12 -244 23 -337 31l-6 -60l80 -6v-302h-69v-60h470v60h-66zM875 453l53 31c-39 53 -84 113 -125 163c88 50 118 97 118 142c1 43 -16 73 -49 90c-17 9 -37 14 -57 17c-28 2 -63 2 -95 0
c-1 -19 -10 -46 -22 -63c34 3 64 3 86 2c14 -1 27 -3 39 -8c16 -8 25 -22 25 -44c-1 -35 -34 -77 -125 -125c35 -46 70 -99 98 -143h-163v441h-72v-500h277z" />
</svg>
