<?xml version="1.0" standalone="no"?>
<!DOCTYPE svg PUBLIC "-//W3C//DTD SVG 1.1//EN" "http://www.w3.org/Graphics/SVG/1.1/DTD/svg11.dtd" >
<svg xmlns="http://www.w3.org/2000/svg" xmlns:xlink="http://www.w3.org/1999/xlink" version="1.1" viewBox="-10 0 1010 1000">
   <path fill="currentColor"
d="M884 373l-52 62c-78 -47 -188 -100 -310 -150c-126 60 -268 108 -410 140c-8 -19 -28 -49 -40 -65c122 -25 246 -63 359 -111c-102 -38 -208 -73 -307 -98l54 -55c109 28 229 68 343 113c97 -49 180 -104 238 -164l72 40c-62 58 -138 111 -224 158c107 44 205 90 277 130
zM709 406l76 27c-57 115 -133 208 -224 284c113 78 248 137 400 168c-18 17 -39 49 -50 71c-158 -37 -297 -102 -413 -190c-117 82 -256 143 -412 187c-9 -18 -31 -52 -46 -69c152 -38 287 -92 399 -167c-88 -78 -161 -171 -216 -278l67 -26c50 98 121 185 210 259
c89 -72 159 -160 209 -266z" />
</svg>
