<?xml version="1.0" standalone="no"?>
<!DOCTYPE svg PUBLIC "-//W3C//DTD SVG 1.1//EN" "http://www.w3.org/Graphics/SVG/1.1/DTD/svg11.dtd" >
<svg xmlns="http://www.w3.org/2000/svg" xmlns:xlink="http://www.w3.org/1999/xlink" version="1.1" viewBox="-10 0 1010 1000">
   <path fill="currentColor"
d="M863 486l-58 -16c14 -31 30 -74 44 -117h-436v-65h217v-89h-180v-63h180v-92h73v92h190v63h-190v89h171l12 -3l48 13c-21 66 -47 141 -71 188zM650 474l-35 42c-28 -27 -85 -65 -132 -90l33 -38c48 23 106 59 134 86zM419 519l34 -39c49 24 109 61 139 89l-36 44
c-29 -29 -88 -69 -137 -94zM314 45v275h68v65h-215v60c0 27 0 53 -1 81h178v430h-64v-365h-117c-6 125 -24 260 -64 366c-15 -8 -44 -19 -63 -24c58 -143 66 -343 66 -488v-380h65v255h85v-275h62zM711 770l48 -37c63 51 139 124 175 173l-50 43
c-34 -50 -109 -126 -173 -179zM725 628h219v66h-240c-44 113 -125 203 -276 261c-9 -17 -29 -42 -44 -55c130 -46 202 -118 243 -206h-234v-66h259c21 -71 29 -150 35 -235h72c-6 84 -14 163 -34 235z" />
</svg>
