<?xml version="1.0" standalone="no"?>
<!DOCTYPE svg PUBLIC "-//W3C//DTD SVG 1.1//EN" "http://www.w3.org/Graphics/SVG/1.1/DTD/svg11.dtd" >
<svg xmlns="http://www.w3.org/2000/svg" xmlns:xlink="http://www.w3.org/1999/xlink" version="1.1" viewBox="-10 0 1010 1000">
   <path fill="currentColor"
d="M887 342l-65 39c-15 -24 -39 -52 -66 -82c-509 26 -561 28 -594 40c-4 -15 -16 -52 -23 -73c20 -3 44 -18 74 -39c31 -21 135 -104 209 -188l72 35c-69 69 -146 135 -220 186l428 -18c-36 -33 -72 -65 -106 -94l60 -32c84 66 184 160 231 226zM944 670v70h-404v215h-76
v-215h-407v-70h407v-142h-227c-25 42 -52 80 -80 109c-15 -11 -49 -28 -68 -37c64 -63 120 -162 154 -259l74 18c-12 33 -26 67 -42 99h189v-116h76v116h324v70h-324v142h404z" />
</svg>
