<?xml version="1.0" standalone="no"?>
<!DOCTYPE svg PUBLIC "-//W3C//DTD SVG 1.1//EN" "http://www.w3.org/Graphics/SVG/1.1/DTD/svg11.dtd" >
<svg xmlns="http://www.w3.org/2000/svg" xmlns:xlink="http://www.w3.org/1999/xlink" version="1.1" viewBox="-10 0 1010 1000">
   <path fill="currentColor"
d="M415 574l-132 39v344h-63v-327c-61 18 -118 35 -166 48l-18 -74c49 -12 113 -28 184 -47v-238h-87c-12 63 -27 121 -45 166c-11 -9 -38 -23 -54 -29c37 -84 57 -213 68 -336l59 9c-4 41 -9 80 -15 119h74v-204h63v204h123v71h-123v220c41 -10 83 -22 125 -34zM956 287
h-313c-1 51 -3 101 -7 151h262s0 25 -1 35c-12 299 -24 406 -52 442c-18 23 -36 30 -64 33c-25 3 -71 2 -117 -1c-2 -22 -10 -51 -22 -71c48 5 92 5 110 5c16 1 25 -1 33 -12c20 -22 32 -117 42 -361h-197c-21 184 -70 348 -202 451c-10 -17 -32 -41 -48 -52
c172 -128 188 -372 193 -620h-145v-71h243c-7 -41 -25 -102 -43 -148l59 -17c22 50 42 115 49 155l-28 10h248v71z" />
</svg>
