<?xml version="1.0" standalone="no"?>
<!DOCTYPE svg PUBLIC "-//W3C//DTD SVG 1.1//EN" "http://www.w3.org/Graphics/SVG/1.1/DTD/svg11.dtd" >
<svg xmlns="http://www.w3.org/2000/svg" xmlns:xlink="http://www.w3.org/1999/xlink" version="1.1" viewBox="-10 0 1010 1000">
   <path fill="currentColor"
d="M411 501l10 65c-40 13 -81 25 -121 38v353h-71v-330c-62 19 -121 38 -172 54l-17 -72c51 -14 118 -32 189 -54v-239h-93c-12 62 -28 119 -46 164c-12 -9 -41 -27 -56 -35c38 -88 57 -221 69 -348l65 10c-5 46 -11 93 -19 138h80v-201h71v201h114v71h-114v218zM802 311
h-251c27 128 67 243 125 338c60 -91 99 -203 126 -338zM952 311h-74c-33 165 -82 296 -158 402c64 81 145 144 247 182c-15 15 -38 43 -49 63c-100 -42 -180 -106 -244 -187c-69 78 -155 139 -265 188c-9 -17 -34 -48 -48 -63c114 -45 203 -106 270 -186
c-57 -90 -98 -197 -128 -319c-21 39 -43 74 -67 104c-12 -13 -40 -40 -57 -52c79 -96 138 -246 172 -400l72 14c-14 62 -32 124 -54 183h383v71z" />
</svg>
