<?xml version="1.0" standalone="no"?>
<!DOCTYPE svg PUBLIC "-//W3C//DTD SVG 1.1//EN" "http://www.w3.org/Graphics/SVG/1.1/DTD/svg11.dtd" >
<svg xmlns="http://www.w3.org/2000/svg" xmlns:xlink="http://www.w3.org/1999/xlink" version="1.1" viewBox="-10 0 1010 1000">
   <path fill="currentColor"
d="M713 170l-70 23c-10 -37 -33 -94 -54 -137l66 -19c22 43 48 97 58 133zM940 203v71h-532v-71h532zM406 581l-115 33v343h-68v-325c-61 18 -119 34 -168 46l-19 -74c50 -11 116 -28 187 -45v-240h-87c-12 63 -28 121 -48 166c-11 -8 -39 -23 -54 -29
c38 -85 60 -213 73 -336l59 9c-4 41 -10 80 -16 119h73v-204h68v204h105v71h-105v222l108 -28zM830 881h33c10 0 19 -1 24 -6c6 -4 10 -14 12 -33c2 -21 4 -67 4 -127c14 13 37 25 56 31c-1 54 -4 118 -10 140c-6 25 -14 38 -29 48c-14 9 -35 12 -54 12h-53
c-20 0 -44 -5 -59 -18c-17 -14 -22 -31 -22 -102v-372h-159v116c0 125 -30 287 -183 392c-9 -16 -34 -46 -48 -56c140 -96 160 -228 160 -338v-184h301v446c0 27 2 42 7 46c6 4 12 5 20 5z" />
</svg>
