<?xml version="1.0" standalone="no"?>
<!DOCTYPE svg PUBLIC "-//W3C//DTD SVG 1.1//EN" "http://www.w3.org/Graphics/SVG/1.1/DTD/svg11.dtd" >
<svg xmlns="http://www.w3.org/2000/svg" xmlns:xlink="http://www.w3.org/1999/xlink" version="1.1" viewBox="-10 0 1010 1000">
   <path fill="currentColor"
d="M537 640v104h363v63h-363v152h-73v-152h-359v-63h359v-104h-143c-22 30 -45 57 -68 78c-14 -9 -45 -26 -63 -34c54 -46 103 -114 131 -182l69 15c-9 21 -19 41 -31 62h105v-100h73v100h208v61h-208zM941 435h-253c67 77 168 139 278 170c-16 14 -37 43 -48 61
c-126 -42 -242 -126 -313 -231h-248c-67 89 -159 168 -276 227c-10 -19 -33 -45 -49 -57c96 -45 172 -103 232 -170h-206v-65h258c22 -29 39 -60 55 -91h-254v-65h160c-21 -35 -61 -83 -98 -119l58 -31c41 36 86 87 105 124l-45 26h102c23 -58 37 -117 44 -173l76 7
c-9 55 -23 111 -42 166h160l-28 -16c38 -37 89 -96 116 -138l72 32c-40 44 -84 89 -122 122h210v65h-435c-13 31 -30 61 -48 91h539v65z" />
</svg>
