<?xml version="1.0" standalone="no"?>
<!DOCTYPE svg PUBLIC "-//W3C//DTD SVG 1.1//EN" "http://www.w3.org/Graphics/SVG/1.1/DTD/svg11.dtd" >
<svg xmlns="http://www.w3.org/2000/svg" xmlns:xlink="http://www.w3.org/1999/xlink" version="1.1" viewBox="-10 0 1010 1000">
   <path fill="currentColor"
d="M650 473l34 -43c86 30 180 70 237 102l-43 46c-53 -32 -143 -73 -228 -105zM822 314l57 29c-40 35 -94 69 -136 92l-50 -26c41 -25 98 -67 129 -95zM822 155h-604v95h604v-95zM218 312v68c0 168 -15 409 -119 570c-14 -13 -47 -31 -65 -40c101 -153 110 -371 110 -530
v-287h752v219h-678zM618 531h-73v-200h73v200zM265 558l-24 -54c67 -17 163 -48 259 -78l8 50c-85 29 -173 59 -243 82zM287 350l49 -34c42 23 95 58 122 83l-51 37c-27 -25 -78 -62 -120 -86zM940 764v62h-322v123h-74v-123h-326v-62h326v-83h-193c-22 28 -45 53 -69 73
c-13 -10 -43 -26 -59 -33c56 -44 107 -109 137 -175l64 15c-8 21 -19 40 -31 60h151v-75h74v75h271v60h-271v83h322z" />
</svg>
