<?xml version="1.0" standalone="no"?>
<!DOCTYPE svg PUBLIC "-//W3C//DTD SVG 1.1//EN" "http://www.w3.org/Graphics/SVG/1.1/DTD/svg11.dtd" >
<svg xmlns="http://www.w3.org/2000/svg" xmlns:xlink="http://www.w3.org/1999/xlink" version="1.1" viewBox="-10 0 1010 1000">
   <path fill="currentColor"
d="M834 74l63 20c-26 46 -63 104 -93 140c-13 -9 -42 -23 -59 -30c32 -36 65 -86 89 -130zM575 192l-56 32c-19 -31 -56 -84 -86 -122l52 -28c31 38 70 89 90 118zM366 513l6 69c-35 12 -72 23 -107 35v340h-66v-318c-52 16 -101 32 -143 45l-16 -74c43 -12 98 -27 159 -46
v-245h-71c-10 65 -23 122 -39 169c-13 -9 -41 -25 -56 -31c32 -83 49 -213 59 -337l59 11c-3 40 -7 79 -12 117h60v-204h66v204h101v71h-101v225zM771 473h-169c-16 32 -35 63 -56 90h270v159c0 33 -6 49 -29 60c-23 10 -60 10 -115 10c-2 -19 -11 -41 -19 -58
c41 1 73 1 84 0s13 -3 13 -12v-98h-176v223c0 29 9 36 60 36h175c42 0 48 -15 53 -110c15 11 43 22 63 26c-9 118 -31 148 -110 148h-186c-95 0 -122 -20 -122 -100v-237c-27 29 -58 56 -91 79c-10 -12 -37 -40 -53 -52c68 -43 120 -97 161 -164h-126v-65h160
c15 -31 27 -65 37 -101h-161v-62h178c14 -62 24 -129 32 -202l71 6c-8 71 -19 136 -33 196h231v62h-246c-11 35 -22 70 -34 101h324v65h-116c35 61 84 118 132 149c-16 12 -37 36 -49 53c-58 -44 -115 -123 -153 -202z" />
</svg>
