<?xml version="1.0" standalone="no"?>
<!DOCTYPE svg PUBLIC "-//W3C//DTD SVG 1.1//EN" "http://www.w3.org/Graphics/SVG/1.1/DTD/svg11.dtd" >
<svg xmlns="http://www.w3.org/2000/svg" xmlns:xlink="http://www.w3.org/1999/xlink" version="1.1" viewBox="-10 0 1010 1000">
   <path fill="currentColor"
d="M809 217v-75h-325v75h325zM809 344v-74h-325v74h325zM809 473v-75h-325v75h325zM876 86v443h-458v-443h458zM373 581l-108 36v340h-65v-319l-143 46l-17 -74c43 -12 99 -28 160 -46v-245h-72c-9 65 -23 122 -39 168c-12 -8 -40 -24 -56 -30c32 -83 49 -213 59 -337l60 11
c-4 40 -8 79 -13 117h61v-204h65v204h101v71h-101v225l101 -32zM957 706h-267c41 108 133 171 283 191c-16 14 -32 41 -41 60c-146 -28 -236 -92 -288 -203c-37 106 -116 167 -289 203c-6 -18 -22 -44 -36 -59c173 -31 241 -87 269 -192h-245v-62h257c4 -29 6 -62 8 -97h68
c-2 35 -4 68 -8 97h164c-27 -23 -65 -49 -96 -70l41 -35c40 23 91 58 117 81l-26 24h89v62z" />
</svg>
