<?xml version="1.0" standalone="no"?>
<!DOCTYPE svg PUBLIC "-//W3C//DTD SVG 1.1//EN" "http://www.w3.org/Graphics/SVG/1.1/DTD/svg11.dtd" >
<svg xmlns="http://www.w3.org/2000/svg" xmlns:xlink="http://www.w3.org/1999/xlink" version="1.1" viewBox="-10 0 1010 1000">
   <path fill="currentColor"
d="M931 174h-745v199c0 148 -12 367 -92 516c-12 -12 -43 -30 -59 -36c76 -142 83 -339 83 -480v-261h375c-6 -20 -13 -40 -20 -58l75 -15c9 23 19 50 25 73h358v62zM746 529h-57v-151c-40 56 -92 107 -138 138c-10 -16 -27 -38 -40 -49c54 -29 114 -84 155 -141h-106v-58
h129v-68h57v68h159v58h-145c49 39 143 119 168 142l-39 51c-24 -31 -93 -98 -143 -144v154zM356 542v-154c-35 52 -79 103 -119 133c-9 -15 -27 -37 -39 -48c50 -30 103 -88 139 -147h-103v-58h122v-68h57v68h121v58h-117c30 20 100 69 118 84l-38 49
c-15 -19 -53 -54 -84 -81v164h-57zM932 773v57h-339v127h-71v-127h-321v-57h321v-87h-180c-18 27 -40 53 -60 73c-13 -9 -41 -26 -57 -34c48 -42 89 -102 113 -162l64 14c-8 18 -16 35 -25 53h145v-75h71v75h279v56h-279v87h339z" />
</svg>
