<?xml version="1.0" standalone="no"?>
<!DOCTYPE svg PUBLIC "-//W3C//DTD SVG 1.1//EN" "http://www.w3.org/Graphics/SVG/1.1/DTD/svg11.dtd" >
<svg xmlns="http://www.w3.org/2000/svg" xmlns:xlink="http://www.w3.org/1999/xlink" version="1.1" viewBox="-10 0 1010 1000">
   <path fill="currentColor"
d="M697 438v62l119 -4c-11 -14 -24 -27 -36 -39l36 -19h-119zM500 391h127v-64h-127v64zM827 327h-130v64h130v-64zM533 119v63h260v-63h-260zM409 570l-7 -59c61 -2 139 -4 225 -8v-65h-193v-158h193v-50h-160v-159h394v159h-164v50h198v158h-56c41 39 83 90 103 128
l-55 28c-7 -14 -17 -29 -28 -46c-164 9 -332 17 -450 22zM319 209v-76h-230v-56h299v186h-226c-4 26 -9 54 -13 78h233s-1 18 -2 27c-7 110 -15 157 -34 176c-16 16 -34 21 -65 22c-27 2 -81 2 -139 -2c-1 -19 -9 -43 -20 -59c56 4 114 5 132 5s29 -1 36 -7
c11 -10 17 -40 22 -108h-241c11 -51 23 -126 30 -186h218zM943 775v57h-387v123h-72v-123h-415v-57h415v-76h-236c-23 27 -49 53 -73 72c-14 -11 -43 -28 -61 -38c57 -39 108 -98 138 -158l68 17c-9 18 -19 34 -29 51h193v-60h72v60h333v56h-333v76h387z" />
</svg>
