<?xml version="1.0" standalone="no"?>
<!DOCTYPE svg PUBLIC "-//W3C//DTD SVG 1.1//EN" "http://www.w3.org/Graphics/SVG/1.1/DTD/svg11.dtd" >
<svg xmlns="http://www.w3.org/2000/svg" xmlns:xlink="http://www.w3.org/1999/xlink" version="1.1" viewBox="-10 0 1010 1000">
   <path fill="currentColor"
d="M330 510l11 65l-84 33v348h-63v-324c-46 18 -89 34 -128 49l-19 -67c40 -12 91 -31 147 -52v-248h-69c-10 64 -22 122 -38 168c-12 -8 -40 -21 -55 -27c31 -84 45 -213 53 -335l61 8c-3 41 -7 80 -12 119h60v-203h63v204h75v66h-75v224zM423 744h134v-61h-134v61z
M557 579h-134v58h134v-58zM616 527v353c0 30 -5 45 -25 55c-19 10 -49 10 -91 10c-3 -16 -10 -38 -18 -54c30 1 54 1 63 0c9 0 12 -3 12 -11v-90h-134v158h-58v-421h251zM867 225v-91h-115v91h115zM695 225v-91h-114v91h114zM524 225v-91h-108v91h108zM930 79v201h-575v-201
h575zM520 354l47 -19c36 49 71 115 85 156l-49 23c-4 -12 -9 -26 -16 -40c-193 13 -220 16 -236 23c-4 -13 -14 -44 -21 -59c13 -3 26 -13 40 -28c14 -13 63 -72 90 -130l57 26c-27 47 -60 91 -93 126l138 -8c-12 -24 -27 -49 -42 -70zM868 594h-112c-72 0 -89 -17 -89 -82
v-214h62v100c54 -21 108 -45 142 -69l47 42c-53 32 -123 58 -189 78v63c0 21 4 25 33 25h99c23 0 28 -10 31 -77c13 9 37 19 55 23c-7 88 -25 111 -79 111zM765 884h104c26 0 31 -13 34 -93c13 10 38 20 55 23c-6 101 -25 127 -82 127h-118c-72 0 -90 -18 -90 -84v-244h62
v113c57 -22 114 -51 148 -77l50 43c-55 34 -130 66 -198 88v77c0 22 5 27 35 27z" />
</svg>
