<?xml version="1.0" standalone="no"?>
<!DOCTYPE svg PUBLIC "-//W3C//DTD SVG 1.1//EN" "http://www.w3.org/Graphics/SVG/1.1/DTD/svg11.dtd" >
<svg xmlns="http://www.w3.org/2000/svg" xmlns:xlink="http://www.w3.org/1999/xlink" version="1.1" viewBox="-10 0 1010 1000">
   <path fill="currentColor"
d="M613 242v-55h-232v-49h126c-12 -23 -31 -51 -47 -73l58 -20c23 24 46 60 58 84l-23 9h160c19 -30 42 -69 55 -96l68 22c-17 26 -34 51 -51 74h143v49h-240v55h203v49h-203v56h269v51h-612v-51h268v-56h-199v-49h199zM927 476l-35 41c-28 -21 -80 -50 -120 -65l36 -36
c40 14 92 41 119 60zM864 598l62 17c-25 65 -61 126 -101 180c24 57 48 92 70 92c14 0 24 -35 30 -102c12 13 33 27 46 33c-15 106 -42 140 -74 140c-44 0 -84 -42 -116 -109c-36 39 -75 74 -115 104c-10 -13 -33 -36 -47 -47c50 -33 95 -74 136 -121
c-23 -62 -42 -135 -55 -215h-142c35 19 101 55 120 66l-35 41c-19 -16 -67 -48 -104 -71v72h-56v-77c-32 33 -73 67 -112 92h274v45h-175c-4 16 -8 30 -12 45h175s-1 16 -3 24c-11 70 -22 104 -39 118c-14 12 -28 16 -48 16c-16 1 -45 1 -74 -1c-2 -13 -7 -33 -14 -46
c29 3 55 3 66 3s19 0 25 -6c8 -8 15 -27 22 -65h-181c9 -25 18 -57 26 -88h-46v-42c-12 7 -24 14 -35 20c-8 -14 -26 -33 -39 -43c53 -22 114 -62 156 -103h-109v-26l-72 27v385h-66v-360c-49 19 -96 36 -137 51l-20 -66c42 -14 97 -34 157 -56v-211h-71
c-9 54 -20 103 -35 143c-12 -8 -39 -23 -54 -29c32 -84 47 -211 55 -332l60 9c-4 48 -9 96 -16 142h61v-204h66v204h87v67h-87v187l83 -32l9 52h123v-43c-38 4 -76 6 -110 6c-3 -12 -9 -29 -16 -42c87 -3 196 -14 254 -28l36 40c-31 8 -68 14 -108 19v48h153
c-6 -37 -10 -73 -14 -110h64c3 37 8 74 14 110h199v49h-192c11 57 23 108 37 153c26 -39 48 -81 64 -125z" />
</svg>
