<?xml version="1.0" standalone="no"?>
<!DOCTYPE svg PUBLIC "-//W3C//DTD SVG 1.1//EN" "http://www.w3.org/Graphics/SVG/1.1/DTD/svg11.dtd" >
<svg xmlns="http://www.w3.org/2000/svg" xmlns:xlink="http://www.w3.org/1999/xlink" version="1.1" viewBox="-10 0 1010 1000">
   <path fill="currentColor"
d="M304 263v-58h-110v58h110zM304 371v-58h-110v58h110zM304 479v-59h-110v59h110zM721 263v-57h-98v57h98zM721 371v-58h-98v58h98zM721 479v-59h-98v59h98zM130 552v-274c-17 22 -34 43 -52 62c-8 -13 -28 -41 -41 -52c63 -60 118 -152 151 -245l60 16
c-12 31 -26 63 -40 93h110c-11 -28 -27 -61 -42 -87l60 -17c19 31 41 74 53 104h92v53h-115v58h99v27c61 -62 114 -155 147 -247l60 17c-11 31 -25 63 -40 93h109c-11 -28 -27 -63 -42 -90l59 -17c20 33 42 76 53 107h112v53h-139v57h119v50h-119v58h119v49h-119v59h155v51
h-316v23h-65v-275c-18 25 -37 48 -56 68c-7 -10 -24 -32 -37 -45v12h-99v58h99v49h-99v59h130v51h-302v22h-64zM942 758v58h-398v141h-73v-141h-401v-58h401v-87h-217c-22 31 -48 60 -72 82c-14 -11 -43 -29 -61 -38c55 -45 104 -111 133 -180l69 18c-9 21 -20 41 -31 62
h179v-72h73v72h332v56h-332v87h398z" />
</svg>
