<?xml version="1.0" standalone="no"?>
<!DOCTYPE svg PUBLIC "-//W3C//DTD SVG 1.1//EN" "http://www.w3.org/Graphics/SVG/1.1/DTD/svg11.dtd" >
<svg xmlns="http://www.w3.org/2000/svg" xmlns:xlink="http://www.w3.org/1999/xlink" version="1.1" viewBox="-10 0 1010 1000">
   <path fill="currentColor"
d="M460 64l68 40c-39 48 -86 95 -138 140c66 108 79 224 79 342c0 147 -15 263 -60 323c-17 21 -40 33 -66 38c-41 9 -86 9 -136 7c-1 -26 -12 -57 -28 -80c58 6 106 5 131 1c18 -3 30 -9 39 -21c28 -39 42 -136 42 -269c0 -17 0 -32 -1 -49c-78 89 -183 175 -277 226
c-13 -19 -35 -47 -54 -63c115 -52 246 -159 320 -263c-9 -49 -24 -97 -50 -143c-72 56 -152 106 -231 148c-12 -16 -34 -42 -51 -55c84 -42 168 -95 241 -154c-34 -42 -79 -84 -139 -123l55 -48c60 39 106 80 142 122c45 -39 83 -79 114 -119z" />
</svg>
