<?xml version="1.0" standalone="no"?>
<!DOCTYPE svg PUBLIC "-//W3C//DTD SVG 1.1//EN" "http://www.w3.org/Graphics/SVG/1.1/DTD/svg11.dtd" >
<svg xmlns="http://www.w3.org/2000/svg" xmlns:xlink="http://www.w3.org/1999/xlink" version="1.1" viewBox="-10 0 1010 1000">
   <path fill="currentColor"
d="M344 47l61 44c-32 49 -73 98 -118 144c62 110 73 228 73 347c0 148 -14 273 -57 331c-16 20 -37 31 -63 36c-42 8 -89 8 -140 5c-1 -23 -11 -53 -26 -74c60 6 108 5 136 2c17 -3 27 -9 37 -21c28 -37 40 -145 40 -280c0 -20 0 -40 -1 -58c-58 78 -133 155 -202 201
c-12 -19 -32 -44 -51 -58c87 -51 187 -153 242 -248c-9 -45 -21 -88 -43 -131c-45 41 -93 78 -141 111c-11 -14 -33 -38 -50 -51c53 -35 106 -77 154 -122c-32 -46 -75 -89 -132 -132l52 -43c54 40 98 82 131 124c38 -42 72 -85 98 -127zM610 878h211c56 0 66 -33 73 -168
c19 14 49 26 70 32c-11 154 -34 207 -138 207h-221c-107 0 -140 -29 -140 -138v-690h432v358c0 44 -10 66 -43 79c-34 11 -96 12 -185 12c-3 -23 -14 -53 -23 -74c71 2 136 2 154 1c19 0 24 -4 24 -20v-284h-285v619c0 54 11 66 71 66z" />
</svg>
