<?xml version="1.0" standalone="no"?>
<!DOCTYPE svg PUBLIC "-//W3C//DTD SVG 1.1//EN" "http://www.w3.org/Graphics/SVG/1.1/DTD/svg11.dtd" >
<svg xmlns="http://www.w3.org/2000/svg" xmlns:xlink="http://www.w3.org/1999/xlink" version="1.1" viewBox="-10 0 1010 1000">
   <path fill="currentColor"
d="M323 65l57 35c-25 47 -59 97 -98 146c52 105 62 216 62 333c0 141 -11 268 -53 324c-13 18 -32 28 -56 33c-35 6 -78 7 -122 4c-1 -23 -9 -53 -22 -74c49 4 88 3 111 1c16 -1 25 -7 34 -17c24 -34 34 -146 34 -273c0 -17 0 -35 -1 -51c-54 75 -123 146 -189 191
c-10 -19 -29 -47 -44 -64c81 -46 171 -140 224 -231c-7 -39 -16 -78 -31 -116c-41 45 -83 85 -124 116c-9 -19 -29 -50 -45 -66c44 -29 91 -70 135 -117c-28 -44 -64 -88 -114 -129l55 -42c45 37 80 76 108 115c32 -39 59 -80 79 -118zM957 439v74h-247v443h-78v-443h-244
v-74h244v-269h-213v-74h511v74h-220v269h247z" />
</svg>
