<?xml version="1.0" standalone="no"?>
<!DOCTYPE svg PUBLIC "-//W3C//DTD SVG 1.1//EN" "http://www.w3.org/Graphics/SVG/1.1/DTD/svg11.dtd" >
<svg xmlns="http://www.w3.org/2000/svg" xmlns:xlink="http://www.w3.org/1999/xlink" version="1.1" viewBox="-10 0 1010 1000">
   <path fill="currentColor"
d="M294 48l65 33c-29 52 -67 103 -109 153c55 109 65 226 65 347c0 145 -10 280 -51 337c-15 17 -34 28 -58 33c-35 6 -75 7 -117 5c-1 -25 -9 -51 -22 -72c48 3 87 3 110 0c15 -2 24 -7 33 -18c25 -33 34 -155 34 -286c0 -16 0 -31 -1 -46c-47 68 -106 134 -160 176
c-11 -18 -32 -43 -51 -56c74 -48 157 -141 203 -228c-7 -47 -17 -93 -36 -137c-35 36 -73 68 -111 97c-12 -14 -35 -35 -51 -47c45 -32 89 -72 129 -115c-27 -46 -64 -90 -112 -132l51 -40c44 38 79 77 108 118c32 -41 60 -83 81 -122zM536 871h298c42 0 55 -19 59 -149
c19 12 45 21 67 25c-10 168 -40 197 -130 197h-290c-106 0 -152 -39 -152 -101c0 -48 14 -105 325 -369h-280v-70h376l16 -2l50 27c-3 5 -7 10 -12 13c-375 307 -400 358 -400 392c0 26 28 37 73 37zM522 203h438v70h-475c-36 60 -75 112 -115 156c-15 -13 -46 -38 -65 -48
c86 -82 158 -209 200 -340l77 20c-17 49 -38 96 -60 142z" />
</svg>
