<?xml version="1.0" standalone="no"?>
<!DOCTYPE svg PUBLIC "-//W3C//DTD SVG 1.1//EN" "http://www.w3.org/Graphics/SVG/1.1/DTD/svg11.dtd" >
<svg xmlns="http://www.w3.org/2000/svg" xmlns:xlink="http://www.w3.org/1999/xlink" version="1.1" viewBox="-10 0 1010 1000">
   <path fill="currentColor"
d="M262 45l59 35c-25 51 -58 101 -94 147c46 109 54 223 54 345c0 142 -8 288 -45 340c-12 17 -29 27 -51 30c-26 5 -59 6 -92 4c-1 -23 -6 -49 -18 -69c34 3 63 2 80 0c13 -1 21 -5 28 -14c23 -30 30 -165 30 -292v-31c-38 67 -84 131 -128 174c-10 -17 -29 -46 -44 -60
c60 -51 129 -150 164 -239c-5 -45 -14 -88 -27 -130c-30 32 -61 61 -92 88c-12 -14 -33 -35 -49 -46c39 -32 78 -70 112 -110c-21 -45 -51 -89 -90 -132l51 -36c34 36 62 74 83 111c28 -38 52 -78 69 -115zM640 99l46 33c-39 70 -95 148 -150 205v127l126 -33l9 68l-135 36
v333c0 41 -8 61 -35 72c-26 12 -69 13 -132 13c-3 -20 -14 -49 -22 -69c46 1 88 1 101 0s17 -4 17 -17v-312c-46 13 -89 24 -127 34l-16 -71c40 -9 89 -22 143 -36v-163c40 -38 84 -95 116 -148h-224v-67h269zM799 877h68c24 0 27 -37 30 -186c17 14 44 27 63 31
c-6 164 -20 219 -87 219h-84c-68 0 -86 -26 -86 -116v-755h70v757c0 43 4 50 26 50z" />
</svg>
