<?xml version="1.0" standalone="no"?>
<!DOCTYPE svg PUBLIC "-//W3C//DTD SVG 1.1//EN" "http://www.w3.org/Graphics/SVG/1.1/DTD/svg11.dtd" >
<svg xmlns="http://www.w3.org/2000/svg" xmlns:xlink="http://www.w3.org/1999/xlink" version="1.1" viewBox="-10 0 1010 1000">
   <path fill="currentColor"
d="M302 48l65 33c-29 51 -67 102 -109 150c58 111 68 229 68 350c0 147 -11 278 -52 336c-15 18 -34 29 -59 33c-36 7 -80 8 -123 6c-1 -25 -9 -51 -22 -73c50 4 92 4 115 1c16 -2 26 -7 35 -19c26 -34 36 -152 36 -285c0 -18 0 -35 -1 -53c-50 73 -114 141 -171 185
c-12 -17 -33 -42 -50 -56c76 -49 163 -146 211 -236c-7 -46 -18 -91 -38 -135c-38 38 -78 73 -119 104c-11 -15 -35 -36 -51 -48c47 -33 94 -75 136 -120c-29 -44 -67 -87 -117 -129l51 -40c46 38 83 77 112 117c33 -40 62 -82 83 -121zM786 873h77c24 0 29 -24 32 -155
c16 14 45 26 65 32c-6 150 -25 191 -90 191h-94c-73 0 -91 -24 -91 -104v-394l-99 11c-11 250 -43 415 -237 508c-10 -19 -32 -48 -50 -61c176 -79 203 -219 212 -440c-83 10 -104 15 -119 22c-4 -17 -17 -54 -26 -75c20 -4 38 -30 63 -66c25 -35 106 -176 152 -306l79 27
c-52 117 -118 238 -183 331l331 -30c-31 -54 -67 -112 -98 -161l61 -32c60 93 139 217 177 289l-66 39c-10 -21 -23 -45 -38 -72l-86 9v401c0 31 4 36 28 36z" />
</svg>
