<?xml version="1.0" standalone="no"?>
<!DOCTYPE svg PUBLIC "-//W3C//DTD SVG 1.1//EN" "http://www.w3.org/Graphics/SVG/1.1/DTD/svg11.dtd" >
<svg xmlns="http://www.w3.org/2000/svg" xmlns:xlink="http://www.w3.org/1999/xlink" version="1.1" viewBox="-10 0 1010 1000">
   <path fill="currentColor"
d="M302 48l65 33c-30 51 -67 102 -109 150c58 111 68 228 68 350c0 147 -11 278 -52 335c-15 19 -34 29 -59 33c-36 7 -80 8 -123 6c-1 -24 -9 -51 -22 -72c50 4 92 4 115 1c16 -2 26 -7 35 -19c26 -34 36 -152 36 -285c0 -18 0 -35 -1 -52c-50 71 -114 140 -172 184
c-11 -17 -32 -42 -49 -56c76 -49 163 -145 212 -235c-8 -47 -20 -92 -39 -136c-38 38 -78 73 -119 104c-11 -15 -35 -36 -51 -48c47 -34 93 -75 135 -119c-28 -45 -66 -88 -116 -130l51 -40c46 38 83 77 112 117c33 -40 61 -81 83 -121zM691 571h173v-262h-173v262zM453 571
h164v-262h-164v262zM691 238h247v455h-74v-50h-173v312h-74v-312h-164v56h-71v-461h235v-194h74v194z" />
</svg>
