<?xml version="1.0" standalone="no"?>
<!DOCTYPE svg PUBLIC "-//W3C//DTD SVG 1.1//EN" "http://www.w3.org/Graphics/SVG/1.1/DTD/svg11.dtd" >
<svg xmlns="http://www.w3.org/2000/svg" xmlns:xlink="http://www.w3.org/1999/xlink" version="1.1" viewBox="-10 0 1010 1000">
   <path fill="currentColor"
d="M299 60l65 34c-29 50 -66 100 -106 149c53 107 63 221 63 340c0 145 -11 277 -52 333c-13 17 -33 29 -57 33c-35 7 -76 7 -118 5c0 -24 -9 -51 -21 -72c48 4 87 3 109 1c15 -2 25 -7 34 -18c24 -33 34 -154 34 -284v-35c-47 67 -106 133 -161 175
c-11 -17 -32 -42 -50 -56c74 -48 156 -141 203 -228c-7 -48 -17 -94 -36 -139c-36 36 -75 70 -113 100c-12 -15 -35 -35 -51 -47c46 -34 90 -74 132 -118c-28 -46 -65 -91 -115 -134l51 -40c46 38 81 78 110 120c31 -40 59 -81 79 -119zM668 394h-147v177h147v-177zM595 869
h225c51 0 60 -20 66 -119c17 11 45 22 65 27c-10 122 -32 157 -128 157h-231c-108 0 -140 -23 -140 -116v-470c-22 33 -47 63 -71 89c-11 -14 -37 -40 -51 -53c84 -81 155 -207 197 -338l67 18c-11 31 -23 64 -36 94h342v34c-2 342 -3 455 -25 488c-15 22 -34 30 -61 33
c-25 3 -65 2 -108 0c-1 -19 -8 -48 -19 -66c41 3 79 4 96 4c14 0 22 -2 29 -14c14 -22 17 -124 18 -412h-303c-20 38 -41 74 -64 107h271v302h-213v184c0 42 11 51 74 51z" />
</svg>
