<?xml version="1.0" standalone="no"?>
<!DOCTYPE svg PUBLIC "-//W3C//DTD SVG 1.1//EN" "http://www.w3.org/Graphics/SVG/1.1/DTD/svg11.dtd" >
<svg xmlns="http://www.w3.org/2000/svg" xmlns:xlink="http://www.w3.org/1999/xlink" version="1.1" viewBox="-10 0 1010 1000">
   <path fill="currentColor"
d="M958 244h-471c-32 68 -70 128 -111 174c-14 -12 -43 -37 -61 -48c76 -78 137 -201 171 -327l72 15c-11 41 -24 80 -40 118h440v68zM302 48l65 33c-29 51 -68 102 -110 150c58 111 68 229 68 350c0 147 -11 278 -53 336c-14 18 -33 30 -58 33c-36 7 -79 8 -122 6
c-1 -25 -9 -51 -22 -73c50 4 91 4 114 1c16 -2 26 -7 34 -19c27 -34 37 -152 37 -285c0 -17 0 -34 -1 -51c-50 71 -113 139 -171 184c-11 -18 -32 -43 -49 -56c76 -49 162 -145 211 -235c-8 -47 -19 -92 -39 -136c-37 37 -77 73 -118 103c-11 -15 -35 -36 -51 -48
c47 -33 94 -74 135 -119c-29 -44 -66 -88 -116 -130l51 -40c46 38 83 77 112 117c33 -40 62 -81 83 -121zM592 886h235c54 0 63 -21 70 -121c17 11 45 23 65 27c-11 124 -33 160 -132 160h-241c-112 0 -144 -25 -144 -120v-245l-85 32l-21 -61l106 -41v-172h69v146l126 -47
v-166h68v139l131 -49l8 -6l13 -10l46 17l-2 12c-1 139 -3 266 -6 294c-3 33 -20 51 -46 57c-23 7 -56 7 -79 6c-2 -19 -8 -45 -16 -61c19 2 47 1 56 1c12 0 19 -3 21 -19c3 -14 5 -101 5 -220l-131 49v298h-68v-273l-126 48v272c0 43 12 53 78 53z" />
</svg>
