<?xml version="1.0" standalone="no"?>
<!DOCTYPE svg PUBLIC "-//W3C//DTD SVG 1.1//EN" "http://www.w3.org/Graphics/SVG/1.1/DTD/svg11.dtd" >
<svg xmlns="http://www.w3.org/2000/svg" xmlns:xlink="http://www.w3.org/1999/xlink" version="1.1" viewBox="-10 0 1010 1000">
   <path fill="currentColor"
d="M305 64l57 36c-24 40 -54 83 -89 124c61 110 71 229 71 354c0 141 -10 271 -50 326c-13 17 -32 27 -56 31c-32 7 -73 7 -114 5c-1 -24 -10 -52 -23 -73c47 4 84 3 106 1c15 -2 25 -7 32 -17c25 -32 33 -148 33 -275c0 -20 0 -40 -1 -59c-51 77 -118 152 -180 199
c-9 -20 -29 -48 -44 -64c80 -50 166 -152 213 -246c-8 -43 -19 -85 -38 -126c-45 47 -94 92 -138 124c-10 -20 -30 -50 -45 -67c48 -28 100 -72 148 -121c-25 -36 -56 -73 -95 -108l52 -40c36 31 65 63 90 96c28 -33 52 -68 71 -100zM515 663v192h276v-192h-276zM791 169
h-276v174h276v-174zM791 595v-184h-276v184h276zM865 855h92v70h-626v-70h112v-755h422v755z" />
</svg>
