<?xml version="1.0" standalone="no"?>
<!DOCTYPE svg PUBLIC "-//W3C//DTD SVG 1.1//EN" "http://www.w3.org/Graphics/SVG/1.1/DTD/svg11.dtd" >
<svg xmlns="http://www.w3.org/2000/svg" xmlns:xlink="http://www.w3.org/1999/xlink" version="1.1" viewBox="-10 0 1010 1000">
   <path fill="currentColor"
d="M299 47l66 33c-29 51 -67 101 -108 149c60 112 70 230 70 352c0 148 -11 279 -53 337c-15 17 -34 29 -59 33c-35 7 -78 7 -122 5c-1 -24 -9 -51 -22 -72c50 4 91 3 114 1c16 -2 26 -8 35 -19c26 -34 36 -153 36 -286c0 -19 0 -36 -1 -55c-50 74 -114 143 -172 189
c-11 -18 -32 -43 -50 -57c76 -49 164 -148 212 -240c-8 -45 -19 -89 -38 -133c-38 39 -77 74 -118 104c-11 -14 -35 -36 -51 -48c46 -33 93 -74 135 -119c-29 -45 -66 -87 -116 -129l52 -40c45 37 81 75 110 114c31 -39 60 -80 80 -119zM827 644h-352v193h352v-193zM405 956
v-380h495v376h-73v-46h-352v50h-70zM957 256h-277v145h245v70h-560v-70h242v-145h-270v-69h270v-131h73v131h277v69z" />
</svg>
