<?xml version="1.0" standalone="no"?>
<!DOCTYPE svg PUBLIC "-//W3C//DTD SVG 1.1//EN" "http://www.w3.org/Graphics/SVG/1.1/DTD/svg11.dtd" >
<svg xmlns="http://www.w3.org/2000/svg" xmlns:xlink="http://www.w3.org/1999/xlink" version="1.1" viewBox="-10 0 1010 1000">
   <path fill="currentColor"
d="M299 60l65 34c-29 51 -67 102 -108 149c53 108 62 222 62 339c0 145 -11 279 -52 335c-13 16 -33 28 -57 32c-35 7 -75 7 -116 5c-1 -24 -9 -51 -21 -72c47 4 85 3 108 1c15 -2 24 -7 33 -18c24 -33 33 -153 33 -284v-32c-47 67 -105 130 -159 173
c-12 -18 -32 -43 -50 -56c73 -48 154 -140 201 -227c-6 -48 -17 -94 -34 -139c-35 35 -73 69 -111 98c-12 -15 -35 -35 -51 -47c45 -32 89 -74 130 -117c-27 -47 -64 -91 -114 -135l52 -40c45 39 81 79 109 120c32 -40 60 -80 80 -119zM462 542h146v-237h-146v237zM827 305
h-145v237h145v-237zM960 926l-74 26c-6 -24 -16 -52 -28 -84c-183 23 -372 44 -505 58l-15 -77c72 -6 166 -16 270 -27v-215h-218v-368h218v-193h74v193h220v368h-220v207l148 -15c-20 -45 -41 -92 -61 -133l68 -20c46 89 100 209 123 280z" />
</svg>
