<?xml version="1.0" standalone="no"?>
<!DOCTYPE svg PUBLIC "-//W3C//DTD SVG 1.1//EN" "http://www.w3.org/Graphics/SVG/1.1/DTD/svg11.dtd" >
<svg xmlns="http://www.w3.org/2000/svg" xmlns:xlink="http://www.w3.org/1999/xlink" version="1.1" viewBox="-10 0 1010 1000">
   <path fill="currentColor"
d="M302 48l65 33c-29 51 -67 102 -109 150c58 111 68 228 68 350c0 147 -11 278 -52 336c-15 18 -34 29 -59 33c-36 7 -80 8 -123 6c-1 -25 -9 -51 -22 -73c50 4 92 4 115 1c16 -2 26 -7 35 -19c26 -34 36 -152 36 -285c0 -18 0 -35 -1 -53c-50 73 -114 141 -171 185
c-12 -17 -33 -42 -50 -55c76 -49 163 -147 211 -237c-7 -46 -18 -91 -38 -135c-38 38 -78 73 -119 104c-11 -15 -35 -36 -51 -48c47 -33 94 -74 136 -120c-29 -44 -67 -87 -117 -129l51 -40c46 38 83 77 112 117c33 -40 62 -82 83 -121zM946 587h-252
c41 118 123 242 268 302c-16 15 -39 45 -50 66c-135 -66 -217 -190 -262 -305c-41 115 -123 225 -290 308c-10 -16 -34 -43 -52 -58c183 -81 256 -196 284 -313h-229v-71h243c5 -46 6 -92 6 -134v-126h-220v-70h220v-142h75v142h239v70h-239v126c0 43 -2 88 -7 134h266v71z
M418 308l62 -18c29 59 57 137 65 188l-64 19c-9 -51 -35 -130 -63 -189zM807 501l-61 -19c28 -53 65 -138 83 -198l71 22c-29 67 -65 145 -93 195z" />
</svg>
