<?xml version="1.0" standalone="no"?>
<!DOCTYPE svg PUBLIC "-//W3C//DTD SVG 1.1//EN" "http://www.w3.org/Graphics/SVG/1.1/DTD/svg11.dtd" >
<svg xmlns="http://www.w3.org/2000/svg" xmlns:xlink="http://www.w3.org/1999/xlink" version="1.1" viewBox="-10 0 1010 1000">
   <path fill="currentColor"
d="M306 63l58 38c-25 43 -61 90 -100 135c58 109 68 223 68 343c0 142 -10 267 -51 324c-14 17 -33 28 -58 32c-36 7 -78 7 -121 5c-1 -24 -10 -51 -22 -73c49 4 89 4 112 1c15 -2 26 -7 34 -17c26 -34 35 -145 35 -273c0 -15 0 -31 -1 -46c-49 73 -112 142 -171 187
c-10 -21 -30 -50 -47 -67c76 -48 160 -143 208 -234c-7 -44 -18 -86 -37 -127c-43 44 -89 84 -131 115c-10 -20 -30 -53 -46 -69c45 -27 95 -67 141 -112c-27 -40 -62 -79 -107 -118l52 -40c42 36 75 71 103 107c32 -37 61 -75 81 -111zM632 40l67 23l-18 36
c64 94 179 201 275 261c-13 17 -30 48 -38 68c-93 -68 -200 -172 -271 -268c-71 114 -165 213 -266 283c-6 -17 -25 -54 -37 -71c118 -74 227 -194 288 -332zM475 442v-68h346v68h-346zM717 712l59 -27c58 75 124 174 153 238l-64 32c-10 -22 -23 -49 -39 -77
c-368 39 -410 44 -437 57c-4 -19 -18 -56 -26 -72c20 -5 44 -11 61 -30c23 -26 98 -151 135 -217h-168v-69h525v69h-274c-38 64 -95 163 -139 230l287 -28c-23 -37 -48 -74 -73 -106z" />
</svg>
