<?xml version="1.0" standalone="no"?>
<!DOCTYPE svg PUBLIC "-//W3C//DTD SVG 1.1//EN" "http://www.w3.org/Graphics/SVG/1.1/DTD/svg11.dtd" >
<svg xmlns="http://www.w3.org/2000/svg" xmlns:xlink="http://www.w3.org/1999/xlink" version="1.1" viewBox="-10 0 1010 1000">
   <path fill="currentColor"
d="M291 63l57 37c-24 42 -57 87 -94 131c57 109 67 225 67 347c0 141 -10 270 -50 326c-13 17 -32 27 -56 32c-32 5 -72 6 -113 4c0 -24 -9 -52 -22 -73c46 4 83 3 105 1c14 -2 24 -7 31 -17c25 -32 33 -148 33 -275c0 -16 0 -33 -1 -50c-47 74 -108 145 -166 190
c-8 -20 -27 -48 -43 -64c74 -50 155 -146 199 -238c-7 -43 -17 -84 -35 -126c-41 46 -85 86 -126 116c-10 -19 -30 -50 -45 -67c45 -27 93 -68 138 -115c-25 -39 -57 -77 -98 -115l51 -40c38 34 68 68 94 103c29 -36 56 -72 74 -107zM816 647v-106h-155v106h155zM661 371
v102h155v-102h-155zM713 192h-183c-24 39 -51 78 -79 112h193c24 -31 49 -74 69 -112zM959 473v68h-72v213h-71v-40h-155v156c0 42 -9 62 -38 73c-29 12 -77 13 -148 13c-4 -20 -15 -50 -24 -69c53 1 105 1 119 0c16 -1 20 -4 20 -18v-155h-190v-67h190v-106h-238v-68h238
v-102h-176v-25c-15 16 -28 31 -43 43c-9 -15 -33 -48 -48 -63c81 -68 158 -175 204 -284l71 21c-9 22 -20 43 -30 64h186l11 -4l50 34c-23 48 -59 103 -94 147h166v169h72z" />
</svg>
