<?xml version="1.0" standalone="no"?>
<!DOCTYPE svg PUBLIC "-//W3C//DTD SVG 1.1//EN" "http://www.w3.org/Graphics/SVG/1.1/DTD/svg11.dtd" >
<svg xmlns="http://www.w3.org/2000/svg" xmlns:xlink="http://www.w3.org/1999/xlink" version="1.1" viewBox="-10 0 1010 1000">
   <path fill="currentColor"
d="M881 198l-54 42c-27 -36 -87 -93 -137 -131l50 -37c50 36 111 90 141 126zM284 64l56 35c-23 44 -56 91 -92 136c54 109 63 223 63 343c0 140 -10 274 -49 327c-13 16 -31 26 -54 31c-31 5 -69 6 -108 4c-1 -24 -9 -50 -21 -71c43 4 78 3 99 1c14 -1 24 -6 31 -16
c24 -31 32 -151 32 -278c0 -16 0 -33 -1 -49c-45 72 -103 142 -158 187c-10 -18 -28 -47 -44 -62c72 -50 150 -148 192 -241c-7 -40 -16 -79 -31 -118c-38 43 -80 82 -117 111c-9 -19 -29 -50 -44 -66c41 -28 86 -67 128 -112c-25 -41 -55 -80 -97 -118l51 -38
c37 33 67 67 91 103c29 -37 55 -74 73 -109zM728 862h131c33 0 39 -22 43 -127c16 12 42 21 61 26c-7 125 -27 163 -100 163h-143c-74 0 -100 -19 -104 -83c-35 13 -70 25 -105 35c-9 -15 -26 -36 -41 -48c49 -13 98 -29 145 -47v-456h-60c-15 239 -58 480 -193 626
c-13 -16 -36 -36 -55 -47c128 -133 168 -356 181 -579h-132v-68h135c3 -73 4 -144 4 -212h68c0 68 -1 139 -4 212h391v68h-266v131c58 -26 114 -64 148 -101l53 21c-49 57 -128 107 -201 141v81c73 -30 142 -74 181 -122l54 19c-54 69 -145 126 -235 163v93
c84 -39 159 -86 209 -136l59 28c-66 66 -162 125 -268 171v5c0 36 7 43 44 43z" />
</svg>
