<?xml version="1.0" standalone="no"?>
<!DOCTYPE svg PUBLIC "-//W3C//DTD SVG 1.1//EN" "http://www.w3.org/Graphics/SVG/1.1/DTD/svg11.dtd" >
<svg xmlns="http://www.w3.org/2000/svg" xmlns:xlink="http://www.w3.org/1999/xlink" version="1.1" viewBox="-10 0 1010 1000">
   <path fill="currentColor"
d="M297 60l68 35c-29 51 -66 102 -107 150c51 107 60 219 60 337c0 145 -10 279 -52 333c-12 18 -32 29 -56 33c-35 7 -75 7 -117 5c-1 -24 -9 -53 -22 -74c47 4 85 3 108 1c15 -2 24 -7 32 -18c25 -32 34 -152 34 -282v-26c-46 66 -103 128 -156 170
c-12 -19 -34 -45 -53 -59c73 -48 155 -140 201 -226c-6 -46 -16 -91 -33 -135c-35 35 -73 67 -110 97c-12 -16 -36 -37 -53 -50c45 -32 89 -73 129 -117c-27 -46 -64 -90 -113 -133l54 -42c45 38 80 77 108 119c31 -40 57 -80 78 -118zM470 353v124h146v-124h-146zM470 166
v123h146v-123h-146zM835 289v-123h-148v123h148zM835 477v-124h-148v124h148zM693 854h264v72h-627v-72h281v-134h-226v-71h226v-104h-213v-446h511v446h-216v104h226v71h-226v134z" />
</svg>
