<?xml version="1.0" standalone="no"?>
<!DOCTYPE svg PUBLIC "-//W3C//DTD SVG 1.1//EN" "http://www.w3.org/Graphics/SVG/1.1/DTD/svg11.dtd" >
<svg xmlns="http://www.w3.org/2000/svg" xmlns:xlink="http://www.w3.org/1999/xlink" version="1.1" viewBox="-10 0 1010 1000">
   <path fill="currentColor"
d="M816 290v-125h-311v125h311zM816 479v-124h-311v124h311zM816 670v-126h-311v126h311zM891 98v640h-459v-640h459zM302 48l65 33c-30 51 -67 102 -109 150c58 111 68 228 68 350c0 147 -11 278 -52 335c-15 19 -34 29 -59 33c-36 7 -80 8 -123 6c-1 -24 -9 -51 -22 -72
c50 4 92 4 115 1c16 -2 26 -7 35 -19c26 -34 36 -152 36 -285c0 -18 0 -35 -1 -52c-50 71 -114 140 -172 184c-11 -17 -32 -42 -49 -56c76 -49 163 -145 212 -235c-8 -47 -20 -92 -39 -136c-38 38 -78 73 -119 104c-11 -15 -35 -36 -51 -48c47 -34 93 -75 135 -119
c-28 -45 -66 -88 -116 -130l51 -40c46 38 83 77 112 117c33 -40 61 -81 83 -121zM531 749l73 37c-53 62 -141 132 -217 171c-14 -14 -44 -36 -63 -48c79 -37 165 -106 207 -160zM710 792l55 -41c72 51 150 117 194 166l-68 40c-40 -48 -114 -115 -181 -165z" />
</svg>
