<?xml version="1.0" standalone="no"?>
<!DOCTYPE svg PUBLIC "-//W3C//DTD SVG 1.1//EN" "http://www.w3.org/Graphics/SVG/1.1/DTD/svg11.dtd" >
<svg xmlns="http://www.w3.org/2000/svg" xmlns:xlink="http://www.w3.org/1999/xlink" version="1.1" viewBox="-10 0 1010 1000">
   <path fill="currentColor"
d="M961 467l-64 22c-10 -74 -48 -186 -88 -271l59 -19c42 84 80 195 93 268zM767 43v593h-70v-593h70zM585 203l68 12c-24 130 -63 261 -109 347c-12 -9 -42 -26 -59 -34c47 -81 81 -206 100 -325zM550 150l-45 58c-28 -31 -87 -73 -136 -98l43 -52c49 23 109 61 138 92z
M494 397l-42 58c-28 -27 -88 -62 -137 -85l39 -53c49 19 110 52 140 80zM261 64l54 33c-21 46 -52 95 -85 141c45 106 52 217 52 338c0 138 -7 280 -44 330c-12 17 -29 27 -51 31c-26 4 -59 5 -93 4c0 -24 -7 -50 -19 -70c35 2 65 2 82 0c12 -1 21 -5 27 -14
c23 -29 30 -159 30 -283v-29c-39 65 -88 128 -135 169c-8 -17 -26 -48 -39 -63c61 -48 131 -141 167 -225c-5 -44 -14 -86 -26 -127c-36 41 -73 77 -108 105c-8 -20 -25 -50 -38 -68c39 -26 79 -64 117 -107c-21 -43 -51 -86 -89 -127l51 -37c34 36 61 71 82 108
c27 -35 49 -72 65 -109zM443 572l55 42c-41 106 -97 233 -144 327l-63 -42c43 -79 106 -212 152 -327zM857 513l66 17c-56 219 -180 356 -404 430c-8 -21 -26 -47 -41 -63c210 -60 327 -183 379 -384z" />
</svg>
