<?xml version="1.0" standalone="no"?>
<!DOCTYPE svg PUBLIC "-//W3C//DTD SVG 1.1//EN" "http://www.w3.org/Graphics/SVG/1.1/DTD/svg11.dtd" >
<svg xmlns="http://www.w3.org/2000/svg" xmlns:xlink="http://www.w3.org/1999/xlink" version="1.1" viewBox="-10 0 1010 1000">
   <path fill="currentColor"
d="M951 159v66h-579v-66h253c-12 -31 -29 -69 -42 -99l69 -19c18 37 40 84 53 118h246zM289 64l54 36c-23 42 -56 89 -91 133c56 109 66 225 66 345c0 142 -10 268 -49 324c-13 18 -32 29 -54 33c-34 7 -73 7 -115 5c-1 -24 -9 -52 -22 -73c48 4 85 3 108 1
c14 -2 23 -7 31 -18c24 -33 33 -146 33 -274c0 -18 0 -36 -1 -54c-47 76 -108 147 -165 193c-8 -19 -27 -48 -42 -63c74 -49 153 -148 197 -239c-7 -43 -18 -84 -36 -125c-41 46 -84 86 -125 116c-9 -19 -27 -50 -42 -66c43 -27 91 -68 134 -114c-26 -39 -59 -79 -101 -116
l50 -41c39 34 70 69 96 105c29 -36 56 -73 74 -108zM462 640l66 19c-40 83 -100 173 -150 233c-12 -11 -40 -33 -56 -42c51 -54 105 -136 140 -210zM488 376v146h331v-146h-331zM892 588h-201v281c0 39 -9 57 -37 68c-30 11 -75 11 -148 11c-4 -19 -15 -47 -25 -65
c53 1 104 1 118 1c14 -1 19 -4 19 -17v-279h-200v-279h474v279zM766 667l60 -24c46 69 100 160 126 217l-63 28c-25 -58 -78 -152 -123 -221z" />
</svg>
