<?xml version="1.0" standalone="no"?>
<!DOCTYPE svg PUBLIC "-//W3C//DTD SVG 1.1//EN" "http://www.w3.org/Graphics/SVG/1.1/DTD/svg11.dtd" >
<svg xmlns="http://www.w3.org/2000/svg" xmlns:xlink="http://www.w3.org/1999/xlink" version="1.1" viewBox="-10 0 1010 1000">
   <path fill="currentColor"
d="M646 466v97h-72v-519h72v86h281v58h-281v79h258v57h-258v82h303v60h-303zM848 597l-46 40c-30 -28 -89 -66 -138 -92l45 -35c49 22 108 59 139 87zM350 562v-98h-295v-60h295v-81h-243v-56h243v-79h-272v-57h272v-88h71v519h-71zM946 708h-384c67 112 202 166 397 183
c-16 16 -34 45 -43 65c-212 -28 -353 -98 -424 -246c-54 124 -166 206 -414 248c-6 -18 -23 -45 -36 -61c219 -33 320 -95 371 -189h-358v-61h384c10 -32 17 -67 22 -106h74c-5 39 -12 74 -21 106h432v61z" />
</svg>
