<?xml version="1.0" standalone="no"?>
<!DOCTYPE svg PUBLIC "-//W3C//DTD SVG 1.1//EN" "http://www.w3.org/Graphics/SVG/1.1/DTD/svg11.dtd" >
<svg xmlns="http://www.w3.org/2000/svg" xmlns:xlink="http://www.w3.org/1999/xlink" version="1.1" viewBox="-10 0 1010 1000">
   <path fill="currentColor"
d="M302 47l65 35c-29 50 -67 101 -108 148c60 112 70 229 70 351c0 149 -12 279 -53 336c-15 18 -35 30 -60 34c-36 7 -79 7 -123 5c-1 -24 -8 -51 -22 -72c51 4 92 3 115 1c17 -2 26 -8 35 -19c26 -35 37 -151 37 -286c0 -17 0 -35 -1 -53c-50 73 -114 143 -172 187
c-12 -18 -33 -42 -50 -57c76 -48 163 -146 212 -236c-8 -47 -19 -92 -39 -136c-38 38 -78 73 -120 104c-11 -15 -35 -37 -50 -48c47 -34 94 -75 135 -120c-29 -44 -66 -87 -116 -129l52 -40c46 37 82 77 111 116c32 -40 61 -82 82 -121zM483 484h134c12 -33 15 -68 15 -102
v-3h-149v105zM483 218v104h149v-104h-149zM854 322v-104h-154v104h154zM854 484v-105h-154v3c0 35 -3 69 -11 102h165zM957 697v67h-178v193h-73v-193h-354v-67h108c-11 -13 -32 -32 -46 -41c87 -32 139 -70 172 -112h-170v-386h173c12 -37 25 -82 31 -116l81 18
c-15 33 -29 68 -42 98h265v386h-257c-31 60 -88 113 -193 153h232v-136h73v136h178z" />
</svg>
