<?xml version="1.0" standalone="no"?>
<!DOCTYPE svg PUBLIC "-//W3C//DTD SVG 1.1//EN" "http://www.w3.org/Graphics/SVG/1.1/DTD/svg11.dtd" >
<svg xmlns="http://www.w3.org/2000/svg" xmlns:xlink="http://www.w3.org/1999/xlink" version="1.1" viewBox="-10 0 1010 1000">
   <path fill="currentColor"
d="M812 244v-94h-333v94h333zM812 396v-95h-333v95h333zM884 89v368h-474v-368h474zM294 64l53 36c-24 43 -56 88 -92 132c58 110 68 226 68 347c0 142 -11 268 -50 323c-13 18 -32 29 -55 33c-34 7 -74 7 -117 5c-1 -24 -9 -52 -21 -73c48 4 86 3 109 1c15 -2 24 -7 32 -18
c24 -33 34 -145 34 -273c0 -19 0 -39 -1 -57c-48 76 -111 149 -170 196c-8 -19 -27 -48 -42 -64c75 -49 156 -148 201 -240c-7 -43 -18 -86 -36 -126c-43 46 -87 87 -129 118c-9 -20 -27 -50 -43 -67c45 -27 93 -67 138 -114c-26 -40 -59 -78 -102 -115l49 -42
c40 35 72 70 98 106c30 -36 57 -73 76 -108zM480 862l165 -39c0 19 3 46 6 62c-199 53 -228 63 -246 75v-1l-1 1c-4 -19 -16 -56 -27 -74c15 -6 31 -17 31 -52v-342h72v120h167v65h-167v185zM776 880h90c23 0 28 -17 31 -115c15 12 43 24 63 28c-7 119 -27 150 -88 150h-105
c-74 0 -93 -21 -93 -95v-363h71v157c57 -27 114 -58 151 -85l51 53c-60 33 -134 66 -202 94v144c0 27 4 32 31 32z" />
</svg>
