<?xml version="1.0" standalone="no"?>
<!DOCTYPE svg PUBLIC "-//W3C//DTD SVG 1.1//EN" "http://www.w3.org/Graphics/SVG/1.1/DTD/svg11.dtd" >
<svg xmlns="http://www.w3.org/2000/svg" xmlns:xlink="http://www.w3.org/1999/xlink" version="1.1" viewBox="-10 0 1010 1000">
   <path fill="currentColor"
d="M245 52l61 29c-25 51 -58 103 -95 153c44 109 52 223 52 346c0 143 -8 291 -43 343c-13 16 -29 25 -52 28c-24 5 -57 5 -88 4c0 -21 -7 -48 -18 -68c32 3 61 3 77 1c13 -1 21 -6 28 -14c22 -30 29 -168 29 -295v-28c-35 62 -78 121 -119 161c-10 -17 -29 -43 -44 -57
c57 -48 120 -141 156 -228c-4 -46 -12 -90 -26 -133c-26 31 -54 59 -82 85c-12 -13 -34 -31 -49 -42c36 -32 72 -71 105 -112c-22 -46 -51 -91 -90 -135l51 -35c33 37 60 74 81 112c26 -39 49 -78 66 -115zM521 250v102h149v62h-149v88h146v281c0 27 -4 43 -22 54
c-20 11 -45 11 -85 11c-1 -16 -10 -41 -18 -56c28 1 50 1 58 1c8 -1 10 -3 10 -12v-219h-89v393h-61v-393h-84v291h-58v-351h142v-88h-159v-62h159v-102h-93c-14 33 -29 63 -45 88c-11 -8 -37 -22 -51 -28c43 -60 71 -148 88 -238l57 10c-7 36 -17 72 -27 106h71v-144h61
v144h139v62h-139zM769 150v550h-58v-550h58zM857 63h63v809c0 40 -9 60 -34 72c-24 11 -65 12 -131 12c-3 -17 -13 -47 -22 -65c48 2 91 2 105 1c13 -1 19 -5 19 -20v-809z" />
</svg>
