<?xml version="1.0" standalone="no"?>
<!DOCTYPE svg PUBLIC "-//W3C//DTD SVG 1.1//EN" "http://www.w3.org/Graphics/SVG/1.1/DTD/svg11.dtd" >
<svg xmlns="http://www.w3.org/2000/svg" xmlns:xlink="http://www.w3.org/1999/xlink" version="1.1" viewBox="-10 0 1010 1000">
   <path fill="currentColor"
d="M288 63l53 37c-23 42 -56 88 -91 131c57 110 67 227 67 347c0 143 -10 269 -49 324c-13 18 -31 29 -54 33c-34 7 -73 7 -114 5c-1 -24 -9 -52 -22 -73c48 4 85 3 108 1c14 -2 23 -7 31 -18c24 -33 33 -145 33 -274c0 -18 0 -37 -1 -54c-47 75 -108 148 -165 194
c-9 -20 -27 -48 -42 -64c74 -49 153 -148 197 -240c-8 -43 -18 -85 -36 -125c-41 45 -85 87 -125 117c-9 -20 -27 -50 -42 -67c43 -27 90 -68 133 -114c-25 -39 -58 -78 -100 -116l49 -41c39 34 70 70 96 106c29 -36 56 -73 74 -109zM526 729l71 22
c-48 76 -124 154 -191 206c-14 -13 -42 -36 -60 -47c69 -46 138 -113 180 -181zM711 757l63 -29c61 56 132 136 165 189l-66 35c-31 -53 -101 -136 -162 -195zM459 467v174h89v-174h-89zM548 241h-89v162h89v-162zM691 241h-82v162h82v-162zM840 241h-88v162h88v-162z
M691 641v-174h-82v174h82zM752 467v174h88v-174h-88zM906 641h50v68h-610v-68h50v-467h152v-131h61v131h82v-131h61v131h154v467z" />
</svg>
