<?xml version="1.0" standalone="no"?>
<!DOCTYPE svg PUBLIC "-//W3C//DTD SVG 1.1//EN" "http://www.w3.org/Graphics/SVG/1.1/DTD/svg11.dtd" >
<svg xmlns="http://www.w3.org/2000/svg" xmlns:xlink="http://www.w3.org/1999/xlink" version="1.1" viewBox="-10 0 1010 1000">
   <path fill="currentColor"
d="M299 59l65 35c-29 51 -67 102 -108 149c53 108 62 221 62 339c0 145 -11 279 -52 335c-13 16 -33 28 -57 32c-35 7 -75 7 -116 5c-1 -24 -9 -51 -21 -72c47 4 85 3 108 1c15 -2 24 -7 33 -18c24 -33 34 -154 34 -284v-33c-47 66 -106 131 -160 173
c-12 -17 -32 -42 -50 -56c74 -48 155 -140 202 -227c-6 -47 -17 -93 -35 -138c-35 36 -73 69 -111 98c-12 -14 -35 -35 -51 -47c45 -32 89 -73 131 -117c-28 -47 -65 -92 -115 -135l52 -40c45 39 81 79 109 120c32 -40 60 -80 80 -120zM859 319v-171h-87v171h87zM465 148
v171h103v-171h-103zM715 148h-90v171h90v-171zM925 84v299h-333l36 9c-13 27 -28 54 -44 81h280l13 -3l48 24c-89 249 -301 393 -524 461c-8 -18 -24 -44 -38 -58c102 -28 205 -76 291 -144c-35 -35 -93 -79 -140 -112l47 -40c47 31 107 74 143 109c52 -50 95 -107 126 -173
h-288c-40 56 -86 108 -133 149c-12 -13 -35 -32 -51 -42c80 -65 153 -169 193 -261h-149v-299h523z" />
</svg>
