<?xml version="1.0" standalone="no"?>
<!DOCTYPE svg PUBLIC "-//W3C//DTD SVG 1.1//EN" "http://www.w3.org/Graphics/SVG/1.1/DTD/svg11.dtd" >
<svg xmlns="http://www.w3.org/2000/svg" xmlns:xlink="http://www.w3.org/1999/xlink" version="1.1" viewBox="-10 0 1010 1000">
   <path fill="currentColor"
d="M863 45l43 54c-141 39 -368 64 -556 77c-1 -16 -9 -40 -16 -54c185 -15 407 -42 529 -77zM668 288l-59 18c-5 -33 -19 -88 -36 -129l57 -16c17 40 34 94 38 127zM493 292l-56 24c-9 -29 -30 -78 -48 -115l52 -20c20 35 42 82 52 111zM268 59l51 32c-22 48 -55 99 -91 146
c47 107 55 220 55 341c0 139 -8 280 -44 330c-12 16 -28 25 -51 29c-25 4 -58 5 -91 3c-1 -21 -8 -45 -19 -64c35 2 67 2 84 1c13 -1 21 -6 28 -15c23 -29 30 -161 30 -285v-41c-40 66 -92 132 -140 175c-8 -18 -25 -44 -37 -59c62 -48 133 -142 169 -228
c-6 -45 -15 -89 -29 -131c-36 40 -73 76 -108 104c-7 -19 -24 -48 -37 -64c39 -26 79 -63 117 -105c-21 -43 -51 -85 -89 -126l47 -34c34 35 62 72 84 108c29 -37 54 -79 71 -117zM790 660h-226c30 47 71 89 120 124c44 -34 80 -75 106 -124zM839 597l42 23
c-32 82 -81 148 -141 200c65 36 142 62 224 77c-15 15 -34 42 -43 62c-88 -20 -169 -53 -237 -97c-67 44 -145 75 -225 97c-8 -16 -29 -44 -42 -56c77 -18 149 -44 212 -81c-46 -39 -87 -83 -117 -134c-41 110 -100 198 -183 267c-12 -13 -40 -36 -56 -47
c116 -85 182 -215 217 -384h-147v-62h159c4 -25 8 -52 11 -79h-153v-61h369c30 -45 70 -121 89 -172l68 21c-28 51 -60 109 -88 151h126v61h-342c-3 27 -7 54 -12 79h370v62h-382c-5 26 -11 52 -18 76h288z" />
</svg>
