<?xml version="1.0" standalone="no"?>
<!DOCTYPE svg PUBLIC "-//W3C//DTD SVG 1.1//EN" "http://www.w3.org/Graphics/SVG/1.1/DTD/svg11.dtd" >
<svg xmlns="http://www.w3.org/2000/svg" xmlns:xlink="http://www.w3.org/1999/xlink" version="1.1" viewBox="-10 0 1010 1000">
   <path fill="currentColor"
d="M941 251l-59 26c-17 -46 -57 -117 -97 -170l55 -22c41 51 84 121 101 166zM140 819h327v-86h-327v86zM216 391h-76v200c66 -54 76 -126 76 -200zM269 253v79h64v-79h-64zM467 391h-81v117c0 14 1 22 4 26c3 2 9 3 15 3h28h20c3 0 8 0 10 -1s3 -1 4 -2v-143zM140 601v74
h327v-94c-9 1 -20 2 -29 2h-46c-16 0 -34 -3 -44 -13c-11 -10 -15 -23 -15 -70v-109h-64c0 94 -12 179 -92 243c-8 -11 -24 -25 -37 -33zM952 383h-172c26 223 78 419 185 518c-17 12 -40 39 -52 57c-85 -88 -136 -229 -167 -398c-23 136 -73 279 -181 395
c-8 -9 -22 -23 -37 -35v10h-61v-49h-327v65h-61v-614h137v-79h-170v-63h142c-10 -37 -32 -90 -56 -129l64 -20c27 42 53 99 61 136l-37 13h127c24 -43 51 -105 66 -149l72 19c-20 44 -45 92 -67 130h141v63h-173v79h142v556c134 -150 160 -348 165 -505h-145v-69h146v-21
v-246h70v246v21h188v69z" />
</svg>
