<?xml version="1.0" standalone="no"?>
<!DOCTYPE svg PUBLIC "-//W3C//DTD SVG 1.1//EN" "http://www.w3.org/Graphics/SVG/1.1/DTD/svg11.dtd" >
<svg xmlns="http://www.w3.org/2000/svg" xmlns:xlink="http://www.w3.org/1999/xlink" version="1.1" viewBox="-10 0 1010 1000">
   <path fill="currentColor"
d="M878 55l44 57c-140 36 -360 58 -543 67c-2 -16 -11 -41 -18 -57c179 -12 397 -35 517 -67zM697 318l-60 21c-7 -36 -29 -96 -50 -140l57 -18c22 43 45 102 53 137zM521 316l-60 25c-10 -32 -36 -83 -60 -121l57 -21c24 37 52 85 63 117zM285 65l51 32
c-22 45 -54 92 -88 137c49 108 56 222 56 344c0 139 -9 280 -45 330c-13 16 -29 25 -51 29c-33 5 -71 5 -111 3c-1 -21 -10 -46 -21 -64c46 3 82 3 105 1c13 -1 22 -6 29 -15c22 -31 31 -161 31 -285v-45c-47 69 -107 137 -163 180c-8 -18 -24 -45 -37 -60
c71 -46 150 -138 193 -224c-6 -48 -16 -95 -31 -140c-39 43 -81 82 -121 112c-8 -19 -23 -47 -36 -64c43 -26 88 -65 129 -111c-21 -41 -51 -82 -88 -123l47 -33c33 34 61 70 82 106c28 -36 52 -74 69 -110zM680 627v220h163v-165h69v275h-69v-47h-456v-221h68v158h154v-220
h-253v-64h253v-112h-122c-22 35 -49 67 -76 90c-12 -10 -40 -31 -55 -40c52 -40 95 -101 119 -165l64 16c-5 12 -9 23 -15 35h222c37 -62 82 -154 107 -221l73 26c-33 63 -72 137 -108 195h102v64h-240v112h276v64h-276z" />
</svg>
