<?xml version="1.0" standalone="no"?>
<!DOCTYPE svg PUBLIC "-//W3C//DTD SVG 1.1//EN" "http://www.w3.org/Graphics/SVG/1.1/DTD/svg11.dtd" >
<svg xmlns="http://www.w3.org/2000/svg" xmlns:xlink="http://www.w3.org/1999/xlink" version="1.1" viewBox="-10 0 1010 1000">
   <path fill="currentColor"
d="M307 63l58 36c-28 51 -67 108 -111 160c42 101 49 206 49 319c0 139 -9 273 -48 328c-11 16 -30 26 -52 30c-31 6 -69 6 -106 5c-1 -24 -9 -54 -22 -75c40 3 74 3 94 1c13 -1 22 -6 30 -16c23 -30 31 -150 31 -276v-15c-43 67 -96 128 -146 169c-9 -18 -28 -47 -44 -62
c67 -47 140 -139 184 -227c-5 -40 -13 -80 -24 -118c-37 38 -74 72 -109 100c-10 -21 -30 -50 -46 -67c41 -27 84 -65 125 -107c-24 -48 -58 -94 -104 -139l55 -41c42 41 75 82 99 124c35 -43 65 -87 87 -129zM496 734h294v-70h-294v70zM790 537h-294v70h294v-70zM861 477
v404c0 38 -7 55 -34 66s-70 11 -138 11c-4 -18 -13 -43 -22 -61c48 2 93 2 105 1c14 -1 18 -5 18 -16v-91h-294v165h-68v-479h433zM490 258v91h140v-91h-140zM786 140h-296v67h200v142h96v-209zM856 349h87v168h-71v-108h-463v108h-69v-168h82v-269h434v269z" />
</svg>
