<?xml version="1.0" standalone="no"?>
<!DOCTYPE svg PUBLIC "-//W3C//DTD SVG 1.1//EN" "http://www.w3.org/Graphics/SVG/1.1/DTD/svg11.dtd" >
<svg xmlns="http://www.w3.org/2000/svg" xmlns:xlink="http://www.w3.org/1999/xlink" version="1.1" viewBox="-10 0 1010 1000">
   <path fill="currentColor"
d="M265 65l53 30c-22 47 -54 97 -90 143c47 107 55 219 55 340c0 139 -8 281 -45 331c-12 15 -29 24 -51 28c-26 4 -59 5 -93 4c0 -22 -7 -46 -19 -65c36 2 67 2 84 1c12 -1 21 -6 28 -14c23 -30 30 -162 30 -286v-38c-40 66 -91 130 -138 172c-9 -18 -26 -44 -39 -59
c62 -48 133 -141 170 -225c-6 -46 -15 -88 -28 -130c-36 40 -74 76 -110 103c-7 -19 -24 -47 -37 -63c39 -26 81 -64 119 -107c-22 -44 -52 -87 -91 -128l49 -34c34 36 63 72 84 109c28 -37 52 -75 69 -112zM734 459h-172c-20 31 -41 61 -66 87c86 -11 180 -27 234 -47
l45 47c-28 11 -63 20 -100 28v88h226v59h-182c67 42 141 93 182 129l-37 50c-41 -38 -119 -95 -189 -140v197h-64v-200c-62 70 -151 140 -226 177c-10 -17 -29 -41 -43 -54c78 -31 172 -95 232 -159h-189v-59h226v-77c-39 5 -79 10 -117 13c-2 -11 -6 -25 -12 -38
c-36 35 -77 67 -124 93c-9 -14 -34 -41 -49 -54c72 -36 128 -82 172 -140h-139v-63h180c12 -21 23 -45 32 -69h-146v-59h167c6 -22 12 -44 17 -67h-214v-61h225c5 -30 10 -63 13 -96l67 8c-4 30 -8 60 -13 88h252v61h-263c-5 23 -10 45 -16 67l247 -1v60h-265
c-9 24 -19 47 -29 69h355v63h-147c42 56 101 106 161 134c-13 17 -27 45 -34 65c-79 -45 -153 -120 -197 -199z" />
</svg>
