<?xml version="1.0" standalone="no"?>
<!DOCTYPE svg PUBLIC "-//W3C//DTD SVG 1.1//EN" "http://www.w3.org/Graphics/SVG/1.1/DTD/svg11.dtd" >
<svg xmlns="http://www.w3.org/2000/svg" xmlns:xlink="http://www.w3.org/1999/xlink" version="1.1" viewBox="-10 0 1010 1000">
   <path fill="currentColor"
d="M261 65l51 30c-22 47 -53 97 -88 145c45 105 53 218 53 337c0 139 -8 282 -43 332c-12 15 -28 24 -51 28c-24 4 -57 5 -90 4c-1 -22 -7 -46 -18 -65c34 2 65 2 82 1c12 -1 20 -6 27 -14c23 -30 30 -162 30 -287v-39c-40 67 -90 131 -137 174c-8 -18 -25 -45 -37 -59
c61 -47 131 -142 167 -226c-6 -44 -14 -87 -28 -130c-35 41 -72 77 -108 104c-7 -18 -24 -47 -36 -63c39 -26 79 -64 117 -107c-21 -43 -51 -87 -89 -128l47 -33c34 35 62 72 83 110c27 -38 51 -77 68 -114zM840 289h-102c-4 12 -8 24 -11 35c10 103 28 215 64 317
c30 -97 43 -214 49 -352zM954 289h-49c-9 178 -30 321 -78 437c35 68 80 127 140 170c-14 13 -37 41 -47 60c-53 -43 -96 -96 -128 -157c-37 62 -86 115 -150 161c-5 -15 -25 -47 -38 -60c70 -44 119 -102 154 -174c-38 -94 -60 -197 -73 -294c-12 25 -24 46 -37 67
c-3 -5 -7 -10 -13 -17v57h-183c-2 32 -5 63 -8 91h175s0 19 -1 29c-9 170 -18 236 -38 259c-13 16 -28 22 -50 24c-18 2 -53 2 -89 0c-1 -20 -7 -45 -16 -62c33 4 62 4 74 4c13 0 20 -1 26 -9c11 -14 19 -62 26 -185h-116c-19 114 -57 202 -126 266c-9 -13 -33 -39 -48 -50
c89 -77 116 -201 123 -367h-89v-62h145v-104h-119v-62h119v-93h-132v-62h132v-101h67v101h129v62h-129v93h109v62h-109v104h123c-11 -11 -23 -22 -32 -30c63 -98 104 -250 127 -404l66 12c-10 58 -21 116 -35 170h198v64z" />
</svg>
