<?xml version="1.0" standalone="no"?>
<!DOCTYPE svg PUBLIC "-//W3C//DTD SVG 1.1//EN" "http://www.w3.org/Graphics/SVG/1.1/DTD/svg11.dtd" >
<svg xmlns="http://www.w3.org/2000/svg" xmlns:xlink="http://www.w3.org/1999/xlink" version="1.1" viewBox="-10 0 1010 1000">
   <path fill="currentColor"
d="M706 666l20 -50c76 10 159 30 210 50l-24 54c-49 -21 -132 -42 -206 -54zM735 594l-21 -46c50 -9 131 -35 176 -50l28 54c-53 20 -131 35 -183 42zM829 265v-82h-362v82h362zM829 402v-83h-362v83h362zM902 127v331h-505v-331h176c9 -26 17 -56 23 -82l84 8
c-10 26 -22 50 -33 74h255zM578 546l-23 52c-40 -16 -119 -37 -178 -49l23 -46c56 9 134 27 178 43zM582 617l1 52c-70 20 -145 42 -201 57l-17 -60c54 -10 137 -31 217 -49zM288 64l53 36c-23 42 -56 88 -91 133c56 109 66 225 66 346c0 142 -10 268 -48 323
c-13 18 -32 29 -55 33c-33 7 -72 7 -114 5c0 -24 -9 -52 -22 -73c49 4 86 3 108 1c14 -2 24 -7 31 -17c24 -33 33 -146 33 -274c0 -19 0 -37 -1 -55c-47 75 -107 148 -165 194c-8 -20 -26 -48 -41 -64c73 -49 152 -147 196 -239c-7 -43 -18 -84 -36 -126
c-41 46 -84 87 -125 117c-8 -20 -26 -50 -41 -67c43 -26 90 -67 133 -113c-25 -39 -58 -79 -100 -116l49 -41c39 34 70 70 96 106c29 -36 56 -74 74 -109zM953 751l1 64h-272v143h-71v-143h-272v-64h272v-269h71v269h271z" />
</svg>
