<?xml version="1.0" standalone="no"?>
<!DOCTYPE svg PUBLIC "-//W3C//DTD SVG 1.1//EN" "http://www.w3.org/Graphics/SVG/1.1/DTD/svg11.dtd" >
<svg xmlns="http://www.w3.org/2000/svg" xmlns:xlink="http://www.w3.org/1999/xlink" version="1.1" viewBox="-10 0 1010 1000">
   <path fill="currentColor"
d="M604 259v-71h-197v-58h197v-86h70v86h210v58h-210v71h271v58h-601v-58h260zM626 525h122v-75h-90v-53h90v-70h66v70h102v53h-102v75h128v54h-316v-54zM344 549l111 -16v-83h-91v-53h91v-70h65v70h90v53h-90v73c31 -4 63 -9 95 -14l2 53c-93 15 -188 30 -262 41zM286 46
l64 32c-29 52 -65 104 -106 153c55 110 65 228 65 350c0 146 -11 282 -51 337c-13 17 -32 28 -56 32c-32 6 -71 7 -112 5c0 -23 -7 -51 -20 -70c45 3 82 3 103 0c14 -2 25 -6 32 -17c25 -33 35 -157 35 -288c0 -15 0 -29 -1 -44c-45 68 -103 133 -156 175
c-10 -17 -32 -43 -49 -57c72 -48 152 -141 197 -229c-7 -48 -18 -94 -37 -139c-35 36 -73 70 -112 99c-11 -14 -33 -35 -48 -46c45 -33 89 -73 128 -116c-26 -45 -62 -89 -109 -131l51 -39c43 37 77 76 104 116c31 -41 58 -82 78 -123zM781 889h86c24 0 28 -13 31 -102
c14 11 42 20 61 25c-7 110 -26 136 -84 136h-104c-73 0 -90 -18 -90 -85v-168h-109c-16 137 -64 217 -229 260c-6 -16 -25 -44 -40 -58c145 -33 186 -92 199 -202h-167v-61h622v61h-207v167c0 24 5 27 31 27z" />
</svg>
