<?xml version="1.0" standalone="no"?>
<!DOCTYPE svg PUBLIC "-//W3C//DTD SVG 1.1//EN" "http://www.w3.org/Graphics/SVG/1.1/DTD/svg11.dtd" >
<svg xmlns="http://www.w3.org/2000/svg" xmlns:xlink="http://www.w3.org/1999/xlink" version="1.1" viewBox="-10 0 1010 1000">
   <path fill="currentColor"
d="M836 180h-103c-17 43 -38 86 -63 126h119c17 -35 34 -84 47 -126zM644 747v-435c-13 -8 -26 -17 -38 -21c54 -76 90 -174 110 -247l61 8c-7 23 -13 46 -21 70h107l10 -3l42 27c-17 51 -43 111 -64 160h81v439h-60v-382h-170v384h-58zM242 46l56 33c-23 50 -53 99 -87 145
c45 110 53 225 53 350c0 142 -8 290 -43 340c-12 15 -28 25 -50 29c-23 4 -54 5 -85 3c-1 -21 -7 -45 -17 -64c31 2 59 1 76 0c12 -1 20 -5 27 -13c22 -30 29 -170 29 -296v-35c-37 67 -84 131 -128 173c-8 -17 -27 -43 -42 -57c60 -50 127 -148 163 -236
c-6 -47 -15 -93 -29 -137c-28 32 -58 61 -88 89c-11 -13 -32 -33 -47 -43c39 -33 76 -72 108 -113c-20 -44 -48 -87 -85 -128l48 -35c31 36 57 71 78 107c25 -37 47 -75 63 -112zM365 376v159h65v-159h-65zM546 535v-159h-66v159h66zM609 746l-45 37
c-16 -30 -46 -70 -77 -109v278h-64v-286c-35 85 -83 169 -131 219c-6 -20 -21 -48 -34 -66c52 -50 108 -140 140 -225h-86v-277h110v-102h-119v-62h119v-103h66v103h120v62h-120v102h113v277h-113c44 47 96 111 121 152zM762 417h54c-2 319 -19 457 -196 542
c-6 -14 -24 -36 -37 -47c166 -73 177 -195 179 -495zM776 805l43 -35c48 44 109 102 139 140l-46 40c-28 -38 -88 -101 -136 -145z" />
</svg>
