<?xml version="1.0" standalone="no"?>
<!DOCTYPE svg PUBLIC "-//W3C//DTD SVG 1.1//EN" "http://www.w3.org/Graphics/SVG/1.1/DTD/svg11.dtd" >
<svg xmlns="http://www.w3.org/2000/svg" xmlns:xlink="http://www.w3.org/1999/xlink" version="1.1" viewBox="-10 0 1010 1000">
   <path fill="currentColor"
d="M274 48l63 32c-28 52 -64 103 -104 152c49 110 58 226 58 348c0 144 -9 286 -48 339c-12 18 -30 28 -54 31c-29 6 -66 7 -102 5c-1 -22 -7 -51 -19 -70c39 3 73 3 93 0c13 -1 22 -5 29 -15c24 -31 33 -162 33 -291v-39c-42 64 -93 126 -140 167c-11 -17 -31 -42 -48 -55
c66 -47 139 -139 180 -225c-6 -48 -16 -94 -33 -139c-31 33 -63 63 -96 90c-11 -14 -34 -34 -50 -46c41 -31 80 -69 117 -110c-25 -45 -57 -89 -101 -132l52 -38c39 38 70 76 94 115c30 -39 56 -80 76 -119zM552 616l39 20c-11 31 -25 63 -41 92c20 21 37 42 48 59l-28 34
c-10 -16 -25 -35 -43 -55c-22 34 -47 65 -75 92c-8 -8 -22 -20 -32 -27c28 -27 54 -60 77 -97c-18 -17 -37 -34 -56 -48l28 -29c16 12 33 26 49 40c14 -27 25 -54 34 -81zM594 543l-27 33c-10 -15 -25 -33 -42 -52c-22 31 -47 59 -74 83c-8 -7 -21 -20 -31 -27
c27 -25 52 -55 74 -87c-17 -16 -36 -32 -53 -45l27 -30c16 12 32 25 48 39c14 -26 25 -51 34 -76l40 20c-11 29 -25 59 -41 87c19 19 35 38 45 55zM670 292h207c-35 -36 -86 -80 -131 -110l34 -25h-110v135zM408 292h193v-135h-119l42 25c-30 39 -71 78 -116 110zM949 275
l-32 26v580c0 34 -6 53 -29 64c-22 10 -57 10 -110 10c-2 -16 -11 -44 -19 -61c36 2 68 2 78 2c11 -1 15 -4 15 -16v-529h-188v222c26 -24 50 -54 71 -85c-17 -17 -35 -32 -53 -45l27 -29c16 11 32 24 48 38c13 -25 25 -51 33 -76l39 20c-11 29 -24 58 -40 86
c19 20 36 39 46 56l-27 33c-10 -16 -25 -34 -42 -53c-22 32 -47 61 -74 85c-7 -8 -19 -20 -28 -27v247c27 -27 53 -61 74 -96c-18 -19 -37 -36 -56 -51l29 -28c16 12 32 26 48 41c14 -27 25 -55 33 -82l39 20c-11 31 -24 63 -40 93c20 22 37 43 47 61l-29 32
c-10 -16 -24 -35 -41 -54c-21 34 -46 66 -73 92c-8 -7 -21 -19 -31 -26v129h-57v-603h-190v604h-64v-627l-4 2c-10 -14 -28 -33 -43 -44c60 -32 122 -84 158 -129h-121v-63h601v63h-136c53 36 111 85 141 118z" />
</svg>
