<?xml version="1.0" standalone="no"?>
<!DOCTYPE svg PUBLIC "-//W3C//DTD SVG 1.1//EN" "http://www.w3.org/Graphics/SVG/1.1/DTD/svg11.dtd" >
<svg xmlns="http://www.w3.org/2000/svg" xmlns:xlink="http://www.w3.org/1999/xlink" version="1.1" viewBox="-10 0 1010 1000">
   <path fill="currentColor"
d="M843 180h-105c-18 41 -41 82 -66 120h115c19 -34 40 -80 56 -120zM872 439v-84h-159v84h159zM872 575v-86h-159v86h159zM872 712v-88h-159v88h159zM653 327l-4 4c-14 -11 -37 -27 -55 -35c63 -76 106 -177 130 -252l65 9c-8 23 -16 45 -25 69h109l11 -3l45 30
c-20 48 -48 104 -75 151h81v467h-282v-440zM257 65l50 31c-22 47 -53 97 -87 144c44 105 52 218 52 337c0 140 -8 282 -43 332c-12 15 -28 24 -50 28c-25 4 -57 5 -90 4c-1 -22 -7 -46 -19 -65c35 2 66 2 83 1c12 -1 20 -6 27 -14c22 -30 30 -162 30 -287v-40
c-39 66 -90 132 -137 175c-8 -18 -25 -44 -37 -59c61 -49 131 -142 166 -228c-5 -44 -14 -87 -27 -129c-36 41 -72 78 -108 105c-7 -19 -23 -47 -36 -64c39 -25 79 -63 117 -106c-21 -43 -51 -86 -89 -128l47 -33c34 36 61 73 83 110c27 -37 51 -77 68 -114zM368 376v159h69
v-159h-69zM557 535v-159h-69v159h69zM624 765l-52 31c-15 -31 -45 -76 -76 -116v272h-66v-288c-34 86 -81 170 -128 221c-7 -20 -22 -48 -34 -66c51 -50 104 -140 136 -225h-89v-277h114v-102h-122v-62h122v-103h65v103h121v62h-121v102h118v277h-116v42l25 -13
c38 45 83 103 103 142zM709 785l64 18c-30 57 -80 116 -126 156c-12 -12 -38 -32 -55 -41c47 -34 92 -84 117 -133zM810 810l57 -26c34 43 74 102 93 140l-61 29c-17 -39 -55 -99 -89 -143z" />
</svg>
