<?xml version="1.0" standalone="no"?>
<!DOCTYPE svg PUBLIC "-//W3C//DTD SVG 1.1//EN" "http://www.w3.org/Graphics/SVG/1.1/DTD/svg11.dtd" >
<svg xmlns="http://www.w3.org/2000/svg" xmlns:xlink="http://www.w3.org/1999/xlink" version="1.1" viewBox="-10 0 1010 1000">
   <path fill="currentColor"
d="M228 64l47 31c-19 47 -47 98 -78 145c34 105 40 216 40 336c0 135 -7 290 -36 335c-11 15 -25 23 -45 26c-20 4 -49 5 -77 4c0 -22 -7 -46 -17 -65c31 2 54 2 70 1c10 -1 17 -4 21 -12c20 -25 25 -171 25 -290v-23c-31 56 -70 109 -107 146c-7 -18 -22 -44 -35 -59
c51 -43 106 -123 138 -198c-4 -48 -10 -95 -21 -140c-29 36 -58 69 -87 94c-7 -18 -22 -48 -35 -63c33 -25 68 -61 100 -103c-17 -44 -39 -86 -70 -127l45 -34c26 35 47 70 64 105c23 -35 43 -72 58 -109zM329 520h103s0 23 -1 33c-10 245 -20 333 -40 363
c-13 20 -27 28 -46 30c-16 3 -42 3 -68 1c-1 -22 -6 -53 -14 -73c26 2 50 3 60 3s16 -1 23 -12c14 -17 22 -91 31 -281h-107c10 -77 19 -197 23 -290h86v-148h-95v-66h146v279h-89c-4 55 -8 112 -12 161zM580 163l44 34c-43 36 -105 74 -154 101c-9 -13 -25 -30 -37 -40
c50 -26 113 -67 147 -95zM621 618l37 19c-8 29 -18 59 -29 87c15 22 27 43 35 61l-30 30c-6 -13 -14 -30 -25 -47c-13 28 -28 53 -44 76c-7 -8 -20 -20 -30 -27c18 -24 34 -56 48 -88c-14 -21 -30 -41 -46 -58l28 -25c12 12 24 26 36 40c8 -23 15 -46 20 -68zM619 385l37 19
c-8 28 -18 56 -28 85c13 19 25 39 32 56l-28 29c-6 -13 -14 -27 -24 -43c-12 24 -25 47 -40 67c-6 -9 -20 -21 -29 -28c16 -21 30 -49 43 -77c-14 -20 -29 -39 -44 -56l27 -24c11 11 23 24 34 38c8 -23 15 -45 20 -66zM850 541l-28 29c-6 -13 -14 -27 -24 -43
c-13 25 -27 50 -43 71c-7 -9 -19 -21 -30 -27c17 -22 33 -52 48 -82c-15 -20 -32 -39 -46 -56l27 -25c12 12 23 26 35 40c8 -21 15 -42 20 -62l37 19c-8 27 -18 55 -29 81c14 19 26 39 33 55zM854 779l-29 30c-6 -12 -14 -28 -24 -44c-13 28 -27 53 -43 76
c-7 -9 -20 -20 -30 -27c17 -24 33 -55 47 -87c-15 -21 -31 -40 -46 -57l26 -26c12 13 24 26 36 41c8 -24 16 -48 21 -70l37 19c-8 29 -18 59 -30 88c15 21 28 40 35 57zM959 259l-34 43v575c0 33 -6 50 -26 60s-50 12 -100 11c-2 -16 -11 -41 -18 -58c34 2 66 1 74 1
c11 0 14 -3 14 -15v-516h-150v590h-49v-590h-141v595h-56v-655h192v-158h-200v-63h484v63h-225v158h196c-37 -32 -103 -74 -156 -99l34 -40c56 24 125 67 161 98z" />
</svg>
