<?xml version="1.0" standalone="no"?>
<!DOCTYPE svg PUBLIC "-//W3C//DTD SVG 1.1//EN" "http://www.w3.org/Graphics/SVG/1.1/DTD/svg11.dtd" >
<svg xmlns="http://www.w3.org/2000/svg" xmlns:xlink="http://www.w3.org/1999/xlink" version="1.1" viewBox="-10 0 1010 1000">
   <path fill="currentColor"
d="M941 127v60h-601v-60h272c-8 -25 -20 -51 -32 -73l61 -17c18 27 34 62 43 90h257zM269 65l52 32c-21 46 -52 94 -85 140c51 107 60 223 60 345c0 142 -10 280 -47 332c-12 16 -29 26 -52 30c-28 6 -63 6 -100 4c0 -22 -7 -47 -20 -67c39 3 73 3 92 0c13 -1 22 -5 30 -15
c23 -31 31 -158 31 -285c0 -16 0 -32 -1 -49c-42 69 -97 137 -149 180c-8 -17 -24 -44 -38 -59c66 -47 141 -141 179 -228c-6 -45 -16 -89 -31 -132c-38 44 -79 84 -118 114c-8 -19 -25 -46 -39 -62c43 -27 87 -68 127 -115c-23 -44 -54 -86 -97 -128l49 -35
c38 35 67 72 91 109c26 -36 50 -74 66 -111zM558 590v53h149v-53h-149zM558 492v51h149v-51h-149zM442 271v76h109v-76h-109zM723 270v78h111v-78h-111zM880 706l48 38c-40 29 -91 58 -134 77c46 36 102 62 166 77c-14 14 -32 37 -41 55c-136 -39 -236 -127 -289 -249
c-28 26 -63 50 -101 70v101l156 -33c-1 16 1 40 3 52c-187 46 -213 55 -231 66c-3 -16 -14 -42 -22 -55c13 -6 32 -16 32 -51v-49c-42 17 -85 33 -128 46c-7 -13 -24 -39 -36 -51c90 -23 186 -57 251 -103h-224v-54h164v-53h-104v-47h104v-51h-133v-53h133v-49h-107v-162
h222v162h-51v49h149v-48h-40v-164h225v164h-120v48h141v53h-141v51h124v47h-124v53h169v54h-251c15 33 37 63 63 89c43 -22 95 -56 127 -80z" />
</svg>
