<?xml version="1.0" standalone="no"?>
<!DOCTYPE svg PUBLIC "-//W3C//DTD SVG 1.1//EN" "http://www.w3.org/Graphics/SVG/1.1/DTD/svg11.dtd" >
<svg xmlns="http://www.w3.org/2000/svg" xmlns:xlink="http://www.w3.org/1999/xlink" version="1.1" viewBox="-10 0 1010 1000">
   <path fill="currentColor"
d="M232 467v237c35 -14 72 -29 108 -43l13 66c-103 43 -214 88 -298 121l-18 -70c35 -12 78 -29 126 -48v-263h-101v-69h101v-217h-114v-70h300v70h-117v217h90v69h-90zM568 365h385s-1 25 -3 35c-33 343 -64 469 -108 515c-21 23 -41 30 -68 33c-24 2 -63 2 -103 -1
c-1 -20 -8 -49 -19 -68c41 4 76 5 94 5c15 0 25 -2 36 -15c34 -32 67 -148 95 -434h-70c-61 224 -195 428 -379 522c-13 -18 -34 -41 -54 -54c176 -81 305 -263 368 -468h-101c-45 119 -135 244 -230 306c-12 -16 -34 -39 -54 -52c89 -49 170 -149 216 -254h-52
c-46 0 -77 4 -86 12c-5 -17 -22 -54 -32 -72c26 -5 64 -26 103 -51c33 -20 127 -85 212 -160h-315v-71h392l22 -10l58 45c-105 93 -208 175 -307 237z" />
</svg>
