<?xml version="1.0" standalone="no"?>
<!DOCTYPE svg PUBLIC "-//W3C//DTD SVG 1.1//EN" "http://www.w3.org/Graphics/SVG/1.1/DTD/svg11.dtd" >
<svg xmlns="http://www.w3.org/2000/svg" xmlns:xlink="http://www.w3.org/1999/xlink" version="1.1" viewBox="-10 0 1010 1000">
   <path fill="currentColor"
d="M239 468v252c43 -14 88 -29 132 -42l8 67c-114 39 -235 77 -327 105l-15 -71c38 -10 84 -24 135 -40v-271h-108v-70h108v-217h-122v-70h317v70h-128v217h101v70h-101zM953 307h-286v135c77 41 172 100 221 140l-40 60c-39 -36 -112 -85 -181 -125v434h-75v-644h-207v-70
h267c-22 -48 -58 -109 -94 -157l62 -26c44 56 90 132 110 183h223v70z" />
</svg>
