<?xml version="1.0" standalone="no"?>
<!DOCTYPE svg PUBLIC "-//W3C//DTD SVG 1.1//EN" "http://www.w3.org/Graphics/SVG/1.1/DTD/svg11.dtd" >
<svg xmlns="http://www.w3.org/2000/svg" xmlns:xlink="http://www.w3.org/1999/xlink" version="1.1" viewBox="-10 0 1010 1000">
   <path fill="currentColor"
d="M251 475v248c45 -13 91 -27 136 -41l10 68c-121 37 -248 75 -343 104l-16 -72c40 -10 88 -23 142 -39v-268h-114v-70h114v-215h-129v-69h329v69h-129v215h102v70h-102zM826 531l13 -4l54 18c-54 112 -144 279 -217 408l-70 -22c60 -101 130 -235 179 -330h-389v-70h430z
M752 438l-47 46c-30 -44 -90 -107 -145 -150l44 -41c57 43 118 102 148 145zM626 33l63 20c-5 10 -11 20 -16 30c62 82 187 200 294 263c-16 14 -42 41 -54 60c-99 -67 -209 -185 -274 -267c-68 102 -156 198 -258 270c-12 -15 -38 -41 -56 -54c127 -81 242 -206 301 -322z
" />
</svg>
