<?xml version="1.0" standalone="no"?>
<!DOCTYPE svg PUBLIC "-//W3C//DTD SVG 1.1//EN" "http://www.w3.org/Graphics/SVG/1.1/DTD/svg11.dtd" >
<svg xmlns="http://www.w3.org/2000/svg" xmlns:xlink="http://www.w3.org/1999/xlink" version="1.1" viewBox="-10 0 1010 1000">
   <path fill="currentColor"
d="M236 467v253c42 -14 87 -29 130 -42l9 67c-113 38 -233 77 -324 105l-14 -72c37 -9 83 -23 133 -39v-272h-106v-69h106v-217h-120v-70h312v70h-126v217h100v69h-100zM960 536v71h-252v349h-74v-349h-240v-71h240v-359h-218v-68h517v68h-225v359h252zM443 240l61 -17
c28 78 53 179 60 246l-65 16c-6 -66 -29 -168 -56 -245zM828 484l-59 -16c24 -67 53 -176 66 -252l72 18c-23 84 -53 187 -79 250z" />
</svg>
