<?xml version="1.0" standalone="no"?>
<!DOCTYPE svg PUBLIC "-//W3C//DTD SVG 1.1//EN" "http://www.w3.org/Graphics/SVG/1.1/DTD/svg11.dtd" >
<svg xmlns="http://www.w3.org/2000/svg" xmlns:xlink="http://www.w3.org/1999/xlink" version="1.1" viewBox="-10 0 1010 1000">
   <path fill="currentColor"
d="M343 666l12 67c-102 41 -212 84 -297 116l-16 -70c36 -12 81 -29 130 -47v-265h-112v-69h112v-217h-122v-70h303v70h-112v217h91v69h-91v239zM813 499h-270c31 85 78 162 138 224c57 -61 102 -137 132 -224zM620 260h-156v173h156v-173zM854 430l46 18
c-34 134 -92 240 -167 322c65 53 141 94 230 118c-16 15 -37 44 -48 65c-90 -30 -168 -74 -234 -132c-68 60 -146 104 -228 136c-9 -18 -27 -45 -41 -60c78 -27 153 -68 218 -125c-68 -75 -120 -166 -157 -273h-10c-4 143 -27 324 -123 450c-10 -15 -39 -38 -54 -47
c97 -132 108 -315 108 -451v-261h226v-146h71v146h190l12 -3l53 14c-20 70 -44 150 -65 200l-65 -15c13 -32 27 -80 39 -126h-164v173h150z" />
</svg>
