<?xml version="1.0" standalone="no"?>
<!DOCTYPE svg PUBLIC "-//W3C//DTD SVG 1.1//EN" "http://www.w3.org/Graphics/SVG/1.1/DTD/svg11.dtd" >
<svg xmlns="http://www.w3.org/2000/svg" xmlns:xlink="http://www.w3.org/1999/xlink" version="1.1" viewBox="-10 0 1010 1000">
   <path fill="currentColor"
d="M758 194l-51 49c-38 -46 -121 -112 -192 -153l48 -45c71 40 156 101 195 149zM391 675l-61 -31c53 -65 74 -176 83 -284l63 13c-9 112 -28 232 -85 302zM345 669l9 69c-106 35 -218 70 -303 98l-17 -71c38 -10 84 -24 134 -39v-249h-113v-70h113v-208h-123v-70h318v70
h-125v208h119v70h-119v227zM960 666l-71 20c-9 -81 -44 -204 -89 -299c-56 126 -123 239 -202 336v108c0 41 6 49 45 49h127c37 0 43 -28 48 -152c15 12 43 23 63 28c-9 144 -27 189 -106 189h-140c-85 0 -108 -24 -108 -115v-27c-49 51 -102 96 -159 136
c-13 -14 -43 -40 -60 -52c82 -53 155 -117 219 -190v-453h71v362c100 -142 175 -313 231 -506l71 16c-28 91 -59 177 -94 257l55 -15c49 98 88 224 99 308z" />
</svg>
