<?xml version="1.0" standalone="no"?>
<!DOCTYPE svg PUBLIC "-//W3C//DTD SVG 1.1//EN" "http://www.w3.org/Graphics/SVG/1.1/DTD/svg11.dtd" >
<svg xmlns="http://www.w3.org/2000/svg" xmlns:xlink="http://www.w3.org/1999/xlink" version="1.1" viewBox="-10 0 1010 1000">
   <path fill="currentColor"
d="M380 666l8 63c-115 35 -236 71 -329 97l-22 -69c38 -9 85 -22 136 -34v-246h-115v-67h115v-218h-125v-67h324v67h-132v218h115v67h-115v227c46 -12 93 -25 140 -38zM810 890h43c12 0 25 -1 30 -4c7 -3 13 -12 16 -26c2 -18 3 -55 4 -104c14 14 41 25 61 32
c-2 45 -6 96 -12 115s-18 31 -34 38c-15 7 -39 10 -59 10h-63c-22 0 -49 -5 -65 -17c-17 -13 -24 -30 -24 -94v-308h-103c-13 194 -49 343 -216 426c-8 -18 -29 -45 -46 -58c151 -71 179 -201 190 -368h-137v-68h242v-179h-130c-22 52 -47 99 -75 136
c-13 -10 -45 -27 -62 -35c61 -75 102 -189 126 -308l70 12c-9 44 -21 86 -34 127h105v-174h72v174h198v68h-198v179h246v68h-178v316c0 20 2 33 9 37c6 3 13 5 24 5z" />
</svg>
