<?xml version="1.0" standalone="no"?>
<!DOCTYPE svg PUBLIC "-//W3C//DTD SVG 1.1//EN" "http://www.w3.org/Graphics/SVG/1.1/DTD/svg11.dtd" >
<svg xmlns="http://www.w3.org/2000/svg" xmlns:xlink="http://www.w3.org/1999/xlink" version="1.1" viewBox="-10 0 1010 1000">
   <path fill="currentColor"
d="M961 238l-57 26c-17 -44 -58 -112 -96 -162l53 -24c40 50 82 116 100 160zM228 477v226c37 -11 76 -23 114 -35l10 67l-299 95l-17 -72c35 -9 78 -21 124 -35v-246h-100v-67h100v-214h-113v-68h296v68h-115v214h100v67h-100zM861 466l62 14c-28 98 -66 188 -114 267
c19 89 43 140 71 140c17 0 27 -46 30 -154c14 16 38 30 54 38c-11 140 -32 185 -93 185c-50 0 -86 -50 -112 -135c-38 48 -79 91 -125 127c-8 -11 -30 -38 -44 -50c57 -42 107 -95 149 -157c-19 -90 -30 -204 -37 -332h-140v158l115 -34l9 67l-124 39v230c0 39 -9 60 -33 72
c-23 12 -61 15 -119 15c-3 -18 -14 -50 -25 -70c44 2 82 1 94 1s17 -4 17 -17v-210l-124 38l-17 -71c39 -11 88 -24 141 -40v-178h-133v-68h133v-168c-38 10 -76 18 -112 26c-4 -17 -14 -41 -23 -58c94 -21 202 -53 261 -86l59 55c-34 16 -75 31 -119 44v187h136
c-3 -93 -5 -193 -6 -296h71c-1 105 0 205 4 296h186v68h-183c5 91 13 172 22 240c29 -56 52 -118 69 -183z" />
</svg>
