<?xml version="1.0" standalone="no"?>
<!DOCTYPE svg PUBLIC "-//W3C//DTD SVG 1.1//EN" "http://www.w3.org/Graphics/SVG/1.1/DTD/svg11.dtd" >
<svg xmlns="http://www.w3.org/2000/svg" xmlns:xlink="http://www.w3.org/1999/xlink" version="1.1" viewBox="-10 0 1010 1000">
   <path fill="currentColor"
d="M246 474v226c44 -11 90 -24 136 -36l8 68c-117 33 -243 67 -336 92l-18 -72c39 -8 87 -20 139 -33v-245h-114v-68h114v-216h-127v-69h329v69h-131v216h110v68h-110zM818 677h-311v171h311v-171zM439 954v-345h449v342h-70v-35h-311v38h-68zM782 324h-166
c-9 50 -19 98 -28 138h194v-138zM853 462h111v68h-599v-68h149c9 -40 19 -88 29 -138h-116v-65h128c6 -36 12 -72 17 -105h-175v-67h523v67h-274c-5 33 -12 69 -18 105h225v203z" />
</svg>
