<?xml version="1.0" standalone="no"?>
<!DOCTYPE svg PUBLIC "-//W3C//DTD SVG 1.1//EN" "http://www.w3.org/Graphics/SVG/1.1/DTD/svg11.dtd" >
<svg xmlns="http://www.w3.org/2000/svg" xmlns:xlink="http://www.w3.org/1999/xlink" version="1.1" viewBox="-10 0 1010 1000">
   <path fill="currentColor"
d="M927 171l-47 29c-21 -31 -63 -82 -97 -119l45 -26c35 35 79 85 99 116zM341 684l8 67c-103 36 -213 72 -297 99l-14 -71c35 -10 77 -23 124 -38v-274h-99v-69h99v-217h-113v-70h295v70h-119v217h96v69h-96v255c38 -13 77 -26 116 -38zM857 355l65 24
c-31 119 -78 223 -136 312c24 110 55 176 96 179c20 1 34 -57 41 -156c12 13 38 27 49 32c-19 156 -52 200 -90 199c-67 -2 -112 -70 -143 -186c-53 69 -115 127 -180 172c-11 -11 -32 -29 -48 -40c79 -52 151 -125 210 -214c-19 -107 -31 -241 -39 -392h-208v131h172v28
c-5 201 -8 275 -28 298c-11 16 -25 23 -49 25c-18 2 -51 2 -83 0c-2 -19 -8 -44 -18 -61c33 3 63 3 75 3c12 1 19 -1 24 -9c10 -14 14 -69 18 -220h-111c-1 137 -15 332 -92 466c-11 -13 -39 -34 -54 -42c73 -129 81 -308 81 -438v-249h270c-2 -54 -4 -111 -5 -169h62
c1 58 2 115 4 169h195v68h-192c5 115 14 220 26 308c38 -71 67 -151 88 -238z" />
</svg>
