<?xml version="1.0" standalone="no"?>
<!DOCTYPE svg PUBLIC "-//W3C//DTD SVG 1.1//EN" "http://www.w3.org/Graphics/SVG/1.1/DTD/svg11.dtd" >
<svg xmlns="http://www.w3.org/2000/svg" xmlns:xlink="http://www.w3.org/1999/xlink" version="1.1" viewBox="-10 0 1010 1000">
   <path fill="currentColor"
d="M826 285v-122h-317v122h317zM826 473v-124h-317v124h317zM826 662v-125h-317v125h317zM899 96v633h-462v-633h462zM387 665l9 65c-116 35 -239 71 -331 98l-22 -70c37 -9 83 -20 134 -34v-246h-112v-67h112v-219h-123v-67h322v67h-132v219h121v67h-121v226
c47 -12 95 -25 143 -39zM517 747l76 27c-61 73 -157 143 -241 187c-12 -16 -41 -45 -59 -58c84 -37 172 -95 224 -156zM727 785l57 -40c66 49 145 119 183 169l-62 45c-35 -49 -113 -123 -178 -174z" />
</svg>
