<?xml version="1.0" standalone="no"?>
<!DOCTYPE svg PUBLIC "-//W3C//DTD SVG 1.1//EN" "http://www.w3.org/Graphics/SVG/1.1/DTD/svg11.dtd" >
<svg xmlns="http://www.w3.org/2000/svg" xmlns:xlink="http://www.w3.org/1999/xlink" version="1.1" viewBox="-10 0 1010 1000">
   <path fill="currentColor"
d="M738 377v-204c-46 9 -92 17 -135 24c-3 -16 -14 -40 -22 -56c109 -19 238 -48 309 -80l53 54c-39 15 -86 29 -136 42v220h111v66h-111v238h137v65h-360v-65h154v-238h-125v-66h125zM300 701l10 65c-92 29 -188 59 -263 81l-16 -68c33 -8 71 -18 113 -31v-281h-91v-66h91
v-222h-100v-67h262v67h-96v222h84v66h-84v261zM800 865h167c-11 17 -22 50 -25 70h-147c-127 0 -238 -24 -321 -122c-36 62 -79 109 -132 145c-9 -17 -27 -41 -42 -54c53 -33 96 -83 131 -151c-31 -53 -56 -120 -76 -204l54 -20c14 60 30 109 51 150c21 -65 37 -140 46 -228
h-162c38 -79 85 -196 122 -299h-133v-65h228c-35 95 -81 213 -119 302h81l12 -2l40 7c-11 148 -34 264 -71 355c78 96 181 116 296 116z" />
</svg>
