<?xml version="1.0" standalone="no"?>
<!DOCTYPE svg PUBLIC "-//W3C//DTD SVG 1.1//EN" "http://www.w3.org/Graphics/SVG/1.1/DTD/svg11.dtd" >
<svg xmlns="http://www.w3.org/2000/svg" xmlns:xlink="http://www.w3.org/1999/xlink" version="1.1" viewBox="-10 0 1010 1000">
   <path fill="currentColor"
d="M237 467v252c42 -13 86 -28 128 -42l9 68c-113 37 -232 77 -323 105l-14 -72c38 -9 84 -23 135 -39v-272h-109v-69h109v-217h-123v-70h315v70h-127v217h99v69h-99zM800 860v-165h-312v165h312zM817 404l51 25c-46 63 -105 140 -159 203h165v322h-74v-31h-312v34h-71v-325
h280l-53 -23c36 -43 77 -95 110 -138h-335v-62h386zM574 271l53 -30c40 37 84 85 107 116l-58 35c-21 -32 -65 -84 -102 -121zM644 37l60 24c-7 12 -14 23 -22 34c68 80 189 169 286 216c-15 17 -32 45 -41 64c-93 -56 -207 -145 -282 -229c-77 98 -175 181 -270 240
c-8 -16 -28 -48 -41 -63c119 -65 239 -169 310 -286z" />
</svg>
