<?xml version="1.0" standalone="no"?>
<!DOCTYPE svg PUBLIC "-//W3C//DTD SVG 1.1//EN" "http://www.w3.org/Graphics/SVG/1.1/DTD/svg11.dtd" >
<svg xmlns="http://www.w3.org/2000/svg" xmlns:xlink="http://www.w3.org/1999/xlink" version="1.1" viewBox="-10 0 1010 1000">
   <path fill="currentColor"
d="M365 678l9 67c-113 39 -232 77 -323 105l-14 -71c37 -10 84 -24 134 -39v-272h-108v-70h108v-217h-121v-70h314v70h-128v217h98v70h-98v251c42 -13 86 -28 129 -41zM778 658h149s-1 20 -2 30c-12 157 -24 221 -48 245c-15 17 -33 23 -59 25c-24 2 -70 1 -118 -1
c-2 -20 -9 -46 -20 -64c48 5 93 5 108 5c16 0 25 -1 34 -8c13 -14 23 -59 32 -170h-128v-1h-33c10 -33 21 -78 30 -121h-121c-14 171 -52 293 -196 362c-8 -17 -27 -41 -42 -53c126 -59 157 -163 167 -309h-109v-65h383c-9 40 -19 86 -27 125zM943 301h-180
c52 69 128 132 200 167c-15 13 -37 37 -48 54c-75 -42 -156 -120 -209 -200v186h-69v-183c-58 84 -144 161 -226 203c-11 -16 -32 -42 -47 -54c79 -35 162 -100 216 -173h-185v-64h242v-88c-70 7 -141 11 -207 14c-2 -16 -10 -41 -18 -57c152 -8 337 -27 436 -55l51 55
c-54 15 -121 26 -193 35v96h237v64z" />
</svg>
