<?xml version="1.0" standalone="no"?>
<!DOCTYPE svg PUBLIC "-//W3C//DTD SVG 1.1//EN" "http://www.w3.org/Graphics/SVG/1.1/DTD/svg11.dtd" >
<svg xmlns="http://www.w3.org/2000/svg" xmlns:xlink="http://www.w3.org/1999/xlink" version="1.1" viewBox="-10 0 1010 1000">
   <path fill="currentColor"
d="M492 276l-70 22c-16 -50 -49 -135 -78 -199l65 -16c31 62 66 145 83 193zM304 703l8 64c-90 29 -185 59 -259 82l-15 -68c32 -8 69 -19 109 -31v-279h-88v-66h88v-226h-98v-67h256v67h-90v226h80v66h-80v259zM477 383v385c15 12 31 27 53 45c48 38 105 49 191 49
c69 0 176 -4 247 -13c-8 19 -18 52 -19 72c-55 3 -170 7 -229 7c-94 0 -153 -17 -205 -58c-33 -28 -61 -60 -79 -60c-31 0 -75 61 -120 129l-47 -62c52 -63 102 -109 144 -123v-301h-95v-70h159zM694 481h106v-186h-105v139c0 16 0 31 -1 47zM866 481h102v68h-102v248h-66
v-248h-110c-8 94 -31 191 -85 260c-10 -14 -38 -41 -53 -51c47 -58 64 -134 72 -209h-98v-68h101c1 -16 1 -31 1 -47v-139h-81v-68h81v-170h67v170h105v-172h66v172h90v68h-90v186z" />
</svg>
