<?xml version="1.0" standalone="no"?>
<!DOCTYPE svg PUBLIC "-//W3C//DTD SVG 1.1//EN" "http://www.w3.org/Graphics/SVG/1.1/DTD/svg11.dtd" >
<svg xmlns="http://www.w3.org/2000/svg" xmlns:xlink="http://www.w3.org/1999/xlink" version="1.1" viewBox="-10 0 1010 1000">
   <path fill="currentColor"
d="M851 84l68 23c-35 61 -78 132 -113 178l-56 -22c35 -48 78 -125 101 -179zM428 310h197v-273h70v273h194v462h-73v-392h-317v394h-71v-464zM574 257l-59 32c-19 -50 -65 -127 -109 -183l57 -27c45 55 91 129 111 178zM362 687l9 67c-110 34 -229 69 -319 96l-16 -71
c38 -10 84 -23 135 -37v-275h-111v-69h111v-217h-121v-70h308v70h-115v217h109v69h-109v255zM690 435v170c0 120 -41 262 -314 352c-9 -16 -30 -41 -45 -55c263 -76 287 -201 287 -297v-170h72zM659 814l41 -48c88 35 205 91 264 131l-42 56c-58 -41 -172 -101 -263 -139z
" />
</svg>
