<?xml version="1.0" standalone="no"?>
<!DOCTYPE svg PUBLIC "-//W3C//DTD SVG 1.1//EN" "http://www.w3.org/Graphics/SVG/1.1/DTD/svg11.dtd" >
<svg xmlns="http://www.w3.org/2000/svg" xmlns:xlink="http://www.w3.org/1999/xlink" version="1.1" viewBox="-10 0 1010 1000">
   <path fill="currentColor"
d="M949 145l-46 40c-22 -29 -69 -74 -111 -105l44 -35c42 28 90 72 113 100zM378 666l9 64c-114 34 -235 71 -327 97l-22 -70c37 -8 83 -20 134 -34v-245h-111v-67h111v-219h-123v-67h317v67h-126v219h117v67h-117v227c45 -12 92 -26 138 -39zM654 678l8 60
c-103 35 -213 70 -297 97l-24 -65c78 -20 197 -57 313 -92zM594 574v-161h-126v161h126zM410 356h243v276h-243v-276zM887 359l64 14c-35 128 -83 239 -143 335c21 115 50 184 79 184c16 0 25 -42 29 -141c14 16 35 30 51 37c-11 128 -30 171 -88 171
c-55 0 -95 -68 -123 -180c-55 70 -120 130 -193 179c-11 -13 -38 -37 -53 -48c91 -54 166 -128 228 -216c-21 -118 -33 -269 -40 -434h-310v-66h308c-2 -49 -2 -99 -3 -150h68c0 51 0 101 1 150h193v66h-191c5 131 15 249 27 346c41 -74 72 -157 96 -247z" />
</svg>
