<?xml version="1.0" standalone="no"?>
<!DOCTYPE svg PUBLIC "-//W3C//DTD SVG 1.1//EN" "http://www.w3.org/Graphics/SVG/1.1/DTD/svg11.dtd" >
<svg xmlns="http://www.w3.org/2000/svg" xmlns:xlink="http://www.w3.org/1999/xlink" version="1.1" viewBox="-10 0 1010 1000">
   <path fill="currentColor"
d="M433 163v115h-63v-180h555v176h-65v-111h-427zM679 259l53 -37c69 59 152 144 190 201l-57 41c-36 -56 -117 -143 -186 -205zM545 228l70 22c-50 84 -129 167 -202 220c-12 -13 -38 -39 -55 -52c73 -46 145 -117 187 -190zM351 671l11 68c-107 39 -221 79 -309 110
l-16 -71c36 -11 82 -26 131 -43v-268h-107v-69h107v-217h-119v-70h298v70h-112v217h97v69h-97v246c38 -14 77 -28 116 -42zM936 596h-212c56 99 149 193 240 240c-16 14 -38 39 -50 58c-88 -55 -176 -153 -234 -258v313h-71v-310c-62 111 -154 205 -256 258
c-10 -18 -31 -44 -47 -58c103 -45 201 -138 258 -243h-205v-68h250v-107h71v107h256v68z" />
</svg>
