<?xml version="1.0" standalone="no"?>
<!DOCTYPE svg PUBLIC "-//W3C//DTD SVG 1.1//EN" "http://www.w3.org/Graphics/SVG/1.1/DTD/svg11.dtd" >
<svg xmlns="http://www.w3.org/2000/svg" xmlns:xlink="http://www.w3.org/1999/xlink" version="1.1" viewBox="-10 0 1010 1000">
   <path fill="currentColor"
d="M340 695l10 68c-100 31 -206 62 -288 87l-16 -72c34 -8 73 -19 117 -31v-279h-105v-70h105v-217h-113v-70h286v70h-104v217h85v70h-85v259c35 -10 72 -21 108 -32zM898 289l52 54c-38 32 -84 66 -130 97c27 138 81 281 149 349c-17 13 -41 39 -53 57
c-70 -77 -121 -223 -149 -369c-17 10 -33 20 -48 29c49 174 21 354 -39 405c-29 29 -56 39 -100 40c-20 0 -55 -1 -84 -3c0 -21 -6 -49 -18 -70c33 4 68 5 87 5c26 0 43 -3 61 -23c32 -28 54 -124 44 -235c-80 90 -199 178 -302 227c-10 -18 -26 -42 -41 -57
c120 -47 261 -153 330 -251c-7 -30 -15 -59 -27 -90c-30 30 -65 60 -102 88c15 26 26 49 34 70l-49 33c-7 -19 -18 -44 -33 -69c-35 23 -72 45 -105 61c-9 -17 -26 -42 -41 -55c36 -15 75 -36 115 -59c-15 -23 -31 -45 -47 -65l48 -28c15 19 31 40 46 61
c42 -29 80 -61 108 -93c-14 -26 -31 -52 -51 -76c-61 45 -127 84 -191 114c-8 -14 -31 -44 -46 -58c107 -44 220 -113 299 -192h-256v-71h581v71h-237c-29 34 -63 67 -101 99c43 48 75 103 97 161c69 -46 149 -108 199 -157z" />
</svg>
