<?xml version="1.0" standalone="no"?>
<!DOCTYPE svg PUBLIC "-//W3C//DTD SVG 1.1//EN" "http://www.w3.org/Graphics/SVG/1.1/DTD/svg11.dtd" >
<svg xmlns="http://www.w3.org/2000/svg" xmlns:xlink="http://www.w3.org/1999/xlink" version="1.1" viewBox="-10 0 1010 1000">
   <path fill="currentColor"
d="M236 467v250c37 -13 76 -27 114 -39l9 67c-107 38 -221 76 -307 105l-14 -72c37 -10 83 -24 133 -41v-270h-108v-69h108v-217h-120v-70h296v70h-111v217h85v69h-85zM809 646v-107h-140v107h140zM669 370v101h140v-101h-140zM704 194h-173c-23 39 -49 76 -77 109h181
c25 -30 50 -71 69 -109zM956 471v68h-78v214h-69v-40h-140v148c0 43 -9 63 -37 75c-29 11 -75 12 -146 12c-2 -20 -12 -50 -22 -70c52 2 102 1 116 1c14 -1 19 -5 19 -19v-147h-184v-67h184v-107h-246v-68h246v-101h-174v-33c-15 16 -29 31 -43 45c-13 -14 -40 -40 -57 -51
c83 -69 161 -178 206 -289l69 20c-10 23 -20 45 -31 67h173l13 -4l47 34c-21 47 -53 100 -85 144h161v168h78z" />
</svg>
