<?xml version="1.0" standalone="no"?>
<!DOCTYPE svg PUBLIC "-//W3C//DTD SVG 1.1//EN" "http://www.w3.org/Graphics/SVG/1.1/DTD/svg11.dtd" >
<svg xmlns="http://www.w3.org/2000/svg" xmlns:xlink="http://www.w3.org/1999/xlink" version="1.1" viewBox="-10 0 1010 1000">
   <path fill="currentColor"
d="M425 459h142v-129h214v-65h-214v-123h-142v123h-210v64h210v130zM933 459v58h-867v-58h288v-77h-208v-169h208v-71h-281v-58h853v58h-287v71h213v170h-213v76h294zM794 870h157v59h-899v-59h410v-103h-305v-54h305v-85h-348v-57h777v57h-356v85h311v54h-311v103h217
c-35 -22 -83 -51 -119 -69l40 -30c46 23 109 58 143 81z" />
</svg>
