<?xml version="1.0" standalone="no"?>
<!DOCTYPE svg PUBLIC "-//W3C//DTD SVG 1.1//EN" "http://www.w3.org/Graphics/SVG/1.1/DTD/svg11.dtd" >
<svg xmlns="http://www.w3.org/2000/svg" xmlns:xlink="http://www.w3.org/1999/xlink" version="1.1" viewBox="-10 0 1010 1000">
   <path fill="currentColor"
d="M438 212v93h-70v-159h263c-14 -27 -31 -58 -48 -82l61 -25c23 33 49 76 63 107h228v158h-72v-92h-425zM354 688l10 68c-109 33 -225 68 -313 94l-16 -71c35 -9 77 -21 123 -34v-277h-101v-70h101v-217h-111v-70h289v70h-108v217h98v70h-98v258c41 -12 84 -25 126 -38z
M587 361l13 -2l39 9c-27 316 -115 498 -255 590c-11 -16 -34 -41 -49 -51c76 -48 135 -122 176 -227c-22 -25 -57 -55 -90 -76l34 -51c27 17 56 37 79 57c16 -55 27 -117 34 -187h-93c-27 83 -65 157 -109 211c-11 -11 -36 -34 -51 -44c65 -74 108 -188 132 -309l63 12
c-4 23 -9 45 -16 68h93zM777 890h55c15 0 30 -1 37 -4c8 -3 16 -10 19 -24c3 -17 5 -53 6 -99c15 13 38 24 59 30c-1 42 -6 91 -13 109c-7 19 -18 31 -37 38c-17 6 -42 8 -65 8h-73c-22 0 -50 -4 -67 -16c-20 -13 -28 -29 -28 -101v-490h239v301c0 32 -5 49 -27 61
c-21 10 -55 11 -108 11c-3 -18 -11 -43 -18 -60h77c10 0 12 -4 12 -13v-239h-111v436c0 27 4 44 13 47c7 4 16 5 30 5z" />
</svg>
