<?xml version="1.0" standalone="no"?>
<!DOCTYPE svg PUBLIC "-//W3C//DTD SVG 1.1//EN" "http://www.w3.org/Graphics/SVG/1.1/DTD/svg11.dtd" >
<svg xmlns="http://www.w3.org/2000/svg" xmlns:xlink="http://www.w3.org/1999/xlink" version="1.1" viewBox="-10 0 1010 1000">
   <path fill="currentColor"
d="M237 462v213c37 -12 75 -24 112 -36l11 67c-107 36 -221 72 -307 99l-17 -70c38 -10 84 -24 134 -39v-234h-111v-66h111v-216h-122v-67h310v67h-121v216h106v66h-106zM468 406h145v-117h-145v117zM832 289h-153v117h153v-117zM922 548v337c0 33 -6 51 -31 60
c-24 11 -64 11 -123 11c-4 -17 -13 -41 -22 -58c44 1 82 1 94 0c11 0 15 -2 15 -13v-274h-176v120l81 -7c-12 -23 -24 -46 -37 -66l43 -16c36 54 69 126 82 174l-46 19c-4 -16 -10 -35 -18 -55c-115 11 -228 22 -313 30l-9 -62c42 -3 94 -7 151 -12v-125h-171v344h-66v-407
h237v-83h-210v-237h210v-79c-72 6 -145 11 -213 13c-3 -16 -12 -43 -20 -58c166 -9 365 -29 474 -56l54 57c-64 15 -144 28 -229 37v86h220v237h-220v83h243z" />
</svg>
