<?xml version="1.0" standalone="no"?>
<!DOCTYPE svg PUBLIC "-//W3C//DTD SVG 1.1//EN" "http://www.w3.org/Graphics/SVG/1.1/DTD/svg11.dtd" >
<svg xmlns="http://www.w3.org/2000/svg" xmlns:xlink="http://www.w3.org/1999/xlink" version="1.1" viewBox="-10 0 1010 1000">
   <path fill="currentColor"
d="M241 709l109 -39l13 67c-105 40 -217 79 -303 109l-18 -69c37 -12 82 -27 132 -44v-266h-113v-69h113v-218h-127v-68h315v68h-121v218h99v69h-99v242zM822 532h-310v71h310v-71zM512 730h310v-75h-310v75zM512 860h310v-77h-310v77zM445 958v-486h447v482h-70v-35h-310
v39h-67zM509 395v-55h310v55h-310zM512 209h305v53h-305v-53zM398 77h537v353h-70v-296h-400v296h-67v-353z" />
</svg>
