<?xml version="1.0" standalone="no"?>
<!DOCTYPE svg PUBLIC "-//W3C//DTD SVG 1.1//EN" "http://www.w3.org/Graphics/SVG/1.1/DTD/svg11.dtd" >
<svg xmlns="http://www.w3.org/2000/svg" xmlns:xlink="http://www.w3.org/1999/xlink" version="1.1" viewBox="-10 0 1010 1000">
   <path fill="currentColor"
d="M660 322h-9c-58 76 -149 152 -227 193c-10 -16 -31 -38 -46 -51c69 -30 147 -83 203 -142h-181v-61h253c-43 -26 -93 -54 -137 -72l44 -38c30 13 65 31 96 48c36 -20 73 -45 103 -70h-312v-58h376l16 -3l46 32c-46 49 -112 95 -175 130c18 10 35 21 47 31h133l12 -3
l51 16c-30 61 -66 128 -96 171l-61 -19c18 -28 40 -66 58 -104h-124v119c0 34 -7 50 -33 59c-26 10 -66 10 -127 10c-3 -19 -12 -40 -21 -58c44 1 84 1 95 1c12 -1 16 -4 16 -14v-117zM366 678l9 68c-114 37 -233 76 -324 104l-14 -71c37 -10 84 -24 134 -39v-273h-108v-69
h108v-217h-122v-70h314v70h-126v217h100v69h-100v252c42 -13 86 -27 129 -41zM934 677h-199c61 76 150 152 227 191c-16 13 -39 37 -50 55c-72 -44 -154 -123 -216 -203v237h-73v-233c-64 86 -151 164 -234 209c-11 -18 -34 -42 -50 -56c88 -40 182 -118 242 -200h-189v-63
h231v-94h73v94h238v63z" />
</svg>
