<?xml version="1.0" standalone="no"?>
<!DOCTYPE svg PUBLIC "-//W3C//DTD SVG 1.1//EN" "http://www.w3.org/Graphics/SVG/1.1/DTD/svg11.dtd" >
<svg xmlns="http://www.w3.org/2000/svg" xmlns:xlink="http://www.w3.org/1999/xlink" version="1.1" viewBox="-10 0 1010 1000">
   <path fill="currentColor"
d="M945 145l-49 39c-23 -29 -71 -73 -110 -100l48 -34c40 27 88 67 111 95zM610 549h-92v172h92v-172zM659 779h-141v52h-51v-341h192v289zM670 350v60h-213v-60h213zM867 367l64 11c-30 135 -71 251 -129 351c22 110 49 162 78 162c18 0 28 -32 33 -147c15 14 39 30 56 36
c-11 151 -35 177 -96 178c-52 0 -90 -53 -118 -157c-44 61 -96 113 -157 157c-8 -13 -31 -39 -45 -51c75 -50 135 -115 183 -193c-18 -111 -30 -259 -37 -442h-272v199c0 145 -17 349 -125 485c-10 -12 -36 -35 -51 -43c43 -55 69 -118 86 -184c-100 30 -206 63 -287 87
l-15 -68c34 -9 77 -22 124 -36v-240h-99v-67h99v-213h-113v-67h293v67h-113v213h96v67h-96v221l104 -31l8 61c21 -87 24 -176 24 -252v-265h335c-2 -51 -3 -105 -4 -162h67c0 57 0 111 1 162h193v66h-191c4 143 12 259 24 350c34 -76 61 -161 80 -255z" />
</svg>
