<?xml version="1.0" standalone="no"?>
<!DOCTYPE svg PUBLIC "-//W3C//DTD SVG 1.1//EN" "http://www.w3.org/Graphics/SVG/1.1/DTD/svg11.dtd" >
<svg xmlns="http://www.w3.org/2000/svg" xmlns:xlink="http://www.w3.org/1999/xlink" version="1.1" viewBox="-10 0 1010 1000">
   <path fill="currentColor"
d="M941 403l-60 29c-31 -52 -93 -130 -158 -195c50 -60 103 -134 130 -182l66 20c-33 51 -80 111 -120 160c55 54 112 124 142 168zM544 407l-61 29c-25 -53 -76 -130 -133 -198c41 -61 87 -138 111 -185l66 17c-29 52 -69 116 -104 166c48 57 97 126 121 171zM234 719
l114 -37l12 66c-106 37 -217 75 -304 103l-13 -71c35 -11 78 -24 125 -40v-273h-102v-69h102v-218h-115v-69h298v69h-117v218h99v69h-99v252zM802 784l-38 41c-25 -25 -62 -55 -104 -87c-44 39 -91 72 -136 98c-9 -10 -31 -31 -44 -41c46 -23 93 -54 136 -89
c-35 -23 -70 -46 -103 -66l35 -35c34 20 71 43 107 68c32 -31 61 -63 83 -96l55 17c-26 39 -58 75 -94 109c41 29 78 58 103 81zM852 856v-297h-396v297h396zM685 429l10 1c-12 24 -24 48 -36 68h262v455h-69v-34h-396v38h-66v-459h195c13 -26 26 -57 32 -79l64 9
c-26 -52 -82 -128 -140 -194c44 -61 92 -135 117 -182l66 18c-30 52 -72 113 -108 162c50 56 102 125 128 170z" />
</svg>
