<?xml version="1.0" standalone="no"?>
<!DOCTYPE svg PUBLIC "-//W3C//DTD SVG 1.1//EN" "http://www.w3.org/Graphics/SVG/1.1/DTD/svg11.dtd" >
<svg xmlns="http://www.w3.org/2000/svg" xmlns:xlink="http://www.w3.org/1999/xlink" version="1.1" viewBox="-10 0 1010 1000">
   <path fill="currentColor"
d="M221 472v259c32 -10 65 -19 98 -29l8 64c-97 31 -198 63 -280 88l-15 -69c35 -9 77 -21 123 -34v-279h-104v-66h104v-222h-111v-67h284v67h-107v222h102v66h-102zM429 692h141v-82h-141v82zM570 475h-141v78h141v-78zM635 415v458c0 33 -5 52 -27 63
c-21 12 -52 13 -95 13c-2 -19 -10 -46 -20 -65c31 1 57 1 66 1c9 -1 11 -3 11 -12v-124h-141v204h-66v-538h272zM848 872v-475h62v475c0 37 -7 55 -31 66c-25 11 -64 12 -124 12c-2 -18 -11 -45 -20 -63c45 1 85 1 97 0c12 0 16 -3 16 -15zM766 434v358h-60v-358h60zM641 39
l63 30c-8 10 -16 21 -23 32c81 82 182 134 291 178c-18 15 -39 39 -47 59c-107 -49 -201 -107 -286 -191c-51 53 -112 102 -177 143h362v61h-386v-46c-30 17 -62 34 -93 48c-11 -18 -31 -43 -50 -59c135 -53 272 -149 346 -255z" />
</svg>
