<?xml version="1.0" standalone="no"?>
<!DOCTYPE svg PUBLIC "-//W3C//DTD SVG 1.1//EN" "http://www.w3.org/Graphics/SVG/1.1/DTD/svg11.dtd" >
<svg xmlns="http://www.w3.org/2000/svg" xmlns:xlink="http://www.w3.org/1999/xlink" version="1.1" viewBox="-10 0 1010 1000">
   <path fill="currentColor"
d="M233 720l113 -36l9 68c-105 34 -218 71 -304 98l-14 -72c36 -9 82 -23 131 -39v-272h-105v-69h105v-217h-119v-70h295v70h-111v217h96v69h-96v253zM653 392l-57 25c-4 -13 -9 -29 -16 -45c-156 94 -179 111 -194 129c-6 -18 -23 -54 -33 -69c12 -10 26 -32 26 -72v-239h5
c70 -19 152 -44 200 -71l45 57c-53 23 -122 43 -186 58v220l116 -66c-13 -31 -28 -64 -41 -91l53 -20c30 59 67 138 82 184zM617 588h-140v102h140v-102zM827 690v-102h-145v102h145zM682 855h145v-106h-145v106zM477 855h140v-106h-140v106zM410 954v-427h487v425h-70v-36
h-350v38h-67zM942 101v29c-6 222 -13 301 -32 326c-13 18 -28 24 -51 27c-18 2 -52 2 -85 0c-2 -19 -8 -44 -17 -61c33 3 60 3 73 3c12 1 19 -1 24 -10c12 -15 19 -79 24 -252h-95v24c0 93 -28 221 -130 313c-11 -11 -40 -29 -56 -36c98 -85 121 -197 121 -279v-22h-78v-62
h302z" />
</svg>
