<?xml version="1.0" standalone="no"?>
<!DOCTYPE svg PUBLIC "-//W3C//DTD SVG 1.1//EN" "http://www.w3.org/Graphics/SVG/1.1/DTD/svg11.dtd" >
<svg xmlns="http://www.w3.org/2000/svg" xmlns:xlink="http://www.w3.org/1999/xlink" version="1.1" viewBox="-10 0 1010 1000">
   <path fill="currentColor"
d="M216 467v247c34 -12 70 -25 104 -36l13 67c-97 35 -199 70 -278 97l-19 -70c33 -10 72 -23 115 -37v-268h-88v-69h88v-217h-102v-70h269v70h-102v217h83v69h-83zM581 226h-154v103h154v-103zM427 501h154v-113h-154v113zM511 634l53 -19c38 82 79 193 95 257l-57 24
c-6 -25 -16 -58 -28 -93c-167 81 -194 96 -210 112c-4 -17 -17 -47 -26 -63c11 -7 24 -20 24 -57v-628h125c-14 -27 -40 -63 -63 -90l54 -29c29 30 59 70 74 98l-35 21h127v394h-217v239l127 -58c-14 -37 -29 -74 -43 -108zM903 106l47 26c-24 87 -52 186 -84 290
c59 102 88 182 88 249c0 58 -12 112 -39 133c-12 10 -30 17 -49 19c-20 2 -45 2 -69 1c-1 -18 -8 -44 -19 -63c25 3 47 3 62 3c13 -1 24 -4 30 -9c15 -12 21 -52 20 -86c0 -63 -25 -136 -85 -239c26 -92 49 -181 65 -257h-117v780h-65v-843h205z" />
</svg>
