<?xml version="1.0" standalone="no"?>
<!DOCTYPE svg PUBLIC "-//W3C//DTD SVG 1.1//EN" "http://www.w3.org/Graphics/SVG/1.1/DTD/svg11.dtd" >
<svg xmlns="http://www.w3.org/2000/svg" xmlns:xlink="http://www.w3.org/1999/xlink" version="1.1" viewBox="-10 0 1010 1000">
   <path fill="currentColor"
d="M779 575l54 17c-15 53 -37 106 -59 149l85 -13c-10 -26 -23 -53 -35 -76l42 -15c27 48 55 112 63 151l-45 20c-2 -11 -6 -23 -10 -36c-118 23 -141 28 -154 36c-3 -12 -11 -40 -17 -53c10 -2 17 -14 27 -32c8 -17 38 -85 49 -148zM355 688l10 68c-109 33 -226 68 -314 94
l-15 -71c36 -9 79 -21 127 -35v-276h-106v-70h106v-217h-116v-70h304v70h-119v217h109v70h-109v256c40 -11 82 -23 123 -36zM471 491h123c7 -38 12 -76 16 -114h-139v114zM471 206v113h145c2 -39 4 -77 5 -113h-150zM827 319v-113h-135c-1 36 -3 75 -6 113h141zM827 491
v-114h-147c-4 38 -9 76 -17 114h164zM734 880h130c28 0 34 -11 37 -76c15 10 40 19 59 24c-7 88 -27 111 -89 111h-144c-82 0 -103 -18 -103 -87v-216c-46 127 -126 241 -266 317c-11 -18 -32 -42 -50 -54c155 -79 232 -208 271 -347h-179v-408h187c14 -33 28 -73 36 -102
l82 10c-15 32 -31 65 -46 92h241v408h-250c-3 12 -6 24 -10 36h51v263c0 25 6 29 43 29z" />
</svg>
