<?xml version="1.0" standalone="no"?>
<!DOCTYPE svg PUBLIC "-//W3C//DTD SVG 1.1//EN" "http://www.w3.org/Graphics/SVG/1.1/DTD/svg11.dtd" >
<svg xmlns="http://www.w3.org/2000/svg" xmlns:xlink="http://www.w3.org/1999/xlink" version="1.1" viewBox="-10 0 1010 1000">
   <path fill="currentColor"
d="M358 704l10 68c-109 33 -225 69 -314 95l-15 -71c36 -9 81 -22 130 -36v-275h-106v-70h106v-218h-116v-70h312v70h-126v218h109v70h-109v254zM795 405h-304v60h304v-60zM489 576h306v-61h-304c0 19 -1 40 -2 61zM816 745h-292v118h292v-118zM865 629h-381
c-2 19 -5 38 -8 58h410v265h-70v-31h-292v32h-67v-181c-20 63 -48 126 -92 179c-10 -12 -38 -35 -55 -44c99 -120 113 -285 113 -403v-151h225c-14 -26 -42 -66 -68 -95l54 -28c26 28 57 68 71 95l-48 28h208v276zM624 40l63 23c-5 9 -10 19 -16 28c66 85 189 171 302 211
c-17 13 -37 40 -49 58c-103 -43 -213 -128 -286 -219c-71 96 -169 175 -274 227c-12 -17 -30 -42 -47 -57c126 -53 246 -153 307 -271z" />
</svg>
