<?xml version="1.0" standalone="no"?>
<!DOCTYPE svg PUBLIC "-//W3C//DTD SVG 1.1//EN" "http://www.w3.org/Graphics/SVG/1.1/DTD/svg11.dtd" >
<svg xmlns="http://www.w3.org/2000/svg" xmlns:xlink="http://www.w3.org/1999/xlink" version="1.1" viewBox="-10 0 1010 1000">
   <path fill="currentColor"
d="M876 50l44 56c-135 30 -350 46 -526 51c-1 -17 -9 -41 -18 -58c173 -6 384 -23 500 -49zM688 279l-62 16c-4 -33 -15 -88 -27 -130l60 -12c13 41 24 95 29 126zM426 363v79h-65v-137h106c-9 -32 -27 -82 -45 -121l57 -17c18 37 40 87 48 116l-57 22h281
c31 -48 67 -114 87 -161l71 23c-28 45 -58 96 -87 138h121v137h-67v-79h-450zM360 672l11 61c-112 40 -229 83 -319 115l-16 -72c36 -10 81 -24 131 -41v-245h-106v-67h106v-213h-119v-69h302v69h-115v213h94v67h-94v224zM789 647h-229c29 53 71 99 124 138
c44 -37 79 -83 105 -138zM834 588l41 19c-29 89 -75 160 -135 214c65 37 141 63 225 78c-16 15 -36 44 -46 64c-89 -20 -168 -52 -236 -96c-64 43 -137 73 -215 95c-7 -16 -27 -45 -41 -56c74 -18 141 -43 200 -81c-42 -35 -79 -76 -109 -122c-41 105 -98 189 -181 253
c-7 -15 -31 -44 -46 -57c113 -81 176 -209 210 -376h-112v-62h122c4 -27 8 -55 11 -84l70 7c-3 26 -7 52 -11 77h337v62h-348c-5 23 -10 46 -15 68h266z" />
</svg>
