<?xml version="1.0" standalone="no"?>
<!DOCTYPE svg PUBLIC "-//W3C//DTD SVG 1.1//EN" "http://www.w3.org/Graphics/SVG/1.1/DTD/svg11.dtd" >
<svg xmlns="http://www.w3.org/2000/svg" xmlns:xlink="http://www.w3.org/1999/xlink" version="1.1" viewBox="-10 0 1010 1000">
   <path fill="currentColor"
d="M508 186l-61 25c-12 -37 -44 -95 -73 -136l57 -23c31 40 63 96 77 134zM297 695l11 64c-90 31 -185 63 -260 89l-16 -69c32 -9 70 -20 111 -33v-279h-89v-66h89v-222h-99v-67h262v67h-100v222h87v66h-87v258zM420 403h137s0 23 -1 31c-6 336 -11 451 -33 482
c-14 21 -28 29 -49 31c-18 2 -44 3 -71 2c-2 -22 -8 -51 -17 -70c26 2 48 2 59 2c11 1 18 -1 24 -13c13 -21 19 -119 25 -402h-77c-10 199 -35 375 -112 493c-12 -15 -34 -32 -50 -41c93 -140 103 -385 106 -640h-75v-64h298v64h-161c-1 42 -2 84 -3 125zM798 652v215
c23 7 46 10 70 10c15 0 74 0 96 -1c-10 16 -18 46 -21 64h-79c-91 0 -164 -28 -215 -150c-13 65 -34 123 -64 168c-10 -15 -30 -37 -46 -47c62 -88 75 -249 79 -400h60c-2 56 -5 112 -11 167c17 74 41 121 71 151v-413h-130v-36c-12 -12 -32 -27 -44 -36
c43 -75 72 -188 87 -301l68 13c-7 42 -15 84 -25 125h263v63h-280c-13 41 -27 79 -43 112h266l11 -3l42 11c-13 60 -26 130 -39 175l-52 -13c6 -30 13 -70 20 -110h-84v176h147v60h-147z" />
</svg>
