<?xml version="1.0" standalone="no"?>
<!DOCTYPE svg PUBLIC "-//W3C//DTD SVG 1.1//EN" "http://www.w3.org/Graphics/SVG/1.1/DTD/svg11.dtd" >
<svg xmlns="http://www.w3.org/2000/svg" xmlns:xlink="http://www.w3.org/1999/xlink" version="1.1" viewBox="-10 0 1010 1000">
   <path fill="currentColor"
d="M826 403v-175h-82v175h82zM826 645v-178h-82v178h82zM472 467v178h82v-178h-82zM690 467h-83v178h83v-178zM607 403h83v-175h-83v175zM472 228v175h82v-175h-82zM416 403v-119c-18 24 -36 47 -55 67c-12 -12 -40 -32 -57 -42c69 -64 127 -164 162 -266l65 17
c-12 35 -27 70 -44 104h461v64h-63v175h73v64h-73v178h66v64h-608v-64h73v-178h-87v-64h87zM323 672l7 66c-98 28 -199 57 -279 79l-15 -69c34 -8 75 -19 120 -31v-246h-96v-66h96v-213h-110v-67h278v67h-101v213h79v66h-79v228zM351 956l-57 -36c52 -42 89 -115 109 -179
l58 22c-22 68 -55 146 -110 193zM519 763l59 -5c16 61 27 138 28 184l-64 6c1 -46 -9 -124 -23 -185zM662 764l57 -13c26 57 53 133 62 179l-60 15c-8 -47 -33 -124 -59 -181zM804 761l57 -26c44 60 92 140 112 192l-60 30c-19 -52 -66 -135 -109 -196z" />
</svg>
