<?xml version="1.0" standalone="no"?>
<!DOCTYPE svg PUBLIC "-//W3C//DTD SVG 1.1//EN" "http://www.w3.org/Graphics/SVG/1.1/DTD/svg11.dtd" >
<svg xmlns="http://www.w3.org/2000/svg" xmlns:xlink="http://www.w3.org/1999/xlink" version="1.1" viewBox="-10 0 1010 1000">
   <path fill="currentColor"
d="M238 465v227c45 -11 91 -24 137 -36l7 67c-116 32 -238 66 -331 90l-15 -71c39 -8 85 -20 136 -33v-244h-111v-66h111v-214h-124v-67h318v67h-128v214h110v66h-110zM450 574h423c-69 -48 -139 -120 -186 -192v173h-67v-173c-42 73 -104 141 -170 192zM685 857h129v-86
h-129v86zM494 771v86h128v-86h-128zM622 715v-83h-128v83h128zM814 715v-83h-129v83h129zM950 369h-198c55 73 140 144 217 181c-16 11 -38 37 -49 53c-12 -7 -25 -14 -37 -22v369h-69v-37h-320v42h-67v-364c-16 11 -31 21 -47 29c-10 -17 -31 -42 -47 -56
c83 -38 169 -114 222 -195h-195v-61h260v-167c-74 8 -150 13 -220 17c-1 -16 -10 -40 -17 -55c165 -11 364 -32 475 -60l44 54c-60 15 -135 27 -215 37v174h109l-50 -18c24 -38 57 -100 73 -140l65 22c-27 48 -59 101 -84 136h150v61zM437 185l58 -19c25 37 50 87 61 118
l-62 23c-10 -33 -34 -84 -57 -122z" />
</svg>
