<?xml version="1.0" standalone="no"?>
<!DOCTYPE svg PUBLIC "-//W3C//DTD SVG 1.1//EN" "http://www.w3.org/Graphics/SVG/1.1/DTD/svg11.dtd" >
<svg xmlns="http://www.w3.org/2000/svg" xmlns:xlink="http://www.w3.org/1999/xlink" version="1.1" viewBox="-10 0 1010 1000">
   <path fill="currentColor"
d="M231 725l100 -28l10 65c-102 31 -208 61 -292 86l-16 -68c36 -9 79 -21 127 -34v-279h-105v-66h105v-222h-115v-67h295v67h-109v222h96v66h-96v258zM803 692h-317v66h317v-66zM486 874h317v-68h-317v68zM416 958v-318h460v314h-73v-27h-317v31h-70zM748 530l-36 -16
c16 -27 37 -71 48 -98l46 18c-21 35 -41 70 -58 96zM481 431l40 -14c21 28 41 68 48 92l-42 18c-6 -28 -26 -67 -46 -96zM447 399v144h164v-144h-164zM844 543v-144h-173v144h173zM382 594v-247h528v247h-528zM623 25l68 27c-5 8 -11 15 -16 22c67 69 191 145 289 187
c-12 16 -25 47 -29 64c-100 -50 -219 -131 -297 -206c-39 44 -85 84 -133 120h283v53h-294v-45c-46 33 -94 63 -141 87c-6 -15 -26 -53 -39 -69c118 -53 241 -141 309 -240z" />
</svg>
