<?xml version="1.0" standalone="no"?>
<!DOCTYPE svg PUBLIC "-//W3C//DTD SVG 1.1//EN" "http://www.w3.org/Graphics/SVG/1.1/DTD/svg11.dtd" >
<svg xmlns="http://www.w3.org/2000/svg" xmlns:xlink="http://www.w3.org/1999/xlink" version="1.1" viewBox="-10 0 1010 1000">
   <path fill="currentColor"
d="M840 256v-119h-197v-58h259v327h-62v-89c-58 26 -115 53 -163 74l-29 -52c50 -20 120 -50 192 -83zM798 236l-42 40c-22 -27 -67 -64 -109 -86l38 -34c44 21 89 53 113 80zM363 455h249c-9 -16 -20 -30 -29 -43l56 -23c17 19 36 44 46 66h242v59h-564v-59zM762 524l63 12
c-7 19 -16 39 -28 56c44 26 93 57 121 80l-47 45c-23 -22 -66 -53 -107 -79c-22 27 -47 50 -73 69c-10 -12 -36 -33 -52 -41c55 -35 101 -84 123 -142zM501 524l64 13c-8 18 -18 36 -29 53c31 23 66 54 84 74l-48 38c-16 -19 -43 -45 -69 -68c-27 32 -60 59 -92 81
c-11 -11 -36 -33 -51 -42c63 -35 116 -88 141 -149zM384 400l-27 -53c52 -20 124 -51 199 -85v-125h-192v-58h253v314h-61v-70c-60 27 -121 55 -172 77zM516 238l-41 39c-22 -27 -66 -63 -107 -86l38 -34c43 21 88 54 110 81zM335 633l13 66c-101 40 -209 82 -292 115
l-18 -70c35 -12 79 -28 127 -46v-234h-102v-67h102v-211h-118v-67h300v67h-113v211h98v67h-98v208zM952 741v60h-276v156h-70v-156h-266v-60h266v-47h70v47h276z" />
</svg>
