<?xml version="1.0" standalone="no"?>
<!DOCTYPE svg PUBLIC "-//W3C//DTD SVG 1.1//EN" "http://www.w3.org/Graphics/SVG/1.1/DTD/svg11.dtd" >
<svg xmlns="http://www.w3.org/2000/svg" xmlns:xlink="http://www.w3.org/1999/xlink" version="1.1" viewBox="-10 0 1010 1000">
   <path fill="currentColor"
d="M947 543l-45 14c-2 -13 -5 -30 -9 -48c-118 19 -141 25 -152 32c-3 -12 -12 -40 -18 -54c15 -3 30 -22 48 -49c12 -15 40 -58 67 -110c-67 10 -86 14 -95 20c-3 -12 -12 -40 -19 -54c12 -3 24 -18 35 -42c13 -22 55 -111 75 -194l55 22c-23 71 -56 145 -88 203l64 -7
c9 -22 19 -44 28 -67l50 26c-39 84 -88 170 -139 238l77 -9c-5 -21 -10 -42 -16 -61l41 -12c16 48 34 110 41 152zM669 314v-108h-86v108h86zM669 474v-109h-86v109h86zM537 546l-43 12c-2 -15 -6 -33 -10 -52c-118 21 -140 28 -154 35c-2 -12 -10 -40 -17 -54
c15 -3 29 -22 47 -49c11 -16 37 -59 63 -113c-67 12 -84 18 -95 24c-2 -13 -11 -42 -18 -56c12 -2 23 -19 35 -41c12 -23 53 -112 72 -194l55 22c-22 71 -55 145 -89 203l65 -8c10 -22 18 -45 26 -68l51 27c-37 84 -85 169 -134 238l83 -12c-6 -23 -12 -46 -17 -67l41 -11
c12 42 26 94 34 136v-365h49c9 -35 18 -79 21 -111l65 12c-11 32 -21 69 -31 99h86v374h-188zM320 681l11 66c-96 33 -198 68 -277 94l-18 -69c33 -9 72 -22 115 -35v-273h-88v-66h88v-220h-102v-67h268v67h-101v220h82v66h-82v251zM929 667h-222c66 77 170 156 255 195
c-14 13 -36 37 -47 54c-86 -48 -190 -141 -256 -231v270h-68v-262c-67 93 -170 177 -263 222c-11 -17 -33 -42 -47 -55c95 -37 201 -113 267 -193h-221v-63h264v-62h68v62h270v63z" />
</svg>
