<?xml version="1.0" standalone="no"?>
<!DOCTYPE svg PUBLIC "-//W3C//DTD SVG 1.1//EN" "http://www.w3.org/Graphics/SVG/1.1/DTD/svg11.dtd" >
<svg xmlns="http://www.w3.org/2000/svg" xmlns:xlink="http://www.w3.org/1999/xlink" version="1.1" viewBox="-10 0 1010 1000">
   <path fill="currentColor"
d="M786 264v-43h-298v43h298zM488 432h298v-47h-298v47zM786 348v-46h-298v46h298zM424 180h158c5 -17 11 -33 16 -51h-247v-54h582v54h-261c-6 18 -14 35 -21 51h202v252h92v140h-63c22 22 39 43 51 62l-47 31c-23 -38 -76 -93 -124 -131l44 -28c24 17 49 39 71 60v-83
h-248c32 15 63 34 82 51l-36 35c-25 -24 -78 -55 -122 -72l14 -14h-165v89c11 -18 20 -37 25 -57l50 19c-15 51 -42 106 -91 138l-44 -37c25 -15 44 -37 60 -63h-65v-140h87v-252zM337 664l8 65c-103 33 -212 65 -296 89l-15 -68c35 -9 77 -21 122 -34v-243h-96v-66h96v-213
h-110v-67h293v67h-116v213h94v66h-94v224zM529 737l-2 2c28 32 65 59 110 81c50 -24 88 -53 115 -83h-223zM805 687l46 23c-30 54 -77 101 -142 139c74 24 161 39 257 46c-14 15 -32 43 -41 62c-110 -11 -209 -34 -291 -72c-79 32 -176 56 -292 72c-7 -15 -23 -37 -37 -51
c103 -13 190 -32 261 -57c-34 -22 -64 -46 -89 -76c-33 21 -69 39 -109 57c-10 -16 -29 -37 -44 -46c98 -37 172 -88 216 -137c-25 -8 -33 -25 -33 -62v-63h61v63c0 19 5 22 36 22h109c22 0 27 -6 30 -48c12 8 35 15 51 18c-5 60 -23 76 -73 76h-104c-11 13 -23 25 -34 37
h208z" />
</svg>
