<?xml version="1.0" standalone="no"?>
<!DOCTYPE svg PUBLIC "-//W3C//DTD SVG 1.1//EN" "http://www.w3.org/Graphics/SVG/1.1/DTD/svg11.dtd" >
<svg xmlns="http://www.w3.org/2000/svg" xmlns:xlink="http://www.w3.org/1999/xlink" version="1.1" viewBox="-10 0 1010 1000">
   <path fill="currentColor"
d="M767 283h-77c-22 31 -47 58 -74 82c-7 -12 -27 -37 -39 -48c45 -36 81 -83 110 -138h-73v-54h96c10 -25 18 -53 24 -81l57 9c-6 25 -13 48 -22 72h172v54h-192c-9 18 -18 37 -27 54h195v50h-91v67h118v49h-301v-49h124v-67zM718 659h146v-53h-146v53zM864 505h-146v52
h146v-52zM921 454v316c0 27 -5 39 -25 48c-19 8 -50 8 -99 8c-2 -13 -10 -31 -16 -44c33 1 63 0 71 0c9 0 12 -2 12 -12v-62h-146v119h-53v-373h256zM591 255l-51 15c-8 -45 -25 -113 -42 -166l49 -12c18 52 37 119 44 163zM194 474v246c24 -8 49 -16 73 -24l9 65
c-78 27 -157 51 -224 73l-15 -69c27 -7 60 -17 95 -26v-265h-74v-64h74v-230h-82v-62h217v62h-73v230h64v64h-64zM458 84l38 21c-18 80 -41 184 -65 269c47 84 57 158 57 218c0 50 -8 94 -27 111c-11 9 -24 15 -40 17c-13 1 -29 2 -45 1c0 -16 -6 -37 -15 -54
c16 2 29 2 39 2c9 -1 16 -3 21 -8c11 -11 15 -43 15 -73c0 -55 -9 -125 -55 -210c19 -74 37 -163 50 -231h-73v806h-57v-867h151zM602 381v415c15 10 29 25 50 41c40 30 82 42 145 42c38 0 114 -2 167 -9c-7 17 -15 49 -16 68c-41 2 -110 4 -150 4c-68 0 -116 -16 -157 -48
c-30 -25 -53 -50 -70 -50c-25 0 -65 52 -102 109l-46 -59c41 -49 84 -89 122 -103v-346h-73v-64h130z" />
</svg>
