<?xml version="1.0" standalone="no"?>
<!DOCTYPE svg PUBLIC "-//W3C//DTD SVG 1.1//EN" "http://www.w3.org/Graphics/SVG/1.1/DTD/svg11.dtd" >
<svg xmlns="http://www.w3.org/2000/svg" xmlns:xlink="http://www.w3.org/1999/xlink" version="1.1" viewBox="-10 0 1010 1000">
   <path fill="currentColor"
d="M944 127v60h-604v-60h273c-9 -25 -21 -51 -32 -73l60 -17c18 27 34 62 43 90h260zM306 700l10 65c-94 30 -191 59 -268 83l-16 -69c33 -8 73 -19 116 -32v-280h-93v-66h93v-222h-104v-67h268v67h-99v222h88v66h-88v261zM558 590v53h149v-53h-149zM558 492v51h149v-51
h-149zM443 271v76h111v-76h-111zM723 270v78h113v-78h-113zM880 706l48 38c-39 29 -90 57 -133 77c47 36 103 62 168 77c-15 14 -32 37 -41 55c-137 -39 -238 -127 -292 -249c-28 26 -63 50 -101 70v101l156 -33c0 16 1 40 3 52c-186 46 -213 55 -230 66
c-4 -16 -14 -42 -22 -55c13 -6 31 -16 31 -51v-49c-41 18 -85 33 -127 46c-7 -13 -25 -39 -37 -51c90 -23 186 -57 251 -103h-223v-54h163v-53h-104v-47h104v-51h-133v-53h133v-49h-107v-162h224v162h-53v49h149v-48h-41v-164h228v164h-122v48h144v53h-144v51h127v47h-127
v53h172v54h-254c16 32 38 63 64 89c42 -23 95 -56 126 -80z" />
</svg>
