<?xml version="1.0" standalone="no"?>
<!DOCTYPE svg PUBLIC "-//W3C//DTD SVG 1.1//EN" "http://www.w3.org/Graphics/SVG/1.1/DTD/svg11.dtd" >
<svg xmlns="http://www.w3.org/2000/svg" xmlns:xlink="http://www.w3.org/1999/xlink" version="1.1" viewBox="-10 0 1010 1000">
   <path fill="currentColor"
d="M498 233v-56h-152v-59h152v-74h68v74h162v-74h69v74h154v59h-154v56h-69v-56h-162v56h-68zM226 467v251c37 -12 75 -26 113 -39l8 68c-103 37 -213 75 -297 103l-13 -72c34 -9 77 -23 124 -39v-272h-100v-69h100v-217h-113v-70h285v70h-107v217h85v69h-85zM485 797v62
h177v-62h-177zM662 639v-60h-177v60h177zM662 748v-60h-177v60h177zM446 301v91h117v-91h-117zM730 301v91h124v-91h-124zM953 859l-1 56h-467v42h-68v-319c-19 19 -36 36 -55 51c-12 -12 -37 -34 -52 -44c67 -49 132 -125 171 -201h-93v-195h236v195h-132l54 16
c-11 21 -23 43 -37 63h159c-14 -20 -31 -40 -47 -56l49 -25v-193h246v195h-236c26 24 51 55 66 79h187v56h-203v60h169v49h-169v60h167v49h-167v62h223z" />
</svg>
