<?xml version="1.0" standalone="no"?>
<!DOCTYPE svg PUBLIC "-//W3C//DTD SVG 1.1//EN" "http://www.w3.org/Graphics/SVG/1.1/DTD/svg11.dtd" >
<svg xmlns="http://www.w3.org/2000/svg" xmlns:xlink="http://www.w3.org/1999/xlink" version="1.1" viewBox="-10 0 1010 1000">
   <path fill="currentColor"
d="M796 57l61 59c-26 6 -54 12 -83 16c19 332 59 631 190 765c-18 14 -42 43 -54 62c-141 -156 -184 -457 -204 -814c-60 10 -123 19 -189 27v159c0 146 -3 329 -91 489l199 -42c-21 -51 -43 -104 -64 -150l59 -19c48 100 102 232 126 309l-64 24c-7 -28 -20 -64 -35 -105
c-232 51 -265 61 -284 74c-7 -17 -35 -51 -47 -65c128 -155 128 -354 128 -518v-147c-65 6 -129 13 -192 19v138c0 176 -19 441 -151 619c-13 -14 -44 -39 -60 -47c125 -170 138 -406 138 -572v-196h1c216 -17 471 -50 616 -85z" />
</svg>
