<?xml version="1.0" standalone="no"?>
<!DOCTYPE svg PUBLIC "-//W3C//DTD SVG 1.1//EN" "http://www.w3.org/Graphics/SVG/1.1/DTD/svg11.dtd" >
<svg xmlns="http://www.w3.org/2000/svg" xmlns:xlink="http://www.w3.org/1999/xlink" version="1.1" viewBox="-10 0 1010 1000">
   <path fill="currentColor"
d="M227 290v-47c-42 27 -87 50 -129 69c-12 -13 -39 -39 -55 -51c115 -42 233 -111 294 -196l67 23c-38 53 -93 100 -153 140h495c-61 -46 -120 -99 -160 -151l59 -28c67 84 199 172 309 214c-17 14 -40 42 -51 60c-48 -22 -102 -55 -152 -91c-1 6 -1 18 -2 26
c-13 113 -25 164 -49 184c-16 16 -34 22 -61 23c-25 2 -73 1 -125 -2c-1 -19 -8 -43 -18 -60c49 4 97 5 114 5s27 -1 35 -8c12 -11 22 -42 31 -110h-201c-47 112 -165 166 -310 196c-5 -17 -22 -45 -34 -59c123 -19 228 -57 270 -137h-174zM768 879h87c25 0 30 -16 33 -121
c15 12 44 23 65 28c-7 125 -27 157 -90 157h-105c-73 0 -94 -20 -94 -91v-169h-352c-23 67 -46 136 -65 185l372 -36c-3 16 -4 41 -4 54c-398 43 -444 50 -470 62h-1v-3c-6 -18 -19 -48 -26 -64c23 -5 51 -12 64 -34c18 -29 75 -209 102 -295h-207v-60h844v60h-566
c-7 20 -16 46 -25 72h408v228c0 23 4 27 30 27zM574 794l-41 45c-36 -33 -106 -79 -164 -108l40 -40c57 26 128 70 165 103z" />
</svg>
