<?xml version="1.0" standalone="no"?>
<!DOCTYPE svg PUBLIC "-//W3C//DTD SVG 1.1//EN" "http://www.w3.org/Graphics/SVG/1.1/DTD/svg11.dtd" >
<svg xmlns="http://www.w3.org/2000/svg" xmlns:xlink="http://www.w3.org/1999/xlink" version="1.1" viewBox="-10 0 1010 1000">
   <path fill="currentColor"
d="M150 170v666h321v68h-391v-802h391v68h-321zM399 220l64 13c-24 93 -54 185 -89 269c43 79 81 155 102 213l-62 31c-15 -46 -42 -105 -73 -167c-38 82 -81 154 -128 214c-12 -11 -39 -32 -55 -42c55 -66 104 -150 145 -245c-40 -72 -85 -147 -129 -212l54 -26
c36 50 71 107 105 164c26 -69 48 -141 66 -212zM864 884h24c7 0 14 -2 18 -6c4 -3 7 -12 9 -27c2 -18 3 -57 4 -107c13 11 31 21 48 25c-2 45 -4 100 -9 119c-4 21 -12 34 -22 42c-11 8 -29 12 -44 12h-43c-18 0 -36 -5 -49 -17c-14 -12 -18 -29 -18 -99v-454h-151
c-12 169 -26 369 -37 482l149 -37c1 20 5 47 8 62c-197 53 -226 64 -243 76c-3 -19 -15 -53 -24 -71c22 -5 38 -14 44 -53c9 -51 39 -497 49 -669h-77v-68h439v68h-294l-10 145h210v527c0 27 1 41 5 45c4 3 9 5 14 5zM763 701l-51 17c-12 -63 -45 -160 -73 -233l48 -16
c29 73 63 169 76 232z" />
</svg>
