<?xml version="1.0" standalone="no"?>
<!DOCTYPE svg PUBLIC "-//W3C//DTD SVG 1.1//EN" "http://www.w3.org/Graphics/SVG/1.1/DTD/svg11.dtd" >
<svg xmlns="http://www.w3.org/2000/svg" xmlns:xlink="http://www.w3.org/1999/xlink" version="1.1" viewBox="-10 0 1010 1000">
   <path fill="currentColor"
d="M619 304v-116c-44 11 -87 21 -129 29c-3 -16 -14 -41 -22 -55c125 -27 267 -67 346 -108l56 54c-51 22 -115 44 -181 62v123l196 -31l10 61l-206 33v121l229 -34l10 63l-239 35v123c0 31 5 38 36 38h104c26 0 31 -20 34 -115c16 12 44 24 64 29c-8 117 -27 152 -92 152
h-119c-76 0 -97 -23 -97 -104v-113l-144 22l-9 -64l153 -22v-120l-127 21l-10 -62zM482 871h351c51 0 63 -11 67 -95c18 9 45 20 63 23c-10 114 -36 135 -137 135h-334c-89 0 -122 -33 -122 -84c0 -37 0 -82 6 -483h-173c-15 172 -32 371 -46 483l150 -38c1 18 4 44 7 58
c-194 55 -224 66 -241 79c-5 -18 -19 -50 -29 -67c24 -6 43 -16 49 -56c12 -50 48 -490 63 -677h-103v-67h431v67h-262c-4 43 -9 96 -14 154h235v20c-7 436 -7 478 -7 514c0 24 17 34 46 34zM347 655l-61 21c-15 -58 -49 -146 -78 -212l57 -18c31 67 66 153 82 209z" />
</svg>
