<?xml version="1.0" standalone="no"?>
<!DOCTYPE svg PUBLIC "-//W3C//DTD SVG 1.1//EN" "http://www.w3.org/Graphics/SVG/1.1/DTD/svg11.dtd" >
<svg xmlns="http://www.w3.org/2000/svg" xmlns:xlink="http://www.w3.org/1999/xlink" version="1.1" viewBox="-10 0 1010 1000">
   <path fill="currentColor"
d="M750 717h102c23 0 27 -17 31 -90c15 12 40 23 60 27c-5 69 -17 104 -45 118c17 10 44 20 62 23c-11 120 -37 144 -138 144h-347c-86 0 -119 -33 -119 -87c0 -37 0 -81 5 -484h-156c-13 163 -26 350 -38 459l150 -38c-1 19 0 47 1 62c-183 51 -212 61 -229 73
c-5 -18 -19 -52 -29 -69c21 -7 35 -16 41 -59c10 -60 39 -471 52 -647h-98v-67h391v67h-225l-11 154h217v20c-7 441 -7 482 -7 518c0 25 16 35 45 35h365c51 0 63 -12 67 -103c-11 5 -23 7 -40 7h-116c-72 0 -92 -21 -92 -103v-117h-173v-262h66v196h107v-266h-187v-64h187
v-112h68v112h201v64h-201v266h113v-197h67v263h-180v118c0 33 5 39 33 39zM331 677l-57 18c-9 -59 -37 -148 -70 -216l54 -16c33 67 64 156 73 214z" />
</svg>
