<?xml version="1.0" standalone="no"?>
<!DOCTYPE svg PUBLIC "-//W3C//DTD SVG 1.1//EN" "http://www.w3.org/Graphics/SVG/1.1/DTD/svg11.dtd" >
<svg xmlns="http://www.w3.org/2000/svg" xmlns:xlink="http://www.w3.org/1999/xlink" version="1.1" viewBox="-10 0 1010 1000">
   <path fill="currentColor"
d="M352 769v-204h-175v204h175zM301 310v186h120v342h-244v91h-70v-433h122v-186h-172v-70h172v-182h72v182h153v70h-153zM857 883h23c9 0 16 -2 20 -6c5 -5 7 -16 9 -36c3 -23 4 -71 4 -135c13 11 31 21 47 26c0 56 -3 124 -7 146c-5 26 -12 41 -23 51c-11 9 -29 14 -47 14
h-42c-19 0 -38 -6 -51 -18c-15 -12 -19 -29 -19 -101v-448h-168c-17 166 -37 360 -53 475l153 -41c-2 21 -2 51 0 65c-185 53 -214 65 -230 78c-3 -18 -14 -55 -22 -72c18 -6 26 -15 34 -58c14 -64 53 -478 69 -652h-101v-70h477v70h-306c-4 38 -9 86 -14 138h226v522
c0 28 1 43 5 48c4 3 9 4 16 4zM742 670l-52 30c-14 -58 -46 -148 -74 -217l48 -26c30 68 63 157 78 213z" />
</svg>
