<?xml version="1.0" standalone="no"?>
<!DOCTYPE svg PUBLIC "-//W3C//DTD SVG 1.1//EN" "http://www.w3.org/Graphics/SVG/1.1/DTD/svg11.dtd" >
<svg xmlns="http://www.w3.org/2000/svg" xmlns:xlink="http://www.w3.org/1999/xlink" version="1.1" viewBox="-10 0 1010 1000">
   <path fill="currentColor"
d="M499 338l-46 53c-36 -56 -110 -142 -176 -211c-50 91 -114 176 -188 242c-11 -13 -36 -34 -51 -45c101 -86 186 -217 230 -335l65 19c-8 20 -17 40 -27 61c72 69 155 159 193 216zM207 334l49 -29c37 36 80 83 99 114l-50 35c-19 -33 -62 -84 -98 -120zM409 490l47 30
c-38 95 -110 210 -163 286c36 35 67 69 88 97l-53 43c-43 -59 -134 -151 -208 -217l49 -37c24 21 51 44 77 69c40 -55 87 -134 118 -201h-260v-66h293zM866 883h20c7 0 13 -1 17 -5c3 -4 6 -13 8 -29c1 -17 3 -56 3 -106c13 11 31 21 48 25c-1 45 -4 100 -8 120
c-4 21 -11 33 -22 42c-10 9 -27 12 -42 12h-40c-18 0 -36 -5 -48 -17c-14 -12 -18 -29 -18 -98v-447h-171c-12 168 -25 366 -36 477l162 -38c1 19 4 47 7 62c-208 53 -237 64 -255 76c-5 -19 -17 -54 -25 -71c21 -6 38 -15 44 -54c9 -51 37 -489 48 -663h-91v-68h475v68
h-314l-10 144h231v521c0 26 1 40 5 44c2 3 7 5 12 5zM756 705l-57 17c-13 -62 -45 -160 -73 -234l53 -14c30 73 62 169 77 231z" />
</svg>
