<?xml version="1.0" standalone="no"?>
<!DOCTYPE svg PUBLIC "-//W3C//DTD SVG 1.1//EN" "http://www.w3.org/Graphics/SVG/1.1/DTD/svg11.dtd" >
<svg xmlns="http://www.w3.org/2000/svg" xmlns:xlink="http://www.w3.org/1999/xlink" version="1.1" viewBox="-10 0 1010 1000">
   <path fill="currentColor"
d="M595 187h-115c-29 41 -63 80 -106 115c-12 -16 -35 -37 -52 -45c81 -62 133 -146 159 -215l69 10c-10 25 -21 50 -34 75h341l13 -3l52 15c-26 54 -55 114 -81 153l-63 -18c14 -23 31 -55 45 -87h-154c-4 19 -9 35 -15 52c44 95 142 149 295 166c-15 13 -33 41 -42 60
c-136 -22 -228 -74 -282 -161c-47 78 -130 134 -282 168c-6 -17 -25 -45 -39 -59c199 -39 264 -114 291 -226zM329 178l-38 58c-44 -34 -129 -79 -198 -104l36 -51c68 22 156 65 200 97zM329 289l12 64c-93 32 -191 65 -267 92l-23 -67c71 -20 175 -55 278 -89zM373 732
l36 -40c61 26 136 69 176 101l-39 46c-37 -33 -112 -78 -173 -107zM761 878h82c36 0 43 -33 46 -115c17 16 42 26 61 31c-8 96 -21 143 -109 143h-90c-71 0 -99 -18 -98 -84l10 -175h-341c-21 70 -44 144 -62 196l269 -21c-4 18 -7 45 -8 59c-310 27 -348 32 -372 42
c-5 -20 -22 -56 -33 -74c28 -5 61 -13 73 -36c17 -31 70 -212 95 -297h-208v-63h850v63h-564l-22 74h398l-12 223c-1 27 8 34 35 34z" />
</svg>
