<?xml version="1.0" standalone="no"?>
<!DOCTYPE svg PUBLIC "-//W3C//DTD SVG 1.1//EN" "http://www.w3.org/Graphics/SVG/1.1/DTD/svg11.dtd" >
<svg xmlns="http://www.w3.org/2000/svg" xmlns:xlink="http://www.w3.org/1999/xlink" version="1.1" viewBox="-10 0 1010 1000">
   <path fill="currentColor"
d="M247 480v-134c-46 56 -108 109 -165 141c-8 -16 -25 -39 -40 -53c60 -26 125 -78 169 -134h-158v-59h194v-81c-55 8 -111 15 -162 19c-3 -14 -11 -37 -19 -52c122 -12 269 -34 348 -63l48 50c-41 14 -92 25 -147 35v92h172v59h-148c56 41 120 93 155 128l-48 38
c-29 -31 -81 -77 -131 -116v130h-68zM365 626h-137c-16 33 -35 65 -52 93c39 14 77 32 115 50c32 -38 56 -84 74 -143zM461 865l-42 46c-28 -20 -65 -44 -108 -67c-58 55 -132 89 -218 111c-9 -15 -32 -44 -47 -55c80 -18 148 -45 202 -89c-52 -26 -108 -50 -158 -69
c23 -32 47 -73 70 -116h-103v-63h134c14 -28 26 -57 35 -83l62 11c-8 23 -18 47 -29 72h131l14 -1l40 13c-19 95 -50 168 -93 224c43 22 81 46 110 66zM865 881h20c6 0 13 -1 17 -5c3 -4 6 -12 8 -28c1 -18 3 -57 3 -107c13 11 30 21 47 26c-1 45 -4 100 -8 119
c-4 21 -11 34 -21 43c-11 8 -27 12 -42 12h-40c-17 0 -35 -5 -47 -17c-13 -13 -17 -29 -17 -99v-445h-166c-12 166 -27 362 -39 474l179 -41c-1 19 0 47 1 62c-220 56 -252 66 -269 79c-6 -19 -21 -52 -30 -70c25 -6 47 -15 53 -53c11 -52 42 -495 53 -662h-87v-67h463v67
h-308l-11 144h225v519c0 26 0 40 4 44c3 4 7 5 12 5zM756 701l-56 22c-9 -63 -40 -161 -74 -234l52 -20c36 73 68 169 78 232z" />
</svg>
