<?xml version="1.0" standalone="no"?>
<!DOCTYPE svg PUBLIC "-//W3C//DTD SVG 1.1//EN" "http://www.w3.org/Graphics/SVG/1.1/DTD/svg11.dtd" >
<svg xmlns="http://www.w3.org/2000/svg" xmlns:xlink="http://www.w3.org/1999/xlink" version="1.1" viewBox="-10 0 1010 1000">
   <path fill="currentColor"
d="M436 206h-280v111h280v-111zM501 379h-345c-1 153 -11 383 -66 542c-11 -12 -39 -33 -52 -39c53 -158 58 -376 58 -521v-216h187c-10 -27 -23 -61 -38 -86l67 -16c18 31 37 72 46 102h143v234zM415 888h40c6 0 8 -3 8 -10v-172h-48v182zM318 648h54v-127h-54v127z
M219 648h56v-127h-56v127zM463 521h-48v127h48v-127zM517 459v420c0 26 -3 43 -20 53c-15 10 -36 11 -65 11c-2 -15 -10 -36 -17 -51v8h-43v-194h-54v195h-43v-195h-56v238h-50v-485h348zM876 880h19c6 0 12 -1 15 -5c3 -5 6 -14 8 -29c1 -18 3 -56 3 -106c11 9 25 17 39 21
c0 44 -3 101 -6 121c-4 20 -10 33 -19 42c-10 8 -25 13 -39 13h-35c-18 0 -34 -5 -46 -17s-15 -28 -15 -97v-447h-141c-9 164 -20 359 -29 475l123 -40c0 18 2 46 5 62c-162 58 -188 70 -204 84c-3 -18 -13 -53 -21 -70c19 -6 28 -12 33 -55c10 -67 31 -508 39 -671h-76v-67
h414v67h-272l-9 152h199v517c0 27 1 41 4 45s7 5 11 5zM790 683l-48 23c-14 -56 -47 -144 -75 -211l44 -19c30 65 65 152 79 207z" />
</svg>
