<?xml version="1.0" standalone="no"?>
<!DOCTYPE svg PUBLIC "-//W3C//DTD SVG 1.1//EN" "http://www.w3.org/Graphics/SVG/1.1/DTD/svg11.dtd" >
<svg xmlns="http://www.w3.org/2000/svg" xmlns:xlink="http://www.w3.org/1999/xlink" version="1.1" viewBox="-10 0 1010 1000">
   <path fill="currentColor"
d="M351 645h-105v107h105v-107zM400 804h-154v43h-48v-254h75v-78h-98v-54h98v-86h54v86h96v54h-96v78h73v211zM390 190h-181c16 34 34 78 41 107l-35 12h130c16 -35 34 -84 45 -119zM511 309v542c0 35 -7 52 -30 63c-22 10 -58 12 -115 11c-4 -17 -12 -42 -21 -58
c41 1 80 1 90 0c12 0 16 -4 16 -16v-480h-313v585h-59v-647h113c-8 -31 -24 -75 -38 -108l39 -11h-132v-62h210c-7 -24 -17 -49 -27 -71l54 -13c14 25 26 58 34 84h194v62h-111l36 11c-15 36 -30 76 -45 108h105zM885 890h19c6 0 11 -1 15 -4c2 -3 5 -11 7 -25
c2 -15 4 -49 4 -93c13 9 29 19 46 24c-1 40 -4 90 -8 107c-5 19 -11 30 -21 38s-25 11 -39 11h-38c-17 0 -34 -5 -46 -16c-13 -13 -17 -29 -17 -97v-449h-144c-16 166 -34 360 -49 472l127 -33c-3 19 -3 47 -3 61c-155 44 -182 55 -196 67c-4 -18 -16 -51 -24 -67
c19 -7 28 -14 35 -57c14 -64 50 -484 65 -654h-72v-67h392v67h-255c-4 39 -9 89 -14 144h201v523c0 25 1 40 4 44c2 3 7 4 11 4zM785 684l-53 21c-10 -60 -37 -150 -60 -218l50 -20c25 69 52 158 63 217z" />
</svg>
