<?xml version="1.0" standalone="no"?>
<!DOCTYPE svg PUBLIC "-//W3C//DTD SVG 1.1//EN" "http://www.w3.org/Graphics/SVG/1.1/DTD/svg11.dtd" >
<svg xmlns="http://www.w3.org/2000/svg" xmlns:xlink="http://www.w3.org/1999/xlink" version="1.1" viewBox="-10 0 1010 1000">
   <path fill="currentColor"
d="M133 157v680h375v65h-437v-809h426v64h-364zM399 400v-126h-146v126h146zM454 225v224h-254v-224h254zM208 565v154h60v-154h-60zM167 768v-252h142v252h-142zM455 718v-152h-66v152h66zM497 517v250h-150v-250h150zM876 879h17c6 0 11 -1 14 -5s6 -13 7 -29
c2 -18 3 -56 4 -107c11 11 27 21 42 26c0 44 -3 100 -7 120c-4 21 -10 34 -19 42c-9 9 -24 13 -38 13h-35c-15 0 -31 -5 -42 -18c-12 -13 -16 -29 -16 -99v-450h-136c-11 164 -23 356 -34 467l120 -33c-1 19 2 48 5 63c-164 51 -189 60 -205 73c-4 -19 -15 -55 -23 -72
c20 -6 37 -16 43 -55c8 -50 35 -483 45 -654h-75v-67h397v67h-259l-10 144h190v524c0 26 1 41 4 45s6 5 11 5zM787 699l-52 17c-12 -62 -44 -160 -70 -234l49 -16c28 74 60 170 73 233z" />
</svg>
