<?xml version="1.0" standalone="no"?>
<!DOCTYPE svg PUBLIC "-//W3C//DTD SVG 1.1//EN" "http://www.w3.org/Graphics/SVG/1.1/DTD/svg11.dtd" >
<svg xmlns="http://www.w3.org/2000/svg" xmlns:xlink="http://www.w3.org/1999/xlink" version="1.1" viewBox="-10 0 1010 1000">
   <path fill="currentColor"
d="M470 61l59 28c-31 45 -67 95 -97 127l-46 -24c29 -35 65 -92 84 -131zM232 190l-53 29c-14 -35 -47 -88 -77 -128l51 -25c30 38 64 90 79 124zM281 477v-155c-56 63 -130 121 -194 154c-10 -15 -27 -37 -41 -48c69 -30 152 -87 206 -148h-185v-59h214v-173h62v173h210v59
h-204c50 25 180 96 214 117l-30 54c-37 -26 -130 -86 -190 -121v147h-62zM275 537l34 10c-32 207 -119 343 -233 411c-7 -14 -21 -36 -34 -48c54 -29 103 -78 140 -143c-18 -20 -41 -42 -63 -59l32 -39c18 13 40 31 56 47c17 -38 31 -79 40 -123h-86c-20 52 -46 99 -73 135
c-9 -9 -29 -30 -42 -39c48 -59 81 -145 100 -233l54 11c-6 25 -12 48 -20 72h85zM572 807h-72v144h-57v-144h-141c10 -50 20 -126 26 -186l53 4c-4 40 -10 86 -15 126h77v-154h-122v-56h122v-77h57v77h70v56h-70v154h72v56zM882 886h12c4 0 8 -1 11 -5s5 -12 6 -27
c2 -17 3 -55 3 -103c13 10 30 21 45 25c-1 43 -3 95 -7 112c-3 21 -10 32 -18 40c-9 8 -21 11 -34 11h-32c-14 0 -29 -5 -39 -16c-12 -12 -15 -27 -15 -96v-452h-109c-13 169 -27 371 -39 484l111 -28c1 18 5 44 8 58c-158 45 -184 56 -199 67c-4 -17 -14 -49 -22 -65
c20 -6 37 -14 43 -51c10 -52 40 -505 51 -675h-89v-64h366v64h-215l-11 148h162v523c0 26 -1 42 2 46c2 3 5 4 9 4zM802 712l-44 11c-4 -64 -20 -161 -37 -235l41 -9c18 75 34 170 40 233z" />
</svg>
