<?xml version="1.0" standalone="no"?>
<!DOCTYPE svg PUBLIC "-//W3C//DTD SVG 1.1//EN" "http://www.w3.org/Graphics/SVG/1.1/DTD/svg11.dtd" >
<svg xmlns="http://www.w3.org/2000/svg" xmlns:xlink="http://www.w3.org/1999/xlink" version="1.1" viewBox="-10 0 1010 1000">
   <path fill="currentColor"
d="M319 478v84h368v-84h-368zM687 211h-368v74h368v-74zM319 342v78h368v-78h-368zM948 562l1 65h-703v228h629v64h-702v-292h-121v-65h194v-351h-171v-63h171v-104h73v104h368v-104h75v104h158v63h-158v351h186zM591 670l53 -38c62 47 135 115 170 161l-56 43
c-34 -47 -105 -117 -167 -166zM358 843l-54 -35c46 -45 109 -117 145 -171l57 35c-42 61 -103 126 -148 171z" />
</svg>
