<?xml version="1.0" standalone="no"?>
<!DOCTYPE svg PUBLIC "-//W3C//DTD SVG 1.1//EN" "http://www.w3.org/Graphics/SVG/1.1/DTD/svg11.dtd" >
<svg xmlns="http://www.w3.org/2000/svg" xmlns:xlink="http://www.w3.org/1999/xlink" version="1.1" viewBox="-10 0 1010 1000">
   <path fill="currentColor"
d="M764 206l-64 36c-20 -40 -68 -101 -111 -146l61 -32c44 42 93 101 114 142zM213 187h-76v225h76v-225zM343 412v-225h-77v225h77zM266 716h77v-246h-77v246zM137 470v246h76v-246h-76zM401 121v660h-264v73h-58v-733h322zM955 319h-361v516h333v66h-409v-582h-83v-70h520
v70z" />
</svg>
