<?xml version="1.0" standalone="no"?>
<!DOCTYPE svg PUBLIC "-//W3C//DTD SVG 1.1//EN" "http://www.w3.org/Graphics/SVG/1.1/DTD/svg11.dtd" >
<svg xmlns="http://www.w3.org/2000/svg" xmlns:xlink="http://www.w3.org/1999/xlink" version="1.1" viewBox="-10 0 1010 1000">
   <path fill="currentColor"
d="M543 269l-74 27c-12 -63 -46 -159 -81 -231l70 -22c35 71 70 165 85 226zM262 284l-72 33c-20 -59 -72 -150 -122 -215l65 -29c53 65 106 152 129 211zM807 585v-175h-275v175h275zM532 839h275v-184h-275v184zM196 655v184h264v-184h-264zM460 410h-264v175h264v-175z
M839 53l83 27c-49 87 -112 190 -164 258h124v614h-75v-41h-611v45h-72v-618h621l-57 -22c52 -70 116 -182 151 -263z" />
</svg>
