<?xml version="1.0" standalone="no"?>
<!DOCTYPE svg PUBLIC "-//W3C//DTD SVG 1.1//EN" "http://www.w3.org/Graphics/SVG/1.1/DTD/svg11.dtd" >
<svg xmlns="http://www.w3.org/2000/svg" xmlns:xlink="http://www.w3.org/1999/xlink" version="1.1" viewBox="-10 0 1010 1000">
   <path fill="currentColor"
d="M809 539l15 54c-119 62 -246 125 -343 173l-24 -68c88 -36 225 -99 352 -159zM746 507l-48 46c-32 -46 -100 -112 -162 -156l44 -39c64 44 132 105 166 149zM270 694h75v-228h-75v228zM138 466v228h77v-228h-77zM215 190h-77v217h77v-217zM345 407v-217h-75v217h75z
M937 203v38c-14 473 -26 627 -61 675c-20 27 -40 35 -71 39c-30 4 -79 3 -128 0c-1 -21 -9 -51 -21 -71c52 5 99 5 120 5c16 1 26 -2 36 -16c29 -34 42 -185 53 -601h-319c-27 57 -58 107 -91 146c-10 -8 -31 -22 -49 -32v373h-268v92h-60v-727h328v239
c67 -80 116 -199 145 -323l71 16c-12 51 -28 100 -47 147h362z" />
</svg>
