<?xml version="1.0" standalone="no"?>
<!DOCTYPE svg PUBLIC "-//W3C//DTD SVG 1.1//EN" "http://www.w3.org/Graphics/SVG/1.1/DTD/svg11.dtd" >
<svg xmlns="http://www.w3.org/2000/svg" xmlns:xlink="http://www.w3.org/1999/xlink" version="1.1" viewBox="-10 0 1010 1000">
   <path fill="currentColor"
d="M482 432l-66 29c-5 -17 -12 -38 -21 -58c-224 61 -255 72 -274 85v-1c-8 -16 -28 -44 -39 -56c14 -13 36 -38 36 -84v-218c100 -21 215 -54 282 -85l50 55c-71 29 -169 55 -260 74v214l175 -44c-17 -34 -38 -70 -58 -100l59 -24c47 66 97 155 116 213zM466 601h-220v98
h220v-98zM762 699v-98h-226v98h226zM536 859h226v-102h-226v102zM246 859h220v-102h-220v102zM172 957v-417h667v413h-77v-32h-516v36h-74zM501 99h414s-1 21 -1 32c-10 217 -20 297 -43 325c-16 19 -34 26 -60 28c-24 2 -68 2 -112 0c-2 -21 -9 -48 -20 -66c43 4 84 4 99 4
c16 1 25 -1 32 -10c14 -16 23 -81 31 -248h-154c-16 158 -61 278 -208 348c-9 -17 -29 -42 -43 -53c130 -58 168 -162 182 -295h-117v-65z" />
</svg>
