<?xml version="1.0" standalone="no"?>
<!DOCTYPE svg PUBLIC "-//W3C//DTD SVG 1.1//EN" "http://www.w3.org/Graphics/SVG/1.1/DTD/svg11.dtd" >
<svg xmlns="http://www.w3.org/2000/svg" xmlns:xlink="http://www.w3.org/1999/xlink" version="1.1" viewBox="-10 0 1010 1000">
   <path fill="currentColor"
d="M887 279l-56 45c-19 -20 -44 -44 -74 -69c-494 23 -545 24 -578 36c-3 -16 -14 -53 -23 -72c19 -3 41 -14 68 -31c27 -16 118 -80 182 -148l70 37c-56 51 -117 99 -179 137l392 -14c-36 -28 -74 -56 -109 -78l54 -39c87 55 199 139 253 196zM303 543h390
c-41 -31 -77 -67 -106 -104h-181c-30 38 -64 73 -103 104zM535 851h197v-97h-197v97zM270 754v97h194v-97h-194zM464 697v-93h-194v93h194zM732 697v-93h-197v93h197zM938 439h-264c71 70 179 128 286 156c-17 15 -38 42 -49 62c-34 -11 -70 -26 -103 -42v339h-76v-40h-462
v44h-73v-341c-34 20 -72 39 -109 55c-10 -16 -34 -48 -49 -63c105 -39 199 -95 271 -170h-249v-67h305c21 -29 38 -60 53 -95l74 20c-12 26 -26 52 -40 75h485v67z" />
</svg>
