<?xml version="1.0" standalone="no"?>
<!DOCTYPE svg PUBLIC "-//W3C//DTD SVG 1.1//EN" "http://www.w3.org/Graphics/SVG/1.1/DTD/svg11.dtd" >
<svg xmlns="http://www.w3.org/2000/svg" xmlns:xlink="http://www.w3.org/1999/xlink" version="1.1" viewBox="-10 0 1010 1000">
   <path fill="currentColor"
d="M460 635h-225v85h225v-85zM762 720v-85h-228v85h228zM534 862h228v-89h-228v89zM235 862h225v-89h-225v89zM160 956v-380h681v377h-79v-32h-527v35h-75zM935 205h-460c-54 36 -109 68 -162 95l241 -13c31 -17 62 -36 91 -56l67 38c-134 82 -266 145 -393 194l429 -20
c-29 -28 -61 -55 -89 -77l57 -31c70 53 152 130 192 180l-58 37c-13 -17 -30 -37 -50 -57c-581 32 -634 33 -669 47c-3 -14 -12 -47 -19 -66c30 -2 71 -16 126 -37c35 -13 117 -48 208 -94c-221 14 -252 19 -270 26c-3 -14 -14 -49 -21 -66c20 -2 42 -10 70 -23
c23 -10 81 -39 140 -77h-303v-67h421c-10 -27 -28 -60 -45 -85l74 -17c21 30 44 73 54 102h369v67z" />
</svg>
