<?xml version="1.0" standalone="no"?>
<!DOCTYPE svg PUBLIC "-//W3C//DTD SVG 1.1//EN" "http://www.w3.org/Graphics/SVG/1.1/DTD/svg11.dtd" >
<svg xmlns="http://www.w3.org/2000/svg" xmlns:xlink="http://www.w3.org/1999/xlink" version="1.1" viewBox="-10 0 1010 1000">
   <path fill="currentColor"
d="M217 187h-79v225h79v-225zM344 412v-225h-77v225h77zM267 716h77v-246h-77v246zM138 470v246h79v-246h-79zM401 121v660h-263v73h-59v-733h322zM832 650h-260v182h260v-182zM506 947v-364h395v363h-69v-48h-260v49h-66zM596 213l-4 5c26 58 65 110 112 157
c54 -47 100 -101 133 -162h-241zM892 142l42 27c-40 98 -104 181 -179 250c61 48 135 87 215 111c-10 18 -20 50 -23 70c-91 -33 -175 -80 -244 -138c-80 60 -171 107 -263 140c-6 -19 -22 -53 -31 -68c86 -27 170 -67 244 -120c-41 -41 -75 -87 -101 -136
c-30 39 -60 75 -92 104c-8 -13 -31 -42 -44 -55c79 -70 151 -178 195 -290l64 19c-12 30 -26 60 -41 89h244z" />
</svg>
