<?xml version="1.0" standalone="no"?>
<!DOCTYPE svg PUBLIC "-//W3C//DTD SVG 1.1//EN" "http://www.w3.org/Graphics/SVG/1.1/DTD/svg11.dtd" >
<svg xmlns="http://www.w3.org/2000/svg" xmlns:xlink="http://www.w3.org/1999/xlink" version="1.1" viewBox="-10 0 1010 1000">
   <path fill="currentColor"
d="M291 701h444c-82 -19 -161 -43 -234 -72c-66 28 -138 52 -210 72zM284 867h430v-108h-430v108zM657 470h-322c44 34 100 65 163 92c61 -27 116 -58 159 -92zM220 249v68h242v-68h-242zM220 131v68h242v-68h-242zM775 199v-68h-241v68h241zM775 317v-68h-241v68h241z
M730 412l47 34c-49 57 -118 105 -198 146c116 39 250 67 381 80c-14 16 -32 43 -41 62c-45 -6 -89 -13 -134 -22v243h-71v-31h-430v32h-69v-236c-49 12 -97 21 -144 29c-6 -18 -21 -46 -34 -62c124 -17 263 -49 385 -94c-52 -26 -99 -55 -139 -88c-50 31 -107 60 -170 85
c-11 -16 -32 -40 -49 -52c129 -45 229 -108 291 -168h-206v-292h699v292h-400c-14 15 -29 30 -45 45h314z" />
</svg>
