<?xml version="1.0" standalone="no"?>
<!DOCTYPE svg PUBLIC "-//W3C//DTD SVG 1.1//EN" "http://www.w3.org/Graphics/SVG/1.1/DTD/svg11.dtd" >
<svg xmlns="http://www.w3.org/2000/svg" xmlns:xlink="http://www.w3.org/1999/xlink" version="1.1" viewBox="-10 0 1010 1000">
   <path fill="currentColor"
d="M198 574h610c-102 -48 -202 -116 -271 -190h-2v171h-74v-171h-6c-65 75 -160 142 -257 190zM534 864h215v-92h-215v92zM258 772v92h205v-92h-205zM463 719v-86h-205v86h205zM749 719v-86h-215v86h215zM938 384h-314c86 72 215 135 331 167c-16 14 -38 43 -49 62
c-26 -9 -54 -19 -81 -31v372h-76v-31h-491v35h-73v-378c-31 15 -62 27 -92 38c-12 -16 -32 -43 -48 -58c115 -34 240 -100 322 -176h-303v-65h222c-17 -33 -48 -82 -74 -118l65 -24c27 39 63 92 81 123l-44 19h147v-159c-108 7 -220 11 -318 12c-1 -17 -10 -43 -16 -59
c232 -4 528 -23 677 -62l49 54c-84 23 -196 38 -318 49v165h91c37 -45 84 -115 109 -165l71 35c-31 43 -67 91 -99 130h231v65z" />
</svg>
