<?xml version="1.0" standalone="no"?>
<!DOCTYPE svg PUBLIC "-//W3C//DTD SVG 1.1//EN" "http://www.w3.org/Graphics/SVG/1.1/DTD/svg11.dtd" >
<svg xmlns="http://www.w3.org/2000/svg" xmlns:xlink="http://www.w3.org/1999/xlink" version="1.1" viewBox="-10 0 1010 1000">
   <path fill="currentColor"
d="M276 400l64 20c-52 63 -139 123 -213 160c-12 -13 -36 -35 -52 -46c75 -32 156 -81 201 -134zM463 643h-220v82h220v-82zM761 725v-82h-228v82h228zM533 864h228v-85h-228v85zM243 779v85h220v-85h-220zM171 956v-370h665v370h-75v-35h-518v35h-72zM642 431l52 -35
c74 38 167 98 215 141l-55 39c-45 -42 -137 -104 -212 -145zM348 209h306c-57 -28 -111 -60 -155 -94c-45 34 -96 66 -151 94zM502 27l65 29c-7 8 -15 16 -24 23c95 70 267 135 419 161c-17 14 -40 41 -51 59c-63 -15 -131 -36 -196 -63v26h-179v69h356v58h-356v111
c0 37 -7 51 -34 61c-26 9 -66 10 -128 9c-4 -18 -14 -41 -23 -57c44 1 85 1 95 1c14 -1 17 -4 17 -15v-110h-356v-58h356v-69h-169v-27c-68 31 -140 57 -209 77c-11 -16 -31 -41 -48 -56c173 -42 365 -125 465 -229z" />
</svg>
