<?xml version="1.0" standalone="no"?>
<!DOCTYPE svg PUBLIC "-//W3C//DTD SVG 1.1//EN" "http://www.w3.org/Graphics/SVG/1.1/DTD/svg11.dtd" >
<svg xmlns="http://www.w3.org/2000/svg" xmlns:xlink="http://www.w3.org/1999/xlink" version="1.1" viewBox="-10 0 1010 1000">
   <path fill="currentColor"
d="M197 179h-65v231h65v-231zM312 410v-231h-67v231h67zM245 720h67v-247h-67v247zM132 473v247h65v-247h-65zM366 116v667h-234v76h-53v-743h287zM938 211h-393c-30 61 -64 116 -97 158c-13 -11 -42 -33 -59 -43c62 -69 116 -176 148 -283l68 19c-9 27 -20 56 -31 83h364
v66zM612 411l41 -32c37 29 85 70 108 95l-42 36c-23 -26 -70 -68 -107 -99zM752 713l-43 37c-26 -30 -76 -79 -115 -115l43 -32c38 34 89 80 115 110zM527 762h284c5 -44 9 -102 12 -178h-273c-7 64 -15 125 -23 178zM831 359h-256c-5 53 -11 107 -17 163h268
c1 -48 3 -102 5 -163zM960 584h-70c-3 74 -7 132 -11 178h62v61h-68c-7 48 -16 75 -28 90c-17 25 -37 33 -67 36c-29 3 -79 2 -128 -1c-1 -19 -8 -45 -18 -63c52 5 99 5 119 5c17 1 26 -2 34 -14c7 -8 13 -25 19 -53h-353c11 -64 23 -150 34 -239h-86v-62h93
c10 -78 18 -156 24 -224h383v36c-2 71 -4 133 -6 188h67v62z" />
</svg>
