<?xml version="1.0" standalone="no"?>
<!DOCTYPE svg PUBLIC "-//W3C//DTD SVG 1.1//EN" "http://www.w3.org/Graphics/SVG/1.1/DTD/svg11.dtd" >
<svg xmlns="http://www.w3.org/2000/svg" xmlns:xlink="http://www.w3.org/1999/xlink" version="1.1" viewBox="-10 0 1010 1000">
   <path fill="currentColor"
d="M449 430l-48 23c-5 -13 -11 -29 -18 -45c-229 24 -259 29 -277 38c-3 -14 -12 -43 -19 -59c20 -3 44 -18 71 -42c16 -12 49 -40 86 -77c-97 9 -117 13 -129 19c-2 -13 -13 -44 -20 -60c14 -1 28 -13 42 -30c16 -15 70 -79 102 -143l60 25c-33 52 -73 103 -112 143l109 -7
c23 -24 45 -51 65 -76l54 29c-69 78 -144 153 -220 209l165 -14c-12 -23 -24 -46 -37 -66l47 -17c31 48 66 112 79 150zM314 847h99v-79h-99v79zM164 768v79h98v-79h-98zM262 640h-98v79h98v-79zM413 719v-79h-99v79h99zM784 563l65 25c-37 78 -88 149 -149 212
c42 55 90 86 141 86c37 0 50 -33 58 -146c16 15 40 30 59 36c-15 141 -42 180 -120 180c-75 0 -138 -39 -191 -106c-52 44 -110 82 -172 112c-12 -17 -32 -40 -49 -56l16 -7h-278v32h-59v-342h367v295c49 -26 95 -57 136 -93c-39 -69 -71 -155 -96 -254h-456v-62h442
c-26 -131 -40 -279 -42 -431h73c0 157 16 305 42 431h182c-19 -14 -43 -28 -63 -40l37 -25c-100 11 -121 15 -133 21c-3 -13 -12 -42 -19 -58c20 -3 43 -18 72 -41c15 -11 48 -39 86 -74c-111 11 -131 16 -144 21c-4 -13 -14 -44 -21 -59c14 -2 29 -14 44 -30
c16 -16 72 -79 105 -143l61 25c-35 52 -77 103 -117 142l125 -9c24 -23 48 -50 68 -76l54 30c-70 76 -147 149 -223 205l170 -16c-12 -22 -24 -45 -36 -64l47 -18c30 48 66 111 79 150l-49 23c-5 -14 -10 -29 -18 -46l-134 15c36 17 76 44 96 63l-4 4h111v62h-361
c21 79 47 148 76 204c51 -54 92 -114 122 -178z" />
</svg>
