<?xml version="1.0" standalone="no"?>
<!DOCTYPE svg PUBLIC "-//W3C//DTD SVG 1.1//EN" "http://www.w3.org/Graphics/SVG/1.1/DTD/svg11.dtd" >
<svg xmlns="http://www.w3.org/2000/svg" xmlns:xlink="http://www.w3.org/1999/xlink" version="1.1" viewBox="-10 0 1010 1000">
   <path fill="currentColor"
d="M430 536l-48 -22c36 -63 46 -178 44 -278l50 6c4 102 -6 222 -46 294zM393 97v65h-342v-65h342zM145 285v108h158v-108h-158zM364 451h-278v-225h278v225zM199 580h-84v107h84v-107zM329 687v-107h-78v107h78zM251 856h78v-110h-78v110zM115 856h84v-110h-84v110zM58 957
v-440h330v440h-59v-38h-214v38h-57zM526 410v-355h60v354c0 198 -16 392 -149 546c-10 -13 -30 -33 -45 -43c121 -142 134 -322 134 -502zM749 580h-80v107h80v-107zM882 687v-107h-80v107h80zM802 856h80v-110h-80v110zM669 856h80v-110h-80v110zM611 957v-440h331v440h-60
v-38h-213v38h-58zM856 393v-108h-158v108h158zM639 226h278v225h-278v-225zM602 97h342v65h-342v-65z" />
</svg>
