<?xml version="1.0" standalone="no"?>
<!DOCTYPE svg PUBLIC "-//W3C//DTD SVG 1.1//EN" "http://www.w3.org/Graphics/SVG/1.1/DTD/svg11.dtd" >
<svg xmlns="http://www.w3.org/2000/svg" xmlns:xlink="http://www.w3.org/1999/xlink" version="1.1" viewBox="-10 0 1010 1000">
   <path fill="currentColor"
d="M368 370h-158c-89 0 -112 -20 -112 -92v-229h68v113c80 -22 164 -51 216 -77l51 50c-73 32 -175 62 -267 84v59c0 25 8 30 50 30h146c34 0 40 -12 44 -95c15 11 42 22 61 27c-8 104 -28 130 -99 130zM464 687h-166c-1 8 -3 16 -4 24c50 44 113 101 144 139l-47 48
c-25 -33 -72 -80 -118 -122c-27 66 -80 131 -179 183c-10 -15 -30 -37 -47 -48c127 -62 169 -149 183 -224h-176v-63h182v-14v-89h-77c-19 38 -39 72 -61 99c-13 -11 -40 -28 -57 -37c46 -53 80 -132 101 -209l66 14c-7 24 -15 48 -24 71h257v62h-138v90v13h161v63zM838 882
h120c-9 15 -18 45 -21 63h-103c-119 0 -216 -30 -277 -162c-20 70 -49 129 -90 178c-10 -11 -41 -33 -57 -42c85 -88 107 -226 113 -399l68 2c-3 63 -8 120 -16 173c23 71 56 116 96 145v-386h-198v-63h316c-54 -47 -163 -111 -250 -152l43 -46c34 15 72 34 110 54
c47 -30 94 -71 129 -110h-334v-60h386l14 -4l46 30c-45 64 -114 131 -182 179c33 20 63 41 85 59l-45 50h106l12 -3l45 13c-20 61 -45 131 -70 175l-55 -17c14 -27 30 -66 42 -105h-133v169h182v64h-182v183c31 9 66 12 100 12z" />
</svg>
