<?xml version="1.0" standalone="no"?>
<!DOCTYPE svg PUBLIC "-//W3C//DTD SVG 1.1//EN" "http://www.w3.org/Graphics/SVG/1.1/DTD/svg11.dtd" >
<svg xmlns="http://www.w3.org/2000/svg" xmlns:xlink="http://www.w3.org/1999/xlink" version="1.1" viewBox="-10 0 1010 1000">
   <path fill="currentColor"
d="M206 389l-58 39c-13 -48 -51 -124 -85 -180l54 -33c36 54 76 128 89 174zM946 151v72h-652v198c0 163 -23 390 -179 535c-11 -16 -38 -44 -54 -55c102 -96 139 -222 152 -340c-50 28 -100 56 -145 80l-26 -71c46 -20 109 -51 177 -84c1 -23 1 -45 1 -66v-269h339
c-15 -28 -34 -62 -52 -87l73 -22c24 33 51 77 65 109h301z" />
</svg>
