<?xml version="1.0" standalone="no"?>
<!DOCTYPE svg PUBLIC "-//W3C//DTD SVG 1.1//EN" "http://www.w3.org/Graphics/SVG/1.1/DTD/svg11.dtd" >
<svg xmlns="http://www.w3.org/2000/svg" xmlns:xlink="http://www.w3.org/1999/xlink" version="1.1" viewBox="-10 0 1010 1000">
   <path fill="currentColor"
d="M198 407l-63 27c-16 -45 -56 -120 -89 -175l58 -22c35 54 76 125 94 170zM943 225h-667v228c0 155 -18 370 -141 510c-13 -15 -45 -38 -63 -46c78 -88 108 -201 121 -310c-44 31 -87 60 -127 88l-29 -69c41 -23 101 -61 162 -99c1 -25 1 -50 1 -74v-298h346
c-10 -32 -26 -71 -40 -100l74 -16c18 36 37 81 48 116h315v70zM741 359l49 21c-16 70 -40 133 -68 191c41 143 122 265 241 318c-17 14 -38 42 -50 61c-110 -57 -187 -165 -235 -301c-90 146 -214 248 -348 310c-10 -18 -31 -49 -47 -64c179 -73 346 -240 416 -466h-188
c-40 77 -88 146 -141 197c-13 -13 -43 -36 -61 -46c88 -78 157 -200 196 -332l73 16c-11 33 -23 67 -36 98h186z" />
</svg>
