<?xml version="1.0" standalone="no"?>
<!DOCTYPE svg PUBLIC "-//W3C//DTD SVG 1.1//EN" "http://www.w3.org/Graphics/SVG/1.1/DTD/svg11.dtd" >
<svg xmlns="http://www.w3.org/2000/svg" xmlns:xlink="http://www.w3.org/1999/xlink" version="1.1" viewBox="-10 0 1010 1000">
   <path fill="currentColor"
d="M184 419l-58 31c-11 -49 -44 -127 -77 -186l55 -26c35 56 70 132 80 181zM272 224v229c0 155 -21 367 -157 504c-11 -14 -39 -41 -54 -51c80 -82 115 -186 130 -288c-45 26 -90 52 -131 75l-26 -68c44 -18 102 -50 164 -82c2 -31 3 -62 3 -91v-295h347
c-11 -33 -26 -72 -41 -102l74 -16c17 37 38 83 48 118h325v67h-682zM884 360l-45 47c-32 -30 -95 -71 -146 -98l43 -42c50 25 114 64 148 93zM722 868h127c34 0 40 -17 44 -127c15 12 45 23 66 28c-8 133 -29 166 -103 166h-144c-85 0 -107 -22 -107 -100v-278
c-30 183 -105 320 -304 402c-8 -19 -31 -47 -48 -60c201 -78 263 -213 285 -400h-234v-67h240c4 -54 5 -111 7 -172h75c-2 61 -4 118 -8 172h328v67h-333c-2 18 -4 35 -7 52h72v284c0 27 7 33 44 33z" />
</svg>
