<?xml version="1.0" standalone="no"?>
<!DOCTYPE svg PUBLIC "-//W3C//DTD SVG 1.1//EN" "http://www.w3.org/Graphics/SVG/1.1/DTD/svg11.dtd" >
<svg xmlns="http://www.w3.org/2000/svg" xmlns:xlink="http://www.w3.org/1999/xlink" version="1.1" viewBox="-10 0 1010 1000">
   <path fill="currentColor"
d="M195 403l-58 33c-14 -49 -54 -125 -93 -180l55 -27c41 54 82 126 96 174zM952 230h-677v223c0 155 -21 370 -157 507c-12 -15 -41 -43 -57 -53c89 -89 122 -207 134 -318c-46 31 -91 60 -132 87l-29 -68c44 -22 103 -59 166 -97c1 -20 1 -40 1 -59v-292h350
c-15 -31 -37 -68 -57 -96l73 -21c26 36 54 84 70 117h315v70zM448 650v-111h72v113c0 107 -21 225 -174 306c-10 -17 -34 -42 -50 -55c137 -69 152 -166 152 -253zM716 956v-417h73v417h-73zM595 243l69 21c-6 12 -11 23 -18 34c71 91 198 172 315 210c-16 15 -37 41 -48 60
c-109 -43 -224 -123 -302 -217c-69 90 -164 165 -274 219c-12 -16 -35 -43 -51 -56c137 -63 254 -162 309 -271z" />
</svg>
