<?xml version="1.0" standalone="no"?>
<!DOCTYPE svg PUBLIC "-//W3C//DTD SVG 1.1//EN" "http://www.w3.org/Graphics/SVG/1.1/DTD/svg11.dtd" >
<svg xmlns="http://www.w3.org/2000/svg" xmlns:xlink="http://www.w3.org/1999/xlink" version="1.1" viewBox="-10 0 1010 1000">
   <path fill="currentColor"
d="M181 420l-60 29c-7 -50 -39 -128 -70 -188l55 -24c33 57 65 134 75 183zM594 227l70 24c-7 12 -15 24 -22 35c76 83 206 165 315 204c-17 15 -37 41 -49 59c-102 -44 -221 -125 -304 -212c-49 60 -108 114 -176 160h378s-1 19 -2 29c-11 127 -21 182 -44 203
c-15 16 -33 22 -60 24c-25 1 -72 1 -121 -1c-2 -20 -10 -46 -21 -64c49 5 96 6 113 6c16 0 26 -1 34 -8c12 -11 21 -45 28 -122h-258v265c0 36 12 44 77 44h220c53 0 62 -19 67 -123c18 12 47 23 67 27c-11 130 -33 164 -130 164h-228c-111 0 -143 -22 -143 -111v-317
c-30 18 -62 37 -94 53c-11 -15 -33 -40 -49 -53c-5 147 -33 327 -148 449c-11 -15 -40 -43 -55 -53c83 -89 114 -205 126 -315c-40 33 -80 65 -118 94l-31 -64c40 -27 96 -69 154 -114c1 -18 1 -36 1 -53v-309h355c-11 -28 -29 -61 -46 -87l73 -18c22 31 46 73 58 105h318
v68h-686v241c0 17 0 35 -1 54c144 -69 270 -173 332 -284z" />
</svg>
