<?xml version="1.0" standalone="no"?>
<!DOCTYPE svg PUBLIC "-//W3C//DTD SVG 1.1//EN" "http://www.w3.org/Graphics/SVG/1.1/DTD/svg11.dtd" >
<svg xmlns="http://www.w3.org/2000/svg" xmlns:xlink="http://www.w3.org/1999/xlink" version="1.1" viewBox="-10 0 1010 1000">
   <path fill="currentColor"
d="M196 403l-60 28c-17 -46 -58 -118 -93 -172l57 -23c36 52 77 124 96 167zM271 220v229c0 156 -18 370 -142 511c-12 -13 -43 -36 -61 -44c77 -87 109 -200 122 -308c-43 29 -86 57 -126 83l-27 -66c41 -22 99 -56 159 -94c2 -28 2 -56 2 -82v-299h349
c-12 -30 -28 -66 -42 -94l73 -18c19 35 39 78 52 112h323v70h-682zM536 824l100 -19l5 65c-135 28 -275 56 -377 77l-15 -72l78 -14v-461h64v450l78 -14v-566h67v218h102v67h-102v269zM774 864h96c22 0 26 -20 28 -108c16 12 43 24 62 29c-6 106 -24 141 -85 141h-110
c-71 0 -91 -23 -91 -100v-561h69v275c51 -48 101 -104 132 -151l54 52c-54 58 -121 121 -186 173v212c0 31 4 38 31 38z" />
</svg>
