<?xml version="1.0" standalone="no"?>
<!DOCTYPE svg PUBLIC "-//W3C//DTD SVG 1.1//EN" "http://www.w3.org/Graphics/SVG/1.1/DTD/svg11.dtd" >
<svg xmlns="http://www.w3.org/2000/svg" xmlns:xlink="http://www.w3.org/1999/xlink" version="1.1" viewBox="-10 0 1010 1000">
   <path fill="currentColor"
d="M181 407l-60 30c-9 -49 -42 -128 -75 -186l55 -27c35 57 69 133 80 183zM266 202v235c0 156 -20 370 -155 509c-11 -15 -39 -40 -54 -50c77 -80 112 -181 126 -280c-43 25 -87 50 -127 72l-26 -68c43 -19 101 -49 162 -80c2 -37 3 -72 3 -104v-299h325
c-12 -21 -28 -42 -42 -60l60 -31c24 26 48 62 63 91h351v65h-686zM851 264l55 47c-132 57 -388 74 -583 74c-1 -16 -10 -41 -18 -56c189 -2 437 -18 546 -65zM850 520l48 34c-86 101 -224 202 -370 267c48 19 105 25 177 25c75 0 188 -4 261 -12c-7 16 -15 46 -17 64
c-57 4 -178 8 -246 8c-90 0 -158 -12 -216 -46c-37 -23 -65 -48 -87 -48c-32 0 -79 49 -125 104l-41 -55c59 -59 119 -103 167 -103c22 0 38 12 64 27c117 -48 233 -125 309 -198h-460v-64h273c-16 -33 -41 -71 -65 -101l61 -31c34 39 68 93 81 129l-5 3h175z" />
</svg>
