<?xml version="1.0" standalone="no"?>
<!DOCTYPE svg PUBLIC "-//W3C//DTD SVG 1.1//EN" "http://www.w3.org/Graphics/SVG/1.1/DTD/svg11.dtd" >
<svg xmlns="http://www.w3.org/2000/svg" xmlns:xlink="http://www.w3.org/1999/xlink" version="1.1" viewBox="-10 0 1010 1000">
   <path fill="currentColor"
d="M169 413l-59 26c-7 -51 -33 -133 -63 -195l56 -21c32 60 59 140 66 190zM437 370h163s0 24 -1 33c-10 337 -20 450 -46 487c-16 20 -33 28 -58 31c-21 2 -57 2 -94 1c-1 -21 -8 -48 -18 -67c36 3 68 4 83 4c14 0 21 -2 29 -14c19 -23 28 -125 37 -409h-97
c-12 213 -45 399 -154 516c-9 -14 -33 -34 -50 -45c100 -104 129 -276 139 -471h-86v-66h88c2 -42 2 -86 3 -129h65c-1 44 -2 87 -3 129zM852 373h-127v429h127v-429zM662 928v-620h255v608h-65v-49h-127v61h-63zM611 144h336v66h-699v251c0 153 -19 363 -143 498
c-9 -15 -37 -40 -51 -49c79 -88 108 -203 119 -313c-36 27 -73 52 -109 77l-26 -65c37 -21 87 -52 140 -87c1 -21 1 -41 1 -61v-317h353c-11 -27 -29 -58 -46 -83l66 -18c23 29 46 70 59 101z" />
</svg>
