<?xml version="1.0" standalone="no"?>
<!DOCTYPE svg PUBLIC "-//W3C//DTD SVG 1.1//EN" "http://www.w3.org/Graphics/SVG/1.1/DTD/svg11.dtd" >
<svg xmlns="http://www.w3.org/2000/svg" xmlns:xlink="http://www.w3.org/1999/xlink" version="1.1" viewBox="-10 0 1010 1000">
   <path fill="currentColor"
d="M174 412l-58 30c-9 -50 -40 -128 -71 -188l55 -25c33 57 65 135 74 183zM951 209h-689v244c0 155 -19 367 -149 505c-10 -14 -38 -41 -52 -50c79 -85 111 -196 123 -302c-44 27 -88 53 -128 77l-26 -67c42 -19 99 -50 160 -82c2 -28 2 -55 2 -81v-311h343
c-12 -27 -30 -59 -46 -85l67 -19c23 31 44 72 58 104h337v67zM647 738v129h292v64h-658v-64h293v-129h-213v-62h213v-106h-184v-62h450v62h-193v106h220v62h-220zM592 220l67 23c-5 7 -10 15 -15 22c76 79 209 162 318 202c-17 14 -39 40 -49 58
c-101 -43 -224 -126 -308 -210c-78 92 -182 169 -281 223c-13 -14 -41 -37 -58 -48c129 -59 256 -156 326 -270z" />
</svg>
