<?xml version="1.0" standalone="no"?>
<!DOCTYPE svg PUBLIC "-//W3C//DTD SVG 1.1//EN" "http://www.w3.org/Graphics/SVG/1.1/DTD/svg11.dtd" >
<svg xmlns="http://www.w3.org/2000/svg" xmlns:xlink="http://www.w3.org/1999/xlink" version="1.1" viewBox="-10 0 1010 1000">
   <path fill="currentColor"
d="M172 413l-60 26c-7 -51 -33 -133 -63 -196l56 -22c32 62 59 142 67 192zM256 198v258c0 152 -19 364 -142 502c-10 -14 -38 -40 -52 -49c77 -87 107 -198 118 -306c-41 24 -82 49 -120 71l-26 -65c40 -19 94 -48 152 -78c1 -26 1 -52 1 -76v-321h353
c-10 -25 -22 -52 -34 -74l71 -20c16 28 33 65 46 94h334v64h-701zM386 642h171c4 -22 6 -44 7 -66h-161c-5 23 -11 45 -17 66zM633 452v72h198v-72h-198zM865 697h-210c45 114 145 177 308 200c-15 14 -33 41 -42 60c-165 -31 -265 -101 -319 -229c-41 94 -130 176 -324 230
c-8 -14 -27 -42 -41 -57c192 -46 271 -120 305 -204h-241c17 -48 34 -116 46 -173h217v-72h-242v-52h242v-61h-273v-57h273v-59h69v59h313v57h-313v61h263v176h-263c-1 22 -3 44 -7 66h311s-1 16 -2 25c-8 84 -17 122 -33 138c-12 13 -26 18 -46 19c-14 1 -43 2 -70 0
c-1 -15 -6 -36 -14 -50c24 3 45 3 54 3c10 0 15 -1 20 -7c7 -8 13 -28 19 -73z" />
</svg>
