<?xml version="1.0" standalone="no"?>
<!DOCTYPE svg PUBLIC "-//W3C//DTD SVG 1.1//EN" "http://www.w3.org/Graphics/SVG/1.1/DTD/svg11.dtd" >
<svg xmlns="http://www.w3.org/2000/svg" xmlns:xlink="http://www.w3.org/1999/xlink" version="1.1" viewBox="-10 0 1010 1000">
   <path fill="currentColor"
d="M185 415l-58 32c-16 -46 -49 -127 -78 -187l57 -26c28 59 64 136 79 181zM823 542l63 32c-44 60 -99 113 -161 161c77 48 168 107 218 147l-49 56c-50 -42 -148 -109 -229 -160c-108 71 -235 127 -371 165c-9 -16 -26 -43 -42 -58c240 -62 456 -184 571 -343zM540 243
l65 -22c17 30 34 69 44 98h294v62h-339c-50 50 -104 97 -157 134l215 -9c25 -24 47 -50 66 -76l60 28c-101 140 -276 256 -459 323c-9 -16 -28 -39 -42 -52c110 -38 220 -95 308 -165c-202 11 -231 16 -250 24c-3 -15 -13 -51 -22 -69c19 -2 38 -14 63 -31
c20 -14 73 -56 123 -107h-204v-62h267c-10 -26 -22 -53 -32 -76zM622 147h333v66h-683v233c0 155 -20 369 -157 507c-11 -15 -38 -40 -53 -50c80 -82 114 -186 129 -288c-45 26 -90 52 -131 74l-26 -67c44 -19 102 -49 164 -82c2 -32 3 -64 3 -95v-298h340
c-9 -29 -20 -62 -31 -89l73 -16c13 32 28 71 39 105z" />
</svg>
