<?xml version="1.0" standalone="no"?>
<!DOCTYPE svg PUBLIC "-//W3C//DTD SVG 1.1//EN" "http://www.w3.org/Graphics/SVG/1.1/DTD/svg11.dtd" >
<svg xmlns="http://www.w3.org/2000/svg" xmlns:xlink="http://www.w3.org/1999/xlink" version="1.1" viewBox="-10 0 1010 1000">
   <path fill="currentColor"
d="M175 410l-58 30c-14 -47 -46 -128 -72 -188l56 -24c27 58 60 137 74 182zM692 678v-161h-147v161h147zM750 458v281h-261v-281h261zM840 370h-437v455h437v-455zM337 953v-650h571v643h-68v-55h-437v62h-66zM619 140h332v65h-688v248c0 155 -20 368 -149 507
c-11 -15 -38 -42 -52 -50c79 -87 111 -199 123 -306c-44 27 -88 53 -129 76l-26 -66c42 -19 101 -50 161 -82c2 -28 2 -54 2 -79v-313h344c-8 -27 -19 -57 -27 -82l72 -16c13 30 27 67 37 98z" />
</svg>
