<?xml version="1.0" standalone="no"?>
<!DOCTYPE svg PUBLIC "-//W3C//DTD SVG 1.1//EN" "http://www.w3.org/Graphics/SVG/1.1/DTD/svg11.dtd" >
<svg xmlns="http://www.w3.org/2000/svg" xmlns:xlink="http://www.w3.org/1999/xlink" version="1.1" viewBox="-10 0 1010 1000">
   <path fill="currentColor"
d="M171 408l-60 26c-7 -50 -32 -132 -62 -196l55 -21c32 62 60 141 67 191zM867 573l15 -3l45 26c-115 229 -391 321 -679 355c-4 -19 -17 -47 -29 -64c137 -13 272 -40 385 -89c-28 -24 -63 -50 -95 -69l47 -34c35 19 77 49 107 74c64 -35 119 -79 159 -134h-242
c-66 50 -147 96 -242 134c-10 -16 -31 -38 -46 -49c164 -60 283 -147 345 -226l77 16c-18 21 -39 43 -60 63h213zM622 130h335v62h-404l67 13c-16 23 -35 45 -55 68h220l12 -4l47 30c-101 167 -326 268 -529 315c-7 -16 -24 -41 -37 -56c83 -15 170 -43 248 -79
c-27 -23 -62 -48 -93 -68l47 -34c35 20 75 49 104 73c60 -33 112 -72 151 -116h-235c-52 44 -114 84 -186 119c-11 -16 -33 -36 -48 -47c133 -57 230 -141 281 -214h-297v261c0 152 -18 365 -139 503c-9 -14 -37 -40 -52 -49c75 -86 105 -197 116 -303
c-39 23 -78 47 -116 68l-25 -66c38 -17 90 -46 146 -75c2 -27 2 -54 2 -78v-323h359c-13 -23 -27 -45 -42 -65l64 -25c22 26 45 61 59 90z" />
</svg>
