<?xml version="1.0" standalone="no"?>
<!DOCTYPE svg PUBLIC "-//W3C//DTD SVG 1.1//EN" "http://www.w3.org/Graphics/SVG/1.1/DTD/svg11.dtd" >
<svg xmlns="http://www.w3.org/2000/svg" xmlns:xlink="http://www.w3.org/1999/xlink" version="1.1" viewBox="-10 0 1010 1000">
   <path fill="currentColor"
d="M170 411l-58 30c-9 -50 -40 -129 -71 -188l55 -26c33 58 66 136 74 184zM947 206h-688v244c0 154 -20 365 -150 503c-10 -15 -38 -42 -52 -51c78 -84 111 -192 124 -297c-44 28 -88 53 -129 77l-26 -67c42 -20 100 -50 161 -83c2 -29 2 -56 2 -83v-309h339
c-14 -26 -32 -54 -49 -76l63 -26c26 30 52 70 67 102h338v66zM817 372l64 17c-28 38 -62 79 -92 113c42 37 86 85 109 117l-58 24c-25 -37 -74 -91 -127 -139c39 -45 81 -97 104 -132zM927 285v64h-605v-64h605zM616 372l65 16c-27 39 -59 80 -87 114c38 39 77 86 97 118
l-59 23c-22 -37 -65 -91 -113 -139c38 -45 77 -97 97 -132zM423 372l65 15c-25 40 -55 81 -84 115c38 39 75 86 95 119l-60 22c-21 -37 -62 -91 -107 -139c35 -45 71 -97 91 -132zM659 866h297v65h-684v-65h313v-141h-250v-64h584v64h-260v141z" />
</svg>
