<?xml version="1.0" standalone="no"?>
<!DOCTYPE svg PUBLIC "-//W3C//DTD SVG 1.1//EN" "http://www.w3.org/Graphics/SVG/1.1/DTD/svg11.dtd" >
<svg xmlns="http://www.w3.org/2000/svg" xmlns:xlink="http://www.w3.org/1999/xlink" version="1.1" viewBox="-10 0 1010 1000">
   <path fill="currentColor"
d="M173 408l-60 31c-9 -50 -40 -128 -72 -188l57 -26c33 58 66 134 75 183zM646 734h187v-83h-187v83zM398 734h179v-83h-179v83zM577 514h-179v82h179v-82zM833 596v-82h-187v82h187zM903 456v427c0 36 -8 52 -34 61c-25 11 -67 11 -132 11c-3 -17 -12 -40 -20 -56
c46 1 87 1 99 0c13 -1 17 -4 17 -16v-94h-187v158h-69v-158h-179v168h-69v-501h289c-60 -27 -129 -55 -191 -72l42 -43c45 13 95 31 143 49c47 -20 96 -48 136 -75h-396v-56h466l16 -4l45 38c-55 45 -130 91 -203 126c30 13 55 25 76 37h151zM621 139h326v66h-688v244
c0 155 -20 368 -149 506c-10 -16 -38 -41 -52 -50c78 -86 110 -195 123 -301c-44 26 -87 53 -128 76l-26 -67c42 -19 100 -49 160 -82c2 -28 2 -55 2 -82v-310h348c-14 -26 -32 -57 -49 -81l68 -21c24 31 50 72 65 102z" />
</svg>
