<?xml version="1.0" standalone="no"?>
<!DOCTYPE svg PUBLIC "-//W3C//DTD SVG 1.1//EN" "http://www.w3.org/Graphics/SVG/1.1/DTD/svg11.dtd" >
<svg xmlns="http://www.w3.org/2000/svg" xmlns:xlink="http://www.w3.org/1999/xlink" version="1.1" viewBox="-10 0 1010 1000">
   <path fill="currentColor"
d="M189 405l-57 32c-16 -46 -52 -119 -84 -175l55 -26c33 54 71 125 86 169zM271 222v230c0 155 -21 367 -157 504c-11 -14 -38 -40 -54 -50c86 -86 119 -198 132 -306c-46 27 -91 53 -133 77l-26 -68c44 -20 102 -50 165 -82c2 -27 2 -51 2 -76v-296h347
c-11 -31 -27 -69 -40 -98l72 -16c19 35 37 81 48 114h327v67h-683zM415 288l65 7c-7 41 -16 78 -29 113c47 40 100 91 126 126l-41 47c-23 -32 -66 -77 -107 -116c-28 62 -64 114 -107 154c-11 -11 -38 -32 -54 -40c77 -66 125 -170 147 -291zM647 865h311v64h-716v-64h336
v-145h-250v-63h250v-394h69v296c73 -62 119 -157 138 -269l66 8c-8 45 -20 86 -34 123c52 46 110 104 140 142l-44 46c-27 -35 -75 -86 -121 -131c-26 51 -60 95 -100 130c-9 -10 -29 -27 -45 -38v87h254v63h-254v145z" />
</svg>
