<?xml version="1.0" standalone="no"?>
<!DOCTYPE svg PUBLIC "-//W3C//DTD SVG 1.1//EN" "http://www.w3.org/Graphics/SVG/1.1/DTD/svg11.dtd" >
<svg xmlns="http://www.w3.org/2000/svg" xmlns:xlink="http://www.w3.org/1999/xlink" version="1.1" viewBox="-10 0 1010 1000">
   <path fill="currentColor"
d="M173 419l-59 30c-8 -50 -40 -128 -71 -188l55 -25c33 58 66 134 75 183zM410 450v164h380v-164h-380zM758 864h62c15 0 35 0 42 -3c9 -3 18 -8 21 -17c3 -12 5 -43 6 -79c13 11 36 24 55 30c-1 39 -6 80 -13 95c-8 15 -21 25 -39 31c-16 6 -45 8 -67 8h-78
c-26 0 -55 -3 -72 -14c-19 -13 -26 -27 -26 -73v-167h-119c-27 123 -89 219 -249 274c-9 -16 -28 -44 -43 -55c145 -44 200 -123 224 -219h-118v-286h281c39 -44 85 -110 110 -156l74 18c-33 48 -69 98 -102 138h152v286h-148v168c0 8 3 14 12 17c8 3 19 4 35 4zM526 342
l-54 37c-19 -35 -60 -84 -98 -118l51 -32c39 32 82 80 101 113zM602 148h347v65h-688v244c0 154 -20 365 -149 502c-11 -14 -38 -40 -53 -50c78 -83 110 -190 123 -294c-43 27 -87 52 -128 76l-26 -67c42 -20 100 -50 161 -83c2 -29 2 -58 2 -84v-309h330
c-14 -26 -33 -56 -50 -79l63 -26c27 31 52 73 68 105z" />
</svg>
