<?xml version="1.0" standalone="no"?>
<!DOCTYPE svg PUBLIC "-//W3C//DTD SVG 1.1//EN" "http://www.w3.org/Graphics/SVG/1.1/DTD/svg11.dtd" >
<svg xmlns="http://www.w3.org/2000/svg" xmlns:xlink="http://www.w3.org/1999/xlink" version="1.1" viewBox="-10 0 1010 1000">
   <path fill="currentColor"
d="M164 413l-55 26c-11 -48 -37 -128 -59 -190l52 -21c24 60 52 140 62 185zM871 636l-3 30c-19 162 -37 229 -66 255c-16 17 -34 22 -61 24c-24 1 -69 1 -116 -2c-1 -18 -8 -43 -19 -61c46 5 90 6 108 6c17 0 27 -2 34 -10c19 -16 35 -66 49 -182h-198
c-32 127 -106 212 -289 259c-7 -17 -24 -41 -37 -54c159 -38 226 -104 257 -205h-187v-60h200c5 -26 8 -56 10 -86h69c-3 30 -6 59 -10 86h259zM294 608v-150h631v150h-68v-92h-498v92h-65zM777 231v60h159v62h-159v75h-70v-75h-197v75h-70v-75h-150v-62h150v-60h70v60h197
v-60h70zM626 135h329v62h-707v254c0 155 -18 369 -140 510c-10 -15 -37 -41 -51 -49c74 -88 104 -198 116 -306c-38 23 -76 47 -112 68l-25 -63c38 -18 88 -46 142 -76c2 -29 2 -57 2 -84v-316h364c-8 -25 -17 -54 -26 -77l73 -16c12 28 26 64 35 93z" />
</svg>
