<?xml version="1.0" standalone="no"?>
<!DOCTYPE svg PUBLIC "-//W3C//DTD SVG 1.1//EN" "http://www.w3.org/Graphics/SVG/1.1/DTD/svg11.dtd" >
<svg xmlns="http://www.w3.org/2000/svg" xmlns:xlink="http://www.w3.org/1999/xlink" version="1.1" viewBox="-10 0 1010 1000">
   <path fill="currentColor"
d="M172 416l-58 26c-10 -50 -37 -133 -63 -197l56 -21c27 63 56 143 65 192zM423 871h340v-64h-340v64zM763 692h-340v64h340v-64zM418 391h184c-9 -28 -16 -58 -20 -90c-55 6 -110 10 -164 13v77zM908 449h-212c46 85 113 138 164 137c21 0 27 -21 31 -76
c15 12 35 22 52 27c-10 88 -33 111 -86 111c-8 0 -16 -1 -24 -2v309h-70v-29h-340v30h-67v-320h442c-67 -25 -131 -93 -174 -187h-206v98l196 -26c0 17 2 41 4 53c-238 35 -269 41 -289 51c-3 -18 -11 -56 -22 -77c17 -4 41 -12 41 -44v-237c148 -9 326 -28 425 -51l45 49
c-49 12 -107 22 -172 29c5 35 13 68 24 97h238v58zM619 137h340v63h-701v258c0 153 -19 363 -142 502c-10 -15 -38 -42 -52 -50c77 -87 107 -198 118 -305c-41 24 -82 49 -120 71l-26 -65c40 -19 94 -48 152 -79c1 -25 1 -51 1 -74v-321h349c-8 -26 -18 -56 -27 -80l73 -16
c13 29 26 66 35 96z" />
</svg>
