<?xml version="1.0" standalone="no"?>
<!DOCTYPE svg PUBLIC "-//W3C//DTD SVG 1.1//EN" "http://www.w3.org/Graphics/SVG/1.1/DTD/svg11.dtd" >
<svg xmlns="http://www.w3.org/2000/svg" xmlns:xlink="http://www.w3.org/1999/xlink" version="1.1" viewBox="-10 0 1010 1000">
   <path fill="currentColor"
d="M163 410l-59 27c-7 -52 -33 -134 -63 -197l56 -21c32 62 59 141 66 191zM243 203v256c0 152 -18 363 -138 499c-10 -14 -37 -39 -52 -48c76 -87 105 -201 116 -309c-40 24 -80 48 -117 70l-26 -66c39 -17 91 -45 148 -76c1 -24 1 -47 1 -70v-320h366
c-13 -26 -31 -56 -46 -79l65 -20c23 29 47 68 60 99h326v64h-703zM919 273v29c-8 220 -15 298 -36 324c-14 18 -30 24 -55 26c-19 3 -55 3 -91 1c-1 -19 -8 -45 -17 -61c35 3 65 3 79 3c12 0 20 -1 27 -10c12 -16 19 -81 25 -255h-100c-11 146 -40 258 -141 328
c-9 -15 -27 -34 -42 -45c88 -58 112 -156 120 -283h-74v-56h238v-1h67zM526 688l48 -32c48 33 104 82 131 120l-51 35c-25 -36 -80 -87 -128 -123zM280 920l-60 -34c46 -46 81 -120 101 -181l60 24c-22 62 -56 142 -101 191zM469 659h-68v-73h-130v-54h130v-69h-110v-52h110
v-69h-122v-53h122v-58h68v58h113v53h-113v69h100v52h-100v69h122v54h-122v73zM545 881h148c34 0 40 -12 44 -97c14 10 41 20 60 24c-8 108 -29 133 -97 133h-160c-90 0 -111 -19 -111 -87v-156h65v155c0 23 9 28 51 28zM768 713l56 -23c53 60 109 141 133 196l-60 26
c-22 -54 -77 -137 -129 -199z" />
</svg>
