<?xml version="1.0" standalone="no"?>
<!DOCTYPE svg PUBLIC "-//W3C//DTD SVG 1.1//EN" "http://www.w3.org/Graphics/SVG/1.1/DTD/svg11.dtd" >
<svg xmlns="http://www.w3.org/2000/svg" xmlns:xlink="http://www.w3.org/1999/xlink" version="1.1" viewBox="-10 0 1010 1000">
   <path fill="currentColor"
d="M192 391l-60 28c-16 -48 -57 -127 -92 -184l56 -24c35 56 77 133 96 180zM259 188v247c0 160 -18 378 -135 524c-10 -12 -38 -33 -54 -41c76 -93 105 -212 116 -327c-41 32 -83 63 -121 90l-28 -66c40 -23 96 -62 155 -103c1 -27 1 -52 1 -77v-308h345
c-8 -25 -19 -50 -28 -72l73 -16c14 27 27 61 37 88h335v61h-696zM407 486v54h402v-54h-402zM407 392v54h402v-54h-402zM407 299v52h402v-52h-402zM619 586l39 14c-6 6 -12 11 -19 17c72 49 200 81 325 94c-14 11 -30 36 -39 52c-124 -16 -248 -56 -325 -115
c-46 31 -103 56 -164 76v66c106 -18 228 -42 299 -67l32 50c-86 28 -220 51 -331 67v14c0 26 12 31 78 31h233c51 0 61 -14 66 -103c16 10 41 18 59 22c-8 109 -30 135 -120 135h-241c-111 0 -143 -16 -143 -85v-109c-31 9 -64 15 -94 22c-6 -12 -25 -40 -37 -53
c135 -22 283 -62 356 -128h-256v-333h210c11 -19 21 -44 28 -59l69 18c-9 15 -18 28 -25 41h262v333h-262z" />
</svg>
