<?xml version="1.0" standalone="no"?>
<!DOCTYPE svg PUBLIC "-//W3C//DTD SVG 1.1//EN" "http://www.w3.org/Graphics/SVG/1.1/DTD/svg11.dtd" >
<svg xmlns="http://www.w3.org/2000/svg" xmlns:xlink="http://www.w3.org/1999/xlink" version="1.1" viewBox="-10 0 1010 1000">
   <path fill="currentColor"
d="M149 408l-53 26c-6 -49 -28 -127 -56 -187l49 -22c29 59 54 135 60 183zM231 193v255c0 153 -18 368 -138 508c-9 -14 -35 -39 -49 -48c76 -89 104 -203 116 -312c-37 24 -74 50 -110 72l-25 -62c37 -20 86 -50 140 -83c1 -26 1 -52 1 -75v-317h350
c-12 -22 -26 -44 -41 -63l64 -25c21 26 45 60 59 88h358v62h-725zM486 195l59 23c-31 35 -64 65 -97 90l289 -14c-26 -19 -52 -37 -78 -53l43 -32c61 35 134 89 170 127l-45 38c-10 -10 -23 -22 -36 -35c-369 21 -408 24 -432 32v2c-3 -12 -12 -42 -20 -58
c14 -1 27 -7 42 -18c17 -12 70 -55 105 -102zM832 723l55 26c-115 110 -332 174 -568 206c-6 -15 -17 -37 -29 -51c228 -25 438 -85 542 -181zM600 601l50 22c-73 58 -197 102 -305 128c-9 -12 -23 -29 -36 -40c105 -21 227 -62 291 -110zM708 658l52 26
c-90 77 -251 133 -405 164c-7 -14 -21 -33 -34 -45c149 -26 307 -77 387 -145zM634 522c-1 -5 -4 -12 -6 -21c-6 6 -11 10 -17 16c83 46 232 90 349 108c-13 12 -28 33 -37 48c-114 -21 -261 -71 -351 -126c-79 55 -191 94 -308 120c-8 -12 -25 -34 -37 -44
c116 -23 227 -60 301 -107c-3 -6 -7 -13 -11 -21c-192 25 -219 31 -235 39v2c-3 -13 -12 -40 -19 -55c12 -1 22 -7 34 -17c10 -9 50 -50 72 -91l56 21c-20 26 -41 52 -63 73l128 -13c-8 -12 -17 -23 -25 -33l40 -23c25 26 51 63 64 88l7 -7l50 17c-3 -10 -7 -21 -11 -28
c11 -2 20 -7 30 -19c8 -11 43 -54 59 -99l56 20c-17 33 -39 64 -61 90l129 -12c-12 -16 -24 -31 -35 -43l42 -27c35 37 74 88 92 122l-44 31c-6 -12 -14 -26 -25 -41c-181 19 -209 23 -224 32z" />
</svg>
