<?xml version="1.0" standalone="no"?>
<!DOCTYPE svg PUBLIC "-//W3C//DTD SVG 1.1//EN" "http://www.w3.org/Graphics/SVG/1.1/DTD/svg11.dtd" >
<svg xmlns="http://www.w3.org/2000/svg" xmlns:xlink="http://www.w3.org/1999/xlink" version="1.1" viewBox="-10 0 1010 1000">
   <path fill="currentColor"
d="M169 413l-59 27c-11 -50 -39 -133 -62 -197l56 -21c25 63 54 145 65 191zM956 200h-701v256c0 152 -20 364 -143 502c-10 -15 -37 -41 -51 -50c76 -87 106 -198 117 -306c-40 26 -81 50 -120 72l-25 -66c39 -18 93 -47 151 -77c1 -26 1 -50 1 -75v-321h351
c-8 -25 -18 -54 -26 -77l72 -16c12 28 26 64 34 93h340v65zM408 753l65 22c-45 55 -107 120 -158 161c-13 -11 -40 -33 -57 -44c52 -37 110 -91 150 -139zM727 783l53 -31c51 47 120 112 155 152l-56 37c-33 -40 -100 -109 -152 -158zM475 464h276c-35 -35 -66 -74 -90 -115
h-94c-24 40 -54 79 -92 115zM770 574v-61h-318v61h318zM770 684v-63h-318v63h318zM879 357l46 33c-25 26 -56 51 -83 71c38 29 81 53 123 68c-14 13 -34 36 -44 53c-28 -13 -57 -28 -84 -48v199h-191v152c0 36 -7 52 -35 63c-27 10 -68 10 -133 10c-4 -19 -14 -44 -24 -61
c49 2 91 1 103 0c14 0 17 -3 17 -14v-150h-186v-197c-26 18 -55 34 -85 50c-10 -17 -30 -39 -46 -49c47 -22 89 -48 125 -76c-23 -22 -53 -45 -78 -63l40 -34c25 16 57 39 80 60c25 -24 48 -49 65 -75h-189v-59h226c15 -28 27 -58 34 -86l70 10c-8 25 -19 51 -30 76h344v59
h-214c19 29 45 56 73 81c27 -23 58 -52 76 -73z" />
</svg>
