<?xml version="1.0" standalone="no"?>
<!DOCTYPE svg PUBLIC "-//W3C//DTD SVG 1.1//EN" "http://www.w3.org/Graphics/SVG/1.1/DTD/svg11.dtd" >
<svg xmlns="http://www.w3.org/2000/svg" xmlns:xlink="http://www.w3.org/1999/xlink" version="1.1" viewBox="-10 0 1010 1000">
   <path fill="currentColor"
d="M158 412l-56 27c-11 -48 -37 -129 -59 -190l53 -22c23 61 51 139 62 185zM949 199h-710v252c0 155 -18 369 -140 510c-9 -15 -37 -41 -51 -49c74 -87 104 -197 116 -303c-37 23 -73 45 -108 66l-25 -64c37 -18 86 -45 138 -75c2 -29 2 -58 2 -85v-316h375
c-8 -27 -18 -57 -29 -82l73 -16c13 30 28 68 37 98h322v64zM475 253l44 23c-22 64 -49 146 -76 211c55 67 70 126 70 176c1 46 -10 82 -32 99c-12 9 -27 13 -42 16c-15 2 -34 2 -52 1c-1 -17 -7 -41 -16 -58c16 2 32 2 43 1c9 0 17 -2 23 -7c11 -9 16 -31 15 -56
c0 -44 -13 -99 -68 -165c23 -60 43 -127 58 -182h-93v640h-61v-696h177zM654 333c22 32 50 63 84 88c34 -26 62 -56 84 -88h-168zM868 279l39 19c-27 62 -69 113 -119 155c54 31 116 54 184 67c-14 12 -31 36 -39 52c-71 -18 -137 -45 -193 -83c-39 27 -82 49 -126 67h262
v48h-108v65h150v48h-150v59h135v47h-135v63h177v52h-446v-52h209v-63h-137v-47h137v-59h-117c-13 22 -28 43 -43 59c-10 -8 -31 -21 -44 -28c35 -37 64 -86 81 -137l52 11c-5 15 -12 31 -19 47h90v-65h-102v-45c-25 10 -51 19 -76 26c-7 -14 -22 -37 -34 -48
c68 -17 138 -45 197 -83c-28 -24 -54 -50 -74 -80c-25 28 -52 52 -79 72c-9 -11 -32 -30 -46 -39c66 -46 127 -111 162 -183l57 15c-7 15 -15 29 -24 43h168z" />
</svg>
