<?xml version="1.0" standalone="no"?>
<!DOCTYPE svg PUBLIC "-//W3C//DTD SVG 1.1//EN" "http://www.w3.org/Graphics/SVG/1.1/DTD/svg11.dtd" >
<svg xmlns="http://www.w3.org/2000/svg" xmlns:xlink="http://www.w3.org/1999/xlink" version="1.1" viewBox="-10 0 1010 1000">
   <path fill="currentColor"
d="M164 413l-55 26c-9 -48 -35 -128 -59 -190l51 -21c26 60 54 139 63 185zM605 673h260s-1 21 -3 29c-15 140 -29 197 -53 221c-17 16 -34 21 -61 23c-23 1 -67 2 -114 -2c-1 -19 -8 -43 -18 -60c45 4 90 5 105 5c17 0 26 -2 34 -9c14 -14 26 -54 37 -149h-200
c-33 118 -109 186 -289 227c-6 -16 -23 -41 -36 -53c156 -32 225 -85 255 -174h-192v-58h207c5 -26 8 -55 10 -87h68c-2 32 -6 61 -10 87zM287 658v-148h650v149h-68v-94h-517v93h-65zM436 225h55c-3 52 -9 97 -21 134c39 27 82 64 104 88l-37 37c-19 -22 -53 -52 -86 -80
c-25 42 -62 74 -122 97c-6 -14 -21 -34 -33 -44c110 -39 134 -108 140 -232zM743 225h55c-2 52 -8 96 -19 133c49 32 106 76 136 107l-41 36c-24 -26 -70 -65 -114 -97c-25 44 -64 75 -128 98c-6 -14 -21 -35 -33 -45c115 -37 138 -101 144 -232zM873 261l45 21
c-23 34 -47 68 -67 92l-36 -18c19 -27 45 -69 58 -95zM633 381l-41 -21c24 -23 48 -65 60 -96l40 17c-15 35 -34 74 -59 100zM537 375l-35 -18c16 -26 40 -66 51 -91l45 20c-21 34 -43 65 -61 89zM330 382l-41 -22c21 -23 47 -63 61 -93l40 18c-16 32 -37 71 -60 97z
M617 135h342v62h-712v254c0 154 -18 369 -141 509c-9 -14 -36 -39 -50 -48c75 -87 104 -198 117 -306c-38 24 -76 47 -112 69l-25 -64c38 -18 88 -46 142 -76c2 -29 2 -57 2 -84v-316h356c-8 -25 -18 -54 -26 -77l72 -16c12 28 26 64 35 93z" />
</svg>
