<?xml version="1.0" standalone="no"?>
<!DOCTYPE svg PUBLIC "-//W3C//DTD SVG 1.1//EN" "http://www.w3.org/Graphics/SVG/1.1/DTD/svg11.dtd" >
<svg xmlns="http://www.w3.org/2000/svg" xmlns:xlink="http://www.w3.org/1999/xlink" version="1.1" viewBox="-10 0 1010 1000">
   <path fill="currentColor"
d="M171 416l-59 27c-7 -51 -33 -133 -63 -195l56 -22c32 61 59 141 66 190zM357 532v89h161v-89h-161zM300 673v-192h277v192h-277zM756 380v-77h-288v77h288zM822 251v181h-418v-181h418zM843 859v-134h70v231h-70v-35h-533v-196h69v134h195v-171h71v171h198zM700 532v89
h171v-89h-171zM643 673v-192h289v192h-289zM636 140h321v64h-701v254c0 153 -20 364 -143 500c-9 -14 -37 -39 -51 -48c76 -86 106 -197 118 -303c-41 26 -82 50 -120 72l-26 -66c40 -19 94 -47 151 -78c2 -27 2 -52 2 -77v-318h370c-13 -27 -31 -58 -48 -82l65 -22
c24 31 49 72 62 104z" />
</svg>
