<?xml version="1.0" standalone="no"?>
<!DOCTYPE svg PUBLIC "-//W3C//DTD SVG 1.1//EN" "http://www.w3.org/Graphics/SVG/1.1/DTD/svg11.dtd" >
<svg xmlns="http://www.w3.org/2000/svg" xmlns:xlink="http://www.w3.org/1999/xlink" version="1.1" viewBox="-10 0 1010 1000">
   <path fill="currentColor"
d="M156 402l-55 26c-6 -49 -31 -128 -59 -189l51 -21c30 59 56 136 63 184zM239 189v253c0 154 -18 369 -141 510c-9 -15 -36 -40 -50 -48c75 -88 105 -200 117 -308c-38 23 -76 47 -112 69l-24 -64c37 -18 88 -46 141 -77c2 -28 2 -56 2 -82v-316h363
c-9 -24 -18 -49 -28 -71l72 -16c14 26 29 60 39 87h332v63h-711zM443 702v46h304v-46h-304zM688 491h-161c-28 34 -60 65 -97 92h145c-10 -20 -25 -41 -40 -58l60 -20c23 23 45 55 57 78h127c-35 -27 -67 -59 -91 -92zM443 623v42h304v-42h-304zM811 788h-196
c39 14 83 30 127 48c37 -23 81 -54 107 -76l47 31c-29 24 -65 48 -99 68c48 19 92 39 125 55l-47 44c-70 -39 -208 -97 -313 -136l41 -34h-160v96l189 -22c-1 13 0 35 2 47c-224 31 -254 37 -271 45c-5 -15 -19 -42 -30 -55c18 -7 48 -25 48 -60v-222c-31 20 -65 37 -100 53
c-9 -14 -32 -39 -47 -51c82 -31 152 -73 209 -128h-177v-47h219c12 -16 23 -31 33 -48h-184v-42h206c7 -15 14 -29 19 -45h-258v-46h146c-10 -17 -22 -33 -34 -48l56 -18c19 18 37 45 46 66h168c15 -21 31 -47 40 -65l63 13c-12 19 -26 36 -39 52h161v46h-281
c-5 16 -10 30 -16 45h259v42h-280c-9 17 -18 32 -28 48h380v47h-184c51 53 127 99 201 121c-14 12 -32 34 -41 50c-36 -14 -73 -33 -107 -57v183z" />
</svg>
