<?xml version="1.0" standalone="no"?>
<!DOCTYPE svg PUBLIC "-//W3C//DTD SVG 1.1//EN" "http://www.w3.org/Graphics/SVG/1.1/DTD/svg11.dtd" >
<svg xmlns="http://www.w3.org/2000/svg" xmlns:xlink="http://www.w3.org/1999/xlink" version="1.1" viewBox="-10 0 1010 1000">
   <path fill="currentColor"
d="M173 414l-59 28c-12 -50 -39 -133 -63 -196l57 -21c24 62 53 143 65 189zM640 808v67h316v52h-718v-52h329v-67h-246v-49h246v-48l-52 10c-3 -26 -13 -65 -23 -94l57 -7c10 26 20 61 25 84h66v55h258v49h-258zM715 372l-38 -15c17 -21 42 -55 53 -76l47 17
c-21 28 -44 54 -62 74zM449 292l41 -12c20 24 43 57 51 78l-42 18c-10 -23 -30 -58 -50 -84zM405 267v119h173v-119h-173zM822 386v-119h-185v119h185zM293 557h278v-45h-237v-43h237v-41h-232v-203h552v203h-247v41h259v43h-259v45h294v45h-645v-45zM788 635l51 -26
c34 31 79 73 101 98l-54 32c-22 -27 -65 -72 -98 -104zM742 706l-55 19c-11 -25 -32 -65 -52 -95l53 -15c20 30 43 69 54 91zM341 744l-55 -32c33 -24 71 -69 93 -102l54 25c-24 35 -60 79 -92 109zM620 122h339v62h-702v260c0 152 -19 363 -142 500
c-10 -13 -37 -39 -51 -48c73 -82 104 -188 116 -290c-40 25 -80 48 -118 71l-26 -66c40 -18 93 -47 151 -77c2 -32 2 -62 2 -91v-321h351c-7 -22 -15 -44 -22 -64l73 -15c11 24 22 54 29 79z" />
</svg>
