<?xml version="1.0" standalone="no"?>
<!DOCTYPE svg PUBLIC "-//W3C//DTD SVG 1.1//EN" "http://www.w3.org/Graphics/SVG/1.1/DTD/svg11.dtd" >
<svg xmlns="http://www.w3.org/2000/svg" xmlns:xlink="http://www.w3.org/1999/xlink" version="1.1" viewBox="-10 0 1010 1000">
   <path fill="currentColor"
d="M161 411l-54 26c-11 -48 -37 -128 -59 -190l51 -21c24 60 52 139 62 185zM419 830v48h188v-48h-188zM607 697v-47h-188v47h188zM607 787v-47h-188v47h188zM673 830v48h263v45h-517v35h-63v-256c-20 19 -40 37 -60 52c-9 -12 -30 -38 -44 -50c61 -41 124 -103 161 -165
l59 20c-9 16 -20 30 -30 46h184c-5 -17 -11 -34 -17 -49l64 -14c9 20 18 43 25 63h218v45h-243v47h214v43h-214v47h216v43h-216zM295 331h280v-42h-243v-46h560v46h-252v42h289v130h-57v-86h-232v167h-65v-167h-223v86h-57v-130zM677 536v-40h182v40h-182zM677 417h165v39
h-165v-39zM360 537v-41h174v41h-174zM374 417h159v39h-159v-39zM625 133h330v63h-711v253c0 154 -18 369 -141 509c-9 -14 -36 -39 -50 -48c75 -87 104 -198 117 -306c-38 23 -76 47 -112 69l-24 -64c37 -18 87 -46 141 -77c2 -28 2 -56 2 -83v-316h367
c-8 -25 -17 -52 -26 -75l73 -16c12 28 24 63 34 91z" />
</svg>
