<?xml version="1.0" standalone="no"?>
<!DOCTYPE svg PUBLIC "-//W3C//DTD SVG 1.1//EN" "http://www.w3.org/Graphics/SVG/1.1/DTD/svg11.dtd" >
<svg xmlns="http://www.w3.org/2000/svg" xmlns:xlink="http://www.w3.org/1999/xlink" version="1.1" viewBox="-10 0 1010 1000">
   <path fill="currentColor"
d="M149 408l-54 26c-5 -49 -28 -127 -56 -187l50 -22c29 59 53 134 60 183zM952 193h-722v255c0 153 -18 369 -138 509c-9 -15 -34 -39 -48 -48c75 -89 104 -204 115 -313c-37 25 -73 50 -109 73l-25 -63c36 -20 86 -50 139 -83c1 -26 1 -52 1 -75v-317h373
c-10 -26 -22 -55 -31 -79l73 -16c14 29 30 66 39 95h333v62zM883 362l-58 17c-8 -37 -27 -91 -44 -134l55 -14c17 42 38 96 47 131zM715 755v104h94v-104h-94zM809 540v-100h-94v100h94zM809 698v-101h-94v101h94zM541 564v-66h-77v66h77zM336 498v66h77v-66h-77zM382 332
v46h116v-46h-116zM958 859v58h-243v42h-57v-445c-13 19 -27 39 -40 56c-4 -7 -14 -20 -24 -31v67h-125v41h132v48h-132v23c0 7 0 16 -1 25h142v51h-152l-1 5c52 31 116 76 152 104l-41 41c-31 -26 -84 -65 -134 -98c-28 42 -77 82 -161 112c-8 -13 -26 -33 -39 -45
c98 -29 141 -74 160 -119h-141v-51h154c1 -9 1 -18 1 -26v-22h-129v-48h129v-41h-122v-149h122v-36h-83v-89h-71v-47h71v-58h57v58h116v-58h60v58h69v47h-69v89h-89v36h125v43c53 -72 92 -173 116 -278l58 13c-13 50 -28 100 -46 147h228v58h-87v100h74v57h-74v101h74v57
h-74v104h95z" />
</svg>
