<?xml version="1.0" standalone="no"?>
<!DOCTYPE svg PUBLIC "-//W3C//DTD SVG 1.1//EN" "http://www.w3.org/Graphics/SVG/1.1/DTD/svg11.dtd" >
<svg xmlns="http://www.w3.org/2000/svg" xmlns:xlink="http://www.w3.org/1999/xlink" version="1.1" viewBox="-10 0 1010 1000">
   <path fill="currentColor"
d="M151 409l-54 26c-5 -48 -28 -127 -56 -186l50 -22c29 59 53 134 60 182zM232 195v255c0 153 -18 368 -138 508c-9 -14 -34 -39 -48 -48c75 -89 104 -203 115 -313c-37 26 -73 50 -109 73l-25 -62c36 -20 86 -50 139 -83c1 -26 1 -52 1 -75v-317h360
c-9 -25 -22 -52 -38 -74l69 -16c20 25 37 61 47 90h352v62h-725zM860 495v-68h-167v68h167zM860 611v-68h-167v68h167zM860 728v-69h-167v69h167zM949 306h-136c-6 24 -12 49 -18 71h124v401h-283v-401h103c4 -22 9 -48 12 -71h-135v-54h333v54zM518 481v-48h-172v48h172z
M346 754h172v-53h-172v53zM518 571v-50h-172v50h172zM518 661v-50h-172v50h172zM291 378h84c5 -16 11 -35 16 -54h-128v-54h141c4 -21 8 -40 11 -57l67 10l-14 47h132v54h-149c-6 19 -12 38 -18 54h142v376h33v54h-382v-54h65v-376zM352 811l57 19c-36 47 -94 97 -144 129
c-11 -11 -33 -31 -47 -40c50 -29 102 -68 134 -108zM461 838l42 -27c31 23 69 57 87 81l-44 32c-18 -25 -55 -61 -85 -86zM707 792l58 31c-37 48 -92 103 -138 135c-11 -12 -31 -29 -45 -40c47 -32 100 -85 125 -126zM801 824l47 -30c42 39 91 95 113 131l-49 34
c-21 -37 -69 -95 -111 -135z" />
</svg>
