<?xml version="1.0" standalone="no"?>
<!DOCTYPE svg PUBLIC "-//W3C//DTD SVG 1.1//EN" "http://www.w3.org/Graphics/SVG/1.1/DTD/svg11.dtd" >
<svg xmlns="http://www.w3.org/2000/svg" xmlns:xlink="http://www.w3.org/1999/xlink" version="1.1" viewBox="-10 0 1010 1000">
   <path fill="currentColor"
d="M149 408l-53 26c-6 -49 -28 -127 -56 -187l49 -21c29 58 54 134 60 182zM623 749v45h333v44h-333v56c0 36 -10 48 -39 55c-29 8 -78 8 -156 8c-4 -16 -13 -34 -21 -48c58 2 113 2 127 1c16 -1 20 -5 20 -18v-54h-325v-44h325v-45h-274v-44h274v-44c-73 4 -146 6 -214 6
c-2 -12 -8 -31 -14 -42c136 -2 297 -9 411 -22c-9 -6 -25 -15 -34 -19c18 -32 27 -69 33 -107l43 9c-7 41 -20 85 -36 116c22 -2 43 -5 60 -7l39 41c-61 9 -138 16 -219 21v48h289v44h-289zM354 194l43 25c-20 34 -44 65 -69 92l60 -4c13 -17 26 -34 37 -51l39 27
c-38 49 -78 95 -119 133l80 -11c-6 -15 -12 -29 -19 -43l36 -11c19 35 38 80 44 109l-37 14c-2 -10 -6 -21 -10 -33c-131 22 -154 27 -167 33c-2 -9 -8 -34 -14 -46c13 -2 28 -11 46 -28c8 -7 25 -23 45 -46c-56 7 -72 10 -81 15c-2 -11 -10 -36 -17 -48c12 -2 20 -8 31 -20
c12 -12 50 -60 72 -107zM477 312v-39h96c-8 -19 -19 -39 -28 -56l51 -10c13 20 28 45 36 66h74v39h-229zM688 407v37h-189v-37h189zM544 507v48h97v-48h-97zM499 587v-112h189v112h-189zM688 341v37h-189v-37h189zM412 488l34 -11c16 29 30 69 34 92l-35 16
c-5 -26 -18 -67 -33 -97zM403 590l-41 10c-1 -27 -7 -72 -17 -106l38 -7c11 34 19 76 20 103zM282 482l43 10c-7 42 -21 91 -38 122c-8 -6 -27 -16 -37 -21c17 -33 26 -72 32 -111zM858 584l-39 12c-1 -30 -8 -74 -19 -108l38 -8c10 34 19 77 20 104zM866 483l34 -11
c18 32 33 75 38 101l-36 16c-5 -29 -21 -73 -36 -106zM619 131h337v62h-142l37 22c-21 34 -45 65 -69 92l61 -4c12 -16 23 -32 33 -49l40 26c-36 49 -77 96 -118 133l82 -11c-7 -15 -14 -30 -21 -43l36 -12c19 33 40 78 47 106l-38 15c-2 -8 -5 -18 -9 -30
c-133 23 -157 28 -169 34c-2 -9 -9 -34 -14 -46c13 -1 28 -11 45 -28c8 -7 26 -25 47 -48c-57 6 -73 10 -83 13c-1 -9 -9 -34 -16 -47c12 -1 20 -7 31 -20c12 -11 49 -56 70 -103h-575v255c0 152 -18 368 -138 508c-9 -15 -35 -39 -49 -48c76 -89 104 -204 116 -312
c-37 24 -74 50 -110 72l-25 -63c37 -19 86 -50 140 -82c1 -26 1 -52 1 -75v-317h369c-12 -25 -26 -51 -39 -73l73 -17c17 26 38 62 50 90z" />
</svg>
