<?xml version="1.0" standalone="no"?>
<!DOCTYPE svg PUBLIC "-//W3C//DTD SVG 1.1//EN" "http://www.w3.org/Graphics/SVG/1.1/DTD/svg11.dtd" >
<svg xmlns="http://www.w3.org/2000/svg" xmlns:xlink="http://www.w3.org/1999/xlink" version="1.1" viewBox="-10 0 1010 1000">
   <path fill="currentColor"
d="M149 408l-53 26c-6 -49 -28 -127 -56 -187l49 -21c29 58 54 134 60 182zM281 482l43 10c-6 42 -20 91 -38 122c-8 -5 -26 -16 -37 -21c18 -32 26 -72 32 -111zM354 194l43 25c-20 34 -44 65 -69 92l60 -4c13 -17 26 -34 37 -51l39 27c-37 49 -78 95 -119 133l80 -11
c-6 -15 -12 -29 -19 -43l36 -11c19 35 38 80 44 109l-37 13c-2 -9 -6 -20 -10 -32c-131 22 -154 26 -167 33c-2 -9 -8 -34 -14 -46c13 -2 28 -11 46 -28c9 -7 25 -23 45 -46c-56 7 -72 10 -81 15c-2 -11 -10 -36 -17 -48c12 -2 20 -8 31 -20c12 -12 50 -60 72 -107zM477 310
v-36h97c-8 -20 -19 -41 -29 -59l51 -10c14 21 29 48 37 69h73v36h-229zM688 407v34h-189v-34h189zM544 507v48h97v-48h-97zM499 587v-112h189v112h-189zM688 341v34h-189v-34h189zM412 488l34 -11c16 29 30 69 34 92l-35 16c-5 -26 -19 -67 -33 -97zM402 590l-40 11
c-1 -28 -7 -73 -17 -107l38 -7c11 34 19 76 19 103zM916 633v259c0 34 -8 50 -32 59c-27 9 -71 9 -140 9c-4 -17 -12 -36 -19 -53l38 1c-42 -24 -104 -54 -159 -79c-40 42 -101 70 -193 91c-6 -13 -24 -37 -36 -46c136 -25 196 -67 219 -136h63c-6 19 -13 35 -22 50
c64 28 139 63 182 87l-30 34h49c14 -1 17 -5 17 -17v-207h-160c47 22 92 44 123 62l-36 40c-42 -26 -116 -64 -179 -91c-38 45 -98 77 -190 100c-6 -13 -23 -33 -34 -42c74 -16 124 -39 158 -69h-173v272h-61v-324h273c6 -13 11 -26 15 -40h62c-4 14 -8 27 -13 40h278z
M735 477l44 9c-7 42 -21 88 -39 120c-8 -6 -26 -18 -37 -23c18 -31 27 -69 32 -106zM800 488l38 -8c10 34 19 77 20 104l-39 11c-1 -29 -8 -73 -19 -107zM866 483l34 -11c18 32 33 74 38 101l-36 16c-5 -29 -21 -73 -36 -106zM956 131v62h-141l36 22c-21 34 -45 65 -69 92
l61 -4c12 -16 24 -32 34 -49l40 26c-36 49 -78 96 -119 133l83 -11c-7 -15 -14 -30 -22 -43l36 -12c20 33 41 78 47 106l-38 15c-2 -8 -5 -18 -9 -30c-133 23 -157 27 -168 34c-2 -9 -9 -34 -15 -46c14 -2 28 -11 45 -28c9 -7 26 -25 47 -48c-57 6 -73 10 -82 13
c-2 -9 -10 -34 -17 -47c12 -1 21 -7 32 -20c11 -11 48 -56 69 -103h-574v255c0 153 -19 369 -139 509c-9 -14 -36 -40 -50 -49c76 -88 104 -203 116 -313c-37 26 -73 50 -109 73l-25 -63c37 -19 86 -50 139 -82c1 -26 1 -51 1 -75v-317h379c-12 -25 -27 -51 -40 -73l72 -17
c19 26 38 62 51 90h329z" />
</svg>
