<?xml version="1.0" standalone="no"?>
<!DOCTYPE svg PUBLIC "-//W3C//DTD SVG 1.1//EN" "http://www.w3.org/Graphics/SVG/1.1/DTD/svg11.dtd" >
<svg xmlns="http://www.w3.org/2000/svg" xmlns:xlink="http://www.w3.org/1999/xlink" version="1.1" viewBox="-10 0 1010 1000">
   <path fill="currentColor"
d="M419 75l44 23c-73 152 -234 258 -386 313c-8 -16 -25 -41 -39 -54c57 -17 117 -45 172 -79c-29 -27 -68 -56 -103 -77l45 -40c38 21 82 53 112 79c40 -31 75 -66 102 -104h-238v-58h279zM767 580l47 33c-53 67 -131 126 -221 175c119 38 229 76 307 105l-34 64
c-85 -35 -217 -82 -356 -128c-129 60 -274 102 -405 127c-5 -20 -21 -49 -34 -65c111 -18 234 -49 345 -92c-78 -26 -156 -49 -226 -70l32 -52c85 24 185 53 283 84c70 -33 133 -71 183 -113h-528v-64h594zM715 484h140c19 0 54 -1 70 -5c2 17 3 40 6 55c-15 4 -45 5 -73 5
h-149c-74 0 -91 -24 -91 -87v-68h-256c-12 74 -81 143 -259 188c-6 -16 -27 -46 -40 -58c186 -43 232 -101 232 -161v-34h368v1h26v133c0 23 4 31 26 31zM859 152l54 38c-35 33 -77 68 -113 96c49 27 104 49 160 64c-16 13 -35 39 -45 57c-184 -56 -335 -180 -414 -344
l59 -19c21 42 48 82 81 117c37 -31 79 -73 105 -106l55 39c-37 37 -82 77 -121 108c22 18 44 36 68 52c38 -30 84 -72 111 -102z" />
</svg>
