<?xml version="1.0" standalone="no"?>
<!DOCTYPE svg PUBLIC "-//W3C//DTD SVG 1.1//EN" "http://www.w3.org/Graphics/SVG/1.1/DTD/svg11.dtd" >
<svg xmlns="http://www.w3.org/2000/svg" xmlns:xlink="http://www.w3.org/1999/xlink" version="1.1" viewBox="-10 0 1010 1000">
   <path fill="currentColor"
d="M279 454v-187h-135v187h135zM144 716h135v-196h-135v196zM194 44l75 13c-14 47 -30 101 -46 143h122v583h-201v83h-64v-666h80c13 -47 27 -111 34 -156zM859 506l46 31c-52 100 -147 216 -220 289c31 30 60 58 81 81l-52 48c-49 -57 -149 -154 -224 -220l49 -41
c29 25 64 55 97 87c57 -53 127 -136 173 -207h-376v-64h415zM583 339l51 -27c32 44 72 103 91 140l-52 37c-18 -38 -59 -103 -90 -150zM633 45l62 21c-5 11 -10 21 -15 31c68 107 187 226 280 286c-16 13 -39 40 -51 57c-84 -63 -188 -176 -260 -284
c-62 108 -147 208 -245 284c-12 -12 -34 -35 -49 -46c122 -88 225 -223 278 -349z" />
</svg>
