<?xml version="1.0" standalone="no"?>
<!DOCTYPE svg PUBLIC "-//W3C//DTD SVG 1.1//EN" "http://www.w3.org/Graphics/SVG/1.1/DTD/svg11.dtd" >
<svg xmlns="http://www.w3.org/2000/svg" xmlns:xlink="http://www.w3.org/1999/xlink" version="1.1" viewBox="-10 0 1010 1000">
   <path fill="currentColor"
d="M307 260h-151v181h151v-181zM156 705h151v-200h-151v200zM372 769h-216v73h-67v-646h80c13 -47 27 -109 34 -153l73 13c-12 46 -27 98 -41 140h137v573zM593 511h153v-198h-153v198zM957 511v70h-139v376h-72v-376h-154c-6 136 -36 272 -167 380c-13 -16 -39 -37 -58 -48
c119 -96 148 -214 155 -332h-131v-70h132v-198h-111v-69h130c-14 -50 -46 -121 -80 -174l63 -24c37 55 73 127 87 176l-54 22h221l-56 -20c29 -49 64 -127 83 -182l79 25c-32 61 -69 132 -100 177h147v69h-114v198h139z" />
</svg>
