<?xml version="1.0" standalone="no"?>
<!DOCTYPE svg PUBLIC "-//W3C//DTD SVG 1.1//EN" "http://www.w3.org/Graphics/SVG/1.1/DTD/svg11.dtd" >
<svg xmlns="http://www.w3.org/2000/svg" xmlns:xlink="http://www.w3.org/1999/xlink" version="1.1" viewBox="-10 0 1010 1000">
   <path fill="currentColor"
d="M390 563v-180h-243v180h243zM147 818h243v-187h-243v187zM49 158v-70h423v70h-164c-14 53 -29 110 -42 156h192v633h-68v-60h-243v66h-66v-639h117c12 -46 24 -105 32 -156h-181zM844 564v-181h-256v181h256zM588 819h256v-186h-256v186zM948 160h-192
c-13 52 -28 108 -41 154h201v633h-72v-58h-256v64h-69v-639h127c13 -46 24 -105 32 -154h-179v-70h449v70z" />
</svg>
