<?xml version="1.0" standalone="no"?>
<!DOCTYPE svg PUBLIC "-//W3C//DTD SVG 1.1//EN" "http://www.w3.org/Graphics/SVG/1.1/DTD/svg11.dtd" >
<svg xmlns="http://www.w3.org/2000/svg" xmlns:xlink="http://www.w3.org/1999/xlink" version="1.1" viewBox="-10 0 1010 1000">
   <path fill="currentColor"
d="M270 454v-187h-125v187h125zM145 716h125v-196h-125v196zM194 43l76 15c-16 47 -33 100 -49 142h113v583h-189v83h-63v-666h74c15 -47 30 -111 38 -157zM932 523v364c0 33 -6 49 -28 59c-21 11 -56 12 -109 11c-3 -17 -12 -41 -20 -58c35 1 68 1 77 0c9 0 13 -3 13 -13
v-300h-415v371h-67v-434h549zM733 792v-95h-157v95h157zM790 644v202h-269v-202h269zM792 412v-91h-270v91h270zM456 266h405v201h-405v-201zM705 146h251v65h-589v-65h262c-11 -29 -26 -62 -40 -89l66 -19c20 33 39 75 50 108z" />
</svg>
