<?xml version="1.0" standalone="no"?>
<!DOCTYPE svg PUBLIC "-//W3C//DTD SVG 1.1//EN" "http://www.w3.org/Graphics/SVG/1.1/DTD/svg11.dtd" >
<svg xmlns="http://www.w3.org/2000/svg" xmlns:xlink="http://www.w3.org/1999/xlink" version="1.1" viewBox="-10 0 1010 1000">
   <path fill="currentColor"
d="M697 458h61v81c51 -16 103 -36 133 -54l46 38c-50 25 -117 46 -179 63v54c0 19 4 23 30 23h93c20 0 24 -8 26 -60c13 10 35 17 52 21c-6 70 -23 89 -72 89h-107c-66 0 -83 -15 -83 -74v-181zM239 266h-103v192h103v-192zM136 719h103v-194h-103v194zM295 786h-159v79h-56
v-666h67c10 -46 21 -108 26 -151l59 13c-10 46 -24 97 -36 138h99v587zM530 195h-107v68h107v-68zM698 263v-68h-104v68h104zM864 317h-102v73h102v-73zM594 317v73h104v-73h-104zM423 348v42h107v-73h-107v31zM924 444h-502c-5 164 -26 367 -94 517
c-12 -10 -41 -25 -57 -31c82 -174 89 -418 89 -582v-210h266c-9 -26 -22 -56 -34 -80l60 -18c16 30 34 70 45 98h255v57h-190v68h162v181zM426 948l-52 -30c33 -45 63 -119 79 -175l51 21c-19 58 -45 135 -78 184zM560 763l52 -10c15 57 24 130 23 179l-56 10
c1 -49 -7 -122 -19 -179zM526 646l143 -30c-1 17 0 40 1 53c-161 37 -193 46 -208 55l-3 3c-6 -17 -20 -46 -31 -61c15 -9 39 -30 39 -71v-138h59v59h136v49h-136v81zM677 765l51 -16c29 54 55 127 65 175l-56 17c-8 -48 -33 -121 -60 -176zM803 766l48 -25
c44 55 88 131 106 181l-53 28c-16 -51 -60 -128 -101 -184z" />
</svg>
