<?xml version="1.0" standalone="no"?>
<!DOCTYPE svg PUBLIC "-//W3C//DTD SVG 1.1//EN" "http://www.w3.org/Graphics/SVG/1.1/DTD/svg11.dtd" >
<svg xmlns="http://www.w3.org/2000/svg" xmlns:xlink="http://www.w3.org/1999/xlink" version="1.1" viewBox="-10 0 1010 1000">
   <path fill="currentColor"
d="M151 250v169h98v-169h-98zM397 417l41 13c-17 104 -44 195 -81 274c38 51 70 100 91 140l-55 45c-17 -34 -42 -75 -71 -118c-44 73 -95 131 -153 174c-9 -17 -30 -44 -44 -56c58 -39 111 -101 154 -178c-38 -51 -79 -102 -118 -145l51 -37c33 35 68 75 100 116
c22 -50 40 -105 52 -163h-213v17c0 132 -9 322 -66 448c-9 -10 -36 -30 -51 -36c52 -120 56 -289 56 -412v-312h32v-1h127v-143h63v143h115l7 -2l43 12c-15 63 -35 136 -51 182l-53 -16c9 -30 19 -71 29 -112h-90v169h73zM703 398h-137v161h137v-161zM633 890h199
c50 0 58 -25 65 -146c15 10 42 21 61 26c-10 141 -31 181 -123 181h-206c-99 0 -129 -22 -129 -113v-408l-2 3c-13 -12 -42 -33 -60 -43c67 -84 114 -215 142 -346l70 13c-9 43 -21 85 -34 126h313v33c-8 345 -13 460 -40 495c-14 22 -30 29 -56 32c-23 3 -64 3 -104 1
c-1 -20 -8 -47 -17 -66c39 4 74 5 89 4c15 1 22 -2 30 -13c17 -24 25 -126 32 -419h-270c-11 30 -24 58 -37 85h211v287h-201v217c0 42 10 51 67 51z" />
</svg>
