<?xml version="1.0" standalone="no"?>
<!DOCTYPE svg PUBLIC "-//W3C//DTD SVG 1.1//EN" "http://www.w3.org/Graphics/SVG/1.1/DTD/svg11.dtd" >
<svg xmlns="http://www.w3.org/2000/svg" xmlns:xlink="http://www.w3.org/1999/xlink" version="1.1" viewBox="-10 0 1010 1000">
   <path fill="currentColor"
d="M229 285v-86h-178v-63h178v-92h72v92h173v63h-173v86h155v63h-381v-63h154zM369 582v-111h-210v111h210zM438 412v229h-346v-229h346zM230 805l-64 19c-3 -41 -22 -106 -45 -154l60 -17c25 47 44 110 49 152zM846 506h-203c24 77 59 150 104 211c42 -58 77 -129 99 -211z
M684 263h-110v176h110v-176zM886 436l44 19c-27 130 -75 235 -138 318c52 55 113 100 183 128c-16 13 -38 40 -49 58c-68 -32 -128 -77 -179 -134c-53 57 -114 100 -180 132c-9 -17 -31 -47 -45 -60c68 -29 129 -72 181 -126c-55 -76 -96 -165 -125 -265h-4
c-2 140 -21 323 -109 450c-13 -12 -41 -33 -58 -40c12 -17 23 -35 31 -53c-139 21 -283 44 -387 60l-10 -68c66 -8 154 -21 249 -34c19 -49 41 -122 51 -172l67 16c-17 48 -33 102 -50 146l90 -14l1 43c50 -115 57 -252 57 -360v-284h178v-153h68v153h147l12 -2l50 11
c-18 71 -41 152 -62 203l-62 -12c13 -34 28 -84 39 -133h-124v176h122z" />
</svg>
