<?xml version="1.0" standalone="no"?>
<!DOCTYPE svg PUBLIC "-//W3C//DTD SVG 1.1//EN" "http://www.w3.org/Graphics/SVG/1.1/DTD/svg11.dtd" >
<svg xmlns="http://www.w3.org/2000/svg" xmlns:xlink="http://www.w3.org/1999/xlink" version="1.1" viewBox="-10 0 1010 1000">
   <path fill="currentColor"
d="M245 317v-63c-47 35 -96 66 -146 90c-12 -13 -39 -41 -55 -54c124 -52 238 -137 295 -246l70 21c-38 71 -95 134 -159 185h519l-3 32c-13 161 -26 227 -53 251c-17 19 -37 25 -67 26c-27 3 -78 2 -131 -1c-2 -20 -10 -47 -21 -65c52 5 103 6 122 6c17 0 28 -1 37 -10
c15 -14 27 -61 37 -172h-224c-30 134 -105 221 -309 268c-7 -17 -24 -45 -38 -58c182 -38 247 -106 275 -210h-149zM228 667v195h136v-195h-136zM569 667h-136v195h136v-195zM777 667h-139v195h139v-195zM849 604v258h103v68h-903v-68h109v-258h691zM601 70l61 -28
c66 97 194 199 303 248c-17 14 -40 41 -51 58c-110 -57 -239 -170 -313 -278z" />
</svg>
