<?xml version="1.0" standalone="no"?>
<!DOCTYPE svg PUBLIC "-//W3C//DTD SVG 1.1//EN" "http://www.w3.org/Graphics/SVG/1.1/DTD/svg11.dtd" >
<svg xmlns="http://www.w3.org/2000/svg" xmlns:xlink="http://www.w3.org/1999/xlink" version="1.1" viewBox="-10 0 1010 1000">
   <path fill="currentColor"
d="M76 346l353 -33c-12 -27 -22 -55 -30 -84l-305 28l-7 -62l296 -26c-9 -40 -14 -82 -17 -124h72c2 40 8 80 16 117l200 -18c-25 -22 -71 -52 -112 -71l48 -33c40 18 90 48 116 71l-43 32l220 -19l7 60l-419 39c9 29 21 56 32 82l406 -38l7 59l-381 37c21 33 45 63 71 89
c85 -29 159 -66 214 -108l60 36c-59 47 -135 86 -219 118c48 31 100 50 154 49c40 0 49 -22 56 -102c16 13 41 25 60 30c-13 113 -42 141 -118 141c-85 0 -164 -34 -231 -92c-143 46 -305 75 -455 96c-7 -16 -25 -49 -36 -64c148 -16 304 -41 440 -81
c-28 -31 -52 -66 -74 -105l-373 36zM241 710v157h130v-157h-130zM564 710h-130v157h130v-157zM759 710h-131v157h131v-157zM832 867h115v66h-894v-66h118v-217h661v217z" />
</svg>
