<?xml version="1.0" standalone="no"?>
<!DOCTYPE svg PUBLIC "-//W3C//DTD SVG 1.1//EN" "http://www.w3.org/Graphics/SVG/1.1/DTD/svg11.dtd" >
<svg xmlns="http://www.w3.org/2000/svg" xmlns:xlink="http://www.w3.org/1999/xlink" version="1.1" viewBox="-10 0 1010 1000">
   <path fill="currentColor"
d="M549 202h70c-4 48 -11 92 -20 132c31 81 106 182 343 219c-14 15 -31 45 -38 63c-196 -38 -284 -123 -331 -207c-49 106 -145 172 -344 210c-6 -17 -23 -43 -35 -57c288 -49 336 -159 355 -360zM393 243l62 13c-19 68 -56 140 -105 183l-58 -30c44 -37 81 -102 101 -166z
M788 248l72 27c-40 53 -86 108 -125 145l-57 -26c38 -39 85 -102 110 -146zM930 176h-603c-46 147 -124 266 -238 347c-11 -14 -36 -41 -53 -52c101 -69 172 -172 217 -295h-185v-66h204c6 -24 12 -48 16 -73l70 15c-4 20 -8 39 -13 58h585v66zM234 700v165h131v-165h-131z
M565 700h-131v165h131v-165zM768 700h-134v165h134v-165zM842 865h101v68h-885v-68h104v-229h680v229z" />
</svg>
