<?xml version="1.0" standalone="no"?>
<!DOCTYPE svg PUBLIC "-//W3C//DTD SVG 1.1//EN" "http://www.w3.org/Graphics/SVG/1.1/DTD/svg11.dtd" >
<svg xmlns="http://www.w3.org/2000/svg" xmlns:xlink="http://www.w3.org/1999/xlink" version="1.1" viewBox="-10 0 1010 1000">
   <path fill="currentColor"
d="M465 434v-90h-393v-55h666v-57h-559v-47h559v-56h-595v-52h668v212h121v55h-394v48c28 26 65 52 109 74c55 -28 122 -68 163 -99l60 40c-49 31 -110 62 -164 88c73 31 158 55 241 67c-16 14 -38 40 -49 57c-134 -27 -266 -84 -360 -158v111c0 36 -8 53 -37 63
c-29 9 -76 9 -149 9c-3 -18 -12 -41 -21 -58c54 1 102 1 117 0c13 0 17 -4 17 -15v-82c-125 45 -256 91 -356 126l-36 -54c60 -18 142 -44 230 -73c-38 -26 -101 -63 -156 -86l48 -35c58 24 131 61 168 90l-26 20c42 -13 85 -28 128 -43zM239 716v148h127v-148h-127z
M563 716h-128v148h128v-148zM761 716h-129v148h129v-148zM833 864h118v63h-902v-63h120v-207h664v207z" />
</svg>
