<?xml version="1.0" standalone="no"?>
<!DOCTYPE svg PUBLIC "-//W3C//DTD SVG 1.1//EN" "http://www.w3.org/Graphics/SVG/1.1/DTD/svg11.dtd" >
<svg xmlns="http://www.w3.org/2000/svg" xmlns:xlink="http://www.w3.org/1999/xlink" version="1.1" viewBox="-10 0 1010 1000">
   <path fill="currentColor"
d="M914 175l-56 24c-17 -29 -53 -73 -85 -106l53 -21c33 30 70 73 88 103zM232 680v182h132v-182h-132zM565 680h-132v182h132v-182zM768 680h-134v182h134v-182zM841 619v243h111v66h-906v-66h116v-243h679zM387 296v-137h-86v137h86zM387 486v-139h-86v139h86zM157 347
v139h87v-139h-87zM157 159v137h87v-137h-87zM942 280h-178c32 122 95 214 206 253c-16 14 -37 43 -47 64c-108 -47 -172 -136 -210 -257c-33 116 -97 201 -230 257c-8 -17 -26 -40 -41 -54h-344v-441h351v434c128 -54 182 -138 206 -256h-177v-67h188c5 -49 8 -103 10 -163
h72c-2 59 -6 113 -11 163h205v67z" />
</svg>
