<?xml version="1.0" standalone="no"?>
<!DOCTYPE svg PUBLIC "-//W3C//DTD SVG 1.1//EN" "http://www.w3.org/Graphics/SVG/1.1/DTD/svg11.dtd" >
<svg xmlns="http://www.w3.org/2000/svg" xmlns:xlink="http://www.w3.org/1999/xlink" version="1.1" viewBox="-10 0 1010 1000">
   <path fill="currentColor"
d="M626 136v13c0 60 -21 130 -107 179c-8 -13 -30 -39 -42 -47c75 -40 88 -88 88 -133v-68h257v128c0 22 2 28 15 28h64c13 0 35 -1 46 -3c1 15 3 38 5 53c-11 4 -31 5 -49 5h-72c-59 0 -72 -23 -72 -84v-71h-133zM235 222l38 -23c29 22 60 56 73 80l-42 28
c-12 -26 -42 -61 -69 -85zM195 170v130v27h205v-157h-205zM794 389h-191c23 34 55 64 94 90c39 -25 73 -55 97 -90zM400 381h-209c-9 89 -36 188 -108 261c-9 -13 -33 -35 -47 -42c63 -63 86 -145 94 -219h-87v-54h91v-28v-183h108c11 -25 23 -52 30 -74l65 10
c-11 24 -21 44 -31 64h156v428c0 8 0 15 -1 20c64 -11 124 -29 177 -53c-39 -32 -72 -68 -97 -108l46 -14h-73v-55h320l13 -2l39 20c-30 66 -76 118 -132 160c60 29 130 51 206 63c-15 14 -33 40 -41 58c-84 -17 -160 -44 -225 -84c-61 34 -132 56 -206 73
c-5 -13 -17 -33 -29 -46c-4 14 -12 24 -27 31c-22 11 -60 11 -115 11c-2 -17 -10 -42 -19 -60c41 1 77 1 87 1c12 -1 15 -4 15 -15v-163zM225 434l39 -27c30 23 62 57 76 83l-41 30c-13 -26 -43 -62 -74 -86zM236 702v164h128v-164h-128zM563 702h-130v164h130v-164z
M761 702h-129v164h129v-164zM834 643v223h118v61h-903v-61h117v-223h668z" />
</svg>
