<?xml version="1.0" standalone="no"?>
<!DOCTYPE svg PUBLIC "-//W3C//DTD SVG 1.1//EN" "http://www.w3.org/Graphics/SVG/1.1/DTD/svg11.dtd" >
<svg xmlns="http://www.w3.org/2000/svg" xmlns:xlink="http://www.w3.org/1999/xlink" version="1.1" viewBox="-10 0 1010 1000">
   <path fill="currentColor"
d="M781 164v-51h-318v51h318zM781 259v-53h-318v53h318zM855 70v231h-463v-231h463zM303 130l-38 54c-36 -25 -103 -64 -156 -86l38 -49c53 21 120 57 156 81zM109 663l-47 -52c52 -59 129 -161 189 -252l41 49c-55 84 -124 182 -183 255zM233 284l-38 56
c-36 -25 -102 -57 -153 -74l38 -50c52 16 118 45 153 68zM833 492h-93c-34 73 -85 138 -139 184c-10 -10 -33 -27 -47 -36c49 -38 92 -91 122 -148h-90c-45 70 -111 133 -174 176c-10 -10 -33 -30 -46 -39c57 -34 113 -83 153 -137h-100c-33 33 -69 61 -104 84
c-10 -11 -32 -33 -46 -43c59 -35 116 -83 158 -137h-118v-54h635v54h-446c-10 15 -21 30 -32 44h438s-1 17 -3 27c-9 106 -19 151 -37 170c-13 13 -28 18 -49 19c-19 1 -54 1 -91 -1c-1 -16 -7 -40 -15 -55c33 3 63 3 75 3s20 0 26 -6c9 -10 16 -38 23 -105zM231 735v131
h132v-131h-132zM564 735h-133v131h133v-131zM765 735h-133v131h133v-131zM837 866h115v61h-903v-61h113v-190h675v190z" />
</svg>
