<?xml version="1.0" standalone="no"?>
<!DOCTYPE svg PUBLIC "-//W3C//DTD SVG 1.1//EN" "http://www.w3.org/Graphics/SVG/1.1/DTD/svg11.dtd" >
<svg xmlns="http://www.w3.org/2000/svg" xmlns:xlink="http://www.w3.org/1999/xlink" version="1.1" viewBox="-10 0 1010 1000">
   <path fill="currentColor"
d="M280 171h-138v139h138v-139zM142 725h138v-145h-138v145zM142 374v142h138v-142h-138zM349 105v687h-207v86h-67v-773h274zM953 372v72h-137v513h-76v-513h-186c-3 156 -24 365 -129 507c-13 -13 -45 -37 -63 -45c106 -145 117 -347 117 -496v-262h1
c133 -24 284 -62 370 -99l66 57c-99 39 -235 72 -362 94v173z" />
</svg>
