<?xml version="1.0" standalone="no"?>
<!DOCTYPE svg PUBLIC "-//W3C//DTD SVG 1.1//EN" "http://www.w3.org/Graphics/SVG/1.1/DTD/svg11.dtd" >
<svg xmlns="http://www.w3.org/2000/svg" xmlns:xlink="http://www.w3.org/1999/xlink" version="1.1" viewBox="-10 0 1010 1000">
   <path fill="currentColor"
d="M475 160h-253v124h253v-124zM797 284v-124h-249v124h249zM872 350h-650v51c0 162 -16 396 -124 552c-12 -16 -42 -42 -59 -50c101 -145 110 -351 110 -502v-306h723v255zM374 849h427v-87h-427v87zM801 707v-85h-427v85h427zM801 479h-427v88h427v-88zM303 417h571v541
h-73v-47h-427v47h-71v-541z" />
</svg>
