<?xml version="1.0" standalone="no"?>
<!DOCTYPE svg PUBLIC "-//W3C//DTD SVG 1.1//EN" "http://www.w3.org/Graphics/SVG/1.1/DTD/svg11.dtd" >
<svg xmlns="http://www.w3.org/2000/svg" xmlns:xlink="http://www.w3.org/1999/xlink" version="1.1" viewBox="-10 0 1010 1000">
   <path fill="currentColor"
d="M767 613v-69h-434v69h434zM333 860h434v-74h-434v74zM767 734v-70h-434v70h434zM938 416h-555c-13 23 -26 47 -41 69h498v474h-73v-39h-434v39h-71v-371c-51 56 -110 106 -178 147c-10 -17 -32 -44 -46 -57c112 -65 198 -158 260 -262h-236v-62h271c12 -24 24 -49 33 -73
h-231v-60h253c8 -23 15 -46 21 -70c-93 5 -187 7 -273 7c-1 -17 -8 -41 -15 -57c242 -2 544 -18 702 -50l47 54c-100 21 -236 34 -379 42c-7 25 -15 49 -23 74h412v60h-433c-10 24 -21 49 -33 73h524v62z" />
</svg>
