<?xml version="1.0" standalone="no"?>
<!DOCTYPE svg PUBLIC "-//W3C//DTD SVG 1.1//EN" "http://www.w3.org/Graphics/SVG/1.1/DTD/svg11.dtd" >
<svg xmlns="http://www.w3.org/2000/svg" xmlns:xlink="http://www.w3.org/1999/xlink" version="1.1" viewBox="-10 0 1010 1000">
   <path fill="currentColor"
d="M257 171h-118v139h118v-139zM139 725h118v-145h-118v145zM139 374v142h118v-142h-118zM320 105v687h-181v86h-61v-773h242zM837 607l64 27c-88 159 -255 265 -466 323c-9 -19 -26 -44 -42 -61c204 -47 365 -145 444 -289zM655 316l61 25c-61 85 -158 165 -249 215
c-12 -15 -30 -36 -47 -48c86 -43 182 -118 235 -192zM748 458l62 26c-73 108 -194 200 -318 257c-10 -16 -28 -38 -45 -52c117 -49 238 -135 301 -231zM641 42l68 21c-6 14 -13 27 -20 41c67 94 180 190 278 240c-17 14 -39 42 -52 60c-88 -52 -189 -145 -261 -241
c-65 100 -155 186 -261 249c-9 -14 -33 -40 -49 -52c135 -75 245 -194 297 -318z" />
</svg>
