<?xml version="1.0" standalone="no"?>
<!DOCTYPE svg PUBLIC "-//W3C//DTD SVG 1.1//EN" "http://www.w3.org/Graphics/SVG/1.1/DTD/svg11.dtd" >
<svg xmlns="http://www.w3.org/2000/svg" xmlns:xlink="http://www.w3.org/1999/xlink" version="1.1" viewBox="-10 0 1010 1000">
   <path fill="currentColor"
d="M849 56l63 58c-123 50 -316 83 -480 101c-3 -18 -14 -46 -23 -62c158 -19 342 -53 440 -97zM705 350l-63 28c-13 -36 -44 -97 -68 -141l59 -22c25 43 57 101 72 135zM292 167h-147v139h147v-139zM145 511h147v-141h-147v141zM145 721h147v-145h-147v145zM362 787h-217v87
h-69v-773h286v686zM872 381l50 33c-82 134 -220 281 -358 374c7 7 15 14 22 21c47 39 99 53 179 53c59 0 145 -5 204 -11c-7 19 -17 57 -18 78c-43 3 -142 6 -187 6c-87 0 -142 -20 -195 -64c-35 -30 -62 -65 -82 -65s-51 70 -77 142l-54 -70c49 -83 94 -139 132 -139
c10 0 19 3 28 8c110 -75 220 -190 290 -292h-405v-70h455z" />
</svg>
