<?xml version="1.0" standalone="no"?>
<!DOCTYPE svg PUBLIC "-//W3C//DTD SVG 1.1//EN" "http://www.w3.org/Graphics/SVG/1.1/DTD/svg11.dtd" >
<svg xmlns="http://www.w3.org/2000/svg" xmlns:xlink="http://www.w3.org/1999/xlink" version="1.1" viewBox="-10 0 1010 1000">
   <path fill="currentColor"
d="M885 194l-48 43c-33 -33 -98 -86 -149 -123l46 -37c52 35 118 85 151 117zM277 171h-136v139h136v-139zM141 516h136v-142h-136v142zM141 725h136v-145h-136v145zM344 792h-203v86h-66v-773h269v687zM763 861h101c24 0 29 -19 32 -114c15 11 42 23 61 27
c-7 117 -25 151 -88 151h-116c-74 0 -93 -22 -93 -101v-33c-44 38 -92 73 -142 106c-8 -12 -23 -32 -34 -45c64 -42 123 -89 176 -142v-365h-70c-22 279 -83 476 -256 613c-9 -13 -36 -44 -52 -58c164 -115 220 -299 239 -555h-141v-64h145c4 -74 5 -153 6 -238l71 1
c-1 84 -3 163 -7 237h349v64h-215v290c55 -67 99 -142 129 -221l59 38c-45 103 -110 194 -188 274v98c0 31 5 37 34 37z" />
</svg>
