<?xml version="1.0" standalone="no"?>
<!DOCTYPE svg PUBLIC "-//W3C//DTD SVG 1.1//EN" "http://www.w3.org/Graphics/SVG/1.1/DTD/svg11.dtd" >
<svg xmlns="http://www.w3.org/2000/svg" xmlns:xlink="http://www.w3.org/1999/xlink" version="1.1" viewBox="-10 0 1010 1000">
   <path fill="currentColor"
d="M815 156l-36 67c-58 -42 -175 -93 -268 -121l34 -59c90 25 209 73 270 113zM270 197h-127v140h127v-140zM143 751h127v-145h-127v145zM143 401v141h127v-141h-127zM338 130v688h-195v86h-67v-774h262zM555 428l43 15c-29 207 -106 351 -212 429c-11 -16 -30 -40 -46 -53
c84 -56 151 -173 180 -320h-143v-68h165zM887 337l60 49c-50 57 -111 125 -161 170c46 108 106 199 181 247c-17 14 -40 41 -52 60c-85 -65 -152 -187 -199 -327v332c0 42 -9 64 -36 76c-29 12 -74 13 -146 13c-3 -20 -13 -52 -23 -72c52 3 101 2 114 2c15 -1 20 -5 20 -19
v-550h-198v-68h269v89c12 52 27 105 45 155c44 -47 95 -110 126 -157z" />
</svg>
