<?xml version="1.0" standalone="no"?>
<!DOCTYPE svg PUBLIC "-//W3C//DTD SVG 1.1//EN" "http://www.w3.org/Graphics/SVG/1.1/DTD/svg11.dtd" >
<svg xmlns="http://www.w3.org/2000/svg" xmlns:xlink="http://www.w3.org/1999/xlink" version="1.1" viewBox="-10 0 1010 1000">
   <path fill="currentColor"
d="M743 666h93v-134h-93v134zM597 666h90v-134h-90v134zM451 666h90v-134h-90v134zM901 469v410c0 32 -5 50 -25 61c-19 12 -48 12 -87 12c-2 -18 -9 -44 -18 -63c26 1 48 1 56 1c7 0 9 -3 9 -11v-150h-93v206h-56v-206h-90v206h-56v-206h-90v232h-64v-492h514zM493 319h287
c-54 -44 -103 -98 -141 -154c-42 55 -92 108 -146 154zM138 725h117v-145h-117v145zM255 374h-117v142h117v-142zM255 171h-117v139h117v-139zM637 39l59 40l-18 30c63 92 178 185 287 226c-17 16 -42 47 -54 68c-33 -15 -66 -36 -99 -59v40h-343v-44c-36 29 -74 56 -110 76
c-9 -19 -26 -47 -42 -65v441h-179v86h-60v-773h239v239c122 -59 256 -184 320 -305z" />
</svg>
