<?xml version="1.0" standalone="no"?>
<!DOCTYPE svg PUBLIC "-//W3C//DTD SVG 1.1//EN" "http://www.w3.org/Graphics/SVG/1.1/DTD/svg11.dtd" >
<svg xmlns="http://www.w3.org/2000/svg" xmlns:xlink="http://www.w3.org/1999/xlink" version="1.1" viewBox="-10 0 1010 1000">
   <path fill="currentColor"
d="M267 171h-124v138h124v-138zM143 725h124v-145h-124v145zM267 516v-143h-124v143h124zM333 105v687h-190v86h-66v-773h256zM502 741h303v-74h-303v74zM805 539h-303v74h303v-74zM875 482v398c0 36 -8 54 -34 65c-26 10 -67 11 -129 11c-3 -19 -13 -44 -22 -62
c45 1 86 1 99 1s16 -4 16 -15v-86h-303v162h-69v-474h442zM684 365h265v57h-586v-57h250v-68h-197v-54h197v-61h-221v-57h221v-80h71v80h239v57h-239v61h217v54h-217v68z" />
</svg>
