<?xml version="1.0" standalone="no"?>
<!DOCTYPE svg PUBLIC "-//W3C//DTD SVG 1.1//EN" "http://www.w3.org/Graphics/SVG/1.1/DTD/svg11.dtd" >
<svg xmlns="http://www.w3.org/2000/svg" xmlns:xlink="http://www.w3.org/1999/xlink" version="1.1" viewBox="-10 0 1010 1000">
   <path fill="currentColor"
d="M861 55l51 54c-133 39 -337 64 -510 77c-1 -16 -10 -41 -18 -57c168 -14 367 -41 477 -74zM817 327l-59 -20c26 -41 60 -106 78 -150l67 21c-27 53 -59 111 -86 149zM694 319l-59 18c-6 -37 -24 -95 -43 -139l56 -14c21 42 40 99 46 135zM528 324l-56 27
c-9 -37 -35 -92 -62 -132l53 -22c28 39 54 92 65 127zM277 171h-135v139h135v-139zM142 725h135v-145h-135v145zM142 374v142h135v-142h-135zM339 105v687h-197v86h-60v-773h257zM818 661v-98h-142v98h142zM676 416v82h142v-82h-142zM957 498v65h-74v160h-207v140
c0 42 -9 61 -38 73c-29 11 -77 12 -151 12c-3 -20 -13 -48 -22 -68c56 2 108 1 122 1c15 -1 20 -5 20 -19v-139h-199v-62h199v-98h-242v-65h242v-82h-195v-62h471v144h74z" />
</svg>
