<?xml version="1.0" standalone="no"?>
<!DOCTYPE svg PUBLIC "-//W3C//DTD SVG 1.1//EN" "http://www.w3.org/Graphics/SVG/1.1/DTD/svg11.dtd" >
<svg xmlns="http://www.w3.org/2000/svg" xmlns:xlink="http://www.w3.org/1999/xlink" version="1.1" viewBox="-10 0 1010 1000">
   <path fill="currentColor"
d="M830 75l65 19c-27 46 -65 104 -96 140c-14 -8 -43 -23 -60 -30c33 -36 67 -86 91 -129zM563 192l-57 33c-20 -32 -59 -85 -89 -123l55 -27c32 37 72 88 91 117zM262 171h-123v139h123v-139zM139 725h123v-145h-123v145zM139 374v142h123v-142h-123zM327 105v687h-188v86
h-63v-773h251zM765 473h-174c-16 32 -36 63 -58 90h279v159c0 33 -6 49 -30 60c-24 10 -62 10 -118 10c-3 -19 -12 -41 -20 -58c42 1 75 1 86 0s14 -3 14 -12v-98h-180v223c0 29 9 36 60 36h181c42 0 49 -15 54 -110c16 11 44 22 65 26c-9 118 -32 148 -113 148h-192
c-98 0 -126 -20 -126 -100v-237c-27 29 -59 55 -93 78c-11 -12 -38 -39 -55 -51c70 -43 124 -97 166 -164h-129v-65h164c15 -31 28 -65 39 -101h-165v-62h182c15 -62 25 -129 33 -202l72 6c-9 71 -20 136 -34 196h238v62h-253c-11 35 -23 70 -35 101h334v65h-120
c36 61 87 118 137 149c-17 12 -39 36 -51 52c-59 -43 -119 -122 -158 -201z" />
</svg>
