<?xml version="1.0" standalone="no"?>
<!DOCTYPE svg PUBLIC "-//W3C//DTD SVG 1.1//EN" "http://www.w3.org/Graphics/SVG/1.1/DTD/svg11.dtd" >
<svg xmlns="http://www.w3.org/2000/svg" xmlns:xlink="http://www.w3.org/1999/xlink" version="1.1" viewBox="-10 0 1010 1000">
   <path fill="currentColor"
d="M791 190l-64 29c-11 -38 -39 -97 -65 -141l61 -26c28 43 57 100 68 138zM526 680v136h165v-136h-165zM691 417v-126h-165v126h165zM691 613v-128h-165v128h165zM140 725h154v-145h-154v145zM140 374v142h154v-142h-154zM294 171h-154v139h154v-139zM956 816v69h-430v73
h-70v-585c-21 30 -42 57 -65 82c-6 -11 -19 -26 -30 -40v377h-221v86h-64v-773h285v279c77 -92 142 -226 174 -335l73 20c-18 50 -40 103 -66 154h397v68h-178v126h157v68h-157v128h157v67h-157v136h195z" />
</svg>
