<?xml version="1.0" standalone="no"?>
<!DOCTYPE svg PUBLIC "-//W3C//DTD SVG 1.1//EN" "http://www.w3.org/Graphics/SVG/1.1/DTD/svg11.dtd" >
<svg xmlns="http://www.w3.org/2000/svg" xmlns:xlink="http://www.w3.org/1999/xlink" version="1.1" viewBox="-10 0 1010 1000">
   <path fill="currentColor"
d="M813 231v-90h-168v90h168zM576 231v-90h-163v90h163zM345 231v-90h-158v90h158zM886 83v206h-771v-206h771zM391 640h221c17 -31 34 -68 45 -95h-315c22 29 45 68 54 93zM944 487v58h-273l62 19c-15 25 -31 52 -47 76h187v58h-339v76h381v59h-381v123h-74v-123h-383v-59
h383v-76h-336v-58h195c-12 -25 -30 -55 -45 -78l45 -17h-262v-58h403v-71h-314v-58h314v-63h74v63h322v58h-322v71h410z" />
</svg>
