<?xml version="1.0" standalone="no"?>
<!DOCTYPE svg PUBLIC "-//W3C//DTD SVG 1.1//EN" "http://www.w3.org/Graphics/SVG/1.1/DTD/svg11.dtd" >
<svg xmlns="http://www.w3.org/2000/svg" xmlns:xlink="http://www.w3.org/1999/xlink" version="1.1" viewBox="-10 0 1010 1000">
   <path fill="currentColor"
d="M241 167h-102v140h102v-140zM139 723h102v-147h-102v147zM139 371v142h102v-142h-102zM305 102v686h-166v87h-64v-773h230zM427 689h137v-81h-137v81zM564 475h-137v77h137v-77zM626 415v458c0 34 -5 53 -26 64c-19 12 -50 13 -92 13c-3 -19 -10 -47 -19 -66
c30 1 55 1 64 1c9 -1 11 -3 11 -12v-127h-137v207h-61v-538h260zM837 872v-475h59v475c0 37 -7 55 -31 66c-23 11 -61 12 -118 12c-2 -18 -11 -45 -20 -63c45 1 83 1 94 0c13 0 16 -3 16 -15zM754 434v358h-58v-358h58zM637 39l57 28c-7 9 -14 19 -21 28
c83 85 185 138 295 182c-16 15 -35 39 -44 58c-108 -49 -205 -108 -289 -195c-54 58 -119 109 -189 151h369v60h-381v-53c-24 14 -48 26 -73 38c-10 -17 -28 -40 -45 -55c124 -52 252 -142 321 -242z" />
</svg>
