<?xml version="1.0" standalone="no"?>
<!DOCTYPE svg PUBLIC "-//W3C//DTD SVG 1.1//EN" "http://www.w3.org/Graphics/SVG/1.1/DTD/svg11.dtd" >
<svg xmlns="http://www.w3.org/2000/svg" xmlns:xlink="http://www.w3.org/1999/xlink" version="1.1" viewBox="-10 0 1010 1000">
   <path fill="currentColor"
d="M850 184h-84v76h84v-76zM850 396v-78h-84v78h84zM704 260v-76h-126v-57h126v-83h62v83h141v133h48v58h-48v135h-141v73h153v61h-153v78h171v61h-171v120h-62v-120h-168v-61h168v-78h-142v-61h142v-73h-126v-57h126v-78h-171v-58h171zM238 167h-98v140h98v-140zM140 371
v142h98v-142h-98zM140 723h98v-147h-98v147zM300 788h-160v87h-61v-773h221v686zM516 405l37 5c-11 150 -33 264 -71 354c86 96 203 117 328 117c25 0 121 0 155 -1c-10 16 -20 45 -23 63h-137c-136 0 -259 -23 -352 -121c-33 58 -74 101 -123 136c-8 -16 -23 -39 -37 -50
c48 -31 87 -77 119 -138c-34 -49 -62 -111 -84 -189l53 -21c16 58 35 106 58 146c25 -67 41 -146 50 -240h-161c36 -75 81 -187 116 -285h-114v-65h203c-33 91 -78 205 -114 291h86z" />
</svg>
