<?xml version="1.0" standalone="no"?>
<!DOCTYPE svg PUBLIC "-//W3C//DTD SVG 1.1//EN" "http://www.w3.org/Graphics/SVG/1.1/DTD/svg11.dtd" >
<svg xmlns="http://www.w3.org/2000/svg" xmlns:xlink="http://www.w3.org/1999/xlink" version="1.1" viewBox="-10 0 1010 1000">
   <path fill="currentColor"
d="M676 147v79c0 81 -17 180 -103 247c-10 -14 -35 -38 -47 -47c77 -57 88 -134 88 -201v-140h238v239c0 27 1 35 13 35h45c10 0 26 -1 37 -4c2 18 4 44 6 60c-11 4 -27 5 -43 5h-49c-59 0 -71 -27 -71 -97v-176h-114zM248 244v-70h-204v-58h204v-72h67v72h196v58h-196v70
h170v56h-411v-56h174zM117 403v75h-62v-129h449v129h-65v-75h-322zM428 511h-289v-51h289v51zM402 605h-239v56h239v-56zM402 766v-57h-239v57h239zM163 874h239v-60h-239v60zM99 953v-400h370v397h-67v-26h-239v29h-64zM834 545h-177c21 63 49 120 86 170
c38 -49 69 -106 91 -170zM874 479l42 19c-27 107 -73 196 -129 268c51 53 112 95 185 120c-15 14 -34 41 -43 60c-73 -30 -135 -74 -186 -131c-60 62 -130 109 -205 143c-7 -19 -25 -46 -39 -59c73 -30 143 -75 201 -135c-43 -59 -76 -128 -101 -204l54 -15h-97v-63h305z
" />
</svg>
