<?xml version="1.0" standalone="no"?>
<!DOCTYPE svg PUBLIC "-//W3C//DTD SVG 1.1//EN" "http://www.w3.org/Graphics/SVG/1.1/DTD/svg11.dtd" >
<svg xmlns="http://www.w3.org/2000/svg" xmlns:xlink="http://www.w3.org/1999/xlink" version="1.1" viewBox="-10 0 1010 1000">
   <path fill="currentColor"
d="M292 171h-136v139h136v-139zM156 516h136v-142h-136v142zM156 725h136v-145h-136v145zM363 792h-207v86h-69v-773h276v687zM396 933l-50 -25c42 -47 65 -130 77 -203l52 13c-12 78 -33 165 -79 215zM517 719l48 -5c16 57 29 131 30 174l-51 9c-1 -45 -13 -120 -27 -178z
M613 712l44 -13c26 45 54 107 63 144l-46 17c-10 -39 -37 -101 -61 -148zM824 783l-41 23c-15 -30 -47 -76 -75 -109l39 -18c30 31 64 76 77 104zM791 190h-278v67h278v-67zM513 373h278v-68h-278v68zM953 536h-440v58h418l-3 30c-15 198 -28 276 -54 304
c-17 18 -35 24 -60 27c-24 1 -69 2 -116 -1c-2 -20 -9 -48 -19 -66c45 4 86 5 102 5s25 -2 33 -10c18 -17 30 -78 42 -231h-414v-515h140c12 -31 26 -68 33 -94l79 14c-13 28 -26 55 -39 80h203v289h-345v56h440v54z" />
</svg>
