<?xml version="1.0" standalone="no"?>
<!DOCTYPE svg PUBLIC "-//W3C//DTD SVG 1.1//EN" "http://www.w3.org/Graphics/SVG/1.1/DTD/svg11.dtd" >
<svg xmlns="http://www.w3.org/2000/svg" xmlns:xlink="http://www.w3.org/1999/xlink" version="1.1" viewBox="-10 0 1010 1000">
   <path fill="currentColor"
d="M257 171h-118v139h118v-139zM139 725h118v-145h-118v145zM139 374v142h118v-142h-118zM320 105v687h-181v86h-61v-773h242zM929 583v293c0 35 -8 51 -35 62c-28 10 -72 10 -139 10c-4 -18 -14 -41 -23 -57c51 1 97 1 110 0c14 -1 17 -4 17 -16v-228h-222
c-21 44 -43 86 -67 123l163 -19c-12 -23 -25 -44 -35 -64l47 -16c30 51 67 120 85 160l-49 20c-6 -15 -15 -33 -25 -53c-204 29 -234 35 -249 45c-4 -14 -15 -46 -22 -64c15 -4 30 -25 47 -56c7 -12 22 -40 38 -76h-117v309h-69v-373h214c8 -22 17 -46 25 -70h-202v-279h65
v219h336v-219h68v279h-197c-8 23 -17 47 -28 70h264zM796 397l-36 34c-23 -19 -58 -46 -96 -73c-40 32 -81 62 -119 85c-8 -10 -26 -30 -37 -39c37 -21 77 -47 115 -76c-34 -24 -70 -49 -102 -70l35 -30c32 22 69 47 105 71c31 -25 58 -52 81 -78l48 18
c-26 30 -56 59 -89 88c38 26 71 50 95 70zM694 135h251v65h-582v-65h254c-9 -25 -21 -55 -33 -77l66 -18c14 28 32 66 44 95z" />
</svg>
