<?xml version="1.0" standalone="no"?>
<!DOCTYPE svg PUBLIC "-//W3C//DTD SVG 1.1//EN" "http://www.w3.org/Graphics/SVG/1.1/DTD/svg11.dtd" >
<svg xmlns="http://www.w3.org/2000/svg" xmlns:xlink="http://www.w3.org/1999/xlink" version="1.1" viewBox="-10 0 1010 1000">
   <path fill="currentColor"
d="M831 67l74 18c-30 54 -65 113 -94 151l-63 -17c28 -41 64 -107 83 -152zM560 206l-62 28c-15 -41 -53 -103 -87 -148l59 -25c36 45 73 104 90 145zM443 310v109h-70v-174h250v-202h69v202h241v174h-73v-109h-417zM262 171h-123v139h123v-139zM139 725h123v-145h-123v145z
M262 516v-142h-123v142h123zM324 105v687h-185v86h-63v-773h248zM522 444v104h261v-104h-261zM691 867h260v62h-595v-62h266v-113h-213v-61h213v-89h-166v-216h396v216h-161v89h204v61h-204v113z" />
</svg>
