<?xml version="1.0" standalone="no"?>
<!DOCTYPE svg PUBLIC "-//W3C//DTD SVG 1.1//EN" "http://www.w3.org/Graphics/SVG/1.1/DTD/svg11.dtd" >
<svg xmlns="http://www.w3.org/2000/svg" xmlns:xlink="http://www.w3.org/1999/xlink" version="1.1" viewBox="-10 0 1010 1000">
   <path fill="currentColor"
d="M241 167h-102v139h102v-139zM139 370v142h102v-142h-102zM139 721h102v-146h-102v146zM304 786h-165v89h-63v-773h228v684zM591 748l-41 55c-19 -37 -51 -93 -84 -145c-21 93 -62 181 -135 248c-10 -15 -30 -37 -46 -49c101 -84 129 -222 138 -345h-103v-66h106v-53v-107
h-93v-66h93v-160h65v160h91v66h-91v107c0 17 0 34 -1 53h100v66h-103c-1 21 -3 41 -6 62c42 60 88 131 110 174zM679 466v110h167v-110h-167zM679 297v111h167v-111h-167zM679 131v108h167v-108h-167zM855 897h24c7 0 15 -1 19 -5s7 -12 9 -26c3 -17 3 -52 4 -99
c12 10 31 20 47 25c-1 44 -4 95 -9 112c-5 18 -13 29 -24 35c-11 7 -28 10 -43 10h-41c-18 0 -38 -5 -50 -16c-13 -12 -17 -27 -17 -81v-214h-49c-13 157 -54 262 -198 321c-8 -15 -26 -39 -40 -51c130 -49 163 -137 173 -270h-48v-569h303v569h-79v221c0 18 0 29 4 33
c3 3 8 5 15 5z" />
</svg>
