<?xml version="1.0" standalone="no"?>
<!DOCTYPE svg PUBLIC "-//W3C//DTD SVG 1.1//EN" "http://www.w3.org/Graphics/SVG/1.1/DTD/svg11.dtd" >
<svg xmlns="http://www.w3.org/2000/svg" xmlns:xlink="http://www.w3.org/1999/xlink" version="1.1" viewBox="-10 0 1010 1000">
   <path fill="currentColor"
d="M771 170l-65 28c-12 -34 -38 -90 -59 -131l64 -24c22 40 48 93 60 127zM409 961l-56 -33c39 -47 72 -124 91 -184l57 22c-21 63 -51 144 -92 195zM675 346v-82h-164v82h164zM675 488v-84h-164v84h164zM675 632v-86h-164v86h164zM142 726h128v-145h-128v145zM142 375v142
h128v-142h-128zM270 172h-128v139h128v-139zM954 695h-443v39h-68v-400c-20 31 -42 58 -64 83c-8 -13 -27 -39 -41 -53v429h-196v86h-66v-773h262v248c72 -77 136 -193 173 -311l66 17c-17 48 -36 96 -57 142h429v62h-203v82h174v58h-174v84h177v58h-177v86h208v63zM552 764
l58 -8c15 58 25 132 27 180l-63 10c-1 -49 -10 -124 -22 -182zM681 762l58 -14c26 56 50 129 60 177l-62 18c-8 -49 -32 -124 -56 -181zM814 755l59 -21c37 61 78 140 98 190l-63 26c-18 -52 -60 -133 -94 -195z" />
</svg>
