<?xml version="1.0" standalone="no"?>
<!DOCTYPE svg PUBLIC "-//W3C//DTD SVG 1.1//EN" "http://www.w3.org/Graphics/SVG/1.1/DTD/svg11.dtd" >
<svg xmlns="http://www.w3.org/2000/svg" xmlns:xlink="http://www.w3.org/1999/xlink" version="1.1" viewBox="-10 0 1010 1000">
   <path fill="currentColor"
d="M864 68l62 25c-26 46 -55 98 -79 131l-51 -21c23 -36 53 -96 68 -135zM507 203l-58 22c-10 -36 -37 -92 -62 -136l53 -18c28 42 55 97 67 132zM268 168h-125v140h125v-140zM143 722h125v-144h-125v144zM143 373v140h125v-140h-125zM334 102v687h-191v86h-67v-773h258z
M768 297h-232c17 35 38 82 45 112l-36 11h200l-26 -8c16 -32 38 -81 49 -115zM955 741h-233c48 78 133 134 241 158c-15 14 -35 41 -44 61c-120 -34 -208 -105 -260 -205c-34 77 -111 151 -276 205c-8 -16 -29 -41 -43 -54c150 -43 219 -103 251 -165h-234v-61h253
c4 -20 5 -40 5 -59v-14h-201v-59h201v-69h-222v-59h125c-8 -31 -25 -75 -42 -108l55 -15h-158v-62h172v-192h64v192h86v-192h64v192h190v62h-166l53 15c-20 38 -40 78 -58 108h154v59h-247v69h220v59h-220v14c0 19 -1 39 -4 59h274v61z" />
</svg>
