<?xml version="1.0" standalone="no"?>
<!DOCTYPE svg PUBLIC "-//W3C//DTD SVG 1.1//EN" "http://www.w3.org/Graphics/SVG/1.1/DTD/svg11.dtd" >
<svg xmlns="http://www.w3.org/2000/svg" xmlns:xlink="http://www.w3.org/1999/xlink" version="1.1" viewBox="-10 0 1010 1000">
   <path fill="currentColor"
d="M261 167h-119v139h119v-139zM142 371v141h119v-141h-119zM142 721h119v-145h-119v145zM328 788h-186v86h-66v-773h252v687zM843 154h-387v89h387v-89zM913 302h-457v80c0 167 -17 407 -132 569c-11 -13 -40 -36 -55 -44c109 -153 119 -368 119 -525v-287h525v207z
M553 568h115v-72h-115v72zM844 496h-120v72h120v-72zM937 663v237c0 29 -7 41 -30 49c-21 7 -59 6 -117 6c-3 -13 -11 -29 -17 -42c41 1 78 1 89 1c11 -1 14 -4 14 -14v-182h-155v82l63 -3c-9 -17 -18 -33 -26 -48l35 -11c25 42 55 97 67 132l-37 14c-5 -12 -11 -27 -18 -44
c-93 9 -182 15 -254 21l-6 -53c36 -1 78 -3 125 -5v-85h-142v237h-63v-292h203v-48h-171v-166h171v-55c-58 5 -118 8 -173 10c-2 -14 -10 -34 -17 -48c132 -6 290 -20 376 -39l45 44c-48 12 -110 20 -175 27v61h180v166h-180v48h213z" />
</svg>
