<?xml version="1.0" standalone="no"?>
<!DOCTYPE svg PUBLIC "-//W3C//DTD SVG 1.1//EN" "http://www.w3.org/Graphics/SVG/1.1/DTD/svg11.dtd" >
<svg xmlns="http://www.w3.org/2000/svg" xmlns:xlink="http://www.w3.org/1999/xlink" version="1.1" viewBox="-10 0 1010 1000">
   <path fill="currentColor"
d="M441 724l68 18c-36 70 -96 141 -151 186c-13 -12 -40 -34 -56 -44c55 -40 108 -99 139 -160zM753 752l53 -32c58 51 118 121 147 168l-57 37c-29 -48 -89 -122 -143 -173zM787 504v-73h-291v73h291zM787 629v-74h-291v74h291zM674 218h-61c-26 60 -59 113 -98 159h260
c-41 -47 -76 -102 -101 -159zM143 722h125v-145h-125v145zM143 372v140h125v-140h-125zM268 167h-125v141h125v-141zM874 239l54 30c-26 32 -55 64 -82 87c37 36 79 65 122 84c-15 13 -37 38 -47 56c-22 -11 -43 -25 -64 -41v228h-180v196c0 35 -6 55 -32 66
c-25 11 -65 12 -127 12c-3 -19 -14 -48 -24 -66c45 2 85 1 98 1c12 -1 15 -3 15 -14v-195h-177v-226c-19 15 -40 28 -61 41c-6 -12 -22 -33 -35 -48v339h-191v86h-66v-773h257v333c38 -21 72 -46 102 -74c-19 -28 -48 -62 -75 -86l45 -32c26 20 53 47 72 72
c24 -29 44 -61 61 -97h-178v-60h204c13 -36 23 -74 31 -115l69 10c-8 37 -18 72 -29 105h308v60h-203c19 36 42 70 69 101c24 -26 49 -58 64 -80z" />
</svg>
