<?xml version="1.0" standalone="no"?>
<!DOCTYPE svg PUBLIC "-//W3C//DTD SVG 1.1//EN" "http://www.w3.org/Graphics/SVG/1.1/DTD/svg11.dtd" >
<svg xmlns="http://www.w3.org/2000/svg" xmlns:xlink="http://www.w3.org/1999/xlink" version="1.1" viewBox="-10 0 1010 1000">
   <path fill="currentColor"
d="M490 328v-59c-36 27 -76 52 -116 74c-10 -14 -33 -38 -48 -49c123 -64 234 -161 291 -258l71 24c-7 11 -14 21 -22 32c75 68 201 135 303 171c-13 18 -28 48 -34 67c-103 -44 -225 -116 -307 -190c-39 47 -86 90 -137 128h297v60h-298zM728 455v131h112v-131h-112z
M671 640v-240h229v240h-229zM443 455v131h107v-131h-107zM386 640v-240h224v240h-224zM257 171h-118v139h118v-139zM139 516h118v-142h-118v142zM139 725h118v-145h-118v145zM320 792h-181v86h-61v-773h242v687zM472 663l67 13c-8 26 -18 51 -30 75c42 25 89 62 113 86
l-39 50c-22 -24 -63 -58 -101 -86c-40 65 -92 118 -150 159c-10 -13 -36 -38 -51 -49c91 -54 159 -141 191 -248zM749 662l68 9c-7 31 -15 60 -26 88c63 40 136 94 173 132l-44 51c-35 -35 -96 -86 -155 -127c-30 57 -72 105 -122 142c-9 -13 -34 -38 -50 -49
c82 -53 135 -139 156 -246z" />
</svg>
