<?xml version="1.0" standalone="no"?>
<!DOCTYPE svg PUBLIC "-//W3C//DTD SVG 1.1//EN" "http://www.w3.org/Graphics/SVG/1.1/DTD/svg11.dtd" >
<svg xmlns="http://www.w3.org/2000/svg" xmlns:xlink="http://www.w3.org/1999/xlink" version="1.1" viewBox="-10 0 1010 1000">
   <path fill="currentColor"
d="M517 249h57v72c0 19 5 21 36 21h113c21 0 26 -4 29 -45c12 8 33 15 50 18c-6 62 -25 77 -72 77h-124c-72 0 -89 -14 -89 -71v-72zM721 280l-37 35c-21 -29 -64 -70 -101 -95l35 -31c39 25 82 64 103 91zM940 359l-51 32c-21 -33 -69 -82 -112 -116l49 -28
c43 31 92 78 114 112zM431 182v83h-62v-138h254c-11 -23 -26 -49 -38 -70l64 -18c19 28 39 63 51 88h231v137h-64v-82h-436zM449 256l50 23c-20 41 -52 87 -96 118l-47 -37c40 -23 73 -67 93 -104zM256 167h-115v139h115v-139zM141 724h115v-149h-115v149zM141 370v142h115
v-142h-115zM321 102v687h-180v77h-65v-764h245zM364 742v-57h572v57h-239v132c0 36 -7 53 -34 64c-28 10 -71 10 -137 10c-2 -19 -13 -43 -21 -62c48 1 94 1 106 0c13 0 17 -3 17 -13v-131h-264zM471 481v97h84v-97h-84zM693 481h-86v97h86v-97zM832 481h-87v97h87v-97z
M890 578h67v56h-612v-56h69v-150h476v150z" />
</svg>
