<?xml version="1.0" standalone="no"?>
<!DOCTYPE svg PUBLIC "-//W3C//DTD SVG 1.1//EN" "http://www.w3.org/Graphics/SVG/1.1/DTD/svg11.dtd" >
<svg xmlns="http://www.w3.org/2000/svg" xmlns:xlink="http://www.w3.org/1999/xlink" version="1.1" viewBox="-10 0 1010 1000">
   <path fill="currentColor"
d="M751 479l-37 -16c15 -28 36 -70 45 -97l48 19c-20 35 -39 70 -56 94zM473 384l42 -14c18 29 37 68 45 93l-42 18c-8 -26 -27 -66 -45 -97zM430 352v141h174v-141h-174zM855 493v-141h-194v141h194zM954 703v59h-632v-59h275v-62h-231v-53h231v-49h-226v-232h226v-52h-269
v-56h269v-58c-73 4 -146 7 -214 7c-2 -15 -10 -37 -16 -52c169 -4 381 -17 496 -40l40 51c-64 13 -146 22 -234 29v63h275v56h-275v52h247v232h-247v49h249v53h-249v62h285zM244 167h-105v139h105v-139zM139 370v142h105v-142h-105zM139 721h105v-146h-105v146zM307 786
h-168v89h-64v-773h232v684zM331 957l-51 -40c58 -30 94 -88 110 -147l58 21c-19 65 -52 129 -117 166zM502 801l59 -8c16 48 29 111 32 148l-63 11c-3 -39 -14 -102 -28 -151zM642 802l56 -16c27 45 58 106 68 144l-58 20c-11 -39 -40 -101 -66 -148zM784 793l58 -27
c44 50 96 117 119 161l-60 31c-23 -44 -73 -115 -117 -165z" />
</svg>
