<?xml version="1.0" standalone="no"?>
<!DOCTYPE svg PUBLIC "-//W3C//DTD SVG 1.1//EN" "http://www.w3.org/Graphics/SVG/1.1/DTD/svg11.dtd" >
<svg xmlns="http://www.w3.org/2000/svg" xmlns:xlink="http://www.w3.org/1999/xlink" version="1.1" viewBox="-10 0 1010 1000">
   <path fill="currentColor"
d="M470 277v70h355v-70h-355zM470 163v69h355v-69h-355zM415 496v64h-62v-111h259c-7 -13 -16 -26 -24 -38l57 -12h-242v-289h163c12 -23 25 -49 32 -68l73 16c-9 19 -19 36 -28 52h251v289h-238c11 15 23 33 32 50h249v114h-64v-67h-458zM684 554l26 -33
c64 22 147 55 189 76l-25 38c-43 -22 -126 -57 -190 -81zM417 641l-47 -33c63 -17 131 -50 175 -85l58 15c-49 39 -117 80 -186 103zM256 167h-120v139h120v-139zM136 721h120v-146h-120v146zM136 370v142h120v-142h-120zM313 102v684h-177v89h-61v-773h238zM944 703h-359
c-3 17 -7 33 -11 49h310s-1 18 -3 27c-14 92 -27 132 -48 150c-17 12 -34 16 -60 17c-23 1 -70 0 -118 -3c-1 -14 -6 -34 -14 -48c46 5 91 5 108 5c16 0 24 -1 31 -7c12 -10 21 -35 31 -90h-255c-30 67 -83 119 -176 154c-8 -16 -26 -40 -40 -51c118 -40 160 -112 176 -203
h-161v-51h260c-10 -18 -21 -37 -32 -53l60 -13c14 20 31 45 42 66h259v51z" />
</svg>
