<?xml version="1.0" standalone="no"?>
<!DOCTYPE svg PUBLIC "-//W3C//DTD SVG 1.1//EN" "http://www.w3.org/Graphics/SVG/1.1/DTD/svg11.dtd" >
<svg xmlns="http://www.w3.org/2000/svg" xmlns:xlink="http://www.w3.org/1999/xlink" version="1.1" viewBox="-10 0 1010 1000">
   <path fill="currentColor"
d="M817 153v-35h-211v35h211zM817 227v-36h-211v36h211zM817 302v-37h-211v37h211zM883 79v263h-340v-263h340zM464 342h-161l20 7c-11 14 -23 27 -36 41h202c-7 -16 -16 -33 -25 -48zM192 265v37h209v-37h-209zM192 191v36h209v-36h-209zM192 118v35h209v-35h-209zM491 476
v-40h-233v40h233zM491 557v-39h-233v39h233zM491 639v-40h-233v40h233zM189 705v-229c-32 24 -66 45 -97 63c-11 -13 -37 -38 -52 -50c75 -36 153 -89 204 -147h-115v-263h338v255l57 -15c15 21 31 49 40 71h317v46h-318v40h269v42h-269v39h270v42h-270v40h340v45h-645v21
h-69zM706 771h-407c53 32 125 56 207 75c78 -19 147 -43 200 -75zM783 722l41 31c-52 49 -125 86 -210 114c104 18 218 28 330 32c-13 15 -28 41 -36 59c-138 -8 -281 -27 -406 -58c-132 32 -279 50 -418 59c-4 -17 -15 -40 -24 -55c109 -5 227 -16 336 -34
c-66 -24 -125 -53 -171 -87l23 -12h-130v-46h654z" />
</svg>
