<?xml version="1.0" standalone="no"?>
<!DOCTYPE svg PUBLIC "-//W3C//DTD SVG 1.1//EN" "http://www.w3.org/Graphics/SVG/1.1/DTD/svg11.dtd" >
<svg xmlns="http://www.w3.org/2000/svg" xmlns:xlink="http://www.w3.org/1999/xlink" version="1.1" viewBox="-10 0 1010 1000">
   <path fill="currentColor"
d="M481 326v46h341v-46h-341zM481 237v46h341v-46h-341zM481 151v43h341v-43h-341zM415 509v64h-62v-111h259c-7 -14 -15 -26 -24 -38l39 -8h-213v-309h164c12 -23 25 -48 32 -66l79 11c-14 20 -28 38 -42 55h243v309h-231c10 15 20 31 29 46h249v114h-64v-67h-458zM684 563
l26 -33c64 21 147 54 189 76l-25 38c-43 -23 -126 -58 -190 -81zM417 650l-47 -34c63 -17 131 -49 175 -85l58 15c-49 39 -117 80 -186 104zM257 167h-121v139h121v-139zM136 721h121v-146h-121v146zM136 370v142h121v-142h-121zM315 102v684h-179v89h-61v-773h240zM944 709
h-360c-3 16 -6 31 -10 46h310s-1 18 -3 27c-14 92 -27 132 -48 149c-17 13 -35 17 -60 18c-24 1 -70 0 -118 -3c-1 -14 -6 -34 -14 -48c46 5 91 5 108 5c16 0 24 -1 31 -7c12 -10 21 -36 31 -91h-255c-30 68 -83 120 -176 155c-8 -16 -26 -41 -40 -52
c117 -39 159 -109 175 -199h-160v-51h258c-9 -17 -19 -35 -30 -50l60 -13c13 20 29 43 40 63h261v51z" />
</svg>
