<?xml version="1.0" standalone="no"?>
<!DOCTYPE svg PUBLIC "-//W3C//DTD SVG 1.1//EN" "http://www.w3.org/Graphics/SVG/1.1/DTD/svg11.dtd" >
<svg xmlns="http://www.w3.org/2000/svg" xmlns:xlink="http://www.w3.org/1999/xlink" version="1.1" viewBox="-10 0 1010 1000">
   <path fill="currentColor"
d="M639 139v60h-303v-60h132c-8 -27 -20 -60 -31 -86l57 -13c14 31 29 70 37 99h108zM457 317l-50 18c-6 -31 -20 -79 -33 -115l48 -17c13 36 29 83 35 114zM235 167h-100v140h100v-140zM135 723h100v-147h-100v147zM135 371v142h100v-142h-100zM295 102v686h-160v87h-60
v-773h220zM418 709h140v-73h-140v73zM558 511h-140v73h140v-73zM619 455v422c0 31 -5 49 -27 60c-21 11 -52 12 -102 12c-2 -17 -12 -44 -21 -60c35 1 66 1 76 1c10 -1 13 -4 13 -14v-116h-140v196h-61v-501h262zM547 204l55 16c-13 40 -27 83 -38 118h84v62h-326v-62h190
c11 -40 28 -96 35 -134zM770 881h106c21 0 26 -10 29 -64c14 11 39 22 58 26c-7 79 -26 103 -82 103h-120c-72 0 -92 -20 -92 -97v-441h196v-94h-196v-271h66v81h222v61h-222v72h197v208h-197v58h188v52h-188v58h178v52h-178v61h200v52h-200v50c0 28 5 33 35 33z" />
</svg>
