<?xml version="1.0" standalone="no"?>
<!DOCTYPE svg PUBLIC "-//W3C//DTD SVG 1.1//EN" "http://www.w3.org/Graphics/SVG/1.1/DTD/svg11.dtd" >
<svg xmlns="http://www.w3.org/2000/svg" xmlns:xlink="http://www.w3.org/1999/xlink" version="1.1" viewBox="-10 0 1010 1000">
   <path fill="currentColor"
d="M832 581h-259v102h259v-102zM573 848h259v-106h-259v106zM505 954v-435h398v431h-71v-39h-259v43h-68zM627 235v135h141v-135h-141zM836 370h120v66h-522c-17 75 -40 157 -63 209l-54 -21c17 -43 34 -107 47 -166h-84v418c0 36 -5 55 -30 67c-24 10 -61 11 -119 11
c-3 -17 -13 -46 -22 -64c42 1 78 1 90 0s16 -3 16 -14v-308c-38 91 -87 177 -138 230c-8 -20 -26 -48 -38 -66c62 -61 124 -170 162 -274h-153v-65h258c-50 -47 -137 -104 -211 -140l42 -46c31 15 64 33 96 52c35 -29 70 -66 97 -101h-270v-65h321l12 -3l49 30
c-38 61 -98 126 -155 174c30 21 57 42 76 61l-31 38h53l11 -3l38 12v-32h125v-135h-103v-64h103v-128h68v128h141v-128h68v128h103v64h-103v135z" />
</svg>
