<?xml version="1.0" standalone="no"?>
<!DOCTYPE svg PUBLIC "-//W3C//DTD SVG 1.1//EN" "http://www.w3.org/Graphics/SVG/1.1/DTD/svg11.dtd" >
<svg xmlns="http://www.w3.org/2000/svg" xmlns:xlink="http://www.w3.org/1999/xlink" version="1.1" viewBox="-10 0 1010 1000">
   <path fill="currentColor"
d="M420 776l-50 60c-22 -40 -74 -117 -115 -173c-27 100 -77 198 -164 276c-10 -14 -37 -40 -51 -50c124 -110 163 -254 175 -383h-168v-67h171c1 -14 1 -27 1 -40v-154h-51c-18 59 -39 112 -64 154c-11 -10 -41 -30 -57 -38c48 -79 77 -198 93 -317l68 11
c-6 42 -14 83 -23 123h227v67h-124v155c0 13 0 25 -1 39h142v67h-146c-2 25 -5 51 -10 77c36 44 125 164 147 193zM619 605l50 -24c41 52 78 124 91 173l-53 26c-13 -50 -49 -122 -88 -175zM613 299l49 -25c39 45 76 107 91 148l-54 29c-14 -43 -49 -107 -86 -152zM564 477
h260v-238h-260v238zM963 477v66h-73v333c0 37 -8 56 -32 68c-22 11 -58 12 -118 12c-2 -18 -12 -46 -21 -64c40 2 78 1 89 1c11 -1 16 -5 16 -17v-333h-260c-1 134 -18 308 -124 418c-10 -13 -38 -34 -52 -41c99 -103 111 -252 111 -377h-63v-66h63v-302h130
c13 -41 27 -95 33 -132l79 15c-15 39 -31 82 -45 117h194v302h73z" />
</svg>
