<?xml version="1.0" standalone="no"?>
<!DOCTYPE svg PUBLIC "-//W3C//DTD SVG 1.1//EN" "http://www.w3.org/Graphics/SVG/1.1/DTD/svg11.dtd" >
<svg xmlns="http://www.w3.org/2000/svg" xmlns:xlink="http://www.w3.org/1999/xlink" version="1.1" viewBox="-10 0 1010 1000">
   <path fill="currentColor"
d="M408 777l-47 61c-22 -41 -75 -122 -115 -179c-26 96 -73 191 -155 267c-9 -14 -37 -41 -51 -50c114 -105 152 -244 165 -368h-149v-67h153c1 -18 1 -36 1 -53v-143h-42c-19 55 -40 105 -65 144c-12 -9 -40 -28 -56 -37c50 -76 83 -191 100 -307l66 12
c-7 42 -16 82 -26 121h192v67h-100v143c0 17 0 35 -1 53h120v67h-125c-2 24 -5 50 -10 75c36 45 124 165 145 194zM547 617v-72h70v74c0 107 -34 247 -171 341c-10 -14 -37 -39 -53 -49c130 -86 154 -204 154 -294zM755 954v-408h70v408h-70zM955 369h-162
c44 73 109 147 170 184c-16 13 -38 37 -50 55c-70 -52 -146 -148 -190 -239h-79c-45 104 -111 184 -202 244c-9 -15 -32 -45 -46 -59c75 -45 130 -107 171 -185h-142v-67h170c16 -42 29 -88 38 -137c-55 6 -110 10 -161 13c-3 -17 -12 -43 -20 -61c135 -10 301 -30 394 -59
l46 61c-51 15 -116 28 -185 36c-10 53 -21 102 -37 147h285v67z" />
</svg>
