<?xml version="1.0" standalone="no"?>
<!DOCTYPE svg PUBLIC "-//W3C//DTD SVG 1.1//EN" "http://www.w3.org/Graphics/SVG/1.1/DTD/svg11.dtd" >
<svg xmlns="http://www.w3.org/2000/svg" xmlns:xlink="http://www.w3.org/1999/xlink" version="1.1" viewBox="-10 0 1010 1000">
   <path fill="currentColor"
d="M693 701v157h264v67h-591v-67h257v-157h-206v-67h206v-115l-43 37c-16 -38 -53 -114 -82 -171c-22 77 -53 143 -95 194c-9 -10 -36 -33 -49 -43c7 -8 14 -18 21 -28h-101c-2 24 -6 49 -11 74c31 38 112 157 132 186l-49 61c-19 -39 -66 -115 -101 -169
c-28 96 -78 191 -164 267c-10 -15 -37 -41 -51 -51c120 -106 161 -244 175 -368h-136v-67h141c1 -19 1 -36 1 -53v-143h-41c-23 58 -49 110 -79 151c-12 -12 -40 -30 -56 -39c58 -76 101 -193 123 -312l67 12c-9 42 -20 82 -32 121h191v67h-104v143c0 17 0 34 -1 53h104v54
c57 -92 82 -223 94 -370l63 5c-5 62 -13 121 -24 176c24 36 82 141 107 188v-451h70v462c72 -89 102 -225 115 -381l65 6c-7 68 -16 131 -30 188c34 50 106 164 124 194l-54 48c-17 -38 -58 -110 -91 -166c-22 66 -51 122 -90 168c-8 -10 -25 -28 -39 -39v111h216v67h-216z
" />
</svg>
