<?xml version="1.0" standalone="no"?>
<!DOCTYPE svg PUBLIC "-//W3C//DTD SVG 1.1//EN" "http://www.w3.org/Graphics/SVG/1.1/DTD/svg11.dtd" >
<svg xmlns="http://www.w3.org/2000/svg" xmlns:xlink="http://www.w3.org/1999/xlink" version="1.1" viewBox="-10 0 1010 1000">
   <path fill="currentColor"
d="M344 751v-292h-149v292h149zM441 164h-193c-12 80 -28 158 -48 230h211v424h-216v84h-65v-321c-16 33 -33 62 -52 89c-8 -16 -32 -49 -46 -64c76 -106 118 -268 144 -442h-124v-68h389v68zM951 266h-381c-29 62 -62 117 -97 162c-13 -13 -44 -34 -61 -44
c71 -83 129 -212 163 -340l72 16c-14 48 -30 96 -48 141h352v65zM608 869h230c36 0 46 -17 49 -137c20 12 46 20 66 24c-8 160 -37 187 -117 187h-226c-98 0 -140 -37 -140 -96c0 -47 11 -101 279 -380h-240v-64h314l18 -3l49 22c-2 5 -6 11 -10 16
c-311 314 -334 364 -334 399c0 23 24 32 62 32z" />
</svg>
