<?xml version="1.0" standalone="no"?>
<!DOCTYPE svg PUBLIC "-//W3C//DTD SVG 1.1//EN" "http://www.w3.org/Graphics/SVG/1.1/DTD/svg11.dtd" >
<svg xmlns="http://www.w3.org/2000/svg" xmlns:xlink="http://www.w3.org/1999/xlink" version="1.1" viewBox="-10 0 1010 1000">
   <path fill="currentColor"
d="M298 450h-106v302h106v-302zM51 162v-68h337v68h-157c-11 77 -24 153 -41 223h173v432h-171v79h-65v-319c-14 33 -29 62 -47 90c-8 -16 -30 -50 -45 -65c67 -108 104 -269 124 -440h-108zM582 366h355s-1 25 -2 35c-21 349 -43 470 -78 512c-18 22 -38 30 -66 33
c-23 3 -63 2 -104 0c-1 -20 -9 -49 -19 -67c40 4 77 4 95 4c16 1 25 -2 34 -14c27 -28 48 -141 67 -435h-64c-66 233 -179 408 -343 523c-12 -12 -41 -34 -58 -44c163 -101 271 -268 331 -479h-92c-40 127 -109 237 -194 308c-11 -11 -38 -31 -54 -40
c82 -63 146 -157 182 -268h-37c-44 0 -75 4 -84 12c-5 -17 -20 -52 -30 -70c26 -4 65 -26 103 -51c34 -20 129 -87 215 -164h-316v-71h396l17 -7l55 43c-105 95 -209 177 -309 240z" />
</svg>
