<?xml version="1.0" standalone="no"?>
<!DOCTYPE svg PUBLIC "-//W3C//DTD SVG 1.1//EN" "http://www.w3.org/Graphics/SVG/1.1/DTD/svg11.dtd" >
<svg xmlns="http://www.w3.org/2000/svg" xmlns:xlink="http://www.w3.org/1999/xlink" version="1.1" viewBox="-10 0 1010 1000">
   <path fill="currentColor"
d="M312 764v-295h-120v295h120zM414 165h-153c-18 83 -39 164 -68 238h188v428h-189v81h-68v-363c-18 29 -36 57 -57 81c-5 -16 -22 -59 -35 -78c75 -94 124 -235 153 -387h-130v-69h359v69zM722 90l67 -10c30 180 80 284 185 374c-19 15 -40 40 -51 64
c-13 -13 -26 -25 -38 -38v5c-14 290 -28 394 -56 429c-17 21 -35 29 -61 31c-24 3 -67 3 -110 0c-1 -21 -7 -49 -18 -68c42 4 80 4 97 4c14 0 23 -1 32 -12c20 -23 33 -113 44 -349h-162c-21 204 -76 345 -199 438c-8 -14 -34 -43 -48 -54c114 -78 161 -206 177 -384h-106
v-42c-11 10 -23 21 -35 31c-11 -14 -40 -39 -56 -49c110 -77 171 -204 195 -370l70 6c-24 150 -73 268 -149 355h360c-74 -92 -113 -202 -138 -361z" />
</svg>
