<?xml version="1.0" standalone="no"?>
<!DOCTYPE svg PUBLIC "-//W3C//DTD SVG 1.1//EN" "http://www.w3.org/Graphics/SVG/1.1/DTD/svg11.dtd" >
<svg xmlns="http://www.w3.org/2000/svg" xmlns:xlink="http://www.w3.org/1999/xlink" version="1.1" viewBox="-10 0 1010 1000">
   <path fill="currentColor"
d="M315 764v-295h-124v295h124zM383 831h-192v80h-67v-362c-17 29 -35 57 -56 81c-5 -16 -22 -59 -34 -78c73 -94 123 -235 151 -387h-129v-69h350v69h-146c-18 83 -39 164 -68 238h191v428zM759 176h-170c-2 71 -6 140 -12 205c36 115 87 224 154 315
c50 -69 89 -153 114 -251h-165c25 -71 55 -176 79 -269zM884 376l44 19c-30 146 -83 264 -151 358c55 63 118 113 188 147c-15 13 -36 39 -47 57c-69 -36 -130 -87 -185 -150c-57 65 -123 115 -194 151c-11 -16 -36 -45 -51 -56c74 -36 143 -86 201 -152
c-50 -67 -91 -145 -126 -228c-23 175 -63 322 -139 435c-13 -11 -46 -34 -62 -44c120 -162 149 -423 158 -737h-88v-68h414c-22 86 -51 189 -76 271h101z" />
</svg>
