<?xml version="1.0" standalone="no"?>
<!DOCTYPE svg PUBLIC "-//W3C//DTD SVG 1.1//EN" "http://www.w3.org/Graphics/SVG/1.1/DTD/svg11.dtd" >
<svg xmlns="http://www.w3.org/2000/svg" xmlns:xlink="http://www.w3.org/1999/xlink" version="1.1" viewBox="-10 0 1010 1000">
   <path fill="currentColor"
d="M580 149v42c0 89 -27 196 -150 267c-9 -15 -34 -43 -48 -55c111 -61 129 -143 129 -214v-110h308v232c0 28 2 37 15 37h60c12 0 32 -2 44 -5c2 19 4 47 5 64c-10 4 -30 5 -49 5h-65c-67 0 -81 -28 -81 -103v-160h-168zM311 764v-295h-121v295h121zM378 831h-188v80h-66
v-364c-18 30 -36 58 -57 83c-4 -16 -21 -59 -34 -78c73 -94 122 -235 151 -387h-129v-69h352v69h-151c-16 83 -38 164 -65 238h187v428zM794 552h-259c30 69 73 131 129 183c54 -51 99 -112 130 -183zM843 479l48 21c-36 116 -95 209 -170 282c66 48 146 84 235 106
c-16 16 -37 46 -48 66c-93 -25 -176 -67 -245 -123c-75 57 -162 98 -254 125c-7 -19 -24 -50 -38 -65c85 -22 167 -59 237 -111c-59 -60 -106 -132 -140 -214l42 -14h-96v-70h416z" />
</svg>
