<?xml version="1.0" standalone="no"?>
<!DOCTYPE svg PUBLIC "-//W3C//DTD SVG 1.1//EN" "http://www.w3.org/Graphics/SVG/1.1/DTD/svg11.dtd" >
<svg xmlns="http://www.w3.org/2000/svg" xmlns:xlink="http://www.w3.org/1999/xlink" version="1.1" viewBox="-10 0 1010 1000">
   <path fill="currentColor"
d="M317 751v-292h-126v292h126zM422 166h-178c-12 80 -27 157 -47 228h187v424h-193v84h-65v-313c-14 28 -29 54 -46 78c-9 -15 -33 -48 -46 -64c39 -56 69 -128 92 -208v-1c20 -71 35 -148 47 -228h-123v-67h372v67zM755 227h-116c-20 144 -68 237 -200 295
c-8 -17 -27 -42 -42 -54c112 -47 155 -123 172 -241h-133v-65h141c2 -35 4 -73 5 -115h69c-1 41 -3 79 -6 115h178v221c0 19 1 28 5 32c4 3 10 3 17 3h29c9 0 19 -1 23 -3s9 -9 11 -21c2 -14 3 -43 4 -82c12 11 35 23 53 28c-2 37 -5 80 -11 96c-5 16 -14 26 -27 33
c-11 6 -31 8 -48 8h-50c-19 0 -42 -4 -55 -16c-14 -12 -19 -28 -19 -81v-153zM706 458v161h251v69h-251v268h-73v-268h-227v-69h227v-161h73z" />
</svg>
