<?xml version="1.0" standalone="no"?>
<!DOCTYPE svg PUBLIC "-//W3C//DTD SVG 1.1//EN" "http://www.w3.org/Graphics/SVG/1.1/DTD/svg11.dtd" >
<svg xmlns="http://www.w3.org/2000/svg" xmlns:xlink="http://www.w3.org/1999/xlink" version="1.1" viewBox="-10 0 1010 1000">
   <path fill="currentColor"
d="M302 468h-116v292h116v-292zM366 826h-180v83h-64v-361c-15 30 -31 56 -49 81c-6 -17 -26 -54 -39 -70c68 -96 108 -240 131 -394h-117v-69h351v69h-164c-14 83 -31 164 -55 238h186v423zM855 230h-355v117h355v-117zM925 413h-425c-2 160 -19 380 -120 541
c-12 -14 -38 -37 -54 -48c99 -154 104 -381 104 -524v-217h239c-13 -32 -32 -71 -48 -102l65 -19c21 39 47 88 60 121h179v248zM640 872h215c30 0 39 -11 42 -112c18 11 41 21 62 24c-9 135 -34 156 -107 156h-211c-90 0 -128 -32 -128 -86c0 -39 9 -86 252 -277h-226v-62
h317l15 -1l48 22c-2 5 -6 10 -10 14c-301 223 -325 266 -325 294c0 20 22 28 56 28z" />
</svg>
