<?xml version="1.0" standalone="no"?>
<!DOCTYPE svg PUBLIC "-//W3C//DTD SVG 1.1//EN" "http://www.w3.org/Graphics/SVG/1.1/DTD/svg11.dtd" >
<svg xmlns="http://www.w3.org/2000/svg" xmlns:xlink="http://www.w3.org/1999/xlink" version="1.1" viewBox="-10 0 1010 1000">
   <path fill="currentColor"
d="M293 764v-295h-115v295h115zM51 165v-69h328v69h-134c-15 83 -36 164 -62 238h174v428h-179v81h-62v-357c-16 27 -32 53 -50 76c-5 -17 -22 -59 -33 -79c70 -94 114 -235 142 -387h-124zM474 852h477v68h-544v-821h531v69h-464v684zM770 641h63c9 -1 11 -3 11 -12v-248
h-97v423h-61v-423h-95v321h-56v-384h151v-108h61v108h158v312c0 29 -5 45 -25 57c-18 10 -46 11 -91 11c-2 -17 -11 -41 -19 -57z" />
</svg>
