<?xml version="1.0" standalone="no"?>
<!DOCTYPE svg PUBLIC "-//W3C//DTD SVG 1.1//EN" "http://www.w3.org/Graphics/SVG/1.1/DTD/svg11.dtd" >
<svg xmlns="http://www.w3.org/2000/svg" xmlns:xlink="http://www.w3.org/1999/xlink" version="1.1" viewBox="-10 0 1010 1000">
   <path fill="currentColor"
d="M312 752v-302h-120v302h120zM377 818h-185v78h-65v-321c-15 33 -31 64 -50 92c-9 -16 -31 -50 -45 -65c70 -107 110 -268 132 -440h-115v-68h358v68h-171c-11 77 -25 152 -44 223h185v433zM955 153h-428v120h425v68h-246v118v23h218s0 22 -1 32c-9 283 -17 381 -42 412
c-16 20 -32 27 -59 29c-24 3 -65 3 -107 0c-2 -19 -9 -45 -19 -62c42 3 82 4 97 4s24 -1 31 -12c16 -20 25 -104 32 -336h-153c-10 134 -47 291 -157 406c-12 -13 -40 -31 -56 -39c131 -134 149 -322 149 -458v-117h-112v85c0 162 -17 384 -140 530c-12 -13 -42 -32 -58 -40
c117 -138 129 -337 129 -490v-342h497v69z" />
</svg>
