<?xml version="1.0" standalone="no"?>
<!DOCTYPE svg PUBLIC "-//W3C//DTD SVG 1.1//EN" "http://www.w3.org/Graphics/SVG/1.1/DTD/svg11.dtd" >
<svg xmlns="http://www.w3.org/2000/svg" xmlns:xlink="http://www.w3.org/1999/xlink" version="1.1" viewBox="-10 0 1010 1000">
   <path fill="currentColor"
d="M305 764v-295h-117v295h117zM369 831h-181v80h-64v-363c-17 30 -35 58 -56 82c-5 -16 -22 -59 -35 -78c74 -94 123 -235 151 -387h-129v-69h353v69h-151c-16 83 -39 163 -66 238h178v428zM757 540l54 -19c53 119 112 277 135 372l-59 24c-4 -22 -11 -48 -20 -76
c-279 43 -313 50 -335 62c-3 -16 -13 -53 -19 -75c17 -6 32 -43 53 -98c20 -50 80 -244 109 -419l65 11c-34 170 -82 351 -135 489l242 -33c-25 -78 -59 -165 -90 -238zM742 184h216v68h-440v164c0 153 -16 375 -113 525c-12 -13 -41 -34 -57 -41c93 -143 103 -342 103 -484
v-232h225c-16 -35 -36 -75 -57 -109l54 -20c25 39 54 91 69 129z" />
</svg>
