<?xml version="1.0" standalone="no"?>
<!DOCTYPE svg PUBLIC "-//W3C//DTD SVG 1.1//EN" "http://www.w3.org/Graphics/SVG/1.1/DTD/svg11.dtd" >
<svg xmlns="http://www.w3.org/2000/svg" xmlns:xlink="http://www.w3.org/1999/xlink" version="1.1" viewBox="-10 0 1010 1000">
   <path fill="currentColor"
d="M306 764v-295h-124v295h124zM54 165v-69h340v69h-148c-15 83 -36 164 -62 238h186v428h-188v80h-63v-360c-16 29 -33 56 -52 80c-5 -17 -22 -59 -34 -79c70 -94 116 -235 143 -387h-122zM856 531l72 -1v416h-72v-52h-432v-364h74v292h141v-362h-193v-323h68v256h125v-343
h73v343h118v-256h71v323h-189v362h144v-291z" />
</svg>
