<?xml version="1.0" standalone="no"?>
<!DOCTYPE svg PUBLIC "-//W3C//DTD SVG 1.1//EN" "http://www.w3.org/Graphics/SVG/1.1/DTD/svg11.dtd" >
<svg xmlns="http://www.w3.org/2000/svg" xmlns:xlink="http://www.w3.org/1999/xlink" version="1.1" viewBox="-10 0 1010 1000">
   <path fill="currentColor"
d="M328 764v-295h-143v295h143zM417 178h-173c-15 78 -35 155 -59 225h208v428h-208v80h-65v-357c-17 30 -34 59 -54 84c-5 -19 -22 -62 -34 -80c68 -93 115 -230 142 -380h-124v-69h367v69zM825 650h-276v182h276v-182zM480 947v-364h417v363h-72v-48h-276v49h-69zM572 206
l-6 11c28 59 70 111 122 157c60 -48 110 -103 146 -168h-262zM889 136l43 28c-42 100 -109 184 -189 253c68 48 149 86 236 109c-11 17 -24 47 -29 67c-97 -31 -186 -77 -261 -134c-78 55 -166 100 -255 130c-6 -20 -21 -53 -31 -69c81 -24 162 -60 232 -107
c-44 -42 -81 -87 -111 -136c-28 38 -59 73 -90 102c-9 -14 -32 -45 -47 -58c80 -70 153 -178 196 -291l68 20c-12 29 -26 60 -40 88h264z" />
</svg>
