<?xml version="1.0" standalone="no"?>
<!DOCTYPE svg PUBLIC "-//W3C//DTD SVG 1.1//EN" "http://www.w3.org/Graphics/SVG/1.1/DTD/svg11.dtd" >
<svg xmlns="http://www.w3.org/2000/svg" xmlns:xlink="http://www.w3.org/1999/xlink" version="1.1" viewBox="-10 0 1010 1000">
   <path fill="currentColor"
d="M293 764v-295h-113v295h113zM47 165v-69h339v69h-142c-15 83 -36 164 -62 238h175v428h-177v80h-63v-361c-17 29 -34 57 -53 81c-4 -17 -21 -59 -33 -79c71 -94 116 -235 143 -387h-127zM743 472h-132v201h132v-201zM799 728h-188v53h-57v-364h245v311zM819 255v63h-286
v-63h286zM926 89v774c0 42 -8 64 -34 76c-27 13 -72 14 -137 14c-2 -19 -12 -52 -22 -72c48 2 94 2 108 1c12 0 17 -4 17 -20v-704h-364v797h-68v-866h500z" />
</svg>
