<?xml version="1.0" standalone="no"?>
<!DOCTYPE svg PUBLIC "-//W3C//DTD SVG 1.1//EN" "http://www.w3.org/Graphics/SVG/1.1/DTD/svg11.dtd" >
<svg xmlns="http://www.w3.org/2000/svg" xmlns:xlink="http://www.w3.org/1999/xlink" version="1.1" viewBox="-10 0 1010 1000">
   <path fill="currentColor"
d="M300 764v-295h-118v295h118zM388 165h-142c-15 83 -36 164 -62 238h179v428h-181v80h-63v-360c-16 29 -33 56 -52 80c-5 -17 -22 -59 -34 -79c70 -94 116 -235 143 -387h-122v-69h334v69zM649 246v140h19c42 -44 80 -91 115 -140h-134zM957 453h-261
c-30 31 -62 60 -94 88v124c88 -35 179 -79 235 -118l57 50c-80 47 -190 94 -292 130v110c0 31 8 37 57 37h164c42 0 49 -17 54 -126c16 13 46 24 67 29c-10 131 -32 165 -115 165h-176c-98 0 -124 -22 -124 -105v-239c-35 26 -71 51 -108 72c-11 -16 -36 -44 -51 -58
c81 -43 158 -96 228 -159h-191v-67h173v-140h-147v-66h147v-133h69v133h142v55c29 -43 57 -89 80 -135l66 23c-50 94 -111 184 -179 263h199v67z" />
</svg>
