<?xml version="1.0" standalone="no"?>
<!DOCTYPE svg PUBLIC "-//W3C//DTD SVG 1.1//EN" "http://www.w3.org/Graphics/SVG/1.1/DTD/svg11.dtd" >
<svg xmlns="http://www.w3.org/2000/svg" xmlns:xlink="http://www.w3.org/1999/xlink" version="1.1" viewBox="-10 0 1010 1000">
   <path fill="currentColor"
d="M949 94v67h-525v-67h525zM934 540l-61 27c-23 -51 -74 -128 -129 -197c41 -60 84 -134 108 -181l64 17c-27 51 -65 113 -98 163c45 56 93 126 116 171zM681 189l66 17c-27 50 -65 112 -97 163c43 57 89 126 111 171l-62 26c-22 -52 -69 -128 -122 -196
c40 -60 83 -134 104 -181zM586 542l-62 25c-20 -52 -64 -127 -113 -197c38 -60 78 -134 99 -181l65 16c-25 51 -61 114 -93 164c42 58 84 129 104 173zM312 753v-294h-128v294h128zM397 162h-161c-12 81 -27 159 -46 232h187v425h-193v82h-64v-310c-13 27 -27 53 -43 76
c-8 -15 -31 -50 -45 -65c70 -107 110 -269 133 -440h-118v-68h350v68zM716 862h241v67h-578v-67h263v-194h-198v-66h480v66h-208v194z" />
</svg>
