<?xml version="1.0" standalone="no"?>
<!DOCTYPE svg PUBLIC "-//W3C//DTD SVG 1.1//EN" "http://www.w3.org/Graphics/SVG/1.1/DTD/svg11.dtd" >
<svg xmlns="http://www.w3.org/2000/svg" xmlns:xlink="http://www.w3.org/1999/xlink" version="1.1" viewBox="-10 0 1010 1000">
   <path fill="currentColor"
d="M941 248l-57 27c-18 -45 -58 -115 -97 -167l55 -24c39 50 82 119 99 164zM295 764v-295h-115v295h115zM866 447l65 15c-30 92 -68 178 -114 255c22 108 49 172 73 172c13 0 22 -44 25 -141c14 16 34 31 49 38c-11 126 -29 171 -84 171c-46 0 -84 -62 -111 -164
c-44 62 -95 117 -148 163c-10 -14 -34 -41 -48 -52c66 -52 126 -120 175 -199c-17 -86 -29 -189 -38 -302h-144v163l113 -31l8 64l-121 35v225c0 39 -8 58 -32 69c-23 11 -62 13 -120 13c-3 -18 -11 -47 -20 -66c41 1 78 1 89 0c12 -1 16 -4 16 -16v-207l-118 35l-19 -69
c38 -9 85 -20 137 -34v-181h-132v-67h132v-153c-37 11 -75 22 -111 31c-4 -14 -13 -34 -21 -49h-123c-15 83 -36 164 -62 238h172v428h-174v80h-63v-361c-16 29 -33 56 -52 80c-4 -19 -22 -59 -32 -78c70 -94 115 -236 142 -387h-122v-69h327v62c87 -25 183 -60 235 -96
l56 49c-31 18 -66 34 -105 49v176h139c-6 -93 -10 -191 -11 -290h68c0 101 3 199 9 290h183v67h-178c6 77 14 149 24 213c26 -53 49 -110 66 -169z" />
</svg>
