<?xml version="1.0" standalone="no"?>
<!DOCTYPE svg PUBLIC "-//W3C//DTD SVG 1.1//EN" "http://www.w3.org/Graphics/SVG/1.1/DTD/svg11.dtd" >
<svg xmlns="http://www.w3.org/2000/svg" xmlns:xlink="http://www.w3.org/1999/xlink" version="1.1" viewBox="-10 0 1010 1000">
   <path fill="currentColor"
d="M275 770v-312h-98v312h98zM50 162v-62h310v62h-134c-12 81 -26 161 -46 235h154v433h-157v82h-61v-335c-15 32 -31 61 -49 87c-6 -16 -24 -51 -36 -68c69 -106 106 -266 127 -434h-108zM447 478l56 10c-18 117 -50 228 -96 303c-8 -11 -31 -31 -44 -41
c44 -67 70 -169 84 -272zM822 495l54 -15c34 95 69 220 80 293l-58 19c-10 -75 -42 -201 -76 -297zM702 358h255v64h-164v453c0 38 -8 54 -32 65c-26 10 -67 11 -135 11c-3 -18 -12 -42 -20 -59c50 1 95 1 108 1c13 -1 18 -5 18 -18v-453h-121v127c0 133 -16 284 -148 398
c-10 -16 -31 -38 -46 -50c119 -101 133 -234 133 -348v-127h-170v-64h261v-126h-206v-64h206v-119h61v119h207v64h-207v126z" />
</svg>
