<?xml version="1.0" standalone="no"?>
<!DOCTYPE svg PUBLIC "-//W3C//DTD SVG 1.1//EN" "http://www.w3.org/Graphics/SVG/1.1/DTD/svg11.dtd" >
<svg xmlns="http://www.w3.org/2000/svg" xmlns:xlink="http://www.w3.org/1999/xlink" version="1.1" viewBox="-10 0 1010 1000">
   <path fill="currentColor"
d="M794 76l58 -11c24 154 56 262 119 359c-18 12 -38 34 -49 54c-71 -112 -104 -235 -128 -402zM687 80l60 9c-17 150 -50 291 -104 385c-12 -10 -38 -30 -52 -38c53 -85 81 -217 96 -356zM272 764v-295h-103v295h103zM351 165h-122c-14 83 -34 164 -57 238h157v428h-160v80
h-56v-362c-15 29 -31 58 -49 82c-4 -17 -21 -59 -30 -79c65 -94 107 -235 132 -387h-114v-69h299v69zM628 552l-38 55c-12 -31 -41 -88 -65 -135v484h-65v-475c-25 86 -59 168 -94 220c-7 -20 -22 -48 -34 -64c48 -68 97 -198 120 -309h-109v-69h117v-206h65v206h82v69h-82
v55c24 34 88 143 103 169zM814 634l53 -17c43 97 83 224 95 301l-58 21c-3 -21 -7 -44 -13 -71c-221 31 -251 37 -270 47c-4 -14 -15 -49 -23 -66c17 -5 31 -38 48 -84c17 -43 70 -212 93 -364l66 18c-26 141 -70 294 -117 412l187 -24c-17 -58 -38 -120 -61 -173z" />
</svg>
