<?xml version="1.0" standalone="no"?>
<!DOCTYPE svg PUBLIC "-//W3C//DTD SVG 1.1//EN" "http://www.w3.org/Graphics/SVG/1.1/DTD/svg11.dtd" >
<svg xmlns="http://www.w3.org/2000/svg" xmlns:xlink="http://www.w3.org/1999/xlink" version="1.1" viewBox="-10 0 1010 1000">
   <path fill="currentColor"
d="M294 764v-295h-113v295h113zM54 165v-69h328v69h-139c-15 83 -35 164 -60 238h175v428h-177v80h-63v-359c-16 28 -32 55 -51 79c-4 -17 -22 -59 -33 -79c69 -94 113 -235 140 -387h-120zM540 717h279v-73h-279v73zM819 521h-279v70h279v-70zM891 464v414
c0 36 -8 54 -35 64c-26 11 -69 11 -131 11c-4 -18 -14 -43 -24 -61c47 2 88 1 101 1c13 -1 17 -4 17 -16v-107h-279v185h-71v-491h422zM708 348h247v57h-563v-57h243v-65h-191v-55h191v-60h-217v-57h217v-68h73v68h224v57h-224v60h209v55h-209v65z" />
</svg>
