<?xml version="1.0" standalone="no"?>
<!DOCTYPE svg PUBLIC "-//W3C//DTD SVG 1.1//EN" "http://www.w3.org/Graphics/SVG/1.1/DTD/svg11.dtd" >
<svg xmlns="http://www.w3.org/2000/svg" xmlns:xlink="http://www.w3.org/1999/xlink" version="1.1" viewBox="-10 0 1010 1000">
   <path fill="currentColor"
d="M601 185h-175v80h175v-80zM765 320h-243c31 39 75 72 127 100c47 -27 86 -60 116 -100zM452 320h-28c-8 84 -38 176 -122 241c-11 -12 -39 -33 -55 -41c97 -73 112 -173 112 -255v-135h242v-88h70v88h205l11 -3l47 13c-13 41 -30 88 -48 120l-56 -17c8 -16 16 -37 23 -58
h-182v80h135l12 -3l44 19c-33 72 -84 127 -147 169c70 28 151 47 238 56c-14 14 -32 41 -39 58c-98 -14 -187 -40 -263 -77c-75 37 -162 61 -253 77c-7 -16 -21 -41 -33 -55c79 -11 155 -30 222 -58c-56 -36 -101 -80 -135 -131zM120 563l-47 -51c51 -44 122 -118 184 -187
l39 46c-56 65 -119 134 -176 192zM294 118l-31 55c-34 -23 -101 -54 -155 -70l29 -50c54 14 122 42 157 65zM228 255l-29 54c-35 -21 -103 -46 -157 -59l28 -50c53 11 121 34 158 55zM773 867v-96h-444v96h444zM68 646v-57h862v57h-532c-19 24 -40 47 -63 69h516v237h-78
v-30h-444v35h-75v-175c-54 39 -113 72 -171 98c-7 -14 -29 -42 -43 -55c104 -40 208 -102 277 -179h-249z" />
</svg>
