<?xml version="1.0" standalone="no"?>
<!DOCTYPE svg PUBLIC "-//W3C//DTD SVG 1.1//EN" "http://www.w3.org/Graphics/SVG/1.1/DTD/svg11.dtd" >
<svg xmlns="http://www.w3.org/2000/svg" xmlns:xlink="http://www.w3.org/1999/xlink" version="1.1" viewBox="-10 0 1010 1000">
   <path fill="currentColor"
d="M292 764v-295h-110v295h110zM54 165v-69h326v69h-134c-15 83 -36 164 -62 238h172v428h-174v80h-63v-360c-16 29 -33 56 -52 80c-5 -17 -22 -59 -34 -79c70 -94 116 -235 143 -387h-122zM500 465h98c16 -35 26 -70 32 -103h-130v103zM500 203v102h135c1 -10 1 -19 1 -27
v-75h-136zM841 305v-102h-137v76v26h137zM841 465v-103h-142c-5 33 -13 68 -27 103h169zM950 689v66h-183v202h-71v-202h-315v-66h85c-11 -14 -36 -33 -52 -44c66 -36 113 -77 146 -119h-128v-384h156c11 -32 23 -70 28 -98l84 10c-12 29 -26 61 -38 88h250v384h-269
c-35 59 -88 114 -172 163h225v-154h71v154h183z" />
</svg>
