<?xml version="1.0" standalone="no"?>
<!DOCTYPE svg PUBLIC "-//W3C//DTD SVG 1.1//EN" "http://www.w3.org/Graphics/SVG/1.1/DTD/svg11.dtd" >
<svg xmlns="http://www.w3.org/2000/svg" xmlns:xlink="http://www.w3.org/1999/xlink" version="1.1" viewBox="-10 0 1010 1000">
   <path fill="currentColor"
d="M296 764v-295h-114v295h114zM383 165h-137c-16 83 -37 164 -62 238h175v428h-177v80h-63v-360c-16 30 -33 56 -52 81c-4 -18 -22 -60 -32 -80c69 -94 115 -235 142 -387h-122v-69h328v69zM760 662h83v-136h-83v136zM619 662h82v-136h-82v136zM482 662h79v-136h-79v136z
M907 463v410c0 30 -4 48 -24 60c-17 11 -43 13 -81 12c-2 -18 -12 -44 -21 -62h53c7 0 9 -2 9 -11v-148h-83v215h-59v-215h-82v215h-58v-215h-79v232h-64v-493h489zM517 315h298c-54 -50 -106 -103 -157 -165c-42 59 -90 116 -141 165zM657 37l56 24c-5 12 -12 24 -20 34
c84 101 181 183 281 252c-18 15 -41 39 -53 58c-29 -23 -58 -48 -86 -72v44h-337v-44c-30 28 -63 54 -93 76c-11 -17 -31 -39 -50 -54c113 -72 234 -197 302 -318z" />
</svg>
