<?xml version="1.0" standalone="no"?>
<!DOCTYPE svg PUBLIC "-//W3C//DTD SVG 1.1//EN" "http://www.w3.org/Graphics/SVG/1.1/DTD/svg11.dtd" >
<svg xmlns="http://www.w3.org/2000/svg" xmlns:xlink="http://www.w3.org/1999/xlink" version="1.1" viewBox="-10 0 1010 1000">
   <path fill="currentColor"
d="M817 212v-77h-287v77h287zM817 344v-79h-287v79h287zM889 79v320h-427v-320h427zM289 764v-295h-115v295h115zM376 165h-142c-15 83 -34 164 -59 238h175v428h-176v80h-60v-361c-16 29 -32 57 -50 81c-6 -17 -22 -59 -33 -79c67 -94 111 -235 137 -387h-115v-69h323v69z
M954 525h-373c-10 24 -22 48 -35 71h383s-1 21 -2 31c-11 199 -23 276 -46 303c-14 17 -30 24 -52 26c-19 2 -52 2 -86 0c-1 -20 -7 -47 -17 -65c32 3 61 4 73 4c13 0 20 -1 27 -10c14 -16 25 -76 34 -228h-64c-36 123 -98 231 -172 303c-11 -12 -34 -35 -49 -46
c69 -60 124 -152 157 -257h-78c-50 115 -131 215 -215 282c-10 -12 -33 -36 -46 -48c78 -55 149 -139 195 -234h-79c-32 47 -68 87 -106 119c-10 -11 -36 -36 -51 -48c64 -48 121 -122 157 -203h-112v-62h557v62z" />
</svg>
