<?xml version="1.0" standalone="no"?>
<!DOCTYPE svg PUBLIC "-//W3C//DTD SVG 1.1//EN" "http://www.w3.org/Graphics/SVG/1.1/DTD/svg11.dtd" >
<svg xmlns="http://www.w3.org/2000/svg" xmlns:xlink="http://www.w3.org/1999/xlink" version="1.1" viewBox="-10 0 1010 1000">
   <path fill="currentColor"
d="M920 76v202h-494v-202h64v139h149v-171h67v171h148v-139h66zM290 760v-292h-109v292h109zM387 170h-156c-13 81 -28 160 -48 232h172v423h-174v83h-62v-328c-13 26 -26 51 -42 73c-8 -15 -30 -48 -42 -63c67 -101 105 -257 127 -420h-117v-66h342v66zM957 422h-404
c-16 213 -52 384 -140 507c-10 -13 -39 -36 -54 -46c83 -106 114 -268 128 -461h-108v-64h111c1 -20 2 -40 3 -61l68 4l-3 57h399v64zM852 717l-45 -19c23 -50 52 -128 66 -182l58 21c-26 60 -53 132 -79 180zM593 727l-48 -25c27 -45 45 -119 52 -182l51 8
c-8 65 -25 148 -55 199zM712 441h63c-2 69 -6 132 -14 187c31 129 96 229 209 270c-15 12 -33 36 -41 52c-91 -39 -153 -114 -191 -214c-33 102 -96 174 -216 221c-6 -16 -25 -39 -39 -51c198 -74 222 -215 229 -465z" />
</svg>
