<?xml version="1.0" standalone="no"?>
<!DOCTYPE svg PUBLIC "-//W3C//DTD SVG 1.1//EN" "http://www.w3.org/Graphics/SVG/1.1/DTD/svg11.dtd" >
<svg xmlns="http://www.w3.org/2000/svg" xmlns:xlink="http://www.w3.org/1999/xlink" version="1.1" viewBox="-10 0 1010 1000">
   <path fill="currentColor"
d="M883 162h-81c-12 171 -51 290 -143 374c-9 -11 -37 -34 -52 -43c89 -70 122 -180 131 -331h-87v-64h300v31c-9 249 -17 337 -38 365c-14 19 -28 25 -50 28c-18 3 -48 3 -80 1c-1 -20 -7 -47 -16 -64c29 3 54 3 64 3c12 0 19 -1 25 -11c13 -19 21 -90 27 -289zM475 559
v-106h-108v-58h108v-80h-86v-57h86v-75h-100v-57h100v-81h64v81h99v57h-99v75h87v57h-87v80h94v58h-94v106h-64zM274 770v-312h-93v312h93zM348 162h-120c-12 81 -27 161 -46 235h148v433h-149v81h-58v-344c-16 36 -33 68 -53 97c-6 -16 -22 -52 -34 -68
c68 -106 106 -264 128 -434h-108v-62h292v62zM951 693h-245c40 106 122 173 260 198c-16 15 -36 44 -45 64c-136 -32 -219 -104 -266 -217c-40 104 -118 176 -279 221c-6 -17 -26 -45 -39 -59c159 -41 226 -107 258 -207h-234v-65h249c4 -23 7 -48 9 -73h72
c-2 25 -5 50 -9 73h269v65z" />
</svg>
