<?xml version="1.0" standalone="no"?>
<!DOCTYPE svg PUBLIC "-//W3C//DTD SVG 1.1//EN" "http://www.w3.org/Graphics/SVG/1.1/DTD/svg11.dtd" >
<svg xmlns="http://www.w3.org/2000/svg" xmlns:xlink="http://www.w3.org/1999/xlink" version="1.1" viewBox="-10 0 1010 1000">
   <path fill="currentColor"
d="M706 497v-224h-170v-61h113c-10 -40 -39 -99 -70 -142l52 -20c33 43 62 101 73 140l-53 22h112c22 -47 50 -115 64 -162l67 15c-23 49 -48 104 -72 147h114v61h-170v225v31l77 -2v-191h56v287h-56v-39l-81 3c-9 101 -40 191 -138 260c-9 -13 -29 -36 -43 -46
c82 -58 110 -130 120 -212l-129 5v-10h-1v-248h56v198l78 -2c1 -12 1 -23 1 -35zM507 284l-54 27c-14 -54 -47 -138 -75 -201l51 -23c30 63 62 145 78 197zM258 761v-303h-89v303h89zM336 162h-122c-11 81 -24 161 -43 235h142v424h-144v82h-57v-331c-15 33 -30 63 -48 91
c-5 -16 -23 -50 -33 -67c65 -106 101 -265 122 -434h-105v-62h288v62zM498 392v402c16 10 32 27 57 44c46 32 104 42 181 42c63 0 167 -5 232 -14c-6 17 -15 50 -16 70c-52 3 -159 7 -218 7c-82 0 -141 -13 -191 -48c-31 -24 -56 -51 -75 -51c-25 0 -64 52 -100 110l-40 -60
c37 -46 75 -84 109 -101v-343h-77v-58h138z" />
</svg>
