<?xml version="1.0" standalone="no"?>
<!DOCTYPE svg PUBLIC "-//W3C//DTD SVG 1.1//EN" "http://www.w3.org/Graphics/SVG/1.1/DTD/svg11.dtd" >
<svg xmlns="http://www.w3.org/2000/svg" xmlns:xlink="http://www.w3.org/1999/xlink" version="1.1" viewBox="-10 0 1010 1000">
   <path fill="currentColor"
d="M804 372l-39 41c-23 -23 -54 -49 -91 -76c-39 30 -79 56 -118 77c-8 -11 -27 -35 -38 -44c37 -18 76 -40 111 -65c-36 -25 -74 -50 -110 -69l38 -36c37 20 77 46 116 71c27 -22 50 -46 69 -70l51 18c-20 29 -47 57 -76 82c35 26 65 50 87 71zM842 435v-248h-356v248h356z
M911 128v366h-492v-366h179c12 -28 24 -61 31 -84l81 12c-13 25 -26 49 -39 72h240zM300 764v-295h-119v295h119zM54 165v-69h331v69h-140c-16 83 -37 164 -62 238h180v428h-182v80h-62v-362c-17 29 -34 58 -53 82c-4 -18 -21 -59 -33 -79c70 -94 115 -235 142 -387h-121z
M493 533v100h159v61h-159v160l152 -50c0 19 3 46 6 61c-184 68 -210 81 -226 93c-6 -18 -23 -50 -35 -64c15 -11 36 -36 36 -78v-283h67zM788 868h94c21 0 25 -10 28 -75c14 11 41 21 61 26c-8 89 -28 114 -83 114h-108c-73 0 -91 -21 -91 -93v-307h68v139
c53 -30 107 -66 138 -99l53 47c-54 42 -126 83 -191 114v106c0 24 5 28 31 28z" />
</svg>
