<?xml version="1.0" standalone="no"?>
<!DOCTYPE svg PUBLIC "-//W3C//DTD SVG 1.1//EN" "http://www.w3.org/Graphics/SVG/1.1/DTD/svg11.dtd" >
<svg xmlns="http://www.w3.org/2000/svg" xmlns:xlink="http://www.w3.org/1999/xlink" version="1.1" viewBox="-10 0 1010 1000">
   <path fill="currentColor"
d="M293 764v-295h-111v295h111zM751 862h203v65h-500v-65h227v-165h-122c-42 72 -94 134 -156 186c-13 -12 -45 -35 -63 -44l10 -8h-168v80h-63v-369c-17 30 -34 59 -54 84c-4 -17 -20 -57 -31 -74c69 -94 115 -235 142 -387h-122v-69h333v69h-144c-16 83 -37 163 -63 238
h177v423c88 -72 152 -165 198 -281h-150v-65h173c9 -26 17 -55 24 -83h-158v-63h172c6 -26 11 -54 16 -82h-221v-65h155c-11 -33 -38 -80 -63 -114l60 -23c29 36 58 84 71 117l-46 20h137c25 -42 54 -102 70 -145l73 19c-22 43 -47 89 -71 126h135v65h-227
c-5 28 -10 56 -16 82h209v63h-224c-6 28 -14 57 -23 83h294v65h-316c-12 30 -23 60 -37 88h313v64h-154v165z" />
</svg>
