<?xml version="1.0" standalone="no"?>
<!DOCTYPE svg PUBLIC "-//W3C//DTD SVG 1.1//EN" "http://www.w3.org/Graphics/SVG/1.1/DTD/svg11.dtd" >
<svg xmlns="http://www.w3.org/2000/svg" xmlns:xlink="http://www.w3.org/1999/xlink" version="1.1" viewBox="-10 0 1010 1000">
   <path fill="currentColor"
d="M472 206v90h-68v-149h252c-17 -29 -40 -63 -63 -88l61 -25c33 34 65 79 81 113h216v147h-70v-88h-409zM300 764v-295h-115v295h115zM55 165v-69h329v69h-134c-16 83 -37 164 -64 238h177v428h-178v80h-63v-365c-17 30 -35 59 -56 85c-4 -17 -21 -61 -33 -79
c72 -94 119 -235 148 -387h-126zM817 865v-142h-290v142h290zM956 599h-248v65h182v289h-73v-29h-290v32h-72v-292h181v-65h-235v-59h235v-63h-185v-55h185v-61h-195v-54h195v-82h72v82h206v54h-206v61h194v55h-194v63h248v59z" />
</svg>
