<?xml version="1.0" standalone="no"?>
<!DOCTYPE svg PUBLIC "-//W3C//DTD SVG 1.1//EN" "http://www.w3.org/Graphics/SVG/1.1/DTD/svg11.dtd" >
<svg xmlns="http://www.w3.org/2000/svg" xmlns:xlink="http://www.w3.org/1999/xlink" version="1.1" viewBox="-10 0 1010 1000">
   <path fill="currentColor"
d="M875 48l39 58c-127 36 -328 59 -492 68c-2 -17 -10 -43 -17 -58c163 -12 360 -36 470 -68zM819 319l-51 -20c23 -40 54 -106 70 -151l59 22c-25 53 -55 111 -78 149zM714 287l-59 25c-8 -34 -28 -89 -49 -130l56 -21c22 39 44 92 52 126zM545 302l-58 26
c-8 -35 -31 -88 -53 -128l56 -21c23 38 47 90 55 123zM295 764v-295h-118v295h118zM357 831h-180v80h-61v-358c-16 28 -32 55 -50 78c-5 -17 -22 -59 -33 -79c69 -94 113 -235 140 -387h-119v-69h326v69h-140c-15 83 -35 164 -60 238h177v428zM952 750h-233
c42 80 124 128 248 144c-15 14 -32 42 -40 61c-130 -24 -213 -81 -261 -178c-41 92 -119 148 -282 181c-6 -17 -21 -43 -33 -57c150 -28 219 -74 254 -151h-217v-62h235c5 -23 8 -47 11 -74c-168 17 -194 21 -214 29v-1c-3 -14 -11 -46 -18 -64c23 -3 50 -16 86 -38
c15 -9 43 -26 76 -50c-90 5 -109 8 -122 13c-3 -14 -13 -46 -20 -63c15 -2 31 -12 48 -25c19 -13 82 -66 124 -122l56 33c-37 39 -77 78 -117 107l112 -3c34 -27 71 -58 103 -89l47 41c-77 69 -161 131 -244 181l272 -22c-20 -27 -42 -54 -62 -77l49 -29
c50 53 106 127 129 178l-52 33c-7 -16 -16 -33 -28 -52l-192 18h35c-3 27 -6 52 -10 76h260v62z" />
</svg>
