<?xml version="1.0" standalone="no"?>
<!DOCTYPE svg PUBLIC "-//W3C//DTD SVG 1.1//EN" "http://www.w3.org/Graphics/SVG/1.1/DTD/svg11.dtd" >
<svg xmlns="http://www.w3.org/2000/svg" xmlns:xlink="http://www.w3.org/1999/xlink" version="1.1" viewBox="-10 0 1010 1000">
   <path fill="currentColor"
d="M887 55l46 56c-132 35 -339 57 -510 67c-2 -17 -11 -42 -18 -57c168 -13 369 -36 482 -66zM826 389l-56 -24c29 -52 65 -138 84 -198l73 25c-33 68 -69 146 -101 197zM712 333l-64 18c-5 -39 -23 -106 -40 -157l60 -13c19 49 38 114 44 152zM539 343l-63 21
c-8 -40 -31 -101 -56 -148l60 -17c26 45 51 106 59 144zM296 764v-295h-114v295h114zM388 165h-142c-15 83 -36 164 -62 238h175v428h-177v80h-63v-360c-16 30 -33 56 -52 81c-5 -18 -22 -60 -34 -80c70 -94 116 -235 143 -387h-122v-69h334v69zM703 667v181h142v-139h68
v245h-68v-43h-419v-203h68v140h139v-181h-255v-64h255v-110h-126c-23 33 -48 63 -72 86c-13 -10 -41 -30 -58 -40c51 -45 98 -110 127 -176l66 20c-6 16 -15 31 -24 47h372v63h-215v110h252v64h-252z" />
</svg>
