<?xml version="1.0" standalone="no"?>
<!DOCTYPE svg PUBLIC "-//W3C//DTD SVG 1.1//EN" "http://www.w3.org/Graphics/SVG/1.1/DTD/svg11.dtd" >
<svg xmlns="http://www.w3.org/2000/svg" xmlns:xlink="http://www.w3.org/1999/xlink" version="1.1" viewBox="-10 0 1010 1000">
   <path fill="currentColor"
d="M184 197v242c0 152 -12 372 -93 520c-12 -12 -43 -34 -59 -42c74 -139 81 -335 81 -478v-308h401c-7 -24 -15 -49 -24 -70l74 -15c12 26 25 59 33 85h346v66h-759zM433 530h-61v-141c-39 46 -88 89 -133 115c-9 -14 -27 -34 -39 -44c53 -25 111 -73 150 -123h-124v-55
h146v-63h61v63h122v55h-114c32 21 101 67 119 80l-39 48c-17 -17 -55 -49 -88 -76v141zM814 868v-114h-380v114h380zM217 610v-61h729v61h-421c-21 30 -49 60 -78 88h440v257h-73v-30h-380v31h-72v-189c-46 33 -97 61 -147 83c-9 -15 -30 -39 -43 -52
c103 -42 205 -113 267 -188h-222zM941 336h-131c40 46 101 93 151 118c-13 11 -33 31 -43 46c-42 -26 -90 -70 -130 -115v145h-61v-144c-39 48 -90 92 -135 118c-9 -14 -26 -34 -39 -44c54 -25 112 -74 152 -124h-108v-55h130v-63h61v63h153v55z" />
</svg>
