<?xml version="1.0" standalone="no"?>
<!DOCTYPE svg PUBLIC "-//W3C//DTD SVG 1.1//EN" "http://www.w3.org/Graphics/SVG/1.1/DTD/svg11.dtd" >
<svg xmlns="http://www.w3.org/2000/svg" xmlns:xlink="http://www.w3.org/1999/xlink" version="1.1" viewBox="-10 0 1010 1000">
   <path fill="currentColor"
d="M940 158l-48 30c-18 -29 -55 -76 -87 -108l47 -26c32 31 71 74 88 104zM278 763v-296h-98v296h98zM341 826h-161v83h-62v-325c-15 33 -31 63 -50 90c-8 -15 -28 -47 -42 -61c70 -107 111 -269 134 -441h-116v-64h325v64h-143c-11 80 -26 159 -45 231h160v423zM492 620
l48 8c-14 77 -39 157 -69 210c-9 -6 -31 -19 -44 -25c33 -51 53 -122 65 -193zM728 564h-108v318c0 28 -4 43 -24 52c-18 10 -47 10 -88 10c-2 -16 -8 -37 -15 -53c29 1 54 1 62 1s11 -3 11 -11v-317h-101v-55h92v-227h55v93h85v54h-85v80h116v55zM729 759l-44 16
c-7 -38 -26 -99 -47 -146l42 -13c22 46 42 106 49 143zM886 367l59 9c-26 139 -63 263 -115 368c18 96 40 151 66 151c14 0 22 -37 25 -127c14 14 33 27 48 34c-10 115 -28 155 -81 155c-44 0 -77 -50 -101 -136c-28 44 -60 84 -95 119c-10 -12 -35 -33 -48 -43
c49 -44 89 -99 123 -162c-21 -122 -33 -287 -39 -472h-282v216c0 140 -13 340 -90 474c-11 -10 -38 -29 -52 -34c74 -130 81 -309 81 -441v-277h341c-1 -51 -2 -103 -2 -156h63c0 54 0 106 1 156h169v62h-168c4 143 13 271 25 371c32 -80 55 -170 72 -267z" />
</svg>
