<?xml version="1.0" standalone="no"?>
<!DOCTYPE svg PUBLIC "-//W3C//DTD SVG 1.1//EN" "http://www.w3.org/Graphics/SVG/1.1/DTD/svg11.dtd" >
<svg xmlns="http://www.w3.org/2000/svg" xmlns:xlink="http://www.w3.org/1999/xlink" version="1.1" viewBox="-10 0 1010 1000">
   <path fill="currentColor"
d="M768 551h-64v-155c-38 63 -92 124 -142 159c-10 -15 -29 -36 -42 -47c53 -29 111 -88 148 -147h-97v-51h133v-60c-37 5 -74 9 -108 11c-3 -11 -11 -31 -18 -43c92 -8 201 -25 257 -48l49 39c-32 12 -73 23 -116 31v70h165v51h-130c37 59 95 114 157 142
c-15 11 -35 33 -44 50c-57 -34 -111 -93 -148 -156v154zM424 551h-63v-130c-33 53 -74 102 -114 132c-10 -15 -29 -37 -43 -47c50 -30 101 -87 136 -145h-108v-51h129v-57c-37 5 -74 10 -109 13c-3 -11 -11 -31 -18 -43c87 -10 190 -27 241 -51l49 39c-28 12 -63 21 -100 30
v69h116v51h-116v10c27 19 95 67 112 82l-38 48c-15 -16 -46 -45 -74 -69v119zM196 153v246c0 158 -12 387 -100 541c-13 -14 -42 -35 -60 -43c84 -145 91 -348 91 -497v-311h814v64h-745zM796 867v-106h-369v106h369zM216 633v-56h729v56h-456c-15 24 -31 48 -49 71h427v250
h-71v-31h-369v33h-68v-165c-44 41 -93 77 -144 105c-8 -14 -25 -39 -37 -50c93 -51 182 -131 236 -213h-198z" />
</svg>
