<?xml version="1.0" standalone="no"?>
<!DOCTYPE svg PUBLIC "-//W3C//DTD SVG 1.1//EN" "http://www.w3.org/Graphics/SVG/1.1/DTD/svg11.dtd" >
<svg xmlns="http://www.w3.org/2000/svg" xmlns:xlink="http://www.w3.org/1999/xlink" version="1.1" viewBox="-10 0 1010 1000">
   <path fill="currentColor"
d="M764 460v-157c-28 53 -64 101 -102 133c-7 -14 -23 -38 -36 -50c50 -37 98 -109 126 -180h-89v-62h101v-100h64v100h124v62h-107c35 42 104 130 121 156l-46 52c-17 -33 -59 -102 -92 -152v198h-64zM483 460v-174c-29 54 -67 106 -102 141c-8 -16 -24 -41 -37 -52
c43 -38 90 -104 119 -169h-97v-61h117v-101h63v101h95v61h-95v11c22 22 84 90 98 108l-41 48c-11 -20 -35 -54 -57 -85v172h-63zM281 762v-291h-108v291h108zM337 832h-164v79h-59v-367c-17 30 -35 60 -55 85c-4 -18 -20 -59 -32 -79c68 -93 114 -233 141 -383h-115v-72h298
v72h-113c-16 81 -37 161 -62 234h161v431zM691 737v129c20 2 42 3 65 3c25 0 174 0 209 -1c-11 16 -21 48 -24 67h-188c-137 0 -228 -28 -287 -141c-20 66 -52 123 -106 163l-53 -48c86 -62 115 -178 127 -305l65 11c-3 29 -6 57 -11 85c27 85 71 129 131 151v-293h-251v-65
h517l12 -4l49 17c-17 50 -39 106 -58 143l-59 -22c9 -19 19 -44 27 -69h-165v115h227v64h-227z" />
</svg>
