<?xml version="1.0" standalone="no"?>
<!DOCTYPE svg PUBLIC "-//W3C//DTD SVG 1.1//EN" "http://www.w3.org/Graphics/SVG/1.1/DTD/svg11.dtd" >
<svg xmlns="http://www.w3.org/2000/svg" xmlns:xlink="http://www.w3.org/1999/xlink" version="1.1" viewBox="-10 0 1010 1000">
   <path fill="currentColor"
d="M455 186v86h-65v-140h240c-8 -25 -18 -54 -27 -77l66 -13c12 27 25 63 34 90h230v140h-67v-86h-411zM527 310l55 17c-40 43 -105 88 -161 115c-9 -10 -30 -32 -42 -42c54 -24 113 -56 148 -90zM277 770v-312h-102v312h102zM356 164h-136c-11 81 -26 160 -44 233h161v433
h-162v81h-59v-337c-15 33 -31 64 -50 93c-5 -17 -24 -54 -35 -71c66 -105 103 -265 123 -432h-104v-64h306v64zM814 565v-49h-301v49h301zM814 661v-50h-301v50h301zM814 758v-51h-301v51h301zM447 806v-293c-22 5 -43 10 -65 14c-8 -14 -25 -42 -37 -55
c94 -14 194 -36 281 -65v-117h-137v-51h345v51h-145v93c53 -22 99 -49 132 -78l58 23c-63 60 -159 105 -262 140h266v338h-436zM588 806l55 47c-75 38 -173 77 -245 104c-8 -13 -21 -37 -32 -53c68 -24 169 -66 222 -98zM706 853l27 -47c79 34 165 73 220 102l-32 52
c-54 -30 -138 -72 -215 -107z" />
</svg>
