<?xml version="1.0" standalone="no"?>
<!DOCTYPE svg PUBLIC "-//W3C//DTD SVG 1.1//EN" "http://www.w3.org/Graphics/SVG/1.1/DTD/svg11.dtd" >
<svg xmlns="http://www.w3.org/2000/svg" xmlns:xlink="http://www.w3.org/1999/xlink" version="1.1" viewBox="-10 0 1010 1000">
   <path fill="currentColor"
d="M268 770v-312h-97v312h97zM324 830h-153v81h-58v-337c-15 34 -30 63 -48 90c-5 -16 -23 -51 -34 -68c65 -106 102 -266 122 -434h-104v-62h311v62h-142c-12 81 -26 161 -45 235h151v433zM374 953l-56 -29c40 -44 75 -117 96 -173l55 25c-23 58 -55 131 -95 177zM533 777
l55 -10c16 54 29 124 32 170l-58 11c-3 -46 -15 -117 -29 -171zM837 200v-67h-368v67h368zM837 320v-69h-368v69h368zM904 80v293h-499v-293h499zM546 599l39 -16c26 45 49 105 58 145l-43 19c-3 -14 -7 -29 -13 -47c-156 18 -185 23 -202 30c-3 -10 -13 -36 -20 -49
c16 -1 34 -17 56 -40c12 -11 39 -43 70 -82c-78 6 -99 10 -111 14c-4 -11 -13 -35 -20 -46c13 -2 23 -11 35 -26c13 -15 55 -72 77 -128l54 25c-21 39 -46 78 -73 111l75 -4c11 -19 24 -38 34 -58l53 30c-41 64 -92 130 -145 184l100 -9c-7 -19 -16 -37 -24 -53zM947 729
l-43 21c-4 -14 -9 -31 -17 -50c-171 20 -200 26 -218 33c-3 -11 -12 -36 -20 -48c17 -3 34 -18 56 -42c11 -10 37 -41 65 -78c-76 6 -96 10 -108 14c-3 -10 -13 -35 -20 -46c13 -2 23 -11 35 -26c13 -14 54 -70 76 -125l55 24c-21 38 -46 77 -72 109l72 -4
c13 -21 26 -42 37 -64l53 30c-40 64 -91 131 -143 186l112 -11c-8 -17 -17 -33 -26 -49l40 -19c29 45 55 105 66 145zM663 780l52 -18c28 51 55 120 67 164l-56 20c-10 -45 -37 -114 -63 -166zM797 769l52 -23c41 57 84 134 103 185l-56 26c-17 -52 -59 -130 -99 -188z" />
</svg>
