<?xml version="1.0" standalone="no"?>
<!DOCTYPE svg PUBLIC "-//W3C//DTD SVG 1.1//EN" "http://www.w3.org/Graphics/SVG/1.1/DTD/svg11.dtd" >
<svg xmlns="http://www.w3.org/2000/svg" xmlns:xlink="http://www.w3.org/1999/xlink" version="1.1" viewBox="-10 0 1010 1000">
   <path fill="currentColor"
d="M379 636c-3 -13 -13 -42 -20 -59c18 -3 36 -20 58 -46c13 -14 41 -48 73 -92c-84 9 -103 14 -115 19c-3 -14 -13 -44 -21 -59c14 -2 27 -13 40 -30c13 -16 58 -81 84 -146l59 27c-27 49 -60 99 -92 139l83 -6c16 -24 30 -49 43 -73l54 31c-48 78 -106 157 -164 220
l103 -14c-5 -21 -10 -41 -15 -60l52 -10c15 53 32 123 38 162l-56 15c-2 -16 -5 -36 -9 -57c-155 25 -181 31 -195 39zM738 762l-49 35c-25 -31 -75 -76 -119 -105l46 -32c45 29 97 71 122 102zM940 625l-51 21c-5 -15 -11 -34 -18 -53c-169 22 -197 27 -212 36
c-3 -13 -12 -42 -19 -59c16 -3 34 -19 56 -44c12 -14 41 -48 71 -92c-88 8 -109 13 -120 18v-1c-3 -13 -13 -43 -20 -57c13 -3 26 -13 38 -30c14 -15 60 -78 86 -140l56 24c-27 50 -59 99 -92 138l87 -6c13 -20 26 -42 37 -63l54 31c-46 75 -100 150 -157 210l116 -13
c-9 -22 -18 -44 -27 -64l50 -15c25 52 52 120 65 159zM936 156l-1 64h-582v-65h164c-14 -25 -34 -55 -52 -78l57 -30c23 31 50 69 64 93l-27 15l141 1c21 -35 45 -80 58 -112l67 22c-18 30 -36 62 -54 90h165zM259 770v-312h-86v312h86zM339 166h-121
c-12 80 -26 159 -45 231h146v433h-146v82h-59v-339c-15 33 -31 64 -49 92c-5 -17 -23 -52 -34 -69c65 -105 101 -263 122 -430h-104v-66h290v66zM380 919l-53 -33c31 -46 57 -123 69 -181l55 21c-14 61 -39 141 -71 193zM580 890h144c32 0 38 -10 41 -87c14 11 39 20 58 24
c-7 96 -26 120 -92 120h-157c-85 0 -106 -17 -106 -84v-157h64v157c0 23 7 27 48 27zM793 724l56 -21c43 57 84 136 98 188l-59 25c-14 -53 -54 -133 -95 -192z" />
</svg>
