<?xml version="1.0" standalone="no"?>
<!DOCTYPE svg PUBLIC "-//W3C//DTD SVG 1.1//EN" "http://www.w3.org/Graphics/SVG/1.1/DTD/svg11.dtd" >
<svg xmlns="http://www.w3.org/2000/svg" xmlns:xlink="http://www.w3.org/1999/xlink" version="1.1" viewBox="-10 0 1010 1000">
   <path fill="currentColor"
d="M438 302v48h65v-48h-65zM503 119h-65v45h65v-45zM588 260v-53h-150v53h150zM656 380v17h-277v-325h273v47h-93v45h85v138h-85v48h97v23c42 -18 81 -42 114 -73c-32 -44 -57 -95 -74 -149l51 -14c14 44 35 84 61 120c27 -35 48 -76 63 -124h-197v-56h222l12 -2l36 15
c-19 88 -52 158 -96 213c33 33 73 59 117 75c-14 12 -32 34 -41 51c-44 -19 -83 -48 -116 -83c-35 33 -75 59 -119 78c-6 -13 -21 -32 -33 -44zM496 695v59h309v-59h-309zM496 591v58h309v-58h-309zM496 487v57h309v-57h-309zM427 802v-363h448v363h-448zM274 754v-292h-102
v292h102zM335 820h-163v82h-61v-314c-12 28 -26 54 -41 78c-7 -14 -29 -47 -41 -63c66 -106 101 -269 121 -440h-106v-64h310v64h-137c-11 81 -25 160 -43 234h161v423zM551 808l65 25c-61 47 -155 95 -233 123c-10 -11 -36 -37 -51 -49c77 -23 166 -60 219 -99zM690 840
l52 -37c77 38 165 85 218 118l-70 35c-46 -33 -125 -79 -200 -116z" />
</svg>
