<?xml version="1.0" standalone="no"?>
<!DOCTYPE svg PUBLIC "-//W3C//DTD SVG 1.1//EN" "http://www.w3.org/Graphics/SVG/1.1/DTD/svg11.dtd" >
<svg xmlns="http://www.w3.org/2000/svg" xmlns:xlink="http://www.w3.org/1999/xlink" version="1.1" viewBox="-10 0 1010 1000">
   <path fill="currentColor"
d="M813 249h-73c-7 52 -21 109 -52 153c-12 -9 -40 -23 -55 -28c45 -61 51 -141 51 -198v-82c71 -12 154 -31 202 -52l40 51c-52 20 -119 34 -182 45v39v14h207v58h-79v144h-59v-144zM504 684v63h315v-63h-315zM504 574v61h315v-61h-315zM504 466v60h315v-60h-315zM436 797
v-382h454v382h-454zM535 249h-69c-8 54 -25 112 -64 158c-10 -12 -34 -31 -47 -38c51 -60 58 -136 58 -193v-81c69 -12 149 -29 196 -50l36 50c-49 19 -115 32 -174 42v40v14h184v58h-65v144h-55v-144zM296 758v-287h-113v287h113zM358 823h-175v90h-61v-329
c-14 30 -29 58 -46 84c-9 -16 -29 -47 -42 -62c69 -106 112 -267 136 -437h-120v-65h323v65h-136c-14 81 -30 162 -50 236h171v418zM557 802l57 42c-66 46 -169 89 -255 113c-6 -14 -20 -38 -31 -54c80 -22 181 -62 229 -101zM709 848l32 -47c79 32 166 75 218 108l-38 50
c-50 -34 -133 -79 -212 -111z" />
</svg>
