<?xml version="1.0" standalone="no"?>
<!DOCTYPE svg PUBLIC "-//W3C//DTD SVG 1.1//EN" "http://www.w3.org/Graphics/SVG/1.1/DTD/svg11.dtd" >
<svg xmlns="http://www.w3.org/2000/svg" xmlns:xlink="http://www.w3.org/1999/xlink" version="1.1" viewBox="-10 0 1010 1000">
   <path fill="currentColor"
d="M575 546h105v-58h-105v58zM575 389v56h105v-56h-105zM848 445v-56h-111v56h111zM848 546v-58h-111v58h111zM932 639v258c0 28 -5 42 -26 51c-20 8 -53 9 -104 9c-3 -15 -9 -35 -17 -49c36 1 67 1 76 0c10 0 13 -3 13 -12v-204h-144v93l61 -4c-9 -16 -19 -33 -29 -47
l37 -12c27 40 55 94 65 129l-38 15c-3 -13 -9 -27 -15 -43c-86 11 -167 19 -236 27l-7 -53c33 -2 70 -5 111 -8v-97h-135v265h-57v-318h193v-48h-162v-247h388v247h-169v48h195zM825 169v54h121v52h-121v56h-58v-56h-117v56h-57v-56h-104v-52h104v-54h57v54h117v-54h58z
M288 757v-297h-107v297h107zM952 86v60h-484v289c0 153 -14 365 -110 506c-12 -11 -38 -30 -53 -37c18 -25 33 -53 44 -82h-168v78h-61v-327c-16 35 -32 67 -51 97c-6 -17 -24 -55 -37 -72c65 -107 105 -264 127 -431h-114v-68h330v68h-149c-12 78 -26 155 -45 227h169v425
c49 -122 55 -268 55 -384v-349h547z" />
</svg>
