<?xml version="1.0" standalone="no"?>
<!DOCTYPE svg PUBLIC "-//W3C//DTD SVG 1.1//EN" "http://www.w3.org/Graphics/SVG/1.1/DTD/svg11.dtd" >
<svg xmlns="http://www.w3.org/2000/svg" xmlns:xlink="http://www.w3.org/1999/xlink" version="1.1" viewBox="-10 0 1010 1000">
   <path fill="currentColor"
d="M318 604h371c-23 -20 -43 -40 -61 -61h-246c-19 22 -41 42 -64 61zM716 875v-91h-364v91h364zM942 543h-226c66 59 160 111 247 137c-15 15 -37 41 -48 60c-60 -23 -122 -57 -178 -98v21h-313c-15 23 -33 46 -53 67h418v226h-73v-27h-364v28h-70v-146
c-48 38 -99 70 -150 95c-11 -14 -37 -44 -51 -56c100 -43 196 -107 258 -187h-77v-16c-56 39 -117 71 -178 98c-10 -15 -36 -44 -50 -58c93 -34 180 -83 250 -144h-225v-65h290c14 -16 27 -33 38 -52c-11 -10 -25 -20 -35 -26c34 -20 68 -44 98 -72c-23 -14 -46 -29 -68 -42
l44 -38c22 11 45 23 67 38c16 -18 30 -38 42 -58l62 18c-16 25 -33 51 -54 74c19 14 36 29 50 42c45 -38 89 -97 117 -157h-106v-19l-43 41c-14 -14 -34 -31 -57 -48c-29 25 -59 47 -88 66c-9 -11 -30 -29 -44 -40h-108v25c29 20 99 68 116 83l-38 54
c-14 -18 -49 -50 -78 -77v157h-65v-160c-35 58 -79 113 -122 145c-6 -18 -19 -45 -30 -62c49 -36 105 -101 139 -165h-120v-61h133v-100h65v100h112v54c27 -16 53 -33 79 -54c-22 -14 -43 -27 -64 -38l42 -37c21 10 43 23 65 37c18 -18 33 -35 46 -54l58 19
c-16 22 -35 46 -55 67c22 16 42 33 57 46v-40h122v-101h66v101h138v61h-138v8c36 31 137 127 162 153l-44 51c-22 -30 -75 -90 -118 -135v166h-66v-156c-30 53 -66 100 -103 130c-9 -11 -22 -28 -36 -40l-32 31c-14 -15 -33 -32 -55 -48c-20 19 -41 37 -62 53l30 9
c-9 18 -20 35 -32 51h506v65z" />
</svg>
