<?xml version="1.0" standalone="no"?>
<!DOCTYPE svg PUBLIC "-//W3C//DTD SVG 1.1//EN" "http://www.w3.org/Graphics/SVG/1.1/DTD/svg11.dtd" >
<svg xmlns="http://www.w3.org/2000/svg" xmlns:xlink="http://www.w3.org/1999/xlink" version="1.1" viewBox="-10 0 1010 1000">
   <path fill="currentColor"
d="M866 225l-37 -19c21 -31 47 -81 61 -115l49 24c-26 38 -51 81 -73 110zM924 308l-34 42c-23 -24 -63 -62 -99 -95c-24 46 -58 83 -111 110c-7 -13 -22 -32 -35 -42c103 -51 125 -142 132 -280h57c-4 62 -10 117 -25 163c42 33 90 75 115 102zM690 241l-43 -23
c24 -28 43 -78 52 -119l43 16c-10 44 -26 94 -52 126zM603 95l49 20c-22 37 -44 77 -62 105l-37 -16c17 -30 39 -78 50 -109zM411 100l42 15c-10 43 -23 92 -48 123l-40 -25c22 -25 38 -73 46 -113zM630 304l-36 39c-19 -24 -55 -60 -89 -91c-25 45 -60 82 -113 109
c-8 -13 -25 -33 -37 -42c107 -51 133 -143 140 -276h57c-4 61 -12 114 -27 160c38 33 83 74 105 101zM259 770v-312h-86v312h86zM343 166h-125c-12 80 -26 159 -45 231h146v433h-146v81h-59v-338c-15 33 -31 64 -49 91c-5 -16 -23 -51 -34 -68c65 -105 101 -263 122 -430
h-104v-66h294v66zM497 760l60 20c-43 54 -112 112 -169 149c-10 -12 -33 -35 -46 -46c56 -31 118 -78 155 -123zM864 721l-166 10v153c0 35 -7 50 -34 61c-26 9 -68 9 -129 9c-4 -18 -15 -41 -24 -58c50 2 91 2 103 0c14 0 17 -3 17 -14v-147c-171 10 -198 13 -217 19
c-3 -12 -12 -45 -19 -62c24 -2 54 -14 90 -33c20 -8 57 -28 102 -54c-109 4 -131 7 -144 13v-1c-3 -13 -12 -44 -20 -61c18 -2 34 -10 55 -23c21 -11 90 -57 139 -109h-194v97h-61v-154h576v154h-63v-97h-242l43 32c-42 36 -89 71 -136 99l132 -4c30 -20 61 -41 88 -64
l49 42c-83 59 -171 112 -258 155l275 -13c-17 -21 -36 -43 -52 -61l47 -28c47 50 104 120 131 164l-50 31c-10 -16 -22 -35 -38 -56zM749 786l43 -32c54 39 122 95 158 131l-45 37c-34 -37 -102 -95 -156 -136z" />
</svg>
