<?xml version="1.0" standalone="no"?>
<!DOCTYPE svg PUBLIC "-//W3C//DTD SVG 1.1//EN" "http://www.w3.org/Graphics/SVG/1.1/DTD/svg11.dtd" >
<svg xmlns="http://www.w3.org/2000/svg" xmlns:xlink="http://www.w3.org/1999/xlink" version="1.1" viewBox="-10 0 1010 1000">
   <path fill="currentColor"
d="M312 172l-58 40c-17 -36 -56 -91 -91 -129l55 -36c37 38 77 89 94 125zM373 212l40 29c-30 74 -74 147 -125 212c40 38 119 118 140 140l-46 62c-22 -29 -68 -84 -107 -127v428h-73v-407c-45 45 -92 84 -138 115c-6 -21 -23 -58 -34 -72c110 -65 225 -185 290 -309h-263
v-68h302zM739 633l-56 47c-36 -60 -119 -152 -193 -216l52 -43c75 63 159 151 197 212zM921 208v39c-17 457 -31 616 -71 665c-23 29 -45 38 -81 41c-36 4 -96 2 -157 -1c-2 -23 -10 -54 -24 -75c66 6 128 6 151 6c21 0 33 -3 44 -16c34 -34 50 -187 63 -588h-303
c-32 69 -68 130 -107 178c-13 -13 -46 -36 -65 -46c78 -88 141 -227 176 -368l76 16c-14 51 -31 101 -49 149h347z" />
</svg>
