<?xml version="1.0" standalone="no"?>
<!DOCTYPE svg PUBLIC "-//W3C//DTD SVG 1.1//EN" "http://www.w3.org/Graphics/SVG/1.1/DTD/svg11.dtd" >
<svg xmlns="http://www.w3.org/2000/svg" xmlns:xlink="http://www.w3.org/1999/xlink" version="1.1" viewBox="-10 0 1010 1000">
   <path fill="currentColor"
d="M429 212l42 29c-33 74 -80 147 -134 211c41 39 131 130 153 156l-47 62c-25 -33 -76 -93 -118 -140v425h-73v-414c-56 53 -116 98 -173 132c-5 -20 -22 -56 -33 -71c124 -67 255 -189 327 -319h-301v-68h206c-18 -40 -55 -95 -92 -137l56 -35c39 42 79 100 98 139l-49 33
h124zM886 93l53 37c-43 92 -98 201 -148 293c107 93 135 170 135 239c0 59 -15 107 -52 131c-19 10 -43 18 -70 21c-30 3 -70 3 -106 1c0 -20 -9 -53 -22 -74c36 4 72 5 97 3c18 -1 37 -5 51 -12c23 -12 31 -41 31 -76c0 -62 -33 -134 -140 -222c43 -83 91 -188 125 -267
h-210v789h-71v-859h315z" />
</svg>
