<?xml version="1.0" standalone="no"?>
<!DOCTYPE svg PUBLIC "-//W3C//DTD SVG 1.1//EN" "http://www.w3.org/Graphics/SVG/1.1/DTD/svg11.dtd" >
<svg xmlns="http://www.w3.org/2000/svg" xmlns:xlink="http://www.w3.org/1999/xlink" version="1.1" viewBox="-10 0 1010 1000">
   <path fill="currentColor"
d="M289 173l-59 39c-14 -36 -49 -90 -82 -129l55 -35c35 38 71 90 86 125zM368 212l40 28c-31 77 -75 150 -125 217c42 42 113 118 132 140l-47 62c-22 -33 -69 -89 -107 -134v431h-70v-397c-40 41 -82 76 -123 104c-5 -20 -22 -58 -33 -71c107 -67 218 -186 281 -309h-252
v-68h290zM614 874h212c51 0 60 -28 67 -146c17 13 45 25 65 29c-11 139 -33 186 -130 186h-217c-102 0 -133 -27 -133 -132v-350l-78 29l-20 -67l98 -36v-251h69v226l116 -43v-270h66v247l128 -47l6 -5l15 -11l50 20l-4 13c-1 169 -4 317 -11 354c-6 41 -24 61 -52 67
c-25 8 -59 8 -84 8c-2 -22 -9 -55 -17 -73c20 2 49 1 60 1c13 0 21 -4 26 -25c6 -22 8 -125 9 -276l-126 46v362h-66v-338l-116 43v377c0 51 10 62 67 62z" />
</svg>
