<?xml version="1.0" standalone="no"?>
<!DOCTYPE svg PUBLIC "-//W3C//DTD SVG 1.1//EN" "http://www.w3.org/Graphics/SVG/1.1/DTD/svg11.dtd" >
<svg xmlns="http://www.w3.org/2000/svg" xmlns:xlink="http://www.w3.org/1999/xlink" version="1.1" viewBox="-10 0 1010 1000">
   <path fill="currentColor"
d="M298 172l-56 40c-15 -36 -51 -91 -86 -129l51 -36c37 38 75 90 91 125zM409 592l-44 60c-21 -29 -65 -84 -102 -127v431h-69v-406c-43 45 -88 84 -131 114c-6 -20 -21 -58 -32 -71c105 -66 214 -186 276 -310h-251v-68h289l14 -3l37 29c-29 74 -71 147 -120 213
c38 37 113 115 133 138zM523 560v-154h67v155c0 137 -13 285 -133 399c-14 -15 -42 -34 -62 -44c116 -105 128 -236 128 -356zM752 956v-550h67v550h-67zM641 34l69 11c-4 13 -9 27 -15 41c58 120 164 237 271 294c-16 14 -36 39 -47 58c-95 -59 -191 -164 -255 -280
c-53 106 -132 210 -247 289c-8 -17 -27 -43 -42 -54c145 -95 230 -239 266 -359z" />
</svg>
