<?xml version="1.0" standalone="no"?>
<!DOCTYPE svg PUBLIC "-//W3C//DTD SVG 1.1//EN" "http://www.w3.org/Graphics/SVG/1.1/DTD/svg11.dtd" >
<svg xmlns="http://www.w3.org/2000/svg" xmlns:xlink="http://www.w3.org/1999/xlink" version="1.1" viewBox="-10 0 1010 1000">
   <path fill="currentColor"
d="M323 182l-58 44c-22 -37 -67 -95 -105 -135l54 -37c41 40 86 93 109 128zM441 600l-46 62c-23 -32 -76 -88 -118 -130v424h-73v-378c-43 45 -89 84 -133 115c-7 -19 -26 -53 -39 -66c110 -71 226 -197 289 -329h-270v-68h308l13 -3l40 27c-28 74 -68 147 -116 213
c45 38 123 112 145 133zM746 866h213v72h-592v-72h101v-588h73v588h131v-808h74v348h189v71h-189v389z" />
</svg>
