<?xml version="1.0" standalone="no"?>
<!DOCTYPE svg PUBLIC "-//W3C//DTD SVG 1.1//EN" "http://www.w3.org/Graphics/SVG/1.1/DTD/svg11.dtd" >
<svg xmlns="http://www.w3.org/2000/svg" xmlns:xlink="http://www.w3.org/1999/xlink" version="1.1" viewBox="-10 0 1010 1000">
   <path fill="currentColor"
d="M299 172l-57 40c-15 -36 -54 -91 -89 -129l53 -36c37 38 76 90 93 125zM359 212l39 29c-29 75 -71 148 -121 214c40 38 113 114 134 136l-45 61c-22 -30 -66 -83 -103 -125v428h-71v-401c-41 43 -84 80 -125 109c-6 -21 -22 -58 -33 -71c104 -67 213 -186 275 -309h-241
v-68h278zM718 562h138v-237h-138v237zM503 562h142v-237h-142v237zM718 253h211v436h-73v-56h-138v321h-73v-321h-142v61h-70v-441h212v-207h73v207z" />
</svg>
