<?xml version="1.0" standalone="no"?>
<!DOCTYPE svg PUBLIC "-//W3C//DTD SVG 1.1//EN" "http://www.w3.org/Graphics/SVG/1.1/DTD/svg11.dtd" >
<svg xmlns="http://www.w3.org/2000/svg" xmlns:xlink="http://www.w3.org/1999/xlink" version="1.1" viewBox="-10 0 1010 1000">
   <path fill="currentColor"
d="M281 173l-60 39c-16 -36 -53 -90 -86 -130l56 -34c36 37 73 89 90 125zM345 212l41 27c-27 75 -68 148 -115 214c37 38 110 119 130 141l-49 61c-19 -28 -58 -79 -92 -121v422h-71v-402c-39 43 -79 81 -120 110c-6 -21 -23 -58 -35 -72c99 -67 202 -187 260 -309h-237
v-68h274zM830 615h-309v225h309v-225zM449 956v-408h455v404h-74v-44h-309v48h-72zM420 92h508s-1 22 -1 33c-12 219 -22 302 -49 330c-16 20 -34 27 -60 29c-25 3 -69 3 -114 0c-1 -21 -9 -50 -20 -69c44 4 85 4 101 4s24 -1 33 -10c15 -17 26 -82 35 -248h-190
c-22 150 -74 278 -235 350c-8 -17 -29 -44 -46 -57c143 -59 188 -169 207 -293h-169v-69z" />
</svg>
