<?xml version="1.0" standalone="no"?>
<!DOCTYPE svg PUBLIC "-//W3C//DTD SVG 1.1//EN" "http://www.w3.org/Graphics/SVG/1.1/DTD/svg11.dtd" >
<svg xmlns="http://www.w3.org/2000/svg" xmlns:xlink="http://www.w3.org/1999/xlink" version="1.1" viewBox="-10 0 1010 1000">
   <path fill="currentColor"
d="M897 112v67h-349v-67h349zM434 105v67h-349v-67h349zM137 478l61 22c-27 129 -71 256 -117 338c-13 -14 -39 -38 -55 -48c47 -76 87 -194 111 -312zM463 386h-158v459c0 49 -8 72 -31 85c-23 14 -58 15 -112 15c-2 -24 -11 -61 -19 -84c33 1 68 1 78 1
c11 -1 14 -5 14 -19v-457h-184v-70h412v70zM340 498l54 -31c33 82 73 190 88 259l-57 36c-15 -68 -51 -181 -85 -264zM587 490l63 21c-26 130 -69 257 -113 340c-12 -14 -40 -39 -56 -50c46 -76 85 -194 106 -311zM926 391h-164v462c0 49 -7 73 -31 86
c-23 14 -57 14 -111 14c-2 -24 -11 -61 -19 -84c32 2 68 2 77 1c11 -1 15 -5 15 -19v-460h-179v-70h412v70zM799 507l55 -28c41 102 85 239 104 322l-61 34c-16 -85 -59 -224 -98 -328z" />
</svg>
