<?xml version="1.0" standalone="no"?>
<!DOCTYPE svg PUBLIC "-//W3C//DTD SVG 1.1//EN" "http://www.w3.org/Graphics/SVG/1.1/DTD/svg11.dtd" >
<svg xmlns="http://www.w3.org/2000/svg" xmlns:xlink="http://www.w3.org/1999/xlink" version="1.1" viewBox="-10 0 1010 1000">
   <path fill="currentColor"
d="M281 173l-61 37c-16 -37 -54 -95 -87 -137l57 -32c35 41 73 95 91 132zM339 212l44 26c-28 74 -68 147 -114 215c38 37 113 116 132 137l-51 58c-18 -26 -56 -71 -89 -111v419h-73v-401c-37 41 -76 77 -115 107c-7 -20 -25 -57 -37 -70c96 -69 194 -188 250 -309h-226
v-68h264zM953 281h-300v143h273v69h-273v151h286v70h-286v242h-75v-675h-62c-33 64 -70 123 -109 169c-13 -14 -42 -41 -60 -52c77 -84 143 -216 183 -347l73 19c-15 47 -33 95 -53 140h403v71z" />
</svg>
