<?xml version="1.0" standalone="no"?>
<!DOCTYPE svg PUBLIC "-//W3C//DTD SVG 1.1//EN" "http://www.w3.org/Graphics/SVG/1.1/DTD/svg11.dtd" >
<svg xmlns="http://www.w3.org/2000/svg" xmlns:xlink="http://www.w3.org/1999/xlink" version="1.1" viewBox="-10 0 1010 1000">
   <path fill="currentColor"
d="M307 172l-56 40c-16 -36 -55 -91 -90 -129l53 -36c37 38 77 90 93 125zM410 594l-46 61c-20 -30 -59 -82 -93 -124v425h-71v-406c-44 44 -90 83 -134 114c-6 -21 -22 -58 -33 -72c108 -67 220 -185 283 -309h-252v-68h290l14 -3l39 29c-29 75 -73 147 -124 213
c37 38 108 118 127 140zM946 542h-193c50 118 133 238 213 301c-18 13 -40 38 -52 58c-69 -65 -140 -174 -191 -287v342h-70v-343c-61 122 -148 233 -236 298c-12 -17 -33 -43 -49 -56c97 -63 195 -187 252 -313h-206v-68h239v-176h-127c-18 56 -39 106 -63 146
c-14 -10 -43 -29 -60 -37c52 -78 83 -197 99 -318l68 12c-7 44 -16 88 -26 129h109v-186h70v186h189v68h-189v176h223v68z" />
</svg>
