<?xml version="1.0" standalone="no"?>
<!DOCTYPE svg PUBLIC "-//W3C//DTD SVG 1.1//EN" "http://www.w3.org/Graphics/SVG/1.1/DTD/svg11.dtd" >
<svg xmlns="http://www.w3.org/2000/svg" xmlns:xlink="http://www.w3.org/1999/xlink" version="1.1" viewBox="-10 0 1010 1000">
   <path fill="currentColor"
d="M947 456l-63 34c-10 -21 -23 -44 -39 -71c-355 25 -398 28 -425 39c-2 -19 -13 -57 -19 -73c18 -4 40 -10 57 -28c20 -21 93 -129 131 -190h-186v-68h536v68h-265c-37 59 -95 148 -137 207l269 -17c-25 -38 -51 -76 -75 -109l60 -29c57 76 124 175 156 237zM293 171
l-55 41c-15 -36 -52 -91 -85 -130l52 -36c35 37 72 89 88 125zM399 591l-44 61c-20 -28 -61 -81 -96 -123v426h-69v-404c-41 44 -85 83 -127 113c-6 -20 -21 -58 -32 -72c102 -65 208 -185 269 -309h-244v-68h280l14 -3l37 29c-28 75 -69 148 -116 213
c37 38 108 116 128 137zM697 860h263v69h-598v-69h263v-182h-200v-69h200v-141h72v141h213v69h-213v182z" />
</svg>
