<?xml version="1.0" standalone="no"?>
<!DOCTYPE svg PUBLIC "-//W3C//DTD SVG 1.1//EN" "http://www.w3.org/Graphics/SVG/1.1/DTD/svg11.dtd" >
<svg xmlns="http://www.w3.org/2000/svg" xmlns:xlink="http://www.w3.org/1999/xlink" version="1.1" viewBox="-10 0 1010 1000">
   <path fill="currentColor"
d="M309 171l-58 41c-18 -37 -56 -92 -91 -130l55 -35c37 37 76 89 94 124zM364 212l39 27c-29 77 -72 150 -122 216c39 39 112 113 132 135l-47 61c-21 -29 -64 -81 -100 -121v426h-73v-399c-41 41 -83 77 -125 107c-6 -21 -23 -58 -34 -72c106 -66 215 -186 277 -309h-254
v-68h293zM826 654h-308v190h308v-190zM445 958v-372h456v368h-75v-42h-308v46h-73zM949 259h-241v152h220v68h-507v-68h213v-152h-226v-68h226v-148h74v148h241v68z" />
</svg>
