<?xml version="1.0" standalone="no"?>
<!DOCTYPE svg PUBLIC "-//W3C//DTD SVG 1.1//EN" "http://www.w3.org/Graphics/SVG/1.1/DTD/svg11.dtd" >
<svg xmlns="http://www.w3.org/2000/svg" xmlns:xlink="http://www.w3.org/1999/xlink" version="1.1" viewBox="-10 0 1010 1000">
   <path fill="currentColor"
d="M270 173l-58 39c-14 -36 -49 -91 -82 -130l54 -34c35 37 70 89 86 125zM384 594l-47 61c-18 -28 -55 -78 -87 -121v422h-68v-400c-37 42 -75 79 -113 108c-6 -21 -22 -58 -33 -71c94 -69 191 -188 247 -310h-227v-68h263l13 -3l40 27c-27 75 -66 148 -111 215
c35 37 105 119 123 140zM508 427h123v-102h-106v-56h106v-84h58v84h111v56h-111v102h131v56h-312v-56zM733 621h-152v120h152v-120zM789 797h-208v45h-56v-277h264v232zM921 88v776c0 41 -9 62 -35 74s-68 13 -138 13c-3 -19 -13 -49 -23 -68c51 2 98 2 111 1
c15 -1 20 -5 20 -20v-709h-384v303c0 158 -18 366 -141 500c-10 -12 -37 -34 -51 -41c116 -128 128 -312 128 -459v-370h513z" />
</svg>
