<?xml version="1.0" standalone="no"?>
<!DOCTYPE svg PUBLIC "-//W3C//DTD SVG 1.1//EN" "http://www.w3.org/Graphics/SVG/1.1/DTD/svg11.dtd" >
<svg xmlns="http://www.w3.org/2000/svg" xmlns:xlink="http://www.w3.org/1999/xlink" version="1.1" viewBox="-10 0 1010 1000">
   <path fill="currentColor"
d="M274 190l-62 30c-16 -38 -48 -100 -76 -146l58 -24c30 45 63 103 80 140zM634 580h-151v103h151v-103zM860 683v-103h-159v103h159zM701 848h159v-107h-159v107zM483 848h151v-107h-151v107zM414 579v-62h518v437h-72v-44h-377v47h-69v-376l-42 60
c-21 -27 -69 -78 -105 -115v429h-72v-380c-44 46 -89 86 -134 118c-7 -19 -27 -53 -38 -67c109 -71 223 -197 287 -328h-251v-68h288l14 -3l41 27c-28 74 -68 146 -115 211c35 28 106 93 127 114zM816 394v-110h-283v110h283zM466 224h420v229h-420v-229zM410 92h528v64
h-528v-64z" />
</svg>
