<?xml version="1.0" standalone="no"?>
<!DOCTYPE svg PUBLIC "-//W3C//DTD SVG 1.1//EN" "http://www.w3.org/Graphics/SVG/1.1/DTD/svg11.dtd" >
<svg xmlns="http://www.w3.org/2000/svg" xmlns:xlink="http://www.w3.org/1999/xlink" version="1.1" viewBox="-10 0 1010 1000">
   <path fill="currentColor"
d="M278 173l-58 39c-15 -36 -49 -90 -82 -130l54 -34c34 37 70 89 86 125zM391 573l-47 59c-17 -25 -54 -68 -86 -105v429h-68v-407c-39 45 -79 84 -120 115c-5 -21 -21 -58 -32 -72c95 -67 193 -187 249 -309h-223v-68h259l14 -3l38 27c-26 74 -64 146 -108 211
c34 32 105 103 124 123zM550 362v91h235v-91h-235zM785 216h-235v90h235v-90zM950 664h-219c61 82 153 166 235 208c-17 12 -39 39 -51 57c-73 -46 -156 -128 -217 -212v240h-71v-231c-64 84 -152 161 -231 207c-12 -17 -33 -43 -50 -56c89 -43 188 -127 251 -213h-197v-65
h227v-84h-145v-299h-92v-63h92v-111h68v111h235v-111h71v111h93v63h-93v299h-158v84h252v65z" />
</svg>
