<?xml version="1.0" standalone="no"?>
<!DOCTYPE svg PUBLIC "-//W3C//DTD SVG 1.1//EN" "http://www.w3.org/Graphics/SVG/1.1/DTD/svg11.dtd" >
<svg xmlns="http://www.w3.org/2000/svg" xmlns:xlink="http://www.w3.org/1999/xlink" version="1.1" viewBox="-10 0 1010 1000">
   <path fill="currentColor"
d="M263 173l-58 39c-14 -36 -48 -90 -81 -129l54 -35c34 38 70 90 85 125zM321 212l38 27c-25 76 -63 149 -107 217c36 38 102 117 121 138l-47 61c-19 -29 -55 -78 -87 -120v421h-68v-393c-33 39 -68 73 -102 101c-6 -21 -22 -58 -33 -72c91 -68 184 -188 237 -309h-216
v-68h250zM530 430v-70c-55 15 -108 27 -156 39l-16 -64c47 -8 106 -21 172 -35v-94h-156v-64h156v-92h69v380h-69zM512 735h295v-82h-295v82zM807 520h-295v78h295v-78zM878 459v418c0 38 -8 56 -36 67s-73 11 -144 11c-4 -19 -14 -44 -23 -62c52 2 100 2 114 1
c14 0 18 -4 18 -17v-86h-295v166h-71v-498h437zM777 355h81c20 0 24 -11 27 -83c14 10 40 21 59 25c-6 94 -25 119 -79 119h-97c-68 0 -86 -19 -86 -87v-278h68v129c50 -19 102 -41 137 -61l41 58c-51 24 -119 47 -178 64v88c0 23 4 26 27 26z" />
</svg>
