<?xml version="1.0" standalone="no"?>
<!DOCTYPE svg PUBLIC "-//W3C//DTD SVG 1.1//EN" "http://www.w3.org/Graphics/SVG/1.1/DTD/svg11.dtd" >
<svg xmlns="http://www.w3.org/2000/svg" xmlns:xlink="http://www.w3.org/1999/xlink" version="1.1" viewBox="-10 0 1010 1000">
   <path fill="currentColor"
d="M274 173l-59 39c-16 -37 -51 -91 -84 -130l56 -34c34 37 70 89 87 125zM385 594l-49 60c-17 -28 -52 -77 -83 -118v420h-70v-399c-37 41 -75 77 -113 107c-6 -21 -23 -58 -34 -72c95 -67 194 -187 249 -309h-229v-68h267l13 -3l39 27c-26 75 -65 148 -111 215
c35 37 104 118 121 140zM403 912l-54 -31c45 -49 66 -135 75 -216l58 13c-9 87 -29 180 -79 234zM524 695l53 -8c13 59 21 135 20 184l-57 8c2 -50 -5 -125 -16 -184zM634 687l49 -12c23 47 42 110 50 151l-53 15c-7 -41 -25 -105 -46 -154zM510 455v95h143v-95h-143z
M653 151h-143v91h143v-91zM653 395v-93h-143v93h143zM722 550h219s-1 22 -2 32c-12 232 -23 318 -50 346c-16 20 -34 27 -61 29c-25 2 -69 2 -114 -1c-1 -20 -9 -47 -20 -65c45 4 86 5 102 5s25 -2 34 -11c15 -18 27 -88 37 -269h-428v-530h482v65h-199v91h174v60h-174v93
h174v60h-174v95zM853 765l-46 20c-12 -32 -41 -82 -68 -119l42 -18c29 37 59 85 72 117z" />
</svg>
