<?xml version="1.0" standalone="no"?>
<!DOCTYPE svg PUBLIC "-//W3C//DTD SVG 1.1//EN" "http://www.w3.org/Graphics/SVG/1.1/DTD/svg11.dtd" >
<svg xmlns="http://www.w3.org/2000/svg" xmlns:xlink="http://www.w3.org/1999/xlink" version="1.1" viewBox="-10 0 1010 1000">
   <path fill="currentColor"
d="M274 171l-52 41c-13 -36 -47 -91 -78 -130l49 -36c32 37 67 88 81 125zM366 570l-40 61c-16 -25 -53 -71 -84 -107v431h-64v-404c-38 44 -79 83 -119 113c-5 -20 -19 -58 -29 -72c94 -66 194 -185 250 -309h-227v-68h261l12 -3l35 29c-26 75 -64 146 -108 212
c33 32 97 98 113 117zM534 454v65h227v-65h-227zM761 212h-227v66h227v-66zM534 333v66h227v-66h-227zM722 582h-166c-45 86 -117 164 -191 205c-10 -18 -27 -45 -40 -59c62 -30 123 -85 165 -146h-112v-63h91v-307h-80v-62h80v-105h65v105h227v-105h65v105h96v62h-96v307
h112v63h-152c40 60 102 113 164 141c-12 13 -30 41 -39 60c-74 -40 -147 -118 -189 -201zM675 767v103h251v61h-563v-61h248v-103h-134v-62h134v-91h64v91h133v62h-133z" />
</svg>
