<?xml version="1.0" standalone="no"?>
<!DOCTYPE svg PUBLIC "-//W3C//DTD SVG 1.1//EN" "http://www.w3.org/Graphics/SVG/1.1/DTD/svg11.dtd" >
<svg xmlns="http://www.w3.org/2000/svg" xmlns:xlink="http://www.w3.org/1999/xlink" version="1.1" viewBox="-10 0 1010 1000">
   <path fill="currentColor"
d="M841 225v-74h-82v74h82zM841 347v-75h-82v75h82zM478 272v75h94v-75h-94zM478 151v74h94v-74h-94zM707 272h-83v75h83v-75zM707 151h-83v74h83v-74zM902 102v294h-483v-294h153v-57h52v57h83v-57h52v57h143zM274 173l-59 39c-16 -36 -50 -90 -83 -130l56 -34
c34 37 69 89 86 125zM383 591l-48 58c-17 -28 -54 -78 -86 -121v428h-66v-405c-37 42 -75 79 -114 109c-7 -20 -23 -55 -33 -68c95 -68 194 -187 249 -309h-229v-68h266l12 -3l39 26c-27 75 -66 147 -111 213c34 36 103 117 121 140zM855 712l41 33c-31 27 -69 52 -102 71
c44 43 99 75 164 94c-13 11 -30 34 -39 51c-129 -44 -217 -138 -265 -264h-71v182l113 -28c2 16 6 38 9 50c-151 41 -176 50 -191 61c-4 -16 -15 -46 -26 -61c16 -7 36 -23 36 -60v-144h-57c-6 89 -26 190 -79 264c-12 -11 -41 -27 -58 -33c66 -91 75 -215 75 -308v-179h521
v54h-456v126v25h464v51h-221c12 29 29 57 48 82c33 -21 71 -48 94 -67zM885 595h-379v-49h379v49z" />
</svg>
