<?xml version="1.0" standalone="no"?>
<!DOCTYPE svg PUBLIC "-//W3C//DTD SVG 1.1//EN" "http://www.w3.org/Graphics/SVG/1.1/DTD/svg11.dtd" >
<svg xmlns="http://www.w3.org/2000/svg" xmlns:xlink="http://www.w3.org/1999/xlink" version="1.1" viewBox="-10 0 1010 1000">
   <path fill="currentColor"
d="M945 118v58h-572v-58h257c-9 -22 -20 -45 -31 -64l61 -18c16 24 33 57 43 82h242zM269 175l-58 37c-15 -36 -51 -91 -84 -129l52 -34c36 39 73 90 90 126zM371 563l-43 55c-17 -22 -50 -59 -79 -93v432h-70v-396c-34 42 -70 79 -105 109c-7 -21 -23 -57 -34 -71
c88 -70 179 -192 231 -316h-217v-68h251l14 -3l39 26c-25 74 -60 147 -102 215c34 30 97 92 115 110zM581 591v54h148v-54h-148zM581 488v53h148v-53h-148zM469 261v77h104v-77h-104zM743 261v77h108v-77h-108zM894 713l41 38c-36 26 -81 50 -120 69c41 35 92 61 151 77
c-14 13 -33 37 -42 54c-128 -41 -217 -130 -266 -252h-14c-24 25 -56 46 -89 66v105l148 -29c-1 18 1 43 3 57c-174 39 -201 48 -218 58c-5 -14 -21 -37 -32 -48c15 -11 39 -36 39 -80v-31c-37 18 -75 33 -112 45c-7 -12 -27 -37 -39 -49c78 -20 160 -53 219 -94h-205v-54
h156v-54h-105v-50h105v-53h-122v-50h122v-54h-102v-168h221v168h-52v54h148v-54h-43v-168h225v168h-114v54h137v50h-137v53h118v50h-118v54h157v54h-234c15 30 34 59 56 84c41 -21 89 -49 118 -70z" />
</svg>
