<?xml version="1.0" standalone="no"?>
<!DOCTYPE svg PUBLIC "-//W3C//DTD SVG 1.1//EN" "http://www.w3.org/Graphics/SVG/1.1/DTD/svg11.dtd" >
<svg xmlns="http://www.w3.org/2000/svg" xmlns:xlink="http://www.w3.org/1999/xlink" version="1.1" viewBox="-10 0 1010 1000">
   <path fill="currentColor"
d="M761 488v-198h-135l43 14c-25 28 -58 56 -94 80c46 21 86 43 116 64l-33 40h103zM367 488h279c-33 -23 -78 -47 -127 -70c-48 28 -101 51 -152 70zM247 290v198h87c-10 -12 -26 -25 -36 -34c54 -16 110 -37 161 -62c-45 -18 -91 -34 -134 -47l36 -40c50 13 106 33 159 55
c35 -22 66 -45 89 -70h-362zM601 663h-144c-23 42 -48 81 -74 115l238 -17c-19 -29 -43 -56 -65 -79zM898 175h-363v59h298v310h-317c-8 20 -17 39 -27 59h392v273c0 37 -8 55 -36 66c-29 10 -74 11 -140 11c-5 -19 -17 -45 -27 -63c50 2 97 2 109 1c14 -1 18 -4 18 -15
v-213h-190c52 52 104 122 124 173l-59 26c-6 -16 -14 -33 -25 -51c-289 24 -324 29 -345 37c-4 -13 -16 -44 -26 -61c17 -3 33 -20 50 -48c9 -11 26 -40 46 -76h-185v294h-75v-354h289c10 -19 18 -39 25 -59h-255v-310h282v-191h74v74h363v58z" />
</svg>
