<?xml version="1.0" standalone="no"?>
<!DOCTYPE svg PUBLIC "-//W3C//DTD SVG 1.1//EN" "http://www.w3.org/Graphics/SVG/1.1/DTD/svg11.dtd" >
<svg xmlns="http://www.w3.org/2000/svg" xmlns:xlink="http://www.w3.org/1999/xlink" version="1.1" viewBox="-10 0 1010 1000">
   <path fill="currentColor"
d="M461 485v-157c-86 116 -222 217 -353 269c-12 -18 -33 -45 -49 -60c122 -41 249 -124 331 -220h-325v-64h396v-94c-101 7 -206 12 -302 14c-2 -17 -10 -43 -16 -60c221 -5 492 -25 631 -60l60 54c-81 21 -187 36 -300 45v101h403v64h-335c81 94 211 175 339 214
c-17 14 -39 43 -50 60c-135 -49 -272 -148 -357 -261v155h-73zM468 506h79c-6 16 -12 33 -18 50c35 78 128 269 429 336c-16 16 -34 43 -42 63c-253 -63 -364 -215 -422 -320c-63 123 -176 253 -411 321c-8 -17 -25 -46 -39 -62c302 -80 382 -271 424 -388z" />
</svg>
