<?xml version="1.0" standalone="no"?>
<!DOCTYPE svg PUBLIC "-//W3C//DTD SVG 1.1//EN" "http://www.w3.org/Graphics/SVG/1.1/DTD/svg11.dtd" >
<svg xmlns="http://www.w3.org/2000/svg" xmlns:xlink="http://www.w3.org/1999/xlink" version="1.1" viewBox="-10 0 1010 1000">
   <path fill="currentColor"
d="M423 591l-44 59c-17 -28 -57 -82 -91 -124v429h-73v-442c-41 100 -93 199 -145 261c-7 -20 -25 -50 -37 -67c63 -71 133 -199 172 -314h-153v-70h163v-152c-50 11 -101 19 -148 26c-3 -18 -13 -42 -22 -59c114 -18 248 -47 325 -81l44 60c-36 15 -80 28 -126 38v168h124
v70h-124v61c30 27 115 114 135 137zM636 250h195c-5 369 13 611 58 612c10 0 17 -30 21 -81c12 16 38 37 49 45c-17 98 -47 125 -73 125c-103 -2 -126 -244 -128 -632h-124c-3 82 -9 161 -20 234c53 33 101 67 132 96l-41 63c-25 -25 -62 -54 -105 -83
c-29 136 -82 249 -175 331c-12 -17 -38 -41 -55 -52c93 -77 141 -186 167 -319c-38 -24 -77 -46 -114 -64l37 -55c28 14 59 28 89 45c8 -61 12 -126 15 -196h-142v-69h144c1 -66 1 -135 1 -206h71c0 71 0 139 -2 206z" />
</svg>
