<?xml version="1.0" standalone="no"?>
<!DOCTYPE svg PUBLIC "-//W3C//DTD SVG 1.1//EN" "http://www.w3.org/Graphics/SVG/1.1/DTD/svg11.dtd" >
<svg xmlns="http://www.w3.org/2000/svg" xmlns:xlink="http://www.w3.org/1999/xlink" version="1.1" viewBox="-10 0 1010 1000">
   <path fill="currentColor"
d="M712 175l-70 22c-10 -37 -34 -94 -55 -138l67 -19c22 43 48 98 58 135zM408 274v-71h532v71h-532zM413 585l-44 58c-17 -31 -57 -95 -90 -144v456h-72v-440c-39 100 -89 198 -138 259c-8 -20 -26 -50 -37 -67c60 -71 127 -199 165 -314h-153v-70h163v-149
c-44 8 -88 15 -129 21c-3 -17 -13 -41 -21 -58c108 -17 234 -47 307 -79l45 59c-37 15 -82 29 -130 41v165h122v70h-122v25c28 32 115 140 134 167zM829 881h34c10 0 19 -1 25 -6c5 -4 9 -14 11 -33c3 -21 4 -67 5 -127c14 13 37 25 55 31c0 54 -4 118 -9 140
c-6 25 -15 38 -29 48c-14 9 -36 12 -54 12h-55c-20 0 -44 -5 -59 -18c-17 -14 -23 -31 -23 -102v-372h-157v115c0 125 -30 288 -184 391c-9 -16 -35 -45 -49 -56c142 -94 161 -228 161 -336v-184h301v446c0 27 2 42 7 46c6 4 12 5 20 5z" />
</svg>
