<?xml version="1.0" standalone="no"?>
<!DOCTYPE svg PUBLIC "-//W3C//DTD SVG 1.1//EN" "http://www.w3.org/Graphics/SVG/1.1/DTD/svg11.dtd" >
<svg xmlns="http://www.w3.org/2000/svg" xmlns:xlink="http://www.w3.org/1999/xlink" version="1.1" viewBox="-10 0 1010 1000">
   <path fill="currentColor"
d="M756 187l-47 56c-40 -43 -124 -108 -191 -151l45 -49c67 40 152 101 193 144zM415 691l-58 -22c40 -78 63 -207 73 -308l57 13c-12 102 -33 238 -72 317zM380 585l-46 60c-13 -30 -42 -86 -68 -133v446h-70v-415c-34 93 -77 183 -120 240c-7 -21 -26 -53 -39 -71
c56 -72 117 -201 151 -314h-129v-70h137v-161c-35 8 -71 15 -104 21c-4 -17 -14 -42 -22 -59c93 -18 202 -47 265 -78l46 60c-33 15 -73 28 -115 40v177h115v70h-115v22c25 33 98 138 114 165zM959 684l-67 20c-12 -81 -51 -203 -94 -296c-51 123 -113 233 -186 329v98
c0 40 6 47 43 47h118c34 0 40 -26 44 -149c16 14 45 26 64 29c-8 143 -27 185 -102 185h-133c-83 0 -105 -24 -105 -113v-13c-40 43 -83 83 -129 118c-12 -14 -43 -39 -60 -51c71 -50 133 -110 189 -177v-453h71v356c94 -144 163 -317 215 -509l71 14
c-29 102 -61 198 -99 288l63 -19c44 94 84 216 97 296z" />
</svg>
