<?xml version="1.0" standalone="no"?>
<!DOCTYPE svg PUBLIC "-//W3C//DTD SVG 1.1//EN" "http://www.w3.org/Graphics/SVG/1.1/DTD/svg11.dtd" >
<svg xmlns="http://www.w3.org/2000/svg" xmlns:xlink="http://www.w3.org/1999/xlink" version="1.1" viewBox="-10 0 1010 1000">
   <path fill="currentColor"
d="M946 457h-228c64 73 159 140 248 180c-19 15 -41 39 -53 57c-101 -55 -211 -145 -276 -237h-271c-25 32 -52 64 -82 93c126 -11 273 -29 358 -51l41 55c-42 10 -94 19 -148 26v85h283v62h-212c94 54 199 121 259 165l-46 52c-63 -50 -181 -128 -284 -189v202h-73v-196
c-86 82 -209 152 -318 188c-10 -17 -32 -44 -49 -58c111 -31 233 -93 314 -164h-224v-62h277v-76c-56 6 -114 11 -167 14c-2 -15 -7 -35 -15 -50c-57 55 -125 104 -202 145c-9 -17 -31 -44 -46 -57c98 -50 178 -113 241 -184h-218v-62h268c17 -23 33 -48 48 -72h-209v-58
h239c11 -24 21 -46 30 -70h-322v-61h341c9 -30 16 -61 21 -91l75 8c-5 27 -12 56 -20 83h373v61h-391c-9 24 -18 46 -28 70h369v58h-397c-13 24 -26 49 -42 72h536v62z" />
</svg>
