<?xml version="1.0" standalone="no"?>
<!DOCTYPE svg PUBLIC "-//W3C//DTD SVG 1.1//EN" "http://www.w3.org/Graphics/SVG/1.1/DTD/svg11.dtd" >
<svg xmlns="http://www.w3.org/2000/svg" xmlns:xlink="http://www.w3.org/1999/xlink" version="1.1" viewBox="-10 0 1010 1000">
   <path fill="currentColor"
d="M897 221l-52 37c-21 -38 -68 -98 -109 -141l49 -33c42 42 90 100 112 137zM420 573l-44 60c-18 -30 -61 -89 -95 -134v458h-72v-438c-40 102 -91 201 -142 264c-7 -22 -26 -54 -38 -71c62 -72 129 -201 168 -315h-145v-70h157v-161c-44 9 -88 16 -130 22
c-3 -16 -13 -41 -21 -58c107 -18 233 -47 306 -79l44 59c-36 15 -80 29 -127 41v176h131v70h-131v28c29 28 118 123 139 148zM934 364h-183c49 151 135 318 212 406c-18 13 -42 38 -56 57c-73 -96 -151 -257 -203 -411v539h-72v-528c-48 160 -120 313 -200 404
c-14 -16 -38 -41 -54 -53c84 -87 163 -253 206 -414h-156v-69h204v-252h72v252h230v69z" />
</svg>
