<?xml version="1.0" standalone="no"?>
<!DOCTYPE svg PUBLIC "-//W3C//DTD SVG 1.1//EN" "http://www.w3.org/Graphics/SVG/1.1/DTD/svg11.dtd" >
<svg xmlns="http://www.w3.org/2000/svg" xmlns:xlink="http://www.w3.org/1999/xlink" version="1.1" viewBox="-10 0 1010 1000">
   <path fill="currentColor"
d="M278 393v27c28 33 110 138 129 166l-45 59c-16 -31 -53 -93 -84 -142v452h-71v-439c-39 101 -89 199 -138 261c-8 -21 -26 -51 -37 -70c60 -70 127 -199 165 -314h-151v-70h161v-151c-44 9 -89 17 -131 23c-4 -16 -13 -42 -22 -58c108 -18 235 -47 307 -80l43 59
c-36 15 -79 29 -126 40v167h120v70h-120zM815 620h-273v226h273v-226zM474 957v-404h411v402h-70v-42h-273v44h-68zM731 215l57 -29c70 86 144 202 176 280l-60 34c-9 -22 -21 -46 -35 -73c-371 29 -415 34 -444 46c-3 -16 -14 -52 -23 -71c18 -4 38 -29 61 -65
c26 -35 105 -169 153 -295l76 22c-53 114 -116 229 -179 319l318 -22c-31 -51 -66 -103 -100 -146z" />
</svg>
