<?xml version="1.0" standalone="no"?>
<!DOCTYPE svg PUBLIC "-//W3C//DTD SVG 1.1//EN" "http://www.w3.org/Graphics/SVG/1.1/DTD/svg11.dtd" >
<svg xmlns="http://www.w3.org/2000/svg" xmlns:xlink="http://www.w3.org/1999/xlink" version="1.1" viewBox="-10 0 1010 1000">
   <path fill="currentColor"
d="M839 483v-298h-284v298h284zM912 114v440h-428v-440h428zM447 596l-45 63c-19 -35 -68 -109 -106 -163v462h-71v-441c-43 103 -97 203 -150 265c-8 -21 -26 -52 -39 -70c65 -71 136 -199 177 -314h-164v-70h176v-161c-56 10 -113 19 -166 25c-3 -17 -12 -42 -20 -58
c125 -18 274 -47 358 -82l44 60c-41 16 -91 29 -145 40v176h157v70h-157v19c32 35 129 150 151 179zM555 651l73 17c-32 112 -89 218 -154 288c-13 -11 -45 -33 -62 -43c64 -63 115 -160 143 -262zM758 674l65 -25c53 85 111 198 133 269l-70 29c-21 -71 -76 -186 -128 -273
z" />
</svg>
