<?xml version="1.0" standalone="no"?>
<!DOCTYPE svg PUBLIC "-//W3C//DTD SVG 1.1//EN" "http://www.w3.org/Graphics/SVG/1.1/DTD/svg11.dtd" >
<svg xmlns="http://www.w3.org/2000/svg" xmlns:xlink="http://www.w3.org/1999/xlink" version="1.1" viewBox="-10 0 1010 1000">
   <path fill="currentColor"
d="M268 149v179h118v70h-118v30c25 30 98 125 114 149l-41 61c-13 -29 -46 -85 -73 -129v449h-68v-454c-36 107 -85 214 -132 279c-8 -21 -25 -53 -37 -72c56 -71 117 -199 152 -313h-136v-70h153v-161c-40 9 -81 16 -120 22c-3 -16 -12 -42 -20 -59c97 -17 210 -47 275 -79
l43 61c-32 13 -70 26 -110 37zM843 753l-50 29c-25 -59 -74 -152 -120 -235c-21 88 -62 175 -141 253c-10 -13 -31 -32 -45 -41c106 -102 138 -224 147 -337h-128v-62h132v-37v-133h57v134v36h138v62h-141c-1 15 -3 29 -5 44c57 95 124 216 156 287zM482 831h375v-675h-375
v675zM415 88h512v862h-70v-52h-375v60h-67v-870z" />
</svg>
