<?xml version="1.0" standalone="no"?>
<!DOCTYPE svg PUBLIC "-//W3C//DTD SVG 1.1//EN" "http://www.w3.org/Graphics/SVG/1.1/DTD/svg11.dtd" >
<svg xmlns="http://www.w3.org/2000/svg" xmlns:xlink="http://www.w3.org/1999/xlink" version="1.1" viewBox="-10 0 1010 1000">
   <path fill="currentColor"
d="M252 397v45c26 27 106 117 122 139l-41 55c-14 -27 -51 -80 -81 -121v442h-70v-422c-33 94 -75 186 -117 245c-7 -20 -25 -50 -37 -67c54 -72 113 -203 146 -316h-125v-68h133v-159c-39 7 -78 13 -116 18c-3 -15 -12 -39 -21 -55c97 -14 209 -40 271 -70l52 54
c-34 13 -74 26 -116 37v175h108v68h-108zM459 841h399v-683h-399v565c58 -68 115 -205 147 -332h-122v-57h143v-143h60v143h147v57h-147v50c37 46 140 188 163 225l-39 49c-21 -42 -81 -137 -124 -200v291h-60v-321c-33 112 -78 220 -127 282c-10 -13 -28 -31 -41 -42v116z
M392 94h534v864h-68v-51h-399v51h-67v-864z" />
</svg>
