<?xml version="1.0" standalone="no"?>
<!DOCTYPE svg PUBLIC "-//W3C//DTD SVG 1.1//EN" "http://www.w3.org/Graphics/SVG/1.1/DTD/svg11.dtd" >
<svg xmlns="http://www.w3.org/2000/svg" xmlns:xlink="http://www.w3.org/1999/xlink" version="1.1" viewBox="-10 0 1010 1000">
   <path fill="currentColor"
d="M930 161v66h-506v-66h220c-6 -35 -17 -76 -27 -110l71 -10c14 38 27 85 35 120h207zM597 402l-68 15c-5 -44 -23 -112 -46 -164l64 -14c23 50 44 119 50 163zM260 149v179h115v70h-115v30c25 30 95 125 111 149l-40 61c-13 -29 -45 -84 -71 -129v449h-66v-453
c-35 107 -82 214 -128 278c-7 -20 -24 -53 -36 -71c54 -72 113 -200 146 -314h-131v-70h149v-161c-40 9 -80 17 -118 23c-3 -17 -10 -43 -19 -59c94 -18 204 -47 267 -80l42 61c-31 14 -67 26 -106 37zM824 648h-291v192h291v-192zM460 958v-376h439v372h-75v-46h-291v50
h-73zM800 430h158v66h-559v-66h330c26 -55 59 -138 76 -195l75 19c-24 57 -53 125 -80 176z" />
</svg>
