<?xml version="1.0" standalone="no"?>
<!DOCTYPE svg PUBLIC "-//W3C//DTD SVG 1.1//EN" "http://www.w3.org/Graphics/SVG/1.1/DTD/svg11.dtd" >
<svg xmlns="http://www.w3.org/2000/svg" xmlns:xlink="http://www.w3.org/1999/xlink" version="1.1" viewBox="-10 0 1010 1000">
   <path fill="currentColor"
d="M216 480l53 26c-26 48 -62 107 -104 144l-52 -35c41 -33 79 -90 103 -135zM728 674h-449v68h449v-68zM279 862h449v-69h-449v69zM207 956v-338h595v336h-74v-37h-449v39h-72zM356 496l58 -13c17 30 32 72 36 100l-62 16c-3 -27 -17 -70 -32 -103zM543 494l57 -18
c23 30 46 71 55 100l-60 21c-8 -28 -29 -71 -52 -103zM701 509l44 -36c52 33 114 83 145 118l-46 42c-31 -38 -92 -91 -143 -124zM934 294h-314c90 70 223 132 338 165c-16 13 -38 39 -50 55c-128 -41 -277 -124 -373 -213v170h-74v-168c-92 94 -233 176 -363 219
c-10 -16 -32 -41 -49 -55c117 -32 244 -99 330 -173h-308v-60h390v-77c-98 8 -199 13 -290 15c-2 -18 -11 -43 -19 -58c220 -8 487 -27 636 -60l42 58c-80 17 -184 31 -295 39v83h399v60z" />
</svg>
