<?xml version="1.0" standalone="no"?>
<!DOCTYPE svg PUBLIC "-//W3C//DTD SVG 1.1//EN" "http://www.w3.org/Graphics/SVG/1.1/DTD/svg11.dtd" >
<svg xmlns="http://www.w3.org/2000/svg" xmlns:xlink="http://www.w3.org/1999/xlink" version="1.1" viewBox="-10 0 1010 1000">
   <path fill="currentColor"
d="M355 573l-38 57c-14 -27 -45 -81 -72 -124v452h-66v-437c-30 98 -71 195 -110 256c-7 -19 -23 -47 -35 -63c49 -73 102 -204 130 -317h-121v-69h136v-163c-36 8 -73 15 -107 21c-4 -16 -14 -39 -21 -56c94 -18 203 -47 266 -79l43 59c-33 15 -73 28 -115 40v178h115v69
h-115v29c23 26 94 122 110 147zM477 428v92h341v-92h-341zM712 693v87h242v59h-242v115h-72v-115h-279c10 -38 22 -92 30 -137l65 6c-4 23 -8 49 -14 72h198v-87h-288v-57h288v-61h-231v-202h480v202h-177v61h221v57h-221zM797 181h-197c-8 29 -15 59 -22 83h219v-83z
M866 264h90v59h-582v-59h133c8 -25 15 -54 22 -83h-127v-58h141c7 -28 13 -57 18 -82l68 7c-5 23 -11 50 -16 75h253v141z" />
</svg>
