<?xml version="1.0" standalone="no"?>
<!DOCTYPE svg PUBLIC "-//W3C//DTD SVG 1.1//EN" "http://www.w3.org/Graphics/SVG/1.1/DTD/svg11.dtd" >
<svg xmlns="http://www.w3.org/2000/svg" xmlns:xlink="http://www.w3.org/1999/xlink" version="1.1" viewBox="-10 0 1010 1000">
   <path fill="currentColor"
d="M350 577l-38 62c-12 -28 -41 -83 -65 -128v447h-63v-451c-32 106 -75 212 -119 278c-6 -21 -22 -54 -33 -73c50 -72 105 -202 136 -314h-122v-70h138v-162c-37 9 -74 17 -110 23c-2 -17 -11 -42 -17 -59c87 -18 189 -47 248 -79l39 60c-28 14 -62 27 -97 38v179h106v70
h-106v30c24 31 88 126 103 149zM787 686h92v-151h-92v151zM644 686h90v-151h-90v151zM492 686h100v-151h-100v151zM833 211h-385v118h385v-118zM937 480v408c0 26 -5 41 -24 49c-18 9 -46 9 -85 9c-2 -13 -10 -35 -18 -48h59c8 0 10 -3 10 -11v-141h-92v166h-53v-166h-90
v168h-52v-168h-100v201h-56v-300c-12 99 -34 200 -78 280c-10 -11 -40 -27 -54 -33c72 -139 78 -333 78 -470v-272h243c-14 -29 -34 -63 -54 -89l62 -23c28 34 54 78 69 112h197v236h-451v36c0 18 0 36 -1 56h490z" />
</svg>
