<?xml version="1.0" standalone="no"?>
<!DOCTYPE svg PUBLIC "-//W3C//DTD SVG 1.1//EN" "http://www.w3.org/Graphics/SVG/1.1/DTD/svg11.dtd" >
<svg xmlns="http://www.w3.org/2000/svg" xmlns:xlink="http://www.w3.org/1999/xlink" version="1.1" viewBox="-10 0 1010 1000">
   <path fill="currentColor"
d="M267 398v30c25 30 98 125 113 150l-41 60c-13 -29 -45 -85 -72 -130v450h-67v-455c-36 107 -85 215 -133 281c-7 -21 -24 -53 -36 -72c56 -72 116 -200 151 -314h-135v-70h153v-162c-40 9 -81 17 -120 23c-3 -17 -11 -42 -20 -59c97 -18 209 -47 273 -79l42 60
c-31 14 -68 27 -108 38v179h117v70h-117zM480 397l160 -35c1 19 2 48 5 62c-197 49 -225 59 -244 71c-4 -18 -14 -57 -25 -76c15 -7 35 -21 35 -58v-307h69v123h166v64h-166v156zM823 703v-95h-330v95h330zM493 860h330v-99h-330v99zM611 452l78 18c-13 26 -26 54 -39 78
h244v407h-71v-34h-330v38h-69v-411h157c12 -32 24 -69 30 -96zM773 412h94c24 0 28 -15 31 -104c15 12 42 24 61 28c-7 110 -26 140 -85 140h-111c-73 0 -91 -21 -91 -95v-327h69v165c58 -28 122 -66 164 -95l46 47c-62 41 -145 83 -210 111v100c0 25 5 30 32 30z" />
</svg>
