<?xml version="1.0" standalone="no"?>
<!DOCTYPE svg PUBLIC "-//W3C//DTD SVG 1.1//EN" "http://www.w3.org/Graphics/SVG/1.1/DTD/svg11.dtd" >
<svg xmlns="http://www.w3.org/2000/svg" xmlns:xlink="http://www.w3.org/1999/xlink" version="1.1" viewBox="-10 0 1010 1000">
   <path fill="currentColor"
d="M919 149l-46 41c-20 -28 -63 -67 -100 -94l44 -36c38 23 81 62 102 89zM352 541l-41 60c-10 -23 -32 -64 -54 -100v455h-68v-433c-37 101 -85 199 -131 260c-7 -21 -24 -53 -37 -71c58 -71 122 -200 158 -314h-138v-70h148v-159c-39 8 -79 15 -117 21
c-4 -16 -11 -42 -20 -59c97 -17 211 -47 277 -79l42 61c-33 14 -73 27 -114 39v176h97v70h-97v22c22 24 83 100 95 121zM593 710l3 60c-92 22 -187 44 -261 60l-14 -65c70 -12 170 -33 272 -55zM527 584v-171h-99v171h99zM375 354h208v291h-208v-291zM901 575l54 24
c-34 68 -80 128 -136 179c20 59 43 92 65 92c16 0 25 -40 30 -139c12 17 31 32 46 39c-10 131 -29 171 -84 171c-43 0 -78 -44 -107 -121c-59 47 -126 85 -194 115c-7 -15 -25 -44 -37 -57c76 -30 149 -69 211 -119c-7 -26 -15 -56 -21 -88c-35 26 -72 48 -108 68
c-6 -14 -22 -44 -32 -57c44 -21 87 -46 127 -76c-5 -33 -9 -66 -13 -101c-25 16 -50 32 -75 46c-8 -13 -27 -39 -39 -50c36 -17 72 -37 106 -61c-6 -57 -10 -116 -14 -177h-340v-62h337c-2 -49 -3 -99 -4 -149h62c0 51 1 101 2 149h208v62h-205c3 46 6 91 10 133
c34 -30 64 -65 87 -101l52 21c-33 55 -80 105 -132 148c4 34 8 67 12 99c48 -43 89 -91 118 -143l51 22c-39 70 -95 133 -157 186c6 32 12 61 19 87c41 -41 75 -88 101 -140z" />
</svg>
