<?xml version="1.0" standalone="no"?>
<!DOCTYPE svg PUBLIC "-//W3C//DTD SVG 1.1//EN" "http://www.w3.org/Graphics/SVG/1.1/DTD/svg11.dtd" >
<svg xmlns="http://www.w3.org/2000/svg" xmlns:xlink="http://www.w3.org/1999/xlink" version="1.1" viewBox="-10 0 1010 1000">
   <path fill="currentColor"
d="M358 593l-41 61c-14 -27 -47 -77 -75 -117v421h-69v-414c-30 93 -68 183 -105 239c-8 -20 -24 -53 -36 -71c49 -71 103 -202 132 -314h-117v-70h126v-159c-36 8 -74 15 -108 21c-3 -16 -12 -41 -19 -58c92 -19 200 -47 262 -79l44 59c-32 15 -70 28 -110 40v176h94v70
h-94v63c27 28 99 111 116 132zM447 708l66 20c-34 61 -82 136 -119 184c-14 -11 -41 -30 -57 -38c39 -46 82 -110 110 -166zM913 658h-225v220c0 37 -7 55 -34 66c-26 12 -67 12 -126 12c-3 -20 -14 -46 -24 -65c48 1 85 1 97 0c14 0 16 -4 16 -14v-219h-220v-62h516v62z
M775 733l58 -29c42 54 97 127 124 170l-60 37c-25 -45 -79 -122 -122 -178zM507 442h290c-64 -79 -109 -182 -140 -301c-29 123 -84 223 -150 301zM875 183h-144c17 51 38 98 62 140c32 -39 61 -92 82 -140zM917 125l42 25c-30 81 -80 167 -131 225c39 53 88 96 145 123
c-15 13 -34 37 -43 55c-43 -24 -82 -54 -115 -91v41h-320v-47c-36 39 -74 71 -116 96c-7 -14 -25 -34 -38 -46c43 -25 84 -59 122 -103c-23 -20 -52 -42 -78 -60l31 -32c25 15 54 36 76 54c16 -20 30 -43 43 -65c-23 -18 -53 -36 -77 -50l27 -35c23 12 49 26 72 41
c13 -27 23 -56 32 -85h-109c-34 66 -77 125 -122 169c-11 -10 -34 -29 -49 -37c71 -63 128 -158 161 -259l59 13c-7 22 -15 42 -24 63h105l11 -2l35 13c-5 -18 -9 -36 -13 -56l58 -11c4 22 9 44 14 65h189z" />
</svg>
