<?xml version="1.0" standalone="no"?>
<!DOCTYPE svg PUBLIC "-//W3C//DTD SVG 1.1//EN" "http://www.w3.org/Graphics/SVG/1.1/DTD/svg11.dtd" >
<svg xmlns="http://www.w3.org/2000/svg" xmlns:xlink="http://www.w3.org/1999/xlink" version="1.1" viewBox="-10 0 1010 1000">
   <path fill="currentColor"
d="M382 578l-42 61c-14 -30 -46 -86 -73 -130v449h-69v-453c-37 107 -85 214 -133 278c-8 -20 -25 -52 -38 -71c57 -71 118 -200 153 -314h-137v-70h155v-161c-41 8 -82 16 -122 22c-2 -17 -12 -42 -20 -59c97 -18 212 -47 277 -79l44 61c-32 13 -70 26 -110 37v179h113v70
h-113v30c26 30 98 125 115 150zM726 447v71h104v-71h-104zM726 327v66h104v-66h-104zM872 596l51 37c-41 36 -89 73 -130 101c47 49 107 92 169 114c-15 12 -36 35 -46 52c-69 -33 -135 -91 -184 -158v144c0 33 -6 48 -30 58c-24 9 -59 10 -115 10c-3 -16 -14 -39 -23 -55
c42 1 78 1 89 0c11 0 14 -3 14 -13v-107c-60 40 -119 79 -171 112l-33 -55c53 -27 129 -73 204 -121v-143h-130v-54h132v-71h-160v-54h160v-66h-129v-53h125v-75h-179v318c0 136 -12 317 -95 434c-12 -11 -40 -29 -56 -36c78 -112 86 -271 86 -398v-380h230
c-9 -26 -22 -56 -34 -81l70 -10c14 27 29 63 39 91h215v62h-210v75h161v119h59v54h-59v125h-160v83c8 14 18 28 27 40c40 -30 86 -69 113 -99zM640 693l-41 41c-21 -28 -61 -71 -93 -102l38 -35c34 31 74 70 96 96z" />
</svg>
