<?xml version="1.0" standalone="no"?>
<!DOCTYPE svg PUBLIC "-//W3C//DTD SVG 1.1//EN" "http://www.w3.org/Graphics/SVG/1.1/DTD/svg11.dtd" >
<svg xmlns="http://www.w3.org/2000/svg" xmlns:xlink="http://www.w3.org/1999/xlink" version="1.1" viewBox="-10 0 1010 1000">
   <path fill="currentColor"
d="M411 586l-44 59c-16 -28 -55 -80 -88 -121v430h-72v-437c-40 100 -91 197 -141 257c-8 -21 -26 -50 -38 -68c64 -71 134 -202 173 -317h-147v-70h153v-151c-46 8 -93 16 -136 21c-3 -16 -14 -41 -23 -57c108 -17 235 -43 305 -74l52 56c-36 15 -80 27 -126 38v167h108
v-16h243v-54h-190v-48h190v-52h-212v-50h212v-55h74v55h227v50h-227v52h202v48h-202v54h252v51h-564v35h-113v61c31 30 113 114 132 136zM522 680v67h307v-67h-307zM522 567v65h307v-65h-307zM522 455v63h307v-63h-307zM899 797h-445v-392h445v392zM566 802l62 37
c-59 48 -155 96 -237 121c-11 -14 -33 -36 -48 -48c82 -24 176 -69 223 -110zM723 842l50 -37c67 38 144 84 191 116l-65 36c-40 -30 -112 -77 -176 -115z" />
</svg>
