<?xml version="1.0" standalone="no"?>
<!DOCTYPE svg PUBLIC "-//W3C//DTD SVG 1.1//EN" "http://www.w3.org/Graphics/SVG/1.1/DTD/svg11.dtd" >
<svg xmlns="http://www.w3.org/2000/svg" xmlns:xlink="http://www.w3.org/1999/xlink" version="1.1" viewBox="-10 0 1010 1000">
   <path fill="currentColor"
d="M847 141l63 28c-31 54 -68 116 -99 160h99v322h-283c45 27 95 70 119 102l-49 39c-22 -34 -73 -80 -119 -109l46 -32h-191v-57h408v-76h-384v-57h384v-74h-404v-58h344l-29 -15c31 -46 73 -120 95 -173zM546 296l-61 23c-8 -33 -31 -85 -56 -122l57 -20
c27 36 50 85 60 119zM597 170l60 -16c19 40 38 93 46 128l-64 19c-6 -36 -23 -90 -42 -131zM851 46l51 52c-126 34 -322 56 -485 64c-2 -15 -11 -39 -19 -54c159 -11 349 -33 453 -62zM393 583l-44 56c-15 -27 -53 -79 -85 -119v438h-70v-431c-34 98 -77 194 -119 255
c-8 -21 -26 -50 -39 -68c55 -71 114 -202 146 -315h-134v-69h146v-155c-43 9 -88 17 -129 23c-3 -16 -13 -40 -22 -55c104 -18 224 -46 288 -78l56 52c-35 16 -78 29 -123 41v172h122v69h-122v49c28 25 110 111 129 135zM406 934l-58 -34c39 -43 69 -116 84 -177l58 21
c-15 63 -43 142 -84 190zM627 893h112c27 0 31 -8 34 -76c14 10 42 20 59 25c-7 90 -26 111 -85 111h-126c-79 0 -97 -17 -97 -84v-154h65v153c0 22 5 25 38 25zM798 739l56 -26c51 57 97 135 114 190l-59 28c-17 -55 -62 -135 -111 -192z" />
</svg>
