<?xml version="1.0" standalone="no"?>
<!DOCTYPE svg PUBLIC "-//W3C//DTD SVG 1.1//EN" "http://www.w3.org/Graphics/SVG/1.1/DTD/svg11.dtd" >
<svg xmlns="http://www.w3.org/2000/svg" xmlns:xlink="http://www.w3.org/1999/xlink" version="1.1" viewBox="-10 0 1010 1000">
   <path fill="currentColor"
d="M264 399v49c28 25 110 111 129 135l-44 56c-15 -27 -53 -79 -85 -119v438h-70v-431c-34 98 -77 194 -119 255c-8 -21 -26 -50 -39 -68c55 -71 114 -202 146 -315h-134v-69h146v-155c-43 9 -88 17 -129 23c-3 -16 -13 -40 -22 -55c104 -18 223 -46 288 -78l56 52
c-35 16 -78 29 -123 41v172h122v69h-122zM462 772h162v-69h-162v69zM624 592h-162v62h162v-62zM865 592h-172v62h172v-62zM693 772h172v-69h-172v69zM486 442h138v-63h-138v63zM709 154h-165c-18 23 -38 47 -59 69h172c18 -19 36 -44 52 -69zM624 333v-62h-138v62h138z
M838 333v-62h-145v62h145zM838 442v-63h-145v63h145zM738 897h134c27 0 33 -11 35 -60c15 10 42 19 60 24c-6 71 -26 93 -90 93h-148c-83 0 -105 -20 -105 -100v-31h-162v54h-67v-336h229v-50h-202v-211c-13 10 -26 20 -40 30c-10 -15 -32 -37 -48 -47
c97 -62 166 -149 202 -219l71 13c-8 14 -16 29 -26 43h165l14 -4l43 30c-20 33 -44 67 -69 97h171v268h-212v50h241v282h-241v31c0 37 7 43 45 43z" />
</svg>
