<?xml version="1.0" standalone="no"?>
<!DOCTYPE svg PUBLIC "-//W3C//DTD SVG 1.1//EN" "http://www.w3.org/Graphics/SVG/1.1/DTD/svg11.dtd" >
<svg xmlns="http://www.w3.org/2000/svg" xmlns:xlink="http://www.w3.org/1999/xlink" version="1.1" viewBox="-10 0 1010 1000">
   <path fill="currentColor"
d="M253 398v21c26 28 107 128 125 152l-45 61c-14 -29 -50 -87 -80 -132v457h-67v-435c-33 100 -76 199 -120 261c-7 -21 -26 -53 -39 -71c53 -73 110 -202 142 -314h-118v-70h135v-161c-38 8 -76 15 -112 21c-3 -16 -12 -41 -21 -58c98 -19 213 -47 278 -79l48 60
c-36 16 -80 30 -126 42v175h117v70h-117zM735 749v-76h-141v76h141zM789 632v159h-247v-159h247zM848 573h-369v280h369v-280zM415 956v-443h500v440h-67v-41h-369v44h-64zM703 376h253v64h-583v-64h260v-183h-226v-64h226v-86h70v86h226v64h-226v183zM447 235l52 -29
c37 37 80 90 98 126l-55 33c-16 -36 -57 -91 -95 -130zM789 362l-53 -28c32 -34 76 -89 99 -128l58 27c-31 48 -71 95 -104 129z" />
</svg>
