<?xml version="1.0" standalone="no"?>
<!DOCTYPE svg PUBLIC "-//W3C//DTD SVG 1.1//EN" "http://www.w3.org/Graphics/SVG/1.1/DTD/svg11.dtd" >
<svg xmlns="http://www.w3.org/2000/svg" xmlns:xlink="http://www.w3.org/1999/xlink" version="1.1" viewBox="-10 0 1010 1000">
   <path fill="currentColor"
d="M126 952l-56 -29c34 -29 68 -77 88 -124l60 14c-20 48 -54 105 -92 139zM290 818l60 -10c13 39 25 91 27 121l-63 14c-1 -32 -12 -85 -24 -125zM448 820l56 -13c19 34 39 80 46 110l-59 15c-7 -29 -24 -76 -43 -112zM459 369v-91c-66 52 -158 99 -250 133h190
c7 -17 15 -33 19 -46zM477 411h315c-95 -36 -191 -84 -260 -136v110h-40c-5 9 -11 18 -15 26zM267 456v42h458v-42h-458zM267 578h458v-36h-458v36zM798 623h-531v35h667v47h-667v41h640s-1 18 -3 27c-13 94 -25 136 -46 153c-14 14 -31 18 -53 20c-20 0 -58 1 -99 -2
c-1 -16 -6 -38 -15 -53c36 4 71 4 83 4c15 0 22 -1 29 -7c11 -10 19 -36 28 -93h-181c23 26 49 63 59 86l-52 24c-10 -26 -35 -64 -59 -91l45 -19h-447v-379c-36 13 -73 23 -107 32c-11 -15 -32 -38 -48 -50c113 -24 242 -73 331 -128h-303v-56h390v-62
c-100 9 -203 16 -298 20c-2 -16 -11 -39 -18 -53c223 -11 488 -34 631 -70l56 49c-82 20 -186 35 -298 47v69h411v56h-318c91 55 224 105 336 129c-17 12 -38 35 -48 51c-37 -10 -76 -22 -115 -37v210z" />
</svg>
