<?xml version="1.0" standalone="no"?>
<!DOCTYPE svg PUBLIC "-//W3C//DTD SVG 1.1//EN" "http://www.w3.org/Graphics/SVG/1.1/DTD/svg11.dtd" >
<svg xmlns="http://www.w3.org/2000/svg" xmlns:xlink="http://www.w3.org/1999/xlink" version="1.1" viewBox="-10 0 1010 1000">
   <path fill="currentColor"
d="M849 288h-153v65h153v-65zM849 467v-66h-153v66h153zM696 587l121 -3c-15 -14 -31 -29 -45 -42l45 -25h-121v70zM485 467h144v-66h-144v66zM485 288v65h144v-65h-144zM629 238v-58h-242v-60h242v-75h67v75h242v60h-242v58h221v279h-89c53 43 110 103 135 147l-54 34
c-11 -18 -26 -38 -44 -60c-170 7 -346 13 -468 17l-7 -61c63 -1 148 -3 239 -5v-72h-209v-279h209zM588 691l47 -32c43 31 92 77 113 112l-49 36c-21 -36 -67 -84 -111 -116zM369 567l-42 55c-13 -27 -41 -78 -66 -122v458h-70v-436c-34 100 -77 199 -121 261
c-8 -21 -26 -53 -39 -71c54 -72 111 -203 144 -314h-117v-70h133v-162c-37 9 -74 16 -109 22c-3 -17 -14 -42 -21 -59c93 -18 201 -47 264 -78l48 60c-33 14 -71 27 -112 39v178h118v70h-118v19c24 30 93 125 108 150zM395 923l-62 -27c26 -48 53 -126 68 -180l59 26
c-16 53 -41 131 -65 181zM609 882h138c30 0 36 -8 39 -75c14 9 41 19 59 24c-7 90 -28 112 -91 112h-151c-84 0 -106 -18 -106 -86v-152h66v152c0 22 7 25 46 25zM810 731l58 -21c41 56 80 134 97 185l-60 25c-17 -53 -56 -131 -95 -189z" />
</svg>
