<?xml version="1.0" standalone="no"?>
<!DOCTYPE svg PUBLIC "-//W3C//DTD SVG 1.1//EN" "http://www.w3.org/Graphics/SVG/1.1/DTD/svg11.dtd" >
<svg xmlns="http://www.w3.org/2000/svg" xmlns:xlink="http://www.w3.org/1999/xlink" version="1.1" viewBox="-10 0 1010 1000">
   <path fill="currentColor"
d="M688 183l-50 25c-10 -38 -41 -97 -72 -140l48 -23c31 43 64 100 74 138zM956 687l-43 38c-21 -42 -61 -101 -104 -155c17 106 4 206 -25 243c-21 28 -45 37 -77 38c-15 0 -34 -1 -56 -2c-1 -18 -5 -44 -14 -61c23 3 43 3 57 3c17 0 30 -2 41 -21c18 -22 27 -90 20 -167
c-63 68 -148 132 -223 166c-10 -14 -28 -36 -40 -48c91 -36 195 -111 252 -187c-5 -21 -11 -42 -18 -63c-51 52 -122 104 -179 133c-8 -15 -26 -36 -39 -45c67 -30 149 -85 196 -138c-11 -20 -23 -40 -38 -56c-40 34 -84 64 -126 88c-8 -12 -29 -37 -42 -48
c67 -34 136 -80 184 -135h-167v-61h252c26 -48 58 -117 74 -165l60 20c-22 48 -49 102 -74 145h128v61h-200c-16 20 -32 40 -52 58c30 32 54 71 71 113c36 -39 78 -90 103 -128l49 36c-37 44 -84 96 -122 132c60 66 124 150 152 206zM480 273l-53 27
c-16 -47 -51 -120 -80 -174l50 -24c31 55 66 126 83 171zM340 602l-39 60c-12 -28 -41 -80 -65 -122v418h-63v-424c-30 94 -70 185 -108 244c-6 -22 -22 -53 -33 -71c50 -72 104 -202 133 -314h-116v-65h124v-163c-35 9 -72 17 -105 22c-3 -15 -11 -40 -18 -55
c88 -19 191 -47 250 -80l38 58c-30 15 -65 27 -102 38v180h99v65h-99v68c23 28 88 117 104 141zM471 385v406c17 9 34 25 61 44c49 32 108 41 189 41c68 0 177 -5 247 -14c-7 18 -16 52 -17 72c-56 3 -167 7 -232 7c-86 0 -148 -13 -199 -48c-33 -24 -59 -51 -79 -51
c-23 0 -60 53 -95 110l-43 -60c38 -47 76 -86 109 -102v-344h-73v-61h132z" />
</svg>
