<?xml version="1.0" standalone="no"?>
<!DOCTYPE svg PUBLIC "-//W3C//DTD SVG 1.1//EN" "http://www.w3.org/Graphics/SVG/1.1/DTD/svg11.dtd" >
<svg xmlns="http://www.w3.org/2000/svg" xmlns:xlink="http://www.w3.org/1999/xlink" version="1.1" viewBox="-10 0 1010 1000">
   <path fill="currentColor"
d="M355 575l-38 54c-14 -26 -47 -78 -75 -121v448h-67v-412c-31 91 -70 179 -109 236c-8 -21 -26 -50 -37 -68c52 -72 108 -203 140 -315h-120v-68h126v-161c-37 7 -75 13 -111 18c-3 -16 -13 -39 -21 -55c93 -15 202 -39 262 -67l51 53c-32 14 -72 27 -114 37v175h114v68
h-114v37c27 31 96 119 113 141zM660 605l54 13c-43 134 -126 248 -241 322c-9 -11 -29 -31 -42 -40c47 -28 88 -63 123 -103v-244h-79v-52h203v52h-76v179c25 -39 45 -82 58 -127zM489 608l49 8c-14 63 -39 126 -71 166c-10 -7 -32 -20 -44 -25c34 -40 54 -93 66 -149z
M877 497l55 13c-25 95 -62 183 -112 260c22 78 48 117 70 117c17 0 26 -27 29 -116c14 13 34 27 48 32c-8 126 -31 151 -82 151c-44 0 -81 -41 -111 -121c-38 47 -82 89 -132 124c-9 -12 -29 -31 -43 -41c59 -41 111 -92 154 -150c-21 -81 -37 -187 -46 -318h-275v92
c0 122 -18 296 -111 415c-11 -12 -37 -35 -50 -42c85 -113 98 -263 98 -373v-152h334c-1 -31 -3 -63 -4 -96h-337v-60h98v-148h65v148h110v-189h70v64h189v55h-189v70h240v60h-178c0 33 1 65 2 96h123c-22 -21 -65 -47 -98 -63l37 -33c36 15 79 40 101 60l-38 36h52v60h-174
c6 98 17 179 29 244c34 -60 59 -126 76 -195z" />
</svg>
