<?xml version="1.0" standalone="no"?>
<!DOCTYPE svg PUBLIC "-//W3C//DTD SVG 1.1//EN" "http://www.w3.org/Graphics/SVG/1.1/DTD/svg11.dtd" >
<svg xmlns="http://www.w3.org/2000/svg" xmlns:xlink="http://www.w3.org/1999/xlink" version="1.1" viewBox="-10 0 1010 1000">
   <path fill="currentColor"
d="M242 154v175h114v68h-114v37c27 31 96 119 113 141l-38 54c-14 -27 -47 -79 -75 -121v448h-67v-412c-31 91 -70 179 -109 236c-8 -21 -26 -50 -37 -68c52 -72 108 -203 140 -315h-120v-68h126v-161c-37 7 -75 13 -111 18c-3 -16 -13 -39 -21 -55c93 -15 202 -39 262 -67
l51 53c-32 14 -72 27 -114 37zM572 625l39 19c-11 31 -25 62 -41 93c20 21 38 43 48 61l-30 31c-9 -16 -22 -35 -39 -54c-21 36 -44 70 -70 99c-6 -9 -20 -21 -31 -27c26 -30 51 -66 72 -104c-18 -18 -38 -36 -57 -51l28 -28c16 12 33 27 48 42c14 -28 25 -55 33 -81z
M614 554l-28 33c-9 -16 -23 -34 -40 -53c-20 32 -42 61 -65 86c-7 -9 -21 -20 -31 -26c24 -26 47 -57 67 -90c-18 -17 -36 -34 -54 -48l26 -28c16 12 32 26 48 40c14 -26 25 -53 34 -77l38 18c-11 30 -25 60 -41 89c19 20 35 40 46 56zM962 281l-36 31v571
c0 33 -7 52 -29 62c-22 11 -56 12 -110 12c-2 -17 -11 -44 -19 -61h78c11 0 15 -3 15 -13v-519h-181v231c23 -25 46 -56 65 -89c-18 -18 -39 -35 -58 -49l27 -29c17 12 35 26 52 41c14 -27 26 -54 35 -79l38 19c-11 30 -25 60 -41 90c21 20 38 40 49 57l-28 34
c-10 -16 -25 -34 -43 -54c-20 32 -42 62 -66 87c-8 -9 -20 -19 -30 -26v244c24 -28 47 -61 67 -97c-19 -19 -39 -37 -58 -52l29 -29c16 13 33 27 49 42c13 -28 25 -57 34 -84l39 20c-11 32 -25 65 -41 97c19 21 36 43 47 61l-29 32c-9 -16 -24 -35 -40 -54
c-21 34 -44 67 -68 95c-7 -7 -19 -17 -29 -24v101h-57v-585h-178v593h-64v-628l-6 4c-10 -14 -29 -33 -44 -45c63 -34 130 -90 166 -137l54 32c-33 43 -80 86 -129 120h196v-160h-258v-63h592v63h-266v160h208c-38 -39 -97 -88 -147 -120l47 -37c61 38 132 97 168 135z" />
</svg>
