<?xml version="1.0" standalone="no"?>
<!DOCTYPE svg PUBLIC "-//W3C//DTD SVG 1.1//EN" "http://www.w3.org/Graphics/SVG/1.1/DTD/svg11.dtd" >
<svg xmlns="http://www.w3.org/2000/svg" xmlns:xlink="http://www.w3.org/1999/xlink" version="1.1" viewBox="-10 0 1010 1000">
   <path fill="currentColor"
d="M151 223v146h-73v-215h389c-14 -31 -31 -66 -47 -94l76 -22c22 35 46 80 61 116h364v190h-75v-121h-695zM570 322l46 -50c98 44 228 114 294 162l-47 58c-64 -50 -192 -123 -293 -170zM316 868h482c52 0 68 -18 74 -140c22 13 51 23 74 27c-12 161 -48 189 -154 189h-467
c-122 0 -177 -40 -177 -106c0 -51 15 -107 377 -295h-355v-64c-12 6 -26 12 -40 18l-45 -60c115 -41 214 -108 287 -170l53 42c-66 60 -154 121 -252 168h496l16 -3l56 37c-3 5 -9 10 -16 14c-464 225 -497 271 -497 305c0 26 35 38 88 38z" />
</svg>
