<?xml version="1.0" standalone="no"?>
<!DOCTYPE svg PUBLIC "-//W3C//DTD SVG 1.1//EN" "http://www.w3.org/Graphics/SVG/1.1/DTD/svg11.dtd" >
<svg xmlns="http://www.w3.org/2000/svg" xmlns:xlink="http://www.w3.org/1999/xlink" version="1.1" viewBox="-10 0 1010 1000">
   <path fill="currentColor"
d="M761 451l13 -4l51 28c-111 287 -391 426 -678 483c-8 -20 -22 -50 -36 -67c131 -21 262 -64 373 -131c-45 -43 -108 -94 -161 -132l56 -38c54 36 119 87 166 129c74 -54 135 -122 177 -202h-352c-68 73 -150 133 -236 176c-11 -14 -38 -44 -55 -56
c139 -62 262 -164 325 -294l73 21c-15 30 -33 60 -52 87h336zM368 246l61 34c-80 66 -184 132 -272 172l-49 -56c82 -34 185 -91 260 -150zM571 298l43 -50c93 39 215 103 278 148l-45 58c-60 -46 -181 -113 -276 -156zM553 148h367v182h-77v-115h-688v120h-74v-187h383
c-13 -29 -29 -62 -44 -88l76 -22c20 34 42 76 57 110z" />
</svg>
