<?xml version="1.0" standalone="no"?>
<!DOCTYPE svg PUBLIC "-//W3C//DTD SVG 1.1//EN" "http://www.w3.org/Graphics/SVG/1.1/DTD/svg11.dtd" >
<svg xmlns="http://www.w3.org/2000/svg" xmlns:xlink="http://www.w3.org/1999/xlink" version="1.1" viewBox="-10 0 1010 1000">
   <path fill="currentColor"
d="M154 213v90h-73v-152h400c-13 -28 -35 -67 -56 -96l72 -19c26 35 55 80 68 108l-24 7h380v147h-77v-85h-690zM575 293l35 -47c93 35 215 91 279 132l-36 54c-62 -41 -183 -101 -278 -139zM140 440l-41 -57c84 -30 190 -79 269 -133l56 35c-85 60 -192 119 -284 155z
M932 690h-359c65 116 193 178 382 198c-15 17 -35 46 -44 67c-209 -32 -341 -111 -412 -263c-56 124 -166 215 -403 264c-6 -18 -24 -46 -38 -61c207 -39 306 -110 358 -205h-351v-65h378c11 -35 19 -73 25 -113c-99 9 -200 14 -291 17c-2 -17 -10 -42 -18 -59
c218 -8 488 -30 633 -67l41 56c-76 20 -177 35 -286 46c-6 42 -14 82 -24 120h409v65z" />
</svg>
