<?xml version="1.0" standalone="no"?>
<!DOCTYPE svg PUBLIC "-//W3C//DTD SVG 1.1//EN" "http://www.w3.org/Graphics/SVG/1.1/DTD/svg11.dtd" >
<svg xmlns="http://www.w3.org/2000/svg" xmlns:xlink="http://www.w3.org/1999/xlink" version="1.1" viewBox="-10 0 1010 1000">
   <path fill="currentColor"
d="M155 215v123h-74v-190h396c-14 -31 -31 -66 -47 -94l77 -18c20 35 43 78 58 112h352v184h-76v-117h-686zM570 297l45 -46c86 45 199 114 255 161l-47 52c-54 -47 -165 -119 -253 -167zM158 471l-46 -56c88 -36 189 -99 259 -170l61 32c-77 77 -179 151 -274 194zM941 629
h-383c67 141 201 227 396 259c-15 15 -35 46 -45 66c-205 -42 -339 -140 -414 -306c-50 140 -156 249 -396 307c-7 -19 -25 -49 -40 -64c222 -49 318 -142 364 -262h-363v-69h383c12 -47 18 -96 23 -148h75c-5 52 -12 101 -21 148h185c-24 -32 -75 -78 -118 -112l54 -29
c43 30 96 76 121 109l-54 32h233v69z" />
</svg>
