<?xml version="1.0" standalone="no"?>
<!DOCTYPE svg PUBLIC "-//W3C//DTD SVG 1.1//EN" "http://www.w3.org/Graphics/SVG/1.1/DTD/svg11.dtd" >
<svg xmlns="http://www.w3.org/2000/svg" xmlns:xlink="http://www.w3.org/1999/xlink" version="1.1" viewBox="-10 0 1010 1000">
   <path fill="currentColor"
d="M237 807l183 -63c5 19 13 47 19 62c-232 85 -263 99 -284 114c-5 -17 -22 -50 -34 -65c18 -10 44 -33 44 -73v-154l-114 13l-8 -63l122 -14v-119h72v112l189 -22l7 62l-196 22v188zM374 250l58 36c-80 59 -187 112 -285 141l-40 -58c88 -23 193 -66 267 -119zM439 471
h471s-1 24 -1 34c-14 280 -26 381 -55 414c-18 22 -37 29 -66 31c-25 3 -72 3 -119 -1c-1 -20 -9 -48 -21 -67c47 4 92 5 109 5s26 -2 35 -12c20 -21 33 -109 44 -336h-172c-17 191 -61 339 -243 421c-9 -17 -28 -42 -44 -54c164 -71 201 -199 214 -367h-152v-68zM886 368
l-35 57c-61 -39 -182 -94 -277 -128l34 -48c91 29 214 82 278 119zM546 143h377v150h-77v-83h-691v87h-74v-154h382c-9 -27 -21 -59 -34 -84l74 -17c16 30 33 71 43 101z" />
</svg>
