<?xml version="1.0" standalone="no"?>
<!DOCTYPE svg PUBLIC "-//W3C//DTD SVG 1.1//EN" "http://www.w3.org/Graphics/SVG/1.1/DTD/svg11.dtd" >
<svg xmlns="http://www.w3.org/2000/svg" xmlns:xlink="http://www.w3.org/1999/xlink" version="1.1" viewBox="-10 0 1010 1000">
   <path fill="currentColor"
d="M156 200v99h-73v-160h380c-15 -26 -33 -55 -50 -78l67 -26c23 31 51 74 67 104h379v156h-76v-95h-694zM558 274l40 -49c101 39 235 101 306 147l-43 53c-66 -45 -200 -110 -303 -151zM373 224l64 25c-71 74 -188 138 -289 179c-9 -14 -30 -47 -43 -60
c98 -33 206 -86 268 -144zM554 623h-281v91h281v-91zM399 881h380c83 0 97 -17 105 -113c17 12 47 21 66 25c-13 120 -42 150 -168 150h-378c-155 0 -200 -20 -200 -112v-242c-29 28 -62 57 -97 83c-12 -16 -36 -37 -52 -47c108 -73 186 -174 228 -255l75 12
c-13 23 -26 45 -41 68h546s0 21 -2 31c-10 188 -21 260 -45 286c-13 18 -30 24 -53 26c-20 3 -54 3 -89 1c-1 -21 -8 -49 -19 -68c33 4 61 4 73 4c13 0 21 -2 28 -10c13 -16 23 -70 32 -211h-513c-17 21 -36 43 -55 63h403v193h-350v66c0 40 21 50 126 50z" />
</svg>
