<?xml version="1.0" standalone="no"?>
<!DOCTYPE svg PUBLIC "-//W3C//DTD SVG 1.1//EN" "http://www.w3.org/Graphics/SVG/1.1/DTD/svg11.dtd" >
<svg xmlns="http://www.w3.org/2000/svg" xmlns:xlink="http://www.w3.org/1999/xlink" version="1.1" viewBox="-10 0 1010 1000">
   <path fill="currentColor"
d="M156 188v99h-73v-161h368c-12 -20 -24 -40 -37 -58l68 -30c21 26 43 61 60 88h384v156h-76v-94h-694zM553 264l38 -52c91 35 212 92 273 132l-41 60c-59 -41 -178 -102 -270 -140zM372 220l69 29c-65 57 -168 112 -252 147c-13 -13 -42 -39 -60 -51
c87 -29 184 -75 243 -125zM937 473h-406v87h340v308c0 42 -9 62 -42 73c-32 11 -87 11 -168 11c-3 -21 -14 -46 -24 -66c64 2 123 2 139 1c17 -1 22 -5 22 -19v-249h-271c-1 6 -3 13 -4 19c87 48 193 119 248 168l-53 46c-47 -44 -136 -109 -217 -159
c-34 62 -105 121 -244 166c-10 -16 -30 -41 -46 -55c175 -48 226 -120 241 -185h-250v338h-74v-397h329v-87h-396v-60h876v60z" />
</svg>
