<?xml version="1.0" standalone="no"?>
<!DOCTYPE svg PUBLIC "-//W3C//DTD SVG 1.1//EN" "http://www.w3.org/Graphics/SVG/1.1/DTD/svg11.dtd" >
<svg xmlns="http://www.w3.org/2000/svg" xmlns:xlink="http://www.w3.org/1999/xlink" version="1.1" viewBox="-10 0 1010 1000">
   <path fill="currentColor"
d="M85 601v-61h376v-85h-292v-60h292v-82h74v82h301v60h-301v85h386v61h-836zM375 206l55 33c-83 63 -193 120 -300 150l-36 -57c97 -24 204 -69 281 -126zM908 332l-38 52c-65 -39 -199 -95 -303 -131l36 -46c101 33 235 86 305 125zM154 186v90h-73v-147h395
c-11 -24 -25 -49 -38 -71l71 -20c17 28 38 63 50 91h361v143h-76v-86h-690zM535 867h410v63h-888v-63h404v-97h-321v-61h321v-88h74v88h329v61h-329v97z" />
</svg>
