<?xml version="1.0" standalone="no"?>
<!DOCTYPE svg PUBLIC "-//W3C//DTD SVG 1.1//EN" "http://www.w3.org/Graphics/SVG/1.1/DTD/svg11.dtd" >
<svg xmlns="http://www.w3.org/2000/svg" xmlns:xlink="http://www.w3.org/1999/xlink" version="1.1" viewBox="-10 0 1010 1000">
   <path fill="currentColor"
d="M145 181v98h-72v-158h380c-10 -22 -22 -44 -34 -63l77 -19c17 24 34 57 45 82h384v158h-71c20 10 38 19 52 28l-35 52c-63 -40 -191 -94 -289 -128l35 -44c72 23 164 58 233 90v-96h-705zM506 461h85c37 -23 72 -46 104 -71h-189v71zM944 521h-334c-33 19 -69 39 -105 56
h220l16 -5l47 40c-64 39 -150 74 -230 99v19h363v60h-363v82c0 37 -8 53 -38 63c-31 10 -79 10 -156 10c-5 -19 -17 -42 -27 -59c60 2 115 2 129 1c16 -1 20 -5 20 -17v-80h-345v-60h345v-52h4c43 -11 91 -26 132 -44h-243c-98 40 -200 74 -300 102c-7 -15 -25 -45 -36 -60
c66 -16 131 -34 196 -56v-43h116c44 -17 86 -36 127 -56h-422v-60h374v-71h-239v-51c-20 8 -38 15 -57 22l-41 -52c85 -28 191 -73 270 -122l56 32c-62 41 -139 82 -212 113h223v-65h72v65h198v51c25 -20 48 -40 70 -62l56 34c-38 37 -81 72 -127 106h241v60z" />
</svg>
