<?xml version="1.0" standalone="no"?>
<!DOCTYPE svg PUBLIC "-//W3C//DTD SVG 1.1//EN" "http://www.w3.org/Graphics/SVG/1.1/DTD/svg11.dtd" >
<svg xmlns="http://www.w3.org/2000/svg" xmlns:xlink="http://www.w3.org/1999/xlink" version="1.1" viewBox="-10 0 1010 1000">
   <path fill="currentColor"
d="M154 181v82h-73v-139h393c-10 -23 -23 -48 -35 -69l73 -18c15 26 33 61 44 87h364v135h-76v-78h-690zM250 570h210v-66h-210v66zM250 395v63h210v-63h-210zM748 458v-63h-213v63h213zM748 570v-66h-213v66h213zM936 739h-330c92 59 232 107 354 129c-16 15 -35 41 -46 59
c-129 -31 -282 -95 -379 -170v199h-75v-196c-97 76 -248 141 -376 172c-10 -17 -29 -42 -45 -57c121 -25 262 -76 354 -136h-325v-60h392v-61h-279v-251c-21 8 -41 15 -60 21c-11 -18 -31 -44 -48 -58c102 -25 232 -79 300 -133l57 28c-50 44 -126 88 -200 121h569
c-70 -34 -158 -72 -231 -97l37 -50c102 33 239 90 310 132l-38 57c-16 -10 -35 -20 -57 -31v261h-285v61h401v60z" />
</svg>
