<?xml version="1.0" standalone="no"?>
<!DOCTYPE svg PUBLIC "-//W3C//DTD SVG 1.1//EN" "http://www.w3.org/Graphics/SVG/1.1/DTD/svg11.dtd" >
<svg xmlns="http://www.w3.org/2000/svg" xmlns:xlink="http://www.w3.org/1999/xlink" version="1.1" viewBox="-10 0 1010 1000">
   <path fill="currentColor"
d="M154 181v81h-73v-139h394c-10 -22 -22 -44 -33 -64l71 -19c16 25 34 58 45 83h362v135h-76v-77h-690zM568 241l34 -45c103 30 240 81 311 119l-36 51c-67 -38 -203 -93 -309 -125zM135 379l-38 -58c97 -23 208 -67 286 -121l57 33c-84 63 -197 117 -305 146zM508 781
l2 59c-156 27 -320 55 -435 74l-9 -65c109 -15 279 -41 442 -68zM397 696v-113h-196v113h196zM134 529h334v221h-334v-221zM801 518l69 20c-39 88 -92 166 -154 233c43 69 92 109 136 109c26 0 36 -33 41 -122c16 14 40 26 59 32c-13 124 -39 158 -104 158
c-67 0 -130 -48 -182 -128c-60 55 -127 100 -197 138c-11 -15 -38 -42 -55 -54c80 -38 153 -86 216 -144c-40 -79 -72 -178 -90 -286h-483v-61h473c-4 -32 -6 -66 -8 -99h71c1 33 4 67 8 99h149c-28 -23 -67 -47 -101 -64l46 -38c45 20 99 53 124 80l-25 22h150v61h-334
c15 88 41 168 71 234c49 -56 89 -120 120 -190z" />
</svg>
