<?xml version="1.0" standalone="no"?>
<!DOCTYPE svg PUBLIC "-//W3C//DTD SVG 1.1//EN" "http://www.w3.org/Graphics/SVG/1.1/DTD/svg11.dtd" >
<svg xmlns="http://www.w3.org/2000/svg" xmlns:xlink="http://www.w3.org/1999/xlink" version="1.1" viewBox="-10 0 1010 1000">
   <path fill="currentColor"
d="M139 177v72h-72v-128h410c-11 -22 -27 -48 -40 -68l71 -15c20 25 42 60 51 83h378v124h-73v-68h-725zM561 232l36 -40c102 23 243 63 314 92l-36 45c-70 -30 -208 -73 -314 -97zM128 328l-39 -44c91 -20 205 -53 292 -91l57 27c-93 43 -211 84 -310 108zM937 762h-359
c70 85 201 123 379 133c-15 15 -33 43 -40 63c-200 -20 -338 -75 -413 -196h-8c-56 108 -172 168 -423 198c-5 -18 -20 -45 -31 -60c215 -21 320 -64 373 -138h-349v-60h379c8 -21 14 -44 18 -68h19c-5 -6 -10 -13 -15 -19h-142v53h-65v-53h-192v-51h192v-58h-160v-50h160
v-55h-180v-52h180v-39h65v39h144v52h-144v55h124v50h-124v58h152v26c95 -38 131 -102 146 -188h-124v-56h403s-1 20 -2 29c-10 159 -21 222 -43 246c-15 16 -31 22 -55 23c-20 3 -58 2 -98 0c-1 -19 -8 -44 -18 -61c38 4 74 4 87 4c14 0 22 -1 29 -9c12 -13 22 -60 30 -176
h-143c-17 105 -56 182 -157 232h4c-4 24 -10 46 -16 68h417v60z" />
</svg>
