<?xml version="1.0" standalone="no"?>
<!DOCTYPE svg PUBLIC "-//W3C//DTD SVG 1.1//EN" "http://www.w3.org/Graphics/SVG/1.1/DTD/svg11.dtd" >
<svg xmlns="http://www.w3.org/2000/svg" xmlns:xlink="http://www.w3.org/1999/xlink" version="1.1" viewBox="-10 0 1010 1000">
   <path fill="currentColor"
d="M154 187v90h-73v-150h379c-11 -24 -24 -50 -36 -71l75 -6c15 23 31 52 43 77h377v147h-76v-87h-689zM575 262l32 -43c92 35 213 91 277 133l-33 50c-61 -42 -181 -102 -276 -140zM136 396l-37 -50c85 -32 191 -82 269 -135l51 30c-84 61 -191 119 -283 155zM209 780h203
v-58h-203v58zM412 620h-203v57h203v-57zM480 568v320c0 31 -5 45 -27 55c-21 9 -53 10 -100 9c-4 -16 -14 -36 -21 -52c32 1 59 1 69 0c8 0 11 -2 11 -12v-63h-203v129h-67v-386h338zM585 859v-270h67v270h-67zM786 882v-321h71v323c0 34 -7 50 -31 61
c-23 10 -59 10 -112 10c-4 -18 -15 -42 -23 -60c39 1 71 1 81 1c11 0 14 -3 14 -14zM342 457h323c-54 -26 -109 -58 -163 -96c-48 35 -102 68 -160 96zM515 271l57 30c-7 7 -15 15 -23 22c128 84 270 131 406 167c-16 15 -34 40 -44 61c-79 -24 -159 -52 -238 -90v50h-350
v-45c-76 36 -158 67 -237 89c-9 -18 -26 -42 -42 -58c175 -43 368 -126 471 -226z" />
</svg>
