<?xml version="1.0" standalone="no"?>
<!DOCTYPE svg PUBLIC "-//W3C//DTD SVG 1.1//EN" "http://www.w3.org/Graphics/SVG/1.1/DTD/svg11.dtd" >
<svg xmlns="http://www.w3.org/2000/svg" xmlns:xlink="http://www.w3.org/1999/xlink" version="1.1" viewBox="-10 0 1010 1000">
   <path fill="currentColor"
d="M154 179v84h-73v-138h394c-10 -22 -24 -45 -36 -65l71 -19c17 25 37 59 49 84h361v134h-76v-80h-690zM565 237l34 -43c92 26 216 71 279 105l-36 49c-61 -34 -183 -82 -277 -111zM136 363l-36 -53c98 -21 203 -63 275 -115l55 27c-77 59 -184 113 -294 141zM197 630v55
h212v-55h-212zM409 437h-212v54h212v-54zM409 588v-55h-212v55h212zM476 391v483c0 36 -8 52 -33 63c-25 10 -66 11 -129 11c-4 -17 -17 -41 -26 -57c48 2 92 1 104 0c13 0 17 -4 17 -16v-130c-81 79 -205 151 -312 187c-9 -14 -27 -36 -39 -48c98 -29 210 -86 287 -150
h-278v-49h65v-294h132c11 -27 23 -60 29 -82l70 14c-12 24 -23 47 -33 68h146zM596 663h325s-1 21 -3 30c-16 146 -33 207 -61 232c-18 17 -39 23 -69 24c-28 1 -82 1 -139 -3c-2 -18 -8 -43 -19 -60c56 5 111 6 131 6s29 -1 38 -9c18 -15 33 -61 46 -163h-335
c18 -55 37 -135 50 -201h253v-90h-275v-54h344v199h-264c-7 30 -15 61 -22 89z" />
</svg>
