<?xml version="1.0" standalone="no"?>
<!DOCTYPE svg PUBLIC "-//W3C//DTD SVG 1.1//EN" "http://www.w3.org/Graphics/SVG/1.1/DTD/svg11.dtd" >
<svg xmlns="http://www.w3.org/2000/svg" xmlns:xlink="http://www.w3.org/1999/xlink" version="1.1" viewBox="-10 0 1010 1000">
   <path fill="currentColor"
d="M154 185v87h-73v-142h391c-11 -24 -24 -49 -36 -71l72 -19c17 27 35 64 47 90h365v138h-76v-83h-690zM518 417l39 -45c55 26 124 68 160 98l-42 52c-34 -31 -102 -76 -157 -105zM494 583l40 -46c56 28 128 72 163 104l-41 51c-35 -33 -105 -79 -162 -109zM896 313l-37 52
c-64 -35 -192 -86 -291 -117l36 -46c97 28 225 75 292 111zM380 200l60 31c-81 62 -192 116 -300 146l-42 -54c97 -23 207 -68 282 -123zM197 536l-56 21c-6 -38 -29 -96 -51 -139l51 -19c26 43 48 101 56 137zM393 393l64 20c-21 47 -44 99 -63 134l-48 -17
c16 -38 37 -98 47 -137zM307 366v206h156v56h-156v14c35 24 128 97 151 116l-43 55c-20 -24 -69 -70 -108 -106v247h-67v-278c-42 83 -103 168 -161 219c-8 -19 -24 -46 -38 -60c58 -43 120 -127 159 -207h-144v-56h184v-206h67zM949 737l-116 21v200h-69v-187l-281 51
l-12 -64l293 -52v-342h69v330l106 -19z" />
</svg>
