<?xml version="1.0" standalone="no"?>
<!DOCTYPE svg PUBLIC "-//W3C//DTD SVG 1.1//EN" "http://www.w3.org/Graphics/SVG/1.1/DTD/svg11.dtd" >
<svg xmlns="http://www.w3.org/2000/svg" xmlns:xlink="http://www.w3.org/1999/xlink" version="1.1" viewBox="-10 0 1010 1000">
   <path fill="currentColor"
d="M144 180v74h-72v-131h406c-10 -22 -22 -45 -33 -65l72 -16c16 24 33 56 43 81h374v131h-73v-74h-717zM567 249l28 -48c107 22 252 63 330 95l-28 53c-74 -31 -219 -76 -330 -100zM138 336l-30 -52c95 -17 212 -45 299 -84l48 34c-95 45 -212 83 -317 102zM320 347l47 26
c-28 62 -62 137 -93 198c68 61 88 115 88 164c1 44 -13 78 -39 95c-13 9 -29 14 -47 16c-18 3 -42 3 -63 2c-1 -18 -7 -43 -18 -61c22 2 39 2 54 2c11 0 21 -3 28 -8c14 -8 19 -27 19 -52c0 -40 -21 -91 -89 -150c27 -54 54 -119 73 -172h-115v549h-67v-606h211zM692 832v60
h251v50h-578v-50h259v-60h-164v-43h164v-57h-151c-20 27 -41 51 -61 70c-12 -9 -36 -27 -51 -34c44 -37 81 -87 104 -138l58 14c-6 14 -13 28 -21 42h122v-54h-120v-44h314v44h-126v54h204v46h-204v57h176v43h-176zM759 407h-218c29 26 66 49 111 69c41 -20 78 -43 107 -69z
M816 358l42 26c-34 46 -83 86 -140 118c75 25 160 44 245 53c-13 12 -29 36 -38 53c-94 -14 -189 -40 -270 -74c-85 37 -183 63 -275 78c-6 -14 -21 -37 -33 -49c82 -12 167 -32 243 -61c-34 -20 -65 -41 -91 -65c-32 22 -67 41 -99 57c-11 -10 -35 -28 -50 -37
c83 -35 169 -88 216 -149l56 19c-9 11 -19 23 -30 34h213z" />
</svg>
