<?xml version="1.0" standalone="no"?>
<!DOCTYPE svg PUBLIC "-//W3C//DTD SVG 1.1//EN" "http://www.w3.org/Graphics/SVG/1.1/DTD/svg11.dtd" >
<svg xmlns="http://www.w3.org/2000/svg" xmlns:xlink="http://www.w3.org/1999/xlink" version="1.1" viewBox="-10 0 1010 1000">
   <path fill="currentColor"
d="M154 155v64h-73v-111h389c-10 -19 -22 -38 -33 -55l71 -16c17 21 34 49 46 71h366v108h-76v-61h-690zM568 207l38 -38c102 24 240 66 311 97l-40 42c-67 -30 -204 -74 -309 -101zM935 371v43h-870v-43h399v-43h-269v-37c-24 8 -49 16 -72 21l-39 -44
c90 -21 205 -58 291 -98l58 26c-69 34 -150 67 -228 92h259v-52h72v52h280v40h-280v43h399zM189 779v39h275v-39h-275zM189 707v37h275v-37h-275zM805 707h-271v37h271v-37zM805 818v-39h-271v39h271zM228 592h236v-37h-236v37zM228 484v36h236v-36h-236zM766 520v-36h-232
v36h232zM766 592v-37h-232v37h232zM609 901h235c48 0 58 -14 63 -85c16 10 38 17 56 21c-7 85 -27 108 -113 108h-245c-106 0 -140 -16 -141 -86h-343v-194h343v-37h-304v-180h676v180h-302v37h341v194h-341c1 33 14 42 75 42z" />
</svg>
