<?xml version="1.0" standalone="no"?>
<!DOCTYPE svg PUBLIC "-//W3C//DTD SVG 1.1//EN" "http://www.w3.org/Graphics/SVG/1.1/DTD/svg11.dtd" >
<svg xmlns="http://www.w3.org/2000/svg" xmlns:xlink="http://www.w3.org/1999/xlink" version="1.1" viewBox="-10 0 1010 1000">
   <path fill="currentColor"
d="M154 155v64h-73v-111h388c-10 -18 -22 -37 -33 -54l72 -16c16 22 34 49 45 70h367v108h-76v-61h-690zM569 200l35 -37c88 15 207 43 269 66l-36 43c-59 -23 -178 -53 -268 -72zM172 280l-43 -42c87 -13 188 -41 256 -75l59 22c-73 41 -175 76 -272 95zM462 358v-38h-394
v-39h394v-57h73v57h396v39h-396v38h329v39h-725v-39h323zM197 473v58h153v-58h-153zM418 473v58h157v-58h-157zM644 473v58h160v-58h-160zM127 575v-146h750v146h-750zM242 781v37h522v-37h-522zM242 712v34h522v-34h-522zM242 643v34h522v-34h-522zM833 853h-170
c101 21 204 47 271 67l-59 35c-68 -22 -180 -51 -296 -76l34 -26h-257l42 17c-72 38 -198 68 -296 86c-9 -12 -31 -33 -45 -44c94 -11 208 -32 274 -59h-156v-246h658v246z" />
</svg>
