<?xml version="1.0" standalone="no"?>
<!DOCTYPE svg PUBLIC "-//W3C//DTD SVG 1.1//EN" "http://www.w3.org/Graphics/SVG/1.1/DTD/svg11.dtd" >
<svg xmlns="http://www.w3.org/2000/svg" xmlns:xlink="http://www.w3.org/1999/xlink" version="1.1" viewBox="-10 0 1010 1000">
   <path fill="currentColor"
d="M950 469l-68 24c-17 -73 -63 -188 -110 -273l63 -21c49 85 96 196 115 270zM704 44v607h-71v-607h71zM498 212l67 15c-20 113 -53 235 -88 315c-13 -9 -45 -23 -62 -29c35 -78 65 -194 83 -301zM280 191l-63 24c-12 -38 -39 -98 -61 -142l61 -20c24 44 51 101 63 138z
M394 230v69h-339v-69h339zM193 702l-60 12c-3 -97 -23 -244 -46 -357l56 -12c24 115 45 259 50 357zM398 700l8 68c-120 32 -245 65 -340 89l-16 -73c51 -11 115 -26 186 -44c24 -106 47 -281 58 -402l66 14c-17 117 -41 268 -64 373zM827 529l69 22
c-79 214 -243 341 -501 406c-9 -20 -26 -49 -42 -65c245 -53 402 -169 474 -363z" />
</svg>
