<?xml version="1.0" standalone="no"?>
<!DOCTYPE svg PUBLIC "-//W3C//DTD SVG 1.1//EN" "http://www.w3.org/Graphics/SVG/1.1/DTD/svg11.dtd" >
<svg xmlns="http://www.w3.org/2000/svg" xmlns:xlink="http://www.w3.org/1999/xlink" version="1.1" viewBox="-10 0 1010 1000">
   <path fill="currentColor"
d="M260 197l-59 24c-11 -39 -37 -101 -57 -147l57 -22c23 46 47 107 59 145zM351 230v69h-297v-69h297zM180 701l-57 13c-4 -97 -22 -244 -41 -357l54 -12c21 114 39 258 44 356zM271 722l81 -25l7 69c-103 32 -211 67 -294 91l-16 -73c46 -11 103 -28 166 -46
c20 -106 40 -279 49 -400l64 14c-16 116 -37 266 -57 370zM618 867l-51 40c-23 -37 -71 -95 -113 -135l49 -36c42 39 92 94 115 131zM695 499v60l134 -3c-17 -17 -36 -33 -54 -47l16 -10h-96zM482 451h148v-63h-148v63zM482 281v62h148v-62h-148zM848 281h-153v62h153v-62z
M848 451v-63h-153v63h153zM831 610v66h125v60h-125v142c0 41 -7 59 -36 70c-28 10 -73 10 -142 10c-2 -20 -12 -45 -20 -64c54 2 100 2 115 0c14 0 17 -4 17 -17v-141h-400v-60h400v-63c-141 5 -277 9 -379 11l-6 -60c68 0 155 -1 250 -3v-62h-211v-265h211v-56h-241v-57
h241v-70h65v70h254v57h-254v56h219v265h-68c45 37 93 84 118 119l-48 33c-9 -13 -21 -27 -35 -43z" />
</svg>
