<?xml version="1.0" standalone="no"?>
<!DOCTYPE svg PUBLIC "-//W3C//DTD SVG 1.1//EN" "http://www.w3.org/Graphics/SVG/1.1/DTD/svg11.dtd" >
<svg xmlns="http://www.w3.org/2000/svg" xmlns:xlink="http://www.w3.org/1999/xlink" version="1.1" viewBox="-10 0 1010 1000">
   <path fill="currentColor"
d="M279 199l-64 23c-12 -40 -40 -102 -63 -148l61 -21c25 45 53 106 66 146zM279 728l79 -20l7 69c-105 29 -215 57 -301 80l-15 -73c46 -10 106 -24 171 -41c25 -108 52 -282 64 -405l65 14c-18 117 -45 270 -70 376zM85 357l56 -11c22 114 43 257 48 356l-60 12
c-4 -98 -23 -245 -44 -357zM53 300v-70h312v70h-312zM608 851l-48 42c-23 -28 -73 -72 -112 -102l45 -37c39 27 90 69 115 97zM483 529v54h349v-54h-349zM578 339h-95v145h349v-44c-8 0 -23 1 -33 1h-49c-17 0 -36 -3 -45 -12c-11 -8 -14 -22 -14 -57v-33h-67v6
c0 42 -20 93 -91 128c-8 -11 -26 -26 -37 -31c66 -30 82 -66 82 -98v-5zM623 229v57h67v-57h-67zM832 398v-59h-94v41c0 10 0 17 4 19c3 2 9 2 17 2h35h22h11c2 -1 4 -2 5 -3zM956 695v59h-165v128c0 35 -7 50 -33 60c-26 9 -67 10 -130 10c-4 -18 -13 -40 -21 -57
c47 1 89 1 101 1c13 -1 16 -4 16 -15v-127h-343v-59h343v-58h-301v-351h149v-57h-178v-57h152c-16 -29 -43 -72 -66 -103l57 -25c25 34 56 77 71 105l-45 23h129c27 -37 59 -91 76 -128l68 22c-23 35 -49 74 -72 106h174v57h-196v57h153v351h-104v58h165z" />
</svg>
