<?xml version="1.0" standalone="no"?>
<!DOCTYPE svg PUBLIC "-//W3C//DTD SVG 1.1//EN" "http://www.w3.org/Graphics/SVG/1.1/DTD/svg11.dtd" >
<svg xmlns="http://www.w3.org/2000/svg" xmlns:xlink="http://www.w3.org/1999/xlink" version="1.1" viewBox="-10 0 1010 1000">
   <path fill="currentColor"
d="M912 121v59h-410v-59h170c-5 -22 -13 -47 -19 -68l63 -11c9 24 19 54 26 79h170zM935 300v60h-439v-60h104c-7 -27 -21 -68 -34 -99l61 -13c14 31 29 72 36 97l-56 15h134c16 -33 33 -79 43 -110l69 15c-15 33 -32 67 -46 95h128zM460 121v59h-396v-59h168
c-5 -22 -13 -47 -19 -68l61 -11c9 24 19 54 25 79h161zM482 300v61h-425v-61h104c-7 -27 -21 -68 -34 -99l60 -13c14 31 28 72 35 97l-55 15h131c14 -33 33 -78 42 -111l67 16c-15 33 -31 67 -46 95h121zM142 577v69h236v-69h-236zM142 464v65h236v-65h-236zM349 829l79 -60
c5 18 12 44 18 56c-114 92 -142 115 -155 131l-4 6c-7 -17 -27 -48 -39 -62c14 -16 37 -53 37 -102v-102h-57c-11 124 -43 208 -154 260c-8 -17 -29 -43 -43 -55c96 -39 121 -105 130 -205h-81v-282h363v282h-94v133zM582 577v68h242v-68h-242zM582 463v66h242v-66h-242z
M821 890h41c11 0 23 -1 28 -4c6 -2 12 -10 15 -22c3 -14 4 -46 5 -85c13 11 36 23 55 29c-2 39 -6 82 -12 98s-17 26 -32 32c-13 6 -38 9 -56 9h-58c-21 0 -48 -6 -61 -17c-17 -12 -23 -28 -23 -81v-154h-67c-13 127 -52 209 -185 259c-8 -17 -27 -43 -42 -55
c115 -38 147 -103 159 -204h-70v-282h373v282h-100v161c0 16 1 26 7 29c5 3 12 5 23 5z" />
</svg>
