<?xml version="1.0" standalone="no"?>
<!DOCTYPE svg PUBLIC "-//W3C//DTD SVG 1.1//EN" "http://www.w3.org/Graphics/SVG/1.1/DTD/svg11.dtd" >
<svg xmlns="http://www.w3.org/2000/svg" xmlns:xlink="http://www.w3.org/1999/xlink" version="1.1" viewBox="-10 0 1010 1000">
   <path fill="currentColor"
d="M649 202h-73c-32 46 -67 87 -103 120c-14 -12 -44 -35 -62 -44c71 -56 133 -145 167 -238l72 18c-11 27 -22 54 -36 80h335v64h-221c25 34 47 73 59 99l-66 27c-11 -36 -42 -85 -72 -126zM239 202h-46c-29 48 -63 91 -95 125c-14 -12 -44 -33 -62 -42
c66 -59 124 -152 158 -245l70 18c-10 27 -22 54 -36 80h258v64h-173c20 36 38 76 46 105l-66 23c-8 -33 -31 -85 -54 -128zM342 547l52 -48c81 57 174 141 217 202l-56 53c-40 -61 -132 -148 -213 -207zM766 872h92c28 0 32 -26 35 -163c18 13 48 26 69 32
c-8 156 -26 201 -98 201h-108c-74 0 -96 -23 -96 -110v-407h-349v120c0 136 -33 305 -220 413c-9 -16 -35 -44 -51 -55c174 -99 198 -240 198 -360v-189h495v479c0 33 5 39 33 39z" />
</svg>
