<?xml version="1.0" standalone="no"?>
<!DOCTYPE svg PUBLIC "-//W3C//DTD SVG 1.1//EN" "http://www.w3.org/Graphics/SVG/1.1/DTD/svg11.dtd" >
<svg xmlns="http://www.w3.org/2000/svg" xmlns:xlink="http://www.w3.org/1999/xlink" version="1.1" viewBox="-10 0 1010 1000">
   <path fill="currentColor"
d="M647 206h-64c-30 52 -64 98 -100 133c-14 -11 -45 -33 -63 -43c69 -61 127 -157 158 -257l73 17c-10 29 -22 59 -34 86h324v64h-212c27 36 50 75 62 103l-66 28c-13 -35 -45 -87 -78 -131zM237 206h-41c-29 56 -61 107 -94 146c-14 -12 -45 -32 -63 -41
c64 -68 118 -170 150 -272l70 17c-9 29 -20 58 -33 86h262v64h-177c21 37 39 77 48 105l-65 26c-9 -34 -33 -87 -57 -131zM943 584v69h-399v211c0 46 -12 68 -47 79c-34 12 -91 13 -180 13c-4 -20 -18 -52 -28 -73c70 3 137 3 157 2c18 -1 24 -6 24 -22v-210h-414v-69h414
v-155h-325v-68h718v68h-319v155h399z" />
</svg>
