<?xml version="1.0" standalone="no"?>
<!DOCTYPE svg PUBLIC "-//W3C//DTD SVG 1.1//EN" "http://www.w3.org/Graphics/SVG/1.1/DTD/svg11.dtd" >
<svg xmlns="http://www.w3.org/2000/svg" xmlns:xlink="http://www.w3.org/1999/xlink" version="1.1" viewBox="-10 0 1010 1000">
   <path fill="currentColor"
d="M238 200h-37c-31 59 -67 113 -103 154c-13 -12 -44 -32 -62 -42c66 -66 123 -169 156 -273l71 18c-9 27 -19 53 -31 79h254v64h-174c21 35 40 73 50 100l-67 21c-10 -32 -33 -80 -57 -121zM950 136v64h-223c27 36 53 75 65 105l-64 25c-14 -35 -48 -88 -82 -130h-70
c-20 34 -42 66 -65 94h49v129l221 -54l13 -10l15 -11l53 23l-4 14c-3 138 -9 234 -27 276c-13 40 -39 56 -70 60c-28 5 -75 5 -107 4c-2 -19 -11 -50 -20 -67c33 3 77 2 91 2c20 0 34 -4 44 -32c9 -27 13 -93 15 -190l-224 54v282h-74v-264l-202 49v244c0 54 19 67 116 67
h347c82 0 96 -24 107 -139c17 12 49 23 70 27c-14 140 -43 181 -176 181h-344c-148 0 -192 -27 -192 -137v-225l-142 34l-17 -66l159 -38v-174h72v156l202 -49v-117c-6 7 -12 13 -18 19c-15 -13 -45 -33 -63 -43c71 -62 131 -158 164 -260l72 18c-9 27 -20 53 -32 79h341z
" />
</svg>
