<?xml version="1.0" standalone="no"?>
<!DOCTYPE svg PUBLIC "-//W3C//DTD SVG 1.1//EN" "http://www.w3.org/Graphics/SVG/1.1/DTD/svg11.dtd" >
<svg xmlns="http://www.w3.org/2000/svg" xmlns:xlink="http://www.w3.org/1999/xlink" version="1.1" viewBox="-10 0 1010 1000">
   <path fill="currentColor"
d="M244 195h-48c-30 50 -65 96 -99 131c-14 -12 -44 -32 -62 -41c66 -60 124 -152 158 -245l71 18c-10 25 -21 49 -34 74h247v63h-158c19 33 36 69 44 95l-67 23c-9 -31 -30 -78 -52 -118zM725 724v65h-644v-65h644zM749 560h167s-1 22 -2 33c-17 209 -32 291 -61 321
c-19 20 -39 27 -68 29c-27 2 -78 2 -131 -1c-2 -22 -10 -50 -22 -69c53 5 102 6 122 6c18 0 27 -2 37 -11c20 -19 33 -85 47 -243h-631c17 -52 34 -129 47 -191l73 8c-7 37 -17 80 -27 118h378c10 -53 19 -116 26 -167h-545v-67h559l12 -3l52 7c-8 70 -20 156 -33 230z
M619 132h316v63h-202c23 33 43 69 54 96l-65 25c-11 -33 -39 -81 -67 -121h-70c-28 49 -63 92 -97 125c-14 -11 -44 -33 -63 -42c67 -58 122 -145 152 -238l73 17c-9 25 -19 50 -31 75z" />
</svg>
