<?xml version="1.0" standalone="no"?>
<!DOCTYPE svg PUBLIC "-//W3C//DTD SVG 1.1//EN" "http://www.w3.org/Graphics/SVG/1.1/DTD/svg11.dtd" >
<svg xmlns="http://www.w3.org/2000/svg" xmlns:xlink="http://www.w3.org/1999/xlink" version="1.1" viewBox="-10 0 1010 1000">
   <path fill="currentColor"
d="M271 200h-57c-34 55 -73 104 -113 142c-13 -12 -44 -35 -60 -45c71 -62 136 -158 170 -260l73 19c-10 28 -22 56 -36 82h246v62h-153c19 37 38 79 48 105l-62 27c-11 -33 -35 -88 -56 -132zM384 592h260v-165h-259v135c0 9 0 20 -1 30zM718 427v165h220v68h-220v297h-74
v-297h-268c-20 111 -86 225 -257 302c-7 -18 -29 -50 -43 -63c148 -65 206 -152 226 -239h-234v-68h243c1 -11 1 -21 1 -32v-133h-180v-68h747v68h-161zM645 138h304v62h-179c25 37 52 76 67 102l-61 30c-18 -33 -53 -87 -84 -132h-74c-25 51 -54 96 -86 132
c-14 -11 -44 -32 -63 -42c60 -61 106 -155 132 -253l72 17c-8 28 -17 57 -28 84z" />
</svg>
