<?xml version="1.0" standalone="no"?>
<!DOCTYPE svg PUBLIC "-//W3C//DTD SVG 1.1//EN" "http://www.w3.org/Graphics/SVG/1.1/DTD/svg11.dtd" >
<svg xmlns="http://www.w3.org/2000/svg" xmlns:xlink="http://www.w3.org/1999/xlink" version="1.1" viewBox="-10 0 1010 1000">
   <path fill="currentColor"
d="M269 196h-59c-30 47 -64 89 -99 122c-13 -10 -45 -29 -62 -39c67 -57 126 -147 159 -241l71 17c-10 27 -21 54 -34 79h245v62h-146c17 33 34 69 41 94l-65 24c-9 -31 -29 -78 -51 -118zM940 134v62h-176c24 33 47 69 59 95l-66 23c-14 -31 -43 -78 -73 -118h-78
c-21 36 -44 69 -69 97v69v19h335v482c0 39 -8 59 -36 71c-28 11 -74 12 -145 12c-3 -20 -14 -48 -24 -67c53 2 101 2 114 1c15 -1 19 -5 19 -18v-415h-267c-3 25 -8 52 -16 78c91 69 194 160 244 223l-51 45c-45 -57 -133 -140 -215 -208c-38 79 -106 157 -231 220
c-11 -16 -34 -40 -50 -51c180 -89 233 -204 248 -307h-263v507h-73v-573h342v-21v-77h29c-12 -7 -25 -15 -34 -18c59 -55 104 -140 130 -226l73 15c-8 27 -19 54 -30 80h304z" />
</svg>
