<?xml version="1.0" standalone="no"?>
<!DOCTYPE svg PUBLIC "-//W3C//DTD SVG 1.1//EN" "http://www.w3.org/Graphics/SVG/1.1/DTD/svg11.dtd" >
<svg xmlns="http://www.w3.org/2000/svg" xmlns:xlink="http://www.w3.org/1999/xlink" version="1.1" viewBox="-10 0 1010 1000">
   <path fill="currentColor"
d="M660 201h-73c-27 51 -61 96 -95 131c-13 -11 -45 -32 -62 -42c65 -61 118 -154 147 -251l73 17c-9 27 -19 55 -30 81h312v64h-198c19 31 37 65 45 88l-65 24c-10 -30 -33 -75 -54 -112zM248 201h-51c-29 55 -62 105 -94 143c-14 -12 -45 -31 -63 -41
c63 -65 116 -165 147 -264l71 18c-8 27 -19 54 -31 80h250v64h-154c22 40 42 84 52 115l-66 24c-9 -35 -35 -92 -61 -139zM574 882h219c49 0 57 -19 63 -110c18 13 47 24 69 29c-10 114 -34 146 -128 146h-227c-112 0 -143 -23 -143 -113v-80l-358 31l-8 -66l366 -31v-103
l-310 27l-7 -63l317 -27v-90c-94 10 -189 17 -279 22c-2 -18 -10 -44 -17 -61c238 -16 514 -45 674 -84l41 60c-95 22 -217 41 -345 55v92l343 -30l7 62l-350 30v104l433 -37l8 64l-441 38v86c0 40 11 49 73 49z" />
</svg>
