<?xml version="1.0" standalone="no"?>
<!DOCTYPE svg PUBLIC "-//W3C//DTD SVG 1.1//EN" "http://www.w3.org/Graphics/SVG/1.1/DTD/svg11.dtd" >
<svg xmlns="http://www.w3.org/2000/svg" xmlns:xlink="http://www.w3.org/1999/xlink" version="1.1" viewBox="-10 0 1010 1000">
   <path fill="currentColor"
d="M682 189h-75c-24 44 -53 83 -82 114c-14 -12 -45 -31 -64 -39c60 -54 105 -138 132 -224l72 15c-8 25 -16 49 -27 73h301v61h-178c24 32 46 67 58 91l-65 28c-12 -33 -42 -79 -72 -119zM242 836l35 -58c138 27 337 76 442 111l-37 68c-99 -37 -296 -91 -440 -121z
M347 695l46 -49c86 26 200 69 264 97l-46 56c-63 -31 -177 -76 -264 -104zM668 395h-311c41 40 94 76 154 109c62 -33 116 -69 157 -109zM737 334l49 32c-49 67 -120 124 -202 172c113 48 246 82 380 100c-17 16 -36 46 -46 66c-144 -24 -286 -67 -407 -128
c-134 65 -288 109 -432 134c-6 -19 -21 -47 -35 -63c131 -20 273 -57 396 -110c-52 -31 -99 -68 -138 -107c-47 35 -101 67 -162 95c-11 -16 -33 -40 -50 -51c127 -54 222 -126 279 -194l-57 21c-7 -30 -26 -75 -46 -112h-55c-30 46 -64 87 -99 120c-14 -11 -44 -30 -62 -39
c67 -56 125 -141 158 -232l71 16c-10 25 -20 50 -33 74h244v61h-151c16 29 29 60 37 83l6 -8l79 15c-15 20 -32 39 -52 59h315z" />
</svg>
