<?xml version="1.0" standalone="no"?>
<!DOCTYPE svg PUBLIC "-//W3C//DTD SVG 1.1//EN" "http://www.w3.org/Graphics/SVG/1.1/DTD/svg11.dtd" >
<svg xmlns="http://www.w3.org/2000/svg" xmlns:xlink="http://www.w3.org/1999/xlink" version="1.1" viewBox="-10 0 1010 1000">
   <path fill="currentColor"
d="M239 200h-50c-28 47 -59 88 -90 121c-12 -11 -43 -31 -60 -41c61 -58 115 -150 147 -241l70 18c-9 26 -21 53 -33 78h263v65h-167c24 31 46 66 57 90l-63 27c-14 -30 -44 -78 -74 -117zM767 712h-525v142h525v-142zM171 957v-311h670v309h-74v-36h-525v38h-71zM100 333
h767s-2 22 -4 32c-16 130 -31 187 -58 211c-18 18 -40 23 -70 25c-28 1 -86 1 -145 -3c-1 -20 -10 -46 -22 -65c58 5 117 6 138 6c20 0 31 -1 40 -9c15 -13 27 -51 38 -132h-303c-49 126 -149 215 -389 261c-7 -18 -23 -46 -37 -60c216 -35 304 -108 347 -201h-302v-65z
M615 135h326v65h-200c22 32 44 66 55 91l-68 25c-12 -31 -40 -77 -68 -116h-76c-25 48 -56 91 -88 124c-13 -11 -42 -31 -60 -41c63 -59 113 -149 141 -244l69 15c-9 27 -19 55 -31 81z" />
</svg>
