<?xml version="1.0" standalone="no"?>
<!DOCTYPE svg PUBLIC "-//W3C//DTD SVG 1.1//EN" "http://www.w3.org/Graphics/SVG/1.1/DTD/svg11.dtd" >
<svg xmlns="http://www.w3.org/2000/svg" xmlns:xlink="http://www.w3.org/1999/xlink" version="1.1" viewBox="-10 0 1010 1000">
   <path fill="currentColor"
d="M269 195h-56c-32 53 -68 99 -104 135c-14 -11 -44 -30 -61 -40c68 -61 128 -153 162 -251l70 17c-10 26 -21 53 -34 78h245v61h-148c20 35 36 72 45 99l-64 26c-10 -33 -32 -84 -55 -125zM697 462v60h-609v-60h609zM539 655h-282v135h282v-135zM612 848h-355v48h-73v-299
h428v251zM803 326h35v536c0 43 -9 66 -40 78c-32 13 -83 14 -162 14c-3 -22 -14 -54 -25 -75c59 2 115 2 132 2c16 -1 21 -6 21 -20v-473h-623v-63zM638 134h303v61h-177c23 32 46 67 56 94l-63 27c-13 -33 -42 -82 -73 -121h-74c-25 50 -55 95 -87 129
c-13 -12 -44 -32 -61 -42c59 -59 106 -149 132 -243l72 17c-8 26 -17 53 -28 78z" />
</svg>
