<?xml version="1.0" standalone="no"?>
<!DOCTYPE svg PUBLIC "-//W3C//DTD SVG 1.1//EN" "http://www.w3.org/Graphics/SVG/1.1/DTD/svg11.dtd" >
<svg xmlns="http://www.w3.org/2000/svg" xmlns:xlink="http://www.w3.org/1999/xlink" version="1.1" viewBox="-10 0 1010 1000">
   <path fill="currentColor"
d="M240 200h-46c-30 52 -62 99 -95 136c-12 -12 -43 -32 -60 -41c61 -64 116 -160 148 -256l69 18c-9 26 -19 53 -30 78h261v65h-167c24 33 48 69 60 94l-64 29c-15 -33 -45 -82 -76 -123zM463 580v-146c-74 5 -149 8 -220 10c-9 45 -19 94 -28 136h248zM942 135v65h-200
c22 32 44 67 54 91l-67 26c-12 -32 -40 -78 -69 -117h-75c-19 35 -40 68 -64 96h14v65c97 -8 186 -19 254 -30l38 63c-80 14 -183 26 -292 34v152h366s-1 21 -3 31c-16 144 -31 206 -58 231c-17 17 -35 22 -63 24c-25 2 -73 2 -123 -1c-1 -21 -9 -47 -20 -66
c47 4 93 5 112 5c15 0 26 -1 34 -9c16 -14 28 -56 40 -152h-285v314h-72v-273c-96 103 -238 192 -367 238c-11 -19 -32 -44 -48 -60c133 -40 278 -124 368 -219h-290c19 -69 42 -178 56 -261h1c89 -3 187 -8 280 -15v-67c-10 -6 -19 -12 -26 -16c62 -59 113 -150 141 -245
l69 15c-9 27 -19 55 -31 81h326z" />
</svg>
