<?xml version="1.0" standalone="no"?>
<!DOCTYPE svg PUBLIC "-//W3C//DTD SVG 1.1//EN" "http://www.w3.org/Graphics/SVG/1.1/DTD/svg11.dtd" >
<svg xmlns="http://www.w3.org/2000/svg" xmlns:xlink="http://www.w3.org/1999/xlink" version="1.1" viewBox="-10 0 1010 1000">
   <path fill="currentColor"
d="M656 204h-57c-27 50 -57 95 -90 131c-14 -13 -44 -34 -62 -43c62 -62 113 -155 141 -252l73 18c-9 28 -19 56 -31 83h313v63h-204c29 37 55 77 68 106l-67 28c-15 -36 -50 -90 -84 -134zM227 204h-29c-29 57 -63 109 -97 149c-14 -12 -44 -33 -62 -42
c63 -66 118 -169 149 -271l72 18c-9 28 -20 56 -32 83h266v63h-192c19 35 37 72 46 99l-64 28c-9 -33 -33 -85 -57 -127zM278 672h472c-81 -23 -161 -52 -234 -87c-75 36 -156 64 -238 87zM294 855h439v-125h-439v125zM366 410l-12 10c43 35 98 68 160 97
c61 -32 115 -67 158 -107h-306zM741 350l48 34c-50 64 -120 119 -201 165c117 45 250 79 377 97c-16 16 -36 46 -47 65c-36 -7 -74 -14 -111 -24v270h-74v-39h-439v39h-70v-271c-50 13 -100 23 -148 31c-6 -17 -21 -44 -33 -59c130 -18 275 -55 401 -109
c-51 -29 -98 -60 -136 -94c-55 39 -119 76 -193 107c-9 -16 -29 -42 -43 -54c147 -56 255 -138 313 -210l76 15c-11 14 -23 27 -36 41h303z" />
</svg>
