<?xml version="1.0" standalone="no"?>
<!DOCTYPE svg PUBLIC "-//W3C//DTD SVG 1.1//EN" "http://www.w3.org/Graphics/SVG/1.1/DTD/svg11.dtd" >
<svg xmlns="http://www.w3.org/2000/svg" xmlns:xlink="http://www.w3.org/1999/xlink" version="1.1" viewBox="-10 0 1010 1000">
   <path fill="currentColor"
d="M238 199h-47c-29 53 -62 100 -95 138c-13 -12 -43 -31 -61 -40c64 -64 119 -161 151 -258l70 18c-9 26 -20 52 -31 77h261v65h-175c15 31 29 65 35 88l-67 21c-6 -29 -23 -72 -41 -109zM817 456h-167v158h167v-158zM650 844h167v-164h-167v164zM181 680v164h161v-164
h-161zM342 456h-161v158h161v-158zM578 680h-164v164h164v-164zM578 456h-164v158h164v-158zM650 295v94h239v565h-72v-43h-636v46h-69v-568h230v-94h72v94h164v-94h72zM613 134h341v65h-220c24 33 48 69 60 95l-66 27c-13 -32 -44 -81 -74 -122h-80c-29 43 -62 82 -96 112
c-13 -11 -43 -33 -60 -42c68 -56 127 -140 159 -230l71 17c-10 27 -22 53 -35 78z" />
</svg>
