<?xml version="1.0" standalone="no"?>
<!DOCTYPE svg PUBLIC "-//W3C//DTD SVG 1.1//EN" "http://www.w3.org/Graphics/SVG/1.1/DTD/svg11.dtd" >
<svg xmlns="http://www.w3.org/2000/svg" xmlns:xlink="http://www.w3.org/1999/xlink" version="1.1" viewBox="-10 0 1010 1000">
   <path fill="currentColor"
d="M656 191h-58c-29 48 -61 91 -94 124c-14 -12 -44 -33 -63 -43c64 -56 116 -142 144 -233l72 16c-7 25 -17 48 -27 72h303v64h-197c23 32 45 67 59 90l-65 30c-16 -31 -47 -80 -74 -120zM657 360l42 -46c56 25 130 63 171 87l-41 52c-41 -27 -116 -68 -172 -93zM240 191
h-45c-28 50 -61 95 -93 129c-14 -10 -44 -31 -62 -41c62 -59 116 -150 147 -240l70 17c-8 24 -18 47 -29 71h254v64h-169c19 35 39 74 51 100l-66 23c-12 -30 -37 -81 -58 -123zM272 313l72 25c-21 41 -48 84 -77 126v493h-73v-398c-35 41 -74 78 -113 110
c-9 -16 -28 -45 -41 -60c93 -75 186 -196 232 -296zM825 558l69 26c-50 75 -117 139 -194 193c44 66 94 104 146 104c29 -1 40 -37 45 -137c17 14 43 29 63 35c-13 139 -41 175 -113 175c-79 0 -148 -51 -204 -136c-83 51 -176 93 -270 124c-9 -16 -31 -47 -46 -63
c101 -28 198 -69 282 -120c-29 -58 -53 -129 -71 -206l-210 18l-7 -68l205 -18c-10 -53 -15 -109 -18 -166h75c2 56 8 109 16 160l335 -28l7 65l-329 30c16 64 37 123 60 172c65 -46 119 -100 159 -160z" />
</svg>
