<?xml version="1.0" standalone="no"?>
<!DOCTYPE svg PUBLIC "-//W3C//DTD SVG 1.1//EN" "http://www.w3.org/Graphics/SVG/1.1/DTD/svg11.dtd" >
<svg xmlns="http://www.w3.org/2000/svg" xmlns:xlink="http://www.w3.org/1999/xlink" version="1.1" viewBox="-10 0 1010 1000">
   <path fill="currentColor"
d="M657 188h-76c-24 43 -53 80 -83 110c-13 -12 -45 -30 -62 -39c60 -53 109 -135 136 -219l70 15c-8 25 -18 48 -28 71h327v62h-200c23 30 46 62 58 87l-66 27c-14 -31 -44 -77 -76 -114zM521 296h74v118c90 -30 182 -67 240 -101l51 54c-80 41 -190 78 -291 108v51
c0 28 10 33 58 33h167c42 0 50 -16 54 -118c18 12 46 22 66 26c-8 124 -31 155 -114 155h-180c-99 0 -125 -21 -125 -96v-230zM216 559l264 -49c-2 19 -2 46 0 61c-286 57 -322 65 -344 77c-4 -16 -16 -45 -25 -57c13 -6 33 -19 33 -57v-241h72v85h252v62h-252v119zM266 187
h-73c-29 49 -63 93 -95 128c-15 -12 -44 -32 -62 -40c63 -59 118 -147 150 -235l70 17c-9 24 -18 46 -30 69h260v61h-144c19 30 37 63 44 88l-64 25c-10 -30 -33 -75 -56 -113zM945 704v70h-412v181h-76v-181h-402v-70h402v-99h76v99h412z" />
</svg>
