<?xml version="1.0" standalone="no"?>
<!DOCTYPE svg PUBLIC "-//W3C//DTD SVG 1.1//EN" "http://www.w3.org/Graphics/SVG/1.1/DTD/svg11.dtd" >
<svg xmlns="http://www.w3.org/2000/svg" xmlns:xlink="http://www.w3.org/1999/xlink" version="1.1" viewBox="-10 0 1010 1000">
   <path fill="currentColor"
d="M240 203h-45c-28 54 -60 102 -93 139c-13 -10 -44 -31 -61 -41c61 -65 115 -163 147 -262l71 18c-10 27 -20 56 -32 82h261v64h-175c19 37 36 77 43 105l-65 27c-8 -35 -30 -88 -51 -132zM335 407v105h195v65h-195v32c41 27 160 119 189 142l-48 57
c-27 -30 -92 -89 -141 -131v279h-70v-292c-52 91 -120 176 -184 227c-12 -17 -34 -41 -50 -54c79 -54 163 -158 214 -260h-189v-65h209v-93c-61 10 -123 17 -181 22c-3 -14 -13 -39 -21 -54c135 -13 295 -40 379 -71l58 48c-46 17 -103 31 -165 43zM590 781v-419h71v419h-71
zM828 868v-538h72v538c0 45 -11 65 -42 76c-31 12 -83 13 -165 12c-3 -19 -14 -49 -25 -69c62 2 121 2 138 2c16 -1 22 -6 22 -21zM615 139h331v64h-221c28 36 52 77 64 106l-63 27c-13 -36 -46 -89 -79 -133h-69c-32 52 -68 97 -106 132c-14 -11 -45 -33 -63 -43
c73 -61 134 -154 168 -253l72 18c-10 28 -22 56 -34 82z" />
</svg>
