<?xml version="1.0" standalone="no"?>
<!DOCTYPE svg PUBLIC "-//W3C//DTD SVG 1.1//EN" "http://www.w3.org/Graphics/SVG/1.1/DTD/svg11.dtd" >
<svg xmlns="http://www.w3.org/2000/svg" xmlns:xlink="http://www.w3.org/1999/xlink" version="1.1" viewBox="-10 0 1010 1000">
   <path fill="currentColor"
d="M242 192h-52c-28 47 -60 91 -91 124c-14 -12 -43 -31 -61 -40c62 -59 116 -148 148 -237l69 18c-9 25 -20 49 -32 74h263v61h-170c18 33 33 66 41 91l-65 24c-8 -30 -29 -77 -50 -115zM757 383h-490v81h490v-81zM267 602h490v-84h-490v84zM456 660h-189v198l294 -37
c1 18 4 49 7 64c-314 44 -356 51 -378 61l-2 2c-7 -19 -26 -56 -38 -73c18 -11 44 -35 44 -75v-476h281c-6 -15 -13 -30 -20 -43c-11 -7 -22 -14 -30 -18c65 -55 121 -138 150 -224l71 18c-9 25 -21 49 -32 74h326v61h-197c24 32 45 65 55 91l-66 27
c-12 -32 -41 -80 -70 -118h-84c-16 26 -34 50 -53 72c11 19 23 41 31 60h274v336h-303c28 44 63 82 107 116c74 -35 171 -90 228 -130l52 45c-66 43 -153 88 -227 120c74 41 162 69 264 84c-16 16 -35 43 -45 63c-213 -38 -367 -138 -450 -298z" />
</svg>
