<?xml version="1.0" standalone="no"?>
<!DOCTYPE svg PUBLIC "-//W3C//DTD SVG 1.1//EN" "http://www.w3.org/Graphics/SVG/1.1/DTD/svg11.dtd" >
<svg xmlns="http://www.w3.org/2000/svg" xmlns:xlink="http://www.w3.org/1999/xlink" version="1.1" viewBox="-10 0 1010 1000">
   <path fill="currentColor"
d="M659 189h-62c-20 31 -42 59 -64 81c-13 -12 -43 -32 -61 -42c52 -46 94 -117 118 -189l70 15c-8 25 -18 48 -29 72h294v63h-184c24 31 45 66 56 91l-67 26c-12 -31 -41 -79 -71 -117zM912 495h-73v-109h-678v109h-71v-173h361c-10 -21 -22 -43 -34 -62l62 -24
c19 26 37 61 47 86h386v173zM778 521h-559v-62h559v62zM247 189h-56c-27 47 -59 89 -90 121c-14 -10 -43 -31 -61 -40c61 -58 115 -144 146 -231l70 17c-9 24 -19 47 -30 70h260v63h-163c20 32 38 67 46 92l-65 22c-10 -30 -33 -77 -57 -114zM695 876h141
c35 0 41 -13 44 -100c16 12 47 23 67 28c-8 112 -31 141 -104 141h-155c-92 0 -115 -22 -115 -99v-183h-160c-24 159 -93 248 -329 294c-6 -18 -23 -48 -38 -63c212 -36 272 -103 293 -231h-276v-65h877v65h-294v183c0 25 7 30 49 30z" />
</svg>
