<?xml version="1.0" standalone="no"?>
<!DOCTYPE svg PUBLIC "-//W3C//DTD SVG 1.1//EN" "http://www.w3.org/Graphics/SVG/1.1/DTD/svg11.dtd" >
<svg xmlns="http://www.w3.org/2000/svg" xmlns:xlink="http://www.w3.org/1999/xlink" version="1.1" viewBox="-10 0 1010 1000">
   <path fill="currentColor"
d="M784 604v-81h-253v81h253zM531 745h253v-84h-253v84zM226 745h234v-84h-234v84zM460 523h-234v81h234v-81zM935 119v60h-200c22 29 43 60 54 84l-55 18h38l15 -3l50 39c-64 45 -151 86 -236 118c33 10 63 20 87 29h172v410c0 39 -10 60 -41 71c-30 11 -79 11 -152 11
c-5 -18 -18 -47 -29 -65c57 2 110 2 126 2c15 -1 20 -6 20 -19v-74h-253v141h-71v-141h-234v155h-75v-491h353c-65 -19 -137 -37 -200 -49l47 -43c49 9 103 22 157 36c58 -18 121 -43 173 -69h-498v-58h537c-13 -29 -39 -68 -66 -102h-82c-28 37 -59 70 -90 96
c-13 -11 -46 -28 -63 -37c22 -17 44 -37 64 -59h-175c16 26 30 55 38 76l-66 21c-7 -26 -28 -65 -47 -97h-44c-28 42 -59 80 -89 110c-13 -12 -43 -32 -61 -41c61 -52 115 -131 146 -209l69 18c-9 21 -18 42 -29 62h262v56c35 -41 66 -88 85 -136l70 17c-9 21 -19 43 -31 63
h324z" />
</svg>
