<?xml version="1.0" standalone="no"?>
<!DOCTYPE svg PUBLIC "-//W3C//DTD SVG 1.1//EN" "http://www.w3.org/Graphics/SVG/1.1/DTD/svg11.dtd" >
<svg xmlns="http://www.w3.org/2000/svg" xmlns:xlink="http://www.w3.org/1999/xlink" version="1.1" viewBox="-10 0 1010 1000">
   <path fill="currentColor"
d="M683 202h-72c-25 52 -54 98 -86 135c-14 -11 -45 -31 -64 -40c61 -63 107 -159 133 -258l72 15c-8 29 -17 58 -28 86h302v62h-178c30 39 59 83 73 114l-65 27c-15 -37 -52 -95 -87 -141zM720 465l70 13c-12 43 -28 84 -45 122c62 51 136 119 172 164l-51 51
c-31 -43 -93 -105 -152 -156c-33 60 -73 112 -118 152c-12 -12 -41 -35 -57 -45c83 -69 147 -179 181 -301zM268 202h-57c-33 55 -70 103 -110 141c-13 -10 -44 -29 -62 -38c74 -64 135 -163 169 -267l72 17c-11 29 -23 58 -37 85h248v62h-150c22 39 41 83 49 113l-66 23
c-9 -35 -32 -90 -56 -136zM270 465l69 14c-11 42 -25 82 -42 119c55 48 120 111 151 153l-52 46c-26 -37 -78 -93 -127 -140c-36 65 -79 120 -129 163c-12 -13 -41 -35 -57 -46c91 -69 156 -180 187 -309zM536 858h407v68h-885v-68h405v-428h-354v-66h785v66h-358v428z" />
</svg>
