<?xml version="1.0" standalone="no"?>
<!DOCTYPE svg PUBLIC "-//W3C//DTD SVG 1.1//EN" "http://www.w3.org/Graphics/SVG/1.1/DTD/svg11.dtd" >
<svg xmlns="http://www.w3.org/2000/svg" xmlns:xlink="http://www.w3.org/1999/xlink" version="1.1" viewBox="-10 0 1010 1000">
   <path fill="currentColor"
d="M230 195h-38c-28 48 -59 92 -91 125c-14 -11 -44 -31 -62 -41c62 -59 116 -150 147 -240l71 18c-9 25 -19 50 -31 74h260v64h-183c17 34 32 70 39 96l-66 22c-7 -32 -26 -79 -46 -118zM230 446l73 13c-8 34 -19 65 -32 95c48 35 101 83 127 116l-55 45
c-22 -29 -63 -69 -102 -103c-34 57 -78 104 -128 140c-11 -13 -39 -40 -55 -51c86 -55 146 -144 172 -255zM931 690l-51 51c-32 -37 -92 -89 -149 -130c-25 42 -56 79 -89 108c-14 -10 -41 -25 -60 -35c58 103 167 176 375 203c-14 16 -32 51 -40 72
c-255 -41 -365 -156 -415 -301c-41 121 -149 230 -421 301c-8 -17 -27 -47 -42 -62c374 -95 415 -256 415 -412v-54h-391v-66h391v-75c-13 -9 -28 -19 -38 -24c69 -55 129 -138 161 -227l73 18c-10 25 -21 50 -34 74h338v64h-223c25 32 47 68 59 94l-66 27
c-12 -32 -44 -81 -74 -121h-73c-18 28 -39 53 -60 76h9v94h412v66h-412v54v15c9 66 24 127 53 180c70 -54 120 -137 142 -235l72 12c-8 33 -19 65 -31 95c63 41 133 99 169 138z" />
</svg>
