<?xml version="1.0" standalone="no"?>
<!DOCTYPE svg PUBLIC "-//W3C//DTD SVG 1.1//EN" "http://www.w3.org/Graphics/SVG/1.1/DTD/svg11.dtd" >
<svg xmlns="http://www.w3.org/2000/svg" xmlns:xlink="http://www.w3.org/1999/xlink" version="1.1" viewBox="-10 0 1010 1000">
   <path fill="currentColor"
d="M655 193h-69c-24 45 -52 86 -80 118c-14 -12 -44 -33 -62 -42c57 -55 101 -141 126 -230l71 16c-7 25 -16 49 -25 74h324v64h-202c20 28 40 60 49 83l-64 29c-12 -31 -40 -76 -68 -112zM442 485l68 -1v230h131v-317c-73 8 -148 14 -218 18c-2 -16 -11 -42 -19 -58
c161 -11 354 -32 456 -66l55 54c-56 18 -127 32 -202 42v123h208v61h-208v143h224v67h-495v-296zM248 193h-57c-27 45 -58 86 -89 119c-14 -12 -44 -33 -62 -41c61 -58 115 -145 146 -232l71 18c-9 25 -20 48 -32 72h261v64h-165c17 34 31 72 38 97l-66 25
c-7 -33 -25 -82 -45 -122zM346 528l43 15c-20 107 -56 192 -104 259c91 52 212 65 359 65c38 0 266 0 318 -1c-12 18 -25 49 -29 70h-291c-168 0 -301 -17 -400 -83c-45 47 -97 81 -155 106c-8 -18 -29 -49 -43 -61c54 -21 102 -51 142 -90c-37 -37 -68 -84 -94 -143l57 -24
c21 49 47 88 79 118c35 -45 60 -100 78 -165h-188c35 -50 77 -120 114 -184h-160v-65h271c-32 61 -72 128 -107 185h96z" />
</svg>
