<?xml version="1.0" standalone="no"?>
<!DOCTYPE svg PUBLIC "-//W3C//DTD SVG 1.1//EN" "http://www.w3.org/Graphics/SVG/1.1/DTD/svg11.dtd" >
<svg xmlns="http://www.w3.org/2000/svg" xmlns:xlink="http://www.w3.org/1999/xlink" version="1.1" viewBox="-10 0 1010 1000">
   <path fill="currentColor"
d="M659 192h-79c-22 36 -46 69 -71 94c-14 -11 -46 -28 -64 -36c56 -53 103 -132 130 -211l71 15c-9 25 -19 50 -31 74h322v64h-201c26 33 49 71 61 99l-66 23c-12 -35 -42 -83 -72 -122zM250 192h-62c-26 42 -56 80 -85 111c-13 -12 -42 -31 -60 -40
c60 -56 114 -141 145 -224l69 17c-10 25 -21 48 -33 72h251v64h-149c19 32 37 67 45 92l-65 23c-10 -31 -32 -77 -56 -115zM103 632l-57 -26c27 -52 45 -141 51 -211l59 9c-5 73 -23 168 -53 228zM189 959v-674h71v674h-71zM394 508l-55 26c-11 -41 -38 -108 -64 -159
l52 -21c27 50 55 115 67 154zM650 419v97c0 19 -1 40 -2 60h151v-157h-149zM956 642h-275c46 127 139 218 285 252c-17 15 -37 44 -47 65c-146 -44 -239 -138 -291 -273c-30 100 -99 198 -255 271c-9 -16 -31 -42 -47 -54c160 -69 219 -166 239 -261h-216v-66h226
c2 -20 2 -41 2 -60v-97h-172v-66h172v-73h73v73h221v223h85v66z" />
</svg>
