<?xml version="1.0" standalone="no"?>
<!DOCTYPE svg PUBLIC "-//W3C//DTD SVG 1.1//EN" "http://www.w3.org/Graphics/SVG/1.1/DTD/svg11.dtd" >
<svg xmlns="http://www.w3.org/2000/svg" xmlns:xlink="http://www.w3.org/1999/xlink" version="1.1" viewBox="-10 0 1010 1000">
   <path fill="currentColor"
d="M705 881h125c31 0 38 -12 40 -98c16 12 45 21 64 26c-7 106 -28 133 -96 133h-142c-86 0 -108 -19 -108 -86v-94h-164c-10 116 -55 169 -205 199c-6 -17 -25 -45 -39 -57c150 -25 174 -69 177 -196h304v147c0 22 7 26 44 26zM451 468h68v56l258 -23l7 50l-265 24v21
c0 24 11 29 71 29h217c42 0 50 -8 55 -65c15 9 41 17 61 21c-9 79 -31 99 -109 99h-226c-109 0 -137 -16 -137 -83v-15l-198 19l-6 -52l204 -19v-62zM611 126h327v59h-204c22 26 44 55 54 78l-62 26c-14 -29 -44 -72 -74 -104h-84c-22 27 -47 53 -71 74h22v33h345v54h-345
v51h348l13 -3l53 16c-17 49 -39 106 -60 140l-63 -23c11 -19 22 -46 31 -73h-635v127c0 114 -17 270 -108 374c-13 -13 -44 -35 -62 -43c86 -97 97 -231 97 -332v-183h313v-138h2c-13 -8 -26 -15 -35 -20c22 -15 44 -33 64 -53h-152c21 30 39 62 48 86l-63 22
c-11 -29 -36 -72 -59 -108h-46c-31 46 -64 88 -96 120c-14 -12 -44 -31 -61 -40c61 -56 120 -140 155 -223l69 19c-10 22 -20 43 -32 64h251v46c35 -38 66 -82 85 -129l70 16c-10 23 -22 45 -35 67z" />
</svg>
