<?xml version="1.0" standalone="no"?>
<!DOCTYPE svg PUBLIC "-//W3C//DTD SVG 1.1//EN" "http://www.w3.org/Graphics/SVG/1.1/DTD/svg11.dtd" >
<svg xmlns="http://www.w3.org/2000/svg" xmlns:xlink="http://www.w3.org/1999/xlink" version="1.1" viewBox="-10 0 1010 1000">
   <path fill="currentColor"
d="M262 186h-50c-27 41 -59 79 -90 107c-14 -11 -44 -33 -62 -43c64 -51 118 -130 148 -211l72 17c-10 26 -21 50 -35 74h246v56h-156c12 27 23 55 30 74l-65 26c-8 -25 -23 -66 -38 -100zM745 734v-78h-211v78h211zM534 527v74h211v-74h-211zM425 377l37 -23
c-73 6 -146 10 -219 13c25 26 55 62 70 84l-30 21h216c-16 -26 -49 -66 -74 -95zM952 601v55h-131v180h-76v-47h-211v84c0 41 -10 60 -44 71c-35 11 -94 11 -182 11c-4 -19 -16 -46 -25 -65c70 3 135 3 153 2c19 -1 25 -6 25 -21v-82h-296v-55h296v-78h-412v-55h412v-74
h-291v-55h79c-16 -24 -42 -55 -61 -78l43 -27c-35 2 -68 3 -100 4c-1 -17 -9 -41 -15 -56c205 -6 449 -22 613 -47c-11 -23 -30 -54 -47 -82h-77c-21 34 -46 66 -70 91c-14 -13 -44 -34 -63 -44c54 -48 98 -119 122 -194l72 17c-8 25 -18 49 -29 73h302v57h-179
c15 23 29 44 38 61l-32 15c14 -2 26 -5 37 -7l47 52c-97 20 -228 35 -366 46c24 27 56 62 71 85l-50 34h150c35 -40 78 -99 103 -140l64 31c-29 36 -61 76 -91 109h90v129h131z" />
</svg>
