<?xml version="1.0" standalone="no"?>
<!DOCTYPE svg PUBLIC "-//W3C//DTD SVG 1.1//EN" "http://www.w3.org/Graphics/SVG/1.1/DTD/svg11.dtd" >
<svg xmlns="http://www.w3.org/2000/svg" xmlns:xlink="http://www.w3.org/1999/xlink" version="1.1" viewBox="-10 0 1010 1000">
   <path fill="currentColor"
d="M533 584v58h222v-58h-222zM533 477v56h222v-56h-222zM533 797v76c51 5 108 6 169 6c30 0 213 0 256 -1c-10 16 -22 44 -24 62h-233c-206 0 -351 -19 -447 -113c-41 56 -93 100 -150 132c-13 -13 -42 -36 -59 -46c94 -45 166 -118 195 -216l73 11c-8 26 -18 50 -30 72
c43 45 104 70 181 84v-173h-296v-49h296v-58h-409v-51h409v-56h-296v-49h296v-56h-370v-51h370v-42c-15 -11 -41 -26 -57 -33c25 -17 49 -38 72 -61h-163c21 29 40 62 50 86l-65 21c-11 -29 -35 -73 -59 -107h-40c-30 44 -63 84 -94 115c-14 -12 -43 -31 -62 -41
c64 -54 122 -136 157 -217l68 20c-10 22 -21 44 -33 66h253v44c35 -39 65 -84 85 -130l70 17c-11 24 -23 47 -37 69h334v57h-232c23 27 44 56 56 78l-63 28c-14 -30 -44 -72 -73 -106h-63c-22 27 -45 52 -69 73h34v63h377v51h-377v56h296v103h118v57h-118v103h-296v54h336
v52h-336z" />
</svg>
