<?xml version="1.0" standalone="no"?>
<!DOCTYPE svg PUBLIC "-//W3C//DTD SVG 1.1//EN" "http://www.w3.org/Graphics/SVG/1.1/DTD/svg11.dtd" >
<svg xmlns="http://www.w3.org/2000/svg" xmlns:xlink="http://www.w3.org/1999/xlink" version="1.1" viewBox="-10 0 1010 1000">
   <path fill="currentColor"
d="M64 557l33 -52c59 23 134 60 176 85l-35 59c-41 -28 -116 -68 -174 -92zM335 434l-34 57c-40 -28 -113 -70 -169 -97l35 -52c57 26 129 66 168 92zM141 956l-54 -54c60 -58 148 -159 218 -249l47 53c-65 82 -144 178 -211 250zM488 204h-171c21 39 42 81 51 112l-66 24
c-10 -35 -34 -92 -59 -136h-48c-29 54 -61 102 -93 139c-14 -11 -45 -31 -63 -41c63 -65 116 -163 147 -262l72 18c-9 27 -21 55 -33 82h263v64zM825 620v-148h-356v148h356zM469 840h356v-156h-356v156zM609 311l76 20c-13 26 -26 50 -38 73h252v546h-74v-42h-356v47h-73
v-551h173c15 -30 31 -67 40 -93zM616 140h324v64h-210c27 36 52 77 65 107l-66 27c-14 -36 -48 -90 -82 -134h-63c-29 51 -62 97 -97 133c-14 -12 -45 -33 -62 -43c67 -61 121 -155 152 -254l71 18c-8 28 -19 56 -32 82z" />
</svg>
