<?xml version="1.0" standalone="no"?>
<!DOCTYPE svg PUBLIC "-//W3C//DTD SVG 1.1//EN" "http://www.w3.org/Graphics/SVG/1.1/DTD/svg11.dtd" >
<svg xmlns="http://www.w3.org/2000/svg" xmlns:xlink="http://www.w3.org/1999/xlink" version="1.1" viewBox="-10 0 1010 1000">
   <path fill="currentColor"
d="M264 187h-63c-32 45 -66 86 -101 118c-12 -12 -43 -31 -60 -41c67 -54 128 -139 165 -225l69 17c-11 25 -23 49 -37 73h257v58h-155c17 29 32 60 39 83l-64 26c-8 -28 -29 -73 -50 -109zM467 827v-176c-56 64 -133 125 -200 158c-10 -16 -29 -36 -43 -47
c73 -31 157 -90 211 -153h-191v-54h223v-72c-62 3 -125 4 -181 4c-2 -15 -8 -35 -13 -49c140 -2 319 -13 412 -34l35 49c-50 11 -116 20 -186 25v77h228v54h-177c64 52 131 113 168 156l-45 40c-36 -45 -107 -113 -174 -168v190h-67zM801 373h-605v482h605v-482zM125 955
v-643h749v639h-73v-35h-605v39h-71zM635 129h307v58h-181c21 30 41 61 51 85l-67 27c-11 -30 -38 -76 -65 -112h-78c-27 43 -57 83 -90 112c-12 -12 -43 -32 -61 -42c63 -52 116 -133 145 -218l70 16c-9 26 -20 50 -31 74z" />
</svg>
