<?xml version="1.0" standalone="no"?>
<!DOCTYPE svg PUBLIC "-//W3C//DTD SVG 1.1//EN" "http://www.w3.org/Graphics/SVG/1.1/DTD/svg11.dtd" >
<svg xmlns="http://www.w3.org/2000/svg" xmlns:xlink="http://www.w3.org/1999/xlink" version="1.1" viewBox="-10 0 1010 1000">
   <path fill="currentColor"
d="M229 189h-37c-28 47 -60 90 -91 123c-14 -11 -43 -31 -61 -41c61 -58 115 -145 146 -232l70 18c-9 25 -20 50 -32 74h262v58h-184c16 32 30 66 36 90l-64 26c-7 -31 -25 -77 -45 -116zM190 658h167v-106h-165v21c0 27 -1 55 -2 85zM357 385h-165v104h165v-104zM426 320
v555c0 37 -8 58 -33 70c-25 10 -66 11 -130 11c-2 -18 -11 -48 -21 -66c46 2 86 1 98 1c13 0 17 -4 17 -17v-153h-173c-11 85 -34 173 -84 239c-13 -13 -42 -32 -59 -39c76 -100 84 -240 84 -348v-253h301zM649 189h-71c-31 46 -67 86 -103 118c-13 -12 -43 -34 -60 -43
c69 -53 130 -137 162 -225l71 18c-10 25 -21 50 -34 74h340v58h-225c23 32 45 67 56 93l-65 27c-12 -33 -41 -81 -71 -120zM836 628h-189c25 55 60 105 103 148c36 -41 65 -91 86 -148zM876 566l41 19c-25 95 -66 172 -117 234c48 36 102 64 162 82c-15 15 -36 41 -46 59
c-60 -22 -115 -53 -163 -93c-41 38 -88 68 -137 90c-10 -15 -33 -43 -46 -54c49 -20 94 -47 134 -81c-51 -55 -93 -120 -123 -194h-12v328h-70v-636h400v25c-2 105 -7 148 -23 165c-13 14 -31 21 -57 22c-22 2 -67 1 -113 -1c-2 -17 -9 -40 -19 -56c44 5 86 5 100 5
s23 0 29 -7c6 -8 9 -32 11 -91h-258v186h295z" />
</svg>
