<?xml version="1.0" standalone="no"?>
<!DOCTYPE svg PUBLIC "-//W3C//DTD SVG 1.1//EN" "http://www.w3.org/Graphics/SVG/1.1/DTD/svg11.dtd" >
<svg xmlns="http://www.w3.org/2000/svg" xmlns:xlink="http://www.w3.org/1999/xlink" version="1.1" viewBox="-10 0 1010 1000">
   <path fill="currentColor"
d="M239 193h-51c-30 48 -63 91 -96 125c-13 -13 -41 -36 -57 -46c62 -58 122 -147 156 -233l69 19c-10 25 -22 49 -35 73h263v62h-176c18 35 34 76 44 100l-68 20c-10 -31 -30 -80 -49 -120zM537 693v172h394v65h-860v-65h389v-172h-271v-63h633v63h-285zM394 436l56 38
c-91 59 -208 124 -311 161l-35 -63c91 -31 206 -84 290 -136zM911 569l-33 58c-73 -38 -215 -99 -321 -138l33 -49c103 36 246 93 321 129zM630 131h309v62h-194c25 34 49 71 63 94l-67 28c-17 -32 -48 -81 -76 -122h-75c-24 30 -48 57 -73 79l-4 -4c14 26 31 58 42 83h366
v147h-73v-86h-688v90h-70v-151h382c-10 -22 -22 -46 -33 -66l70 -20c-14 -12 -37 -29 -52 -38c61 -45 111 -113 137 -187l72 17c-10 26 -22 50 -36 74z" />
</svg>
