<?xml version="1.0" standalone="no"?>
<!DOCTYPE svg PUBLIC "-//W3C//DTD SVG 1.1//EN" "http://www.w3.org/Graphics/SVG/1.1/DTD/svg11.dtd" >
<svg xmlns="http://www.w3.org/2000/svg" xmlns:xlink="http://www.w3.org/1999/xlink" version="1.1" viewBox="-10 0 1010 1000">
   <path fill="currentColor"
d="M254 172h-61c-30 45 -64 87 -98 118c-13 -13 -43 -32 -60 -42c62 -52 117 -129 151 -208l69 18c-9 19 -17 38 -28 57h261v57h-159c16 29 32 61 39 84l-66 19c-9 -27 -27 -69 -48 -103zM583 438v-98h-172v98h172zM645 340v98h176v-98h-176zM350 438v-98h-166v98h166z
M939 115v58h-187c22 28 43 58 52 81l-66 21c-12 -28 -39 -68 -66 -102h-87c-27 41 -60 77 -91 105h397v222h-485l56 20c-16 20 -33 38 -53 56h370l14 -4l47 34c-129 225 -416 315 -725 354c-7 -18 -24 -50 -38 -64c129 -13 253 -35 362 -72c-44 -35 -108 -78 -162 -108
l52 -41c62 33 140 82 185 121c88 -39 161 -89 213 -155h-403c-56 36 -119 68 -179 90c-10 -15 -31 -40 -44 -54c111 -38 231 -107 287 -177h-271v-222h375c-16 -12 -46 -28 -63 -36c63 -50 117 -124 146 -202l71 16c-8 20 -17 39 -27 59h320z" />
</svg>
