<?xml version="1.0" standalone="no"?>
<!DOCTYPE svg PUBLIC "-//W3C//DTD SVG 1.1//EN" "http://www.w3.org/Graphics/SVG/1.1/DTD/svg11.dtd" >
<svg xmlns="http://www.w3.org/2000/svg" xmlns:xlink="http://www.w3.org/1999/xlink" version="1.1" viewBox="-10 0 1010 1000">
   <path fill="currentColor"
d="M271 181h-63c-29 44 -64 85 -97 116c-14 -12 -42 -31 -60 -40c67 -55 125 -139 157 -228l69 18c-10 26 -21 51 -34 76h248v58h-144c14 25 28 51 35 70l-60 32c-10 -27 -30 -67 -51 -102zM167 691v-77h68v79c0 85 -12 184 -107 257c-12 -14 -38 -36 -56 -47
c85 -61 95 -144 95 -212zM351 649l63 13c-23 88 -62 180 -104 238c-11 -9 -38 -28 -52 -37c41 -55 74 -136 93 -214zM584 666l60 -19c37 63 78 149 95 199l-64 24c-15 -52 -54 -139 -91 -204zM782 946v-334h71v334h-71zM781 524v-62h-246v62h246zM535 350v60h246v-60h-246z
M852 410h92v52h-92v115h-317v379h-71v-379h-324v-53h324v-62h-405v-52h405v-60h-312v-54h312v-57h53c-11 -7 -21 -14 -30 -18c48 -47 86 -117 107 -188l69 14c-7 25 -17 49 -26 73h298v58h-172c16 24 31 48 39 67l-62 35c-11 -26 -34 -68 -56 -102h-77c-18 32 -39 60 -60 84
c-3 -3 -7 -6 -12 -10v44h317v114z" />
</svg>
