<?xml version="1.0" standalone="no"?>
<!DOCTYPE svg PUBLIC "-//W3C//DTD SVG 1.1//EN" "http://www.w3.org/Graphics/SVG/1.1/DTD/svg11.dtd" >
<svg xmlns="http://www.w3.org/2000/svg" xmlns:xlink="http://www.w3.org/1999/xlink" version="1.1" viewBox="-10 0 1010 1000">
   <path fill="currentColor"
d="M308 508v37c41 36 136 125 160 149l-48 58c-22 -29 -71 -85 -112 -130v335h-71v-333c-44 86 -101 170 -153 226c-10 -18 -30 -42 -47 -57c67 -63 141 -179 185 -285h-159v-69h174v-113h49c-10 -35 -29 -82 -50 -122h-41c-29 54 -61 103 -93 141c-14 -11 -44 -31 -62 -40
c62 -66 116 -166 147 -266l72 18c-10 28 -21 56 -33 83h262v64h-177c19 38 36 79 44 108l-47 19v108h158v69h-158zM835 429h-266v99h266v-99zM569 688h266v-102h-266v102zM569 850h266v-104h-266v104zM497 956v-594h412v588h-74v-37h-266v43h-72zM619 140h324v64h-217
c27 37 52 78 65 107l-64 27c-13 -36 -47 -90 -80 -134h-58c-28 52 -60 98 -95 134c-14 -12 -45 -33 -63 -43c65 -62 117 -157 147 -256l71 18c-9 28 -18 56 -30 83z" />
</svg>
