<?xml version="1.0" standalone="no"?>
<!DOCTYPE svg PUBLIC "-//W3C//DTD SVG 1.1//EN" "http://www.w3.org/Graphics/SVG/1.1/DTD/svg11.dtd" >
<svg xmlns="http://www.w3.org/2000/svg" xmlns:xlink="http://www.w3.org/1999/xlink" version="1.1" viewBox="-10 0 1010 1000">
   <path fill="currentColor"
d="M232 189h-40c-29 49 -61 93 -93 127c-14 -12 -44 -32 -61 -41c62 -58 116 -147 148 -236l70 17c-10 26 -21 50 -33 75h267v58h-183c18 34 33 71 40 97l-68 25c-6 -32 -26 -82 -47 -122zM457 662h-147v114h147v-114zM519 832h-209v47h-61v-274h270v227zM529 486v56h-290
v-56h290zM833 479l67 18c-45 101 -104 190 -174 266c40 79 88 125 136 124c26 0 36 -36 41 -133c17 14 42 28 60 34c-11 133 -38 169 -106 169c-71 0 -134 -53 -183 -143c-60 55 -125 102 -194 140c-11 -14 -38 -41 -53 -53c79 -39 153 -90 216 -149
c-38 -90 -65 -204 -80 -329h-366v155c0 116 -14 274 -96 380c-13 -13 -44 -31 -61 -38c78 -100 87 -238 87 -342v-215h430c-2 -30 -4 -61 -5 -92h72c1 31 2 62 4 92h188c-36 -23 -91 -47 -135 -63l27 -36c-14 -25 -33 -52 -53 -76h-71c-26 44 -55 85 -86 115
c-13 -12 -44 -32 -61 -41c60 -54 108 -137 135 -223l71 17c-8 25 -19 49 -30 74h330v58h-204c21 28 42 58 51 80l-18 7c38 16 75 35 98 50l-26 38h93v60h-303c12 104 34 199 62 273c56 -63 102 -136 137 -217z" />
</svg>
