<?xml version="1.0" standalone="no"?>
<!DOCTYPE svg PUBLIC "-//W3C//DTD SVG 1.1//EN" "http://www.w3.org/Graphics/SVG/1.1/DTD/svg11.dtd" >
<svg xmlns="http://www.w3.org/2000/svg" xmlns:xlink="http://www.w3.org/1999/xlink" version="1.1" viewBox="-10 0 1010 1000">
   <path fill="currentColor"
d="M667 178h-69c-24 35 -53 65 -80 90c-14 -10 -46 -29 -64 -36c61 -46 113 -118 140 -192l70 16c-8 22 -19 43 -30 64h305v58h-189c20 25 40 53 50 73l-64 28c-13 -28 -42 -69 -69 -101zM268 180h-78c-28 41 -59 78 -91 107c-13 -11 -43 -31 -59 -40
c60 -51 118 -130 150 -209l69 18c-10 23 -21 44 -32 66h271v58h-153c19 27 36 57 44 79l-65 21c-10 -27 -33 -67 -56 -100zM497 476h69c47 -27 93 -56 135 -86h-204v86zM770 733v-71h-441v71h441zM329 860h441v-75h-441v75zM947 537h-361c-44 25 -89 47 -136 69h392v350h-72
v-37h-441v37h-69v-273c-59 21 -118 40 -176 57c-9 -15 -29 -46 -43 -60c140 -35 279 -83 406 -143h-394v-61h372v-86h-260v-59h260v-65h72v65h227v42c40 -31 78 -63 111 -98l58 37c-60 59 -130 114 -206 164h260v61z" />
</svg>
