<?xml version="1.0" standalone="no"?>
<!DOCTYPE svg PUBLIC "-//W3C//DTD SVG 1.1//EN" "http://www.w3.org/Graphics/SVG/1.1/DTD/svg11.dtd" >
<svg xmlns="http://www.w3.org/2000/svg" xmlns:xlink="http://www.w3.org/1999/xlink" version="1.1" viewBox="-10 0 1010 1000">
   <path fill="currentColor"
d="M244 184h-42c-30 46 -65 88 -98 121c-15 -12 -43 -32 -61 -41c64 -55 124 -139 160 -222l67 20c-9 21 -20 43 -32 64h253v45c35 -39 65 -83 85 -129l69 17c-10 23 -22 45 -36 67h336v58h-229c22 25 42 52 53 73l-61 29c-15 -28 -45 -69 -75 -102h-66
c-32 38 -67 72 -102 99c-13 -11 -43 -29 -61 -37c26 -18 51 -39 74 -62h-160c20 29 38 61 48 83l-65 22c-11 -27 -34 -70 -57 -105zM233 269l67 22c-51 77 -134 160 -212 213c-9 -15 -30 -39 -44 -50c72 -47 150 -121 189 -185zM644 497v65h163v-65h-163zM644 381v60h163
v-60h-163zM876 617h-232v63h259v56h-259v68h301v58h-301v94h-71v-94h-266v-58h266v-68h-232v-56h232v-63h-218v-55h218v-65h-258v-41c-21 39 -48 78 -77 116v385h-69v-304c-31 33 -64 63 -97 88c-10 -15 -29 -40 -40 -53c88 -66 177 -173 221 -263l62 20v-4h258v-60h-213
v-55h213v-54h71v54h232v115h75v56h-75v120z" />
</svg>
