<?xml version="1.0" standalone="no"?>
<!DOCTYPE svg PUBLIC "-//W3C//DTD SVG 1.1//EN" "http://www.w3.org/Graphics/SVG/1.1/DTD/svg11.dtd" >
<svg xmlns="http://www.w3.org/2000/svg" xmlns:xlink="http://www.w3.org/1999/xlink" version="1.1" viewBox="-10 0 1010 1000">
   <path fill="currentColor"
d="M231 679h230v-57h-230v57zM231 524v56h230v-56h-230zM770 524h-236v56h236v-56zM770 679v-57h-236v57h236zM534 879h407v56h-882v-56h402v-51h-329v-52h329v-52h-299v-246h299v-45h-396v-54h396v-51c-99 5 -200 9 -292 10c-1 -14 -8 -35 -14 -47c182 -5 397 -17 551 -33
c-12 -22 -32 -50 -52 -73h-81c-27 34 -57 65 -86 89c-13 -11 -43 -27 -61 -36c21 -15 41 -33 60 -52h-176c14 23 27 47 34 65l-62 24c-8 -23 -26 -59 -45 -89h-48c-28 44 -59 84 -91 115c-13 -11 -41 -31 -58 -40c63 -54 116 -137 148 -221l65 17c-9 24 -19 48 -31 71h264
v58c41 -42 75 -94 96 -147l67 16c-10 25 -23 49 -37 73h324v57h-202c17 20 32 41 39 58l-28 11c18 -3 35 -5 50 -7l35 47c-81 12 -185 22 -296 29v56h405v54h-405v45h309v246h-309v52h339v52h-339v51z" />
</svg>
