<?xml version="1.0" standalone="no"?>
<!DOCTYPE svg PUBLIC "-//W3C//DTD SVG 1.1//EN" "http://www.w3.org/Graphics/SVG/1.1/DTD/svg11.dtd" >
<svg xmlns="http://www.w3.org/2000/svg" xmlns:xlink="http://www.w3.org/1999/xlink" version="1.1" viewBox="-10 0 1010 1000">
   <path fill="currentColor"
d="M679 170h-69c-20 34 -42 64 -66 88c-14 -11 -44 -31 -62 -40c50 -46 90 -117 111 -189l72 15c-7 24 -17 47 -26 70h300v56h-183c18 26 34 55 42 75l-64 26c-10 -26 -33 -67 -55 -101zM304 393h353c7 -21 13 -41 18 -60h-347c-8 21 -16 41 -24 60zM811 564l59 41
c-45 25 -99 51 -153 73c48 85 132 152 236 182c-17 13 -36 39 -46 57c-108 -39 -193 -117 -244 -217c-21 8 -41 16 -60 22c28 87 12 171 -34 203c-28 22 -51 27 -89 27c-20 0 -44 0 -69 -2c-1 -18 -9 -45 -21 -63c32 4 60 4 79 4c21 0 39 -1 54 -13c25 -18 36 -69 21 -128
c-111 72 -287 137 -436 166c-7 -16 -21 -38 -32 -52c159 -22 350 -90 450 -163c-6 -14 -14 -27 -24 -40c-90 51 -234 101 -347 124c-6 -14 -19 -35 -30 -47c115 -17 265 -65 349 -112c-11 -10 -23 -21 -36 -31c-93 37 -205 63 -303 80c-6 -10 -22 -36 -33 -48
c111 -14 235 -40 327 -77h-363v-56h559c6 -17 12 -34 17 -53h-434c26 -56 60 -140 82 -207l26 4c-7 -19 -20 -46 -33 -68h-66c-29 44 -62 84 -95 114c-15 -12 -45 -31 -63 -41c64 -51 119 -131 149 -214l73 17c-9 23 -19 46 -31 68h240v56h-132c10 18 19 36 22 50l-49 20
l29 5l-14 39h348l12 -4l52 11c-16 64 -38 139 -61 203h238v56h-406c-10 7 -22 13 -34 20c38 30 67 66 88 103c78 -31 170 -75 228 -109z" />
</svg>
