<?xml version="1.0" standalone="no"?>
<!DOCTYPE svg PUBLIC "-//W3C//DTD SVG 1.1//EN" "http://www.w3.org/Graphics/SVG/1.1/DTD/svg11.dtd" >
<svg xmlns="http://www.w3.org/2000/svg" xmlns:xlink="http://www.w3.org/1999/xlink" version="1.1" viewBox="-10 0 1010 1000">
   <path fill="currentColor"
d="M315 419h395c7 -24 13 -47 17 -70h-326v-56h344l12 -4l48 9c-8 42 -17 84 -28 121h163v59h-625v-59zM682 186h-80c-23 37 -48 71 -75 97c-14 -9 -45 -26 -64 -35c57 -50 101 -128 126 -208l73 14c-8 25 -19 50 -30 75h307v57h-177c19 23 39 49 49 67l-59 31
c-13 -27 -42 -66 -70 -98zM271 186h-63c-29 42 -60 80 -94 109c-13 -10 -45 -26 -62 -35c66 -53 122 -135 154 -221l71 15c-9 25 -21 50 -35 75h248v57h-145c17 28 32 59 39 81l-65 21c-7 -27 -27 -67 -48 -102zM240 267l69 21c-19 46 -40 94 -64 140v532h-70v-412
c-27 42 -55 80 -83 113c-10 -14 -36 -43 -50 -57c77 -84 152 -212 198 -337zM951 751h-267c46 82 138 127 276 142c-15 15 -33 41 -41 62c-143 -24 -234 -78 -286 -173c-32 72 -114 136 -307 177c-8 -17 -27 -44 -40 -57c184 -37 256 -92 282 -151h-272v-61h286
c1 -7 1 -13 1 -20v-69h-137c-19 31 -39 61 -60 83c-13 -10 -41 -27 -58 -35c43 -44 81 -108 102 -170l65 15c-6 17 -13 33 -20 49h417v58h-239v70v19h298v61z" />
</svg>
