<?xml version="1.0" standalone="no"?>
<!DOCTYPE svg PUBLIC "-//W3C//DTD SVG 1.1//EN" "http://www.w3.org/Graphics/SVG/1.1/DTD/svg11.dtd" >
<svg xmlns="http://www.w3.org/2000/svg" xmlns:xlink="http://www.w3.org/1999/xlink" version="1.1" viewBox="-10 0 1010 1000">
   <path fill="currentColor"
d="M650 202h-73c-29 46 -63 87 -99 120c-13 -12 -45 -35 -62 -43c69 -57 129 -146 161 -239l73 18c-10 27 -22 54 -35 80h334v64h-220c23 34 45 72 56 99l-66 26c-12 -34 -41 -84 -69 -125zM835 647l-57 -22c29 -53 69 -140 89 -200l69 22c-30 69 -69 148 -101 200zM474 673
l-57 -32c51 -46 76 -128 85 -209l61 15c-12 87 -33 175 -89 226zM238 202h-44c-30 51 -64 97 -97 132c-14 -11 -46 -32 -63 -42c66 -62 124 -156 159 -252l70 18c-9 27 -21 54 -35 80h257v64h-172c17 32 33 68 41 93l-66 23c-9 -31 -30 -78 -50 -116zM292 574v52
c28 21 119 95 139 116l-44 53c-18 -23 -60 -67 -95 -101v262h-69v-277c-39 80 -89 155 -139 201c-12 -17 -33 -40 -50 -53c66 -51 135 -154 175 -253h-154v-63h168v-98c-48 9 -96 16 -142 21c-3 -14 -13 -38 -22 -52c113 -17 245 -44 316 -72l56 50c-40 15 -88 28 -139 39
v112h143v63h-143zM712 321v214c0 67 35 266 244 362c-12 16 -32 45 -43 62c-164 -76 -224 -232 -237 -300c-13 70 -74 221 -243 300c-8 -16 -28 -44 -41 -59c212 -98 248 -296 248 -365v-214h72z" />
</svg>
