<?xml version="1.0" standalone="no"?>
<!DOCTYPE svg PUBLIC "-//W3C//DTD SVG 1.1//EN" "http://www.w3.org/Graphics/SVG/1.1/DTD/svg11.dtd" >
<svg xmlns="http://www.w3.org/2000/svg" xmlns:xlink="http://www.w3.org/1999/xlink" version="1.1" viewBox="-10 0 1010 1000">
   <path fill="currentColor"
d="M684 188h-74c-25 49 -55 92 -88 125c-13 -9 -45 -27 -62 -35c60 -57 106 -145 133 -236l72 13c-8 26 -17 52 -28 77h302v56h-177c23 30 46 64 56 87l-63 27c-13 -31 -41 -77 -71 -114zM691 709h-69v-400h69v400zM489 382l71 15c-29 98 -75 195 -125 258
c-14 -12 -43 -31 -61 -40c51 -59 92 -145 115 -233zM263 188h-52c-31 46 -66 87 -102 119c-15 -9 -45 -27 -63 -34c70 -56 129 -142 162 -232l72 15c-10 26 -22 51 -36 76h246v56h-152c18 31 35 65 43 89l-65 22c-9 -30 -31 -74 -53 -111zM163 826h142v-103h-142v103z
M305 395h-142v107h142v-107zM163 563v99h142v-99h-142zM373 330v560c229 -38 372 -124 434 -289l67 21c-66 187 -221 286 -470 334c-7 -21 -22 -48 -38 -65h-203v52h-67v-613h277zM756 400l61 -27c56 67 115 158 138 219l-66 32c-22 -61 -77 -154 -133 -224z" />
</svg>
