<?xml version="1.0" standalone="no"?>
<!DOCTYPE svg PUBLIC "-//W3C//DTD SVG 1.1//EN" "http://www.w3.org/Graphics/SVG/1.1/DTD/svg11.dtd" >
<svg xmlns="http://www.w3.org/2000/svg" xmlns:xlink="http://www.w3.org/1999/xlink" version="1.1" viewBox="-10 0 1010 1000">
   <path fill="currentColor"
d="M683 186h-73c-25 47 -55 89 -86 121c-14 -11 -45 -27 -64 -36c61 -56 107 -142 133 -231l73 14c-8 25 -18 50 -29 75h302v57h-176c21 28 42 58 53 79l-62 28c-14 -29 -41 -72 -71 -107zM266 186h-59c-29 42 -62 79 -97 109c-13 -10 -45 -27 -62 -35
c68 -53 127 -135 160 -221l72 16c-11 25 -23 49 -36 74h247v57h-152c16 28 31 59 38 80l-66 22c-7 -27 -26 -67 -45 -102zM482 880h474v61h-541v-277l-47 56c-16 -26 -49 -75 -80 -118v349h-68v-336c-39 80 -88 157 -133 209c-11 -17 -31 -43 -47 -57
c59 -60 126 -168 165 -267h-144v-67h159v-153h68v153h116v67h-116v13c39 42 107 123 127 149v-345h522v61h-455v502zM908 485v234c0 31 -5 46 -26 56c-19 10 -50 10 -93 10c-3 -17 -11 -39 -17 -55c30 1 52 1 62 0c8 0 10 -3 10 -11v-173h-94v310h-62v-310h-90v235h-60v-296
h150v-78h62v78h158z" />
</svg>
