<?xml version="1.0" standalone="no"?>
<!DOCTYPE svg PUBLIC "-//W3C//DTD SVG 1.1//EN" "http://www.w3.org/Graphics/SVG/1.1/DTD/svg11.dtd" >
<svg xmlns="http://www.w3.org/2000/svg" xmlns:xlink="http://www.w3.org/1999/xlink" version="1.1" viewBox="-10 0 1010 1000">
   <path fill="currentColor"
d="M298 582l398 -8c-28 -19 -55 -37 -82 -52l41 -31h-223c-43 34 -89 65 -134 91zM462 247h48c-15 -9 -36 -21 -51 -28c55 -44 103 -111 129 -179l70 15c-7 22 -17 43 -29 64h313v60h-190c18 22 34 47 43 65l-69 21c-11 -23 -33 -58 -56 -86h-78c-19 25 -39 49 -59 68h2v63
h320v55h-320v70h408v56h-260c76 42 162 105 208 147l-55 47c-17 -16 -38 -35 -63 -54c-514 15 -566 16 -602 27c-3 -15 -14 -49 -22 -67c18 -2 39 -11 63 -25c18 -10 66 -39 115 -75h-264v-56h399v-70h-312v-55h312v-63zM259 179h-68c-30 38 -62 72 -93 99
c-14 -12 -44 -32 -61 -40c64 -49 124 -124 160 -198l69 18c-10 21 -21 41 -34 61h258v60h-158c14 23 26 49 32 66l-68 19c-6 -22 -21 -56 -37 -85zM244 746v125h129v-125h-129zM567 746h-132v125h132v-125zM759 746h-130v125h130v-125zM832 871h115v62h-896v-62h123v-181
h658v181z" />
</svg>
