<?xml version="1.0" standalone="no"?>
<!DOCTYPE svg PUBLIC "-//W3C//DTD SVG 1.1//EN" "http://www.w3.org/Graphics/SVG/1.1/DTD/svg11.dtd" >
<svg xmlns="http://www.w3.org/2000/svg" xmlns:xlink="http://www.w3.org/1999/xlink" version="1.1" viewBox="-10 0 1010 1000">
   <path fill="currentColor"
d="M235 177h-46c-27 40 -58 76 -87 104c-13 -11 -43 -32 -60 -41c59 -49 113 -125 143 -200l69 18c-9 21 -20 42 -30 63h263v56h-178c17 29 34 61 41 84l-67 19c-9 -27 -27 -69 -48 -103zM941 351h-730v150c0 135 -15 326 -105 456c-13 -12 -44 -32 -62 -39
c85 -123 95 -294 95 -418v-208h361c-3 -9 -7 -19 -12 -27c-16 -11 -41 -25 -57 -31c61 -47 115 -120 144 -194l71 17c-9 22 -20 43 -31 64h328v56h-197c21 26 40 55 50 76l-67 22c-11 -27 -38 -66 -64 -98h-86c-12 16 -24 30 -35 44c14 21 28 49 37 71h360v59zM592 562v55
h186v-55h-186zM592 457v54h186v-54h-186zM796 873v-95h-453v95h453zM848 667h-256v57h276v232h-72v-29h-453v29h-69v-232h245v-57h-243v-50h243v-55h-299v-51h299v-54h-240v-50h240v-45h73v45h256v102h103v55h-103v103z" />
</svg>
