<?xml version="1.0" standalone="no"?>
<!DOCTYPE svg PUBLIC "-//W3C//DTD SVG 1.1//EN" "http://www.w3.org/Graphics/SVG/1.1/DTD/svg11.dtd" >
<svg xmlns="http://www.w3.org/2000/svg" xmlns:xlink="http://www.w3.org/1999/xlink" version="1.1" viewBox="-10 0 1010 1000">
   <path fill="currentColor"
d="M499 413v-49h-231v49h231zM499 506v-48h-231v48h231zM499 602v-52h-231v52h231zM249 246l56 18c-8 -25 -25 -60 -42 -89h-51c-31 44 -66 84 -102 115c-14 -10 -45 -27 -63 -35c69 -52 127 -132 161 -216l71 14c-10 23 -21 45 -33 68h244v54h-153c17 28 31 59 38 80
l-64 19c-7 14 -14 26 -22 39h224c-9 -20 -19 -40 -29 -58l15 -4c-14 -7 -29 -14 -39 -19c57 -47 102 -118 127 -192l73 12c-8 24 -18 46 -30 69h306v54h-177c23 27 43 57 54 78l-62 27c-12 -29 -42 -71 -70 -105h-83c-14 23 -31 44 -48 64c14 22 29 51 40 74h304v51h-322v49
h275v45h-275v48h275v44h-275v52h332v49h-636v25h-74v-241c-27 30 -57 56 -85 79c-11 -13 -38 -37 -53 -49c76 -53 151 -134 193 -219zM724 747h-399c54 34 127 62 210 82c74 -21 139 -48 189 -82zM801 692l41 28c-49 55 -118 98 -201 132c96 17 200 27 304 32
c-12 15 -28 40 -36 58c-128 -8 -258 -26 -373 -55c-139 40 -300 60 -453 69c-3 -18 -13 -45 -23 -61c123 -5 252 -17 369 -40c-75 -27 -140 -60 -189 -101l13 -7h-154v-52h691z" />
</svg>
