<?xml version="1.0" standalone="no"?>
<!DOCTYPE svg PUBLIC "-//W3C//DTD SVG 1.1//EN" "http://www.w3.org/Graphics/SVG/1.1/DTD/svg11.dtd" >
<svg xmlns="http://www.w3.org/2000/svg" xmlns:xlink="http://www.w3.org/1999/xlink" version="1.1" viewBox="-10 0 1010 1000">
   <path fill="currentColor"
d="M677 175h-76c-27 39 -57 75 -88 102c-14 -9 -46 -26 -64 -33c63 -49 114 -125 144 -202l72 12c-8 23 -19 46 -32 68h306v53h-184c22 28 43 58 53 80l-66 20c-12 -27 -38 -68 -65 -100zM272 175h-57c-31 46 -68 87 -106 120c-12 -9 -41 -28 -59 -36
c69 -53 126 -133 158 -218l71 13c-9 23 -20 46 -32 68h243v53h-145c19 29 37 62 44 84l-65 20c-9 -27 -30 -69 -52 -104zM224 274l68 21c-19 47 -43 95 -71 142v519h-67v-420c-25 33 -52 62 -80 89c-8 -17 -26 -44 -38 -59c81 -73 153 -193 188 -292zM298 819v-429h64v429
h-64zM502 738l65 22c-37 57 -95 120 -143 160c-14 -11 -41 -31 -58 -40c51 -36 104 -91 136 -142zM746 773l53 -33c50 40 102 96 127 135l-55 39c-25 -41 -78 -100 -125 -141zM700 582v76h232v58h-232v158c0 33 -6 52 -31 63s-62 12 -119 12c-3 -19 -13 -45 -23 -64
c42 1 78 1 89 1c11 -1 14 -3 14 -14v-156h-226v-58h226v-76h70zM558 381l-3 4c26 34 62 64 108 88c41 -26 78 -57 106 -92h-211zM824 323l43 21c-33 63 -83 115 -142 157c66 27 146 44 232 54c-15 14 -33 40 -40 58c-95 -14 -181 -38 -253 -74c-73 39 -155 66 -237 84
c-7 -16 -22 -38 -34 -51c73 -14 146 -36 212 -68c-35 -22 -64 -49 -89 -78c-24 23 -50 44 -81 64c-10 -14 -32 -32 -47 -40c89 -52 148 -125 178 -188l63 9c-9 19 -20 36 -31 55h215z" />
</svg>
