<?xml version="1.0" standalone="no"?>
<!DOCTYPE svg PUBLIC "-//W3C//DTD SVG 1.1//EN" "http://www.w3.org/Graphics/SVG/1.1/DTD/svg11.dtd" >
<svg xmlns="http://www.w3.org/2000/svg" xmlns:xlink="http://www.w3.org/1999/xlink" version="1.1" viewBox="-10 0 1010 1000">
   <path fill="currentColor"
d="M536 552h-251l-3 2v66h254v-68zM536 741v-69h-254v69h254zM536 863v-69h-254v69h254zM936 125v56h-198c22 27 42 57 53 81l-66 22c-13 -28 -41 -70 -68 -103h-85c-22 27 -46 53 -69 74l49 16c-12 20 -25 41 -38 60h406v146h-68v-88h-382c-34 39 -70 75 -110 107h175
c-15 -25 -34 -51 -53 -72l64 -20c25 27 52 63 70 92h271v56h-280v68h235v52h-235v69h236v53h-236v69h293v57h-618v36h-72v-359c-40 22 -82 42 -124 59c-8 -14 -30 -44 -44 -59c130 -47 249 -117 338 -208h-234v88h-65v-146h349c16 -19 31 -41 43 -62
c-15 -11 -40 -26 -56 -32c22 -16 45 -36 64 -56h-160c20 30 38 63 48 87l-66 20c-11 -29 -35 -72 -59 -107h-54c-27 43 -59 82 -89 112c-13 -12 -44 -31 -60 -41c60 -52 114 -132 144 -212l69 17c-8 23 -19 45 -31 68h264v50c37 -39 68 -86 88 -135l71 17
c-10 24 -21 46 -35 68h325z" />
</svg>
