<?xml version="1.0" standalone="no"?>
<!DOCTYPE svg PUBLIC "-//W3C//DTD SVG 1.1//EN" "http://www.w3.org/Graphics/SVG/1.1/DTD/svg11.dtd" >
<svg xmlns="http://www.w3.org/2000/svg" xmlns:xlink="http://www.w3.org/1999/xlink" version="1.1" viewBox="-10 0 1010 1000">
   <path fill="currentColor"
d="M247 191h-51c-30 44 -64 84 -96 115c-14 -12 -43 -32 -60 -41c65 -54 124 -138 159 -223l68 19c-9 23 -20 45 -32 67h253v59c37 -43 68 -93 88 -145l69 17c-10 24 -21 47 -34 69h339v63h-226c20 25 38 52 47 72l-64 25c-12 -27 -36 -65 -62 -97h-74c-24 32 -50 62 -76 86
l54 7c-6 35 -16 68 -28 98c39 29 83 66 106 92l-44 43c-19 -22 -53 -54 -87 -82c-33 60 -78 109 -131 145c-12 -11 -39 -31 -55 -41c89 -53 146 -137 170 -248l-5 4c-14 -11 -45 -31 -61 -39c25 -18 48 -40 70 -65h-162c20 27 37 57 46 78l-65 22c-10 -27 -33 -68 -56 -100z
M750 273l68 6c-6 35 -14 67 -25 96c55 42 120 99 151 138l-49 42c-26 -34 -78 -83 -127 -125c-28 49 -64 88 -108 118c-11 -11 -38 -34 -53 -43c80 -49 128 -126 143 -232zM248 269l64 26c-55 73 -142 154 -220 206c-9 -14 -29 -38 -42 -49c73 -46 156 -120 198 -183z
M286 419l64 24c-27 41 -60 82 -96 120v393h-70v-325c-33 29 -67 55 -100 77c-7 -13 -30 -44 -44 -57c92 -56 188 -143 246 -232zM677 731v136c27 3 56 5 87 5c24 0 160 0 196 -1c-11 16 -21 48 -24 67h-177c-145 0 -246 -28 -310 -147c-27 66 -63 122 -111 165
c-10 -12 -38 -36 -55 -47c84 -68 125 -179 141 -314l70 8c-5 37 -11 71 -19 104c29 79 74 122 133 143v-294h69v111h221v64h-221z" />
</svg>
