<?xml version="1.0" standalone="no"?>
<!DOCTYPE svg PUBLIC "-//W3C//DTD SVG 1.1//EN" "http://www.w3.org/Graphics/SVG/1.1/DTD/svg11.dtd" >
<svg xmlns="http://www.w3.org/2000/svg" xmlns:xlink="http://www.w3.org/1999/xlink" version="1.1" viewBox="-10 0 1010 1000">
   <path fill="currentColor"
d="M122 959l-61 -41c37 -37 68 -97 86 -146l62 27c-20 53 -49 118 -87 160zM285 797l64 -11c16 44 30 103 34 142l-68 13c-2 -39 -15 -98 -30 -144zM456 788l59 -16c27 40 51 94 60 130l-62 17c-9 -35 -33 -91 -57 -131zM249 173h-58c-25 37 -54 72 -81 99h185
c-7 -26 -26 -67 -46 -99zM672 173h-87c-25 38 -54 73 -83 99h236c-13 -27 -39 -68 -66 -99zM943 536h-615c-4 18 -9 37 -14 56h570v49h-584c-6 20 -11 39 -17 57h636s-1 19 -2 29c-11 131 -22 186 -43 206c-14 16 -32 22 -56 23c-21 1 -62 1 -103 -1c-2 -18 -8 -43 -18 -60
c38 5 75 5 90 5c14 0 23 -1 30 -8c11 -13 20 -51 28 -142h-653c19 -57 44 -142 62 -214h-199v-52h174v-127h72v127h165v-160h-375v-52h1c-14 -12 -36 -25 -50 -33c59 -50 113 -125 144 -199l68 18c-9 21 -18 40 -29 60h262v55h-163c17 28 31 60 39 81l-64 18h201
c-17 -11 -48 -28 -64 -36c60 -47 111 -120 138 -196l71 16c-8 21 -17 42 -28 62h324v55h-190c21 26 41 57 51 78l-61 21h171v52h-373v55h299v46h-299v59h404v52zM763 865l-60 28c-14 -32 -47 -80 -78 -114l56 -24c33 33 66 78 82 110z" />
</svg>
