<?xml version="1.0" standalone="no"?>
<!DOCTYPE svg PUBLIC "-//W3C//DTD SVG 1.1//EN" "http://www.w3.org/Graphics/SVG/1.1/DTD/svg11.dtd" >
<svg xmlns="http://www.w3.org/2000/svg" xmlns:xlink="http://www.w3.org/1999/xlink" version="1.1" viewBox="-10 0 1010 1000">
   <path fill="currentColor"
d="M669 175h-85c-20 28 -42 54 -64 74c-15 -10 -46 -26 -64 -34c53 -43 98 -108 122 -175l70 15c-8 22 -18 42 -29 63h303v57h-171c18 21 34 42 43 59l-66 23c-11 -22 -34 -55 -59 -82zM247 175h-55c-29 41 -60 78 -91 107c-13 -11 -42 -31 -59 -40
c61 -50 117 -126 149 -202l66 17c-8 21 -19 41 -30 61h256v57h-162c13 22 24 46 30 63l-67 18c-7 -22 -22 -54 -37 -81zM760 746l59 30c-127 107 -369 160 -625 185c-6 -18 -19 -41 -31 -57c245 -18 483 -66 597 -158zM535 565l53 26c-86 61 -224 113 -338 144
c-10 -12 -25 -30 -39 -42c110 -26 247 -74 324 -128zM640 658l54 28c-105 69 -281 120 -435 149c-8 -14 -21 -35 -35 -47c148 -23 323 -70 416 -130zM931 535l-48 25c-6 -13 -14 -26 -25 -41c-103 7 -161 11 -195 15c90 49 200 89 303 111c-17 13 -36 39 -46 55
c-152 -38 -320 -118 -425 -213c-104 107 -259 179 -418 225c-7 -14 -27 -42 -40 -56c111 -27 217 -67 303 -123l-5 -10c-181 11 -211 14 -226 20c-4 -13 -15 -42 -23 -56c11 -2 23 -9 34 -20c12 -11 52 -52 75 -95l4 2c-4 -15 -14 -42 -20 -56c19 -2 38 -7 64 -16
c26 -10 113 -44 178 -87l64 32c-43 25 -88 46 -133 64l311 -11c-25 -13 -50 -23 -74 -33l47 -36c85 34 183 92 235 136l-48 39c-21 -19 -48 -39 -80 -60c-443 19 -507 21 -538 30l56 21c-22 30 -49 59 -74 83l120 -5c-9 -15 -19 -29 -30 -41l47 -19c23 26 45 60 60 87
c40 -31 74 -66 101 -106l66 21c-5 8 -11 16 -17 24c16 15 35 31 56 46l-1 -1c11 -2 22 -9 34 -20c10 -12 46 -55 65 -100l66 25c-18 32 -43 62 -67 88l134 -7c-11 -13 -23 -26 -34 -36l45 -24c40 35 81 86 99 123z" />
</svg>
