<?xml version="1.0" standalone="no"?>
<!DOCTYPE svg PUBLIC "-//W3C//DTD SVG 1.1//EN" "http://www.w3.org/Graphics/SVG/1.1/DTD/svg11.dtd" >
<svg xmlns="http://www.w3.org/2000/svg" xmlns:xlink="http://www.w3.org/1999/xlink" version="1.1" viewBox="-10 0 1010 1000">
   <path fill="currentColor"
d="M675 192h-95c-26 40 -56 77 -84 105c-14 -11 -43 -31 -61 -41c61 -53 115 -134 144 -217l70 18c-9 25 -21 49 -33 73h325v62h-187c16 23 31 46 40 65l-64 26c-10 -25 -32 -60 -55 -91zM845 315l45 27c-86 144 -274 241 -440 289c-8 -14 -26 -38 -38 -51
c63 -15 132 -41 196 -73c-20 -19 -44 -40 -65 -56l46 -31c24 16 50 39 72 58c50 -30 94 -65 127 -103h-180c-41 35 -89 69 -144 98c-11 -13 -32 -34 -46 -43c100 -47 175 -113 217 -170l68 13c-12 15 -25 31 -38 46h168zM255 192h-63c-29 44 -61 84 -92 115
c-14 -11 -44 -30 -61 -40c64 -56 120 -142 154 -228l69 17c-10 25 -22 49 -35 74h259v62h-160c15 27 28 55 35 75l-63 22c-8 -25 -25 -65 -43 -97zM430 691l-46 57c-14 -27 -53 -79 -86 -122v331h-70v-338c-44 83 -100 166 -154 215c-7 -19 -22 -50 -34 -67
c58 -48 123 -136 165 -218h-146v-64h169v-94c-45 6 -91 11 -133 15c-3 -15 -11 -39 -19 -56c108 -12 238 -35 312 -63l39 59c-37 12 -81 23 -129 33v106h126v64h-126v6c33 31 114 114 132 136zM901 594l44 25c-94 184 -309 290 -517 339c-7 -17 -22 -41 -35 -56
c88 -18 180 -48 261 -91c-23 -21 -50 -44 -75 -63l48 -30c26 17 56 42 79 62c57 -35 106 -78 141 -127h-184c-51 40 -111 78 -179 113c-10 -15 -29 -36 -45 -45c125 -57 221 -134 275 -200l70 15c-18 21 -36 41 -57 61h161z" />
</svg>
