<?xml version="1.0" standalone="no"?>
<!DOCTYPE svg PUBLIC "-//W3C//DTD SVG 1.1//EN" "http://www.w3.org/Graphics/SVG/1.1/DTD/svg11.dtd" >
<svg xmlns="http://www.w3.org/2000/svg" xmlns:xlink="http://www.w3.org/1999/xlink" version="1.1" viewBox="-10 0 1010 1000">
   <path fill="currentColor"
d="M490 877h297c70 0 81 -17 88 -113c18 9 47 19 67 23c-12 121 -37 151 -152 151h-299c-136 0 -172 -20 -172 -102v-210h-80c-9 153 -37 255 -151 320c-9 -17 -31 -42 -48 -53c99 -52 124 -137 132 -267h-104v-61h421v61h-100v209c0 35 16 42 101 42zM862 800l-43 44
c-27 -24 -68 -52 -115 -80c-59 39 -126 67 -197 87c-8 -14 -30 -36 -44 -45c67 -17 130 -42 185 -73c-45 -23 -90 -46 -132 -63l39 -40c46 19 97 43 144 68c34 -27 63 -58 84 -93h-259v-51h100v-172h68v59h151v48h-151v65h126l13 -2l43 18c-27 63 -69 115 -120 158
c43 25 82 49 108 72zM614 119h329v62h-192c20 27 40 56 50 77l-67 23c-12 -27 -37 -67 -64 -100h-95c-19 25 -38 48 -58 66c12 17 25 35 34 51h360v142h-76v-83h-672v68h289v60h-312v-45h-50v-142h376c-10 -19 -24 -39 -36 -56l56 -12c-13 -8 -25 -14 -34 -19
c10 -9 21 -18 31 -29h-171c19 27 36 57 44 79l-65 21c-10 -27 -32 -67 -55 -100h-50c-27 41 -58 77 -87 106c-14 -11 -43 -31 -61 -41c61 -50 116 -129 147 -207l69 17c-9 22 -19 42 -31 63h264v58c36 -38 67 -87 84 -138l72 16c-8 22 -18 42 -29 63z" />
</svg>
