<?xml version="1.0" standalone="no"?>
<!DOCTYPE svg PUBLIC "-//W3C//DTD SVG 1.1//EN" "http://www.w3.org/Graphics/SVG/1.1/DTD/svg11.dtd" >
<svg xmlns="http://www.w3.org/2000/svg" xmlns:xlink="http://www.w3.org/1999/xlink" version="1.1" viewBox="-10 0 1010 1000">
   <path fill="currentColor"
d="M273 185h-62c-31 45 -65 86 -99 117c-14 -11 -45 -28 -63 -36c69 -55 127 -138 159 -227l70 14c-10 25 -21 49 -33 73h247v59h-146c17 28 31 58 39 81l-65 23c-8 -28 -26 -69 -47 -104zM157 668h116v-72h-116v72zM447 668v-72h-111v72h111zM229 389v53h150v-53h-150z
M517 825h-179v130h-67v-130h-210v-51h210v-41h2v-14h-177v-174h175v-56h-104v-100h-94v-52h94v-53h62v53h150v-53h64v53h82v52h-82v100h-105v56h172v174h-174v14h2v41h179v51zM725 414h200s0 24 -1 33c-12 318 -23 427 -52 463c-17 22 -36 30 -63 32c-24 3 -67 3 -111 1
c-1 -21 -10 -51 -20 -70c44 4 84 4 101 4c15 1 24 -2 33 -12c19 -23 31 -122 41 -386h-132c-16 210 -60 376 -213 479c-10 -17 -32 -42 -49 -53c138 -90 177 -238 191 -426h-127v-65h131c1 -41 2 -83 3 -127h72c-1 44 -2 86 -4 127zM639 126h302v59h-177c23 28 44 60 55 82
l-65 25c-11 -29 -41 -72 -68 -107h-75c-24 44 -51 84 -81 115c-12 -10 -45 -28 -62 -37c57 -54 101 -138 125 -223l73 13c-7 25 -17 49 -27 73z" />
</svg>
