<?xml version="1.0" standalone="no"?>
<!DOCTYPE svg PUBLIC "-//W3C//DTD SVG 1.1//EN" "http://www.w3.org/Graphics/SVG/1.1/DTD/svg11.dtd" >
<svg xmlns="http://www.w3.org/2000/svg" xmlns:xlink="http://www.w3.org/1999/xlink" version="1.1" viewBox="-10 0 1010 1000">
   <path fill="currentColor"
d="M690 177h-84c-17 25 -36 48 -55 67c-13 -10 -45 -26 -63 -35c48 -42 85 -105 106 -169l72 12c-7 23 -17 46 -27 68h300v57h-171c16 22 32 45 41 61l-64 26c-10 -23 -32 -57 -55 -87zM270 179h-65c-29 36 -60 70 -91 95c-14 -10 -46 -27 -63 -35c66 -48 125 -122 157 -199
l72 15c-10 24 -23 46 -36 68h247v56h-146c15 24 29 49 36 68l-62 25c-9 -25 -29 -62 -49 -93zM210 570v97c0 96 -12 204 -107 285c-12 -14 -38 -36 -56 -47c85 -69 95 -161 95 -240v-95h68zM800 956v-388h71v388h-71zM781 488v-52h-246v52h246zM535 330v50h246v-50h-246z
M852 380h93v56h-93v102h-317v126h54c26 -33 56 -82 74 -115l61 23c-20 31 -43 64 -65 92h119v58h-243v4c83 37 184 92 236 132l-38 44c-44 -35 -124 -82 -198 -119v173h-70v-204c-60 71 -149 138 -234 173c-9 -18 -26 -41 -41 -56c82 -25 168 -83 225 -147h-180v-58h107
c-10 -30 -36 -70 -62 -98l53 -22c28 29 55 70 66 98l-49 22h115v-126h-326v-50h326v-52h-406v-56h406v-50h-313v-51h313v-42h70v42h317v101z" />
</svg>
