<?xml version="1.0" standalone="no"?>
<!DOCTYPE svg PUBLIC "-//W3C//DTD SVG 1.1//EN" "http://www.w3.org/Graphics/SVG/1.1/DTD/svg11.dtd" >
<svg xmlns="http://www.w3.org/2000/svg" xmlns:xlink="http://www.w3.org/1999/xlink" version="1.1" viewBox="-10 0 1010 1000">
   <path fill="currentColor"
d="M267 762l70 22c-48 62 -125 125 -192 163c-12 -14 -40 -39 -56 -51c67 -32 137 -82 178 -134zM635 792l59 -33c65 42 145 104 186 148l-63 37c-37 -43 -116 -109 -182 -152zM354 470h292c-33 -30 -61 -64 -85 -100h-120c-25 37 -55 71 -87 100zM689 583v-61h-382v61h382z
M689 696v-64h-382v64h382zM358 370h-189c35 24 76 57 103 83c32 -24 61 -53 86 -83zM823 370h-188c26 32 58 62 93 88c33 -26 70 -61 95 -88zM835 370l53 31c-35 33 -75 64 -110 90c53 31 112 55 175 71c-15 13 -34 40 -44 57c-53 -15 -104 -38 -151 -66v195h-223v134
c0 38 -9 54 -38 65c-30 11 -75 10 -144 10c-5 -19 -17 -44 -26 -62c55 1 103 1 116 0c15 -1 19 -4 19 -15v-132h-222v-195c-47 27 -98 51 -151 70c-10 -15 -34 -42 -50 -55c65 -19 124 -45 177 -76c-27 -28 -66 -61 -98 -85l49 -37h-80v-58h310c12 -21 23 -42 32 -65l26 6
c-12 -7 -25 -14 -35 -19c21 -16 43 -33 61 -54h-180c16 25 32 53 39 72l-67 21c-8 -26 -28 -63 -49 -93h-36c-27 40 -57 77 -86 106c-14 -11 -43 -32 -61 -40c60 -52 114 -129 144 -206l69 17c-9 23 -20 45 -32 67h261v54c39 -40 72 -88 92 -138l71 17c-10 23 -22 45 -34 67
h329v56h-207c21 26 41 56 50 77l-65 24c-12 -28 -39 -69 -66 -101h-81c-23 31 -51 60 -77 82l3 1c-7 17 -15 33 -22 49h440v58h-81z" />
</svg>
