<?xml version="1.0" standalone="no"?>
<!DOCTYPE svg PUBLIC "-//W3C//DTD SVG 1.1//EN" "http://www.w3.org/Graphics/SVG/1.1/DTD/svg11.dtd" >
<svg xmlns="http://www.w3.org/2000/svg" xmlns:xlink="http://www.w3.org/1999/xlink" version="1.1" viewBox="-10 0 1010 1000">
   <path fill="currentColor"
d="M620 789h-245v55h245v-55zM685 745v143h-310v22h-65v-165h375zM876 655v230c0 33 -7 50 -32 60c-25 11 -63 11 -120 11c-4 -17 -14 -42 -23 -59c41 1 78 1 89 1c12 -1 15 -3 15 -13v-180h-606v251h-70v-301h747zM324 480h344c-19 -14 -37 -29 -52 -44h-239
c-17 16 -35 30 -53 44zM647 580v-57h-303v57h303zM933 436h-235c68 46 168 82 265 99c-15 13 -34 38 -44 56c-70 -17 -141 -44 -202 -79v111h-439v-112c-61 37 -130 67 -201 90c-8 -15 -29 -44 -42 -57c90 -24 176 -59 245 -108h-211v-52h272c14 -14 26 -28 36 -43
c-75 4 -151 7 -222 8c-2 -14 -9 -37 -15 -48c195 -5 424 -19 571 -39c-11 -24 -33 -57 -56 -85h-79c-29 38 -61 72 -93 98c-14 -10 -46 -28 -64 -37c24 -17 47 -38 68 -61h-182c16 27 30 56 37 77l-67 19c-7 -25 -26 -64 -44 -96h-42c-28 40 -58 76 -87 104
c-13 -12 -43 -32 -60 -41c59 -50 113 -126 143 -201l69 19c-9 20 -19 41 -30 61h263v58c37 -41 68 -89 88 -138l71 17c-9 21 -19 43 -31 63h339v58h-217c18 22 34 45 42 63l-61 21c16 -2 31 -5 45 -7l54 44c-99 17 -227 30 -360 39c-10 16 -21 32 -32 47h508v52z" />
</svg>
