<?xml version="1.0" standalone="no"?>
<!DOCTYPE svg PUBLIC "-//W3C//DTD SVG 1.1//EN" "http://www.w3.org/Graphics/SVG/1.1/DTD/svg11.dtd" >
<svg xmlns="http://www.w3.org/2000/svg" xmlns:xlink="http://www.w3.org/1999/xlink" version="1.1" viewBox="-10 0 1010 1000">
   <path fill="currentColor"
d="M681 177h-78c-27 44 -58 83 -90 113c-14 -10 -44 -27 -63 -35c62 -52 113 -130 139 -214l70 14c-8 22 -17 44 -27 65h306v57h-178c20 27 37 57 46 77l-64 26c-11 -29 -35 -70 -61 -103zM264 178h-54c-31 48 -66 90 -102 122c-15 -11 -45 -27 -63 -36
c66 -55 125 -137 159 -223l68 17c-8 22 -18 42 -29 63h249v57h-153c17 28 32 59 40 81l-64 25c-10 -29 -30 -71 -51 -106zM637 774l75 19c-18 29 -37 57 -55 81h277v60h-864v-60h257c-8 -24 -25 -57 -42 -82l70 -17c20 26 40 62 48 87l-41 12h217c21 -30 44 -72 58 -100z
M702 716v-85h-418v85h418zM778 575v198h-567v-198h567zM859 380l55 40c-39 28 -87 56 -129 77c54 35 115 62 177 80c-14 14 -36 40 -46 58c-100 -34 -192 -91 -267 -163v48h-295v-40c-83 69 -184 120 -280 152c-9 -15 -28 -39 -41 -52c59 -18 125 -45 183 -80
c-32 -25 -76 -56 -115 -77l39 -40c43 22 95 56 128 84c43 -30 81 -64 111 -100h-263v-58h306l13 -3l45 27c-27 48 -63 92 -106 130h265c-48 -48 -88 -103 -119 -162l59 -20c16 30 36 59 58 87c39 -27 84 -62 112 -87l56 40c-40 32 -88 64 -129 88c18 19 38 36 59 53
c43 -24 93 -58 124 -82z" />
</svg>
