<?xml version="1.0" standalone="no"?>
<!DOCTYPE svg PUBLIC "-//W3C//DTD SVG 1.1//EN" "http://www.w3.org/Graphics/SVG/1.1/DTD/svg11.dtd" >
<svg xmlns="http://www.w3.org/2000/svg" xmlns:xlink="http://www.w3.org/1999/xlink" version="1.1" viewBox="-10 0 1010 1000">
   <path fill="currentColor"
d="M661 171h-80c-24 32 -50 62 -76 84c-14 -11 -46 -28 -63 -36c58 -44 107 -110 133 -179l70 15c-8 21 -18 40 -29 60h327v56h-202c16 21 30 43 38 60l-66 21c-10 -21 -30 -55 -52 -81zM254 171h-69c-21 27 -44 53 -66 73c-13 -11 -43 -31 -60 -41c52 -42 99 -103 126 -163
l69 18c-9 20 -19 38 -31 57h264v56h-157c14 20 27 40 32 56l-64 21c-9 -20 -27 -52 -44 -77zM326 441h-20c-38 79 -104 139 -223 177c-7 -14 -24 -37 -37 -49c98 -28 156 -71 191 -128h-143c9 -33 18 -76 24 -114l59 5c-4 20 -9 39 -13 58h97c9 -24 15 -50 20 -77h-187v-56
h386v56h-136c-5 27 -11 53 -18 77h159v51h-97v77l105 -33c0 16 2 40 5 52c-151 54 -176 64 -190 75c-4 -14 -18 -40 -28 -52c17 -9 46 -28 46 -68v-51zM764 681h-514v71h514v-71zM250 874h514v-72h-514v72zM180 957v-329h657v326h-73v-25h-514v28h-70zM827 543h57
c17 0 21 -6 23 -63c12 10 35 17 51 21c-5 74 -21 93 -66 93h-73c-58 0 -73 -14 -73 -70v-53c-37 69 -102 115 -217 145c-6 -14 -23 -37 -35 -48c108 -26 166 -65 198 -125h-163c9 -33 18 -75 24 -113l59 5c-4 20 -9 38 -13 57h112c7 -23 11 -49 14 -77h-205v-56h412v56h-144
c-3 27 -7 54 -13 77h150v51h-120v80c0 18 3 20 22 20z" />
</svg>
