<?xml version="1.0" standalone="no"?>
<!DOCTYPE svg PUBLIC "-//W3C//DTD SVG 1.1//EN" "http://www.w3.org/Graphics/SVG/1.1/DTD/svg11.dtd" >
<svg xmlns="http://www.w3.org/2000/svg" xmlns:xlink="http://www.w3.org/1999/xlink" version="1.1" viewBox="-10 0 1010 1000">
   <path fill="currentColor"
d="M656 173h-80c-28 38 -61 72 -94 99c-13 -11 -45 -29 -62 -38c65 -46 124 -118 155 -195l70 17c-9 22 -21 43 -32 64h329v53h-208c23 28 43 60 54 83l-64 21c-13 -28 -40 -70 -68 -104zM249 173h-62c-27 41 -58 77 -88 105c-13 -10 -42 -30 -59 -40
c59 -48 112 -124 143 -198l68 17c-9 22 -19 42 -31 63h267v53h-163c19 31 35 66 44 90l-66 20c-8 -29 -30 -73 -53 -110zM148 293l56 -26c41 33 83 81 99 111l-61 30c-15 -32 -55 -81 -94 -115zM428 668l-43 52c-23 -19 -71 -56 -109 -84v319h-73v-281
c-39 32 -79 58 -120 81c-7 -15 -29 -43 -43 -52c103 -53 209 -144 270 -237h-230v-56h277l10 -2l46 20c-28 55 -69 110 -115 159c42 26 111 69 130 81zM861 617l57 29c-32 45 -72 91 -107 126c42 42 94 74 151 94c-13 12 -32 36 -41 53c-88 -36 -159 -101 -210 -184v154
c0 33 -6 48 -31 58c-23 10 -61 10 -118 10c-4 -17 -15 -39 -23 -55c39 1 76 1 86 1c11 -1 15 -4 15 -15v-116c-75 48 -157 95 -220 132l-35 -53c64 -32 161 -87 255 -140v-123h-242v-58h417v-68h-370v-51h370v-67h-387v-50h452v236h74v58h-243v32c16 41 37 78 63 111
c31 -35 67 -80 87 -114zM586 716l-46 39c-21 -33 -67 -78 -108 -108l45 -34c41 29 88 71 109 103z" />
</svg>
