<?xml version="1.0" standalone="no"?>
<!DOCTYPE svg PUBLIC "-//W3C//DTD SVG 1.1//EN" "http://www.w3.org/Graphics/SVG/1.1/DTD/svg11.dtd" >
<svg xmlns="http://www.w3.org/2000/svg" xmlns:xlink="http://www.w3.org/1999/xlink" version="1.1" viewBox="-10 0 1010 1000">
   <path fill="currentColor"
d="M274 169h-87c-27 35 -57 67 -86 92c-13 -11 -41 -31 -58 -39c60 -46 115 -114 147 -182l66 17c-10 21 -21 41 -33 61h279v51h-156c15 20 28 42 35 58l-60 21h152v270h-68v-87c-101 33 -204 64 -285 88l-22 -58c77 -19 192 -50 307 -82v-78h-217c48 17 104 40 135 60
l-32 49c-34 -23 -102 -53 -156 -71l27 -38h-45v-53h201c-9 -21 -27 -53 -44 -79zM265 821v61h235v-61h-235zM500 672v-59h-235v59h235zM500 773v-53h-235v53h235zM570 821v61h348v51h-653v24h-72v-287c-28 25 -58 48 -85 66c-11 -12 -35 -38 -50 -50
c80 -48 164 -123 213 -199l64 21c-11 18 -25 36 -39 54h209c-8 -20 -19 -41 -28 -59l66 -18c14 23 31 54 39 77h299v51h-311v59h276v48h-276v53h272v48h-272zM530 300v-53h353v274h-68v-88c-90 30 -181 59 -253 82l-25 -55c71 -18 175 -48 278 -78v-82h-220
c54 14 120 38 155 58l-28 50c-37 -22 -107 -50 -163 -66l28 -42h-57zM631 118h316v51h-201c15 19 29 39 37 55l-63 23c-9 -21 -31 -52 -52 -78h-70c-20 29 -44 55 -66 75c-15 -11 -46 -26 -63 -33c54 -43 99 -106 123 -171l68 15c-8 22 -18 42 -29 63z" />
</svg>
