<?xml version="1.0" standalone="no"?>
<!DOCTYPE svg PUBLIC "-//W3C//DTD SVG 1.1//EN" "http://www.w3.org/Graphics/SVG/1.1/DTD/svg11.dtd" >
<svg xmlns="http://www.w3.org/2000/svg" xmlns:xlink="http://www.w3.org/1999/xlink" version="1.1" viewBox="-10 0 1010 1000">
   <path fill="currentColor"
d="M687 191h-80c-23 39 -49 74 -76 102c-14 -12 -45 -32 -64 -42c56 -51 102 -128 127 -208l72 16c-8 24 -17 46 -26 69h292v63h-171c10 19 19 37 24 51l-63 26c-5 -20 -19 -51 -35 -77zM281 192h-69c-30 46 -64 87 -98 119c-14 -11 -44 -33 -61 -42
c66 -55 123 -141 155 -230l72 18c-9 25 -21 49 -32 73h239v62h-131c15 26 28 54 34 73l-65 25c-7 -27 -25 -65 -44 -98zM433 634h-130c43 40 128 128 152 153l-43 53c-25 -32 -79 -93 -122 -139v257h-70v-235c-42 73 -96 143 -145 189c-9 -15 -25 -40 -40 -53
c61 -49 129 -141 170 -225h-147v-56h162v-68h-127v-56h127v-67h-142v-56h142v-76h70v76h130v56h-130v67h117v56h-117v68h143v56zM819 666h-239v78h239v-78zM580 874h239v-80h-239v80zM511 958v-345h379v341h-71v-26h-239v30h-69zM641 392v106h121v-106h-121zM831 498h106v59
h-490v-59h124v-106h-104v-56h104v-81h70v81h121v-81h69v81h98v56h-98v106z" />
</svg>
