<?xml version="1.0" standalone="no"?>
<!DOCTYPE svg PUBLIC "-//W3C//DTD SVG 1.1//EN" "http://www.w3.org/Graphics/SVG/1.1/DTD/svg11.dtd" >
<svg xmlns="http://www.w3.org/2000/svg" xmlns:xlink="http://www.w3.org/1999/xlink" version="1.1" viewBox="-10 0 1010 1000">
   <path fill="currentColor"
d="M53 496l33 -53c57 17 131 49 169 73l-33 59c-38 -25 -111 -60 -169 -79zM308 342l-35 58c-36 -27 -105 -61 -161 -83l33 -52c55 19 126 52 163 77zM129 953l-59 -44c42 -60 100 -159 145 -248l52 42c-41 82 -93 177 -138 250zM425 626h373c-60 -37 -116 -83 -157 -132
v117h-69v-112c-39 46 -91 90 -147 127zM638 875h153v-76h-153v76zM426 799v76h147v-76h-147zM573 750v-71h-147v71h147zM791 750v-71h-153v71h153zM572 430v-104c-43 4 -87 7 -129 9c23 29 45 67 56 95h73zM636 182h-68c-28 37 -59 70 -90 96c73 -5 145 -12 209 -20
c-12 -22 -31 -51 -51 -76zM943 488h-233c65 63 164 117 255 144c-15 13 -34 37 -45 54c-20 -7 -40 -16 -60 -26v296h-69v-28h-365v28h-66v-292c-21 11 -42 21 -62 29c-10 -17 -29 -41 -44 -52c89 -31 186 -88 251 -153h-223v-58h149c-12 -26 -30 -55 -48 -78l39 -16
c-29 2 -58 3 -86 4c-2 -15 -9 -38 -16 -52c48 -2 98 -5 148 -9c-16 -11 -43 -26 -58 -33c25 -18 49 -40 70 -64h-164c18 25 34 52 43 72l-61 20c-10 -25 -32 -61 -55 -92h-54c-28 42 -60 79 -91 109c-13 -11 -42 -31 -59 -39c61 -52 117 -131 150 -210l68 19
c-9 22 -20 43 -32 64h262v50c34 -40 63 -86 83 -133l68 17c-9 23 -20 45 -33 66h346v57h-241c17 22 32 45 40 63l-18 7c33 -5 63 -10 87 -16l59 47c-66 15 -149 28 -237 37v110h75c21 -33 48 -82 61 -117l67 21c-20 33 -42 68 -63 96h162v58z" />
</svg>
