<?xml version="1.0" standalone="no"?>
<!DOCTYPE svg PUBLIC "-//W3C//DTD SVG 1.1//EN" "http://www.w3.org/Graphics/SVG/1.1/DTD/svg11.dtd" >
<svg xmlns="http://www.w3.org/2000/svg" xmlns:xlink="http://www.w3.org/1999/xlink" version="1.1" viewBox="-10 0 1010 1000">
   <path fill="currentColor"
d="M258 466v26c24 29 96 130 112 155l-37 61c-13 -32 -48 -91 -75 -137v386h-68v-383c-34 88 -78 178 -120 234c-5 -20 -22 -49 -33 -66c51 -62 111 -181 143 -276h-114v-65h124v-123h68v123h97v65h-97zM612 680h-150v71h150v-71zM831 751v-71h-155v71h155zM676 875h155v-73
h-155v73zM462 875h150v-73h-150v73zM394 956v-331h507v329h-70v-23h-369v25h-68zM640 293h290s0 18 -1 27c-5 156 -11 216 -29 237c-12 16 -27 22 -49 24c-18 2 -50 2 -83 0c-1 -18 -8 -42 -17 -58c32 3 59 3 70 3s19 -1 24 -8c8 -13 13 -56 17 -170h-95
c-8 116 -39 200 -115 255c-8 -12 -29 -36 -43 -46c11 -6 19 -14 27 -22l-49 24c-5 -13 -11 -30 -18 -47c-154 55 -178 66 -193 78c-2 -16 -12 -44 -21 -58c12 -4 21 -10 21 -42v-177h1c71 -17 156 -41 204 -65l44 47c-52 23 -121 42 -186 56v147l107 -36
c-10 -21 -21 -43 -30 -61l50 -25c28 49 59 114 74 156c42 -44 59 -105 65 -184h-65v-55zM618 121h330v61h-196c20 26 39 55 52 74l-68 21c-14 -24 -40 -63 -64 -95h-96c-27 37 -57 69 -87 95c-15 -11 -46 -29 -65 -37c22 -16 42 -37 63 -58h-155c18 28 35 58 46 79l-67 22
c-10 -26 -33 -67 -54 -101h-71c-28 39 -56 75 -83 102c-13 -10 -45 -30 -61 -39c57 -52 113 -131 149 -205l68 19c-10 21 -21 41 -34 62h267v55c35 -41 67 -88 88 -136l71 18c-10 22 -22 42 -33 63z" />
</svg>
