<?xml version="1.0" standalone="no"?>
<!DOCTYPE svg PUBLIC "-//W3C//DTD SVG 1.1//EN" "http://www.w3.org/Graphics/SVG/1.1/DTD/svg11.dtd" >
<svg xmlns="http://www.w3.org/2000/svg" xmlns:xlink="http://www.w3.org/1999/xlink" version="1.1" viewBox="-10 0 1010 1000">
   <path fill="currentColor"
d="M252 831v49h263v-49h-263zM515 689v-47h-263v47h263zM515 784v-49h-263v49h263zM586 831v49h300v50h-634v25h-71v-246c-26 24 -53 46 -79 64c-10 -12 -35 -37 -49 -49c75 -47 148 -117 196 -190h-45v-41h210v41h-128l32 10c-10 17 -21 32 -32 48h225
c-8 -15 -17 -30 -24 -44l64 -20c14 20 30 45 40 64h278v50h-283v47h259v46h-259v49h260v47h-260zM204 419h208v41h-208v-41zM585 534v-40h211v40h-211zM585 420h208v40h-208v-40zM484 167h-162c13 18 23 37 30 52l-67 19c-6 -18 -23 -48 -40 -71h-53c-29 39 -62 74 -93 101
c-13 -11 -41 -30 -57 -39c61 -47 118 -117 151 -189l66 17c-9 20 -20 38 -31 57h256v53zM521 238h181c-9 -19 -26 -46 -45 -67h-73c-20 25 -41 48 -63 67zM928 119v52h-190c14 18 27 37 34 51l-48 16h137v49h-326v42h380v170h-72v-122h-308v149h-71v-149h-308v122h-70v-170
h378v-42h-323v-49h345c-15 -8 -32 -16 -44 -20c61 -42 113 -107 141 -174l67 16c-8 21 -18 40 -30 59h308z" />
</svg>
