<?xml version="1.0" standalone="no"?>
<!DOCTYPE svg PUBLIC "-//W3C//DTD SVG 1.1//EN" "http://www.w3.org/Graphics/SVG/1.1/DTD/svg11.dtd" >
<svg xmlns="http://www.w3.org/2000/svg" xmlns:xlink="http://www.w3.org/1999/xlink" version="1.1" viewBox="-10 0 1010 1000">
   <path fill="currentColor"
d="M690 179h-88c-24 36 -51 67 -79 93c-14 -10 -45 -28 -63 -37c59 -46 107 -119 133 -195l73 13c-9 24 -19 47 -31 70h307v56h-174c17 22 32 45 39 61l-65 22c-10 -23 -30 -56 -52 -83zM285 179h-73c-31 45 -66 85 -102 116c-14 -10 -45 -26 -63 -35
c69 -53 128 -135 161 -221l72 15c-10 23 -21 45 -33 68h245v57h-133c15 24 29 50 34 68l-63 23c-8 -25 -27 -61 -45 -91zM527 681h111v-56h-111v56zM527 527v55h111v-55h-111zM824 527h-117v55h117v-55zM824 681v-56h-117v56h117zM135 446h249c-35 -34 -89 -73 -141 -107
c-33 38 -70 76 -108 107zM707 888h236v55h-528v-55h223v-59h-180v-54h180v-49h-177v-243h177v-46h-214v-24l-34 39l-6 -6v57h-108v80h129v57h-129v198c41 -7 83 -14 125 -21l4 59c-121 23 -248 43 -341 60l-13 -64c45 -7 102 -14 163 -24v-208h-153v-57h153v-80h-103v-38
c-16 11 -30 22 -46 32c-5 -13 -22 -44 -32 -58c78 -47 159 -120 205 -198l59 21c-7 10 -14 22 -22 33c57 33 113 72 148 106v-18h215v-51c-65 4 -129 6 -189 7c-2 -14 -9 -34 -16 -48c155 -5 341 -17 447 -33l38 48c-59 8 -133 16 -211 22v55h230v54h-230v46h187v243h-187
v49h200v54h-200v59zM352 808l-46 -16c15 -35 35 -88 42 -125l57 18c-17 44 -37 91 -53 123zM86 687l50 -14c17 43 34 99 39 135l-53 16c-4 -37 -20 -94 -36 -137z" />
</svg>
