<?xml version="1.0" standalone="no"?>
<!DOCTYPE svg PUBLIC "-//W3C//DTD SVG 1.1//EN" "http://www.w3.org/Graphics/SVG/1.1/DTD/svg11.dtd" >
<svg xmlns="http://www.w3.org/2000/svg" xmlns:xlink="http://www.w3.org/1999/xlink" version="1.1" viewBox="-10 0 1010 1000">
   <path fill="currentColor"
d="M670 191h-79c-24 34 -52 66 -79 91c-14 -12 -44 -33 -62 -43c61 -48 113 -123 141 -200l73 16c-9 25 -21 49 -34 73h317v63h-195c19 23 36 47 45 66l-65 26c-12 -26 -37 -61 -62 -92zM554 511l-39 13c-1 -9 -4 -18 -7 -29c-103 13 -122 16 -134 21c-2 -7 -10 -27 -16 -36
c14 -2 26 -10 39 -24c8 -8 24 -26 42 -48c-48 7 -62 10 -71 13v-2c-1 1 -1 2 -1 3c-3 -8 -10 -28 -16 -37c11 -2 19 -7 28 -18c8 -10 42 -54 57 -96l46 15c-17 34 -40 66 -60 91l43 -3c10 -15 19 -30 26 -44l45 17c-30 45 -66 89 -102 123l63 -6c-5 -14 -10 -28 -16 -39
l36 -12c17 31 31 72 37 98zM253 191h-61c-28 39 -61 74 -91 102c-14 -11 -44 -31 -62 -41c67 -53 127 -133 163 -213l71 17c-11 25 -24 48 -38 72h260v63h-167c14 27 28 54 35 75l-66 21l-1 -4c-17 35 -39 68 -60 95l42 -4c9 -13 17 -28 24 -41l43 18c-27 43 -60 86 -95 119
l56 -6c-4 -14 -10 -27 -14 -38l37 -9c14 30 27 70 33 95l-39 11c-1 -9 -4 -18 -6 -28c-96 15 -117 18 -128 23c-1 -7 -8 -27 -14 -36c13 -2 23 -11 37 -24c7 -7 24 -26 42 -50c-48 7 -62 11 -70 15v-3c-1 1 -1 2 -1 3c-2 -8 -10 -28 -16 -37c11 -2 19 -8 27 -19
c9 -11 42 -56 56 -99l45 15c-7 -26 -24 -61 -42 -92zM251 779l55 -7c-4 -12 -9 -25 -14 -37c-13 16 -27 31 -41 44zM951 498v65h-104v390h-69v-390h-120v43c0 112 -13 259 -89 355c-10 -14 -36 -39 -50 -48l7 -10h-430v-590h65v219h397v56h-123l42 14c-17 31 -38 60 -58 83
l43 -4c10 -14 19 -27 25 -42l43 18c-28 44 -63 88 -98 121l61 -6c-5 -14 -9 -26 -14 -38l36 -11c14 30 28 72 33 98l-39 12c-2 -9 -4 -19 -6 -29c-99 11 -120 15 -130 21c-2 -8 -10 -27 -16 -36c14 -2 25 -11 39 -25c7 -7 24 -25 41 -49c-49 7 -63 11 -72 15
c-3 -8 -10 -27 -16 -37c10 -1 18 -6 27 -16c8 -10 40 -50 55 -89h-158l28 10c-18 32 -41 63 -62 88l42 -4c9 -14 17 -27 24 -42l42 18c-16 26 -35 51 -54 76l35 -8c14 30 27 70 33 95l-39 11c-1 -9 -3 -19 -6 -28c-94 14 -115 18 -126 23c-2 -8 -9 -27 -14 -36
c12 -2 24 -10 37 -25c8 -7 25 -25 42 -49c-48 7 -63 11 -71 14v1c-3 -9 -10 -28 -16 -37c11 -2 19 -8 28 -18s41 -50 57 -89h-92v255h378v39c47 -83 53 -188 53 -276v-282h13c100 -9 215 -25 284 -44l42 58c-74 20 -179 34 -273 41v119h293z" />
</svg>
