<?xml version="1.0" standalone="no"?>
<!DOCTYPE svg PUBLIC "-//W3C//DTD SVG 1.1//EN" "http://www.w3.org/Graphics/SVG/1.1/DTD/svg11.dtd" >
<svg xmlns="http://www.w3.org/2000/svg" xmlns:xlink="http://www.w3.org/1999/xlink" version="1.1" viewBox="-10 0 1010 1000">
   <path fill="currentColor"
d="M355 848l59 24c-82 37 -210 68 -311 86c-11 -12 -35 -37 -49 -47c106 -13 228 -36 301 -63zM585 878l53 -32c109 22 230 54 302 77l-70 36c-63 -25 -171 -55 -285 -81zM704 325h-94c-10 18 -21 34 -31 48h125v-48zM757 625v-43h-500v43h500zM757 711v-43h-500v43h500z
M757 798v-45h-500v45h500zM317 419h-62c-10 50 -31 89 -68 119h114c-5 -13 -14 -28 -20 -37c14 -7 36 -23 36 -62v-20zM274 327h-96c-10 18 -22 33 -33 47h129v-47zM838 490h35c9 0 19 -1 23 -2s9 -4 11 -8c3 -6 4 -17 5 -33c11 9 27 17 41 21c-1 18 -4 38 -9 45
c-6 9 -16 14 -27 17c-9 3 -28 4 -39 4h-51c-18 0 -39 -3 -49 -13c-13 -10 -17 -23 -17 -60v-42h-73c-11 55 -38 93 -100 119h241v303h-642v-303c-22 18 -48 32 -82 44c-7 -14 -24 -34 -37 -43c79 -24 113 -63 126 -120h-112v-45h47c-12 -8 -28 -18 -39 -23
c32 -31 55 -72 68 -115l55 13c-4 11 -8 22 -13 34h74v-45h44c-7 -18 -19 -41 -33 -63h-101c-27 37 -56 71 -84 97c-13 -12 -42 -30 -58 -40c59 -47 112 -120 144 -192l66 17c-9 22 -20 42 -32 63h276v55h-135c10 18 19 35 24 48l-47 15v45h126v44h-126v47h156v45h-117v53
l121 -26c-2 15 -3 36 -2 48c-97 24 -144 36 -167 44h232c-9 -14 -21 -30 -32 -38c61 -16 88 -40 100 -81h-109v-46h44c-12 -8 -29 -18 -40 -23c30 -32 51 -73 63 -115l55 12c-3 11 -8 22 -11 34h73v-41h16c-9 -20 -24 -44 -40 -66h-78c-24 32 -50 62 -76 85
c-15 -10 -45 -27 -63 -36c59 -45 109 -113 135 -184l69 16c-9 22 -19 44 -31 65h309v54h-187c12 18 23 35 29 49l-49 17h30v41h134v44h-134v48h170v46h-123v48c0 11 1 17 5 19s10 4 18 4z" />
</svg>
