<?xml version="1.0" standalone="no"?>
<!DOCTYPE svg PUBLIC "-//W3C//DTD SVG 1.1//EN" "http://www.w3.org/Graphics/SVG/1.1/DTD/svg11.dtd" >
<svg xmlns="http://www.w3.org/2000/svg" xmlns:xlink="http://www.w3.org/1999/xlink" version="1.1" viewBox="-10 0 1010 1000">
   <path fill="currentColor"
d="M114 774l58 7c-11 62 -27 126 -50 169c-13 -5 -40 -11 -56 -14c27 -43 40 -105 48 -162zM219 780l52 -8c15 48 27 110 28 151l-57 9c0 -41 -10 -103 -23 -152zM326 767l52 -11c24 41 49 96 58 133l-54 13c-8 -37 -32 -93 -56 -135zM559 797v67h145v-67h-145zM704 636v-61
h-145v61h145zM704 749v-65h-145v65h145zM327 628l50 -17c6 10 13 23 19 36c60 -53 113 -131 146 -213h-326l50 22c-27 35 -57 69 -89 98l122 -8c17 -17 32 -33 47 -51l54 30c-62 64 -131 123 -201 172l156 -15c-8 -19 -18 -37 -28 -54zM185 303v82h166v-82h-166zM257 175
h-71c-21 28 -43 56 -67 78h173c-7 -21 -21 -52 -35 -78zM413 303v82h172v-82h-172zM678 175h-100c-21 29 -46 56 -70 78h222c-11 -22 -32 -53 -52 -78zM822 385v-82h-175v82h175zM948 864v54h-389v40h-67v-318c-14 17 -29 34 -42 47c-12 -11 -38 -30 -53 -40
c15 33 30 68 36 92l-52 21c-2 -10 -5 -21 -9 -31c-229 24 -262 29 -282 37c-3 -11 -14 -36 -21 -50c21 -3 43 -16 73 -37c17 -11 58 -42 101 -81c-115 10 -138 14 -152 20c-3 -11 -14 -38 -23 -51c15 -2 27 -9 42 -22s62 -62 92 -111h-84v-180c-7 8 -15 15 -22 21
c-13 -12 -43 -32 -59 -41c60 -48 116 -121 149 -194l70 18c-10 20 -20 40 -32 60h264v57h-157c13 22 23 46 28 63l-52 15h164c-15 -9 -31 -18 -43 -23c64 -46 118 -116 148 -190l70 17c-9 21 -18 41 -29 61h325v57h-184c17 22 32 46 41 63l-45 15h138v181h-325l40 11
c-11 26 -22 51 -36 77h130c-8 -24 -20 -49 -31 -70l58 -18c16 27 33 61 41 88h159v53h-159v61h133v48h-133v65h133v48h-133v67h179z" />
</svg>
