<?xml version="1.0" standalone="no"?>
<!DOCTYPE svg PUBLIC "-//W3C//DTD SVG 1.1//EN" "http://www.w3.org/Graphics/SVG/1.1/DTD/svg11.dtd" >
<svg xmlns="http://www.w3.org/2000/svg" xmlns:xlink="http://www.w3.org/1999/xlink" version="1.1" viewBox="-10 0 1010 1000">
   <path fill="currentColor"
d="M250 155h-59c-20 27 -41 52 -63 74h165c-9 -21 -27 -50 -43 -74zM534 208l-4 -3c5 9 10 17 14 24h175c-9 -21 -30 -50 -50 -74h-84c-16 20 -33 38 -51 53zM104 274v-23c-12 -11 -41 -30 -58 -39c56 -44 107 -108 138 -174l66 18c-7 16 -15 30 -24 46h258v53h-157
c13 20 25 39 32 54l-63 20h167c-8 -15 -17 -32 -26 -44l39 -9l-5 -2c46 -34 85 -84 107 -135l68 16c-6 16 -14 31 -24 47h322v53h-195c15 19 29 37 37 53l-61 21h180v45h-675v42h625v43h-687v-85h-64zM762 482v-46h-522v46h522zM833 393v133h-661v-133h661zM429 754v40h113
v-40h-113zM429 676v39h113v-39h-113zM429 600v37h113v-37h-113zM597 834h-221v-274h221v274zM180 758h96v-53h-93c0 17 -1 34 -3 53zM276 608h-93v51h93v-51zM333 560v331c0 30 -5 45 -26 54c-18 10 -49 10 -96 10c-1 -16 -9 -37 -16 -52h69c9 0 12 -3 12 -12v-86h-103
c-11 55 -31 110 -72 153c-9 -10 -34 -28 -47 -33c64 -69 72 -160 72 -231v-134h207zM422 838l51 25c-27 33 -67 72 -96 94c-10 -10 -30 -26 -44 -33c33 -22 71 -58 89 -86zM697 640l24 -9c32 50 65 113 82 158v-180h-106v31zM874 896h17c6 0 11 -1 14 -4s6 -9 9 -20
c2 -12 3 -40 3 -76c11 9 28 17 42 22c-1 35 -3 76 -8 90s-12 23 -21 29s-23 8 -36 8h-33c-16 0 -33 -4 -43 -15c-12 -11 -15 -25 -15 -82v-49l-42 18c-12 -38 -37 -92 -64 -138v25c0 78 -12 185 -72 257c-10 -9 -35 -24 -49 -29c7 -8 12 -15 18 -24l-35 23
c-11 -19 -34 -47 -53 -67l42 -26c18 18 39 42 52 60c34 -63 40 -136 40 -195v-143h219v295c0 20 0 33 3 37c3 3 7 4 12 4z" />
</svg>
