<?xml version="1.0" standalone="no"?>
<!DOCTYPE svg PUBLIC "-//W3C//DTD SVG 1.1//EN" "http://www.w3.org/Graphics/SVG/1.1/DTD/svg11.dtd" >
<svg xmlns="http://www.w3.org/2000/svg" xmlns:xlink="http://www.w3.org/1999/xlink" version="1.1" viewBox="-10 0 1010 1000">
   <path fill="currentColor"
d="M372 103l28 -57c221 79 287 232 558 294c-7 16 -19 49 -22 67c-204 -49 -302 -154 -424 -233c-103 107 -269 203 -423 249c-10 -20 -28 -47 -44 -65c149 -36 310 -122 408 -219c-25 -14 -52 -26 -81 -36zM689 540l-60 -25c27 -39 62 -99 80 -142l72 26
c-29 51 -64 104 -92 141zM375 513l-71 26c-12 -37 -46 -93 -80 -133l67 -24c35 39 71 92 84 131zM930 628h-332c86 97 227 179 361 220c-16 16 -38 44 -50 62c-136 -49 -280 -144 -372 -256v301h-74v-301c-93 113 -236 210 -367 261c-11 -18 -34 -45 -49 -59
c128 -44 268 -130 355 -228h-328v-66h389v-233h74v233h393v66z" />
</svg>
