<?xml version="1.0" standalone="no"?>
<!DOCTYPE svg PUBLIC "-//W3C//DTD SVG 1.1//EN" "http://www.w3.org/Graphics/SVG/1.1/DTD/svg11.dtd" >
<svg xmlns="http://www.w3.org/2000/svg" xmlns:xlink="http://www.w3.org/1999/xlink" version="1.1" viewBox="-10 0 1010 1000">
   <path fill="currentColor"
d="M372 106l67 18c-25 74 -58 165 -85 220l-51 -15c25 -58 54 -156 69 -223zM170 326l-60 16c-4 -58 -25 -147 -54 -214l56 -14c29 67 52 155 58 212zM427 661l-46 60c-19 -30 -64 -88 -100 -134v369h-70v-380c-37 97 -86 192 -134 252c-7 -21 -26 -53 -39 -71
c60 -69 124 -193 159 -302h-145v-69h159v-342h70v342h144v69h-144v52c34 32 124 129 146 154zM850 878h29c9 0 16 -2 21 -8c5 -5 8 -15 10 -37c2 -24 3 -75 4 -142c15 14 37 25 57 31c-1 57 -4 131 -9 155c-5 29 -13 45 -27 56c-14 9 -33 13 -53 13h-50
c-20 0 -41 -5 -57 -19s-22 -32 -22 -118v-638h-185v249c0 164 -21 389 -163 537c-12 -14 -40 -39 -57 -48c135 -139 148 -337 148 -490v-319h330v715c0 34 2 52 7 57c5 4 10 6 17 6z" />
</svg>
