<?xml version="1.0" standalone="no"?>
<!DOCTYPE svg PUBLIC "-//W3C//DTD SVG 1.1//EN" "http://www.w3.org/Graphics/SVG/1.1/DTD/svg11.dtd" >
<svg xmlns="http://www.w3.org/2000/svg" xmlns:xlink="http://www.w3.org/1999/xlink" version="1.1" viewBox="-10 0 1010 1000">
   <path fill="currentColor"
d="M165 326l-59 15c-3 -58 -24 -146 -50 -215l55 -13c27 67 49 155 54 213zM270 44v342h136v69h-136v46c31 32 108 120 126 144l-46 57c-15 -27 -50 -77 -80 -119v373h-70v-381c-35 94 -80 186 -125 244c-9 -20 -27 -53 -40 -71c56 -67 116 -187 150 -293h-136v-69h151v-342
h70zM339 343l-50 -16c24 -59 52 -156 67 -220l65 16c-24 74 -55 164 -82 220zM848 273h70v683h-70v-61h-414v-618h71v549h133v-780h73v780h137v-553z" />
</svg>
