<?xml version="1.0" standalone="no"?>
<!DOCTYPE svg PUBLIC "-//W3C//DTD SVG 1.1//EN" "http://www.w3.org/Graphics/SVG/1.1/DTD/svg11.dtd" >
<svg xmlns="http://www.w3.org/2000/svg" xmlns:xlink="http://www.w3.org/1999/xlink" version="1.1" viewBox="-10 0 1010 1000">
   <path fill="currentColor"
d="M336 105l64 16c-23 73 -51 165 -74 219l-48 -15c21 -58 46 -155 58 -220zM155 327l-58 14c-1 -58 -19 -147 -42 -216l53 -11c26 67 45 155 47 213zM258 455v45c33 37 115 136 134 162l-44 58c-18 -30 -57 -89 -90 -135v370h-68v-369c-32 91 -74 178 -117 233
c-6 -21 -24 -52 -37 -71c53 -66 109 -186 141 -293h-128v-70h141v-341h68v341h130v70h-130zM491 819l145 -59c2 21 7 51 11 67c-175 77 -202 92 -219 108c-6 -18 -24 -49 -35 -63c12 -10 28 -32 28 -74v-740h70v308h144v70h-144v383zM771 861h94c21 0 25 -24 28 -119
c18 13 44 25 65 30c-8 115 -26 157 -89 157h-108c-71 0 -91 -24 -91 -114v-755h70v341c54 -32 116 -74 155 -108l48 48c-61 45 -139 92 -203 125v350c0 38 5 45 31 45z" />
</svg>
