<?xml version="1.0" standalone="no"?>
<!DOCTYPE svg PUBLIC "-//W3C//DTD SVG 1.1//EN" "http://www.w3.org/Graphics/SVG/1.1/DTD/svg11.dtd" >
<svg xmlns="http://www.w3.org/2000/svg" xmlns:xlink="http://www.w3.org/1999/xlink" version="1.1" viewBox="-10 0 1010 1000">
   <path fill="currentColor"
d="M718 170l-69 23c-10 -37 -33 -94 -53 -137l66 -19c21 43 46 97 56 133zM940 203v71h-521v-71h521zM355 103l63 18c-24 74 -54 168 -79 223l-47 -15c23 -59 50 -158 63 -226zM164 327l-55 14c-6 -58 -27 -151 -52 -220l52 -14c27 70 49 161 55 220zM402 665l-47 59
c-16 -35 -57 -104 -91 -158v390h-66v-400c-35 104 -82 209 -127 274c-7 -21 -24 -54 -36 -72c54 -70 114 -199 147 -311h-132v-70h148v-330h66v330h142v70h-142v33c34 42 118 155 138 185zM832 881h32c10 0 18 -1 24 -6c5 -4 9 -14 11 -33c3 -21 4 -67 4 -127
c14 13 37 25 56 31c-1 54 -5 118 -10 141c-5 25 -15 38 -28 47c-14 9 -35 12 -53 12h-53c-20 0 -44 -5 -58 -18c-17 -14 -22 -31 -22 -102v-372h-153v116c0 126 -29 288 -180 393c-9 -16 -34 -47 -48 -57c138 -95 157 -228 157 -337v-185h295v446c0 27 2 42 7 46s11 5 19 5z
" />
</svg>
