<?xml version="1.0" standalone="no"?>
<!DOCTYPE svg PUBLIC "-//W3C//DTD SVG 1.1//EN" "http://www.w3.org/Graphics/SVG/1.1/DTD/svg11.dtd" >
<svg xmlns="http://www.w3.org/2000/svg" xmlns:xlink="http://www.w3.org/1999/xlink" version="1.1" viewBox="-10 0 1010 1000">
   <path fill="currentColor"
d="M162 325l-54 16c-5 -59 -25 -151 -48 -221l50 -14c25 69 46 160 52 219zM257 447v33c32 36 116 139 136 166l-43 60c-17 -33 -59 -97 -93 -148v397h-63v-395c-33 103 -76 208 -119 272c-8 -23 -24 -56 -36 -75c52 -69 109 -199 140 -310h-125v-70h140v-331h63v331h133v70
h-133zM327 346l-46 -17c22 -59 48 -158 61 -225l60 18c-23 75 -52 168 -75 224zM503 525h219s-1 23 -2 33c-13 233 -25 320 -51 350c-18 21 -36 27 -65 29c-26 2 -74 2 -124 -1c-2 -21 -8 -49 -20 -67c50 4 97 5 115 5c16 0 26 -1 35 -11c17 -18 29 -90 39 -271h-221
c11 -76 23 -197 28 -290h184v-154h-205v-68h274v289h-192c-4 52 -9 108 -14 156zM836 62h70v882h-70v-882z" />
</svg>
