<?xml version="1.0" standalone="no"?>
<!DOCTYPE svg PUBLIC "-//W3C//DTD SVG 1.1//EN" "http://www.w3.org/Graphics/SVG/1.1/DTD/svg11.dtd" >
<svg xmlns="http://www.w3.org/2000/svg" xmlns:xlink="http://www.w3.org/1999/xlink" version="1.1" viewBox="-10 0 1010 1000">
   <path fill="currentColor"
d="M371 106l67 17c-26 75 -59 166 -85 221l-51 -15c25 -59 54 -157 69 -223zM169 326l-60 16c-4 -58 -26 -147 -54 -215l56 -14c29 67 52 155 58 213zM279 455v51c33 31 125 129 147 154l-47 61c-18 -31 -63 -89 -100 -134v368h-70v-376c-37 95 -85 190 -133 249
c-8 -22 -26 -53 -39 -72c60 -68 124 -192 159 -301h-145v-69h158v-342h70v342h145v69h-145zM720 872h135c30 0 36 -23 39 -117c18 13 48 26 69 32c-8 116 -29 156 -103 156h-149c-86 0 -110 -26 -110 -121v-158l-146 30l-11 -70l157 -31v-157l-133 29l-11 -69l144 -31v-154
c-47 13 -94 24 -139 34c-4 -17 -16 -43 -25 -59c142 -32 302 -81 390 -129l66 55c-61 28 -137 55 -217 78v159l223 -47l10 67l-233 51v158l265 -53l11 68l-276 56v174c0 40 6 49 44 49z" />
</svg>
