<?xml version="1.0" standalone="no"?>
<!DOCTYPE svg PUBLIC "-//W3C//DTD SVG 1.1//EN" "http://www.w3.org/Graphics/SVG/1.1/DTD/svg11.dtd" >
<svg xmlns="http://www.w3.org/2000/svg" xmlns:xlink="http://www.w3.org/1999/xlink" version="1.1" viewBox="-10 0 1010 1000">
   <path fill="currentColor"
d="M399 105l70 17c-28 75 -61 166 -90 221l-51 -16c25 -59 55 -156 71 -222zM177 324l-60 17c-6 -58 -31 -146 -59 -213l56 -15c30 67 55 153 63 211zM451 667l-44 60c-20 -33 -71 -98 -111 -146v374h-70v-390c-44 102 -101 204 -156 266c-8 -22 -26 -53 -38 -71
c66 -68 138 -194 180 -305h-162v-70h176v-341h70v341h163v70h-163v54c35 32 132 133 155 158zM594 760l51 -41c53 42 112 102 141 143l-55 48c-28 -42 -86 -106 -137 -150zM954 380h-219c39 222 113 417 238 515c-18 13 -42 41 -55 60c-118 -102 -188 -276 -231 -484
c-29 166 -100 344 -273 485c-13 -13 -41 -36 -61 -47c196 -154 256 -354 274 -529h-194v-70h200c2 -36 2 -70 2 -102v-165h71v165c0 32 0 66 -2 102h250v70z" />
</svg>
