<?xml version="1.0" standalone="no"?>
<!DOCTYPE svg PUBLIC "-//W3C//DTD SVG 1.1//EN" "http://www.w3.org/Graphics/SVG/1.1/DTD/svg11.dtd" >
<svg xmlns="http://www.w3.org/2000/svg" xmlns:xlink="http://www.w3.org/1999/xlink" version="1.1" viewBox="-10 0 1010 1000">
   <path fill="currentColor"
d="M171 326l-59 15c-5 -59 -28 -151 -54 -220l54 -14c29 70 52 160 59 219zM276 47v330h151v70h-151v33c36 42 125 156 146 185l-49 60c-18 -35 -61 -105 -97 -159v390h-70v-397c-37 103 -85 207 -133 271c-8 -21 -26 -53 -37 -72c57 -69 120 -199 154 -311h-139v-70h155
v-330h70zM355 344l-49 -16c23 -58 52 -157 67 -225l65 18c-25 74 -56 167 -83 223zM833 392h-265v210h265v-210zM568 846h388v73h-458v-824h442v73h-372v154h335v350h-335v174z" />
</svg>
