<?xml version="1.0" standalone="no"?>
<!DOCTYPE svg PUBLIC "-//W3C//DTD SVG 1.1//EN" "http://www.w3.org/Graphics/SVG/1.1/DTD/svg11.dtd" >
<svg xmlns="http://www.w3.org/2000/svg" xmlns:xlink="http://www.w3.org/1999/xlink" version="1.1" viewBox="-10 0 1010 1000">
   <path fill="currentColor"
d="M367 106l67 18c-25 73 -55 166 -81 220l-50 -14c23 -59 50 -157 64 -224zM169 327l-60 15c-4 -57 -25 -147 -54 -214l56 -14c29 67 52 155 58 213zM426 661l-46 61c-19 -31 -63 -89 -100 -135v369h-71v-378c-37 97 -85 192 -133 250c-8 -21 -26 -53 -39 -71
c60 -69 124 -193 159 -302h-145v-69h158v-342h71v342h144v69h-144v52c34 32 124 129 146 154zM936 512h-186c49 125 134 255 216 320c-18 13 -42 39 -54 58c-72 -67 -143 -182 -194 -302v369h-73v-369c-58 129 -142 242 -234 309c-12 -19 -34 -45 -51 -59
c102 -64 196 -191 250 -326h-173v-69h208v-165h-225v-70h225v-164h73v164h237v70h-237v165h218v69z" />
</svg>
