<?xml version="1.0" standalone="no"?>
<!DOCTYPE svg PUBLIC "-//W3C//DTD SVG 1.1//EN" "http://www.w3.org/Graphics/SVG/1.1/DTD/svg11.dtd" >
<svg xmlns="http://www.w3.org/2000/svg" xmlns:xlink="http://www.w3.org/1999/xlink" version="1.1" viewBox="-10 0 1010 1000">
   <path fill="currentColor"
d="M354 107l66 18c-26 73 -57 163 -83 219l-49 -17c23 -59 52 -155 66 -220zM162 326l-58 15c-3 -58 -24 -146 -50 -215l54 -12c28 66 49 154 54 212zM402 639l-43 63c-17 -32 -59 -93 -93 -141v395h-70v-374c-35 92 -79 182 -123 238c-8 -21 -26 -53 -39 -72
c56 -67 115 -187 150 -294h-136v-68h148v-342h70v342h141v68h-141v22c32 35 118 138 136 163zM955 153h-430v120h427v68h-249v119v22h221v32c-9 280 -18 378 -42 409c-16 20 -33 27 -60 30c-24 2 -66 2 -108 0c-2 -20 -9 -47 -19 -64c42 3 81 4 96 4c16 0 24 -2 32 -12
c16 -20 25 -104 32 -332h-155c-9 135 -42 294 -146 410c-11 -12 -40 -32 -57 -38c122 -137 139 -325 139 -462v-118h-111v84c0 161 -16 383 -132 529c-12 -13 -42 -32 -58 -40c111 -139 121 -337 121 -489v-341h499v69z" />
</svg>
