<?xml version="1.0" standalone="no"?>
<!DOCTYPE svg PUBLIC "-//W3C//DTD SVG 1.1//EN" "http://www.w3.org/Graphics/SVG/1.1/DTD/svg11.dtd" >
<svg xmlns="http://www.w3.org/2000/svg" xmlns:xlink="http://www.w3.org/1999/xlink" version="1.1" viewBox="-10 0 1010 1000">
   <path fill="currentColor"
d="M600 120l64 17c-22 72 -49 162 -71 218l-47 -15c20 -59 43 -154 54 -220zM424 340l-55 11c-2 -59 -19 -149 -41 -218l52 -10c23 69 41 158 44 217zM119 517h182s0 22 -1 31c-10 249 -18 339 -43 369c-17 20 -35 27 -62 29c-24 3 -68 3 -113 0c-2 -21 -10 -47 -21 -66
c45 4 88 4 105 4c15 1 24 -1 32 -11c16 -18 25 -93 33 -293h-181c10 -73 20 -191 23 -281h156v-161h-171v-68h238v297h-166c-3 51 -7 104 -11 150zM648 466h-118c35 56 116 193 136 229l-49 53c-17 -43 -60 -132 -95 -199v392h-64v-371c-36 100 -83 198 -129 258
c-8 -20 -26 -51 -38 -69c54 -67 115 -186 150 -293h-121v-67h138v-345h64v345h126v67zM732 516h202s0 22 -1 32c-10 247 -20 337 -45 367c-17 21 -36 28 -63 30c-26 3 -71 2 -118 -1c-1 -20 -9 -48 -21 -67c47 4 92 5 109 5c16 0 25 -2 33 -11c17 -18 27 -95 35 -291h-200
c10 -73 21 -191 27 -281h171v-163h-196v-67h264v298h-183c-4 51 -9 103 -14 149z" />
</svg>
