<?xml version="1.0" standalone="no"?>
<!DOCTYPE svg PUBLIC "-//W3C//DTD SVG 1.1//EN" "http://www.w3.org/Graphics/SVG/1.1/DTD/svg11.dtd" >
<svg xmlns="http://www.w3.org/2000/svg" xmlns:xlink="http://www.w3.org/1999/xlink" version="1.1" viewBox="-10 0 1010 1000">
   <path fill="currentColor"
d="M332 104l58 18c-21 76 -49 168 -71 225l-43 -18c19 -59 45 -158 56 -225zM163 325l-51 16c-4 -59 -24 -151 -45 -221l48 -14c22 69 43 160 48 219zM256 447v36c31 38 107 137 123 163l-39 60c-15 -32 -53 -93 -84 -142v391h-61v-401c-31 106 -72 213 -113 279
c-7 -23 -23 -56 -34 -76c49 -69 102 -199 131 -310h-117v-70h133v-331h61v331h118v70h-118zM650 246v140h24c41 -44 78 -91 112 -140h-136zM953 453h-250c-32 33 -66 66 -101 95v117c89 -35 180 -79 235 -118l58 50c-81 47 -192 94 -293 130v110c0 31 9 37 57 37h165
c42 0 49 -17 53 -125c17 12 47 23 68 28c-10 131 -32 165 -116 165h-176c-97 0 -123 -22 -123 -105v-232c-31 23 -64 46 -97 65c-11 -15 -35 -44 -51 -57c80 -43 155 -97 224 -160h-198v-67h172v-140h-147v-66h147v-133h70v133h142v57c29 -44 57 -90 80 -137l66 22
c-49 95 -108 184 -175 264h190v67z" />
</svg>
