<?xml version="1.0" standalone="no"?>
<!DOCTYPE svg PUBLIC "-//W3C//DTD SVG 1.1//EN" "http://www.w3.org/Graphics/SVG/1.1/DTD/svg11.dtd" >
<svg xmlns="http://www.w3.org/2000/svg" xmlns:xlink="http://www.w3.org/1999/xlink" version="1.1" viewBox="-10 0 1010 1000">
   <path fill="currentColor"
d="M367 786l66 46c-89 47 -225 96 -331 123c-11 -14 -34 -39 -50 -53c107 -26 245 -75 315 -116zM576 834l42 -50c116 35 243 81 320 117l-53 53c-72 -37 -192 -84 -309 -120zM372 598v109h260v-109h-260zM707 598v109h236v66h-883v-66h238v-109h-175v-67h175v-77h74v77h260
v-76h75v76h175v67h-175zM934 281h-333c83 67 216 117 347 139c-16 14 -35 42 -46 60c-138 -29 -279 -95 -366 -180v153h-73v-150c-90 83 -231 150 -364 180c-11 -17 -30 -44 -45 -57c127 -24 262 -78 346 -145h-326v-64h212c-18 -36 -58 -86 -94 -123l62 -29
c37 36 80 88 99 124l-57 28h167v-173h73v173h95c38 -46 83 -111 108 -158l73 25c-31 45 -67 94 -99 133h221v64z" />
</svg>
