<?xml version="1.0" standalone="no"?>
<!DOCTYPE svg PUBLIC "-//W3C//DTD SVG 1.1//EN" "http://www.w3.org/Graphics/SVG/1.1/DTD/svg11.dtd" >
<svg xmlns="http://www.w3.org/2000/svg" xmlns:xlink="http://www.w3.org/1999/xlink" version="1.1" viewBox="-10 0 1010 1000">
   <path fill="currentColor"
d="M888 42l41 59c-122 43 -311 69 -469 82c-2 -17 -11 -43 -18 -60c155 -14 342 -43 446 -81zM831 388l-51 -27c29 -54 67 -141 87 -203l61 28c-29 70 -67 150 -97 202zM737 351l-58 23c-5 -48 -26 -121 -48 -176l55 -21c24 54 45 127 51 174zM582 358l-57 27
c-8 -46 -34 -116 -62 -167l51 -24c32 50 58 118 68 164zM171 326l-59 15c-5 -59 -28 -151 -54 -221l54 -13c29 69 52 160 59 219zM276 47v330h150v70h-150v33c36 41 125 155 146 184l-49 60c-18 -35 -61 -105 -97 -159v391h-70v-398c-37 103 -85 207 -133 272
c-8 -21 -26 -54 -37 -72c57 -70 120 -200 154 -311h-139v-70h155v-330h70zM353 344l-49 -16c24 -59 52 -158 67 -225l65 17c-25 75 -56 168 -83 224zM953 622v67h-220v184c0 37 -8 56 -34 67s-65 12 -125 12c-4 -20 -14 -47 -24 -66c44 1 84 1 96 0s15 -3 15 -14v-183h-224
v-67h224v-66c40 -27 87 -66 123 -103h-297v-64h357l14 -4l45 35c-45 54 -109 111 -170 153v49h220z" />
</svg>
