<?xml version="1.0" standalone="no"?>
<!DOCTYPE svg PUBLIC "-//W3C//DTD SVG 1.1//EN" "http://www.w3.org/Graphics/SVG/1.1/DTD/svg11.dtd" >
<svg xmlns="http://www.w3.org/2000/svg" xmlns:xlink="http://www.w3.org/1999/xlink" version="1.1" viewBox="-10 0 1010 1000">
   <path fill="currentColor"
d="M512 59l58 34c-38 40 -84 82 -120 109l-48 -29c36 -30 83 -80 110 -114zM257 165l-52 37c-21 -29 -65 -74 -102 -106l49 -34c37 31 83 74 105 103zM302 482v-171c-61 69 -146 133 -218 170c-9 -16 -30 -39 -44 -51c73 -32 158 -90 216 -152h-188v-62h234v-175h69v175h225
v62h-225v204h-69zM390 326l45 -34c43 31 99 77 128 106l-47 41c-28 -31 -83 -79 -126 -113zM303 551l35 13c-35 197 -119 325 -229 393c-9 -13 -30 -34 -44 -43c51 -30 96 -72 131 -127c-19 -21 -47 -46 -71 -63l33 -41c21 15 48 35 68 53c18 -38 34 -80 46 -128h-98
c-29 52 -61 98 -95 133c-9 -10 -33 -28 -47 -36c61 -59 110 -146 139 -238l57 13c-8 24 -18 49 -28 73h93zM546 614v150h85v59h-85v134h-59v-134h-151c9 -50 20 -124 26 -182h56c-5 39 -11 84 -17 123h86v-150h-142v-59h142v-90h59v90h70v59h-70zM705 83l65 16
c-27 112 -74 261 -112 381c59 139 118 313 140 413l-67 30c-18 -111 -74 -291 -137 -443c43 -128 90 -297 111 -397zM864 82l65 16c-30 112 -82 261 -125 379c64 138 133 313 158 412l-64 31c-23 -111 -87 -291 -157 -442c47 -128 100 -296 123 -396z" />
</svg>
