<?xml version="1.0" standalone="no"?>
<!DOCTYPE svg PUBLIC "-//W3C//DTD SVG 1.1//EN" "http://www.w3.org/Graphics/SVG/1.1/DTD/svg11.dtd" >
<svg xmlns="http://www.w3.org/2000/svg" xmlns:xlink="http://www.w3.org/1999/xlink" version="1.1" viewBox="-10 0 1010 1000">
   <path fill="currentColor"
d="M354 110l64 23c-28 70 -57 157 -83 210l-46 -20c22 -56 51 -149 65 -213zM170 326l-59 15c-5 -59 -28 -151 -54 -221l54 -13c29 69 52 160 59 219zM267 447v32c28 34 95 120 111 144l-49 58c-12 -25 -38 -71 -62 -112v387h-69v-398c-36 103 -85 207 -132 272
c-7 -21 -26 -54 -38 -72c57 -70 120 -199 154 -311h-139v-70h155v-330h69v330h120v70h-120zM563 482v84h199v-84h-199zM762 210h-199v76h199v-76zM563 345v79h199v-79h-199zM947 566v64h-435v219h413v64h-482v-283h-59v-64h109v-356h-73v-63h73v-103h70v103h199v-103h70v103
h97v63h-97v356h115zM883 806l-57 33c-20 -47 -65 -122 -107 -178l54 -27c42 54 90 126 110 172zM595 845l-50 -31c35 -48 80 -124 104 -179l56 32c-33 62 -76 131 -110 178z" />
</svg>
