<?xml version="1.0" standalone="no"?>
<!DOCTYPE svg PUBLIC "-//W3C//DTD SVG 1.1//EN" "http://www.w3.org/Graphics/SVG/1.1/DTD/svg11.dtd" >
<svg xmlns="http://www.w3.org/2000/svg" xmlns:xlink="http://www.w3.org/1999/xlink" version="1.1" viewBox="-10 0 1010 1000">
   <path fill="currentColor"
d="M674 322h-10c-57 76 -145 152 -221 193c-10 -16 -30 -38 -45 -51c67 -30 143 -83 197 -142h-181v-61h246c-42 -26 -92 -54 -134 -72l42 -37c32 13 67 31 99 49c35 -19 71 -45 101 -70h-306v-58h370l16 -3l44 32c-46 49 -110 96 -173 131c17 9 32 19 44 28h134l12 -3
l49 16c-31 57 -65 121 -94 162l-58 -18c17 -26 38 -61 56 -96h-122v119c0 33 -6 48 -31 57c-24 10 -62 10 -121 10c-3 -18 -11 -39 -20 -56c43 1 81 1 91 1c12 0 15 -4 15 -13v-118zM338 105l66 18c-24 72 -53 162 -77 215l-50 -15c22 -57 50 -153 61 -218zM155 327l-58 14
c-1 -58 -19 -146 -42 -215l53 -12c25 67 44 156 47 213zM392 663l-44 58c-18 -30 -57 -89 -90 -135v370h-68v-369c-32 91 -74 178 -117 233c-6 -20 -24 -52 -37 -70c53 -67 109 -188 141 -295h-128v-70h141v-340h68v340h130v70h-130v45c33 37 116 137 134 163zM945 677h-199
c60 76 148 152 223 191c-16 13 -37 37 -48 55c-72 -45 -154 -123 -215 -205v239h-70v-234c-63 86 -150 165 -232 210c-11 -18 -32 -42 -49 -56c87 -40 180 -118 240 -200h-187v-63h228v-94h70v94h239v63z" />
</svg>
