<?xml version="1.0" standalone="no"?>
<!DOCTYPE svg PUBLIC "-//W3C//DTD SVG 1.1//EN" "http://www.w3.org/Graphics/SVG/1.1/DTD/svg11.dtd" >
<svg xmlns="http://www.w3.org/2000/svg" xmlns:xlink="http://www.w3.org/1999/xlink" version="1.1" viewBox="-10 0 1010 1000">
   <path fill="currentColor"
d="M467 216v101h-57v-161h240c-10 -29 -22 -63 -32 -90l51 -23c16 36 34 80 44 113h218v161h-60v-101h-404zM338 104l62 19c-22 75 -51 167 -73 224l-46 -17c21 -59 46 -158 57 -226zM167 326l-54 15c-6 -59 -25 -151 -48 -220l51 -15c24 70 45 160 51 220zM260 447v25
c32 35 111 131 128 157l-43 60c-14 -30 -53 -90 -85 -137v403h-64v-390c-32 102 -74 204 -115 268c-7 -22 -23 -56 -35 -75c51 -70 105 -200 135 -311h-122v-70h137v-331h64v331h125v70h-125zM871 415l44 44c-32 28 -71 56 -110 80c36 109 98 224 158 283
c-13 12 -32 37 -42 55c-60 -68 -121 -193 -158 -312c-12 6 -24 13 -35 19c28 143 11 293 -27 337c-21 27 -40 35 -75 36c-13 0 -37 0 -58 -2c-1 -19 -5 -47 -15 -66c24 3 49 4 63 4c18 0 30 -3 42 -21c19 -22 32 -99 27 -189c-68 80 -168 158 -254 200
c-6 -17 -19 -41 -31 -56c99 -40 217 -130 277 -216c-3 -24 -9 -47 -14 -70c-62 67 -157 137 -231 178c-7 -17 -20 -40 -31 -53c82 -36 187 -110 243 -176c-7 -18 -15 -33 -24 -49c-54 49 -118 89 -178 119c-6 -14 -23 -41 -33 -54c79 -34 161 -84 218 -145h-152v-59h381v59
h-160c-12 14 -24 29 -37 43c24 37 43 80 55 126c54 -34 118 -79 157 -115z" />
</svg>
