<?xml version="1.0" standalone="no"?>
<!DOCTYPE svg PUBLIC "-//W3C//DTD SVG 1.1//EN" "http://www.w3.org/Graphics/SVG/1.1/DTD/svg11.dtd" >
<svg xmlns="http://www.w3.org/2000/svg" xmlns:xlink="http://www.w3.org/1999/xlink" version="1.1" viewBox="-10 0 1010 1000">
   <path fill="currentColor"
d="M932 118v59h-489v-59h206c-8 -21 -18 -43 -26 -62l65 -14c12 23 25 51 35 76h209zM527 198l60 -13c16 30 31 70 36 96l-64 17c-4 -26 -17 -68 -32 -100zM955 298v61h-539v-61h323c14 -33 33 -79 43 -111l69 16c-15 33 -32 67 -46 95h150zM342 103l61 18
c-22 75 -52 167 -76 223l-45 -16c21 -58 48 -157 60 -225zM160 326l-55 15c-5 -59 -25 -150 -49 -220l51 -15c25 70 47 161 53 220zM386 665l-44 59c-15 -34 -55 -103 -87 -158v390h-64v-399c-33 105 -77 210 -121 274c-8 -22 -24 -55 -36 -73c52 -70 110 -201 142 -311
h-127v-70h142v-330h64v330h136v70h-136v34c33 42 114 154 131 184zM528 576v68h311v-68h-311zM528 462v66h311v-66h-311zM817 893h40c11 0 22 -1 28 -3c7 -3 12 -10 15 -22c3 -15 3 -46 4 -86c14 12 40 25 60 32c-2 39 -5 82 -11 97c-7 17 -19 27 -34 33c-13 6 -38 8 -56 8
h-60c-21 0 -48 -5 -63 -17c-16 -12 -22 -29 -22 -82v-158h-86c-13 152 -61 223 -244 265c-6 -17 -26 -44 -40 -58c164 -32 202 -83 213 -207h-98v-284h443v284h-119v165c0 16 2 25 8 29c5 3 12 4 22 4z" />
</svg>
