<?xml version="1.0" standalone="no"?>
<!DOCTYPE svg PUBLIC "-//W3C//DTD SVG 1.1//EN" "http://www.w3.org/Graphics/SVG/1.1/DTD/svg11.dtd" >
<svg xmlns="http://www.w3.org/2000/svg" xmlns:xlink="http://www.w3.org/1999/xlink" version="1.1" viewBox="-10 0 1010 1000">
   <path fill="currentColor"
d="M328 104l58 18c-21 76 -49 169 -71 225l-42 -17c19 -59 44 -159 55 -226zM153 326l-51 16c-4 -59 -24 -152 -45 -222l47 -14c23 69 44 160 49 220zM253 447v35c31 37 110 138 127 166l-41 59c-15 -32 -54 -96 -86 -145v393h-60v-397c-32 104 -75 210 -117 275
c-7 -22 -23 -56 -34 -76c51 -69 106 -199 137 -310h-130v-70h144v-331h60v331h107v70h-107zM551 426v-83c-24 67 -71 139 -158 201c-8 -15 -24 -35 -38 -45c81 -51 123 -111 144 -168h-111c8 -47 16 -118 21 -173l52 3c-4 35 -9 75 -15 110h69c5 -32 6 -61 6 -87v-48h-123
v-55h255v55h-76v48c0 26 -1 55 -7 87h89v60h-59v111l64 -34c4 14 10 35 15 46c-82 50 -110 68 -125 81l-8 8c-4 -15 -15 -43 -22 -57c11 -8 27 -21 27 -60zM840 635h-334v83h334v-83zM506 861h334v-89h-334v89zM444 957v-381h460v377h-64v-32h-334v36h-62zM869 489h33
c13 0 16 -7 18 -84c10 10 30 18 44 22c-4 93 -18 115 -55 115h-47c-45 0 -56 -16 -56 -71v-77c-26 53 -65 107 -124 156c-8 -14 -26 -33 -39 -44c72 -52 111 -114 131 -173h-111c8 -47 16 -118 21 -173l50 3c-4 35 -9 75 -14 110h69c7 -38 8 -73 8 -103v-34h-121v-55h262v55
h-86v34c0 30 -2 66 -8 103h102v60h-116c-2 7 -4 15 -7 21h32v116c0 17 2 19 14 19z" />
</svg>
