<?xml version="1.0" standalone="no"?>
<!DOCTYPE svg PUBLIC "-//W3C//DTD SVG 1.1//EN" "http://www.w3.org/Graphics/SVG/1.1/DTD/svg11.dtd" >
<svg xmlns="http://www.w3.org/2000/svg" xmlns:xlink="http://www.w3.org/1999/xlink" version="1.1" viewBox="-10 0 1010 1000">
   <path fill="currentColor"
d="M741 184l25 -27c22 14 51 34 64 49l-24 31c-15 -15 -41 -38 -65 -53zM696 100l-26 31c-14 -15 -42 -38 -66 -53l26 -26c23 13 52 33 66 48zM816 277l-32 40c-26 -26 -64 -58 -108 -91c-42 40 -88 73 -131 100c-7 -9 -26 -28 -37 -36c44 -24 88 -56 130 -91
c-37 -25 -75 -51 -110 -72l30 -32c36 21 77 46 115 73c35 -35 67 -72 92 -110l45 18c-28 41 -62 81 -99 118c42 30 79 59 105 83zM642 281l27 -25c23 14 52 35 65 52l-26 29c-15 -17 -42 -40 -66 -56zM590 204l-27 30c-14 -14 -42 -34 -65 -48l26 -26c23 12 51 30 66 44z
M905 90v314h-483v-314h59v257h363v-257h61zM722 453l39 -33c61 37 141 91 183 127l-41 38c-39 -36 -119 -93 -181 -132zM541 422l55 19c-46 62 -119 124 -182 162c-11 -11 -34 -30 -49 -40c67 -35 135 -87 176 -141zM312 104l58 19c-22 75 -49 167 -71 224l-43 -18
c19 -58 44 -157 56 -225zM154 325l-51 16c-4 -59 -24 -151 -45 -220l48 -15c22 70 43 160 48 219zM239 442v65c28 35 97 128 113 155l-41 59c-13 -30 -45 -85 -72 -131v366h-60v-390c-30 102 -72 204 -111 267c-7 -22 -22 -56 -33 -75c49 -72 104 -204 132 -316h-108v-65
h120v-331h60v331h119v65h-119zM558 653l-1 2c23 39 57 77 103 112c41 -33 74 -70 99 -114h-201zM805 595l43 23c-30 75 -76 136 -133 185c66 36 146 65 241 80c-12 16 -29 43 -37 62c-103 -21 -188 -57 -257 -102c-80 55 -175 91 -273 113c-6 -18 -22 -44 -32 -59
c89 -17 177 -48 251 -94c-41 -34 -73 -73 -97 -112c-31 25 -66 46 -106 67c-9 -16 -28 -37 -42 -47c122 -54 202 -135 243 -208l64 12c-16 28 -36 57 -60 84h183z" />
</svg>
