<?xml version="1.0" standalone="no"?>
<!DOCTYPE svg PUBLIC "-//W3C//DTD SVG 1.1//EN" "http://www.w3.org/Graphics/SVG/1.1/DTD/svg11.dtd" >
<svg xmlns="http://www.w3.org/2000/svg" xmlns:xlink="http://www.w3.org/1999/xlink" version="1.1" viewBox="-10 0 1010 1000">
   <path fill="currentColor"
d="M443 397v87h87v-87h-87zM530 132h-87v81h87v-81zM604 347v-84h-161v84h161zM682 484v58h-299v-469h288v59h-87v81h72v153c50 -86 87 -204 110 -321l67 13c-10 46 -22 91 -34 134h152v66h-174c-24 69 -54 132 -86 181c-13 -10 -43 -27 -60 -35l5 -7h-52v87h98zM922 487
l-54 37c-22 -50 -69 -129 -109 -188l53 -32c41 59 89 134 110 183zM316 104l58 19c-21 75 -49 167 -70 224l-43 -18c19 -58 44 -157 55 -225zM151 326l-51 15c-5 -58 -25 -150 -46 -220l48 -15c23 70 43 160 49 220zM364 646l-39 60c-16 -32 -54 -93 -85 -142v389h-61v-387
c-30 102 -72 203 -110 267c-7 -22 -23 -56 -34 -75c49 -70 102 -200 132 -311h-118v-70h130v-331h61v331h122v70h-122v36c31 38 108 137 124 163zM476 653v214h90v-214h-90zM707 653h-91v214h91v-214zM849 653h-92v214h92v-214zM912 867h47v64h-623v-64h79v-275h497v275z
" />
</svg>
