<?xml version="1.0" standalone="no"?>
<!DOCTYPE svg PUBLIC "-//W3C//DTD SVG 1.1//EN" "http://www.w3.org/Graphics/SVG/1.1/DTD/svg11.dtd" >
<svg xmlns="http://www.w3.org/2000/svg" xmlns:xlink="http://www.w3.org/1999/xlink" version="1.1" viewBox="-10 0 1010 1000">
   <path fill="currentColor"
d="M449 611l-61 24c-3 -15 -7 -31 -13 -50c-233 35 -264 43 -284 54c-4 -16 -16 -51 -24 -71c21 -4 45 -28 76 -63c17 -17 52 -60 91 -116c-113 14 -136 19 -150 26c-4 -15 -15 -51 -24 -70c17 -5 36 -26 57 -54c22 -31 95 -143 138 -251l72 30c-46 93 -104 187 -161 263
l114 -11c26 -38 51 -80 73 -121l66 38c-68 113 -149 223 -232 311l169 -24c-12 -32 -26 -65 -38 -94l58 -19c30 63 61 148 73 198zM108 682l64 11c-10 86 -30 180 -51 242c-14 -8 -45 -18 -61 -22c23 -62 38 -151 48 -231zM219 689l58 -12c13 67 25 153 28 211l-61 15
c-2 -59 -13 -146 -25 -214zM330 667l55 -17c23 59 48 135 58 185l-58 19c-9 -50 -34 -127 -55 -187zM930 281v38c-11 409 -21 547 -54 590c-18 26 -39 34 -71 38c-30 4 -81 2 -132 0c-1 -22 -9 -53 -21 -74c53 5 102 5 122 5c17 0 28 -3 37 -15c25 -28 36 -158 46 -509h-179
c-13 256 -55 473 -207 608c-13 -19 -40 -46 -58 -57c141 -120 180 -317 192 -551h-153v-73h156c2 -75 2 -155 2 -235h74c0 80 -1 160 -3 235h249z" />
</svg>
