<?xml version="1.0" standalone="no"?>
<!DOCTYPE svg PUBLIC "-//W3C//DTD SVG 1.1//EN" "http://www.w3.org/Graphics/SVG/1.1/DTD/svg11.dtd" >
<svg xmlns="http://www.w3.org/2000/svg" xmlns:xlink="http://www.w3.org/1999/xlink" version="1.1" viewBox="-10 0 1010 1000">
   <path fill="currentColor"
d="M435 608l-63 25c-3 -14 -7 -31 -13 -47c-238 35 -269 43 -290 54c-4 -16 -16 -53 -24 -73c21 -5 45 -29 76 -66c17 -16 50 -57 87 -109c-109 12 -131 17 -145 23c-4 -15 -15 -51 -24 -70c17 -5 35 -25 57 -54c22 -30 95 -143 138 -250l73 31c-48 94 -107 190 -165 266
l111 -10c28 -42 55 -88 79 -133l66 40c-68 114 -149 227 -234 317l177 -24c-11 -32 -24 -65 -36 -94l58 -20c29 62 60 144 72 194zM88 683l62 10c-10 87 -29 181 -51 241c-13 -6 -43 -16 -59 -21c23 -62 38 -150 48 -230zM197 687l59 -11c13 69 25 158 28 217l-62 13
c-2 -60 -13 -150 -25 -219zM310 666l55 -18c22 54 44 125 54 171l-58 20c-8 -47 -31 -118 -51 -173zM513 413v-349h69v349c0 192 -11 384 -112 541c-15 -13 -45 -31 -65 -39c98 -147 108 -322 108 -502zM683 837v-719h69v719h-69zM856 63h68v882h-68v-882z" />
</svg>
