<?xml version="1.0" standalone="no"?>
<!DOCTYPE svg PUBLIC "-//W3C//DTD SVG 1.1//EN" "http://www.w3.org/Graphics/SVG/1.1/DTD/svg11.dtd" >
<svg xmlns="http://www.w3.org/2000/svg" xmlns:xlink="http://www.w3.org/1999/xlink" version="1.1" viewBox="-10 0 1010 1000">
   <path fill="currentColor"
d="M453 612l-64 19c-3 -14 -7 -31 -12 -50c-249 40 -283 46 -303 58c-4 -16 -16 -52 -25 -72c23 -4 47 -29 81 -65c18 -17 54 -59 97 -112c-120 13 -144 18 -158 25c-4 -16 -16 -51 -24 -70c18 -4 37 -25 62 -53c24 -30 106 -141 157 -250l71 31c-53 94 -117 188 -181 262
l121 -10c29 -41 58 -86 83 -130l67 41c-74 114 -160 223 -246 312l179 -25c-11 -33 -22 -66 -34 -95l62 -16c28 65 57 149 67 200zM109 681l68 14c-17 84 -44 178 -68 240c-15 -8 -47 -18 -65 -23c28 -61 50 -151 65 -231zM224 690l61 -15c14 66 28 150 32 207l-64 17
c-3 -57 -17 -143 -29 -209zM335 667l58 -20c20 48 42 110 52 150l-60 22c-9 -41 -31 -105 -50 -152zM736 826h220v72h-536v-72h240v-633h-200v-73h481v73h-205v633z" />
</svg>
