<?xml version="1.0" standalone="no"?>
<!DOCTYPE svg PUBLIC "-//W3C//DTD SVG 1.1//EN" "http://www.w3.org/Graphics/SVG/1.1/DTD/svg11.dtd" >
<svg xmlns="http://www.w3.org/2000/svg" xmlns:xlink="http://www.w3.org/1999/xlink" version="1.1" viewBox="-10 0 1010 1000">
   <path fill="currentColor"
d="M291 760l67 27c-64 58 -161 118 -241 154c-12 -13 -40 -39 -57 -51c83 -31 173 -80 231 -130zM634 797l52 -38c76 37 175 96 227 137l-55 43c-48 -40 -146 -102 -224 -142zM661 597l50 -36c72 45 161 115 205 164l-54 41c-15 -19 -37 -40 -62 -62l-248 12v154
c0 40 -8 59 -40 72c-31 11 -79 12 -151 12c-4 -23 -15 -51 -27 -72c59 2 110 2 125 2c16 -1 19 -4 19 -16v-148c-282 14 -320 18 -348 27c-3 -15 -13 -51 -20 -70c33 -3 74 -15 130 -36c33 -10 104 -38 187 -76c-176 11 -204 14 -221 21c-3 -15 -13 -49 -21 -67
c20 -1 42 -9 68 -22c29 -12 123 -59 193 -115l54 43c-49 34 -103 64 -158 89l210 -10c34 -18 68 -36 100 -56l51 53c-118 67 -240 122 -363 166l394 -17c-24 -19 -50 -37 -73 -53zM681 187h-365c49 41 112 75 183 105c72 -29 133 -64 182 -105zM939 187h-165
c-50 54 -114 98 -190 135c113 36 242 60 376 72c-15 15 -33 44 -41 62c-150 -16 -295 -48 -421 -98c-120 46 -263 77 -415 95c-6 -18 -19 -45 -32 -61c132 -14 256 -37 364 -71c-73 -37 -137 -81 -187 -134h-166v-59h423c-14 -25 -31 -50 -48 -72l63 -20c25 27 50 64 65 92
h374v59z" />
</svg>
