<?xml version="1.0" standalone="no"?>
<!DOCTYPE svg PUBLIC "-//W3C//DTD SVG 1.1//EN" "http://www.w3.org/Graphics/SVG/1.1/DTD/svg11.dtd" >
<svg xmlns="http://www.w3.org/2000/svg" xmlns:xlink="http://www.w3.org/1999/xlink" version="1.1" viewBox="-10 0 1010 1000">
   <path fill="currentColor"
d="M414 617l-63 21c-2 -15 -6 -32 -11 -50c-221 34 -251 41 -271 52c-4 -16 -15 -51 -23 -71c21 -4 46 -28 77 -64c18 -18 54 -60 94 -115c-116 13 -140 18 -154 25c-4 -14 -15 -50 -23 -68c16 -4 36 -25 59 -54c22 -30 99 -144 145 -253l68 30c-48 94 -109 191 -168 267
l118 -11c29 -41 56 -85 80 -128l63 39c-69 114 -152 225 -238 314l157 -21c-11 -32 -21 -66 -33 -94l59 -17c27 64 54 148 64 198zM88 688l64 11c-11 89 -30 186 -51 248c-14 -6 -46 -17 -62 -22c23 -63 39 -155 49 -237zM198 694l59 -11c14 70 27 162 30 223l-63 12
c-2 -62 -14 -154 -26 -224zM304 673l55 -18c24 60 49 139 59 190l-60 20c-8 -53 -33 -132 -54 -192zM935 188h-191c-14 38 -28 75 -45 112v647h-73v-508c-46 78 -98 149 -152 206c-11 -14 -38 -44 -52 -57c101 -96 189 -243 248 -400h-232v-71h497v71zM709 394l47 -42
c68 69 157 165 198 223l-50 51c-41 -61 -127 -160 -195 -232z" />
</svg>
