<?xml version="1.0" standalone="no"?>
<!DOCTYPE svg PUBLIC "-//W3C//DTD SVG 1.1//EN" "http://www.w3.org/Graphics/SVG/1.1/DTD/svg11.dtd" >
<svg xmlns="http://www.w3.org/2000/svg" xmlns:xlink="http://www.w3.org/1999/xlink" version="1.1" viewBox="-10 0 1010 1000">
   <path fill="currentColor"
d="M87 683l64 11c-10 85 -30 179 -50 241c-15 -8 -46 -18 -62 -23c23 -61 38 -149 48 -229zM199 691l59 -11c13 69 25 159 29 219l-63 12c-2 -60 -14 -151 -25 -220zM306 669l56 -17c22 58 47 134 57 183l-59 21c-10 -50 -33 -128 -54 -187zM290 435l58 -18
c29 64 60 151 73 202l-63 24c-3 -16 -8 -36 -14 -57c-226 35 -256 43 -276 54c-4 -15 -15 -51 -23 -69c21 -5 45 -30 74 -65c16 -18 50 -60 88 -115c-108 12 -131 17 -145 24c-4 -15 -15 -50 -23 -67c17 -4 35 -26 57 -55c21 -30 94 -144 137 -253l68 29
c-46 94 -103 192 -161 267l111 -10c25 -41 51 -84 72 -127l63 38c-65 113 -143 225 -224 313l163 -22c-10 -32 -23 -64 -35 -93zM765 877h63c16 0 32 -1 41 -4c8 -2 17 -9 20 -22c4 -14 7 -46 8 -88c16 14 40 26 63 32c-1 37 -7 84 -15 102s-21 30 -40 36s-46 8 -70 8h-82
c-24 0 -54 -4 -73 -17c-22 -14 -32 -32 -32 -117v-130h-187v-338h65v269h122v-362h-210v-69h210v-132h69v132h237v69h-237v362h127v-270h67v394h-67v-55h-127v140c0 29 4 48 14 55c10 3 20 5 34 5z" />
</svg>
