<?xml version="1.0" standalone="no"?>
<!DOCTYPE svg PUBLIC "-//W3C//DTD SVG 1.1//EN" "http://www.w3.org/Graphics/SVG/1.1/DTD/svg11.dtd" >
<svg xmlns="http://www.w3.org/2000/svg" xmlns:xlink="http://www.w3.org/1999/xlink" version="1.1" viewBox="-10 0 1010 1000">
   <path fill="currentColor"
d="M431 614l-61 23c-4 -15 -9 -33 -15 -53c-235 36 -267 44 -287 55c-4 -15 -14 -50 -23 -68c21 -5 46 -30 78 -66c17 -18 53 -61 93 -116c-117 14 -140 19 -154 25c-4 -14 -15 -49 -23 -66c17 -4 36 -26 58 -55c22 -30 98 -144 143 -253l68 29c-48 95 -107 192 -167 267
l120 -12c29 -41 58 -86 81 -131l63 38c-71 114 -154 229 -240 319l171 -23c-11 -32 -22 -63 -35 -92l57 -20c29 64 61 149 73 199zM87 682l65 11c-11 86 -31 180 -51 242c-15 -8 -45 -18 -62 -23c23 -61 38 -150 48 -230zM203 688l60 -11c12 67 24 153 28 211l-63 13
c-2 -58 -14 -146 -25 -213zM315 667l57 -17c20 55 44 127 53 174l-60 20c-8 -47 -31 -122 -50 -177zM529 434h173c-5 -82 -8 -171 -9 -265c-55 10 -110 18 -164 25v240zM946 504h-171c18 227 57 372 107 372c18 0 26 -49 29 -157c15 15 39 30 58 36c-10 147 -32 190 -94 190
c-98 0 -146 -181 -168 -441h-178v349l167 -52c1 20 5 49 8 64c-198 68 -227 82 -245 96c-6 -17 -23 -46 -34 -58c14 -11 34 -33 34 -76v-687h1c147 -20 320 -51 419 -83l53 59c-49 15 -106 29 -168 41c-1 100 2 193 7 277h175v70z" />
</svg>
