<?xml version="1.0" standalone="no"?>
<!DOCTYPE svg PUBLIC "-//W3C//DTD SVG 1.1//EN" "http://www.w3.org/Graphics/SVG/1.1/DTD/svg11.dtd" >
<svg xmlns="http://www.w3.org/2000/svg" xmlns:xlink="http://www.w3.org/1999/xlink" version="1.1" viewBox="-10 0 1010 1000">
   <path fill="currentColor"
d="M84 682l59 10c-10 86 -29 179 -51 241c-12 -7 -41 -17 -55 -21c22 -62 38 -150 47 -230zM190 689l54 -11c13 67 25 153 29 211l-58 13c-2 -59 -13 -145 -25 -213zM300 670l51 -17c24 62 49 141 60 191l-54 19c-10 -53 -35 -133 -57 -193zM291 434l52 -18
c32 64 62 146 72 197l-57 22c-3 -14 -7 -31 -12 -48c-229 35 -261 42 -279 52c-4 -14 -15 -47 -22 -64c20 -4 44 -30 74 -69c16 -17 48 -60 85 -115c-109 12 -130 17 -144 24c-3 -14 -14 -47 -21 -64c16 -4 33 -25 53 -55c22 -30 92 -144 131 -252l65 27
c-44 94 -98 192 -154 268l110 -10c27 -45 55 -94 79 -143l59 35c-66 120 -147 241 -230 336l178 -24c-12 -34 -25 -69 -39 -99zM958 529h-239v333h222v70h-514v-70h218v-333h-232v-70h232v-285c-68 13 -137 24 -203 32c-3 -18 -12 -44 -22 -60c159 -22 342 -58 442 -99
l63 54c-58 22 -130 42 -206 59v299h239v70z" />
</svg>
