<?xml version="1.0" standalone="no"?>
<!DOCTYPE svg PUBLIC "-//W3C//DTD SVG 1.1//EN" "http://www.w3.org/Graphics/SVG/1.1/DTD/svg11.dtd" >
<svg xmlns="http://www.w3.org/2000/svg" xmlns:xlink="http://www.w3.org/1999/xlink" version="1.1" viewBox="-10 0 1010 1000">
   <path fill="currentColor"
d="M291 742l69 26c-65 63 -159 129 -238 169c-12 -13 -40 -37 -57 -49c82 -36 171 -92 226 -146zM796 674l-245 16v180c0 39 -9 58 -41 70c-32 11 -81 12 -154 12c-4 -22 -16 -49 -27 -69c61 2 114 2 129 1c17 -1 21 -4 21 -16v-174c-289 19 -327 23 -354 31
c-3 -13 -12 -47 -20 -64c33 -4 77 -18 135 -42c31 -11 102 -41 184 -81c-184 12 -211 16 -227 22c-3 -13 -13 -47 -20 -64c20 -3 43 -12 72 -27c27 -13 116 -61 187 -116h-296v122h-70v-186h392v-93h-382v-65h382v-88h76v88h382v65h-382v93h395v186h-73v-122h-380l30 23
c-62 45 -131 86 -200 119l223 -13c48 -25 96 -53 140 -81l52 45c-135 81 -276 149 -415 201l435 -23c-27 -26 -55 -52 -81 -73l53 -33c70 57 159 141 201 195l-56 39c-16 -22 -39 -49 -66 -78zM632 774l56 -37c83 43 190 109 246 155l-59 42c-51 -45 -158 -114 -243 -160z
" />
</svg>
