<?xml version="1.0" standalone="no"?>
<!DOCTYPE svg PUBLIC "-//W3C//DTD SVG 1.1//EN" "http://www.w3.org/Graphics/SVG/1.1/DTD/svg11.dtd" >
<svg xmlns="http://www.w3.org/2000/svg" xmlns:xlink="http://www.w3.org/1999/xlink" version="1.1" viewBox="-10 0 1010 1000">
   <path fill="currentColor"
d="M442 623l-60 24c-4 -18 -10 -40 -17 -65c-247 38 -279 46 -299 57c-3 -15 -15 -50 -24 -70c23 -4 49 -31 85 -71c17 -18 50 -57 89 -109c-119 14 -143 19 -156 25c-3 -14 -15 -48 -23 -66c19 -3 37 -24 61 -54c24 -29 105 -143 154 -253l66 30c-51 95 -113 191 -177 267
l121 -11c38 -53 76 -114 108 -173l64 40c-80 129 -175 258 -272 358l184 -25c-10 -29 -22 -60 -33 -86l57 -18c28 64 59 150 72 200zM94 682l60 10c-13 86 -32 179 -53 241c-13 -7 -42 -17 -58 -21c24 -61 40 -150 51 -230zM210 689l54 -7c13 70 25 159 28 218l-57 8
c-3 -59 -14 -149 -25 -219zM328 669l51 -16c23 57 46 130 56 178l-54 19c-10 -49 -33 -124 -53 -181zM954 373v70h-131v512h-73v-512h-178c-2 155 -23 365 -116 509c-12 -14 -42 -37 -60 -44c95 -146 104 -349 104 -497v-263c135 -24 287 -62 377 -100l53 59
c-97 38 -233 70 -358 92v174h382z" />
</svg>
