<?xml version="1.0" standalone="no"?>
<!DOCTYPE svg PUBLIC "-//W3C//DTD SVG 1.1//EN" "http://www.w3.org/Graphics/SVG/1.1/DTD/svg11.dtd" >
<svg xmlns="http://www.w3.org/2000/svg" xmlns:xlink="http://www.w3.org/1999/xlink" version="1.1" viewBox="-10 0 1010 1000">
   <path fill="currentColor"
d="M285 753l66 27c-64 58 -162 118 -240 156c-13 -13 -42 -37 -58 -49c82 -33 174 -84 232 -134zM212 276v83h251v-83h-251zM212 138v81h251v-81h-251zM794 219v-81h-259v81h259zM794 359v-83h-259v83h259zM799 690l-257 14v173c0 39 -8 57 -37 69c-30 11 -74 11 -142 11
c-3 -21 -16 -48 -26 -68c51 2 97 2 111 1s17 -3 17 -15v-167c-277 14 -315 17 -344 27c-2 -14 -11 -48 -18 -66c32 -2 74 -16 131 -37c31 -9 97 -36 173 -71c-186 12 -214 16 -232 23c-3 -14 -13 -48 -21 -65c20 -2 41 -11 68 -24c21 -9 76 -39 131 -77h-211v-340h725v340
h-408c-48 35 -98 65 -147 92l223 -12c40 -21 80 -44 118 -67l57 45c-125 72 -253 130 -377 177l409 -19c-26 -24 -54 -49 -79 -68l53 -37c70 52 151 129 190 179l-55 43c-14 -18 -31 -39 -52 -61zM622 792l53 -39c84 38 192 99 249 142l-57 44c-53 -42 -159 -106 -245 -147z
" />
</svg>
