<?xml version="1.0" standalone="no"?>
<!DOCTYPE svg PUBLIC "-//W3C//DTD SVG 1.1//EN" "http://www.w3.org/Graphics/SVG/1.1/DTD/svg11.dtd" >
<svg xmlns="http://www.w3.org/2000/svg" xmlns:xlink="http://www.w3.org/1999/xlink" version="1.1" viewBox="-10 0 1010 1000">
   <path fill="currentColor"
d="M88 682l63 11c-10 86 -29 180 -50 242c-14 -8 -45 -18 -61 -23c23 -61 38 -150 48 -230zM199 690l59 -11c13 68 25 155 28 214l-62 12c-2 -58 -14 -147 -25 -215zM307 671l54 -17c21 55 43 124 53 170l-58 20c-8 -47 -30 -119 -49 -173zM291 435l57 -16
c27 66 56 154 66 206l-60 21c-2 -17 -7 -37 -13 -59c-222 34 -253 41 -272 52c-4 -15 -15 -51 -23 -71c21 -3 44 -28 74 -64c16 -18 49 -59 86 -113c-107 12 -129 17 -143 23c-4 -14 -15 -49 -23 -67c17 -4 35 -25 57 -54c22 -30 96 -145 139 -253l69 29
c-48 96 -106 193 -164 268l108 -10c25 -40 52 -84 73 -129l65 39c-65 113 -146 226 -227 317l165 -23c-11 -33 -22 -67 -34 -96zM957 924l-66 30c-7 -25 -19 -53 -33 -84c-333 53 -373 61 -398 75c-4 -16 -16 -51 -23 -71c18 -5 36 -30 59 -67c21 -33 83 -146 127 -265h-204
v-71h223v-184h-194v-71h194v-172h73v172h205v71h-205v184h237v71h-246c-47 112 -105 223 -164 313l289 -43c-29 -54 -62 -112 -94 -161l59 -25c64 95 133 220 161 298z" />
</svg>
