<?xml version="1.0" standalone="no"?>
<!DOCTYPE svg PUBLIC "-//W3C//DTD SVG 1.1//EN" "http://www.w3.org/Graphics/SVG/1.1/DTD/svg11.dtd" >
<svg xmlns="http://www.w3.org/2000/svg" xmlns:xlink="http://www.w3.org/1999/xlink" version="1.1" viewBox="-10 0 1010 1000">
   <path fill="currentColor"
d="M406 607l-55 22c-2 -12 -6 -27 -10 -43c-223 36 -253 44 -271 54c-3 -15 -14 -48 -22 -65c21 -4 43 -30 72 -67c16 -19 47 -62 82 -117c-104 12 -125 17 -138 24c-4 -14 -14 -47 -21 -64c16 -4 33 -25 52 -55c22 -30 90 -144 129 -252l62 27c-43 94 -96 192 -151 268
l106 -10c25 -43 51 -91 73 -138l57 35c-63 118 -140 237 -219 332l174 -25c-12 -34 -25 -68 -38 -98l50 -19c30 62 58 142 68 191zM87 683l57 9c-10 87 -29 180 -50 242c-11 -7 -39 -17 -53 -21c22 -62 37 -150 46 -230zM191 690l53 -11c12 66 24 153 27 210l-55 14
c-2 -59 -13 -146 -25 -213zM299 670l49 -17c24 62 48 141 59 192l-52 19c-10 -53 -34 -133 -56 -194zM633 554h88v-138h-87v86c0 18 0 35 -1 52zM488 554h82c1 -18 1 -35 1 -53v-85h-75c-2 47 -4 96 -8 138zM634 223v130h87v-130h-87zM872 223h-86v130h86v-130zM953 554v26
c-7 163 -13 225 -31 246c-11 15 -24 21 -45 23c-14 1 -41 2 -65 1c-2 -18 -7 -42 -16 -57c24 2 43 2 52 2c10 0 16 -1 21 -8c9 -13 14 -56 20 -170h-103v339h-65v-339h-91c-12 138 -52 254 -182 340c-10 -14 -34 -35 -51 -46c118 -75 157 -174 169 -294h-145
c8 -70 15 -179 17 -264h133v-130h-138v-63h138v-114h63v114h87v-114h65v114h152v256h-152v138h167z" />
</svg>
