<?xml version="1.0" standalone="no"?>
<!DOCTYPE svg PUBLIC "-//W3C//DTD SVG 1.1//EN" "http://www.w3.org/Graphics/SVG/1.1/DTD/svg11.dtd" >
<svg xmlns="http://www.w3.org/2000/svg" xmlns:xlink="http://www.w3.org/1999/xlink" version="1.1" viewBox="-10 0 1010 1000">
   <path fill="currentColor"
d="M60 414c-3 -13 -14 -46 -22 -63c17 -4 34 -25 54 -55c21 -29 90 -144 130 -252l65 27c-44 94 -98 192 -152 267l105 -10c26 -43 53 -90 74 -137l60 34c-64 119 -143 238 -223 332l175 -24c-12 -34 -26 -69 -39 -99l53 -19c29 62 58 143 68 192l-57 21
c-2 -12 -5 -26 -9 -41c-226 34 -257 42 -275 52c-3 -15 -15 -47 -23 -65c21 -4 44 -29 73 -66c16 -19 48 -62 84 -118c-105 12 -126 17 -141 24zM83 682l59 10c-10 86 -29 179 -50 241c-12 -7 -40 -17 -56 -21c23 -61 38 -150 47 -230zM189 689l55 -11c12 67 25 153 28 211
l-58 14c-1 -59 -13 -146 -25 -214zM298 669l52 -16c23 61 48 141 59 192l-54 18c-9 -53 -35 -133 -57 -194zM884 373v-121h-402v121h-63v-187h245c-16 -36 -44 -85 -67 -123l69 -19c29 42 62 99 77 135l-21 7h228v187h-66zM642 879h181c48 0 57 -26 62 -160
c17 14 46 26 66 31c-11 154 -31 199 -124 199h-190c-98 0 -127 -26 -127 -122v-482h70v225c96 -42 196 -97 256 -146l54 56c-82 60 -202 115 -310 158v190c0 42 10 51 62 51z" />
</svg>
