<?xml version="1.0" standalone="no"?>
<!DOCTYPE svg PUBLIC "-//W3C//DTD SVG 1.1//EN" "http://www.w3.org/Graphics/SVG/1.1/DTD/svg11.dtd" >
<svg xmlns="http://www.w3.org/2000/svg" xmlns:xlink="http://www.w3.org/1999/xlink" version="1.1" viewBox="-10 0 1010 1000">
   <path fill="currentColor"
d="M84 683l59 10c-10 86 -29 179 -51 241c-12 -7 -41 -17 -55 -21c22 -62 38 -150 47 -230zM190 690l54 -11c13 66 25 153 29 210l-58 14c-2 -59 -13 -146 -25 -213zM300 670l51 -17c24 62 49 141 60 192l-54 19c-10 -53 -35 -133 -57 -194zM289 434l53 -18
c31 63 61 146 71 197l-57 23c-3 -14 -7 -31 -11 -48c-229 34 -260 42 -278 52c-4 -15 -15 -47 -22 -65c20 -4 43 -30 72 -67c16 -19 48 -62 84 -117c-106 12 -127 17 -141 24c-3 -14 -14 -47 -21 -64c16 -4 33 -25 53 -55c22 -29 92 -144 131 -252l65 28
c-44 94 -98 192 -154 267l107 -10c26 -42 53 -90 75 -138l60 35c-65 118 -144 237 -225 332l177 -24c-12 -35 -26 -69 -39 -100zM954 920l-68 28c-6 -22 -17 -49 -31 -77c-328 31 -369 36 -396 48c-4 -15 -16 -51 -26 -71c25 -6 55 -37 97 -84c26 -27 87 -101 153 -193
c-161 13 -189 18 -206 25c-4 -15 -16 -50 -24 -69c18 -4 35 -24 55 -54c19 -24 72 -108 113 -196h-199v-69h267c-17 -39 -50 -96 -79 -137l62 -30c31 44 66 100 83 138l-54 29h247v69h-247c-42 85 -93 169 -145 237l174 -12c30 -46 60 -95 87 -144l68 36
c-99 164 -216 318 -330 438l270 -23c-24 -42 -49 -85 -75 -122l62 -25c59 81 119 188 142 258z" />
</svg>
