<?xml version="1.0" standalone="no"?>
<!DOCTYPE svg PUBLIC "-//W3C//DTD SVG 1.1//EN" "http://www.w3.org/Graphics/SVG/1.1/DTD/svg11.dtd" >
<svg xmlns="http://www.w3.org/2000/svg" xmlns:xlink="http://www.w3.org/1999/xlink" version="1.1" viewBox="-10 0 1010 1000">
   <path fill="currentColor"
d="M862 104l68 18c-33 79 -78 172 -113 231c-15 -9 -45 -24 -62 -31c37 -60 79 -145 107 -218zM599 316l-63 30c-22 -57 -72 -147 -113 -214l61 -24c42 66 91 152 115 208zM393 629l-59 19c-3 -17 -7 -36 -13 -58c-204 31 -234 39 -252 49c-4 -15 -15 -51 -23 -70
c20 -4 43 -29 72 -65c16 -18 47 -59 83 -113c-104 13 -125 17 -139 23c-4 -14 -15 -48 -22 -66c16 -4 33 -25 54 -55s90 -144 130 -253l67 28c-42 95 -98 193 -153 269l105 -10c26 -41 51 -85 72 -129l65 38c-64 114 -141 228 -221 318l146 -21c-9 -33 -21 -66 -32 -97
l57 -15c26 68 54 155 63 208zM88 682l62 11c-11 90 -30 188 -52 250c-13 -6 -43 -17 -59 -21c23 -64 39 -156 49 -240zM193 690l56 -11c13 71 26 162 30 223l-60 11c-2 -61 -14 -153 -26 -223zM293 672l53 -16c23 61 47 141 58 193l-56 19c-9 -54 -34 -134 -55 -196z
M953 598v73h-237v284h-73v-284h-235v-73h235v-148h-216v-73h216v-334h73v334h208v73h-208v148h237z" />
</svg>
