<?xml version="1.0" standalone="no"?>
<!DOCTYPE svg PUBLIC "-//W3C//DTD SVG 1.1//EN" "http://www.w3.org/Graphics/SVG/1.1/DTD/svg11.dtd" >
<svg xmlns="http://www.w3.org/2000/svg" xmlns:xlink="http://www.w3.org/1999/xlink" version="1.1" viewBox="-10 0 1010 1000">
   <path fill="currentColor"
d="M390 619l-57 20c-3 -16 -8 -35 -14 -56c-204 38 -233 46 -251 58c-4 -15 -16 -49 -24 -68c21 -4 44 -29 73 -66c16 -18 49 -61 85 -118c-106 14 -127 19 -142 26c-4 -15 -16 -50 -23 -69c16 -4 32 -24 51 -55c20 -29 83 -143 117 -249l71 28c-38 93 -89 190 -140 266
l107 -11c25 -41 49 -86 70 -129l63 34c-62 115 -138 230 -217 321l143 -25c-9 -28 -19 -57 -29 -83l54 -15c25 62 52 143 63 191zM98 682l56 10c-13 86 -34 179 -58 240c-11 -7 -39 -16 -54 -19c26 -62 44 -150 56 -231zM189 692l53 -12c12 68 25 154 28 212l-56 13
c-3 -58 -14 -146 -25 -213zM285 673l49 -15c19 45 39 105 46 143l-53 17c-7 -38 -26 -99 -42 -145zM509 252v169c0 154 -16 382 -116 536c-13 -14 -44 -35 -60 -42c95 -146 105 -349 105 -494v-237h240c-17 -36 -41 -79 -62 -113l67 -22c28 40 59 95 75 135h189v68h-438z
M950 928l-64 28c-6 -25 -13 -53 -23 -86c-283 39 -319 45 -342 57c-3 -14 -14 -48 -22 -66c20 -5 37 -46 59 -102c21 -53 86 -256 117 -434l72 8c-35 173 -87 361 -144 504l239 -28c-27 -84 -61 -176 -93 -252l59 -21c55 128 117 295 142 392z" />
</svg>
