<?xml version="1.0" standalone="no"?>
<!DOCTYPE svg PUBLIC "-//W3C//DTD SVG 1.1//EN" "http://www.w3.org/Graphics/SVG/1.1/DTD/svg11.dtd" >
<svg xmlns="http://www.w3.org/2000/svg" xmlns:xlink="http://www.w3.org/1999/xlink" version="1.1" viewBox="-10 0 1010 1000">
   <path fill="currentColor"
d="M411 613l-56 23c-3 -14 -7 -31 -12 -49c-227 35 -258 43 -277 53c-3 -15 -14 -47 -22 -65c21 -4 44 -29 73 -67c16 -19 48 -62 84 -117c-106 12 -127 17 -141 24c-4 -14 -14 -47 -21 -64c16 -4 33 -25 53 -54c22 -30 91 -145 131 -252l63 27c-43 94 -97 192 -152 267
l107 -10c26 -42 53 -90 74 -137l59 34c-64 118 -143 237 -224 332l177 -24c-12 -35 -26 -69 -39 -100l53 -18c30 64 60 146 70 197zM84 683l58 10c-10 86 -29 179 -50 241c-12 -7 -41 -17 -56 -21c23 -62 39 -150 48 -230zM190 690l54 -11c13 66 24 153 27 211l-57 13
c-2 -59 -13 -146 -24 -213zM297 670l51 -17c19 49 40 112 48 152l-54 19c-7 -41 -27 -106 -45 -154zM944 524h-192c51 118 135 237 215 299c-17 12 -39 38 -52 57c-74 -67 -148 -187 -199 -310v385h-70v-366c-55 125 -135 240 -218 305c-12 -17 -35 -44 -50 -56
c93 -62 182 -187 235 -314h-184v-69h217v-170h-122c-21 49 -44 94 -70 131c-13 -9 -43 -24 -60 -31c57 -72 98 -183 124 -293l63 11c-8 40 -19 78 -32 114h97v-174h70v174h196v68h-196v170h228v69z" />
</svg>
