<?xml version="1.0" standalone="no"?>
<!DOCTYPE svg PUBLIC "-//W3C//DTD SVG 1.1//EN" "http://www.w3.org/Graphics/SVG/1.1/DTD/svg11.dtd" >
<svg xmlns="http://www.w3.org/2000/svg" xmlns:xlink="http://www.w3.org/1999/xlink" version="1.1" viewBox="-10 0 1010 1000">
   <path fill="currentColor"
d="M669 37l71 23c-7 13 -14 27 -22 41c59 87 156 181 242 234c-14 17 -29 47 -36 66c-84 -60 -177 -152 -242 -241c-62 94 -144 181 -234 248c-11 -14 -35 -37 -51 -48c118 -83 218 -208 272 -323zM423 626l-62 20c-3 -16 -8 -36 -13 -58c-228 35 -260 41 -280 51
c-4 -15 -15 -51 -23 -70c21 -4 45 -30 75 -66c16 -17 49 -59 86 -112c-107 12 -130 17 -144 24c-4 -15 -15 -50 -23 -68c16 -4 35 -25 56 -55c22 -30 95 -144 137 -253l69 29c-46 94 -102 190 -160 267l111 -10c26 -41 53 -86 76 -130l64 39c-67 114 -149 229 -231 319
l170 -23c-10 -32 -21 -65 -33 -95l58 -16c27 66 56 154 67 207zM87 683l62 11c-11 85 -30 179 -51 241c-14 -7 -44 -17 -59 -22c23 -62 38 -150 48 -230zM200 691l57 -11c13 67 24 153 28 210l-60 11c-3 -57 -13 -144 -25 -210zM308 672l55 -18c20 54 43 124 52 170l-57 19
c-9 -46 -31 -117 -50 -171zM722 672v186h226v69h-531v-69h232v-186h-167v-68h167v-149h-153v-70h372v70h-146v149h158v68h-158z" />
</svg>
