<?xml version="1.0" standalone="no"?>
<!DOCTYPE svg PUBLIC "-//W3C//DTD SVG 1.1//EN" "http://www.w3.org/Graphics/SVG/1.1/DTD/svg11.dtd" >
<svg xmlns="http://www.w3.org/2000/svg" xmlns:xlink="http://www.w3.org/1999/xlink" version="1.1" viewBox="-10 0 1010 1000">
   <path fill="currentColor"
d="M385 629l-61 19c-3 -16 -7 -35 -12 -56c-196 30 -225 37 -243 47c-3 -14 -15 -48 -23 -67c21 -5 43 -29 72 -67c16 -17 47 -58 82 -113c-103 11 -124 16 -137 23c-4 -15 -15 -47 -22 -66c16 -4 32 -24 52 -55c20 -29 87 -144 125 -252l66 27c-41 95 -94 194 -147 269
l104 -8c25 -43 51 -90 72 -135l63 37c-63 115 -140 231 -219 322l140 -18c-10 -34 -21 -69 -33 -99l56 -14c26 67 54 155 65 206zM88 682l61 11c-10 85 -29 179 -51 241c-12 -7 -43 -17 -58 -21c23 -62 38 -151 48 -231zM191 690l56 -11c13 69 26 157 29 216l-60 12
c-2 -59 -13 -149 -25 -217zM294 672l52 -15c23 58 46 134 56 185l-56 18c-8 -51 -32 -129 -52 -188zM828 424h-254v93h254v-93zM574 673h254v-93h-254v93zM946 252h-332c-14 37 -28 74 -44 108h329v506c0 38 -7 58 -34 70c-26 11 -67 12 -131 12c-3 -19 -12 -49 -22 -68
c46 2 87 2 99 1c13 0 17 -4 17 -17v-128h-254v220h-70v-482c-24 36 -52 70 -82 98c-11 -14 -36 -43 -51 -56c72 -66 128 -157 168 -264h-126v-70h150c13 -44 25 -90 33 -138l71 12c-9 43 -20 86 -31 126h310v70z" />
</svg>
