<?xml version="1.0" standalone="no"?>
<!DOCTYPE svg PUBLIC "-//W3C//DTD SVG 1.1//EN" "http://www.w3.org/Graphics/SVG/1.1/DTD/svg11.dtd" >
<svg xmlns="http://www.w3.org/2000/svg" xmlns:xlink="http://www.w3.org/1999/xlink" version="1.1" viewBox="-10 0 1010 1000">
   <path fill="currentColor"
d="M396 629l-59 19c-3 -17 -7 -36 -13 -59c-207 34 -236 40 -255 50c-4 -14 -15 -50 -23 -70c21 -3 44 -28 74 -64c16 -18 49 -60 86 -115c-107 13 -129 18 -143 25c-4 -15 -15 -48 -23 -67c16 -4 35 -24 56 -54c22 -29 94 -143 137 -252l68 29c-47 95 -104 192 -162 267
l108 -8c26 -44 54 -90 75 -135l64 38c-65 114 -145 231 -227 322l150 -22c-9 -33 -21 -66 -32 -97l56 -13c26 66 53 154 63 206zM88 683l62 10c-10 87 -29 181 -50 243c-13 -8 -44 -18 -60 -23c23 -62 38 -150 48 -230zM198 690l57 -10c13 68 25 156 28 215l-60 12
c-2 -59 -13 -149 -25 -217zM299 673l52 -16c23 59 47 134 57 185l-56 19c-9 -51 -33 -129 -53 -188zM526 593h339c-62 -33 -119 -74 -168 -120c-53 48 -112 88 -171 120zM552 852h277v-192h-277v192zM597 213l-11 16c27 49 64 100 111 148c48 -49 90 -105 119 -164h-219z
M865 146l48 25c-38 97 -97 182 -166 254c63 54 138 102 223 134c-15 13 -37 43 -47 62c-7 -3 -15 -6 -22 -10v339h-72v-32h-277v34h-70v-336c-12 6 -22 11 -34 15c-9 -17 -28 -45 -44 -59c83 -31 170 -83 244 -148c-42 -46 -76 -94 -104 -140c-30 37 -64 70 -97 97
c-12 -13 -39 -39 -56 -51c92 -68 173 -175 219 -290l70 19c-13 31 -28 62 -45 91h217z" />
</svg>
