<?xml version="1.0" standalone="no"?>
<!DOCTYPE svg PUBLIC "-//W3C//DTD SVG 1.1//EN" "http://www.w3.org/Graphics/SVG/1.1/DTD/svg11.dtd" >
<svg xmlns="http://www.w3.org/2000/svg" xmlns:xlink="http://www.w3.org/1999/xlink" version="1.1" viewBox="-10 0 1010 1000">
   <path fill="currentColor"
d="M624 230l66 27c-20 34 -46 70 -72 99l174 -10c-15 -19 -31 -36 -47 -52l51 -25c47 45 98 105 120 150l-55 27c-7 -15 -17 -31 -30 -48c-237 16 -270 19 -289 26c-4 -13 -15 -45 -23 -60c12 -3 23 -11 34 -24c12 -13 50 -61 71 -110zM831 225l-58 33
c-13 -15 -31 -32 -51 -50c-450 20 -497 21 -528 30c-3 -13 -14 -46 -22 -62c18 -2 38 -11 62 -23c26 -13 110 -61 171 -114l66 32c-48 37 -100 70 -152 98l341 -12c-30 -23 -61 -46 -89 -65l54 -28c72 45 161 113 206 161zM500 403l-53 23c-4 -9 -10 -20 -16 -32
c-264 24 -298 28 -319 37c-3 -13 -14 -44 -22 -60c13 -2 27 -11 41 -24c16 -12 66 -61 97 -111l66 29c-28 33 -59 66 -90 95l197 -15c-15 -21 -31 -43 -45 -62l50 -20c38 42 78 101 94 140zM292 753l68 25c-63 60 -159 122 -241 160c-11 -13 -39 -37 -57 -48
c85 -33 174 -84 230 -137zM816 709l-264 14v150c0 37 -8 55 -40 66c-30 11 -78 10 -150 10c-4 -19 -15 -45 -26 -63c58 1 108 1 123 0c16 0 19 -4 19 -14v-145c-277 15 -317 19 -344 28c-3 -15 -13 -47 -21 -65c33 -3 74 -15 128 -36c28 -10 87 -32 157 -64
c-146 5 -174 9 -190 14v1v-1h-1v-3c-4 -15 -13 -41 -20 -56c17 -2 36 -9 60 -20s106 -56 164 -105l58 38c-44 31 -91 58 -138 82l180 -5c45 -23 90 -48 132 -74l52 48c-118 69 -242 125 -367 171l430 -21c-27 -22 -54 -42 -80 -60l50 -34c72 47 156 116 196 165l-54 38
c-13 -18 -32 -38 -54 -59zM636 785l53 -35c79 37 180 97 230 141l-56 39c-48 -43 -147 -105 -227 -145z" />
</svg>
