<?xml version="1.0" standalone="no"?>
<!DOCTYPE svg PUBLIC "-//W3C//DTD SVG 1.1//EN" "http://www.w3.org/Graphics/SVG/1.1/DTD/svg11.dtd" >
<svg xmlns="http://www.w3.org/2000/svg" xmlns:xlink="http://www.w3.org/1999/xlink" version="1.1" viewBox="-10 0 1010 1000">
   <path fill="currentColor"
d="M943 493l-61 34c-9 -20 -23 -45 -39 -71c-342 32 -382 37 -407 49c-3 -19 -17 -55 -24 -71c18 -4 42 -12 60 -29c20 -21 79 -104 119 -163h-180v-68h224c-14 -35 -32 -78 -50 -112l65 -20c23 41 48 96 63 132h225v68h-265c-36 55 -86 126 -123 178l257 -22
c-21 -34 -45 -67 -68 -96l57 -29c53 70 118 163 147 220zM411 624l-63 20c-3 -16 -7 -35 -12 -54c-217 31 -247 39 -267 49c-4 -15 -15 -50 -24 -69c22 -4 45 -29 75 -65c16 -18 49 -60 86 -114c-107 12 -129 17 -143 24c-4 -15 -16 -50 -23 -68c16 -5 34 -26 54 -55
c22 -29 92 -143 132 -251l68 29c-43 93 -98 190 -153 265l108 -9c27 -41 52 -85 74 -129l62 37c-65 114 -144 228 -225 319l160 -21c-10 -33 -22 -68 -33 -97l57 -17c28 66 56 153 67 206zM88 682l58 10c-10 88 -29 183 -50 246c-12 -7 -41 -17 -56 -22
c23 -62 38 -152 48 -234zM189 690l53 -10c13 69 26 159 29 219l-57 10c-3 -59 -14 -151 -25 -219zM285 671l49 -16c22 54 44 125 53 171l-53 18c-8 -48 -30 -119 -49 -173zM522 527h71c-8 226 -36 358 -207 433c-9 -17 -28 -45 -45 -58c155 -62 175 -174 181 -375zM795 868
h70c21 0 25 -18 28 -138c15 14 44 25 63 29c-6 139 -24 174 -84 174h-86c-69 0 -86 -21 -86 -94v-311h70v311c0 25 4 29 25 29z" />
</svg>
