<?xml version="1.0" standalone="no"?>
<!DOCTYPE svg PUBLIC "-//W3C//DTD SVG 1.1//EN" "http://www.w3.org/Graphics/SVG/1.1/DTD/svg11.dtd" >
<svg xmlns="http://www.w3.org/2000/svg" xmlns:xlink="http://www.w3.org/1999/xlink" version="1.1" viewBox="-10 0 1010 1000">
   <path fill="currentColor"
d="M100 682l59 12c-17 84 -42 177 -67 238c-13 -7 -41 -15 -57 -19c28 -62 50 -151 65 -231zM215 688l56 -13c13 68 26 154 30 212l-59 14c-3 -58 -15 -145 -27 -213zM333 669l53 -17c26 58 53 134 65 183l-56 21c-12 -49 -38 -128 -62 -187zM329 427l55 -15
c30 62 61 147 72 197l-59 19c-3 -13 -8 -31 -13 -49c-264 40 -297 48 -317 60c-4 -15 -15 -48 -23 -66c22 -5 47 -30 81 -66c19 -19 56 -62 99 -119c-126 14 -150 20 -164 27c-3 -14 -14 -46 -22 -64c18 -4 36 -25 60 -55c24 -29 104 -145 152 -256l64 29
c-50 95 -111 192 -173 267l130 -11c31 -44 61 -92 88 -139l60 38c-77 120 -165 237 -255 329l203 -29c-12 -33 -25 -67 -38 -97zM564 623l65 13c-21 92 -58 182 -99 242c-14 -10 -44 -22 -61 -29c45 -58 76 -141 95 -226zM866 550l-115 12v313c0 36 -5 53 -31 65
c-23 11 -60 11 -113 11c-3 -19 -12 -45 -21 -64c38 1 73 1 83 1c11 -1 14 -4 14 -14v-304c-126 13 -149 18 -165 25c-3 -14 -14 -47 -22 -66c22 -4 46 -28 80 -62c18 -18 56 -60 98 -114c-122 14 -145 19 -159 24c-4 -13 -14 -45 -22 -62c16 -3 31 -21 51 -47
c20 -25 85 -123 123 -215l64 27c-40 78 -90 158 -139 222l129 -12c30 -41 59 -84 85 -127l59 37c-77 117 -166 229 -255 318l232 -23c-17 -37 -39 -74 -60 -108l55 -24c45 68 91 159 107 217l-59 29c-4 -18 -11 -38 -19 -59zM804 639l60 -20c40 70 79 162 96 223l-64 23
c-15 -60 -55 -155 -92 -226z" />
</svg>
