<?xml version="1.0" standalone="no"?>
<!DOCTYPE svg PUBLIC "-//W3C//DTD SVG 1.1//EN" "http://www.w3.org/Graphics/SVG/1.1/DTD/svg11.dtd" >
<svg xmlns="http://www.w3.org/2000/svg" xmlns:xlink="http://www.w3.org/1999/xlink" version="1.1" viewBox="-10 0 1010 1000">
   <path fill="currentColor"
d="M406 629l-60 19c-3 -17 -7 -36 -12 -58c-216 32 -246 39 -265 49c-3 -15 -15 -49 -23 -68c21 -4 44 -28 73 -64c16 -18 50 -61 87 -116c-108 12 -129 17 -143 24c-4 -15 -16 -48 -23 -66c17 -4 35 -25 55 -55c22 -30 93 -145 136 -253l66 29c-45 94 -100 190 -158 267
l108 -10c26 -40 51 -84 72 -127l62 37c-64 113 -142 227 -223 317l160 -22c-9 -32 -21 -66 -31 -95l54 -15c28 67 54 154 65 207zM88 682l61 11c-10 87 -29 183 -51 246c-13 -7 -43 -18 -58 -23c23 -61 38 -151 48 -234zM190 690l57 -10c12 67 23 154 26 211l-60 12
c-2 -58 -12 -146 -23 -213zM288 672l52 -15c20 49 40 113 48 155l-55 18c-8 -42 -28 -108 -45 -158zM500 379v154h138v-154h-138zM848 379h-139v154h139v-154zM917 597h-172c50 100 132 199 210 249c-15 13 -38 37 -50 56c-72 -57 -145 -157 -196 -262v317h-71v-322
c-53 117 -134 221 -224 279c-11 -19 -34 -44 -49 -57c93 -50 179 -149 231 -260h-161v-282h203v-97h-232v-69h232v-101h71v101h235v69h-235v97h208v282z" />
</svg>
