<?xml version="1.0" standalone="no"?>
<!DOCTYPE svg PUBLIC "-//W3C//DTD SVG 1.1//EN" "http://www.w3.org/Graphics/SVG/1.1/DTD/svg11.dtd" >
<svg xmlns="http://www.w3.org/2000/svg" xmlns:xlink="http://www.w3.org/1999/xlink" version="1.1" viewBox="-10 0 1010 1000">
   <path fill="currentColor"
d="M398 613l-56 22c-2 -13 -5 -30 -10 -47c-217 35 -247 41 -266 51c-3 -14 -14 -47 -22 -65c21 -4 43 -29 71 -66c16 -18 46 -61 81 -117c-102 12 -123 17 -136 24c-4 -14 -15 -46 -21 -64c16 -4 33 -25 53 -55c21 -29 90 -144 130 -252l63 28c-43 94 -96 192 -151 267
l100 -9c26 -44 52 -92 73 -139l59 34c-63 119 -139 238 -218 333l167 -24c-12 -34 -25 -70 -39 -100l52 -18c30 63 60 146 70 197zM84 683l57 9c-10 87 -28 180 -50 241c-11 -6 -40 -16 -55 -20c23 -62 38 -150 48 -230zM189 689l53 -10c13 66 25 152 28 210l-56 14
c-3 -59 -14 -146 -25 -214zM293 670l50 -17c24 62 49 141 59 192l-53 19c-10 -53 -34 -133 -56 -194zM933 658l-3 30c-12 157 -24 221 -47 245c-15 17 -33 23 -59 25c-23 2 -68 1 -116 -1c-2 -20 -9 -46 -20 -64c47 5 92 5 107 5c16 0 25 -1 33 -8c14 -14 23 -59 32 -170
h-127v-1h-32c10 -33 21 -78 30 -121h-121c-13 171 -51 293 -193 362c-9 -17 -28 -41 -43 -53c126 -59 157 -163 167 -309h-110v-65h380c-7 40 -17 86 -27 125h149zM950 301h-180c51 69 127 132 198 166c-15 13 -36 38 -47 55c-75 -43 -154 -120 -207 -200v186h-68v-184
c-57 85 -142 162 -225 204c-10 -17 -32 -42 -46 -55c79 -34 160 -100 214 -172h-180v-64h237v-88c-70 7 -140 11 -206 14c-2 -16 -11 -41 -17 -57c151 -8 334 -27 432 -55l49 55c-53 15 -119 27 -190 35v96h236v64z" />
</svg>
