<?xml version="1.0" standalone="no"?>
<!DOCTYPE svg PUBLIC "-//W3C//DTD SVG 1.1//EN" "http://www.w3.org/Graphics/SVG/1.1/DTD/svg11.dtd" >
<svg xmlns="http://www.w3.org/2000/svg" xmlns:xlink="http://www.w3.org/1999/xlink" version="1.1" viewBox="-10 0 1010 1000">
   <path fill="currentColor"
d="M810 299l59 10c-5 40 -11 79 -19 116c39 50 81 112 99 152l-45 37c-14 -31 -42 -77 -71 -119c-16 55 -37 103 -62 142c-11 -9 -36 -26 -50 -33c52 -74 77 -185 89 -305zM499 297l58 10c-5 41 -13 81 -22 118c33 43 66 96 79 130l-43 39c-10 -28 -31 -67 -54 -103
c-18 53 -41 100 -69 138c-9 -11 -30 -30 -44 -40c54 -69 81 -175 95 -292zM394 632l-56 18c-2 -17 -6 -38 -11 -59c-209 31 -239 38 -258 48c-3 -15 -15 -48 -22 -66c20 -5 42 -29 72 -65c16 -18 48 -62 85 -117c-106 12 -127 17 -141 24c-4 -14 -15 -47 -22 -63
c16 -4 34 -26 54 -55c21 -29 90 -144 130 -252l63 26c-43 95 -96 190 -150 265l107 -10c26 -41 51 -85 72 -128l61 35c-64 115 -141 231 -221 322l156 -21c-9 -34 -19 -69 -29 -99l54 -13c24 68 48 157 56 210zM88 682l58 10c-10 88 -29 183 -50 246c-12 -7 -41 -17 -57 -22
c24 -61 39 -152 49 -234zM188 690l54 -10c12 70 24 160 27 220l-58 9c-1 -59 -12 -151 -23 -219zM282 671l50 -15c21 54 44 126 52 173l-52 18c-9 -47 -31 -121 -50 -176zM704 260v136c0 56 -2 111 -11 165c38 122 120 264 268 330c-15 13 -35 41 -46 58
c-122 -64 -200 -176 -246 -282c-40 112 -117 214 -273 291c-9 -15 -30 -42 -45 -53c256 -127 285 -316 285 -509v-136h-225v-67h225v-150h68v150h227v67h-227z" />
</svg>
