<?xml version="1.0" standalone="no"?>
<!DOCTYPE svg PUBLIC "-//W3C//DTD SVG 1.1//EN" "http://www.w3.org/Graphics/SVG/1.1/DTD/svg11.dtd" >
<svg xmlns="http://www.w3.org/2000/svg" xmlns:xlink="http://www.w3.org/1999/xlink" version="1.1" viewBox="-10 0 1010 1000">
   <path fill="currentColor"
d="M477 376v104h-66v-168h227v-104h-217v-66h217v-99h73v99h212v66h-212v104h223v168h-69v-104h-388zM411 625l-60 19c-3 -15 -7 -34 -12 -54c-219 32 -250 40 -270 49c-4 -14 -15 -49 -24 -68c22 -5 45 -29 74 -66c16 -17 48 -60 85 -113c-105 12 -127 16 -141 23
c-4 -15 -15 -47 -23 -66c17 -4 35 -24 55 -55c23 -29 94 -144 136 -252l67 28c-45 95 -101 190 -157 266l105 -10c27 -41 52 -87 74 -132l64 38c-65 114 -144 230 -225 322l163 -21c-10 -33 -22 -67 -33 -97l56 -16c27 66 55 153 66 205zM88 683l59 9
c-10 89 -29 184 -51 247c-12 -7 -41 -17 -56 -22c23 -62 38 -152 48 -234zM192 690l54 -9c13 69 25 159 29 218l-58 11c-3 -59 -14 -151 -25 -220zM290 672l51 -16c22 59 47 136 56 186l-54 17c-9 -51 -33 -128 -53 -187zM951 657v66h-237v154c0 39 -7 57 -36 69
c-29 11 -74 10 -139 10c-3 -20 -14 -47 -23 -67c50 2 95 2 108 1c13 0 17 -4 17 -15v-152h-231v-66h231v-60c35 -18 73 -47 105 -74h-260v-62h329l16 -4l47 39c-45 44 -106 90 -164 124v37h237z" />
</svg>
