<?xml version="1.0" standalone="no"?>
<!DOCTYPE svg PUBLIC "-//W3C//DTD SVG 1.1//EN" "http://www.w3.org/Graphics/SVG/1.1/DTD/svg11.dtd" >
<svg xmlns="http://www.w3.org/2000/svg" xmlns:xlink="http://www.w3.org/1999/xlink" version="1.1" viewBox="-10 0 1010 1000">
   <path fill="currentColor"
d="M423 625l-64 21c-3 -16 -8 -36 -14 -57c-226 33 -257 40 -277 50c-4 -15 -15 -51 -23 -71c21 -4 44 -29 74 -65c17 -17 50 -59 88 -113c-108 13 -131 18 -145 25c-4 -15 -15 -49 -23 -68c16 -5 35 -25 56 -55c22 -29 95 -144 137 -252l70 30c-46 93 -102 188 -159 264
l109 -9c26 -43 53 -87 75 -131l66 39c-67 114 -147 228 -230 318l165 -21c-10 -33 -21 -66 -33 -95l60 -17c27 66 57 154 68 207zM87 682l65 11c-11 88 -31 184 -52 247c-14 -8 -46 -18 -62 -24c24 -61 39 -151 49 -234zM201 690l58 -10c13 68 25 156 28 215l-61 12
c-2 -59 -13 -149 -25 -217zM309 671l54 -17c21 53 43 122 52 167l-57 19c-8 -45 -30 -115 -49 -169zM525 310v194h309v-194h-309zM805 878h65c21 0 24 -17 26 -124c15 11 43 23 62 28c-6 126 -24 159 -81 159h-83c-67 0 -83 -21 -83 -91v-279h-72c-17 164 -58 308 -211 388
c-8 -18 -30 -45 -47 -57c138 -67 171 -192 184 -331h-111v-327h111c-13 -47 -48 -118 -82 -172l60 -24c36 54 74 124 86 171l-56 25h156c30 -57 66 -141 84 -202l75 26c-26 58 -57 124 -84 176h103v327h-127v279c0 25 5 28 25 28z" />
</svg>
