<?xml version="1.0" standalone="no"?>
<!DOCTYPE svg PUBLIC "-//W3C//DTD SVG 1.1//EN" "http://www.w3.org/Graphics/SVG/1.1/DTD/svg11.dtd" >
<svg xmlns="http://www.w3.org/2000/svg" xmlns:xlink="http://www.w3.org/1999/xlink" version="1.1" viewBox="-10 0 1010 1000">
   <path fill="currentColor"
d="M748 706v-540c-49 12 -99 21 -146 28c-3 -15 -12 -40 -22 -56c108 -18 230 -50 297 -84l57 52c-35 17 -77 31 -123 44v231h112v64h-112v261h124v66h-325v-459h59v393h79zM342 628l-54 14c-2 -14 -5 -33 -8 -53c-171 33 -198 40 -214 50c-3 -13 -14 -46 -21 -63
c19 -3 38 -30 65 -67c14 -18 43 -61 75 -117c-92 12 -112 16 -125 22c-3 -13 -14 -45 -21 -61c15 -4 31 -25 47 -55c19 -29 79 -146 110 -254l63 25c-35 95 -83 193 -131 269l92 -8c22 -42 45 -88 62 -132l61 30c-56 115 -125 233 -196 325l122 -20c-7 -31 -16 -63 -25 -92
l51 -11c22 65 41 149 47 198zM88 682l56 9c-11 87 -29 179 -50 241c-12 -7 -39 -16 -54 -20c25 -62 38 -149 48 -230zM176 693l52 -11c12 67 24 152 27 209l-54 12c-2 -56 -13 -143 -25 -210zM260 675l50 -15c21 56 44 129 53 176l-52 16c-9 -47 -31 -120 -51 -177zM798 863
h160c-10 16 -21 45 -24 64h-140c-126 0 -235 -23 -317 -117c-32 61 -72 109 -119 145c-9 -15 -27 -40 -42 -53c47 -33 87 -84 118 -152c-30 -51 -55 -117 -75 -200l54 -20c13 59 29 108 50 149c21 -67 37 -146 46 -235h-138c31 -76 72 -189 104 -288h-111v-65h197
c-29 90 -68 203 -101 290h65l11 -2l39 9c-11 147 -33 265 -70 359c77 95 181 116 293 116z" />
</svg>
