<?xml version="1.0" standalone="no"?>
<!DOCTYPE svg PUBLIC "-//W3C//DTD SVG 1.1//EN" "http://www.w3.org/Graphics/SVG/1.1/DTD/svg11.dtd" >
<svg xmlns="http://www.w3.org/2000/svg" xmlns:xlink="http://www.w3.org/1999/xlink" version="1.1" viewBox="-10 0 1010 1000">
   <path fill="currentColor"
d="M584 187l-11 16c27 42 64 84 112 122c49 -39 90 -85 119 -138h-220zM854 124l43 20c-34 88 -90 160 -157 218c61 38 136 69 223 88c-14 14 -33 42 -42 59c-92 -23 -171 -60 -236 -105c-79 56 -170 95 -263 120c-7 -17 -23 -43 -36 -58c87 -19 172 -54 246 -103
c-40 -34 -72 -72 -98 -111c-27 34 -57 64 -89 88c-11 -11 -38 -34 -54 -44c84 -59 155 -150 195 -252l65 16c-9 23 -20 45 -31 67h221zM84 682l58 10c-10 86 -29 179 -50 241c-12 -7 -41 -17 -56 -20c23 -62 39 -151 48 -231zM182 692l55 -12c13 69 25 158 29 218l-59 13
c-2 -60 -14 -150 -25 -219zM279 672l53 -17c20 54 43 124 52 169l-54 20c-9 -46 -32 -118 -51 -172zM274 440l55 -15c26 59 54 138 63 186l-58 19c-3 -13 -7 -31 -12 -49c-208 39 -238 47 -255 58c-4 -15 -15 -48 -23 -67c21 -4 42 -29 73 -66c16 -18 48 -61 84 -117
c-107 14 -127 19 -141 26c-4 -15 -16 -49 -24 -68c18 -5 35 -25 54 -55c22 -30 91 -144 130 -253l69 29c-44 96 -99 194 -155 270l106 -8c26 -43 52 -90 74 -135l63 33c-64 117 -144 234 -224 326l153 -26c-10 -30 -20 -62 -32 -88zM715 708v71h226v61h-226v118h-71v-118
h-230v-61h230v-71h-186v-57h186v-66h-192v-57h192v-64h71v64h188v57h-188v66h184v57h-184z" />
</svg>
