<?xml version="1.0" standalone="no"?>
<!DOCTYPE svg PUBLIC "-//W3C//DTD SVG 1.1//EN" "http://www.w3.org/Graphics/SVG/1.1/DTD/svg11.dtd" >
<svg xmlns="http://www.w3.org/2000/svg" xmlns:xlink="http://www.w3.org/1999/xlink" version="1.1" viewBox="-10 0 1010 1000">
   <path fill="currentColor"
d="M648 285v-88h-235v-63h235v-91h71v91h227v63h-227v88h192v63h-462v-63h199zM940 594h-66v-118h-391v118h-64v-179h521v179zM389 620l-55 19c-3 -16 -8 -35 -14 -55c-206 39 -235 47 -253 58c-4 -14 -15 -46 -22 -64c20 -5 43 -29 71 -67c16 -18 49 -64 86 -122
c-107 14 -128 19 -142 26c-3 -14 -14 -46 -21 -64c15 -4 31 -25 50 -55c20 -30 83 -145 118 -252l65 27c-38 94 -88 191 -139 266l109 -10c24 -42 49 -87 69 -131l62 32c-64 117 -141 234 -219 326l149 -24c-8 -30 -19 -61 -30 -87l52 -14c26 62 54 143 64 191zM98 683
l58 11c-13 85 -34 178 -58 240c-12 -7 -41 -17 -56 -21c26 -62 44 -150 56 -230zM192 693l54 -12c13 66 25 154 28 211l-57 13c-2 -58 -13 -146 -25 -212zM291 673l50 -17c24 60 51 138 62 187l-53 19c-10 -51 -37 -129 -59 -189zM551 607v-62h69v64c0 102 -21 249 -197 351
c-13 -15 -37 -38 -54 -51c164 -91 182 -220 182 -302zM819 877h62c20 0 25 -16 27 -122c14 12 42 23 61 28c-6 126 -24 158 -80 158h-80c-66 0 -82 -21 -82 -92v-304h68v304c0 24 3 28 24 28z" />
</svg>
