<?xml version="1.0" standalone="no"?>
<!DOCTYPE svg PUBLIC "-//W3C//DTD SVG 1.1//EN" "http://www.w3.org/Graphics/SVG/1.1/DTD/svg11.dtd" >
<svg xmlns="http://www.w3.org/2000/svg" xmlns:xlink="http://www.w3.org/1999/xlink" version="1.1" viewBox="-10 0 1010 1000">
   <path fill="currentColor"
d="M339 626l-51 14c-2 -15 -5 -32 -9 -50c-169 32 -197 39 -213 50c-3 -14 -14 -47 -21 -63c19 -4 38 -31 64 -68c12 -17 41 -61 72 -116c-89 11 -109 15 -121 22c-3 -14 -14 -45 -22 -63c16 -3 32 -24 48 -55c19 -29 78 -146 110 -254l63 26c-36 95 -83 193 -130 271l86 -9
c22 -42 43 -89 60 -133l61 31c-54 115 -120 232 -190 325l121 -19c-8 -33 -17 -65 -27 -93l49 -10c23 63 44 145 50 194zM88 683l56 8c-11 87 -29 180 -50 242c-12 -7 -39 -16 -54 -20c25 -62 38 -150 48 -230zM170 695l52 -10c12 67 24 154 27 213l-54 12
c-2 -58 -14 -147 -25 -215zM249 680l47 -14c22 59 47 137 57 188l-51 16c-9 -51 -33 -130 -53 -190zM634 540l-38 58c-12 -28 -40 -81 -65 -125v484h-64v-445c-25 95 -56 181 -92 237c-11 -15 -33 -39 -49 -50c56 -77 106 -230 134 -375h-105v-65h112v-215h64v215h88v65h-88
v60c25 34 88 130 103 156zM935 324h-111c32 154 85 326 138 411c-15 11 -38 31 -50 49c-37 -69 -73 -184 -100 -304v477h-64v-471c-32 125 -75 240 -125 309c-11 -14 -32 -37 -48 -49c69 -84 129 -256 162 -422h-86v-65h97v-215h64v215h123v65z" />
</svg>
