<?xml version="1.0" standalone="no"?>
<!DOCTYPE svg PUBLIC "-//W3C//DTD SVG 1.1//EN" "http://www.w3.org/Graphics/SVG/1.1/DTD/svg11.dtd" >
<svg xmlns="http://www.w3.org/2000/svg" xmlns:xlink="http://www.w3.org/1999/xlink" version="1.1" viewBox="-10 0 1010 1000">
   <path fill="currentColor"
d="M686 129v379h-66v-438h222l9 -3l47 25c-25 48 -52 94 -82 141c58 47 84 89 84 128c1 37 -14 66 -39 80c-12 7 -28 12 -42 14c-17 2 -42 2 -64 1c-1 -17 -8 -41 -20 -56c24 1 43 2 57 2c10 -1 19 -3 25 -6c13 -6 20 -21 20 -40c-1 -32 -26 -67 -88 -114
c22 -42 42 -79 59 -113h-122zM295 788l62 25c-68 50 -170 100 -253 129c-11 -12 -37 -35 -52 -46c87 -26 182 -65 243 -108zM204 353v80h263v-80h-263zM800 732l-247 18v122c0 38 -8 55 -38 65c-32 10 -79 10 -153 10c-4 -20 -16 -44 -25 -61c60 2 111 2 125 0
c16 -1 20 -4 20 -15v-116c-282 19 -319 24 -347 34c-2 -14 -11 -45 -17 -63c32 -3 74 -14 129 -31c31 -9 95 -33 170 -63c-200 14 -228 18 -246 25c-1 -14 -11 -46 -18 -62c20 -2 43 -8 71 -20c28 -9 117 -48 188 -95h-273v-168c-11 5 -22 10 -32 14
c-10 -12 -34 -36 -47 -47c92 -28 164 -74 195 -147h-170v-57h470s-1 18 -2 28c-9 93 -17 135 -36 153c-14 13 -29 19 -54 20c-19 1 -59 1 -100 -1c-1 -17 -8 -40 -18 -56c39 4 75 5 88 5s21 -1 27 -8c9 -9 16 -32 22 -84h-157c-29 81 -93 136 -172 174h382v174h-96l39 29
c-51 31 -104 57 -156 79l224 -13c39 -19 78 -38 114 -59l46 47c-112 58 -226 105 -339 144l374 -24c-25 -20 -50 -37 -74 -54l52 -33c77 51 172 126 218 179l-55 38c-20 -23 -49 -52 -82 -81zM627 826l49 -41c85 25 196 69 256 104l-52 46c-55 -35 -165 -81 -253 -109z" />
</svg>
