<?xml version="1.0" standalone="no"?>
<!DOCTYPE svg PUBLIC "-//W3C//DTD SVG 1.1//EN" "http://www.w3.org/Graphics/SVG/1.1/DTD/svg11.dtd" >
<svg xmlns="http://www.w3.org/2000/svg" xmlns:xlink="http://www.w3.org/1999/xlink" version="1.1" viewBox="-10 0 1010 1000">
   <path fill="currentColor"
d="M792 186l-64 30c-13 -38 -43 -98 -67 -142l63 -25c25 44 55 100 68 137zM91 683l58 10c-10 85 -28 178 -50 240c-12 -7 -41 -17 -56 -21c23 -61 38 -149 48 -229zM197 690l54 -11c13 66 25 152 28 210l-57 14c-2 -59 -13 -146 -25 -213zM307 670l51 -17
c23 62 49 141 60 192l-54 18c-10 -53 -35 -132 -57 -193zM296 435l52 -19c30 63 60 146 71 197l-57 23c-3 -14 -6 -31 -11 -50c-229 36 -260 44 -278 54c-4 -15 -14 -48 -22 -65c20 -4 43 -30 72 -67c16 -19 48 -62 85 -117c-106 12 -128 17 -142 24c-3 -14 -14 -47 -21 -64
c17 -4 33 -25 54 -55s90 -145 130 -252l64 27c-42 94 -97 192 -153 268l107 -10c26 -43 53 -91 76 -138l58 34c-63 119 -142 238 -223 333l177 -24c-12 -34 -26 -69 -39 -99zM549 680v136h147v-136h-147zM696 417v-126h-147v126h147zM696 613v-128h-147v128h147zM950 816v69
h-401v73h-68v-576c-20 30 -40 59 -62 84c-8 -17 -24 -49 -36 -66c76 -92 143 -238 177 -351l70 20c-16 50 -38 102 -61 154h367v68h-172v126h153v68h-153v128h154v67h-154v136h186z" />
</svg>
