<?xml version="1.0" standalone="no"?>
<!DOCTYPE svg PUBLIC "-//W3C//DTD SVG 1.1//EN" "http://www.w3.org/Graphics/SVG/1.1/DTD/svg11.dtd" >
<svg xmlns="http://www.w3.org/2000/svg" xmlns:xlink="http://www.w3.org/1999/xlink" version="1.1" viewBox="-10 0 1010 1000">
   <path fill="currentColor"
d="M88 683l59 9c-10 88 -29 184 -51 247c-12 -7 -41 -17 -57 -22c24 -62 39 -152 49 -234zM188 690l55 -9c12 69 24 158 27 219l-59 10c-2 -60 -12 -151 -23 -220zM285 672l51 -16c23 61 47 138 57 189l-55 18c-9 -51 -32 -132 -53 -191zM294 436l57 -13
c25 67 48 156 56 210l-62 17c-2 -16 -6 -37 -10 -60c-216 32 -247 40 -266 49c-4 -15 -16 -51 -24 -70c22 -5 45 -30 77 -66c16 -17 51 -60 89 -114c-112 14 -134 19 -148 26c-4 -15 -16 -49 -24 -68c18 -3 36 -24 57 -53c24 -30 97 -144 142 -252l68 28
c-47 93 -105 189 -163 265l113 -10c28 -41 54 -86 76 -130l65 38c-68 115 -151 229 -233 319l158 -21c-9 -33 -18 -66 -28 -95zM532 327v81h312v-81h-312zM532 191v81h312v-81h-312zM935 546v244c0 33 -5 52 -29 65c-22 12 -57 12 -107 12c-3 -20 -12 -47 -22 -66
c35 1 65 1 75 0c9 -1 12 -3 12 -12v-176h-141v343h-70v-343h-140v257h-69v-324h209v-80h-189v-332h155c13 -30 24 -65 31 -91l80 14c-12 26 -26 52 -39 77h224v332h-192v80h212z" />
</svg>
