<?xml version="1.0" standalone="no"?>
<!DOCTYPE svg PUBLIC "-//W3C//DTD SVG 1.1//EN" "http://www.w3.org/Graphics/SVG/1.1/DTD/svg11.dtd" >
<svg xmlns="http://www.w3.org/2000/svg" xmlns:xlink="http://www.w3.org/1999/xlink" version="1.1" viewBox="-10 0 1010 1000">
   <path fill="currentColor"
d="M854 106l67 26c-31 58 -67 125 -98 167l-52 -24c28 -45 64 -118 83 -169zM502 109l59 12c-17 63 -48 139 -86 186l-59 -26c36 -41 68 -111 86 -172zM922 433l-39 58c-47 -45 -137 -112 -218 -163c-38 76 -100 130 -212 167c-7 -18 -26 -44 -40 -58
c199 -60 224 -173 232 -393h69c-4 87 -10 161 -27 222c85 50 185 118 235 167zM815 743l-51 -22c30 -50 71 -130 92 -186l67 25c-34 63 -75 136 -108 183zM484 541l62 11c-18 69 -48 154 -86 206l-61 -30c36 -45 69 -122 85 -187zM392 633l-58 16c-2 -16 -6 -36 -11 -57
c-205 30 -235 37 -254 47c-3 -15 -15 -49 -23 -68c21 -4 43 -29 72 -66c16 -17 47 -59 83 -114c-103 13 -124 16 -138 23c-4 -14 -15 -47 -23 -64c16 -3 34 -25 53 -55c21 -29 88 -144 126 -252l66 27c-42 93 -94 190 -147 265l104 -10c26 -41 50 -85 71 -129l62 36
c-62 115 -139 229 -217 320l151 -19c-9 -33 -19 -68 -29 -98l55 -14c24 69 49 159 57 212zM88 682l59 10c-10 88 -30 183 -51 245c-12 -6 -41 -16 -57 -21c24 -62 39 -152 49 -234zM188 690l54 -10c13 70 24 158 27 219l-58 10c-2 -60 -12 -151 -23 -219zM282 669l51 -16
c20 55 43 126 53 171l-55 17c-8 -46 -30 -117 -49 -172zM700 456v107c0 22 -1 45 -4 70c41 127 126 220 264 257c-16 14 -36 43 -45 62c-118 -38 -196 -113 -247 -218c-34 78 -105 157 -250 224c-9 -15 -32 -38 -49 -51c242 -103 261 -249 261 -345v-106h70z" />
</svg>
