<?xml version="1.0" standalone="no"?>
<!DOCTYPE svg PUBLIC "-//W3C//DTD SVG 1.1//EN" "http://www.w3.org/Graphics/SVG/1.1/DTD/svg11.dtd" >
<svg xmlns="http://www.w3.org/2000/svg" xmlns:xlink="http://www.w3.org/1999/xlink" version="1.1" viewBox="-10 0 1010 1000">
   <path fill="currentColor"
d="M836 244v-94h-323v94h323zM836 396v-95h-323v95h323zM908 89v368h-464v-368h464zM87 682l60 10c-11 91 -30 191 -52 256c-13 -7 -41 -17 -58 -21c25 -64 40 -158 50 -245zM191 690l55 -10c13 71 25 162 28 224l-59 10c-1 -61 -12 -153 -24 -224zM289 672l52 -16
c22 57 45 132 55 180l-55 19c-9 -50 -31 -126 -52 -183zM288 435l55 -13c25 68 50 157 57 210l-60 18c-2 -17 -6 -37 -11 -60c-211 32 -242 39 -261 49c-4 -14 -14 -50 -23 -69c21 -5 44 -30 75 -66c16 -18 50 -60 88 -114c-109 13 -132 18 -146 25c-3 -15 -15 -48 -23 -67
c17 -4 35 -24 57 -54c21 -30 94 -144 138 -254l67 29c-45 94 -102 190 -159 265l110 -9c27 -42 53 -87 75 -131l64 37c-68 115 -147 230 -229 321l153 -20c-8 -33 -18 -67 -27 -97zM530 865l144 -34c0 19 3 46 6 61c-173 46 -200 56 -217 68c-4 -19 -16 -51 -26 -68
c13 -5 23 -12 23 -46v-355h70v121h143v65h-143v188zM797 880h73c20 0 24 -18 26 -121c15 12 43 22 62 27c-6 123 -24 156 -83 156h-88c-68 0 -85 -21 -85 -93v-363h69v151c45 -26 89 -55 118 -80l50 53c-50 32 -111 65 -168 91v148c0 27 3 31 26 31z" />
</svg>
