<?xml version="1.0" standalone="no"?>
<!DOCTYPE svg PUBLIC "-//W3C//DTD SVG 1.1//EN" "http://www.w3.org/Graphics/SVG/1.1/DTD/svg11.dtd" >
<svg xmlns="http://www.w3.org/2000/svg" xmlns:xlink="http://www.w3.org/1999/xlink" version="1.1" viewBox="-10 0 1010 1000">
   <path fill="currentColor"
d="M397 628l-61 19c-2 -16 -6 -36 -10 -56c-208 30 -239 38 -257 48c-4 -15 -15 -50 -24 -70c22 -5 44 -29 75 -65c15 -17 49 -59 86 -113c-107 12 -129 17 -143 24c-4 -15 -16 -49 -24 -67c17 -4 36 -25 56 -54c22 -30 93 -144 137 -254l66 29c-44 93 -101 191 -158 266
l110 -10c27 -42 53 -87 74 -131l64 37c-66 115 -146 230 -228 321l152 -20c-9 -33 -18 -67 -28 -97l56 -14c24 68 49 156 57 207zM87 682l60 10c-11 88 -29 183 -51 246c-12 -7 -41 -17 -57 -22c24 -61 39 -152 48 -234zM184 690l56 -10c12 70 24 161 26 221l-58 10
c-2 -60 -13 -152 -24 -221zM279 671l51 -15c23 60 47 138 57 189l-55 17c-9 -51 -32 -131 -53 -191zM522 294v92h294v-92h-294zM522 146v90h294v-90h-294zM568 528h367s-1 22 -2 31c-11 250 -23 338 -48 368c-15 19 -32 26 -55 28c-20 2 -55 3 -89 0c-2 -19 -9 -45 -18 -62
c34 3 65 3 78 3c14 0 21 -1 29 -11c16 -18 27 -95 37 -295h-61c-40 150 -110 277 -200 361c-10 -12 -34 -33 -49 -43c86 -73 151 -187 186 -318h-74c-45 114 -118 215 -197 282c-10 -11 -32 -31 -45 -41c75 -58 139 -144 179 -241h-74c-27 41 -56 77 -87 107
c-11 -12 -35 -32 -51 -41c59 -52 111 -128 143 -210h-83v-361h433v361h-283c-11 28 -22 56 -36 82z" />
</svg>
