<?xml version="1.0" standalone="no"?>
<!DOCTYPE svg PUBLIC "-//W3C//DTD SVG 1.1//EN" "http://www.w3.org/Graphics/SVG/1.1/DTD/svg11.dtd" >
<svg xmlns="http://www.w3.org/2000/svg" xmlns:xlink="http://www.w3.org/1999/xlink" version="1.1" viewBox="-10 0 1010 1000">
   <path fill="currentColor"
d="M87 682l60 10c-11 89 -29 184 -51 246c-12 -6 -41 -16 -57 -21c24 -62 39 -152 48 -235zM186 690l56 -10c13 70 24 161 27 221l-59 11c-1 -61 -12 -152 -24 -222zM283 671l52 -15c21 59 46 134 55 184l-54 18c-9 -50 -32 -128 -53 -187zM291 434l55 -13
c24 68 49 158 57 211l-60 18c-2 -17 -6 -38 -11 -60c-214 31 -245 39 -264 49c-4 -15 -14 -50 -23 -70c21 -5 44 -29 74 -66c16 -16 49 -58 87 -112c-107 12 -130 17 -143 23c-4 -14 -16 -48 -24 -66c17 -4 35 -25 56 -54c21 -31 94 -144 136 -254l67 29
c-44 93 -101 190 -158 266l110 -10c26 -42 53 -87 75 -131l63 38c-65 115 -146 230 -228 319l159 -19c-9 -34 -19 -67 -28 -98zM713 584v111h233v65h-233v197h-73v-197h-235v-65h235v-111h-199v-66h110c-8 -32 -28 -79 -49 -114l62 -20c23 35 45 83 52 115l-53 19h233
l-51 -15c18 -32 41 -85 52 -119l71 18c-20 43 -42 86 -60 116h103v66h-198zM716 315h240v67h-557v-67h244v-99h-187v-65h187v-108h73v108h193v65h-193v99z" />
</svg>
