<?xml version="1.0" standalone="no"?>
<!DOCTYPE svg PUBLIC "-//W3C//DTD SVG 1.1//EN" "http://www.w3.org/Graphics/SVG/1.1/DTD/svg11.dtd" >
<svg xmlns="http://www.w3.org/2000/svg" xmlns:xlink="http://www.w3.org/1999/xlink" version="1.1" viewBox="-10 0 1010 1000">
   <path fill="currentColor"
d="M88 683l59 9c-10 89 -29 184 -51 247c-12 -7 -41 -17 -56 -22c23 -62 38 -152 48 -234zM192 690l55 -9c13 70 25 161 28 222l-59 11c-2 -61 -12 -153 -24 -224zM290 672l51 -16c23 61 47 138 57 190l-55 19c-9 -52 -32 -132 -53 -193zM293 435l55 -12
c24 68 49 158 57 211l-58 16c-3 -16 -7 -37 -12 -59c-216 32 -247 39 -266 49c-3 -15 -15 -49 -23 -68c21 -5 45 -30 76 -66c16 -18 50 -61 88 -116c-111 13 -133 18 -147 25c-4 -15 -15 -47 -22 -65c16 -5 34 -25 55 -55c23 -29 95 -144 139 -253l66 29
c-46 93 -102 188 -159 263l112 -9c27 -42 53 -86 74 -130l62 37c-67 114 -146 230 -229 320l160 -20c-8 -34 -18 -67 -28 -97zM829 622h-306v88h306v-88zM523 857h306v-91h-306v91zM454 957v-397h447v395h-72v-39h-306v41h-69zM510 248h166c-7 -35 -13 -72 -17 -110
c-50 5 -101 8 -149 11v99zM942 309h-183c30 94 73 154 124 156c15 1 25 -27 30 -87c13 14 34 29 49 35c-16 94 -41 126 -76 125c-96 -2 -159 -95 -195 -229h-181v134l170 -32c-2 19 -3 46 -3 60c-196 41 -225 49 -243 60c-4 -16 -17 -44 -26 -57c13 -7 34 -23 34 -61v-317
c157 -8 347 -27 450 -53l48 54c-58 15 -134 26 -214 35c4 42 10 80 18 116h198v61z" />
</svg>
