<?xml version="1.0" standalone="no"?>
<!DOCTYPE svg PUBLIC "-//W3C//DTD SVG 1.1//EN" "http://www.w3.org/Graphics/SVG/1.1/DTD/svg11.dtd" >
<svg xmlns="http://www.w3.org/2000/svg" xmlns:xlink="http://www.w3.org/1999/xlink" version="1.1" viewBox="-10 0 1010 1000">
   <path fill="currentColor"
d="M162 321v81h224v-81h-224zM162 186v80h224v-80h-224zM476 540v253c0 31 -4 49 -24 60c-19 12 -47 13 -87 13c-3 -20 -12 -45 -21 -63h55c8 0 10 -3 10 -11v-185h-101v336h-67v-336h-102v267h-63v-334h165v-80h-147v-331h130c14 -28 28 -62 36 -86l70 12
c-12 26 -26 51 -40 74h167v331h-149v80h168zM581 631l58 14c-26 88 -64 185 -102 246c-11 -7 -37 -22 -52 -29c39 -61 73 -149 96 -231zM875 551l-115 11v302c0 36 -6 53 -32 64c-23 10 -61 11 -117 11c-3 -19 -12 -44 -22 -62c40 1 77 1 88 0s14 -3 14 -14v-295
c-109 11 -133 15 -150 21c-4 -11 -18 -39 -26 -55c23 -3 48 -24 82 -54c20 -16 62 -57 109 -110c-119 8 -144 12 -161 17v1c-4 -12 -16 -40 -25 -53c17 -3 31 -16 49 -36c13 -15 50 -66 81 -123c-46 6 -91 10 -133 13c-3 -17 -13 -43 -22 -59c137 -11 306 -34 390 -73l56 56
c-54 22 -125 39 -202 51c-32 56 -72 112 -114 157l127 -7c28 -33 53 -69 76 -104l71 29c-74 102 -167 201 -259 279l215 -17c-14 -31 -28 -62 -43 -90l54 -20c37 64 76 149 91 200l-60 27c-5 -19 -13 -42 -22 -67zM801 643l52 -18c38 79 82 183 102 242l-55 23
c-19 -62 -62 -168 -99 -247z" />
</svg>
