<?xml version="1.0" standalone="no"?>
<!DOCTYPE svg PUBLIC "-//W3C//DTD SVG 1.1//EN" "http://www.w3.org/Graphics/SVG/1.1/DTD/svg11.dtd" >
<svg xmlns="http://www.w3.org/2000/svg" xmlns:xlink="http://www.w3.org/1999/xlink" version="1.1" viewBox="-10 0 1010 1000">
   <path fill="currentColor"
d="M822 242v-106h-287v106h287zM894 74v230h-428v-230h428zM87 682l58 10c-10 87 -29 182 -51 245c-12 -6 -40 -16 -55 -21c24 -61 39 -151 48 -234zM185 690l53 -9c12 70 23 159 26 219l-55 10c-2 -60 -13 -151 -24 -220zM279 671l49 -13c22 60 44 137 54 189l-53 16
c-7 -52 -30 -132 -50 -192zM284 435l54 -14c25 69 50 160 58 212l-58 17c-2 -16 -6 -37 -11 -59c-210 31 -240 39 -259 48c-3 -14 -14 -48 -22 -66c20 -5 43 -30 73 -67c16 -18 48 -60 85 -115c-106 12 -128 17 -142 24c-4 -14 -14 -47 -22 -64c17 -4 33 -26 54 -56
s90 -145 130 -254l65 26c-42 94 -96 191 -151 268l108 -10c25 -42 51 -87 73 -131l61 35c-63 115 -142 231 -221 323l154 -20c-8 -33 -19 -67 -29 -97zM814 512v-75h-273v75h273zM541 688v93c82 -7 177 -15 273 -23v-70h-273zM814 638v-75h-273v75h273zM947 437h-63v315
l62 -6l-1 64l-61 6v137h-70v-131c-151 14 -298 27 -405 36l-8 -68l70 -5v-348h-83v-64h559v64z" />
</svg>
