<?xml version="1.0" standalone="no"?>
<!DOCTYPE svg PUBLIC "-//W3C//DTD SVG 1.1//EN" "http://www.w3.org/Graphics/SVG/1.1/DTD/svg11.dtd" >
<svg xmlns="http://www.w3.org/2000/svg" xmlns:xlink="http://www.w3.org/1999/xlink" version="1.1" viewBox="-10 0 1010 1000">
   <path fill="currentColor"
d="M839 269v-114h-134v114h134zM839 445v-115h-134v115h134zM511 330v115h130v-115h-130zM511 155v114h130v-114h-130zM909 90v420h-466v-420h466zM775 685l-51 34c-20 -45 -66 -114 -108 -165l49 -29c42 49 90 116 110 160zM398 633l-61 18c-2 -17 -5 -38 -10 -60
c-209 31 -240 38 -258 48c-3 -15 -15 -49 -23 -68c21 -4 44 -29 75 -65c15 -18 49 -60 85 -115c-108 12 -129 17 -143 23c-4 -14 -15 -47 -24 -65c17 -4 35 -25 54 -55c22 -30 90 -144 130 -252l66 27c-42 94 -96 190 -151 267l110 -10c28 -42 54 -88 75 -133l63 37
c-65 117 -146 232 -228 324l155 -21c-9 -32 -19 -66 -30 -96l58 -14c25 68 50 157 57 210zM87 682l60 10c-11 88 -29 183 -51 246c-12 -7 -41 -17 -57 -22c24 -62 39 -152 48 -234zM186 687l54 -9c12 66 23 154 26 211l-57 10c-1 -58 -12 -146 -23 -212zM281 666l50 -14
c18 52 38 120 47 164l-53 17c-7 -45 -27 -114 -44 -167zM433 891l-56 -34c32 -67 57 -176 69 -256l56 18c-13 81 -36 197 -69 272zM642 860h104c26 0 31 -12 34 -105c14 11 42 22 61 27c-8 114 -27 143 -89 143h-118c-74 0 -93 -21 -93 -92v-241h65v241c0 23 6 27 36 27z
M813 626l58 -21c41 77 78 177 91 243l-62 24c-12 -67 -48 -169 -87 -246z" />
</svg>
