<?xml version="1.0" standalone="no"?>
<!DOCTYPE svg PUBLIC "-//W3C//DTD SVG 1.1//EN" "http://www.w3.org/Graphics/SVG/1.1/DTD/svg11.dtd" >
<svg xmlns="http://www.w3.org/2000/svg" xmlns:xlink="http://www.w3.org/1999/xlink" version="1.1" viewBox="-10 0 1010 1000">
   <path fill="currentColor"
d="M88 683l61 10c-11 89 -30 189 -52 253c-12 -7 -43 -17 -59 -22c24 -63 40 -157 50 -241zM194 688l56 -9c13 72 25 165 28 227l-59 11c-2 -62 -13 -156 -25 -229zM295 670l52 -15c20 61 43 138 52 190l-55 16c-8 -51 -29 -131 -49 -191zM291 436l54 -13
c24 68 50 157 57 211l-58 17c-3 -16 -7 -38 -12 -61c-213 33 -243 40 -263 49c-3 -14 -15 -49 -22 -68c20 -4 43 -29 72 -67c16 -16 48 -58 83 -113c-104 13 -125 17 -139 24c-4 -15 -15 -48 -23 -66c16 -4 34 -24 55 -54s91 -144 132 -253l66 28c-44 94 -99 190 -153 267
l105 -9c25 -43 51 -89 73 -134l62 36c-64 115 -143 232 -223 325l161 -22c-8 -33 -18 -68 -27 -97zM534 740h289v-75h-289v75zM823 533h-289v74h289v-74zM894 473v405c0 36 -8 53 -35 64c-26 10 -68 10 -134 10c-2 -17 -13 -42 -22 -59c47 1 91 1 103 1c13 -1 17 -4 17 -17
v-80h-289v159h-71v-483h431zM853 221v-84h-148v84h148zM853 360v-85h-148v85h148zM494 275v85h145v-85h-145zM494 137v84h145v-84h-145zM426 80h498v337h-498v-337z" />
</svg>
