<?xml version="1.0" standalone="no"?>
<!DOCTYPE svg PUBLIC "-//W3C//DTD SVG 1.1//EN" "http://www.w3.org/Graphics/SVG/1.1/DTD/svg11.dtd" >
<svg xmlns="http://www.w3.org/2000/svg" xmlns:xlink="http://www.w3.org/1999/xlink" version="1.1" viewBox="-10 0 1010 1000">
   <path fill="currentColor"
d="M87 682l59 10c-12 91 -30 191 -52 255c-13 -6 -40 -16 -57 -20c25 -64 41 -158 50 -245zM179 688l53 -9c13 74 24 167 27 230l-56 10c-1 -63 -12 -157 -24 -231zM269 670l49 -14c21 63 44 143 53 196l-52 16c-9 -53 -30 -136 -50 -198zM266 436l53 -14
c26 69 51 158 60 210l-56 18c-2 -16 -6 -36 -11 -56c-196 28 -225 35 -243 45c-3 -15 -15 -48 -22 -67c19 -4 41 -29 69 -67c14 -18 43 -59 76 -112c-95 11 -116 15 -129 22c-4 -15 -14 -48 -22 -65c15 -4 31 -25 51 -55c18 -31 81 -145 116 -254l66 26
c-38 94 -87 192 -138 269l94 -8c24 -44 49 -92 69 -137l63 34c-60 116 -133 236 -209 330l144 -19c-9 -34 -20 -69 -31 -100zM491 57l63 14c-17 60 -38 120 -62 176v709h-65v-577c-14 26 -30 49 -45 71c-10 -12 -34 -37 -48 -48c67 -86 123 -216 157 -345zM624 454v90h96
v-90h-96zM624 312v88h96v-88h-96zM862 400v-88h-89v88h89zM862 544v-90h-89v90h89zM921 600h-145c-7 71 -18 132 -39 186c63 51 140 88 226 109c-15 14 -33 40 -43 59c-80 -23 -152 -60 -213 -109c-31 46 -74 84 -137 113c-7 -15 -27 -40 -40 -51c60 -27 101 -62 128 -106
c-44 -45 -79 -96 -106 -154l59 -15c19 40 44 75 75 108c14 -42 22 -88 26 -140h-145v-344h147v-86h-162v-64h387v64h-160v86h142v344z" />
</svg>
