<?xml version="1.0" standalone="no"?>
<!DOCTYPE svg PUBLIC "-//W3C//DTD SVG 1.1//EN" "http://www.w3.org/Graphics/SVG/1.1/DTD/svg11.dtd" >
<svg xmlns="http://www.w3.org/2000/svg" xmlns:xlink="http://www.w3.org/1999/xlink" version="1.1" viewBox="-10 0 1010 1000">
   <path fill="currentColor"
d="M819 228v-81h-279v81h279zM819 363v-81h-279v81h279zM887 91v329h-412v-329h412zM404 634l-58 17c-2 -17 -6 -38 -10 -62c-217 34 -248 41 -267 50c-3 -14 -15 -49 -23 -67c21 -5 43 -30 74 -66c16 -18 49 -60 86 -115c-108 12 -129 17 -143 23c-4 -14 -15 -48 -24 -65
c17 -4 36 -25 55 -55c22 -29 92 -143 134 -252l66 28c-44 94 -99 190 -155 266l109 -10c27 -41 53 -86 74 -132l63 38c-66 114 -145 230 -226 321l162 -21c-9 -33 -18 -66 -29 -96l56 -13c24 68 49 157 56 211zM88 683l59 10c-11 89 -30 188 -52 252c-12 -7 -41 -16 -57 -21
c24 -64 40 -157 50 -241zM186 689l54 -9c12 71 24 164 28 226l-57 10c-3 -62 -13 -155 -25 -227zM281 670l50 -14c20 56 42 128 50 176l-53 17c-8 -48 -29 -122 -47 -179zM716 728v135c25 4 52 5 80 5c22 1 131 0 162 0c-10 17 -20 47 -22 66h-144
c-127 0 -221 -28 -282 -151c-26 69 -61 128 -106 175c-12 -11 -40 -32 -57 -41c81 -72 123 -186 139 -325l67 9c-5 35 -11 69 -19 100c26 77 65 118 113 142v-294h-222v-65h515v65h-224v115h191v64h-191z" />
</svg>
