<?xml version="1.0" standalone="no"?>
<!DOCTYPE svg PUBLIC "-//W3C//DTD SVG 1.1//EN" "http://www.w3.org/Graphics/SVG/1.1/DTD/svg11.dtd" >
<svg xmlns="http://www.w3.org/2000/svg" xmlns:xlink="http://www.w3.org/1999/xlink" version="1.1" viewBox="-10 0 1010 1000">
   <path fill="currentColor"
d="M352 619l-53 17c-2 -15 -6 -33 -11 -52c-179 37 -208 45 -223 56c-3 -14 -14 -47 -22 -63c19 -4 39 -31 66 -68c13 -18 42 -61 74 -118c-92 13 -113 18 -125 24c-4 -15 -14 -47 -22 -65c15 -3 30 -24 46 -55c19 -29 75 -145 104 -252l66 27c-34 94 -80 193 -126 270
l90 -8c23 -43 45 -89 62 -134l62 30c-55 115 -124 232 -194 325l128 -23c-8 -31 -19 -62 -29 -90l49 -11c24 61 48 143 58 190zM81 675l55 9c-11 86 -28 179 -50 240c-11 -6 -38 -15 -52 -19c24 -62 38 -150 47 -230zM166 689l51 -11c12 63 23 144 27 199l-55 12
c-1 -54 -12 -138 -23 -200zM254 677l49 -15c17 46 38 107 46 146l-51 18c-8 -40 -28 -102 -44 -149zM651 737l9 58c-108 38 -221 76 -308 104l-21 -68c38 -10 85 -24 137 -40v-172h-107v-64h107v-103h65v103h112v64h-112v153zM857 311h-116c-4 15 -8 28 -13 42
c14 89 32 174 58 250c32 -87 56 -186 71 -292zM962 311h-45c-19 139 -51 269 -98 379c37 84 85 152 145 198c-16 13 -39 39 -50 56c-53 -46 -95 -108 -129 -182c-42 76 -92 138 -153 182c-12 -16 -33 -37 -52 -50c72 -47 128 -120 173 -211c-26 -71 -46 -150 -60 -234
c-13 29 -27 55 -41 80c-11 -12 -40 -35 -55 -45c13 -21 26 -45 38 -70l-50 19c-2 -8 -4 -17 -7 -27c-177 26 -205 32 -221 41c-3 -14 -14 -46 -22 -63c14 -2 24 -21 37 -47c10 -20 40 -93 61 -169h-104v-63h330v63h-159c-19 68 -48 139 -77 197l136 -17
c-12 -34 -27 -70 -43 -99l52 -19c30 56 58 127 71 176c43 -99 69 -226 85 -359l68 11c-9 65 -20 128 -34 186h204v67z" />
</svg>
