<?xml version="1.0" standalone="no"?>
<!DOCTYPE svg PUBLIC "-//W3C//DTD SVG 1.1//EN" "http://www.w3.org/Graphics/SVG/1.1/DTD/svg11.dtd" >
<svg xmlns="http://www.w3.org/2000/svg" xmlns:xlink="http://www.w3.org/1999/xlink" version="1.1" viewBox="-10 0 1010 1000">
   <path fill="currentColor"
d="M638 210l-55 30c-15 -45 -56 -115 -95 -165l51 -27c40 49 83 117 99 162zM831 492v-181h-307v181h307zM901 247v309h-445v-309h264c34 -59 75 -145 97 -207l65 29c-29 58 -63 125 -94 178h113zM622 596l48 -28c50 41 106 103 132 143l-51 34c-26 -43 -81 -107 -129 -149z
M399 617l-55 20c-3 -15 -8 -35 -15 -56c-212 41 -241 48 -260 60c-3 -14 -15 -48 -22 -66c20 -4 42 -31 71 -68c15 -18 46 -62 82 -117c-101 13 -124 18 -137 25c-4 -15 -14 -47 -23 -66c16 -4 33 -24 51 -55c20 -29 83 -145 118 -252l67 28c-38 93 -88 190 -139 266l101 -8
c26 -45 51 -93 71 -139l64 32c-62 118 -138 238 -217 332l155 -27c-11 -29 -21 -58 -32 -84l51 -17c28 62 58 144 69 192zM100 682l56 10c-12 85 -34 180 -57 240c-12 -7 -40 -15 -54 -19c26 -62 44 -150 55 -231zM197 692l52 -12c13 68 25 154 28 212l-55 13
c-2 -58 -13 -146 -25 -213zM290 672l49 -14c20 54 43 123 52 169l-51 17c-9 -47 -31 -117 -50 -172zM450 896l-57 -25c30 -53 52 -143 63 -215l56 10c-10 74 -31 169 -62 230zM645 878h124c31 0 37 -15 41 -111c13 11 37 21 55 25c-7 115 -25 144 -90 144h-136
c-80 0 -100 -19 -100 -87v-223h63v222c0 26 6 30 43 30zM811 657l51 -23c43 68 87 158 100 217l-54 27c-14 -60 -55 -152 -97 -221z" />
</svg>
