<?xml version="1.0" standalone="no"?>
<!DOCTYPE svg PUBLIC "-//W3C//DTD SVG 1.1//EN" "http://www.w3.org/Graphics/SVG/1.1/DTD/svg11.dtd" >
<svg xmlns="http://www.w3.org/2000/svg" xmlns:xlink="http://www.w3.org/1999/xlink" version="1.1" viewBox="-10 0 1010 1000">
   <path fill="currentColor"
d="M863 86l59 25c-30 42 -66 84 -96 112l-49 -21c29 -32 67 -82 86 -116zM563 92l50 17c-18 48 -44 102 -84 136l-48 -30c37 -29 66 -81 82 -123zM422 89l58 23c-28 41 -64 83 -90 111l-50 -21c27 -31 64 -81 82 -113zM153 90l49 17c-18 49 -44 103 -86 137l-48 -30
c39 -28 69 -80 85 -124zM292 763l68 26c-63 57 -160 115 -240 150c-13 -14 -41 -37 -58 -48c84 -31 174 -79 230 -128zM800 719l-248 14v141c0 36 -8 54 -39 65s-79 11 -151 11c-4 -20 -15 -45 -26 -64c58 2 108 2 123 1c16 -1 19 -4 19 -15v-135c-282 16 -321 20 -349 27
c-3 -13 -13 -46 -21 -64c32 -3 73 -16 129 -37c27 -9 81 -31 146 -61c-135 6 -159 9 -176 14c-3 -13 -14 -44 -22 -60c20 -3 41 -13 66 -28c21 -10 79 -48 133 -93h-228v109h-71v-171h12c-7 -16 -24 -37 -37 -48c167 -44 197 -123 204 -282h68c-4 64 -11 118 -27 162
c51 31 114 73 147 103l-50 43c-27 -25 -75 -61 -121 -92c-33 51 -84 88 -169 114h397c-7 -16 -24 -39 -37 -51c172 -43 203 -121 212 -279h68c-4 61 -11 114 -26 159c66 35 148 84 190 118l-46 50c-37 -32 -106 -79 -169 -116c-35 55 -90 93 -184 119h400v171h-73v-109h-359
c-54 44 -112 85 -170 117l180 -5c48 -26 99 -54 145 -83l53 48c-121 71 -248 131 -375 178l426 -20c-27 -23 -57 -45 -84 -63l51 -33c70 46 155 114 195 163l-53 38c-13 -16 -32 -36 -53 -56zM636 796l52 -36c83 34 186 90 240 133l-57 41c-50 -42 -153 -101 -235 -138z" />
</svg>
