<?xml version="1.0" standalone="no"?>
<!DOCTYPE svg PUBLIC "-//W3C//DTD SVG 1.1//EN" "http://www.w3.org/Graphics/SVG/1.1/DTD/svg11.dtd" >
<svg xmlns="http://www.w3.org/2000/svg" xmlns:xlink="http://www.w3.org/1999/xlink" version="1.1" viewBox="-10 0 1010 1000">
   <path fill="currentColor"
d="M809 48l72 30c-33 57 -73 124 -105 166l-56 -25c30 -45 70 -119 89 -171zM613 216l-60 29c-17 -46 -54 -117 -90 -170l57 -27c38 53 77 122 93 168zM928 254v68h-521v-68h521zM698 392l38 -50c76 50 162 114 213 163l-42 55c-51 -50 -135 -118 -209 -168zM571 343l62 39
c-55 67 -141 140 -217 187c-9 -16 -27 -39 -40 -54c73 -43 154 -115 195 -172zM383 634l-56 17c-2 -16 -6 -36 -11 -58c-198 31 -229 37 -247 47c-3 -15 -15 -49 -23 -68c21 -5 42 -30 72 -67c16 -17 47 -60 82 -113c-102 12 -123 16 -137 23c-4 -15 -16 -48 -24 -66
c17 -3 34 -25 53 -56c21 -29 88 -144 125 -253l68 28c-42 95 -95 192 -149 269l104 -9c27 -42 51 -89 73 -134l62 36c-62 117 -139 233 -218 325l145 -19c-9 -34 -18 -69 -29 -99l54 -14c24 68 49 159 56 211zM87 682l61 10c-12 92 -30 193 -52 258c-13 -6 -43 -16 -59 -21
c25 -65 41 -161 50 -247zM184 688l54 -9c13 71 25 162 28 222l-57 11c-2 -61 -13 -152 -25 -224zM283 670l49 -15c21 54 43 125 53 171l-53 17c-8 -46 -31 -119 -49 -173zM502 623v238h72v-238h-72zM701 623h-74v238h74v-238zM828 623h-75v238h75v-238zM891 861h66v65h-596
v-65h80v-300h450v300z" />
</svg>
