<?xml version="1.0" standalone="no"?>
<!DOCTYPE svg PUBLIC "-//W3C//DTD SVG 1.1//EN" "http://www.w3.org/Graphics/SVG/1.1/DTD/svg11.dtd" >
<svg xmlns="http://www.w3.org/2000/svg" xmlns:xlink="http://www.w3.org/1999/xlink" version="1.1" viewBox="-10 0 1010 1000">
   <path fill="currentColor"
d="M375 633l-57 18c-2 -16 -6 -35 -11 -57c-191 29 -221 36 -238 45c-3 -14 -15 -47 -22 -65c20 -4 41 -30 70 -68c13 -18 44 -60 78 -114c-98 12 -119 16 -132 23c-4 -14 -15 -46 -23 -64c17 -3 34 -24 52 -54c20 -30 86 -146 123 -254l65 26c-41 95 -92 192 -144 268
l98 -8c25 -44 50 -91 70 -138l61 35c-60 117 -135 235 -212 329l140 -19c-9 -34 -18 -69 -29 -99l54 -13c24 68 50 157 57 209zM87 682l59 10c-12 89 -30 186 -52 250c-12 -6 -40 -16 -56 -21c24 -63 40 -154 49 -239zM178 688l52 -9c12 69 23 158 26 218l-55 10
c-2 -60 -12 -150 -23 -219zM264 670l47 -13c19 53 40 122 48 166l-51 16c-7 -45 -27 -115 -44 -169zM484 158v209c0 167 -12 419 -96 590c-12 -12 -42 -31 -57 -36c81 -164 88 -393 88 -554v-274h537v65h-472zM561 663l60 14c-24 77 -63 158 -103 211
c-12 -9 -37 -25 -53 -32c41 -51 75 -124 96 -193zM590 465v84h279v-84h-279zM590 328v82h279v-82h-279zM933 606h-175v271c0 35 -6 53 -31 63c-24 11 -62 12 -122 12c-3 -19 -12 -44 -20 -62c44 1 82 1 92 0c13 -1 16 -3 16 -14v-270h-164v-335h139c11 -34 23 -80 29 -111
l71 15c-12 32 -24 67 -36 96h201v335zM816 681l53 -17c39 64 80 151 94 203l-56 23c-14 -54 -53 -142 -91 -209z" />
</svg>
