<?xml version="1.0" standalone="no"?>
<!DOCTYPE svg PUBLIC "-//W3C//DTD SVG 1.1//EN" "http://www.w3.org/Graphics/SVG/1.1/DTD/svg11.dtd" >
<svg xmlns="http://www.w3.org/2000/svg" xmlns:xlink="http://www.w3.org/1999/xlink" version="1.1" viewBox="-10 0 1010 1000">
   <path fill="currentColor"
d="M941 141v63h-551v-63h241c-12 -26 -27 -56 -42 -79l70 -19c19 29 40 68 53 98h229zM390 620l-52 17c-2 -16 -7 -35 -13 -55c-211 41 -240 49 -258 60c-3 -14 -14 -45 -21 -62c20 -4 42 -30 71 -67c16 -19 50 -65 88 -124c-110 14 -131 19 -145 26c-3 -14 -14 -45 -21 -63
c15 -4 32 -24 51 -55c19 -28 83 -144 118 -252l63 27c-38 95 -88 191 -139 267l110 -10c26 -41 50 -86 71 -130l57 32c-64 116 -140 232 -218 325l158 -26c-10 -31 -20 -62 -31 -90l48 -13c26 63 53 145 63 193zM98 683l53 10c-13 85 -35 177 -58 238
c-10 -5 -37 -14 -51 -18c27 -62 44 -150 56 -230zM190 693l50 -11c12 67 24 154 27 212l-53 11c-1 -58 -13 -146 -24 -212zM290 676l47 -15c23 61 48 140 59 192l-50 17c-9 -53 -35 -133 -56 -194zM518 446v75h293v-75h-293zM811 323h-293v70h293v-70zM890 584l51 46
c-38 43 -89 93 -130 128c40 51 90 92 150 117c-16 14 -36 41 -47 61c-125 -62 -204 -183 -251 -336c-28 38 -63 74 -101 107v155l153 -39c-2 18 -2 42 0 56c-167 52 -193 65 -208 76c-4 -15 -16 -44 -26 -59c11 -6 21 -19 21 -56v-86c-26 20 -54 37 -81 51
c-7 -15 -24 -44 -34 -58c79 -41 158 -104 209 -170h-141v-126h-68v-63h68v-121h422v121h78v63h-78v126h-159c15 47 33 91 57 130c40 -36 86 -86 115 -123z" />
</svg>
