<?xml version="1.0" standalone="no"?>
<!DOCTYPE svg PUBLIC "-//W3C//DTD SVG 1.1//EN" "http://www.w3.org/Graphics/SVG/1.1/DTD/svg11.dtd" >
<svg xmlns="http://www.w3.org/2000/svg" xmlns:xlink="http://www.w3.org/1999/xlink" version="1.1" viewBox="-10 0 1010 1000">
   <path fill="currentColor"
d="M941 165l-46 28c-20 -30 -59 -81 -90 -117l44 -22c31 34 71 82 92 111zM360 636l-55 16c-2 -16 -5 -35 -10 -56c-180 28 -210 34 -226 43c-3 -13 -14 -47 -22 -63c20 -5 40 -31 67 -68c13 -18 43 -61 75 -116c-93 12 -114 16 -126 23c-4 -14 -15 -45 -22 -63
c15 -4 31 -24 48 -55c18 -29 78 -146 109 -253l63 25c-36 94 -82 192 -130 269l93 -7c24 -44 48 -91 66 -137l60 34c-56 115 -127 234 -199 328l131 -17c-9 -35 -19 -71 -30 -102l52 -12c24 68 49 159 56 211zM87 682l58 10c-12 91 -30 190 -52 255c-13 -7 -39 -16 -55 -20
c25 -64 39 -158 49 -245zM173 688l49 -7c13 72 25 166 27 229l-53 9c-1 -63 -12 -157 -23 -231zM254 670l46 -12c18 54 39 123 47 169l-49 15c-8 -46 -27 -117 -44 -172zM493 621l46 11c-15 70 -41 148 -65 200c-9 -7 -31 -17 -43 -22c27 -52 49 -123 62 -189zM713 566h-95
v312c0 29 -4 44 -25 55c-19 10 -50 10 -95 9c-2 -15 -8 -37 -16 -52h69c9 0 12 -3 12 -12v-312h-94v-57h88v-231h55v85h95v55h-95v91h101v57zM731 763l-43 15c-10 -37 -31 -99 -50 -146l41 -11c20 46 42 107 52 142zM890 372l56 10c-23 137 -61 264 -118 373
c15 76 35 120 58 121c15 0 26 -53 32 -140c12 13 37 30 48 36c-18 146 -51 184 -82 184c-45 -1 -76 -46 -100 -125c-28 43 -61 82 -97 117c-10 -12 -32 -31 -46 -40c49 -45 90 -98 124 -158c-21 -122 -31 -293 -37 -490h-276v193c0 143 -11 358 -77 503
c-12 -12 -39 -32 -54 -37c61 -140 67 -331 67 -466v-257h339c-1 -50 -2 -100 -3 -153h63c0 53 0 103 1 153h165v64h-164c4 153 12 289 25 395c36 -86 61 -182 76 -283z" />
</svg>
