<?xml version="1.0" standalone="no"?>
<!DOCTYPE svg PUBLIC "-//W3C//DTD SVG 1.1//EN" "http://www.w3.org/Graphics/SVG/1.1/DTD/svg11.dtd" >
<svg xmlns="http://www.w3.org/2000/svg" xmlns:xlink="http://www.w3.org/1999/xlink" version="1.1" viewBox="-10 0 1010 1000">
   <path fill="currentColor"
d="M961 367l-49 39c-15 -39 -44 -95 -74 -147c-18 55 -40 108 -68 151c-11 -10 -35 -24 -50 -31c58 -87 90 -227 102 -331l62 10c-7 39 -15 82 -25 126c39 62 83 137 102 183zM756 287l-42 44c-12 -22 -35 -54 -57 -84c-20 63 -44 122 -75 169c-11 -11 -34 -29 -47 -37
c56 -87 89 -225 101 -330l65 11c-7 38 -16 80 -26 122c30 35 64 79 81 105zM489 49l62 18c-37 92 -97 200 -162 271c-9 -13 -27 -34 -39 -46c58 -65 112 -164 139 -243zM341 638l-51 16c-2 -16 -5 -35 -10 -56c-167 27 -196 33 -212 41c-3 -13 -12 -45 -20 -61
c18 -4 38 -31 64 -69c12 -18 40 -60 70 -115c-87 10 -108 15 -120 21c-3 -14 -13 -45 -21 -61c16 -4 29 -26 47 -56c17 -30 74 -148 103 -257l62 25c-33 96 -78 196 -125 274l87 -8c22 -44 45 -93 62 -140l58 31c-53 118 -120 240 -190 336l124 -16
c-10 -36 -20 -74 -31 -107l48 -11c25 70 48 161 55 213zM87 682l56 9c-11 92 -29 191 -51 255c-12 -6 -38 -15 -54 -19c24 -65 39 -159 49 -245zM171 688l51 -8c12 75 23 169 26 234l-52 10c-1 -65 -13 -161 -25 -236zM252 670l46 -12c21 61 45 142 54 193l-49 15
c-9 -53 -31 -134 -51 -196zM483 259l57 15c-16 46 -38 96 -62 145v535h-62v-430c-17 24 -35 48 -53 68c-8 -12 -24 -34 -34 -46c65 -75 125 -193 154 -287zM903 870h64c-9 16 -19 48 -21 66h-48c-108 0 -214 -33 -282 -173c-18 67 -41 129 -73 177c-12 -10 -37 -29 -50 -37
c72 -110 91 -302 98 -433l68 5c-5 58 -12 126 -24 195c23 69 55 116 92 146v-395h66v131h142v62h-142v239c36 13 74 17 110 17z" />
</svg>
