<?xml version="1.0" standalone="no"?>
<!DOCTYPE svg PUBLIC "-//W3C//DTD SVG 1.1//EN" "http://www.w3.org/Graphics/SVG/1.1/DTD/svg11.dtd" >
<svg xmlns="http://www.w3.org/2000/svg" xmlns:xlink="http://www.w3.org/1999/xlink" version="1.1" viewBox="-10 0 1010 1000">
   <path fill="currentColor"
d="M391 633l-58 18c-2 -17 -6 -38 -11 -59c-204 31 -235 37 -253 47c-3 -15 -15 -48 -23 -66c21 -5 44 -30 75 -66c15 -18 49 -61 86 -116c-109 12 -130 17 -144 24c-4 -15 -15 -48 -24 -66c18 -4 36 -25 57 -55c22 -28 94 -143 137 -251l66 28c-45 94 -102 190 -159 265
l109 -10c27 -41 53 -87 75 -133l61 36c-67 116 -147 234 -228 326l151 -21c-9 -33 -18 -67 -29 -98l55 -13c24 68 49 159 57 210zM87 682l60 10c-11 89 -30 187 -51 251c-12 -7 -42 -17 -58 -22c24 -64 40 -155 49 -239zM186 688l54 -9c13 73 24 165 27 227l-57 11
c-2 -62 -12 -158 -24 -229zM281 669l50 -14c21 56 42 129 51 176l-53 17c-8 -48 -29 -122 -48 -179zM496 747l61 19c-38 58 -91 126 -133 171c-12 -11 -38 -29 -54 -37c44 -43 92 -100 126 -153zM488 276v81h139v-81h-139zM488 143v80h139v-80h-139zM835 223v-80h-143v80
h143zM835 357v-81h-143v81h143zM858 691l-149 12v172c0 35 -6 51 -33 62c-25 10 -64 10 -126 10c-3 -19 -11 -42 -20 -60c45 1 85 1 96 1c13 0 16 -4 16 -14v-165c-179 13 -207 18 -227 25c-3 -13 -13 -47 -20 -65c23 -3 54 -16 91 -38c22 -10 66 -36 118 -70
c-117 6 -139 9 -153 15c-4 -15 -14 -46 -22 -64c15 -2 31 -10 50 -23c14 -9 53 -40 89 -76h-146v-326h481v326h-245c-35 34 -73 67 -110 93l137 -4c27 -21 53 -42 78 -64l54 43c-85 67 -174 127 -264 175l266 -18c-15 -20 -31 -40 -46 -58l49 -27c45 54 102 127 130 170
l-51 33c-11 -18 -27 -40 -43 -65zM761 772l48 -32c43 48 99 114 127 153l-50 38c-26 -40 -82 -109 -125 -159z" />
</svg>
