<?xml version="1.0" standalone="no"?>
<!DOCTYPE svg PUBLIC "-//W3C//DTD SVG 1.1//EN" "http://www.w3.org/Graphics/SVG/1.1/DTD/svg11.dtd" >
<svg xmlns="http://www.w3.org/2000/svg" xmlns:xlink="http://www.w3.org/1999/xlink" version="1.1" viewBox="-10 0 1010 1000">
   <path fill="currentColor"
d="M928 81v212h-498v-212h66v147h145v-189h69v189h149v-147h69zM370 637l-57 17c-2 -17 -6 -38 -10 -59c-188 27 -218 34 -235 44c-4 -15 -14 -50 -23 -69c21 -5 43 -29 72 -66c14 -17 45 -59 79 -112c-99 11 -121 16 -134 23c-3 -15 -15 -50 -23 -67c17 -4 33 -26 52 -56
c21 -30 88 -143 124 -251l69 28c-42 95 -95 193 -149 269l101 -9c24 -43 50 -89 70 -134l63 37c-61 116 -136 233 -215 325l136 -18c-8 -35 -18 -71 -29 -102l55 -13c24 70 49 160 54 213zM87 682l62 11c-11 92 -31 193 -52 258c-14 -7 -43 -17 -60 -22
c25 -65 40 -161 50 -247zM185 688l56 -10c13 74 24 168 27 231l-59 11c-1 -63 -12 -159 -24 -232zM278 669l51 -14c23 61 47 141 57 194l-55 17c-9 -53 -33 -135 -53 -197zM519 761v89h149v-89h-149zM668 559v-82h-149v82h149zM668 701v-82h-149v82h149zM956 850v65h-437v43
h-65v-401c-17 24 -33 44 -51 63c-9 -14 -31 -44 -45 -58c64 -64 119 -160 150 -259l66 19c-11 31 -24 63 -37 93h149c-10 -29 -26 -65 -40 -93l61 -15c21 34 41 77 51 108h178v62h-200v82h177v60h-177v82h177v60h-177v89h220z" />
</svg>
