<?xml version="1.0" standalone="no"?>
<!DOCTYPE svg PUBLIC "-//W3C//DTD SVG 1.1//EN" "http://www.w3.org/Graphics/SVG/1.1/DTD/svg11.dtd" >
<svg xmlns="http://www.w3.org/2000/svg" xmlns:xlink="http://www.w3.org/1999/xlink" version="1.1" viewBox="-10 0 1010 1000">
   <path fill="currentColor"
d="M807 331h-187c21 35 51 66 89 91c40 -23 74 -54 98 -91zM854 278l39 14c-27 69 -72 122 -129 162c56 25 123 43 197 52c-14 13 -31 37 -39 53c-83 -13 -157 -37 -217 -72c-52 25 -109 43 -170 55c-6 -15 -20 -38 -32 -50c53 -9 103 -22 149 -41c-39 -31 -69 -67 -92 -109
l42 -11h-71v-51h312zM629 127v7c0 50 -20 106 -102 145c-9 -14 -33 -39 -46 -48c71 -30 83 -64 83 -99v-57h258v98c0 19 2 25 14 25h56c11 0 32 -1 44 -4c0 16 2 36 4 51c-10 3 -30 4 -46 4h-66c-56 0 -67 -22 -67 -77v-45h-132zM146 355h101v-47h-101v47zM146 223v46h101
v-46h-101zM416 223h-104v46h104v-46zM416 355v-47h-104v47h104zM247 543v-60h-193v-46h193v-42h-160v-213h160v-39h-185v-45h185v-56h65v56h190v45h-190v39h165v213h-165v42h198v46h-198v60h-65zM300 787l66 24c-69 48 -173 95 -258 124c-12 -11 -38 -36 -53 -47
c87 -23 185 -61 245 -101zM791 747l-244 17v114c0 36 -8 54 -40 65c-32 10 -81 10 -155 10c-4 -19 -16 -44 -28 -63c62 2 115 2 130 1c17 0 20 -4 20 -14v-108c-269 18 -306 23 -333 33c-2 -14 -12 -43 -20 -60c33 -3 75 -13 131 -32c29 -9 89 -31 161 -61
c-170 13 -196 17 -214 24c-3 -13 -13 -42 -21 -56c19 -2 41 -10 66 -22c27 -12 116 -58 181 -110l57 33c-49 34 -101 64 -153 89l211 -14c44 -21 89 -43 130 -67l51 45c-119 61 -239 112 -359 153l364 -23c-25 -17 -50 -32 -74 -46l50 -32c76 42 169 107 215 153l-53 36
c-18 -19 -44 -41 -73 -65zM629 824l48 -38c85 26 192 70 250 105l-52 43c-53 -35 -159 -82 -246 -110z" />
</svg>
