<?xml version="1.0" standalone="no"?>
<!DOCTYPE svg PUBLIC "-//W3C//DTD SVG 1.1//EN" "http://www.w3.org/Graphics/SVG/1.1/DTD/svg11.dtd" >
<svg xmlns="http://www.w3.org/2000/svg" xmlns:xlink="http://www.w3.org/1999/xlink" version="1.1" viewBox="-10 0 1010 1000">
   <path fill="currentColor"
d="M83 683l59 10c-12 91 -30 192 -52 257c-13 -7 -41 -16 -57 -21c25 -64 41 -160 50 -246zM174 689l52 -9c13 73 25 167 27 231l-55 10c-2 -64 -12 -159 -24 -232zM260 670l49 -14c22 62 46 142 56 194l-51 17c-10 -53 -34 -135 -54 -197zM256 438l53 -12
c24 68 49 159 56 212l-57 16c-2 -16 -6 -36 -10 -58c-184 27 -213 34 -229 44c-3 -15 -15 -49 -23 -67c20 -4 41 -30 69 -67c14 -18 44 -60 76 -113c-95 11 -116 15 -128 22c-4 -15 -15 -47 -23 -64c16 -4 32 -26 50 -56c19 -30 81 -147 115 -255l66 27
c-38 95 -87 194 -138 272l95 -9c25 -43 49 -92 69 -139l63 35c-59 118 -134 237 -209 331l134 -18c-9 -34 -19 -70 -29 -101zM734 718h-143v88h143v-88zM791 854h-200v44h-55v-229h255v185zM929 557v320c0 36 -7 54 -34 64c-26 12 -68 12 -132 12c-3 -19 -14 -45 -24 -62
c49 2 92 1 105 1c13 -1 17 -4 17 -16v-261h-395v341h-69v-399h532zM757 462v-86h-194v86h194zM717 268h-115c-12 20 -24 39 -39 59h195c-16 -20 -29 -39 -41 -59zM944 268h-156c47 62 117 119 186 149c-16 13 -36 37 -47 54c-36 -19 -73 -45 -106 -76v117h-320v-115
c-31 29 -68 56 -109 81c-10 -16 -31 -39 -46 -49c80 -44 136 -101 177 -161h-146v-60h180c10 -21 18 -41 24 -62c-57 3 -114 5 -167 6c-1 -16 -10 -40 -18 -55c159 -4 353 -18 456 -41l54 51c-67 15 -157 27 -251 34c-7 23 -15 44 -23 67h312v60z" />
</svg>
