<?xml version="1.0" standalone="no"?>
<!DOCTYPE svg PUBLIC "-//W3C//DTD SVG 1.1//EN" "http://www.w3.org/Graphics/SVG/1.1/DTD/svg11.dtd" >
<svg xmlns="http://www.w3.org/2000/svg" xmlns:xlink="http://www.w3.org/1999/xlink" version="1.1" viewBox="-10 0 1010 1000">
   <path fill="currentColor"
d="M388 633l-58 18c-2 -17 -6 -37 -11 -59c-202 30 -233 37 -251 47c-3 -15 -14 -48 -22 -67c20 -5 43 -29 72 -66c16 -17 48 -60 84 -114c-104 12 -126 16 -140 23c-3 -15 -14 -47 -22 -65c16 -4 33 -25 53 -55c22 -30 90 -145 131 -252l64 27c-42 94 -95 190 -150 267
l105 -10c26 -42 51 -87 72 -132l62 35c-64 116 -140 232 -220 325l149 -21c-9 -33 -20 -67 -29 -97l54 -14c24 68 50 157 57 210zM87 682l62 11c-11 93 -31 193 -52 258c-14 -7 -43 -16 -60 -21c25 -65 40 -161 50 -248zM187 688l56 -10c13 75 25 169 28 233l-60 11
c-1 -64 -12 -160 -24 -234zM283 670l51 -16c22 62 48 141 59 193l-55 18c-10 -52 -34 -133 -55 -195zM815 631h-293v87h293v-87zM522 854h293v-83h-293v83zM454 953v-381h432v377h-71v-37h-293v41h-68zM502 280l45 -14c26 45 53 105 64 141l-47 19
c-11 -38 -36 -100 -62 -146zM771 426l-42 -16c21 -38 49 -100 64 -142l50 17c-23 49 -49 104 -72 141zM855 460v-228h-159v228h159zM479 232v228h163v-228h-163zM803 174h120v344h-509v-344h137c-11 -31 -37 -76 -60 -110l61 -21c27 34 54 80 66 110l-50 21h162
c25 -39 55 -94 72 -133l73 25c-24 36 -49 76 -72 108z" />
</svg>
