<?xml version="1.0" standalone="no"?>
<!DOCTYPE svg PUBLIC "-//W3C//DTD SVG 1.1//EN" "http://www.w3.org/Graphics/SVG/1.1/DTD/svg11.dtd" >
<svg xmlns="http://www.w3.org/2000/svg" xmlns:xlink="http://www.w3.org/1999/xlink" version="1.1" viewBox="-10 0 1010 1000">
   <path fill="currentColor"
d="M833 59l60 28c-33 45 -71 95 -103 126l-46 -22c30 -36 69 -94 89 -132zM561 181l-54 34c-16 -33 -50 -85 -80 -123l53 -29c29 36 65 87 81 118zM622 487v-176c-59 65 -142 127 -212 161c-10 -16 -30 -39 -44 -52c72 -28 155 -82 212 -139h-199v-62h243v-175h69v175h244
v62h-206c59 55 147 107 224 133c-14 12 -34 36 -45 53c-74 -33 -158 -95 -217 -159v179h-69zM356 637l-56 16c-2 -16 -5 -35 -10 -56c-176 27 -205 33 -221 42c-3 -14 -14 -47 -22 -65c20 -3 40 -29 68 -67c13 -18 43 -60 76 -114c-94 10 -115 15 -128 22
c-4 -14 -15 -47 -23 -63c17 -5 33 -26 50 -56c20 -29 82 -146 115 -253l64 26c-38 94 -87 193 -137 270l96 -9c24 -43 49 -90 68 -136l60 34c-58 116 -130 236 -206 330l129 -17c-9 -36 -20 -73 -31 -105l53 -12c24 70 48 160 55 213zM87 682l59 10c-12 92 -30 193 -52 258
c-13 -7 -41 -16 -57 -20c25 -65 41 -161 50 -248zM177 688l54 -9c12 74 24 168 27 232l-57 10c-1 -64 -12 -159 -24 -233zM262 674l48 -16c22 59 47 134 58 183l-52 18c-10 -50 -34 -128 -54 -185zM602 544l11 -2l38 12c-40 200 -140 335 -261 404c-8 -15 -24 -36 -37 -48
c55 -28 107 -75 149 -135c-22 -21 -50 -46 -75 -63l38 -37c22 15 46 34 66 50c21 -37 38 -78 50 -123h-100c-26 50 -59 94 -94 128c-9 -9 -31 -32 -44 -42c60 -55 107 -137 132 -226l58 12c-7 24 -15 47 -25 70h94zM866 601v147h84v60h-84v148h-64v-148h-146
c10 -50 19 -126 25 -184l58 3c-4 40 -11 83 -17 121h80v-147h-136v-58h136v-75h64v75h74v58h-74z" />
</svg>
