<?xml version="1.0" standalone="no"?>
<!DOCTYPE svg PUBLIC "-//W3C//DTD SVG 1.1//EN" "http://www.w3.org/Graphics/SVG/1.1/DTD/svg11.dtd" >
<svg xmlns="http://www.w3.org/2000/svg" xmlns:xlink="http://www.w3.org/1999/xlink" version="1.1" viewBox="-10 0 1010 1000">
   <path fill="currentColor"
d="M366 636l-53 16c-2 -17 -6 -36 -10 -58c-188 28 -217 35 -234 45c-3 -14 -14 -45 -22 -63c20 -4 41 -30 69 -67c14 -18 44 -61 78 -117c-97 12 -117 16 -131 22c-4 -13 -15 -44 -22 -60c16 -4 32 -26 50 -56c19 -29 82 -145 116 -254l62 26c-38 94 -87 192 -137 268
l99 -9c24 -42 47 -88 67 -134l58 34c-59 114 -130 233 -204 326l137 -18c-9 -34 -18 -70 -29 -101l51 -11c24 69 48 159 55 211zM87 682l58 10c-12 91 -30 190 -52 255c-13 -7 -39 -16 -55 -20c25 -65 40 -159 49 -245zM177 688l50 -8c13 72 24 164 27 226l-53 9
c-1 -61 -12 -154 -24 -227zM263 669l46 -11c19 51 38 117 45 160l-49 15c-7 -44 -26 -112 -42 -164zM693 273v60h153v-60h-153zM693 165v60h153v-60h-153zM688 638h171v-44h-122v-173h49v123h73v-128h59v539h-59v-167h-73v161h-49v-210h122v-46h-171v264h-58v-264h-168
c-1 16 -3 30 -4 46h125v210h-47v-161h-86c-12 63 -34 123 -74 176c-11 -12 -34 -31 -48 -39c70 -93 78 -209 78 -319v-187h58v125h71v-123h48v173h-119v13v31h166v-251h-213v-54h209v-60h-246v-48h246v-60h-205v-54h205v-68h67v68h215v109h48v55h-48v112h-220v251z" />
</svg>
