<?xml version="1.0" standalone="no"?>
<!DOCTYPE svg PUBLIC "-//W3C//DTD SVG 1.1//EN" "http://www.w3.org/Graphics/SVG/1.1/DTD/svg11.dtd" >
<svg xmlns="http://www.w3.org/2000/svg" xmlns:xlink="http://www.w3.org/1999/xlink" version="1.1" viewBox="-10 0 1010 1000">
   <path fill="currentColor"
d="M480 246h135v-77h-135v77zM815 169h-129v77h129v-77zM615 348v-52h-197v-177h197v-74h71v74h193v177h-193v52h253v54h-587v-54h263zM389 634l-56 17c-2 -17 -6 -37 -11 -59c-204 30 -235 37 -253 47c-3 -15 -15 -48 -23 -66c21 -4 42 -30 72 -67c16 -17 47 -60 82 -115
c-102 13 -123 17 -137 24c-4 -15 -15 -47 -23 -65c17 -4 34 -26 53 -56c22 -29 89 -144 128 -252l66 27c-43 94 -96 191 -150 267l103 -9c26 -43 52 -90 73 -135l62 36c-63 116 -140 234 -219 327l152 -20c-9 -34 -18 -68 -29 -99l53 -12c24 68 50 157 57 210zM87 682l61 10
c-12 92 -30 193 -52 259c-13 -7 -42 -17 -58 -22c24 -64 40 -160 49 -247zM186 687l55 -9c13 74 25 168 27 231l-58 10c-1 -63 -12 -158 -24 -232zM385 837l-53 17c-9 -50 -31 -127 -49 -184l50 -15c19 58 42 133 52 182zM498 708v60h303v-60h-303zM498 603v59h303v-59h-303
zM498 498v59h303v-59h-303zM873 817h-118c73 32 155 73 204 105l-61 36c-45 -31 -122 -74 -194 -108l43 -33h-184l57 20c-61 51 -163 96 -248 123c-11 -13 -34 -40 -50 -52c83 -20 174 -53 228 -91h-122v-367h445v367z" />
</svg>
