<?xml version="1.0" standalone="no"?>
<!DOCTYPE svg PUBLIC "-//W3C//DTD SVG 1.1//EN" "http://www.w3.org/Graphics/SVG/1.1/DTD/svg11.dtd" >
<svg xmlns="http://www.w3.org/2000/svg" xmlns:xlink="http://www.w3.org/1999/xlink" version="1.1" viewBox="-10 0 1010 1000">
   <path fill="currentColor"
d="M296 207v-45h-232v-57h232v-62h73v62h258v-62h73v62h239v57h-239v45h-73v-45h-258v45h-73zM314 827l58 20c-53 38 -143 76 -215 98c-9 -12 -32 -33 -47 -43c73 -19 157 -45 204 -75zM615 854l45 -36c72 23 166 60 219 85l-45 39c-51 -26 -145 -66 -219 -88zM249 403v36
h508v-36h-508zM249 331v36h508v-36h-508zM249 261v34h508v-34h-508zM947 563h-224c66 42 157 77 239 95c-14 11 -32 34 -41 50c-98 -28 -212 -83 -284 -145h-128l23 17c-41 27 -84 49 -126 68l143 -3c30 -14 60 -28 90 -44l38 38c-89 45 -179 81 -270 111l291 -15
c-19 -13 -36 -25 -54 -36l46 -28c61 36 128 86 164 121l-48 34c-13 -13 -31 -30 -52 -47l-203 11v105c0 34 -7 46 -35 55c-26 9 -67 8 -129 8c-4 -17 -15 -36 -25 -51c48 2 90 2 101 1c14 -1 17 -5 17 -15v-99c-223 13 -254 16 -274 22v1c-2 -11 -10 -39 -16 -53
c27 -1 65 -10 111 -24c25 -7 77 -24 138 -49c-118 4 -141 6 -154 11v1c-3 -12 -11 -38 -15 -53c16 -1 35 -6 58 -15c20 -7 83 -36 137 -72h-91c-71 62 -167 116 -291 158c-8 -15 -26 -38 -39 -49c96 -29 175 -67 237 -109h-223v-53h288c10 -10 20 -21 28 -31h-196v-258h652
v258h-379c-7 10 -16 21 -25 31h521v53z" />
</svg>
