<?xml version="1.0" standalone="no"?>
<!DOCTYPE svg PUBLIC "-//W3C//DTD SVG 1.1//EN" "http://www.w3.org/Graphics/SVG/1.1/DTD/svg11.dtd" >
<svg xmlns="http://www.w3.org/2000/svg" xmlns:xlink="http://www.w3.org/1999/xlink" version="1.1" viewBox="-10 0 1010 1000">
   <path fill="currentColor"
d="M368 635l-55 17c-2 -17 -6 -37 -10 -58c-188 28 -217 35 -234 45c-3 -14 -14 -47 -22 -64c20 -5 41 -30 70 -67c14 -18 45 -61 79 -116c-99 12 -119 16 -133 22c-4 -13 -15 -45 -22 -62c16 -3 32 -25 50 -55c20 -30 85 -145 120 -254l64 25c-41 95 -90 193 -141 269
l99 -9c25 -42 49 -89 69 -134l60 34c-60 115 -133 234 -209 327l136 -18c-8 -34 -18 -70 -29 -101l52 -12c24 69 48 159 56 211zM87 682l61 10c-12 92 -30 192 -52 256c-13 -7 -42 -17 -59 -21c25 -65 41 -159 50 -245zM181 688l53 -9c12 76 23 172 25 236l-56 10
c-1 -65 -11 -162 -22 -237zM269 669l49 -13c22 64 46 149 56 203l-53 16c-9 -56 -32 -141 -52 -206zM623 143v683c0 47 8 57 58 57h13v-740h-71zM452 721h111v-114h-111v114zM563 440h-111v109h111v-109zM468 252h95v-109h-95v109zM856 253v-110h-103v110h103zM870 439h-117
v110h117v-110zM753 720h117v-113h-117v113zM753 883h105c39 0 45 -17 50 -86c14 9 37 19 54 23c-7 90 -25 118 -100 118h-184c-90 0 -115 -23 -115 -113v-44h-175v-401h175v-73h-154v-220h506v221h-162v72h177v399h-177v104z" />
</svg>
