<?xml version="1.0" standalone="no"?>
<!DOCTYPE svg PUBLIC "-//W3C//DTD SVG 1.1//EN" "http://www.w3.org/Graphics/SVG/1.1/DTD/svg11.dtd" >
<svg xmlns="http://www.w3.org/2000/svg" xmlns:xlink="http://www.w3.org/1999/xlink" version="1.1" viewBox="-10 0 1010 1000">
   <path fill="currentColor"
d="M767 229v-101h-203v101h203zM838 74v210h-342v-210h342zM380 635l-57 16c-2 -16 -6 -36 -11 -58c-195 30 -225 37 -243 47c-3 -15 -15 -50 -23 -68c21 -4 43 -29 72 -66c14 -18 46 -60 81 -114c-101 12 -122 16 -136 23c-4 -15 -15 -47 -24 -65c18 -4 34 -25 53 -56
c20 -30 87 -144 124 -251l67 27c-41 95 -94 190 -147 267l103 -9c26 -43 51 -90 72 -135l62 36c-62 116 -139 233 -217 326l142 -20c-9 -34 -18 -68 -29 -99l54 -12c23 68 49 157 57 211zM87 683l61 10c-12 92 -30 193 -52 257c-14 -5 -43 -15 -59 -20
c25 -65 41 -161 50 -247zM182 688l54 -9c13 72 24 163 27 224l-58 11c-1 -62 -12 -155 -23 -226zM271 672l49 -14c20 53 41 123 49 168l-52 17c-8 -46 -28 -117 -46 -171zM576 484v-105h-114v105h114zM751 380v104h120v-104h-120zM941 678h-192c54 74 137 145 215 179
c-15 13 -37 38 -49 56c-79 -44 -163 -129 -217 -215v253h-69v-249c-57 90 -145 172 -233 214c-12 -16 -32 -41 -48 -55c85 -34 173 -106 227 -183h-188v-63h242v-77h-225v-213h232v213h56v-213h239v213h-233v77h243v63z" />
</svg>
