<?xml version="1.0" standalone="no"?>
<!DOCTYPE svg PUBLIC "-//W3C//DTD SVG 1.1//EN" "http://www.w3.org/Graphics/SVG/1.1/DTD/svg11.dtd" >
<svg xmlns="http://www.w3.org/2000/svg" xmlns:xlink="http://www.w3.org/1999/xlink" version="1.1" viewBox="-10 0 1010 1000">
   <path fill="currentColor"
d="M925 397l-46 14c-2 -13 -5 -29 -9 -47c-130 19 -152 25 -164 32c-3 -12 -11 -38 -17 -50c15 -3 29 -15 46 -34c10 -10 29 -35 52 -66c-65 11 -82 16 -91 21c-4 -12 -12 -39 -18 -51c12 -3 22 -13 32 -30c11 -15 49 -79 67 -140l52 22c-21 50 -49 100 -75 139l65 -8
c12 -19 24 -38 34 -58l48 23c-39 61 -83 122 -127 170l84 -11c-3 -15 -9 -32 -14 -46l43 -9c17 42 32 96 38 129zM686 398l-42 13c-2 -13 -5 -30 -9 -48c-117 20 -140 24 -152 31c-3 -11 -11 -37 -16 -50c14 -2 28 -15 45 -33c8 -10 27 -34 49 -64c-55 9 -71 13 -80 18
c-3 -11 -11 -39 -17 -51c11 -3 21 -13 32 -29c11 -14 49 -77 68 -137l50 22c-20 49 -48 97 -74 135l52 -6c11 -18 22 -36 30 -55l49 23c-36 59 -78 118 -120 165l74 -10c-4 -12 -8 -26 -11 -38l40 -10c14 40 28 92 32 124zM351 638l-54 16c-2 -16 -5 -36 -9 -57
c-175 26 -204 32 -220 42c-3 -14 -13 -45 -20 -63c18 -4 39 -30 66 -67c13 -18 42 -61 74 -117c-92 11 -114 16 -126 22c-3 -13 -14 -44 -21 -60c16 -4 31 -26 49 -56c19 -30 80 -147 113 -256l62 25c-38 95 -86 195 -135 273l93 -9c23 -44 47 -91 66 -138l59 31
c-58 119 -127 238 -200 335l127 -17c-8 -36 -18 -74 -29 -106l50 -11c24 70 47 160 55 213zM87 682l56 9c-11 92 -29 192 -51 255c-12 -5 -38 -14 -54 -18c24 -65 39 -159 49 -246zM176 688l50 -8c12 75 24 170 26 235l-52 10c-1 -65 -12 -162 -24 -237zM258 670l46 -12
c21 61 45 142 54 194l-49 15c-9 -53 -31 -135 -51 -197zM446 860h512v60h-577v-840h65v345h487v57h-487v378zM931 826l-46 14c-2 -11 -5 -26 -8 -41c-130 19 -153 26 -166 33c-2 -12 -11 -38 -16 -50c14 -3 28 -16 46 -36c10 -10 33 -39 58 -75c-70 12 -87 16 -97 21
c-3 -11 -11 -37 -18 -50c12 -2 22 -11 31 -26c10 -15 48 -74 64 -131l51 20c-20 46 -45 91 -70 127l70 -9c10 -16 20 -33 29 -50l47 22c-38 63 -82 125 -126 174l86 -11c-5 -18 -10 -36 -16 -52l43 -10c16 42 32 97 38 130zM687 833l-42 14c-2 -13 -5 -30 -9 -48
c-118 19 -140 24 -152 31c-3 -12 -11 -38 -16 -50c14 -3 28 -16 46 -36c9 -10 33 -38 57 -73c-63 10 -79 15 -89 19c-3 -11 -12 -37 -17 -50c11 -1 21 -10 31 -25c11 -14 48 -72 66 -127l50 20c-20 44 -46 87 -71 122l62 -7c9 -16 17 -32 25 -47l48 22
c-37 61 -80 122 -123 169l73 -9c-4 -14 -8 -27 -11 -39l41 -10c13 40 27 93 31 124z" />
</svg>
