<?xml version="1.0" standalone="no"?>
<!DOCTYPE svg PUBLIC "-//W3C//DTD SVG 1.1//EN" "http://www.w3.org/Graphics/SVG/1.1/DTD/svg11.dtd" >
<svg xmlns="http://www.w3.org/2000/svg" xmlns:xlink="http://www.w3.org/1999/xlink" version="1.1" viewBox="-10 0 1010 1000">
   <path fill="currentColor"
d="M951 262h-166c-21 82 -47 157 -79 216c-8 -14 -32 -48 -46 -62c49 -93 79 -233 96 -370l70 12c-7 47 -16 93 -25 139h150v65zM931 501l-54 34c-22 -51 -67 -132 -105 -193l52 -29c39 60 85 138 107 188zM443 397v87h87v-87h-87zM530 132h-87v81h87v-81zM602 347v-84h-159
v84h159zM682 484v58h-299v-469h288v59h-87v81h70v184h-70v87h98zM366 637l-56 16c-2 -17 -6 -36 -10 -58c-186 28 -215 34 -231 44c-3 -14 -14 -46 -22 -64c20 -4 41 -29 69 -67c15 -18 44 -61 78 -116c-97 11 -118 16 -131 23c-4 -14 -15 -46 -22 -62c16 -4 32 -25 50 -56
c20 -29 83 -145 118 -253l63 26c-39 95 -89 192 -139 268l99 -9c24 -43 49 -89 68 -135l59 34c-60 116 -133 235 -209 330l137 -19c-8 -35 -18 -72 -29 -103l53 -12c24 70 49 160 55 213zM87 682l59 10c-12 92 -30 193 -52 258c-12 -7 -41 -16 -57 -21
c25 -64 41 -160 50 -247zM181 688l54 -9c12 72 24 163 27 225l-57 10c-2 -62 -12 -154 -24 -226zM270 671l48 -14c20 54 41 123 49 168l-51 16c-8 -46 -28 -117 -46 -170zM477 653v214h84v-214h-84zM699 653h-86v214h86v-214zM837 653h-86v214h86v-214zM903 867h54v64h-617
v-64h74v-275h489v275z" />
</svg>
