<?xml version="1.0" standalone="no"?>
<!DOCTYPE svg PUBLIC "-//W3C//DTD SVG 1.1//EN" "http://www.w3.org/Graphics/SVG/1.1/DTD/svg11.dtd" >
<svg xmlns="http://www.w3.org/2000/svg" xmlns:xlink="http://www.w3.org/1999/xlink" version="1.1" viewBox="-10 0 1010 1000">
   <path fill="currentColor"
d="M316 831l58 20c-51 40 -136 80 -206 104c-11 -12 -33 -33 -48 -44c70 -20 151 -47 196 -80zM616 860l46 -34c70 23 162 60 212 86l-46 39c-49 -27 -141 -67 -212 -91zM249 421v43h522v-43h-522zM249 345v40h522v-40h-522zM249 269v39h522v-39h-522zM946 598h-220
c65 43 154 79 236 98c-15 12 -34 35 -43 52c-97 -29 -208 -86 -280 -150h-163l31 27c-44 27 -90 48 -136 65l120 -2c43 -20 87 -40 129 -63l31 41c-87 43 -177 80 -269 110l324 -18c-21 -16 -43 -31 -64 -43l49 -25c58 32 127 85 162 120l-50 30c-12 -12 -27 -27 -46 -42
l-208 12v80c0 33 -6 46 -32 55c-24 9 -62 9 -121 9c-4 -18 -15 -37 -23 -53c46 1 81 1 92 1c12 -1 15 -5 15 -14v-74c-220 14 -251 17 -271 24c-2 -10 -10 -38 -15 -52c25 -2 60 -10 102 -24c20 -6 58 -19 105 -38c-88 3 -105 6 -116 10v-5c-4 -13 -11 -35 -15 -48
c15 -1 32 -5 51 -12c20 -7 84 -36 134 -71h-91c-69 60 -162 112 -280 154c-9 -16 -27 -40 -40 -50c90 -28 165 -64 224 -104h-211v-52h276c15 -14 28 -27 39 -41h-194v-277h141c-7 -20 -23 -49 -38 -74h-68c-29 39 -61 75 -94 102c-14 -10 -42 -27 -60 -36
c63 -46 118 -117 149 -191l65 17c-8 20 -18 40 -29 59h246v49h-134c11 20 23 40 29 55l-59 19h210c-16 -9 -38 -20 -53 -26c49 -42 88 -107 108 -172l71 14c-7 21 -15 41 -25 61h299v49h-174c13 17 25 35 31 48l-62 24c-8 -19 -27 -47 -44 -72h-76c-17 28 -35 53 -54 74h287
v277h-392c-10 14 -22 27 -34 41h528v52z" />
</svg>
