<?xml version="1.0" standalone="no"?>
<!DOCTYPE svg PUBLIC "-//W3C//DTD SVG 1.1//EN" "http://www.w3.org/Graphics/SVG/1.1/DTD/svg11.dtd" >
<svg xmlns="http://www.w3.org/2000/svg" xmlns:xlink="http://www.w3.org/1999/xlink" version="1.1" viewBox="-10 0 1010 1000">
   <path fill="currentColor"
d="M943 543l-43 14c-2 -13 -5 -30 -9 -47c-114 18 -137 24 -149 31c-2 -11 -11 -39 -17 -52c15 -3 29 -22 47 -49c11 -16 36 -59 62 -111c-63 10 -80 13 -90 19c-3 -11 -11 -38 -18 -53c13 -2 23 -18 34 -42c12 -22 51 -114 68 -197l52 21c-20 72 -50 147 -80 206l59 -6
c10 -23 19 -46 27 -69l49 25c-36 84 -83 171 -131 241l75 -10c-6 -20 -11 -42 -17 -61l41 -12c15 49 33 111 40 152zM670 314v-108h-80v108h80zM670 474v-109h-80v109h80zM543 546l-43 12c-2 -14 -5 -32 -9 -50c-111 20 -133 26 -145 33c-3 -12 -12 -40 -19 -54
c15 -3 29 -22 46 -50c9 -15 33 -58 57 -110c-60 10 -77 15 -86 21c-3 -13 -12 -41 -19 -56c12 -2 22 -19 33 -41c11 -23 47 -112 63 -194l54 21c-19 72 -49 146 -78 204l56 -8c10 -21 19 -45 25 -67l51 25c-34 84 -79 171 -125 240l77 -11c-6 -24 -12 -47 -18 -69l42 -11
c14 46 27 103 35 145v-373h46c8 -35 18 -79 21 -111l64 12c-11 32 -22 69 -31 99h82v374h-182zM327 636l-51 14c-1 -14 -4 -31 -7 -49c-158 24 -185 30 -200 38c-3 -13 -13 -45 -21 -60c18 -5 36 -31 61 -69c11 -17 37 -61 64 -116c-79 10 -99 15 -110 21
c-4 -13 -14 -44 -21 -59c14 -4 28 -26 42 -57c16 -31 67 -148 90 -255l60 23c-27 95 -67 195 -109 274l78 -7c20 -44 41 -93 58 -140l59 30c-49 117 -113 240 -178 336l115 -14c-9 -38 -19 -76 -30 -110l49 -9c23 69 46 158 51 209zM87 683l58 9c-12 93 -30 193 -52 257
c-13 -6 -40 -15 -56 -19c25 -65 40 -161 50 -247zM171 689l53 -8c12 71 23 164 26 227l-56 9c-1 -63 -12 -156 -23 -228zM250 671l48 -13c17 48 36 110 43 150l-51 16c-7 -41 -24 -104 -40 -153zM935 667h-229c64 77 163 156 247 195c-16 13 -36 37 -48 54
c-79 -47 -174 -133 -238 -220v259h-68v-248c-63 85 -156 165 -241 208c-11 -17 -32 -42 -47 -55c92 -37 191 -113 254 -193h-204v-63h238v-61h68v61h268v63z" />
</svg>
