<?xml version="1.0" standalone="no"?>
<!DOCTYPE svg PUBLIC "-//W3C//DTD SVG 1.1//EN" "http://www.w3.org/Graphics/SVG/1.1/DTD/svg11.dtd" >
<svg xmlns="http://www.w3.org/2000/svg" xmlns:xlink="http://www.w3.org/1999/xlink" version="1.1" viewBox="-10 0 1010 1000">
   <path fill="currentColor"
d="M756 282l-39 -15c17 -32 40 -82 50 -114l48 17c-20 41 -41 83 -59 112zM508 174l39 -14c22 32 41 75 49 104l-41 16c-7 -29 -27 -72 -47 -106zM469 135v161h164v-161h-164zM846 296v-161h-159v161h159zM942 498v55h-554v-55h241v-54h-214v-52h214v-46h-219v-261h498v261
h-215v46h217v52h-217v54h249zM811 582l51 -22c35 36 76 89 95 123l-53 27c-18 -35 -58 -89 -93 -128zM796 673l-55 19c-10 -29 -34 -74 -57 -108l51 -16c25 32 49 75 61 105zM462 567l56 11c-18 47 -46 101 -83 134l-50 -31c32 -26 63 -70 77 -114zM368 637l-56 16
c-2 -17 -6 -36 -10 -58c-188 27 -217 34 -233 44c-3 -14 -14 -46 -22 -63c20 -4 42 -30 70 -68c14 -18 46 -61 81 -117c-101 12 -122 17 -135 24c-4 -14 -15 -45 -22 -62c17 -4 33 -25 51 -56c20 -29 86 -145 122 -253l63 26c-41 95 -92 192 -144 268l103 -9
c26 -43 50 -89 71 -135l59 35c-62 116 -137 235 -215 328l138 -18c-8 -35 -18 -71 -29 -103l53 -11c24 69 49 159 55 212zM87 682l59 10c-12 92 -30 193 -52 258c-13 -7 -41 -16 -57 -21c25 -65 41 -161 50 -247zM181 688l54 -9c12 73 24 166 26 228l-57 10
c-1 -63 -11 -156 -23 -229zM270 670l49 -13c19 55 40 125 48 172l-51 16c-8 -47 -29 -120 -46 -175zM701 791v80h254v59h-601v-59h278v-80h-214v-56h214v-59l-42 11c-4 -29 -17 -72 -31 -105l53 -11c15 32 29 74 33 102l-4 1h60v61h196v56h-196z" />
</svg>
