<?xml version="1.0" standalone="no"?>
<!DOCTYPE svg PUBLIC "-//W3C//DTD SVG 1.1//EN" "http://www.w3.org/Graphics/SVG/1.1/DTD/svg11.dtd" >
<svg xmlns="http://www.w3.org/2000/svg" xmlns:xlink="http://www.w3.org/1999/xlink" version="1.1" viewBox="-10 0 1010 1000">
   <path fill="currentColor"
d="M863 403v-94h-152v94h152zM863 552v-94h-152v94h152zM863 704v-96h-152v96h152zM649 251h87c5 -32 11 -71 15 -106h-129v-62h326v62h-127c-8 36 -15 74 -21 106h128v511h-279v-511zM352 625l-53 15c-2 -15 -5 -33 -10 -53c-178 35 -206 42 -222 52
c-3 -14 -14 -45 -21 -61c19 -4 39 -30 67 -67c14 -18 45 -63 79 -121c-98 13 -119 18 -132 25c-3 -14 -14 -46 -22 -63c16 -4 31 -25 48 -55c20 -29 80 -144 111 -252l64 26c-36 94 -83 192 -132 268l97 -9c23 -42 45 -86 63 -130l52 26v-36h115v-137h67v137h119v64h-119
v135h95v65h-260v-65h98v-135h-115v-10c-56 111 -124 222 -194 311l131 -22c-8 -32 -17 -64 -27 -93l50 -11c23 64 44 147 51 196zM83 682l53 9c-11 85 -28 179 -49 239c-12 -6 -37 -13 -51 -17c24 -62 38 -150 47 -231zM168 692l50 -11c12 68 24 154 27 212l-53 12
c-1 -58 -13 -146 -24 -213zM256 676l47 -14c23 61 49 140 60 192l-50 16c-10 -52 -36 -133 -57 -194zM549 602h-113v173h113v-173zM610 839h-174v54h-60v-354h234v300zM697 771l63 32c-41 56 -107 119 -165 154c-12 -13 -35 -33 -51 -44c60 -35 123 -94 153 -142zM809 799
l54 -27c40 47 85 110 105 152l-56 32c-19 -43 -64 -110 -103 -157z" />
</svg>
