<?xml version="1.0" standalone="no"?>
<!DOCTYPE svg PUBLIC "-//W3C//DTD SVG 1.1//EN" "http://www.w3.org/Graphics/SVG/1.1/DTD/svg11.dtd" >
<svg xmlns="http://www.w3.org/2000/svg" xmlns:xlink="http://www.w3.org/1999/xlink" version="1.1" viewBox="-10 0 1010 1000">
   <path fill="currentColor"
d="M365 637l-54 16c-2 -17 -6 -36 -11 -58c-186 27 -215 34 -231 44c-3 -15 -14 -47 -22 -63c19 -5 40 -31 68 -68c14 -18 44 -61 77 -116c-96 12 -116 16 -129 23c-4 -14 -15 -45 -22 -63c16 -4 31 -24 49 -54c19 -30 80 -146 113 -254l64 25c-37 95 -86 193 -136 271
l98 -10c23 -42 47 -90 66 -135l60 34c-58 116 -131 235 -205 329l137 -19c-9 -35 -18 -71 -29 -103l51 -10c24 69 48 158 56 211zM87 682l57 10c-12 91 -29 192 -52 257c-12 -6 -39 -16 -55 -19c25 -65 41 -161 50 -248zM179 688l52 -9c12 72 23 164 26 226l-54 9
c-2 -62 -13 -154 -24 -226zM648 327v74h110v-74h-110zM849 561h-111v75h111v-75zM849 759v-78h-111v78h111zM561 681v78h113v-78h-113zM561 561v75h113v-75h-113zM674 457h-207c-3 153 -21 354 -97 494c-13 -11 -42 -29 -58 -35c15 -29 28 -58 39 -90l-42 13
c-8 -45 -28 -114 -45 -168l47 -13c16 47 36 108 45 151c40 -131 45 -280 45 -395v-279h259c-15 -26 -35 -55 -54 -77l64 -24c27 30 55 71 70 101h202v61h-475v205h119v-74h-80v-54h80v-61h62v61h110v-61h62v61h77v54h-77v74h128v56h-210v56h172v294h-408v-294h172v-56z
M605 821l58 34c-46 38 -118 78 -175 100c-9 -12 -30 -31 -45 -42c59 -22 127 -60 162 -92zM743 854l46 -31c57 31 124 70 164 99l-59 33c-35 -29 -97 -70 -151 -101z" />
</svg>
