<?xml version="1.0" standalone="no"?>
<!DOCTYPE svg PUBLIC "-//W3C//DTD SVG 1.1//EN" "http://www.w3.org/Graphics/SVG/1.1/DTD/svg11.dtd" >
<svg xmlns="http://www.w3.org/2000/svg" xmlns:xlink="http://www.w3.org/1999/xlink" version="1.1" viewBox="-10 0 1010 1000">
   <path fill="currentColor"
d="M366 637l-55 16c-2 -17 -6 -37 -10 -58c-187 27 -216 34 -233 44c-3 -15 -13 -47 -21 -65c18 -5 40 -30 68 -67c13 -18 43 -60 75 -114c-94 11 -115 15 -128 22c-3 -14 -14 -47 -22 -64c17 -4 32 -24 51 -55c19 -29 80 -146 115 -254l64 25c-37 96 -87 195 -137 271
l93 -8c25 -44 48 -91 68 -138l61 34c-58 118 -131 238 -205 332l138 -19c-9 -35 -19 -71 -29 -103l52 -11c23 69 48 159 55 212zM87 682l57 10c-11 91 -29 192 -52 257c-12 -6 -39 -16 -55 -20c25 -65 40 -161 50 -247zM179 688l52 -9c12 72 23 164 26 226l-54 8
c-2 -61 -13 -153 -24 -225zM264 670l47 -12c19 53 40 121 48 165l-50 16c-8 -45 -28 -115 -45 -169zM461 245v255c0 135 -11 327 -79 456c-11 -11 -39 -29 -55 -35c65 -122 71 -294 71 -422v-310h214v-146h70v54h242v49h-242v43h209l10 -3l42 10c-9 48 -22 104 -32 139
l-54 -10c6 -21 11 -51 16 -80h-198v51l140 -11l3 44l-143 12v17c0 20 5 22 34 22h102c21 0 26 -6 28 -51c14 7 35 14 52 18c-6 63 -23 79 -72 79h-117c-71 0 -89 -12 -89 -68v-12l-119 10l-3 -45l122 -10v-56h-152zM571 589v47h101v-47h-101zM571 504v45h101v-45h-101z
M822 549v-45h-95v45h95zM822 636v-47h-95v47h95zM514 678v-215h368v215h-368zM539 766v110h74v-110h-74zM734 766h-74v110h74v-110zM857 766h-76v110h76v-110zM910 876h44v57h-518v-57h51v-159h423v159z" />
</svg>
