<?xml version="1.0" standalone="no"?>
<!DOCTYPE svg PUBLIC "-//W3C//DTD SVG 1.1//EN" "http://www.w3.org/Graphics/SVG/1.1/DTD/svg11.dtd" >
<svg xmlns="http://www.w3.org/2000/svg" xmlns:xlink="http://www.w3.org/1999/xlink" version="1.1" viewBox="-10 0 1010 1000">
   <path fill="currentColor"
d="M942 260l-53 25c-19 -44 -61 -114 -94 -166l50 -21c36 52 77 119 97 162zM710 256l-37 42c-13 -22 -37 -51 -63 -79c-19 39 -43 74 -70 101c-9 -9 -35 -25 -49 -34c60 -55 96 -140 112 -238l57 7c-7 41 -17 78 -29 113c31 29 63 64 79 88zM523 203l-25 48
c-12 -12 -31 -29 -51 -44c-18 43 -41 80 -67 110c-11 -10 -36 -26 -50 -34c54 -56 87 -141 101 -236l59 8c-6 36 -14 70 -24 102c22 16 44 34 57 46zM343 639l-53 15c-3 -15 -6 -34 -11 -55c-167 26 -194 32 -211 40c-2 -13 -12 -44 -20 -60c19 -5 37 -31 63 -69
c12 -18 39 -61 69 -116c-85 10 -105 15 -117 21c-4 -13 -14 -44 -21 -60c15 -3 28 -25 45 -56c17 -30 72 -147 99 -255l61 23c-30 96 -75 194 -119 272l84 -7c21 -44 43 -92 60 -138l58 31c-52 117 -117 238 -185 333l122 -16c-9 -35 -19 -72 -29 -104l49 -12
c24 70 47 162 56 213zM83 682l56 9c-12 92 -29 192 -51 257c-13 -6 -39 -15 -55 -18c25 -66 40 -162 50 -248zM167 688l51 -8c13 72 23 165 26 228l-54 8c-1 -62 -11 -155 -23 -228zM246 672l47 -12c18 51 38 118 46 161l-49 15c-7 -44 -26 -112 -44 -164zM709 792v35
c18 -21 35 -45 50 -70c-18 -95 -28 -221 -33 -370h-104v67h82v51h-82v66h79v51h-79v67h86v51h-86v65zM509 387v434l57 -7v-427h-57zM869 444l56 26c-21 110 -56 205 -101 287c16 74 36 115 62 117c15 1 26 -46 31 -120c12 17 37 36 48 44c-19 125 -51 160 -82 159
c-49 -2 -82 -46 -107 -125c-38 53 -81 98 -130 133c-8 -11 -27 -28 -40 -37c30 -23 59 -48 85 -79c-130 23 -265 45 -362 60l-10 -60c38 -5 84 -11 135 -18v-91h-94v-51h94v-67h-88v-51h88v-67h-91v-51h91v-66h-130v-63h400c-2 -86 -3 -180 -4 -279h67c-1 100 0 193 2 279
h167v63h-165c4 104 10 195 18 270c26 -64 47 -135 60 -213z" />
</svg>
