<?xml version="1.0" standalone="no"?>
<!DOCTYPE svg PUBLIC "-//W3C//DTD SVG 1.1//EN" "http://www.w3.org/Graphics/SVG/1.1/DTD/svg11.dtd" >
<svg xmlns="http://www.w3.org/2000/svg" xmlns:xlink="http://www.w3.org/1999/xlink" version="1.1" viewBox="-10 0 1010 1000">
   <path fill="currentColor"
d="M940 77v53h-277v-53h277zM632 77v53h-256v-53h256zM347 638l-53 15c-2 -16 -5 -36 -10 -56c-170 26 -199 33 -215 42c-3 -14 -14 -46 -22 -63c20 -3 39 -30 66 -67c12 -18 41 -61 71 -116c-88 11 -109 15 -121 22c-4 -14 -15 -45 -22 -61c16 -4 31 -26 47 -56
c18 -30 75 -148 105 -255l62 24c-33 95 -79 195 -125 272l89 -8c23 -44 46 -92 64 -138l58 32c-54 117 -123 238 -194 333l126 -17c-9 -36 -20 -72 -31 -105l50 -11c24 70 48 160 55 213zM87 682l57 10c-12 91 -30 192 -52 257c-12 -7 -39 -16 -55 -19
c25 -65 40 -161 50 -248zM172 688l52 -8c12 72 23 165 26 228l-55 8c-1 -62 -12 -155 -23 -228zM253 670l47 -12c19 52 39 119 47 163l-50 16c-7 -45 -26 -114 -44 -167zM448 557v26c0 16 0 33 -1 51h102v-77h-101zM549 445h-101v65h101v-65zM703 510v-65h-98v65h98z
M865 557h-106v77h106v-77zM605 634h98v-77h-98v77zM786 889h91c22 0 26 -9 29 -77c12 8 34 16 51 20c-6 86 -23 108 -74 108h-102c-67 0 -83 -16 -83 -75v-184h-159v63h132v50h-132v88l131 -28c-1 15 1 39 2 52c-152 36 -177 45 -192 54c-4 -15 -15 -40 -23 -52
c11 -6 25 -18 25 -54v-173h-38c-7 93 -27 197 -76 275c-10 -11 -38 -29 -54 -35c64 -101 72 -238 72 -339v-192h249c-6 -14 -12 -28 -18 -41h-46v-131h-132v131h-52v-179h238v171l48 -13l5 10v-168h242v179h-55v-131h-134v131h-48c7 14 13 28 18 41h250v55h-192v65h165v171
h-168v86c48 -17 101 -42 136 -60l34 40c-50 26 -116 50 -170 65v53c0 21 4 24 30 24zM468 252l41 -12c13 28 30 63 36 85l-41 15c-7 -24 -22 -61 -36 -88zM845 325l-43 16c-8 -25 -24 -63 -39 -91l40 -13c17 29 34 65 42 88z" />
</svg>
