<?xml version="1.0" standalone="no"?>
<!DOCTYPE svg PUBLIC "-//W3C//DTD SVG 1.1//EN" "http://www.w3.org/Graphics/SVG/1.1/DTD/svg11.dtd" >
<svg xmlns="http://www.w3.org/2000/svg" xmlns:xlink="http://www.w3.org/1999/xlink" version="1.1" viewBox="-10 0 1010 1000">
   <path fill="currentColor"
d="M742 473c-2 -11 -10 -37 -16 -51c14 -3 28 -20 46 -46c9 -11 29 -43 51 -81c-55 6 -71 10 -81 14c-3 -11 -11 -37 -17 -49c11 -3 21 -18 31 -39c10 -22 45 -105 58 -183l50 25c-19 65 -45 134 -74 188l58 -4c15 -26 28 -56 38 -84l46 27c-34 75 -78 152 -123 214l76 -15
c-5 -16 -12 -30 -19 -44l41 -11c21 36 41 87 47 118l-44 15c-2 -11 -5 -23 -10 -37c-122 27 -146 34 -158 43zM879 489l36 -10c23 45 41 103 45 138l-39 14c-4 -37 -22 -97 -42 -142zM875 640l-41 11c1 -39 -9 -101 -22 -148l38 -7c15 48 25 109 25 144zM544 386v-45h160v45
h-160zM705 252v45h-160v-45h160zM588 471v86h72v-86h-72zM543 604v-180h165v180h-165zM750 723l-43 40c-30 -34 -94 -83 -148 -114l42 -37c53 30 118 76 149 111zM754 493l45 9c-10 53 -26 111 -47 149c-9 -6 -28 -17 -40 -22c21 -38 34 -88 42 -136zM666 141l-53 12
c-6 -27 -23 -66 -39 -96l51 -9c16 29 34 68 41 93zM723 154v48h-206v-48h206zM524 451l-40 14c-2 -8 -4 -17 -7 -26c-115 25 -136 33 -149 40c-2 -11 -10 -36 -17 -49c15 -3 29 -21 46 -46c9 -13 29 -45 52 -86c-55 6 -72 10 -82 14c-3 -11 -11 -38 -18 -50
c12 -3 21 -18 32 -40c10 -21 46 -103 60 -179l51 25c-18 64 -47 133 -76 187l57 -4c12 -25 24 -53 34 -80l47 27c-33 74 -75 150 -120 213l68 -14c-6 -15 -13 -30 -20 -44l39 -11c18 36 37 81 43 109zM460 639l-40 10c0 -36 -9 -96 -22 -142l38 -7c14 47 24 104 24 139z
M344 502l44 8c-5 54 -15 112 -30 151c-8 -6 -27 -16 -39 -21c16 -39 21 -89 25 -138zM321 627l-49 13c-2 -14 -4 -29 -7 -46c-149 28 -175 35 -190 45c-3 -13 -12 -43 -20 -59c17 -5 35 -31 58 -68c11 -19 35 -62 62 -118c-77 10 -96 15 -107 21c-4 -14 -14 -45 -22 -61
c15 -3 27 -26 41 -56c15 -30 63 -148 84 -256l61 24c-25 94 -64 195 -102 274l73 -7c18 -43 37 -90 52 -136l57 27c-44 116 -104 238 -166 333l107 -16c-9 -35 -19 -70 -29 -100l46 -10c23 64 45 147 51 196zM92 682l51 9c-11 85 -28 178 -49 239c-11 -6 -36 -13 -49 -17
c23 -62 37 -150 47 -231zM169 692l49 -11c11 66 22 150 24 206l-51 11c-2 -56 -11 -141 -22 -206zM244 674l46 -14c22 56 44 128 54 174l-49 17c-9 -48 -31 -121 -51 -177zM389 925l-55 -30c39 -47 69 -126 86 -186l55 20c-19 64 -46 145 -86 196zM458 496l35 -11
c19 38 37 88 42 118l-37 15c-6 -32 -21 -84 -40 -122zM612 891h117c28 0 33 -11 36 -96c14 10 40 20 57 23c-7 105 -25 132 -87 132h-130c-77 0 -96 -18 -96 -84v-178h63v178c0 21 6 25 40 25zM788 722l54 -24c50 60 101 141 122 196l-58 28c-20 -56 -70 -139 -118 -200z
" />
</svg>
