<?xml version="1.0" standalone="no"?>
<!DOCTYPE svg PUBLIC "-//W3C//DTD SVG 1.1//EN" "http://www.w3.org/Graphics/SVG/1.1/DTD/svg11.dtd" >
<svg xmlns="http://www.w3.org/2000/svg" xmlns:xlink="http://www.w3.org/1999/xlink" version="1.1" viewBox="-10 0 1010 1000">
   <path fill="currentColor"
d="M229 604l249 -34c-1 20 0 51 3 65c-317 48 -358 57 -383 69c-4 -15 -15 -51 -24 -71c25 -4 54 -27 95 -61c24 -20 80 -72 141 -137c-171 17 -201 23 -219 31c-3 -16 -16 -52 -25 -73c22 -5 44 -26 74 -59c32 -32 133 -156 199 -279l72 35c-68 105 -146 209 -224 291
l185 -14c27 -33 55 -67 79 -100l62 45c-87 108 -186 209 -284 292zM90 906l-12 -74c102 -15 257 -43 408 -71l3 68c-142 28 -291 56 -399 77z" />
</svg>
