<?xml version="1.0" standalone="no"?>
<!DOCTYPE svg PUBLIC "-//W3C//DTD SVG 1.1//EN" "http://www.w3.org/Graphics/SVG/1.1/DTD/svg11.dtd" >
<svg xmlns="http://www.w3.org/2000/svg" xmlns:xlink="http://www.w3.org/1999/xlink" version="1.1" viewBox="-10 0 1010 1000">
   <path fill="currentColor"
d="M174 599l213 -39c-2 18 -2 47 0 61c-263 54 -298 63 -319 75c-4 -14 -14 -46 -22 -64c22 -4 45 -28 77 -65c19 -20 62 -74 108 -141c-131 18 -155 25 -169 32c-4 -15 -15 -50 -24 -67c18 -4 37 -28 58 -62c23 -33 97 -162 140 -283l65 30c-45 107 -105 215 -166 301
l141 -14c21 -35 43 -71 62 -106l57 35c-66 110 -143 218 -221 307zM62 895l-14 -71c88 -17 222 -48 353 -78l7 63c-124 31 -251 62 -346 86zM957 429v71h-239v360c0 44 -9 67 -38 79c-30 13 -78 14 -150 14c-4 -21 -14 -53 -25 -74c54 2 105 2 120 1c15 0 20 -5 20 -21v-359
h-243v-71h243v-260h-207v-71h483v71h-203v260h239z" />
</svg>
