<?xml version="1.0" standalone="no"?>
<!DOCTYPE svg PUBLIC "-//W3C//DTD SVG 1.1//EN" "http://www.w3.org/Graphics/SVG/1.1/DTD/svg11.dtd" >
<svg xmlns="http://www.w3.org/2000/svg" xmlns:xlink="http://www.w3.org/1999/xlink" version="1.1" viewBox="-10 0 1010 1000">
   <path fill="currentColor"
d="M177 599l234 -35c-1 20 0 49 3 63c-284 47 -320 55 -343 67c-4 -15 -15 -48 -23 -67c22 -5 46 -28 79 -64c18 -20 60 -70 108 -134c-132 15 -156 19 -171 27c-4 -15 -16 -50 -25 -70c19 -4 38 -26 61 -61c25 -32 102 -159 148 -278l70 30c-49 105 -112 215 -175 299
l137 -12c23 -36 47 -73 67 -109l62 37c-70 110 -150 219 -232 307zM55 897l-12 -72c95 -15 241 -42 380 -68l5 64c-133 28 -271 55 -373 76zM745 635l-55 47c-36 -61 -118 -153 -192 -216l51 -43c74 63 159 150 196 212zM583 226h337s-1 28 -1 38c-13 448 -26 598 -63 646
c-22 28 -44 37 -79 40c-32 4 -90 2 -145 -1c-1 -21 -9 -51 -23 -71c63 5 119 5 142 5c19 1 29 -2 40 -15c31 -33 45 -181 56 -573h-292c-26 56 -54 106 -83 146c-14 -11 -44 -31 -62 -40c69 -87 123 -222 156 -357l70 13c-14 58 -32 115 -53 169z" />
</svg>
