<?xml version="1.0" standalone="no"?>
<!DOCTYPE svg PUBLIC "-//W3C//DTD SVG 1.1//EN" "http://www.w3.org/Graphics/SVG/1.1/DTD/svg11.dtd" >
<svg xmlns="http://www.w3.org/2000/svg" xmlns:xlink="http://www.w3.org/1999/xlink" version="1.1" viewBox="-10 0 1010 1000">
   <path fill="currentColor"
d="M185 596l215 -39c-2 20 -1 48 0 64c-266 54 -302 64 -323 75c-3 -13 -15 -47 -23 -65c22 -4 45 -29 75 -64c18 -21 61 -74 106 -140c-127 17 -150 24 -164 31c-4 -14 -16 -49 -23 -68c17 -4 35 -28 57 -62c23 -34 97 -164 139 -286l67 32c-45 106 -104 216 -165 303
l131 -14c19 -32 39 -67 57 -100l59 36c-61 106 -134 211 -208 297zM397 745l7 64c-119 31 -244 62 -337 85l-14 -71c86 -18 216 -47 344 -78zM632 250h198c-4 368 14 611 62 612c10 0 17 -30 21 -81c12 16 38 37 50 45c-18 98 -48 125 -73 125c-106 -2 -129 -243 -132 -629
h-128c-4 82 -12 163 -26 237c55 34 105 69 137 99l-39 62c-27 -27 -67 -58 -113 -88c-33 129 -89 242 -186 322c-13 -18 -37 -41 -58 -54c95 -75 149 -183 179 -309c-39 -25 -80 -47 -118 -65l37 -53c31 14 63 30 95 48c10 -63 17 -130 20 -199h-152v-72h154
c2 -68 2 -136 2 -206h73c0 70 -1 138 -3 206z" />
</svg>
