<?xml version="1.0" standalone="no"?>
<!DOCTYPE svg PUBLIC "-//W3C//DTD SVG 1.1//EN" "http://www.w3.org/Graphics/SVG/1.1/DTD/svg11.dtd" >
<svg xmlns="http://www.w3.org/2000/svg" xmlns:xlink="http://www.w3.org/1999/xlink" version="1.1" viewBox="-10 0 1010 1000">
   <path fill="currentColor"
d="M166 602l212 -38c-2 18 -1 45 0 59c-258 52 -292 61 -313 73c-3 -14 -14 -45 -21 -63c20 -3 44 -29 75 -65c18 -19 61 -74 107 -140c-129 16 -153 23 -167 30c-4 -15 -15 -48 -24 -67c18 -4 35 -28 54 -62c22 -33 90 -163 126 -283l65 31c-40 105 -95 214 -150 301
l139 -15c20 -33 41 -69 59 -103l57 34c-65 110 -142 220 -219 308zM55 893l-14 -69c86 -17 213 -46 338 -75l7 60c-117 30 -240 60 -331 84zM959 529h-240v333h222v70h-515v-70h219v-333h-235v-70h235v-284c-68 13 -137 23 -203 31c-3 -17 -13 -44 -22 -60
c159 -21 342 -57 442 -99l63 54c-58 23 -130 42 -206 59v299h240v70z" />
</svg>
