<?xml version="1.0" standalone="no"?>
<!DOCTYPE svg PUBLIC "-//W3C//DTD SVG 1.1//EN" "http://www.w3.org/Graphics/SVG/1.1/DTD/svg11.dtd" >
<svg xmlns="http://www.w3.org/2000/svg" xmlns:xlink="http://www.w3.org/1999/xlink" version="1.1" viewBox="-10 0 1010 1000">
   <path fill="currentColor"
d="M495 293v140h-70v-207h245c-17 -42 -54 -106 -88 -153l60 -29c36 46 74 107 91 148l-61 34h257v204h-73v-137h-361zM179 595l208 -38c-2 18 -2 44 0 59c-253 50 -285 60 -305 71c-3 -13 -14 -45 -22 -62c22 -4 46 -29 77 -66c18 -19 57 -69 100 -132
c-124 12 -148 18 -162 24c-3 -14 -14 -48 -21 -65c16 -4 34 -28 54 -62c23 -33 95 -162 135 -279l66 25c-46 107 -104 217 -162 303l132 -10c24 -38 48 -79 69 -119l57 31c-67 117 -147 229 -226 320zM68 895l-14 -68c84 -19 211 -54 337 -89l7 60c-117 35 -239 70 -330 97z
M400 805h548v73h-548v-73z" />
</svg>
