<?xml version="1.0" standalone="no"?>
<!DOCTYPE svg PUBLIC "-//W3C//DTD SVG 1.1//EN" "http://www.w3.org/Graphics/SVG/1.1/DTD/svg11.dtd" >
<svg xmlns="http://www.w3.org/2000/svg" xmlns:xlink="http://www.w3.org/1999/xlink" version="1.1" viewBox="-10 0 1010 1000">
   <path fill="currentColor"
d="M813 483v-298h-300v298h300zM889 114v440h-449v-440h449zM180 602l220 -41c-2 20 -2 49 0 65c-273 54 -307 63 -329 77c-4 -15 -15 -49 -24 -68c22 -4 46 -28 77 -65c19 -20 61 -71 106 -136c-128 17 -152 23 -166 29c-4 -15 -16 -50 -25 -70c19 -5 36 -28 58 -62
c24 -33 98 -163 139 -284l71 33c-46 107 -106 217 -168 303l135 -14c24 -35 46 -73 66 -109l61 36c-66 110 -142 217 -221 306zM396 747l8 65c-123 30 -250 61 -346 86l-14 -74c88 -17 222 -47 352 -77zM511 651l77 17c-35 112 -93 218 -159 288c-14 -11 -47 -33 -65 -43
c65 -63 117 -160 147 -262zM737 674l67 -25c54 85 113 198 136 269l-73 29c-22 -71 -78 -186 -130 -273z" />
</svg>
