<?xml version="1.0" standalone="no"?>
<!DOCTYPE svg PUBLIC "-//W3C//DTD SVG 1.1//EN" "http://www.w3.org/Graphics/SVG/1.1/DTD/svg11.dtd" >
<svg xmlns="http://www.w3.org/2000/svg" xmlns:xlink="http://www.w3.org/1999/xlink" version="1.1" viewBox="-10 0 1010 1000">
   <path fill="currentColor"
d="M845 88l74 25c-34 75 -75 164 -108 221l-58 -23c31 -60 72 -156 92 -223zM575 308l-67 30c-11 -56 -48 -145 -86 -213l62 -25c39 66 77 153 91 208zM171 597l198 -36c-2 19 -2 48 0 64c-250 50 -284 60 -304 72c-4 -15 -15 -49 -24 -67c22 -5 45 -30 75 -67
c19 -20 58 -71 102 -135c-121 17 -145 23 -159 30c-4 -16 -16 -51 -25 -70c18 -4 35 -29 57 -62c23 -33 93 -164 132 -284l69 32c-43 106 -100 216 -159 302l129 -14c21 -36 44 -73 62 -110l61 38c-63 109 -138 218 -214 307zM59 893l-14 -71c85 -17 213 -46 338 -75l6 64
c-117 30 -238 60 -330 82zM955 603v70h-253v284h-72v-284h-234v-70h234v-166h-204v-69h204v-324h72v324h218v69h-218v166h253z" />
</svg>
