<?xml version="1.0" standalone="no"?>
<!DOCTYPE svg PUBLIC "-//W3C//DTD SVG 1.1//EN" "http://www.w3.org/Graphics/SVG/1.1/DTD/svg11.dtd" >
<svg xmlns="http://www.w3.org/2000/svg" xmlns:xlink="http://www.w3.org/1999/xlink" version="1.1" viewBox="-10 0 1010 1000">
   <path fill="currentColor"
d="M167 605l170 -28c0 19 2 45 5 60c-223 41 -255 50 -273 61c-4 -15 -16 -49 -24 -68c21 -5 44 -29 73 -65c17 -18 56 -68 98 -132c-115 14 -137 19 -152 26c-4 -15 -16 -51 -25 -70c17 -5 34 -29 53 -63c20 -33 85 -163 119 -283l72 27c-39 108 -92 221 -147 309l122 -11
c21 -34 41 -69 59 -104l62 37c-62 108 -137 216 -212 304zM366 757l7 64c-111 27 -227 52 -315 74l-14 -72c83 -14 203 -40 322 -66zM597 573h101v-129h-98v21c0 38 -1 73 -3 108zM439 573h92c2 -35 3 -70 3 -108v-21h-78c-5 44 -11 89 -17 129zM600 245v132h98v-132h-98z
M848 245h-81v132h81v-132zM767 573h175s0 17 -1 27c-6 150 -13 209 -30 229c-11 15 -24 21 -44 23c-14 2 -40 3 -65 1c-1 -19 -6 -43 -14 -60c22 4 41 4 50 4c10 0 15 -2 20 -9c9 -11 14 -49 19 -147h-110v314h-69v-314h-108c-17 124 -63 233 -177 319
c-12 -14 -38 -36 -54 -47c103 -74 146 -166 163 -272h-158c13 -70 29 -179 36 -264h134v-132h-140v-68h140v-134h66v134h98v-134h69v134h145v267h-145v129z" />
</svg>
