<?xml version="1.0" standalone="no"?>
<!DOCTYPE svg PUBLIC "-//W3C//DTD SVG 1.1//EN" "http://www.w3.org/Graphics/SVG/1.1/DTD/svg11.dtd" >
<svg xmlns="http://www.w3.org/2000/svg" xmlns:xlink="http://www.w3.org/1999/xlink" version="1.1" viewBox="-10 0 1010 1000">
   <path fill="currentColor"
d="M65 696v-4c-5 -16 -14 -44 -21 -60c21 -4 44 -30 74 -66c19 -21 59 -73 103 -137c-123 16 -147 22 -161 29c-4 -15 -15 -49 -24 -68c18 -4 35 -28 57 -62c21 -33 93 -163 133 -284l68 31c-45 106 -102 216 -161 303l129 -14c22 -34 43 -72 61 -108l59 34
c-64 110 -137 220 -214 309l197 -36c-2 19 -2 47 -1 62c-241 50 -278 59 -298 70v1v-1zM55 902l-14 -72c79 -16 200 -44 318 -70l8 63c-111 29 -225 56 -312 79zM696 623v103h260v67h-260v163h-73v-163h-253v-67h253v-103h-203v-66h203v-87h73v87h209v66h-209zM816 164h-287
c35 54 81 103 137 144c60 -41 111 -90 150 -144zM873 94l46 25c-44 90 -113 166 -195 227c77 46 166 80 262 100c-16 15 -35 43 -46 63c-102 -26 -195 -67 -276 -122c-85 54 -180 95 -273 122c-8 -18 -25 -46 -38 -60c87 -22 176 -58 255 -104c-60 -52 -112 -112 -151 -181
h-62v-67h466z" />
</svg>
