<?xml version="1.0" standalone="no"?>
<!DOCTYPE svg PUBLIC "-//W3C//DTD SVG 1.1//EN" "http://www.w3.org/Graphics/SVG/1.1/DTD/svg11.dtd" >
<svg xmlns="http://www.w3.org/2000/svg" xmlns:xlink="http://www.w3.org/1999/xlink" version="1.1" viewBox="-10 0 1010 1000">
   <path fill="currentColor"
d="M163 599l149 -30c0 18 2 46 5 61c-199 46 -229 56 -247 67c-3 -14 -13 -48 -22 -66c19 -4 39 -30 64 -67c15 -19 46 -69 81 -131c-94 13 -116 18 -129 25c-4 -15 -15 -50 -24 -69c17 -4 31 -28 48 -62c18 -33 74 -163 102 -282l71 25c-34 107 -81 219 -130 307l96 -9
c18 -36 34 -73 49 -110l63 34c-49 108 -111 218 -176 307zM60 894l-16 -70c68 -22 170 -59 273 -95l12 62c-94 36 -191 73 -269 103zM629 465h-87c0 50 -1 99 -6 146h123v68h-132c-18 106 -57 201 -140 280c-12 -13 -38 -36 -56 -46c73 -66 110 -146 127 -234h-120v-68h131
c5 -47 6 -96 6 -146h-102v-67h102v-144h-114v-68h114v-138h67v138h106v68h-106v144h87v67zM903 105l48 27c-28 87 -66 191 -105 296c76 96 109 167 109 233c0 58 -14 110 -45 132c-14 10 -34 17 -55 20c-24 2 -54 2 -82 0c-1 -18 -8 -45 -19 -64c28 2 58 2 75 2
c15 -1 28 -4 37 -9c18 -12 25 -48 25 -83c0 -62 -32 -124 -109 -223c34 -95 63 -187 85 -265h-116v786h-66v-849h208z" />
</svg>
