<?xml version="1.0" standalone="no"?>
<!DOCTYPE svg PUBLIC "-//W3C//DTD SVG 1.1//EN" "http://www.w3.org/Graphics/SVG/1.1/DTD/svg11.dtd" >
<svg xmlns="http://www.w3.org/2000/svg" xmlns:xlink="http://www.w3.org/1999/xlink" version="1.1" viewBox="-10 0 1010 1000">
   <path fill="currentColor"
d="M932 116v67h-320v-67h320zM505 56l62 23c-47 86 -121 177 -187 237c-7 -13 -31 -42 -44 -55c64 -52 128 -129 169 -205zM163 598l152 -36c-1 18 1 44 4 58c-200 54 -230 64 -247 76c-4 -14 -14 -44 -22 -61c20 -4 39 -30 64 -67c15 -20 46 -71 81 -134
c-96 12 -116 17 -130 24c-3 -14 -15 -47 -22 -66c16 -4 32 -27 50 -62c20 -33 83 -163 116 -284l65 29c-38 107 -89 217 -140 304l95 -9c17 -37 34 -74 49 -111l57 32c-49 107 -109 217 -172 307zM64 890l-17 -66c70 -21 173 -59 276 -96l11 58c-95 36 -193 75 -270 104z
M525 263l62 23c-20 42 -44 84 -70 125v543h-65v-451c-25 32 -49 60 -73 84c-8 -13 -30 -46 -44 -60c72 -67 145 -166 190 -264zM957 355v66h-109v449c0 39 -9 61 -37 72c-29 12 -74 13 -142 13c-4 -20 -15 -49 -26 -69c53 2 103 2 116 1c15 0 20 -4 20 -17v-449h-200v-66
h378z" />
</svg>
