<?xml version="1.0" standalone="no"?>
<!DOCTYPE svg PUBLIC "-//W3C//DTD SVG 1.1//EN" "http://www.w3.org/Graphics/SVG/1.1/DTD/svg11.dtd" >
<svg xmlns="http://www.w3.org/2000/svg" xmlns:xlink="http://www.w3.org/1999/xlink" version="1.1" viewBox="-10 0 1010 1000">
   <path fill="currentColor"
d="M789 191h-221l-4 6c26 39 62 76 106 109c47 -35 88 -73 119 -115zM847 126l44 24c-38 75 -97 139 -165 192c71 43 157 74 247 92c-15 15 -35 41 -44 60c-95 -23 -184 -61 -259 -113c-84 54 -178 94 -271 121c-7 -17 -24 -42 -37 -56c87 -22 176 -58 254 -105
c-36 -30 -68 -64 -95 -100c-29 28 -63 57 -102 82c-10 -16 -31 -40 -47 -50c106 -65 180 -155 219 -231l73 13c-14 25 -30 50 -47 75h218zM178 590l177 -43c0 20 2 48 4 63c-236 61 -268 73 -289 86c-3 -14 -14 -46 -21 -65c19 -4 42 -29 71 -66c17 -20 54 -71 95 -136
c-113 16 -137 22 -151 29c-4 -15 -15 -49 -23 -68c16 -4 35 -28 57 -62c21 -33 94 -165 134 -285l67 31c-45 106 -102 217 -162 304l116 -12c22 -37 44 -76 61 -114l60 35c-58 107 -126 214 -196 303zM63 889l-17 -69c77 -24 193 -65 306 -105l12 60
c-106 41 -216 82 -301 114zM714 603v136h223v65h-223v153h-73v-153h-249c17 -46 39 -116 53 -171l67 9c-9 31 -19 66 -29 97h158v-136h-218v-65h218v-77h73v77h195v65h-195z" />
</svg>
