<?xml version="1.0" standalone="no"?>
<!DOCTYPE svg PUBLIC "-//W3C//DTD SVG 1.1//EN" "http://www.w3.org/Graphics/SVG/1.1/DTD/svg11.dtd" >
<svg xmlns="http://www.w3.org/2000/svg" xmlns:xlink="http://www.w3.org/1999/xlink" version="1.1" viewBox="-10 0 1010 1000">
   <path fill="currentColor"
d="M724 160l-68 29c-13 -34 -44 -87 -74 -124l63 -26c33 36 65 86 79 121zM944 190v69h-556v-69h556zM718 319l52 -39c65 61 141 148 175 205l-56 46c-31 -59 -106 -149 -171 -212zM523 285l67 30c-46 79 -112 164 -179 222c-12 -13 -35 -33 -52 -45
c65 -53 129 -137 164 -207zM173 601l190 -31c-3 18 -3 47 -2 61c-238 45 -271 54 -292 65c-4 -15 -14 -49 -23 -68c21 -4 45 -29 74 -64c19 -20 59 -71 103 -135c-121 16 -145 21 -160 29c-3 -16 -15 -52 -24 -71c18 -4 34 -27 56 -61c21 -34 92 -163 130 -282l71 32
c-43 104 -100 214 -159 301l129 -14c21 -32 41 -68 59 -102l64 38c-64 108 -139 215 -216 302zM364 743l9 62c-111 31 -225 62 -312 86l-15 -71c80 -17 200 -47 318 -77zM762 462l71 17c-29 99 -73 186 -133 259c69 70 153 123 250 155c-18 15 -39 45 -50 66
c-97 -38 -180 -93 -249 -167c-68 69 -153 124 -252 168c-10 -17 -33 -43 -48 -56c101 -42 186 -98 253 -166c-58 -74 -103 -161 -136 -257l64 -17c28 80 68 155 120 219c50 -64 86 -138 110 -221z" />
</svg>
