<?xml version="1.0" standalone="no"?>
<!DOCTYPE svg PUBLIC "-//W3C//DTD SVG 1.1//EN" "http://www.w3.org/Graphics/SVG/1.1/DTD/svg11.dtd" >
<svg xmlns="http://www.w3.org/2000/svg" xmlns:xlink="http://www.w3.org/1999/xlink" version="1.1" viewBox="-10 0 1010 1000">
   <path fill="currentColor"
d="M945 518l-62 36c-10 -21 -24 -46 -40 -73c-361 34 -403 39 -430 51c-4 -18 -18 -57 -25 -72c18 -5 44 -12 62 -31c23 -21 94 -112 138 -174h-180v-67h241c-10 -34 -35 -88 -54 -128l68 -19c22 40 48 95 60 127l-63 20h284v67h-269c-42 59 -99 136 -143 190l274 -23
c-21 -32 -44 -65 -66 -94l58 -29c53 70 118 163 147 219zM182 591l187 -37c-2 20 -1 50 2 65c-247 54 -280 64 -301 77c-4 -15 -16 -51 -24 -71c20 -5 44 -29 75 -66c18 -19 57 -69 99 -131c-119 17 -142 22 -157 30c-4 -17 -17 -55 -26 -77c18 -4 37 -27 58 -60
c24 -33 98 -161 141 -281l76 35c-47 104 -107 212 -168 298l121 -13c23 -35 44 -73 63 -109l66 39c-62 108 -137 214 -212 301zM368 731l12 65c-111 36 -228 73 -317 102l-17 -74c80 -21 202 -57 322 -93zM511 529h73c-8 224 -39 351 -220 424c-8 -18 -28 -47 -45 -59
c162 -61 185 -168 192 -365zM795 872h68c21 0 25 -19 28 -138c15 14 45 25 64 30c-6 136 -23 172 -84 172h-87c-70 0 -87 -22 -87 -94v-314h73v314c0 26 3 30 25 30z" />
</svg>
