<?xml version="1.0" standalone="no"?>
<!DOCTYPE svg PUBLIC "-//W3C//DTD SVG 1.1//EN" "http://www.w3.org/Graphics/SVG/1.1/DTD/svg11.dtd" >
<svg xmlns="http://www.w3.org/2000/svg" xmlns:xlink="http://www.w3.org/1999/xlink" version="1.1" viewBox="-10 0 1010 1000">
   <path fill="currentColor"
d="M175 601l182 -32c-2 20 -3 47 -1 63c-232 47 -263 56 -283 67c-3 -14 -15 -50 -23 -69c20 -4 41 -27 69 -62c17 -20 56 -73 99 -138c-117 15 -140 21 -153 28c-4 -16 -16 -51 -25 -71c18 -4 35 -27 57 -60c22 -34 92 -162 131 -282l71 33c-44 104 -101 213 -160 299
l119 -13c15 -28 30 -56 44 -83l64 37c-56 101 -123 201 -191 283zM356 757l8 62c-108 28 -219 56 -303 77l-14 -71c78 -16 194 -42 309 -68zM458 561h155c1 -14 1 -26 1 -40v-57h-156v97zM458 312v95h156v-95h-156zM850 312h-165v95h165v-95zM850 561v-97h-165v58
c0 13 0 26 -1 39h166zM921 621h-241c-8 62 -27 122 -67 174c90 53 209 84 356 96c-17 16 -34 47 -44 67c-148 -17 -268 -52 -360 -112c-54 46 -132 87 -245 115c-9 -17 -28 -45 -43 -60c108 -24 181 -58 231 -99c-44 -39 -79 -87 -107 -144l66 -18c21 45 51 83 88 115
c31 -41 47 -87 54 -134h-218v-369h223v-80h-248v-65h585v65h-266v80h236v369z" />
</svg>
