<?xml version="1.0" standalone="no"?>
<!DOCTYPE svg PUBLIC "-//W3C//DTD SVG 1.1//EN" "http://www.w3.org/Graphics/SVG/1.1/DTD/svg11.dtd" >
<svg xmlns="http://www.w3.org/2000/svg" xmlns:xlink="http://www.w3.org/1999/xlink" version="1.1" viewBox="-10 0 1010 1000">
   <path fill="currentColor"
d="M817 271v-131h-275v131h275zM888 80v251h-414v-251h414zM58 897l-13 -72c84 -17 211 -46 338 -75l6 64c-117 30 -239 60 -331 83zM140 376l125 -14c23 -36 44 -74 64 -112l64 38c-65 110 -141 220 -219 311l209 -39c-2 20 -2 48 0 63c-259 52 -293 62 -314 74
c-4 -15 -15 -49 -23 -68c20 -4 44 -29 75 -66c18 -20 58 -70 101 -134c-121 17 -146 23 -160 29c-4 -15 -15 -53 -24 -72c18 -4 36 -28 59 -62c23 -33 98 -163 141 -285l71 33c-46 107 -107 218 -169 304zM510 716h336v-94h-336v94zM846 471h-336v90h336v-90zM919 405v463
c0 39 -9 59 -37 71c-29 11 -75 12 -145 12c-4 -19 -14 -47 -25 -66c54 2 102 2 115 1c15 -1 19 -5 19 -18v-91h-336v180h-70v-552h479z" />
</svg>
