<?xml version="1.0" standalone="no"?>
<!DOCTYPE svg PUBLIC "-//W3C//DTD SVG 1.1//EN" "http://www.w3.org/Graphics/SVG/1.1/DTD/svg11.dtd" >
<svg xmlns="http://www.w3.org/2000/svg" xmlns:xlink="http://www.w3.org/1999/xlink" version="1.1" viewBox="-10 0 1010 1000">
   <path fill="currentColor"
d="M170 600l212 -39c-2 18 -1 47 0 62c-261 53 -296 62 -317 73c-3 -13 -15 -47 -22 -65c20 -4 44 -29 76 -66c18 -20 59 -72 106 -138c-128 18 -152 24 -166 31c-4 -15 -16 -50 -25 -70c18 -4 35 -27 55 -62c21 -32 89 -163 126 -283l68 32c-40 106 -96 215 -153 302
l137 -13c22 -36 44 -73 63 -109l61 36c-66 111 -143 219 -221 309zM380 745l7 63c-117 30 -240 60 -332 83l-14 -71c86 -17 213 -46 339 -75zM785 658h149s-1 20 -2 30c-12 156 -24 220 -47 244c-16 17 -33 23 -60 25c-22 1 -68 1 -116 -2c-1 -19 -8 -44 -19 -62
c46 5 91 5 107 5s25 -1 34 -8c14 -14 23 -59 32 -170h-129v-1h-32c10 -33 21 -78 30 -121h-119c-14 171 -52 292 -196 361c-8 -16 -28 -41 -43 -52c128 -59 159 -163 169 -309h-111v-65h380c-7 40 -17 86 -27 125zM953 301h-181c50 68 126 132 195 166c-14 13 -37 38 -48 54
c-74 -42 -152 -120 -204 -199v186h-68v-184c-56 85 -141 160 -222 202c-10 -16 -32 -41 -48 -55c79 -34 160 -99 213 -170h-180v-64h237v-89c-69 8 -138 13 -203 15c-2 -16 -12 -41 -19 -57c150 -9 332 -27 429 -55l51 54c-53 15 -119 27 -190 35v97h238v64z" />
</svg>
