<?xml version="1.0" standalone="no"?>
<!DOCTYPE svg PUBLIC "-//W3C//DTD SVG 1.1//EN" "http://www.w3.org/Graphics/SVG/1.1/DTD/svg11.dtd" >
<svg xmlns="http://www.w3.org/2000/svg" xmlns:xlink="http://www.w3.org/1999/xlink" version="1.1" viewBox="-10 0 1010 1000">
   <path fill="currentColor"
d="M868 58l43 55c-127 41 -337 63 -508 72c-2 -17 -10 -41 -18 -57c167 -11 372 -33 483 -70zM813 406l-54 -27c27 -52 65 -137 83 -198l64 30c-28 66 -64 145 -93 195zM709 356l-62 20c-6 -41 -28 -108 -50 -158l58 -15c24 49 47 113 54 153zM530 384l-63 20
c-9 -43 -35 -113 -63 -165l60 -18c29 52 57 121 66 163zM173 599l203 -38c-1 19 -1 47 1 62c-256 54 -290 64 -310 75c-3 -13 -13 -46 -22 -64c21 -4 45 -29 77 -65c20 -21 63 -75 110 -142c-133 17 -158 23 -172 30c-3 -15 -15 -49 -23 -66c18 -4 34 -29 56 -63
c22 -32 95 -163 135 -282l67 30c-44 105 -102 216 -162 302l142 -16c22 -33 43 -68 62 -104l59 36c-66 108 -143 217 -223 305zM386 740l9 61c-119 34 -244 67 -337 92l-14 -69c85 -19 214 -52 342 -84zM775 572h-179c-20 42 -42 83 -61 118c48 19 95 42 140 64
c46 -48 78 -108 100 -182zM956 572h-112c-21 87 -56 158 -106 215c70 38 133 76 179 111l-50 55c-47 -37 -110 -77 -181 -117c-75 58 -174 98 -305 123c-6 -20 -21 -45 -34 -61c117 -18 206 -50 274 -98c-58 -29 -119 -57 -179 -83c25 -39 54 -91 81 -145h-142v-66h172
c19 -42 36 -84 48 -122l70 10c-12 36 -28 74 -44 112h329v66z" />
</svg>
