<?xml version="1.0" standalone="no"?>
<!DOCTYPE svg PUBLIC "-//W3C//DTD SVG 1.1//EN" "http://www.w3.org/Graphics/SVG/1.1/DTD/svg11.dtd" >
<svg xmlns="http://www.w3.org/2000/svg" xmlns:xlink="http://www.w3.org/1999/xlink" version="1.1" viewBox="-10 0 1010 1000">
   <path fill="currentColor"
d="M628 248v-59h-222v-59h222v-81h70v81h234v59h-234v59h210v56h-210v67h256v56h-575v-56h249v-67h-191v-56h191zM902 778h-71v-230h-328v230h-68v-289h467v289zM170 602l210 -38c-2 18 -2 46 0 59c-257 52 -289 61 -311 73c-2 -14 -13 -46 -21 -63c20 -5 44 -29 74 -65
c19 -21 60 -74 105 -139c-126 15 -151 22 -164 29c-4 -15 -15 -49 -24 -67c18 -4 35 -28 58 -62c22 -33 97 -164 139 -284l67 31c-46 106 -106 217 -167 304l132 -15c23 -34 44 -71 62 -107l58 34c-64 110 -140 221 -218 310zM383 749l6 62c-117 29 -238 59 -330 83l-13 -70
c84 -16 211 -46 337 -75zM695 607v77c0 89 -34 201 -318 275c-9 -16 -28 -42 -43 -56c269 -59 293 -155 293 -222v-74h68zM688 839l34 -48c79 29 184 75 238 109l-36 54c-53 -35 -155 -85 -236 -115z" />
</svg>
