<?xml version="1.0" standalone="no"?>
<!DOCTYPE svg PUBLIC "-//W3C//DTD SVG 1.1//EN" "http://www.w3.org/Graphics/SVG/1.1/DTD/svg11.dtd" >
<svg xmlns="http://www.w3.org/2000/svg" xmlns:xlink="http://www.w3.org/1999/xlink" version="1.1" viewBox="-10 0 1010 1000">
   <path fill="currentColor"
d="M934 318v61h-552v-61h239v-109h-192v-61h192v-104h71v104h193v61h-193v109h242zM704 438l36 -45c74 31 171 80 221 113l-38 51c-49 -34 -145 -86 -219 -119zM167 600l174 -30c-2 18 -3 47 -2 62c-219 44 -251 54 -270 64c-4 -14 -15 -49 -23 -67c19 -4 41 -30 69 -66
c17 -20 52 -70 90 -131c-106 15 -129 19 -143 26c-4 -15 -15 -53 -24 -72c17 -4 33 -28 53 -61c19 -34 84 -162 118 -281l72 32c-38 105 -91 215 -146 301l109 -11c20 -36 40 -74 57 -111l63 36c-57 110 -126 220 -197 309zM61 896l-16 -71c74 -19 184 -50 295 -83l11 63
c-102 32 -207 66 -290 91zM545 394l61 27c-58 51 -141 111 -205 148c-10 -12 -35 -39 -49 -51c65 -33 142 -80 193 -124zM781 616h-215c-6 7 -13 13 -18 20c26 49 63 93 109 129c52 -40 94 -89 124 -149zM829 556l43 23c-35 93 -90 166 -158 224c69 42 153 72 247 87
c-16 15 -35 44 -45 62c-99 -20 -186 -57 -259 -107c-79 53 -171 89 -268 113c-6 -18 -25 -47 -37 -61c93 -20 178 -51 251 -95c-41 -36 -75 -77 -103 -124c-30 24 -63 47 -100 68c-9 -15 -31 -38 -46 -48c119 -60 197 -149 236 -224l69 12c-12 24 -28 49 -46 73h188v-1h14z
" />
</svg>
