<?xml version="1.0" standalone="no"?>
<!DOCTYPE svg PUBLIC "-//W3C//DTD SVG 1.1//EN" "http://www.w3.org/Graphics/SVG/1.1/DTD/svg11.dtd" >
<svg xmlns="http://www.w3.org/2000/svg" xmlns:xlink="http://www.w3.org/1999/xlink" version="1.1" viewBox="-10 0 1010 1000">
   <path fill="currentColor"
d="M863 486l-58 -16c13 -31 30 -74 44 -117h-449v-65h218v-89h-180v-63h180v-92h73v92h191v63h-191v89h184l12 -3l48 13c-22 66 -47 141 -72 188zM632 479l-37 42c-25 -29 -77 -67 -121 -93l34 -36c44 24 98 60 124 87zM401 518l37 -38c45 26 100 64 127 92l-37 43
c-26 -29 -81 -70 -127 -97zM177 589l173 -42c0 18 2 47 4 61c-232 63 -264 75 -284 88c-3 -14 -14 -45 -21 -63c20 -4 42 -29 71 -67c18 -20 55 -72 96 -137c-114 16 -138 22 -152 29c-4 -15 -14 -48 -23 -67c17 -4 35 -27 57 -61c22 -33 95 -164 135 -285l65 31
c-45 105 -102 215 -161 302l118 -12c21 -37 43 -74 60 -112l58 34c-58 107 -126 214 -196 301zM349 714l12 60c-104 42 -213 83 -298 115l-17 -70c76 -23 191 -65 303 -105zM935 694h-247c-35 96 -113 191 -282 265c-9 -17 -29 -43 -44 -55c142 -60 213 -135 250 -210h-231
v-66h254c10 -40 12 -80 12 -118v-118h69v119c0 38 -2 77 -10 117h229v66zM687 772l46 -40c77 52 174 129 220 180l-47 47c-45 -52 -140 -132 -219 -187z" />
</svg>
