<?xml version="1.0" standalone="no"?>
<!DOCTYPE svg PUBLIC "-//W3C//DTD SVG 1.1//EN" "http://www.w3.org/Graphics/SVG/1.1/DTD/svg11.dtd" >
<svg xmlns="http://www.w3.org/2000/svg" xmlns:xlink="http://www.w3.org/1999/xlink" version="1.1" viewBox="-10 0 1010 1000">
   <path fill="currentColor"
d="M871 78l72 24c-43 70 -96 152 -141 204l-55 -23c42 -54 95 -143 124 -205zM59 894l-18 -67c76 -24 191 -66 303 -107l13 61c-105 40 -214 82 -298 113zM134 378l117 -12c20 -36 40 -72 58 -108l58 33c-57 106 -126 213 -196 301l177 -44c0 19 2 46 4 60
c-235 64 -267 76 -286 88c-3 -13 -14 -45 -22 -62c21 -4 42 -30 72 -66c16 -21 54 -73 96 -138c-115 15 -139 21 -152 28c-4 -15 -15 -47 -23 -66c18 -4 35 -27 58 -62c22 -33 98 -162 140 -284l65 31c-47 105 -106 214 -166 301zM558 275l-61 30
c-22 -54 -72 -138 -116 -199l58 -26c47 60 96 141 119 195zM724 563h-134v152h134v-152zM781 774h-191v52h-57v-322h248v270zM927 352v521c0 40 -10 59 -36 70c-30 11 -78 11 -154 11c-3 -18 -13 -44 -22 -62c59 1 111 1 125 1c16 -1 21 -6 21 -20v-454h-408v538h-67v-605
h233v-309h73v309h235z" />
</svg>
