<?xml version="1.0" standalone="no"?>
<!DOCTYPE svg PUBLIC "-//W3C//DTD SVG 1.1//EN" "http://www.w3.org/Graphics/SVG/1.1/DTD/svg11.dtd" >
<svg xmlns="http://www.w3.org/2000/svg" xmlns:xlink="http://www.w3.org/1999/xlink" version="1.1" viewBox="-10 0 1010 1000">
   <path fill="currentColor"
d="M816 240v-93h-337v93h337zM816 393v-96h-337v96h337zM887 86v368h-476v-368h476zM60 890l-16 -69c81 -19 201 -50 321 -82l10 61c-112 32 -227 65 -315 90zM137 378l130 -13c19 -30 36 -60 52 -91l59 36c-61 103 -133 206 -206 290l183 -33c-2 18 -2 47 0 62
c-235 47 -266 57 -287 69c-3 -15 -14 -47 -22 -65c20 -5 44 -28 73 -63c19 -20 62 -75 108 -143c-127 18 -149 24 -164 31c-3 -16 -16 -51 -24 -71c18 -3 35 -26 55 -61c22 -32 94 -160 133 -279l69 31c-44 105 -101 215 -159 300zM487 860l157 -34c1 20 5 47 8 63
c-196 47 -229 57 -248 68v1v-1l-1 1v-6c-5 -20 -15 -50 -25 -67c16 -6 38 -15 38 -49v-347h71v122h153v65h-153v184zM776 879h90c24 0 28 -17 31 -114c15 12 43 23 62 27c-7 118 -26 150 -87 150h-105c-74 0 -92 -22 -92 -95v-362h70v157c57 -27 115 -59 151 -86l51 53
c-60 34 -134 67 -202 94v143c0 28 4 33 31 33z" />
</svg>
