<?xml version="1.0" standalone="no"?>
<!DOCTYPE svg PUBLIC "-//W3C//DTD SVG 1.1//EN" "http://www.w3.org/Graphics/SVG/1.1/DTD/svg11.dtd" >
<svg xmlns="http://www.w3.org/2000/svg" xmlns:xlink="http://www.w3.org/1999/xlink" version="1.1" viewBox="-10 0 1010 1000">
   <path fill="currentColor"
d="M822 74l63 20c-26 46 -62 104 -92 142c-13 -10 -41 -24 -58 -31c31 -36 63 -86 87 -131zM563 189l-55 33c-20 -31 -58 -84 -89 -122l54 -27c32 36 71 87 90 116zM167 600l167 -29c-2 19 -2 47 0 62c-215 44 -246 52 -265 63c-3 -15 -15 -49 -23 -67c20 -4 41 -30 70 -66
c16 -20 51 -70 90 -131c-107 14 -130 19 -143 26c-4 -16 -16 -53 -25 -73c17 -4 33 -27 53 -60c20 -34 84 -162 119 -281l71 32c-38 105 -91 214 -146 301l109 -11c20 -36 40 -74 57 -111l63 36c-56 109 -126 220 -197 309zM60 896l-15 -72c75 -15 188 -43 299 -70l8 63
c-103 29 -209 57 -292 79zM940 470h-114c37 62 89 120 141 152c-16 12 -38 36 -49 53c-61 -44 -124 -125 -164 -205h-168c-17 33 -37 65 -60 93h275v159c0 33 -6 49 -30 60c-23 10 -61 10 -116 10c-2 -19 -11 -41 -20 -58c43 1 76 1 86 0c11 -1 14 -3 14 -12v-98h-183v223
c0 29 9 36 61 36h182c43 0 50 -15 55 -110c16 11 43 22 63 26c-9 118 -31 148 -113 148h-191c-97 0 -125 -20 -125 -100v-235c-28 29 -60 55 -94 78c-10 -13 -38 -41 -54 -53c72 -43 126 -99 170 -167h-136v-64h170c15 -31 28 -64 38 -99h-164v-62h182
c14 -62 25 -128 33 -202l72 6c-9 71 -20 136 -34 196h225v62h-241c-10 35 -22 68 -35 99h324v64z" />
</svg>
