<?xml version="1.0" standalone="no"?>
<!DOCTYPE svg PUBLIC "-//W3C//DTD SVG 1.1//EN" "http://www.w3.org/Graphics/SVG/1.1/DTD/svg11.dtd" >
<svg xmlns="http://www.w3.org/2000/svg" xmlns:xlink="http://www.w3.org/1999/xlink" version="1.1" viewBox="-10 0 1010 1000">
   <path fill="currentColor"
d="M471 233v103h-69v-166h249c-10 -34 -28 -77 -48 -112l66 -19c24 40 50 94 58 128l-9 3h227v166h-72v-103h-402zM170 600l207 -33c0 18 2 46 4 61c-258 47 -294 54 -314 66c-4 -14 -15 -48 -24 -67c22 -3 45 -27 75 -62c18 -20 60 -71 106 -135c-126 14 -149 19 -164 26
c-4 -15 -16 -50 -25 -69c19 -4 36 -28 57 -61c24 -32 96 -159 139 -279l70 30c-45 105 -105 214 -164 298l131 -12c19 -30 38 -62 55 -93l60 37c-62 105 -138 209 -213 293zM377 746l7 64c-117 30 -239 60 -330 83l-14 -71c85 -16 213 -47 337 -76zM717 659v208
c23 5 49 6 75 6c22 0 135 0 166 -1c-10 17 -21 49 -23 69h-146c-128 0 -222 -31 -281 -175c-22 76 -56 143 -108 194c-10 -17 -32 -39 -48 -50c94 -87 116 -247 124 -385h70c-3 48 -8 96 -16 144c26 95 65 146 115 174v-408h-207v-66h476v66h-197v158h191v66h-191z" />
</svg>
