<?xml version="1.0" standalone="no"?>
<!DOCTYPE svg PUBLIC "-//W3C//DTD SVG 1.1//EN" "http://www.w3.org/Graphics/SVG/1.1/DTD/svg11.dtd" >
<svg xmlns="http://www.w3.org/2000/svg" xmlns:xlink="http://www.w3.org/1999/xlink" version="1.1" viewBox="-10 0 1010 1000">
   <path fill="currentColor"
d="M173 597l138 -36c0 18 3 45 5 57c-190 55 -219 66 -236 78c-3 -14 -14 -44 -21 -62c19 -4 38 -29 62 -66c16 -20 50 -75 86 -142c-101 13 -122 18 -135 24c-4 -14 -14 -46 -23 -63c16 -4 31 -28 49 -61c18 -32 77 -159 106 -276l65 28c-33 102 -81 211 -130 295l100 -11
c15 -32 30 -66 43 -98l58 32c-47 104 -106 212 -167 301zM73 890l-17 -66c68 -22 168 -63 267 -102l13 58c-92 39 -188 79 -263 110zM528 330v53c30 46 96 151 111 178l-43 64c-12 -31 -41 -91 -68 -142v473h-64v-461c-26 88 -59 168 -94 220c-12 -15 -33 -38 -49 -50
c55 -70 106 -205 136 -335h-109v-68h116v-213h64v213h98v68h-98zM708 825h153v-183h-153v183zM861 152h-153v176h153v-176zM861 575v-180h-153v180h153zM643 84h285v861h-67v-52h-153v60h-65v-869z" />
</svg>
