<?xml version="1.0" standalone="no"?>
<!DOCTYPE svg PUBLIC "-//W3C//DTD SVG 1.1//EN" "http://www.w3.org/Graphics/SVG/1.1/DTD/svg11.dtd" >
<svg xmlns="http://www.w3.org/2000/svg" xmlns:xlink="http://www.w3.org/1999/xlink" version="1.1" viewBox="-10 0 1010 1000">
   <path fill="currentColor"
d="M819 242v-106h-295v106h295zM891 74v230h-436v-230h436zM171 597l188 -37c-1 19 -2 47 0 62c-240 52 -273 62 -293 74c-4 -15 -15 -49 -24 -68c22 -4 45 -28 75 -65c18 -20 57 -71 100 -134c-121 16 -143 21 -158 29c-3 -16 -16 -51 -24 -71c17 -4 35 -25 55 -58
c23 -30 93 -152 133 -266l69 33c-43 97 -100 199 -156 281l123 -13c22 -36 44 -75 63 -112l61 37c-62 109 -137 219 -212 308zM56 896l-15 -72c80 -20 200 -56 318 -91l9 64c-110 35 -225 71 -312 99zM533 691v88c85 -7 182 -15 281 -24v-64h-281zM814 437h-281v75h281v-75z
M533 565v74h281v-74h-281zM951 743l-2 64l-63 6v140h-72v-133c-158 15 -312 28 -424 38l-7 -68l78 -6v-347h-73v-64h559v64h-61v312z" />
</svg>
