<?xml version="1.0" standalone="no"?>
<!DOCTYPE svg PUBLIC "-//W3C//DTD SVG 1.1//EN" "http://www.w3.org/Graphics/SVG/1.1/DTD/svg11.dtd" >
<svg xmlns="http://www.w3.org/2000/svg" xmlns:xlink="http://www.w3.org/1999/xlink" version="1.1" viewBox="-10 0 1010 1000">
   <path fill="currentColor"
d="M174 602l175 -32c-2 20 -3 47 -1 63c-223 45 -256 54 -274 66c-4 -15 -16 -50 -24 -70c20 -4 41 -28 70 -64c16 -19 55 -71 96 -135c-115 15 -137 21 -151 28c-4 -16 -16 -51 -25 -70c18 -4 35 -28 55 -62c22 -34 89 -164 126 -284l70 32c-41 106 -97 215 -154 303
l119 -13c19 -31 35 -63 51 -95l64 37c-57 105 -127 210 -197 296zM352 757l7 63c-106 28 -215 54 -298 76l-14 -72c77 -15 191 -41 305 -67zM679 590v98c0 107 -59 211 -308 270c-6 -15 -26 -45 -38 -57c234 -53 278 -133 278 -216v-95h68zM885 789h-73v-249h-341v249h-71
v-310h485v310zM665 837l34 -49c83 27 185 75 236 114l-34 55c-50 -40 -152 -90 -236 -120zM459 248h146v-85h-146v85zM816 163h-142v85h142v-85zM674 366h280v59h-604v-59h255v-65h-210v-191h210v-65h69v65h210v191h-210v65z" />
</svg>
