<?xml version="1.0" standalone="no"?>
<!DOCTYPE svg PUBLIC "-//W3C//DTD SVG 1.1//EN" "http://www.w3.org/Graphics/SVG/1.1/DTD/svg11.dtd" >
<svg xmlns="http://www.w3.org/2000/svg" xmlns:xlink="http://www.w3.org/1999/xlink" version="1.1" viewBox="-10 0 1010 1000">
   <path fill="currentColor"
d="M510 275h282c5 -40 10 -86 14 -124h-225v-63h236l12 -4l50 6c-4 60 -11 126 -19 185h91v63h-441v-63zM63 893l-17 -70c73 -22 181 -60 287 -99l12 62c-99 38 -202 77 -282 107zM469 44l70 19c-19 59 -45 123 -75 184v707h-65v-592c-17 25 -34 49 -53 70
c-9 -14 -27 -37 -41 -50c-41 75 -87 148 -134 211l154 -37c0 18 1 45 4 59c-209 57 -240 68 -257 81c-4 -15 -15 -47 -23 -66c19 -4 39 -27 65 -62c15 -20 50 -71 87 -135c-101 13 -123 18 -136 24c-4 -15 -15 -49 -24 -67c18 -4 35 -28 56 -63c22 -33 92 -163 131 -285
l66 31c-43 106 -100 219 -159 306l101 -10c16 -30 32 -63 45 -94l61 35c-9 18 -17 36 -27 54c69 -89 126 -216 154 -320zM950 698h-167c33 92 93 167 179 201c-15 13 -33 36 -44 53c-83 -39 -142 -112 -179 -205c-27 74 -83 151 -199 213c-9 -15 -30 -37 -45 -48
c125 -61 174 -140 191 -214h-182v-63h192c1 -14 1 -26 1 -39v-91h-91c-18 38 -38 74 -60 105c-12 -11 -36 -27 -52 -34c47 -62 83 -156 100 -229l65 16c-8 25 -17 52 -27 79h290v63h-159v92c0 12 0 25 -1 38h188v63z" />
</svg>
