<?xml version="1.0" standalone="no"?>
<!DOCTYPE svg PUBLIC "-//W3C//DTD SVG 1.1//EN" "http://www.w3.org/Graphics/SVG/1.1/DTD/svg11.dtd" >
<svg xmlns="http://www.w3.org/2000/svg" xmlns:xlink="http://www.w3.org/1999/xlink" version="1.1" viewBox="-10 0 1010 1000">
   <path fill="currentColor"
d="M828 223h-192v133h192v-133zM847 567h-211v162h211v-162zM570 791v-630h105c13 -37 27 -84 33 -118l80 16c-15 33 -32 71 -47 102h154v257h-259v87h278v286h-344zM512 231l-51 39c-22 -40 -71 -104 -112 -149l48 -34c44 45 92 105 115 144zM164 593l159 -39
c0 19 2 47 4 62c-213 57 -243 69 -262 80c-2 -13 -12 -43 -20 -59c19 -5 40 -30 66 -67c16 -21 51 -73 90 -138c-106 13 -128 19 -142 26c-3 -14 -14 -47 -21 -64c16 -4 31 -28 50 -62c18 -33 82 -163 115 -284l63 29c-36 105 -86 214 -139 301l109 -11
c18 -34 36 -71 51 -106l56 31c-52 105 -115 213 -179 301zM329 721l13 60c-100 38 -203 77 -284 108l-17 -67c73 -24 181 -63 288 -101zM484 380v409c18 10 36 26 64 44c49 30 107 41 186 41c64 0 166 -5 232 -13c-7 19 -16 53 -17 72c-52 4 -156 7 -216 7
c-84 0 -146 -14 -198 -48c-35 -24 -62 -50 -82 -50c-25 0 -63 54 -98 109l-47 -63c38 -45 77 -82 111 -98v-350h-87v-60h152z" />
</svg>
