<?xml version="1.0" standalone="no"?>
<!DOCTYPE svg PUBLIC "-//W3C//DTD SVG 1.1//EN" "http://www.w3.org/Graphics/SVG/1.1/DTD/svg11.dtd" >
<svg xmlns="http://www.w3.org/2000/svg" xmlns:xlink="http://www.w3.org/1999/xlink" version="1.1" viewBox="-10 0 1010 1000">
   <path fill="currentColor"
d="M171 595l183 -37c-1 19 1 47 2 62c-237 54 -270 63 -290 76c-3 -14 -14 -46 -22 -65c21 -4 43 -28 74 -66c17 -19 56 -71 100 -136c-121 16 -144 22 -158 29c-4 -15 -16 -49 -24 -69c18 -4 35 -27 57 -61c23 -33 95 -162 136 -284l68 31c-45 106 -104 216 -164 302
l126 -13c20 -35 41 -71 59 -107l59 35c-60 108 -133 214 -206 303zM59 889l-15 -69c84 -20 211 -53 336 -87l9 62c-117 33 -239 68 -330 94zM897 526v256c0 33 -5 51 -29 63c-22 11 -58 12 -108 12c-3 -19 -12 -45 -20 -64c38 1 68 1 78 1s13 -4 13 -12v-193h-134v367h-68
v-367h-122v264h-65v-327h187v-97h68v97h200zM494 214l58 -14c18 40 36 94 42 126l-61 18c-6 -34 -22 -89 -39 -130zM785 344h161v163h-69v-105h-420v105h-66v-163h330c18 -42 40 -103 50 -145h-362v-64h230c-7 -27 -17 -57 -29 -82l65 -16c16 29 30 68 37 98h219v64h-156
l63 18c-17 42 -35 90 -53 127z" />
</svg>
