<?xml version="1.0" standalone="no"?>
<!DOCTYPE svg PUBLIC "-//W3C//DTD SVG 1.1//EN" "http://www.w3.org/Graphics/SVG/1.1/DTD/svg11.dtd" >
<svg xmlns="http://www.w3.org/2000/svg" xmlns:xlink="http://www.w3.org/1999/xlink" version="1.1" viewBox="-10 0 1010 1000">
   <path fill="currentColor"
d="M173 591l150 -37c0 19 2 48 5 63c-208 56 -238 67 -257 80c-3 -14 -14 -46 -22 -63c20 -4 41 -31 68 -67c16 -21 50 -71 86 -135c-104 14 -125 19 -138 25c-4 -14 -16 -47 -23 -66c17 -4 33 -27 52 -62c20 -32 85 -163 119 -284l65 31c-38 104 -90 215 -144 302l106 -11
c19 -36 38 -75 54 -113l59 34c-52 106 -114 213 -180 303zM336 719l12 61c-100 39 -203 78 -284 110l-18 -70c73 -23 183 -62 290 -101zM573 613h103v-83h-103v83zM573 394v76h103v-76h-103zM573 263v71h103v-71h-103zM833 394h-94v76h94v-76zM833 613v-83h-94v83h94z
M894 673h-129c48 80 123 162 189 204c-15 12 -35 35 -47 52c-57 -43 -120 -116 -168 -193v219h-63v-282h-103v283h-63v-209c-43 76 -98 145 -152 188c-11 -17 -33 -42 -48 -53c66 -43 132 -125 176 -209h-103v-60h127v-83h-155v-60h155v-76h-123v-60h123v-71h-141v-61h148
c-16 -33 -50 -87 -78 -126l57 -28c30 39 65 92 82 125l-56 29h159c31 -44 69 -110 90 -156l69 29c-29 42 -60 89 -88 127h181v61h-194v71h155v136h54v60h-54v143z" />
</svg>
