<?xml version="1.0" standalone="no"?>
<!DOCTYPE svg PUBLIC "-//W3C//DTD SVG 1.1//EN" "http://www.w3.org/Graphics/SVG/1.1/DTD/svg11.dtd" >
<svg xmlns="http://www.w3.org/2000/svg" xmlns:xlink="http://www.w3.org/1999/xlink" version="1.1" viewBox="-10 0 1010 1000">
   <path fill="currentColor"
d="M709 525h-172v147h172v-147zM462 210v114h-68v-176h248c-12 -29 -27 -64 -42 -90l72 -17c17 33 39 76 52 107h212v176h-65l3 5c-89 18 -220 31 -337 37v95h360v64h-120v147h170v65h-594v-65h115v-362c128 -7 282 -23 374 -43l24 47v-104h-404zM174 596l162 -34
c-1 19 3 46 5 61c-219 52 -251 62 -270 73c-3 -13 -14 -47 -22 -65c20 -4 41 -30 71 -66c16 -20 54 -70 95 -135c-113 16 -137 21 -150 28c-4 -14 -16 -50 -24 -68c17 -4 33 -29 52 -63c21 -33 86 -162 122 -282l70 26c-39 108 -93 219 -149 306l119 -12
c20 -35 40 -72 57 -108l61 35c-58 108 -128 216 -199 304zM333 723l12 62c-99 38 -203 78 -284 108l-17 -69c73 -23 181 -62 289 -101zM545 763l62 41c-63 55 -158 113 -235 151c-9 -15 -28 -38 -41 -53c73 -34 167 -92 214 -139zM710 803l47 -43c68 43 161 106 208 145
l-49 50c-45 -40 -136 -106 -206 -152z" />
</svg>
