<?xml version="1.0" standalone="no"?>
<!DOCTYPE svg PUBLIC "-//W3C//DTD SVG 1.1//EN" "http://www.w3.org/Graphics/SVG/1.1/DTD/svg11.dtd" >
<svg xmlns="http://www.w3.org/2000/svg" xmlns:xlink="http://www.w3.org/1999/xlink" version="1.1" viewBox="-10 0 1010 1000">
   <path fill="currentColor"
d="M820 183v-63h-295v63h295zM820 291v-63h-295v63h295zM891 73v265h-433v-265h433zM874 522v-87h-104v87h104zM718 522v-87h-102v87h102zM565 522v-87h-99v87h99zM935 384v188h-528v-188h528zM173 599l191 -35c-2 20 -3 47 -1 63c-240 48 -273 58 -293 69
c-4 -15 -16 -49 -24 -68c21 -4 43 -29 74 -65c18 -19 56 -71 98 -134c-118 16 -141 22 -155 29c-4 -16 -16 -53 -24 -73c17 -4 35 -27 56 -61c22 -33 93 -160 133 -279l71 32c-43 104 -101 214 -160 299l121 -14c22 -34 42 -71 60 -107l62 37c-61 109 -135 218 -209 307z
M361 750l7 63c-109 31 -222 60 -308 84l-15 -73c80 -17 198 -45 316 -74zM811 682h-272c33 45 78 84 132 117c57 -31 105 -70 140 -117zM868 620l45 26c-39 79 -100 141 -174 188c66 30 142 52 223 65c-15 14 -34 42 -44 60c-92 -17 -175 -47 -249 -87
c-85 41 -183 69 -287 86c-6 -17 -26 -47 -39 -61c93 -13 183 -35 260 -66c-57 -41 -105 -91 -140 -149h-46v-59h439z" />
</svg>
