<?xml version="1.0" standalone="no"?>
<!DOCTYPE svg PUBLIC "-//W3C//DTD SVG 1.1//EN" "http://www.w3.org/Graphics/SVG/1.1/DTD/svg11.dtd" >
<svg xmlns="http://www.w3.org/2000/svg" xmlns:xlink="http://www.w3.org/1999/xlink" version="1.1" viewBox="-10 0 1010 1000">
   <path fill="currentColor"
d="M170 598l146 -33c-1 18 1 45 3 61c-200 49 -230 60 -247 70c-4 -13 -15 -46 -22 -64c19 -3 41 -28 68 -64c17 -20 53 -71 92 -136c-109 14 -131 19 -145 26c-4 -15 -14 -49 -22 -66c16 -4 34 -29 56 -62c21 -34 91 -163 130 -283l66 29c-44 106 -99 217 -158 303l111 -10
c19 -34 38 -71 54 -107l59 33c-56 107 -122 213 -191 303zM64 895l-16 -70c74 -24 186 -65 297 -105l12 62c-103 40 -209 81 -293 113zM472 271l66 16c-15 48 -32 98 -55 147v523h-64v-404c-20 31 -41 60 -64 84c-9 -13 -27 -37 -39 -49c74 -82 131 -212 156 -317zM852 659
v-122h-226v122h226zM626 849h226v-131h-226v131zM547 376v-61h386v61h-166c-9 34 -19 69 -28 100h180v475h-67v-41h-226v46h-65v-480h111c8 -31 16 -67 22 -100h-147zM705 140h242v147h-71v-84h-438v98h-69v-161h260c-12 -25 -26 -55 -40 -78l62 -22c19 31 41 71 54 100z
" />
</svg>
