<?xml version="1.0" standalone="no"?>
<!DOCTYPE svg PUBLIC "-//W3C//DTD SVG 1.1//EN" "http://www.w3.org/Graphics/SVG/1.1/DTD/svg11.dtd" >
<svg xmlns="http://www.w3.org/2000/svg" xmlns:xlink="http://www.w3.org/1999/xlink" version="1.1" viewBox="-10 0 1010 1000">
   <path fill="currentColor"
d="M846 235v-102h-97v102h97zM698 235v-102h-96v102h96zM550 235v-102h-92v102h92zM909 79v210h-512v-210h512zM355 400v-61h595v61h-595zM172 590l169 -42c-1 20 1 47 4 63c-227 61 -259 73 -277 85c-4 -13 -15 -46 -23 -64c20 -4 41 -30 70 -67c16 -20 52 -71 90 -135
c-109 15 -131 21 -144 28c-4 -15 -15 -48 -24 -66c18 -5 35 -28 56 -63c23 -33 93 -165 133 -287l65 29c-43 108 -101 219 -160 307l111 -11c21 -39 41 -79 59 -118l60 34c-55 108 -121 217 -189 307zM489 510v94h325v-94h-325zM885 674l49 44c-42 27 -92 55 -136 76
c44 42 99 74 162 91c-15 14 -35 40 -44 57c-131 -45 -222 -146 -272 -276c-28 28 -63 55 -100 78v122l163 -38c-2 17 -2 42 0 55c-204 53 -233 61 -251 72c-3 -16 -13 -44 -23 -60c19 -5 47 -15 47 -51v-63c-32 16 -66 31 -97 42c-9 -15 -25 -36 -39 -49l2 11
c-100 39 -203 79 -285 110l-17 -70c73 -24 182 -63 289 -101l9 45c78 -22 165 -63 227 -109h-146v-205h459v205h-179c16 34 36 67 59 96c43 -25 92 -58 123 -82z" />
</svg>
