<?xml version="1.0" standalone="no"?>
<!DOCTYPE svg PUBLIC "-//W3C//DTD SVG 1.1//EN" "http://www.w3.org/Graphics/SVG/1.1/DTD/svg11.dtd" >
<svg xmlns="http://www.w3.org/2000/svg" xmlns:xlink="http://www.w3.org/1999/xlink" version="1.1" viewBox="-10 0 1010 1000">
   <path fill="currentColor"
d="M200 707h261v-63h-198c-18 22 -39 43 -63 63zM692 322v-45h-138v45h138zM692 410v-48h-138v48h138zM692 500v-50h-138v50h138zM534 761v104h234v-81h72v173h-72v-38h-605v-133h70v79h228v-104h-402v-54h129c-14 -14 -34 -29 -50 -35c57 -41 97 -93 121 -138
c-47 23 -100 39 -157 53c-8 -13 -28 -34 -41 -45c103 -19 193 -51 249 -105c-161 18 -189 23 -206 30c-3 -11 -14 -35 -21 -47c19 -2 42 -14 67 -32c16 -9 51 -35 90 -68c-102 8 -124 12 -138 17v-2c-4 -10 -13 -34 -21 -46c13 -1 27 -9 43 -20c15 -12 68 -60 100 -107
l65 20c-31 35 -67 68 -102 95l107 -6c13 -14 27 -28 40 -42l59 25c-55 54 -116 105 -177 146l131 -12c7 -12 13 -26 17 -41l58 6c-11 -7 -22 -14 -31 -19c63 -43 121 -106 155 -175h-484v-57h411c-9 -19 -21 -38 -31 -54l66 -15c14 21 31 47 43 69h389v57h-385l55 14
c-10 20 -21 39 -33 58h112c-7 -19 -16 -38 -25 -55l60 -13c12 21 26 46 34 68h153v46h-154v45h133v40h-133v48h133v40h-133v50h174v47h-377v27h-65v-240c-15 13 -29 26 -44 37c-4 -4 -10 -8 -17 -13c-23 77 -80 131 -153 169l59 8c-10 19 -20 37 -32 56h525v53h-293v63h410
v54h-410z" />
</svg>
