<?xml version="1.0" standalone="no"?>
<!DOCTYPE svg PUBLIC "-//W3C//DTD SVG 1.1//EN" "http://www.w3.org/Graphics/SVG/1.1/DTD/svg11.dtd" >
<svg xmlns="http://www.w3.org/2000/svg" xmlns:xlink="http://www.w3.org/1999/xlink" version="1.1" viewBox="-10 0 1010 1000">
   <path fill="currentColor"
d="M734 158v-44h-201v44h201zM734 246v-46h-201v46h201zM267 200v46h196v-46h-196zM267 114v44h196v-44h-196zM808 70v220h-612v-220h612zM590 455v46h105v-46h-105zM590 367v45h105v-45h-105zM843 412v-45h-100v45h100zM843 501v-46h-100v46h100zM528 545v-222h380v222
h-380zM148 455v47h100v-47h-100zM148 368v45h100v-45h-100zM400 413v-45h-104v45h104zM400 502v-47h-104v47h104zM535 765v101h244v-78h71v167h-71v-31h-621v-138h73v80h232v-101h-398v-54h398v-66h-220c-20 21 -42 39 -63 54c-12 -11 -39 -31 -55 -40
c48 -30 91 -71 118 -114h-157v-221h379v221h-166l16 4c-8 15 -18 29 -27 44h551v52h-304v66h403v54h-403z" />
</svg>
