<?xml version="1.0" standalone="no"?>
<!DOCTYPE svg PUBLIC "-//W3C//DTD SVG 1.1//EN" "http://www.w3.org/Graphics/SVG/1.1/DTD/svg11.dtd" >
<svg xmlns="http://www.w3.org/2000/svg" xmlns:xlink="http://www.w3.org/1999/xlink" version="1.1" viewBox="-10 0 1010 1000">
   <path fill="currentColor"
d="M537 233v-56h-144v-59h144v-75h64v75h156v-75h64v75h138v59h-138v56h-64v-56h-156v56h-64zM526 797v62h168v-62h-168zM694 639v-60h-168v60h168zM694 748v-60h-168v60h168zM486 301v91h114v-91h-114zM760 301v91h116v-91h-116zM962 859l1 56h-437v42h-64v-313
c-19 22 -39 41 -57 58c-5 -6 -14 -15 -23 -23v206h-54v-49c-91 14 -178 26 -251 37v-327h54v257c21 -2 45 -5 69 -8v-319h-151v-64h151v-184h-56c-17 49 -37 94 -57 129c-13 -10 -40 -25 -57 -32c46 -72 78 -180 99 -283l61 11c-7 38 -16 76 -27 112h212v63h-112v184h144v64
h-144v312l65 -8v-235h54v90c56 -51 107 -121 140 -191h-90v-195h224v195h-123l50 16c-10 21 -21 43 -34 63h151c-14 -20 -30 -40 -46 -56l50 -27v-191h231v195h-224c23 24 48 55 63 79h168v56h-185v60h156v49h-156v60h156v49h-156v62h205z" />
</svg>
