<?xml version="1.0" standalone="no"?>
<!DOCTYPE svg PUBLIC "-//W3C//DTD SVG 1.1//EN" "http://www.w3.org/Graphics/SVG/1.1/DTD/svg11.dtd" >
<svg xmlns="http://www.w3.org/2000/svg" xmlns:xlink="http://www.w3.org/1999/xlink" version="1.1" viewBox="-10 0 1010 1000">
   <path fill="currentColor"
d="M816 300v-158h-170v158h170zM582 300v-158h-167v158h167zM351 300v-158h-161v158h161zM884 86v270h-760v-270h760zM303 731l39 -53c125 45 285 122 368 180l-43 61c-79 -58 -238 -139 -364 -188zM491 361l63 31c-5 7 -10 13 -15 19c120 118 266 182 424 233
c-16 15 -35 38 -43 60c-155 -58 -297 -127 -421 -248c-106 109 -255 197 -408 252c-10 -18 -30 -44 -46 -61c175 -56 352 -161 446 -286z" />
</svg>
