<?xml version="1.0" standalone="no"?>
<!DOCTYPE svg PUBLIC "-//W3C//DTD SVG 1.1//EN" "http://www.w3.org/Graphics/SVG/1.1/DTD/svg11.dtd" >
<svg xmlns="http://www.w3.org/2000/svg" xmlns:xlink="http://www.w3.org/1999/xlink" version="1.1" viewBox="-10 0 1010 1000">
   <path fill="currentColor"
d="M823 240v-100h-171v100h171zM584 240v-100h-167v100h167zM348 240v-100h-161v100h161zM897 83v214h-782v-214h782zM105 654l-57 -23c32 -54 56 -144 67 -218l57 9c-12 75 -35 171 -67 232zM198 956v-642h71v642h-71zM395 502l-57 29c-11 -34 -39 -86 -64 -125l55 -25
c25 37 54 88 66 121zM504 767v91h168v-91h-168zM672 570v-84h-168v84h168zM672 710v-84h-168v84h168zM940 858v62h-436v35h-68v-393c-26 37 -55 72 -84 101c-6 -15 -25 -47 -38 -63c77 -71 147 -181 188 -294l62 18c-13 34 -29 68 -44 101h161c-13 -30 -31 -66 -48 -95
l68 -14c20 34 43 76 57 109h165v61h-183v84h168v56h-168v84h169v57h-169v91h200z" />
</svg>
