<?xml version="1.0" standalone="no"?>
<!DOCTYPE svg PUBLIC "-//W3C//DTD SVG 1.1//EN" "http://www.w3.org/Graphics/SVG/1.1/DTD/svg11.dtd" >
<svg xmlns="http://www.w3.org/2000/svg" xmlns:xlink="http://www.w3.org/1999/xlink" version="1.1" viewBox="-10 0 1010 1000">
   <path fill="currentColor"
d="M824 215v-80h-175v80h175zM580 215v-80h-172v80h172zM339 215v-80h-166v80h166zM897 81v187h-794v-187h794zM337 452v-52h-131v52h131zM402 601h-100v69h100v-69zM143 670h95v-69h-95v69zM401 291v56h86v53h-86v102h-99v49h161v169h-161v59h174v57h-174v119h-64v-119
h-193v-57h193v-59h-154v-169h154v-49h-94v-102h-88v-53h88v-56h62v56h131v-56h64zM800 724v60h-309v-60h309zM821 572h109s-1 20 -3 30c-18 211 -37 294 -67 324c-18 19 -35 25 -63 27c-24 2 -68 1 -115 -2c-1 -18 -9 -44 -19 -61c46 5 90 5 108 5c17 0 27 -1 35 -10
c22 -20 39 -89 55 -254h-344c15 -53 33 -132 43 -195l65 6c-8 42 -17 89 -26 130h155c13 -53 28 -123 38 -186h-270v-59h347c-14 79 -31 175 -48 245z" />
</svg>
