<?xml version="1.0" standalone="no"?>
<!DOCTYPE svg PUBLIC "-//W3C//DTD SVG 1.1//EN" "http://www.w3.org/Graphics/SVG/1.1/DTD/svg11.dtd" >
<svg xmlns="http://www.w3.org/2000/svg" xmlns:xlink="http://www.w3.org/1999/xlink" version="1.1" viewBox="-10 0 1010 1000">
   <path fill="currentColor"
d="M182 135v96h161v-96h-161zM412 135v96h166v-96h-166zM647 135v96h170v-96h-170zM461 708l-57 25c-4 -17 -11 -37 -19 -57c-244 25 -280 31 -299 40c-4 -12 -16 -39 -24 -55c22 -3 45 -21 78 -50c16 -15 54 -51 94 -97c-108 10 -133 14 -148 20c-2 -12 -13 -40 -22 -53
c16 -3 30 -17 47 -36c17 -16 71 -89 105 -159h-105v-205h780v205h-653l48 17c-33 57 -74 115 -116 162l114 -8c25 -29 48 -61 70 -92l64 29c-70 91 -149 178 -229 247l174 -15c-11 -24 -23 -46 -36 -67l54 -19c34 52 68 123 80 168zM109 742l63 9c-14 69 -37 140 -68 186
c-14 -5 -43 -13 -59 -17c34 -46 53 -113 64 -178zM212 749l59 -10c16 55 29 125 31 171l-61 11c-1 -46 -14 -117 -29 -172zM324 736l56 -14c29 50 56 114 67 157l-59 15c-10 -43 -37 -109 -64 -158zM545 615v62h296v-62h-296zM545 505v63h296v-63h-296zM948 791v54h-220v111
h-67v-111h-212v-54h212v-64h-179v-271h179v-160h67v62h192v53h-192v45h178v271h-178v64h220z" />
</svg>
