<?xml version="1.0" standalone="no"?>
<!DOCTYPE svg PUBLIC "-//W3C//DTD SVG 1.1//EN" "http://www.w3.org/Graphics/SVG/1.1/DTD/svg11.dtd" >
<svg xmlns="http://www.w3.org/2000/svg" xmlns:xlink="http://www.w3.org/1999/xlink" version="1.1" viewBox="-10 0 1010 1000">
   <path fill="currentColor"
d="M114 743l62 7c-11 70 -30 142 -54 191c-14 -5 -42 -13 -59 -16c27 -47 43 -117 51 -182zM220 749l56 -9c18 54 32 125 34 171l-60 11c-1 -47 -14 -119 -30 -173zM334 735l54 -13c29 49 57 114 68 157l-57 14c-10 -43 -37 -109 -65 -158zM182 140v100h161v-100h-161z
M412 140v100h167v-100h-167zM648 140v100h170v-100h-170zM336 551l52 -18c33 54 65 125 75 170l-54 23c-4 -16 -10 -35 -17 -54c-245 25 -279 31 -301 40c-3 -12 -13 -39 -22 -55c21 -3 46 -19 77 -47c18 -14 57 -49 100 -94c-114 11 -138 15 -153 21
c-3 -12 -14 -41 -23 -55c16 -3 32 -14 51 -33c19 -16 80 -85 120 -152h-131v-214h782v214h-635l52 22c-37 53 -81 106 -125 148l114 -7c23 -26 46 -55 66 -82l59 32c-68 83 -146 163 -226 228l176 -16c-11 -25 -24 -49 -37 -71zM574 771v85h143v-85h-143zM717 573v-82h-143
v82h143zM717 715v-85h-143v85h143zM954 856v62h-380v40h-68v-416c-14 18 -28 35 -42 50c-13 -12 -40 -33 -57 -42c66 -62 124 -154 160 -247l66 16c-14 37 -33 75 -52 110h149c-12 -33 -29 -70 -46 -100l59 -18c21 37 43 82 55 118h140v62h-154v82h130v57h-130v85h130v56
h-130v85h170z" />
</svg>
