<?xml version="1.0" standalone="no"?>
<!DOCTYPE svg PUBLIC "-//W3C//DTD SVG 1.1//EN" "http://www.w3.org/Graphics/SVG/1.1/DTD/svg11.dtd" >
<svg xmlns="http://www.w3.org/2000/svg" xmlns:xlink="http://www.w3.org/1999/xlink" version="1.1" viewBox="-10 0 1010 1000">
   <path fill="currentColor"
d="M816 211v-76h-169v76h169zM578 211v-76h-165v76h165zM344 211v-76h-160v76h160zM888 81v183h-773v-183h773zM142 678h93v-75h-93v75zM398 603h-99v75h99v-75zM203 402v55h133v-55h-133zM299 728v56h193v56h-193v116h-64v-116h-192v-56h192v-56h-151v-176h151v-45h-94
v-105h-84v-53h84v-62h62v62h133v-62h64v62h83v53h-83v105h-101v45h160v176h-160zM701 708h-118v85h118v-85zM757 842h-174v36h-56v-219h230v183zM535 553h327c-37 -29 -100 -67 -158 -95c-32 44 -84 74 -169 95zM954 553v58h-72v274c0 35 -8 53 -35 62c-28 8 -73 9 -145 9
c-4 -17 -12 -40 -21 -57c54 1 102 1 117 0c14 0 18 -3 18 -15v-273h-333v-58h48c-7 -13 -21 -36 -34 -48c94 -20 143 -50 168 -101h-148v-56h165c4 -19 6 -39 7 -62h64c-2 22 -4 43 -7 62h180v56h-194l-2 5c64 29 140 72 180 103l-33 41h77z" />
</svg>
