<?xml version="1.0" standalone="no"?>
<!DOCTYPE svg PUBLIC "-//W3C//DTD SVG 1.1//EN" "http://www.w3.org/Graphics/SVG/1.1/DTD/svg11.dtd" >
<svg xmlns="http://www.w3.org/2000/svg" xmlns:xlink="http://www.w3.org/1999/xlink" version="1.1" viewBox="-10 0 1010 1000">
   <path fill="currentColor"
d="M824 215v-80h-175v80h175zM580 215v-80h-172v80h172zM339 215v-80h-166v80h166zM897 81v187h-794v-187h794zM142 677h96v-75h-96v75zM401 602h-99v75h99v-75zM206 400v52h131v-52h-131zM475 834h-173v121h-64v-121h-193v-57h193v-50h-155v-175h155v-50h-94v-102h-88v-53
h88v-56h62v56h131v-56h64v56h86v53h-86v102h-99v50h160v175h-160v50h173v57zM502 930l-51 -28c31 -38 54 -101 65 -153l52 17c-13 56 -33 122 -66 164zM591 758l48 -6c12 42 23 98 25 133l-50 9c-1 -36 -11 -91 -23 -136zM668 751l42 -16c23 35 44 80 54 110l-46 17
c-8 -30 -29 -77 -50 -111zM849 795l-38 23c-13 -23 -38 -58 -63 -82l35 -21c26 25 53 57 66 80zM582 587v60h120v-60h-120zM702 373h-120v58h120v-58zM702 539v-60h-120v60h120zM764 647h175s0 18 -1 27c-11 167 -21 230 -42 253c-16 16 -32 23 -55 24c-22 2 -62 1 -103 -1
c-2 -17 -7 -39 -16 -55c40 4 77 4 90 4c14 1 23 -1 30 -9c12 -14 21 -64 29 -189h-353v-382h398v54h-152v58h134v48h-134v60h134v48h-134v60z" />
</svg>
