<?xml version="1.0" standalone="no"?>
<!DOCTYPE svg PUBLIC "-//W3C//DTD SVG 1.1//EN" "http://www.w3.org/Graphics/SVG/1.1/DTD/svg11.dtd" >
<svg xmlns="http://www.w3.org/2000/svg" xmlns:xlink="http://www.w3.org/1999/xlink" version="1.1" viewBox="-10 0 1010 1000">
   <path fill="currentColor"
d="M688 567l48 30c-30 58 -73 108 -124 151c78 62 212 110 348 129c-16 16 -38 45 -49 65c-133 -25 -264 -82 -349 -156c-130 90 -302 141 -471 167c-6 -18 -22 -49 -35 -65c226 -29 458 -106 570 -253h-326c-49 42 -105 81 -169 117c-11 -17 -34 -40 -50 -50
c115 -56 205 -134 258 -201h-283v-63h405v-77h-315v-60h315v-74h-361v-63h199c-15 -29 -38 -63 -60 -88l62 -27c33 35 65 82 79 115h239c25 -36 54 -88 70 -124l77 23c-21 34 -45 71 -67 101h203v63h-366v74h317v60h-317v77h410v63h-518c-18 23 -39 47 -60 70h307z" />
</svg>
