<?xml version="1.0" standalone="no"?>
<!DOCTYPE svg PUBLIC "-//W3C//DTD SVG 1.1//EN" "http://www.w3.org/Graphics/SVG/1.1/DTD/svg11.dtd" >
<svg xmlns="http://www.w3.org/2000/svg" xmlns:xlink="http://www.w3.org/1999/xlink" version="1.1" viewBox="-10 0 1010 1000">
   <path fill="currentColor"
d="M943 386v57h-886v-57h404v-69h-311v-53h311v-66h-358v-57h209c-14 -25 -33 -53 -53 -75l64 -24c27 27 54 66 66 92l-16 7h236c22 -29 48 -71 63 -99l79 21c-20 27 -43 55 -62 78h210v57h-364v66h314v53h-314v69h408zM691 533l-29 48c-76 -29 -223 -68 -334 -90l27 -41
c110 19 256 55 336 83zM355 651l43 20c-55 134 -180 219 -313 262c-8 -17 -26 -43 -40 -58c103 -27 204 -86 260 -167h-230v-54h267zM832 579l58 44c-63 46 -143 96 -211 131c76 59 171 102 280 122c-15 15 -35 43 -44 61c-160 -38 -289 -121 -374 -239v172
c0 41 -10 59 -42 71c-32 10 -84 10 -163 10c-3 -20 -14 -46 -25 -65c64 2 120 2 137 1c16 -1 20 -5 20 -19v-264h-296v-54h369v37c24 47 55 92 94 130c67 -39 148 -95 197 -138z" />
</svg>
