<?xml version="1.0" standalone="no"?>
<!DOCTYPE svg PUBLIC "-//W3C//DTD SVG 1.1//EN" "http://www.w3.org/Graphics/SVG/1.1/DTD/svg11.dtd" >
<svg xmlns="http://www.w3.org/2000/svg" xmlns:xlink="http://www.w3.org/1999/xlink" version="1.1" viewBox="-10 0 1010 1000">
   <path fill="currentColor"
d="M585 151v30c0 83 -22 187 -116 257c-11 -13 -39 -39 -52 -49c84 -62 98 -143 98 -210v-96h313v231c0 27 3 36 16 36h59c12 0 32 -1 43 -5c2 18 4 44 6 61c-11 4 -31 5 -48 5h-66c-65 0 -78 -28 -78 -99v-161h-175zM211 209l-66 25c-7 -45 -33 -112 -58 -163l61 -22
c28 50 54 116 63 160zM443 678h-165c-17 105 -63 211 -178 280c-9 -15 -32 -42 -48 -56c98 -53 138 -138 153 -224h-153v-67h161c2 -23 2 -45 2 -67v-57h-133v-66h133v-117h-155v-67h285l-52 -18c22 -47 50 -123 63 -175l73 22c-26 59 -54 127 -78 171h86v67h-149v117h126
v66h-126v57c0 22 -1 44 -2 67h157v67zM843 474l47 19c-35 118 -95 211 -169 284c68 54 151 93 247 116c-17 15 -37 45 -48 64c-99 -27 -184 -72 -254 -132c-78 61 -169 104 -265 132c-7 -18 -25 -48 -39 -63c91 -24 178 -63 252 -119c-54 -59 -96 -129 -127 -209l64 -19
c27 69 66 131 116 183c54 -51 97 -113 127 -185h-346v-68h381z" />
</svg>
