<?xml version="1.0" standalone="no"?>
<!DOCTYPE svg PUBLIC "-//W3C//DTD SVG 1.1//EN" "http://www.w3.org/Graphics/SVG/1.1/DTD/svg11.dtd" >
<svg xmlns="http://www.w3.org/2000/svg" xmlns:xlink="http://www.w3.org/1999/xlink" version="1.1" viewBox="-10 0 1010 1000">
   <path fill="currentColor"
d="M216 208l-65 26c-11 -44 -37 -112 -59 -163l62 -22c23 50 49 115 62 159zM287 487v57c0 23 -1 46 -2 70h158v67h-167c-18 104 -64 207 -178 275c-9 -15 -31 -41 -47 -55c97 -51 138 -136 153 -220h-152v-67h161c2 -24 2 -47 2 -70v-57h-132v-66h132v-117h-155v-67h224
c24 -55 50 -136 64 -193l71 21c-21 57 -47 122 -69 172h87v67h-150v117h122v66h-122zM851 503l49 31c-42 93 -115 208 -173 288c34 32 67 63 88 87l-54 44c-47 -56 -146 -149 -223 -212l51 -36c26 21 57 47 86 72c44 -57 94 -137 129 -203h-290v-67h326zM608 354l51 -29
c38 37 82 85 103 116l-53 36c-21 -33 -65 -86 -101 -123zM686 42l66 20c-5 16 -12 32 -19 49c55 109 147 225 230 285c-16 13 -40 38 -53 56c-72 -62 -152 -168 -209 -275c-55 105 -127 203 -212 278c-12 -15 -36 -37 -52 -48c110 -93 202 -236 249 -365z" />
</svg>
