<?xml version="1.0" standalone="no"?>
<!DOCTYPE svg PUBLIC "-//W3C//DTD SVG 1.1//EN" "http://www.w3.org/Graphics/SVG/1.1/DTD/svg11.dtd" >
<svg xmlns="http://www.w3.org/2000/svg" xmlns:xlink="http://www.w3.org/1999/xlink" version="1.1" viewBox="-10 0 1010 1000">
   <path fill="currentColor"
d="M218 191l-61 22c-10 -40 -37 -102 -64 -147l57 -18c29 45 57 105 68 143zM278 480v11c0 35 -1 70 -4 106h144v69h-152c-17 106 -58 210 -152 297c-11 -16 -35 -42 -52 -53c78 -72 115 -157 131 -244h-145v-69h155c3 -36 4 -72 4 -107v-10h-125v-66h125v-111h-145v-68h186
c30 -55 64 -137 83 -195l70 18c-26 59 -56 125 -85 177h97v68h-135v111h122v66h-122zM951 448l-43 59c-49 -35 -139 -85 -219 -125c-69 54 -146 98 -221 130c-11 -17 -31 -45 -47 -60c140 -55 289 -162 369 -287h-317v-69h362l14 -3l51 27c-36 82 -92 153 -157 214
c77 37 161 82 208 114zM728 617v242h220v70h-526v-70h233v-242h-177v-69h426v69h-176z" />
</svg>
