<?xml version="1.0" standalone="no"?>
<!DOCTYPE svg PUBLIC "-//W3C//DTD SVG 1.1//EN" "http://www.w3.org/Graphics/SVG/1.1/DTD/svg11.dtd" >
<svg xmlns="http://www.w3.org/2000/svg" xmlns:xlink="http://www.w3.org/1999/xlink" version="1.1" viewBox="-10 0 1010 1000">
   <path fill="currentColor"
d="M489 229v107h-62v-174h236c-10 -33 -25 -72 -37 -104l67 -16c18 38 37 86 47 120h205v165h-64v-98h-392zM699 316l49 -37c66 64 155 151 200 203l-52 43c-42 -54 -130 -144 -197 -209zM604 281l66 25c-57 75 -134 161 -195 217c-13 -11 -41 -34 -58 -45
c66 -52 138 -129 187 -197zM194 207l-66 23c-9 -43 -32 -109 -52 -159l62 -19c22 49 45 113 56 155zM264 491v52c0 24 -1 50 -3 76h141v66h-149c-18 102 -62 205 -171 272c-10 -15 -32 -41 -48 -55c92 -52 131 -133 147 -217h-146v-66h154c3 -26 3 -52 3 -76v-52h-133v-66
h133v-121h-144v-67h209c26 -54 55 -135 70 -192l72 21c-23 56 -50 121 -74 171h74v67h-135v121h121v66h-121zM727 856h228v69h-542v-69h244v-235h-186v-68h444v68h-188v235z" />
</svg>
