<?xml version="1.0" standalone="no"?>
<!DOCTYPE svg PUBLIC "-//W3C//DTD SVG 1.1//EN" "http://www.w3.org/Graphics/SVG/1.1/DTD/svg11.dtd" >
<svg xmlns="http://www.w3.org/2000/svg" xmlns:xlink="http://www.w3.org/1999/xlink" version="1.1" viewBox="-10 0 1010 1000">
   <path fill="currentColor"
d="M272 92v771c0 37 -8 56 -31 68s-59 13 -112 13c-3 -17 -12 -47 -22 -66c39 2 76 2 86 1c12 0 16 -4 16 -17v-250c-42 37 -84 72 -123 102l-37 -53c41 -31 100 -76 160 -124v-380h-147v-65h210zM69 272l55 -11c26 61 53 145 61 193l-58 17c-9 -51 -34 -135 -58 -199z
M496 93v769c0 37 -8 57 -31 69c-24 11 -61 13 -116 13c-3 -18 -13 -48 -21 -66c40 1 78 1 89 1c12 -1 16 -4 16 -17v-263c-41 35 -83 68 -119 98l-37 -53c40 -30 97 -75 156 -122v-364h-136v-65h199zM298 272l54 -11c25 60 53 138 62 185l-57 16c-10 -48 -34 -129 -59 -190z
M766 576h93v-278h-93v278zM604 576h97v-278h-97v278zM766 232h156v469h-63v-59h-93v314h-65v-314h-97v66h-62v-476h159v-189h65v189z" />
</svg>
