<?xml version="1.0" standalone="no"?>
<!DOCTYPE svg PUBLIC "-//W3C//DTD SVG 1.1//EN" "http://www.w3.org/Graphics/SVG/1.1/DTD/svg11.dtd" >
<svg xmlns="http://www.w3.org/2000/svg" xmlns:xlink="http://www.w3.org/1999/xlink" version="1.1" viewBox="-10 0 1010 1000">
   <path fill="currentColor"
d="M262 200l-71 26c-9 -40 -31 -102 -47 -148l68 -22c17 46 39 106 50 144zM357 230v69h-303v-69h303zM188 702l-62 11c-5 -97 -25 -244 -46 -356l58 -10c21 113 44 257 50 355zM268 733l98 -23l8 67c-108 29 -221 57 -309 79l-16 -72c44 -9 99 -22 158 -36
c23 -107 48 -284 59 -406l67 12c-17 118 -43 273 -65 379zM649 90v772c0 43 -9 62 -36 74c-28 11 -74 12 -148 12c-2 -18 -10 -47 -19 -66c51 2 102 2 116 1c15 0 20 -5 20 -21v-267c-58 56 -117 111 -166 156l-35 -57c50 -40 127 -108 201 -176v-360h-184v-68h251zM409 281
l52 -15c27 62 59 145 72 192l-55 20c-12 -49 -43 -134 -69 -197zM927 90v774c0 44 -10 64 -37 76c-28 11 -73 12 -147 12c-3 -19 -10 -48 -19 -67c52 2 102 2 115 1c15 -1 20 -5 20 -21v-283c-54 52 -107 104 -154 146l-35 -56c47 -39 119 -103 189 -167v-347h-180v-68h248z
M679 276l52 -14c28 61 61 144 77 190l-56 21c-15 -50 -46 -133 -73 -197z" />
</svg>
