<?xml version="1.0" standalone="no"?>
<!DOCTYPE svg PUBLIC "-//W3C//DTD SVG 1.1//EN" "http://www.w3.org/Graphics/SVG/1.1/DTD/svg11.dtd" >
<svg xmlns="http://www.w3.org/2000/svg" xmlns:xlink="http://www.w3.org/1999/xlink" version="1.1" viewBox="-10 0 1010 1000">
   <path fill="currentColor"
d="M811 251v-110h-288v-61h359v348h-71v-122c-84 29 -173 59 -240 81l-24 -54c65 -19 166 -50 264 -82zM562 196l31 -41c50 20 106 50 138 74l-36 44c-32 -24 -86 -57 -133 -77zM773 673l61 36c-147 126 -398 206 -651 247c-7 -16 -20 -42 -35 -58
c245 -36 496 -112 625 -225zM623 587l58 28c-108 95 -295 162 -480 197c-8 -14 -22 -37 -35 -51c177 -29 361 -91 457 -174zM508 498l58 26c-84 71 -223 124 -351 154c-9 -14 -25 -34 -39 -46c121 -26 259 -75 332 -134zM497 324l55 30c-6 7 -13 12 -20 19
c130 91 287 135 441 169c-15 14 -31 37 -38 57c-154 -40 -308 -90 -445 -190c-110 85 -264 151 -415 192c-8 -16 -24 -39 -39 -53c139 -34 284 -90 387 -162h-37v-70c-99 34 -203 69 -278 94l-26 -55c74 -22 190 -57 304 -92v-122h-292v-61h362v281c15 -11 28 -24 41 -37z
M133 199l32 -41c50 20 105 51 139 74l-38 45c-30 -25 -86 -58 -133 -78z" />
</svg>
