<?xml version="1.0" standalone="no"?>
<!DOCTYPE svg PUBLIC "-//W3C//DTD SVG 1.1//EN" "http://www.w3.org/Graphics/SVG/1.1/DTD/svg11.dtd" >
<svg xmlns="http://www.w3.org/2000/svg" xmlns:xlink="http://www.w3.org/1999/xlink" version="1.1" viewBox="-10 0 1010 1000">
   <path fill="currentColor"
d="M347 200h-145c-32 43 -70 84 -116 121c-10 -16 -29 -38 -43 -47c91 -66 152 -157 182 -232l62 13c-13 28 -27 56 -43 84h133l11 -3l40 23c-61 191 -199 313 -345 376c-7 -16 -23 -42 -35 -56c58 -22 116 -56 166 -101c-23 -23 -55 -50 -83 -69l44 -35c27 16 58 41 82 62
c38 -40 68 -85 90 -136zM423 494l39 22c-61 242 -214 376 -391 441c-7 -18 -22 -45 -34 -60c80 -25 158 -70 221 -133c-24 -27 -59 -57 -92 -79l45 -36c30 18 63 44 88 69c36 -46 65 -99 87 -159h-135c-43 56 -99 108 -167 152c-9 -17 -27 -40 -40 -50
c115 -68 192 -166 229 -249l62 12c-12 25 -25 49 -39 73h115zM681 90v767c0 39 -7 60 -32 72s-66 14 -125 13c-3 -18 -12 -50 -22 -69c44 2 85 2 97 2c12 -1 16 -5 16 -18v-250c-49 46 -100 92 -144 131l-34 -54c44 -37 111 -97 178 -160v-373h-156v-61h222zM475 267l52 -16
c30 62 61 142 72 191l-56 20c-10 -50 -41 -134 -68 -195zM924 90v770c0 40 -8 61 -33 73s-67 14 -127 14c-3 -20 -13 -50 -22 -69c44 2 86 1 99 1c12 -1 16 -4 16 -19v-259c-39 43 -80 85 -116 123l-37 -55c38 -36 95 -95 153 -155v-361h-152v-63h219zM843 441l-57 19
c-12 -49 -42 -133 -68 -194l53 -12c27 61 59 142 72 187z" />
</svg>
