<?xml version="1.0" standalone="no"?>
<!DOCTYPE svg PUBLIC "-//W3C//DTD SVG 1.1//EN" "http://www.w3.org/Graphics/SVG/1.1/DTD/svg11.dtd" >
<svg xmlns="http://www.w3.org/2000/svg" xmlns:xlink="http://www.w3.org/1999/xlink" version="1.1" viewBox="-10 0 1010 1000">
   <path fill="currentColor"
d="M548 407l-25 -55c75 -19 188 -53 298 -85v-122h-297v-58h369v343h-72v-112c-97 32 -195 65 -273 89zM555 214l31 -45c57 13 131 41 171 63l-30 51c-39 -22 -113 -52 -172 -69zM106 411l-23 -58c78 -19 192 -50 305 -82v-126h-295v-58h366v343h-71v-106
c-100 32 -203 64 -282 87zM128 207l32 -45c54 15 123 43 159 65l-33 52c-35 -24 -104 -54 -158 -72zM266 786v79h235v-79h-235zM501 612v-70h-235v70h235zM501 734v-70h-235v70h235zM918 865v55h-652v36h-72v-347c-31 30 -64 58 -95 81c-11 -13 -36 -41 -51 -53
c90 -60 183 -152 239 -246l66 23c-15 26 -32 50 -51 74h197c-11 -24 -23 -51 -36 -73l68 -20c17 29 36 65 47 93h296v54h-302v70h270v52h-270v70h269v52h-269v79h346z" />
</svg>
