<?xml version="1.0" standalone="no"?>
<!DOCTYPE svg PUBLIC "-//W3C//DTD SVG 1.1//EN" "http://www.w3.org/Graphics/SVG/1.1/DTD/svg11.dtd" >
<svg xmlns="http://www.w3.org/2000/svg" xmlns:xlink="http://www.w3.org/1999/xlink" version="1.1" viewBox="-10 0 1010 1000">
   <path fill="currentColor"
d="M147 492v77h206v-77h-206zM147 359v76h206v-76h-206zM691 39l68 23c-6 10 -13 20 -19 30c52 75 142 150 224 190c-13 18 -27 49 -34 69l-11 -7v529c0 36 -6 56 -29 67c-23 12 -60 13 -114 13c-2 -18 -10 -48 -19 -67c37 1 71 1 82 1s14 -3 14 -14v-162
c-46 36 -92 72 -134 102l-34 -59c43 -26 106 -69 168 -113v-236h-145v-63h207c-79 -49 -159 -122 -215 -196c-61 78 -139 146 -216 196h195v533c0 35 -6 54 -29 65c-22 12 -57 13 -109 13c-3 -18 -11 -47 -20 -65c37 1 70 1 80 0c11 0 14 -3 14 -14v-157
c-55 40 -111 79 -159 111l-27 -48h-141v177h-72v-177h-172v-68h172v-83h-135v-329h135v-84h-162v-67h162v-106h72v106h158v67h-158v84h133v329h-133v83h167v36c46 -26 102 -62 160 -98v-245h-143v-55l-7 4c-8 -15 -31 -48 -45 -63c106 -57 211 -150 271 -252zM707 489
l48 -25c30 38 63 87 77 122l-51 27c-15 -34 -46 -86 -74 -124zM468 491l47 -26c34 39 69 89 85 122l-50 28c-16 -34 -51 -87 -82 -124z" />
</svg>
