<?xml version="1.0" standalone="no"?>
<!DOCTYPE svg PUBLIC "-//W3C//DTD SVG 1.1//EN" "http://www.w3.org/Graphics/SVG/1.1/DTD/svg11.dtd" >
<svg xmlns="http://www.w3.org/2000/svg" xmlns:xlink="http://www.w3.org/1999/xlink" version="1.1" viewBox="-10 0 1010 1000">
   <path fill="currentColor"
d="M697 204l-40 38c-23 -23 -69 -55 -107 -78l38 -33c38 19 84 50 109 73zM831 195v-64h-326v-54h395v252h-69v-84c-109 35 -222 68 -307 93l-27 -52c83 -21 210 -57 334 -91zM383 202v-71h-224c39 20 83 50 105 72l-38 38c-23 -23 -69 -55 -106 -78l36 -32h-86v-54h381v252
h-68v-77c-104 34 -213 67 -295 90l-27 -53c80 -19 202 -53 322 -87zM374 708v57h248v-57h-248zM374 605v53h248v-53h-248zM234 502v55h228v-55h-228zM234 402v54h228v-54h-228zM762 456v-54h-230v54h230zM762 557v-55h-230v55h230zM952 765v52h-309c106 27 222 65 291 97
l-61 43c-65 -33 -176 -72 -289 -102l44 -38h-274l60 25c-82 49 -209 93 -310 118c-12 -14 -38 -40 -56 -52c104 -19 221 -53 293 -91h-290v-52h252v-57h-209v-50h209v-53h-139v-251h670v251h-140v53h213v50h-213v57h258z" />
</svg>
