<?xml version="1.0" standalone="no"?>
<!DOCTYPE svg PUBLIC "-//W3C//DTD SVG 1.1//EN" "http://www.w3.org/Graphics/SVG/1.1/DTD/svg11.dtd" >
<svg xmlns="http://www.w3.org/2000/svg" xmlns:xlink="http://www.w3.org/1999/xlink" version="1.1" viewBox="-10 0 1010 1000">
   <path fill="currentColor"
d="M578 890h238c48 0 57 -13 62 -86c16 9 42 18 62 22c-10 95 -31 119 -119 119h-245c-112 0 -145 -18 -145 -93v-29l-370 38l-8 -52l378 -38v-58l-309 32l-7 -53l316 -32v-59c-95 11 -194 20 -286 27c-2 -14 -10 -34 -15 -46c208 -17 452 -45 583 -79l53 41
c-74 18 -166 34 -265 48v62l336 -34l7 51l-343 36v57l428 -43l8 51l-436 44v35c0 32 12 39 77 39zM469 233h103c40 -20 80 -41 116 -63h-219v63zM688 233h258v55h-364c-62 31 -128 58 -195 84v4c151 -13 322 -35 416 -58l44 39c-120 31 -300 51 -460 62c3 19 22 23 101 23
h311c58 0 69 -9 74 -73c16 10 40 17 58 20c-10 86 -34 105 -127 105h-314c-132 0 -166 -14 -166 -81v-19c-81 29 -165 54 -245 75c-7 -13 -27 -38 -41 -51c139 -31 282 -75 413 -130h-396v-55h341v-63h-256v-53h256v-74h73v74h246v36c41 -26 80 -54 114 -83l50 33
c-57 47 -122 90 -191 130z" />
</svg>
