<?xml version="1.0" standalone="no"?>
<!DOCTYPE svg PUBLIC "-//W3C//DTD SVG 1.1//EN" "http://www.w3.org/Graphics/SVG/1.1/DTD/svg11.dtd" >
<svg xmlns="http://www.w3.org/2000/svg" xmlns:xlink="http://www.w3.org/1999/xlink" version="1.1" viewBox="-10 0 1010 1000">
   <path fill="currentColor"
d="M456 207v102h56c55 -32 108 -66 157 -102h-213zM573 659h-241v102h241v-102zM946 371h-412c-21 12 -42 24 -64 35l4 1c-14 22 -29 43 -46 64h459s-1 24 -2 34c-19 278 -39 382 -73 419c-20 22 -41 28 -73 31c-28 2 -84 1 -139 -2c-2 -20 -10 -49 -22 -67
c57 5 111 5 133 5c19 1 29 -2 39 -12c26 -25 45 -116 62 -346h-437c-22 24 -45 46 -68 68h335v219h-310v50h-68v-232c-41 33 -83 63 -124 88c-13 -13 -43 -37 -59 -47c95 -52 189 -126 261 -210c-87 39 -177 73 -265 102c-10 -16 -32 -46 -46 -60c123 -36 247 -83 363 -140
h-339v-62h328v-102h-242v-62h242v-102h73v102h240v41c44 -34 84 -70 120 -107l58 36c-69 71 -150 136 -239 194h311v62z" />
</svg>
