<?xml version="1.0" standalone="no"?>
<!DOCTYPE svg PUBLIC "-//W3C//DTD SVG 1.1//EN" "http://www.w3.org/Graphics/SVG/1.1/DTD/svg11.dtd" >
<svg xmlns="http://www.w3.org/2000/svg" xmlns:xlink="http://www.w3.org/1999/xlink" version="1.1" viewBox="-10 0 1010 1000">
   <path fill="currentColor"
d="M463 228h122c39 -19 75 -38 110 -59h-232v59zM323 419v-27c-79 28 -160 51 -238 72c-9 -14 -28 -39 -42 -52c140 -31 285 -75 419 -129h-395v-55h323v-59h-255v-53h255v-73h73v73h258v36c41 -25 79 -52 113 -80l51 33c-54 44 -116 86 -182 123h232v55h-338
c-66 31 -133 60 -203 85c150 -12 319 -30 414 -55l42 40c-117 29 -299 49 -456 59v7c0 24 14 30 89 30h278c54 0 65 -10 69 -72c17 9 41 15 61 18c-9 85 -34 104 -122 104h-286c-124 0 -160 -14 -160 -80zM644 594h-216c-42 26 -85 48 -128 66l401 -8
c-27 -16 -55 -29 -81 -41zM534 882h405v55h-875v-55h397v-66h-321v-52h321v-60c-230 7 -261 10 -284 17c-3 -14 -12 -44 -19 -60c17 -2 36 -7 58 -15c18 -6 66 -25 113 -52h-241v-53h825v53h-218c62 30 129 70 167 100l-45 36c-13 -11 -28 -22 -47 -35l-236 7v62h330v52
h-330v66z" />
</svg>
