<?xml version="1.0" standalone="no"?>
<!DOCTYPE svg PUBLIC "-//W3C//DTD SVG 1.1//EN" "http://www.w3.org/Graphics/SVG/1.1/DTD/svg11.dtd" >
<svg xmlns="http://www.w3.org/2000/svg" xmlns:xlink="http://www.w3.org/1999/xlink" version="1.1" viewBox="-10 0 1010 1000">
   <path fill="currentColor"
d="M136 224h288c11 -26 20 -55 29 -83h-379v-63h850v63h-392c-12 30 -25 58 -37 83h374v226c0 35 -6 53 -32 64c-25 11 -63 11 -117 11c-3 -19 -14 -44 -23 -62c40 1 73 1 85 0c12 0 14 -3 14 -13v-164h-155v215h-70v-215h-145v215h-70v-215h-147v242h-73v-304zM662 662
h-273c-23 29 -47 57 -68 81c70 14 139 29 206 44c57 -32 101 -73 135 -125zM944 662h-200c-30 60 -73 108 -127 147c127 31 242 63 327 92l-69 54c-84 -31 -201 -66 -335 -99c-111 55 -259 84 -444 100c-5 -22 -18 -48 -30 -64c148 -10 269 -28 367 -62
c-76 -17 -154 -34 -236 -50c34 -33 70 -74 105 -118h-244v-65h293c20 -28 38 -55 52 -82l74 21c-12 20 -26 41 -40 61h507v65z" />
</svg>
