<?xml version="1.0" standalone="no"?>
<!DOCTYPE svg PUBLIC "-//W3C//DTD SVG 1.1//EN" "http://www.w3.org/Graphics/SVG/1.1/DTD/svg11.dtd" >
<svg xmlns="http://www.w3.org/2000/svg" xmlns:xlink="http://www.w3.org/1999/xlink" version="1.1" viewBox="-10 0 1010 1000">
   <path fill="currentColor"
d="M426 546h-143c32 30 124 136 145 162l-42 58c-19 -32 -67 -94 -104 -141v331h-71v-316c-41 88 -94 175 -145 230c-7 -20 -24 -50 -35 -67c57 -58 123 -163 161 -257h-135v-64h154v-103h-126v-64h126v-100h-143v-64h143v-108h71v108h134v64h-134v100h110v64h-110v103h144
v64zM795 617h-250v222h250v-222zM473 960v-410h396v407h-74v-51h-250v54h-72zM542 369h264c-51 -55 -98 -123 -135 -195c-34 72 -77 138 -129 195zM641 45l72 19c-4 11 -7 21 -11 32c54 117 149 232 244 289c-17 14 -41 41 -54 61c-26 -19 -52 -42 -77 -68v59h-288v-51
c-24 24 -50 48 -77 69c-12 -15 -38 -42 -55 -53c117 -85 205 -218 246 -357z" />
</svg>
