<?xml version="1.0" standalone="no"?>
<!DOCTYPE svg PUBLIC "-//W3C//DTD SVG 1.1//EN" "http://www.w3.org/Graphics/SVG/1.1/DTD/svg11.dtd" >
<svg xmlns="http://www.w3.org/2000/svg" xmlns:xlink="http://www.w3.org/1999/xlink" version="1.1" viewBox="-10 0 1010 1000">
   <path fill="currentColor"
d="M372 689l-42 51c-15 -27 -49 -76 -79 -118v334h-66v-300c-31 82 -71 162 -109 214c-8 -19 -23 -47 -35 -63c46 -61 99 -169 128 -264h-125v-63h141v-105h-123v-62h123v-91h-131v-63h131v-116h66v116h120v63h-120v91h108v62h-108v105h126v63h-124c34 39 101 123 119 146z
M454 599v183c31 -10 65 -20 99 -31v-152h-99zM553 167h-99v156h99v-156zM553 538v-154h-99v154h99zM934 274v36c-9 421 -16 558 -43 598c-16 23 -33 31 -58 34c-24 4 -60 3 -97 1c-1 -20 -7 -48 -18 -67c37 3 69 3 84 3c14 1 22 -2 30 -15c19 -28 28 -155 36 -524h-92v26
c0 197 -18 427 -170 596c-11 -12 -34 -30 -50 -38c39 -43 69 -90 91 -140c-107 37 -217 75 -302 104l-26 -67c22 -6 49 -14 77 -22v-694h217v627l37 -12l7 39c51 -129 58 -271 58 -393v-26h-75v-66h75v-228h61v228h158z" />
</svg>
