<?xml version="1.0" standalone="no"?>
<!DOCTYPE svg PUBLIC "-//W3C//DTD SVG 1.1//EN" "http://www.w3.org/Graphics/SVG/1.1/DTD/svg11.dtd" >
<svg xmlns="http://www.w3.org/2000/svg" xmlns:xlink="http://www.w3.org/1999/xlink" version="1.1" viewBox="-10 0 1010 1000">
   <path fill="currentColor"
d="M846 64l64 26c-29 50 -63 105 -91 141l-52 -23c26 -39 61 -101 79 -144zM584 204l-59 28c-14 -36 -47 -95 -73 -139l56 -23c26 42 61 100 76 134zM381 548h-99c33 44 96 135 112 159l-46 54c-16 -32 -54 -93 -85 -143v338h-67v-290c-36 80 -80 157 -124 205
c-8 -19 -25 -49 -37 -65c55 -59 116 -165 150 -258h-140v-65h151v-113h-132v-64h132v-107h-145v-64h145v-92h67v92h125v64h-125v107h120v64h-120v113h118v65zM772 646h-161c-19 32 -37 64 -55 89c44 17 88 34 131 52c40 -37 67 -83 85 -141zM610 496l70 14
c-9 23 -22 49 -35 74h300v62h-103c-18 70 -47 124 -90 169c70 30 132 60 179 87l-50 54c-48 -30 -111 -62 -184 -94c-66 44 -155 74 -271 95c-6 -19 -19 -44 -30 -58c98 -14 174 -35 232 -69c-55 -23 -113 -46 -172 -67c25 -33 52 -74 77 -117h-134v-62h170
c15 -30 30 -60 41 -88zM942 295h-193c56 59 138 116 211 144c-16 13 -36 37 -47 54c-68 -34 -146 -94 -203 -158v162h-68v-162c-59 66 -138 129 -206 164c-10 -16 -30 -38 -44 -50c72 -32 154 -92 210 -154h-194v-61h234v-187h68v187h232v61z" />
</svg>
