<?xml version="1.0" standalone="no"?>
<!DOCTYPE svg PUBLIC "-//W3C//DTD SVG 1.1//EN" "http://www.w3.org/Graphics/SVG/1.1/DTD/svg11.dtd" >
<svg xmlns="http://www.w3.org/2000/svg" xmlns:xlink="http://www.w3.org/1999/xlink" version="1.1" viewBox="-10 0 1010 1000">
   <path fill="currentColor"
d="M682 384v-48h-153v48h153zM682 478v-51h-153v51h153zM682 574v-52h-153v52h153zM500 204l41 12v-50h-133v-59h133v-63h66v63h143v-63h67v63h132v59h-132v53h-67v-53h-143v53h-57l10 3c-8 21 -17 44 -28 65h141c-10 -21 -25 -45 -40 -64l53 -19c21 25 41 59 52 83h179v49
h-172v48h154v43h-154v51h154v44h-154v52h195v50h-411v29h-64v-251c-17 22 -34 44 -53 62c-7 -13 -27 -44 -39 -58c54 -49 101 -125 127 -202zM373 548h-103c32 41 89 122 104 145l-43 51c-15 -29 -50 -84 -79 -129v341h-67v-288c-34 77 -75 150 -118 197
c-6 -19 -24 -49 -36 -66c53 -57 111 -161 144 -251h-130v-65h140v-113h-122v-64h122v-107h-134v-64h134v-92h67v92h122v64h-122v107h117v64h-117v113h121v65zM802 723h-238c30 33 70 63 117 88c48 -24 89 -54 121 -88zM862 665l43 23c-36 63 -90 114 -155 155
c65 25 141 45 218 55c-15 15 -33 42 -42 59c-88 -15 -172 -42 -246 -78c-82 38 -176 64 -269 79c-6 -17 -21 -45 -33 -60c81 -10 163 -29 236 -56c-47 -32 -88 -67 -119 -108l31 -11h-106v-55h429z" />
</svg>
