<?xml version="1.0" standalone="no"?>
<!DOCTYPE svg PUBLIC "-//W3C//DTD SVG 1.1//EN" "http://www.w3.org/Graphics/SVG/1.1/DTD/svg11.dtd" >
<svg xmlns="http://www.w3.org/2000/svg" xmlns:xlink="http://www.w3.org/1999/xlink" version="1.1" viewBox="-10 0 1010 1000">
   <path fill="currentColor"
d="M174 562v163c41 -6 84 -13 129 -21v-142h-129zM303 154h-129v140h129v-140zM174 357v143h129v-143h-129zM424 684l4 65l-58 10v198h-67v-186c-90 15 -177 31 -246 43l-16 -70c21 -3 42 -6 67 -10v-580h-56v-68h385v68h-67v539zM835 531l13 -4l53 17
c-46 113 -121 280 -183 408l-72 -21c51 -101 112 -235 154 -330h-331v-70h366zM596 335l56 -30c39 45 85 104 108 143l-58 36c-22 -39 -68 -103 -106 -149zM661 32l66 23c-6 11 -12 23 -18 35c58 86 164 203 258 268c-16 13 -40 41 -51 59c-87 -68 -181 -184 -239 -269
c-61 103 -141 200 -234 273c-11 -15 -36 -41 -52 -53c115 -86 217 -217 270 -336z" />
</svg>
