<?xml version="1.0" standalone="no"?>
<!DOCTYPE svg PUBLIC "-//W3C//DTD SVG 1.1//EN" "http://www.w3.org/Graphics/SVG/1.1/DTD/svg11.dtd" >
<svg xmlns="http://www.w3.org/2000/svg" xmlns:xlink="http://www.w3.org/1999/xlink" version="1.1" viewBox="-10 0 1010 1000">
   <path fill="currentColor"
d="M184 562v162c46 -8 94 -14 144 -22v-140h-144zM328 155h-144v139h144v-139zM184 357v142h144v-142h-144zM465 747l-68 11v198h-69v-186c-99 17 -195 33 -272 45l-13 -71c22 -3 47 -6 73 -10v-579h-66v-68h417v68h-70v535l64 -10zM767 858h194v70h-535v-70h86v-588h71v588
h111v-813h73v357h174v71h-174v385z" />
</svg>
