<?xml version="1.0" standalone="no"?>
<!DOCTYPE svg PUBLIC "-//W3C//DTD SVG 1.1//EN" "http://www.w3.org/Graphics/SVG/1.1/DTD/svg11.dtd" >
<svg xmlns="http://www.w3.org/2000/svg" xmlns:xlink="http://www.w3.org/1999/xlink" version="1.1" viewBox="-10 0 1010 1000">
   <path fill="currentColor"
d="M172 562v163c44 -7 92 -15 141 -23v-140h-141zM313 154h-141v140h141v-140zM172 357v143h141v-143h-141zM436 748l-56 10v199h-67v-187c-95 15 -186 31 -259 44l-15 -70l67 -10v-580h-60v-68h393v68h-59v538l52 -8zM936 292h-310c-22 269 -61 499 -151 664
c-12 -11 -46 -37 -63 -47c86 -148 123 -366 142 -617h-113v-73h118c3 -55 6 -112 8 -169l73 2c-3 57 -6 113 -10 167h306v73zM963 933l-67 23c-4 -26 -11 -56 -21 -89c-245 32 -279 37 -297 48c-4 -14 -16 -50 -25 -68c18 -6 34 -40 53 -88c21 -46 84 -226 112 -387l74 17
c-35 154 -91 318 -147 442l211 -25c-21 -64 -49 -131 -76 -188l61 -21c54 106 103 244 122 336z" />
</svg>
