<?xml version="1.0" standalone="no"?>
<!DOCTYPE svg PUBLIC "-//W3C//DTD SVG 1.1//EN" "http://www.w3.org/Graphics/SVG/1.1/DTD/svg11.dtd" >
<svg xmlns="http://www.w3.org/2000/svg" xmlns:xlink="http://www.w3.org/1999/xlink" version="1.1" viewBox="-10 0 1010 1000">
   <path fill="currentColor"
d="M551 598l49 -15c24 58 49 134 59 188c43 -123 58 -279 63 -450h-89l21 11c-53 139 -122 280 -191 390l121 -25c-10 -33 -22 -68 -33 -99zM169 563v158c35 -7 71 -15 109 -23v-135h-109zM278 154h-109v140h109v-140zM169 357v143h109v-143h-109zM786 257h153s0 26 -1 35
c-12 444 -22 582 -51 624c-15 24 -32 31 -56 35c-21 2 -51 3 -82 0c-1 -18 -8 -44 -17 -61c31 2 58 2 72 2c12 0 20 -2 28 -16c20 -30 32 -165 43 -555h-91c-8 268 -38 499 -156 641c-10 -14 -33 -35 -50 -43c29 -36 53 -77 73 -124l-42 15c-2 -16 -5 -35 -10 -55
c-168 39 -192 47 -208 57c-2 -14 -11 -48 -18 -69l-31 8v206h-64v-192c-80 17 -158 35 -222 49l-15 -70c20 -3 41 -7 65 -12v-578h-55v-68h348v68h-57v530l32 -6l5 60c16 -10 33 -36 54 -74c17 -27 59 -107 101 -202c-96 12 -117 16 -128 23c-3 -15 -12 -52 -19 -72
c14 -3 27 -27 41 -63c17 -33 67 -166 93 -289l62 28c-30 110 -73 227 -115 316l92 -8c13 -31 25 -63 36 -95l34 17v-62h94c1 -69 1 -140 1 -213h63c0 73 -1 144 -2 213z" />
</svg>
