<?xml version="1.0" standalone="no"?>
<!DOCTYPE svg PUBLIC "-//W3C//DTD SVG 1.1//EN" "http://www.w3.org/Graphics/SVG/1.1/DTD/svg11.dtd" >
<svg xmlns="http://www.w3.org/2000/svg" xmlns:xlink="http://www.w3.org/1999/xlink" version="1.1" viewBox="-10 0 1010 1000">
   <path fill="currentColor"
d="M174 562v163c41 -6 84 -13 129 -21v-142h-129zM303 154h-129v140h129v-140zM174 357v143h129v-143h-129zM423 684l4 65l-56 10v198h-68v-186l-247 43l-15 -70c21 -3 42 -6 67 -10v-580h-56v-68h384v68h-65v539zM837 649h-302v198h302v-198zM465 957v-375h445v373h-73v-40
h-302v42h-70zM714 431h243v68h-553v-68h238v-160h-117c-15 44 -32 84 -51 116c-14 -10 -46 -26 -64 -34c44 -68 74 -174 90 -275l72 12c-7 39 -15 77 -26 113h96v-159h72v159h211v68h-211v160z" />
</svg>
