<?xml version="1.0" standalone="no"?>
<!DOCTYPE svg PUBLIC "-//W3C//DTD SVG 1.1//EN" "http://www.w3.org/Graphics/SVG/1.1/DTD/svg11.dtd" >
<svg xmlns="http://www.w3.org/2000/svg" xmlns:xlink="http://www.w3.org/1999/xlink" version="1.1" viewBox="-10 0 1010 1000">
   <path fill="currentColor"
d="M835 426v-246h-195v246h195zM907 115v376h-336v-376h336zM202 374v73c62 -3 129 -7 199 -12v-61h-199zM401 138h-199v63h199v-63zM202 253v69h199v-69h-199zM46 456l89 -5v-313h-73v-59h455v59h-48v293l56 -4l-1 56l-55 4v69h-68v-63c-129 10 -255 19 -347 25zM536 874
h421v63h-912v-63h417v-87h-300v-61h300v-83h-346v-61h766v61h-346v83h298v61h-298v87z" />
</svg>
