<?xml version="1.0" standalone="no"?>
<!DOCTYPE svg PUBLIC "-//W3C//DTD SVG 1.1//EN" "http://www.w3.org/Graphics/SVG/1.1/DTD/svg11.dtd" >
<svg xmlns="http://www.w3.org/2000/svg" xmlns:xlink="http://www.w3.org/1999/xlink" version="1.1" viewBox="-10 0 1010 1000">
   <path fill="currentColor"
d="M951 145l-46 40c-22 -29 -69 -74 -111 -105l44 -35c42 28 90 72 113 100zM174 562v159c38 -7 78 -15 120 -23v-136h-120zM294 154h-120v140h120v-140zM174 357v143h120v-143h-120zM419 740l-58 12v205h-67v-191c-86 16 -169 34 -236 48l-17 -70c21 -3 42 -7 67 -11v-579
h-56v-68h363v68h-54v531l52 -9zM671 679l9 58c-98 33 -200 66 -281 92l-23 -65c74 -20 186 -53 295 -85zM592 572v-161h-112v161h112zM423 354h229v276h-229v-276zM876 358l65 14c-33 121 -78 228 -134 321c22 124 51 199 82 199c16 0 25 -42 29 -141c14 16 35 30 51 37
c-11 128 -30 171 -88 171c-57 0 -96 -73 -126 -191c-56 73 -121 136 -196 186c-11 -13 -38 -37 -53 -48c94 -57 170 -134 231 -226c-19 -116 -31 -261 -37 -420h-308v-66h306c-2 -49 -2 -99 -3 -150h68c0 51 0 101 1 150h189v66h-187c5 122 14 234 25 327
c35 -70 63 -146 85 -229z" />
</svg>
