<?xml version="1.0" standalone="no"?>
<!DOCTYPE svg PUBLIC "-//W3C//DTD SVG 1.1//EN" "http://www.w3.org/Graphics/SVG/1.1/DTD/svg11.dtd" >
<svg xmlns="http://www.w3.org/2000/svg" xmlns:xlink="http://www.w3.org/1999/xlink" version="1.1" viewBox="-10 0 1010 1000">
   <path fill="currentColor"
d="M511 236v101h-65v-164h219c-5 -35 -16 -77 -28 -113l63 -15c17 40 29 90 33 128h206v163h-67v-100h-361zM179 562v162c42 -7 88 -14 135 -22v-140h-135zM314 154h-135v140h135v-140zM179 357v143h135v-143h-135zM434 748l-53 10v199h-67v-188c-95 17 -187 32 -260 44
l-14 -69l73 -11v-579h-61v-68h388v68h-59v537l49 -8zM822 869h146c-10 17 -21 50 -23 70h-128c-126 0 -227 -29 -289 -164c-20 72 -49 136 -95 184c-10 -17 -31 -39 -47 -50c84 -84 102 -244 108 -390h67c-3 51 -7 103 -14 153c25 84 63 133 110 162v-397h-184v-65h436v65
h-182v155h179v65h-179v203c29 7 62 9 95 9z" />
</svg>
