<?xml version="1.0" standalone="no"?>
<!DOCTYPE svg PUBLIC "-//W3C//DTD SVG 1.1//EN" "http://www.w3.org/Graphics/SVG/1.1/DTD/svg11.dtd" >
<svg xmlns="http://www.w3.org/2000/svg" xmlns:xlink="http://www.w3.org/1999/xlink" version="1.1" viewBox="-10 0 1010 1000">
   <path fill="currentColor"
d="M294 294v-140h-127v140h127zM167 562v163c40 -6 83 -13 127 -20v-143h-127zM294 500v-143h-127v143h127zM47 154v-68h367v68h-55v540l48 -8l3 64l-51 10v197h-65v-185c-88 15 -173 30 -243 42l-15 -70c20 -3 42 -6 66 -10v-580h-55zM418 649v-150h533v150h-67v-90h-402
v70h398v61h-164v188c0 37 -7 54 -36 64c-27 11 -70 11 -135 11c-3 -19 -13 -44 -22 -62c49 1 92 1 104 0c13 0 17 -3 17 -14v-187h-162v-41h-64zM809 392v-81h-257v81h257zM485 256h395v190h-395v-190zM738 142h221v62h-532v-62h231c-12 -27 -28 -58 -42 -82l67 -20
c20 31 43 72 55 102z" />
</svg>
