<?xml version="1.0" standalone="no"?>
<!DOCTYPE svg PUBLIC "-//W3C//DTD SVG 1.1//EN" "http://www.w3.org/Graphics/SVG/1.1/DTD/svg11.dtd" >
<svg xmlns="http://www.w3.org/2000/svg" xmlns:xlink="http://www.w3.org/1999/xlink" version="1.1" viewBox="-10 0 1010 1000">
   <path fill="currentColor"
d="M285 294v-140h-121v140h121zM164 562v163c38 -6 79 -13 121 -21v-142h-121zM285 500v-143h-121v143h121zM51 154v-68h355v68h-60v539l49 -9l4 65l-53 10v198h-61v-186l-230 43l-14 -70c19 -3 40 -6 63 -10v-580h-53zM509 406h130v-117h-130v117zM840 289h-139v117h139
v-117zM924 548v337c0 34 -6 51 -30 61c-21 11 -57 11 -112 11c-3 -18 -12 -41 -19 -58c38 1 74 1 84 0c10 0 14 -3 14 -14v-273h-160v119l74 -7c-11 -22 -21 -45 -33 -65l39 -17c33 54 63 126 74 174l-42 19c-4 -16 -10 -35 -16 -55c-103 11 -208 23 -286 30l-8 -62
c38 -3 84 -7 136 -11v-125h-154v343h-62v-407h216v-81h-190v-239h190v-79c-65 7 -131 11 -193 14c-2 -17 -10 -43 -18 -59c151 -9 333 -29 433 -56l51 57c-59 15 -133 27 -211 37v86h201v239h-201v81h223z" />
</svg>
