<?xml version="1.0" standalone="no"?>
<!DOCTYPE svg PUBLIC "-//W3C//DTD SVG 1.1//EN" "http://www.w3.org/Graphics/SVG/1.1/DTD/svg11.dtd" >
<svg xmlns="http://www.w3.org/2000/svg" xmlns:xlink="http://www.w3.org/1999/xlink" version="1.1" viewBox="-10 0 1010 1000">
   <path fill="currentColor"
d="M955 481l-47 23c-4 -15 -10 -33 -17 -54c-169 23 -195 29 -210 37c-2 -14 -11 -47 -18 -64c17 -3 36 -19 56 -45c13 -12 41 -47 71 -90c-85 6 -105 11 -116 16c-3 -15 -12 -49 -19 -67c13 -3 25 -15 38 -33c14 -17 60 -87 84 -156l57 26c-29 62 -65 123 -100 168l89 -4
c15 -24 31 -50 43 -75l52 27c-49 82 -105 164 -161 227l116 -13c-8 -23 -16 -44 -25 -64l44 -16c23 52 51 118 63 157zM655 490l-49 17c-3 -14 -8 -31 -12 -49c-172 20 -197 25 -212 33c-3 -15 -11 -47 -18 -65c17 -3 36 -19 58 -45c13 -13 42 -47 74 -91
c-77 7 -95 11 -106 16c-2 -15 -12 -48 -18 -67c13 -2 25 -14 37 -31c13 -18 59 -88 84 -155l57 23c-29 61 -66 123 -101 168l82 -4c15 -23 30 -48 43 -72l53 27c-52 83 -113 165 -171 227l123 -12c-7 -23 -15 -46 -23 -67l47 -12c20 51 43 121 52 159zM170 726l103 -17v-147
h-103v164zM273 154h-103v140h103v-140zM170 357v143h103v-143h-103zM383 757l-46 8v192h-64v-180c-79 13 -154 26 -217 37l-15 -70c21 -3 42 -6 67 -10v-580h-56v-68h328v68h-43v544l41 -7zM939 674h-228c53 92 149 172 254 207c-15 14 -37 41 -47 60
c-102 -42 -194 -124 -252 -223c-32 76 -103 156 -254 223c-10 -16 -32 -39 -50 -51c163 -65 224 -145 246 -216h-222v-68h235c1 -11 1 -22 1 -31v-55h71v56c0 9 0 19 -1 30h247v68z" />
</svg>
