<?xml version="1.0" standalone="no"?>
<!DOCTYPE svg PUBLIC "-//W3C//DTD SVG 1.1//EN" "http://www.w3.org/Graphics/SVG/1.1/DTD/svg11.dtd" >
<svg xmlns="http://www.w3.org/2000/svg" xmlns:xlink="http://www.w3.org/1999/xlink" version="1.1" viewBox="-10 0 1010 1000">
   <path fill="currentColor"
d="M575 212l-15 13c-17 -17 -47 -42 -75 -63c-32 42 -72 75 -116 101c-11 -10 -37 -31 -51 -41c76 -38 134 -98 157 -178l63 10c-6 22 -14 43 -25 62c33 22 70 49 91 70l-26 23c78 -36 136 -90 157 -166l66 8c-7 24 -16 46 -27 66c54 28 117 66 151 94l-43 46
c-31 -27 -88 -65 -140 -94c-22 25 -47 47 -74 66h12v59h196v49h-196v78c20 1 42 1 65 1h205c-9 13 -17 38 -19 52h-189c-138 0 -229 -16 -288 -87c-24 43 -57 78 -97 105c-11 -11 -37 -31 -54 -40c73 -42 114 -106 127 -193l65 6c-4 26 -10 50 -18 73c30 44 75 66 134 76
v-169c-11 -10 -26 -21 -36 -27zM245 43l63 25c-54 56 -138 114 -209 150c-9 -13 -28 -37 -40 -48c65 -31 145 -82 186 -127zM180 482v-157c-31 20 -62 38 -93 53c-9 -14 -29 -38 -42 -50c81 -36 171 -98 214 -155l66 24c-21 26 -48 52 -77 77v208h-68zM718 612v-53h-438v53
h438zM280 765v61c133 -3 285 -6 438 -11v-50h-438zM718 715v-53h-438v53h438zM68 559v-54h867v54h-145v254l142 -4l-4 57l-138 5v86h-72v-84c-245 8 -485 15 -653 18l-3 -62c44 0 94 -1 148 -2v-268h-142z" />
</svg>
