<?xml version="1.0" standalone="no"?>
<!DOCTYPE svg PUBLIC "-//W3C//DTD SVG 1.1//EN" "http://www.w3.org/Graphics/SVG/1.1/DTD/svg11.dtd" >
<svg xmlns="http://www.w3.org/2000/svg" xmlns:xlink="http://www.w3.org/1999/xlink" version="1.1" viewBox="-10 0 1010 1000">
   <path fill="currentColor"
d="M534 250h55v71c0 19 5 22 35 22h108c21 0 26 -6 28 -51c12 8 33 16 49 19c-6 65 -24 82 -70 82h-120c-69 0 -85 -15 -85 -71v-72zM731 281l-39 36c-20 -29 -62 -72 -96 -98l37 -32c36 27 78 67 98 94zM935 359l-47 30c-20 -34 -62 -85 -97 -121l45 -27
c36 35 79 85 99 118zM452 182v83h-61v-139h243c-10 -23 -23 -48 -35 -69l63 -18c18 27 37 62 48 87h223v139h-62v-83h-419zM441 391l-46 -35c26 -25 56 -70 73 -104l46 27c-18 34 -47 80 -73 112zM165 562v164c34 -6 70 -12 107 -19v-145h-107zM272 154h-107v140h107v-140z
M165 357v143h107v-143h-107zM370 690l4 65l-41 8v194h-61v-183c-79 15 -155 29 -217 40l-14 -70c20 -3 40 -6 64 -10v-580h-55v-68h322v68h-39v543zM388 742v-57h550v57h-230v135c0 35 -7 52 -34 63c-26 11 -67 10 -132 10c-3 -19 -12 -43 -20 -62c47 2 90 2 102 1
c13 0 16 -4 16 -14v-133h-252zM489 481v96h82v-96h-82zM703 481h-81v96h81v-96zM837 481h-83v96h83v-96zM893 577h64v57h-589v-57h67v-149h458v149z" />
</svg>
