<?xml version="1.0" standalone="no"?>
<!DOCTYPE svg PUBLIC "-//W3C//DTD SVG 1.1//EN" "http://www.w3.org/Graphics/SVG/1.1/DTD/svg11.dtd" >
<svg xmlns="http://www.w3.org/2000/svg" xmlns:xlink="http://www.w3.org/1999/xlink" version="1.1" viewBox="-10 0 1010 1000">
   <path fill="currentColor"
d="M952 557v65h-524v-65h524zM601 657l49 -24c46 42 94 104 113 144l-53 30c-20 -43 -67 -108 -109 -150zM211 762v72c28 -4 57 -8 88 -12l1 53c-87 12 -173 25 -244 34l-8 -57c31 -3 67 -7 106 -12v-78h-78v-51h78v-69h-90v-52h229v52h-82v69h73v51h-73zM321 223v-75h-143
v75h143zM178 397v83c45 -3 93 -7 143 -10v-73h-143zM321 346v-73h-143v73h143zM726 442v-122h-80v122h80zM774 320v122h84v-122h-84zM598 442v-122h-78v122h78zM442 148h-52v809h-69v-430c-96 9 -191 17 -266 22l-8 -61l64 -4v-336h-61v-62h396l-1 45h205
c4 -29 8 -59 11 -85l65 5c-4 25 -8 53 -12 80h224v60h-234c-4 26 -9 50 -13 72h227v235h-455v-235h165c4 -22 8 -46 12 -72h-198v-43zM449 911l-51 -32c34 -44 64 -120 80 -175l52 21c-18 59 -47 136 -81 186zM651 882h109c27 0 32 -10 35 -91c14 11 40 20 58 24
c-7 101 -26 125 -85 125h-124c-75 0 -94 -17 -94 -81v-152h64v151c0 21 5 24 37 24zM799 707l52 -24c52 57 98 135 115 189l-57 26c-15 -55 -59 -134 -110 -191z" />
</svg>
