<?xml version="1.0" standalone="no"?>
<!DOCTYPE svg PUBLIC "-//W3C//DTD SVG 1.1//EN" "http://www.w3.org/Graphics/SVG/1.1/DTD/svg11.dtd" >
<svg xmlns="http://www.w3.org/2000/svg" xmlns:xlink="http://www.w3.org/1999/xlink" version="1.1" viewBox="-10 0 1010 1000">
   <path fill="currentColor"
d="M177 550h144v-166h-142v54c0 34 -1 72 -2 112zM321 151h-142v162h142v-162zM856 876h26c7 0 15 -2 20 -7s8 -15 10 -30c2 -22 3 -75 2 -138c14 14 37 26 56 31c-1 57 -4 126 -9 151c-4 26 -13 41 -26 51s-32 15 -49 15h-47c-21 0 -40 -5 -56 -20c-15 -14 -19 -31 -19 -83
v-499h-130c-1 207 -21 434 -193 612c-14 -15 -39 -34 -58 -43c-6 12 -15 21 -28 28c-25 12 -65 14 -132 13c-2 -19 -12 -50 -22 -70c46 2 89 2 102 1s18 -5 18 -20v-247h-148c-9 118 -29 243 -75 337c-13 -12 -43 -29 -61 -36c69 -140 74 -338 74 -485v-357h279v789
c0 17 -2 31 -6 42c162 -166 180 -374 181 -564h-128v-71h128v-232h69v232h200v576c0 7 2 14 6 17c4 4 11 7 16 7z" />
</svg>
