<?xml version="1.0" standalone="no"?>
<!DOCTYPE svg PUBLIC "-//W3C//DTD SVG 1.1//EN" "http://www.w3.org/Graphics/SVG/1.1/DTD/svg11.dtd" >
<svg xmlns="http://www.w3.org/2000/svg" xmlns:xlink="http://www.w3.org/1999/xlink" version="1.1" viewBox="-10 0 1010 1000">
   <path fill="currentColor"
d="M718 795l-51 43c-42 -36 -117 -93 -183 -138c-40 61 -107 109 -216 141c-7 -16 -26 -42 -39 -54c159 -38 215 -113 238 -210h66c-5 25 -12 47 -21 69c70 46 159 110 206 149zM861 400v460c0 41 -9 61 -37 72c-29 11 -76 12 -148 12c-3 -20 -12 -47 -22 -67
c55 2 103 2 117 1c15 -1 19 -5 19 -18v-399h-238c68 42 145 92 188 124l-45 44c-49 -39 -139 -100 -214 -145c-39 68 -104 120 -209 155c-6 -15 -24 -38 -39 -50c94 -29 151 -72 185 -128h-213v494h-71v-555h313c12 -35 19 -74 24 -116h67c-5 42 -12 81 -22 116h345zM390 88
l37 -54c229 82 248 255 536 312c-8 17 -20 47 -22 67c-237 -46 -307 -183 -441 -272c-95 117 -255 219 -410 265c-11 -20 -29 -46 -46 -64c153 -36 308 -127 397 -233c-16 -8 -33 -15 -51 -21z" />
</svg>
