<?xml version="1.0" standalone="no"?>
<!DOCTYPE svg PUBLIC "-//W3C//DTD SVG 1.1//EN" "http://www.w3.org/Graphics/SVG/1.1/DTD/svg11.dtd" >
<svg xmlns="http://www.w3.org/2000/svg" xmlns:xlink="http://www.w3.org/1999/xlink" version="1.1" viewBox="-10 0 1010 1000">
   <path fill="currentColor"
d="M177 550h157v-168h-155v56c0 34 -1 72 -2 112zM334 149h-155v164h155v-164zM403 80v779c0 40 -9 62 -34 75c-26 12 -65 14 -132 14c-2 -19 -12 -52 -22 -71c47 2 88 1 100 1c14 -1 19 -6 19 -19v-238h-161c-9 118 -29 242 -75 337c-13 -12 -43 -29 -61 -36
c69 -140 74 -338 74 -484v-358h292zM748 636l-56 47c-36 -61 -118 -154 -192 -217l52 -43c74 63 159 151 196 213zM921 228v38c-14 448 -26 598 -64 646c-22 28 -43 36 -79 40c-32 3 -89 2 -145 -1c-1 -21 -9 -51 -23 -71c63 5 119 5 143 5c19 1 29 -2 39 -15
c31 -33 45 -182 56 -573h-289c-25 55 -52 105 -82 145c-13 -11 -46 -31 -63 -41c69 -87 124 -222 157 -357l71 13c-15 59 -33 117 -54 171h333z" />
</svg>
