<?xml version="1.0" standalone="no"?>
<!DOCTYPE svg PUBLIC "-//W3C//DTD SVG 1.1//EN" "http://www.w3.org/Graphics/SVG/1.1/DTD/svg11.dtd" >
<svg xmlns="http://www.w3.org/2000/svg" xmlns:xlink="http://www.w3.org/1999/xlink" version="1.1" viewBox="-10 0 1010 1000">
   <path fill="currentColor"
d="M800 57l68 31c-84 98 -218 190 -340 247c-12 -17 -34 -40 -52 -54c117 -50 251 -137 324 -224zM842 316l71 31c-88 112 -230 214 -367 276c-12 -18 -33 -41 -52 -57c131 -53 274 -149 348 -250zM180 550h181v-167h-179v54c0 35 0 73 -2 113zM361 151h-179v161h179v-161z
M431 80v786c0 40 -8 63 -34 77c-26 11 -67 13 -135 13c-2 -19 -12 -53 -22 -72c46 1 88 1 102 0c13 0 19 -4 19 -19v-245h-185c-9 119 -29 244 -77 338c-13 -12 -44 -29 -62 -36c71 -139 77 -338 77 -485v-357h317zM877 598l72 27c-95 152 -264 267 -459 332
c-10 -17 -29 -44 -47 -61c185 -55 350 -162 434 -298z" />
</svg>
