<?xml version="1.0" standalone="no"?>
<!DOCTYPE svg PUBLIC "-//W3C//DTD SVG 1.1//EN" "http://www.w3.org/Graphics/SVG/1.1/DTD/svg11.dtd" >
<svg xmlns="http://www.w3.org/2000/svg" xmlns:xlink="http://www.w3.org/1999/xlink" version="1.1" viewBox="-10 0 1010 1000">
   <path fill="currentColor"
d="M900 104v70h-444v-70h444zM164 552h146v-170h-144v55c0 35 0 74 -2 115zM310 148h-144v166h144v-166zM377 80v782c0 38 -8 60 -32 71c-24 13 -61 15 -124 15c-3 -19 -12 -50 -22 -69c44 1 83 1 94 1c12 -1 17 -6 17 -19v-240h-150c-8 117 -27 241 -69 336
c-13 -11 -42 -29 -60 -35c64 -140 68 -338 68 -484v-358h278zM951 399h-344c-10 51 -23 107 -34 155h346l-3 34c-18 212 -36 299 -72 332c-23 23 -47 29 -86 32c-37 1 -107 1 -181 -4c-2 -22 -13 -51 -28 -71c78 6 156 7 184 7c23 0 37 -1 48 -10c27 -20 42 -91 57 -249
h-359c18 -60 40 -149 55 -226h-120v-71h537v71z" />
</svg>
