<?xml version="1.0" standalone="no"?>
<!DOCTYPE svg PUBLIC "-//W3C//DTD SVG 1.1//EN" "http://www.w3.org/Graphics/SVG/1.1/DTD/svg11.dtd" >
<svg xmlns="http://www.w3.org/2000/svg" xmlns:xlink="http://www.w3.org/1999/xlink" version="1.1" viewBox="-10 0 1010 1000">
   <path fill="currentColor"
d="M176 550h151v-169h-149v56c0 34 -1 72 -2 113zM327 148h-149v165h149v-165zM397 80v789c0 39 -8 59 -32 71c-23 13 -59 14 -117 14c-2 -19 -11 -50 -20 -69c38 1 73 0 84 0s15 -4 15 -17v-250h-155c-9 119 -28 245 -75 341c-12 -12 -43 -30 -61 -37
c68 -140 74 -338 74 -485v-357h287zM948 542h-232c40 163 122 293 252 354c-17 14 -39 42 -51 62c-115 -64 -191 -177 -240 -322c-32 118 -99 230 -231 322c-10 -18 -33 -44 -49 -55c147 -101 205 -230 227 -361h-204v-69h212c4 -41 5 -81 5 -121v-55h-195v-69h195v-182h72
v182h217v69h-217v56c0 40 -1 80 -4 120h243v69z" />
</svg>
