<?xml version="1.0" standalone="no"?>
<!DOCTYPE svg PUBLIC "-//W3C//DTD SVG 1.1//EN" "http://www.w3.org/Graphics/SVG/1.1/DTD/svg11.dtd" >
<svg xmlns="http://www.w3.org/2000/svg" xmlns:xlink="http://www.w3.org/1999/xlink" version="1.1" viewBox="-10 0 1010 1000">
   <path fill="currentColor"
d="M174 544h142v-169h-140v59c0 34 0 71 -2 110zM316 142h-140v165h140v-165zM386 74v784c0 41 -9 63 -34 75c-26 13 -65 15 -132 15c-2 -20 -12 -53 -21 -73c46 2 87 2 99 2c13 -1 18 -6 18 -20v-243h-145c-9 120 -28 247 -72 344c-14 -12 -43 -29 -61 -35
c65 -141 70 -342 70 -489v-360h278zM657 163h-122v287h122v-287zM842 450v-287h-121v287h121zM605 869h211c57 0 67 -36 74 -179c19 12 48 25 69 30c-12 163 -34 220 -139 220h-220c-103 0 -137 -28 -137 -138v-710h451v482h-72v-53h-307v282c0 54 11 66 70 66z" />
</svg>
