<?xml version="1.0" standalone="no"?>
<!DOCTYPE svg PUBLIC "-//W3C//DTD SVG 1.1//EN" "http://www.w3.org/Graphics/SVG/1.1/DTD/svg11.dtd" >
<svg xmlns="http://www.w3.org/2000/svg" xmlns:xlink="http://www.w3.org/1999/xlink" version="1.1" viewBox="-10 0 1010 1000">
   <path fill="currentColor"
d="M273 478l31 22v-96l-42 25c-16 -37 -53 -89 -90 -131v147c0 55 -1 119 -6 184c39 -43 84 -104 107 -151zM304 159h-132v122l36 -21c36 36 74 85 96 123v-224zM715 90l71 -10c32 180 81 284 188 374c-19 15 -42 40 -53 64c-12 -12 -25 -24 -37 -35v2
c-15 290 -27 394 -56 429c-18 21 -36 29 -63 31c-25 3 -68 3 -112 0c-2 -21 -9 -49 -20 -68c43 4 82 4 99 4c15 0 23 -1 33 -12c20 -23 33 -112 45 -349h-174c-23 208 -83 348 -215 441c-10 -15 -35 -43 -51 -55c123 -76 175 -205 192 -386h-111v-38c-9 8 -19 17 -30 26
c-10 -11 -32 -29 -49 -41v390c0 39 -8 61 -33 73c-24 12 -62 14 -128 14c-2 -19 -11 -51 -20 -70c45 1 84 1 95 0c13 0 18 -4 18 -18v-320c-29 50 -68 99 -106 138c-7 -10 -21 -22 -33 -32c-9 113 -28 230 -71 321c-13 -12 -42 -29 -59 -36c66 -139 71 -336 71 -481v-355
h266v362c105 -77 162 -203 185 -363l73 6c-24 150 -73 268 -149 355h376c-75 -92 -115 -202 -142 -361z" />
</svg>
