<?xml version="1.0" standalone="no"?>
<!DOCTYPE svg PUBLIC "-//W3C//DTD SVG 1.1//EN" "http://www.w3.org/Graphics/SVG/1.1/DTD/svg11.dtd" >
<svg xmlns="http://www.w3.org/2000/svg" xmlns:xlink="http://www.w3.org/1999/xlink" version="1.1" viewBox="-10 0 1010 1000">
   <path fill="currentColor"
d="M170 552h130v-170h-128v56c0 35 0 74 -2 114zM300 148h-128v166h128v-166zM368 80v786c0 39 -8 61 -33 73c-24 13 -62 14 -127 14c-2 -19 -12 -51 -20 -70c44 2 83 1 95 1c12 -1 17 -5 17 -19v-244h-134c-8 118 -27 242 -72 338c-13 -12 -42 -29 -59 -35
c66 -140 71 -339 71 -485v-359h262zM950 292h-352c-22 264 -62 490 -152 655c-13 -13 -48 -37 -64 -48c86 -145 124 -361 144 -607h-129v-73h134c4 -55 7 -111 9 -168l74 2c-3 57 -6 112 -10 166h346v73zM954 931l-70 26c-5 -27 -14 -56 -24 -90c-246 32 -278 38 -299 49
c-3 -15 -15 -52 -24 -69c19 -6 34 -41 55 -90c20 -46 87 -232 116 -399l77 18c-38 158 -95 327 -154 455l208 -24c-21 -64 -48 -131 -71 -188l66 -22c46 107 98 244 120 334z" />
</svg>
