<?xml version="1.0" standalone="no"?>
<!DOCTYPE svg PUBLIC "-//W3C//DTD SVG 1.1//EN" "http://www.w3.org/Graphics/SVG/1.1/DTD/svg11.dtd" >
<svg xmlns="http://www.w3.org/2000/svg" xmlns:xlink="http://www.w3.org/1999/xlink" version="1.1" viewBox="-10 0 1010 1000">
   <path fill="currentColor"
d="M746 626v-71h-420v71h420zM326 757h420v-78h-420v78zM939 418h-535c-18 26 -39 52 -60 76h475v385c0 41 -11 59 -43 69c-32 11 -86 10 -172 10c-5 -18 -17 -41 -27 -59c66 2 129 2 145 2c18 -1 24 -6 24 -22v-68h-420v146h-73v-374c-50 42 -106 78 -168 108
c-9 -17 -30 -44 -44 -59c112 -50 206 -126 274 -214h-248v-67h294c19 -31 36 -65 48 -97c-84 23 -170 42 -251 57c-10 -16 -32 -47 -47 -61c112 -17 229 -40 338 -71c-94 -31 -188 -57 -273 -78l50 -46c100 23 217 54 328 89c81 -29 154 -63 210 -103l62 37
c-52 36 -113 68 -181 97c82 28 157 56 214 83l-55 55c-63 -31 -154 -67 -255 -102c-39 14 -78 25 -118 37l58 14c-13 30 -28 60 -43 89h493v67z" />
</svg>
