<?xml version="1.0" standalone="no"?>
<!DOCTYPE svg PUBLIC "-//W3C//DTD SVG 1.1//EN" "http://www.w3.org/Graphics/SVG/1.1/DTD/svg11.dtd" >
<svg xmlns="http://www.w3.org/2000/svg" xmlns:xlink="http://www.w3.org/1999/xlink" version="1.1" viewBox="-10 0 1010 1000">
   <path fill="currentColor"
d="M867 262h-304c-25 78 -55 147 -92 200c-14 -12 -44 -33 -62 -43c68 -88 107 -227 127 -373l73 10c-8 48 -17 94 -28 138h306l13 -3l50 15c-18 80 -41 174 -65 233l-59 -20c13 -40 29 -100 41 -157zM167 554h144v-174h-142v57c0 36 0 76 -2 117zM311 148h-142v163h142
v-163zM379 80v782c0 39 -8 61 -33 73c-24 13 -61 14 -125 14c-2 -19 -12 -51 -22 -70c44 1 83 1 94 1c13 -1 18 -6 18 -19v-238h-148c-8 116 -27 239 -69 334c-14 -11 -42 -29 -60 -35c64 -140 69 -338 69 -484v-358h276zM707 322v72c0 18 0 38 -1 58
c34 204 107 372 251 442c-17 15 -37 42 -48 61c-114 -64 -183 -179 -228 -327c-29 113 -93 231 -228 332c-10 -17 -37 -40 -53 -51c219 -160 236 -371 236 -516v-71h71z" />
</svg>
