<?xml version="1.0" standalone="no"?>
<!DOCTYPE svg PUBLIC "-//W3C//DTD SVG 1.1//EN" "http://www.w3.org/Graphics/SVG/1.1/DTD/svg11.dtd" >
<svg xmlns="http://www.w3.org/2000/svg" xmlns:xlink="http://www.w3.org/1999/xlink" version="1.1" viewBox="-10 0 1010 1000">
   <path fill="currentColor"
d="M170 563h134v-171h-132v53c0 36 -1 77 -2 118zM304 159h-132v165h132v-165zM719 92l62 -14c28 147 86 297 168 364c-17 13 -42 41 -54 59c-23 -21 -45 -49 -64 -81v2h-218c-12 56 -25 116 -38 168h279s-1 22 -3 33c-18 195 -36 274 -66 304c-19 20 -38 27 -68 29
c-26 2 -73 1 -123 -1c-1 -23 -9 -52 -22 -72c49 5 97 6 117 6c15 0 26 -2 36 -10c20 -19 36 -80 51 -226h-290c18 -62 40 -153 56 -231h-80v-2c-19 31 -42 60 -66 85c-5 -7 -14 -16 -24 -26v381c0 39 -8 60 -33 73c-24 12 -62 13 -126 13c-3 -18 -12 -50 -21 -69
c44 1 83 1 95 1c12 -1 17 -5 17 -20v-226h-138c-9 115 -27 237 -72 331c-13 -12 -42 -29 -59 -36c66 -139 71 -335 71 -481v-355h266v334c70 -84 118 -201 145 -331l68 13c-21 90 -49 175 -87 249h299c-35 -77 -60 -171 -78 -264z" />
</svg>
