<?xml version="1.0" standalone="no"?>
<!DOCTYPE svg PUBLIC "-//W3C//DTD SVG 1.1//EN" "http://www.w3.org/Graphics/SVG/1.1/DTD/svg11.dtd" >
<svg xmlns="http://www.w3.org/2000/svg" xmlns:xlink="http://www.w3.org/1999/xlink" version="1.1" viewBox="-10 0 1010 1000">
   <path fill="currentColor"
d="M169 562h133v-170h-131v53c0 36 0 76 -2 117zM302 159h-131v165h131v-165zM370 91v780c0 39 -9 61 -33 73c-25 12 -62 13 -127 13c-2 -18 -12 -51 -22 -69c44 2 84 1 96 1c13 -1 18 -5 18 -19v-239h-137c-8 116 -28 237 -72 331c-12 -12 -42 -28 -59 -35
c66 -139 71 -336 71 -481v-355h265zM951 541h-240c43 162 127 295 257 354c-17 14 -40 42 -52 62c-115 -61 -194 -173 -245 -315c-36 114 -107 225 -246 313c-11 -15 -35 -41 -51 -54c167 -98 228 -232 250 -360h-230v-70h239c4 -42 4 -82 4 -119v-60h-124
c-21 56 -46 106 -74 146c-13 -10 -43 -30 -60 -38c57 -77 96 -194 118 -315l69 13c-8 42 -18 84 -30 124h101v-170h71v170h208v70h-208v60c0 38 -1 78 -4 119h247v70z" />
</svg>
