<?xml version="1.0" standalone="no"?>
<!DOCTYPE svg PUBLIC "-//W3C//DTD SVG 1.1//EN" "http://www.w3.org/Graphics/SVG/1.1/DTD/svg11.dtd" >
<svg xmlns="http://www.w3.org/2000/svg" xmlns:xlink="http://www.w3.org/1999/xlink" version="1.1" viewBox="-10 0 1010 1000">
   <path fill="currentColor"
d="M160 552h141v-170h-139v55c0 35 -1 74 -2 115zM301 148h-139v166h139v-166zM369 80v782c0 38 -8 60 -33 73c-24 12 -61 14 -125 14c-3 -19 -12 -51 -21 -70c43 1 82 1 94 1c12 -1 17 -6 17 -19v-240h-145c-8 117 -28 242 -69 336c-14 -11 -43 -28 -60 -34
c63 -141 68 -339 68 -485v-358h274zM814 620h-294v226h294v-226zM451 957v-404h434v402h-71v-42h-294v44h-69zM721 216l59 -30c72 87 149 202 183 280l-62 34c-9 -21 -22 -46 -37 -72c-384 29 -429 33 -458 46c-4 -16 -16 -51 -24 -71c19 -4 40 -27 65 -64
c27 -34 111 -169 162 -296l75 22c-55 115 -120 228 -186 318l328 -21c-33 -51 -70 -103 -105 -146z" />
</svg>
