<?xml version="1.0" standalone="no"?>
<!DOCTYPE svg PUBLIC "-//W3C//DTD SVG 1.1//EN" "http://www.w3.org/Graphics/SVG/1.1/DTD/svg11.dtd" >
<svg xmlns="http://www.w3.org/2000/svg" xmlns:xlink="http://www.w3.org/1999/xlink" version="1.1" viewBox="-10 0 1010 1000">
   <path fill="currentColor"
d="M170 562h129v-170h-127v53c0 36 -1 76 -2 117zM299 159h-127v165h127v-165zM368 91v780c0 39 -9 61 -34 73s-63 13 -129 13c-2 -18 -12 -51 -22 -69c47 2 87 1 99 1c12 -1 17 -5 17 -19v-239h-133c-9 116 -29 238 -74 331c-12 -12 -41 -28 -58 -35
c66 -139 71 -336 71 -481v-355h263zM508 506h116c1 -26 2 -52 2 -79v-159h-118v238zM827 268h-130v159c0 27 -1 53 -2 79h132v-238zM959 574h-247c39 156 121 269 261 321c-17 14 -38 41 -49 60c-125 -54 -205 -152 -253 -290c-33 115 -103 216 -253 293
c-10 -16 -34 -42 -50 -54c169 -85 229 -201 249 -330h-233v-68h58v-305h184v-151h71v151h199v305h63v68z" />
</svg>
