<?xml version="1.0" standalone="no"?>
<!DOCTYPE svg PUBLIC "-//W3C//DTD SVG 1.1//EN" "http://www.w3.org/Graphics/SVG/1.1/DTD/svg11.dtd" >
<svg xmlns="http://www.w3.org/2000/svg" xmlns:xlink="http://www.w3.org/1999/xlink" version="1.1" viewBox="-10 0 1010 1000">
   <path fill="currentColor"
d="M841 480h-172c-94 0 -118 -23 -118 -104v-330h72v167c85 -28 175 -65 232 -94l50 54c-79 37 -186 72 -282 101v101c0 31 8 38 53 38h159c38 0 45 -17 50 -116c15 13 45 24 66 29c-9 120 -31 154 -110 154zM173 695h211v-91h-211v91zM384 460h-211v85h211v-85zM457 397
v474c0 38 -7 58 -35 70c-27 12 -70 13 -133 13c-4 -20 -14 -49 -24 -68c47 2 89 1 102 0c14 0 17 -3 17 -16v-117h-211v203h-69v-559h353zM313 128l61 -25c51 67 107 157 128 216l-65 29c-6 -16 -13 -33 -22 -53c-273 20 -307 25 -329 33c-4 -15 -15 -52 -24 -70
c15 -4 29 -18 46 -39s72 -100 104 -178l76 24c-34 66 -79 134 -122 187l219 -13c-22 -39 -48 -78 -72 -111zM679 882h161c41 0 49 -20 54 -131c16 11 45 23 66 27c-9 135 -31 170 -114 170h-174c-96 0 -121 -23 -121 -105v-335h73v157c90 -29 187 -67 243 -104l49 55
c-76 45 -191 83 -292 111v116c0 33 9 39 55 39z" />
</svg>
