<?xml version="1.0" standalone="no"?>
<!DOCTYPE svg PUBLIC "-//W3C//DTD SVG 1.1//EN" "http://www.w3.org/Graphics/SVG/1.1/DTD/svg11.dtd" >
<svg xmlns="http://www.w3.org/2000/svg" xmlns:xlink="http://www.w3.org/1999/xlink" version="1.1" viewBox="-10 0 1010 1000">
   <path fill="currentColor"
d="M740 208h-183c-23 41 -48 80 -74 115h189l-1 -1c23 -30 50 -74 69 -114zM834 571v-183h-128v183h128zM512 388v183h129v-183h-129zM166 552h130v-170h-128v55c0 35 0 74 -2 115zM296 148h-128v166h128v-166zM588 874h231c54 0 63 -23 70 -131c17 12 45 23 65 28
c-11 130 -33 169 -132 169h-238c-108 0 -141 -24 -141 -120v-446c-10 10 -19 21 -28 31c-11 -11 -35 -31 -53 -43v500c0 38 -8 59 -32 71c-24 13 -60 14 -124 14c-3 -18 -12 -49 -20 -68c43 1 81 1 93 1c12 -1 17 -6 17 -19v-240h-134c-8 117 -27 240 -69 335
c-13 -11 -41 -28 -58 -34c64 -140 68 -339 68 -486v-356h259v274c82 -80 155 -199 199 -321l69 19c-11 30 -25 62 -39 91h188l14 -5l46 33c-26 51 -61 107 -94 152h159v313h-392v184c0 43 11 54 76 54z" />
</svg>
