<?xml version="1.0" standalone="no"?>
<!DOCTYPE svg PUBLIC "-//W3C//DTD SVG 1.1//EN" "http://www.w3.org/Graphics/SVG/1.1/DTD/svg11.dtd" >
<svg xmlns="http://www.w3.org/2000/svg" xmlns:xlink="http://www.w3.org/1999/xlink" version="1.1" viewBox="-10 0 1010 1000">
   <path fill="currentColor"
d="M874 69l25 53c-67 32 -174 60 -244 75l-23 -54c70 -15 176 -50 242 -74zM915 281l-23 63c-69 -24 -193 -55 -288 -72l24 -56c95 14 220 44 287 65zM380 152l-27 57c-52 -29 -152 -68 -231 -90l29 -51c75 21 176 56 229 84zM379 218l6 58c-97 24 -196 47 -275 65l-22 -66
c73 -12 182 -35 291 -57zM301 723h399v-85h-399v85zM700 581v-82h-399v82h399zM319 438h384c-84 -50 -154 -114 -208 -191c-42 81 -101 143 -176 191zM483 42l77 11c-9 45 -20 86 -34 123c84 142 244 245 441 287c-16 14 -36 44 -46 63c-51 -12 -100 -29 -146 -51v394
c0 41 -11 59 -41 70c-30 10 -80 10 -158 10c-4 -19 -15 -44 -25 -62c57 2 113 2 128 1c16 -1 21 -5 21 -19v-86h-399v171h-74v-468c-44 19 -93 35 -146 49c-7 -16 -30 -49 -44 -65c262 -55 404 -172 446 -428z" />
</svg>
