<?xml version="1.0" standalone="no"?>
<!DOCTYPE svg PUBLIC "-//W3C//DTD SVG 1.1//EN" "http://www.w3.org/Graphics/SVG/1.1/DTD/svg11.dtd" >
<svg xmlns="http://www.w3.org/2000/svg" xmlns:xlink="http://www.w3.org/1999/xlink" version="1.1" viewBox="-10 0 1010 1000">
   <path fill="currentColor"
d="M148 551h116v-170h-114v56c0 35 0 74 -2 114zM264 313v-165h-114v165h114zM294 80h31v789c0 35 -7 55 -29 66c-20 12 -53 14 -107 13c-2 -17 -11 -46 -19 -64c37 1 68 1 79 0c10 0 15 -4 15 -16v-248h-119c-7 116 -23 240 -59 336c-11 -10 -38 -25 -53 -31
c52 -142 56 -341 56 -487v-358h30v-1zM539 597l51 -15c34 85 65 194 74 260l-55 19c-2 -17 -6 -38 -11 -60c-177 32 -205 40 -222 50c-3 -14 -14 -45 -22 -61c15 -4 27 -27 39 -60c11 -27 45 -126 64 -225h-104v-71h124v-155h-104v-70h104v-160h63v160h103v70h-103v155h120
v71h-137c-20 90 -51 185 -84 262l146 -23c-13 -50 -29 -102 -46 -147zM928 101v607c0 35 -6 56 -29 68c-21 12 -54 13 -101 13c-3 -19 -12 -49 -22 -68c35 1 65 1 74 0c10 0 13 -4 13 -15v-534h-105v785h-66v-856h236z" />
</svg>
