<?xml version="1.0" standalone="no"?>
<!DOCTYPE svg PUBLIC "-//W3C//DTD SVG 1.1//EN" "http://www.w3.org/Graphics/SVG/1.1/DTD/svg11.dtd" >
<svg xmlns="http://www.w3.org/2000/svg" xmlns:xlink="http://www.w3.org/1999/xlink" version="1.1" viewBox="-10 0 1010 1000">
   <path fill="currentColor"
d="M165 550h119v-168h-117v56c0 34 0 72 -2 112zM284 149h-117v164h117v-164zM345 80v779c0 40 -8 62 -31 75c-24 12 -60 14 -125 14c-2 -19 -9 -52 -18 -71c45 2 84 1 95 1c13 -1 18 -6 18 -19v-238h-123c-8 118 -26 242 -70 337c-11 -12 -37 -29 -53 -36
c64 -140 69 -338 69 -484v-358h238zM852 531l49 38c-58 44 -135 85 -206 116v193c0 38 -8 56 -38 67c-30 10 -78 11 -154 11c-4 -21 -15 -46 -23 -65c57 2 109 2 123 1c15 -1 19 -4 19 -16v-216h1l-1 -1c41 -16 88 -39 127 -63h-331v-61h418zM807 420v-96h-291v96h291z
M880 271v202h-434v-202h434zM706 145h248v64h-575v-64h247c-13 -28 -29 -61 -42 -87l66 -19c19 32 40 75 56 106z" />
</svg>
