<?xml version="1.0" standalone="no"?>
<!DOCTYPE svg PUBLIC "-//W3C//DTD SVG 1.1//EN" "http://www.w3.org/Graphics/SVG/1.1/DTD/svg11.dtd" >
<svg xmlns="http://www.w3.org/2000/svg" xmlns:xlink="http://www.w3.org/1999/xlink" version="1.1" viewBox="-10 0 1010 1000">
   <path fill="currentColor"
d="M165 552h122v-170h-120v55c0 35 0 74 -2 115zM287 148h-120v166h120v-166zM352 80v782c0 38 -8 59 -32 71c-23 13 -60 14 -124 14c-2 -18 -10 -49 -20 -68c44 1 82 1 93 1c12 -1 18 -6 18 -19v-240h-126c-8 117 -26 240 -69 335c-13 -11 -41 -28 -57 -34
c64 -140 68 -339 68 -485v-357h249zM885 46l41 62c-138 40 -353 68 -531 84c-2 -17 -12 -43 -19 -60c177 -18 389 -49 509 -86zM861 172l63 16c-24 76 -58 164 -89 221c-14 -8 -43 -21 -60 -27c33 -57 64 -139 86 -210zM723 374l-67 21c-11 -46 -35 -123 -57 -181l64 -15
c22 56 49 132 60 175zM558 396l-65 22c-14 -45 -45 -121 -73 -177l61 -18c29 55 62 129 77 173zM440 657l56 -36c44 51 103 120 131 161l-58 42c-28 -42 -85 -114 -129 -167zM948 528v68h-123v267c0 43 -10 63 -41 74c-33 12 -85 13 -164 13c-4 -21 -16 -50 -27 -70
c64 2 122 2 138 1c17 -1 22 -5 22 -19v-266h-363v-68h363v-96h72v96h123z" />
</svg>
