<?xml version="1.0" standalone="no"?>
<!DOCTYPE svg PUBLIC "-//W3C//DTD SVG 1.1//EN" "http://www.w3.org/Graphics/SVG/1.1/DTD/svg11.dtd" >
<svg xmlns="http://www.w3.org/2000/svg" xmlns:xlink="http://www.w3.org/1999/xlink" version="1.1" viewBox="-10 0 1010 1000">
   <path fill="currentColor"
d="M351 766h406v-60h-406v60zM757 598h-406v58h406v-58zM830 544v339c0 40 -10 56 -40 66s-81 10 -157 10c-5 -19 -15 -42 -24 -59c57 2 113 2 128 1c16 -1 20 -5 20 -19v-64h-406v138h-72v-412h551zM834 329l59 25c-50 29 -113 52 -168 70c69 30 151 50 238 60
c-13 14 -31 40 -40 58c-182 -28 -337 -101 -419 -216h-121v131l191 -39c-2 16 -3 39 -3 52c-227 52 -255 59 -272 69c-5 -16 -17 -43 -28 -55c18 -9 46 -31 46 -75v-83h-107v62c0 160 -13 393 -102 549c-14 -12 -45 -31 -64 -38c86 -149 94 -360 94 -511v-299h774v53h-702
v137h724v47h-357c25 27 57 51 94 72c56 -20 123 -49 163 -69zM843 231h-564v-44h564v44z" />
</svg>
