<?xml version="1.0" standalone="no"?>
<!DOCTYPE svg PUBLIC "-//W3C//DTD SVG 1.1//EN" "http://www.w3.org/Graphics/SVG/1.1/DTD/svg11.dtd" >
<svg xmlns="http://www.w3.org/2000/svg" xmlns:xlink="http://www.w3.org/1999/xlink" version="1.1" viewBox="-10 0 1010 1000">
   <path fill="currentColor"
d="M926 173l-50 38c-18 -33 -59 -85 -94 -120l47 -34c36 35 77 84 97 116zM161 552h107v-170h-105v55c0 35 0 74 -2 115zM268 148h-105v166h105v-166zM331 80v782c0 38 -8 59 -31 71c-23 13 -59 14 -121 14c-3 -18 -11 -49 -20 -68c43 1 81 1 92 1c13 -1 17 -6 17 -19v-240
h-111c-8 117 -26 240 -68 335c-12 -11 -39 -28 -55 -34c63 -140 67 -339 67 -485v-357h230zM387 814l-52 -23c25 -63 45 -164 56 -239l49 20c-11 75 -29 179 -53 242zM554 841h55c19 0 23 -14 25 -114c14 12 38 24 56 29c-7 120 -24 151 -76 150c-12 -1 -57 -1 -70 -1
c-61 -1 -75 -21 -73 -91l2 -305l62 1l-2 304c-1 23 2 27 21 27zM643 459l-40 48c-26 -36 -81 -88 -127 -122l38 -42c45 31 101 80 129 116zM614 562l48 -24c37 64 73 148 85 202l-51 26c-11 -53 -46 -140 -82 -204zM938 293h-160c16 338 67 586 107 586c14 0 23 -63 26 -187
c14 16 37 33 54 41c-10 171 -29 221 -87 221c-97 0 -147 -296 -165 -661h-357v-66h355c-2 -60 -3 -122 -4 -183h67c0 62 0 124 2 183h162v66z" />
</svg>
