<?xml version="1.0" standalone="no"?>
<!DOCTYPE svg PUBLIC "-//W3C//DTD SVG 1.1//EN" "http://www.w3.org/Graphics/SVG/1.1/DTD/svg11.dtd" >
<svg xmlns="http://www.w3.org/2000/svg" xmlns:xlink="http://www.w3.org/1999/xlink" version="1.1" viewBox="-10 0 1010 1000">
   <path fill="currentColor"
d="M166 552h124v-170h-122v55c0 35 0 74 -2 115zM290 148h-122v166h122v-166zM356 80v782c0 38 -8 59 -32 71c-24 13 -60 14 -124 14c-3 -18 -12 -49 -20 -68c43 1 82 1 93 1c12 -1 17 -6 17 -19v-240h-128c-8 117 -27 240 -69 335c-13 -11 -41 -28 -58 -34
c64 -140 68 -339 68 -485v-357h253zM523 384v162h288v-162h-288zM882 610h-113v238c0 25 4 28 27 28h73c23 0 27 -16 30 -129c15 13 44 23 64 29c-6 134 -25 168 -86 168h-92c-70 0 -88 -23 -88 -96v-238h-86c-12 168 -49 283 -195 349c-8 -18 -30 -46 -45 -59
c129 -53 157 -148 166 -290h-82v-283c-15 17 -30 32 -46 46c-10 -14 -33 -41 -48 -54c72 -59 138 -149 177 -246l64 20c-34 84 -85 164 -141 227h415c-67 -65 -132 -156 -172 -245l56 -23c44 99 133 203 214 255c-16 13 -36 40 -47 57c-15 -11 -30 -23 -45 -38v284z" />
</svg>
