<?xml version="1.0" standalone="no"?>
<!DOCTYPE svg PUBLIC "-//W3C//DTD SVG 1.1//EN" "http://www.w3.org/Graphics/SVG/1.1/DTD/svg11.dtd" >
<svg xmlns="http://www.w3.org/2000/svg" xmlns:xlink="http://www.w3.org/1999/xlink" version="1.1" viewBox="-10 0 1010 1000">
   <path fill="currentColor"
d="M166 552h133v-170h-131v55c0 35 0 74 -2 115zM299 148h-131v166h131v-166zM365 80v782c0 38 -8 59 -32 71c-24 13 -61 14 -124 14c-3 -18 -12 -49 -20 -68c43 1 81 1 93 1c12 -1 17 -6 17 -19v-240h-137c-8 117 -27 240 -69 335c-13 -11 -41 -28 -58 -34
c64 -140 68 -339 68 -485v-357h262zM894 59l46 56c-130 39 -337 61 -508 72c-2 -17 -11 -42 -19 -59c169 -11 370 -35 481 -69zM825 415l-57 -25c33 -55 74 -144 96 -207l66 28c-32 70 -72 151 -105 204zM741 356l-65 19c-9 -41 -32 -108 -54 -160l61 -16
c24 50 49 117 58 157zM579 383l-66 24c-10 -44 -39 -114 -68 -167l62 -20c30 51 61 120 72 163zM799 572h-164c-21 43 -44 84 -65 119c42 17 85 38 127 60c46 -49 80 -108 102 -179zM957 572h-85c-25 85 -61 155 -113 213c70 39 131 79 175 113l-50 55
c-44 -36 -106 -78 -176 -118c-66 54 -148 94 -253 122c-8 -18 -23 -43 -36 -59c92 -22 166 -55 224 -99c-58 -30 -116 -57 -173 -80c27 -40 59 -92 87 -147h-130v-66h163c17 -36 33 -74 44 -107l73 14c-11 29 -24 62 -39 93h289v66z" />
</svg>
