<?xml version="1.0" standalone="no"?>
<!DOCTYPE svg PUBLIC "-//W3C//DTD SVG 1.1//EN" "http://www.w3.org/Graphics/SVG/1.1/DTD/svg11.dtd" >
<svg xmlns="http://www.w3.org/2000/svg" xmlns:xlink="http://www.w3.org/1999/xlink" version="1.1" viewBox="-10 0 1010 1000">
   <path fill="currentColor"
d="M827 74l65 20c-27 46 -65 103 -95 140c-15 -9 -43 -23 -61 -30c33 -36 68 -87 91 -130zM559 192l-57 32c-20 -31 -58 -84 -88 -122l55 -27c30 37 70 88 90 117zM162 552h111v-170h-109v55c0 35 -1 74 -2 115zM273 148h-109v166h109v-166zM335 80v782c0 38 -7 59 -31 71
c-23 13 -59 14 -121 14c-2 -18 -11 -49 -20 -68c43 1 82 1 93 1c12 -1 17 -6 17 -19v-240h-115c-8 117 -26 240 -68 335c-13 -11 -39 -28 -55 -34c62 -140 67 -339 67 -485v-357h233zM763 473h-176c-16 32 -36 63 -58 90h280v159c0 33 -6 49 -30 60c-25 10 -63 10 -118 10
c-3 -19 -12 -41 -21 -58c43 1 76 1 87 0s14 -3 14 -12v-98h-181v223c0 29 9 36 61 36h180c43 0 51 -15 55 -110c16 11 45 22 66 26c-10 118 -33 148 -115 148h-192c-97 0 -125 -20 -125 -100v-239c-28 30 -59 56 -94 80c-10 -12 -37 -39 -54 -51c70 -43 124 -97 166 -164
h-130v-65h165c15 -31 28 -65 38 -101h-164v-62h182c15 -62 25 -129 33 -202l71 6c-8 71 -19 136 -34 196h241v62h-256c-11 35 -23 70 -36 101h335v65h-120c37 61 88 118 138 149c-17 12 -39 36 -50 52c-60 -44 -120 -122 -158 -201z" />
</svg>
