<?xml version="1.0" standalone="no"?>
<!DOCTYPE svg PUBLIC "-//W3C//DTD SVG 1.1//EN" "http://www.w3.org/Graphics/SVG/1.1/DTD/svg11.dtd" >
<svg xmlns="http://www.w3.org/2000/svg" xmlns:xlink="http://www.w3.org/1999/xlink" version="1.1" viewBox="-10 0 1010 1000">
   <path fill="currentColor"
d="M162 552h114v-170h-112v55c0 35 -1 74 -2 115zM276 148h-112v166h112v-166zM341 80v783c0 38 -8 58 -31 70c-22 13 -56 14 -114 14c-2 -18 -10 -49 -19 -68c39 1 74 1 83 1c12 -1 16 -5 16 -18v-241h-118c-8 117 -27 240 -69 335c-13 -11 -40 -28 -57 -34
c64 -140 69 -339 69 -485v-357h240zM758 644h-179c-18 30 -36 59 -54 83c47 16 96 34 145 52c41 -35 70 -79 88 -135zM692 343v158h-67l28 6c-11 23 -24 49 -37 73h329v64h-111c-20 67 -53 119 -96 163c74 31 141 62 189 92l-52 55c-47 -30 -117 -65 -195 -99
c-76 51 -172 82 -286 105c-4 -18 -22 -48 -33 -64c97 -14 180 -36 245 -72c-61 -25 -125 -49 -182 -66c25 -32 53 -72 80 -114h-140v-64h177c16 -30 32 -61 44 -88l36 8v-158c-59 73 -147 137 -227 173c-10 -16 -30 -41 -46 -52c79 -30 168 -88 225 -151h-204v-63h252v-85
c-71 9 -145 16 -213 21c-2 -16 -11 -41 -19 -56c163 -14 359 -37 465 -69l56 52c-61 17 -137 32 -218 44v93h257v63h-210c56 62 145 117 226 145c-15 12 -37 37 -48 55c-79 -35 -166 -99 -225 -169z" />
</svg>
