<?xml version="1.0" standalone="no"?>
<!DOCTYPE svg PUBLIC "-//W3C//DTD SVG 1.1//EN" "http://www.w3.org/Graphics/SVG/1.1/DTD/svg11.dtd" >
<svg xmlns="http://www.w3.org/2000/svg" xmlns:xlink="http://www.w3.org/1999/xlink" version="1.1" viewBox="-10 0 1010 1000">
   <path fill="currentColor"
d="M639 40l59 20l-15 36c68 125 161 200 277 264c-17 14 -35 37 -45 57c-110 -66 -195 -142 -265 -256c-59 108 -141 202 -234 265c-10 -16 -30 -36 -46 -50c115 -72 216 -200 269 -336zM829 440l46 17c-34 71 -84 159 -127 230l-60 -21c30 -49 65 -110 92 -160h-327v-62
h365zM587 625l53 -23c39 51 82 122 102 166l-57 26c-18 -45 -60 -116 -98 -169zM578 304l52 -29c35 38 77 90 98 122l-53 35c-21 -33 -62 -88 -97 -128zM160 552h121v-170h-119v54c0 36 0 75 -2 116zM281 148h-119v166h119v-166zM346 80v782c0 37 -8 58 -31 71
c-23 12 -59 13 -122 13c-2 -18 -11 -49 -20 -67c42 1 80 1 91 1c12 -1 17 -6 17 -19v-240h-124c-8 116 -25 240 -63 335c-13 -11 -41 -28 -58 -34c57 -141 62 -339 62 -485v-357h248zM413 914l-60 -28c34 -53 63 -139 77 -203l57 22c-17 66 -42 154 -74 209zM615 883h114
c27 0 32 -12 36 -94c14 11 40 21 58 25c-6 104 -26 129 -86 129h-130c-78 0 -98 -19 -98 -87v-189h67v189c0 23 5 27 39 27zM795 698l54 -21c43 63 85 147 103 202l-56 26c-19 -57 -61 -143 -101 -207z" />
</svg>
