<?xml version="1.0" standalone="no"?>
<!DOCTYPE svg PUBLIC "-//W3C//DTD SVG 1.1//EN" "http://www.w3.org/Graphics/SVG/1.1/DTD/svg11.dtd" >
<svg xmlns="http://www.w3.org/2000/svg" xmlns:xlink="http://www.w3.org/1999/xlink" version="1.1" viewBox="-10 0 1010 1000">
   <path fill="currentColor"
d="M481 233v103h-69v-166h242c-11 -34 -30 -76 -49 -111l66 -19c24 40 50 93 59 127l-9 3h221v166h-72v-103h-389zM166 552h132v-170h-130v55c0 35 0 74 -2 115zM298 148h-130v166h130v-166zM364 80v782c0 38 -8 59 -32 71c-24 13 -61 14 -125 14c-2 -18 -11 -49 -20 -68
c44 1 82 1 93 1c13 -1 18 -6 18 -19v-240h-136c-8 117 -27 240 -69 335c-13 -11 -41 -28 -58 -34c64 -140 68 -339 68 -485v-357h261zM713 659v207c26 5 54 7 83 7c22 0 135 0 167 -1c-11 17 -21 49 -24 69h-146c-128 0 -222 -31 -281 -175c-23 74 -56 142 -110 194
c-10 -15 -30 -35 -46 -45c95 -89 117 -252 125 -390h69c-3 46 -8 94 -16 140c24 92 61 144 107 173v-403h-198v-66h474v66h-204v158h193v66h-193z" />
</svg>
