<?xml version="1.0" standalone="no"?>
<!DOCTYPE svg PUBLIC "-//W3C//DTD SVG 1.1//EN" "http://www.w3.org/Graphics/SVG/1.1/DTD/svg11.dtd" >
<svg xmlns="http://www.w3.org/2000/svg" xmlns:xlink="http://www.w3.org/1999/xlink" version="1.1" viewBox="-10 0 1010 1000">
   <path fill="currentColor"
d="M696 242v-81h-87v81h87zM836 439v-134h-81v134h81zM460 305v134h92v-134h-92zM697 305h-88v134h88v-134zM547 242v-81h-173v-67h556v67h-170v81h137v260h-497v-260h147zM155 552h120v-170h-118v55c0 35 -1 74 -2 115zM275 148h-118v166h118v-166zM338 80v782
c0 37 -8 57 -31 70c-24 11 -60 12 -123 12c-3 -18 -10 -47 -20 -65c44 1 82 1 94 1c12 -1 17 -6 17 -19v-240h-124c-9 116 -27 240 -70 334c-12 -11 -40 -27 -56 -33c64 -140 69 -339 69 -485v-357h244zM773 650h-199c-19 32 -38 64 -56 90c53 15 107 32 158 50
c44 -37 76 -83 97 -140zM940 902l-52 51c-52 -30 -120 -62 -198 -92c-72 46 -167 76 -292 97c-6 -20 -19 -45 -30 -59c101 -14 182 -35 244 -68c-62 -21 -128 -42 -194 -59c25 -34 53 -77 80 -122h-122v-64h157c13 -26 26 -52 35 -76l71 13c-9 20 -19 41 -30 63h327v64h-90
c-21 68 -53 122 -98 166c74 28 141 57 192 86z" />
</svg>
