<?xml version="1.0" standalone="no"?>
<!DOCTYPE svg PUBLIC "-//W3C//DTD SVG 1.1//EN" "http://www.w3.org/Graphics/SVG/1.1/DTD/svg11.dtd" >
<svg xmlns="http://www.w3.org/2000/svg" xmlns:xlink="http://www.w3.org/1999/xlink" version="1.1" viewBox="-10 0 1010 1000">
   <path fill="currentColor"
d="M793 351l-38 40c-23 -25 -63 -62 -101 -94c-23 41 -54 74 -96 99c-6 -11 -24 -33 -35 -42c69 -39 104 -101 113 -192l56 3c-3 30 -9 57 -17 82c43 32 92 75 118 104zM812 415v-268h-305v268h305zM876 87v388h-432v-388h432zM164 552h115v-171h-113v56c0 35 0 74 -2 115z
M279 148h-113v165h113v-165zM345 80v792c0 37 -9 59 -32 72c-24 11 -60 12 -123 12c-3 -17 -10 -49 -19 -67c43 1 80 1 92 0c12 0 16 -4 16 -18v-251h-119c-8 117 -26 242 -68 336c-12 -11 -40 -26 -57 -32c62 -141 67 -341 67 -487v-357h243zM483 613v250h79v-250h-79z
M698 613h-78v250h78v-250zM835 613h-79v250h79v-250zM901 863h58v67h-595v-67h57v-312h480v312z" />
</svg>
