<?xml version="1.0" standalone="no"?>
<!DOCTYPE svg PUBLIC "-//W3C//DTD SVG 1.1//EN" "http://www.w3.org/Graphics/SVG/1.1/DTD/svg11.dtd" >
<svg xmlns="http://www.w3.org/2000/svg" xmlns:xlink="http://www.w3.org/1999/xlink" version="1.1" viewBox="-10 0 1010 1000">
   <path fill="currentColor"
d="M162 552h127v-170h-125v54c0 35 0 75 -2 116zM289 148h-125v166h125v-166zM353 80v782c0 38 -8 59 -31 71c-24 12 -60 14 -122 14c-2 -19 -11 -50 -20 -68c43 1 81 1 92 1c12 -1 17 -6 17 -19v-240h-131c-8 116 -25 239 -67 334c-13 -11 -40 -27 -56 -33
c63 -140 67 -339 67 -486v-356h251zM813 653h-314c39 56 96 103 164 141c62 -37 114 -83 150 -141zM868 586l44 23c-38 93 -102 164 -181 218c71 30 151 52 236 66c-16 15 -34 42 -44 61c-95 -18 -182 -47 -260 -87c-82 44 -175 73 -273 91c-6 -18 -21 -45 -33 -60
c84 -14 167 -36 240 -69c-70 -45 -126 -101 -168 -166l24 -10h-58v-63h229v-98h-222v-339c58 -18 122 -46 158 -70l53 49c-42 23 -95 42 -145 59v88h108v57h-108v95h156v-386h66v386h157v-95h-115v-57h115v-92h-115v-61h181v366h-223v98h165z" />
</svg>
