<?xml version="1.0" standalone="no"?>
<!DOCTYPE svg PUBLIC "-//W3C//DTD SVG 1.1//EN" "http://www.w3.org/Graphics/SVG/1.1/DTD/svg11.dtd" >
<svg xmlns="http://www.w3.org/2000/svg" xmlns:xlink="http://www.w3.org/1999/xlink" version="1.1" viewBox="-10 0 1010 1000">
   <path fill="currentColor"
d="M863 90l64 24c-32 38 -69 78 -98 104l-47 -22c28 -29 63 -76 81 -106zM534 230l-49 -30c37 -25 67 -70 84 -110l50 19c-19 43 -45 91 -85 121zM427 92l61 24c-30 36 -63 74 -89 99l-45 -21c25 -28 56 -72 73 -102zM152 89l49 19c-18 44 -43 91 -83 121l-49 -30
c38 -25 67 -70 83 -110zM276 741h447v-74h-447v74zM723 545h-447v72h447v-72zM796 491v377c0 44 -12 63 -47 74s-94 11 -185 11c-4 -20 -15 -46 -26 -65c72 3 142 3 160 2c20 -1 25 -6 25 -22v-77h-447v166h-73v-466h593zM456 304l-45 47c-31 -24 -86 -61 -136 -93
c-34 49 -89 82 -176 107h819v179h-73v-119h-688v119h-72v-179h2c-8 -16 -24 -38 -36 -49c172 -41 205 -115 214 -272h65c-3 64 -11 117 -27 161c52 32 118 73 153 99zM684 44h68c-4 61 -12 113 -29 155c68 34 152 79 197 110l-44 52c-40 -29 -115 -73 -181 -108
c-34 50 -91 85 -181 108c-6 -16 -25 -41 -37 -54c166 -40 198 -113 207 -263z" />
</svg>
