<?xml version="1.0" standalone="no"?>
<!DOCTYPE svg PUBLIC "-//W3C//DTD SVG 1.1//EN" "http://www.w3.org/Graphics/SVG/1.1/DTD/svg11.dtd" >
<svg xmlns="http://www.w3.org/2000/svg" xmlns:xlink="http://www.w3.org/1999/xlink" version="1.1" viewBox="-10 0 1010 1000">
   <path fill="currentColor"
d="M157 552h117v-170h-115v55c0 35 0 74 -2 115zM274 148h-115v166h115v-166zM335 80v783c0 37 -7 57 -30 69c-21 11 -55 13 -113 13c-2 -18 -9 -48 -18 -66c39 1 73 1 84 1c12 -1 16 -5 16 -18v-241h-120c-7 116 -25 239 -62 334c-12 -10 -39 -27 -55 -33
c57 -141 61 -339 61 -484v-358h237zM554 204h-79v102h79v-102zM714 306v-102h-101v102h101zM863 365h-90v112h90v-112zM613 365v112h101v-112h-101zM475 454v23h79v-112h-79v89zM925 536h-451c-4 138 -22 304 -83 421c-11 -11 -39 -31 -54 -39c68 -134 75 -325 75 -464v-314
h232c-8 -26 -21 -56 -32 -80l63 -19c15 30 32 70 42 99h235v64h-179v102h152v230zM571 862l120 -28c0 18 2 43 5 58c-151 39 -176 49 -191 60c-4 -17 -17 -49 -26 -66c13 -6 31 -19 31 -55v-269h61v93h118v59h-118v148zM804 889h80c22 0 25 -13 28 -101c13 11 37 21 54 26
c-6 105 -23 133 -76 133h-93c-66 0 -82 -18 -82 -85v-300h62v124c46 -24 98 -56 132 -82l34 47c-47 37 -114 73 -166 97v113c0 24 4 28 27 28z" />
</svg>
