<?xml version="1.0" standalone="no"?>
<!DOCTYPE svg PUBLIC "-//W3C//DTD SVG 1.1//EN" "http://www.w3.org/Graphics/SVG/1.1/DTD/svg11.dtd" >
<svg xmlns="http://www.w3.org/2000/svg" xmlns:xlink="http://www.w3.org/1999/xlink" version="1.1" viewBox="-10 0 1010 1000">
   <path fill="currentColor"
d="M824 180h-151l-8 10c20 32 46 64 77 93c33 -31 61 -65 82 -103zM869 120l40 22c-26 70 -69 130 -120 178c49 34 105 61 163 77c-13 13 -31 37 -40 54c-62 -19 -119 -51 -169 -91c-57 43 -121 75 -185 97c-8 -16 -23 -40 -35 -52c61 -18 121 -48 174 -86
c-26 -28 -50 -57 -68 -89c-21 21 -43 41 -65 56c-9 -10 -31 -33 -45 -42c72 -48 136 -122 171 -203l56 17c-9 23 -21 44 -34 65h146zM774 839h-59v-82h-172v-54h172v-63h-127v-52h127v-57h-146v-53h146v-56h59v56h135v53h-135v57h112v52h-112v63h156v54h-156v82zM486 293
l-56 26c-9 -53 -39 -138 -72 -202l53 -21c33 62 66 144 75 197zM151 553h110v-175h-108v60c0 35 0 74 -2 115zM261 145h-108v170h108v-170zM486 401v384c16 10 33 26 58 43c47 32 105 42 183 42c65 0 170 -5 237 -13c-7 18 -15 51 -16 71c-53 3 -163 7 -222 7
c-85 0 -144 -14 -196 -50c-32 -24 -58 -51 -76 -51c-25 0 -63 54 -96 112l-40 -57c-3 22 -10 35 -26 44c-21 12 -53 14 -106 13c-2 -16 -9 -45 -18 -62c37 1 68 1 78 0c11 0 15 -4 15 -15v-253h-113c-7 117 -23 244 -58 340c-11 -10 -37 -25 -53 -31
c53 -142 57 -341 57 -487v-358h225v789v11c37 -47 74 -85 107 -99v-317h-79v-63h139z" />
</svg>
