<?xml version="1.0" standalone="no"?>
<!DOCTYPE svg PUBLIC "-//W3C//DTD SVG 1.1//EN" "http://www.w3.org/Graphics/SVG/1.1/DTD/svg11.dtd" >
<svg xmlns="http://www.w3.org/2000/svg" xmlns:xlink="http://www.w3.org/1999/xlink" version="1.1" viewBox="-10 0 1010 1000">
   <path fill="currentColor"
d="M518 262v-74h-137v-62h137v-82h68v82h148v-81h68v81h142v62h-142v74h-68v-74h-148v74h-68zM162 548h122v-163h-120v58c0 32 0 68 -2 105zM284 156h-120v160h120v-160zM346 88v781c0 36 -8 55 -30 67c-21 11 -55 12 -112 12c-2 -17 -10 -46 -19 -64c39 1 73 1 83 1
c12 0 16 -4 16 -17v-251h-125c-8 117 -27 244 -70 339c-12 -10 -40 -26 -56 -32c63 -140 68 -338 68 -482v-354h245zM504 468v71h312v-71h-312zM504 345v71h312v-71h-312zM940 731h-217c43 83 121 143 230 168c-17 13 -37 41 -46 59c-119 -34 -199 -107 -246 -211
c-35 103 -108 170 -266 211c-7 -16 -25 -43 -39 -56c140 -34 205 -88 236 -171h-211v-65h227c5 -22 8 -47 10 -73h-182v-302h450v302h-195c-2 25 -5 50 -9 73h258v65z" />
</svg>
