<?xml version="1.0" standalone="no"?>
<!DOCTYPE svg PUBLIC "-//W3C//DTD SVG 1.1//EN" "http://www.w3.org/Graphics/SVG/1.1/DTD/svg11.dtd" >
<svg xmlns="http://www.w3.org/2000/svg" xmlns:xlink="http://www.w3.org/1999/xlink" version="1.1" viewBox="-10 0 1010 1000">
   <path fill="currentColor"
d="M833 599l51 34c-35 40 -79 81 -117 112c65 40 131 84 169 119l-42 46c-42 -40 -123 -96 -197 -141v120c0 33 -6 48 -31 58c-23 10 -60 10 -117 10c-3 -17 -13 -40 -21 -56c40 1 77 1 88 1c11 -1 14 -4 14 -15v-103c-76 41 -155 83 -218 117l-29 -57
c63 -27 155 -74 247 -120v-184h67v165l23 12c38 -32 85 -82 113 -118zM601 715l-51 32c-18 -36 -59 -85 -99 -120l48 -30c41 34 84 82 102 118zM166 552h128v-170h-126v55c0 35 0 74 -2 115zM294 148h-126v166h126v-166zM652 351l52 19c-3 6 -7 12 -11 18
c77 86 173 137 279 179c-15 13 -33 35 -42 54c-103 -47 -193 -103 -269 -186c-66 82 -160 149 -265 191c-8 -14 -21 -34 -35 -46v290c0 39 -8 60 -33 73c-24 12 -60 14 -124 13c-2 -18 -12 -49 -20 -69c43 2 81 2 92 1c13 -1 18 -5 18 -19v-248h-132c-8 117 -27 241 -69 335
c-13 -11 -41 -28 -58 -34c64 -140 68 -339 68 -485v-357h258v493c119 -44 227 -125 284 -222h-16v-117c-59 74 -143 143 -218 180c-10 -17 -31 -42 -47 -55c76 -31 161 -92 217 -157h-180v-64h228v-93h71v93h241v64h-180c70 55 145 122 185 169l-48 40
c-41 -51 -124 -127 -198 -186v126h-48z" />
</svg>
