<?xml version="1.0" standalone="no"?>
<!DOCTYPE svg PUBLIC "-//W3C//DTD SVG 1.1//EN" "http://www.w3.org/Graphics/SVG/1.1/DTD/svg11.dtd" >
<svg xmlns="http://www.w3.org/2000/svg" xmlns:xlink="http://www.w3.org/1999/xlink" version="1.1" viewBox="-10 0 1010 1000">
   <path fill="currentColor"
d="M153 552h119v-170h-117v55c0 35 0 74 -2 115zM272 148h-117v166h117v-166zM335 80v783c0 38 -7 58 -30 70c-22 13 -56 14 -114 14c-3 -18 -10 -49 -19 -68c39 1 73 1 84 1c11 -1 16 -5 16 -18v-241h-122c-7 116 -23 239 -58 335c-12 -11 -40 -28 -57 -34
c53 -141 57 -340 57 -484v-358h243zM765 698h-202c-15 25 -31 51 -45 74c52 11 108 25 163 42c42 -31 68 -69 84 -116zM463 467v62h156v-62h-156zM846 467h-160v62h160v-62zM484 317h135v-58h-135v58zM619 157h-135v54h135v-54zM827 157h-141v54h141v-54zM686 317h141v-58
h-141v58zM958 698h-126c-16 55 -41 100 -81 136c69 23 132 46 179 68l-43 54c-49 -25 -120 -52 -200 -78c-71 38 -173 64 -319 80c-4 -16 -18 -43 -28 -56c115 -11 200 -27 263 -49c-63 -18 -125 -35 -183 -46c21 -31 46 -69 71 -109h-134v-59h170c12 -21 24 -40 35 -60
h-164v-162h221v-50h-198v-103h-49v-58h49v-99h198v-64h67v64h206v99h54v58h-54v103h-206v50h227v162h-279c-11 19 -23 39 -36 60h360v59z" />
</svg>
