<?xml version="1.0" standalone="no"?>
<!DOCTYPE svg PUBLIC "-//W3C//DTD SVG 1.1//EN" "http://www.w3.org/Graphics/SVG/1.1/DTD/svg11.dtd" >
<svg xmlns="http://www.w3.org/2000/svg" xmlns:xlink="http://www.w3.org/1999/xlink" version="1.1" viewBox="-10 0 1010 1000">
   <path fill="currentColor"
d="M258 507l35 29v-377h-129v127l29 -23c35 40 78 96 98 128l-41 37c-20 -32 -55 -82 -86 -121v138c0 56 -1 120 -6 186c35 -37 76 -88 100 -124zM355 91v766c0 39 -8 61 -31 73s-60 14 -123 14c-2 -19 -10 -51 -18 -70c43 1 82 1 92 0c13 0 18 -4 18 -18v-304
c-30 46 -70 92 -103 127c-8 -10 -21 -24 -33 -34c-9 112 -27 227 -68 318c-11 -12 -38 -29 -54 -36c63 -139 68 -336 68 -481v-355h252zM514 576v69h124v-69h-124zM514 461v67h124v-67h-124zM841 528v-67h-134v67h134zM841 645v-69h-134v69h134zM710 806v69h246v57h-566v-57
h245v-69h-199v-56h199v-56h-187v-282h461v282h-199v56h211v56h-211zM805 304h156v60h-570v-60h148c-6 -28 -20 -66 -35 -94l63 -13c18 31 34 75 41 102l-21 5h148c15 -33 34 -76 44 -107h-360v-60h226c-9 -26 -23 -56 -38 -79l68 -19c21 29 40 69 48 98h213v60h-147l65 14
c-16 31 -34 65 -49 93z" />
</svg>
