<?xml version="1.0" standalone="no"?>
<!DOCTYPE svg PUBLIC "-//W3C//DTD SVG 1.1//EN" "http://www.w3.org/Graphics/SVG/1.1/DTD/svg11.dtd" >
<svg xmlns="http://www.w3.org/2000/svg" xmlns:xlink="http://www.w3.org/1999/xlink" version="1.1" viewBox="-10 0 1010 1000">
   <path fill="currentColor"
d="M363 323l204 -19v-53l-186 18l-5 -50l191 -18v-57c-64 8 -128 14 -187 18c-2 -13 -8 -32 -13 -45c157 -13 350 -37 456 -69l28 44c-60 18 -140 33 -224 45v58l257 -23l5 49l-262 24v54l289 -26l5 49l-294 27v23c0 25 7 30 47 30h144c29 0 36 -9 39 -67c13 10 35 19 53 22
c-7 81 -25 102 -86 102h-153c-82 0 -104 -17 -104 -87v-17l-198 19zM160 556h101v-175h-99v56c0 36 -1 77 -2 119zM261 148h-99v169h99v-169zM323 80v783c0 36 -7 56 -30 67c-22 12 -57 13 -114 13c-3 -17 -11 -47 -20 -64c40 1 76 1 86 1c12 -1 16 -5 16 -18v-240h-105
c-8 116 -25 238 -66 333c-13 -11 -41 -27 -56 -33c61 -140 66 -339 66 -485v-357h223zM619 775l-111 17v77l109 -25c0 15 1 39 2 52c-138 37 -161 46 -175 56c-4 -17 -15 -44 -25 -57c13 -8 31 -25 31 -63v-31l-96 14l-7 -48l103 -16v-65l-91 12l-7 -49l98 -13v-62
c-28 6 -57 12 -83 15c-2 -13 -9 -33 -16 -48c78 -13 173 -37 225 -63l32 47c-27 12 -63 24 -100 35v68l103 -15l7 48l-110 16v65l104 -15zM817 879h63c17 0 20 -11 22 -73c12 9 34 19 50 23c-5 84 -21 109 -66 109h-76c-58 0 -72 -18 -72 -84v-64l-92 13l-7 -50l99 -14v-68
l-95 12l-6 -49l101 -13v-56c-32 7 -65 12 -95 16c-3 -14 -10 -34 -16 -47c91 -15 203 -38 265 -66l32 47c-36 15 -81 28 -129 39v60l135 -16l6 49l-141 17v67l147 -21l6 50l-153 22v72c0 22 3 25 22 25z" />
</svg>
