<?xml version="1.0" standalone="no"?>
<!DOCTYPE svg PUBLIC "-//W3C//DTD SVG 1.1//EN" "http://www.w3.org/Graphics/SVG/1.1/DTD/svg11.dtd" >
<svg xmlns="http://www.w3.org/2000/svg" xmlns:xlink="http://www.w3.org/1999/xlink" version="1.1" viewBox="-10 0 1010 1000">
   <path fill="currentColor"
d="M146 552h93v-170h-91v57c0 35 0 73 -2 113zM239 148h-91v166h91v-166zM296 80v799c0 33 -7 51 -27 62s-53 12 -104 12c-2 -16 -10 -43 -18 -59c36 1 68 1 78 1s14 -4 14 -16v-258h-96c-7 116 -23 240 -57 335c-11 -9 -36 -24 -51 -29c53 -142 57 -343 57 -487v-360h204z
M463 484l51 6c-19 202 -68 356 -168 460c-9 -9 -30 -26 -43 -34c76 -71 118 -175 142 -305c-95 15 -115 21 -127 27c-3 -12 -12 -38 -18 -51c16 -3 31 -28 49 -62c11 -21 40 -78 67 -147c-69 8 -87 13 -98 18c-2 -12 -11 -39 -17 -53c12 -3 23 -23 34 -50
c11 -29 49 -137 62 -235l55 12c-18 90 -49 185 -80 258l64 -5c10 -27 18 -54 25 -82l53 18c-36 108 -85 221 -134 307l74 -10c4 -24 7 -47 9 -72zM671 208h-92v125h92v-125zM579 519h92v-124h-92v124zM913 88l40 21c-17 89 -37 204 -61 317c45 102 66 167 66 232
c0 53 -10 108 -31 127c-9 10 -22 15 -38 17c-12 1 -29 2 -45 1c-1 -15 -5 -37 -14 -54c14 2 28 2 38 2c9 0 16 -2 21 -7c11 -13 14 -53 14 -87c0 -61 -17 -121 -63 -224c20 -102 38 -204 49 -285h-79v808h-55v-78l-51 23c-4 -18 -9 -38 -16 -62c-140 52 -163 62 -176 74
c-3 -13 -14 -34 -22 -44c14 -6 36 -22 36 -60v-665h82c-12 -28 -29 -61 -46 -86l50 -14c21 30 42 70 55 100h55v439h-143v239l94 -30c-15 -46 -33 -95 -50 -137l48 -19c32 76 69 177 84 238v-783h150z" />
</svg>
