<?xml version="1.0" standalone="no"?>
<!DOCTYPE svg PUBLIC "-//W3C//DTD SVG 1.1//EN" "http://www.w3.org/Graphics/SVG/1.1/DTD/svg11.dtd" >
<svg xmlns="http://www.w3.org/2000/svg" xmlns:xlink="http://www.w3.org/1999/xlink" version="1.1" viewBox="-10 0 1010 1000">
   <path fill="currentColor"
d="M620 271v115h78v-115h-78zM814 137h-194v82h128v167h66v-249zM565 446v374h-59v-434h55v-306h314v306h49v364c0 31 -5 48 -27 59c-20 11 -51 11 -97 11c-2 -17 -12 -42 -21 -59c34 1 64 1 73 1c9 -1 12 -3 12 -12v-304h-299zM762 658v-110h-93v110h93zM810 505v197h-141
v49h-47v-246h188zM499 233l-53 36c-20 -42 -66 -107 -109 -155l50 -31c44 46 92 109 112 150zM144 552h93v-172h-91v58c0 35 0 73 -2 114zM237 148h-91v166h91v-166zM296 81v788c0 34 -6 53 -27 65c-20 11 -51 13 -101 12c-2 -16 -10 -45 -18 -62c34 1 64 1 73 0
c10 0 14 -4 14 -15v-250h-95c-7 116 -21 241 -53 336c-12 -9 -38 -24 -53 -30c48 -142 52 -342 52 -486v-358h208zM450 356v415c16 12 31 33 55 54c44 38 101 48 185 48c78 0 193 -5 268 -13c-8 17 -17 50 -18 68c-66 5 -193 8 -249 8c-94 0 -152 -16 -199 -56
c-31 -29 -54 -60 -69 -60c-18 0 -49 62 -72 127l-48 -60c29 -49 59 -90 86 -110v-357h-67v-64h128z" />
</svg>
