<?xml version="1.0" standalone="no"?>
<!DOCTYPE svg PUBLIC "-//W3C//DTD SVG 1.1//EN" "http://www.w3.org/Graphics/SVG/1.1/DTD/svg11.dtd" >
<svg xmlns="http://www.w3.org/2000/svg" xmlns:xlink="http://www.w3.org/1999/xlink" version="1.1" viewBox="-10 0 1010 1000">
   <path fill="currentColor"
d="M149 552h102v-170h-100v56c0 35 0 74 -2 114zM251 148h-100v166h100v-166zM458 272v222c0 140 -14 333 -106 464c-11 -12 -35 -31 -50 -39c-5 7 -11 13 -19 17c-20 12 -53 14 -107 13c-1 -17 -9 -47 -18 -65c37 1 68 1 78 0c10 0 15 -4 15 -16v-247h-105
c-7 116 -23 240 -58 335c-11 -9 -37 -25 -53 -31c52 -141 56 -341 56 -486v-359h221v789c0 14 -1 26 -4 35c78 -122 86 -286 86 -412v-276h213v-173h69v63h220v55h-220v55h211l10 -2l44 10c-12 49 -28 105 -43 139l-54 -13c7 -20 15 -50 22 -78h-205v63l151 -19l7 46
l-158 20v21c0 21 6 24 42 24h129c26 0 31 -5 34 -48c12 9 34 15 51 19c-6 61 -24 78 -77 78h-142c-77 0 -97 -14 -97 -73v-13l-115 14l-6 -48l121 -14v-70h-143zM890 590l42 36c-29 21 -62 43 -96 62c24 77 72 147 135 179c-13 11 -32 33 -40 49
c-64 -39 -112 -119 -138 -203c-12 6 -23 12 -34 17c26 84 14 168 -18 200c-20 22 -39 28 -68 29c-15 0 -32 -1 -52 -2c-1 -15 -6 -40 -15 -56c22 3 41 4 55 4c16 0 27 -2 38 -15c16 -16 25 -64 15 -120c-67 62 -168 125 -252 161c-6 -14 -20 -35 -30 -45
c93 -31 210 -101 269 -165c-5 -12 -10 -24 -16 -36c-55 47 -137 93 -204 119c-6 -13 -18 -32 -29 -42c71 -21 158 -67 210 -112c-8 -10 -17 -18 -26 -27c-45 27 -96 50 -143 65c-4 -11 -15 -30 -22 -41c61 -19 133 -52 182 -88h-173v-52h442v52h-202c-12 13 -28 25 -43 36
c30 27 51 59 67 93c51 -29 109 -69 146 -98z" />
</svg>
