<?xml version="1.0" standalone="no"?>
<!DOCTYPE svg PUBLIC "-//W3C//DTD SVG 1.1//EN" "http://www.w3.org/Graphics/SVG/1.1/DTD/svg11.dtd" >
<svg xmlns="http://www.w3.org/2000/svg" xmlns:xlink="http://www.w3.org/1999/xlink" version="1.1" viewBox="-10 0 1010 1000">
   <path fill="currentColor"
d="M502 328v-44c-28 20 -57 40 -87 58c-11 -14 -34 -38 -49 -48c116 -66 220 -165 273 -260l68 22c-6 12 -13 23 -21 35c62 68 173 140 265 178c-13 16 -28 46 -34 65c-92 -45 -199 -120 -268 -193c-36 46 -79 89 -127 127h278v60h-298zM734 464v121h105v-121h-105zM679 642
v-235h216v235h-216zM459 464v121h100v-121h-100zM404 642v-235h212v235h-212zM166 552h111v-170h-109v55c0 35 0 74 -2 115zM277 148h-109v166h109v-166zM489 670l65 13c-7 25 -15 49 -25 73c39 25 82 58 104 81l-39 50c-20 -23 -55 -52 -90 -77c-33 59 -74 110 -122 149
c-10 -12 -35 -34 -50 -45c-5 8 -12 14 -21 19c-24 13 -60 14 -124 14c-2 -18 -11 -49 -20 -68c43 1 82 1 93 1c12 -1 17 -6 17 -19v-240h-115c-8 117 -27 240 -69 335c-13 -11 -41 -28 -58 -34c64 -140 68 -339 68 -485v-357h240v782c0 23 -3 40 -10 52
c75 -55 131 -142 156 -244zM760 662l68 10c-7 31 -15 59 -25 87c57 41 124 94 157 131l-45 50c-30 -34 -86 -83 -139 -124c-31 57 -72 104 -121 141c-10 -13 -36 -38 -50 -49c80 -53 134 -138 155 -246z" />
</svg>
