<?xml version="1.0" standalone="no"?>
<!DOCTYPE svg PUBLIC "-//W3C//DTD SVG 1.1//EN" "http://www.w3.org/Graphics/SVG/1.1/DTD/svg11.dtd" >
<svg xmlns="http://www.w3.org/2000/svg" xmlns:xlink="http://www.w3.org/1999/xlink" version="1.1" viewBox="-10 0 1010 1000">
   <path fill="currentColor"
d="M147 552h107v-177h-105v63c0 35 0 74 -2 114zM254 148h-105v166h105v-166zM311 80v789c0 34 -7 54 -27 66c-20 11 -52 13 -105 12c-2 -17 -9 -46 -17 -63c36 1 67 1 77 0c10 0 15 -4 15 -15v-255h-110c-6 118 -22 245 -57 342c-11 -9 -37 -25 -52 -31
c52 -141 56 -342 56 -486v-359h220zM552 195h-106v68h106v-68zM713 263v-68h-99v68h99zM874 317h-97v73h97v-73zM614 317v73h99v-73h-99zM446 348v42h106v-73h-106v31zM934 444h-489c-5 163 -26 366 -94 516c-12 -10 -39 -25 -54 -29c81 -176 89 -419 89 -584v-209h262
c-9 -26 -21 -56 -33 -80l59 -18c15 30 33 70 44 98h241v57h-182v68h157v181zM713 458h59v80c49 -15 99 -35 129 -53l45 38c-50 24 -114 46 -174 61v55c0 20 4 24 28 24h83c19 0 22 -8 25 -60c12 10 34 17 50 21c-5 70 -21 89 -69 89h-96c-64 0 -80 -15 -80 -74v-181z
M451 951l-55 -31c33 -45 62 -121 76 -177l54 23c-16 58 -43 135 -75 185zM580 763l54 -9c15 57 22 131 21 179l-58 9c2 -49 -5 -122 -17 -179zM548 650l134 -27c-2 16 -1 39 0 53c-163 37 -188 44 -203 55c-3 -16 -13 -42 -21 -55c13 -5 31 -16 31 -50v-171h59v61h128v49
h-128v85zM692 764l51 -16c29 54 55 127 64 175l-55 17c-8 -48 -33 -121 -60 -176zM815 768l51 -26c40 57 81 133 97 184l-55 28c-15 -51 -55 -130 -93 -186z" />
</svg>
