<?xml version="1.0" standalone="no"?>
<!DOCTYPE svg PUBLIC "-//W3C//DTD SVG 1.1//EN" "http://www.w3.org/Graphics/SVG/1.1/DTD/svg11.dtd" >
<svg xmlns="http://www.w3.org/2000/svg" xmlns:xlink="http://www.w3.org/1999/xlink" version="1.1" viewBox="-10 0 1010 1000">
   <path fill="currentColor"
d="M390 652v108h87v-108h-87zM477 358h-87v92h87v-92zM570 599v-95h-180v95h180zM855 339l64 11c-32 154 -79 284 -145 393c24 98 58 154 98 154c22 0 33 -53 38 -182c15 15 38 29 55 35c-11 163 -32 214 -100 214c-62 0 -107 -56 -139 -152c-43 57 -93 106 -151 147
c-10 -11 -36 -35 -52 -46c42 -28 80 -59 114 -94h-302v-519h293v58h-98v92h94v202h-94v108h110v55c24 -25 45 -53 64 -82c-29 -131 -44 -309 -49 -511h-367v353c0 125 -10 286 -78 389c-10 -12 -38 -33 -51 -41c54 -86 63 -208 64 -316h-72v17c0 86 -8 198 -66 287
c-12 -13 -33 -29 -49 -36c54 -79 60 -179 60 -252v-16h-43v-60h170v-110h-130v-286l58 -1v227h72v-219h430c0 -40 -1 -81 -1 -123h68c-1 43 -1 83 0 123h159c-27 -27 -77 -65 -120 -89l44 -34c44 22 97 58 122 86l-42 37h69v64h-231c3 168 15 313 33 426
c45 -89 79 -193 101 -309z" />
</svg>
