<?xml version="1.0" standalone="no"?>
<!DOCTYPE svg PUBLIC "-//W3C//DTD SVG 1.1//EN" "http://www.w3.org/Graphics/SVG/1.1/DTD/svg11.dtd" >
<svg xmlns="http://www.w3.org/2000/svg" xmlns:xlink="http://www.w3.org/1999/xlink" version="1.1" viewBox="-10 0 1010 1000">
   <path fill="currentColor"
d="M449 380v-137h-283v137h283zM166 804h283v-146h-283v146zM449 589v-140h-283v140h283zM279 40l82 11c-15 42 -31 85 -46 121h207v756h-73v-53h-283v65h-70v-768h142c16 -42 33 -94 41 -132zM731 872h115c35 0 40 -37 45 -186c18 14 46 27 67 31c-8 166 -25 223 -107 223
h-129c-82 0 -105 -27 -105 -127v-753h72v755c0 48 6 57 42 57z" />
</svg>
