<?xml version="1.0" standalone="no"?>
<!DOCTYPE svg PUBLIC "-//W3C//DTD SVG 1.1//EN" "http://www.w3.org/Graphics/SVG/1.1/DTD/svg11.dtd" >
<svg xmlns="http://www.w3.org/2000/svg" xmlns:xlink="http://www.w3.org/1999/xlink" version="1.1" viewBox="-10 0 1010 1000">
   <path fill="currentColor"
d="M873 98v402h-737v-392c99 -11 218 -30 291 -49l38 58c-71 17 -169 32 -257 41v106h248v62h-248v109h592v-105h-264v-62h264v-105h-273v-65h346zM940 629v69h-222v258h-73v-258h-278c-13 98 -66 195 -259 261c-9 -18 -32 -45 -47 -59c166 -53 216 -128 231 -202h-232v-69
h238v-108h73v108h274v-107h73v107h222z" />
</svg>
