<?xml version="1.0" standalone="no"?>
<!DOCTYPE svg PUBLIC "-//W3C//DTD SVG 1.1//EN" "http://www.w3.org/Graphics/SVG/1.1/DTD/svg11.dtd" >
<svg xmlns="http://www.w3.org/2000/svg" xmlns:xlink="http://www.w3.org/1999/xlink" version="1.1" viewBox="-10 0 1010 1000">
   <path fill="currentColor"
d="M503 257l-43 58c-39 -48 -117 -118 -187 -169c-57 75 -129 142 -199 189c-6 -15 -25 -51 -37 -67c88 -53 177 -139 228 -229l63 23c-6 10 -12 21 -19 31c73 51 153 118 194 164zM388 830v-148h-215v148h215zM316 355v98h164v63h-164v103h143v304h-71v-30h-215v49h-69
v-323h142v-103h-168v-63h168v-98h-106v-63h275v63h-99zM905 400l49 14c-26 71 -55 151 -83 202l-60 -15c16 -34 36 -82 53 -130h-116v403c0 40 -7 60 -35 71c-26 12 -67 13 -132 13c-3 -20 -12 -49 -21 -69c46 2 88 1 100 1c13 -1 17 -4 17 -16v-403h-182v-68h252
c-47 -51 -127 -114 -199 -156l50 -41c33 18 67 42 101 65c38 -32 77 -75 109 -116h-281v-67h333l14 -4l46 33c-44 67 -109 141 -173 192c27 23 52 46 69 68l-32 26h109z" />
</svg>
