<?xml version="1.0" standalone="no"?>
<!DOCTYPE svg PUBLIC "-//W3C//DTD SVG 1.1//EN" "http://www.w3.org/Graphics/SVG/1.1/DTD/svg11.dtd" >
<svg xmlns="http://www.w3.org/2000/svg" xmlns:xlink="http://www.w3.org/1999/xlink" version="1.1" viewBox="-10 0 1010 1000">
   <path fill="currentColor"
d="M200 290l47 -20c25 45 50 102 60 139l-49 24c-11 -39 -35 -99 -58 -143zM174 476h165v-249h-165v249zM402 167v698c0 36 -8 55 -31 66c-22 12 -58 13 -117 13c-3 -18 -12 -46 -20 -63c42 1 79 1 89 0c12 0 16 -4 16 -17v-327h-165c0 131 -10 309 -83 424
c-10 -12 -38 -31 -54 -38c68 -109 74 -263 74 -386h-68v-61h68v-309h86c12 -40 25 -90 32 -126l71 15c-13 37 -26 77 -40 111h142zM317 724l-48 25c-13 -42 -43 -106 -72 -154l46 -22c31 48 61 111 74 151zM860 877h22c7 0 15 -2 19 -6c4 -5 8 -16 9 -27c2 -19 4 -66 3 -119
c15 13 35 24 54 30c-1 49 -4 109 -9 132c-4 25 -12 38 -24 48s-31 14 -48 14h-44c-20 0 -39 -5 -53 -20c-15 -15 -19 -31 -19 -85v-690h-219v223l50 -29c59 68 130 162 161 222l-59 40c-30 -60 -94 -154 -152 -223v97c0 147 -13 346 -109 477c-11 -12 -38 -33 -55 -41
c90 -122 98 -298 98 -436v-396h353v762c0 8 2 16 6 20s10 7 16 7z" />
</svg>
