<?xml version="1.0" standalone="no"?>
<!DOCTYPE svg PUBLIC "-//W3C//DTD SVG 1.1//EN" "http://www.w3.org/Graphics/SVG/1.1/DTD/svg11.dtd" >
<svg xmlns="http://www.w3.org/2000/svg" xmlns:xlink="http://www.w3.org/1999/xlink" version="1.1" viewBox="-10 0 1010 1000">
   <path fill="currentColor"
d="M200 290l49 -19c25 44 50 101 61 139l-51 23c-10 -39 -35 -99 -59 -143zM177 476h164v-249h-164v249zM406 167v698c0 36 -8 55 -32 67c-23 12 -59 13 -119 13c-3 -18 -12 -47 -21 -64c43 1 80 1 90 0c13 0 17 -4 17 -17v-327h-164c0 131 -11 309 -84 424
c-11 -12 -39 -31 -55 -38c68 -109 74 -263 74 -386h-69v-61h69v-309h88c12 -39 25 -89 31 -125l74 14c-14 37 -27 78 -41 111h142zM320 724l-50 25c-12 -42 -43 -106 -72 -154l48 -22c31 48 61 111 74 151zM598 57l68 14c-37 167 -100 323 -177 426c-11 -13 -41 -35 -57 -45
c77 -93 135 -241 166 -395zM737 614l61 -24c57 106 119 243 144 327l-67 31c-5 -23 -14 -49 -25 -78c-292 37 -327 43 -351 53c-4 -15 -15 -52 -23 -71c17 -5 33 -36 52 -81c21 -43 85 -209 118 -361l72 20c-38 142 -91 292 -145 408l253 -29c-26 -65 -58 -135 -89 -195z
M742 70l60 -18c33 141 99 298 167 376c-18 15 -43 41 -55 62c-70 -92 -136 -263 -172 -420z" />
</svg>
