<?xml version="1.0" standalone="no"?>
<!DOCTYPE svg PUBLIC "-//W3C//DTD SVG 1.1//EN" "http://www.w3.org/Graphics/SVG/1.1/DTD/svg11.dtd" >
<svg xmlns="http://www.w3.org/2000/svg" xmlns:xlink="http://www.w3.org/1999/xlink" version="1.1" viewBox="-10 0 1010 1000">
   <path fill="currentColor"
d="M748 191l-71 20c-7 -39 -27 -103 -45 -152l66 -16c21 47 42 109 50 148zM203 292l49 -20c24 45 49 103 62 140l-52 22c-12 -38 -36 -97 -59 -142zM178 476h167v-247h-167v247zM410 167v697c0 37 -9 55 -33 67c-23 11 -61 12 -123 12c-3 -18 -13 -45 -21 -62
c44 1 83 1 95 0c12 0 17 -4 17 -17v-323h-167c0 130 -12 306 -85 420c-11 -12 -40 -31 -55 -38c67 -108 74 -261 74 -382h-69v-65h69v-309h89c12 -39 25 -89 32 -125l74 14c-14 37 -27 78 -41 111h144zM324 735l-52 24c-14 -43 -44 -109 -71 -159l50 -21
c27 50 58 115 73 156zM947 287h-297c-1 51 -3 100 -6 149h264s0 24 -1 34c-12 298 -25 404 -55 440c-18 22 -37 29 -65 32c-25 2 -74 2 -122 -1c-2 -21 -9 -49 -21 -69c49 5 95 6 113 6c16 0 25 -3 34 -14c21 -22 33 -114 44 -360h-196c-17 183 -59 347 -172 454
c-12 -17 -35 -40 -54 -50c145 -133 159 -377 164 -621h-131v-71h501v71z" />
</svg>
