<?xml version="1.0" standalone="no"?>
<!DOCTYPE svg PUBLIC "-//W3C//DTD SVG 1.1//EN" "http://www.w3.org/Graphics/SVG/1.1/DTD/svg11.dtd" >
<svg xmlns="http://www.w3.org/2000/svg" xmlns:xlink="http://www.w3.org/1999/xlink" version="1.1" viewBox="-10 0 1010 1000">
   <path fill="currentColor"
d="M192 292l43 -16c23 44 46 101 56 138l-46 18c-8 -37 -31 -96 -53 -140zM166 476h153v-249h-153v249zM382 167v708c0 36 -8 54 -31 65s-58 12 -119 12c-2 -17 -12 -44 -21 -61c42 2 81 1 92 1c12 -1 16 -5 16 -18v-335h-153c0 130 -11 305 -80 419
c-11 -10 -39 -29 -54 -35c66 -108 72 -263 72 -384h-56v-63h56v-309h72c12 -39 24 -89 31 -125l70 13c-13 38 -28 79 -40 112h145zM300 737l-44 20c-11 -41 -40 -106 -66 -154l42 -16c27 47 56 110 68 150zM528 823l133 -56c-1 20 2 51 5 66c-167 77 -193 92 -209 108
c-6 -19 -21 -48 -33 -63c15 -9 34 -31 34 -73v-748h70v309h130v70h-130v387zM788 863h79c19 0 23 -29 25 -141c17 14 45 26 65 31c-7 130 -22 177 -86 177h-93c-67 0 -86 -24 -86 -111v-763h70v342c48 -40 99 -87 132 -125l53 47c-55 54 -125 112 -185 154v346
c0 36 4 43 26 43z" />
</svg>
