<?xml version="1.0" standalone="no"?>
<!DOCTYPE svg PUBLIC "-//W3C//DTD SVG 1.1//EN" "http://www.w3.org/Graphics/SVG/1.1/DTD/svg11.dtd" >
<svg xmlns="http://www.w3.org/2000/svg" xmlns:xlink="http://www.w3.org/1999/xlink" version="1.1" viewBox="-10 0 1010 1000">
   <path fill="currentColor"
d="M555 158v450h-68v-516h407v516h-71v-450h-268zM205 290l49 -19c26 44 51 101 62 138l-52 24c-11 -39 -35 -99 -59 -143zM184 476h161v-249h-161v249zM411 167v698c0 36 -8 55 -32 67c-23 12 -60 13 -121 13c-2 -18 -12 -47 -20 -64c42 1 79 1 91 0c11 0 16 -4 16 -17
v-327h-161c0 131 -11 309 -85 424c-11 -12 -40 -31 -56 -38c69 -109 75 -263 75 -386h-71v-61h71v-309h84c11 -39 24 -89 31 -125l75 14c-14 37 -28 78 -41 111h144zM325 724l-51 25c-12 -42 -43 -106 -71 -154l47 -22c31 48 62 111 75 151zM793 872h64c29 0 34 -26 38 -169
c19 15 42 25 61 29c-9 157 -19 197 -100 197h-73c-63 0 -90 -19 -90 -82v-194c-31 107 -95 212 -219 292c-9 -15 -34 -41 -47 -51c201 -126 226 -308 226 -452v-200h68v201c0 50 -4 105 -15 161l57 -1v236c0 26 8 33 30 33z" />
</svg>
