<?xml version="1.0" standalone="no"?>
<!DOCTYPE svg PUBLIC "-//W3C//DTD SVG 1.1//EN" "http://www.w3.org/Graphics/SVG/1.1/DTD/svg11.dtd" >
<svg xmlns="http://www.w3.org/2000/svg" xmlns:xlink="http://www.w3.org/1999/xlink" version="1.1" viewBox="-10 0 1010 1000">
   <path fill="currentColor"
d="M855 512l46 26c-39 94 -111 200 -172 272c31 33 59 68 78 100l-57 41c-39 -70 -127 -161 -208 -217l53 -39c29 20 58 43 87 69c44 -50 93 -121 127 -184h-329v-65h363zM610 351l45 -36c41 40 84 97 105 141l-47 44c-20 -45 -63 -107 -103 -149zM209 303l48 -19
c28 41 52 98 62 136l-52 21c-8 -38 -31 -96 -58 -138zM177 484h177v-245h-177v245zM683 40l52 32c-7 15 -14 29 -21 43c45 89 133 186 262 284c-15 19 -32 42 -39 65c-119 -106 -203 -205 -254 -292c-66 115 -149 222 -230 294c-10 -15 -23 -36 -36 -51v458
c0 35 -8 53 -32 64c-23 11 -60 12 -122 12c-3 -17 -12 -44 -20 -60c44 1 83 1 93 0c13 0 18 -4 18 -16v-325h-177c0 128 -12 299 -86 409c-9 -11 -37 -28 -51 -35c67 -105 75 -254 75 -374h-74v-64h74v-306h86c14 -41 31 -96 39 -135l79 14c-17 41 -34 86 -50 121h148v226
c99 -85 206 -229 266 -364zM322 725l-52 22c-7 -38 -31 -95 -58 -138l48 -19c28 41 53 98 62 135z" />
</svg>
