<?xml version="1.0" standalone="no"?>
<!DOCTYPE svg PUBLIC "-//W3C//DTD SVG 1.1//EN" "http://www.w3.org/Graphics/SVG/1.1/DTD/svg11.dtd" >
<svg xmlns="http://www.w3.org/2000/svg" xmlns:xlink="http://www.w3.org/1999/xlink" version="1.1" viewBox="-10 0 1010 1000">
   <path fill="currentColor"
d="M188 293l44 -19c25 41 48 98 55 135l-46 21c-7 -38 -29 -94 -53 -137zM161 477h160v-249h-160v249zM377 167v702c0 37 -7 55 -29 66c-22 10 -57 11 -116 11c-3 -16 -12 -43 -20 -60c43 2 82 1 92 1c13 0 17 -4 17 -17v-331h-160c0 131 -10 304 -74 417
c-11 -10 -36 -25 -51 -31c63 -108 69 -263 69 -386h-64v-62h64v-310h80c11 -40 25 -92 31 -129l73 15c-13 39 -28 80 -41 114h129zM290 720l-47 21c-6 -38 -28 -96 -52 -138l44 -19c25 41 48 98 55 136zM727 708v71h213v61h-213v117h-72v-117h-222v-61h222v-71h-178v-57h178
v-66h-184v-57h184v-64h72v64h174v57h-174v66h171v57h-171zM603 187l-13 18c25 41 59 80 103 117c48 -39 87 -84 115 -135h-205zM859 124l44 21c-34 87 -88 158 -153 216c59 39 133 70 219 89c-16 14 -34 43 -44 62c-91 -24 -169 -62 -232 -107c-78 56 -169 95 -262 120
c-8 -18 -24 -44 -38 -59c87 -20 173 -55 247 -105c-37 -33 -67 -69 -91 -106c-28 34 -59 62 -90 86c-12 -11 -39 -34 -56 -45c86 -58 161 -150 202 -252l68 17c-10 23 -20 44 -33 66h206z" />
</svg>
