<?xml version="1.0" standalone="no"?>
<!DOCTYPE svg PUBLIC "-//W3C//DTD SVG 1.1//EN" "http://www.w3.org/Graphics/SVG/1.1/DTD/svg11.dtd" >
<svg xmlns="http://www.w3.org/2000/svg" xmlns:xlink="http://www.w3.org/1999/xlink" version="1.1" viewBox="-10 0 1010 1000">
   <path fill="currentColor"
d="M192 292l45 -18c27 41 50 97 58 135l-49 21c-7 -38 -29 -95 -54 -138zM163 477h165v-249h-165v249zM387 167v704c0 34 -7 53 -30 64c-23 10 -58 11 -118 11c-3 -16 -12 -43 -20 -60c44 2 82 1 93 1c12 0 16 -4 16 -17v-331h-165c0 129 -11 304 -77 419
c-10 -10 -35 -27 -49 -33c63 -109 69 -263 69 -386h-61v-62h61v-310h80c12 -40 25 -91 31 -128l75 15c-14 38 -27 79 -41 113h136zM297 720l-49 22c-7 -38 -29 -96 -54 -138l45 -19c27 41 51 98 58 135zM508 636l65 19c-32 77 -81 166 -121 223c-14 -11 -41 -28 -57 -37
c42 -55 85 -133 113 -205zM527 332h313c-57 -51 -115 -114 -160 -176c-43 66 -97 127 -153 176zM949 582h-225v292c0 38 -8 58 -34 69c-23 13 -62 14 -121 14c-3 -20 -14 -49 -22 -69c43 2 81 1 92 1c13 0 16 -4 16 -16v-291h-212v-66h212v-120h-143v-51
c-24 20 -48 38 -72 53c-10 -16 -31 -39 -47 -52c109 -61 223 -188 281 -311l61 23c-6 13 -13 26 -21 39c62 91 170 191 255 242c-16 13 -38 37 -51 55c-19 -13 -38 -29 -59 -46v48h-135v120h225v66zM787 656l58 -24c42 69 92 161 115 216l-61 28c-21 -56 -71 -151 -112 -220
z" />
</svg>
