<?xml version="1.0" standalone="no"?>
<!DOCTYPE svg PUBLIC "-//W3C//DTD SVG 1.1//EN" "http://www.w3.org/Graphics/SVG/1.1/DTD/svg11.dtd" >
<svg xmlns="http://www.w3.org/2000/svg" xmlns:xlink="http://www.w3.org/1999/xlink" version="1.1" viewBox="-10 0 1010 1000">
   <path fill="currentColor"
d="M650 485v-126h-245v-62h245v-68c38 -20 80 -51 112 -82h-285v-60h347l16 -4l44 32c-42 50 -104 100 -165 135v47h228v62h-228v128c0 35 -8 52 -35 62c-28 10 -65 11 -132 11c-5 -18 -18 -44 -28 -61c50 2 96 2 108 1c14 -1 18 -4 18 -15zM190 291l42 -16
c23 45 46 102 55 139l-45 17c-8 -37 -31 -96 -52 -140zM165 476h152v-249h-152v249zM377 167v708c0 34 -8 52 -30 63c-22 10 -58 11 -118 11c-2 -16 -12 -42 -20 -58c43 2 81 1 92 1c12 -1 16 -5 16 -18v-335h-152c0 132 -12 304 -81 419c-10 -11 -37 -29 -52 -35
c66 -108 72 -262 72 -384h-56v-63h56v-309h72c12 -39 24 -89 31 -125l67 12c-13 39 -27 79 -39 113h142zM297 737l-44 20c-12 -41 -39 -106 -66 -154l42 -17c28 47 57 111 68 151zM510 657v211h77v-211h-77zM718 657h-79v211h79v-211zM849 657h-79v211h79v-211zM907 868h51
v64h-554v-64h50v-273h453v273z" />
</svg>
