<?xml version="1.0" standalone="no"?>
<!DOCTYPE svg PUBLIC "-//W3C//DTD SVG 1.1//EN" "http://www.w3.org/Graphics/SVG/1.1/DTD/svg11.dtd" >
<svg xmlns="http://www.w3.org/2000/svg" xmlns:xlink="http://www.w3.org/1999/xlink" version="1.1" viewBox="-10 0 1010 1000">
   <path fill="currentColor"
d="M193 291l47 -20c26 44 51 102 61 139l-50 23c-11 -39 -35 -98 -58 -142zM176 476h146v-249h-146v249zM384 167v699c0 35 -7 53 -30 65c-21 10 -55 12 -111 12c-3 -17 -12 -45 -20 -62c39 1 73 1 83 0c11 0 16 -4 16 -16v-328h-146c0 131 -10 309 -84 424
c-10 -12 -38 -31 -54 -38c68 -109 74 -263 74 -386h-69v-61h69v-309h87c12 -39 25 -89 32 -125l73 14c-13 37 -28 78 -40 111h120zM311 724l-49 25c-13 -42 -43 -106 -71 -154l46 -22c30 48 61 111 74 151zM653 41l62 19c-4 12 -9 24 -13 35c64 121 150 195 260 257
c-16 14 -36 37 -46 57c-102 -64 -181 -138 -246 -245c-55 108 -132 201 -225 263c-11 -15 -31 -37 -48 -50c114 -71 208 -198 256 -336zM834 440l49 19c-31 64 -74 140 -112 203l-64 -22c25 -41 55 -92 77 -134h-305v-62h344zM619 632l55 -27c38 45 79 108 96 149l-58 29
c-16 -42 -55 -105 -93 -151zM594 300l52 -30c36 35 78 82 98 112l-55 36c-19 -32 -61 -83 -95 -118zM458 910l-59 -24c37 -52 65 -138 79 -203l56 18c-15 68 -40 157 -76 209zM656 883h104c26 0 30 -12 33 -94c14 11 41 20 59 25c-7 102 -26 128 -84 128h-121
c-75 0 -93 -19 -93 -86v-189h66v189c0 23 5 27 36 27zM800 703l55 -21c44 61 86 143 103 199l-59 25c-16 -56 -58 -141 -99 -203z" />
</svg>
