<?xml version="1.0" standalone="no"?>
<!DOCTYPE svg PUBLIC "-//W3C//DTD SVG 1.1//EN" "http://www.w3.org/Graphics/SVG/1.1/DTD/svg11.dtd" >
<svg xmlns="http://www.w3.org/2000/svg" xmlns:xlink="http://www.w3.org/1999/xlink" version="1.1" viewBox="-10 0 1010 1000">
   <path fill="currentColor"
d="M189 292l44 -19c25 41 48 98 56 136l-47 21c-6 -38 -28 -95 -53 -138zM806 686h83v-151h-83v151zM675 686h84v-151h-84v151zM539 686h89v-151h-89v151zM846 211h-347v118h347v-118zM160 477h163v-249h-163v249zM940 480v408c0 26 -4 41 -21 49c-16 9 -41 9 -76 9
c-2 -13 -10 -35 -16 -48h53c7 0 9 -3 9 -11v-141h-83v166h-47v-166h-84v168h-47v-168h-89v201h-51v-290c-10 97 -29 196 -65 274c-10 -9 -32 -23 -47 -30c-4 16 -12 27 -26 34c-23 10 -58 11 -117 11c-4 -16 -12 -43 -20 -60c43 2 82 1 93 1c12 0 17 -4 17 -17v-331h-163
c0 130 -10 304 -76 417c-9 -10 -34 -25 -49 -31c64 -109 70 -263 70 -386h-64v-62h64v-310h81c11 -40 24 -92 32 -129l72 15c-14 39 -29 80 -43 114h132v702c0 5 0 10 -1 15c57 -139 62 -325 62 -458v-274h220c-13 -29 -31 -63 -48 -89l55 -23c24 34 48 78 61 112h177v236
h-406v38v54h441zM293 719l-47 22c-6 -38 -29 -96 -53 -138l43 -19c25 41 49 98 57 135z" />
</svg>
