<?xml version="1.0" standalone="no"?>
<!DOCTYPE svg PUBLIC "-//W3C//DTD SVG 1.1//EN" "http://www.w3.org/Graphics/SVG/1.1/DTD/svg11.dtd" >
<svg xmlns="http://www.w3.org/2000/svg" xmlns:xlink="http://www.w3.org/1999/xlink" version="1.1" viewBox="-10 0 1010 1000">
   <path fill="currentColor"
d="M191 292l44 -18c25 41 47 97 56 135l-48 21c-5 -38 -27 -95 -52 -138zM163 477h159v-249h-159v249zM379 167v702c0 37 -7 55 -29 66c-22 10 -58 11 -116 11c-3 -16 -12 -43 -20 -60c42 2 82 1 92 1c12 0 16 -4 16 -17v-331h-159c0 131 -10 304 -74 417
c-10 -10 -36 -25 -50 -31c62 -108 69 -263 69 -386h-62v-62h62v-310h80c11 -40 23 -92 31 -129l72 15c-13 39 -28 80 -41 114h129zM294 720l-48 21c-6 -38 -28 -96 -52 -138l44 -19c25 42 48 99 56 136zM795 230h-101v102h101v-102zM948 665h-196c52 79 133 163 200 205
c-15 13 -38 37 -49 55c-62 -47 -133 -132 -185 -215v247h-69v-238c-53 85 -125 166 -194 213c-11 -17 -31 -42 -47 -54c74 -43 156 -128 207 -213h-199v-63h233v-91h-169v-281h-72v-61h72v-105h65v105h87v-118h62v118h101v-117h64v117h87v61h-87v156h-227v-156h-87v222h378
v59h-205v91h230v63z" />
</svg>
