<?xml version="1.0" standalone="no"?>
<!DOCTYPE svg PUBLIC "-//W3C//DTD SVG 1.1//EN" "http://www.w3.org/Graphics/SVG/1.1/DTD/svg11.dtd" >
<svg xmlns="http://www.w3.org/2000/svg" xmlns:xlink="http://www.w3.org/1999/xlink" version="1.1" viewBox="-10 0 1010 1000">
   <path fill="currentColor"
d="M188 292l44 -18c25 41 48 98 55 135l-47 22c-6 -39 -28 -96 -52 -139zM161 477h158v-249h-158v249zM376 167v702c0 37 -8 55 -30 66c-22 10 -57 11 -116 11c-3 -16 -11 -43 -19 -60c42 2 81 1 92 1c12 0 16 -4 16 -17v-331h-158c0 130 -10 304 -74 417
c-11 -10 -36 -25 -51 -31c63 -109 69 -263 69 -386h-64v-62h64v-310h80c11 -40 25 -92 31 -129l73 15c-13 39 -28 80 -41 114h128zM290 719l-47 22c-6 -38 -28 -96 -52 -138l44 -19c25 41 48 98 55 135zM800 362h-138v98h138v-98zM518 362v124c0 144 -12 341 -95 469
c-12 -11 -40 -30 -55 -38c78 -122 85 -297 85 -431v-352h222c-10 -25 -22 -52 -34 -74l63 -19c16 27 32 63 43 93h206v64h-435v102h84v-73h60v73h138v-73h62v73h83v62h-83v154h-260v-154h-84zM831 637h-194c24 47 57 90 97 127c41 -36 73 -78 97 -127zM878 573l43 18
c-29 88 -75 159 -134 216c53 36 114 63 181 81c-15 14 -32 40 -42 57c-70 -22 -134 -54 -189 -96c-63 48 -137 82 -213 106c-8 -19 -24 -48 -38 -62c71 -18 141 -48 199 -89c-48 -47 -87 -104 -115 -167h-37v-61h332z" />
</svg>
