<?xml version="1.0" standalone="no"?>
<!DOCTYPE svg PUBLIC "-//W3C//DTD SVG 1.1//EN" "http://www.w3.org/Graphics/SVG/1.1/DTD/svg11.dtd" >
<svg xmlns="http://www.w3.org/2000/svg" xmlns:xlink="http://www.w3.org/1999/xlink" version="1.1" viewBox="-10 0 1010 1000">
   <path fill="currentColor"
d="M819 50l67 30c-34 57 -75 123 -108 165l-54 -26c32 -44 74 -118 95 -169zM621 218l-61 25c-17 -45 -53 -117 -83 -171l57 -22c32 53 70 123 87 168zM924 254v67h-496v-67h496zM705 398l32 -49c73 41 173 108 228 158l-35 56c-49 -48 -149 -121 -225 -165zM187 292l44 -18
c25 41 48 98 56 135l-48 22c-6 -38 -27 -95 -52 -139zM160 477h158v-249h-158v249zM375 167v702c0 37 -8 55 -30 66c-22 10 -57 11 -115 11c-3 -16 -12 -42 -20 -60c42 2 81 1 92 1c12 0 16 -4 16 -17v-331h-158c0 130 -11 304 -75 417c-9 -10 -34 -25 -49 -31
c61 -109 68 -263 68 -386h-63v-62h63v-310h80c11 -40 25 -92 31 -129l73 15c-14 39 -28 80 -41 114h128zM289 719l-47 22c-6 -38 -27 -96 -51 -138l43 -19c25 41 48 98 55 135zM595 344l56 35c-66 69 -146 141 -234 196c-7 -22 -22 -53 -32 -69c83 -43 160 -110 210 -162z
M508 624v237h73v-237h-73zM708 624h-75v237h75v-237zM835 624h-75v237h75v-237zM896 561v300h57v66h-563v-66h60v-300h446z" />
</svg>
