<?xml version="1.0" standalone="no"?>
<!DOCTYPE svg PUBLIC "-//W3C//DTD SVG 1.1//EN" "http://www.w3.org/Graphics/SVG/1.1/DTD/svg11.dtd" >
<svg xmlns="http://www.w3.org/2000/svg" xmlns:xlink="http://www.w3.org/1999/xlink" version="1.1" viewBox="-10 0 1010 1000">
   <path fill="currentColor"
d="M192 292l47 -19c22 43 48 99 58 135l-50 22c-10 -37 -35 -95 -55 -138zM170 477h152v-249h-152v249zM381 167v708c0 34 -9 52 -31 63c-24 10 -61 10 -124 10c-2 -15 -12 -40 -21 -57c46 2 88 1 100 1c13 0 17 -4 17 -17v-336h-152c0 131 -11 303 -80 417
c-10 -10 -38 -25 -53 -31c66 -108 74 -263 74 -386h-70v-62h70v-310h72c12 -40 26 -92 33 -129l73 14c-14 39 -29 80 -43 115h135zM300 720l-50 21c-10 -37 -34 -96 -55 -138l47 -19c22 43 48 99 58 136zM824 653h-292c35 53 86 99 145 136c60 -36 110 -82 147 -136z
M881 587l44 20c-39 90 -104 162 -184 217c67 32 142 55 222 70c-15 15 -34 41 -44 60c-89 -20 -170 -49 -243 -89c-77 43 -165 73 -254 93c-7 -18 -22 -46 -35 -60c78 -15 157 -39 228 -74c-66 -46 -120 -102 -158 -169l5 -2h-41v-63h222v-97h-211v-341h1
c55 -20 117 -47 153 -72l54 49c-42 24 -95 44 -145 60v90h109v57h-109v95h148v-386h66v386h145v-95h-108v-57h108v-91h-111v-62h174v367h-208v97h159z" />
</svg>
