<?xml version="1.0" standalone="no"?>
<!DOCTYPE svg PUBLIC "-//W3C//DTD SVG 1.1//EN" "http://www.w3.org/Graphics/SVG/1.1/DTD/svg11.dtd" >
<svg xmlns="http://www.w3.org/2000/svg" xmlns:xlink="http://www.w3.org/1999/xlink" version="1.1" viewBox="-10 0 1010 1000">
   <path fill="currentColor"
d="M190 291l42 -15c23 44 46 100 56 137l-46 18c-8 -37 -31 -96 -52 -140zM165 476h152v-249h-152v249zM377 167v708c0 34 -8 52 -30 63c-22 10 -58 11 -118 11c-2 -16 -12 -42 -20 -58c43 2 81 1 92 1c12 -1 16 -5 16 -18v-335h-152c0 131 -12 304 -81 419
c-10 -11 -37 -29 -52 -35c66 -108 72 -263 72 -384h-56v-63h56v-309h72c12 -39 24 -89 31 -125l67 12c-13 39 -27 79 -39 113h142zM297 737l-44 20c-12 -42 -39 -107 -66 -155l42 -16c28 47 57 111 68 151zM839 675h-319v66h319v-66zM520 862h319v-69h-319v69zM456 955v-337
h450v334h-67v-32h-319v35h-64zM728 250v-62h-87v62h87zM867 303h-80v78h80v-78zM867 513v-81h-80v81h80zM489 432v81h94v-81h-94zM728 432h-87v81h87v-81zM641 381h87v-78h-87v78zM489 303v78h94v-78h-94zM954 188h-167v62h143v316h-502v-316h155v-62h-177v-62h177v-82h58
v82h87v-82h59v82h167v62z" />
</svg>
