<?xml version="1.0" standalone="no"?>
<!DOCTYPE svg PUBLIC "-//W3C//DTD SVG 1.1//EN" "http://www.w3.org/Graphics/SVG/1.1/DTD/svg11.dtd" >
<svg xmlns="http://www.w3.org/2000/svg" xmlns:xlink="http://www.w3.org/1999/xlink" version="1.1" viewBox="-10 0 1010 1000">
   <path fill="currentColor"
d="M192 292l44 -18c27 40 49 97 58 135l-48 21c-8 -38 -29 -95 -54 -138zM163 477h163v-249h-163v249zM385 167v702c0 37 -8 55 -30 66c-23 10 -59 11 -120 11c-3 -16 -11 -43 -19 -60c44 2 82 1 94 1s16 -4 16 -17v-331h-163c0 130 -10 304 -76 417
c-10 -10 -36 -25 -52 -31c64 -109 71 -263 71 -386h-65v-62h65v-310h82c12 -40 26 -92 33 -129l74 15c-14 39 -29 80 -42 114h132zM297 719l-48 22c-7 -38 -29 -96 -54 -138l45 -19c26 41 49 98 57 135zM775 702l71 19c-23 49 -51 106 -75 149h180v61h-538v-61h292
c25 -47 56 -118 70 -168zM804 634v-119h-247v119h247zM871 456v237h-378v-237h378zM642 848l-63 20c-6 -38 -29 -99 -54 -145l60 -17c27 45 51 104 57 142zM911 182l42 40c-29 27 -65 52 -97 72c33 46 71 84 114 110c-17 11 -37 36 -48 54c-44 -30 -83 -72 -117 -121v51
h-248v-39c-34 48 -73 88 -116 116c-9 -14 -29 -38 -44 -50c40 -25 80 -64 113 -113c-24 -23 -59 -51 -89 -71l40 -47c27 17 60 40 83 62c17 -34 32 -69 43 -105h-139v-61h164l12 -2l42 15c-19 90 -52 169 -94 234h227c-49 -74 -85 -165 -109 -261l59 -12c7 29 17 57 27 86
c26 -24 55 -51 73 -71l44 40c-30 30 -65 59 -96 82c9 20 20 40 31 59c29 -22 63 -48 83 -68z" />
</svg>
