<?xml version="1.0" standalone="no"?>
<!DOCTYPE svg PUBLIC "-//W3C//DTD SVG 1.1//EN" "http://www.w3.org/Graphics/SVG/1.1/DTD/svg11.dtd" >
<svg xmlns="http://www.w3.org/2000/svg" xmlns:xlink="http://www.w3.org/1999/xlink" version="1.1" viewBox="-10 0 1010 1000">
   <path fill="currentColor"
d="M189 303l44 -18c25 41 48 97 55 135l-47 21c-6 -38 -28 -96 -52 -138zM162 484h159v-245h-159v245zM377 178v697c0 35 -7 54 -28 65c-21 10 -54 12 -110 11c-2 -17 -10 -43 -19 -59c40 1 75 1 85 0c11 -1 16 -4 16 -17v-327h-159c0 128 -12 299 -77 409
c-9 -11 -33 -28 -47 -35c61 -104 68 -254 68 -374h-64v-64h64v-306h78c12 -41 27 -96 33 -135l73 14c-14 42 -30 86 -44 121h131zM292 725l-48 22c-5 -38 -27 -95 -52 -138l44 -19c25 41 48 98 56 135zM597 617v50h96v-53h-72v3h-24zM693 523h-96v47h24v3h72v-50zM847 570
v-47h-100v50h85v-3h15zM747 667h100v-50h-15v-3h-85v53zM739 752h184s-1 17 -3 25c-13 93 -27 135 -47 153c-15 13 -29 17 -51 18c-19 1 -58 1 -99 -2c-1 -15 -6 -36 -14 -51c39 5 75 5 89 5c15 0 23 -1 29 -8c11 -10 20 -34 30 -90h-132c-28 76 -85 125 -202 156
c-6 -14 -20 -35 -32 -45c96 -23 147 -57 174 -111h-160v-50h177c3 -13 5 -27 7 -42h-151v-230h371v230h-163c-2 15 -4 28 -7 42zM722 402h121c24 0 29 -6 32 -51c13 9 35 16 51 19c-5 62 -23 79 -75 79h-135c-75 0 -95 -12 -95 -69v-16l-104 9l-5 -45l109 -10v-52h-129v220
c0 136 -9 334 -68 470c-11 -10 -37 -28 -51 -33c55 -130 60 -309 60 -437v-276h189v-166h65v63h213v52h-213v51h210l11 -3l44 12c-12 44 -30 93 -47 124l-54 -15c7 -17 15 -40 23 -62h-192v47l150 -13l3 44l-153 14v21c0 20 6 23 40 23z" />
</svg>
