<?xml version="1.0" standalone="no"?>
<!DOCTYPE svg PUBLIC "-//W3C//DTD SVG 1.1//EN" "http://www.w3.org/Graphics/SVG/1.1/DTD/svg11.dtd" >
<svg xmlns="http://www.w3.org/2000/svg" xmlns:xlink="http://www.w3.org/1999/xlink" version="1.1" viewBox="-10 0 1010 1000">
   <path fill="currentColor"
d="M416 777l-57 54c-22 -49 -55 -112 -92 -180c-52 99 -112 181 -179 239c-11 -18 -37 -44 -54 -56c70 -57 135 -148 188 -261c-49 -84 -103 -172 -152 -248l51 -44c43 66 90 140 135 212c31 -82 57 -174 74 -268h-273v-67h293l14 -3l47 17c-22 149 -59 285 -108 401
c46 76 86 149 113 204zM524 335v124h294v-124h-294zM818 153h-294v120h294v-120zM895 556l50 52c-50 41 -115 86 -169 118c49 71 112 127 192 160c-17 14 -40 44 -51 63c-155 -75 -246 -227 -296 -425h-97v329l176 -43c0 22 1 52 4 68c-206 56 -236 66 -256 79
c-5 -17 -21 -46 -33 -61c15 -8 37 -29 37 -70v-739h438v437h-204c15 53 34 103 58 149c52 -34 112 -80 151 -117z" />
</svg>
