<?xml version="1.0" standalone="no"?>
<!DOCTYPE svg PUBLIC "-//W3C//DTD SVG 1.1//EN" "http://www.w3.org/Graphics/SVG/1.1/DTD/svg11.dtd" >
<svg xmlns="http://www.w3.org/2000/svg" xmlns:xlink="http://www.w3.org/1999/xlink" version="1.1" viewBox="-10 0 1010 1000">
   <path fill="currentColor"
d="M302 303v-94h-250v-71h250v-94h74v94h246v-94h73v94h251v71h-251v94h-73v-94h-246v94h-74zM763 868h92c28 0 32 -25 36 -163c17 14 47 27 68 33c-7 156 -26 201 -98 201h-109c-74 0 -96 -23 -96 -110v-414h-344v148c0 133 -33 294 -220 393c-10 -14 -36 -43 -52 -54
c176 -92 199 -225 199 -340v-217h490v484c0 34 5 39 34 39z" />
</svg>
