<?xml version="1.0" standalone="no"?>
<!DOCTYPE svg PUBLIC "-//W3C//DTD SVG 1.1//EN" "http://www.w3.org/Graphics/SVG/1.1/DTD/svg11.dtd" >
<svg xmlns="http://www.w3.org/2000/svg" xmlns:xlink="http://www.w3.org/1999/xlink" version="1.1" viewBox="-10 0 1010 1000">
   <path fill="currentColor"
d="M292 564l62 -33c71 67 144 160 174 226l-68 37c-27 -66 -99 -162 -168 -230zM896 374l-3 36c-22 331 -45 458 -88 503c-26 26 -50 34 -93 36c-37 3 -109 1 -181 -4c-1 -22 -12 -51 -27 -72c79 7 156 8 185 8c24 0 37 -2 51 -13c35 -31 56 -148 76 -424h-544
c-43 73 -94 140 -145 189c-13 -13 -47 -35 -65 -45c84 -72 159 -185 204 -300l74 19c-9 22 -19 45 -29 67h585zM710 138h226v69h-226v90h-73v-90h-269v87h-74v-87h-231v-69h231v-94h74v94h269v-94h73v94z" />
</svg>
