<?xml version="1.0" standalone="no"?>
<!DOCTYPE svg PUBLIC "-//W3C//DTD SVG 1.1//EN" "http://www.w3.org/Graphics/SVG/1.1/DTD/svg11.dtd" >
<svg xmlns="http://www.w3.org/2000/svg" xmlns:xlink="http://www.w3.org/1999/xlink" version="1.1" viewBox="-10 0 1010 1000">
   <path fill="currentColor"
d="M261 268l70 20c-22 52 -49 104 -79 152v516h-73v-412c-32 40 -66 77 -100 107c-10 -15 -35 -46 -51 -60c94 -77 182 -197 233 -323zM751 494h174s-1 23 -2 33c-14 248 -26 342 -55 374c-19 22 -39 28 -70 31c-28 2 -80 2 -136 -2c-1 -21 -10 -50 -22 -69
c55 5 108 6 129 6c17 0 28 -2 38 -12c20 -20 33 -98 44 -295h-184c12 -51 25 -123 36 -190h-152c-12 226 -45 458 -214 586c-12 -17 -35 -40 -53 -53c159 -113 185 -329 194 -533h-125v-66h432c-9 61 -22 131 -34 190zM701 121h242v67h-242v69h-73v-69h-262v69h-73v-69h-236
v-67h236v-76h73v76h262v-76h73v76z" />
</svg>
