<?xml version="1.0" standalone="no"?>
<!DOCTYPE svg PUBLIC "-//W3C//DTD SVG 1.1//EN" "http://www.w3.org/Graphics/SVG/1.1/DTD/svg11.dtd" >
<svg xmlns="http://www.w3.org/2000/svg" xmlns:xlink="http://www.w3.org/1999/xlink" version="1.1" viewBox="-10 0 1010 1000">
   <path fill="currentColor"
d="M701 615h-305c41 59 97 109 165 150c57 -40 106 -90 140 -150zM756 546l50 25c-39 97 -100 172 -177 231c94 43 205 73 327 87c-17 17 -36 48 -46 69c-131 -21 -249 -57 -347 -111c-91 54 -197 90 -309 114c-8 -20 -25 -48 -39 -64c101 -17 197 -48 280 -92
c-65 -46 -120 -101 -164 -166c-50 116 -124 225 -232 308c-11 -18 -35 -44 -53 -55c147 -108 228 -268 267 -428h-250v-67h263c5 -30 9 -61 12 -90h-50v-89h-221v-68h221v-107h73v107h277v-107h73v107h229v68h-229v100h-73v-100h-277v75l54 4c-3 32 -7 67 -13 100h539v67
h-553c-6 28 -14 57 -23 85h376z" />
</svg>
