<?xml version="1.0" standalone="no"?>
<!DOCTYPE svg PUBLIC "-//W3C//DTD SVG 1.1//EN" "http://www.w3.org/Graphics/SVG/1.1/DTD/svg11.dtd" >
<svg xmlns="http://www.w3.org/2000/svg" xmlns:xlink="http://www.w3.org/1999/xlink" version="1.1" viewBox="-10 0 1010 1000">
   <path fill="currentColor"
d="M66 490v-70h862v70h-404v113l25 -31c96 41 228 108 293 153l-44 60c-59 -43 -179 -108 -274 -153v323h-76v-465h-382zM428 289l73 -19c23 39 50 91 61 124l-76 24c-11 -34 -36 -89 -58 -129zM714 144h223v69h-223v94h-73v-94h-283v94h-73v-94h-220v-69h220v-101h73v101
h283v-101h73v101z" />
</svg>
