<?xml version="1.0" standalone="no"?>
<!DOCTYPE svg PUBLIC "-//W3C//DTD SVG 1.1//EN" "http://www.w3.org/Graphics/SVG/1.1/DTD/svg11.dtd" >
<svg xmlns="http://www.w3.org/2000/svg" xmlns:xlink="http://www.w3.org/1999/xlink" version="1.1" viewBox="-10 0 1010 1000">
   <path fill="currentColor"
d="M284 282v-87h-220v-67h220v-84h73v84h281v-84h73v84h226v67h-226v87h-73v-87h-281v87h-73zM945 628v69h-411v262h-74v-262h-405v-69h405v-246h-345v-69h772v69h-353v246h411zM164 429l64 -25c46 58 96 136 118 187l-69 27c-19 -50 -68 -130 -113 -189zM704 616l-62 -21
c40 -50 90 -133 116 -191l76 23c-41 65 -90 140 -130 189z" />
</svg>
