<?xml version="1.0" standalone="no"?>
<!DOCTYPE svg PUBLIC "-//W3C//DTD SVG 1.1//EN" "http://www.w3.org/Graphics/SVG/1.1/DTD/svg11.dtd" >
<svg xmlns="http://www.w3.org/2000/svg" xmlns:xlink="http://www.w3.org/1999/xlink" version="1.1" viewBox="-10 0 1010 1000">
   <path fill="currentColor"
d="M293 345v-120h-225v-71h225v-110h74v110h262v-110h74v110h230v71h-230v120h-74v-120h-262v120h-74zM366 363l50 -46c68 36 149 91 188 137l-53 51c-36 -46 -116 -104 -185 -142zM163 473l68 19c-17 109 -49 223 -121 290l-67 -35c69 -63 104 -169 120 -274zM445 872h190
c53 0 62 -24 68 -165c17 14 49 27 69 32c-10 162 -34 205 -133 205h-200c-100 0 -131 -22 -134 -103c-62 34 -128 64 -198 90c-11 -18 -31 -45 -45 -61c87 -30 168 -68 243 -112v-298h74v251c152 -104 272 -234 345 -376l73 31c-96 169 -238 317 -418 431v31
c0 37 10 44 66 44zM724 516l66 -29c70 87 140 205 166 285l-71 32c-23 -78 -92 -199 -161 -288z" />
</svg>
