<?xml version="1.0" standalone="no"?>
<!DOCTYPE svg PUBLIC "-//W3C//DTD SVG 1.1//EN" "http://www.w3.org/Graphics/SVG/1.1/DTD/svg11.dtd" >
<svg xmlns="http://www.w3.org/2000/svg" xmlns:xlink="http://www.w3.org/1999/xlink" version="1.1" viewBox="-10 0 1010 1000">
   <path fill="currentColor"
d="M290 276v-82h-227v-69h227v-81h73v81h271v-81h73v81h231v69h-231v82h-74v-82h-270v82h-73zM268 280l69 23c-23 53 -53 105 -86 154v499h-73v-404c-33 38 -68 73 -103 102c-7 -17 -27 -56 -41 -72c93 -71 182 -183 234 -302zM947 563h-280v300h263v71h-589v-71h252v-300
h-275v-71h275v-199h74v199h280v71z" />
</svg>
