<?xml version="1.0" standalone="no"?>
<!DOCTYPE svg PUBLIC "-//W3C//DTD SVG 1.1//EN" "http://www.w3.org/Graphics/SVG/1.1/DTD/svg11.dtd" >
<svg xmlns="http://www.w3.org/2000/svg" xmlns:xlink="http://www.w3.org/1999/xlink" version="1.1" viewBox="-10 0 1010 1000">
   <path fill="currentColor"
d="M293 284v-79h-228v-68h228v-93h73v93h270v-93h73v93h230v68h-230v76h-73v-76h-270v79h-73zM657 861h184c44 0 51 -17 55 -115c17 12 46 23 67 29c-9 120 -31 153 -116 153h-195c-101 0 -129 -23 -129 -107v-7c-54 31 -109 59 -163 81c-10 -17 -31 -44 -49 -59
c70 -27 143 -62 212 -103v-248h-98c-47 223 -143 365 -331 461c-9 -16 -36 -47 -51 -61c175 -78 263 -206 307 -400h-288v-70h302c6 -38 11 -79 15 -121l75 6c-4 40 -9 79 -15 115h318c-44 -25 -115 -58 -170 -79l34 -46c62 22 144 58 187 83l-29 42h162v70h-345v202
c71 -48 134 -100 180 -155l66 34c-65 74 -152 145 -246 204v51c0 33 9 40 61 40z" />
</svg>
