<?xml version="1.0" standalone="no"?>
<!DOCTYPE svg PUBLIC "-//W3C//DTD SVG 1.1//EN" "http://www.w3.org/Graphics/SVG/1.1/DTD/svg11.dtd" >
<svg xmlns="http://www.w3.org/2000/svg" xmlns:xlink="http://www.w3.org/1999/xlink" version="1.1" viewBox="-10 0 1010 1000">
   <path fill="currentColor"
d="M750 747v62h-693v-62h693zM265 603h650s0 21 -1 31c-11 188 -22 262 -48 289c-17 19 -36 25 -66 28c-28 1 -81 1 -136 -2c-2 -20 -10 -46 -21 -64c55 5 109 5 129 5c18 0 29 -1 38 -9c17 -16 26 -74 35 -217h-647v-346h213c19 -28 41 -65 53 -91l72 22
c-15 25 -31 48 -45 69h311s0 19 -2 29c-8 123 -17 172 -36 192c-14 15 -30 20 -54 22c-20 1 -57 1 -95 0c-1 -19 -8 -42 -16 -58c36 3 71 4 84 4s20 -1 27 -9c8 -10 15 -42 21 -118h-466v223zM567 502l-39 48c-40 -28 -120 -71 -181 -99l39 -43c60 27 140 67 181 94z
M704 129h239v60h-239v80h-73v-80h-265v81h-72v-81h-235v-60h235v-85h72v85h265v-85h73v85z" />
</svg>
