<?xml version="1.0" standalone="no"?>
<!DOCTYPE svg PUBLIC "-//W3C//DTD SVG 1.1//EN" "http://www.w3.org/Graphics/SVG/1.1/DTD/svg11.dtd" >
<svg xmlns="http://www.w3.org/2000/svg" xmlns:xlink="http://www.w3.org/1999/xlink" version="1.1" viewBox="-10 0 1010 1000">
   <path fill="currentColor"
d="M289 287v-81h-227v-68h227v-94h73v94h272v-94h73v94h231v68h-231v74h-73v-74h-272v81h-73zM655 347l45 -46c57 21 125 57 164 85l-46 51c-38 -29 -107 -69 -163 -90zM259 281l73 22c-22 54 -50 108 -81 158v494h-73v-390c-28 36 -57 68 -87 96c-11 -14 -40 -43 -57 -57
c93 -77 175 -197 225 -323zM811 543l69 25c-49 79 -113 147 -187 205c47 71 102 113 157 113c31 0 41 -31 48 -123c16 14 41 29 60 35c-13 125 -42 158 -112 158c-81 0 -153 -53 -212 -140c-85 57 -180 102 -278 137c-10 -16 -32 -48 -48 -63c105 -32 205 -77 291 -134
c-32 -63 -59 -137 -78 -219l-205 16l-6 -68l197 -15c-10 -58 -16 -119 -19 -181h74c2 61 8 120 18 176l364 -28l6 66l-356 28c17 68 39 130 64 181c62 -49 114 -105 153 -169z" />
</svg>
