<?xml version="1.0" standalone="no"?>
<!DOCTYPE svg PUBLIC "-//W3C//DTD SVG 1.1//EN" "http://www.w3.org/Graphics/SVG/1.1/DTD/svg11.dtd" >
<svg xmlns="http://www.w3.org/2000/svg" xmlns:xlink="http://www.w3.org/1999/xlink" version="1.1" viewBox="-10 0 1010 1000">
   <path fill="currentColor"
d="M617 627h-234v129h234v-129zM685 814h-302v59h-68v-303h370v244zM729 435v57h-454v-57h454zM879 296v574c0 41 -9 62 -38 74c-31 12 -80 12 -155 12c-3 -19 -15 -49 -25 -68c57 2 110 2 126 1c15 -1 20 -5 20 -19v-510h-614v597h-71v-661h757zM699 125h241v67h-241v82
h-72v-82h-259v82h-72v-82h-234v-67h234v-81h72v81h259v-81h72v81z" />
</svg>
