<?xml version="1.0" standalone="no"?>
<!DOCTYPE svg PUBLIC "-//W3C//DTD SVG 1.1//EN" "http://www.w3.org/Graphics/SVG/1.1/DTD/svg11.dtd" >
<svg xmlns="http://www.w3.org/2000/svg" xmlns:xlink="http://www.w3.org/1999/xlink" version="1.1" viewBox="-10 0 1010 1000">
   <path fill="currentColor"
d="M192 654h174v-105h-170v3c0 31 -1 66 -4 102zM366 385h-170v103h170v-103zM436 322v552c0 38 -8 59 -34 70c-25 12 -66 13 -129 13c-3 -19 -12 -49 -22 -68c45 2 86 2 98 1c13 0 17 -4 17 -17v-158h-180c-12 87 -38 176 -89 244c-12 -13 -42 -33 -59 -40
c80 -108 89 -257 89 -368v-229h309zM691 415h222s-1 25 -1 35c-10 322 -18 433 -45 469c-17 23 -36 29 -63 33c-26 2 -73 2 -118 -1c-2 -20 -10 -51 -21 -70c46 5 89 5 105 5c17 0 25 -2 34 -13c18 -23 27 -120 35 -389h-153c-16 200 -59 371 -198 475
c-11 -18 -35 -43 -53 -56c126 -90 165 -242 179 -419h-141v-69h145c2 -38 3 -76 4 -115h73c-1 39 -2 77 -4 115zM707 132h231v68h-231v81h-73v-81h-272v83h-73v-83h-224v-68h224v-88h73v88h272v-88h73v88z" />
</svg>
