<?xml version="1.0" standalone="no"?>
<!DOCTYPE svg PUBLIC "-//W3C//DTD SVG 1.1//EN" "http://www.w3.org/Graphics/SVG/1.1/DTD/svg11.dtd" >
<svg xmlns="http://www.w3.org/2000/svg" xmlns:xlink="http://www.w3.org/1999/xlink" version="1.1" viewBox="-10 0 1010 1000">
   <path fill="currentColor"
d="M382 271l49 31c-40 66 -89 140 -133 202c97 64 126 122 127 176c0 47 -16 81 -49 100c-17 9 -37 15 -58 17c-25 3 -56 4 -83 2c-1 -19 -9 -44 -20 -62c29 3 56 3 75 2c15 -1 28 -4 40 -9c19 -9 27 -29 27 -55c-2 -46 -33 -100 -134 -161c40 -58 80 -124 110 -180h-163
v623h-70v-682h272zM570 653h256v-126h-253v50c0 24 -1 50 -3 76zM826 344h-253v119h253v-119zM898 279v584c0 43 -11 63 -43 75c-32 11 -88 12 -175 12c-4 -20 -16 -47 -27 -66c68 2 131 2 149 1s24 -6 24 -22v-146h-265c-17 90 -58 180 -147 245c-11 -15 -38 -41 -54 -50
c127 -92 141 -223 141 -336v-297h397zM701 119h241v65h-241v66h-73v-66h-260v66h-73v-66h-236v-65h236v-74h73v74h260v-74h73v74z" />
</svg>
