<?xml version="1.0" standalone="no"?>
<!DOCTYPE svg PUBLIC "-//W3C//DTD SVG 1.1//EN" "http://www.w3.org/Graphics/SVG/1.1/DTD/svg11.dtd" >
<svg xmlns="http://www.w3.org/2000/svg" xmlns:xlink="http://www.w3.org/1999/xlink" version="1.1" viewBox="-10 0 1010 1000">
   <path fill="currentColor"
d="M291 268v-76h-229v-67h229v-81h72v81h267v-81h73v81h238v67h-238v76h-73v-76h-267v76h-72zM910 301v66h-814v-66h814zM253 502v128h494v-128h-494zM824 690h-644v-249h644v249zM264 719l67 -23c27 40 55 92 69 126l-71 28c-12 -35 -41 -90 -65 -131zM661 850h286v68h-891
v-68h521c31 -44 69 -105 90 -150l78 22c-26 44 -57 90 -84 128z" />
</svg>
