<?xml version="1.0" standalone="no"?>
<!DOCTYPE svg PUBLIC "-//W3C//DTD SVG 1.1//EN" "http://www.w3.org/Graphics/SVG/1.1/DTD/svg11.dtd" >
<svg xmlns="http://www.w3.org/2000/svg" xmlns:xlink="http://www.w3.org/1999/xlink" version="1.1" viewBox="-10 0 1010 1000">
   <path fill="currentColor"
d="M296 480v-180h71v658h-71v-259h-106c-1 78 -12 183 -92 261c-13 -14 -39 -34 -56 -44c73 -66 82 -153 83 -217h-74v-67h245v-87h-195v-217h67v152h128zM627 207h-257v68h-74v-68h-232v-69h232v-94h74v94h257v-94h73v94h244v69h-244v70h-73v-70zM948 566h-240v287h220v69
h-501v-69h208v-287h-229v-70h229v-197h73v197h240v70z" />
</svg>
