<?xml version="1.0" standalone="no"?>
<!DOCTYPE svg PUBLIC "-//W3C//DTD SVG 1.1//EN" "http://www.w3.org/Graphics/SVG/1.1/DTD/svg11.dtd" >
<svg xmlns="http://www.w3.org/2000/svg" xmlns:xlink="http://www.w3.org/1999/xlink" version="1.1" viewBox="-10 0 1010 1000">
   <path fill="currentColor"
d="M289 277v-90h-224v-67h224v-75h73v75h272v-75h73v75h232v67h-232v90h-73v-90h-272v90h-73zM101 328l43 -49c57 25 127 66 162 99l-44 55c-35 -33 -103 -78 -161 -105zM255 549l-45 56c-35 -31 -106 -73 -166 -97l42 -51c60 22 131 61 169 92zM260 664l43 56
c-54 75 -120 160 -179 228l-54 -62c52 -53 128 -142 190 -222zM721 872h121c29 0 35 -14 38 -102c14 11 42 22 61 26c-8 110 -27 138 -93 138h-134c-81 0 -102 -20 -102 -92v-222c-38 154 -122 270 -314 339c-8 -17 -29 -45 -44 -57c234 -80 292 -229 310 -439h-165v126h-66
v-191h236c2 -35 3 -71 4 -109h73c-1 38 -3 74 -5 109h281v191h-68v-126h-217c-4 40 -9 77 -16 114h59v265c0 25 6 30 41 30z" />
</svg>
