<?xml version="1.0" standalone="no"?>
<!DOCTYPE svg PUBLIC "-//W3C//DTD SVG 1.1//EN" "http://www.w3.org/Graphics/SVG/1.1/DTD/svg11.dtd" >
<svg xmlns="http://www.w3.org/2000/svg" xmlns:xlink="http://www.w3.org/1999/xlink" version="1.1" viewBox="-10 0 1010 1000">
   <path fill="currentColor"
d="M228 214l61 10v-42h-228v-65h228v-73h73v73h277v-73h73v73h230v65h-230v61h-73v-61h-277v61h-67c-6 13 -13 24 -20 37h651v61h-687c-37 56 -82 112 -138 160c-13 -17 -37 -37 -55 -46c88 -72 150 -165 182 -241zM577 785h164c5 -34 9 -79 13 -136h-480
c-5 49 -10 95 -15 136h316c-39 -31 -110 -72 -170 -95l39 -41c61 23 134 62 172 92zM762 461h-471c-4 41 -6 83 -10 126h289c-37 -29 -98 -65 -148 -86l38 -40c56 22 123 61 157 88l-34 38h173c2 -37 4 -79 6 -126zM946 649h-121c-4 56 -8 100 -12 136h106v57h-115
c-7 38 -15 61 -26 74c-19 22 -40 30 -70 32s-83 2 -136 -2c-1 -17 -7 -42 -18 -58c55 5 105 5 124 5c18 0 28 -2 37 -13c6 -7 12 -18 17 -38h-553c8 -52 16 -121 24 -193h-147v-62h154c6 -63 11 -128 15 -184h609v33c-2 57 -4 107 -7 151h119v62z" />
</svg>
