<?xml version="1.0" standalone="no"?>
<!DOCTYPE svg PUBLIC "-//W3C//DTD SVG 1.1//EN" "http://www.w3.org/Graphics/SVG/1.1/DTD/svg11.dtd" >
<svg xmlns="http://www.w3.org/2000/svg" xmlns:xlink="http://www.w3.org/1999/xlink" version="1.1" viewBox="-10 0 1010 1000">
   <path fill="currentColor"
d="M292 274v-87h-230v-67h230v-75h73v75h266v-75h73v75h233v67h-233v87h-73v-87h-266v87h-73zM432 478h67v247h122v-346c-67 10 -136 17 -201 23c-2 -15 -12 -41 -21 -55c158 -15 340 -44 437 -77l62 49c-58 19 -131 36 -208 49v138h222v65h-222v154h241v62h-499v-309z
M322 506l43 15c-18 109 -53 198 -98 270c86 63 209 77 361 78c43 0 276 0 332 -2c-11 18 -24 49 -28 70h-306c-172 0 -304 -18 -400 -93c-40 48 -88 85 -141 113c-9 -16 -27 -42 -42 -54c50 -24 95 -60 134 -106c-30 -37 -56 -83 -78 -139l58 -22c15 43 35 78 60 107
c30 -49 54 -106 70 -171h-194c40 -54 89 -132 131 -202h-157v-65h270c-38 66 -83 141 -123 204h96z" />
</svg>
