<?xml version="1.0" standalone="no"?>
<!DOCTYPE svg PUBLIC "-//W3C//DTD SVG 1.1//EN" "http://www.w3.org/Graphics/SVG/1.1/DTD/svg11.dtd" >
<svg xmlns="http://www.w3.org/2000/svg" xmlns:xlink="http://www.w3.org/1999/xlink" version="1.1" viewBox="-10 0 1010 1000">
   <path fill="currentColor"
d="M290 243v-71h-225v-64h225v-64h72v64h269v-64h73v64h234v64h-234v57h-73v-57h-269v71h-72zM942 454h-331c89 64 225 113 354 136c-15 13 -34 39 -43 57c-143 -32 -296 -100 -388 -187v136h-73v-130c-66 61 -159 113 -256 150h463c-9 31 -19 63 -29 93h215l-3 31
c-14 115 -28 167 -56 191c-20 18 -43 22 -82 24c-35 1 -108 0 -185 -4c-2 -20 -12 -46 -24 -65c77 8 160 9 186 9s39 -1 49 -8c15 -13 26 -47 36 -116h-226c10 -27 20 -60 31 -94h-174c-32 135 -106 229 -311 279c-7 -17 -25 -45 -39 -59c183 -39 248 -114 276 -220h-139
v-56c-38 14 -77 26 -116 35c-9 -16 -28 -43 -42 -57c127 -24 265 -79 356 -145h-332v-61h402v-73c-108 7 -219 10 -322 11c-1 -16 -8 -39 -14 -53c234 -5 517 -20 670 -47l50 50c-86 16 -195 26 -311 35v77h408v61z" />
</svg>
