<?xml version="1.0" standalone="no"?>
<!DOCTYPE svg PUBLIC "-//W3C//DTD SVG 1.1//EN" "http://www.w3.org/Graphics/SVG/1.1/DTD/svg11.dtd" >
<svg xmlns="http://www.w3.org/2000/svg" xmlns:xlink="http://www.w3.org/1999/xlink" version="1.1" viewBox="-10 0 1010 1000">
   <path fill="currentColor"
d="M557 449v-82h-122v82h122zM803 505h-184v85c0 23 5 26 39 26h127c8 0 14 0 18 -1v-110zM199 862h604v-69h-604v69zM370 505h-171v236h604v-74h-11h-140c-76 0 -95 -15 -95 -77v-85h-125c-10 71 -47 150 -169 205c-9 -14 -27 -33 -42 -44c107 -41 139 -105 149 -161z
M63 367v-59h876v59h-320v82h256v505h-72v-36h-604v39h-69v-508h244v-82h-311zM704 129h234v62h-234v86h-73v-86h-268v86h-73v-86h-224v-62h224v-86h73v86h268v-86h73v86z" />
</svg>
