<?xml version="1.0" standalone="no"?>
<!DOCTYPE svg PUBLIC "-//W3C//DTD SVG 1.1//EN" "http://www.w3.org/Graphics/SVG/1.1/DTD/svg11.dtd" >
<svg xmlns="http://www.w3.org/2000/svg" xmlns:xlink="http://www.w3.org/1999/xlink" version="1.1" viewBox="-10 0 1010 1000">
   <path fill="currentColor"
d="M536 663v20h399v62h-399v131c0 40 -9 58 -40 69c-31 10 -82 10 -161 10c-4 -19 -15 -45 -25 -64c61 2 117 2 132 1c17 -1 21 -4 21 -17v-130h-397v-62h397v-50c61 -16 129 -42 185 -68h-484v-59h91c-15 -27 -44 -70 -67 -103l54 -28c24 31 55 74 71 101l-53 30h486l15 -4
l47 39c-74 48 -175 92 -272 122zM819 252l49 54c-191 36 -493 56 -744 61c0 -17 -8 -42 -14 -58c245 -6 546 -25 709 -57zM716 494l-53 -27c35 -32 83 -86 110 -123l63 31c-39 43 -84 89 -120 119zM552 469l-58 31c-13 -29 -41 -78 -62 -114l54 -28c23 34 52 82 66 111z
M704 119h234v66h-234v65h-72v-65h-269v77h-73v-77h-225v-66h225v-76h73v76h269v-76h72v76z" />
</svg>
