<?xml version="1.0" standalone="no"?>
<!DOCTYPE svg PUBLIC "-//W3C//DTD SVG 1.1//EN" "http://www.w3.org/Graphics/SVG/1.1/DTD/svg11.dtd" >
<svg xmlns="http://www.w3.org/2000/svg" xmlns:xlink="http://www.w3.org/1999/xlink" version="1.1" viewBox="-10 0 1010 1000">
   <path fill="currentColor"
d="M241 633h204c14 -43 23 -90 30 -142h-234v142zM606 342h-276c-28 29 -60 59 -95 87h288c28 -24 57 -55 83 -87zM778 633v-142h-227c-7 51 -16 99 -29 142h256zM856 695h-357c-58 125 -174 214 -419 261c-6 -19 -24 -47 -37 -63c213 -37 318 -103 374 -198h-250v-216
c-19 13 -38 25 -59 36c-11 -15 -33 -39 -49 -51c119 -60 208 -143 262 -216h-36v-54h-224v-65h224v-85h73v85h279v-85h73v85h231v65h-231v62h-73v-62h-279v34l57 12c-10 14 -20 27 -32 41h275l13 -5l54 26c-34 43 -71 89 -109 127h240v266zM654 880h183c43 0 51 -14 55 -110
c16 11 45 22 65 26c-9 119 -31 147 -114 147h-194c-102 0 -129 -19 -129 -91v-139h71v138c0 24 10 29 63 29z" />
</svg>
