<?xml version="1.0" standalone="no"?>
<!DOCTYPE svg PUBLIC "-//W3C//DTD SVG 1.1//EN" "http://www.w3.org/Graphics/SVG/1.1/DTD/svg11.dtd" >
<svg xmlns="http://www.w3.org/2000/svg" xmlns:xlink="http://www.w3.org/1999/xlink" version="1.1" viewBox="-10 0 1010 1000">
   <path fill="currentColor"
d="M819 819l-52 39c-26 -30 -80 -78 -125 -110l49 -35c45 30 100 76 128 106zM536 713v147h392v65h-854v-65h388v-147h-285v-64h285v-118h-278v-63h633v63h-281v118h287v64h-287zM913 468h-74v-101h-684v108h-72v-173h830v166zM708 130h231v66h-231v74h-74v-74h-269v74h-75
v-74h-228v-66h228v-85h75v85h269v-85h74v85z" />
</svg>
