<?xml version="1.0" standalone="no"?>
<!DOCTYPE svg PUBLIC "-//W3C//DTD SVG 1.1//EN" "http://www.w3.org/Graphics/SVG/1.1/DTD/svg11.dtd" >
<svg xmlns="http://www.w3.org/2000/svg" xmlns:xlink="http://www.w3.org/1999/xlink" version="1.1" viewBox="-10 0 1010 1000">
   <path fill="currentColor"
d="M295 244v-62h-238v-65h238v-73h73v73h260v-73h73v73h244v65h-244v58h-73v-58h-260v62h-73zM69 917l-13 -68c91 -12 227 -33 361 -55l4 65c-126 21 -256 43 -352 58zM168 476l137 -8c20 -25 40 -50 58 -77l59 34c-68 88 -147 173 -225 242l212 -20c-4 19 -5 47 -5 62
c-258 28 -292 34 -314 43c-3 -13 -14 -46 -21 -64c21 -4 46 -23 76 -52c19 -14 61 -55 107 -106c-127 10 -150 15 -165 21c-4 -14 -14 -48 -22 -65c15 -3 32 -19 51 -40c19 -23 84 -108 123 -190l66 28c-41 69 -89 138 -137 192zM761 886h64c15 0 33 0 41 -3
c7 -2 18 -8 21 -19c4 -12 6 -39 7 -76c16 13 40 25 62 32c-1 34 -7 73 -15 89s-21 25 -40 31c-18 5 -46 7 -70 7h-82c-23 0 -54 -4 -72 -17c-21 -13 -31 -29 -31 -104v-101h-179v-267h66v200h113v-255h-213v-65h213v-84h68v84h223v65h-223v255h111v-200h69v267h-180v108
c0 27 3 43 14 49c7 3 18 4 33 4z" />
</svg>
