<?xml version="1.0" standalone="no"?>
<!DOCTYPE svg PUBLIC "-//W3C//DTD SVG 1.1//EN" "http://www.w3.org/Graphics/SVG/1.1/DTD/svg11.dtd" >
<svg xmlns="http://www.w3.org/2000/svg" xmlns:xlink="http://www.w3.org/1999/xlink" version="1.1" viewBox="-10 0 1010 1000">
   <path fill="currentColor"
d="M755 757h-465v106h465v-106zM705 482h-415v90h415v-90zM290 629v70h538v260h-73v-38h-465v38h-75v-533h562v203h-487zM443 236l72 -21c14 26 32 59 44 85h352v177h-75v-117h-670v117h-73v-177h381c-8 -21 -20 -45 -31 -64zM719 116h221v67h-221v81h-73v-81h-288v81h-73
v-81h-223v-67h223v-72h73v72h288v-72h73v72z" />
</svg>
