<?xml version="1.0" standalone="no"?>
<!DOCTYPE svg PUBLIC "-//W3C//DTD SVG 1.1//EN" "http://www.w3.org/Graphics/SVG/1.1/DTD/svg11.dtd" >
<svg xmlns="http://www.w3.org/2000/svg" xmlns:xlink="http://www.w3.org/1999/xlink" version="1.1" viewBox="-10 0 1010 1000">
   <path fill="currentColor"
d="M296 253v-74h-231v-63h231v-72h73v72h258v-72h73v72h239v63h-239v68h-73v-68h-258v74h-73zM735 375l54 28c-40 32 -91 59 -150 82c61 27 127 42 186 41c35 -1 43 -16 48 -75c15 11 37 20 56 24c-11 92 -38 114 -106 114c-85 0 -182 -28 -266 -77c-124 38 -271 61 -423 75
c-5 -17 -16 -39 -27 -54c141 -10 279 -28 394 -58c-32 -25 -61 -53 -83 -84l-340 18l-6 -58l313 -17c-12 -23 -20 -48 -25 -74h66c5 25 14 49 27 72l209 -11c-39 -17 -92 -35 -133 -45l34 -41c50 11 115 31 152 48l-27 36l233 -12l6 57l-432 23c24 25 52 46 82 66
c64 -21 118 -48 158 -78zM771 701l57 31c-47 43 -107 79 -179 109c62 30 129 48 194 47c38 -1 48 -21 53 -92c17 13 42 22 61 27c-12 106 -41 131 -115 131c-92 0 -190 -30 -275 -83c-129 44 -285 70 -445 87c-5 -19 -17 -44 -29 -61c148 -12 294 -35 415 -69
c-37 -31 -69 -68 -95 -108l-353 20l-5 -59l328 -18c-13 -29 -22 -60 -27 -93h71c5 32 16 61 29 89l211 -12c-41 -19 -97 -39 -142 -53l37 -43c56 14 130 42 171 62l-25 32l234 -13l6 59l-455 26c26 32 57 61 92 86c76 -28 139 -61 186 -102z" />
</svg>
