<?xml version="1.0" standalone="no"?>
<!DOCTYPE svg PUBLIC "-//W3C//DTD SVG 1.1//EN" "http://www.w3.org/Graphics/SVG/1.1/DTD/svg11.dtd" >
<svg xmlns="http://www.w3.org/2000/svg" xmlns:xlink="http://www.w3.org/1999/xlink" version="1.1" viewBox="-10 0 1010 1000">
   <path fill="currentColor"
d="M296 259v-79h-232v-66h232v-70h74v70h259v-70h75v70h235v66h-235v68h-75v-68h-259v79h-74zM808 238l60 58c-193 44 -504 66 -757 71c-2 -18 -10 -47 -17 -63c249 -7 554 -28 714 -66zM541 510l-69 23c-6 -38 -32 -97 -59 -141l65 -20c29 42 55 98 63 138zM292 539l-65 28
c-13 -42 -51 -104 -88 -149l62 -26c39 44 77 105 91 147zM805 355l74 29c-40 65 -90 141 -129 190l-58 -25c38 -51 86 -135 113 -194zM942 682h-342c87 83 227 152 359 184c-17 16 -39 45 -50 65c-136 -42 -281 -126 -373 -226v251h-76v-249c-96 99 -240 186 -372 231
c-11 -20 -33 -49 -51 -65c127 -35 267 -109 356 -191h-332v-67h399v-76h76v76h406v67z" />
</svg>
