<?xml version="1.0" standalone="no"?>
<!DOCTYPE svg PUBLIC "-//W3C//DTD SVG 1.1//EN" "http://www.w3.org/Graphics/SVG/1.1/DTD/svg11.dtd" >
<svg xmlns="http://www.w3.org/2000/svg" xmlns:xlink="http://www.w3.org/1999/xlink" version="1.1" viewBox="-10 0 1010 1000">
   <path fill="currentColor"
d="M281 241v-66h-216v-63h216v-68h73v68h290v-68h72v68h222v63h-222v67h-72v-67h-290v66h-73zM927 356h-715v143c0 134 -16 326 -108 456c-13 -12 -43 -32 -61 -38c88 -123 98 -296 98 -418v-207h356c-13 -25 -30 -53 -48 -74l61 -24c24 30 49 68 63 98h354v64zM520 781
l51 -16c34 48 75 113 93 155l-55 19c-18 -40 -56 -108 -89 -158zM379 617h214c-11 -41 -18 -84 -23 -128c-63 5 -129 9 -191 11v117zM896 677h-215c48 127 122 210 178 209c22 0 30 -32 34 -110c16 14 39 26 57 32c-11 114 -36 145 -95 145c-94 0 -191 -113 -245 -276h-231
v171l133 -30c0 21 3 48 7 63c-169 42 -196 50 -213 61c-7 -18 -22 -51 -35 -68c15 -9 38 -29 38 -69v-358h1c170 -7 376 -24 495 -48l36 56c-57 12 -128 20 -204 28c5 47 14 92 25 134h234v60z" />
</svg>
