<?xml version="1.0" standalone="no"?>
<!DOCTYPE svg PUBLIC "-//W3C//DTD SVG 1.1//EN" "http://www.w3.org/Graphics/SVG/1.1/DTD/svg11.dtd" >
<svg xmlns="http://www.w3.org/2000/svg" xmlns:xlink="http://www.w3.org/1999/xlink" version="1.1" viewBox="-10 0 1010 1000">
   <path fill="currentColor"
d="M296 236v-63h-229v-61h229v-68h73v68h259v-68h73v68h235v61h-235v63h-73v-63h-259v63h-73zM234 500h228v-77h-228v77zM762 423h-227v77h227v-77zM535 863h414v59h-895v-59h408v-70h-309v-55h309v-66h-338v-56h338v-65h-298v-179h298v-55h-362v-59h806v59h-371v55h300v179
h-300v65h342v56h-342v66h317v55h-317v70z" />
</svg>
