<?xml version="1.0" standalone="no"?>
<!DOCTYPE svg PUBLIC "-//W3C//DTD SVG 1.1//EN" "http://www.w3.org/Graphics/SVG/1.1/DTD/svg11.dtd" >
<svg xmlns="http://www.w3.org/2000/svg" xmlns:xlink="http://www.w3.org/1999/xlink" version="1.1" viewBox="-10 0 1010 1000">
   <path fill="currentColor"
d="M286 244v-63h-225v-64h225v-73h73v73h279v-73h73v73h229v64h-229v65h-73v-65h-279v63h-73zM941 408v61h-881v-61h402v-74h-284v-60h284v-58h73v58h299v60h-299v74h406zM920 579l-35 58c-66 -34 -199 -85 -299 -115l32 -51c97 27 231 74 302 108zM138 640l-48 -54
c83 -26 193 -69 276 -115l59 38c-90 49 -202 99 -287 131zM369 681l-18 12c36 44 88 79 152 108c71 -31 132 -70 176 -120h-310zM740 622l45 29c-48 77 -118 135 -203 179c105 33 230 52 366 59c-14 15 -30 43 -38 62c-155 -12 -295 -37 -408 -85c-126 50 -276 75 -427 88
c-5 -19 -17 -45 -27 -62c132 -8 263 -27 377 -63c-50 -28 -93 -63 -127 -103c-45 26 -96 48 -154 69c-9 -16 -30 -39 -43 -51c153 -47 259 -120 314 -189l73 14c-15 20 -33 38 -52 57h291z" />
</svg>
