<?xml version="1.0" standalone="no"?>
<!DOCTYPE svg PUBLIC "-//W3C//DTD SVG 1.1//EN" "http://www.w3.org/Graphics/SVG/1.1/DTD/svg11.dtd" >
<svg xmlns="http://www.w3.org/2000/svg" xmlns:xlink="http://www.w3.org/1999/xlink" version="1.1" viewBox="-10 0 1010 1000">
   <path fill="currentColor"
d="M286 255v-65h-220v-67h220v-78h73v78h280v-78h72v78h225v67h-225v66h-72v-66h-280v65h-73zM256 660l64 24c-29 70 -72 156 -130 209l-63 -37c57 -49 102 -131 129 -196zM417 866v-284h71v286c0 36 -7 55 -36 67c-28 11 -72 12 -136 12c-3 -20 -14 -47 -24 -67
c51 2 95 2 109 1c13 0 16 -3 16 -15zM542 684l60 -18c37 62 71 146 83 199l-65 23c-10 -55 -44 -140 -78 -204zM675 661l61 -25c57 65 115 152 142 212l-65 28c-25 -60 -83 -150 -138 -215zM942 516h-246c70 61 172 113 272 139c-18 14 -40 41 -51 60
c-119 -38 -238 -112 -312 -199h-213c-80 91 -184 158 -304 205c-9 -15 -33 -45 -48 -59c99 -33 186 -82 255 -146h-234v-64h293c23 -30 44 -64 61 -100h-277v-64h741v64h-383c-16 35 -35 69 -55 100h501v64z" />
</svg>
