<?xml version="1.0" standalone="no"?>
<!DOCTYPE svg PUBLIC "-//W3C//DTD SVG 1.1//EN" "http://www.w3.org/Graphics/SVG/1.1/DTD/svg11.dtd" >
<svg xmlns="http://www.w3.org/2000/svg" xmlns:xlink="http://www.w3.org/1999/xlink" version="1.1" viewBox="-10 0 1010 1000">
   <path fill="currentColor"
d="M292 271v-79h-235v-68h235v-80h73v80h266v-80h74v80h242v68h-242v81h-74v-81h-266v79h-73zM534 386v151c83 151 244 274 430 325c-18 16 -41 46 -51 67c-153 -51 -286 -150 -379 -277v304h-72v-305c-94 128 -227 229 -374 284c-10 -20 -32 -47 -50 -64
c180 -57 342 -187 424 -339v-146h-391v-66h391v-90h72v90h397v66h-397zM231 408l69 10c-7 31 -16 61 -26 89c38 36 81 81 103 111l-52 39c-17 -25 -47 -60 -79 -92c-29 54 -68 99 -112 134c-11 -12 -39 -34 -55 -44c78 -54 130 -141 152 -247zM721 408l70 9
c-5 28 -13 55 -22 80c56 46 124 107 159 147l-54 44c-28 -34 -82 -87 -132 -131c-22 41 -49 75 -82 103c-12 -11 -40 -33 -56 -43c64 -47 101 -120 117 -209z" />
</svg>
