<?xml version="1.0" standalone="no"?>
<!DOCTYPE svg PUBLIC "-//W3C//DTD SVG 1.1//EN" "http://www.w3.org/Graphics/SVG/1.1/DTD/svg11.dtd" >
<svg xmlns="http://www.w3.org/2000/svg" xmlns:xlink="http://www.w3.org/1999/xlink" version="1.1" viewBox="-10 0 1010 1000">
   <path fill="currentColor"
d="M343 392h-172v112h172v-112zM171 691h172v-124h-172v124zM413 757h-242v69h-68v-500h310v431zM576 662h246v-113h-240v14c0 31 -2 65 -6 99zM822 378h-240v107h240v-107zM895 312v552c0 42 -10 64 -39 75c-30 13 -80 13 -157 13c-4 -20 -14 -50 -25 -69c57 2 112 1 126 0
c17 0 22 -5 22 -19v-137h-260c-23 85 -73 168 -174 230c-8 -16 -33 -44 -48 -55c152 -92 171 -224 171 -340v-250h384zM711 129h227v67h-227v87h-73v-87h-280v87h-73v-87h-220v-67h220v-85h73v85h280v-85h73v85z" />
</svg>
