<?xml version="1.0" standalone="no"?>
<!DOCTYPE svg PUBLIC "-//W3C//DTD SVG 1.1//EN" "http://www.w3.org/Graphics/SVG/1.1/DTD/svg11.dtd" >
<svg xmlns="http://www.w3.org/2000/svg" xmlns:xlink="http://www.w3.org/1999/xlink" version="1.1" viewBox="-10 0 1010 1000">
   <path fill="currentColor"
d="M292 245v-68h-233v-64h233v-69h73v69h267v-69h73v69h237v64h-237v70h-73v-70h-267v68h-73zM699 860h159c37 0 44 -12 47 -96c16 12 44 23 63 28c-8 107 -29 134 -103 134h-172c-94 0 -118 -21 -118 -96v-196h-147c-22 173 -89 266 -328 314c-5 -17 -22 -45 -35 -58
c218 -39 273 -114 292 -256h-187v-333h1l-1 -1c82 -10 201 -37 272 -57l37 54c-67 22 -161 41 -239 51v74h218v54h-218v99h543v-97h-221v-54h221v-81h-232v-59h302v350h-209v196c0 25 8 30 55 30z" />
</svg>
