<?xml version="1.0" standalone="no"?>
<!DOCTYPE svg PUBLIC "-//W3C//DTD SVG 1.1//EN" "http://www.w3.org/Graphics/SVG/1.1/DTD/svg11.dtd" >
<svg xmlns="http://www.w3.org/2000/svg" xmlns:xlink="http://www.w3.org/1999/xlink" version="1.1" viewBox="-10 0 1010 1000">
   <path fill="currentColor"
d="M443 669l-47 61c-18 -32 -65 -94 -102 -140v366h-70v-357c-41 91 -94 177 -147 230c-8 -21 -26 -51 -39 -70c67 -60 135 -173 175 -277h-158v-68h169v-137h67v-74h-235v-69h235v-90h74v90h267v-90h74v90h241v69h-241v73h-74v-73h-267v74h-71v137h136v68h-136v28
c29 27 127 133 149 159zM760 874h94c26 0 30 -17 33 -135c16 12 45 24 65 29c-7 137 -26 173 -92 173h-109c-75 0 -94 -22 -94 -98v-107c-45 91 -116 166 -231 220c-9 -18 -31 -45 -49 -59c204 -88 261 -250 280 -444h-131v116h-68v-182h204c2 -33 4 -67 5 -102h70
c-1 35 -3 69 -5 102h206v182h-71v-116h-140c-3 27 -6 53 -10 79h10v311c0 27 5 31 33 31z" />
</svg>
