<?xml version="1.0" standalone="no"?>
<!DOCTYPE svg PUBLIC "-//W3C//DTD SVG 1.1//EN" "http://www.w3.org/Graphics/SVG/1.1/DTD/svg11.dtd" >
<svg xmlns="http://www.w3.org/2000/svg" xmlns:xlink="http://www.w3.org/1999/xlink" version="1.1" viewBox="-10 0 1010 1000">
   <path fill="currentColor"
d="M282 255v-75h-217v-64h217v-72h73v72h285v-72h73v72h226v64h-226v75h-73v-75h-285v75h-73zM873 551h-73v-211h-258c-4 19 -10 35 -17 51c85 31 181 78 235 114l-45 45c-49 -34 -136 -79 -216 -111c-40 55 -108 89 -222 111c-7 -15 -21 -39 -34 -50
c148 -26 204 -75 227 -160h-259v211h-70v-268h732v268zM239 861l266 -24c-1 19 1 48 2 64c-295 32 -330 37 -354 48c-6 -15 -20 -44 -31 -60c19 -7 47 -22 47 -56v-259h70v91h259v65h-259v131zM669 874h171c41 0 47 -14 51 -105c16 13 44 24 65 29c-9 115 -32 145 -110 145
h-183c-98 0 -123 -22 -123 -103v-266h71v128c92 -24 187 -57 244 -85l58 52c-84 37 -198 71 -302 94v76c0 29 8 35 58 35z" />
</svg>
