<?xml version="1.0" standalone="no"?>
<!DOCTYPE svg PUBLIC "-//W3C//DTD SVG 1.1//EN" "http://www.w3.org/Graphics/SVG/1.1/DTD/svg11.dtd" >
<svg xmlns="http://www.w3.org/2000/svg" xmlns:xlink="http://www.w3.org/1999/xlink" version="1.1" viewBox="-10 0 1010 1000">
   <path fill="currentColor"
d="M288 253v-63h-230v-65h230v-81h73v81h274v-81h73v81h234v65h-234v65h-73v-65h-274v63h-73zM92 296l42 -53c63 24 142 67 183 100l-44 59c-38 -35 -117 -80 -181 -106zM274 533l-44 59c-38 -33 -115 -75 -179 -100l42 -53c62 22 141 63 181 94zM129 949l-59 -51
c48 -58 118 -154 173 -240l51 48c-50 80 -111 171 -165 243zM648 513h-187v116h187v-116zM550 877h267c58 0 68 -17 75 -110c16 12 45 23 65 27c-11 117 -35 149 -138 149h-271c-121 0 -156 -23 -156 -115v-342c-19 23 -39 44 -59 62c-12 -14 -39 -39 -56 -51
c81 -66 150 -169 192 -278l69 19c-9 25 -20 49 -33 74h399s0 22 -1 32c-7 281 -15 374 -38 406c-15 20 -32 27 -56 29c-23 3 -61 3 -98 0c-1 -19 -8 -45 -19 -63c38 4 71 4 84 4c14 1 22 -2 30 -12c14 -19 21 -102 28 -331h-364c-16 27 -34 53 -52 77h296v235h-253v139
c0 40 14 49 89 49z" />
</svg>
