<?xml version="1.0" standalone="no"?>
<!DOCTYPE svg PUBLIC "-//W3C//DTD SVG 1.1//EN" "http://www.w3.org/Graphics/SVG/1.1/DTD/svg11.dtd" >
<svg xmlns="http://www.w3.org/2000/svg" xmlns:xlink="http://www.w3.org/1999/xlink" version="1.1" viewBox="-10 0 1010 1000">
   <path fill="currentColor"
d="M292 742l70 26c-64 63 -161 127 -241 166c-12 -13 -41 -39 -59 -51c84 -35 173 -88 230 -141zM803 675l-251 16v183c0 41 -10 58 -42 70c-31 11 -80 11 -153 11c-5 -21 -18 -48 -29 -68c60 3 115 3 130 2c16 -1 20 -4 20 -16v-178c-279 17 -317 22 -344 31
c-3 -15 -13 -50 -21 -69c33 -3 76 -18 133 -42c32 -11 98 -41 177 -80c-172 11 -200 15 -217 22c-3 -15 -14 -50 -22 -68c19 -2 41 -12 68 -26c26 -12 103 -58 168 -112h-273v122h-71v-187h849v187h-73v-122h-383l31 23c-51 39 -107 77 -163 107l205 -11
c44 -25 87 -52 128 -79l57 48c-130 83 -265 151 -399 205l420 -23c-28 -27 -57 -55 -85 -77l53 -34c72 57 161 141 203 196l-57 39c-15 -21 -36 -44 -59 -70zM634 776l54 -40c80 41 186 106 240 150l-58 46c-51 -44 -155 -112 -236 -156zM709 120h238v63h-238v65h-73v-65
h-276v65h-73v-65h-232v-63h232v-75h73v75h276v-75h73v75z" />
</svg>
