<?xml version="1.0" standalone="no"?>
<!DOCTYPE svg PUBLIC "-//W3C//DTD SVG 1.1//EN" "http://www.w3.org/Graphics/SVG/1.1/DTD/svg11.dtd" >
<svg xmlns="http://www.w3.org/2000/svg" xmlns:xlink="http://www.w3.org/1999/xlink" version="1.1" viewBox="-10 0 1010 1000">
   <path fill="currentColor"
d="M278 282v-81h-214v-69h214v-88h73v88h292v-88h73v88h220v69h-220v81h-73v-81h-292v81h-73zM209 766h203v-71h-203v71zM412 579h-203v69h203v-69zM481 523v362c0 33 -6 49 -27 59s-54 11 -101 11c-4 -19 -13 -41 -22 -58c33 1 60 1 69 1c9 -1 12 -3 12 -13v-71h-203v142
h-67v-433h339zM596 845v-301h68v301h-68zM321 472v-58h349v58h-349zM786 875v-358h71v360c0 37 -7 54 -31 65c-23 11 -59 12 -112 12c-4 -20 -15 -47 -24 -65c38 2 72 2 82 1c11 -1 14 -4 14 -15zM513 211l57 32c-7 7 -15 14 -23 22c127 84 266 129 401 164
c-16 15 -34 42 -43 65c-136 -41 -272 -93 -404 -190c-112 86 -267 151 -419 190c-9 -18 -25 -45 -41 -60c183 -41 372 -120 472 -223z" />
</svg>
