<?xml version="1.0" standalone="no"?>
<!DOCTYPE svg PUBLIC "-//W3C//DTD SVG 1.1//EN" "http://www.w3.org/Graphics/SVG/1.1/DTD/svg11.dtd" >
<svg xmlns="http://www.w3.org/2000/svg" xmlns:xlink="http://www.w3.org/1999/xlink" version="1.1" viewBox="-10 0 1010 1000">
   <path fill="currentColor"
d="M616 712h-238v86h238v-86zM684 658v195h-306v42h-67v-237h373zM293 447v85h217v-85h-217zM709 333h-416v69h284v130h132v-199zM892 532v343c0 38 -7 57 -36 69c-27 12 -71 12 -144 12c-4 -20 -13 -47 -23 -66c54 2 100 1 113 0c13 0 17 -4 17 -16v-280h-635v361h-72v-423
h112v-257h557v257h111zM707 109h233v67h-233v74h-73v-74h-273v74h-73v-74h-227v-67h227v-65h73v65h273v-65h73v65z" />
</svg>
