<?xml version="1.0" standalone="no"?>
<!DOCTYPE svg PUBLIC "-//W3C//DTD SVG 1.1//EN" "http://www.w3.org/Graphics/SVG/1.1/DTD/svg11.dtd" >
<svg xmlns="http://www.w3.org/2000/svg" xmlns:xlink="http://www.w3.org/1999/xlink" version="1.1" viewBox="-10 0 1010 1000">
   <path fill="currentColor"
d="M290 225v-60h-223v-60h223v-61h73v61h273v-61h73v61h223v60h-223v60h-73v-60h-273v60h-73zM716 375h183s-1 19 -3 28c-14 133 -27 189 -52 210c-15 15 -33 21 -59 22c-23 1 -67 1 -113 -1c-1 -18 -9 -41 -19 -57c44 4 86 5 104 5c15 0 25 -1 33 -8c14 -13 25 -53 36 -143
h-193c12 -36 25 -83 35 -129h-332c-5 25 -12 51 -19 74h251l12 -1l36 13c-19 62 -50 112 -89 151c42 24 79 50 106 72l-43 42c-27 -23 -64 -51 -107 -76c-50 37 -109 63 -175 80c-8 -12 -28 -36 -40 -46c61 -13 115 -34 161 -64c-35 -18 -72 -35 -106 -47l42 -38
c35 13 74 31 110 49c25 -24 46 -52 62 -84h-238c-39 101 -97 181 -175 239c-10 -11 -38 -34 -54 -45c103 -67 166 -177 195 -319h-154v-57h639c-11 42 -22 89 -34 130zM234 728v141h133v-141h-133zM565 728h-133v141h133v-141zM767 728h-137v141h137v-141zM839 869h105v59
h-888v-59h108v-196h675v196z" />
</svg>
