<?xml version="1.0" standalone="no"?>
<!DOCTYPE svg PUBLIC "-//W3C//DTD SVG 1.1//EN" "http://www.w3.org/Graphics/SVG/1.1/DTD/svg11.dtd" >
<svg xmlns="http://www.w3.org/2000/svg" xmlns:xlink="http://www.w3.org/1999/xlink" version="1.1" viewBox="-10 0 1010 1000">
   <path fill="currentColor"
d="M292 218v-53h-230v-57h230v-64h72v64h266v-64h72v64h238v57h-238v53h-72v-53h-266v53h-72zM940 731h-329c90 67 226 124 350 150c-16 15 -35 41 -45 60c-136 -36 -287 -113 -382 -204v218h-73v-212c-94 90 -245 164 -378 201c-10 -17 -29 -43 -45 -56
c124 -28 262 -87 352 -157h-328v-61h399v-57c-22 1 -48 1 -79 1c-4 -16 -11 -36 -19 -53c44 1 82 1 94 0c12 0 16 -3 16 -12v-99h-1c-89 76 -242 141 -368 170c-9 -16 -26 -39 -41 -52c110 -21 236 -65 322 -118h-303v-57h411c-59 -24 -127 -47 -187 -61l43 -40
c51 11 109 29 162 49c50 -13 102 -31 146 -51h-476v-54h567l16 -3l44 35c-59 42 -140 78 -221 104c16 7 31 14 44 21h210l15 -3l58 20c-57 56 -122 112 -181 148l-66 -26c35 -21 76 -51 112 -82h-232v102c0 34 -8 48 -35 55c-6 2 -12 3 -19 4h41v59h406v61z" />
</svg>
