<?xml version="1.0" standalone="no"?>
<!DOCTYPE svg PUBLIC "-//W3C//DTD SVG 1.1//EN" "http://www.w3.org/Graphics/SVG/1.1/DTD/svg11.dtd" >
<svg xmlns="http://www.w3.org/2000/svg" xmlns:xlink="http://www.w3.org/1999/xlink" version="1.1" viewBox="-10 0 1010 1000">
   <path fill="currentColor"
d="M292 233v-64h-234v-61h234v-64h72v64h266v-64h72v64h243v61h-243v64h-72v-64h-266v64h-72zM237 444v-47c-46 22 -94 42 -141 57c-10 -14 -33 -42 -48 -55c117 -30 240 -83 297 -157l67 21c-36 49 -91 90 -154 123h489c-64 -38 -124 -82 -167 -126l57 -27
c71 71 209 143 321 178c-15 13 -37 38 -48 55c-43 -16 -90 -39 -135 -64c-1 4 -1 9 -2 12c-14 114 -27 162 -49 183c-15 15 -32 19 -55 21c-21 1 -61 1 -102 -2c-2 -17 -8 -40 -17 -56c38 4 75 5 88 5c15 0 23 -1 30 -8c11 -12 22 -44 32 -113h-217
c-53 119 -193 168 -354 193c-5 -15 -21 -41 -32 -55c144 -15 268 -51 314 -138h-174zM232 709v155h133v-155h-133zM566 709h-132v155h132v-155zM770 709h-135v155h135v-155zM842 652v212h110v61h-903v-61h114v-212h679z" />
</svg>
