<?xml version="1.0" standalone="no"?>
<!DOCTYPE svg PUBLIC "-//W3C//DTD SVG 1.1//EN" "http://www.w3.org/Graphics/SVG/1.1/DTD/svg11.dtd" >
<svg xmlns="http://www.w3.org/2000/svg" xmlns:xlink="http://www.w3.org/1999/xlink" version="1.1" viewBox="-10 0 1010 1000">
   <path fill="currentColor"
d="M443 365l58 12c-20 40 -47 85 -70 121c34 41 66 89 83 123l-54 23c-17 -39 -53 -94 -94 -145c30 -45 61 -99 77 -134zM518 285v64h-449v-64h449zM283 366l59 12c-20 40 -46 85 -69 121c32 42 63 91 78 124l-56 22c-14 -39 -48 -94 -86 -145c28 -45 58 -99 74 -134z
M186 622l-56 22c-15 -40 -46 -94 -83 -145c28 -45 55 -99 70 -134l60 11c-20 41 -45 86 -66 122c30 42 60 91 75 124zM515 818l3 59c-163 26 -336 50 -457 69l-13 -66c56 -6 128 -16 206 -25v-138h-187v-60h437v60h-178v128c62 -9 125 -18 189 -27zM916 396v34
c-11 328 -21 438 -49 474c-17 22 -35 30 -63 32c-24 3 -67 3 -109 0c-1 -20 -8 -47 -19 -65c43 3 83 4 100 4c14 0 23 -2 32 -13c19 -24 30 -125 39 -398h-132c-14 204 -52 386 -177 497c-10 -15 -33 -38 -50 -49c113 -98 147 -263 159 -448h-103v-68h107
c1 -40 2 -80 3 -122h68c-1 42 -2 82 -4 122h198zM702 112h236v67h-236v77h-73v-77h-253v80h-73v-80h-238v-67h238v-68h73v68h253v-68h73v68z" />
</svg>
