<?xml version="1.0" standalone="no"?>
<!DOCTYPE svg PUBLIC "-//W3C//DTD SVG 1.1//EN" "http://www.w3.org/Graphics/SVG/1.1/DTD/svg11.dtd" >
<svg xmlns="http://www.w3.org/2000/svg" xmlns:xlink="http://www.w3.org/1999/xlink" version="1.1" viewBox="-10 0 1010 1000">
   <path fill="currentColor"
d="M296 249v-62h-237v-63h237v-79h73v79h263v-79h73v79h237v63h-237v62h-73v-62h-263v62h-73zM920 686h-65v-79h-469v79h-63v-131h597v131zM347 458h469v-50h-428v-49h428v-49h-462v-48h530v244h-537v-48zM253 242l67 19c-23 61 -50 121 -82 175v521h-71v-413
c-27 38 -57 71 -86 99c-10 -13 -36 -44 -50 -57c91 -82 172 -210 222 -344zM732 712h-233c29 36 71 68 119 94c45 -26 85 -57 114 -94zM787 655l40 20c-33 66 -84 118 -146 160c76 31 167 52 263 62c-15 14 -32 40 -40 58c-108 -15 -205 -42 -287 -83
c-84 43 -181 69 -280 86c-5 -17 -19 -42 -30 -56c87 -12 174 -32 249 -65c-52 -34 -96 -75 -128 -123l6 -2h-33v-54h373z" />
</svg>
