<?xml version="1.0" standalone="no"?>
<!DOCTYPE svg PUBLIC "-//W3C//DTD SVG 1.1//EN" "http://www.w3.org/Graphics/SVG/1.1/DTD/svg11.dtd" >
<svg xmlns="http://www.w3.org/2000/svg" xmlns:xlink="http://www.w3.org/1999/xlink" version="1.1" viewBox="-10 0 1010 1000">
   <path fill="currentColor"
d="M294 266v-72h-229v-67h229v-83h73v83h262v-83h73v83h236v67h-236v69h-73v-69h-262v72h-73zM115 739l63 7c-9 73 -26 148 -52 198c-13 -6 -44 -14 -60 -18c27 -48 41 -118 49 -187zM233 746l60 -10c18 57 32 129 34 177l-63 10c-1 -48 -14 -120 -31 -177zM358 733l57 -14
c31 51 59 119 71 162l-60 16c-10 -45 -39 -113 -68 -164zM361 529l55 -19c33 56 67 129 77 176l-58 23c-3 -16 -9 -34 -16 -53c-270 27 -306 33 -328 43c-3 -12 -15 -39 -24 -55c23 -3 47 -22 79 -50c18 -15 56 -51 99 -98c-115 10 -140 15 -154 21c-4 -13 -15 -41 -23 -54
c17 -3 32 -16 51 -37c21 -19 85 -98 123 -174l69 23c-39 62 -86 123 -134 173l119 -9c25 -29 50 -60 71 -91l64 29c-71 91 -152 177 -234 246l202 -18c-11 -27 -25 -52 -38 -76zM952 397v68h-108v404c0 42 -11 61 -39 73c-29 11 -74 13 -148 13c-4 -20 -15 -48 -26 -67
c56 2 106 1 120 1c16 -1 21 -5 21 -20v-404h-269v-68h269v-135h72v135h108zM700 731l-65 28c-13 -55 -53 -140 -95 -204l61 -23c43 61 86 145 99 199z" />
</svg>
