<?xml version="1.0" standalone="no"?>
<!DOCTYPE svg PUBLIC "-//W3C//DTD SVG 1.1//EN" "http://www.w3.org/Graphics/SVG/1.1/DTD/svg11.dtd" >
<svg xmlns="http://www.w3.org/2000/svg" xmlns:xlink="http://www.w3.org/1999/xlink" version="1.1" viewBox="-10 0 1010 1000">
   <path fill="currentColor"
d="M540 698v58c-69 8 -139 16 -206 22v105c0 34 -6 50 -32 60c-24 11 -60 11 -118 11c-3 -18 -14 -43 -23 -60c41 1 78 1 89 0c11 0 15 -3 15 -13v-96l-207 21l-8 -64c59 -4 134 -11 215 -18v-48c29 -15 62 -36 91 -57h-225v-54h287l15 -4l42 35c-40 35 -92 70 -141 97v24
c67 -6 137 -13 206 -19zM262 243h69v62h211v59h-211v69h202v138h-66v-78h-338v78h-64v-138h197v-69h-200v-59h200v-62zM920 399v34c-8 337 -15 450 -42 486c-17 22 -35 30 -62 33s-72 2 -118 0c-1 -21 -9 -49 -20 -67c46 3 89 4 106 4c16 0 25 -2 33 -13
c18 -23 27 -126 33 -413h-119c-15 236 -62 396 -236 494c-9 -17 -32 -42 -48 -53c162 -86 202 -228 216 -441h-113l1 -64h116c1 -48 2 -100 3 -155h68c-1 55 -2 106 -4 155h186zM699 107h252v62h-252v63h-72v-63h-259v63h-72v-63h-240v-62h240v-63h72v63h259v-63h72v63z" />
</svg>
