<?xml version="1.0" standalone="no"?>
<!DOCTYPE svg PUBLIC "-//W3C//DTD SVG 1.1//EN" "http://www.w3.org/Graphics/SVG/1.1/DTD/svg11.dtd" >
<svg xmlns="http://www.w3.org/2000/svg" xmlns:xlink="http://www.w3.org/1999/xlink" version="1.1" viewBox="-10 0 1010 1000">
   <path fill="currentColor"
d="M300 257l20 6c-22 58 -50 116 -82 169v524h-72v-419c-27 35 -56 67 -85 95c-10 -14 -36 -45 -51 -59c91 -80 172 -202 221 -330l49 14v-74h-241v-66h241v-73h73v73h254v-73h73v73h242v66h-242v76h-73v-76h-254v74h-73zM895 437l-54 36c-12 -14 -27 -32 -45 -50
c-381 24 -423 28 -450 37c-4 -13 -15 -42 -23 -57c16 -3 33 -14 52 -29c22 -17 89 -80 134 -142l70 20c-42 50 -90 97 -137 136l297 -16c-26 -23 -55 -44 -81 -62l51 -31c69 45 150 111 186 158zM469 450l65 21c-51 61 -135 123 -205 161c-11 -12 -35 -37 -49 -49
c69 -32 144 -81 189 -133zM903 576l-50 42c-44 -40 -135 -98 -204 -133l46 -37c67 31 157 84 208 128zM502 678l-10 11c30 37 69 69 117 98c51 -31 94 -67 125 -109h-232zM788 619l47 24c-35 73 -91 131 -158 177c80 34 173 58 274 70c-17 15 -35 45 -45 64
c-110 -16 -212 -48 -297 -93c-89 46 -192 76 -295 94c-7 -17 -23 -46 -35 -61c91 -13 184 -37 265 -73c-39 -26 -72 -57 -99 -91c-36 28 -74 53 -111 73c-11 -12 -37 -37 -52 -48c104 -49 200 -127 251 -222l66 19c-13 24 -29 48 -47 70h223z" />
</svg>
