<?xml version="1.0" standalone="no"?>
<!DOCTYPE svg PUBLIC "-//W3C//DTD SVG 1.1//EN" "http://www.w3.org/Graphics/SVG/1.1/DTD/svg11.dtd" >
<svg xmlns="http://www.w3.org/2000/svg" xmlns:xlink="http://www.w3.org/1999/xlink" version="1.1" viewBox="-10 0 1010 1000">
   <path fill="currentColor"
d="M600 338h-117c-17 33 -38 66 -59 96c37 10 75 22 111 32c26 -39 48 -83 65 -128zM275 223l74 12c-8 15 -17 28 -25 43h546l-3 31c-16 206 -31 286 -58 315c-16 18 -33 25 -58 26c-21 2 -58 2 -96 0c-2 -20 -9 -47 -20 -66c37 4 70 4 85 4c13 0 21 -1 29 -10
c18 -18 32 -81 45 -240h-122c-19 54 -44 104 -71 150c36 13 69 26 97 38l-41 57c-27 -12 -58 -25 -94 -38c-32 43 -67 81 -104 113c-12 -12 -39 -36 -56 -45c33 -26 65 -56 93 -92c-36 -11 -75 -23 -114 -34c-53 62 -113 115 -173 156c-11 -12 -39 -36 -54 -47
c56 -33 110 -77 157 -127c-29 -6 -57 -12 -84 -17l42 -52c28 5 56 11 85 17c20 -25 38 -52 54 -79h-129c-46 56 -103 109 -175 154c-11 -16 -33 -40 -48 -50c107 -61 180 -147 218 -219zM432 692l53 -37c43 31 97 77 123 110l-55 43c-25 -34 -77 -83 -121 -116zM110 933
l-62 -36c52 -50 95 -133 119 -199l61 25c-26 69 -65 156 -118 210zM428 878h191c45 0 53 -13 57 -108c16 12 46 23 66 28c-9 118 -32 147 -117 147h-201c-106 0 -134 -21 -134 -97v-164h72v164c0 25 9 30 66 30zM742 719l63 -25c53 61 109 145 132 202l-68 29
c-20 -57 -74 -143 -127 -206zM704 110h234v64h-234v63h-73v-63h-270v46h-71v-46h-225v-64h225v-66h71v66h270v-66h73v66z" />
</svg>
