<?xml version="1.0" standalone="no"?>
<!DOCTYPE svg PUBLIC "-//W3C//DTD SVG 1.1//EN" "http://www.w3.org/Graphics/SVG/1.1/DTD/svg11.dtd" >
<svg xmlns="http://www.w3.org/2000/svg" xmlns:xlink="http://www.w3.org/1999/xlink" version="1.1" viewBox="-10 0 1010 1000">
   <path fill="currentColor"
d="M290 250v-62h-226v-67h226v-76h72v76h269v-76h73v76h236v67h-236v62h-73v-62h-269v62h-72zM232 509h173s0 21 -1 31c-7 252 -15 341 -36 369c-15 19 -30 26 -53 29c-20 2 -54 2 -88 0c-1 -20 -7 -47 -17 -65c33 4 62 4 75 4c12 0 19 -2 25 -12c13 -17 21 -91 27 -292
h-110c-14 157 -48 294 -137 382c-10 -15 -32 -37 -48 -47c103 -104 119 -290 125 -490h-113v-64h177c-10 -27 -29 -64 -47 -92l63 -19c22 29 44 71 53 98l-35 13h164v64h-192c-1 30 -3 62 -5 91zM940 385h-394c-25 47 -55 91 -85 124c-12 -13 -38 -35 -55 -45
c58 -57 103 -144 129 -231l67 14c-7 25 -16 51 -27 75h365v63zM646 880h198c42 0 49 -14 54 -94c15 11 42 22 62 26c-10 102 -31 131 -112 131h-206c-99 0 -126 -21 -126 -104v-191l-78 19l-18 -58l96 -23v-138h65v121l97 -25v-132h62v118l115 -30l3 -2l13 -9l46 18l-3 12
c-1 92 -2 179 -5 201c-2 26 -17 42 -41 47c-20 6 -51 6 -73 6c-2 -18 -7 -41 -15 -56c17 1 41 1 48 1c11 0 16 -3 18 -15c2 -9 3 -65 3 -138l-109 27v198h-62v-182l-97 24v207c0 34 10 41 65 41z" />
</svg>
