<?xml version="1.0" standalone="no"?>
<!DOCTYPE svg PUBLIC "-//W3C//DTD SVG 1.1//EN" "http://www.w3.org/Graphics/SVG/1.1/DTD/svg11.dtd" >
<svg xmlns="http://www.w3.org/2000/svg" xmlns:xlink="http://www.w3.org/1999/xlink" version="1.1" viewBox="-10 0 1010 1000">
   <path fill="currentColor"
d="M291 220v-54h-224v-62h224v-60h73v60h270v-60h73v60h222v62h-222v54h-73v-54h-270v54h-73zM254 289v73h486v-73h-486zM183 414v-177h631v177h-631zM276 753v74c135 -4 290 -10 447 -16v-58h-447zM723 529h-447v62h447v-62zM276 640v63h447v-63h-447zM938 803l-4 59
l-137 6v88h-74v-85c-255 10 -503 20 -671 25l-3 -64c46 -1 97 -2 154 -4v-299h-138v-57h870v57h-138v280z" />
</svg>
