<?xml version="1.0" standalone="no"?>
<!DOCTYPE svg PUBLIC "-//W3C//DTD SVG 1.1//EN" "http://www.w3.org/Graphics/SVG/1.1/DTD/svg11.dtd" >
<svg xmlns="http://www.w3.org/2000/svg" xmlns:xlink="http://www.w3.org/1999/xlink" version="1.1" viewBox="-10 0 1010 1000">
   <path fill="currentColor"
d="M298 224v-55h-237v-61h237v-64h73v64h253v-64h72v64h243v61h-243v53h-72v-53h-253v55h-73zM829 238v246h-663v-246h67v186h526v-186h70zM113 675l-39 -51c99 -24 205 -69 274 -127l57 25c-74 66 -179 122 -292 153zM699 374l-44 42c-36 -21 -87 -47 -142 -72
c-64 29 -136 54 -210 71c-7 -12 -21 -32 -33 -44c62 -13 123 -32 178 -53c-46 -19 -93 -36 -136 -49l42 -36c50 14 106 34 159 54c41 -20 76 -45 101 -69l52 26c-24 25 -56 48 -93 69c49 21 93 42 126 61zM905 612l-35 49c-66 -37 -195 -90 -297 -122l34 -43
c100 29 231 79 298 116zM662 709h-307c37 40 88 72 150 99c62 -27 117 -59 157 -99zM731 648l45 28c-45 68 -110 121 -188 161c104 31 229 48 364 55c-13 16 -30 43 -39 62c-154 -10 -295 -35 -409 -81c-126 47 -276 70 -429 82c-5 -20 -17 -46 -28 -63
c133 -7 264 -23 377 -57c-49 -26 -91 -58 -126 -96c-39 22 -81 41 -129 60c-9 -17 -28 -39 -43 -51c139 -46 239 -116 290 -181l72 15c-18 24 -40 47 -64 69h293z" />
</svg>
