<?xml version="1.0" standalone="no"?>
<!DOCTYPE svg PUBLIC "-//W3C//DTD SVG 1.1//EN" "http://www.w3.org/Graphics/SVG/1.1/DTD/svg11.dtd" >
<svg xmlns="http://www.w3.org/2000/svg" xmlns:xlink="http://www.w3.org/1999/xlink" version="1.1" viewBox="-10 0 1010 1000">
   <path fill="currentColor"
d="M455 291l42 16c-62 215 -220 330 -406 384c-7 -17 -22 -42 -34 -56c82 -20 161 -57 225 -109c-27 -24 -63 -51 -94 -69l42 -39c33 18 70 44 97 67c36 -37 65 -81 86 -132h-168c-39 53 -86 99 -134 133c-11 -11 -38 -32 -53 -42c81 -53 154 -133 192 -225l43 11v-44h-228
v-66h228v-75h73v75h272v-75h73v75h225v66h-225v58h-73v-58h-272v63h-58c-7 15 -15 29 -24 44h159zM828 654h-178c-90 0 -116 -17 -116 -91v-285h324v162c0 34 -7 49 -34 59c-26 10 -67 10 -129 10c-4 -18 -14 -39 -23 -56c49 2 88 2 101 1s16 -4 16 -15v-101h-189v224
c0 28 8 33 55 33h167c37 0 44 -12 48 -91c15 11 41 19 60 24c-8 100 -29 126 -102 126zM395 647l52 -38c61 36 134 92 170 133l-57 42c-32 -41 -103 -99 -165 -137zM121 931l-64 -34c55 -53 97 -138 122 -209l64 24c-27 72 -67 162 -122 219zM438 873h175
c43 0 51 -15 55 -118c16 10 47 22 67 26c-9 128 -32 159 -117 159h-185c-102 0 -127 -21 -127 -97v-164h73v164c0 25 9 30 59 30zM751 700l66 -21c51 69 107 161 129 221l-70 24c-21 -60 -74 -155 -125 -224z" />
</svg>
