<?xml version="1.0" standalone="no"?>
<!DOCTYPE svg PUBLIC "-//W3C//DTD SVG 1.1//EN" "http://www.w3.org/Graphics/SVG/1.1/DTD/svg11.dtd" >
<svg xmlns="http://www.w3.org/2000/svg" xmlns:xlink="http://www.w3.org/1999/xlink" version="1.1" viewBox="-10 0 1010 1000">
   <path fill="currentColor"
d="M291 262v-71h-225v-67h225v-80h73v80h271v-80h73v80h229v67h-229v67h-73v-67h-271v71h-73zM933 462h-275v9c101 75 219 184 273 259l-53 44c-44 -62 -133 -151 -220 -224v289h-71v-330c-60 116 -149 226 -239 286c-10 -17 -31 -40 -47 -54c94 -55 189 -165 246 -279h-222
v-63h262v-126h71v126h275v63zM707 313l39 -39c41 21 93 54 120 77l-42 44c-26 -24 -76 -58 -117 -82zM104 295l45 -42c52 31 115 80 144 117l-47 46c-27 -38 -89 -87 -142 -121zM259 472v318c22 9 45 28 83 49c62 36 146 42 253 42c116 0 268 -7 367 -18
c-8 17 -18 48 -19 67c-78 5 -253 11 -350 11c-115 0 -200 -10 -266 -47c-40 -24 -70 -51 -92 -51c-35 0 -86 49 -138 108l-42 -55c46 -45 93 -83 134 -100v-259h-123v-65h193z" />
</svg>
