<?xml version="1.0" standalone="no"?>
<!DOCTYPE svg PUBLIC "-//W3C//DTD SVG 1.1//EN" "http://www.w3.org/Graphics/SVG/1.1/DTD/svg11.dtd" >
<svg xmlns="http://www.w3.org/2000/svg" xmlns:xlink="http://www.w3.org/1999/xlink" version="1.1" viewBox="-10 0 1010 1000">
   <path fill="currentColor"
d="M295 246v-70h-235v-65h235v-67h73v67h259v-67h74v67h240v65h-240v70h-74v-70h-259v70h-73zM806 525v236c0 36 -7 53 -33 64c-24 11 -63 12 -123 12c-3 -19 -13 -45 -22 -63c44 1 84 1 95 0c13 0 16 -3 16 -14v-235h-234v-60h234v-92h67v92h118v60h-118zM542 577l54 -22
c32 43 64 101 75 141l-57 23c-11 -39 -41 -99 -72 -142zM851 322h-705v87h303v60h-311v-50h-60v-159h844v153h-71v-91zM500 874h307c65 0 77 -15 83 -104c17 11 45 21 65 25c-11 114 -37 142 -145 142h-309c-134 0 -171 -20 -171 -105v-213h-85c-12 154 -45 274 -165 343
c-9 -17 -30 -42 -45 -53c106 -58 135 -159 144 -290h-116v-63h440v63h-105v213c0 34 15 42 102 42z" />
</svg>
