<?xml version="1.0" standalone="no"?>
<!DOCTYPE svg PUBLIC "-//W3C//DTD SVG 1.1//EN" "http://www.w3.org/Graphics/SVG/1.1/DTD/svg11.dtd" >
<svg xmlns="http://www.w3.org/2000/svg" xmlns:xlink="http://www.w3.org/1999/xlink" version="1.1" viewBox="-10 0 1010 1000">
   <path fill="currentColor"
d="M428 314h-167c-12 20 -24 37 -35 53c36 11 75 24 112 37c36 -24 67 -54 90 -90zM287 202v-42h-224v-56h224v-60h73v60h276v-60h73v60h233v56h-233v51h-73v-51h-276v51h-45c-7 16 -15 32 -24 49h173l12 -3l40 15c-26 65 -66 117 -117 156c40 17 77 33 104 49l-49 45
c-29 -18 -69 -37 -113 -56c-67 37 -147 60 -232 75c-6 -15 -21 -38 -32 -50c70 -10 136 -27 194 -51c-47 -18 -96 -33 -141 -45c19 -23 38 -51 58 -81h-107v-54h138c12 -22 23 -43 32 -64zM624 302v119h200v-119h-200zM557 479v-234h338v234h-338zM951 754v53h-410v75
c0 38 -11 54 -42 64c-32 9 -86 10 -172 10c-4 -18 -15 -41 -25 -58c66 2 128 2 143 1c18 -1 23 -4 23 -19v-73h-417v-53h417v-56h-343v-53h343v-56c-94 7 -192 11 -282 13c-1 -13 -9 -35 -16 -47c207 -7 454 -23 584 -50l59 43c-75 15 -169 27 -272 35v62h343v53h-343v56
h410z" />
</svg>
