<?xml version="1.0" standalone="no"?>
<!DOCTYPE svg PUBLIC "-//W3C//DTD SVG 1.1//EN" "http://www.w3.org/Graphics/SVG/1.1/DTD/svg11.dtd" >
<svg xmlns="http://www.w3.org/2000/svg" xmlns:xlink="http://www.w3.org/1999/xlink" version="1.1" viewBox="-10 0 1010 1000">
   <path fill="currentColor"
d="M365 729l65 22c-39 64 -98 133 -153 177c-11 -11 -37 -36 -52 -47c52 -39 107 -95 140 -152zM366 573v69h420v-69h-420zM366 458v66h420v-66h-420zM857 693h-247v182c0 38 -8 54 -35 65c-26 10 -65 11 -126 11c-4 -20 -15 -45 -24 -64c44 2 85 1 96 1c13 -1 16 -4 16 -15
v-180h-239v-286h206c9 -23 19 -51 26 -74h-323v146c0 135 -14 335 -97 469c-11 -14 -43 -38 -58 -46c74 -126 82 -299 82 -423v-211h781v65h-299c-12 26 -25 52 -37 74h278v286zM688 766l52 -39c68 43 147 109 186 156l-56 43c-36 -47 -114 -115 -182 -160zM708 114h235v64
h-235v67h-73v-67h-276v67h-73v-67h-227v-64h227v-70h73v70h276v-70h73v70z" />
</svg>
