<?xml version="1.0" standalone="no"?>
<!DOCTYPE svg PUBLIC "-//W3C//DTD SVG 1.1//EN" "http://www.w3.org/Graphics/SVG/1.1/DTD/svg11.dtd" >
<svg xmlns="http://www.w3.org/2000/svg" xmlns:xlink="http://www.w3.org/1999/xlink" version="1.1" viewBox="-10 0 1010 1000">
   <path fill="currentColor"
d="M289 248v-72h-228v-66h228v-66h73v66h274v-66h73v66h231v66h-231v72h-73v-72h-274v72h-73zM327 283l49 28c-29 65 -65 144 -97 205c71 62 91 116 91 165c0 46 -13 79 -40 96c-14 8 -31 14 -49 16c-19 2 -45 2 -68 1c-1 -18 -8 -44 -19 -62c24 2 43 2 59 1
c11 0 22 -2 29 -8c15 -8 21 -26 21 -51c-1 -40 -22 -91 -92 -148c26 -55 54 -119 73 -172h-124v600h-68v-667h224zM471 721l61 18c-35 70 -92 141 -145 188c-12 -11 -38 -32 -52 -42c54 -40 105 -102 136 -164zM756 747l53 -27c47 53 101 126 125 171l-57 30
c-23 -46 -76 -120 -121 -174zM477 481h343c-67 -37 -129 -88 -174 -142c-48 55 -107 103 -169 142zM635 252l58 25c-4 6 -8 11 -12 17c58 71 172 139 278 167c-16 15 -37 43 -47 61c-25 -8 -48 -18 -73 -31v51h-154v77h230v62h-230v201c0 36 -7 54 -33 64
c-24 11 -64 11 -124 11c-3 -18 -14 -43 -23 -61c45 1 84 1 95 0c12 0 16 -4 16 -15v-200h-233v-62h233v-77h-152v-53c-24 14 -49 26 -73 38c-10 -17 -28 -40 -44 -55c112 -45 227 -125 288 -220z" />
</svg>
