<?xml version="1.0" standalone="no"?>
<!DOCTYPE svg PUBLIC "-//W3C//DTD SVG 1.1//EN" "http://www.w3.org/Graphics/SVG/1.1/DTD/svg11.dtd" >
<svg xmlns="http://www.w3.org/2000/svg" xmlns:xlink="http://www.w3.org/1999/xlink" version="1.1" viewBox="-10 0 1010 1000">
   <path fill="currentColor"
d="M295 246v-65h-232v-63h232v-74h73v74h261v-74h73v74h237v63h-237v57h-73v-57h-261v65h-73zM504 658h-208v127h208v-127zM566 844h-270v50h-60v-295h117v-213h63v70h179v62h-179v81h150v245zM814 425l70 12c-29 124 -72 233 -129 324c33 83 72 125 104 125
c21 0 32 -25 38 -122c17 14 42 29 61 35c-13 132 -40 157 -104 157c-55 0 -105 -45 -145 -131c-39 51 -84 96 -135 134c-11 -13 -40 -38 -57 -49c64 -43 118 -97 162 -162c-33 -98 -56 -229 -68 -389h-420v175c0 125 -14 302 -97 420c-13 -12 -42 -30 -58 -36
c78 -112 87 -269 87 -385v-238h484l-2 -47h71c0 16 1 31 1 47h159c-24 -23 -58 -51 -90 -70l45 -34c38 21 84 56 106 82l-28 22h72v64h-261c8 128 25 231 46 312c38 -73 68 -156 88 -246z" />
</svg>
