<?xml version="1.0" standalone="no"?>
<!DOCTYPE svg PUBLIC "-//W3C//DTD SVG 1.1//EN" "http://www.w3.org/Graphics/SVG/1.1/DTD/svg11.dtd" >
<svg xmlns="http://www.w3.org/2000/svg" xmlns:xlink="http://www.w3.org/1999/xlink" version="1.1" viewBox="-10 0 1010 1000">
   <path fill="currentColor"
d="M142 662h113v-114h-110c0 34 -1 74 -3 114zM255 374h-110v116h110v-116zM318 312v559c0 32 -6 53 -28 65c-21 11 -54 14 -101 14c-3 -20 -12 -49 -22 -67c35 1 65 1 75 1c10 -1 13 -4 13 -15v-149h-118c-8 84 -24 170 -57 240c-10 -12 -34 -33 -48 -40
c48 -111 53 -263 53 -373v-235h233zM437 662h119v-113h-116c0 34 -1 73 -3 113zM556 374h-116v117h116v-117zM619 312v557c0 32 -6 53 -27 65c-22 12 -54 14 -102 14c-2 -19 -13 -49 -22 -67c35 1 65 1 75 1c10 -1 13 -4 13 -14v-148h-124c-9 84 -25 170 -58 240
c-10 -12 -35 -33 -47 -40c48 -111 52 -263 52 -373v-235h240zM504 52v86h144v65h-144v78h-70v-78h-169v78h-70v-78h-148v-65h148v-86h70v86h169v-86h70zM763 155v552h-65v-552h65zM846 63h68v799c0 42 -10 61 -35 73c-26 12 -66 14 -133 13c-3 -18 -13 -47 -22 -67
c47 1 90 1 102 0c15 0 20 -4 20 -18v-800z" />
</svg>
