<?xml version="1.0" standalone="no"?>
<!DOCTYPE svg PUBLIC "-//W3C//DTD SVG 1.1//EN" "http://www.w3.org/Graphics/SVG/1.1/DTD/svg11.dtd" >
<svg xmlns="http://www.w3.org/2000/svg" xmlns:xlink="http://www.w3.org/1999/xlink" version="1.1" viewBox="-10 0 1010 1000">
   <path fill="currentColor"
d="M847 468h60c12 0 33 -1 45 -4c2 18 2 43 4 60c-10 5 -30 5 -48 5h-68c-59 0 -71 -25 -71 -93v-80h-134v11c0 65 -21 139 -107 191c-8 -15 -30 -43 -41 -54c75 -41 87 -92 87 -139v-72h257v143c0 25 2 32 16 32zM304 253v-79h-245v-65h245v-65h73v65h245v-65h73v65h247v65
h-247v79h-73v-79h-245v79h-73zM364 796l-40 33c-15 -32 -52 -77 -89 -108l39 -29c37 28 75 71 90 104zM244 467l38 -26c35 28 68 67 85 97l-43 29c-15 -29 -48 -71 -80 -100zM816 633h-209c26 51 62 97 106 135c42 -37 77 -82 103 -135zM205 596h204v-192h-204v192zM862 570
l39 23c-31 88 -78 159 -135 215c57 38 123 65 197 82c-15 17 -32 45 -41 66c-80 -22 -150 -56 -211 -101c-63 46 -133 80 -209 104c-5 -16 -20 -41 -32 -56c-4 19 -13 32 -30 40c-25 12 -66 13 -125 13c-2 -20 -11 -49 -20 -68c45 1 86 1 98 0c13 0 16 -4 16 -16v-215h-205
c-5 103 -28 219 -111 299c-9 -14 -33 -37 -47 -47c74 -71 93 -165 97 -252h-90v-61h91v-253h107c12 -28 24 -61 30 -84l65 10c-11 27 -20 51 -31 74h157v529c0 9 0 17 -1 24c69 -20 133 -48 189 -86c-47 -46 -85 -101 -113 -162l44 -15h-73v-61h331z" />
</svg>
