<?xml version="1.0" standalone="no"?>
<!DOCTYPE svg PUBLIC "-//W3C//DTD SVG 1.1//EN" "http://www.w3.org/Graphics/SVG/1.1/DTD/svg11.dtd" >
<svg xmlns="http://www.w3.org/2000/svg" xmlns:xlink="http://www.w3.org/1999/xlink" version="1.1" viewBox="-10 0 1010 1000">
   <path fill="currentColor"
d="M294 225v-55h-234v-56h234v-70h72v70h261v-70h73v70h243v56h-243v55h-73v-55h-261v55h-72zM866 219l26 54c-199 26 -524 41 -788 42c0 -17 -7 -40 -12 -54c264 -3 590 -17 774 -42zM723 426l-62 -25c36 -28 85 -74 112 -107l74 28c-39 39 -88 78 -124 104zM563 398
l-71 23c-12 -26 -34 -66 -54 -95l69 -18c18 28 44 68 56 90zM297 418l-71 21c-11 -24 -36 -65 -55 -95l67 -17c21 28 46 66 59 91zM940 773h-381c72 79 213 113 398 121c-15 15 -32 41 -39 61c-199 -16 -345 -64 -423 -168c-58 97 -174 146 -425 170c-5 -17 -19 -42 -30 -56
c223 -19 327 -55 379 -128h-359v-56h387c6 -18 10 -36 14 -56c-271 10 -306 14 -330 22c-2 -14 -9 -46 -15 -63c32 -1 78 -12 136 -28c37 -10 120 -33 215 -68c-260 15 -290 19 -310 26c-2 -13 -11 -44 -17 -59c21 -1 46 -5 77 -13c33 -8 138 -40 223 -85l58 31
c-59 29 -116 50 -172 67l259 -12c38 -15 78 -32 114 -50l70 35c-148 68 -289 116 -425 153l382 -13c-23 -20 -47 -40 -67 -57l61 -25c57 45 133 110 173 150l-65 27c-12 -14 -31 -31 -52 -50l-238 9c-4 21 -9 40 -14 59h416v56z" />
</svg>
