<?xml version="1.0" standalone="no"?>
<!DOCTYPE svg PUBLIC "-//W3C//DTD SVG 1.1//EN" "http://www.w3.org/Graphics/SVG/1.1/DTD/svg11.dtd" >
<svg xmlns="http://www.w3.org/2000/svg" xmlns:xlink="http://www.w3.org/1999/xlink" version="1.1" viewBox="-10 0 1010 1000">
   <path fill="currentColor"
d="M288 243v-71h-223v-64h223v-64h72v64h281v-64h72v64h225v64h-225v71h-72v-71h-281v71h-72zM555 438h228c-107 -40 -213 -99 -287 -162c-78 66 -179 121 -285 162h269c-12 -24 -29 -52 -46 -73l60 -25c24 30 48 69 61 98zM260 637h469v-57h-465c-1 19 -2 37 -4 57z
M264 486v52h465v-52h-465zM760 786h-467v94h467v-94zM497 186l61 30l-20 20c93 77 265 147 415 177c-17 14 -38 44 -48 63c-34 -9 -71 -19 -106 -32v240h-546c-3 17 -7 34 -13 51h593v221h-73v-26h-467v26h-70v-173c-23 52 -56 103 -105 145c-11 -15 -39 -39 -53 -49
c112 -92 128 -220 128 -317v-117c-36 14 -73 25 -109 35c-9 -18 -26 -43 -41 -60c173 -42 359 -125 454 -234z" />
</svg>
