<?xml version="1.0" standalone="no"?>
<!DOCTYPE svg PUBLIC "-//W3C//DTD SVG 1.1//EN" "http://www.w3.org/Graphics/SVG/1.1/DTD/svg11.dtd" >
<svg xmlns="http://www.w3.org/2000/svg" xmlns:xlink="http://www.w3.org/1999/xlink" version="1.1" viewBox="-10 0 1010 1000">
   <path fill="currentColor"
d="M462 687h-238v66h238v-66zM776 753v-66h-239v66h239zM537 875h239v-74h-239v74zM224 875h238v-74h-238v74zM149 956v-322h705v322h-78v-29h-552v29h-75zM437 213l72 -13c16 24 33 55 44 78h380v64h-466c-46 28 -92 51 -137 70l240 -10c29 -13 58 -27 86 -41l61 36
c-118 57 -233 99 -343 133l364 -14c-23 -21 -47 -40 -68 -57l53 -29c67 49 143 121 179 167l-55 35c-14 -19 -35 -42 -57 -65c-570 26 -621 28 -655 40c-3 -14 -10 -44 -15 -62c30 -1 73 -11 126 -26c34 -9 103 -31 186 -61c-205 11 -233 15 -252 22c-3 -13 -12 -45 -17 -61
c19 -1 42 -8 70 -19c21 -7 72 -28 124 -58h-283v-64h397c-10 -21 -23 -46 -34 -65zM706 109h232v64h-232v69h-74v-69h-267v69h-74v-69h-225v-64h225v-67h74v67h267v-67h74v67z" />
</svg>
