<?xml version="1.0" standalone="no"?>
<!DOCTYPE svg PUBLIC "-//W3C//DTD SVG 1.1//EN" "http://www.w3.org/Graphics/SVG/1.1/DTD/svg11.dtd" >
<svg xmlns="http://www.w3.org/2000/svg" xmlns:xlink="http://www.w3.org/1999/xlink" version="1.1" viewBox="-10 0 1010 1000">
   <path fill="currentColor"
d="M416 558h273v-69h-273v69zM759 369v66h162v58h-162v119h-174v68h267v174c0 34 -6 52 -33 62c-26 11 -67 11 -128 11c-3 -19 -14 -43 -22 -61c46 1 86 1 98 0c12 0 16 -3 16 -13v-114h-198v215h-72v-215h-180v184h-69v-243h249v-68h-165v-119h-127v-57h127v-67h68v67h273
v-67h70zM454 218l62 -24c21 26 40 62 52 90h364v62h-740v168c0 131 -14 315 -96 440c-12 -11 -43 -32 -60 -39c78 -118 86 -282 86 -402v-229h370c-11 -22 -25 -47 -38 -66zM706 115h232v66h-232v67h-72v-67h-272v65h-72v-65h-226v-66h226v-71h72v71h272v-71h72v71z" />
</svg>
