<?xml version="1.0" standalone="no"?>
<!DOCTYPE svg PUBLIC "-//W3C//DTD SVG 1.1//EN" "http://www.w3.org/Graphics/SVG/1.1/DTD/svg11.dtd" >
<svg xmlns="http://www.w3.org/2000/svg" xmlns:xlink="http://www.w3.org/1999/xlink" version="1.1" viewBox="-10 0 1010 1000">
   <path fill="currentColor"
d="M291 249v-68h-231v-64h231v-73h72v73h271v-73h72v73h235v64h-235v68h-72v-68h-271v68h-72zM835 233l53 48c-14 5 -29 11 -45 16c14 248 40 488 118 600c-16 12 -40 36 -50 53c-83 -129 -110 -372 -124 -637c-23 6 -48 12 -73 18v141c0 109 -2 254 -58 376l103 -29
c-11 -41 -24 -83 -36 -120l45 -11c25 69 50 159 59 218l-48 13c-2 -15 -5 -31 -9 -49c-128 41 -149 51 -162 62c-8 -14 -30 -41 -41 -50c87 -118 89 -284 89 -411v-127c-27 6 -55 10 -81 14v174c0 124 -13 304 -86 426c-10 -13 -39 -33 -54 -41l5 -11l-39 15
c-2 -15 -6 -31 -9 -50c-134 41 -157 52 -169 61c-8 -14 -32 -40 -44 -49c84 -123 85 -293 85 -423v-115c-24 5 -47 9 -71 13v141c0 134 -17 327 -105 459c-11 -14 -38 -36 -53 -44c82 -124 92 -294 92 -415v-184c113 -19 244 -52 316 -83l53 48c-49 20 -110 37 -174 52v129
c0 112 -2 262 -56 390l113 -30c-12 -42 -27 -84 -41 -122l45 -15c27 65 54 151 64 209c55 -111 61 -255 61 -361v-217c116 -20 252 -51 327 -82zM486 672l-54 18c-10 -84 -40 -211 -71 -308l50 -16c34 98 64 224 75 306z" />
</svg>
