<?xml version="1.0" standalone="no"?>
<!DOCTYPE svg PUBLIC "-//W3C//DTD SVG 1.1//EN" "http://www.w3.org/Graphics/SVG/1.1/DTD/svg11.dtd" >
<svg xmlns="http://www.w3.org/2000/svg" xmlns:xlink="http://www.w3.org/1999/xlink" version="1.1" viewBox="-10 0 1010 1000">
   <path fill="currentColor"
d="M295 250v-68h-234v-66h234v-72h73v72h260v-72h73v72h240v66h-240v68h-73v-68h-260v68h-73zM237 238l71 20c-22 52 -49 107 -79 161v536h-68v-431c-27 37 -57 72 -87 103c-9 -17 -29 -45 -41 -58c86 -87 164 -222 204 -331zM863 736l57 28c-99 100 -288 161 -487 192
c-7 -16 -23 -39 -36 -55c191 -24 376 -77 466 -165zM686 591l50 23c-66 53 -172 97 -260 122c-10 -12 -25 -30 -38 -41c84 -22 190 -61 248 -104zM780 662l49 25c-83 64 -221 117 -338 148c-9 -13 -24 -33 -38 -45c115 -25 252 -72 327 -128zM556 359l-7 9
c32 42 76 78 129 109c50 -33 94 -72 125 -118h-247zM856 297l42 22c-35 77 -91 139 -161 188c70 31 149 53 233 66c-15 14 -34 41 -42 58c-92 -16 -178 -46 -252 -86c-83 46 -178 77 -275 96c-5 -16 -20 -41 -33 -54c87 -14 173 -40 250 -77c-42 -29 -79 -61 -109 -97
c-27 29 -60 58 -95 83c-12 -13 -33 -30 -49 -39v377h-64v-464h64v85c92 -62 156 -143 190 -213l69 12c-8 16 -17 30 -26 46h245z" />
</svg>
