<?xml version="1.0" standalone="no"?>
<!DOCTYPE svg PUBLIC "-//W3C//DTD SVG 1.1//EN" "http://www.w3.org/Graphics/SVG/1.1/DTD/svg11.dtd" >
<svg xmlns="http://www.w3.org/2000/svg" xmlns:xlink="http://www.w3.org/1999/xlink" version="1.1" viewBox="-10 0 1010 1000">
   <path fill="currentColor"
d="M287 249v-66h-221v-63h221v-75h73v75h277v-75h73v75h229v63h-229v65l-54 -1v52h230v56h-230v76h287v57h-636v-57h276v-76h-212v-56h212v-58h54v-58h-277v66h-73zM662 550l36 -44c80 24 189 63 246 91l-36 50c-56 -28 -164 -71 -246 -97zM323 653l-53 -44
c73 -23 164 -62 230 -103l61 28c-69 46 -160 91 -238 119zM277 438l-47 50c-36 -44 -111 -106 -175 -147l46 -43c63 39 140 97 176 140zM238 603l48 46c-54 87 -122 186 -180 262l-58 -49c54 -62 130 -167 190 -259zM746 712h-235c29 36 68 68 116 94c47 -25 89 -57 119 -94
zM802 657l44 23c-35 65 -88 117 -153 157c78 32 170 52 269 62c-14 15 -32 42 -39 61c-112 -15 -212 -43 -296 -86c-95 44 -205 70 -321 87c-5 -18 -19 -44 -32 -59c104 -11 203 -32 290 -67c-39 -25 -72 -55 -98 -90c-40 30 -83 56 -124 77c-10 -12 -33 -37 -48 -49
c100 -44 202 -115 259 -196l61 21c-14 22 -32 42 -50 62h225z" />
</svg>
