<?xml version="1.0" standalone="no"?>
<!DOCTYPE svg PUBLIC "-//W3C//DTD SVG 1.1//EN" "http://www.w3.org/Graphics/SVG/1.1/DTD/svg11.dtd" >
<svg xmlns="http://www.w3.org/2000/svg" xmlns:xlink="http://www.w3.org/1999/xlink" version="1.1" viewBox="-10 0 1010 1000">
   <path fill="currentColor"
d="M296 188v-39h-232v-53h232v-52h72v52h260v-52h73v52h236v53h-236v39h-73v-39h-260v39h-72zM298 575h400c-25 -18 -48 -39 -67 -59h-267c-20 20 -41 41 -66 59zM249 334v45h504v-45h-504zM249 248v43h504v-43h-504zM947 516h-235c64 49 160 90 249 111
c-16 14 -34 38 -45 56c-70 -20 -142 -55 -202 -97c-7 40 -15 83 -23 117h163s-1 19 -3 28c-13 124 -26 177 -50 199c-16 15 -34 20 -62 21c-24 1 -72 2 -122 -2c-2 -17 -9 -40 -19 -56c50 4 98 5 116 5c16 0 27 -1 35 -8c13 -12 24 -50 34 -135h-533c9 -34 19 -78 25 -116
l63 6c-4 20 -8 39 -12 58h299c5 -24 11 -49 16 -76h-389v-19c-47 31 -103 58 -167 82c-8 -17 -28 -40 -41 -52c96 -32 172 -75 228 -122h-218v-54h273c10 -13 19 -26 28 -39h-175v-219h644v219h-392c-8 14 -16 26 -25 39h540v54zM670 811v49h-566v-49h566z" />
</svg>
