<?xml version="1.0" standalone="no"?>
<!DOCTYPE svg PUBLIC "-//W3C//DTD SVG 1.1//EN" "http://www.w3.org/Graphics/SVG/1.1/DTD/svg11.dtd" >
<svg xmlns="http://www.w3.org/2000/svg" xmlns:xlink="http://www.w3.org/1999/xlink" version="1.1" viewBox="-10 0 1010 1000">
   <path fill="currentColor"
d="M648 861h-69v-64h-252v-48h252v-52h-198v-45h198v-50h-216v-46h216v-58h69v58h208v46h-208v50h191v45h-191v52h248v48h-248v64zM492 323l-8 8c34 28 80 54 134 74c48 -22 90 -50 122 -82h-248zM798 270l41 23c-36 55 -88 99 -150 135c82 25 176 40 271 48
c-14 14 -32 39 -39 57c-107 -12 -212 -34 -302 -69c-95 42 -206 69 -315 85c-5 -16 -19 -39 -30 -52c95 -11 191 -32 276 -62c-40 -21 -77 -44 -107 -71c-30 24 -65 46 -104 67c-10 -15 -29 -37 -42 -45c103 -49 178 -119 218 -179l66 13c-12 18 -25 35 -41 53h246zM291 248
v-74h-231v-63h231v-67h73v67h268v-67h73v67h236v63h-236v73h-73v-73h-268v74h-73zM271 395l-62 37c-28 -41 -85 -108 -130 -156l58 -32c46 47 104 110 134 151zM256 519v271c24 7 48 27 88 49c64 33 149 40 256 40c111 0 259 -6 356 -16c-8 18 -19 49 -20 68
c-77 5 -244 10 -338 10c-114 0 -200 -11 -268 -47c-42 -23 -73 -50 -97 -50c-36 0 -89 50 -142 108l-48 -58c49 -44 99 -82 144 -98v-213h-125v-64h194z" />
</svg>
