<?xml version="1.0" standalone="no"?>
<!DOCTYPE svg PUBLIC "-//W3C//DTD SVG 1.1//EN" "http://www.w3.org/Graphics/SVG/1.1/DTD/svg11.dtd" >
<svg xmlns="http://www.w3.org/2000/svg" xmlns:xlink="http://www.w3.org/1999/xlink" version="1.1" viewBox="-10 0 1010 1000">
   <path fill="currentColor"
d="M287 219v-52h-228v-61h228v-62h72v62h279v-62h73v62h233v61h-233v52h-73v-52h-279v52h-72zM755 753l44 36c-132 92 -395 155 -629 166c-5 -17 -16 -40 -29 -56c234 -4 495 -63 614 -146zM665 656l44 33c-102 75 -304 134 -481 150c-6 -16 -18 -38 -31 -53
c176 -9 376 -62 468 -130zM539 575l54 25c-75 61 -205 104 -326 129c-8 -14 -23 -32 -36 -44c114 -21 242 -60 308 -110zM807 512v-77c-75 23 -151 44 -215 63c115 67 244 94 369 117c-15 14 -32 40 -39 60c-146 -30 -296 -71 -430 -179c-101 86 -250 145 -412 180
c-8 -16 -22 -40 -38 -54c134 -26 261 -68 354 -128h-12v-64c-95 30 -191 60 -269 84l-23 -55c74 -18 184 -49 292 -80v-85h-187c42 24 92 58 116 82l-45 33c-25 -27 -77 -65 -120 -90l39 -25h-85v-56h349v216c16 -13 29 -27 41 -40l56 25c-5 6 -11 13 -16 19
c14 11 29 20 43 29l-17 -40c64 -15 156 -39 249 -64v-88h-184c46 23 99 56 126 80l-45 34c-28 -26 -84 -63 -130 -88l40 -26h-97v-57h358v274h-68z" />
</svg>
