<?xml version="1.0" standalone="no"?>
<!DOCTYPE svg PUBLIC "-//W3C//DTD SVG 1.1//EN" "http://www.w3.org/Graphics/SVG/1.1/DTD/svg11.dtd" >
<svg xmlns="http://www.w3.org/2000/svg" xmlns:xlink="http://www.w3.org/1999/xlink" version="1.1" viewBox="-10 0 1010 1000">
   <path fill="currentColor"
d="M608 638h-175c-14 22 -28 41 -42 60c47 11 94 23 139 37c34 -26 59 -59 78 -97zM179 458h195v-53h-195v53zM374 304h-195v53h195v-53zM758 819l-51 48c-43 -22 -100 -45 -165 -67c-72 48 -170 79 -292 100c-6 -17 -18 -40 -30 -52c101 -14 184 -38 249 -72
c-56 -16 -115 -32 -175 -46c21 -25 46 -58 68 -92h-139v-56h176c13 -23 27 -48 39 -70h-259v444h-73v-707h338v250l63 15c-11 22 -24 45 -38 68h304v56h-94c-20 46 -47 85 -82 119c63 20 118 42 161 62zM617 458h204v-53h-204v53zM821 304h-204v53h204v-53zM894 249v616
c0 41 -9 61 -37 73c-26 12 -71 14 -143 14c-3 -20 -14 -50 -23 -69c51 2 98 1 111 1c14 0 19 -5 19 -19v-353h-274v-263h347zM701 110h252v63h-252v53h-73v-53h-259v53h-73v-53h-251v-63h251v-66h73v66h259v-66h73v66z" />
</svg>
