<?xml version="1.0" standalone="no"?>
<!DOCTYPE svg PUBLIC "-//W3C//DTD SVG 1.1//EN" "http://www.w3.org/Graphics/SVG/1.1/DTD/svg11.dtd" >
<svg xmlns="http://www.w3.org/2000/svg" xmlns:xlink="http://www.w3.org/1999/xlink" version="1.1" viewBox="-10 0 1010 1000">
   <path fill="currentColor"
d="M295 235v-62h-235v-61h235v-68h73v68h260v-68h73v68h242v61h-242v65h-73v-65h-260v62h-73zM679 471h-138c3 30 8 61 15 89h197c-29 -21 -70 -42 -106 -57zM421 308v108h155v-108h-155zM356 416v-108h-150v108h150zM640 308v108h159v-108h-159zM769 636l67 22
c-39 57 -91 105 -151 147c50 50 107 78 161 77c31 0 40 -27 46 -109c16 13 41 25 60 30c-12 116 -39 147 -108 148c-79 0 -156 -40 -219 -109c-80 46 -169 81 -258 108c-8 -15 -30 -45 -43 -60c92 -23 182 -55 260 -98c-34 -48 -62 -105 -83 -169h-289v22v19
c71 28 158 71 202 107l-41 55c-37 -30 -104 -68 -167 -97c-12 77 -41 162 -107 227c-12 -14 -41 -37 -57 -44c85 -82 100 -189 100 -267v-85h342c-6 -28 -11 -59 -14 -89h-333v-218h733v218h-160c39 17 83 41 107 61l-27 28h146v63h-362c19 50 42 95 70 133
c51 -35 93 -75 125 -120z" />
</svg>
