<?xml version="1.0" standalone="no"?>
<!DOCTYPE svg PUBLIC "-//W3C//DTD SVG 1.1//EN" "http://www.w3.org/Graphics/SVG/1.1/DTD/svg11.dtd" >
<svg xmlns="http://www.w3.org/2000/svg" xmlns:xlink="http://www.w3.org/1999/xlink" version="1.1" viewBox="-10 0 1010 1000">
   <path fill="currentColor"
d="M295 210v-50h-234v-60h234v-56h73v56h260v-56h73v56h239v60h-239v50h-73v-50h-260v50h-73zM183 537v67h162v-67h-162zM414 537v67h167v-67h-167zM650 537v67h171v-67h-171zM113 647v-153h780v153h-780zM751 316v-48h-505v48h505zM751 409v-50h-505v50h505zM177 223h645
v231h-645v-231zM710 743h-412c53 36 125 66 209 89c80 -22 150 -52 203 -89zM790 686l44 30c-53 60 -129 106 -218 142c106 21 224 34 341 40c-13 16 -29 42 -37 60c-142 -10 -286 -30 -410 -65c-134 37 -286 56 -434 66c-4 -19 -16 -46 -26 -62c119 -6 241 -18 352 -40
c-72 -28 -133 -61 -181 -102l24 -12h-153v-54h685z" />
</svg>
