<?xml version="1.0" standalone="no"?>
<!DOCTYPE svg PUBLIC "-//W3C//DTD SVG 1.1//EN" "http://www.w3.org/Graphics/SVG/1.1/DTD/svg11.dtd" >
<svg xmlns="http://www.w3.org/2000/svg" xmlns:xlink="http://www.w3.org/1999/xlink" version="1.1" viewBox="-10 0 1010 1000">
   <path fill="currentColor"
d="M295 246v-61h-234v-64h234v-76h73v76h261v-76h73v76h239v64h-239v63h-73v-63h-261v61h-73zM257 699h225s-1 18 -2 28c-10 128 -21 181 -43 202c-15 16 -32 21 -57 23c-23 1 -67 1 -113 -2c-1 -18 -8 -41 -19 -58c45 4 89 5 103 5c16 0 25 -1 32 -8c12 -13 20 -48 28 -130
h-169c-25 83 -71 153 -157 199c-9 -16 -29 -40 -43 -51c108 -55 141 -154 154 -269h-149v-59h207v-74h-164v-58h164v-67h-191v-59h191v-65h71v65h196v59h-196v67h163v58h-163v74h207v59h-266c-2 21 -5 41 -9 61zM645 438l-4 9c20 80 47 155 85 222c37 -67 64 -144 84 -231
h-165zM942 438h-60c-26 115 -63 214 -115 296c52 73 115 130 193 164c-17 14 -38 40 -49 59c-74 -37 -135 -93 -185 -164c-51 67 -114 122 -189 166c-9 -15 -33 -44 -49 -58c81 -42 147 -99 198 -170c-36 -62 -64 -131 -86 -207c-16 26 -33 50 -50 71
c-12 -13 -40 -36 -55 -47c63 -72 113 -181 143 -292l68 16c-10 34 -22 68 -34 101h270v65z" />
</svg>
