<?xml version="1.0" standalone="no"?>
<!DOCTYPE svg PUBLIC "-//W3C//DTD SVG 1.1//EN" "http://www.w3.org/Graphics/SVG/1.1/DTD/svg11.dtd" >
<svg xmlns="http://www.w3.org/2000/svg" xmlns:xlink="http://www.w3.org/1999/xlink" version="1.1" viewBox="-10 0 1010 1000">
   <path fill="currentColor"
d="M587 378v-62h-156v40v22h156zM748 429h-227c30 33 71 62 121 85c42 -23 79 -52 106 -85zM292 224v-54h-228v-56h228v-70h73v70h265v-70h73v70h235v56h-235v46h-47v47h190l12 -3l50 12c-14 36 -31 78 -45 104l-61 -13c6 -13 13 -30 20 -47h-166v62h133l11 -3l39 18
c-29 60 -76 109 -133 147c64 22 136 37 214 45c-14 14 -32 39 -41 57c-87 -13 -167 -35 -237 -65c-61 29 -127 51 -194 65c-6 -15 -20 -40 -32 -52c56 -10 112 -25 162 -46c-51 -32 -95 -70 -127 -115h-25c-11 72 -40 148 -108 207c-12 -12 -40 -34 -56 -41
c84 -73 101 -168 101 -241v-91h224v-53h43v-40h-265v54h-73zM149 647l-47 -47c41 -42 97 -109 145 -173l39 44c-42 58 -92 122 -137 176zM110 254l34 -45c50 17 114 48 146 72l-34 50c-32 -25 -95 -57 -146 -77zM235 390l-34 49c-32 -26 -94 -60 -145 -79l34 -44
c51 17 114 49 145 74zM679 734h-320c-17 18 -34 34 -51 50c77 12 152 26 225 40c60 -23 109 -53 146 -90zM949 734h-188c-34 44 -80 80 -137 109c101 23 192 46 261 69l-65 48c-73 -26 -172 -53 -288 -78c-116 40 -264 62 -437 74c-5 -18 -15 -39 -25 -54
c134 -7 252 -20 350 -43c-73 -14 -149 -28 -227 -40c28 -24 59 -54 88 -85h-230v-55h279c17 -20 33 -40 46 -59l66 20c-10 13 -20 26 -32 39h539v55z" />
</svg>
