<?xml version="1.0" standalone="no"?>
<!DOCTYPE svg PUBLIC "-//W3C//DTD SVG 1.1//EN" "http://www.w3.org/Graphics/SVG/1.1/DTD/svg11.dtd" >
<svg xmlns="http://www.w3.org/2000/svg" xmlns:xlink="http://www.w3.org/1999/xlink" version="1.1" viewBox="-10 0 1010 1000">
   <path fill="currentColor"
d="M291 246v-77h-231v-61h231v-64h73v64h267v-64h74v64h238v61h-238v77h-74v-77h-267v77h-73zM103 950l-54 -42c62 -32 101 -91 121 -152l60 23c-23 68 -58 133 -127 171zM295 774l59 -11c16 52 26 120 27 163l-62 12c-1 -44 -11 -112 -24 -164zM442 775l56 -16
c26 45 51 106 60 146l-60 19c-8 -41 -31 -103 -56 -149zM731 848l-53 32c-16 -32 -54 -78 -88 -109l49 -27c35 31 74 74 92 104zM751 326h-496v55h496v-55zM255 481h496v-56h-496v56zM944 629h-689v49h657s-1 20 -3 29c-14 144 -29 203 -52 226c-17 16 -35 21 -60 23
c-22 1 -65 1 -108 -2c-2 -17 -9 -42 -18 -58c42 4 82 4 98 4c14 0 23 -1 31 -7c15 -15 26 -59 37 -162h-654v-454h255c11 -27 22 -60 28 -82l77 14l-34 68h314v252h-568v48h689v52z" />
</svg>
