<?xml version="1.0" standalone="no"?>
<!DOCTYPE svg PUBLIC "-//W3C//DTD SVG 1.1//EN" "http://www.w3.org/Graphics/SVG/1.1/DTD/svg11.dtd" >
<svg xmlns="http://www.w3.org/2000/svg" xmlns:xlink="http://www.w3.org/1999/xlink" version="1.1" viewBox="-10 0 1010 1000">
   <path fill="currentColor"
d="M69 507h176v-58h-133v-51h133v-55h-157v-53h157v-48h70v48h152v53h-152v55h132v51h-132v58h170v54h-170v44h-70v-44h-176v-54zM148 678v-57h689v333h-75v-30h-617v-56h617v-67h-581v-56h581v-67h-614zM748 449v58h182v54h-182v44h-71v-44h-172v-54h172v-58h-140v-51h140
v-55h-159v-53h159v-48h71v48h167v53h-167v55h151v51h-151zM701 118h240v61h-240v52h-73v-52h-260v52h-73v-52h-234v-61h234v-74h73v74h260v-74h73v74z" />
</svg>
