<?xml version="1.0" standalone="no"?>
<!DOCTYPE svg PUBLIC "-//W3C//DTD SVG 1.1//EN" "http://www.w3.org/Graphics/SVG/1.1/DTD/svg11.dtd" >
<svg xmlns="http://www.w3.org/2000/svg" xmlns:xlink="http://www.w3.org/1999/xlink" version="1.1" viewBox="-10 0 1010 1000">
   <path fill="currentColor"
d="M295 234v-64h-235v-62h235v-64h73v64h259v-64h74v64h239v62h-239v62h-74v-62h-259v64h-73zM314 257l49 27c-29 67 -63 146 -94 213c67 67 86 126 86 178c1 48 -12 84 -39 103c-13 9 -31 15 -49 17c-19 2 -44 2 -68 1c0 -19 -8 -46 -18 -63c23 2 44 2 58 2
c11 -1 23 -3 31 -8c13 -10 19 -31 19 -58c0 -45 -19 -99 -88 -164c27 -58 53 -126 73 -181h-123v632h-66v-696h218zM462 582v65h150v-65h-150zM462 468v64h150v-64h-150zM841 468h-159v64h159v-64zM841 647v-65h-159v65h159zM911 700h-181c55 73 147 142 234 175
c-16 14 -38 38 -48 57c-86 -41 -176 -120 -234 -203v227h-70v-220c-63 85 -159 160 -253 200c-11 -18 -31 -42 -47 -56c96 -33 194 -103 253 -180h-169v-285h216v-56h-245v-59h245v-58h70v58h256v59h-256v56h229v285z" />
</svg>
