<?xml version="1.0" standalone="no"?>
<!DOCTYPE svg PUBLIC "-//W3C//DTD SVG 1.1//EN" "http://www.w3.org/Graphics/SVG/1.1/DTD/svg11.dtd" >
<svg xmlns="http://www.w3.org/2000/svg" xmlns:xlink="http://www.w3.org/1999/xlink" version="1.1" viewBox="-10 0 1010 1000">
   <path fill="currentColor"
d="M286 243v-67h-228v-62h228v-70h73v70h276v-70h73v70h235v62h-235v67h-73v-67h-276v67h-73zM924 434h-72v-92h-708v66h298v60h-299v-34h-68v-153h407c-15 -22 -33 -48 -51 -67l59 -25c28 27 56 64 72 92h362v153zM488 884h318c65 0 76 -14 83 -93c17 11 46 21 66 24
c-12 104 -37 131 -145 131h-320c-138 0 -176 -20 -176 -105v-233h-75c-10 160 -41 283 -161 355c-9 -17 -29 -43 -44 -53c104 -60 131 -166 139 -302h-113v-61h421v31c49 -58 88 -135 112 -216l61 14c-9 28 -20 56 -32 83h261v58h-58c-18 65 -45 121 -82 168
c53 43 101 86 133 120l-42 46c-30 -34 -77 -78 -129 -122c-55 54 -124 94 -205 125c-6 -15 -24 -41 -36 -54c78 -26 144 -62 194 -111c-38 -30 -75 -60 -109 -86l40 -39c33 24 71 53 106 82c28 -37 49 -80 63 -129h-164c-27 51 -59 96 -91 132c-11 -11 -35 -31 -49 -41h-70
v233c0 35 16 43 104 43z" />
</svg>
