<?xml version="1.0" standalone="no"?>
<!DOCTYPE svg PUBLIC "-//W3C//DTD SVG 1.1//EN" "http://www.w3.org/Graphics/SVG/1.1/DTD/svg11.dtd" >
<svg xmlns="http://www.w3.org/2000/svg" xmlns:xlink="http://www.w3.org/1999/xlink" version="1.1" viewBox="-10 0 1010 1000">
   <path fill="currentColor"
d="M296 220v-54h-233v-53h233v-69h72v69h259v-69h74v69h240v53h-240v54h-74v-54h-259v54h-72zM940 417v51h-880v-51h403v-42h-282v-43h282v-41h-331v-47h331v-57h71v57h344v47h-344v41h302v43h-302v42h406zM351 823l67 25c-78 47 -202 87 -302 110c-12 -13 -37 -40 -54 -52
c103 -18 220 -48 289 -83zM747 599v-47h-487v47h487zM747 688v-48h-487v48h487zM747 779v-50h-487v50h487zM821 508v313h-634v-313h634zM578 856l57 -35c111 30 233 69 308 98l-76 37c-64 -29 -175 -66 -289 -100z" />
</svg>
