<?xml version="1.0" standalone="no"?>
<!DOCTYPE svg PUBLIC "-//W3C//DTD SVG 1.1//EN" "http://www.w3.org/Graphics/SVG/1.1/DTD/svg11.dtd" >
<svg xmlns="http://www.w3.org/2000/svg" xmlns:xlink="http://www.w3.org/1999/xlink" version="1.1" viewBox="-10 0 1010 1000">
   <path fill="currentColor"
d="M295 246v-65h-231v-66h231v-71h73v71h262v-72h73v72h234v66h-234v67h-73v-67h-262v65h-73zM696 568h134v-204h-136v-61h202v326h-200v-61zM595 444v-76h-188v76h188zM595 574v-78h-188v78h188zM462 238l79 13c-12 22 -24 42 -37 61h158v317h-319v-317h87
c12 -25 25 -54 32 -74zM272 273l55 51c-41 22 -91 42 -140 58v190l124 -45c0 19 3 45 5 60c-163 67 -190 78 -204 90v-4c-1 1 -1 3 -1 4c-4 -17 -17 -44 -27 -57c14 -8 35 -24 35 -63v-212h4l-2 -3c54 -17 116 -44 151 -69zM342 660h78c-24 166 -92 254 -345 297
c-6 -17 -25 -49 -39 -63c233 -35 287 -100 306 -234zM685 869h154c46 0 53 -18 57 -151c17 12 48 24 68 29c-9 155 -31 191 -118 191h-167c-97 0 -122 -22 -122 -99v-180h73v179c0 26 8 31 55 31z" />
</svg>
