<?xml version="1.0" standalone="no"?>
<!DOCTYPE svg PUBLIC "-//W3C//DTD SVG 1.1//EN" "http://www.w3.org/Graphics/SVG/1.1/DTD/svg11.dtd" >
<svg xmlns="http://www.w3.org/2000/svg" xmlns:xlink="http://www.w3.org/1999/xlink" version="1.1" viewBox="-10 0 1010 1000">
   <path fill="currentColor"
d="M295 217v-47h-235v-62h235v-64h73v64h260v-64h73v64h242v62h-242v47h-73v-47h-260v47h-73zM174 498v-45c-27 24 -56 46 -84 65c-11 -17 -33 -40 -50 -53c93 -56 190 -152 241 -248l63 22c-5 9 -10 19 -15 28c71 44 154 103 198 145l-43 54c-41 -41 -119 -99 -190 -147
c-32 45 -68 87 -108 123h255v56h-267zM354 740l-63 19c-8 -50 -27 -135 -46 -199l59 -14c21 65 42 147 50 194zM91 589l56 -17c26 66 57 153 70 203l-59 23c-12 -53 -42 -142 -67 -209zM516 768l6 65c-153 34 -317 70 -431 95l-16 -67c75 -14 179 -36 290 -60
c27 -73 58 -178 75 -252l61 19c-20 70 -45 152 -69 219zM807 427h-162c20 89 50 172 90 245c35 -70 57 -151 72 -245zM950 427h-74c-19 123 -52 226 -100 312c50 70 112 127 186 162c-16 13 -38 39 -48 57c-70 -37 -129 -92 -177 -159c-49 65 -109 118 -186 160
c-8 -15 -31 -43 -45 -57c82 -40 144 -95 191 -164c-39 -68 -70 -145 -94 -230c-19 35 -40 66 -61 92c-12 -12 -38 -37 -54 -49c69 -78 117 -198 143 -326l68 14c-9 42 -20 83 -33 122h284v66z" />
</svg>
