<?xml version="1.0" standalone="no"?>
<!DOCTYPE svg PUBLIC "-//W3C//DTD SVG 1.1//EN" "http://www.w3.org/Graphics/SVG/1.1/DTD/svg11.dtd" >
<svg xmlns="http://www.w3.org/2000/svg" xmlns:xlink="http://www.w3.org/1999/xlink" version="1.1" viewBox="-10 0 1010 1000">
   <path fill="currentColor"
d="M265 943l-56 -27c39 -41 69 -111 87 -165l54 22c-18 56 -47 127 -85 170zM398 768l54 -7c13 50 20 116 20 159l-59 7c3 -43 -3 -108 -15 -159zM524 761l52 -11c20 41 40 97 44 131l-54 15c-5 -36 -23 -92 -42 -135zM282 408h173c-7 -29 -30 -69 -57 -98l41 -11
c-66 5 -135 8 -201 11c35 27 64 63 75 86zM248 528h399c4 -21 8 -43 10 -63h-409v53v10zM238 652h499c4 -23 8 -45 11 -67h-502c-2 22 -5 44 -8 67zM935 175h-239v51c25 -4 50 -7 73 -11l54 46c-101 16 -229 28 -361 37c29 32 54 74 62 101l-36 9h130
c34 -34 76 -87 100 -125l67 20c-28 34 -60 72 -90 103l37 4c-4 42 -9 82 -15 118h45l11 -3l50 6c-3 43 -9 84 -16 121h104s-1 20 -2 29c-15 162 -28 227 -52 251c-15 17 -32 22 -55 24c-22 1 -61 2 -101 -1c-2 -17 -8 -42 -17 -58c37 4 73 4 87 4s21 -1 29 -9
c15 -15 26 -63 38 -183h-612c-21 83 -61 168 -130 235c-11 -14 -40 -39 -55 -48c118 -112 137 -266 137 -378v-110h72c-13 -24 -38 -56 -66 -78l48 -19l-82 3c-3 -14 -17 -32 -28 -45c180 -7 379 -20 534 -38h-33v-56h-251v59h-73v-59h-244v-59h244v-73h73v73h251v-73h73v73
h239v59zM757 832l-49 22c-12 -30 -40 -77 -65 -112l47 -19c28 33 56 78 67 109z" />
</svg>
