<?xml version="1.0" standalone="no"?>
<!DOCTYPE svg PUBLIC "-//W3C//DTD SVG 1.1//EN" "http://www.w3.org/Graphics/SVG/1.1/DTD/svg11.dtd" >
<svg xmlns="http://www.w3.org/2000/svg" xmlns:xlink="http://www.w3.org/1999/xlink" version="1.1" viewBox="-10 0 1010 1000">
   <path fill="currentColor"
d="M373 637h-209v84h209v-84zM164 856h209v-88h-209v88zM93 951v-373h353v367h-73v-37h-209v43h-71zM728 371v-67h-467v67h467zM728 480v-68h-467v68h467zM800 253v278h-608v-278h608zM837 637h-227v84h227v-84zM610 856h227v-88h-227v88zM539 956v-378h371v372h-73v-42
h-227v48h-71zM710 110h225v62h-225v67h-73v-67h-279v67h-72v-67h-222v-62h222v-66h72v66h279v-66h73v66z" />
</svg>
