<?xml version="1.0" standalone="no"?>
<!DOCTYPE svg PUBLIC "-//W3C//DTD SVG 1.1//EN" "http://www.w3.org/Graphics/SVG/1.1/DTD/svg11.dtd" >
<svg xmlns="http://www.w3.org/2000/svg" xmlns:xlink="http://www.w3.org/1999/xlink" version="1.1" viewBox="-10 0 1010 1000">
   <path fill="currentColor"
d="M633 774h-265v69h265v-69zM699 730v157h-331v40h-65v-197h396zM877 638v250c0 33 -7 51 -31 60c-24 12 -61 12 -115 12c-4 -19 -14 -44 -23 -61c40 1 73 1 83 0c12 0 15 -3 15 -12v-199h-603v271h-71v-321h745zM339 446h321c-16 -14 -31 -29 -45 -44h-233
c-13 15 -28 30 -43 44zM660 554v-64h-315v64h315zM932 402h-239c68 58 171 103 272 123c-14 14 -33 39 -43 57c-67 -18 -135 -48 -194 -85v102h-449v-105c-61 45 -130 81 -202 109c-7 -15 -29 -43 -43 -56c99 -33 190 -81 260 -145h-226v-53h277c11 -13 22 -27 31 -42
c-70 4 -140 6 -206 7c-1 -13 -8 -36 -14 -49c152 -4 329 -13 470 -28v-57h-255v62h-72v-62h-236v-60h236v-77h72v77h255v-77h74v77h244v60h-244v48c30 -4 57 -8 81 -13l43 47c-98 19 -232 32 -371 41c-9 16 -18 31 -29 46h508v53z" />
</svg>
