<?xml version="1.0" standalone="no"?>
<!DOCTYPE svg PUBLIC "-//W3C//DTD SVG 1.1//EN" "http://www.w3.org/Graphics/SVG/1.1/DTD/svg11.dtd" >
<svg xmlns="http://www.w3.org/2000/svg" xmlns:xlink="http://www.w3.org/1999/xlink" version="1.1" viewBox="-10 0 1010 1000">
   <path fill="currentColor"
d="M658 459h38c34 -29 67 -61 96 -94h-134v94zM792 732v-74h-251v74h251zM541 862h251v-76h-251v76zM942 519h-221c-35 28 -71 56 -108 81h251v354h-72v-35h-251v38h-69v-273c-31 17 -62 32 -93 46c-8 -14 -28 -39 -41 -53c-1 107 -13 192 -51 238c-13 15 -31 25 -54 29
c-33 6 -70 7 -111 5c-1 -23 -10 -48 -23 -68c46 4 84 3 105 1c15 -2 25 -7 33 -16c24 -31 32 -108 32 -214c0 -13 0 -24 -1 -36c-52 65 -122 129 -185 168c-10 -18 -29 -41 -44 -55c78 -41 170 -124 219 -202c-6 -31 -15 -61 -30 -90c-40 35 -84 67 -129 95
c-11 -15 -32 -35 -48 -46c50 -29 99 -66 143 -105c-26 -35 -61 -69 -107 -102l48 -39c44 31 78 62 106 95c22 -23 41 -47 57 -69l61 31c-22 32 -50 63 -79 92c49 85 58 175 58 267v18c99 -40 195 -93 283 -155h-259v-60h224v-94h-182v-59h182v-73h45v-60h-269v70h-72v-70
h-225v-66h225v-63h72v63h269v-63h73v63h234v66h-234v70h-46v63h145v46c26 -30 50 -62 72 -95l60 25c-43 64 -93 123 -148 177h155v60z" />
</svg>
