<?xml version="1.0" standalone="no"?>
<!DOCTYPE svg PUBLIC "-//W3C//DTD SVG 1.1//EN" "http://www.w3.org/Graphics/SVG/1.1/DTD/svg11.dtd" >
<svg xmlns="http://www.w3.org/2000/svg" xmlns:xlink="http://www.w3.org/1999/xlink" version="1.1" viewBox="-10 0 1010 1000">
   <path fill="currentColor"
d="M281 247l66 22c-26 47 -59 91 -95 132c43 83 51 171 51 261c0 118 -10 215 -48 262c-13 15 -30 25 -51 28c-30 6 -66 6 -103 5c0 -23 -8 -49 -20 -69c39 3 73 3 92 1c14 -2 23 -6 30 -15c22 -29 30 -110 30 -215v-18c-45 56 -102 111 -152 146c-11 -17 -30 -42 -47 -56
c68 -38 146 -114 191 -184c-5 -32 -13 -62 -24 -93c-36 35 -73 65 -109 89c-11 -12 -36 -40 -52 -52c44 -27 87 -61 127 -100c-23 -36 -56 -71 -99 -104l51 -37c40 29 70 61 94 92c27 -30 50 -63 68 -95zM671 470v-73h-66v73h66zM834 526h-113v85c0 17 3 19 22 19h67
c12 0 15 -1 17 -4c2 1 4 3 7 4v-104zM450 871h384v-70h-384v70zM554 526h-104v221h384v-68c-5 1 -11 1 -18 1h-78c-54 0 -67 -13 -67 -68v-86h-66c-3 74 -22 142 -100 192c-8 -11 -28 -30 -40 -39c69 -40 86 -97 89 -153zM773 230l57 26c-16 28 -36 59 -53 85h155v56h-211
v73h180v487h-67v-32h-384v32h-65v-487h170v-73h-192v-56h157c-16 -26 -38 -59 -56 -84l50 -25c26 32 57 75 70 101l-13 8h139c24 -34 48 -78 63 -111zM706 106h235v65h-235v72h-74v-72h-267v72h-73v-72h-230v-65h230v-62h73v62h267v-62h74v62z" />
</svg>
