<?xml version="1.0" standalone="no"?>
<!DOCTYPE svg PUBLIC "-//W3C//DTD SVG 1.1//EN" "http://www.w3.org/Graphics/SVG/1.1/DTD/svg11.dtd" >
<svg xmlns="http://www.w3.org/2000/svg" xmlns:xlink="http://www.w3.org/1999/xlink" version="1.1" viewBox="-10 0 1010 1000">
   <path fill="currentColor"
d="M295 239v-58h-234v-62h234v-74h73v74h260v-74h74v74h240v62h-240v59h-74v-59h-260v58h-73zM457 231l65 18c-7 16 -15 32 -24 48h438v55h-473c-33 48 -70 91 -107 125c-13 -12 -40 -33 -57 -43c65 -51 124 -125 158 -203zM246 248l65 22c-52 73 -135 152 -212 200
c-12 -13 -33 -36 -46 -46c73 -44 153 -114 193 -176zM260 436l64 22c-24 36 -52 72 -85 108v388h-66v-325c-30 27 -62 51 -92 71c-10 -13 -30 -36 -42 -47c86 -54 177 -141 221 -217zM482 742l-2 1c37 32 88 60 149 82c54 -21 101 -50 137 -83h-284zM483 548v57h323v-57
h-323zM483 453v54h323v-54h-323zM828 689l40 25c-38 57 -94 102 -161 136c77 21 165 36 252 43c-13 15 -28 40 -37 59c-103 -12 -205 -34 -294 -67c-94 34 -200 56 -305 68c-5 -17 -18 -40 -29 -55c88 -8 176 -23 257 -46c-45 -23 -86 -48 -118 -79c-32 20 -67 37 -102 51
c-9 -12 -29 -33 -42 -44c87 -33 166 -81 219 -133h-88v-237h452v237h-286c-13 16 -27 30 -43 45h272z" />
</svg>
