<?xml version="1.0" standalone="no"?>
<!DOCTYPE svg PUBLIC "-//W3C//DTD SVG 1.1//EN" "http://www.w3.org/Graphics/SVG/1.1/DTD/svg11.dtd" >
<svg xmlns="http://www.w3.org/2000/svg" xmlns:xlink="http://www.w3.org/1999/xlink" version="1.1" viewBox="-10 0 1010 1000">
   <path fill="currentColor"
d="M290 528v27c30 24 116 96 136 115l-44 59c-16 -24 -58 -71 -92 -107v332h-69v-332c-39 94 -91 187 -141 243c-8 -21 -25 -50 -36 -68c57 -60 121 -170 158 -269h-138v-65h157v-108c-47 10 -94 18 -138 24c-2 -16 -11 -39 -19 -55c106 -17 235 -45 308 -79l36 56
c-34 15 -74 28 -118 39v123h132v65h-132zM519 703h332v-80h-332v80zM851 491h-332v76h332v-76zM917 433v438c0 38 -8 56 -31 68c-23 11 -59 12 -114 12c-3 -20 -13 -47 -21 -65c39 1 75 1 85 1c12 -1 15 -4 15 -16v-111h-332v194h-63v-521h82c-18 -34 -51 -86 -80 -123
l51 -29c33 39 71 91 86 125l-44 27h99v-176h69v176h50c28 -44 65 -111 85 -159l60 26c-24 44 -51 94 -77 133h80zM701 121h239v61h-239v63h-73v-63h-259v61h-73v-61h-234v-61h234v-76h73v76h259v-76h73v76z" />
</svg>
