<?xml version="1.0" standalone="no"?>
<!DOCTYPE svg PUBLIC "-//W3C//DTD SVG 1.1//EN" "http://www.w3.org/Graphics/SVG/1.1/DTD/svg11.dtd" >
<svg xmlns="http://www.w3.org/2000/svg" xmlns:xlink="http://www.w3.org/1999/xlink" version="1.1" viewBox="-10 0 1010 1000">
   <path fill="currentColor"
d="M295 250v-76h-235v-66h235v-64h73v64h260v-64h73v64h242v66h-242v76h-73v-76h-260v76h-73zM546 452v77h269v-77h-269zM546 327v75h269v-75h-269zM483 581v-307h398v307h-398zM205 660l202 -33c-1 19 0 47 3 61c-267 48 -301 56 -323 69c-3 -15 -13 -48 -22 -66
c21 -4 47 -25 79 -55c19 -16 59 -55 103 -106c-134 15 -158 20 -173 27c-4 -15 -15 -48 -23 -67c16 -3 34 -19 55 -42s92 -111 137 -199l67 31c-44 71 -97 143 -150 198l142 -12c24 -31 47 -63 69 -94l60 35c-69 92 -148 180 -226 253zM405 785l5 66
c-120 27 -246 55 -340 77l-12 -71c89 -15 219 -44 347 -72zM514 688v186h76v-186h-76zM718 688h-78v186h78v-186zM847 688h-79v186h79v-186zM910 874h48v59h-582v-59h77v-240h457v240z" />
</svg>
