<?xml version="1.0" standalone="no"?>
<!DOCTYPE svg PUBLIC "-//W3C//DTD SVG 1.1//EN" "http://www.w3.org/Graphics/SVG/1.1/DTD/svg11.dtd" >
<svg xmlns="http://www.w3.org/2000/svg" xmlns:xlink="http://www.w3.org/1999/xlink" version="1.1" viewBox="-10 0 1010 1000">
   <path fill="currentColor"
d="M292 238v-63h-232v-61h232v-70h72v70h269v-70h72v70h238v61h-238v57h-72v-57h-269v63h-72zM870 216l47 49c-136 32 -341 53 -515 62c-3 -14 -10 -36 -16 -50c170 -12 371 -33 484 -61zM709 411l-60 21c-7 -28 -27 -69 -46 -100l57 -18c20 30 41 69 49 97zM94 372l54 8
c-3 83 -18 176 -58 231l-50 -26c36 -47 52 -133 54 -213zM368 801l-48 62c-19 -35 -58 -99 -91 -148c-20 88 -63 172 -144 243c-9 -16 -30 -39 -45 -50c130 -116 145 -269 145 -416v-268h65v269v16c28 -48 60 -121 78 -170l58 21c-33 61 -71 134 -103 180l-33 -16
c-1 35 -2 70 -6 105c30 38 106 145 124 172zM783 717h-197c26 35 63 66 105 92c38 -26 69 -57 92 -92zM831 662l41 17c-27 64 -70 117 -123 161c64 28 137 48 217 59c-15 14 -34 41 -42 59c-87 -16 -166 -41 -233 -78c-59 35 -125 60 -193 77c-6 -16 -22 -39 -33 -53
c58 -13 116 -32 169 -61c-34 -24 -65 -52 -90 -85c-42 83 -102 150 -180 198c-9 -13 -31 -35 -44 -46c108 -67 175 -168 211 -302h-155v-55h168c3 -19 7 -38 9 -59h-148v-54h81c-10 -25 -35 -63 -57 -90l50 -24c25 26 51 62 63 88l-51 26h245c43 -42 89 -97 116 -139l55 18
c-27 39 -62 83 -97 121h118v54h-307c-3 21 -7 40 -10 59h334v55h-346c-5 20 -10 38 -17 57h238z" />
</svg>
