<?xml version="1.0" standalone="no"?>
<!DOCTYPE svg PUBLIC "-//W3C//DTD SVG 1.1//EN" "http://www.w3.org/Graphics/SVG/1.1/DTD/svg11.dtd" >
<svg xmlns="http://www.w3.org/2000/svg" xmlns:xlink="http://www.w3.org/1999/xlink" version="1.1" viewBox="-10 0 1010 1000">
   <path fill="currentColor"
d="M824 428h-171v52h171v-52zM653 576h171v-53h-171v53zM418 576h166v-53h-166v53zM584 428h-166v52h166v-52zM290 237v-63h-229v-63h229v-68h73v68h269v-68h73v68h239v63h-239v63h-52v46h181c-28 -20 -65 -39 -95 -51l33 -41c43 15 95 44 124 66l-21 26h62v52h-284v46h242
v297h-71v-59h-171v55h-69v-55h-166v61h-69v-299h235v-46h-272v-52h272v-59h48v-50h-269v63h-73zM90 276l40 -49c59 25 132 65 169 96l-43 55c-36 -32 -107 -74 -166 -102zM255 522l-41 55c-37 -31 -109 -74 -170 -101l40 -49c60 24 134 64 171 95zM126 950l-58 -44
c44 -62 106 -167 153 -258l50 42c-42 85 -98 185 -145 260zM948 705v60h-157v114c0 37 -6 54 -34 64c-26 11 -67 11 -131 11c-3 -19 -13 -43 -22 -62c47 1 89 1 101 0c13 0 16 -3 16 -14v-113h-269c44 29 92 68 116 99l-49 45c-25 -34 -81 -81 -128 -113l35 -31h-128v-60
h423v-48h70v48h157z" />
</svg>
