<?xml version="1.0" standalone="no"?>
<!DOCTYPE svg PUBLIC "-//W3C//DTD SVG 1.1//EN" "http://www.w3.org/Graphics/SVG/1.1/DTD/svg11.dtd" >
<svg xmlns="http://www.w3.org/2000/svg" xmlns:xlink="http://www.w3.org/1999/xlink" version="1.1" viewBox="-10 0 1010 1000">
   <path fill="currentColor"
d="M300 216v-49h-239v-58h239v-65h73v65h250v-65h73v65h245v58h-245v45h-73v-45h-250v49h-73zM421 300l17 -6l-168 9c21 24 41 54 52 80h143c-11 -27 -27 -59 -44 -83zM914 383v152h-73v-96h-363c43 22 88 50 112 72l-42 39c-29 -28 -90 -66 -141 -91l23 -20h-273v90h-71
v-146h160c-12 -22 -27 -45 -43 -65l35 -14c-38 1 -75 2 -112 3c-1 -15 -9 -40 -15 -53c245 -7 543 -27 703 -57l50 50c-101 19 -234 33 -374 43c20 29 37 65 45 93h137c27 -33 58 -78 76 -109l70 28c-21 27 -44 56 -67 81h163zM686 511l51 -35c52 39 113 96 142 136l-54 40
c-27 -41 -87 -99 -139 -141zM158 661l-50 -44c61 -24 100 -74 118 -129l58 22c-21 61 -56 119 -126 151zM653 739h-314c41 32 96 59 160 81c61 -22 114 -49 154 -81zM724 685l45 31c-44 54 -106 97 -179 130c108 26 233 42 360 49c-15 14 -32 43 -40 61
c-147 -10 -291 -34 -411 -74c-121 40 -262 62 -403 75c-6 -17 -24 -46 -38 -60c123 -7 245 -23 352 -50c-48 -22 -91 -48 -126 -78c-50 30 -103 56 -153 77c-12 -12 -41 -35 -57 -46c111 -37 226 -98 296 -170c-34 -9 -44 -31 -44 -74v-76h68v76c0 21 8 24 49 24h147
c31 0 37 -8 40 -67c15 10 41 19 60 22c-7 81 -27 101 -92 101h-152l3 1c-15 18 -33 35 -51 51h313z" />
</svg>
