<?xml version="1.0" standalone="no"?>
<!DOCTYPE svg PUBLIC "-//W3C//DTD SVG 1.1//EN" "http://www.w3.org/Graphics/SVG/1.1/DTD/svg11.dtd" >
<svg xmlns="http://www.w3.org/2000/svg" xmlns:xlink="http://www.w3.org/1999/xlink" version="1.1" viewBox="-10 0 1010 1000">
   <path fill="currentColor"
d="M508 696l57 12c-52 121 -168 200 -297 249c-7 -12 -25 -36 -36 -47c57 -19 112 -44 159 -76h-20v-178h-133v-52h327v52h-134v147c32 -31 60 -66 77 -107zM276 685l54 13c-18 53 -48 108 -80 144c-10 -8 -33 -23 -47 -29c33 -36 57 -82 73 -128zM720 431h-77
c1 21 3 41 5 61h128c-22 -15 -51 -31 -77 -41zM792 587l63 17c-29 70 -69 132 -117 186c35 60 77 94 114 94c22 -1 31 -32 35 -112c15 14 38 26 56 31c-11 114 -36 146 -95 147c-58 0 -113 -41 -158 -111c-49 46 -105 85 -164 117c-8 -14 -29 -41 -42 -54
c65 -31 124 -71 175 -119c-31 -64 -56 -145 -71 -235h-381v45c0 106 -19 257 -107 363c-12 -13 -41 -35 -57 -41c82 -99 96 -231 96 -324v-99h441c-2 -20 -4 -40 -5 -61h-511v-57h161v-134h70v134h175v-167h72v57h308v52h-308v58h395v57h-158c25 12 47 26 62 38l-22 23h114
v56h-277c12 70 29 131 52 182c34 -43 63 -90 84 -143zM701 120h242v57h-242v59h-73v-59h-260v55h-73v-55h-235v-57h235v-75h73v75h260v-75h73v75z" />
</svg>
