<?xml version="1.0" standalone="no"?>
<!DOCTYPE svg PUBLIC "-//W3C//DTD SVG 1.1//EN" "http://www.w3.org/Graphics/SVG/1.1/DTD/svg11.dtd" >
<svg xmlns="http://www.w3.org/2000/svg" xmlns:xlink="http://www.w3.org/1999/xlink" version="1.1" viewBox="-10 0 1010 1000">
   <path fill="currentColor"
d="M353 344h-135c-15 21 -31 42 -50 63h142c14 -18 30 -41 43 -63zM471 539v-80h-117v80h117zM471 670v-80h-117v80h117zM181 539h111v-80h-111v80zM292 590h-111v80h111v-80zM216 223l68 12c-9 18 -19 37 -30 55h135l13 -4l42 28c-18 31 -40 64 -63 93h155v317h-419v-265
c-11 11 -23 21 -36 31c-11 -16 -33 -36 -48 -45c88 -65 149 -151 183 -222zM90 958l-53 -34c47 -35 74 -100 85 -164l57 19c-13 69 -37 139 -89 179zM222 771l53 -6c13 50 21 118 22 160l-56 8c1 -43 -8 -110 -19 -162zM330 767l52 -11c23 48 44 111 50 152l-55 13
c-5 -41 -25 -105 -47 -154zM445 761l49 -16c34 45 70 105 85 146l-53 20c-13 -40 -49 -104 -81 -150zM611 766v-467h69v467h-69zM821 868v-619h70v619c0 43 -9 64 -38 76c-29 11 -76 13 -147 13c-3 -19 -14 -52 -24 -71c54 2 104 1 120 1c14 0 19 -4 19 -19zM702 108h239v65
h-239v78h-74v-78h-259v77h-74v-77h-234v-65h234v-64h74v64h259v-64h74v64z" />
</svg>
