<?xml version="1.0" standalone="no"?>
<!DOCTYPE svg PUBLIC "-//W3C//DTD SVG 1.1//EN" "http://www.w3.org/Graphics/SVG/1.1/DTD/svg11.dtd" >
<svg xmlns="http://www.w3.org/2000/svg" xmlns:xlink="http://www.w3.org/1999/xlink" version="1.1" viewBox="-10 0 1010 1000">
   <path fill="currentColor"
d="M86 487l-28 -59c71 -16 172 -42 274 -68l7 55c-88 26 -181 53 -253 72zM89 264l24 -49c74 14 172 43 224 67l-25 56c-50 -26 -148 -58 -223 -74zM759 595v-45h-511v45h511zM759 683v-46h-511v46h511zM759 773v-47h-511v47h511zM832 506v311h-655v-311h655zM826 300h-157
c20 71 76 120 283 140c-14 15 -30 41 -37 60c-172 -22 -244 -71 -281 -134c-38 68 -112 110 -251 134c-6 -16 -22 -40 -35 -52c159 -24 219 -68 244 -148h-99c-26 31 -57 62 -94 89c-13 -13 -36 -29 -53 -36c76 -49 125 -115 150 -171l64 9c-8 18 -18 36 -29 54h333l13 -3
l49 15c-26 47 -64 98 -98 130l-58 -21c19 -18 38 -41 56 -66zM290 214v-48h-240v-55h240v-67h72v67h273v-67h73v67h243v55h-243v48h-73v-48h-273v48h-72zM353 825l70 25c-78 49 -209 86 -314 107c-11 -14 -39 -40 -56 -51c108 -17 232 -45 300 -81zM579 860l51 -39
c111 29 231 66 305 94l-69 40c-65 -27 -174 -64 -287 -95z" />
</svg>
