<?xml version="1.0" standalone="no"?>
<!DOCTYPE svg PUBLIC "-//W3C//DTD SVG 1.1//EN" "http://www.w3.org/Graphics/SVG/1.1/DTD/svg11.dtd" >
<svg xmlns="http://www.w3.org/2000/svg" xmlns:xlink="http://www.w3.org/1999/xlink" version="1.1" viewBox="-10 0 1010 1000">
   <path fill="currentColor"
d="M542 517h140c16 -27 32 -59 42 -84h-225c17 26 35 58 43 84zM300 222v-53h-240v-58h240v-67h72v67h252v-67h72v67h247v58h-247v49h-49v55h224v53h-224v52h286v55h-184l51 14c-15 24 -31 48 -45 70h151v54h-259v52h219v53h-219v56h275v54h-275v76h-73v-76h-268v-54h268
v-56h-214v-53h214v-52h-250v-54h145c-9 -23 -22 -47 -35 -67l50 -17h-185v-55h275v-52h-213v-53h213v-62h50v-42h-252v53h-72zM96 266l48 -39c49 38 107 93 133 132l-51 43c-24 -40 -81 -97 -130 -136zM263 467v325c20 9 42 27 78 47c63 36 147 42 254 42
c116 0 268 -7 367 -18c-8 17 -18 48 -19 67c-78 5 -253 11 -350 11c-115 0 -200 -10 -266 -47c-41 -24 -70 -51 -92 -51c-35 0 -86 49 -138 108l-42 -56c48 -46 96 -85 138 -101v-262h-116v-65h186z" />
</svg>
