<?xml version="1.0" standalone="no"?>
<!DOCTYPE svg PUBLIC "-//W3C//DTD SVG 1.1//EN" "http://www.w3.org/Graphics/SVG/1.1/DTD/svg11.dtd" >
<svg xmlns="http://www.w3.org/2000/svg" xmlns:xlink="http://www.w3.org/1999/xlink" version="1.1" viewBox="-10 0 1010 1000">
   <path fill="currentColor"
d="M291 243v-71h-230v-65h230v-63h73v63h269v-63h73v63h235v65h-235v66h-73v-66h-269v71h-73zM517 407v65h302v-65h-302zM517 299v63h302v-63h-302zM453 519v-267h432v267h-432zM352 441l43 13c-38 250 -145 412 -289 497c-10 -17 -29 -42 -43 -56c73 -40 138 -108 186 -198
c-27 -25 -63 -51 -96 -68l32 -49c32 15 66 38 91 59c17 -41 31 -86 42 -134h-118c-28 69 -63 128 -104 175c-12 -12 -40 -33 -56 -43c69 -71 115 -179 141 -300h-111v-65h336v65h-154c-9 37 -18 72 -30 106h117zM947 618h-378c-11 18 -25 36 -40 52h349v1h52s-1 20 -3 28
c-12 150 -24 209 -45 232c-14 16 -30 21 -51 23c-20 1 -55 2 -93 -1c-1 -18 -7 -42 -16 -59c35 3 67 4 79 4c13 0 21 -1 27 -9c12 -14 23 -58 32 -165h-66c-44 96 -115 181 -190 236c-10 -10 -33 -30 -46 -38c71 -48 134 -117 174 -198h-91c-53 83 -136 152 -217 199
c-9 -10 -31 -31 -44 -41c75 -37 147 -93 195 -158h-98c-33 30 -67 57 -101 79c-10 -11 -34 -33 -48 -42c64 -35 128 -86 172 -143h-113v-55h560v55z" />
</svg>
