<?xml version="1.0" standalone="no"?>
<!DOCTYPE svg PUBLIC "-//W3C//DTD SVG 1.1//EN" "http://www.w3.org/Graphics/SVG/1.1/DTD/svg11.dtd" >
<svg xmlns="http://www.w3.org/2000/svg" xmlns:xlink="http://www.w3.org/1999/xlink" version="1.1" viewBox="-10 0 1010 1000">
   <path fill="currentColor"
d="M294 251v-68h-237v-61h237v-77h73v77h261v-77h73v77h243v61h-243v68h-73v-68h-261v68h-73zM235 560v90h154v-90h-154zM476 853l-48 51c-30 -28 -84 -67 -135 -96c-47 64 -114 113 -191 147c-9 -14 -32 -41 -47 -53c103 -40 183 -105 222 -197h-110v-199h293v199h-110
c-7 18 -14 34 -22 50c53 28 113 69 148 98zM602 561v90h158v-90h-158zM833 705h-111c-6 20 -14 38 -22 56c73 42 156 100 201 140l-46 48c-43 -39 -117 -94 -187 -136c-43 60 -101 105 -168 138c-9 -13 -34 -39 -49 -51c94 -41 165 -105 199 -195h-118v-198h301v198z
M359 391h288c-56 -29 -108 -63 -152 -97c-40 35 -86 69 -136 97zM500 196l62 29c-7 9 -15 17 -22 26c102 80 276 155 423 188c-15 15 -36 42 -46 61c-72 -20 -153 -50 -228 -87v35h-379v-30c-70 35 -148 64 -226 86c-9 -18 -27 -43 -42 -60c182 -46 362 -133 458 -248z" />
</svg>
