<?xml version="1.0" standalone="no"?>
<!DOCTYPE svg PUBLIC "-//W3C//DTD SVG 1.1//EN" "http://www.w3.org/Graphics/SVG/1.1/DTD/svg11.dtd" >
<svg xmlns="http://www.w3.org/2000/svg" xmlns:xlink="http://www.w3.org/1999/xlink" version="1.1" viewBox="-10 0 1010 1000">
   <path fill="currentColor"
d="M69 292v-50h414c-11 -17 -25 -34 -39 -49l58 -23c22 20 45 50 60 72h369v50h-862zM923 639h-70v-79h-707v79h-67v-127h844v127zM747 428v-53h-476v53h476zM201 330h619v142h-619v-142zM669 886h158c36 0 42 -12 46 -84c15 10 41 19 60 22c-8 94 -28 119 -99 119h-172
c-91 0 -116 -18 -116 -87v-202h-191c-12 16 -26 30 -42 45h153l11 -3l36 16c-69 143 -233 213 -407 245c-5 -15 -18 -38 -28 -50c72 -10 144 -29 206 -56c-22 -19 -50 -37 -76 -49l47 -24c27 12 56 30 79 47c38 -22 70 -49 95 -80h-177c-37 24 -81 46 -132 66
c-8 -14 -26 -33 -39 -42c92 -30 160 -72 203 -115h-110v-48h650v48h-209v96c81 -17 170 -41 223 -65l38 46c-69 30 -172 53 -261 69v56c0 25 8 30 54 30zM696 110h245v53h-245v52h-73v-52h-250v52h-73v-52h-239v-53h239v-66h73v66h250v-66h73v66z" />
</svg>
