<?xml version="1.0" standalone="no"?>
<!DOCTYPE svg PUBLIC "-//W3C//DTD SVG 1.1//EN" "http://www.w3.org/Graphics/SVG/1.1/DTD/svg11.dtd" >
<svg xmlns="http://www.w3.org/2000/svg" xmlns:xlink="http://www.w3.org/1999/xlink" version="1.1" viewBox="-10 0 1010 1000">
   <path fill="currentColor"
d="M295 250v-66h-234v-66h234v-74h73v74h260v-74h73v74h241v66h-241v66h-73v-66h-260v66h-73zM149 707l56 14c-25 63 -66 127 -107 169c-10 -8 -32 -26 -46 -33c40 -40 76 -96 97 -150zM498 687h-176v185c0 34 -6 51 -29 61c-21 10 -55 11 -102 11c-3 -18 -11 -43 -21 -61
c34 2 63 2 73 1c10 0 13 -3 13 -12v-185h-187v-59h187v-74h-201v-58h112c-3 -31 -16 -74 -32 -106l58 -14c19 35 34 83 38 114l-23 6h116c19 -37 40 -88 51 -124h-304v-58h180c-11 -25 -23 -51 -36 -73l63 -16c16 26 35 60 47 89h170v58h-112l58 17c-16 36 -35 75 -51 107
h118v58h-186v74h176v59zM364 727l47 -23c27 40 56 94 70 128l-50 28c-13 -36 -41 -92 -67 -133zM954 503v65h-129v387h-71v-387h-131v15c0 119 -17 275 -120 377c-10 -15 -36 -41 -50 -49c92 -94 102 -223 102 -328v-260c112 -19 239 -48 311 -77l58 51
c-81 31 -196 56 -301 73v133h331z" />
</svg>
