<?xml version="1.0" standalone="no"?>
<!DOCTYPE svg PUBLIC "-//W3C//DTD SVG 1.1//EN" "http://www.w3.org/Graphics/SVG/1.1/DTD/svg11.dtd" >
<svg xmlns="http://www.w3.org/2000/svg" xmlns:xlink="http://www.w3.org/1999/xlink" version="1.1" viewBox="-10 0 1010 1000">
   <path fill="currentColor"
d="M296 248v-74h-241v-61h241v-69h73v69h258v-69h73v69h242v61h-242v74h-73v-74h-258v74h-73zM103 242h66v83c83 -16 170 -37 223 -59l48 44c-74 29 -179 51 -271 65v30c0 23 8 27 53 27h155c32 0 39 -8 42 -66c13 9 40 18 57 22c-6 80 -27 100 -91 100h-168
c-91 0 -114 -17 -114 -83v-163zM447 861l-44 51c-24 -23 -78 -66 -119 -97c-30 55 -89 106 -197 143c-6 -14 -27 -42 -39 -54c129 -42 177 -98 193 -156h-185v-58h192v-79h-82c-16 29 -34 54 -53 75c-12 -10 -38 -28 -54 -36c42 -42 73 -99 90 -161l64 14
c-5 17 -12 34 -19 51h264v57h-145v79h170v58h-175l-3 15c38 25 119 82 142 98zM744 728v143c24 4 49 6 75 6c19 0 114 0 142 -1c-9 16 -18 45 -21 62h-125c-111 0 -193 -25 -247 -128c-21 59 -51 112 -95 148c-11 -12 -33 -32 -47 -40c84 -70 109 -203 113 -305l67 5
c-3 34 -7 71 -15 108c20 61 50 98 87 120v-292h-193v-57h254c-48 -34 -123 -77 -184 -106l40 -37c32 14 68 32 102 51c37 -21 77 -50 108 -78h-302v-56h359l12 -3l42 31c-43 50 -106 99 -168 136c21 12 40 25 54 36l-26 26h111l11 -3l45 11c-18 50 -40 107 -63 143l-55 -15
c13 -21 26 -49 37 -79h-118v115h168v59h-168z" />
</svg>
