<?xml version="1.0" standalone="no"?>
<!DOCTYPE svg PUBLIC "-//W3C//DTD SVG 1.1//EN" "http://www.w3.org/Graphics/SVG/1.1/DTD/svg11.dtd" >
<svg xmlns="http://www.w3.org/2000/svg" xmlns:xlink="http://www.w3.org/1999/xlink" version="1.1" viewBox="-10 0 1010 1000">
   <path fill="currentColor"
d="M292 217v-49h-236v-60h236v-64h73v64h268v-64h73v64h238v60h-238v49h-73v-49h-268v49h-73zM925 644h-73v-95h-703v100h-71v-157h847v152zM708 783l-57 -28c36 -35 82 -95 108 -136l67 30c-37 48 -83 100 -118 134zM215 785l-59 -33c49 -34 90 -95 114 -143l59 25
c-26 51 -64 112 -114 151zM458 433l-44 42c-29 -22 -80 -56 -127 -85c-33 45 -88 75 -177 96c-6 -14 -22 -36 -34 -47c152 -32 186 -88 195 -211l63 1c-4 45 -9 82 -22 114c51 29 112 66 146 90zM162 240l49 19c-16 37 -40 78 -71 107l-48 -26c29 -24 56 -66 70 -100z
M909 437l-41 45c-39 -26 -111 -66 -174 -98c-33 47 -88 79 -183 100c-5 -15 -22 -38 -35 -49c154 -30 188 -86 197 -204h65c-3 41 -8 75 -19 105c65 31 147 73 190 101zM563 243l50 19c-14 35 -36 75 -64 103l-49 -28c26 -21 51 -62 63 -94zM845 253l54 23
c-26 33 -56 63 -79 86l-45 -22c22 -23 54 -63 70 -87zM403 356l-45 -21c21 -24 52 -64 68 -90l55 25c-25 32 -56 64 -78 86zM465 569h77c-3 21 -6 41 -10 60c53 162 186 243 424 264c-16 16 -34 42 -42 62c-210 -27 -337 -96 -409 -232c-52 121 -163 194 -421 232
c-6 -18 -23 -45 -35 -60c332 -42 392 -142 416 -326z" />
</svg>
