<?xml version="1.0" standalone="no"?>
<!DOCTYPE svg PUBLIC "-//W3C//DTD SVG 1.1//EN" "http://www.w3.org/Graphics/SVG/1.1/DTD/svg11.dtd" >
<svg xmlns="http://www.w3.org/2000/svg" xmlns:xlink="http://www.w3.org/1999/xlink" version="1.1" viewBox="-10 0 1010 1000">
   <path fill="currentColor"
d="M802 644l55 34c-54 40 -123 80 -182 111c75 43 166 73 263 89c-14 13 -29 35 -37 52c-147 -30 -280 -93 -367 -184v210h-67v-157c-84 65 -221 113 -336 144c-10 -12 -36 -36 -52 -47c126 -26 261 -70 336 -128l52 21v-132c-99 9 -201 15 -288 18c-7 -15 -23 -44 -34 -57
c213 0 499 -18 641 -54l51 36c-77 23 -187 40 -303 51v15c23 34 55 65 92 92c61 -32 133 -79 176 -114zM353 684l61 21c-66 53 -188 90 -289 112c-9 -13 -32 -36 -47 -48c103 -17 217 -44 275 -85zM213 462v50c59 -5 122 -10 188 -16v-34h-188zM401 289h-188v42h188v-42z
M213 375v43h188v-43h-188zM870 262l42 19c-29 62 -71 115 -123 160c62 34 119 70 157 100l-43 49c-39 -32 -100 -72 -166 -109c-61 42 -130 75 -198 96c-6 -13 -16 -31 -27 -45l-43 5v57h-68v-49c-121 13 -240 25 -332 33l-10 -54l87 -7v-228h-75v-53h457v53h-59v201l43 -4
v34c56 -16 113 -41 165 -73c-42 -22 -86 -43 -125 -61l40 -43c44 19 92 42 140 67c33 -26 63 -57 87 -89h-273v-56h312zM696 105h251v58h-251v55h-73v-55h-251v54h-72v-54h-247v-58h247v-61h72v61h251v-61h73v61z" />
</svg>
