<?xml version="1.0" standalone="no"?>
<!DOCTYPE svg PUBLIC "-//W3C//DTD SVG 1.1//EN" "http://www.w3.org/Graphics/SVG/1.1/DTD/svg11.dtd" >
<svg xmlns="http://www.w3.org/2000/svg" xmlns:xlink="http://www.w3.org/1999/xlink" version="1.1" viewBox="-10 0 1010 1000">
   <path fill="currentColor"
d="M286 208v-43h-224v-59h224v-63h72v63h282v-63h73v63h226v59h-226v44h-73v-44h-282v43h-72zM297 822l68 19c-63 43 -158 87 -238 114c-12 -10 -39 -28 -55 -38c81 -24 170 -58 225 -95zM632 846l47 -31c74 26 170 69 221 100l-49 36c-47 -31 -144 -76 -219 -105zM654 698
l48 -28c70 37 158 93 202 132l-51 32c-14 -13 -33 -29 -56 -46l-245 13v97c0 29 -8 44 -39 53c-31 7 -78 8 -151 8c-4 -16 -16 -34 -27 -49c59 1 109 1 124 1c16 -1 19 -4 19 -13v-94c-282 15 -321 18 -349 26v-1c-2 -11 -12 -37 -19 -52c31 -1 70 -10 121 -23
c30 -8 103 -28 186 -56c-123 5 -147 7 -161 11c-3 -11 -14 -35 -22 -49c19 -1 41 -6 66 -15c27 -10 118 -48 184 -92l57 30c-50 30 -104 54 -159 75l155 -5c27 -10 52 -22 76 -32l52 36c-103 45 -211 80 -320 110l394 -18c-28 -19 -58 -36 -85 -51zM327 455v39h346v-39h-346
zM673 298h-346v39h346v-39zM327 376v40h346v-40h-346zM951 542h-216c56 56 143 105 229 128c-15 11 -36 33 -45 47c-101 -33 -199 -101 -258 -175h-320c-59 76 -158 147 -254 183c-9 -13 -30 -33 -45 -44c83 -27 169 -80 225 -139h-211v-48h198v-196h-159v-48h159v-36h73v36
h346v-36h74v36h163v48h-163v196h204v48z" />
</svg>
