<?xml version="1.0" standalone="no"?>
<!DOCTYPE svg PUBLIC "-//W3C//DTD SVG 1.1//EN" "http://www.w3.org/Graphics/SVG/1.1/DTD/svg11.dtd" >
<svg xmlns="http://www.w3.org/2000/svg" xmlns:xlink="http://www.w3.org/1999/xlink" version="1.1" viewBox="-10 0 1010 1000">
   <path fill="currentColor"
d="M424 806h-235v68h235v-68zM494 761v157h-305v33h-68v-190h373zM129 715v-46h358v46h-358zM488 575v46h-357v-46h357zM195 281v75h155v-75h-155zM412 281v75h161v-75h-161zM635 281v75h165v-75h-165zM869 409h-583c24 21 49 49 65 71h201v48h-490v-48h212
c-13 -17 -28 -33 -43 -47l52 -24h-155v-181h741v181zM678 471v310h-70v-310h70zM822 862v-431h70v432c0 43 -10 63 -41 75c-32 11 -85 12 -169 12c-3 -20 -14 -49 -24 -69c66 2 125 1 143 1c16 -1 21 -5 21 -20zM706 111h235v63h-235v40h-73v-40h-268v39h-73v-39h-231v-63
h231v-67h73v67h268v-68h73v68z" />
</svg>
