<?xml version="1.0" standalone="no"?>
<!DOCTYPE svg PUBLIC "-//W3C//DTD SVG 1.1//EN" "http://www.w3.org/Graphics/SVG/1.1/DTD/svg11.dtd" >
<svg xmlns="http://www.w3.org/2000/svg" xmlns:xlink="http://www.w3.org/1999/xlink" version="1.1" viewBox="-10 0 1010 1000">
   <path fill="currentColor"
d="M287 212v-49h-226v-54h226v-65h72v65h281v-65h73v65h227v54h-227v49h-73v-49h-281v49h-72zM904 364h-74v-73h-665v73h-72v-128h366c-6 -17 -14 -33 -22 -48l65 -16c13 18 25 44 32 64h370v128zM260 783l65 19c-44 57 -114 115 -177 150c-12 -11 -37 -34 -52 -45
c62 -30 127 -76 164 -124zM641 813l58 -31c62 37 139 93 178 133l-61 34c-36 -38 -111 -97 -175 -136zM350 517h299c-38 -29 -72 -62 -99 -98h-96c-29 37 -65 70 -104 98zM692 619v-56h-378v56h378zM692 719v-57h-378v57h378zM821 426l61 34c-31 27 -65 52 -95 73
c51 23 105 42 162 54c-15 12 -33 35 -42 53c-51 -14 -100 -32 -146 -54v179h-227v122c0 34 -6 50 -36 60c-27 10 -70 10 -137 10c-4 -18 -15 -41 -24 -58c53 1 96 1 109 0c14 -1 17 -4 17 -14v-120h-215v-186c-48 24 -99 44 -153 61c-9 -13 -32 -39 -47 -50
c58 -15 113 -35 162 -58c-24 -25 -59 -52 -90 -74l49 -35c33 21 74 53 99 77c39 -23 73 -50 104 -81h-230v-53h273c15 -22 27 -45 38 -71l67 15c-9 20 -18 38 -28 56h368v53h-237c30 32 68 61 111 85c31 -23 66 -56 87 -78z" />
</svg>
