<?xml version="1.0" standalone="no"?>
<!DOCTYPE svg PUBLIC "-//W3C//DTD SVG 1.1//EN" "http://www.w3.org/Graphics/SVG/1.1/DTD/svg11.dtd" >
<svg xmlns="http://www.w3.org/2000/svg" xmlns:xlink="http://www.w3.org/1999/xlink" version="1.1" viewBox="-10 0 1010 1000">
   <path fill="currentColor"
d="M518 781l-44 46c-21 -25 -56 -55 -94 -85c15 79 -1 151 -34 181c-24 23 -46 29 -80 30c-17 0 -38 0 -60 -1c-1 -17 -7 -43 -17 -60c25 3 48 3 64 3c18 0 33 -2 46 -16c20 -18 30 -67 21 -125c-65 66 -157 130 -239 168c-7 -15 -21 -38 -34 -49c90 -35 198 -107 259 -177
c-6 -15 -14 -30 -23 -46c-53 51 -132 103 -198 133c-7 -13 -22 -35 -35 -46c69 -26 156 -78 206 -127c-11 -14 -24 -25 -38 -37c-42 30 -89 58 -132 79c-9 -10 -31 -32 -44 -42c62 -26 127 -63 176 -104h-166v-59h116c-6 -26 -21 -61 -36 -86l52 -15h-114v-59h188
c-8 -18 -18 -37 -28 -53l61 -18l4 6v-53h-234v-63h234v-62h73v62h260v-62h73v62h240v63h-240v67h-73v-67h-260v64h-66c12 17 22 38 29 54h163v59h-306c19 29 36 70 42 96l-16 5h109c15 -32 34 -73 44 -101l65 16c-15 29 -30 60 -44 85h121v50c54 -39 63 -86 63 -130v-101
h258v162c0 25 2 33 15 33h51c10 0 31 -1 42 -4c1 17 3 38 5 54c-11 4 -30 5 -46 5h-64c-58 0 -69 -27 -69 -88v-100h-126v41c0 65 -17 142 -104 192c-10 -14 -35 -39 -50 -49l11 -6h-200c-11 12 -23 23 -36 33c32 25 56 55 75 85c35 -30 77 -71 101 -100l54 38
c-38 35 -82 73 -121 100c56 36 117 83 150 119zM821 625h-200c23 52 56 98 96 138c43 -38 79 -84 104 -138zM866 561l44 17c-30 94 -79 169 -142 229c56 41 122 72 195 92c-14 15 -34 40 -44 59c-76 -24 -145 -61 -202 -108c-66 49 -142 84 -224 109c-8 -19 -25 -45 -38 -60
c77 -20 150 -51 213 -95c-46 -48 -82 -103 -110 -165l47 -14h-85v-61h335z" />
</svg>
