<?xml version="1.0" standalone="no"?>
<!DOCTYPE svg PUBLIC "-//W3C//DTD SVG 1.1//EN" "http://www.w3.org/Graphics/SVG/1.1/DTD/svg11.dtd" >
<svg xmlns="http://www.w3.org/2000/svg" xmlns:xlink="http://www.w3.org/1999/xlink" version="1.1" viewBox="-10 0 1010 1000">
   <path fill="currentColor"
d="M217 933l-60 -28c43 -41 79 -111 100 -165l59 23c-23 55 -56 126 -99 170zM369 759l57 -6c17 44 31 104 32 140l-61 8c0 -37 -12 -96 -28 -142zM494 757l54 -14c27 39 52 93 59 127l-56 16c-8 -34 -31 -89 -57 -129zM336 655h558s-1 19 -2 29c-11 152 -21 214 -45 237
c-16 17 -35 23 -63 24c-24 2 -72 2 -121 -1c-1 -19 -10 -43 -21 -60c49 4 94 5 110 5c18 0 27 -1 34 -9c14 -13 24 -58 32 -168h-551c-52 37 -112 68 -170 93c-9 -15 -31 -42 -44 -54c92 -33 185 -84 245 -146h-101v-232l2 1c82 -17 176 -41 231 -63l46 44
c-60 21 -138 40 -212 55v39h192v50h-192v55h474v-52h-196v-50h196v-53h-208v-51h277v257h-425c-13 18 -29 34 -46 50zM755 837l-52 25c-15 -33 -51 -81 -83 -117l50 -20c33 34 70 82 85 112zM444 194l69 -18c15 20 30 48 40 70h366v146h-71v-89h-699v89h-68v-146h391
c-8 -18 -18 -36 -28 -52zM703 107h238v59h-238v57h-73v-57h-265v60h-73v-60h-230v-59h230v-63h73v63h265v-63h73v63z" />
</svg>
