<?xml version="1.0" standalone="no"?>
<!DOCTYPE svg PUBLIC "-//W3C//DTD SVG 1.1//EN" "http://www.w3.org/Graphics/SVG/1.1/DTD/svg11.dtd" >
<svg xmlns="http://www.w3.org/2000/svg" xmlns:xlink="http://www.w3.org/1999/xlink" version="1.1" viewBox="-10 0 1010 1000">
   <path fill="currentColor"
d="M295 237v-60h-236v-67h236v-66h73v66h260v-66h74v66h240v67h-240v60h-74v-60h-260v60h-73zM306 286h51v119h72v-168h55v168h77v-120h52v172h-307v-171zM212 239l65 23c-46 72 -121 151 -190 201c-9 -14 -29 -36 -43 -48c64 -44 134 -116 168 -176zM240 398l65 23
c-20 39 -47 80 -76 119v418h-66v-337c-27 30 -56 57 -84 81c-10 -15 -30 -39 -42 -52c80 -64 161 -167 203 -252zM725 443v5c13 84 35 162 64 230c29 -68 47 -146 59 -235h-123zM947 443h-37c-16 121 -44 222 -87 304c38 67 87 119 148 152c-15 13 -37 38 -46 56
c-56 -35 -102 -85 -138 -146c-43 61 -96 111 -162 152c-9 -12 -33 -37 -47 -48l13 -7h-313v-51h143v-75h-113v-50h113v-64h-132v-51h320v51h-126v64h110v50h-110v75h133v35c58 -38 103 -86 138 -144c-29 -61 -50 -129 -67 -205c-13 29 -28 55 -45 79
c-11 -12 -37 -34 -52 -44c4 -5 8 -10 12 -16h-309v-56h310v54c54 -81 86 -197 105 -319l64 11c-7 45 -17 88 -28 130h203v63z" />
</svg>
