<?xml version="1.0" standalone="no"?>
<!DOCTYPE svg PUBLIC "-//W3C//DTD SVG 1.1//EN" "http://www.w3.org/Graphics/SVG/1.1/DTD/svg11.dtd" >
<svg xmlns="http://www.w3.org/2000/svg" xmlns:xlink="http://www.w3.org/1999/xlink" version="1.1" viewBox="-10 0 1010 1000">
   <path fill="currentColor"
d="M298 250v-74h-238v-69h238v-64h76v64h253v-64h77v64h239v69h-239v74h-77v-74h-253v74h-76zM531 451v74h277v-74h-277zM531 326v73h277v-73h-277zM465 580v-308h412v308h-412zM417 689l-55 22c-6 -17 -14 -41 -24 -65c-220 18 -250 23 -269 31c-3 -14 -13 -45 -21 -63
c21 -4 47 -20 79 -45c19 -14 65 -52 115 -99c-131 9 -154 13 -168 19c-4 -14 -14 -47 -23 -65c16 -3 33 -13 51 -29c20 -16 86 -80 129 -144l63 31c-41 50 -88 99 -134 138l137 -7c20 -21 38 -43 56 -65l56 39c-75 80 -156 155 -238 215l145 -9c-9 -22 -19 -42 -28 -61
l53 -18c27 56 61 132 76 175zM90 719l57 13c-10 73 -29 161 -45 217c-12 -7 -41 -14 -55 -18c18 -58 34 -139 43 -212zM188 723l54 -8c14 67 27 152 31 210l-57 9c-3 -57 -15 -144 -28 -211zM498 687v182h79v-182h-79zM710 687h-81v182h81v-182zM843 687h-82v182h82v-182z
M908 869h47v61h-575v-42l-31 11c-9 -49 -31 -123 -53 -180l50 -14c22 50 43 117 54 164h35v-238h473v238z" />
</svg>
