<?xml version="1.0" standalone="no"?>
<!DOCTYPE svg PUBLIC "-//W3C//DTD SVG 1.1//EN" "http://www.w3.org/Graphics/SVG/1.1/DTD/svg11.dtd" >
<svg xmlns="http://www.w3.org/2000/svg" xmlns:xlink="http://www.w3.org/1999/xlink" version="1.1" viewBox="-10 0 1010 1000">
   <path fill="currentColor"
d="M444 279v69h345v-69h-345zM950 580l-42 44c-49 -30 -148 -74 -226 -100l36 -36h-64v131h-72v-131h-1c-72 50 -183 97 -274 127c-10 -12 -32 -35 -46 -46c75 -19 158 -49 222 -81h-185v-50h284v-44h-208v-161h488v161h-208v44h288v50h-208c74 24 164 62 216 92zM295 210
v-47h-239v-58h239v-61h72v61h260v-61h73v61h249v58h-249v50h-73v-50h-260v47h-72zM185 625v-229c-31 28 -65 54 -97 75c-8 -12 -30 -40 -44 -53c85 -50 173 -130 225 -212l62 19c-22 35 -49 70 -78 103v297h-68zM487 705h-3c-36 27 -81 53 -131 76v93l229 -37
c-1 17 -1 42 0 55c-271 47 -306 55 -326 66c-4 -17 -14 -43 -24 -59c22 -5 56 -16 56 -53v-37c-70 27 -144 50 -211 65c-10 -18 -28 -43 -42 -55c119 -21 258 -63 355 -114h-317v-56h406c-11 -19 -24 -39 -37 -56l60 -22c18 24 40 54 54 78h376v56h-364c36 38 83 72 138 98
c43 -25 94 -61 125 -86l47 39c-33 26 -72 52 -111 74c61 23 129 41 199 50c-15 16 -34 44 -43 62c-185 -33 -346 -114 -436 -237z" />
</svg>
