<?xml version="1.0" standalone="no"?>
<!DOCTYPE svg PUBLIC "-//W3C//DTD SVG 1.1//EN" "http://www.w3.org/Graphics/SVG/1.1/DTD/svg11.dtd" >
<svg xmlns="http://www.w3.org/2000/svg" xmlns:xlink="http://www.w3.org/1999/xlink" version="1.1" viewBox="-10 0 1010 1000">
   <path fill="currentColor"
d="M296 212v-49h-235v-59h235v-61h73v61h259v-61h73v61h243v59h-243v49h-73v-49h-259v49h-73zM534 872h421v56h-909v-56h416v-272h-372v-54h372v-257h-376v-56h836v56h-388v257h383v54h-383v272zM340 768v-74h-157v74h157zM131 652h263v158h-263v-158zM343 453v-73h-154v73
h154zM138 340h259v153h-259v-153zM653 381v73h155v-73h-155zM862 494h-260v-153h260v153zM657 692v74h158v-74h-158zM869 808h-264v-158h264v158z" />
</svg>
