<?xml version="1.0" standalone="no"?>
<!DOCTYPE svg PUBLIC "-//W3C//DTD SVG 1.1//EN" "http://www.w3.org/Graphics/SVG/1.1/DTD/svg11.dtd" >
<svg xmlns="http://www.w3.org/2000/svg" xmlns:xlink="http://www.w3.org/1999/xlink" version="1.1" viewBox="-10 0 1010 1000">
   <path fill="currentColor"
d="M296 235v-58h-242v-61h242v-72h72v72h260v-72h73v72h246v61h-246v58h-73v-58h-260v58h-72zM437 361h175c36 0 42 -7 46 -68c15 10 42 19 60 23c-7 82 -29 102 -99 102h-186c-98 0 -123 -16 -123 -82v-85h67v85c0 21 9 25 60 25zM550 623l-49 -21c17 -32 35 -86 43 -127
l48 19c-10 41 -25 94 -42 129zM202 243l55 26c-21 43 -49 98 -84 134l-57 -30c35 -33 67 -88 86 -130zM116 633l-50 -21c19 -35 35 -91 44 -136l47 19c-8 45 -22 103 -41 138zM347 509l-45 22c-10 -28 -36 -71 -63 -100l42 -20c28 28 56 69 66 98zM335 652h-76
c-58 0 -73 -14 -73 -69v-108h56v108c0 17 3 19 24 19h61c17 0 21 -5 24 -58c11 9 33 17 49 20c-5 70 -22 88 -65 88zM482 578l-46 23c-8 -31 -35 -79 -61 -113l43 -20c27 34 54 80 64 110zM590 295l-46 38c-22 -31 -72 -71 -116 -97l44 -34c44 25 94 64 118 93zM891 366
l-49 38c-24 -41 -81 -100 -133 -139l46 -34c53 38 111 94 136 135zM683 438l44 -20c27 30 57 73 69 103l-45 24c-12 -29 -41 -75 -68 -107zM785 651h-89c-61 0 -77 -13 -77 -68v-109h55v108c0 18 4 20 27 20h77c18 0 22 -5 25 -56c11 9 33 16 48 20c-6 68 -22 85 -66 85z
M947 577l-50 23c-9 -37 -38 -92 -67 -133l47 -18c29 39 60 93 70 128zM947 750h-340c92 63 230 109 358 131c-16 15 -35 41 -45 61c-139 -31 -292 -97 -386 -183v197h-73v-194c-97 81 -248 147 -380 179c-10 -18 -30 -44 -44 -59c119 -23 253 -72 345 -132h-326v-59h405v-57
h73v57h413v59z" />
</svg>
