<?xml version="1.0" standalone="no"?>
<!DOCTYPE svg PUBLIC "-//W3C//DTD SVG 1.1//EN" "http://www.w3.org/Graphics/SVG/1.1/DTD/svg11.dtd" >
<svg xmlns="http://www.w3.org/2000/svg" xmlns:xlink="http://www.w3.org/1999/xlink" version="1.1" viewBox="-10 0 1010 1000">
   <path fill="currentColor"
d="M292 202v-45h-231v-55h231v-59h72v59h270v-59h72v59h235v55h-235v43h-72v-43h-270v45h-72zM186 753h161v-52h-158c0 17 -1 34 -3 52zM347 603h-158v50h158v-50zM411 551v328c0 32 -7 46 -29 56c-23 10 -59 10 -116 10c-3 -17 -12 -38 -19 -53c39 1 75 1 85 0
c11 0 15 -3 15 -14v-76h-168c-12 57 -36 114 -83 158c-10 -12 -38 -33 -51 -41c70 -65 80 -154 80 -225v-143h286zM184 508v-42h220v42h-220zM405 387v41h-202v-41h202zM534 524h-72v-174h-314v96h-67v-144h381v-43h-323v-51h723v51h-328v43h385v144h-70v-96h-315v174z
M590 508v-41h225v41h-225zM590 387h204v41h-204v-41zM656 604h-116v94h116v-94zM835 698v-94h-117v94h117zM612 878h215c45 0 53 -12 57 -87c16 11 42 21 62 24c-10 98 -31 124 -114 124h-223c-106 0 -136 -20 -136 -99v-289h428v200h-361v89c0 32 10 38 72 38z" />
</svg>
