<?xml version="1.0" standalone="no"?>
<!DOCTYPE svg PUBLIC "-//W3C//DTD SVG 1.1//EN" "http://www.w3.org/Graphics/SVG/1.1/DTD/svg11.dtd" >
<svg xmlns="http://www.w3.org/2000/svg" xmlns:xlink="http://www.w3.org/1999/xlink" version="1.1" viewBox="-10 0 1010 1000">
   <path fill="currentColor"
d="M268 307v130h123v65h-123v33c33 30 105 100 123 120l-42 56c-15 -24 -50 -69 -81 -106v353h-72v-335c-36 80 -80 157 -124 207c-7 -21 -24 -51 -36 -68c57 -58 120 -166 155 -260h-138v-65h143v-112c-43 10 -87 18 -128 25c-3 -15 -13 -38 -21 -53
c95 -18 205 -45 273 -75h-34v-50h-223v-60h223v-68h73v68h280v-68h73v68h227v60h-227v50h-73v-50h-280v50h-4l45 39c-37 17 -83 32 -132 46zM732 908h133c24 0 31 -10 35 -54h-211v17c0 31 7 37 43 37zM462 806h157v-54h-157v54zM619 656h-157v52h157v-52zM854 752h-165v54
h165v-54zM854 656h-165v52h165v-52zM486 528h133v-51h-133v51zM697 298h-154c-14 17 -29 32 -44 48h158c14 -14 28 -31 40 -48zM619 437v-49h-133v49h133zM831 437v-49h-142v49h142zM831 528v-51h-142v51h142zM920 854c13 5 26 9 38 11c-5 69 -23 92 -86 92h-149
c-81 0 -104 -19 -104 -86v-17h-199v-1h-23v-245h222v-38h-195v-160c-9 6 -19 12 -28 19c-11 -14 -34 -33 -49 -42c86 -52 148 -120 182 -179l68 11c-5 9 -11 20 -18 30h157l14 -3l40 31c-17 24 -37 47 -59 69h165v224h-207v38h232z" />
</svg>
