<?xml version="1.0" standalone="no"?>
<!DOCTYPE svg PUBLIC "-//W3C//DTD SVG 1.1//EN" "http://www.w3.org/Graphics/SVG/1.1/DTD/svg11.dtd" >
<svg xmlns="http://www.w3.org/2000/svg" xmlns:xlink="http://www.w3.org/1999/xlink" version="1.1" viewBox="-10 0 1010 1000">
   <path fill="currentColor"
d="M619 412h132c14 -25 32 -59 42 -82h-177c16 21 31 51 36 71zM364 379v-57h-197v57h197zM382 508h-215v68h215v-68zM296 218v-44h-234v-61h234v-69h72v69h260v-69h73v69h239v61h-239v40l6 -2c14 20 28 45 37 67h170v51h-111l49 16c-13 23 -27 45 -40 66h132v51h-205v55
h179v51h-179v80h-69v-80h-169v-51h169v-55h-198v-51h123c-6 -22 -21 -51 -36 -73l32 -9h-93v-51h182c-8 -17 -17 -33 -27 -47l22 -8h-47v-50h-260v50h-72v-4c-11 20 -22 39 -32 56h163v148h-260v38h279v160h-342v-346h96c11 -23 22 -49 28 -69zM941 743h-336
c90 65 227 115 357 136c-16 15 -36 42 -45 61c-142 -32 -290 -100 -383 -188v205h-73v-201c-96 84 -245 154 -377 188c-9 -18 -29 -44 -44 -59c121 -25 256 -78 348 -142h-327v-59h400v-78h73v78h407v59z" />
</svg>
