<?xml version="1.0" standalone="no"?>
<!DOCTYPE svg PUBLIC "-//W3C//DTD SVG 1.1//EN" "http://www.w3.org/Graphics/SVG/1.1/DTD/svg11.dtd" >
<svg xmlns="http://www.w3.org/2000/svg" xmlns:xlink="http://www.w3.org/1999/xlink" version="1.1" viewBox="-10 0 1010 1000">
   <path fill="currentColor"
d="M292 224v-54h-230v-61h230v-65h72v65h267v-65h73v65h236v61h-236v50l26 -6c10 20 20 44 26 65h158v51h-112l51 17c-12 23 -24 45 -36 65h130v51h-205v55h179v51h-179v80h-69v-80h-169v-51h169v-55h-198v-51h122c-7 -21 -18 -47 -32 -66l50 -16c19 22 36 56 42 78l-12 4
h112c14 -25 29 -59 38 -82h-291v-51h176c-5 -17 -11 -34 -17 -49l25 -6h-57v-54h-267v54h-72zM381 302h-204v57v7h204v-64zM218 510v71h172v-71h-172zM156 628v-114c-13 43 -32 84 -63 119c-11 -12 -39 -33 -53 -40c63 -71 73 -165 73 -236v-102h333v158h-271
c-2 17 -4 33 -7 50h287v165h-299zM945 743h-340c90 65 227 115 357 136c-16 15 -36 42 -46 61c-141 -32 -290 -100 -382 -188v205h-73v-200c-97 84 -248 153 -379 187c-10 -18 -30 -44 -46 -59c123 -25 259 -78 351 -142h-330v-59h404v-78h73v78h411v59z" />
</svg>
