<?xml version="1.0" standalone="no"?>
<!DOCTYPE svg PUBLIC "-//W3C//DTD SVG 1.1//EN" "http://www.w3.org/Graphics/SVG/1.1/DTD/svg11.dtd" >
<svg xmlns="http://www.w3.org/2000/svg" xmlns:xlink="http://www.w3.org/1999/xlink" version="1.1" viewBox="-10 0 1010 1000">
   <path fill="currentColor"
d="M296 221v-48h-236v-61h236v-68h72v68h260v-68h73v68h242v61h-242v48h-73v-48h-260v48h-72zM249 682l54 31c-28 47 -64 96 -93 130l-48 -28c28 -36 67 -92 87 -133zM211 559v61h152v-61h-152zM363 343h-152v56h152v-56zM211 448v62h152v-62h-152zM425 343v277h77v56h-340
v188h324v56h-385v-244h-51v-56h100v-277h-85v-56h85v-58h61v58h152v-58h62v58h66v56h-66zM464 801l-51 32c-14 -33 -45 -84 -75 -122l50 -27c29 35 62 86 76 117zM952 490l-53 30c-8 -13 -18 -27 -31 -43c-275 16 -310 17 -334 24c-3 -11 -11 -41 -18 -56
c14 -3 27 -11 42 -24c13 -9 47 -39 78 -74h-120v-57h185c-8 -19 -18 -39 -28 -56l65 -20c15 23 32 53 42 76h164v57h-229c-30 35 -65 67 -98 94l212 -10l-51 -51l50 -25c45 40 99 97 124 135zM612 759h223v-58h-223v58zM835 591h-223v60h223v-60zM901 536v345
c0 32 -6 48 -28 59c-21 10 -55 10 -101 10c-3 -17 -10 -41 -18 -57c32 1 59 1 69 0c10 0 12 -3 12 -12v-72h-223v148h-65v-421h354z" />
</svg>
