<?xml version="1.0" standalone="no"?>
<!DOCTYPE svg PUBLIC "-//W3C//DTD SVG 1.1//EN" "http://www.w3.org/Graphics/SVG/1.1/DTD/svg11.dtd" >
<svg xmlns="http://www.w3.org/2000/svg" xmlns:xlink="http://www.w3.org/1999/xlink" version="1.1" viewBox="-10 0 1010 1000">
   <path fill="currentColor"
d="M206 395h224c-41 -30 -89 -64 -135 -91c-27 32 -56 63 -89 91zM282 211l14 5v-46h-236v-62h236v-64h72v64h260v-64h73v64h242v62h-242v47h-73v-47h-260v47h-69l46 16c-5 8 -10 15 -16 24c75 43 161 99 206 139l-41 51c-14 -14 -32 -28 -54 -45v48h-267v-28
c-28 23 -57 44 -86 60c-12 -15 -32 -36 -50 -50c93 -49 191 -134 245 -221zM139 557v86h86v-86h-86zM87 695v-190h191v190h-191zM289 862l-44 41c-12 -20 -35 -46 -59 -71c-23 51 -54 93 -93 126c-10 -11 -34 -34 -49 -43c64 -49 100 -124 115 -216l65 6
c-4 24 -10 48 -17 69c31 27 65 64 82 88zM380 699l64 6c-4 24 -9 47 -14 69c34 30 75 70 95 97l-45 43c-16 -23 -44 -54 -72 -82c-22 50 -55 92 -96 125c-10 -12 -34 -34 -49 -44c67 -47 103 -121 117 -214zM645 423l-1 3c21 89 51 173 91 245c35 -70 58 -152 72 -248h-162z
M456 643v-86h-87v86h87zM954 423h-77c-20 125 -51 229 -100 315c50 71 111 128 185 163c-16 13 -37 38 -48 57c-70 -38 -129 -92 -177 -159c-49 65 -109 117 -187 160c-8 -15 -30 -44 -44 -57c81 -40 144 -95 191 -165c-38 -67 -69 -142 -93 -225c-19 33 -37 63 -59 88
c-7 -8 -22 -22 -36 -34v129h-191v-190h191v25c59 -79 99 -189 122 -305l69 14c-9 42 -20 83 -32 122h286v62z" />
</svg>
