<?xml version="1.0" standalone="no"?>
<!DOCTYPE svg PUBLIC "-//W3C//DTD SVG 1.1//EN" "http://www.w3.org/Graphics/SVG/1.1/DTD/svg11.dtd" >
<svg xmlns="http://www.w3.org/2000/svg" xmlns:xlink="http://www.w3.org/1999/xlink" version="1.1" viewBox="-10 0 1010 1000">
   <path fill="currentColor"
d="M175 769h214v-56h-214v56zM389 613h-214v54h214v-54zM455 560v329c0 33 -6 48 -30 58c-22 10 -59 10 -115 10c-3 -17 -13 -39 -21 -55c39 1 76 1 85 0c12 0 15 -3 15 -13v-71h-214v140h-65v-398h345zM382 338l51 15c-15 33 -30 70 -45 100h121v56h-458v-56h119
c-5 -30 -16 -70 -32 -100l55 -15c18 34 34 81 38 111l-14 4h112c14 -35 33 -82 42 -115h-296v-55h194c-9 -19 -21 -41 -33 -58l60 -12v-41h-236v-60h236v-68h72v68h260v-68h73v68h242v60h-242v49h-73v-49h-260v49h-66c14 19 28 43 36 62h156v55h-112zM668 888h182
c34 0 41 -11 45 -66c16 10 41 19 61 23c-8 78 -29 101 -100 101h-194c-93 0 -121 -18 -121 -94v-362h291v-61h-291v-220h69v68h314v49h-314v53h290v161h-290v47h277v46h-277v48h262v45h-262v48h279v46h-279v32c0 30 8 36 58 36z" />
</svg>
