<?xml version="1.0" standalone="no"?>
<!DOCTYPE svg PUBLIC "-//W3C//DTD SVG 1.1//EN" "http://www.w3.org/Graphics/SVG/1.1/DTD/svg11.dtd" >
<svg xmlns="http://www.w3.org/2000/svg" xmlns:xlink="http://www.w3.org/1999/xlink" version="1.1" viewBox="-10 0 1010 1000">
   <path fill="currentColor"
d="M637 770h149v-82h-149v82zM428 770h143v-82h-143v82zM221 770h141v-82h-141v82zM855 632v250c0 33 -6 49 -31 59c-23 10 -62 10 -117 10c-4 -18 -14 -39 -22 -56c43 2 76 2 87 0c11 0 14 -3 14 -13v-62h-149v117h-66v-117h-143v118h-66v-118h-141v134h-68v-322h702z
M313 549v-73h-109v73h109zM157 434h205v156h-205v-156zM550 549v-73h-106v73h106zM396 434h203v156h-203v-156zM792 549v-73h-108v73h108zM841 434v156h-205v-156h205zM358 341h284c-51 -24 -99 -52 -146 -85c-40 31 -87 60 -138 85zM511 180l46 22c-6 6 -12 13 -19 19
c123 83 273 128 428 163c-16 16 -34 38 -41 58c-73 -20 -143 -42 -211 -70v19h-417v-22c-68 29 -140 52 -214 70c-10 -17 -26 -42 -42 -58c173 -36 349 -107 446 -201h-126v78h-72v-78h-225v-62h225v-74h72v74h274v-74h73v74h229v62h-229v78h-73v-78h-124z" />
</svg>
