<?xml version="1.0" standalone="no"?>
<!DOCTYPE svg PUBLIC "-//W3C//DTD SVG 1.1//EN" "http://www.w3.org/Graphics/SVG/1.1/DTD/svg11.dtd" >
<svg xmlns="http://www.w3.org/2000/svg" xmlns:xlink="http://www.w3.org/1999/xlink" version="1.1" viewBox="-10 0 1010 1000">
   <path fill="currentColor"
d="M296 221v-48h-236v-61h236v-68h72v68h260v-68h73v68h242v61h-242v48h-73v-48h-260v48h-72zM493 543v68h88v-68h-88zM633 543v68h91v-68h-91zM776 543v68h93v-68h-93zM433 657v-159h497v159h-497zM813 332v-47h-277v47h277zM813 420v-47h-277v47h277zM470 242h412v221
h-412v-221zM416 673l-55 19c-2 -15 -7 -32 -13 -52c-215 27 -245 33 -263 41c-4 -13 -14 -45 -21 -62c21 -4 44 -24 74 -54c15 -14 45 -47 81 -88c-97 9 -118 13 -131 19c-3 -14 -14 -46 -21 -62c15 -3 30 -17 47 -38c18 -19 76 -96 112 -173l63 25c-36 63 -81 126 -124 175
l102 -7c28 -35 55 -73 79 -111l59 32c-69 98 -149 192 -228 267l152 -17c-11 -26 -23 -53 -33 -77l52 -15c28 57 58 132 68 178zM101 721l57 10c-11 75 -30 156 -50 209c-13 -7 -42 -16 -56 -21c23 -53 39 -129 49 -198zM210 736l53 -9c11 56 21 127 24 175l-56 10
c-2 -48 -11 -120 -21 -176zM324 717l50 -14c20 48 39 110 48 150l-53 17c-8 -41 -27 -104 -45 -153zM801 747h-238c29 32 68 60 116 81c48 -21 90 -49 122 -81zM859 694l41 20c-35 59 -87 106 -150 142c63 21 137 35 214 43c-15 14 -31 38 -40 57c-90 -13 -173 -34 -245 -66
c-76 32 -163 53 -251 67c-6 -17 -19 -40 -31 -54c74 -10 148 -25 214 -47c-47 -29 -85 -63 -114 -103l20 -6h-79v-50h409z" />
</svg>
