<?xml version="1.0" standalone="no"?>
<!DOCTYPE svg PUBLIC "-//W3C//DTD SVG 1.1//EN" "http://www.w3.org/Graphics/SVG/1.1/DTD/svg11.dtd" >
<svg xmlns="http://www.w3.org/2000/svg" xmlns:xlink="http://www.w3.org/1999/xlink" version="1.1" viewBox="-10 0 1010 1000">
   <path fill="currentColor"
d="M302 206v-49h-241v-53h241v-60h72v60h246v-60h73v60h241v53h-241v49h-73v-49h-246v49h-72zM781 307v-44h-245v44h245zM781 391v-45h-245v45h245zM207 346v45h256v-45h-256zM207 263v44h256v-44h-256zM852 222v210h-714v-210h714zM143 589v40h107v-40h-107zM143 508v39
h107v-39h-107zM401 547v-39h-98v39h98zM401 629v-40h-98v40h98zM82 672v-207h382v207h-382zM857 547v-39h-108v39h108zM857 629v-40h-108v40h108zM588 589v40h109v-40h-109zM588 508v39h109v-39h-109zM920 465v207h-393v-207h393zM536 876h415v57h-898v-57h410v-75h-373v-56
h373v-68h73v68h373v56h-373v75z" />
</svg>
