<?xml version="1.0" standalone="no"?>
<!DOCTYPE svg PUBLIC "-//W3C//DTD SVG 1.1//EN" "http://www.w3.org/Graphics/SVG/1.1/DTD/svg11.dtd" >
<svg xmlns="http://www.w3.org/2000/svg" xmlns:xlink="http://www.w3.org/1999/xlink" version="1.1" viewBox="-10 0 1010 1000">
   <path fill="currentColor"
d="M219 794l55 31c-48 47 -122 96 -185 125c-9 -12 -27 -31 -41 -43c63 -27 136 -74 171 -113zM238 366v57h130v-57h-130zM437 577h-102v58h102v-58zM437 740v-60h-102v60h102zM161 680v60h112v-60h-112zM161 577v58h112v-58h-112zM54 423h121v-57h-94v-53h94v-63h63v63h130
v-63h63v63h94v53h-94v57h109v53h-205v51h166v263h-402v-263h174v-51h-219v-53zM339 830l40 -33c50 31 105 72 136 104l-48 37c-29 -33 -82 -76 -128 -108zM779 743v121h165v60h-410v-60h176v-121h-136v-59h136v-98h69v98h135v59h-135zM551 502h158v-104h-131v-59h131v-92h68
v92h128v59h-128v104h155v60h-381v-60zM701 118h250v64h-250v59h-73v-59h-260v59h-73v-59h-245v-64h245v-74h73v74h260v-74h73v74z" />
</svg>
