<?xml version="1.0" standalone="no"?>
<!DOCTYPE svg PUBLIC "-//W3C//DTD SVG 1.1//EN" "http://www.w3.org/Graphics/SVG/1.1/DTD/svg11.dtd" >
<svg xmlns="http://www.w3.org/2000/svg" xmlns:xlink="http://www.w3.org/1999/xlink" version="1.1" viewBox="-10 0 1010 1000">
   <path fill="currentColor"
d="M290 233v-65h-228v-61h228v-63h70v63h274v-63h72v63h234v61h-234v64h-72v-64h-274v65h-70zM536 953l-51 -26c30 -41 56 -111 70 -161l49 21c-16 52 -38 121 -68 166zM729 438v-62h-122v62h122zM729 554v-65h-122v65h122zM729 675v-70h-122v70h122zM145 816h273v-82h-273
v82zM212 453h-67v141c47 -40 63 -90 67 -141zM261 313v86h46v-86h-46zM418 453h-62v89c0 15 2 16 13 16h37c7 0 10 0 12 -1v-104zM307 453h-47c-5 67 -22 131 -82 180c-7 -9 -21 -21 -33 -30v79h273v-77h-4h-50c-44 0 -57 -12 -57 -63v-89zM949 731h-342v21h-62v-323
c-10 13 -19 24 -30 35c-8 -11 -26 -33 -39 -44v523h-58v-68h-273v68h-57v-544h126v-86h-143v-58h425v58h-140v86h120v13c48 -47 88 -113 110 -183l59 15c-9 25 -19 50 -32 75h117c-10 -23 -23 -47 -34 -67l56 -20c17 26 37 62 47 87h140v57h-149v62h122v51h-122v65h123v51
h-123v70h159v56zM630 790l49 -8c13 47 23 108 25 148l-53 9c-1 -40 -10 -101 -21 -149zM726 788l48 -14c22 44 46 103 54 142l-50 17c-8 -39 -30 -100 -52 -145zM831 779l49 -15c32 50 65 119 77 160l-51 19c-12 -42 -44 -112 -75 -164z" />
</svg>
