<?xml version="1.0" standalone="no"?>
<!DOCTYPE svg PUBLIC "-//W3C//DTD SVG 1.1//EN" "http://www.w3.org/Graphics/SVG/1.1/DTD/svg11.dtd" >
<svg xmlns="http://www.w3.org/2000/svg" xmlns:xlink="http://www.w3.org/1999/xlink" version="1.1" viewBox="-10 0 1010 1000">
   <path fill="currentColor"
d="M293 210v-47h-233v-55h233v-64h73v64h264v-64h73v64h237v55h-237v45h-56c12 17 24 35 33 51h257v54h-603v-54h272c-10 -17 -22 -34 -32 -49l56 -21v-26h-264v47h-73zM838 473v-75h-104v75h104zM684 473v-75h-102v75h102zM533 473v-75h-98v75h98zM904 349v172h-532v-172
h532zM666 673h-68v-144h68v144zM348 577l20 -45c62 9 146 30 190 49l-16 41h1l13 48l-205 48l-13 -48l188 -44c-46 -18 -119 -38 -178 -49zM723 613l-23 -37c57 -8 142 -29 191 -43l32 44c-61 19 -141 29 -200 36zM925 674l-21 51c-47 -22 -137 -45 -208 -57l21 -45
c70 10 160 31 208 51zM87 611l-47 -31c31 -46 47 -130 49 -205l54 8c-2 82 -17 173 -56 228zM169 957v-749h69v749h-69zM348 481l-50 27c-9 -37 -32 -98 -52 -144l49 -22c21 45 45 104 53 139zM838 725l50 38c-35 24 -74 46 -109 65c51 32 111 57 174 70
c-14 13 -31 38 -40 53c-124 -35 -238 -110 -302 -208c-26 16 -57 30 -88 43v96l158 -29c0 17 2 40 5 54c-189 38 -217 47 -235 56c-4 -15 -14 -44 -25 -60c15 -5 33 -15 33 -49v-45c-45 15 -90 27 -133 36c-7 -12 -24 -39 -36 -51c122 -22 261 -60 330 -117l57 21
c-6 6 -13 11 -21 17c20 29 46 57 77 81c37 -22 78 -51 105 -71z" />
</svg>
