<?xml version="1.0" standalone="no"?>
<!DOCTYPE svg PUBLIC "-//W3C//DTD SVG 1.1//EN" "http://www.w3.org/Graphics/SVG/1.1/DTD/svg11.dtd" >
<svg xmlns="http://www.w3.org/2000/svg" xmlns:xlink="http://www.w3.org/1999/xlink" version="1.1" viewBox="-10 0 1010 1000">
   <path fill="currentColor"
d="M292 214v-55h-230v-55h230v-60h72v60h267v-60h73v60h236v55h-236v53h-73v-53h-267v55h-72zM936 242v53h-342l30 12c-28 37 -63 76 -94 106v146h-61v-151h-1c31 -30 73 -78 97 -113h-135c24 25 46 56 56 79l-47 26c-12 -28 -38 -68 -65 -94l21 -11h-330v-53h404
c-6 -20 -15 -40 -23 -58l68 -15c14 21 26 51 33 73h389zM319 396h-91c-15 85 -53 145 -141 182c-6 -13 -23 -34 -36 -43c73 -28 104 -75 118 -139h-92v-51h304s0 16 -1 25c-5 109 -11 155 -27 172c-11 13 -25 19 -47 21c-15 1 -48 1 -78 -1c-1 -17 -7 -39 -16 -55
c32 4 58 4 69 4s17 0 22 -7c8 -9 12 -37 16 -108zM627 839v44h319v55h-892v-55h314v-44h-246v-46h246v-44h-237v-46h237v-43h-241v-46h241v-55h72v324h114v-324h71c-7 -15 -21 -36 -30 -48c14 -7 34 -22 34 -57v-93c79 -11 170 -31 220 -50l45 40c-24 9 -51 17 -80 23
c23 69 66 124 135 150c-14 12 -31 33 -40 49c-75 -35 -121 -104 -145 -188c-25 5 -50 9 -75 13v95l110 -13c0 14 2 36 4 48c-139 21 -163 28 -176 35v51h245v46h-245v43h239v46h-239v44h253v46h-253z" />
</svg>
