<?xml version="1.0" standalone="no"?>
<!DOCTYPE svg PUBLIC "-//W3C//DTD SVG 1.1//EN" "http://www.w3.org/Graphics/SVG/1.1/DTD/svg11.dtd" >
<svg xmlns="http://www.w3.org/2000/svg" xmlns:xlink="http://www.w3.org/1999/xlink" version="1.1" viewBox="-10 0 1010 1000">
   <path fill="currentColor"
d="M858 340h-116v70h116v-70zM909 453h-167v50c0 19 4 22 32 22h101c21 0 26 -6 28 -56c12 8 32 16 48 20c-6 68 -22 87 -70 87h-110c-64 0 -82 -15 -82 -72v-206h220v155zM319 178v-44h-239v-47h239v-44h70v44h218v-44h70v44h247v47h-247v44h-70v-44h-218v44h-70zM592 379
v-43h-182v43h182zM592 459v-42h-182v42h182zM592 541v-45h-182v45h182zM352 299h94c7 -15 15 -31 22 -46h-414v-53h893v53h-414c-9 17 -18 32 -27 46h146v267c95 21 221 59 288 86l-29 57c-67 -29 -197 -71 -295 -95l19 -35h-274l22 34c-77 39 -199 74 -280 94l-28 -48
c81 -19 202 -58 277 -89v-271zM329 496l4 48c-94 21 -192 42 -268 58l-19 -53c19 -3 39 -7 61 -11v-216h51v207l55 -10v-245h52v97h64v49h-64v89zM681 728h-317c-4 3 -9 5 -14 7c40 35 94 63 157 85c70 -23 129 -54 174 -92zM744 679l42 29c-47 58 -114 103 -193 139
c107 26 231 41 362 47c-14 16 -30 42 -38 61c-151 -10 -295 -32 -413 -75c-131 44 -285 65 -434 77c-5 -17 -16 -42 -26 -57c129 -7 261 -24 377 -53c-50 -25 -93 -53 -131 -87c-30 12 -64 24 -102 34c-6 -14 -22 -37 -34 -47c143 -34 242 -86 289 -144l64 11
c-19 25 -41 47 -69 68h293z" />
</svg>
