<?xml version="1.0" standalone="no"?>
<!DOCTYPE svg PUBLIC "-//W3C//DTD SVG 1.1//EN" "http://www.w3.org/Graphics/SVG/1.1/DTD/svg11.dtd" >
<svg xmlns="http://www.w3.org/2000/svg" xmlns:xlink="http://www.w3.org/1999/xlink" version="1.1" viewBox="-10 0 1010 1000">
   <path fill="currentColor"
d="M561 487v-52h-117v52h117zM620 390v141h-233v-141h233zM489 821v48h166v-48h-166zM655 690v-49h-166v49h166zM655 779v-46h-166v46h166zM725 435v50h113v-50h-113zM721 821v48h218v48h-450v39h-68v-252c-16 16 -34 31 -51 45c-9 -8 -27 -23 -43 -32
c-7 123 -16 176 -35 197c-15 17 -32 23 -59 26c-22 1 -65 1 -109 -1c-1 -21 -8 -48 -19 -66c42 4 85 4 100 4c16 1 24 -1 31 -9c11 -13 19 -58 25 -170h-196c10 -64 22 -164 28 -242h168v-120h-185v-61h252v242h-178c-4 41 -9 83 -13 120h194s0 20 -1 29l-2 40
c61 -45 118 -109 152 -175l63 15c-9 16 -18 31 -29 47h147c-12 -16 -26 -31 -40 -44l46 -21v-138h232v140h-219c22 20 44 43 57 63h179v48h-195v49h164v43h-164v46h164v42h-164zM503 228h66v55h161v-55h67v55h137v51h-137v42h-67v-42h-161v42h-66v-42h-143v-51h143v-55z
M709 116h232v64h-232v55h-73v-55h-273v63l-73 1v-64h-227v-64h227v-72h73v72h273v-72h73v72z" />
</svg>
