<?xml version="1.0" standalone="no"?>
<!DOCTYPE svg PUBLIC "-//W3C//DTD SVG 1.1//EN" "http://www.w3.org/Graphics/SVG/1.1/DTD/svg11.dtd" >
<svg xmlns="http://www.w3.org/2000/svg" xmlns:xlink="http://www.w3.org/1999/xlink" version="1.1" viewBox="-10 0 1010 1000">
   <path fill="currentColor"
d="M847 379l44 -10c23 40 49 95 60 129l-47 14c-3 -11 -8 -25 -14 -41c-175 21 -201 26 -217 33c-2 -12 -10 -37 -16 -51c17 -2 36 -14 58 -33c12 -11 42 -38 73 -71c-82 8 -100 12 -112 17c-3 -12 -11 -38 -16 -50c12 -2 23 -9 37 -22c13 -12 59 -63 85 -115l51 19
c-26 41 -58 81 -88 111l84 -6c15 -17 29 -35 41 -53l50 23c-52 63 -107 124 -163 170l115 -11c-8 -18 -17 -37 -25 -53zM860 520l42 -10c18 36 35 83 41 113l-44 15c-6 -31 -23 -80 -39 -118zM839 655l-49 10c0 -36 -9 -92 -22 -134l46 -8c13 42 24 96 25 132zM689 520
l50 11c-8 52 -22 110 -39 149c-10 -7 -32 -19 -44 -25c16 -38 27 -87 33 -135zM298 217v-54h-245v-58h245v-61h72v61h255v-61h73v61h249v58h-249v55h-73v-55h-255v54h-72zM629 418v40h-260v-40h260zM426 543v60h146v-60h-146zM629 645h-259v-143h259v143zM629 335v39h-260
v-39h260zM653 245v46h-303v-46h127c-7 -18 -16 -35 -26 -50l56 -17c13 21 27 45 36 67h110zM251 385l43 -10c23 40 46 93 55 126l-43 14c17 35 34 82 40 114l-45 13c-5 -32 -21 -80 -37 -116l40 -10c-3 -12 -7 -25 -12 -38c-174 19 -200 25 -214 32c-3 -12 -10 -38 -16 -52
c16 -2 35 -15 57 -34c13 -10 41 -36 71 -68c-81 8 -99 12 -110 17c-3 -13 -11 -39 -17 -52c12 -2 23 -10 36 -22c14 -12 60 -63 86 -113l53 17c-26 42 -58 82 -88 112l83 -6c16 -18 32 -37 45 -57l52 22c-55 65 -111 127 -168 175l113 -12c-7 -18 -15 -36 -24 -52zM240 659
l-48 9c-2 -36 -10 -89 -20 -132l45 -6c11 42 21 95 23 129zM95 528l49 10c-10 50 -26 107 -43 146c-11 -7 -32 -19 -44 -26c17 -37 30 -85 38 -130zM942 759h-331c92 59 229 106 351 127c-14 14 -33 40 -43 56c-133 -29 -286 -93 -383 -169v183h-73v-174
c-94 66 -222 120 -386 161c-8 -16 -26 -40 -41 -52c155 -32 277 -80 356 -132h-333v-54h404v-41h73v41h406v54z" />
</svg>
