<?xml version="1.0" standalone="no"?>
<!DOCTYPE svg PUBLIC "-//W3C//DTD SVG 1.1//EN" "http://www.w3.org/Graphics/SVG/1.1/DTD/svg11.dtd" >
<svg xmlns="http://www.w3.org/2000/svg" xmlns:xlink="http://www.w3.org/1999/xlink" version="1.1" viewBox="-10 0 1010 1000">
   <path fill="currentColor"
d="M203 320v168c0 135 -14 329 -99 461c-14 -12 -45 -32 -62 -39c81 -123 89 -297 89 -423v-232h321v-209h73v74h340v62h-340v73h346l10 -3l55 17c-18 55 -41 116 -61 155l-64 -23c10 -22 21 -51 29 -81h-319v86l256 -24l6 54l-262 25v36c0 27 11 32 72 32h213
c44 0 51 -10 56 -74c16 10 43 18 63 22c-9 89 -31 112 -112 112h-224c-109 0 -137 -19 -137 -91v-31l-197 19l-7 -55l204 -19v-92h-249zM502 651l44 -38c52 34 118 84 149 119l-46 42c-30 -35 -95 -88 -147 -123zM258 898l-57 -31c44 -47 82 -124 103 -184l56 23
c-24 62 -58 142 -102 192zM535 875h156c34 0 41 -10 44 -86c16 11 42 20 61 24c-8 97 -28 121 -98 121h-169c-91 0 -114 -18 -114 -85v-157h68v156c0 23 8 27 52 27zM760 696l59 -28c55 59 116 139 141 195l-62 32c-24 -55 -82 -139 -138 -199z" />
</svg>
