<?xml version="1.0" standalone="no"?>
<!DOCTYPE svg PUBLIC "-//W3C//DTD SVG 1.1//EN" "http://www.w3.org/Graphics/SVG/1.1/DTD/svg11.dtd" >
<svg xmlns="http://www.w3.org/2000/svg" xmlns:xlink="http://www.w3.org/1999/xlink" version="1.1" viewBox="-10 0 1010 1000">
   <path fill="currentColor"
d="M669 586v285h258v65h-742v-65h232v-285h68v285h114v-285h70zM239 652l60 -22c34 55 70 128 82 175l-64 25c-12 -47 -45 -123 -78 -178zM797 624l72 24c-38 62 -84 135 -120 181l-53 -22c34 -50 77 -128 101 -183zM594 496h219c43 0 50 -10 54 -68c16 10 44 19 62 23
c-9 81 -30 102 -110 102h-228c-110 0 -139 -17 -139 -89v-25l-193 17l-6 -53l199 -18v-76h-248v176c0 138 -13 337 -95 470c-14 -11 -46 -32 -64 -39c80 -126 87 -304 87 -431v-237h320v-204h73v76h341v61h-341v67h340l13 -4l55 16c-17 53 -38 113 -58 152l-65 -21
c10 -22 20 -52 29 -82h-317v70l240 -21l5 52l-245 22v32c0 26 10 32 72 32z" />
</svg>
