<?xml version="1.0" standalone="no"?>
<!DOCTYPE svg PUBLIC "-//W3C//DTD SVG 1.1//EN" "http://www.w3.org/Graphics/SVG/1.1/DTD/svg11.dtd" >
<svg xmlns="http://www.w3.org/2000/svg" xmlns:xlink="http://www.w3.org/1999/xlink" version="1.1" viewBox="-10 0 1010 1000">
   <path fill="currentColor"
d="M197 780v-58h244v-200h64v200h108v-200h64v200h264v58h-744zM257 574l54 -22c29 37 62 87 75 120l-56 25c-13 -34 -44 -86 -73 -123zM803 551l67 22c-33 45 -72 95 -103 127l-48 -19c28 -35 65 -92 84 -130zM197 286v189c0 138 -14 339 -96 474c-13 -13 -44 -34 -60 -42
c77 -127 85 -304 85 -433v-245h326v-188h74v69h337v57h-337v62h340l13 -4l52 16c-18 45 -40 95 -61 127l-62 -21c10 -17 21 -38 29 -61h-317v62l259 -14l2 46l-261 15v18c0 26 11 31 69 31h216c39 0 47 -8 51 -53c15 9 40 16 59 20c-8 69 -29 86 -102 86h-227
c-105 0 -134 -15 -134 -84v-14l-195 12l-3 -49l198 -11v-65h-255zM446 792l61 23c-68 53 -175 104 -262 135c-11 -11 -34 -35 -49 -47c89 -26 189 -67 250 -111zM631 832l42 -36c100 33 207 79 271 118l-56 37c-59 -38 -159 -85 -257 -119z" />
</svg>
