<?xml version="1.0" standalone="no"?>
<!DOCTYPE svg PUBLIC "-//W3C//DTD SVG 1.1//EN" "http://www.w3.org/Graphics/SVG/1.1/DTD/svg11.dtd" >
<svg xmlns="http://www.w3.org/2000/svg" xmlns:xlink="http://www.w3.org/1999/xlink" version="1.1" viewBox="-10 0 1010 1000">
   <path fill="currentColor"
d="M385 121l-37 40c-21 -20 -61 -52 -91 -74l37 -36c29 21 71 50 91 70zM71 266l-8 -59l101 -12c-11 -44 -18 -91 -21 -141h59c2 48 9 93 20 135l202 -25l7 57l-193 24c10 28 22 52 35 74c37 -24 69 -50 93 -80l55 19c-31 39 -72 75 -118 104c26 30 52 47 76 47
c19 -1 25 -23 28 -77c14 11 31 21 47 27c-10 85 -30 109 -78 109c-44 0 -87 -28 -124 -76c-47 26 -97 47 -145 64c-8 -13 -27 -38 -38 -49c51 -16 104 -35 152 -60c-15 -28 -29 -60 -41 -95zM373 535l-35 35c-21 -19 -62 -50 -95 -72l35 -31c31 20 73 49 95 68zM366 651
l56 19c-32 51 -75 97 -125 137c22 32 42 50 56 50c17 0 23 -33 26 -98c13 14 32 25 47 30c-9 101 -30 131 -76 131c-31 0 -67 -29 -100 -77c-49 34 -101 62 -152 86c-8 -14 -27 -40 -39 -52c56 -22 112 -50 161 -84c-19 -37 -36 -80 -49 -128l-105 16l-8 -58l99 -15
c-8 -39 -14 -80 -17 -123h62c2 40 8 78 15 114l211 -30l7 57l-205 30c12 38 25 72 39 101c39 -32 72 -68 97 -106zM549 301v257c0 123 -13 287 -76 401c-14 -8 -40 -17 -57 -22c62 -109 73 -269 73 -379v-315h164v-199h69v72h186v58h-186v69h172l12 -3l44 12
c-9 49 -24 107 -39 141l-56 -13c8 -21 15 -51 22 -79h-328zM845 571h-104c-69 0 -85 -16 -85 -75v-42l-89 10l-6 -50l95 -10v-76h62v69l127 -13l7 50l-134 14v48c0 21 5 25 31 25h89c19 0 24 -9 26 -62c13 9 36 17 54 21c-7 72 -25 91 -73 91zM849 876h24c8 0 16 -1 19 -3
c4 -3 8 -9 10 -17c2 -10 4 -38 4 -70c12 11 31 21 47 27c-1 34 -5 72 -9 86c-5 13 -14 22 -25 29c-9 5 -26 8 -40 8h-43c-18 0 -37 -4 -49 -15c-12 -12 -15 -24 -15 -66v-173h-97c-6 133 -28 220 -110 274c-8 -13 -25 -35 -38 -45c78 -52 90 -138 92 -287h210v233
c0 6 1 11 5 14c3 3 9 5 15 5z" />
</svg>
