<?xml version="1.0" standalone="no"?>
<!DOCTYPE svg PUBLIC "-//W3C//DTD SVG 1.1//EN" "http://www.w3.org/Graphics/SVG/1.1/DTD/svg11.dtd" >
<svg xmlns="http://www.w3.org/2000/svg" xmlns:xlink="http://www.w3.org/1999/xlink" version="1.1" viewBox="-10 0 1010 1000">
   <path fill="currentColor"
d="M455 262l-58 23c-11 -43 -41 -112 -71 -163l55 -18c30 50 62 117 74 158zM128 106l60 14c-21 68 -57 140 -92 187c-11 -10 -37 -26 -52 -33c35 -44 65 -108 84 -168zM127 658l59 13c-22 75 -60 153 -100 203c-11 -9 -37 -26 -52 -33c41 -49 73 -116 93 -183zM163 484v76
h190v-76h-190zM163 359v73h190v-73h-190zM419 615h-131v269c0 32 -5 48 -28 58c-21 10 -53 11 -101 11c-2 -18 -12 -41 -20 -59c34 1 64 1 73 1c10 -1 13 -4 13 -13v-267h-125v-311h125v-260h63v260h131v311zM327 674l52 -17c28 49 59 116 68 157l-54 20
c-10 -42 -38 -109 -66 -160zM551 305v269c0 122 -11 281 -90 384c-11 -12 -39 -32 -54 -39c73 -96 80 -234 80 -345v-327h173v-203h68v80h179v58h-179v65h167l10 -3l39 12c-10 50 -26 109 -42 144l-50 -13l6 46l-134 13v49c0 20 5 24 31 24h91c19 0 24 -7 26 -54
c13 9 37 17 54 21c-6 66 -24 85 -72 85h-107c-69 0 -86 -16 -86 -76v-43l-83 8l-7 -51l90 -8v-86h63v80l128 -12v3c8 -21 16 -51 23 -81h-324zM854 895h33c15 0 18 -17 20 -118c13 9 37 19 54 23c-5 117 -19 148 -66 148h-52c-54 0 -67 -18 -67 -77v-197h-81
c-5 162 -30 238 -143 286c-6 -14 -23 -38 -36 -49c108 -44 119 -114 120 -295h203v255c0 21 2 24 15 24z" />
</svg>
