<?xml version="1.0" standalone="no"?>
<!DOCTYPE svg PUBLIC "-//W3C//DTD SVG 1.1//EN" "http://www.w3.org/Graphics/SVG/1.1/DTD/svg11.dtd" >
<svg xmlns="http://www.w3.org/2000/svg" xmlns:xlink="http://www.w3.org/1999/xlink" version="1.1" viewBox="-10 0 1010 1000">
   <path fill="currentColor"
d="M138 287v236h83v-236h-83zM355 523v-236h-80v236h80zM437 867l-56 18c-2 -19 -6 -40 -11 -62c-111 23 -224 47 -312 65l-12 -72c46 -8 105 -18 169 -30v-200h-77v47h-61v-409h137v-176h67v176h136v362h-136v188l73 -14c-11 -39 -24 -78 -37 -112l51 -16
c32 74 60 171 69 235zM844 869h26c8 0 16 -2 20 -7c5 -4 8 -15 10 -35c2 -22 3 -72 3 -134c16 13 39 26 60 33c-1 53 -5 120 -9 145c-4 27 -13 43 -26 54c-14 9 -33 14 -53 14h-49c-20 0 -41 -7 -57 -20c-15 -15 -20 -32 -20 -117v-651h-166v348c0 146 -14 341 -109 463
c-13 -14 -44 -36 -62 -45c90 -114 98 -282 98 -418v-419h312v729c0 32 1 50 6 55c4 3 10 5 16 5z" />
</svg>
