<?xml version="1.0" standalone="no"?>
<!DOCTYPE svg PUBLIC "-//W3C//DTD SVG 1.1//EN" "http://www.w3.org/Graphics/SVG/1.1/DTD/svg11.dtd" >
<svg xmlns="http://www.w3.org/2000/svg" xmlns:xlink="http://www.w3.org/1999/xlink" version="1.1" viewBox="-10 0 1010 1000">
   <path fill="currentColor"
d="M129 285v247h82v-247h-82zM344 532v-247h-86v247h86zM335 666l50 -17c27 78 52 177 63 244l-54 20c-4 -29 -11 -63 -19 -100c-114 30 -232 59 -318 80l-9 -69c43 -9 99 -21 159 -35v-194h-78v53h-55v-426h133v-173h56v173h136v373h-137v182l99 -22
c-8 -32 -17 -62 -26 -89zM749 635l-56 47c-36 -61 -118 -153 -192 -216l52 -43c73 62 159 150 196 212zM925 228v38c-14 448 -26 598 -64 646c-22 28 -43 36 -79 40c-32 3 -89 2 -145 -1c-1 -21 -10 -51 -23 -71c62 5 119 5 143 5c19 1 29 -2 39 -15c31 -33 45 -182 56 -573
h-296c-26 55 -53 105 -82 145c-14 -11 -46 -31 -63 -41c69 -87 123 -222 156 -357l72 13c-14 59 -33 117 -55 171h341z" />
</svg>
