<?xml version="1.0" standalone="no"?>
<!DOCTYPE svg PUBLIC "-//W3C//DTD SVG 1.1//EN" "http://www.w3.org/Graphics/SVG/1.1/DTD/svg11.dtd" >
<svg xmlns="http://www.w3.org/2000/svg" xmlns:xlink="http://www.w3.org/1999/xlink" version="1.1" viewBox="-10 0 1010 1000">
   <path fill="currentColor"
d="M219 637h240v-139h-240v139zM781 498h-244v139h244v-139zM254 146v121h485v-121h-485zM946 928l-68 32c-14 -20 -33 -42 -54 -65c-278 13 -576 25 -761 33l-5 -72c104 -3 246 -8 401 -14v-139h-240v51h-79v-323h319v-100h-280v-249h639v249h-281v100h323v272h-323v136
l221 -9c-30 -26 -62 -52 -93 -73l66 -29c79 56 172 138 215 200z" />
</svg>
