<?xml version="1.0" standalone="no"?>
<!DOCTYPE svg PUBLIC "-//W3C//DTD SVG 1.1//EN" "http://www.w3.org/Graphics/SVG/1.1/DTD/svg11.dtd" >
<svg xmlns="http://www.w3.org/2000/svg" xmlns:xlink="http://www.w3.org/1999/xlink" version="1.1" viewBox="-10 0 1010 1000">
   <path fill="currentColor"
d="M136 285v247h64v-247h-64zM319 532v-247h-70v247h70zM939 176h-389v273c0 151 -13 365 -101 506c-11 -13 -40 -34 -56 -42c4 -5 7 -11 10 -17l-45 17c-4 -25 -10 -55 -16 -86c-101 25 -204 48 -281 66l-8 -69c39 -7 89 -17 143 -29v-200h-60v53h-57v-426h117v-174h57v174
h122v373h-122v188l74 -16c-9 -35 -19 -70 -29 -101l52 -17c25 74 49 167 60 234c66 -130 72 -303 72 -434v-341h457v68zM731 881h124c34 0 40 -26 44 -150c16 13 42 24 61 29c-7 142 -26 184 -101 184h-137c-77 0 -101 -22 -101 -108v-549h290v300c0 34 -6 53 -29 65
c-24 11 -61 12 -115 12c-2 -20 -11 -46 -19 -65c40 1 71 1 81 1c11 -1 14 -4 14 -14v-233h-155v483c0 37 7 45 43 45z" />
</svg>
