<?xml version="1.0" standalone="no"?>
<!DOCTYPE svg PUBLIC "-//W3C//DTD SVG 1.1//EN" "http://www.w3.org/Graphics/SVG/1.1/DTD/svg11.dtd" >
<svg xmlns="http://www.w3.org/2000/svg" xmlns:xlink="http://www.w3.org/1999/xlink" version="1.1" viewBox="-10 0 1010 1000">
   <path fill="currentColor"
d="M673 192h-349c48 43 110 80 180 112c67 -32 124 -69 169 -112zM927 192h-164c-46 56 -106 104 -178 143c109 39 235 63 367 76c-15 17 -34 46 -42 66c-147 -18 -286 -51 -406 -102c-120 52 -263 86 -419 108c-7 -20 -21 -48 -35 -64c138 -17 265 -43 374 -83
c-75 -40 -138 -87 -188 -144h-161v-61h392c-11 -25 -26 -54 -39 -77l71 -21c19 29 40 68 53 98h375v61zM229 681h232v-110h-232v110zM772 571h-238v110h238v-110zM660 779l59 -33c84 46 183 120 233 171l-61 39c-16 -17 -37 -36 -61 -57c-274 11 -563 21 -747 26l-5 -68
c100 -2 235 -5 383 -9v-109h-300v-227h300v-71h73v71h310v227h-310v106l217 -7c-31 -21 -62 -42 -91 -59z" />
</svg>
