<?xml version="1.0" standalone="no"?>
<!DOCTYPE svg PUBLIC "-//W3C//DTD SVG 1.1//EN" "http://www.w3.org/Graphics/SVG/1.1/DTD/svg11.dtd" >
<svg xmlns="http://www.w3.org/2000/svg" xmlns:xlink="http://www.w3.org/1999/xlink" version="1.1" viewBox="-10 0 1010 1000">
   <path fill="currentColor"
d="M139 287v236h80v-236h-80zM348 523v-236h-74v236h74zM311 654l56 -20c39 75 73 174 86 240l-61 21c-4 -22 -10 -47 -17 -75c-114 25 -229 48 -317 68l-12 -72c46 -8 104 -18 167 -31v-199h-74v47h-62v-409h134v-176h68v176h131v362h-131v186l76 -14
c-14 -36 -28 -72 -44 -104zM728 876h122c31 0 36 -27 40 -142c17 14 44 25 65 30c-8 135 -27 179 -101 179h-134c-80 0 -102 -25 -102 -116v-175l-167 31l-11 -66l178 -33v-158l-147 28l-13 -65l160 -31v-163c-53 13 -107 26 -158 38c-5 -16 -16 -42 -25 -57
c140 -32 300 -80 388 -127l62 53c-55 27 -123 50 -197 73v170l219 -42l12 64l-231 45v159l259 -48l12 65l-271 51v189c0 40 6 48 40 48z" />
</svg>
