<?xml version="1.0" standalone="no"?>
<!DOCTYPE svg PUBLIC "-//W3C//DTD SVG 1.1//EN" "http://www.w3.org/Graphics/SVG/1.1/DTD/svg11.dtd" >
<svg xmlns="http://www.w3.org/2000/svg" xmlns:xlink="http://www.w3.org/1999/xlink" version="1.1" viewBox="-10 0 1010 1000">
   <path fill="currentColor"
d="M533 773v83c79 -1 162 -3 243 -5c-19 -19 -38 -37 -57 -53l41 -25h-227zM228 716h232v-90h-232v90zM773 626h-240v90h240v-90zM846 773h-65c53 45 115 108 145 148l-55 37c-10 -14 -24 -29 -39 -46c-268 7 -554 14 -739 18l-6 -68c99 -1 230 -2 373 -5v-84h-302v-204h302
v-72h73v72h313v204zM575 67l61 -27c70 94 206 193 321 241c-17 13 -40 41 -52 57c-40 -18 -82 -44 -123 -73l-1 14c-12 135 -23 191 -46 214c-16 16 -34 22 -60 24c-25 2 -72 2 -120 -1c-1 -20 -9 -45 -20 -63c47 5 92 5 108 5c17 0 26 -1 33 -8c12 -13 22 -50 31 -136h-229
c-37 106 -119 174 -316 213c-5 -17 -23 -46 -37 -60c172 -28 245 -78 279 -153h-173v-54c-43 30 -88 57 -134 78c-12 -14 -39 -42 -55 -55c119 -48 232 -127 289 -228l73 22c-38 66 -94 124 -158 172h515c-71 -54 -139 -119 -186 -182z" />
</svg>
