<?xml version="1.0" standalone="no"?>
<!DOCTYPE svg PUBLIC "-//W3C//DTD SVG 1.1//EN" "http://www.w3.org/Graphics/SVG/1.1/DTD/svg11.dtd" >
<svg xmlns="http://www.w3.org/2000/svg" xmlns:xlink="http://www.w3.org/1999/xlink" version="1.1" viewBox="-10 0 1010 1000">
   <path fill="currentColor"
d="M920 262l-55 27c-22 -44 -70 -113 -112 -163l52 -22c42 48 92 116 115 158zM132 284v248h70v-248h-70zM316 532v-248h-64v248h64zM297 643l55 -15c29 81 58 184 70 252l-58 17c-4 -24 -10 -51 -17 -81c-106 21 -211 42 -295 58l-12 -69c43 -7 97 -16 155 -26v-184h-63v52
h-56v-425h121v-172h63v172h113v373h-115v172l74 -12c-11 -38 -23 -78 -35 -112zM534 46l67 14c-16 69 -35 138 -57 204v692h-65v-532c-18 37 -36 70 -55 99c-7 -15 -29 -50 -42 -64c68 -104 121 -260 152 -413zM943 405l-200 21c17 260 55 435 122 440c20 1 33 -61 40 -165
c12 13 43 30 56 34c-20 174 -57 219 -96 218c-121 -5 -167 -207 -188 -520l-101 11l-8 -69l105 -11c-5 -95 -8 -201 -10 -314h69c0 110 3 214 7 307l196 -19z" />
</svg>
