<?xml version="1.0" standalone="no"?>
<!DOCTYPE svg PUBLIC "-//W3C//DTD SVG 1.1//EN" "http://www.w3.org/Graphics/SVG/1.1/DTD/svg11.dtd" >
<svg xmlns="http://www.w3.org/2000/svg" xmlns:xlink="http://www.w3.org/1999/xlink" version="1.1" viewBox="-10 0 1010 1000">
   <path fill="currentColor"
d="M130 287v236h77v-236h-77zM336 523v-236h-77v236h77zM312 658l51 -19c36 79 67 180 78 248l-55 19c-3 -23 -10 -51 -17 -80c-112 22 -227 46 -314 62l-10 -71c43 -7 98 -17 157 -28v-203h-72v47h-54v-409h127v-176h61v176h127v362h-127v193l87 -16
c-12 -36 -26 -73 -39 -105zM705 464h-141v188h141v-188zM767 715h-203v60h-62v-374h265v314zM931 205v38c-12 473 -23 625 -56 672c-20 27 -39 36 -69 40c-27 3 -72 2 -116 0c-1 -21 -9 -52 -22 -72c48 4 91 4 111 4c15 0 24 -3 33 -17c26 -32 39 -185 50 -597h-303
c-29 64 -64 121 -100 167c-13 -11 -43 -35 -60 -46c74 -84 131 -215 164 -351l71 17c-13 50 -29 98 -46 145h343z" />
</svg>
