<?xml version="1.0" standalone="no"?>
<!DOCTYPE svg PUBLIC "-//W3C//DTD SVG 1.1//EN" "http://www.w3.org/Graphics/SVG/1.1/DTD/svg11.dtd" >
<svg xmlns="http://www.w3.org/2000/svg" xmlns:xlink="http://www.w3.org/1999/xlink" version="1.1" viewBox="-10 0 1010 1000">
   <path fill="currentColor"
d="M136 287v236h81v-236h-81zM347 523v-236h-77v236h77zM884 44l56 55c-30 9 -64 18 -100 27c14 309 45 614 125 768c-16 13 -42 39 -54 60c-85 -176 -113 -486 -129 -816c-30 7 -62 12 -94 17v215c0 132 -2 310 -64 459l131 -34c-16 -50 -33 -100 -50 -144l51 -18
c37 89 74 205 89 282l-54 21c-5 -25 -11 -52 -20 -82c-155 46 -179 56 -194 68c-9 -16 -33 -47 -47 -58c94 -141 95 -341 95 -495v-204c-31 4 -63 8 -93 12v141c0 174 -12 446 -89 635c-12 -12 -39 -31 -55 -38c12 -28 23 -60 32 -91l-56 20c-3 -16 -7 -34 -12 -53
c-105 34 -211 67 -294 94l-15 -69c46 -11 105 -28 169 -48v-182h-76v47h-60v-409h135v-176h67v176h130v362h-133v164l59 -19c-10 -31 -22 -63 -35 -90l52 -18c31 64 59 146 69 201c45 -167 50 -367 50 -506v-196c147 -17 319 -46 414 -78z" />
</svg>
