<?xml version="1.0" standalone="no"?>
<!DOCTYPE svg PUBLIC "-//W3C//DTD SVG 1.1//EN" "http://www.w3.org/Graphics/SVG/1.1/DTD/svg11.dtd" >
<svg xmlns="http://www.w3.org/2000/svg" xmlns:xlink="http://www.w3.org/1999/xlink" version="1.1" viewBox="-10 0 1010 1000">
   <path fill="currentColor"
d="M939 338l-64 34c-10 -20 -23 -44 -38 -72c-303 24 -340 29 -365 38c-3 -15 -15 -50 -23 -70c16 -3 33 -19 53 -41s87 -107 129 -190l76 24c-44 71 -96 141 -146 197l239 -17c-25 -39 -52 -78 -76 -112l60 -28c56 76 123 176 155 237zM130 272v232h78v-232h-78zM335 504
v-232h-74v232h74zM304 627l52 -14c28 79 54 182 64 249l-56 16c-3 -22 -8 -50 -14 -79c-107 24 -215 49 -298 67l-12 -69c45 -8 102 -20 163 -32v-198h-73v47h-55v-404h128v-161h63v161h125v357h-125v185l69 -15c-10 -38 -20 -77 -31 -110zM946 674v68h-223v215h-73v-215
h-242v-68h242v-136h-115c-18 43 -38 83 -58 114c-14 -9 -45 -25 -63 -32c46 -65 83 -165 107 -258l68 14c-8 33 -18 65 -29 96h90v-126h73v126h184v66h-184v136h223z" />
</svg>
