<?xml version="1.0" standalone="no"?>
<!DOCTYPE svg PUBLIC "-//W3C//DTD SVG 1.1//EN" "http://www.w3.org/Graphics/SVG/1.1/DTD/svg11.dtd" >
<svg xmlns="http://www.w3.org/2000/svg" xmlns:xlink="http://www.w3.org/1999/xlink" version="1.1" viewBox="-10 0 1010 1000">
   <path fill="currentColor"
d="M935 185v69h-488v-69h233c-14 -32 -42 -82 -65 -119l62 -28c27 37 56 88 70 120l-56 27h244zM761 310l55 -32c53 67 116 157 146 214l-58 37c-28 -58 -90 -151 -143 -219zM573 280l65 22c-40 83 -101 175 -154 235c-9 -13 -34 -41 -48 -55c52 -52 103 -129 137 -202z
M138 287v236h82v-236h-82zM354 523v-236h-77v236h77zM457 855l-59 22c-4 -18 -9 -39 -16 -61l-324 71l-13 -71c46 -8 105 -18 169 -31v-199h-76v47h-60v-409h137v-176h67v176h133v362h-133v185l78 -15c-14 -37 -29 -72 -46 -103l56 -21c39 71 74 162 87 223zM782 463l67 16
c-24 94 -60 178 -110 250c60 72 135 127 219 162c-16 14 -38 42 -49 62c-82 -38 -154 -96 -214 -166c-59 68 -131 125 -218 170c-10 -14 -32 -40 -48 -52c90 -45 165 -102 222 -174c-51 -72 -92 -157 -121 -248l64 -18c24 74 57 145 101 206c39 -61 68 -131 87 -208z" />
</svg>
