<?xml version="1.0" standalone="no"?>
<!DOCTYPE svg PUBLIC "-//W3C//DTD SVG 1.1//EN" "http://www.w3.org/Graphics/SVG/1.1/DTD/svg11.dtd" >
<svg xmlns="http://www.w3.org/2000/svg" xmlns:xlink="http://www.w3.org/1999/xlink" version="1.1" viewBox="-10 0 1010 1000">
   <path fill="currentColor"
d="M130 290v238h75v-238h-75zM337 528v-238h-79v238h79zM313 660l54 -14c32 77 59 178 66 244l-58 16c-2 -20 -5 -42 -10 -66c-112 18 -225 37 -312 51l-12 -70c44 -6 99 -13 159 -21v-209h-70v46h-56v-409h127v-173h63v173h130v363h-131v200c29 -4 58 -8 88 -13
c-11 -40 -24 -82 -38 -118zM650 246v140h18c42 -44 81 -91 116 -140h-134zM958 453h-261c-31 31 -62 60 -95 88v120c89 -36 180 -80 235 -119l58 50c-80 47 -192 94 -293 130v117c0 30 9 36 57 36h165c43 0 49 -17 53 -125c17 12 47 24 68 28c-10 132 -31 166 -116 166h-176
c-97 0 -123 -23 -123 -105v-241c-36 26 -72 50 -109 72c-10 -16 -36 -44 -50 -58c81 -43 158 -96 228 -159h-192v-67h173v-140h-147v-66h147v-133h70v133h142v54c30 -43 56 -88 80 -134l66 22c-50 96 -110 184 -179 264h199v67z" />
</svg>
