<?xml version="1.0" standalone="no"?>
<!DOCTYPE svg PUBLIC "-//W3C//DTD SVG 1.1//EN" "http://www.w3.org/Graphics/SVG/1.1/DTD/svg11.dtd" >
<svg xmlns="http://www.w3.org/2000/svg" xmlns:xlink="http://www.w3.org/1999/xlink" version="1.1" viewBox="-10 0 1010 1000">
   <path fill="currentColor"
d="M885 49l56 57c-134 32 -330 55 -497 66c-2 -16 -11 -42 -19 -58c161 -14 353 -37 460 -65zM865 172l65 15c-19 75 -48 160 -77 215c-13 -10 -42 -23 -60 -30c32 -53 57 -130 72 -200zM743 364l-62 19c-5 -48 -26 -127 -48 -186l57 -14c25 58 47 134 53 181zM593 385
l-62 29c-14 -49 -50 -127 -86 -185l59 -24c37 56 75 132 89 180zM138 287v236h81v-236h-81zM352 523v-236h-78v236h78zM322 658l56 -19c39 78 73 179 85 247l-61 19c-3 -20 -8 -43 -15 -67c-116 18 -235 36 -325 50l-11 -72c45 -5 101 -12 162 -21v-209h-75v47h-60v-409h135
v-176h67v176h132v362h-133v200l89 -13c-14 -40 -30 -80 -46 -115zM466 645l60 -31c50 52 102 125 123 175l-63 34c-20 -50 -71 -124 -120 -178zM956 513v68h-131v289c0 41 -8 62 -36 74s-74 14 -145 14c-3 -22 -13 -52 -23 -72c54 2 102 1 115 0c15 0 19 -4 19 -17v-288
h-316v-68h316v-106h70v106h131z" />
</svg>
