<?xml version="1.0" standalone="no"?>
<!DOCTYPE svg PUBLIC "-//W3C//DTD SVG 1.1//EN" "http://www.w3.org/Graphics/SVG/1.1/DTD/svg11.dtd" >
<svg xmlns="http://www.w3.org/2000/svg" xmlns:xlink="http://www.w3.org/1999/xlink" version="1.1" viewBox="-10 0 1010 1000">
   <path fill="currentColor"
d="M249 669h157v-86h-157v86zM637 583h-162v86h162v-86zM191 145v113h156v-113h-156zM416 145v113h163v-113h-163zM647 145v113h166v-113h-166zM894 391v35c-13 344 -26 457 -55 495c-17 22 -37 30 -64 33c-26 2 -69 2 -114 -1c-1 -18 -8 -45 -18 -62l33 2
c-6 -10 -12 -21 -20 -31c-188 16 -385 30 -524 40l-8 -67c75 -3 174 -9 282 -15v-98h-157v36h-66v-229h223v-69h69v69h231v193h-231v93l140 -7c-14 -17 -29 -33 -43 -48l47 -32c45 41 93 99 114 139l-38 27c21 1 37 1 46 1c16 0 25 -3 33 -14c21 -26 34 -132 45 -423h-589
c-40 38 -83 73 -125 99c-11 -14 -36 -42 -52 -55c79 -44 160 -111 211 -182h-145v-237h768v237h-572l27 10c-14 20 -31 41 -47 61h599z" />
</svg>
