<?xml version="1.0" standalone="no"?>
<!DOCTYPE svg PUBLIC "-//W3C//DTD SVG 1.1//EN" "http://www.w3.org/Graphics/SVG/1.1/DTD/svg11.dtd" >
<svg xmlns="http://www.w3.org/2000/svg" xmlns:xlink="http://www.w3.org/1999/xlink" version="1.1" viewBox="-10 0 1010 1000">
   <path fill="currentColor"
d="M135 287v236h79v-236h-79zM338 523v-236h-71v236h71zM433 852l-58 20c-3 -18 -7 -38 -12 -61c-110 28 -221 55 -307 77l-13 -72c45 -9 103 -21 165 -36v-194h-73v47h-59v-409h133v-176h67v176h123v362h-126v179l70 -16c-13 -38 -27 -76 -43 -108l54 -18
c36 73 70 168 79 229zM728 652v209c27 7 57 9 88 9c20 0 127 0 154 -1c-10 17 -20 49 -22 68h-136c-124 0 -216 -31 -276 -166c-18 74 -47 136 -93 183c-9 -16 -31 -39 -47 -49c83 -84 100 -237 105 -397h66c-2 52 -6 104 -11 152c23 89 58 142 103 172v-419h-172v-59
c-7 10 -14 19 -22 27c-13 -11 -42 -36 -60 -47c67 -69 117 -179 144 -291l73 13c-10 40 -23 79 -36 116h367v68h-397c-20 39 -40 76 -64 107h398l10 -3l48 16c-24 62 -51 131 -77 175l-57 -21c14 -27 30 -64 44 -101h-130v175h189v64h-189z" />
</svg>
