<?xml version="1.0" standalone="no"?>
<!DOCTYPE svg PUBLIC "-//W3C//DTD SVG 1.1//EN" "http://www.w3.org/Graphics/SVG/1.1/DTD/svg11.dtd" >
<svg xmlns="http://www.w3.org/2000/svg" xmlns:xlink="http://www.w3.org/1999/xlink" version="1.1" viewBox="-10 0 1010 1000">
   <path fill="currentColor"
d="M760 706v-536c-46 11 -95 20 -139 28c-3 -16 -14 -41 -22 -58c104 -20 223 -52 290 -88l50 59c-33 15 -72 29 -114 41v229h114v69h-114v256h123v66h-320v-458h58v392h74zM127 285v247h61v-247h-61zM295 532v-247h-62v247h62zM550 380l37 7c-9 145 -29 263 -61 356
c75 96 177 117 288 117c26 0 123 0 155 -1c-10 17 -21 48 -23 67h-137c-123 0 -230 -23 -310 -114c-27 53 -58 97 -96 131c-8 -15 -26 -39 -40 -50l5 -5l-47 9c-2 -19 -5 -42 -9 -66c-93 21 -183 42 -257 60l-11 -66c38 -8 86 -17 138 -28v-202h-55v53h-54v-426h107v-174h59
v174h112v373h-112v190l62 -13c-7 -36 -16 -74 -25 -107l50 -9c22 72 42 163 49 227c32 -32 60 -74 82 -129c-30 -52 -57 -119 -76 -204l57 -20c12 57 28 104 46 145c19 -67 33 -144 39 -231h-144c34 -75 79 -186 113 -285h-115v-68h204c-33 92 -76 206 -112 291h70z" />
</svg>
