<?xml version="1.0" standalone="no"?>
<!DOCTYPE svg PUBLIC "-//W3C//DTD SVG 1.1//EN" "http://www.w3.org/Graphics/SVG/1.1/DTD/svg11.dtd" >
<svg xmlns="http://www.w3.org/2000/svg" xmlns:xlink="http://www.w3.org/1999/xlink" version="1.1" viewBox="-10 0 1010 1000">
   <path fill="currentColor"
d="M132 286v235h77v-235h-77zM337 521v-235h-75v235h75zM432 870l-59 16c-1 -15 -2 -31 -5 -50c-113 20 -226 38 -314 52l-11 -72c44 -6 100 -13 160 -22v-210h-71v47h-56v-408h127v-175h63v175h130v361h-129v201l89 -14c-8 -39 -18 -79 -30 -113l55 -15
c26 72 47 166 51 227zM783 881h85c23 0 27 -15 29 -118c15 12 44 23 63 28c-7 123 -25 155 -85 155h-100c-72 0 -89 -21 -89 -93v-264c-31 157 -99 286 -248 370c-11 -18 -33 -43 -50 -55c134 -71 198 -181 228 -316h-194v-66h206c5 -33 9 -68 12 -104h-175v-60h178
c2 -32 2 -66 3 -100h-206v-64h127c-12 -34 -39 -85 -65 -123l59 -21c28 37 57 88 68 121l-55 23h154c23 -43 51 -104 66 -147l68 19c-21 43 -45 90 -67 128h135v64h-214c-1 34 -2 68 -4 100h194v60h-197c-3 36 -7 70 -11 104h253v66h-197v264c0 25 4 29 29 29z" />
</svg>
