<?xml version="1.0" standalone="no"?>
<!DOCTYPE svg PUBLIC "-//W3C//DTD SVG 1.1//EN" "http://www.w3.org/Graphics/SVG/1.1/DTD/svg11.dtd" >
<svg xmlns="http://www.w3.org/2000/svg" xmlns:xlink="http://www.w3.org/1999/xlink" version="1.1" viewBox="-10 0 1010 1000">
   <path fill="currentColor"
d="M230 532v-234c-40 74 -90 142 -139 184c-12 -17 -33 -41 -49 -53c61 -43 127 -127 169 -209h-153v-62h172v-114h70v114h154v62h-154v20c40 28 123 93 143 110l-38 62c-21 -23 -66 -67 -105 -102v222h-70zM780 625h-245v91h245v-91zM535 862l223 -6
c-26 -18 -51 -36 -75 -52l54 -32h-202v90zM229 716h234v-91h-234v91zM796 522h-72v-210h-162c-5 64 -21 134 -64 189h37v68h321v203h-115c73 47 162 117 207 163l-58 38c-15 -17 -37 -36 -60 -58c-274 9 -566 19 -752 23l-5 -67c102 -1 240 -4 390 -7v-92h-306v-203h306v-56
c-14 -11 -32 -24 -44 -30c67 -66 76 -154 76 -225v-146c128 -12 275 -34 359 -60l55 53c-94 27 -225 45 -345 57v88h385v62h-153v210z" />
</svg>
