<?xml version="1.0" standalone="no"?>
<!DOCTYPE svg PUBLIC "-//W3C//DTD SVG 1.1//EN" "http://www.w3.org/Graphics/SVG/1.1/DTD/svg11.dtd" >
<svg xmlns="http://www.w3.org/2000/svg" xmlns:xlink="http://www.w3.org/1999/xlink" version="1.1" viewBox="-10 0 1010 1000">
   <path fill="currentColor"
d="M762 662h83v-136h-83v136zM622 662h83v-136h-83v136zM485 662h80v-136h-80v136zM908 463v410c0 30 -4 48 -23 60c-18 11 -43 13 -81 12c-2 -18 -12 -44 -21 -62h53c7 0 9 -2 9 -11v-148h-83v215h-57v-215h-83v215h-57v-215h-80v232h-62v-493h485zM522 315h296
c-55 -50 -106 -104 -157 -166c-41 60 -89 116 -139 166zM306 532v-247h-61v247h61zM127 285v247h67v-247h-67zM661 37l54 24c-5 12 -12 23 -19 34c83 100 179 183 278 252c-18 15 -40 39 -51 58c-29 -23 -58 -48 -86 -72v44h-334v-44c-30 28 -62 54 -92 76
c-12 -17 -31 -38 -49 -53v239h-112v191l66 -13c-8 -37 -19 -75 -29 -108l51 -13c26 77 50 177 60 244l-54 16c-3 -23 -8 -50 -14 -79c-101 22 -201 43 -279 59l-9 -67c41 -7 92 -16 147 -27v-203h-62v53h-55v-426h117v-173h60v173h113v132c112 -72 231 -196 299 -317z" />
</svg>
