<?xml version="1.0" standalone="no"?>
<!DOCTYPE svg PUBLIC "-//W3C//DTD SVG 1.1//EN" "http://www.w3.org/Graphics/SVG/1.1/DTD/svg11.dtd" >
<svg xmlns="http://www.w3.org/2000/svg" xmlns:xlink="http://www.w3.org/1999/xlink" version="1.1" viewBox="-10 0 1010 1000">
   <path fill="currentColor"
d="M857 229h-331v126h331v-126zM125 285v247h65v-247h-65zM310 532v-247h-72v247h72zM956 634h-197c32 117 100 196 214 228c-15 15 -32 42 -40 63c-103 -36 -168 -108 -209 -211c-30 78 -93 153 -219 210c-9 -16 -28 -40 -42 -52c152 -66 203 -155 218 -238h-166
c-13 107 -40 218 -95 304c-11 -14 -37 -39 -52 -48l8 -13l-41 14c-2 -21 -7 -46 -12 -73l-270 75l-9 -69c39 -8 89 -20 142 -34v-195h-61v53h-55v-426h116v-173h55v173h123v373h-123v181l69 -19c-8 -31 -16 -63 -24 -92l51 -14c20 64 40 147 50 206c66 -131 74 -301 74 -428
v-262h211c-12 -32 -33 -72 -50 -102l57 -21c23 38 50 90 63 122l-2 1h181v250h-395v13c0 43 -1 90 -5 140h166v-6v-112h62v114v4h207v64zM786 485l33 -42c35 20 79 50 102 73l-33 47c-22 -23 -66 -56 -102 -78z" />
</svg>
