<?xml version="1.0" standalone="no"?>
<!DOCTYPE svg PUBLIC "-//W3C//DTD SVG 1.1//EN" "http://www.w3.org/Graphics/SVG/1.1/DTD/svg11.dtd" >
<svg xmlns="http://www.w3.org/2000/svg" xmlns:xlink="http://www.w3.org/1999/xlink" version="1.1" viewBox="-10 0 1010 1000">
   <path fill="currentColor"
d="M445 612h56v128h94v-169h-178v-56h178v-105h-66c-18 32 -40 64 -65 92c-12 -13 -33 -29 -47 -37c54 -58 92 -132 112 -191l60 10c-9 23 -18 46 -30 70h243v56h-147v105h175v56h-175v169h90v-128h58v184h-358v-184zM310 532v-247h-70v247h70zM126 285v247h67v-247h-67z
M948 182v39c-8 493 -14 649 -46 694c-18 28 -38 37 -68 40c-29 3 -79 2 -127 0c-1 -20 -8 -47 -20 -65c53 4 99 5 119 5c17 0 25 -3 35 -17c24 -33 32 -189 40 -631h-392c-29 62 -64 118 -102 162c-4 -5 -13 -12 -23 -20v206h-120v187l73 -15c-9 -36 -19 -70 -29 -101
l51 -17c26 78 51 177 62 244l-54 20c-3 -25 -9 -54 -15 -86c-101 24 -203 48 -278 66l-9 -69c39 -7 90 -18 144 -30v-199h-63v53h-55v-426h118v-173h56v173h119v104c57 -77 103 -179 130 -283l68 15c-12 42 -27 84 -43 124h429z" />
</svg>
