<?xml version="1.0" standalone="no"?>
<!DOCTYPE svg PUBLIC "-//W3C//DTD SVG 1.1//EN" "http://www.w3.org/Graphics/SVG/1.1/DTD/svg11.dtd" >
<svg xmlns="http://www.w3.org/2000/svg" xmlns:xlink="http://www.w3.org/1999/xlink" version="1.1" viewBox="-10 0 1010 1000">
   <path fill="currentColor"
d="M656 145h-114v119h114v-119zM835 264v-119h-116v119h116zM834 511h-224c-103 0 -133 -19 -133 -99v-321h424v227h-359v94c0 32 10 40 72 40h216c44 0 52 -14 57 -88c15 11 41 20 59 23c-8 99 -29 124 -112 124zM346 143h-156v60h156v-60zM188 317h158v-65h-156v7
c0 19 -1 37 -2 58zM346 368h-164c-11 64 -33 129 -81 177c-10 -11 -38 -33 -53 -41c68 -72 76 -169 76 -246v-169h287v368c0 33 -6 48 -30 58c-22 10 -60 10 -117 10c-3 -17 -12 -39 -20 -55c40 1 76 1 86 0c12 0 16 -3 16 -13v-89zM536 775v83l243 -5
c-21 -20 -41 -37 -61 -53l41 -25h-223zM228 719h235v-89h-235v89zM773 630h-237v89h237v-89zM846 775h-66c59 46 127 110 160 151l-55 38c-12 -16 -28 -33 -46 -52c-273 7 -559 15 -746 18l-6 -67c101 0 232 -2 376 -4v-84h-305v-200h305v-60h73v60h310v200z" />
</svg>
