<?xml version="1.0" standalone="no"?>
<!DOCTYPE svg PUBLIC "-//W3C//DTD SVG 1.1//EN" "http://www.w3.org/Graphics/SVG/1.1/DTD/svg11.dtd" >
<svg xmlns="http://www.w3.org/2000/svg" xmlns:xlink="http://www.w3.org/1999/xlink" version="1.1" viewBox="-10 0 1010 1000">
   <path fill="currentColor"
d="M139 287v236h79v-236h-79zM345 523v-236h-73v236h73zM311 654l54 -16c34 77 65 178 75 246l-59 17c-3 -21 -7 -46 -14 -72c-112 22 -223 43 -310 59l-11 -72c45 -7 103 -15 165 -26v-204h-72v47h-62v-409h133v-176h68v176h130v362h-130v192l72 -13
c-12 -38 -25 -77 -39 -111zM539 465h89c17 -35 26 -70 32 -103h-121v103zM539 203v102h126c1 -10 1 -19 1 -27v-75h-127zM845 305v-102h-113v76v26h113zM845 465v-103h-118c-5 33 -13 68 -27 103h145zM911 526h-241c-35 59 -90 114 -173 163c-11 -14 -36 -33 -52 -44
c65 -36 113 -77 145 -119h-116v-384h133c11 -32 22 -70 28 -98l79 9c-11 30 -24 62 -37 89h234v384zM950 689v66h-183v202h-71v-202h-266v-66h266v-155h71v155h183z" />
</svg>
