<?xml version="1.0" standalone="no"?>
<!DOCTYPE svg PUBLIC "-//W3C//DTD SVG 1.1//EN" "http://www.w3.org/Graphics/SVG/1.1/DTD/svg11.dtd" >
<svg xmlns="http://www.w3.org/2000/svg" xmlns:xlink="http://www.w3.org/1999/xlink" version="1.1" viewBox="-10 0 1010 1000">
   <path fill="currentColor"
d="M125 285v247h64v-247h-64zM307 532v-247h-71v247h71zM286 666l51 -17c24 74 49 169 58 232l-53 21c-3 -22 -8 -47 -14 -75c-99 25 -200 48 -276 66l-8 -69c39 -7 88 -17 141 -29v-200h-60v53h-55v-426h115v-173h55v173h121v373h-121v188l75 -17c-9 -35 -19 -69 -29 -100z
M769 644h-167c-17 30 -35 59 -51 83c44 16 90 34 136 52c38 -35 65 -79 82 -135zM708 343v158h-63l26 6c-10 23 -22 49 -35 73h310v64h-104c-19 67 -50 120 -91 163c70 31 133 62 178 92l-49 55c-45 -30 -110 -65 -183 -99c-71 51 -162 83 -270 105c-4 -18 -20 -48 -31 -64
c91 -14 170 -35 231 -72c-59 -25 -118 -49 -172 -66c23 -32 50 -72 74 -114h-131v-64h167c16 -30 30 -61 42 -88l34 8v-159c-56 73 -139 138 -214 174c-9 -16 -29 -41 -44 -52c76 -30 159 -88 212 -151h-192v-63h238v-85c-68 9 -137 16 -201 21c-2 -16 -11 -41 -19 -56
c155 -14 338 -37 438 -69l54 52c-57 17 -129 32 -205 44v93h241v63h-197c53 62 136 117 213 145c-15 12 -35 37 -45 55c-75 -35 -157 -99 -212 -169z" />
</svg>
