<?xml version="1.0" standalone="no"?>
<!DOCTYPE svg PUBLIC "-//W3C//DTD SVG 1.1//EN" "http://www.w3.org/Graphics/SVG/1.1/DTD/svg11.dtd" >
<svg xmlns="http://www.w3.org/2000/svg" xmlns:xlink="http://www.w3.org/1999/xlink" version="1.1" viewBox="-10 0 1010 1000">
   <path fill="currentColor"
d="M938 164v68h-520v-68h231c-11 -32 -28 -73 -41 -104l63 -20c19 39 41 91 52 124h215zM782 260l64 13c-9 39 -21 77 -35 113c46 39 98 87 126 121l-41 52c-24 -31 -68 -75 -110 -115c-23 45 -48 85 -77 116c-8 -13 -33 -38 -47 -50c56 -61 96 -152 120 -250zM656 478
l-37 52c-18 -23 -52 -56 -84 -87c-27 51 -57 95 -90 131c-10 -13 -34 -39 -48 -50c64 -63 112 -162 139 -268l64 15c-10 40 -24 80 -40 117c36 30 76 66 96 90zM125 285v247h64v-247h-64zM307 532v-247h-71v247h71zM286 666l51 -17c25 79 51 178 61 244l-53 20
c-4 -24 -10 -54 -17 -85c-98 24 -200 48 -276 65l-8 -69c39 -7 88 -17 141 -29v-200h-60v53h-55v-426h115v-173h55v173h121v373h-121v188l75 -17c-9 -34 -19 -69 -29 -100zM957 649v69h-253v239h-68v-239h-235v-69h235v-96h68v96h253z" />
</svg>
