<?xml version="1.0" standalone="no"?>
<!DOCTYPE svg PUBLIC "-//W3C//DTD SVG 1.1//EN" "http://www.w3.org/Graphics/SVG/1.1/DTD/svg11.dtd" >
<svg xmlns="http://www.w3.org/2000/svg" xmlns:xlink="http://www.w3.org/1999/xlink" version="1.1" viewBox="-10 0 1010 1000">
   <path fill="currentColor"
d="M136 294v228h76v-228h-76zM339 522v-228h-73v228h73zM308 652l54 -17c36 74 67 170 77 234l-58 18c-2 -18 -7 -37 -12 -59c-113 19 -228 37 -315 52l-11 -70c45 -6 102 -13 163 -22v-204h-70v49h-57v-401h127v-188h65v188h126v352h-126v194l81 -12
c-13 -40 -29 -80 -44 -114zM855 447h-136c-2 19 -5 40 -9 60c56 67 116 151 145 210v-270zM524 447v285c92 -87 124 -192 135 -285h-135zM921 383v486c0 37 -7 55 -33 67c-25 11 -65 12 -126 12c-3 -19 -14 -46 -22 -63c45 1 86 1 98 0c13 0 17 -4 17 -16v-141l-47 30
c-22 -49 -67 -120 -114 -183c-23 70 -61 140 -127 203c-10 -12 -28 -28 -43 -38v214h-65v-571h204c1 -15 1 -29 1 -43v-53h60v55c0 14 0 27 -1 41h198zM834 155h123v61h-123v100h-64v-100h-154v99h-64v-99h-128v-61h128v-110h64v110h154v-110h64v110z" />
</svg>
