<?xml version="1.0" standalone="no"?>
<!DOCTYPE svg PUBLIC "-//W3C//DTD SVG 1.1//EN" "http://www.w3.org/Graphics/SVG/1.1/DTD/svg11.dtd" >
<svg xmlns="http://www.w3.org/2000/svg" xmlns:xlink="http://www.w3.org/1999/xlink" version="1.1" viewBox="-10 0 1010 1000">
   <path fill="currentColor"
d="M442 446l-52 40c-23 -37 -67 -87 -114 -130c-32 81 -85 142 -183 183c-8 -16 -25 -39 -40 -51c100 -40 148 -103 172 -189h-157v-60h169c4 -28 6 -58 9 -90h-152v-61h358v61h-139c-2 31 -5 62 -9 90h179v60h-184c57 45 115 104 143 147zM230 697h233v-96h-233v96z
M780 601h-245v96h245v-96zM705 788l55 -33c66 49 143 119 182 165l-59 39c-15 -19 -37 -43 -60 -66c-270 14 -559 29 -744 38l-6 -67c103 -3 240 -9 390 -16v-93h-306v-213h306v-75h72v75h321v213h-321v90l225 -11c-18 -16 -38 -32 -55 -46zM933 299h-167
c38 77 105 136 193 163c-15 13 -33 37 -42 54c-87 -34 -155 -97 -197 -180c-27 73 -74 125 -159 161c-7 -15 -26 -40 -40 -52c79 -31 119 -79 142 -146h-142v-60h155c5 -27 7 -58 10 -90h-140v-61h355v61h-148c-2 32 -5 62 -9 90h189v60z" />
</svg>
