<?xml version="1.0" standalone="no"?>
<!DOCTYPE svg PUBLIC "-//W3C//DTD SVG 1.1//EN" "http://www.w3.org/Graphics/SVG/1.1/DTD/svg11.dtd" >
<svg xmlns="http://www.w3.org/2000/svg" xmlns:xlink="http://www.w3.org/1999/xlink" version="1.1" viewBox="-10 0 1010 1000">
   <path fill="currentColor"
d="M846 282v146h-61v-335h61v128h95v61h-95zM533 423v-141h-89v-61h89v-128h61v330h-61zM136 287v236h79v-236h-79zM338 523v-236h-69v236h69zM301 658l52 -15c33 79 62 182 72 251l-56 16c-3 -22 -7 -48 -14 -76c-107 19 -216 36 -299 50l-12 -68c46 -4 104 -13 167 -22
v-208h-75v47h-58v-409h135v-176h64v176h118v362h-122v198l66 -10c-11 -40 -24 -81 -38 -116zM954 677v65h-230v217h-68v-217h-226v-65h226v-125h-191v-64h191v-437h68v437h195v64h-195v125h230z" />
</svg>
