<?xml version="1.0" standalone="no"?>
<!DOCTYPE svg PUBLIC "-//W3C//DTD SVG 1.1//EN" "http://www.w3.org/Graphics/SVG/1.1/DTD/svg11.dtd" >
<svg xmlns="http://www.w3.org/2000/svg" xmlns:xlink="http://www.w3.org/1999/xlink" version="1.1" viewBox="-10 0 1010 1000">
   <path fill="currentColor"
d="M831 221v-81h-310v81h310zM831 357v-81h-310v81h310zM901 83v331h-446v-331h446zM134 285v247h65v-247h-65zM316 532v-247h-64v247h64zM295 661l53 -16c31 78 60 179 72 247l-57 18c-3 -22 -8 -47 -15 -74c-102 21 -203 42 -284 59l-13 -67c40 -6 89 -14 141 -24v-209
h-58v53h-60v-426h120v-173h64v173h119v373h-119v196l75 -14c-11 -40 -25 -81 -38 -116zM544 488h395s0 23 -1 32c-12 280 -23 372 -48 404c-15 19 -33 27 -57 29c-21 2 -56 1 -92 -1c-1 -16 -8 -40 -17 -56c34 3 64 4 77 3c13 1 20 -1 27 -11c17 -21 29 -107 38 -340h-354
c-18 29 -39 58 -64 85h60v156h305v54h-366v-208c-11 11 -22 23 -33 34c-10 -15 -30 -38 -43 -48c68 -60 112 -141 135 -206l65 9c-8 21 -17 42 -27 64zM668 565l54 7c-6 24 -13 48 -23 68c43 29 93 67 118 91l-34 40c-23 -23 -68 -58 -108 -88c-26 39 -59 73 -98 97
c-7 -11 -26 -31 -38 -41c66 -37 111 -97 129 -174z" />
</svg>
