<?xml version="1.0" standalone="no"?>
<!DOCTYPE svg PUBLIC "-//W3C//DTD SVG 1.1//EN" "http://www.w3.org/Graphics/SVG/1.1/DTD/svg11.dtd" >
<svg xmlns="http://www.w3.org/2000/svg" xmlns:xlink="http://www.w3.org/1999/xlink" version="1.1" viewBox="-10 0 1010 1000">
   <path fill="currentColor"
d="M475 692h137v-82h-137v82zM612 475h-137v78h137v-78zM677 415v458c0 34 -6 53 -27 64c-20 12 -52 12 -96 12c-2 -18 -10 -46 -19 -65c30 1 56 1 65 1c10 -1 12 -3 12 -12v-125h-137v205h-61v-538h263zM859 872v-475h60v475c0 36 -7 54 -31 64c-25 11 -64 12 -123 12
c-3 -17 -10 -43 -20 -61c46 1 85 1 98 0c12 0 16 -3 16 -15zM790 434v358h-58v-358h58zM504 288h320c-59 -39 -115 -84 -166 -140c-44 52 -97 100 -154 140zM297 532v-246h-61v246h61zM127 286v246h63v-246h-63zM657 41l62 27c-7 10 -15 21 -23 32c76 85 170 141 273 186
c-16 15 -37 37 -47 58c-26 -14 -52 -28 -77 -43v48h-367v-42c-27 17 -53 33 -81 47c-10 -16 -28 -37 -45 -52v292h-110v190l56 -11c-10 -42 -22 -86 -35 -123l50 -13c27 78 51 178 58 245l-52 14c-2 -19 -5 -40 -9 -64c-94 22 -187 41 -261 57l-13 -66c41 -7 93 -16 149 -27
v-202h-58v53h-54v-422h111v-180h60v180h108v74c120 -57 241 -154 305 -258z" />
</svg>
