<?xml version="1.0" standalone="no"?>
<!DOCTYPE svg PUBLIC "-//W3C//DTD SVG 1.1//EN" "http://www.w3.org/Graphics/SVG/1.1/DTD/svg11.dtd" >
<svg xmlns="http://www.w3.org/2000/svg" xmlns:xlink="http://www.w3.org/1999/xlink" version="1.1" viewBox="-10 0 1010 1000">
   <path fill="currentColor"
d="M836 283v-81h-307v81h307zM836 421v-83h-307v83h307zM906 145v333h-445v-333h142c12 -32 25 -73 30 -102l80 14c-12 30 -25 62 -37 88h230zM138 287v236h78v-236h-78zM348 523v-236h-79v236h79zM722 859h231v67h-551v-55l-19 6c-2 -14 -4 -30 -7 -46
c-116 20 -233 41 -322 57l-12 -72c46 -6 105 -15 168 -25v-205h-72v47h-60v-409h131v-175h67v175h132v362h-133v194l84 -13c-13 -40 -27 -82 -42 -117l52 -16c32 72 60 164 70 225h209v-101h-184v-63h184v-88h-212v-65h497v65h-211v88h182v63h-182v101z" />
</svg>
