<?xml version="1.0" standalone="no"?>
<!DOCTYPE svg PUBLIC "-//W3C//DTD SVG 1.1//EN" "http://www.w3.org/Graphics/SVG/1.1/DTD/svg11.dtd" >
<svg xmlns="http://www.w3.org/2000/svg" xmlns:xlink="http://www.w3.org/1999/xlink" version="1.1" viewBox="-10 0 1010 1000">
   <path fill="currentColor"
d="M132 287v236h80v-236h-80zM339 523v-236h-75v236h75zM304 658l52 -18c36 78 66 180 76 247l-57 19c-3 -22 -7 -46 -14 -73c-111 18 -222 37 -307 49l-9 -66c45 -6 101 -13 162 -22v-208h-75v47h-55v-409h130v-176h62v176h126v362h-126v199l77 -12
c-13 -40 -27 -80 -42 -115zM513 847h441v63h-501v-828h491v62h-431v703zM823 576h-122c-12 23 -25 45 -37 66c32 13 64 28 96 44c30 -29 51 -65 63 -110zM939 576h-57c-13 56 -36 101 -69 137c42 22 80 45 108 64l-42 45c-29 -21 -68 -45 -112 -69c-51 35 -118 60 -204 77
c-5 -17 -16 -42 -26 -54c71 -11 128 -29 172 -53c-42 -21 -84 -40 -122 -55c18 -26 36 -58 54 -92h-97v-55h124c10 -22 20 -43 27 -63l56 11c-7 17 -15 34 -23 52h211v55zM847 307v-59h-210v59h210zM847 411v-60h-210v60h210zM906 203v253h-327v-253h327z" />
</svg>
