<?xml version="1.0" standalone="no"?>
<!DOCTYPE svg PUBLIC "-//W3C//DTD SVG 1.1//EN" "http://www.w3.org/Graphics/SVG/1.1/DTD/svg11.dtd" >
<svg xmlns="http://www.w3.org/2000/svg" xmlns:xlink="http://www.w3.org/1999/xlink" version="1.1" viewBox="-10 0 1010 1000">
   <path fill="currentColor"
d="M850 211h-349v113h349v-113zM134 287v236h69v-236h-69zM319 523v-236h-68v236h68zM918 383h-417c-1 123 -12 300 -68 420c-10 -12 -36 -39 -49 -46c15 53 26 105 31 145l-55 15c-2 -24 -8 -54 -15 -84c-102 19 -207 39 -288 55l-11 -72c41 -6 93 -14 149 -23v-207h-61v47
h-57v-409h118v-176h63v176h118v362h-118v196l72 -13c-11 -40 -25 -80 -39 -115l52 -15c15 36 29 77 41 118c49 -114 54 -272 54 -384v-221h201c-11 -29 -26 -62 -41 -89l64 -22c19 35 40 78 52 111h204v231zM790 665h78v-143h-78v143zM672 665h71v-143h-71v143zM559 665h66
v-143h-66v143zM925 461v431c0 29 -5 45 -25 55c-19 9 -48 10 -90 10c-2 -15 -9 -39 -17 -54c29 1 55 1 63 0c9 0 12 -3 12 -11v-166h-78v193h-47v-193h-71v193h-47v-193h-66v227h-53v-492h419z" />
</svg>
