<?xml version="1.0" standalone="no"?>
<!DOCTYPE svg PUBLIC "-//W3C//DTD SVG 1.1//EN" "http://www.w3.org/Graphics/SVG/1.1/DTD/svg11.dtd" >
<svg xmlns="http://www.w3.org/2000/svg" xmlns:xlink="http://www.w3.org/1999/xlink" version="1.1" viewBox="-10 0 1010 1000">
   <path fill="currentColor"
d="M671 322h-8c-58 76 -146 152 -224 193c-10 -16 -31 -38 -45 -51c68 -30 145 -83 200 -142h-178v-61h248c-42 -26 -91 -54 -134 -72l42 -38c31 13 64 31 96 48c35 -19 71 -45 100 -70h-306v-58h370l16 -3l44 32c-46 49 -110 95 -172 130c18 10 34 21 46 31h131l13 -3
l50 16c-31 61 -66 128 -96 171l-59 -19c17 -28 39 -66 58 -104h-123v119c0 34 -7 50 -33 59c-25 10 -64 10 -124 10c-3 -19 -12 -40 -21 -58c44 1 83 1 94 1c12 -1 15 -4 15 -14v-117zM129 285v247h68v-247h-68zM310 532v-247h-62v247h62zM391 844l-55 15
c-2 -15 -5 -32 -9 -51c-97 31 -195 60 -271 84l-12 -66c41 -11 92 -26 148 -41v-190h-63v53h-55v-426h118v-174h61v174h112v373h-112v172l62 -17c-8 -33 -17 -64 -26 -93l52 -13c22 64 42 145 50 200zM945 677h-200c60 76 149 153 224 193c-16 13 -37 37 -48 54
c-72 -45 -154 -124 -215 -206v239h-70v-233c-63 86 -150 166 -232 210c-11 -17 -33 -41 -49 -55c87 -41 180 -120 240 -202h-187v-63h228v-94h70v94h239v63z" />
</svg>
