<?xml version="1.0" standalone="no"?>
<!DOCTYPE svg PUBLIC "-//W3C//DTD SVG 1.1//EN" "http://www.w3.org/Graphics/SVG/1.1/DTD/svg11.dtd" >
<svg xmlns="http://www.w3.org/2000/svg" xmlns:xlink="http://www.w3.org/1999/xlink" version="1.1" viewBox="-10 0 1010 1000">
   <path fill="currentColor"
d="M129 285v247h61v-247h-61zM303 532v-247h-61v247h61zM544 245h225c6 -29 10 -58 14 -83h-216c-7 29 -15 58 -23 83zM887 469l49 44c-31 21 -67 43 -105 63c23 114 65 220 131 271c-16 12 -36 36 -47 53c-69 -60 -112 -173 -136 -296c-18 9 -37 18 -55 26
c51 125 32 256 -19 298c-25 23 -48 29 -85 29c-17 1 -40 0 -63 -1c0 -18 -5 -44 -17 -64c27 3 49 5 68 5c20 0 36 -2 51 -19c22 -20 35 -76 26 -144c-72 70 -176 138 -265 175c-6 -10 -16 -24 -26 -36l2 13l-55 16c-3 -20 -7 -42 -11 -67c-100 21 -199 41 -277 57l-9 -67
c39 -6 89 -15 142 -26v-204h-57v53h-55v-426h112v-174h62v174h111v373h-112v193l69 -14c-9 -37 -20 -76 -31 -109l53 -13c21 62 41 139 52 200c100 -36 217 -112 280 -182c-6 -21 -15 -42 -26 -61c-55 48 -135 97 -200 126c-9 -15 -26 -38 -40 -51c71 -23 158 -73 212 -121
c-13 -17 -27 -32 -43 -47c-45 30 -92 56 -137 77c-7 -13 -28 -38 -41 -50c75 -29 154 -72 214 -122h-214v-62h351c4 -19 8 -39 12 -60h-296c21 -68 47 -176 63 -259l69 8c-4 19 -9 39 -14 60h219l12 -4l49 8c-12 73 -31 167 -47 247h144v62h-266c-22 21 -45 43 -71 62
c34 29 59 62 80 96c64 -32 140 -76 187 -110z" />
</svg>
