<?xml version="1.0" standalone="no"?>
<!DOCTYPE svg PUBLIC "-//W3C//DTD SVG 1.1//EN" "http://www.w3.org/Graphics/SVG/1.1/DTD/svg11.dtd" >
<svg xmlns="http://www.w3.org/2000/svg" xmlns:xlink="http://www.w3.org/1999/xlink" version="1.1" viewBox="-10 0 1010 1000">
   <path fill="currentColor"
d="M132 285v247h57v-247h-57zM296 532v-247h-61v247h61zM279 656l49 -9c25 79 48 182 57 250l-53 10c-2 -20 -5 -43 -10 -67c-96 19 -193 37 -268 52l-11 -67c39 -6 88 -14 142 -23v-207h-53v53h-53v-426h104v-173h61v173h104v373h-108v198l71 -13c-9 -43 -20 -86 -32 -124z
M575 555h-116v207h116v-207zM635 821h-176v45h-58v-371h89v-173h-112v-64h112v-210h62v210h111v64h-111v173h83v326zM746 565h118v-180h-117v108c0 23 0 47 -1 72zM864 148h-117v175h117v-175zM927 85v792c0 35 -8 53 -30 65c-22 10 -55 12 -110 11c-4 -16 -12 -44 -20 -60
c38 1 71 0 81 0c11 -1 16 -4 16 -17v-249h-122c-10 117 -36 243 -105 334c-12 -12 -37 -30 -53 -37c93 -119 102 -292 102 -431v-408h241z" />
</svg>
