<?xml version="1.0" standalone="no"?>
<!DOCTYPE svg PUBLIC "-//W3C//DTD SVG 1.1//EN" "http://www.w3.org/Graphics/SVG/1.1/DTD/svg11.dtd" >
<svg xmlns="http://www.w3.org/2000/svg" xmlns:xlink="http://www.w3.org/1999/xlink" version="1.1" viewBox="-10 0 1010 1000">
   <path fill="currentColor"
d="M811 245v-98h-280v98h280zM811 401v-99h-280v99h280zM879 87v374h-414v-374h414zM500 610v250h77v-250h-77zM714 610h-79v250h79v-250zM852 610h-79v250h79v-250zM129 282v247h76v-247h-76zM335 529v-247h-77v247h77zM912 860h46v66h-589v-42l-2 1c-3 -17 -6 -37 -10 -57
c-108 23 -216 47 -301 65l-12 -72c43 -7 98 -18 156 -28v-201h-71v52h-58v-425h127v-171h67v171h127v373h-129v188l78 -16c-9 -34 -18 -69 -28 -99l46 -12c21 65 44 149 55 207h29v-316h469v316z" />
</svg>
