<?xml version="1.0" standalone="no"?>
<!DOCTYPE svg PUBLIC "-//W3C//DTD SVG 1.1//EN" "http://www.w3.org/Graphics/SVG/1.1/DTD/svg11.dtd" >
<svg xmlns="http://www.w3.org/2000/svg" xmlns:xlink="http://www.w3.org/1999/xlink" version="1.1" viewBox="-10 0 1010 1000">
   <path fill="currentColor"
d="M128 285v247h66v-247h-66zM316 532v-247h-73v247h73zM294 666l53 -15c24 78 49 178 59 243l-56 19c-3 -25 -9 -53 -15 -84c-102 24 -204 47 -282 64l-9 -69c40 -7 91 -17 146 -29v-200h-62v53h-56v-426h118v-173h57v173h125v373h-124v188l74 -16c-9 -35 -19 -70 -28 -101
zM507 406h139v-117h-139v117zM852 289h-144v117h144v-117zM936 548v337c0 34 -6 51 -29 61c-22 11 -59 11 -116 11c-3 -18 -11 -41 -19 -58c40 1 78 1 87 0c12 0 15 -3 15 -14v-273h-166v119l75 -7c-11 -22 -22 -45 -34 -65l39 -17c34 54 65 126 77 174l-42 19
c-4 -16 -10 -35 -16 -55c-108 11 -216 23 -297 30l-8 -62c40 -3 89 -7 144 -12v-124h-162v343h-61v-407h223v-81h-198v-239h198v-79c-69 6 -137 11 -202 14c-2 -17 -10 -43 -17 -59c155 -9 343 -28 446 -56l50 57c-60 16 -136 28 -215 37v86h206v239h-206v81h228z" />
</svg>
