<?xml version="1.0" standalone="no"?>
<!DOCTYPE svg PUBLIC "-//W3C//DTD SVG 1.1//EN" "http://www.w3.org/Graphics/SVG/1.1/DTD/svg11.dtd" >
<svg xmlns="http://www.w3.org/2000/svg" xmlns:xlink="http://www.w3.org/1999/xlink" version="1.1" viewBox="-10 0 1010 1000">
   <path fill="currentColor"
d="M902 488l41 47c-33 29 -74 58 -110 82c41 50 77 101 100 140l-51 36c-39 -72 -126 -187 -200 -272l46 -29c24 25 47 54 72 82c35 -26 77 -61 102 -86zM844 146h-196v95h196v-95zM648 396h196v-95h-196v95zM578 802l-4 4c-5 -18 -18 -54 -30 -72c16 -10 40 -30 40 -70
v-579h325v373h-261v239l112 -44c5 17 13 40 19 53c-151 65 -185 82 -201 96zM517 271l-55 29c-16 -47 -50 -121 -78 -175l52 -24c30 54 64 124 81 170zM120 285v247h64v-247h-64zM291 532v-247h-62v247h62zM500 385v407c17 10 33 26 60 44c46 32 103 41 179 41
c63 0 165 -4 229 -13c-6 18 -14 52 -15 71c-52 4 -157 7 -216 7c-82 0 -140 -13 -190 -48c-33 -24 -58 -51 -77 -51c-22 0 -57 54 -87 111l-42 -61c10 -14 20 -26 29 -38l-46 18c-3 -17 -7 -37 -11 -59c-94 27 -189 54 -260 75l-9 -65c37 -8 85 -20 136 -34v-195h-60v53h-51
v-426h111v-173h52v173h111v373h-111v181l68 -18c-10 -36 -20 -71 -30 -102l48 -17c23 67 46 154 56 212c21 -25 41 -44 61 -56v-349h-73v-61h138z" />
</svg>
