<?xml version="1.0" standalone="no"?>
<!DOCTYPE svg PUBLIC "-//W3C//DTD SVG 1.1//EN" "http://www.w3.org/Graphics/SVG/1.1/DTD/svg11.dtd" >
<svg xmlns="http://www.w3.org/2000/svg" xmlns:xlink="http://www.w3.org/1999/xlink" version="1.1" viewBox="-10 0 1010 1000">
   <path fill="currentColor"
d="M893 48l39 58c-129 37 -335 58 -503 67c-2 -17 -11 -42 -19 -59c168 -11 369 -34 483 -66zM827 318l-51 -18c26 -41 60 -106 78 -151l60 21c-27 52 -60 110 -87 148zM728 289l-60 23c-8 -34 -31 -89 -54 -130l57 -21c24 40 49 93 57 128zM550 303l-59 26
c-8 -34 -34 -88 -57 -129l55 -20c26 38 51 90 61 123zM125 285v247h64v-247h-64zM307 532v-247h-71v247h71zM394 894l-54 19c-3 -25 -8 -54 -15 -85c-97 24 -198 47 -273 65l-8 -69c39 -7 88 -17 141 -29v-200h-60v53h-55v-426h115v-173h55v173h121v373h-121v188l72 -16
c-7 -35 -17 -70 -26 -101l51 -15c23 77 47 177 57 243zM957 750h-234c42 78 124 126 247 144c-13 14 -31 40 -40 60c-129 -26 -213 -83 -260 -178c-36 88 -107 145 -252 180c-6 -17 -23 -42 -36 -55c134 -29 196 -77 228 -151h-197v-62h214c4 -23 7 -47 10 -73
c-151 14 -179 18 -198 26v-2l-1 2v-4c-4 -15 -12 -43 -17 -59c22 -3 51 -16 88 -38c15 -9 45 -27 80 -51c-97 5 -118 8 -130 13c-3 -14 -12 -45 -20 -62c16 -2 32 -11 51 -25c21 -13 87 -66 133 -121l55 33c-39 39 -81 76 -123 106l116 -4c36 -27 72 -57 106 -88l47 42
c-80 68 -166 130 -253 180l254 -20c-21 -27 -44 -53 -65 -76l51 -28c54 54 112 128 136 180l-53 33c-8 -17 -18 -37 -32 -56l-185 16h28c-2 27 -5 52 -10 76h262v62z" />
</svg>
