<?xml version="1.0" standalone="no"?>
<!DOCTYPE svg PUBLIC "-//W3C//DTD SVG 1.1//EN" "http://www.w3.org/Graphics/SVG/1.1/DTD/svg11.dtd" >
<svg xmlns="http://www.w3.org/2000/svg" xmlns:xlink="http://www.w3.org/1999/xlink" version="1.1" viewBox="-10 0 1010 1000">
   <path fill="currentColor"
d="M126 282v247h77v-247h-77zM331 529v-247h-77v247h77zM419 885l-55 19c-3 -22 -6 -47 -12 -74c-108 24 -218 46 -301 63l-10 -72c43 -7 98 -17 157 -28v-201h-72v52h-55v-425h127v-170h62v170h126v373h-127v189l79 -15c-9 -35 -18 -70 -27 -101l51 -16
c24 75 47 172 57 236zM824 653h-293c36 53 87 99 146 136c60 -36 110 -82 147 -136zM881 587l44 20c-39 90 -104 162 -184 217c67 32 142 55 222 70c-15 15 -34 41 -44 60c-89 -20 -170 -49 -243 -89c-77 43 -165 73 -254 93c-7 -18 -22 -46 -35 -60c78 -15 157 -39 228 -74
c-66 -46 -120 -102 -158 -169l5 -2h-41v-63h222v-97h-211v-341h1c55 -20 117 -47 153 -72l54 49c-42 24 -95 44 -145 60v90h109v57h-109v95h148v-386h66v386h145v-95h-108v-57h108v-91h-111v-62h174v367h-208v97h159z" />
</svg>
