<?xml version="1.0" standalone="no"?>
<!DOCTYPE svg PUBLIC "-//W3C//DTD SVG 1.1//EN" "http://www.w3.org/Graphics/SVG/1.1/DTD/svg11.dtd" >
<svg xmlns="http://www.w3.org/2000/svg" xmlns:xlink="http://www.w3.org/1999/xlink" version="1.1" viewBox="-10 0 1010 1000">
   <path fill="currentColor"
d="M307 532v-247h-66v247h66zM126 285v247h65v-247h-65zM744 452h-151c-20 32 -41 62 -67 89c82 -11 173 -27 225 -47l46 49c-27 10 -62 19 -97 26v93h206v59h-162c65 53 136 116 174 158l-45 43c-37 -44 -108 -111 -173 -166v200h-63v-198c-48 74 -118 143 -183 181
c-11 -17 -32 -40 -47 -52c70 -33 144 -99 190 -166h-155v-59h195v-82c-35 5 -71 9 -105 12c-2 -12 -7 -28 -14 -41c-31 30 -65 58 -103 82c-9 -11 -31 -35 -47 -49v11h-122v187l76 -17c-11 -34 -22 -69 -34 -99l53 -12c29 73 57 167 69 229l-57 14c-3 -20 -9 -46 -15 -72
c-101 25 -202 49 -282 68l-13 -68c41 -8 90 -18 143 -30v-200h-60v53h-58v-426h118v-174h60v174h122v357c60 -33 107 -76 145 -127h-112v-59h149c13 -22 24 -47 33 -72h-142v-56h161c6 -22 12 -43 17 -67h-190v-58h200c5 -30 10 -63 13 -96l68 7c-3 31 -8 61 -12 89h229v58
h-240c-5 23 -11 45 -16 67h235v56h-252c-9 25 -19 50 -30 72h331v59h-141c37 51 93 96 148 122c-14 15 -28 43 -35 60c-72 -42 -142 -110 -183 -182z" />
</svg>
