<?xml version="1.0" standalone="no"?>
<!DOCTYPE svg PUBLIC "-//W3C//DTD SVG 1.1//EN" "http://www.w3.org/Graphics/SVG/1.1/DTD/svg11.dtd" >
<svg xmlns="http://www.w3.org/2000/svg" xmlns:xlink="http://www.w3.org/1999/xlink" version="1.1" viewBox="-10 0 1010 1000">
   <path fill="currentColor"
d="M459 479v-250c-85 106 -221 195 -350 241c-11 -17 -31 -43 -47 -58c117 -35 240 -107 321 -192h-280v-66h356v-111h73v111h367v66h-292c85 82 213 151 336 185c-16 14 -38 42 -49 60c-133 -44 -273 -132 -362 -236v250h-73zM141 695h98v-105h-98v105zM398 590h-96v105h96
v-105zM356 786l52 -22c37 52 75 123 92 169l-55 25c-6 -17 -14 -37 -25 -58c-136 9 -273 17 -374 23l-5 -66c54 -2 122 -4 198 -7v-98h-156v-220h156v-71h63v71h157v220h-157v95l88 -5c-11 -19 -23 -39 -34 -56zM580 694h103v-106h-103v106zM852 588h-105v106h105v-106z
M967 930l-56 29c-7 -17 -16 -37 -28 -58c-139 10 -279 18 -381 24l-7 -68c52 -2 117 -4 188 -7v-99h-160v-220h160v-70h64v70h165v220h-165v97l101 -5c-13 -20 -27 -40 -41 -58l53 -25c42 52 87 123 107 170z" />
</svg>
