<?xml version="1.0" standalone="no"?>
<!DOCTYPE svg PUBLIC "-//W3C//DTD SVG 1.1//EN" "http://www.w3.org/Graphics/SVG/1.1/DTD/svg11.dtd" >
<svg xmlns="http://www.w3.org/2000/svg" xmlns:xlink="http://www.w3.org/1999/xlink" version="1.1" viewBox="-10 0 1010 1000">
   <path fill="currentColor"
d="M130 279v233h72v-233h-72zM333 512v-233h-76v233h76zM412 850l-57 16c-1 -15 -4 -32 -7 -50c-106 21 -214 41 -298 57l-12 -70c44 -6 99 -15 159 -25v-204h-67v43h-58v-399h125v-168h64v168h131v356h-131v193l74 -13c-9 -38 -21 -78 -35 -112l53 -14c29 70 53 162 59 222
zM440 924l-52 -28c40 -50 59 -137 67 -217l56 13c-9 85 -26 178 -71 232zM551 687l51 -7c12 59 19 134 18 183l-55 9c2 -49 -4 -125 -14 -185zM649 674l48 -13c21 49 40 114 47 155l-51 15c-7 -42 -24 -107 -44 -157zM517 453v92h138v-92h-138zM655 152h-138v89h138v-89z
M655 392v-91h-138v91h138zM721 545h223s-1 21 -2 30c-13 236 -26 322 -52 353c-16 18 -32 24 -59 27c-22 2 -64 2 -107 -1c-2 -18 -7 -45 -18 -61c42 3 80 3 97 3c15 0 23 0 31 -10c17 -20 30 -91 40 -276h-425v-524h467v66h-195v89h172v60h-172v91h172v61h-172v92zM855 751
l-46 21c-11 -32 -39 -82 -64 -120l42 -17c28 36 55 85 68 116z" />
</svg>
