<?xml version="1.0" standalone="no"?>
<!DOCTYPE svg PUBLIC "-//W3C//DTD SVG 1.1//EN" "http://www.w3.org/Graphics/SVG/1.1/DTD/svg11.dtd" >
<svg xmlns="http://www.w3.org/2000/svg" xmlns:xlink="http://www.w3.org/1999/xlink" version="1.1" viewBox="-10 0 1010 1000">
   <path fill="currentColor"
d="M670 190h-346c47 41 106 76 173 106c69 -30 128 -64 173 -106zM928 190h-164c-49 55 -110 100 -183 138c110 38 239 64 371 77c-15 15 -33 45 -42 63c-149 -16 -291 -51 -414 -102c-118 48 -260 80 -412 99c-7 -18 -20 -46 -34 -63c132 -15 257 -39 365 -75
c-71 -38 -133 -83 -181 -137h-160v-61h393c-12 -25 -27 -54 -40 -76l71 -21c19 29 41 68 52 97h378v61zM148 691h98v-103h-98v103zM404 588h-96v103h96v-103zM359 774l51 -22c37 52 76 121 92 167l-54 26c-4 -16 -12 -33 -21 -53c-136 9 -274 17 -373 23l-6 -64
c54 -2 123 -5 198 -8v-97h-155v-214h155v-68h62v68h155v214h-155v94l89 -5c-13 -21 -25 -42 -38 -61zM578 690h101v-104h-101v104zM849 586h-106v104h106v-104zM965 918l-56 29c-6 -16 -15 -33 -26 -53c-138 8 -280 17 -382 23l-6 -65c51 -2 114 -4 184 -7v-100h-159v-214
h159v-67h64v67h165v214h-165v97l107 -5c-15 -21 -29 -43 -44 -62l53 -24c42 51 86 120 106 167z" />
</svg>
