<?xml version="1.0" standalone="no"?>
<!DOCTYPE svg PUBLIC "-//W3C//DTD SVG 1.1//EN" "http://www.w3.org/Graphics/SVG/1.1/DTD/svg11.dtd" >
<svg xmlns="http://www.w3.org/2000/svg" xmlns:xlink="http://www.w3.org/1999/xlink" version="1.1" viewBox="-10 0 1010 1000">
   <path fill="currentColor"
d="M831 669h-296v71h296v-71zM535 865h296v-72h-296v72zM469 956v-342h432v342h-70v-35h-296v35h-66zM325 525v-230h-73v230h73zM129 295v230h70v-230h-70zM648 179v71h49c31 -22 61 -46 88 -71h-137zM957 309h-241c-39 27 -79 51 -120 74v21c90 -15 189 -38 246 -61l48 43
c-78 30 -194 53 -294 67v26c0 24 8 26 59 26h174c37 0 43 -7 46 -66c15 9 41 17 59 21c-8 83 -28 102 -98 102h-185c-96 0 -121 -15 -121 -82v-63c-36 18 -73 34 -110 49c-8 -10 -26 -29 -40 -43v165h-123v190l74 -13c-11 -38 -25 -78 -40 -112l54 -16c34 75 64 173 73 238
l-57 19c-3 -20 -7 -42 -13 -66c-106 19 -213 38 -295 53l-12 -70c43 -6 95 -14 153 -23v-200h-65v45h-55v-400h121v-185h62v185h123v180c51 -18 101 -39 150 -63v-1h2c25 -13 50 -26 74 -40h-204v-59h178v-71h-146v-56h146v-77h68v77h141v52c30 -28 57 -58 81 -89l59 25
c-39 50 -85 96 -136 139h164v59z" />
</svg>
