<?xml version="1.0" standalone="no"?>
<!DOCTYPE svg PUBLIC "-//W3C//DTD SVG 1.1//EN" "http://www.w3.org/Graphics/SVG/1.1/DTD/svg11.dtd" >
<svg xmlns="http://www.w3.org/2000/svg" xmlns:xlink="http://www.w3.org/1999/xlink" version="1.1" viewBox="-10 0 1010 1000">
   <path fill="currentColor"
d="M290 532v-247h-61v247h61zM121 285v247h63v-247h-63zM501 44l54 14c-20 76 -46 152 -77 221v675h-57v-564c-16 27 -33 52 -50 74c-4 -12 -19 -39 -30 -55v186h-108v188l69 -16c-9 -35 -19 -70 -29 -101l49 -17c25 78 49 177 59 244l-50 20c-3 -26 -9 -56 -16 -89
c-96 25 -191 47 -263 65l-8 -65c37 -7 85 -17 136 -28v-201h-59v53h-51v-426h110v-173h53v173h108v177c68 -89 125 -222 160 -355zM848 207h-146l-4 9c15 40 40 82 72 120c31 -38 58 -82 78 -129zM580 293v474h-53v-546h53v66c57 -60 100 -152 124 -248l55 14
c-8 33 -19 67 -32 98h147l11 -2l36 17c-24 82 -64 154 -112 212c40 37 89 68 149 88c-12 12 -28 36 -35 50c-60 -23 -110 -57 -150 -98c-46 46 -96 83 -148 108c-8 -14 -23 -35 -36 -47c50 -22 101 -58 146 -103c-29 -35 -51 -71 -68 -106c-15 24 -32 47 -50 66
c-7 -11 -24 -31 -37 -43zM658 686l50 15c-23 63 -57 136 -88 183c-10 -8 -32 -22 -45 -29c32 -46 63 -110 83 -169zM949 649h-149v227c0 33 -6 49 -26 60c-19 11 -50 12 -94 12c-2 -18 -10 -43 -17 -60c33 1 58 1 68 0c9 -1 11 -3 11 -12v-227h-135v-56h135v-111h58v111h149
v56zM823 702l46 -19c32 55 70 128 89 172l-48 22c-17 -45 -55 -119 -87 -175z" />
</svg>
