<?xml version="1.0" standalone="no"?>
<!DOCTYPE svg PUBLIC "-//W3C//DTD SVG 1.1//EN" "http://www.w3.org/Graphics/SVG/1.1/DTD/svg11.dtd" >
<svg xmlns="http://www.w3.org/2000/svg" xmlns:xlink="http://www.w3.org/1999/xlink" version="1.1" viewBox="-10 0 1010 1000">
   <path fill="currentColor"
d="M129 291v227h62v-227h-62zM309 518v-227h-66v227h66zM288 646l54 -16c33 73 60 169 68 232l-57 16c-2 -19 -6 -41 -12 -65c-104 22 -209 43 -289 59l-13 -68c41 -6 92 -15 147 -25v-199h-57v46h-55v-397h111v-183h63v183h117v351h-117v187l78 -15
c-11 -36 -24 -74 -38 -106zM468 488v94h165v-94h-165zM875 582v-94h-175v94h175zM406 582v-154h534v154h-57v234c0 31 -5 48 -25 58c-21 11 -51 12 -98 12c-2 -18 -10 -42 -18 -60c31 1 57 1 66 1c8 0 10 -3 10 -12v-169h-118v310h-67v-310h-111v247h-65v-311h-51zM697 310
v-88h-70v88h70zM878 340h18c6 0 13 0 15 -3c4 -1 6 -6 8 -13c2 -10 3 -28 4 -52c11 8 27 17 41 20c-2 27 -4 56 -9 67s-13 18 -23 23c-9 4 -21 6 -33 6h-34c-15 0 -33 -4 -44 -15c-10 -11 -13 -24 -13 -77v-74h-56v143h-178v-143h-56c-5 74 -27 145 -101 199
c-8 -13 -29 -31 -42 -41c62 -44 82 -100 88 -158h-84v-60h86v-115h55v115h54v-118h53v118h70v-118h55v118h56v-117h56v117h93v60h-93v83c0 16 0 27 3 31c2 3 5 4 11 4z" />
</svg>
