<?xml version="1.0" standalone="no"?>
<!DOCTYPE svg PUBLIC "-//W3C//DTD SVG 1.1//EN" "http://www.w3.org/Graphics/SVG/1.1/DTD/svg11.dtd" >
<svg xmlns="http://www.w3.org/2000/svg" xmlns:xlink="http://www.w3.org/1999/xlink" version="1.1" viewBox="-10 0 1010 1000">
   <path fill="currentColor"
d="M538 259v-71h-123v-64h123v-80h69v80h144v-80h70v80h125v64h-125v71h-70v-71h-144v71h-69zM130 272v232h78v-232h-78zM336 504v-232h-76v232h76zM421 837l-55 16c-2 -19 -7 -41 -12 -64c-108 27 -216 56 -301 77l-13 -69c44 -9 101 -21 162 -36v-194h-72v47h-55v-404h127
v-161h63v161h128v357h-128v179l74 -17c-9 -36 -20 -71 -31 -101l52 -16c27 73 53 164 61 225zM525 459v77h310v-77h-310zM525 331v77h310v-77h-310zM943 732h-206c41 82 119 140 225 165c-16 14 -36 41 -45 60c-115 -34 -195 -103 -242 -202c-36 98 -107 162 -258 201
c-7 -17 -26 -44 -39 -57c136 -33 200 -85 230 -167h-186v-65h203c5 -23 8 -50 10 -77h-179v-312h450v312h-198c-3 27 -6 53 -10 77h245v65z" />
</svg>
