<?xml version="1.0" standalone="no"?>
<!DOCTYPE svg PUBLIC "-//W3C//DTD SVG 1.1//EN" "http://www.w3.org/Graphics/SVG/1.1/DTD/svg11.dtd" >
<svg xmlns="http://www.w3.org/2000/svg" xmlns:xlink="http://www.w3.org/1999/xlink" version="1.1" viewBox="-10 0 1010 1000">
   <path fill="currentColor"
d="M500 223v-56h-123v-56h123v-68h60v68h171v-68h58v68h142v56h-142v56h-58v-56h-171v56h-60zM123 282v247h62v-247h-62zM288 529v-247h-58v247h58zM375 839l-53 18c-2 -16 -5 -34 -9 -54c-92 33 -186 66 -258 91l-10 -67c38 -11 85 -25 136 -43v-192h-58v52h-53v-425h112
v-171h54v171h105v373h-106v174l66 -21c-7 -32 -16 -64 -23 -92l50 -14c20 64 39 146 47 200zM417 697v-94h56v96c0 90 -9 188 -71 264c-11 -13 -36 -32 -52 -39c58 -66 67 -152 67 -227zM541 630l50 11c-13 95 -37 193 -69 257c-9 -9 -30 -25 -42 -33
c31 -60 50 -148 61 -235zM702 641l47 -11c29 79 56 183 64 245l-50 13c-8 -61 -34 -167 -61 -247zM844 947v-343h59v343h-59zM827 502v-62h-146v62h146zM681 324v62h146v-62h-146zM885 386h70v54h-70v118h-204v399h-61v-399h-190v-56h190v-62h-238v-54h238v-62h-186v-56h186
v-74h61v74h204v118z" />
</svg>
