<?xml version="1.0" standalone="no"?>
<!DOCTYPE svg PUBLIC "-//W3C//DTD SVG 1.1//EN" "http://www.w3.org/Graphics/SVG/1.1/DTD/svg11.dtd" >
<svg xmlns="http://www.w3.org/2000/svg" xmlns:xlink="http://www.w3.org/1999/xlink" version="1.1" viewBox="-10 0 1010 1000">
   <path fill="currentColor"
d="M558 193l117 -13c-10 -40 -16 -83 -18 -129h62c2 45 8 86 17 123l120 -13c-22 -23 -62 -53 -95 -72l29 -34c35 18 77 48 98 70l-28 35l75 -8l6 60l-187 19c29 76 71 120 111 120c18 -1 25 -27 28 -88c14 12 33 21 49 26c-9 93 -30 121 -79 121c-75 0 -136 -66 -173 -171
l-126 13zM527 686v53h306v-53h-306zM527 587v52h306v-52h-306zM527 489v51h306v-51h-306zM462 789v-349h439v349h-439zM473 409v-151c-18 24 -36 45 -54 63c-9 -14 -30 -41 -43 -54c59 -53 117 -134 150 -218l53 24c-13 31 -28 63 -45 92v244h-61zM129 282v247h63v-247h-63z
M309 529v-247h-65v247h65zM419 812l-52 23c-4 -15 -9 -32 -15 -51c-105 38 -212 78 -294 109l-13 -71c39 -12 89 -29 143 -49v-181h-59v52h-55v-425h114v-171h61v171h116v373h-117v161l83 -30c-9 -22 -18 -45 -27 -64l49 -20c27 55 54 126 66 173zM579 801l50 31
c-58 45 -150 89 -223 116c-9 -15 -28 -43 -40 -56c74 -21 162 -54 213 -91zM710 846l23 -48c83 29 173 68 229 98l-29 54c-54 -32 -141 -73 -223 -104z" />
</svg>
