<?xml version="1.0" standalone="no"?>
<!DOCTYPE svg PUBLIC "-//W3C//DTD SVG 1.1//EN" "http://www.w3.org/Graphics/SVG/1.1/DTD/svg11.dtd" >
<svg xmlns="http://www.w3.org/2000/svg" xmlns:xlink="http://www.w3.org/1999/xlink" version="1.1" viewBox="-10 0 1010 1000">
   <path fill="currentColor"
d="M131 295v230h67v-230h-67zM322 525v-230h-72v230h72zM289 655l53 -14c34 70 61 163 70 223l-58 17c-2 -17 -6 -37 -11 -58c-105 21 -211 40 -292 58l-13 -68c43 -7 97 -16 155 -26v-199h-62v45h-55v-400h117v-187h62v187h122v355h-122v189l73 -13
c-11 -38 -24 -76 -39 -109zM740 716h-124v81h124v-81zM791 843h-175v44h-51v-217h226v173zM925 563v325c0 31 -6 48 -27 58c-23 9 -57 10 -108 10c-4 -16 -14 -40 -22 -56c35 1 67 0 77 0s13 -3 13 -12v-268h-357v336h-66v-393h490zM762 463v-74h-171v74h171zM725 277h-92
c-13 21 -28 42 -45 61h183c-17 -20 -33 -40 -46 -61zM956 277h-166c45 54 115 105 182 130c-14 12 -35 35 -45 51c-35 -16 -70 -39 -102 -67v122h-294v-118c-30 25 -63 46 -99 63c-9 -12 -28 -36 -42 -47c70 -31 126 -78 167 -134h-143v-58h178c13 -25 24 -52 31 -78
c-55 6 -111 10 -164 13c-2 -14 -11 -38 -18 -52c140 -9 309 -29 395 -58l57 46c-54 18 -123 31 -197 42c-8 29 -19 59 -32 87h292v58z" />
</svg>
