<?xml version="1.0" standalone="no"?>
<!DOCTYPE svg PUBLIC "-//W3C//DTD SVG 1.1//EN" "http://www.w3.org/Graphics/SVG/1.1/DTD/svg11.dtd" >
<svg xmlns="http://www.w3.org/2000/svg" xmlns:xlink="http://www.w3.org/1999/xlink" version="1.1" viewBox="-10 0 1010 1000">
   <path fill="currentColor"
d="M845 50l37 55c-115 30 -298 51 -448 58c-2 -16 -9 -39 -14 -55c147 -9 325 -30 425 -58zM807 297l-50 -19c19 -36 42 -96 55 -137l60 21c-21 47 -45 100 -65 135zM694 278l-58 21c-3 -33 -19 -86 -36 -125l54 -19c19 39 35 91 40 123zM507 923l-45 -21
c27 -46 44 -124 52 -187l45 15c-9 65 -23 145 -52 193zM595 723l42 -8c13 56 22 127 21 169l-45 12c2 -44 -5 -117 -18 -173zM677 714l38 -14c20 44 40 101 46 137l-40 18c-6 -36 -25 -96 -44 -141zM854 797l-36 22c-10 -33 -35 -84 -58 -120l35 -17c23 35 49 84 59 115z
M435 190l54 -20c20 38 41 90 47 122l-57 24c-6 -33 -25 -87 -44 -126zM822 517h-324c-1 27 -2 57 -5 87h320c3 -28 6 -60 9 -87zM762 374h-263v86h255c3 -27 6 -59 8 -86zM135 285v247h66v-247h-66zM319 532v-247h-71v247h71zM873 604h69s-1 21 -1 31
c-12 190 -23 265 -45 291c-14 18 -29 25 -52 27c-20 2 -57 2 -95 0c-1 -21 -7 -48 -17 -66c37 3 71 4 84 4c14 0 22 -1 29 -10c13 -15 23 -73 32 -218h-391c-15 102 -44 207 -101 291c-11 -13 -38 -33 -51 -41c13 -19 26 -41 37 -62l-33 12c-2 -16 -6 -34 -10 -52
c-95 28 -192 55 -264 76l-9 -69c38 -8 88 -21 142 -36v-187h-62v53h-54v-426h116v-173h55v173h121v373h-121v172l62 -17c-8 -30 -17 -59 -25 -84l52 -16c17 52 34 116 45 166c45 -116 53 -248 53 -348v-152h332l11 -3l42 4c-3 51 -7 100 -11 143h19l10 -4l43 5
c-3 50 -7 100 -12 143z" />
</svg>
