<?xml version="1.0" standalone="no"?>
<!DOCTYPE svg PUBLIC "-//W3C//DTD SVG 1.1//EN" "http://www.w3.org/Graphics/SVG/1.1/DTD/svg11.dtd" >
<svg xmlns="http://www.w3.org/2000/svg" xmlns:xlink="http://www.w3.org/1999/xlink" version="1.1" viewBox="-10 0 1010 1000">
   <path fill="currentColor"
d="M632 490l-45 17c-3 -13 -8 -28 -13 -45c-140 20 -164 25 -177 31c-2 -11 -10 -40 -16 -54c14 -3 30 -20 50 -43c11 -13 38 -49 66 -94c-80 10 -98 16 -109 21c-2 -12 -10 -39 -16 -54c12 -2 23 -16 37 -36s60 -97 86 -172l53 19c-30 64 -65 128 -101 178l81 -8
c12 -21 23 -43 33 -64l51 20c-45 82 -99 162 -152 223l100 -12c-8 -22 -15 -45 -23 -65l44 -12c19 49 41 113 51 150zM128 285v247h67v-247h-67zM308 532v-247h-62v247h62zM391 833l-54 16c-2 -15 -5 -33 -8 -52c-98 34 -197 68 -273 94l-12 -66c40 -11 91 -28 146 -46v-184
h-62v53h-54v-426h116v-173h60v173h113v373h-113v165l65 -22c-6 -29 -15 -59 -23 -85l51 -14c20 62 40 142 48 194zM843 628l59 23c-27 60 -65 114 -112 161c24 41 54 65 88 68c18 1 30 -36 38 -108c12 16 35 33 47 40c-18 110 -47 146 -83 143c-58 -4 -104 -39 -140 -99
c-42 33 -91 62 -142 85c-7 -13 -25 -36 -37 -47c57 -24 108 -56 152 -93c-21 -51 -38 -113 -51 -184h-137c-1 11 -1 22 -3 34c46 37 104 86 135 118l-42 46c-23 -25 -65 -63 -104 -97c-18 82 -56 168 -131 235c-9 -14 -32 -38 -46 -47c96 -86 125 -197 130 -289h-84v-60h85
v-60h61v60h126c-21 -141 -32 -313 -37 -506h60c4 196 16 369 38 506h130c-22 -22 -54 -48 -80 -68l35 -33c-58 10 -72 14 -81 18c-3 -11 -11 -39 -17 -54c14 -3 30 -20 48 -44c10 -13 35 -49 60 -93c-73 11 -91 16 -101 21c-3 -12 -10 -40 -16 -54c11 -3 22 -16 34 -35
c12 -18 54 -93 76 -165l50 19c-24 61 -55 122 -87 170l74 -8c10 -21 21 -42 30 -64l50 21c-42 81 -92 161 -142 222l103 -12c-8 -23 -17 -45 -25 -65l43 -13c21 48 45 112 54 148l-45 18c-3 -13 -8 -28 -12 -43c-40 5 -70 9 -94 13c31 23 71 54 92 75l-26 26h88v60h-230
c11 53 23 99 37 137c35 -38 62 -81 82 -126z" />
</svg>
