<?xml version="1.0" standalone="no"?>
<!DOCTYPE svg PUBLIC "-//W3C//DTD SVG 1.1//EN" "http://www.w3.org/Graphics/SVG/1.1/DTD/svg11.dtd" >
<svg xmlns="http://www.w3.org/2000/svg" xmlns:xlink="http://www.w3.org/1999/xlink" version="1.1" viewBox="-10 0 1010 1000">
   <path fill="currentColor"
d="M124 285v247h68v-247h-68zM312 532v-247h-66v247h66zM297 664l57 -10c25 76 52 177 63 244l-59 14c-3 -21 -8 -47 -15 -74c-103 20 -207 39 -288 54l-11 -66c40 -6 90 -15 143 -24v-207h-63v53h-53v-426h115v-173h66v173h114v373h-115v196l78 -14
c-10 -39 -21 -78 -32 -113zM832 742h-321v120h321v-120zM444 957v-273h458v270h-70v-34h-321v37h-67zM703 455v119h72c16 -35 36 -84 45 -119h-117zM837 574h114v61h-557v-61h105c-7 -29 -26 -69 -43 -100l56 -18c21 32 42 77 49 105l-38 13h111v-119h-228v-58h228v-63h-197
v-56h197v-58h-223v-58h122c-11 -28 -31 -67 -51 -95l59 -23c23 33 47 77 58 105l-31 13h170c18 -35 39 -85 50 -120l71 21c-17 33 -35 70 -52 99h126v58h-230v58h194v56h-194v63h236v58h-112l59 20c-15 34 -33 69 -49 99z" />
</svg>
