<?xml version="1.0" standalone="no"?>
<!DOCTYPE svg PUBLIC "-//W3C//DTD SVG 1.1//EN" "http://www.w3.org/Graphics/SVG/1.1/DTD/svg11.dtd" >
<svg xmlns="http://www.w3.org/2000/svg" xmlns:xlink="http://www.w3.org/1999/xlink" version="1.1" viewBox="-10 0 1010 1000">
   <path fill="currentColor"
d="M949 258v57h-552v-57h232v-76h-174v-58h174v-79h70v79h191v58h-191v76h250zM656 531h111v-80h-88v-53h88v-70h61v70h99v53h-99v80h120v54h-292v-54zM639 515l1 54c-87 15 -175 30 -246 41l-9 -56c32 -4 70 -10 112 -16v-87h-88v-53h88v-70h61v70h79v53h-79v77zM129 287
v229h64v-229h-64zM309 516v-229h-68v229h68zM392 853l-55 15c-2 -14 -4 -30 -8 -47c-99 20 -199 39 -277 55l-12 -67c41 -6 92 -14 147 -24v-207h-58v47h-54v-400h112v-176h59v176h118v353h-118v196l69 -13c-10 -37 -22 -76 -36 -109l51 -15c30 68 54 158 62 216zM803 886
h75c20 0 24 -11 27 -87c13 9 41 20 60 24c-6 98 -25 122 -79 122h-92c-71 0 -86 -18 -86 -84v-159h-106c-15 135 -59 212 -213 256c-7 -16 -25 -43 -39 -56c135 -33 172 -92 183 -200h-149v-60h575v60h-183v159c0 22 4 25 27 25z" />
</svg>
