<?xml version="1.0" standalone="no"?>
<!DOCTYPE svg PUBLIC "-//W3C//DTD SVG 1.1//EN" "http://www.w3.org/Graphics/SVG/1.1/DTD/svg11.dtd" >
<svg xmlns="http://www.w3.org/2000/svg" xmlns:xlink="http://www.w3.org/1999/xlink" version="1.1" viewBox="-10 0 1010 1000">
   <path fill="currentColor"
d="M216 358v50h161v-50h-161zM377 163h-161v48h161v-48zM216 260v49h161v-49h-161zM202 461l55 28c-35 44 -91 90 -138 117c-11 -12 -32 -30 -47 -42c48 -25 97 -68 122 -103h-146v-53h98v-245h-89v-53h89v-60h70v60h161v-61h71v61h80v53h-80v245h77v53h-323zM329 491
l52 -27c32 24 71 61 91 86l-56 32c-17 -26 -56 -63 -87 -91zM534 802v67c78 -2 160 -4 240 -7c-18 -16 -36 -30 -53 -43l35 -17h-222zM228 751h234v-74h-234v74zM776 677h-242v74h242v-74zM848 802h-57c50 37 106 88 134 121l-57 32c-10 -12 -24 -26 -39 -41
c-265 11 -546 20 -739 25l-4 -62c101 -1 233 -4 376 -7v-68h-302v-175h302v-56h72v56h314v175zM642 251h303v61h-113v267h-71v-267h-120c-3 88 -24 193 -98 265c-10 -14 -39 -39 -54 -48c73 -71 81 -169 81 -248v-178h1c101 -9 223 -26 294 -49l40 56
c-71 21 -172 36 -263 44v97z" />
</svg>
