<?xml version="1.0" standalone="no"?>
<!DOCTYPE svg PUBLIC "-//W3C//DTD SVG 1.1//EN" "http://www.w3.org/Graphics/SVG/1.1/DTD/svg11.dtd" >
<svg xmlns="http://www.w3.org/2000/svg" xmlns:xlink="http://www.w3.org/1999/xlink" version="1.1" viewBox="-10 0 1010 1000">
   <path fill="currentColor"
d="M813 203h-189c22 56 55 106 97 148c41 -40 73 -89 92 -148zM294 363h-115v73h115v-73zM125 513v-174c-16 17 -32 35 -52 50c-10 -13 -28 -34 -43 -43c60 -47 102 -110 124 -162l16 2v-29h-116v-53h116v-60h63v60h106v-60h64v60h115v53h-115v46h-64v-46h-106v40h-19
c-5 11 -10 23 -15 34h288s0 18 -1 27l-1 15c61 -59 108 -143 136 -232l66 16c-10 29 -21 59 -33 86h294v60h-63c-25 78 -64 140 -116 191c52 39 116 70 187 86c-14 15 -34 43 -43 62c-75 -22 -140 -58 -195 -105c-57 42 -124 75 -201 100c-7 -15 -26 -45 -40 -59
c76 -20 140 -48 194 -87c-34 -38 -63 -82 -86 -131c-19 27 -38 50 -59 71c-9 -9 -26 -26 -42 -37c-7 153 -17 211 -36 234c-14 16 -30 22 -53 24c-20 2 -58 1 -96 -1c-1 -16 -7 -39 -16 -54c37 3 71 4 84 3c13 1 20 0 27 -8c12 -16 20 -70 27 -214h-250
c-10 15 -19 28 -30 42h208v159h-170v34h-54zM535 789v79c83 -2 170 -4 256 -6c-21 -19 -41 -38 -61 -53l42 -20h-237zM230 735h233v-86h-233v86zM777 649h-242v86h242v-86zM852 789h-56c55 45 119 106 151 146l-60 32c-10 -14 -24 -29 -40 -47c-276 9 -570 17 -757 20
l-4 -64c100 -1 232 -3 377 -6v-81h-305v-193h305v-51h72v51h317v193z" />
</svg>
