<?xml version="1.0" standalone="no"?>
<!DOCTYPE svg PUBLIC "-//W3C//DTD SVG 1.1//EN" "http://www.w3.org/Graphics/SVG/1.1/DTD/svg11.dtd" >
<svg xmlns="http://www.w3.org/2000/svg" xmlns:xlink="http://www.w3.org/1999/xlink" version="1.1" viewBox="-10 0 1010 1000">
   <path fill="currentColor"
d="M632 130v5c0 53 -19 113 -96 154c-9 -13 -35 -38 -47 -46c67 -33 79 -72 79 -109v-59h255v102c0 23 2 30 16 30h65c12 0 35 -1 46 -4c2 17 4 40 6 56c-11 4 -33 5 -51 5h-74c-62 0 -74 -25 -74 -88v-46h-125zM776 649h-240v83h240v-83zM536 862l249 -2
c-20 -19 -39 -36 -56 -51l35 -24h-228v77zM228 732h235v-83h-235v83zM151 319h96v-38h-96v38zM151 209v35h96v-35h-96zM408 209h-101v35h101v-35zM408 319v-38h-101v38h101zM808 347h-193c23 33 57 63 97 87c40 -22 72 -52 96 -87zM855 293l36 13c-25 67 -69 118 -123 156
c55 23 119 40 189 49c-14 12 -31 36 -38 54c-79 -13 -150 -37 -210 -69c-52 25 -111 42 -173 54v45h312v190h-54c54 46 118 106 152 142l-54 41c-14 -15 -31 -33 -51 -53c-271 5 -556 12 -752 14l-3 -65c102 1 234 0 377 -1v-78h-303v-190h303v-42h-364v-106h54v57h94v-69
h-193v-45h193v-34h-149v-184h149v-36h-182v-45h182v-47h60v47h188v45h-188v36h155v184h-155v34h194v45h-194v69h103v-57h56v99h50c-6 -15 -17 -33 -26 -44c58 -8 114 -21 164 -40c-40 -29 -73 -63 -97 -102l39 -13h-78v-52h325z" />
</svg>
