<?xml version="1.0" standalone="no"?>
<!DOCTYPE svg PUBLIC "-//W3C//DTD SVG 1.1//EN" "http://www.w3.org/Graphics/SVG/1.1/DTD/svg11.dtd" >
<svg xmlns="http://www.w3.org/2000/svg" xmlns:xlink="http://www.w3.org/1999/xlink" version="1.1" viewBox="-10 0 1010 1000">
   <path fill="currentColor"
d="M754 135v424h-63v-480h208l10 -3l44 24c-24 56 -53 108 -81 163c56 53 83 100 84 141c0 38 -14 67 -38 82c-12 8 -30 13 -46 15c-19 2 -47 2 -73 1c-1 -17 -8 -41 -19 -56c27 2 51 2 68 1c11 0 21 -2 27 -5c14 -8 20 -24 20 -44c-1 -34 -27 -73 -88 -124
c24 -50 46 -97 63 -139h-116zM585 153h-164v51h164v-51zM421 306h164v-59h-164v59zM681 499l-47 27c-9 -15 -21 -34 -37 -52c-205 47 -232 54 -249 64c-4 -15 -15 -41 -24 -54c14 -6 34 -18 34 -55v-322h110c-8 -20 -18 -41 -28 -59l58 -15c16 22 30 50 37 74h109v245h-223
v107l138 -29c-11 -11 -23 -22 -34 -32l45 -25c44 37 91 88 111 126zM303 272l55 10c-41 146 -147 241 -281 300c-6 -12 -22 -37 -33 -49c89 -34 164 -86 213 -160c-140 17 -162 22 -176 29v-1c-3 -11 -11 -37 -17 -51c17 -2 36 -16 59 -35c13 -11 40 -37 72 -70
c-83 8 -101 12 -112 17c-3 -12 -12 -39 -18 -51c14 -3 26 -12 40 -28c14 -14 64 -75 93 -134l48 28c-29 46 -64 91 -98 127l89 -6c17 -21 34 -41 48 -63l44 32c-50 62 -108 123 -164 171l119 -11c7 -18 14 -36 19 -55zM536 786v81c66 -1 132 -3 198 -5
c-30 -18 -62 -34 -91 -46l51 -30h-158zM256 733h207v-82h-207v82zM756 651h-220v82h220v-82zM827 786h-112c82 37 181 95 234 134l-62 40c-18 -15 -41 -30 -67 -48c-267 12 -550 23 -738 27l-8 -63c101 -1 239 -3 389 -7v-83h-276v-187h276v-50h73v50h291v187z" />
</svg>
