<?xml version="1.0" standalone="no"?>
<!DOCTYPE svg PUBLIC "-//W3C//DTD SVG 1.1//EN" "http://www.w3.org/Graphics/SVG/1.1/DTD/svg11.dtd" >
<svg xmlns="http://www.w3.org/2000/svg" xmlns:xlink="http://www.w3.org/1999/xlink" version="1.1" viewBox="-10 0 1010 1000">
   <path fill="currentColor"
d="M288 180v-41h-206v-50h206v-45h73v45h273v-45h72v45h214v50h-214v41h-72v-41h-273v41h-73zM533 448v54l119 -2c-12 -12 -24 -24 -36 -34l48 -18h-131zM824 548v-100h-156c43 33 87 80 106 115c16 0 28 0 35 -1c11 -1 15 -4 15 -14zM251 332h212v-35h-212v35zM251 228v33
h212v-33h-212zM753 261v-33h-220v33h220zM753 332v-35h-220v35h220zM240 554l-4 -49c61 -1 140 -1 227 -2v-55h-282v163h-71v-208h353v-33h-282v-180h644v180h-292v33h363v145c0 32 -7 46 -32 54s-67 8 -130 8c-2 -8 -6 -17 -10 -26l-3 1c-7 -13 -18 -27 -30 -43
c-166 6 -333 10 -451 12zM533 799v75c86 -1 176 -3 264 -5c-19 -18 -38 -35 -56 -49l41 -21h-249zM228 751h233v-69h-233v69zM777 682h-244v69h244v-69zM948 938l-57 32c-11 -14 -26 -32 -43 -50c-277 8 -569 15 -756 18l-5 -59c98 -1 230 -2 374 -4v-76h-301v-164h301v-53
h72v53h315v164h-44c54 42 114 99 144 139z" />
</svg>
