<?xml version="1.0" standalone="no"?>
<!DOCTYPE svg PUBLIC "-//W3C//DTD SVG 1.1//EN" "http://www.w3.org/Graphics/SVG/1.1/DTD/svg11.dtd" >
<svg xmlns="http://www.w3.org/2000/svg" xmlns:xlink="http://www.w3.org/1999/xlink" version="1.1" viewBox="-10 0 1010 1000">
   <path fill="currentColor"
d="M504 656h86v-87h-86v87zM736 569h-91v87h91v-87zM804 863l-49 14c-2 -11 -5 -23 -9 -37c-112 10 -222 18 -306 26l-7 -60c44 -2 98 -5 157 -9v-91h-137v-186h137v-60h55v60h143v186h-143v88l83 -6c-7 -18 -14 -36 -22 -52l46 -11c21 44 43 101 52 138zM324 519v-230h-71
v230h71zM132 289v230h68v-230h-68zM481 142v105h88v-105h-88zM622 142v105h92v-105h-92zM767 142v105h93v-105h-93zM555 377h378s-1 25 -1 34c-9 354 -16 475 -43 510c-16 22 -32 29 -59 32c-23 3 -62 2 -104 0c-1 -19 -7 -46 -17 -64c39 4 75 4 91 4c13 0 22 -2 30 -14
c18 -25 27 -132 35 -439h-351c-29 41 -61 78 -94 107c-9 -9 -24 -22 -38 -33v69h-124v187l75 -13c-12 -38 -25 -76 -40 -109l55 -16c33 72 62 167 71 230l-59 17c-2 -18 -6 -39 -11 -61c-107 21 -214 41 -296 58l-12 -70c43 -6 95 -14 153 -24v-199h-62v45h-58v-402h120
v-177h64v177h124v264c55 -49 104 -116 136 -186h-95v-219h497v219h-329c-11 25 -23 49 -36 73z" />
</svg>
