<?xml version="1.0" standalone="no"?>
<!DOCTYPE svg PUBLIC "-//W3C//DTD SVG 1.1//EN" "http://www.w3.org/Graphics/SVG/1.1/DTD/svg11.dtd" >
<svg xmlns="http://www.w3.org/2000/svg" xmlns:xlink="http://www.w3.org/1999/xlink" version="1.1" viewBox="-10 0 1010 1000">
   <path fill="currentColor"
d="M463 133h-145l32 13c-25 22 -54 43 -85 63h198v-76zM531 209h230c-39 -20 -80 -39 -117 -53l32 -23h-145v76zM154 599v-326c-23 12 -45 22 -67 32c-9 -12 -33 -37 -48 -46c85 -32 177 -77 239 -126h-191v-58h834v58h-196c85 37 182 89 237 127l-50 40
c-17 -13 -39 -27 -63 -42v279c0 31 -5 46 -26 55c-20 10 -51 10 -95 10c-2 -14 -8 -31 -14 -44c-12 -12 -29 -26 -48 -41c-29 23 -60 44 -90 60c-7 -8 -25 -23 -37 -29c31 -16 63 -35 91 -56c-18 -13 -38 -25 -55 -35l34 -25c18 9 37 20 55 32c18 -15 33 -31 46 -48l43 13
c-15 20 -33 41 -54 60c20 14 38 28 50 40l-25 20c21 1 38 1 45 0c8 0 11 -3 11 -11v-278h-249v308h-68v-308h-241v339h-68zM753 376l-35 31c-15 -13 -35 -28 -58 -44c-27 20 -56 38 -83 53c-7 -8 -25 -22 -36 -29c28 -13 56 -29 82 -47c-19 -11 -38 -21 -56 -29l33 -26
c19 8 39 18 59 29c17 -13 32 -27 45 -41l43 14c-15 16 -32 33 -51 49c22 14 43 28 57 40zM436 377l-35 30c-14 -13 -34 -28 -56 -42c-27 19 -55 37 -81 51c-7 -8 -26 -22 -36 -29c27 -13 54 -29 79 -46c-18 -10 -37 -21 -54 -29l34 -25c18 8 37 18 56 28
c17 -13 33 -28 46 -42l43 14c-15 17 -33 34 -52 50c22 14 42 28 56 40zM443 543l-35 28c-14 -14 -33 -30 -54 -46c-29 23 -59 44 -87 60c-8 -8 -26 -23 -37 -30c30 -16 60 -35 88 -56c-19 -13 -39 -26 -58 -36l33 -25c19 10 39 22 59 34c17 -15 32 -31 45 -48l43 13
c-15 20 -33 40 -53 59c22 17 42 33 56 47zM532 799v69c84 -1 172 -3 258 -5c-19 -18 -39 -36 -58 -51l32 -13h-232zM227 747h233v-67h-233v67zM776 680h-244v67h244v-67zM848 799h-43c54 44 114 100 144 140l-62 28c-11 -15 -27 -33 -45 -52c-275 8 -568 16 -756 19l-3 -61
c99 -1 232 -2 377 -4v-70h-301v-171h301v-44h72v44h316v171z" />
</svg>
