<?xml version="1.0" standalone="no"?>
<!DOCTYPE svg PUBLIC "-//W3C//DTD SVG 1.1//EN" "http://www.w3.org/Graphics/SVG/1.1/DTD/svg11.dtd" >
<svg xmlns="http://www.w3.org/2000/svg" xmlns:xlink="http://www.w3.org/1999/xlink" version="1.1" viewBox="-10 0 1010 1000">
   <path fill="currentColor"
d="M943 120v57h-544v-57h247c-13 -23 -30 -46 -45 -66l54 -24c23 26 48 62 64 90h224zM532 265v64h271v-64h-271zM868 373h-399v-152h399v152zM451 463v85h-61v-134h549v134h-63v-85h-425zM129 285v247h68v-247h-68zM310 532v-247h-62v247h62zM875 567l42 45
c-31 23 -69 47 -105 67c36 71 99 150 148 191c-14 11 -33 32 -44 48c-49 -48 -112 -137 -148 -214l-25 13c42 87 34 177 -4 214c-23 22 -45 29 -74 29c-15 0 -34 0 -54 -1c-2 -16 -7 -42 -17 -58c24 3 44 4 59 4c16 0 29 -1 40 -15c19 -18 26 -65 11 -119
c-78 65 -195 127 -295 160c-5 -12 -13 -28 -21 -41l-41 12c-3 -20 -7 -43 -11 -69c-102 22 -204 43 -283 59l-9 -66c41 -7 92 -17 148 -28v-203h-63v53h-55v-426h118v-173h61v173h112v373h-112v192l69 -13c-9 -39 -20 -76 -31 -109l53 -13c24 71 45 160 56 223
c102 -30 219 -90 285 -149c-6 -13 -15 -27 -23 -40c-65 49 -161 98 -240 124c-5 -13 -17 -33 -27 -44c80 -21 178 -65 239 -111c-11 -11 -23 -22 -37 -31c-47 32 -103 59 -155 79c-6 -11 -21 -35 -31 -46c68 -22 143 -54 193 -97h-132v-49h384v49h-186c-9 11 -20 22 -32 32
c33 24 60 52 81 81c52 -29 116 -73 156 -106z" />
</svg>
