<?xml version="1.0" standalone="no"?>
<!DOCTYPE svg PUBLIC "-//W3C//DTD SVG 1.1//EN" "http://www.w3.org/Graphics/SVG/1.1/DTD/svg11.dtd" >
<svg xmlns="http://www.w3.org/2000/svg" xmlns:xlink="http://www.w3.org/1999/xlink" version="1.1" viewBox="-10 0 1010 1000">
   <path fill="currentColor"
d="M313 529v-248h-69v248h69zM129 281v248h62v-248h-62zM802 723h-260c36 35 81 66 135 91c50 -24 93 -55 125 -91zM248 218h123v374h-123v189l74 -17c-9 -35 -19 -70 -29 -102l53 -10c26 78 50 178 60 244c70 -11 138 -28 202 -51c-58 -35 -107 -75 -143 -122h-52v-55h436
l13 -3l43 23c-36 64 -91 115 -158 157c65 22 136 40 209 50c-15 13 -33 40 -41 57c-84 -14 -165 -39 -237 -71c-82 38 -176 62 -269 79c-6 -17 -18 -42 -30 -57l-28 6c-3 -24 -8 -54 -14 -84c-101 24 -202 49 -282 68l-12 -68c40 -8 90 -19 144 -31v-202h-58v48h-53v-422
h109v-169h63v169zM681 383v-47h-153v47h153zM681 477v-50h-153v50h153zM681 572v-51h-153v51h153zM817 219h-67v-53h-144v53h-57l10 3c-8 21 -17 44 -28 65h142c-11 -21 -26 -46 -40 -65l52 -21c22 26 43 62 54 86h180v49h-174v47h156v44h-156v50h156v44h-156v51h197v50
h-414v31h-64v-251c-17 22 -34 44 -53 62c-8 -13 -27 -44 -40 -58c54 -49 101 -125 127 -202l41 12v-50h-150v-59h150v-63h67v63h144v-63h67v63h139v59h-139v53z" />
</svg>
