<?xml version="1.0" standalone="no"?>
<!DOCTYPE svg PUBLIC "-//W3C//DTD SVG 1.1//EN" "http://www.w3.org/Graphics/SVG/1.1/DTD/svg11.dtd" >
<svg xmlns="http://www.w3.org/2000/svg" xmlns:xlink="http://www.w3.org/1999/xlink" version="1.1" viewBox="-10 0 1010 1000">
   <path fill="currentColor"
d="M533 248v-65h-148v-59h148v-77h65v77h142v-77h65v77h144v59h-144v65h-65v-65h-142v65h-65zM130 283v250h63v-250h-63zM308 533v-250h-67v250h67zM375 868l-50 13c-2 -16 -5 -34 -8 -53c-95 22 -192 44 -267 61l-12 -64c42 -8 94 -18 151 -30v-200h-59v54h-55v-427h112
v-173h59v173h117v373h-117v188l59 -14c-8 -39 -19 -80 -28 -115l48 -12c21 73 42 165 50 226zM624 419h87v-102h-87v102zM570 419v-102h-85v102h85zM766 317v102h89v-102h-89zM838 648l61 18c-28 54 -67 102 -111 144c29 50 61 77 90 77c19 0 26 -23 30 -86
c14 14 32 23 48 29c-10 92 -31 118 -81 118s-97 -36 -135 -97c-52 41 -110 74 -170 102c-6 -14 -25 -41 -38 -55c65 -26 127 -59 180 -101c-22 -49 -40 -107 -51 -173h-172v55v15l13 -11c51 25 115 65 147 94l-43 42c-27 -25 -74 -58 -119 -85c-6 74 -26 159 -77 222
c-11 -12 -40 -31 -55 -37c61 -73 70 -170 70 -241v-113h227c-4 -29 -7 -61 -8 -92h-221v-210h496v210h-211c1 32 3 63 7 92h123c-24 -20 -57 -42 -87 -58l40 -33c37 18 82 47 104 67l-26 24h76v59h-221c10 49 22 92 37 129c31 -32 58 -67 77 -105z" />
</svg>
