<?xml version="1.0" standalone="no"?>
<!DOCTYPE svg PUBLIC "-//W3C//DTD SVG 1.1//EN" "http://www.w3.org/Graphics/SVG/1.1/DTD/svg11.dtd" >
<svg xmlns="http://www.w3.org/2000/svg" xmlns:xlink="http://www.w3.org/1999/xlink" version="1.1" viewBox="-10 0 1010 1000">
   <path fill="currentColor"
d="M572 536h106v-59h-106v59zM572 378v57h106v-57h-106zM847 435v-57h-114v57h114zM847 536v-59h-114v59h114zM934 632v262c0 28 -5 44 -26 52c-23 9 -57 10 -114 10c-3 -15 -11 -36 -19 -50c42 1 77 1 88 0s14 -4 14 -13v-209h-144v86l65 -3c-7 -18 -15 -36 -23 -51l39 -10
c23 44 46 101 53 138l-42 12c-2 -12 -5 -25 -9 -40c-89 6 -176 12 -245 17l-5 -54c32 -1 70 -4 112 -6v-89h-133v272h-58v-324h191v-51h-162v-248h389v248h-172v51h201zM827 162v59h121v51h-121v49h-60v-49h-122v49h-60v-49h-115v-51h115v-59h60v59h122v-59h60zM128 282v229
h62v-229h-62zM303 511v-229h-67v229h67zM948 89v59h-483v344c0 144 -11 337 -94 463c-12 -10 -38 -27 -53 -34c14 -21 25 -43 35 -67l-30 8c-1 -16 -4 -33 -7 -52c-95 20 -191 39 -265 53l-11 -64c40 -6 90 -14 145 -24v-203h-57v37h-53v-388h110v-172h57v172h114v351h-114
v192l62 -12c-9 -39 -21 -78 -33 -113l49 -13c22 56 40 125 50 180c31 -102 34 -217 34 -314v-403h544z" />
</svg>
