<?xml version="1.0" standalone="no"?>
<!DOCTYPE svg PUBLIC "-//W3C//DTD SVG 1.1//EN" "http://www.w3.org/Graphics/SVG/1.1/DTD/svg11.dtd" >
<svg xmlns="http://www.w3.org/2000/svg" xmlns:xlink="http://www.w3.org/1999/xlink" version="1.1" viewBox="-10 0 1010 1000">
   <path fill="currentColor"
d="M855 591h-183c-88 0 -117 -13 -117 -75v-262h274v-39h-274v-172h68v48h303v44h-303v39h272v122h-272v34h249v37h-249v32h245v35h-245v35h262v36h-262v10c0 27 8 32 55 32h170c36 0 44 -12 47 -79c15 9 38 16 55 19c-6 82 -26 104 -95 104zM366 147h-161
c11 22 22 51 26 70l-8 2h115c9 -23 22 -51 28 -72zM511 219v50h-455v-50h115c-5 -19 -14 -42 -21 -61l50 -11h-117v-49h174c-8 -17 -16 -33 -25 -47l60 -12c13 18 26 40 34 59h164v49h-111l46 11c-11 22 -20 43 -29 61h115zM183 458h210v-38h-210v38zM393 344h-210v39h210
v-39zM460 302v230c0 30 -7 41 -29 49c-20 8 -56 8 -104 8c-3 -14 -12 -31 -19 -44c34 1 63 1 72 0c10 0 13 -3 13 -12v-38h-210v97h-65v-290h342zM536 794v70c81 -1 165 -2 248 -3c-21 -19 -41 -36 -60 -51l33 -16h-221zM228 744h236v-69h-236v69zM774 675h-238v69h238v-69z
M846 794h-51c57 44 121 104 152 144l-60 31c-13 -16 -29 -34 -48 -55c-269 6 -554 12 -749 14l-4 -63c102 1 235 0 378 -1v-70h-304v-169h304v-47h72v47h310v169z" />
</svg>
