<?xml version="1.0" standalone="no"?>
<!DOCTYPE svg PUBLIC "-//W3C//DTD SVG 1.1//EN" "http://www.w3.org/Graphics/SVG/1.1/DTD/svg11.dtd" >
<svg xmlns="http://www.w3.org/2000/svg" xmlns:xlink="http://www.w3.org/1999/xlink" version="1.1" viewBox="-10 0 1010 1000">
   <path fill="currentColor"
d="M654 131v60h-278v-60h112c-8 -25 -17 -52 -26 -75l59 -12c11 26 25 61 33 87h100zM493 318l-51 17c-6 -32 -21 -82 -35 -119l48 -15c15 38 31 87 38 117zM122 285v247h57v-247h-57zM286 532v-247h-58v247h58zM271 665l50 -13c25 77 49 177 59 244l-53 15
c-3 -22 -7 -48 -13 -75c-94 21 -188 40 -262 56l-8 -67c36 -6 81 -14 131 -24v-206h-53v53h-51v-426h104v-173h57v173h106v373h-106v195l69 -14c-10 -39 -20 -77 -30 -111zM455 713h121v-73h-121v73zM576 515h-121v73h121v-73zM636 459v418c0 29 -5 46 -24 57
c-18 10 -45 11 -85 11c-3 -16 -11 -41 -20 -58c27 1 50 0 58 0s11 -2 11 -11v-111h-121v191h-61v-497h242zM573 196l55 17c-14 42 -29 89 -44 128h74v61h-295v-61h169c16 -44 32 -103 41 -145zM781 883h90c20 0 25 -11 27 -73c14 12 39 23 58 27c-7 85 -26 110 -79 110h-104
c-67 0 -86 -19 -86 -95v-444h177v-94h-177v-271h64v84h196v61h-196v69h178v208h-178v58h172v52h-172v59h165v52h-165v61h182v51h-182v54c0 26 5 31 30 31z" />
</svg>
