<?xml version="1.0" standalone="no"?>
<!DOCTYPE svg PUBLIC "-//W3C//DTD SVG 1.1//EN" "http://www.w3.org/Graphics/SVG/1.1/DTD/svg11.dtd" >
<svg xmlns="http://www.w3.org/2000/svg" xmlns:xlink="http://www.w3.org/1999/xlink" version="1.1" viewBox="-10 0 1010 1000">
   <path fill="currentColor"
d="M872 141v-33h-124v33h124zM872 214v-35h-124v35h124zM872 287v-35h-124v35h124zM928 70v256h-235v-256h235zM469 252v35h121v-35h-121zM469 179v35h121v-35h-121zM469 108v33h121v-33h-121zM673 463v-40h-162v40h162zM673 541v-38h-162v38h162zM673 622v-42h-162v42h162z
M446 697v-200c-16 17 -31 32 -47 46c-7 -13 -26 -42 -37 -54c52 -41 103 -100 133 -163h-81v-256h232v256h-136l44 14c-6 13 -13 25 -20 38h143c-5 -11 -12 -22 -17 -32l61 -14c9 13 19 31 27 46h178v45h-185v40h163v40h-163v38h164v39h-164v42h197v46h-427v29h-65zM134 287
v236h62v-236h-62zM299 523v-236h-55v236h55zM397 878l-56 17c-3 -18 -7 -41 -13 -64c-96 20 -192 41 -270 57l-12 -71c39 -7 89 -16 142 -27v-204h-54v47h-57v-409h112v-176h62v176h106v362h-106v193l60 -12c-13 -39 -28 -79 -42 -113l52 -16c35 76 65 175 76 240zM800 761
h-258c32 30 77 56 131 76c51 -20 95 -46 127 -76zM863 706l42 22c-35 57 -89 101 -153 135c63 17 132 28 205 34c-15 14 -32 39 -40 56c-87 -10 -170 -28 -242 -56c-80 31 -168 50 -257 62c-6 -17 -21 -41 -32 -56c73 -7 145 -19 212 -39c-49 -26 -90 -56 -120 -91l34 -12
h-82v-53h421z" />
</svg>
