<?xml version="1.0" standalone="no"?>
<!DOCTYPE svg PUBLIC "-//W3C//DTD SVG 1.1//EN" "http://www.w3.org/Graphics/SVG/1.1/DTD/svg11.dtd" >
<svg xmlns="http://www.w3.org/2000/svg" xmlns:xlink="http://www.w3.org/1999/xlink" version="1.1" viewBox="-10 0 1010 1000">
   <path fill="currentColor"
d="M618 746l202 -28v-121h-202v149zM820 182h-202v139h202v-139zM618 388v143h202v-143h-202zM142 271v500l54 -11v-489h-54zM296 271h-55v480l55 -12v-468zM399 717v-446h-58v459zM961 763l-72 12v182h-69v-172c-127 20 -250 39 -343 53l-10 -68c-150 35 -306 70 -418 94
l-15 -71l55 -11v-570h107c18 -50 37 -118 48 -167l79 16c-17 50 -36 107 -54 151h184v494l45 -10l6 66l46 -6v-574h-72v-68h478v68h-67v526l69 -10z" />
</svg>
