<?xml version="1.0" standalone="no"?>
<!DOCTYPE svg PUBLIC "-//W3C//DTD SVG 1.1//EN" "http://www.w3.org/Graphics/SVG/1.1/DTD/svg11.dtd" >
<svg xmlns="http://www.w3.org/2000/svg" xmlns:xlink="http://www.w3.org/1999/xlink" version="1.1" viewBox="-10 0 1010 1000">
   <path fill="currentColor"
d="M941 93v69h-330v-69h330zM560 182l-46 55c-32 -35 -99 -84 -153 -115l45 -50c53 30 121 76 154 110zM237 44l67 24c-56 85 -147 178 -228 238c-10 -15 -29 -40 -41 -54c75 -52 160 -137 202 -208zM267 239l65 23c-25 47 -56 93 -89 138v558h-73v-470
c-32 34 -65 66 -97 93c-8 -15 -29 -49 -43 -65c88 -67 180 -173 237 -277zM531 436l-41 60c-36 -32 -109 -76 -166 -103l40 -53c57 25 131 65 167 96zM392 934l-60 -46c55 -81 135 -220 193 -339l52 46c-54 111 -126 244 -185 339zM956 367v69h-121v430c0 43 -8 64 -37 77
c-29 12 -78 12 -149 12c-3 -20 -12 -51 -22 -72c55 1 103 1 117 0c15 -1 19 -4 19 -18v-429h-174v-69h367z" />
</svg>
