<?xml version="1.0" standalone="no"?>
<!DOCTYPE svg PUBLIC "-//W3C//DTD SVG 1.1//EN" "http://www.w3.org/Graphics/SVG/1.1/DTD/svg11.dtd" >
<svg xmlns="http://www.w3.org/2000/svg" xmlns:xlink="http://www.w3.org/1999/xlink" version="1.1" viewBox="-10 0 1010 1000">
   <path fill="currentColor"
d="M940 109v69h-262v-69h262zM220 50l67 24c-49 91 -125 191 -193 254c-9 -14 -33 -45 -47 -59c65 -55 132 -138 173 -219zM632 234h-212c-28 47 -58 89 -90 122c-4 -10 -15 -31 -25 -47c-20 38 -44 76 -69 114v532h-70v-439c-25 31 -52 60 -77 85c-9 -15 -34 -47 -48 -61
c77 -70 159 -176 210 -279l50 18c54 -58 101 -140 127 -226l65 19c-11 30 -22 62 -36 91h175v71zM517 801l115 -59c2 21 9 49 15 64c-172 93 -199 109 -215 125c-5 -18 -22 -49 -36 -65c20 -11 52 -39 52 -81v-177h-135v-68h135v-132h-90v-67h258v67h-99v132h118v68h-118
v193zM955 350v70h-90v439c0 42 -9 62 -36 75c-29 12 -74 13 -147 13c-3 -21 -11 -51 -21 -72c53 1 100 1 114 0c14 0 19 -4 19 -17v-438h-140v-70h301z" />
</svg>
