<?xml version="1.0" standalone="no"?>
<!DOCTYPE svg PUBLIC "-//W3C//DTD SVG 1.1//EN" "http://www.w3.org/Graphics/SVG/1.1/DTD/svg11.dtd" >
<svg xmlns="http://www.w3.org/2000/svg" xmlns:xlink="http://www.w3.org/1999/xlink" version="1.1" viewBox="-10 0 1010 1000">
   <path fill="currentColor"
d="M942 105v68h-231v-68h231zM201 43l68 26c-49 79 -126 170 -197 228c-9 -14 -28 -42 -40 -55c64 -51 133 -133 169 -199zM581 177h-108c-6 31 -12 61 -17 87h125v-87zM286 323v-56c-19 40 -43 82 -68 123v565h-68v-467c-28 38 -58 72 -86 102c-8 -15 -31 -50 -44 -65
c75 -72 153 -178 202 -283l64 23v-1h105c6 -26 12 -57 17 -87h-93v-56h103c5 -27 9 -54 11 -77l64 4c-3 23 -7 48 -11 73h162v143h64v59h-422zM364 779h129v-94h-114c-5 30 -10 64 -15 94zM380 424v94h226v-94h-226zM720 836h-159v121h-68v-121h-201c8 -41 18 -101 25 -151
h-41v-56h217v-58h-171v-199h346v199h-107v58h135v56h-135v94h159v57zM960 372v69h-87v420c0 41 -7 61 -35 74c-27 12 -71 13 -137 13c-2 -21 -11 -50 -20 -71c49 1 93 1 105 1c14 -1 17 -4 17 -17v-420h-109v-69h266z" />
</svg>
