<?xml version="1.0" standalone="no"?>
<!DOCTYPE svg PUBLIC "-//W3C//DTD SVG 1.1//EN" "http://www.w3.org/Graphics/SVG/1.1/DTD/svg11.dtd" >
<svg xmlns="http://www.w3.org/2000/svg" xmlns:xlink="http://www.w3.org/1999/xlink" version="1.1" viewBox="-10 0 1010 1000">
   <path fill="currentColor"
d="M934 113v67h-205v-67h205zM201 43l67 26c-45 80 -116 173 -182 233c-9 -14 -27 -42 -40 -55c59 -53 122 -137 155 -204zM541 187h-118c-15 30 -31 61 -50 90h127c14 -25 29 -59 41 -90zM617 417v-86h-89v86h89zM617 557v-88h-89v88h89zM378 417h94v-86h-94v86zM472 469
h-94v88h94v-88zM321 611v-261c-5 5 -9 11 -14 16c-11 -14 -32 -32 -49 -41c-12 24 -25 48 -39 71v561h-68v-458c-24 34 -48 64 -73 90c-7 -15 -29 -50 -43 -64c70 -72 142 -179 187 -283l66 22c-7 17 -15 33 -24 49c72 -80 118 -182 140 -264l67 9c-7 23 -15 46 -24 70h124
l11 -4l44 29c-15 41 -36 86 -58 124h108v334h-355zM467 626h66c-2 19 -4 36 -7 53h175v62h-166c58 43 118 96 150 134l-45 46c-31 -37 -88 -91 -144 -135c-32 73 -88 127 -186 162c-8 -15 -25 -38 -38 -50c97 -33 146 -85 171 -157h-155v-62h172c3 -17 5 -34 7 -53zM954 357
v69h-82v444c0 38 -6 57 -31 69c-23 12 -59 13 -114 13c-3 -19 -11 -48 -21 -68c39 1 74 1 85 0c11 0 14 -3 14 -14v-444h-99v-69h248z" />
</svg>
