<?xml version="1.0" standalone="no"?>
<!DOCTYPE svg PUBLIC "-//W3C//DTD SVG 1.1//EN" "http://www.w3.org/Graphics/SVG/1.1/DTD/svg11.dtd" >
<svg xmlns="http://www.w3.org/2000/svg" xmlns:xlink="http://www.w3.org/1999/xlink" version="1.1" viewBox="-10 0 1010 1000">
   <path fill="currentColor"
d="M399 175l-60 41c-17 -36 -56 -92 -93 -131l57 -36c39 38 78 90 96 126zM516 413l57 47c-35 32 -72 66 -104 93c51 40 104 83 123 100l-42 62c-37 -37 -120 -112 -182 -163v405h-74v-400c-68 59 -140 111 -208 150c-8 -19 -27 -53 -40 -67c143 -74 301 -209 391 -348h-344
v-71h390l13 -4l45 33c-42 81 -101 160 -169 230c14 10 31 23 51 38c32 -31 70 -74 93 -105z" />
</svg>
