<?xml version="1.0" standalone="no"?>
<!DOCTYPE svg PUBLIC "-//W3C//DTD SVG 1.1//EN" "http://www.w3.org/Graphics/SVG/1.1/DTD/svg11.dtd" >
<svg xmlns="http://www.w3.org/2000/svg" xmlns:xlink="http://www.w3.org/1999/xlink" version="1.1" viewBox="-10 0 1010 1000">
   <path fill="currentColor"
d="M293 179l-59 35c-17 -37 -54 -97 -85 -140l57 -31c32 44 69 100 87 136zM360 412l46 40c-30 33 -61 67 -89 92c34 38 66 75 78 89l-41 58c-19 -31 -63 -90 -100 -138v404h-67v-402c-40 48 -82 90 -123 123c-5 -17 -24 -50 -35 -63c95 -73 198 -200 256 -327h-228v-68h263
l14 -3l37 25c-28 78 -69 156 -117 225v8c9 9 20 21 32 34c26 -29 57 -69 74 -97zM850 331h-146c-3 32 -8 65 -14 98c60 87 128 198 160 267v-365zM487 331v364c96 -112 131 -243 144 -364h-144zM920 263v597c0 43 -9 64 -38 77c-30 12 -79 13 -157 13
c-2 -20 -13 -51 -23 -71c58 2 112 2 128 1c15 -1 20 -6 20 -20v-161l-60 36c-25 -56 -73 -141 -121 -218c-26 81 -67 162 -132 235c-12 -12 -32 -28 -50 -38v241h-69v-692h218c2 -29 2 -59 2 -86v-132h72v132c0 27 0 57 -2 86h212z" />
</svg>
