<?xml version="1.0" standalone="no"?>
<!DOCTYPE svg PUBLIC "-//W3C//DTD SVG 1.1//EN" "http://www.w3.org/Graphics/SVG/1.1/DTD/svg11.dtd" >
<svg xmlns="http://www.w3.org/2000/svg" xmlns:xlink="http://www.w3.org/1999/xlink" version="1.1" viewBox="-10 0 1010 1000">
   <path fill="currentColor"
d="M156 93l47 -41c36 37 75 88 93 123l-51 46c-17 -37 -55 -90 -89 -128zM397 645l-41 59c-20 -32 -61 -90 -97 -136v389h-67v-378c-40 49 -81 93 -122 127c-7 -18 -26 -53 -38 -66c98 -78 206 -216 266 -351h-245v-68h279l13 -3l39 29c-29 82 -73 164 -122 238
c8 9 18 21 29 33c23 -30 47 -67 62 -95l46 41c-26 31 -52 65 -75 92c31 37 61 74 73 89zM523 560v-153h67v154c0 137 -13 285 -133 399c-14 -14 -43 -34 -62 -44c116 -105 128 -236 128 -356zM752 956v-549h67v549h-67zM641 34l69 12c-4 12 -9 26 -15 40
c58 120 164 237 271 294c-16 14 -36 39 -47 58c-95 -59 -191 -164 -255 -280c-53 106 -132 210 -247 289c-8 -17 -27 -43 -42 -54c145 -95 230 -239 266 -359z" />
</svg>
