<?xml version="1.0" standalone="no"?>
<!DOCTYPE svg PUBLIC "-//W3C//DTD SVG 1.1//EN" "http://www.w3.org/Graphics/SVG/1.1/DTD/svg11.dtd" >
<svg xmlns="http://www.w3.org/2000/svg" xmlns:xlink="http://www.w3.org/1999/xlink" version="1.1" viewBox="-10 0 1010 1000">
   <path fill="currentColor"
d="M948 117v58h-890v-58h420c-10 -22 -23 -45 -35 -64l69 -12c16 22 34 51 45 76h391zM716 441v105c0 35 -6 53 -31 64c-24 11 -62 12 -116 12c-3 -20 -13 -45 -22 -64c41 1 76 1 86 1c11 0 14 -4 14 -14v-104h-17c-115 83 -323 154 -502 181c-6 -18 -18 -41 -31 -57
c148 -15 317 -64 431 -124h-318v-1h-53c15 -36 32 -86 46 -128l67 8c-7 21 -14 41 -22 61h399v-87h-494v-57h708v57h-145v87h188v60h-188zM790 632l53 36c-44 40 -101 82 -150 116c75 45 166 78 265 96c-15 13 -31 39 -41 57c-185 -40 -341 -132 -428 -268
c-40 23 -85 43 -132 61v132l195 -40c0 18 4 44 7 57c-201 45 -252 57 -276 66l-9 6c-7 -14 -21 -41 -33 -55c18 -5 44 -19 44 -52v-89c-62 20 -126 37 -186 47c-9 -17 -28 -43 -42 -57c163 -24 355 -83 451 -156l59 29c-9 7 -18 14 -28 21c27 42 64 80 107 112
c50 -35 108 -83 144 -119z" />
</svg>
