<?xml version="1.0" standalone="no"?>
<!DOCTYPE svg PUBLIC "-//W3C//DTD SVG 1.1//EN" "http://www.w3.org/Graphics/SVG/1.1/DTD/svg11.dtd" >
<svg xmlns="http://www.w3.org/2000/svg" xmlns:xlink="http://www.w3.org/1999/xlink" version="1.1" viewBox="-10 0 1010 1000">
   <path fill="currentColor"
d="M274 167l-54 40c-16 -35 -51 -91 -79 -131l52 -35c30 40 65 92 81 126zM383 626l-40 61c-19 -30 -61 -87 -97 -133v401h-67v-388c-36 46 -74 87 -111 119c-6 -20 -24 -57 -35 -71c90 -73 189 -202 245 -327h-223v-68h258l13 -3l38 30c-29 78 -70 155 -116 226
c9 9 20 20 31 34c27 -30 57 -69 75 -97l46 42c-29 31 -61 65 -88 91c30 34 61 69 71 83zM807 487h-284c30 84 75 160 134 223c63 -61 115 -136 150 -223zM852 415l48 20c-38 134 -106 242 -191 326c70 60 154 105 251 133c-16 13 -38 43 -49 62c-99 -31 -186 -81 -257 -146
c-83 67 -178 115 -278 147c-8 -18 -27 -49 -42 -65c97 -27 189 -72 269 -135c-64 -71 -114 -158 -150 -257l43 -13h-72v-69h194v-149h-208v-69h208v-157h73v157h234v69h-234v149h148z" />
</svg>
