<?xml version="1.0" standalone="no"?>
<!DOCTYPE svg PUBLIC "-//W3C//DTD SVG 1.1//EN" "http://www.w3.org/Graphics/SVG/1.1/DTD/svg11.dtd" >
<svg xmlns="http://www.w3.org/2000/svg" xmlns:xlink="http://www.w3.org/1999/xlink" version="1.1" viewBox="-10 0 1010 1000">
   <path fill="currentColor"
d="M830 638l55 39c-54 39 -122 78 -182 108c67 47 151 79 249 97c-16 14 -34 41 -43 60c-199 -44 -338 -145 -414 -305c-41 33 -92 63 -148 91v141l204 -45c-3 18 -3 46 -2 61c-237 55 -269 63 -288 76c-5 -17 -19 -44 -30 -58c18 -9 46 -27 46 -67v-78
c-65 26 -132 46 -196 60c-9 -18 -27 -43 -43 -57c132 -25 280 -76 377 -139h-354v-63h392c-10 -24 -23 -49 -35 -70l67 -19c18 26 36 62 47 89h404v63h-376c23 48 55 89 95 125c59 -31 131 -75 175 -109zM191 402v-61h552l13 -5l51 29c-51 59 -116 129 -174 188l-61 -31
c39 -38 80 -82 114 -120h-495zM585 301l-57 38c-22 -33 -71 -81 -112 -116l53 -33c42 31 92 78 116 111zM507 40l54 32c-7 7 -14 14 -21 20c100 75 278 148 423 180c-16 15 -38 44 -49 62c-139 -39 -310 -119 -418 -204c-114 90 -269 166 -410 211c-11 -19 -29 -46 -47 -63
c170 -47 363 -134 468 -238z" />
</svg>
