<?xml version="1.0" standalone="no"?>
<!DOCTYPE svg PUBLIC "-//W3C//DTD SVG 1.1//EN" "http://www.w3.org/Graphics/SVG/1.1/DTD/svg11.dtd" >
<svg xmlns="http://www.w3.org/2000/svg" xmlns:xlink="http://www.w3.org/1999/xlink" version="1.1" viewBox="-10 0 1010 1000">
   <path fill="currentColor"
d="M281 167l-56 40c-15 -35 -51 -91 -80 -131l53 -35c31 40 66 92 83 126zM352 413l46 42c-29 31 -58 64 -83 89c30 35 59 70 71 84l-42 60c-19 -30 -59 -87 -93 -133v401h-68v-391c-38 47 -78 88 -117 121c-6 -19 -24 -56 -35 -70c94 -74 194 -202 252 -328h-223v-68h258
l13 -3l38 30c-29 78 -70 156 -117 226c8 9 19 20 30 34c25 -29 53 -68 70 -94zM794 562l13 58c-125 62 -259 127 -361 175l-26 -71c93 -37 237 -100 374 -162zM504 411l43 -38c73 43 158 102 201 143l-47 46c-43 -43 -126 -108 -197 -151zM564 203h372s-1 29 -1 39
c-13 471 -25 624 -61 673c-20 28 -41 37 -74 41c-31 3 -82 2 -132 -1c-2 -21 -9 -51 -21 -71c55 5 105 5 127 5c18 1 28 -2 37 -16c30 -33 43 -189 55 -601h-332c-29 63 -63 119 -97 164c-14 -11 -44 -31 -62 -40c73 -86 134 -219 169 -353l69 17c-13 49 -30 97 -49 143z
" />
</svg>
