<?xml version="1.0" standalone="no"?>
<!DOCTYPE svg PUBLIC "-//W3C//DTD SVG 1.1//EN" "http://www.w3.org/Graphics/SVG/1.1/DTD/svg11.dtd" >
<svg xmlns="http://www.w3.org/2000/svg" xmlns:xlink="http://www.w3.org/1999/xlink" version="1.1" viewBox="-10 0 1010 1000">
   <path fill="currentColor"
d="M847 389h71s-1 17 -2 26c-9 82 -18 120 -36 137c-15 13 -31 18 -54 19c-20 1 -60 1 -102 -2c-1 -14 -8 -35 -15 -50c38 4 72 4 86 4c13 0 20 -1 26 -6c9 -9 15 -28 21 -67h-673v-324h225c15 -27 30 -62 38 -87l79 12c-14 26 -29 52 -44 75h353s-1 19 -2 30
c-10 101 -19 146 -38 163c-14 15 -30 20 -53 21c-18 2 -57 2 -94 -1c-1 -17 -8 -41 -17 -57c34 3 65 4 78 4s20 -1 24 -8c10 -9 17 -34 23 -91h-499v203h605v-1zM563 305l-42 49c-39 -31 -115 -74 -178 -99l40 -44c62 24 139 62 180 94zM799 663l62 41
c-41 30 -92 61 -137 85c68 42 148 73 236 92c-17 15 -36 43 -46 62c-187 -45 -335 -147 -421 -294c-42 37 -95 70 -153 99v119l231 -47c-2 19 0 45 2 60c-263 58 -296 67 -316 79c-5 -16 -16 -45 -25 -59c17 -6 41 -19 41 -56v-65c-62 27 -128 48 -190 66
c-10 -15 -33 -44 -47 -57c134 -30 275 -81 370 -150h-350v-62h415c-10 -24 -23 -51 -36 -73l67 -18c16 28 35 64 47 91h398v62h-381c27 42 63 80 104 114c46 -27 97 -62 129 -89z" />
</svg>
