<?xml version="1.0" standalone="no"?>
<!DOCTYPE svg PUBLIC "-//W3C//DTD SVG 1.1//EN" "http://www.w3.org/Graphics/SVG/1.1/DTD/svg11.dtd" >
<svg xmlns="http://www.w3.org/2000/svg" xmlns:xlink="http://www.w3.org/1999/xlink" version="1.1" viewBox="-10 0 1010 1000">
   <path fill="currentColor"
d="M277 167l-54 40c-15 -35 -51 -91 -79 -132l52 -34c30 40 65 92 81 126zM583 239l49 -27c40 57 86 132 107 181l-50 30c-21 -49 -67 -127 -106 -184zM529 459h275v-306h-275v306zM956 459v69h-85v337c0 38 -8 58 -31 71c-24 11 -60 13 -119 13c-2 -19 -12 -49 -22 -67
c40 1 78 1 88 0c13 0 17 -4 17 -17v-337h-275c-4 141 -27 311 -130 423c-11 -13 -39 -35 -55 -42c96 -105 115 -252 118 -381h-74v-63c-26 28 -54 57 -78 80c31 36 63 73 74 88l-41 59c-19 -31 -62 -90 -98 -137v401h-67v-390c-37 47 -75 88 -113 120
c-7 -19 -24 -56 -36 -70c92 -73 192 -202 248 -328h-226v-68h261l12 -3l38 30c-29 78 -70 155 -116 226c9 10 20 22 32 36c27 -30 58 -71 77 -99l46 41l-8 8h69v-375h409v375h85z" />
</svg>
