<?xml version="1.0" standalone="no"?>
<!DOCTYPE svg PUBLIC "-//W3C//DTD SVG 1.1//EN" "http://www.w3.org/Graphics/SVG/1.1/DTD/svg11.dtd" >
<svg xmlns="http://www.w3.org/2000/svg" xmlns:xlink="http://www.w3.org/1999/xlink" version="1.1" viewBox="-10 0 1010 1000">
   <path fill="currentColor"
d="M864 141l-47 40c-31 -29 -94 -69 -144 -96l45 -36c50 25 114 63 146 92zM324 230l209 -19c-16 -50 -27 -106 -31 -165h73c4 57 16 111 32 158l325 -28l7 62l-303 27c51 94 129 151 210 150c29 0 37 -24 43 -95c16 14 41 25 59 31c-11 107 -38 135 -106 135
c-120 0 -224 -83 -285 -213l-225 20zM557 501l-69 30c-12 -29 -42 -77 -68 -109l64 -27c29 33 59 77 73 106zM198 486v-215c-37 37 -76 70 -115 97c-11 -14 -39 -42 -55 -55c101 -63 203 -164 264 -269l68 25c-25 43 -56 85 -90 126v291h-72zM835 614l58 43
c-52 37 -120 76 -177 104c67 48 149 82 246 101c-17 15 -37 44 -46 64c-202 -47 -339 -156 -414 -327h-1c-42 38 -96 74 -155 105v142l221 -49c0 19 2 46 5 61c-256 61 -289 71 -310 85c-3 -17 -14 -46 -24 -60c15 -6 37 -15 37 -52v-92c-64 30 -130 53 -192 70
c-9 -17 -29 -42 -44 -56c124 -30 267 -87 363 -154h-343v-66h884v66h-367c24 46 55 86 92 122c56 -31 125 -75 167 -107z" />
</svg>
