<?xml version="1.0" standalone="no"?>
<!DOCTYPE svg PUBLIC "-//W3C//DTD SVG 1.1//EN" "http://www.w3.org/Graphics/SVG/1.1/DTD/svg11.dtd" >
<svg xmlns="http://www.w3.org/2000/svg" xmlns:xlink="http://www.w3.org/1999/xlink" version="1.1" viewBox="-10 0 1010 1000">
   <path fill="currentColor"
d="M273 175l-60 33c-19 -35 -58 -93 -91 -134l57 -29c35 42 74 94 94 130zM385 627l-42 54c-19 -29 -59 -84 -94 -130v405h-69v-399c-36 45 -74 86 -110 118c-7 -20 -25 -54 -37 -66c89 -72 184 -199 240 -321h-213v-68h248l12 -3l40 28c-28 74 -67 148 -111 217v10
c8 9 19 19 29 32c22 -27 46 -64 60 -89l48 38c-26 31 -53 63 -75 88c31 35 62 72 74 86zM932 521h-190c54 121 141 243 224 307c-17 13 -42 39 -54 58c-77 -70 -156 -190 -211 -312v382h-73v-374c-63 127 -155 243 -246 311c-13 -18 -36 -45 -54 -58
c99 -63 200 -189 259 -314h-169v-70h210v-168h-229v-70h229v-169h73v169h249v70h-249v168h231v70z" />
</svg>
