<?xml version="1.0" standalone="no"?>
<!DOCTYPE svg PUBLIC "-//W3C//DTD SVG 1.1//EN" "http://www.w3.org/Graphics/SVG/1.1/DTD/svg11.dtd" >
<svg xmlns="http://www.w3.org/2000/svg" xmlns:xlink="http://www.w3.org/1999/xlink" version="1.1" viewBox="-10 0 1010 1000">
   <path fill="currentColor"
d="M292 167l-54 40c-16 -35 -50 -91 -78 -131l51 -34c30 40 65 92 81 125zM373 410l45 41c-30 32 -61 66 -87 91c28 32 56 63 67 76l-40 61c-19 -29 -59 -82 -94 -126v403h-67v-396c-40 48 -81 92 -122 126c-5 -20 -23 -57 -34 -71c93 -73 196 -201 254 -327h-235v-68h270
l11 -3l39 30c-29 76 -70 152 -116 222v3c9 9 21 21 33 35c27 -30 58 -69 76 -97zM710 621h128v-148h-128v148zM520 473v148h122v-148h-122zM642 259h-122v148h122v-148zM838 259h-128v148h128v-148zM958 621v67h-52v186c0 39 -9 59 -34 71s-64 13 -129 13
c-3 -19 -13 -48 -23 -67c46 2 88 1 100 1c13 0 18 -4 18 -18v-186h-318v268h-67v-268h-50v-67h50v-429h189v-141h68v141h196v429h52z" />
</svg>
