<?xml version="1.0" standalone="no"?>
<!DOCTYPE svg PUBLIC "-//W3C//DTD SVG 1.1//EN" "http://www.w3.org/Graphics/SVG/1.1/DTD/svg11.dtd" >
<svg xmlns="http://www.w3.org/2000/svg" xmlns:xlink="http://www.w3.org/1999/xlink" version="1.1" viewBox="-10 0 1010 1000">
   <path fill="currentColor"
d="M271 167l-54 40c-15 -35 -50 -91 -78 -131l51 -35c29 40 65 92 81 126zM346 415l44 42c-27 29 -57 61 -82 85c30 34 60 68 71 82l-40 61c-19 -31 -61 -88 -97 -134v405h-66v-390c-35 45 -73 84 -108 116c-7 -20 -24 -57 -35 -71c89 -72 187 -199 241 -323h-215v-68h250
l11 -3l39 29c-29 79 -69 156 -115 227c9 9 20 20 31 33c25 -27 53 -64 71 -91zM954 913l-67 28c-7 -21 -18 -48 -31 -75c-379 36 -421 41 -450 53c-4 -15 -16 -51 -26 -70c26 -7 58 -37 104 -85c28 -28 94 -102 166 -194c-174 14 -202 19 -221 26c-4 -15 -15 -50 -22 -69
c17 -4 36 -24 58 -53c21 -25 81 -110 128 -201h-200v-69h269c-17 -39 -50 -95 -77 -135l61 -30c31 43 65 100 83 138l-50 27h271v69h-276c-47 86 -103 171 -160 240l187 -12c34 -48 68 -99 99 -149l66 37c-110 166 -236 321 -359 442l319 -27c-24 -48 -54 -97 -82 -139
l61 -24c61 85 125 198 149 272z" />
</svg>
