<?xml version="1.0" standalone="no"?>
<!DOCTYPE svg PUBLIC "-//W3C//DTD SVG 1.1//EN" "http://www.w3.org/Graphics/SVG/1.1/DTD/svg11.dtd" >
<svg xmlns="http://www.w3.org/2000/svg" xmlns:xlink="http://www.w3.org/1999/xlink" version="1.1" viewBox="-10 0 1010 1000">
   <path fill="currentColor"
d="M279 167l-53 40c-16 -35 -50 -91 -77 -131l50 -34c29 40 64 92 80 125zM359 410l45 41c-29 32 -62 67 -88 93c30 36 61 73 72 88l-41 60c-18 -31 -60 -90 -95 -137v401h-66v-397c-39 50 -81 93 -121 127c-5 -20 -22 -57 -33 -71c92 -73 193 -201 250 -327h-231v-68h266
l12 -3l37 30c-28 76 -68 152 -114 221v3c9 10 20 22 31 36c27 -30 58 -69 76 -97zM963 918l-71 35c-11 -22 -24 -47 -41 -77c-361 38 -404 43 -431 56c-5 -16 -18 -53 -27 -72c20 -5 40 -29 65 -65c25 -31 93 -139 144 -253h-193v-71h224v-184h-200v-71h200v-172h76v172h207
v71h-207v184h246v71h-265c-51 108 -116 216 -181 301l306 -29c-32 -52 -67 -107 -97 -153l65 -28c62 91 142 214 180 285z" />
</svg>
