<?xml version="1.0" standalone="no"?>
<!DOCTYPE svg PUBLIC "-//W3C//DTD SVG 1.1//EN" "http://www.w3.org/Graphics/SVG/1.1/DTD/svg11.dtd" >
<svg xmlns="http://www.w3.org/2000/svg" xmlns:xlink="http://www.w3.org/1999/xlink" version="1.1" viewBox="-10 0 1010 1000">
   <path fill="currentColor"
d="M286 167l-55 40c-16 -35 -50 -91 -79 -131l51 -34c31 40 65 92 83 125zM330 410l45 41c-28 29 -58 59 -84 81c30 34 60 69 71 83l-41 59c-17 -28 -54 -79 -86 -121v403h-66v-392c-33 41 -68 78 -101 107c-7 -20 -23 -56 -34 -70c86 -71 180 -193 233 -313h-216v-68h251
l12 -3l37 30c-28 78 -68 155 -115 225c7 6 15 15 23 24c25 -26 54 -62 71 -86zM579 190l-7 8c26 42 63 79 106 112c47 -35 87 -75 119 -120h-218zM851 126l45 24c-38 78 -95 144 -162 199c69 42 152 73 238 90c-15 15 -33 42 -43 62c-91 -23 -177 -61 -250 -111
c-82 55 -174 96 -264 125c-8 -19 -24 -45 -37 -60c84 -22 170 -60 247 -107c-37 -32 -68 -67 -94 -105c-31 29 -64 57 -101 82c-9 -16 -30 -39 -44 -49c103 -66 175 -157 213 -232l70 12c-13 24 -29 49 -45 74h215zM727 601v137h212v66h-212v153h-69v-153h-249
c15 -47 32 -115 41 -170h66c-8 34 -16 71 -24 104h166v-137h-231v-63h231v-77h69v77h184v63h-184z" />
</svg>
