<?xml version="1.0" standalone="no"?>
<!DOCTYPE svg PUBLIC "-//W3C//DTD SVG 1.1//EN" "http://www.w3.org/Graphics/SVG/1.1/DTD/svg11.dtd" >
<svg xmlns="http://www.w3.org/2000/svg" xmlns:xlink="http://www.w3.org/1999/xlink" version="1.1" viewBox="-10 0 1010 1000">
   <path fill="currentColor"
d="M276 166l-55 40c-15 -35 -50 -91 -78 -131l52 -34c29 40 65 92 81 125zM383 626l-41 60c-18 -30 -59 -86 -94 -132v402h-67v-390c-37 47 -76 88 -114 120c-7 -20 -23 -57 -35 -71c91 -73 191 -201 247 -327h-220v-68h255l12 -3l39 30c-29 78 -70 155 -116 225
c8 9 18 19 28 32c26 -30 55 -70 72 -97l46 42c-29 31 -60 64 -85 91c31 35 62 72 73 86zM947 542h-195c51 118 135 238 215 301c-17 13 -40 38 -53 58c-69 -65 -141 -174 -192 -286v341h-70v-343c-61 122 -149 233 -238 298c-12 -17 -34 -43 -50 -56
c99 -63 197 -187 254 -313h-207v-68h241v-176h-131c-18 56 -39 106 -63 146c-14 -10 -44 -29 -61 -37c52 -78 82 -197 100 -318l69 12c-7 44 -16 88 -26 129h112v-186h70v186h191v68h-191v176h225v68z" />
</svg>
