<?xml version="1.0" standalone="no"?>
<!DOCTYPE svg PUBLIC "-//W3C//DTD SVG 1.1//EN" "http://www.w3.org/Graphics/SVG/1.1/DTD/svg11.dtd" >
<svg xmlns="http://www.w3.org/2000/svg" xmlns:xlink="http://www.w3.org/1999/xlink" version="1.1" viewBox="-10 0 1010 1000">
   <path fill="currentColor"
d="M371 422l44 32c-23 35 -53 72 -77 101c30 35 59 71 70 84l-45 51c-19 -32 -66 -95 -103 -143v410h-71v-372c-40 47 -81 89 -122 122c-7 -18 -26 -51 -38 -64c101 -75 207 -209 266 -346h-238v-68h177c-20 -43 -62 -100 -103 -142l53 -32c45 42 91 101 110 142l-48 32h83
l14 -3l39 26c-27 78 -66 155 -112 225c10 11 23 25 37 42c23 -31 49 -70 64 -97zM837 775l-54 23c-19 -70 -58 -178 -101 -279c-16 103 -53 207 -137 296c-10 -12 -32 -31 -46 -40c102 -107 128 -236 135 -353h-120v-62h122v-18v-156h58v156v18h135v62h-131
c56 118 113 265 139 353zM486 831h371v-675h-371v675zM418 88h509v862h-70v-52h-371v60h-68v-870z" />
</svg>
