<?xml version="1.0" standalone="no"?>
<!DOCTYPE svg PUBLIC "-//W3C//DTD SVG 1.1//EN" "http://www.w3.org/Graphics/SVG/1.1/DTD/svg11.dtd" >
<svg xmlns="http://www.w3.org/2000/svg" xmlns:xlink="http://www.w3.org/1999/xlink" version="1.1" viewBox="-10 0 1010 1000">
   <path fill="currentColor"
d="M932 116v67h-320v-67h320zM505 56l62 23c-47 86 -121 177 -186 237c-8 -12 -32 -42 -45 -55c64 -52 128 -129 169 -205zM257 175l-57 32c-15 -34 -49 -89 -78 -128l54 -29c31 40 66 91 81 125zM308 411l44 33c-24 36 -51 73 -74 101c25 34 49 68 58 81l-40 49
c-14 -28 -47 -80 -75 -123v400h-63v-376c-31 46 -63 87 -94 120c-8 -17 -27 -48 -38 -60c81 -80 167 -217 215 -349h-184v-66h213l13 -3l36 24c-24 78 -58 156 -97 228c8 10 18 23 28 38c22 -31 44 -69 58 -97zM525 263l62 23c-20 42 -44 84 -70 125v543h-65v-451
c-24 32 -49 60 -73 84c-8 -13 -30 -46 -43 -60c71 -67 144 -166 189 -264zM957 355v66h-109v449c0 39 -9 61 -37 72c-29 12 -74 13 -142 13c-4 -20 -15 -49 -26 -69c53 2 103 2 116 1c15 0 20 -4 20 -17v-449h-200v-66h378z" />
</svg>
