<?xml version="1.0" standalone="no"?>
<!DOCTYPE svg PUBLIC "-//W3C//DTD SVG 1.1//EN" "http://www.w3.org/Graphics/SVG/1.1/DTD/svg11.dtd" >
<svg xmlns="http://www.w3.org/2000/svg" xmlns:xlink="http://www.w3.org/1999/xlink" version="1.1" viewBox="-10 0 1010 1000">
   <path fill="currentColor"
d="M867 96l73 25c-31 79 -68 177 -100 236l-60 -22c30 -62 68 -167 87 -239zM566 324l-69 22c-7 -58 -39 -151 -75 -222l63 -20c38 70 72 161 81 220zM307 171l-61 38c-16 -36 -55 -92 -86 -131l58 -33c32 39 71 91 89 126zM421 626l-43 58c-22 -31 -70 -91 -111 -137v409
h-73v-384c-40 46 -81 86 -121 120c-6 -21 -26 -56 -38 -69c100 -75 206 -205 268 -333h-251v-70h289l14 -3l41 29c-30 78 -74 156 -124 228l35 35c25 -28 52 -65 68 -89l49 40c-27 29 -56 60 -82 84c34 34 66 68 79 82zM713 45v356h199v556h-73v-43h-430v-71h430v-155h-381
v-70h381v-146h-404v-71h205v-356h73z" />
</svg>
