<?xml version="1.0" standalone="no"?>
<!DOCTYPE svg PUBLIC "-//W3C//DTD SVG 1.1//EN" "http://www.w3.org/Graphics/SVG/1.1/DTD/svg11.dtd" >
<svg xmlns="http://www.w3.org/2000/svg" xmlns:xlink="http://www.w3.org/1999/xlink" version="1.1" viewBox="-10 0 1010 1000">
   <path fill="currentColor"
d="M935 104v70h-530v-70h530zM825 507v-168h-309v168h309zM898 273v301h-451v-301h451zM612 829l-67 19c-7 -58 -35 -150 -64 -217l64 -19c31 69 57 158 67 217zM277 173l-60 39c-15 -36 -51 -90 -84 -130l56 -34c35 37 72 90 88 125zM390 602l-44 54
c-18 -28 -57 -77 -90 -119v418h-71v-400c-37 42 -75 79 -114 108c-6 -20 -23 -57 -34 -71c95 -68 194 -189 250 -309h-231v-68h269l13 -3l40 28c-28 76 -69 152 -117 220c10 9 21 22 35 36c21 -26 43 -59 56 -82l47 33c-24 29 -50 60 -71 85c26 29 51 59 62 70zM774 859h184
v69h-599v-69h349c30 -70 62 -176 80 -251l78 15c-27 78 -61 170 -92 236z" />
</svg>
