<?xml version="1.0" standalone="no"?>
<!DOCTYPE svg PUBLIC "-//W3C//DTD SVG 1.1//EN" "http://www.w3.org/Graphics/SVG/1.1/DTD/svg11.dtd" >
<svg xmlns="http://www.w3.org/2000/svg" xmlns:xlink="http://www.w3.org/1999/xlink" version="1.1" viewBox="-10 0 1010 1000">
   <path fill="currentColor"
d="M263 166l-50 41c-14 -35 -45 -91 -71 -132l47 -34c27 39 59 91 74 125zM335 410l41 42c-27 32 -56 66 -82 93c29 36 56 72 67 87l-37 60c-17 -31 -55 -89 -87 -136v400h-61v-397c-37 49 -75 93 -112 127c-6 -20 -21 -57 -31 -70c85 -74 178 -202 231 -328h-213v-68h245
l12 -3l33 30c-25 75 -62 151 -104 220v5c8 10 19 23 29 37c25 -31 54 -71 69 -99zM849 621l-39 47c-20 -37 -76 -125 -117 -185v321h-59v-329c-38 87 -88 169 -136 217c-10 -14 -27 -33 -41 -43c60 -53 125 -158 161 -258h-137v-57h153v-138h59v138h138v57h-138v24
c36 42 134 173 156 206zM453 841h402v-683h-402v683zM389 94h533v864h-67v-51h-402v51h-64v-864z" />
</svg>
