<?xml version="1.0" standalone="no"?>
<!DOCTYPE svg PUBLIC "-//W3C//DTD SVG 1.1//EN" "http://www.w3.org/Graphics/SVG/1.1/DTD/svg11.dtd" >
<svg xmlns="http://www.w3.org/2000/svg" xmlns:xlink="http://www.w3.org/1999/xlink" version="1.1" viewBox="-10 0 1010 1000">
   <path fill="currentColor"
d="M287 167l-55 40c-16 -35 -51 -91 -79 -131l52 -35c30 40 65 92 82 126zM384 602l-40 60c-18 -28 -59 -79 -92 -119v411h-67v-389c-39 47 -79 89 -119 121c-5 -19 -23 -57 -34 -71c95 -73 198 -201 257 -327h-227v-68h262l13 -3l38 30c-29 77 -71 153 -118 222
c10 10 22 23 36 37c22 -29 47 -67 62 -94l45 41c-24 30 -50 63 -73 88c25 26 49 50 57 61zM520 492v86h266v-86h-266zM786 212h-266v81h266v-81zM786 434v-83h-266v83h266zM888 440l68 25c-29 49 -63 96 -99 141v251c0 46 -10 67 -41 79s-85 13 -162 13
c-4 -20 -14 -51 -23 -71c59 2 117 2 133 2c17 -1 22 -6 22 -23v-176c-111 110 -246 198 -390 261c-11 -15 -35 -44 -51 -58c144 -56 278 -138 384 -242h-334v-64h55v-427h130c14 -34 31 -74 39 -104l78 15c-15 30 -30 62 -44 89h204v340c11 -17 22 -33 31 -51z" />
</svg>
