<?xml version="1.0" standalone="no"?>
<!DOCTYPE svg PUBLIC "-//W3C//DTD SVG 1.1//EN" "http://www.w3.org/Graphics/SVG/1.1/DTD/svg11.dtd" >
<svg xmlns="http://www.w3.org/2000/svg" xmlns:xlink="http://www.w3.org/1999/xlink" version="1.1" viewBox="-10 0 1010 1000">
   <path fill="currentColor"
d="M925 110v55h-850v-55h404c-12 -20 -28 -40 -43 -56l69 -18c21 21 44 49 58 74h362zM274 249v52h443v-52h-443zM793 344h-592v-138h592v138zM459 423h-243v57h243v-57zM779 480v-57h-247v57h247zM824 648l54 39c-52 38 -119 77 -178 107c77 47 167 82 262 102
c-15 14 -35 41 -43 58c-176 -44 -336 -141 -430 -272c-42 24 -90 46 -142 66v119l221 -28c0 17 3 43 5 57c-256 37 -288 44 -309 54c-5 -14 -21 -41 -32 -54c18 -6 44 -20 44 -52v-72c-61 20 -125 36 -191 50c-9 -15 -27 -39 -40 -51c160 -32 319 -81 415 -140h-105
c-161 0 -213 -16 -213 -95v-158h711v146h-637v11c0 35 19 44 133 44h429c76 0 91 -10 98 -67c17 9 44 16 64 19c-11 82 -42 100 -156 100h-248l18 8l-14 11c27 40 65 76 109 109c60 -31 131 -77 175 -111z" />
</svg>
