<?xml version="1.0" standalone="no"?>
<!DOCTYPE svg PUBLIC "-//W3C//DTD SVG 1.1//EN" "http://www.w3.org/Graphics/SVG/1.1/DTD/svg11.dtd" >
<svg xmlns="http://www.w3.org/2000/svg" xmlns:xlink="http://www.w3.org/1999/xlink" version="1.1" viewBox="-10 0 1010 1000">
   <path fill="currentColor"
d="M951 295l-62 33c-29 -57 -99 -141 -163 -200l57 -29c65 56 137 139 168 196zM766 257l75 17c-90 133 -295 192 -495 224c-7 -16 -30 -47 -42 -62c195 -22 389 -71 462 -179zM655 45v297h-73v-297h73zM440 107l67 17c-30 83 -79 168 -127 223c-14 -10 -42 -30 -59 -39
c50 -51 93 -126 119 -201zM315 124l-40 51c-34 -28 -99 -64 -153 -82l39 -45c55 17 120 51 154 76zM116 515l-44 -53c50 -40 128 -109 202 -175l27 53c-62 61 -130 124 -185 175zM240 248l-39 52c-33 -26 -99 -58 -151 -75l38 -47c53 15 118 45 152 70zM831 652l55 41
c-48 34 -109 70 -163 97c65 46 145 79 235 99c-16 13 -34 41 -43 59c-188 -47 -331 -154 -410 -313c-44 39 -101 74 -164 105v121l218 -41c-1 18 0 44 2 59c-255 53 -289 62 -311 73c-4 -15 -14 -44 -24 -57c19 -5 45 -17 45 -53v-71c-62 26 -125 46 -185 61
c-9 -17 -27 -41 -41 -55c130 -26 278 -83 375 -150h-366v-58h433c-11 -23 -26 -48 -40 -68l74 -19c21 25 40 61 52 87h373v58h-374c27 47 61 89 103 125c54 -29 117 -70 156 -100z" />
</svg>
