<?xml version="1.0" standalone="no"?>
<!DOCTYPE svg PUBLIC "-//W3C//DTD SVG 1.1//EN" "http://www.w3.org/Graphics/SVG/1.1/DTD/svg11.dtd" >
<svg xmlns="http://www.w3.org/2000/svg" xmlns:xlink="http://www.w3.org/1999/xlink" version="1.1" viewBox="-10 0 1010 1000">
   <path fill="currentColor"
d="M268 174l-60 33c-16 -35 -52 -90 -82 -129l57 -28c32 39 68 91 85 124zM323 411l47 33c-27 35 -55 73 -79 100c26 35 51 68 61 82l-42 49c-16 -28 -51 -81 -81 -125v402h-65v-376c-32 46 -67 87 -100 120c-8 -17 -27 -48 -39 -60c85 -80 176 -217 226 -349h-194v-66h227
l12 -3l38 24c-25 78 -60 156 -102 228c8 10 18 22 30 37c23 -30 47 -69 61 -96zM437 612h58v128h94v-169h-180v-56h180v-105h-67c-18 32 -41 64 -66 92c-11 -13 -33 -29 -47 -37c54 -58 93 -131 113 -190l61 10c-9 22 -18 46 -30 69h245v56h-148v105h177v56h-177v169h90
v-128h59v184h-362v-184zM946 182v39c-8 493 -14 649 -46 694c-19 28 -39 37 -69 40s-80 2 -129 0c-1 -20 -8 -47 -19 -65c52 4 99 5 120 5c16 0 25 -3 35 -17c24 -33 32 -189 39 -631h-395c-30 62 -66 118 -103 162c-12 -12 -42 -32 -59 -42c73 -79 133 -200 166 -324l70 15
c-12 42 -28 84 -44 124h434z" />
</svg>
