<?xml version="1.0" standalone="no"?>
<!DOCTYPE svg PUBLIC "-//W3C//DTD SVG 1.1//EN" "http://www.w3.org/Graphics/SVG/1.1/DTD/svg11.dtd" >
<svg xmlns="http://www.w3.org/2000/svg" xmlns:xlink="http://www.w3.org/1999/xlink" version="1.1" viewBox="-10 0 1010 1000">
   <path fill="currentColor"
d="M940 318v61h-546v-61h237v-109h-193v-61h193v-104h68v104h201v61h-201v109h241zM710 438l27 -46c67 26 159 72 208 105l-28 53c-47 -33 -138 -82 -207 -112zM405 569l-34 -55c59 -27 139 -75 198 -124l41 37c-63 54 -145 108 -205 142zM274 167l-53 40
c-15 -35 -48 -91 -75 -132l50 -34c29 40 62 92 78 126zM379 633l-39 59c-19 -32 -60 -91 -94 -138v402h-64v-396c-38 49 -78 92 -118 127c-5 -20 -22 -57 -33 -71c90 -74 189 -202 245 -328h-226v-68h259l11 -3l38 30c-28 77 -67 154 -112 223v2c9 9 20 21 32 36
c26 -29 56 -69 73 -98l45 41c-30 33 -60 68 -87 94c30 36 59 73 70 88zM580 618l-10 12c26 47 60 89 101 125c47 -37 87 -82 116 -137h-207zM835 555l41 27c-34 88 -87 158 -151 214c67 45 148 77 238 94c-14 16 -32 45 -42 65c-95 -22 -181 -62 -252 -117
c-84 57 -184 95 -289 119c-6 -19 -21 -51 -33 -66c99 -19 192 -51 270 -99c-35 -34 -65 -74 -90 -118c-31 30 -67 58 -109 83c-9 -17 -29 -41 -43 -51c115 -65 192 -160 231 -241l65 13c-12 27 -28 54 -46 80h197z" />
</svg>
