<?xml version="1.0" standalone="no"?>
<!DOCTYPE svg PUBLIC "-//W3C//DTD SVG 1.1//EN" "http://www.w3.org/Graphics/SVG/1.1/DTD/svg11.dtd" >
<svg xmlns="http://www.w3.org/2000/svg" xmlns:xlink="http://www.w3.org/1999/xlink" version="1.1" viewBox="-10 0 1010 1000">
   <path fill="currentColor"
d="M265 175l-59 33c-18 -35 -58 -93 -90 -134l57 -29c33 41 74 94 92 130zM342 622l-45 53c-13 -28 -44 -78 -71 -121v402h-67v-385c-26 38 -54 72 -80 101c-7 -18 -27 -51 -38 -63c75 -76 155 -203 202 -323h-182v-66h212l12 -3l38 26c-24 75 -58 151 -97 221
c8 9 18 21 29 36c19 -26 40 -58 52 -80l48 39c-24 28 -49 58 -70 82c24 34 49 67 57 81zM888 548l51 53c-47 40 -107 84 -157 117c43 71 100 127 172 160c-16 15 -38 42 -48 61c-137 -73 -219 -219 -263 -406c-24 30 -50 58 -78 84v232l132 -52c0 20 3 48 7 64
c-174 75 -201 88 -216 101c-5 -17 -18 -47 -30 -62c15 -8 37 -24 37 -64v-162c-40 29 -82 55 -123 76c-9 -14 -33 -43 -47 -57c96 -42 190 -107 253 -184h-205v-64h244v-88h-202v-61h202v-79h-225v-62h225v-110h72v110h223v62h-223v79h203v61h-203v88h245v64h-233
c13 55 30 107 53 153c46 -34 100 -80 134 -114z" />
</svg>
