<?xml version="1.0" standalone="no"?>
<!DOCTYPE svg PUBLIC "-//W3C//DTD SVG 1.1//EN" "http://www.w3.org/Graphics/SVG/1.1/DTD/svg11.dtd" >
<svg xmlns="http://www.w3.org/2000/svg" xmlns:xlink="http://www.w3.org/1999/xlink" version="1.1" viewBox="-10 0 1010 1000">
   <path fill="currentColor"
d="M299 182l-67 32c-14 -38 -49 -98 -79 -142l64 -27c31 43 66 100 82 137zM510 286v88h310v-88h-310zM510 143v87h310v-87h-310zM532 533h399s-1 22 -2 31c-16 241 -31 330 -59 361c-17 20 -34 27 -60 29c-21 2 -61 2 -101 0c-2 -21 -8 -50 -19 -68c39 3 75 4 91 4
c14 0 23 -1 31 -11c19 -19 33 -94 46 -284h-67c-46 152 -125 278 -221 363c-11 -11 -38 -32 -53 -40c95 -75 166 -190 208 -323h-83c-51 116 -131 215 -221 280c-9 -10 -34 -33 -48 -43c83 -56 156 -140 201 -237h-82c-29 41 -63 78 -96 108c-7 -9 -21 -21 -34 -32l-7 9
c-19 -29 -58 -81 -93 -124v409h-71v-387c-39 47 -79 90 -119 123c-6 -19 -25 -54 -38 -67c99 -78 205 -215 265 -347h-248v-68h284v1l12 -3l41 28c-29 79 -72 159 -121 231l19 20c26 -29 55 -67 72 -93l52 42c-31 30 -62 64 -88 89c27 30 54 61 70 79
c47 -49 87 -111 114 -177h-65v-354h451v354h-315c-12 33 -28 66 -45 97z" />
</svg>
