<?xml version="1.0" standalone="no"?>
<!DOCTYPE svg PUBLIC "-//W3C//DTD SVG 1.1//EN" "http://www.w3.org/Graphics/SVG/1.1/DTD/svg11.dtd" >
<svg xmlns="http://www.w3.org/2000/svg" xmlns:xlink="http://www.w3.org/1999/xlink" version="1.1" viewBox="-10 0 1010 1000">
   <path fill="currentColor"
d="M929 376l-45 57c-50 -37 -142 -91 -226 -131c-42 63 -114 104 -235 131c-6 -16 -24 -43 -37 -55c146 -31 210 -81 240 -169h-215v-64h229c5 -30 8 -65 10 -102h71c-2 37 -5 71 -9 102h217v64h-230c-4 13 -7 24 -12 36c85 38 187 92 242 131zM259 166l-50 41
c-14 -35 -45 -91 -70 -132l48 -35c26 40 57 92 72 126zM331 410l41 41c-28 32 -57 68 -81 93c28 36 54 73 65 88l-37 60c-17 -31 -53 -88 -85 -135v399h-62v-393c-35 48 -73 91 -108 124c-7 -21 -22 -58 -32 -72c83 -73 176 -201 228 -327h-211v-68h242l11 -3l34 31
c-25 76 -61 152 -102 222v3c8 9 18 21 28 35c24 -30 52 -70 69 -98zM640 641h-139v124h139v-124zM703 825h-202v61h-62v-304h264v243zM955 448v65h-86v360c0 41 -7 60 -35 71c-29 11 -74 12 -144 12c-3 -20 -12 -47 -20 -67c52 2 99 1 113 0c13 0 18 -3 18 -16v-360h-421
v-65h575z" />
</svg>
