<?xml version="1.0" standalone="no"?>
<!DOCTYPE svg PUBLIC "-//W3C//DTD SVG 1.1//EN" "http://www.w3.org/Graphics/SVG/1.1/DTD/svg11.dtd" >
<svg xmlns="http://www.w3.org/2000/svg" xmlns:xlink="http://www.w3.org/1999/xlink" version="1.1" viewBox="-10 0 1010 1000">
   <path fill="currentColor"
d="M812 228v-81h-300v81h300zM812 364v-82h-300v82h300zM882 91v329h-438v-329h438zM275 167l-54 40c-14 -35 -48 -91 -75 -132l51 -34c28 40 62 92 78 126zM380 633l-40 60c-19 -33 -59 -92 -93 -139v402h-65v-395c-38 49 -78 92 -117 126c-6 -20 -23 -57 -33 -71
c90 -74 188 -202 244 -328h-225v-68h259l11 -3l39 30c-28 77 -68 153 -113 222v2c9 9 20 22 32 37c26 -31 55 -70 74 -98l44 41c-29 32 -60 67 -87 94c30 35 60 73 70 88zM698 728v135c28 4 59 6 91 6c23 0 145 0 177 -1c-9 17 -20 48 -23 67h-158
c-138 0 -240 -28 -305 -154c-27 71 -66 132 -114 179c-12 -12 -42 -34 -58 -43c85 -72 130 -185 149 -326l69 10c-5 35 -12 70 -20 101c27 76 68 118 121 141v-293h-241v-65h564v65h-252v114h206v64h-206z" />
</svg>
