<?xml version="1.0" standalone="no"?>
<!DOCTYPE svg PUBLIC "-//W3C//DTD SVG 1.1//EN" "http://www.w3.org/Graphics/SVG/1.1/DTD/svg11.dtd" >
<svg xmlns="http://www.w3.org/2000/svg" xmlns:xlink="http://www.w3.org/1999/xlink" version="1.1" viewBox="-10 0 1010 1000">
   <path fill="currentColor"
d="M463 139v91h-70v-149h546v149h-73v-91h-403zM286 167l-54 40c-17 -35 -52 -92 -79 -132l51 -34c31 40 66 92 82 126zM393 633l-41 60c-19 -33 -62 -91 -98 -139v402h-67v-396c-40 49 -83 93 -123 127c-6 -20 -24 -57 -35 -71c94 -73 198 -202 257 -328h-235v-68h270
l12 -3l38 30c-28 77 -70 154 -117 223v2c9 10 21 23 33 36c28 -29 59 -69 78 -98l46 42c-31 32 -64 67 -91 93c31 36 61 73 73 88zM495 639h130v-76h-130v76zM495 436v75h130v-75h-130zM834 436h-136v75h136v-75zM834 639v-76h-136v76h136zM954 763v61h-256v133h-73v-133
h-256v-61h256v-69h-199v-313h199v-67h-207v-57h207v-82h73v82h215v57h-215v67h207v313h-207v69h256z" />
</svg>
