<?xml version="1.0" standalone="no"?>
<!DOCTYPE svg PUBLIC "-//W3C//DTD SVG 1.1//EN" "http://www.w3.org/Graphics/SVG/1.1/DTD/svg11.dtd" >
<svg xmlns="http://www.w3.org/2000/svg" xmlns:xlink="http://www.w3.org/1999/xlink" version="1.1" viewBox="-10 0 1010 1000">
   <path fill="currentColor"
d="M931 118v58h-863v-58h406c-11 -23 -25 -46 -37 -66l74 -16c17 24 34 56 47 82h373zM827 310h-125v87h125v-87zM827 540v-89h-125v89h125zM523 451v89h114v-89h-114zM523 310v87h114v-87h-114zM637 195h65v60h189v340h-430v-340h176v-60zM366 194l51 45
c-65 23 -152 43 -232 56v78h217v58h-217v110l227 -30c-1 18 -1 44 0 58c-255 38 -287 45 -308 55v-1l-1 1c-5 -14 -16 -42 -27 -56c16 -5 39 -16 39 -47v-265c90 -15 193 -38 251 -62zM815 644l61 34c-60 44 -138 86 -203 116c78 54 179 91 296 108c-14 16 -33 43 -42 61
c-206 -39 -359 -133 -441 -288c-41 25 -89 47 -140 66v128l221 -29c1 18 3 45 6 60c-214 32 -272 42 -298 50l-12 7c-4 -14 -18 -42 -30 -57c18 -4 42 -16 42 -49v-85c-62 20 -128 36 -196 51c-9 -16 -29 -42 -42 -55c180 -35 357 -91 447 -160l67 29l-13 10
c22 44 51 82 88 115c64 -31 142 -78 189 -112z" />
</svg>
