<?xml version="1.0" standalone="no"?>
<!DOCTYPE svg PUBLIC "-//W3C//DTD SVG 1.1//EN" "http://www.w3.org/Graphics/SVG/1.1/DTD/svg11.dtd" >
<svg xmlns="http://www.w3.org/2000/svg" xmlns:xlink="http://www.w3.org/1999/xlink" version="1.1" viewBox="-10 0 1010 1000">
   <path fill="currentColor"
d="M255 173l-57 32c-15 -35 -48 -90 -77 -129l54 -28c31 38 64 90 80 125zM292 427l45 34c-23 29 -48 57 -69 80c26 34 50 68 59 81l-39 50c-14 -27 -46 -76 -74 -118v402h-64v-367c-25 35 -50 67 -74 94c-8 -17 -27 -48 -38 -59c77 -78 158 -211 203 -337h-184v-66h214
l11 -3l37 24c-24 80 -59 162 -100 235l20 26c20 -24 40 -55 53 -76zM473 49l66 14c-15 63 -33 126 -54 186v706h-67v-558c-17 30 -34 57 -53 82c-7 -15 -27 -48 -41 -64c70 -89 120 -226 149 -366zM634 142v191h195v-191h-195zM936 583h-131c36 101 97 207 156 261
c-15 10 -37 33 -47 50c-53 -56 -105 -156 -142 -256v318h-67v-320c-40 106 -100 204 -164 261c-11 -16 -32 -39 -46 -50c67 -53 132 -159 171 -264h-145v-67h184v-123h-138v-310h332v310h-127v123h164v67z" />
</svg>
