<?xml version="1.0" standalone="no"?>
<!DOCTYPE svg PUBLIC "-//W3C//DTD SVG 1.1//EN" "http://www.w3.org/Graphics/SVG/1.1/DTD/svg11.dtd" >
<svg xmlns="http://www.w3.org/2000/svg" xmlns:xlink="http://www.w3.org/1999/xlink" version="1.1" viewBox="-10 0 1010 1000">
   <path fill="currentColor"
d="M800 576h-146c-12 22 -25 44 -36 64c35 13 73 29 109 45c34 -29 58 -64 73 -109zM939 576h-78c-13 55 -39 99 -75 135c47 22 90 45 123 64l-45 46c-33 -21 -79 -45 -130 -70c-56 35 -130 60 -226 76c-5 -17 -17 -42 -27 -55c79 -10 140 -27 189 -50
c-46 -21 -93 -39 -136 -54c19 -26 38 -58 57 -92h-98v-55h126c10 -22 19 -43 27 -63l60 11c-7 17 -15 34 -24 52h257v55zM829 307v-59h-233v59h233zM829 411v-60h-233v60h233zM893 203v253h-359v-253h359zM266 167l-53 40c-15 -35 -50 -92 -77 -132l50 -34
c29 40 64 92 80 126zM332 417l43 41c-25 31 -51 64 -75 88c28 34 54 68 65 81l-41 61c-17 -30 -54 -85 -86 -131v399h-66v-391c-35 44 -72 83 -107 114c-7 -20 -23 -57 -34 -70c89 -73 184 -199 239 -322h-214v-67h247l12 -3l36 30c-27 78 -67 155 -113 226
c9 10 19 22 31 36c23 -28 49 -67 63 -92zM451 843h503v66h-568v-827h548v66h-483v695z" />
</svg>
