<?xml version="1.0" standalone="no"?>
<!DOCTYPE svg PUBLIC "-//W3C//DTD SVG 1.1//EN" "http://www.w3.org/Graphics/SVG/1.1/DTD/svg11.dtd" >
<svg xmlns="http://www.w3.org/2000/svg" xmlns:xlink="http://www.w3.org/1999/xlink" version="1.1" viewBox="-10 0 1010 1000">
   <path fill="currentColor"
d="M260 178l-63 34c-16 -38 -52 -97 -81 -142l61 -26c30 42 66 98 83 134zM346 594l-45 51c-15 -26 -48 -72 -77 -111v423h-67v-364c-29 38 -60 72 -90 100c-8 -19 -28 -53 -39 -65c90 -77 182 -211 234 -345h-210v-68h242l13 -3l40 25c-25 81 -62 160 -105 233l26 31
c21 -26 44 -59 59 -81l45 34c-24 29 -49 60 -73 84zM530 748l52 -29c39 36 78 88 95 123l-56 34c-16 -35 -54 -90 -91 -128zM892 378l45 38c-34 26 -76 51 -112 69c37 31 82 53 135 66c-14 12 -32 36 -41 53c-27 -8 -52 -19 -75 -31v70h104v60h-104v180c0 37 -7 54 -34 64
c-26 10 -68 10 -133 10c-3 -18 -12 -42 -20 -61c48 2 90 2 102 2c14 -1 17 -5 17 -16v-179h-294v-60h294v-75h59c-77 -45 -127 -114 -156 -202h-80v149l119 -28c0 17 2 41 3 54c-143 38 -167 48 -181 58c-5 -15 -18 -39 -26 -52c11 -7 25 -20 25 -60v-121h-74v15
c0 166 -15 401 -128 559c-12 -11 -43 -27 -59 -34c108 -152 119 -368 119 -525v-292h543v58h-475v164h488v55h-214c13 31 29 60 50 84c36 -21 78 -51 103 -72zM893 252h-367v-52h367v52z" />
</svg>
