<?xml version="1.0" standalone="no"?>
<!DOCTYPE svg PUBLIC "-//W3C//DTD SVG 1.1//EN" "http://www.w3.org/Graphics/SVG/1.1/DTD/svg11.dtd" >
<svg xmlns="http://www.w3.org/2000/svg" xmlns:xlink="http://www.w3.org/1999/xlink" version="1.1" viewBox="-10 0 1010 1000">
   <path fill="currentColor"
d="M285 167l-54 40c-17 -36 -50 -92 -79 -132l52 -34c30 40 64 92 81 126zM330 412l45 41c-26 32 -52 66 -75 90c26 29 50 59 59 71l-40 59c-17 -27 -51 -76 -81 -117v400h-66v-392c-34 42 -70 79 -103 109c-7 -19 -24 -56 -35 -69c87 -72 182 -195 236 -316h-219v-68h253
l13 -3l37 30c-28 78 -68 156 -115 226c8 9 18 20 30 33c22 -28 47 -68 61 -94zM929 583v293c0 35 -8 51 -35 62c-27 10 -71 10 -138 10c-4 -18 -14 -41 -23 -57c51 1 97 1 109 0c14 -1 18 -4 18 -16v-228h-222c-21 44 -43 86 -66 123l162 -20c-11 -22 -24 -43 -34 -63
l46 -16c30 51 66 120 84 160l-47 20c-6 -15 -15 -33 -25 -53c-204 29 -234 35 -249 45c-3 -14 -14 -46 -22 -64c15 -4 31 -25 47 -56c7 -12 22 -40 38 -76h-116v309h-69v-373h212c9 -22 18 -46 26 -70h-201v-279h64v219h335v-219h67v279h-196c-8 23 -18 47 -28 70h263z
M797 397l-35 34c-24 -19 -58 -46 -96 -73c-40 32 -81 62 -119 85c-7 -10 -25 -30 -37 -39c38 -21 78 -47 116 -75c-35 -25 -71 -50 -103 -71l34 -30c33 22 69 47 105 71c31 -24 58 -51 81 -78l48 18c-25 30 -55 60 -88 89c37 25 71 50 94 69zM695 135h249v65h-577v-65h252
c-9 -25 -21 -55 -33 -77l65 -18c15 28 32 66 44 95z" />
</svg>
