<?xml version="1.0" standalone="no"?>
<!DOCTYPE svg PUBLIC "-//W3C//DTD SVG 1.1//EN" "http://www.w3.org/Graphics/SVG/1.1/DTD/svg11.dtd" >
<svg xmlns="http://www.w3.org/2000/svg" xmlns:xlink="http://www.w3.org/1999/xlink" version="1.1" viewBox="-10 0 1010 1000">
   <path fill="currentColor"
d="M699 220v-77h-96v77h96zM852 277h-93v124h93v-124zM603 277v124h96v-124h-96zM456 277v124h87v-124h-87zM543 220v-77h-178v-62h584v62h-190v77h158v238h-523v-238h149zM894 576h-474v-58h474v58zM274 167l-52 40c-17 -35 -51 -92 -79 -132l51 -34c29 40 64 92 80 126z
M370 621l-42 59c-17 -29 -55 -82 -88 -126v402h-67v-386c-36 45 -74 84 -109 116c-6 -19 -23 -57 -35 -70c90 -74 188 -202 243 -328h-222v-68h256l13 -3l37 30c-27 78 -68 156 -114 227c9 10 21 23 33 36c24 -29 54 -67 70 -95l46 42c-28 32 -58 64 -84 89
c27 32 53 62 63 75zM471 738l63 20c-37 64 -97 132 -148 176c-13 -11 -39 -32 -55 -42c55 -39 107 -97 140 -154zM948 702h-259v177c0 38 -6 55 -33 66c-26 11 -67 11 -129 11c-4 -20 -11 -46 -21 -65c47 2 87 2 99 1c12 0 15 -4 15 -14v-176h-262v-61h590v61zM758 767
l53 -31c49 45 111 108 141 148l-56 36c-29 -41 -88 -106 -138 -153z" />
</svg>
