<?xml version="1.0" standalone="no"?>
<!DOCTYPE svg PUBLIC "-//W3C//DTD SVG 1.1//EN" "http://www.w3.org/Graphics/SVG/1.1/DTD/svg11.dtd" >
<svg xmlns="http://www.w3.org/2000/svg" xmlns:xlink="http://www.w3.org/1999/xlink" version="1.1" viewBox="-10 0 1010 1000">
   <path fill="currentColor"
d="M261 182l-59 33c-16 -37 -52 -94 -82 -136l55 -29c33 41 68 96 86 132zM337 635l-44 42c-13 -28 -46 -81 -75 -125v400h-63v-377c-31 46 -63 88 -94 121c-7 -17 -27 -48 -37 -60c80 -80 166 -218 214 -349h-184v-66h213l13 -3l36 24c-24 77 -57 156 -97 227
c8 10 18 23 29 38c20 -30 43 -69 57 -97l45 34c-25 35 -52 73 -75 101c26 37 53 75 62 90zM340 143v-63h199v282h-115c-4 56 -10 113 -15 163h129s0 21 -1 31c-12 239 -24 325 -49 354c-15 19 -30 25 -57 28c-20 1 -56 2 -91 0c-2 -21 -9 -46 -20 -65c38 4 72 4 88 4
c13 0 21 -1 28 -11c18 -17 28 -91 38 -280h-130c10 -75 17 -195 21 -287h116v-156h-141zM639 482v158h76v-158h-76zM844 640v-158h-78v158h78zM661 138v126h162v-126h-162zM948 930l-56 20c-3 -17 -8 -37 -14 -58c-117 11 -232 21 -321 29l-10 -68c45 -2 101 -5 162 -9v-145
h-123v-276h123v-100h-109v-245h286v245h-115v100h128v276h-128v141l88 -6c-10 -31 -23 -63 -36 -90l51 -17c34 64 62 147 74 203z" />
</svg>
