<?xml version="1.0" standalone="no"?>
<!DOCTYPE svg PUBLIC "-//W3C//DTD SVG 1.1//EN" "http://www.w3.org/Graphics/SVG/1.1/DTD/svg11.dtd" >
<svg xmlns="http://www.w3.org/2000/svg" xmlns:xlink="http://www.w3.org/1999/xlink" version="1.1" viewBox="-10 0 1010 1000">
   <path fill="currentColor"
d="M540 269v70h258v-70h-258zM929 434v49h-206c70 30 156 72 205 99l-43 40c-41 -24 -114 -62 -181 -93v114h-70v-133c-56 44 -133 86 -196 108c-10 -14 -28 -35 -41 -47c61 -17 137 -52 191 -88h-178v-49h224v-50h-164v-160h401v160h-167v50h225zM928 118v58h-859v-58h398
c-4 -23 -10 -47 -17 -68l68 -8c9 23 18 51 23 76h387zM346 208l50 45c-61 23 -141 41 -217 54v75h205v57h-205v111l202 -28c-2 18 -2 43 -1 58c-207 32 -252 40 -274 49l-6 5c-4 -19 -17 -55 -29 -74c16 -6 37 -21 37 -59v-235h9c82 -14 175 -37 229 -58zM816 644l61 34
c-55 40 -126 79 -188 109c79 38 173 65 272 79c-16 15 -33 41 -43 60c-188 -33 -354 -116 -450 -239c-48 25 -100 47 -157 67v124l246 -43c-1 19 0 44 1 58c-266 50 -298 59 -319 69c-6 -16 -21 -47 -32 -61c16 -9 40 -30 40 -69v-59c-53 16 -109 30 -166 41
c-8 -15 -29 -43 -42 -56c183 -35 363 -89 455 -157l66 28c-13 10 -26 19 -40 29c29 36 66 68 111 97c63 -33 139 -78 185 -111z" />
</svg>
