<?xml version="1.0" standalone="no"?>
<!DOCTYPE svg PUBLIC "-//W3C//DTD SVG 1.1//EN" "http://www.w3.org/Graphics/SVG/1.1/DTD/svg11.dtd" >
<svg xmlns="http://www.w3.org/2000/svg" xmlns:xlink="http://www.w3.org/1999/xlink" version="1.1" viewBox="-10 0 1010 1000">
   <path fill="currentColor"
d="M809 191v-67h-320v67h320zM809 310v-69h-320v69h320zM881 72v291h-462v-291h462zM259 172l-60 35c-15 -35 -49 -89 -77 -129l57 -30c30 39 65 91 80 124zM339 635l-39 49c-16 -29 -53 -86 -84 -133v400h-61v-368c-30 43 -63 81 -93 113c-8 -19 -27 -51 -38 -63
c83 -80 172 -215 221 -346h-191v-66h223l12 -3l38 26c-26 79 -62 159 -105 233l23 29c18 -27 39 -63 50 -86l44 33c-23 32 -46 65 -66 90c27 39 56 78 66 92zM905 521l40 10c-19 115 -54 206 -103 277c32 36 68 64 109 84c-15 12 -34 35 -43 52c-39 -22 -74 -52 -105 -88
c-35 40 -74 70 -119 93c-8 -15 -25 -39 -39 -51c43 -22 84 -53 118 -95c-38 -56 -68 -125 -87 -198l52 -13c16 59 41 113 72 161c30 -48 55 -105 71 -171h-213v-59h235zM571 533v-72h-116v72h116zM455 711v75c37 -6 76 -14 116 -22v-53h-116zM571 660v-75h-116v75h116z
M341 404h613v57h-318v291l37 -8l5 54l-42 9v147h-65v-132c-89 18 -176 37 -247 53l-14 -62c24 -4 52 -9 81 -15v-337h-50v-57z" />
</svg>
