<?xml version="1.0" standalone="no"?>
<!DOCTYPE svg PUBLIC "-//W3C//DTD SVG 1.1//EN" "http://www.w3.org/Graphics/SVG/1.1/DTD/svg11.dtd" >
<svg xmlns="http://www.w3.org/2000/svg" xmlns:xlink="http://www.w3.org/1999/xlink" version="1.1" viewBox="-10 0 1010 1000">
   <path fill="currentColor"
d="M274 165l-53 42c-16 -36 -51 -92 -78 -132l51 -34c29 40 63 92 80 124zM350 410l45 41c-29 33 -61 68 -88 95c30 35 60 72 72 87l-41 59c-18 -31 -60 -90 -95 -137v401h-66v-397c-39 50 -81 93 -121 128c-5 -20 -23 -57 -34 -71c92 -73 193 -202 250 -328h-221v-68h256
l12 -3l37 30c-28 76 -68 152 -113 221v4c9 10 20 23 32 36c26 -29 57 -69 75 -98zM573 195v84h182v-84h-182zM636 787v-312h-167v310c26 -47 49 -111 62 -167c-12 -30 -25 -60 -38 -87l42 -17c42 87 84 202 101 273zM821 341h-127v72h232v473c0 32 -6 49 -28 60
c-22 10 -57 11 -110 11c-1 -17 -9 -42 -17 -58c37 1 69 1 80 0c10 0 13 -4 13 -14v-96l-36 19c-10 -34 -26 -80 -45 -127c-15 48 -35 95 -57 133c-8 -9 -23 -22 -34 -29c27 -47 50 -111 64 -168c-15 -31 -30 -62 -44 -89l40 -18c45 83 91 188 112 259v-294h-174v483h-54
v-161l-43 20c-6 -35 -19 -80 -36 -127c-15 47 -35 94 -57 132c-8 -8 -20 -19 -31 -27v161h-61v-543h223v-72h-121v-146h-125v-63h125v-89h63v89h182v-89h66v89h130v63h-130v146z" />
</svg>
