<?xml version="1.0" standalone="no"?>
<!DOCTYPE svg PUBLIC "-//W3C//DTD SVG 1.1//EN" "http://www.w3.org/Graphics/SVG/1.1/DTD/svg11.dtd" >
<svg xmlns="http://www.w3.org/2000/svg" xmlns:xlink="http://www.w3.org/1999/xlink" version="1.1" viewBox="-10 0 1010 1000">
   <path fill="currentColor"
d="M455 183v437h-57v-495h166c15 -28 30 -61 38 -85l71 18c-13 23 -26 46 -39 67h281v495h-59v-437h-401zM834 358v52h-156v161h-52v-145c-28 58 -75 124 -119 162c-7 -14 -21 -35 -32 -46c39 -28 81 -81 107 -132h-106v-52h150v-145h52v145h156zM817 538l-38 31
c-17 -33 -56 -87 -88 -126l36 -26c33 37 72 89 90 121zM491 244l42 -21c27 31 52 72 63 101l-46 23c-9 -29 -33 -72 -59 -103zM767 221l49 23c-23 36 -48 74 -68 100l-39 -19c20 -28 45 -74 58 -104zM266 167l-51 40c-14 -35 -47 -91 -73 -131l48 -34c27 40 60 92 76 125z
M367 632l-39 61c-17 -32 -55 -90 -88 -136v398h-63v-394c-37 49 -75 92 -112 126c-6 -20 -22 -58 -33 -72c88 -72 182 -201 236 -327h-219v-68h252l12 -3l35 31c-27 77 -65 153 -108 223v2c8 9 19 21 30 36c25 -31 54 -71 71 -99l43 42c-29 32 -59 67 -84 93
c28 36 57 72 67 87zM958 726h-259c48 90 140 146 270 168c-15 14 -32 42 -40 60c-135 -30 -229 -96 -282 -201c-39 99 -115 165 -275 204c-6 -16 -22 -43 -35 -56c152 -33 220 -89 253 -175h-218v-61h234c5 -23 8 -49 11 -76h63c-3 27 -6 53 -10 76h288v61z" />
</svg>
