<?xml version="1.0" standalone="no"?>
<!DOCTYPE svg PUBLIC "-//W3C//DTD SVG 1.1//EN" "http://www.w3.org/Graphics/SVG/1.1/DTD/svg11.dtd" >
<svg xmlns="http://www.w3.org/2000/svg" xmlns:xlink="http://www.w3.org/1999/xlink" version="1.1" viewBox="-10 0 1010 1000">
   <path fill="currentColor"
d="M260 174l-59 33c-15 -35 -49 -90 -79 -129l56 -28c31 39 67 90 82 124zM313 411l47 33c-27 35 -54 74 -76 101c25 34 48 68 58 80l-42 49c-14 -27 -47 -78 -76 -121v399h-66v-371c-31 44 -63 84 -94 116c-8 -18 -28 -49 -39 -61c83 -80 170 -217 220 -349h-190v-66h221
l12 -3l39 24c-25 78 -60 157 -100 229c8 10 18 22 27 36c22 -31 45 -69 59 -96zM809 692h-306v66h306v-66zM503 874h306v-68h-306v68zM435 958v-318h444v314h-70v-27h-306v31h-68zM754 529l-34 -15c15 -28 36 -71 47 -98l44 18c-20 35 -39 70 -57 95zM498 430l38 -13
c20 28 39 67 46 92l-40 17c-7 -27 -25 -66 -44 -96zM466 399v144h157v-144h-157zM848 543v-144h-166v144h166zM403 594v-247h510v247h-510zM521 239h274c-54 -38 -106 -79 -146 -120c-38 44 -81 84 -128 120zM635 25l65 27c-5 8 -11 15 -16 23c67 69 185 144 280 186
c-11 16 -24 47 -28 64c-45 -23 -93 -53 -140 -86v53h-285v-46c-44 33 -91 63 -137 87c-5 -14 -24 -53 -37 -70c115 -53 233 -139 298 -238z" />
</svg>
