<?xml version="1.0" standalone="no"?>
<!DOCTYPE svg PUBLIC "-//W3C//DTD SVG 1.1//EN" "http://www.w3.org/Graphics/SVG/1.1/DTD/svg11.dtd" >
<svg xmlns="http://www.w3.org/2000/svg" xmlns:xlink="http://www.w3.org/1999/xlink" version="1.1" viewBox="-10 0 1010 1000">
   <path fill="currentColor"
d="M764 230v-98h-209v98h209zM833 75v211h-344v-211h344zM257 166l-49 41c-14 -35 -44 -91 -69 -131l46 -34c26 39 58 92 72 124zM351 629l-36 60c-17 -31 -52 -89 -83 -134v400h-60v-394c-35 48 -73 91 -108 125c-5 -20 -20 -57 -30 -71c83 -73 174 -202 225 -328h-209v-68
h240l11 -3l34 30c-25 77 -62 154 -103 223v2c8 9 18 22 29 36c24 -29 51 -69 68 -98l41 42c-28 32 -56 67 -81 94c26 35 52 70 62 84zM564 489v-107h-114v107h114zM742 382v107h123v-107h-123zM947 681h-201c57 70 149 141 226 177c-17 14 -40 42 -53 59
c-76 -44 -168 -129 -229 -211v250h-68v-244c-63 84 -160 165 -244 209c-11 -18 -33 -43 -48 -57c82 -37 178 -109 237 -183h-207v-63h262v-76h-231v-213h235v210h56v-210h245v213h-237v76h257v63z" />
</svg>
