<?xml version="1.0" standalone="no"?>
<!DOCTYPE svg PUBLIC "-//W3C//DTD SVG 1.1//EN" "http://www.w3.org/Graphics/SVG/1.1/DTD/svg11.dtd" >
<svg xmlns="http://www.w3.org/2000/svg" xmlns:xlink="http://www.w3.org/1999/xlink" version="1.1" viewBox="-10 0 1010 1000">
   <path fill="currentColor"
d="M510 328v-44c-27 21 -57 40 -86 58c-11 -14 -34 -38 -49 -48c116 -66 220 -164 272 -259l69 22c-6 12 -13 23 -21 35c62 67 173 139 264 177c-13 16 -27 46 -33 65c-92 -45 -199 -120 -268 -192c-36 46 -79 88 -127 126h277v60h-298zM743 464v121h105v-121h-105zM688 642
v-235h216v235h-216zM468 464v121h100v-121h-100zM413 642v-235h212v235h-212zM278 167l-55 40c-16 -35 -52 -91 -80 -131l53 -34c30 40 66 92 82 125zM385 632l-41 60c-20 -32 -63 -90 -99 -138v402h-68v-385c-36 44 -74 84 -110 115c-6 -19 -24 -56 -35 -70
c91 -74 190 -202 245 -328h-226v-68h261l12 -3l40 30c-29 78 -70 156 -117 227c9 10 20 21 32 34c27 -29 58 -70 77 -98l47 41c-30 33 -64 68 -91 94c31 35 62 72 73 87zM498 670l64 13c-7 25 -15 50 -25 73c40 26 82 58 105 81l-39 50c-20 -22 -55 -52 -90 -77
c-33 60 -74 111 -122 149c-11 -12 -35 -33 -50 -44c75 -55 131 -142 157 -245zM769 662l68 10c-7 31 -15 60 -26 87c58 41 125 94 158 131l-45 50c-30 -34 -86 -83 -139 -123c-31 57 -73 104 -122 140c-9 -13 -35 -37 -50 -49c81 -53 135 -138 156 -246z" />
</svg>
