<?xml version="1.0" standalone="no"?>
<!DOCTYPE svg PUBLIC "-//W3C//DTD SVG 1.1//EN" "http://www.w3.org/Graphics/SVG/1.1/DTD/svg11.dtd" >
<svg xmlns="http://www.w3.org/2000/svg" xmlns:xlink="http://www.w3.org/1999/xlink" version="1.1" viewBox="-10 0 1010 1000">
   <path fill="currentColor"
d="M937 132v57h-555v-57h240c-12 -24 -28 -51 -45 -72l59 -28c25 30 51 72 63 100h238zM727 411v-49h-141v49h141zM780 323v127h-245v-127h245zM842 491v-210h-365v210h365zM906 232v307h-490v-307h490zM515 727v57h292v-57h-292zM515 627v56h292v-56h-292zM877 829h-430
v-247h430v247zM289 166l-56 41c-16 -36 -51 -92 -80 -132l53 -34c30 40 66 92 83 125zM400 632l-42 60c-20 -32 -63 -90 -99 -138v402h-68v-396c-40 49 -83 92 -123 126c-7 -19 -25 -57 -36 -70c96 -74 199 -202 258 -328h-239v-68h275l13 -3l37 29c-28 77 -70 154 -117 223
v2c9 9 21 22 33 36c26 -27 56 -65 74 -91l46 42c-30 30 -61 62 -86 87c31 35 62 72 74 87zM361 875h593v58h-593v-58z" />
</svg>
