<?xml version="1.0" standalone="no"?>
<!DOCTYPE svg PUBLIC "-//W3C//DTD SVG 1.1//EN" "http://www.w3.org/Graphics/SVG/1.1/DTD/svg11.dtd" >
<svg xmlns="http://www.w3.org/2000/svg" xmlns:xlink="http://www.w3.org/1999/xlink" version="1.1" viewBox="-10 0 1010 1000">
   <path fill="currentColor"
d="M418 397v87h86v-87h-86zM505 132h-87v81h87v-81zM582 347v-84h-164v84h164zM658 484v58h-300v-469h288v59h-87v81h75v150c50 -85 85 -202 109 -318l67 13c-10 46 -22 91 -34 134h168v66h-190c-25 69 -54 132 -86 181c-13 -10 -43 -27 -60 -35l5 -7h-55v87h100zM911 480
l-54 38c-25 -46 -76 -119 -116 -172l51 -33c43 54 94 124 119 167zM254 175l-57 32c-15 -34 -49 -89 -77 -128l53 -29c31 40 65 91 81 125zM333 625l-40 49c-13 -27 -47 -79 -75 -123v401h-63v-377c-31 47 -63 88 -94 121c-7 -17 -27 -48 -37 -60c80 -80 166 -217 214 -349
h-184v-66h214l12 -3l36 24c-24 77 -57 155 -96 227c8 10 17 23 28 38c21 -31 43 -69 57 -96l45 33c-25 34 -52 72 -74 100c24 34 49 68 57 81zM463 653v214h90v-214h-90zM694 653h-91v214h91v-214zM836 653h-91v214h91v-214zM899 867h56v64h-645v-64h92v-275h497v275z" />
</svg>
