<?xml version="1.0" standalone="no"?>
<!DOCTYPE svg PUBLIC "-//W3C//DTD SVG 1.1//EN" "http://www.w3.org/Graphics/SVG/1.1/DTD/svg11.dtd" >
<svg xmlns="http://www.w3.org/2000/svg" xmlns:xlink="http://www.w3.org/1999/xlink" version="1.1" viewBox="-10 0 1010 1000">
   <path fill="currentColor"
d="M263 174l-58 33c-14 -34 -49 -90 -77 -129l54 -28c31 39 65 90 81 124zM314 411l44 34c-24 34 -51 72 -74 100c24 34 49 67 58 81l-41 49c-13 -27 -46 -79 -74 -122v399h-63v-376c-31 46 -64 87 -95 121c-7 -17 -26 -48 -37 -60c80 -81 166 -218 214 -350h-183v-66h213
l13 -3l36 23c-24 78 -58 157 -97 229c8 10 18 22 28 37c21 -30 44 -69 58 -96zM429 257v91h-60v-144h257v-59h-229v-56h524v56h-233v59h260v144h-62v-91h-198v216h-62v-216h-197zM720 451v-44h172v44h-172zM720 311h151v44h-151v-44zM590 311v44h-151v-44h151zM419 451v-44
h170v44h-170zM953 568h-281c-9 25 -19 52 -29 74h290v250c0 31 -5 46 -26 56c-19 10 -48 11 -90 11c-2 -18 -11 -40 -19 -57c26 1 50 1 56 0c9 0 11 -2 11 -10v-194h-100v253h-59v-253h-92v253h-59v-253h-95v261h-62v-317h180c8 -22 16 -49 23 -74h-229v-59h581v59z" />
</svg>
