<?xml version="1.0" standalone="no"?>
<!DOCTYPE svg PUBLIC "-//W3C//DTD SVG 1.1//EN" "http://www.w3.org/Graphics/SVG/1.1/DTD/svg11.dtd" >
<svg xmlns="http://www.w3.org/2000/svg" xmlns:xlink="http://www.w3.org/1999/xlink" version="1.1" viewBox="-10 0 1010 1000">
   <path fill="currentColor"
d="M639 139v60h-303v-60h132c-8 -27 -20 -60 -30 -86l56 -13c14 31 29 70 38 99h107zM458 316l-50 19c-6 -31 -21 -79 -33 -115l48 -17c14 36 28 83 35 113zM254 174l-57 33c-15 -35 -49 -90 -77 -129l53 -28c31 39 65 90 81 124zM302 411l44 33c-25 35 -51 73 -74 100
c24 34 49 67 58 81l-41 49c-13 -27 -47 -79 -75 -123v401h-63v-371c-29 43 -59 83 -88 115c-8 -17 -27 -48 -38 -60c79 -80 162 -217 210 -349h-181v-66h210l12 -3l37 24c-24 78 -57 157 -96 229c8 10 18 22 27 36c21 -30 44 -69 58 -96zM418 709h140v-73h-140v73zM558 511
h-140v73h140v-73zM619 455v422c0 31 -5 49 -26 60s-53 12 -103 12c-2 -17 -11 -44 -21 -60c36 1 66 1 76 1c10 -1 13 -4 13 -14v-116h-140v196h-61v-501h262zM548 204l54 17c-13 39 -26 82 -38 117h84v62h-325v-62h189c13 -39 28 -95 36 -134zM766 881h106
c21 0 26 -10 29 -64c14 11 40 22 58 26c-7 79 -26 103 -82 103h-119c-72 0 -92 -20 -92 -97v-441h196v-94h-196v-270h66v80h221v61h-221v72h196v208h-196v58h187v52h-187v58h178v52h-178v61h199v52h-199v50c0 28 5 33 34 33z" />
</svg>
