<?xml version="1.0" standalone="no"?>
<!DOCTYPE svg PUBLIC "-//W3C//DTD SVG 1.1//EN" "http://www.w3.org/Graphics/SVG/1.1/DTD/svg11.dtd" >
<svg xmlns="http://www.w3.org/2000/svg" xmlns:xlink="http://www.w3.org/1999/xlink" version="1.1" viewBox="-10 0 1010 1000">
   <path fill="currentColor"
d="M245 171l-55 32c-14 -33 -45 -86 -72 -124l53 -29c28 39 59 89 74 121zM277 432l43 34c-18 26 -38 51 -56 74c21 26 40 50 47 61l-37 47c-13 -26 -45 -71 -71 -108v412h-58v-383c-25 39 -52 75 -77 104c-7 -17 -25 -47 -37 -58c73 -76 146 -205 189 -328h-166v-66h194
l12 -3l34 24c-22 76 -53 153 -89 224c8 8 18 22 30 37c16 -25 32 -51 42 -71zM416 729l37 7c-4 51 -13 108 -23 146c-8 -4 -26 -9 -37 -12c14 -39 19 -92 23 -141zM468 737l34 -6c8 41 16 93 18 127l-36 7c-2 -35 -8 -87 -16 -128zM525 729l33 -8c13 37 25 84 31 114l-35 11
c-4 -32 -17 -80 -29 -117zM518 588l35 -8c17 37 32 87 37 117l-37 12c-1 -9 -4 -19 -7 -30c-99 16 -119 23 -129 29c-2 -9 -9 -30 -15 -40c13 -3 26 -18 39 -40c8 -10 26 -39 44 -75c-50 6 -64 10 -73 14c-2 -9 -9 -31 -15 -41c10 -3 18 -12 26 -28c8 -14 36 -76 47 -132
l44 17c-13 45 -33 93 -53 130l45 -3c11 -22 20 -45 27 -68l42 19c-29 68 -65 135 -103 190l64 -10c-6 -18 -12 -36 -18 -53zM714 487v139h28v-129h-4v-10h-24zM803 487h-23v10h-4v129h27v-139zM863 827l-37 9c-1 -10 -2 -23 -4 -37c-53 14 -102 27 -148 39l-9 -47
c21 -4 46 -8 72 -14v-109h-60v-223h61v-73h42v73h60v223h-59v99l33 -8c-4 -17 -8 -36 -14 -53l35 -7c14 42 26 95 28 128zM931 280v606c0 31 -6 46 -26 56c-19 8 -51 9 -98 9c-3 -15 -10 -37 -18 -52c34 1 62 1 72 0c9 0 13 -3 13 -13v-548h-224v612h-52v-612h-216v617h-56
v-675h605zM768 122h181v62h-181v71h-64v-71h-166v70h-64v-70h-165v-62h165v-78h64v78h166v-77h64v77z" />
</svg>
