<?xml version="1.0" standalone="no"?>
<!DOCTYPE svg PUBLIC "-//W3C//DTD SVG 1.1//EN" "http://www.w3.org/Graphics/SVG/1.1/DTD/svg11.dtd" >
<svg xmlns="http://www.w3.org/2000/svg" xmlns:xlink="http://www.w3.org/1999/xlink" version="1.1" viewBox="-10 0 1010 1000">
   <path fill="currentColor"
d="M735 196l-35 32c-10 -14 -25 -29 -43 -45c-20 27 -43 50 -64 70c-8 -8 -29 -25 -40 -32c24 -19 46 -44 67 -70c-20 -17 -41 -33 -61 -46l34 -30c17 12 36 25 54 40c11 -19 22 -38 31 -57l49 12c-12 26 -26 51 -42 75c20 17 36 34 48 48v-51h78v-91h52v91h85v54h-85v24
c23 23 82 91 97 109l-34 47c-11 -21 -38 -61 -63 -94v154h-52v-178c-18 44 -41 86 -64 112c-9 -12 -26 -29 -37 -38c31 -28 63 -84 82 -136h-57zM262 187l-58 27c-15 -38 -48 -101 -74 -146l56 -23c28 45 60 105 76 142zM365 623l-42 51c-15 -30 -53 -88 -84 -133v417h-64
v-370c-34 46 -71 86 -106 120c-7 -19 -26 -51 -37 -63c90 -79 186 -215 240 -348h-215v-66h247l13 -3l37 26c-25 75 -61 151 -102 220c9 11 19 25 31 40c22 -33 46 -75 60 -105l45 34c-25 36 -53 78 -76 109c23 30 45 59 53 71zM940 530h-144c43 65 108 126 171 158
c-15 12 -34 34 -45 50c-70 -43 -144 -125 -189 -208h-148c-17 25 -34 48 -53 71c73 -9 154 -21 203 -34l37 44c-27 6 -58 12 -91 16v58h155v47h-155v54h213v50h-213v55c0 34 -9 48 -35 56c-27 9 -72 8 -140 8c-3 -16 -12 -35 -21 -50c54 2 102 2 115 2c15 -1 19 -5 19 -17
v-54h-224v-50h224v-54h-160v-47h160v-49c-35 4 -71 7 -104 9c0 -5 -3 -12 -5 -20c-43 45 -92 84 -143 116c-8 -14 -29 -41 -42 -54c70 -38 134 -92 184 -157h-136v-60h176c11 -18 20 -36 28 -55c-8 -7 -17 -13 -24 -18c23 -19 46 -41 65 -66c-13 -11 -26 -21 -39 -31l-34 45
c-9 -14 -26 -38 -44 -61v153h-51v-163c-24 51 -52 99 -80 131c-5 -15 -18 -39 -27 -52c36 -35 74 -98 97 -157h-77v-54h87v-89h51v89h63v54h-63v28c17 15 50 46 68 65l33 -28c14 9 30 20 44 32c11 -19 22 -38 31 -58l49 12c-12 26 -25 52 -42 77c25 22 47 44 61 63l-37 33
c-13 -16 -32 -36 -54 -57c-13 19 -29 36 -45 50l34 8c-7 17 -15 33 -23 49h320v60z" />
</svg>
