<?xml version="1.0" standalone="no"?>
<!DOCTYPE svg PUBLIC "-//W3C//DTD SVG 1.1//EN" "http://www.w3.org/Graphics/SVG/1.1/DTD/svg11.dtd" >
<svg xmlns="http://www.w3.org/2000/svg" xmlns:xlink="http://www.w3.org/1999/xlink" version="1.1" viewBox="-10 0 1010 1000">
   <path fill="currentColor"
d="M586 178v-43h-171v43h171zM817 226h-164v56h164v-56zM415 226v56h171v-56h-171zM186 226v56h162v-56h-162zM348 178v-43h-286v-55h877v55h-286v43h235v151h-769v-151h229zM150 700h100v-62h-100v62zM414 638h-100v62h100v-62zM209 453v46h143v-46h-143zM314 747v48h193
v52h-193v110h-64v-110h-201v-52h201v-48h-159v-156h159v-44h-102v-94h-95v-51h95v-55h61v55h143v-55h64v55h97v51h-97v94h-102v44h161v156h-161zM701 718h-105v75h105v-75zM757 839h-161v41h-56v-208h217v167zM571 571h265c-33 -24 -86 -54 -133 -75c-28 33 -70 57 -132 75z
M954 571v53h-77v267c0 33 -6 47 -31 57c-23 9 -59 9 -115 9c-3 -17 -11 -38 -20 -54c40 1 74 1 85 0c11 0 14 -4 14 -13v-266h-309v-53h54c-6 -14 -20 -32 -31 -41c73 -17 115 -41 140 -77h-129v-51h150c5 -18 8 -38 10 -61h59c-2 22 -5 42 -9 61h166v51h-182l-1 1
c55 21 121 57 157 83l-33 34h102z" />
</svg>
