<?xml version="1.0" standalone="no"?>
<!DOCTYPE svg PUBLIC "-//W3C//DTD SVG 1.1//EN" "http://www.w3.org/Graphics/SVG/1.1/DTD/svg11.dtd" >
<svg xmlns="http://www.w3.org/2000/svg" xmlns:xlink="http://www.w3.org/1999/xlink" version="1.1" viewBox="-10 0 1010 1000">
   <path fill="currentColor"
d="M918 321l-45 56c-37 -35 -90 -75 -148 -113c-58 56 -123 105 -189 143c-9 -13 -36 -40 -51 -52c64 -34 127 -77 181 -128c-50 -30 -103 -58 -153 -79l44 -50c51 22 105 50 157 80c34 -39 64 -80 87 -124l67 20c-27 49 -60 96 -97 139c58 38 110 76 147 108zM910 721
l-45 60c-37 -39 -88 -85 -147 -130c-59 63 -129 116 -204 156c-9 -13 -32 -42 -48 -53c75 -36 142 -84 198 -142c-51 -36 -104 -69 -154 -96l43 -50c51 26 105 58 156 93c37 -48 67 -102 88 -162l66 18c-26 67 -60 128 -100 182c60 43 112 87 147 124zM154 446v93h236v-93
h-236zM154 294v93h236v-93h-236zM154 144v91h236v-91h-236zM478 873h329c64 0 75 -11 80 -77c18 10 47 20 68 24c-12 95 -37 119 -144 119h-332c-143 0 -180 -21 -180 -109v-229h-65c-8 175 -35 288 -159 358c-9 -17 -30 -45 -45 -56c109 -57 131 -151 137 -302h-82v-519
h376v519h-93v229c0 35 16 43 110 43z" />
</svg>
