<?xml version="1.0" standalone="no"?>
<!DOCTYPE svg PUBLIC "-//W3C//DTD SVG 1.1//EN" "http://www.w3.org/Graphics/SVG/1.1/DTD/svg11.dtd" >
<svg xmlns="http://www.w3.org/2000/svg" xmlns:xlink="http://www.w3.org/1999/xlink" version="1.1" viewBox="-10 0 1010 1000">
   <path fill="currentColor"
d="M243 393v-139h-190v-66h190v-131h69v131h191v66h-191v139h179v66h-419v-66h171zM386 619l54 -26c41 56 81 130 96 181l-58 29c-13 -51 -52 -128 -92 -184zM194 506l44 -41c52 30 114 77 143 112l-46 45c-28 -35 -89 -83 -141 -116zM83 849l-54 -34
c41 -51 62 -138 72 -216l59 15c-12 84 -31 179 -77 235zM285 850h70c21 0 24 -12 27 -105c14 11 41 21 59 26c-6 114 -24 141 -78 141h-87c-66 0 -82 -19 -82 -87v-241h67v241c0 22 3 25 24 25zM593 469v103h247v-103h-247zM593 308v100h247v-100h-247zM593 148v100h247
v-100h-247zM825 879h54c20 0 23 -15 26 -130c12 11 41 21 59 26c-5 134 -22 167 -77 167h-71c-62 0 -77 -20 -77 -88v-216h-74c-13 160 -52 261 -198 322c-9 -17 -29 -44 -43 -56c132 -48 164 -131 174 -266h-71v-557h382v557h-104v216c0 22 2 25 20 25z" />
</svg>
