<?xml version="1.0" standalone="no"?>
<!DOCTYPE svg PUBLIC "-//W3C//DTD SVG 1.1//EN" "http://www.w3.org/Graphics/SVG/1.1/DTD/svg11.dtd" >
<svg xmlns="http://www.w3.org/2000/svg" xmlns:xlink="http://www.w3.org/1999/xlink" version="1.1" viewBox="-10 0 1010 1000">
   <path fill="currentColor"
d="M401 622h-182v188h182v-188zM392 305h-117c-5 32 -11 64 -18 94h135v-94zM392 150h-99c-3 32 -6 63 -10 93h109v-93zM469 876h-250v62h-68v-259c-22 36 -48 69 -78 98c-9 -14 -34 -41 -48 -54c72 -66 119 -155 150 -263h-91v-61h107c7 -30 12 -61 17 -94h-165v-62h174
c4 -30 7 -61 10 -93h-139v-63h372v156h61v62h-61v155h-217c-9 34 -19 66 -31 96h257v320zM610 467v101h232v-101h-232zM610 308v99h232v-99h-232zM610 149v98h232v-98h-232zM824 881h51c19 0 23 -16 25 -131c14 11 40 21 59 27c-6 132 -22 165 -76 165h-68
c-61 0 -75 -20 -75 -87v-221h-67c-11 161 -49 264 -193 325c-6 -15 -26 -40 -40 -52c128 -49 161 -137 171 -273h-67v-552h367v552h-106v220c0 23 3 27 19 27z" />
</svg>
