<?xml version="1.0" standalone="no"?>
<!DOCTYPE svg PUBLIC "-//W3C//DTD SVG 1.1//EN" "http://www.w3.org/Graphics/SVG/1.1/DTD/svg11.dtd" >
<svg xmlns="http://www.w3.org/2000/svg" xmlns:xlink="http://www.w3.org/1999/xlink" version="1.1" viewBox="-10 0 1010 1000">
   <path fill="currentColor"
d="M151 299v190c0 128 -10 315 -71 443c-11 -12 -37 -30 -52 -36c56 -120 62 -287 62 -407v-248h160v-198h65v69h179v58h-179v71h141l10 -3l42 12c-11 44 -27 96 -41 128l-52 -13c7 -18 15 -41 20 -66h-284zM426 567h-94c-65 0 -81 -15 -81 -74v-42l-73 9l-6 -51l79 -10v-85
h60v78l121 -14l7 51l-128 15v50c0 20 4 23 27 23h81c18 0 22 -8 25 -61c13 8 35 17 51 20c-5 72 -23 91 -69 91zM415 796l101 -56c3 17 11 39 15 51c-139 86 -158 103 -169 119v-1l-1 1c-6 -16 -20 -44 -30 -58c12 -8 26 -25 26 -64v-123h-84c-6 129 -27 217 -99 274
c-8 -15 -27 -37 -40 -47c69 -54 80 -142 82 -285h199v189zM631 462v104h207v-104h-207zM631 303v102h207v-102h-207zM631 144v102h207v-102h-207zM849 884h26c8 0 16 0 20 -3c5 -4 9 -11 11 -24c2 -16 3 -48 4 -92c13 12 35 23 53 28c-2 41 -4 88 -10 104
c-5 17 -15 27 -27 34c-12 6 -30 9 -46 9h-46c-18 0 -39 -6 -52 -18c-14 -11 -19 -27 -19 -83v-211h-64c-9 161 -41 270 -169 334c-8 -16 -26 -39 -40 -51c114 -52 139 -144 147 -283h-70v-546h337v546h-76v220c0 17 0 28 5 32c4 3 9 4 16 4z" />
</svg>
