<?xml version="1.0" standalone="no"?>
<!DOCTYPE svg PUBLIC "-//W3C//DTD SVG 1.1//EN" "http://www.w3.org/Graphics/SVG/1.1/DTD/svg11.dtd" >
<svg xmlns="http://www.w3.org/2000/svg" xmlns:xlink="http://www.w3.org/1999/xlink" version="1.1" viewBox="-10 0 1010 1000">
   <path fill="currentColor"
d="M147 455v171h65v-171h-65zM212 229h-65v164h65v-164zM333 229h-66v164h66v-164zM457 229h-69v164h69v-164zM333 626v-171h-66v171h66zM388 455v171h69v-171h-69zM568 626v63h-525v-63h44v-460h125v-116h55v116h66v-116h55v116h131v460h49zM191 706l66 20
c-42 74 -106 153 -165 203c-12 -12 -39 -33 -56 -42c60 -46 119 -114 155 -181zM340 728l55 -27c44 42 95 100 119 140l-58 30c-23 -39 -72 -100 -116 -143zM650 474v110h200v-110h-200zM650 309v108h200v-108h-200zM650 144v109h200v-109h-200zM851 887h28c9 0 17 -1 21 -4
c6 -3 9 -11 12 -24c2 -15 3 -49 4 -92c11 12 34 23 50 28c-1 41 -3 87 -9 102c-5 17 -15 28 -28 34c-11 7 -30 9 -45 9h-46c-19 0 -40 -5 -53 -16c-14 -13 -17 -28 -17 -81v-197h-59c-9 158 -43 253 -175 310c-7 -14 -25 -39 -39 -49c118 -47 145 -126 153 -261h-61v-564
h329v564h-87v204c0 18 0 29 5 33c4 3 9 4 17 4z" />
</svg>
