<?xml version="1.0" standalone="no"?>
<!DOCTYPE svg PUBLIC "-//W3C//DTD SVG 1.1//EN" "http://www.w3.org/Graphics/SVG/1.1/DTD/svg11.dtd" >
<svg xmlns="http://www.w3.org/2000/svg" xmlns:xlink="http://www.w3.org/1999/xlink" version="1.1" viewBox="-10 0 1010 1000">
   <path fill="currentColor"
d="M173 350v-59c-29 26 -61 48 -93 68c-11 -18 -30 -39 -46 -53c106 -56 205 -156 258 -264l56 21c-6 13 -13 25 -20 37c81 59 180 134 229 180l-41 51c-48 -46 -142 -120 -219 -180c-35 51 -78 99 -123 139h268v60h-269zM132 700h105v-89h-105v89zM237 475h-105v83h105v-83
zM294 417v469c0 29 -5 45 -24 56c-17 11 -44 11 -82 11c-3 -16 -10 -40 -19 -57c27 1 50 1 57 1c8 -1 11 -3 11 -12v-129h-105v201h-57v-540h219zM399 450v349h-49v-349h49zM636 472v105h214v-105h-214zM636 308v105h214v-105h-214zM636 146v103h214v-103h-214zM852 892h28
c7 0 15 -1 20 -5s8 -12 11 -26c2 -17 3 -54 4 -102c13 11 36 23 54 28c-2 46 -5 97 -10 114c-6 18 -15 29 -28 36c-11 6 -31 9 -46 9h-47c-18 0 -40 -4 -53 -16c-14 -12 -19 -27 -19 -85v-204h-59c-12 155 -48 257 -178 316c-5 -10 -13 -22 -22 -33c-4 7 -10 13 -19 18
c-21 9 -54 10 -107 10c-3 -17 -11 -40 -18 -57c37 1 72 1 82 1c11 0 14 -3 14 -14v-472h56v472v8c93 -49 120 -128 129 -249h-73v-560h346v560h-87v213c0 18 0 29 5 34c4 3 9 4 17 4z" />
</svg>
