<?xml version="1.0" standalone="no"?>
<!DOCTYPE svg PUBLIC "-//W3C//DTD SVG 1.1//EN" "http://www.w3.org/Graphics/SVG/1.1/DTD/svg11.dtd" >
<svg xmlns="http://www.w3.org/2000/svg" xmlns:xlink="http://www.w3.org/1999/xlink" version="1.1" viewBox="-10 0 1010 1000">
   <path fill="currentColor"
d="M436 273v-125h-87v125h87zM489 91v239h-191v-239h191zM88 448v-62h372v62h-372zM199 273v-125h-84v125h84zM252 91v239h-187v-239h187zM196 660h270s-1 20 -3 29c-14 144 -28 204 -53 228c-18 17 -35 22 -64 24c-24 1 -71 1 -120 -2c-1 -19 -7 -44 -18 -61
c48 4 96 5 113 5s26 -1 35 -8c15 -14 27 -57 37 -157h-212v1h-67c13 -38 25 -90 35 -138h-104v-63h458v63h-289c-6 27 -12 53 -18 79zM610 469v98h238v-98h-238zM610 310v98h238v-98h-238zM610 152v96h238v-96h-238zM834 877h52c18 0 21 -14 23 -124c12 12 38 23 54 29
c-5 130 -21 163 -70 163h-67c-57 0 -71 -22 -71 -94v-217h-61c-14 151 -53 265 -184 331c-8 -19 -26 -48 -39 -61c117 -53 149 -147 162 -270h-84v-549h363v549h-97v217c0 22 3 26 19 26z" />
</svg>
