<?xml version="1.0" standalone="no"?>
<!DOCTYPE svg PUBLIC "-//W3C//DTD SVG 1.1//EN" "http://www.w3.org/Graphics/SVG/1.1/DTD/svg11.dtd" >
<svg xmlns="http://www.w3.org/2000/svg" xmlns:xlink="http://www.w3.org/1999/xlink" version="1.1" viewBox="-10 0 1010 1000">
   <path fill="currentColor"
d="M390 201h-178c20 31 40 72 50 99l-41 17h125c17 -35 36 -83 44 -116zM134 374v90h-61v-147h128c-10 -29 -29 -69 -48 -99l45 -17h-123v-60h198c-12 -25 -27 -55 -41 -79l64 -20c20 30 42 71 53 99h181v60h-130l58 14c-16 35 -32 72 -47 102h118v147h-63v-90h-332z
M256 644h234s-1 20 -2 30c-12 158 -25 222 -48 245c-15 17 -31 23 -54 24c-20 2 -58 2 -95 0c-2 -19 -8 -44 -18 -61c36 4 70 4 83 4c14 1 22 -1 29 -9c14 -14 23 -59 33 -172h-172c-23 112 -70 198 -177 254c-8 -16 -27 -41 -42 -51c135 -66 161 -186 171 -347h-133v-60
h216c-9 -27 -21 -58 -33 -83l62 -16c15 31 30 70 40 99h192v60h-278c-2 29 -5 57 -8 83zM642 453v96h200v-96h-200zM642 299v94h200v-94h-200zM642 145v94h200v-94h-200zM848 877h37c16 0 20 -15 21 -127c14 12 40 22 58 27c-6 130 -21 162 -71 162h-55
c-57 0 -70 -20 -70 -86v-240h-51c-13 164 -47 281 -181 347c-8 -16 -27 -40 -40 -51c118 -56 147 -155 157 -296h-77v-532h336v532h-79v240c0 21 2 24 15 24z" />
</svg>
