<?xml version="1.0" standalone="no"?>
<!DOCTYPE svg PUBLIC "-//W3C//DTD SVG 1.1//EN" "http://www.w3.org/Graphics/SVG/1.1/DTD/svg11.dtd" >
<svg xmlns="http://www.w3.org/2000/svg" xmlns:xlink="http://www.w3.org/1999/xlink" version="1.1" viewBox="-10 0 1010 1000">
   <path fill="currentColor"
d="M485 84v193h-408v-193h61v136h110v-174h67v174h106v-136h64zM507 333v59h-459v-59h459zM409 608v-101h-256v101h256zM475 453v209h-386v-209h386zM237 804l-60 19c-4 -36 -22 -93 -43 -137l58 -15c21 42 40 98 45 133zM509 791l2 59c-164 23 -336 46 -456 62l-10 -64
c84 -10 203 -25 328 -40l-49 -13c15 -35 36 -90 45 -126l63 18c-16 42 -35 88 -49 120zM596 469v103h247v-103h-247zM596 308v100h247v-100h-247zM596 148v100h247v-100h-247zM829 881h54c20 0 23 -15 25 -131c13 11 41 21 58 27c-4 133 -21 166 -76 166h-71
c-61 0 -75 -20 -75 -88v-217h-79c-12 158 -51 260 -195 321c-8 -16 -28 -43 -43 -55c130 -49 163 -133 172 -266h-69v-557h382v557h-104v217c0 22 3 26 21 26z" />
</svg>
