<?xml version="1.0" standalone="no"?>
<!DOCTYPE svg PUBLIC "-//W3C//DTD SVG 1.1//EN" "http://www.w3.org/Graphics/SVG/1.1/DTD/svg11.dtd" >
<svg xmlns="http://www.w3.org/2000/svg" xmlns:xlink="http://www.w3.org/1999/xlink" version="1.1" viewBox="-10 0 1010 1000">
   <path fill="currentColor"
d="M226 144h-87v79h87v-79zM139 360h87v-83h-87v83zM281 416h-142v540h-57v-869h199v329zM267 705h85v-63h-83c0 19 -1 41 -2 63zM352 530h-83v62h83v-62zM406 479v353c0 26 -4 41 -22 51c-17 9 -43 10 -81 10c-2 -15 -9 -37 -16 -51c26 1 47 1 55 0c8 0 10 -2 10 -10v-77
h-90c-7 54 -21 108 -46 151c-10 -9 -34 -23 -46 -28c41 -73 45 -168 45 -239v-160h191zM669 463v102h180v-102h-180zM669 305v101h180v-101h-180zM669 147v101h180v-101h-180zM395 360h89v-83h-89v83zM484 144h-89v79h89v-79zM853 890h26c7 0 15 -1 19 -4c5 -3 8 -11 11 -25
c1 -16 2 -51 3 -95c12 12 35 23 52 28c-1 43 -4 90 -9 105c-6 18 -15 29 -28 35c-11 7 -28 9 -42 9h-45c-17 0 -38 -5 -51 -16c-13 -13 -17 -28 -17 -83v-217h-54c-8 165 -35 269 -150 333c-6 -12 -20 -31 -33 -44c-4 8 -9 13 -17 18c-20 11 -49 12 -92 12
c-3 -16 -12 -47 -22 -63c31 1 60 1 69 1c8 0 11 -3 11 -15v-453h-146v-329h206v783c0 12 -1 22 -3 31c90 -52 110 -138 116 -274h-53v-542h312v542h-82v224c0 19 0 30 4 35c4 3 9 4 15 4z" />
</svg>
