<?xml version="1.0" standalone="no"?>
<!DOCTYPE svg PUBLIC "-//W3C//DTD SVG 1.1//EN" "http://www.w3.org/Graphics/SVG/1.1/DTD/svg11.dtd" >
<svg xmlns="http://www.w3.org/2000/svg" xmlns:xlink="http://www.w3.org/1999/xlink" version="1.1" viewBox="-10 0 1010 1000">
   <path fill="currentColor"
d="M582 162l-34 32c-11 -13 -29 -28 -48 -42c-25 20 -52 38 -78 51c-7 -8 -24 -26 -36 -33c26 -13 52 -28 76 -45c-18 -13 -37 -23 -55 -33l33 -29c18 10 39 21 57 34c18 -15 33 -31 44 -47l47 12c-15 21 -33 42 -53 60c18 14 35 28 47 40zM147 410v90h-67v-142h99l-14 -239
l-1 -1c55 -18 132 -52 176 -74l41 33c-43 25 -99 45 -147 61l2 38h128v46h-126l3 45h129v46h-127l2 45h167c-8 -9 -21 -21 -30 -26c30 -16 62 -35 89 -55c-18 -14 -39 -26 -58 -36l33 -29c19 11 40 24 60 36c18 -15 34 -32 46 -49l46 12c-14 22 -34 43 -54 63
c21 16 40 32 53 47l-34 32c-14 -15 -32 -32 -54 -49c-25 21 -53 38 -79 54h328c1 -14 2 -29 4 -45h-127v-46h131l2 -45h-127v-46h130l1 -44h-144v-50h212c-3 88 -9 199 -15 276h96v142h-69v-90h-705zM291 687v51h415v-51h-415zM291 594v50h415v-50h-415zM291 503v48h415v-48
h-415zM687 885h155c39 0 45 -12 50 -101c15 11 43 21 62 24c-7 109 -29 136 -104 136h-170c-95 0 -120 -17 -120 -84v-77h-147c-36 101 -123 149 -338 174c-5 -17 -20 -43 -32 -57c189 -16 264 -48 295 -117h-118v-325h559v325h-146v76c0 22 8 26 54 26z" />
</svg>
