<?xml version="1.0" standalone="no"?>
<!DOCTYPE svg PUBLIC "-//W3C//DTD SVG 1.1//EN" "http://www.w3.org/Graphics/SVG/1.1/DTD/svg11.dtd" >
<svg xmlns="http://www.w3.org/2000/svg" xmlns:xlink="http://www.w3.org/1999/xlink" version="1.1" viewBox="-10 0 1010 1000">
   <path fill="currentColor"
d="M476 263h-321v229c0 135 -10 331 -69 461c-10 -12 -35 -32 -49 -39c55 -124 59 -296 59 -422v-282h160v-167h61v62h195v52h-195v53h177l10 -2l38 10c-11 48 -26 104 -38 140l-48 -12c6 -22 14 -53 20 -83zM432 707v-70h-171v70h171zM488 595v154h-282v-154h282zM320 851
l-51 17c-3 -27 -17 -69 -31 -99l47 -14c17 29 30 69 35 96zM514 504v51h-341v-51h341zM339 427h108c21 0 26 -5 28 -43c12 8 30 14 45 18c-5 53 -21 68 -66 68h-119c-65 0 -82 -12 -82 -66v-25l-76 8l-6 -46l82 -8v-61h52v55l135 -13l5 46l-140 14v31c0 19 5 22 34 22z
M515 836l2 51c-126 19 -256 38 -350 51l-9 -55c57 -7 133 -17 216 -28c12 -33 25 -73 32 -102l58 12c-12 27 -23 57 -34 82zM646 462v104h200v-104h-200zM646 303v102h200v-102h-200zM646 144v102h200v-102h-200zM857 884h24c8 0 15 -1 19 -4c4 -4 8 -12 10 -24
c3 -16 4 -49 4 -91c13 11 35 21 53 28c-2 40 -5 86 -10 103s-14 27 -26 33c-11 7 -30 9 -44 9h-45c-18 0 -38 -5 -51 -17c-14 -11 -18 -27 -18 -83v-210h-61c-9 161 -41 269 -163 334c-7 -16 -25 -39 -40 -50c108 -53 133 -146 141 -284h-67v-546h328v546h-74v219
c0 17 1 28 5 32c4 3 8 5 15 5z" />
</svg>
