<?xml version="1.0" standalone="no"?>
<!DOCTYPE svg PUBLIC "-//W3C//DTD SVG 1.1//EN" "http://www.w3.org/Graphics/SVG/1.1/DTD/svg11.dtd" >
<svg xmlns="http://www.w3.org/2000/svg" xmlns:xlink="http://www.w3.org/1999/xlink" version="1.1" viewBox="-10 0 1010 1000">
   <path fill="currentColor"
d="M607 160v463h-66v-529h367v529h-69v-463h-232zM120 240l58 5c-3 62 -8 121 -15 176c33 61 66 138 80 188l-42 31c-10 -37 -29 -86 -51 -134c-14 80 -36 151 -67 209c-10 -10 -36 -27 -50 -34c62 -104 80 -264 87 -441zM515 718l6 60c-165 38 -342 79 -466 105l-18 -67
c56 -10 127 -25 207 -42v-602h-184v-67h437v67h-185v469c57 -97 71 -243 77 -405l59 5c-3 58 -7 113 -13 165c36 63 73 142 88 195l-42 34c-11 -40 -33 -94 -59 -145c-12 73 -33 138 -63 190c-9 -8 -32 -25 -47 -33v114zM817 880h49c26 0 31 -27 34 -168c18 14 41 23 60 28
c-8 156 -17 196 -94 196h-59c-58 0 -84 -19 -84 -82v-221c-33 113 -105 226 -255 311c-8 -14 -31 -39 -46 -50c232 -127 262 -313 262 -463v-188h66v189c0 53 -4 112 -19 172h61v244c0 25 7 32 25 32z" />
</svg>
