<?xml version="1.0" standalone="no"?>
<!DOCTYPE svg PUBLIC "-//W3C//DTD SVG 1.1//EN" "http://www.w3.org/Graphics/SVG/1.1/DTD/svg11.dtd" >
<svg xmlns="http://www.w3.org/2000/svg" xmlns:xlink="http://www.w3.org/1999/xlink" version="1.1" viewBox="-10 0 1010 1000">
   <path fill="currentColor"
d="M645 145v483h-61v-543h327v543h-64v-483h-202zM153 453v161h73v-161h-73zM226 231h-73v159h73v-159zM346 231h-67v159h67v-159zM469 231h-70v159h70v-159zM346 614v-161h-67v161h67zM399 453v161h70v-161h-70zM570 614v65h-527v-65h52v-445h131v-125h53v125h67v-125h53
v125h130v445h41zM205 702l67 21c-42 76 -109 157 -171 208c-9 -14 -33 -44 -47 -58c58 -43 116 -108 151 -171zM356 737l48 -38c45 47 101 112 127 154l-51 44c-25 -43 -79 -111 -124 -160zM831 868h55c19 0 23 -14 25 -125c13 10 38 20 54 25c-4 126 -20 157 -72 157h-70
c-59 0 -73 -18 -73 -81v-196c-27 139 -82 241 -197 311c-8 -15 -28 -38 -43 -50c199 -115 205 -330 208 -688h59c-1 133 -4 248 -15 347h48v275c0 22 3 25 21 25z" />
</svg>
