<?xml version="1.0" standalone="no"?>
<!DOCTYPE svg PUBLIC "-//W3C//DTD SVG 1.1//EN" "http://www.w3.org/Graphics/SVG/1.1/DTD/svg11.dtd" >
<svg xmlns="http://www.w3.org/2000/svg" xmlns:xlink="http://www.w3.org/1999/xlink" version="1.1" viewBox="-10 0 1010 1000">
   <path fill="currentColor"
d="M325 650h91v-122h-91v122zM180 650h91v-122h-88v32c0 29 -1 59 -3 90zM352 191h-129c-15 36 -31 72 -50 104h134c16 -30 33 -69 45 -104zM325 354v118h91v-118h-91zM183 354v118h88v-118h-88zM478 295v574c0 31 -5 50 -25 61s-50 13 -96 12c-2 -17 -10 -45 -19 -62
c31 1 57 1 66 0c9 0 12 -2 12 -12v-160h-91v219h-54v-219h-95c-10 89 -31 181 -76 251c-11 -11 -39 -28 -53 -35c67 -105 74 -252 74 -364v-182c-7 8 -15 17 -22 26c-10 -12 -39 -34 -54 -44c69 -77 124 -195 156 -317l67 15c-7 25 -15 49 -23 74h137l11 -3l43 28
c-16 45 -40 96 -62 138h104zM929 284v37c-12 417 -22 556 -53 598c-18 25 -36 34 -64 37c-24 3 -65 2 -106 1c-2 -22 -9 -53 -21 -73c42 4 79 4 95 4c15 0 23 -3 32 -16c23 -29 34 -156 44 -517h-142c-3 200 -25 422 -162 604c-14 -15 -42 -36 -61 -45
c128 -170 149 -375 152 -559h-109v-71h109v-238h71v238h215z" />
</svg>
