<?xml version="1.0" standalone="no"?>
<!DOCTYPE svg PUBLIC "-//W3C//DTD SVG 1.1//EN" "http://www.w3.org/Graphics/SVG/1.1/DTD/svg11.dtd" >
<svg xmlns="http://www.w3.org/2000/svg" xmlns:xlink="http://www.w3.org/1999/xlink" version="1.1" viewBox="-10 0 1010 1000">
   <path fill="currentColor"
d="M775 176h-146c-3 68 -6 133 -10 197c32 116 80 227 140 320c47 -70 84 -152 108 -248h-171c25 -71 55 -177 79 -269zM296 633h84v-122h-84v122zM163 633h78v-122h-76v42c0 25 0 52 -2 80zM311 172h-106c-16 37 -32 72 -51 105h113c15 -29 32 -68 44 -105zM296 336v119h84
v-119h-84zM165 336v119h76v-119h-76zM904 376l44 18c-30 145 -81 264 -147 358c50 62 107 114 172 149c-17 13 -38 38 -49 56c-62 -37 -117 -89 -166 -150c-55 62 -117 112 -185 148c-10 -16 -34 -42 -50 -53c72 -37 137 -88 193 -153c-43 -66 -80 -140 -111 -221
c-19 168 -53 311 -118 425c-10 -11 -34 -32 -51 -43c-4 12 -10 20 -22 26c-20 11 -50 12 -92 12c-2 -17 -11 -45 -19 -62c29 1 56 1 65 0c10 0 12 -3 12 -12v-183h-84v206h-55v-206h-81c-9 95 -27 195 -72 271c-11 -10 -38 -26 -52 -32c64 -110 70 -263 70 -377v-198l-21 27
c-10 -11 -38 -33 -53 -43c64 -72 117 -185 150 -296l63 16c-5 18 -11 36 -18 54h112l12 -4l41 28c-17 47 -39 97 -62 140h110v597c0 7 0 13 -1 19c96 -167 116 -424 122 -717h-95v-68h397c-22 85 -52 189 -77 271h106z" />
</svg>
