<?xml version="1.0" standalone="no"?>
<!DOCTYPE svg PUBLIC "-//W3C//DTD SVG 1.1//EN" "http://www.w3.org/Graphics/SVG/1.1/DTD/svg11.dtd" >
<svg xmlns="http://www.w3.org/2000/svg" xmlns:xlink="http://www.w3.org/1999/xlink" version="1.1" viewBox="-10 0 1010 1000">
   <path fill="currentColor"
d="M297 657h73v-126h-73v126zM166 657h80v-126h-77v29c0 30 -1 63 -3 97zM332 189h-140c-15 37 -34 74 -53 106h134c21 -29 42 -69 59 -106zM169 353v121h77v-121h-77zM370 474v-121h-73v121h73zM431 295v583c0 27 -5 46 -24 57c-17 10 -41 12 -78 12
c-2 -16 -12 -44 -21 -59h52c8 0 10 -2 10 -12v-161h-73v198h-51v-198h-84c-10 85 -29 173 -70 239c-10 -10 -37 -25 -52 -31c64 -105 70 -252 70 -363v-220c-11 15 -22 30 -33 42c-7 -11 -28 -39 -41 -51c64 -70 115 -177 144 -288l58 14c-7 25 -14 49 -23 74h148l12 -4
l39 27c-20 47 -47 98 -76 141h93zM889 48l47 54c-24 7 -51 14 -79 20c11 318 29 629 104 780c-17 11 -41 35 -53 53c-79 -172 -97 -484 -107 -820c-26 5 -53 10 -79 15v183c0 153 0 354 -69 528l111 -28c-15 -53 -32 -108 -51 -157l44 -13c34 89 69 203 81 277l-46 15
c-4 -20 -9 -45 -14 -69c-129 35 -151 44 -164 53c-9 -12 -34 -38 -47 -47c96 -165 95 -389 95 -560v-173c-28 3 -57 7 -84 11v250c0 155 -11 379 -89 531c-11 -13 -38 -35 -53 -43c71 -142 77 -343 77 -488v-298c133 -16 288 -45 376 -74z" />
</svg>
