<?xml version="1.0" standalone="no"?>
<!DOCTYPE svg PUBLIC "-//W3C//DTD SVG 1.1//EN" "http://www.w3.org/Graphics/SVG/1.1/DTD/svg11.dtd" >
<svg xmlns="http://www.w3.org/2000/svg" xmlns:xlink="http://www.w3.org/1999/xlink" version="1.1" viewBox="-10 0 1010 1000">
   <path fill="currentColor"
d="M306 639h88v-116h-88v116zM169 523v39c0 24 0 50 -2 77h86v-116h-84zM321 191h-115c-14 37 -29 73 -47 105h113c17 -29 35 -69 49 -105zM169 354v112h84v-112h-84zM394 466v-112h-88v112h88zM455 296v590c0 30 -5 48 -25 58c-18 11 -44 13 -83 13c-3 -17 -11 -44 -19 -61
c26 1 47 1 56 1c8 -1 10 -3 10 -12v-188h-89v235h-56v-235h-86c-9 92 -29 189 -75 262c-10 -10 -38 -28 -53 -34c66 -105 73 -253 73 -364v-180c-6 6 -11 14 -17 21c-11 -12 -39 -33 -56 -43c68 -77 118 -195 148 -316l66 14c-7 25 -14 49 -21 74h123l13 -4l42 28
c-18 47 -43 98 -68 141h117zM641 742l47 -12c30 61 65 142 81 190l-50 14c-16 -48 -49 -130 -78 -192zM574 420h148c-5 -77 -8 -160 -10 -246c-46 10 -93 20 -138 27v219zM947 486h-158c16 224 48 383 91 384c16 1 27 -53 33 -143c12 12 37 28 49 33
c-17 151 -50 191 -82 190c-92 -1 -134 -191 -154 -464h-152v378l103 -26c-1 19 0 43 2 56c-139 40 -164 50 -178 60c-5 -16 -17 -44 -26 -59c14 -6 33 -20 33 -57v-686c125 -21 267 -55 347 -91l60 53c-41 17 -89 32 -140 44c2 91 5 181 10 262h162v66z" />
</svg>
