<?xml version="1.0" standalone="no"?>
<!DOCTYPE svg PUBLIC "-//W3C//DTD SVG 1.1//EN" "http://www.w3.org/Graphics/SVG/1.1/DTD/svg11.dtd" >
<svg xmlns="http://www.w3.org/2000/svg" xmlns:xlink="http://www.w3.org/1999/xlink" version="1.1" viewBox="-10 0 1010 1000">
   <path fill="currentColor"
d="M287 657h84v-126h-84v126zM162 657h74v-126h-71v29c0 30 -1 63 -3 97zM318 189h-130c-15 37 -32 74 -51 106h126c19 -29 39 -70 55 -106zM287 353v121h84v-121h-84zM165 353v121h71v-121h-71zM429 295v586c0 27 -5 45 -23 56c-17 10 -40 12 -77 12
c-2 -17 -11 -42 -20 -58c25 1 45 1 52 1c8 -1 10 -3 10 -12v-165h-84v199h-51v-199h-79c-9 84 -29 171 -70 238c-9 -10 -34 -24 -48 -29c63 -106 70 -253 70 -364v-218c-11 15 -22 30 -32 43c-7 -12 -29 -39 -41 -52c61 -71 109 -178 137 -290l59 14c-7 25 -14 49 -22 74
h138l12 -4l40 27c-19 47 -46 98 -73 141h102zM566 598h287c-54 -31 -103 -71 -145 -117c-44 45 -92 85 -142 117zM598 852h222v-190h-222v190zM625 209l-5 12c21 56 51 110 88 157c39 -50 71 -107 95 -169h-178zM848 141l44 23c-32 103 -81 191 -140 265
c59 63 132 113 213 143c-15 13 -37 40 -48 58c-9 -3 -18 -7 -28 -12v338h-69v-39h-222v40h-67v-337c-13 7 -26 13 -39 20c-10 -15 -34 -43 -48 -54c79 -36 156 -90 220 -158c-33 -42 -60 -89 -84 -139c-25 42 -57 81 -92 117c-11 -15 -34 -36 -51 -44
c96 -93 153 -219 181 -319l69 10c-10 29 -21 61 -33 92h181z" />
</svg>
