<?xml version="1.0" standalone="no"?>
<!DOCTYPE svg PUBLIC "-//W3C//DTD SVG 1.1//EN" "http://www.w3.org/Graphics/SVG/1.1/DTD/svg11.dtd" >
<svg xmlns="http://www.w3.org/2000/svg" xmlns:xlink="http://www.w3.org/1999/xlink" version="1.1" viewBox="-10 0 1024 1000">
   <path fill="currentColor"
d="M934 169l-48 41c-23 -34 -72 -82 -115 -115l45 -37c43 32 94 79 118 111zM302 650h87v-122h-87v122zM166 650h85v-122h-83v32c0 29 -1 59 -2 90zM326 191h-118c-15 36 -30 72 -48 104h123c15 -30 32 -69 43 -104zM302 354v118h87v-118h-87zM168 354v118h83v-118h-83z
M903 343l61 35c-47 65 -109 140 -159 192c46 94 110 169 199 219c-11 16 -26 43 -33 64c-115 -73 -192 -179 -241 -309v328c0 40 -10 59 -33 71c-24 11 -60 14 -120 13c-3 -17 -14 -47 -24 -65c43 1 81 1 92 0c13 0 18 -4 18 -18v-207c-61 64 -123 126 -177 176l-39 -60v87
c0 31 -5 50 -24 61s-48 13 -93 12c-2 -17 -10 -45 -18 -62c30 1 56 1 65 0c8 0 12 -2 12 -12v-160h-87v219h-51v-219h-90c-9 89 -29 181 -73 251c-10 -11 -37 -28 -51 -35c66 -105 73 -252 73 -364v-183c-7 9 -15 18 -22 27c-10 -12 -38 -34 -52 -44
c68 -77 121 -195 152 -317l64 15c-7 25 -15 49 -22 74h126l10 -3l41 28c-16 45 -39 96 -61 138h101v482c55 -45 137 -121 216 -196v-288h-206v-66h206v-182h67v182h225v66h-225v27c11 69 27 133 50 192c45 -52 93 -118 123 -169zM465 377l55 -25c43 56 89 131 107 180
l-59 30c-17 -50 -60 -129 -103 -185z" />
</svg>
