<?xml version="1.0" standalone="no"?>
<!DOCTYPE svg PUBLIC "-//W3C//DTD SVG 1.1//EN" "http://www.w3.org/Graphics/SVG/1.1/DTD/svg11.dtd" >
<svg xmlns="http://www.w3.org/2000/svg" xmlns:xlink="http://www.w3.org/1999/xlink" version="1.1" viewBox="-10 0 1010 1000">
   <path fill="currentColor"
d="M280 657h65v-126h-65v126zM159 657h72v-126h-69v29c0 30 -1 63 -3 97zM307 189h-121c-16 37 -32 74 -51 106h120c18 -29 38 -70 52 -106zM280 353v121h65v-121h-65zM162 353v121h69v-121h-69zM401 295v586c0 27 -5 45 -23 56c-16 10 -39 12 -75 12
c-3 -17 -11 -42 -19 -58c24 1 44 1 51 1c7 -1 10 -3 10 -12v-165h-65v199h-49v-199h-77c-9 84 -28 171 -69 238c-9 -10 -33 -25 -46 -30c62 -105 69 -252 69 -363v-219c-11 16 -22 31 -32 44c-7 -12 -28 -39 -40 -52c61 -71 107 -178 135 -290l58 14c-7 25 -14 49 -23 74
h131l11 -4l39 27c-19 47 -45 98 -71 141h85zM922 190h-378c-26 49 -56 93 -89 127c-10 -10 -34 -31 -49 -41c59 -57 105 -142 132 -232l60 14c-8 25 -17 51 -28 76h352v56zM577 385v56h249v-56h-249zM577 288v54h249v-54h-249zM892 486h-379v-243h379v243zM959 592h-354
c-11 20 -24 39 -39 57h371s-1 19 -2 28c-13 166 -26 231 -47 255c-15 16 -30 23 -52 24c-18 1 -52 2 -86 0c-1 -19 -6 -44 -16 -60c34 4 64 4 76 4c13 0 21 -2 27 -9c13 -15 24 -65 34 -186h-58c-48 102 -128 188 -212 244c-8 -10 -31 -29 -45 -39c81 -47 151 -120 195 -205
h-71c-45 69 -116 130 -183 171c-8 -11 -30 -31 -43 -40c61 -32 120 -78 160 -131h-100c-18 17 -37 31 -56 44c-9 -11 -31 -32 -44 -42c49 -30 94 -69 126 -115h-102v-56h521v56z" />
</svg>
