<?xml version="1.0" standalone="no"?>
<!DOCTYPE svg PUBLIC "-//W3C//DTD SVG 1.1//EN" "http://www.w3.org/Graphics/SVG/1.1/DTD/svg11.dtd" >
<svg xmlns="http://www.w3.org/2000/svg" xmlns:xlink="http://www.w3.org/1999/xlink" version="1.1" viewBox="-10 0 1010 1000">
   <path fill="currentColor"
d="M297 168l-61 34c-14 -36 -46 -92 -74 -133l58 -29c29 41 61 93 77 128zM429 213v61h-378v-61h378zM399 403h-306v-59h306v59zM331 669h-174v165h174v-165zM397 607v289h-240v47h-65v-336h305zM93 533v-59h307v59h-307zM756 634l-56 48c-36 -62 -119 -154 -192 -218
l52 -43c73 63 159 150 196 213zM924 228v38c-14 447 -26 598 -64 646c-22 28 -43 36 -79 40c-32 3 -89 2 -145 -1c-1 -21 -9 -51 -23 -71c63 5 119 5 143 5c19 1 29 -2 39 -15c31 -33 45 -182 56 -573h-287c-28 56 -59 106 -91 146c-14 -12 -45 -32 -64 -42
c76 -86 138 -222 175 -357l72 15c-17 58 -37 115 -60 169h328z" />
</svg>
