<?xml version="1.0" standalone="no"?>
<!DOCTYPE svg PUBLIC "-//W3C//DTD SVG 1.1//EN" "http://www.w3.org/Graphics/SVG/1.1/DTD/svg11.dtd" >
<svg xmlns="http://www.w3.org/2000/svg" xmlns:xlink="http://www.w3.org/1999/xlink" version="1.1" viewBox="-10 0 1010 1000">
   <path fill="currentColor"
d="M297 168l-61 34c-14 -36 -46 -92 -74 -133l58 -30c29 41 61 94 77 129zM326 669h-169v165h169v-165zM392 607v289h-235v47h-65v-336h300zM93 533v-59h299v59h-299zM93 403v-59h299v59h-299zM51 274v-61h383v61h-383zM958 431v69h-219v364c0 40 -9 59 -35 70
c-27 11 -70 12 -138 12c-2 -18 -12 -45 -21 -64c50 2 95 2 108 1c14 0 19 -4 19 -19v-364h-223v-69h223v-262h-194v-68h446v68h-185v262h219z" />
</svg>
