<?xml version="1.0" standalone="no"?>
<!DOCTYPE svg PUBLIC "-//W3C//DTD SVG 1.1//EN" "http://www.w3.org/Graphics/SVG/1.1/DTD/svg11.dtd" >
<svg xmlns="http://www.w3.org/2000/svg" xmlns:xlink="http://www.w3.org/1999/xlink" version="1.1" viewBox="-10 0 1010 1000">
   <path fill="currentColor"
d="M873 78v182h-745v-182h71v123h263v-158h73v158h265v-123h73zM739 762h-479v96h479v-96zM189 955v-246h623v242h-73v-41h-479v45h-71zM204 649v-51h594v51h-594zM798 488v51h-594v-51h594zM535 377h417v54h-901v-54h448c-15 -28 -39 -62 -65 -86l56 -25c33 28 62 67 75 96
z" />
</svg>
