<?xml version="1.0" standalone="no"?>
<!DOCTYPE svg PUBLIC "-//W3C//DTD SVG 1.1//EN" "http://www.w3.org/Graphics/SVG/1.1/DTD/svg11.dtd" >
<svg xmlns="http://www.w3.org/2000/svg" xmlns:xlink="http://www.w3.org/1999/xlink" version="1.1" viewBox="-10 0 1010 1000">
   <path fill="currentColor"
d="M275 168l-56 34c-13 -36 -44 -92 -70 -133l54 -29c27 41 58 93 72 128zM388 213v61h-344v-61h344zM355 344v59h-273v-59h273zM82 533v-59h273v59h-273zM301 669h-158v165h158v-165zM362 607v289h-219v47h-61v-336h280zM572 51l64 17c-21 76 -48 153 -79 222v667h-65v-542
c-20 31 -39 61 -61 86c-8 -13 -33 -44 -47 -58c83 -94 149 -240 188 -392zM784 885h92c25 0 29 -34 33 -162c16 14 41 28 61 33c-7 145 -22 197 -90 197h-105c-70 0 -90 -26 -90 -119v-292c-20 16 -39 30 -58 44c-11 -13 -31 -34 -47 -47c34 -23 70 -52 105 -83v-399h67v333
c52 -54 99 -114 134 -173l59 40c-52 80 -121 159 -193 226v352c0 43 5 50 32 50z" />
</svg>
