<?xml version="1.0" standalone="no"?>
<!DOCTYPE svg PUBLIC "-//W3C//DTD SVG 1.1//EN" "http://www.w3.org/Graphics/SVG/1.1/DTD/svg11.dtd" >
<svg xmlns="http://www.w3.org/2000/svg" xmlns:xlink="http://www.w3.org/1999/xlink" version="1.1" viewBox="-10 0 1010 1000">
   <path fill="currentColor"
d="M927 353l-46 57c-42 -37 -102 -82 -170 -125c-75 58 -160 105 -243 142c-11 -14 -37 -44 -54 -56c83 -32 165 -74 235 -125c-62 -37 -129 -73 -191 -102l45 -49c65 30 136 68 202 107c49 -41 91 -88 124 -138l69 25c-36 54 -81 105 -132 151c64 40 120 80 161 113z
M290 168l-58 34c-15 -36 -46 -92 -73 -133l56 -29c28 41 60 93 75 128zM407 213v61h-355v-61h355zM310 669h-149v165h149v-165zM375 607v289h-214v47h-63v-336h277zM93 533v-59h283v59h-283zM93 403v-59h283v59h-283zM807 443l72 15c-37 108 -88 199 -155 275
c68 67 150 118 241 151c-16 15 -37 43 -49 63c-92 -37 -173 -93 -241 -162c-72 67 -155 120 -251 163c-8 -16 -31 -48 -45 -62c97 -37 179 -88 248 -153c-64 -78 -115 -170 -152 -271l65 -19c31 88 77 168 136 238c57 -67 101 -146 131 -238z" />
</svg>
