<?xml version="1.0" standalone="no"?>
<!DOCTYPE svg PUBLIC "-//W3C//DTD SVG 1.1//EN" "http://www.w3.org/Graphics/SVG/1.1/DTD/svg11.dtd" >
<svg xmlns="http://www.w3.org/2000/svg" xmlns:xlink="http://www.w3.org/1999/xlink" version="1.1" viewBox="-10 0 1010 1000">
   <path fill="currentColor"
d="M277 168l-55 34c-14 -36 -43 -92 -69 -133l53 -29c27 41 57 93 71 128zM405 213v61h-354v-61h354zM90 533v-59h276v59h-276zM90 344h275v59h-275v-59zM304 669h-156v165h156v-165zM366 896h-218v47h-60v-336h278v289zM947 287h-310c-2 51 -4 101 -8 151h274s-1 25 -1 35
c-14 299 -26 406 -55 442c-19 23 -38 30 -67 33c-26 3 -76 2 -125 -1c-2 -22 -10 -51 -22 -71c51 5 99 5 118 5c17 1 26 -1 35 -12c20 -22 33 -117 44 -361h-207c-21 184 -74 348 -214 451c-11 -17 -32 -41 -49 -52c182 -128 200 -372 206 -620h-135v-71h239
c-8 -41 -27 -101 -46 -148l63 -17c22 50 44 115 52 155l-31 10h239v71z" />
</svg>
