<?xml version="1.0" standalone="no"?>
<!DOCTYPE svg PUBLIC "-//W3C//DTD SVG 1.1//EN" "http://www.w3.org/Graphics/SVG/1.1/DTD/svg11.dtd" >
<svg xmlns="http://www.w3.org/2000/svg" xmlns:xlink="http://www.w3.org/1999/xlink" version="1.1" viewBox="-10 0 1010 1000">
   <path fill="currentColor"
d="M291 168l-60 34c-15 -36 -47 -92 -74 -133l57 -30c29 42 62 94 77 129zM410 213v61h-366v-61h366zM375 344v59h-290v-59h290zM85 533v-59h290v59h-290zM751 176h-167c-3 72 -7 141 -12 207c35 114 86 222 153 312c50 -69 89 -153 115 -250h-165c25 -71 54 -176 76 -269z
M317 834v-165h-167v165h167zM878 376l45 19c-30 145 -83 264 -152 357c56 62 122 114 194 148c-15 14 -37 39 -48 58c-70 -37 -134 -90 -190 -153c-59 65 -126 116 -200 154c-10 -17 -35 -45 -50 -57c76 -36 146 -87 206 -153c-49 -66 -91 -143 -126 -226
c-22 176 -64 321 -140 435c-12 -12 -45 -35 -62 -44c4 -6 9 -12 13 -18h-218v47h-65v-336h298v265c98 -162 122 -407 131 -696h-105v-68h431c-22 86 -50 189 -75 271h100z" />
</svg>
