<?xml version="1.0" standalone="no"?>
<!DOCTYPE svg PUBLIC "-//W3C//DTD SVG 1.1//EN" "http://www.w3.org/Graphics/SVG/1.1/DTD/svg11.dtd" >
<svg xmlns="http://www.w3.org/2000/svg" xmlns:xlink="http://www.w3.org/1999/xlink" version="1.1" viewBox="-10 0 1010 1000">
   <path fill="currentColor"
d="M288 171l-60 34c-14 -36 -47 -93 -74 -133l58 -30c28 41 62 94 76 129zM300 669h-150v165h150v-165zM366 607v289h-216v47h-65v-336h281zM85 533v-59h276v59h-276zM361 344v59h-276v-59h276zM44 274v-61h345v61h-345zM794 387h-102v246h102v-246zM865 702h-241v-315h-99
v442h412v72h-479v-514h-66v-72h66v-241h67v241h99v-271h68v271h102v-231l71 1v230h90v72h-90v315z" />
</svg>
