<?xml version="1.0" standalone="no"?>
<!DOCTYPE svg PUBLIC "-//W3C//DTD SVG 1.1//EN" "http://www.w3.org/Graphics/SVG/1.1/DTD/svg11.dtd" >
<svg xmlns="http://www.w3.org/2000/svg" xmlns:xlink="http://www.w3.org/1999/xlink" version="1.1" viewBox="-10 0 1010 1000">
   <path fill="currentColor"
d="M290 168l-60 34c-14 -36 -47 -92 -74 -133l58 -30c28 41 61 93 76 129zM315 669h-166v165h166v-165zM382 607v289h-233v47h-65v-336h298zM84 533v-59h290v59h-290zM374 344v59h-290v-59h290zM44 274v-61h365v61h-365zM818 392h-279v210h279v-210zM539 845h418v73h-488
v-823h469v73h-399v154h349v350h-349v173z" />
</svg>
