<?xml version="1.0" standalone="no"?>
<!DOCTYPE svg PUBLIC "-//W3C//DTD SVG 1.1//EN" "http://www.w3.org/Graphics/SVG/1.1/DTD/svg11.dtd" >
<svg xmlns="http://www.w3.org/2000/svg" xmlns:xlink="http://www.w3.org/1999/xlink" version="1.1" viewBox="-10 0 1010 1000">
   <path fill="currentColor"
d="M281 171l-57 31c-14 -36 -47 -92 -73 -133l56 -27c28 40 60 93 74 129zM301 669h-154v165h154v-165zM365 607v289h-218v47h-63v-336h281zM84 533v-59h274v59h-274zM358 344v59h-274v-59h274zM44 274v-61h350v61h-350zM732 395h-119v236h119v-236zM784 697h-171v59h-52
v-427h223v368zM926 104v757c0 43 -10 66 -36 78c-28 13 -73 14 -141 14c-3 -19 -14 -54 -24 -74c49 2 96 2 111 1c14 0 19 -5 19 -20v-684h-365v780h-67v-852h503z" />
</svg>
