<?xml version="1.0" standalone="no"?>
<!DOCTYPE svg PUBLIC "-//W3C//DTD SVG 1.1//EN" "http://www.w3.org/Graphics/SVG/1.1/DTD/svg11.dtd" >
<svg xmlns="http://www.w3.org/2000/svg" xmlns:xlink="http://www.w3.org/1999/xlink" version="1.1" viewBox="-10 0 1010 1000">
   <path fill="currentColor"
d="M409 209v62h-367v-62h176c-19 -37 -56 -93 -91 -134l62 -25c38 40 76 95 94 133l-57 26h183zM370 344v59h-282v-59h282zM88 536v-60h282v60h-282zM308 672h-156v167h156v-167zM373 611v289h-221v46h-65v-335h286zM820 560h-289c35 73 85 137 148 191
c59 -51 108 -113 141 -191zM868 489l47 24c-38 119 -101 210 -179 280c64 44 141 78 223 99c-16 15 -37 43 -48 64c-87 -26 -166 -65 -233 -117c-75 53 -161 91 -253 118c-8 -18 -31 -47 -46 -60c89 -23 172 -57 243 -104c-64 -60 -116 -134 -153 -217l46 -16h-100v-68h229
v-112h-203v-259h68v193h135v-268h69v268h142v-193h69v259h-211v112h142z" />
</svg>
