<?xml version="1.0" standalone="no"?>
<!DOCTYPE svg PUBLIC "-//W3C//DTD SVG 1.1//EN" "http://www.w3.org/Graphics/SVG/1.1/DTD/svg11.dtd" >
<svg xmlns="http://www.w3.org/2000/svg" xmlns:xlink="http://www.w3.org/1999/xlink" version="1.1" viewBox="-10 0 1010 1000">
   <path fill="currentColor"
d="M518 213h-126c-55 122 -149 201 -287 255c-8 -14 -32 -39 -46 -51c122 -41 206 -106 256 -204h-252v-56h276c11 -34 20 -71 26 -112l73 5c-6 38 -15 75 -26 107h324c-41 -24 -103 -52 -152 -71l43 -38c59 22 137 55 178 79l-31 30h163v56h-346v105
c85 -28 161 -59 212 -95l48 44c-67 42 -159 77 -260 106v6c0 24 9 28 60 28h177c37 0 43 -9 46 -68c18 10 47 20 68 23c-9 80 -32 102 -107 102h-190c-94 0 -123 -15 -127 -72c-57 15 -117 28 -174 39c-3 -15 -12 -35 -21 -48c65 -12 131 -27 195 -45v-125zM737 819h-474v65
h474v-65zM193 955v-182h617v181h-73v-24h-474v25h-70zM204 729v-43h594v43h-594zM798 601v44h-594v-44h594zM551 512h400v46h-901v-46h424c-9 -21 -20 -42 -31 -60l67 -14c16 22 31 50 41 74z" />
</svg>
