<?xml version="1.0" standalone="no"?>
<!DOCTYPE svg PUBLIC "-//W3C//DTD SVG 1.1//EN" "http://www.w3.org/Graphics/SVG/1.1/DTD/svg11.dtd" >
<svg xmlns="http://www.w3.org/2000/svg" xmlns:xlink="http://www.w3.org/1999/xlink" version="1.1" viewBox="-10 0 1010 1000">
   <path fill="currentColor"
d="M796 155l-36 67c-57 -40 -174 -91 -266 -120l33 -59c90 26 208 74 269 112zM266 168l-58 34c-15 -36 -46 -92 -73 -133l56 -29c28 41 61 93 75 128zM373 213v61h-320v-61h320zM282 669h-130v165h130v-165zM346 607v289h-194v47h-63v-336h257zM89 533v-59h257v59h-257z
M89 403v-59h258v59h-258zM544 428l45 16c-30 183 -102 336 -193 416c-11 -15 -32 -41 -48 -53c69 -58 130 -178 160 -308h-139v-68h162zM886 326l60 48c-50 59 -113 129 -164 179c50 109 112 204 184 256c-17 13 -40 39 -52 57c-85 -69 -155 -197 -205 -342v344
c0 42 -9 64 -36 76c-29 12 -74 13 -146 13c-3 -20 -13 -52 -23 -72c52 3 101 2 114 2c15 -1 20 -5 20 -19v-550h-198v-68h269v92c13 50 29 101 48 150c46 -51 97 -117 129 -166z" />
</svg>
