<?xml version="1.0" standalone="no"?>
<!DOCTYPE svg PUBLIC "-//W3C//DTD SVG 1.1//EN" "http://www.w3.org/Graphics/SVG/1.1/DTD/svg11.dtd" >
<svg xmlns="http://www.w3.org/2000/svg" xmlns:xlink="http://www.w3.org/1999/xlink" version="1.1" viewBox="-10 0 1010 1000">
   <path fill="currentColor"
d="M894 331l-43 45c-32 -40 -94 -99 -149 -150c-34 69 -81 124 -144 164c-9 -12 -31 -34 -45 -44c96 -61 154 -163 174 -289l65 10c-7 37 -16 72 -28 105c61 51 133 118 170 159zM927 410v67h-506v-408h65v341h441zM281 169l-58 33c-14 -36 -47 -92 -73 -133l55 -28
c28 41 61 93 76 128zM383 213v61h-329v-61h329zM353 403h-269v-59h269v59zM353 474v59h-269v-59h269zM298 669h-149v165h149v-165zM361 607v289h-212v47h-64v-336h276zM472 634v-123h66v125c0 109 -12 230 -114 325c-11 -15 -37 -36 -54 -46c92 -83 102 -189 102 -281z
M624 915v-400h64v400h-64zM862 889h23c7 0 14 0 17 -4c5 -3 8 -11 10 -23c2 -16 3 -48 4 -91c13 12 34 22 51 28c-1 40 -5 86 -10 103s-13 27 -25 35c-11 6 -28 8 -42 8h-42c-18 0 -37 -4 -50 -17c-14 -11 -18 -27 -18 -89v-329h64v338c0 19 1 33 4 37c4 3 8 4 14 4z" />
</svg>
