<?xml version="1.0" standalone="no"?>
<!DOCTYPE svg PUBLIC "-//W3C//DTD SVG 1.1//EN" "http://www.w3.org/Graphics/SVG/1.1/DTD/svg11.dtd" >
<svg xmlns="http://www.w3.org/2000/svg" xmlns:xlink="http://www.w3.org/1999/xlink" version="1.1" viewBox="-10 0 1010 1000">
   <path fill="currentColor"
d="M944 185v69h-492v-69h232c-14 -32 -41 -82 -64 -119l62 -28c25 37 54 85 67 117l-60 30h255zM756 313l57 -35c50 64 117 150 148 201l-60 42c-31 -53 -95 -143 -145 -208zM573 279l69 23c-40 78 -98 168 -146 227c-12 -13 -42 -35 -58 -45c49 -54 101 -133 135 -205z
M286 167l-58 35c-15 -37 -47 -92 -74 -134l56 -29c29 41 61 93 76 128zM308 669h-154v165h154v-165zM372 607v289h-218v47h-63v-336h281zM92 533v-59h281v59h-281zM92 344h280v59h-280v-59zM51 274v-61h358v61h-358zM774 461l69 17c-23 89 -57 167 -104 237
c63 79 142 141 231 178c-17 15 -37 42 -49 62c-87 -40 -163 -103 -225 -180c-61 74 -138 136 -232 183c-10 -16 -32 -42 -48 -55c97 -47 176 -110 237 -188c-45 -69 -81 -147 -109 -231l64 -18c22 67 51 130 87 188c36 -58 61 -122 79 -193z" />
</svg>
