<?xml version="1.0" standalone="no"?>
<!DOCTYPE svg PUBLIC "-//W3C//DTD SVG 1.1//EN" "http://www.w3.org/Graphics/SVG/1.1/DTD/svg11.dtd" >
<svg xmlns="http://www.w3.org/2000/svg" xmlns:xlink="http://www.w3.org/1999/xlink" version="1.1" viewBox="-10 0 1010 1000">
   <path fill="currentColor"
d="M281 168l-62 34c-13 -36 -45 -92 -72 -133l57 -29c29 41 62 93 77 128zM379 213v61h-335v-61h335zM349 344v59h-267v-59h267zM82 533v-59h267v59h-267zM294 669h-154v165h154v-165zM355 896h-215v47h-59v-336h274v289zM840 583h-233v230h233v-230zM540 946v-432h370v428
h-70v-60h-233v64h-67zM507 315h448v70h-448v84c0 166 -14 354 -112 488c-12 -11 -36 -31 -54 -40c90 -123 101 -300 101 -449v-354l-1 -2c151 -12 327 -32 431 -59l43 64c-110 26 -267 46 -408 55v143z" />
</svg>
