<?xml version="1.0" standalone="no"?>
<!DOCTYPE svg PUBLIC "-//W3C//DTD SVG 1.1//EN" "http://www.w3.org/Graphics/SVG/1.1/DTD/svg11.dtd" >
<svg xmlns="http://www.w3.org/2000/svg" xmlns:xlink="http://www.w3.org/1999/xlink" version="1.1" viewBox="-10 0 1010 1000">
   <path fill="currentColor"
d="M296 168l-62 34c-14 -36 -45 -92 -72 -133l56 -29c30 41 62 93 78 128zM320 669h-165v167h165v-167zM386 607v291h-231v50h-65v-341h296zM90 533v-59h289v59h-289zM379 344v59h-289v-59h289zM49 274v-61h366v61h-366zM527 819h292v-151h-292v151zM819 601v-143h-292v143
h292zM819 246h-292v145h292v-145zM673 176h217v775h-71v-63h-292v63h-68v-775h141c15 -44 30 -95 36 -134l76 11c-13 43 -27 86 -39 123z" />
</svg>
