<?xml version="1.0" standalone="no"?>
<!DOCTYPE svg PUBLIC "-//W3C//DTD SVG 1.1//EN" "http://www.w3.org/Graphics/SVG/1.1/DTD/svg11.dtd" >
<svg xmlns="http://www.w3.org/2000/svg" xmlns:xlink="http://www.w3.org/1999/xlink" version="1.1" viewBox="-10 0 1010 1000">
   <path fill="currentColor"
d="M288 168l-59 34c-14 -36 -46 -92 -73 -133l56 -29c29 41 62 93 76 128zM315 669h-167v165h167v-165zM380 607v289h-232v47h-64v-336h296zM85 533v-59h286v59h-286zM371 344v59h-286v-59h286zM44 274v-61h361v61h-361zM954 671v70h-233v217h-73v-217h-225v-70h225v-153
h-182v-69h182v-142h-208v-69h116c-15 -46 -50 -113 -83 -163l58 -27c38 51 76 120 91 165l-48 25h224l-52 -23c30 -47 66 -121 86 -173l75 28c-31 58 -68 124 -100 168h132v69h-218v142h188v69h-188v153h233z" />
</svg>
