<?xml version="1.0" standalone="no"?>
<!DOCTYPE svg PUBLIC "-//W3C//DTD SVG 1.1//EN" "http://www.w3.org/Graphics/SVG/1.1/DTD/svg11.dtd" >
<svg xmlns="http://www.w3.org/2000/svg" xmlns:xlink="http://www.w3.org/1999/xlink" version="1.1" viewBox="-10 0 1010 1000">
   <path fill="currentColor"
d="M787 792h-399v80h399v-80zM319 953v-205h540v202h-72v-34h-399v37h-69zM325 701v-46h522v46h-522zM847 562v46h-522v-46h522zM513 393l63 -23c24 28 52 66 68 94h286v54h-674v-54h307c-15 -24 -33 -51 -50 -71zM462 288l65 21c-56 52 -135 103 -221 132l-48 -48
c74 -21 152 -61 204 -105zM637 324l42 -39c76 30 173 76 222 108l-43 46c-48 -33 -144 -82 -221 -115zM569 153h-254c-16 22 -32 43 -51 64h262c15 -19 30 -41 43 -64zM606 217h332v59h-698v195c0 146 -18 349 -131 486c-13 -13 -42 -32 -60 -39c109 -130 121 -313 121 -448
v-162c-23 20 -47 38 -74 55c-11 -17 -34 -40 -50 -51c125 -76 212 -183 255 -272l77 14c-8 16 -17 30 -26 46h254l13 -4l46 31c-17 30 -37 61 -59 90z" />
</svg>
