<?xml version="1.0" standalone="no"?>
<!DOCTYPE svg PUBLIC "-//W3C//DTD SVG 1.1//EN" "http://www.w3.org/Graphics/SVG/1.1/DTD/svg11.dtd" >
<svg xmlns="http://www.w3.org/2000/svg" xmlns:xlink="http://www.w3.org/1999/xlink" version="1.1" viewBox="-10 0 1010 1000">
   <path fill="currentColor"
d="M291 168l-60 34c-15 -36 -47 -92 -74 -133l57 -29c29 41 62 93 77 128zM317 669h-167v165h167v-165zM383 607v289h-233v47h-65v-336h298zM85 533v-59h290v59h-290zM375 344v59h-290v-59h290zM44 274v-61h366v61h-366zM553 598h283c-54 -32 -101 -71 -144 -117
c-43 45 -89 85 -139 117zM581 852h222v-190h-222v190zM609 209l-6 13c22 56 52 109 89 157c39 -51 71 -107 95 -170h-178zM832 141l45 23c-32 103 -81 192 -141 266c62 65 138 116 222 146c-15 14 -37 41 -48 59c-12 -5 -25 -10 -37 -16v337h-70v-39h-222v40h-67v-334
c-16 8 -31 17 -47 25c-11 -16 -34 -44 -49 -55c83 -38 164 -93 230 -164c-33 -43 -60 -90 -84 -140c-26 42 -58 81 -93 117c-12 -15 -35 -36 -52 -44c96 -93 154 -219 182 -319l70 10c-10 29 -21 61 -33 92h181z" />
</svg>
