<?xml version="1.0" standalone="no"?>
<!DOCTYPE svg PUBLIC "-//W3C//DTD SVG 1.1//EN" "http://www.w3.org/Graphics/SVG/1.1/DTD/svg11.dtd" >
<svg xmlns="http://www.w3.org/2000/svg" xmlns:xlink="http://www.w3.org/1999/xlink" version="1.1" viewBox="-10 0 1010 1000">
   <path fill="currentColor"
d="M255 168l-52 34c-13 -36 -43 -92 -69 -133l49 -30c28 42 58 94 72 129zM364 213v61h-312v-61h312zM330 403h-244v-59h244v59zM330 474v59h-244v-59h244zM276 669h-131v165h131v-165zM331 607v289h-186v47h-56v-336h242zM949 226h-360c-32 211 -89 376 -194 494
c-10 -13 -37 -38 -51 -50c98 -101 151 -255 180 -444h-126v-68h135c4 -34 8 -71 11 -107l66 6c-3 34 -7 69 -11 101h350v68zM860 609l-52 -15c26 -58 59 -156 76 -223l61 16c-25 75 -58 166 -85 222zM581 630l-48 -30c32 -51 46 -138 52 -216l52 11c-7 85 -20 179 -56 235z
M706 289h61c-1 119 -4 220 -15 304c28 150 90 258 214 300c-14 14 -32 41 -40 59c-102 -42 -164 -122 -201 -234c-37 110 -106 183 -237 233c-7 -16 -25 -43 -38 -56c242 -86 251 -249 256 -606z" />
</svg>
