<?xml version="1.0" standalone="no"?>
<!DOCTYPE svg PUBLIC "-//W3C//DTD SVG 1.1//EN" "http://www.w3.org/Graphics/SVG/1.1/DTD/svg11.dtd" >
<svg xmlns="http://www.w3.org/2000/svg" xmlns:xlink="http://www.w3.org/1999/xlink" version="1.1" viewBox="-10 0 1010 1000">
   <path fill="currentColor"
d="M877 177l61 35c-39 67 -86 146 -124 198l-44 -31c35 -53 82 -140 107 -202zM551 392l-57 28c-13 -56 -50 -142 -86 -206l53 -26c38 64 75 148 90 204zM266 168l-54 34c-13 -36 -42 -92 -67 -133l52 -29c26 41 56 93 69 128zM290 669h-152v165h152v-165zM349 607v289h-211
v47h-58v-336h269zM80 533v-59h263v59h-263zM343 344v59h-263v-59h263zM44 274v-61h329v61h-329zM560 485v-430h65v431c0 196 -23 357 -187 471c-11 -16 -33 -41 -48 -52c125 -86 160 -198 168 -335c-50 43 -99 85 -143 121l-30 -66c44 -30 109 -78 175 -127v-13zM792 880h80
c20 0 24 -23 26 -112c16 12 39 24 58 28c-7 111 -24 149 -80 149h-93c-66 0 -84 -23 -84 -113v-778h65v401l4 -4c63 53 137 130 172 182l-44 48c-27 -42 -80 -103 -132 -154v306c0 40 4 47 28 47z" />
</svg>
