<?xml version="1.0" standalone="no"?>
<!DOCTYPE svg PUBLIC "-//W3C//DTD SVG 1.1//EN" "http://www.w3.org/Graphics/SVG/1.1/DTD/svg11.dtd" >
<svg xmlns="http://www.w3.org/2000/svg" xmlns:xlink="http://www.w3.org/1999/xlink" version="1.1" viewBox="-10 0 1010 1000">
   <path fill="currentColor"
d="M277 168l-57 34c-13 -36 -44 -92 -70 -133l55 -30c27 41 58 94 72 129zM301 669h-156v165h156v-165zM364 607v289h-219v47h-62v-336h281zM83 533v-59h275v59h-275zM358 344v59h-275v-59h275zM44 274v-61h346v61h-346zM493 843h462v68h-533v-809h519v69h-448v672zM534 679
h157v-155h-131v-63h131v-139h-148v-65h357v65h-142v139h124v63h-124v155h160v65h-384v-65z" />
</svg>
