<?xml version="1.0" standalone="no"?>
<!DOCTYPE svg PUBLIC "-//W3C//DTD SVG 1.1//EN" "http://www.w3.org/Graphics/SVG/1.1/DTD/svg11.dtd" >
<svg xmlns="http://www.w3.org/2000/svg" xmlns:xlink="http://www.w3.org/1999/xlink" version="1.1" viewBox="-10 0 1010 1000">
   <path fill="currentColor"
d="M544 183l-66 27c-10 -38 -41 -97 -70 -140l63 -25c30 43 61 99 73 138zM739 792h-468v79h468v-79zM200 955v-216h612v215h-73v-30h-468v31h-71zM219 688v-48h575v48h-575zM794 536v48h-575v-48h575zM551 429h217c-56 -44 -105 -97 -141 -154h-257
c-34 56 -79 108 -131 154h234c-14 -29 -32 -62 -48 -90l64 -19c23 34 48 78 62 109zM944 275h-238c62 80 160 150 259 184c-16 14 -37 41 -48 58c-29 -11 -57 -25 -84 -43v8h-658v-2c-30 21 -59 39 -89 53c-10 -17 -31 -42 -47 -55c93 -41 191 -118 253 -203h-234v-64h190
c-16 -36 -54 -89 -89 -127l62 -29c37 38 77 92 94 130l-55 26h397l-7 -3c35 -41 82 -109 108 -157l74 30c-33 44 -70 93 -103 130h215v64z" />
</svg>
