<?xml version="1.0" standalone="no"?>
<!DOCTYPE svg PUBLIC "-//W3C//DTD SVG 1.1//EN" "http://www.w3.org/Graphics/SVG/1.1/DTD/svg11.dtd" >
<svg xmlns="http://www.w3.org/2000/svg" xmlns:xlink="http://www.w3.org/1999/xlink" version="1.1" viewBox="-10 0 1010 1000">
   <path fill="currentColor"
d="M941 236l-61 28c-19 -44 -66 -116 -107 -168l59 -23c40 51 88 119 109 163zM257 168l-60 34c-15 -36 -47 -92 -75 -133l58 -29c30 41 62 93 77 128zM356 213v61h-312v-61h312zM332 344v59h-247v-59h247zM85 533v-59h245v59h-245zM271 669h-124v165h124v-165zM335 607v289
h-188v47h-62v-336h250zM859 444l66 16c-36 103 -82 197 -138 280c22 94 50 149 85 149c19 -1 29 -43 33 -150c14 16 36 30 53 37c-12 139 -31 182 -94 182c-58 0 -99 -55 -128 -148c-40 50 -85 95 -132 132c-9 -13 -34 -40 -48 -53c59 -43 112 -97 159 -161
c-18 -88 -30 -199 -37 -322h-133v166l105 -25l6 64l-111 28v228c0 44 -10 63 -36 76c-28 12 -73 14 -141 14c-3 -19 -14 -50 -24 -71c51 1 98 1 112 0c14 0 19 -4 19 -19v-210c-39 10 -75 19 -109 27l-16 -69c35 -7 78 -17 125 -28v-181h-118v-68h118v-153
c-34 10 -70 20 -102 28c-4 -15 -15 -39 -23 -53c94 -25 202 -63 258 -100l58 51c-34 18 -76 36 -121 52v175h130c-4 -91 -6 -189 -7 -290h71c-1 103 1 200 5 290h202v68h-199c5 90 13 171 23 239c36 -62 66 -129 89 -201z" />
</svg>
