<?xml version="1.0" standalone="no"?>
<!DOCTYPE svg PUBLIC "-//W3C//DTD SVG 1.1//EN" "http://www.w3.org/Graphics/SVG/1.1/DTD/svg11.dtd" >
<svg xmlns="http://www.w3.org/2000/svg" xmlns:xlink="http://www.w3.org/1999/xlink" version="1.1" viewBox="-10 0 1010 1000">
   <path fill="currentColor"
d="M348 209v62h-306v-62h154c-8 -39 -28 -95 -53 -138l55 -20c26 44 50 103 56 142l-40 16h134zM324 476v60h-241v-60h241zM264 672h-125v166h125v-166zM325 611v288h-186v47h-60v-335h246zM537 63l64 17c-22 57 -51 112 -83 162c38 104 45 214 45 330c0 140 -7 288 -43 338
c-11 16 -27 25 -49 29c-26 4 -59 5 -92 3c-1 -22 -7 -47 -18 -67c34 2 64 2 81 0c12 -1 20 -5 27 -12c21 -30 27 -168 27 -291v-20c-37 60 -82 117 -123 156c-10 -15 -28 -39 -45 -52c59 -48 124 -136 163 -219c-4 -43 -11 -85 -21 -127c-31 40 -64 76 -97 106
c-11 -12 -34 -39 -49 -50v37h-241v-59h241v20c43 -35 84 -80 121 -129c-21 -49 -50 -97 -90 -143l50 -36c34 38 60 76 81 114c19 -34 37 -71 51 -107zM800 857h158v70h-394v-70h166v-329h-130v-70h130v-281h-137v-70h353v70h-146v281h138v70h-138v329z" />
</svg>
