<?xml version="1.0" standalone="no"?>
<!DOCTYPE svg PUBLIC "-//W3C//DTD SVG 1.1//EN" "http://www.w3.org/Graphics/SVG/1.1/DTD/svg11.dtd" >
<svg xmlns="http://www.w3.org/2000/svg" xmlns:xlink="http://www.w3.org/1999/xlink" version="1.1" viewBox="-10 0 1010 1000">
   <path fill="currentColor"
d="M256 173l-60 24c-11 -34 -38 -88 -65 -128l57 -20c28 39 57 91 68 124zM349 213v61h-305v-61h305zM263 671h-122v168h122v-168zM322 611v288h-181v47h-60v-335h241zM86 536v-60h236v60h-236zM86 403v-59h236v59h-236zM559 403v29c23 25 100 120 116 144l-37 60
c-13 -27 -50 -82 -79 -125v446h-66v-429c-30 90 -68 175 -107 227c-11 -15 -33 -38 -48 -48c54 -65 112 -189 145 -304h-117v-64h127v-171c-38 8 -76 15 -112 21c-3 -14 -13 -37 -21 -52c92 -16 198 -44 258 -72l53 50c-33 13 -71 26 -112 37v187h105v64h-105zM758 157v577
h-62v-577h62zM851 59h66v815c0 40 -10 59 -33 70c-25 12 -63 14 -124 14c-3 -18 -13 -47 -23 -66c44 1 84 1 96 1c13 0 18 -5 18 -18v-816z" />
</svg>
