<?xml version="1.0" standalone="no"?>
<!DOCTYPE svg PUBLIC "-//W3C//DTD SVG 1.1//EN" "http://www.w3.org/Graphics/SVG/1.1/DTD/svg11.dtd" >
<svg xmlns="http://www.w3.org/2000/svg" xmlns:xlink="http://www.w3.org/1999/xlink" version="1.1" viewBox="-10 0 1010 1000">
   <path fill="currentColor"
d="M285 168l-58 34c-15 -36 -47 -92 -74 -133l57 -29c28 41 61 93 75 128zM398 213v61h-354v-61h354zM365 344v59h-281v-59h281zM84 533v-59h281v59h-281zM306 669h-158v165h158v-165zM371 607v289h-223v47h-64v-336h287zM478 683h194v-68c39 -17 82 -44 118 -71h-134
c-56 52 -115 98 -178 139zM743 638v45h209v64h-209v129c0 39 -8 58 -36 70c-29 11 -74 11 -142 11c-3 -20 -15 -48 -24 -67c53 1 100 1 113 0c15 -1 18 -3 18 -15v-128h-236v-37c-11 5 -22 12 -33 18c-5 -16 -21 -50 -32 -67c64 -33 125 -72 182 -117h-68v-63h143
c27 -25 54 -52 79 -79h-297v-66h203v-113h-160v-65h160v-114h71v114h126v65h-126v113h78c62 -77 115 -163 157 -256l61 23c-39 83 -86 160 -138 233h103v66h-154c-23 27 -46 54 -70 79h141l13 -4l43 36c-47 46 -112 92 -175 125z" />
</svg>
