<?xml version="1.0" standalone="no"?>
<!DOCTYPE svg PUBLIC "-//W3C//DTD SVG 1.1//EN" "http://www.w3.org/Graphics/SVG/1.1/DTD/svg11.dtd" >
<svg xmlns="http://www.w3.org/2000/svg" xmlns:xlink="http://www.w3.org/1999/xlink" version="1.1" viewBox="-10 0 1010 1000">
   <path fill="currentColor"
d="M278 168l-56 34c-14 -36 -45 -92 -71 -133l54 -30c28 41 59 93 73 129zM392 213v61h-348v-61h348zM359 344v59h-276v-59h276zM83 533v-59h276v59h-276zM304 669h-160v165h160v-165zM367 607v289h-223v47h-62v-336h285zM937 211h-401c-33 63 -68 119 -104 162
c-12 -12 -41 -34 -58 -42c64 -72 122 -180 157 -288l67 19c-10 27 -20 56 -32 83h371v66zM607 412l42 -32c37 28 85 69 111 95l-43 36c-26 -27 -73 -69 -110 -99zM747 713l-44 37c-25 -30 -75 -79 -115 -114l43 -33c39 35 90 81 116 110zM521 762h288c4 -44 8 -102 12 -178
h-276c-8 64 -16 125 -24 178zM829 359h-258c-6 53 -12 107 -19 163h271c2 -48 4 -102 6 -163zM961 584h-72c-3 74 -7 132 -11 178h63v61h-70c-7 48 -16 75 -28 90c-17 25 -38 33 -68 36s-80 2 -129 -1c-2 -19 -9 -45 -20 -63c53 5 101 5 121 5c17 1 27 -2 36 -14
c7 -8 13 -25 18 -53h-358c11 -64 24 -150 35 -239h-87v-62h95c9 -78 17 -156 23 -224h390s-1 26 -1 36c-2 71 -4 133 -6 188h69v62z" />
</svg>
