<?xml version="1.0" standalone="no"?>
<!DOCTYPE svg PUBLIC "-//W3C//DTD SVG 1.1//EN" "http://www.w3.org/Graphics/SVG/1.1/DTD/svg11.dtd" >
<svg xmlns="http://www.w3.org/2000/svg" xmlns:xlink="http://www.w3.org/1999/xlink" version="1.1" viewBox="-10 0 1010 1000">
   <path fill="currentColor"
d="M518 312v-103h-132v-66h132v-100h69v100h161v-100h69v100h136v66h-136v103h-69v-103h-161v103h-69zM369 209v62h-327v-62h157c-8 -39 -29 -95 -53 -138l55 -20c25 44 50 103 56 141l-41 17h153zM341 344v59h-259v-59h259zM82 536v-60h259v60h-259zM279 673h-136v165h136
v-165zM343 611v289h-200v47h-63v-336h263zM550 317l64 20c-20 46 -46 91 -74 134v483h-68v-395c-27 31 -56 60 -85 84c-9 -13 -32 -43 -46 -56c84 -64 163 -164 209 -270zM790 881h86c22 0 27 -22 29 -130c16 12 42 24 62 29c-7 128 -24 165 -86 165h-100
c-69 0 -88 -22 -88 -100v-187c-19 13 -39 25 -58 37c-9 -13 -28 -34 -44 -46c33 -20 68 -42 102 -68v-256h68v202c53 -45 102 -95 138 -143l54 43c-52 64 -121 128 -192 182v235c0 31 4 37 29 37z" />
</svg>
