<?xml version="1.0" standalone="no"?>
<!DOCTYPE svg PUBLIC "-//W3C//DTD SVG 1.1//EN" "http://www.w3.org/Graphics/SVG/1.1/DTD/svg11.dtd" >
<svg xmlns="http://www.w3.org/2000/svg" xmlns:xlink="http://www.w3.org/1999/xlink" version="1.1" viewBox="-10 0 1010 1000">
   <path fill="currentColor"
d="M486 234v101h-69v-166h236c-13 -34 -31 -76 -49 -109l70 -18c22 39 46 90 59 127h201v166h-71v-101h-377zM851 414h-353v-65h353v65zM273 168l-57 34c-15 -36 -46 -92 -73 -133l55 -29c29 41 60 93 75 128zM384 213v61h-340v-61h340zM352 403h-270v-59h270v59zM352 474
v59h-270v-59h270zM297 669h-150v165h150v-165zM361 607v289h-214v47h-63v-336h277zM500 652l67 23c-40 74 -98 161 -144 219c-14 -12 -42 -33 -58 -44c48 -53 100 -130 135 -198zM940 591h-228v279c0 39 -8 57 -34 68c-26 12 -65 12 -128 12c-3 -20 -13 -47 -22 -67
c44 2 85 2 96 1c13 -1 17 -4 17 -15v-278h-238v-66h537v66zM778 678l60 -27c46 63 100 149 126 201l-65 31c-23 -52 -76 -140 -121 -205z" />
</svg>
