<?xml version="1.0" standalone="no"?>
<!DOCTYPE svg PUBLIC "-//W3C//DTD SVG 1.1//EN" "http://www.w3.org/Graphics/SVG/1.1/DTD/svg11.dtd" >
<svg xmlns="http://www.w3.org/2000/svg" xmlns:xlink="http://www.w3.org/1999/xlink" version="1.1" viewBox="-10 0 1010 1000">
   <path fill="currentColor"
d="M844 106l67 27c-37 59 -81 128 -118 172l-52 -24c34 -46 78 -122 103 -175zM939 453l-42 58c-53 -50 -154 -122 -245 -178c-34 79 -94 128 -206 163c-7 -18 -24 -45 -37 -59c192 -55 210 -152 214 -390h68c-2 90 -7 162 -20 222c96 56 209 131 268 184zM795 747l-56 -24
c38 -49 86 -132 113 -189l68 27c-38 65 -87 139 -125 186zM493 109l59 14c-19 63 -51 138 -88 185l-58 -25c35 -42 68 -112 87 -174zM487 540l61 14c-19 71 -51 154 -92 207l-59 -32c38 -44 72 -122 90 -189zM274 168l-55 34c-15 -36 -46 -92 -72 -133l53 -29
c28 41 60 93 74 128zM388 213v61h-344v-61h344zM83 533v-59h272v59h-272zM83 344h269v59h-269v-59zM300 669h-157v165h157v-165zM362 607v289h-219v47h-61v-336h280zM617 456h69c-2 64 -5 121 -12 172c41 134 134 232 289 262c-14 15 -33 45 -42 65
c-131 -31 -216 -107 -269 -218c-36 105 -106 174 -249 219c-6 -19 -25 -50 -40 -65c226 -64 247 -186 254 -435z" />
</svg>
