<?xml version="1.0" standalone="no"?>
<!DOCTYPE svg PUBLIC "-//W3C//DTD SVG 1.1//EN" "http://www.w3.org/Graphics/SVG/1.1/DTD/svg11.dtd" >
<svg xmlns="http://www.w3.org/2000/svg" xmlns:xlink="http://www.w3.org/1999/xlink" version="1.1" viewBox="-10 0 1010 1000">
   <path fill="currentColor"
d="M284 168l-58 34c-15 -36 -46 -92 -73 -133l56 -29c28 41 61 93 75 128zM308 669h-162v165h162v-165zM373 607v289h-227v47h-63v-336h290zM83 533v-59h282v59h-282zM365 344v59h-282v-59h282zM44 274v-61h355v61h-355zM807 739l-40 51c-18 -24 -65 -71 -102 -105v243h-61
v-254c-44 83 -100 163 -154 212c-6 -19 -23 -45 -33 -61c61 -53 129 -147 171 -233h-139v-57h155v-225h61v225h146v57h-146v33c30 22 122 95 142 114zM747 344l54 19c-22 52 -46 112 -67 151l-44 -16c20 -42 44 -109 57 -154zM575 187h360s-1 29 -1 39
c-6 491 -9 643 -37 687c-17 27 -36 36 -62 40c-26 3 -65 3 -104 1c-1 -21 -8 -51 -20 -71c40 3 75 3 92 3c14 1 22 -2 30 -17c20 -30 27 -179 31 -615h-318c-19 41 -42 79 -66 113l41 -11c22 44 40 103 46 140l-48 16c-5 -39 -22 -94 -42 -140c-6 9 -13 17 -19 25
c-12 -12 -40 -35 -57 -46c67 -74 118 -189 146 -308l69 15c-11 44 -26 88 -41 129z" />
</svg>
