<?xml version="1.0" standalone="no"?>
<!DOCTYPE svg PUBLIC "-//W3C//DTD SVG 1.1//EN" "http://www.w3.org/Graphics/SVG/1.1/DTD/svg11.dtd" >
<svg xmlns="http://www.w3.org/2000/svg" xmlns:xlink="http://www.w3.org/1999/xlink" version="1.1" viewBox="-10 0 1010 1000">
   <path fill="currentColor"
d="M247 180l-62 23c-8 -35 -30 -92 -53 -134l60 -20c22 41 46 96 55 131zM343 213v61h-298v-61h298zM252 671h-113v168h113v-168zM313 611v288h-174v47h-61v-335h235zM81 536v-60h232v60h-232zM81 403v-59h232v59h-232zM391 541l60 12c-15 103 -40 209 -73 279
c-12 -9 -40 -23 -54 -29c34 -68 55 -166 67 -262zM676 449h-133v433c0 34 -6 52 -29 63c-21 11 -56 13 -103 13c-4 -18 -14 -46 -24 -63c37 1 68 1 79 0c10 0 13 -3 13 -13v-433h-130v-63h126v-340h64v138h106v63h-106v139h137v63zM689 742l-58 25c-9 -55 -36 -145 -63 -213
l54 -18c28 67 57 155 67 206zM889 117l41 9c-14 224 -49 403 -103 543c35 98 82 179 144 232c-15 13 -39 38 -51 57c-54 -52 -97 -121 -130 -202c-41 82 -90 149 -147 202c-11 -17 -30 -38 -47 -49c64 -56 119 -138 162 -244c-40 -132 -63 -288 -80 -457l59 -6
c12 128 29 251 58 360c32 -108 55 -235 67 -377h-210v-65h225z" />
</svg>
