<?xml version="1.0" standalone="no"?>
<!DOCTYPE svg PUBLIC "-//W3C//DTD SVG 1.1//EN" "http://www.w3.org/Graphics/SVG/1.1/DTD/svg11.dtd" >
<svg xmlns="http://www.w3.org/2000/svg" xmlns:xlink="http://www.w3.org/1999/xlink" version="1.1" viewBox="-10 0 1010 1000">
   <path fill="currentColor"
d="M281 168l-55 34c-14 -36 -43 -92 -70 -133l53 -30c27 42 58 93 72 129zM385 213v61h-334v-61h334zM354 403h-264v-59h264v59zM294 669h-130v165h130v-165zM355 607v289h-191v47h-60v-336h251zM90 533v-59h265v59h-265zM886 541l51 53c-41 37 -90 79 -132 109
c40 71 93 127 160 161c-16 12 -37 39 -46 58c-132 -75 -208 -226 -248 -413h-4c-22 35 -49 70 -78 101v223l125 -56c2 19 5 47 9 62c-175 88 -202 101 -216 116l-1 -5c-6 -18 -19 -51 -31 -68c19 -9 47 -31 47 -70v-139c-33 27 -68 52 -103 72c-9 -15 -32 -43 -45 -57
c81 -42 161 -106 215 -179h-184v-64h230v-88h-195v-61h195v-79h-209v-62h209v-110h71v110h219v62h-219v79h195v61h-195v88h241v64h-216c12 48 27 94 45 137c40 -34 83 -74 110 -105z" />
</svg>
