<?xml version="1.0" standalone="no"?>
<!DOCTYPE svg PUBLIC "-//W3C//DTD SVG 1.1//EN" "http://www.w3.org/Graphics/SVG/1.1/DTD/svg11.dtd" >
<svg xmlns="http://www.w3.org/2000/svg" xmlns:xlink="http://www.w3.org/1999/xlink" version="1.1" viewBox="-10 0 1010 1000">
   <path fill="currentColor"
d="M279 168l-59 34c-16 -36 -47 -93 -75 -134l58 -29c28 41 61 93 76 129zM382 213v61h-338v-61h338zM85 403v-59h266v59h-266zM85 533v-59h269v59h-269zM294 669h-144v165h144v-165zM360 607v289h-210v47h-65v-336h275zM519 739h304v-73h-304v73zM823 539h-304v72h304v-72z
M894 480v397c0 38 -8 56 -35 67c-25 12 -68 12 -133 12c-3 -19 -12 -45 -22 -64c48 2 89 2 102 1s17 -4 17 -16v-80h-304v161h-70v-478h445zM699 284v83c26 4 55 5 86 5c23 0 152 0 184 -1c-9 15 -18 43 -21 61h-166c-126 0 -212 -20 -270 -104c-26 60 -61 108 -108 146
c-11 -12 -37 -34 -52 -44c79 -57 118 -148 131 -265l68 5c-4 34 -10 64 -18 92c24 47 56 73 98 89v-212h-252v-59h518l12 -2l47 12c-14 47 -31 102 -47 136l-57 -14c7 -19 16 -46 23 -73h-176v88h168v57h-168z" />
</svg>
