<?xml version="1.0" standalone="no"?>
<!DOCTYPE svg PUBLIC "-//W3C//DTD SVG 1.1//EN" "http://www.w3.org/Graphics/SVG/1.1/DTD/svg11.dtd" >
<svg xmlns="http://www.w3.org/2000/svg" xmlns:xlink="http://www.w3.org/1999/xlink" version="1.1" viewBox="-10 0 1010 1000">
   <path fill="currentColor"
d="M488 308v-30c-22 25 -45 48 -68 67c-12 -11 -39 -32 -56 -42c76 -58 143 -147 181 -241l67 16c-26 61 -61 120 -100 171h303c-43 -52 -82 -112 -110 -169l61 -22c41 86 121 181 191 228c-16 13 -39 38 -50 53c-30 -21 -59 -51 -88 -85v54h-209c-9 27 -20 55 -30 81h258
s-1 19 -3 29c-13 103 -26 148 -48 168c-16 14 -34 20 -59 21c-21 1 -61 1 -102 -1c-1 -19 -8 -43 -19 -59c40 3 79 4 94 4s23 -1 31 -7c11 -10 21 -37 30 -97h-245v-1h-31c18 -38 37 -91 53 -138h-51zM273 176l-67 26c-12 -35 -41 -90 -64 -130l64 -22c26 40 53 93 67 126z
M369 209v62h-314v-62h314zM284 672h-139v166h139v-166zM346 611v288h-201v47h-61v-335h262zM86 536v-60h263v60h-263zM86 403v-59h263v59h-263zM490 694v165h80v-165h-80zM702 694h-80v165h80v-165zM836 694h-82v165h82v-165zM900 636v223h56v64h-591v-64h64v-223h471z" />
</svg>
