<?xml version="1.0" standalone="no"?>
<!DOCTYPE svg PUBLIC "-//W3C//DTD SVG 1.1//EN" "http://www.w3.org/Graphics/SVG/1.1/DTD/svg11.dtd" >
<svg xmlns="http://www.w3.org/2000/svg" xmlns:xlink="http://www.w3.org/1999/xlink" version="1.1" viewBox="-10 0 1010 1000">
   <path fill="currentColor"
d="M269 168l-56 34c-14 -36 -44 -92 -71 -134l53 -29c27 41 59 93 74 129zM300 669h-155v165h155v-165zM361 607v289h-216v47h-62v-336h278zM83 533v-59h269v59h-269zM352 344v59h-269v-59h269zM44 274v-61h339v61h-339zM458 695v-61h419v61h-169v183c0 38 -7 55 -35 66
c-28 10 -71 10 -138 10c-3 -19 -13 -44 -22 -63c50 1 94 1 107 0c13 0 17 -3 17 -14v-182h-179zM384 656v-154h572v154h-65v-92h-444v92h-63zM813 397v-89h-281v89h281zM466 254h417v197h-417v-197zM722 139h239v62h-568v-62h251c-11 -26 -25 -55 -40 -79l67 -20
c19 30 41 70 51 99z" />
</svg>
