<?xml version="1.0" standalone="no"?>
<!DOCTYPE svg PUBLIC "-//W3C//DTD SVG 1.1//EN" "http://www.w3.org/Graphics/SVG/1.1/DTD/svg11.dtd" >
<svg xmlns="http://www.w3.org/2000/svg" xmlns:xlink="http://www.w3.org/1999/xlink" version="1.1" viewBox="-10 0 1010 1000">
   <path fill="currentColor"
d="M261 168l-55 34c-14 -36 -45 -92 -72 -133l53 -30c28 41 59 93 74 129zM368 213v61h-324v-61h324zM83 533v-59h260v59h-260zM83 344h255v59h-255v-59zM287 669h-145v165h145v-165zM347 607v289h-205v47h-59v-336h264zM765 536l-39 -13c19 -39 43 -102 54 -142l48 14
c-20 49 -44 105 -63 141zM513 396l41 -11c23 43 44 97 51 135l-44 13c-6 -37 -26 -95 -48 -137zM479 357v202h155v-202h-155zM860 559v-202h-164v202h164zM925 620h-176c58 87 148 178 222 226c-16 14 -40 39 -51 56c-73 -56 -159 -152 -219 -246v301h-71v-286
c-57 92 -143 183 -226 235c-10 -17 -29 -43 -47 -58c86 -46 176 -136 229 -228h-169v-324h213v-81h-240v-66h240v-105h71v105h243v66h-243v81h224v324z" />
</svg>
