<?xml version="1.0" standalone="no"?>
<!DOCTYPE svg PUBLIC "-//W3C//DTD SVG 1.1//EN" "http://www.w3.org/Graphics/SVG/1.1/DTD/svg11.dtd" >
<svg xmlns="http://www.w3.org/2000/svg" xmlns:xlink="http://www.w3.org/1999/xlink" version="1.1" viewBox="-10 0 1010 1000">
   <path fill="currentColor"
d="M228 180l-57 23c-7 -35 -28 -92 -50 -135l55 -19c22 41 44 96 52 131zM310 213v61h-268v-61h268zM286 344v59h-209v-59h209zM77 536v-60h209v60h-209zM230 671h-99v168h99v-168zM287 899h-156v47h-56v-335h212v288zM523 434v165h79v-165h-79zM725 599v-165h-80v165h80z
M708 725l46 -13c30 66 60 154 73 211l-49 15c-4 -24 -12 -52 -22 -82c-110 13 -223 28 -309 39l-15 -62c45 -4 102 -10 164 -17v-159h-116v-281h116v-99c-40 4 -81 7 -118 9c-2 -15 -10 -36 -18 -51c97 -7 212 -22 277 -40l43 50c-36 10 -80 18 -127 25v106h116v281h-118
v154l87 -10c-10 -27 -20 -53 -30 -76zM373 83h508c-4 433 -8 785 41 800c7 2 14 -72 17 -155c12 17 31 40 42 48c-10 163 -41 195 -86 176c-88 -33 -83 -373 -82 -803h-375v299c0 156 -13 368 -105 511c-12 -13 -39 -30 -55 -37c87 -135 95 -327 95 -473v-366z" />
</svg>
