<?xml version="1.0" standalone="no"?>
<!DOCTYPE svg PUBLIC "-//W3C//DTD SVG 1.1//EN" "http://www.w3.org/Graphics/SVG/1.1/DTD/svg11.dtd" >
<svg xmlns="http://www.w3.org/2000/svg" xmlns:xlink="http://www.w3.org/1999/xlink" version="1.1" viewBox="-10 0 1010 1000">
   <path fill="currentColor"
d="M823 212v-77h-278v77h278zM823 344v-79h-278v79h278zM892 79v320h-414v-320h414zM275 168l-57 34c-13 -36 -43 -92 -68 -133l54 -29c27 41 56 93 71 128zM384 213v61h-339v-61h339zM354 344v59h-270v-59h270zM84 533v-59h270v59h-270zM299 669h-155v165h155v-165z
M360 607v289h-216v47h-60v-336h276zM954 525h-360c-10 24 -22 48 -34 71h370s-1 21 -1 31c-12 199 -24 275 -45 302c-14 18 -30 24 -51 26c-18 3 -49 2 -83 1c-1 -20 -7 -47 -15 -65c30 3 58 4 71 4c11 0 19 -1 25 -10c13 -16 24 -76 33 -228h-63c-37 124 -97 231 -169 303
c-10 -12 -33 -35 -46 -45c67 -61 120 -153 153 -258h-76c-49 115 -129 215 -213 281c-7 -12 -30 -35 -43 -47c77 -55 147 -139 192 -234h-75c-30 46 -66 87 -100 119c-10 -11 -35 -36 -48 -46c61 -50 113 -124 149 -205h-110v-62h539v62z" />
</svg>
