<?xml version="1.0" standalone="no"?>
<!DOCTYPE svg PUBLIC "-//W3C//DTD SVG 1.1//EN" "http://www.w3.org/Graphics/SVG/1.1/DTD/svg11.dtd" >
<svg xmlns="http://www.w3.org/2000/svg" xmlns:xlink="http://www.w3.org/1999/xlink" version="1.1" viewBox="-10 0 1010 1000">
   <path fill="currentColor"
d="M946 160v65h-528v-65h245c-7 -29 -22 -70 -38 -101l61 -19c19 34 38 79 44 108l-37 12h253zM267 172l-65 21c-7 -35 -26 -88 -46 -127l60 -18c21 38 43 89 51 124zM376 206v61h-333v-61h333zM332 393h-239v-59h239v59zM361 462v59h-287v-59h287zM288 641h-150v139h150
v-139zM350 841h-212v66h-61v-327h273v261zM872 694l65 28c-86 102 -239 176 -403 216c-9 -18 -26 -41 -41 -57c153 -32 304 -100 379 -187zM835 570l60 28c-80 72 -213 132 -332 167c-10 -16 -28 -39 -43 -53c113 -29 245 -81 315 -142zM795 447l61 28
c-71 55 -182 96 -278 122c-9 -15 -27 -36 -44 -50c90 -20 201 -57 261 -100zM803 365h152v64h-470v141c0 118 -15 279 -100 389c-13 -11 -43 -27 -60 -34c81 -104 92 -248 92 -356v-204h146c-7 -33 -27 -79 -46 -115l61 -17c22 35 42 83 51 115l-50 17h154
c27 -40 59 -97 76 -136l73 17c-25 41 -53 85 -79 119z" />
</svg>
