<?xml version="1.0" standalone="no"?>
<!DOCTYPE svg PUBLIC "-//W3C//DTD SVG 1.1//EN" "http://www.w3.org/Graphics/SVG/1.1/DTD/svg11.dtd" >
<svg xmlns="http://www.w3.org/2000/svg" xmlns:xlink="http://www.w3.org/1999/xlink" version="1.1" viewBox="-10 0 1010 1000">
   <path fill="currentColor"
d="M291 168l-60 34c-15 -36 -47 -92 -74 -134l57 -29c29 41 62 93 77 129zM410 213v61h-366v-61h366zM375 344v59h-290v-59h290zM85 533v-59h290v59h-290zM317 669h-167v165h167v-165zM383 607v289h-233v47h-65v-336h298zM464 644h61v147h291v55h-352v-202zM673 564l57 7
c-6 25 -15 49 -25 71c41 29 88 69 112 95l-39 39c-22 -24 -63 -59 -100 -90c-25 37 -57 68 -94 92c-8 -11 -28 -31 -39 -41c63 -38 109 -99 128 -173zM538 275v82h284v-82h-284zM538 140v81h284v-81h-284zM938 488v31c-12 284 -23 376 -48 409c-16 19 -34 25 -58 27
c-22 3 -58 2 -95 0c-1 -16 -8 -39 -17 -54c36 3 67 4 80 4c14 0 22 -2 29 -12c17 -22 29 -108 38 -345h-325c-31 37 -66 74 -109 106c-11 -16 -34 -37 -49 -46c79 -56 134 -131 163 -194h-80v-331h428v331h-335l58 9c-10 21 -21 44 -35 65h355z" />
</svg>
