<?xml version="1.0" standalone="no"?>
<!DOCTYPE svg PUBLIC "-//W3C//DTD SVG 1.1//EN" "http://www.w3.org/Graphics/SVG/1.1/DTD/svg11.dtd" >
<svg xmlns="http://www.w3.org/2000/svg" xmlns:xlink="http://www.w3.org/1999/xlink" version="1.1" viewBox="-10 0 1010 1000">
   <path fill="currentColor"
d="M534 277v-80h-130v-63h130v-91h66v91h164v-91h66v91h118v63h-118v80h-66v-80h-164v80h-66zM939 381h-406v101h355v61h-422v-162h-55v-61h248c-7 -21 -15 -41 -23 -59l56 -20c12 24 24 53 31 79h216v61zM258 168l-53 34c-12 -36 -40 -92 -63 -133l50 -29
c25 40 52 93 66 128zM278 669h-142v165h142v-165zM336 607v289h-200v47h-57v-336h257zM81 533v-59h250v59h-250zM331 344v59h-250v-59h250zM45 274v-61h314v61h-314zM467 672v-74h64v76c0 92 -11 202 -105 286c-12 -16 -36 -36 -53 -46c85 -72 94 -166 94 -242zM620 930
v-327h64v327h-64zM864 890h21c7 0 13 -1 17 -5c4 -3 7 -10 9 -21c2 -14 3 -45 4 -84c12 11 32 22 49 27c-2 39 -5 83 -10 98c-4 15 -14 27 -24 33s-28 9 -41 9h-40c-19 0 -37 -5 -50 -17c-12 -12 -17 -28 -17 -85v-247h65v255c0 17 1 28 4 32c3 3 7 5 13 5z" />
</svg>
