<?xml version="1.0" standalone="no"?>
<!DOCTYPE svg PUBLIC "-//W3C//DTD SVG 1.1//EN" "http://www.w3.org/Graphics/SVG/1.1/DTD/svg11.dtd" >
<svg xmlns="http://www.w3.org/2000/svg" xmlns:xlink="http://www.w3.org/1999/xlink" version="1.1" viewBox="-10 0 1010 1000">
   <path fill="currentColor"
d="M281 171l-64 28c-14 -36 -47 -93 -75 -133l61 -24c30 41 62 94 78 129zM380 213v63h-329v-63h329zM337 344v62h-251v-62h251zM86 535v-61h251v61h-251zM277 669h-126v166h126v-166zM339 608v289h-188v47h-65v-336h253zM720 713v139h124v-106h68v211h-68v-42h-401v-167h67
v104h137v-139h-248v-63h248v-103h-107c-21 32 -46 62 -69 85c-13 -9 -42 -26 -58 -35c40 -35 78 -84 106 -135c-36 12 -71 22 -106 31c-7 -18 -23 -47 -36 -62c55 -10 110 -27 164 -48c-22 -25 -53 -53 -80 -75l46 -24c28 21 62 51 85 77c26 -12 49 -24 73 -39
c-25 -25 -58 -55 -87 -77l43 -28c30 21 64 49 90 75c44 -34 83 -71 112 -113h-220c-49 41 -108 79 -179 113c-8 -17 -28 -41 -42 -50c125 -54 213 -130 259 -197l71 13c-15 22 -31 43 -50 64h202l12 -3l44 23c-67 141 -201 238 -350 300l27 8c-5 12 -11 22 -18 34h320v63
h-179v103h232v63h-232z" />
</svg>
