<?xml version="1.0" standalone="no"?>
<!DOCTYPE svg PUBLIC "-//W3C//DTD SVG 1.1//EN" "http://www.w3.org/Graphics/SVG/1.1/DTD/svg11.dtd" >
<svg xmlns="http://www.w3.org/2000/svg" xmlns:xlink="http://www.w3.org/1999/xlink" version="1.1" viewBox="-10 0 1010 1000">
   <path fill="currentColor"
d="M888 55l46 56c-133 36 -341 57 -513 67c-2 -17 -10 -41 -18 -57c168 -12 372 -35 485 -66zM826 389l-56 -23c29 -53 66 -139 85 -199l73 26c-33 67 -70 145 -102 196zM713 333l-64 18c-6 -39 -23 -106 -40 -156l60 -14c18 49 38 114 44 152zM540 343l-63 21
c-8 -39 -31 -101 -56 -148l59 -17c26 45 51 106 60 144zM273 168l-60 34c-15 -36 -47 -92 -74 -133l58 -29c28 41 61 93 76 128zM384 213v61h-340v-61h340zM361 344v59h-276v-59h276zM85 533v-59h276v59h-276zM300 669h-150v165h150v-165zM366 607v289h-216v47h-65v-336h281
zM704 667v181h141v-139h69v245h-69v-43h-419v-203h68v140h139v-181h-251v-64h251v-110h-125c-24 33 -49 63 -73 86c-12 -10 -40 -30 -58 -40c52 -45 99 -110 127 -176l66 20c-6 16 -14 31 -23 47h366v63h-209v110h253v64h-253z" />
</svg>
