<?xml version="1.0" standalone="no"?>
<!DOCTYPE svg PUBLIC "-//W3C//DTD SVG 1.1//EN" "http://www.w3.org/Graphics/SVG/1.1/DTD/svg11.dtd" >
<svg xmlns="http://www.w3.org/2000/svg" xmlns:xlink="http://www.w3.org/1999/xlink" version="1.1" viewBox="-10 0 1010 1000">
   <path fill="currentColor"
d="M272 167l-59 35c-14 -37 -45 -93 -73 -134l56 -29c29 41 61 93 76 128zM296 669h-148v165h148v-165zM361 607v289h-213v47h-64v-336h277zM85 533v-59h271v59h-271zM85 344h268v59h-268v-59zM44 274v-61h341v61h-341zM929 564v316c0 32 -6 49 -31 60
c-23 10 -60 10 -120 10c-3 -17 -13 -41 -22 -58c44 2 84 1 95 1c12 0 15 -3 15 -14v-256h-178c-20 48 -41 94 -63 134l136 -17c-11 -25 -23 -50 -35 -73l44 -14c30 55 64 128 78 170l-46 18c-4 -15 -11 -33 -20 -54c-177 27 -205 33 -220 40c-4 -13 -15 -45 -23 -61
c16 -3 30 -25 44 -55c7 -14 23 -46 40 -88h-111v333h-63v-392h195c7 -22 15 -45 20 -68h-188v-270h58v215h306v-215h61v270h-167c-8 23 -15 45 -24 68h219zM818 376l-32 38c-23 -19 -55 -43 -92 -69c-33 28 -68 54 -99 75c-9 -9 -29 -26 -42 -34c33 -19 68 -43 101 -68
c-31 -21 -63 -42 -91 -58l32 -33c30 18 64 39 96 60c26 -22 52 -45 72 -68l49 18c-24 25 -52 51 -80 76c33 23 65 45 86 63zM736 130h216v61h-525v-61h236c-9 -25 -19 -52 -30 -75l65 -14c13 26 28 62 38 89z" />
</svg>
