<?xml version="1.0" standalone="no"?>
<!DOCTYPE svg PUBLIC "-//W3C//DTD SVG 1.1//EN" "http://www.w3.org/Graphics/SVG/1.1/DTD/svg11.dtd" >
<svg xmlns="http://www.w3.org/2000/svg" xmlns:xlink="http://www.w3.org/1999/xlink" version="1.1" viewBox="-10 0 1010 1000">
   <path fill="currentColor"
d="M293 167l-61 35c-13 -37 -46 -93 -73 -134l57 -29c29 41 61 93 77 128zM294 669h-142v165h142v-165zM361 607v289h-209v47h-65v-336h274zM87 533v-59h271v59h-271zM358 344v59h-271v-59h271zM46 274v-61h343v61h-343zM571 308h171c16 -35 35 -84 46 -119h-221
c16 34 35 78 42 107zM749 764v-107h-146v107h146zM937 127v62h-122l38 11c-15 36 -32 76 -47 108h120v566c0 37 -9 56 -33 68c-23 11 -61 12 -120 12c-2 -18 -12 -47 -21 -65c42 2 81 1 92 1c12 -1 16 -4 16 -17v-503h-155v90h124v54h-124v90h96v212h-198v43h-52v-255h97
v-90h-133v-54h133v-90h-163v586h-65v-648h126c-8 -31 -24 -75 -39 -108l42 -11h-146v-62h246c-7 -24 -18 -49 -28 -71l56 -19c16 28 30 62 38 90h222z" />
</svg>
