<?xml version="1.0" standalone="no"?>
<!DOCTYPE svg PUBLIC "-//W3C//DTD SVG 1.1//EN" "http://www.w3.org/Graphics/SVG/1.1/DTD/svg11.dtd" >
<svg xmlns="http://www.w3.org/2000/svg" xmlns:xlink="http://www.w3.org/1999/xlink" version="1.1" viewBox="-10 0 1010 1000">
   <path fill="currentColor"
d="M415 412l-19 -57c45 -21 112 -55 181 -88v-129h-166v-58h229v332h-63v-89c-57 32 -116 64 -162 89zM536 242l-37 40c-20 -24 -57 -57 -87 -79l36 -37c29 18 67 50 88 76zM259 168l-51 34c-13 -36 -42 -93 -65 -134l49 -29c26 41 55 93 67 129zM283 669h-147v165h147v-165
zM341 607v289h-205v47h-56v-336h261zM80 533v-59h255v59h-255zM335 344v59h-255v-59h255zM44 274v-61h321v61h-321zM836 713l62 24c-82 114 -245 183 -442 218c-8 -15 -23 -38 -37 -52c188 -28 345 -90 417 -190zM750 639l55 22c-67 75 -184 135 -295 171
c-10 -13 -26 -30 -40 -41c107 -31 221 -88 280 -152zM666 554l53 20c-50 60 -133 114 -207 147c-11 -12 -28 -27 -42 -36c71 -30 152 -80 196 -131zM703 400l14 12c-6 8 -12 15 -19 24c92 74 186 115 269 145c-11 17 -25 45 -30 68c-84 -37 -176 -86 -273 -175
c-75 77 -172 139 -261 179c-8 -17 -19 -44 -30 -59c110 -44 237 -125 304 -216l5 4l-11 -32c46 -21 113 -55 181 -89v-123h-176v-58h239v349h-63v-112c-52 30 -105 59 -149 83zM806 243l-38 41c-18 -24 -55 -57 -87 -79l37 -36c29 17 67 49 88 74z" />
</svg>
