<?xml version="1.0" standalone="no"?>
<!DOCTYPE svg PUBLIC "-//W3C//DTD SVG 1.1//EN" "http://www.w3.org/Graphics/SVG/1.1/DTD/svg11.dtd" >
<svg xmlns="http://www.w3.org/2000/svg" xmlns:xlink="http://www.w3.org/1999/xlink" version="1.1" viewBox="-10 0 1010 1000">
   <path fill="currentColor"
d="M957 326v56h-582v-56h252v-58h-191v-51h191v-57h-213v-53h213v-64h72v64h221v53h-221v57h199v51h-199v58h258zM512 685v59h307v-59h-307zM512 581v58h307v-58h-307zM512 478v58h307v-58h-307zM891 793h-447v-364h447v364zM264 168l-55 34c-14 -36 -44 -92 -71 -133
l52 -30c28 42 60 94 74 129zM368 213v61h-324v-61h324zM336 344v59h-253v-59h253zM83 533v-59h253v59h-253zM284 669h-138v165h138v-165zM346 896h-200v47h-63v-336h263v289zM564 802l62 39c-59 47 -156 92 -237 117c-11 -15 -30 -37 -44 -52c80 -23 174 -66 219 -104z
M709 840l53 -37c69 35 149 81 197 116l-69 38c-41 -34 -115 -80 -181 -117z" />
</svg>
