<?xml version="1.0" standalone="no"?>
<!DOCTYPE svg PUBLIC "-//W3C//DTD SVG 1.1//EN" "http://www.w3.org/Graphics/SVG/1.1/DTD/svg11.dtd" >
<svg xmlns="http://www.w3.org/2000/svg" xmlns:xlink="http://www.w3.org/1999/xlink" version="1.1" viewBox="-10 0 1010 1000">
   <path fill="currentColor"
d="M271 168l-60 34c-15 -36 -47 -92 -75 -133l58 -29c29 41 62 92 77 128zM281 669h-133v165h133v-165zM344 607v289h-196v47h-65v-336h261zM83 533v-59h254v59h-254zM337 344v59h-254v-59h254zM44 274v-61h330v61h-330zM784 698h-182c-16 26 -32 51 -46 74
c48 11 99 25 148 40c41 -31 64 -68 80 -114zM497 467v62h144v-62h-144zM848 467h-139v62h139v-62zM515 317h126v-58h-126v58zM641 157h-126v54h126v-54zM829 157h-120v54h120v-54zM709 317h120v-58h-120v58zM951 698h-99c-16 54 -40 99 -79 135c68 22 130 44 175 66l-43 55
c-48 -24 -117 -51 -193 -77c-68 39 -165 64 -305 81c-3 -16 -17 -42 -27 -56c110 -11 190 -28 250 -50c-59 -18 -117 -33 -171 -45h-2c21 -31 46 -69 71 -109h-133v-59h170c12 -21 24 -40 35 -60h-168v-162h209v-50h-187v-103h-59v-58h59v-99h187v-64h68v64h183v99h53v58
h-53v103h-183v50h206v162h-241c-11 19 -24 39 -36 60h313v59z" />
</svg>
