<?xml version="1.0" standalone="no"?>
<!DOCTYPE svg PUBLIC "-//W3C//DTD SVG 1.1//EN" "http://www.w3.org/Graphics/SVG/1.1/DTD/svg11.dtd" >
<svg xmlns="http://www.w3.org/2000/svg" xmlns:xlink="http://www.w3.org/1999/xlink" version="1.1" viewBox="-10 0 1010 1000">
   <path fill="currentColor"
d="M663 124h-114l-5 62h115c1 -21 3 -42 4 -62zM837 186l3 -62h-112l-4 62h113zM713 303h117l4 -65h-115c-2 23 -4 45 -6 65zM539 238l-5 65h114c2 -20 4 -42 6 -65h-115zM460 358l10 -113h-69v-65h75l10 -110h429l-7 110h57v64h-62l-7 114h-436zM526 675v60h310v-60h-310z
M526 567v58h310v-58h-310zM526 459v58h310v-58h-310zM454 787v-381h456v381h-456zM273 173l-75 18c-7 -36 -27 -92 -47 -133l72 -15c19 40 41 95 50 130zM381 212v68h-336v-68h336zM280 672h-132v160h132v-160zM345 607v290h-197v47h-65v-337h262zM72 537v-61h278v61h-278z
M73 408v-62h277v62h-277zM574 792l66 40c-56 49 -144 101 -216 132c-10 -15 -31 -39 -47 -53c70 -29 154 -78 197 -119zM734 835l58 -40c58 33 134 84 174 119l-61 44c-38 -34 -112 -87 -171 -123z" />
</svg>
