<?xml version="1.0" standalone="no"?>
<!DOCTYPE svg PUBLIC "-//W3C//DTD SVG 1.1//EN" "http://www.w3.org/Graphics/SVG/1.1/DTD/svg11.dtd" >
<svg xmlns="http://www.w3.org/2000/svg" xmlns:xlink="http://www.w3.org/1999/xlink" version="1.1" viewBox="-10 0 1010 1000">
   <path fill="currentColor"
d="M273 168l-56 34c-14 -36 -46 -92 -73 -133l55 -29c28 41 60 93 74 128zM291 669h-147v165h147v-165zM354 607v289h-210v47h-61v-336h271zM84 533v-59h265v59h-265zM84 344h262v59h-262v-59zM44 274v-61h337v61h-337zM506 491h132v-87h-132v87zM850 404h-140v87h140v-87z
M583 182v72h180v-72h-180zM710 862h248v61h-566v-61h246v-78h-192v-58h192v-68h-209v-58h209v-57h-197v-191h197v-45h-123v-125h-117v-61h117v-75h68v75h180v-75h70v75h115v61h-115v125h-123v45h207v191h-207v57h218v58h-218v68h205v58h-205v78z" />
</svg>
