<?xml version="1.0" standalone="no"?>
<!DOCTYPE svg PUBLIC "-//W3C//DTD SVG 1.1//EN" "http://www.w3.org/Graphics/SVG/1.1/DTD/svg11.dtd" >
<svg xmlns="http://www.w3.org/2000/svg" xmlns:xlink="http://www.w3.org/1999/xlink" version="1.1" viewBox="-10 0 1010 1000">
   <path fill="currentColor"
d="M698 355l-40 -13c13 -36 18 -97 16 -142l40 6c4 43 0 110 -16 149zM872 145h-55c-7 183 -32 297 -145 367c-7 -13 -24 -35 -37 -44c102 -60 124 -159 129 -323h-104v-59h274v29c-8 233 -15 312 -33 338c-13 17 -28 23 -48 25c-18 2 -45 2 -73 1c-1 -18 -7 -41 -15 -57
c27 2 50 2 61 2c10 1 17 0 23 -10c10 -16 17 -83 23 -269zM404 354l-40 -13c13 -36 18 -97 16 -142l40 6c4 43 -1 109 -16 149zM568 145h-49c-4 121 -17 210 -56 275c26 3 47 3 58 3s17 -1 23 -11c11 -16 18 -82 24 -267zM367 86h260s-1 19 -1 28c-7 232 -14 310 -32 336
c-13 16 -27 22 -48 24c-16 2 -44 2 -71 1c-2 -16 -7 -38 -13 -53c-21 32 -48 60 -85 81c-7 -12 -24 -34 -36 -44c99 -57 120 -151 125 -314h-99v-59zM252 171l-61 28c-12 -34 -42 -89 -70 -130l58 -24c29 39 61 92 73 126zM340 212v61h-297v-61h297zM307 406h-224v-60h224
v60zM250 677h-112v167h112v-167zM311 616v289h-173v46h-59v-335h232zM70 537v-60h250v60h-250zM610 810l7 58l-275 67l-19 -61l46 -10v-276h56v264l52 -11v-335h58v133h79v57h-79v132zM833 873h124v60h-351v-60h47v-285h58v285h62v-367h60v130h103v57h-103v180z" />
</svg>
