<?xml version="1.0" standalone="no"?>
<!DOCTYPE svg PUBLIC "-//W3C//DTD SVG 1.1//EN" "http://www.w3.org/Graphics/SVG/1.1/DTD/svg11.dtd" >
<svg xmlns="http://www.w3.org/2000/svg" xmlns:xlink="http://www.w3.org/1999/xlink" version="1.1" viewBox="-10 0 1010 1000">
   <path fill="currentColor"
d="M273 165l-54 37c-14 -36 -48 -92 -75 -134l51 -32c29 40 62 93 78 129zM377 213v61h-333v-61h333zM348 344v59h-266v-59h266zM82 533v-59h266v59h-266zM293 669h-153v165h153v-165zM353 607v289h-213v47h-59v-336h272zM538 388v-41c-36 49 -78 89 -122 118
c-10 -14 -31 -38 -45 -50c42 -25 83 -65 117 -113c-24 -22 -61 -51 -92 -70l41 -48c29 17 62 41 86 61c19 -32 34 -68 46 -104h-146v-61h171l13 -2l43 15c-20 90 -54 170 -98 234h238c-50 -74 -88 -164 -113 -261l62 -12c8 29 17 57 28 85c27 -23 58 -50 76 -70l45 41
c-30 29 -67 59 -99 81c10 20 20 40 32 58c30 -20 65 -48 86 -67l45 41c-31 26 -69 51 -102 70c35 46 74 84 119 111c-17 11 -39 36 -50 54c-46 -31 -88 -72 -123 -123v53h-258zM795 634v-119h-261v119h261zM862 456v237h-392v-237h392zM627 848l-67 20
c-6 -38 -30 -99 -58 -145l65 -17c28 45 53 104 60 142zM767 702l72 19c-23 49 -52 106 -77 149h188v61h-563v-61h305c26 -47 59 -118 75 -168z" />
</svg>
