<?xml version="1.0" standalone="no"?>
<!DOCTYPE svg PUBLIC "-//W3C//DTD SVG 1.1//EN" "http://www.w3.org/Graphics/SVG/1.1/DTD/svg11.dtd" >
<svg xmlns="http://www.w3.org/2000/svg" xmlns:xlink="http://www.w3.org/1999/xlink" version="1.1" viewBox="-10 0 1010 1000">
   <path fill="currentColor"
d="M846 50l38 55c-118 30 -302 51 -455 58c-2 -16 -10 -39 -17 -55c151 -9 332 -30 434 -58zM809 296l-52 -18c19 -36 43 -96 55 -137l62 21c-21 47 -45 100 -65 134zM693 278l-59 20c-5 -32 -20 -85 -37 -124l56 -19c18 39 35 90 40 123zM272 165l-53 37
c-14 -36 -47 -92 -73 -133l50 -32c29 41 61 94 76 128zM368 213v61h-319v-61h319zM340 344v59h-255v-59h255zM85 533v-59h255v59h-255zM504 923l-47 -22c27 -46 44 -123 53 -187l46 15c-9 66 -23 146 -52 194zM592 722l43 -8c14 56 23 128 21 170l-45 12
c1 -45 -6 -117 -19 -174zM675 713l38 -13c22 44 42 101 48 137l-41 17c-6 -36 -26 -96 -45 -141zM855 797l-37 21c-11 -32 -35 -83 -59 -119l36 -18c24 35 50 84 60 116zM428 189l56 -19c21 38 41 90 48 122l-59 24c-6 -34 -25 -88 -45 -127zM822 517h-327
c-1 27 -2 57 -5 87h323c3 -28 6 -60 9 -87zM761 374h-265v86h256c4 -27 7 -59 9 -86zM286 834v-165h-145v165h145zM875 604h71s-1 21 -3 31c-11 190 -22 265 -45 291c-14 18 -29 25 -52 27c-21 2 -57 2 -97 0c-1 -21 -7 -48 -17 -66c37 3 72 4 85 4s22 -1 29 -10
c14 -15 24 -73 32 -218h-395c-15 102 -45 207 -105 291c-10 -13 -37 -33 -52 -40l12 -18h-197v47h-56v-336h260v278c78 -130 88 -296 88 -417v-152h338l10 -3l44 4c-3 51 -7 100 -11 143h19l10 -4l44 5c-3 50 -7 100 -12 143z" />
</svg>
