<?xml version="1.0" standalone="no"?>
<!DOCTYPE svg PUBLIC "-//W3C//DTD SVG 1.1//EN" "http://www.w3.org/Graphics/SVG/1.1/DTD/svg11.dtd" >
<svg xmlns="http://www.w3.org/2000/svg" xmlns:xlink="http://www.w3.org/1999/xlink" version="1.1" viewBox="-10 0 1010 1000">
   <path fill="currentColor"
d="M270 168l-53 34c-13 -36 -43 -92 -67 -133l51 -29c25 41 55 93 69 128zM394 213v61h-343v-61h343zM297 669h-152v165h152v-165zM356 607v289h-211v47h-57v-336h268zM88 533v-59h268v59h-268zM88 403v-59h268v59h-268zM640 631h-123v87h123v-87zM833 718v-87h-128v87h128z
M705 861h128v-89h-128v89zM517 861h123v-89h-123v89zM451 957v-385h451v379h-69v-31h-316v37h-66zM952 357h-190c53 67 134 134 206 167c-16 13 -38 36 -48 53c-74 -42 -158 -121 -213 -201v171h-68v-163c-58 80 -144 156 -222 195c-11 -16 -31 -39 -46 -51
c81 -33 167 -100 223 -171h-191v-63h111c-10 -30 -32 -73 -53 -106l56 -19c24 33 49 78 58 107l-45 18h109v-149c-69 9 -138 15 -203 19c-3 -16 -11 -40 -18 -55c151 -12 335 -34 436 -65l48 53c-55 16 -122 30 -195 39v158h64c20 -43 45 -105 58 -148l67 23
c-19 41 -41 87 -61 125h117v63z" />
</svg>
