<?xml version="1.0" standalone="no"?>
<!DOCTYPE svg PUBLIC "-//W3C//DTD SVG 1.1//EN" "http://www.w3.org/Graphics/SVG/1.1/DTD/svg11.dtd" >
<svg xmlns="http://www.w3.org/2000/svg" xmlns:xlink="http://www.w3.org/1999/xlink" version="1.1" viewBox="-10 0 1010 1000">
   <path fill="currentColor"
d="M958 127v58h-577v-58h242c-9 -23 -22 -46 -34 -66l63 -18c17 25 35 58 47 84h259zM727 397v-49h-135v49h135zM783 311v123h-245v-123h245zM847 469v-192h-370v192h370zM914 233v280h-501v-280h501zM509 707v58h305v-58h-305zM509 608v56h305v-56h-305zM887 810h-448v-247
h448v247zM283 168l-61 34c-14 -36 -46 -92 -73 -133l58 -29c28 41 61 93 76 128zM279 669h-129v165h129v-165zM345 607v289h-195v48h-65v-337h260zM85 533v-59h260v59h-260zM85 403v-59h260v59h-260zM44 274v-61h325v61h-325zM369 861h591v58h-591v-58z" />
</svg>
