<?xml version="1.0" standalone="no"?>
<!DOCTYPE svg PUBLIC "-//W3C//DTD SVG 1.1//EN" "http://www.w3.org/Graphics/SVG/1.1/DTD/svg11.dtd" >
<svg xmlns="http://www.w3.org/2000/svg" xmlns:xlink="http://www.w3.org/1999/xlink" version="1.1" viewBox="-10 0 1010 1000">
   <path fill="currentColor"
d="M260 168l-52 34c-14 -36 -43 -92 -69 -133l49 -30c27 41 58 93 72 129zM279 669h-133v165h133v-165zM341 607v289h-195v47h-61v-336h256zM86 533v-59h251v59h-251zM337 344v59h-251v-59h251zM46 274v-61h324v61h-324zM635 629h-149v86h149v-86zM856 715v-86h-157v86h157z
M699 859h157v-89h-157v89zM486 770v89h149v-89h-149zM422 957v-386h501v386h-67v-41h-370v41h-64zM805 453v-82h-264v82h264zM478 315h391v195h-391v-195zM836 193h121v169h-63v-111h-444v111h-62v-169h110c-11 -32 -36 -80 -60 -116l53 -20c26 34 53 81 64 113l-55 23h137
v-145h67v145h123l-44 -18c21 -33 49 -85 62 -120l67 22c-25 42 -54 86 -76 116z" />
</svg>
