<?xml version="1.0" standalone="no"?>
<!DOCTYPE svg PUBLIC "-//W3C//DTD SVG 1.1//EN" "http://www.w3.org/Graphics/SVG/1.1/DTD/svg11.dtd" >
<svg xmlns="http://www.w3.org/2000/svg" xmlns:xlink="http://www.w3.org/1999/xlink" version="1.1" viewBox="-10 0 1010 1000">
   <path fill="currentColor"
d="M613 220v-57h-240v-48h240v-67h70v67h259v48h-259v57h223v48h-495v-48h202zM913 456l-52 -15c7 -22 15 -53 21 -82h-518v-50h536l9 -3l43 13c-11 47 -26 102 -39 137zM388 492h220v-46h-170v-44h405v44h-170v46h224v45h-509v-45zM246 168l-48 34
c-12 -36 -39 -92 -61 -133l47 -30c23 42 50 94 62 129zM267 669h-135v165h135v-165zM323 607v289h-191v47h-54v-336h245zM79 533v-59h237v59h-237zM316 344v59h-237v-59h237zM45 274v-61h298v61h-298zM537 724h-102v109h102v-109zM592 677v203h-157v44h-55v-247h212z
M860 638v60h88v50h-88v143c0 33 -6 49 -29 58s-59 9 -112 9c-3 -17 -11 -38 -19 -55c38 1 71 1 81 0c11 0 14 -3 14 -13v-142h-182v-50h182v-60h65zM749 851l-45 32c-14 -27 -44 -69 -72 -98l43 -28c29 27 60 67 74 94zM347 582h612v50h-612v-50z" />
</svg>
