<?xml version="1.0" standalone="no"?>
<!DOCTYPE svg PUBLIC "-//W3C//DTD SVG 1.1//EN" "http://www.w3.org/Graphics/SVG/1.1/DTD/svg11.dtd" >
<svg xmlns="http://www.w3.org/2000/svg" xmlns:xlink="http://www.w3.org/1999/xlink" version="1.1" viewBox="-10 0 1010 1000">
   <path fill="currentColor"
d="M824 161v-48h-212v48h212zM824 253v-49h-212v49h212zM824 346v-50h-212v50h212zM893 69v321h-348v-321h348zM638 398l59 19c-26 32 -70 70 -108 94c-10 -11 -33 -31 -47 -42c37 -20 74 -45 96 -71zM376 161v-48h-205v48h205zM376 253v-49h-205v49h205zM376 346v-50h-205
v50h205zM444 69v321h-339v-321h339zM292 419l51 -25c30 24 67 58 85 82l-53 28c-17 -23 -53 -60 -83 -85zM732 820h-465v65h465v-65zM196 956v-181h609v180h-73v-25h-465v26h-71zM207 731v-43h587v43h-587zM795 604v43h-587v-43h587zM871 515h80v47h-901v-47h61
c-10 -11 -33 -32 -46 -42c45 -20 90 -45 115 -75l63 18c-31 36 -83 75 -129 99h361c-9 -18 -22 -36 -33 -51l55 -25c20 21 40 52 52 76h317c-24 -27 -72 -67 -112 -93l52 -29c41 26 91 64 116 93z" />
</svg>
