<?xml version="1.0" standalone="no"?>
<!DOCTYPE svg PUBLIC "-//W3C//DTD SVG 1.1//EN" "http://www.w3.org/Graphics/SVG/1.1/DTD/svg11.dtd" >
<svg xmlns="http://www.w3.org/2000/svg" xmlns:xlink="http://www.w3.org/1999/xlink" version="1.1" viewBox="-10 0 1010 1000">
   <path fill="currentColor"
d="M710 786h-421v65h421v-65zM219 924v-181h564v179h-73v-28h-421v30h-70zM232 703v-42h538v42h-538zM770 578v42h-538v-42h538zM470 408h-117c-19 29 -43 58 -69 85h205c-12 -22 -32 -49 -51 -69zM534 493h183c-26 -26 -50 -56 -68 -85h-156c23 23 45 55 56 77zM949 408
h-231c59 70 153 130 246 158c-16 14 -37 40 -46 58c-52 -19 -103 -50 -149 -86h-533c-48 42 -103 76 -155 100c-11 -17 -31 -41 -46 -54c89 -34 182 -102 242 -176h-225v-54h124l-13 -246c55 -15 132 -45 174 -64l44 34c-47 22 -103 39 -154 54l2 36h129v41h-126l2 50h127
v41h-125l3 54h166v-97h54v97h83v-118h-135v-192h58v48h137v43h-137v58h135v161h162c1 -17 3 -34 4 -54h-125v-41h128l2 -50h-125v-41h127l1 -43h-133v-44h201c-3 87 -8 200 -14 273h121v54z" />
</svg>
