<?xml version="1.0" standalone="no"?>
<!DOCTYPE svg PUBLIC "-//W3C//DTD SVG 1.1//EN" "http://www.w3.org/Graphics/SVG/1.1/DTD/svg11.dtd" >
<svg xmlns="http://www.w3.org/2000/svg" xmlns:xlink="http://www.w3.org/1999/xlink" version="1.1" viewBox="-10 0 1010 1000">
   <path fill="currentColor"
d="M759 387v-48h-97v-47h97v-47h-79v-45h79v-47h-90v-47h90v-61h63v61h108v47h-108v47h92v45h-92v47h119v47h-119v48h-63zM876 406v270h-454v-52h388v-58h-380v-54h380v-54h-388v-52h454zM580 717l48 -34c44 26 94 67 116 100l-50 38c-21 -32 -70 -75 -114 -104zM489 387
v-48h-109v-47h109v-47h-85v-45h85v-47h-100v-47h100v-61h62v61h88v47h-88v47h80v45h-80v47h88v47h-88v48h-62zM252 171l-53 29c-13 -36 -43 -93 -69 -133l51 -25c28 40 56 93 71 129zM355 213v61h-311v-61h311zM326 403h-248v-59h248v59zM266 669h-126v165h126v-165z
M324 607v289h-184v47h-58v-336h242zM79 533v-59h248v59h-248zM388 933l-54 -34c46 -39 78 -107 96 -166l56 21c-20 63 -49 134 -98 179zM619 883h109c27 0 32 -10 35 -84c14 10 39 18 58 21c-8 95 -27 118 -85 118h-125c-77 0 -96 -16 -96 -78v-131h66v131c0 20 5 23 38 23z
M789 751l52 -26c52 54 106 130 127 183l-56 29c-19 -52 -71 -130 -123 -186z" />
</svg>
