<?xml version="1.0" standalone="no"?>
<!DOCTYPE svg PUBLIC "-//W3C//DTD SVG 1.1//EN" "http://www.w3.org/Graphics/SVG/1.1/DTD/svg11.dtd" >
<svg xmlns="http://www.w3.org/2000/svg" xmlns:xlink="http://www.w3.org/1999/xlink" version="1.1" viewBox="-10 0 1010 1000">
   <path fill="currentColor"
d="M933 84v52h-213v-52h213zM215 56l59 21c-44 49 -114 102 -170 134c-10 -12 -28 -33 -40 -43c53 -28 118 -73 151 -112zM592 124h-143c-4 14 -7 27 -10 39h153v-39zM159 514v-191c-26 19 -53 37 -78 50c-6 -13 -22 -39 -32 -51c65 -35 141 -92 177 -141l54 20v-38h97
c3 -12 6 -26 8 -39h-73v-39h81l9 -42l62 6c-2 11 -4 24 -7 36h195v78h53v39h-423l3 1c-17 22 -38 44 -61 66v245h-65zM774 824h-552v53h552v-53zM149 955v-170h700v170h-75v-38h-552v38h-73zM164 747v-40h668v40h-668zM170 627h658v39h-658v-39zM358 431h126v-40h-116
c-3 14 -7 27 -10 40zM370 261v26h240v-26h-240zM549 503h-61c9 12 19 26 26 39h439v47h-904v-47h388c-6 -10 -12 -18 -17 -26l64 -19v-27h-198c8 -24 16 -51 22 -79h-44v-38h220v-30h-172v-98h357v98h-120v30h138v38h-138v40h153v39h-153v33zM705 221h248v52h-81v163
c0 32 -5 46 -28 55c-22 9 -55 9 -104 9c-2 -17 -8 -38 -15 -53c33 1 61 1 70 0c10 0 12 -2 12 -11v-163h-102v-52z" />
</svg>
