<?xml version="1.0" standalone="no"?>
<!DOCTYPE svg PUBLIC "-//W3C//DTD SVG 1.1//EN" "http://www.w3.org/Graphics/SVG/1.1/DTD/svg11.dtd" >
<svg xmlns="http://www.w3.org/2000/svg" xmlns:xlink="http://www.w3.org/1999/xlink" version="1.1" viewBox="-10 0 1010 1000">
   <path fill="currentColor"
d="M852 502h-194c-89 0 -119 -11 -119 -69v-222h282v-29h-282v-138h68v37h320v37h-320v27h282v103h-282v28h261v34h-261v27h257v34h-257v28h269v34h-269c0 24 11 28 57 29h179c32 0 40 -7 44 -51c15 7 37 12 54 15c-5 60 -25 76 -89 76zM361 138h-161c12 16 21 36 26 53h111
c9 -18 18 -37 24 -53zM514 191v40h-458v-40h111c-6 -15 -13 -30 -21 -43l36 -10h-99v-40h177c-8 -17 -17 -33 -26 -47l61 -12c13 18 25 40 33 59h157v40h-100l36 11c-8 15 -17 29 -25 42h118zM181 400h211v-31h-211v31zM392 302h-211v31h211v-31zM457 263v202
c0 27 -6 35 -26 43c-18 6 -51 6 -98 6c-2 -13 -8 -26 -15 -38c27 1 54 1 62 0c9 0 12 -2 12 -10v-29h-211v78h-65v-252h341zM735 832h-472v56h472v-56zM193 957v-167h615v166h-73v-26h-472v27h-70zM204 755v-40h594v40h-594zM798 639v40h-594v-40h594zM548 559h403v44h-901
v-44h421c-8 -18 -18 -37 -29 -53l69 -13c13 19 28 45 37 66z" />
</svg>
