<?xml version="1.0" standalone="no"?>
<!DOCTYPE svg PUBLIC "-//W3C//DTD SVG 1.1//EN" "http://www.w3.org/Graphics/SVG/1.1/DTD/svg11.dtd" >
<svg xmlns="http://www.w3.org/2000/svg" xmlns:xlink="http://www.w3.org/1999/xlink" version="1.1" viewBox="-10 0 1010 1000">
   <path fill="currentColor"
d="M264 165l-50 39c-16 -36 -48 -94 -75 -135l49 -33c28 39 61 94 76 129zM280 669h-143v165h143v-165zM338 607v289h-201v48h-57v-337h258zM81 533v-59h260v59h-260zM81 403v-59h260v59h-260zM46 274v-61h319v61h-319zM691 860h264v64h-581v-64h255v-325h-237v-61h237v-312
h-237v-64h545v64h-246v312h250v61h-250v325zM546 758v-124h-92v124h92zM409 589h183v214h-183v-214zM545 379v-117h-91v117h91zM408 218h184v205h-184v-205zM776 263v116h95v-116h-95zM918 424h-188v-206h188v206zM775 634v124h95v-124h-95zM917 804h-188v-215h188v215z" />
</svg>
