<?xml version="1.0" standalone="no"?>
<!DOCTYPE svg PUBLIC "-//W3C//DTD SVG 1.1//EN" "http://www.w3.org/Graphics/SVG/1.1/DTD/svg11.dtd" >
<svg xmlns="http://www.w3.org/2000/svg" xmlns:xlink="http://www.w3.org/1999/xlink" version="1.1" viewBox="-10 0 1010 1000">
   <path fill="currentColor"
d="M514 233v-56h-140v-59h140v-74h66v74h161v-74h67v74h140v59h-140v56h-67v-56h-161v56h-66zM742 301v91h119v-91h-119zM683 444v-195h239v195h-239zM281 170l-58 32c-17 -36 -56 -90 -95 -127l54 -29c40 36 81 87 99 124zM363 209v62h-321v-62h321zM337 344v59h-255v-59
h255zM82 536v-60h255v60h-255zM507 797v62h153v-62h-153zM660 639v-60h-153v60h153zM660 748v-60h-153v60h153zM273 829v-157h-131v157h131zM461 301v91h116v-91h-116zM956 859l1 56h-450v42h-67v-312c-19 21 -38 41 -58 57c-10 -10 -32 -30 -47 -42v230h-193v45h-61v-324
h254v43c68 -52 130 -130 169 -210h-99v-195h231v195h-121l53 16c-11 21 -23 43 -35 63h133c-14 -19 -30 -38 -45 -54l53 -27c25 24 53 56 70 81h191v56h-209v60h178v49h-178v60h178v49h-178v62h230z" />
</svg>
