<?xml version="1.0" standalone="no"?>
<!DOCTYPE svg PUBLIC "-//W3C//DTD SVG 1.1//EN" "http://www.w3.org/Graphics/SVG/1.1/DTD/svg11.dtd" >
<svg xmlns="http://www.w3.org/2000/svg" xmlns:xlink="http://www.w3.org/1999/xlink" version="1.1" viewBox="-10 0 1010 1000">
   <path fill="currentColor"
d="M825 344h-52c-2 37 -6 78 -17 118c30 30 55 62 71 88l-36 38c-12 -20 -31 -46 -53 -70c-19 43 -47 86 -89 123c-8 -12 -23 -28 -36 -40v4c-105 11 -209 22 -288 30l-4 -50c36 -2 80 -6 128 -10v-52h-95v-44h95v-52h51v52h97v44h-97v47l113 -10v33c42 -36 68 -79 84 -120
c-19 -18 -39 -36 -57 -50l34 -35c13 9 26 20 38 32c6 -27 8 -52 9 -75h-75v-57h76v-67h51v67h101c-1 165 0 288 32 288c12 0 16 -43 17 -105c10 13 24 28 35 36c-6 91 -15 127 -55 127c-69 0 -76 -119 -78 -290zM391 705v-48h467v48h-467zM480 209v-44h-165v-56h165v-67h58
v67h168v-67h58v67h180v56h-180v40h-58v-40h-168v44h-58zM230 172l-47 31c-13 -37 -45 -94 -71 -134l45 -25c27 40 58 92 73 128zM307 213v61h-260v-61h260zM283 403h-207v-59h207v59zM283 474v59h-207v-59h207zM234 669h-104v165h104v-165zM284 607v289h-154v47h-50v-336
h204zM424 372l18 21c-34 31 -79 59 -113 78l-24 -32c26 -16 62 -44 89 -67h-80v-44h135v-41h-107v-43h107v-31h51v31h108v43h-108v41h132v44h-88c34 19 73 43 93 61l-21 40c-25 -23 -73 -55 -111 -76l15 -25h-96zM463 877l308 -18c-16 -14 -34 -28 -50 -39l27 -19h-202
c-27 28 -56 54 -83 76zM308 801v-48h641v48h-173c49 34 102 84 130 119l-42 33c-11 -15 -26 -31 -43 -48c-384 26 -425 29 -453 39c-2 -13 -11 -41 -18 -56c14 -2 27 -9 43 -20c13 -7 46 -34 78 -67h-163z" />
</svg>
