<?xml version="1.0" standalone="no"?>
<!DOCTYPE svg PUBLIC "-//W3C//DTD SVG 1.1//EN" "http://www.w3.org/Graphics/SVG/1.1/DTD/svg11.dtd" >
<svg xmlns="http://www.w3.org/2000/svg" xmlns:xlink="http://www.w3.org/1999/xlink" version="1.1" viewBox="-10 0 1010 1000">
   <path fill="currentColor"
d="M343 215l-53 53c-33 -44 -100 -114 -154 -164l51 -45c55 47 124 114 156 156zM280 767l96 -72c7 21 21 49 28 64c-163 127 -189 150 -204 169c-8 -16 -28 -43 -41 -55c18 -14 48 -48 48 -96v-348h-157v-72h230v410zM832 873h33c9 0 18 -2 23 -7c6 -6 9 -15 11 -38
c2 -22 4 -75 4 -142c16 15 39 27 59 32c-1 57 -4 131 -9 156c-5 29 -15 45 -29 55c-15 11 -34 15 -56 15h-54c-20 0 -43 -6 -60 -20c-17 -15 -23 -33 -23 -118v-635h-187v265c0 162 -20 382 -158 526c-12 -15 -41 -42 -59 -52c129 -133 142 -325 142 -475v-335h337v711
c0 34 2 52 7 56c6 4 12 6 19 6z" />
</svg>
