<?xml version="1.0" standalone="no"?>
<!DOCTYPE svg PUBLIC "-//W3C//DTD SVG 1.1//EN" "http://www.w3.org/Graphics/SVG/1.1/DTD/svg11.dtd" >
<svg xmlns="http://www.w3.org/2000/svg" xmlns:xlink="http://www.w3.org/1999/xlink" version="1.1" viewBox="-10 0 1010 1000">
   <path fill="currentColor"
d="M343 207l-49 54c-32 -42 -100 -106 -154 -152l48 -48c55 44 123 105 155 146zM279 795l94 -60c4 20 15 49 22 63c-155 103 -180 121 -195 138c-8 -16 -29 -45 -43 -59c19 -13 51 -45 51 -91v-359h-158v-71h229v439zM851 274h73v682h-73v-61h-433v-617h72v548h143v-770h74
v770h144v-552z" />
</svg>
