<?xml version="1.0" standalone="no"?>
<!DOCTYPE svg PUBLIC "-//W3C//DTD SVG 1.1//EN" "http://www.w3.org/Graphics/SVG/1.1/DTD/svg11.dtd" >
<svg xmlns="http://www.w3.org/2000/svg" xmlns:xlink="http://www.w3.org/1999/xlink" version="1.1" viewBox="-10 0 1010 1000">
   <path fill="currentColor"
d="M307 210l-54 50c-28 -41 -88 -106 -136 -152l50 -43c50 44 112 105 140 145zM258 756l103 -78c6 19 20 48 27 62c-170 134 -197 156 -211 177c-7 -18 -26 -49 -39 -64c18 -12 48 -41 48 -85v-341h-140v-72h212v401zM359 98h481c-4 426 -7 762 59 779c8 2 16 -72 19 -156
c13 18 34 44 46 53c-11 162 -44 197 -94 178c-108 -34 -105 -358 -104 -784h-192v284h154v69h-154v421h-70v-421h-151v-69h151v-284h-145v-70z" />
</svg>
