<?xml version="1.0" standalone="no"?>
<!DOCTYPE svg PUBLIC "-//W3C//DTD SVG 1.1//EN" "http://www.w3.org/Graphics/SVG/1.1/DTD/svg11.dtd" >
<svg xmlns="http://www.w3.org/2000/svg" xmlns:xlink="http://www.w3.org/1999/xlink" version="1.1" viewBox="-10 0 1010 1000">
   <path fill="currentColor"
d="M312 220l-51 52c-33 -44 -102 -114 -158 -164l48 -45c56 47 128 114 161 157zM264 784l104 -70c5 19 15 50 22 64c-165 118 -192 139 -207 159c-7 -19 -24 -52 -37 -67c18 -11 46 -40 46 -82v-361h-146v-72h218v429zM479 849h479v68h-551v-815h528v68h-456v679zM907 731
l-61 45c-27 -57 -70 -129 -120 -204c-52 87 -109 165 -169 228c-11 -14 -40 -38 -56 -50c65 -65 127 -148 182 -242c-55 -76 -114 -155 -170 -222l54 -37c49 59 102 126 152 194c36 -69 68 -142 94 -214l68 18c-34 88 -73 176 -117 257c60 84 112 164 143 227z" />
</svg>
