<?xml version="1.0" standalone="no"?>
<!DOCTYPE svg PUBLIC "-//W3C//DTD SVG 1.1//EN" "http://www.w3.org/Graphics/SVG/1.1/DTD/svg11.dtd" >
<svg xmlns="http://www.w3.org/2000/svg" xmlns:xlink="http://www.w3.org/1999/xlink" version="1.1" viewBox="-10 0 1010 1000">
   <path fill="currentColor"
d="M309 209l-52 52c-32 -39 -96 -103 -144 -149l50 -46c48 44 113 106 146 143zM258 769l99 -75c7 21 18 50 28 64c-167 131 -193 152 -206 170c-7 -17 -28 -48 -42 -62c18 -12 49 -45 49 -90v-349h-138v-71h138v-1h72v414zM911 263v597c0 43 -9 65 -37 78
c-31 11 -80 13 -158 13c-2 -21 -12 -52 -23 -71c59 2 113 1 128 1c16 -1 21 -6 21 -21v-529h-152c-3 31 -7 63 -13 95c62 96 131 216 164 290l-63 36c-24 -60 -73 -150 -123 -233c-25 85 -66 169 -133 246c-13 -14 -40 -35 -59 -44c106 -119 144 -260 157 -390h-158v625h-69
v-693h231c2 -29 2 -57 2 -84v-135h70v135c0 27 0 55 -2 84h217z" />
</svg>
