<?xml version="1.0" standalone="no"?>
<!DOCTYPE svg PUBLIC "-//W3C//DTD SVG 1.1//EN" "http://www.w3.org/Graphics/SVG/1.1/DTD/svg11.dtd" >
<svg xmlns="http://www.w3.org/2000/svg" xmlns:xlink="http://www.w3.org/1999/xlink" version="1.1" viewBox="-10 0 1010 1000">
   <path fill="currentColor"
d="M319 212l-54 50c-30 -44 -93 -113 -144 -162l51 -42c51 47 117 112 147 154zM256 771l98 -79c7 20 19 48 28 63c-167 142 -193 163 -206 183c-8 -15 -28 -41 -42 -52c19 -15 52 -53 52 -102v-355h-139v-72h209v414zM528 47l73 19c-24 75 -53 148 -88 217v673h-74v-546
c-26 41 -55 76 -84 107c-10 -15 -36 -47 -52 -61c97 -97 177 -250 225 -409zM778 874h83c23 0 27 -33 30 -160c18 13 46 27 67 32c-7 145 -23 196 -93 196h-98c-72 0 -91 -26 -91 -116v-267c-28 24 -55 45 -82 64c-12 -14 -35 -35 -51 -46c43 -31 89 -67 133 -109v-406h73
v331c50 -56 96 -116 131 -176l65 40c-54 82 -123 164 -196 236v333c0 41 5 48 29 48z" />
</svg>
