<?xml version="1.0" standalone="no"?>
<!DOCTYPE svg PUBLIC "-//W3C//DTD SVG 1.1//EN" "http://www.w3.org/Graphics/SVG/1.1/DTD/svg11.dtd" >
<svg xmlns="http://www.w3.org/2000/svg" xmlns:xlink="http://www.w3.org/1999/xlink" version="1.1" viewBox="-10 0 1010 1000">
   <path fill="currentColor"
d="M699 69l63 -16c35 147 107 302 192 377c-19 14 -44 42 -58 62c-89 -89 -160 -257 -197 -423zM517 56l72 14c-38 167 -102 324 -183 427c-13 -12 -44 -34 -62 -45c80 -94 140 -242 173 -396zM325 211l-51 53c-31 -42 -98 -108 -149 -154l48 -44c53 43 120 105 152 145z
M270 775l115 -78c5 19 16 49 23 63c-174 123 -201 143 -216 161c-9 -15 -32 -40 -47 -51c19 -15 54 -52 54 -102v-329h-138v-71h209v407zM712 606l63 -24c64 111 139 259 171 346l-68 29c-10 -29 -26 -66 -44 -105c-352 44 -393 50 -421 63c-4 -15 -16 -52 -24 -71
c18 -6 38 -36 62 -81c26 -43 106 -209 151 -364l75 22c-49 142 -114 288 -180 402l309 -35c-29 -62 -63 -127 -94 -182z" />
</svg>
