<?xml version="1.0" standalone="no"?>
<!DOCTYPE svg PUBLIC "-//W3C//DTD SVG 1.1//EN" "http://www.w3.org/Graphics/SVG/1.1/DTD/svg11.dtd" >
<svg xmlns="http://www.w3.org/2000/svg" xmlns:xlink="http://www.w3.org/1999/xlink" version="1.1" viewBox="-10 0 1010 1000">
   <path fill="currentColor"
d="M940 263h-395c-31 193 -82 354 -172 473c-11 -14 -41 -40 -57 -53c83 -101 130 -247 157 -420h-135v-68h144c7 -49 12 -100 16 -153l73 6c-5 51 -10 100 -16 147h385v68zM865 393l60 12c-19 93 -49 192 -82 256c-11 -9 -39 -21 -54 -27c34 -62 61 -154 76 -241zM584 400
l57 10c-17 100 -46 198 -85 264c-11 -9 -35 -24 -49 -31c39 -61 63 -152 77 -243zM286 224l-52 51c-27 -46 -89 -118 -138 -170l48 -44c50 50 113 119 142 163zM249 793l102 -70c5 21 16 49 23 64c-163 115 -189 134 -203 152c-8 -15 -27 -42 -40 -52c19 -14 49 -47 49 -95
v-363h-127v-72h196v436zM699 298l65 3c-5 113 -13 210 -29 294c36 139 108 251 221 301c-16 13 -36 39 -47 56c-93 -48 -159 -138 -201 -251c-42 124 -115 207 -243 259c-9 -19 -28 -47 -43 -62c222 -78 264 -277 277 -600z" />
</svg>
