<?xml version="1.0" standalone="no"?>
<!DOCTYPE svg PUBLIC "-//W3C//DTD SVG 1.1//EN" "http://www.w3.org/Graphics/SVG/1.1/DTD/svg11.dtd" >
<svg xmlns="http://www.w3.org/2000/svg" xmlns:xlink="http://www.w3.org/1999/xlink" version="1.1" viewBox="-10 0 1010 1000">
   <path fill="currentColor"
d="M628 37l71 23c-6 11 -11 22 -18 32c68 100 186 208 289 267c-14 17 -28 46 -35 66c-102 -66 -215 -173 -288 -274c-69 108 -162 208 -269 284c-11 -14 -35 -38 -51 -49c130 -90 243 -224 301 -349zM336 207l-52 51c-31 -42 -97 -108 -149 -154l49 -44
c52 44 120 107 152 147zM270 772l101 -77c7 20 21 49 29 64c-168 132 -196 153 -211 173c-6 -18 -25 -48 -38 -63c18 -12 47 -41 47 -85v-357h-156v-71h228v416zM685 670v188h260v68h-585v-68h252v-188h-182v-66h182v-151h-149v-68h382v68h-160v151h183v66h-183z" />
</svg>
