<?xml version="1.0" standalone="no"?>
<!DOCTYPE svg PUBLIC "-//W3C//DTD SVG 1.1//EN" "http://www.w3.org/Graphics/SVG/1.1/DTD/svg11.dtd" >
<svg xmlns="http://www.w3.org/2000/svg" xmlns:xlink="http://www.w3.org/1999/xlink" version="1.1" viewBox="-10 0 1010 1000">
   <path fill="currentColor"
d="M307 210l-54 50c-28 -41 -88 -106 -136 -152l50 -43c50 44 112 104 140 145zM258 763l104 -74c5 19 18 48 24 61c-168 126 -195 147 -209 167c-7 -18 -26 -49 -39 -64c18 -11 48 -41 48 -85v-341h-140v-72h212v408zM670 420h-171v107h171v-107zM499 695h171v-108h-171
v108zM737 756h-238v61h-69v-458h307v397zM528 192h410s0 29 -1 40c-16 471 -30 629 -69 678c-22 29 -43 38 -78 41c-32 4 -88 3 -142 0c-2 -22 -11 -52 -24 -73c60 5 114 6 138 6c18 0 29 -3 40 -17c32 -35 49 -191 62 -606h-372c-35 63 -75 119 -115 163
c-14 -13 -45 -37 -64 -49c81 -80 151 -206 194 -332l75 20c-16 44 -34 87 -54 129z" />
</svg>
