<?xml version="1.0" standalone="no"?>
<!DOCTYPE svg PUBLIC "-//W3C//DTD SVG 1.1//EN" "http://www.w3.org/Graphics/SVG/1.1/DTD/svg11.dtd" >
<svg xmlns="http://www.w3.org/2000/svg" xmlns:xlink="http://www.w3.org/1999/xlink" version="1.1" viewBox="-10 0 1010 1000">
   <path fill="currentColor"
d="M272 218l-52 45c-26 -40 -81 -108 -124 -157l50 -40c45 48 101 113 126 152zM232 808l100 -55c2 18 9 46 14 59c-153 92 -181 107 -197 123v1v-1l-1 1l-1 -6c-6 -18 -17 -44 -28 -59c17 -9 43 -30 43 -70v-373h-112v-72h182v452zM609 90v761c0 45 -10 65 -37 77
c-29 12 -76 13 -152 13c-3 -20 -10 -50 -19 -69c52 2 103 1 117 1c15 -1 20 -6 20 -22v-280c-73 58 -150 117 -211 164l-31 -58c60 -41 152 -109 242 -177v-342h-209v-68h280zM349 281l53 -14c27 61 59 144 72 191l-55 20c-13 -49 -43 -134 -70 -197zM928 90v764
c0 45 -10 65 -38 78c-30 12 -79 12 -156 12c-3 -19 -12 -50 -21 -70c54 2 108 2 122 1c16 0 22 -5 22 -22v-291c-62 60 -129 122 -183 172l-33 -57c54 -45 137 -118 216 -193v-326h-207v-68h278zM673 276l52 -14c28 61 61 144 76 190l-56 21c-14 -50 -46 -133 -72 -197z" />
</svg>
