<?xml version="1.0" standalone="no"?>
<!DOCTYPE svg PUBLIC "-//W3C//DTD SVG 1.1//EN" "http://www.w3.org/Graphics/SVG/1.1/DTD/svg11.dtd" >
<svg xmlns="http://www.w3.org/2000/svg" xmlns:xlink="http://www.w3.org/1999/xlink" version="1.1" viewBox="-10 0 1010 1000">
   <path fill="currentColor"
d="M930 181l-51 32c-17 -36 -59 -90 -98 -127l48 -28c40 36 83 88 101 123zM291 211l-58 45c-27 -41 -83 -104 -130 -149l55 -39c47 43 106 105 133 143zM240 777l81 -65c6 19 19 46 28 59c-144 121 -169 141 -183 160l-1 -3v3c-8 -14 -29 -38 -42 -49
c18 -15 50 -51 50 -101v-356h-126v-69h193v421zM605 819h-61v-235h-83c-3 118 -22 241 -103 340c-10 -14 -33 -34 -48 -43c70 -88 87 -196 90 -297h-67v-66h68v-148h61v148h82v-149h61v149h66v66h-66v235zM864 377l65 13c-32 127 -76 242 -133 339c22 101 50 160 84 160
c18 0 28 -43 31 -149c15 15 37 30 53 37c-10 137 -31 180 -93 180c-56 0 -96 -56 -125 -152c-41 56 -88 106 -141 147c-10 -13 -36 -36 -52 -47c68 -48 124 -111 172 -184c-22 -112 -35 -257 -42 -419h-362v-70h359c-1 -61 -2 -123 -3 -187h70c-1 64 0 127 1 187h209v70
h-206c5 125 14 234 26 325c38 -76 66 -159 87 -250z" />
</svg>
