<?xml version="1.0" standalone="no"?>
<!DOCTYPE svg PUBLIC "-//W3C//DTD SVG 1.1//EN" "http://www.w3.org/Graphics/SVG/1.1/DTD/svg11.dtd" >
<svg xmlns="http://www.w3.org/2000/svg" xmlns:xlink="http://www.w3.org/1999/xlink" version="1.1" viewBox="-10 0 1010 1000">
   <path fill="currentColor"
d="M445 253l69 7c-7 60 -16 118 -27 171c44 67 90 151 110 207l-50 45c-15 -45 -48 -110 -82 -170c-24 79 -56 146 -100 200c-10 -13 -37 -37 -51 -49c79 -93 115 -241 131 -411zM302 220l-51 53c-31 -42 -97 -109 -150 -156l48 -45c53 44 122 107 153 148zM256 790l118 -78
c5 19 14 48 21 63c-166 114 -192 134 -207 153c-6 -18 -25 -51 -37 -66c14 -11 35 -33 35 -74v-361h-138v-71h208v434zM679 683v168h276v67h-620v-67h270v-683h-241v-66h573v66h-258v493c71 -97 102 -242 117 -407l69 8c-6 57 -14 111 -24 161c49 80 97 175 119 240l-54 47
c-16 -53 -51 -125 -87 -193c-23 80 -54 150 -98 206c-8 -10 -26 -28 -42 -40z" />
</svg>
