<?xml version="1.0" standalone="no"?>
<!DOCTYPE svg PUBLIC "-//W3C//DTD SVG 1.1//EN" "http://www.w3.org/Graphics/SVG/1.1/DTD/svg11.dtd" >
<svg xmlns="http://www.w3.org/2000/svg" xmlns:xlink="http://www.w3.org/1999/xlink" version="1.1" viewBox="-10 0 1010 1000">
   <path fill="currentColor"
d="M302 219l-51 53c-31 -42 -97 -109 -150 -157l48 -45c53 44 122 108 153 149zM256 789l119 -78c4 19 13 48 20 63c-166 114 -192 134 -207 153c-6 -18 -25 -50 -37 -66c14 -10 35 -32 35 -73v-362h-138v-71h208v434zM814 674h-339v179h339v-179zM404 957v-348h483v345h-73
v-36h-339v39h-71zM781 323h-187c-11 49 -22 96 -32 136h204c6 -44 11 -94 15 -136zM837 459h117v68h-633v-68h165c11 -40 22 -87 33 -136h-127v-65h142c9 -38 16 -77 22 -112h-201v-67h565v67h-288c-7 35 -15 74 -24 112h185l11 -4l53 5c-4 63 -12 136 -20 200z" />
</svg>
