<?xml version="1.0" standalone="no"?>
<!DOCTYPE svg PUBLIC "-//W3C//DTD SVG 1.1//EN" "http://www.w3.org/Graphics/SVG/1.1/DTD/svg11.dtd" >
<svg xmlns="http://www.w3.org/2000/svg" xmlns:xlink="http://www.w3.org/1999/xlink" version="1.1" viewBox="-10 0 1010 1000">
   <path fill="currentColor"
d="M300 219l-54 48c-27 -43 -85 -109 -131 -157l51 -42c47 46 107 109 134 151zM259 753l103 -77c6 19 19 48 27 61c-170 134 -197 156 -212 177c-6 -18 -25 -49 -38 -63c18 -12 47 -42 47 -86v-341h-140v-72h213v401zM844 657h69s-1 20 -2 29c-12 157 -24 220 -47 244
c-16 17 -34 22 -61 25c-24 1 -70 0 -119 -2c-1 -19 -8 -44 -19 -61c48 4 93 5 108 5c17 0 26 -1 34 -9c14 -13 24 -59 33 -169h-164c10 -33 20 -78 29 -121h-120c-14 171 -52 294 -198 363c-8 -17 -29 -42 -44 -54c128 -59 158 -163 169 -309h-114v-65h388
c-8 40 -18 86 -27 125zM940 301h-193c55 69 138 133 214 167c-17 12 -38 37 -49 54c-79 -42 -166 -119 -223 -200v186h-72v-184c-59 86 -149 163 -235 204c-11 -16 -32 -42 -47 -54c82 -34 168 -100 224 -173h-188v-64h246v-88c-69 7 -141 12 -208 15
c-2 -17 -11 -42 -19 -58c156 -8 343 -27 446 -55l50 54c-55 15 -123 27 -197 36v96h251v64z" />
</svg>
