<?xml version="1.0" standalone="no"?>
<!DOCTYPE svg PUBLIC "-//W3C//DTD SVG 1.1//EN" "http://www.w3.org/Graphics/SVG/1.1/DTD/svg11.dtd" >
<svg xmlns="http://www.w3.org/2000/svg" xmlns:xlink="http://www.w3.org/1999/xlink" version="1.1" viewBox="-10 0 1010 1000">
   <path fill="currentColor"
d="M276 223l-53 46c-26 -43 -82 -113 -128 -163l50 -39c47 48 105 114 131 156zM234 787l107 -79c6 20 18 45 27 59c-162 123 -186 141 -201 161v-2c-8 -18 -26 -49 -38 -65c14 -10 36 -32 36 -73v-362h-115v-71h184v432zM509 68l65 18c-22 52 -51 100 -83 146
c42 106 49 220 49 342c0 139 -7 286 -42 334c-12 17 -28 26 -50 30c-25 4 -58 5 -90 4c0 -23 -8 -49 -19 -68c34 1 64 1 80 0c13 -1 20 -5 27 -13c21 -29 27 -166 27 -289v-28c-40 55 -87 109 -131 146c-9 -17 -28 -40 -44 -52c60 -42 129 -122 170 -197
c-4 -51 -12 -101 -26 -149c-34 41 -71 78 -109 107c-10 -12 -35 -39 -49 -51c48 -33 92 -76 131 -126c-19 -43 -45 -86 -81 -128l50 -35c30 34 55 69 74 104c20 -30 38 -63 51 -95zM801 857h156v70h-393v-70h167v-331h-132v-69h132v-280h-139v-70h353v70h-144v280h136v69
h-136v331z" />
</svg>
