<?xml version="1.0" standalone="no"?>
<!DOCTYPE svg PUBLIC "-//W3C//DTD SVG 1.1//EN" "http://www.w3.org/Graphics/SVG/1.1/DTD/svg11.dtd" >
<svg xmlns="http://www.w3.org/2000/svg" xmlns:xlink="http://www.w3.org/1999/xlink" version="1.1" viewBox="-10 0 1010 1000">
   <path fill="currentColor"
d="M318 219l-52 53c-31 -44 -97 -113 -150 -162l49 -45c53 47 122 112 153 154zM268 753l113 -80c6 22 18 51 26 66c-186 137 -214 160 -228 178c-8 -18 -28 -51 -43 -66c21 -14 58 -48 58 -92v-331h-145v-72h219v397zM457 310v181h338v-181h-338zM776 873h82
c24 0 29 -16 31 -122c16 12 45 24 66 29c-7 129 -26 163 -90 163h-99c-73 0 -91 -23 -91 -99v-286h-90c-15 190 -56 324 -241 400c-9 -18 -29 -45 -45 -57c166 -63 200 -181 212 -343h-126v-315h132c-15 -46 -52 -118 -91 -171l63 -26c40 52 79 123 94 169l-64 28h168
c30 -57 66 -139 85 -199l77 25c-26 58 -55 122 -83 174h103v315h-121v285c0 26 4 30 28 30z" />
</svg>
