<?xml version="1.0" standalone="no"?>
<!DOCTYPE svg PUBLIC "-//W3C//DTD SVG 1.1//EN" "http://www.w3.org/Graphics/SVG/1.1/DTD/svg11.dtd" >
<svg xmlns="http://www.w3.org/2000/svg" xmlns:xlink="http://www.w3.org/1999/xlink" version="1.1" viewBox="-10 0 1010 1000">
   <path fill="currentColor"
d="M285 214l-54 49c-26 -39 -83 -100 -129 -144l52 -41c46 41 105 99 131 136zM251 767l86 -74c8 19 22 45 30 58c-156 135 -181 158 -194 177c-10 -14 -36 -41 -50 -53c20 -15 60 -59 60 -107v-342h-136v-72h204v413zM899 293l51 53c-37 32 -80 65 -125 97
c26 138 77 281 144 347c-17 13 -40 38 -51 56c-68 -76 -117 -221 -144 -368c-16 11 -32 20 -47 30c47 174 21 354 -37 405c-29 30 -55 39 -99 40c-19 0 -53 -1 -81 -3c-2 -21 -7 -49 -19 -70c33 4 67 5 87 5c24 0 41 -3 58 -23c31 -29 52 -125 42 -237
c-78 90 -191 178 -293 227c-8 -18 -26 -42 -41 -57c117 -47 254 -153 321 -252c-6 -29 -14 -59 -26 -89c-30 30 -67 60 -105 88c12 27 24 51 31 71l-51 32c-6 -19 -17 -44 -29 -69c-35 23 -70 43 -102 58c-9 -16 -27 -42 -41 -55c36 -14 76 -35 114 -58
c-14 -25 -28 -48 -42 -70l47 -27c15 21 30 43 43 67c42 -30 82 -62 109 -94c-15 -28 -32 -55 -53 -80c-68 50 -143 92 -214 126c-9 -15 -30 -45 -44 -58c114 -46 234 -117 317 -199h-274v-71h600v71h-238c-28 33 -61 64 -98 94c44 50 77 108 99 169
c67 -46 143 -107 191 -156z" />
</svg>
