<?xml version="1.0" standalone="no"?>
<!DOCTYPE svg PUBLIC "-//W3C//DTD SVG 1.1//EN" "http://www.w3.org/Graphics/SVG/1.1/DTD/svg11.dtd" >
<svg xmlns="http://www.w3.org/2000/svg" xmlns:xlink="http://www.w3.org/1999/xlink" version="1.1" viewBox="-10 0 1010 1000">
   <path fill="currentColor"
d="M300 226l-47 47c-31 -42 -95 -109 -147 -155l45 -41c53 44 119 108 149 149zM253 790l119 -78c4 18 13 48 19 62c-166 115 -191 135 -206 153c-7 -17 -26 -51 -38 -65c15 -11 36 -33 36 -74v-361h-136v-71h206v434zM751 644h-187c-19 30 -37 59 -55 84
c49 16 100 35 151 54c42 -35 72 -81 91 -138zM567 492l70 16c-11 23 -23 48 -37 72h339v64h-112c-21 69 -55 122 -99 166c71 30 135 60 181 89l-52 55c-46 -29 -113 -63 -188 -96c-75 49 -170 80 -282 102c-6 -18 -21 -48 -34 -64c95 -14 177 -34 241 -70
c-64 -25 -128 -50 -188 -68c25 -32 53 -72 79 -114h-144v-64h182c16 -30 32 -59 44 -88zM944 312h-220c60 62 152 118 237 145c-15 13 -36 37 -48 55c-83 -34 -174 -99 -236 -170v158h-71v-160c-64 74 -158 140 -243 176c-10 -17 -31 -41 -45 -53c84 -29 178 -87 239 -151
h-214v-63h263v-87c-73 8 -146 14 -214 18c-2 -16 -11 -40 -17 -56c161 -11 358 -33 464 -63l56 52c-61 16 -138 30 -218 40v96h267v63z" />
</svg>
