<?xml version="1.0" standalone="no"?>
<!DOCTYPE svg PUBLIC "-//W3C//DTD SVG 1.1//EN" "http://www.w3.org/Graphics/SVG/1.1/DTD/svg11.dtd" >
<svg xmlns="http://www.w3.org/2000/svg" xmlns:xlink="http://www.w3.org/1999/xlink" version="1.1" viewBox="-10 0 1010 1000">
   <path fill="currentColor"
d="M308 212l-51 49c-33 -41 -101 -108 -154 -154l49 -43c54 44 122 107 156 148zM250 768l93 -79c7 19 19 47 27 60c-159 139 -183 163 -197 183c-8 -14 -27 -40 -40 -52c18 -13 48 -47 48 -95v-360h-135v-70h204v413zM790 223h-241c-49 87 -108 164 -170 221
c-13 -12 -43 -36 -61 -46c101 -83 186 -214 234 -355l70 19c-11 32 -24 64 -39 94h244l12 -4l50 32c-34 82 -94 181 -144 246c-15 -12 -38 -28 -56 -36c36 -45 74 -112 101 -171zM662 464h244v488h-73v-49h-377v50h-72v-463c72 -26 153 -62 201 -92l57 52
c-54 28 -121 54 -186 76v122h165v61h-165v131h377v-130h-162v-62h162v-121h-171v-63z" />
</svg>
