<?xml version="1.0" standalone="no"?>
<!DOCTYPE svg PUBLIC "-//W3C//DTD SVG 1.1//EN" "http://www.w3.org/Graphics/SVG/1.1/DTD/svg11.dtd" >
<svg xmlns="http://www.w3.org/2000/svg" xmlns:xlink="http://www.w3.org/1999/xlink" version="1.1" viewBox="-10 0 1010 1000">
   <path fill="currentColor"
d="M933 164v68h-571v-68h261c-10 -31 -28 -73 -44 -104l70 -20c19 37 43 87 52 117l-21 7h253zM757 260l68 13c-10 38 -23 75 -38 111c53 39 111 89 141 123l-42 53c-27 -32 -78 -79 -127 -118c-22 42 -49 80 -78 110c-10 -13 -35 -38 -50 -49c60 -58 103 -148 126 -243z
M623 479l-38 53c-21 -25 -60 -59 -97 -89c-27 50 -59 95 -96 130c-10 -12 -35 -37 -50 -49c69 -63 121 -162 148 -268l67 15c-11 40 -26 79 -42 117c40 30 84 66 108 91zM310 215l-52 52c-31 -43 -96 -110 -150 -156l49 -44c54 43 121 107 153 148zM954 649v69h-275v239h-73
v-239h-253c6 20 16 45 24 60c-160 113 -185 133 -200 151c-9 -14 -32 -39 -46 -50c20 -16 56 -54 56 -106v-346h-140v-71h140v-1h71v427l91 -64h-9v-69h266v-96h73v96h275z" />
</svg>
