<?xml version="1.0" standalone="no"?>
<!DOCTYPE svg PUBLIC "-//W3C//DTD SVG 1.1//EN" "http://www.w3.org/Graphics/SVG/1.1/DTD/svg11.dtd" >
<svg xmlns="http://www.w3.org/2000/svg" xmlns:xlink="http://www.w3.org/1999/xlink" version="1.1" viewBox="-10 0 1010 1000">
   <path fill="currentColor"
d="M286 235l-59 41c-21 -43 -68 -116 -104 -169l55 -34c37 52 85 121 108 162zM250 762l90 -66c6 21 18 49 26 62c-154 118 -178 138 -190 157c-7 -18 -27 -47 -40 -61c17 -12 42 -40 42 -85v-342h-128v-71h200v406zM827 405h-154v110h154v-110zM673 691h154v-114h-154v114z
M450 691h158v-114h-158v114zM608 405h-158v110h158v-110zM673 255v85h217v458h-63v-45h-154v202h-65v-202h-158v56h-61v-469h219v-85h65zM665 159h262v165h-66v-105h-444v105h-64v-165h261c-14 -29 -37 -70 -61 -99l61 -21c27 35 58 82 71 113z" />
</svg>
