<?xml version="1.0" standalone="no"?>
<!DOCTYPE svg PUBLIC "-//W3C//DTD SVG 1.1//EN" "http://www.w3.org/Graphics/SVG/1.1/DTD/svg11.dtd" >
<svg xmlns="http://www.w3.org/2000/svg" xmlns:xlink="http://www.w3.org/1999/xlink" version="1.1" viewBox="-10 0 1010 1000">
   <path fill="currentColor"
d="M488 277v-81h-148v-65h148v-88h70v88h182v-88h70v88h140v65h-140v81h-70v-81h-182v81h-70zM938 381h-447v101h402v61h-472v-162h-77v-61h274c-7 -21 -15 -42 -24 -61l64 -21c13 25 25 56 33 82h247v61zM291 219l-53 49c-29 -42 -91 -109 -142 -156l50 -42
c51 45 115 109 145 149zM251 772l99 -83c7 20 19 48 28 62c-164 140 -190 163 -205 184c-7 -16 -28 -40 -41 -52c17 -15 49 -53 49 -104v-352h-134v-70h204v415zM430 680v-82h67v83c0 93 -14 200 -127 279c-11 -15 -37 -38 -53 -47c101 -69 113 -158 113 -233zM599 930v-327
h68v327h-68zM853 888h24c8 0 15 -1 19 -4s8 -10 10 -22c2 -14 3 -43 4 -83c13 11 34 21 51 26c-1 39 -4 83 -9 98c-6 16 -15 27 -27 33c-11 6 -30 9 -45 9h-43c-19 0 -40 -4 -53 -17c-14 -11 -19 -27 -19 -84v-246h68v254c0 16 1 27 5 31c3 3 8 5 15 5z" />
</svg>
