<?xml version="1.0" standalone="no"?>
<!DOCTYPE svg PUBLIC "-//W3C//DTD SVG 1.1//EN" "http://www.w3.org/Graphics/SVG/1.1/DTD/svg11.dtd" >
<svg xmlns="http://www.w3.org/2000/svg" xmlns:xlink="http://www.w3.org/1999/xlink" version="1.1" viewBox="-10 0 1010 1000">
   <path fill="currentColor"
d="M849 276v-136h-123v136h123zM909 82v252h-241v-252h241zM395 458v-62h480v62h-480zM544 276v-136h-111v136h111zM607 82v252h-234v-252h234zM298 208l-51 52c-30 -39 -94 -102 -143 -148l48 -45c49 43 115 103 146 141zM267 786l110 -77c5 21 14 51 22 64
c-171 127 -197 148 -211 166c-8 -16 -28 -41 -41 -52c18 -16 49 -53 49 -103v-361h-148v-69h219v432zM948 595h-385c-7 26 -14 53 -22 78h328s-1 21 -2 32c-12 134 -25 193 -52 217c-20 19 -43 25 -81 26c-34 1 -106 0 -179 -4c-1 -20 -11 -46 -25 -65c75 7 153 8 179 8
c24 0 37 -1 46 -9c16 -14 26 -54 35 -142h-345c15 -39 31 -93 43 -141h-162v-64h622v64z" />
</svg>
