<?xml version="1.0" standalone="no"?>
<!DOCTYPE svg PUBLIC "-//W3C//DTD SVG 1.1//EN" "http://www.w3.org/Graphics/SVG/1.1/DTD/svg11.dtd" >
<svg xmlns="http://www.w3.org/2000/svg" xmlns:xlink="http://www.w3.org/1999/xlink" version="1.1" viewBox="-10 0 1010 1000">
   <path fill="currentColor"
d="M817 77l67 22c-28 50 -60 105 -87 140l-60 -20c27 -39 61 -100 80 -142zM480 215l-60 28c-13 -37 -44 -94 -74 -136l58 -25c30 41 64 96 76 133zM360 318v139h-70v-205h281v-209h73v209h296v205h-72v-139h-508zM256 224l-57 42c-22 -43 -69 -113 -108 -165l54 -35
c40 50 89 116 111 158zM233 755l101 -76c7 19 19 48 27 62c-168 134 -194 156 -207 175c-7 -17 -26 -45 -40 -58c19 -14 51 -46 51 -91v-340h-115v-71h183v399zM462 483v136h296v-136h-296zM763 878h97c26 0 31 -12 34 -111c14 11 43 23 62 27c-7 120 -26 149 -89 149h-113
c-76 0 -94 -20 -94 -90v-170h-89c-23 132 -83 224 -256 274c-7 -17 -27 -46 -42 -59c155 -40 208 -111 228 -215h-108v-264h437v264h-102v169c0 22 5 26 35 26z" />
</svg>
