<?xml version="1.0" standalone="no"?>
<!DOCTYPE svg PUBLIC "-//W3C//DTD SVG 1.1//EN" "http://www.w3.org/Graphics/SVG/1.1/DTD/svg11.dtd" >
<svg xmlns="http://www.w3.org/2000/svg" xmlns:xlink="http://www.w3.org/1999/xlink" version="1.1" viewBox="-10 0 1010 1000">
   <path fill="currentColor"
d="M963 395l-59 34c-16 -47 -59 -118 -101 -170l56 -28c42 50 87 118 104 164zM694 152l-44 48c-34 -31 -100 -77 -154 -107l43 -42c54 28 121 71 155 101zM746 545h-144c-72 0 -98 -14 -105 -61c-44 28 -91 51 -139 73c-10 -15 -31 -44 -46 -58c64 -26 126 -56 183 -92
v-202h68v155c97 -74 176 -166 230 -273l65 23c-71 135 -174 246 -295 331v9c0 25 7 30 45 30h131c33 0 39 -14 42 -107c16 11 44 22 64 26c-9 117 -29 146 -99 146zM390 219l61 24c-17 60 -44 136 -82 182l-60 -33c36 -43 65 -115 81 -173zM273 225l-53 47
c-24 -42 -78 -109 -123 -157l51 -40c45 46 101 109 125 150zM241 779l74 -60c7 18 18 46 27 59c-142 118 -166 139 -180 158v1c-7 -15 -27 -42 -40 -54c18 -13 48 -47 48 -95v-364h-125v-69h196v424zM445 657v199h89v-199h-89zM682 657h-91v199h91v-199zM830 657h-91v199h91
v-199zM890 597v259h63v60h-640v-60h74v-259h503z" />
</svg>
