<?xml version="1.0" standalone="no"?>
<!DOCTYPE svg PUBLIC "-//W3C//DTD SVG 1.1//EN" "http://www.w3.org/Graphics/SVG/1.1/DTD/svg11.dtd" >
<svg xmlns="http://www.w3.org/2000/svg" xmlns:xlink="http://www.w3.org/1999/xlink" version="1.1" viewBox="-10 0 1010 1000">
   <path fill="currentColor"
d="M283 230l-54 47c-26 -44 -84 -111 -132 -159l50 -41c49 46 108 111 136 153zM257 793l92 -63c5 18 15 46 23 60c-154 111 -178 130 -193 149c-7 -17 -24 -47 -37 -60c18 -12 46 -41 46 -85v-367h-140v-71h209v437zM426 439h153v-49h-153v49zM579 297h-153v48h153v-48z
M635 250v283c0 28 -5 40 -25 49c-19 8 -50 8 -96 8c-2 -14 -10 -32 -17 -46c33 1 62 1 70 0c10 0 12 -3 12 -11v-49h-153v111h-57v-345h266zM371 640h545s-1 21 -2 31c-12 161 -23 225 -47 250c-16 18 -35 24 -62 25c-24 2 -73 2 -124 -1c-1 -20 -8 -46 -19 -63
c49 4 96 4 113 4c16 1 26 0 34 -8c14 -15 23 -61 32 -177h-219c-23 129 -85 211 -260 257c-8 -17 -25 -43 -39 -56c155 -36 207 -100 228 -201h-180v-61zM712 499v-237h57v237h-57zM909 236v296c0 33 -7 47 -31 56c-23 9 -60 9 -115 9c-3 -16 -12 -36 -19 -53
c41 2 78 2 88 1c12 0 15 -3 15 -13v-296h62zM784 144h172v56h-620v-56h167c-11 -25 -31 -60 -51 -85l61 -20c22 28 47 66 58 91l-40 14h183c22 -32 48 -74 61 -104l69 17c-19 30 -40 61 -60 87z" />
</svg>
