<?xml version="1.0" standalone="no"?>
<!DOCTYPE svg PUBLIC "-//W3C//DTD SVG 1.1//EN" "http://www.w3.org/Graphics/SVG/1.1/DTD/svg11.dtd" >
<svg xmlns="http://www.w3.org/2000/svg" xmlns:xlink="http://www.w3.org/1999/xlink" version="1.1" viewBox="-10 0 1010 1000">
   <path fill="currentColor"
d="M495 190l-55 37c-22 -37 -71 -95 -114 -136l52 -32c44 39 94 93 117 131zM267 231l-56 41c-26 -43 -82 -111 -129 -159l54 -37c47 48 105 113 131 155zM224 775l65 -44c5 19 15 47 23 61c-126 94 -148 112 -159 127c-8 -15 -26 -39 -39 -51c17 -13 43 -45 43 -93v-348
h-110v-72h147v1h30v419zM315 954v-695h65v695h-65zM684 601l-32 -12c17 -33 37 -87 46 -121l38 12c-16 43 -35 90 -52 121zM508 479l36 -11c16 39 34 89 41 120l-37 13c-8 -32 -25 -83 -40 -122zM492 453v159h108v-159h-108zM745 612v-159h-98v159h98zM837 801l-40 39
c-29 -39 -87 -96 -143 -143v197h-60v-195c-47 63 -109 123 -163 158c-10 -14 -28 -35 -42 -45c59 -32 125 -90 172 -151h-116v-256h147v-65h-160v-54h160v-74h62v74h151v54h-151v65h140v256h-104c57 45 116 101 147 140zM921 94v776c0 41 -10 60 -35 71
c-27 11 -73 12 -142 12c-4 -17 -13 -45 -21 -63c52 2 101 2 115 1c15 0 20 -5 20 -20v-713h-342v-64h405z" />
</svg>
