<?xml version="1.0" standalone="no"?>
<!DOCTYPE svg PUBLIC "-//W3C//DTD SVG 1.1//EN" "http://www.w3.org/Graphics/SVG/1.1/DTD/svg11.dtd" >
<svg xmlns="http://www.w3.org/2000/svg" xmlns:xlink="http://www.w3.org/1999/xlink" version="1.1" viewBox="-10 0 1010 1000">
   <path fill="currentColor"
d="M285 225l-54 50c-28 -44 -89 -111 -138 -161l50 -42c50 46 113 111 142 153zM254 786l90 -62c6 20 17 49 25 63c-154 111 -181 130 -195 147c-6 -17 -23 -47 -36 -62c18 -11 46 -37 46 -80v-367h-137v-70h207v431zM794 618h-328v80h328v-80zM466 844h328v-90h-328v90z
M400 956v-397h463v394h-69v-53h-328v56h-66zM572 232v200h104v-200h-104zM743 432h215v63h-659v-63h206v-200h-170v-63h163c-16 -30 -42 -71 -66 -100l53 -27c31 34 63 80 77 111l-28 16h155c23 -39 49 -91 65 -127l64 24c-20 34 -43 72 -64 103h168v63h-179v200zM335 279
l49 -27c34 37 70 87 85 120l-51 32c-15 -34 -50 -87 -83 -125zM824 407l-47 -24c27 -34 61 -91 80 -130l58 28c-29 45 -63 93 -91 126z" />
</svg>
