<?xml version="1.0" standalone="no"?>
<!DOCTYPE svg PUBLIC "-//W3C//DTD SVG 1.1//EN" "http://www.w3.org/Graphics/SVG/1.1/DTD/svg11.dtd" >
<svg xmlns="http://www.w3.org/2000/svg" xmlns:xlink="http://www.w3.org/1999/xlink" version="1.1" viewBox="-10 0 1010 1000">
   <path fill="currentColor"
d="M950 260l-46 22c-13 -42 -42 -111 -67 -163l44 -17c26 51 56 119 69 158zM267 243l-57 40c-21 -44 -70 -116 -109 -168l53 -35c41 51 91 120 113 163zM581 714h-68v162h-49v-162h-69v-55h69v-89h-70v-53h90c18 -37 39 -91 51 -128l40 16c-14 38 -31 79 -45 112h50v53h-67
v89h68v55zM403 408l36 -14c18 28 35 66 41 90l-37 18c-7 -25 -24 -64 -40 -94zM943 386h-111c19 210 57 409 129 514c-15 11 -38 34 -50 52c-51 -85 -83 -212 -104 -359c-17 124 -50 250 -110 357c-9 -11 -28 -28 -44 -38c-4 6 -10 11 -17 14c-19 9 -49 10 -90 10
c-3 -15 -11 -37 -18 -51h61c10 0 13 -2 13 -12v-509h-227v588h-57v-157c-126 96 -149 116 -161 133v2c-7 -18 -25 -47 -37 -61c17 -11 42 -40 42 -84v-345h-111v-72h177v411l68 -50c5 15 14 38 22 53v-478h122c4 -26 7 -57 9 -88h-153v-65h159c2 -36 4 -72 5 -101l66 3
c-3 30 -6 65 -10 98h167v65h-174c-4 31 -8 62 -12 88h165v569c0 6 0 12 -1 17c82 -154 100 -348 104 -504h-83v-66h84v-41v-229h60v229v41h117v66z" />
</svg>
