<?xml version="1.0" standalone="no"?>
<!DOCTYPE svg PUBLIC "-//W3C//DTD SVG 1.1//EN" "http://www.w3.org/Graphics/SVG/1.1/DTD/svg11.dtd" >
<svg xmlns="http://www.w3.org/2000/svg" xmlns:xlink="http://www.w3.org/1999/xlink" version="1.1" viewBox="-10 0 1010 1000">
   <path fill="currentColor"
d="M558 167v64h121v-64h-121zM853 231v-64h-120v64h120zM951 328v55h-494v-55h214v-48h-172v-161h172v-67h69v67h174v161h-174v48h211zM828 479h-231v64h231v-64zM849 686h-252v75h252v-75zM893 593h-296v42h317v177h-384v-383h363v164zM436 291l-62 26
c-11 -51 -43 -133 -74 -196l59 -21c30 61 64 142 77 191zM280 235l-58 42c-24 -46 -80 -121 -125 -175l55 -34c46 52 102 123 128 167zM231 780l69 -56c6 17 18 44 26 56c-133 111 -156 131 -170 149c-7 -16 -24 -44 -37 -58c18 -13 46 -43 46 -88v-359h-115v-68h181v424z
M446 411v386c15 10 30 27 53 45c43 33 101 39 184 39c81 0 203 -4 281 -13c-7 19 -16 51 -17 70c-72 4 -203 8 -264 8c-91 0 -150 -12 -196 -47c-28 -25 -50 -50 -65 -50c-27 0 -71 48 -116 107l-43 -60c40 -41 81 -78 117 -95v-324h-91v-66h157z" />
</svg>
