<?xml version="1.0" standalone="no"?>
<!DOCTYPE svg PUBLIC "-//W3C//DTD SVG 1.1//EN" "http://www.w3.org/Graphics/SVG/1.1/DTD/svg11.dtd" >
<svg xmlns="http://www.w3.org/2000/svg" xmlns:xlink="http://www.w3.org/1999/xlink" version="1.1" viewBox="-10 0 1010 1000">
   <path fill="currentColor"
d="M310 215l-52 52c-31 -43 -97 -110 -150 -156l49 -44c54 43 121 107 153 148zM252 772l83 -63c7 19 20 48 29 61c-152 120 -178 140 -192 159c-9 -14 -31 -39 -45 -49c20 -16 55 -54 55 -106v-347h-135v-71h205v416zM836 787h-262v79h262v-79zM506 953v-214h400v209h-70
v-35h-262v40h-68zM509 694v-47h385v47h-385zM896 551v47h-385v-47h385zM653 387l53 -21c17 27 33 63 45 89h196v48h-479v-48h217c-10 -23 -21 -47 -32 -68zM621 276l52 36c-47 41 -104 83 -150 112l-44 -34c46 -29 107 -79 142 -114zM737 317l33 -40c61 31 127 72 166 106
l-39 44c-38 -35 -103 -78 -160 -110zM704 147h-177c-15 22 -32 44 -49 66h184c14 -20 29 -43 42 -66zM736 213h212v57h-493v199c0 143 -11 346 -85 486c-13 -10 -44 -23 -61 -28c73 -135 80 -324 80 -458v-164c-18 16 -37 32 -57 46c-9 -15 -29 -40 -43 -51
c106 -75 182 -178 221 -260l71 13c-6 14 -14 27 -22 41h179l11 -3l45 30c-16 31 -36 63 -58 92z" />
</svg>
