<?xml version="1.0" standalone="no"?>
<!DOCTYPE svg PUBLIC "-//W3C//DTD SVG 1.1//EN" "http://www.w3.org/Graphics/SVG/1.1/DTD/svg11.dtd" >
<svg xmlns="http://www.w3.org/2000/svg" xmlns:xlink="http://www.w3.org/1999/xlink" version="1.1" viewBox="-10 0 1010 1000">
   <path fill="currentColor"
d="M143 69l59 15c-26 87 -69 177 -114 236c-10 -10 -33 -30 -47 -40c44 -54 81 -134 102 -211zM257 620h-94v202h94v-202zM378 531l-47 37c-24 -50 -72 -127 -120 -193c-28 66 -62 130 -97 183h205v327h-156v59h-60v-371c-8 11 -15 20 -23 30c-9 -12 -33 -35 -47 -45
c65 -76 123 -190 157 -305l59 17c-5 15 -10 29 -15 44c55 69 117 160 144 217zM217 87l53 -18c36 66 75 155 91 208l-56 23c-15 -55 -53 -145 -88 -213zM457 646v120c37 -6 78 -13 119 -20v-100h-119zM576 327h-119v100h119v-100zM457 484v106h119v-106h-119zM686 785
l-50 10v163h-60v-151c-78 15 -153 30 -216 42l-13 -66l51 -8v-448h-37v-64h159c17 -32 34 -69 48 -100h-175v-63h209l8 -4l44 15c-20 48 -43 103 -66 152h90v64h-42v408l47 -9zM860 312h-100c-3 11 -5 22 -8 31c10 93 25 197 55 293c27 -94 43 -202 53 -324zM957 312h-35
c-14 162 -38 299 -82 414c32 71 73 134 129 180c-12 11 -33 36 -43 53c-48 -45 -87 -102 -116 -165c-32 63 -72 117 -122 164c-9 -12 -34 -35 -48 -46c61 -51 105 -117 138 -194c-30 -85 -49 -174 -61 -259c-10 30 -22 59 -35 84c-11 -12 -31 -33 -44 -43
c60 -123 89 -316 103 -455l64 11c-8 59 -19 125 -32 192h184v64z" />
</svg>
