<?xml version="1.0" standalone="no"?>
<!DOCTYPE svg PUBLIC "-//W3C//DTD SVG 1.1//EN" "http://www.w3.org/Graphics/SVG/1.1/DTD/svg11.dtd" >
<svg xmlns="http://www.w3.org/2000/svg" xmlns:xlink="http://www.w3.org/1999/xlink" version="1.1" viewBox="-10 0 1010 1000">
   <path fill="currentColor"
d="M160 359v63h111v-63h-111zM271 133h-111v63h111v-63zM416 312v-70h-256v70h256zM831 154h-211c23 62 58 118 103 164c46 -44 84 -99 108 -164zM501 449v26h-409v-394h398v52h-155v63h147v163h-147v63h166v24c62 -18 122 -47 174 -86c-49 -54 -88 -119 -115 -193l48 -13
h-84v-61h336l11 -3l42 15c-28 107 -78 191 -143 256c51 40 111 70 178 89c-15 13 -34 39 -44 56c-70 -22 -131 -57 -183 -101c-55 44 -119 76 -186 99c-8 -17 -21 -41 -34 -55zM98 577v-53h810v53h-810zM646 795h-284c18 24 35 56 43 77l-23 8h226l-15 -5
c18 -23 39 -54 53 -80zM265 669v78h471v-78h-471zM698 795l22 7c-19 29 -38 56 -55 78h281v57h-890v-57h278c-10 -24 -26 -53 -42 -76l32 -9h-132v-174h620v174h-114z" />
</svg>
