<?xml version="1.0" standalone="no"?>
<!DOCTYPE svg PUBLIC "-//W3C//DTD SVG 1.1//EN" "http://www.w3.org/Graphics/SVG/1.1/DTD/svg11.dtd" >
<svg xmlns="http://www.w3.org/2000/svg" xmlns:xlink="http://www.w3.org/1999/xlink" version="1.1" viewBox="-10 0 1010 1000">
   <path fill="currentColor"
d="M617 172l-61 29c-16 -33 -50 -88 -78 -128l57 -25c29 38 64 91 82 124zM405 112v64h-352v-64h352zM304 486v-149h-159v149h159zM371 278v268h-290v-268h290zM191 773l-60 16c-6 -50 -22 -127 -38 -186l57 -13c18 59 35 135 41 183zM418 769l5 63c-132 27 -270 56 -370 75
l-15 -67c53 -9 122 -22 197 -36c22 -63 44 -156 55 -222l67 15c-17 63 -36 137 -56 195zM599 614h81v-85h-81v85zM599 391v80h81v-80h-81zM599 260v74h81v-74h-81zM836 391h-96v80h96v-80zM836 614v-85h-96v85h96zM894 670h-129c50 85 127 170 196 214c-14 12 -34 36 -43 52
c-61 -46 -128 -124 -178 -207v229h-60v-288h-81v289h-59v-220c-36 84 -86 160 -137 206c-11 -14 -30 -38 -42 -50c59 -45 118 -134 155 -225h-98v-56h122v-85h-135v-58h135v-80h-119v-57h119v-74h-134v-58h284c32 -44 72 -109 93 -156l64 30c-28 42 -60 88 -88 126h177v58
h-196v74h154v137h61v58h-61v141z" />
</svg>
