<?xml version="1.0" standalone="no"?>
<!DOCTYPE svg PUBLIC "-//W3C//DTD SVG 1.1//EN" "http://www.w3.org/Graphics/SVG/1.1/DTD/svg11.dtd" >
<svg xmlns="http://www.w3.org/2000/svg" xmlns:xlink="http://www.w3.org/1999/xlink" version="1.1" viewBox="-10 0 1010 1000">
   <path fill="currentColor"
d="M332 448l-12 11c50 184 35 393 -13 450c-25 32 -52 43 -94 45c-17 0 -45 -1 -71 -3c0 -20 -5 -46 -15 -66c27 3 56 4 71 4c22 0 38 -2 53 -25c22 -28 36 -121 30 -229c-60 72 -139 139 -215 179c-6 -17 -21 -46 -33 -62c87 -39 185 -121 239 -204
c-5 -34 -12 -67 -21 -101c-49 57 -116 114 -176 150c-6 -17 -21 -46 -33 -60c66 -31 144 -94 188 -151c-12 -30 -25 -57 -42 -81c-32 28 -69 53 -104 73c-6 -14 -23 -47 -34 -63c68 -34 136 -86 183 -146h-183v-66h401v66h-143c-21 33 -47 66 -76 95c29 38 52 84 70 134
c35 -42 74 -96 98 -137l61 36c-30 37 -63 79 -94 114c38 45 76 104 91 145l-47 28c-14 -38 -45 -93 -79 -136zM860 357v-127h-305v127h305zM924 419h-369c-3 156 -21 366 -122 522c-10 -15 -32 -37 -49 -48c102 -152 107 -374 107 -513v-211h35v-1h164
c-13 -31 -31 -70 -48 -99l56 -20c20 38 47 87 59 119h167v251zM671 878h192c30 0 37 -11 40 -111c17 9 37 18 56 22c-8 136 -30 156 -97 156h-190c-83 0 -119 -31 -119 -86c0 -39 9 -86 244 -282h-212v-62h297l14 -1l44 22c-3 5 -6 10 -9 13c-290 229 -313 272 -313 302
c0 19 21 27 53 27z" />
</svg>
