<?xml version="1.0" standalone="no"?>
<!DOCTYPE svg PUBLIC "-//W3C//DTD SVG 1.1//EN" "http://www.w3.org/Graphics/SVG/1.1/DTD/svg11.dtd" >
<svg xmlns="http://www.w3.org/2000/svg" xmlns:xlink="http://www.w3.org/1999/xlink" version="1.1" viewBox="-10 0 1010 1000">
   <path fill="currentColor"
d="M317 458h364c-27 -24 -52 -52 -74 -80h-210c-24 28 -51 55 -80 80zM938 378h-249c70 74 175 133 283 161c-15 14 -36 41 -46 59c-82 -25 -160 -69 -226 -123v41h-149c-16 13 -33 24 -52 35c36 32 63 68 80 105c58 -32 125 -77 166 -112l54 40c-33 23 -73 47 -111 68
c81 65 172 147 220 204l-51 41c-46 -58 -141 -147 -224 -215c-12 7 -24 13 -36 18c32 99 11 198 -48 234c-31 21 -52 24 -96 25c-23 -1 -49 -1 -78 -4c-2 -20 -10 -47 -24 -67c36 5 68 6 91 6c26 0 47 0 64 -14c29 -19 43 -72 33 -133c-105 77 -269 143 -418 171
c-7 -17 -21 -39 -34 -52c163 -22 343 -91 437 -172c-6 -14 -13 -30 -23 -45c-90 59 -237 113 -362 136c-8 -14 -20 -34 -33 -47c130 -16 285 -68 367 -127c-8 -11 -19 -21 -30 -30c-84 37 -184 63 -275 81c-7 -12 -24 -36 -36 -48c119 -18 247 -49 333 -98h-182v-30
c-60 47 -132 88 -215 120c-8 -19 -28 -46 -42 -59c114 -43 205 -102 275 -169h-235v-63h292c17 -22 33 -45 47 -68h-273v-62h142c-12 -30 -38 -72 -61 -103l60 -25c27 32 56 77 68 105l-47 23h143c22 -48 37 -96 46 -144l76 10c-10 45 -24 90 -43 134h140
c23 -35 51 -85 67 -121l67 23c-19 33 -42 69 -63 98h137v62h-378c-12 23 -25 45 -41 68h493v63z" />
</svg>
