<?xml version="1.0" standalone="no"?>
<!DOCTYPE svg PUBLIC "-//W3C//DTD SVG 1.1//EN" "http://www.w3.org/Graphics/SVG/1.1/DTD/svg11.dtd" >
<svg xmlns="http://www.w3.org/2000/svg" xmlns:xlink="http://www.w3.org/1999/xlink" version="1.1" viewBox="-10 0 1010 1000">
   <path fill="currentColor"
d="M470 710l-46 27c-17 -51 -53 -119 -94 -184c24 156 7 309 -31 356c-24 32 -50 43 -90 45c-16 0 -43 -1 -68 -3c-1 -20 -5 -46 -15 -66c26 3 53 4 69 4c20 0 36 -2 51 -25c22 -28 35 -122 29 -231c-58 72 -136 140 -209 182c-6 -18 -19 -47 -31 -63
c85 -40 179 -122 231 -205c-5 -33 -12 -67 -20 -100c-47 56 -112 114 -170 149c-6 -16 -21 -45 -33 -59c63 -32 140 -94 182 -153c-12 -28 -24 -55 -40 -80c-33 28 -67 54 -101 74c-5 -14 -23 -47 -33 -63c65 -34 132 -86 177 -146h-163v-66h359v66h-124
c-20 33 -46 66 -74 95c28 38 50 84 68 133c33 -42 72 -96 94 -136l58 36c-39 52 -86 111 -126 152c63 83 124 189 150 261zM448 160v-69h248v69h-81v288h81v70h-82c-4 154 -32 315 -151 433c-12 -14 -39 -34 -56 -44c109 -107 133 -255 137 -389h-123v-70h124v-288h-97z
M952 448v70h-84v439h-70v-439h-82v-70h82v-288h-84v-69h236v69h-82v288h84z" />
</svg>
