<?xml version="1.0" standalone="no"?>
<!DOCTYPE svg PUBLIC "-//W3C//DTD SVG 1.1//EN" "http://www.w3.org/Graphics/SVG/1.1/DTD/svg11.dtd" >
<svg xmlns="http://www.w3.org/2000/svg" xmlns:xlink="http://www.w3.org/1999/xlink" version="1.1" viewBox="-10 0 1010 1000">
   <path fill="currentColor"
d="M76 588v-159h850v153h-68v-99h-716v105h-66zM732 335v-70h-459v70h459zM200 219h609v162h-609v-162zM805 599l46 45c-41 21 -90 42 -140 61c43 85 122 151 226 179c-15 13 -34 38 -42 55c-109 -36 -191 -113 -238 -214c-23 8 -45 15 -66 22c25 76 10 149 -34 179
c-28 22 -51 28 -88 28c-19 0 -45 -1 -70 -2c-1 -17 -8 -44 -19 -61c30 3 58 3 78 3s38 0 52 -12c26 -16 37 -63 21 -117c-104 84 -269 148 -418 177c-8 -15 -24 -36 -36 -48c161 -27 340 -92 435 -175c-7 -12 -15 -25 -25 -37c-88 61 -232 112 -351 135
c-8 -13 -23 -32 -33 -43c125 -19 275 -66 356 -123c-10 -9 -20 -19 -32 -28c-87 37 -191 64 -280 83c-5 -11 -21 -37 -30 -47c97 -15 208 -42 294 -76h-210v-50h597v50h-287c-9 5 -19 10 -29 16c38 29 67 63 87 99c80 -28 175 -67 236 -99zM562 114h378v58h-878v-58h415
c-9 -21 -20 -42 -31 -60l72 -17c16 23 33 52 44 77z" />
</svg>
