<?xml version="1.0" standalone="no"?>
<!DOCTYPE svg PUBLIC "-//W3C//DTD SVG 1.1//EN" "http://www.w3.org/Graphics/SVG/1.1/DTD/svg11.dtd" >
<svg xmlns="http://www.w3.org/2000/svg" xmlns:xlink="http://www.w3.org/1999/xlink" version="1.1" viewBox="-10 0 1010 1000">
   <path fill="currentColor"
d="M892 48l40 58c-127 36 -329 58 -495 67c-3 -17 -10 -42 -18 -59c163 -11 363 -35 473 -66zM830 318l-51 -19c26 -40 59 -106 76 -150l60 21c-27 52 -59 109 -85 148zM731 288l-59 24c-8 -34 -30 -89 -53 -130l56 -21c23 40 48 93 56 127zM557 303l-59 25
c-9 -34 -32 -88 -57 -128l57 -20c24 38 50 90 59 123zM403 556l-42 27c-12 -37 -38 -91 -68 -135l-10 11c43 184 31 393 -11 450c-21 32 -46 43 -82 45c-15 0 -39 -1 -62 -3c0 -20 -3 -46 -12 -66c23 3 48 4 61 4c20 0 33 -2 47 -25c19 -28 31 -121 25 -231
c-52 73 -122 140 -187 182c-5 -18 -18 -47 -29 -63c77 -39 161 -122 208 -204c-4 -34 -10 -69 -18 -101c-43 56 -101 114 -152 149c-6 -17 -19 -45 -30 -60c57 -31 126 -94 163 -153c-10 -28 -22 -55 -35 -78c-29 28 -60 53 -91 72c-5 -13 -20 -47 -31 -62
c60 -35 119 -86 159 -146h-157v-66h341v66h-117c-18 33 -42 65 -66 95c24 38 45 84 61 134c30 -42 65 -96 84 -137l53 36c-25 37 -54 78 -81 114c33 46 65 103 79 145zM957 750h-229c41 78 121 126 243 144c-15 14 -32 40 -41 60c-128 -26 -209 -85 -255 -179
c-39 90 -114 147 -268 181c-6 -16 -23 -42 -35 -55c143 -29 208 -76 242 -151h-192v-62h210c4 -23 7 -46 10 -73c-151 14 -176 18 -195 26c-3 -13 -12 -45 -18 -63c23 -3 51 -16 87 -38c15 -9 44 -27 78 -51c-95 5 -115 8 -127 13c-3 -14 -13 -45 -19 -62
c15 -2 30 -11 49 -25c20 -13 86 -66 130 -121l54 33c-37 39 -79 76 -120 106l114 -4c35 -26 71 -57 104 -88l47 42c-79 68 -163 130 -248 180l249 -20c-20 -27 -43 -53 -64 -76l50 -28c53 54 111 128 134 180l-53 33c-7 -17 -17 -37 -31 -56l-182 16h29c-2 27 -6 52 -10 76
h257v62z" />
</svg>
