<?xml version="1.0" standalone="no"?>
<!DOCTYPE svg PUBLIC "-//W3C//DTD SVG 1.1//EN" "http://www.w3.org/Graphics/SVG/1.1/DTD/svg11.dtd" >
<svg xmlns="http://www.w3.org/2000/svg" xmlns:xlink="http://www.w3.org/1999/xlink" version="1.1" viewBox="-10 0 1010 1000">
   <path fill="currentColor"
d="M433 555l-45 28c-13 -37 -42 -91 -74 -134l-11 11c46 183 33 392 -12 449c-24 32 -49 43 -88 45c-15 0 -42 -1 -65 -3c-1 -20 -6 -46 -15 -66c25 3 52 4 66 4c20 0 36 -2 50 -25c21 -28 34 -122 28 -232c-56 73 -131 141 -202 183c-6 -18 -20 -48 -31 -63
c83 -40 174 -123 225 -205c-5 -33 -12 -68 -20 -100c-46 56 -109 114 -164 149c-7 -17 -22 -45 -32 -60c61 -31 136 -93 176 -152c-11 -28 -25 -55 -39 -79c-32 28 -65 53 -98 73c-6 -14 -22 -47 -33 -63c65 -34 129 -86 172 -146h-171v-66h375v66h-133
c-20 33 -45 66 -72 96c27 38 49 83 66 133c33 -42 69 -96 92 -137l57 37c-28 38 -58 78 -87 113c35 45 69 104 85 144zM605 655l62 13c-25 82 -63 165 -103 221c-12 -9 -40 -25 -55 -32c41 -52 75 -129 96 -202zM641 453v86h209v-86h-209zM641 316v84h209v-84h-209zM913 595
h-135v291c0 32 -6 49 -28 60c-21 10 -53 11 -98 11c-3 -18 -15 -43 -24 -60c33 1 63 1 71 0c10 0 13 -2 13 -11v-291h-132v-336h115c7 -32 14 -71 19 -103h-181v294c0 149 -11 363 -86 503c-11 -12 -40 -32 -53 -39c68 -134 73 -323 73 -463v-360h475v65h-153
c-10 34 -21 72 -29 103h153v336zM814 671l54 -19c40 66 82 154 97 209l-58 21c-14 -55 -55 -145 -93 -211z" />
</svg>
