<?xml version="1.0" standalone="no"?>
<!DOCTYPE svg PUBLIC "-//W3C//DTD SVG 1.1//EN" "http://www.w3.org/Graphics/SVG/1.1/DTD/svg11.dtd" >
<svg xmlns="http://www.w3.org/2000/svg" xmlns:xlink="http://www.w3.org/1999/xlink" version="1.1" viewBox="-10 0 1010 1000">
   <path fill="currentColor"
d="M775 278l-37 58c-9 -16 -29 -45 -46 -71c-22 64 -49 121 -84 166c-10 -10 -33 -31 -46 -40c65 -82 98 -206 114 -344l60 8c-6 51 -15 100 -26 146c22 25 56 64 65 77zM513 52l62 18c-32 80 -84 173 -140 234c-9 -13 -28 -35 -41 -45c50 -55 96 -141 119 -207zM345 254
l57 33c-34 54 -74 114 -108 159c59 67 118 157 142 216l-47 39c-15 -37 -42 -85 -74 -133c19 152 3 298 -34 342c-23 33 -49 43 -88 45c-15 0 -42 -1 -65 -2c-1 -19 -6 -46 -16 -64c25 3 52 4 66 4c20 0 34 -3 49 -25c22 -28 35 -130 28 -247c-51 69 -119 136 -183 177
c-8 -17 -25 -43 -39 -57c79 -41 166 -129 212 -212c-5 -29 -11 -59 -19 -88c-42 55 -99 110 -148 145c-10 -15 -27 -38 -42 -50c59 -33 130 -99 169 -160c-10 -24 -22 -48 -35 -69c-28 30 -58 57 -88 79c-10 -13 -35 -37 -48 -49c66 -44 129 -106 174 -175h-158v-67h370v67
h-139c-20 35 -45 69 -71 100c25 35 46 76 62 121c27 -42 56 -91 73 -129zM813 656v219c15 3 31 4 48 4c16 0 84 0 107 -1c-8 17 -17 47 -20 65h-93c-92 0 -163 -28 -210 -152c-16 69 -41 126 -82 169c-7 -13 -25 -33 -39 -45v41h-62v-459c-17 24 -35 46 -53 66
c-8 -13 -25 -36 -37 -49c62 -67 117 -175 144 -261l62 17c-14 40 -33 82 -54 123v513c73 -82 84 -220 87 -407h60c-1 58 -3 112 -7 162c18 98 48 154 85 184v-427h20c-9 -11 -30 -31 -43 -39c68 -76 97 -194 110 -332l59 6c-5 57 -14 109 -25 158c37 51 77 111 97 151
l-43 45c-17 -34 -46 -82 -75 -127c-19 54 -44 100 -77 138h41v175h126v63h-126z" />
</svg>
