<?xml version="1.0" standalone="no"?>
<!DOCTYPE svg PUBLIC "-//W3C//DTD SVG 1.1//EN" "http://www.w3.org/Graphics/SVG/1.1/DTD/svg11.dtd" >
<svg xmlns="http://www.w3.org/2000/svg" xmlns:xlink="http://www.w3.org/1999/xlink" version="1.1" viewBox="-10 0 1010 1000">
   <path fill="currentColor"
d="M957 266v56h-119v66h-63v-66h-191v66h-61v-66h-111v-56h111v-70h61v70h191v-70h63v70h119zM535 683v66h292v-66h-292zM535 568v66h292v-66h-292zM535 456v64h292v-64h-292zM466 799v-393h433v393h-433zM647 246v-76h-195v-56h195v-71h63v71h208v56h-208v76h-63zM441 652
l-45 42c-16 -36 -46 -84 -80 -130c21 153 5 302 -32 347c-22 33 -49 44 -89 45c-15 0 -41 -1 -64 -2c-1 -18 -6 -47 -16 -65c24 3 51 3 65 3c20 0 34 -3 48 -25c21 -27 34 -124 27 -235c-51 69 -118 136 -183 177c-8 -16 -25 -41 -39 -56c80 -42 167 -129 212 -212
c-4 -30 -10 -60 -18 -88c-41 55 -99 111 -149 146c-10 -16 -27 -39 -42 -50c59 -34 131 -101 170 -162c-10 -25 -21 -48 -35 -70c-29 32 -61 60 -92 83c-9 -12 -34 -38 -47 -48c67 -44 131 -109 176 -180h-160v-62h367v62h-134c-20 34 -43 68 -69 99c27 35 48 78 64 124
c28 -43 57 -92 75 -130l57 34c-34 53 -75 112 -109 157c58 60 117 141 142 196zM573 804l64 23c-53 50 -138 100 -208 130c-12 -12 -39 -35 -54 -46c72 -26 150 -65 198 -107zM726 834l51 -33c68 40 145 89 190 124l-66 30c-40 -34 -111 -82 -175 -121z" />
</svg>
