<?xml version="1.0" standalone="no"?>
<!DOCTYPE svg PUBLIC "-//W3C//DTD SVG 1.1//EN" "http://www.w3.org/Graphics/SVG/1.1/DTD/svg11.dtd" >
<svg xmlns="http://www.w3.org/2000/svg" xmlns:xlink="http://www.w3.org/1999/xlink" version="1.1" viewBox="-10 0 1010 1000">
   <path fill="currentColor"
d="M344 50l39 46c-71 52 -193 96 -304 123c-7 -16 -21 -39 -34 -53c109 -25 232 -71 299 -116zM393 218l41 42c-33 37 -76 73 -124 105c125 175 116 475 50 543c-25 29 -48 38 -87 39c-17 0 -46 -1 -71 -2c-1 -20 -6 -48 -15 -68c29 4 57 5 73 5c21 0 36 -3 52 -21
c23 -24 38 -103 33 -197c-75 77 -182 155 -271 200c-8 -16 -24 -40 -38 -53c103 -44 233 -136 301 -220c-5 -26 -11 -53 -18 -78c-66 58 -161 121 -237 159c-7 -16 -22 -41 -35 -54c82 -33 192 -98 252 -158c-11 -23 -23 -45 -36 -65c-55 34 -115 63 -175 89
c-8 -15 -22 -38 -35 -50c33 -13 68 -29 101 -47c-16 -37 -44 -87 -72 -125l50 -25c29 37 59 86 75 122c25 -15 49 -30 72 -46c-12 -31 -36 -75 -57 -109l48 -25c21 29 44 69 57 99c25 -20 48 -40 66 -60zM704 464h-141v188h141v-188zM767 715h-204v60h-63v-374h267v314z
M587 205h345s-1 29 -1 38c-12 473 -22 625 -56 672c-20 27 -39 36 -69 40c-27 3 -72 2 -117 0c-1 -21 -8 -52 -21 -72c48 4 91 4 111 4c15 0 25 -3 34 -17c26 -32 37 -185 48 -597h-303c-29 64 -64 121 -100 167c-13 -11 -43 -35 -60 -46c74 -84 132 -215 164 -351l72 17
c-13 50 -29 98 -47 145z" />
</svg>
