<?xml version="1.0" standalone="no"?>
<!DOCTYPE svg PUBLIC "-//W3C//DTD SVG 1.1//EN" "http://www.w3.org/Graphics/SVG/1.1/DTD/svg11.dtd" >
<svg xmlns="http://www.w3.org/2000/svg" xmlns:xlink="http://www.w3.org/1999/xlink" version="1.1" viewBox="-10 0 1010 1000">
   <path fill="currentColor"
d="M517 260v122h-62v-185h204c-11 -39 -29 -85 -47 -123l59 -20c25 44 47 101 57 143h204v185h-64v-122h-351zM336 50l39 46c-71 52 -190 96 -299 123c-7 -16 -22 -40 -33 -53c106 -25 227 -71 293 -116zM375 218l42 42c-35 40 -80 77 -131 113c130 174 119 469 51 536
c-26 28 -50 38 -90 39c-18 0 -48 -1 -74 -3c-1 -19 -6 -46 -16 -66c30 3 59 5 76 5c22 0 37 -3 54 -22c23 -23 40 -100 35 -193c-70 72 -164 143 -244 186c-8 -17 -24 -42 -36 -54c92 -41 207 -126 272 -205c-5 -26 -12 -53 -19 -79c-60 54 -143 110 -209 145
c-8 -16 -24 -41 -36 -54c73 -31 169 -89 224 -143c-11 -22 -22 -42 -35 -62c-49 30 -101 57 -153 80c-8 -14 -24 -37 -35 -49c33 -13 65 -30 98 -48c-15 -36 -44 -86 -69 -124l48 -26c27 37 57 85 72 121c26 -16 49 -31 72 -48c-13 -31 -34 -74 -55 -105l48 -26
c20 28 40 65 54 95c21 -19 40 -37 56 -55zM588 367l63 10c-31 249 -89 452 -198 579c-13 -17 -36 -42 -52 -55c103 -110 159 -309 187 -534zM728 363l60 -9c18 236 62 446 173 537c-15 13 -36 39 -47 59c-119 -110 -164 -325 -186 -587z" />
</svg>
