<?xml version="1.0" standalone="no"?>
<!DOCTYPE svg PUBLIC "-//W3C//DTD SVG 1.1//EN" "http://www.w3.org/Graphics/SVG/1.1/DTD/svg11.dtd" >
<svg xmlns="http://www.w3.org/2000/svg" xmlns:xlink="http://www.w3.org/1999/xlink" version="1.1" viewBox="-10 0 1010 1000">
   <path fill="currentColor"
d="M346 50l42 45c-74 52 -198 96 -312 124c-8 -16 -23 -39 -37 -53c112 -26 238 -72 307 -116zM416 214l45 43c-42 42 -97 83 -159 119c134 175 124 465 52 532c-28 28 -54 38 -96 39c-20 0 -51 -1 -79 -3c-1 -19 -7 -46 -16 -66c30 3 62 5 79 5c24 0 41 -3 58 -22
c25 -23 43 -100 37 -191c-74 71 -172 142 -256 184c-9 -16 -25 -40 -40 -54c97 -41 219 -124 287 -203c-5 -26 -12 -53 -21 -80c-62 54 -148 111 -217 144c-9 -16 -25 -40 -39 -53c76 -31 176 -89 234 -143c-11 -20 -22 -40 -36 -59c-55 30 -113 56 -171 79
c-9 -15 -25 -37 -38 -49c38 -14 77 -31 114 -48c-17 -38 -47 -88 -77 -127l53 -26c30 37 61 88 78 124c29 -15 57 -32 84 -48c-14 -34 -38 -77 -62 -111l52 -24c22 29 46 68 61 99c28 -20 52 -41 73 -61zM844 607h-287v231h287v-231zM487 957v-416h430v412h-73v-48h-287v52
h-70zM464 91h469s-1 22 -1 32c-6 224 -13 305 -35 332c-15 19 -31 26 -58 29c-22 2 -64 3 -107 0c-1 -21 -9 -50 -20 -68c41 4 80 5 95 5c14 0 23 -2 30 -12c13 -15 19 -80 24 -251h-163c-22 147 -76 273 -234 346c-9 -17 -30 -42 -44 -53c141 -60 186 -171 205 -293h-161
v-67z" />
</svg>
