<?xml version="1.0" standalone="no"?>
<!DOCTYPE svg PUBLIC "-//W3C//DTD SVG 1.1//EN" "http://www.w3.org/Graphics/SVG/1.1/DTD/svg11.dtd" >
<svg xmlns="http://www.w3.org/2000/svg" xmlns:xlink="http://www.w3.org/1999/xlink" version="1.1" viewBox="-10 0 1010 1000">
   <path fill="currentColor"
d="M362 50l42 46c-77 52 -207 96 -323 122c-8 -15 -24 -39 -37 -52c114 -25 246 -71 318 -116zM403 217l45 42c-37 40 -85 78 -139 112c139 176 128 471 55 538c-28 28 -55 38 -98 39c-19 0 -51 -1 -79 -3c-2 -19 -7 -46 -17 -66c31 3 63 5 80 5c25 0 42 -3 59 -22
c26 -23 44 -101 38 -194c-75 72 -178 144 -266 187c-8 -17 -25 -41 -40 -54c101 -41 228 -126 297 -206c-6 -26 -13 -52 -21 -78c-65 53 -155 111 -227 145c-8 -16 -25 -40 -38 -54c78 -30 182 -90 242 -144c-11 -22 -23 -41 -37 -61c-53 30 -110 57 -166 81
c-9 -15 -25 -38 -39 -50c36 -13 73 -30 108 -48c-17 -37 -47 -87 -75 -125l53 -25c29 36 60 84 77 120c27 -15 54 -32 78 -49c-14 -31 -37 -72 -60 -103l53 -26c21 28 43 64 57 92c23 -17 43 -35 60 -53zM549 335v124h289v-124h-289zM838 153h-289v120h289v-120zM909 556
l47 52c-50 42 -117 86 -173 119c47 70 109 126 186 158c-16 15 -38 43 -47 64c-152 -76 -242 -227 -289 -425h-84v321l173 -43c-1 19 1 49 4 65c-215 59 -245 71 -263 84c-6 -18 -21 -54 -33 -72c18 -9 50 -31 50 -70v-722h426v437h-210c14 54 33 104 57 150
c53 -35 117 -82 156 -118z" />
</svg>
