<?xml version="1.0" standalone="no"?>
<!DOCTYPE svg PUBLIC "-//W3C//DTD SVG 1.1//EN" "http://www.w3.org/Graphics/SVG/1.1/DTD/svg11.dtd" >
<svg xmlns="http://www.w3.org/2000/svg" xmlns:xlink="http://www.w3.org/1999/xlink" version="1.1" viewBox="-10 0 1010 1000">
   <path fill="currentColor"
d="M366 50l40 47c-72 51 -193 96 -303 122c-8 -15 -22 -39 -35 -53c108 -24 231 -70 298 -116zM405 218l43 42c-35 39 -81 77 -132 111c130 175 120 471 52 538c-27 28 -51 38 -92 39c-19 0 -48 -1 -75 -3c-1 -19 -6 -46 -16 -66c29 3 59 5 76 5c23 0 39 -3 55 -22
c24 -23 40 -101 35 -193c-71 72 -167 144 -248 186c-8 -17 -23 -41 -37 -54c94 -41 211 -126 277 -205c-5 -27 -12 -53 -20 -80c-60 54 -144 111 -212 145c-8 -15 -23 -40 -36 -53c74 -31 171 -91 227 -145c-10 -20 -22 -41 -35 -60c-49 30 -102 56 -155 80
c-8 -15 -24 -37 -36 -49c33 -14 67 -30 100 -48c-15 -37 -44 -86 -70 -124l50 -25c27 36 57 84 73 119c25 -15 48 -30 71 -47c-12 -31 -33 -73 -55 -105l49 -25c20 27 40 65 54 93c22 -17 41 -36 57 -54zM625 295l48 -29c36 41 71 98 86 136l-50 33
c-15 -39 -50 -98 -84 -140zM577 466h242v-228h-242v228zM955 466v67h-72v341c0 38 -8 57 -32 68c-24 12 -61 14 -125 14c-3 -19 -12 -47 -21 -64c44 1 85 1 97 0c13 -1 17 -5 17 -19v-340h-242c-3 138 -25 310 -119 424c-11 -12 -37 -34 -52 -41c88 -108 104 -257 107 -383
h-66v-67h66v-295h124c17 -40 35 -90 43 -127l75 14c-17 39 -35 79 -50 113h178v295h72zM775 743l-52 30c-17 -49 -59 -123 -100 -176l49 -28c43 52 85 124 103 174z" />
</svg>
