<?xml version="1.0" standalone="no"?>
<!DOCTYPE svg PUBLIC "-//W3C//DTD SVG 1.1//EN" "http://www.w3.org/Graphics/SVG/1.1/DTD/svg11.dtd" >
<svg xmlns="http://www.w3.org/2000/svg" xmlns:xlink="http://www.w3.org/1999/xlink" version="1.1" viewBox="-10 0 1010 1000">
   <path fill="currentColor"
d="M354 47l45 46c-78 57 -207 107 -326 139c-8 -16 -24 -39 -38 -53c118 -30 247 -81 319 -132zM404 215l48 43c-40 43 -94 84 -154 121c142 176 131 472 58 539c-28 29 -54 38 -97 39c-20 0 -50 -1 -80 -2c0 -20 -5 -47 -16 -66c32 3 63 4 80 4c25 0 42 -2 59 -21
c26 -23 44 -102 37 -195c-74 71 -175 142 -261 185c-8 -16 -26 -42 -41 -55c100 -40 225 -126 292 -205c-5 -25 -12 -52 -21 -77c-62 54 -150 110 -219 145c-9 -16 -25 -41 -39 -54c76 -31 177 -90 235 -144c-11 -22 -24 -43 -39 -62c-51 28 -106 55 -161 76
c-9 -13 -25 -36 -39 -50c37 -15 74 -31 112 -50c-18 -38 -46 -85 -76 -122l51 -24c30 36 60 80 78 118c25 -15 50 -30 73 -45c-14 -34 -37 -73 -61 -105l49 -24c23 28 45 64 60 95c28 -21 51 -42 72 -64zM536 393v112h304v-112h-304zM536 224v110h304v-110h-304zM814 878h59
c21 0 24 -18 27 -127c14 12 42 22 60 27c-5 128 -22 161 -79 161h-78c-67 0 -82 -21 -82 -90v-282h-86c-11 190 -47 317 -202 390c-9 -18 -29 -46 -45 -58c139 -60 168 -167 177 -332h-100v-405h165c12 -38 22 -85 27 -120l85 12c-13 37 -26 76 -38 108h209v405h-123v283
c0 25 4 28 24 28z" />
</svg>
