<?xml version="1.0" standalone="no"?>
<!DOCTYPE svg PUBLIC "-//W3C//DTD SVG 1.1//EN" "http://www.w3.org/Graphics/SVG/1.1/DTD/svg11.dtd" >
<svg xmlns="http://www.w3.org/2000/svg" xmlns:xlink="http://www.w3.org/1999/xlink" version="1.1" viewBox="-10 0 1010 1000">
   <path fill="currentColor"
d="M761 421v-92h-510v92h510zM761 571v-93h-510v93h510zM761 722v-94h-510v94h510zM836 268v515h-657v-515h276v-225h75v81h387v63h-387v81h306zM347 796l71 32c-77 50 -199 101 -295 131c-12 -15 -40 -45 -56 -59c97 -23 212 -62 280 -104zM589 838l57 -41
c105 37 220 85 289 120l-76 42c-62 -35 -167 -83 -270 -121z" />
</svg>
