<?xml version="1.0" standalone="no"?>
<!DOCTYPE svg PUBLIC "-//W3C//DTD SVG 1.1//EN" "http://www.w3.org/Graphics/SVG/1.1/DTD/svg11.dtd" >
<svg xmlns="http://www.w3.org/2000/svg" xmlns:xlink="http://www.w3.org/1999/xlink" version="1.1" viewBox="-10 0 1010 1000">
   <path fill="currentColor"
d="M942 314l-66 43c-22 -23 -52 -52 -86 -81c-576 21 -632 23 -671 36c-3 -16 -14 -55 -23 -76c23 -2 51 -15 85 -33c37 -18 157 -87 247 -163l77 38c-74 56 -152 107 -229 147l434 -12c-39 -28 -80 -56 -117 -79l60 -38c101 60 226 151 289 218zM256 662v73h493v-73h-493z
M256 538v73h493v-73h-493zM256 416v71h493v-71h-493zM826 789h-644v-426h644v426zM366 791l68 45c-83 49 -217 97 -324 124c-11 -16 -36 -42 -52 -55c107 -24 242 -72 308 -114zM582 839l64 -48c102 31 234 81 310 116l-63 52c-74 -36 -207 -89 -311 -120z" />
</svg>
