<?xml version="1.0" standalone="no"?>
<!DOCTYPE svg PUBLIC "-//W3C//DTD SVG 1.1//EN" "http://www.w3.org/Graphics/SVG/1.1/DTD/svg11.dtd" >
<svg xmlns="http://www.w3.org/2000/svg" xmlns:xlink="http://www.w3.org/1999/xlink" version="1.1" viewBox="-10 0 1010 1000">
   <path fill="currentColor"
d="M832 350h-203c-104 0 -131 -20 -132 -92c-46 13 -93 26 -138 38c-4 -15 -15 -37 -24 -51c53 -14 108 -30 162 -46v-151h72v126c97 -35 184 -75 241 -118l57 44c-77 52 -183 97 -298 135v20c0 27 10 32 65 32h191c41 0 49 -11 54 -85c16 11 44 20 64 24
c-9 99 -31 124 -111 124zM255 678v70h501v-70h-501zM255 562v68h501v-68h-501zM255 446v68h501v-68h-501zM183 797v-401h647v401h-647zM229 369v-149c-42 28 -86 55 -127 75c-12 -13 -39 -40 -55 -52c109 -48 224 -123 293 -205l68 26c-31 35 -67 71 -107 102v203h-72z
M351 808l68 30c-81 48 -207 94 -306 121c-12 -15 -39 -42 -56 -56c102 -21 222 -57 294 -95zM595 845l49 -41c107 33 223 75 294 109l-65 43c-62 -33 -171 -76 -278 -111z" />
</svg>
