<?xml version="1.0" standalone="no"?>
<!DOCTYPE svg PUBLIC "-//W3C//DTD SVG 1.1//EN" "http://www.w3.org/Graphics/SVG/1.1/DTD/svg11.dtd" >
<svg xmlns="http://www.w3.org/2000/svg" xmlns:xlink="http://www.w3.org/1999/xlink" version="1.1" viewBox="-10 0 1010 1000">
   <path fill="currentColor"
d="M841 360h-177c-96 0 -120 -18 -120 -92v-225h70v110c86 -18 175 -41 228 -65l55 49c-76 30 -186 55 -283 72v58c0 27 8 32 56 32h165c34 0 41 -11 45 -79c16 11 44 21 64 25c-9 91 -29 115 -103 115zM252 678v70h501v-70h-501zM252 561v69h501v-69h-501zM252 446v67h501
v-67h-501zM181 797v-401h646v401h-646zM501 275v60c-161 15 -328 28 -445 37l-6 -64l73 -5v-210h63v206l91 -7v-249h68v89h148v59h-148v96zM350 807l67 32c-81 47 -206 93 -305 120c-13 -14 -38 -43 -55 -56c102 -21 222 -56 293 -96zM583 848l58 -39c110 34 229 77 302 109
l-76 40c-65 -32 -174 -74 -284 -110z" />
</svg>
