<?xml version="1.0" standalone="no"?>
<!DOCTYPE svg PUBLIC "-//W3C//DTD SVG 1.1//EN" "http://www.w3.org/Graphics/SVG/1.1/DTD/svg11.dtd" >
<svg xmlns="http://www.w3.org/2000/svg" xmlns:xlink="http://www.w3.org/1999/xlink" version="1.1" viewBox="-10 0 1010 1000">
   <path fill="currentColor"
d="M645 148v104h172v-104h-172zM414 148v104h167v-104h-167zM188 148v104h162v-104h-162zM120 90h768v220h-768v-220zM252 544v74h503v-74h-503zM252 667v77h503v-77h-503zM252 420v74h503v-74h-503zM179 368h652v428h-652v-428zM583 847l58 -41c113 35 235 79 311 112
l-78 40c-65 -32 -178 -76 -291 -111zM350 805l67 31c-82 49 -208 96 -309 123c-12 -14 -38 -43 -55 -56c104 -21 225 -58 297 -98z" />
</svg>
