<?xml version="1.0" standalone="no"?>
<!DOCTYPE svg PUBLIC "-//W3C//DTD SVG 1.1//EN" "http://www.w3.org/Graphics/SVG/1.1/DTD/svg11.dtd" >
<svg xmlns="http://www.w3.org/2000/svg" xmlns:xlink="http://www.w3.org/1999/xlink" version="1.1" viewBox="-10 0 1010 1000">
   <path fill="currentColor"
d="M320 274v-126h-165v126h165zM320 459v-127h-165v127h165zM320 647v-129h-165v129h165zM388 86v622h-300v-622h300zM140 727l69 16c-25 81 -67 162 -114 214c-12 -11 -41 -32 -58 -41c46 -47 83 -117 103 -189zM273 752l58 -26c29 38 58 88 72 121l-61 31
c-14 -35 -42 -87 -69 -126zM537 174v262h298v-262h-298zM812 880h63c21 0 25 -19 27 -127c14 13 43 24 63 29c-7 126 -25 161 -82 161h-82c-67 0 -83 -22 -83 -95v-344h-91c-10 212 -42 365 -203 451c-9 -17 -30 -43 -46 -56c146 -73 171 -207 180 -395h-91v-396h442v396
h-122v344c0 28 4 32 25 32z" />
</svg>
