<?xml version="1.0" standalone="no"?>
<!DOCTYPE svg PUBLIC "-//W3C//DTD SVG 1.1//EN" "http://www.w3.org/Graphics/SVG/1.1/DTD/svg11.dtd" >
<svg xmlns="http://www.w3.org/2000/svg" xmlns:xlink="http://www.w3.org/1999/xlink" version="1.1" viewBox="-10 0 1010 1000">
   <path fill="currentColor"
d="M352 810l67 30c-82 46 -208 91 -309 117c-11 -15 -37 -43 -53 -56c102 -19 224 -54 295 -91zM256 698v63h500v-63h-500zM577 363h-186c-15 26 -38 50 -71 71h447c-2 -11 -7 -23 -12 -32c30 3 57 4 68 4s18 -1 23 -7c5 -5 9 -15 12 -36h-211v69h-70v-69zM353 254h-138
c-3 21 -6 41 -9 60h132c9 -19 13 -39 15 -60zM423 148v57h154v-57h-154zM802 148h-155v57h155v-57zM577 314v-60h-156c-1 21 -4 41 -10 60h166zM756 544v-62h-500v62h500zM756 651v-61h-500v61h500zM830 809h-171c104 30 213 68 281 97l-56 46c-67 -31 -180 -73 -294 -107
l37 -36h-443v-317c-26 8 -56 15 -89 22c-7 -17 -23 -44 -35 -58c126 -23 199 -55 241 -93h-170c9 -44 19 -106 25 -158h199v-57h-244v-49h244v-55h68v55h154v-55h70v55h223v155h-223v60h285s-1 15 -2 24c-6 54 -12 83 -26 96c-13 12 -28 17 -48 18c-7 0 -16 1 -26 1v356z
" />
</svg>
