<?xml version="1.0" standalone="no"?>
<!DOCTYPE svg PUBLIC "-//W3C//DTD SVG 1.1//EN" "http://www.w3.org/Graphics/SVG/1.1/DTD/svg11.dtd" >
<svg xmlns="http://www.w3.org/2000/svg" xmlns:xlink="http://www.w3.org/1999/xlink" version="1.1" viewBox="-10 0 1010 1000">
   <path fill="currentColor"
d="M342 270v-126h-185v126h185zM342 456v-127h-185v127h185zM342 645v-130h-185v130h185zM413 82v623h-324v-623h324zM150 727l71 17c-29 80 -76 160 -125 213c-13 -12 -42 -33 -59 -43c48 -47 91 -116 113 -187zM285 752l59 -27c39 49 81 114 99 157l-63 32
c-17 -44 -57 -112 -95 -162zM837 842v-255h-287v255h287zM957 329h-241v192h193v431h-72v-43h-287v47h-70v-435h163v-477h73v217h241v68z" />
</svg>
