<?xml version="1.0" standalone="no"?>
<!DOCTYPE svg PUBLIC "-//W3C//DTD SVG 1.1//EN" "http://www.w3.org/Graphics/SVG/1.1/DTD/svg11.dtd" >
<svg xmlns="http://www.w3.org/2000/svg" xmlns:xlink="http://www.w3.org/1999/xlink" version="1.1" viewBox="-10 0 1010 1000">
   <path fill="currentColor"
d="M309 275v-122h-159v122h159zM309 456v-122h-159v122h159zM309 638v-124h-159v124h159zM376 91v608h-291v-608h291zM143 731l63 19c-30 64 -72 139 -106 188c-13 -10 -40 -27 -55 -35c35 -47 72 -113 98 -172zM256 759l51 -29c35 47 76 109 95 147l-54 34
c-18 -41 -59 -105 -92 -152zM815 620h-272v226h272v-226zM476 957v-404h409v402h-70v-42h-272v44h-67zM731 216l57 -30c70 87 144 202 176 280l-61 34c-9 -21 -21 -46 -35 -72c-368 28 -412 33 -439 45c-4 -16 -16 -51 -25 -71c19 -4 39 -28 62 -65
c25 -34 104 -168 153 -295l75 23c-52 114 -115 228 -178 318l315 -21c-31 -51 -66 -103 -100 -146z" />
</svg>
