<?xml version="1.0" standalone="no"?>
<!DOCTYPE svg PUBLIC "-//W3C//DTD SVG 1.1//EN" "http://www.w3.org/Graphics/SVG/1.1/DTD/svg11.dtd" >
<svg xmlns="http://www.w3.org/2000/svg" xmlns:xlink="http://www.w3.org/1999/xlink" version="1.1" viewBox="-10 0 1010 1000">
   <path fill="currentColor"
d="M459 350l-32 13c-6 -14 -15 -31 -26 -48c-215 61 -245 71 -265 85c-4 -17 -21 -43 -31 -57c15 -8 35 -25 35 -64v-177v-1c96 -11 214 -31 284 -53l35 56c-67 20 -161 35 -247 45v155l155 -41c-18 -24 -35 -47 -53 -68l57 -21c43 48 91 112 113 159
c98 -38 135 -99 151 -184h-138v-60h412s-1 20 -2 30c-11 146 -20 206 -43 228c-14 17 -31 22 -55 25c-22 1 -63 1 -106 -1c-1 -19 -9 -46 -19 -63c40 4 79 5 93 5c15 0 23 -2 30 -9c12 -13 21 -54 28 -155h-132c-20 121 -70 201 -210 249c-7 -13 -21 -34 -34 -48zM254 683
v68h501v-68h-501zM254 570v65h501v-65h-501zM254 456v66h501v-66h-501zM182 800v-394h647v394h-647zM352 816l67 30c-82 44 -208 86 -309 112c-11 -15 -37 -43 -53 -56c102 -19 223 -50 295 -86zM598 856l46 -42c107 29 221 67 292 97l-60 44c-64 -29 -171 -68 -278 -99z
" />
</svg>
