<?xml version="1.0" standalone="no"?>
<!DOCTYPE svg PUBLIC "-//W3C//DTD SVG 1.1//EN" "http://www.w3.org/Graphics/SVG/1.1/DTD/svg11.dtd" >
<svg xmlns="http://www.w3.org/2000/svg" xmlns:xlink="http://www.w3.org/1999/xlink" version="1.1" viewBox="-10 0 1010 1000">
   <path fill="currentColor"
d="M141 727l70 16c-26 82 -69 162 -116 215c-12 -12 -42 -33 -59 -42c47 -47 85 -117 105 -189zM270 752l58 -25c35 48 72 112 89 155l-62 29c-16 -42 -53 -110 -85 -159zM835 430h-248v91h248v-91zM587 677h248v-95h-248v95zM320 270v-126h-165v126h165zM320 456v-127h-165
v127h165zM320 645v-130h-165v130h165zM956 254h-338c-13 39 -28 75 -45 110h333v509c0 37 -8 58 -34 70c-27 11 -67 13 -131 13c-3 -20 -14 -50 -23 -69c46 2 88 2 100 1c13 0 17 -4 17 -16v-134h-248v218h-69v-496c-25 37 -53 71 -85 100c-8 -12 -29 -34 -45 -48v193h-300
v-623h300v416c67 -62 118 -145 155 -244h-130v-68h153c13 -45 24 -93 32 -142l73 10c-9 46 -19 90 -31 132h316v68z" />
</svg>
