<?xml version="1.0" standalone="no"?>
<!DOCTYPE svg PUBLIC "-//W3C//DTD SVG 1.1//EN" "http://www.w3.org/Graphics/SVG/1.1/DTD/svg11.dtd" >
<svg xmlns="http://www.w3.org/2000/svg" xmlns:xlink="http://www.w3.org/1999/xlink" version="1.1" viewBox="-10 0 1010 1000">
   <path fill="currentColor"
d="M787 332l67 22c-83 151 -229 294 -400 379c-7 -15 -27 -39 -40 -53c97 -46 186 -113 258 -188c-169 12 -197 17 -214 24c-3 -18 -12 -53 -17 -69c18 -4 44 -10 59 -28c19 -21 74 -114 106 -171h-178v-69h247c-9 -34 -28 -81 -47 -117l65 -19c23 39 47 93 54 128l-22 8
h225v69h-267c-33 56 -79 135 -114 190l156 -9c24 -31 45 -65 62 -97zM309 275v-122h-159v122h159zM309 456v-122h-159v122h159zM309 638v-124h-159v124h159zM376 91v608h-291v-608h291zM143 731l63 19c-30 64 -72 139 -106 188c-13 -10 -40 -27 -55 -35
c35 -47 72 -113 98 -172zM855 510l73 25c-40 73 -93 139 -157 200c67 56 143 128 183 175l-59 47c-36 -47 -109 -119 -175 -177c-91 74 -199 136 -320 179c-8 -16 -26 -40 -40 -56l-12 8c-18 -41 -59 -105 -92 -152l52 -29c34 47 75 109 94 147l-30 19
c222 -77 402 -221 483 -386z" />
</svg>
