<?xml version="1.0" standalone="no"?>
<!DOCTYPE svg PUBLIC "-//W3C//DTD SVG 1.1//EN" "http://www.w3.org/Graphics/SVG/1.1/DTD/svg11.dtd" >
<svg xmlns="http://www.w3.org/2000/svg" xmlns:xlink="http://www.w3.org/1999/xlink" version="1.1" viewBox="-10 0 1010 1000">
   <path fill="currentColor"
d="M317 274v-126h-164v126h164zM317 459v-127h-164v127h164zM317 647v-129h-164v129h164zM386 86v622h-301v-622h301zM139 727l69 16c-25 81 -68 162 -114 214c-12 -11 -42 -32 -59 -41c48 -47 84 -117 104 -189zM272 751l57 -26c30 40 61 93 76 129l-61 30
c-14 -36 -44 -92 -72 -133zM604 521h148v-196h-148v196zM957 521v70h-134v365h-71v-365h-149c-6 132 -34 263 -149 367c-13 -15 -40 -37 -59 -48c105 -92 131 -204 137 -319h-122v-70h123v-196h-112v-69h137c-12 -52 -48 -129 -84 -186l63 -23c39 57 77 133 90 185l-60 24
h219l-56 -21c30 -51 68 -134 87 -193l77 24c-32 65 -71 142 -102 190h145v69h-114v196h134z" />
</svg>
