<?xml version="1.0" standalone="no"?>
<!DOCTYPE svg PUBLIC "-//W3C//DTD SVG 1.1//EN" "http://www.w3.org/Graphics/SVG/1.1/DTD/svg11.dtd" >
<svg xmlns="http://www.w3.org/2000/svg" xmlns:xlink="http://www.w3.org/1999/xlink" version="1.1" viewBox="-10 0 1010 1000">
   <path fill="currentColor"
d="M578 193v-52h-163v52h163zM815 243h-168v73h168v-73zM415 243v73h163v-73h-163zM193 243v73h154v-73h-154zM347 193v-52h-280v-56h865v56h-285v52h238v174h-759v-174h221zM256 694v67h500v-67h-500zM256 578v68h500v-68h-500zM256 465v66h500v-66h-500zM830 811h-646
v-396h646v396zM355 823l67 30c-82 43 -208 85 -307 108c-12 -15 -38 -43 -54 -55c102 -18 222 -49 294 -83zM580 861l63 -37c110 28 229 68 302 96l-84 37c-62 -27 -169 -65 -281 -96z" />
</svg>
