<?xml version="1.0" standalone="no"?>
<!DOCTYPE svg PUBLIC "-//W3C//DTD SVG 1.1//EN" "http://www.w3.org/Graphics/SVG/1.1/DTD/svg11.dtd" >
<svg xmlns="http://www.w3.org/2000/svg" xmlns:xlink="http://www.w3.org/1999/xlink" version="1.1" viewBox="-10 0 1010 1000">
   <path fill="currentColor"
d="M462 364l-42 44c-34 -24 -93 -58 -147 -86c-32 50 -88 98 -185 135c-8 -14 -28 -38 -43 -50c112 -36 161 -88 182 -140h-157v-53h171c2 -13 2 -26 2 -38v-20h-146v-52h146v-61h68v61h157v52h-157v20c0 12 -1 25 -2 38h171v53h-182l-2 6c58 28 128 65 166 91zM355 823
l67 30c-82 43 -208 85 -307 108c-12 -15 -38 -43 -54 -55c102 -18 222 -49 294 -83zM580 861l63 -37c110 28 229 68 302 96l-84 37c-62 -27 -169 -65 -281 -96zM756 528v-66h-500v66h500zM756 645v-68h-500v68h500zM756 761v-67h-500v67h500zM930 267h-171
c44 55 117 97 201 116c-14 13 -34 37 -44 55c-86 -25 -159 -75 -207 -139c-27 43 -77 83 -166 112h287v401h-646v-401h344c-8 -14 -25 -35 -38 -47c93 -23 140 -59 162 -97h-143v-53h160c2 -10 2 -19 2 -28v-30h-146v-52h146v-61h68v61h172v52h-172v30c0 9 0 19 -1 28h192
v53z" />
</svg>
