<?xml version="1.0" standalone="no"?>
<!DOCTYPE svg PUBLIC "-//W3C//DTD SVG 1.1//EN" "http://www.w3.org/Graphics/SVG/1.1/DTD/svg11.dtd" >
<svg xmlns="http://www.w3.org/2000/svg" xmlns:xlink="http://www.w3.org/1999/xlink" version="1.1" viewBox="-10 0 1010 1000">
   <path fill="currentColor"
d="M352 818l67 30c-82 45 -208 87 -308 111c-12 -14 -37 -42 -54 -55c103 -19 223 -51 295 -86zM756 544v-62h-500v62h500zM756 651v-61h-500v61h500zM756 760v-62h-500v62h500zM830 434v374h-646v-374h646zM580 857l63 -37c109 29 228 70 301 99l-85 37
c-62 -28 -169 -66 -279 -99zM166 302v48h116v-48h-116zM282 119h-116v45h116v-45zM417 260v-53h-251v53h251zM876 79l40 19c-30 88 -79 154 -143 204c56 32 120 57 190 71c-16 14 -35 40 -45 58c-75 -19 -144 -50 -203 -91c-52 30 -111 51 -174 67c-6 -14 -24 -39 -37 -52
v42h-401v-325h394v47h-156v45h136v138h-136v48h163v1c57 -12 111 -29 158 -53c-43 -39 -79 -85 -105 -137l59 -19c24 46 59 88 103 122c46 -32 84 -73 111 -125h-302v-58h336z" />
</svg>
