<?xml version="1.0" standalone="no"?>
<!DOCTYPE svg PUBLIC "-//W3C//DTD SVG 1.1//EN" "http://www.w3.org/Graphics/SVG/1.1/DTD/svg11.dtd" >
<svg xmlns="http://www.w3.org/2000/svg" xmlns:xlink="http://www.w3.org/1999/xlink" version="1.1" viewBox="-10 0 1010 1000">
   <path fill="currentColor"
d="M461 197v-48h-385v-54h385v-52h73v52h391v54h-391v48h333v49h-723v-49h317zM815 400v-66h-171v66h171zM582 400v-66h-167v66h167zM353 400v-66h-162v66h162zM884 287v160h-759v-160h759zM256 728v56h500v-56h-500zM256 630v55h500v-55h-500zM256 534v52h500v-52h-500z
M830 829h-646v-341h646v341zM355 841l64 30c-85 34 -213 68 -313 86c-12 -13 -37 -40 -54 -52c106 -13 228 -37 303 -64zM580 881l64 -37c111 23 234 54 308 79l-85 37c-63 -23 -172 -54 -287 -79z" />
</svg>
