<?xml version="1.0" standalone="no"?>
<!DOCTYPE svg PUBLIC "-//W3C//DTD SVG 1.1//EN" "http://www.w3.org/Graphics/SVG/1.1/DTD/svg11.dtd" >
<svg xmlns="http://www.w3.org/2000/svg" xmlns:xlink="http://www.w3.org/1999/xlink" version="1.1" viewBox="-10 0 1010 1000">
   <path fill="currentColor"
d="M807 232l60 25c-34 40 -78 75 -128 107c40 33 84 52 125 51c27 0 34 -20 39 -84c13 12 35 23 53 27c-11 97 -36 122 -95 121c-64 0 -127 -30 -181 -81c-69 36 -146 66 -219 89c-9 -14 -31 -41 -44 -54c76 -19 154 -46 223 -80c-26 -34 -49 -73 -67 -116l-147 13l-7 -60
l133 -11c-13 -42 -21 -87 -25 -134h66c3 46 12 89 25 128l191 -16c-29 -22 -83 -51 -128 -67l35 -43c44 14 100 40 128 62l-35 48l124 -11l7 59l-299 26c16 34 36 64 57 90c43 -26 81 -56 109 -89zM823 522l-33 47c-29 -22 -85 -51 -132 -67l33 -44c46 15 103 42 132 64z
M320 270v-126h-165v126h165zM320 456v-127h-165v127h165zM320 645v-130h-165v130h165zM388 82v623h-300v-623h300zM141 727l70 16c-26 82 -69 162 -116 215c-12 -12 -42 -33 -59 -42c47 -47 85 -117 105 -189zM270 752l58 -25c34 45 70 106 87 146l-63 30
c-15 -41 -51 -104 -82 -151zM815 652l64 20c-37 58 -87 108 -145 150c41 46 87 72 132 71c27 0 36 -29 40 -106c14 12 37 22 55 28c-11 111 -37 141 -99 141c-67 0 -130 -36 -183 -97c-66 40 -140 72 -213 97c-9 -13 -31 -42 -45 -55c78 -23 154 -53 221 -92
c-29 -45 -53 -99 -71 -158l-147 13l-7 -61l138 -12c-8 -40 -14 -83 -17 -128h66c2 43 8 84 17 123l329 -28l7 58l-320 29c16 48 36 92 59 128c49 -35 90 -75 119 -121z" />
</svg>
