<?xml version="1.0" standalone="no"?>
<!DOCTYPE svg PUBLIC "-//W3C//DTD SVG 1.1//EN" "http://www.w3.org/Graphics/SVG/1.1/DTD/svg11.dtd" >
<svg xmlns="http://www.w3.org/2000/svg" xmlns:xlink="http://www.w3.org/1999/xlink" version="1.1" viewBox="-10 0 1010 1000">
   <path fill="currentColor"
d="M961 208l-53 29c-18 -37 -57 -92 -94 -132l51 -25c37 38 79 91 96 128zM683 121v61h-261v-61h261zM293 270v-127h-145v127h145zM293 456v-128h-145v128h145zM293 645v-130h-145v130h145zM359 81v625h-274v-625h274zM132 726l68 16c-23 81 -64 162 -110 215
c-11 -12 -40 -31 -56 -40c45 -48 80 -118 98 -191zM617 808l121 -25l6 59c-126 29 -261 59 -360 81l-21 -51l-42 20c-13 -39 -42 -98 -68 -142l55 -23c26 39 52 91 66 128l52 -9v-405h58v393l74 -14v-457h59v179h101v59h-101v207zM957 339h-156c11 302 39 524 88 526
c16 0 27 -57 33 -149c12 16 41 34 52 40c-19 157 -55 197 -87 197c-104 -2 -139 -252 -153 -614h-353v-63h351c-2 -72 -4 -148 -5 -226h69c0 78 1 154 3 226h158v63z" />
</svg>
