<?xml version="1.0" standalone="no"?>
<!DOCTYPE svg PUBLIC "-//W3C//DTD SVG 1.1//EN" "http://www.w3.org/Graphics/SVG/1.1/DTD/svg11.dtd" >
<svg xmlns="http://www.w3.org/2000/svg" xmlns:xlink="http://www.w3.org/1999/xlink" version="1.1" viewBox="-10 0 1010 1000">
   <path fill="currentColor"
d="M119 369v-53h764v53h-332v66c0 33 -8 48 -38 58c-31 10 -79 9 -157 9c-4 -17 -17 -38 -27 -54c62 2 114 2 129 1c16 -1 20 -4 20 -15v-65h-359zM227 221h550v51h-550v-51zM266 385l61 19c-53 50 -143 98 -217 126c-10 -10 -34 -34 -49 -44c75 -24 158 -61 205 -101z
M270 728v46h457v-46h-457zM270 639v45h457v-45h-457zM270 551v44h457v-44h-457zM801 819h-167c107 30 217 68 287 98l-55 41c-67 -31 -180 -71 -296 -105l37 -34h-234l55 35c-82 45 -218 85 -329 105c-8 -14 -27 -36 -40 -49c106 -18 238 -56 304 -91h-165v-313h603v313z
M659 413l53 -33c71 30 165 78 215 114l-56 37c-46 -34 -138 -85 -212 -118zM554 111h373v159h-71v-102h-712v102h-68v-159h395c-9 -21 -21 -43 -32 -62l71 -20c17 24 35 57 44 82z" />
</svg>
