<?xml version="1.0" standalone="no"?>
<!DOCTYPE svg PUBLIC "-//W3C//DTD SVG 1.1//EN" "http://www.w3.org/Graphics/SVG/1.1/DTD/svg11.dtd" >
<svg xmlns="http://www.w3.org/2000/svg" xmlns:xlink="http://www.w3.org/1999/xlink" version="1.1" viewBox="-10 0 1010 1000">
   <path fill="currentColor"
d="M291 275v-122h-144v122h144zM291 456v-123h-144v123h144zM291 638v-124h-144v124h144zM355 91v608h-271v-608h271zM132 731l60 19c-28 64 -70 139 -103 188c-12 -10 -38 -27 -54 -35c35 -47 73 -113 97 -172zM243 759l49 -29c34 47 75 109 93 147l-52 34
c-18 -41 -58 -105 -90 -152zM864 589l53 47c-43 36 -94 75 -138 105c55 63 120 114 188 145c-17 14 -38 41 -49 59c-133 -72 -251 -217 -316 -378h-68v289l151 -51c1 19 3 46 6 61c-173 62 -213 79 -233 92l-6 5c-5 -19 -16 -56 -28 -75c16 -6 40 -20 40 -56v-265h-65v-65
h87v-412h422v61h-351v78h312v56h-312v78h318v57h-318v82h396v65h-288c21 46 48 90 78 131c43 -33 90 -77 121 -109z" />
</svg>
