<?xml version="1.0" standalone="no"?>
<!DOCTYPE svg PUBLIC "-//W3C//DTD SVG 1.1//EN" "http://www.w3.org/Graphics/SVG/1.1/DTD/svg11.dtd" >
<svg xmlns="http://www.w3.org/2000/svg" xmlns:xlink="http://www.w3.org/1999/xlink" version="1.1" viewBox="-10 0 1010 1000">
   <path fill="currentColor"
d="M575 513h244c-25 -27 -54 -56 -82 -78l35 -19h-178c18 24 35 57 43 78zM751 605v-47h-500v47h500zM751 696v-48h-500v48h500zM751 788v-49h-500v49h500zM529 228v43h219v-43h-219zM529 135v44h219v-44h-219zM925 363v53h-121c44 36 90 82 114 115l-57 34
c-9 -14 -21 -29 -36 -45v313h-189c101 25 201 54 267 78l-33 49c-73 -29 -191 -65 -307 -94l21 -33h-193l32 17c-79 40 -204 85 -298 110c-7 -12 -24 -42 -35 -53c83 -18 186 -45 257 -74h-167v-320h166c-3 -24 -11 -58 -19 -84l63 -11c12 26 20 64 23 86l-46 9h205
c-7 -24 -24 -58 -41 -83l50 -14h-394l39 21c-32 43 -78 91 -131 123l-52 -39c48 -25 93 -69 123 -105h-106v-53h396v-43h-293v-49h293v-43h-387v-49h387v-44h-287v-48h287v-49h73v49h294v92h96v49h-96v92h-294v43h396z" />
</svg>
