<?xml version="1.0" standalone="no"?>
<!DOCTYPE svg PUBLIC "-//W3C//DTD SVG 1.1//EN" "http://www.w3.org/Graphics/SVG/1.1/DTD/svg11.dtd" >
<svg xmlns="http://www.w3.org/2000/svg" xmlns:xlink="http://www.w3.org/1999/xlink" version="1.1" viewBox="-10 0 1010 1000">
   <path fill="currentColor"
d="M138 377v140h99v-140h-99zM393 517v-140h-97v140h97zM464 738l-43 60c-23 -29 -78 -90 -121 -134v292h-67v-300c-46 89 -106 177 -165 228c-8 -20 -23 -49 -35 -66c64 -54 136 -150 180 -240h-135v-263h155v-91h-179v-66h179v-113h67v113h175v66h-175v91h156v263h-156v16
c41 32 140 120 164 144zM622 783l63 36c-45 52 -118 106 -180 138c-12 -13 -33 -35 -49 -48c63 -30 132 -83 166 -126zM839 448v-92h-247v92h247zM839 590v-94h-247v94h247zM839 732v-95h-247v95h247zM798 197h-163c-22 37 -49 74 -78 109h170c24 -31 50 -72 71 -109z
M909 306v476h-384v-440l-12 12c-14 -15 -41 -33 -60 -42c87 -81 149 -188 182 -269l76 13c-13 27 -27 55 -43 83h168l12 -3l50 32c-24 45 -58 96 -89 138h100zM755 823l50 -40c51 36 117 88 149 122l-53 46c-30 -35 -94 -91 -146 -128z" />
</svg>
