<?xml version="1.0" standalone="no"?>
<!DOCTYPE svg PUBLIC "-//W3C//DTD SVG 1.1//EN" "http://www.w3.org/Graphics/SVG/1.1/DTD/svg11.dtd" >
<svg xmlns="http://www.w3.org/2000/svg" xmlns:xlink="http://www.w3.org/1999/xlink" version="1.1" viewBox="-10 0 1010 1000">
   <path fill="currentColor"
d="M147 427v88h-66v-140h380v-224h-378v-51h378v-57h72v57h387v51h-387v224h387v140h-68v-88h-705zM347 293v-60h-136v60h136zM155 190h250v145h-250v-145zM647 233v60h140v-60h-140zM846 335h-256v-145h256v145zM258 709v50h481v-50h-481zM258 615v48h481v-48h-481z
M258 521v47h481v-47h-481zM814 807h-629v-334h629v334zM352 811l63 30c-83 46 -210 89 -311 115c-12 -13 -35 -40 -51 -53c104 -19 226 -54 299 -92zM577 847l57 -36c115 34 240 77 316 110l-77 36c-65 -32 -179 -74 -296 -110z" />
</svg>
