<?xml version="1.0" standalone="no"?>
<!DOCTYPE svg PUBLIC "-//W3C//DTD SVG 1.1//EN" "http://www.w3.org/Graphics/SVG/1.1/DTD/svg11.dtd" >
<svg xmlns="http://www.w3.org/2000/svg" xmlns:xlink="http://www.w3.org/1999/xlink" version="1.1" viewBox="-10 0 1010 1000">
   <path fill="currentColor"
d="M798 49l70 20c-23 42 -48 85 -68 114l-58 -18c19 -32 43 -83 56 -116zM520 162l-59 21c-8 -31 -30 -77 -55 -112l55 -18c26 33 50 78 59 109zM158 552h111v-171h-109v56c0 35 0 74 -2 115zM269 148h-109v165h109v-165zM332 80v790c0 36 -7 55 -30 67
c-22 11 -58 13 -115 13c-2 -18 -10 -47 -19 -65c39 2 74 2 85 1c12 0 16 -4 16 -17v-248h-114c-7 116 -24 240 -60 334c-11 -10 -39 -26 -54 -31c54 -142 58 -341 58 -487v-357h233zM527 829l63 20c-42 41 -116 81 -178 105c-11 -12 -36 -35 -51 -44c62 -21 129 -48 166 -81
zM706 859l50 -32c57 24 128 63 166 92l-54 36c-34 -30 -105 -71 -162 -96zM781 564v-53h-271v53h271zM781 667v-55h-271v55h271zM781 769v-55h-271v55h271zM727 382h-170c-18 28 -36 53 -57 77h281c-21 -24 -39 -50 -54 -77zM948 382h-150c40 55 100 103 165 126
c-16 13 -36 36 -46 54c-26 -12 -51 -27 -75 -46v305h-391v-312c-23 20 -46 38 -72 55c-7 -14 -30 -41 -44 -53c58 -33 105 -77 144 -129h-125v-58h162c14 -24 25 -50 36 -77h-171v-57h191c13 -45 25 -94 33 -147l66 8c-8 49 -18 96 -31 139h278v57h-296
c-10 27 -21 53 -34 77h360v58z" />
</svg>
