<?xml version="1.0" standalone="no"?>
<!DOCTYPE svg PUBLIC "-//W3C//DTD SVG 1.1//EN" "http://www.w3.org/Graphics/SVG/1.1/DTD/svg11.dtd" >
<svg xmlns="http://www.w3.org/2000/svg" xmlns:xlink="http://www.w3.org/1999/xlink" version="1.1" viewBox="-10 0 1010 1000">
   <path fill="currentColor"
d="M283 275v-122h-137v122h137zM283 456v-123h-137v123h137zM283 638v-124h-137v124h137zM346 91v608h-261v-608h261zM141 731l60 19c-28 64 -69 139 -103 188c-12 -10 -38 -27 -53 -35c35 -47 71 -113 96 -172zM237 759l50 -28c27 36 58 84 74 113l-53 32
c-14 -31 -46 -81 -71 -117zM448 73l61 -26c27 39 59 91 74 124l-65 31c-14 -33 -45 -88 -70 -129zM576 614h100v-85h-100v85zM576 391v80h100v-80h-100zM576 260v74h100v-74h-100zM826 391h-87v80h87v-80zM826 614v-85h-87v85h87zM888 670h-125c51 81 128 163 196 205
c-14 13 -35 35 -46 52c-58 -43 -123 -118 -174 -197v225h-63v-285h-100v286h-62v-212c-37 75 -84 144 -132 186c-11 -17 -32 -41 -46 -53c57 -42 115 -124 154 -207h-103v-56h127v-85h-148v-58h148v-80h-123v-57h123v-74h-134v-58h301c33 -44 74 -109 95 -156l69 30
c-30 42 -62 88 -92 126h173v58h-187v74h149v137h68v58h-68v141z" />
</svg>
