<?xml version="1.0" standalone="no"?>
<!DOCTYPE svg PUBLIC "-//W3C//DTD SVG 1.1//EN" "http://www.w3.org/Graphics/SVG/1.1/DTD/svg11.dtd" >
<svg xmlns="http://www.w3.org/2000/svg" xmlns:xlink="http://www.w3.org/1999/xlink" version="1.1" viewBox="-10 0 1010 1000">
   <path fill="currentColor"
d="M387 412l-22 -57c48 -21 117 -54 187 -89v-128h-172v-58h238v332h-66v-90c-58 33 -118 65 -165 90zM510 241l-39 40c-19 -24 -58 -57 -89 -78l37 -38c30 19 70 50 91 76zM264 277v-125h-130v125h130zM264 462v-127h-130v127h130zM264 647v-127h-130v127h130zM317 90v619
h-234v-619h234zM115 727l56 23c-19 69 -52 154 -84 205c-11 -11 -32 -26 -46 -34c33 -49 62 -133 74 -194zM257 750l46 -22c25 50 50 114 60 157l-50 25c-10 -43 -33 -110 -56 -160zM817 714l63 23c-83 115 -251 184 -453 219c-8 -16 -24 -38 -37 -52
c192 -28 353 -90 427 -190zM642 554l54 21c-51 59 -135 113 -212 147c-10 -12 -28 -28 -43 -37c75 -29 157 -80 201 -131zM729 639l56 23c-69 74 -187 134 -302 170c-10 -12 -25 -30 -39 -41c109 -30 225 -88 285 -152zM681 400l14 11c-6 8 -12 16 -19 24
c94 75 191 116 277 146c-12 17 -25 45 -31 68c-86 -37 -180 -86 -281 -175c-77 77 -177 139 -270 178c-6 -16 -17 -43 -29 -58c113 -44 242 -125 313 -216l4 4l-12 -32c47 -21 116 -55 186 -89v-123h-180v-58h246v350h-66v-113c-54 30 -108 59 -152 83zM787 243l-39 40
c-19 -23 -58 -57 -89 -78l36 -37c31 18 70 49 92 75z" />
</svg>
