<?xml version="1.0" standalone="no"?>
<!DOCTYPE svg PUBLIC "-//W3C//DTD SVG 1.1//EN" "http://www.w3.org/Graphics/SVG/1.1/DTD/svg11.dtd" >
<svg xmlns="http://www.w3.org/2000/svg" xmlns:xlink="http://www.w3.org/1999/xlink" version="1.1" viewBox="-10 0 1010 1000">
   <path fill="currentColor"
d="M631 439h-147v94h147v-94zM860 439h-159v94h159v-94zM502 269h129v-91h-129v91zM837 178h-136v91h136v-91zM420 588v-203h211v-62h-192v-199h192v-79h70v79h202v199h-202v62h222v1h1v202h-223v52h-41c43 29 86 68 109 97l-49 39c-28 -35 -86 -86 -136 -119l47 -36v-33
h-211zM298 271v-128h-149v128h149zM298 457v-128h-149v128h149zM298 645v-129h-149v129h149zM364 81v626h-279v-626h279zM133 728l66 15c-25 79 -65 161 -106 214c-13 -11 -41 -30 -57 -39c41 -49 77 -121 97 -190zM250 748l56 -23c29 44 61 102 74 139l-58 27
c-13 -39 -45 -99 -72 -143zM427 938l-57 -31c39 -48 64 -129 77 -195l58 17c-14 72 -38 156 -78 209zM640 886h104c27 0 31 -10 34 -98c14 11 42 21 61 26c-7 109 -27 135 -87 135h-120c-76 0 -94 -20 -94 -88v-156h66v155c0 22 5 26 36 26zM807 718l57 -22
c47 62 89 148 102 206l-61 25c-12 -59 -53 -146 -98 -209z" />
</svg>
