<?xml version="1.0" standalone="no"?>
<!DOCTYPE svg PUBLIC "-//W3C//DTD SVG 1.1//EN" "http://www.w3.org/Graphics/SVG/1.1/DTD/svg11.dtd" >
<svg xmlns="http://www.w3.org/2000/svg" xmlns:xlink="http://www.w3.org/1999/xlink" version="1.1" viewBox="-10 0 1010 1000">
   <path fill="currentColor"
d="M190 819l59 22c-42 43 -111 90 -166 118c-9 -12 -31 -37 -45 -48c55 -23 115 -58 152 -92zM376 589v-44h-199v44h199zM376 679v-46h-199v46h199zM376 768v-46h-199v46h199zM445 500v314h-335v-314h335zM310 847l51 -33c38 29 84 67 110 94l-61 33
c-24 -28 -66 -67 -100 -94zM625 818l62 23c-45 43 -116 90 -175 118c-11 -12 -35 -35 -49 -46c59 -24 123 -60 162 -95zM612 722v46h208v-46h-208zM612 633v46h208v-46h-208zM612 545v44h208v-44h-208zM266 290v45h469v-45h-469zM266 205v44h469v-44h-469zM266 120v43h469
v-43h-469zM890 814h-77c53 35 111 78 146 111l-62 32c-30 -33 -85 -78 -134 -111l47 -32h-266v-314h318c-64 -29 -172 -64 -285 -94l46 -29h-258l43 20c-78 40 -200 79 -294 102c-11 -14 -35 -41 -51 -52c89 -16 193 -41 263 -70h-132v-299h616v299h-149
c103 27 212 60 278 86l-73 37h24v314z" />
</svg>
