<?xml version="1.0" standalone="no"?>
<!DOCTYPE svg PUBLIC "-//W3C//DTD SVG 1.1//EN" "http://www.w3.org/Graphics/SVG/1.1/DTD/svg11.dtd" >
<svg xmlns="http://www.w3.org/2000/svg" xmlns:xlink="http://www.w3.org/1999/xlink" version="1.1" viewBox="-10 0 1010 1000">
   <path fill="currentColor"
d="M675 204v-54h-195v-51h195v-55h65v55h206v51h-206v54h177v49h-410v-49h168zM541 338v98h79v-98h-79zM877 436v-98h-89v98h89zM665 436h78v-98h-78v98zM487 479v-184h446v184h-446zM205 474v-265h48v266c0 171 -18 345 -161 478c-8 -12 -25 -30 -36 -39
c71 -66 109 -142 129 -222c-85 34 -104 42 -116 53c-4 -15 -14 -44 -22 -58c13 -6 35 -23 35 -59v-480c60 -31 126 -75 162 -111l52 45c-47 36 -108 73 -166 101v470l66 -24c7 -51 9 -103 9 -155zM199 513l-35 10c-4 -52 -17 -129 -30 -189l33 -7c14 60 28 135 32 186z
M334 331l32 -8c17 59 35 135 43 187v-310h-75v131zM458 133v561c0 31 -4 53 -21 66c-16 13 -40 14 -74 14c-2 -19 -8 -50 -17 -70c26 1 47 1 54 0c7 0 9 -2 9 -11v-176l-35 11c-7 -50 -24 -125 -40 -185v614h-47v-824h171zM574 724v46h268v-46h-268zM574 645v43h268v-43
h-268zM574 566v43h268v-43h-268zM903 815h-124c66 28 138 64 182 88l-30 53c-45 -26 -118 -66 -184 -96l24 -45h-144l47 43c-64 35 -144 75 -203 102c-6 -15 -18 -37 -28 -52c54 -23 134 -63 179 -93h-107v-293h388v293z" />
</svg>
