<?xml version="1.0" standalone="no"?>
<!DOCTYPE svg PUBLIC "-//W3C//DTD SVG 1.1//EN" "http://www.w3.org/Graphics/SVG/1.1/DTD/svg11.dtd" >
<svg xmlns="http://www.w3.org/2000/svg" xmlns:xlink="http://www.w3.org/1999/xlink" version="1.1" viewBox="-10 0 1010 1000">
   <path fill="currentColor"
d="M449 235v94h-65v-150h110c-11 -28 -33 -66 -55 -93l57 -21c25 30 51 71 62 99l-40 15h107v-133h71v133h61c21 -33 47 -80 60 -113l70 22c-20 30 -42 64 -62 91h121v150h-68v-94h-429zM493 708v52h341v-52h-341zM493 616v51h341v-51h-341zM493 524v51h341v-51h-341z
M422 807v-329h485v329h-485zM786 391v-61h-245v61h245zM474 285h381v150h-381v-150zM275 271v-128h-140v128h140zM275 457v-128h-140v128h140zM275 645v-129h-140v129h140zM333 81v626h-254v-626h254zM137 727l57 24c-24 70 -63 156 -100 206c-12 -11 -34 -28 -48 -35
c40 -49 75 -133 91 -195zM225 752l49 -25c27 47 54 109 67 150l-52 28c-12 -41 -38 -106 -64 -153zM563 813l57 35c-59 42 -150 82 -232 108c-11 -15 -30 -35 -45 -48c81 -22 171 -62 220 -95zM703 852l40 -41c78 30 163 69 214 102l-50 44c-47 -32 -127 -74 -204 -105z" />
</svg>
