<?xml version="1.0" standalone="no"?>
<!DOCTYPE svg PUBLIC "-//W3C//DTD SVG 1.1//EN" "http://www.w3.org/Graphics/SVG/1.1/DTD/svg11.dtd" >
<svg xmlns="http://www.w3.org/2000/svg" xmlns:xlink="http://www.w3.org/1999/xlink" version="1.1" viewBox="-10 0 1010 1000">
   <path fill="currentColor"
d="M913 338l-67 39c-12 -17 -27 -36 -44 -56c-564 20 -619 23 -659 36c-4 -17 -16 -56 -24 -76c21 -4 44 -19 73 -41c33 -22 130 -104 205 -195l71 46c-62 66 -130 129 -198 180l473 -13c-44 -45 -95 -91 -141 -128l63 -34c89 70 196 171 248 242zM830 763h-76v-258h-480
v258h-74v-324h630v324zM461 572h77c-22 238 -96 341 -460 385c-4 -18 -21 -47 -33 -63c341 -35 399 -118 416 -322zM528 805l42 -51c133 42 272 100 356 146l-55 54c-79 -48 -210 -105 -343 -149z" />
</svg>
