<?xml version="1.0" standalone="no"?>
<!DOCTYPE svg PUBLIC "-//W3C//DTD SVG 1.1//EN" "http://www.w3.org/Graphics/SVG/1.1/DTD/svg11.dtd" >
<svg xmlns="http://www.w3.org/2000/svg" xmlns:xlink="http://www.w3.org/1999/xlink" version="1.1" viewBox="-10 0 1010 1000">
   <path fill="currentColor"
d="M532 580v72c0 97 -35 225 -403 310c-8 -17 -31 -45 -48 -59c350 -72 375 -179 375 -253v-70h76zM796 792h-76v-239h-446v243h-73v-312h595v308zM526 820l38 -53c112 38 268 97 352 135l-41 61c-78 -39 -234 -101 -349 -143zM579 69l60 -27c71 81 207 165 321 206
c-17 14 -39 41 -51 59c-49 -20 -104 -51 -156 -86c-1 6 -1 17 -2 24c-13 110 -26 158 -49 178c-16 15 -36 20 -63 21c-26 1 -76 0 -129 -3c-1 -16 -8 -38 -18 -53c50 5 98 5 116 5c17 0 27 -1 34 -8c12 -11 23 -42 32 -109h-196c-51 125 -179 181 -340 213
c-6 -18 -24 -48 -38 -63c139 -20 254 -60 295 -150h-159v-39c-43 28 -87 53 -131 72c-13 -14 -40 -40 -57 -52c119 -46 236 -120 300 -212l69 25c-39 55 -92 104 -151 146h480c-64 -44 -124 -96 -167 -147z" />
</svg>
