<?xml version="1.0" standalone="no"?>
<!DOCTYPE svg PUBLIC "-//W3C//DTD SVG 1.1//EN" "http://www.w3.org/Graphics/SVG/1.1/DTD/svg11.dtd" >
<svg xmlns="http://www.w3.org/2000/svg" xmlns:xlink="http://www.w3.org/1999/xlink" version="1.1" viewBox="-10 0 1010 1000">
   <path fill="currentColor"
d="M844 132l-54 36c-23 -27 -71 -67 -110 -94l52 -34c39 26 88 65 112 92zM208 438v-183c-37 34 -75 64 -113 89c-10 -14 -37 -40 -53 -52c101 -58 202 -150 261 -249l66 23c-24 41 -56 82 -89 119v253h-72zM807 783h-76v-244h-463v247h-73v-316h612v313zM533 581v69
c0 93 -38 218 -404 303c-8 -17 -31 -45 -48 -59c352 -70 375 -175 375 -246v-67h77zM521 812l38 -53c114 34 266 95 346 139l-40 61c-75 -44 -227 -108 -344 -147zM945 230l-319 25c57 76 135 122 211 121c30 0 39 -20 43 -86c16 14 39 25 58 31c-11 99 -38 123 -103 123
c-113 0 -221 -70 -289 -183l-200 16l-7 -61l176 -14c-19 -47 -33 -99 -38 -156h71c5 56 21 107 42 151l349 -27z" />
</svg>
