<?xml version="1.0" standalone="no"?>
<!DOCTYPE svg PUBLIC "-//W3C//DTD SVG 1.1//EN" "http://www.w3.org/Graphics/SVG/1.1/DTD/svg11.dtd" >
<svg xmlns="http://www.w3.org/2000/svg" xmlns:xlink="http://www.w3.org/1999/xlink" version="1.1" viewBox="-10 0 1010 1000">
   <path fill="currentColor"
d="M134 162v534h-57v-601h330v598h-59v-531h-214zM269 236v267c0 147 -18 339 -190 459c-8 -15 -27 -38 -42 -51c159 -103 172 -282 172 -409v-266h60zM259 769l42 -41c49 50 109 120 136 164l-44 48c-27 -46 -85 -119 -134 -171zM965 465l-60 33c-8 -20 -19 -43 -31 -68
c-360 27 -403 32 -430 43c-4 -16 -16 -51 -24 -71c19 -4 39 -28 64 -65c27 -34 111 -168 163 -295l75 23c-54 115 -121 229 -188 319l303 -19c-30 -52 -65 -106 -99 -150l56 -29c69 87 140 201 171 279zM841 621h-286v225h286v-225zM487 958v-404h426v401h-72v-42h-286v45
h-68z" />
</svg>
