<?xml version="1.0" standalone="no"?>
<!DOCTYPE svg PUBLIC "-//W3C//DTD SVG 1.1//EN" "http://www.w3.org/Graphics/SVG/1.1/DTD/svg11.dtd" >
<svg xmlns="http://www.w3.org/2000/svg" xmlns:xlink="http://www.w3.org/1999/xlink" version="1.1" viewBox="-10 0 1010 1000">
   <path fill="currentColor"
d="M145 164v524h-61v-592h306v575h-62v-507h-183zM266 244v275c0 141 -16 327 -192 436c-9 -14 -27 -35 -42 -47c160 -93 174 -268 174 -389v-275h60zM245 748l48 -34c49 54 110 130 138 177l-50 39c-27 -48 -86 -127 -136 -182zM512 754l43 -48c93 56 214 139 272 195
l-46 56c-57 -58 -174 -145 -269 -203zM775 632l-45 49c-36 -38 -110 -98 -167 -140l43 -42c58 39 133 97 169 133zM540 288v27h314v-153h-314v126zM921 382h-131c36 130 98 253 175 317c-17 12 -38 36 -50 52c-84 -77 -151 -220 -188 -369h-190c-7 123 -31 269 -97 376
c-13 -11 -43 -30 -60 -37c81 -129 91 -308 91 -433v-193h450v287z" />
</svg>
