<?xml version="1.0" standalone="no"?>
<!DOCTYPE svg PUBLIC "-//W3C//DTD SVG 1.1//EN" "http://www.w3.org/Graphics/SVG/1.1/DTD/svg11.dtd" >
<svg xmlns="http://www.w3.org/2000/svg" xmlns:xlink="http://www.w3.org/1999/xlink" version="1.1" viewBox="-10 0 1010 1000">
   <path fill="currentColor"
d="M463 636h73c-26 203 -110 284 -455 320c-4 -18 -20 -45 -30 -60c322 -28 390 -90 412 -260zM812 799h-74v-202h-480v206h-72v-267h626v263zM530 825l37 -47c131 39 269 91 354 132l-47 51c-81 -42 -212 -94 -344 -136zM731 186l58 15c-10 22 -22 43 -35 62
c48 26 107 60 139 83l-43 42c-30 -22 -82 -55 -129 -82c-30 35 -65 66 -99 90c-10 -12 -32 -32 -46 -43c65 -38 125 -99 155 -167zM921 121v57h-387v223h387v139h-69v-81h-705v81h-67v-139h381v-223h-378v-57h378v-75h73v75h387zM270 188l58 15c-10 22 -22 42 -37 63
c49 25 106 59 138 81l-43 42c-29 -22 -81 -55 -127 -81c-31 35 -66 66 -100 89c-10 -11 -32 -32 -46 -42c66 -39 126 -100 157 -167z" />
</svg>
