<?xml version="1.0" standalone="no"?>
<!DOCTYPE svg PUBLIC "-//W3C//DTD SVG 1.1//EN" "http://www.w3.org/Graphics/SVG/1.1/DTD/svg11.dtd" >
<svg xmlns="http://www.w3.org/2000/svg" xmlns:xlink="http://www.w3.org/1999/xlink" version="1.1" viewBox="-10 0 1010 1000">
   <path fill="currentColor"
d="M890 802h-66v-250h-233v250h-64v-318h363v318zM525 368l40 -50c140 23 287 61 376 94l-52 53c-85 -34 -223 -71 -364 -97zM260 160v180h-74v-241h625v238h-77v-177h-474zM451 208h76c-25 161 -114 220 -440 246c-4 -18 -20 -44 -31 -59c301 -18 373 -60 395 -187z
M456 803h-67v-250h-213v250h-64v-318h344v318zM256 604h56c-3 215 -34 293 -227 339c-5 -14 -21 -36 -34 -47c179 -38 202 -98 205 -292zM679 603h56c-3 213 -34 293 -223 339c-4 -11 -14 -26 -25 -38l-56 40c-31 -35 -86 -83 -135 -119l46 -38c50 33 103 75 137 108
c175 -38 197 -99 200 -292zM722 824l48 -37c65 40 136 92 178 131l-60 37c-38 -37 -106 -91 -166 -131z" />
</svg>
