<?xml version="1.0" standalone="no"?>
<!DOCTYPE svg PUBLIC "-//W3C//DTD SVG 1.1//EN" "http://www.w3.org/Graphics/SVG/1.1/DTD/svg11.dtd" >
<svg xmlns="http://www.w3.org/2000/svg" xmlns:xlink="http://www.w3.org/1999/xlink" version="1.1" viewBox="-10 0 1010 1000">
   <path fill="currentColor"
d="M553 663h68c-28 171 -114 253 -402 292c-5 -16 -19 -44 -31 -58c269 -31 339 -95 365 -234zM865 806h-73v-183h-429v189h-69v-250h571v244zM588 843l39 -47c98 29 230 77 302 112l-40 52c-68 -34 -200 -86 -301 -117zM676 310v-38h-135v38h135zM676 391v-41h-135v41h135z
M676 472v-42h-135v42h135zM479 538v-214c-18 18 -35 36 -53 50c-9 -10 -32 -33 -45 -44c57 -44 114 -108 150 -173l59 18c-11 18 -23 37 -34 55h124c-8 -18 -18 -37 -27 -53l60 -15c14 20 29 46 38 68h160v42h-171v38h147v40h-147v41h147v39h-147v42h193v40h-392v26h-62z
M941 93v64h-751v200c64 -50 123 -123 159 -198l63 17c-15 29 -32 59 -52 88v276h-64v-195c-23 26 -48 50 -72 70c-7 -8 -21 -24 -34 -36v17c0 163 -13 402 -99 563c-13 -14 -44 -37 -60 -45c79 -151 87 -364 87 -518v-303h823z" />
</svg>
