<?xml version="1.0" standalone="no"?>
<!DOCTYPE svg PUBLIC "-//W3C//DTD SVG 1.1//EN" "http://www.w3.org/Graphics/SVG/1.1/DTD/svg11.dtd" >
<svg xmlns="http://www.w3.org/2000/svg" xmlns:xlink="http://www.w3.org/1999/xlink" version="1.1" viewBox="-10 0 1010 1000">
   <path fill="currentColor"
d="M480 134v52h-413v-52h179c-11 -25 -26 -54 -40 -77l58 -15c19 27 39 65 49 92h167zM156 566v76h231v-76h-231zM156 449v75h231v-75h-231zM490 817h-183v141h-67v-141h-196v-56h196v-75h-145v-282h356v282h-144v75h183v56zM691 685h60c-15 158 -69 232 -264 272
c-5 -14 -19 -35 -31 -46c179 -32 223 -92 235 -226zM898 833h-61v-185h-246v189h-58v-241h365v237zM720 867l29 -44c67 21 158 59 205 84l-27 51c-47 -26 -136 -67 -207 -91zM751 428v74h203v50h-471v-50h205v-74h-120v-50h308v50h-125zM620 153l-2 3c26 34 61 64 103 89
c41 -26 76 -57 101 -92h-202zM869 104l36 23c-32 57 -78 105 -133 146c57 26 123 45 191 56c-12 11 -29 34 -37 50c-73 -15 -143 -41 -204 -73c-66 39 -143 69 -219 89c-6 -11 -17 -27 -27 -39h-431v-53h108c-8 -30 -20 -68 -33 -97l52 -13c17 34 32 78 39 110h105
c16 -34 34 -80 43 -112l60 16c-15 32 -29 67 -43 96h113v40c65 -16 127 -39 183 -68c-32 -24 -61 -49 -84 -78c-18 22 -38 43 -60 63c-11 -13 -30 -30 -45 -37c66 -53 111 -123 135 -181l58 9c-8 18 -16 36 -27 55h211z" />
</svg>
