<?xml version="1.0" standalone="no"?>
<!DOCTYPE svg PUBLIC "-//W3C//DTD SVG 1.1//EN" "http://www.w3.org/Graphics/SVG/1.1/DTD/svg11.dtd" >
<svg xmlns="http://www.w3.org/2000/svg" xmlns:xlink="http://www.w3.org/1999/xlink" version="1.1" viewBox="-10 0 1010 1000">
   <path fill="currentColor"
d="M817 365v-207h-285v-67h357v340h-275v218c0 30 8 35 54 35h154c42 0 49 -18 53 -139c16 13 46 25 67 29c-10 142 -31 178 -114 178h-167c-91 0 -119 -21 -119 -103v-284h275zM330 629v202c58 21 131 28 224 28c48 1 352 1 412 -2c-11 18 -25 52 -30 74h-381
c-211 0 -330 -34 -403 -169c-12 79 -30 147 -60 203c-13 -9 -45 -28 -62 -36c58 -100 69 -259 72 -436l70 5c-1 48 -3 95 -6 139c22 72 53 122 95 156v-378h-209v-67h191v-126h-166v-66h166v-111h71v111h161v66h-161v126h187v67h-171v148h161v66h-161z" />
</svg>
