<?xml version="1.0" standalone="no"?>
<!DOCTYPE svg PUBLIC "-//W3C//DTD SVG 1.1//EN" "http://www.w3.org/Graphics/SVG/1.1/DTD/svg11.dtd" >
<svg xmlns="http://www.w3.org/2000/svg" xmlns:xlink="http://www.w3.org/1999/xlink" version="1.1" viewBox="-10 0 1010 1000">
   <path fill="currentColor"
d="M673 301l68 10c-6 64 -15 122 -28 174c85 90 180 209 225 287l-62 40c-38 -68 -112 -168 -184 -253c-41 113 -106 196 -207 252c-9 -15 -31 -41 -47 -53c152 -83 218 -228 235 -457zM853 261h-246c-21 56 -45 106 -74 146c-11 -10 -41 -28 -56 -36
c58 -79 95 -198 116 -325l65 11c-8 49 -19 98 -32 143h253l11 -3l45 12c-25 77 -56 163 -84 217l-56 -15c19 -38 40 -95 58 -150zM331 633v192c71 31 161 38 269 38c46 0 306 0 362 -2c-11 17 -25 51 -29 72h-333c-214 0 -360 -30 -445 -190c-13 85 -34 158 -72 217
c-10 -10 -38 -33 -53 -42c63 -96 73 -250 76 -425l67 4c-1 48 -3 94 -6 137c23 68 55 115 95 149v-354h-206v-67h193v-128h-153v-66h153v-123h69v123h150v66h-150v128h158v67h-145v138h140v66h-140z" />
</svg>
