<?xml version="1.0" standalone="no"?>
<!DOCTYPE svg PUBLIC "-//W3C//DTD SVG 1.1//EN" "http://www.w3.org/Graphics/SVG/1.1/DTD/svg11.dtd" >
<svg xmlns="http://www.w3.org/2000/svg" xmlns:xlink="http://www.w3.org/1999/xlink" version="1.1" viewBox="-10 0 1010 1000">
   <path fill="currentColor"
d="M862 238h-269c-20 51 -43 97 -68 134c-13 -11 -43 -27 -59 -36c53 -71 92 -181 114 -289l67 13c-9 40 -20 78 -32 115h270l12 -3l46 13c-16 64 -40 137 -66 181l-57 -17c15 -29 30 -71 42 -111zM782 421l56 -18c42 97 87 223 105 305l-59 21c-16 -83 -61 -212 -102 -308z
M745 286v465c0 36 -8 54 -34 65c-24 10 -62 11 -120 11c-3 -18 -14 -45 -23 -62c43 1 82 1 92 0c13 0 17 -4 17 -15v-464h68zM569 409l62 13c-25 117 -66 235 -113 311c-13 -10 -41 -24 -57 -31c50 -73 86 -184 108 -293zM328 646v193c59 23 134 30 230 30
c46 0 357 0 414 -2c-11 16 -24 48 -28 69h-384c-211 0 -328 -33 -399 -172c-13 80 -34 148 -65 204c-13 -10 -45 -28 -61 -36c58 -97 75 -252 82 -422l69 6c-2 50 -6 99 -11 146c21 61 48 105 84 136v-360h-209v-67h191v-137h-159v-66h159v-124h70v124h156v66h-156v137h174
v67h-157v142h141v66h-141z" />
</svg>
