<?xml version="1.0" standalone="no"?>
<!DOCTYPE svg PUBLIC "-//W3C//DTD SVG 1.1//EN" "http://www.w3.org/Graphics/SVG/1.1/DTD/svg11.dtd" >
<svg xmlns="http://www.w3.org/2000/svg" xmlns:xlink="http://www.w3.org/1999/xlink" version="1.1" viewBox="-10 0 1010 1000">
   <path fill="currentColor"
d="M837 508h-269v187h269v-187zM568 761v43h-68v-363h158v-395h69v160h224v66h-224v169h181v362h-71v-42h-269zM314 629v197c60 25 137 33 237 33c49 1 354 1 415 -2c-12 18 -25 52 -30 74h-383c-215 0 -333 -33 -406 -171c-11 78 -29 148 -56 203c-12 -9 -43 -25 -59 -32
c52 -102 63 -263 67 -438l67 6c-1 45 -3 90 -6 132c21 69 49 119 87 153v-356h-192v-67h180v-132h-157v-66h157v-118h69v118h158v66h-158v132h178v67h-168v135h150v66h-150z" />
</svg>
