<?xml version="1.0" standalone="no"?>
<!DOCTYPE svg PUBLIC "-//W3C//DTD SVG 1.1//EN" "http://www.w3.org/Graphics/SVG/1.1/DTD/svg11.dtd" >
<svg xmlns="http://www.w3.org/2000/svg" xmlns:xlink="http://www.w3.org/1999/xlink" version="1.1" viewBox="-10 0 1010 1000">
   <path fill="currentColor"
d="M921 63v668c0 36 -8 52 -31 62c-25 10 -63 10 -122 10c-3 -15 -11 -39 -20 -56c45 2 86 2 97 1c13 0 18 -4 18 -17v-668h58zM789 142v473h-57v-473h57zM619 332h-96c-22 69 -50 131 -86 179c-10 -9 -36 -25 -50 -33c63 -79 99 -194 117 -325h-94v-60h290v60h-137
c-7 41 -15 81 -24 118h97l11 -2l36 10c-29 254 -113 422 -232 512c-9 -14 -26 -33 -40 -44c54 -38 101 -99 138 -179c-21 -23 -49 -51 -72 -74l36 -42c19 17 42 38 61 55c19 -53 34 -112 45 -175zM285 631v187c61 32 143 42 254 42c51 0 364 1 428 -2c-13 17 -25 51 -30 73
h-396c-211 0 -327 -33 -396 -165c-12 75 -29 141 -57 196c-12 -8 -42 -25 -58 -33c57 -100 67 -259 70 -436l65 5c-1 51 -3 101 -7 149c16 51 36 91 63 122v-351h-170v-67h147v-123h-125v-66h125v-119h65v119h113v66h-113v123h137v67h-115v147h107v66h-107z" />
</svg>
