<?xml version="1.0" standalone="no"?>
<!DOCTYPE svg PUBLIC "-//W3C//DTD SVG 1.1//EN" "http://www.w3.org/Graphics/SVG/1.1/DTD/svg11.dtd" >
<svg xmlns="http://www.w3.org/2000/svg" xmlns:xlink="http://www.w3.org/1999/xlink" version="1.1" viewBox="-10 0 1010 1000">
   <path fill="currentColor"
d="M870 76l64 19c-26 58 -59 125 -85 169l-56 -18c26 -45 60 -119 77 -170zM834 429v-87h-253v87h253zM581 572h253v-89h-253v89zM513 283h160v-239h68v239h163v443c0 38 -8 56 -34 67c-25 12 -67 12 -127 12c-3 -19 -12 -46 -22 -65c45 2 85 2 96 2c13 -1 17 -5 17 -16v-98
h-253v177h-68v-522zM619 238l-60 20c-8 -45 -35 -113 -66 -163l55 -18c33 49 61 116 71 161zM322 628v193c73 34 167 42 278 42c46 0 306 0 363 -2c-12 17 -26 51 -29 72h-334c-212 0 -357 -29 -443 -186c-13 83 -34 155 -71 213c-10 -10 -38 -33 -53 -42
c63 -96 73 -250 76 -425l67 4c-1 50 -3 98 -7 144c22 59 50 103 84 135v-354h-197v-66h189v-122h-158v-66h158v-123h69v123h143v66h-143v122h165v66h-157v139h148v67h-148z" />
</svg>
