<?xml version="1.0" standalone="no"?>
<!DOCTYPE svg PUBLIC "-//W3C//DTD SVG 1.1//EN" "http://www.w3.org/Graphics/SVG/1.1/DTD/svg11.dtd" >
<svg xmlns="http://www.w3.org/2000/svg" xmlns:xlink="http://www.w3.org/1999/xlink" version="1.1" viewBox="-10 0 1010 1000">
   <path fill="currentColor"
d="M465 746l-24 -62c58 -29 143 -77 227 -124v-133h-207v-66h337c3 -24 5 -51 8 -77h-284v-58h288c3 -27 5 -51 6 -74h-320v-60h330l12 -4l46 7c-4 83 -13 181 -22 266h82v66h-209v98c14 10 29 21 43 32c40 -33 87 -78 114 -111l47 35c-35 39 -80 78 -119 109
c49 38 96 78 125 105l-30 53c-40 -40 -114 -102 -180 -154v151c0 34 -8 48 -33 57c-26 9 -65 9 -127 9c-4 -16 -14 -38 -22 -53c45 2 87 1 98 1c13 -1 17 -4 17 -15v-121c-71 44 -144 88 -203 123zM481 486l43 -36c30 30 70 70 90 95l-44 41c-19 -27 -59 -70 -89 -100z
M295 631v187c62 32 143 42 253 42c50 0 356 0 419 -3c-12 18 -26 52 -31 74h-386c-213 0 -329 -34 -399 -169c-12 78 -30 146 -60 202c-12 -9 -44 -27 -61 -35c58 -100 69 -258 72 -436l69 5c-1 47 -3 93 -7 136c17 57 38 99 65 132v-348h-176v-67h164v-123h-141v-66h141
v-119h68v119h130v66h-130v123h150v67h-140v147h128v66h-128z" />
</svg>
