<?xml version="1.0" standalone="no"?>
<!DOCTYPE svg PUBLIC "-//W3C//DTD SVG 1.1//EN" "http://www.w3.org/Graphics/SVG/1.1/DTD/svg11.dtd" >
<svg xmlns="http://www.w3.org/2000/svg" xmlns:xlink="http://www.w3.org/1999/xlink" version="1.1" viewBox="-10 0 1010 1000">
   <path fill="currentColor"
d="M705 226v-62h176l12 -2l38 13c-13 135 -36 257 -68 361c37 79 69 155 87 211l-59 25c-13 -42 -33 -95 -56 -152c-28 75 -61 138 -98 185c-11 -14 -34 -40 -49 -50c45 -54 81 -128 111 -218c-35 -77 -75 -155 -115 -223l54 -19c28 49 57 103 85 157
c18 -69 31 -145 40 -226h-158zM616 264v-115h-107v115h107zM509 508v147c34 -11 70 -23 107 -35v-112h-107zM616 449v-126h-107v126h107zM448 674v-525h-46v-65h318v65h-43v451l40 -13l11 56l-51 18v163h-61v-143l-220 75l-18 -62c21 -6 45 -13 70 -20zM300 608v207
c65 34 150 44 262 44c46 0 340 0 399 -2c-12 18 -25 51 -30 73h-369c-217 0 -339 -35 -413 -181c-13 74 -34 145 -72 206c-10 -15 -34 -37 -50 -44c70 -119 77 -287 74 -419l63 4c1 40 1 82 -2 125c18 61 41 107 71 141v-351h-181v-67h160v-116h-134v-66h134v-119h68v119
h119v66h-119v116h136v67h-116v131h113v66h-113z" />
</svg>
