<?xml version="1.0" standalone="no"?>
<!DOCTYPE svg PUBLIC "-//W3C//DTD SVG 1.1//EN" "http://www.w3.org/Graphics/SVG/1.1/DTD/svg11.dtd" >
<svg xmlns="http://www.w3.org/2000/svg" xmlns:xlink="http://www.w3.org/1999/xlink" version="1.1" viewBox="-10 0 1010 1000">
   <path fill="currentColor"
d="M552 208v80h-63v-144h197c-13 -27 -31 -58 -51 -82l64 -23c26 31 51 74 64 105h162v144h-66v-80h-307zM835 719v-162h-198v162h198zM925 393h-235c-15 37 -31 73 -51 106h258v277h-320v-190c-25 31 -54 57 -83 80c-9 -13 -33 -38 -47 -49c74 -53 135 -132 173 -224h-127
v-64h432v64zM303 625v193c73 40 168 48 286 49c43 -1 314 0 369 -2c-11 16 -24 48 -28 68h-342c-212 0 -351 -30 -432 -188c-13 81 -33 152 -69 208c-9 -10 -37 -32 -51 -41c61 -95 71 -245 74 -416l64 4c-1 49 -3 96 -7 141c19 53 42 94 70 125v-339h-184v-65h175v-128
h-145v-64h145v-126h66v126h140v64h-140v128h167v65h-158v134h141v64h-141z" />
</svg>
