<?xml version="1.0" standalone="no"?>
<!DOCTYPE svg PUBLIC "-//W3C//DTD SVG 1.1//EN" "http://www.w3.org/Graphics/SVG/1.1/DTD/svg11.dtd" >
<svg xmlns="http://www.w3.org/2000/svg" xmlns:xlink="http://www.w3.org/1999/xlink" version="1.1" viewBox="-10 0 1010 1000">
   <path fill="currentColor"
d="M748 232h-110c-12 18 -25 36 -39 52h189c-15 -17 -29 -34 -40 -52zM787 389v-60h-184v60h184zM544 434v-98c-22 18 -45 33 -69 47c-8 -12 -30 -36 -43 -47c52 -26 97 -61 132 -104h-114v-52h149c9 -17 17 -34 24 -53c-50 4 -101 7 -148 9c-3 -13 -11 -32 -17 -45
c136 -7 301 -24 389 -45l43 43c-55 13 -126 23 -200 31c-6 21 -14 41 -23 60h278v52h-131c35 42 90 79 145 98c-14 11 -33 32 -42 47c-23 -10 -46 -23 -68 -39v96h-305zM928 477v284c0 31 -5 46 -25 55c-22 10 -54 10 -101 10c-3 -16 -12 -37 -19 -53c33 1 61 1 70 0
c10 0 12 -3 12 -12v-231h-338v304h-62v-357h463zM755 682v-64h-120v64h120zM805 575v151h-170v33h-50v-184h220zM292 630v192c75 43 174 51 297 51c42 0 323 0 376 -2c-11 16 -23 46 -27 66h-350c-216 0 -358 -29 -441 -191c-11 83 -30 154 -64 212c-11 -10 -37 -31 -51 -40
c58 -98 65 -251 66 -425l64 3c-1 51 -3 100 -6 146c19 54 42 96 71 128v-344h-177v-63h170v-129h-137v-62h137v-129h65v129h137v62h-137v129h161v63h-154v142h139v62h-139z" />
</svg>
