<?xml version="1.0" standalone="no"?>
<!DOCTYPE svg PUBLIC "-//W3C//DTD SVG 1.1//EN" "http://www.w3.org/Graphics/SVG/1.1/DTD/svg11.dtd" >
<svg xmlns="http://www.w3.org/2000/svg" xmlns:xlink="http://www.w3.org/1999/xlink" version="1.1" viewBox="-10 0 1010 1000">
   <path fill="currentColor"
d="M692 548v-57h-131v57h131zM692 651v-54h-131v54h131zM692 755v-55h-131v55h131zM561 834h-64v-281c-13 16 -26 31 -39 44c-8 -11 -30 -36 -41 -47c52 -48 101 -119 131 -189l57 16c-9 21 -20 42 -31 63h121c-8 -20 -18 -39 -27 -56l62 -17c14 22 28 49 39 73h155v51h-167
v57h144v49h-144v54h144v49h-144v55h176v54h-372v25zM870 371v-74c-59 20 -117 38 -167 54l-22 -52c50 -12 118 -32 189 -52v-111h-169v-55h228v290h-59zM699 189l30 -39c37 12 85 33 110 50l-31 44c-24 -18 -71 -41 -109 -55zM435 355l-21 -53c53 -11 124 -33 201 -55v-112
h-185v-55h243v287h-58v-70c-64 20 -126 41 -180 58zM434 186l31 -40c38 11 86 32 111 50l-32 45c-24 -18 -72 -41 -110 -55zM295 628v197c74 41 172 49 294 49c41 0 323 1 376 -1c-10 15 -22 44 -26 63h-351c-216 0 -359 -29 -441 -192c-11 84 -30 157 -65 215
c-10 -10 -36 -32 -51 -41c59 -98 66 -250 67 -425l64 3c-1 51 -3 100 -6 146c19 57 43 100 73 132v-350h-173v-63h164v-126h-136v-62h136v-128h66v128h124v62h-124v126h145v63h-136v141h122v63h-122z" />
</svg>
