<?xml version="1.0" standalone="no"?>
<!DOCTYPE svg PUBLIC "-//W3C//DTD SVG 1.1//EN" "http://www.w3.org/Graphics/SVG/1.1/DTD/svg11.dtd" >
<svg xmlns="http://www.w3.org/2000/svg" xmlns:xlink="http://www.w3.org/1999/xlink" version="1.1" viewBox="-10 0 1010 1000">
   <path fill="currentColor"
d="M154 151v174h187v-174h-187zM301 594v174c43 -10 87 -23 131 -35l9 65c-135 38 -279 78 -384 108l-19 -71l52 -13v-338h62v324l82 -22v-396h-145v-304h321v304h-109v138h125v66h-125zM749 636l-54 46c-37 -61 -119 -153 -192 -217l51 -42c73 63 158 151 195 213zM931 225
v38c-14 449 -26 599 -63 647c-22 27 -44 36 -78 40c-34 3 -90 1 -145 -2c-2 -21 -11 -50 -24 -71c62 6 119 6 142 6c19 0 29 -3 40 -16c31 -33 44 -181 55 -572h-309c-27 61 -58 115 -90 159c-14 -11 -44 -32 -63 -41c73 -90 131 -230 165 -369l70 14
c-15 58 -32 113 -53 167h353z" />
</svg>
