<?xml version="1.0" standalone="no"?>
<!DOCTYPE svg PUBLIC "-//W3C//DTD SVG 1.1//EN" "http://www.w3.org/Graphics/SVG/1.1/DTD/svg11.dtd" >
<svg xmlns="http://www.w3.org/2000/svg" xmlns:xlink="http://www.w3.org/1999/xlink" version="1.1" viewBox="-10 0 1010 1000">
   <path fill="currentColor"
d="M154 151v174h192v-174h-192zM289 594v178c45 -11 92 -24 140 -37l8 64c-134 38 -277 77 -380 107l-19 -71l52 -13v-338h62v324l70 -18v-400h-133v-304h325v304h-125v138h131v66h-131zM958 431v69h-219v364c0 40 -9 59 -35 70c-27 11 -70 12 -138 12
c-1 -18 -11 -45 -21 -64c50 2 95 2 108 1c14 0 19 -4 19 -19v-364h-223v-69h223v-262h-193v-68h445v68h-185v262h219z" />
</svg>
