<?xml version="1.0" standalone="no"?>
<!DOCTYPE svg PUBLIC "-//W3C//DTD SVG 1.1//EN" "http://www.w3.org/Graphics/SVG/1.1/DTD/svg11.dtd" >
<svg xmlns="http://www.w3.org/2000/svg" xmlns:xlink="http://www.w3.org/1999/xlink" version="1.1" viewBox="-10 0 1010 1000">
   <path fill="currentColor"
d="M629 866h181c48 0 56 -22 61 -144c17 12 46 24 66 29c-10 143 -32 182 -123 182h-190c-98 0 -127 -22 -127 -112v-429h343s0 19 -1 29c-6 177 -12 245 -34 269c-14 18 -30 24 -57 27c-24 1 -72 1 -120 -2c-1 -18 -8 -44 -18 -61c46 4 91 5 106 4c16 1 25 -1 32 -9
c11 -14 17 -62 22 -188h-203v360c0 37 10 45 62 45zM319 325v-174h-166v174h166zM646 35l69 21c-5 10 -9 21 -14 32c59 119 168 243 267 304c-17 14 -42 40 -55 60c-88 -64 -182 -179 -246 -296c-66 119 -153 226 -247 300c-8 -16 -29 -50 -43 -66h-96v142h118v66h-118v181
l125 -33l9 64l-358 100l-19 -69l51 -13v-338h61v323l64 -16v-407h-125v-304h296v296c106 -81 204 -209 261 -347z" />
</svg>
