<?xml version="1.0" standalone="no"?>
<!DOCTYPE svg PUBLIC "-//W3C//DTD SVG 1.1//EN" "http://www.w3.org/Graphics/SVG/1.1/DTD/svg11.dtd" >
<svg xmlns="http://www.w3.org/2000/svg" xmlns:xlink="http://www.w3.org/1999/xlink" version="1.1" viewBox="-10 0 1010 1000">
   <path fill="currentColor"
d="M144 151v174h175v-174h-175zM274 769l133 -40l9 63c-126 40 -259 83 -357 114l-17 -71c14 -4 29 -8 45 -12v-340h59v323l65 -19v-397h-131v-304h305v304h-111v138h115v66h-115v175zM825 619h-299v225h299v-225zM457 956v-404h440v401h-72v-42h-299v45h-69zM738 215
l56 -29c68 86 139 201 171 279l-60 33c-8 -21 -20 -45 -33 -70c-381 28 -425 34 -452 44c-4 -15 -16 -51 -24 -70c19 -4 39 -29 64 -65c27 -34 111 -168 163 -295l75 22c-55 114 -120 229 -187 319l325 -21c-30 -52 -65 -103 -98 -147z" />
</svg>
