<?xml version="1.0" standalone="no"?>
<!DOCTYPE svg PUBLIC "-//W3C//DTD SVG 1.1//EN" "http://www.w3.org/Graphics/SVG/1.1/DTD/svg11.dtd" >
<svg xmlns="http://www.w3.org/2000/svg" xmlns:xlink="http://www.w3.org/1999/xlink" version="1.1" viewBox="-10 0 1010 1000">
   <path fill="currentColor"
d="M154 151v174h188v-174h-188zM288 594v178c45 -11 92 -24 139 -37l8 64c-133 38 -275 77 -378 107l-19 -71l52 -13v-338h62v324l70 -19v-399h-133v-304h321v304h-122v138h131v66h-131zM841 834v-226h-285v226h285zM954 330h-224v209h181v409h-70v-45h-285v54h-67v-418h171
v-209h-217v-68h217v-215h70v215h224v68z" />
</svg>
