<?xml version="1.0" standalone="no"?>
<!DOCTYPE svg PUBLIC "-//W3C//DTD SVG 1.1//EN" "http://www.w3.org/Graphics/SVG/1.1/DTD/svg11.dtd" >
<svg xmlns="http://www.w3.org/2000/svg" xmlns:xlink="http://www.w3.org/1999/xlink" version="1.1" viewBox="-10 0 1010 1000">
   <path fill="currentColor"
d="M155 152v175h192v-175h-192zM290 777l151 -38l8 66c-139 38 -287 76 -394 103l-16 -71l50 -11v-342h62v327l72 -18v-401h-134v-305h328v305h-127v141h139v67h-139v177zM840 844v-254h-298v254h298zM957 332h-241v190h198v429h-74v-40h-298v45h-70v-434h172v-478h72v220
h241v68z" />
</svg>
