<?xml version="1.0" standalone="no"?>
<!DOCTYPE svg PUBLIC "-//W3C//DTD SVG 1.1//EN" "http://www.w3.org/Graphics/SVG/1.1/DTD/svg11.dtd" >
<svg xmlns="http://www.w3.org/2000/svg" xmlns:xlink="http://www.w3.org/1999/xlink" version="1.1" viewBox="-10 0 1010 1000">
   <path fill="currentColor"
d="M151 151v174h176v-174h-176zM385 741l10 64c-120 35 -245 73 -339 101l-18 -71c16 -4 32 -8 51 -13v-338h61v323l73 -21v-396h-135v-304h305v304h-106v138h115v66h-115v174zM648 264h-134v167h134v-167zM828 497h-252c30 83 73 159 128 222c53 -62 95 -137 124 -222z
M868 428l43 17c-32 131 -89 238 -161 323c59 56 130 99 208 128c-16 14 -36 40 -48 60c-78 -33 -147 -80 -207 -138c-61 59 -129 104 -202 137c-9 -18 -26 -44 -41 -58c71 -28 138 -71 198 -128c-62 -73 -110 -161 -145 -261c-4 142 -26 322 -111 448
c-12 -12 -41 -31 -56 -38c93 -135 103 -326 103 -465v-255h199v-154h67v154h172l12 -3l47 12c-16 68 -39 147 -59 196l-58 -16c11 -32 25 -78 35 -123h-149v167h140z" />
</svg>
