<?xml version="1.0" standalone="no"?>
<!DOCTYPE svg PUBLIC "-//W3C//DTD SVG 1.1//EN" "http://www.w3.org/Graphics/SVG/1.1/DTD/svg11.dtd" >
<svg xmlns="http://www.w3.org/2000/svg" xmlns:xlink="http://www.w3.org/1999/xlink" version="1.1" viewBox="-10 0 1010 1000">
   <path fill="currentColor"
d="M153 151v174h166v-174h-166zM504 587l67 16c-29 108 -77 212 -135 280c-10 -13 -35 -39 -50 -51c5 -6 11 -12 16 -18c-123 35 -250 70 -345 97l-19 -70l51 -13v-337h61v323l64 -17v-407h-125v-304h296v304h-104v142h114v66h-114v181l120 -32l7 58c44 -59 77 -137 96 -218
zM941 482h-218v388c0 41 -9 59 -35 71c-25 12 -66 14 -128 14c-3 -20 -12 -49 -22 -69c44 2 86 1 97 1c14 -1 18 -4 18 -17v-388h-131c-47 0 -81 5 -89 12c-4 -14 -16 -47 -24 -64c13 -4 20 -27 27 -59c5 -31 27 -152 23 -260c139 -4 318 -22 412 -60l34 62
c-92 36 -247 54 -377 58c-4 83 -17 171 -32 242h157v-180h70v180h218v69zM783 609l60 -24c49 86 95 199 114 273l-64 25c-18 -74 -64 -188 -110 -274z" />
</svg>
