<?xml version="1.0" standalone="no"?>
<!DOCTYPE svg PUBLIC "-//W3C//DTD SVG 1.1//EN" "http://www.w3.org/Graphics/SVG/1.1/DTD/svg11.dtd" >
<svg xmlns="http://www.w3.org/2000/svg" xmlns:xlink="http://www.w3.org/1999/xlink" version="1.1" viewBox="-10 0 1010 1000">
   <path fill="currentColor"
d="M143 152v174h179v-174h-179zM397 734l9 65c-123 38 -255 77 -352 108l-18 -71c15 -4 30 -8 47 -12v-339h56v324l67 -19v-400h-122v-304h300v304h-117v138h119v66h-119v178zM818 890h42c11 0 22 0 28 -4c7 -3 13 -11 16 -27c2 -17 3 -54 4 -102c15 12 39 24 59 30
c-1 46 -4 96 -11 115c-6 19 -17 31 -33 38c-14 7 -39 9 -57 9h-61c-22 0 -48 -5 -63 -17c-16 -12 -23 -29 -23 -92v-309h-95c-12 194 -46 341 -203 425c-8 -18 -29 -43 -45 -56c142 -71 169 -200 179 -369h-129v-68h229v-178h-120c-19 51 -42 98 -68 136
c-12 -10 -41 -29 -58 -38c56 -74 92 -189 112 -307l68 12c-8 44 -19 87 -31 128h97v-173h69v173h189v69h-189v178h233v68h-170v317c0 20 1 33 8 37c6 4 13 5 23 5z" />
</svg>
