<?xml version="1.0" standalone="no"?>
<!DOCTYPE svg PUBLIC "-//W3C//DTD SVG 1.1//EN" "http://www.w3.org/Graphics/SVG/1.1/DTD/svg11.dtd" >
<svg xmlns="http://www.w3.org/2000/svg" xmlns:xlink="http://www.w3.org/1999/xlink" version="1.1" viewBox="-10 0 1010 1000">
   <path fill="currentColor"
d="M148 151v174h169v-174h-169zM288 773l131 -35l9 65l-367 103l-19 -71l49 -12v-339h60v325l72 -19v-400h-137v-304h296v304h-94v138h103v66h-103v179zM417 576v-64h523v64h-335c-10 33 -20 68 -30 99h309s-1 20 -2 31c-14 141 -28 202 -55 227c-20 20 -43 25 -80 26
c-30 2 -94 1 -161 -3c-2 -20 -13 -46 -26 -65c69 6 141 7 167 7c21 0 34 0 44 -8c17 -14 29 -58 40 -152h-326c17 -45 36 -108 51 -162h-119zM544 367h257c-37 -41 -68 -87 -92 -133h-61c-30 50 -65 94 -104 133zM946 234h-165c46 74 118 146 188 183c-15 13 -38 38 -49 57
c-40 -26 -82 -64 -119 -107v62h-266v-53c-35 33 -73 64 -114 89c-7 -15 -27 -50 -38 -65c73 -41 135 -97 185 -166h-139v-65h179c17 -34 33 -72 45 -112l65 17c-10 33 -22 65 -36 95h264v65z" />
</svg>
