<?xml version="1.0" standalone="no"?>
<!DOCTYPE svg PUBLIC "-//W3C//DTD SVG 1.1//EN" "http://www.w3.org/Graphics/SVG/1.1/DTD/svg11.dtd" >
<svg xmlns="http://www.w3.org/2000/svg" xmlns:xlink="http://www.w3.org/1999/xlink" version="1.1" viewBox="-10 0 1010 1000">
   <path fill="currentColor"
d="M940 392v69h-506v-69h219v-142h-181v-69h181v-135h73v135h179v69h-179v142h214zM152 151v178h172v-178h-172zM414 737l9 68c-128 37 -264 76 -364 105l-20 -75c16 -4 32 -8 50 -11v-340h62v324l66 -18v-397h-131v-307h308v307h-109v135h127v66h-127v178zM724 855h233v72
h-559v-72h253v-169h-195v-69h195v-128h73v128h197v69h-197v169z" />
</svg>
