<?xml version="1.0" standalone="no"?>
<!DOCTYPE svg PUBLIC "-//W3C//DTD SVG 1.1//EN" "http://www.w3.org/Graphics/SVG/1.1/DTD/svg11.dtd" >
<svg xmlns="http://www.w3.org/2000/svg" xmlns:xlink="http://www.w3.org/1999/xlink" version="1.1" viewBox="-10 0 1010 1000">
   <path fill="currentColor"
d="M546 596h298c-56 -33 -105 -75 -148 -118c-46 46 -97 86 -150 118zM570 853h250v-192h-250v192zM424 534v48c80 -34 159 -87 226 -156c-37 -45 -67 -92 -92 -137c-28 44 -59 82 -91 115c-11 -11 -34 -32 -52 -44v30h-115v144h124zM158 150v175h188v-175h-188zM795 210
h-191l-10 19c25 49 58 101 99 150c42 -51 77 -107 102 -169zM841 142l46 21c-32 104 -84 192 -146 266c62 60 138 113 228 147c-15 14 -36 43 -46 61c-10 -5 -21 -9 -32 -14v329h-71v-33h-250v36h-69v-333c-20 10 -40 19 -60 28c-7 -15 -22 -35 -36 -50h-105v179
c43 -10 87 -20 131 -31l7 67c-136 33 -278 67 -383 93l-14 -72l51 -11v-341h63v328l77 -18v-404h-140v-305h323v265c79 -75 144 -187 181 -307l71 17c-10 29 -21 58 -32 85h193z" />
</svg>
