<?xml version="1.0" standalone="no"?>
<!DOCTYPE svg PUBLIC "-//W3C//DTD SVG 1.1//EN" "http://www.w3.org/Graphics/SVG/1.1/DTD/svg11.dtd" >
<svg xmlns="http://www.w3.org/2000/svg" xmlns:xlink="http://www.w3.org/1999/xlink" version="1.1" viewBox="-10 0 1010 1000">
   <path fill="currentColor"
d="M821 617h-276v222h276v-222zM478 960v-410h413v407h-70v-51h-276v54h-67zM340 325v-174h-191v174h191zM662 45l65 18c-4 11 -8 21 -12 31c61 115 169 235 266 295c-16 14 -40 41 -53 59c-85 -62 -180 -173 -246 -286c-40 76 -91 146 -152 207h309v68h-321v-56
c-28 27 -60 53 -92 77c-10 -14 -34 -38 -49 -49c10 -6 19 -12 28 -19h-122v138h131v66h-131v178l140 -37l8 64c-133 38 -275 77 -378 107l-19 -71l51 -13v-338h62v324l70 -19v-399h-133v-304h324v302c116 -88 208 -215 254 -343z" />
</svg>
