<?xml version="1.0" standalone="no"?>
<!DOCTYPE svg PUBLIC "-//W3C//DTD SVG 1.1//EN" "http://www.w3.org/Graphics/SVG/1.1/DTD/svg11.dtd" >
<svg xmlns="http://www.w3.org/2000/svg" xmlns:xlink="http://www.w3.org/1999/xlink" version="1.1" viewBox="-10 0 1010 1000">
   <path fill="currentColor"
d="M428 254l-10 -64l132 -13c-10 -41 -16 -84 -19 -129h68c2 43 9 84 18 123l287 -29l10 62l-280 28c16 46 36 87 57 122c59 -34 109 -74 144 -121l65 25c-42 57 -102 105 -170 147c39 42 82 66 122 65c26 0 35 -25 39 -98c15 13 37 24 54 29c-11 105 -35 135 -96 135
c-65 0 -128 -36 -180 -99c-65 32 -135 58 -202 77c-9 -14 -32 -45 -45 -59c72 -17 144 -41 210 -70c-27 -42 -49 -91 -66 -146zM145 152v174h158v-174h-158zM377 741l11 64c-115 35 -237 72 -329 100l-18 -70c14 -3 27 -7 43 -11v-340h61v324l57 -16v-401h-118v-303h283v303
h-100v137h108v66h-108v179zM804 885h70c20 0 24 -14 27 -102c14 11 40 21 59 25c-6 106 -24 135 -79 135h-87c-68 0 -85 -19 -85 -84v-221h-96c-14 165 -57 267 -216 326c-7 -18 -26 -46 -42 -59c142 -46 177 -129 189 -267h-142v-64h532v64h-155v221c0 23 3 26 25 26z" />
</svg>
