<?xml version="1.0" standalone="no"?>
<!DOCTYPE svg PUBLIC "-//W3C//DTD SVG 1.1//EN" "http://www.w3.org/Graphics/SVG/1.1/DTD/svg11.dtd" >
<svg xmlns="http://www.w3.org/2000/svg" xmlns:xlink="http://www.w3.org/1999/xlink" version="1.1" viewBox="-10 0 1010 1000">
   <path fill="currentColor"
d="M154 151v174h166v-174h-166zM405 741l9 64c-126 36 -259 73 -357 101l-18 -70c16 -4 32 -8 51 -12v-339h59v324l72 -19v-400h-132v-304h300v304h-104v138h110v66h-110v179zM535 654v-101h70v103c0 89 -26 213 -170 294c-13 -13 -39 -33 -57 -43
c134 -70 157 -177 157 -253zM779 949v-395h71v395h-71zM797 225h-220c26 64 63 116 113 158c49 -41 85 -92 107 -158zM957 225h-86c-27 82 -70 146 -127 196c62 36 137 62 229 75c-15 15 -35 44 -44 63c-99 -18 -179 -49 -244 -94c-66 42 -147 72 -239 94
c-5 -16 -22 -46 -33 -61c85 -16 158 -41 219 -75c-54 -52 -95 -118 -123 -198h-90v-66h242c-11 -32 -28 -69 -44 -99l67 -19c22 36 44 83 55 118h218v66z" />
</svg>
