<?xml version="1.0" standalone="no"?>
<!DOCTYPE svg PUBLIC "-//W3C//DTD SVG 1.1//EN" "http://www.w3.org/Graphics/SVG/1.1/DTD/svg11.dtd" >
<svg xmlns="http://www.w3.org/2000/svg" xmlns:xlink="http://www.w3.org/1999/xlink" version="1.1" viewBox="-10 0 1010 1000">
   <path fill="currentColor"
d="M784 192h-214c-35 49 -75 93 -115 126c-12 -9 -39 -31 -55 -41c74 -56 139 -143 177 -234l69 16c-11 25 -23 50 -38 75h334v58h-82c-24 60 -59 109 -104 150c68 35 130 71 171 99l-48 46c-41 -29 -104 -68 -173 -106c-64 44 -141 77 -225 101c-8 -12 -32 -37 -46 -50
c80 -19 151 -46 210 -83c-42 -23 -84 -43 -124 -62l45 -38c41 18 85 39 130 62c38 -34 68 -73 88 -119zM331 148h69v279h-69v-279zM180 475v-208c-28 29 -59 55 -88 77c-10 -11 -34 -35 -49 -46c90 -63 178 -159 232 -256l66 18c-26 44 -57 89 -91 131v284h-70zM236 547v72
h532v-72h-532zM536 795v79c41 3 87 4 135 4c37 0 240 0 292 -2c-11 16 -22 44 -26 62h-268c-197 0 -327 -18 -413 -108c-39 56 -93 99 -155 131c-12 -12 -40 -36 -56 -46c103 -44 172 -116 196 -223l72 7c-6 27 -15 54 -26 77c38 50 98 76 176 89v-191h-300v-182h679v182
h-306v69h341v52h-341z" />
</svg>
