<?xml version="1.0" standalone="no"?>
<!DOCTYPE svg PUBLIC "-//W3C//DTD SVG 1.1//EN" "http://www.w3.org/Graphics/SVG/1.1/DTD/svg11.dtd" >
<svg xmlns="http://www.w3.org/2000/svg" xmlns:xlink="http://www.w3.org/1999/xlink" version="1.1" viewBox="-10 0 1010 1000">
   <path fill="currentColor"
d="M739 296h-167c-9 73 -39 145 -134 197c-10 -16 -35 -39 -52 -50c108 -56 122 -135 122 -211v-112c121 -17 261 -43 337 -71l57 48c-88 30 -213 54 -327 69v69v3h370v58h-137v195h-69v-195zM65 359l-9 -63c47 -5 105 -13 170 -21v-90h-158v-60h158v-81h69v81h149v60h-149
v82l148 -20l1 58c-50 8 -100 14 -149 21v88c0 36 -7 51 -33 61c-25 9 -64 9 -125 9c-3 -17 -12 -40 -21 -56c43 1 83 1 94 0c13 -1 16 -4 16 -15v-77c-59 9 -115 17 -161 23zM249 559v74h522v-74h-522zM543 802v74c39 3 82 4 128 4c33 0 241 0 289 -2c-10 15 -21 42 -24 59
h-266c-200 0 -327 -19 -411 -113c-40 59 -97 103 -162 135c-12 -13 -39 -39 -55 -50c98 -40 170 -105 193 -203l73 8c-5 21 -13 41 -21 61c40 52 101 79 183 92v-182h-292v-178h668v178h-303v65h347v52h-347z" />
</svg>
