<?xml version="1.0" standalone="no"?>
<!DOCTYPE svg PUBLIC "-//W3C//DTD SVG 1.1//EN" "http://www.w3.org/Graphics/SVG/1.1/DTD/svg11.dtd" >
<svg xmlns="http://www.w3.org/2000/svg" xmlns:xlink="http://www.w3.org/1999/xlink" version="1.1" viewBox="-10 0 1010 1000">
   <path fill="currentColor"
d="M143 151v174h164v-174h-164zM957 491h-357c-8 31 -18 62 -28 91h206v-59h70v59h102v65h-102v227c0 39 -9 58 -36 70c-29 12 -72 13 -142 13c-4 -20 -15 -49 -25 -67c55 1 100 1 114 0c15 -1 19 -4 19 -16v-227h-231c-41 96 -92 179 -158 249c-12 -13 -44 -37 -59 -47
c16 -16 32 -32 47 -50c-112 37 -228 76 -318 105l-18 -70l41 -12v-338h59v322l64 -20v-396h-126v-304h295v304h-106v138h110v66h-110v173l107 -35l10 57c64 -81 111 -181 145 -298h-147v-62h163c7 -27 13 -55 19 -83h-134v-61h146c4 -24 8 -49 11 -74h-178v-62h186
c5 -34 8 -69 12 -104l70 5c-4 33 -8 67 -12 99h272v62h-280c-4 25 -8 50 -12 74h270v61h-282c-5 28 -12 56 -18 83h341v62zM709 817l-54 38c-21 -38 -66 -97 -106 -138l52 -34c40 39 87 96 108 134z" />
</svg>
