<?xml version="1.0" standalone="no"?>
<!DOCTYPE svg PUBLIC "-//W3C//DTD SVG 1.1//EN" "http://www.w3.org/Graphics/SVG/1.1/DTD/svg11.dtd" >
<svg xmlns="http://www.w3.org/2000/svg" xmlns:xlink="http://www.w3.org/1999/xlink" version="1.1" viewBox="-10 0 1010 1000">
   <path fill="currentColor"
d="M646 40l60 21c-4 11 -9 22 -14 34c68 121 158 195 273 257c-17 13 -36 37 -45 57c-107 -65 -192 -139 -259 -250c-60 110 -144 205 -242 269c-11 -15 -29 -37 -46 -51c121 -71 221 -198 273 -337zM145 151v174h163v-174h-163zM387 742l8 65c-121 34 -248 71 -343 99
l-17 -71l50 -12v-339h58v324l60 -16v-402h-119v-304h289v304h-107v138h119v66h-119v181c39 -10 80 -21 121 -33zM831 440l48 19c-31 64 -73 140 -112 203l-61 -22c25 -41 53 -92 76 -134h-318v-62h355zM617 631l53 -26c39 45 79 107 95 149l-56 29
c-16 -42 -55 -106 -92 -152zM590 300l52 -30c34 35 75 82 96 112l-54 36c-19 -32 -59 -83 -94 -118zM422 911l-59 -25c38 -53 65 -138 79 -204l57 19c-16 69 -39 158 -77 210zM639 883h109c26 0 31 -12 34 -94c14 11 41 22 59 25c-7 105 -26 130 -85 130h-125
c-78 0 -97 -19 -97 -88v-189h68v189c0 23 5 27 37 27zM796 702l56 -23c44 63 86 145 103 201l-59 26c-17 -57 -58 -142 -100 -204z" />
</svg>
