<?xml version="1.0" standalone="no"?>
<!DOCTYPE svg PUBLIC "-//W3C//DTD SVG 1.1//EN" "http://www.w3.org/Graphics/SVG/1.1/DTD/svg11.dtd" >
<svg xmlns="http://www.w3.org/2000/svg" xmlns:xlink="http://www.w3.org/1999/xlink" version="1.1" viewBox="-10 0 1010 1000">
   <path fill="currentColor"
d="M474 209v102h-68v-168h243c-12 -26 -29 -56 -46 -79l58 -25c24 31 49 72 62 104h213v166h-69v-100h-393zM149 149v173h130v-173h-130zM263 787l98 -26l7 59c-107 31 -218 61 -303 85l-13 -64l33 -8v-348h57v334l61 -16v-418h-114v-299h252v299h-78v148h95v64h-95v190z
M615 361l12 -2l35 8c-26 316 -109 499 -243 591c-9 -15 -31 -38 -43 -46c73 -48 130 -123 169 -231c-21 -25 -56 -57 -88 -79l33 -47c26 16 54 38 76 58c15 -56 25 -120 33 -192h-82c-24 82 -58 156 -98 211c-10 -9 -34 -30 -47 -40c59 -76 97 -190 118 -311l58 10
c-4 24 -8 47 -14 70h81zM795 890h50c13 0 27 -1 34 -4s14 -10 17 -25c3 -16 5 -52 6 -98c14 13 37 23 56 29c-2 42 -5 91 -12 109s-18 30 -35 37c-15 6 -38 8 -60 8h-67c-20 0 -46 -4 -63 -16c-18 -12 -25 -28 -25 -100v-489h215v303c0 31 -5 47 -25 58
c-20 10 -52 11 -100 11c-2 -17 -10 -41 -18 -58c34 1 61 1 71 1s12 -3 12 -12v-245h-95v439c0 27 3 44 11 48c8 3 15 4 28 4z" />
</svg>
