<?xml version="1.0" standalone="no"?>
<!DOCTYPE svg PUBLIC "-//W3C//DTD SVG 1.1//EN" "http://www.w3.org/Graphics/SVG/1.1/DTD/svg11.dtd" >
<svg xmlns="http://www.w3.org/2000/svg" xmlns:xlink="http://www.w3.org/1999/xlink" version="1.1" viewBox="-10 0 1010 1000">
   <path fill="currentColor"
d="M154 151v174h181v-174h-181zM295 590v180c40 -10 81 -22 123 -33l8 65c-130 37 -267 75 -369 104l-19 -71c16 -4 33 -8 52 -12v-339h62v324l77 -20v-398h-140v-304h315v304h-109v134h117v66h-117zM537 294v92h290v-92h-290zM537 146v90h290v-90h-290zM582 528h363
s0 22 -1 31c-12 250 -24 338 -49 368c-15 19 -31 26 -55 28c-20 2 -54 3 -89 0c-1 -19 -8 -45 -18 -62c34 3 65 3 78 3c14 0 21 -1 29 -11c16 -18 27 -95 38 -295h-64c-39 152 -109 281 -200 367c-9 -11 -33 -31 -47 -40c89 -75 150 -193 187 -327h-75
c-46 119 -121 223 -204 292c-9 -10 -31 -30 -44 -40c77 -60 145 -150 186 -252h-74c-29 40 -60 76 -91 104c-11 -11 -35 -31 -51 -41c63 -51 117 -126 153 -207h-83v-361h424v361h-273c-12 28 -25 56 -40 82z" />
</svg>
