<?xml version="1.0" standalone="no"?>
<!DOCTYPE svg PUBLIC "-//W3C//DTD SVG 1.1//EN" "http://www.w3.org/Graphics/SVG/1.1/DTD/svg11.dtd" >
<svg xmlns="http://www.w3.org/2000/svg" xmlns:xlink="http://www.w3.org/1999/xlink" version="1.1" viewBox="-10 0 1010 1000">
   <path fill="currentColor"
d="M938 164v68h-524v-68h233c-12 -32 -28 -73 -42 -104l64 -20c19 39 42 91 53 124h216zM780 260l65 12c-9 39 -21 77 -35 113c47 39 99 88 127 122l-42 52c-23 -32 -68 -77 -110 -115c-23 44 -48 84 -77 116c-10 -13 -34 -38 -48 -50c57 -61 98 -153 120 -250zM655 477
l-37 52c-20 -24 -54 -58 -87 -87c-28 51 -59 95 -93 131c-10 -12 -34 -38 -48 -50c65 -63 116 -161 144 -268l63 15c-10 40 -24 80 -40 116c37 31 77 68 98 91zM139 151v174h174v-174h-174zM263 772l121 -35l8 64c-120 38 -245 77 -337 105l-17 -70c15 -4 30 -8 47 -12v-340
h55v324l64 -19v-399h-123v-304h293v304h-111v138h117v66h-117v178zM958 649v69h-256v239h-68v-239h-237v-69h237v-96h68v96h256z" />
</svg>
