<?xml version="1.0" standalone="no"?>
<!DOCTYPE svg PUBLIC "-//W3C//DTD SVG 1.1//EN" "http://www.w3.org/Graphics/SVG/1.1/DTD/svg11.dtd" >
<svg xmlns="http://www.w3.org/2000/svg" xmlns:xlink="http://www.w3.org/1999/xlink" version="1.1" viewBox="-10 0 1010 1000">
   <path fill="currentColor"
d="M150 151v174h170v-174h-170zM275 594v180c41 -11 83 -23 125 -35l7 64c-122 37 -253 76 -349 103l-17 -70l50 -13v-339h57v324l66 -18v-400h-124v-304h293v304h-108v138h118v66h-118zM823 646v-107h-126v107h126zM697 370v101h126v-101h-126zM734 198h-150
c-23 37 -47 73 -73 105h158c23 -30 47 -69 65 -105zM957 471v68h-67v214h-67v-40h-126v150c0 44 -9 64 -36 77c-28 11 -72 13 -141 13c-3 -21 -12 -52 -22 -74c51 2 99 2 113 2c14 -1 19 -5 19 -19v-149h-159v-67h159v-107h-209v-68h209v-101h-152v-27c-11 12 -21 23 -32 34
c-12 -13 -38 -39 -54 -50c79 -69 152 -175 196 -283l64 20c-10 24 -20 46 -32 69h153l12 -4l46 36c-23 44 -55 95 -85 138h144v168h67z" />
</svg>
