<?xml version="1.0" standalone="no"?>
<!DOCTYPE svg PUBLIC "-//W3C//DTD SVG 1.1//EN" "http://www.w3.org/Graphics/SVG/1.1/DTD/svg11.dtd" >
<svg xmlns="http://www.w3.org/2000/svg" xmlns:xlink="http://www.w3.org/1999/xlink" version="1.1" viewBox="-10 0 1010 1000">
   <path fill="currentColor"
d="M145 149v173h148v-173h-148zM267 787l116 -28l7 59c-118 31 -240 63 -334 87l-14 -64l36 -8v-347h60v334l67 -17v-419h-122v-298h274v298h-90v149h105v64h-105v190zM538 551h248c-16 -22 -30 -47 -42 -71h-161c-13 25 -28 49 -45 71zM553 849h212v-92h-212v92zM765 699
v-87h-212v87h212zM954 480h-143c41 67 99 128 158 162c-15 13 -36 38 -46 56c-32 -22 -64 -52 -92 -86v340h-66v-40h-212v44h-63v-345c-27 30 -57 56 -90 79c-9 -13 -33 -44 -48 -57c63 -40 113 -91 154 -153h-113v-64h149c12 -25 24 -50 33 -78h-137v-61h157
c8 -24 14 -50 20 -76h-189v-62h201c6 -30 11 -63 15 -96l63 10c-4 29 -8 59 -13 86h230v62h-242c-6 26 -12 52 -19 76h245v61h-263c-9 28 -19 53 -29 78h340v64z" />
</svg>
