<?xml version="1.0" standalone="no"?>
<!DOCTYPE svg PUBLIC "-//W3C//DTD SVG 1.1//EN" "http://www.w3.org/Graphics/SVG/1.1/DTD/svg11.dtd" >
<svg xmlns="http://www.w3.org/2000/svg" xmlns:xlink="http://www.w3.org/1999/xlink" version="1.1" viewBox="-10 0 1010 1000">
   <path fill="currentColor"
d="M769 183v77h81v-77h-81zM850 395v-77h-81v77h81zM709 395v-77h-151v-58h151v-77h-112v-57h112v-82h60v82h139v134h43v58h-43v134h-139v74h136v61h-136v78h154v61h-154v120h-60v-120h-149v-61h149v-78h-122v-61h122v-74h-112v-57h112zM135 149v173h138v-173h-138zM345 751
l10 59c-107 35 -217 69 -302 95l-15 -63l33 -9v-347h57v330l58 -16v-415h-110v-299h259v299h-88v148h97v64h-97v183zM516 405l37 9c-12 129 -33 236 -65 322c83 120 202 145 330 145c24 0 113 0 145 -1c-10 16 -20 46 -24 65h-126c-139 0 -262 -27 -352 -143
c-33 65 -73 116 -120 153c-10 -14 -33 -36 -48 -43c53 -40 96 -95 128 -169c-24 -44 -45 -98 -62 -163l55 -20c10 39 22 74 36 105c16 -57 29 -124 37 -199h-123c33 -75 74 -188 106 -287h-106v-63h192c-31 91 -72 205 -105 291h54z" />
</svg>
