<?xml version="1.0" standalone="no"?>
<!DOCTYPE svg PUBLIC "-//W3C//DTD SVG 1.1//EN" "http://www.w3.org/Graphics/SVG/1.1/DTD/svg11.dtd" >
<svg xmlns="http://www.w3.org/2000/svg" xmlns:xlink="http://www.w3.org/1999/xlink" version="1.1" viewBox="-10 0 1010 1000">
   <path fill="currentColor"
d="M902 488l41 47c-33 29 -74 58 -110 82c41 50 77 101 100 140l-51 36c-39 -72 -126 -187 -200 -272l46 -29c24 25 47 54 72 82c35 -26 77 -61 102 -86zM844 146h-196v95h196v-95zM648 396h196v-95h-196v95zM578 802l-4 4c-5 -18 -18 -54 -30 -72c16 -10 40 -30 40 -70
v-579h325v373h-261v239l112 -44c5 17 13 40 19 53c-151 65 -185 82 -201 96zM517 271l-55 29c-16 -47 -49 -121 -78 -175l52 -24c30 54 64 125 81 170zM145 149v173h142v-173h-142zM361 750l9 58c-111 35 -225 69 -314 97l-14 -64l35 -10v-346h57v330l63 -17v-413h-111v-299
h263v299h-92v148h101v64h-101v183zM501 385v408c16 10 33 25 59 43c46 32 103 41 179 41c63 0 165 -4 229 -13c-6 18 -14 52 -15 71c-52 4 -157 7 -216 7c-82 0 -140 -13 -190 -48c-33 -24 -58 -51 -77 -51c-22 0 -56 54 -87 111l-42 -61c33 -45 66 -83 96 -99v-348h-73v-61
h137z" />
</svg>
