<?xml version="1.0" standalone="no"?>
<!DOCTYPE svg PUBLIC "-//W3C//DTD SVG 1.1//EN" "http://www.w3.org/Graphics/SVG/1.1/DTD/svg11.dtd" >
<svg xmlns="http://www.w3.org/2000/svg" xmlns:xlink="http://www.w3.org/1999/xlink" version="1.1" viewBox="-10 0 1010 1000">
   <path fill="currentColor"
d="M878 68l48 43c-49 32 -110 64 -156 85l-38 -36c46 -23 110 -63 146 -92zM738 255l29 -42c58 24 135 62 173 87l-30 49c-38 -27 -114 -67 -172 -94zM597 147l-27 52c-30 -22 -91 -54 -138 -76l26 -46c47 19 109 49 139 70zM587 217l10 49c-57 28 -113 56 -165 80l-25 -58
c46 -17 112 -43 180 -71zM152 151v176h168v-176h-168zM285 602v179c45 -12 91 -24 135 -35l8 64c-130 36 -269 72 -370 99l-16 -70l45 -10v-344h62v329l70 -16v-407h-131v-304h300v304h-103v145h125v66h-125zM543 725h266v-77h-266v77zM809 514h-266v76h266v-76zM539 451
h284c-63 -40 -113 -96 -149 -165c-26 69 -66 123 -135 165zM642 44h70c-3 56 -7 107 -15 152c44 121 138 210 273 246c-15 13 -34 40 -43 57c-18 -6 -34 -12 -50 -19v397c0 37 -7 56 -33 67c-26 12 -67 12 -129 12c-3 -19 -13 -46 -22 -65c46 2 87 2 100 1s16 -4 16 -15v-94
h-266v173h-68v-473c-20 9 -42 17 -66 24c-8 -17 -27 -42 -41 -55c231 -64 263 -184 274 -408z" />
</svg>
