<?xml version="1.0" standalone="no"?>
<!DOCTYPE svg PUBLIC "-//W3C//DTD SVG 1.1//EN" "http://www.w3.org/Graphics/SVG/1.1/DTD/svg11.dtd" >
<svg xmlns="http://www.w3.org/2000/svg" xmlns:xlink="http://www.w3.org/1999/xlink" version="1.1" viewBox="-10 0 1010 1000">
   <path fill="currentColor"
d="M148 151v174h152v-174h-152zM367 749l9 64c-114 33 -236 67 -326 93l-18 -71c18 -4 37 -9 58 -14v-337h58v323l58 -15v-402h-119v-304h277v304h-95v138h106v66h-106v181zM558 204h-79v102h79v-102zM716 306v-102h-100v102h100zM864 365h-90v112h90v-112zM616 365v112h100
v-112h-100zM479 454v23h79v-112h-79v89zM925 536h-447c-5 138 -23 304 -84 421c-10 -11 -38 -31 -52 -39c67 -134 73 -325 73 -464v-314h231c-9 -26 -20 -56 -32 -80l61 -19c16 30 32 70 42 99h235v64h-178v102h151v230zM573 862l120 -28c0 18 2 43 4 58
c-135 35 -168 47 -184 57l-4 3v-1l-1 1v-4c-6 -18 -18 -46 -26 -62c14 -6 31 -19 31 -55v-269h60v93h117v59h-117v148zM804 889h80c22 0 26 -13 29 -101c13 11 36 21 53 26c-6 105 -23 133 -75 133h-95c-64 0 -80 -18 -80 -85v-300h60v125c46 -25 99 -57 133 -83l34 47
c-46 37 -115 73 -167 97v113c0 24 4 28 28 28z" />
</svg>
