<?xml version="1.0" standalone="no"?>
<!DOCTYPE svg PUBLIC "-//W3C//DTD SVG 1.1//EN" "http://www.w3.org/Graphics/SVG/1.1/DTD/svg11.dtd" >
<svg xmlns="http://www.w3.org/2000/svg" xmlns:xlink="http://www.w3.org/1999/xlink" version="1.1" viewBox="-10 0 1010 1000">
   <path fill="currentColor"
d="M479 46l63 20c-37 85 -98 182 -161 246c-9 -11 -28 -34 -41 -44c57 -58 112 -150 139 -222zM141 151v176h136v-176h-136zM483 262l63 18c-14 40 -32 82 -52 124v551h-62v-441c-19 30 -40 58 -61 82c-7 -10 -22 -27 -34 -39v44h-86v178l111 -29l8 62
c-111 32 -228 64 -316 88l-15 -67l40 -10v-338h56v325l56 -15v-403h-109v-306h256v306h-87v144h86v6c65 -76 119 -187 146 -280zM793 660v215c19 4 39 6 60 6c16 0 90 0 114 -1c-9 16 -18 47 -20 65h-99c-101 0 -178 -30 -228 -166c-16 68 -40 131 -77 177
c-11 -10 -31 -29 -46 -37c80 -100 89 -288 90 -410l63 3c-1 42 -4 91 -9 141c18 100 49 157 87 190v-430h-190v-62h61v-220h60v220h73v-302h62v121h129v60h-129v121h163v62h-164v185h136v62h-136z" />
</svg>
