<?xml version="1.0" standalone="no"?>
<!DOCTYPE svg PUBLIC "-//W3C//DTD SVG 1.1//EN" "http://www.w3.org/Graphics/SVG/1.1/DTD/svg11.dtd" >
<svg xmlns="http://www.w3.org/2000/svg" xmlns:xlink="http://www.w3.org/1999/xlink" version="1.1" viewBox="-10 0 1010 1000">
   <path fill="currentColor"
d="M422 55l55 20c-21 38 -46 74 -67 100l-50 -20c20 -27 47 -71 62 -100zM235 154l-56 24c-14 -27 -41 -70 -65 -101l53 -20c25 29 54 70 68 97zM244 565v70h511v-70h-511zM536 801v76c39 3 82 4 129 4c33 0 236 0 283 -1c-10 15 -20 42 -23 59h-261
c-196 0 -321 -20 -403 -112c-39 58 -92 101 -154 133c-10 -13 -38 -38 -55 -50c97 -42 165 -111 188 -213l72 8c-6 26 -14 50 -24 72c38 51 97 79 175 91v-181h-291v-174h657v174h-293v62h346v52h-346zM204 268l43 8c-9 57 -26 118 -48 157c-8 -5 -28 -14 -40 -18
c24 -42 37 -95 45 -147zM342 276l37 -9c21 42 39 98 45 131l-39 13c-6 -36 -23 -92 -43 -135zM645 195l-6 11c21 45 52 86 89 121c34 -37 62 -80 78 -132h-161zM945 195h-71c-21 69 -55 124 -98 171c52 37 115 65 186 81c-15 14 -33 37 -42 55c-71 -21 -135 -52 -189 -94
c-52 42 -113 74 -185 98c-6 -13 -24 -40 -36 -53c67 -21 126 -48 174 -85c-31 -33 -59 -69 -81 -108c-17 21 -34 41 -52 57c-10 -11 -33 -33 -49 -44v208h-57v-247h-120v245h-53v-245h-121v256h-57v-310h173v-136h63v136h172v91c64 -56 113 -138 140 -227l64 14
c-9 26 -18 51 -29 76h268v61z" />
</svg>
