<?xml version="1.0" standalone="no"?>
<!DOCTYPE svg PUBLIC "-//W3C//DTD SVG 1.1//EN" "http://www.w3.org/Graphics/SVG/1.1/DTD/svg11.dtd" >
<svg xmlns="http://www.w3.org/2000/svg" xmlns:xlink="http://www.w3.org/1999/xlink" version="1.1" viewBox="-10 0 1010 1000">
   <path fill="currentColor"
d="M180 130v265c0 158 -11 393 -86 549c-10 -12 -38 -33 -53 -39c68 -150 74 -360 74 -510v-318h816v53h-751zM538 435h-141c-18 47 -62 86 -155 114c-9 -13 -29 -33 -42 -43c70 -19 109 -44 130 -71h-102v-148h53v95h71c2 -12 3 -23 3 -36v-83h-147v-49h72
c-5 -19 -16 -42 -28 -60l49 -17c17 19 31 48 36 67l-26 10h113c14 -24 33 -58 41 -80l59 15c-13 23 -27 45 -41 65h83v49h-154v84c0 12 0 23 -2 35h73v-95h55v148zM639 132l58 11c-5 22 -12 46 -18 67h190l10 -3l40 12c-14 50 -33 107 -51 142l-49 -15c10 -22 21 -55 30 -86
h-189c-18 44 -39 84 -64 115c-11 -9 -36 -22 -51 -30c45 -54 76 -132 94 -213zM930 499l-44 38c-32 -36 -94 -92 -152 -139c-27 46 -83 99 -191 138c-9 -13 -30 -31 -44 -42c182 -54 203 -141 203 -182v-28h59v29c0 9 -1 21 -5 36c61 47 135 109 174 150zM335 594v64h415
v-64h-415zM589 806v69c32 1 68 2 105 2c30 1 212 0 257 -1c-9 15 -19 43 -22 61h-238c-174 0 -288 -15 -365 -90c-28 39 -65 71 -106 97c-11 -14 -38 -37 -55 -48c71 -37 121 -93 142 -165l72 8c-6 21 -14 41 -23 59c36 40 90 60 159 69v-160h-251v-162h560v162h-235v50h276
v49h-276z" />
</svg>
