<?xml version="1.0" standalone="no"?>
<!DOCTYPE svg PUBLIC "-//W3C//DTD SVG 1.1//EN" "http://www.w3.org/Graphics/SVG/1.1/DTD/svg11.dtd" >
<svg xmlns="http://www.w3.org/2000/svg" xmlns:xlink="http://www.w3.org/1999/xlink" version="1.1" viewBox="-10 0 1010 1000">
   <path fill="currentColor"
d="M141 151v174h168v-174h-168zM378 735l8 64c-117 38 -241 77 -331 107l-17 -71l44 -12v-339h55v324l61 -19v-399h-116v-304h287v304h-111v138h115v66h-115v177zM491 718l68 16c-29 68 -79 137 -128 181c-13 -11 -41 -30 -58 -39c49 -40 93 -98 118 -158zM764 744l59 -28
c45 50 96 120 118 165l-63 33c-21 -45 -71 -117 -114 -170zM795 497v-71h-261v71h261zM795 621v-72h-261v72h261zM691 214h-49c-25 60 -55 112 -92 158h236c-38 -47 -71 -102 -95 -158zM883 235l52 36c-26 27 -55 55 -83 76c34 36 73 67 113 86c-16 13 -37 36 -48 54
c-20 -11 -38 -24 -56 -39v228h-162v206c0 34 -6 52 -32 63c-24 10 -62 11 -115 11c-3 -20 -12 -45 -23 -63c42 1 76 1 86 0c11 -1 14 -3 14 -13v-204h-159v-224c-18 13 -35 26 -55 39c-9 -14 -32 -39 -47 -52c44 -24 81 -54 114 -91c-20 -23 -49 -51 -73 -72l43 -40
c24 17 50 41 70 62c18 -25 34 -54 48 -84h-156v-64h180c12 -33 20 -70 27 -107l68 9c-7 34 -15 67 -25 98h276v64h-182c16 31 35 63 58 91c24 -23 50 -50 67 -70z" />
</svg>
