<?xml version="1.0" standalone="no"?>
<!DOCTYPE svg PUBLIC "-//W3C//DTD SVG 1.1//EN" "http://www.w3.org/Graphics/SVG/1.1/DTD/svg11.dtd" >
<svg xmlns="http://www.w3.org/2000/svg" xmlns:xlink="http://www.w3.org/1999/xlink" version="1.1" viewBox="-10 0 1010 1000">
   <path fill="currentColor"
d="M134 149v173h119v-173h-119zM318 768l7 59c-95 28 -193 56 -270 78l-13 -64l33 -8v-348h54v334l48 -13v-422h-99v-298h233v298h-77v149h76v64h-76v194zM483 668h160s0 18 -1 28c-11 154 -22 214 -42 236c-14 15 -29 21 -50 22c-17 2 -49 2 -83 0c-1 -18 -7 -41 -15 -56
c31 2 58 3 69 3c12 0 20 -1 26 -9c11 -13 21 -57 29 -167h-101c-17 103 -54 181 -136 233c-8 -15 -27 -36 -42 -47c99 -60 120 -163 126 -312h-83v-60h137c-8 -21 -19 -45 -28 -63l64 -15c14 24 29 55 38 78h118v60h-181c-1 24 -3 47 -5 69zM754 317l-5 17
c13 98 32 191 56 274c27 -86 44 -184 55 -291h-106zM579 264v-82h-161v82h161zM579 398v-82h-161v82h161zM961 317h-41c-15 143 -40 275 -82 386c35 83 80 153 136 200c-17 13 -40 37 -52 56c-47 -45 -87 -106 -118 -177c-35 73 -80 133 -134 175c-11 -16 -34 -39 -51 -52
c66 -46 116 -117 154 -206c-26 -77 -46 -164 -61 -256c-12 29 -25 55 -40 79c-9 -12 -35 -37 -50 -47c4 -7 9 -14 13 -22h-278v-325h92c7 -29 12 -61 16 -85l73 8c-8 25 -17 52 -24 77h129v309c51 -101 77 -243 92 -392l65 8c-8 68 -18 135 -30 197h191v67z" />
</svg>
