<?xml version="1.0" standalone="no"?>
<!DOCTYPE svg PUBLIC "-//W3C//DTD SVG 1.1//EN" "http://www.w3.org/Graphics/SVG/1.1/DTD/svg11.dtd" >
<svg xmlns="http://www.w3.org/2000/svg" xmlns:xlink="http://www.w3.org/1999/xlink" version="1.1" viewBox="-10 0 1010 1000">
   <path fill="currentColor"
d="M302 177v-37h-221v-51h221v-45h72v45h247v-45h72v45h230v51h-230v37h-72v-37h-247v37h-72zM241 641v53h528v-53h-528zM533 444v50l109 -3c-13 -10 -25 -20 -38 -29l51 -18c42 27 89 68 111 102c20 0 36 0 43 -1c9 0 11 -3 11 -11v-90h-287zM249 328h214v-35h-214v35z
M249 224v34h214v-34h-214zM753 258v-34h-220v34h220zM753 328v-35h-220v35h220zM535 827v59c41 2 85 3 134 3c31 0 243 0 289 -1c-9 12 -19 38 -22 54h-268c-200 0 -325 -16 -409 -97c-43 51 -104 87 -169 112c-10 -12 -38 -38 -54 -49c96 -30 174 -79 199 -158l73 8
c-5 17 -12 32 -20 47c38 41 97 63 174 74v-140h-292v-141h-56v-199h349v-33h-284v-180h646v180h-292v33h359v134c0 29 -6 41 -26 50c-21 8 -52 8 -102 8c-3 -12 -10 -26 -17 -37l-34 13c-7 -10 -16 -22 -27 -33c-165 6 -332 12 -451 14l-4 -49c63 -1 144 -2 232 -4v-51h-279
v152h660v143h-309v42h340v46h-340z" />
</svg>
