<?xml version="1.0" standalone="no"?>
<!DOCTYPE svg PUBLIC "-//W3C//DTD SVG 1.1//EN" "http://www.w3.org/Graphics/SVG/1.1/DTD/svg11.dtd" >
<svg xmlns="http://www.w3.org/2000/svg" xmlns:xlink="http://www.w3.org/1999/xlink" version="1.1" viewBox="-10 0 1010 1000">
   <path fill="currentColor"
d="M918 256l-56 25c-28 -33 -78 -79 -132 -122c42 -39 85 -85 109 -116l64 18c-29 34 -64 68 -96 97c43 31 86 69 111 98zM484 655l22 -39c32 10 72 28 92 43l-23 43c-21 -16 -61 -36 -91 -47zM478 762l23 -38c33 10 74 31 94 46l-24 43c-22 -17 -63 -39 -93 -51zM841 504
v-169h-378v169h49c-6 -9 -22 -28 -31 -36c43 -13 88 -29 131 -48c-34 -14 -69 -28 -100 -39l28 -33c39 14 81 30 122 49c33 -19 64 -38 86 -60l45 14c-23 23 -53 46 -87 67c38 17 72 36 98 52l-26 34h63zM516 504h257c-29 -18 -69 -40 -113 -61c-46 25 -97 45 -144 61z
M907 284v272h-507v-272h507zM727 253l-58 23c-23 -32 -65 -77 -113 -118c37 -40 76 -85 99 -115l63 18c-27 33 -58 65 -87 95c38 32 75 69 96 97zM546 258l-59 22c-20 -32 -59 -78 -104 -121c35 -40 69 -85 90 -116l63 17c-25 34 -52 68 -79 98c35 33 70 71 89 100zM134 149
v173h142v-173h-142zM248 790l105 -31l9 59c-109 35 -222 69 -309 97l-15 -64l33 -9v-357h57v341l60 -18v-423h-113v-299h262v299h-89v148h101v64h-101v193zM466 876l111 -32c0 16 1 37 4 49c-138 46 -160 56 -173 66c-5 -14 -20 -40 -29 -52c12 -8 26 -25 26 -65v-261h61
v295zM671 878l126 -34c0 16 1 38 3 50c-149 47 -173 56 -187 67c-5 -15 -19 -40 -29 -53c12 -8 26 -25 26 -64v-262h61v296zM682 765l22 -40c34 11 78 33 99 48l-23 44c-23 -17 -65 -41 -98 -52zM685 656l21 -39c35 10 78 31 100 47l-23 43c-23 -17 -65 -39 -98 -51z
M812 578h62c-4 227 9 321 29 321c13 0 18 -16 21 -73c12 11 29 21 42 25c-7 86 -26 108 -67 108c-70 0 -86 -126 -87 -381z" />
</svg>
