<?xml version="1.0" standalone="no"?>
<!DOCTYPE svg PUBLIC "-//W3C//DTD SVG 1.1//EN" "http://www.w3.org/Graphics/SVG/1.1/DTD/svg11.dtd" >
<svg xmlns="http://www.w3.org/2000/svg" xmlns:xlink="http://www.w3.org/1999/xlink" version="1.1" viewBox="-10 0 1010 1000">
   <path fill="currentColor"
d="M825 251h-69c-7 51 -21 106 -50 149c-10 -11 -34 -29 -48 -35c40 -59 45 -133 45 -188v-81c67 -11 145 -27 192 -46l38 50c-50 18 -114 30 -173 39v40v14h195v58h-77v143h-53v-143zM525 682v63h305v-63h-305zM525 573v61h305v-61h-305zM525 465v60h305v-60h-305zM461 795
v-380h436v380h-436zM559 249h-65c-5 53 -19 111 -48 157c-10 -10 -34 -29 -48 -35c39 -61 43 -137 43 -192v-85c66 -11 143 -28 188 -46l38 50c-48 18 -111 31 -169 39v42v12h176v58h-62v144h-53v-144zM147 149v174h170v-174h-170zM393 738l9 64c-121 36 -249 73 -344 102
l-20 -70c16 -4 32 -8 50 -13v-339h58v324l61 -17v-401h-120v-304h293v304h-111v138h113v66h-113v180zM576 801l55 46c-75 37 -172 79 -241 108c-7 -15 -23 -39 -34 -53c67 -27 165 -69 220 -101zM723 847l29 -46c76 33 159 74 211 105l-34 52c-50 -32 -133 -76 -206 -111z
" />
</svg>
