<?xml version="1.0" standalone="no"?>
<!DOCTYPE svg PUBLIC "-//W3C//DTD SVG 1.1//EN" "http://www.w3.org/Graphics/SVG/1.1/DTD/svg11.dtd" >
<svg xmlns="http://www.w3.org/2000/svg" xmlns:xlink="http://www.w3.org/1999/xlink" version="1.1" viewBox="-10 0 1010 1000">
   <path fill="currentColor"
d="M774 664l39 -35c50 24 112 61 145 89l-40 40c-31 -28 -94 -68 -144 -94zM575 346v48h104v-48h-104zM575 261v46h104v-46h-104zM839 307v-46h-107v46h107zM839 394v-48h-107v48h107zM737 523v46h216v48h-479v-48h200v-46h-161v-46h161v-43h-157v-213h381v213h-161v43h167
v46h-167zM484 759l-33 -40c47 -24 116 -66 156 -96l40 43c-49 36 -114 71 -163 93zM134 149v173h139v-173h-139zM339 748l10 58c-104 35 -212 71 -296 99l-15 -64l33 -10v-345h57v328l58 -17v-412h-111v-299h260v299h-89v148h97v64h-97v180zM462 187v226
c0 159 -13 386 -98 541c-13 -11 -41 -29 -57 -35c82 -149 90 -355 90 -506v-287h256c-8 -25 -22 -52 -36 -74l67 -16c20 27 37 64 46 90h218v61h-486zM738 823v59h216v51h-510v-51h229v-59h-171v-48h171v-78h65v78h171v48h-171z" />
</svg>
