<?xml version="1.0" standalone="no"?>
<!DOCTYPE svg PUBLIC "-//W3C//DTD SVG 1.1//EN" "http://www.w3.org/Graphics/SVG/1.1/DTD/svg11.dtd" >
<svg xmlns="http://www.w3.org/2000/svg" xmlns:xlink="http://www.w3.org/1999/xlink" version="1.1" viewBox="-10 0 1010 1000">
   <path fill="currentColor"
d="M140 165v177h127v-177h-127zM436 188v235c0 156 -13 382 -103 535c-11 -13 -38 -33 -54 -39c19 -32 34 -67 46 -104c-96 31 -195 60 -271 85l-16 -67c14 -3 28 -7 44 -12v-340h51v327l55 -16v-387h-105v-304h244v304h-81v126h86v66h-86v178l84 -24l5 32
c33 -120 37 -254 37 -360v-299h263c-7 -23 -17 -46 -26 -66l60 -19c14 25 28 59 36 85h243v64h-512zM615 204v59h102v52h-102v59h79v52h-220v-52h82v-59h-100v-52h100v-59h59zM822 726l-52 13c-3 -55 -25 -144 -53 -213l49 -12c29 69 52 157 56 212zM560 821l-49 13
c1 -40 -12 -100 -27 -147l46 -10c17 47 30 107 30 144zM640 614v-87h-116v87h116zM690 476v189h-214v-189h214zM642 823l83 -15l4 53c-101 20 -203 42 -284 59l-12 -59c43 -8 99 -18 161 -30c12 -47 24 -113 29 -159l54 13c-11 45 -23 96 -35 138zM958 386v59h-57v437
c0 36 -8 53 -29 64c-22 10 -56 12 -108 12c-3 -17 -11 -44 -19 -62c37 2 71 2 81 1c11 0 15 -3 15 -15v-437h-117v-59h117v-179h60v179h57z" />
</svg>
