<?xml version="1.0" standalone="no"?>
<!DOCTYPE svg PUBLIC "-//W3C//DTD SVG 1.1//EN" "http://www.w3.org/Graphics/SVG/1.1/DTD/svg11.dtd" >
<svg xmlns="http://www.w3.org/2000/svg" xmlns:xlink="http://www.w3.org/1999/xlink" version="1.1" viewBox="-10 0 1010 1000">
   <path fill="currentColor"
d="M864 272v221c0 32 -5 46 -28 55c-21 9 -55 9 -104 9c-2 -16 -8 -38 -15 -54c32 1 61 1 70 0c10 0 13 -3 13 -12v-219h-103v-52h248v52h-81zM925 84v52h-213v-52h213zM215 56l59 21c-44 49 -114 102 -171 134c-9 -12 -27 -33 -39 -43c53 -28 118 -73 151 -112zM590 132
h-109c-3 15 -7 29 -10 42h119v-42zM159 565v-235c-26 20 -53 37 -78 51c-6 -14 -22 -39 -32 -52c65 -33 141 -90 177 -141l55 20v-34h127c4 -13 7 -27 10 -42h-100v-40h109c3 -15 6 -30 8 -44l62 6c-2 13 -4 25 -7 38h159v82h56v40h-423c-17 21 -36 42 -58 62v289h-65z
M358 467h119v-48h-107c-4 17 -8 32 -12 48zM381 277v34h227v-34h-227zM543 565h-66v-58h-131l-59 1c8 -27 16 -59 23 -89h-39v-40h206v-31h-154v-108h344v108h-124v31h137v40h-137v48h150v40h-150v58zM242 633v54h527v-54h-527zM536 825v60c40 2 84 3 132 3
c32 1 243 0 289 0c-8 13 -18 38 -21 54h-269c-199 0 -324 -16 -407 -97c-43 51 -104 87 -170 113c-10 -13 -38 -39 -54 -49c97 -31 174 -81 200 -160l72 9c-5 16 -12 32 -20 47c39 41 97 62 174 73v-146h-292v-144h674v144h-308v46h339v47h-339z" />
</svg>
