<?xml version="1.0" standalone="no"?>
<!DOCTYPE svg PUBLIC "-//W3C//DTD SVG 1.1//EN" "http://www.w3.org/Graphics/SVG/1.1/DTD/svg11.dtd" >
<svg xmlns="http://www.w3.org/2000/svg" xmlns:xlink="http://www.w3.org/1999/xlink" version="1.1" viewBox="-10 0 1010 1000">
   <path fill="currentColor"
d="M481 164h-76c-9 19 -20 37 -32 52c-9 -8 -30 -22 -43 -29c30 -35 49 -83 59 -132l51 10c-4 17 -9 33 -15 50h56v-72h58v72h76v49h-76v69h83v52h-57v90l71 -35c1 14 4 33 7 43c-103 58 -123 70 -134 81c-4 -12 -15 -34 -22 -43c11 -7 27 -21 27 -61v-75h-41
c-7 90 -30 153 -99 190c-6 -12 -23 -31 -33 -40c54 -29 73 -77 78 -150h-71v-52h133v-69zM891 782h-70v-220h-350v220h-66v-280h486v280zM137 151v174h119v-174h-119zM344 756l8 62c-105 31 -214 62 -298 86l-15 -68l43 -11v-340h55v326l52 -13v-408h-111v-304h239v304h-69
v144h93v64h-93v184zM676 606v108c0 102 -56 193 -310 243c-6 -16 -24 -46 -36 -58c237 -44 278 -110 278 -188v-105h68zM676 850l36 -49c78 26 183 70 237 101l-37 54c-52 -30 -157 -77 -236 -106zM882 416h17c6 0 11 0 14 -2c2 -1 6 -4 8 -9c2 -6 3 -22 4 -40
c9 8 26 18 40 22c-1 23 -4 48 -9 56c-4 10 -13 17 -22 21c-9 3 -22 5 -31 5h-34c-16 0 -32 -2 -42 -13c-11 -10 -13 -20 -13 -58v-112h-41c-8 92 -31 156 -104 194c-6 -13 -22 -33 -33 -40c59 -30 77 -80 83 -154h-72v-52h127v-70h-75c-10 19 -20 36 -32 51
c-9 -7 -31 -21 -44 -28c31 -35 49 -83 60 -132l50 10c-4 17 -9 33 -14 50h55v-73h58v73h100v49h-100v70h119v52h-85v115c0 5 0 10 3 12c2 2 7 3 13 3z" />
</svg>
