<?xml version="1.0" standalone="no"?>
<!DOCTYPE svg PUBLIC "-//W3C//DTD SVG 1.1//EN" "http://www.w3.org/Graphics/SVG/1.1/DTD/svg11.dtd" >
<svg xmlns="http://www.w3.org/2000/svg" xmlns:xlink="http://www.w3.org/1999/xlink" version="1.1" viewBox="-10 0 1010 1000">
   <path fill="currentColor"
d="M554 319v56l211 -12v-44h-211zM765 137h-211v46h211v-46zM554 227v48h211v-48h-211zM399 383l90 -5v-241h-78v-57h500v57h-79v223l93 -5l4 53l-97 5v54h-67v-50l-362 20zM141 150v176h138v-176h-138zM350 748l9 61c-106 34 -216 67 -302 92l-17 -67l39 -10v-339h57v323
l57 -15v-403h-111v-305h259v305h-87v138h95v65h-95v182zM746 818l112 -6v-64h-112v70zM858 538h-112v56h112v-56zM746 642v58h112v-58h-112zM452 809l104 -12v-51h-104v63zM556 536h-104v56h104v-56zM452 640v58h104v-58h-104zM956 862l-41 2v92h-57v-90l-209 12l-3 -42
l-33 5v110h-57v-102c-77 11 -150 21 -210 30l-9 -56l59 -7v-280h-33v-54h281v54h-31v253l38 -5l2 40l37 -2v-284h-28v-53h287v53h-34v272l37 -2z" />
</svg>
