<?xml version="1.0" standalone="no"?>
<!DOCTYPE svg PUBLIC "-//W3C//DTD SVG 1.1//EN" "http://www.w3.org/Graphics/SVG/1.1/DTD/svg11.dtd" >
<svg xmlns="http://www.w3.org/2000/svg" xmlns:xlink="http://www.w3.org/1999/xlink" version="1.1" viewBox="-10 0 1010 1000">
   <path fill="currentColor"
d="M576 172v-51h-122v51h122zM576 268v-51h-122v51h122zM576 366v-53h-122v53h122zM636 74v339h-241v-339h241zM139 149v173h133v-173h-133zM256 786l99 -25l7 59c-108 31 -220 62 -307 85l-13 -63l33 -8v-348h59v333l60 -16v-419h-116v-298h257v298h-79v149h95v64h-95v189z
M869 172v-51h-123v51h123zM869 268v-51h-123v51h123zM869 366v-53h-123v53h123zM929 74v339h-241v-339h241zM492 789v69h171v-69h-171zM663 620v-63h-171v63h171zM663 737v-65h-171v65h171zM954 858v59h-462v40h-70v-309c-18 24 -37 45 -56 64c-11 -14 -37 -40 -53 -52
c67 -59 127 -151 161 -245l69 17c-9 24 -19 46 -30 69h154c-9 -24 -20 -52 -30 -74l59 -14c14 26 29 61 38 88h193v56h-198v63h178v52h-178v65h180v52h-180v69h225z" />
</svg>
