<?xml version="1.0" standalone="no"?>
<!DOCTYPE svg PUBLIC "-//W3C//DTD SVG 1.1//EN" "http://www.w3.org/Graphics/SVG/1.1/DTD/svg11.dtd" >
<svg xmlns="http://www.w3.org/2000/svg" xmlns:xlink="http://www.w3.org/1999/xlink" version="1.1" viewBox="-10 0 1010 1000">
   <path fill="currentColor"
d="M942 77v53h-281v-53h281zM631 77v53h-255v-53h255zM704 510v-65h-99v65h99zM865 557h-103v77h103v-77zM605 634h99v-77h-99v77zM450 557v23c0 17 0 35 -1 54h99v-77h-98zM548 445h-98v65h98v-65zM138 149v173h131v-173h-131zM955 445h-193v65h164v171h-170v86
c48 -19 102 -43 136 -60l35 39c-49 26 -117 50 -171 66v58c0 21 4 24 30 24h88c22 0 26 -9 29 -79c12 9 36 17 52 21c-6 88 -23 110 -74 110h-101c-67 0 -83 -15 -83 -76v-189h-157v63h130v48h-130v87l128 -27c-1 17 1 41 3 54c-153 37 -179 46 -194 56
c-4 -16 -14 -48 -24 -65c12 -6 27 -20 27 -57v-159h-34c-8 92 -29 193 -82 269c-10 -11 -39 -29 -54 -34c20 -30 36 -62 47 -97c-107 31 -217 62 -302 86l-13 -64l33 -8v-347h57v332l60 -15v-418h-113v-299h251v299h-78v148h94v64h-94v190l98 -26l7 58
c26 -80 30 -169 30 -240v-189h244c-6 -14 -11 -28 -17 -41h-44v-131h-129v131h-53v-179h237v163l42 -12l10 20v-171h245v179h-56v-131h-135v131h-51c7 14 13 28 18 41h257v55zM469 252l40 -12c15 28 30 63 37 85l-42 15c-7 -24 -21 -61 -35 -88zM845 325l-43 16
c-8 -25 -24 -63 -40 -91l41 -13c16 29 34 65 42 88z" />
</svg>
