<?xml version="1.0" standalone="no"?>
<!DOCTYPE svg PUBLIC "-//W3C//DTD SVG 1.1//EN" "http://www.w3.org/Graphics/SVG/1.1/DTD/svg11.dtd" >
<svg xmlns="http://www.w3.org/2000/svg" xmlns:xlink="http://www.w3.org/1999/xlink" version="1.1" viewBox="-10 0 1010 1000">
   <path fill="currentColor"
d="M168 483v86h175v-86h-175zM343 207h-175v81h175v-81zM343 427v-82h-175v82h175zM763 878h107c30 0 35 -21 39 -145c14 12 41 24 59 29c-7 143 -25 182 -93 182h-120c-75 0 -94 -22 -94 -102v-200c-33 115 -99 224 -224 316c-10 -13 -25 -29 -39 -42c-6 8 -13 14 -22 19
c-24 11 -61 12 -123 12c-3 -18 -13 -47 -22 -64c44 1 84 1 95 0c13 0 17 -4 17 -18v-205c-73 89 -175 171 -268 226c-8 -14 -29 -44 -42 -58c96 -49 194 -122 259 -203h-240v-56h51v-421h86c11 -33 24 -75 30 -105l76 11c-14 32 -28 66 -42 94h156v718c0 9 -1 17 -2 24
c195 -153 219 -355 219 -535v-51h-121v145h-63v-212h184v-193h68v193h229v212h-66v-145h-163v51c0 24 0 48 -1 72h33v414c0 32 6 37 37 37z" />
</svg>
