<?xml version="1.0" standalone="no"?>
<!DOCTYPE svg PUBLIC "-//W3C//DTD SVG 1.1//EN" "http://www.w3.org/Graphics/SVG/1.1/DTD/svg11.dtd" >
<svg xmlns="http://www.w3.org/2000/svg" xmlns:xlink="http://www.w3.org/1999/xlink" version="1.1" viewBox="-10 0 1010 1000">
   <path fill="currentColor"
d="M177 483v86h130v-86h-130zM307 202h-130v86h130v-86zM307 427v-82h-130v82h130zM367 148v724c0 35 -8 53 -32 64c-23 9 -61 10 -123 10c-3 -15 -13 -41 -21 -56c45 1 86 1 98 0c13 -1 18 -4 18 -18v-204c-60 84 -141 161 -218 214c-8 -13 -29 -40 -42 -53
c82 -50 164 -125 219 -206h-206v-54h57v-421h74c11 -33 24 -75 30 -105l70 10c-12 32 -27 67 -41 95h117zM634 491v-141c-54 62 -130 122 -202 157c-10 -17 -28 -42 -44 -54c75 -30 156 -89 208 -152h-181v-61h219v-84c-62 8 -124 14 -182 18c-3 -15 -12 -39 -21 -54
c142 -12 313 -35 404 -65l54 51c-50 16 -113 29 -181 40v94h217v61h-173c53 59 130 117 195 149c-16 10 -37 33 -48 49c-62 -37 -136 -100 -191 -163v155h-74zM765 657h-156c-17 29 -33 58 -48 82c41 15 84 32 126 49c37 -35 61 -78 78 -131zM610 498l68 12
c-11 27 -25 57 -38 86h291v61h-92c-17 65 -46 118 -87 161c61 28 116 57 155 83l-48 52c-38 -27 -96 -60 -160 -90c-63 44 -148 74 -260 95c-7 -18 -21 -43 -33 -57c96 -14 169 -36 225 -71c-56 -24 -114 -47 -167 -64c22 -31 47 -69 69 -109h-121v-61h153
c17 -33 33 -68 45 -98z" />
</svg>
