<?xml version="1.0" standalone="no"?>
<!DOCTYPE svg PUBLIC "-//W3C//DTD SVG 1.1//EN" "http://www.w3.org/Graphics/SVG/1.1/DTD/svg11.dtd" >
<svg xmlns="http://www.w3.org/2000/svg" xmlns:xlink="http://www.w3.org/1999/xlink" version="1.1" viewBox="-10 0 1010 1000">
   <path fill="currentColor"
d="M168 483v86h176v-86h-176zM344 207h-176v81h176v-81zM344 427v-82h-176v82h176zM409 148v718c0 38 -9 57 -33 69c-24 11 -61 12 -123 12c-2 -18 -13 -47 -22 -64c44 1 85 1 96 0c12 0 17 -4 17 -18v-207c-73 91 -175 173 -269 228c-8 -14 -29 -44 -42 -58
c96 -48 194 -122 259 -203h-240v-56h51v-421h86c11 -33 24 -75 31 -105l75 11c-14 32 -28 66 -42 94h156zM810 739l-40 50c-17 -23 -64 -70 -100 -104v243h-61v-255c-43 83 -98 164 -151 212c-7 -18 -22 -45 -32 -60c60 -53 127 -147 167 -233h-132v-57h148v-225h61v225h141
v57h-141v33c29 22 118 95 140 114zM749 344l54 19c-21 52 -44 112 -65 151l-44 -16c19 -42 43 -109 55 -154zM581 187h354s-1 29 -1 39c-5 491 -9 643 -36 687c-17 27 -35 36 -61 40c-26 3 -64 3 -103 1c-1 -21 -8 -51 -20 -71c39 3 75 3 90 3c14 1 22 -2 30 -17
c20 -30 26 -179 30 -615h-312c-18 41 -40 79 -63 113l39 -11c21 44 39 103 45 140l-48 16c-5 -39 -21 -94 -40 -140c-6 9 -13 17 -19 25c-12 -12 -39 -35 -56 -46c65 -74 115 -189 143 -308l69 15c-11 44 -26 88 -41 129z" />
</svg>
