<?xml version="1.0" standalone="no"?>
<!DOCTYPE svg PUBLIC "-//W3C//DTD SVG 1.1//EN" "http://www.w3.org/Graphics/SVG/1.1/DTD/svg11.dtd" >
<svg xmlns="http://www.w3.org/2000/svg" xmlns:xlink="http://www.w3.org/1999/xlink" version="1.1" viewBox="-10 0 1010 1000">
   <path fill="currentColor"
d="M878 83l68 24c-36 67 -78 145 -114 196l-54 -22c34 -52 77 -138 100 -198zM169 486v83h156v-83h-156zM325 211h-156v81h156v-81zM325 430v-82h-156v82h156zM391 152v727c0 35 -8 54 -30 65c-22 12 -55 13 -106 13c-3 -18 -13 -47 -23 -64c36 1 69 1 78 1
c11 -1 15 -4 15 -16v-238c-59 111 -149 212 -243 278c-8 -13 -30 -40 -44 -52c87 -56 169 -143 222 -236h-212v-61h56v-417h88c13 -34 27 -77 33 -109l79 11c-14 33 -31 69 -45 98h132zM599 274l-61 29c-14 -53 -51 -134 -88 -194l57 -25c40 59 77 139 92 190zM738 535h-93
v169h93v-169zM791 756h-146v56h-51v-330h197v274zM921 333v544c0 35 -8 56 -32 67c-23 12 -58 13 -115 12c-3 -18 -13 -47 -23 -65c40 2 77 1 87 1c12 -1 16 -4 16 -15v-481h-325v560h-66v-623h195v-290h67v290h196z" />
</svg>
