<?xml version="1.0" standalone="no"?>
<!DOCTYPE svg PUBLIC "-//W3C//DTD SVG 1.1//EN" "http://www.w3.org/Graphics/SVG/1.1/DTD/svg11.dtd" >
<svg xmlns="http://www.w3.org/2000/svg" xmlns:xlink="http://www.w3.org/1999/xlink" version="1.1" viewBox="-10 0 1010 1000">
   <path fill="currentColor"
d="M161 483v86h161v-86h-161zM322 207h-161v81h161v-81zM322 427v-82h-161v82h161zM383 148v718c0 38 -8 57 -31 69c-23 11 -59 12 -119 12c-2 -18 -13 -47 -21 -64c42 1 83 1 93 0c12 0 17 -4 17 -18v-194c-69 82 -162 156 -247 207c-8 -14 -28 -44 -41 -58
c91 -46 187 -118 250 -196h-233v-55h50v-421h90c12 -33 25 -75 31 -105l72 11c-13 32 -28 66 -41 94h130zM871 590l52 45c-43 38 -95 78 -140 108c53 61 115 112 180 143c-16 14 -38 40 -49 59c-130 -72 -243 -217 -306 -378h-67v288l151 -50c0 18 3 46 5 60
c-155 56 -204 76 -226 89l-12 9v-1l-1 1v-5c-5 -20 -17 -53 -28 -70c18 -7 40 -21 40 -57v-264h-55v-65h80v-412h422v61h-352v78h313v56h-313v78h318v57h-318v82h388v65h-281c20 46 47 91 77 132c43 -33 91 -77 122 -109z" />
</svg>
