<?xml version="1.0" standalone="no"?>
<!DOCTYPE svg PUBLIC "-//W3C//DTD SVG 1.1//EN" "http://www.w3.org/Graphics/SVG/1.1/DTD/svg11.dtd" >
<svg xmlns="http://www.w3.org/2000/svg" xmlns:xlink="http://www.w3.org/1999/xlink" version="1.1" viewBox="-10 0 1010 1000">
   <path fill="currentColor"
d="M138 492v98h88v-98h-88zM138 344v96h88v-96h-88zM359 440v-96h-79v96h79zM359 590v-98h-79v98h79zM287 645v78h161v65h-161v169h-67v-169h-173v-65h173v-78h-142v-356h141v-75h-163v-64h163v-106h67v106h159v64h-159v75h134v356h-133zM635 742l48 -14
c32 61 70 142 88 191l-50 17c-18 -49 -55 -132 -86 -194zM557 420h154c-5 -77 -8 -160 -10 -246c-48 9 -97 19 -144 27v219zM937 486h-156c17 222 51 380 96 381c15 1 27 -52 34 -144c12 14 38 30 49 36c-17 151 -50 192 -84 191c-95 -1 -140 -191 -160 -464h-159v378
l117 -29c-1 17 0 43 2 56c-153 43 -179 53 -193 63c-5 -16 -16 -45 -27 -60c15 -6 33 -19 33 -58v-684c132 -22 283 -57 367 -92l60 54c-44 15 -95 31 -150 44c2 92 5 181 10 262h161v66z" />
</svg>
