<?xml version="1.0" standalone="no"?>
<!DOCTYPE svg PUBLIC "-//W3C//DTD SVG 1.1//EN" "http://www.w3.org/Graphics/SVG/1.1/DTD/svg11.dtd" >
<svg xmlns="http://www.w3.org/2000/svg" xmlns:xlink="http://www.w3.org/1999/xlink" version="1.1" viewBox="-10 0 1010 1000">
   <path fill="currentColor"
d="M865 606l66 26c-83 154 -239 264 -438 325c-8 -19 -27 -44 -44 -60c188 -51 340 -153 416 -291zM716 307l63 24c-58 85 -151 165 -239 215c-11 -14 -31 -33 -49 -46c83 -43 176 -120 225 -193zM798 449l63 26c-70 105 -186 200 -304 257c-11 -16 -31 -38 -48 -52
c112 -49 227 -137 289 -231zM353 440v-95h-79v95h79zM353 590v-96h-79v96h79zM137 494v96h80v-96h-80zM137 345v95h80v-95h-80zM683 43l70 20l-18 36c56 89 151 181 237 228c-18 15 -42 42 -54 60c-75 -49 -158 -136 -219 -226c-60 93 -140 174 -236 233
c-11 -15 -32 -37 -49 -50v302h-134v77h149v65h-149v168h-69v-168h-164v-65h164v-77h-134v-357h134v-75h-155v-64h155v-106h69v106h150v64h-150v75h134v51c122 -72 220 -183 269 -297z" />
</svg>
