<?xml version="1.0" standalone="no"?>
<!DOCTYPE svg PUBLIC "-//W3C//DTD SVG 1.1//EN" "http://www.w3.org/Graphics/SVG/1.1/DTD/svg11.dtd" >
<svg xmlns="http://www.w3.org/2000/svg" xmlns:xlink="http://www.w3.org/1999/xlink" version="1.1" viewBox="-10 0 1010 1000">
   <path fill="currentColor"
d="M318 435h145v-48h73v48h145c-28 -21 -53 -45 -75 -68h-218c-21 24 -45 47 -70 68zM749 574h-213v50h213v-50zM749 717v-50h-213v50h213zM261 717h202v-50h-202v50zM261 574v50h202v-50h-202zM728 485h-192v45h286v231h-286v46h393v54h-393v97h-73v-97h-391v-54h391v-46
h-273v-231h273v-45h-189v-16c-56 41 -118 75 -183 102c-11 -14 -37 -42 -53 -54c97 -34 187 -85 257 -150h-239v-58h292c14 -18 27 -35 38 -54c-154 7 -183 10 -205 18c-3 -14 -14 -48 -21 -65c19 -3 42 -13 68 -28c31 -15 126 -74 195 -138l67 33c-57 45 -118 88 -178 122
l380 -14c-35 -28 -73 -57 -108 -79l57 -35c81 51 180 127 227 182l-61 38c-13 -15 -30 -32 -50 -51l-289 13c-11 21 -23 39 -34 58h510v58h-250c70 60 175 113 271 141c-16 12 -37 38 -48 54c-63 -20 -129 -54 -189 -93v16z" />
</svg>
