<?xml version="1.0" standalone="no"?>
<!DOCTYPE svg PUBLIC "-//W3C//DTD SVG 1.1//EN" "http://www.w3.org/Graphics/SVG/1.1/DTD/svg11.dtd" >
<svg xmlns="http://www.w3.org/2000/svg" xmlns:xlink="http://www.w3.org/1999/xlink" version="1.1" viewBox="-10 0 1010 1000">
   <path fill="currentColor"
d="M765 185l-62 34c-18 -38 -59 -103 -90 -150l59 -27c32 45 73 107 93 143zM138 494v96h85v-96h-85zM138 345v95h85v-95h-85zM366 440v-95h-84v95h84zM366 590v-96h-84v96h84zM288 646v77h164v65h-164v168h-71v-168h-172v-65h172v-77h-141v-357h141v-75h-163v-64h163v-106
h72v106h162v64h-162v75h142v357h-143zM741 858h216v67h-496v-67h207v-263h-162v-67h162v-229h-189v-67h461v67h-199v229h175v67h-175v263z" />
</svg>
