<?xml version="1.0" standalone="no"?>
<!DOCTYPE svg PUBLIC "-//W3C//DTD SVG 1.1//EN" "http://www.w3.org/Graphics/SVG/1.1/DTD/svg11.dtd" >
<svg xmlns="http://www.w3.org/2000/svg" xmlns:xlink="http://www.w3.org/1999/xlink" version="1.1" viewBox="-10 0 1010 1000">
   <path fill="currentColor"
d="M137 489v91h95v-91h-95zM137 347v89h95v-89h-95zM387 436v-89h-100v89h100zM387 580v-91h-100v91h100zM294 636v81h182v66h-182v174h-67v-174h-184v-66h184v-81h-146v-345h146v-74h-174v-65h174v-108h67v108h170v65h-170v74h152v345h-152zM740 834h121v-231h-121v231z
M561 603v231h113v-231h-113zM674 322h-113v213h113v-213zM861 535v-213h-121v213h121zM742 255h186v694h-67v-48h-300v55h-65v-701h176v-211h70v211z" />
</svg>
