<?xml version="1.0" standalone="no"?>
<!DOCTYPE svg PUBLIC "-//W3C//DTD SVG 1.1//EN" "http://www.w3.org/Graphics/SVG/1.1/DTD/svg11.dtd" >
<svg xmlns="http://www.w3.org/2000/svg" xmlns:xlink="http://www.w3.org/1999/xlink" version="1.1" viewBox="-10 0 1010 1000">
   <path fill="currentColor"
d="M944 288l-60 33c-28 -62 -92 -162 -151 -236l57 -28c59 71 125 168 154 231zM598 61l67 19c-39 96 -100 193 -158 257c-13 -12 -41 -34 -58 -44c59 -58 115 -146 149 -232zM136 494v96h80v-96h-80zM136 345v95h80v-95h-80zM355 440v-95h-82v95h82zM355 590v-96h-82v96h82
zM278 646v77h158v65h-158v168h-67v-168h-164v-65h164v-77h-134v-357h133v-75h-154v-64h154v-106h68v106h156v64h-156v75h138v357h-138zM535 581h323c-63 -64 -116 -138 -162 -234c-42 90 -97 170 -161 234zM576 849h239v-202h-239v202zM676 219l63 20c-4 11 -7 21 -11 31
c60 144 137 236 238 310c-16 14 -37 37 -46 57c-12 -11 -24 -21 -36 -31v347h-69v-36h-239v40h-66v-352c-14 11 -27 22 -41 33c-12 -18 -32 -41 -49 -56c113 -77 207 -215 256 -363z" />
</svg>
