<?xml version="1.0" standalone="no"?>
<!DOCTYPE svg PUBLIC "-//W3C//DTD SVG 1.1//EN" "http://www.w3.org/Graphics/SVG/1.1/DTD/svg11.dtd" >
<svg xmlns="http://www.w3.org/2000/svg" xmlns:xlink="http://www.w3.org/1999/xlink" version="1.1" viewBox="-10 0 1010 1000">
   <path fill="currentColor"
d="M134 490v91h76v-91h-76zM134 347v89h76v-89h-76zM351 436v-89h-83v89h83zM351 581v-91h-83v91h83zM434 783h-161v174h-68v-174h-162v-65h162v-81h-129v-346h129v-76h-150v-63h150v-108h68v108h152v63h-152v76h139v346h-139v81h161v65zM944 668h-188
c55 74 139 149 212 187c-15 13 -37 38 -49 55c-68 -43 -145 -120 -200 -199v244h-69v-248c-57 86 -139 165 -217 209c-9 -16 -30 -39 -45 -51c81 -39 167 -116 222 -197h-175v-63h215v-76c-16 1 -34 0 -54 0c-3 -17 -12 -38 -20 -54c44 1 82 1 94 0c10 0 14 -3 14 -13v-127
c-56 71 -139 141 -211 179c-10 -15 -29 -37 -43 -49c68 -29 146 -87 199 -147h-184v-58h247c-42 -24 -92 -47 -134 -63l42 -39c30 11 64 26 95 41c30 -17 61 -40 87 -62h-293v-58h356l15 -3l44 32c-42 44 -100 87 -156 120c16 9 30 18 42 26l-6 6h113l12 -3l50 15
c-32 61 -69 130 -98 173l-59 -20c18 -28 41 -67 61 -107h-113v146c0 33 -7 47 -31 56l-9 3h9v82h225v63z" />
</svg>
