<?xml version="1.0" standalone="no"?>
<!DOCTYPE svg PUBLIC "-//W3C//DTD SVG 1.1//EN" "http://www.w3.org/Graphics/SVG/1.1/DTD/svg11.dtd" >
<svg xmlns="http://www.w3.org/2000/svg" xmlns:xlink="http://www.w3.org/1999/xlink" version="1.1" viewBox="-10 0 1010 1000">
   <path fill="currentColor"
d="M950 153l-45 38c-22 -31 -67 -77 -102 -106l43 -33c37 29 82 71 104 101zM129 494v96h68v-96h-68zM129 345v95h68v-95h-68zM320 440v-95h-71v95h71zM320 590v-96h-71v96h71zM393 788h-139v168h-62v-168h-145v-65h145v-77h-118v-357h118v-75h-137v-64h137v-106h62v106h137
v64h-137v75h122v357h-122v77h139v65zM656 540h-83v158h83v-158zM704 753h-131v64h-48v-333h179v269zM713 346v59h-201v-59h201zM872 375l58 12c-26 123 -61 232 -108 326c19 122 43 179 68 179c15 0 24 -35 29 -147c14 14 35 29 50 34c-10 150 -31 177 -85 178
c-47 0 -80 -58 -105 -170c-43 67 -94 125 -154 172c-7 -13 -28 -39 -41 -51c75 -54 133 -125 179 -210c-15 -110 -25 -253 -31 -428h-246v196c0 144 -14 350 -98 491c-9 -13 -32 -34 -46 -41c79 -132 87 -316 87 -450v-260h301c-1 -51 -2 -105 -3 -161h60c0 57 0 110 1 161
h168v64h-167c4 133 10 243 20 332c26 -69 48 -144 63 -227z" />
</svg>
