<?xml version="1.0" standalone="no"?>
<!DOCTYPE svg PUBLIC "-//W3C//DTD SVG 1.1//EN" "http://www.w3.org/Graphics/SVG/1.1/DTD/svg11.dtd" >
<svg xmlns="http://www.w3.org/2000/svg" xmlns:xlink="http://www.w3.org/1999/xlink" version="1.1" viewBox="-10 0 1010 1000">
   <path fill="currentColor"
d="M825 791v54h-332v-200h61v146h271zM688 563l55 7c-6 26 -15 49 -25 72c38 30 81 71 105 96l-40 38c-19 -24 -56 -60 -90 -89c-24 36 -55 68 -90 91c-7 -11 -25 -31 -37 -41c61 -39 104 -99 122 -174zM365 436v-89h-93v89h93zM365 580v-91h-93v91h93zM130 489v91h89v-91
h-89zM130 347v89h89v-89h-89zM566 275v82h264v-82h-264zM566 140v81h264v-81h-264zM608 488h332s-1 22 -1 31c-11 284 -23 377 -47 409c-15 19 -32 25 -55 27c-21 3 -56 2 -90 0c-1 -16 -7 -39 -16 -54c33 3 63 4 75 4c14 0 21 -2 28 -12c16 -22 28 -108 37 -345h-302
c-33 43 -71 84 -119 120c-6 -10 -17 -22 -29 -32h-142v81h164v64h-164v177h-67v-177h-169v-64h169v-81h-138v-345h138v-73h-157v-65h157v-109h67v109h155v65h-155v73h143v318c73 -58 124 -132 152 -195h-77v-331h404v331h-314l55 10c-10 21 -21 43 -34 64z" />
</svg>
