<?xml version="1.0" standalone="no"?>
<!DOCTYPE svg PUBLIC "-//W3C//DTD SVG 1.1//EN" "http://www.w3.org/Graphics/SVG/1.1/DTD/svg11.dtd" >
<svg xmlns="http://www.w3.org/2000/svg" xmlns:xlink="http://www.w3.org/1999/xlink" version="1.1" viewBox="-10 0 1010 1000">
   <path fill="currentColor"
d="M820 245v-95h-271v95h271zM820 401v-96h-271v96h271zM893 87v377h-415v-377h415zM136 494v96h79v-96h-79zM136 345v95h79v-95h-79zM351 440v-95h-79v95h79zM351 590v-96h-79v96h79zM421 788h-143v168h-69v-168h-163v-65h163v-77h-133v-357h133v-75h-154v-64h154v-106h69
v106h157v64h-157v75h134v357h-134v77h143v65zM514 619v242h72v-242h-72zM716 619h-72v242h72v-242zM848 619h-74v242h74v-242zM919 861h47v67h-573v-67h53v-308h473v308z" />
</svg>
