<?xml version="1.0" standalone="no"?>
<!DOCTYPE svg PUBLIC "-//W3C//DTD SVG 1.1//EN" "http://www.w3.org/Graphics/SVG/1.1/DTD/svg11.dtd" >
<svg xmlns="http://www.w3.org/2000/svg" xmlns:xlink="http://www.w3.org/1999/xlink" version="1.1" viewBox="-10 0 1010 1000">
   <path fill="currentColor"
d="M731 489v64l107 -2c-14 -15 -29 -31 -44 -44l35 -18h-98zM545 443h121v-62h-121v62zM545 275v61h121v-61h-121zM859 275h-128v61h128v-61zM859 443v-62h-128v62h128zM456 614l-5 -57c58 -1 133 -1 215 -3v-65h-182v-260h182v-54h-205v-59h205v-72h65v72h214v59h-214v54
h190v260h-70c45 38 89 89 112 124l-52 32c-7 -12 -17 -27 -29 -42c-157 5 -316 9 -426 11zM509 770l50 -30c40 33 80 81 99 115l-55 36c-18 -36 -57 -87 -94 -121zM133 489v91h93v-91h-93zM133 347v89h93v-89h-93zM372 436v-89h-93v89h93zM372 580v-91h-93v91h93zM836 619
v53h121v59h-121v153c0 36 -8 54 -35 63c-29 11 -72 11 -138 11c-3 -19 -13 -44 -22 -62c50 2 95 2 109 1s17 -3 17 -14v-152h-313v52h-169v174h-66v-174h-177v-66h177v-81h-141v-345h141v-74h-164v-65h164v-108h66v108h155v65h-155v74h144v345h-144v81h165v-45h317v-53h69z
" />
</svg>
