<?xml version="1.0" standalone="no"?>
<!DOCTYPE svg PUBLIC "-//W3C//DTD SVG 1.1//EN" "http://www.w3.org/Graphics/SVG/1.1/DTD/svg11.dtd" >
<svg xmlns="http://www.w3.org/2000/svg" xmlns:xlink="http://www.w3.org/1999/xlink" version="1.1" viewBox="-10 0 1010 1000">
   <path fill="currentColor"
d="M511 718l64 16c-28 67 -77 137 -125 181c-12 -12 -39 -30 -56 -39c48 -40 91 -98 117 -158zM775 744l58 -29c43 51 93 121 116 166l-62 33c-20 -45 -69 -117 -112 -170zM806 497v-72h-255v72h255zM806 621v-72h-255v72h255zM705 213h-48c-23 60 -53 112 -89 158h230
c-38 -47 -70 -102 -93 -158zM345 436v-89h-84v89h84zM345 581v-91h-84v91h84zM131 490v91h75v-91h-75zM131 347v89h75v-89h-75zM891 234l51 36c-25 28 -54 55 -80 77c33 36 70 66 109 86c-15 13 -36 36 -46 54c-19 -11 -37 -25 -55 -40v229h-157v206c0 33 -6 52 -31 63
c-24 9 -60 10 -112 10c-3 -19 -13 -45 -22 -62c40 1 73 1 84 0s13 -3 13 -13v-204h-156v-224c-17 14 -34 27 -53 39c-6 -10 -20 -26 -33 -39v185h-137v81h155v63h-155v176h-65v-176h-158v-63h158v-81h-126v-346h126v-76h-146v-62h146v-109h65v109h148v62h-148v76h137v139
c37 -23 70 -51 98 -83c-19 -23 -47 -51 -72 -72l43 -40c23 18 49 41 68 62c17 -26 33 -54 46 -84h-152v-63h176c11 -34 19 -69 26 -107l67 9c-7 34 -15 67 -24 98h268v63h-177c16 32 34 62 56 91c24 -23 49 -50 65 -70z" />
</svg>
