<?xml version="1.0" standalone="no"?>
<!DOCTYPE svg PUBLIC "-//W3C//DTD SVG 1.1//EN" "http://www.w3.org/Graphics/SVG/1.1/DTD/svg11.dtd" >
<svg xmlns="http://www.w3.org/2000/svg" xmlns:xlink="http://www.w3.org/1999/xlink" version="1.1" viewBox="-10 0 1010 1000">
   <path fill="currentColor"
d="M947 381v55h-544v-55h234v-64h-186v-53h186v-63h-209v-54h110c-12 -25 -31 -56 -48 -79l54 -24c23 29 47 69 58 95l-16 8h152l-8 -4c19 -28 46 -73 58 -103l67 24c-21 29 -42 58 -61 83h133v54h-220v63h193v53h-193v64h240zM800 492l41 -31c37 22 79 57 98 83l-44 35
c-18 -26 -60 -62 -95 -87zM319 437v-94h-70v94h70zM319 585v-95h-70v95h70zM127 490v95h69v-95h-69zM127 343v94h69v-94h-69zM254 44v108h133v63h-133v72h119v354h-119v78h133v63h-133v175h-63v-175h-146v-63h146v-78h-117v-354h117v-72h-137v-63h137v-108h63zM862 685
l57 15c-25 51 -60 97 -101 136c19 40 40 62 65 62c18 0 25 -25 28 -90c13 12 32 22 47 27c-9 94 -30 121 -79 122c-43 0 -79 -29 -106 -81c-37 29 -78 53 -119 74c-8 -12 -26 -36 -38 -47c47 -22 93 -49 133 -81c-14 -45 -27 -100 -35 -162h-128v73l101 -15l2 53l-103 16
v100c0 34 -5 50 -28 60c-22 10 -57 11 -111 10c-2 -17 -10 -40 -18 -57c38 1 72 1 82 0c11 0 14 -3 14 -13v-91c-43 7 -84 13 -121 18l-7 -58c36 -4 80 -8 128 -15v-81h-123v-54h123v-68c-33 7 -67 12 -98 16c-3 -13 -12 -31 -19 -44c78 -12 170 -31 217 -55l48 40
c-24 12 -55 22 -87 30v81h122c-5 -45 -8 -93 -9 -144h61c0 52 3 100 7 144h184v54h-178c6 44 14 85 24 118c27 -28 49 -60 65 -93z" />
</svg>
