<?xml version="1.0" standalone="no"?>
<!DOCTYPE svg PUBLIC "-//W3C//DTD SVG 1.1//EN" "http://www.w3.org/Graphics/SVG/1.1/DTD/svg11.dtd" >
<svg xmlns="http://www.w3.org/2000/svg" xmlns:xlink="http://www.w3.org/1999/xlink" version="1.1" viewBox="-10 0 1010 1000">
   <path fill="currentColor"
d="M807 237v-89h-126v89h126zM807 381v-90h-126v90h126zM504 291v90h119v-90h-119zM504 148v89h119v-89h-119zM872 92v345h-431v-345h431zM296 437v-94h-59v94h59zM296 585v-95h-59v95h59zM123 490v95h63v-95h-63zM123 343v94h63v-94h-63zM242 44v108h125v62h-125v73h106
v354h-106v78h122v61h-122v177h-61v-177h-132v-61h132v-78h-109v-354h110v-73h-130v-62h130v-108h60zM489 555h-56v123h56v-123zM585 678v-123h-54v123h54zM531 860h54v-130h-54v130zM433 860h56v-130h-56v130zM385 950v-448h249v442h-49v-32h-152v38h-48zM824 860h54v-130
h-54v130zM722 730v130h59v-130h-59zM781 555h-59v123h59v-123zM878 678v-123h-54v123h54zM672 502h257v442h-51v-32h-156v38h-50v-448z" />
</svg>
