<?xml version="1.0" standalone="no"?>
<!DOCTYPE svg PUBLIC "-//W3C//DTD SVG 1.1//EN" "http://www.w3.org/Graphics/SVG/1.1/DTD/svg11.dtd" >
<svg xmlns="http://www.w3.org/2000/svg" xmlns:xlink="http://www.w3.org/1999/xlink" version="1.1" viewBox="-10 0 1010 1000">
   <path fill="currentColor"
d="M711 316v-108h-83v108h83zM775 358c-2 -8 -6 -22 -11 -35v164c12 -7 25 -24 38 -45c11 -16 35 -55 60 -103c-62 9 -78 14 -87 19zM829 479l65 -8c-6 -20 -13 -42 -20 -61c-15 25 -30 47 -45 69zM711 475v-110h-83v110h83zM579 547l-44 11c-2 -14 -4 -32 -8 -51
c-102 17 -123 22 -135 29c-2 -11 -10 -37 -16 -51c15 -3 29 -22 46 -48c10 -14 34 -54 59 -103c-59 10 -75 14 -84 19v1c-3 -12 -10 -39 -16 -52c12 -2 23 -18 35 -40c13 -23 56 -111 77 -193l50 22c-24 71 -57 144 -90 201l51 -6c10 -23 20 -47 28 -70l45 23v-83h50
c8 -35 16 -79 19 -110l63 11c-9 33 -18 69 -26 99h81v148c10 -6 19 -20 27 -38c12 -24 53 -113 71 -195l48 20c-22 73 -52 147 -83 205l59 -7c10 -24 21 -50 30 -74l46 25c-25 54 -52 109 -81 158l32 -11c19 48 40 111 49 151l-44 18c-3 -12 -6 -27 -11 -42
c-102 16 -123 21 -134 27c-1 -7 -5 -21 -9 -33v18h-187v-278c-35 80 -80 161 -125 226l67 -9c-5 -25 -11 -49 -16 -71l40 -8c15 51 30 118 36 161zM116 489v95h76v-95h-76zM116 343v93h76v-93h-76zM308 436v-93h-68v93h68zM308 584v-95h-68v95h68zM378 782h-132v175h-60
v-175h-143v-64h143v-78h-119v-353h119v-72h-135v-63h135v-108h59v108h123v63h-123v72h114v353h-113v78h132v64zM948 666h-194c59 71 146 142 219 179c-16 13 -38 38 -48 54c-72 -44 -156 -121 -217 -200v258h-69v-252c-63 84 -152 160 -235 202c-11 -17 -32 -40 -47 -53
c86 -37 178 -111 237 -188h-191v-63h236v-60h69v60h240v63z" />
</svg>
