<?xml version="1.0" standalone="no"?>
<!DOCTYPE svg PUBLIC "-//W3C//DTD SVG 1.1//EN" "http://www.w3.org/Graphics/SVG/1.1/DTD/svg11.dtd" >
<svg xmlns="http://www.w3.org/2000/svg" xmlns:xlink="http://www.w3.org/1999/xlink" version="1.1" viewBox="-10 0 1010 1000">
   <path fill="currentColor"
d="M447 643l4 64l-134 27v218h-72v-204l-186 36l-16 -73c55 -8 126 -20 202 -33v-144h-88c-35 0 -65 6 -73 14c-4 -15 -14 -48 -23 -66c17 -4 32 -36 50 -79c11 -24 34 -92 58 -174h-120v-69h137c9 -38 17 -77 23 -116l72 15c-6 33 -15 68 -24 101h160v69h-181
c-26 86 -57 168 -89 237h98v-151h72v151h102v68h-102v132zM955 416h-306c-12 41 -23 80 -34 115h238l13 -4l52 27c-50 72 -119 167 -182 249c49 34 93 68 122 97l-50 58c-58 -59 -176 -150 -276 -210l47 -48c33 20 67 41 102 64c41 -54 84 -114 119 -163h-287
c19 -51 39 -116 61 -185h-147v-69h166c12 -39 23 -79 34 -118h-162v-68h180c11 -41 21 -80 30 -117l73 10c-9 33 -17 70 -28 107h200v68h-218c-11 39 -22 79 -33 118h286v69z" />
</svg>
