<?xml version="1.0" standalone="no"?>
<!DOCTYPE svg PUBLIC "-//W3C//DTD SVG 1.1//EN" "http://www.w3.org/Graphics/SVG/1.1/DTD/svg11.dtd" >
<svg xmlns="http://www.w3.org/2000/svg" xmlns:xlink="http://www.w3.org/1999/xlink" version="1.1" viewBox="-10 0 1010 1000">
   <path fill="currentColor"
d="M950 465l-64 28c-7 -21 -16 -44 -27 -69c-326 22 -366 26 -391 37c-3 -18 -15 -55 -22 -70c16 -5 35 -10 51 -28c21 -23 87 -130 122 -190h-161v-68h484v68h-243c-35 59 -88 146 -127 205l257 -15c-22 -42 -46 -83 -70 -119l61 -23c53 76 107 177 130 244zM428 710
l-122 25v219h-70v-204c-63 12 -123 24 -173 34l-16 -73c52 -7 117 -19 189 -32v-145h-79c-35 0 -65 6 -73 14c-4 -15 -15 -48 -23 -66c17 -5 32 -36 50 -79c10 -25 35 -91 58 -172h-118v-69h137c10 -39 19 -78 25 -118l73 15c-8 34 -16 69 -26 103h160v69h-181
c-28 85 -59 167 -90 235h87v-150h70v150h109v68h-109v133l118 -21zM730 863h224v67h-530v-67h233v-179h-180v-67h180v-133h73v133h190v67h-190v179z" />
</svg>
