<?xml version="1.0" standalone="no"?>
<!DOCTYPE svg PUBLIC "-//W3C//DTD SVG 1.1//EN" "http://www.w3.org/Graphics/SVG/1.1/DTD/svg11.dtd" >
<svg xmlns="http://www.w3.org/2000/svg" xmlns:xlink="http://www.w3.org/1999/xlink" version="1.1" viewBox="-10 0 1010 1000">
   <path fill="currentColor"
d="M658 39l70 20c-6 13 -12 27 -19 39c61 94 166 194 256 251c-13 16 -29 46 -35 64c-90 -62 -188 -161 -255 -255c-63 102 -148 195 -245 264c-10 -14 -35 -35 -49 -46c123 -85 226 -213 277 -337zM424 711l-101 20v221h-67v-207c-72 15 -139 28 -196 39l-17 -72
c58 -9 133 -21 213 -36v-142h-99c-34 0 -65 6 -73 14c-3 -15 -14 -48 -23 -66c18 -5 30 -36 47 -80c10 -25 31 -90 52 -169h-109v-71h126c8 -39 16 -78 21 -118l73 15c-7 34 -14 69 -23 103h165v71h-183c-24 84 -51 165 -80 233h106v-153h67v153h92v68h-92v130l97 -18z
M712 674v190h243v65h-552v-65h238v-190h-181v-65h181v-170h-143v-64h373v64h-159v170h186v65h-186z" />
</svg>
