<?xml version="1.0" standalone="no"?>
<!DOCTYPE svg PUBLIC "-//W3C//DTD SVG 1.1//EN" "http://www.w3.org/Graphics/SVG/1.1/DTD/svg11.dtd" >
<svg xmlns="http://www.w3.org/2000/svg" xmlns:xlink="http://www.w3.org/1999/xlink" version="1.1" viewBox="-10 0 1010 1000">
   <path fill="currentColor"
d="M929 133l-47 40c-27 -24 -79 -65 -118 -93l45 -34c38 25 91 63 120 87zM418 646l5 65l-103 21v219h-67v-206c-72 14 -139 28 -196 39l-17 -73c57 -8 133 -21 213 -36v-141h-101c-33 0 -63 6 -71 13v1v-1l-1 1v-4c-4 -17 -15 -46 -23 -62c18 -4 31 -36 47 -80
c10 -25 31 -91 52 -171h-110v-69h127c8 -39 16 -78 21 -118l73 15c-7 34 -14 69 -23 103h161v69h-178c-24 85 -52 168 -81 237h107v-155h67v155h88v66h-88v129zM852 396h-124v105h124v-105zM728 673h124v-109h-124v109zM537 673h127v-109h-127v109zM537 396v105h127v-105
h-127zM954 243h-223v88h188v544c0 34 -5 53 -28 65c-21 11 -54 13 -101 13c-3 -19 -12 -47 -21 -66c33 2 62 1 70 1c11 0 13 -3 13 -14v-137h-124v212h-64v-212h-127v217h-66v-623h190v-88h-219v-64h219v-135h70v135h223v64z" />
</svg>
