<?xml version="1.0" standalone="no"?>
<!DOCTYPE svg PUBLIC "-//W3C//DTD SVG 1.1//EN" "http://www.w3.org/Graphics/SVG/1.1/DTD/svg11.dtd" >
<svg xmlns="http://www.w3.org/2000/svg" xmlns:xlink="http://www.w3.org/1999/xlink" version="1.1" viewBox="-10 0 1010 1000">
   <path fill="currentColor"
d="M819 245v-95h-269v95h269zM819 401v-96h-269v96h269zM892 87v377h-413v-377h413zM423 711l-101 20v220h-66v-206c-72 14 -139 28 -196 39l-17 -73c58 -8 133 -21 213 -36v-141h-99c-34 0 -65 6 -73 14c-3 -15 -14 -48 -23 -66c18 -5 30 -36 47 -80c10 -25 31 -90 52 -169
h-109v-71h126c8 -39 16 -78 21 -118l73 15c-7 34 -14 69 -23 103h165v71h-183c-24 84 -51 165 -80 233h106v-153h66v153h93v68h-93v130l98 -18zM506 619v242h77v-242h-77zM719 619h-78v242h78v-242zM857 619h-80v242h80v-242zM917 861h47v67h-570v-67h54v-308h469v308z" />
</svg>
