<?xml version="1.0" standalone="no"?>
<!DOCTYPE svg PUBLIC "-//W3C//DTD SVG 1.1//EN" "http://www.w3.org/Graphics/SVG/1.1/DTD/svg11.dtd" >
<svg xmlns="http://www.w3.org/2000/svg" xmlns:xlink="http://www.w3.org/1999/xlink" version="1.1" viewBox="-10 0 1010 1000">
   <path fill="currentColor"
d="M358 640l6 61l-78 21v231h-61v-215c-60 15 -117 29 -166 42l-16 -68c50 -10 113 -25 182 -40v-137h-84c-32 0 -59 6 -67 15c-3 -14 -14 -45 -21 -61c16 -5 27 -37 40 -81c8 -27 28 -97 43 -182h-86v-63h98c6 -38 12 -77 15 -116l66 10c-4 35 -10 70 -16 106h135v63h-148
c-18 89 -42 175 -66 247h91v-155h61v155h73v62h-73v122zM454 711h113v-79h-113v79zM567 503h-113v76h113v-76zM629 445v425c0 32 -5 49 -26 60c-20 11 -53 11 -99 11c-2 -17 -11 -42 -19 -59c33 1 61 1 70 1c9 -1 12 -4 12 -13v-106h-113v186h-62v-505h237zM847 277h-86
c-7 26 -15 53 -24 78c12 84 30 179 61 268c27 -100 41 -216 49 -346zM959 277h-49c-13 171 -33 316 -77 436c34 73 77 138 134 185c-14 12 -35 39 -46 56c-49 -44 -89 -102 -120 -165c-31 65 -72 121 -124 169c-6 -13 -28 -39 -42 -52c59 -51 102 -115 133 -192
c-33 -85 -55 -177 -70 -260c-10 22 -20 41 -30 60c-7 -15 -27 -48 -39 -64c9 -17 18 -34 27 -53l-49 21c-4 -12 -10 -26 -16 -41c-164 26 -191 30 -206 38c-3 -14 -13 -43 -20 -59c11 -2 20 -14 29 -30c8 -14 33 -62 49 -113h-72v-62h115c-8 -29 -21 -65 -33 -92l60 -14
c15 33 30 75 41 106h114v62h-158c-17 47 -39 93 -61 130l120 -16c-11 -23 -21 -45 -32 -65l50 -19c26 47 56 108 70 148c42 -96 70 -221 89 -347l63 13c-9 53 -20 106 -32 157h182v63z" />
</svg>
