<?xml version="1.0" standalone="no"?>
<!DOCTYPE svg PUBLIC "-//W3C//DTD SVG 1.1//EN" "http://www.w3.org/Graphics/SVG/1.1/DTD/svg11.dtd" >
<svg xmlns="http://www.w3.org/2000/svg" xmlns:xlink="http://www.w3.org/1999/xlink" version="1.1" viewBox="-10 0 1010 1000">
   <path fill="currentColor"
d="M842 54l62 25c-33 48 -71 101 -103 135l-50 -22c30 -37 70 -97 91 -138zM588 183l-55 31c-13 -35 -46 -89 -78 -127l53 -28c32 38 66 90 80 124zM648 498v-180c-59 67 -141 129 -214 163c-10 -14 -29 -37 -43 -49c72 -29 153 -84 208 -143h-185v-60h234v-186h64v186h228
v60h-177c51 55 127 105 199 129c-15 13 -36 38 -45 54c-74 -32 -152 -91 -205 -155v181h-64zM609 553l11 -3l36 13c-36 193 -133 325 -251 392c-8 -15 -24 -38 -38 -50c53 -26 102 -71 143 -128c-19 -21 -45 -47 -67 -66l41 -38c19 14 40 34 57 52c20 -36 35 -75 47 -118
h-93c-26 48 -56 92 -88 125c-7 -8 -22 -20 -35 -30l-82 21v230h-64v-214c-60 16 -118 31 -167 42l-16 -69c50 -10 113 -25 183 -40v-137h-83c-33 0 -61 6 -69 15c-3 -15 -14 -47 -22 -63c16 -5 27 -37 41 -82c8 -26 27 -93 42 -174h-85v-68h97c7 -39 12 -79 15 -119l69 11
c-4 35 -10 72 -16 108h164v68h-178c-18 86 -41 169 -64 239h89v-152h64v152h80v65h-80v122l83 -20l3 42c48 -51 88 -123 111 -198l56 13c-7 20 -14 39 -23 59h89zM873 599v149h80v59h-80v149h-61v-149h-153c10 -49 19 -125 25 -183l58 3c-4 40 -11 83 -17 121h87v-149h-139
v-54h139v-62h61v62h69v54h-69z" />
</svg>
