<?xml version="1.0" standalone="no"?>
<!DOCTYPE svg PUBLIC "-//W3C//DTD SVG 1.1//EN" "http://www.w3.org/Graphics/SVG/1.1/DTD/svg11.dtd" >
<svg xmlns="http://www.w3.org/2000/svg" xmlns:xlink="http://www.w3.org/1999/xlink" version="1.1" viewBox="-10 0 1010 1000">
   <path fill="currentColor"
d="M937 173v67h-429v-67h203c-13 -32 -38 -76 -61 -109l61 -26c27 35 57 83 69 114l-43 21h200zM433 50l42 56c-103 36 -274 56 -410 64c-2 -16 -11 -40 -19 -56c134 -11 298 -31 387 -64zM321 299l-55 22c-7 -37 -29 -92 -52 -134l51 -21c25 41 48 96 56 133zM189 307
l-52 24c-10 -34 -36 -87 -63 -125l51 -22c27 38 55 89 64 123zM395 489l43 21c-24 91 -62 170 -109 237c44 42 81 83 107 118l-52 48c-24 -33 -58 -72 -97 -112c-59 68 -129 119 -204 155c-8 -18 -28 -49 -42 -62c74 -32 141 -80 196 -142c-46 -43 -96 -85 -143 -121l49 -39
c45 32 92 69 135 107c31 -42 55 -91 74 -144h-256v-63h285zM405 153l63 24c-23 51 -52 111 -76 159h98v153h-66v-92h-308v92h-63v-153h279c26 -53 58 -129 73 -183zM953 501h-197v134h176v67h-176v256h-71v-256h-175v-67h175v-134h-182v-67h130c-12 -44 -40 -109 -71 -156
l54 -23c33 47 64 111 77 154l-55 25h104c29 -51 61 -126 79 -179l64 21c-23 52 -51 112 -76 158h144v67z" />
</svg>
