<?xml version="1.0" standalone="no"?>
<!DOCTYPE svg PUBLIC "-//W3C//DTD SVG 1.1//EN" "http://www.w3.org/Graphics/SVG/1.1/DTD/svg11.dtd" >
<svg xmlns="http://www.w3.org/2000/svg" xmlns:xlink="http://www.w3.org/1999/xlink" version="1.1" viewBox="-10 0 1010 1000">
   <path fill="currentColor"
d="M945 175v62h-290v-62h122c-12 -35 -31 -75 -47 -109l61 -17c21 39 45 89 58 126h96zM772 419l-55 15c-2 -44 -15 -114 -33 -166l52 -13c19 52 33 120 36 164zM334 176v63h-281v-63h117c-12 -33 -30 -72 -46 -103l61 -18c21 38 44 86 57 121h92zM164 417l-56 15
c-1 -43 -12 -110 -29 -161l52 -12c18 50 31 115 33 158zM324 684h-99c-6 93 -33 201 -125 277c-10 -15 -30 -38 -45 -49c79 -59 99 -151 104 -228h-101v-63h102v-119h-115v-63h162c17 -54 36 -132 45 -186l59 14c-16 55 -34 122 -50 172h78v63h-112v119h97v63zM370 632
l57 11c-13 81 -35 163 -67 217c-12 -8 -37 -20 -53 -26c35 -52 53 -126 63 -202zM601 560l-70 9v308c0 33 -7 51 -30 62s-58 12 -110 12c-3 -19 -13 -44 -23 -62c41 1 74 1 85 0c11 0 14 -3 14 -13v-297c-78 13 -96 18 -108 24c-4 -14 -13 -46 -22 -64c19 -3 40 -26 66 -61
c15 -17 48 -63 85 -121c-93 10 -114 15 -126 21c-4 -14 -15 -47 -22 -64c14 -3 28 -21 44 -47c15 -24 67 -121 95 -214l69 19c-32 81 -74 166 -116 231l92 -8c19 -33 37 -68 53 -102l66 26c-59 109 -129 217 -200 303l141 -19c-9 -27 -18 -54 -27 -78l53 -14
c24 61 50 139 61 190l-56 17c-3 -17 -8 -37 -14 -58zM558 641l55 -13c21 65 44 148 52 203l-57 15c-8 -55 -29 -140 -50 -205zM959 503h-119v132h107v63h-107v254h-68v-254h-103v-63h103v-132h-121v-63h174c17 -55 36 -136 45 -191l58 14c-14 58 -32 126 -48 177h79v63z" />
</svg>
