<?xml version="1.0" standalone="no"?>
<!DOCTYPE svg PUBLIC "-//W3C//DTD SVG 1.1//EN" "http://www.w3.org/Graphics/SVG/1.1/DTD/svg11.dtd" >
<svg xmlns="http://www.w3.org/2000/svg" xmlns:xlink="http://www.w3.org/1999/xlink" version="1.1" viewBox="-10 0 1010 1000">
   <path fill="currentColor"
d="M526 163v39c0 165 -14 388 -167 570c-13 -14 -40 -35 -60 -45c145 -168 156 -375 156 -526v-38h-126v-68h448c-9 81 -22 179 -35 257h185s0 22 -1 33c-14 242 -27 334 -56 366c-19 21 -38 28 -69 30c-28 2 -79 2 -134 -2c-2 -20 -10 -49 -22 -67c55 5 107 5 128 5
c16 0 28 -1 37 -11c21 -20 33 -96 44 -286h-191c13 -67 27 -167 37 -257h-174zM294 219l-58 45c-30 -47 -96 -118 -152 -168l54 -39c57 48 125 117 156 162zM264 431v324c19 12 40 31 72 52c65 40 150 47 262 47c118 0 266 -8 362 -18c-8 19 -19 53 -20 74
c-71 4 -249 10 -344 10c-124 0 -207 -11 -276 -55c-40 -26 -73 -59 -94 -59c-35 0 -83 58 -135 126l-47 -63c52 -57 103 -102 147 -120v-248h-139v-70h212z" />
</svg>
