<?xml version="1.0" standalone="no"?>
<!DOCTYPE svg PUBLIC "-//W3C//DTD SVG 1.1//EN" "http://www.w3.org/Graphics/SVG/1.1/DTD/svg11.dtd" >
<svg xmlns="http://www.w3.org/2000/svg" xmlns:xlink="http://www.w3.org/1999/xlink" version="1.1" viewBox="-10 0 1010 1000">
   <path fill="currentColor"
d="M841 293h-222c-19 213 -75 389 -251 500c-11 -18 -35 -41 -54 -54c163 -97 212 -255 229 -446h-200v-72h205c3 -52 4 -107 5 -163h77c-1 56 -3 110 -6 163h293s0 26 -1 36c-14 338 -27 457 -61 498c-21 25 -42 34 -76 36c-30 3 -87 2 -141 -1c-2 -22 -12 -54 -26 -75
c59 5 114 5 137 5c18 1 29 -2 40 -13c25 -26 39 -136 52 -414zM299 222l-61 47c-31 -46 -97 -119 -152 -171l57 -40c54 50 123 119 156 164zM250 380v388c20 13 41 33 76 55c66 42 152 50 269 50c123 0 275 -9 374 -21c-9 21 -22 60 -23 83c-70 4 -253 11 -353 11
c-130 0 -214 -12 -286 -56c-41 -28 -75 -63 -97 -63c-32 0 -78 63 -126 132l-55 -71c53 -61 104 -108 148 -126v-309h-131v-73h204z" />
</svg>
