<?xml version="1.0" standalone="no"?>
<!DOCTYPE svg PUBLIC "-//W3C//DTD SVG 1.1//EN" "http://www.w3.org/Graphics/SVG/1.1/DTD/svg11.dtd" >
<svg xmlns="http://www.w3.org/2000/svg" xmlns:xlink="http://www.w3.org/1999/xlink" version="1.1" viewBox="-10 0 1010 1000">
   <path fill="currentColor"
d="M942 682v70h-616v-70h261v-239h-213v-71h213v-196h-245v-71h575v71h-257v196h225v71h-225v239h282zM279 238l-61 46c-29 -48 -96 -118 -155 -166l57 -40c59 46 128 113 159 160zM253 424v358c24 8 48 28 87 49c64 33 148 40 256 40c111 0 260 -6 358 -16
c-9 19 -20 52 -21 73c-78 5 -244 10 -339 10c-115 0 -200 -11 -269 -48c-42 -22 -75 -50 -98 -50c-36 0 -88 50 -141 108l-52 -61c50 -45 102 -83 147 -100v-293h-123v-70h195z" />
</svg>
