<?xml version="1.0" standalone="no"?>
<!DOCTYPE svg PUBLIC "-//W3C//DTD SVG 1.1//EN" "http://www.w3.org/Graphics/SVG/1.1/DTD/svg11.dtd" >
<svg xmlns="http://www.w3.org/2000/svg" xmlns:xlink="http://www.w3.org/1999/xlink" version="1.1" viewBox="-10 0 1010 1000">
   <path fill="currentColor"
d="M881 106v70h-500v-70h500zM377 758v-3c-1 1 -1 3 -1 3c-4 -15 -17 -53 -26 -74c18 -4 34 -25 54 -57c20 -27 74 -124 114 -224h-203v-70h636v70h-345c-41 94 -94 191 -147 267l328 -25c-32 -57 -68 -117 -101 -168l61 -28c62 97 142 226 180 301l-65 35
c-10 -22 -24 -48 -40 -76c-372 33 -415 37 -445 49zM298 225l-51 53c-39 -35 -118 -92 -176 -134l49 -46c57 38 138 93 178 127zM254 391v382c22 10 44 31 83 54c67 42 151 49 261 49c113 0 263 -8 366 -20c-10 22 -22 59 -24 82c-67 4 -236 10 -344 10
c-122 0 -205 -12 -275 -55c-40 -25 -74 -57 -97 -57c-33 0 -83 59 -132 125l-51 -69c49 -53 98 -96 141 -116v-316h-137v-69h209z" />
</svg>
