<?xml version="1.0" standalone="no"?>
<!DOCTYPE svg PUBLIC "-//W3C//DTD SVG 1.1//EN" "http://www.w3.org/Graphics/SVG/1.1/DTD/svg11.dtd" >
<svg xmlns="http://www.w3.org/2000/svg" xmlns:xlink="http://www.w3.org/1999/xlink" version="1.1" viewBox="-10 0 1010 1000">
   <path fill="currentColor"
d="M803 366h-344c-3 131 -24 298 -118 414c-13 -13 -45 -34 -62 -42c96 -117 107 -282 107 -404v-217c168 -8 368 -27 478 -57l61 59c-122 33 -304 52 -466 60v120h375l14 -3l45 17c-31 114 -83 209 -149 286c63 53 121 104 160 144l-57 52c-36 -40 -91 -91 -152 -145
c-67 64 -147 113 -230 147c-9 -19 -27 -46 -42 -61c78 -27 154 -72 219 -133c-55 -46 -110 -93 -160 -132l51 -43c48 37 103 81 157 125c47 -53 87 -116 113 -187zM277 235l-62 44c-29 -41 -90 -112 -137 -162l59 -37c46 47 109 115 140 155zM251 414v361c19 11 40 26 72 43
c65 35 154 41 263 41c118 0 271 -7 372 -19c-9 20 -21 56 -23 78c-75 5 -251 11 -351 11c-119 0 -206 -11 -277 -48c-44 -24 -76 -53 -99 -53c-32 0 -77 55 -122 112l-49 -68c50 -51 99 -90 141 -104v-283h-126v-71h199z" />
</svg>
