<?xml version="1.0" standalone="no"?>
<!DOCTYPE svg PUBLIC "-//W3C//DTD SVG 1.1//EN" "http://www.w3.org/Graphics/SVG/1.1/DTD/svg11.dtd" >
<svg xmlns="http://www.w3.org/2000/svg" xmlns:xlink="http://www.w3.org/1999/xlink" version="1.1" viewBox="-10 0 1010 1000">
   <path fill="currentColor"
d="M576 812v-408c-70 88 -151 164 -237 222c-10 -15 -39 -45 -56 -59c143 -88 266 -223 347 -382h-303v-73h597v73h-211c-19 38 -38 75 -61 110v517h-76zM676 394l52 -44c72 69 169 165 216 221l-55 53c-46 -59 -141 -158 -213 -230zM299 223l-61 47
c-31 -46 -97 -119 -152 -171l57 -40c54 50 123 119 156 164zM250 380v389c20 13 41 32 76 54c66 42 153 50 269 50c124 0 276 -9 375 -21c-9 21 -22 60 -23 83c-71 4 -254 11 -353 11c-131 0 -214 -12 -287 -56c-41 -28 -75 -63 -97 -63c-32 0 -78 63 -126 132l-55 -71
c53 -61 104 -107 148 -125v-310h-131v-73h204z" />
</svg>
