<?xml version="1.0" standalone="no"?>
<!DOCTYPE svg PUBLIC "-//W3C//DTD SVG 1.1//EN" "http://www.w3.org/Graphics/SVG/1.1/DTD/svg11.dtd" >
<svg xmlns="http://www.w3.org/2000/svg" xmlns:xlink="http://www.w3.org/1999/xlink" version="1.1" viewBox="-10 0 1010 1000">
   <path fill="currentColor"
d="M880 108v67h-502v-67h502zM673 394h-118c-11 204 -47 332 -220 406c-8 -19 -29 -47 -45 -60c154 -61 182 -170 192 -346h-169v-68h627v68h-197v291c0 26 4 30 27 30h79c23 0 27 -16 30 -123c15 11 44 23 64 28c-7 129 -26 162 -87 162h-94c-72 0 -89 -22 -89 -96v-292z
M292 224l-49 55c-39 -35 -118 -92 -176 -133l47 -48c58 38 138 93 178 126zM254 391v382c22 11 44 31 83 54c66 41 149 49 260 49c113 0 262 -8 365 -19c-10 20 -21 55 -23 77c-68 4 -238 9 -344 9c-123 0 -204 -11 -274 -54c-40 -25 -74 -58 -97 -58c-33 0 -83 59 -133 125
l-48 -64c48 -53 97 -96 139 -115v-317h-135v-69h207z" />
</svg>
