<?xml version="1.0" standalone="no"?>
<!DOCTYPE svg PUBLIC "-//W3C//DTD SVG 1.1//EN" "http://www.w3.org/Graphics/SVG/1.1/DTD/svg11.dtd" >
<svg xmlns="http://www.w3.org/2000/svg" xmlns:xlink="http://www.w3.org/1999/xlink" version="1.1" viewBox="-10 0 1010 1000">
   <path fill="currentColor"
d="M578 826v-258h-270v-66h270v-115h-224v-65h224v-106h-265v-65h265v-101h71v101h284v65h-284v106h240v65h-240v115h292s-1 19 -2 29c-13 136 -24 193 -48 216c-14 15 -30 21 -55 22c-21 3 -60 2 -102 0c-1 -19 -7 -44 -17 -62c38 4 74 5 90 5c14 0 22 -2 30 -9
c12 -13 22 -49 31 -135h-219v258h-71zM284 245l-59 44c-30 -46 -98 -116 -155 -166l56 -40c57 48 126 116 158 162zM254 413v372c21 8 43 27 79 46c63 33 148 40 255 40c115 0 269 -7 370 -18c-9 18 -20 52 -21 74c-79 5 -252 10 -351 10c-116 0 -200 -9 -267 -46
c-41 -23 -71 -50 -94 -50c-34 0 -82 51 -131 107l-47 -63c46 -44 94 -81 135 -98v-304h-128v-70h200z" />
</svg>
