<?xml version="1.0" standalone="no"?>
<!DOCTYPE svg PUBLIC "-//W3C//DTD SVG 1.1//EN" "http://www.w3.org/Graphics/SVG/1.1/DTD/svg11.dtd" >
<svg xmlns="http://www.w3.org/2000/svg" xmlns:xlink="http://www.w3.org/1999/xlink" version="1.1" viewBox="-10 0 1010 1000">
   <path fill="currentColor"
d="M813 705v-216h-372v216h372zM886 424v346h-516v-346h201v-380h73v162h283v67h-283v151h242zM279 239l-61 46c-29 -48 -96 -119 -155 -167l57 -40c59 46 128 112 159 161zM253 424v355c27 6 53 28 97 52c63 33 148 40 255 40c112 0 259 -6 356 -16c-8 19 -19 52 -21 73
c-77 5 -241 10 -336 10c-115 0 -200 -11 -269 -48c-41 -22 -73 -50 -97 -50c-36 0 -88 50 -141 108l-52 -61c46 -42 93 -77 136 -96v-297h-123v-70h195z" />
</svg>
