<?xml version="1.0" standalone="no"?>
<!DOCTYPE svg PUBLIC "-//W3C//DTD SVG 1.1//EN" "http://www.w3.org/Graphics/SVG/1.1/DTD/svg11.dtd" >
<svg xmlns="http://www.w3.org/2000/svg" xmlns:xlink="http://www.w3.org/1999/xlink" version="1.1" viewBox="-10 0 1010 1000">
   <path fill="currentColor"
d="M561 197l-66 29c-17 -39 -54 -106 -84 -155l61 -24c32 47 70 111 89 150zM905 759l-53 51c-48 -57 -139 -148 -222 -226c-34 84 -107 167 -254 233c-9 -15 -33 -42 -50 -56c173 -70 232 -164 251 -250h-256v-69h264c1 -10 1 -20 1 -29v-115h-233v-69h336
c35 -54 75 -130 96 -186l75 24c-29 53 -65 114 -96 162h148v69h-251v116c0 8 0 18 -1 28h282v69h-290l-1 4c88 79 198 182 254 244zM289 230l-63 41c-29 -48 -92 -125 -145 -181l59 -34c53 52 119 127 149 174zM250 380v392c19 12 40 30 72 50c66 43 153 50 270 50
c122 0 276 -9 376 -21c-10 21 -22 60 -24 83c-69 4 -255 11 -355 11c-129 0 -215 -11 -286 -56c-41 -28 -76 -63 -97 -63c-32 0 -77 62 -124 132l-54 -71c54 -63 106 -111 150 -127v-311h-126v-69h198z" />
</svg>
