<?xml version="1.0" standalone="no"?>
<!DOCTYPE svg PUBLIC "-//W3C//DTD SVG 1.1//EN" "http://www.w3.org/Graphics/SVG/1.1/DTD/svg11.dtd" >
<svg xmlns="http://www.w3.org/2000/svg" xmlns:xlink="http://www.w3.org/1999/xlink" version="1.1" viewBox="-10 0 1010 1000">
   <path fill="currentColor"
d="M520 186l-7 7c29 35 67 65 114 91c48 -28 89 -60 120 -98h-227zM808 124l43 29c-38 65 -94 119 -159 162c80 34 176 56 278 68c-14 15 -33 42 -42 62c-112 -17 -216 -47 -302 -92c-92 48 -198 80 -305 101c-8 -15 -29 -43 -43 -55c101 -17 200 -44 286 -82
c-37 -26 -69 -53 -95 -84c-37 31 -78 60 -124 87c-10 -15 -33 -35 -49 -45c123 -65 209 -155 255 -232l72 12c-15 24 -32 48 -51 72h223zM668 823h-72v-101h-245c18 -46 39 -114 53 -168l67 9c-8 30 -18 63 -28 94h153v-123h-225v-63h225v-59h72v59h207v63h-207v123h238v65
h-238v101zM268 237l-61 46c-27 -45 -87 -110 -139 -156l57 -40c52 43 114 106 143 150zM262 427v339c20 11 41 28 74 46c64 35 149 42 258 42c115 0 264 -7 360 -18c-8 20 -19 55 -21 77c-71 4 -244 10 -341 10c-119 0 -204 -10 -273 -49c-43 -25 -76 -55 -98 -55
c-33 0 -79 55 -126 116l-48 -68c51 -54 101 -93 143 -108v-262h-138v-70h210z" />
</svg>
