<?xml version="1.0" standalone="no"?>
<!DOCTYPE svg PUBLIC "-//W3C//DTD SVG 1.1//EN" "http://www.w3.org/Graphics/SVG/1.1/DTD/svg11.dtd" >
<svg xmlns="http://www.w3.org/2000/svg" xmlns:xlink="http://www.w3.org/1999/xlink" version="1.1" viewBox="-10 0 1010 1000">
   <path fill="currentColor"
d="M422 243v563h-68v-629h195c16 -43 32 -96 40 -137l84 14c-15 42 -32 86 -47 123h282v548c0 39 -9 59 -35 71c-27 12 -68 13 -134 13c-3 -20 -14 -49 -22 -68c47 1 91 1 103 0c14 0 18 -4 18 -17v-481h-416zM692 577v-175h-140v175h140zM495 343h256v293h-256v-293z
M279 238l-61 46c-29 -48 -96 -119 -155 -167l57 -40c59 46 128 113 159 161zM253 424v353c27 6 53 29 98 52c64 34 148 41 255 41c111 0 258 -7 356 -15c-9 18 -21 53 -22 74c-77 5 -240 10 -335 10c-115 0 -200 -11 -269 -47c-42 -24 -74 -51 -98 -51
c-36 0 -88 51 -141 109l-53 -65c47 -41 95 -76 138 -95v-296h-123v-70h194z" />
</svg>
