<?xml version="1.0" standalone="no"?>
<!DOCTYPE svg PUBLIC "-//W3C//DTD SVG 1.1//EN" "http://www.w3.org/Graphics/SVG/1.1/DTD/svg11.dtd" >
<svg xmlns="http://www.w3.org/2000/svg" xmlns:xlink="http://www.w3.org/1999/xlink" version="1.1" viewBox="-10 0 1010 1000">
   <path fill="currentColor"
d="M822 347h-159v91h159v-91zM663 589h159v-94h-159v94zM428 589h163v-94h-163v94zM591 347h-163v91h163v-91zM591 287v-78h-279v-64h279v-101h72v101h182c-32 -19 -83 -45 -122 -64l27 -36c43 18 101 45 131 63l-25 37h86v64h-279v78h230v446c0 35 -7 51 -30 63
c-23 11 -60 11 -112 11c-4 -18 -13 -44 -22 -62c37 2 70 2 79 1c10 0 14 -3 14 -13v-85h-159v150h-72v-150h-163v161h-70v-522h233zM276 228l-59 43c-31 -39 -94 -104 -142 -151l56 -38c47 44 112 107 145 146zM264 412v358c19 12 40 27 72 45c64 36 149 43 259 43
c114 0 263 -7 359 -18c-8 20 -20 55 -22 78c-70 4 -244 10 -340 10c-118 0 -204 -11 -273 -50c-43 -25 -76 -55 -98 -55c-33 0 -79 56 -125 116l-49 -69c51 -54 102 -94 144 -108v-281h-139v-69h212z" />
</svg>
