<?xml version="1.0" standalone="no"?>
<!DOCTYPE svg PUBLIC "-//W3C//DTD SVG 1.1//EN" "http://www.w3.org/Graphics/SVG/1.1/DTD/svg11.dtd" >
<svg xmlns="http://www.w3.org/2000/svg" xmlns:xlink="http://www.w3.org/1999/xlink" version="1.1" viewBox="-10 0 1010 1000">
   <path fill="currentColor"
d="M589 388h-156c-5 31 -9 63 -14 91h170v-91zM662 235v91h164v-91h-164zM589 809v-218c-62 71 -145 129 -239 171c-10 -14 -33 -37 -47 -49c100 -41 191 -104 246 -173h-205c11 -58 24 -145 31 -214h214v-91h-250v-62h158c-13 -31 -39 -74 -65 -106l60 -26
c29 33 60 79 71 110l-45 22h157c27 -38 60 -91 77 -130l73 21c-24 37 -49 77 -74 109h140v215h-229v91h268s-1 18 -2 28c-7 120 -17 171 -35 191c-15 16 -31 21 -55 23c-20 2 -57 2 -96 0c-1 -20 -8 -45 -18 -63c37 4 72 4 85 4c14 1 22 -1 28 -8c10 -10 16 -41 22 -114
h-197v269h-73zM273 261l-68 35c-24 -46 -76 -123 -121 -179l63 -30c46 54 100 126 126 174zM258 415v341c19 12 40 30 73 49c65 40 150 47 262 47c119 0 270 -8 369 -20c-9 21 -21 57 -23 79c-73 5 -252 11 -348 11c-124 0 -207 -11 -277 -54c-40 -25 -73 -58 -95 -58
c-30 0 -74 59 -117 124l-50 -69c47 -55 94 -97 134 -114v-264h-133v-72h205z" />
</svg>
