<?xml version="1.0" standalone="no"?>
<!DOCTYPE svg PUBLIC "-//W3C//DTD SVG 1.1//EN" "http://www.w3.org/Graphics/SVG/1.1/DTD/svg11.dtd" >
<svg xmlns="http://www.w3.org/2000/svg" xmlns:xlink="http://www.w3.org/1999/xlink" version="1.1" viewBox="-10 0 1010 1000">
   <path fill="currentColor"
d="M302 205l-52 52c-35 -38 -109 -93 -170 -130l50 -47c61 35 136 87 172 125zM254 391v382c21 11 44 31 82 54c66 41 149 49 259 49c114 0 262 -8 363 -19c-10 20 -21 55 -22 77c-68 4 -237 10 -343 10c-120 0 -203 -13 -272 -55c-40 -25 -74 -58 -97 -58
c-33 0 -83 59 -133 125l-48 -64c48 -53 97 -96 139 -115v-317h-129v-69h201zM322 457h261v-98h-146v-63h367v63h-149v98h276v64h-276v227c0 38 -7 55 -34 66c-26 10 -65 11 -128 11c-3 -19 -12 -44 -21 -63c43 1 83 1 94 0c13 0 17 -3 17 -15v-226h-261v-64zM930 744l-61 33
c-25 -52 -84 -132 -138 -188l58 -28c54 54 115 131 141 183zM426 564l66 17c-35 74 -92 150 -144 199c-13 -11 -41 -30 -57 -38c54 -46 104 -112 135 -178zM601 34l64 28c-5 8 -11 16 -17 24c73 83 203 164 317 200c-17 16 -39 45 -49 65c-106 -41 -225 -127 -304 -218
c-80 96 -186 178 -293 232c-11 -19 -31 -43 -50 -59c129 -56 262 -158 332 -272z" />
</svg>
