<?xml version="1.0" standalone="no"?>
<!DOCTYPE svg PUBLIC "-//W3C//DTD SVG 1.1//EN" "http://www.w3.org/Graphics/SVG/1.1/DTD/svg11.dtd" >
<svg xmlns="http://www.w3.org/2000/svg" xmlns:xlink="http://www.w3.org/1999/xlink" version="1.1" viewBox="-10 0 1010 1000">
   <path fill="currentColor"
d="M503 179l-2 2c32 36 73 69 122 96c45 -28 84 -61 114 -98h-234zM796 119l45 25c-37 65 -91 120 -155 165c80 37 173 62 268 76c-16 14 -33 41 -42 59c-102 -18 -201 -51 -286 -97c-91 52 -196 89 -298 111c-8 -16 -23 -42 -36 -56c93 -17 189 -48 272 -91
c-41 -26 -76 -57 -107 -90c-36 30 -74 57 -112 78c-9 -13 -33 -40 -48 -51c94 -48 185 -122 237 -205l65 19c-13 21 -28 40 -44 60h228zM656 849h-74v-90h-255v-55h255v-66h-211v-53h211v-64h-188v-54h188v-69h74v69h184v54h-184v64h207v53h-207v66h263v55h-263v90zM267 246
l-67 39c-28 -42 -84 -114 -127 -167l63 -33c43 50 101 119 131 161zM259 429v349c20 11 42 29 77 47c63 36 150 43 260 43c114 0 262 -7 360 -18c-9 20 -20 54 -22 76c-71 4 -245 10 -341 10c-119 0 -204 -11 -275 -50c-41 -24 -75 -54 -97 -54c-33 0 -79 55 -125 116
l-48 -67c49 -52 98 -92 139 -106v-277h-130v-69h202z" />
</svg>
