<?xml version="1.0" standalone="no"?>
<!DOCTYPE svg PUBLIC "-//W3C//DTD SVG 1.1//EN" "http://www.w3.org/Graphics/SVG/1.1/DTD/svg11.dtd" >
<svg xmlns="http://www.w3.org/2000/svg" xmlns:xlink="http://www.w3.org/1999/xlink" version="1.1" viewBox="-10 0 1010 1000">
   <path fill="currentColor"
d="M584 566v-142h-277v-64h457c3 -25 6 -54 9 -81h-384v-58h389c3 -28 5 -53 7 -77h-433v-62h443l12 -4l50 7c-4 87 -15 189 -25 275h99v64h-275v114c19 13 38 26 58 39c44 -37 96 -85 127 -121l60 33c-42 42 -95 86 -140 120c61 41 121 83 158 113l-40 51
c-50 -43 -142 -109 -223 -164v151c0 37 -8 51 -35 61c-26 9 -66 9 -128 9c-5 -17 -15 -40 -24 -57c45 2 87 2 98 1c13 -1 17 -4 17 -15v-128c-81 51 -166 102 -232 142l-39 -58c69 -34 172 -93 271 -149zM345 490l42 -40c45 31 106 75 137 102l-43 44
c-30 -27 -91 -74 -136 -106zM297 217l-58 45c-31 -45 -98 -119 -153 -171l55 -38c55 50 123 120 156 164zM249 380v391c19 13 40 31 72 52c66 42 152 50 269 50c125 0 276 -9 376 -20c-10 20 -21 58 -23 81c-70 4 -255 10 -355 10c-130 0 -214 -10 -285 -56
c-41 -28 -76 -63 -97 -63c-33 0 -78 62 -124 132l-54 -70c54 -63 106 -111 150 -127v-311h-131v-69h202z" />
</svg>
