<?xml version="1.0" standalone="no"?>
<!DOCTYPE svg PUBLIC "-//W3C//DTD SVG 1.1//EN" "http://www.w3.org/Graphics/SVG/1.1/DTD/svg11.dtd" >
<svg xmlns="http://www.w3.org/2000/svg" xmlns:xlink="http://www.w3.org/1999/xlink" version="1.1" viewBox="-10 0 1010 1000">
   <path fill="currentColor"
d="M642 370v-97h-187v97h187zM642 532v-99h-187v99h187zM642 699v-104h-187v104h187zM383 812v-466c-23 28 -47 54 -71 76c-11 -14 -39 -43 -56 -56c90 -75 168 -195 214 -321l73 20c-18 49 -41 98 -66 143h195c-15 -38 -39 -85 -60 -123l68 -20c28 44 58 101 73 143h175v65
h-215v97h182v63h-182v99h180v63h-180v104h232v64h-490v49h-72zM276 232l-59 46c-30 -50 -98 -120 -159 -168l57 -41c61 46 131 114 161 163zM253 424v354c27 6 53 28 98 53c63 33 147 40 254 40c112 0 259 -6 357 -16c-9 19 -20 52 -22 73c-77 5 -241 10 -336 10
c-115 0 -200 -11 -269 -48c-41 -22 -73 -50 -97 -50c-36 0 -88 50 -141 108l-52 -61c46 -42 93 -78 136 -96v-297h-123v-70h195z" />
</svg>
