<?xml version="1.0" standalone="no"?>
<!DOCTYPE svg PUBLIC "-//W3C//DTD SVG 1.1//EN" "http://www.w3.org/Graphics/SVG/1.1/DTD/svg11.dtd" >
<svg xmlns="http://www.w3.org/2000/svg" xmlns:xlink="http://www.w3.org/1999/xlink" version="1.1" viewBox="-10 0 1010 1000">
   <path fill="currentColor"
d="M681 183h-188c-21 31 -42 62 -66 90h189c23 -26 46 -60 65 -90zM811 467v-135h-144c-5 47 -11 93 -19 135h163zM437 467h139c11 -42 17 -87 20 -135h-159v135zM369 527v-189c-11 11 -21 20 -31 29c-13 -12 -43 -36 -61 -47c85 -67 164 -169 209 -276l72 19
c-9 21 -19 41 -30 61h193l11 -3l49 29c-21 40 -51 85 -82 123h184v254h-199v186c0 24 6 28 43 28h127c30 0 36 -10 39 -86c14 11 41 21 61 25c-9 98 -29 124 -93 124h-141c-83 0 -103 -20 -103 -90v-148c-43 107 -121 189 -268 242c-7 -16 -26 -39 -40 -53
c143 -48 213 -127 250 -228h-190zM721 577l44 -31c38 28 83 71 104 102l-46 35c-20 -31 -63 -76 -102 -106zM269 240l-60 44c-28 -46 -91 -116 -146 -165l56 -38c54 46 119 113 150 159zM259 397v372c22 10 45 30 84 52c65 35 149 42 258 42c116 0 264 -7 360 -18
c-8 19 -20 53 -21 74c-71 5 -246 11 -341 11c-118 0 -203 -11 -271 -50c-43 -24 -74 -53 -97 -53c-36 0 -87 52 -141 114l-46 -62c50 -48 99 -88 143 -106v-306h-133v-70h205z" />
</svg>
