<?xml version="1.0" standalone="no"?>
<!DOCTYPE svg PUBLIC "-//W3C//DTD SVG 1.1//EN" "http://www.w3.org/Graphics/SVG/1.1/DTD/svg11.dtd" >
<svg xmlns="http://www.w3.org/2000/svg" xmlns:xlink="http://www.w3.org/1999/xlink" version="1.1" viewBox="-10 0 1010 1000">
   <path fill="currentColor"
d="M449 209l67 -16h-171v-59h265c-16 -25 -37 -55 -57 -78l72 -17c25 27 55 66 71 95h243v59h-418c23 40 46 93 53 128l-64 18h198c22 -43 46 -103 60 -145l77 20c-20 42 -44 88 -65 125h169v59h-166l47 23c-82 61 -217 108 -337 135c-9 -14 -25 -35 -39 -46
c112 -22 242 -63 315 -112h-350v62c0 104 -15 252 -86 357c-10 -13 -39 -37 -54 -45c63 -96 72 -222 72 -312v-121h147c-6 -36 -28 -89 -49 -130zM870 619l56 28c-99 97 -285 160 -475 193c-8 -15 -21 -37 -35 -51c183 -27 365 -84 454 -170zM815 502l54 27
c-90 72 -243 128 -379 159c-9 -15 -25 -34 -39 -47c132 -27 285 -77 364 -139zM300 228l-52 54c-36 -40 -113 -97 -176 -134l50 -47c63 35 141 88 178 127zM254 391v382c21 11 44 31 82 54c66 41 150 49 259 49c114 0 262 -8 363 -19c-10 20 -21 55 -22 77
c-67 4 -237 10 -343 10c-120 0 -203 -13 -272 -55c-40 -25 -74 -58 -97 -58c-33 0 -83 59 -133 125l-48 -64c48 -53 97 -96 139 -115v-317h-125v-69h197z" />
</svg>
