<?xml version="1.0" standalone="no"?>
<!DOCTYPE svg PUBLIC "-//W3C//DTD SVG 1.1//EN" "http://www.w3.org/Graphics/SVG/1.1/DTD/svg11.dtd" >
<svg xmlns="http://www.w3.org/2000/svg" xmlns:xlink="http://www.w3.org/1999/xlink" version="1.1" viewBox="-10 0 1010 1000">
   <path fill="currentColor"
d="M899 89v190h-532v-190h67v131h155v-175h70v175h170v-131h70zM359 486h199c7 -26 14 -56 20 -83h-253v-60h613v60h-280c-9 29 -19 58 -29 83h277v259c0 32 -5 48 -26 59c-20 12 -52 12 -96 12c-3 -18 -13 -43 -21 -60c32 1 57 1 65 0c10 0 12 -3 12 -12v-199h-105v246h-59
v-246h-97v246h-59v-246h-95v270h-66v-329zM280 239l-61 46c-32 -45 -100 -117 -155 -167l56 -40c56 48 126 116 160 161zM259 419v369c18 9 37 26 69 43c61 34 145 40 252 40c117 0 282 -7 387 -19c-9 19 -21 54 -22 76c-87 5 -264 10 -367 10c-116 0 -198 -9 -263 -45
c-36 -22 -66 -48 -86 -48c-33 0 -83 48 -132 104l-47 -65c46 -42 94 -78 137 -95v-300h-134v-70h206z" />
</svg>
