<?xml version="1.0" standalone="no"?>
<!DOCTYPE svg PUBLIC "-//W3C//DTD SVG 1.1//EN" "http://www.w3.org/Graphics/SVG/1.1/DTD/svg11.dtd" >
<svg xmlns="http://www.w3.org/2000/svg" xmlns:xlink="http://www.w3.org/1999/xlink" version="1.1" viewBox="-10 0 1010 1000">
   <path fill="currentColor"
d="M754 173h-178c-8 24 -15 48 -23 68h201v-68zM943 241v55h-653v-55h189c8 -21 16 -44 24 -68h-149v-54h166c8 -26 16 -52 22 -75l71 8c-5 22 -12 44 -19 67h229v122h120zM636 702v-80h-190c-8 27 -17 55 -26 80h216zM443 387v77h342v-77h-342zM927 622h-220v80h210v54
h-210v85h-71v-85h-302c15 -37 32 -87 46 -134h-61v-54h317v-56h-262v-173h483v173h-150v56h220v54zM279 238l-61 46c-29 -48 -96 -118 -155 -166l57 -41c59 46 128 113 159 161zM253 424v358c24 8 48 27 87 49c64 33 148 40 256 40c112 0 261 -6 359 -16
c-9 19 -20 52 -21 73c-78 5 -244 10 -340 10c-115 0 -200 -11 -268 -48c-43 -22 -76 -50 -99 -50c-36 0 -88 50 -141 108l-52 -61c50 -45 102 -84 147 -100v-293h-123v-70h195z" />
</svg>
