<?xml version="1.0" standalone="no"?>
<!DOCTYPE svg PUBLIC "-//W3C//DTD SVG 1.1//EN" "http://www.w3.org/Graphics/SVG/1.1/DTD/svg11.dtd" >
<svg xmlns="http://www.w3.org/2000/svg" xmlns:xlink="http://www.w3.org/1999/xlink" version="1.1" viewBox="-10 0 1010 1000">
   <path fill="currentColor"
d="M586 280v-80h-263v-64h263v-91h72v91h279v64h-279v80h254v438c0 36 -7 55 -34 66c-25 11 -66 12 -126 12c-3 -19 -13 -45 -23 -64c45 2 85 2 98 1c12 0 16 -4 16 -15v-378h-431v460h-68v-520h242zM654 777h-63v-129h-131v-54h131v-67h-128v-54h189c20 -34 43 -85 56 -119
l54 14c-18 36 -37 74 -54 105h78v54h-132v67h134v54h-134v129zM485 370l45 -12c19 28 37 67 42 93l-47 15c-5 -27 -22 -66 -40 -96zM273 232l-60 46c-28 -44 -89 -109 -141 -154l56 -40c54 42 115 105 145 148zM259 426v338c20 11 42 29 76 48c65 35 151 42 259 42
c115 0 264 -7 360 -18c-8 20 -19 55 -21 77c-71 4 -245 10 -341 10c-119 0 -204 -10 -273 -49c-43 -25 -76 -55 -98 -55c-33 0 -79 55 -126 116l-48 -68c50 -53 100 -93 141 -107v-264h-135v-70h206z" />
</svg>
