<?xml version="1.0" standalone="no"?>
<!DOCTYPE svg PUBLIC "-//W3C//DTD SVG 1.1//EN" "http://www.w3.org/Graphics/SVG/1.1/DTD/svg11.dtd" >
<svg xmlns="http://www.w3.org/2000/svg" xmlns:xlink="http://www.w3.org/1999/xlink" version="1.1" viewBox="-10 0 1010 1000">
   <path fill="currentColor"
d="M621 395h287v361c0 33 -6 50 -29 60c-22 11 -59 11 -110 11c-3 -17 -11 -41 -19 -57c38 1 68 1 79 0c10 -1 13 -4 13 -14v-98c-67 36 -134 71 -190 97l-29 -53c57 -24 138 -63 219 -104v-145h-221v-58zM782 573l-47 34c-18 -30 -58 -74 -94 -104l45 -29
c36 28 78 70 96 99zM790 187v-63h-357v63h357zM790 300v-65h-357v65h357zM860 75v274h-495v-274h495zM523 596v-143h-223v-58h289v363c0 33 -6 49 -29 59c-22 11 -58 11 -109 11c-3 -17 -11 -40 -19 -57c38 1 68 1 78 1c10 -1 13 -4 13 -14v-101c-66 34 -132 69 -188 96
l-30 -54c57 -24 138 -63 218 -103zM469 572l-47 34c-19 -30 -59 -74 -95 -103l45 -30c36 28 77 70 97 99zM276 244l-62 45c-27 -45 -91 -116 -145 -164l57 -39c54 46 118 113 150 158zM252 397v378c23 9 46 29 87 52c65 36 150 43 258 43c118 0 266 -7 363 -18
c-8 19 -19 51 -20 72c-74 5 -249 11 -344 11c-118 0 -204 -11 -273 -50c-42 -24 -72 -53 -96 -53c-35 0 -85 52 -137 114l-45 -60c46 -47 93 -85 135 -104v-315h-132v-70h204z" />
</svg>
