<?xml version="1.0" standalone="no"?>
<!DOCTYPE svg PUBLIC "-//W3C//DTD SVG 1.1//EN" "http://www.w3.org/Graphics/SVG/1.1/DTD/svg11.dtd" >
<svg xmlns="http://www.w3.org/2000/svg" xmlns:xlink="http://www.w3.org/1999/xlink" version="1.1" viewBox="-10 0 1010 1000">
   <path fill="currentColor"
d="M435 387v83h179v-83h-179zM614 134h-179v80h179v-80zM614 335v-70h-179v70h179zM683 470h254s0 18 -1 28c-11 191 -22 262 -46 287c-16 17 -35 23 -61 25c-25 2 -71 1 -118 -2c-1 -16 -8 -38 -18 -54c46 4 90 4 105 4c17 1 26 0 33 -8c15 -15 26 -74 35 -224h-501v-448
h545v56h-227v80h187v51h-187v70h191v52h-191v83zM597 574l48 -12c20 46 43 107 54 146l-52 15c-9 -41 -32 -102 -50 -149zM712 566l44 -18c23 35 48 82 60 111l-46 23c-12 -32 -36 -81 -58 -116zM554 743l-56 7c-2 -46 -11 -115 -20 -169l53 -6c10 54 21 123 23 168z
M323 769l-56 -29c39 -46 74 -122 96 -178l55 23c-22 57 -55 135 -95 184zM287 228l-60 44c-28 -46 -91 -124 -141 -180l56 -37c49 53 114 128 145 173zM250 380v395c17 13 36 29 65 49c66 43 154 49 271 49c127 0 283 -9 385 -22c-9 21 -21 59 -22 82c-72 5 -263 11 -366 11
c-130 0 -214 -10 -286 -56c-40 -28 -74 -63 -95 -63c-31 0 -74 62 -120 132l-49 -70c53 -65 103 -112 145 -127v-311h-130v-69h202z" />
</svg>
