<?xml version="1.0" standalone="no"?>
<!DOCTYPE svg PUBLIC "-//W3C//DTD SVG 1.1//EN" "http://www.w3.org/Graphics/SVG/1.1/DTD/svg11.dtd" >
<svg xmlns="http://www.w3.org/2000/svg" xmlns:xlink="http://www.w3.org/1999/xlink" version="1.1" viewBox="-10 0 1010 1000">
   <path fill="currentColor"
d="M402 479v46h432v-46h-432zM516 294h-114v142h432v-42h-10h-95c-62 0 -77 -13 -77 -66v-34h-77c-8 50 -36 99 -123 129c-10 -10 -29 -26 -42 -34c71 -24 97 -60 106 -95zM577 190v58h75v-58h-75zM834 294h-124v34c0 18 3 20 26 20h78c13 0 18 0 20 -3v-51zM405 708l35 -26
h-143v-54h419v-57h-378v-323h182v-58h-218v-54h172c-12 -24 -33 -55 -52 -78l62 -20c22 25 47 62 58 84l-41 14h188c19 -29 43 -69 55 -95l70 17c-17 27 -34 54 -51 78h173v54h-226v58h191v323h-116v57h163v54h-163v98c0 34 -7 48 -33 56c-25 9 -65 9 -128 9
c-4 -17 -13 -37 -21 -53c45 1 86 1 97 0c13 0 16 -3 16 -14v-96h-248c40 29 85 69 108 96l-53 40c-24 -31 -76 -77 -118 -110zM267 244l-58 44c-30 -42 -92 -107 -143 -155l55 -37c51 43 115 107 146 148zM255 402v384c19 9 38 25 72 45c61 34 146 40 253 40
c116 0 281 -7 386 -20c-9 20 -20 55 -21 77c-87 5 -264 10 -367 10c-116 0 -199 -9 -263 -45c-37 -22 -66 -48 -86 -48c-33 0 -83 48 -132 104l-47 -65c45 -41 92 -78 134 -94v-318h-135v-70h206z" />
</svg>
