<?xml version="1.0" standalone="no"?>
<!DOCTYPE svg PUBLIC "-//W3C//DTD SVG 1.1//EN" "http://www.w3.org/Graphics/SVG/1.1/DTD/svg11.dtd" >
<svg xmlns="http://www.w3.org/2000/svg" xmlns:xlink="http://www.w3.org/1999/xlink" version="1.1" viewBox="-10 0 1010 1000">
   <path fill="currentColor"
d="M615 258h-6c-66 60 -181 121 -276 153c-7 -15 -22 -36 -35 -48c78 -20 169 -61 234 -105h-221v-51h289c-41 -19 -87 -37 -127 -50l42 -32c37 12 81 28 122 45c32 -14 66 -31 95 -50h-349v-51h415l13 -3l41 29c-42 39 -100 75 -159 100c8 4 14 8 21 12h158l12 -3l47 17
c-47 47 -99 96 -145 126l-54 -20c26 -19 58 -44 86 -69h-139v83c0 30 -5 42 -28 50c-22 7 -57 7 -110 7c-4 -15 -12 -32 -19 -47c38 1 69 1 80 1c10 -1 13 -4 13 -12v-82zM685 644h-134v75h134v-75zM551 765v34h-57v-200h249v166h-192zM559 488l41 24
c-33 39 -98 85 -155 110c-8 -13 -22 -33 -35 -44c54 -17 117 -55 149 -90zM818 580l-33 35c-28 -30 -86 -70 -134 -95l31 -31c49 24 107 63 136 91zM896 418v337c0 31 -6 46 -27 55c-20 10 -53 11 -101 11c-3 -17 -12 -39 -19 -54h68c9 -1 12 -4 12 -12v-284h-421v357h-66
v-410h554zM272 238l-61 45c-27 -47 -91 -115 -146 -163l57 -40c55 46 120 112 150 158zM250 397v378c23 9 46 29 86 51c66 35 150 41 259 41c115 0 266 -7 363 -17c-8 18 -19 50 -21 71c-73 5 -249 10 -344 10c-118 0 -203 -10 -272 -48c-42 -24 -72 -52 -96 -52
c-35 0 -86 51 -138 112l-44 -59c46 -46 93 -85 135 -102v-315h-126v-70h198z" />
</svg>
