<?xml version="1.0" standalone="no"?>
<!DOCTYPE svg PUBLIC "-//W3C//DTD SVG 1.1//EN" "http://www.w3.org/Graphics/SVG/1.1/DTD/svg11.dtd" >
<svg xmlns="http://www.w3.org/2000/svg" xmlns:xlink="http://www.w3.org/1999/xlink" version="1.1" viewBox="-10 0 1010 1000">
   <path fill="currentColor"
d="M426 207h144v-62h-144v62zM791 145h-150v62h150v-62zM570 299v-47h-213v-152h213v-56h71v56h222v152h-222v47h304v51h-663v-51h288zM298 217l-59 45c-32 -44 -100 -118 -152 -171l54 -38c53 50 123 121 157 164zM436 619v52h349v-52h-349zM436 528v50h349v-50h-349z
M436 438v49h349v-49h-349zM514 714l54 23c-56 39 -137 84 -200 113c58 20 130 23 218 23c127 0 283 -9 385 -21c-9 20 -21 58 -22 81c-72 5 -263 11 -366 11c-130 0 -214 -10 -286 -56c-40 -28 -74 -63 -95 -63c-32 0 -76 62 -124 132l-50 -69c55 -65 107 -113 150 -127
v-312h-130v-69h202v397c17 11 36 29 65 48c16 10 31 17 49 24c-10 -12 -30 -37 -44 -47c64 -23 137 -58 186 -88h-140v-318h491v318h-165c77 28 161 63 215 88l-34 48c-53 -26 -138 -64 -217 -95l26 -41h-168z" />
</svg>
