<?xml version="1.0" standalone="no"?>
<!DOCTYPE svg PUBLIC "-//W3C//DTD SVG 1.1//EN" "http://www.w3.org/Graphics/SVG/1.1/DTD/svg11.dtd" >
<svg xmlns="http://www.w3.org/2000/svg" xmlns:xlink="http://www.w3.org/1999/xlink" version="1.1" viewBox="-10 0 1010 1000">
   <path fill="currentColor"
d="M657 196h-94c-21 44 -45 85 -74 121h240c-28 -36 -53 -78 -72 -121zM752 429v-60h-285v60h285zM752 542v-63h-285v63h285zM301 255l47 -32c24 21 52 48 74 71c26 -29 49 -62 67 -98h-189v-63h219c10 -28 20 -59 28 -91l67 11c-7 28 -15 55 -24 80h347v63h-213
c20 38 47 73 77 106c25 -27 52 -58 69 -82l55 33c-28 29 -59 59 -87 83c37 31 79 57 124 74c-15 12 -34 37 -44 54c-33 -15 -66 -34 -95 -56v185h-182v167c0 34 -6 49 -32 59c-24 9 -60 9 -116 9c-3 -18 -13 -40 -21 -57c39 1 74 1 85 1c11 -1 14 -4 14 -13v-166h-173v-185
c-29 24 -61 45 -94 64c-10 -14 -34 -41 -49 -52c47 -22 88 -51 124 -83c-22 -26 -53 -58 -78 -82zM715 648l51 -34c49 44 115 105 147 142l-52 42c-32 -39 -97 -104 -146 -150zM429 615l61 22c-42 55 -103 119 -152 162c-11 -11 -36 -34 -51 -44c50 -38 104 -92 142 -140z
M273 250l-65 38c-25 -51 -79 -135 -122 -197l61 -32c43 60 100 142 126 191zM250 380v396c17 12 36 29 65 48c66 43 154 49 271 49c127 0 284 -9 386 -22c-9 21 -22 59 -23 82c-71 5 -263 11 -366 11c-130 0 -214 -10 -286 -56c-40 -28 -74 -63 -95 -63
c-31 0 -74 62 -120 132l-49 -70c52 -65 103 -112 145 -127v-311h-130v-69h202z" />
</svg>
