<?xml version="1.0" standalone="no"?>
<!DOCTYPE svg PUBLIC "-//W3C//DTD SVG 1.1//EN" "http://www.w3.org/Graphics/SVG/1.1/DTD/svg11.dtd" >
<svg xmlns="http://www.w3.org/2000/svg" xmlns:xlink="http://www.w3.org/1999/xlink" version="1.1" viewBox="-10 0 1010 1000">
   <path fill="currentColor"
d="M462 215v-53h-169v-59h169v-59h68v59h169v-59h69v59h178v59h-178v53h-69v-53h-169v53h-68zM279 239l-61 46c-29 -48 -96 -119 -155 -167l57 -40c59 46 128 113 159 161zM437 434h146v-58h-146v58zM437 277v55h146v-55h-146zM803 332v-55h-155v55h155zM803 434v-58h-155
v58h155zM326 824l14 7c64 33 148 40 256 40c111 0 260 -6 358 -16c-8 19 -19 52 -20 73c-79 5 -244 10 -340 10c-115 0 -200 -11 -269 -48c-42 -22 -75 -50 -98 -50c-36 0 -88 50 -141 108l-52 -61c50 -45 102 -84 147 -100v-293h-123v-70h195v358c19 7 39 20 66 37v-289
h264v-51h-216v-248h509v248h-228v51h264v241c0 30 -6 42 -28 52c-21 9 -58 9 -110 9c-2 -16 -11 -35 -19 -50c37 1 68 1 79 1c10 0 13 -3 13 -13v-190h-199v79l87 -5c-9 -17 -17 -33 -27 -47l43 -10c28 41 56 98 65 136l-44 12c-3 -13 -8 -26 -14 -42
c-116 10 -231 18 -319 25l-6 -58c42 -2 94 -5 150 -8v-82h-196v244h-61z" />
</svg>
