<?xml version="1.0" standalone="no"?>
<!DOCTYPE svg PUBLIC "-//W3C//DTD SVG 1.1//EN" "http://www.w3.org/Graphics/SVG/1.1/DTD/svg11.dtd" >
<svg xmlns="http://www.w3.org/2000/svg" xmlns:xlink="http://www.w3.org/1999/xlink" version="1.1" viewBox="-10 0 1010 1000">
   <path fill="currentColor"
d="M932 509h-111v103h127v59h-127v137h-61v-137h-146v-59h146v-103h-77c-11 29 -24 56 -38 77c-11 -5 -34 -16 -48 -21c34 -49 57 -119 72 -187l52 9c-5 22 -11 43 -17 64h56v-85h61v85h111v58zM866 138h-94c-16 99 -53 177 -145 224c-7 -13 -25 -34 -38 -43
c79 -37 110 -103 124 -181h-102v-57h316v25c-5 135 -9 187 -25 205c-11 14 -25 20 -47 21c-15 1 -44 2 -72 0c-1 -16 -7 -37 -15 -52c28 3 53 3 63 3s16 0 22 -7c6 -10 10 -46 13 -138zM485 181h-97c-11 26 -25 52 -40 76h102c13 -22 26 -50 35 -76zM532 409v-99h-66v99h66z
M466 562h66v-102h-66v102zM349 562h68v-102h-65v9c0 28 -1 60 -3 93zM352 310v99h65v-99h-65zM299 469v-140c-10 13 -21 25 -31 37c-11 -11 -39 -30 -53 -38c70 -69 126 -175 160 -283l62 13c-7 22 -15 43 -23 65h102l8 -3l40 27c-14 36 -35 76 -54 110h76v490
c0 27 -4 44 -21 55c-17 8 -40 9 -75 9c-2 -14 -8 -39 -16 -54h49c7 0 9 -2 9 -10v-132h-66v165h-49v-165h-72c-6 63 -19 127 -41 179c-10 -10 -33 -26 -47 -30c38 -88 42 -207 42 -295zM248 238l-58 39c-25 -44 -79 -115 -126 -165l55 -34c46 49 103 117 129 160zM229 412
v346c20 12 42 32 77 54c67 41 155 48 273 48c128 0 285 -9 387 -20c-10 19 -22 53 -23 75c-73 5 -266 11 -366 11c-130 0 -217 -10 -288 -55c-41 -26 -75 -60 -96 -60c-28 0 -68 61 -107 127l-50 -66c46 -57 90 -101 127 -117v-273h-109v-70h175z" />
</svg>
