<?xml version="1.0" standalone="no"?>
<!DOCTYPE svg PUBLIC "-//W3C//DTD SVG 1.1//EN" "http://www.w3.org/Graphics/SVG/1.1/DTD/svg11.dtd" >
<svg xmlns="http://www.w3.org/2000/svg" xmlns:xlink="http://www.w3.org/1999/xlink" version="1.1" viewBox="-10 0 1010 1000">
   <path fill="currentColor"
d="M649 333v86h190v-86h-190zM649 200v83h190v-83h-190zM583 238v-91h101c12 -33 23 -74 29 -105l72 11c-12 32 -23 66 -34 94h156v325h-84v251c0 18 1 29 4 33c3 3 9 4 15 4h23c8 0 16 -1 19 -4c5 -4 8 -12 10 -25c2 -17 3 -52 4 -99c12 9 30 20 46 25c-1 42 -4 91 -9 109
c-4 17 -12 28 -23 35c-9 6 -27 9 -41 9h-42c-17 0 -35 -4 -48 -15c-12 -11 -16 -26 -16 -80v-243h-53c-7 177 -31 291 -143 360c-7 -15 -25 -37 -39 -47c98 -56 117 -155 123 -313h-70v-230c-30 36 -69 71 -112 103c107 134 104 376 49 435c-22 25 -45 34 -79 34
c-16 1 -39 0 -61 -1c-1 -17 -6 -42 -14 -59c24 2 48 3 61 3c18 0 31 -2 43 -17c18 -18 30 -76 26 -146c-56 54 -130 108 -193 141c-8 -14 -24 -36 -36 -47c75 -32 168 -98 221 -159c-4 -21 -9 -42 -16 -63c-48 43 -111 87 -164 115c-8 -13 -23 -34 -35 -45
c58 -25 134 -72 180 -117c-8 -15 -17 -30 -27 -44c-43 28 -88 52 -134 73c-9 -13 -25 -33 -38 -43c40 -18 79 -39 118 -62c-20 -32 -51 -75 -78 -107l44 -22c26 31 57 71 77 100c17 -11 32 -23 46 -36c-16 -27 -43 -64 -64 -92l43 -22c21 23 44 55 61 79
c11 -12 22 -23 32 -35zM495 40l52 42c-75 44 -183 86 -278 116c-4 -12 -12 -31 -21 -44c90 -31 192 -74 247 -114zM250 271l-68 31c-18 -53 -64 -140 -104 -206l64 -26c40 63 87 148 108 201zM235 380v387c20 13 42 34 77 56c68 43 155 50 274 50c125 0 279 -9 380 -20
c-9 20 -21 58 -22 81c-72 4 -259 10 -361 10c-130 0 -216 -10 -287 -56c-42 -28 -77 -63 -98 -63c-30 0 -71 63 -114 132l-53 -70c47 -59 93 -104 133 -123v-315h-116v-69h187z" />
</svg>
