<?xml version="1.0" standalone="no"?>
<!DOCTYPE svg PUBLIC "-//W3C//DTD SVG 1.1//EN" "http://www.w3.org/Graphics/SVG/1.1/DTD/svg11.dtd" >
<svg xmlns="http://www.w3.org/2000/svg" xmlns:xlink="http://www.w3.org/1999/xlink" version="1.1" viewBox="-10 0 1010 1000">
   <path fill="currentColor"
d="M446 321v46h342v-46h-342zM446 235v45h342v-45h-342zM446 151v44h342v-44h-342zM367 507v64h-64v-113h276c-8 -13 -16 -26 -24 -37l45 -13h-221v-299h184c8 -24 17 -49 22 -68l75 10c-10 21 -21 40 -32 58h230v299h-234c12 16 25 33 35 50h274v113h-67v-64h-499zM491 757
h254v-98h-254v98zM816 838h-71v-33h-254v35h-68v-195c-31 25 -63 46 -92 64c-7 -11 -28 -37 -41 -48c66 -35 142 -86 190 -135l55 22c-19 21 -42 41 -68 62h295c-28 -19 -55 -37 -81 -53l42 -34c71 41 161 104 207 145l-44 39c-17 -17 -43 -37 -70 -58v189zM298 217l-59 45
c-32 -44 -100 -118 -153 -171l55 -38c53 50 123 121 157 164zM250 380v396c17 12 36 29 65 48c66 43 154 49 271 49c127 0 283 -9 385 -22c-9 21 -21 59 -22 82c-72 5 -263 11 -366 11c-130 0 -214 -10 -286 -56c-40 -28 -74 -63 -95 -63c-31 0 -74 62 -120 132l-50 -70
c53 -65 104 -112 146 -127v-311h-130v-69h202z" />
</svg>
