<?xml version="1.0" standalone="no"?>
<!DOCTYPE svg PUBLIC "-//W3C//DTD SVG 1.1//EN" "http://www.w3.org/Graphics/SVG/1.1/DTD/svg11.dtd" >
<svg xmlns="http://www.w3.org/2000/svg" xmlns:xlink="http://www.w3.org/1999/xlink" version="1.1" viewBox="-10 0 1010 1000">
   <path fill="currentColor"
d="M422 410v-128c-38 47 -88 92 -132 119c-9 -14 -27 -33 -39 -44c52 -24 111 -72 149 -121h-127v-51h149v-62c-43 6 -87 9 -127 11c-3 -12 -10 -31 -17 -44c97 -7 217 -22 279 -41l47 41c-35 10 -76 19 -121 25v70h116v25c37 -46 65 -104 83 -165l56 12
c-7 24 -16 46 -26 69h224s-1 18 -2 26c-14 149 -29 209 -51 231c-14 15 -29 20 -50 22c-17 1 -47 2 -78 0c-1 -17 -7 -40 -15 -55c29 3 56 4 67 4c12 0 19 -1 26 -9c14 -15 26 -59 37 -167h-58c-28 79 -74 153 -125 203c-6 -4 -15 -12 -24 -19c-6 7 -12 14 -18 20
c97 71 210 106 319 133c-15 13 -34 36 -43 55c-108 -32 -215 -73 -315 -151c-82 70 -195 125 -312 159c-8 -16 -26 -39 -41 -52c140 -36 278 -104 350 -190l50 19c-4 -3 -9 -6 -12 -8c47 -43 87 -103 113 -169h-66c-20 33 -41 65 -64 90c-9 -8 -29 -23 -43 -32h-88
c34 25 73 57 95 78l-32 37c-17 -18 -45 -43 -73 -68v127h-61zM641 659v111c0 32 -6 45 -28 54c-21 8 -54 9 -103 8c-3 -16 -11 -36 -19 -50c33 1 62 1 72 0c10 0 13 -3 13 -12v-82c-85 34 -173 70 -244 96l-28 -56c68 -20 170 -57 272 -94v-162h65v129l48 27
c28 -31 61 -71 79 -101l59 28c-29 35 -63 72 -92 101c56 33 111 66 146 92l-39 41c-45 -34 -127 -86 -201 -130zM393 558l51 -27c25 28 58 66 74 89l-53 32c-15 -24 -48 -65 -72 -94zM254 244l-65 35c-21 -48 -67 -128 -105 -188l62 -29c39 56 87 135 108 182zM235 380v394
c18 13 38 32 70 52c66 44 154 50 273 50c130 0 286 -9 389 -22c-8 20 -20 57 -22 80c-73 4 -266 11 -369 11c-132 0 -217 -10 -287 -56c-41 -28 -75 -64 -95 -64c-29 0 -68 63 -108 133l-50 -69c46 -60 90 -106 128 -123v-317h-114v-69h185z" />
</svg>
