<?xml version="1.0" standalone="no"?>
<!DOCTYPE svg PUBLIC "-//W3C//DTD SVG 1.1//EN" "http://www.w3.org/Graphics/SVG/1.1/DTD/svg11.dtd" >
<svg xmlns="http://www.w3.org/2000/svg" xmlns:xlink="http://www.w3.org/1999/xlink" version="1.1" viewBox="-10 0 1010 1000">
   <path fill="currentColor"
d="M350 173l-67 22c-10 -35 -34 -93 -53 -137l63 -17c21 42 45 99 57 132zM533 201v68h-468v-68h468zM428 761l105 -65c3 20 13 45 19 59c-150 100 -172 122 -185 140v-1l-1 1c-6 -18 -24 -51 -34 -66c12 -10 27 -30 27 -69v-313h-137v153c0 113 -18 260 -120 356
c-12 -12 -41 -34 -58 -43c97 -88 109 -214 109 -314v-219h275v381zM901 95l52 35c-44 95 -100 208 -149 299c108 94 137 172 137 244c0 59 -15 106 -52 129c-18 12 -41 19 -67 23c-27 3 -62 3 -93 1c0 -20 -7 -51 -20 -72c32 3 62 4 85 2c16 -1 33 -5 46 -12
c23 -13 31 -42 30 -78c0 -64 -32 -140 -141 -227c46 -85 93 -194 127 -274h-187v792h-71v-859h291z" />
</svg>
