<?xml version="1.0" standalone="no"?>
<!DOCTYPE svg PUBLIC "-//W3C//DTD SVG 1.1//EN" "http://www.w3.org/Graphics/SVG/1.1/DTD/svg11.dtd" >
<svg xmlns="http://www.w3.org/2000/svg" xmlns:xlink="http://www.w3.org/1999/xlink" version="1.1" viewBox="-10 0 1010 1000">
   <path fill="currentColor"
d="M477 269h-141c-4 209 -37 471 -237 682c-14 -15 -41 -33 -60 -45c194 -200 224 -449 227 -637h-128v146h-65v-212h193v-159h70v159h208v212h-67v-146zM417 776l132 -78c5 19 14 47 21 61c-172 105 -197 126 -213 143c-7 -17 -25 -52 -36 -67c12 -9 26 -31 26 -71v-330h70
v342zM899 93l53 36c-36 91 -82 202 -125 295c89 94 112 170 112 239c0 59 -13 107 -47 131c-17 10 -40 17 -63 20c-28 3 -62 3 -93 1c-1 -20 -10 -54 -23 -75c33 4 62 4 84 3c16 -1 32 -4 44 -11c20 -12 27 -42 27 -76c0 -61 -26 -133 -115 -222c37 -85 76 -190 104 -267
h-171v789h-70v-859h271z" />
</svg>
