<?xml version="1.0" standalone="no"?>
<!DOCTYPE svg PUBLIC "-//W3C//DTD SVG 1.1//EN" "http://www.w3.org/Graphics/SVG/1.1/DTD/svg11.dtd" >
<svg xmlns="http://www.w3.org/2000/svg" xmlns:xlink="http://www.w3.org/1999/xlink" version="1.1" viewBox="-10 0 1010 1000">
   <path fill="currentColor"
d="M434 618h-268v213h268v-213zM96 956v-407h410v393h-72v-42h-268v56h-70zM65 97h465s-1 22 -2 33c-15 215 -27 298 -54 327c-17 20 -35 27 -62 29c-24 3 -67 2 -111 0c-2 -22 -10 -50 -21 -69c43 4 84 4 100 4s25 -1 33 -11c18 -18 30 -82 42 -245h-156
c-25 169 -94 277 -217 346c-11 -12 -38 -39 -53 -51c117 -57 178 -150 199 -295h-163v-68zM899 95l54 36c-42 94 -98 207 -147 297c107 91 134 170 134 240c1 61 -14 107 -52 131c-17 11 -41 19 -67 22c-27 3 -62 3 -93 1c-1 -20 -8 -53 -22 -74c33 3 63 3 85 2
c17 -1 34 -4 47 -12c22 -12 30 -41 29 -77c0 -62 -31 -137 -139 -223c44 -83 92 -191 125 -270h-186v789h-73v-859h293z" />
</svg>
