<?xml version="1.0" standalone="no"?>
<!DOCTYPE svg PUBLIC "-//W3C//DTD SVG 1.1//EN" "http://www.w3.org/Graphics/SVG/1.1/DTD/svg11.dtd" >
<svg xmlns="http://www.w3.org/2000/svg" xmlns:xlink="http://www.w3.org/1999/xlink" version="1.1" viewBox="-10 0 1010 1000">
   <path fill="currentColor"
d="M485 875h24c8 0 14 -1 18 -5s8 -12 9 -28c2 -18 4 -57 4 -107c13 11 32 21 50 26c-2 45 -4 100 -9 119c-4 21 -12 34 -22 42c-12 9 -30 12 -46 12h-45c-18 0 -37 -5 -50 -17c-14 -12 -19 -29 -19 -98v-444h-177c-11 160 -25 347 -34 454l163 -38c-2 18 0 47 2 61
c-213 56 -243 67 -262 80c-5 -20 -21 -54 -32 -72c28 -6 51 -14 57 -53c10 -50 38 -485 47 -643h-107v-68h495v68h-314l-10 144h240v518c0 25 1 40 5 45c3 3 9 4 13 4zM361 681l-60 22c-8 -58 -37 -148 -66 -214l55 -20c31 67 60 155 71 212zM907 94l53 36
c-41 94 -92 209 -138 299c100 93 125 172 126 243c0 60 -15 106 -49 130c-18 11 -40 18 -65 21s-57 3 -85 2c-1 -20 -8 -53 -21 -73c29 3 58 3 77 2c17 -1 32 -5 44 -12c20 -13 27 -42 27 -78c0 -63 -29 -137 -129 -224c42 -85 85 -193 116 -272h-177v789h-71v-860h281z" />
</svg>
