<?xml version="1.0" standalone="no"?>
<!DOCTYPE svg PUBLIC "-//W3C//DTD SVG 1.1//EN" "http://www.w3.org/Graphics/SVG/1.1/DTD/svg11.dtd" >
<svg xmlns="http://www.w3.org/2000/svg" xmlns:xlink="http://www.w3.org/1999/xlink" version="1.1" viewBox="-10 0 1010 1000">
   <path fill="currentColor"
d="M373 289v155h202v70h-202v17c54 47 171 156 197 184l-36 73c-30 -40 -105 -122 -161 -179v346h-71v-365c-59 112 -139 217 -217 279c-13 -18 -37 -45 -55 -59c90 -62 185 -178 243 -296h-207v-70h236v-155h-126c-21 49 -45 94 -70 129c-14 -9 -44 -28 -62 -36
c59 -74 100 -189 124 -306l69 14c-9 45 -21 90 -36 131h101v-173h71v173h182v68h-182zM910 95l53 35c-41 93 -92 209 -139 299c101 94 126 172 127 243c0 60 -15 107 -49 131c-18 11 -41 18 -65 21c-26 3 -58 3 -87 1c-1 -20 -8 -52 -21 -73c29 3 58 4 77 3
c17 -2 32 -5 44 -12c21 -13 28 -42 28 -78c0 -63 -29 -137 -130 -225c42 -84 86 -193 117 -272h-180v788h-72v-858h285z" />
</svg>
