<?xml version="1.0" standalone="no"?>
<!DOCTYPE svg PUBLIC "-//W3C//DTD SVG 1.1//EN" "http://www.w3.org/Graphics/SVG/1.1/DTD/svg11.dtd" >
<svg xmlns="http://www.w3.org/2000/svg" xmlns:xlink="http://www.w3.org/1999/xlink" version="1.1" viewBox="-10 0 1010 1000">
   <path fill="currentColor"
d="M574 321l-50 53c-43 -36 -107 -80 -178 -122c-76 53 -159 100 -242 135c-10 -16 -30 -43 -43 -58c75 -29 151 -69 221 -114c-60 -33 -121 -66 -176 -91l47 -46c58 27 124 59 188 95c55 -42 101 -87 133 -131l70 30c-39 48 -87 93 -140 136c67 39 128 78 170 113zM582 514
h-316c-41 130 -99 259 -182 350c-13 -14 -36 -34 -52 -44c74 -80 127 -192 164 -306h-142v-67h161c11 -40 20 -80 27 -119l70 12c-7 35 -16 71 -26 107h296v67zM408 675l60 -20c44 88 98 206 123 275l-64 25c-8 -23 -19 -52 -31 -83c-252 39 -286 46 -306 58
c-4 -15 -15 -49 -24 -67c17 -4 34 -25 53 -58c20 -30 85 -151 120 -262l73 20c-40 98 -92 199 -143 278l202 -28c-19 -47 -42 -96 -63 -138zM902 92l49 32c-35 91 -81 204 -122 299c87 94 110 172 110 241c0 58 -13 106 -44 127c-17 11 -38 18 -61 21c-25 3 -57 3 -85 1
c-2 -19 -9 -47 -21 -68c31 4 58 4 78 3c16 -1 30 -4 41 -11c19 -12 26 -44 25 -79c0 -63 -24 -136 -111 -228c37 -85 75 -191 101 -268h-168v791h-70v-858h267z" />
</svg>
