<?xml version="1.0" standalone="no"?>
<!DOCTYPE svg PUBLIC "-//W3C//DTD SVG 1.1//EN" "http://www.w3.org/Graphics/SVG/1.1/DTD/svg11.dtd" >
<svg xmlns="http://www.w3.org/2000/svg" xmlns:xlink="http://www.w3.org/1999/xlink" version="1.1" viewBox="-10 0 1010 1000">
   <path fill="currentColor"
d="M335 394h-162v95h162v-95zM173 648h162v-98h-162v98zM227 162h337s-1 30 -1 40c-10 487 -18 645 -52 691c-20 28 -40 37 -72 40c-29 4 -78 3 -126 0c-1 -20 -9 -51 -22 -71c52 4 100 4 121 4c16 0 26 -2 36 -17c26 -33 36 -189 46 -619h-300c-19 36 -40 70 -62 102h267
v376h-226v49h-64v-394c-10 13 -21 25 -32 37c-13 -13 -38 -34 -54 -43c75 -79 137 -203 169 -315l74 19c-11 34 -24 68 -39 101zM908 97l53 34c-37 94 -84 210 -127 301c91 94 114 173 114 243c0 61 -14 108 -47 130c-16 12 -37 19 -62 21c-24 3 -56 3 -83 2
c-1 -21 -8 -52 -20 -74c29 3 56 3 75 3c15 -2 29 -5 40 -11c19 -12 25 -43 25 -79c0 -63 -25 -136 -115 -226c38 -85 78 -195 105 -273h-171v788h-69v-855h270z" />
</svg>
