<?xml version="1.0" standalone="no"?>
<!DOCTYPE svg PUBLIC "-//W3C//DTD SVG 1.1//EN" "http://www.w3.org/Graphics/SVG/1.1/DTD/svg11.dtd" >
<svg xmlns="http://www.w3.org/2000/svg" xmlns:xlink="http://www.w3.org/1999/xlink" version="1.1" viewBox="-10 0 1010 1000">
   <path fill="currentColor"
d="M256 291l47 -21c32 41 61 98 73 136l-51 25c-10 -40 -39 -98 -69 -140zM203 474h225v-247h-225v247zM494 167v699c0 39 -9 57 -35 69c-26 11 -67 13 -137 12c-3 -17 -12 -46 -22 -64c50 3 95 2 108 2c14 -1 20 -5 20 -19v-329h-225c-1 133 -15 307 -104 421
c-12 -11 -39 -29 -54 -36c84 -108 94 -260 94 -385h-88v-63h88v-307h102c13 -39 27 -89 33 -125l81 15c-16 36 -32 77 -47 110h186zM378 732l-51 25c-10 -43 -38 -106 -68 -152l47 -21c32 45 61 107 72 148zM894 93l54 38c-43 91 -98 199 -147 291c106 93 134 171 134 240
c0 59 -16 107 -53 131c-18 10 -43 18 -70 21c-30 3 -70 3 -104 1c-2 -20 -11 -54 -24 -74c37 3 72 4 97 2c19 -1 37 -4 51 -11c24 -13 32 -41 32 -76c-1 -63 -34 -135 -141 -223c43 -83 91 -188 125 -266h-197v788h-71v-858h303z" />
</svg>
