<?xml version="1.0" standalone="no"?>
<!DOCTYPE svg PUBLIC "-//W3C//DTD SVG 1.1//EN" "http://www.w3.org/Graphics/SVG/1.1/DTD/svg11.dtd" >
<svg xmlns="http://www.w3.org/2000/svg" xmlns:xlink="http://www.w3.org/1999/xlink" version="1.1" viewBox="-10 0 1010 1000">
   <path fill="currentColor"
d="M291 193l-66 32c-14 -42 -51 -103 -85 -148l62 -27c37 44 72 104 89 143zM367 301v69c0 36 -1 77 -6 122h223v69h-233c-3 16 -7 30 -11 46c82 74 178 172 224 238l-56 47c-38 -58 -117 -144 -191 -215c-38 93 -102 191 -215 278c-12 -14 -37 -37 -57 -48
c148 -107 208 -233 233 -346h-224v-69h235c5 -46 6 -87 6 -123v-68h-207v-69h280c29 -52 63 -128 82 -183l75 21c-25 55 -55 115 -84 162h117v69h-191zM910 92l53 35c-41 93 -92 209 -139 299c101 94 126 172 127 243c0 60 -15 107 -49 131c-18 11 -41 18 -65 21
c-26 3 -58 2 -87 1c-1 -20 -8 -52 -21 -73c29 3 58 4 77 3c17 -2 32 -5 44 -12c21 -13 28 -42 28 -79c0 -62 -29 -137 -130 -225c42 -84 86 -193 117 -271h-180v791h-72v-861h285z" />
</svg>
