<?xml version="1.0" standalone="no"?>
<!DOCTYPE svg PUBLIC "-//W3C//DTD SVG 1.1//EN" "http://www.w3.org/Graphics/SVG/1.1/DTD/svg11.dtd" >
<svg xmlns="http://www.w3.org/2000/svg" xmlns:xlink="http://www.w3.org/1999/xlink" version="1.1" viewBox="-10 0 1010 1000">
   <path fill="currentColor"
d="M559 609l1 66l-208 23v178c0 39 -9 58 -38 69c-30 11 -75 11 -148 11c-4 -20 -14 -47 -24 -66c53 2 105 2 119 1c15 -1 19 -4 19 -16v-169l-221 23l-8 -70c62 -5 142 -13 229 -22v-64c43 -31 95 -77 134 -120h-311v-64h370l15 -5l49 38c-50 60 -121 126 -185 174v34
c68 -7 138 -14 207 -21zM234 357l-62 26c-14 -46 -45 -118 -72 -171l57 -23c30 53 62 123 77 168zM250 191l59 -16c20 54 42 124 51 170l-62 20c-9 -47 -30 -119 -48 -174zM486 146l70 27c-33 69 -75 150 -110 203l-57 -23c34 -54 76 -144 97 -207zM518 42l51 59
c-124 35 -315 55 -474 64c-3 -18 -12 -44 -21 -61c156 -10 342 -31 444 -62zM897 93l53 35c-41 93 -93 204 -141 296c102 93 128 170 129 240c0 58 -16 107 -51 129c-18 11 -42 19 -68 22c-28 3 -66 2 -97 0c-2 -19 -10 -51 -23 -72c34 4 68 4 90 2c18 0 34 -3 47 -10
c22 -13 30 -43 30 -78c0 -62 -31 -134 -133 -224c42 -84 86 -189 117 -266h-174v790h-72v-860h281z" />
</svg>
