<?xml version="1.0" standalone="no"?>
<!DOCTYPE svg PUBLIC "-//W3C//DTD SVG 1.1//EN" "http://www.w3.org/Graphics/SVG/1.1/DTD/svg11.dtd" >
<svg xmlns="http://www.w3.org/2000/svg" xmlns:xlink="http://www.w3.org/1999/xlink" version="1.1" viewBox="-10 0 1010 1000">
   <path fill="currentColor"
d="M581 429h-148v445c0 36 -7 56 -30 68c-22 12 -57 13 -113 13c-3 -19 -11 -47 -20 -67c39 1 74 1 83 1c11 -1 15 -4 15 -15v-445h-83c-6 247 -27 426 -161 529c-9 -17 -29 -39 -45 -51c120 -90 136 -252 141 -478h-163v-70h231v-126h-180v-66h180v-120h72v120h181v66h-181
v126h221v70zM121 498l57 13c-19 86 -50 173 -88 232c-10 -9 -36 -25 -48 -33c37 -55 63 -133 79 -212zM458 513l55 -15c33 71 63 162 74 222l-58 16c-10 -60 -39 -152 -71 -223zM907 84l51 34c-37 93 -85 208 -128 301c92 94 116 173 116 243c0 59 -14 108 -47 130
c-16 11 -39 18 -62 21c-26 3 -58 3 -86 1c-1 -20 -8 -50 -21 -71c31 4 59 4 77 3c17 -2 32 -5 43 -11c19 -13 26 -44 26 -80c0 -63 -26 -137 -119 -226c39 -87 79 -194 108 -273h-173v800h-69v-868h272z" />
</svg>
