<?xml version="1.0" standalone="no"?>
<!DOCTYPE svg PUBLIC "-//W3C//DTD SVG 1.1//EN" "http://www.w3.org/Graphics/SVG/1.1/DTD/svg11.dtd" >
<svg xmlns="http://www.w3.org/2000/svg" xmlns:xlink="http://www.w3.org/1999/xlink" version="1.1" viewBox="-10 0 1010 1000">
   <path fill="currentColor"
d="M425 285v-123h-255v123h255zM425 470v-124h-255v124h255zM425 655v-124h-255v124h255zM498 95v628h-399v-628h399zM181 740l73 19c-37 76 -97 150 -154 199c-14 -13 -44 -35 -62 -47c57 -42 112 -106 143 -171zM337 766l64 -27c47 51 96 121 119 168l-67 34
c-21 -48 -71 -122 -116 -175zM904 93l53 34c-41 94 -91 209 -139 300c101 93 126 172 127 242c0 61 -15 108 -49 130c-18 12 -40 19 -66 23c-25 3 -58 3 -87 1c-1 -21 -8 -52 -21 -73c31 2 58 2 79 2c17 -2 31 -4 43 -11c22 -14 28 -43 28 -80c0 -61 -29 -137 -130 -224
c42 -84 86 -192 117 -272h-188v792h-71v-861h292z" />
</svg>
