<?xml version="1.0" standalone="no"?>
<!DOCTYPE svg PUBLIC "-//W3C//DTD SVG 1.1//EN" "http://www.w3.org/Graphics/SVG/1.1/DTD/svg11.dtd" >
<svg xmlns="http://www.w3.org/2000/svg" xmlns:xlink="http://www.w3.org/1999/xlink" version="1.1" viewBox="-10 0 1010 1000">
   <path fill="currentColor"
d="M311 258v620c0 31 -6 47 -25 57c-19 11 -48 12 -91 12c-2 -16 -9 -41 -17 -57c29 1 55 1 64 1c8 -1 12 -3 12 -14v-553h-125v158l39 -13c32 64 63 149 73 206l-45 15c-8 -56 -37 -139 -67 -203v468h-56v-697h238zM601 257v621c0 31 -5 48 -25 58c-19 10 -47 11 -90 11
c-2 -16 -10 -40 -18 -57c30 1 56 1 65 1c8 -1 11 -3 11 -13v-555h-127v630h-57v-696h241zM535 668l-44 16c-10 -54 -41 -139 -72 -201l40 -15c33 63 64 146 76 200zM49 170v-70h577v70h-577zM907 87l49 32c-32 95 -75 213 -113 305c81 94 101 173 101 243
c0 59 -12 107 -41 129c-16 11 -36 18 -58 21c-21 3 -49 3 -74 1c0 -20 -6 -49 -17 -70c24 3 47 3 64 2c13 -1 26 -4 35 -11c18 -12 23 -44 23 -80c0 -62 -22 -137 -101 -227c34 -85 69 -197 93 -275h-132v799h-66v-865h225z" />
</svg>
