<?xml version="1.0" standalone="no"?>
<!DOCTYPE svg PUBLIC "-//W3C//DTD SVG 1.1//EN" "http://www.w3.org/Graphics/SVG/1.1/DTD/svg11.dtd" >
<svg xmlns="http://www.w3.org/2000/svg" xmlns:xlink="http://www.w3.org/1999/xlink" version="1.1" viewBox="-10 0 1010 1000">
   <path fill="currentColor"
d="M561 272l-45 50c-40 -29 -100 -65 -165 -100c-75 42 -155 77 -231 105c-8 -14 -30 -43 -44 -57c69 -21 142 -49 209 -82c-55 -28 -111 -55 -162 -76l42 -42c58 23 123 52 184 83c54 -31 101 -67 139 -104l61 28c-39 39 -85 75 -137 109c58 30 111 60 149 86zM470 630v-65
h-235v65h235zM235 751h235v-68h-235v68zM259 274l68 14c-7 27 -15 55 -24 81h292v63h-315c-11 25 -22 51 -34 74h293v370c0 33 -7 50 -30 60c-22 10 -57 11 -106 11c-4 -18 -15 -42 -24 -59c35 2 68 1 78 1s13 -3 13 -13v-72h-235v153h-65v-332c-29 38 -61 72 -96 100
c-9 -13 -32 -43 -47 -57c75 -57 136 -139 179 -236h-160v-63h185c11 -30 21 -63 28 -95zM894 93l51 34c-36 91 -83 204 -126 297c91 94 114 171 114 239c0 59 -14 108 -47 129c-17 12 -39 19 -62 21c-25 3 -59 3 -88 2c-2 -20 -9 -50 -22 -71c32 3 60 3 81 2
c15 -1 30 -3 42 -10c20 -13 27 -44 26 -79c0 -62 -26 -134 -117 -224c38 -84 77 -189 105 -266h-159v788h-65v-858h255z" />
</svg>
