<?xml version="1.0" standalone="no"?>
<!DOCTYPE svg PUBLIC "-//W3C//DTD SVG 1.1//EN" "http://www.w3.org/Graphics/SVG/1.1/DTD/svg11.dtd" >
<svg xmlns="http://www.w3.org/2000/svg" xmlns:xlink="http://www.w3.org/1999/xlink" version="1.1" viewBox="-10 0 1010 1000">
   <path fill="currentColor"
d="M168 555v156c41 -10 86 -21 132 -32v-124h-132zM300 151h-132v137h132v-137zM168 353v137h132v-137h-132zM405 713l-43 12v223h-62v-207l-238 64l-18 -66l63 -13v-575h-58v-67h376v67h-63v513l36 -9zM589 201l38 9c-10 156 -30 288 -61 399c29 65 54 126 70 173l-55 39
c-11 -35 -26 -77 -45 -122c-32 84 -73 151 -121 201c-9 -15 -28 -38 -43 -50c52 -50 95 -132 128 -237c-35 -80 -74 -164 -111 -234l49 -32c28 54 59 114 87 173c17 -76 30 -160 37 -251h-170v-66h185zM908 85l48 31c-32 95 -74 213 -113 306c81 93 101 172 102 243
c0 59 -13 107 -42 128c-15 12 -35 18 -56 21c-22 3 -49 3 -74 1c0 -19 -7 -49 -17 -70c24 3 47 3 64 2c13 -1 26 -4 35 -11c17 -12 23 -44 23 -80c0 -62 -22 -137 -101 -227c34 -86 69 -196 93 -275h-134v802h-64v-868h225z" />
</svg>
