<?xml version="1.0" standalone="no"?>
<!DOCTYPE svg PUBLIC "-//W3C//DTD SVG 1.1//EN" "http://www.w3.org/Graphics/SVG/1.1/DTD/svg11.dtd" >
<svg xmlns="http://www.w3.org/2000/svg" xmlns:xlink="http://www.w3.org/1999/xlink" version="1.1" viewBox="-10 0 1010 1000">
   <path fill="currentColor"
d="M289 460l62 8c-32 227 -111 379 -263 476c-8 -11 -29 -38 -42 -50c106 -60 172 -153 211 -278c-149 22 -174 28 -189 37c-3 -14 -14 -45 -22 -62c20 -4 41 -29 66 -65c16 -20 52 -75 91 -142c-99 11 -120 16 -132 22c-4 -14 -15 -48 -23 -65c15 -3 30 -23 45 -51
c17 -28 71 -134 99 -235l69 19c-32 90 -77 185 -121 257l97 -8c16 -32 32 -65 46 -98l61 25c-56 115 -125 231 -196 322l125 -17c7 -29 13 -62 16 -95zM560 155h-131v117h131v-117zM429 454h131v-121h-131v121zM493 610l56 -20c47 92 94 215 110 290l-61 24
c-5 -23 -12 -53 -22 -84c-189 70 -216 81 -232 95c-5 -17 -18 -45 -28 -60c18 -8 46 -26 46 -65v-699h260v427h-193v290l128 -43c-19 -52 -41 -108 -64 -155zM913 86l47 32c-31 92 -71 210 -108 302c77 95 96 174 96 243c1 59 -11 107 -39 128c-15 11 -34 18 -56 21
c-21 2 -48 2 -73 0c-1 -19 -7 -48 -18 -68c25 3 49 3 65 2c13 0 26 -4 34 -10c18 -12 23 -45 23 -80c0 -63 -21 -137 -98 -227c33 -86 67 -194 90 -273h-138v800h-64v-866h228z" />
</svg>
