<?xml version="1.0" standalone="no"?>
<!DOCTYPE svg PUBLIC "-//W3C//DTD SVG 1.1//EN" "http://www.w3.org/Graphics/SVG/1.1/DTD/svg11.dtd" >
<svg xmlns="http://www.w3.org/2000/svg" xmlns:xlink="http://www.w3.org/1999/xlink" version="1.1" viewBox="-10 0 1010 1000">
   <path fill="currentColor"
d="M173 310v-98h-121v-65h121v-95h68v95h160v-95h70v95h113v65h-113v100h-70v-100h-160v98h-68zM472 649h-226v179h226v-179zM261 284l70 12c-8 35 -16 70 -26 103h282v66h-303c-15 41 -31 80 -49 117h308v356h-71v-43h-226v50h-69v-262c-27 40 -57 76 -90 108
c-9 -15 -37 -41 -53 -53c76 -67 134 -162 176 -273h-166v-66h188c11 -37 21 -75 29 -115zM908 97l52 35c-42 95 -96 211 -144 300c105 92 132 171 132 243c1 60 -15 106 -51 129c-18 12 -40 19 -66 22c-25 3 -59 3 -87 2c-1 -21 -8 -53 -21 -74c30 3 60 4 81 2
c16 -1 31 -5 44 -11c21 -13 28 -42 28 -79c0 -63 -31 -137 -137 -224c45 -84 91 -192 123 -272h-167v786h-72v-855h272z" />
</svg>
