<?xml version="1.0" standalone="no"?>
<!DOCTYPE svg PUBLIC "-//W3C//DTD SVG 1.1//EN" "http://www.w3.org/Graphics/SVG/1.1/DTD/svg11.dtd" >
<svg xmlns="http://www.w3.org/2000/svg" xmlns:xlink="http://www.w3.org/1999/xlink" version="1.1" viewBox="-10 0 1010 1000">
   <path fill="currentColor"
d="M276 478l61 12c-46 196 -132 350 -257 451c-8 -12 -29 -37 -43 -49c91 -67 158 -164 202 -282c-134 17 -157 22 -172 29c-3 -13 -14 -44 -20 -60c17 -4 38 -28 61 -61c15 -19 48 -67 84 -127c-97 12 -118 17 -132 24c-3 -14 -13 -45 -21 -63c15 -4 31 -25 48 -55
c19 -29 79 -144 111 -252l63 26c-35 95 -82 192 -131 268l95 -9c17 -30 32 -62 46 -94l58 30c-54 105 -120 211 -186 297l115 -12c6 -23 13 -48 18 -73zM434 564v157c36 -7 75 -13 115 -21v-136h-115zM549 152h-115v142h115v-142zM434 357v144h115v-144h-115zM654 679l4 59
l-44 10v211h-65v-197c-86 19 -169 37 -236 52l-17 -68c22 -4 47 -8 74 -13v-581h-54v-65h339v65h-41v535zM896 83l46 24c-24 85 -54 192 -87 298c63 99 91 169 92 235c0 56 -13 109 -40 130c-12 11 -29 16 -47 19c-17 2 -41 3 -62 1c-1 -17 -7 -43 -18 -61c21 3 42 3 55 2
c12 0 22 -3 28 -8c16 -13 21 -50 21 -85c0 -61 -26 -125 -89 -225c27 -94 51 -187 68 -264h-114v808h-66v-872h204z" />
</svg>
