<?xml version="1.0" standalone="no"?>
<!DOCTYPE svg PUBLIC "-//W3C//DTD SVG 1.1//EN" "http://www.w3.org/Graphics/SVG/1.1/DTD/svg11.dtd" >
<svg xmlns="http://www.w3.org/2000/svg" xmlns:xlink="http://www.w3.org/1999/xlink" version="1.1" viewBox="-10 0 1010 1000">
   <path fill="currentColor"
d="M149 555l114 -18c5 -21 9 -41 12 -57h62c-24 134 -74 352 -240 464c-10 -15 -32 -40 -48 -51c112 -69 168 -192 198 -297c-141 27 -165 35 -180 43c-3 -13 -14 -45 -20 -60c18 -5 38 -28 63 -61c15 -18 49 -67 85 -128c-100 13 -121 18 -135 25c-3 -14 -13 -45 -21 -63
c15 -4 31 -25 48 -55c19 -29 79 -144 110 -252l64 26c-35 95 -82 192 -131 268l100 -9c16 -31 33 -64 47 -97l59 31c-54 103 -120 208 -187 291zM422 453h154v-96h-154v96zM576 197h-154v101h154v-101zM634 137v376h-268v-376h94c11 -31 22 -69 29 -96l72 10
c-10 30 -23 60 -34 86h107zM616 596l42 50c-63 29 -147 55 -221 75v100c0 22 5 26 31 26h91c23 0 27 -13 29 -101c14 11 39 20 57 25c-6 104 -23 132 -80 132h-105c-69 0 -86 -18 -86 -82v-269h63v116c66 -22 136 -47 179 -72zM912 87l47 32c-33 95 -74 212 -112 305
c80 94 99 173 100 243c0 59 -12 107 -40 129c-15 11 -34 18 -55 21s-48 3 -72 1c-1 -20 -7 -49 -18 -70c25 3 48 3 64 2c14 -1 26 -4 35 -11c17 -12 23 -44 23 -80c0 -62 -22 -137 -100 -228c33 -85 68 -196 92 -274h-136v799h-62v-865h223z" />
</svg>
