<?xml version="1.0" standalone="no"?>
<!DOCTYPE svg PUBLIC "-//W3C//DTD SVG 1.1//EN" "http://www.w3.org/Graphics/SVG/1.1/DTD/svg11.dtd" >
<svg xmlns="http://www.w3.org/2000/svg" xmlns:xlink="http://www.w3.org/1999/xlink" version="1.1" viewBox="-10 0 1010 1000">
   <path fill="currentColor"
d="M274 560v94h108v59h-108v142l97 -30c1 16 4 43 7 57c-128 46 -151 57 -165 68c-4 -17 -17 -50 -26 -66c12 -5 27 -18 27 -54v-270h60zM479 833l127 -34c0 18 2 44 4 58c-150 45 -175 55 -190 65c-4 -16 -17 -49 -26 -65c12 -7 24 -20 24 -56v-242h61v93h123v59h-123v122z
M397 304v-102h-81v102h81zM540 363h-85v112h85v-112zM316 363v112h81v-112h-81zM173 452v23h85v-112h-85v89zM258 202h-85v102h85v-102zM308 58l62 -19c15 30 32 70 42 99h209v64h-166v102h146v230h-429c-5 138 -23 305 -84 422c-10 -12 -38 -32 -53 -40
c69 -134 74 -325 74 -464v-314h231c-8 -26 -21 -56 -32 -80zM901 93l51 32c-30 92 -69 208 -105 301c74 93 92 170 92 239c1 58 -11 107 -40 128c-15 12 -35 18 -56 20c-22 3 -49 3 -73 2c-1 -20 -8 -50 -20 -72c26 3 48 3 65 3c13 -1 25 -4 34 -11c16 -12 21 -43 21 -78
c0 -61 -18 -134 -90 -225c30 -83 61 -189 83 -265h-137v790h-65v-860h229z" />
</svg>
