<?xml version="1.0" standalone="no"?>
<!DOCTYPE svg PUBLIC "-//W3C//DTD SVG 1.1//EN" "http://www.w3.org/Graphics/SVG/1.1/DTD/svg11.dtd" >
<svg xmlns="http://www.w3.org/2000/svg" xmlns:xlink="http://www.w3.org/1999/xlink" version="1.1" viewBox="-10 0 1010 1000">
   <path fill="currentColor"
d="M346 394l-18 -54c44 -21 108 -55 173 -90v-113h-167v-58h226v337h-59v-113c-55 33 -111 66 -155 91zM463 227l-30 43c-20 -23 -60 -55 -93 -74l28 -39c31 16 73 46 95 70zM81 407l-18 -58c44 -21 111 -57 179 -93v-119h-173v-58h231v330h-58v-96c-58 33 -116 68 -161 94z
M202 227l-32 44c-17 -23 -55 -56 -85 -75l29 -40c29 16 67 48 88 71zM474 721l57 27c-81 101 -230 173 -392 214c-9 -16 -23 -38 -37 -50c154 -34 300 -101 372 -191zM344 537l56 24c-63 63 -163 116 -254 148c-10 -13 -27 -31 -40 -43c85 -28 184 -77 238 -129zM417 624
l55 25c-73 77 -196 140 -311 176c-10 -13 -26 -34 -41 -47c111 -31 233 -88 297 -154zM325 392l66 17c-8 8 -16 17 -23 24c92 39 188 88 237 122l-29 55c-53 -39 -158 -97 -253 -136c-72 57 -162 107 -252 145c-3 -12 -20 -40 -32 -53c108 -40 221 -104 286 -174zM901 89
l49 32c-35 91 -80 205 -121 295c88 92 110 170 110 240c0 57 -13 104 -44 125c-16 12 -36 18 -58 21c-23 2 -51 2 -76 1c-1 -20 -7 -48 -19 -69c26 3 50 3 68 3c13 -2 27 -5 37 -11c18 -13 24 -43 24 -78c0 -62 -24 -135 -111 -223c37 -85 75 -192 100 -269h-151v801h-68
v-865h248z" />
</svg>
