<?xml version="1.0" standalone="no"?>
<!DOCTYPE svg PUBLIC "-//W3C//DTD SVG 1.1//EN" "http://www.w3.org/Graphics/SVG/1.1/DTD/svg11.dtd" >
<svg xmlns="http://www.w3.org/2000/svg" xmlns:xlink="http://www.w3.org/1999/xlink" version="1.1" viewBox="-10 0 1010 1000">
   <path fill="currentColor"
d="M463 186v-56h-262v56h262zM463 292v-59h-262v59h262zM532 79v263h-398v-263h398zM515 629l43 23c-29 63 -71 115 -124 159c53 23 99 47 133 66l-37 56c-38 -23 -94 -52 -156 -80c-80 50 -176 83 -277 104c-8 -17 -27 -46 -39 -59c89 -16 173 -41 244 -78
c-57 -24 -116 -48 -169 -66l35 -48c62 20 133 47 199 75c37 -25 68 -56 93 -91h-363v-59h404zM154 439v94h84v-94h-84zM291 439v94h88v-94h-88zM431 439v94h91v-94h-91zM95 582v-192h488v192h-488zM894 92l51 32c-34 93 -77 208 -116 300c83 94 103 174 103 243
c1 59 -12 107 -42 128c-16 12 -37 19 -59 22c-23 3 -53 2 -79 1c-1 -20 -7 -50 -20 -71c28 3 52 3 70 3c15 -2 28 -4 38 -11c17 -13 24 -44 24 -79c-1 -62 -23 -137 -105 -227c34 -85 70 -192 95 -270h-153v794h-70v-862h252z" />
</svg>
