<?xml version="1.0" standalone="no"?>
<!DOCTYPE svg PUBLIC "-//W3C//DTD SVG 1.1//EN" "http://www.w3.org/Graphics/SVG/1.1/DTD/svg11.dtd" >
<svg xmlns="http://www.w3.org/2000/svg" xmlns:xlink="http://www.w3.org/1999/xlink" version="1.1" viewBox="-10 0 1010 1000">
   <path fill="currentColor"
d="M105 940l-56 -28c34 -51 61 -136 74 -200l57 18c-16 66 -39 155 -75 210zM230 730l52 -6c17 64 29 145 28 192l-56 9c0 -49 -10 -131 -24 -195zM349 721l51 -9c24 61 45 141 50 189l-55 12c-4 -49 -24 -130 -46 -192zM486 714l55 -15c31 59 63 136 73 183l-57 19
c-11 -48 -40 -128 -71 -187zM184 446v176h65v-176h-65zM184 204v181h65v-181h-65zM488 385v-181h-67v181h67zM301 385h67v-181h-67v181zM368 446h-67v176h67v-176zM488 622v-176h-67v176h67zM547 446v176h76v61h-568v-61h71v-176h-54v-61h54v-112c-17 24 -33 44 -51 63
c-8 -11 -29 -34 -43 -45c62 -61 115 -153 147 -246l58 15c-9 28 -22 57 -35 84h404v60h-59v181h62v61h-62zM914 94l46 32c-37 93 -83 208 -125 301c90 94 113 172 113 243c0 58 -12 106 -44 128c-15 11 -37 18 -59 21c-24 2 -57 2 -83 1c-1 -20 -8 -48 -19 -69
c30 4 57 4 76 3c15 -1 30 -5 41 -11c19 -13 25 -44 25 -80c0 -63 -26 -137 -117 -228c38 -85 77 -191 105 -269h-155v793h-65v-862h250z" />
</svg>
