<?xml version="1.0" standalone="no"?>
<!DOCTYPE svg PUBLIC "-//W3C//DTD SVG 1.1//EN" "http://www.w3.org/Graphics/SVG/1.1/DTD/svg11.dtd" >
<svg xmlns="http://www.w3.org/2000/svg" xmlns:xlink="http://www.w3.org/1999/xlink" version="1.1" viewBox="-10 0 1010 1000">
   <path fill="currentColor"
d="M137 325h91c6 -18 10 -35 12 -54h-94c-3 19 -6 36 -9 54zM299 217v5h81v-55h-81v50zM519 167h-85v55h85v-55zM380 325v-54h-83c-2 19 -5 36 -9 54h92zM497 572v-50h-320v50h320zM497 669v-51h-320v51h320zM497 767v-53h-320v53h320zM120 814v-304c-11 6 -23 11 -35 16
c-6 -14 -21 -36 -31 -46c76 -30 122 -66 149 -105h-128c9 -42 19 -103 25 -154h54v1h89v-5v-50h-147v-49h147v-66h56v66h81v-67h54v67h140v153h-140v54h171s0 14 -1 23c-3 52 -7 80 -20 92c-9 11 -21 16 -42 17c-14 1 -44 1 -73 -1c-1 -14 -6 -33 -12 -47c27 4 51 4 60 4
s15 -1 20 -6c4 -4 6 -13 8 -32h-111v78h-54v-78h-110c-18 36 -45 70 -88 100h374v339h-436zM238 816l56 36c-56 38 -142 72 -211 90c-9 -13 -26 -34 -37 -48c68 -16 151 -49 192 -78zM371 861l33 -43c68 19 158 53 206 78l-34 49c-45 -26 -136 -62 -205 -84zM901 94l49 31
c-33 92 -75 211 -112 301c79 93 100 171 100 241c0 58 -12 106 -41 126c-15 12 -34 19 -56 21s-48 3 -72 2c-1 -20 -6 -48 -18 -69c24 3 48 3 63 2c14 -1 26 -3 36 -10c17 -13 22 -44 22 -80c0 -62 -20 -136 -100 -225c34 -84 68 -193 92 -271h-148v794h-65v-860h240z" />
</svg>
