<?xml version="1.0" standalone="no"?>
<!DOCTYPE svg PUBLIC "-//W3C//DTD SVG 1.1//EN" "http://www.w3.org/Graphics/SVG/1.1/DTD/svg11.dtd" >
<svg xmlns="http://www.w3.org/2000/svg" xmlns:xlink="http://www.w3.org/1999/xlink" version="1.1" viewBox="-10 0 1010 1000">
   <path fill="currentColor"
d="M538 147h-88c-8 119 -29 219 -99 279c-7 -15 -24 -38 -37 -48c57 -49 74 -134 81 -231h-62v-60h266s0 20 -2 30c-8 175 -18 240 -37 265c-12 16 -27 22 -47 24c-17 2 -46 2 -76 0c-1 -19 -7 -43 -15 -61c29 4 55 4 66 4s17 -1 24 -9c10 -15 18 -66 26 -193zM179 685v57
h321v-57h-321zM179 581v56h321v-56h-321zM179 478v55h321v-55h-321zM119 792v-364h443v364h-443zM329 353l-52 24c-2 -13 -6 -28 -11 -45c-134 46 -157 57 -171 68c-5 -16 -18 -43 -27 -56c12 -9 31 -26 31 -65v-169c62 -13 136 -31 181 -51l33 55c-44 17 -101 32 -155 41
v149l88 -28c-9 -23 -19 -47 -30 -67l49 -21c29 52 55 121 64 165zM240 809l56 29c-55 44 -143 89 -213 116c-9 -14 -32 -42 -45 -53c72 -23 153 -55 202 -92zM397 847l31 -43c68 32 144 72 190 102l-40 48c-43 -32 -114 -74 -181 -107zM894 92l51 32
c-34 93 -77 207 -115 298c82 95 102 174 102 244c1 59 -12 108 -41 129c-16 12 -37 19 -59 22c-23 3 -51 2 -76 1c-1 -20 -7 -50 -19 -71c26 3 50 3 67 2c14 -1 27 -4 37 -11c16 -12 23 -44 23 -80c-1 -62 -22 -136 -104 -227c34 -86 70 -191 94 -268h-138v794h-69v-862h236
z" />
</svg>
