<?xml version="1.0" standalone="no"?>
<!DOCTYPE svg PUBLIC "-//W3C//DTD SVG 1.1//EN" "http://www.w3.org/Graphics/SVG/1.1/DTD/svg11.dtd" >
<svg xmlns="http://www.w3.org/2000/svg" xmlns:xlink="http://www.w3.org/1999/xlink" version="1.1" viewBox="-10 0 1010 1000">
   <path fill="currentColor"
d="M495 59l60 27c-34 45 -72 96 -102 127l-45 -22c28 -36 67 -94 87 -132zM257 184l-54 32c-17 -32 -51 -85 -78 -124l52 -27c28 37 63 88 80 119zM305 489v-183c-58 68 -142 131 -215 167c-9 -17 -29 -40 -44 -52c73 -29 155 -83 212 -141h-185v-63h232v-174h65v174h226v63
h-213c55 27 171 92 203 110l-29 58c-38 -27 -128 -85 -187 -119v160h-65zM293 544l9 -2l38 13c-40 198 -141 334 -260 403c-9 -15 -25 -37 -38 -48c56 -30 109 -79 152 -141c-19 -20 -46 -41 -68 -57l35 -39c21 13 44 31 63 47c19 -36 35 -76 47 -118h-93
c-27 50 -57 94 -92 127c-8 -10 -30 -32 -43 -41c58 -55 103 -136 129 -224l56 11c-7 24 -15 46 -24 69h89zM532 599v150h84v59h-84v148h-59v-148h-129c10 -50 20 -126 24 -184l58 3c-5 40 -11 83 -18 122h65v-150h-116v-56h116v-75h59v75h73v56h-73zM896 93l49 33
c-33 93 -75 208 -114 299c83 91 103 170 103 240c0 58 -12 106 -41 128c-15 11 -34 18 -55 20c-20 3 -45 3 -68 2c-1 -20 -8 -50 -19 -71c24 3 44 3 59 2c14 0 26 -4 34 -10c18 -12 24 -44 24 -78c0 -62 -23 -137 -104 -225c34 -83 70 -190 94 -268h-137v790h-63v-858h228z
" />
</svg>
