<?xml version="1.0" standalone="no"?>
<!DOCTYPE svg PUBLIC "-//W3C//DTD SVG 1.1//EN" "http://www.w3.org/Graphics/SVG/1.1/DTD/svg11.dtd" >
<svg xmlns="http://www.w3.org/2000/svg" xmlns:xlink="http://www.w3.org/1999/xlink" version="1.1" viewBox="-10 0 1010 1000">
   <path fill="currentColor"
d="M301 137v685c0 47 8 56 56 56h6v-741h-62zM139 713h104v-110h-104v110zM243 433h-104v113h104v-113zM155 245h88v-108h-88v108zM510 246v-109h-89v109h89zM531 434h-110v110h110v-110zM421 715h110v-113h-110v113zM421 878h103c36 0 42 -16 46 -86c14 11 36 21 52 24
c-6 90 -23 118 -95 118h-174c-86 0 -110 -23 -110 -112v-50h-104v47h-58v-444h162v-74h-144v-220h468v221h-146v73h168v399h-168v104zM897 90l51 32c-33 93 -74 210 -112 302c79 93 99 172 99 242c1 58 -12 107 -41 128c-16 11 -36 18 -57 21c-23 3 -51 2 -76 1
c-1 -20 -7 -50 -18 -71c25 3 49 3 65 2c14 0 27 -4 35 -11c18 -12 24 -44 24 -78c-1 -62 -22 -136 -100 -227c33 -85 68 -193 92 -270h-138v795h-66v-863h232z" />
</svg>
