<?xml version="1.0" standalone="no"?>
<!DOCTYPE svg PUBLIC "-//W3C//DTD SVG 1.1//EN" "http://www.w3.org/Graphics/SVG/1.1/DTD/svg11.dtd" >
<svg xmlns="http://www.w3.org/2000/svg" xmlns:xlink="http://www.w3.org/1999/xlink" version="1.1" viewBox="-10 0 1010 1000">
   <path fill="currentColor"
d="M446 230v-95h-201v95h201zM515 78v208h-336v-208h336zM250 487v-106h-106v106h106zM430 381v106h114v-106h-114zM378 540v76h238v64h-206c72 40 152 94 194 131l-39 52c-41 -37 -118 -91 -187 -134v226h-68v-245c-55 72 -139 144 -211 182c-11 -16 -34 -42 -49 -56
c70 -32 152 -93 203 -156h-180v-64h237v-76h-225v-212h226v209h59v-209h236v212h-228zM903 82l49 33c-38 93 -86 197 -129 286c95 97 117 183 117 254c0 60 -13 110 -45 132c-17 13 -38 20 -62 23c-22 2 -53 3 -77 1c-1 -19 -8 -49 -19 -69c26 2 51 3 70 2
c14 -2 28 -5 39 -12c19 -13 26 -45 26 -83c0 -64 -23 -146 -119 -241c38 -80 78 -179 107 -255h-147v803h-67v-870h245z" />
</svg>
