<?xml version="1.0" standalone="no"?>
<!DOCTYPE svg PUBLIC "-//W3C//DTD SVG 1.1//EN" "http://www.w3.org/Graphics/SVG/1.1/DTD/svg11.dtd" >
<svg xmlns="http://www.w3.org/2000/svg" xmlns:xlink="http://www.w3.org/1999/xlink" version="1.1" viewBox="-10 0 1010 1000">
   <path fill="currentColor"
d="M557 347l36 39c-49 17 -114 32 -170 42v17c0 18 5 21 31 21h92c19 0 24 -6 27 -47c12 8 34 15 51 18c-6 59 -23 76 -70 76h-107c-67 0 -84 -14 -84 -68v-108h60v48c50 -11 101 -24 134 -38zM373 131h-160c-12 16 -25 31 -40 46h149c17 -13 35 -29 51 -46zM516 283v-63
h-354v63h354zM102 325v-114c-10 -10 -23 -19 -31 -24c61 -43 107 -98 131 -145l62 10c-6 11 -13 22 -20 34h170l10 -3l41 30c-17 22 -39 44 -63 64h177v148h-477zM161 740h128c9 -21 15 -44 19 -69h-147v69zM378 580h-167c-13 15 -26 29 -39 43h164c15 -13 29 -27 42 -43z
M523 740v-69h-153c-4 25 -10 47 -16 69h169zM430 891h118c25 0 31 -8 34 -69c13 8 35 15 51 18c-5 78 -23 98 -77 98h-132c-75 0 -94 -13 -94 -70v-72c-42 75 -117 125 -256 158c-5 -15 -21 -38 -33 -49c119 -25 185 -62 224 -118h-169v-117c-12 -11 -27 -24 -39 -30
c64 -40 110 -92 136 -138c-49 9 -63 13 -71 18c-4 -15 -16 -41 -25 -53c13 -5 31 -17 31 -54v-75h60v33h147v43h-147v39l158 -20c-2 12 -3 34 -3 44c-61 9 -104 16 -135 22l52 8c-5 9 -11 18 -17 28h173l11 -3l41 29c-14 22 -34 43 -54 62h176v164h-200v81c0 20 6 23 40 23z
M547 852l-35 34c-20 -21 -59 -48 -92 -67l35 -29c32 17 71 43 92 62zM902 93l45 33c-32 91 -73 205 -111 298c80 94 100 172 100 241c0 58 -12 106 -41 128c-14 12 -34 18 -54 20c-23 3 -51 3 -77 2c-1 -20 -8 -49 -18 -70c26 3 51 3 68 3c15 -1 28 -5 37 -11
c18 -12 24 -44 24 -79c0 -62 -23 -135 -102 -226c34 -87 70 -195 94 -273h-142v800h-61v-862h229z" />
</svg>
