<?xml version="1.0" standalone="no"?>
<!DOCTYPE svg PUBLIC "-//W3C//DTD SVG 1.1//EN" "http://www.w3.org/Graphics/SVG/1.1/DTD/svg11.dtd" >
<svg xmlns="http://www.w3.org/2000/svg" xmlns:xlink="http://www.w3.org/1999/xlink" version="1.1" viewBox="-10 0 1010 1000">
   <path fill="currentColor"
d="M636 77v53h-268v-53h268zM344 77v53h-269v-53h269zM150 557v25c0 17 0 33 -1 52h109v-77h-108zM258 445h-108v65h108v-65zM410 510v-65h-96v65h96zM560 557h-93v77h93v-77zM314 634h96v-77h-96v77zM486 890h85c20 0 24 -9 27 -80c12 9 35 18 51 22c-6 88 -22 110 -72 110
h-97c-66 0 -81 -16 -81 -76v-185h-141v63h105v48h-105v90l106 -23c0 16 3 39 4 53c-133 32 -156 41 -171 50c-4 -16 -14 -48 -24 -65c13 -6 27 -20 27 -57v-159h-53c-7 92 -25 196 -67 273c-11 -10 -39 -28 -54 -35c55 -100 61 -238 61 -337v-192h250
c-5 -14 -11 -27 -18 -40h-48v-132h-130v132h-53v-180h238v173l48 -14l9 19v-178h235v179h-55v-131h-127v131h-53c7 14 13 28 18 41h241v55h-175v65h152v171h-163v84c44 -18 94 -41 127 -58l35 39c-48 26 -111 50 -162 66v54c0 21 4 24 30 24zM168 251l38 -11
c15 28 30 63 37 85l-40 14c-7 -22 -22 -61 -35 -88zM541 326l-40 15c-8 -24 -24 -63 -40 -91l38 -12c17 29 34 65 42 88zM909 89l47 29c-33 92 -74 208 -112 299c80 92 101 170 101 240c0 57 -12 104 -40 124c-16 11 -35 18 -56 20s-47 3 -72 1c-1 -18 -6 -45 -18 -65
c25 3 49 3 64 2c14 -1 26 -4 35 -11c17 -13 23 -44 23 -79c0 -62 -22 -136 -101 -225c35 -84 69 -191 92 -268h-125v801h-63v-865h214z" />
</svg>
