<?xml version="1.0" standalone="no"?>
<!DOCTYPE svg PUBLIC "-//W3C//DTD SVG 1.1//EN" "http://www.w3.org/Graphics/SVG/1.1/DTD/svg11.dtd" >
<svg xmlns="http://www.w3.org/2000/svg" xmlns:xlink="http://www.w3.org/1999/xlink" version="1.1" viewBox="-10 0 1010 1000">
   <path fill="currentColor"
d="M128 822h272v-99h-272v99zM191 344h-63v231c53 -49 63 -109 63 -158v-73zM233 151v129h58v-129h-58zM400 509v-165h-67v152c0 13 2 15 14 15h38c10 0 13 -1 15 -2zM234 344v74c0 59 -15 136 -77 190c-6 -9 -19 -20 -29 -26v82h272v-109h-7h-50c-40 0 -53 -9 -53 -58v-153
h-56zM881 435v33c-11 303 -21 411 -46 444c-16 21 -34 28 -59 30c-23 3 -61 3 -101 1c0 -20 -8 -48 -18 -67c38 4 73 5 88 5c14 0 23 -2 30 -13c18 -22 28 -113 37 -366h-116c-14 208 -56 354 -168 452c-10 -12 -37 -36 -52 -47c105 -83 141 -221 152 -405h-105v-44l-9 10
c-10 -10 -35 -30 -52 -41v514h-62v-58h-272v72h-59v-675h111v-129h-128v-64h420v64h-127v129h117v134c81 -80 127 -205 148 -352l72 9c-24 149 -69 275 -139 364h338zM733 67l66 -12c33 163 83 264 177 353c-19 14 -41 38 -51 59c-106 -103 -157 -219 -192 -400z" />
</svg>
