<?xml version="1.0" standalone="no"?>
<!DOCTYPE svg PUBLIC "-//W3C//DTD SVG 1.1//EN" "http://www.w3.org/Graphics/SVG/1.1/DTD/svg11.dtd" >
<svg xmlns="http://www.w3.org/2000/svg" xmlns:xlink="http://www.w3.org/1999/xlink" version="1.1" viewBox="-10 0 1010 1000">
   <path fill="currentColor"
d="M311 265v-119h-59v119h59zM417 527v-199h-65v187c0 13 1 14 14 14h36c9 0 13 0 15 -2zM149 824h268v-103h-268v103zM211 328h-62v243c53 -51 62 -113 62 -164v-79zM410 573h-48c-41 0 -52 -10 -52 -58v-187h-57v80c0 61 -14 140 -76 197c-6 -7 -19 -18 -28 -25v85h268
v-92h-7zM72 146v-64h418v64h-124v119h112v674h-61v-55h-268v69h-59v-688h108v-119h-126zM852 848v-255h-258v255h258zM959 331h-213v196h178v426h-72v-38h-258v42h-69v-430h150v-483h71v219h213v68z" />
</svg>
