<?xml version="1.0" standalone="no"?>
<!DOCTYPE svg PUBLIC "-//W3C//DTD SVG 1.1//EN" "http://www.w3.org/Graphics/SVG/1.1/DTD/svg11.dtd" >
<svg xmlns="http://www.w3.org/2000/svg" xmlns:xlink="http://www.w3.org/1999/xlink" version="1.1" viewBox="-10 0 1010 1000">
   <path fill="currentColor"
d="M286 264v-118h-58v118h58zM389 528v-200h-63v187c0 13 1 14 13 14h37c7 0 11 0 13 -1zM125 824h264v-103h-264v103zM187 328h-62v243c53 -51 62 -113 62 -164v-79zM384 573h-49c-39 0 -51 -10 -51 -58v-187h-55v80c0 61 -14 140 -76 197c-6 -7 -18 -19 -28 -25v85h264
v-92h-5zM47 146v-64h414v64h-121v118h109v674h-60v-54h-264v68h-58v-688h108v-118h-128zM837 556h-267v106h267v-106zM570 828h267v-109h-267v109zM504 946v-453h400v448h-67v-53h-267v58h-66zM631 355h196c43 0 51 -13 56 -103c15 12 43 22 63 26c-9 111 -31 140 -114 140
h-205c-103 0 -130 -20 -130 -97v-264h68v143c115 -28 240 -67 315 -99l48 52c-98 39 -239 76 -363 104v63c0 30 10 35 66 35z" />
</svg>
