<?xml version="1.0" standalone="no"?>
<!DOCTYPE svg PUBLIC "-//W3C//DTD SVG 1.1//EN" "http://www.w3.org/Graphics/SVG/1.1/DTD/svg11.dtd" >
<svg xmlns="http://www.w3.org/2000/svg" xmlns:xlink="http://www.w3.org/1999/xlink" version="1.1" viewBox="-10 0 1010 1000">
   <path fill="currentColor"
d="M840 308v-163h-268v163h268zM911 80v292h-408v-292h408zM277 273v-124h-49v124h49zM373 511v-175h-54v162c0 12 2 14 12 14h30c7 0 10 0 12 -1zM126 821h247v-103h-247v103zM185 336h-59v325h247v-106h-4h-41c-39 0 -51 -9 -51 -56v-163h-50v85c0 60 -11 139 -67 194
c-6 -9 -23 -23 -33 -29c50 -51 58 -113 58 -165v-85zM49 149l1 -61h404v61h-123v124h98v662h-56v-53h-247v67h-54v-676h103v-124h-126zM747 862h204v69h-489v-69h213v-138h-176v-67h176v-132h-194v-67h453v67h-187v132h172v67h-172v138z" />
</svg>
