<?xml version="1.0" standalone="no"?>
<!DOCTYPE svg PUBLIC "-//W3C//DTD SVG 1.1//EN" "http://www.w3.org/Graphics/SVG/1.1/DTD/svg11.dtd" >
<svg xmlns="http://www.w3.org/2000/svg" xmlns:xlink="http://www.w3.org/1999/xlink" version="1.1" viewBox="-10 0 1010 1000">
   <path fill="currentColor"
d="M905 42l40 59c-119 44 -307 72 -463 84c-2 -17 -10 -44 -17 -61c154 -14 338 -44 440 -82zM849 386l-49 -26c28 -54 66 -140 85 -202l59 28c-29 69 -65 149 -95 200zM755 351l-56 23c-6 -48 -26 -121 -48 -176l52 -21c25 55 46 127 52 174zM601 358l-54 27
c-9 -45 -34 -115 -64 -166l51 -25c30 50 57 118 67 164zM284 265v-119h-58v119h58zM389 526v-198h-65v187c0 13 2 14 14 14h37c10 0 12 0 14 -3zM125 824h264v-103h-264v103zM186 328h-61v242c52 -50 61 -112 61 -163v-79zM381 573h-47c-40 0 -51 -10 -51 -58v-187h-56v80
c0 61 -14 140 -76 197c-6 -7 -17 -18 -26 -25v85h264v-92h-8zM50 146v-64h410v64h-122v119h110v674h-59v-55h-264v69h-57v-688h105v-119h-123zM952 622v67h-205v182c0 38 -7 57 -33 68c-25 12 -64 13 -123 13c-4 -21 -14 -49 -24 -68c44 1 85 1 96 0c13 0 16 -3 16 -14v-181
h-216v-67h216v-66c39 -27 85 -66 120 -103h-296v-64h355l14 -4l45 36c-46 55 -110 114 -170 157v44h205z" />
</svg>
