<?xml version="1.0" standalone="no"?>
<!DOCTYPE svg PUBLIC "-//W3C//DTD SVG 1.1//EN" "http://www.w3.org/Graphics/SVG/1.1/DTD/svg11.dtd" >
<svg xmlns="http://www.w3.org/2000/svg" xmlns:xlink="http://www.w3.org/1999/xlink" version="1.1" viewBox="-10 0 1010 1000">
   <path fill="currentColor"
d="M826 181l-62 30c-13 -38 -43 -97 -67 -142l61 -25c25 44 55 101 68 137zM381 528v-200h-46v188c0 12 1 13 10 13h25c6 0 9 0 11 -1zM136 824h245v-103h-245v103zM196 328h-60v242c51 -50 60 -112 60 -163v-79zM237 146v119h58v-119h-58zM378 573h-37
c-37 0 -48 -10 -48 -57v-188h-55v80c0 61 -14 140 -76 196c-6 -6 -17 -16 -26 -23v84h245v-92h-3zM350 146v119h92v674h-61v-55h-245v69h-59v-688h106v-119h-123v-64h414v64h-124zM601 681v135h133v-135h-133zM734 417v-128h-133v128h133zM734 613v-128h-133v128h133z
M955 816v69h-354v71h-65v-576c-16 27 -31 53 -48 75c-9 -14 -31 -45 -45 -60c66 -86 120 -218 153 -348l64 15c-15 54 -33 109 -52 161h335v66h-144v128h125v68h-125v128h123v68h-123v135h156z" />
</svg>
