<?xml version="1.0" standalone="no"?>
<!DOCTYPE svg PUBLIC "-//W3C//DTD SVG 1.1//EN" "http://www.w3.org/Graphics/SVG/1.1/DTD/svg11.dtd" >
<svg xmlns="http://www.w3.org/2000/svg" xmlns:xlink="http://www.w3.org/1999/xlink" version="1.1" viewBox="-10 0 1010 1000">
   <path fill="currentColor"
d="M877 112l-36 46c-28 -22 -85 -52 -130 -71l35 -41c45 18 102 44 131 66zM469 259l-6 -61l136 -11c-11 -44 -19 -92 -22 -142h66c2 49 10 95 21 137l277 -23l6 59l-264 23c12 31 27 60 43 84c40 -25 75 -53 100 -84l61 21c-33 41 -76 77 -127 108c34 36 71 56 107 55
c26 0 33 -23 37 -89c13 13 34 22 51 26c-11 98 -33 126 -89 126c-59 0 -116 -31 -163 -86c-70 36 -147 65 -222 86c-7 -14 -28 -41 -42 -54c79 -18 160 -44 230 -78c-20 -32 -38 -69 -52 -110zM700 525l34 -42c49 16 115 40 148 61l-34 47c-33 -21 -98 -49 -148 -66z
M119 823h259v-104h-259v104zM176 339h-57v240c49 -49 57 -111 57 -160v-80zM218 147v129h54v-129h-54zM378 511v-172h-64v158c0 13 2 14 15 14h44h5zM218 339v81c0 59 -14 137 -72 192c-6 -8 -18 -18 -27 -25v76h259v-108h-51c-44 0 -55 -8 -55 -57v-159h-54zM825 676l62 22
c-34 49 -81 92 -135 128c39 44 81 68 121 68c26 0 35 -29 39 -105c14 12 35 22 52 28c-10 109 -34 139 -94 139c-62 0 -122 -35 -173 -95c-71 40 -149 72 -227 96c-7 -11 -22 -32 -35 -47v28h-57v-55h-259v68h-55v-675h103v-129h-119v-60h402v60h-126v129h111v624
c79 -21 158 -51 226 -88c-23 -37 -44 -80 -60 -128l-141 13l-5 -61l129 -11c-12 -47 -20 -97 -23 -149h65c3 51 11 99 22 143l304 -27l5 60l-290 26c14 38 31 71 49 100c45 -29 82 -64 109 -102z" />
</svg>
