<?xml version="1.0" standalone="no"?>
<!DOCTYPE svg PUBLIC "-//W3C//DTD SVG 1.1//EN" "http://www.w3.org/Graphics/SVG/1.1/DTD/svg11.dtd" >
<svg xmlns="http://www.w3.org/2000/svg" xmlns:xlink="http://www.w3.org/1999/xlink" version="1.1" viewBox="-10 0 1010 1000">
   <path fill="currentColor"
d="M883 106l64 26c-36 60 -80 128 -115 172l-49 -24c33 -46 76 -121 100 -174zM832 747l-51 -24c36 -49 84 -132 110 -188l64 26c-37 65 -85 139 -123 186zM947 442l-42 59c-45 -46 -132 -114 -210 -168c-33 79 -90 129 -198 163c-6 -17 -22 -45 -35 -59
c186 -55 203 -153 208 -390h63c-2 89 -7 163 -20 222c84 52 182 124 234 173zM544 109l56 13c-19 63 -49 138 -85 185l-55 -25c34 -42 66 -112 84 -173zM538 540l58 14c-18 71 -50 154 -89 207l-56 -32c37 -44 70 -122 87 -189zM264 273v-124h-45v124h45zM358 512v-176h-50
v162c0 12 2 14 12 14h30h8zM128 821h230v-103h-230v103zM175 336h-47v239c40 -49 47 -106 47 -154v-85zM358 558h-41c-41 0 -53 -11 -53 -60v-162h-45v85c0 60 -12 139 -67 195c-4 -6 -14 -16 -24 -23v68h230v-103zM50 149v-61h377v61h-110v124h98v662h-57v-53h-230v67h-55
v-676h93v-124h-116zM664 457h65c-2 67 -5 126 -12 177c36 131 113 229 247 258c-14 16 -31 46 -40 67c-113 -34 -185 -109 -230 -216c-33 102 -98 169 -228 214c-7 -20 -24 -50 -38 -65c210 -65 229 -187 236 -435z" />
</svg>
