<?xml version="1.0" standalone="no"?>
<!DOCTYPE svg PUBLIC "-//W3C//DTD SVG 1.1//EN" "http://www.w3.org/Graphics/SVG/1.1/DTD/svg11.dtd" >
<svg xmlns="http://www.w3.org/2000/svg" xmlns:xlink="http://www.w3.org/1999/xlink" version="1.1" viewBox="-10 0 1010 1000">
   <path fill="currentColor"
d="M125 823h232v-101h-232v101zM171 341h-46v229c39 -53 46 -113 46 -161v-68zM214 149v131h46v-131h-46zM357 507v-166h-53v155c0 12 2 13 11 13h28c8 0 12 0 14 -2zM357 663v-109h-5h-40c-39 0 -50 -9 -50 -57v-156h-48v68c0 60 -13 143 -66 200c-5 -5 -14 -13 -23 -19v73
h232zM312 280h102v658h-57v-56h-232v71h-55v-673h92v-131h-111v-61h376v61h-115v131zM645 592h91v-136h-91v136zM828 893h34c9 0 19 -2 24 -5c6 -3 11 -11 13 -26c3 -16 4 -52 5 -99c13 13 38 25 57 30c-1 44 -4 93 -11 111c-6 18 -16 30 -31 37c-12 5 -32 8 -51 8h-53
c-19 0 -43 -4 -57 -16c-16 -12 -22 -29 -22 -96v-180h-94c-9 102 -48 218 -166 299c-8 -13 -31 -40 -45 -50c105 -71 138 -163 147 -249h-121v-65h124v-136h-49v-35c-23 29 -49 55 -75 76c-9 -16 -31 -43 -43 -53c45 -35 86 -83 119 -141c-27 -21 -63 -47 -92 -65l33 -51
c28 17 62 39 88 58c15 -34 28 -70 38 -108h-111v-63h134l13 -3l39 17c-23 121 -67 224 -121 303h275c-64 -86 -106 -205 -129 -337l56 -11c6 33 14 66 23 98c26 -21 56 -46 75 -65l36 46c-28 28 -63 52 -93 72c8 22 17 44 27 64c33 -20 71 -49 95 -69l38 46
c-33 27 -74 52 -107 70c32 50 70 92 116 119c-14 12 -37 37 -47 55c-23 -15 -44 -34 -63 -55v32h-55v136h135v65h-135v187c0 23 2 40 7 44c5 3 11 5 20 5z" />
</svg>
