<?xml version="1.0" standalone="no"?>
<!DOCTYPE svg PUBLIC "-//W3C//DTD SVG 1.1//EN" "http://www.w3.org/Graphics/SVG/1.1/DTD/svg11.dtd" >
<svg xmlns="http://www.w3.org/2000/svg" xmlns:xlink="http://www.w3.org/1999/xlink" version="1.1" viewBox="-10 0 1010 1000">
   <path fill="currentColor"
d="M938 225l-53 32c-9 -13 -20 -28 -34 -44c-320 16 -356 19 -378 28c-4 -13 -14 -48 -22 -65c16 -3 32 -11 51 -24c20 -12 86 -61 130 -113l74 21c-44 43 -95 84 -142 116l244 -12c-22 -22 -44 -46 -66 -66l50 -28c52 46 116 112 146 155zM345 512v-173h-46v160
c0 12 1 13 12 13h30h4zM120 823h225v-103h-225v103zM172 339h-52v243c45 -49 52 -111 52 -161v-82zM215 149v127h41v-127h-41zM345 556h-38c-39 0 -51 -9 -51 -57v-160h-42v82c0 60 -12 139 -67 194c-5 -8 -18 -19 -27 -25v74h225v-108zM309 149v127h91v662h-55v-55h-225v69
h-53v-676h97v-127h-118v-61h375v61h-112zM887 674l47 33c-98 105 -289 204 -461 248c-5 -18 -20 -45 -32 -59c168 -34 358 -126 446 -222zM793 585l46 31c-74 78 -219 157 -343 195c-7 -16 -22 -41 -34 -55c120 -28 263 -101 331 -171zM706 497l45 27
c-54 60 -157 123 -244 155c-5 -15 -20 -39 -32 -53c83 -23 184 -77 231 -129zM961 410l-48 18c-4 -12 -9 -25 -15 -40c-131 15 -158 20 -171 24c59 46 153 87 233 105c-10 15 -22 42 -27 60c-84 -28 -182 -78 -247 -131c-60 52 -140 95 -245 130c-8 -16 -23 -40 -36 -51
c112 -33 197 -79 249 -128l-24 11c-2 -9 -6 -18 -10 -29c-145 34 -168 41 -181 50c-4 -13 -14 -43 -20 -59c11 -2 21 -9 31 -22c11 -14 47 -64 66 -115l58 23c-18 36 -43 71 -66 101l93 -19c-9 -17 -18 -33 -28 -48l45 -17c21 32 44 74 54 104l2 -2l42 9
c-3 -10 -7 -20 -11 -26c12 -2 19 -10 28 -23c10 -12 40 -60 54 -108l59 22c-18 37 -41 73 -64 103l95 -8c-9 -20 -19 -39 -29 -57l46 -15c26 43 55 102 67 138z" />
</svg>
