<?xml version="1.0" standalone="no"?>
<!DOCTYPE svg PUBLIC "-//W3C//DTD SVG 1.1//EN" "http://www.w3.org/Graphics/SVG/1.1/DTD/svg11.dtd" >
<svg xmlns="http://www.w3.org/2000/svg" xmlns:xlink="http://www.w3.org/1999/xlink" version="1.1" viewBox="-10 0 1010 1000">
   <path fill="currentColor"
d="M543 264l-4 2c-8 -14 -29 -38 -41 -46c75 -30 89 -64 89 -99v-51h238v94c0 19 2 24 14 24h44c12 0 30 -1 41 -4c1 15 3 36 5 51c-11 3 -28 3 -44 3h-55c-54 0 -65 -21 -65 -75v-39h-118c0 46 -19 97 -91 134h272l12 -3l37 17c-23 52 -58 96 -100 131c48 22 92 45 123 62
l-32 50c-35 -20 -86 -48 -143 -75c-54 34 -114 58 -177 73c-7 -13 -21 -35 -32 -47c52 -11 103 -29 151 -54c-42 -20 -84 -39 -121 -54l30 -42c45 17 96 39 145 61c28 -20 54 -45 73 -71h-251v-42zM316 212h-61c-12 17 -24 32 -38 45c-9 -7 -29 -18 -41 -24
c32 -31 58 -70 73 -111l47 11c-5 12 -9 24 -16 37h200v42h-113v48v6h131v43h-137l-1 2c46 25 97 61 126 85l-33 35c-24 -23 -68 -55 -110 -81c-20 31 -56 63 -120 87c-7 -13 -22 -28 -33 -38c74 -23 105 -57 118 -90h-125v-43h133v-7v-47zM515 438v48h-409v-412h403v48h-344
v316h350zM561 620v-45h-105v45h105zM789 665h-168v29c0 20 6 23 36 23h119h13v-52zM215 870h574v-37h-574v37zM392 665h-177v125h574v-33h-4h-133c-73 0 -91 -11 -91 -64v-28h-107c-11 49 -58 88 -200 111c-7 -13 -22 -34 -33 -44c116 -13 158 -39 171 -67zM953 575h-332v45
h238v334h-70v-39h-574v39h-68v-334h250v-45h-352v-52h908v52z" />
</svg>
