<?xml version="1.0" standalone="no"?>
<!DOCTYPE svg PUBLIC "-//W3C//DTD SVG 1.1//EN" "http://www.w3.org/Graphics/SVG/1.1/DTD/svg11.dtd" >
<svg xmlns="http://www.w3.org/2000/svg" xmlns:xlink="http://www.w3.org/1999/xlink" version="1.1" viewBox="-10 0 1010 1000">
   <path fill="currentColor"
d="M873 67l60 26c-26 44 -52 94 -75 126l-47 -21c22 -35 48 -93 62 -131zM579 193l-54 26c-8 -34 -32 -87 -58 -126l51 -24c28 39 54 90 61 124zM264 274v-125h-45v125h45zM358 512v-176h-50v162c0 12 2 14 12 14h30h8zM128 821h230v-103h-230v103zM175 336h-47v239
c40 -49 47 -106 47 -154v-85zM358 558h-41c-41 0 -53 -11 -53 -60v-162h-45v85c0 60 -12 139 -67 195c-4 -6 -14 -16 -24 -23v68h230v-103zM50 149v-61h377v61h-110v125h98v662h-57v-54h-230v68h-55v-676h93v-125h-116zM799 291h-204c20 33 39 77 46 103l-12 5h124
c16 -33 35 -78 46 -108zM951 707h-201c39 89 112 159 212 188c-15 15 -36 41 -46 61c-97 -36 -166 -104 -211 -194c-30 72 -94 143 -221 194c-10 -16 -30 -40 -46 -53c140 -50 192 -123 211 -196h-199v-58h208c1 -12 1 -23 1 -34v-38h-177v-56h177v-66h-192v-56h111
c-8 -27 -23 -63 -39 -91l49 -17h-145v-59h162v-189h55v189h66v-189h56v189h169v59h-143l52 18c-14 30 -29 63 -44 90h120v56h-205v66h190v56h-190v39c0 11 0 22 -1 33h221v58z" />
</svg>
