<?xml version="1.0" standalone="no"?>
<!DOCTYPE svg PUBLIC "-//W3C//DTD SVG 1.1//EN" "http://www.w3.org/Graphics/SVG/1.1/DTD/svg11.dtd" >
<svg xmlns="http://www.w3.org/2000/svg" xmlns:xlink="http://www.w3.org/1999/xlink" version="1.1" viewBox="-10 0 1010 1000">
   <path fill="currentColor"
d="M248 276v-127h-46v127h46zM337 510v-172h-49v160c0 12 2 13 12 13h28c4 0 7 0 9 -1zM117 823h220v-104h-220v104zM163 338h-46v234c39 -49 46 -107 46 -154v-80zM334 554h-38c-36 0 -48 -8 -48 -55v-161h-46v80c0 58 -12 136 -64 190c-4 -5 -13 -12 -21 -18v73h220v-109
h-3zM47 149v-60h362v60h-110v127h93v662h-55v-56h-220v69h-54v-675h88v-127h-104zM539 614h-55v238h55v-238zM440 955v-392h143v383h-44v-44h-55v53h-44zM480 496v-52h150v52h-150zM630 331v51h-123v-51h123zM716 614h-58v238h58v-238zM614 955v-392h147v383h-45v-44h-58v53
h-44zM743 495v-52h158v52h-158zM744 331h128v51h-128v-51zM896 614h-60v238h60v-238zM792 955v-392h149v383h-45v-44h-60v53h-44zM717 211h224v148h-60v-91h-164v265h-60v-265h-159v91h-59v-148h218v-72h-189v-58h448v58h-199v72z" />
</svg>
