<?xml version="1.0" standalone="no"?>
<!DOCTYPE svg PUBLIC "-//W3C//DTD SVG 1.1//EN" "http://www.w3.org/Graphics/SVG/1.1/DTD/svg11.dtd" >
<svg xmlns="http://www.w3.org/2000/svg" xmlns:xlink="http://www.w3.org/1999/xlink" version="1.1" viewBox="-10 0 1010 1000">
   <path fill="currentColor"
d="M294 811l145 -29l5 60c-133 30 -274 59 -377 81l-17 -67c48 -9 111 -20 178 -33v-289h-165v-65h165v-108h-106v-45c-18 16 -35 31 -53 45c-6 -17 -23 -57 -34 -75c83 -59 172 -150 222 -248l61 25c-6 14 -15 28 -23 41c67 43 135 92 177 131l-36 61
c-42 -42 -111 -94 -176 -137c-35 50 -75 96 -117 137h264v65h-113v108h147v65h-147v277zM85 600l52 -13c20 58 38 134 44 183l-56 15c-4 -50 -22 -126 -40 -185zM371 773l-47 -15c17 -49 39 -129 49 -183l59 18c-20 61 -42 134 -61 180zM612 840l212 1c44 0 53 -31 58 -195
c17 11 43 19 62 23c-9 205 -35 240 -123 240h-207c-102 0 -147 -40 -147 -105c0 -57 15 -127 321 -608h-304v-68h361l15 -3l44 20c-1 4 -5 9 -8 13c-338 525 -359 594 -359 637c0 32 30 45 75 45z" />
</svg>
