<?xml version="1.0" standalone="no"?>
<!DOCTYPE svg PUBLIC "-//W3C//DTD SVG 1.1//EN" "http://www.w3.org/Graphics/SVG/1.1/DTD/svg11.dtd" >
<svg xmlns="http://www.w3.org/2000/svg" xmlns:xlink="http://www.w3.org/1999/xlink" version="1.1" viewBox="-10 0 1010 1000">
   <path fill="currentColor"
d="M482 235l-36 61c-42 -41 -111 -93 -176 -136c-35 49 -75 96 -116 136h264v65h-114v108h147v65h-147v277l146 -28l4 60c-132 29 -274 58 -376 80l-18 -67c48 -9 111 -19 178 -32v-290h-165v-65h165v-108h-106v-45c-18 16 -35 31 -53 45c-6 -17 -23 -57 -35 -75
c85 -59 173 -150 223 -248l62 25c-7 14 -15 28 -24 42c68 41 135 91 177 130zM381 774l-47 -16c17 -49 40 -129 49 -183l60 18c-19 61 -42 135 -62 181zM95 600l51 -13c20 58 38 135 44 184l-56 15c-4 -51 -22 -127 -39 -186zM957 131v72h-172v647c0 48 -12 71 -43 84
c-32 13 -86 15 -171 15c-4 -21 -17 -57 -30 -78c69 3 128 2 145 1c18 0 25 -5 25 -23v-646h-242v-72h488z" />
</svg>
