<?xml version="1.0" standalone="no"?>
<!DOCTYPE svg PUBLIC "-//W3C//DTD SVG 1.1//EN" "http://www.w3.org/Graphics/SVG/1.1/DTD/svg11.dtd" >
<svg xmlns="http://www.w3.org/2000/svg" xmlns:xlink="http://www.w3.org/1999/xlink" version="1.1" viewBox="-10 0 1010 1000">
   <path fill="currentColor"
d="M448 780l5 60c-136 29 -281 60 -386 82l-17 -67c48 -8 111 -20 178 -33v-298h-165v-65h165v-105h-106v-44c-20 18 -40 35 -60 51c-6 -17 -23 -57 -35 -75c85 -59 173 -150 224 -248l61 25c-7 14 -15 28 -24 41c71 41 140 90 182 131l-40 60c-41 -43 -109 -94 -177 -135
c-34 47 -71 91 -110 130h265v64h-114v105h147v65h-147v286c50 -9 102 -20 154 -30zM85 593l52 -12c21 57 39 134 44 183l-56 15c-3 -51 -20 -127 -40 -186zM371 767l-47 -16c17 -48 40 -128 49 -182l59 18c-20 60 -42 134 -61 180zM858 876h23c8 0 15 -2 20 -7
c4 -5 8 -15 10 -30c1 -22 3 -75 2 -138c14 14 36 25 55 31c0 57 -4 126 -8 151c-5 26 -13 40 -26 51c-13 10 -31 15 -49 15h-45c-20 0 -40 -5 -55 -20s-18 -31 -18 -83v-499h-123c-1 207 -22 435 -192 613c-15 -12 -44 -29 -65 -37c169 -170 188 -379 189 -576h-123v-71h123
v-230h68v230h192v576c0 7 2 14 6 17c4 4 10 7 16 7z" />
</svg>
