<?xml version="1.0" standalone="no"?>
<!DOCTYPE svg PUBLIC "-//W3C//DTD SVG 1.1//EN" "http://www.w3.org/Graphics/SVG/1.1/DTD/svg11.dtd" >
<svg xmlns="http://www.w3.org/2000/svg" xmlns:xlink="http://www.w3.org/1999/xlink" version="1.1" viewBox="-10 0 1010 1000">
   <path fill="currentColor"
d="M923 253l-64 46c-58 -59 -171 -150 -262 -210l61 -39c93 59 205 147 265 203zM331 53l74 27c-71 88 -182 171 -280 224c-13 -15 -42 -44 -59 -58c99 -45 203 -116 265 -193zM511 179l53 35c-6 8 -13 15 -20 22c136 107 285 162 420 203c-13 17 -31 46 -40 70
c-133 -47 -278 -109 -423 -230c-115 103 -275 188 -423 240c-8 -20 -25 -48 -38 -67c173 -53 366 -153 471 -273zM535 685v184h391v64h-850v-64h223c-11 -40 -42 -101 -72 -145l62 -23c32 43 63 101 77 141l-62 27h158v-184h-322v-64h322v-105h-191v-63h463v63h-199v105h337
v64h-337zM691 867l-59 -23c27 -41 64 -103 83 -147l68 25c-29 51 -64 107 -92 145z" />
</svg>
