<?xml version="1.0" standalone="no"?>
<!DOCTYPE svg PUBLIC "-//W3C//DTD SVG 1.1//EN" "http://www.w3.org/Graphics/SVG/1.1/DTD/svg11.dtd" >
<svg xmlns="http://www.w3.org/2000/svg" xmlns:xlink="http://www.w3.org/1999/xlink" version="1.1" viewBox="-10 0 1010 1000">
   <path fill="currentColor"
d="M285 812l154 -30l5 60c-133 29 -273 59 -377 80l-17 -66c47 -8 105 -19 169 -32v-290h-156v-65h156v-108h-97v-45c-18 16 -35 31 -53 45c-6 -17 -23 -57 -34 -75c83 -58 172 -150 222 -248l62 26c-7 13 -15 27 -23 42c65 39 131 87 171 125l-36 60
c-40 -40 -107 -90 -171 -132c-34 50 -75 96 -117 137h257v65h-115v108h151v65h-151v278zM85 600l52 -13c20 58 38 134 44 183l-56 15c-4 -50 -22 -126 -40 -185zM362 773l-47 -15c17 -49 39 -129 49 -183l60 18c-20 61 -42 134 -62 180zM958 431v69h-219v364
c0 40 -9 59 -35 70c-27 11 -70 12 -138 12c-1 -18 -11 -45 -21 -64c50 2 95 2 108 1c14 0 19 -4 19 -19v-364h-209v-69h209v-262h-193v-68h445v68h-185v262h219z" />
</svg>
