<?xml version="1.0" standalone="no"?>
<!DOCTYPE svg PUBLIC "-//W3C//DTD SVG 1.1//EN" "http://www.w3.org/Graphics/SVG/1.1/DTD/svg11.dtd" >
<svg xmlns="http://www.w3.org/2000/svg" xmlns:xlink="http://www.w3.org/1999/xlink" version="1.1" viewBox="-10 0 1010 1000">
   <path fill="currentColor"
d="M302 534v277c45 -9 92 -19 139 -28l4 59c-123 30 -256 59 -352 81l-17 -67c44 -8 101 -19 164 -32v-290h-153v-65h153v-108h-97v-45c-17 16 -33 31 -50 45c-5 -17 -22 -57 -32 -75c78 -59 159 -150 207 -248l58 26c-7 14 -14 27 -22 41c63 42 126 91 167 130l-36 61
c-40 -41 -104 -93 -164 -136c-33 49 -70 96 -108 136h248v65h-109v108h139v65h-139zM107 600l49 -13c19 58 35 135 41 184l-54 14c-4 -50 -20 -126 -36 -185zM375 774l-46 -16c17 -49 37 -129 46 -183l57 18c-18 61 -39 135 -57 181zM947 258v71h-133v515
c0 48 -11 71 -41 83c-29 14 -81 16 -154 15c-3 -20 -14 -55 -25 -77c56 2 109 2 125 2c17 -1 22 -5 22 -23v-368c-71 122 -161 230 -249 304c-11 -14 -34 -35 -52 -48c110 -90 224 -239 292 -403h-254v-71h263v-209h73v209h133z" />
</svg>
