<?xml version="1.0" standalone="no"?>
<!DOCTYPE svg PUBLIC "-//W3C//DTD SVG 1.1//EN" "http://www.w3.org/Graphics/SVG/1.1/DTD/svg11.dtd" >
<svg xmlns="http://www.w3.org/2000/svg" xmlns:xlink="http://www.w3.org/1999/xlink" version="1.1" viewBox="-10 0 1010 1000">
   <path fill="currentColor"
d="M414 778l5 59c-124 31 -257 62 -352 85l-17 -66c43 -9 101 -21 162 -34v-288h-151v-65h151v-108h-96v-45c-17 16 -32 31 -49 45c-5 -17 -22 -57 -31 -75c76 -58 157 -149 203 -247l57 25c-6 14 -13 28 -21 42c62 42 124 93 163 132l-33 60c-39 -42 -102 -95 -163 -138
c-32 49 -69 96 -107 136h244v65h-106v108h140v65h-140v274zM80 600l49 -13c18 58 34 134 39 183l-51 15c-4 -50 -20 -127 -37 -185zM344 772l-45 -15c17 -50 37 -128 46 -182l55 18c-19 60 -39 132 -56 179zM939 113v41c-10 533 -18 705 -53 754c-19 29 -38 38 -68 43
c-30 4 -75 3 -120 0c-2 -21 -10 -53 -21 -74c46 4 89 4 107 4c17 0 26 -4 36 -19c26 -35 37 -203 46 -679h-126c-5 293 -33 623 -268 781c-11 -15 -41 -41 -57 -53c227 -148 248 -457 249 -728h-190v-70h465zM532 277l59 8c-6 109 -28 236 -71 316l-57 -30
c40 -69 61 -191 69 -294z" />
</svg>
