<?xml version="1.0" standalone="no"?>
<!DOCTYPE svg PUBLIC "-//W3C//DTD SVG 1.1//EN" "http://www.w3.org/Graphics/SVG/1.1/DTD/svg11.dtd" >
<svg xmlns="http://www.w3.org/2000/svg" xmlns:xlink="http://www.w3.org/1999/xlink" version="1.1" viewBox="-10 0 1010 1000">
   <path fill="currentColor"
d="M439 782l5 60c-133 29 -274 59 -377 80l-17 -67c48 -8 111 -19 178 -32v-289h-165v-65h165v-108h-106v-45c-18 16 -35 31 -53 45c-6 -17 -23 -57 -34 -75c83 -59 172 -150 222 -248l62 26c-7 13 -16 27 -24 41c68 42 135 91 177 130l-36 61c-42 -42 -111 -94 -176 -137
c-35 50 -75 96 -117 137h267v65h-116v108h150v65h-150v276zM85 600l52 -13c20 58 38 134 44 183l-56 15c-4 -50 -22 -127 -40 -185zM371 773l-47 -16c17 -49 40 -128 49 -182l59 18c-19 61 -42 134 -61 180zM935 393h-210c28 227 90 420 226 502c-16 14 -40 44 -52 63
c-109 -73 -170 -208 -207 -378c-30 136 -97 269 -243 377c-12 -15 -37 -41 -55 -53c199 -144 240 -334 248 -511h-191v-71h192v-5v-272h72v272v5h220v71z" />
</svg>
