<?xml version="1.0" standalone="no"?>
<!DOCTYPE svg PUBLIC "-//W3C//DTD SVG 1.1//EN" "http://www.w3.org/Graphics/SVG/1.1/DTD/svg11.dtd" >
<svg xmlns="http://www.w3.org/2000/svg" xmlns:xlink="http://www.w3.org/1999/xlink" version="1.1" viewBox="-10 0 1010 1000">
   <path fill="currentColor"
d="M287 811l141 -30l4 60c-124 29 -256 60 -351 81l-17 -66c44 -8 100 -20 161 -33v-289h-149v-65h149v-108h-95v-44c-16 16 -32 30 -48 44c-6 -17 -23 -57 -32 -75c77 -59 157 -150 203 -248l58 26c-7 13 -14 28 -22 42c67 45 133 97 175 139l-34 61
c-41 -44 -108 -100 -174 -146c-32 49 -67 96 -105 136h242v65h-106v108h140v65h-140v277zM95 600l48 -13c19 58 35 135 40 183l-52 15c-3 -50 -20 -126 -36 -185zM359 773l-45 -15c16 -49 36 -129 45 -183l55 18c-17 61 -38 134 -55 180zM654 883h187c44 0 53 -26 58 -133
c17 12 42 22 60 26c-9 127 -29 168 -114 168h-195c-94 0 -122 -24 -122 -120v-371l-72 29l-23 -62l95 -36v-250h65v225l107 -41v-274h66v249l88 -34l9 -8l13 -11l47 20l-3 11c0 169 -1 324 -6 357c-4 39 -21 56 -45 63c-22 7 -50 8 -72 8c-2 -21 -7 -48 -15 -65
c16 1 38 1 47 1c10 0 18 -3 21 -23c4 -18 6 -128 6 -284l-90 35v365h-66v-340l-107 41v396c0 47 9 58 61 58z" />
</svg>
