<?xml version="1.0" standalone="no"?>
<!DOCTYPE svg PUBLIC "-//W3C//DTD SVG 1.1//EN" "http://www.w3.org/Graphics/SVG/1.1/DTD/svg11.dtd" >
<svg xmlns="http://www.w3.org/2000/svg" xmlns:xlink="http://www.w3.org/1999/xlink" version="1.1" viewBox="-10 0 1010 1000">
   <path fill="currentColor"
d="M421 782l5 60c-127 29 -261 59 -358 80l-17 -67c45 -7 103 -19 166 -32v-289h-155v-65h155v-108h-99v-45c-17 16 -34 31 -51 45c-4 -17 -22 -57 -32 -75c80 -59 162 -150 211 -248l58 26c-7 13 -14 27 -22 41c64 41 128 91 168 130l-35 61c-40 -42 -105 -94 -166 -137
c-34 50 -72 97 -111 137h253v65h-110v108h140v65h-140v277zM82 600l50 -13c18 58 36 134 41 183l-53 15c-4 -50 -21 -126 -38 -185zM354 773l-46 -15c17 -49 38 -129 47 -183l56 18c-17 61 -38 134 -57 180zM962 373v71h-136v512h-74v-512h-171c-2 155 -22 361 -111 505
c-13 -13 -44 -33 -63 -40c92 -146 101 -349 101 -498v-263c131 -25 278 -62 361 -99l63 57c-95 39 -228 71 -351 94v173h381z" />
</svg>
