<?xml version="1.0" standalone="no"?>
<!DOCTYPE svg PUBLIC "-//W3C//DTD SVG 1.1//EN" "http://www.w3.org/Graphics/SVG/1.1/DTD/svg11.dtd" >
<svg xmlns="http://www.w3.org/2000/svg" xmlns:xlink="http://www.w3.org/1999/xlink" version="1.1" viewBox="-10 0 1010 1000">
   <path fill="currentColor"
d="M599 57l67 14c-36 166 -98 323 -173 425c-12 -12 -41 -34 -57 -45c76 -92 131 -241 163 -394zM294 810l150 -29l4 60c-134 29 -277 60 -381 81l-16 -67c48 -8 110 -19 177 -33v-288h-165v-65h165v-108h-100v-50c-20 17 -39 35 -59 50c-6 -17 -23 -57 -34 -75
c83 -59 172 -150 222 -248l61 26c-7 14 -15 28 -24 42c68 44 135 97 178 138l-37 60c-42 -43 -111 -99 -175 -144c-36 49 -75 96 -117 136h258v65h-107v108h133v65h-133v276zM85 600l52 -13c20 58 38 135 44 184l-56 14c-4 -50 -22 -126 -40 -185zM372 774l-47 -16
c17 -49 39 -128 49 -182l59 17c-20 61 -42 135 -61 181zM738 615l60 -25c57 106 119 243 144 328l-66 30c-6 -23 -16 -50 -26 -78c-300 36 -335 42 -358 54c-4 -16 -15 -52 -24 -72c18 -5 33 -34 55 -79c21 -45 88 -210 123 -363l72 22c-40 143 -96 291 -152 406l261 -29
c-27 -65 -59 -135 -89 -194zM743 70l59 -18c34 140 99 298 167 377c-18 14 -42 41 -55 61c-70 -92 -135 -264 -171 -420z" />
</svg>
