<?xml version="1.0" standalone="no"?>
<!DOCTYPE svg PUBLIC "-//W3C//DTD SVG 1.1//EN" "http://www.w3.org/Graphics/SVG/1.1/DTD/svg11.dtd" >
<svg xmlns="http://www.w3.org/2000/svg" xmlns:xlink="http://www.w3.org/1999/xlink" version="1.1" viewBox="-10 0 1010 1000">
   <path fill="currentColor"
d="M432 236l-33 61c-39 -42 -101 -94 -159 -137c-32 49 -68 96 -105 136h240v65h-105v108h134v65h-134v276l134 -28l4 60c-120 29 -249 59 -342 80l-17 -67c44 -8 99 -19 161 -32v-289h-149v-65h149v-108h-96v-44c-16 16 -31 30 -47 44c-5 -17 -22 -57 -31 -75
c75 -59 154 -150 201 -247l56 25c-6 14 -13 28 -21 42c61 41 122 90 160 130zM340 773l-43 -16c16 -49 35 -128 44 -182l55 18c-19 61 -38 134 -56 180zM80 600l48 -13c17 58 34 134 39 183l-50 15c-5 -50 -21 -127 -37 -185zM509 332v371c89 -115 122 -249 134 -371h-134z
M917 263v596c0 43 -10 65 -37 77c-29 12 -76 14 -148 14c-3 -21 -14 -53 -24 -74c54 3 104 3 119 2c15 0 20 -5 20 -19v-527h-134c-3 32 -7 64 -13 96c55 94 117 212 143 280l-61 35c-21 -57 -61 -142 -103 -222c-24 79 -60 156 -116 227c-12 -12 -35 -29 -54 -39v247h-69
v-693h207c2 -29 2 -58 2 -85v-133h70v133c0 27 0 56 -2 85h200z" />
</svg>
