<?xml version="1.0" standalone="no"?>
<!DOCTYPE svg PUBLIC "-//W3C//DTD SVG 1.1//EN" "http://www.w3.org/Graphics/SVG/1.1/DTD/svg11.dtd" >
<svg xmlns="http://www.w3.org/2000/svg" xmlns:xlink="http://www.w3.org/1999/xlink" version="1.1" viewBox="-10 0 1010 1000">
   <path fill="currentColor"
d="M261 810l125 -28l4 60c-114 29 -236 59 -325 80l-16 -67c41 -7 93 -19 151 -32v-289h-141v-65h141v-108h-91v-43c-15 15 -29 30 -44 43c-5 -17 -21 -57 -30 -75c72 -59 147 -150 191 -248l53 26c-5 13 -12 28 -19 42c57 41 116 90 153 129l-33 61
c-35 -41 -95 -93 -151 -136c-30 49 -64 96 -100 136h227v65h-95v108h125v65h-125v276zM78 600l48 -14c16 59 32 134 37 183l-51 16c-4 -50 -19 -127 -34 -185zM325 774l-43 -17c15 -49 33 -128 42 -182l53 18c-17 62 -35 134 -52 181zM571 53l71 17c-15 63 -36 125 -59 183
v706h-69v-568c-22 36 -45 68 -71 97c-8 -16 -30 -49 -45 -65c82 -88 140 -225 173 -370zM800 878h47c14 0 27 -1 34 -5c7 -5 15 -16 17 -27c2 -20 5 -68 4 -124c16 14 39 27 60 33c-2 49 -6 111 -11 134c-7 25 -18 39 -34 48c-17 9 -42 13 -65 13h-68c-24 0 -50 -5 -68 -19
c-20 -16 -26 -33 -26 -90v-284c-18 14 -37 29 -56 43c-11 -14 -32 -35 -47 -46c35 -25 70 -53 103 -84v-411h70v343c53 -58 99 -120 132 -180l57 39c-48 83 -114 163 -189 235v352c0 11 4 19 12 23c8 5 17 7 28 7z" />
</svg>
