<?xml version="1.0" standalone="no"?>
<!DOCTYPE svg PUBLIC "-//W3C//DTD SVG 1.1//EN" "http://www.w3.org/Graphics/SVG/1.1/DTD/svg11.dtd" >
<svg xmlns="http://www.w3.org/2000/svg" xmlns:xlink="http://www.w3.org/1999/xlink" version="1.1" viewBox="-10 0 1010 1000">
   <path fill="currentColor"
d="M440 235l-34 61c-39 -41 -102 -93 -161 -137c-32 50 -69 97 -107 137h242v65h-104v108h136v65h-136v277c47 -10 95 -20 143 -31l4 61c-126 29 -258 60 -354 81l-16 -66c43 -8 100 -20 161 -33v-289h-150v-65h150v-108h-96v-45c-17 16 -32 31 -49 45
c-4 -17 -21 -57 -31 -75c77 -59 157 -150 204 -248l56 25c-6 14 -13 28 -21 41c62 43 123 92 163 131zM346 774l-44 -16c17 -49 36 -128 45 -183l55 18c-18 61 -37 135 -56 181zM83 600l48 -13c18 58 35 135 40 184l-51 14c-4 -49 -20 -126 -37 -185zM725 246v362h128v-270
h67v406h-67v-67h-128v144c0 30 3 49 14 55c9 4 19 5 32 5h61c14 0 30 -1 38 -4c8 -2 17 -9 20 -23c3 -15 5 -49 6 -92c17 15 42 27 64 34c-1 39 -7 87 -15 106c-6 20 -19 33 -39 40c-18 6 -45 9 -68 9h-80c-22 0 -52 -6 -71 -19c-21 -15 -31 -33 -31 -119v-136h-187v-338h65
v269h122v-362h-209v-69h209v-132h69v132h235v69h-235z" />
</svg>
