<?xml version="1.0" standalone="no"?>
<!DOCTYPE svg PUBLIC "-//W3C//DTD SVG 1.1//EN" "http://www.w3.org/Graphics/SVG/1.1/DTD/svg11.dtd" >
<svg xmlns="http://www.w3.org/2000/svg" xmlns:xlink="http://www.w3.org/1999/xlink" version="1.1" viewBox="-10 0 1010 1000">
   <path fill="currentColor"
d="M279 810l148 -31l4 59c-129 31 -266 62 -365 85l-17 -67c45 -9 104 -21 168 -33v-289h-156v-65h156v-108h-101v-49c-18 16 -35 32 -53 47c-5 -16 -21 -55 -31 -73c78 -59 160 -150 208 -248l56 25l-21 39c63 42 128 93 168 133l-34 61c-40 -42 -106 -96 -166 -140
c-34 51 -72 99 -112 140h249v65h-101v108h139v65h-139v276zM87 600l48 -13c18 58 35 135 40 184l-52 14c-4 -50 -20 -126 -36 -185zM351 774l-45 -16c16 -49 36 -128 45 -182l56 17c-19 61 -38 135 -56 181zM957 542v71h-220v344h-72v-344h-226v-71h226v-226h-123
c-18 58 -37 111 -61 153c-13 -10 -44 -26 -61 -35c49 -82 81 -212 99 -339l68 12c-7 47 -16 94 -26 138h104v-191h72v191h184v71h-184v226h220z" />
</svg>
