<?xml version="1.0" standalone="no"?>
<!DOCTYPE svg PUBLIC "-//W3C//DTD SVG 1.1//EN" "http://www.w3.org/Graphics/SVG/1.1/DTD/svg11.dtd" >
<svg xmlns="http://www.w3.org/2000/svg" xmlns:xlink="http://www.w3.org/1999/xlink" version="1.1" viewBox="-10 0 1010 1000">
   <path fill="currentColor"
d="M272 816l141 -27l5 62c-121 26 -248 53 -342 74l-18 -70c40 -6 93 -16 148 -26v-296h-138v-65h138v-109h-84v-45c-16 15 -32 30 -48 43c-6 -16 -24 -54 -34 -71c76 -59 155 -151 201 -248l62 24c-7 16 -16 34 -26 51c61 39 121 87 160 124l-37 57
c-38 -39 -98 -88 -156 -129c-31 47 -67 92 -103 130h223v64h-92v109h130v65h-130v283zM80 600l52 -12c20 58 37 134 43 183l-55 15c-4 -50 -22 -127 -40 -186zM333 773l-45 -15c17 -49 39 -128 48 -182l57 17c-19 61 -42 134 -60 180zM495 560h131v-161h-102
c-9 55 -19 112 -29 161zM696 170v159h129v-159h-129zM696 560h240s-1 21 -2 30c-14 169 -26 235 -51 261c-13 17 -29 23 -52 25c-20 2 -58 2 -98 0c-1 -19 -7 -45 -16 -62c36 4 69 4 81 4c14 0 22 -1 30 -9c13 -15 25 -63 35 -179h-167v328h-70v-328h-211
c18 -80 40 -204 53 -301h158v-159h-190v-70h460v299h-200v161z" />
</svg>
