<?xml version="1.0" standalone="no"?>
<!DOCTYPE svg PUBLIC "-//W3C//DTD SVG 1.1//EN" "http://www.w3.org/Graphics/SVG/1.1/DTD/svg11.dtd" >
<svg xmlns="http://www.w3.org/2000/svg" xmlns:xlink="http://www.w3.org/1999/xlink" version="1.1" viewBox="-10 0 1010 1000">
   <path fill="currentColor"
d="M434 781l5 60c-131 29 -270 60 -371 81l-17 -67c47 -8 107 -19 173 -32v-289h-160v-65h160v-108h-102v-45c-18 16 -34 31 -52 45c-6 -17 -23 -57 -34 -75c83 -59 168 -150 217 -248l61 26c-7 13 -15 28 -23 42c66 41 132 90 174 129l-37 61c-41 -41 -109 -94 -172 -137
c-34 50 -73 97 -113 137h259v65h-112v108h147v65h-147v276c47 -9 96 -19 144 -29zM85 600l51 -13c19 58 37 134 42 183l-54 15c-4 -50 -21 -127 -39 -185zM366 773l-48 -16c18 -49 39 -128 49 -182l58 18c-19 61 -41 134 -59 180zM950 380h-200c34 220 100 418 215 520
c-20 12 -46 39 -60 58c-104 -101 -166 -267 -204 -464c-16 77 -41 164 -82 249l35 -21c48 46 101 110 127 153l-64 40c-21 -40 -68 -101 -112 -146c-35 66 -81 130 -138 185c-16 -15 -45 -38 -66 -50c178 -159 227 -382 239 -524h-195v-70h199v-13v-254h77v254v13h229v70z
" />
</svg>
