<?xml version="1.0" standalone="no"?>
<!DOCTYPE svg PUBLIC "-//W3C//DTD SVG 1.1//EN" "http://www.w3.org/Graphics/SVG/1.1/DTD/svg11.dtd" >
<svg xmlns="http://www.w3.org/2000/svg" xmlns:xlink="http://www.w3.org/1999/xlink" version="1.1" viewBox="-10 0 1010 1000">
   <path fill="currentColor"
d="M470 236l-37 60c-42 -41 -111 -93 -176 -136c-35 49 -74 96 -115 136h262v65h-113v108h146v65h-146v275l148 -28l5 60c-134 29 -276 60 -379 81l-17 -67c48 -8 109 -19 176 -33v-288h-164v-65h164v-108h-105v-44c-18 16 -34 30 -52 44c-6 -16 -23 -57 -35 -74
c84 -59 172 -150 222 -249l62 26c-7 14 -15 27 -24 42c68 41 136 91 178 130zM368 773l-48 -16c18 -49 40 -128 49 -182l60 18c-20 61 -42 134 -61 180zM82 600l52 -12c20 57 37 134 43 183l-55 14c-4 -49 -22 -126 -40 -185zM691 376h-121v238h121v-238zM752 674h-182v68
h-60v-426h242v358zM958 110v69h-63v681c0 48 -12 70 -42 81c-32 13 -87 15 -170 15c-3 -21 -14 -54 -25 -75c65 2 124 2 144 1c16 0 22 -5 22 -22v-681h-350v-69h484z" />
</svg>
