<?xml version="1.0" standalone="no"?>
<!DOCTYPE svg PUBLIC "-//W3C//DTD SVG 1.1//EN" "http://www.w3.org/Graphics/SVG/1.1/DTD/svg11.dtd" >
<svg xmlns="http://www.w3.org/2000/svg" xmlns:xlink="http://www.w3.org/1999/xlink" version="1.1" viewBox="-10 0 1010 1000">
   <path fill="currentColor"
d="M282 811l140 -29l5 60c-127 29 -263 59 -360 80l-17 -67c46 -8 106 -19 170 -32v-289h-158v-65h158v-108h-101v-45c-17 16 -34 31 -51 45c-5 -17 -23 -57 -33 -75c81 -59 165 -150 213 -248l58 26c-6 13 -14 27 -22 41c65 41 130 91 170 130l-35 61
c-41 -42 -107 -94 -168 -137c-34 50 -72 96 -112 137h254v65h-111v108h142v65h-142v277zM83 600l50 -12c18 58 35 134 41 183l-53 15c-4 -50 -21 -127 -38 -186zM357 774l-45 -16c17 -49 37 -128 47 -182l56 18c-19 60 -39 134 -58 180zM872 506l45 32
c-47 95 -131 209 -197 285c32 31 63 62 84 86l-51 46c-47 -57 -144 -153 -217 -220l47 -40c27 23 57 51 89 81c50 -53 112 -134 153 -202h-340v-64h377zM623 341l52 -24c32 44 67 103 87 141l-53 33c-18 -40 -56 -104 -86 -150zM667 45l59 21c-5 10 -9 21 -14 30
c61 109 168 226 257 286c-16 13 -36 39 -48 57c-82 -62 -175 -173 -239 -282c-58 107 -137 209 -227 285c-10 -12 -31 -34 -46 -45c113 -90 208 -228 258 -352z" />
</svg>
