<?xml version="1.0" standalone="no"?>
<!DOCTYPE svg PUBLIC "-//W3C//DTD SVG 1.1//EN" "http://www.w3.org/Graphics/SVG/1.1/DTD/svg11.dtd" >
<svg xmlns="http://www.w3.org/2000/svg" xmlns:xlink="http://www.w3.org/1999/xlink" version="1.1" viewBox="-10 0 1010 1000">
   <path fill="currentColor"
d="M730 844h227v71h-521v-70c-131 29 -267 57 -366 78l-19 -67c48 -9 111 -20 179 -33v-289h-166v-65h166v-108h-106v-48c-19 16 -38 32 -57 46c-5 -16 -22 -55 -33 -73c85 -58 175 -149 226 -247l62 24c-7 14 -15 28 -24 42c69 42 138 92 180 131l-37 60
c-43 -42 -112 -93 -178 -137c-37 50 -77 97 -121 137h271v65h-115v108h148v65h-148v277l147 -29l5 60l-9 2h215v-330h-175v-71h175v-256h-190v-71h475v71h-211v256h199v71h-199v330zM86 600l53 -13c20 58 38 135 44 184l-56 14c-5 -50 -23 -126 -41 -185zM376 773l-48 -15
c18 -49 39 -128 49 -182l61 17c-20 61 -42 134 -62 180zM777 589l58 -22c41 62 83 144 102 197l-63 26c-18 -54 -59 -138 -97 -201z" />
</svg>
