<?xml version="1.0" standalone="no"?>
<!DOCTYPE svg PUBLIC "-//W3C//DTD SVG 1.1//EN" "http://www.w3.org/Graphics/SVG/1.1/DTD/svg11.dtd" >
<svg xmlns="http://www.w3.org/2000/svg" xmlns:xlink="http://www.w3.org/1999/xlink" version="1.1" viewBox="-10 0 1010 1000">
   <path fill="currentColor"
d="M431 781l6 62c-132 31 -270 61 -373 83l-15 -68c46 -9 103 -19 165 -31v-302h-156v-65h156v-107h-103v-48c-18 17 -35 33 -53 47c-6 -15 -25 -50 -37 -66c81 -59 164 -150 212 -248l58 24c-7 13 -14 27 -22 41c68 40 133 91 175 132l-39 60c-40 -43 -105 -96 -170 -138
c-33 48 -70 93 -108 132h263v64h-110v107h142v65h-142v288c49 -10 101 -21 151 -32zM81 590l51 -13c21 60 37 138 40 189l-55 13c-2 -52 -17 -129 -36 -189zM364 762l-49 -14c15 -48 33 -126 41 -179l58 14c-16 61 -34 133 -50 179zM953 551h-213c39 156 113 283 231 345
c-18 14 -40 42 -51 62c-111 -67 -183 -187 -228 -337c-34 115 -109 236 -267 335c-12 -15 -36 -39 -53 -52c178 -104 242 -234 263 -353h-192v-70h201c3 -31 3 -61 3 -88v-135h-94c-19 60 -42 114 -67 156c-14 -11 -45 -30 -63 -39c54 -81 88 -206 107 -332l71 13
c-8 45 -17 90 -28 133h345v69h-198v136c0 27 -1 57 -3 87h236v70z" />
</svg>
