<?xml version="1.0" standalone="no"?>
<!DOCTYPE svg PUBLIC "-//W3C//DTD SVG 1.1//EN" "http://www.w3.org/Graphics/SVG/1.1/DTD/svg11.dtd" >
<svg xmlns="http://www.w3.org/2000/svg" xmlns:xlink="http://www.w3.org/1999/xlink" version="1.1" viewBox="-10 0 1010 1000">
   <path fill="currentColor"
d="M432 235l-33 61c-38 -41 -100 -93 -159 -136c-32 49 -68 96 -106 136h238v65h-101v108h132v65h-132v276l136 -29l4 60c-122 29 -252 60 -346 81l-16 -67c44 -9 100 -19 162 -33v-288h-150v-65h150v-108h-98v-43c-16 15 -31 30 -47 43c-5 -17 -22 -57 -31 -75
c76 -58 155 -150 202 -248l56 26c-6 13 -13 27 -21 42c61 41 122 90 160 129zM341 773l-44 -16c17 -49 36 -128 45 -182l55 18c-19 60 -38 134 -56 180zM80 600l48 -13c18 58 34 134 39 183l-51 15c-4 -50 -19 -127 -36 -185zM654 868h172c44 0 52 -24 57 -139
c18 13 49 24 71 28c-10 139 -33 178 -123 178h-184c-101 0 -128 -24 -128 -113v-451h-72v-173h241c-18 -39 -53 -95 -83 -137l77 -20c34 46 73 105 92 144l-46 13h202v173h-74v-109h-336v92h76v231c100 -43 202 -97 263 -144l60 50c-86 57 -209 112 -323 157v175
c0 37 8 45 58 45z" />
</svg>
