<?xml version="1.0" standalone="no"?>
<!DOCTYPE svg PUBLIC "-//W3C//DTD SVG 1.1//EN" "http://www.w3.org/Graphics/SVG/1.1/DTD/svg11.dtd" >
<svg xmlns="http://www.w3.org/2000/svg" xmlns:xlink="http://www.w3.org/1999/xlink" version="1.1" viewBox="-10 0 1010 1000">
   <path fill="currentColor"
d="M294 810l140 -27l5 60c-131 29 -271 58 -372 80l-17 -67c48 -9 111 -21 178 -34v-288h-165v-65h165v-108h-106v-45c-18 16 -35 31 -53 45c-6 -17 -23 -57 -34 -75c83 -58 172 -149 222 -248l61 26c-6 14 -15 27 -23 41c68 42 135 92 177 131l-36 60
c-42 -42 -111 -94 -176 -137c-35 50 -75 96 -117 137h254v65h-103v108h141v65h-141v276zM85 600l52 -12c20 57 38 134 44 183l-56 14c-4 -50 -22 -126 -40 -185zM841 840v-309h-239v309h239zM947 179h-261c-20 100 -47 197 -79 283h306v496h-72v-48h-239v53h-69v-342
c-21 36 -43 69 -68 99c-10 -14 -38 -41 -55 -55c-14 40 -27 80 -39 109l-47 -16c17 -49 40 -128 49 -182l59 18l-20 63c97 -112 160 -287 198 -478h-168v-70h505v70z" />
</svg>
