<?xml version="1.0" standalone="no"?>
<!DOCTYPE svg PUBLIC "-//W3C//DTD SVG 1.1//EN" "http://www.w3.org/Graphics/SVG/1.1/DTD/svg11.dtd" >
<svg xmlns="http://www.w3.org/2000/svg" xmlns:xlink="http://www.w3.org/1999/xlink" version="1.1" viewBox="-10 0 1010 1000">
   <path fill="currentColor"
d="M279 805l142 -35l6 59c-128 35 -263 71 -361 96l-17 -65c45 -11 105 -25 169 -40v-286h-157v-65h157v-108h-103v-44c-16 15 -32 30 -48 44c-5 -17 -22 -57 -31 -75c76 -58 156 -149 203 -247l56 25c-6 15 -14 30 -22 43c58 43 117 95 155 134l-35 59
c-36 -41 -96 -94 -152 -138c-32 48 -68 94 -106 134h242v65h-98v108h128v65h-128v271zM89 600l48 -12c18 57 35 134 40 183l-52 15c-3 -50 -19 -127 -36 -186zM340 774l-44 -16c16 -49 36 -128 45 -182l55 18c-18 60 -38 134 -56 180zM938 239h-197v163h170v357
c0 32 -3 56 -23 69c-19 13 -44 14 -84 14c-1 -20 -10 -53 -19 -74c27 1 46 1 54 0c8 0 10 -2 10 -11v-288h-108v495h-68v-495h-119v369h-60v-436h179v-163h-120c-24 38 -49 72 -76 100c-13 -11 -43 -28 -58 -36c64 -62 120 -157 153 -255l65 15c-13 38 -29 76 -47 111h348
v65z" />
</svg>
