<?xml version="1.0" standalone="no"?>
<!DOCTYPE svg PUBLIC "-//W3C//DTD SVG 1.1//EN" "http://www.w3.org/Graphics/SVG/1.1/DTD/svg11.dtd" >
<svg xmlns="http://www.w3.org/2000/svg" xmlns:xlink="http://www.w3.org/1999/xlink" version="1.1" viewBox="-10 0 1010 1000">
   <path fill="currentColor"
d="M412 233l-31 61c-35 -40 -93 -92 -148 -134c-30 49 -64 96 -100 136h227v65h-95v108h125v65h-125v277l124 -29l4 60c-114 30 -235 59 -323 81l-16 -67c41 -9 95 -20 152 -32v-290h-141v-65h141v-108h-91v-45c-16 16 -30 31 -46 45c-5 -16 -21 -57 -29 -74
c71 -59 147 -151 191 -249l53 26c-6 13 -13 28 -21 42c57 41 113 89 149 127zM328 774l-41 -16c15 -49 33 -129 42 -183l51 18c-17 61 -35 134 -52 181zM83 600l46 -13c16 58 32 134 37 184l-48 14c-4 -50 -19 -126 -35 -185zM492 852h458v68h-525v-821h513v69h-446v684z
M907 316v310c0 29 -5 46 -24 57c-18 11 -45 12 -89 12c-3 -17 -11 -41 -19 -58c30 1 54 0 63 0c8 -1 10 -3 10 -12v-246h-91v417h-60v-417h-85v321h-56v-384h141v-111h60v111h150z" />
</svg>
