<?xml version="1.0" standalone="no"?>
<!DOCTYPE svg PUBLIC "-//W3C//DTD SVG 1.1//EN" "http://www.w3.org/Graphics/SVG/1.1/DTD/svg11.dtd" >
<svg xmlns="http://www.w3.org/2000/svg" xmlns:xlink="http://www.w3.org/1999/xlink" version="1.1" viewBox="-10 0 1010 1000">
   <path fill="currentColor"
d="M270 811l149 -31l4 59c-127 30 -260 62 -357 83l-17 -67c43 -7 99 -19 161 -32v-289h-149v-65h149v-108h-96v-44c-16 15 -32 30 -48 44c-5 -17 -21 -57 -31 -75c76 -58 155 -150 202 -248l55 26c-6 13 -13 27 -20 41c60 41 122 91 162 130l-34 61
c-39 -41 -101 -93 -160 -136c-32 49 -68 96 -106 136h245v65h-109v108h140v65h-140v277zM80 600l47 -13c18 58 35 134 40 183l-51 15c-4 -50 -20 -127 -36 -185zM340 773l-43 -16c16 -49 35 -128 44 -182l55 18c-18 61 -38 134 -56 180zM464 803l44 -52
c132 36 295 102 385 151l-44 59c-88 -53 -251 -120 -385 -158zM572 614l45 -46c69 29 156 76 202 111l-45 51c-46 -36 -132 -86 -202 -116zM590 213l-7 10c28 51 64 101 106 146c45 -47 86 -99 114 -156h-213zM855 144l45 27c-38 94 -95 176 -163 245c71 65 154 117 238 149
c-16 15 -38 42 -49 60c-85 -37 -166 -93 -238 -163c-73 65 -156 115 -239 151c-9 -16 -31 -46 -46 -57c83 -34 167 -83 238 -143c-36 -41 -69 -85 -97 -133c-26 36 -57 70 -90 101c-12 -15 -35 -37 -52 -47c97 -85 161 -200 194 -291l73 12c-13 30 -27 62 -43 93h216z" />
</svg>
