<?xml version="1.0" standalone="no"?>
<!DOCTYPE svg PUBLIC "-//W3C//DTD SVG 1.1//EN" "http://www.w3.org/Graphics/SVG/1.1/DTD/svg11.dtd" >
<svg xmlns="http://www.w3.org/2000/svg" xmlns:xlink="http://www.w3.org/1999/xlink" version="1.1" viewBox="-10 0 1010 1000">
   <path fill="currentColor"
d="M433 241l-35 62c-38 -42 -100 -94 -159 -137c-32 48 -67 93 -105 132h241v67h-103v104h133v68h-133v274c46 -9 94 -19 141 -30l5 62c-124 30 -257 61 -352 83l-16 -70c43 -7 97 -18 158 -31v-288h-146v-68h146v-104h-94v-46c-16 15 -31 30 -47 43c-5 -18 -22 -59 -32 -77
c76 -58 155 -148 201 -244l59 26c-7 15 -15 29 -23 43c61 42 121 91 161 131zM342 776l-47 -16c16 -49 36 -130 46 -183l56 18c-17 61 -38 134 -55 181zM79 601l50 -13c17 58 33 134 38 183l-53 16c-3 -51 -19 -126 -35 -186zM957 540h-243c-46 109 -104 220 -162 309
l281 -32c-28 -53 -59 -107 -90 -154l58 -24c63 91 131 212 156 289l-64 28c-7 -23 -18 -51 -33 -82c-324 39 -362 46 -386 58c-4 -16 -16 -52 -25 -72c19 -4 36 -29 58 -65c21 -31 80 -141 123 -255h-188v-69h206v-185h-179v-68h179v-174h72v174h201v68h-201v185h237v69z
" />
</svg>
