<?xml version="1.0" standalone="no"?>
<!DOCTYPE svg PUBLIC "-//W3C//DTD SVG 1.1//EN" "http://www.w3.org/Graphics/SVG/1.1/DTD/svg11.dtd" >
<svg xmlns="http://www.w3.org/2000/svg" xmlns:xlink="http://www.w3.org/1999/xlink" version="1.1" viewBox="-10 0 1010 1000">
   <path fill="currentColor"
d="M283 817l162 -32l5 64c-136 28 -281 58 -386 77l-17 -66c47 -8 105 -19 170 -31v-305h-160v-65h160v-106h-109v-38c-16 14 -32 28 -49 41c-7 -16 -25 -53 -37 -70c82 -58 168 -150 218 -248l61 25c-7 14 -15 27 -23 41c69 39 137 88 178 129l-38 59
c-40 -42 -108 -93 -174 -134c-34 48 -71 92 -109 131h260v64h-112v106h145v65h-145v293zM79 593l52 -12c21 57 38 134 43 183l-55 15c-3 -51 -20 -127 -40 -186zM363 770l-47 -16c17 -50 37 -130 46 -185l60 17c-20 62 -40 136 -59 184zM684 463h-130v223h130v-223zM927 206
v38c-14 468 -27 623 -63 672c-20 27 -40 35 -73 39c-29 4 -79 3 -128 0c-1 -22 -9 -53 -23 -74c54 5 102 5 123 5c17 1 27 -3 37 -16c29 -34 43 -186 55 -596h-291c-22 46 -46 89 -73 126h255v349h-192v48h-63v-397c-12 18 -23 33 -36 48c-12 -13 -42 -38 -60 -50
c79 -85 140 -218 177 -355l72 18c-14 50 -30 98 -50 145h333z" />
</svg>
