<?xml version="1.0" standalone="no"?>
<!DOCTYPE svg PUBLIC "-//W3C//DTD SVG 1.1//EN" "http://www.w3.org/Graphics/SVG/1.1/DTD/svg11.dtd" >
<svg xmlns="http://www.w3.org/2000/svg" xmlns:xlink="http://www.w3.org/1999/xlink" version="1.1" viewBox="-10 0 1010 1000">
   <path fill="currentColor"
d="M895 226l-51 36c-22 -37 -68 -98 -109 -142l49 -32c41 43 89 101 111 138zM267 810l129 -28l5 60c-118 29 -244 59 -335 80l-17 -67c42 -7 98 -19 157 -32v-289h-146v-65h146v-108h-95v-44c-16 15 -30 30 -46 44c-5 -17 -22 -57 -31 -75c74 -59 153 -150 198 -248l54 26
c-6 13 -13 27 -20 41c59 41 120 91 157 130l-32 61c-37 -42 -99 -94 -156 -137c-32 50 -67 96 -104 137h235v65h-99v108h130v65h-130v276zM79 600l48 -14c17 59 34 134 38 183l-51 16c-4 -50 -19 -127 -35 -185zM333 774l-44 -17c16 -49 35 -128 44 -182l55 18
c-18 62 -37 135 -55 181zM935 368h-184c49 149 132 312 207 400c-18 13 -43 37 -56 57c-70 -94 -145 -254 -196 -405v534h-71v-514c-43 156 -107 303 -178 392c-12 -17 -36 -41 -53 -54c76 -86 148 -252 186 -410h-156v-68h201v-257h71v257h229v68z" />
</svg>
