<?xml version="1.0" standalone="no"?>
<!DOCTYPE svg PUBLIC "-//W3C//DTD SVG 1.1//EN" "http://www.w3.org/Graphics/SVG/1.1/DTD/svg11.dtd" >
<svg xmlns="http://www.w3.org/2000/svg" xmlns:xlink="http://www.w3.org/1999/xlink" version="1.1" viewBox="-10 0 1010 1000">
   <path fill="currentColor"
d="M625 221l55 -27c39 51 82 122 99 166l-58 30c-17 -45 -59 -116 -96 -169zM770 685l-59 30c-18 -47 -60 -124 -99 -180l56 -25c41 54 85 128 102 175zM548 752h262c7 -61 12 -147 17 -266h-260c-6 97 -12 189 -19 266zM836 168h-252c-4 79 -8 166 -13 252h258
c3 -73 5 -156 7 -252zM959 486h-64c-4 117 -9 202 -15 266h66v65h-73c-7 49 -16 77 -28 94c-19 29 -39 38 -68 42c-28 4 -72 3 -112 0c-1 -19 -8 -46 -19 -64c45 3 85 4 103 4c16 0 25 -3 34 -19c7 -9 13 -27 19 -57h-328c9 -87 19 -206 27 -331h-72v48h-142v276l141 -28
l4 60c-128 29 -265 59 -364 80l-17 -67c47 -8 105 -19 171 -32v-289h-159v-65h159v-108h-102v-46c-18 16 -35 32 -53 46c-5 -17 -22 -57 -32 -75c81 -58 165 -150 215 -248l59 26c-6 14 -14 27 -22 41c65 41 131 91 172 130l-36 61c-41 -42 -107 -94 -170 -137
c-34 50 -73 97 -113 137h256v65h-109v108h142v-49h76c6 -110 11 -222 14 -317h387s0 31 -1 40c-2 106 -5 198 -8 277h62v66zM362 775l-48 -17c17 -49 38 -129 47 -183l61 19c-20 61 -41 134 -60 181zM82 600l54 -14c19 59 36 135 41 184l-57 15c-4 -50 -20 -126 -38 -185z
" />
</svg>
