<?xml version="1.0" standalone="no"?>
<!DOCTYPE svg PUBLIC "-//W3C//DTD SVG 1.1//EN" "http://www.w3.org/Graphics/SVG/1.1/DTD/svg11.dtd" >
<svg xmlns="http://www.w3.org/2000/svg" xmlns:xlink="http://www.w3.org/1999/xlink" version="1.1" viewBox="-10 0 1010 1000">
   <path fill="currentColor"
d="M270 810l135 -28l4 58c-121 30 -250 60 -343 82l-17 -67c43 -8 99 -20 161 -32v-289h-149v-65h149v-108h-96v-44c-16 16 -31 30 -47 44c-5 -17 -22 -57 -31 -75c75 -59 154 -150 201 -248l56 26c-6 13 -13 28 -21 42c58 41 118 89 155 127l-31 62
c-37 -41 -98 -93 -156 -135c-32 49 -68 96 -105 136h228v65h-93v108h126v65h-126v276zM80 600l48 -13c17 58 34 134 39 183l-50 15c-5 -50 -21 -127 -37 -185zM340 773l-43 -16c16 -49 35 -128 44 -182l55 18c-19 60 -38 134 -56 180zM542 299v-239h68v878h-68v-198
c-31 27 -64 54 -94 79l-35 -69c34 -21 80 -54 129 -91v-289h-127v-71h127zM795 858h57c20 0 23 -40 26 -189c17 14 45 27 65 32c-6 166 -20 224 -85 224h-73c-64 0 -82 -25 -82 -112v-752h71v346c47 -50 96 -110 129 -158l52 44c-54 67 -124 141 -181 197v324
c0 38 3 44 21 44z" />
</svg>
