<?xml version="1.0" standalone="no"?>
<!DOCTYPE svg PUBLIC "-//W3C//DTD SVG 1.1//EN" "http://www.w3.org/Graphics/SVG/1.1/DTD/svg11.dtd" >
<svg xmlns="http://www.w3.org/2000/svg" xmlns:xlink="http://www.w3.org/1999/xlink" version="1.1" viewBox="-10 0 1010 1000">
   <path fill="currentColor"
d="M765 316h-152v261h152v-261zM544 577v-261h-96v-70h96v-202h69v202h152v-203h71v203h101v70h-101v261h121v71h-530v-71h117zM406 782l4 60c-121 29 -251 59 -344 80l-17 -66c43 -8 99 -20 161 -33v-289h-149v-65h149v-108h-96v-44c-16 15 -32 30 -48 44
c-4 -17 -21 -57 -30 -75c76 -59 155 -150 202 -248l55 26c-6 13 -13 27 -21 41c61 41 123 91 162 130l-33 61c-39 -41 -102 -93 -161 -136c-32 49 -68 96 -106 136h241v65h-104v108h136v65h-136v277zM80 600l48 -13c18 58 35 135 40 183l-52 15c-3 -50 -19 -126 -36 -185z
M341 773l-44 -15c17 -49 36 -129 45 -183l54 18c-18 61 -37 134 -55 180zM556 689l75 20c-40 93 -105 188 -166 249c-16 -12 -49 -33 -68 -42c64 -56 125 -142 159 -227zM741 715l67 -29c58 74 125 174 155 237l-72 35c-26 -65 -91 -168 -150 -243z" />
</svg>
