<?xml version="1.0" standalone="no"?>
<!DOCTYPE svg PUBLIC "-//W3C//DTD SVG 1.1//EN" "http://www.w3.org/Graphics/SVG/1.1/DTD/svg11.dtd" >
<svg xmlns="http://www.w3.org/2000/svg" xmlns:xlink="http://www.w3.org/1999/xlink" version="1.1" viewBox="-10 0 1010 1000">
   <path fill="currentColor"
d="M943 185v69h-496v-69h234c-13 -32 -42 -82 -64 -119l61 -28c27 37 55 85 69 117l-61 30h257zM754 313l58 -35c50 64 117 150 150 201l-61 42c-32 -53 -96 -142 -147 -208zM569 279l71 23c-40 78 -99 168 -148 227c-13 -13 -43 -35 -60 -45c50 -54 102 -133 137 -205z
M270 810l135 -28l4 60c-121 29 -250 59 -343 80l-17 -67c43 -7 100 -19 161 -32v-289h-149v-65h149v-108h-96v-44c-16 15 -32 30 -48 44c-5 -17 -21 -57 -31 -75c76 -59 156 -150 202 -248l55 25c-6 14 -13 28 -20 42c60 41 122 91 161 130l-33 61
c-39 -41 -101 -93 -160 -136c-32 49 -68 96 -106 136h240v65h-104v108h136v65h-136v276zM80 600l47 -13c18 58 35 134 40 183l-51 15c-4 -50 -20 -127 -36 -185zM340 773l-43 -16c16 -49 35 -128 44 -182l55 18c-18 61 -38 134 -56 180zM772 460l69 17
c-23 89 -58 168 -104 237c64 79 142 141 233 179c-17 14 -39 42 -50 61c-89 -40 -164 -102 -227 -180c-62 75 -140 136 -234 183c-10 -15 -32 -42 -48 -55c98 -47 178 -109 239 -188c-45 -68 -82 -147 -110 -231l66 -18c21 67 51 131 87 188c35 -58 61 -122 79 -193z" />
</svg>
