<?xml version="1.0" standalone="no"?>
<!DOCTYPE svg PUBLIC "-//W3C//DTD SVG 1.1//EN" "http://www.w3.org/Graphics/SVG/1.1/DTD/svg11.dtd" >
<svg xmlns="http://www.w3.org/2000/svg" xmlns:xlink="http://www.w3.org/1999/xlink" version="1.1" viewBox="-10 0 1010 1000">
   <path fill="currentColor"
d="M443 236l-34 60c-40 -41 -103 -93 -165 -136c-32 49 -69 96 -107 136h245v65h-106v108h138v65h-138v273l132 -35l6 59c-121 36 -251 74 -346 101l-18 -66c44 -11 100 -25 163 -42v-290h-151v-65h151v-108h-97v-44c-17 15 -32 30 -49 44c-5 -17 -22 -57 -31 -75
c77 -58 158 -149 205 -247l58 25c-6 14 -13 27 -21 41c62 43 125 92 165 131zM348 773l-45 -16c16 -49 36 -128 45 -182l57 18c-19 61 -39 134 -57 180zM81 600l49 -13c18 58 35 134 40 183l-52 15c-4 -50 -20 -127 -37 -185zM823 321v-138h-214v138h214zM609 597v156
c65 -8 139 -17 214 -28v-128h-214zM823 531v-143h-214v143h214zM957 183h-64v532l60 -8l2 67l-62 9v175h-70v-165l-351 49l-10 -71l78 -9v-579h-66v-68h483v68z" />
</svg>
