<?xml version="1.0" standalone="no"?>
<!DOCTYPE svg PUBLIC "-//W3C//DTD SVG 1.1//EN" "http://www.w3.org/Graphics/SVG/1.1/DTD/svg11.dtd" >
<svg xmlns="http://www.w3.org/2000/svg" xmlns:xlink="http://www.w3.org/1999/xlink" version="1.1" viewBox="-10 0 1010 1000">
   <path fill="currentColor"
d="M398 781l4 60c-118 29 -246 60 -337 81l-17 -67c43 -8 100 -19 160 -33v-288h-147v-65h147v-108h-94v-45c-16 16 -32 31 -48 45c-5 -17 -22 -57 -31 -75c76 -59 154 -150 201 -248l55 25c-6 14 -13 28 -20 41c58 42 118 91 156 129v-59h220c-14 -35 -32 -78 -50 -112
l64 -21c22 41 48 97 63 133h219v68h-270c-36 57 -83 127 -120 177l264 -22c-20 -33 -43 -67 -64 -95l56 -29c52 69 114 162 142 219l-59 35c-10 -21 -23 -46 -40 -75c-344 35 -383 41 -408 52c-4 -19 -18 -56 -23 -72c16 -5 40 -12 57 -30c19 -20 74 -100 114 -160h-165v-3
l-31 57c-38 -41 -99 -93 -157 -137c-32 49 -68 97 -105 137h235v65h-98v108h129v65h-129v274zM81 600l47 -13c18 58 34 133 39 183l-51 15c-4 -50 -19 -127 -35 -185zM338 774l-43 -17c16 -49 35 -128 44 -182l54 18c-18 61 -37 134 -55 181zM537 527h68
c-8 223 -35 351 -199 427c-8 -19 -28 -46 -43 -58c148 -62 168 -171 174 -369zM806 871h67c22 0 26 -17 29 -137c14 13 42 24 61 29c-6 139 -23 175 -82 175h-85c-67 0 -83 -23 -83 -96v-314h67v314c0 25 4 29 26 29z" />
</svg>
