<?xml version="1.0" standalone="no"?>
<!DOCTYPE svg PUBLIC "-//W3C//DTD SVG 1.1//EN" "http://www.w3.org/Graphics/SVG/1.1/DTD/svg11.dtd" >
<svg xmlns="http://www.w3.org/2000/svg" xmlns:xlink="http://www.w3.org/1999/xlink" version="1.1" viewBox="-10 0 1010 1000">
   <path fill="currentColor"
d="M652 393v-144h-174v-68h174v-135h73v135h185v68h-185v144h222v68h-504v-68h209zM420 766l7 60c-126 34 -260 70 -358 96l-19 -66c46 -11 106 -25 170 -40v-282h-158v-65h158v-108h-100v-46c-18 16 -35 32 -53 46c-5 -17 -22 -57 -32 -75c80 -59 165 -150 213 -248l59 25
c-6 15 -14 29 -23 44c62 44 125 96 164 138l-37 59c-39 -42 -101 -97 -160 -144c-34 50 -72 96 -112 136h253v65h-108v108h137v65h-137v266c44 -11 90 -23 136 -34zM83 599l51 -12c18 58 36 134 41 183l-54 15c-4 -50 -21 -127 -38 -186zM359 773l-46 -15
c16 -49 37 -129 46 -183l58 18c-19 60 -39 134 -58 180zM724 854h236v70h-552v-70h243v-169h-189v-68h189v-129h73v129h199v68h-199v169z" />
</svg>
