<?xml version="1.0" standalone="no"?>
<!DOCTYPE svg PUBLIC "-//W3C//DTD SVG 1.1//EN" "http://www.w3.org/Graphics/SVG/1.1/DTD/svg11.dtd" >
<svg xmlns="http://www.w3.org/2000/svg" xmlns:xlink="http://www.w3.org/1999/xlink" version="1.1" viewBox="-10 0 1010 1000">
   <path fill="currentColor"
d="M950 174l-52 35c-20 -39 -65 -92 -108 -130l49 -29c43 35 90 87 111 124zM854 383l68 12c-30 122 -70 227 -125 317c26 118 56 177 83 177c17 0 28 -34 34 -147c14 15 36 32 53 37c-11 153 -35 178 -94 179c-52 0 -94 -60 -125 -175c-52 70 -114 127 -186 174
c-11 -13 -37 -38 -53 -50c90 -53 162 -124 219 -212c-18 -101 -32 -231 -41 -387h-175v189v10h171v67h-173c-6 126 -29 277 -102 384c-12 -13 -39 -37 -55 -45c16 -23 28 -47 39 -72c-117 29 -240 58 -331 80l-14 -68c41 -8 94 -18 151 -31v-300h-143v-65h143v-106h-94v-34
c-13 11 -25 23 -37 34c-7 -16 -25 -51 -36 -67c75 -58 151 -149 196 -246l55 25c-7 14 -14 28 -22 42c65 44 127 97 163 142l-35 58c-37 -46 -98 -101 -159 -145c-29 46 -63 90 -98 128h230v63h-102v106h130v65h-130v287c42 -10 86 -19 129 -29l6 57
c44 -110 50 -239 50 -340v-257h239c-2 -62 -5 -127 -6 -197h68c0 71 2 136 4 197h207v68h-204c6 117 16 216 26 297c33 -66 57 -140 76 -222zM77 587l47 -12c19 60 33 136 37 186l-51 14c-2 -51 -16 -129 -33 -188zM336 757l-45 -14c14 -47 30 -125 38 -177l54 14
c-15 61 -31 131 -47 177z" />
</svg>
