<?xml version="1.0" standalone="no"?>
<!DOCTYPE svg PUBLIC "-//W3C//DTD SVG 1.1//EN" "http://www.w3.org/Graphics/SVG/1.1/DTD/svg11.dtd" >
<svg xmlns="http://www.w3.org/2000/svg" xmlns:xlink="http://www.w3.org/1999/xlink" version="1.1" viewBox="-10 0 1010 1000">
   <path fill="currentColor"
d="M255 534v279c43 -10 88 -20 133 -29l4 59c-115 29 -238 58 -328 79l-16 -67c40 -8 93 -18 149 -30v-291h-134v-65h134v-108h-84v-47c-16 16 -32 32 -48 47c-5 -17 -21 -57 -30 -75c71 -60 145 -151 188 -248l55 25c-7 14 -14 28 -21 43c57 41 116 88 151 126l-32 61
c-37 -39 -94 -90 -150 -132c-29 49 -62 95 -97 135h227v65h-101v108h133v65h-133zM68 600l47 -13c17 58 34 134 39 183l-50 15c-4 -50 -20 -127 -36 -185zM325 773l-43 -16c15 -49 35 -128 45 -182l52 18c-17 60 -37 134 -54 180zM542 51l65 18c-24 66 -53 132 -85 194v692
h-68v-581c-22 30 -43 58 -66 82c-7 -15 -28 -49 -41 -64c81 -84 151 -212 195 -341zM962 535h-170v323h153v68h-364v-68h142v-323h-167v-69h167v-249c-45 13 -91 24 -135 34c-4 -18 -14 -44 -24 -61c114 -27 244 -69 313 -115l61 58c-41 23 -92 44 -146 62v271h170v69z" />
</svg>
