<?xml version="1.0" standalone="no"?>
<!DOCTYPE svg PUBLIC "-//W3C//DTD SVG 1.1//EN" "http://www.w3.org/Graphics/SVG/1.1/DTD/svg11.dtd" >
<svg xmlns="http://www.w3.org/2000/svg" xmlns:xlink="http://www.w3.org/1999/xlink" version="1.1" viewBox="-10 0 1010 1000">
   <path fill="currentColor"
d="M263 534v277c49 -11 100 -22 152 -33l3 59c-125 31 -257 63 -353 86l-16 -67c42 -8 95 -20 154 -33v-289h-143v-65h143v-108h-91v-44c-16 15 -30 30 -46 44c-5 -17 -21 -57 -30 -75c73 -59 148 -150 193 -248l54 26c-6 13 -13 28 -20 42c57 41 116 90 153 129l-32 61
c-37 -41 -96 -93 -152 -135c-31 49 -65 95 -101 135h229v65h-97v108h127v65h-127zM78 600l47 -13c17 58 33 134 38 184l-50 14c-4 -50 -19 -126 -35 -185zM329 774l-43 -16c16 -49 34 -128 43 -183l53 18c-17 61 -36 135 -53 181zM949 255h-315c-21 61 -46 118 -74 169v532
h-65v-430c-14 19 -28 37 -44 53c-8 -14 -31 -47 -45 -62c64 -67 117 -158 157 -262h-135v-67h157c16 -46 28 -95 39 -144l67 14c-10 44 -21 88 -34 130h292v67zM956 600v66h-144v211c0 36 -6 54 -31 66c-24 11 -61 12 -117 12c-3 -19 -14 -47 -23 -66c41 1 78 1 89 1
c11 -1 15 -4 15 -14v-210h-154v-66h154v-97l-1 -1c32 -23 65 -58 92 -91h-194v-64h244l12 -4l43 31c-33 52 -83 108 -129 150v76h144z" />
</svg>
