<?xml version="1.0" standalone="no"?>
<!DOCTYPE svg PUBLIC "-//W3C//DTD SVG 1.1//EN" "http://www.w3.org/Graphics/SVG/1.1/DTD/svg11.dtd" >
<svg xmlns="http://www.w3.org/2000/svg" xmlns:xlink="http://www.w3.org/1999/xlink" version="1.1" viewBox="-10 0 1010 1000">
   <path fill="currentColor"
d="M351 782l4 60c-100 29 -207 59 -283 80l-14 -66c35 -8 81 -20 132 -33v-289h-130v-65h130v-108h-78v-42c-13 15 -26 30 -39 43c-4 -18 -18 -58 -27 -76c63 -59 128 -150 167 -248l48 25c-5 14 -11 28 -18 43c51 40 102 90 133 128l-29 62c-31 -40 -82 -92 -131 -134
c-26 48 -55 94 -86 134h197v65h-82v108h105v65h-105v276zM83 600l43 -14c15 58 29 134 32 183l-45 16c-4 -50 -17 -126 -30 -185zM301 775l-38 -17c12 -49 28 -129 36 -183l49 20c-15 61 -32 134 -47 180zM753 442h88v-289h-88v289zM495 442h79v-289h-79v289zM960 442v68
h-55v366c0 32 -6 52 -25 64c-17 12 -44 15 -80 14c-3 -18 -13 -49 -23 -66h53c8 0 11 -3 11 -13v-365h-88c-1 139 -13 325 -78 449c-10 -11 -33 -29 -47 -36c61 -116 69 -281 69 -413h-68v366c0 34 -5 54 -25 65c-17 12 -45 14 -86 14c-2 -17 -9 -48 -17 -66c27 1 53 0 61 0
c9 0 12 -2 12 -13v-366h-79c-1 144 -18 329 -112 450c-10 -11 -32 -29 -45 -37c89 -114 101 -278 102 -413h-67v-68h67v-358h189v358h68v-358h208v358h55z" />
</svg>
