<?xml version="1.0" standalone="no"?>
<!DOCTYPE svg PUBLIC "-//W3C//DTD SVG 1.1//EN" "http://www.w3.org/Graphics/SVG/1.1/DTD/svg11.dtd" >
<svg xmlns="http://www.w3.org/2000/svg" xmlns:xlink="http://www.w3.org/1999/xlink" version="1.1" viewBox="-10 0 1010 1000">
   <path fill="currentColor"
d="M436 792l4 63c-133 26 -274 53 -376 71l-17 -67c47 -7 106 -17 172 -29v-306h-160v-65h160v-106h-114v-21c-6 6 -12 12 -18 17c-15 -14 -38 -32 -58 -43c82 -63 163 -169 205 -270l67 19c-5 11 -10 22 -16 33c58 49 129 116 167 158l-56 39c-30 -37 -88 -94 -141 -142
c-31 53 -67 103 -107 146h245v64h-108v106h134v65h-134v294zM79 593l52 -12c22 57 39 134 44 183l-56 15c-3 -51 -20 -127 -40 -186zM366 769l-47 -15c16 -50 37 -130 46 -185l60 18c-20 61 -40 136 -59 182zM824 881h36c10 0 22 -1 27 -5s11 -12 13 -22c2 -18 5 -61 4 -111
c14 14 41 28 61 34c-1 49 -5 101 -10 120c-7 21 -17 34 -32 43c-13 8 -36 11 -55 11h-60c-21 0 -45 -4 -60 -18c-17 -13 -21 -29 -21 -77v-330h-96c-11 198 -46 347 -207 434c-9 -18 -31 -45 -47 -59c145 -72 173 -203 183 -375h-122v-70h222v-177h-113
c-16 50 -37 96 -59 132c-14 -10 -46 -27 -63 -34c51 -75 82 -189 100 -304l70 12c-7 43 -16 85 -27 125h92v-167h72v167h192v69h-192v177h223v70h-160v333c0 7 1 14 7 17c6 4 14 5 22 5z" />
</svg>
