<?xml version="1.0" standalone="no"?>
<!DOCTYPE svg PUBLIC "-//W3C//DTD SVG 1.1//EN" "http://www.w3.org/Graphics/SVG/1.1/DTD/svg11.dtd" >
<svg xmlns="http://www.w3.org/2000/svg" xmlns:xlink="http://www.w3.org/1999/xlink" version="1.1" viewBox="-10 0 1010 1000">
   <path fill="currentColor"
d="M268 811l138 -30l4 60c-121 29 -251 60 -344 81l-17 -66c43 -8 99 -20 159 -33v-289h-147v-65h147v-108h-94v-45c-16 16 -32 31 -48 45c-5 -17 -21 -57 -31 -75c76 -58 154 -149 200 -247l55 25c-7 14 -14 29 -21 42c60 41 120 91 159 130l-34 60
c-37 -41 -99 -92 -157 -136c-31 49 -67 96 -104 136h238v65h-103v108h133v65h-133v277zM79 600l47 -13c18 58 35 134 40 184l-51 14c-4 -50 -19 -126 -36 -185zM338 773l-44 -15c16 -49 35 -129 44 -183l54 18c-17 61 -38 134 -54 180zM456 587v-63h474v63h-297
c-8 32 -18 66 -28 96h269s-1 20 -2 30c-14 134 -28 193 -52 216c-16 16 -33 22 -61 23c-23 3 -70 2 -120 -1c-1 -20 -8 -45 -19 -63c48 4 96 5 112 5c17 0 27 -1 35 -8c14 -14 25 -52 35 -139h-218v1h-70c16 -44 34 -105 50 -160h-108zM952 238h-156c43 73 108 138 175 174
c-16 13 -36 39 -47 55c-77 -47 -150 -137 -195 -229h-77c-25 55 -56 104 -94 146h269v62h-280v-49c-25 26 -54 51 -84 71c-10 -13 -35 -40 -51 -53c71 -43 126 -102 166 -177h-133v-66h161c15 -39 26 -81 34 -127l69 9c-8 43 -19 82 -31 118h274v66z" />
</svg>
