<?xml version="1.0" standalone="no"?>
<!DOCTYPE svg PUBLIC "-//W3C//DTD SVG 1.1//EN" "http://www.w3.org/Graphics/SVG/1.1/DTD/svg11.dtd" >
<svg xmlns="http://www.w3.org/2000/svg" xmlns:xlink="http://www.w3.org/1999/xlink" version="1.1" viewBox="-10 0 1010 1000">
   <path fill="currentColor"
d="M262 534v276c41 -8 84 -18 126 -28l4 60c-115 29 -238 59 -327 80l-16 -67c41 -7 94 -19 153 -32v-289h-143v-65h143v-108h-91v-44c-16 15 -30 30 -46 44c-5 -17 -21 -57 -29 -75c72 -59 147 -150 192 -248l53 26c-5 13 -12 27 -20 41c58 41 117 91 154 130l-32 61
c-37 -41 -96 -93 -152 -136c-31 49 -65 96 -101 136h229v65h-97v108h127v65h-127zM78 600l46 -13c17 58 32 134 37 183l-48 15c-4 -50 -19 -127 -35 -185zM327 773l-42 -16c16 -49 34 -128 43 -182l52 18c-18 61 -36 134 -53 180zM936 336h-125c30 162 86 335 151 420
c-16 11 -38 33 -49 49c-49 -75 -92 -202 -122 -337v488h-64v-484c-32 137 -78 265 -131 343c-11 -14 -32 -35 -47 -47v186h-62v-552c-21 41 -43 78 -69 110c-6 -15 -28 -48 -42 -63c76 -97 130 -249 160 -405l67 13c-15 68 -32 135 -54 197v509c67 -88 124 -262 156 -427
h-123v-68h145v-221h64v221h145v68z" />
</svg>
