<?xml version="1.0" standalone="no"?>
<!DOCTYPE svg PUBLIC "-//W3C//DTD SVG 1.1//EN" "http://www.w3.org/Graphics/SVG/1.1/DTD/svg11.dtd" >
<svg xmlns="http://www.w3.org/2000/svg" xmlns:xlink="http://www.w3.org/1999/xlink" version="1.1" viewBox="-10 0 1010 1000">
   <path fill="currentColor"
d="M347 441v-246h-273v-65h403c-13 -26 -30 -56 -45 -80l71 -18c20 29 44 69 58 98h366v65h-277v245h-73v-245h-157v246h-73zM692 285l56 -34c61 45 131 110 165 153l-58 40c-34 -46 -105 -115 -163 -159zM223 253l66 17c-33 69 -89 138 -142 184c-13 -12 -42 -32 -59 -42
c54 -40 105 -99 135 -159zM696 755l62 16c-18 35 -37 70 -56 100h213v56h-836v-56h219c-12 -30 -30 -68 -50 -98l60 -17c25 35 50 82 59 113l-5 2h101v-120h-281v-55h281v-71h-149v-54h378v54h-156v71h282v55h-282v120h100c22 -35 46 -83 60 -116zM512 386l58 30
c-8 7 -17 14 -25 21c123 68 274 103 423 128c-15 15 -32 38 -40 58c-151 -33 -299 -75 -430 -154c-116 73 -273 128 -421 160c-9 -17 -25 -41 -39 -57c177 -33 370 -99 474 -186z" />
</svg>
