<?xml version="1.0" standalone="no"?>
<!DOCTYPE svg PUBLIC "-//W3C//DTD SVG 1.1//EN" "http://www.w3.org/Graphics/SVG/1.1/DTD/svg11.dtd" >
<svg xmlns="http://www.w3.org/2000/svg" xmlns:xlink="http://www.w3.org/1999/xlink" version="1.1" viewBox="-10 0 1010 1000">
   <path fill="currentColor"
d="M840 233v-85h-287v85h287zM840 376v-87h-287v87h287zM913 90v344h-430v-344h430zM294 811l145 -29l5 60c-133 29 -274 59 -377 80l-17 -67c48 -8 111 -19 178 -32v-289h-165v-65h165v-108h-106v-45c-18 16 -35 31 -53 45c-6 -17 -23 -57 -34 -75
c83 -59 172 -150 222 -248l61 26c-6 13 -15 27 -23 41c68 42 135 91 177 130l-36 61c-42 -42 -111 -94 -176 -137c-35 50 -75 96 -117 137h260v65h-109v108h141v66h-141v276zM85 600l52 -12c20 57 38 133 44 183l-56 14c-4 -50 -22 -126 -40 -185zM372 774l-47 -16
c17 -49 39 -129 49 -182l59 17c-20 61 -42 134 -61 181zM961 682v67h-231v208h-73v-208h-216v-67h216v-110h-195v-66h469v66h-201v110h231z" />
</svg>
