<?xml version="1.0" standalone="no"?>
<!DOCTYPE svg PUBLIC "-//W3C//DTD SVG 1.1//EN" "http://www.w3.org/Graphics/SVG/1.1/DTD/svg11.dtd" >
<svg xmlns="http://www.w3.org/2000/svg" xmlns:xlink="http://www.w3.org/1999/xlink" version="1.1" viewBox="-10 0 1010 1000">
   <path fill="currentColor"
d="M929 169l-49 41c-24 -34 -74 -82 -118 -115l47 -37c44 32 96 79 120 111zM270 811l135 -29l4 60c-121 29 -250 59 -343 80l-17 -67c43 -7 100 -19 161 -32v-289h-149v-65h149v-108h-96v-44c-16 15 -32 30 -48 44c-5 -17 -21 -57 -31 -75c76 -59 156 -150 202 -248l56 25
c-7 14 -14 28 -21 41c61 42 122 92 162 131l-34 61c-39 -41 -101 -94 -160 -137c-32 49 -68 97 -106 137h241v65h-105v108h136v65h-136v277zM80 600l47 -13c18 58 35 134 40 183l-51 15c-4 -50 -20 -126 -36 -185zM340 773l-43 -15c16 -49 35 -129 44 -183l55 18
c-18 61 -38 134 -56 180zM897 343l64 35c-49 67 -115 144 -167 196c42 91 100 165 182 215c-12 16 -28 43 -35 64c-104 -72 -174 -173 -220 -295v314c0 40 -10 59 -35 71c-23 11 -61 14 -122 13c-3 -17 -14 -47 -25 -65c44 1 82 1 94 0c13 0 18 -4 18 -18v-206
c-62 62 -126 125 -179 175l-43 -63c54 -45 141 -122 222 -197v-289h-211v-66h211v-182h70v182h229v66h-229v27c11 69 26 134 48 194c46 -52 97 -119 128 -171zM450 376l57 -24c44 56 90 131 108 180l-61 30c-17 -50 -61 -129 -104 -186z" />
</svg>
