<?xml version="1.0" standalone="no"?>
<!DOCTYPE svg PUBLIC "-//W3C//DTD SVG 1.1//EN" "http://www.w3.org/Graphics/SVG/1.1/DTD/svg11.dtd" >
<svg xmlns="http://www.w3.org/2000/svg" xmlns:xlink="http://www.w3.org/1999/xlink" version="1.1" viewBox="-10 0 1010 1000">
   <path fill="currentColor"
d="M436 235l-33 61c-39 -41 -101 -93 -160 -136c-32 49 -68 96 -106 136h241v65h-105v108h136v65h-136v277l135 -29l4 60c-121 30 -250 59 -343 81l-16 -67c43 -8 99 -20 160 -32v-290h-149v-65h149v-108h-96v-44c-16 15 -32 30 -48 44c-4 -17 -21 -57 -30 -75
c76 -59 155 -150 201 -248l56 26c-6 13 -13 27 -21 42c61 41 122 90 161 129zM343 774l-43 -16c16 -49 36 -129 45 -183l54 18c-17 61 -37 134 -56 181zM83 600l48 -13c17 58 34 134 39 184l-51 14c-3 -50 -20 -126 -36 -185zM710 689h139v-115h-139v115zM508 689h135v-115
h-135v115zM643 398h-135v113h135v-113zM849 511v-113h-139v113h139zM919 334v542c0 39 -8 58 -35 69c-25 12 -69 13 -136 12c-3 -19 -12 -46 -20 -64c49 1 91 1 103 1c14 -1 18 -6 18 -19v-122h-139v198h-67v-198h-135v204h-69v-623h235c-53 -34 -116 -71 -169 -99l45 -47
c37 19 80 42 122 66c42 -28 86 -63 122 -97h-337v-64h400l16 -5l48 37c-51 58 -123 118 -191 164c22 15 42 28 57 40l-4 5h136z" />
</svg>
