<?xml version="1.0" standalone="no"?>
<!DOCTYPE svg PUBLIC "-//W3C//DTD SVG 1.1//EN" "http://www.w3.org/Graphics/SVG/1.1/DTD/svg11.dtd" >
<svg xmlns="http://www.w3.org/2000/svg" xmlns:xlink="http://www.w3.org/1999/xlink" version="1.1" viewBox="-10 0 1010 1000">
   <path fill="currentColor"
d="M964 88v70h-506v-70h506zM845 507v-172h-277v172h277zM917 268v306h-418v-306h418zM655 823l-66 20c-7 -58 -32 -147 -58 -215l63 -17c28 66 52 154 61 212zM450 783l5 61c-132 30 -271 59 -375 82l-15 -68c46 -8 103 -18 165 -30v-303h-157v-65h157v-107h-104v-40
c-14 12 -27 25 -41 36c-14 -14 -37 -32 -58 -43c86 -63 171 -169 216 -270l67 19c-6 12 -12 23 -18 35c61 50 134 116 173 158l-54 41c-32 -38 -94 -96 -149 -145c-33 52 -71 102 -112 145h258v64h-112v107h144v65h-144v288zM94 588l51 -13c21 60 37 137 40 188l-55 14
c-2 -52 -17 -130 -36 -189zM383 759l-49 -14c16 -49 34 -127 42 -179l59 15c-17 61 -35 132 -52 178zM822 862h144v69h-538v-69h328c23 -72 49 -179 61 -255l76 16c-21 77 -46 170 -71 239z" />
</svg>
