<?xml version="1.0" standalone="no"?>
<!DOCTYPE svg PUBLIC "-//W3C//DTD SVG 1.1//EN" "http://www.w3.org/Graphics/SVG/1.1/DTD/svg11.dtd" >
<svg xmlns="http://www.w3.org/2000/svg" xmlns:xlink="http://www.w3.org/1999/xlink" version="1.1" viewBox="-10 0 1010 1000">
   <path fill="currentColor"
d="M822 356v-204h-273v204h273zM896 85v338h-418v-338h418zM437 235l-34 61c-39 -41 -102 -93 -161 -136c-32 49 -69 96 -107 136h243v65h-105v108h137v65h-137v276l140 -29l4 60c-124 29 -255 60 -351 81l-16 -67c43 -7 100 -19 161 -32v-289h-149v-65h149v-108h-96v-45
c-17 16 -32 31 -49 45c-4 -17 -21 -57 -31 -75c77 -59 157 -150 203 -248l57 25c-7 14 -14 28 -22 43c62 41 125 90 164 129zM344 773l-45 -15c17 -49 37 -128 46 -182l55 17c-18 61 -38 134 -56 180zM80 600l48 -13c18 58 35 135 40 183l-52 15c-3 -50 -19 -126 -36 -185z
M527 835h328v-222h-328v222zM456 545h472v404h-73v-46h-328v52h-71v-410z" />
</svg>
