<?xml version="1.0" standalone="no"?>
<!DOCTYPE svg PUBLIC "-//W3C//DTD SVG 1.1//EN" "http://www.w3.org/Graphics/SVG/1.1/DTD/svg11.dtd" >
<svg xmlns="http://www.w3.org/2000/svg" xmlns:xlink="http://www.w3.org/1999/xlink" version="1.1" viewBox="-10 0 1010 1000">
   <path fill="currentColor"
d="M663 167v-14h-213v-64h489v64h-214v15c0 40 -3 85 -19 130c83 52 189 123 240 170l-31 53c-51 -47 -149 -119 -231 -172c-34 59 -94 117 -198 165c-9 -15 -29 -37 -44 -47c204 -87 221 -213 221 -300zM829 340l-49 -24c28 -36 66 -92 86 -132l61 28
c-32 45 -70 95 -98 128zM529 186l54 13c-20 53 -53 118 -93 156l-50 -29c36 -34 69 -89 89 -140zM411 780l4 61c-123 29 -255 60 -349 81l-17 -67c47 -8 105 -20 171 -34v-287h-159v-65h159v-108h-106v-44c-16 16 -31 30 -47 44c-5 -17 -21 -57 -31 -75
c75 -59 155 -150 201 -248l57 26c-7 13 -14 28 -22 42c61 42 124 91 163 131l-34 61c-39 -42 -102 -95 -161 -138c-32 49 -68 96 -105 136h249v65h-104v108h134v65h-134v275c43 -9 87 -19 131 -29zM84 600l48 -13c18 58 34 134 39 183l-50 15c-4 -50 -20 -127 -37 -185z
M350 773l-44 -16c17 -49 36 -128 45 -182l55 18c-19 61 -38 134 -56 180zM819 602h-256c30 58 73 109 126 151c54 -41 99 -91 130 -151zM866 543l41 24c-37 92 -95 165 -165 223c64 41 141 72 225 90c-14 14 -33 40 -43 57c-88 -22 -169 -58 -237 -106
c-75 49 -159 86 -247 110c-7 -17 -25 -45 -38 -58c84 -20 163 -51 233 -93c-57 -49 -103 -109 -136 -176l35 -12h-75v-57h395z" />
</svg>
