<?xml version="1.0" standalone="no"?>
<!DOCTYPE svg PUBLIC "-//W3C//DTD SVG 1.1//EN" "http://www.w3.org/Graphics/SVG/1.1/DTD/svg11.dtd" >
<svg xmlns="http://www.w3.org/2000/svg" xmlns:xlink="http://www.w3.org/1999/xlink" version="1.1" viewBox="-10 0 1010 1000">
   <path fill="currentColor"
d="M745 394v-232c-41 5 -81 9 -119 12c-3 -16 -11 -40 -18 -57c98 -10 219 -28 290 -51l34 61c-34 10 -75 18 -118 25v242h113v66h-113v250h137v65h-349v-65h143v-250h-114v-66h114zM372 783l3 59c-110 29 -227 60 -312 80l-15 -67c39 -7 90 -19 145 -32v-289h-135v-65h135
v-108h-86v-45c-15 16 -30 32 -45 46c-5 -17 -21 -58 -29 -76c69 -58 142 -149 184 -247l52 25c-6 14 -12 27 -19 40c56 42 112 92 146 131l-31 61c-35 -40 -91 -93 -144 -136c-30 49 -62 96 -96 136h219v65h-93v108h121v65h-121v277zM75 600l47 -14c16 58 31 134 36 184
l-50 16c-4 -50 -18 -127 -33 -186zM314 776l-43 -18c14 -49 33 -129 41 -183l54 20c-18 62 -36 135 -52 181zM567 392l38 6c-10 156 -34 277 -73 368c56 85 135 104 233 104c27 0 168 0 202 -1c-11 18 -22 50 -25 70h-180c-112 0 -198 -22 -262 -109c-30 52 -68 92 -113 125
c-8 -16 -26 -39 -40 -50c47 -32 86 -78 117 -139c-26 -55 -46 -127 -61 -220l52 -15c10 64 23 116 39 158c22 -66 37 -144 45 -235h-136c29 -73 66 -181 94 -276h-97v-63h182c-27 87 -63 196 -92 279h65z" />
</svg>
