<?xml version="1.0" standalone="no"?>
<!DOCTYPE svg PUBLIC "-//W3C//DTD SVG 1.1//EN" "http://www.w3.org/Graphics/SVG/1.1/DTD/svg11.dtd" >
<svg xmlns="http://www.w3.org/2000/svg" xmlns:xlink="http://www.w3.org/1999/xlink" version="1.1" viewBox="-10 0 1010 1000">
   <path fill="currentColor"
d="M513 226v114h-67v-180h201c-15 -31 -32 -68 -48 -97l67 -21c19 37 45 84 60 118h209v178h-70v-112h-352zM392 780l5 58c-116 30 -241 62 -331 84l-17 -67c43 -8 99 -21 161 -35v-286h-149v-65h149v-108h-96v-44c-16 16 -31 30 -47 44c-5 -17 -22 -57 -31 -75
c75 -59 154 -150 201 -248l56 26c-6 14 -14 29 -22 44c55 39 111 85 147 122l-27 63c-37 -39 -96 -91 -151 -133c-32 49 -68 96 -105 136h241v65h-106v108h126v65h-126v274zM80 600l48 -13c17 58 34 134 39 183l-50 15c-5 -50 -21 -127 -37 -185zM340 773l-43 -16
c16 -49 35 -128 44 -182l55 18c-19 61 -38 134 -56 180zM783 683l61 -20c42 83 84 192 100 258l-65 25c-5 -22 -12 -48 -21 -77c-225 34 -257 41 -278 51v-2c-1 1 -1 3 -1 4c-4 -15 -14 -50 -23 -69c15 -3 30 -29 48 -63c16 -34 72 -165 99 -284l70 23
c-32 104 -76 216 -122 304l185 -25c-16 -43 -34 -87 -53 -125zM633 406h319v68h-330c-35 195 -88 362 -174 481c-12 -11 -45 -32 -62 -41c83 -106 134 -262 165 -440h-119v-68h130c6 -39 12 -79 16 -121l71 7c-5 39 -10 77 -16 114z" />
</svg>
