<?xml version="1.0" standalone="no"?>
<!DOCTYPE svg PUBLIC "-//W3C//DTD SVG 1.1//EN" "http://www.w3.org/Graphics/SVG/1.1/DTD/svg11.dtd" >
<svg xmlns="http://www.w3.org/2000/svg" xmlns:xlink="http://www.w3.org/1999/xlink" version="1.1" viewBox="-10 0 1010 1000">
   <path fill="currentColor"
d="M179 514v-245c-28 28 -58 53 -87 75c-10 -11 -34 -35 -49 -46c90 -63 178 -159 232 -256l66 18c-26 45 -58 90 -92 132v322h-70zM330 451v-303h68v303h-68zM318 603h374c-67 -24 -131 -52 -192 -89c-54 33 -116 63 -182 89zM693 652h-157v63h287v52h-287v114h93
c20 -32 44 -76 57 -107l62 17c-17 32 -36 63 -52 90h222v50h-836v-50h221c-12 -29 -31 -63 -48 -91l59 -16c24 32 48 75 58 107h92v-114h-282v-52h282v-63h-151v-47c-76 29 -159 53 -238 71c-9 -19 -24 -44 -39 -59c161 -31 336 -89 446 -163c-10 -12 -23 -26 -33 -33
c71 -16 136 -39 189 -69c-39 -23 -78 -44 -116 -63l47 -37c39 18 81 41 123 64c42 -34 73 -74 94 -123h-218c-35 48 -74 91 -115 125c-11 -10 -37 -31 -53 -41c74 -56 140 -143 178 -234l67 15c-11 25 -25 51 -38 76h334v59h-81c-22 63 -60 114 -110 155
c72 40 140 82 183 115l-51 44c-43 -34 -111 -78 -184 -121c-43 27 -91 48 -143 66l16 9c-8 7 -16 14 -25 20c122 68 273 103 422 129c-15 15 -31 37 -39 58c-80 -18 -160 -38 -236 -65v49z" />
</svg>
