<?xml version="1.0" standalone="no"?>
<!DOCTYPE svg PUBLIC "-//W3C//DTD SVG 1.1//EN" "http://www.w3.org/Graphics/SVG/1.1/DTD/svg11.dtd" >
<svg xmlns="http://www.w3.org/2000/svg" xmlns:xlink="http://www.w3.org/1999/xlink" version="1.1" viewBox="-10 0 1010 1000">
   <path fill="currentColor"
d="M875 42l48 59c-125 40 -319 63 -481 76c-3 -18 -13 -44 -20 -61c158 -14 347 -39 453 -74zM814 382l-56 -25c35 -53 80 -138 104 -199l66 28c-35 67 -78 145 -114 196zM721 350l-63 21c-6 -46 -30 -119 -56 -173l58 -19c29 53 53 124 61 171zM589 358l-60 25
c-11 -45 -43 -113 -74 -164l56 -22c33 49 65 116 78 161zM268 535v270c39 -9 80 -19 120 -29l7 63c-111 30 -230 62 -320 85l-20 -71c40 -8 92 -19 147 -33v-285h-139v-66h139v-108h-86v-51c-16 14 -30 27 -46 39c-5 -16 -24 -53 -35 -70c77 -57 156 -143 201 -234l63 23
c-6 11 -13 24 -19 36c56 43 114 95 150 132l-47 53c-32 -37 -87 -88 -138 -130c-34 50 -74 97 -115 137h227v65h-89v108h124v66h-124zM81 600l52 -14c21 59 39 135 45 185l-55 15c-5 -50 -23 -127 -42 -186zM336 770l-46 -15c17 -48 39 -129 48 -183l59 18
c-20 61 -42 134 -61 180zM944 622v67h-236v182c0 38 -7 58 -34 69c-26 12 -66 12 -127 12c-3 -20 -14 -49 -24 -68c44 1 85 1 96 0c13 0 16 -3 16 -14v-181h-218v-67h218v-66c43 -27 91 -66 129 -103h-301v-64h363l15 -4l47 36c-49 55 -116 114 -180 156v45h236z" />
</svg>
