<?xml version="1.0" standalone="no"?>
<!DOCTYPE svg PUBLIC "-//W3C//DTD SVG 1.1//EN" "http://www.w3.org/Graphics/SVG/1.1/DTD/svg11.dtd" >
<svg xmlns="http://www.w3.org/2000/svg" xmlns:xlink="http://www.w3.org/1999/xlink" version="1.1" viewBox="-10 0 1010 1000">
   <path fill="currentColor"
d="M396 160v-67h278v67h-60v259h56v65h-56v384c0 39 -8 60 -29 72c-21 13 -55 16 -104 16c-2 -20 -13 -52 -22 -72c39 1 72 1 83 0c11 0 14 -4 14 -16v-340c-38 141 -97 277 -159 355c-8 -13 -20 -28 -32 -40c-107 28 -221 59 -303 79l-15 -66c38 -9 87 -20 142 -32v-290
h-131v-65h131v-108h-83v-47c-15 17 -30 33 -45 47c-5 -17 -20 -57 -29 -75c68 -58 139 -150 180 -248l51 26c-6 13 -12 27 -19 41c55 41 110 91 144 129l-30 62c-34 -40 -89 -93 -142 -136c-29 49 -61 96 -94 136h217v65h-92v108h119v65h-119v276l114 -27l2 37
c59 -75 115 -207 150 -337h-97v-1h-28c14 -71 30 -191 39 -278l56 4c-7 65 -18 146 -28 211h101v-259h-160zM74 600l46 -13c15 57 30 134 35 183l-49 15c-4 -50 -18 -126 -32 -185zM307 776l-42 -18c13 -49 31 -128 40 -182l52 19c-17 62 -34 134 -50 181zM911 85l41 32
c-27 92 -59 210 -90 304c64 96 80 175 80 245c0 59 -10 109 -34 130c-12 12 -29 18 -46 21c-18 2 -41 2 -62 1c-1 -20 -6 -50 -16 -71c22 4 41 4 55 3c11 -1 22 -4 29 -11c14 -12 19 -45 19 -80c0 -63 -17 -138 -80 -230c26 -86 54 -195 73 -274h-120v802h-56v-869h198z" />
</svg>
