<?xml version="1.0" standalone="no"?>
<!DOCTYPE svg PUBLIC "-//W3C//DTD SVG 1.1//EN" "http://www.w3.org/Graphics/SVG/1.1/DTD/svg11.dtd" >
<svg xmlns="http://www.w3.org/2000/svg" xmlns:xlink="http://www.w3.org/1999/xlink" version="1.1" viewBox="-10 0 1010 1000">
   <path fill="currentColor"
d="M822 316v-169h-296v169h296zM889 82v299h-428v-299h428zM405 783l4 59c-121 30 -250 59 -343 81l-17 -67c43 -8 99 -20 161 -32v-290h-149v-65h149v-108h-96v-44c-16 15 -32 30 -48 44c-5 -16 -21 -57 -31 -74c76 -59 155 -150 202 -249l55 26c-6 13 -13 27 -20 41
c60 41 122 91 161 130l-33 61c-39 -41 -101 -93 -160 -136c-32 49 -68 96 -106 136h240v65h-104v108h136v65h-136v277zM80 600l47 -13c18 58 35 135 40 184l-51 15c-4 -50 -20 -127 -36 -186zM340 774l-43 -16c16 -49 35 -129 44 -183l55 18c-18 61 -38 135 -56 181z
M707 855h248v65h-551v-65h234v-138h-185v-65h185v-124h-197v-65h485v65h-219v124h195v65h-195v138z" />
</svg>
