<?xml version="1.0" standalone="no"?>
<!DOCTYPE svg PUBLIC "-//W3C//DTD SVG 1.1//EN" "http://www.w3.org/Graphics/SVG/1.1/DTD/svg11.dtd" >
<svg xmlns="http://www.w3.org/2000/svg" xmlns:xlink="http://www.w3.org/1999/xlink" version="1.1" viewBox="-10 0 1010 1000">
   <path fill="currentColor"
d="M553 333v-114h-115v-67h115v-108h67v108h159v-108h68v108h109v67h-109v114h-68v-114h-159v114h-67zM291 816l160 -31l5 64c-137 29 -280 58 -384 78l-18 -67c48 -8 106 -19 171 -32v-304h-160v-65h160v-106h-109v-26c-8 8 -16 15 -24 22c-14 -14 -38 -32 -58 -43
c82 -63 162 -169 204 -270l67 19c-5 12 -11 24 -18 36c58 49 128 114 165 155l-56 39c-30 -36 -86 -92 -138 -139c-31 51 -66 101 -104 143h250v64h-113v106h144v65h-144v292zM85 587l52 -13c22 60 40 138 45 188l-55 15c-4 -52 -22 -130 -42 -190zM374 770l-48 -16
c17 -50 38 -130 47 -185l59 18c-18 61 -40 136 -58 183zM958 509h-355v338h324v63h-395v-401h-82v-68h249c-16 -33 -44 -78 -73 -112l55 -27c32 34 67 83 80 117l-38 22h235v68z" />
</svg>
