<?xml version="1.0" standalone="no"?>
<!DOCTYPE svg PUBLIC "-//W3C//DTD SVG 1.1//EN" "http://www.w3.org/Graphics/SVG/1.1/DTD/svg11.dtd" >
<svg xmlns="http://www.w3.org/2000/svg" xmlns:xlink="http://www.w3.org/1999/xlink" version="1.1" viewBox="-10 0 1010 1000">
   <path fill="currentColor"
d="M893 52v383c0 40 -9 57 -40 68c-31 10 -81 11 -156 11c-4 -19 -13 -44 -23 -63c59 2 112 2 128 1s20 -5 20 -18v-382h71zM664 91v331h-70v-331h70zM268 518v-183c-50 73 -118 141 -181 180c-11 -16 -33 -38 -48 -51c71 -37 149 -109 198 -182h-176v-59h207v-87
c-61 6 -123 10 -179 12c-3 -15 -12 -38 -19 -53c134 -7 300 -24 390 -47l45 51c-47 13 -105 22 -168 30v94h197v59h-197v2c46 25 150 86 178 104l-42 56c-29 -21 -88 -62 -136 -95v169h-69zM325 606h358c-64 -23 -126 -51 -183 -86c-53 32 -111 62 -175 86zM704 655h-168v61
h305v52h-305v114h93c19 -32 44 -76 56 -106l62 16c-18 32 -36 63 -53 90h224v49h-836v-49h221c-12 -29 -30 -63 -48 -90l60 -17c25 32 47 77 58 107h91v-114h-302v-52h302v-61h-162v-40c-74 27 -151 49 -226 66c-9 -19 -25 -43 -40 -59c178 -34 373 -99 477 -186l58 32
c-8 7 -17 14 -25 20c122 68 272 101 421 127c-14 15 -31 38 -39 58c-76 -16 -152 -36 -224 -60v42z" />
</svg>
