<?xml version="1.0" standalone="no"?>
<!DOCTYPE svg PUBLIC "-//W3C//DTD SVG 1.1//EN" "http://www.w3.org/Graphics/SVG/1.1/DTD/svg11.dtd" >
<svg xmlns="http://www.w3.org/2000/svg" xmlns:xlink="http://www.w3.org/1999/xlink" version="1.1" viewBox="-10 0 1010 1000">
   <path fill="currentColor"
d="M411 782l4 60c-122 29 -253 59 -348 80l-17 -67c44 -7 101 -19 162 -32v-289h-151v-65h151v-108h-96v-45c-17 16 -32 31 -49 45c-5 -17 -22 -57 -32 -75c78 -59 158 -150 205 -248l57 26c-6 13 -13 27 -21 41c62 41 124 91 164 130l-34 61c-40 -41 -103 -93 -162 -136
c-33 49 -70 96 -108 136h244v65h-104v108h136v65h-136v277zM80 600l49 -12c18 57 35 134 40 182l-52 15c-4 -50 -20 -126 -37 -185zM346 773l-45 -15c16 -49 36 -128 45 -182l56 17c-18 61 -38 134 -56 180zM530 310v194h302v-194h-302zM805 878h65c20 0 24 -16 26 -124
c15 12 42 23 62 28c-7 129 -25 162 -81 162h-82c-66 0 -82 -22 -82 -95v-278h-82c-16 166 -60 309 -214 388c-8 -17 -28 -43 -43 -55c138 -67 174 -192 188 -333h-100v-327h108c-14 -46 -48 -118 -83 -172l59 -26c35 53 72 124 86 169l-60 29h165c29 -56 64 -140 82 -201
l72 26c-25 57 -54 123 -82 175h94v327h-122v277c0 26 3 30 24 30z" />
</svg>
