<?xml version="1.0" standalone="no"?>
<!DOCTYPE svg PUBLIC "-//W3C//DTD SVG 1.1//EN" "http://www.w3.org/Graphics/SVG/1.1/DTD/svg11.dtd" >
<svg xmlns="http://www.w3.org/2000/svg" xmlns:xlink="http://www.w3.org/1999/xlink" version="1.1" viewBox="-10 0 1010 1000">
   <path fill="currentColor"
d="M423 788l4 61c-128 29 -263 57 -362 78l-18 -70c43 -7 99 -17 161 -29v-292h-156v-64h156v-109h-98v-52c-15 13 -30 25 -45 37c-6 -16 -23 -56 -34 -73c79 -55 162 -142 210 -235l60 26c-6 13 -14 27 -23 42c64 48 128 103 170 145l-43 52c-39 -41 -103 -98 -161 -145
c-36 51 -78 99 -121 139h265v64h-115v109h146v64h-146v281zM72 602l52 -13c20 58 38 135 44 184l-54 16c-5 -51 -24 -127 -42 -187zM343 777l-47 -16c19 -49 43 -129 54 -182l59 17c-21 61 -45 134 -66 181zM575 718l64 28c-44 74 -112 157 -174 210
c-10 -15 -28 -43 -40 -57c56 -47 119 -120 150 -181zM743 751l52 -36c53 60 123 144 156 196l-56 41c-30 -53 -99 -139 -152 -201zM565 400v208h187v-208h-187zM820 608h136v67h-523v-67h63v-463l1 1v-1c120 -25 256 -61 332 -98l59 52c-88 39 -210 72 -323 95v137h369v69
h-114v208z" />
</svg>
