<?xml version="1.0" standalone="no"?>
<!DOCTYPE svg PUBLIC "-//W3C//DTD SVG 1.1//EN" "http://www.w3.org/Graphics/SVG/1.1/DTD/svg11.dtd" >
<svg xmlns="http://www.w3.org/2000/svg" xmlns:xlink="http://www.w3.org/1999/xlink" version="1.1" viewBox="-10 0 1010 1000">
   <path fill="currentColor"
d="M588 714l53 -35c38 38 79 90 96 127l-55 38c-18 -36 -58 -91 -94 -130zM958 485h-320c-7 34 -16 67 -26 98h176v-76h70v76h87v64h-87v226c0 38 -6 56 -32 68c-23 12 -61 12 -114 12c-3 -20 -12 -47 -22 -67c39 1 73 1 84 1c11 -1 14 -4 14 -14v-226h-196
c-36 98 -84 182 -149 252c-12 -12 -40 -35 -58 -45c-113 26 -230 53 -320 72l-18 -67c44 -8 99 -19 159 -31v-303h-152v-65h152v-107h-101v-24c-14 14 -26 27 -40 39c-5 -16 -22 -53 -33 -70c74 -62 148 -156 192 -252l62 21c-6 11 -11 23 -18 35c55 34 121 83 153 120
l-43 49c-30 -33 -87 -81 -140 -116c-28 47 -61 93 -96 134h232v64h-103v106h130v66h-130v290c44 -9 90 -19 135 -29l4 39c77 -88 126 -203 159 -340h-151v-63h164c6 -26 9 -53 13 -80h-135v-61h144c3 -23 5 -48 8 -72h-177v-63h183c2 -33 5 -68 7 -103l70 5
c-2 33 -5 66 -8 98h251v63h-257c-3 24 -5 49 -8 72h241v61h-250c-4 27 -8 54 -12 80h306v63zM77 589l49 -12c20 60 37 138 41 189l-53 13c-2 -52 -18 -129 -37 -190zM349 760l-48 -14c15 -47 32 -127 40 -180l56 15c-16 60 -33 133 -48 179z" />
</svg>
