<?xml version="1.0" standalone="no"?>
<!DOCTYPE svg PUBLIC "-//W3C//DTD SVG 1.1//EN" "http://www.w3.org/Graphics/SVG/1.1/DTD/svg11.dtd" >
<svg xmlns="http://www.w3.org/2000/svg" xmlns:xlink="http://www.w3.org/1999/xlink" version="1.1" viewBox="-10 0 1010 1000">
   <path fill="currentColor"
d="M968 470l-59 32c-10 -18 -24 -40 -40 -63c-363 20 -407 24 -434 34c-4 -19 -18 -54 -24 -71c22 -4 57 -11 74 -27c18 -18 73 -96 107 -148h-178v-66h236c-13 -33 -30 -71 -44 -102l69 -19c20 38 43 85 56 121h223v66h-279c-33 50 -78 114 -112 162l257 -12
c-26 -31 -53 -61 -80 -87l56 -28c66 62 140 149 172 208zM395 784l4 59c-117 29 -242 58 -333 79l-17 -66c42 -8 97 -19 156 -32v-290h-144v-65h144v-108h-91v-45c-16 16 -31 31 -47 45c-6 -17 -22 -57 -32 -75c75 -58 152 -150 197 -248l56 26c-6 15 -13 29 -21 43
c57 40 113 89 148 127l-34 59c-35 -40 -92 -90 -146 -132c-31 49 -66 95 -102 135h227v65h-94v108h129v65h-129v278zM75 600l48 -13c17 58 34 134 39 183l-51 15c-4 -50 -20 -126 -36 -185zM336 773l-44 -15c16 -49 35 -129 45 -183l54 18c-18 61 -37 134 -55 180zM477 627
v-119h64v121c0 113 -18 237 -164 327c-11 -15 -33 -37 -50 -47c135 -80 150 -188 150 -282zM633 919v-406h64v406h-64zM878 889h23c7 0 13 -1 17 -4c4 -4 7 -12 10 -25c2 -16 3 -50 3 -94c13 9 32 19 49 25c-2 42 -5 92 -9 109c-6 18 -14 29 -25 36s-28 10 -43 10h-40
c-19 0 -38 -5 -50 -17c-14 -12 -18 -28 -18 -90v-333h65v341c0 20 0 33 5 37c2 4 7 5 13 5z" />
</svg>
