<?xml version="1.0" standalone="no"?>
<!DOCTYPE svg PUBLIC "-//W3C//DTD SVG 1.1//EN" "http://www.w3.org/Graphics/SVG/1.1/DTD/svg11.dtd" >
<svg xmlns="http://www.w3.org/2000/svg" xmlns:xlink="http://www.w3.org/1999/xlink" version="1.1" viewBox="-10 0 1010 1000">
   <path fill="currentColor"
d="M387 777l4 59c-114 31 -237 63 -325 85l-17 -66c42 -8 96 -21 156 -35v-286h-145v-65h145v-108h-94v-44c-16 15 -30 30 -46 44c-5 -17 -21 -57 -30 -75c74 -59 150 -150 196 -248l53 26c-5 13 -12 27 -20 41c59 41 119 91 157 130l-32 61c-37 -42 -99 -94 -155 -137
c-32 50 -67 96 -103 137h232v65h-99v108h130v65h-130v273c40 -10 81 -21 123 -30zM79 600l46 -13c17 58 34 134 39 183l-50 15c-4 -50 -19 -127 -35 -185zM331 770l-43 -16c16 -48 34 -126 43 -179l53 18c-17 60 -36 131 -53 177zM529 449h164v-118h-161c0 36 -1 76 -3 118z
M861 150h-329v115h329v-115zM861 853v-145h-260v145h260zM955 516h-195v127h169v311h-68v-37h-260v40h-66v-314h158v-127h-168c-12 149 -42 315 -112 441c-12 -14 -41 -36 -57 -44c97 -176 107 -422 107 -592v-238h467v248h-170v118h195v67z" />
</svg>
