<?xml version="1.0" standalone="no"?>
<!DOCTYPE svg PUBLIC "-//W3C//DTD SVG 1.1//EN" "http://www.w3.org/Graphics/SVG/1.1/DTD/svg11.dtd" >
<svg xmlns="http://www.w3.org/2000/svg" xmlns:xlink="http://www.w3.org/1999/xlink" version="1.1" viewBox="-10 0 1010 1000">
   <path fill="currentColor"
d="M484 209v102h-66v-168h238c-13 -26 -29 -56 -46 -79l56 -25c24 31 49 72 62 104h210v166h-68v-100h-386zM390 782l4 60c-116 29 -239 59 -329 80l-15 -66c41 -8 94 -20 152 -32v-290h-142v-64h142v-109h-90v-42c-16 16 -32 32 -48 46c-5 -16 -21 -56 -30 -74
c74 -60 150 -154 196 -253l54 26c-7 13 -14 28 -21 42c57 41 113 89 149 126l-32 60c-36 -40 -91 -91 -148 -132c-30 49 -64 96 -100 137h224v64h-93v109h119v64h-119v277zM79 600l47 -14c17 59 33 135 38 184l-50 15c-4 -50 -19 -126 -35 -185zM622 361l12 -2l34 8
c-26 316 -107 499 -239 591c-9 -15 -30 -38 -43 -46c73 -48 129 -123 167 -231c-21 -25 -55 -56 -86 -79l31 -47c26 16 54 38 76 59c15 -57 25 -121 33 -193h-81c-24 83 -58 159 -99 214c-10 -10 -33 -30 -47 -40c-15 62 -33 135 -49 180l-43 -17c15 -49 32 -129 40 -183
l53 18v1c60 -76 98 -191 119 -313l57 10c-5 24 -9 47 -14 70h79zM798 890h50c13 0 27 -1 33 -4c7 -3 14 -10 17 -25c3 -16 5 -52 5 -98c14 13 37 23 55 29c-1 42 -5 91 -11 109c-7 18 -18 30 -34 37c-15 6 -38 8 -59 8h-66c-20 0 -47 -4 -62 -16c-18 -12 -25 -28 -25 -100
v-489h211v303c0 31 -5 47 -25 58c-20 10 -51 11 -98 11c-2 -17 -9 -41 -17 -58c34 1 61 1 70 0c9 0 12 -3 12 -11v-245h-94v439c0 27 2 44 11 48c7 3 15 4 27 4z" />
</svg>
