<?xml version="1.0" standalone="no"?>
<!DOCTYPE svg PUBLIC "-//W3C//DTD SVG 1.1//EN" "http://www.w3.org/Graphics/SVG/1.1/DTD/svg11.dtd" >
<svg xmlns="http://www.w3.org/2000/svg" xmlns:xlink="http://www.w3.org/1999/xlink" version="1.1" viewBox="-10 0 1010 1000">
   <path fill="currentColor"
d="M270 811l132 -28l4 60c-120 29 -248 58 -340 80l-17 -67c43 -8 98 -19 159 -32v-289h-147v-65h147v-109h-94v-44c-16 15 -32 30 -48 44c-4 -17 -21 -57 -31 -75c75 -59 153 -150 200 -248l55 26c-6 13 -13 28 -20 42c59 41 121 91 159 129l-34 61
c-37 -40 -99 -93 -157 -136c-31 49 -67 96 -104 136h237v65h-101v109h133v65h-133v276zM80 601l48 -13c18 58 34 133 39 183l-51 15c-4 -50 -20 -127 -36 -185zM337 775l-44 -17c16 -49 35 -128 44 -182l56 18c-18 61 -38 134 -56 181zM553 283h223c8 -38 17 -74 24 -105
h-214c-11 37 -22 73 -33 105zM888 502l48 43c-42 42 -95 89 -139 122c47 69 104 128 165 165c-15 14 -35 40 -45 59c-84 -59 -159 -158 -215 -270v252c0 42 -8 61 -34 72c-26 12 -69 13 -136 12c-3 -20 -12 -48 -20 -68c52 2 99 2 112 1c14 0 18 -4 18 -17v-142
c-71 47 -143 92 -201 129l-32 -57c59 -32 146 -83 233 -136v-186h-225v-66h325c6 -23 12 -46 18 -71h-293c28 -78 66 -204 91 -300l62 11c-4 20 -10 40 -16 61h215l10 -4l45 11c-16 84 -44 196 -69 292h148v66h-249c17 48 38 96 65 140c41 -35 90 -83 119 -119zM446 537
l46 -32c38 40 82 93 103 130l-50 35c-20 -37 -62 -93 -99 -133z" />
</svg>
