<?xml version="1.0" standalone="no"?>
<!DOCTYPE svg PUBLIC "-//W3C//DTD SVG 1.1//EN" "http://www.w3.org/Graphics/SVG/1.1/DTD/svg11.dtd" >
<svg xmlns="http://www.w3.org/2000/svg" xmlns:xlink="http://www.w3.org/1999/xlink" version="1.1" viewBox="-10 0 1010 1000">
   <path fill="currentColor"
d="M935 167v64h-468v-64h207c-7 -35 -19 -82 -31 -120l72 -8c16 40 32 92 37 128h183zM634 406l-68 18c-5 -44 -25 -113 -47 -165l64 -15c24 50 45 118 51 162zM436 236l-34 60c-39 -42 -101 -94 -160 -137c-33 50 -69 96 -107 137h240v65h-102v108h132v65h-132v277l132 -29
l4 60c-120 30 -249 59 -342 81l-17 -67c44 -9 100 -20 162 -32v-290h-151v-65h151v-108h-98v-43c-16 15 -31 30 -47 43c-6 -17 -23 -57 -32 -75c76 -58 155 -149 203 -247l56 25c-6 14 -13 28 -20 41c60 41 123 92 162 131zM343 774l-44 -16c16 -49 35 -129 44 -183l56 18
c-19 61 -38 135 -56 181zM81 600l49 -13c17 58 34 135 39 184l-52 14c-4 -50 -20 -126 -36 -185zM831 660h-266v193h266v-193zM494 965v-371h410v368h-73v-44h-266v47h-71zM812 438h145v65h-512v-65h296c27 -55 58 -137 74 -196l74 19c-23 58 -51 126 -77 177z" />
</svg>
