<?xml version="1.0" standalone="no"?>
<!DOCTYPE svg PUBLIC "-//W3C//DTD SVG 1.1//EN" "http://www.w3.org/Graphics/SVG/1.1/DTD/svg11.dtd" >
<svg xmlns="http://www.w3.org/2000/svg" xmlns:xlink="http://www.w3.org/1999/xlink" version="1.1" viewBox="-10 0 1010 1000">
   <path fill="currentColor"
d="M404 783l4 59c-120 30 -249 59 -342 81l-17 -67c44 -9 99 -20 161 -32v-290h-149v-65h149v-108h-96v-44c-16 16 -31 30 -47 44c-5 -17 -22 -57 -31 -75c75 -59 154 -150 201 -248l56 25c-6 14 -13 29 -21 43c60 41 122 90 160 129l-33 61c-39 -41 -101 -93 -159 -137
c-32 50 -68 97 -105 137h240v65h-105v108h134v66h-134v276zM80 600l48 -13c17 58 34 134 39 184l-50 14c-5 -50 -21 -126 -37 -185zM340 774l-43 -16c16 -49 35 -129 44 -183l55 18c-19 61 -38 134 -56 181zM956 583h-184v243c0 24 4 28 24 28h62c20 0 24 -17 27 -134
c15 13 44 23 63 28c-6 138 -24 172 -82 172h-80c-68 0 -84 -22 -84 -95v-242h-35c-34 126 -101 254 -231 355c-10 -16 -35 -46 -50 -55c115 -88 175 -194 208 -300h-169v-70h185c6 -34 11 -68 13 -100h-152v-64h155v-24v-74h-189v-69h119c-16 -33 -38 -73 -58 -105l62 -20
c27 37 57 88 73 125h92c26 -39 54 -91 70 -128l75 25c-21 34 -44 72 -65 103h131v69h-238v76v22h202v64h-205c-3 32 -7 66 -13 100h274v70z" />
</svg>
