<?xml version="1.0" standalone="no"?>
<!DOCTYPE svg PUBLIC "-//W3C//DTD SVG 1.1//EN" "http://www.w3.org/Graphics/SVG/1.1/DTD/svg11.dtd" >
<svg xmlns="http://www.w3.org/2000/svg" xmlns:xlink="http://www.w3.org/1999/xlink" version="1.1" viewBox="-10 0 1010 1000">
   <path fill="currentColor"
d="M272 811l140 -30l4 60c-123 29 -254 60 -349 81l-16 -67c43 -7 100 -19 161 -32v-289h-150v-65h150v-108h-96v-45c-17 16 -32 31 -49 45c-4 -17 -21 -57 -30 -75c76 -59 156 -150 202 -248l56 26c-7 13 -14 27 -22 41c62 41 123 91 163 130l-34 61
c-39 -42 -101 -94 -160 -137c-33 50 -69 96 -107 137h242v65h-105v108h136v65h-136v277zM82 600l47 -13c18 58 35 135 40 184l-51 14c-4 -50 -20 -126 -36 -185zM341 774l-43 -16c16 -49 36 -129 45 -183l54 18c-18 61 -37 135 -56 181zM660 491v-141
c-53 64 -126 123 -195 157c-10 -17 -28 -41 -42 -54c72 -29 151 -89 201 -152h-174v-61h210v-84c-60 8 -121 14 -177 18c-2 -15 -12 -39 -19 -54c137 -12 303 -35 391 -65l53 51c-49 16 -110 29 -176 40v94h212v61h-170c52 59 128 118 189 149c-14 11 -35 33 -46 49
c-60 -36 -132 -100 -185 -164v156h-72zM789 657h-153c-15 29 -31 58 -46 82c41 14 82 31 122 48c36 -34 60 -77 77 -130zM637 498l67 12c-10 27 -23 57 -37 86h285v61h-93c-17 65 -44 117 -83 160c60 28 114 58 152 84l-46 52c-38 -28 -95 -60 -158 -91
c-62 44 -144 75 -254 96c-7 -18 -20 -43 -32 -57c94 -14 165 -37 220 -71c-54 -24 -110 -47 -161 -64l3 -3c21 -31 43 -67 64 -106h-118v-61h149c17 -33 32 -68 42 -98z" />
</svg>
