<?xml version="1.0" standalone="no"?>
<!DOCTYPE svg PUBLIC "-//W3C//DTD SVG 1.1//EN" "http://www.w3.org/Graphics/SVG/1.1/DTD/svg11.dtd" >
<svg xmlns="http://www.w3.org/2000/svg" xmlns:xlink="http://www.w3.org/1999/xlink" version="1.1" viewBox="-10 0 1010 1000">
   <path fill="currentColor"
d="M748 239h-106c-29 58 -67 114 -117 164h129v-107h61v107h145c-45 -45 -85 -104 -112 -164zM516 463v-51c-18 17 -36 32 -56 47c-10 -16 -31 -38 -46 -47c67 -49 117 -109 154 -173h-125v-64h156c20 -45 34 -90 41 -132l68 8c-9 41 -21 83 -37 124h280v64h-139
c37 67 94 129 154 161c-15 12 -35 34 -45 51c-19 -11 -36 -25 -54 -42v54h-152v121h-61v-121h-138zM267 810l130 -28l4 60c-118 29 -244 59 -335 80l-16 -67c42 -7 97 -19 156 -32v-289h-145v-65h145v-108h-92v-45c-16 16 -31 31 -47 45c-5 -17 -21 -57 -31 -75
c75 -59 152 -150 197 -248l55 26c-6 13 -13 27 -21 41c60 41 120 91 158 130l-34 61c-37 -41 -97 -93 -155 -136c-31 49 -67 96 -103 136h235v65h-101v108h130v65h-130v276zM80 600l47 -13c17 58 33 135 38 184l-49 14c-4 -50 -19 -126 -36 -185zM335 774l-43 -16
c16 -49 34 -129 44 -183l53 18c-18 61 -37 134 -54 181zM843 524v111h114v66h-114v256h-65v-256h-188c-6 91 -32 185 -129 259c-10 -14 -33 -37 -49 -46c83 -62 107 -139 114 -213h-106v-66h108v-110h64v110h186v-111h65z" />
</svg>
