<?xml version="1.0" standalone="no"?>
<!DOCTYPE svg PUBLIC "-//W3C//DTD SVG 1.1//EN" "http://www.w3.org/Graphics/SVG/1.1/DTD/svg11.dtd" >
<svg xmlns="http://www.w3.org/2000/svg" xmlns:xlink="http://www.w3.org/1999/xlink" version="1.1" viewBox="-10 0 1010 1000">
   <path fill="currentColor"
d="M858 108l69 26c-33 55 -73 116 -105 155l-54 -23c31 -44 70 -111 90 -158zM933 448l-44 56c-43 -46 -125 -114 -199 -169c-34 86 -98 140 -220 176c-7 -18 -24 -46 -38 -60c203 -56 221 -156 225 -407h69c-2 89 -6 163 -18 224c82 56 176 130 225 180zM833 731l-55 -24
c29 -46 68 -121 88 -173l70 26c-32 60 -72 128 -103 171zM493 742l-61 -32c33 -40 61 -109 77 -170l62 13c-16 64 -43 141 -78 189zM529 109l59 14c-13 57 -39 130 -71 174l-59 -26c30 -39 57 -104 71 -162zM424 783l5 60c-128 28 -264 58 -361 79l-18 -67
c46 -7 104 -18 169 -31v-290h-156v-65h156v-108h-99v-44c-17 15 -34 30 -51 44c-6 -17 -22 -57 -33 -75c82 -59 167 -150 217 -248l59 26c-6 13 -14 27 -22 41c63 40 127 88 166 125l-34 61c-40 -40 -105 -91 -167 -132c-34 49 -73 96 -114 137h249v65h-107v108h136v65h-136
v277c46 -8 94 -18 141 -28zM85 600l50 -13c19 58 36 134 42 183l-53 15c-5 -50 -22 -127 -39 -185zM358 773l-45 -16c17 -49 39 -128 48 -182l57 18c-18 61 -41 134 -60 180zM651 456h70c-1 50 -4 97 -8 138c34 146 114 261 255 298c-16 15 -35 45 -44 65
c-115 -37 -188 -120 -235 -234c-33 116 -106 189 -261 236c-7 -19 -27 -50 -42 -65c236 -64 258 -186 265 -438z" />
</svg>
