<?xml version="1.0" standalone="no"?>
<!DOCTYPE svg PUBLIC "-//W3C//DTD SVG 1.1//EN" "http://www.w3.org/Graphics/SVG/1.1/DTD/svg11.dtd" >
<svg xmlns="http://www.w3.org/2000/svg" xmlns:xlink="http://www.w3.org/1999/xlink" version="1.1" viewBox="-10 0 1010 1000">
   <path fill="currentColor"
d="M427 231l-34 58c-37 -39 -98 -89 -155 -130c-33 50 -71 97 -110 137h247v65h-104v108h137v65h-137v277l141 -30l5 63c-124 29 -253 59 -352 81l-16 -71c44 -7 99 -18 160 -30v-290h-150v-65h150v-108h-95v-51c-16 16 -32 30 -48 43c-5 -15 -22 -51 -32 -67
c77 -60 155 -152 201 -247l59 21c-7 15 -15 31 -24 46c61 40 120 88 157 125zM342 773l-45 -13c17 -49 37 -130 46 -185l56 15c-19 62 -38 136 -57 183zM77 600l48 -12c19 59 35 135 39 185l-51 12c-3 -50 -18 -126 -36 -185zM811 366h-252v128h252v-128zM840 700h-281v146
h281v-146zM950 321h-68v-111h-382v95h378v250h-319v82h352v316h-71v-43h-281v46h-67v-635h-58v-173h221c-10 -26 -26 -59 -43 -84l63 -22c24 32 46 75 56 103l-8 3h227v173z" />
</svg>
