<?xml version="1.0" standalone="no"?>
<!DOCTYPE svg PUBLIC "-//W3C//DTD SVG 1.1//EN" "http://www.w3.org/Graphics/SVG/1.1/DTD/svg11.dtd" >
<svg xmlns="http://www.w3.org/2000/svg" xmlns:xlink="http://www.w3.org/1999/xlink" version="1.1" viewBox="-10 0 1010 1000">
   <path fill="currentColor"
d="M273 811l139 -30l4 60c-123 29 -254 60 -348 81l-16 -67c43 -7 100 -19 161 -32v-289h-150v-65h150v-108h-96v-49c-17 16 -32 31 -49 45c-6 -16 -23 -54 -33 -71c78 -60 157 -150 205 -248l53 25c-6 13 -13 27 -21 41c62 42 124 92 163 131l-33 61
c-39 -42 -102 -94 -161 -137c-33 50 -70 97 -108 137h244v65h-104v108h138v65h-138v277zM83 600l47 -13c18 58 34 135 39 184l-50 15c-5 -50 -20 -127 -36 -186zM342 774l-43 -16c17 -49 36 -129 45 -183l54 18c-18 61 -38 135 -56 181zM542 713h288v-84h-288v84zM830 489
h-288v82h288v-82zM899 427v441c0 40 -8 59 -34 70c-28 11 -72 12 -139 12c-3 -19 -13 -47 -23 -66c51 1 96 1 109 1c14 -1 18 -4 18 -17v-95h-288v183h-69v-529h426zM737 293h218v64h-536v-64h85v-189h64v189h100v-250h69v95h177v61h-177v94z" />
</svg>
