<?xml version="1.0" standalone="no"?>
<!DOCTYPE svg PUBLIC "-//W3C//DTD SVG 1.1//EN" "http://www.w3.org/Graphics/SVG/1.1/DTD/svg11.dtd" >
<svg xmlns="http://www.w3.org/2000/svg" xmlns:xlink="http://www.w3.org/1999/xlink" version="1.1" viewBox="-10 0 1010 1000">
   <path fill="currentColor"
d="M389 782l4 60c-115 29 -236 59 -325 80l-16 -66c41 -8 93 -20 151 -33v-289h-141v-65h141v-108h-90v-44c-15 15 -30 30 -45 44c-5 -17 -21 -57 -30 -75c72 -58 147 -149 191 -247l53 25c-5 14 -12 29 -20 42c58 42 116 92 153 130l-33 60c-36 -41 -94 -93 -150 -136
c-30 49 -64 96 -100 136h226v65h-94v108h125v65h-125v277zM81 600l45 -13c17 58 32 135 37 184l-48 14c-4 -49 -19 -126 -34 -185zM327 774l-42 -16c15 -49 33 -128 42 -183l53 18c-18 61 -36 135 -53 181zM515 305v269c0 121 -13 280 -92 383c-11 -12 -41 -31 -57 -39
c74 -96 81 -234 81 -344v-327h195v-203h73v80h212v58h-212v65h182l12 -3l50 12c-7 50 -19 109 -31 146l-53 -12l5 38l-168 16v50c0 21 5 25 34 25h101c21 0 26 -7 28 -54c14 9 40 18 59 21c-7 68 -26 86 -79 86h-117c-76 0 -95 -16 -95 -78v-44l-106 10l-7 -51l113 -10v-91
h69v85l157 -15c4 -20 8 -47 12 -73h-366zM847 879h21c8 0 15 -1 18 -4c4 -4 8 -12 10 -22c1 -16 3 -55 3 -99c13 12 37 24 56 30c-1 46 -4 95 -9 112s-15 29 -27 38c-11 6 -29 10 -44 10h-44c-20 0 -40 -4 -54 -16c-13 -14 -16 -27 -16 -71v-183h-92
c-6 162 -33 238 -153 286c-6 -14 -25 -39 -38 -49c114 -45 126 -114 127 -295h222v243c0 6 1 12 5 15c3 3 9 5 15 5z" />
</svg>
