<?xml version="1.0" standalone="no"?>
<!DOCTYPE svg PUBLIC "-//W3C//DTD SVG 1.1//EN" "http://www.w3.org/Graphics/SVG/1.1/DTD/svg11.dtd" >
<svg xmlns="http://www.w3.org/2000/svg" xmlns:xlink="http://www.w3.org/1999/xlink" version="1.1" viewBox="-10 0 1010 1000">
   <path fill="currentColor"
d="M880 265h-130c-22 83 -49 158 -83 217c-10 -12 -34 -35 -48 -46c57 -93 93 -237 112 -385l60 12c-7 48 -15 95 -25 140h133l10 -3l40 17c-20 98 -52 208 -89 280l-42 -32c24 -50 47 -129 62 -200zM338 787l3 53c-97 30 -199 61 -274 83l-14 -68c36 -7 83 -18 136 -31
v-290h-126v-65h126v-108h-70v-58c-18 22 -35 41 -53 58c-5 -16 -19 -57 -28 -74c66 -59 133 -150 173 -249l48 26c-5 14 -11 27 -18 41c53 41 106 91 139 129l-28 62c-34 -41 -87 -93 -138 -136c-27 49 -58 96 -91 136h201v65h-80v108h102v65h-102v276zM79 600l44 -14
c15 58 29 134 33 183l-47 16c-3 -50 -17 -127 -30 -185zM302 775l-40 -18c13 -49 30 -128 38 -182l51 20c-17 61 -34 134 -49 180zM634 377h-62v566h-58v-566h-60v24c0 153 -10 387 -78 545c-9 -12 -35 -35 -48 -42c62 -150 68 -358 68 -503v-262c73 -18 159 -44 209 -73
l45 59c-55 26 -128 48 -196 64v127h180v61zM802 484c27 200 68 310 160 407c-16 12 -33 34 -41 52c-72 -78 -114 -164 -143 -288c-22 98 -64 200 -141 289c-9 -15 -30 -38 -44 -49c143 -159 154 -363 154 -499v-55h57v56c0 27 0 55 -2 87z" />
</svg>
