<?xml version="1.0" standalone="no"?>
<!DOCTYPE svg PUBLIC "-//W3C//DTD SVG 1.1//EN" "http://www.w3.org/Graphics/SVG/1.1/DTD/svg11.dtd" >
<svg xmlns="http://www.w3.org/2000/svg" xmlns:xlink="http://www.w3.org/1999/xlink" version="1.1" viewBox="-10 0 1010 1000">
   <path fill="currentColor"
d="M273 810l139 -29l4 60c-124 29 -255 60 -350 81l-16 -67c44 -7 101 -19 162 -32v-289h-150v-65h150v-108h-96v-45c-17 16 -32 31 -49 45c-5 -17 -22 -57 -31 -75c77 -59 157 -150 203 -248l57 26c-6 13 -13 27 -21 41c61 41 123 91 163 130l-34 61
c-39 -41 -102 -93 -162 -136c-32 49 -69 96 -107 136h243v65h-105v108h137v65h-137v276zM81 600l48 -13c18 58 35 134 40 183l-52 15c-4 -50 -20 -126 -36 -185zM343 773l-44 -16c17 -49 36 -128 45 -182l55 18c-18 61 -37 134 -56 180zM670 33l65 14c-5 12 -11 24 -16 35
c62 95 172 200 257 253c-15 14 -34 40 -43 57c-78 -56 -176 -156 -244 -253c-42 74 -96 145 -165 208h337v67h-140v114h198v67h-198v267h226v68h-501v-68h214v-267h-189v-67h189v-114h-139v-65c-18 17 -37 31 -57 46c-9 -16 -27 -42 -39 -53c123 -85 206 -207 245 -309z
M812 839l-46 -22c27 -51 62 -134 79 -193l59 24c-28 64 -62 142 -92 191zM497 652l52 -21c24 59 53 137 66 182l-54 26c-13 -47 -40 -128 -64 -187z" />
</svg>
