<?xml version="1.0" standalone="no"?>
<!DOCTYPE svg PUBLIC "-//W3C//DTD SVG 1.1//EN" "http://www.w3.org/Graphics/SVG/1.1/DTD/svg11.dtd" >
<svg xmlns="http://www.w3.org/2000/svg" xmlns:xlink="http://www.w3.org/1999/xlink" version="1.1" viewBox="-10 0 1010 1000">
   <path fill="currentColor"
d="M568 188l-41 47c-26 -34 -81 -80 -128 -110l39 -42c47 28 103 72 130 105zM369 379l35 -43c46 29 99 74 123 106l-37 51c-24 -34 -77 -82 -121 -114zM361 784l4 60c-103 28 -211 57 -291 78l-13 -67c35 -7 81 -18 132 -31v-290h-123v-65h123v-108h-76v-62
c-18 20 -37 38 -54 54c-4 -18 -18 -57 -27 -76c70 -55 144 -144 186 -239l49 27c-6 12 -12 25 -18 38c54 42 109 95 142 134l-39 55c-32 -40 -83 -92 -134 -135c-31 51 -66 98 -103 139h221v65h-91v108h119v65h-119v277c36 -9 75 -17 112 -27zM87 601l44 -14
c15 58 28 134 33 183l-46 16c-3 -50 -17 -127 -31 -185zM315 776l-39 -18c13 -49 30 -128 38 -182l49 20c-15 61 -32 134 -48 180zM494 596l49 37c-37 100 -89 218 -131 306l-56 -39c40 -74 97 -198 138 -304zM952 917l-60 23c-3 -23 -10 -49 -19 -79
c-255 34 -289 41 -309 52v1c-4 -15 -15 -49 -23 -66c15 -4 30 -29 46 -64c16 -31 63 -144 90 -256h-145v-67h168v-179h-135v-67h135v-178h66v178h148v67h-148v179h172v67h-187c-30 105 -74 216 -119 302l221 -27c-18 -54 -42 -110 -66 -158l54 -19c49 93 97 216 111 291z
" />
</svg>
