<?xml version="1.0" standalone="no"?>
<!DOCTYPE svg PUBLIC "-//W3C//DTD SVG 1.1//EN" "http://www.w3.org/Graphics/SVG/1.1/DTD/svg11.dtd" >
<svg xmlns="http://www.w3.org/2000/svg" xmlns:xlink="http://www.w3.org/1999/xlink" version="1.1" viewBox="-10 0 1010 1000">
   <path fill="currentColor"
d="M819 368h-149v94h149v-94zM522 368v73c0 148 -9 363 -77 508c-13 -11 -41 -28 -59 -34c10 -20 18 -41 25 -63c-118 25 -241 52 -334 71l-17 -67c46 -8 102 -18 163 -31v-300h-146v-65h146v-107h-95v-38c-13 12 -24 23 -37 34c-14 -14 -37 -32 -58 -43
c82 -63 163 -169 205 -270l67 19c-5 11 -11 24 -18 36c58 49 128 114 165 155l-56 39c-30 -36 -86 -92 -139 -139c-30 51 -66 101 -104 143h250v64h-115v107h129v65h-129v288l127 -26l3 41c35 -125 38 -274 38 -387v-311h233c-5 -28 -14 -60 -25 -86l64 -16
c14 32 26 71 33 102h202v64h-441v112h86v-82h62v82h149v-82h64v82h76v62h-76v150h-275v-150h-86zM97 589l49 -12c20 60 37 138 41 188l-53 14c-2 -52 -18 -129 -37 -190zM368 760l-48 -14c14 -47 32 -127 40 -180l56 15c-16 60 -33 133 -48 179zM893 577l45 19
c-34 92 -90 167 -160 224c57 36 121 63 188 81c-15 12 -35 39 -45 57c-70 -22 -138 -55 -197 -96c-64 41 -135 71 -207 93c-8 -19 -26 -46 -39 -61c66 -16 130 -42 188 -78c-51 -45 -93 -96 -124 -152l58 -21c29 51 70 97 120 136c49 -38 91 -84 121 -137h-306v-62h344z" />
</svg>
