<?xml version="1.0" standalone="no"?>
<!DOCTYPE svg PUBLIC "-//W3C//DTD SVG 1.1//EN" "http://www.w3.org/Graphics/SVG/1.1/DTD/svg11.dtd" >
<svg xmlns="http://www.w3.org/2000/svg" xmlns:xlink="http://www.w3.org/1999/xlink" version="1.1" viewBox="-10 0 1010 1000">
   <path fill="currentColor"
d="M679 455v-135c-53 77 -139 155 -211 196c-10 -15 -30 -37 -43 -49c66 -29 141 -87 193 -148h-167v-59h225c-39 -24 -84 -46 -123 -63l42 -38c29 11 61 26 91 43c31 -18 64 -41 91 -65h-298v-58h361l15 -3l44 32c-43 45 -103 90 -160 122c17 11 32 21 45 30h108l12 -3
l50 16c-32 61 -68 129 -98 172l-59 -19c19 -28 41 -68 61 -107h-113v138c0 32 -7 47 -32 56c-24 9 -62 9 -122 9c-3 -17 -12 -38 -20 -55c43 2 82 2 93 1s15 -3 15 -13zM402 783l5 59c-120 30 -249 59 -341 81l-17 -67c43 -9 100 -19 161 -32v-290h-149v-65h149v-108h-96
v-45c-16 16 -32 31 -48 45c-5 -17 -21 -57 -31 -75c76 -59 156 -150 201 -248l57 25c-7 14 -14 29 -22 43c61 41 121 90 161 129l-34 61c-38 -41 -100 -93 -158 -136c-33 49 -69 96 -106 136h240v65h-104v108h134v65h-134v277zM80 600l48 -13c17 58 34 135 39 184l-50 15
c-5 -50 -21 -127 -37 -186zM340 774l-44 -16c16 -49 36 -128 45 -183l54 18c-18 61 -38 135 -55 181zM934 669h-183c52 74 134 149 204 187c-16 13 -37 37 -48 54c-66 -42 -139 -118 -193 -198v244h-69v-244c-53 82 -127 159 -199 202c-11 -16 -30 -38 -45 -51
c76 -39 155 -115 205 -194h-169v-63h208v-66h69v66h220v63z" />
</svg>
