<?xml version="1.0" standalone="no"?>
<!DOCTYPE svg PUBLIC "-//W3C//DTD SVG 1.1//EN" "http://www.w3.org/Graphics/SVG/1.1/DTD/svg11.dtd" >
<svg xmlns="http://www.w3.org/2000/svg" xmlns:xlink="http://www.w3.org/1999/xlink" version="1.1" viewBox="-10 0 1010 1000">
   <path fill="currentColor"
d="M881 281v-136h-111v136h111zM939 87v252h-224v-252h224zM480 466v-62h427v62h-427zM601 281v-136h-105v136h105zM659 87v252h-219v-252h219zM413 230l-35 60c-33 -38 -88 -88 -140 -129c-31 49 -67 95 -105 135h234v65h-103v108h134v65h-134v278c44 -9 90 -19 135 -29
l4 60c-120 28 -245 58 -337 79l-17 -67c42 -7 96 -18 155 -30v-291h-143v-65h143v-108h-90v-44c-16 15 -33 30 -48 44c-5 -17 -21 -57 -32 -75c77 -59 156 -150 202 -248l56 25c-6 15 -13 30 -21 44c54 40 108 86 142 123zM335 773l-43 -15c16 -49 36 -129 45 -182l54 17
c-18 61 -38 134 -56 180zM80 600l47 -13c18 58 35 134 40 183l-51 15c-4 -50 -20 -126 -36 -185zM955 608h-337c-6 25 -13 51 -20 74h293s-1 20 -2 30c-13 132 -24 189 -48 211c-15 17 -34 23 -61 24c-25 2 -76 2 -127 -1c-2 -20 -9 -46 -19 -63c50 5 100 6 117 6
s27 -2 34 -9c13 -13 23 -50 32 -136h-311c14 -38 28 -89 40 -136h-114v-63h523v63z" />
</svg>
