<?xml version="1.0" standalone="no"?>
<!DOCTYPE svg PUBLIC "-//W3C//DTD SVG 1.1//EN" "http://www.w3.org/Graphics/SVG/1.1/DTD/svg11.dtd" >
<svg xmlns="http://www.w3.org/2000/svg" xmlns:xlink="http://www.w3.org/1999/xlink" version="1.1" viewBox="-10 0 1010 1000">
   <path fill="currentColor"
d="M273 811l139 -30l5 60c-125 29 -256 60 -351 81l-16 -67c43 -7 100 -19 161 -32v-289h-150v-65h150v-108h-96v-49c-18 16 -34 33 -52 47c-5 -16 -21 -55 -30 -73c77 -59 158 -150 206 -248l54 25c-6 13 -13 27 -20 40c64 43 128 95 169 135l-39 58
c-39 -41 -103 -94 -163 -138c-33 50 -70 97 -109 138h246v65h-104v108h132v65h-132v277zM80 600l48 -12c18 58 35 134 40 183l-52 15c-3 -50 -19 -127 -36 -186zM343 774l-44 -16c17 -49 36 -128 45 -182l55 18c-18 60 -38 134 -56 180zM571 482v83h198v-83h-198zM769 210
h-198v76h198v-76zM571 345v79h198v-79h-198zM956 565v64h-435v220h414v64h-482v-284h-52v-64h99v-355h-75v-63h75v-103h71v103h198v-103h71v103h91v63h-91v355h116zM891 806l-57 33c-20 -47 -65 -122 -107 -178l54 -27c42 54 90 126 110 172zM603 845l-49 -31
c34 -48 79 -124 103 -179l56 32c-32 62 -75 131 -110 178z" />
</svg>
