<?xml version="1.0" standalone="no"?>
<!DOCTYPE svg PUBLIC "-//W3C//DTD SVG 1.1//EN" "http://www.w3.org/Graphics/SVG/1.1/DTD/svg11.dtd" >
<svg xmlns="http://www.w3.org/2000/svg" xmlns:xlink="http://www.w3.org/1999/xlink" version="1.1" viewBox="-10 0 1010 1000">
   <path fill="currentColor"
d="M831 424v-87h-301v87h301zM831 568v-89h-301v89h301zM831 711v-88h-301v88h301zM902 273v503h-441v-503h168v-230h72v86h238v63h-238v81h201zM424 790l4 60c-128 28 -264 56 -364 78l-17 -68c46 -8 105 -18 170 -30v-306h-146v-65h146v-106h-108v-39
c-15 13 -28 25 -43 36c-6 -17 -25 -54 -36 -71c82 -57 167 -146 217 -241l59 26c-6 13 -14 28 -23 42c67 37 132 83 171 121l-37 61c-39 -41 -105 -89 -169 -128c-34 47 -72 91 -112 129h259v64h-112v106h141v65h-141v293zM79 594l52 -13c21 58 38 134 43 183l-55 16
c-3 -51 -20 -128 -40 -186zM363 770l-47 -16c17 -50 37 -130 46 -185l60 18c-20 61 -40 136 -59 183zM567 780l62 45c-65 49 -157 100 -229 133c-8 -16 -27 -38 -40 -54c69 -31 160 -83 207 -124zM727 828l36 -49c71 39 149 89 197 126l-42 54c-46 -38 -124 -91 -191 -131z
" />
</svg>
