<?xml version="1.0" standalone="no"?>
<!DOCTYPE svg PUBLIC "-//W3C//DTD SVG 1.1//EN" "http://www.w3.org/Graphics/SVG/1.1/DTD/svg11.dtd" >
<svg xmlns="http://www.w3.org/2000/svg" xmlns:xlink="http://www.w3.org/1999/xlink" version="1.1" viewBox="-10 0 1010 1000">
   <path fill="currentColor"
d="M832 228v-86h-286v86h286zM832 369v-86h-286v86h286zM904 83v346h-427v-346h427zM272 811l136 -29l4 60c-122 29 -252 59 -346 80l-16 -67c43 -7 100 -19 161 -32v-289h-150v-65h150v-108h-96v-45c-17 16 -32 31 -49 45c-4 -17 -21 -57 -31 -75c77 -59 157 -150 203 -248
l56 26c-6 13 -13 27 -21 41c62 42 123 91 162 130l-33 61c-39 -41 -102 -93 -161 -136c-32 49 -68 96 -106 136h241v65h-104v108h136v65h-136v277zM80 600l48 -13c18 58 35 135 40 184l-51 14c-4 -50 -20 -126 -37 -185zM342 774l-44 -16c17 -49 36 -129 45 -183l55 18
c-18 61 -38 134 -56 181zM728 869h228v62h-517v-62h219v-114h-167v-60h167v-97h-136c-19 33 -40 63 -63 87c-13 -10 -41 -26 -58 -34c53 -52 94 -129 118 -207l66 12c-8 27 -19 55 -32 81h105v-89h70v89h200v61h-200v97h181v60h-181v114z" />
</svg>
