<?xml version="1.0" standalone="no"?>
<!DOCTYPE svg PUBLIC "-//W3C//DTD SVG 1.1//EN" "http://www.w3.org/Graphics/SVG/1.1/DTD/svg11.dtd" >
<svg xmlns="http://www.w3.org/2000/svg" xmlns:xlink="http://www.w3.org/1999/xlink" version="1.1" viewBox="-10 0 1010 1000">
   <path fill="currentColor"
d="M439 235l-34 61c-39 -41 -102 -93 -162 -136c-32 49 -69 96 -107 136h244v65h-105v108h136v65h-136v276l136 -28l4 60c-123 29 -254 59 -349 80l-17 -67c44 -7 101 -19 163 -32v-289h-151v-65h151v-108h-96v-45c-17 16 -32 31 -49 45c-5 -17 -22 -57 -32 -75
c78 -58 158 -150 205 -248l57 26c-6 13 -13 28 -21 42c62 41 124 90 163 129zM346 773l-46 -16c17 -49 37 -128 47 -182l55 18c-18 61 -39 134 -56 180zM80 600l49 -12c18 57 35 133 40 183l-52 14c-4 -50 -20 -126 -37 -185zM658 580h-144v107h144v-107zM872 687v-107h-148
v107h148zM724 856h148v-110h-148v110zM514 856h144v-110h-144v110zM448 957v-440h492v440h-68v-38h-358v38h-66zM827 392v-108h-271v108h271zM491 226h404v225h-404v-225zM430 97h526v65h-526v-65z" />
</svg>
