<?xml version="1.0" standalone="no"?>
<!DOCTYPE svg PUBLIC "-//W3C//DTD SVG 1.1//EN" "http://www.w3.org/Graphics/SVG/1.1/DTD/svg11.dtd" >
<svg xmlns="http://www.w3.org/2000/svg" xmlns:xlink="http://www.w3.org/1999/xlink" version="1.1" viewBox="-10 0 1010 1000">
   <path fill="currentColor"
d="M269 817l140 -28l5 62c-125 27 -254 55 -351 76l-17 -68c44 -8 98 -18 158 -30v-304h-149v-65h149v-107h-98v-17c-9 9 -17 18 -25 26c-13 -16 -34 -38 -51 -51c72 -60 152 -166 194 -269l62 21c-6 13 -12 26 -19 39c55 38 121 88 155 123l-43 49
c-30 -32 -88 -80 -141 -118c-27 48 -57 93 -90 133h227v64h-106v107h126v65h-126v292zM75 589l49 -11c21 59 38 137 41 188l-53 13c-2 -51 -18 -129 -37 -190zM345 760l-48 -14c15 -47 33 -126 40 -179l56 15c-15 59 -32 132 -48 178zM715 839h144v-128h-114v-64h114v-118
h-119v-64h186v492h-67v-52h-349v53h-66v-494c51 -8 113 -20 149 -33l46 55c-39 11 -85 21 -129 27v134h111v64h-111v128h138v-498h-230v-66h230v-124c-68 7 -136 12 -198 14c-2 -16 -12 -40 -19 -56c151 -8 342 -28 438 -66l47 54c-53 21 -124 36 -201 46v132h242v66h-242
v498z" />
</svg>
