<?xml version="1.0" standalone="no"?>
<!DOCTYPE svg PUBLIC "-//W3C//DTD SVG 1.1//EN" "http://www.w3.org/Graphics/SVG/1.1/DTD/svg11.dtd" >
<svg xmlns="http://www.w3.org/2000/svg" xmlns:xlink="http://www.w3.org/1999/xlink" version="1.1" viewBox="-10 0 1010 1000">
   <path fill="currentColor"
d="M326 618h348c-61 -22 -119 -48 -174 -82c-52 32 -111 58 -174 82zM686 786l63 16c-15 27 -30 52 -44 75h224v55h-847v-55h216c-12 -26 -27 -55 -43 -77l60 -17c21 27 40 65 53 94h96v-103h-302v-52h302v-54h-162v-41c-74 25 -152 46 -227 61c-9 -16 -26 -42 -40 -57
c176 -32 372 -94 476 -176l51 28c-3 -6 -7 -11 -11 -15c59 -22 111 -52 154 -90c-39 -31 -79 -61 -115 -87l46 -38c35 25 73 53 112 83c35 -41 60 -85 78 -132h-184c-28 45 -58 89 -92 122c-8 -7 -19 -16 -30 -24c-24 45 -54 92 -82 124l-51 -21c19 -21 40 -53 56 -83h-96
v153c0 31 -6 45 -29 54c-21 10 -57 10 -111 10c-3 -17 -11 -36 -18 -51c40 1 73 1 85 0c11 0 13 -3 13 -12v-124c-58 56 -134 106 -204 140c-7 -11 -25 -34 -37 -45c71 -29 147 -74 201 -125h-190v-54h273c-56 -24 -127 -47 -188 -62l32 -38c38 7 79 19 118 32
c32 -17 67 -39 95 -62h-293v-53h353l13 -4l40 30c-39 40 -94 80 -146 111c26 10 48 20 67 29l-13 17h68l11 -3l27 9c58 -63 109 -154 133 -229l64 17c-11 26 -23 55 -37 83h270v59h-47c-23 63 -55 121 -99 172c53 42 101 85 132 118l-49 43c-29 -32 -75 -74 -127 -118
c-47 42 -103 77 -167 101c-4 -8 -12 -20 -20 -31c-6 5 -11 10 -17 14c121 67 269 99 416 125c-16 15 -33 39 -41 59c-77 -16 -153 -36 -227 -60v41h-162v54h316v52h-316v103h100c18 -29 39 -66 50 -91z" />
</svg>
