<?xml version="1.0" standalone="no"?>
<!DOCTYPE svg PUBLIC "-//W3C//DTD SVG 1.1//EN" "http://www.w3.org/Graphics/SVG/1.1/DTD/svg11.dtd" >
<svg xmlns="http://www.w3.org/2000/svg" xmlns:xlink="http://www.w3.org/1999/xlink" version="1.1" viewBox="-10 0 1010 1000">
   <path fill="currentColor"
d="M897 252l59 25c-27 76 -57 172 -84 231l-44 -20c24 -63 55 -165 69 -236zM658 523l-46 -24c38 -54 57 -151 60 -238l50 8c-3 90 -22 192 -64 254zM235 809l107 -26l4 60c-101 28 -209 58 -286 79l-14 -67c36 -8 84 -19 134 -32v-289h-124v-65h124v-108h-79v-46
c-14 16 -28 32 -42 46c-4 -17 -19 -57 -28 -75c65 -59 132 -150 171 -248l47 26c-6 13 -12 27 -18 41c51 41 103 90 135 128l-29 62c-32 -41 -83 -93 -132 -136c-27 50 -57 97 -89 137h206v65h-87v108h113v65h-113v275zM71 600l43 -14c15 58 29 135 33 184l-45 15
c-3 -50 -17 -126 -31 -185zM292 775l-39 -17c13 -49 29 -129 37 -182l50 19c-16 62 -33 134 -48 180zM669 634l-43 54c-13 -26 -47 -75 -75 -114v384h-62v-414c-33 100 -76 196 -121 255c-7 -19 -24 -45 -35 -61c59 -74 117 -211 147 -333h-108v-65h117v-158
c-33 11 -67 21 -99 30c-4 -14 -14 -37 -21 -51c86 -26 183 -65 237 -100l56 47c-33 18 -71 36 -111 52v180h89v65h-89v94c26 28 100 112 118 135zM811 52v389c0 79 23 321 155 455c-13 17 -32 45 -41 63c-101 -101 -138 -282 -145 -359c-9 80 -49 251 -164 360
c-8 -17 -27 -47 -39 -61c149 -138 171 -376 171 -458v-389h63z" />
</svg>
