<?xml version="1.0" standalone="no"?>
<!DOCTYPE svg PUBLIC "-//W3C//DTD SVG 1.1//EN" "http://www.w3.org/Graphics/SVG/1.1/DTD/svg11.dtd" >
<svg xmlns="http://www.w3.org/2000/svg" xmlns:xlink="http://www.w3.org/1999/xlink" version="1.1" viewBox="-10 0 1010 1000">
   <path fill="currentColor"
d="M134 296h228c-32 -41 -79 -91 -124 -133c-32 48 -67 94 -104 133zM405 783l4 59c-121 29 -250 59 -343 80l-17 -67c43 -7 99 -19 161 -32v-289h-149v-65h149v-108h-96v-44c-16 15 -32 30 -48 44c-5 -17 -21 -57 -31 -75c76 -59 155 -150 202 -248l56 26
c-7 13 -14 28 -22 42c58 48 116 107 151 151l-48 54l-4 -5v55h-100v108h128v65h-128v277zM80 600l47 -13c18 58 35 134 40 183l-51 15c-4 -50 -20 -127 -36 -185zM340 774l-43 -16c16 -49 35 -128 44 -182l55 17c-18 61 -38 135 -56 181zM788 230h-102v102h102v-102z
M852 386h-228v-156h-85v222h383v59h-208v91h231v63h-197c51 80 132 165 200 208c-15 12 -38 37 -50 55c-61 -47 -132 -132 -184 -216v245h-70v-238c-53 85 -125 164 -193 210c-11 -17 -33 -42 -49 -53c75 -43 157 -127 208 -211h-189v-63h223v-91h-169v-281h-68v-61h68v-105
h64v105h85v-118h62v118h102v-117h64v117h99v61h-99v156z" />
</svg>
