<?xml version="1.0" standalone="no"?>
<!DOCTYPE svg PUBLIC "-//W3C//DTD SVG 1.1//EN" "http://www.w3.org/Graphics/SVG/1.1/DTD/svg11.dtd" >
<svg xmlns="http://www.w3.org/2000/svg" xmlns:xlink="http://www.w3.org/1999/xlink" version="1.1" viewBox="-10 0 1010 1000">
   <path fill="currentColor"
d="M270 811l134 -29l4 60c-120 30 -249 59 -342 81l-17 -67c44 -9 99 -20 161 -33v-289h-149v-65h149v-108h-96v-44c-16 16 -31 30 -47 44c-5 -17 -22 -57 -31 -75c75 -59 154 -150 201 -248l56 26c-6 13 -13 28 -21 42c60 41 122 90 160 129l-33 61
c-39 -41 -101 -93 -159 -136c-32 49 -68 96 -105 136h240v65h-105v108h134v65h-134v277zM80 600l48 -13c17 58 34 134 39 183l-50 15c-5 -50 -21 -126 -37 -185zM340 773l-43 -16c16 -49 35 -128 44 -182l55 18c-19 61 -38 134 -56 180zM828 639h-303v82h303v-82zM525 861
h303v-87h-303v87zM457 958v-376h441v374h-70v-37h-303v39h-68zM514 335h165c-6 -21 -11 -43 -15 -65h-150v65zM848 135h-334v81h334v-81zM951 390h-191c30 64 73 110 132 115c11 2 19 -26 24 -73c13 12 35 27 48 33c-10 80 -38 114 -87 102c-94 -13 -148 -84 -182 -177h-181
v86l174 -38c-2 17 -2 44 0 59c-198 49 -227 58 -244 69c-7 -17 -24 -49 -35 -64c15 -11 40 -36 40 -77v-343h465v188h-188c4 22 9 45 15 65h210v55z" />
</svg>
