<?xml version="1.0" standalone="no"?>
<!DOCTYPE svg PUBLIC "-//W3C//DTD SVG 1.1//EN" "http://www.w3.org/Graphics/SVG/1.1/DTD/svg11.dtd" >
<svg xmlns="http://www.w3.org/2000/svg" xmlns:xlink="http://www.w3.org/1999/xlink" version="1.1" viewBox="-10 0 1010 1000">
   <path fill="currentColor"
d="M835 269v-114h-132v114h132zM835 445v-115h-132v115h132zM511 330v115h127v-115h-127zM511 155v114h127v-114h-127zM905 90v420h-461v-420h461zM783 684l-53 37c-21 -44 -71 -113 -115 -162l50 -30c45 47 96 111 118 155zM390 784l3 49c26 -67 45 -165 54 -238l56 18
c-12 81 -32 198 -61 272l-55 -33l2 -7c-116 29 -237 56 -326 78l-17 -67c43 -9 100 -20 161 -33v-289h-149v-65h149v-108h-96v-45c-16 16 -32 31 -48 45c-5 -17 -21 -57 -32 -75c77 -59 157 -150 203 -248l55 26c-7 13 -14 27 -21 41c61 41 122 91 162 130l-34 61
c-39 -42 -101 -94 -160 -137c-32 50 -68 96 -105 137h241v65h-105v108h135v65h-135v277zM77 600l48 -13c17 58 34 134 39 183l-50 15c-5 -50 -21 -126 -37 -185zM336 773l-43 -16c16 -48 36 -127 45 -182l54 18c-18 61 -38 134 -56 180zM642 860h104c26 0 31 -13 34 -105
c15 11 41 22 60 27c-7 114 -26 144 -87 144h-119c-75 0 -93 -21 -93 -93v-241h66v240c0 24 5 28 35 28zM814 627l57 -23c43 76 79 177 91 244l-62 25c-11 -68 -46 -170 -86 -246z" />
</svg>
