<?xml version="1.0" standalone="no"?>
<!DOCTYPE svg PUBLIC "-//W3C//DTD SVG 1.1//EN" "http://www.w3.org/Graphics/SVG/1.1/DTD/svg11.dtd" >
<svg xmlns="http://www.w3.org/2000/svg" xmlns:xlink="http://www.w3.org/1999/xlink" version="1.1" viewBox="-10 0 1010 1000">
   <path fill="currentColor"
d="M386 777l5 59c-115 31 -236 63 -325 86l-17 -67c41 -8 95 -21 154 -35v-286h-142v-65h142v-108h-89v-45c-16 16 -31 31 -47 45c-5 -17 -22 -57 -31 -75c74 -58 149 -151 195 -248l56 26l-21 42c52 41 106 91 138 130l-35 58c-33 -40 -85 -92 -135 -134
c-30 49 -65 96 -101 136h215v65h-85v108h113v65h-113v272zM78 600l47 -13c17 58 34 135 39 184l-50 14c-5 -50 -20 -126 -36 -185zM326 774l-43 -16c15 -49 35 -129 45 -183l54 18c-18 61 -39 135 -56 181zM730 218h-96c-37 65 -83 122 -138 167h147v-93h69v93h142v60h-142
v93h220v61h-220v101h186v60h-186v109h246v60h-570v-60h255v-109h-194v-60h194v-101h-221v-61h221v-93h-153v-55c-15 13 -32 25 -50 36c-8 -13 -31 -41 -44 -55c65 -38 119 -90 161 -153h-152v-61h186c18 -36 32 -75 43 -118l67 13c-10 37 -23 72 -36 105h281v61h-149
c43 61 111 120 175 152c-16 12 -37 36 -47 52c-73 -42 -150 -124 -195 -204z" />
</svg>
