<?xml version="1.0" standalone="no"?>
<!DOCTYPE svg PUBLIC "-//W3C//DTD SVG 1.1//EN" "http://www.w3.org/Graphics/SVG/1.1/DTD/svg11.dtd" >
<svg xmlns="http://www.w3.org/2000/svg" xmlns:xlink="http://www.w3.org/1999/xlink" version="1.1" viewBox="-10 0 1010 1000">
   <path fill="currentColor"
d="M518 223v95h-66v-156h214c-7 -32 -22 -73 -37 -105l64 -18c21 38 39 89 44 121l-6 2h212v156h-69v-95h-356zM576 639v94h239v-94h-239zM576 493v93h239v-93h-239zM507 788v-351h379v351h-379zM530 304h340v59h-340v-59zM433 235l-34 61c-39 -41 -101 -93 -159 -136
c-32 49 -68 96 -105 136h240v65h-105v108h138v65h-138v276l140 -29l3 59c-122 30 -253 60 -347 82l-17 -67c43 -8 99 -19 161 -32v-289h-149v-65h149v-108h-96v-44c-16 16 -31 30 -47 44c-5 -17 -22 -57 -31 -75c75 -59 154 -150 201 -248l56 26c-6 14 -13 28 -21 42
c61 41 122 90 161 129zM340 773l-43 -16c16 -49 35 -128 44 -182l55 18c-19 60 -38 134 -56 180zM80 600l48 -13c17 58 34 134 39 183l-50 15c-5 -50 -21 -127 -37 -185zM445 863h511v62h-511v-62z" />
</svg>
