<?xml version="1.0" standalone="no"?>
<!DOCTYPE svg PUBLIC "-//W3C//DTD SVG 1.1//EN" "http://www.w3.org/Graphics/SVG/1.1/DTD/svg11.dtd" >
<svg xmlns="http://www.w3.org/2000/svg" xmlns:xlink="http://www.w3.org/1999/xlink" version="1.1" viewBox="-10 0 1010 1000">
   <path fill="currentColor"
d="M517 601h129v-77h-129v77zM517 398v76h129v-76h-129zM851 398h-136v76h136v-76zM851 601v-77h-136v77h136zM715 870h240v62h-555v-62h246v-86h-193v-61h193v-70h-194v-307h194v-60h-226v-44l-35 57c-34 -42 -91 -95 -144 -139c-31 49 -67 95 -104 136h243v65h-106v108
h139v65h-139v276l134 -28l4 60c-120 29 -250 59 -343 80l-16 -67c43 -8 100 -19 161 -32v-289h-150v-65h150v-108h-96v-45c-17 16 -32 31 -49 45c-4 -17 -22 -57 -31 -75c76 -58 157 -150 203 -248l55 26c-7 15 -14 28 -22 43c55 42 111 92 146 132v-15h226v-76
c-66 6 -134 10 -197 12c-2 -16 -11 -40 -19 -56c156 -8 343 -25 445 -52l50 54c-58 15 -132 26 -210 35v83h237v62h-237v60h202v307h-202v70h211v61h-211v86zM343 773l-43 -16c16 -49 36 -128 45 -182l54 18c-18 60 -38 134 -56 180zM83 600l48 -13c18 58 35 134 40 183
l-51 15c-4 -50 -20 -127 -37 -185z" />
</svg>
