<?xml version="1.0" standalone="no"?>
<!DOCTYPE svg PUBLIC "-//W3C//DTD SVG 1.1//EN" "http://www.w3.org/Graphics/SVG/1.1/DTD/svg11.dtd" >
<svg xmlns="http://www.w3.org/2000/svg" xmlns:xlink="http://www.w3.org/1999/xlink" version="1.1" viewBox="-10 0 1010 1000">
   <path fill="currentColor"
d="M948 465v63h-540v-63h229v-85h-181v-60h181v-81h-204v-61h112c-13 -33 -38 -76 -63 -108l57 -24c29 34 58 81 71 113l-39 19h164c25 -40 53 -96 69 -135l72 23c-22 38 -46 79 -68 112h115v61h-217v81h197v60h-197v85h242zM390 777l6 60c-116 30 -237 63 -327 85l-16 -66
c40 -9 91 -20 147 -34v-288h-136v-65h136v-108h-85v-53c-17 17 -32 32 -49 47c-5 -17 -21 -56 -30 -74c71 -58 146 -148 190 -243l53 25c-5 14 -12 29 -20 42c56 42 113 89 148 127l-32 60c-35 -39 -93 -90 -146 -133c-32 49 -67 97 -103 137h224v65h-92v108h120v65h-120
v275c43 -10 88 -21 132 -32zM72 600l46 -13c18 58 34 134 39 183l-49 15c-4 -50 -19 -126 -36 -185zM325 772l-41 -15c16 -49 35 -128 44 -181l52 17c-17 60 -37 132 -55 179zM941 691h-226c45 98 128 172 240 206c-16 14 -35 40 -45 59c-109 -40 -190 -115 -241 -217
c-38 99 -108 172 -247 221c-8 -18 -26 -46 -41 -58c139 -43 201 -114 231 -211h-191v-64h206c5 -27 8 -56 11 -87h69c-3 30 -6 59 -10 87h244v64z" />
</svg>
