<?xml version="1.0" standalone="no"?>
<!DOCTYPE svg PUBLIC "-//W3C//DTD SVG 1.1//EN" "http://www.w3.org/Graphics/SVG/1.1/DTD/svg11.dtd" >
<svg xmlns="http://www.w3.org/2000/svg" xmlns:xlink="http://www.w3.org/1999/xlink" version="1.1" viewBox="-10 0 1010 1000">
   <path fill="currentColor"
d="M946 159v68h-537v-68h238c-11 -32 -25 -70 -38 -101l68 -17c16 37 36 84 47 118h222zM259 810l132 -31l6 60c-117 30 -241 61 -333 83l-18 -67c40 -8 92 -19 147 -31v-290h-138v-65h138v-108h-86v-50c-13 13 -25 23 -37 34c-6 -16 -24 -52 -36 -69
c74 -57 146 -145 189 -237l62 22c-6 15 -14 30 -23 46c57 39 113 89 148 126l-42 53c-33 -37 -86 -86 -138 -127c-32 50 -69 97 -108 137h229v65h-92v108h128v65h-128v276zM78 600l51 -13c20 59 37 134 43 183l-54 15c-4 -50 -22 -126 -40 -185zM322 758l-44 -16
c14 -44 34 -118 43 -167l55 17c-18 56 -37 123 -54 166zM524 358v128h294v-128h-294zM905 581l49 46c-48 38 -109 77 -160 106c44 70 101 125 172 157c-16 13 -36 38 -46 57c-134 -70 -217 -208 -263 -385c-21 31 -48 62 -77 91v209l150 -39c0 18 3 44 6 59
c-189 56 -217 65 -233 76c-4 -17 -16 -45 -27 -59c15 -8 38 -25 38 -63v-124c-28 22 -59 42 -87 56c-11 -16 -33 -41 -47 -53c74 -34 156 -98 209 -167h-130v-252h426v252h-170c13 49 30 94 50 136c48 -30 104 -71 140 -103z" />
</svg>
