<?xml version="1.0" standalone="no"?>
<!DOCTYPE svg PUBLIC "-//W3C//DTD SVG 1.1//EN" "http://www.w3.org/Graphics/SVG/1.1/DTD/svg11.dtd" >
<svg xmlns="http://www.w3.org/2000/svg" xmlns:xlink="http://www.w3.org/1999/xlink" version="1.1" viewBox="-10 0 1010 1000">
   <path fill="currentColor"
d="M599 171l-61 26c-10 -34 -37 -88 -65 -128l59 -23c28 39 56 91 67 125zM269 534v276c45 -9 92 -20 138 -30l5 61c-122 29 -252 60 -347 81l-16 -67c43 -7 100 -19 160 -32v-289h-149v-65h149v-108h-95v-45c-16 16 -32 31 -48 45c-5 -17 -22 -57 -31 -75
c76 -59 155 -150 201 -247l56 25c-7 14 -14 28 -22 42c54 38 108 84 141 121l-33 60c-34 -38 -88 -87 -140 -127c-32 49 -68 96 -105 136h238v65h-102v108h135v65h-135zM80 600l47 -12c17 57 34 134 39 183l-50 14c-4 -49 -20 -126 -36 -185zM338 774l-43 -16
c17 -49 36 -128 45 -182l54 17c-18 61 -38 135 -56 181zM494 658h118v-93h-118v93zM612 422h-118v78h118v-78zM672 362v504c0 32 -6 50 -26 61c-21 10 -53 12 -101 11c-2 -17 -10 -42 -18 -60c34 1 63 1 73 0c10 0 12 -3 12 -12v-143h-118v219h-60v-580h238zM867 875v-539
h64v540c0 36 -8 55 -32 66c-26 11 -64 13 -125 13c-3 -18 -14 -47 -24 -64c47 2 88 1 100 1c13 -1 17 -4 17 -17zM797 373v402h-59v-402h59zM796 215h163v67h-547v-67h308c34 -47 75 -120 96 -171l76 20c-30 51 -65 108 -96 151z" />
</svg>
