<?xml version="1.0" standalone="no"?>
<!DOCTYPE svg PUBLIC "-//W3C//DTD SVG 1.1//EN" "http://www.w3.org/Graphics/SVG/1.1/DTD/svg11.dtd" >
<svg xmlns="http://www.w3.org/2000/svg" xmlns:xlink="http://www.w3.org/1999/xlink" version="1.1" viewBox="-10 0 1010 1000">
   <path fill="currentColor"
d="M818 227v-80h-292v80h292zM818 362v-81h-292v81h292zM890 92v324h-434v-324h434zM654 476v404c0 35 -6 52 -31 62c-23 10 -61 11 -119 11c-2 -18 -11 -42 -19 -59c41 1 78 1 89 0c12 -1 15 -4 15 -14v-129c-60 42 -120 82 -171 116l-30 -50l2 25c-115 29 -238 59 -327 81
l-15 -67c41 -9 94 -20 153 -33v-289h-143v-65h143v-108h-93v-43c-15 15 -30 30 -45 43c-5 -17 -21 -57 -29 -75c71 -59 148 -150 191 -248l54 26c-5 13 -12 27 -19 41c57 41 117 91 153 130l-31 61c-36 -42 -96 -94 -153 -137c-30 50 -65 96 -101 137h228v65h-94v108h124v65
h-124v275l124 -27l2 31c52 -30 127 -79 201 -128v-148h-175v-61h240zM77 600l48 -14c17 59 33 134 38 183l-51 16c-4 -50 -19 -126 -35 -185zM326 774l-43 -16c15 -49 34 -129 42 -183l54 18c-17 62 -36 135 -53 181zM403 581l52 -21c35 42 72 96 87 132l-55 24
c-15 -36 -51 -93 -84 -135zM928 476v408c0 34 -7 51 -32 62c-23 11 -63 11 -122 11c-3 -18 -13 -42 -21 -59c43 1 82 1 93 0c13 0 16 -3 16 -15v-141c-59 41 -118 83 -168 117l-33 -53c52 -32 127 -81 201 -132v-137h-180v-61h246zM675 580l52 -21c33 39 69 90 84 124
l-54 25c-15 -35 -49 -89 -82 -128z" />
</svg>
