<?xml version="1.0" standalone="no"?>
<!DOCTYPE svg PUBLIC "-//W3C//DTD SVG 1.1//EN" "http://www.w3.org/Graphics/SVG/1.1/DTD/svg11.dtd" >
<svg xmlns="http://www.w3.org/2000/svg" xmlns:xlink="http://www.w3.org/1999/xlink" version="1.1" viewBox="-10 0 1010 1000">
   <path fill="currentColor"
d="M279 811l135 -29l5 60c-124 29 -257 58 -352 80l-17 -67c45 -8 103 -19 166 -32v-289h-154v-65h154v-108h-98v-45c-17 17 -34 31 -51 45c-5 -17 -22 -57 -31 -75c78 -58 160 -150 207 -248l58 26c-7 13 -14 26 -21 40c61 39 121 86 161 126v-83h236
c-17 -29 -40 -63 -63 -88l60 -26c33 34 65 80 80 114h192v147h-69v-88h-371v90h-65v-53l-31 53c-39 -41 -102 -94 -164 -136c-32 49 -70 96 -108 136h247v65h-106v108h136v65h-136v277zM82 600l52 -14c18 59 35 135 40 184l-55 15c-4 -49 -20 -126 -37 -185zM351 775
l-47 -17c16 -49 37 -128 46 -183l59 19c-20 61 -40 135 -58 181zM823 865v-142h-263v142h263zM957 599h-235v65h173v289h-72v-29h-263v32h-69v-292h162v-65h-216v-59h216v-63h-169v-55h169v-61h-178v-54h178v-82h69v82h187v54h-187v61h176v55h-176v63h235v59z" />
</svg>
