<?xml version="1.0" standalone="no"?>
<!DOCTYPE svg PUBLIC "-//W3C//DTD SVG 1.1//EN" "http://www.w3.org/Graphics/SVG/1.1/DTD/svg11.dtd" >
<svg xmlns="http://www.w3.org/2000/svg" xmlns:xlink="http://www.w3.org/1999/xlink" version="1.1" viewBox="-10 0 1010 1000">
   <path fill="currentColor"
d="M612 172l-60 29c-17 -33 -50 -88 -77 -128l56 -25c29 38 64 91 81 124zM376 788l5 60c-112 27 -230 54 -316 75l-16 -67c41 -7 95 -18 152 -31v-290h-141v-65h141v-109h-88v-51c-18 19 -36 36 -54 52c-6 -17 -21 -57 -31 -75c75 -58 154 -150 199 -248l55 26
c-7 14 -15 29 -22 43c52 43 106 94 138 133l-35 59c-32 -40 -85 -94 -135 -137c-31 48 -66 93 -102 133h229v65h-95v109h116v65h-116v277zM73 600l46 -12c18 57 34 134 39 183l-49 15c-4 -50 -20 -127 -36 -186zM329 774l-42 -16c15 -49 35 -128 44 -182l53 17
c-18 61 -38 135 -55 181zM594 614h82v-85h-82v85zM594 391v80h82v-80h-82zM594 260v74h82v-74h-82zM832 391h-96v80h96v-80zM832 614v-85h-96v85h96zM890 670h-130c50 85 128 170 197 214c-14 12 -34 36 -43 52c-61 -46 -128 -124 -178 -207v229h-60v-288h-82v289h-58v-222
c-37 85 -86 162 -138 208c-9 -14 -28 -38 -41 -50c60 -45 119 -134 155 -225h-98v-56h122v-85h-135v-58h135v-80h-118v-57h118v-74h-134v-58h284c32 -44 71 -109 92 -156l64 30c-28 42 -59 88 -88 126h178v58h-196v74h154v137h63v58h-63v141z" />
</svg>
