<?xml version="1.0" standalone="no"?>
<!DOCTYPE svg PUBLIC "-//W3C//DTD SVG 1.1//EN" "http://www.w3.org/Graphics/SVG/1.1/DTD/svg11.dtd" >
<svg xmlns="http://www.w3.org/2000/svg" xmlns:xlink="http://www.w3.org/1999/xlink" version="1.1" viewBox="-10 0 1010 1000">
   <path fill="currentColor"
d="M374 788l6 60c-109 27 -223 54 -307 74l-16 -67c41 -7 95 -18 152 -31v-290h-144v-65h144v-108h-95v-45c-16 16 -32 31 -48 45c-5 -17 -21 -57 -31 -75c76 -59 155 -150 201 -248l55 26c-7 14 -14 28 -22 43c58 41 118 89 154 128l-33 61c-37 -41 -96 -93 -152 -136
c-32 49 -68 96 -105 136h235v65h-100v108h128v65h-128v278zM84 600l46 -14c19 58 36 135 42 184l-49 15c-5 -50 -22 -126 -39 -185zM332 774l-42 -16c16 -49 35 -129 44 -183l53 18c-18 61 -37 135 -55 181zM545 752l50 -29c37 37 76 90 93 126l-53 34
c-16 -36 -54 -91 -90 -131zM841 556v91h116v58h-116v180c0 34 -6 51 -30 62c-23 10 -58 10 -113 10c-3 -18 -12 -42 -21 -60c38 1 73 1 83 1c10 -1 13 -4 13 -14v-179h-250v-58h250v-91h68zM887 373l40 33c-29 24 -62 45 -92 63c36 30 80 54 129 68c-12 11 -28 33 -36 47
c-109 -38 -188 -118 -227 -224h-59v152l108 -25c-1 16 1 40 2 54c-130 35 -154 45 -167 55v-3c-5 -17 -17 -45 -26 -60c11 -6 26 -20 26 -57v-116h-63v12c0 164 -14 407 -109 572c-12 -13 -40 -32 -54 -39c91 -156 99 -377 99 -533v-291h493v60h-429v167h431v52h-199
c13 28 30 55 51 78c29 -20 62 -47 82 -65zM905 249h-342v-52h342v52z" />
</svg>
