<?xml version="1.0" standalone="no"?>
<!DOCTYPE svg PUBLIC "-//W3C//DTD SVG 1.1//EN" "http://www.w3.org/Graphics/SVG/1.1/DTD/svg11.dtd" >
<svg xmlns="http://www.w3.org/2000/svg" xmlns:xlink="http://www.w3.org/1999/xlink" version="1.1" viewBox="-10 0 1010 1000">
   <path fill="currentColor"
d="M836 216h-162v146h162v-146zM859 567h-185v164h185v-164zM633 792h-25v-639h97c12 -35 24 -81 30 -113l76 15c-13 33 -26 69 -38 98h129v272h-228v80h251v288zM561 233l-51 37c-23 -39 -70 -104 -108 -149l49 -31c39 46 86 104 110 143zM388 781l3 61
c-114 29 -237 59 -326 80l-15 -66c40 -8 93 -20 152 -33v-289h-142v-64h142v-109h-91v-42c-16 16 -31 32 -47 46c-5 -16 -20 -56 -29 -74c73 -60 148 -154 194 -253l52 26c-5 14 -13 28 -20 43c57 41 115 90 151 129l-31 60c-36 -41 -94 -93 -149 -136
c-31 50 -65 96 -101 137h224v64h-93v109h121v64h-121v276c41 -9 83 -19 126 -29zM78 600l47 -14c17 59 33 134 38 183l-50 16c-4 -50 -19 -127 -35 -185zM332 773l-44 -15c15 -50 32 -129 41 -183l54 17c-17 62 -34 134 -51 181zM533 380v409c18 10 35 25 62 42
c46 29 99 40 171 40c50 0 139 -3 196 -11c-7 19 -15 53 -16 73c-45 3 -132 6 -183 6c-76 0 -132 -14 -182 -48c-34 -24 -61 -50 -80 -50c-22 0 -56 55 -83 109l-47 -64c34 -45 68 -82 98 -98v-348h-82v-60h146z" />
</svg>
