<?xml version="1.0" standalone="no"?>
<!DOCTYPE svg PUBLIC "-//W3C//DTD SVG 1.1//EN" "http://www.w3.org/Graphics/SVG/1.1/DTD/svg11.dtd" >
<svg xmlns="http://www.w3.org/2000/svg" xmlns:xlink="http://www.w3.org/1999/xlink" version="1.1" viewBox="-10 0 1010 1000">
   <path fill="currentColor"
d="M241 534v274c36 -9 75 -18 112 -28l7 59c-105 29 -213 59 -297 82l-15 -67c38 -7 85 -19 136 -31v-289h-126v-65h126v-108h-80v-51c-13 14 -26 27 -39 40c-5 -13 -21 -47 -32 -63c69 -60 135 -152 175 -248l56 18c-7 16 -14 32 -23 48c55 47 112 103 146 145l-43 51
c-31 -41 -85 -96 -132 -140c-29 49 -62 95 -96 135h212v65h-87v108h113v65h-113zM70 600l44 -12c18 58 33 133 37 182l-48 13c-2 -49 -17 -124 -33 -183zM300 774l-41 -14c14 -48 31 -128 38 -182l52 14c-16 61 -33 135 -49 182zM591 229h-128v101h128v-101zM463 504h128
v-116h-128v116zM527 634l50 -21c42 80 79 186 92 256l-55 22c-5 -26 -13 -59 -23 -93c-161 81 -187 96 -203 111c-5 -18 -16 -49 -27 -66c15 -7 38 -22 38 -60v-614h100c-11 -28 -31 -67 -51 -96l56 -25c23 31 46 72 57 99l-45 22h135v394h-188v227l108 -49
c-13 -37 -28 -75 -44 -107zM906 106l44 24c-23 88 -50 195 -80 302c56 99 84 174 85 241c0 56 -13 110 -37 130c-12 10 -30 16 -48 19c-18 2 -43 2 -65 1c-1 -17 -7 -42 -18 -59c23 1 45 2 59 1c12 0 23 -3 28 -9c15 -12 20 -51 20 -85c0 -63 -24 -131 -80 -231
c24 -96 46 -189 61 -267h-117v780h-61v-843h199z" />
</svg>
