<?xml version="1.0" standalone="no"?>
<!DOCTYPE svg PUBLIC "-//W3C//DTD SVG 1.1//EN" "http://www.w3.org/Graphics/SVG/1.1/DTD/svg11.dtd" >
<svg xmlns="http://www.w3.org/2000/svg" xmlns:xlink="http://www.w3.org/1999/xlink" version="1.1" viewBox="-10 0 1010 1000">
   <path fill="currentColor"
d="M948 260v62h-549v-62h229v-79h-192v-60h192v-76h72v76h216v60h-216v79h248zM249 811l120 -29l4 60c-110 29 -226 59 -310 80l-15 -67c39 -8 89 -19 145 -32v-289h-135v-65h135v-108h-87v-43c-14 15 -28 30 -42 43c-5 -17 -21 -57 -30 -75c70 -59 141 -150 183 -247l52 25
c-6 14 -13 27 -20 42c56 41 112 90 146 129l-30 61c-35 -41 -92 -93 -145 -136c-29 49 -61 96 -96 136h221v65h-96v108h124v65h-124v277zM75 600l43 -13c16 58 32 134 36 183l-47 15c-3 -50 -17 -127 -32 -185zM312 773l-40 -16c14 -49 32 -128 41 -182l49 18
c-17 61 -34 134 -50 180zM508 438v106h305v-106h-305zM903 622l47 47c-44 35 -103 73 -152 102c41 55 94 99 159 124c-16 14 -37 39 -47 58c-126 -60 -208 -180 -251 -330c-26 29 -59 56 -93 82v163l136 -41c0 16 3 40 7 52c-168 57 -195 67 -209 78c-4 -17 -16 -47 -25 -64
c13 -6 30 -17 30 -53v-95c-36 22 -73 40 -110 56c-8 -14 -30 -43 -42 -57c88 -32 178 -81 239 -143h-154v-220h448v220h-169c13 43 30 84 50 121c45 -30 101 -70 136 -100z" />
</svg>
