<?xml version="1.0" standalone="no"?>
<!DOCTYPE svg PUBLIC "-//W3C//DTD SVG 1.1//EN" "http://www.w3.org/Graphics/SVG/1.1/DTD/svg11.dtd" >
<svg xmlns="http://www.w3.org/2000/svg" xmlns:xlink="http://www.w3.org/1999/xlink" version="1.1" viewBox="-10 0 1010 1000">
   <path fill="currentColor"
d="M393 778l5 58c-117 31 -241 63 -332 86l-17 -67c43 -8 97 -21 158 -35v-286h-151v-65h151v-108h-93v-44c-16 16 -31 30 -47 44c-5 -17 -22 -57 -31 -75c75 -59 154 -150 201 -248l56 26c-7 14 -14 29 -22 44c55 43 111 92 145 131l-32 60c-34 -41 -92 -94 -146 -137
c-31 48 -67 94 -103 134h234v65h-101v108h122v65h-122v273c41 -9 83 -19 125 -29zM80 600l48 -13c17 58 34 134 39 183l-50 15c-5 -50 -21 -127 -37 -185zM336 773l-44 -16c15 -49 32 -128 40 -182l54 18c-16 61 -34 134 -50 180zM504 421v64h298v-64h-298zM504 304v64h298
v-64h-298zM504 188v63h298v-63h-298zM928 676h-207c60 76 153 154 232 194c-16 13 -38 37 -49 54c-71 -43 -155 -121 -216 -200v232h-71v-239c-59 87 -144 168 -223 212c-11 -17 -32 -42 -48 -55c83 -39 173 -117 229 -198h-178v-63h220v-72h-181v-409h132
c13 -30 25 -66 30 -91l76 11c-12 27 -23 55 -36 80h235v409h-185v72h240v63z" />
</svg>
