<?xml version="1.0" standalone="no"?>
<!DOCTYPE svg PUBLIC "-//W3C//DTD SVG 1.1//EN" "http://www.w3.org/Graphics/SVG/1.1/DTD/svg11.dtd" >
<svg xmlns="http://www.w3.org/2000/svg" xmlns:xlink="http://www.w3.org/1999/xlink" version="1.1" viewBox="-10 0 1010 1000">
   <path fill="currentColor"
d="M262 811l124 -27l5 60c-115 28 -237 58 -326 79l-17 -67c41 -8 94 -19 151 -32v-290h-139v-65h139v-108h-88v-52c-15 17 -30 31 -45 45c-6 -16 -23 -53 -33 -69c70 -59 142 -152 184 -249l59 23c-6 15 -13 28 -21 43c58 39 117 87 155 126l-34 57
c-36 -39 -96 -89 -150 -129c-32 50 -67 99 -103 140h239v65h-100v108h125v65h-125v277zM73 600l46 -12c17 58 33 134 38 183l-48 14c-4 -50 -20 -126 -36 -185zM326 772l-42 -14c15 -49 34 -129 43 -183l52 16c-17 62 -36 134 -53 181zM877 418l52 43c-32 27 -71 53 -108 78
c34 103 96 214 152 271c-14 12 -36 36 -48 55c-55 -66 -113 -186 -149 -298c-12 7 -24 15 -36 21c32 141 13 288 -28 332c-24 27 -46 35 -84 36c-16 0 -42 -1 -65 -2c-1 -19 -6 -47 -17 -66c27 3 53 4 70 4c19 0 32 -3 45 -20c19 -21 33 -94 29 -179
c-68 75 -165 148 -250 189c-8 -16 -22 -40 -36 -55c99 -40 216 -127 277 -211c-4 -23 -9 -47 -15 -69c-63 64 -155 131 -230 170c-8 -15 -23 -39 -36 -52c82 -34 187 -106 245 -172c-7 -16 -15 -31 -23 -45c-55 44 -117 80 -175 108c-8 -13 -26 -41 -38 -54
c81 -33 166 -82 224 -141h-164v-44h-57v-161h239c-9 -29 -20 -63 -29 -90l70 -17c14 33 29 75 38 107h210v161h-68v-101h-395v86h391v59h-159c-13 16 -28 32 -43 48c25 37 46 79 59 123c53 -33 114 -79 152 -114z" />
</svg>
