<?xml version="1.0" standalone="no"?>
<!DOCTYPE svg PUBLIC "-//W3C//DTD SVG 1.1//EN" "http://www.w3.org/Graphics/SVG/1.1/DTD/svg11.dtd" >
<svg xmlns="http://www.w3.org/2000/svg" xmlns:xlink="http://www.w3.org/1999/xlink" version="1.1" viewBox="-10 0 1010 1000">
   <path fill="currentColor"
d="M433 238l-32 58c-39 -42 -102 -94 -162 -138c-32 50 -69 97 -107 138h244v63h-104v110h136v65h-136v276l143 -30l4 58c-126 30 -258 62 -353 83l-16 -66c43 -7 100 -19 161 -32v-289h-150v-65h150v-110h-96v-46c-17 16 -32 32 -49 46c-5 -17 -21 -56 -30 -73
c76 -59 155 -150 202 -248l55 25c-7 14 -15 29 -23 44c62 42 124 92 163 131zM339 773l-44 -16c17 -49 37 -128 46 -182l55 18c-19 61 -39 134 -57 180zM80 600l49 -13c18 58 34 134 39 183l-51 15c-4 -50 -20 -127 -37 -185zM679 682h-127v101h127v-101zM742 838h-190v46
h-61v-257h251v211zM955 493v66h-77v325c0 38 -8 56 -35 66c-28 11 -73 11 -144 11c-3 -18 -12 -44 -21 -62c53 2 100 2 112 0c15 0 19 -3 19 -16v-324h-371v-66h364v-336h-356v-64h501v64h-78v336h86zM679 376v-106h-125v106h125zM493 217h249v212h-249v-212z" />
</svg>
