<?xml version="1.0" standalone="no"?>
<!DOCTYPE svg PUBLIC "-//W3C//DTD SVG 1.1//EN" "http://www.w3.org/Graphics/SVG/1.1/DTD/svg11.dtd" >
<svg xmlns="http://www.w3.org/2000/svg" xmlns:xlink="http://www.w3.org/1999/xlink" version="1.1" viewBox="-10 0 1010 1000">
   <path fill="currentColor"
d="M821 245v-95h-269v95h269zM821 401v-97h-269v97h269zM893 87v377h-411v-377h411zM407 782l4 59c-122 30 -251 59 -345 81l-16 -67c43 -8 101 -19 162 -32v-289h-150v-65h150v-108h-96v-45c-17 16 -32 31 -49 45c-5 -17 -22 -57 -32 -75c78 -59 158 -150 205 -248l57 26
c-6 13 -13 28 -21 42c61 41 123 90 162 129l-33 61c-40 -41 -102 -93 -162 -136c-33 49 -69 96 -107 136h243v65h-105v108h137v65h-137v277zM81 599l48 -12c18 57 35 134 40 183l-52 15c-3 -50 -20 -127 -36 -186zM344 773l-44 -15c17 -49 36 -128 45 -182l56 17
c-19 61 -38 134 -57 180zM513 619v242h75v-242h-75zM720 619h-75v242h75v-242zM855 619h-78v242h78v-242zM919 861h47v67h-565v-67h50v-308h468v308z" />
</svg>
