<?xml version="1.0" standalone="no"?>
<!DOCTYPE svg PUBLIC "-//W3C//DTD SVG 1.1//EN" "http://www.w3.org/Graphics/SVG/1.1/DTD/svg11.dtd" >
<svg xmlns="http://www.w3.org/2000/svg" xmlns:xlink="http://www.w3.org/1999/xlink" version="1.1" viewBox="-10 0 1010 1000">
   <path fill="currentColor"
d="M587 412v-89c-56 32 -112 65 -158 89l-20 -57c45 -20 113 -55 178 -88v-129h-162v-58h224v332h-62zM546 241l-37 41c-18 -24 -55 -57 -84 -79l35 -37c28 18 65 50 86 75zM258 809l124 -28l3 60c-113 29 -234 60 -321 81l-16 -67c40 -7 93 -19 149 -32v-289h-138v-65h138
v-108h-88v-45c-15 16 -30 31 -45 45c-5 -17 -20 -57 -29 -75c71 -59 144 -150 187 -248l53 26c-6 13 -13 28 -20 42c56 41 112 89 146 127l-30 61c-36 -40 -92 -92 -146 -134c-30 49 -63 96 -98 136h225v65h-94v108h122v65h-122v275zM76 600l47 -14c17 59 31 135 36 184
l-48 15c-5 -50 -19 -126 -35 -185zM320 775l-42 -17c15 -49 33 -128 42 -182l53 17c-18 62 -36 136 -53 182zM839 714l61 23c-80 115 -240 184 -433 219c-7 -16 -20 -38 -34 -52c183 -28 336 -90 406 -190zM673 554l52 21c-49 59 -129 113 -202 147c-11 -12 -25 -28 -40 -37
c69 -29 149 -80 190 -131zM755 639l54 23c-65 74 -178 134 -287 170c-9 -12 -24 -30 -38 -41c104 -30 214 -88 271 -152zM709 400l14 12l-18 24c89 75 181 115 261 146c-10 16 -23 45 -29 67c-82 -36 -171 -85 -266 -174c-73 76 -168 139 -255 178c-7 -17 -18 -43 -28 -59
c108 -44 230 -124 297 -215l3 2l-11 -31c45 -20 112 -55 178 -89v-123h-171v-58h234v350h-63v-113c-51 30 -103 59 -146 83zM810 243l-37 41c-18 -24 -55 -57 -84 -79l35 -37c28 18 65 50 86 75z" />
</svg>
