<?xml version="1.0" standalone="no"?>
<!DOCTYPE svg PUBLIC "-//W3C//DTD SVG 1.1//EN" "http://www.w3.org/Graphics/SVG/1.1/DTD/svg11.dtd" >
<svg xmlns="http://www.w3.org/2000/svg" xmlns:xlink="http://www.w3.org/1999/xlink" version="1.1" viewBox="-10 0 1010 1000">
   <path fill="currentColor"
d="M417 223l-33 60c-35 -37 -91 -84 -144 -124c-32 50 -68 97 -106 137h233v65h-97v108h126v65h-126v276l126 -27l4 61c-117 28 -243 57 -334 78l-17 -67c44 -7 100 -19 161 -32v-289h-144v-65h144v-108h-91v-49c-18 17 -35 34 -53 49c-5 -17 -21 -57 -31 -75
c76 -59 156 -150 202 -248l55 25c-6 14 -13 28 -20 41c55 39 110 83 145 119zM340 774l-43 -16c16 -49 35 -128 44 -182l55 17c-18 61 -38 135 -56 181zM80 600l47 -13c18 58 35 135 40 184l-51 15c-4 -50 -20 -127 -36 -186zM575 308h170c17 -35 36 -84 47 -119h-221
c17 34 35 78 42 107zM753 764v-107h-146v107h146zM942 127v62h-123l38 11c-15 36 -32 76 -46 108h118v566c0 37 -7 56 -32 68c-23 11 -61 12 -119 12c-3 -18 -13 -47 -22 -65c42 2 81 1 92 1c12 -1 16 -4 16 -17v-503h-154v90h123v54h-123v90h95v212h-198v43h-52v-255h97
v-90h-133v-54h133v-90h-163v586h-65v-648h126c-7 -31 -23 -75 -39 -108l42 -11h-146v-62h246c-7 -24 -18 -49 -28 -71l57 -19c16 27 30 62 38 90h222z" />
</svg>
