<?xml version="1.0" standalone="no"?>
<!DOCTYPE svg PUBLIC "-//W3C//DTD SVG 1.1//EN" "http://www.w3.org/Graphics/SVG/1.1/DTD/svg11.dtd" >
<svg xmlns="http://www.w3.org/2000/svg" xmlns:xlink="http://www.w3.org/1999/xlink" version="1.1" viewBox="-10 0 1010 1000">
   <path fill="currentColor"
d="M836 64l65 21c-27 43 -59 86 -83 116l-51 -21c23 -32 54 -82 69 -116zM407 231l-32 57c-34 -40 -91 -89 -144 -129c-31 50 -67 97 -104 137h222v64h-89v109h131v63h-131v282c44 -9 89 -19 134 -29l4 57c-116 28 -238 57 -327 79l-16 -64c39 -7 90 -17 144 -29v-296h-133
v-63h133v-109h-80v-56c-16 17 -31 31 -47 45c-4 -16 -20 -54 -29 -70c71 -57 145 -147 187 -241l53 24c-6 16 -14 30 -22 45c55 39 111 86 146 124zM327 774l-43 -16c16 -49 35 -128 44 -182l54 18c-18 60 -38 134 -55 180zM77 601l47 -13c17 59 33 135 38 184l-49 16
c-4 -51 -20 -127 -36 -187zM569 395v100h233v-100h-233zM915 621v203c0 33 -5 50 -28 61c-22 11 -56 11 -104 11c-3 -19 -11 -44 -20 -62c35 1 63 1 73 1s12 -3 12 -12v-141h-135v275h-69v-275h-124v211h-66v-272h190v-71h-139v-210h364v210h-156v71h202zM462 80l54 -23
c32 36 63 85 75 120l-57 26c-12 -34 -43 -86 -72 -123zM713 203h229v180h-66v-120h-385v120h-64v-180h219v-159h67v159z" />
</svg>
