<?xml version="1.0" standalone="no"?>
<!DOCTYPE svg PUBLIC "-//W3C//DTD SVG 1.1//EN" "http://www.w3.org/Graphics/SVG/1.1/DTD/svg11.dtd" >
<svg xmlns="http://www.w3.org/2000/svg" xmlns:xlink="http://www.w3.org/1999/xlink" version="1.1" viewBox="-10 0 1010 1000">
   <path fill="currentColor"
d="M721 223v-72h-79v72h79zM857 401v-125h-84v125h84zM511 276v125h80v-125h-80zM721 276h-79v125h79v-125zM582 223v-72h-148v-65h505v65h-158v72h138v232h-467v-232h130zM893 568h-412v-59h412v59zM404 782l4 60c-120 29 -249 59 -342 81l-17 -67c44 -9 99 -20 161 -33
v-289h-149v-65h149v-108h-96v-44c-16 16 -31 30 -47 44c-5 -17 -22 -57 -31 -75c75 -59 154 -150 201 -247l57 25c-7 14 -14 29 -22 42c61 42 122 91 161 130l-34 61c-39 -42 -101 -94 -159 -137c-32 49 -68 96 -105 136h240v65h-105v108h134v65h-134v277zM80 600l48 -13
c17 58 34 134 39 183l-50 15c-5 -50 -21 -126 -37 -185zM340 773l-43 -15c16 -49 35 -129 44 -183l55 18c-19 61 -38 134 -56 180zM514 725l64 18c-31 67 -81 137 -128 183c-11 -12 -36 -35 -52 -45c46 -40 89 -98 116 -156zM945 694h-229v190c0 34 -6 51 -32 61
c-24 11 -62 11 -124 11c-2 -19 -13 -42 -21 -60c44 1 83 1 94 0c12 0 15 -3 15 -14v-188h-217v-60h514v60zM773 753l53 -31c45 51 97 121 122 164l-57 36c-24 -46 -75 -117 -118 -169z" />
</svg>
