<?xml version="1.0" standalone="no"?>
<!DOCTYPE svg PUBLIC "-//W3C//DTD SVG 1.1//EN" "http://www.w3.org/Graphics/SVG/1.1/DTD/svg11.dtd" >
<svg xmlns="http://www.w3.org/2000/svg" xmlns:xlink="http://www.w3.org/1999/xlink" version="1.1" viewBox="-10 0 1010 1000">
   <path fill="currentColor"
d="M257 813l120 -26l4 60c-110 25 -225 53 -310 73l-17 -68c39 -6 88 -16 143 -27v-291h-133v-65h133v-108h-87v-53c-14 14 -28 27 -42 39c-5 -17 -22 -56 -32 -73c72 -56 146 -143 191 -236l54 26c-6 15 -14 28 -22 43c52 40 104 88 136 125l-36 57
c-31 -38 -82 -87 -132 -128c-32 49 -68 95 -105 135h222v65h-87v108h114v65h-114v279zM76 600l47 -13c19 58 35 135 39 184l-50 14c-4 -50 -19 -126 -36 -185zM320 773l-44 -15c15 -49 35 -129 45 -183l53 18c-17 61 -38 134 -54 180zM784 698h-181c-16 26 -32 51 -46 74
c48 11 99 25 148 40c40 -31 64 -68 79 -114zM499 467v62h142v-62h-142zM847 467h-138v62h138v-62zM517 317h124v-58h-124v58zM641 157h-124v54h124v-54zM830 157h-121v54h121v-54zM709 317h121v-58h-121v58zM949 698h-98c-16 54 -39 98 -78 135c67 22 129 44 174 66l-44 55
c-47 -24 -116 -51 -190 -77c-69 39 -165 64 -303 81c-4 -16 -17 -42 -28 -56c109 -11 190 -28 248 -50c-58 -18 -116 -33 -169 -45h-2c21 -31 46 -69 71 -109h-133v-59h169c11 -21 23 -40 35 -60h-167v-162h207v-50h-185v-103h-59v-58h59v-99h185v-64h68v64h183v99h51v58
h-51v103h-183v50h205v162h-240c-11 19 -23 39 -36 60h311v59z" />
</svg>
