<?xml version="1.0" standalone="no"?>
<!DOCTYPE svg PUBLIC "-//W3C//DTD SVG 1.1//EN" "http://www.w3.org/Graphics/SVG/1.1/DTD/svg11.dtd" >
<svg xmlns="http://www.w3.org/2000/svg" xmlns:xlink="http://www.w3.org/1999/xlink" version="1.1" viewBox="-10 0 1010 1000">
   <path fill="currentColor"
d="M963 370l-51 36c-15 -40 -47 -97 -79 -151c-19 59 -41 114 -70 157c-11 -10 -36 -24 -50 -31c59 -88 92 -228 105 -333l61 10c-7 38 -15 80 -25 123c41 62 88 142 109 189zM752 287l-41 44c-12 -22 -35 -55 -57 -84c-20 63 -45 123 -76 168c-12 -10 -34 -28 -47 -36
c57 -86 90 -225 104 -330l63 11c-7 38 -16 80 -27 122c30 36 64 79 81 105zM490 49l59 18c-34 89 -91 194 -152 264c-9 -12 -26 -34 -38 -45c55 -63 106 -161 131 -237zM233 810l117 -29l3 60c-104 29 -214 61 -293 81l-14 -67c36 -7 82 -19 133 -32v-289h-124v-65h124v-108
h-78v-47c-14 17 -28 33 -42 47c-5 -17 -19 -57 -28 -75c65 -59 132 -150 170 -248l47 26c-6 13 -11 27 -18 41c52 41 104 91 137 129l-29 62c-32 -41 -84 -93 -134 -137c-27 50 -57 97 -88 137h204v65h-87v108h113v65h-113v276zM71 600l43 -14c14 58 29 134 33 183l-46 16
c-3 -50 -16 -127 -30 -185zM289 575l49 20c-16 61 -33 134 -48 180l-39 -18c13 -49 30 -128 38 -182zM484 259l55 15c-16 49 -38 100 -62 149v531h-60v-425c-16 25 -33 48 -50 69c-8 -14 -24 -35 -34 -45c65 -79 123 -198 151 -294zM906 872h65c-10 16 -19 48 -21 66h-50
c-111 0 -219 -33 -289 -180c-18 68 -42 133 -75 182c-12 -10 -35 -29 -50 -36c74 -111 94 -303 102 -434l66 6c-5 56 -12 122 -24 189c23 71 55 118 93 149v-392h65v130h147v62h-147v238c38 15 79 20 118 20z" />
</svg>
