<?xml version="1.0" standalone="no"?>
<!DOCTYPE svg PUBLIC "-//W3C//DTD SVG 1.1//EN" "http://www.w3.org/Graphics/SVG/1.1/DTD/svg11.dtd" >
<svg xmlns="http://www.w3.org/2000/svg" xmlns:xlink="http://www.w3.org/1999/xlink" version="1.1" viewBox="-10 0 1010 1000">
   <path fill="currentColor"
d="M431 235l-34 61c-38 -42 -100 -93 -159 -137c-32 50 -67 97 -105 137h238v65h-103v108h135v65h-135v276l137 -29l4 60c-122 29 -251 60 -344 81l-16 -67c43 -7 99 -19 160 -32v-289h-149v-65h149v-108h-95v-45c-16 16 -32 31 -48 45c-5 -17 -21 -57 -31 -75
c76 -58 155 -149 201 -247l55 25c-7 14 -14 28 -21 41c61 42 121 92 161 130zM337 773l-43 -16c17 -49 36 -128 45 -182l54 18c-18 61 -37 134 -56 180zM80 600l46 -13c18 58 35 134 40 183l-51 15c-3 -50 -19 -126 -35 -185zM831 665h-265v65h265v-65zM566 852h265v-73
h-265v73zM501 956v-349h396v346h-66v-44h-265v47h-65zM737 248v-60h-86v60h86zM872 302h-80v73h80v-73zM872 501v-75h-80v75h80zM519 426v75h78v-75h-78zM737 426h-86v75h86v-75zM651 375h86v-73h-86v73zM519 302v73h78v-73h-78zM957 188h-165v60h140v306h-470v-306h135v-60
h-160v-62h160v-80h54v80h86v-80h55v80h165v62z" />
</svg>
