<?xml version="1.0" standalone="no"?>
<!DOCTYPE svg PUBLIC "-//W3C//DTD SVG 1.1//EN" "http://www.w3.org/Graphics/SVG/1.1/DTD/svg11.dtd" >
<svg xmlns="http://www.w3.org/2000/svg" xmlns:xlink="http://www.w3.org/1999/xlink" version="1.1" viewBox="-10 0 1010 1000">
   <path fill="currentColor"
d="M930 95v187h-512v-187h63v123h156v-170h66v170h161v-123h66zM368 782l3 60c-108 29 -224 59 -308 80l-15 -67c39 -7 89 -19 144 -32v-289h-134v-65h134v-108h-86v-44c-15 15 -28 30 -43 44c-4 -17 -20 -57 -29 -75c70 -59 140 -150 183 -248l50 26c-6 13 -13 28 -20 42
c55 43 111 94 145 134l-32 60c-34 -42 -88 -96 -141 -140c-29 49 -61 96 -95 136h216v65h-90v108h118v65h-118v275zM75 600l44 -14c16 58 30 134 35 183l-47 16c-4 -50 -17 -127 -32 -185zM311 774l-40 -17c13 -49 31 -128 40 -182l50 18c-17 61 -34 135 -50 181zM761 666
h124v-108h-122v39c0 21 0 45 -2 69zM885 405h-122v91h122v-91zM473 665h119v-107h-117v34c0 23 0 47 -2 73zM592 405h-117v90h117v-90zM946 343v535c0 35 -6 54 -27 66c-20 12 -52 12 -99 12c-2 -18 -10 -47 -18 -65c32 1 60 1 70 1c10 -1 13 -4 13 -14v-149h-128
c-9 80 -27 164 -67 227c-11 -12 -37 -32 -51 -39c-3 4 -8 8 -13 11c-20 12 -51 13 -95 13c-3 -18 -12 -46 -21 -64c33 1 61 1 70 0c9 0 12 -3 12 -13v-137h-124c-10 81 -30 165 -75 229c-9 -11 -35 -32 -49 -39c64 -94 71 -223 71 -326v-248h237v521c0 17 -2 31 -6 42
c51 -92 56 -213 56 -309v-254h244z" />
</svg>
