<?xml version="1.0" standalone="no"?>
<!DOCTYPE svg PUBLIC "-//W3C//DTD SVG 1.1//EN" "http://www.w3.org/Graphics/SVG/1.1/DTD/svg11.dtd" >
<svg xmlns="http://www.w3.org/2000/svg" xmlns:xlink="http://www.w3.org/1999/xlink" version="1.1" viewBox="-10 0 1010 1000">
   <path fill="currentColor"
d="M208 39l49 25c-6 14 -12 28 -18 41c53 41 106 91 139 130l-28 61c-34 -41 -88 -93 -139 -137c-27 50 -58 97 -90 137h210v65h-90v108h119v65h-119v276l114 -28l4 60c-105 29 -217 59 -297 80l-14 -67c37 -7 86 -19 138 -32v-289h-128v-65h128v-108h-81v-46
c-15 16 -28 32 -43 46c-4 -17 -19 -57 -28 -75c66 -58 135 -149 174 -247zM688 274v60h157v-60h-157zM688 167v58h157v-58h-157zM684 638h176v-44h-123v-173h44v123h79v-127h55v539h-55v-168h-79v160h-44v-209h123v-47h-176v264h-54v-264h-170c-1 16 -3 31 -5 47h123v209
h-45v-160h-88c-15 62 -44 121 -94 169c-11 -10 -30 -27 -43 -35c89 -85 102 -205 102 -304v-199h53v125h71v-123h44v173h-115v25v19h167v-253h-214v-51h209v-60h-246v-49h246v-58h-205v-50h205v-74h63v74h217v103h54v55h-54v110h-221v253zM300 775l-40 -17
c14 -49 30 -129 39 -183l50 20c-16 62 -33 134 -49 180zM75 600l44 -14c15 58 29 134 34 183l-47 16c-3 -50 -18 -126 -31 -185z" />
</svg>
