<?xml version="1.0" standalone="no"?>
<!DOCTYPE svg PUBLIC "-//W3C//DTD SVG 1.1//EN" "http://www.w3.org/Graphics/SVG/1.1/DTD/svg11.dtd" >
<svg xmlns="http://www.w3.org/2000/svg" xmlns:xlink="http://www.w3.org/1999/xlink" version="1.1" viewBox="-10 0 1010 1000">
   <path fill="currentColor"
d="M397 783l4 60c-118 29 -244 58 -336 79l-16 -66c43 -9 98 -20 159 -32v-290h-148v-65h148v-108h-94v-44c-16 14 -30 29 -46 42c-6 -16 -23 -55 -33 -73c76 -58 153 -150 200 -248l57 26c-7 14 -14 28 -22 42c55 39 110 83 146 121v-29h103c-13 -34 -37 -79 -62 -114
l55 -22c29 36 58 87 69 122l-30 14h92v-155h68v155h60c23 -41 50 -97 65 -136l67 22c-21 39 -44 80 -65 114h97v170h-63v-109h-395v112h-61v-128l-27 49c-37 -39 -96 -90 -151 -132c-32 50 -67 96 -104 136h231v65h-97v108h132v65h-132v277zM80 600l47 -13
c17 58 34 135 39 184l-50 14c-4 -50 -20 -126 -36 -185zM337 774l-43 -16c16 -49 35 -129 44 -183l54 17c-17 61 -37 135 -55 182zM555 390v110h249v-110h-249zM949 702h-188c50 72 128 134 205 167c-15 13 -35 39 -46 56c-79 -40 -157 -113 -209 -195v226h-68v-217
c-58 82 -144 155 -226 195c-10 -17 -31 -43 -45 -56c83 -34 171 -102 226 -176h-177v-65h222v-80h-151v-224h378v224h-159v80h238v65z" />
</svg>
