<?xml version="1.0" standalone="no"?>
<!DOCTYPE svg PUBLIC "-//W3C//DTD SVG 1.1//EN" "http://www.w3.org/Graphics/SVG/1.1/DTD/svg11.dtd" >
<svg xmlns="http://www.w3.org/2000/svg" xmlns:xlink="http://www.w3.org/1999/xlink" version="1.1" viewBox="-10 0 1010 1000">
   <path fill="currentColor"
d="M257 534v273c42 -10 88 -22 131 -33l4 60c-115 33 -237 66 -324 89l-14 -67c41 -9 92 -22 150 -37v-285h-140v-65h140v-108h-92v-34c-11 11 -21 23 -32 34c-5 -17 -19 -57 -28 -75c66 -59 134 -150 173 -248l47 25c-5 14 -11 28 -18 41c52 42 105 92 138 130l-29 62
c-32 -41 -85 -94 -135 -137c-28 50 -58 97 -90 137h210v65h-91v108h118v65h-118zM91 600l43 -14c15 58 29 134 34 183l-47 16c-3 -50 -16 -127 -30 -185zM326 775l-39 -18c13 -49 30 -128 38 -182l49 20c-16 61 -33 134 -48 180zM560 426v-79c-23 66 -64 135 -139 195
c-9 -14 -26 -34 -38 -44c71 -52 108 -111 127 -167h-112c8 -47 16 -118 20 -173l52 3c-3 35 -8 75 -13 110h67c4 -32 5 -60 5 -86v-49h-121v-55h253v55h-76v48c0 26 -1 55 -6 87h87v60h-58v111l63 -34c4 14 11 35 16 45c-76 47 -106 66 -121 79l-11 11
c-4 -15 -15 -43 -22 -57c11 -8 27 -22 27 -60zM843 635h-332v83h332v-83zM511 861h332v-89h-332v89zM449 957v-381h458v377h-64v-32h-332v36h-62zM879 489h30c12 0 14 -7 16 -84c10 10 30 18 44 22c-5 93 -18 115 -54 115h-42c-45 0 -55 -16 -55 -71v-79
c-26 54 -64 109 -124 158c-8 -14 -26 -33 -38 -44c71 -52 110 -114 129 -173h-109c8 -47 16 -118 20 -173l51 3c-4 35 -9 75 -15 110h68c7 -38 8 -73 8 -103v-34h-120v-55h255v55h-80v34c0 30 -2 66 -8 103h94v60h-108c-2 7 -4 15 -7 21h32v117c0 16 3 18 13 18z" />
</svg>
