<?xml version="1.0" standalone="no"?>
<!DOCTYPE svg PUBLIC "-//W3C//DTD SVG 1.1//EN" "http://www.w3.org/Graphics/SVG/1.1/DTD/svg11.dtd" >
<svg xmlns="http://www.w3.org/2000/svg" xmlns:xlink="http://www.w3.org/1999/xlink" version="1.1" viewBox="-10 0 1010 1000">
   <path fill="currentColor"
d="M903 83v267h-475v-50h411v-59h-378v-49h378v-59h-407v-50h471zM744 429v99h121v-99h-121zM692 573v-189h227v189h-227zM409 615l-13 -55c28 -4 62 -9 98 -15v-101h-97v-54h251v54h-97v91c32 -5 66 -12 100 -18l4 51c-88 18 -176 34 -246 47zM244 810l123 -29l4 59
c-108 30 -222 61 -304 82l-15 -66c37 -8 84 -20 137 -33v-289h-126v-65h126v-108h-80v-46c-15 16 -28 32 -43 46c-4 -17 -18 -57 -28 -75c66 -59 135 -150 175 -248l49 26c-6 13 -12 27 -18 41c56 43 112 96 147 137l-28 62c-35 -43 -92 -99 -147 -144
c-27 49 -59 96 -91 136h211v65h-92v108h120v65h-120v276zM78 600l45 -14c15 58 29 135 34 184l-48 15c-3 -49 -16 -126 -31 -185zM303 776l-41 -18c14 -49 31 -129 39 -183l51 20c-16 62 -33 135 -49 181zM481 756l49 -29c38 34 80 83 98 117l-51 32
c-17 -34 -58 -84 -96 -120zM954 658v61h-127v154c0 37 -6 55 -31 66c-27 11 -68 12 -130 12c-3 -19 -12 -46 -20 -65c49 2 89 2 102 1s16 -4 16 -15v-153h-376v-61h376v-71h63v71h127z" />
</svg>
