<?xml version="1.0" standalone="no"?>
<!DOCTYPE svg PUBLIC "-//W3C//DTD SVG 1.1//EN" "http://www.w3.org/Graphics/SVG/1.1/DTD/svg11.dtd" >
<svg xmlns="http://www.w3.org/2000/svg" xmlns:xlink="http://www.w3.org/1999/xlink" version="1.1" viewBox="-10 0 1010 1000">
   <path fill="currentColor"
d="M452 222v117h-51v-167h106c-12 -25 -34 -56 -55 -79l44 -24c25 27 50 61 62 85l-30 18h114v-118h53v118h68c28 -31 59 -74 78 -104l49 23c-18 28 -39 56 -60 81h107v167h-53v-117h-432zM549 314v76h232v-76h-232zM838 436h-344v-169h344v169zM383 235l-28 61
c-33 -40 -86 -93 -137 -136c-27 49 -58 96 -90 136h208v65h-88v108h116v65h-116v276l116 -28l4 60c-105 28 -216 59 -296 80l-15 -67c37 -7 85 -19 136 -32v-289h-126v-65h126v-108h-80v-46c-15 16 -28 32 -43 46c-4 -17 -19 -57 -28 -75c66 -59 134 -150 173 -247l49 25
l-18 42c52 41 105 91 137 129zM306 775l-40 -18c13 -49 31 -128 39 -182l50 20c-16 61 -33 134 -49 180zM83 600l45 -14c15 58 29 134 33 183l-47 16c-3 -50 -16 -126 -31 -185zM938 733v53h-227v92c0 31 -7 45 -30 53c-25 10 -64 10 -130 10c-3 -15 -11 -34 -19 -49
c49 1 93 1 105 0c14 0 18 -4 18 -15v-91h-254v-53h254v-64h-222v-53h222v-74c-64 6 -128 10 -186 11c-2 -14 -10 -34 -17 -49c136 -6 309 -22 405 -45l27 51c-47 11 -107 20 -173 27v79h198v53h-198v64h227z" />
</svg>
