<?xml version="1.0" standalone="no"?>
<!DOCTYPE svg PUBLIC "-//W3C//DTD SVG 1.1//EN" "http://www.w3.org/Graphics/SVG/1.1/DTD/svg11.dtd" >
<svg xmlns="http://www.w3.org/2000/svg" xmlns:xlink="http://www.w3.org/1999/xlink" version="1.1" viewBox="-10 0 1010 1000">
   <path fill="currentColor"
d="M262 813l128 -28l5 60c-117 28 -240 57 -330 78l-16 -67c41 -8 95 -19 154 -31v-291h-143v-65h143v-108h-90v-44c-16 15 -31 30 -47 44c-5 -17 -21 -57 -30 -75c75 -59 153 -150 198 -248l56 26c-7 14 -13 28 -21 43c57 40 114 89 150 127l-33 60
c-35 -39 -93 -92 -149 -134c-31 49 -67 96 -104 136h224v65h-95v108h125v65h-125v279zM79 600l47 -13c17 58 34 134 39 184l-50 14c-4 -50 -20 -126 -36 -185zM328 773l-42 -15c16 -49 35 -129 44 -183l54 18c-19 61 -38 134 -56 180zM841 742h-309v120h309v-120zM467 957
v-273h442v270h-68v-34h-309v37h-65zM717 455v119h88l-27 -11c16 -30 39 -76 51 -108h-112zM833 574h123v61h-542v-61h113c-9 -29 -26 -69 -44 -99l55 -19c22 32 41 77 49 105l-34 13h97v-119h-220v-58h220v-63h-185v-56h185v-58h-211v-58h120c-11 -28 -31 -67 -50 -95
l57 -23c23 33 47 77 57 105l-30 13h169l-24 -9c17 -31 42 -79 53 -111l68 21c-19 35 -41 72 -60 99h137v58h-219v58h193v56h-193v63h225v58h-102l52 19c-19 36 -41 73 -59 100z" />
</svg>
