<?xml version="1.0" standalone="no"?>
<!DOCTYPE svg PUBLIC "-//W3C//DTD SVG 1.1//EN" "http://www.w3.org/Graphics/SVG/1.1/DTD/svg11.dtd" >
<svg xmlns="http://www.w3.org/2000/svg" xmlns:xlink="http://www.w3.org/1999/xlink" version="1.1" viewBox="-10 0 1010 1000">
   <path fill="currentColor"
d="M355 234l-28 59c-30 -40 -79 -92 -125 -135c-28 50 -58 98 -90 138h198v62h-76v112h110v61h-110v281l105 -26l3 58c-98 27 -202 56 -277 76l-14 -64c35 -7 79 -18 128 -30v-295h-117v-61h117v-112h-77v-50c-15 18 -30 34 -45 49c-3 -15 -17 -53 -26 -71
c65 -59 131 -150 170 -248l45 24c-6 15 -12 29 -19 44c49 40 98 89 128 128zM290 776l-38 -18c12 -49 29 -128 37 -182l49 20c-16 61 -33 134 -48 180zM71 600l43 -14c17 58 34 133 40 183l-46 17c-5 -50 -20 -127 -37 -186zM571 141h-135v68h135v-68zM436 320h135v-62h-135
v62zM625 375h-189v578h-61v-867h250v289zM613 593h76v-111h-76v111zM833 652h-90v224h-54v-224h-80c-9 71 -34 168 -99 235c-9 -14 -28 -35 -41 -46c55 -54 77 -129 86 -189h-83v-59h87v-1v-110h-74v-59h327v59h-69v111h90v59zM732 320h138v-61h-138v61zM870 142h-138v68
h138v-68zM928 86v781c0 42 -9 59 -30 70c-23 11 -61 12 -116 12c-2 -18 -10 -45 -18 -64c39 2 79 2 90 1c12 0 16 -5 16 -19v-492h-192v-289h250z" />
</svg>
