<?xml version="1.0" standalone="no"?>
<!DOCTYPE svg PUBLIC "-//W3C//DTD SVG 1.1//EN" "http://www.w3.org/Graphics/SVG/1.1/DTD/svg11.dtd" >
<svg xmlns="http://www.w3.org/2000/svg" xmlns:xlink="http://www.w3.org/1999/xlink" version="1.1" viewBox="-10 0 1010 1000">
   <path fill="currentColor"
d="M395 780l5 59c-118 30 -244 61 -336 83l-16 -67c44 -8 99 -20 159 -34v-287h-143v-65h143v-108h-87v-49c-17 17 -34 34 -51 49c-6 -17 -22 -57 -31 -75c74 -58 151 -150 195 -247l54 25c-6 14 -13 28 -20 42c60 41 122 92 159 132l-34 60c-37 -42 -98 -95 -156 -138
c-31 49 -65 96 -101 136h230v65h-99v108h125v65h-125v275zM77 600l47 -13c17 58 33 135 38 184l-49 14c-4 -50 -20 -126 -36 -185zM335 774l-43 -16c16 -49 35 -128 44 -182l54 17c-18 61 -37 135 -55 181zM739 755h183s-1 18 -2 27c-11 93 -23 134 -41 152
c-13 13 -28 18 -50 19c-16 1 -51 1 -85 -1c-2 -17 -7 -39 -16 -54c35 3 66 4 78 4c13 0 20 -1 26 -7c9 -10 18 -34 25 -88h-128c-23 86 -82 130 -219 156c-4 -15 -19 -39 -30 -50c114 -18 167 -47 190 -106h-156v-52h170c2 -13 3 -26 4 -41h55c-1 15 -2 28 -4 41zM758 661
h90v-54h-90v54zM603 607v54h104v-54h-104zM707 518h-104v50h104v-50zM848 568v-50h-90v50h90zM904 476v228h-355v-228h355zM730 398h118c24 0 29 -7 32 -52c12 9 35 17 50 20c-6 64 -22 80 -74 80h-131c-73 0 -93 -13 -93 -71v-14l-108 6l-2 -45l110 -6v-50h-131v262
c0 133 -12 313 -90 433c-11 -13 -37 -33 -51 -38c73 -114 80 -273 80 -395v-317h191v-167h64v64h209v52h-209v51h190l11 -3l43 11c-13 44 -29 91 -46 122l-53 -14c8 -17 16 -39 22 -61h-170v46l125 -7l2 45l-127 7v18c0 20 5 23 38 23z" />
</svg>
