<?xml version="1.0" standalone="no"?>
<!DOCTYPE svg PUBLIC "-//W3C//DTD SVG 1.1//EN" "http://www.w3.org/Graphics/SVG/1.1/DTD/svg11.dtd" >
<svg xmlns="http://www.w3.org/2000/svg" xmlns:xlink="http://www.w3.org/1999/xlink" version="1.1" viewBox="-10 0 1010 1000">
   <path fill="currentColor"
d="M262 811l133 -29l3 60c-118 29 -245 59 -336 80l-16 -67c42 -8 97 -19 158 -32v-289h-147v-65h147v-108h-95v-44c-16 15 -31 30 -47 44c-4 -17 -21 -57 -30 -75c75 -59 153 -150 199 -248l54 26c-6 13 -13 28 -20 42c59 41 119 90 157 129l-32 61
c-38 -41 -99 -93 -157 -136c-32 49 -67 96 -104 136h235v65h-102v108h133v65h-133v277zM76 600l46 -13c18 58 34 134 38 183l-48 15c-4 -50 -20 -127 -36 -185zM332 773l-42 -16c15 -49 34 -128 43 -182l53 18c-17 61 -37 134 -54 180zM791 370h-121v89h40
c28 -28 56 -59 81 -89zM824 745v-72h-242v72h242zM582 870h242v-74h-242v74zM819 262h-66v-72h-144v40h61v81h130v47c26 -33 50 -68 72 -103l59 25c-39 63 -85 123 -136 179h161v61h-220c-35 34 -74 67 -112 97h268v337h-68v-29h-242v32h-64v-264c-28 19 -58 37 -86 52
c-8 -13 -30 -42 -43 -55c89 -45 176 -102 255 -170h-224v-61h183v-89h-150v-59h150v-49h-60v-72h-133v-61h133v-86h66v86h144v-86h66v86h137v61h-137v72z" />
</svg>
