<?xml version="1.0" standalone="no"?>
<!DOCTYPE svg PUBLIC "-//W3C//DTD SVG 1.1//EN" "http://www.w3.org/Graphics/SVG/1.1/DTD/svg11.dtd" >
<svg xmlns="http://www.w3.org/2000/svg" xmlns:xlink="http://www.w3.org/1999/xlink" version="1.1" viewBox="-10 0 1010 1000">
   <path fill="currentColor"
d="M412 236l-32 61c-37 -42 -95 -94 -151 -137c-30 49 -64 96 -100 136h226v65h-95v108h125v65h-125v276l125 -28l4 60c-114 29 -236 59 -324 80l-16 -67c41 -7 93 -19 151 -32v-289h-140v-65h140v-108h-89v-44c-15 15 -31 30 -45 44c-5 -17 -21 -57 -31 -75
c72 -59 147 -150 191 -248l54 26c-6 13 -13 28 -20 42c58 41 116 90 152 130zM326 774l-43 -17c15 -49 33 -128 42 -182l54 18c-18 61 -36 135 -53 181zM77 600l48 -14c17 59 32 134 37 183l-51 16c-4 -50 -18 -127 -34 -185zM652 632h-128v85h128v-85zM850 717v-85h-137v85
h137zM713 862h137v-90h-137v90zM524 862h128v-90h-128v90zM461 957v-381h455v378h-66v-36h-326v39h-63zM465 509v-53h156v53h-156zM621 344v53h-132v-53h132zM742 509v-53h162v53h-162zM742 344h137v53h-137v-53zM713 221h232v149h-62v-91h-170v263h-61v-263h-165v91h-60
v-149h225v-67h-198v-61h466v61h-207v67z" />
</svg>
