<?xml version="1.0" standalone="no"?>
<!DOCTYPE svg PUBLIC "-//W3C//DTD SVG 1.1//EN" "http://www.w3.org/Graphics/SVG/1.1/DTD/svg11.dtd" >
<svg xmlns="http://www.w3.org/2000/svg" xmlns:xlink="http://www.w3.org/1999/xlink" version="1.1" viewBox="-10 0 1010 1000">
   <path fill="currentColor"
d="M946 218l-58 28c-12 -42 -43 -108 -75 -157l54 -23c33 47 67 111 79 152zM251 811l121 -29l3 60c-110 29 -227 59 -312 80l-15 -67c39 -7 90 -19 145 -32v-289h-135v-65h135v-108h-86v-46c-16 16 -30 32 -46 46c-4 -17 -20 -57 -28 -75c69 -59 142 -150 184 -248l51 25
c-6 14 -12 28 -19 41c56 42 112 92 147 130l-31 62c-35 -42 -91 -94 -145 -138c-29 50 -62 97 -97 138h221v65h-93v108h121v65h-121v277zM75 600l47 -14c15 58 31 134 35 183l-49 16c-4 -50 -18 -127 -33 -185zM314 775l-43 -18c15 -49 33 -128 41 -182l54 20
c-18 61 -36 134 -52 180zM879 429l63 12c-27 116 -65 220 -115 308c16 74 35 117 58 118c16 0 27 -52 33 -137c11 14 37 32 48 38c-18 142 -51 180 -83 180c-45 -1 -77 -47 -101 -125c-36 52 -77 97 -123 136c-9 -12 -33 -36 -47 -48c19 -15 38 -31 54 -49
c-98 16 -197 29 -274 40l-9 -59c37 -3 82 -8 131 -14v-71h-97v-48h97v-57h-111v-51h279v51h-106v57h90v48h-90v63l107 -14l1 36c29 -31 55 -67 78 -106c-19 -105 -30 -242 -36 -402h-345v-60h139v-83h-110v-60h110v-89h65v89h106v60h-106v83h139c-2 -73 -4 -151 -5 -231h64
c0 80 1 158 3 231h169v60h-167c5 118 13 223 23 308c29 -65 51 -137 68 -214zM623 504v-75h-152v75h152zM415 379h266v176h-266v-176z" />
</svg>
