<?xml version="1.0" standalone="no"?>
<!DOCTYPE svg PUBLIC "-//W3C//DTD SVG 1.1//EN" "http://www.w3.org/Graphics/SVG/1.1/DTD/svg11.dtd" >
<svg xmlns="http://www.w3.org/2000/svg" xmlns:xlink="http://www.w3.org/1999/xlink" version="1.1" viewBox="-10 0 1010 1000">
   <path fill="currentColor"
d="M929 115v53h-428v-53h181c-6 -21 -15 -42 -23 -60l67 -15c12 22 24 51 31 75h172zM677 376v-66h-203v-54h122c-7 -21 -21 -51 -33 -72l53 -14c17 24 34 59 40 80l-22 6h130c13 -27 28 -63 36 -87l62 13c-13 26 -26 52 -38 74h125v54h-204v66h183v53h-183v87h-68v-87h-177
v-53h177zM376 131h-205v72h205v-72zM441 253h-270c-3 80 -20 178 -80 246c-10 -12 -38 -32 -52 -41c59 -68 67 -158 67 -230v-147h335v172zM331 604h344c-62 -22 -121 -49 -177 -81c-49 30 -107 57 -167 81zM394 438v-80h-168v80h168zM694 655h-158v60h284v53h-284v112h93
c20 -32 44 -75 57 -105l62 16c-17 32 -35 63 -51 89h224v51h-838v-51h219c-11 -29 -29 -62 -47 -90l60 -16c24 32 47 74 58 106h91v-112h-302v-53h302v-60h-162v-40c-73 26 -151 49 -226 65c-9 -18 -25 -44 -39 -59c140 -26 291 -72 400 -133h-269v-179h287v169
c22 -13 41 -26 58 -40l58 31c-8 7 -17 14 -26 21c122 66 274 100 422 124c-14 16 -31 39 -39 59c-79 -17 -158 -37 -234 -62v44z" />
</svg>
