<?xml version="1.0" standalone="no"?>
<!DOCTYPE svg PUBLIC "-//W3C//DTD SVG 1.1//EN" "http://www.w3.org/Graphics/SVG/1.1/DTD/svg11.dtd" >
<svg xmlns="http://www.w3.org/2000/svg" xmlns:xlink="http://www.w3.org/1999/xlink" version="1.1" viewBox="-10 0 1010 1000">
   <path fill="currentColor"
d="M530 382l39 -14c15 29 34 68 42 93l-39 18c-7 -26 -25 -66 -42 -97zM768 477l-34 -16c14 -28 31 -70 39 -97l43 20c-16 34 -34 69 -48 93zM864 491v-140h-168v140h168zM495 351v140h149v-140h-149zM392 783l4 59c-116 29 -240 59 -330 80l-16 -67c41 -7 95 -19 154 -32
v-289h-143v-65h143v-108h-92v-44c-16 15 -30 30 -46 44c-5 -17 -21 -57 -30 -75c73 -59 149 -150 193 -248l55 26c-6 13 -13 28 -21 42c48 33 97 70 133 105v-14h241v-59c-70 6 -141 11 -208 14c-1 -16 -9 -38 -14 -52c158 -8 348 -26 454 -50l40 51c-58 13 -130 23 -207 31
v65h254v56h-254v52h220v232h-220v51h223v52h-223v61h257v59h-574v-59h252v-61h-202v-52h202v-51h-198v-232h198v-52h-230l-21 39c-37 -40 -96 -91 -152 -132c-31 49 -66 96 -103 136h234v65h-101v108h129v65h-129v277zM79 600l47 -13c17 58 33 134 38 183l-50 15
c-4 -50 -19 -127 -35 -185zM332 575l53 18c-18 61 -37 134 -54 180l-42 -16c15 -49 34 -128 43 -182zM395 957l-46 -40c52 -30 84 -88 100 -147l53 21c-18 64 -47 129 -107 166zM549 799l54 -8c13 47 26 110 29 147l-58 12c-1 -39 -12 -102 -25 -151zM669 800l50 -17
c28 45 56 106 67 144l-53 21c-11 -40 -38 -102 -64 -148zM798 796l52 -27c42 48 94 116 117 159l-54 30c-23 -43 -73 -112 -115 -162z" />
</svg>
