<?xml version="1.0" standalone="no"?>
<!DOCTYPE svg PUBLIC "-//W3C//DTD SVG 1.1//EN" "http://www.w3.org/Graphics/SVG/1.1/DTD/svg11.dtd" >
<svg xmlns="http://www.w3.org/2000/svg" xmlns:xlink="http://www.w3.org/1999/xlink" version="1.1" viewBox="-10 0 1010 1000">
   <path fill="currentColor"
d="M944 136v62h-571v-62h271c-13 -27 -29 -60 -45 -85l56 -20c21 32 45 76 58 105h231zM728 199l49 20c-27 33 -60 70 -89 97h2v210h-53v-210c30 -32 69 -83 91 -117zM590 279v24c-4 126 -8 175 -21 193c-8 12 -19 18 -37 19c-12 1 -32 1 -50 1c-1 -16 -5 -37 -12 -51
c19 3 35 3 42 3c8 0 13 -1 16 -8c6 -9 9 -42 12 -130h-51c-11 90 -41 158 -98 203c-5 -11 -20 -32 -31 -42c49 -36 71 -89 80 -161h-52v-51h202zM648 281l-41 22c-7 -23 -24 -57 -41 -83l40 -17c17 23 35 56 42 78zM355 781l3 60c-105 29 -216 60 -296 81l-14 -67
c38 -8 88 -20 142 -34v-287h-132v-65h132v-108h-86v-47c-15 16 -28 33 -43 47c-4 -17 -19 -57 -27 -75c65 -59 131 -150 170 -248l47 26c-5 13 -11 26 -17 40c52 41 105 92 137 131l-31 61c-32 -41 -83 -94 -133 -136c-27 49 -57 96 -89 136h211v65h-85v108h107v65h-107v275
zM77 600l43 -14c14 58 29 134 33 183l-45 16c-4 -50 -17 -126 -31 -185zM303 775l-39 -17c13 -49 30 -129 38 -183l49 20c-16 62 -32 134 -48 180zM510 737h309v-81h-305v8c0 23 -1 48 -4 73zM819 596v-66h64v425h-64v-157h-321c-16 58 -47 114 -104 158
c-13 -12 -36 -31 -52 -40c94 -72 108 -176 108 -253v-132h64v65h305zM894 241l44 38c-18 10 -38 19 -60 27c14 72 37 141 76 175c-11 9 -26 27 -34 40c-41 -43 -67 -121 -80 -201c-18 6 -35 10 -52 15v127l74 -24c1 13 5 33 8 42c-94 35 -113 43 -123 53v-2l-1 1
c-4 -13 -15 -37 -24 -50c11 -6 22 -21 22 -59v-119l-1 -2c54 -16 116 -39 151 -61z" />
</svg>
