<?xml version="1.0" standalone="no"?>
<!DOCTYPE svg PUBLIC "-//W3C//DTD SVG 1.1//EN" "http://www.w3.org/Graphics/SVG/1.1/DTD/svg11.dtd" >
<svg xmlns="http://www.w3.org/2000/svg" xmlns:xlink="http://www.w3.org/1999/xlink" version="1.1" viewBox="-10 0 1010 1000">
   <path fill="currentColor"
d="M683 386v-48h-152v48h152zM683 480v-50h-152v50h152zM683 576v-52h-152v52h152zM542 211v-47h-149v-59h149v-61h66v61h145v-61h67v61h141v59h-141v55h-67v-55h-145v55h-43c-9 23 -19 47 -30 69h138c-10 -22 -25 -47 -40 -66l51 -21c22 27 44 63 55 87h186v50h-179v48h156
v44h-156v50h156v44h-156v52h205v50h-420v23h-64v-245c-18 23 -35 45 -54 63c-7 -13 -27 -44 -40 -58c56 -51 104 -129 131 -209zM400 783l4 60c-119 29 -246 58 -338 80l-17 -67c43 -8 98 -19 159 -32v-290h-147v-65h147v-108h-95v-44c-16 15 -31 30 -47 44
c-5 -17 -22 -57 -31 -75c75 -58 153 -150 199 -248l56 26c-7 14 -14 27 -21 41c61 42 121 91 159 130l-33 61c-38 -41 -100 -93 -158 -136c-32 49 -67 96 -104 136h238v65h-103v108h133v65h-133v277zM79 600l47 -13c18 58 35 135 39 184l-50 15c-4 -50 -19 -127 -36 -186z
M336 774l-44 -16c16 -49 36 -128 45 -183l53 18c-16 61 -37 135 -54 181zM802 723h-239c30 33 70 63 117 88c49 -24 91 -54 122 -88zM862 665l43 23c-35 63 -90 114 -156 155c67 25 144 45 221 55c-16 15 -34 42 -42 59c-89 -15 -174 -42 -248 -78c-83 38 -177 64 -271 79
c-6 -17 -21 -45 -32 -60c81 -10 162 -29 236 -57c-47 -31 -88 -66 -119 -107l31 -11h-111v-55h435z" />
</svg>
