<?xml version="1.0" standalone="no"?>
<!DOCTYPE svg PUBLIC "-//W3C//DTD SVG 1.1//EN" "http://www.w3.org/Graphics/SVG/1.1/DTD/svg11.dtd" >
<svg xmlns="http://www.w3.org/2000/svg" xmlns:xlink="http://www.w3.org/1999/xlink" version="1.1" viewBox="-10 0 1010 1000">
   <path fill="currentColor"
d="M361 781l5 59c-107 30 -220 60 -303 83l-15 -67c38 -9 88 -21 143 -33v-289h-134v-65h134v-108h-86v-44c-14 15 -28 30 -42 44c-5 -17 -20 -57 -29 -75c68 -59 138 -150 181 -248l50 26c-6 13 -12 27 -19 41c55 41 110 91 145 130l-29 61c-35 -42 -91 -94 -144 -137
c-29 50 -61 97 -95 137h215v65h-91v108h118v65h-118v275zM75 600l44 -14c16 59 30 134 35 184l-47 15c-3 -50 -18 -126 -32 -185zM308 775l-40 -17c14 -49 32 -129 40 -183l50 18c-17 62 -34 135 -50 182zM572 681v78h109v-78h-109zM572 562v74h109v-74h-109zM854 562h-116
v74h116v-74zM854 759v-78h-116v78h116zM654 327v74h113v-74h-113zM911 807h-119c61 33 127 76 166 110l-48 43c-38 -35 -102 -80 -163 -116l34 -37h-154l45 21c-47 50 -127 101 -190 131c-10 -14 -32 -41 -45 -54c61 -24 131 -60 174 -98h-95v-294h165v-56h-200
c-3 152 -19 351 -91 491c-11 -12 -38 -30 -52 -37c77 -147 84 -351 84 -499v-277h249c-15 -26 -35 -55 -52 -76l54 -29c28 31 56 74 72 105h204v61h-468v205h115v-74h-80v-54h80v-62h58v62h113v-61h58v61h90v54h-90v74h131v56h-218v56h173v294z" />
</svg>
