<?xml version="1.0" standalone="no"?>
<!DOCTYPE svg PUBLIC "-//W3C//DTD SVG 1.1//EN" "http://www.w3.org/Graphics/SVG/1.1/DTD/svg11.dtd" >
<svg xmlns="http://www.w3.org/2000/svg" xmlns:xlink="http://www.w3.org/1999/xlink" version="1.1" viewBox="-10 0 1010 1000">
   <path fill="currentColor"
d="M515 242v-63h-147v-61h147v-74h66v74h152v-73h64v73h150v61h-150v62h-64v-62h-152v63h-66zM764 851h-67v-88h-164v-47h164v-50h-123v-46h123v-51h-144v-47h144v-52h67v52h137v47h-137v51h121v46h-121v50h160v47h-160v88zM816 309h-172c23 24 53 46 88 66
c33 -19 61 -40 84 -66zM866 256l36 18c-25 52 -65 94 -113 127c49 20 101 35 155 42c-10 13 -25 35 -32 49c-61 -11 -121 -33 -174 -59c-62 31 -131 54 -202 67c-5 -14 -17 -37 -27 -51c60 -10 120 -26 174 -49c-27 -18 -51 -38 -71 -59c-20 20 -41 38 -63 53
c-8 -10 -28 -31 -41 -41c60 -36 115 -90 146 -151l51 15c-7 15 -16 29 -25 42h176zM496 389l-56 23c-11 -41 -38 -106 -65 -156l53 -20c26 48 56 113 68 153zM342 765l6 58c-97 33 -201 69 -276 93l-14 -65c32 -8 75 -21 121 -35v-285h-109v-62h109v-112h-75v-52
c-14 17 -27 32 -41 46c-5 -16 -18 -55 -27 -73c61 -56 125 -146 163 -240l46 25c-6 14 -12 28 -19 43c48 40 97 88 127 125l-29 60c-29 -40 -77 -91 -123 -132c-27 50 -58 97 -90 137h196v61h-74v112h100v62h-100v269zM76 600l42 -15c17 58 34 133 40 183l-46 17
c-4 -50 -21 -126 -36 -185zM287 773l-39 -17c14 -49 30 -128 38 -182l49 19c-16 62 -33 134 -48 180zM502 459v323c18 10 35 28 62 48c46 33 100 43 176 43c61 0 161 -4 226 -12c-7 17 -14 48 -15 66c-53 4 -157 7 -212 7c-82 0 -139 -14 -188 -51c-32 -25 -58 -52 -76 -52
c-28 0 -68 53 -109 114l-40 -56c41 -50 82 -90 117 -107v-263h-75v-60h134z" />
</svg>
