<?xml version="1.0" standalone="no"?>
<!DOCTYPE svg PUBLIC "-//W3C//DTD SVG 1.1//EN" "http://www.w3.org/Graphics/SVG/1.1/DTD/svg11.dtd" >
<svg xmlns="http://www.w3.org/2000/svg" xmlns:xlink="http://www.w3.org/1999/xlink" version="1.1" viewBox="-10 0 1010 1000">
   <path fill="currentColor"
d="M721 156h-146c-13 20 -28 39 -44 59h147c14 -17 30 -38 43 -59zM846 325v-62h-132v62h132zM846 434v-63h-132v63h132zM524 371v63h126v-63h-126zM524 263v62h126v-62h-126zM459 482v-190c-7 5 -14 12 -22 18c-11 -15 -33 -33 -49 -41c86 -68 148 -155 183 -226l66 12
c-8 16 -17 31 -27 48h149l14 -4l40 31c-18 28 -41 58 -64 85h165v267h-455zM792 595l-51 18c-6 -28 -24 -70 -44 -102l47 -15c22 29 41 70 48 99zM651 600l-52 13c-2 -27 -11 -70 -23 -103l49 -10c13 30 24 72 26 100zM267 810l124 -27l4 61c-117 28 -241 57 -332 78
l-16 -67c43 -7 99 -19 159 -32v-289h-141v-65h141v-108h-94v-47c-15 14 -29 28 -44 41c-5 -17 -22 -56 -31 -74c74 -58 150 -148 196 -243l55 26c-7 13 -14 27 -21 42c55 37 110 82 144 117l-32 61c-35 -37 -90 -85 -144 -124c-32 49 -68 96 -105 136h231v65h-94v108h126v65
h-126v276zM80 600l48 -13c17 58 33 135 38 184l-49 14c-5 -50 -21 -126 -37 -185zM333 774l-43 -16c16 -49 35 -129 44 -183l54 18c-18 61 -38 134 -55 181zM482 495l49 23c-21 41 -48 91 -80 124l-50 -28c32 -30 63 -80 81 -119zM830 695h-289v63h289v-63zM541 873h289v-63
h-289v63zM474 956v-315h425v314h-69v-28h-289v29h-67zM822 519l44 -27c39 33 77 80 95 113l-48 31c-17 -34 -55 -83 -91 -117z" />
</svg>
