<?xml version="1.0" standalone="no"?>
<!DOCTYPE svg PUBLIC "-//W3C//DTD SVG 1.1//EN" "http://www.w3.org/Graphics/SVG/1.1/DTD/svg11.dtd" >
<svg xmlns="http://www.w3.org/2000/svg" xmlns:xlink="http://www.w3.org/1999/xlink" version="1.1" viewBox="-10 0 1010 1000">
   <path fill="currentColor"
d="M659 131v60h-279v-60h112c-8 -25 -16 -52 -25 -75l58 -12c12 26 25 61 33 87h101zM497 317l-50 18c-7 -32 -22 -82 -36 -119l48 -15c15 37 31 86 38 116zM239 361v108h113v65h-113v275l109 -26l4 59c-103 29 -213 60 -292 81l-14 -67c37 -9 86 -20 139 -33v-289h-129v-65
h129v-108h-84v-41c-13 14 -25 28 -38 41c-4 -17 -19 -57 -27 -75c65 -59 131 -150 170 -248l47 26c-6 13 -11 27 -18 41c52 41 105 91 138 129l-29 62c-33 -41 -85 -94 -135 -137c-27 50 -57 97 -89 137h207v65h-88zM299 776l-39 -18c12 -49 30 -129 38 -183l49 20
c-16 62 -33 135 -48 181zM73 600l43 -14c14 58 29 135 33 184l-46 16c-4 -50 -17 -127 -30 -186zM459 713h122v-73h-122v73zM581 515h-122v73h122v-73zM640 459v418c0 29 -4 46 -24 57c-18 10 -45 11 -85 11c-3 -16 -11 -41 -20 -58c27 1 51 0 59 0s11 -2 11 -11v-111h-122
v191h-61v-497h242zM577 196l56 17c-15 42 -30 89 -44 128h74v61h-295v-61h169c15 -44 31 -103 40 -145zM786 883h90c20 0 24 -11 26 -73c14 12 40 23 59 27c-8 85 -27 110 -80 110h-104c-67 0 -86 -19 -86 -95v-444h177v-94h-177v-271h65v84h195v61h-195v69h177v208h-177v58
h172v52h-172v59h165v52h-165v61h182v51h-182v54c0 26 4 31 30 31z" />
</svg>
