<?xml version="1.0" standalone="no"?>
<!DOCTYPE svg PUBLIC "-//W3C//DTD SVG 1.1//EN" "http://www.w3.org/Graphics/SVG/1.1/DTD/svg11.dtd" >
<svg xmlns="http://www.w3.org/2000/svg" xmlns:xlink="http://www.w3.org/1999/xlink" version="1.1" viewBox="-10 0 1010 1000">
   <path fill="currentColor"
d="M357 234l-27 62c-31 -41 -82 -94 -130 -137c-26 50 -55 97 -87 137h201v65h-86v108h109v65h-109v276l105 -27l3 60c-97 28 -201 58 -277 79l-14 -67c35 -8 82 -19 132 -32v-289h-123v-65h123v-108h-79v-46c-14 16 -26 32 -40 46c-5 -17 -18 -57 -27 -75
c63 -59 128 -150 166 -248l46 25c-5 14 -11 28 -17 42c50 41 99 91 131 129zM283 775l-37 -18c12 -49 29 -128 37 -182l46 20c-15 61 -32 134 -46 180zM70 600l41 -14c15 58 29 134 33 183l-45 16c-3 -50 -16 -127 -29 -185zM560 137h-123v70h123v-70zM437 329h123v-72h-123
v72zM619 383h-182v573h-62v-874h244v301zM718 683l-28 -12c9 -21 24 -54 30 -72l37 15c-15 26 -28 51 -39 69zM550 610l32 -11c12 21 25 51 30 68l-34 15c-4 -20 -16 -49 -28 -72zM530 584v106h98v-106h-98zM770 690v-106h-101v106h101zM836 850l-38 44
c-21 -27 -92 -93 -122 -118v151h-55v-155c-37 52 -86 103 -129 132c-9 -12 -25 -30 -37 -40c47 -27 101 -80 138 -132h-106v-190h134v-43h-151v-49h151v-53h55v53h151v49h-151v43h139v190h-139v41l31 -22c23 15 109 81 129 99zM734 329h128v-72h-128v72zM862 137h-128v70
h128v-70zM926 82v800c0 34 -7 51 -29 62c-19 11 -53 13 -100 12c-3 -16 -11 -43 -20 -60c33 1 63 1 72 1c10 0 13 -4 13 -15v-499h-188v-301h252z" />
</svg>
