<?xml version="1.0" standalone="no"?>
<!DOCTYPE svg PUBLIC "-//W3C//DTD SVG 1.1//EN" "http://www.w3.org/Graphics/SVG/1.1/DTD/svg11.dtd" >
<svg xmlns="http://www.w3.org/2000/svg" xmlns:xlink="http://www.w3.org/1999/xlink" version="1.1" viewBox="-10 0 1010 1000">
   <path fill="currentColor"
d="M349 793l6 59c-101 25 -208 49 -290 68l-17 -66c34 -5 76 -14 123 -24v-296h-113v-65h113v-108h-68v-60c-10 12 -22 23 -33 33c-5 -15 -21 -55 -31 -72c62 -55 124 -137 160 -224l60 21c-6 17 -14 34 -23 51c46 36 93 77 125 106l-33 57c-31 -30 -79 -71 -124 -107
c-29 47 -62 92 -97 130h213v65h-90v108h118v65h-118v285zM66 600l46 -11c15 59 32 135 38 184l-48 12c-6 -50 -21 -126 -36 -185zM864 418h-111v46h111v-46zM753 555h111v-47h-111v47zM584 555h107v-47h-107v47zM691 418h-107v46h107v-46zM691 228h62v46h120
c-18 -18 -48 -38 -75 -51l35 -29c31 13 66 37 84 56l-27 24h60v51h-197v44h174v288h-63v-57h-111v48h-62v-48h-107v60h-60v-291h167v-44h-198v-51h198v-46zM367 262l50 -22c31 39 67 92 83 126l-54 26c-16 -35 -50 -91 -79 -130zM479 554l-54 26c-15 -34 -51 -90 -81 -130
l52 -22c31 38 67 92 83 126zM292 772l-43 -14c14 -49 31 -129 38 -182l53 15c-16 60 -33 134 -48 181zM401 943l-59 -21c28 -70 66 -185 92 -283l53 24c-24 92 -58 203 -86 280zM551 785l45 -33c41 32 87 76 110 106l-47 39c-23 -31 -68 -79 -108 -112zM856 645v50h99v56
h-99v136c0 32 -6 47 -29 57c-22 10 -55 11 -105 11c-3 -18 -12 -41 -21 -57c37 1 67 1 77 1c10 -1 13 -4 13 -13v-135h-303v-56h303v-50h65zM793 113h163v61h-163v46h-65v-46h-142v50h-65v-50h-158v-61h158v-70h65v70h142v-70h65v70z" />
</svg>
