<?xml version="1.0" standalone="no"?>
<!DOCTYPE svg PUBLIC "-//W3C//DTD SVG 1.1//EN" "http://www.w3.org/Graphics/SVG/1.1/DTD/svg11.dtd" >
<svg xmlns="http://www.w3.org/2000/svg" xmlns:xlink="http://www.w3.org/1999/xlink" version="1.1" viewBox="-10 0 1010 1000">
   <path fill="currentColor"
d="M950 251l-56 26c-17 -43 -54 -110 -88 -159l52 -23c36 49 74 113 92 156zM555 214l-38 38c-11 -11 -27 -27 -46 -42c-19 42 -40 78 -66 107c-10 -9 -37 -23 -51 -31c56 -57 90 -142 105 -239l57 8c-6 38 -15 73 -26 107c24 15 50 36 65 52zM232 361v108h114v65h-114v276
l108 -27l4 60c-102 28 -212 59 -291 79l-14 -66c37 -9 84 -20 137 -33v-289h-127v-65h127v-108h-81v-46c-14 16 -28 32 -42 46c-5 -17 -20 -57 -29 -75c66 -59 134 -150 174 -248l48 26c-5 13 -11 27 -17 41c52 41 104 91 137 129l-29 62c-33 -41 -86 -93 -135 -136
c-28 49 -60 96 -91 136h208v65h-87zM289 775l-40 -17c14 -49 31 -128 38 -182l51 20c-16 61 -33 133 -49 179zM65 600l44 -13c15 57 29 133 34 182l-48 16c-3 -50 -16 -126 -30 -185zM708 800l1 17c19 -23 37 -49 53 -77c-15 -92 -24 -211 -29 -351h-102v65h79v52h-79v66h76
v51h-76v66h82v52h-82v69zM524 389v434l54 -7v-427h-54zM869 444l57 28c-22 105 -56 198 -100 276c16 80 38 126 65 128c16 0 27 -46 32 -120c11 15 35 35 46 43c-18 123 -49 158 -80 157c-50 -2 -85 -51 -109 -136c-40 56 -85 102 -136 138c-10 -12 -29 -29 -42 -40
c23 -17 45 -35 66 -56c-110 16 -220 32 -302 43l-8 -61l113 -14v-89h-89v-52h89v-66h-83v-51h83v-67h-86v-51h86v-65h-120v-63h380l-1 -64l-32 41c-16 -24 -44 -57 -73 -88c-20 40 -43 75 -70 103c-10 -9 -34 -25 -49 -33c60 -55 96 -139 111 -237l57 8
c-6 39 -16 75 -27 108c31 31 64 67 83 92c-2 -67 -2 -138 -3 -211h64c-1 100 0 195 2 281h164v63h-162c3 97 9 183 17 254c24 -59 44 -126 57 -199z" />
</svg>
