<?xml version="1.0" standalone="no"?>
<!DOCTYPE svg PUBLIC "-//W3C//DTD SVG 1.1//EN" "http://www.w3.org/Graphics/SVG/1.1/DTD/svg11.dtd" >
<svg xmlns="http://www.w3.org/2000/svg" xmlns:xlink="http://www.w3.org/1999/xlink" version="1.1" viewBox="-10 0 1010 1000">
   <path fill="currentColor"
d="M893 345l35 42c-50 17 -117 32 -177 42v14c0 19 4 22 30 22h94c19 0 23 -6 26 -48c13 9 36 16 54 19c-6 59 -24 77 -72 77h-110c-69 0 -87 -14 -87 -70v-107h65v49c53 -12 107 -25 142 -40zM700 133h-175c-13 16 -28 32 -45 47h172c16 -13 34 -30 48 -47zM828 284v-58
h-343v58h343zM421 330v-107c-10 -13 -29 -30 -44 -38c68 -41 117 -95 143 -142l62 11c-7 11 -14 22 -22 34h180l11 -3l40 29c-17 23 -38 46 -61 66h165v150h-474zM371 778l8 59c-108 29 -224 60 -310 82l-20 -66c37 -7 85 -18 136 -31v-290h-129v-63h129v-111h-76v-50
c-13 13 -25 25 -38 36c-5 -14 -23 -49 -35 -64c70 -58 139 -145 180 -235l59 21c-5 13 -12 26 -19 40c53 42 107 91 140 128l-42 49c-32 -36 -82 -84 -129 -125c-30 50 -67 98 -104 138h214v62h-87v111h118v63h-118v275zM69 600l51 -13c20 59 38 135 44 185l-53 14
c-5 -50 -23 -127 -42 -186zM306 770l-44 -15c17 -48 38 -129 48 -183l56 17c-19 60 -40 134 -60 181zM480 741h127c10 -21 17 -44 22 -69h-149v69zM705 582h-178c-12 15 -25 29 -39 43h175c15 -13 29 -27 42 -43zM837 741v-69h-145c-4 25 -10 47 -18 69h163zM760 899h117
c25 0 30 -9 34 -70c13 8 35 16 52 19c-5 78 -23 98 -78 98h-132c-76 0 -96 -14 -96 -71v-87h-5c-45 81 -127 135 -280 169c-6 -15 -22 -37 -33 -49c125 -25 198 -64 241 -120h-165v-112c-12 -12 -31 -27 -44 -34c65 -40 113 -92 140 -140c-50 10 -64 14 -73 19
c-2 -15 -13 -40 -21 -51c12 -5 27 -12 27 -45v-88h60v33h153v44h-153v38l158 -20c-2 14 -4 35 -3 46c-54 8 -95 15 -124 20l45 8c-6 10 -12 20 -19 30h182l11 -3l42 30c-16 21 -35 43 -55 62h164v163h-184v87c0 21 5 24 39 24zM873 854l-36 34c-20 -19 -59 -48 -92 -67
l36 -29c32 17 72 42 92 62z" />
</svg>
