<?xml version="1.0" standalone="no"?>
<!DOCTYPE svg PUBLIC "-//W3C//DTD SVG 1.1//EN" "http://www.w3.org/Graphics/SVG/1.1/DTD/svg11.dtd" >
<svg xmlns="http://www.w3.org/2000/svg" xmlns:xlink="http://www.w3.org/1999/xlink" version="1.1" viewBox="-10 0 1010 1000">
   <path fill="currentColor"
d="M265 814l129 -29l4 59c-114 27 -236 55 -323 77l-16 -66c40 -7 91 -17 147 -30v-293h-143v-63h143v-111h-87v-49c-18 18 -34 35 -52 50c-5 -17 -21 -56 -30 -73c74 -59 150 -151 195 -248l53 25c-6 14 -13 29 -21 44c58 39 118 87 154 125l-31 59
c-37 -40 -97 -91 -153 -132c-31 50 -66 96 -103 137h231v62h-97v111h126v63h-126v282zM77 600l47 -13c17 58 34 134 38 183l-49 15c-4 -50 -19 -126 -36 -185zM334 773l-42 -15c15 -49 34 -129 43 -183l54 18c-18 61 -37 134 -55 180zM680 220h-143l30 9
c-9 19 -20 38 -31 56h124c-7 -17 -15 -36 -22 -51zM665 374v-42h-149v42h149zM665 459v-43h-149v43h149zM665 546v-45h-149v45h149zM454 620v-231c-18 18 -35 35 -53 48c-9 -12 -30 -35 -43 -46c60 -42 115 -104 148 -171h-80v-148h61v95h151v-123h62v123h154v-95h65v148
h-225c11 20 23 46 31 65h199v47h-197v42h168v42h-168v43h171v42h-171v45h210v47h-421v27h-62zM791 772v125c35 1 62 1 71 0c11 0 13 -3 13 -13v-202h-131c43 26 91 56 116 78l-25 35c-31 -26 -90 -68 -138 -96l15 -17h-86l28 10c-26 27 -60 55 -92 80h229zM742 865v-54h-128
v54h128zM938 631v253c0 32 -6 46 -28 56c-20 9 -56 9 -105 9c-3 -14 -8 -30 -14 -44h-177v30h-53v-163c-13 10 -25 19 -37 25l-39 -28c40 -21 87 -53 122 -87h-130v275h-61v-326h522z" />
</svg>
