<?xml version="1.0" standalone="no"?>
<!DOCTYPE svg PUBLIC "-//W3C//DTD SVG 1.1//EN" "http://www.w3.org/Graphics/SVG/1.1/DTD/svg11.dtd" >
<svg xmlns="http://www.w3.org/2000/svg" xmlns:xlink="http://www.w3.org/1999/xlink" version="1.1" viewBox="-10 0 1010 1000">
   <path fill="currentColor"
d="M558 233v-56h-132v-59h132v-74h62v74h131v-74h64v74h135v59h-135v56h-64v-56h-131v56h-62zM266 534v276c43 -8 88 -18 132 -28l4 60c-118 29 -245 59 -337 80l-16 -67c42 -8 98 -19 159 -32v-289h-148v-65h148v-108h-95v-44c-16 15 -31 30 -47 44c-5 -17 -21 -57 -30 -75
c75 -58 152 -149 198 -247l55 25l-21 42c60 41 120 91 159 130l-33 60c-38 -41 -99 -93 -157 -136c-32 49 -68 96 -104 136h236v65h-103v108h133v65h-133zM80 600l46 -13c17 58 33 134 38 183l-49 15c-4 -50 -19 -127 -35 -185zM335 773l-43 -16c17 -49 36 -128 46 -182
l51 18c-17 61 -36 134 -54 180zM555 797v62h146v-62h-146zM701 639v-60h-146v60h146zM701 748v-60h-146v60h146zM507 301v91h99v-91h-99zM756 301v91h104v-91h-104zM955 859v56h-400v42h-63v-315c-17 20 -33 36 -50 52c-10 -11 -33 -33 -48 -43c63 -52 121 -129 156 -207
h-96v-195h207v195h-93l43 14c-10 22 -22 44 -33 65h127c-14 -19 -29 -38 -45 -54l46 -25h-5v-195h216v195h-205c25 23 50 55 66 79h156v56h-171v60h146v49h-146v60h146v49h-146v62h192z" />
</svg>
