<?xml version="1.0" standalone="no"?>
<!DOCTYPE svg PUBLIC "-//W3C//DTD SVG 1.1//EN" "http://www.w3.org/Graphics/SVG/1.1/DTD/svg11.dtd" >
<svg xmlns="http://www.w3.org/2000/svg" xmlns:xlink="http://www.w3.org/1999/xlink" version="1.1" viewBox="-10 0 1010 1000">
   <path fill="currentColor"
d="M819 188v-60h-126v60h126zM819 296v-61h-126v61h126zM511 235v61h121v-61h-121zM511 128v60h121v-60h-121zM883 79v267h-434v-267h434zM721 541v61h61v-61h-61zM721 435v60h61v-60h-61zM888 495v-60h-61v60h61zM888 602v-61h-61v61h61zM674 650v-264h262v264h-262z
M432 541v62h59v-62h-59zM432 435v60h59v-60h-59zM590 495v-60h-55v60h55zM590 603v-62h-55v62h55zM385 652v-266h253v266h-253zM247 810l114 -29l4 61c-106 28 -219 59 -301 80l-14 -67c37 -7 87 -19 139 -32v-289h-128v-65h128v-108h-82v-45c-11 11 -22 22 -32 33
c-7 -15 -27 -48 -39 -64c70 -59 136 -150 177 -247l52 25c-6 13 -12 27 -19 41c58 43 117 96 151 137l-42 55c-33 -41 -85 -93 -138 -136c-28 50 -60 97 -93 136h209v65h-86v108h115v65h-115v276zM79 600l45 -14c15 58 29 134 34 183l-48 16c-3 -50 -17 -126 -31 -185z
M309 772l-43 -15c15 -49 31 -130 39 -183l53 17c-16 62 -33 134 -49 181zM689 873h264v60h-586v-60h256v-79h-202v-60h202v-74h66v74h212v60h-212v79z" />
</svg>
