<?xml version="1.0" standalone="no"?>
<!DOCTYPE svg PUBLIC "-//W3C//DTD SVG 1.1//EN" "http://www.w3.org/Graphics/SVG/1.1/DTD/svg11.dtd" >
<svg xmlns="http://www.w3.org/2000/svg" xmlns:xlink="http://www.w3.org/1999/xlink" version="1.1" viewBox="-10 0 1010 1000">
   <path fill="currentColor"
d="M504 227h-318c-32 51 -67 95 -104 132c-6 -17 -27 -55 -39 -73c62 -58 119 -148 151 -240l69 21c-11 30 -25 61 -39 90h280v70zM335 828l172 -79c1 21 5 52 10 67c-218 108 -249 123 -269 141c-6 -21 -20 -57 -33 -77c18 -10 46 -31 46 -71v-195h-197v-71h197v-131h-144
v-72h365v72h-147v131h179v71h-179v214zM694 147v576h-71v-576h71zM835 51h73v806c0 50 -14 72 -45 84c-31 13 -85 15 -175 15c-4 -21 -15 -55 -27 -76c69 3 130 2 149 2c18 -1 25 -6 25 -25v-806z" />
</svg>
