<?xml version="1.0" standalone="no"?>
<!DOCTYPE svg PUBLIC "-//W3C//DTD SVG 1.1//EN" "http://www.w3.org/Graphics/SVG/1.1/DTD/svg11.dtd" >
<svg xmlns="http://www.w3.org/2000/svg" xmlns:xlink="http://www.w3.org/1999/xlink" version="1.1" viewBox="-10 0 1010 1000">
   <path fill="currentColor"
d="M474 234h-291c-30 48 -63 90 -100 125c-6 -17 -25 -56 -39 -73c63 -58 120 -148 152 -240l69 21c-12 32 -26 65 -43 96h252v71zM316 812l163 -86c3 19 11 49 17 63c-214 120 -244 138 -260 156c-8 -17 -28 -46 -42 -60c19 -12 49 -42 49 -87v-191h-172v-71h172v-132h-122
v-70h335v70h-140v132h168v71h-168v205zM658 375l37 -32c84 68 197 163 253 222l-59 55c-50 -56 -150 -146 -231 -215v551h-79v-905h79v324z" />
</svg>
