<?xml version="1.0" standalone="no"?>
<!DOCTYPE svg PUBLIC "-//W3C//DTD SVG 1.1//EN" "http://www.w3.org/Graphics/SVG/1.1/DTD/svg11.dtd" >
<svg xmlns="http://www.w3.org/2000/svg" xmlns:xlink="http://www.w3.org/1999/xlink" version="1.1" viewBox="-10 0 1010 1000">
   <path fill="currentColor"
d="M868 280h-280c-25 72 -57 136 -96 187c-10 -14 -37 -43 -52 -54c67 -88 110 -222 135 -361l71 13c-10 50 -22 99 -35 146h281l13 -3l50 15c-22 88 -56 190 -88 253l-60 -19c22 -46 45 -114 61 -177zM439 229h-267c-29 49 -63 91 -97 127c-7 -16 -27 -53 -39 -70
c60 -58 115 -147 147 -240l66 20c-11 31 -24 62 -39 92h229v71zM287 817l142 -70c2 20 7 48 13 64c-193 101 -222 116 -239 133c-6 -19 -20 -51 -33 -69c18 -8 47 -32 47 -72v-199h-151v-68h151v-135h-107v-67h307v67h-130v135h152v68h-152v213zM716 348v58
c0 32 -1 68 -5 108c43 160 128 314 238 384c-15 14 -37 39 -48 57c-92 -65 -165 -179 -216 -312c-31 108 -94 221 -218 317c-13 -15 -38 -34 -57 -46c216 -164 237 -379 237 -509v-57h69z" />
</svg>
