<?xml version="1.0" standalone="no"?>
<!DOCTYPE svg PUBLIC "-//W3C//DTD SVG 1.1//EN" "http://www.w3.org/Graphics/SVG/1.1/DTD/svg11.dtd" >
<svg xmlns="http://www.w3.org/2000/svg" xmlns:xlink="http://www.w3.org/1999/xlink" version="1.1" viewBox="-10 0 1010 1000">
   <path fill="currentColor"
d="M268 401v135h145v68h-145v201l125 -80c4 20 12 48 19 62c-186 125 -214 143 -230 163c-6 -19 -22 -50 -34 -66c18 -11 50 -37 50 -80v-200h-139v-68h139v-135h-93v-67h287v67h-124zM188 46l67 20c-12 31 -24 62 -40 92h203v69h-242c-30 49 -64 92 -101 128
c-5 -15 -25 -53 -38 -69c63 -58 119 -148 151 -240zM806 580l16 60c-120 62 -248 128 -343 175l-25 -69c87 -38 224 -104 352 -166zM740 512l-52 50c-33 -43 -104 -110 -163 -156l48 -44c62 45 132 107 167 150zM601 199h335s-1 29 -1 38c-13 469 -24 626 -61 675
c-22 28 -43 37 -79 40c-32 4 -91 3 -146 -1c-2 -21 -10 -51 -23 -71c62 5 119 5 142 5c19 0 29 -3 40 -16c31 -34 43 -188 55 -600h-294c-23 49 -49 94 -76 130c-13 -12 -44 -32 -63 -42c64 -77 116 -196 148 -313l71 18c-14 46 -30 93 -48 137z" />
</svg>
