<?xml version="1.0" standalone="no"?>
<!DOCTYPE svg PUBLIC "-//W3C//DTD SVG 1.1//EN" "http://www.w3.org/Graphics/SVG/1.1/DTD/svg11.dtd" >
<svg xmlns="http://www.w3.org/2000/svg" xmlns:xlink="http://www.w3.org/1999/xlink" version="1.1" viewBox="-10 0 1010 1000">
   <path fill="currentColor"
d="M367 229h-202c-25 48 -53 91 -83 126c-7 -15 -26 -52 -39 -69c52 -59 95 -149 120 -240l66 18c-8 31 -19 64 -32 94h170v71zM260 810l114 -66c3 20 11 49 17 63c-169 103 -197 121 -213 138c-8 -14 -26 -39 -39 -51c18 -13 53 -48 53 -96v-194h-126v-68h126v-135h-80v-67
h231v67h-83v135h112v68h-112v206zM951 264h-338c-24 60 -52 114 -84 165h135v-117h67v117h188v306c0 34 -6 54 -30 66s-60 13 -114 13c-3 -21 -11 -48 -20 -67h81c11 0 14 -4 14 -14v-236h-119v459h-67v-459h-120v325h-70v-315c-21 27 -44 52 -68 75c-8 -16 -30 -53 -44 -69
c71 -64 130 -149 175 -249h-126v-70h154c19 -49 34 -101 46 -154l70 16c-12 47 -26 94 -41 138h311v70z" />
</svg>
