<?xml version="1.0" standalone="no"?>
<!DOCTYPE svg PUBLIC "-//W3C//DTD SVG 1.1//EN" "http://www.w3.org/Graphics/SVG/1.1/DTD/svg11.dtd" >
<svg xmlns="http://www.w3.org/2000/svg" xmlns:xlink="http://www.w3.org/1999/xlink" version="1.1" viewBox="-10 0 1010 1000">
   <path fill="currentColor"
d="M925 190l-54 32c-19 -35 -62 -95 -96 -138l51 -27c35 42 78 100 99 133zM271 401v135h130v68h-130v216l114 -56c2 19 8 49 14 63c-174 92 -201 106 -217 123c-6 -20 -18 -54 -31 -73c19 -7 47 -27 47 -65v-208h-138v-68h138v-135h-93v-67h272v67h-106zM188 46l67 20
c-12 31 -24 62 -40 92h187v69h-226c-30 49 -64 93 -101 128c-5 -15 -25 -53 -38 -69c63 -58 119 -148 151 -240zM856 381l67 10c-25 146 -63 269 -121 369c22 79 47 118 71 118c18 0 29 -32 34 -146c15 15 37 32 54 37c-11 152 -35 178 -95 179c-45 0 -82 -40 -110 -119
c-39 51 -84 95 -135 133c-11 -12 -39 -35 -55 -46c68 -43 122 -100 166 -167c-26 -106 -44 -254 -54 -438h-152v465l111 -64c3 19 11 48 17 63c-174 106 -202 124 -217 142c-6 -20 -21 -53 -34 -72c20 -9 50 -31 50 -70v-533h221c-3 -63 -5 -128 -6 -199h70
c0 71 1 137 3 199h213v69h-210c7 144 20 260 35 349c36 -81 60 -174 77 -279z" />
</svg>
