<?xml version="1.0" standalone="no"?>
<!DOCTYPE svg PUBLIC "-//W3C//DTD SVG 1.1//EN" "http://www.w3.org/Graphics/SVG/1.1/DTD/svg11.dtd" >
<svg xmlns="http://www.w3.org/2000/svg" xmlns:xlink="http://www.w3.org/1999/xlink" version="1.1" viewBox="-10 0 1010 1000">
   <path fill="currentColor"
d="M421 225h-248c-31 50 -66 94 -102 130c-6 -15 -26 -53 -38 -69c62 -58 119 -148 152 -240l65 20c-10 30 -24 61 -39 90h210v69zM282 827l130 -63c2 18 8 47 12 61c-183 98 -211 113 -228 129c-7 -15 -26 -40 -39 -52c20 -14 55 -49 55 -97v-201h-152v-68h152v-135h-107
v-67h289v67h-112v135h130v68h-130v223zM813 592h-264v240h264v-240zM479 959v-432h407v428h-73v-57h-264v61h-70zM852 415h55c12 0 32 -1 43 -4c1 18 3 40 6 56c-11 4 -31 5 -47 5h-65c-63 0 -76 -27 -76 -97v-214h-180v49c0 97 -24 224 -133 308c-11 -13 -37 -37 -51 -46
c100 -78 116 -182 116 -263v-115h316v282c0 30 2 39 16 39z" />
</svg>
