<?xml version="1.0" standalone="no"?>
<!DOCTYPE svg PUBLIC "-//W3C//DTD SVG 1.1//EN" "http://www.w3.org/Graphics/SVG/1.1/DTD/svg11.dtd" >
<svg xmlns="http://www.w3.org/2000/svg" xmlns:xlink="http://www.w3.org/1999/xlink" version="1.1" viewBox="-10 0 1010 1000">
   <path fill="currentColor"
d="M363 225h-200c-24 49 -52 92 -83 128c-6 -15 -24 -51 -37 -67c52 -59 95 -149 120 -240l64 17c-8 31 -20 64 -33 95h169v67zM256 810l100 -57c4 20 12 48 18 63c-158 95 -185 113 -200 129c-8 -14 -26 -39 -39 -51c18 -13 53 -48 53 -96v-194h-123v-68h123v-135h-76v-67
h223v67h-79v135h109v68h-109v206zM478 192v468l90 -26c7 -47 8 -92 8 -133v-290h62v290c0 150 -19 343 -210 460c-9 -14 -29 -36 -42 -47c96 -54 143 -130 167 -210c-107 35 -128 45 -141 56c-5 -15 -20 -42 -30 -55c13 -8 31 -24 31 -65v-478c60 -29 144 -78 192 -115
l55 46c-55 37 -125 73 -182 99zM926 137v560c0 32 -6 50 -28 61c-20 10 -53 11 -108 11c-3 -16 -11 -41 -19 -57c39 1 71 1 81 0s14 -4 14 -15v-497h-105v757h-64v-820h229z" />
</svg>
