<?xml version="1.0" standalone="no"?>
<!DOCTYPE svg PUBLIC "-//W3C//DTD SVG 1.1//EN" "http://www.w3.org/Graphics/SVG/1.1/DTD/svg11.dtd" >
<svg xmlns="http://www.w3.org/2000/svg" xmlns:xlink="http://www.w3.org/1999/xlink" version="1.1" viewBox="-10 0 1010 1000">
   <path fill="currentColor"
d="M401 234h-231c-28 47 -60 88 -93 123c-6 -17 -26 -54 -39 -71c60 -58 114 -147 144 -240l67 20c-12 32 -25 66 -40 97h192v71zM273 815l118 -57c2 19 7 47 12 62c-137 74 -183 99 -204 114l-13 11c-6 -18 -20 -54 -33 -72c19 -10 48 -31 48 -70v-199h-138v-68h138v-135
h-87v-67h257v67h-98v135h122v68h-122v211zM675 391h-147v180h147v-180zM602 872h225c50 0 59 -21 65 -121c16 12 43 23 62 27c-10 121 -31 156 -124 156h-231c-106 0 -136 -22 -136 -113v-449c-7 10 -14 19 -21 28c-9 -13 -36 -39 -50 -50c64 -74 115 -189 145 -305l66 16
c-9 32 -20 66 -31 97h328v34c-2 342 -3 455 -25 488c-15 22 -34 30 -61 33c-25 3 -65 2 -107 0c-1 -19 -9 -48 -20 -66c41 3 79 4 96 4c14 0 22 -2 29 -14c14 -22 17 -124 18 -414h-284c-17 39 -37 76 -56 109h248v298h-210v191c0 42 12 51 74 51z" />
</svg>
