<?xml version="1.0" standalone="no"?>
<!DOCTYPE svg PUBLIC "-//W3C//DTD SVG 1.1//EN" "http://www.w3.org/Graphics/SVG/1.1/DTD/svg11.dtd" >
<svg xmlns="http://www.w3.org/2000/svg" xmlns:xlink="http://www.w3.org/1999/xlink" version="1.1" viewBox="-10 0 1010 1000">
   <path fill="currentColor"
d="M407 228h-236c-29 49 -61 92 -95 128c-7 -16 -27 -53 -40 -70c60 -58 113 -147 144 -240l65 20c-10 30 -22 62 -37 91h199v71zM276 817l122 -64c1 20 9 49 15 64c-178 100 -206 116 -222 133c-6 -18 -23 -48 -36 -64c19 -11 50 -38 50 -81v-201h-142v-68h142v-135h-98
v-67h282v67h-113v135h136v68h-136v213zM959 922l-66 27c-6 -22 -17 -50 -31 -79c-325 32 -366 37 -391 49c-4 -15 -17 -50 -26 -69c25 -6 54 -37 96 -84c25 -28 86 -103 150 -195c-158 13 -186 18 -203 25c-4 -14 -15 -49 -23 -67c18 -4 34 -25 54 -54
c19 -24 70 -108 110 -198h-197v-69h265c-15 -38 -49 -95 -77 -137l60 -29c32 43 66 101 83 139l-53 27h243v69h-247c-39 85 -89 169 -139 237l169 -11c30 -46 59 -95 85 -143l67 34c-97 162 -209 317 -322 437l266 -23c-23 -41 -48 -84 -73 -122l61 -23
c58 81 117 189 139 259z" />
</svg>
