<?xml version="1.0" standalone="no"?>
<!DOCTYPE svg PUBLIC "-//W3C//DTD SVG 1.1//EN" "http://www.w3.org/Graphics/SVG/1.1/DTD/svg11.dtd" >
<svg xmlns="http://www.w3.org/2000/svg" xmlns:xlink="http://www.w3.org/1999/xlink" version="1.1" viewBox="-10 0 1010 1000">
   <path fill="currentColor"
d="M770 188l-47 55c-40 -44 -123 -109 -189 -151l43 -48c66 40 152 101 193 144zM464 684l-60 -19c34 -79 52 -205 60 -305l57 12c-9 99 -26 234 -57 312zM407 229h-242c-25 48 -53 91 -82 126c-7 -15 -27 -52 -40 -69c52 -59 95 -149 120 -240l67 18c-9 31 -20 64 -33 94
h210v71zM276 806l110 -66c4 19 12 47 19 61c-168 107 -195 126 -210 144l-1 -4v4c-8 -15 -26 -39 -38 -51c18 -14 52 -48 52 -96v-194h-142v-68h142v-135h-96v-67h268v67h-104v135h130v68h-130v202zM686 874h122c35 0 41 -25 45 -149c16 13 44 25 64 30
c-9 142 -28 184 -103 184h-136c-84 0 -106 -24 -106 -113v-23c-44 51 -93 98 -146 139c-12 -14 -43 -39 -60 -51c78 -56 147 -125 206 -202v-433h71v329c84 -138 147 -300 195 -480l72 15c-27 101 -60 196 -97 285l57 -17c48 94 86 216 98 297l-68 19
c-10 -78 -46 -199 -90 -291c-47 111 -102 213 -167 302v111c0 40 6 48 43 48z" />
</svg>
