<?xml version="1.0" standalone="no"?>
<!DOCTYPE svg PUBLIC "-//W3C//DTD SVG 1.1//EN" "http://www.w3.org/Graphics/SVG/1.1/DTD/svg11.dtd" >
<svg xmlns="http://www.w3.org/2000/svg" xmlns:xlink="http://www.w3.org/1999/xlink" version="1.1" viewBox="-10 0 1010 1000">
   <path fill="currentColor"
d="M378 230h-207c-28 48 -60 90 -94 125c-6 -16 -25 -53 -38 -70c60 -58 113 -147 143 -240l67 20c-11 32 -24 66 -40 97h169v68zM648 226v113h50c33 -36 64 -74 92 -113h-142zM955 407h-229c-27 29 -56 57 -86 83h291v62h-327c-10 39 -21 78 -31 113h309l-3 31
c-17 145 -32 207 -60 233c-20 19 -41 24 -76 25c-31 2 -93 2 -157 -2c-2 -21 -11 -47 -25 -66c66 6 135 7 159 7c21 0 32 -1 43 -9c17 -15 31 -59 42 -156h-322c15 -39 30 -94 44 -148c-44 33 -89 61 -135 86c-9 -14 -32 -44 -47 -57l12 -6h-95v223l133 -67c2 20 8 50 13 63
c-171 93 -197 108 -213 124c-7 -18 -26 -50 -38 -66c14 -10 36 -32 36 -72v-205h-131v-68h131v-135h-79v-67h242v67h-94v135h118v55c90 -49 175 -112 252 -183h-248v-68h192v-113h-153v-65h153v-118h72v118h150v53c27 -40 53 -82 75 -126l65 24c-43 82 -94 158 -152 227h169
v68z" />
</svg>
