<?xml version="1.0" standalone="no"?>
<!DOCTYPE svg PUBLIC "-//W3C//DTD SVG 1.1//EN" "http://www.w3.org/Graphics/SVG/1.1/DTD/svg11.dtd" >
<svg xmlns="http://www.w3.org/2000/svg" xmlns:xlink="http://www.w3.org/1999/xlink" version="1.1" viewBox="-10 0 1010 1000">
   <path fill="currentColor"
d="M265 815l119 -65c3 20 10 48 17 63c-177 104 -206 120 -221 137c-7 -15 -24 -42 -37 -54c19 -13 52 -44 52 -90v-202h-136v-68h136v-135h-86v-67h287v67h-131v135h132v68h-132v211zM180 46l67 19c-11 30 -23 61 -37 90h199v69h-236c-29 51 -63 95 -99 132
c-5 -16 -25 -53 -38 -70c61 -58 114 -148 144 -240zM741 478h-112v181h112v-181zM792 719h-163v58h-49v-358h212v300zM812 256v63h-249v-63h249zM928 89v776c0 41 -8 63 -34 76c-27 11 -71 13 -136 13c-3 -19 -13 -51 -22 -71c50 2 96 2 111 1c13 0 17 -5 17 -19v-708h-357
v800h-64v-868h485z" />
</svg>
