<?xml version="1.0" standalone="no"?>
<!DOCTYPE svg PUBLIC "-//W3C//DTD SVG 1.1//EN" "http://www.w3.org/Graphics/SVG/1.1/DTD/svg11.dtd" >
<svg xmlns="http://www.w3.org/2000/svg" xmlns:xlink="http://www.w3.org/1999/xlink" version="1.1" viewBox="-10 0 1010 1000">
   <path fill="currentColor"
d="M743 374v-200c-43 8 -86 16 -127 23c-3 -16 -13 -40 -21 -56c105 -19 230 -48 298 -80l51 54c-39 15 -86 30 -136 43v216h117v66h-117v236h138v65h-348v-65h145v-236h-120v-66h120zM334 225h-178c-26 49 -56 92 -88 128c-6 -14 -24 -47 -35 -62c56 -59 105 -151 133 -245
l59 17c-10 31 -21 62 -34 92h143v70zM242 817l91 -53c3 19 11 46 17 60c-150 92 -176 109 -190 126c-6 -15 -25 -40 -37 -52c19 -12 53 -46 53 -93v-201h-121v-68h121v-135h-76v-67h222v67h-80v135h96v68h-96v213zM805 862h161c-10 17 -21 49 -24 69h-142
c-123 0 -229 -23 -309 -118c-34 62 -76 109 -127 144c-9 -16 -26 -40 -40 -53c50 -33 92 -83 125 -150c-31 -52 -56 -120 -76 -205l52 -20c14 61 31 112 52 153c22 -65 36 -142 45 -231h-155c36 -79 81 -196 116 -299h-127v-65h219c-33 95 -77 213 -115 302h78l12 -2l38 7
c-10 149 -33 264 -68 356c75 92 175 112 285 112z" />
</svg>
