<?xml version="1.0" standalone="no"?>
<!DOCTYPE svg PUBLIC "-//W3C//DTD SVG 1.1//EN" "http://www.w3.org/Graphics/SVG/1.1/DTD/svg11.dtd" >
<svg xmlns="http://www.w3.org/2000/svg" xmlns:xlink="http://www.w3.org/1999/xlink" version="1.1" viewBox="-10 0 1010 1000">
   <path fill="currentColor"
d="M413 228h-239c-30 48 -63 91 -98 127c-6 -16 -26 -52 -37 -69c60 -58 115 -148 147 -240l65 20c-10 31 -23 62 -39 92h201v70zM284 821l135 -66c2 19 8 48 12 63c-188 99 -217 116 -233 131c-8 -15 -28 -41 -41 -54c20 -13 55 -48 55 -97v-194h-148v-68h148v-134h-101
v-68h271v68h-98v134h133v68h-133v217zM599 841h242v-224h-242v224zM911 550v403h-70v-44h-242v48h-70v-319c-23 12 -46 24 -69 34c-9 -19 -28 -45 -42 -59c78 -30 156 -79 227 -141c-33 -36 -81 -79 -124 -110l53 -41c41 29 87 67 121 101c54 -58 100 -126 131 -200h-222
c-40 57 -89 114 -148 162c-11 -16 -34 -36 -51 -46c109 -83 181 -200 217 -295l71 13c-14 32 -29 65 -47 98h213l13 -3l44 23c-50 158 -146 284 -258 376h253z" />
</svg>
