<?xml version="1.0" standalone="no"?>
<!DOCTYPE svg PUBLIC "-//W3C//DTD SVG 1.1//EN" "http://www.w3.org/Graphics/SVG/1.1/DTD/svg11.dtd" >
<svg xmlns="http://www.w3.org/2000/svg" xmlns:xlink="http://www.w3.org/1999/xlink" version="1.1" viewBox="-10 0 1010 1000">
   <path fill="currentColor"
d="M387 225h-212c-29 50 -63 95 -99 132c-5 -17 -25 -54 -38 -71c60 -58 114 -147 144 -240l67 20c-11 30 -23 62 -37 91h175v68zM263 821l126 -67c3 20 10 49 15 64c-178 99 -205 115 -222 132c-7 -15 -25 -40 -38 -53c20 -12 51 -41 51 -88v-205h-132v-68h132v-135h-81
v-67h252v67h-103v135h122v68h-122v217zM821 646v-107h-127v107h127zM694 370v101h127v-101h-127zM735 198h-155c-23 37 -48 73 -75 105h162c23 -29 48 -69 68 -105zM956 471v68h-67v214h-68v-40h-127v156c0 41 -9 60 -36 72c-28 11 -73 12 -144 12c-3 -20 -12 -48 -22 -68
c52 2 100 2 114 1c15 0 19 -4 19 -17v-156h-170v-67h170v-107h-204v-68h204v-101h-147v-34c-13 13 -24 26 -37 38c-12 -13 -39 -37 -56 -47c80 -69 154 -175 197 -283l69 18c-10 24 -22 47 -34 71h159l12 -4l47 33c-25 45 -59 98 -91 141h145v168h67z" />
</svg>
