<?xml version="1.0" standalone="no"?>
<!DOCTYPE svg PUBLIC "-//W3C//DTD SVG 1.1//EN" "http://www.w3.org/Graphics/SVG/1.1/DTD/svg11.dtd" >
<svg xmlns="http://www.w3.org/2000/svg" xmlns:xlink="http://www.w3.org/1999/xlink" version="1.1" viewBox="-10 0 1010 1000">
   <path fill="currentColor"
d="M353 229h-198c-25 48 -53 91 -83 126c-7 -15 -26 -52 -38 -69c51 -59 94 -149 119 -240l66 18c-8 31 -19 64 -32 94h166v71zM248 806l112 -68c3 20 12 49 19 63c-170 108 -197 126 -213 144c-8 -16 -28 -43 -42 -56c19 -14 56 -50 56 -97v-188h-123v-68h123v-135h-78v-67
h234v67h-88v135h116v68h-116v202zM673 567h229s-1 21 -3 31c-20 210 -40 291 -71 322c-17 19 -35 25 -62 27c-23 2 -64 2 -109 -1c-1 -20 -7 -47 -18 -66c42 5 82 6 99 6c15 0 24 -2 34 -11c21 -19 38 -86 55 -245h-166c-31 139 -98 253 -259 322c-8 -16 -27 -39 -42 -51
c143 -57 204 -154 234 -271h-167v-63h180c5 -31 8 -64 11 -97h67c-3 33 -7 66 -12 97zM405 509v-161h533v161h-65v-95h-404v95h-64zM829 147h126v67h-126v90h-68v-90h-163v90h-68v-90h-144v-67h144v-102h68v102h163v-102h68v102z" />
</svg>
