<?xml version="1.0" standalone="no"?>
<!DOCTYPE svg PUBLIC "-//W3C//DTD SVG 1.1//EN" "http://www.w3.org/Graphics/SVG/1.1/DTD/svg11.dtd" >
<svg xmlns="http://www.w3.org/2000/svg" xmlns:xlink="http://www.w3.org/1999/xlink" version="1.1" viewBox="-10 0 1010 1000">
   <path fill="currentColor"
d="M933 181l-61 29c-16 -33 -53 -86 -86 -123l57 -25c35 36 72 86 90 119zM350 229h-195c-24 48 -52 91 -82 127c-7 -16 -26 -53 -38 -69c51 -60 93 -149 118 -241l67 19c-10 31 -20 64 -33 94h163v70zM242 814l97 -49c2 19 7 49 12 64c-150 81 -176 96 -191 110v1
c-8 -14 -27 -40 -39 -52c18 -12 52 -47 52 -96v-188h-121v-68h121v-134h-81v-68h235v68h-85v134h108v68h-108v210zM383 761l-52 -22c26 -54 48 -143 59 -206l49 19c-11 64 -31 154 -56 209zM613 534l52 -16c33 71 66 164 77 220l-48 18c-8 121 -25 153 -79 152
c-14 0 -65 0 -77 -1c-64 0 -79 -21 -78 -91l3 -323l66 2l-3 323c0 23 3 27 22 27h61c19 0 23 -16 26 -127c11 9 30 18 47 24c-13 -58 -41 -142 -69 -208zM653 450l-51 40c-29 -38 -93 -93 -146 -130l48 -35c55 35 118 88 149 125zM951 297h-171c15 341 62 588 103 588
c14 0 23 -66 25 -189c15 16 39 31 57 38c-9 169 -29 220 -91 220c-99 0 -145 -291 -161 -657h-340v-65h338c-2 -62 -3 -124 -4 -188h70c-1 65 0 127 2 188h172v65z" />
</svg>
