<?xml version="1.0" standalone="no"?>
<!DOCTYPE svg PUBLIC "-//W3C//DTD SVG 1.1//EN" "http://www.w3.org/Graphics/SVG/1.1/DTD/svg11.dtd" >
<svg xmlns="http://www.w3.org/2000/svg" xmlns:xlink="http://www.w3.org/1999/xlink" version="1.1" viewBox="-10 0 1010 1000">
   <path fill="currentColor"
d="M398 229h-232c-29 48 -60 92 -93 127c-6 -16 -25 -53 -37 -70c58 -58 110 -147 139 -240l64 20c-10 31 -23 62 -37 92h196v71zM268 819l111 -56c2 21 8 49 13 65c-165 91 -192 107 -206 122c-6 -18 -21 -49 -32 -64c17 -10 44 -33 44 -73v-209h-136v-68h136v-135h-91v-67
h271v67h-110v135h124v68h-124v215zM518 309v183h314v-183h-314zM805 875h69c20 0 24 -16 27 -124c15 12 44 24 64 29c-6 129 -25 163 -84 163h-87c-69 0 -86 -23 -86 -97v-288h-83c-15 178 -55 321 -217 401c-9 -17 -29 -44 -45 -57c145 -67 176 -192 189 -344h-107v-316
h123c-15 -46 -50 -117 -86 -170l64 -26c36 52 75 122 89 168l-61 28h147c29 -57 65 -138 82 -198l76 26c-26 56 -55 121 -83 172h110v316h-126v288c0 26 4 29 25 29z" />
</svg>
