<?xml version="1.0" standalone="no"?>
<!DOCTYPE svg PUBLIC "-//W3C//DTD SVG 1.1//EN" "http://www.w3.org/Graphics/SVG/1.1/DTD/svg11.dtd" >
<svg xmlns="http://www.w3.org/2000/svg" xmlns:xlink="http://www.w3.org/1999/xlink" version="1.1" viewBox="-10 0 1010 1000">
   <path fill="currentColor"
d="M401 229h-236c-25 48 -53 91 -83 126c-6 -15 -26 -52 -39 -69c52 -59 95 -149 120 -240l67 18c-9 31 -20 64 -33 94h204v71zM273 810l119 -69c4 20 12 48 18 63c-175 106 -202 123 -218 141l-1 -4v4c-8 -15 -26 -39 -39 -51c19 -14 53 -48 53 -96v-194h-138v-68h138v-135
h-93v-67h265v67h-104v135h131v68h-131v206zM520 390v116h296v-116h-296zM816 221h-296v105h296v-105zM885 596l49 48c-45 38 -104 77 -154 106c49 57 110 101 180 129c-16 13 -39 41 -49 60c-147 -65 -249 -199 -305 -368h-86v281l156 -50c0 21 5 49 8 64
c-191 67 -220 78 -238 93c-6 -16 -25 -43 -38 -56c16 -12 40 -38 40 -84v-664h191c-12 -32 -27 -70 -43 -99l66 -18c20 36 41 82 53 117h173v416h-213c18 46 39 90 67 129c49 -30 107 -71 143 -104z" />
</svg>
