<?xml version="1.0" standalone="no"?>
<!DOCTYPE svg PUBLIC "-//W3C//DTD SVG 1.1//EN" "http://www.w3.org/Graphics/SVG/1.1/DTD/svg11.dtd" >
<svg xmlns="http://www.w3.org/2000/svg" xmlns:xlink="http://www.w3.org/1999/xlink" version="1.1" viewBox="-10 0 1010 1000">
   <path fill="currentColor"
d="M391 225h-215c-30 50 -64 95 -99 132c-6 -17 -26 -54 -39 -71c60 -58 114 -147 144 -240l67 20c-11 30 -23 62 -37 91h179v68zM830 683v-100h-250v100h250zM580 850h250v-107h-250v107zM671 230v125h26c36 -39 70 -81 100 -125h-126zM956 422h-229c-33 35 -70 67 -108 97
h284v430h-73v-36h-250v40h-71v-355c-29 19 -60 36 -90 52c-8 -11 -24 -31 -36 -46h-112v217l119 -62c2 19 9 48 14 63c-171 96 -199 112 -214 128c-7 -14 -26 -40 -38 -53c19 -13 50 -41 50 -88v-205h-139v-68h139v-135h-88v-67h259v67h-102v135h114v48
c88 -43 170 -98 243 -162h-227v-67h199v-125h-160v-66h160v-120h71v120h129v62c27 -40 51 -84 72 -129l67 22c-42 86 -92 166 -151 236h168v67z" />
</svg>
