<?xml version="1.0" standalone="no"?>
<!DOCTYPE svg PUBLIC "-//W3C//DTD SVG 1.1//EN" "http://www.w3.org/Graphics/SVG/1.1/DTD/svg11.dtd" >
<svg xmlns="http://www.w3.org/2000/svg" xmlns:xlink="http://www.w3.org/1999/xlink" version="1.1" viewBox="-10 0 1010 1000">
   <path fill="currentColor"
d="M806 236v-91h-296v91h296zM806 385v-93h-296v93h296zM876 85v359h-433v-359h433zM394 230h-222c-28 48 -60 90 -95 125c-6 -16 -25 -53 -38 -70c60 -58 114 -147 144 -240l67 20c-12 32 -25 66 -41 97h185v68zM263 836l128 -64c2 20 9 49 13 63
c-168 90 -193 106 -209 122c-6 -19 -25 -51 -37 -67c14 -10 35 -31 35 -72v-215h-131v-68h131v-135h-78v-67h258v67h-110v135h131v68h-131v233zM522 861l142 -33c1 19 4 47 6 63c-184 47 -212 57 -230 68c-4 -20 -15 -53 -26 -72c16 -6 38 -17 38 -52v-354h70v127h141v65
h-141v188zM783 886h77c21 0 25 -16 28 -110c14 11 40 21 59 26c-7 115 -25 145 -81 145h-91c-68 0 -85 -20 -85 -92v-379h66v169c47 -29 102 -68 135 -99l43 50c-55 41 -124 85 -178 112v146c0 28 4 32 27 32z" />
</svg>
