<?xml version="1.0" standalone="no"?>
<!DOCTYPE svg PUBLIC "-//W3C//DTD SVG 1.1//EN" "http://www.w3.org/Graphics/SVG/1.1/DTD/svg11.dtd" >
<svg xmlns="http://www.w3.org/2000/svg" xmlns:xlink="http://www.w3.org/1999/xlink" version="1.1" viewBox="-10 0 1010 1000">
   <path fill="currentColor"
d="M391 227h-222c-28 50 -59 94 -93 131c-6 -16 -26 -52 -38 -68c57 -60 106 -151 135 -244l66 19c-9 31 -22 63 -36 93h188v69zM266 819l102 -53c2 19 9 48 14 63c-158 90 -183 105 -197 120v1c-5 -18 -20 -48 -32 -64c18 -9 45 -31 45 -71v-211h-138v-68h138v-135h-88v-67
h270v67h-114v135h122v68h-122v215zM790 365h-132v95h132v-95zM507 365v67c0 154 -14 377 -103 526c-13 -11 -41 -28 -59 -34c87 -143 95 -346 95 -492v-298h238c-9 -26 -21 -57 -34 -81l67 -12c14 28 30 64 39 93h202v64h-445v105h89v-77h62v77h132v-77h64v77h91v62h-91v150
h-258v-150h-89zM829 637h-197c24 48 57 92 96 130c42 -37 77 -80 101 -130zM877 573l44 18c-29 90 -78 163 -140 220c53 39 115 68 184 87c-15 13 -35 39 -44 57c-72 -23 -136 -57 -191 -101c-61 45 -131 77 -204 100c-8 -18 -25 -47 -39 -61c68 -18 134 -47 192 -86
c-49 -48 -87 -106 -115 -170h-43v-61h343z" />
</svg>
