<?xml version="1.0" standalone="no"?>
<!DOCTYPE svg PUBLIC "-//W3C//DTD SVG 1.1//EN" "http://www.w3.org/Graphics/SVG/1.1/DTD/svg11.dtd" >
<svg xmlns="http://www.w3.org/2000/svg" xmlns:xlink="http://www.w3.org/1999/xlink" version="1.1" viewBox="-10 0 1010 1000">
   <path fill="currentColor"
d="M402 225h-226c-30 50 -64 95 -99 132c-6 -17 -26 -54 -39 -71c60 -58 114 -147 144 -240l67 20c-11 30 -23 62 -37 91h190v68zM271 821l119 -62c3 19 9 48 14 63c-171 96 -199 111 -214 128c-7 -15 -26 -40 -38 -53c19 -13 50 -41 50 -88v-205h-139v-68h139v-135h-88v-67
h270v67h-113v135h133v68h-133v217zM589 775l62 41c-55 51 -136 106 -201 142c-10 -15 -31 -37 -46 -51c64 -34 143 -89 185 -132zM717 821l48 -44c62 38 143 93 183 131l-51 49c-38 -37 -117 -96 -180 -136zM542 638v67h282v-67h-282zM824 316h-282v64h282v-64zM824 484v-59
h-282v59h282zM542 530v62h282v-62h-282zM893 705h61v65h-552v-65h72v-441h137c4 -21 10 -43 15 -67h-194v-61h206c6 -32 11 -64 15 -91l78 6c-6 27 -13 57 -19 85h223v61h-237c-6 24 -12 46 -18 67h213v441z" />
</svg>
