<?xml version="1.0" standalone="no"?>
<!DOCTYPE svg PUBLIC "-//W3C//DTD SVG 1.1//EN" "http://www.w3.org/Graphics/SVG/1.1/DTD/svg11.dtd" >
<svg xmlns="http://www.w3.org/2000/svg" xmlns:xlink="http://www.w3.org/1999/xlink" version="1.1" viewBox="-10 0 1010 1000">
   <path fill="currentColor"
d="M402 225h-226c-30 50 -64 95 -99 132c-6 -17 -26 -54 -39 -71c60 -58 114 -147 144 -240l67 20c-11 30 -23 62 -37 91h190v68zM271 821l119 -62c3 19 9 48 14 63c-171 96 -199 111 -214 128c-7 -15 -26 -40 -38 -53c19 -13 50 -41 50 -88v-205h-139v-68h139v-135h-88v-67
h263v67h-106v135h126v68h-126v217zM796 695h138s-1 19 -3 29c-13 127 -26 182 -51 204c-16 17 -34 22 -62 24c-24 1 -72 1 -121 -2c-2 -19 -9 -45 -21 -63c49 4 98 5 116 5c17 0 27 -1 35 -8c14 -13 24 -49 34 -133h-148c9 -25 19 -53 29 -82h-135c-16 145 -71 232 -184 291
c-7 -14 -33 -42 -48 -54c100 -45 145 -118 158 -237h-114v-62h407c-9 30 -19 60 -30 88zM528 430v65h157v-65h-157zM685 271v-61h-157v61h157zM685 382v-63h-157v63h157zM752 495h188v56h-412v27h-64v-277c-17 24 -33 46 -52 66c-7 -14 -26 -46 -38 -61
c62 -64 109 -160 135 -263l63 15c-9 32 -20 65 -31 96h157c-13 -26 -35 -64 -56 -91l66 -25c23 30 51 69 63 95l-51 21h212v56h-180v61h149v48h-149v63h149v48h-149v65z" />
</svg>
