<?xml version="1.0" standalone="no"?>
<!DOCTYPE svg PUBLIC "-//W3C//DTD SVG 1.1//EN" "http://www.w3.org/Graphics/SVG/1.1/DTD/svg11.dtd" >
<svg xmlns="http://www.w3.org/2000/svg" xmlns:xlink="http://www.w3.org/1999/xlink" version="1.1" viewBox="-10 0 1010 1000">
   <path fill="currentColor"
d="M364 224h-198c-29 49 -62 92 -97 127c-5 -14 -25 -49 -37 -65c62 -58 116 -148 148 -240l62 18c-11 31 -24 63 -39 93h161v67zM254 811l108 -63c3 20 12 48 18 63c-166 104 -193 121 -209 138c-7 -14 -26 -39 -38 -51c19 -13 54 -47 54 -96v-198h-128v-68h128v-134h-82
v-68h234v68h-85v134h115v68h-115v207zM662 408l-54 19c-4 -13 -9 -29 -15 -48c-145 77 -168 91 -183 106c-7 -15 -26 -40 -36 -51c13 -11 31 -36 31 -82v-233c66 -19 144 -45 190 -71l42 58c-48 22 -109 40 -166 55v216l102 -52c-12 -30 -25 -61 -37 -88l51 -15
c28 59 61 140 75 186zM627 581h-142v106h142v-106zM832 687v-106h-146v106h146zM686 854h146v-110h-146v110zM485 854h142v-110h-142v110zM419 955v-433h481v433h-68v-42h-347v42h-66zM927 110v28c-6 219 -11 294 -30 319c-11 17 -26 24 -47 26c-17 1 -48 2 -77 0
c-1 -18 -6 -42 -15 -57c29 3 53 3 64 3s18 -1 23 -11c10 -14 16 -77 21 -250h-91v18c0 91 -23 221 -110 318c-11 -12 -34 -30 -47 -37c81 -88 100 -202 100 -283v-16h-73v-58h282z" />
</svg>
