<?xml version="1.0" standalone="no"?>
<!DOCTYPE svg PUBLIC "-//W3C//DTD SVG 1.1//EN" "http://www.w3.org/Graphics/SVG/1.1/DTD/svg11.dtd" >
<svg xmlns="http://www.w3.org/2000/svg" xmlns:xlink="http://www.w3.org/1999/xlink" version="1.1" viewBox="-10 0 1010 1000">
   <path fill="currentColor"
d="M359 223h-211c-22 49 -47 93 -74 128c-6 -15 -25 -49 -37 -64c46 -60 82 -150 103 -241l63 17c-8 31 -18 64 -30 95h186v65zM241 807l98 -67c5 19 16 44 23 57c-156 111 -181 130 -195 148l-1 -4v4c-8 -15 -26 -39 -38 -50c17 -14 47 -46 47 -94v-200h-122v-65h122v-138
h-79v-64h243v64h-98v138h111v65h-111v206zM875 411l47 46c-33 24 -70 49 -108 71c28 115 82 225 150 281c-16 12 -38 34 -48 51c-69 -64 -121 -182 -151 -303c-15 8 -30 15 -44 22c42 143 26 296 -19 343c-25 27 -49 36 -88 36c-18 1 -43 0 -68 -2c-1 -18 -6 -45 -17 -64
c28 3 54 4 72 4c20 0 35 -2 49 -21c22 -23 35 -97 27 -182c-78 77 -190 150 -287 191c-8 -15 -23 -40 -37 -54c110 -39 242 -125 313 -207c-5 -24 -11 -47 -20 -69c-71 63 -174 129 -256 168c-9 -17 -25 -42 -38 -54c89 -34 204 -103 270 -167c-10 -18 -20 -34 -33 -50
c-61 42 -130 77 -196 104c-7 -13 -26 -40 -39 -51c92 -33 190 -81 257 -140h-167v-47h-59v-161h251c-10 -31 -25 -69 -38 -98l68 -15c18 36 38 80 47 113h227v161h-73v-101h-412v86h405v62h-168c-17 18 -36 35 -55 52c28 33 50 71 67 112c57 -33 129 -81 171 -117z" />
</svg>
