<?xml version="1.0" standalone="no"?>
<!DOCTYPE svg PUBLIC "-//W3C//DTD SVG 1.1//EN" "http://www.w3.org/Graphics/SVG/1.1/DTD/svg11.dtd" >
<svg xmlns="http://www.w3.org/2000/svg" xmlns:xlink="http://www.w3.org/1999/xlink" version="1.1" viewBox="-10 0 1010 1000">
   <path fill="currentColor"
d="M414 412l-20 -57c46 -20 114 -54 182 -88v-129h-169v-58h232v332h-63v-89c-57 32 -116 65 -162 89zM533 241l-37 41c-19 -24 -57 -57 -88 -79l36 -37c30 18 68 50 89 75zM363 234h-199c-27 47 -58 88 -90 123c-6 -17 -23 -54 -35 -71c58 -58 109 -147 138 -240l63 20
c-11 32 -24 66 -38 97h161v71zM244 816l115 -58c2 19 8 48 12 63c-131 72 -176 99 -197 113l-13 11c-6 -18 -20 -54 -32 -72c19 -9 47 -31 47 -70v-199h-115v-68h115v-135h-71v-67h237v67h-98v135h109v68h-109v212zM836 714l62 23c-82 115 -246 184 -446 219
c-8 -16 -22 -38 -35 -52c188 -29 346 -90 419 -190zM665 554l53 20c-50 60 -134 114 -208 148c-11 -12 -28 -28 -41 -37c71 -29 153 -80 196 -131zM750 639l55 23c-68 74 -184 134 -297 170c-9 -12 -25 -30 -38 -41c106 -30 220 -88 280 -152zM703 400l14 12
c-6 8 -12 16 -19 24c91 75 186 115 270 146c-11 16 -25 45 -30 67c-84 -36 -177 -85 -275 -174c-75 76 -173 139 -263 178c-6 -17 -17 -43 -28 -59c111 -44 237 -124 306 -215l3 2l-11 -31c46 -20 114 -55 182 -89v-123h-176v-58h240v349h-64v-112c-52 29 -105 58 -149 83z
M806 243l-37 41c-20 -24 -57 -57 -88 -79l36 -37c30 18 68 50 89 75z" />
</svg>
