<?xml version="1.0" standalone="no"?>
<!DOCTYPE svg PUBLIC "-//W3C//DTD SVG 1.1//EN" "http://www.w3.org/Graphics/SVG/1.1/DTD/svg11.dtd" >
<svg xmlns="http://www.w3.org/2000/svg" xmlns:xlink="http://www.w3.org/1999/xlink" version="1.1" viewBox="-10 0 1010 1000">
   <path fill="currentColor"
d="M707 156h-143c-15 21 -32 40 -51 60h150c14 -17 30 -38 44 -60zM838 330v-66h-130v66h130zM838 442v-66h-130v66h130zM508 376v66h134v-66h-134zM508 264v66h134v-66h-134zM442 490v-206c-13 10 -25 20 -38 30c-9 -15 -30 -37 -43 -45c94 -67 165 -155 204 -226l67 12
c-9 16 -19 32 -30 48h143l14 -4l41 31c-19 29 -41 59 -66 86h172v274h-464zM369 221h-201c-30 50 -63 94 -99 130c-5 -14 -25 -49 -37 -65c62 -58 116 -148 148 -240l62 18c-11 31 -24 63 -39 93h166v64zM256 811l108 -63c3 20 12 48 19 63c-167 103 -194 121 -210 138
c-7 -14 -26 -40 -38 -51c19 -13 54 -47 54 -96v-201h-128v-65h128v-137h-84v-65h240v65h-89v137h115v65h-115v210zM817 688h-285v68h285v-68zM532 874h285v-66h-285v66zM466 956v-322h420v320h-69v-26h-285v28h-66zM398 534h540v55h-540v-55z" />
</svg>
