<?xml version="1.0" standalone="no"?>
<!DOCTYPE svg PUBLIC "-//W3C//DTD SVG 1.1//EN" "http://www.w3.org/Graphics/SVG/1.1/DTD/svg11.dtd" >
<svg xmlns="http://www.w3.org/2000/svg" xmlns:xlink="http://www.w3.org/1999/xlink" version="1.1" viewBox="-10 0 1010 1000">
   <path fill="currentColor"
d="M831 323h-94c14 33 30 65 48 94c17 -28 33 -62 46 -94zM857 272l11 -3l37 23c-22 59 -57 123 -89 170c38 51 82 92 133 119c-14 11 -32 32 -41 48c-120 -73 -208 -220 -254 -387l51 -12c4 13 7 28 12 42h140zM466 193v79h-60v-138h231c-11 -25 -24 -54 -37 -76l66 -19
c18 29 36 66 48 95h213v135h-62v-76h-399zM367 222h-202c-25 50 -54 94 -85 130c-6 -14 -24 -50 -37 -66c52 -59 95 -149 120 -240l63 17c-8 32 -19 64 -32 95h173v64zM258 810l116 -69c3 20 11 48 18 62c-171 107 -198 124 -214 142c-8 -15 -26 -39 -38 -51
c18 -13 52 -47 52 -95v-198h-126v-65h126v-138h-80v-64h234v64h-88v138h116v51c31 -18 63 -41 91 -69c-18 -16 -39 -34 -60 -46l36 -33c18 12 40 28 58 43c11 -13 22 -28 33 -43c-20 -14 -44 -30 -66 -41l30 -35c19 10 43 23 61 35c13 -22 25 -47 35 -72h-90
c-28 46 -65 89 -114 127c-8 -12 -27 -31 -40 -38c77 -58 126 -137 148 -202l58 8c-7 18 -14 34 -22 52h84l12 -2l38 17c-22 82 -59 153 -105 212h209v59h-212v-55c-47 60 -103 107 -160 138c-6 -12 -20 -29 -32 -41h-108v209zM504 730l61 18c-33 66 -87 133 -136 176
c-12 -10 -38 -28 -53 -37c50 -40 99 -99 128 -157zM895 699h-194v183c0 35 -6 50 -31 60c-23 10 -59 11 -113 11c-4 -19 -12 -42 -21 -59c40 1 74 1 84 0c11 0 14 -3 14 -13v-182h-206v-61h467v61zM767 759l50 -32c49 49 104 118 129 163l-53 36c-24 -46 -79 -116 -126 -167
z" />
</svg>
