<?xml version="1.0" standalone="no"?>
<!DOCTYPE svg PUBLIC "-//W3C//DTD SVG 1.1//EN" "http://www.w3.org/Graphics/SVG/1.1/DTD/svg11.dtd" >
<svg xmlns="http://www.w3.org/2000/svg" xmlns:xlink="http://www.w3.org/1999/xlink" version="1.1" viewBox="-10 0 1010 1000">
   <path fill="currentColor"
d="M893 345l36 41c-52 17 -121 31 -181 40v17c0 19 5 22 31 22h96c21 0 25 -6 28 -48c13 9 36 16 53 19c-6 59 -24 77 -72 77h-112c-71 0 -88 -14 -88 -70v-107h64v46c53 -11 110 -24 145 -37zM700 133h-178c-13 16 -28 32 -45 47h175c16 -13 34 -30 48 -47zM823 284v-58
h-341v58h341zM416 330v-108c-12 -13 -29 -30 -43 -37c67 -41 116 -95 142 -142l64 11c-7 11 -14 22 -22 34h183l11 -3l40 29c-17 23 -38 46 -61 66h163v150h-477zM359 231h-200c-25 50 -53 94 -84 131c-7 -15 -26 -51 -38 -67c52 -61 95 -154 120 -249l65 18
c-9 33 -21 67 -34 99h171v68zM254 814l106 -61c3 19 9 45 15 59c-164 102 -188 117 -202 133c-7 -14 -26 -39 -38 -50c18 -14 53 -48 53 -96v-195h-126v-68h126v-135h-81v-67h233v67h-86v135h112v68h-112v210zM477 741h125c9 -21 16 -44 21 -69h-146v69zM705 582h-184
c-12 15 -25 29 -40 43h182c15 -13 29 -27 42 -43zM834 741v-69h-143c-4 25 -10 47 -18 69h161zM761 898h117c26 0 31 -9 34 -70c14 8 37 16 54 19c-5 78 -24 99 -79 99h-133c-77 0 -97 -14 -97 -72v-86h-5c-46 83 -128 137 -284 173c-6 -16 -23 -41 -35 -53
c127 -25 200 -64 242 -120h-166v-111c-12 -12 -30 -28 -45 -35c66 -40 114 -93 141 -140c-50 10 -63 14 -73 19c-3 -15 -13 -41 -22 -52c12 -4 27 -12 27 -46v-85h63v32h154v44h-154v38l158 -20c-2 13 -4 35 -3 45c-56 9 -97 16 -127 21l45 8c-6 10 -12 20 -19 30h189l11 -3
l42 30c-16 21 -35 43 -55 62h164v163h-183v86c0 21 6 24 39 24zM873 854l-36 34c-20 -19 -59 -48 -91 -67l35 -29c32 17 72 42 92 62z" />
</svg>
