<?xml version="1.0" standalone="no"?>
<!DOCTYPE svg PUBLIC "-//W3C//DTD SVG 1.1//EN" "http://www.w3.org/Graphics/SVG/1.1/DTD/svg11.dtd" >
<svg xmlns="http://www.w3.org/2000/svg" xmlns:xlink="http://www.w3.org/1999/xlink" version="1.1" viewBox="-10 0 1010 1000">
   <path fill="currentColor"
d="M380 146h-211v72h211v-72zM169 351h211v-77h-211v77zM450 410h-281v545h-73v-870h354v325zM776 701h-245v220h-69v-220h-232v-63h232v-103h-197v-61h473v61h-207v103h245v63zM614 351h221v-77h-221v77zM835 146h-221v72h221v-72zM909 85v779c0 45 -11 68 -41 81
c-31 11 -82 12 -160 12c-3 -19 -15 -52 -26 -71c58 2 115 2 132 1c16 -1 21 -6 21 -23v-454h-292v-325h366z" />
</svg>
