<?xml version="1.0" standalone="no"?>
<!DOCTYPE svg PUBLIC "-//W3C//DTD SVG 1.1//EN" "http://www.w3.org/Graphics/SVG/1.1/DTD/svg11.dtd" >
<svg xmlns="http://www.w3.org/2000/svg" xmlns:xlink="http://www.w3.org/1999/xlink" version="1.1" viewBox="-10 0 1010 1000">
   <path fill="currentColor"
d="M534 516l-40 52c-34 -33 -105 -80 -162 -112l38 -46c57 30 129 74 164 106zM268 575l39 -46c57 29 132 75 168 108l-39 52c-36 -34 -109 -82 -168 -114zM381 137h-212v64h212v-64zM169 316h212v-68h-212v68zM451 374h-282v582h-73v-877h355v295zM779 719l-134 19v170h-68
v-161l-345 50l-7 -65l352 -51v-278h68v270l127 -19zM611 316h224v-68h-224v68zM835 136h-224v65h224v-65zM908 79v793c0 41 -8 60 -34 72c-24 12 -65 14 -124 13c-3 -18 -13 -49 -22 -68c40 2 79 2 91 1c12 0 16 -4 16 -18v-498h-296v-295h369z" />
</svg>
