<?xml version="1.0" standalone="no"?>
<!DOCTYPE svg PUBLIC "-//W3C//DTD SVG 1.1//EN" "http://www.w3.org/Graphics/SVG/1.1/DTD/svg11.dtd" >
<svg xmlns="http://www.w3.org/2000/svg" xmlns:xlink="http://www.w3.org/1999/xlink" version="1.1" viewBox="-10 0 1010 1000">
   <path fill="currentColor"
d="M380 142h-212v68h212v-68zM168 332h212v-70h-212v70zM421 391h-253v565h-72v-873h354v308h-26l58 29c-38 37 -80 71 -123 100l271 -12c-22 -23 -44 -45 -65 -64l46 -29c49 45 114 109 148 146l-48 35c-10 -12 -21 -25 -36 -41c-348 18 -387 21 -412 28
c-3 -13 -13 -43 -21 -58c16 -1 32 -10 50 -22c21 -12 84 -60 129 -112zM784 723h-156v206h-64v-206h-144c-6 76 -35 154 -144 211c-11 -15 -34 -38 -49 -48c94 -44 122 -105 129 -163h-136v-58h139v-79h63v79h142v-81h64v81h156v58zM614 331h221v-69h-221v69zM835 142h-221
v68h221v-68zM908 83v786c0 42 -10 61 -36 74c-26 11 -70 13 -133 13c-4 -20 -14 -50 -23 -69c44 2 89 2 101 1c14 0 18 -5 18 -19v-478h-292v-308h365z" />
</svg>
