<?xml version="1.0" standalone="no"?>
<!DOCTYPE svg PUBLIC "-//W3C//DTD SVG 1.1//EN" "http://www.w3.org/Graphics/SVG/1.1/DTD/svg11.dtd" >
<svg xmlns="http://www.w3.org/2000/svg" xmlns:xlink="http://www.w3.org/1999/xlink" version="1.1" viewBox="-10 0 1010 1000">
   <path fill="currentColor"
d="M384 142h-219v78h219v-78zM165 353h219v-82h-219v82zM454 409h-289v549h-73v-872h362v323zM722 852l-44 47c-40 -38 -114 -96 -180 -145c-30 54 -93 106 -223 146c-9 -16 -29 -39 -43 -50c135 -36 191 -88 212 -138h-204v-57h218v-15v-63h-201v-56h105
c-11 -24 -27 -57 -43 -81l59 -17c18 27 40 66 49 90l-24 8h159c17 -32 36 -73 47 -102l68 22c-17 27 -34 56 -51 80h118v56h-219v64v14h235v57h-220c66 47 140 103 182 140zM613 355h227v-84h-227v84zM840 142h-227v78h227v-78zM913 86v773c0 42 -9 61 -36 73
c-27 11 -72 13 -138 12c-3 -19 -12 -48 -22 -66c47 1 92 1 104 0c14 0 19 -5 19 -19v-449h-298v-324h371z" />
</svg>
