<?xml version="1.0" standalone="no"?>
<!DOCTYPE svg PUBLIC "-//W3C//DTD SVG 1.1//EN" "http://www.w3.org/Graphics/SVG/1.1/DTD/svg11.dtd" >
<svg xmlns="http://www.w3.org/2000/svg" xmlns:xlink="http://www.w3.org/1999/xlink" version="1.1" viewBox="-10 0 1010 1000">
   <path fill="currentColor"
d="M384 140h-223v75h223v-75zM161 336h223v-71h-223v71zM454 391h-293v566h-71v-871h364v305zM632 414l48 15c-5 11 -10 21 -16 32c39 48 101 114 154 150c-11 10 -28 30 -37 42c-48 -39 -102 -102 -141 -152c-37 59 -86 112 -141 153c-6 -6 -15 -17 -24 -26c0 6 0 16 -1 22
c-4 172 -9 236 -25 255c-10 15 -23 21 -44 23c-14 1 -41 2 -66 1c-1 -17 -6 -40 -14 -55c25 3 48 3 58 3s15 -1 20 -9c9 -13 13 -61 17 -193h-82c-14 104 -40 195 -98 256c-9 -13 -27 -32 -41 -41c69 -72 87 -199 93 -333h-80v-55h132c-11 -26 -24 -56 -38 -81l56 -9
c15 28 33 62 45 90h99v55h-158c-1 23 -3 46 -5 68h128c-3 -3 -7 -6 -10 -8c74 -50 138 -130 171 -203zM566 646l41 -32c40 25 87 64 109 93l-43 36c-21 -30 -67 -71 -107 -97zM614 336h230v-71h-230v71zM844 140h-230v75h230v-75zM916 86v777c0 41 -7 64 -34 76
c-25 13 -66 15 -127 15c-2 -17 -9 -42 -17 -61l-39 40c-36 -41 -113 -96 -180 -129l40 -39c64 32 139 82 177 122l-3 -7c42 2 83 2 94 1c13 0 17 -5 17 -18v-472h-301v-305h373z" />
</svg>
