<?xml version="1.0" standalone="no"?>
<!DOCTYPE svg PUBLIC "-//W3C//DTD SVG 1.1//EN" "http://www.w3.org/Graphics/SVG/1.1/DTD/svg11.dtd" >
<svg xmlns="http://www.w3.org/2000/svg" xmlns:xlink="http://www.w3.org/1999/xlink" version="1.1" viewBox="-10 0 1010 1000">
   <path fill="currentColor"
d="M384 140h-223v74h223v-74zM161 336h223v-72h-223v72zM454 391h-293v566h-71v-871h364v305zM614 336h230v-72h-230v72zM844 140h-230v74h230v-74zM916 86v778c0 40 -7 63 -32 76c-24 12 -65 14 -121 14c-2 -15 -8 -37 -14 -56c-12 19 -26 26 -41 26
c-54 -2 -94 -37 -125 -96c-41 43 -87 80 -137 111c-9 -10 -29 -32 -43 -43c33 -18 64 -39 93 -63c-95 17 -193 35 -268 49l-10 -58c70 -10 172 -27 276 -44l3 53c22 -19 43 -39 62 -61c-23 -65 -38 -148 -48 -241h-285v-51h280c-2 -24 -4 -50 -5 -75h60c1 26 3 51 5 75h107
c-23 -18 -56 -37 -84 -50l34 -34c36 13 78 38 99 57l-24 27h78v51h-206c8 70 19 132 33 183c31 -45 55 -96 72 -152l56 13c-25 76 -61 144 -105 202c21 49 48 78 79 80c15 0 27 -34 32 -105c12 14 32 27 44 32c-6 43 -14 75 -23 97c32 1 61 1 71 0c12 0 15 -4 15 -17v-473
h-301v-305h373zM417 706v-87h-114v87h114zM252 577h217v172h-217v-172z" />
</svg>
