<?xml version="1.0" standalone="no"?>
<!DOCTYPE svg PUBLIC "-//W3C//DTD SVG 1.1//EN" "http://www.w3.org/Graphics/SVG/1.1/DTD/svg11.dtd" >
<svg xmlns="http://www.w3.org/2000/svg" xmlns:xlink="http://www.w3.org/1999/xlink" version="1.1" viewBox="-10 0 1010 1000">
   <path fill="currentColor"
d="M381 133h-212v52h212v-52zM169 288h212v-55h-212v55zM451 342h-282v614h-73v-877h355v263zM699 366l29 47c-117 21 -320 31 -475 29c-1 -14 -8 -33 -14 -47c154 -1 353 -10 460 -29zM289 588v78h-56v-129h90c-11 -20 -25 -42 -40 -59l45 -18c23 22 44 53 56 77h90
c-11 -24 -26 -50 -42 -71l47 -17c22 27 42 63 52 88h49c23 -29 52 -71 67 -100l56 23c-20 26 -41 53 -61 77h119v129h-58v-78h-414zM660 637l35 21c-30 54 -74 99 -127 135c55 23 104 45 139 67l-26 57c-43 -28 -104 -58 -173 -87c-72 38 -152 66 -235 85
c-6 -14 -21 -39 -32 -49c70 -14 138 -34 200 -61c-44 -16 -90 -31 -132 -41l27 -48c57 15 116 34 172 54c38 -22 72 -49 98 -79h-302v-51h344zM615 288h218v-55h-218v55zM833 133h-218v52h218v-52zM906 79v795c0 40 -8 58 -33 70c-24 12 -65 14 -122 13
c-3 -18 -13 -48 -21 -66c38 2 76 1 87 1c12 0 16 -5 16 -18v-532h-289v-263h362z" />
</svg>
