<?xml version="1.0" standalone="no"?>
<!DOCTYPE svg PUBLIC "-//W3C//DTD SVG 1.1//EN" "http://www.w3.org/Graphics/SVG/1.1/DTD/svg11.dtd" >
<svg xmlns="http://www.w3.org/2000/svg" xmlns:xlink="http://www.w3.org/1999/xlink" version="1.1" viewBox="-10 0 1010 1000">
   <path fill="currentColor"
d="M381 132h-212v52h212v-52zM169 287h212v-55h-212v55zM451 341h-282v614h-73v-877h355v263zM294 758l53 25c-29 51 -72 109 -110 143c-9 -10 -30 -25 -43 -34c40 -34 81 -89 100 -134zM378 782l48 -18c26 39 52 88 63 120l-51 21c-10 -34 -35 -85 -60 -123zM417 497v-55
h-124v55h124zM417 599v-55h-124v55h124zM417 702v-57h-124v57h124zM238 394h235v356h-235v-356zM786 854l-44 30c-17 -33 -47 -74 -82 -116c-37 56 -85 102 -144 139c-7 -11 -24 -34 -35 -44c61 -34 107 -80 143 -136c-29 -33 -60 -63 -90 -90l41 -28c24 22 49 46 73 72
c21 -46 36 -98 46 -157h-107c-18 43 -42 80 -67 111c-10 -9 -34 -26 -48 -33c52 -56 88 -140 108 -229l55 9c-7 32 -16 62 -27 91h189v51h-49c-13 75 -33 142 -61 198c41 47 77 95 99 132zM615 288h220v-55h-220v55zM835 133h-220v52h220v-52zM908 79v790c0 37 -8 54 -31 66
c-22 11 -60 12 -109 12c-3 -18 -12 -46 -21 -63c32 1 64 1 74 1c11 -1 14 -5 14 -16v-527h-291v-263h364z" />
</svg>
