<?xml version="1.0" standalone="no"?>
<!DOCTYPE svg PUBLIC "-//W3C//DTD SVG 1.1//EN" "http://www.w3.org/Graphics/SVG/1.1/DTD/svg11.dtd" >
<svg xmlns="http://www.w3.org/2000/svg" xmlns:xlink="http://www.w3.org/1999/xlink" version="1.1" viewBox="-10 0 1010 1000">
   <path fill="currentColor"
d="M384 134h-225v63h225v-63zM159 308h225v-64h-225v64zM454 359h-295v599h-69v-875h364v276zM534 591h82c8 -18 19 -40 26 -59h-132c11 19 21 43 24 59zM545 369h61v37h130v42h-130v40h170v44h-90l10 3c-11 21 -20 39 -29 56h97v42h-158v38h130v41h-130v38h166v42h-166v54
h-61v-54h-156v-42h156v-38h-125v-41h125v-38h-149v-42h85c-4 -19 -13 -39 -24 -56l12 -3h-87v-44h163v-40h-126v-42h126v-37zM343 477l-45 27c-14 -30 -46 -72 -76 -103l43 -23c30 29 64 71 78 99zM614 307h233v-63h-233v63zM847 134h-233v63h233v-63zM916 83v792
c0 40 -8 57 -33 69c-25 11 -66 12 -126 12c-2 -13 -7 -31 -14 -46c-51 2 -121 4 -167 4c-72 0 -128 -11 -176 -38c-32 -20 -55 -40 -74 -40c-23 0 -59 43 -90 86l-34 -45c33 -37 67 -68 97 -80v-173h-95v-49h150v223c16 8 32 20 57 33c45 24 98 33 167 33
c52 0 147 -3 208 -10c-4 10 -9 26 -11 40c25 0 47 0 55 -1c13 0 17 -5 17 -18v-518h-304v-274h373z" />
</svg>
