<?xml version="1.0" standalone="no"?>
<!DOCTYPE svg PUBLIC "-//W3C//DTD SVG 1.1//EN" "http://www.w3.org/Graphics/SVG/1.1/DTD/svg11.dtd" >
<svg xmlns="http://www.w3.org/2000/svg" xmlns:xlink="http://www.w3.org/1999/xlink" version="1.1" viewBox="-10 0 1010 1000">
   <path fill="currentColor"
d="M381 129h-212v48h212v-48zM169 270h212v-49h-212v49zM451 321h-282v635h-73v-877h355v242zM548 349h55v41h143v42h-143v41h185v43h-423v-43h183v-41h-148v-42h148v-41zM448 594v45h252v-45h-252zM594 677v13c28 10 61 21 91 34c17 -16 36 -33 48 -47h-139zM594 828h-55
v-109c-40 35 -90 68 -135 86c-8 -11 -22 -31 -32 -41c52 -17 112 -51 152 -87h-126v-121h354v121h-4l27 19c-16 17 -34 32 -50 45c27 12 52 25 70 36l-30 40c-39 -23 -107 -56 -171 -80v91zM207 391l39 -30c37 28 79 71 99 103l-41 33c-18 -31 -60 -75 -97 -106zM614 270
h221v-49h-221v49zM835 129h-221v48h221v-48zM908 79v801c0 37 -7 54 -30 66c-21 11 -57 12 -104 12c-3 -17 -12 -43 -19 -61c-53 3 -126 5 -173 5c-78 0 -136 -11 -185 -43c-31 -22 -55 -47 -75 -47c-26 0 -64 47 -103 100l-31 -47c36 -44 74 -80 106 -94v-149h-100v-59h151
v206c17 8 34 24 63 44c46 30 103 39 176 39c65 0 165 -5 228 -14c-4 15 -11 41 -12 57l-11 1h33c10 -1 13 -5 13 -15v-560h-292v-242h365z" />
</svg>
