<?xml version="1.0" standalone="no"?>
<!DOCTYPE svg PUBLIC "-//W3C//DTD SVG 1.1//EN" "http://www.w3.org/Graphics/SVG/1.1/DTD/svg11.dtd" >
<svg xmlns="http://www.w3.org/2000/svg" xmlns:xlink="http://www.w3.org/1999/xlink" version="1.1" viewBox="-10 0 1010 1000">
   <path fill="currentColor"
d="M321 220l-59 40c-27 -47 -88 -121 -140 -175l55 -35c53 51 115 123 144 170zM738 323v64h-465v-64h465zM699 577h-391v-64h391v64zM89 956v-686h71v686h-71zM755 712v65h-510v-65h510zM909 96v757c0 47 -12 69 -44 81c-33 12 -90 14 -177 14c-4 -21 -15 -53 -25 -73
c66 3 131 2 150 1c17 -1 24 -6 24 -24v-686h-479v-70h551z" />
</svg>
