<?xml version="1.0" standalone="no"?>
<!DOCTYPE svg PUBLIC "-//W3C//DTD SVG 1.1//EN" "http://www.w3.org/Graphics/SVG/1.1/DTD/svg11.dtd" >
<svg xmlns="http://www.w3.org/2000/svg" xmlns:xlink="http://www.w3.org/1999/xlink" version="1.1" viewBox="-10 0 1010 1000">
   <path fill="currentColor"
d="M292 198l-57 41c-27 -38 -84 -101 -127 -147l54 -34c44 43 102 104 130 140zM228 411v-63h542v63h-542zM428 226l60 -26c26 35 56 85 69 117l-64 30c-12 -33 -41 -83 -65 -121zM90 957v-689h70v689h-70zM665 786h35c10 0 21 -1 25 -3c5 -3 10 -10 13 -22
c2 -14 3 -45 4 -85c14 12 37 24 55 29c-1 38 -5 81 -11 97s-16 26 -29 33c-13 6 -35 8 -51 8h-55c-20 0 -44 -4 -57 -17c-15 -11 -21 -28 -21 -85v-196h-163v62c0 89 -26 196 -143 265c-9 -13 -34 -38 -47 -47c108 -63 126 -147 126 -220v-122h293v263c0 19 2 32 7 36
c5 3 11 4 19 4zM913 100v771c0 41 -10 58 -36 70c-27 11 -71 12 -137 12c-3 -18 -13 -46 -23 -64c47 2 93 2 105 1c15 0 19 -5 19 -19v-706h-490v-65h562z" />
</svg>
