<?xml version="1.0" standalone="no"?>
<!DOCTYPE svg PUBLIC "-//W3C//DTD SVG 1.1//EN" "http://www.w3.org/Graphics/SVG/1.1/DTD/svg11.dtd" >
<svg xmlns="http://www.w3.org/2000/svg" xmlns:xlink="http://www.w3.org/1999/xlink" version="1.1" viewBox="-10 0 1010 1000">
   <path fill="currentColor"
d="M95 957v-690h73v690h-73zM110 92l53 -35c45 41 101 100 128 137l-57 41c-26 -38 -80 -100 -124 -143zM541 612h135v-96h-135v96zM328 612h144v-96h-144v96zM472 347h-144v107h144v-107zM676 454v-107h-135v107h135zM740 720h-64v-43h-135v237h-69v-237h-144v43h-63v-433
h475v433zM906 100v762c0 40 -9 60 -34 73c-26 11 -67 13 -128 13c-3 -20 -13 -51 -23 -70c42 2 84 2 95 1c13 -1 17 -4 17 -18v-693h-477v-68h550z" />
</svg>
