<?xml version="1.0" standalone="no"?>
<!DOCTYPE svg PUBLIC "-//W3C//DTD SVG 1.1//EN" "http://www.w3.org/Graphics/SVG/1.1/DTD/svg11.dtd" >
<svg xmlns="http://www.w3.org/2000/svg" xmlns:xlink="http://www.w3.org/1999/xlink" version="1.1" viewBox="-10 0 1010 1000">
   <path fill="currentColor"
d="M323 214l-59 42c-26 -46 -81 -120 -128 -173l56 -36c47 50 105 122 131 167zM466 212h71v77h165v60h-165v108h221v61h-512v-61h220v-108h-174v-60h174v-77zM94 957v-718h74v718h-74zM758 786v66h-526v-66h233v-104h-178v-64h178v-71h71v71h176v64h-176v104h222zM908 78
v779c0 47 -12 67 -44 79c-31 12 -87 13 -171 13c-4 -20 -15 -51 -26 -70c63 3 125 3 142 2c19 -1 25 -7 25 -25v-707h-477v-71h551z" />
</svg>
