<?xml version="1.0" standalone="no"?>
<!DOCTYPE svg PUBLIC "-//W3C//DTD SVG 1.1//EN" "http://www.w3.org/Graphics/SVG/1.1/DTD/svg11.dtd" >
<svg xmlns="http://www.w3.org/2000/svg" xmlns:xlink="http://www.w3.org/1999/xlink" version="1.1" viewBox="-10 0 1010 1000">
   <path fill="currentColor"
d="M629 373v-54h-264v54h264zM629 473v-56h-264v56h264zM697 275v242h-398v-242h398zM93 957v-689h73v689h-73zM104 93l56 -38c44 39 96 94 120 132l-59 41c-23 -37 -73 -95 -117 -135zM665 678v-60h-337v60h337zM665 787v-63h-337v63h337zM735 572v261h-475v-261h475z
M906 100v759c0 45 -10 66 -39 78c-28 13 -79 14 -156 14c-3 -20 -13 -51 -22 -71c56 2 108 2 122 1c16 -1 21 -6 21 -22v-690h-476v-69h550z" />
</svg>
