<?xml version="1.0" standalone="no"?>
<!DOCTYPE svg PUBLIC "-//W3C//DTD SVG 1.1//EN" "http://www.w3.org/Graphics/SVG/1.1/DTD/svg11.dtd" >
<svg xmlns="http://www.w3.org/2000/svg" xmlns:xlink="http://www.w3.org/1999/xlink" version="1.1" viewBox="-10 0 1010 1000">
   <path fill="currentColor"
d="M341 340l-59 21c-4 -29 -20 -71 -37 -102l55 -18c18 30 35 72 41 99zM281 190l-56 38c-22 -36 -73 -95 -116 -135l52 -34c43 39 96 94 120 131zM92 957v-689h70v689h-70zM508 688h-122c-15 81 -52 158 -146 218c-10 -13 -31 -32 -45 -42c81 -50 116 -111 131 -176h-97
v-200h51v142h55c2 -19 2 -36 2 -55v-135h-131v-60h173c19 -42 42 -105 52 -148l65 18c-19 43 -39 92 -58 130h76v60h-120v136c0 18 0 36 -2 54h64v-142h52v200zM583 218l57 9c-5 38 -10 76 -17 112h133l10 -3l40 13c-14 77 -37 167 -60 222l-46 -20c14 -39 29 -97 39 -152
h-128c-14 57 -32 108 -53 148c-10 -9 -33 -26 -46 -34c40 -75 60 -184 71 -295zM799 831l-51 27c-17 -46 -55 -109 -98 -164c-22 73 -65 151 -149 220c-9 -13 -28 -31 -43 -40c151 -115 159 -269 159 -359v-68h58v69c0 33 -2 72 -9 115c56 61 110 143 133 200zM908 100v759
c0 48 -12 68 -44 80c-33 12 -89 13 -177 13c-4 -20 -15 -50 -26 -69c67 3 132 2 151 1c18 -1 25 -6 25 -25v-694h-481v-65h552z" />
</svg>
