<?xml version="1.0" standalone="no"?>
<!DOCTYPE svg PUBLIC "-//W3C//DTD SVG 1.1//EN" "http://www.w3.org/Graphics/SVG/1.1/DTD/svg11.dtd" >
<svg xmlns="http://www.w3.org/2000/svg" xmlns:xlink="http://www.w3.org/1999/xlink" version="1.1" viewBox="-10 0 1010 1000">
   <path fill="currentColor"
d="M331 81l48 29c-29 81 -66 179 -100 258c73 83 90 156 90 217c0 53 -11 97 -39 116c-14 11 -32 17 -52 19c-19 3 -45 3 -67 2c0 -19 -7 -47 -19 -66c23 2 43 3 59 1c12 -1 23 -3 30 -9c16 -11 21 -39 21 -69c0 -54 -18 -123 -89 -203c28 -71 58 -157 79 -224h-132v803h-66
v-871h226zM955 431v70h-135v456h-73v-456h-163c-2 165 -33 337 -221 449c-11 -15 -35 -41 -51 -53c172 -101 198 -254 200 -396h-121v-70h121v-220c-34 12 -70 24 -103 34c-4 -14 -15 -37 -23 -53c95 -32 206 -79 266 -129l49 55c-33 24 -73 45 -117 64v249h163v-372h73v372
h135z" />
</svg>
