<?xml version="1.0" standalone="no"?>
<!DOCTYPE svg PUBLIC "-//W3C//DTD SVG 1.1//EN" "http://www.w3.org/Graphics/SVG/1.1/DTD/svg11.dtd" >
<svg xmlns="http://www.w3.org/2000/svg" xmlns:xlink="http://www.w3.org/1999/xlink" version="1.1" viewBox="-10 0 1010 1000">
   <path fill="currentColor"
d="M325 80l51 30c-30 81 -67 179 -101 258c73 83 90 155 90 216c0 54 -12 97 -39 117c-14 10 -33 17 -54 19c-19 2 -45 3 -67 1c-1 -19 -7 -48 -19 -67c23 1 42 2 58 1c12 -1 23 -4 31 -9c16 -11 21 -38 21 -69c0 -54 -18 -121 -89 -200c28 -72 58 -159 79 -226h-135v803
h-67v-870h230zM493 823l146 -55c1 21 7 50 11 65c-185 78 -213 95 -230 111c-5 -19 -19 -53 -31 -69c15 -9 35 -27 35 -66v-749h69v306h140v70h-140v387zM774 857h91c21 0 25 -24 28 -119c17 12 43 25 63 30c-7 116 -25 157 -87 157h-105c-70 0 -90 -24 -90 -113v-753h70
v340c52 -33 109 -73 146 -106l52 50c-59 46 -135 93 -198 125v345c0 38 5 44 30 44z" />
</svg>
