<?xml version="1.0" standalone="no"?>
<!DOCTYPE svg PUBLIC "-//W3C//DTD SVG 1.1//EN" "http://www.w3.org/Graphics/SVG/1.1/DTD/svg11.dtd" >
<svg xmlns="http://www.w3.org/2000/svg" xmlns:xlink="http://www.w3.org/1999/xlink" version="1.1" viewBox="-10 0 1010 1000">
   <path fill="currentColor"
d="M329 80l49 30c-30 82 -67 180 -102 260c74 82 91 154 91 216c0 54 -12 98 -40 118c-14 10 -33 16 -54 19c-21 2 -48 3 -72 1c-1 -20 -8 -48 -19 -68c24 3 45 3 63 2c12 -1 24 -4 33 -9c15 -11 21 -38 21 -70c0 -55 -19 -123 -91 -202c29 -71 60 -159 81 -226h-137v803
h-71v-870h236zM951 923l-66 33c-10 -25 -26 -57 -42 -90c-366 38 -407 45 -433 57c-4 -17 -18 -56 -27 -77c20 -5 40 -29 65 -65c22 -30 88 -133 138 -243h-208v-71h236v-181h-195v-71h195v-172h73v172h209v71h-209v181h252v71h-261c-53 107 -118 212 -181 296l312 -30
c-27 -48 -57 -97 -86 -139l62 -27c61 89 134 210 166 285z" />
</svg>
