<?xml version="1.0" standalone="no"?>
<!DOCTYPE svg PUBLIC "-//W3C//DTD SVG 1.1//EN" "http://www.w3.org/Graphics/SVG/1.1/DTD/svg11.dtd" >
<svg xmlns="http://www.w3.org/2000/svg" xmlns:xlink="http://www.w3.org/1999/xlink" version="1.1" viewBox="-10 0 1010 1000">
   <path fill="currentColor"
d="M895 120v70h-433v-70h433zM346 83l52 29c-30 81 -68 179 -103 258c75 83 93 155 93 218c0 52 -13 95 -41 115c-15 11 -34 16 -55 19c-20 2 -46 2 -69 1c-1 -18 -8 -46 -20 -65c23 1 43 2 60 1c12 -1 23 -4 31 -9c16 -11 22 -39 22 -69c0 -55 -19 -123 -92 -202
c29 -72 60 -158 81 -225h-145v802h-71v-870h245zM489 538l68 15c-31 115 -81 230 -135 307c-13 -11 -43 -32 -60 -39c55 -71 100 -178 127 -283zM949 427h-243v435c0 42 -8 65 -37 77c-28 13 -74 15 -144 15c-3 -22 -13 -54 -23 -76c52 2 98 1 111 1c15 -1 19 -5 19 -17
v-435h-213v-70h530v70zM774 555l62 -19c48 96 97 222 114 300l-69 24c-14 -78 -60 -207 -107 -305z" />
</svg>
