<?xml version="1.0" standalone="no"?>
<!DOCTYPE svg PUBLIC "-//W3C//DTD SVG 1.1//EN" "http://www.w3.org/Graphics/SVG/1.1/DTD/svg11.dtd" >
<svg xmlns="http://www.w3.org/2000/svg" xmlns:xlink="http://www.w3.org/1999/xlink" version="1.1" viewBox="-10 0 1010 1000">
   <path fill="currentColor"
d="M942 294l-57 37c-9 -14 -21 -32 -36 -51c-346 25 -386 29 -411 40c-3 -15 -14 -49 -22 -68c16 -3 34 -17 54 -38c22 -20 93 -99 141 -179l69 24c-45 65 -97 127 -148 177l270 -16c-27 -36 -57 -71 -82 -102l53 -31c57 65 132 154 169 207zM706 354l42 -41
c63 42 149 112 196 165l-45 47c-42 -50 -128 -124 -193 -171zM555 316l62 26c-54 65 -129 141 -190 189c-11 -11 -34 -39 -49 -51c61 -43 130 -107 177 -164zM331 80l48 30c-29 81 -65 178 -99 258c72 82 89 155 89 217c0 53 -11 96 -39 116c-14 10 -32 16 -51 19
c-20 2 -46 2 -68 1c0 -19 -7 -47 -19 -66c24 2 43 3 59 1c12 0 23 -3 31 -9c15 -11 21 -38 21 -69c0 -54 -18 -123 -90 -202c29 -72 59 -158 79 -225h-130v803h-67v-870h225zM554 614l-10 11c28 47 67 93 119 134c53 -39 97 -87 127 -145h-236zM838 553l46 23
c-36 94 -93 168 -164 224c68 43 152 77 251 96c-14 14 -33 44 -41 63c-106 -25 -195 -67 -267 -118c-85 53 -185 89 -289 110c-7 -17 -23 -46 -36 -61c96 -17 190 -47 269 -94c-45 -40 -80 -83 -107 -127c-31 29 -62 55 -94 77c-11 -12 -35 -38 -50 -50
c89 -58 182 -146 236 -238l63 22c-16 26 -33 51 -52 76h223z" />
</svg>
