<?xml version="1.0" standalone="no"?>
<!DOCTYPE svg PUBLIC "-//W3C//DTD SVG 1.1//EN" "http://www.w3.org/Graphics/SVG/1.1/DTD/svg11.dtd" >
<svg xmlns="http://www.w3.org/2000/svg" xmlns:xlink="http://www.w3.org/1999/xlink" version="1.1" viewBox="-10 0 1010 1000">
   <path fill="currentColor"
d="M945 98v67h-562v-67h562zM929 553l-62 24c-27 -51 -86 -127 -147 -195c46 -59 96 -133 122 -179l66 17c-32 52 -75 111 -113 161c52 56 107 126 134 172zM662 203l65 16c-30 53 -72 113 -107 162c48 57 98 128 123 173l-64 23c-25 -51 -77 -127 -133 -195
c44 -59 91 -132 116 -179zM560 555l-65 21c-21 -51 -70 -126 -122 -194c41 -60 86 -133 109 -180l66 16c-29 53 -70 114 -104 163c45 58 92 128 116 174zM302 84l47 27c-25 82 -59 186 -88 268c64 83 77 155 77 217c1 53 -10 95 -35 114c-13 10 -29 15 -48 18
c-18 2 -39 2 -60 1c0 -18 -6 -46 -16 -64c19 2 36 2 50 1c11 0 21 -2 28 -8c14 -11 19 -40 19 -70c-1 -54 -15 -123 -78 -202c26 -73 51 -164 69 -232h-119v802h-65v-870h208zM691 857h266v67h-632v-67h294v-179h-222v-66h532v66h-238v179z" />
</svg>
