<?xml version="1.0" standalone="no"?>
<!DOCTYPE svg PUBLIC "-//W3C//DTD SVG 1.1//EN" "http://www.w3.org/Graphics/SVG/1.1/DTD/svg11.dtd" >
<svg xmlns="http://www.w3.org/2000/svg" xmlns:xlink="http://www.w3.org/1999/xlink" version="1.1" viewBox="-10 0 1010 1000">
   <path fill="currentColor"
d="M320 80l49 30c-30 81 -67 180 -100 258c72 82 89 155 89 216c0 54 -11 97 -39 117c-14 10 -32 16 -51 19c-21 2 -46 2 -68 1c-1 -19 -7 -47 -19 -66c23 2 42 2 58 1c12 0 23 -3 31 -9c16 -11 21 -38 21 -69c0 -54 -18 -123 -89 -202c28 -71 58 -158 79 -225h-130v803h-67
v-870h225zM884 529l51 46c-42 41 -91 84 -132 116c39 83 92 151 158 191c-17 12 -39 38 -49 57c-120 -84 -192 -250 -233 -440h-81v352l148 -50c1 19 5 45 8 58c-184 72 -210 86 -226 100c-5 -17 -18 -46 -29 -62c15 -6 35 -23 35 -62v-336h-60c-5 147 -24 325 -86 453
c-13 -11 -43 -27 -60 -33c74 -149 80 -359 80 -509v-309h515v65h-448v244v24h466v65h-205c12 49 26 96 43 139c38 -33 79 -75 105 -109zM899 331h-383v-63h383v63z" />
</svg>
