<?xml version="1.0" standalone="no"?>
<!DOCTYPE svg PUBLIC "-//W3C//DTD SVG 1.1//EN" "http://www.w3.org/Graphics/SVG/1.1/DTD/svg11.dtd" >
<svg xmlns="http://www.w3.org/2000/svg" xmlns:xlink="http://www.w3.org/1999/xlink" version="1.1" viewBox="-10 0 1010 1000">
   <path fill="currentColor"
d="M950 201l-55 28c-15 -38 -53 -95 -88 -136l52 -24c36 39 76 95 91 132zM685 119v64h-257v-64h257zM317 81l47 29c-29 81 -65 179 -98 259c71 82 88 154 88 216c0 53 -11 97 -38 116c-14 11 -32 17 -51 19c-19 3 -44 3 -66 2c-1 -19 -7 -47 -18 -66c23 2 41 3 58 1
c11 -1 22 -3 30 -9c15 -11 21 -39 21 -70c0 -54 -19 -122 -89 -202c28 -71 58 -158 78 -224h-131v803h-64v-871h222zM613 816l120 -23l5 60c-128 26 -262 54 -360 73l-16 -66l55 -9v-404h60v393l76 -13v-457h60v176h97v60h-97v210zM950 348h-160c14 317 54 543 99 543
c15 0 23 -56 24 -167c15 15 35 28 53 36c-9 150 -28 197 -87 197c-98 0 -137 -268 -153 -609h-351v-65h348c-3 -77 -5 -157 -6 -238h67c-1 83 1 163 3 238h163v65z" />
</svg>
