<?xml version="1.0" standalone="no"?>
<!DOCTYPE svg PUBLIC "-//W3C//DTD SVG 1.1//EN" "http://www.w3.org/Graphics/SVG/1.1/DTD/svg11.dtd" >
<svg xmlns="http://www.w3.org/2000/svg" xmlns:xlink="http://www.w3.org/1999/xlink" version="1.1" viewBox="-10 0 1010 1000">
   <path fill="currentColor"
d="M313 81l45 29c-28 81 -63 179 -95 258c69 83 86 155 86 217c1 53 -11 97 -37 116c-14 11 -31 17 -50 19c-20 3 -44 3 -65 2c-1 -19 -7 -47 -18 -66c22 2 41 3 57 1c12 -1 22 -3 30 -9c15 -11 21 -39 21 -70c-1 -54 -19 -122 -88 -202c28 -71 57 -157 77 -224h-129v803
h-63v-871h218zM799 741l-33 52c-29 -30 -83 -74 -133 -113v235h-63v-255c-52 83 -122 157 -189 201c-12 -17 -33 -41 -48 -54c79 -44 164 -130 215 -220h-177v-63h199v-221h63v221h182v63h-182v23c58 41 130 96 166 131zM415 361l53 -14c23 45 44 105 50 143l-54 15
c-7 -38 -26 -98 -49 -144zM744 336l59 21c-24 53 -52 114 -76 153l-49 -18c23 -42 51 -110 66 -156zM510 189h432s0 29 -1 38c-13 482 -24 641 -58 688c-18 26 -36 35 -66 38c-27 4 -72 3 -118 0c-1 -20 -9 -48 -20 -68c48 4 90 4 109 4c15 0 26 -2 35 -16
c27 -35 40 -186 51 -618h-396c-31 58 -67 110 -104 150c-12 -12 -40 -35 -56 -46c76 -75 137 -192 173 -315l66 15c-13 45 -29 89 -47 130z" />
</svg>
