<?xml version="1.0" standalone="no"?>
<!DOCTYPE svg PUBLIC "-//W3C//DTD SVG 1.1//EN" "http://www.w3.org/Graphics/SVG/1.1/DTD/svg11.dtd" >
<svg xmlns="http://www.w3.org/2000/svg" xmlns:xlink="http://www.w3.org/1999/xlink" version="1.1" viewBox="-10 0 1010 1000">
   <path fill="currentColor"
d="M315 80l48 30c-31 81 -70 178 -104 258c75 82 93 154 94 217c0 53 -12 95 -40 116c-15 10 -34 16 -53 19c-22 2 -47 2 -71 1c0 -19 -8 -47 -19 -66c25 2 45 3 61 1c14 0 25 -3 33 -9c17 -11 22 -38 22 -69c0 -55 -19 -123 -95 -202c30 -71 61 -159 84 -225h-133v803h-67
v-870h228zM419 612h57v128h94v-169h-180v-56h180v-105h-68c-18 31 -40 63 -65 91c-12 -12 -32 -28 -48 -36c56 -58 94 -132 115 -191l59 10c-9 23 -19 46 -30 70h246v56h-149v105h177v56h-177v169h90v-128h60v184h-361v-184zM928 182v39c-7 493 -14 649 -46 694
c-19 28 -39 37 -69 40s-80 2 -129 0c-1 -20 -8 -47 -19 -65c52 4 99 5 120 5c16 0 25 -3 35 -17c24 -33 33 -189 39 -631h-398c-32 62 -69 117 -108 161c-12 -12 -41 -32 -58 -41c76 -79 139 -200 174 -324l67 15c-13 42 -27 84 -44 124h436z" />
</svg>
