<?xml version="1.0" standalone="no"?>
<!DOCTYPE svg PUBLIC "-//W3C//DTD SVG 1.1//EN" "http://www.w3.org/Graphics/SVG/1.1/DTD/svg11.dtd" >
<svg xmlns="http://www.w3.org/2000/svg" xmlns:xlink="http://www.w3.org/1999/xlink" version="1.1" viewBox="-10 0 1010 1000">
   <path fill="currentColor"
d="M800 576h-146c-12 22 -25 44 -38 63c37 14 75 30 111 46c34 -29 58 -64 73 -109zM940 576h-79c-13 55 -39 100 -75 135c46 23 88 44 120 63l-45 46c-32 -21 -77 -45 -127 -69c-56 35 -130 60 -226 76c-5 -17 -17 -42 -27 -55c79 -10 141 -27 189 -50
c-46 -21 -93 -39 -136 -54c18 -27 37 -58 56 -92h-101v-55h129c11 -22 20 -43 28 -63l60 11c-7 17 -15 34 -24 52h258v55zM827 307v-59h-237v59h237zM827 411v-60h-237v60h237zM891 203v253h-362v-253h362zM313 81l46 29c-30 81 -65 179 -97 259c70 82 87 155 87 216
c0 53 -11 97 -37 116c-14 11 -31 17 -50 19c-20 3 -45 3 -66 2c-1 -19 -6 -47 -18 -66c23 2 42 3 57 1c13 -1 23 -3 31 -9c15 -11 20 -39 20 -69c0 -54 -18 -123 -88 -202c28 -72 58 -158 78 -225h-130v803h-62v-871h218zM448 843h507v66h-572v-827h551v66h-486v695z" />
</svg>
