<?xml version="1.0" standalone="no"?>
<!DOCTYPE svg PUBLIC "-//W3C//DTD SVG 1.1//EN" "http://www.w3.org/Graphics/SVG/1.1/DTD/svg11.dtd" >
<svg xmlns="http://www.w3.org/2000/svg" xmlns:xlink="http://www.w3.org/1999/xlink" version="1.1" viewBox="-10 0 1010 1000">
   <path fill="currentColor"
d="M846 240v-98h-140v98h140zM846 395v-100h-140v100h140zM498 295v100h143v-100h-143zM498 142v98h143v-98h-143zM915 83v370h-483v-370h483zM322 81l48 29c-30 81 -66 178 -100 258c72 83 90 155 90 218c0 52 -12 96 -39 115c-14 11 -32 17 -52 19c-20 3 -44 2 -67 2
c0 -19 -7 -46 -18 -65c23 2 42 2 58 1c12 0 23 -4 31 -9c15 -11 21 -39 21 -71c0 -54 -18 -122 -90 -202c29 -71 58 -157 79 -224h-137v803h-67v-871h232zM897 641l47 49c-43 33 -94 66 -140 93c44 54 98 96 164 121c-17 14 -36 39 -47 59c-141 -64 -229 -194 -277 -365
h-110v267l167 -38c-3 20 -3 49 -1 66c-197 49 -227 58 -245 71c-5 -20 -18 -55 -29 -71c15 -8 37 -26 37 -67v-228h-82v-66h573v66h-245c16 49 36 95 61 137c44 -28 95 -65 127 -94z" />
</svg>
