<?xml version="1.0" standalone="no"?>
<!DOCTYPE svg PUBLIC "-//W3C//DTD SVG 1.1//EN" "http://www.w3.org/Graphics/SVG/1.1/DTD/svg11.dtd" >
<svg xmlns="http://www.w3.org/2000/svg" xmlns:xlink="http://www.w3.org/1999/xlink" version="1.1" viewBox="-10 0 1010 1000">
   <path fill="currentColor"
d="M257 83l44 24c-19 81 -42 186 -65 270c46 83 56 154 56 215c0 51 -8 95 -30 112c-9 10 -24 15 -40 17c-13 2 -30 2 -47 1c0 -17 -6 -42 -15 -59c15 1 27 1 38 1c9 0 15 -2 21 -8c11 -10 14 -41 14 -71c0 -54 -8 -123 -53 -202c19 -73 36 -163 48 -229h-83v799h-61v-867
h164zM842 289h-103c-3 12 -7 24 -11 35c11 103 29 216 65 318c30 -98 43 -215 49 -353zM954 289h-48c-10 178 -30 321 -78 437c35 68 79 127 139 170c-14 13 -36 41 -45 60c-53 -43 -96 -97 -128 -159c-37 63 -85 117 -149 163c-6 -15 -25 -47 -37 -60
c69 -45 117 -103 153 -175c-39 -94 -60 -197 -74 -294c-11 25 -22 47 -35 68l-6 -8v48h-188c-2 32 -5 63 -9 91h174s0 19 -1 29c-8 170 -17 236 -37 259c-13 16 -27 22 -50 24c-17 2 -52 2 -86 0c-2 -20 -8 -45 -17 -62c34 4 62 4 74 4c13 0 20 -1 26 -9
c11 -14 18 -62 25 -185h-117c-21 115 -61 202 -133 266c-8 -13 -32 -39 -46 -50c93 -75 123 -199 131 -367h-94v-62h150v-104h-123v-62h123v-93h-137v-62h137v-101h65v101h126v62h-126v93h109v62h-109v104h120c-10 -11 -21 -22 -30 -30c62 -98 102 -250 124 -404l65 12
c-10 58 -22 116 -35 170h197v64z" />
</svg>
