<?xml version="1.0" standalone="no"?>
<!DOCTYPE svg PUBLIC "-//W3C//DTD SVG 1.1//EN" "http://www.w3.org/Graphics/SVG/1.1/DTD/svg11.dtd" >
<svg xmlns="http://www.w3.org/2000/svg" xmlns:xlink="http://www.w3.org/1999/xlink" version="1.1" viewBox="-10 0 1010 1000">
   <path fill="currentColor"
d="M487 241h134v-77h-134v77zM833 164h-142v77h142v-77zM621 342v-52h-195v-175h195v-71h70v71h206v175h-206v52h265v54h-600v-54h265zM322 83l49 30c-30 83 -68 186 -101 265c74 82 91 154 91 216c0 54 -12 95 -40 115c-14 10 -32 15 -52 18s-44 3 -67 1
c-1 -18 -7 -46 -19 -66c23 2 43 3 58 1c13 -1 24 -3 32 -9c15 -10 21 -38 21 -68c0 -54 -19 -122 -92 -200c29 -72 60 -164 81 -232h-133v802h-66v-870h227zM530 815l66 22c-54 52 -150 95 -231 120c-10 -12 -35 -39 -49 -51c79 -20 167 -52 214 -91zM503 703v61h318v-61
h-318zM503 598v59h318v-59h-318zM503 493v59h318v-59h-318zM893 813h-134c73 32 155 72 202 105l-63 38c-43 -33 -119 -75 -191 -108l44 -35h-318v-368h460v368z" />
</svg>
