<?xml version="1.0" standalone="no"?>
<!DOCTYPE svg PUBLIC "-//W3C//DTD SVG 1.1//EN" "http://www.w3.org/Graphics/SVG/1.1/DTD/svg11.dtd" >
<svg xmlns="http://www.w3.org/2000/svg" xmlns:xlink="http://www.w3.org/1999/xlink" version="1.1" viewBox="-10 0 1010 1000">
   <path fill="currentColor"
d="M316 81l48 29c-29 81 -65 179 -99 259c72 82 90 155 90 216c0 53 -12 97 -40 116c-13 11 -32 17 -52 19c-19 3 -45 3 -66 2c-1 -19 -8 -47 -19 -66c23 2 42 3 58 1c12 -1 23 -3 31 -9c15 -11 21 -39 21 -69c0 -54 -18 -123 -90 -202c29 -72 59 -158 79 -225h-129v802h-64
v-870h221zM474 714l63 -19c25 44 46 104 53 144l-67 21c-5 -40 -25 -101 -49 -146zM754 689l74 23c-24 49 -52 104 -77 148h194v65h-602v-65h333c28 -48 61 -120 78 -171zM791 619v-108h-285v108h285zM860 451v228h-420v-228h420zM905 192l47 48c-34 26 -72 52 -106 74
c36 44 75 76 120 104c-18 14 -37 37 -47 57c-57 -39 -105 -82 -148 -145v54h-254v-42c-41 61 -91 109 -144 143c-9 -16 -27 -41 -43 -53c47 -28 91 -71 129 -124c-26 -25 -62 -54 -92 -75l39 -45c28 18 61 44 87 66c19 -33 35 -70 47 -107h-146v-65h172l13 -3l42 16
c-18 86 -51 162 -90 226h235c-42 -64 -77 -146 -108 -260l61 -12c11 39 23 74 36 106c28 -25 60 -54 79 -77l49 48c-34 29 -71 59 -105 83c12 23 23 42 36 61c33 -24 69 -56 91 -78z" />
</svg>
