<?xml version="1.0" standalone="no"?>
<!DOCTYPE svg PUBLIC "-//W3C//DTD SVG 1.1//EN" "http://www.w3.org/Graphics/SVG/1.1/DTD/svg11.dtd" >
<svg xmlns="http://www.w3.org/2000/svg" xmlns:xlink="http://www.w3.org/1999/xlink" version="1.1" viewBox="-10 0 1010 1000">
   <path fill="currentColor"
d="M480 328v-58c-34 26 -70 49 -107 70c-11 -14 -34 -38 -50 -49c120 -63 228 -162 284 -255l72 23c-7 11 -14 22 -22 33c75 70 200 138 302 174c-13 18 -28 48 -34 67c-102 -44 -223 -118 -305 -192c-40 46 -86 89 -137 127h295v60h-298zM719 455v131h111v-131h-111z
M662 640v-240h228v240h-228zM433 455v131h107v-131h-107zM376 640v-240h224v240h-224zM302 80l46 29c-28 81 -62 180 -94 260c68 82 84 154 84 215c0 54 -11 97 -37 117c-13 10 -31 16 -50 19c-19 2 -43 2 -63 1c-1 -19 -7 -47 -19 -66c23 2 40 2 56 1c11 0 22 -3 29 -9
c14 -11 20 -38 20 -69c0 -54 -17 -123 -83 -202c27 -71 55 -158 73 -225h-119v803h-64v-870h210zM461 663l67 14c-8 25 -18 51 -29 74c42 26 89 62 112 87l-39 50c-21 -25 -63 -58 -101 -87c-40 65 -92 119 -150 159c-10 -13 -35 -37 -51 -49c92 -54 159 -140 191 -248z
M739 662l67 10c-6 30 -14 60 -25 87c63 40 135 94 172 133l-44 50c-34 -35 -96 -86 -155 -127c-30 58 -71 106 -121 142c-10 -13 -34 -37 -50 -49c81 -53 134 -138 156 -246z" />
</svg>
