<?xml version="1.0" standalone="no"?>
<!DOCTYPE svg PUBLIC "-//W3C//DTD SVG 1.1//EN" "http://www.w3.org/Graphics/SVG/1.1/DTD/svg11.dtd" >
<svg xmlns="http://www.w3.org/2000/svg" xmlns:xlink="http://www.w3.org/1999/xlink" version="1.1" viewBox="-10 0 1010 1000">
   <path fill="currentColor"
d="M961 250l-57 34c-27 -47 -85 -117 -136 -168l53 -30c52 49 112 118 140 164zM674 44v216h-67v-216h67zM467 90l66 16c-31 69 -82 137 -132 180c-12 -9 -39 -28 -55 -38c50 -40 95 -98 121 -158zM320 83l49 30c-29 82 -66 183 -100 263c73 81 91 153 91 213
c0 53 -12 96 -40 115c-14 10 -32 16 -53 19c-19 2 -45 2 -67 1c-1 -19 -7 -47 -19 -67c23 2 42 3 58 1c12 0 24 -3 31 -9c16 -11 21 -37 21 -67c0 -53 -18 -120 -89 -198c29 -71 58 -161 79 -230h-131v803h-66v-871h225zM355 944l-55 -33c39 -35 68 -99 81 -162l61 13
c-15 66 -43 138 -87 182zM485 775l56 -8c11 49 17 114 16 156l-58 8c2 -42 -4 -106 -14 -156zM605 770l50 -13c20 41 39 97 46 134l-54 14c-5 -36 -23 -93 -42 -135zM512 627v56h135v-56h-135zM647 480v-54h-135v54h135zM647 581v-55h-135v55h135zM713 683h226s0 18 -2 27
c-9 144 -20 201 -40 222c-14 15 -30 21 -54 23c-19 1 -55 2 -90 -1c-1 -17 -8 -41 -17 -57c36 4 68 4 81 4s20 -1 27 -8c12 -13 21 -56 28 -161h-429v-306c-26 6 -54 12 -80 17c-8 -14 -30 -44 -42 -58c187 -29 375 -87 457 -192l68 19c-53 71 -138 123 -236 161h312v53
h-209v54h181v46h-181v55h181v46h-181v56zM827 840l-45 23c-11 -31 -39 -74 -65 -105l43 -19c28 30 55 73 67 101z" />
</svg>
