<?xml version="1.0" standalone="no"?>
<!DOCTYPE svg PUBLIC "-//W3C//DTD SVG 1.1//EN" "http://www.w3.org/Graphics/SVG/1.1/DTD/svg11.dtd" >
<svg xmlns="http://www.w3.org/2000/svg" xmlns:xlink="http://www.w3.org/1999/xlink" version="1.1" viewBox="-10 0 1010 1000">
   <path fill="currentColor"
d="M818 202l-67 26c-12 -40 -41 -103 -68 -149l63 -22c28 45 59 105 72 145zM466 286h-214c-33 191 -83 355 -163 477c-13 -11 -44 -35 -62 -44c77 -106 124 -259 153 -433h-117v-71h128c8 -56 15 -113 20 -172l73 6c-6 57 -13 112 -21 166h203v71zM346 611l57 -18
c32 97 67 221 81 305l-61 21c-3 -22 -8 -48 -13 -74c-209 40 -241 47 -259 58c-3 -15 -14 -48 -23 -66c18 -5 33 -36 53 -80c21 -42 85 -209 115 -360l71 19c-36 138 -89 285 -144 398l172 -29c-15 -59 -32 -121 -49 -174zM588 699v138h142v-138h-142zM730 298h-142v136h142
v-136zM730 635v-136h-142v136h142zM947 837v68h-359v50h-67v-596c-23 38 -46 73 -71 104c-8 -13 -31 -44 -45 -56c75 -89 139 -225 178 -359l64 16c-18 57 -38 114 -63 168h350v66h-136v136h134v65h-134v136h135v64h-135v138h149z" />
</svg>
