<?xml version="1.0" standalone="no"?>
<!DOCTYPE svg PUBLIC "-//W3C//DTD SVG 1.1//EN" "http://www.w3.org/Graphics/SVG/1.1/DTD/svg11.dtd" >
<svg xmlns="http://www.w3.org/2000/svg" xmlns:xlink="http://www.w3.org/1999/xlink" version="1.1" viewBox="-10 0 1010 1000">
   <path fill="currentColor"
d="M595 693v137h139v-137h-139zM734 427v-133h-139v133h139zM734 629v-137h-139v137h139zM952 830v68h-357v59h-68v-587c-17 29 -35 54 -53 78v48h-84v355c0 44 -11 64 -38 76c-28 12 -76 14 -151 14c-2 -19 -12 -50 -21 -70c56 1 107 1 122 1c15 -1 21 -5 21 -21v-332
c-60 138 -153 276 -238 355c-13 -17 -36 -42 -52 -55c82 -68 174 -199 230 -323h-126v1h-67c20 -77 42 -202 56 -295l65 6c-11 67 -26 150 -39 217h171v-260h-245v-70h387v70h-75v260h61c-10 -12 -20 -23 -28 -30c74 -86 136 -216 173 -348l66 17c-17 55 -38 110 -60 162
h151c-7 -42 -27 -102 -50 -150l56 -22c26 47 47 111 54 152l-49 20h177v68h-141v133h125v65h-125v137h125v64h-125v137h152z" />
</svg>
