<?xml version="1.0" standalone="no"?>
<!DOCTYPE svg PUBLIC "-//W3C//DTD SVG 1.1//EN" "http://www.w3.org/Graphics/SVG/1.1/DTD/svg11.dtd" >
<svg xmlns="http://www.w3.org/2000/svg" xmlns:xlink="http://www.w3.org/1999/xlink" version="1.1" viewBox="-10 0 1010 1000">
   <path fill="currentColor"
d="M822 200l-58 23c-6 -38 -26 -96 -48 -139l55 -21c23 43 44 100 51 137zM334 740l13 62c-99 39 -202 80 -284 113l-18 -67c14 -5 29 -10 46 -16v-569h54v550l55 -21v-730h60v303h74v59h-74v344zM424 800l93 -49c4 17 12 43 18 57c-134 76 -156 93 -170 110
c-8 -13 -28 -37 -40 -46c14 -13 36 -45 36 -94v-714h63v300h77v59h-77v377zM631 688v156h114v-156h-114zM745 429v-141h-114v141h114zM745 628v-139h-114v139h114zM950 844v62h-319v50h-63v-525c-14 29 -28 58 -44 82c-7 -14 -26 -47 -38 -61c63 -103 112 -258 140 -412
l61 13c-12 57 -27 115 -42 171h300v64h-137v141h110v60h-110v139h110v60h-110v156h142z" />
</svg>
