<?xml version="1.0" standalone="no"?>
<!DOCTYPE svg PUBLIC "-//W3C//DTD SVG 1.1//EN" "http://www.w3.org/Graphics/SVG/1.1/DTD/svg11.dtd" >
<svg xmlns="http://www.w3.org/2000/svg" xmlns:xlink="http://www.w3.org/1999/xlink" version="1.1" viewBox="-10 0 1010 1000">
   <path fill="currentColor"
d="M378 792v64h203v-64h-203zM581 636v-64h-203v64h203zM581 744v-60h-203v60h203zM654 792v64h269v53h-545v42h-71v-315c-20 24 -39 44 -60 62c-7 -13 -26 -44 -39 -58c64 -52 123 -130 157 -212l61 20c-11 24 -23 48 -36 72h197c-8 -19 -18 -38 -28 -54l60 -19
c15 23 30 50 41 73h247v52h-253v64h220v48h-220v60h220v48h-220zM570 396h251c43 0 52 -8 56 -54c16 10 40 16 58 19c-7 67 -29 84 -107 84h-260c-114 0 -146 -14 -146 -79v-9l-175 12l-4 -51l179 -12v-54h-216v197c0 147 -15 362 -106 506c-13 -13 -42 -35 -58 -43
c85 -135 94 -325 94 -463v-255h308v-150h73v46h330v56h-330v48h371l12 -3l51 14c-20 45 -45 94 -68 125l-60 -18c10 -16 22 -38 33 -60h-365v49l269 -17l3 44l-272 19v19c0 25 12 30 79 30z" />
</svg>
