<?xml version="1.0" standalone="no"?>
<!DOCTYPE svg PUBLIC "-//W3C//DTD SVG 1.1//EN" "http://www.w3.org/Graphics/SVG/1.1/DTD/svg11.dtd" >
<svg xmlns="http://www.w3.org/2000/svg" xmlns:xlink="http://www.w3.org/1999/xlink" version="1.1" viewBox="-10 0 1010 1000">
   <path fill="currentColor"
d="M840 208l-58 24c-7 -42 -29 -107 -51 -155l55 -21c23 47 45 111 54 152zM180 399h86v-81h-74v-54h74v-83h55v83h78v54h-78v81h93v54h-234v-54zM346 571h-104v140h104v-140zM393 765h-151v55h-49v-303h200v248zM642 695v142h113v-142h-113zM755 430v-129h-113v129h113z
M755 630v-135h-113v135h113zM961 837l-1 68h-318v53h-66v-564c-17 31 -34 60 -52 85c-5 -8 -14 -21 -24 -31v406c0 39 -8 61 -32 73c-27 12 -69 15 -130 14c-3 -19 -15 -51 -24 -69c48 2 92 1 105 1c14 -1 18 -5 18 -20v-702h-282v332c0 141 -8 338 -66 468
c-12 -10 -39 -25 -55 -31c55 -125 59 -303 59 -437v-396h407v306c59 -93 109 -222 140 -349l65 16c-16 59 -35 117 -56 173h303v68h-133v129h123v65h-123v135h123v65h-123v142h142z" />
</svg>
