<?xml version="1.0" standalone="no"?>
<!DOCTYPE svg PUBLIC "-//W3C//DTD SVG 1.1//EN" "http://www.w3.org/Graphics/SVG/1.1/DTD/svg11.dtd" >
<svg xmlns="http://www.w3.org/2000/svg" xmlns:xlink="http://www.w3.org/1999/xlink" version="1.1" viewBox="-10 0 1010 1000">
   <path fill="currentColor"
d="M869 182l-54 23c-10 -34 -37 -85 -63 -121l51 -20c27 35 55 85 66 118zM558 232l-55 27c-17 -41 -59 -107 -97 -155l51 -23c40 47 83 109 101 151zM338 186l-55 24c-11 -33 -39 -85 -64 -122l51 -21c27 36 55 87 68 119zM169 674v136h84v-136h-84zM253 411v-127h-84v127
h84zM253 610v-134h-84v134h84zM310 674v136h98v68h-239v68h-59v-569c-14 29 -28 56 -44 80c-4 -14 -21 -50 -31 -66c55 -88 99 -218 125 -348l57 15c-12 51 -27 103 -42 154h218v72h-83v127h77v65h-77v134h78v64h-78zM527 753l79 -47c3 19 10 44 16 56
c-121 76 -147 93 -159 109v1v-1l-1 1l-1 -4c-7 -16 -22 -38 -32 -50c14 -10 39 -35 39 -76v-320h-77v-69h136v400zM696 677v136h93v-136h-93zM789 412v-133h-93v133h93zM789 612v-136h-93v136h93zM954 813v69h-258v65h-59v-583c-17 35 -34 66 -53 95c-7 -14 -25 -45 -37 -60
c60 -89 105 -221 132 -356l59 14c-12 52 -25 104 -41 154h246v68h-95v133h78v64h-78v136h78v65h-78v136h106z" />
</svg>
