<?xml version="1.0" standalone="no"?>
<!DOCTYPE svg PUBLIC "-//W3C//DTD SVG 1.1//EN" "http://www.w3.org/Graphics/SVG/1.1/DTD/svg11.dtd" >
<svg xmlns="http://www.w3.org/2000/svg" xmlns:xlink="http://www.w3.org/1999/xlink" version="1.1" viewBox="-10 0 1010 1000">
   <path fill="currentColor"
d="M143 246v138h-67v-193h386v-56h-324v-55h725v55h-329v56h394v193h-70v-138h-324v192h-72v-192h-319zM588 419v-39h242v39h-242zM588 292h214v39h-214v-39zM174 420v-40h236v40h-236zM199 292h210v39h-210v-39zM616 536h-230c-5 20 -10 40 -16 61c59 80 150 146 260 196
c60 -31 111 -69 149 -116h-237c23 -39 50 -91 74 -141zM836 620l43 30c-41 72 -102 129 -175 174c80 29 166 51 256 65c-14 15 -32 45 -41 65c-105 -17 -204 -48 -294 -88c-96 43 -207 72 -320 89c-6 -17 -24 -48 -37 -62c99 -13 196 -34 281 -65
c-79 -44 -149 -97 -204 -160c-44 110 -118 220 -256 287c-10 -18 -31 -45 -46 -59c178 -81 237 -242 264 -360h-178v-56h591c-22 46 -48 98 -72 142h175z" />
</svg>
