<?xml version="1.0" standalone="no"?>
<!DOCTYPE svg PUBLIC "-//W3C//DTD SVG 1.1//EN" "http://www.w3.org/Graphics/SVG/1.1/DTD/svg11.dtd" >
<svg xmlns="http://www.w3.org/2000/svg" xmlns:xlink="http://www.w3.org/1999/xlink" version="1.1" viewBox="-10 0 1010 1000">
   <path fill="currentColor"
d="M461 620h-225v91h225v-91zM766 711v-91h-232v91h232zM534 862h232v-93h-232v93zM236 862h225v-93h-225v93zM164 958v-397h675v389h-73v-29h-530v37h-72zM174 493v-53h238v53h-238zM196 326h215v54h-215v-54zM583 493v-53h246v53h-246zM583 326h221v54h-221v-54zM534 203
h388v216h-70v-155h-318v262h-73v-262h-314v155h-68v-216h382v-66h-323v-61h724v61h-328v66z" />
</svg>
