<?xml version="1.0" standalone="no"?>
<!DOCTYPE svg PUBLIC "-//W3C//DTD SVG 1.1//EN" "http://www.w3.org/Graphics/SVG/1.1/DTD/svg11.dtd" >
<svg xmlns="http://www.w3.org/2000/svg" xmlns:xlink="http://www.w3.org/1999/xlink" version="1.1" viewBox="-10 0 1010 1000">
   <path fill="currentColor"
d="M147 255v136h-67v-190h382v-58h-325v-60h726v60h-331v58h389v190h-69v-136h-320v236h-70v-236h-315zM584 464v-50h244v50h-244zM584 310h220v49h-220v-49zM410 310v49h-214v-49h214zM175 464v-50h235v50h-235zM935 584h-405c-8 25 -18 49 -26 71h375v228
c0 33 -6 51 -31 62s-62 11 -116 11c-4 -18 -14 -44 -23 -61c40 1 73 1 85 0c11 -1 14 -4 14 -13v-166h-157v232h-68v-232h-152v232h-67v-232h-148v238h-71v-299h289c7 -23 14 -48 20 -71h-386v-61h867v61z" />
</svg>
