<?xml version="1.0" standalone="no"?>
<!DOCTYPE svg PUBLIC "-//W3C//DTD SVG 1.1//EN" "http://www.w3.org/Graphics/SVG/1.1/DTD/svg11.dtd" >
<svg xmlns="http://www.w3.org/2000/svg" xmlns:xlink="http://www.w3.org/1999/xlink" version="1.1" viewBox="-10 0 1010 1000">
   <path fill="currentColor"
d="M174 429v-45h238v45h-238zM196 291h215v44h-215v-44zM926 754v55h-516v-55h223v-79h-181v-56h181v-75c-63 5 -125 9 -183 10c-2 -14 -10 -36 -16 -50c138 -6 313 -22 407 -46l38 48c-49 13 -111 23 -178 31v82h184v56h-184v79h225zM583 429v-45h246v45h-246zM583 291h221
v44h-221v-44zM147 240v118h-68v-167h385v-55h-327v-55h726v55h-327v55h386v167h-70v-118h-316v200h-72v-200h-317zM341 623l42 12c-19 78 -51 141 -94 191c84 38 197 46 335 47c37 0 278 0 330 -2c-10 16 -22 44 -25 63h-305c-164 0 -287 -12 -378 -65
c-45 38 -97 66 -155 86c-7 -17 -23 -42 -36 -55c51 -15 97 -38 137 -70c-27 -24 -50 -54 -71 -90l51 -23c16 31 37 55 61 75c30 -33 53 -70 70 -114h-184c38 -41 83 -97 122 -150h-155v-56h275c-14 18 -28 37 -42 56c-26 33 -53 67 -78 97h89z" />
</svg>
