<?xml version="1.0" standalone="no"?>
<!DOCTYPE svg PUBLIC "-//W3C//DTD SVG 1.1//EN" "http://www.w3.org/Graphics/SVG/1.1/DTD/svg11.dtd" >
<svg xmlns="http://www.w3.org/2000/svg" xmlns:xlink="http://www.w3.org/1999/xlink" version="1.1" viewBox="-10 0 1010 1000">
   <path fill="currentColor"
d="M146 202v107h-67v-150h380v-42h-328v-45h734v45h-333v42h387v151h-70v-108h-317v141h-73v-141h-313zM803 237v38h-219v-38h219zM584 350v-38h219v38h-219zM405 237v38h-212v-38h212zM193 350v-38h212v38h-212zM532 601v40h216v-40h-216zM532 517v42h216v-42h-216z
M656 771h-294c-12 12 -24 23 -34 32c78 11 157 23 231 37c39 -19 72 -42 97 -69zM821 685h-379c-9 13 -21 26 -34 39h521v47h-194c-22 34 -51 61 -88 85c104 20 198 39 270 59l-63 41c-72 -20 -168 -43 -281 -64c-115 45 -275 64 -471 73c-4 -18 -13 -39 -23 -53
c156 -4 285 -15 385 -40c-81 -14 -168 -27 -257 -40c23 -18 46 -38 70 -61h-203v-47h250c12 -13 23 -26 35 -39h-204v-44h304v-40h-400v-42h400v-42h-298v-44h298v-36h-377v-47h377v-33h73v33h384v47h-384v36h289v81h121v50h-121v81z" />
</svg>
