<?xml version="1.0" standalone="no"?>
<!DOCTYPE svg PUBLIC "-//W3C//DTD SVG 1.1//EN" "http://www.w3.org/Graphics/SVG/1.1/DTD/svg11.dtd" >
<svg xmlns="http://www.w3.org/2000/svg" xmlns:xlink="http://www.w3.org/1999/xlink" version="1.1" viewBox="-10 0 1010 1000">
   <path fill="currentColor"
d="M361 539v-63h74v479h-74v-107h-304v-62h304v-69h-259v-54h259v-69h-273v-55h273zM175 445v-43h236v43h-236zM411 302v43h-216v-43h216zM857 250h-324v209h-73v-209h-317v134h-69v-184h386v-60h-321v-57h724v57h-330v60h394v184h-70v-134zM584 445v-43h242v43h-242z
M584 302h219v43h-219v-43zM943 787v61h-302v107h-74v-478h74v61h270v57h-270v65h250v56h-250v71h302z" />
</svg>
