<?xml version="1.0" standalone="no"?>
<!DOCTYPE svg PUBLIC "-//W3C//DTD SVG 1.1//EN" "http://www.w3.org/Graphics/SVG/1.1/DTD/svg11.dtd" >
<svg xmlns="http://www.w3.org/2000/svg" xmlns:xlink="http://www.w3.org/1999/xlink" version="1.1" viewBox="-10 0 1010 1000">
   <path fill="currentColor"
d="M110 264v77h-52v-133h169v-65h-153v-59h374v59h-163v65h168v133h-53v-77h-115v239h-58v-239h-117zM91 467v-49h107v49h-107zM200 315v49h-82v-49h82zM423 536v55h-326v-55h326zM423 418v49h-110v-49h110zM313 315h84v49h-84v-49zM45 717v-57h410v57h-199
c-27 46 -57 90 -87 126l173 -19c-10 -24 -21 -48 -32 -69l52 -17c29 55 64 128 81 171l-56 22c-6 -16 -13 -36 -22 -58c-226 28 -255 34 -274 41c-4 -13 -14 -43 -21 -60c14 -1 27 -12 41 -30c11 -12 46 -56 74 -107h-140zM775 873h60c15 0 31 -1 39 -3c7 -3 16 -9 19 -23
c3 -16 6 -49 7 -94c16 15 39 28 61 35c-1 39 -7 88 -14 107c-8 20 -20 32 -38 39s-44 9 -67 9h-80c-21 0 -50 -5 -68 -19c-21 -14 -31 -32 -31 -118v-129h-167v-338h63v269h104v-362h-189v-69h189v-132h67v132h211v69h-211v362h112v-270h64v406h-64v-67h-112v137
c0 29 3 48 13 54c10 4 19 5 32 5z" />
</svg>
