<?xml version="1.0" standalone="no"?>
<!DOCTYPE svg PUBLIC "-//W3C//DTD SVG 1.1//EN" "http://www.w3.org/Graphics/SVG/1.1/DTD/svg11.dtd" >
<svg xmlns="http://www.w3.org/2000/svg" xmlns:xlink="http://www.w3.org/1999/xlink" version="1.1" viewBox="-10 0 1010 1000">
   <path fill="currentColor"
d="M157 699h178s-1 18 -3 27c-14 127 -29 181 -51 202c-15 15 -31 20 -53 21c-18 1 -53 2 -87 -1c-1 -17 -7 -40 -17 -57c34 4 66 4 79 4s21 -1 28 -7c12 -14 24 -51 34 -138h-120v1h-61c12 -47 26 -115 35 -171h150v-68h-175v-52h235v172h-159c-4 23 -8 46 -13 67zM173 410
v-44h236v44h-236zM198 280h210v44h-210v-44zM619 699l-3 27c-15 127 -30 180 -52 201c-15 15 -31 20 -53 22c-19 1 -53 1 -87 -1c-2 -18 -8 -42 -17 -58c34 4 66 4 78 4c13 0 21 -1 28 -8c13 -13 25 -51 36 -136h-123v1h-62c12 -47 26 -115 35 -171h153v-68h-178v-52h239
v172h-162c-4 23 -9 46 -13 67h181zM586 412v-45h244v45h-244zM586 280h216v44h-216v-44zM720 699h188s-1 18 -3 28c-14 126 -28 179 -51 201c-15 15 -31 20 -53 21c-20 2 -57 2 -94 -1c-1 -18 -8 -41 -18 -58c38 4 72 4 85 4c14 0 22 -1 29 -8c14 -13 25 -50 35 -136h-130v1
h-63c14 -47 27 -115 36 -171h158v-67h-184v-52h246v171h-168c-4 23 -9 46 -13 67zM534 185h388v176h-70v-124h-318v180h-72v-180h-314v124h-67v-176h381v-52h-324v-57h723v57h-327v52z" />
</svg>
