<?xml version="1.0" standalone="no"?>
<!DOCTYPE svg PUBLIC "-//W3C//DTD SVG 1.1//EN" "http://www.w3.org/Graphics/SVG/1.1/DTD/svg11.dtd" >
<svg xmlns="http://www.w3.org/2000/svg" xmlns:xlink="http://www.w3.org/1999/xlink" version="1.1" viewBox="-10 0 1010 1000">
   <path fill="currentColor"
d="M278 562h-106v283h106v-283zM113 956v-452h225v448h-60v-50h-106v54h-59zM184 443v-43h225v43h-225zM198 306h210v43h-210v-43zM551 562h-106v283h106v-283zM385 956v-451h227v448h-61v-51h-106v54h-60zM587 443v-43h231v43h-231zM587 306h216v43h-216v-43zM823 562h-106
v283h106v-283zM657 956v-452h228v448h-62v-50h-106v54h-60zM533 201h395v190h-69v-137h-326v208h-71v-208h-319v137h-66v-190h385v-56h-324v-58h726v58h-331v56z" />
</svg>
