<?xml version="1.0" standalone="no"?>
<!DOCTYPE svg PUBLIC "-//W3C//DTD SVG 1.1//EN" "http://www.w3.org/Graphics/SVG/1.1/DTD/svg11.dtd" >
<svg xmlns="http://www.w3.org/2000/svg" xmlns:xlink="http://www.w3.org/1999/xlink" version="1.1" viewBox="-10 0 1010 1000">
   <path fill="currentColor"
d="M144 214v109h-62v-155h382v-44h-321v-50h720v50h-328v44h388v155h-64v-109h-324v175h-71v-175h-320zM585 376v-41h250v41h-250zM585 255h227v42h-227v-42zM414 335v41h-243v-41h243zM131 456l37 -47c58 29 134 72 172 103l-38 53c-36 -32 -111 -79 -171 -109zM414 255v42
h-220v-42h220zM271 833l88 -43c1 19 4 47 8 60c-135 71 -160 86 -174 100c-5 -16 -20 -46 -33 -59c16 -9 38 -30 38 -73v-152h-130v-65h203v232zM655 723l47 11c-5 8 -11 17 -17 26c40 18 87 44 112 63l-29 35c-26 -18 -72 -46 -111 -66c-29 27 -62 50 -95 67
c-8 -8 -26 -25 -37 -33c54 -25 105 -60 130 -103zM754 865v42c25 2 46 2 55 2c13 0 20 -1 26 -9c10 -14 18 -62 26 -185h-362c-13 13 -27 24 -40 35h38v115h257zM487 540v42h324v-42h-324zM487 460v41h324v-41h-324zM542 668h386s-1 18 -2 26c-8 160 -18 217 -37 239
c-13 15 -29 21 -51 22c-18 2 -53 1 -88 -1c-1 -12 -5 -29 -11 -43h-302v-144c-19 14 -37 26 -56 37c-8 -12 -28 -35 -41 -45c65 -34 126 -82 165 -137h-83v-202h457v202h-306c-9 16 -19 31 -31 46z" />
</svg>
