<?xml version="1.0" standalone="no"?>
<!DOCTYPE svg PUBLIC "-//W3C//DTD SVG 1.1//EN" "http://www.w3.org/Graphics/SVG/1.1/DTD/svg11.dtd" >
<svg xmlns="http://www.w3.org/2000/svg" xmlns:xlink="http://www.w3.org/1999/xlink" version="1.1" viewBox="-10 0 1010 1000">
   <path fill="currentColor"
d="M148 228v109h-67v-157h382v-48h-324v-53h725v53h-328v48h388v157h-70v-109h-318v162h-73v-162h-315zM586 395v-41h245v41h-245zM586 272h220v41h-220v-41zM413 354v41h-237v-41h237zM110 464l37 -42c47 21 107 55 138 81l-38 46c-30 -26 -89 -62 -137 -85zM197 272h215
v41h-215v-41zM225 632l-38 46c-28 -26 -86 -62 -135 -86l36 -41c48 22 107 56 137 81zM135 948l-52 -44c46 -53 112 -143 164 -224l44 42c-47 74 -105 159 -156 226zM519 880l-47 -32c35 -25 87 -68 116 -98l50 32c-34 40 -82 74 -119 98zM504 704h231v-40h-231v40zM735 503
h-231v36h231v-36zM504 581v41h231v-41h-231zM940 704v46h-185c40 27 90 67 114 93l-47 39c-24 -27 -72 -69 -114 -98l45 -34h-314v136h465v50h-533v-186h-68v-46h132v-201h-116v-46h116v-49h69v49h231v-49h69v49h122v46h-122v201h136z" />
</svg>
