<?xml version="1.0" standalone="no"?>
<!DOCTYPE svg PUBLIC "-//W3C//DTD SVG 1.1//EN" "http://www.w3.org/Graphics/SVG/1.1/DTD/svg11.dtd" >
<svg xmlns="http://www.w3.org/2000/svg" xmlns:xlink="http://www.w3.org/1999/xlink" version="1.1" viewBox="-10 0 1010 1000">
   <path fill="currentColor"
d="M108 264v77h-50v-133h159v-65h-145v-59h342v59h-141v65h151v55c50 -58 94 -139 121 -220l63 17c-10 27 -21 56 -34 83h359v60h-390c-23 42 -48 80 -74 110c-9 -9 -29 -22 -45 -33v61h-51v-77h-100v239h-56v-239h-109zM882 326h-355v-58h355v58zM90 467v-49h98v49h-98z
M189 315v49h-74v-49h74zM384 536v55h-292v-55h292zM395 418v49h-102v-49h102zM293 315h78v49h-78v-49zM282 754l50 -16c28 54 63 127 79 171l-53 22c-6 -16 -12 -35 -21 -56c-214 26 -243 32 -261 40c-3 -14 -13 -43 -20 -60c14 -2 27 -13 40 -30c11 -13 46 -57 73 -108
h-124v-57h368v57h-175c-27 46 -57 90 -87 126l164 -18c-11 -25 -22 -49 -33 -71zM781 713h-132c34 27 115 98 135 118l-38 50c-21 -25 -68 -74 -105 -111v184h-59v-191c-42 52 -95 102 -137 133c-10 -13 -29 -32 -41 -43c52 -30 114 -86 156 -140h-125v-56h147v-177h59v177
h140v56zM452 517l47 -17c22 41 46 95 55 128l-50 20c-9 -34 -31 -90 -52 -131zM726 494l53 22c-22 45 -48 95 -68 127l-43 -18c19 -35 46 -93 58 -131zM431 393h435c-2 251 -1 482 45 493c6 2 12 -50 15 -118c12 14 29 33 41 42c-6 122 -33 158 -77 143
c-87 -24 -90 -246 -90 -500h-369v-60z" />
</svg>
