<?xml version="1.0" standalone="no"?>
<!DOCTYPE svg PUBLIC "-//W3C//DTD SVG 1.1//EN" "http://www.w3.org/Graphics/SVG/1.1/DTD/svg11.dtd" >
<svg xmlns="http://www.w3.org/2000/svg" xmlns:xlink="http://www.w3.org/1999/xlink" version="1.1" viewBox="-10 0 1010 1000">
   <path fill="currentColor"
d="M143 227v109h-62v-155h381v-49h-319v-50h720v50h-330v49h389v155h-64v-109h-325v201h-71v-201h-319zM583 398v-41h250v41h-250zM583 273h228v41h-228v-41zM413 273v41h-220v-41h220zM171 398v-41h242v41h-242zM412 497l51 36c-38 25 -86 48 -138 70
c121 113 123 278 55 326c-26 22 -47 28 -83 28c-17 0 -43 0 -65 -1c-1 -17 -7 -43 -18 -60c29 3 54 4 71 4c19 0 35 -2 48 -13c22 -14 34 -55 27 -103c-79 54 -191 106 -285 136c-6 -13 -18 -35 -27 -47c101 -25 227 -81 300 -136c-5 -15 -12 -29 -21 -44
c-68 42 -170 85 -251 110c-6 -13 -18 -36 -28 -46c82 -18 191 -59 255 -98c-10 -12 -21 -24 -33 -35c-65 25 -135 45 -201 63c-4 -12 -13 -30 -19 -42c31 -9 62 -19 95 -28c-10 -23 -26 -49 -44 -68l42 -21c22 20 41 49 52 72c25 -9 50 -19 73 -29c-9 -19 -22 -43 -38 -59
l38 -22c-64 16 -135 28 -200 36c-2 -12 -11 -32 -18 -45c109 -15 235 -42 301 -71l53 39c-37 15 -82 28 -131 40c18 18 33 42 43 62c37 -18 71 -35 96 -54zM533 666h121v-7h5v-56h-126v63zM533 496v61h126v-61h-126zM848 557v-61h-129v61h129zM848 666v-63h-129v56h5v7h124z
M724 884h227v54h-517v-54h220v-66h-172v-51h172v-53h-183v-266h441v266h-188v53h183v51h-183v66z" />
</svg>
