<?xml version="1.0" standalone="no"?>
<!DOCTYPE svg PUBLIC "-//W3C//DTD SVG 1.1//EN" "http://www.w3.org/Graphics/SVG/1.1/DTD/svg11.dtd" >
<svg xmlns="http://www.w3.org/2000/svg" xmlns:xlink="http://www.w3.org/1999/xlink" version="1.1" viewBox="-10 0 1010 1000">
   <path fill="currentColor"
d="M147 235v125h-68v-175h382v-49h-324v-56h726v56h-329v49h388v175h-70v-125h-318v192h-73v-192h-314zM585 409v-43h239v43h-239zM585 281h214v43h-214v-43zM408 281v43h-209v-43h209zM180 409v-43h228v43h-228zM599 795v65h120v-65h-120zM719 636v-59h-120v59h120z
M719 746v-61h-120v61h120zM296 746v-61h-108v61h108zM296 860v-65h-108v65h108zM296 636v-59h-108v59h108zM940 860v55h-341v41h-62v-303c-14 18 -28 36 -42 52c-7 -11 -24 -31 -37 -44v24h-100v61h101v49h-101v65h136v55h-306v41h-62v-306c-14 18 -27 36 -41 52
c-9 -12 -33 -38 -46 -49c55 -58 106 -144 137 -227l62 17c-11 26 -23 54 -36 80h111c-9 -21 -21 -43 -33 -63l57 -17c17 23 35 56 43 80h101v54h-123v59h100v10c53 -57 101 -138 131 -218l61 19c-10 25 -22 51 -34 76h114c-9 -22 -21 -47 -33 -68l56 -17c19 25 37 60 45 85
h124v54h-141v59h119v49h-119v61h119v49h-119v65h159z" />
</svg>
