<?xml version="1.0" standalone="no"?>
<!DOCTYPE svg PUBLIC "-//W3C//DTD SVG 1.1//EN" "http://www.w3.org/Graphics/SVG/1.1/DTD/svg11.dtd" >
<svg xmlns="http://www.w3.org/2000/svg" xmlns:xlink="http://www.w3.org/1999/xlink" version="1.1" viewBox="-10 0 1010 1000">
   <path fill="currentColor"
d="M142 222v121h-63v-167h382v-45h-320v-49h720v49h-328v45h388v167h-65v-121h-323v175h-72v-175h-319zM582 383v-41h246v41h-246zM582 263h222v41h-222v-41zM411 263v41h-216v-41h216zM174 383v-41h237v41h-237zM185 765v77h112v-77h-112zM297 597v-67h-112v67h112z
M297 714v-66h-112v66h112zM473 842v34c15 -23 26 -49 33 -72l48 19c-16 45 -37 94 -69 125l-49 -25c7 -6 14 -14 20 -22h-271v50h-62v-346c-16 20 -31 40 -47 57c-9 -12 -31 -38 -45 -49c56 -56 108 -140 140 -221l61 17c-9 23 -20 44 -30 67h97c-13 -22 -28 -45 -44 -64
l55 -18c22 24 45 57 59 82h106v54h-117v67h96v51h-96v66h96v51h-96v77h115zM577 814l45 -7c10 38 17 87 17 119l-47 8c0 -32 -6 -82 -15 -120zM660 812l40 -11c16 30 33 71 39 98l-42 14c-6 -28 -22 -70 -37 -101zM822 490h-251v34h251v-34zM571 597h251v-34h-251v34z
M945 712h-374v32h361s0 15 -1 23c-7 111 -15 154 -31 172c-12 13 -27 18 -49 19c-17 1 -51 0 -87 -2c-1 -13 -5 -31 -12 -44c32 3 61 4 73 4c10 0 18 -1 24 -7c8 -11 14 -43 19 -124h-364v-334h117c9 -23 18 -48 23 -67l73 15c-8 19 -18 36 -27 52h199v186h-318v32h374v43z
M828 858l-36 19c-11 -21 -31 -53 -51 -74l34 -17c21 23 42 51 53 72z" />
</svg>
