<?xml version="1.0" standalone="no"?>
<!DOCTYPE svg PUBLIC "-//W3C//DTD SVG 1.1//EN" "http://www.w3.org/Graphics/SVG/1.1/DTD/svg11.dtd" >
<svg xmlns="http://www.w3.org/2000/svg" xmlns:xlink="http://www.w3.org/1999/xlink" version="1.1" viewBox="-10 0 1010 1000">
   <path fill="currentColor"
d="M141 218v132h-62v-177h384v-46h-322v-48h720v48h-327v46h387v177h-65v-132h-322v175h-71v-175h-322zM812 259v40h-229v-40h229zM583 378v-40h229v40h-229zM414 260v40h-229v-40h229zM185 379v-41h228v41h-228zM196 810v54h104v-54h-104zM300 676v-53h-104v53h104z
M300 770v-54h-104v54h104zM466 864l1 49c21 -29 42 -76 54 -112l44 19c-14 40 -35 90 -59 123l-44 -24l5 -6h-271v38h-59v-273c-19 17 -37 34 -57 49c-8 -12 -29 -37 -41 -48c66 -48 128 -114 175 -189h-86v68h-54v-115h167c11 -21 21 -41 30 -63l57 15c-6 17 -13 32 -21 48
h174v108h-56v-61h-143c-17 30 -37 61 -58 88h103c-14 -19 -34 -42 -51 -59l38 -26c20 20 45 47 57 63l-28 22h117v45h-103v53h89v40h-89v54h89v40h-89v54h109zM587 811l45 -6c10 38 16 87 17 120l-47 7c0 -33 -7 -83 -15 -121zM670 809l40 -11c15 31 32 72 39 98l-43 14
c-5 -27 -21 -70 -36 -101zM819 485h-220v34h220v-34zM599 592h220v-34h-220v34zM955 707h-356v31h337s0 15 -1 23c-7 111 -15 154 -31 172c-12 13 -27 18 -49 19c-17 1 -51 0 -87 -2c-1 -13 -7 -31 -13 -44c33 3 61 4 73 4c11 0 19 -1 23 -7c10 -11 16 -43 21 -124h-340
v-333h97c10 -22 19 -47 24 -65l70 15c-9 18 -18 34 -27 50h189v186h-286v32h356v43zM837 861l-37 17c-9 -20 -30 -52 -48 -75l35 -16c19 23 40 53 50 74z" />
</svg>
