<?xml version="1.0" standalone="no"?>
<!DOCTYPE svg PUBLIC "-//W3C//DTD SVG 1.1//EN" "http://www.w3.org/Graphics/SVG/1.1/DTD/svg11.dtd" >
<svg xmlns="http://www.w3.org/2000/svg" xmlns:xlink="http://www.w3.org/1999/xlink" version="1.1" viewBox="-10 0 1010 1000">
   <path fill="currentColor"
d="M533 671h212v-126h-212v126zM268 545v126h193v-126h-193zM819 483v388c0 42 -8 64 -41 74c-33 12 -88 11 -166 11c-4 -19 -14 -49 -24 -68c60 2 119 2 135 1c17 -1 22 -5 22 -19v-137h-477v223h-75v-473h626zM534 359h409v59h-884v-59h401v-70h-305v-57h305v-62h-344v-57
h344v-70h74v70h356v57h-356v62h313v57h-313v70z" />
</svg>
