<?xml version="1.0" standalone="no"?>
<!DOCTYPE svg PUBLIC "-//W3C//DTD SVG 1.1//EN" "http://www.w3.org/Graphics/SVG/1.1/DTD/svg11.dtd" >
<svg xmlns="http://www.w3.org/2000/svg" xmlns:xlink="http://www.w3.org/1999/xlink" version="1.1" viewBox="-10 0 1010 1000">
   <path fill="currentColor"
d="M290 743l135 -33l7 66c-136 36 -281 73 -386 99l-14 -70l62 -14v-458h59v443l72 -16v-579h-163v-67h349v67h-121v234h111v65h-111v263zM539 743h298v-71h-298v71zM837 550h-298v70h298v-70zM906 488v384c0 37 -8 56 -35 67c-29 11 -74 12 -140 12c-4 -19 -15 -45 -26 -63
c55 1 100 1 113 0c15 -1 19 -5 19 -17v-75h-298v160h-68v-468h435zM716 367h243v62h-547v-62h233v-75h-193v-57h193v-61h-208v-61h208v-68h71v68h221v61h-221v61h205v57h-205v75z" />
</svg>
