<?xml version="1.0" standalone="no"?>
<!DOCTYPE svg PUBLIC "-//W3C//DTD SVG 1.1//EN" "http://www.w3.org/Graphics/SVG/1.1/DTD/svg11.dtd" >
<svg xmlns="http://www.w3.org/2000/svg" xmlns:xlink="http://www.w3.org/1999/xlink" version="1.1" viewBox="-10 0 1010 1000">
   <path fill="currentColor"
d="M248 698h212v-63h-212v63zM747 635h-213v63h213v-63zM352 441v50h293v-50h-293zM534 747v52h410v57h-410v99h-74v-99h-403v-57h403v-52h-282v-162h282v-41h-179v-103h-213v-53h213v-60h71v60h293v-60h73v60h213v53h-213v103h-184v41h287v162h-287zM724 257l-48 37
c-19 -28 -61 -69 -98 -97l45 -35c38 27 80 67 101 95zM835 274h34c9 0 20 -1 24 -3c5 -3 9 -9 11 -20c2 -13 4 -40 5 -75c10 9 30 19 45 24c0 35 -3 77 -9 92c-5 14 -15 23 -27 30c-10 6 -32 9 -48 9h-51c-19 0 -42 -5 -54 -16c-15 -12 -19 -27 -19 -77v-103h-179v31
c0 69 -25 144 -139 194c-8 -14 -32 -41 -46 -51c23 -9 42 -20 57 -30c-134 19 -271 38 -370 52l-10 -59c45 -5 101 -12 162 -20v-102h-142v-56h357v56h-149v94l155 -21l3 52c46 -34 55 -73 55 -111v-88h313v164c0 19 0 26 5 30c3 3 10 4 17 4z" />
</svg>
