<?xml version="1.0" standalone="no"?>
<!DOCTYPE svg PUBLIC "-//W3C//DTD SVG 1.1//EN" "http://www.w3.org/Graphics/SVG/1.1/DTD/svg11.dtd" >
<svg xmlns="http://www.w3.org/2000/svg" xmlns:xlink="http://www.w3.org/1999/xlink" version="1.1" viewBox="-10 0 1010 1000">
   <path fill="currentColor"
d="M933 753l-55 44c-22 -79 -71 -198 -123 -305c-23 104 -67 212 -148 305c-11 -14 -33 -34 -50 -43c110 -122 145 -275 156 -404h-154v-72h157c1 -25 1 -48 1 -70v-162h64v163c0 22 0 44 -1 69h163v72h-166c-1 13 -3 26 -4 39c66 121 134 273 160 364zM534 262l-56 32
c-13 -42 -43 -107 -69 -156l53 -29c27 49 58 112 72 153zM122 459v123h68v-123h-68zM312 582v-123h-71v123h71zM166 198v77h104v-77h-104zM382 784h-136v173h-61v-173h-141v-64h141v-79h-116v-240h116v-66h-74v-137h-64v-63h64v-90h55v90h104v-90h56v90h60v63h-60v137h-81
v66h120v240h-119v79h136v64zM528 385v411c18 8 36 23 63 39c47 27 103 38 175 38c51 0 141 -3 199 -11c-8 20 -17 57 -18 77c-45 4 -132 7 -183 7c-77 0 -134 -15 -186 -46c-35 -23 -63 -48 -82 -48c-25 0 -61 54 -92 105l-50 -70c38 -44 77 -80 111 -93v-341h-77v-68h140z
" />
</svg>
