<?xml version="1.0" standalone="no"?>
<!DOCTYPE svg PUBLIC "-//W3C//DTD SVG 1.1//EN" "http://www.w3.org/Graphics/SVG/1.1/DTD/svg11.dtd" >
<svg xmlns="http://www.w3.org/2000/svg" xmlns:xlink="http://www.w3.org/1999/xlink" version="1.1" viewBox="-10 0 1010 1000">
   <path fill="currentColor"
d="M840 266v-124h-245v124h245zM909 83v242h-380v-242h380zM141 458v123h91v-123h-91zM385 581v-123h-94v123h94zM193 199v76h136v-76h-136zM295 640v72h184v64h-184v181h-67v-181h-185v-64h185v-72h-148v-240h148v-66h-99v-135h-79v-62h79v-92h64v92h136v-92h68v92h77v62
h-77v135h-101v66h152v240h-153zM576 712h285v-92h-285v92zM861 467h-285v91h285v-91zM929 402v475c0 35 -6 55 -30 67c-24 10 -60 11 -113 11c-3 -18 -13 -48 -21 -65c37 1 71 1 81 0c11 0 15 -3 15 -14v-102h-285v181h-67v-553h420z" />
</svg>
