<?xml version="1.0" standalone="no"?>
<!DOCTYPE svg PUBLIC "-//W3C//DTD SVG 1.1//EN" "http://www.w3.org/Graphics/SVG/1.1/DTD/svg11.dtd" >
<svg xmlns="http://www.w3.org/2000/svg" xmlns:xlink="http://www.w3.org/1999/xlink" version="1.1" viewBox="-10 0 1010 1000">
   <path fill="currentColor"
d="M797 168h-160c21 36 48 68 82 97c33 -27 60 -59 78 -97zM645 502h-295v45h295v-45zM761 675h-228v55h228v-55zM247 730h213v-55h-213v55zM938 168h-73c-22 53 -56 97 -98 133c55 36 122 62 196 77c-14 13 -31 37 -40 54c-79 -20 -148 -51 -206 -94
c-52 33 -113 58 -177 78c-8 -13 -30 -37 -44 -49c65 -17 124 -38 175 -69c-30 -28 -55 -61 -76 -96c-15 17 -31 31 -46 44c-8 -8 -22 -19 -34 -28c-20 40 -42 85 -62 115l-55 -15c12 -19 26 -44 37 -71h-89v109c0 29 -7 41 -30 50c-3 1 -6 2 -11 3h45v43h295v-43h73v43h213
v50h-213v94h-185v32h302v149h-302v45h413v54h-413v80h-73v-80h-402v-54h402v-45h-284v-149h284v-32h-181v-94h-212v-50h212v-40c-20 1 -47 1 -79 1c-4 -14 -13 -31 -20 -45c43 2 79 1 89 1c12 0 14 -4 14 -13v-107c-51 61 -133 123 -205 154c-9 -13 -26 -33 -39 -44
c62 -22 132 -66 181 -112h-163v-47h208c-33 -15 -67 -28 -98 -38l36 -31c34 11 75 28 111 44c25 -16 53 -36 76 -56h-295v-48h347l13 -3l39 30c-36 37 -85 73 -129 100l3 2h94l12 -3l28 8c52 -40 96 -98 120 -161l62 14c-7 20 -16 38 -27 57h281v53z" />
</svg>
