<?xml version="1.0" standalone="no"?>
<!DOCTYPE svg PUBLIC "-//W3C//DTD SVG 1.1//EN" "http://www.w3.org/Graphics/SVG/1.1/DTD/svg11.dtd" >
<svg xmlns="http://www.w3.org/2000/svg" xmlns:xlink="http://www.w3.org/1999/xlink" version="1.1" viewBox="-10 0 1010 1000">
   <path fill="currentColor"
d="M126 461v121h81v-121h-81zM332 582v-121h-72v121h72zM171 198v77h120v-77h-120zM409 784h-144v173h-63v-173h-156v-64h156v-79h-131v-240h131v-66h-87v-137h-66v-63h66v-90h56v90h120v-90h58v90h64v63h-64v137h-84v66h122v240h-122v79h144v64zM778 695h-181
c-13 20 -24 38 -36 57c46 14 94 30 141 47c34 -28 60 -62 76 -104zM504 461v63h138v-63h-138zM847 461h-139v63h139v-63zM527 318h115v-55h-115v55zM642 160h-115v54h115v-54zM823 160h-115v54h115v-54zM708 318h115v-55h-115v55zM955 695h-105c-19 52 -47 95 -84 129
c66 26 127 53 171 76l-40 55c-48 -27 -116 -57 -189 -87c-78 47 -180 74 -298 92c-3 -18 -14 -46 -23 -62c96 -9 181 -27 248 -58c-58 -22 -117 -41 -171 -56c16 -25 36 -56 57 -89h-122v-59h156c13 -21 24 -42 35 -62h-146v-162h198v-47h-180v-98h-62v-57h62v-97h180v-69
h66v69h183v97h56v57h-56v98h-183v47h202v162h-240c-12 20 -24 41 -38 62h323v59z" />
</svg>
