<?xml version="1.0" standalone="no"?>
<!DOCTYPE svg PUBLIC "-//W3C//DTD SVG 1.1//EN" "http://www.w3.org/Graphics/SVG/1.1/DTD/svg11.dtd" >
<svg xmlns="http://www.w3.org/2000/svg" xmlns:xlink="http://www.w3.org/1999/xlink" version="1.1" viewBox="-10 0 1010 1000">
   <path fill="currentColor"
d="M643 490l-45 17c-3 -13 -7 -28 -12 -45c-141 20 -164 24 -176 31c-3 -11 -10 -40 -16 -55c14 -3 30 -19 50 -43c10 -13 37 -49 65 -94c-79 10 -97 16 -107 21c-2 -12 -10 -39 -17 -54c13 -2 24 -15 37 -36c14 -19 61 -97 87 -171l51 18c-29 64 -64 129 -100 178l81 -7
c12 -22 23 -43 33 -65l50 21c-45 81 -99 162 -151 223l99 -12c-8 -23 -15 -46 -23 -66l43 -12c20 49 42 114 51 151zM131 461v121h70v-121h-70zM328 582v-121h-74v121h74zM175 198v77h108v-77h-108zM394 784h-136v173h-62v-173h-145v-64h145v-79h-119v-240h119v-66h-77v-137
h-66v-63h66v-90h56v90h108v-90h58v90h56v63h-56v137h-83v66h125v240h-125v79h136v64zM854 627l59 24c-27 61 -66 116 -114 163c23 40 51 63 84 66c18 1 29 -36 37 -108c11 16 34 33 46 41c-17 110 -46 145 -81 142c-57 -4 -101 -38 -136 -98c-42 33 -89 62 -139 84
c-7 -13 -25 -36 -37 -47c56 -24 106 -55 149 -91c-20 -52 -36 -114 -50 -186h-135c-1 11 -1 22 -3 34c46 37 104 85 135 118l-42 46c-23 -25 -64 -63 -103 -97c-18 82 -57 168 -130 235c-9 -14 -33 -38 -45 -47c95 -86 123 -197 128 -289h-72v-60h73v-60h60v60h124
c-20 -142 -30 -315 -35 -506h59c4 195 16 369 37 506h131c-23 -22 -54 -48 -80 -69l35 -32c-60 10 -74 14 -84 18c-2 -11 -10 -39 -15 -54c13 -3 29 -20 46 -44c11 -13 36 -49 62 -93c-74 10 -92 15 -102 20c-3 -12 -10 -39 -16 -54c11 -3 21 -15 34 -34
c12 -19 54 -93 75 -165l50 19c-25 61 -56 121 -87 170l75 -8c10 -21 21 -42 30 -64l49 21c-42 81 -92 160 -141 222l102 -13c-8 -22 -16 -45 -24 -64l43 -13c20 48 43 112 53 148l-44 17c-3 -11 -8 -27 -12 -43c-39 6 -69 10 -92 14c31 23 70 54 92 75l-25 26h79v60h-223
c10 53 23 99 38 137c34 -38 62 -81 82 -127z" />
</svg>
