<?xml version="1.0" standalone="no"?>
<!DOCTYPE svg PUBLIC "-//W3C//DTD SVG 1.1//EN" "http://www.w3.org/Graphics/SVG/1.1/DTD/svg11.dtd" >
<svg xmlns="http://www.w3.org/2000/svg" xmlns:xlink="http://www.w3.org/1999/xlink" version="1.1" viewBox="-10 0 1010 1000">
   <path fill="currentColor"
d="M121 461v121h71v-121h-71zM317 582v-121h-74v121h74zM167 198v77h107v-77h-107zM388 784h-141v173h-60v-173h-143v-64h143v-79h-118v-240h118v-66h-75v-137h-65v-63h65v-90h55v90h107v-90h56v90h61v63h-61v137h-82v66h122v240h-123v79h141v64zM846 787h-233v79h233v-79z
M549 953v-214h364v209h-67v-35h-233v40h-64zM552 693v-46h349v46h-349zM902 551v46h-349v-46h349zM674 387l50 -19c14 26 29 61 39 87h187v46h-442v-46h194c-8 -23 -19 -47 -28 -68zM657 276l50 30c-42 43 -96 85 -140 115l-42 -30c43 -29 101 -80 132 -115zM749 317l27 -38
c54 28 114 66 150 96l-34 42c-34 -31 -92 -71 -143 -100zM718 148h-152c-14 22 -29 43 -46 65h158c14 -20 28 -42 40 -65zM749 213h208v57h-457v200c0 142 -10 345 -78 485c-12 -10 -42 -22 -58 -26c67 -137 73 -325 73 -459v-172l-10 9c-9 -16 -28 -41 -42 -52
c80 -62 136 -146 165 -215l67 13c-6 14 -13 27 -20 41h154l11 -3l43 30c-15 31 -35 63 -56 92z" />
</svg>
