<?xml version="1.0" standalone="no"?>
<!DOCTYPE svg PUBLIC "-//W3C//DTD SVG 1.1//EN" "http://www.w3.org/Graphics/SVG/1.1/DTD/svg11.dtd" >
<svg xmlns="http://www.w3.org/2000/svg" xmlns:xlink="http://www.w3.org/1999/xlink" version="1.1" viewBox="-10 0 1010 1000">
   <path fill="currentColor"
d="M130 460v121h76v-121h-76zM333 581v-121h-73v121h73zM176 198v80h119v-80h-119zM410 781h-145v176h-64v-176h-155v-61h155v-79h-125v-240h125v-67h-85v-136h-69v-63h69v-90h60v90h119v-90h62v90h66v63h-66v136h-92v67h123v240h-123v79h145v61zM425 952l-56 -28
c39 -44 74 -118 93 -173l56 23c-22 57 -53 131 -93 178zM567 777l55 -9c16 54 30 125 33 171l-58 11c-3 -46 -16 -118 -30 -173zM525 250v70h322v-70h-322zM525 133v67h322v-67h-322zM953 729l-47 16c-2 -12 -7 -27 -12 -42c-155 20 -180 26 -196 33c-3 -12 -13 -44 -20 -59
c17 -3 35 -18 55 -40c11 -11 35 -39 61 -73c-74 6 -93 10 -104 15c-4 -13 -13 -42 -19 -56c11 -2 22 -12 34 -26c12 -13 51 -69 73 -124h-247l42 26c-22 40 -47 78 -74 110l71 -5c14 -20 27 -42 38 -64l48 41c-40 61 -89 125 -139 177l85 -9c-6 -19 -13 -37 -20 -54l44 -14
c21 46 42 107 51 146l-48 16c-2 -13 -6 -28 -10 -43c-143 18 -168 24 -183 32c-3 -13 -12 -43 -19 -58c16 -3 34 -18 54 -41c11 -11 35 -39 62 -75c-73 7 -92 11 -102 15c-3 -13 -13 -41 -19 -55c12 -3 22 -11 34 -26c12 -13 51 -65 74 -119h-64v-293h463v293h-138l48 30
c-20 39 -46 78 -72 110l76 -5c14 -21 28 -43 40 -65l49 42c-42 62 -92 125 -144 178l99 -11c-8 -18 -16 -37 -24 -54l44 -14c24 45 47 105 56 145zM686 780l53 -17c28 52 57 119 68 165l-55 19c-11 -45 -38 -115 -66 -167zM803 769l53 -22c40 58 84 133 103 182l-55 25
c-20 -50 -63 -127 -101 -185z" />
</svg>
