<?xml version="1.0" standalone="no"?>
<!DOCTYPE svg PUBLIC "-//W3C//DTD SVG 1.1//EN" "http://www.w3.org/Graphics/SVG/1.1/DTD/svg11.dtd" >
<svg xmlns="http://www.w3.org/2000/svg" xmlns:xlink="http://www.w3.org/1999/xlink" version="1.1" viewBox="-10 0 1010 1000">
   <path fill="currentColor"
d="M246 837h246v-57h-226c-6 20 -13 38 -20 57zM276 599v51h459v-51h-459zM564 780v57h356v49h-356v70h-72v-70h-333c13 -30 27 -69 39 -106h-86v-48h380v-38h-286v-139h602v139h-244v38h318v48h-318zM474 377h250c-34 -20 -64 -42 -89 -65h-273c-27 23 -59 45 -93 65h133
c6 -18 11 -35 15 -51l70 9c-4 13 -8 27 -13 42zM442 475h233v-51h-216c-5 18 -11 36 -17 51zM937 312h-215c64 42 156 78 241 94c-14 12 -35 34 -45 51c-57 -15 -118 -39 -172 -68v86h142v51h-762v-51h243c6 -15 12 -34 18 -51h-156v-26c-46 23 -98 43 -155 61
c-7 -16 -22 -38 -36 -50c87 -24 160 -58 219 -97h-197v-52h266c22 -19 40 -38 57 -58h-250v-52h138c-18 -24 -44 -51 -66 -71l53 -29c33 26 70 65 88 91l-15 9h89c23 -36 37 -73 47 -110l68 10c-10 34 -24 68 -41 100h148c25 -27 57 -69 74 -97l69 23c-20 26 -44 52 -66 74
h156v52h-414c-13 20 -29 39 -47 58h521v52z" />
</svg>
