<?xml version="1.0" standalone="no"?>
<!DOCTYPE svg PUBLIC "-//W3C//DTD SVG 1.1//EN" "http://www.w3.org/Graphics/SVG/1.1/DTD/svg11.dtd" >
<svg xmlns="http://www.w3.org/2000/svg" xmlns:xlink="http://www.w3.org/1999/xlink" version="1.1" viewBox="-10 0 1010 1000">
   <path fill="currentColor"
d="M344 180h-95c-4 30 -8 60 -13 85h108v-85zM455 265v59h-404v-59h120c4 -25 8 -55 12 -85h-97v-58h104c3 -27 6 -54 8 -78l67 4c-2 24 -5 49 -8 74h153v143h45zM826 617h-273v222h273v-222zM489 960v-410h403v407h-66v-51h-273v54h-64zM544 369h296
c-56 -59 -111 -132 -153 -207c-38 76 -86 146 -143 207zM348 519v-91h-184v91h184zM256 771v-82h-86c-3 27 -7 56 -12 82h98zM668 45l61 18c-4 11 -8 21 -12 32c61 113 167 234 262 294c-17 14 -39 41 -51 59c-28 -21 -58 -47 -86 -77v66h-315v-50c-25 25 -52 49 -80 71
c-7 -10 -18 -24 -30 -35v148h-93v60h127v58h-127v82h118v60h-118v126h-68v-126h-172c7 -38 15 -93 19 -142h-59v-58h212v-60h-159v-195h320v22c116 -90 207 -221 251 -353z" />
</svg>
