<?xml version="1.0" standalone="no"?>
<!DOCTYPE svg PUBLIC "-//W3C//DTD SVG 1.1//EN" "http://www.w3.org/Graphics/SVG/1.1/DTD/svg11.dtd" >
<svg xmlns="http://www.w3.org/2000/svg" xmlns:xlink="http://www.w3.org/1999/xlink" version="1.1" viewBox="-10 0 1010 1000">
   <path fill="currentColor"
d="M803 182h-154c-7 24 -15 47 -22 67h176v-67zM430 249h129c8 -20 15 -44 23 -67h-97v-53h114c9 -28 17 -58 24 -83l64 9c-6 23 -13 49 -21 74h205v120h78v53h-519v-53zM549 401v74h275v-74h-275zM754 850h-68v-88h-210v-1h-42c14 -32 27 -74 38 -114l63 10
c-5 17 -11 35 -16 52h167v-86h-247v-54h247v-45h-203v-173h410v173h-139v45h160v54h-160v86h179v53h-179v88zM370 104l66 20c-24 76 -54 168 -79 227l-53 -18c23 -60 53 -159 66 -229zM176 337l-58 19c-6 -63 -31 -159 -58 -230l54 -17c29 72 54 167 62 228zM454 873h352
c67 0 79 -14 87 -87c17 10 45 20 65 23c-12 100 -38 127 -149 127h-352c-144 0 -183 -23 -183 -120v-373h-72c-6 211 -25 404 -119 516c-11 -16 -32 -38 -49 -49c84 -99 100 -277 105 -467h-95v-64h166v-335h65v335h163v64h-98v374c0 45 17 56 114 56z" />
</svg>
