<?xml version="1.0" standalone="no"?>
<!DOCTYPE svg PUBLIC "-//W3C//DTD SVG 1.1//EN" "http://www.w3.org/Graphics/SVG/1.1/DTD/svg11.dtd" >
<svg xmlns="http://www.w3.org/2000/svg" xmlns:xlink="http://www.w3.org/1999/xlink" version="1.1" viewBox="-10 0 1010 1000">
   <path fill="currentColor"
d="M329 180h-91c-4 30 -9 60 -13 85h104v-85zM432 265v59h-382v-59h116c4 -25 8 -55 12 -85h-94v-58h100c3 -27 6 -54 8 -78l60 4c-2 24 -5 49 -7 74h145v143h42zM245 771v-82h-83c-3 27 -7 56 -12 82h95zM156 428v91h178v-91h-178zM306 571v60h123v58h-123v82h114v60h-114
v125h-61v-125h-162c7 -38 14 -93 18 -142h-57v-58h201v-60h-149v-195h301v195h-91zM879 589l52 47c-43 37 -94 77 -139 107c52 61 114 112 178 143c-15 14 -37 41 -48 59c-128 -71 -241 -216 -303 -378h-68v289l151 -51c0 19 2 46 5 61c-174 64 -212 80 -232 93l-5 4
c-4 -19 -16 -56 -27 -75c16 -6 39 -20 39 -56v-265h-52v-65h76v-412h411v61h-341v78h305v56h-305v78h306v57h-306v82h377v65h-271c20 46 46 91 76 132c42 -34 91 -78 121 -110z" />
</svg>
