<?xml version="1.0" standalone="no"?>
<!DOCTYPE svg PUBLIC "-//W3C//DTD SVG 1.1//EN" "http://www.w3.org/Graphics/SVG/1.1/DTD/svg11.dtd" >
<svg xmlns="http://www.w3.org/2000/svg" xmlns:xlink="http://www.w3.org/1999/xlink" version="1.1" viewBox="-10 0 1010 1000">
   <path fill="currentColor"
d="M533 137v89h-67v-148h469v148h-69v-89h-333zM250 773v-84h-100v84h100zM162 428v91h181v-91h-181zM314 571v60h126v58h-126v84h115v58h-115v125h-64v-125h-162v-142h-44v-58h206v-60h-151v-195h310v195h-95zM336 180h-92c-7 30 -13 60 -20 85h112v-85zM399 122v143h44v59
h-392v-59h109c8 -25 15 -55 22 -85h-96v-58h108c6 -27 11 -54 16 -78l63 6c-5 23 -10 47 -15 72h141zM545 619h118v-68h-118v68zM545 433v66h118v-66h-118zM851 433h-121v66h121v-66zM851 619v-68h-121v68h121zM957 745l-1 61h-226v150h-67v-150h-210v-61h210v-73h-180v-293
h180v-65h-189v-59h189v-80h67v80h201v59h-201v65h186v293h-186v73h227z" />
</svg>
