<?xml version="1.0" standalone="no"?>
<!DOCTYPE svg PUBLIC "-//W3C//DTD SVG 1.1//EN" "http://www.w3.org/Graphics/SVG/1.1/DTD/svg11.dtd" >
<svg xmlns="http://www.w3.org/2000/svg" xmlns:xlink="http://www.w3.org/1999/xlink" version="1.1" viewBox="-10 0 1010 1000">
   <path fill="currentColor"
d="M331 180h-92c-4 30 -8 60 -12 85h104v-85zM443 265v59h-393v-59h116c5 -25 9 -55 12 -85h-94v-58h101c3 -27 6 -54 8 -78l61 4c-2 24 -5 48 -8 74h147v143h50zM151 771h96v-82h-84c-3 27 -7 56 -12 82zM157 428v91h182v-91h-182zM310 689v82h106v60h-106v125h-63v-125
h-164c7 -38 14 -93 18 -142h-44v-58h190v-60h-151v-195h306v195h-92v60h112v58h-112zM729 627v116h134v62h-134v151h-65v-151h-146v-62h146v-116h65zM554 308v76h284v-76h-284zM554 178v75h284v-75h-284zM946 585h-135c39 59 96 114 153 143c-14 13 -33 37 -42 53
c-67 -40 -134 -117 -174 -196h-111c-49 84 -115 152 -188 202c-9 -13 -31 -41 -44 -55c62 -36 115 -86 157 -147h-114v-64h151c13 -25 24 -52 34 -80h-142v-320h129c13 -26 25 -56 31 -77l74 8c-12 25 -24 48 -34 69h212v320h-204c-8 28 -18 55 -30 80h277v64z" />
</svg>
