<?xml version="1.0" standalone="no"?>
<!DOCTYPE svg PUBLIC "-//W3C//DTD SVG 1.1//EN" "http://www.w3.org/Graphics/SVG/1.1/DTD/svg11.dtd" >
<svg xmlns="http://www.w3.org/2000/svg" xmlns:xlink="http://www.w3.org/1999/xlink" version="1.1" viewBox="-10 0 1010 1000">
   <path fill="currentColor"
d="M571 258v-70h-111v-61h111v-82h66v82h122v-82h67v82h123v61h-123v70h-67v-70h-122v70h-66zM336 180h-93c-4 30 -9 60 -13 85h106v-85zM443 265v58h-393v-58h118c5 -25 9 -55 12 -85h-95v-58h102c3 -27 6 -54 8 -78l63 4c-2 24 -5 49 -8 74h149v143h44zM250 771v-82h-84
c-3 27 -7 56 -12 82h96zM160 428v91h181v-91h-181zM314 571v60h126v58h-126v82h116v60h-116v125h-64v-125h-167c8 -38 15 -93 19 -142h-58v-58h206v-60h-154v-195h310v195h-92zM817 604v-99h-88v99h88zM578 604h84v-99h-84v99zM578 346v97h84v-97h-84zM817 443v-97h-88v97
h88zM957 505h-83v99h64v62h-209v84h226v61h-226v146h-67v-146h-214v-61h214v-84h-196v-62h56v-99h-81v-62h81v-97h-63v-60h485v60h-70v97h83v62z" />
</svg>
