<?xml version="1.0" standalone="no"?>
<!DOCTYPE svg PUBLIC "-//W3C//DTD SVG 1.1//EN" "http://www.w3.org/Graphics/SVG/1.1/DTD/svg11.dtd" >
<svg xmlns="http://www.w3.org/2000/svg" xmlns:xlink="http://www.w3.org/1999/xlink" version="1.1" viewBox="-10 0 1010 1000">
   <path fill="currentColor"
d="M833 280h-126v65h126v-65zM833 459v-67h-126v67h126zM515 459h123v-67h-123v67zM515 280v65h123v-65h-123zM638 231v-57h-219v-62h219v-68h69v68h244v62h-244v57h195v277h-195v71l116 -4c-14 -14 -29 -28 -43 -41l51 -26c49 42 106 101 132 144l-54 30
c-9 -15 -21 -32 -36 -50c-157 6 -317 13 -431 17l-5 -62c56 -1 126 -3 201 -5v-74h-189v-277h189zM619 682l48 -31c42 32 89 79 109 114l-49 36c-20 -36 -65 -85 -108 -119zM335 180h-92c-4 30 -9 60 -13 85h105v-85zM432 265v59h-381v-59h117c5 -25 9 -55 12 -85h-95v-58
h102c3 -27 6 -54 8 -78l63 4c-2 24 -5 49 -8 74h148v143h34zM154 771h92v-82h-80c-3 27 -7 56 -12 82zM160 428v91h178v-91h-178zM413 831h-103v125h-64v-125h-163c8 -38 15 -93 19 -142h-58v-58h202v-60h-150v-195h307v195h-93v60h100v58h-100v82h103v60zM459 915l-54 -25
c23 -47 48 -125 60 -180l52 21c-13 56 -35 134 -58 184zM645 872h105c25 0 30 -9 33 -76c13 10 39 19 57 24c-6 89 -26 111 -82 111h-120c-75 0 -94 -17 -94 -82v-156h65v155c0 20 5 24 36 24zM812 720l54 -20c44 58 83 137 97 190l-58 23c-14 -53 -52 -133 -93 -193z" />
</svg>
