<?xml version="1.0" standalone="no"?>
<!DOCTYPE svg PUBLIC "-//W3C//DTD SVG 1.1//EN" "http://www.w3.org/Graphics/SVG/1.1/DTD/svg11.dtd" >
<svg xmlns="http://www.w3.org/2000/svg" xmlns:xlink="http://www.w3.org/1999/xlink" version="1.1" viewBox="-10 0 1010 1000">
   <path fill="currentColor"
d="M584 251v-71h-124v-58h124v-76h64v76h135v-76h64v76h105v58h-105v73h-64v-73h-135v71h-64zM336 180h-93c-4 30 -9 60 -13 85h106v-85zM444 265v59h-394v-59h118c5 -25 9 -55 12 -85h-95v-58h102c3 -27 6 -54 8 -78l63 4c-2 24 -5 49 -8 74h149v143h45zM154 771h96v-82
h-84c-3 27 -7 56 -12 82zM160 428v91h181v-91h-181zM428 831h-114v125h-64v-125h-167c8 -38 15 -93 19 -142h-58v-58h206v-60h-154v-195h310v195h-92v60h126v58h-126v82h114v60zM827 490h-85c1 27 3 55 6 80h132c-21 -19 -54 -39 -81 -55zM663 322v113h79v-113h-79zM613 435
v-113h-77v113h77zM793 322v113h81v-113h-81zM873 666l58 17c-28 56 -66 107 -112 150c23 39 47 61 71 61c17 0 24 -29 27 -97c14 13 33 23 49 29c-11 100 -31 130 -80 130c-42 0 -81 -30 -114 -82c-41 34 -86 62 -132 86c-8 -13 -26 -40 -38 -53c51 -23 100 -51 143 -86
c-23 -53 -40 -117 -52 -191h-150v44c0 10 0 20 -1 31l19 -18c41 28 91 70 114 99l-43 43c-20 -23 -57 -59 -92 -87c-7 72 -28 153 -76 214c-12 -11 -42 -27 -58 -32c63 -77 72 -178 72 -252v-102h207c-3 -26 -5 -53 -7 -80h-199v-223h454v223h-77c31 16 62 37 79 54l-28 26
h43v60h-194c9 57 22 107 37 147c33 -33 61 -71 80 -111z" />
</svg>
