<?xml version="1.0" standalone="no"?>
<!DOCTYPE svg PUBLIC "-//W3C//DTD SVG 1.1//EN" "http://www.w3.org/Graphics/SVG/1.1/DTD/svg11.dtd" >
<svg xmlns="http://www.w3.org/2000/svg" xmlns:xlink="http://www.w3.org/1999/xlink" version="1.1" viewBox="-10 0 1010 1000">
   <path fill="currentColor"
d="M654 204v-54h-210v-51h210v-55h67v55h222v51h-222v54h197v49h-443v-49h179zM505 338v98h89v-98h-89zM876 436v-98h-89v98h89zM640 436h101v-98h-101v98zM450 479v-184h484v184h-484zM324 180h-89c-4 30 -8 60 -12 85h101v-85zM426 265v58h-376l1 -58h112
c5 -25 9 -55 12 -85h-91v-58h97c3 -27 6 -54 8 -78l60 4c-2 24 -5 49 -8 74h144v143h41zM149 771h92v-82h-80c-4 27 -8 56 -12 82zM155 428v91h174v-91h-174zM414 831h-111v125h-62v-125h-159c7 -38 13 -93 18 -142h-56v-58h197v-60h-147v-195h298v195h-89v60h122v58h-122
v82h111v60zM538 724v46h311v-46h-311zM538 645v43h311v-43h-311zM538 566v43h311v-43h-311zM912 815h-142c69 29 146 67 193 93l-29 53c-50 -28 -127 -70 -197 -101l24 -45h-166l48 43c-67 36 -153 77 -214 103c-6 -15 -19 -37 -28 -52c56 -23 141 -64 189 -94h-114v-293
h436v293z" />
</svg>
