<?xml version="1.0" standalone="no"?>
<!DOCTYPE svg PUBLIC "-//W3C//DTD SVG 1.1//EN" "http://www.w3.org/Graphics/SVG/1.1/DTD/svg11.dtd" >
<svg xmlns="http://www.w3.org/2000/svg" xmlns:xlink="http://www.w3.org/1999/xlink" version="1.1" viewBox="-10 0 1010 1000">
   <path fill="currentColor"
d="M849 210l49 43c-25 10 -53 18 -83 26c23 82 67 149 137 181c-14 10 -32 34 -41 51c-78 -42 -123 -122 -148 -219c-26 6 -53 11 -78 15v116l109 -15c-1 14 -2 37 -1 48c-131 23 -154 29 -167 37c-3 -15 -13 -39 -22 -51c12 -4 24 -10 24 -44v-131c80 -14 171 -36 221 -57z
M534 328v165h-67v-171c38 -36 88 -94 115 -134l59 21c-33 42 -72 85 -107 119zM369 206l49 -22c27 30 57 72 71 99l-51 26c-13 -29 -42 -73 -69 -103zM936 123v60h-871v-60h409c-7 -23 -17 -47 -28 -68l70 -15c15 24 30 58 36 83h384zM319 297h-89c-16 98 -54 169 -150 214
c-7 -15 -25 -36 -37 -46c80 -34 112 -92 126 -168h-92v-53h303s0 17 -1 26c-6 129 -12 181 -29 200c-12 13 -26 19 -48 20c-16 2 -48 2 -79 0c-1 -17 -7 -40 -16 -56c32 4 59 4 71 4c10 0 16 0 23 -8c9 -10 14 -45 18 -133zM633 814v54h318v60h-902v-60h316v-54h-251v-48
h251v-54h-230v-48h230v-53h-246v-48h246v-57h73v362h122v-362h73v57h243v48h-243v53h229v48h-229v54h251v48h-251z" />
</svg>
