<?xml version="1.0" standalone="no"?>
<!DOCTYPE svg PUBLIC "-//W3C//DTD SVG 1.1//EN" "http://www.w3.org/Graphics/SVG/1.1/DTD/svg11.dtd" >
<svg xmlns="http://www.w3.org/2000/svg" xmlns:xlink="http://www.w3.org/1999/xlink" version="1.1" viewBox="-10 0 1010 1000">
   <path fill="currentColor"
d="M839 398v-96h-289v96h289zM839 549v-96h-289v96h289zM839 701v-97h-289v97h289zM480 244h147c7 -28 15 -59 21 -88h-202v-64h500v64h-217c-10 30 -20 61 -30 88h212v515h-431v-515zM442 485h-161v471h-71v-471h-167v-71h167v-247h-138v-69h347v69h-138v247h161v71z
M591 775l65 39c-58 55 -152 111 -231 143c-12 -14 -33 -37 -48 -51c79 -30 170 -85 214 -131zM728 810l57 -35c63 40 143 101 184 142l-60 39c-38 -41 -117 -103 -181 -146z" />
</svg>
