<?xml version="1.0" standalone="no"?>
<!DOCTYPE svg PUBLIC "-//W3C//DTD SVG 1.1//EN" "http://www.w3.org/Graphics/SVG/1.1/DTD/svg11.dtd" >
<svg xmlns="http://www.w3.org/2000/svg" xmlns:xlink="http://www.w3.org/1999/xlink" version="1.1" viewBox="-10 0 1010 1000">
   <path fill="currentColor"
d="M846 393v-90h-262v90h262zM846 543v-92h-262v92h262zM846 694v-92h-262v92h262zM517 243h146c5 -27 11 -59 15 -87h-202v-64h472v64h-191c-9 30 -17 60 -25 87h184v510h-399v-510zM295 762h97v-227h-97v227zM138 535v227h96v-227h-96zM234 260h-96v210h96v-210zM392 470
v-210h-97v210h97zM457 879h-65v-52h-254v66h-62v-697h155v-151h67v151h159v683zM622 770l64 37c-52 55 -132 115 -201 149c-11 -13 -34 -35 -50 -48c68 -33 146 -91 187 -138zM756 807l57 -33c54 41 124 103 159 144l-60 38c-32 -41 -100 -105 -156 -149z" />
</svg>
