<?xml version="1.0" standalone="no"?>
<!DOCTYPE svg PUBLIC "-//W3C//DTD SVG 1.1//EN" "http://www.w3.org/Graphics/SVG/1.1/DTD/svg11.dtd" >
<svg xmlns="http://www.w3.org/2000/svg" xmlns:xlink="http://www.w3.org/1999/xlink" version="1.1" viewBox="-10 0 1010 1000">
   <path fill="currentColor"
d="M853 403v-95h-279v95h279zM853 555v-97h-279v97h279zM853 707v-97h-279v97h279zM510 249h148c7 -30 15 -66 20 -98h-199v-65h471v65h-203c-9 34 -18 69 -26 98h199v517h-410v-517zM364 533h-210v231h210v-231zM433 831h-279v74h-72v-438h128v-423h72v178h185v69h-185v176
h151v364zM618 781l53 45c-59 47 -142 98 -207 129c-8 -15 -26 -39 -39 -53c65 -30 149 -81 193 -121zM749 825l43 -44c54 33 124 85 160 124l-45 49c-34 -38 -103 -94 -158 -129z" />
</svg>
