<?xml version="1.0" standalone="no"?>
<!DOCTYPE svg PUBLIC "-//W3C//DTD SVG 1.1//EN" "http://www.w3.org/Graphics/SVG/1.1/DTD/svg11.dtd" >
<svg xmlns="http://www.w3.org/2000/svg" xmlns:xlink="http://www.w3.org/1999/xlink" version="1.1" viewBox="-10 0 1010 1000">
   <path fill="currentColor"
d="M852 406v-96h-278v96h278zM852 559v-98h-278v98h278zM852 713v-99h-278v99h278zM506 252h139c8 -30 15 -66 21 -97h-197v-64h482v64h-205c-10 33 -20 68 -30 97h207v519h-417v-519zM138 399v-57c-24 28 -48 54 -74 77c-7 -17 -24 -47 -35 -60c89 -80 174 -208 216 -313
l66 22c-5 11 -10 20 -14 31c62 56 137 128 174 175l-53 46c-31 -44 -93 -108 -151 -164c-35 61 -77 123 -122 178h260v65h-267zM355 564h-180v210h180v-210zM424 840h-249v63h-68v-404h317v341zM598 789l66 37c-54 51 -142 103 -218 132c-12 -14 -35 -37 -51 -49
c76 -27 162 -78 203 -120zM743 830l57 -36c58 34 133 87 171 123l-60 41c-35 -36 -109 -91 -168 -128z" />
</svg>
