<?xml version="1.0" standalone="no"?>
<!DOCTYPE svg PUBLIC "-//W3C//DTD SVG 1.1//EN" "http://www.w3.org/Graphics/SVG/1.1/DTD/svg11.dtd" >
<svg xmlns="http://www.w3.org/2000/svg" xmlns:xlink="http://www.w3.org/1999/xlink" version="1.1" viewBox="-10 0 1010 1000">
   <path fill="currentColor"
d="M858 404v-97h-233v97h233zM858 557v-98h-233v98h233zM858 711v-99h-233v99h233zM561 249h125c7 -29 11 -64 15 -94h-175v-64h431v64h-182c-8 32 -16 65 -24 94h174v520h-364v-520zM358 191h-136c-19 39 -40 77 -64 111h141c21 -30 42 -73 59 -111zM528 364h-352v152
c0 126 -15 307 -95 428c-11 -12 -38 -32 -52 -39c75 -115 84 -274 84 -389v-154c-11 12 -21 23 -31 34c-11 -11 -38 -33 -53 -43c79 -76 147 -191 187 -311l63 15c-9 25 -17 49 -28 73h140l10 -4l44 29c-20 48 -50 103 -78 147h161v62zM303 831l169 -70c2 16 8 40 12 52
c-213 91 -240 104 -259 119v1c-4 -16 -18 -46 -29 -59c17 -10 41 -33 41 -76v-363h244v208c0 28 -4 43 -24 53c-18 10 -46 11 -86 11c-3 -17 -12 -39 -20 -55c29 1 51 1 60 1c8 -1 10 -3 10 -11v-147h-118v336zM645 785l62 36c-43 51 -112 105 -171 137
c-11 -14 -32 -34 -47 -47c59 -31 124 -82 156 -126zM776 821l54 -35c50 39 114 93 145 131l-58 39c-29 -37 -90 -95 -141 -135z" />
</svg>
