<?xml version="1.0" standalone="no"?>
<!DOCTYPE svg PUBLIC "-//W3C//DTD SVG 1.1//EN" "http://www.w3.org/Graphics/SVG/1.1/DTD/svg11.dtd" >
<svg xmlns="http://www.w3.org/2000/svg" xmlns:xlink="http://www.w3.org/1999/xlink" version="1.1" viewBox="-10 0 1010 1000">
   <path fill="currentColor"
d="M852 406v-97h-279v97h279zM852 558v-98h-279v98h279zM852 712v-99h-279v99h279zM506 252h137c7 -30 15 -66 20 -97h-192v-64h478v64h-204c-10 33 -20 67 -29 97h206v518h-416v-518zM66 391h150v-142h-168v-68h168v-129h72v129h164v68h-164v142h149v67h-371v-67zM348 617
h-190v175h190v-175zM417 855h-259v74h-68v-375h327v301zM598 789l65 37c-53 51 -142 103 -219 131c-11 -13 -33 -36 -49 -49c76 -26 162 -77 203 -119zM747 830l56 -36c58 35 133 87 171 123l-59 40c-36 -35 -109 -90 -168 -127z" />
</svg>
