<?xml version="1.0" standalone="no"?>
<!DOCTYPE svg PUBLIC "-//W3C//DTD SVG 1.1//EN" "http://www.w3.org/Graphics/SVG/1.1/DTD/svg11.dtd" >
<svg xmlns="http://www.w3.org/2000/svg" xmlns:xlink="http://www.w3.org/1999/xlink" version="1.1" viewBox="-10 0 1010 1000">
   <path fill="currentColor"
d="M845 408v-94h-242v94h242zM845 559v-94h-242v94h242zM845 710v-94h-242v94h242zM533 254h140c5 -29 12 -64 17 -94h-194v-69h448v69h-181c-9 32 -18 66 -27 94h182v517h-385v-517zM354 817v-186h-198v186h198zM293 401v162h135v360h-74v-38h-198v60h-72v-382h137v-162
h-162v-70h162v-164c-49 10 -101 17 -149 24c-4 -16 -13 -43 -23 -59c122 -19 261 -49 339 -81l61 57c-45 17 -99 31 -156 44v179h161v70h-161zM644 787l51 46c-59 47 -143 98 -207 129c-8 -15 -24 -40 -35 -55c63 -29 146 -79 191 -120zM762 831l41 -46
c52 32 121 82 156 117l-43 52c-32 -35 -100 -88 -154 -123z" />
</svg>
