<?xml version="1.0" standalone="no"?>
<!DOCTYPE svg PUBLIC "-//W3C//DTD SVG 1.1//EN" "http://www.w3.org/Graphics/SVG/1.1/DTD/svg11.dtd" >
<svg xmlns="http://www.w3.org/2000/svg" xmlns:xlink="http://www.w3.org/1999/xlink" version="1.1" viewBox="-10 0 1010 1000">
   <path fill="currentColor"
d="M859 403v-95h-265v95h265zM859 555v-97h-265v97h265zM859 708v-97h-265v97h265zM528 249h142c6 -30 13 -64 17 -94h-188v-64h457v64h-193c-8 32 -17 65 -26 94h189v518h-398v-518zM480 94v67h-429v-67h429zM474 506l-53 26c-20 -47 -62 -117 -109 -177
c35 -55 71 -122 91 -165l57 14c-24 47 -57 104 -84 150c38 51 78 113 98 152zM259 191l57 14c-22 46 -51 104 -78 149c36 52 71 113 89 153l-54 24c-17 -47 -54 -115 -96 -176c32 -54 65 -122 82 -164zM186 510l-53 24c-15 -48 -50 -116 -91 -178c31 -55 62 -123 79 -166
l57 14c-21 47 -50 105 -75 151c34 52 68 115 83 155zM492 769l3 65c-156 27 -320 56 -438 75l-14 -69c50 -7 114 -17 183 -28v-190h-164v-65h412v65h-177v179c63 -10 130 -21 195 -32zM621 787l63 37c-50 51 -133 106 -205 136c-11 -15 -34 -36 -50 -49
c72 -28 152 -81 192 -124zM760 828l55 -37c53 36 123 90 157 127l-57 40c-34 -36 -101 -92 -155 -130z" />
</svg>
