<?xml version="1.0" standalone="no"?>
<!DOCTYPE svg PUBLIC "-//W3C//DTD SVG 1.1//EN" "http://www.w3.org/Graphics/SVG/1.1/DTD/svg11.dtd" >
<svg xmlns="http://www.w3.org/2000/svg" xmlns:xlink="http://www.w3.org/1999/xlink" version="1.1" viewBox="-10 0 1010 1000">
   <path fill="currentColor"
d="M844 399v-93h-256v93h256zM844 548v-93h-256v93h256zM844 698v-95h-256v95h256zM521 248h133c8 -29 14 -63 20 -92h-183v-65h453v65h-192c-9 31 -20 64 -30 92h190v509h-391v-509zM140 215v108h-60v-171h179c-12 -28 -28 -60 -45 -85l57 -21c23 32 46 75 57 106h151v170
h-62v-107h-277zM326 614v211c21 6 42 8 64 8c14 0 72 0 93 -1c-9 18 -18 50 -20 69h-78c-94 0 -172 -33 -223 -159c-19 73 -46 136 -84 187c-10 -9 -35 -32 -49 -42c76 -91 98 -238 107 -412l61 5c-3 53 -8 104 -15 151c19 82 49 132 83 162v-397h-149v-64h339v64h-129v154
h136v64h-136zM611 773l63 36c-42 56 -112 114 -173 147c-11 -14 -32 -36 -48 -49c61 -32 127 -88 158 -134zM750 813l51 -38c56 41 127 100 162 140l-52 43c-34 -40 -104 -102 -161 -145z" />
</svg>
