<?xml version="1.0" standalone="no"?>
<!DOCTYPE svg PUBLIC "-//W3C//DTD SVG 1.1//EN" "http://www.w3.org/Graphics/SVG/1.1/DTD/svg11.dtd" >
<svg xmlns="http://www.w3.org/2000/svg" xmlns:xlink="http://www.w3.org/1999/xlink" version="1.1" viewBox="-10 0 1010 1000">
   <path fill="currentColor"
d="M847 407v-93h-233v93h233zM847 558v-94h-233v94h233zM847 709v-94h-233v94h233zM545 254h132c7 -30 14 -67 19 -99h-180v-64h435v64h-185c-10 34 -19 69 -28 99h181v516h-374v-516zM123 201v106h-57v-168h181c-9 -25 -20 -51 -30 -74l58 -21c14 29 32 67 43 95h167v168
h-60v-106h-302zM149 649h285c-36 -27 -90 -64 -147 -100c-42 40 -90 74 -138 100zM190 861h179v-151h-179v151zM486 602l-44 53l-7 -5v301h-66v-29h-179v31h-64v-292c-17 9 -34 17 -51 23c-7 -17 -26 -48 -39 -61c68 -25 136 -62 194 -110c-26 -17 -52 -32 -75 -46l42 -44
c24 13 52 29 80 46c30 -33 57 -69 77 -108h-142c-30 45 -67 87 -114 123c-9 -15 -28 -40 -40 -50c77 -54 126 -132 150 -200l59 11c-7 20 -14 39 -24 58h146l11 -3l38 28c-26 66 -62 124 -106 174c60 36 117 73 154 100zM653 786l51 47c-58 47 -143 98 -207 129
c-8 -15 -23 -40 -34 -55c63 -29 145 -79 190 -121zM753 831l41 -47c55 33 127 86 164 123l-42 53c-35 -37 -107 -93 -163 -129z" />
</svg>
