<?xml version="1.0" standalone="no"?>
<!DOCTYPE svg PUBLIC "-//W3C//DTD SVG 1.1//EN" "http://www.w3.org/Graphics/SVG/1.1/DTD/svg11.dtd" >
<svg xmlns="http://www.w3.org/2000/svg" xmlns:xlink="http://www.w3.org/1999/xlink" version="1.1" viewBox="-10 0 1010 1000">
   <path fill="currentColor"
d="M863 398v-91h-197v91h197zM863 547v-93h-197v93h197zM863 697v-94h-197v94h197zM602 247h110c6 -29 12 -63 15 -93h-150v-63h371v63h-148c-8 32 -16 65 -23 93h151v508h-326v-508zM555 166l-49 27c-15 -29 -45 -75 -73 -107l48 -22c28 31 60 74 74 102zM304 519h-75v186
h75v-186zM348 757h-119v57h-45v-347h164v290zM350 337v53h-170v-53h170zM510 349l58 8c-23 129 -54 247 -97 348c17 77 37 121 59 121c14 0 22 -27 26 -101c12 15 30 26 44 32c-10 92 -27 128 -76 128c-38 0 -67 -38 -89 -104c-29 54 -62 102 -101 144
c-8 -11 -33 -30 -47 -40c51 -51 93 -115 126 -188c-22 -110 -35 -262 -42 -435h-221v192c0 138 -11 343 -74 483c-10 -11 -36 -31 -48 -38c58 -132 64 -315 64 -445v-252h277c-1 -51 -2 -104 -3 -158h60c0 55 0 107 1 158h140v60h-138c4 129 12 242 24 332
c25 -75 43 -158 57 -245zM682 775l61 31c-37 55 -97 115 -147 152c-12 -13 -32 -32 -47 -44c51 -34 106 -93 133 -139zM791 807l54 -32c46 43 102 105 127 144l-56 37c-25 -41 -79 -104 -125 -149z" />
</svg>
