<?xml version="1.0" standalone="no"?>
<!DOCTYPE svg PUBLIC "-//W3C//DTD SVG 1.1//EN" "http://www.w3.org/Graphics/SVG/1.1/DTD/svg11.dtd" >
<svg xmlns="http://www.w3.org/2000/svg" xmlns:xlink="http://www.w3.org/1999/xlink" version="1.1" viewBox="-10 0 1010 1000">
   <path fill="currentColor"
d="M861 396v-95h-230v95h230zM861 549v-96h-230v96h230zM861 702v-98h-230v98h230zM569 242h118c6 -28 11 -59 15 -87h-167v-64h414v64h-172c-7 30 -15 60 -22 87h170v519h-356v-519zM461 279l-41 44c-27 -19 -66 -42 -110 -64c-54 35 -113 63 -171 82
c-7 -14 -25 -34 -37 -45c49 -15 101 -38 148 -66c-30 -14 -61 -26 -89 -37l40 -38c32 11 66 25 101 40c26 -20 50 -42 70 -66h-226v-53h266l13 -3l42 22c-25 49 -63 91 -107 127c39 19 75 39 101 57zM294 529l-35 40c-16 -12 -37 -27 -62 -42c-32 37 -68 66 -107 88
c-7 -13 -24 -34 -37 -45c33 -17 65 -41 93 -72c-24 -13 -49 -25 -72 -35l33 -36c22 9 47 20 71 32c14 -20 26 -42 36 -64h-136v-53h162l12 -2l38 14c-14 50 -35 94 -61 132c25 15 48 30 65 43zM534 827l-36 58c-30 -24 -102 -72 -154 -106v177h-65v-201
c-54 72 -126 137 -196 174c-9 -16 -30 -38 -45 -50c78 -36 158 -107 209 -182h-187v-58h219v-72h33c-4 -3 -7 -7 -10 -9c27 -14 53 -33 76 -57c-25 -13 -50 -25 -73 -35l36 -36c23 9 47 20 71 31c15 -20 28 -42 39 -66h-136v-53h162l12 -3l40 17c-14 51 -36 95 -63 133
c31 17 60 35 80 50l-39 41c-18 -15 -45 -32 -75 -49c-27 28 -57 51 -88 69v39h195v58h-195v22c45 24 161 89 190 108zM657 792l63 35c-46 48 -117 101 -177 131c-12 -13 -33 -33 -49 -46c61 -28 129 -79 163 -120zM781 828l54 -34c47 37 105 90 134 126l-56 39
c-28 -37 -85 -92 -132 -131z" />
</svg>
