<?xml version="1.0" standalone="no"?>
<!DOCTYPE svg PUBLIC "-//W3C//DTD SVG 1.1//EN" "http://www.w3.org/Graphics/SVG/1.1/DTD/svg11.dtd" >
<svg xmlns="http://www.w3.org/2000/svg" xmlns:xlink="http://www.w3.org/1999/xlink" version="1.1" viewBox="-10 0 1010 1000">
   <path fill="currentColor"
d="M866 403v-95h-227v95h227zM866 555v-97h-227v97h227zM866 708v-97h-227v97h227zM576 249h119c5 -30 10 -64 13 -94h-165v-64h411v64h-171c-8 32 -14 65 -21 94h167v518h-353v-518zM447 260h-209c-99 0 -124 -14 -124 -79v-137h63v78c97 -16 202 -39 261 -61l49 39
c-82 29 -203 54 -310 68v12c0 24 8 28 64 28h199c38 0 45 -7 48 -58c15 9 38 16 57 19c-8 74 -28 91 -98 91zM263 557v55h174v-55h-174zM263 456v54h174v-54h-174zM263 357v51h174v-51h-174zM202 661v-354h298v354h-298zM540 714v55h-459v-420h61v365h398zM210 778l61 34
c-45 53 -117 111 -176 144c-11 -12 -32 -33 -47 -45c61 -32 129 -88 162 -133zM353 813l49 -35c39 30 87 75 111 106l-51 40c-22 -30 -70 -77 -109 -111zM661 792l62 35c-45 48 -115 101 -175 131c-11 -13 -33 -33 -49 -46c60 -28 128 -79 162 -120zM783 828l54 -34
c47 37 104 90 133 126l-56 38c-28 -36 -85 -91 -131 -130z" />
</svg>
