<?xml version="1.0" standalone="no"?>
<!DOCTYPE svg PUBLIC "-//W3C//DTD SVG 1.1//EN" "http://www.w3.org/Graphics/SVG/1.1/DTD/svg11.dtd" >
<svg xmlns="http://www.w3.org/2000/svg" xmlns:xlink="http://www.w3.org/1999/xlink" version="1.1" viewBox="-10 0 1010 1000">
   <path fill="currentColor"
d="M853 408v-96h-214v96h214zM853 559v-96h-214v96h214zM853 712v-97h-214v97h214zM575 254h100c8 -30 15 -67 20 -99h-151v-64h407v64h-185c-10 34 -20 69 -29 99h184v517h-346v-517zM442 416v-107c-50 30 -99 60 -140 84l-18 -56c41 -19 99 -51 158 -83v-117h-151v-58h212
v337h-61zM411 230l-34 44c-19 -23 -58 -57 -90 -76l33 -40c30 16 70 47 91 72zM427 722l57 24c-76 99 -217 173 -371 214c-9 -14 -25 -34 -38 -46c148 -35 285 -104 352 -192zM297 540l53 21c-52 62 -137 118 -216 151c-9 -12 -25 -29 -39 -38c74 -30 157 -82 202 -134z
M371 626l51 21c-64 77 -175 140 -281 179c-10 -12 -24 -29 -38 -41c102 -33 211 -93 268 -159zM274 392l70 17c-6 8 -13 15 -18 23c81 36 163 82 205 115l-38 52c-44 -35 -129 -88 -209 -126c-61 56 -139 106 -217 142c-4 -13 -23 -41 -34 -53c85 -37 169 -91 224 -151h-57
v-94c-52 32 -106 63 -148 87l-19 -58c43 -20 105 -53 167 -86v-123h-141v-58h202v328c5 -5 9 -10 13 -15zM169 233l-35 41c-17 -24 -53 -58 -81 -78l33 -37c28 18 63 51 83 74zM671 786l51 44c-49 48 -120 100 -175 133c-7 -15 -22 -39 -34 -55c53 -30 121 -81 158 -122z
M772 830l42 -43c49 37 112 89 144 126l-44 48c-31 -37 -93 -93 -142 -131z" />
</svg>
