<?xml version="1.0" standalone="no"?>
<!DOCTYPE svg PUBLIC "-//W3C//DTD SVG 1.1//EN" "http://www.w3.org/Graphics/SVG/1.1/DTD/svg11.dtd" >
<svg xmlns="http://www.w3.org/2000/svg" xmlns:xlink="http://www.w3.org/1999/xlink" version="1.1" viewBox="-10 0 1010 1000">
   <path fill="currentColor"
d="M866 403v-95h-227v95h227zM866 555v-97h-227v97h227zM866 708v-97h-227v97h227zM576 249h119c5 -30 10 -64 13 -94h-160v-64h404v64h-169c-8 32 -14 65 -21 94h168v518h-354v-518zM119 262v84h-57v-135h208v-59h-186v-60h427v60h-183v59h206v135h-57v16h-118v-45h116v-55
h-147v227h-58v-227h-151zM359 458v-45h131v45h-131zM237 317v45h-117v-45h117zM107 458v-45h130v45h-130zM512 643v245c0 24 -4 41 -21 51c-16 10 -38 10 -70 10c-3 -15 -12 -39 -20 -53h44c7 0 9 -3 9 -10v-189h-71v245h-50v-245h-66v245h-49v-245h-66v253h-57v-307h150
c6 -21 12 -45 17 -68h-196v-55h466v55h-201c-8 23 -16 47 -24 68h205zM661 792l62 35c-41 48 -106 101 -161 131c-12 -13 -35 -34 -49 -47c56 -28 117 -78 148 -119zM783 828l54 -34c47 37 104 90 133 126l-56 38c-28 -36 -85 -91 -131 -130z" />
</svg>
