<?xml version="1.0" standalone="no"?>
<!DOCTYPE svg PUBLIC "-//W3C//DTD SVG 1.1//EN" "http://www.w3.org/Graphics/SVG/1.1/DTD/svg11.dtd" >
<svg xmlns="http://www.w3.org/2000/svg" xmlns:xlink="http://www.w3.org/1999/xlink" version="1.1" viewBox="-10 0 1010 1000">
   <path fill="currentColor"
d="M417 259h161c11 -31 25 -70 35 -104h-232v-67h573v67h-255c-15 36 -30 74 -45 104h234v465h-74v-398h-324v400h-73v-467zM369 596l10 64c-115 40 -236 82 -327 112l-20 -77c39 -10 88 -24 143 -41v-422h-126v-71h314v71h-115v401zM691 382v210c0 129 -43 275 -325 363
c-9 -17 -30 -44 -46 -59c270 -73 298 -200 298 -305v-209h73zM687 788l47 -46c77 47 175 115 224 161l-49 53c-47 -47 -144 -119 -222 -168z" />
</svg>
