<?xml version="1.0" standalone="no"?>
<!DOCTYPE svg PUBLIC "-//W3C//DTD SVG 1.1//EN" "http://www.w3.org/Graphics/SVG/1.1/DTD/svg11.dtd" >
<svg xmlns="http://www.w3.org/2000/svg" xmlns:xlink="http://www.w3.org/1999/xlink" version="1.1" viewBox="-10 0 1010 1000">
   <path fill="currentColor"
d="M523 268h130c12 -31 26 -71 37 -104h-190v-65h446v65h-184c-14 35 -28 73 -41 104h189v466h-66v-406h-257v408h-64v-468zM329 184l-71 25c-10 -39 -37 -102 -61 -149l66 -22c25 46 53 108 66 146zM476 219v66h-423v-66h423zM396 772l84 -43c3 19 10 47 16 62
c-128 72 -151 87 -164 102c-6 -17 -23 -48 -35 -62c13 -10 33 -31 33 -71v-313h-127v133c0 116 -18 271 -115 374c-11 -13 -39 -33 -55 -42c91 -96 103 -229 103 -333v-199h260v392zM691 374h67c-5 341 -26 501 -272 587c-7 -16 -25 -41 -39 -52c227 -77 240 -217 244 -535z
M728 790l46 -44c66 47 152 116 195 159l-49 51c-41 -45 -125 -117 -192 -166z" />
</svg>
