<?xml version="1.0" standalone="no"?>
<!DOCTYPE svg PUBLIC "-//W3C//DTD SVG 1.1//EN" "http://www.w3.org/Graphics/SVG/1.1/DTD/svg11.dtd" >
<svg xmlns="http://www.w3.org/2000/svg" xmlns:xlink="http://www.w3.org/1999/xlink" version="1.1" viewBox="-10 0 1010 1000">
   <path fill="currentColor"
d="M510 259h133c12 -30 24 -69 33 -102h-203v-69h481v69h-197c-14 35 -29 72 -43 102h205v465h-72v-398h-267v400h-70v-467zM478 406l-48 55c-35 -32 -100 -76 -160 -113c-57 53 -120 96 -183 128c-11 -15 -32 -41 -48 -53c111 -53 230 -150 296 -260h-258v-68h299l12 -3
l50 26c-28 67 -70 129 -120 183c59 34 124 75 160 105zM462 765l5 61c-137 33 -285 67 -390 91l-18 -69c47 -9 106 -21 173 -34v-219h-154v-66h370v66h-144v203c51 -11 105 -22 158 -33zM748 387v201c0 124 -34 276 -264 371c-9 -15 -30 -40 -45 -53
c222 -81 239 -216 239 -319v-200h70zM729 785l45 -46c65 49 148 118 186 163l-47 53c-38 -46 -119 -119 -184 -170z" />
</svg>
