<?xml version="1.0" standalone="no"?>
<!DOCTYPE svg PUBLIC "-//W3C//DTD SVG 1.1//EN" "http://www.w3.org/Graphics/SVG/1.1/DTD/svg11.dtd" >
<svg xmlns="http://www.w3.org/2000/svg" xmlns:xlink="http://www.w3.org/1999/xlink" version="1.1" viewBox="-10 0 1010 1000">
   <path fill="currentColor"
d="M522 268h130c12 -31 25 -70 35 -104h-199v-67h461v67h-188c-13 35 -27 73 -41 104h194v453h-70v-394h-256v396h-66v-455zM366 618h-206v174h206v-174zM434 554v302h-274v74h-68v-376h342zM299 248v143h146v67h-377v-67h162v-143h-179v-67h179v-129h69v129h162v67h-162z
M686 387h64c-3 354 -24 494 -266 570c-7 -16 -24 -41 -37 -53c224 -66 236 -183 239 -517zM731 800l44 -41c62 43 143 106 183 146l-45 48c-40 -41 -119 -107 -182 -153z" />
</svg>
