<?xml version="1.0" standalone="no"?>
<!DOCTYPE svg PUBLIC "-//W3C//DTD SVG 1.1//EN" "http://www.w3.org/Graphics/SVG/1.1/DTD/svg11.dtd" >
<svg xmlns="http://www.w3.org/2000/svg" xmlns:xlink="http://www.w3.org/1999/xlink" version="1.1" viewBox="-10 0 1010 1000">
   <path fill="currentColor"
d="M516 267h106c9 -31 19 -72 27 -105h-174v-67h463v67h-216c-12 36 -24 74 -37 105h213v464h-66v-400h-253v401h-63v-465zM363 405h-157c-87 0 -110 -20 -110 -93v-259h68v127c79 -26 163 -57 214 -85l53 50c-75 35 -177 68 -267 92v74c0 27 6 31 49 31h144
c35 0 41 -13 45 -107c15 11 43 22 62 26c-8 114 -29 144 -101 144zM192 530l39 15c-26 139 -87 261 -158 325c-8 -13 -27 -36 -41 -47c51 -45 100 -135 127 -228h-107v-62h130zM484 797l-51 35c-28 -53 -77 -133 -127 -209v256c0 36 -7 53 -32 64c-23 11 -60 12 -118 12
c-3 -18 -13 -44 -22 -62c44 2 80 1 92 1c12 -1 15 -4 15 -15v-454h65v97l46 68c31 -31 65 -69 86 -97l51 45c-34 34 -72 70 -107 98c41 61 78 120 102 161zM739 384v203c0 126 -28 278 -270 371c-9 -15 -29 -37 -43 -50c226 -80 247 -219 247 -322v-202h66zM714 786l41 -44
c68 48 156 118 198 164l-42 51c-41 -47 -127 -120 -197 -171z" />
</svg>
