<?xml version="1.0" standalone="no"?>
<!DOCTYPE svg PUBLIC "-//W3C//DTD SVG 1.1//EN" "http://www.w3.org/Graphics/SVG/1.1/DTD/svg11.dtd" >
<svg xmlns="http://www.w3.org/2000/svg" xmlns:xlink="http://www.w3.org/1999/xlink" version="1.1" viewBox="-10 0 1010 1000">
   <path fill="currentColor"
d="M534 264h129c10 -29 22 -69 31 -102h-181v-64h431v64h-177c-12 35 -24 72 -35 102h186v463h-64v-399h-258v401h-62v-465zM426 75l51 27c-24 35 -55 74 -80 100l-44 -24c24 -27 57 -72 73 -103zM209 179l-43 27c-14 -30 -45 -76 -74 -111l42 -22c29 33 61 77 75 106z
M251 442v-128c-46 54 -110 104 -167 132c-10 -13 -30 -33 -45 -43c63 -25 132 -72 176 -121h-156v-56h192v-165h64v165h187v56h-187v1c61 28 138 72 178 105l-28 49c-34 -28 -94 -67 -150 -97v102h-64zM149 761l57 18c-30 55 -78 115 -120 153c-10 -11 -35 -29 -49 -39
c44 -35 87 -83 112 -132zM432 700l-116 9v174c0 30 -6 44 -27 54c-20 9 -52 9 -100 9c-3 -16 -11 -37 -17 -53c31 1 60 1 68 0c10 0 13 -2 13 -11v-167c-134 12 -158 15 -174 22c-2 -12 -11 -43 -18 -59c20 -2 45 -15 75 -35c14 -8 41 -24 72 -47c-81 3 -100 6 -112 11
c-3 -13 -13 -41 -18 -56c11 -3 23 -9 36 -21c14 -11 58 -56 85 -102l57 22c-27 37 -59 72 -90 99l106 -2c30 -24 61 -51 87 -78l53 34c-70 62 -143 118 -217 163l208 -15c-13 -20 -25 -39 -38 -57l45 -23c35 49 77 114 97 156l-47 28c-7 -16 -17 -34 -28 -55zM362 767
l49 -19c26 35 56 86 69 118l-53 22c-11 -32 -40 -83 -65 -121zM696 379h65c-5 338 -24 493 -243 581c-7 -16 -26 -39 -40 -49c203 -79 215 -215 218 -532zM734 792l44 -41c64 46 148 111 188 152l-43 48c-41 -42 -123 -111 -189 -159z" />
</svg>
