<?xml version="1.0" standalone="no"?>
<!DOCTYPE svg PUBLIC "-//W3C//DTD SVG 1.1//EN" "http://www.w3.org/Graphics/SVG/1.1/DTD/svg11.dtd" >
<svg xmlns="http://www.w3.org/2000/svg" xmlns:xlink="http://www.w3.org/1999/xlink" version="1.1" viewBox="-10 0 1010 1000">
   <path fill="currentColor"
d="M448 337v-193h-367v-61h844v61h-404v193h-73zM876 271l-35 51c-67 -31 -196 -76 -295 -102l34 -45c96 24 226 65 296 96zM331 718h122v-90h-122v90zM640 628h-122v90h122v-90zM594 797l53 -22c49 47 102 114 125 160l-57 24c-9 -18 -22 -40 -38 -63
c-165 12 -333 22 -451 29l-6 -62c63 -3 145 -7 233 -11v-84h-180v-190h180v-61c-61 5 -124 8 -183 10c-2 -14 -10 -34 -17 -48c145 -6 321 -20 416 -41l47 46c-55 12 -125 20 -198 28v66h182v190h-182v81l117 -7c-14 -16 -27 -31 -41 -45zM146 357h684c1 271 11 527 71 527
c14 0 20 -56 21 -137c14 17 33 35 49 45c-7 120 -22 165 -77 165c-116 0 -132 -233 -137 -540h-539v137c0 125 -20 296 -131 409c-11 -15 -39 -41 -55 -49c101 -105 114 -250 114 -362v-195z" />
</svg>
