<?xml version="1.0" standalone="no"?>
<!DOCTYPE svg PUBLIC "-//W3C//DTD SVG 1.1//EN" "http://www.w3.org/Graphics/SVG/1.1/DTD/svg11.dtd" >
<svg xmlns="http://www.w3.org/2000/svg" xmlns:xlink="http://www.w3.org/1999/xlink" version="1.1" viewBox="-10 0 1010 1000">
   <path fill="currentColor"
d="M272 197l-64 26c-14 -38 -48 -96 -79 -138l62 -22c32 42 66 98 81 134zM369 242v68h-313v-68h313zM173 675l-60 10c1 -88 -12 -220 -32 -322l57 -9c21 102 36 233 35 321zM362 675l8 63c-109 33 -223 65 -312 90l-18 -73c50 -12 115 -26 184 -44c21 -102 42 -260 50 -371
l70 12c-15 107 -37 244 -57 342zM553 428v176h60v-176h-60zM719 604v-176h-62v176h62zM694 711l44 -17c28 69 56 158 67 218l-47 17c-4 -20 -9 -46 -17 -72c-96 14 -194 29 -271 41l-17 -66c41 -4 93 -11 150 -17v-154h-93v-291h97v-89c-36 8 -73 14 -107 18
c-3 -13 -12 -35 -18 -49c91 -15 197 -40 256 -66l48 47c-35 15 -77 26 -122 37v102h99v291h-103v146l65 -9c-10 -30 -20 -61 -31 -87zM401 82h474c-4 423 -7 787 43 802c6 2 13 -62 16 -134c11 16 29 38 39 48c-11 144 -42 173 -84 154c-87 -32 -83 -385 -82 -805h-342v305
c0 157 -14 368 -121 507c-12 -11 -39 -29 -55 -36c102 -132 112 -322 112 -470v-371z" />
</svg>
