<?xml version="1.0" standalone="no"?>
<!DOCTYPE svg PUBLIC "-//W3C//DTD SVG 1.1//EN" "http://www.w3.org/Graphics/SVG/1.1/DTD/svg11.dtd" >
<svg xmlns="http://www.w3.org/2000/svg" xmlns:xlink="http://www.w3.org/1999/xlink" version="1.1" viewBox="-10 0 1010 1000">
   <path fill="currentColor"
d="M917 166l-47 37c-19 -32 -61 -78 -99 -109l46 -33c38 30 81 73 100 105zM222 429v162h48v-162h-48zM357 591v-162h-49v162h49zM356 701l45 -14c32 64 63 148 72 203l-48 15c-2 -18 -8 -40 -15 -62c-90 12 -182 25 -255 33l-14 -59c34 -3 77 -8 123 -14v-154h-84v-277h84
v-99c-30 6 -61 12 -89 16c-4 -13 -12 -33 -19 -47c78 -14 171 -38 222 -63l38 49c-29 13 -65 23 -102 33v111h86v277h-86v149l78 -9c-11 -31 -23 -62 -36 -88zM909 799l-2 2c-25 -32 -62 -73 -104 -116c-47 53 -101 94 -161 122c-7 -16 -24 -43 -36 -56
c55 -23 108 -62 152 -112c-36 -35 -72 -68 -105 -97c-21 69 -48 131 -87 182c-6 -9 -16 -18 -27 -26c45 142 131 200 294 199c55 -1 69 -21 76 -98zM870 430h-191c-7 37 -14 72 -24 107l41 -34c31 27 65 57 99 89c31 -47 58 -101 75 -162zM955 757l-43 40c14 11 37 24 51 29
c-12 97 -36 130 -129 131c-353 -1 -400 -201 -405 -812h-284v294c0 149 -9 369 -70 520c-9 -13 -32 -36 -44 -44c53 -140 57 -334 57 -476v-354h403c0 263 6 450 38 578c65 -97 94 -239 107 -383h-104v-62h109c4 -60 6 -119 7 -173h66c-2 55 -4 114 -8 173h249v62h-255
c-3 29 -6 59 -10 88h210l5 -1l39 14c-21 102 -56 186 -103 255c45 44 86 88 114 121z" />
</svg>
