<?xml version="1.0" standalone="no"?>
<!DOCTYPE svg PUBLIC "-//W3C//DTD SVG 1.1//EN" "http://www.w3.org/Graphics/SVG/1.1/DTD/svg11.dtd" >
<svg xmlns="http://www.w3.org/2000/svg" xmlns:xlink="http://www.w3.org/1999/xlink" version="1.1" viewBox="-10 0 1010 1000">
   <path fill="currentColor"
d="M713 358l-41 17c-2 -12 -6 -28 -10 -45c-116 48 -138 59 -150 70c-3 -16 -13 -41 -22 -55c13 -5 29 -16 29 -51v-188c54 -14 115 -36 150 -56l43 42c-40 21 -91 38 -140 51v164l76 -27c-8 -30 -17 -61 -26 -89l46 -15c19 56 42 131 50 175c39 -48 53 -119 59 -200h-60
v-60h227s0 19 -1 28c-7 169 -14 233 -29 255c-12 16 -24 21 -42 24c-13 2 -35 2 -56 0c-1 -18 -6 -43 -13 -59c22 2 39 2 48 2c8 1 13 -1 19 -9c9 -13 15 -60 21 -181h-64c-9 119 -32 215 -102 274c-6 -15 -21 -36 -33 -47c8 -6 15 -13 21 -20zM214 429v162h47v-162h-47z
M346 591v-162h-49v162h49zM348 700l44 -13c24 65 51 148 64 202l-46 16c-4 -19 -10 -40 -16 -63c-86 13 -173 26 -243 35l-14 -62c33 -3 74 -8 118 -13v-154h-82v-276h82v-100c-29 7 -60 13 -87 17c-3 -13 -11 -34 -18 -47c76 -15 167 -38 217 -63l36 48
c-29 13 -63 23 -100 33v112h85v276h-85v148l73 -10c-9 -29 -19 -60 -28 -86zM688 489h-97v82h97v-82zM844 571v-82h-104v82h104zM740 708h104v-87h-104v87zM591 621v87h97v-87h-97zM591 800h-42c53 70 139 94 277 94c64 -1 78 -20 83 -96c15 11 36 22 51 26
c-8 89 -31 124 -133 124c-386 0 -418 -157 -417 -805h-269v425c0 127 -9 289 -69 395c-8 -12 -29 -35 -41 -42c52 -97 56 -234 56 -352v-485h378c-3 374 2 585 71 698v-352h364v366h-56v-29h-253v33z" />
</svg>
