<?xml version="1.0" standalone="no"?>
<!DOCTYPE svg PUBLIC "-//W3C//DTD SVG 1.1//EN" "http://www.w3.org/Graphics/SVG/1.1/DTD/svg11.dtd" >
<svg xmlns="http://www.w3.org/2000/svg" xmlns:xlink="http://www.w3.org/1999/xlink" version="1.1" viewBox="-10 0 1010 1000">
   <path fill="currentColor"
d="M438 124l-38 38c-18 -23 -51 -56 -81 -77l36 -33c31 22 65 53 83 72zM457 363l-41 43c-35 -36 -99 -87 -160 -126c-30 61 -78 104 -160 135c-7 -13 -24 -36 -38 -47c88 -30 132 -75 155 -141h-140v-55h154c6 -33 9 -70 11 -112h61c-2 41 -6 79 -11 112h170v55h-182l-2 6
c67 39 145 92 183 130zM398 437l34 -19c22 26 43 59 52 82l-38 21c-8 -23 -28 -60 -48 -84zM285 505l-38 20c-9 -24 -29 -64 -50 -91l35 -18c22 27 43 64 53 89zM268 753l-35 37c-13 -26 -36 -60 -61 -92c-14 98 -40 173 -92 229c-9 -14 -28 -34 -42 -43
c60 -64 80 -160 88 -293h-77v-53h79c1 -36 2 -75 2 -115h56c-1 40 -1 79 -3 115h64v53h-65c-1 14 -2 26 -3 39c36 39 73 88 89 123zM466 759l-40 38c-13 -28 -34 -65 -58 -100c-15 95 -45 171 -101 226c-8 -14 -27 -33 -41 -42c66 -63 90 -162 100 -290h-60v-53h62
c2 -36 2 -74 3 -114h56c-1 39 -2 78 -4 114h84v53h-86c-1 12 -2 23 -3 33c35 44 72 99 88 135zM619 427v163h45v-163h-45zM754 590v-163h-49v163h49zM747 700l43 -11c26 65 53 149 62 204l-45 12c-3 -18 -7 -40 -13 -62c-87 13 -175 25 -246 34l-15 -61c35 -2 76 -7 121 -12
v-157h-78v-276h82v-107c-29 2 -59 3 -85 3c-2 -13 -9 -33 -16 -47c75 -3 168 -11 219 -25l37 48c-29 7 -65 13 -102 17v111h86v276h-91v151l72 -10c-8 -30 -20 -61 -31 -88zM494 83h383c-2 355 -8 804 43 803c12 0 16 -68 18 -155c10 13 25 27 35 35c-5 129 -15 177 -59 178
c-98 0 -87 -363 -90 -802h-275v290c0 151 -9 374 -68 528c-9 -13 -32 -36 -43 -43c53 -142 56 -341 56 -484v-350z" />
</svg>
