<?xml version="1.0" standalone="no"?>
<!DOCTYPE svg PUBLIC "-//W3C//DTD SVG 1.1//EN" "http://www.w3.org/Graphics/SVG/1.1/DTD/svg11.dtd" >
<svg xmlns="http://www.w3.org/2000/svg" xmlns:xlink="http://www.w3.org/1999/xlink" version="1.1" viewBox="-10 0 1010 1000">
   <path fill="currentColor"
d="M755 472l36 7c-5 39 -18 90 -42 119l-32 -21c20 -23 34 -66 38 -105zM689 588l-30 -14c12 -29 32 -77 40 -108l38 16c-17 37 -33 78 -48 106zM964 731l-38 38c-21 -30 -58 -74 -95 -114c-21 59 -57 103 -116 135c-6 -13 -22 -32 -34 -40c109 -57 126 -156 130 -340h52
c-2 74 -6 137 -17 189c43 43 93 98 118 132zM902 592l-35 -15c16 -30 36 -79 46 -111l42 18c-18 38 -38 79 -53 108zM877 109l56 24c-25 41 -57 84 -81 114l-48 -22c24 -31 57 -83 73 -116zM605 111l53 10c-11 49 -36 102 -77 131l-46 -31c35 -21 60 -65 70 -110zM940 370
l-46 45c-36 -35 -102 -87 -163 -131c-31 61 -84 101 -176 129c-6 -14 -23 -37 -36 -49c162 -46 186 -127 192 -313h60c-2 71 -7 130 -19 178c66 43 146 102 188 141zM228 430v163h54v-163h-54zM374 593v-163h-53v163h53zM360 705l45 -12c35 65 70 152 82 207l-48 17
c-5 -22 -12 -48 -22 -76c-92 12 -185 24 -259 33l-15 -60c38 -3 84 -7 134 -12v-152h-92v-277h92v-100c-32 7 -64 13 -94 17c-2 -13 -10 -33 -17 -47c77 -15 170 -37 221 -63l39 48c-29 13 -63 24 -100 33v112h91v277h-91v147l72 -7c-12 -30 -25 -59 -38 -85zM728 685
l-34 37c-14 -19 -37 -47 -61 -73c-14 44 -34 78 -66 105c49 104 131 146 268 145c55 -1 69 -24 75 -109c14 10 37 23 52 28c-10 105 -35 139 -127 139c-344 0 -391 -197 -396 -811h-288v287c0 151 -9 374 -67 526c-9 -13 -34 -37 -47 -45c51 -141 55 -338 55 -480v-347h407
c0 204 4 363 20 484c20 -23 33 -65 36 -103l36 7c-4 39 -17 89 -41 118l-30 -19c7 49 16 92 27 129c52 -59 60 -151 62 -293h51c-1 72 -5 133 -14 185c31 29 65 66 82 90z" />
</svg>
