<?xml version="1.0" standalone="no"?>
<!DOCTYPE svg PUBLIC "-//W3C//DTD SVG 1.1//EN" "http://www.w3.org/Graphics/SVG/1.1/DTD/svg11.dtd" >
<svg xmlns="http://www.w3.org/2000/svg" xmlns:xlink="http://www.w3.org/1999/xlink" version="1.1" viewBox="-10 0 1010 1000">
   <path fill="currentColor"
d="M392 108l56 24c-21 43 -46 89 -66 120l-48 -21c19 -33 46 -87 58 -123zM133 101l51 11c-10 48 -31 107 -63 143l-48 -26c27 -30 50 -82 60 -128zM461 364l-38 50c-36 -33 -103 -84 -164 -125c-32 63 -84 108 -172 139c-7 -14 -24 -36 -37 -48c160 -52 186 -149 193 -334
h62c-3 73 -10 136 -25 188c63 40 141 95 181 130zM437 630l-31 -13c12 -35 27 -91 34 -126l39 14c-13 43 -28 93 -42 125zM299 656l-33 -22c14 -31 23 -81 26 -123l34 5c-3 44 -11 103 -27 140zM231 639l-34 -14c11 -34 24 -89 29 -123l39 15c-12 43 -23 90 -34 122zM69 508
l35 6c-2 44 -12 108 -29 147l-36 -17c16 -35 26 -91 30 -136zM263 775l-36 38c-15 -26 -41 -61 -68 -95c-15 86 -43 156 -90 207c-7 -10 -24 -27 -36 -35c83 -92 96 -261 99 -466h50c-2 83 -5 161 -13 231c35 39 75 89 94 120zM454 767l-36 41c-11 -19 -29 -44 -47 -69
c-20 75 -49 139 -96 186c-7 -10 -23 -24 -36 -32c95 -95 112 -272 117 -464h49c-3 87 -8 171 -22 246c27 30 57 68 71 92zM625 431v162h45v-162h-45zM754 593v-162h-46v162h46zM746 708l38 -9c24 66 44 153 49 209l-41 11c-1 -21 -5 -45 -10 -70c-80 16 -161 29 -226 41
l-15 -56c35 -5 77 -12 124 -19v-165h-81v-276h81v-101c-28 7 -55 12 -80 16c-3 -13 -11 -32 -17 -45c72 -15 158 -38 206 -63l35 47c-28 13 -61 24 -96 33v113h83v276h-83v157l59 -10c-8 -30 -17 -62 -26 -89zM494 87h392c-2 317 -13 781 28 781c11 0 15 -64 16 -139
c10 16 25 35 36 45c-7 111 -16 159 -58 160c-94 0 -78 -382 -81 -788h-276v315c0 148 -11 352 -89 491c-11 -12 -35 -31 -48 -38c73 -130 80 -312 80 -453v-374z" />
</svg>
