<?xml version="1.0" standalone="no"?>
<!DOCTYPE svg PUBLIC "-//W3C//DTD SVG 1.1//EN" "http://www.w3.org/Graphics/SVG/1.1/DTD/svg11.dtd" >
<svg xmlns="http://www.w3.org/2000/svg" xmlns:xlink="http://www.w3.org/1999/xlink" version="1.1" viewBox="-10 0 1010 1000">
   <path fill="currentColor"
d="M624 701v-186h60v186c0 20 4 23 26 23h72c21 0 25 -10 28 -87c12 10 35 17 52 21c-6 95 -22 119 -72 119h-88c-63 0 -78 -16 -78 -76zM814 537l-42 40c-22 -33 -72 -80 -118 -111l40 -35c45 29 96 73 120 106zM959 688l-53 26c-12 -47 -45 -118 -80 -173l50 -23
c36 53 71 124 83 170zM846 231v-86h-96v86h96zM846 371v-89h-96v89h96zM598 282v89h97v-89h-97zM598 145v86h97v-86h-97zM904 92v332h-362v-332h362zM543 721l-18 -11c46 132 133 182 298 181c57 -1 71 -25 78 -115c15 13 38 26 54 31c-11 106 -35 144 -131 144
c-361 0 -407 -185 -410 -802h-261v129l46 -21c33 51 66 107 96 165c15 -66 27 -134 36 -205l60 7c-13 99 -31 193 -55 279c45 91 80 179 101 249l-57 27c-15 -54 -40 -119 -70 -188c-30 86 -67 161 -112 223c-12 -9 -40 -26 -55 -34c56 -70 98 -163 130 -270
c-37 -75 -79 -151 -120 -218v142c0 149 -9 371 -67 521c-9 -14 -34 -37 -47 -44c51 -141 55 -337 55 -477v-345h382c-1 267 4 454 36 579c19 -41 33 -98 40 -145l47 15c-9 62 -26 137 -56 183z" />
</svg>
