<?xml version="1.0" standalone="no"?>
<!DOCTYPE svg PUBLIC "-//W3C//DTD SVG 1.1//EN" "http://www.w3.org/Graphics/SVG/1.1/DTD/svg11.dtd" >
<svg xmlns="http://www.w3.org/2000/svg" xmlns:xlink="http://www.w3.org/1999/xlink" version="1.1" viewBox="-10 0 1010 1000">
   <path fill="currentColor"
d="M476 232l-46 52c-34 -39 -100 -96 -157 -142c-59 76 -133 143 -208 190c-6 -15 -24 -51 -35 -67c90 -53 183 -135 236 -227l62 23c-6 10 -12 19 -18 29c59 45 131 102 166 142zM350 388h-170v77h170v-77zM180 607h170v-86h-170v86zM846 873h28c8 0 16 -2 22 -7
c5 -6 8 -14 9 -38c3 -22 4 -75 5 -142c15 14 37 26 57 32c-1 56 -5 130 -9 155c-5 28 -13 44 -27 54c-14 11 -32 14 -54 14h-49c-20 0 -42 -5 -57 -19c-16 -14 -22 -32 -22 -117v-634h-151v249c0 161 -20 389 -144 537c-10 -17 -38 -48 -51 -58c10 -12 19 -24 27 -36l-48 24
c-7 -19 -17 -41 -28 -67c-207 95 -234 110 -251 126v1c-4 -18 -16 -49 -26 -65c14 -7 37 -21 37 -58v-493h146c-10 -28 -21 -60 -33 -87l59 -18c16 32 33 75 43 105h86v333h-235v171l149 -65c-12 -25 -26 -49 -39 -72l53 -21c35 55 73 131 92 177c82 -130 91 -301 91 -434
v-320h296v711c0 33 2 52 6 56c6 4 11 6 18 6z" />
</svg>
