<?xml version="1.0" standalone="no"?>
<!DOCTYPE svg PUBLIC "-//W3C//DTD SVG 1.1//EN" "http://www.w3.org/Graphics/SVG/1.1/DTD/svg11.dtd" >
<svg xmlns="http://www.w3.org/2000/svg" xmlns:xlink="http://www.w3.org/1999/xlink" version="1.1" viewBox="-10 0 1010 1000">
   <path fill="currentColor"
d="M378 388h-194v77h194v-77zM184 607h194v-86h-194v86zM309 709l55 -24c39 64 84 149 104 199l-59 30c-9 -25 -24 -57 -41 -91c-205 84 -246 103 -265 117l-5 4c-6 -18 -20 -52 -33 -69c20 -9 49 -31 49 -70v-474h145c-9 -28 -21 -61 -32 -87l59 -19c16 33 33 76 42 106
h118v333h-262v170l159 -61c-11 -23 -23 -44 -34 -64zM265 38l62 22c-6 10 -11 19 -17 29c66 46 148 108 188 150l-45 54c-39 -42 -115 -105 -180 -153c-60 74 -134 139 -208 185c-6 -16 -24 -52 -34 -68c89 -51 182 -131 234 -219zM960 125v70h-172v642c0 46 -11 69 -43 81
s-84 14 -165 14c-5 -20 -18 -54 -29 -74c64 2 123 1 140 1c18 0 24 -5 24 -22v-642h-227v-70h472z" />
</svg>
