<?xml version="1.0" standalone="no"?>
<!DOCTYPE svg PUBLIC "-//W3C//DTD SVG 1.1//EN" "http://www.w3.org/Graphics/SVG/1.1/DTD/svg11.dtd" >
<svg xmlns="http://www.w3.org/2000/svg" xmlns:xlink="http://www.w3.org/1999/xlink" version="1.1" viewBox="-10 0 1010 1000">
   <path fill="currentColor"
d="M480 229l-45 52c-35 -39 -103 -96 -163 -140c-59 73 -133 138 -207 184c-6 -15 -24 -52 -34 -68c89 -51 182 -130 234 -219l62 23c-6 10 -12 20 -17 28c60 44 133 101 170 140zM371 388h-187v77h187v-77zM184 607h187v-86h-187v86zM307 709l54 -24c40 64 85 149 105 199
l-60 30c-8 -25 -23 -57 -40 -90c-203 83 -244 103 -263 116l-5 4c-6 -17 -20 -52 -33 -69c20 -9 49 -31 49 -70v-474h143c-9 -28 -21 -60 -32 -87l59 -18c16 32 32 75 42 105h113v333h-255v170l158 -61c-12 -23 -24 -44 -35 -64zM960 419v71h-212v467h-73v-467h-202v-71h202
v-243h-180v-69h439v69h-186v243h212z" />
</svg>
