<?xml version="1.0" standalone="no"?>
<!DOCTYPE svg PUBLIC "-//W3C//DTD SVG 1.1//EN" "http://www.w3.org/Graphics/SVG/1.1/DTD/svg11.dtd" >
<svg xmlns="http://www.w3.org/2000/svg" xmlns:xlink="http://www.w3.org/1999/xlink" version="1.1" viewBox="-10 0 1010 1000">
   <path fill="currentColor"
d="M628 40l66 23c-4 8 -8 14 -13 22c63 90 183 184 289 233c-16 16 -35 44 -43 62c-101 -56 -212 -148 -282 -239c-71 98 -168 181 -268 239c-8 -14 -27 -47 -41 -63c119 -60 232 -160 292 -277zM171 565l133 -14c10 -36 18 -75 25 -115l66 13c-41 232 -127 404 -310 503
c-9 -18 -28 -41 -45 -55c120 -60 197 -159 244 -287c-161 19 -188 25 -205 34c-2 -15 -10 -48 -17 -66c18 -3 40 -26 66 -61c15 -18 45 -61 81 -117c-106 10 -129 14 -142 21v-1v1c-3 -15 -12 -50 -19 -69c16 -3 31 -25 50 -55c20 -29 82 -148 117 -257l67 30
c-39 97 -91 197 -143 275l107 -7c21 -36 41 -74 59 -112l61 32c-58 109 -127 220 -195 307zM784 397h-274v76h274v-76zM510 600h274v-76h-274v76zM510 862l190 -51c-1 18 1 46 3 61c-220 65 -250 75 -268 88c-4 -18 -17 -47 -26 -61c13 -7 31 -23 31 -61v-496h185
c-10 -28 -26 -62 -42 -88l62 -14c19 32 40 73 52 102h158v314h-345v206zM896 655l45 44c-37 33 -85 66 -126 92c51 36 96 70 127 97l-43 54c-66 -62 -202 -159 -309 -225l40 -45c41 25 87 54 131 84c46 -28 102 -70 135 -101z" />
</svg>
