<?xml version="1.0" standalone="no"?>
<!DOCTYPE svg PUBLIC "-//W3C//DTD SVG 1.1//EN" "http://www.w3.org/Graphics/SVG/1.1/DTD/svg11.dtd" >
<svg xmlns="http://www.w3.org/2000/svg" xmlns:xlink="http://www.w3.org/1999/xlink" version="1.1" viewBox="-10 0 1010 1000">
   <path fill="currentColor"
d="M899 655l45 44c-36 33 -82 65 -123 90c50 37 95 71 124 99l-45 51c-64 -63 -194 -158 -302 -222l43 -43c41 23 85 52 128 80c44 -28 97 -69 130 -99zM793 397h-256v76h256v-76zM537 600h256v-76h-256v76zM653 38l58 23c-4 7 -9 16 -14 24c59 86 174 174 272 220
c-16 14 -34 42 -42 60c-95 -52 -200 -139 -265 -223c-53 77 -120 146 -190 200h174c-11 -28 -26 -61 -38 -87l59 -13c17 31 36 70 49 100h145v314h-324v207l183 -50c-1 17 0 44 2 59c-196 59 -238 73 -257 84l-5 3c-4 -19 -14 -55 -25 -75c15 -5 33 -12 33 -46v-493
c-14 11 -27 21 -41 29c-4 -9 -13 -28 -21 -44c-40 322 -150 521 -305 623c-9 -17 -34 -43 -49 -55c92 -57 164 -146 215 -270c-27 -28 -70 -62 -107 -86l39 -47c30 18 65 43 93 65c18 -59 32 -125 43 -199h-125c-31 97 -70 183 -119 250c-10 -15 -36 -44 -50 -57
c72 -96 120 -240 150 -397h-124v-68h372v68h-178c-9 47 -18 92 -31 136h124l12 -2l39 11c98 -62 192 -158 248 -264z" />
</svg>
