<?xml version="1.0" standalone="no"?>
<!DOCTYPE svg PUBLIC "-//W3C//DTD SVG 1.1//EN" "http://www.w3.org/Graphics/SVG/1.1/DTD/svg11.dtd" >
<svg xmlns="http://www.w3.org/2000/svg" xmlns:xlink="http://www.w3.org/1999/xlink" version="1.1" viewBox="-10 0 1010 1000">
   <path fill="currentColor"
d="M771 197l-52 47c-37 -47 -116 -112 -185 -155l48 -42c70 41 150 103 189 150zM472 697l-57 -27c38 -69 57 -180 66 -274l59 14c-10 97 -28 217 -68 287zM448 241l-48 50c-30 -40 -90 -99 -142 -146c-50 71 -113 136 -176 182c-5 -15 -23 -52 -35 -69
c78 -52 155 -134 199 -220l63 21c-5 10 -11 21 -17 31c56 47 124 109 156 151zM329 388h-148v77h148v-77zM181 608h148v-87h-148v87zM697 884h104c30 0 35 -25 39 -148c16 13 43 25 63 30c-8 142 -26 184 -96 184h-119c-78 0 -99 -24 -99 -112v-43c-43 51 -89 97 -140 138
c-8 -15 -27 -39 -41 -55l-48 21c-5 -19 -12 -41 -21 -66c-182 77 -220 95 -237 108l-5 4c-5 -17 -19 -51 -31 -68c19 -9 47 -30 47 -69v-477h132c-9 -27 -21 -59 -32 -84l58 -18c14 31 31 73 40 102h85v334h-215v169l137 -53c-9 -26 -21 -51 -32 -75l56 -20
c26 55 57 127 73 175c65 -52 123 -113 174 -182v-418h70v313c80 -137 140 -296 185 -469l69 14c-60 225 -142 424 -254 585v135c0 39 6 45 38 45zM815 415l62 -18c46 91 84 210 94 289l-67 20c-9 -80 -46 -199 -89 -291z" />
</svg>
