<?xml version="1.0" standalone="no"?>
<!DOCTYPE svg PUBLIC "-//W3C//DTD SVG 1.1//EN" "http://www.w3.org/Graphics/SVG/1.1/DTD/svg11.dtd" >
<svg xmlns="http://www.w3.org/2000/svg" xmlns:xlink="http://www.w3.org/1999/xlink" version="1.1" viewBox="-10 0 1010 1000">
   <path fill="currentColor"
d="M431 233l-50 50c-29 -38 -85 -94 -137 -138c-49 71 -114 136 -179 182c-5 -15 -24 -52 -36 -69c79 -53 159 -134 203 -220l64 20c-4 11 -10 22 -16 32c55 44 120 104 151 143zM819 617h-276v222h276v-222zM477 960v-410h411v407h-69v-51h-276v54h-66zM532 369h304
c-57 -59 -112 -132 -155 -207c-40 77 -90 146 -149 207zM172 608h144v-87h-144v87zM316 388h-144v77h144v-77zM661 45l64 18c-4 11 -8 21 -13 32c63 114 169 234 266 294c-17 14 -40 41 -53 59c-29 -21 -59 -47 -88 -78v67h-321v-52c-27 25 -56 50 -86 73
c-10 -13 -30 -36 -45 -47v254h-213v169l135 -51c-11 -26 -21 -51 -32 -74l57 -20c32 62 67 145 81 193l-62 26c-5 -21 -13 -46 -24 -73c-151 62 -202 85 -226 99l-15 11c-6 -16 -20 -51 -32 -67c19 -9 48 -31 48 -70v-477h129c-9 -27 -22 -59 -33 -84l60 -18
c15 31 33 73 42 102h85v78c128 -89 228 -226 276 -364z" />
</svg>
