<?xml version="1.0" standalone="no"?>
<!DOCTYPE svg PUBLIC "-//W3C//DTD SVG 1.1//EN" "http://www.w3.org/Graphics/SVG/1.1/DTD/svg11.dtd" >
<svg xmlns="http://www.w3.org/2000/svg" xmlns:xlink="http://www.w3.org/1999/xlink" version="1.1" viewBox="-10 0 1010 1000">
   <path fill="currentColor"
d="M334 169l-34 55c-46 -33 -137 -75 -211 -99l31 -49c73 21 165 61 214 93zM324 262l7 53c-93 28 -188 57 -263 78l-18 -59c68 -16 170 -44 274 -72zM561 554h201c-97 -34 -192 -79 -264 -130c-64 51 -146 95 -232 130h230c-16 -24 -42 -52 -67 -72l59 -20
c34 24 68 62 82 89zM311 737h393v-51h-393v51zM311 600v46h393v-46h-393zM553 375l-13 13c104 69 277 128 426 153c-15 14 -33 40 -43 58c-48 -10 -98 -23 -148 -41v224h-202c45 14 92 29 138 46c43 -28 91 -65 121 -92l56 35c-37 28 -78 56 -117 79c51 19 98 39 133 55
l-34 50c-87 -43 -256 -107 -387 -147l21 -26h-193v95l237 -30c-2 16 -4 40 -3 53c-268 39 -302 45 -323 54l-2 1c-6 -18 -22 -52 -34 -71c19 -10 52 -32 52 -72v-247c-51 19 -104 36 -156 49c-9 -18 -24 -42 -40 -58c165 -35 343 -106 441 -199c-43 19 -96 32 -159 43
c-5 -14 -20 -37 -32 -50c190 -28 263 -82 293 -176h-110c-25 31 -54 61 -89 87c-11 -14 -35 -31 -51 -39c73 -50 121 -120 145 -178l64 9c-9 22 -19 43 -32 65h351l12 -2l49 14c-26 53 -62 111 -95 146l-58 -21c21 -20 42 -51 59 -81h-179c-6 24 -15 45 -25 66
c105 34 229 88 296 130l-31 54c-66 -44 -192 -102 -299 -138c-22 24 -52 45 -88 62z" />
</svg>
