<?xml version="1.0" standalone="no"?>
<!DOCTYPE svg PUBLIC "-//W3C//DTD SVG 1.1//EN" "http://www.w3.org/Graphics/SVG/1.1/DTD/svg11.dtd" >
<svg xmlns="http://www.w3.org/2000/svg" xmlns:xlink="http://www.w3.org/1999/xlink" version="1.1" viewBox="-10 0 1010 1000">
   <path fill="currentColor"
d="M941 149h-767v356c0 142 -10 331 -89 452c-11 -12 -41 -33 -57 -41c72 -113 78 -279 78 -410v-421h835v64zM929 425l-27 50c-71 -42 -211 -100 -319 -135l13 -23h-68c-71 79 -175 128 -294 162c-7 -14 -27 -39 -39 -51c100 -23 186 -57 250 -111h-224v-56h276
c19 -27 34 -57 44 -90l63 7c-9 31 -21 58 -36 83h203c-24 -22 -63 -48 -95 -66l42 -31c37 18 82 48 106 69l-35 28h132v56h-246c93 32 195 75 254 108zM640 567h138c-75 -35 -147 -79 -202 -125c-52 48 -116 90 -185 125h174c-14 -19 -31 -38 -47 -54l58 -21
c22 22 49 52 64 75zM388 747h364v-48h-364v48zM752 610h-364v48h364v-48zM572 363l54 26c-4 4 -9 9 -13 15c84 70 230 138 350 168c-14 12 -32 36 -43 52c-32 -10 -67 -24 -102 -38v204h-230c50 15 103 31 155 50c43 -24 93 -55 122 -77l52 34c-35 22 -76 45 -115 64
c44 16 86 33 116 48l-34 45c-81 -41 -237 -98 -357 -133l26 -31h-165v93l231 -28c-2 15 -3 38 -3 51c-254 36 -285 41 -305 51c-4 -18 -16 -47 -26 -62c14 -7 34 -21 34 -57v-238c-32 14 -66 26 -99 36c-10 -15 -24 -38 -40 -51c151 -43 311 -122 392 -222z" />
</svg>
