<?xml version="1.0" standalone="no"?>
<!DOCTYPE svg PUBLIC "-//W3C//DTD SVG 1.1//EN" "http://www.w3.org/Graphics/SVG/1.1/DTD/svg11.dtd" >
<svg xmlns="http://www.w3.org/2000/svg" xmlns:xlink="http://www.w3.org/1999/xlink" version="1.1" viewBox="-10 0 1010 1000">
   <path fill="currentColor"
d="M545 317v-98h-99v-64h99v-105h64v105h156v-105h64v105h116v64h-116v98h-64v-98h-156v98h-64zM435 224l-42 52c-33 -37 -89 -89 -139 -132c-56 82 -127 157 -191 209c-6 -16 -21 -53 -29 -69c80 -58 169 -150 221 -248l47 29c-5 10 -11 18 -16 28c54 43 113 94 149 131z
M340 465v-81h-162v81h162zM178 602h162v-88h-162v88zM418 866l-56 27c-5 -17 -14 -38 -23 -61c-200 83 -228 97 -244 112v-2l-1 1c-5 -17 -19 -51 -31 -68c19 -9 47 -31 47 -70v-471h30v-1h103c-9 -26 -20 -57 -31 -81l53 -18c14 31 30 70 40 99h97v320h-224v178l138 -52
c-11 -25 -24 -50 -35 -71l54 -23c31 58 67 135 83 181zM957 470h-319c-3 30 -6 61 -10 92h264s0 22 -2 32c-15 205 -29 286 -56 315c-17 19 -35 25 -61 27c-24 2 -68 2 -114 -1c-1 -21 -8 -48 -19 -67c45 4 87 5 104 5c15 0 25 -2 34 -10c18 -18 29 -81 42 -237h-203
c-23 129 -70 254 -172 334c-11 -16 -32 -39 -46 -50c132 -97 163 -286 175 -440h-129v-64h226c-10 -28 -28 -70 -46 -101l57 -22c19 31 41 74 50 102l-46 21h271v64z" />
</svg>
