<?xml version="1.0" standalone="no"?>
<!DOCTYPE svg PUBLIC "-//W3C//DTD SVG 1.1//EN" "http://www.w3.org/Graphics/SVG/1.1/DTD/svg11.dtd" >
<svg xmlns="http://www.w3.org/2000/svg" xmlns:xlink="http://www.w3.org/1999/xlink" version="1.1" viewBox="-10 0 1010 1000">
   <path fill="currentColor"
d="M432 233l-48 50c-29 -38 -85 -94 -136 -139c-49 72 -113 137 -177 183c-6 -14 -24 -52 -35 -68c78 -53 157 -135 200 -221l63 21c-4 10 -10 21 -16 31c54 45 118 104 149 143zM320 388h-145v77h145v-77zM175 608h145v-87h-145v87zM279 709l56 -20c30 62 65 145 79 193
l-60 26c-4 -21 -13 -46 -23 -72c-180 74 -218 93 -235 105l-5 4c-6 -16 -20 -51 -32 -67c19 -9 48 -31 48 -70v-477h129c-10 -27 -22 -59 -33 -84l58 -18c15 32 33 73 42 102h83v334h-211v171l136 -52c-11 -27 -21 -52 -32 -75zM660 492v-143c-53 64 -127 124 -196 158
c-10 -16 -27 -41 -43 -54c73 -29 152 -90 202 -152h-173v-61h210v-85c-61 9 -122 15 -179 19c-2 -15 -12 -39 -19 -54c137 -12 304 -35 393 -65l52 51c-49 16 -109 29 -175 40v94h212v61h-170c52 58 128 118 190 149c-15 11 -36 34 -47 49c-60 -36 -132 -99 -185 -163v156
h-72zM788 657h-153c-15 29 -31 58 -46 82c40 14 82 31 123 49c36 -35 60 -78 76 -131zM636 498l67 12c-10 27 -23 57 -38 86h287v61h-93c-16 65 -44 118 -83 160c59 28 114 58 152 84l-47 52c-38 -28 -94 -60 -157 -91c-62 45 -145 75 -255 96c-7 -18 -20 -43 -31 -57
c93 -14 164 -37 219 -71c-54 -24 -111 -47 -162 -64l3 -3c21 -31 43 -67 65 -106h-118v-61h149c17 -33 32 -68 42 -98z" />
</svg>
