<?xml version="1.0" standalone="no"?>
<!DOCTYPE svg PUBLIC "-//W3C//DTD SVG 1.1//EN" "http://www.w3.org/Graphics/SVG/1.1/DTD/svg11.dtd" >
<svg xmlns="http://www.w3.org/2000/svg" xmlns:xlink="http://www.w3.org/1999/xlink" version="1.1" viewBox="-10 0 1010 1000">
   <path fill="currentColor"
d="M425 233l-48 50c-28 -38 -84 -94 -135 -139c-49 73 -112 137 -175 184c-5 -15 -24 -53 -35 -69c78 -53 155 -134 199 -221l62 21c-4 11 -10 22 -16 31c54 45 117 104 148 143zM313 388h-142v77h142v-77zM171 608h142v-87h-142v87zM273 709l56 -20c30 62 65 145 78 193
l-59 26c-5 -20 -13 -45 -23 -72c-178 74 -216 93 -233 105l-5 4c-6 -16 -19 -51 -31 -67c18 -9 47 -31 47 -70v-477h127c-9 -27 -22 -59 -33 -84l59 -18c15 32 32 73 41 102h83v334h-209v170l134 -51c-11 -27 -21 -52 -32 -75zM563 245h217c6 -29 11 -58 15 -83h-210
c-7 29 -15 58 -22 83zM894 469l48 44c-30 22 -65 43 -102 64c21 113 62 219 126 270c-16 12 -35 36 -45 53c-68 -60 -109 -172 -131 -296c-18 10 -36 18 -53 26c50 124 32 256 -18 297c-25 24 -47 30 -83 30c-17 1 -38 0 -60 -1c-1 -19 -6 -45 -17 -65c25 4 47 5 65 5
c19 0 36 -2 49 -19c21 -20 34 -75 25 -141c-70 69 -169 136 -255 173c-10 -16 -26 -39 -41 -52c100 -34 220 -113 282 -187c-7 -21 -14 -41 -25 -61c-54 48 -131 97 -194 126c-8 -15 -25 -38 -38 -51c67 -23 152 -73 203 -121c-11 -16 -24 -30 -39 -45
c-43 30 -89 56 -132 76c-9 -12 -28 -39 -40 -51c71 -29 148 -72 205 -122h-205v-62h338c4 -19 8 -39 12 -60h-287c22 -68 47 -176 62 -259l68 8c-4 19 -9 39 -14 60h212l11 -4l48 8c-11 73 -29 167 -45 247h137v62h-256c-20 22 -43 43 -68 63c32 28 57 61 77 96
c63 -33 135 -77 180 -111z" />
</svg>
