<?xml version="1.0" standalone="no"?>
<!DOCTYPE svg PUBLIC "-//W3C//DTD SVG 1.1//EN" "http://www.w3.org/Graphics/SVG/1.1/DTD/svg11.dtd" >
<svg xmlns="http://www.w3.org/2000/svg" xmlns:xlink="http://www.w3.org/1999/xlink" version="1.1" viewBox="-10 0 1010 1000">
   <path fill="currentColor"
d="M429 234l-48 50c-29 -38 -84 -95 -135 -139c-49 72 -112 137 -175 183c-6 -15 -24 -52 -36 -69c79 -53 156 -135 200 -221l62 20c-4 11 -10 22 -16 32c54 45 117 104 148 144zM471 644h60v147h288v55h-348v-202zM678 564l56 7c-6 25 -15 49 -26 70c42 31 89 70 112 96
l-38 39c-23 -24 -62 -59 -99 -90c-26 38 -57 68 -94 92c-8 -10 -27 -31 -39 -41c63 -38 108 -99 128 -173zM175 608h142v-87h-142v87zM317 388h-142v77h142v-77zM301 331h83v334h-209v169l133 -51c-10 -25 -21 -52 -32 -74l57 -21c30 63 65 145 77 193l-59 27
c-4 -21 -12 -46 -23 -73c-177 75 -215 93 -232 106l-5 4c-6 -17 -19 -51 -32 -68c19 -8 48 -30 48 -69v-477h127c-9 -27 -22 -59 -33 -84l59 -18c15 31 32 73 41 102zM544 275v82h281v-82h-281zM544 140v81h281v-81h-281zM939 488v31c-12 284 -23 376 -47 409
c-16 19 -33 25 -57 27c-22 3 -58 2 -94 0c-1 -16 -7 -39 -16 -54c35 3 66 4 79 4c14 0 21 -2 28 -12c17 -22 28 -108 38 -345h-320c-33 43 -71 85 -119 122c-11 -15 -32 -37 -48 -47c84 -59 141 -141 171 -209h-79v-331h422v331h-330l56 9c-10 21 -22 44 -34 65h350z" />
</svg>
