<?xml version="1.0" standalone="no"?>
<!DOCTYPE svg PUBLIC "-//W3C//DTD SVG 1.1//EN" "http://www.w3.org/Graphics/SVG/1.1/DTD/svg11.dtd" >
<svg xmlns="http://www.w3.org/2000/svg" xmlns:xlink="http://www.w3.org/1999/xlink" version="1.1" viewBox="-10 0 1010 1000">
   <path fill="currentColor"
d="M426 233l-48 50c-28 -38 -84 -94 -135 -139c-49 73 -112 137 -175 183c-5 -15 -24 -52 -35 -68c78 -53 155 -134 199 -221l62 21c-4 11 -10 22 -16 31c54 46 117 104 148 143zM314 388h-142v77h142v-77zM172 608h142v-87h-142v87zM275 709l57 -20c29 62 65 145 78 193
l-60 26c-4 -21 -13 -46 -23 -73c-179 75 -217 94 -234 106l-5 4c-5 -16 -19 -51 -31 -67c19 -9 47 -31 47 -70v-477h127c-9 -27 -21 -59 -32 -84l58 -18c15 31 33 73 42 102h82v334h-209v170l135 -52c-11 -26 -21 -51 -32 -74zM652 581h-120v108h120v-108zM833 689v-108
h-123v108h123zM710 854h123v-108h-123v108zM532 854h120v-108h-120v108zM466 955v-433h434v433h-67v-42h-301v42h-66zM725 184v-16h-68v-56c-46 20 -101 36 -153 50v218l90 -42c-13 -33 -27 -68 -41 -99l51 -14c28 56 59 133 74 179c37 -75 47 -158 47 -220zM930 110v28
c-6 219 -11 294 -30 319c-12 17 -26 24 -47 26c-17 1 -48 2 -77 0c-1 -18 -6 -42 -15 -57c29 3 53 3 64 3s18 -1 23 -11c10 -14 16 -77 21 -250h-87v18c0 90 -20 220 -97 316c-10 -11 -35 -29 -49 -35c14 -17 27 -35 37 -55l-47 18c-3 -12 -8 -24 -13 -39
c-113 56 -146 73 -163 87l-7 7v-1l-1 1v-4c-7 -19 -19 -50 -27 -66c12 -8 27 -25 27 -64v-232c65 -19 141 -45 187 -71l42 58l-9 4h268z" />
</svg>
