<?xml version="1.0" standalone="no"?>
<!DOCTYPE svg PUBLIC "-//W3C//DTD SVG 1.1//EN" "http://www.w3.org/Graphics/SVG/1.1/DTD/svg11.dtd" >
<svg xmlns="http://www.w3.org/2000/svg" xmlns:xlink="http://www.w3.org/1999/xlink" version="1.1" viewBox="-10 0 1010 1000">
   <path fill="currentColor"
d="M361 232l-42 50c-22 -35 -67 -88 -109 -131c-41 74 -92 141 -147 189c-5 -16 -20 -51 -30 -66c68 -56 131 -143 165 -235l56 18c-5 13 -11 27 -16 39c45 44 98 99 123 136zM270 388h-118v77h118v-77zM152 608h118v-87h-118v87zM227 714l51 -18c27 65 57 150 69 200
l-54 24c-5 -22 -12 -49 -21 -79c-138 66 -174 86 -190 98l-7 6c-5 -16 -17 -51 -29 -67c18 -9 46 -31 46 -70v-477h106c-9 -26 -19 -55 -29 -80l52 -13c14 28 28 65 37 93h72v334h-178v169l102 -46c-9 -25 -18 -50 -27 -74zM470 225v107h81v-107h-81zM662 332v60h-313v-60
h64v-107h-52v-61h52v-120h57v120h81v-120h59v120h43v61h-43v107h52zM640 480v394c0 11 0 21 -2 28c59 -46 104 -114 139 -201c-26 -76 -45 -161 -58 -253c-13 29 -27 56 -43 80c-6 -10 -23 -34 -36 -48zM867 286h-98c-4 18 -8 34 -13 51c12 96 28 189 53 271
c28 -94 46 -204 58 -322zM444 714h135v-80h-135v80zM579 504h-135v75h135v-75zM959 286h-36c-15 154 -40 297 -83 417c34 80 75 145 129 189c-16 12 -37 38 -47 57c-46 -43 -83 -99 -114 -166c-32 70 -74 129 -123 172c-12 -17 -31 -37 -48 -50c-3 12 -9 21 -21 28
c-19 11 -48 12 -88 11c-2 -17 -10 -41 -17 -59c27 1 49 1 57 1c9 -1 11 -3 11 -12v-105h-135v181h-60v-505h256v23c61 -103 87 -259 104 -423l61 6c-6 57 -14 114 -23 167h177v68z" />
</svg>
