<?xml version="1.0" standalone="no"?>
<!DOCTYPE svg PUBLIC "-//W3C//DTD SVG 1.1//EN" "http://www.w3.org/Graphics/SVG/1.1/DTD/svg11.dtd" >
<svg xmlns="http://www.w3.org/2000/svg" xmlns:xlink="http://www.w3.org/1999/xlink" version="1.1" viewBox="-10 0 1010 1000">
   <path fill="currentColor"
d="M535 224h119v-68h-119v68zM848 156h-126v68h126v-68zM956 324v55h-531v-55h229v-51h-183v-165h183v-66h68v66h192v165h-192v51h234zM543 680v61h296v-61h-296zM543 575v59h296v-59h-296zM543 472v57h296v-57h-296zM909 788h-434v-364h434v364zM425 233l-48 50
c-28 -38 -84 -94 -135 -139c-50 72 -112 137 -175 183c-5 -15 -23 -52 -34 -69c77 -52 154 -134 198 -220l62 21c-5 10 -10 21 -16 31c54 45 117 104 148 143zM313 388h-142v77h142v-77zM171 608h142v-87h-142v87zM408 868l-57 28c-5 -17 -12 -39 -22 -62
c-181 76 -219 94 -237 107l-5 4c-6 -16 -19 -51 -31 -67c18 -9 47 -31 47 -70v-477h127c-9 -27 -22 -59 -33 -84l59 -18c15 31 32 73 41 102h83v334h-209v170l136 -52c-11 -26 -22 -51 -34 -74l53 -23c31 58 68 136 82 182zM581 801l66 23c-50 53 -134 104 -205 134
c-11 -13 -36 -39 -51 -52c70 -24 147 -63 190 -105zM735 831l45 -37c66 40 141 90 186 126l-56 38c-41 -37 -113 -88 -175 -127z" />
</svg>
