<?xml version="1.0" standalone="no"?>
<!DOCTYPE svg PUBLIC "-//W3C//DTD SVG 1.1//EN" "http://www.w3.org/Graphics/SVG/1.1/DTD/svg11.dtd" >
<svg xmlns="http://www.w3.org/2000/svg" xmlns:xlink="http://www.w3.org/1999/xlink" version="1.1" viewBox="-10 0 1010 1000">
   <path fill="currentColor"
d="M654 240v-59h-215v-55h215v-81h72v81h217v55h-217v59h189v54h-443v-54h182zM498 405v81h-59v-136h510v136h-61v-81h-390zM834 690v-78h-283v78h283zM903 562v177h-419v-177h419zM640 853l-63 18c-7 -29 -24 -74 -39 -109l61 -15c16 34 32 77 41 106zM519 462h354v51h-354
v-51zM435 236l-47 50c-29 -39 -86 -96 -138 -142c-50 72 -113 137 -176 183c-5 -15 -24 -52 -34 -69c77 -52 155 -134 198 -220l62 21c-5 10 -10 20 -16 31c56 45 119 106 151 146zM319 388h-146v77h146v-77zM173 608h146v-87h-146v87zM278 705l55 -21c30 62 65 144 79 193
l-60 27c-4 -20 -13 -45 -22 -71c-181 76 -218 94 -236 108l-5 4c-6 -17 -19 -51 -31 -68c18 -9 47 -30 47 -69v-477h132c-9 -27 -22 -59 -33 -84l58 -18c15 31 33 73 42 102h81v334h-212v169l137 -53c-11 -26 -21 -53 -32 -76zM800 875h156v58h-538v-58h313
c20 -39 40 -92 53 -129l70 13c-17 40 -36 82 -54 116z" />
</svg>
