<?xml version="1.0" standalone="no"?>
<!DOCTYPE svg PUBLIC "-//W3C//DTD SVG 1.1//EN" "http://www.w3.org/Graphics/SVG/1.1/DTD/svg11.dtd" >
<svg xmlns="http://www.w3.org/2000/svg" xmlns:xlink="http://www.w3.org/1999/xlink" version="1.1" viewBox="-10 0 1010 1000">
   <path fill="currentColor"
d="M547 249v-64h-146v-57h146v-83h64v83h135v-83h65v83h133v57h-133v64h-65v-64h-135v64h-64zM941 413h-62v-88h-399v88h-61v-144h522v144zM846 438h-333v-54h333v54zM402 232l-46 49c-26 -37 -77 -91 -124 -135c-47 71 -107 136 -167 182c-6 -15 -22 -52 -33 -69
c73 -53 147 -134 189 -220l60 20c-5 11 -11 22 -17 33c51 43 109 101 138 140zM298 388h-134v77h134v-77zM164 608h134v-87h-134v87zM259 709l55 -19c27 63 58 146 70 195l-58 23c-5 -20 -12 -44 -20 -71c-146 64 -191 86 -211 99l-11 9v-1l-1 1v-5c-6 -17 -18 -47 -28 -62
c17 -9 45 -31 45 -70v-477h119c-9 -27 -20 -59 -31 -84l55 -18c15 31 31 73 39 102h80v334h-198v170l124 -50c-10 -27 -19 -52 -29 -76zM887 561l43 47c-33 22 -72 43 -112 63c27 89 76 168 147 203c-15 12 -35 37 -45 55c-76 -45 -125 -132 -154 -233c-16 7 -32 15 -48 22
c35 87 23 175 -19 211c-25 23 -48 29 -81 29c-17 0 -40 -1 -63 -2c-1 -16 -6 -41 -16 -57c25 2 50 3 66 3c19 0 34 -1 47 -14c22 -16 32 -60 23 -112c-70 60 -173 120 -262 153c-5 -14 -19 -37 -30 -49c96 -28 212 -92 277 -154c-6 -14 -13 -29 -22 -42
c-59 44 -149 91 -222 117c-6 -14 -18 -34 -29 -45c74 -20 170 -64 226 -106c-9 -12 -20 -22 -33 -32c-51 28 -107 52 -159 71c-6 -12 -23 -36 -34 -47c75 -22 158 -55 219 -95h-205v-55h543v55h-259c-18 15 -37 30 -59 42c28 25 51 52 69 81c66 -32 143 -75 192 -109z" />
</svg>
