<?xml version="1.0" standalone="no"?>
<!DOCTYPE svg PUBLIC "-//W3C//DTD SVG 1.1//EN" "http://www.w3.org/Graphics/SVG/1.1/DTD/svg11.dtd" >
<svg xmlns="http://www.w3.org/2000/svg" xmlns:xlink="http://www.w3.org/1999/xlink" version="1.1" viewBox="-10 0 1010 1000">
   <path fill="currentColor"
d="M946 118v58h-539v-58h244c-8 -22 -19 -45 -30 -64l58 -18c15 24 30 57 39 82h228zM410 234l-47 49c-28 -38 -81 -93 -130 -138c-47 72 -108 136 -168 182c-5 -14 -22 -51 -33 -68c74 -53 149 -134 191 -220l59 20c-4 11 -10 21 -15 32c51 44 112 104 143 143zM302 388
h-137v77h137v-77zM165 608h137v-87h-137v87zM263 709l53 -21c29 63 63 145 76 193l-57 27c-4 -21 -12 -46 -22 -74c-169 75 -206 93 -223 107l-5 4c-5 -17 -18 -51 -30 -68c18 -8 46 -30 46 -69v-477h121c-9 -27 -20 -58 -31 -84l55 -17c15 31 31 72 40 101h80v334h-201v170
l128 -51c-10 -26 -20 -52 -30 -75zM602 591v54h143v-54h-143zM602 488v53h143v-53h-143zM497 261v77h100v-77h-100zM757 261v77h104v-77h-104zM900 713l39 38c-35 26 -78 50 -116 69c40 36 88 63 143 78c-14 14 -30 37 -39 54c-121 -40 -205 -131 -250 -253h-13
c-23 25 -54 48 -86 69v102l141 -29c-1 18 1 43 2 57c-165 39 -190 48 -205 58c-5 -14 -21 -37 -31 -48c14 -11 37 -36 37 -80v-28c-37 19 -76 35 -113 49c-7 -12 -24 -38 -36 -49c77 -23 157 -57 215 -101h-193v-54h145v-54h-99v-50h99v-53h-116v-50h116v-54h-97v-168h210
v168h-51v54h143v-54h-41v-168h213v168h-108v54h127v50h-127v53h109v50h-109v54h147v54h-220c14 30 32 59 53 84c39 -21 84 -49 111 -70z" />
</svg>
