<?xml version="1.0" standalone="no"?>
<!DOCTYPE svg PUBLIC "-//W3C//DTD SVG 1.1//EN" "http://www.w3.org/Graphics/SVG/1.1/DTD/svg11.dtd" >
<svg xmlns="http://www.w3.org/2000/svg" xmlns:xlink="http://www.w3.org/1999/xlink" version="1.1" viewBox="-10 0 1010 1000">
   <path fill="currentColor"
d="M318 268h-138c-24 81 -52 154 -86 211c-13 -12 -43 -36 -59 -47c60 -93 97 -239 118 -386l72 13c-8 48 -17 95 -27 141h148l12 -4l49 16c-24 73 -55 157 -85 208l-58 -20c18 -34 38 -84 54 -132zM241 804l108 -72c5 19 16 46 22 60c-172 119 -198 138 -213 157
c-7 -17 -27 -46 -40 -60c19 -13 54 -47 54 -92v-398h69v405zM560 366h377s-1 25 -2 35c-21 349 -43 470 -78 512c-19 22 -38 30 -66 33c-23 3 -63 2 -105 0c-1 -20 -8 -49 -18 -67c40 4 77 4 95 4c16 1 24 -2 34 -14c27 -28 48 -142 67 -435h-74c-66 234 -180 410 -343 524
c-13 -12 -43 -35 -61 -45c162 -101 271 -268 331 -479h-99c-39 125 -109 232 -193 302c-11 -11 -39 -32 -55 -42c79 -60 142 -152 177 -260h-37c-46 0 -78 4 -87 12c-4 -17 -19 -52 -30 -71c28 -3 68 -24 110 -50c35 -20 138 -87 232 -164h-339v-71h425l16 -7l55 43
c-114 96 -225 178 -332 240z" />
</svg>
