<?xml version="1.0" standalone="no"?>
<!DOCTYPE svg PUBLIC "-//W3C//DTD SVG 1.1//EN" "http://www.w3.org/Graphics/SVG/1.1/DTD/svg11.dtd" >
<svg xmlns="http://www.w3.org/2000/svg" xmlns:xlink="http://www.w3.org/1999/xlink" version="1.1" viewBox="-10 0 1010 1000">
   <path fill="currentColor"
d="M240 806l129 -83c5 18 15 46 22 60c-189 127 -217 146 -234 166v1c-7 -16 -25 -43 -38 -56c19 -13 53 -46 53 -92v-392h68v396zM348 200l12 -4l50 15c-24 75 -54 160 -84 213l-59 -21c19 -34 38 -86 53 -135h-144c-26 81 -57 154 -93 211c-13 -13 -41 -37 -58 -47
c65 -93 107 -238 130 -386l71 14c-9 48 -19 95 -30 140h152zM759 881h65c17 0 33 -1 42 -4c8 -2 17 -9 21 -23c3 -15 6 -48 7 -92c18 15 44 27 67 34c-1 39 -6 87 -15 106c-8 21 -21 33 -42 39c-19 7 -47 10 -73 10h-87c-24 0 -55 -6 -76 -19c-21 -15 -32 -33 -32 -118v-137
h-199v-338h71v269h128v-362h-222v-69h222v-132h73v132h242v69h-242v362h129v-269h70v405h-70v-67h-129v144c0 30 4 49 15 55c11 3 20 5 35 5z" />
</svg>
