<?xml version="1.0" standalone="no"?>
<!DOCTYPE svg PUBLIC "-//W3C//DTD SVG 1.1//EN" "http://www.w3.org/Graphics/SVG/1.1/DTD/svg11.dtd" >
<svg xmlns="http://www.w3.org/2000/svg" xmlns:xlink="http://www.w3.org/1999/xlink" version="1.1" viewBox="-10 0 1010 1000">
   <path fill="currentColor"
d="M325 263h-148c-24 82 -53 156 -88 214c-12 -12 -40 -35 -56 -45c62 -94 99 -239 120 -386l69 13c-8 48 -17 95 -28 141h157l12 -4l48 16c-22 73 -52 156 -81 208l-57 -21c18 -35 38 -86 52 -136zM240 802l120 -88c5 19 16 48 23 62c-172 130 -197 151 -212 170v1
c-7 -13 -27 -39 -40 -50c17 -14 42 -48 42 -97v-402h67v404zM943 243h-232v173h209v320c0 35 -6 55 -31 67c-24 13 -62 13 -118 13c-3 -20 -12 -48 -21 -69c42 1 74 1 85 1s14 -3 14 -14v-250h-138v472h-74v-472h-134v337h-70v-405h204v-173h-108c-24 51 -51 96 -79 133
c-14 -11 -44 -30 -62 -39c62 -71 110 -182 137 -293l71 15c-11 40 -24 78 -38 115h385v69z" />
</svg>
