<?xml version="1.0" standalone="no"?>
<!DOCTYPE svg PUBLIC "-//W3C//DTD SVG 1.1//EN" "http://www.w3.org/Graphics/SVG/1.1/DTD/svg11.dtd" >
<svg xmlns="http://www.w3.org/2000/svg" xmlns:xlink="http://www.w3.org/1999/xlink" version="1.1" viewBox="-10 0 1010 1000">
   <path fill="currentColor"
d="M347 268h-166c-25 81 -58 155 -95 210c-12 -12 -41 -35 -59 -47c67 -93 110 -237 135 -385l71 13c-8 48 -19 95 -32 141h172l12 -4l50 16c-21 74 -50 158 -77 211l-60 -20c17 -35 35 -86 49 -135zM260 801l134 -86c5 21 15 48 21 63c-194 128 -222 149 -237 168
c-7 -16 -25 -42 -38 -54c19 -13 51 -43 51 -90v-420h69v419zM554 586v162c76 -9 163 -20 251 -31v-131h-251zM805 172h-251v143h251v-143zM554 380v142h251v-142h-251zM950 767l-73 10v181h-72v-171c-141 18 -278 36 -380 49l-10 -72l67 -7v-585h-61v-70h520v70h-64v537
l72 -9z" />
</svg>
