<?xml version="1.0" standalone="no"?>
<!DOCTYPE svg PUBLIC "-//W3C//DTD SVG 1.1//EN" "http://www.w3.org/Graphics/SVG/1.1/DTD/svg11.dtd" >
<svg xmlns="http://www.w3.org/2000/svg" xmlns:xlink="http://www.w3.org/1999/xlink" version="1.1" viewBox="-10 0 1010 1000">
   <path fill="currentColor"
d="M869 58l43 56c-130 41 -345 62 -519 71c-2 -16 -11 -40 -19 -57c173 -11 382 -33 495 -70zM808 406l-54 -27c27 -52 64 -138 82 -198l65 30c-28 66 -63 145 -93 195zM704 357l-63 20c-6 -41 -28 -109 -50 -160l59 -15c23 50 47 115 54 155zM527 384l-65 21
c-9 -44 -36 -114 -63 -166l61 -18c28 51 57 121 67 163zM295 268h-123c-24 80 -53 153 -88 209c-12 -12 -40 -35 -57 -45c63 -93 102 -239 123 -386l69 12c-8 48 -17 96 -28 142h131l13 -4l49 16c-22 75 -53 159 -82 212l-59 -21c18 -34 37 -86 52 -135zM240 805l113 -72
c5 19 14 48 21 62c-174 117 -201 136 -217 155c-7 -15 -25 -43 -38 -56c19 -12 53 -46 53 -92v-392h68v395zM771 572h-178c-21 42 -41 81 -61 116c47 20 95 42 140 63c46 -47 78 -106 99 -179zM956 572h-115c-22 86 -56 156 -106 212c73 39 140 78 189 114l-52 57
c-49 -38 -116 -80 -190 -121c-76 59 -179 99 -316 124c-4 -19 -19 -44 -33 -60c122 -18 214 -51 283 -99c-58 -29 -118 -56 -179 -82c25 -39 55 -91 82 -145h-144v-66h176c19 -42 36 -84 49 -122l68 10c-12 36 -27 74 -45 112h333v66z" />
</svg>
