<?xml version="1.0" standalone="no"?>
<!DOCTYPE svg PUBLIC "-//W3C//DTD SVG 1.1//EN" "http://www.w3.org/Graphics/SVG/1.1/DTD/svg11.dtd" >
<svg xmlns="http://www.w3.org/2000/svg" xmlns:xlink="http://www.w3.org/1999/xlink" version="1.1" viewBox="-10 0 1010 1000">
   <path fill="currentColor"
d="M642 450v-187c-54 85 -131 163 -205 208c-11 -18 -33 -42 -48 -55c71 -37 148 -108 198 -183h-164v-66h219v-119h73v119h217v66h-167c50 72 125 141 194 178c-15 13 -38 37 -50 54c-68 -43 -143 -119 -194 -200v185h-73zM809 527h-277v76h277v-76zM532 734h277v-77h-277
v77zM464 788v-321h415v321h-415zM309 265h-132c-24 81 -52 155 -87 212c-12 -12 -41 -36 -56 -45c62 -94 99 -239 120 -386l69 13c-8 48 -17 95 -28 141h141l12 -4l49 16c-23 75 -53 159 -82 213l-58 -20c18 -36 37 -89 52 -140zM241 790l113 -93c7 20 18 48 27 61
c-168 140 -196 167 -211 187v3l-1 -1v-1c-9 -16 -28 -41 -40 -51c17 -14 42 -49 42 -98v-398h70v391zM387 924v-64h564v64h-564z" />
</svg>
