<?xml version="1.0" standalone="no"?>
<!DOCTYPE svg PUBLIC "-//W3C//DTD SVG 1.1//EN" "http://www.w3.org/Graphics/SVG/1.1/DTD/svg11.dtd" >
<svg xmlns="http://www.w3.org/2000/svg" xmlns:xlink="http://www.w3.org/1999/xlink" version="1.1" viewBox="-10 0 1010 1000">
   <path fill="currentColor"
d="M300 268h-127c-26 80 -57 152 -93 208c-11 -12 -40 -35 -55 -45c64 -93 106 -237 129 -384l69 12c-9 48 -20 96 -31 141h136l11 -4l46 16c-22 72 -54 155 -83 207l-55 -20c18 -34 38 -84 53 -131zM227 809l120 -79c5 20 15 48 22 62c-177 122 -204 141 -220 161
c-8 -16 -28 -43 -41 -56c18 -13 51 -45 51 -92v-401h68v405zM810 653h-318c39 55 94 102 160 139c65 -36 120 -82 158 -139zM867 586l44 23c-41 93 -108 164 -191 217c72 32 153 54 239 68c-16 15 -34 42 -44 61c-97 -19 -186 -48 -265 -89c-93 46 -199 75 -309 93
c-6 -18 -20 -46 -32 -61c97 -13 192 -36 275 -73c-68 -46 -126 -102 -167 -169l7 -3h-44v-63h233v-97h-221v-341h1c57 -19 123 -47 160 -72l53 49c-44 24 -97 44 -149 60v90h108v57h-108v95h156v-386h68v386h164v-95h-120v-57h120v-91h-125v-62h192v367h-231v97h173z" />
</svg>
