<?xml version="1.0" standalone="no"?>
<!DOCTYPE svg PUBLIC "-//W3C//DTD SVG 1.1//EN" "http://www.w3.org/Graphics/SVG/1.1/DTD/svg11.dtd" >
<svg xmlns="http://www.w3.org/2000/svg" xmlns:xlink="http://www.w3.org/1999/xlink" version="1.1" viewBox="-10 0 1010 1000">
   <path fill="currentColor"
d="M626 291v-88h-182v-61h182v-98h70v98h198v61h-198v88h251v63h-312c-32 44 -76 102 -110 145l289 -10c-26 -32 -55 -64 -83 -91l53 -31c58 55 125 132 154 185l-57 35c-7 -14 -15 -28 -27 -44c-369 15 -409 17 -434 25c-4 -17 -15 -50 -22 -66c17 -4 47 -11 63 -28
c18 -16 66 -79 96 -120h-169v-63h238zM305 268h-137c-24 81 -53 155 -88 212c-11 -13 -39 -37 -55 -48c61 -93 100 -238 121 -386l68 14c-8 48 -17 95 -28 140h146l10 -4l47 16c-22 73 -52 157 -80 209l-55 -21c18 -34 37 -84 51 -132zM231 801l108 -74c5 18 14 44 21 58
c-117 84 -166 119 -189 140l-21 22c-8 -17 -25 -48 -37 -63c19 -13 53 -44 53 -87v-392h65v396zM492 675v192h80v-192h-80zM705 675h-81v192h81v-192zM840 675h-82v192h82v-192zM901 867h55v63h-595v-63h72v-252h468v252z" />
</svg>
