<?xml version="1.0" standalone="no"?>
<!DOCTYPE svg PUBLIC "-//W3C//DTD SVG 1.1//EN" "http://www.w3.org/Graphics/SVG/1.1/DTD/svg11.dtd" >
<svg xmlns="http://www.w3.org/2000/svg" xmlns:xlink="http://www.w3.org/1999/xlink" version="1.1" viewBox="-10 0 1010 1000">
   <path fill="currentColor"
d="M306 263h-131c-23 81 -52 154 -88 211c-10 -12 -38 -33 -53 -43c61 -94 98 -238 120 -385l66 12c-8 48 -17 96 -29 142h141l12 -4l46 16c-22 72 -52 155 -81 207l-56 -20c19 -35 38 -86 53 -136zM223 806l121 -86c4 19 15 47 23 59c-167 124 -196 147 -211 165v3l-1 -1
v-1c-9 -13 -27 -37 -38 -47c15 -14 40 -47 40 -96v-402h66v406zM659 408l-54 19c-3 -13 -8 -29 -14 -46c-143 75 -166 89 -181 104c-7 -14 -25 -39 -35 -50c12 -11 31 -35 31 -82v-234c65 -18 142 -45 187 -70l41 57c-48 21 -108 41 -165 55v218l102 -52
c-12 -31 -25 -63 -37 -91l50 -14c28 60 62 140 75 186zM623 581h-140v106h140v-106zM829 687v-106h-147v106h147zM682 854h147v-110h-147v110zM483 854h140v-110h-140v110zM417 955v-433h480v433h-68v-42h-346v42h-66zM925 110v28c-5 219 -11 294 -30 319
c-11 17 -26 24 -47 26c-17 1 -48 2 -77 0c0 -18 -6 -42 -15 -57c29 3 53 3 64 3s18 -1 23 -11c10 -14 16 -77 21 -250h-90v18c0 91 -23 221 -111 318c-10 -12 -33 -30 -46 -37c81 -88 100 -202 100 -283v-16h-71v-58h279z" />
</svg>
