<?xml version="1.0" standalone="no"?>
<!DOCTYPE svg PUBLIC "-//W3C//DTD SVG 1.1//EN" "http://www.w3.org/Graphics/SVG/1.1/DTD/svg11.dtd" >
<svg xmlns="http://www.w3.org/2000/svg" xmlns:xlink="http://www.w3.org/1999/xlink" version="1.1" viewBox="-10 0 1010 1000">
   <path fill="currentColor"
d="M310 267h-141c-25 79 -54 150 -89 206c-12 -10 -38 -32 -54 -42c64 -93 104 -238 126 -385l66 12c-8 48 -18 95 -30 141h151l10 -3l47 15c-23 73 -53 156 -82 207l-56 -19c19 -34 38 -84 52 -132zM233 802l111 -75c4 19 14 46 22 59c-171 120 -198 140 -213 160
c-7 -16 -24 -46 -37 -59c19 -12 52 -44 52 -88v-393h65v396zM794 762h-142c-6 40 -12 77 -18 108h149c4 -34 8 -71 11 -108zM806 618h-134c-4 27 -7 57 -12 86h139c3 -31 5 -61 7 -86zM848 870h109v59h-557v-59h170c7 -31 13 -69 19 -108h-101v-58h110c4 -29 8 -59 11 -86
h-76v-18c-39 61 -85 114 -137 158c-10 -13 -37 -35 -51 -46c72 -55 129 -127 173 -216h-143v-59h169c11 -25 20 -51 29 -78h-150v-57h165c6 -22 12 -46 17 -69h-205v-59h119c-9 -29 -30 -73 -53 -104l65 -22c24 32 48 76 57 105l-54 21h173c25 -38 55 -95 71 -134l72 22
c-22 38 -48 79 -70 112h149v59h-257c-5 23 -11 47 -17 69h250v57h-265c-8 27 -17 53 -27 78h330v59h-355c-9 22 -20 43 -32 64h260l12 -4l47 6c-4 86 -16 210 -27 308z" />
</svg>
