<?xml version="1.0" standalone="no"?>
<!DOCTYPE svg PUBLIC "-//W3C//DTD SVG 1.1//EN" "http://www.w3.org/Graphics/SVG/1.1/DTD/svg11.dtd" >
<svg xmlns="http://www.w3.org/2000/svg" xmlns:xlink="http://www.w3.org/1999/xlink" version="1.1" viewBox="-10 0 1010 1000">
   <path fill="currentColor"
d="M942 168l-54 30c-17 -35 -58 -85 -97 -119l52 -27c40 33 82 80 99 116zM216 192l-59 27c-11 -40 -41 -100 -71 -144l55 -21c32 43 63 100 75 138zM316 516v-84h-168v84h168zM148 810h168v-93h-168v93zM148 572v89h168v-89h-168zM328 52l69 18c-25 51 -51 108 -76 152h93
v64h-149c-11 29 -23 60 -33 86h149v546h-65v-49h-168v63h-63v-560h84c9 -27 20 -58 28 -86h-150v-64h205c27 -49 58 -120 76 -170zM692 683l6 62c-96 23 -193 43 -269 61l-14 -69c70 -12 172 -33 277 -54zM608 574v-141h-101v141h101zM452 373h213v261h-213v-261zM871 393
l66 28c-31 110 -75 206 -129 289c17 98 41 156 73 158c16 1 27 -48 32 -128c13 14 40 33 53 40c-20 138 -53 176 -86 175c-60 -2 -98 -64 -125 -173c-54 67 -117 123 -183 165c-11 -12 -32 -31 -48 -42c81 -51 155 -121 215 -210c-17 -112 -26 -255 -31 -421h-267v-67h266
c-2 -52 -2 -106 -3 -162h68c0 56 0 110 1 162h183v67h-182c4 125 10 237 20 329c32 -64 58 -134 77 -210z" />
</svg>
