<?xml version="1.0" standalone="no"?>
<!DOCTYPE svg PUBLIC "-//W3C//DTD SVG 1.1//EN" "http://www.w3.org/Graphics/SVG/1.1/DTD/svg11.dtd" >
<svg xmlns="http://www.w3.org/2000/svg" xmlns:xlink="http://www.w3.org/1999/xlink" version="1.1" viewBox="-10 0 1010 1000">
   <path fill="currentColor"
d="M909 193l-52 41c-28 -37 -86 -100 -130 -145l49 -35c45 43 104 103 133 139zM223 522v-183c-44 78 -102 156 -159 199c-7 -19 -21 -48 -32 -65c55 -39 116 -109 157 -179h-135v-65h169v-82c-49 6 -99 11 -146 14c-2 -16 -10 -41 -17 -56c116 -10 256 -27 332 -54l48 53
c-43 14 -96 26 -153 34v91h154v65h-153c44 33 149 118 176 143l-42 55c-27 -29 -87 -87 -135 -130v160h-64zM836 498h-200c23 79 57 152 100 213c43 -59 77 -130 100 -213zM164 842h193v-95h-193v95zM357 604h-193v89h193v-89zM873 431l40 19c-27 128 -75 231 -134 313
c52 58 114 103 188 131c-15 14 -33 42 -43 61c-74 -32 -136 -79 -188 -139c-55 61 -119 107 -188 141c-7 -18 -27 -48 -40 -60c70 -32 133 -76 186 -135c-35 -50 -64 -109 -89 -174c-24 139 -66 265 -140 354c-10 -14 -27 -29 -43 -39v32h-65v-34h-193v38h-63v-393h321v334
c101 -131 134 -342 146 -558h-94v-67h96c3 -72 4 -142 4 -211h66c-1 69 -2 139 -4 211h315v67h-318c-2 38 -5 75 -8 112h235z" />
</svg>
