<?xml version="1.0" standalone="no"?>
<!DOCTYPE svg PUBLIC "-//W3C//DTD SVG 1.1//EN" "http://www.w3.org/Graphics/SVG/1.1/DTD/svg11.dtd" >
<svg xmlns="http://www.w3.org/2000/svg" xmlns:xlink="http://www.w3.org/1999/xlink" version="1.1" viewBox="-10 0 1010 1000">
   <path fill="currentColor"
d="M350 604h-189v89h189v-89zM161 842h189v-95h-189v95zM99 939v-393h315v389h-64v-34h-189v38h-62zM436 294h-151c44 34 146 119 172 143l-41 55c-27 -29 -85 -87 -132 -130v160h-63v-183c-43 80 -101 156 -158 199c-6 -19 -20 -48 -31 -64c54 -40 115 -109 155 -180h-133
v-65h167v-82c-49 6 -98 11 -144 14c-2 -16 -10 -41 -17 -56c115 -10 252 -27 327 -54l48 53c-43 14 -96 26 -151 34v91h152v65zM955 637v67h-220v156c0 36 -8 53 -36 63c-30 11 -75 11 -142 11c-4 -19 -13 -43 -23 -61c52 2 97 2 113 1c13 -1 17 -4 17 -15v-155h-215v-67
h215v-52l-1 -1c30 -19 64 -48 92 -75h-213v-62h276l18 -4l41 31v-103h-346v104h-66v-168h186v-99h-176v-66h176v-95h78v95h206v66h-206v99h216v168h-67l9 6c-42 44 -98 90 -152 125v31h220z" />
</svg>
