<?xml version="1.0" standalone="no"?>
<!DOCTYPE svg PUBLIC "-//W3C//DTD SVG 1.1//EN" "http://www.w3.org/Graphics/SVG/1.1/DTD/svg11.dtd" >
<svg xmlns="http://www.w3.org/2000/svg" xmlns:xlink="http://www.w3.org/1999/xlink" version="1.1" viewBox="-10 0 1010 1000">
   <path fill="currentColor"
d="M891 42l41 59c-118 43 -302 69 -454 82c-3 -17 -11 -43 -18 -60c151 -15 331 -43 431 -81zM746 350l-58 24c-5 -48 -25 -121 -47 -176l55 -23c24 55 44 127 50 175zM596 357l-57 28c-8 -46 -32 -116 -60 -167l52 -25c29 50 56 118 65 164zM364 604h-198v89h198v-89z
M166 842h198v-95h-198v95zM102 939v-393h328v389h-66v-34h-198v38h-64zM454 294h-160c46 33 154 119 181 143l-42 55c-27 -29 -90 -87 -139 -130v160h-67v-181c-44 79 -103 154 -162 197c-7 -19 -22 -48 -33 -64c58 -40 121 -109 162 -180h-139v-65h172v-82
c-50 6 -101 11 -149 14c-1 -16 -10 -41 -17 -56c120 -10 264 -27 341 -54l49 53c-44 14 -99 26 -157 34v91h160v65zM871 158l62 30c-30 69 -65 149 -94 201l-52 -28c28 -54 64 -141 84 -203zM956 622v67h-216v184c0 37 -7 56 -33 67c-24 11 -62 12 -121 12
c-3 -20 -13 -47 -22 -66c41 1 81 1 92 0c12 -1 15 -3 15 -14v-183h-218v-67h218v-66c39 -27 84 -66 119 -103h-289v-64h347l15 -4l44 36c-45 53 -108 111 -167 153v48h216z" />
</svg>
