<?xml version="1.0" standalone="no"?>
<!DOCTYPE svg PUBLIC "-//W3C//DTD SVG 1.1//EN" "http://www.w3.org/Graphics/SVG/1.1/DTD/svg11.dtd" >
<svg xmlns="http://www.w3.org/2000/svg" xmlns:xlink="http://www.w3.org/1999/xlink" version="1.1" viewBox="-10 0 1010 1000">
   <path fill="currentColor"
d="M664 248v-72h-201v-56h201v-75h61v75h203v56h-203v72h-61zM347 604h-187v89h187v-89zM160 842h187v-95h-187v95zM99 939v-393h312v389h-64v-34h-187v38h-61zM433 295h-150c43 33 144 118 171 142l-41 55c-25 -30 -85 -89 -132 -132v161h-61v-182c-42 78 -99 156 -156 199
c-7 -20 -20 -48 -31 -65c54 -39 113 -108 153 -179h-132v-65h166v-82c-48 6 -97 11 -142 14c-2 -16 -11 -41 -18 -56c113 -10 250 -27 325 -54l46 53c-42 15 -94 26 -150 34v91h152v66zM598 796l64 22c-47 57 -121 115 -185 151c-10 -11 -34 -39 -49 -51
c62 -30 130 -76 170 -122zM788 395v-65h-191v65h191zM836 512v-65h-287v65h287zM836 626v-65h-287v65h287zM836 742v-67h-287v67h287zM956 330h-105v65h56v399h-118c60 40 127 90 166 127l-49 43c-38 -39 -106 -93 -165 -135l40 -35h-300v-399h56v-65h-98v-56h98v-74h60v74
h191v-74h63v74h105v56z" />
</svg>
