<?xml version="1.0" standalone="no"?>
<!DOCTYPE svg PUBLIC "-//W3C//DTD SVG 1.1//EN" "http://www.w3.org/Graphics/SVG/1.1/DTD/svg11.dtd" >
<svg xmlns="http://www.w3.org/2000/svg" xmlns:xlink="http://www.w3.org/1999/xlink" version="1.1" viewBox="-10 0 1010 1000">
   <path fill="currentColor"
d="M494 191v97h-63v-154h222c-12 -25 -28 -55 -41 -78l63 -21c20 30 41 70 54 99h213v154h-66v-97h-382zM554 316l52 17c-33 40 -87 86 -131 116c-8 -11 -27 -32 -39 -41c42 -26 90 -60 118 -92zM332 604h-179v89h179v-89zM153 842h179v-95h-179v95zM96 939v-393h296v389
h-60v-34h-179v38h-57zM827 500h-261l-3 1v50h264v-51zM827 649v-51h-264v51h264zM827 749v-53h-264v53h264zM500 797v-277c-25 6 -51 13 -76 19c-6 -12 -19 -33 -28 -49l-2 2c-24 -29 -80 -87 -124 -130v160h-59v-184c-40 80 -95 156 -149 200c-6 -19 -19 -48 -28 -64
c51 -40 107 -109 145 -180h-126v-65h158v-82c-46 6 -93 11 -136 14c-2 -16 -10 -41 -17 -56c108 -10 238 -27 308 -54l44 53c-39 14 -88 26 -140 34v91h143v65h-143c42 33 137 119 162 143l-28 41c31 -5 64 -13 96 -21v-5h18c45 -12 90 -26 133 -42v-118h-125v-50h314v50
h-125v91c57 -25 108 -55 146 -88l56 26c-56 52 -135 96 -219 131h196v345h-394zM598 802l53 46c-63 35 -145 71 -204 99c-8 -16 -20 -38 -31 -53c56 -24 139 -63 182 -92zM740 847l32 -45c62 30 133 68 176 96l-37 49c-41 -30 -111 -70 -171 -100z" />
</svg>
