<?xml version="1.0" standalone="no"?>
<!DOCTYPE svg PUBLIC "-//W3C//DTD SVG 1.1//EN" "http://www.w3.org/Graphics/SVG/1.1/DTD/svg11.dtd" >
<svg xmlns="http://www.w3.org/2000/svg" xmlns:xlink="http://www.w3.org/1999/xlink" version="1.1" viewBox="-10 0 1010 1000">
   <path fill="currentColor"
d="M90 898l-46 -19c18 -57 34 -155 42 -221l44 15c-8 66 -21 164 -40 225zM159 672l39 -5c11 59 17 134 16 183l-41 6c2 -50 -4 -125 -14 -184zM264 147h-110v89h110v-89zM264 391v-95h-110v95h110zM264 543v-93h-110v93h110zM91 603v-519h380v63h-146v89h121v60h-121v95
h121v59h-121v93h144s-1 21 -2 31c-12 238 -24 323 -49 352c-15 18 -32 25 -56 27c-20 2 -58 2 -94 0c-1 -19 -8 -44 -17 -60c37 3 70 3 84 3c13 0 21 -1 29 -11c11 -13 18 -47 26 -120l-33 13c-9 -36 -32 -90 -56 -131l36 -12c22 36 44 84 54 118c4 -39 7 -88 10 -149h-275
v-1h-35zM309 814l-40 10c-3 -43 -19 -110 -37 -161l38 -7c19 51 36 116 39 158zM955 419v71h-203v466h-73v-466h-201v-71h201v-243h-177v-69h435v69h-185v243h203z" />
</svg>
