<?xml version="1.0" standalone="no"?>
<!DOCTYPE svg PUBLIC "-//W3C//DTD SVG 1.1//EN" "http://www.w3.org/Graphics/SVG/1.1/DTD/svg11.dtd" >
<svg xmlns="http://www.w3.org/2000/svg" xmlns:xlink="http://www.w3.org/1999/xlink" version="1.1" viewBox="-10 0 1010 1000">
   <path fill="currentColor"
d="M82 898l-46 -19c18 -58 34 -155 40 -221l44 15c-7 65 -20 164 -38 225zM148 672l38 -5c12 59 17 134 16 183l-40 5c2 -50 -4 -124 -14 -183zM147 450v94h99v-94h-99zM246 146h-99v90h99v-90zM246 391v-95h-99v95h99zM308 544h138s-1 21 -2 31c-12 237 -24 321 -48 349
c-15 19 -31 26 -55 27c-20 2 -57 2 -93 0c-1 -18 -8 -43 -17 -60c37 4 69 4 83 4c13 0 21 -2 28 -12c11 -12 19 -45 26 -117l-29 12c-10 -36 -32 -90 -55 -131l35 -12c19 34 40 77 51 110c3 -37 6 -83 9 -140h-294v-520h353v61h-130v90h104v60h-104v95h104v59h-104v94z
M294 814l-40 10c-3 -43 -19 -110 -37 -161l37 -7c20 51 36 116 40 158zM845 487h-263c30 86 73 166 130 232c57 -62 103 -140 133 -232zM887 417l44 21c-34 138 -94 247 -170 332c57 55 125 98 201 126c-16 14 -37 44 -48 62c-77 -31 -146 -78 -204 -138
c-67 62 -146 107 -228 139c-10 -18 -31 -49 -46 -61c84 -30 161 -73 227 -131c-62 -76 -109 -168 -144 -271l29 -9h-69v-68h193v-150h-213v-70h213v-155h69v155h209v70h-209v150h132z" />
</svg>
