<?xml version="1.0" standalone="no"?>
<!DOCTYPE svg PUBLIC "-//W3C//DTD SVG 1.1//EN" "http://www.w3.org/Graphics/SVG/1.1/DTD/svg11.dtd" >
<svg xmlns="http://www.w3.org/2000/svg" xmlns:xlink="http://www.w3.org/1999/xlink" version="1.1" viewBox="-10 0 1010 1000">
   <path fill="currentColor"
d="M88 898l-46 -19c18 -58 35 -156 42 -221l44 15c-7 66 -22 164 -40 225zM156 672l39 -5c11 59 18 134 17 183l-41 6c1 -50 -4 -125 -15 -184zM257 147h-103v89h103v-89zM257 391v-95h-103v95h103zM257 543v-93h-103v93h103zM319 543h142s-1 21 -2 30
c-12 236 -24 319 -48 348c-15 18 -32 25 -57 26c-19 3 -56 2 -93 0c-1 -18 -8 -43 -17 -60c37 4 70 4 85 4c12 0 20 -2 28 -11c11 -12 18 -45 25 -115l-32 13c-9 -36 -33 -90 -56 -131l35 -12c22 36 44 83 55 117c3 -38 7 -87 10 -148h-268v-1h-35v-519h360v63h-132v89h110
v60h-110v95h110v59h-110v93zM304 814l-39 10c-4 -43 -20 -110 -38 -160l37 -8c20 51 36 116 40 158zM770 176h-153c-2 70 -5 138 -9 202c33 115 80 223 140 314c44 -69 79 -151 101 -247h-150c22 -71 49 -175 71 -269zM886 376l42 19c-28 144 -76 263 -138 356
c51 62 110 114 176 148c-15 13 -34 40 -45 59c-64 -37 -121 -89 -171 -151c-54 65 -115 116 -182 153c-10 -17 -34 -47 -48 -58c70 -36 134 -88 188 -154c-43 -66 -80 -140 -112 -222c-17 173 -49 318 -109 433c-11 -12 -43 -36 -59 -46c97 -165 116 -430 122 -737h-77v-68
h382c-19 86 -46 189 -68 271h87z" />
</svg>
