<?xml version="1.0" standalone="no"?>
<!DOCTYPE svg PUBLIC "-//W3C//DTD SVG 1.1//EN" "http://www.w3.org/Graphics/SVG/1.1/DTD/svg11.dtd" >
<svg xmlns="http://www.w3.org/2000/svg" xmlns:xlink="http://www.w3.org/1999/xlink" version="1.1" viewBox="-10 0 1010 1000">
   <path fill="currentColor"
d="M959 420l-63 34c-8 -19 -19 -40 -31 -65c-311 33 -350 39 -374 50c-4 -16 -15 -52 -23 -72c18 -3 36 -25 57 -57c25 -32 100 -151 147 -267l70 24c-48 103 -107 204 -165 285l254 -25c-27 -49 -58 -100 -84 -144l58 -27c52 83 121 198 154 264zM87 898l-45 -19
c18 -57 35 -155 42 -221l43 15c-7 66 -22 164 -40 225zM154 672l38 -4c12 58 18 133 17 182l-41 6c2 -50 -4 -125 -14 -184zM224 664l36 -8c20 51 36 116 41 159l-40 9c-4 -43 -20 -109 -37 -160zM380 757l-38 14c-9 -34 -31 -85 -53 -124l35 -12c23 37 46 89 56 122z
M152 450v94h103v-94h-103zM255 146h-103v90h103v-90zM255 391v-95h-103v95h103zM317 544h140s0 21 -1 31c-12 237 -24 321 -48 349c-15 19 -32 26 -56 27c-20 2 -56 2 -93 0c-1 -18 -7 -43 -17 -60c38 4 70 4 85 4c12 0 20 -2 28 -12c17 -17 26 -90 36 -278h-301v-520h357
v61h-130v90h109v60h-109v95h109v59h-109v94zM582 450h67c-6 245 -28 412 -173 508c-8 -18 -29 -43 -45 -56c131 -82 147 -230 151 -452zM827 881h54c20 0 23 -23 25 -158c15 13 42 25 59 30c-5 153 -21 194 -78 194h-70c-62 0 -78 -23 -78 -99v-399h66v399c0 29 3 33 22 33z
" />
</svg>
