<?xml version="1.0" standalone="no"?>
<!DOCTYPE svg PUBLIC "-//W3C//DTD SVG 1.1//EN" "http://www.w3.org/Graphics/SVG/1.1/DTD/svg11.dtd" >
<svg xmlns="http://www.w3.org/2000/svg" xmlns:xlink="http://www.w3.org/1999/xlink" version="1.1" viewBox="-10 0 1010 1000">
   <path fill="currentColor"
d="M88 898l-46 -19c18 -58 35 -156 42 -221l44 14c-7 67 -22 165 -40 226zM156 672l39 -4c11 58 18 133 17 182l-41 6c1 -50 -4 -125 -15 -184zM154 450v93h103v-93h-103zM257 147h-103v89h103v-89zM257 391v-95h-103v95h103zM319 543h142s-1 21 -2 31
c-12 238 -24 323 -49 352c-15 18 -31 25 -56 27c-19 2 -57 2 -93 0c-2 -19 -8 -44 -18 -60c37 3 71 3 85 3c12 0 20 -1 28 -11c11 -13 18 -46 26 -120l-32 13c-10 -36 -33 -90 -56 -131l35 -12c21 36 44 82 54 116c4 -38 7 -87 10 -147h-302v-520h360v63h-132v89h110v60
h-110v95h110v59h-110v93zM304 814l-39 10c-4 -43 -20 -110 -38 -161l37 -8c20 51 36 117 40 159zM807 873h45c13 0 27 -1 34 -5c7 -5 13 -14 16 -26c2 -20 5 -69 4 -125c14 13 40 27 60 33c-1 52 -5 114 -11 136c-6 23 -18 37 -35 46c-15 8 -40 12 -62 12h-67
c-24 0 -50 -3 -68 -18c-18 -14 -23 -30 -23 -81v-209c-35 131 -97 242 -207 322c-11 -17 -35 -41 -55 -51c186 -129 226 -353 235 -615h-107v128h-67v-194h175c1 -60 1 -121 1 -182h73c0 61 -1 122 -2 182h192v194h-69v-128h-125c-2 45 -4 89 -8 131h33v425c0 10 3 16 10 20
c8 3 16 5 28 5z" />
</svg>
