<?xml version="1.0" standalone="no"?>
<!DOCTYPE svg PUBLIC "-//W3C//DTD SVG 1.1//EN" "http://www.w3.org/Graphics/SVG/1.1/DTD/svg11.dtd" >
<svg xmlns="http://www.w3.org/2000/svg" xmlns:xlink="http://www.w3.org/1999/xlink" version="1.1" viewBox="-10 0 1010 1000">
   <path fill="currentColor"
d="M770 165l-56 37c-17 -36 -57 -90 -93 -128l54 -32c38 36 78 87 95 123zM87 898l-45 -18c18 -58 35 -156 42 -222l43 15c-8 66 -22 164 -40 225zM155 673l38 -5c11 59 18 133 17 182l-41 6c2 -50 -4 -124 -14 -183zM152 450v94h103v-94h-103zM255 146h-103v90h103v-90z
M255 391v-95h-103v95h103zM317 544h140s0 21 -1 31c-13 237 -24 321 -48 349c-15 19 -32 26 -56 27c-20 2 -56 2 -93 0c-1 -18 -7 -43 -17 -60c38 4 70 4 84 4c13 0 21 -2 29 -12c11 -12 18 -46 25 -118l-33 13c-9 -36 -32 -90 -55 -131l35 -12c21 37 44 85 54 119
c4 -39 7 -88 10 -149h-300v-520h356v61h-130v90h108v60h-108v95h108v59h-108v94zM302 815l-39 10c-4 -43 -20 -110 -37 -161l36 -8c20 51 36 117 40 159zM572 459h291v-188h-291v188zM934 203v378h-71v-53h-291c-2 135 -15 312 -84 434c-14 -11 -46 -25 -64 -32
c71 -124 78 -299 78 -429v-298h432z" />
</svg>
