<?xml version="1.0" standalone="no"?>
<!DOCTYPE svg PUBLIC "-//W3C//DTD SVG 1.1//EN" "http://www.w3.org/Graphics/SVG/1.1/DTD/svg11.dtd" >
<svg xmlns="http://www.w3.org/2000/svg" xmlns:xlink="http://www.w3.org/1999/xlink" version="1.1" viewBox="-10 0 1010 1000">
   <path fill="currentColor"
d="M92 897l-46 -18c18 -57 34 -155 42 -221l44 14c-7 67 -21 165 -40 225zM161 673l39 -5c11 59 17 133 16 182l-41 6c2 -50 -4 -125 -14 -183zM158 450v94h103v-94h-103zM261 146h-103v90h103v-90zM261 391v-95h-103v95h103zM324 544h141s0 21 -1 31
c-12 237 -24 321 -49 349c-15 19 -32 26 -56 27c-19 2 -57 2 -93 0c-2 -18 -8 -43 -18 -60c38 4 71 4 85 4c13 0 21 -2 29 -12c11 -12 18 -46 25 -118l-33 13c-9 -36 -32 -90 -56 -131l36 -12c22 37 44 85 54 119c4 -39 7 -88 10 -149h-302v-520h359v61h-131v90h109v60h-109
v95h109v59h-109v94zM309 814l-40 10c-3 -43 -20 -110 -37 -161l36 -7c21 50 36 116 41 158zM606 458v404h160v-404h-160zM837 862h123v69h-498v-69h73v-726c119 -20 253 -53 329 -84l62 55c-88 32 -209 59 -320 79v204h335v68h-104v404z" />
</svg>
