<?xml version="1.0" standalone="no"?>
<!DOCTYPE svg PUBLIC "-//W3C//DTD SVG 1.1//EN" "http://www.w3.org/Graphics/SVG/1.1/DTD/svg11.dtd" >
<svg xmlns="http://www.w3.org/2000/svg" xmlns:xlink="http://www.w3.org/1999/xlink" version="1.1" viewBox="-10 0 1010 1000">
   <path fill="currentColor"
d="M80 890l-44 -16c20 -58 37 -154 44 -220l41 15c-7 66 -22 163 -41 221zM143 673l37 -4c7 57 14 130 14 180l-39 4c-1 -49 -5 -122 -12 -180zM202 662l36 -7c16 51 33 118 40 161l-38 10c-6 -44 -23 -112 -38 -164zM352 764l-35 15c-11 -36 -34 -91 -56 -133l34 -12
c21 43 46 97 57 130zM148 449v94h89v-94h-89zM237 151h-89v92h89v-92zM237 390v-88h-89v88h89zM296 543h130s0 21 -1 29c-7 244 -14 327 -35 355c-13 17 -28 24 -50 26c-17 2 -48 2 -78 0c-1 -18 -7 -42 -16 -58c29 3 56 3 67 3c13 0 19 -1 25 -11c13 -17 20 -87 26 -281
h-276v-518h332v63h-124v92h109v59h-109v88h111v59h-111v94zM715 464h-136v188h136v-188zM775 715h-196v60h-60v-374h256v314zM602 205h331s0 29 -1 39c-11 472 -21 625 -54 672c-19 28 -37 36 -66 40c-26 3 -69 2 -112 0c-2 -21 -8 -52 -21 -73c46 4 87 4 107 4
c14 0 23 -3 33 -17c24 -32 35 -185 46 -597h-290c-28 64 -61 121 -96 167c-13 -11 -41 -35 -58 -46c71 -84 127 -215 158 -351l68 17c-12 50 -27 98 -45 145z" />
</svg>
