<?xml version="1.0" standalone="no"?>
<!DOCTYPE svg PUBLIC "-//W3C//DTD SVG 1.1//EN" "http://www.w3.org/Graphics/SVG/1.1/DTD/svg11.dtd" >
<svg xmlns="http://www.w3.org/2000/svg" xmlns:xlink="http://www.w3.org/1999/xlink" version="1.1" viewBox="-10 0 1010 1000">
   <path fill="currentColor"
d="M88 898l-45 -19c18 -57 34 -155 40 -221l43 15c-8 66 -20 165 -38 225zM152 672l39 -4c10 57 16 133 15 182l-40 6c2 -50 -3 -125 -14 -184zM149 450v94h100v-94h-100zM249 146h-100v90h100v-90zM249 391v-95h-100v95h100zM308 544h138s0 20 -1 30
c-12 238 -24 322 -47 351c-15 18 -31 25 -54 27c-20 2 -56 2 -90 0c-2 -19 -8 -44 -18 -61c37 4 68 4 82 4c13 0 20 -2 27 -12c11 -12 18 -45 25 -118l-32 13c-9 -36 -30 -90 -53 -131l35 -12c20 36 42 82 52 116c3 -38 6 -86 9 -146h-293v-520h347v61h-127v90h107v60h-107
v95h107v59h-107v94zM296 815l-40 9c-3 -43 -19 -110 -35 -161l36 -7c19 50 35 116 39 159zM580 518h90c3 -35 3 -70 3 -103v-145h-93v248zM836 270h-96v145c0 33 -1 68 -3 103h99v-248zM956 583h-202c35 143 106 262 217 315c-16 14 -39 40 -48 59
c-101 -57 -167 -162 -209 -296c-29 113 -94 219 -229 296c-9 -15 -30 -40 -46 -53c151 -79 205 -200 224 -321h-198v-65h52v-314h156v-151h67v151h162v314h54v65z" />
</svg>
