<?xml version="1.0" standalone="no"?>
<!DOCTYPE svg PUBLIC "-//W3C//DTD SVG 1.1//EN" "http://www.w3.org/Graphics/SVG/1.1/DTD/svg11.dtd" >
<svg xmlns="http://www.w3.org/2000/svg" xmlns:xlink="http://www.w3.org/1999/xlink" version="1.1" viewBox="-10 0 1010 1000">
   <path fill="currentColor"
d="M779 224l-53 44c-31 -51 -104 -126 -167 -180l49 -38c64 51 138 124 171 174zM513 396l58 14c-8 91 -24 211 -56 280l-57 -24c31 -68 48 -181 55 -270zM87 898l-45 -19c18 -57 34 -155 41 -221l43 15c-7 65 -21 164 -39 225zM152 672l39 -4c11 58 17 133 16 182l-41 6
c2 -50 -3 -125 -14 -184zM153 450v93h101v-93h-101zM254 147h-101v89h101v-89zM254 391v-95h-101v95h101zM316 543h127s0 21 -1 30c-12 239 -24 323 -48 352c-15 19 -32 25 -56 27c-19 2 -55 2 -91 -1c-1 -18 -8 -42 -17 -58c37 3 69 3 83 3s21 -1 28 -11
c11 -13 19 -47 26 -121l-31 12c-8 -35 -31 -89 -53 -129l34 -12c20 35 41 79 52 113c3 -38 6 -85 9 -144h-289v-520h355v63h-128v89h101v60h-101v95h101v59h-101v93zM296 813l-39 10c-4 -43 -19 -110 -37 -160l37 -7c19 50 35 115 39 157zM721 882h114c33 0 38 -25 42 -148
c16 13 42 24 61 28c-8 141 -26 183 -98 183h-127c-79 0 -100 -23 -100 -108v-20c-35 44 -73 86 -114 122c-13 -12 -42 -36 -59 -48c65 -54 123 -119 173 -192v-430h67v319c74 -139 129 -301 170 -478l70 12c-25 98 -52 192 -84 279l45 -12c42 89 73 205 81 281l-63 17
c-6 -73 -33 -182 -69 -270c-42 114 -91 216 -150 307v113c0 38 6 45 41 45z" />
</svg>
