<?xml version="1.0" standalone="no"?>
<!DOCTYPE svg PUBLIC "-//W3C//DTD SVG 1.1//EN" "http://www.w3.org/Graphics/SVG/1.1/DTD/svg11.dtd" >
<svg xmlns="http://www.w3.org/2000/svg" xmlns:xlink="http://www.w3.org/1999/xlink" version="1.1" viewBox="-10 0 1010 1000">
   <path fill="currentColor"
d="M87 898l-45 -19c18 -57 34 -155 41 -221l42 14c-6 67 -20 165 -38 226zM153 673l38 -5c11 59 16 133 15 182l-40 6c2 -50 -4 -124 -13 -183zM151 450v94h99v-94h-99zM250 146h-99v90h99v-90zM250 391v-95h-99v95h99zM311 544h138s-1 21 -2 31c-12 237 -23 321 -47 349
c-15 19 -31 26 -54 27c-19 2 -55 2 -91 0c-1 -18 -8 -43 -17 -60c35 4 68 4 81 4s21 -2 28 -12c10 -12 18 -45 25 -118l-31 13c-9 -36 -32 -90 -54 -131l35 -12c20 35 41 81 51 115c4 -38 7 -86 10 -145h-293v-520h349v61h-128v90h107v60h-107v95h107v59h-107v94zM298 814
l-39 10c-3 -43 -19 -110 -37 -160l37 -8c19 51 35 116 39 158zM668 868h164c42 0 49 -23 54 -139c17 13 46 25 68 28c-10 139 -31 178 -117 178h-176c-95 0 -122 -24 -122 -113v-451h-68v-173h231c-18 -39 -51 -95 -80 -137l73 -20c33 46 69 105 87 144l-43 13h193v173h-71
v-109h-321v92h72v232c95 -43 194 -97 252 -145l58 50c-83 58 -202 113 -310 158v174c0 37 8 45 56 45z" />
</svg>
