<?xml version="1.0" standalone="no"?>
<!DOCTYPE svg PUBLIC "-//W3C//DTD SVG 1.1//EN" "http://www.w3.org/Graphics/SVG/1.1/DTD/svg11.dtd" >
<svg xmlns="http://www.w3.org/2000/svg" xmlns:xlink="http://www.w3.org/1999/xlink" version="1.1" viewBox="-10 0 1010 1000">
   <path fill="currentColor"
d="M83 890l-45 -16c20 -58 37 -154 45 -220l43 15c-8 65 -24 163 -43 221zM148 673l39 -4c8 57 14 130 14 180l-40 4c0 -49 -6 -122 -13 -180zM210 662l37 -7c17 51 35 118 41 161l-38 10c-7 -44 -25 -112 -40 -164zM366 764l-36 15c-12 -36 -36 -90 -58 -133l34 -11
c23 42 49 96 60 129zM152 449v94h93v-94h-93zM245 151h-93v92h93v-92zM245 390v-88h-93v88h93zM307 543h135s-1 21 -1 29c-8 244 -16 327 -37 355c-13 17 -29 24 -51 26c-19 2 -51 2 -81 0c-2 -18 -8 -42 -17 -58c31 3 58 3 70 3s19 -1 26 -11c12 -17 20 -88 26 -281h-287
v-518h346v63h-129v92h113v59h-113v88h115v59h-115v94zM707 420h-141v107h141v-107zM566 695h141v-108h-141v108zM764 757h-198v51h-57v-449h255v398zM589 192h352s-1 29 -1 39c-13 474 -24 632 -58 681c-20 28 -38 38 -68 41c-29 3 -78 2 -125 -1c-2 -21 -9 -53 -20 -73
c52 4 100 5 119 5c17 0 27 -3 35 -17c29 -34 41 -188 53 -606h-319c-25 50 -53 94 -82 130c-12 -11 -41 -34 -57 -45c66 -72 119 -185 149 -303l67 17c-13 45 -28 90 -45 132z" />
</svg>
