<?xml version="1.0" standalone="no"?>
<!DOCTYPE svg PUBLIC "-//W3C//DTD SVG 1.1//EN" "http://www.w3.org/Graphics/SVG/1.1/DTD/svg11.dtd" >
<svg xmlns="http://www.w3.org/2000/svg" xmlns:xlink="http://www.w3.org/1999/xlink" version="1.1" viewBox="-10 0 1010 1000">
   <path fill="currentColor"
d="M771 705v-535c-49 16 -101 28 -149 39c-4 -16 -13 -42 -21 -58c104 -24 223 -61 287 -102l53 54c-32 17 -69 33 -109 48v230h101v69h-101v255h122v66h-314v-458h58v392h73zM84 898l-41 -19c16 -58 31 -156 37 -221l39 14c-8 67 -20 166 -35 226zM184 850l-36 6
c1 -50 -3 -125 -13 -184l34 -4c10 57 16 133 15 182zM142 450v89h67v-89h-67zM209 144h-67v92h67v-92zM209 391v-95h-67v95h67zM340 540h31s-1 21 -2 31c-11 238 -21 323 -43 352c-13 18 -27 25 -49 27c-18 2 -50 2 -83 0c-1 -19 -7 -44 -15 -61c34 3 63 4 76 4
c12 0 19 -1 26 -11c8 -12 16 -44 22 -111l-16 7c-8 -36 -29 -90 -50 -131l31 -12c15 27 28 59 39 88c3 -33 5 -73 8 -121h-227v-521h274v63h-100v92h83v60h-83v95h86v59h-86v89h78v1zM187 663l33 -7c18 49 32 116 36 158l-35 10c-3 -43 -18 -110 -34 -161zM573 380l36 8
c-11 158 -34 282 -72 378c59 79 139 101 238 101c24 0 159 0 192 -1c-10 17 -19 48 -22 67h-173c-112 0 -199 -23 -263 -103c-29 53 -62 95 -101 128c-9 -17 -26 -42 -39 -56c40 -30 73 -74 102 -132c-27 -51 -48 -115 -65 -199l50 -19c11 58 25 106 43 147
c24 -72 39 -157 48 -255h-143c34 -75 78 -186 114 -285h-100v-68h187c-33 92 -77 205 -113 291h71z" />
</svg>
