<?xml version="1.0" standalone="no"?>
<!DOCTYPE svg PUBLIC "-//W3C//DTD SVG 1.1//EN" "http://www.w3.org/Graphics/SVG/1.1/DTD/svg11.dtd" >
<svg xmlns="http://www.w3.org/2000/svg" xmlns:xlink="http://www.w3.org/1999/xlink" version="1.1" viewBox="-10 0 1010 1000">
   <path fill="currentColor"
d="M951 174l-52 28c-18 -34 -60 -86 -97 -123l50 -24c36 35 80 85 99 119zM80 889l-44 -16c20 -58 37 -154 44 -220l42 15c-9 66 -23 164 -42 221zM141 672l37 -3c8 56 13 130 14 180l-39 4c1 -49 -5 -123 -12 -181zM150 449v94h76v-94h-76zM226 151h-76v92h76v-92zM226 390
v-88h-76v88h76zM403 543v29c-8 244 -16 327 -35 355c-13 17 -27 24 -50 26c-17 2 -47 2 -76 0c-2 -18 -7 -42 -16 -58c29 3 56 3 67 3s18 -1 23 -11c8 -11 14 -44 19 -117l-20 8c-11 -35 -35 -90 -56 -132l32 -12c17 31 33 68 46 98c2 -34 4 -76 5 -126h-251v-518h308v63
h-115v92h100v59h-100v88h101v59h-101v94h119zM275 816l-37 9c-6 -44 -23 -111 -37 -163l34 -7c16 51 33 117 40 161zM612 550h-69c-1 123 -15 249 -85 350c-11 -12 -32 -30 -47 -37c63 -91 75 -204 76 -313h-59v-56h59v-163h56v163h69v-163h56v163h58v56h-58v247h-56v-247z
M872 373l61 23c-27 112 -66 214 -114 303c19 110 42 178 71 179c16 1 28 -56 35 -149c12 14 37 30 50 36c-20 153 -53 193 -86 193c-54 -1 -91 -67 -117 -179c-45 69 -96 127 -152 174c-11 -10 -30 -26 -46 -35c69 -57 130 -133 181 -226c-16 -108 -27 -244 -33 -396h-299
v-64h296c-2 -61 -4 -124 -5 -187h63c1 63 2 126 4 187h175v64h-173c5 109 13 209 22 294c28 -67 51 -139 67 -217z" />
</svg>
