<?xml version="1.0" standalone="no"?>
<!DOCTYPE svg PUBLIC "-//W3C//DTD SVG 1.1//EN" "http://www.w3.org/Graphics/SVG/1.1/DTD/svg11.dtd" >
<svg xmlns="http://www.w3.org/2000/svg" xmlns:xlink="http://www.w3.org/1999/xlink" version="1.1" viewBox="-10 0 1010 1000">
   <path fill="currentColor"
d="M84 890l-44 -16c20 -58 37 -154 45 -220l41 15c-7 65 -23 163 -42 221zM147 673l38 -4c7 57 13 130 14 180l-40 4c0 -49 -5 -122 -12 -180zM207 662l36 -7c17 51 33 118 40 161l-38 10c-6 -44 -23 -112 -38 -164zM357 764l-33 15c-13 -36 -36 -90 -57 -133l33 -11
c22 42 47 96 57 129zM153 449v94h89v-94h-89zM242 151h-89v92h89v-92zM242 390v-88h-89v88h89zM432 543v29c-8 244 -15 327 -36 355c-13 17 -27 24 -50 26c-18 2 -49 2 -78 0c-2 -18 -8 -42 -17 -58c30 3 57 3 69 3c11 0 17 -1 24 -11c13 -17 20 -87 26 -281h-277v-518h334
v63h-126v92h111v59h-111v88h113v59h-113v94h131zM545 390v112h286v-112h-286zM831 221h-286v105h286v-105zM905 593l44 49c-44 40 -105 81 -154 111c45 60 101 106 168 134c-16 14 -36 42 -46 61c-139 -66 -230 -204 -278 -380h-94v291l160 -47c2 20 7 48 11 62
c-195 63 -223 75 -241 89c-5 -19 -18 -54 -29 -72c14 -6 33 -19 33 -55v-681h185c-10 -31 -24 -68 -36 -97l64 -17c15 35 33 81 45 114h160v413h-193c14 48 34 93 57 134c48 -31 106 -74 144 -109z" />
</svg>
