<?xml version="1.0" standalone="no"?>
<!DOCTYPE svg PUBLIC "-//W3C//DTD SVG 1.1//EN" "http://www.w3.org/Graphics/SVG/1.1/DTD/svg11.dtd" >
<svg xmlns="http://www.w3.org/2000/svg" xmlns:xlink="http://www.w3.org/1999/xlink" version="1.1" viewBox="-10 0 1010 1000">
   <path fill="currentColor"
d="M858 267v-81h-135v81h135zM858 403v-82h-135v82h135zM527 321v82h127v-82h-127zM527 186v81h127v-81h-127zM925 130v329h-464v-329h193v-86h69v86h202zM79 890l-42 -17c19 -58 36 -154 43 -220l41 15c-8 66 -23 164 -42 222zM141 673l38 -4c7 57 12 130 13 180l-39 4
c1 -49 -5 -123 -12 -180zM201 662l35 -7c16 51 32 118 39 161l-37 10c-6 -45 -23 -112 -37 -164zM348 764l-34 14c-11 -35 -35 -90 -56 -132l33 -12c21 43 47 96 57 130zM147 449v94h87v-94h-87zM234 151h-87v92h87v-92zM234 390v-88h-87v88h87zM420 543v29
c-8 244 -15 327 -35 355c-13 17 -27 24 -49 26c-18 2 -48 2 -77 0c-1 -18 -7 -42 -16 -58c29 3 55 3 67 3c11 0 17 -1 24 -11c12 -17 19 -87 25 -281h-271v-518h327v63h-122v92h107v59h-107v88h109v59h-109v94h127zM956 580h-335c-9 31 -19 64 -28 93h318s-2 21 -4 31
c-15 136 -31 196 -59 220c-16 17 -35 22 -64 24c-25 2 -75 2 -127 -1c-2 -21 -10 -47 -21 -67c51 6 100 6 119 6c18 0 29 -1 36 -9c16 -14 29 -53 42 -142h-332c16 -43 34 -101 48 -155h-118v-62h525v62z" />
</svg>
