<?xml version="1.0" standalone="no"?>
<!DOCTYPE svg PUBLIC "-//W3C//DTD SVG 1.1//EN" "http://www.w3.org/Graphics/SVG/1.1/DTD/svg11.dtd" >
<svg xmlns="http://www.w3.org/2000/svg" xmlns:xlink="http://www.w3.org/1999/xlink" version="1.1" viewBox="-10 0 1010 1000">
   <path fill="currentColor"
d="M90 898l-43 -19c17 -57 33 -155 39 -221l41 15c-7 66 -20 165 -37 225zM154 672l37 -5c10 58 16 134 14 183l-38 6c1 -50 -4 -125 -13 -184zM248 147h-97v89h97v-89zM248 391v-95h-97v95h97zM248 544v-94h-97v94h97zM306 544h128s-1 21 -1 30c-12 239 -23 324 -46 353
c-14 18 -29 25 -51 27c-19 2 -53 1 -86 0c-2 -19 -8 -44 -17 -61c35 3 65 4 78 4c12 0 20 -2 27 -11c10 -13 17 -47 24 -121l-30 13c-8 -36 -30 -90 -51 -131l33 -12c20 35 40 81 49 115c3 -38 6 -86 9 -146h-247v-1h-33v-519h333v63h-119v89h98v60h-98v95h98v59h-98v94z
M292 815l-38 9c-3 -43 -18 -109 -35 -160l35 -8c19 50 34 117 38 159zM619 503v34h72v67h-75c-7 122 -34 244 -122 344c-13 -15 -39 -36 -56 -47c78 -87 102 -192 110 -297h-92v-67h95v-34v-191h-93v-68h74c21 -56 45 -134 57 -191l72 21c-20 56 -43 120 -64 170h92v68h-70
v191zM952 537v67h-99v351h-69v-351h-72v-67h72v-225h-73v-68h45c24 -55 51 -136 65 -192l70 21c-21 57 -47 121 -71 171h126v68h-93v225h99z" />
</svg>
