<?xml version="1.0" standalone="no"?>
<!DOCTYPE svg PUBLIC "-//W3C//DTD SVG 1.1//EN" "http://www.w3.org/Graphics/SVG/1.1/DTD/svg11.dtd" >
<svg xmlns="http://www.w3.org/2000/svg" xmlns:xlink="http://www.w3.org/1999/xlink" version="1.1" viewBox="-10 0 1010 1000">
   <path fill="currentColor"
d="M846 238v-91h-294v91h294zM846 387v-93h-294v93h294zM915 88v359h-430v-359h430zM86 898l-43 -19c18 -57 33 -155 40 -221l40 14c-6 67 -20 165 -37 226zM150 672l37 -5c10 59 16 134 15 183l-39 6c2 -50 -3 -125 -13 -184zM148 450v94h97v-94h-97zM245 146h-97v90h97
v-90zM245 391v-95h-97v95h97zM304 544h134s-1 21 -1 31c-12 237 -23 321 -46 349c-14 19 -30 26 -53 27c-19 2 -54 2 -88 0c-1 -18 -7 -43 -17 -60c36 4 67 4 80 4c12 0 20 -2 27 -12c10 -12 17 -46 25 -118l-32 13c-9 -36 -30 -90 -52 -131l33 -12c21 37 42 85 51 119
c4 -38 7 -87 10 -149h-285v-520h338v61h-124v90h104v60h-104v95h104v59h-104v94zM292 815l-38 9c-4 -43 -19 -109 -36 -160l36 -8c18 51 33 117 38 159zM565 862l123 -31c0 20 2 48 6 64c-159 43 -187 53 -203 65c-6 -18 -21 -51 -32 -68c15 -8 36 -27 36 -67v-349h70v132
h128v63h-128v191zM812 886h69c20 0 25 -16 27 -110c14 11 40 21 59 26c-7 115 -24 145 -79 145h-86c-65 0 -81 -20 -81 -92v-379h66v166c45 -29 96 -67 128 -96l43 50c-53 41 -118 82 -171 110v149c0 27 4 31 25 31z" />
</svg>
