<?xml version="1.0" standalone="no"?>
<!DOCTYPE svg PUBLIC "-//W3C//DTD SVG 1.1//EN" "http://www.w3.org/Graphics/SVG/1.1/DTD/svg11.dtd" >
<svg xmlns="http://www.w3.org/2000/svg" xmlns:xlink="http://www.w3.org/1999/xlink" version="1.1" viewBox="-10 0 1010 1000">
   <path fill="currentColor"
d="M79 898l-46 -19c19 -57 36 -155 42 -221l44 15c-7 66 -22 164 -40 225zM147 673l39 -5c11 58 18 133 16 182l-41 6c2 -50 -3 -125 -14 -183zM144 450v94h103v-94h-103zM247 146h-103v90h103v-90zM247 391v-95h-103v95h103zM309 544h140s-1 21 -2 31
c-12 237 -23 321 -48 349c-15 19 -31 26 -56 27c-19 2 -56 2 -92 0c-1 -18 -8 -43 -18 -60c38 4 70 4 85 4c13 0 21 -2 28 -12c11 -12 18 -46 26 -118l-33 13c-9 -36 -32 -90 -55 -131l35 -12c22 36 44 84 54 118c4 -38 7 -87 10 -148h-301v-520h357v61h-130v90h109v60h-109
v95h109v59h-109v94zM294 815l-39 9c-3 -43 -20 -109 -38 -160l37 -8c20 51 36 116 40 159zM499 614h54v126h75v-175h-151v-58h151v-99h-56c-15 28 -32 57 -52 83c-11 -11 -33 -25 -47 -31c45 -56 76 -127 94 -182l55 8c-7 21 -14 43 -24 65h216v57h-128v99h157v58h-157v175
h76v-126h56v183h-319v-183zM950 185v37c-8 494 -15 645 -45 692c-18 26 -38 35 -66 38c-27 3 -70 2 -112 0c-1 -19 -8 -46 -18 -65c45 4 85 4 103 4c15 1 24 -2 33 -16c22 -32 31 -188 38 -626h-329c-24 45 -50 85 -78 118c-11 -11 -40 -31 -56 -40
c63 -69 114 -176 144 -284l65 15c-12 43 -27 86 -45 127h366z" />
</svg>
