<?xml version="1.0" standalone="no"?>
<!DOCTYPE svg PUBLIC "-//W3C//DTD SVG 1.1//EN" "http://www.w3.org/Graphics/SVG/1.1/DTD/svg11.dtd" >
<svg xmlns="http://www.w3.org/2000/svg" xmlns:xlink="http://www.w3.org/1999/xlink" version="1.1" viewBox="-10 0 1010 1000">
   <path fill="currentColor"
d="M935 369l-46 51c-43 -34 -123 -87 -193 -130c-38 62 -100 105 -204 134c-6 -15 -24 -41 -37 -52c122 -33 177 -85 203 -168h-185v-62h199c5 -29 7 -62 9 -97h69c-2 35 -4 68 -8 97h197v62h-209c-3 11 -6 21 -10 31c74 42 166 98 215 134zM85 898l-42 -19
c17 -58 33 -156 39 -221l41 14c-7 67 -20 165 -38 226zM150 673l36 -5c10 58 16 133 15 182l-39 6c3 -50 -3 -125 -12 -183zM146 450v94h98v-94h-98zM244 146h-98v90h98v-90zM244 391v-95h-98v95h98zM302 544h134s-1 21 -2 31c-11 237 -22 321 -46 349c-14 19 -29 26 -52 27
c-19 2 -53 2 -88 0c-1 -18 -7 -43 -16 -60c35 4 66 4 79 4c12 0 20 -2 27 -12c10 -12 18 -46 25 -119l-33 14c-9 -36 -30 -90 -52 -131l33 -12c21 39 44 91 52 125c4 -40 7 -90 11 -155h-286v-520h337v61h-123v90h103v60h-103v95h103v59h-103v94zM289 815l-38 9
c-4 -43 -19 -109 -36 -160l35 -8c20 51 34 116 39 159zM687 624h-118v115h118v-115zM747 795h-178v66h-59v-293h237v227zM958 439v65h-63v371c0 39 -9 58 -38 70c-29 11 -74 12 -142 12c-4 -20 -17 -48 -27 -67c54 2 102 2 116 1c15 0 19 -4 19 -17v-370h-382v-65h517z" />
</svg>
