<?xml version="1.0" standalone="no"?>
<!DOCTYPE svg PUBLIC "-//W3C//DTD SVG 1.1//EN" "http://www.w3.org/Graphics/SVG/1.1/DTD/svg11.dtd" >
<svg xmlns="http://www.w3.org/2000/svg" xmlns:xlink="http://www.w3.org/1999/xlink" version="1.1" viewBox="-10 0 1010 1000">
   <path fill="currentColor"
d="M81 890l-43 -17c17 -57 34 -153 40 -219l41 15c-7 65 -20 162 -38 221zM141 673l37 -4c8 57 14 130 14 180l-39 4c0 -49 -5 -123 -12 -180zM144 449v94h90v-94h-90zM234 151h-90v92h90v-92zM234 390v-88h-90v88h90zM413 543v29c-9 244 -16 327 -36 355
c-13 17 -27 24 -50 26c-17 2 -48 2 -78 0c-1 -18 -7 -42 -16 -58c30 3 57 3 69 3c11 0 18 -1 23 -11c9 -12 14 -46 19 -123l-30 13c-12 -35 -35 -90 -54 -131l32 -11c20 39 42 88 53 121c2 -39 4 -88 6 -150h-266v-518h322v63h-114v92h96v59h-96v88h98v59h-98v94h120z
M277 816l-38 9c-6 -44 -23 -111 -38 -163l36 -7c16 51 33 117 40 161zM468 910l-55 -21c31 -54 57 -141 70 -204l52 19c-14 65 -37 153 -67 206zM482 506v-62h357l11 -4l46 17c-31 68 -75 151 -114 219l-57 -20c26 -46 55 -103 79 -150h-322zM609 299l54 -27
c28 38 63 89 78 120l-56 33c-15 -34 -47 -88 -76 -126zM613 625l51 -24c36 52 81 124 104 165l-53 29c-22 -43 -66 -115 -102 -170zM654 884h104c25 0 30 -12 33 -94c14 11 38 21 55 25c-6 103 -24 128 -81 128h-118c-74 0 -91 -18 -91 -85v-191h62v191c0 23 5 26 36 26z
M811 694l52 -20c34 65 74 150 93 204l-54 25c-19 -55 -58 -143 -91 -209zM663 40l56 22c-5 12 -11 24 -16 36c70 114 161 189 266 254c-15 14 -34 36 -44 56c-99 -69 -182 -144 -252 -251c-59 104 -140 197 -227 259c-11 -17 -29 -38 -46 -50c110 -72 210 -196 263 -326z
" />
</svg>
