<?xml version="1.0" standalone="no"?>
<!DOCTYPE svg PUBLIC "-//W3C//DTD SVG 1.1//EN" "http://www.w3.org/Graphics/SVG/1.1/DTD/svg11.dtd" >
<svg xmlns="http://www.w3.org/2000/svg" xmlns:xlink="http://www.w3.org/1999/xlink" version="1.1" viewBox="-10 0 1010 1000">
   <path fill="currentColor"
d="M818 143h-236c28 49 70 93 120 129c48 -36 87 -79 116 -129zM514 151l25 -8h-61v-63h379l13 -3l43 19c-32 88 -86 159 -151 214c59 33 127 58 202 73c-17 14 -36 42 -46 62c-80 -20 -153 -50 -217 -91c-69 46 -149 78 -233 99c-7 -18 -23 -44 -36 -58
c76 -17 149 -44 213 -83c-54 -46 -98 -99 -131 -161zM90 897l-44 -17c18 -59 34 -155 41 -222l41 15c-7 67 -20 164 -38 224zM153 673l37 -5c10 58 15 133 14 182l-38 6c1 -50 -3 -124 -13 -183zM218 664l35 -8c18 50 33 117 37 159l-38 10c-3 -43 -18 -110 -34 -161z
M362 764l-37 15c-7 -36 -26 -90 -47 -132l35 -11c20 40 41 93 49 128zM153 450v93h100v-93h-100zM253 147h-100v89h100v-89zM253 391v-95h-100v95h100zM312 543h128s-1 21 -2 31c-11 235 -22 319 -45 349c-14 17 -29 24 -51 26c-19 3 -53 2 -87 0c-1 -19 -7 -44 -16 -61
c34 4 64 4 77 4s20 -2 26 -11c16 -18 25 -90 35 -277h-283v-520h349v63h-131v89h104v60h-104v95h104v59h-104v93zM544 663h119v-110h-119v110zM853 553h-121v110h121v-110zM790 769l57 -24c44 57 95 134 115 184l-61 27c-6 -17 -15 -37 -27 -58c-149 15 -303 31 -415 43
l-11 -67c59 -5 134 -12 215 -19v-134h-181v-227h181v-94h69v94h187v227h-187v128l107 -11c-16 -24 -32 -48 -49 -69z" />
</svg>
