<?xml version="1.0" standalone="no"?>
<!DOCTYPE svg PUBLIC "-//W3C//DTD SVG 1.1//EN" "http://www.w3.org/Graphics/SVG/1.1/DTD/svg11.dtd" >
<svg xmlns="http://www.w3.org/2000/svg" xmlns:xlink="http://www.w3.org/1999/xlink" version="1.1" viewBox="-10 0 1010 1000">
   <path fill="currentColor"
d="M601 171l-59 26c-11 -34 -38 -88 -65 -129l57 -22c28 38 57 90 67 125zM79 898l-43 -18c18 -58 33 -156 39 -222l41 15c-7 67 -20 165 -37 225zM141 673l37 -5c10 58 16 133 14 182l-38 6c2 -50 -3 -124 -13 -183zM138 450v94h94v-94h-94zM232 148h-94v89h94v-89z
M232 391v-95h-94v95h94zM290 544h126s-1 21 -2 30c-11 238 -22 324 -45 353c-14 18 -29 25 -51 27c-20 2 -54 1 -88 0c-1 -19 -7 -44 -16 -61c35 3 65 4 78 4s20 -2 26 -11c10 -12 18 -47 25 -120l-27 12c-8 -36 -30 -90 -52 -131l34 -12c18 33 37 75 47 108
c3 -36 6 -81 9 -136h-276v-522h330v63h-118v89h99v59h-99v95h99v59h-99v94zM277 815l-38 9c-4 -43 -18 -109 -35 -160l35 -8c19 50 33 117 38 159zM503 658h117v-93h-117v93zM620 422h-117v78h117v-78zM679 362v504c0 32 -5 50 -26 61c-20 10 -52 12 -98 11
c-3 -17 -11 -42 -19 -60c34 1 63 1 72 0c10 0 12 -3 12 -12v-143h-117v219h-59v-580h235zM868 875v-539h64v540c0 36 -9 55 -32 66c-26 11 -64 13 -124 13c-4 -18 -14 -47 -25 -64c47 2 88 1 100 1c13 -1 17 -4 17 -17zM801 373v402h-59v-402h59zM797 215h162v67h-543v-67
h306c34 -47 75 -120 96 -171l75 20c-30 51 -65 108 -96 151z" />
</svg>
