<?xml version="1.0" standalone="no"?>
<!DOCTYPE svg PUBLIC "-//W3C//DTD SVG 1.1//EN" "http://www.w3.org/Graphics/SVG/1.1/DTD/svg11.dtd" >
<svg xmlns="http://www.w3.org/2000/svg" xmlns:xlink="http://www.w3.org/1999/xlink" version="1.1" viewBox="-10 0 1010 1000">
   <path fill="currentColor"
d="M85 898l-42 -19c17 -58 32 -156 38 -221l40 14c-8 67 -19 166 -36 226zM146 673l36 -5c10 58 16 133 15 182l-38 6c1 -50 -3 -124 -13 -183zM141 450v94h97v-94h-97zM238 148h-97v88h97v-88zM238 391v-95h-97v95h97zM294 544h128s-1 21 -1 30c-11 238 -22 324 -45 353
c-14 18 -29 25 -51 27c-18 2 -52 1 -86 0c0 -19 -6 -44 -15 -61c34 3 63 4 76 4s20 -2 28 -11c9 -13 16 -47 23 -120l-28 12c-9 -36 -30 -90 -52 -131l33 -12c20 35 38 79 49 113c3 -37 6 -84 9 -141h-279v-522h330v63h-119v88h99v60h-99v95h99v59h-99v94zM281 815l-37 9
c-2 -43 -17 -109 -33 -160l34 -8c18 50 33 116 36 159zM515 688h114v-87h-114v87zM629 466h-114v82h114v-82zM686 410v470c0 28 -5 44 -23 54s-44 11 -81 10c-2 -15 -10 -38 -17 -54c25 1 46 1 53 1c8 0 11 -3 11 -11v-136h-114v212h-57v-546h228zM870 876v-482h59v482
c0 34 -7 50 -29 60s-57 11 -114 11c-2 -17 -11 -40 -18 -57c40 1 77 1 87 1c11 -1 15 -4 15 -15zM795 432v369h-53v-369h53zM680 40l55 23c-5 8 -10 16 -16 25c68 84 154 138 250 182c-15 13 -33 34 -41 51c-93 -49 -172 -106 -242 -189c-49 61 -111 115 -178 157h357v62
h-358v-61c-18 12 -36 22 -53 30c-10 -14 -28 -34 -42 -47c108 -49 212 -136 268 -233z" />
</svg>
