<?xml version="1.0" standalone="no"?>
<!DOCTYPE svg PUBLIC "-//W3C//DTD SVG 1.1//EN" "http://www.w3.org/Graphics/SVG/1.1/DTD/svg11.dtd" >
<svg xmlns="http://www.w3.org/2000/svg" xmlns:xlink="http://www.w3.org/1999/xlink" version="1.1" viewBox="-10 0 1010 1000">
   <path fill="currentColor"
d="M79 890l-42 -16c17 -58 33 -154 40 -220l39 15c-8 65 -19 162 -37 221zM137 672l35 -3c7 57 12 130 12 180l-39 4c2 -49 -2 -123 -8 -181zM195 662l35 -7c15 52 30 118 36 162l-37 8c-5 -44 -20 -111 -34 -163zM331 765l-34 13c-8 -35 -29 -90 -48 -132l32 -11
c19 41 41 95 50 130zM137 449v94h85v-94h-85zM222 151h-85v92h85v-92zM222 390v-88h-85v88h85zM279 543h120s0 21 -1 29c-7 244 -15 327 -34 355c-13 17 -27 24 -48 26c-18 2 -47 2 -75 0c-2 -18 -8 -42 -16 -58c29 3 55 3 67 3c10 0 17 -1 23 -11c12 -17 19 -87 25 -281
h-260v-518h319v63h-120v92h96v59h-96v88h93v59h-93v94zM600 579l40 16c-33 150 -113 257 -207 314c-8 -16 -27 -40 -39 -52c71 -39 137 -117 170 -214h-125v-61h151zM531 351v89h298v-89h-298zM531 208v87h298v-87h-298zM877 534l51 43c-42 41 -91 87 -134 120
c45 69 102 125 168 158c-14 12 -34 37 -42 54c-84 -48 -151 -131 -200 -231v197c0 38 -6 57 -32 68c-24 12 -64 13 -125 13c-3 -20 -11 -48 -19 -67c43 2 83 2 94 1c12 -1 16 -4 16 -15v-376h-187v-350h159c11 -35 24 -76 31 -106l78 17c-13 30 -27 62 -40 89h201v350h-176
v33c13 41 28 81 48 118c38 -36 82 -82 109 -116z" />
</svg>
