<?xml version="1.0" standalone="no"?>
<!DOCTYPE svg PUBLIC "-//W3C//DTD SVG 1.1//EN" "http://www.w3.org/Graphics/SVG/1.1/DTD/svg11.dtd" >
<svg xmlns="http://www.w3.org/2000/svg" xmlns:xlink="http://www.w3.org/1999/xlink" version="1.1" viewBox="-10 0 1010 1000">
   <path fill="currentColor"
d="M927 83v311h-219v-63h156v-185h-155v-63h218zM71 904l-40 -24c33 -50 43 -138 47 -221l44 7c-5 89 -13 183 -51 238zM141 669l38 -5c11 58 16 133 15 181l-41 5c2 -49 -2 -123 -12 -181zM144 443v93h81v-93h-81zM225 142h-81v94h81v-94zM225 385v-91h-81v91h81zM284 536
h126s0 20 -1 29c-11 249 -21 335 -43 364c-14 18 -30 24 -52 26c-18 2 -52 2 -84 0c-2 -17 -7 -41 -16 -57c33 4 61 4 75 4c11 0 19 -2 26 -12c10 -12 18 -47 24 -124l-21 8c-10 -36 -33 -90 -57 -131l34 -12c17 29 35 65 47 95c2 -36 5 -79 7 -131h-264v-512h319v59h-120
v94h102v58h-102v91h102v58h-102v93zM279 811l-38 9c-5 -44 -21 -110 -39 -161l36 -8c20 51 36 117 41 160zM618 146h-112v173h112v-173zM670 749h-164v205h-62v-872h235v301h-173v112h157v64h-157v127h164v63zM902 475l41 11c-18 119 -52 215 -100 290c37 55 82 99 133 128
c-16 11 -35 35 -45 52c-48 -31 -91 -74 -126 -126c-45 56 -99 97 -159 127c-7 -16 -24 -41 -38 -53c62 -28 117 -73 162 -134c-34 -62 -61 -135 -79 -212l53 -13c15 60 36 117 62 168c28 -50 49 -106 63 -172h-184v-63h206z" />
</svg>
