<?xml version="1.0" standalone="no"?>
<!DOCTYPE svg PUBLIC "-//W3C//DTD SVG 1.1//EN" "http://www.w3.org/Graphics/SVG/1.1/DTD/svg11.dtd" >
<svg xmlns="http://www.w3.org/2000/svg" xmlns:xlink="http://www.w3.org/1999/xlink" version="1.1" viewBox="-10 0 1010 1000">
   <path fill="currentColor"
d="M829 285l-46 34c-21 -24 -51 -54 -86 -84c-33 32 -71 62 -109 86c-11 -10 -29 -25 -42 -34c39 -25 77 -55 111 -88c-37 -32 -77 -64 -113 -90l43 -29c34 24 70 52 106 81c28 -31 51 -65 69 -96l56 22c-23 38 -50 75 -82 109c37 32 70 64 93 89zM922 91v292h-455v-292h60
v237h332v-237h63zM739 435l41 -36c62 35 147 88 188 121l-42 42c-41 -34 -124 -89 -187 -127zM79 890l-43 -17c19 -58 35 -154 43 -220l40 15c-7 66 -22 164 -40 222zM140 672l37 -4c7 57 13 131 13 180l-38 4c0 -49 -5 -122 -12 -180zM198 661l35 -7c16 51 32 118 39 161
l-36 10c-7 -44 -23 -112 -38 -164zM345 763l-34 15c-11 -35 -33 -90 -54 -132l32 -12c21 42 45 96 56 129zM145 449v94h86v-94h-86zM231 151h-86v92h86v-92zM231 390v-88h-86v88h86zM289 543h126s0 21 -1 29c-7 244 -14 327 -33 355c-13 17 -28 24 -50 26c-16 2 -46 2 -75 0
c-1 -18 -7 -42 -15 -58c27 3 53 3 65 3c11 0 17 -1 23 -11c13 -17 20 -87 26 -281h-269v-518h323v63h-120v92h106v59h-106v88h108v59h-108v94zM586 405l61 17c-45 56 -110 117 -179 153l-51 -45c62 -27 127 -76 169 -125zM601 627l-7 7c29 46 67 88 114 124
c43 -37 80 -81 107 -131h-214zM861 568l44 18c-31 84 -82 154 -145 210c64 40 137 71 217 90c-15 12 -33 35 -43 51c-81 -23 -156 -58 -222 -103c-71 51 -153 87 -238 111c-8 -14 -25 -38 -38 -50c80 -21 158 -54 225 -100c-43 -37 -80 -78 -110 -124c-24 20 -52 38 -81 55
c-10 -14 -31 -33 -47 -42c103 -54 172 -131 208 -195l68 10c-13 24 -29 48 -48 72h197z" />
</svg>
