<?xml version="1.0" standalone="no"?>
<!DOCTYPE svg PUBLIC "-//W3C//DTD SVG 1.1//EN" "http://www.w3.org/Graphics/SVG/1.1/DTD/svg11.dtd" >
<svg xmlns="http://www.w3.org/2000/svg" xmlns:xlink="http://www.w3.org/1999/xlink" version="1.1" viewBox="-10 0 1010 1000">
   <path fill="currentColor"
d="M688 455v-135c-53 77 -138 155 -211 196c-10 -15 -29 -37 -42 -49c66 -29 141 -87 192 -148h-162v-59h221c-39 -24 -84 -46 -123 -63l42 -38c28 11 59 26 90 43c31 -18 64 -41 91 -65h-292v-58h354l16 -3l43 32c-43 45 -103 90 -160 122c18 11 33 21 46 30h107l12 -3
l49 16c-31 61 -67 129 -97 172l-58 -19c19 -28 41 -68 61 -107h-114v138c0 32 -6 47 -31 56c-24 9 -62 9 -122 9c-3 -17 -11 -38 -20 -55c44 2 82 2 93 1s15 -3 15 -13zM84 890l-43 -17c17 -57 33 -154 40 -219l41 15c-8 66 -21 163 -38 221zM142 672l37 -3
c8 56 14 130 14 180l-39 4c0 -49 -5 -123 -12 -181zM200 662l35 -7c17 51 33 117 40 161l-37 9c-6 -44 -23 -111 -38 -163zM340 763l-36 12c-8 -34 -30 -88 -48 -129l33 -11c19 41 41 94 51 128zM146 449v94h82v-94h-82zM228 151h-82v92h82v-92zM228 390v-88h-82v88h82z
M287 543h129s-1 21 -1 29c-8 244 -15 327 -35 355c-13 17 -27 24 -50 26c-17 2 -48 2 -77 0c-2 -18 -8 -42 -17 -58c30 3 56 3 68 3s18 -1 24 -11c13 -17 20 -87 26 -281h-268v-518h326v63h-125v92h108v59h-108v88h108v59h-108v94zM945 669h-185c52 74 134 149 204 187
c-15 13 -36 37 -48 54c-66 -42 -139 -118 -193 -198v244h-69v-244c-52 82 -125 159 -197 202c-10 -16 -29 -38 -44 -51c74 -39 153 -115 203 -194h-165v-63h203v-66h69v66h222v63z" />
</svg>
