<?xml version="1.0" standalone="no"?>
<!DOCTYPE svg PUBLIC "-//W3C//DTD SVG 1.1//EN" "http://www.w3.org/Graphics/SVG/1.1/DTD/svg11.dtd" >
<svg xmlns="http://www.w3.org/2000/svg" xmlns:xlink="http://www.w3.org/1999/xlink" version="1.1" viewBox="-10 0 1010 1000">
   <path fill="currentColor"
d="M737 207l-57 26c-7 -45 -30 -112 -53 -163l54 -23c25 50 48 117 56 160zM585 215l-56 30c-12 -45 -43 -112 -74 -161l53 -27c33 49 63 114 77 158zM78 861l-44 -19c23 -49 40 -132 47 -194l44 13c-8 65 -22 149 -47 200zM145 665l38 -5c11 58 16 130 15 178l-41 6
c3 -49 -2 -121 -12 -179zM206 655l36 -8c20 50 36 117 41 160l-38 9c-4 -43 -21 -110 -39 -161zM150 441v86h88v-86h-88zM238 158h-88v84h88v-84zM238 383v-83h-88v83h88zM298 527h131s0 20 -1 29c-8 248 -16 332 -36 359c-13 18 -28 24 -51 26c-17 2 -49 3 -78 1
c-2 -18 -8 -42 -17 -58c30 3 57 3 69 3s18 -1 24 -11c8 -11 15 -45 20 -120l-35 13c-9 -36 -34 -89 -57 -130l33 -12c24 39 47 91 59 126c3 -42 5 -96 8 -166h-278v-490h334v61h-125v84h110v58h-110v83h112v58h-112v86zM527 566h129v-95h-129v95zM527 318v94h129v-94h-129z
M859 412v-94h-137v94h137zM859 566v-95h-137v95h137zM952 716v64h-230v176h-66v-176h-213v-64h213v-88h-192v-372h314c30 -58 65 -144 85 -206l66 24c-27 59 -58 129 -88 182h83v372h-202v88h230z" />
</svg>
