<?xml version="1.0" standalone="no"?>
<!DOCTYPE svg PUBLIC "-//W3C//DTD SVG 1.1//EN" "http://www.w3.org/Graphics/SVG/1.1/DTD/svg11.dtd" >
<svg xmlns="http://www.w3.org/2000/svg" xmlns:xlink="http://www.w3.org/1999/xlink" version="1.1" viewBox="-10 0 1010 1000">
   <path fill="currentColor"
d="M788 577l53 19c-18 51 -41 104 -65 145l97 -11c-10 -26 -22 -55 -34 -78l42 -18c26 49 53 113 64 151l-45 22c-2 -9 -5 -18 -9 -29c-132 18 -156 23 -168 30c-3 -12 -12 -40 -18 -54c10 -2 20 -14 28 -31c9 -16 41 -82 55 -146zM84 898l-41 -19c17 -57 31 -155 37 -221
l40 15c-6 66 -19 164 -36 225zM145 673l34 -5c11 58 16 133 15 182l-37 6c2 -50 -3 -125 -12 -183zM520 491h102c7 -38 12 -76 15 -114h-117v114zM520 206v112h122c3 -38 4 -77 5 -112h-127zM838 318v-112h-128c-1 36 -3 74 -6 112h134zM838 491v-114h-138
c-4 38 -9 76 -15 114h153zM142 450v94h93v-94h-93zM235 146h-93v90h93v-90zM235 391v-95h-93v95h93zM745 885h125c27 0 32 -11 35 -76c14 10 38 20 56 25c-7 88 -26 113 -85 113h-137c-77 0 -97 -20 -97 -94v-188c-41 116 -108 219 -219 291c-10 -16 -25 -34 -39 -48
c-3 7 -7 13 -10 16c-14 19 -28 26 -50 27c-19 2 -52 2 -85 0c-1 -18 -7 -43 -15 -60c33 4 62 4 75 4s20 -2 26 -12c9 -12 17 -46 24 -119l-31 14c-8 -36 -30 -90 -50 -131l31 -12c22 38 42 88 51 122c3 -39 6 -89 9 -152h-273v-520h324v61h-118v90h98v60h-98v95h98v59h-98
v94h127s0 21 -1 31c-9 183 -17 275 -30 320c126 -80 189 -207 222 -343h-154v-408h152c12 -33 22 -73 28 -102l76 11c-12 31 -25 64 -37 91h229v408h-200v301c0 27 6 32 41 32zM279 814l-36 10c-3 -43 -18 -110 -34 -160l34 -8c18 51 32 116 36 158z" />
</svg>
