<?xml version="1.0" standalone="no"?>
<!DOCTYPE svg PUBLIC "-//W3C//DTD SVG 1.1//EN" "http://www.w3.org/Graphics/SVG/1.1/DTD/svg11.dtd" >
<svg xmlns="http://www.w3.org/2000/svg" xmlns:xlink="http://www.w3.org/1999/xlink" version="1.1" viewBox="-10 0 1010 1000">
   <path fill="currentColor"
d="M84 898l-42 -19c17 -57 32 -155 38 -221l40 15c-7 66 -20 164 -36 225zM144 672l35 -5c10 59 17 134 15 183l-37 6c1 -50 -4 -125 -13 -184zM143 450v94h93v-94h-93zM236 146h-93v90h93v-90zM236 391v-95h-93v95h93zM292 544h129s-1 21 -1 31c-12 237 -22 321 -44 349
c-14 19 -29 26 -51 27c-19 2 -53 2 -86 0c-1 -18 -6 -43 -15 -60c34 4 63 4 76 4s20 -2 26 -12c10 -12 17 -46 24 -119l-31 14c-8 -36 -30 -90 -52 -131l33 -12c21 38 42 89 51 123c3 -39 7 -89 10 -153h-274v-520h326v61h-121v90h100v60h-100v95h100v59h-100v94zM279 815
l-36 10c-3 -43 -18 -110 -34 -161l34 -8c18 51 32 117 36 159zM823 624h-267c32 58 77 109 132 151c56 -40 102 -90 135 -151zM869 559l42 21c-35 98 -94 173 -167 232c64 37 137 65 215 81c-15 14 -33 42 -43 61c-85 -20 -163 -55 -229 -100c-75 47 -160 80 -249 101
c-5 -18 -20 -46 -33 -62c80 -15 158 -43 227 -81c-56 -49 -103 -108 -137 -174l37 -14h-80v-62h205v-67h-194v-354l2 1l-1 -2c39 -7 101 -28 136 -40l36 49c-35 14 -79 24 -116 31v92h98v58h-98v106h137v-391h61v391h136v-102h-101v-58h101v-92h-101v-59h160v370h-195v67
h140z" />
</svg>
