<?xml version="1.0" standalone="no"?>
<!DOCTYPE svg PUBLIC "-//W3C//DTD SVG 1.1//EN" "http://www.w3.org/Graphics/SVG/1.1/DTD/svg11.dtd" >
<svg xmlns="http://www.w3.org/2000/svg" xmlns:xlink="http://www.w3.org/1999/xlink" version="1.1" viewBox="-10 0 1010 1000">
   <path fill="currentColor"
d="M144 159v91h-69v-149h393c-4 -18 -11 -36 -19 -52l59 -16c12 21 21 46 27 68h393v149h-71v-91h-713zM158 959l-56 -32c39 -31 73 -84 93 -127l56 23c-21 46 -52 100 -93 136zM318 833l54 -11c15 35 28 80 31 110l-57 13c-3 -30 -15 -76 -28 -112zM466 834l50 -17
c22 30 45 70 54 97l-53 20c-9 -28 -31 -69 -51 -100zM724 882l-47 24c-14 -22 -43 -54 -70 -76l46 -22c26 21 56 52 71 74zM490 597v-40h-187v40h187zM490 677v-43h-187v43h187zM490 755v-41h-187v41h187zM643 464h-286c-12 17 -25 32 -38 48h364c-15 -16 -28 -31 -40 -48z
M379 361v50h238v-50h-238zM379 270v47h238v-47h-238zM942 464h-222c61 67 154 125 245 153c-16 13 -34 38 -44 54c-74 -27 -149 -75 -209 -132v18h-154v40h194v37h-194v43h200v37h-200v41h310s-1 17 -3 25c-9 101 -19 142 -37 160c-14 13 -32 18 -55 19c-18 1 -55 0 -93 -3
c-1 -13 -6 -33 -14 -46c35 3 67 4 80 4s19 -1 25 -7c10 -10 18 -39 24 -105h-558v-213c-50 40 -105 74 -157 96c-10 -15 -30 -39 -43 -50c89 -34 184 -98 247 -171h-223v-53h249v-50h-136v-44h136v-47h-150v-49h150v-40h69v40h238v-40h70v40h158v49h-158v47h146v44h-146v50
h255v53z" />
</svg>
