<?xml version="1.0" standalone="no"?>
<!DOCTYPE svg PUBLIC "-//W3C//DTD SVG 1.1//EN" "http://www.w3.org/Graphics/SVG/1.1/DTD/svg11.dtd" >
<svg xmlns="http://www.w3.org/2000/svg" xmlns:xlink="http://www.w3.org/1999/xlink" version="1.1" viewBox="-10 0 1010 1000">
   <path fill="currentColor"
d="M82 898l-43 -19c17 -58 33 -156 39 -221l41 14c-6 67 -20 166 -37 226zM146 672l36 -5c11 58 17 134 15 183l-39 6c3 -50 -3 -125 -12 -184zM143 450v94h90v-94h-90zM233 148h-90v88h90v-88zM233 391v-95h-90v95h90zM290 544h130s-1 21 -2 30c-11 238 -23 324 -45 353
c-14 18 -29 25 -51 27c-20 2 -54 1 -88 0c-1 -19 -7 -44 -16 -61c34 3 65 4 78 4s20 -2 27 -11c9 -12 17 -46 24 -117l-23 9c-8 -36 -29 -90 -51 -131l33 -12c18 29 33 66 44 97c3 -35 5 -76 8 -125h-274v-522h327v63h-121v88h102v60h-102v95h102v59h-102v94zM284 814
l-38 10c-3 -43 -18 -110 -35 -161l35 -8c19 50 34 117 38 159zM527 522h124v-100h-124v100zM840 422h-119v100h119v-100zM587 182v71h203v-71h-203zM721 879h235v57h-542v-57h237v-66h-179v-56h179v-64h-198v-57h198v-60h-190v-208h190v-60h-131v-126h-88v-57h88v-81h67v81
h203v-81h69v81h81v57h-81v126h-138v60h187v208h-187v60h206v57h-206v64h185v56h-185v66z" />
</svg>
