<?xml version="1.0" standalone="no"?>
<!DOCTYPE svg PUBLIC "-//W3C//DTD SVG 1.1//EN" "http://www.w3.org/Graphics/SVG/1.1/DTD/svg11.dtd" >
<svg xmlns="http://www.w3.org/2000/svg" xmlns:xlink="http://www.w3.org/1999/xlink" version="1.1" viewBox="-10 0 1010 1000">
   <path fill="currentColor"
d="M735 223v-72h-79v72h79zM868 401v-125h-81v125h81zM529 276v125h76v-125h-76zM735 276h-78v125h78v-125zM597 223v-72h-143v-65h494v65h-153v72h135v232h-461v-232h128zM908 568h-409v-59h409v59zM78 890l-44 -17c20 -57 37 -153 45 -219l42 15c-8 66 -23 164 -43 221z
M142 673l37 -4c8 56 14 130 15 180l-40 4c0 -49 -5 -123 -12 -180zM202 662l36 -7c16 51 33 118 40 161l-38 9c-7 -44 -23 -111 -38 -163zM352 764l-34 14c-12 -35 -35 -90 -57 -132l34 -12c21 42 47 96 57 130zM147 449v94h89v-94h-89zM236 151h-89v92h89v-92zM236 390v-88
h-89v88h89zM296 543h131s0 21 -1 29c-8 244 -15 327 -35 355c-14 17 -28 24 -51 26c-17 2 -48 2 -78 0c-1 -18 -7 -42 -16 -58c29 3 56 3 68 3s18 -1 24 -11c13 -17 20 -87 26 -281h-277v-518h334v63h-125v92h110v59h-110v88h112v59h-112v94zM528 726l65 17
c-31 67 -81 137 -128 183c-12 -12 -37 -35 -52 -45c46 -40 89 -98 115 -155zM957 694h-227v190c0 34 -6 51 -31 61c-25 11 -63 11 -124 11c-3 -19 -13 -42 -22 -60c44 1 83 1 94 0c12 0 15 -3 15 -14v-188h-216v-60h511v60zM787 753l54 -31c44 51 97 121 121 164l-57 36
c-23 -46 -75 -117 -118 -169z" />
</svg>
