<?xml version="1.0" standalone="no"?>
<!DOCTYPE svg PUBLIC "-//W3C//DTD SVG 1.1//EN" "http://www.w3.org/Graphics/SVG/1.1/DTD/svg11.dtd" >
<svg xmlns="http://www.w3.org/2000/svg" xmlns:xlink="http://www.w3.org/1999/xlink" version="1.1" viewBox="-10 0 1010 1000">
   <path fill="currentColor"
d="M132 327h124v-68h68v68h134c-32 -25 -81 -57 -122 -78l19 -24h-142l29 30c-32 26 -74 51 -110 72zM497 438v16c-154 11 -313 21 -426 27l-5 -50c53 -2 118 -5 190 -8v-52h-153v-28l-2 1l-32 -38c35 -19 84 -54 118 -81h-132v-44h199v-42h-156v-44h156v-51h68v51h157v44
h-157v42h190v44h-118c40 22 83 49 105 69l-26 39v38h-149v49l174 -9l-1 24c52 -28 85 -66 106 -115c-27 -18 -55 -34 -81 -48l34 -39c20 11 43 22 64 35c6 -21 10 -44 13 -69h-108l-1 -58h115c2 -30 3 -63 4 -98h62c-1 34 -3 68 -5 98h139c-4 183 0 274 24 274
c14 0 20 -22 22 -77c15 11 36 21 53 25c-7 86 -29 111 -76 111c-77 0 -87 -105 -86 -276h-81c-5 38 -12 73 -21 104c32 23 61 46 80 65l-36 45c-15 -17 -38 -36 -64 -57c-26 53 -63 93 -120 125c-7 -13 -24 -33 -37 -42zM134 959l-62 -31c35 -30 70 -79 91 -114l60 26
c-23 38 -56 87 -89 119zM293 837l61 -8c14 34 27 80 30 109l-64 11c-3 -29 -14 -76 -27 -112zM458 838l57 -13c22 29 44 70 53 96l-59 17c-9 -27 -30 -68 -51 -100zM254 712v44h233v-44h-233zM487 543h-233v44h233v-44zM487 672v-44h-233v44h233zM558 756h357s-2 17 -4 25
c-12 98 -23 140 -44 157c-14 13 -30 17 -53 19c-21 1 -60 1 -102 -1c-1 -15 -7 -35 -16 -50l-10 5c-12 -22 -40 -54 -65 -78l51 -19c26 21 54 52 68 73l-39 18c35 3 68 4 81 4s22 -2 28 -7c11 -10 20 -37 28 -100h-655v-304h664v45h-289v44h252v41h-252v44h255v40h-255v44z
" />
</svg>
