<?xml version="1.0" standalone="no"?>
<!DOCTYPE svg PUBLIC "-//W3C//DTD SVG 1.1//EN" "http://www.w3.org/Graphics/SVG/1.1/DTD/svg11.dtd" >
<svg xmlns="http://www.w3.org/2000/svg" xmlns:xlink="http://www.w3.org/1999/xlink" version="1.1" viewBox="-10 0 1010 1000">
   <path fill="currentColor"
d="M656 197v-50h-203v-49h203v-54h68v54h212v49h-212v50h180v48h-411v-48h163zM498 341v72h-59v-123h510v121h-61v-70h-390zM85 897l-43 -18c17 -58 33 -156 39 -221l41 14c-7 67 -20 166 -37 225zM149 672l36 -5c11 58 17 134 15 183l-39 6c2 -50 -3 -125 -12 -184z
M243 146h-96v90h96v-90zM243 391v-95h-96v95h96zM243 543v-93h-96v93h96zM300 543h131s-1 21 -2 31c-11 238 -22 323 -45 352c-14 18 -29 25 -52 28c-19 1 -54 1 -87 -1c-1 -19 -7 -44 -16 -60c34 3 65 3 78 3s20 -1 27 -11c9 -13 17 -46 24 -120l-30 13
c-8 -36 -31 -90 -52 -131l33 -12c21 35 40 82 50 115c4 -38 7 -86 10 -146h-249v-1h-32v-519h333v62h-121v90h100v60h-100v95h100v59h-100v93zM287 815l-38 9c-4 -43 -18 -110 -35 -161l35 -8c19 51 33 117 38 160zM611 519v60h216v-60h-216zM951 741h-185
c50 59 131 113 207 138c-15 12 -35 35 -46 52c-72 -32 -150 -93 -200 -159v181h-68v-182c-53 69 -133 132 -206 166c-11 -16 -31 -39 -45 -51c76 -27 159 -84 210 -145h-184v-56h225v-64h-109v-83c-25 20 -50 37 -77 52c-7 -11 -28 -31 -40 -41c58 -28 113 -69 148 -120h-73
v-46h374v46h-237c-10 17 -20 33 -33 48h279v144h-164v64h224v56z" />
</svg>
