<?xml version="1.0" standalone="no"?>
<!DOCTYPE svg PUBLIC "-//W3C//DTD SVG 1.1//EN" "http://www.w3.org/Graphics/SVG/1.1/DTD/svg11.dtd" >
<svg xmlns="http://www.w3.org/2000/svg" xmlns:xlink="http://www.w3.org/1999/xlink" version="1.1" viewBox="-10 0 1010 1000">
   <path fill="currentColor"
d="M506 189v96h-59v-153h215c-8 -24 -22 -54 -36 -77l63 -20c20 27 36 65 44 89l-22 8h229v153h-61v-96h-373zM552 311l58 17c-31 41 -80 86 -123 114c-11 -11 -34 -29 -49 -37c44 -27 86 -60 114 -94zM86 898l-46 -19c18 -58 34 -156 41 -222l44 15c-8 66 -22 165 -39 226z
M146 672l39 -5c11 59 17 133 16 182l-41 6c2 -50 -4 -124 -14 -183zM150 450v94h94v-94h-94zM244 144h-94v92h94v-92zM244 391v-95h-94v95h94zM305 544h126s-1 20 -2 29c-11 240 -24 325 -47 354c-15 18 -32 25 -55 26c-20 2 -56 2 -92 0c-1 -18 -7 -41 -15 -57
c36 3 68 4 82 4s21 -2 29 -11c10 -13 19 -49 26 -126l-34 14c-8 -36 -31 -90 -52 -130l34 -12c22 38 43 86 53 120c4 -39 7 -89 11 -151h-281v-520h326v60h-109v92h94v60h-94v95h94v59h-94v94zM288 813l-39 10c-5 -43 -20 -110 -38 -160l37 -8c20 50 35 116 40 158zM566 722
v54h284v-54h-284zM850 576v-52h-284v52h284zM850 676v-53h-284v53h284zM918 824h-110c56 31 117 69 153 99l-57 39c-35 -33 -99 -77 -156 -110l34 -28h-156l44 26c-48 44 -127 88 -192 112c-10 -14 -32 -35 -47 -48c59 -20 127 -57 165 -90h-96v-300l-42 9
c-6 -15 -19 -38 -30 -53c76 -13 157 -33 230 -59v-128h-116v-51h300v51h-116v102c54 -24 102 -50 136 -79l50 36c-64 50 -150 92 -244 124h250v348z" />
</svg>
