<?xml version="1.0" standalone="no"?>
<!DOCTYPE svg PUBLIC "-//W3C//DTD SVG 1.1//EN" "http://www.w3.org/Graphics/SVG/1.1/DTD/svg11.dtd" >
<svg xmlns="http://www.w3.org/2000/svg" xmlns:xlink="http://www.w3.org/1999/xlink" version="1.1" viewBox="-10 0 1010 1000">
   <path fill="currentColor"
d="M81 898l-39 -19c15 -58 30 -156 36 -222l37 15c-6 68 -18 166 -34 226zM141 672l34 -5c9 58 15 134 14 182l-36 6c2 -50 -3 -124 -12 -183zM137 450v94h92v-94h-92zM229 148h-92v88h92v-88zM229 391v-95h-92v95h92zM282 544h120s0 21 -1 30c-11 238 -21 324 -42 353
c-14 18 -28 25 -48 27c-17 2 -49 1 -81 0c-1 -19 -6 -44 -15 -61c33 3 61 4 74 4c10 0 17 -2 24 -11c9 -13 16 -47 22 -121l-28 13c-8 -36 -27 -90 -47 -131l30 -12c19 36 38 83 46 117c3 -38 6 -86 9 -145h-264v-522h313v63h-112v88h92v60h-92v95h92v59h-92v94zM270 814
l-35 10c-3 -43 -17 -110 -32 -161l32 -8c17 50 31 117 35 159zM511 242v271c0 134 -10 320 -78 444c-10 -10 -37 -27 -52 -34c64 -118 70 -284 70 -410v-321h183v-149h66v55h205v49h-205v45h200l11 -2l41 11c-11 46 -25 100 -38 135l-51 -13c5 -21 13 -52 19 -81h-190v52
l126 -12l5 42l-131 12v24c0 18 5 21 34 21h108c21 0 25 -5 28 -40c12 8 33 15 48 18c-5 51 -22 65 -68 65h-122c-69 0 -87 -12 -87 -64v-19l-94 8l-5 -41l99 -9v-57h-122zM611 588v48h90v-48h-90zM611 500v46h90v-46h-90zM848 546v-46h-95v46h95zM848 636v-48h-95v48h95z
M556 678v-221h349v221h-349zM594 768v108h60v-108h-60zM759 768h-61v108h61v-108zM865 768h-61v108h61v-108zM919 876h37v55h-465v-55h50v-158h378v158z" />
</svg>
