<?xml version="1.0" standalone="no"?>
<!DOCTYPE svg PUBLIC "-//W3C//DTD SVG 1.1//EN" "http://www.w3.org/Graphics/SVG/1.1/DTD/svg11.dtd" >
<svg xmlns="http://www.w3.org/2000/svg" xmlns:xlink="http://www.w3.org/1999/xlink" version="1.1" viewBox="-10 0 1010 1000">
   <path fill="currentColor"
d="M950 122v55h-517v-55h227c-9 -23 -22 -47 -33 -68l63 -17c17 25 35 59 45 85h215zM78 891l-41 -18c18 -57 34 -153 41 -219l40 16c-8 65 -21 162 -40 221zM137 672l36 -3c7 56 12 130 13 179l-38 5c0 -49 -4 -123 -11 -181zM192 662l35 -7c16 51 31 117 38 161l-36 9
c-6 -44 -22 -111 -37 -163zM336 764l-35 14c-10 -35 -33 -90 -52 -132l32 -12c20 41 44 95 55 130zM141 449v94h85v-94h-85zM226 151h-85v92h85v-92zM226 390v-88h-85v88h85zM282 543h122s-1 21 -1 30c-7 243 -14 327 -33 354c-12 18 -26 24 -47 26c-17 2 -45 3 -73 1
c-1 -19 -7 -43 -16 -59c28 3 53 3 64 3s17 -1 23 -11c11 -17 18 -87 24 -281h-261v-518h313v63h-115v92h102v59h-102v88h103v59h-103v94zM622 590v55h131v-55h-131zM622 489v53h131v-53h-131zM511 267v71h98v-71h-98zM766 267v71h98v-71h-98zM909 712l43 40
c-35 26 -80 51 -120 70c38 36 82 62 132 79c-15 12 -35 35 -45 52c-112 -43 -194 -135 -238 -249c-23 22 -51 44 -80 64v101l131 -24c0 18 3 43 6 57c-163 36 -190 44 -206 54c-6 -14 -22 -38 -35 -48c17 -11 41 -36 41 -80v-22c-33 17 -68 33 -101 47
c-7 -13 -29 -39 -43 -50c76 -26 154 -61 210 -106h-184v-52h136v-55h-90v-48h90v-53h-112v-49h112v-55h-99v-166h208v166h-43v55h131v-55h-41v-166h208v166h-100v55h113v49h-113v53h93v48h-93v55h135v52h-212c14 31 32 61 53 86c39 -21 85 -50 113 -71z" />
</svg>
