<?xml version="1.0" standalone="no"?>
<!DOCTYPE svg PUBLIC "-//W3C//DTD SVG 1.1//EN" "http://www.w3.org/Graphics/SVG/1.1/DTD/svg11.dtd" >
<svg xmlns="http://www.w3.org/2000/svg" xmlns:xlink="http://www.w3.org/1999/xlink" version="1.1" viewBox="-10 0 1010 1000">
   <path fill="currentColor"
d="M295 665l6 58c-88 24 -178 50 -252 69l-15 -61c68 -15 164 -41 261 -66zM335 508h77s0 22 -1 31c-16 251 -31 345 -61 377c-18 20 -36 27 -66 29c-24 2 -71 1 -118 -1c-2 -20 -9 -45 -20 -63c48 5 94 6 113 6c17 0 26 -1 35 -12c21 -21 37 -102 49 -306h-267
c11 -87 25 -236 31 -342l64 3c-6 87 -15 195 -24 278h123c12 -93 25 -236 33 -357h-231v-64h235v-1h65c-9 136 -24 316 -37 422zM528 849h429v68h-499v-815h479v68h-409v679zM933 736l-59 41c-26 -57 -67 -130 -115 -206c-47 87 -98 165 -152 229c-11 -13 -40 -37 -56 -48
c60 -66 117 -152 166 -247c-50 -75 -105 -152 -157 -218l53 -35c45 57 93 121 138 184c31 -66 58 -137 81 -207l67 15c-29 89 -64 176 -104 257c58 88 108 171 138 235z" />
</svg>
