<?xml version="1.0" standalone="no"?>
<!DOCTYPE svg PUBLIC "-//W3C//DTD SVG 1.1//EN" "http://www.w3.org/Graphics/SVG/1.1/DTD/svg11.dtd" >
<svg xmlns="http://www.w3.org/2000/svg" xmlns:xlink="http://www.w3.org/1999/xlink" version="1.1" viewBox="-10 0 1010 1000">
   <path fill="currentColor"
d="M775 171l-64 29c-15 -36 -49 -91 -82 -131l59 -25c36 38 71 90 87 127zM301 668l7 61c-89 24 -181 48 -254 69l-16 -65c69 -14 165 -40 263 -65zM345 511h78s0 23 -1 32c-17 252 -32 346 -63 379c-18 21 -36 28 -66 30c-26 2 -73 2 -121 -1c-1 -20 -10 -47 -21 -66
c49 4 95 5 114 5c16 0 27 -1 35 -11c22 -21 37 -103 50 -307h-271c12 -87 25 -235 31 -342l65 4c-6 86 -16 194 -25 277h127c12 -98 25 -244 32 -368h-238v-64h310c-9 137 -23 320 -36 432zM565 459h291v-188h-291v188zM926 203v378h-70v-53h-291v27c0 130 -10 298 -89 408
c-13 -12 -47 -32 -64 -40c73 -103 80 -248 80 -369v-351h434z" />
</svg>
