<?xml version="1.0" standalone="no"?>
<!DOCTYPE svg PUBLIC "-//W3C//DTD SVG 1.1//EN" "http://www.w3.org/Graphics/SVG/1.1/DTD/svg11.dtd" >
<svg xmlns="http://www.w3.org/2000/svg" xmlns:xlink="http://www.w3.org/1999/xlink" version="1.1" viewBox="-10 0 1010 1000">
   <path fill="currentColor"
d="M291 672l7 61c-85 24 -172 48 -243 67l-16 -65c66 -15 159 -39 252 -63zM357 512h53s-1 22 -2 31c-16 253 -32 349 -62 381c-18 21 -36 27 -66 29c-25 3 -72 2 -120 -1c-2 -19 -10 -46 -20 -64c49 5 95 5 113 5c16 1 26 -2 35 -11c22 -22 37 -103 50 -310h-259
c11 -87 25 -235 31 -343l66 4c-6 86 -16 194 -25 278h126c11 -97 24 -235 32 -354h-237v-67h308c-9 135 -24 309 -36 421zM705 464h-139v188h139v-188zM768 715h-202v60h-62v-374h264v314zM931 205v38c-12 473 -23 625 -57 672c-20 27 -39 36 -70 40c-27 3 -72 2 -118 0
c-1 -21 -9 -52 -21 -72c49 4 93 4 112 4c16 0 26 -3 35 -17c26 -32 38 -185 49 -597h-301c-28 64 -61 120 -96 166c-13 -11 -42 -34 -59 -45c72 -85 126 -216 157 -351l71 16c-13 50 -29 99 -45 146h343z" />
</svg>
