<?xml version="1.0" standalone="no"?>
<!DOCTYPE svg PUBLIC "-//W3C//DTD SVG 1.1//EN" "http://www.w3.org/Graphics/SVG/1.1/DTD/svg11.dtd" >
<svg xmlns="http://www.w3.org/2000/svg" xmlns:xlink="http://www.w3.org/1999/xlink" version="1.1" viewBox="-10 0 1010 1000">
   <path fill="currentColor"
d="M299 663l7 60c-90 25 -181 50 -256 70l-15 -64c68 -15 166 -40 264 -66zM346 508h73s0 22 -2 31c-15 254 -31 349 -61 380c-18 21 -36 28 -66 30c-24 2 -71 2 -120 -1c-1 -20 -9 -45 -20 -63c49 4 95 5 114 5c16 0 26 -2 35 -12c22 -21 36 -103 50 -310h-272
c12 -87 25 -234 31 -339l66 2c-6 87 -16 193 -25 277h130c11 -94 24 -227 31 -342h-238v-64h310c-9 129 -24 298 -36 406zM876 383v-119h-390v119h-71v-188h245c-14 -36 -41 -92 -66 -133l69 -24c26 41 56 95 70 130l-70 27h286v188h-73zM639 872h181c49 0 57 -25 63 -158
c17 12 48 25 68 30c-10 154 -32 198 -127 198h-190c-102 0 -130 -26 -130 -119v-474h72v225c98 -42 200 -97 262 -145l56 56c-84 58 -208 113 -318 156v182c0 41 11 49 63 49z" />
</svg>
