<?xml version="1.0" standalone="no"?>
<!DOCTYPE svg PUBLIC "-//W3C//DTD SVG 1.1//EN" "http://www.w3.org/Graphics/SVG/1.1/DTD/svg11.dtd" >
<svg xmlns="http://www.w3.org/2000/svg" xmlns:xlink="http://www.w3.org/1999/xlink" version="1.1" viewBox="-10 0 1010 1000">
   <path fill="currentColor"
d="M824 304v-148h-196v148h196zM895 100v261h-334v-261h334zM426 185h-140c-28 101 -84 178 -203 225c-8 -15 -26 -39 -40 -51c98 -37 146 -97 171 -174h-143v-60h158c5 -25 8 -52 10 -80h71c-3 28 -6 55 -10 80h199s-1 18 -1 29c-10 122 -20 173 -39 193
c-15 15 -31 21 -54 22c-21 2 -60 1 -99 -1c-1 -18 -8 -42 -17 -58c38 4 72 4 84 4c14 0 22 -1 29 -8c9 -11 17 -44 24 -121zM728 761v61h-649v-61h649zM750 633h166s-1 21 -2 29c-18 165 -35 232 -62 258c-17 17 -37 23 -64 25c-23 2 -66 1 -113 -2c-1 -18 -8 -44 -19 -61
c44 4 85 4 103 4c15 0 24 -1 33 -8c17 -17 31 -68 45 -188h-622c17 -49 36 -123 48 -181l74 6c-8 38 -17 81 -28 118h365c11 -47 21 -101 29 -146h-520v-67h539l12 -4l55 9c-10 65 -24 142 -39 208z" />
</svg>
