<?xml version="1.0" standalone="no"?>
<!DOCTYPE svg PUBLIC "-//W3C//DTD SVG 1.1//EN" "http://www.w3.org/Graphics/SVG/1.1/DTD/svg11.dtd" >
<svg xmlns="http://www.w3.org/2000/svg" xmlns:xlink="http://www.w3.org/1999/xlink" version="1.1" viewBox="-10 0 1010 1000">
   <path fill="currentColor"
d="M305 658l6 61c-91 25 -184 50 -259 70l-16 -64c70 -15 168 -40 269 -67zM342 502h82s0 22 -1 31c-17 261 -32 357 -63 390c-19 21 -37 28 -68 29c-25 3 -73 2 -122 0c-1 -20 -9 -46 -21 -63c51 4 97 4 116 4c17 0 27 -1 37 -11c22 -22 37 -106 50 -319h-276
c12 -87 25 -235 31 -342l65 4c-6 86 -16 194 -25 277h127c11 -93 25 -230 33 -347h-235v-65h308c-10 131 -25 305 -38 412zM965 465l-60 33c-8 -21 -19 -43 -31 -69c-360 28 -403 33 -430 44c-4 -16 -15 -51 -24 -71c20 -4 39 -28 64 -65c27 -34 111 -168 163 -295l75 23
c-54 115 -121 229 -188 319l303 -19c-30 -52 -65 -106 -99 -150l56 -29c69 87 140 201 171 279zM841 621h-286v225h286v-225zM487 958v-404h426v401h-72v-42h-286v45h-68z" />
</svg>
