<?xml version="1.0" standalone="no"?>
<!DOCTYPE svg PUBLIC "-//W3C//DTD SVG 1.1//EN" "http://www.w3.org/Graphics/SVG/1.1/DTD/svg11.dtd" >
<svg xmlns="http://www.w3.org/2000/svg" xmlns:xlink="http://www.w3.org/1999/xlink" version="1.1" viewBox="-10 0 1010 1000">
   <path fill="currentColor"
d="M813 246v-110h-201v110h201zM886 80v223h-342v-223h342zM380 246v-110h-195v110h195zM452 80v223h-335v-223h335zM705 727v66h-623v-66h623zM750 581h166s-1 22 -2 32c-16 196 -30 273 -58 301c-19 20 -39 26 -68 28c-27 2 -80 2 -133 -1c-2 -20 -10 -47 -21 -65
c53 5 103 5 123 5c18 0 28 -1 36 -10c20 -17 33 -78 45 -224h-630c16 -51 35 -125 46 -186l73 8c-7 36 -16 76 -25 112h373c10 -49 20 -106 28 -153h-552v-67h568l13 -3l54 7c-9 68 -23 148 -36 216z" />
</svg>
