<?xml version="1.0" standalone="no"?>
<!DOCTYPE svg PUBLIC "-//W3C//DTD SVG 1.1//EN" "http://www.w3.org/Graphics/SVG/1.1/DTD/svg11.dtd" >
<svg xmlns="http://www.w3.org/2000/svg" xmlns:xlink="http://www.w3.org/1999/xlink" version="1.1" viewBox="-10 0 1010 1000">
   <path fill="currentColor"
d="M264 664l6 57c-78 22 -158 44 -224 61l-15 -61c61 -13 146 -34 233 -57zM322 512h53s-1 22 -2 31c-16 254 -32 348 -61 379c-16 20 -33 27 -60 29c-23 2 -60 2 -98 -1c-2 -19 -9 -44 -19 -62c40 4 75 5 90 5c14 0 24 -2 31 -12c21 -21 37 -103 50 -309h-230
c11 -87 25 -236 31 -342l63 3c-6 87 -15 195 -25 278h95c12 -97 25 -237 32 -357h-211v-64h279c-9 134 -24 311 -36 421zM652 279v602c0 29 -5 45 -23 55s-44 11 -85 11c-3 -15 -11 -39 -18 -55c29 1 53 1 61 1c9 0 12 -3 12 -12v-544h-121v616h-56v-674h230zM589 675
l-38 11c-13 -55 -41 -139 -66 -203l38 -9c25 64 53 147 66 201zM922 279v602c0 30 -5 46 -24 56c-18 10 -47 11 -91 11c-2 -16 -11 -39 -17 -55c30 1 58 1 66 1c9 -1 13 -4 13 -13v-543h-122v616h-55v-675h230zM865 683l-38 12c-12 -55 -40 -139 -65 -203l37 -9
c26 64 54 146 66 200zM393 107h550v66h-550v-66z" />
</svg>
