<?xml version="1.0" standalone="no"?>
<!DOCTYPE svg PUBLIC "-//W3C//DTD SVG 1.1//EN" "http://www.w3.org/Graphics/SVG/1.1/DTD/svg11.dtd" >
<svg xmlns="http://www.w3.org/2000/svg" xmlns:xlink="http://www.w3.org/1999/xlink" version="1.1" viewBox="-10 0 1010 1000">
   <path fill="currentColor"
d="M853 267v-81h-128v81h128zM853 403v-82h-128v82h128zM531 321v82h126v-82h-126zM531 186v81h126v-81h-126zM920 130v329h-453v-329h190v-86h68v86h195zM301 667l6 59c-90 25 -182 50 -257 70l-15 -63c69 -15 166 -40 266 -66zM343 511h78s0 22 -1 31
c-17 253 -32 347 -62 379c-19 20 -37 27 -67 29c-26 2 -73 1 -122 -1c-1 -20 -10 -45 -21 -63c50 4 96 5 116 5c15 0 26 -2 36 -11c22 -21 36 -103 49 -308h-270c11 -87 25 -236 31 -342l64 3c-6 87 -16 195 -25 278h126c12 -97 26 -237 33 -357h-234v-65h306
c-9 134 -25 309 -37 422zM953 580h-327c-9 31 -17 64 -26 93h309s-1 21 -3 31c-16 139 -31 200 -56 224c-18 18 -36 23 -64 25c-25 1 -73 1 -123 -2c-1 -21 -8 -47 -20 -66c48 5 97 6 114 6s27 -1 35 -9c16 -14 29 -55 40 -147h-322c14 -43 32 -101 46 -155h-116v-62h513v62
z" />
</svg>
