<?xml version="1.0" standalone="no"?>
<!DOCTYPE svg PUBLIC "-//W3C//DTD SVG 1.1//EN" "http://www.w3.org/Graphics/SVG/1.1/DTD/svg11.dtd" >
<svg xmlns="http://www.w3.org/2000/svg" xmlns:xlink="http://www.w3.org/1999/xlink" version="1.1" viewBox="-10 0 1010 1000">
   <path fill="currentColor"
d="M302 665l6 62c-90 24 -182 50 -257 69l-16 -65c69 -15 167 -41 267 -66zM344 509h79s0 22 -1 30c-17 255 -32 349 -63 381c-18 21 -36 28 -67 30c-25 2 -73 1 -122 -2c-1 -19 -9 -44 -21 -62c51 4 97 5 116 5c17 0 27 -2 36 -12c22 -21 37 -103 50 -310h-272
c11 -87 25 -235 31 -341l66 3c-6 86 -16 195 -25 278h124c12 -92 26 -230 34 -347h-238v-66h311c-9 132 -25 307 -38 413zM581 742l70 18c-35 76 -95 153 -153 200c-12 -12 -41 -34 -58 -43c57 -44 110 -108 141 -175zM742 768l60 -30c50 57 111 135 138 184l-63 35
c-27 -50 -85 -132 -135 -189zM600 551v96h193v-96h-193zM793 252h-193v86h193v-86zM600 399v91h193v-91h-193zM865 647h94v65h-517v-65h87v-395h-80v-65h80v-141h71v141h193v-141h72v141h78v65h-78v395z" />
</svg>
