<?xml version="1.0" standalone="no"?>
<!DOCTYPE svg PUBLIC "-//W3C//DTD SVG 1.1//EN" "http://www.w3.org/Graphics/SVG/1.1/DTD/svg11.dtd" >
<svg xmlns="http://www.w3.org/2000/svg" xmlns:xlink="http://www.w3.org/1999/xlink" version="1.1" viewBox="-10 0 1010 1000">
   <path fill="currentColor"
d="M930 378l-46 51c-44 -34 -127 -90 -199 -133c-38 63 -101 106 -207 137c-7 -16 -24 -42 -37 -53c127 -35 183 -89 210 -176h-190v-62h202c4 -29 7 -62 9 -97h69c-2 35 -4 68 -8 97h198v62h-210c-3 13 -6 25 -10 37c73 42 169 100 219 137zM300 669l7 58
c-90 25 -182 50 -257 69l-15 -61c69 -15 167 -41 265 -66zM344 511h77s0 22 -1 31c-17 256 -33 351 -63 383c-18 21 -37 28 -67 29c-25 3 -72 2 -121 -1c-2 -19 -9 -45 -20 -63c49 5 95 5 114 5c17 1 27 -1 37 -11c22 -22 37 -104 50 -312h-271c11 -87 24 -235 30 -342l66 4
c-6 86 -16 194 -25 277h126c11 -93 24 -230 32 -347h-237v-65h309c-9 132 -24 306 -36 412zM687 624h-130v115h130v-115zM747 795h-190v66h-59v-293h249v227zM958 439v65h-63v371c0 39 -9 58 -38 70c-29 11 -74 12 -142 12c-4 -20 -17 -48 -27 -67c54 2 102 2 116 1
c15 0 19 -4 19 -17v-370h-387v-65h522z" />
</svg>
