<?xml version="1.0" standalone="no"?>
<!DOCTYPE svg PUBLIC "-//W3C//DTD SVG 1.1//EN" "http://www.w3.org/Graphics/SVG/1.1/DTD/svg11.dtd" >
<svg xmlns="http://www.w3.org/2000/svg" xmlns:xlink="http://www.w3.org/1999/xlink" version="1.1" viewBox="-10 0 1010 1000">
   <path fill="currentColor"
d="M265 664l6 57c-78 22 -158 44 -225 61l-14 -61c60 -13 146 -35 233 -57zM867 671l52 36c-94 109 -278 208 -448 251c-6 -19 -20 -46 -33 -64c164 -32 346 -123 429 -223zM681 483l48 29c-50 66 -150 133 -239 169c-5 -17 -20 -42 -32 -57c82 -25 178 -82 223 -141z
M772 576l49 32c-68 82 -204 164 -323 202c-7 -18 -22 -43 -35 -58c115 -29 247 -102 309 -176zM939 405h-141c42 47 101 88 158 111c-11 17 -24 46 -29 65c-79 -39 -158 -107 -204 -176h-81c-48 71 -120 134 -219 181c-7 -16 -22 -40 -36 -52l-1 8c-16 255 -32 348 -60 379
c-17 21 -34 27 -61 29c-22 2 -60 2 -98 0c-1 -19 -9 -45 -20 -62c41 3 76 4 93 4c12 0 22 -2 31 -12c20 -20 35 -102 48 -308h-243c11 -88 25 -236 31 -343l65 4c-6 86 -16 195 -25 278h107c13 -97 25 -238 32 -357h-225v-64h294c-8 133 -23 308 -36 421h69l-1 18
c73 -34 128 -77 170 -124h-148v-63h193c14 -25 26 -51 34 -76c-133 12 -158 17 -175 24c-3 -15 -14 -52 -23 -71c17 -2 35 -14 56 -32c22 -16 96 -82 144 -148l72 31c-47 52 -102 104 -155 145l217 -19c-21 -22 -43 -44 -63 -63l51 -35c53 50 123 119 157 163l-54 41
c-10 -16 -26 -34 -43 -54l-109 10c-8 28 -19 57 -32 84h260v63z" />
</svg>
