<?xml version="1.0" standalone="no"?>
<!DOCTYPE svg PUBLIC "-//W3C//DTD SVG 1.1//EN" "http://www.w3.org/Graphics/SVG/1.1/DTD/svg11.dtd" >
<svg xmlns="http://www.w3.org/2000/svg" xmlns:xlink="http://www.w3.org/1999/xlink" version="1.1" viewBox="-10 0 1010 1000">
   <path fill="currentColor"
d="M288 657l7 57c-88 24 -177 49 -248 69l-16 -62c67 -15 161 -39 257 -64zM315 503h68s0 21 -1 30c-17 263 -33 360 -64 394c-17 20 -35 27 -65 29c-25 2 -71 1 -119 -2c-2 -19 -9 -45 -20 -62c49 5 94 5 113 5c17 1 27 -1 36 -11c23 -22 38 -108 51 -323h-256
c12 -87 25 -235 31 -342l65 5c-6 86 -15 194 -24 277h119c12 -94 26 -233 34 -352h-230v-65h300c-10 134 -25 310 -38 417zM499 676h129v-117h-129v117zM823 559h-130v117h130v-117zM772 771l56 -23c48 57 106 135 133 185l-60 28c-8 -17 -20 -36 -34 -58
c-172 12 -354 21 -478 27l-8 -66c66 -3 152 -6 247 -11v-118h-193v-235h193v-79h65v79h197v235h-197v115l135 -6c-19 -25 -37 -51 -56 -73zM586 169l45 -23c27 24 61 59 78 80l-46 28c-16 -23 -51 -59 -77 -85zM815 144h-319c36 66 90 121 157 165c67 -44 124 -100 162 -165
zM867 80l44 21c-43 101 -112 181 -197 243c74 37 160 64 254 79c-14 14 -32 40 -41 57c-101 -19 -192 -52 -271 -98c-79 47 -166 82 -254 104c-7 -17 -23 -43 -36 -58c80 -17 159 -46 231 -84c-69 -51 -124 -113 -163 -186l38 -14h-62v-61h445z" />
</svg>
