<?xml version="1.0" standalone="no"?>
<!DOCTYPE svg PUBLIC "-//W3C//DTD SVG 1.1//EN" "http://www.w3.org/Graphics/SVG/1.1/DTD/svg11.dtd" >
<svg xmlns="http://www.w3.org/2000/svg" xmlns:xlink="http://www.w3.org/1999/xlink" version="1.1" viewBox="-10 0 1010 1000">
   <path fill="currentColor"
d="M334 520h-158v71h158v-71zM176 718h158v-74h-158v74zM169 251v94h66v-94h-66zM341 136h-172v64h111v145h61v-209zM453 475h-57v-76h-278v66h276v409c0 35 -6 53 -27 64c-20 11 -50 12 -96 12c-2 -19 -12 -46 -19 -63c31 1 61 1 69 0c10 0 13 -3 13 -14v-100h-158v182h-60
v-474h-53v-136h51v-266h282v266h57v130zM547 558h124c1 -20 1 -38 1 -57v-39h-125v96zM547 311v94h125v-94h-125zM869 311h-129v94h129v-94zM869 558v-96h-129v38c0 19 0 38 -1 58h130zM936 617h-202c-7 61 -23 121 -54 175c73 53 171 88 287 104c-14 16 -33 43 -43 64
c-114 -21 -208 -58 -282 -115c-40 46 -95 88 -171 120c-9 -16 -28 -42 -43 -56c75 -27 128 -65 164 -108c-40 -40 -72 -88 -96 -145l61 -14c18 40 41 75 71 105c21 -41 32 -85 38 -130h-184v-365h190v-88h-217v-63h494v63h-209v88h196v365z" />
</svg>
