<?xml version="1.0" standalone="no"?>
<!DOCTYPE svg PUBLIC "-//W3C//DTD SVG 1.1//EN" "http://www.w3.org/Graphics/SVG/1.1/DTD/svg11.dtd" >
<svg xmlns="http://www.w3.org/2000/svg" xmlns:xlink="http://www.w3.org/1999/xlink" version="1.1" viewBox="-10 0 1010 1000">
   <path fill="currentColor"
d="M859 358h-158v80h158v-80zM701 572h158v-81h-158v81zM639 805v-418c-20 27 -41 50 -65 72c-8 -12 -33 -36 -49 -45c60 -50 105 -118 137 -199h-109v-62h130c10 -34 18 -72 25 -110l65 9c-7 35 -15 69 -24 101h204v62h-224c-10 30 -23 60 -37 87h232v431
c0 33 -6 50 -28 61c-21 11 -55 11 -105 11c-2 -17 -11 -43 -18 -59c34 1 64 1 74 0c9 0 12 -3 12 -13v-106h-158v178h-62zM553 284l-57 29c-14 -43 -49 -112 -83 -163l55 -24c34 50 71 115 85 158zM177 251v99h63v-99h-63zM333 136h-156v64h108v150h48v-214zM328 526h-145
v73h145v-73zM183 728h145v-75h-145v75zM450 489h-58v-84h-271v67h270v416c0 31 -6 47 -28 58c-20 9 -52 10 -101 10c-3 -17 -11 -40 -20 -56c33 1 64 1 72 0c10 -1 14 -3 14 -13v-105h-145v174h-62v-463h-56v-143h57v-271h268v271h60v139zM556 494v288c18 11 35 30 62 50
c45 34 94 47 164 47c48 0 131 -4 185 -11c-6 18 -15 51 -16 69c-39 4 -124 7 -171 7c-75 0 -127 -16 -176 -56c-32 -26 -58 -55 -78 -55s-53 59 -82 122l-43 -60c33 -52 66 -92 95 -111v-232h-69v-58h129z" />
</svg>
