<?xml version="1.0" standalone="no"?>
<!DOCTYPE svg PUBLIC "-//W3C//DTD SVG 1.1//EN" "http://www.w3.org/Graphics/SVG/1.1/DTD/svg11.dtd" >
<svg xmlns="http://www.w3.org/2000/svg" xmlns:xlink="http://www.w3.org/1999/xlink" version="1.1" viewBox="-10 0 1010 1000">
   <path fill="currentColor"
d="M390 475v-66h-286v66h286zM164 727h170v-74h-170v74zM334 600v-71h-170v71h170zM155 253v102h74v-102h-74zM337 136h-182v66h120v153h62v-219zM449 498h-53v383c0 31 -6 48 -28 58s-55 10 -111 10c-3 -16 -13 -39 -21 -56c39 1 74 1 83 1c11 0 15 -4 15 -14v-99h-170v175
h-63v-458h-54v-143h49v-276h302v276h51v143zM595 748v103h141v-103h-141zM599 433l-4 6v94h141v-100h-137zM736 690v-99h-141v99h141zM956 851l1 60h-362v45h-67v-431c-19 20 -39 40 -60 57c-3 -18 -16 -55 -27 -73c86 -73 154 -177 203 -300h-113v107h-56v-171h191
c11 -34 21 -69 30 -105l64 12c-8 31 -17 63 -26 93h197v170h-58v-106h-161c-22 59 -46 113 -76 164h110c-11 -30 -27 -66 -41 -95l59 -14c17 34 38 77 49 109h140v60h-152v100h126v58h-126v99h126v58h-126v103h155z" />
</svg>
