<?xml version="1.0" standalone="no"?>
<!DOCTYPE svg PUBLIC "-//W3C//DTD SVG 1.1//EN" "http://www.w3.org/Graphics/SVG/1.1/DTD/svg11.dtd" >
<svg xmlns="http://www.w3.org/2000/svg" xmlns:xlink="http://www.w3.org/1999/xlink" version="1.1" viewBox="-10 0 1010 1000">
   <path fill="currentColor"
d="M514 190v83h-60v-142h223c-10 -25 -21 -53 -32 -75l65 -19c15 28 31 66 42 94h197v142h-62v-83h-373zM884 752h-62v-253h-252v259h-60v-319h374v313zM921 294v56h-109v62h-57v-62h-104v60h-57v-60h-97v-56h97v-63h57v63h104v-63h57v63h109zM399 465v-66h-277v66h277z
M175 596h186v-71h-186v71zM175 723h186v-74h-186v74zM168 252v93h84v-93h-84zM356 139h-188v63h133v143h55v-206zM460 475h-38v407c0 32 -6 48 -28 57c-22 10 -55 11 -107 11c-3 -17 -12 -40 -21 -55c38 1 72 1 81 0c11 0 14 -3 14 -13v-105h-186v180h-59v-476h-53v-136h50
v-267h300v267h47v130zM795 889h79c25 0 29 -13 32 -130c13 10 40 21 57 26c-6 134 -23 164 -82 164h-92c-69 0 -85 -19 -85 -84v-105c-28 70 -93 144 -233 205c-9 -15 -30 -37 -45 -48c220 -85 235 -208 235 -287v-82h66v83c0 22 -1 47 -6 72h46v163c0 20 4 23 28 23z" />
</svg>
