<?xml version="1.0" standalone="no"?>
<!DOCTYPE svg PUBLIC "-//W3C//DTD SVG 1.1//EN" "http://www.w3.org/Graphics/SVG/1.1/DTD/svg11.dtd" >
<svg xmlns="http://www.w3.org/2000/svg" xmlns:xlink="http://www.w3.org/1999/xlink" version="1.1" viewBox="-10 0 1010 1000">
   <path fill="currentColor"
d="M637 700h-285v93h285v-93zM704 644v205h-352v49h-69v-254h421zM902 522v356c0 36 -9 51 -36 61c-26 9 -69 10 -132 9c-4 -17 -15 -40 -24 -55c43 2 89 1 101 1c13 -1 17 -4 17 -16v-293h-657v371h-72v-434h803zM718 413v-90h-431v90h431zM214 268h580v200h-580v-200z
M553 148h381v64h-871v-64h409c-9 -29 -21 -63 -31 -91l72 -17c14 34 29 76 40 108z" />
</svg>
