<?xml version="1.0" standalone="no"?>
<!DOCTYPE svg PUBLIC "-//W3C//DTD SVG 1.1//EN" "http://www.w3.org/Graphics/SVG/1.1/DTD/svg11.dtd" >
<svg xmlns="http://www.w3.org/2000/svg" xmlns:xlink="http://www.w3.org/1999/xlink" version="1.1" viewBox="-10 0 1010 1000">
   <path fill="currentColor"
d="M887 351l62 24c-74 83 -211 139 -358 169c-9 -16 -24 -39 -39 -53c137 -23 270 -71 335 -140zM855 197l59 26c-70 65 -187 119 -294 150c-9 -14 -26 -36 -42 -48c101 -26 215 -73 277 -128zM819 51l59 28c-74 58 -188 112 -279 143c-11 -14 -30 -33 -46 -46
c88 -27 202 -76 266 -125zM186 486l231 -15c-16 -16 -33 -32 -48 -45l45 -23h-143c-27 30 -56 59 -85 83zM543 534l-51 29c-8 -13 -19 -28 -31 -44c-305 24 -342 28 -363 37c-4 -14 -13 -44 -21 -61c15 -2 29 -10 44 -23c11 -9 41 -36 69 -69h-133v-50h87v-274h376v49h-308
v45h277v44h-277v45h276v44h-276v47h17l1 -2l3 2h327v50h-140c47 37 98 93 123 131zM698 875h140c36 0 42 -15 46 -119c16 11 45 23 66 28c-9 126 -30 158 -106 158h-154c-89 0 -112 -22 -112 -99v-187h-176c-28 152 -96 249 -313 302c-7 -18 -25 -48 -40 -62
c195 -42 254 -119 277 -240h-263v-68h877v68h-291v187c0 26 7 32 49 32z" />
</svg>
