<?xml version="1.0" standalone="no"?>
<!DOCTYPE svg PUBLIC "-//W3C//DTD SVG 1.1//EN" "http://www.w3.org/Graphics/SVG/1.1/DTD/svg11.dtd" >
<svg xmlns="http://www.w3.org/2000/svg" xmlns:xlink="http://www.w3.org/1999/xlink" version="1.1" viewBox="-10 0 1010 1000">
   <path fill="currentColor"
d="M893 339l51 40c-77 64 -220 111 -349 136c-7 -15 -23 -38 -36 -51c125 -22 264 -67 334 -125zM866 193l47 38c-72 54 -199 103 -305 128c-8 -12 -24 -34 -36 -47c103 -24 227 -70 294 -119zM836 54l48 40c-71 56 -195 102 -304 127c-8 -14 -24 -35 -38 -48
c107 -23 229 -68 294 -119zM534 498l-30 15c17 21 36 47 49 68h391v61h-513c-6 28 -13 55 -22 79h407s-2 21 -4 30c-12 105 -25 152 -49 172c-18 17 -40 22 -73 23c-29 1 -93 1 -159 -3c-1 -19 -9 -44 -21 -62c64 6 131 7 154 7c22 0 32 -1 41 -8c13 -10 22 -38 31 -99h-355
c-49 81 -136 140 -298 177c-5 -18 -24 -48 -38 -62c221 -42 284 -131 310 -254h-297v-61h425c-11 -18 -24 -36 -37 -51l34 -14c-4 -8 -11 -17 -18 -27c-293 29 -328 32 -350 41c-4 -12 -14 -41 -22 -56c14 -2 27 -10 42 -23c10 -10 39 -39 66 -74h-127v-48h86v-249h370v46
h-305v40h281v41h-281v40h283v42h-283v40h340v48h-286c-25 32 -53 62 -82 88l231 -20c-16 -16 -33 -31 -48 -45l48 -21c42 34 89 85 109 119z" />
</svg>
