<?xml version="1.0" standalone="no"?>
<!DOCTYPE svg PUBLIC "-//W3C//DTD SVG 1.1//EN" "http://www.w3.org/Graphics/SVG/1.1/DTD/svg11.dtd" >
<svg xmlns="http://www.w3.org/2000/svg" xmlns:xlink="http://www.w3.org/1999/xlink" version="1.1" viewBox="-10 0 1010 1000">
   <path fill="currentColor"
d="M826 46l56 28c-76 56 -193 102 -291 130c-10 -14 -27 -33 -42 -45c94 -24 211 -67 277 -113zM858 172l59 25c-74 62 -196 110 -306 138c-9 -14 -26 -36 -41 -49c105 -23 225 -65 288 -114zM200 432l212 -12c-10 -12 -20 -24 -29 -34l38 -15h-141c-26 24 -53 44 -80 61z
M518 483l-52 21c-6 -12 -14 -25 -24 -40c-286 18 -319 22 -338 29c-3 -12 -12 -41 -19 -55c14 -1 27 -6 42 -15c12 -6 44 -26 73 -52h-143v-46h86v-256h375v46h-306v40h281v43h-281v41h281v43h-281v43h349v46h-126c31 35 67 80 83 112zM807 676h-278v61h270
c3 -19 6 -38 8 -61zM79 566v-53h847v53h-397v58h357s-1 21 -3 30c-20 173 -40 245 -71 273c-19 19 -40 24 -70 25c-28 2 -82 2 -138 -2c-2 -19 -8 -44 -19 -61c55 5 109 5 129 5s30 -1 39 -9c14 -12 27 -40 38 -95h-631c12 -52 27 -130 35 -191l70 6c-6 43 -15 91 -24 132
h218v-171h-380zM888 302l59 24c-72 78 -210 130 -356 159c-8 -15 -24 -38 -37 -50c136 -23 269 -67 334 -133z" />
</svg>
