<?xml version="1.0" standalone="no"?>
<!DOCTYPE svg PUBLIC "-//W3C//DTD SVG 1.1//EN" "http://www.w3.org/Graphics/SVG/1.1/DTD/svg11.dtd" >
<svg xmlns="http://www.w3.org/2000/svg" xmlns:xlink="http://www.w3.org/1999/xlink" version="1.1" viewBox="-10 0 1010 1000">
   <path fill="currentColor"
d="M895 347l51 40c-76 64 -219 111 -348 136c-7 -15 -23 -38 -36 -51c125 -22 264 -67 333 -125zM866 196l48 38c-69 54 -188 102 -289 128c-8 -13 -25 -34 -38 -47c99 -23 216 -70 279 -119zM831 53l51 38c-60 57 -172 104 -270 130c-8 -14 -24 -36 -38 -48
c95 -23 202 -68 257 -120zM200 450l217 -17c-14 -15 -27 -31 -40 -43l36 -17h-133c-25 29 -52 56 -80 77zM540 491l-56 27c-7 -12 -18 -25 -29 -40c-289 25 -323 29 -343 38c-4 -14 -13 -45 -21 -61c13 -2 26 -8 40 -17c11 -8 42 -34 69 -65h-129v-48h86v-249h371v46h-306
v39h281v42h-281v40h283v41h-283v41h340v48h-123c38 36 81 85 101 118zM700 737h-302c40 35 93 64 155 87c59 -23 109 -52 147 -87zM764 683l42 29c-41 57 -100 103 -169 138c92 24 198 39 310 45c-14 15 -30 42 -39 61c-128 -11 -249 -33 -352 -71c-94 36 -201 59 -309 74
c-6 -17 -24 -45 -37 -58c92 -10 183 -26 266 -50c-59 -29 -108 -64 -146 -106c-60 87 -138 162 -236 213c-12 -14 -39 -35 -56 -47c133 -66 227 -172 283 -289h-259v-57h283c7 -20 14 -38 19 -58l75 16l-15 42h514v57h-538c-9 21 -21 43 -33 64h384z" />
</svg>
