<?xml version="1.0" standalone="no"?>
<!DOCTYPE svg PUBLIC "-//W3C//DTD SVG 1.1//EN" "http://www.w3.org/Graphics/SVG/1.1/DTD/svg11.dtd" >
<svg xmlns="http://www.w3.org/2000/svg" xmlns:xlink="http://www.w3.org/1999/xlink" version="1.1" viewBox="-10 0 1010 1000">
   <path fill="currentColor"
d="M831 53l50 38c-60 56 -171 103 -269 129c-8 -14 -24 -37 -38 -49c95 -22 202 -67 257 -118zM866 193l48 37c-69 53 -188 100 -289 125c-8 -12 -25 -34 -37 -47c98 -23 215 -68 278 -115zM203 444l215 -15c-14 -16 -27 -31 -41 -44l36 -17h-133c-24 28 -51 55 -77 76z
M540 484l-57 27c-7 -12 -17 -24 -29 -39c-288 24 -322 29 -342 37c-4 -14 -13 -44 -21 -59c13 -3 26 -8 40 -17c11 -8 43 -34 70 -65h-130v-48h86v-244h371v45h-306v40h281v40h-281v39h283v41h-283v39h340v48h-123c38 35 80 83 101 116zM700 737h-301c39 35 92 65 153 87
c59 -23 109 -52 148 -87zM775 540l-25 25h188v57h-545c-9 21 -19 43 -31 63h389l13 -2l42 28c-41 58 -101 104 -171 140c90 23 194 38 302 45c-14 16 -31 42 -39 61c-125 -11 -243 -33 -343 -71c-92 35 -196 58 -301 73c-7 -17 -24 -45 -36 -59c89 -9 177 -25 257 -48
c-59 -31 -109 -67 -147 -110c-57 88 -133 165 -229 218c-13 -14 -39 -35 -56 -46c128 -67 218 -175 273 -292h-254v-57h278c8 -25 16 -50 22 -75l75 14c-6 21 -13 40 -21 61h291c-29 -17 -69 -35 -101 -48l28 -26c-13 2 -25 5 -37 7c-7 -14 -22 -38 -35 -50
c125 -20 264 -65 333 -123l50 39c-63 54 -174 95 -285 122c41 15 88 37 115 54z" />
</svg>
