<?xml version="1.0" standalone="no"?>
<!DOCTYPE svg PUBLIC "-//W3C//DTD SVG 1.1//EN" "http://www.w3.org/Graphics/SVG/1.1/DTD/svg11.dtd" >
<svg xmlns="http://www.w3.org/2000/svg" xmlns:xlink="http://www.w3.org/1999/xlink" version="1.1" viewBox="-10 0 1010 1000">
   <path fill="currentColor"
d="M887 313l63 23c-75 81 -212 132 -358 161c-9 -17 -25 -39 -39 -54c135 -22 270 -65 334 -130zM860 177l60 26c-73 64 -192 112 -300 142c-9 -16 -26 -37 -42 -50c101 -23 219 -66 282 -118zM825 51l58 28c-76 57 -195 106 -291 134c-11 -14 -29 -34 -44 -47
c92 -24 211 -68 277 -115zM415 386h-147c-24 27 -52 52 -79 74l229 -18c-13 -14 -27 -26 -41 -37zM258 507l46 16c-18 33 -38 66 -61 98v343h-69v-259c-30 34 -63 65 -95 89c-7 -15 -28 -50 -42 -66c75 -53 148 -134 195 -218c-98 9 -119 13 -134 19v1v-1h-1v-3
c-4 -15 -12 -42 -19 -55c15 -2 29 -10 44 -23c11 -8 40 -31 67 -62h-132v-51h87v-257h374v48h-306v41h276v43h-276v41h276v43h-276v41h19l1 -1l2 1h326v51h-125c46 36 93 87 117 125l-54 26c-9 -13 -21 -30 -36 -48c-89 8 -154 14 -204 18zM941 652h-239
c64 83 167 160 262 199c-17 13 -38 37 -48 56c-94 -46 -194 -131 -262 -223v272h-72v-264c-68 90 -166 173 -255 218c-11 -17 -31 -40 -46 -54c92 -40 194 -120 258 -204h-226v-63h269v-89h72v89h287v63z" />
</svg>
