<?xml version="1.0" standalone="no"?>
<!DOCTYPE svg PUBLIC "-//W3C//DTD SVG 1.1//EN" "http://www.w3.org/Graphics/SVG/1.1/DTD/svg11.dtd" >
<svg xmlns="http://www.w3.org/2000/svg" xmlns:xlink="http://www.w3.org/1999/xlink" version="1.1" viewBox="-10 0 1010 1000">
   <path fill="currentColor"
d="M883 251l56 22c-72 73 -209 120 -351 145c-8 -16 -22 -36 -35 -49c133 -19 265 -59 330 -118zM854 147l54 23c-76 59 -204 101 -316 126c-10 -14 -25 -33 -38 -44c107 -20 234 -58 300 -105zM821 45l55 23c-77 55 -199 95 -307 119c-9 -14 -23 -33 -37 -46
c101 -18 221 -53 289 -96zM529 815v42h404v49h-404v49h-73v-49h-386v-49h386v-42h-281v-45h281v-42h-304v-44h304v-41h73v41h323v44h-323v42h301v45h-301zM297 506c50 25 117 46 195 63c67 -17 128 -39 177 -63h-372zM417 332h-150c-25 22 -50 41 -75 56l231 -14
c-10 -10 -20 -20 -30 -29zM753 456l38 33c-50 40 -118 73 -195 99c113 17 240 28 357 33c-13 13 -27 37 -34 54c-143 -7 -298 -26 -433 -56c-128 32 -271 49 -405 60c-4 -15 -17 -39 -27 -51c109 -6 224 -18 329 -36c-53 -17 -101 -37 -141 -59c-37 17 -75 30 -111 41
c-9 -14 -29 -35 -41 -46c84 -21 183 -60 235 -104c-185 13 -211 17 -228 23c-3 -13 -12 -41 -19 -56c13 -1 27 -5 40 -12c11 -6 41 -24 69 -47h-130v-46h86v-217h377v43h-308v31h280v38h-280v36h280v38h-280v31h331v46h-91c28 26 57 58 72 79l-48 28c-5 -8 -11 -16 -18 -25
l-93 7l35 12c-9 8 -18 17 -29 26h372z" />
</svg>
