<?xml version="1.0" standalone="no"?>
<!DOCTYPE svg PUBLIC "-//W3C//DTD SVG 1.1//EN" "http://www.w3.org/Graphics/SVG/1.1/DTD/svg11.dtd" >
<svg xmlns="http://www.w3.org/2000/svg" xmlns:xlink="http://www.w3.org/1999/xlink" version="1.1" viewBox="-10 0 1010 1000">
   <path fill="currentColor"
d="M824 48l58 29c-78 55 -196 105 -291 133c-11 -14 -28 -33 -44 -46c90 -25 210 -70 277 -116zM859 175l60 26c-73 63 -193 111 -301 140c-10 -15 -26 -35 -42 -48c102 -24 221 -66 283 -118zM408 381h-152c-20 21 -43 41 -66 59l231 -17c-12 -11 -25 -20 -36 -29zM536 786
v87h403v58h-876v-58h401v-87h-281v-55h281v-225h34c-8 -11 -18 -24 -30 -37c-310 26 -347 30 -369 39c-4 -12 -13 -43 -22 -59c15 -2 27 -7 42 -19c8 -7 31 -25 55 -49h-118v-49h88v-257h374v48h-306v41h279v43h-279v41h279v43h-279v41h342v49h-104c40 31 81 72 103 101
l-42 24h25v225h280v55h-280zM252 506l63 12c-7 19 -15 37 -25 54c49 34 107 80 138 109l-44 45c-28 -28 -79 -71 -125 -106c-36 49 -83 88 -134 119c-10 -12 -34 -33 -49 -43c81 -42 146 -108 176 -190zM714 504l64 12c-8 21 -17 40 -27 59c54 36 119 84 153 116l-44 45
c-31 -30 -89 -77 -142 -114c-33 41 -74 76 -117 101c-11 -11 -35 -33 -49 -43c74 -39 135 -100 162 -176zM888 310l61 24c-74 77 -211 127 -355 156c-9 -17 -25 -38 -39 -53c135 -21 268 -63 333 -127z" />
</svg>
