<?xml version="1.0" standalone="no"?>
<!DOCTYPE svg PUBLIC "-//W3C//DTD SVG 1.1//EN" "http://www.w3.org/Graphics/SVG/1.1/DTD/svg11.dtd" >
<svg xmlns="http://www.w3.org/2000/svg" xmlns:xlink="http://www.w3.org/1999/xlink" version="1.1" viewBox="-10 0 1010 1000">
   <path fill="currentColor"
d="M884 311l62 24c-78 76 -219 127 -361 156c-9 -15 -26 -37 -39 -51c132 -22 269 -68 338 -129zM855 176l57 24c-71 63 -188 113 -296 142c-9 -14 -25 -33 -39 -46c100 -24 216 -68 278 -120zM819 49l56 26c-74 58 -191 109 -287 139c-10 -13 -27 -31 -41 -43
c91 -26 208 -73 272 -122zM184 447l233 -9c-13 -13 -27 -26 -41 -36l35 -19h-154c-24 24 -48 46 -73 64zM531 484l-49 28c-6 -9 -14 -19 -23 -29c-302 15 -337 18 -357 26c-3 -13 -12 -42 -19 -56c12 -2 24 -7 36 -16c10 -7 37 -28 62 -54h-123v-48h81v-257h373v48h-305v41
h282v42h-282v42h282v42h-282v42h354v48h-129c39 30 80 71 99 101zM927 915l-58 41c-63 -28 -192 -74 -289 -105l55 -35c92 27 221 70 292 99zM281 761h381v-73h-381v73zM735 688v73h207v55h-574l52 32c-75 47 -200 89 -306 109c-8 -14 -27 -34 -39 -47
c102 -19 223 -57 283 -94h-301v-55h151v-221c188 -7 411 -24 535 -46l49 47c-136 23 -334 40 -511 47v47h618v53h-164z" />
</svg>
