<?xml version="1.0" standalone="no"?>
<!DOCTYPE svg PUBLIC "-//W3C//DTD SVG 1.1//EN" "http://www.w3.org/Graphics/SVG/1.1/DTD/svg11.dtd" >
<svg xmlns="http://www.w3.org/2000/svg" xmlns:xlink="http://www.w3.org/1999/xlink" version="1.1" viewBox="-10 0 1010 1000">
   <path fill="currentColor"
d="M887 246l56 22c-76 71 -217 117 -360 143c-8 -14 -21 -36 -34 -47c133 -20 270 -60 338 -118zM856 143l52 23c-71 56 -190 98 -296 122c-9 -13 -24 -31 -38 -44c101 -18 219 -55 282 -101zM821 46l51 24c-76 47 -193 86 -288 108c-9 -12 -24 -30 -38 -41
c91 -18 208 -52 275 -91zM312 707h388c-19 -16 -37 -31 -53 -48h-280c-18 17 -35 33 -55 48zM313 884h377v-49h-377v49zM690 795v-40h-377v40h377zM195 361l194 -13c-7 -9 -16 -17 -25 -25l14 -7h-117c-22 18 -44 32 -66 45zM946 659h-217c63 49 153 91 235 112
c-14 12 -33 37 -43 53c-53 -16 -108 -42 -158 -73v202h-73v-25h-377v25h-71v-197c-44 28 -92 53 -143 74c-9 -13 -32 -41 -47 -54c81 -30 155 -69 218 -117h-207v-50h264c13 -13 26 -26 38 -40h-208v-48h245c9 -13 18 -27 26 -41h-311v-50h337c6 -12 11 -23 16 -35l-32 17
c-3 -7 -9 -16 -16 -25c-274 23 -305 26 -325 34c-3 -13 -12 -41 -19 -56c13 -1 27 -4 41 -11c9 -5 35 -19 61 -38h-117v-41h85v-204h372v38h-305v31h276v36h-276v32h276v36h-276v31h341v41h-128c18 19 38 40 50 57l3 -8l67 15c-7 17 -14 33 -21 50h367v50h-391
c-8 14 -16 28 -24 41h376v48h-409c-10 14 -20 27 -31 40h531v50z" />
</svg>
