<?xml version="1.0" standalone="no"?>
<!DOCTYPE svg PUBLIC "-//W3C//DTD SVG 1.1//EN" "http://www.w3.org/Graphics/SVG/1.1/DTD/svg11.dtd" >
<svg xmlns="http://www.w3.org/2000/svg" xmlns:xlink="http://www.w3.org/1999/xlink" version="1.1" viewBox="-10 0 1010 1000">
   <path fill="currentColor"
d="M825 44l56 27c-78 55 -200 100 -298 127c-11 -14 -27 -33 -43 -45c95 -23 217 -64 285 -109zM857 160l59 25c-77 63 -200 109 -313 137c-10 -14 -26 -36 -41 -49c107 -21 229 -63 295 -113zM190 421l224 -11c-11 -11 -24 -21 -36 -30l23 -12h-148c-20 20 -41 37 -63 53z
M530 456l-49 29c-7 -10 -16 -22 -27 -34c-297 16 -334 19 -356 26c-4 -11 -15 -36 -24 -49c13 -2 26 -6 39 -15c7 -5 32 -22 55 -45h-111v-46h87v-253h372v46h-304v41h276v42h-276v40h276v42h-276v42h349v46h-117c34 27 68 63 86 88zM474 651h-126v67h126v-67zM152 651v67
h128v-67h-128zM348 472v43h217v49h-217v42h192v157h-168c53 29 152 87 182 106l-34 56c-33 -28 -117 -84 -172 -118v155h-68v-158c-60 58 -140 111 -213 138c-4 -17 -16 -44 -26 -59c70 -24 154 -70 210 -120h-162v-157h191v-42h-218v-49h218v-43h68zM824 880v-421h70v422
c0 38 -8 54 -35 65c-27 9 -67 10 -130 10c-3 -18 -13 -44 -23 -61c45 1 89 1 101 1c13 0 17 -4 17 -16zM706 491v337h-69v-337h69zM890 284l63 23c-77 84 -216 138 -368 169c-8 -16 -23 -38 -38 -52c141 -23 276 -71 343 -140z" />
</svg>
