<?xml version="1.0" standalone="no"?>
<!DOCTYPE svg PUBLIC "-//W3C//DTD SVG 1.1//EN" "http://www.w3.org/Graphics/SVG/1.1/DTD/svg11.dtd" >
<svg xmlns="http://www.w3.org/2000/svg" xmlns:xlink="http://www.w3.org/1999/xlink" version="1.1" viewBox="-10 0 1010 1000">
   <path fill="currentColor"
d="M895 268l56 23c-77 75 -222 122 -372 148c-9 -16 -23 -36 -36 -49c142 -20 283 -61 352 -122zM862 157l55 25c-78 60 -208 103 -322 129c-9 -14 -24 -33 -38 -45c110 -21 237 -60 305 -109zM827 45l52 27c-80 52 -204 96 -301 122c-11 -13 -27 -30 -42 -42
c96 -22 221 -63 291 -107zM188 394l212 -10c-7 -11 -14 -20 -22 -30l26 -11h-148c-22 20 -45 37 -68 51zM478 448l-28 13c-6 -10 -13 -23 -21 -36c-277 16 -309 19 -328 27c-3 -13 -12 -40 -19 -55c13 -2 25 -5 37 -12c10 -5 35 -21 59 -42h-121v-41h87v-233h374v43h-307v37
h303v39h-303v38h303v39h-303v37h336v41h-111c21 28 47 63 63 86l32 -7c15 20 33 46 42 67h344v125h-77v-75h-683v75h-74v-125h420c-8 -14 -17 -28 -25 -41zM313 719v62h292v-62h-292zM930 781v49h-864v-49h175v-190c176 -2 387 -12 502 -28l43 41c-124 18 -308 28 -473 30
v40h541v45h-177v62h253zM361 841l61 25c-76 41 -200 76 -298 95c-10 -12 -34 -37 -49 -49c102 -14 220 -40 286 -71zM603 876l38 -37c100 17 235 51 309 79l-38 41c-69 -27 -205 -63 -309 -83z" />
</svg>
