<?xml version="1.0" standalone="no"?>
<!DOCTYPE svg PUBLIC "-//W3C//DTD SVG 1.1//EN" "http://www.w3.org/Graphics/SVG/1.1/DTD/svg11.dtd" >
<svg xmlns="http://www.w3.org/2000/svg" xmlns:xlink="http://www.w3.org/1999/xlink" version="1.1" viewBox="-10 0 1010 1000">
   <path fill="currentColor"
d="M897 246l57 24c-78 67 -223 107 -369 128c-8 -14 -22 -36 -35 -49c137 -15 278 -49 347 -103zM865 141l53 24c-73 52 -196 89 -303 109c-9 -13 -24 -32 -38 -44c103 -16 223 -48 288 -89zM832 47l51 27c-79 44 -201 79 -297 98c-9 -13 -24 -30 -38 -41
c92 -17 215 -48 284 -84zM415 317h-153c-19 16 -41 29 -63 42l214 -11c-8 -6 -16 -12 -23 -18zM528 396l-47 25c-6 -10 -16 -22 -27 -33c-296 16 -332 20 -354 27c-4 -12 -14 -36 -21 -50c14 -2 27 -6 42 -14c8 -5 30 -17 54 -34h-116v-42h87v-207h374v41h-307v30h279v37
h-279v31h279v37h-279v31h338v42h-104c32 24 64 55 81 79zM387 466h-196v33h196v-33zM191 570h196v-35h-196v35zM456 613h-265v340h-71v-529h336v189zM396 792h203v-31h-201c0 10 -1 20 -2 31zM599 690h-201v33h201v-33zM663 648v219c0 30 -6 43 -29 52c-21 9 -56 9 -106 9
c-3 -16 -11 -34 -19 -49c37 1 67 1 77 1c11 0 13 -4 13 -13v-36h-211c-11 37 -31 73 -71 101c-11 -11 -39 -29 -54 -36c64 -42 72 -97 72 -145v-103h328zM610 570h203v-35h-203v35zM813 466h-203v33h203v-33zM883 424v444c0 36 -8 54 -35 64c-26 11 -71 12 -141 12
c-4 -18 -15 -43 -24 -60c52 1 99 1 112 0c14 0 18 -4 18 -17v-254h-272v-189h342z" />
</svg>
