<?xml version="1.0" standalone="no"?>
<!DOCTYPE svg PUBLIC "-//W3C//DTD SVG 1.1//EN" "http://www.w3.org/Graphics/SVG/1.1/DTD/svg11.dtd" >
<svg xmlns="http://www.w3.org/2000/svg" xmlns:xlink="http://www.w3.org/1999/xlink" version="1.1" viewBox="-10 0 1010 1000">
   <path fill="currentColor"
d="M876 251l57 24c-77 66 -220 105 -364 125c-7 -15 -22 -36 -35 -49c135 -14 274 -48 342 -100zM852 146l52 24c-74 52 -196 88 -303 109c-9 -14 -23 -33 -37 -44c103 -16 223 -48 288 -89zM823 47l49 26c-78 44 -199 79 -294 98c-10 -12 -25 -29 -39 -40
c94 -17 215 -48 284 -84zM398 322h-140c-21 19 -44 35 -66 50l213 -16c-10 -8 -20 -16 -29 -23zM521 406l-46 26c-8 -12 -19 -24 -32 -38c-288 24 -323 27 -344 34c-3 -10 -13 -37 -21 -50c14 -2 27 -6 40 -15c9 -6 33 -21 56 -41h-123v-42h86v-212h373v42h-306v31h278v37
h-278v32h278v38h-278v32h337v42h-105c34 25 68 58 85 84zM384 482h-195v37h195v-37zM189 594h195v-37h-195v37zM451 638h-262v319h-69v-518h331v199zM391 809v44h214v-44h-214zM391 725v45h214v-45h-214zM331 896v-214h336v214h-336zM611 594h205v-37h-205v37zM816 482h-205
v37h205v-37zM886 439v441c0 38 -8 55 -35 66c-27 10 -71 11 -141 10c-3 -18 -14 -42 -23 -60c51 2 98 2 111 1c14 0 18 -4 18 -17v-242h-273v-199h343z" />
</svg>
