<?xml version="1.0" standalone="no"?>
<!DOCTYPE svg PUBLIC "-//W3C//DTD SVG 1.1//EN" "http://www.w3.org/Graphics/SVG/1.1/DTD/svg11.dtd" >
<svg xmlns="http://www.w3.org/2000/svg" xmlns:xlink="http://www.w3.org/1999/xlink" version="1.1" viewBox="-10 0 1010 1000">
   <path fill="currentColor"
d="M757 367h89c20 0 25 -9 28 -62c13 10 35 17 51 22c-5 72 -21 94 -70 94h-106c-68 0 -86 -15 -86 -79v-32c-32 66 -93 104 -211 125c-4 -15 -17 -38 -27 -50c166 -28 201 -91 209 -225h61c-2 36 -7 69 -14 97h46v84c0 23 5 26 30 26zM539 126v176h-65v-228h389v223h-68
v-171h-256zM421 377l-39 41c-28 -26 -80 -64 -126 -95c-31 44 -82 86 -171 116c-9 -15 -27 -37 -41 -49c98 -28 144 -68 165 -110h-145v-50h160c2 -14 3 -26 3 -39v-25h-141v-49h141v-73h66v73h141v49h-141v26c0 13 -1 25 -2 38h157v50h-164c49 28 107 69 137 97zM442 815
h112c24 -24 51 -52 68 -74h-248c25 22 52 50 68 74zM896 694v201c0 33 -8 46 -35 55c-25 8 -71 7 -139 7c-2 -17 -11 -33 -18 -48c51 2 92 2 105 1c13 0 16 -5 16 -15v-154h-193l46 21c-16 18 -34 36 -51 53h131v45h-225v86h-66v-86h-221v-45h128c-15 -19 -33 -37 -50 -52
l37 -22h-181v215h-70v-262h786zM727 619v-45h-456v45h456zM201 534h599v125h-599v-125zM74 450h855v48h-855v-48z" />
</svg>
