<?xml version="1.0" standalone="no"?>
<!DOCTYPE svg PUBLIC "-//W3C//DTD SVG 1.1//EN" "http://www.w3.org/Graphics/SVG/1.1/DTD/svg11.dtd" >
<svg xmlns="http://www.w3.org/2000/svg" xmlns:xlink="http://www.w3.org/1999/xlink" version="1.1" viewBox="-10 0 1010 1000">
   <path fill="currentColor"
d="M850 156v-43h-176v-41h233v125h-167c-2 16 -4 31 -6 46h185s-1 16 -3 23c-8 55 -16 84 -31 97c-14 11 -29 14 -52 15c-19 1 -57 1 -97 -2c-1 -13 -5 -32 -13 -44c39 4 76 4 90 4s21 0 27 -6c7 -6 12 -18 16 -46h-186c8 -36 14 -85 18 -128h162zM602 66l51 18
c-17 30 -33 59 -48 81l-41 -16c13 -23 31 -59 38 -83zM438 143l-46 21c-8 -22 -26 -55 -43 -78l43 -19c19 24 37 55 46 76zM470 380v-105c-31 40 -70 77 -106 100c-9 -13 -25 -30 -36 -40c44 -22 93 -66 125 -110h-114v-49h131v-122h60v122h123v49h-122c32 20 106 68 125 82
l-32 41c-19 -17 -60 -48 -94 -74v106h-60zM259 156v-43h-169v-41h227v125h-163c-1 16 -3 31 -5 46h180s-1 16 -3 24c-8 55 -16 83 -31 96c-13 10 -28 15 -50 15c-17 1 -54 1 -89 -2c-1 -13 -6 -31 -13 -44c36 4 70 4 82 4c13 0 20 0 25 -6c7 -6 12 -19 17 -46h-124v1h-56
c7 -37 13 -86 16 -129h156zM429 789h138c17 -23 36 -55 49 -77h-227c19 24 38 54 47 73zM900 663v221c0 38 -9 53 -39 64c-30 9 -81 8 -157 8c-4 -18 -15 -38 -24 -55c60 2 109 2 124 0c15 0 19 -5 19 -17v-172h-191l46 19c-15 20 -30 40 -45 58h138v44h-235v119h-73v-119
h-234v-44h136c-12 -20 -27 -43 -39 -61l32 -16h-171v244h-77v-293h790zM739 581v-55h-475v55h475zM191 485h624v137h-624v-137zM73 398h855v51h-855v-51z" />
</svg>
