<?xml version="1.0" standalone="no"?>
<!DOCTYPE svg PUBLIC "-//W3C//DTD SVG 1.1//EN" "http://www.w3.org/Graphics/SVG/1.1/DTD/svg11.dtd" >
<svg xmlns="http://www.w3.org/2000/svg" xmlns:xlink="http://www.w3.org/1999/xlink" version="1.1" viewBox="-10 0 1010 1000">
   <path fill="currentColor"
d="M127 478h85c5 -38 8 -74 9 -109h-94v109zM127 208v108h96v-39v-69h-96zM381 316v-108h-101v69v39h101zM381 478v-109h-103c-1 35 -4 71 -9 109h112zM441 877h369c68 0 80 -14 87 -85c16 10 41 18 59 21c-11 95 -34 120 -144 120h-367c-142 0 -182 -20 -182 -108v-288h-3
c-23 137 -74 284 -186 409c-11 -13 -31 -34 -45 -43c102 -112 151 -243 173 -366h-133v-388h132c13 -34 26 -78 33 -110l69 12c-12 33 -25 69 -37 98h176v388h-118v187c5 -5 10 -13 14 -22c8 -17 35 -84 44 -144l50 12c-14 53 -35 106 -56 147l81 -9c-7 -20 -15 -41 -24 -59
l40 -12c15 31 29 69 39 100c65 -29 127 -68 179 -120c-48 -44 -100 -88 -149 -124l47 -43c49 35 100 75 147 116c33 -42 61 -89 81 -142h-295v-67h154v-126h-169v-67h169v-123h68v123h187v67h-187v126h104l14 -3l43 20c-27 93 -68 172 -119 237c49 46 92 90 122 126l-52 54
c-28 -36 -69 -82 -116 -128c-57 58 -123 101 -192 133c-7 -10 -20 -27 -32 -40c2 9 4 17 5 25l-42 15c-2 -14 -6 -32 -11 -49c-106 14 -128 19 -139 24c-1 -4 -3 -10 -5 -15v69c0 42 16 52 117 52z" />
</svg>
