<?xml version="1.0" standalone="no"?>
<!DOCTYPE svg PUBLIC "-//W3C//DTD SVG 1.1//EN" "http://www.w3.org/Graphics/SVG/1.1/DTD/svg11.dtd" >
<svg xmlns="http://www.w3.org/2000/svg" xmlns:xlink="http://www.w3.org/1999/xlink" version="1.1" viewBox="-10 0 1010 1000">
   <path fill="currentColor"
d="M866 84l62 19c-26 57 -58 121 -85 163l-54 -18c25 -44 59 -115 77 -164zM833 431v-86h-224v86h224zM609 573h224v-86h-224v86zM542 285h145v-241h63v241h150v456c0 35 -6 53 -30 64c-23 10 -60 11 -112 11c-2 -18 -11 -44 -21 -62c37 2 72 2 82 1c11 -1 14 -4 14 -14
v-111h-224v189h-67v-534zM642 240l-59 24c-9 -42 -38 -107 -69 -155l55 -21c32 47 61 110 73 152zM405 724l71 -7c-8 -21 -17 -42 -27 -60l37 -13c23 41 45 96 52 130l-39 16c-2 -9 -6 -22 -10 -35c-99 16 -120 20 -130 27c-3 -11 -11 -36 -17 -49c11 -2 18 -11 26 -27
c7 -17 34 -82 43 -142l50 16c-15 52 -35 105 -56 144zM131 476h90c5 -37 8 -72 10 -106h-100v106zM131 210v106h102v-48v-58h-102zM404 316v-106h-110v59v47h110zM404 476v-106h-112c-2 34 -5 69 -9 106h121zM467 537h-193c-24 139 -76 288 -187 413
c-11 -15 -34 -38 -48 -48c100 -111 148 -242 173 -365h-142v-388h146c12 -34 26 -77 33 -109l72 11c-11 33 -24 69 -36 98h182v388zM457 878h353c70 0 81 -13 88 -86c15 11 44 19 62 22c-11 100 -36 125 -147 125h-352c-148 0 -186 -20 -186 -107v-259h64v259
c0 37 18 46 118 46z" />
</svg>
