<?xml version="1.0" standalone="no"?>
<!DOCTYPE svg PUBLIC "-//W3C//DTD SVG 1.1//EN" "http://www.w3.org/Graphics/SVG/1.1/DTD/svg11.dtd" >
<svg xmlns="http://www.w3.org/2000/svg" xmlns:xlink="http://www.w3.org/1999/xlink" version="1.1" viewBox="-10 0 1010 1000">
   <path fill="currentColor"
d="M816 562l53 16c-13 56 -34 114 -53 156l68 -9c-8 -23 -16 -46 -26 -66l39 -15c23 43 43 101 50 137l-42 17c-2 -11 -5 -23 -8 -35c-96 15 -114 20 -125 26c-3 -12 -12 -38 -18 -52c10 -3 17 -14 23 -30c7 -17 32 -84 39 -145zM237 485v-141c-44 61 -104 119 -162 153
c-9 -15 -26 -38 -41 -52c66 -32 135 -97 178 -164h-155v-60h180v-74c-51 6 -103 10 -151 12c-2 -15 -10 -37 -18 -52c119 -9 262 -26 341 -49l47 51c-43 13 -97 23 -155 30v82h172v60h-171c41 27 140 103 164 122l-42 51c-22 -24 -79 -77 -123 -115v146h-64zM374 626h-142
c-16 32 -33 63 -49 89c36 15 74 31 110 48c34 -37 61 -82 81 -137zM452 853l-43 47c-26 -19 -60 -41 -100 -63c-60 55 -134 91 -216 115c-10 -14 -33 -41 -48 -52c78 -19 147 -50 203 -95c-50 -25 -104 -48 -152 -66c21 -32 45 -71 67 -113h-101v-63h132
c11 -23 19 -44 27 -65l64 13c-7 17 -14 34 -21 52h138l13 -2l40 17c-23 89 -58 159 -104 215c39 20 74 41 101 60zM552 483h96c6 -37 10 -72 12 -106h-108v106zM552 214v105h111v-41v-64h-111zM843 319v-105h-114v65v40h114zM843 483v-106h-117c-2 34 -5 69 -10 106h127z
M779 891h96c21 0 26 -10 28 -80c13 10 36 19 53 23c-6 87 -23 111 -76 111h-107c-67 0 -84 -16 -84 -80v-258c-33 118 -95 241 -208 344c-12 -13 -37 -34 -55 -45c122 -109 182 -238 210 -362h-146v-391h147c13 -35 26 -78 32 -110l77 13c-13 33 -27 68 -38 97h199v391h-202
c-3 14 -7 27 -10 41h53v280c0 22 4 26 31 26z" />
</svg>
