<?xml version="1.0" standalone="no"?>
<!DOCTYPE svg PUBLIC "-//W3C//DTD SVG 1.1//EN" "http://www.w3.org/Graphics/SVG/1.1/DTD/svg11.dtd" >
<svg xmlns="http://www.w3.org/2000/svg" xmlns:xlink="http://www.w3.org/1999/xlink" version="1.1" viewBox="-10 0 1010 1000">
   <path fill="currentColor"
d="M325 188h-116c-15 36 -32 72 -53 107h117c18 -30 37 -70 52 -107zM402 459v-101h-94v101h94zM402 620v-102h-94v102h94zM155 518v102h98v-102h-98zM155 358v101h98v-101h-98zM94 387l-6 7c-13 -13 -36 -32 -53 -40c79 -93 128 -216 152 -310l69 9c-7 24 -15 50 -25 75
h124l14 -4l43 31c-19 46 -45 97 -72 140h124v388h-370v-296zM97 956l-54 -26c24 -55 48 -143 61 -203l52 21c-14 60 -35 151 -59 208zM198 741l52 -7c8 59 14 134 14 183l-55 8c1 -50 -4 -125 -11 -184zM290 737l49 -12c19 53 37 120 44 164l-53 13
c-6 -44 -22 -113 -40 -165zM715 53v110c0 46 -1 95 -3 147c38 245 119 467 239 563c-16 20 -35 55 -46 80c-99 -88 -169 -246 -217 -438c-26 152 -80 308 -188 442c-11 -21 -37 -53 -53 -67c13 -16 24 -32 35 -47l-42 17c-9 -37 -32 -93 -55 -135l48 -19c24 40 45 91 56 126
c145 -218 158 -479 158 -670v-109h68z" />
</svg>
