<?xml version="1.0" standalone="no"?>
<!DOCTYPE svg PUBLIC "-//W3C//DTD SVG 1.1//EN" "http://www.w3.org/Graphics/SVG/1.1/DTD/svg11.dtd" >
<svg xmlns="http://www.w3.org/2000/svg" xmlns:xlink="http://www.w3.org/1999/xlink" version="1.1" viewBox="-10 0 1010 1000">
   <path fill="currentColor"
d="M325 188h-117c-15 36 -31 72 -50 107h119c16 -30 34 -70 48 -107zM398 459v-101h-88v101h88zM398 620v-102h-88v102h88zM161 459h95v-101h-95v101zM256 518h-95v102h95v-102zM102 382l-10 12c-13 -13 -34 -32 -50 -40c76 -93 124 -216 147 -310l65 9c-7 24 -15 50 -23 75
h122l13 -4l40 31c-18 46 -42 97 -66 140h118v388h-356v-301zM104 956l-52 -26c22 -55 45 -143 56 -203l51 21c-14 60 -33 152 -55 208zM200 741l50 -7c7 60 13 134 13 185l-52 8c1 -51 -4 -127 -11 -186zM291 737l47 -12c17 54 35 123 41 168l-50 14
c-5 -46 -21 -116 -38 -170zM386 725l44 -18c23 43 46 98 56 136l-48 21c-9 -38 -32 -96 -52 -139zM649 877h181c46 0 53 -22 59 -149c16 14 46 25 66 30c-9 146 -30 187 -120 187h-192c-95 0 -126 -23 -126 -112v-414h312v-255h-322v-69h393v443h-71v-49h-240v344
c0 37 9 44 60 44z" />
</svg>
