<?xml version="1.0" standalone="no"?>
<!DOCTYPE svg PUBLIC "-//W3C//DTD SVG 1.1//EN" "http://www.w3.org/Graphics/SVG/1.1/DTD/svg11.dtd" >
<svg xmlns="http://www.w3.org/2000/svg" xmlns:xlink="http://www.w3.org/1999/xlink" version="1.1" viewBox="-10 0 1010 1000">
   <path fill="currentColor"
d="M307 188h-109c-14 36 -29 72 -48 107h109c16 -30 34 -70 48 -107zM377 459v-101h-85v101h85zM377 620v-102h-85v102h85zM148 518v102h90v-102h-90zM148 358v101h90v-101h-90zM90 390l-3 4c-12 -13 -34 -32 -50 -40c74 -93 118 -216 140 -310l64 9c-7 24 -14 50 -22 75
h117l12 -4l41 31c-19 46 -42 97 -67 140h115v388h-347v-293zM94 956l-52 -26c23 -55 45 -143 57 -203l51 21c-14 60 -34 152 -56 208zM187 741l50 -7c7 60 12 134 13 185l-52 8c1 -51 -4 -127 -11 -186zM275 737l46 -12c18 54 35 123 41 168l-49 13
c-5 -45 -23 -115 -38 -169zM845 389h-210c23 109 58 210 107 294c47 -81 83 -180 103 -294zM879 320l42 13c-24 170 -72 307 -137 413c48 65 106 117 177 152c-16 13 -37 39 -47 56c-67 -36 -123 -87 -171 -149c-48 62 -102 112 -163 149c-10 -16 -30 -41 -44 -53
c61 -35 119 -88 167 -156c-60 -99 -102 -221 -130 -356h-4v63c0 151 -13 363 -100 506c-13 -12 -41 -30 -58 -37c14 -22 26 -46 36 -71l-32 14c-9 -38 -30 -96 -52 -139l45 -18c20 36 38 80 49 115c42 -120 46 -261 46 -370v-318c132 -9 294 -29 380 -65l47 54
c-91 36 -235 56 -361 65v135h297z" />
</svg>
