<?xml version="1.0" standalone="no"?>
<!DOCTYPE svg PUBLIC "-//W3C//DTD SVG 1.1//EN" "http://www.w3.org/Graphics/SVG/1.1/DTD/svg11.dtd" >
<svg xmlns="http://www.w3.org/2000/svg" xmlns:xlink="http://www.w3.org/1999/xlink" version="1.1" viewBox="-10 0 1010 1000">
   <path fill="currentColor"
d="M298 188h-108c-13 36 -30 73 -49 108h107c17 -30 35 -71 50 -108zM360 459v-102h-80v102h80zM360 620v-103h-80v103h80zM148 459h79v-102h-79v102zM227 517h-79v103h79v-103zM92 680v-304c-4 5 -9 10 -13 16c-11 -13 -33 -32 -48 -39c74 -93 118 -216 141 -309l63 9
c-7 24 -14 50 -23 75h115l12 -3l42 28c-19 48 -44 100 -70 143h108v384h-327zM95 953l-54 -23c24 -53 44 -141 54 -204l51 18c-11 63 -29 154 -51 209zM180 742l50 -8c7 60 12 135 13 185l-52 9c1 -51 -4 -128 -11 -186zM266 738l47 -12c17 51 34 119 40 162l-49 14
c-6 -44 -21 -113 -38 -164zM351 722l44 -18c21 39 43 91 52 125l-48 22c-8 -35 -28 -89 -48 -129zM571 617h199c12 -80 23 -157 31 -219h-190c-14 78 -28 154 -40 219zM804 855h155v65h-523v-65h298c9 -53 18 -112 27 -171h-275c30 -130 68 -342 91 -508h-120v-66h476v66
h-285c-8 49 -17 101 -26 155h193l12 -4l50 8c-15 140 -47 352 -73 520z" />
</svg>
