<?xml version="1.0" standalone="no"?>
<!DOCTYPE svg PUBLIC "-//W3C//DTD SVG 1.1//EN" "http://www.w3.org/Graphics/SVG/1.1/DTD/svg11.dtd" >
<svg xmlns="http://www.w3.org/2000/svg" xmlns:xlink="http://www.w3.org/1999/xlink" version="1.1" viewBox="-10 0 1010 1000">
   <path fill="currentColor"
d="M291 188h-101c-13 36 -29 72 -48 107h100c16 -30 35 -70 49 -107zM353 458v-102h-77v102h77zM353 619v-103h-77v103h77zM150 458h73v-102h-73v102zM223 516h-73v103h73v-103zM92 377l-12 15c-11 -12 -33 -31 -48 -38c73 -93 117 -216 140 -310l62 9c-7 24 -14 50 -23 75
h109l12 -3l41 27c-19 48 -43 100 -69 143h108v385h-320v-303zM90 953l-54 -23c31 -53 55 -141 67 -205l52 18c-15 65 -36 155 -65 210zM187 741l50 -7c7 60 12 134 13 185l-52 8c1 -51 -4 -127 -11 -186zM275 737l46 -12c18 54 35 123 41 168l-49 14
c-5 -45 -23 -116 -38 -170zM363 725l45 -19c23 41 47 96 57 132l-47 23c-10 -38 -33 -93 -55 -136zM723 89l66 -9c32 177 80 279 182 368c-18 15 -39 40 -49 64c-15 -13 -27 -27 -40 -40v13c-11 294 -21 400 -46 432c-16 21 -34 28 -59 31c-23 2 -61 2 -101 0
c-1 -20 -8 -48 -18 -67c39 4 73 5 88 5c13 0 22 -2 30 -13c17 -21 27 -110 36 -354h-123c-18 203 -68 343 -183 439c-11 -13 -38 -38 -54 -48c110 -81 153 -212 167 -391h-99v-60c-14 18 -30 34 -46 49c-11 -13 -40 -38 -56 -48c100 -79 153 -208 175 -370l68 6
c-21 148 -64 268 -135 356h338c-75 -92 -115 -203 -141 -363z" />
</svg>
