<?xml version="1.0" standalone="no"?>
<!DOCTYPE svg PUBLIC "-//W3C//DTD SVG 1.1//EN" "http://www.w3.org/Graphics/SVG/1.1/DTD/svg11.dtd" >
<svg xmlns="http://www.w3.org/2000/svg" xmlns:xlink="http://www.w3.org/1999/xlink" version="1.1" viewBox="-10 0 1010 1000">
   <path fill="currentColor"
d="M291 188h-101c-13 36 -29 72 -48 107h100c16 -30 35 -70 49 -107zM354 458v-102h-78v102h78zM354 619v-103h-78v103h78zM149 458h74v-102h-74v102zM223 516h-74v103h74v-103zM92 377l-12 15c-11 -12 -33 -31 -48 -38c73 -93 117 -216 140 -310l62 9c-7 24 -14 50 -23 75
h109l12 -3l41 27c-19 48 -43 100 -69 143h108v385h-320v-303zM90 953l-54 -23c31 -53 55 -141 67 -205l52 18c-15 65 -36 155 -65 210zM187 741l50 -6c7 59 12 134 13 185l-52 8c1 -51 -4 -128 -11 -187zM275 738l46 -12c18 54 35 122 41 167l-49 14
c-5 -45 -23 -116 -38 -169zM363 726l45 -19c23 43 46 99 54 136l-47 22c-9 -38 -31 -96 -52 -139zM855 323h-111c-2 35 -5 73 -11 109c44 87 93 195 122 265v-374zM547 323v376c92 -115 120 -251 128 -376h-128zM924 255v614c0 38 -7 58 -32 71c-24 11 -62 12 -119 12
c-3 -19 -13 -49 -22 -68c40 1 77 1 89 1c11 -1 15 -4 15 -17v-150l-54 25c-19 -54 -53 -137 -89 -215c-24 79 -60 155 -121 225c-10 -10 -28 -25 -44 -33v235h-67v-700h198v-39v-171h69v172v38h177z" />
</svg>
