<?xml version="1.0" standalone="no"?>
<!DOCTYPE svg PUBLIC "-//W3C//DTD SVG 1.1//EN" "http://www.w3.org/Graphics/SVG/1.1/DTD/svg11.dtd" >
<svg xmlns="http://www.w3.org/2000/svg" xmlns:xlink="http://www.w3.org/1999/xlink" version="1.1" viewBox="-10 0 1010 1000">
   <path fill="currentColor"
d="M303 188h-99c-14 36 -29 72 -48 107h99c16 -30 35 -70 48 -107zM366 458v-102h-77v102h77zM366 619v-103h-77v103h77zM164 458h72v-102h-72v102zM236 516h-72v103h72v-103zM105 378l-11 14c-12 -12 -33 -31 -48 -38c73 -93 117 -216 139 -310l62 9c-7 24 -14 50 -23 75
h109l12 -3l42 27c-19 48 -44 100 -69 143h108v385h-321v-302zM104 953l-54 -23c30 -53 55 -141 67 -205l52 18c-15 65 -36 155 -65 210zM201 741l50 -7c7 60 12 134 13 185l-52 8c0 -51 -4 -127 -11 -186zM288 737l47 -12c17 54 35 123 41 168l-49 14
c-6 -45 -23 -116 -39 -170zM377 725l45 -18c22 43 45 99 54 136l-48 21c-8 -38 -31 -96 -51 -139zM727 576h121v-176h-121v176zM540 576h122v-176h-122v176zM662 168h-122v166h122v-166zM848 334v-166h-121v166h121zM478 103h433v591h-63v-52h-121v308h-65v-308h-122v61h-62
v-600z" />
</svg>
