<?xml version="1.0" standalone="no"?>
<!DOCTYPE svg PUBLIC "-//W3C//DTD SVG 1.1//EN" "http://www.w3.org/Graphics/SVG/1.1/DTD/svg11.dtd" >
<svg xmlns="http://www.w3.org/2000/svg" xmlns:xlink="http://www.w3.org/1999/xlink" version="1.1" viewBox="-10 0 1010 1000">
   <path fill="currentColor"
d="M323 192h-114c-14 35 -31 69 -50 103h112c18 -29 37 -67 52 -103zM400 456v-100h-90v100h90zM400 617v-103h-90v103h90zM166 456h87v-100h-87v100zM253 514h-87v103h87v-103zM104 380l-13 16c-12 -15 -36 -35 -52 -43c77 -93 126 -216 149 -310l69 10
c-7 26 -16 53 -25 80h124l13 -4l44 29c-20 46 -46 95 -72 137h123v384h-360v-299zM88 957l-49 -29c46 -46 67 -125 75 -204l54 13c-10 84 -29 171 -80 220zM204 732l51 -7c12 60 17 135 15 185l-54 6c3 -49 -2 -125 -12 -184zM296 731l48 -11c24 55 42 127 48 174l-52 13
c-5 -48 -23 -120 -44 -176zM389 722l48 -18c30 50 59 116 71 160l-50 21c-12 -45 -40 -113 -69 -163zM852 848v-255h-258v255h258zM959 330h-212v197h176v425h-71v-38h-258v42h-69v-429h151v-483h71v218h212v68z" />
</svg>
