<?xml version="1.0" standalone="no"?>
<!DOCTYPE svg PUBLIC "-//W3C//DTD SVG 1.1//EN" "http://www.w3.org/Graphics/SVG/1.1/DTD/svg11.dtd" >
<svg xmlns="http://www.w3.org/2000/svg" xmlns:xlink="http://www.w3.org/1999/xlink" version="1.1" viewBox="-10 0 1010 1000">
   <path fill="currentColor"
d="M912 241l-44 35c-15 -45 -52 -115 -85 -166l41 -30c33 48 71 117 88 161zM302 188h-101c-12 35 -26 72 -43 106h101c15 -30 31 -70 43 -106zM356 458v-103h-73v103h73zM356 619v-103h-73v103h73zM165 458h70v-103h-70v103zM235 516h-70v103h70v-103zM113 377l-12 17
c-11 -13 -29 -32 -44 -40c66 -93 106 -216 126 -310l57 9c-6 24 -13 50 -20 75h108l12 -3l38 28c-17 46 -40 98 -61 141h93v386h-297v-303zM112 956l-50 -25c26 -54 48 -142 60 -207l48 21c-12 65 -32 155 -58 211zM199 744l46 -7c10 57 14 129 12 177l-50 7
c3 -47 0 -119 -8 -177zM277 736l43 -12c19 53 35 121 39 165l-46 12c-4 -45 -20 -112 -36 -165zM355 727l40 -18c24 42 47 98 57 135l-43 20c-9 -37 -31 -95 -54 -137zM592 45l55 19c-19 70 -44 142 -72 209v679h-58v-556c-20 37 -40 71 -62 102c-5 -17 -22 -56 -33 -73
c69 -94 131 -237 170 -380zM937 371l-180 33c22 276 72 472 132 472c17 0 24 -27 29 -118c12 19 32 37 46 45c-11 119 -29 154 -81 154c-106 0 -163 -233 -187 -543l-94 17l-9 -68l98 -17c-6 -98 -10 -203 -10 -310h63c-1 105 2 206 8 299l176 -30z" />
</svg>
