<?xml version="1.0" standalone="no"?>
<!DOCTYPE svg PUBLIC "-//W3C//DTD SVG 1.1//EN" "http://www.w3.org/Graphics/SVG/1.1/DTD/svg11.dtd" >
<svg xmlns="http://www.w3.org/2000/svg" xmlns:xlink="http://www.w3.org/1999/xlink" version="1.1" viewBox="-10 0 1010 1000">
   <path fill="currentColor"
d="M291 188h-101c-13 36 -29 72 -48 107h100c16 -30 35 -70 49 -107zM353 458v-102h-77v102h77zM353 619v-103h-77v103h77zM150 458h73v-102h-73v102zM223 516h-73v103h73v-103zM92 377l-12 15c-11 -12 -33 -31 -48 -38c73 -93 117 -216 140 -310l62 9c-7 24 -14 50 -23 75
h109l12 -3l41 27c-19 48 -43 100 -69 143h108v385h-320v-303zM90 953l-54 -23c31 -53 55 -141 67 -205l52 18c-15 65 -36 155 -65 210zM186 742l49 -7c7 59 13 134 13 185l-52 8c1 -51 -4 -128 -10 -186zM270 738l47 -12c16 52 33 118 40 162l-50 14
c-6 -44 -22 -112 -37 -164zM939 524h-169c45 117 119 237 190 299c-16 12 -39 37 -52 57c-64 -66 -128 -183 -172 -301v376h-69v-357c-46 118 -111 226 -182 290c-12 -18 -34 -45 -50 -57l10 -8l-49 21c-7 -32 -26 -83 -45 -121l45 -19c20 38 40 88 49 119
c76 -64 147 -180 191 -299h-172v-69h203v-170h-111c-18 49 -40 94 -62 129c-14 -9 -44 -23 -60 -30c52 -73 89 -183 111 -292l64 11c-8 39 -18 77 -29 114h87v-174h69v174h176v68h-176v170h203v69z" />
</svg>
