<?xml version="1.0" standalone="no"?>
<!DOCTYPE svg PUBLIC "-//W3C//DTD SVG 1.1//EN" "http://www.w3.org/Graphics/SVG/1.1/DTD/svg11.dtd" >
<svg xmlns="http://www.w3.org/2000/svg" xmlns:xlink="http://www.w3.org/1999/xlink" version="1.1" viewBox="-10 0 1010 1000">
   <path fill="currentColor"
d="M291 188h-101c-13 36 -29 72 -48 107h100c16 -30 35 -70 49 -107zM353 458v-102h-77v102h77zM353 619v-103h-77v103h77zM150 458h73v-102h-73v102zM223 516h-73v103h73v-103zM92 377l-12 15c-11 -12 -33 -31 -48 -38c73 -93 117 -216 140 -310l62 9c-7 24 -14 50 -23 75
h109l12 -3l41 27c-19 48 -43 100 -69 143h108v385h-320v-303zM90 953l-54 -23c31 -53 55 -141 67 -205l52 18c-15 65 -36 155 -65 210zM187 741l50 -7c7 60 12 134 13 185l-52 8c1 -51 -4 -127 -11 -186zM275 737l46 -12c18 54 35 123 41 168l-49 13
c-5 -45 -23 -115 -38 -169zM463 843l-48 21c-9 -38 -31 -96 -52 -139l45 -19c23 44 46 99 55 137zM529 570h116c3 -27 4 -55 5 -81h-109c-4 27 -8 56 -12 81zM717 351v78h138v-78h-138zM883 632h-160c38 130 114 228 241 269c-15 13 -34 40 -43 57
c-118 -44 -192 -134 -237 -258c-33 102 -104 196 -245 258c-9 -14 -29 -41 -44 -55c156 -61 217 -163 240 -271h-177c10 -55 21 -137 28 -203h164v-78h-177v-60h177v-75h-212v-63h212v-110h67v110h236v63h-236v75h204v198h-204c-1 26 -3 54 -5 81h237s-1 18 -2 27
c-6 116 -13 165 -30 182c-11 14 -23 20 -42 21c-13 2 -36 2 -58 2c-1 -19 -6 -44 -14 -59c20 2 35 2 43 2c10 1 15 -1 20 -7c7 -10 12 -37 17 -106z" />
</svg>
