<?xml version="1.0" standalone="no"?>
<!DOCTYPE svg PUBLIC "-//W3C//DTD SVG 1.1//EN" "http://www.w3.org/Graphics/SVG/1.1/DTD/svg11.dtd" >
<svg xmlns="http://www.w3.org/2000/svg" xmlns:xlink="http://www.w3.org/1999/xlink" version="1.1" viewBox="-10 0 1010 1000">
   <path fill="currentColor"
d="M944 268l-56 25c-13 -48 -46 -128 -78 -186l53 -20c33 58 68 134 81 181zM83 958l-49 -28c43 -46 59 -126 66 -206l52 12c-9 84 -23 171 -69 222zM182 733l48 -6c9 58 12 133 8 181l-50 7c5 -49 3 -124 -6 -182zM263 732l45 -9c20 53 34 124 36 169l-47 9
c-2 -46 -16 -115 -34 -169zM346 724l45 -15c28 55 54 128 64 174l-47 16c-10 -47 -35 -119 -62 -175zM350 457v-104h-76v104h76zM350 620v-107h-76v107h76zM152 513v107h72v-107h-72zM224 353h-72v104h72v-104zM281 192h-91c-13 34 -27 69 -44 103h91c15 -29 31 -68 44 -103
zM561 44l63 17c-18 69 -41 137 -67 202v693h-64v-557c-22 41 -47 78 -72 110c-2 -5 -7 -12 -12 -20v190h-314v-297l-8 11c-12 -13 -35 -33 -51 -40c68 -94 110 -217 131 -310l65 9c-6 26 -14 53 -22 81h100l13 -4l42 28c-18 45 -41 95 -64 138h108v113
c66 -97 118 -229 152 -364zM953 400h-156c23 215 71 405 170 499c-15 14 -39 39 -50 57c-76 -82 -123 -214 -152 -372c-22 154 -64 281 -149 373c-11 -16 -36 -38 -53 -49c109 -112 144 -289 156 -508h-140v-65h143c3 -89 3 -185 3 -286h63c0 100 -1 196 -4 286h169v65z" />
</svg>
