<?xml version="1.0" standalone="no"?>
<!DOCTYPE svg PUBLIC "-//W3C//DTD SVG 1.1//EN" "http://www.w3.org/Graphics/SVG/1.1/DTD/svg11.dtd" >
<svg xmlns="http://www.w3.org/2000/svg" xmlns:xlink="http://www.w3.org/1999/xlink" version="1.1" viewBox="-10 0 1010 1000">
   <path fill="currentColor"
d="M90 954l-54 -24c31 -53 55 -141 67 -205l52 18c-15 65 -36 155 -65 211zM187 741l50 -7c7 60 12 134 13 185l-52 8c1 -51 -4 -127 -11 -186zM275 737l46 -12c18 54 35 123 41 168l-49 13c-5 -45 -23 -115 -38 -169zM363 725l45 -19c24 44 46 99 55 137l-48 21
c-9 -38 -30 -96 -52 -139zM353 458v-102h-77v102h77zM353 619v-103h-77v103h77zM150 516v103h73v-103h-73zM223 356h-73v102h73v-102zM291 188h-101c-13 36 -29 72 -48 107h100c16 -30 35 -70 49 -107zM694 339h47c28 -36 55 -73 79 -113h-126v113zM954 407h-188
c-24 29 -50 57 -76 83h227v62h-265c-9 39 -18 78 -27 113h274s-2 22 -4 32c-13 143 -27 204 -50 230c-17 19 -35 25 -62 26c-23 2 -66 2 -112 -1c-1 -22 -9 -51 -19 -71c45 5 91 6 108 6c16 0 25 -1 33 -8c13 -15 24 -58 35 -151h-286c12 -38 24 -89 37 -140
c-43 31 -86 61 -131 86c-8 -13 -23 -36 -36 -51v57h-320v-303l-12 15c-11 -13 -33 -31 -48 -38c73 -93 117 -216 140 -310l61 9c-7 24 -13 50 -22 75h109l11 -3l42 27c-19 48 -44 100 -69 143h108v317c100 -52 191 -122 270 -205h-230v-68h176v-113h-141v-65h141v-118h66
v118h130v59c25 -42 47 -85 67 -131l58 24c-36 82 -81 158 -130 226h135v68z" />
</svg>
