<?xml version="1.0" standalone="no"?>
<!DOCTYPE svg PUBLIC "-//W3C//DTD SVG 1.1//EN" "http://www.w3.org/Graphics/SVG/1.1/DTD/svg11.dtd" >
<svg xmlns="http://www.w3.org/2000/svg" xmlns:xlink="http://www.w3.org/1999/xlink" version="1.1" viewBox="-10 0 1010 1000">
   <path fill="currentColor"
d="M83 958l-49 -28c43 -46 59 -126 66 -206l52 12c-9 84 -23 171 -69 222zM182 733l48 -6c9 58 12 133 8 181l-50 7c5 -49 3 -124 -6 -182zM263 732l45 -9c20 53 34 124 36 169l-47 9c-2 -46 -16 -115 -34 -169zM346 724l45 -15c28 55 54 128 64 174l-47 16
c-10 -47 -35 -119 -62 -175zM350 457v-104h-76v104h76zM350 620v-107h-76v107h76zM152 513v107h72v-107h-72zM224 353h-72v104h72v-104zM281 192h-91c-13 34 -27 69 -44 103h91c15 -29 31 -68 44 -103zM946 335h-125c30 163 86 336 150 421c-15 11 -37 33 -49 49
c-49 -75 -90 -203 -120 -337v488h-64v-485c-33 138 -78 266 -131 344c-11 -15 -31 -34 -46 -47v186h-63v-552c-21 41 -43 78 -68 110c-3 -8 -12 -23 -21 -36v203h-314v-297l-8 11c-12 -13 -35 -33 -51 -40c68 -94 110 -217 131 -310l65 9c-6 26 -14 53 -22 81h100l13 -4
l42 28c-18 45 -41 95 -64 138h108v125c65 -98 111 -235 138 -377l67 14c-14 67 -32 132 -53 194v511c67 -89 123 -262 154 -427h-122v-68h145v-221h64v221h144v68z" />
</svg>
