<?xml version="1.0" standalone="no"?>
<!DOCTYPE svg PUBLIC "-//W3C//DTD SVG 1.1//EN" "http://www.w3.org/Graphics/SVG/1.1/DTD/svg11.dtd" >
<svg xmlns="http://www.w3.org/2000/svg" xmlns:xlink="http://www.w3.org/1999/xlink" version="1.1" viewBox="-10 0 1010 1000">
   <path fill="currentColor"
d="M293 188h-103c-12 36 -28 72 -45 107h102c16 -30 33 -70 46 -107zM358 459v-101h-79v101h79zM358 620v-102h-79v102h79zM142 518v102h86v-102h-86zM142 358v101h86v-101h-86zM87 391l-2 3c-11 -13 -32 -32 -47 -40c69 -93 111 -216 132 -310l62 9c-6 24 -13 50 -22 75
h111l12 -4l38 31c-17 46 -40 97 -64 140h109v388h-329v-292zM91 956l-50 -26c21 -55 43 -143 54 -203l48 21c-13 60 -31 152 -52 208zM180 741l47 -7c7 60 12 135 13 186l-49 7c1 -51 -4 -127 -11 -186zM261 737l44 -12c16 54 32 123 38 168l-46 14
c-5 -45 -21 -116 -36 -170zM345 725l42 -18c22 43 44 99 52 136l-46 22c-8 -39 -28 -96 -48 -140zM733 295v-119h-69v119h69zM872 519v-160h-90v142c0 16 2 18 21 18h60h9zM536 837h336v-83h-336v83zM536 359v332h336v-119h-2h-73c-50 0 -64 -13 -64 -70v-143h-69v50
c0 65 -18 149 -91 208c-7 -11 -26 -29 -37 -35c67 -53 81 -120 81 -175v-48h-81zM952 176h-164v119h145v662h-61v-55h-336v55h-58v-662h132v-119h-163v-64h505v64z" />
</svg>
