<?xml version="1.0" standalone="no"?>
<!DOCTYPE svg PUBLIC "-//W3C//DTD SVG 1.1//EN" "http://www.w3.org/Graphics/SVG/1.1/DTD/svg11.dtd" >
<svg xmlns="http://www.w3.org/2000/svg" xmlns:xlink="http://www.w3.org/1999/xlink" version="1.1" viewBox="-10 0 1010 1000">
   <path fill="currentColor"
d="M931 169l-47 41c-23 -34 -73 -82 -116 -115l46 -37c43 32 93 79 117 111zM302 188h-109c-14 36 -29 72 -48 107h109c16 -30 34 -70 48 -107zM372 459v-101h-85v101h85zM372 620v-102h-85v102h85zM143 518v102h90v-102h-90zM143 358v101h90v-101h-90zM85 389l-4 5
c-11 -13 -33 -32 -49 -40c73 -93 117 -216 139 -310l65 9c-7 24 -14 50 -23 75h118l13 -4l40 31c-18 46 -42 97 -67 140h115v388h-347v-294zM90 956l-53 -26c23 -55 45 -143 57 -203l50 21c-13 60 -32 152 -54 208zM182 741l49 -7c7 60 13 134 14 186l-52 7
c0 -51 -4 -127 -11 -186zM269 737l47 -12c17 54 34 123 41 168l-50 14c-5 -45 -22 -116 -38 -170zM357 725l46 -18c24 43 46 99 55 136l-48 22c-9 -39 -30 -97 -53 -140zM901 343l61 35c-49 67 -112 145 -164 197c41 90 99 164 177 214c-13 16 -28 43 -33 64
c-102 -73 -171 -175 -215 -298v317c0 40 -9 59 -33 71c-23 11 -59 14 -119 13c-3 -17 -14 -47 -24 -65c43 1 80 1 92 0c13 0 17 -4 17 -18v-210c-60 61 -121 122 -173 172l-41 -63c52 -45 136 -120 214 -194v-285h-206v-66h206v-182h67v182h226v66h-226v27
c11 70 25 136 47 196c45 -52 97 -121 127 -173zM463 376l54 -24c44 56 90 131 107 180l-59 30c-16 -50 -60 -129 -102 -186z" />
</svg>
