<?xml version="1.0" standalone="no"?>
<!DOCTYPE svg PUBLIC "-//W3C//DTD SVG 1.1//EN" "http://www.w3.org/Graphics/SVG/1.1/DTD/svg11.dtd" >
<svg xmlns="http://www.w3.org/2000/svg" xmlns:xlink="http://www.w3.org/1999/xlink" version="1.1" viewBox="-10 0 1010 1000">
   <path fill="currentColor"
d="M955 190l-55 47c-33 -37 -105 -94 -162 -132l52 -42c57 36 129 89 165 127zM658 43v189h-72v-189h72zM446 81l70 20c-32 61 -85 124 -136 165c-12 -12 -40 -37 -55 -49c49 -35 94 -84 121 -136zM328 105l-32 56c-44 -19 -122 -46 -182 -62l33 -52c59 16 136 40 181 58z
M91 427l-32 -62c64 -19 155 -51 248 -83l11 58c-79 31 -160 62 -227 87zM261 221l-24 59c-43 -19 -124 -44 -182 -58l23 -54c61 14 139 37 183 53zM268 520h353c21 -19 44 -41 62 -64h-335c-24 22 -51 43 -80 64zM774 635v-63h-228v63h228zM774 746v-65h-228v65h228z
M252 681v65h218v-65h-218zM252 572v63h218v-63h-218zM177 798v-222c-25 14 -53 27 -81 40c-10 -18 -31 -44 -46 -57c140 -55 242 -132 297 -202l48 10c-10 -16 -32 -42 -45 -54c154 -10 345 -36 424 -89l65 27c-87 67 -283 101 -432 119l19 4c-8 9 -16 19 -25 29h329l14 -4
l42 33c-24 30 -53 60 -83 88h150v278h-676zM125 965l-67 -39c44 -29 87 -80 117 -115l64 34c-31 37 -72 86 -114 120zM331 835l75 -15c21 39 42 92 49 124l-80 19c-6 -35 -25 -88 -44 -128zM539 835l73 -16c25 36 54 86 67 117l-76 22c-12 -34 -38 -85 -64 -123zM775 839
l68 -23c31 34 72 84 90 117l-72 27c-17 -33 -55 -84 -86 -121z" />
</svg>
