<?xml version="1.0" standalone="no"?>
<!DOCTYPE svg PUBLIC "-//W3C//DTD SVG 1.1//EN" "http://www.w3.org/Graphics/SVG/1.1/DTD/svg11.dtd" >
<svg xmlns="http://www.w3.org/2000/svg" xmlns:xlink="http://www.w3.org/1999/xlink" version="1.1" viewBox="-10 0 1010 1000">
   <path fill="currentColor"
d="M291 188h-101c-13 36 -29 72 -48 107h100c16 -30 35 -70 49 -107zM359 458v-102h-80v102h80zM359 619v-103h-80v103h80zM150 458h77v-102h-77v102zM227 516h-77v103h77v-103zM92 377l-12 15c-11 -12 -33 -31 -48 -38c73 -93 117 -216 140 -310l62 9c-7 24 -14 50 -23 75
h109l12 -3l41 27c-19 48 -43 100 -69 143h114v385h-326v-303zM90 953l-54 -23c31 -53 55 -141 67 -205l52 18c-15 65 -36 155 -65 210zM192 741l50 -7c7 58 12 130 12 180l-52 8c1 -50 -4 -123 -10 -181zM283 737l47 -12c16 49 33 114 39 155l-50 14
c-5 -42 -21 -107 -36 -157zM461 807l-46 20c-6 -28 -25 -74 -41 -109l43 -17c18 33 37 77 44 106zM560 497v87h241v-87h-241zM801 212h-241v82h241v-82zM801 437v-85h-241v85h241zM903 480l56 28c-26 42 -57 81 -91 119v236c0 41 -9 62 -34 75c-27 12 -70 13 -132 13
c-3 -20 -13 -51 -21 -71c45 2 89 1 103 1c12 0 17 -5 17 -18v-168c-106 98 -234 177 -364 234c-4 -15 -18 -52 -28 -69c125 -49 250 -122 352 -213h-313v-63h47v-433h125c14 -34 30 -74 38 -104l74 15c-13 30 -29 62 -43 89h179v380c13 -16 25 -33 35 -51z" />
</svg>
