<?xml version="1.0" standalone="no"?>
<!DOCTYPE svg PUBLIC "-//W3C//DTD SVG 1.1//EN" "http://www.w3.org/Graphics/SVG/1.1/DTD/svg11.dtd" >
<svg xmlns="http://www.w3.org/2000/svg" xmlns:xlink="http://www.w3.org/1999/xlink" version="1.1" viewBox="-10 0 1010 1000">
   <path fill="currentColor"
d="M313 192h-111c-14 34 -30 70 -49 103h110c17 -29 35 -68 50 -103zM380 457v-101h-79v101h79zM380 617v-102h-79v102h79zM162 457h85v-101h-85v101zM247 515h-85v102h85v-102zM102 679v-303c-5 5 -9 11 -14 17c-12 -14 -36 -34 -52 -42c76 -92 122 -214 146 -307l67 9
c-7 25 -16 53 -25 80h120l12 -4l44 29c-19 46 -44 95 -70 137h111v384h-339zM96 952l-52 -25c32 -52 55 -137 66 -203l52 17c-13 68 -33 158 -66 211zM187 740l50 -5c17 58 26 134 25 184l-53 5c3 -50 -6 -125 -22 -184zM280 730l47 -10c23 53 41 124 47 170l-50 13
c-4 -47 -23 -119 -44 -173zM374 720l48 -15c26 47 52 109 63 149l-51 18c-8 -41 -35 -105 -60 -152zM585 738h256v-73h-256v73zM841 534h-256v76h256v-76zM910 477v400c0 34 -8 52 -33 63c-23 10 -60 11 -119 11c-3 -18 -13 -44 -21 -61c40 1 78 1 88 0c12 0 16 -3 16 -14
v-83h-256v162h-67v-478h392zM748 363h203v56h-486v-56h212v-64h-169v-55h169v-62h-190v-56h190v-81h71v81h187v56h-187v62h172v55h-172v64z" />
</svg>
