<?xml version="1.0" standalone="no"?>
<!DOCTYPE svg PUBLIC "-//W3C//DTD SVG 1.1//EN" "http://www.w3.org/Graphics/SVG/1.1/DTD/svg11.dtd" >
<svg xmlns="http://www.w3.org/2000/svg" xmlns:xlink="http://www.w3.org/1999/xlink" version="1.1" viewBox="-10 0 1010 1000">
   <path fill="currentColor"
d="M844 238v-91h-295v91h295zM844 387v-92h-295v92h295zM915 88v359h-434v-359h434zM289 188h-100c-13 36 -29 72 -48 107h101c16 -30 34 -70 47 -107zM351 458v-102h-77v102h77zM351 619v-103h-77v103h77zM149 458h73v-102h-73v102zM222 516h-73v103h73v-103zM91 377
l-12 15c-11 -12 -32 -31 -47 -38c73 -93 117 -216 139 -310l62 9c-7 24 -14 50 -23 75h109l12 -3l40 27c-18 48 -43 100 -68 143h107v385h-319v-303zM90 953l-54 -23c30 -53 55 -141 67 -205l51 18c-14 65 -35 155 -64 210zM187 741l49 -6c7 59 12 133 13 184l-52 8
c1 -51 -4 -127 -10 -186zM273 737l47 -11c17 53 35 122 41 167l-49 14c-6 -45 -23 -116 -39 -170zM361 726l44 -19c23 43 46 99 55 136l-47 22c-9 -39 -30 -96 -52 -139zM563 862l123 -31c0 20 3 48 6 64c-159 43 -187 53 -204 65c-5 -18 -20 -51 -32 -68
c15 -8 36 -27 36 -67v-349h71v132h128v63h-128v191zM812 886h69c20 0 25 -16 27 -110c14 11 40 21 59 26c-7 115 -24 145 -79 145h-86c-67 0 -83 -20 -83 -92v-379h67v166c45 -29 96 -67 129 -96l43 50c-53 41 -119 82 -172 110v149c0 27 4 31 26 31z" />
</svg>
