<?xml version="1.0" standalone="no"?>
<!DOCTYPE svg PUBLIC "-//W3C//DTD SVG 1.1//EN" "http://www.w3.org/Graphics/SVG/1.1/DTD/svg11.dtd" >
<svg xmlns="http://www.w3.org/2000/svg" xmlns:xlink="http://www.w3.org/1999/xlink" version="1.1" viewBox="-10 0 1010 1000">
   <path fill="currentColor"
d="M947 319v64h-499v-64h207v-103h-171v-64h171v-109h68v109h184v64h-184v103h224zM729 439l40 -44c60 37 140 95 184 138l-43 49c-39 -41 -119 -103 -181 -143zM603 395l47 39c-58 62 -132 124 -191 162l-39 -58c57 -32 130 -87 183 -143zM291 188h-101
c-13 36 -29 72 -48 107h100c16 -30 35 -70 49 -107zM353 458v-102h-77v102h77zM353 619v-103h-77v103h77zM150 458h73v-102h-73v102zM223 516h-73v103h73v-103zM92 377l-12 15c-11 -12 -33 -31 -48 -38c73 -93 117 -216 140 -310l62 9c-7 24 -14 50 -23 75h109l12 -3l41 27
c-19 48 -43 100 -69 143h108v385h-320v-303zM94 956l-52 -26c23 -55 45 -143 57 -203l51 21c-14 60 -34 152 -56 208zM184 742l49 -7c11 58 16 134 13 183l-53 6c4 -49 1 -124 -9 -182zM270 733l47 -9c20 53 38 124 42 170l-50 10c-3 -46 -19 -117 -39 -171zM358 725l43 -16
c24 44 46 102 55 139l-47 17c-8 -39 -28 -97 -51 -140zM722 868h234v65h-530v-65h228v-144h-178v-65h178v-123h68v123h189v65h-189v144z" />
</svg>
