<?xml version="1.0" standalone="no"?>
<!DOCTYPE svg PUBLIC "-//W3C//DTD SVG 1.1//EN" "http://www.w3.org/Graphics/SVG/1.1/DTD/svg11.dtd" >
<svg xmlns="http://www.w3.org/2000/svg" xmlns:xlink="http://www.w3.org/1999/xlink" version="1.1" viewBox="-10 0 1010 1000">
   <path fill="currentColor"
d="M88 953l-52 -23c31 -53 55 -142 67 -205l50 18c-15 65 -36 155 -65 210zM186 741l47 -7c8 60 13 134 13 185l-50 8c1 -51 -4 -127 -10 -186zM267 737l46 -10c16 51 32 118 39 161l-49 14c-5 -44 -21 -113 -36 -165zM346 723l44 -18c20 38 38 88 45 121l-47 20
c-7 -33 -24 -85 -42 -123zM468 910l-55 -21c31 -54 57 -141 69 -204l52 19c-14 65 -36 153 -66 206zM481 506v-62h358l11 -4l46 17c-31 68 -75 151 -114 219l-57 -20c26 -46 55 -103 79 -150h-323zM609 299l54 -27c28 38 62 89 77 120l-55 33c-15 -34 -48 -88 -76 -126z
M613 625l51 -24c35 52 81 124 104 165l-54 29c-22 -43 -66 -115 -101 -170zM654 884h104c25 0 30 -12 33 -94c13 11 38 21 55 25c-6 103 -25 128 -81 128h-118c-74 0 -92 -18 -92 -85v-191h63v191c0 23 5 26 36 26zM810 694l52 -20c35 65 75 150 93 204l-54 25
c-18 -55 -58 -143 -91 -209zM343 458v-102h-70v102h70zM343 619v-103h-70v103h70zM147 516v103h74v-103h-74zM221 356h-74v102h74v-102zM290 188h-100c-13 36 -29 72 -48 107h100c16 -30 35 -70 48 -107zM304 295h96v385h-308v-303l-12 15c-11 -12 -33 -31 -48 -38
c73 -93 117 -216 140 -310l62 9c-7 24 -14 50 -23 75h109l11 -3l41 27c-18 48 -43 100 -68 143zM662 40l56 21c-4 13 -10 25 -16 37c71 114 162 189 267 254c-15 14 -35 36 -44 56c-99 -68 -182 -144 -254 -251c-58 104 -139 197 -226 259c-11 -17 -29 -37 -45 -50
c109 -72 209 -197 262 -326z" />
</svg>
