<?xml version="1.0" standalone="no"?>
<!DOCTYPE svg PUBLIC "-//W3C//DTD SVG 1.1//EN" "http://www.w3.org/Graphics/SVG/1.1/DTD/svg11.dtd" >
<svg xmlns="http://www.w3.org/2000/svg" xmlns:xlink="http://www.w3.org/1999/xlink" version="1.1" viewBox="-10 0 1010 1000">
   <path fill="currentColor"
d="M291 188h-101c-13 36 -29 72 -48 107h100c16 -30 35 -70 49 -107zM353 458v-102h-77v102h77zM353 619v-103h-77v103h77zM150 458h74v-102h-74v102zM224 516h-74v103h74v-103zM92 377l-12 15c-11 -12 -33 -31 -48 -38c73 -93 117 -216 140 -310l62 9c-7 24 -14 50 -23 75
h109l12 -3l41 27c-19 48 -43 100 -69 143h108v385h-320v-303zM94 956l-52 -26c23 -55 45 -143 57 -203l51 21c-14 60 -34 152 -56 208zM184 742l49 -7c11 58 16 134 13 183l-53 6c4 -49 1 -125 -9 -182zM270 733l47 -9c20 51 37 119 41 164l-50 11c-3 -45 -19 -113 -38 -166
zM539 305v269c0 121 -12 281 -91 384c-11 -12 -40 -32 -55 -40c17 -22 31 -48 43 -75l-33 12c-7 -36 -27 -90 -48 -130l45 -16c17 34 35 76 45 109c26 -79 29 -168 29 -244v-327h185v-203h69v80h201v58h-201v65h172l11 -3l48 12c-7 50 -18 109 -30 146l-51 -12l5 39l-158 15
v50c0 21 5 25 32 25h95c21 0 25 -7 28 -54c14 9 38 18 56 21c-7 68 -25 86 -75 86h-111c-72 0 -89 -16 -89 -78v-44l-102 10l-7 -51l109 -10v-91h64v85l149 -14c4 -21 8 -48 11 -74h-346zM853 879h19c8 0 16 -1 19 -4c4 -4 7 -12 9 -22c2 -16 3 -55 3 -99c12 12 36 24 53 30
c0 46 -5 95 -9 112c-5 17 -13 29 -25 38c-10 6 -27 10 -43 10h-41c-19 0 -38 -4 -51 -16c-13 -14 -15 -27 -15 -71v-183h-89c-5 162 -30 238 -144 286c-6 -14 -23 -39 -37 -49c109 -45 120 -114 121 -295h211v243c0 6 1 12 4 15s9 5 15 5z" />
</svg>
