<?xml version="1.0" standalone="no"?>
<!DOCTYPE svg PUBLIC "-//W3C//DTD SVG 1.1//EN" "http://www.w3.org/Graphics/SVG/1.1/DTD/svg11.dtd" >
<svg xmlns="http://www.w3.org/2000/svg" xmlns:xlink="http://www.w3.org/1999/xlink" version="1.1" viewBox="-10 0 1010 1000">
   <path fill="currentColor"
d="M286 188h-99c-13 36 -29 72 -48 107h100c16 -30 34 -70 47 -107zM347 458v-102h-76v102h76zM347 619v-103h-76v103h76zM147 458h73v-102h-73v102zM220 516h-73v103h73v-103zM90 377l-12 15c-11 -12 -31 -31 -46 -38c72 -93 115 -216 138 -310l60 9c-6 24 -14 50 -22 75
h107l11 -3l40 27c-18 48 -43 100 -67 143h106v385h-315v-303zM89 953l-53 -23c29 -53 54 -141 66 -205l50 18c-14 65 -35 155 -63 210zM183 741l49 -7c7 60 12 134 13 185l-51 8c1 -51 -4 -127 -11 -186zM265 737l46 -12c15 54 31 123 36 168l-48 13
c-4 -46 -20 -115 -34 -169zM344 725l44 -18c20 44 38 100 45 137l-48 20c-6 -38 -23 -96 -41 -139zM505 140v91h-67v-148h504v148h-69v-91h-368zM536 635h116v-72h-116v72zM536 437v73h116v-73h-116zM845 437h-123v73h123v-73zM845 635v-72h-123v72h123zM950 762v62h-228
v133h-70v-133h-213v-62h213v-72h-182v-307h182v-67h-190v-57h190v-87h70v87h204v57h-204v67h191v307h-191v72h228z" />
</svg>
