<?xml version="1.0" standalone="no"?>
<!DOCTYPE svg PUBLIC "-//W3C//DTD SVG 1.1//EN" "http://www.w3.org/Graphics/SVG/1.1/DTD/svg11.dtd" >
<svg xmlns="http://www.w3.org/2000/svg" xmlns:xlink="http://www.w3.org/1999/xlink" version="1.1" viewBox="-10 0 1010 1000">
   <path fill="currentColor"
d="M837 220v-83h-264v83h264zM837 360v-84h-264v84h264zM905 78v341h-397v-341h397zM310 192h-107c-13 35 -29 69 -48 103h105c18 -29 36 -68 50 -103zM382 456v-100h-85v100h85zM382 617v-103h-85v103h85zM162 456h81v-100h-81v100zM243 514h-81v103h81v-103zM102 379
l-11 14c-12 -15 -35 -35 -52 -42c74 -92 120 -214 142 -307l68 9c-7 26 -15 53 -24 80h116l13 -4l43 29c-19 45 -44 95 -70 137h117v384h-342v-300zM87 957l-49 -30c45 -45 64 -124 72 -203l54 13c-10 84 -28 170 -77 220zM195 733l50 -7c12 58 18 133 16 181l-54 8
c4 -49 -1 -123 -12 -182zM281 732l47 -10c22 51 41 120 46 165l-50 11c-4 -45 -21 -114 -43 -166zM372 724l46 -17c25 44 50 101 60 138l-49 19c-9 -38 -34 -97 -57 -140zM748 869h210v62h-492v-62h215v-111h-154v-59h154v-99h-120c-16 31 -33 59 -51 82
c-12 -10 -38 -27 -54 -34c44 -54 78 -131 98 -209l63 14c-8 29 -18 58 -29 86h93v-110h67v110h182v61h-182v99h165v59h-165v111z" />
</svg>
