<?xml version="1.0" standalone="no"?>
<!DOCTYPE svg PUBLIC "-//W3C//DTD SVG 1.1//EN" "http://www.w3.org/Graphics/SVG/1.1/DTD/svg11.dtd" >
<svg xmlns="http://www.w3.org/2000/svg" xmlns:xlink="http://www.w3.org/1999/xlink" version="1.1" viewBox="-10 0 1010 1000">
   <path fill="currentColor"
d="M94 955l-48 -25c24 -54 46 -141 57 -206l46 21c-12 64 -31 155 -55 210zM176 743l44 -7c9 57 12 130 11 178l-48 6c4 -47 0 -119 -7 -177zM248 735l41 -12c18 53 33 121 37 165l-44 13c-3 -45 -17 -113 -34 -166zM321 726l38 -17c23 41 44 98 53 134l-40 21
c-9 -38 -30 -95 -51 -138zM323 458v-103h-67v103h67zM323 619v-103h-67v103h67zM145 516v103h65v-103h-65zM210 355h-65v103h65v-103zM273 188h-94c-10 35 -24 72 -39 106h92c14 -30 29 -70 41 -106zM287 294h89v386h-282v-297l-7 11c-10 -13 -28 -32 -42 -40
c61 -93 98 -216 117 -310l54 9c-5 24 -12 50 -19 75h100l10 -3l37 28c-16 46 -37 98 -57 141zM506 56l65 15c-16 64 -34 129 -57 189v695h-64v-553c-9 16 -18 30 -26 44c-9 -12 -34 -37 -48 -49c57 -85 103 -214 130 -341zM628 454v90h93v-90h-93zM628 312v88h93v-88h-93z
M868 400v-88h-94v88h94zM868 544v-90h-94v90h94zM926 600h-150c-6 71 -17 134 -38 188c62 51 139 89 225 109c-14 15 -33 41 -42 59c-81 -24 -153 -61 -214 -110c-30 46 -74 83 -136 112c-8 -15 -27 -40 -41 -51c61 -27 101 -62 128 -106c-43 -45 -78 -96 -105 -154l59 -15
c19 40 44 76 75 108c13 -41 21 -88 26 -140h-142v-344h144v-86h-143v-64h369v64h-161v86h146v344z" />
</svg>
