<?xml version="1.0" standalone="no"?>
<!DOCTYPE svg PUBLIC "-//W3C//DTD SVG 1.1//EN" "http://www.w3.org/Graphics/SVG/1.1/DTD/svg11.dtd" >
<svg xmlns="http://www.w3.org/2000/svg" xmlns:xlink="http://www.w3.org/1999/xlink" version="1.1" viewBox="-10 0 1010 1000">
   <path fill="currentColor"
d="M928 87v308h-213v-62h149v-184h-149v-62h213zM272 191h-90c-12 35 -27 70 -44 104h91c15 -30 31 -68 43 -104zM331 458v-106h-71v106h71zM331 621v-108h-71v108h71zM144 458h68v-106h-68v106zM212 513h-68v108h68v-108zM89 381l-6 9c-11 -14 -34 -32 -49 -40
c65 -92 105 -215 126 -307l64 9c-6 26 -14 53 -22 81h97l12 -4l41 27c-17 46 -40 96 -62 139h98v384h-299v-298zM82 957l-47 -27c39 -46 52 -126 58 -205l51 11c-7 83 -19 170 -62 221zM173 734l46 -5c8 58 9 133 5 182l-49 5c6 -49 5 -123 -2 -182zM249 732l43 -8
c19 54 32 124 34 171l-47 7c0 -45 -13 -116 -30 -170zM328 724l43 -14c25 54 50 125 59 171l-46 15c-7 -46 -32 -118 -56 -172zM616 149h-112v172h112v-172zM676 760h-172v196h-64v-869h238v296h-174v122h159v64h-159v127h172v64zM908 485l39 12c-20 119 -57 214 -106 287
c35 53 78 94 129 120c-14 13 -34 36 -44 53c-49 -29 -91 -70 -125 -122c-47 54 -104 94 -167 122c-7 -15 -26 -43 -39 -55c67 -27 125 -68 172 -126c-32 -64 -56 -138 -72 -219l53 -10c13 62 32 122 57 175c30 -50 53 -108 68 -177h-192v-59h215z" />
</svg>
