<?xml version="1.0" standalone="no"?>
<!DOCTYPE svg PUBLIC "-//W3C//DTD SVG 1.1//EN" "http://www.w3.org/Graphics/SVG/1.1/DTD/svg11.dtd" >
<svg xmlns="http://www.w3.org/2000/svg" xmlns:xlink="http://www.w3.org/1999/xlink" version="1.1" viewBox="-10 0 1010 1000">
   <path fill="currentColor"
d="M820 247v-94h-257v94h257zM820 401v-96h-257v96h257zM890 91v371h-395v-371h395zM296 192h-99c-13 35 -29 69 -46 103h99c16 -29 33 -68 46 -103zM368 457v-103h-81v103h81zM368 619v-105h-81v105h81zM158 457h76v-103h-76v103zM234 514h-76v105h76v-105zM99 380l-10 14
c-11 -14 -35 -33 -51 -41c71 -93 114 -216 136 -310l66 9c-6 26 -14 53 -23 81h109l12 -4l42 28c-17 45 -41 95 -65 138h112v384h-328v-299zM86 957l-49 -30c45 -45 62 -125 70 -203l53 13c-9 83 -26 170 -74 220zM192 733l48 -6c12 58 17 133 14 181l-52 7
c4 -49 0 -123 -10 -182zM278 732l46 -10c19 49 36 115 40 157l-50 12c-3 -43 -18 -109 -36 -159zM462 824l-48 19c-9 -34 -29 -85 -49 -122l46 -17c21 38 42 88 51 120zM536 607v260h72v-260h-72zM730 607h-72v260h72v-260zM854 607h-74v260h74v-260zM914 867h45v62h-555
v-62h74v-320h436v320z" />
</svg>
