<?xml version="1.0" standalone="no"?>
<!DOCTYPE svg PUBLIC "-//W3C//DTD SVG 1.1//EN" "http://www.w3.org/Graphics/SVG/1.1/DTD/svg11.dtd" >
<svg xmlns="http://www.w3.org/2000/svg" xmlns:xlink="http://www.w3.org/1999/xlink" version="1.1" viewBox="-10 0 1010 1000">
   <path fill="currentColor"
d="M885 58l44 57c-129 35 -330 57 -497 66c-2 -17 -9 -41 -16 -57c162 -12 360 -35 469 -66zM821 390l-53 -24c28 -53 64 -139 83 -199l69 26c-32 67 -68 146 -99 197zM725 334l-60 18c-7 -40 -24 -106 -40 -157l57 -13c18 48 37 115 43 152zM569 348l-60 20
c-11 -37 -34 -101 -55 -148l57 -15c21 46 47 107 58 143zM291 188h-101c-13 36 -29 72 -48 107h100c16 -30 35 -70 49 -107zM353 458v-102h-77v102h77zM353 619v-103h-77v103h77zM150 458h73v-102h-73v102zM223 516h-73v103h73v-103zM92 377l-12 15c-11 -12 -33 -31 -48 -38
c73 -93 117 -216 140 -310l62 9c-7 24 -14 50 -23 75h109l12 -3l41 27c-19 48 -43 100 -69 143h108v385h-320v-303zM94 956l-52 -26c23 -55 45 -143 57 -203l51 21c-14 60 -34 152 -56 208zM184 741l49 -7c11 59 16 136 13 185l-53 6c4 -49 1 -125 -9 -184zM270 732l47 -8
c20 53 38 124 42 170l-50 11c-3 -46 -19 -118 -39 -173zM358 725l43 -16c23 44 46 102 54 139l-46 18c-8 -40 -29 -98 -51 -141zM723 660v189h122v-150h65v257h-65v-44h-374v-213h64v150h121v-189h-214v-64h214v-106h-100c-23 35 -49 66 -75 90c-11 -10 -37 -31 -54 -41
c53 -44 96 -107 120 -176l65 16c-6 17 -13 32 -21 48h318v63h-186v106h231v64h-231z" />
</svg>
