<?xml version="1.0" standalone="no"?>
<!DOCTYPE svg PUBLIC "-//W3C//DTD SVG 1.1//EN" "http://www.w3.org/Graphics/SVG/1.1/DTD/svg11.dtd" >
<svg xmlns="http://www.w3.org/2000/svg" xmlns:xlink="http://www.w3.org/1999/xlink" version="1.1" viewBox="-10 0 1010 1000">
   <path fill="currentColor"
d="M449 453l-26 -58c46 -20 115 -54 185 -89v-160h-179v-65h236v375h-57v-90c-56 31 -111 61 -159 87zM577 266l-36 37c-22 -28 -66 -71 -101 -101l36 -33c35 28 80 70 101 97zM291 188h-101c-13 36 -29 72 -48 107h100c16 -30 35 -70 49 -107zM353 458v-102h-77v102h77z
M353 619v-103h-77v103h77zM150 458h73v-102h-73v102zM223 516h-73v103h73v-103zM92 377l-12 15c-11 -12 -33 -31 -48 -38c73 -93 117 -216 140 -310l62 9c-7 24 -14 50 -23 75h109l12 -3l41 27c-19 48 -43 100 -69 143h108v385h-320v-303zM90 953l-54 -23
c31 -53 55 -141 67 -205l52 18c-15 65 -36 155 -65 210zM187 741l50 -7c7 60 12 135 13 186l-52 8c1 -51 -4 -128 -11 -187zM275 737l46 -11c18 53 35 122 41 167l-49 14c-5 -45 -23 -116 -38 -170zM363 726l45 -19c23 43 46 99 54 136l-47 22c-9 -39 -31 -96 -52 -139z
M838 697v-91h-296v91h296zM542 848h296v-94h-296v94zM655 461l69 12c-9 26 -18 50 -26 72h204v405h-64v-41h-296v47h-62v-411h153c8 -28 17 -60 22 -84zM688 81h240v376h-57v-99c-55 31 -110 63 -157 90l-27 -59c47 -22 114 -57 184 -93v-150h-183v-65zM842 267l-38 38
c-21 -29 -65 -73 -101 -102l36 -33c36 29 80 70 103 97z" />
</svg>
