<?xml version="1.0" standalone="no"?>
<!DOCTYPE svg PUBLIC "-//W3C//DTD SVG 1.1//EN" "http://www.w3.org/Graphics/SVG/1.1/DTD/svg11.dtd" >
<svg xmlns="http://www.w3.org/2000/svg" xmlns:xlink="http://www.w3.org/1999/xlink" version="1.1" viewBox="-10 0 1010 1000">
   <path fill="currentColor"
d="M281 192h-95c-13 34 -27 70 -45 103h96c15 -29 31 -68 44 -103zM348 458v-105h-76v105h76zM348 620v-106h-76v106h76zM150 458h72v-105h-72v105zM222 514h-72v106h72v-106zM93 379l-9 13c-12 -13 -34 -31 -50 -39c69 -94 111 -217 132 -310l64 8c-7 26 -15 54 -24 82h103
l12 -4l41 27c-18 46 -40 97 -64 139h108v384h-313v-300zM82 956l-48 -26c41 -46 58 -128 65 -206l51 12c-8 83 -24 169 -68 220zM180 733l47 -5c10 57 14 132 10 180l-50 7c4 -49 2 -124 -7 -182zM262 733l44 -9c18 52 33 120 36 164l-48 10c-2 -46 -16 -113 -32 -165z
M344 723l42 -14c20 35 38 83 45 113l-45 18c-7 -32 -23 -81 -42 -117zM510 67l60 -21c25 32 48 75 57 103l-64 25c-7 -30 -30 -75 -53 -107zM677 870h126c4 -34 8 -71 11 -108h-119c-6 40 -12 77 -18 108zM825 618h-110c-4 27 -7 57 -12 86h115c3 -31 5 -61 7 -86zM957 496
h-329c-9 22 -19 43 -29 64h236l11 -3l47 5c-5 86 -16 210 -26 308h88v59h-507v-59h166c7 -31 13 -69 19 -108h-100v-58h109c4 -29 8 -59 11 -86h-80v-8c-35 59 -75 110 -122 153c-11 -12 -36 -34 -51 -44c69 -57 122 -132 162 -223h-136v-59h159c9 -25 17 -51 25 -78h-140
v-57h155c4 -22 9 -46 13 -69h-190v-59h278c24 -38 54 -94 69 -132l68 19c-22 39 -47 80 -70 113h133v59h-222c-5 23 -10 47 -15 69h223v57h-237c-8 27 -16 53 -25 78h307v59z" />
</svg>
