<?xml version="1.0" standalone="no"?>
<!DOCTYPE svg PUBLIC "-//W3C//DTD SVG 1.1//EN" "http://www.w3.org/Graphics/SVG/1.1/DTD/svg11.dtd" >
<svg xmlns="http://www.w3.org/2000/svg" xmlns:xlink="http://www.w3.org/1999/xlink" version="1.1" viewBox="-10 0 1010 1000">
   <path fill="currentColor"
d="M296 192h-100c-14 35 -29 69 -47 103h101c16 -29 33 -68 46 -103zM368 457v-103h-81v103h81zM368 619v-105h-81v105h81zM158 457h76v-103h-76v103zM234 514h-76v105h76v-105zM99 679v-302c-4 6 -9 12 -13 18c-11 -15 -34 -34 -51 -41c73 -94 117 -216 139 -310l65 9
c-6 26 -14 53 -23 80h110l12 -4l42 28c-17 45 -41 95 -65 138h112v384h-328zM86 957l-49 -30c45 -45 62 -125 70 -203l53 13c-9 83 -26 170 -74 220zM192 733l48 -7c12 59 17 133 15 182l-52 7c3 -49 -1 -123 -11 -182zM278 732l46 -10c21 53 39 125 44 170l-49 11
c-4 -46 -21 -117 -41 -171zM365 724l46 -16c27 50 56 118 66 162l-50 18c-9 -44 -36 -113 -62 -164zM492 642v-60h408v374h-69v-32h-344v-60h344v-83h-317v-59h317v-80h-339zM501 511v-53h129v53h-129zM520 338h109v53h-109v-53zM756 511v-53h133v53h-133zM756 338h113v53
h-113v-53zM723 214h217v142h-63v-88h-154v280h-62v-280h-142v88h-61v-142h203v-68h-186v-60h447v60h-199v68z" />
</svg>
