<?xml version="1.0" standalone="no"?>
<!DOCTYPE svg PUBLIC "-//W3C//DTD SVG 1.1//EN" "http://www.w3.org/Graphics/SVG/1.1/DTD/svg11.dtd" >
<svg xmlns="http://www.w3.org/2000/svg" xmlns:xlink="http://www.w3.org/1999/xlink" version="1.1" viewBox="-10 0 1010 1000">
   <path fill="currentColor"
d="M284 188h-104c-12 35 -25 72 -41 106h97c16 -30 34 -70 48 -106zM339 458v-103h-70v103h70zM339 619v-103h-70v103h70zM147 458h76v-103h-76v103zM223 516h-76v103h76v-103zM95 379l-10 15c-9 -13 -28 -32 -41 -40c62 -93 99 -216 119 -310l53 9c-5 24 -12 50 -19 75h114
l10 -3l35 28c-18 47 -40 98 -64 141h100v386h-297v-301zM97 955l-49 -25c24 -54 45 -141 56 -206l47 21c-12 65 -30 155 -54 210zM179 743l45 -7c9 57 13 129 11 177l-48 7c3 -47 0 -119 -8 -177zM253 735l43 -12c17 52 32 121 37 165l-46 13c-3 -45 -17 -113 -34 -166z
M329 726l39 -18c23 42 45 98 55 134l-43 21c-9 -37 -30 -95 -51 -137zM490 791l46 -36c36 28 85 68 109 94l-47 41c-23 -27 -71 -69 -108 -99zM518 529v54h331v-54h-331zM604 339h-86v145h331v-44c-9 1 -22 1 -29 1h-47c-16 0 -35 -2 -44 -12c-11 -8 -15 -21 -15 -56v-34
h-65v6c0 43 -19 93 -87 128c-7 -10 -26 -25 -36 -30c63 -30 78 -67 78 -99v-5zM650 229v57h64v-57h-64zM849 401v-62h-88v41c0 11 0 17 4 19c3 3 8 3 15 3h35h21c3 0 8 0 11 -1h2zM960 695v59h-137v128c0 35 -7 50 -33 60c-25 9 -65 10 -128 10c-4 -18 -12 -40 -21 -57
c47 1 89 1 100 1c13 -1 16 -4 16 -15v-127h-324v-59h324v-58h-299v-351h141v-57h-167v-57h150c-14 -28 -43 -72 -66 -104l56 -23c25 32 54 73 69 100l-57 27h137c26 -37 58 -91 74 -128l67 22c-23 35 -48 74 -72 106h154v57h-179v57h145v351h-87v58h137z" />
</svg>
