<?xml version="1.0" standalone="no"?>
<!DOCTYPE svg PUBLIC "-//W3C//DTD SVG 1.1//EN" "http://www.w3.org/Graphics/SVG/1.1/DTD/svg11.dtd" >
<svg xmlns="http://www.w3.org/2000/svg" xmlns:xlink="http://www.w3.org/1999/xlink" version="1.1" viewBox="-10 0 1010 1000">
   <path fill="currentColor"
d="M268 188h-86c-12 35 -26 72 -43 107h87c14 -30 30 -70 42 -107zM324 458v-102h-69v102h69zM324 619v-103h-69v103h69zM141 458h71v-102h-71v102zM212 516h-71v103h71v-103zM92 381l-9 12c-9 -12 -28 -31 -42 -39c65 -94 101 -217 121 -310l58 8c-5 24 -12 50 -19 76h93
l12 -3l39 25c-17 48 -40 101 -63 145h94v385h-284v-299zM89 950l-47 -20c25 -54 48 -143 58 -205l45 16c-12 63 -31 154 -56 209zM173 741l46 -5c7 58 12 134 13 184l-48 8c1 -51 -4 -128 -11 -187zM244 738l43 -11c17 54 33 122 40 167l-45 13c-7 -46 -23 -116 -38 -169z
M465 158v343c0 133 -8 318 -65 440c-10 -11 -33 -33 -46 -39c10 -22 18 -46 24 -71l-23 9c-6 -31 -22 -78 -36 -114l39 -14c10 27 21 58 28 84c20 -97 22 -205 22 -295v-410h547v67h-490zM593 329l-49 13c-6 -36 -21 -94 -36 -138l47 -11c14 44 31 100 38 136zM719 715h-77
c-12 104 -47 185 -137 234c-8 -14 -26 -34 -40 -44c77 -40 105 -107 117 -190h-84v-271h39v215h51v-251h-106v-57h134c18 -48 38 -118 47 -165l54 15c-17 49 -35 106 -52 150h60v57h-90v251h44v-215h40v60c34 -82 49 -198 57 -314l54 7c-5 52 -11 104 -19 153h107l9 -3
l30 12c-8 72 -20 159 -33 212l-39 -13c8 -39 15 -96 20 -150h-104c-13 59 -29 111 -51 154c-4 -7 -19 -20 -31 -29v182zM805 451h55c-2 42 -5 83 -8 122c8 104 34 261 122 342c-15 9 -33 27 -42 40c-57 -54 -88 -140 -106 -224c-25 93 -65 170 -137 225
c-8 -12 -27 -29 -39 -38c126 -94 148 -272 155 -467z" />
</svg>
