<?xml version="1.0" standalone="no"?>
<!DOCTYPE svg PUBLIC "-//W3C//DTD SVG 1.1//EN" "http://www.w3.org/Graphics/SVG/1.1/DTD/svg11.dtd" >
<svg xmlns="http://www.w3.org/2000/svg" xmlns:xlink="http://www.w3.org/1999/xlink" version="1.1" viewBox="-10 0 1010 1000">
   <path fill="currentColor"
d="M659 248v-69h-211v-55h211v-80h70v80h220v55h-220v69h187v55h-430v-55h173zM296 192h-100c-14 35 -29 69 -47 103h101c16 -29 33 -68 46 -103zM368 457v-103h-81v103h81zM368 619v-105h-81v105h81zM158 457h76v-103h-76v103zM234 514h-76v105h76v-105zM99 679v-302
c-4 6 -9 12 -13 18c-11 -15 -34 -34 -51 -41c73 -94 117 -216 139 -310l65 9c-6 26 -14 53 -23 80h110l12 -4l42 28c-17 45 -41 95 -65 138h112v384h-328zM86 957l-49 -30c45 -45 62 -125 70 -203l53 13c-9 83 -26 170 -74 220zM192 733l48 -7c12 59 17 133 15 182l-52 7
c3 -49 -1 -123 -11 -182zM278 732l46 -10c21 53 39 125 44 170l-49 11c-4 -46 -21 -117 -41 -171zM365 724l46 -16c29 53 58 125 69 171l-49 18c-10 -46 -38 -119 -66 -173zM838 778h-273v97h273v-97zM498 956v-229h410v228h-70v-27h-273v28h-67zM790 532h-187
c16 28 30 66 37 89l-3 1h111c14 -25 31 -62 42 -90zM570 402v81h256v-81h-256zM810 622h148v58h-509v-58h127c-8 -25 -19 -55 -31 -78l37 -12h-78v-179h392v179h-78l36 10c-15 29 -30 57 -44 80z" />
</svg>
