<?xml version="1.0" standalone="no"?>
<!DOCTYPE svg PUBLIC "-//W3C//DTD SVG 1.1//EN" "http://www.w3.org/Graphics/SVG/1.1/DTD/svg11.dtd" >
<svg xmlns="http://www.w3.org/2000/svg" xmlns:xlink="http://www.w3.org/1999/xlink" version="1.1" viewBox="-10 0 1010 1000">
   <path fill="currentColor"
d="M289 188h-102c-12 36 -27 72 -44 107h101c16 -30 32 -70 45 -107zM354 459v-101h-78v101h78zM354 620v-102h-78v102h78zM142 518v102h83v-102h-83zM142 358v101h83v-101h-83zM86 391l-2 3c-11 -13 -31 -32 -46 -40c67 -93 109 -216 129 -310l61 9c-6 24 -13 50 -21 75
h109l12 -4l38 31c-17 46 -39 97 -62 140h108v388h-326v-292zM91 956l-50 -26c21 -55 42 -143 54 -203l47 21c-12 60 -30 152 -51 208zM176 742l46 -7c7 59 13 134 13 185l-49 8c0 -51 -4 -128 -10 -186zM258 738l44 -12c16 54 32 122 38 167l-46 14
c-6 -45 -21 -115 -36 -169zM339 726l43 -19c22 43 42 99 51 136l-45 22c-9 -38 -28 -96 -49 -139zM825 631h-263v87h263v-87zM562 854h263v-83h-263v83zM498 953v-381h393v377h-66v-37h-263v41h-64zM542 277l41 -12c22 46 46 107 56 144l-42 15c-9 -38 -32 -100 -55 -147z
M780 426l-36 -13c18 -40 43 -106 55 -150l42 15c-20 51 -41 109 -61 148zM865 460v-228h-148v228h148zM520 232v228h144v-228h-144zM805 174h120v344h-463v-344h107c-12 -31 -36 -76 -60 -110l60 -21c26 34 52 80 64 110l-48 21h151c28 -39 58 -95 74 -134l68 25
c-23 36 -49 77 -73 109z" />
</svg>
