<?xml version="1.0" standalone="no"?>
<!DOCTYPE svg PUBLIC "-//W3C//DTD SVG 1.1//EN" "http://www.w3.org/Graphics/SVG/1.1/DTD/svg11.dtd" >
<svg xmlns="http://www.w3.org/2000/svg" xmlns:xlink="http://www.w3.org/1999/xlink" version="1.1" viewBox="-10 0 1010 1000">
   <path fill="currentColor"
d="M793 230v-98h-227v98h227zM856 75v211h-350v-211h350zM590 490v-109h-104v109h104zM647 330v212h-215v-212h215zM276 188h-97c-11 36 -26 72 -42 107h97c15 -30 31 -70 42 -107zM338 459v-101h-74v101h74zM338 620v-102h-74v102h74zM136 518v102h79v-102h-79zM136 358
v101h79v-101h-79zM84 390l-3 4c-10 -13 -30 -32 -44 -40c65 -93 105 -216 124 -310l57 9c-6 24 -12 50 -20 75h104l12 -4l35 31c-16 46 -37 97 -59 140h102v388h-308v-293zM89 956l-47 -26c20 -55 40 -143 50 -203l45 21c-12 61 -28 152 -48 208zM170 742l44 -7
c7 59 12 134 12 185l-46 8c0 -51 -4 -128 -10 -186zM248 738l41 -12c16 53 32 121 37 167l-44 14c-5 -45 -20 -115 -34 -169zM763 382v109h112v-109h-112zM950 671h-188c54 71 134 140 203 177c-16 14 -37 41 -49 59c-67 -45 -150 -127 -205 -208v258h-63v-251
c-56 83 -137 160 -210 203c-11 -17 -29 -41 -44 -56l-22 12c-7 -38 -28 -96 -46 -139l41 -19c19 42 39 96 47 134c66 -39 139 -103 186 -170h-192v-64h240v-68h60v-209h224v213h-221v64h239v64z" />
</svg>
