<?xml version="1.0" standalone="no"?>
<!DOCTYPE svg PUBLIC "-//W3C//DTD SVG 1.1//EN" "http://www.w3.org/Graphics/SVG/1.1/DTD/svg11.dtd" >
<svg xmlns="http://www.w3.org/2000/svg" xmlns:xlink="http://www.w3.org/1999/xlink" version="1.1" viewBox="-10 0 1010 1000">
   <path fill="currentColor"
d="M282 192h-93c-14 35 -29 69 -47 103h94c17 -29 33 -67 46 -103zM353 457v-102h-77v102h77zM353 618v-104h-77v104h77zM149 457h74v-102h-74v102zM223 514h-74v104h74v-104zM92 377l-11 15c-11 -13 -34 -32 -48 -38c72 -94 116 -216 139 -310l61 9c-7 26 -14 53 -23 80
h103l12 -4l41 28c-19 45 -43 96 -67 138h113v384h-320v-302zM81 955l-49 -28c40 -47 58 -128 67 -204l52 12c-10 81 -26 169 -70 220zM184 735l49 -7c12 59 16 133 14 182l-53 7c4 -49 0 -123 -10 -182zM270 730l47 -9c21 53 38 125 43 170l-50 11c-4 -47 -20 -117 -40 -172
zM358 722l44 -16c26 48 52 111 62 152l-47 18c-10 -41 -35 -107 -59 -154zM661 632h-116v85h116v-85zM849 717v-85h-127v85h127zM722 861h127v-89h-127v89zM545 861h116v-89h-116v89zM482 956v-380h433v375h-66v-34h-304v39h-63zM484 508v-52h153v52h-153zM637 345v53h-126
v-53h126zM750 508v-52h159v52h-159zM751 345h130v53h-130v-53zM723 222h223v143h-61v-86h-162v265h-62v-265h-154v86h-60v-143h214v-70h-186v-61h444v61h-196v70z" />
</svg>
