<?xml version="1.0" standalone="no"?>
<!DOCTYPE svg PUBLIC "-//W3C//DTD SVG 1.1//EN" "http://www.w3.org/Graphics/SVG/1.1/DTD/svg11.dtd" >
<svg xmlns="http://www.w3.org/2000/svg" xmlns:xlink="http://www.w3.org/1999/xlink" version="1.1" viewBox="-10 0 1010 1000">
   <path fill="currentColor"
d="M952 202h-569v-62h264c-4 -28 -12 -66 -22 -94l63 -9c12 32 23 74 27 103h237v62zM647 317h21c23 -31 54 -81 69 -115l49 20c-28 41 -61 85 -86 114v192h-53v-211zM577 223l39 -17c18 23 35 56 43 78l-41 22c-7 -24 -24 -58 -41 -83zM277 188h-94c-11 35 -25 72 -40 106
h94c13 -30 28 -70 40 -106zM327 458v-103h-67v103h67zM327 619v-103h-67v103h67zM150 458h64v-103h-64v103zM214 516h-64v103h64v-103zM99 379l-10 15c-9 -14 -28 -32 -41 -40c61 -93 99 -216 118 -310l54 9c-5 24 -12 50 -18 75h99l10 -3l36 28c-16 46 -37 98 -57 141h90
v200c43 -36 63 -90 71 -161h-52v-51h201v24c-3 127 -7 176 -20 193c-9 12 -20 18 -37 19c-12 2 -32 2 -50 1c-1 -16 -5 -36 -12 -50c19 2 34 2 42 2c8 1 13 0 16 -7c6 -10 9 -43 12 -131h-52c-9 90 -35 159 -90 203c-5 -8 -19 -28 -29 -39v183h-281v-301zM326 726l38 -17
c22 41 44 96 54 131l-42 22c-8 -37 -30 -93 -50 -136zM100 956l-48 -26c24 -54 45 -141 56 -206l47 21c-13 65 -31 155 -55 211zM181 743l44 -7c9 57 13 130 11 178l-47 7c3 -47 0 -120 -8 -178zM253 735l41 -12c17 53 33 121 37 165l-45 13c-2 -45 -16 -113 -33 -166z
M525 741h299v-82h-295v8c0 23 -1 49 -4 74zM824 599v-66h64v423h-64v-154h-312c-15 57 -46 113 -102 156c-12 -13 -37 -32 -51 -40c92 -72 106 -175 106 -252v-131h64v64h295zM903 244l43 38c-19 10 -39 20 -61 28c13 72 37 141 76 175c-11 9 -26 25 -33 39
c-41 -41 -67 -119 -81 -201c-17 6 -33 11 -50 16v122l69 -21c2 13 5 31 7 41c-89 33 -107 42 -117 50v-1l-1 1c-4 -15 -15 -38 -24 -50c11 -6 22 -22 22 -61v-113l-1 -2c54 -15 117 -39 151 -61z" />
</svg>
