<?xml version="1.0" standalone="no"?>
<!DOCTYPE svg PUBLIC "-//W3C//DTD SVG 1.1//EN" "http://www.w3.org/Graphics/SVG/1.1/DTD/svg11.dtd" >
<svg xmlns="http://www.w3.org/2000/svg" xmlns:xlink="http://www.w3.org/1999/xlink" version="1.1" viewBox="-10 0 1010 1000">
   <path fill="currentColor"
d="M696 384v-48h-154v48h154zM696 478v-51h-154v51h154zM696 574v-52h-154v52h154zM514 204l42 12v-50h-132v-59h132v-63h65v63h142v-63h65v63h131v59h-131v53h-65v-53h-142v53h-53l7 2c-7 22 -16 45 -26 66h137c-10 -21 -25 -45 -39 -64l52 -19c21 25 41 59 52 83h178v49
h-171v48h153v43h-153v51h153v44h-153v52h194v50h-410v29h-63v-244c-13 17 -25 33 -38 47c-7 -13 -26 -44 -38 -57c48 -48 89 -121 111 -195zM285 188h-99c-13 36 -29 72 -47 107h99c16 -30 34 -70 47 -107zM343 458v-102h-73v102h73zM343 619v-103h-73v103h73zM147 458h72
v-102h-72v102zM219 516h-72v103h72v-103zM91 680v-305c-4 5 -9 11 -13 17c-11 -13 -31 -31 -46 -38c72 -93 115 -216 138 -310l59 9c-7 24 -14 50 -22 75h107l12 -3l39 27c-18 48 -44 100 -67 143h103v385h-310zM89 954l-52 -23c29 -53 53 -141 66 -205l49 18
c-14 65 -35 154 -63 210zM184 742l48 -7c7 60 12 134 13 185l-50 8c0 -51 -4 -128 -11 -186zM270 738l45 -12c17 54 34 122 40 168l-47 13c-6 -45 -22 -115 -38 -169zM454 844l-47 21c-8 -38 -29 -96 -51 -139l43 -19c24 43 45 99 55 137zM815 723h-238c30 33 70 64 118 88
c47 -24 88 -54 120 -88zM873 665l44 23c-36 63 -90 114 -155 155c66 26 141 45 217 55c-15 15 -33 42 -41 59c-87 -15 -171 -42 -244 -78c-82 38 -175 64 -267 79c-6 -17 -21 -45 -33 -60c81 -10 161 -29 233 -56c-47 -32 -87 -67 -117 -108l31 -11h-92v-55h412z" />
</svg>
