<?xml version="1.0" standalone="no"?>
<!DOCTYPE svg PUBLIC "-//W3C//DTD SVG 1.1//EN" "http://www.w3.org/Graphics/SVG/1.1/DTD/svg11.dtd" >
<svg xmlns="http://www.w3.org/2000/svg" xmlns:xlink="http://www.w3.org/1999/xlink" version="1.1" viewBox="-10 0 1010 1000">
   <path fill="currentColor"
d="M273 188h-94c-11 35 -24 72 -40 106h94c14 -30 29 -70 40 -106zM325 458v-103h-68v103h68zM325 619v-103h-68v103h68zM147 458h64v-103h-64v103zM211 516h-64v103h64v-103zM95 379l-10 15c-9 -13 -28 -32 -41 -40c62 -93 99 -216 119 -310l53 9c-5 24 -12 50 -19 75h101
l11 -3l35 28c-16 46 -37 98 -57 141h90v386h-282v-301zM96 951l-48 -25c24 -54 46 -141 56 -205l47 20c-13 64 -30 155 -55 210zM176 740l44 -8c9 57 13 130 11 177l-47 7c3 -47 0 -120 -8 -176zM247 732l41 -11c18 50 32 115 36 157l-44 13c-3 -43 -17 -109 -33 -159z
M594 559h97v-59h-97v59zM594 398v58h97v-58h-97zM858 456v-58h-112v58h112zM858 559v-59h-112v59h112zM938 651v242c0 30 -6 44 -26 53s-54 9 -105 9c-3 -15 -9 -35 -16 -49c38 1 71 1 81 0c11 0 13 -3 13 -13v-189h-139v85l62 -3c-7 -18 -15 -35 -22 -51l33 -10
c22 41 42 97 49 133l-35 13c-2 -13 -6 -26 -11 -42c-82 7 -160 12 -226 17l-9 -52c31 0 66 -2 104 -3v-87h-128v252h-54v-305h182v-47h-148v-252h368v252h-165v47h192zM829 167v60h122v55h-122v49h-56v-49h-109v50h-57v-50h-110v-55h110v-59h57v59h109v-60h56zM951 88v63
h-463v319c0 149 -11 356 -94 491c-10 -13 -35 -33 -48 -40c18 -31 33 -64 44 -99l-32 15c-7 -31 -25 -79 -43 -115l39 -18c15 30 33 69 42 99c31 -109 34 -232 34 -333v-382h521z" />
</svg>
