<?xml version="1.0" standalone="no"?>
<!DOCTYPE svg PUBLIC "-//W3C//DTD SVG 1.1//EN" "http://www.w3.org/Graphics/SVG/1.1/DTD/svg11.dtd" >
<svg xmlns="http://www.w3.org/2000/svg" xmlns:xlink="http://www.w3.org/1999/xlink" version="1.1" viewBox="-10 0 1010 1000">
   <path fill="currentColor"
d="M563 252v-72h-136v-58h136v-76h65v76h134v-76h65v76h120v58h-120v73h-65v-73h-134v72h-65zM284 188h-94c-13 36 -29 72 -48 107h94c16 -30 35 -70 48 -107zM341 458v-102h-65v102h65zM341 619v-103h-65v103h65zM147 458h76v-102h-76v102zM223 516h-76v103h76v-103z
M92 377l-12 15c-11 -12 -33 -31 -48 -38c73 -93 117 -216 140 -310l62 9c-7 24 -14 50 -23 75h103l11 -3l42 27c-19 48 -43 100 -69 143h101v385h-307v-303zM87 951l-51 -21c31 -53 55 -142 67 -205l49 17c-14 64 -36 155 -65 209zM181 741l47 -7c8 60 13 134 14 185l-50 8
c0 -51 -5 -127 -11 -186zM261 737l45 -11c17 53 34 122 40 167l-47 13c-5 -45 -23 -115 -38 -169zM333 724l43 -17c20 39 39 89 47 121l-46 20c-7 -34 -25 -86 -44 -124zM808 490h-76c1 27 3 55 6 80h123c-22 -19 -55 -39 -82 -55zM647 322v113h84v-113h-84zM596 435v-113
h-81v113h81zM783 322v113h87v-113h-87zM853 666l60 17c-25 52 -62 99 -103 141c25 44 53 70 80 70c19 0 26 -29 30 -98c13 14 32 24 49 30c-11 100 -32 130 -82 130c-46 0 -89 -32 -125 -89c-44 37 -94 68 -144 93c-6 -13 -25 -40 -37 -53c55 -24 108 -56 154 -94
c-23 -51 -40 -113 -52 -183h-161v44c0 10 0 20 -1 31l19 -18c40 28 91 70 114 99l-42 43c-20 -23 -58 -59 -93 -87c-8 72 -29 153 -78 214c-12 -11 -42 -28 -59 -33c64 -77 74 -177 74 -251v-102h218c-3 -26 -5 -53 -7 -80h-210v-223h473v223h-92c30 16 62 37 79 54l-27 26
h58v60h-201c9 52 21 98 37 136c28 -30 52 -63 69 -100z" />
</svg>
