<?xml version="1.0" standalone="no"?>
<!DOCTYPE svg PUBLIC "-//W3C//DTD SVG 1.1//EN" "http://www.w3.org/Graphics/SVG/1.1/DTD/svg11.dtd" >
<svg xmlns="http://www.w3.org/2000/svg" xmlns:xlink="http://www.w3.org/1999/xlink" version="1.1" viewBox="-10 0 1010 1000">
   <path fill="currentColor"
d="M538 188h-25c-17 45 -38 85 -60 117c-11 -9 -36 -26 -51 -33c43 -58 74 -144 93 -229l60 12c-6 27 -14 53 -22 79h161v54h-96c14 33 27 67 32 92l-54 19c-5 -29 -21 -74 -38 -111zM280 192h-93c-12 35 -27 69 -44 103h93c15 -29 31 -68 44 -103zM348 457v-104h-76v104h76
zM348 620v-107h-76v107h76zM150 457h72v-104h-72v104zM222 513h-72v107h72v-107zM93 379l-9 13c-11 -13 -34 -32 -50 -39c69 -94 111 -217 132 -310l64 9c-7 26 -14 53 -23 81h102l12 -4l41 27c-18 46 -41 96 -64 139h108v384h-313v-300zM83 956l-49 -26
c42 -46 58 -128 65 -206l51 12c-8 83 -23 169 -67 220zM181 733l47 -6c9 58 13 133 9 181l-50 7c4 -49 2 -124 -6 -182zM262 732l44 -9c19 52 33 121 36 165l-48 9c-2 -45 -15 -112 -32 -165zM671 617h-76v126h76v-126zM721 792h-126v42h-48v-267h174v225zM724 455v53h-187
v-53h187zM870 471l59 10c-22 101 -52 191 -93 270c20 92 43 145 65 145c14 0 20 -36 23 -114c13 13 33 24 47 30c-8 106 -28 142 -76 142c-41 0 -73 -50 -98 -134c-34 52 -73 98 -117 137c-9 -12 -32 -32 -46 -42c58 -46 105 -106 143 -176c-18 -94 -31 -213 -37 -347h-223
v148c0 120 -12 296 -77 416c-11 -11 -37 -26 -52 -32c15 -27 26 -57 35 -88l-33 12c-7 -34 -26 -87 -46 -126l43 -14c17 32 33 72 43 104c24 -93 27 -194 27 -273v-205h280c-1 -27 -1 -54 -2 -82c-10 18 -21 35 -32 50c-11 -9 -37 -26 -52 -34c46 -57 81 -141 101 -225
l60 13c-7 26 -15 53 -24 78h169v54h-98c10 19 17 37 21 52l-53 20c-5 -19 -16 -47 -29 -72h-31c-9 21 -19 41 -29 59h57c0 30 0 59 1 87h109c-13 -21 -35 -47 -54 -67l46 -24c22 21 48 52 59 71l-34 20h35v58h-159c3 97 11 184 21 257c21 -55 38 -115 51 -178z" />
</svg>
