<?xml version="1.0" standalone="no"?>
<!DOCTYPE svg PUBLIC "-//W3C//DTD SVG 1.1//EN" "http://www.w3.org/Graphics/SVG/1.1/DTD/svg11.dtd" >
<svg xmlns="http://www.w3.org/2000/svg" xmlns:xlink="http://www.w3.org/1999/xlink" version="1.1" viewBox="-10 0 1010 1000">
   <path fill="currentColor"
d="M254 190h-76c-13 35 -27 71 -44 105h81c13 -30 28 -69 39 -105zM309 458v-107h-64v107h64zM309 622v-110h-64v110h64zM136 458h63v-107h-63v107zM199 512h-63v110h63v-110zM84 383l-4 6c-12 -14 -35 -31 -50 -39c66 -93 105 -215 126 -307l63 8c-6 26 -14 54 -22 82h83
l13 -4l39 27c-15 46 -36 96 -58 139h89v384h-279v-296zM76 956l-44 -26c37 -45 49 -126 53 -205l48 9c-5 84 -17 172 -57 222zM164 734l43 -3c8 58 7 132 2 181l-45 4c6 -49 6 -123 0 -182zM240 732l40 -8c17 53 29 122 30 166l-43 8c-1 -45 -11 -112 -27 -166zM693 852h267
v66h-596v-60l-9 3c-6 -37 -22 -94 -40 -139l40 -12c20 44 37 101 43 138l-13 4h245v-318h-229v-61h229v-305h-240v-65h554v65h-251v305h247v61h-247v318zM541 748v-119h-77v119h77zM417 583h173v210h-173v-210zM542 377v-112h-78v112h78zM417 219h173v204h-173v-204z
M779 265v112h83v-112h-83zM910 423h-178v-204h178v204zM779 629v119h82v-119h-82zM910 793h-178v-210h178v210z" />
</svg>
