<?xml version="1.0" standalone="no"?>
<!DOCTYPE svg PUBLIC "-//W3C//DTD SVG 1.1//EN" "http://www.w3.org/Graphics/SVG/1.1/DTD/svg11.dtd" >
<svg xmlns="http://www.w3.org/2000/svg" xmlns:xlink="http://www.w3.org/1999/xlink" version="1.1" viewBox="-10 0 1010 1000">
   <path fill="currentColor"
d="M951 77v53h-259v-53h259zM666 77v53h-237v-53h237zM281 188h-95c-12 35 -26 72 -42 106h96c14 -30 29 -70 41 -106zM334 458v-103h-69v103h69zM334 619v-103h-69v103h69zM152 458h65v-103h-65v103zM217 516h-65v103h65v-103zM98 380l-10 14c-10 -13 -29 -32 -43 -40
c63 -93 102 -216 122 -310l57 9c-6 24 -12 50 -20 75h103l11 -3l38 28c-17 46 -39 98 -60 141h94v386h-292v-300zM99 955l-50 -25c25 -54 46 -141 57 -206l50 21c-13 64 -31 155 -57 210zM182 743l47 -7c9 57 13 129 11 177l-50 7c4 -47 1 -120 -8 -177zM257 735l44 -12
c18 53 34 121 38 165l-47 12c-3 -45 -17 -112 -35 -165zM503 609v19h85v-74h-85v55zM588 447h-85v59h85v-59zM730 506v-59h-88v59h88zM730 628v-74h-88v74h88zM875 554h-91v74h91v-74zM813 895h70c19 0 23 -9 26 -73c11 10 34 18 51 22c-6 82 -23 103 -69 103h-85
c-61 0 -75 -16 -75 -76v-196h-141v68h114v48h-114v94l114 -21c0 14 2 38 4 50c-143 31 -167 39 -181 48c-3 -17 -11 -49 -21 -67c13 -5 27 -11 27 -44v-176h-32c-4 93 -20 202 -65 281c-11 -10 -36 -27 -50 -33c13 -23 24 -49 32 -75l-32 16c-10 -38 -31 -96 -53 -138
l40 -17c20 35 39 82 50 117c19 -74 21 -154 21 -219v-214h221c-6 -15 -12 -30 -18 -44h-33v-133h-126v133h-48v-179h224v167l39 -11l6 12v-168h229v179h-50v-133h-129v133h-45c6 15 12 30 17 44h222v54h-169v59h146v169h-141v93c40 -17 85 -40 114 -57l36 40
c-46 26 -104 49 -150 65v56c0 20 4 23 24 23zM514 251l40 -12c14 28 30 63 37 85l-42 15c-7 -23 -22 -61 -35 -88zM866 324l-44 15c-7 -24 -24 -62 -40 -90l41 -14c17 30 35 66 43 89z" />
</svg>
