<?xml version="1.0" standalone="no"?>
<!DOCTYPE svg PUBLIC "-//W3C//DTD SVG 1.1//EN" "http://www.w3.org/Graphics/SVG/1.1/DTD/svg11.dtd" >
<svg xmlns="http://www.w3.org/2000/svg" xmlns:xlink="http://www.w3.org/1999/xlink" version="1.1" viewBox="-10 0 1010 1000">
   <path fill="currentColor"
d="M748 193l-70 22c-9 -39 -30 -104 -47 -153l67 -16c19 47 41 111 50 147zM337 189h-123c-17 37 -37 75 -61 110h126c20 -30 42 -72 58 -110zM386 485v-126h-87v126h87zM386 671v-130h-87v130h87zM155 485h90v-126h-90v126zM245 541h-90v130h90v-130zM93 379
c-13 -15 -36 -36 -53 -45c80 -86 131 -201 156 -291l71 10c-8 24 -17 50 -28 76h131l15 -4l42 32c-22 47 -52 99 -81 142h103v431h-355zM458 794l3 63c-142 20 -290 40 -398 53l-12 -69c102 -10 257 -29 407 -47zM949 287h-289c-1 51 -3 100 -6 149h254s0 24 -1 34
c-12 298 -25 404 -55 440c-18 22 -37 29 -65 32c-26 2 -75 2 -123 -1c-2 -21 -9 -49 -21 -69c49 5 96 6 113 6s26 -3 35 -14c20 -22 33 -114 44 -360h-186c-16 183 -57 347 -164 454c-11 -17 -35 -40 -54 -50c137 -133 152 -376 156 -621h-129v-71h491v71z" />
</svg>
