<?xml version="1.0" standalone="no"?>
<!DOCTYPE svg PUBLIC "-//W3C//DTD SVG 1.1//EN" "http://www.w3.org/Graphics/SVG/1.1/DTD/svg11.dtd" >
<svg xmlns="http://www.w3.org/2000/svg" xmlns:xlink="http://www.w3.org/1999/xlink" version="1.1" viewBox="-10 0 1010 1000">
   <path fill="currentColor"
d="M62 908l-11 -67c101 -9 256 -25 406 -41l1 60c-142 18 -288 35 -396 48zM713 385h-131v186h131v-186zM379 485v-127h-92v127h92zM379 671v-129h-92v129h92zM148 542v129h90v-129h-90zM238 358h-90v127h90v-127zM332 189h-122c-18 37 -38 75 -61 110h124
c20 -30 42 -72 59 -110zM647 876h193c44 0 52 -19 58 -113c15 11 42 22 61 27c-10 115 -30 149 -115 149h-201c-99 0 -127 -22 -127 -110v-490c-11 15 -22 28 -32 41c-11 -12 -34 -36 -48 -48v398h-344v-356l-3 3c-11 -15 -33 -34 -50 -43c80 -87 131 -201 157 -291l67 9
c-8 25 -17 51 -28 77h131l13 -4l41 31c-23 47 -54 100 -83 143h99v29c63 -70 115 -175 145 -283l66 17c-9 32 -21 65 -34 96h305v32c-2 347 -4 458 -26 491c-15 21 -33 29 -60 32c-24 2 -66 2 -108 -1c-1 -18 -8 -44 -19 -61c43 4 84 4 101 4c13 0 21 -2 28 -13
c15 -21 18 -126 20 -419h-269c-18 37 -38 71 -59 102h250v306h-194v197c0 40 9 48 65 48z" />
</svg>
