<?xml version="1.0" standalone="no"?>
<!DOCTYPE svg PUBLIC "-//W3C//DTD SVG 1.1//EN" "http://www.w3.org/Graphics/SVG/1.1/DTD/svg11.dtd" >
<svg xmlns="http://www.w3.org/2000/svg" xmlns:xlink="http://www.w3.org/1999/xlink" version="1.1" viewBox="-10 0 1010 1000">
   <path fill="currentColor"
d="M340 189h-134c-18 37 -37 75 -61 110h136c21 -30 42 -72 59 -110zM390 485v-126h-94v126h94zM390 671v-129h-94v129h94zM151 485h92v-126h-92v126zM243 542h-92v129h92v-129zM93 371l-4 5c-11 -14 -33 -33 -50 -42c77 -87 129 -203 156 -291l65 10c-8 24 -18 50 -29 76
h143l13 -4l40 31c-22 47 -52 100 -82 143h105v431h-357v-359zM439 770l5 61c-135 27 -277 55 -381 76l-12 -66c97 -16 245 -43 388 -71zM849 509h-205c25 76 60 147 105 209c43 -59 78 -130 100 -209zM572 444h117v-175h-117v175zM887 441l43 16c-26 127 -75 232 -138 315
c50 54 109 98 176 126c-16 13 -38 39 -48 57c-66 -31 -123 -77 -173 -130c-54 55 -116 100 -182 131c-9 -17 -27 -42 -42 -56c66 -27 128 -72 181 -128c-54 -75 -96 -164 -126 -263h-7c-5 142 -27 319 -103 445c-12 -12 -40 -31 -57 -38c85 -140 94 -335 94 -476v-238h184
v-155h67v155h140l13 -2l49 12c-17 66 -38 143 -57 192l-61 -14c12 -31 24 -77 35 -121h-119v175h119z" />
</svg>
