<?xml version="1.0" standalone="no"?>
<!DOCTYPE svg PUBLIC "-//W3C//DTD SVG 1.1//EN" "http://www.w3.org/Graphics/SVG/1.1/DTD/svg11.dtd" >
<svg xmlns="http://www.w3.org/2000/svg" xmlns:xlink="http://www.w3.org/1999/xlink" version="1.1" viewBox="-10 0 1010 1000">
   <path fill="currentColor"
d="M542 374h314c-59 -63 -118 -138 -162 -208c-43 77 -96 147 -152 208zM537 441v-62c-26 28 -55 55 -82 78c-6 -16 -25 -53 -36 -70c107 -82 208 -209 267 -349l61 22c-6 14 -13 29 -20 43c58 99 159 214 243 279c-12 17 -28 49 -36 69c-23 -21 -49 -45 -73 -72v62h-324z
M309 189h-108c-18 37 -37 75 -60 110h109c20 -30 42 -72 59 -110zM344 485v-126h-73v126h73zM344 671v-130h-73v130h73zM147 485h73v-126h-73v126zM220 541h-73v130h73v-130zM89 372l-3 4c-12 -14 -33 -33 -49 -42c76 -87 126 -203 152 -291l65 10c-8 24 -16 50 -27 76h115
l13 -4l39 31c-21 47 -52 100 -80 143h88v431h-313v-358zM61 907l-12 -66c92 -13 232 -37 368 -59l3 60c-128 23 -261 48 -359 65zM769 714l56 -27c54 74 116 174 142 238l-60 32c-8 -21 -20 -46 -34 -73c-347 26 -385 29 -409 40c-4 -18 -15 -52 -21 -68
c18 -4 44 -12 58 -30c20 -24 83 -146 117 -213h-149v-67h472v67h-253c-35 68 -90 172 -126 237l282 -19c-24 -40 -50 -81 -75 -117z" />
</svg>
