<?xml version="1.0" standalone="no"?>
<!DOCTYPE svg PUBLIC "-//W3C//DTD SVG 1.1//EN" "http://www.w3.org/Graphics/SVG/1.1/DTD/svg11.dtd" >
<svg xmlns="http://www.w3.org/2000/svg" xmlns:xlink="http://www.w3.org/1999/xlink" version="1.1" viewBox="-10 0 1010 1000">
   <path fill="currentColor"
d="M317 189h-111c-18 37 -37 75 -61 110h114c20 -30 41 -72 58 -110zM352 485v-127h-73v127h73zM352 671v-129h-73v129h73zM150 485h76v-127h-76v127zM226 542h-76v129h76v-129zM91 372l-3 4c-12 -14 -34 -33 -50 -42c77 -87 129 -203 156 -291l67 10c-9 24 -17 50 -28 76
h116l14 -4l40 31c-21 47 -52 99 -81 143h90v431h-321v-358zM422 788l3 61c-129 21 -265 43 -364 58l-12 -66c94 -12 236 -32 373 -53zM549 683v-130h68v131c0 89 -25 200 -158 267c-12 -12 -37 -32 -54 -41c123 -61 144 -155 144 -227zM782 951v-397h69v397h-69zM795 225
h-215c26 62 63 113 112 154c47 -40 81 -90 103 -154zM952 225h-81c-26 80 -67 144 -122 193c61 35 135 60 224 74c-16 14 -35 43 -44 62c-96 -18 -174 -48 -238 -91c-64 41 -140 72 -228 94c-5 -16 -24 -47 -36 -63c81 -16 150 -41 208 -75c-54 -51 -95 -115 -123 -194h-78
v-66h226c-11 -32 -29 -71 -46 -101l66 -19c22 37 44 85 55 120h217v66z" />
</svg>
