<?xml version="1.0" standalone="no"?>
<!DOCTYPE svg PUBLIC "-//W3C//DTD SVG 1.1//EN" "http://www.w3.org/Graphics/SVG/1.1/DTD/svg11.dtd" >
<svg xmlns="http://www.w3.org/2000/svg" xmlns:xlink="http://www.w3.org/1999/xlink" version="1.1" viewBox="-10 0 1010 1000">
   <path fill="currentColor"
d="M325 189h-119c-18 37 -38 75 -62 110h120c22 -30 44 -72 61 -110zM363 485v-127h-80v127h80zM363 671v-129h-80v129h80zM148 485h83v-127h-83v127zM231 542h-83v129h83v-129zM91 372l-3 4c-12 -14 -34 -33 -51 -42c78 -87 130 -203 156 -291l66 10c-7 24 -17 50 -28 76
h129l14 -4l41 31c-23 47 -55 100 -86 143h93v431h-331v-358zM425 782l4 60c-132 24 -268 48 -368 65l-12 -66c94 -13 236 -37 376 -59zM535 558h129c1 -16 1 -31 1 -47v-50h-130v97zM535 311v94h130v-94h-130zM857 311h-125v94h125v-94zM857 558v-97h-125v50
c0 16 0 31 -1 47h126zM924 617h-196c-7 61 -23 122 -54 175c75 54 174 88 293 104c-16 16 -35 43 -44 64c-116 -21 -212 -58 -287 -115c-42 47 -98 88 -179 118c-9 -16 -28 -42 -42 -56c78 -26 132 -63 170 -104c-42 -41 -75 -90 -99 -147l61 -14c19 41 43 76 75 107
c22 -41 33 -86 39 -132h-191v-365h195v-88h-221v-63h506v63h-218v88h192v365z" />
</svg>
