<?xml version="1.0" standalone="no"?>
<!DOCTYPE svg PUBLIC "-//W3C//DTD SVG 1.1//EN" "http://www.w3.org/Graphics/SVG/1.1/DTD/svg11.dtd" >
<svg xmlns="http://www.w3.org/2000/svg" xmlns:xlink="http://www.w3.org/1999/xlink" version="1.1" viewBox="-10 0 1010 1000">
   <path fill="currentColor"
d="M296 189h-101c-17 37 -36 75 -59 111h106c19 -30 39 -73 54 -111zM332 486v-127h-68v127h68zM332 671v-129h-68v129h68zM143 486h71v-127h-71v127zM214 542h-71v129h71v-129zM89 368l-4 4c-12 -12 -33 -30 -48 -38c73 -87 123 -204 148 -291l62 8c-8 25 -17 52 -27 78
h107l13 -4l40 30c-21 48 -49 101 -76 145h83v431h-298v-363zM60 907l-11 -66c88 -11 219 -30 351 -49l2 59c-123 20 -248 40 -342 56zM660 279v602c0 29 -5 45 -24 55c-18 10 -44 11 -85 11c-3 -15 -10 -39 -18 -55c29 1 53 1 62 1s11 -3 11 -12v-544h-114v616h-56v-674h224
zM601 675l-39 12c-12 -55 -41 -139 -66 -203l37 -10c26 65 55 148 68 201zM922 279v601c0 31 -5 47 -24 57c-18 10 -47 11 -90 11c-2 -16 -11 -39 -18 -55c30 1 59 1 66 1c9 -1 13 -4 13 -13v-543h-111v616h-55v-675h219zM865 683l-38 12c-12 -55 -40 -139 -64 -203l37 -10
c25 65 53 147 65 201zM419 107h529v66h-529v-66z" />
</svg>
