<?xml version="1.0" standalone="no"?>
<!DOCTYPE svg PUBLIC "-//W3C//DTD SVG 1.1//EN" "http://www.w3.org/Graphics/SVG/1.1/DTD/svg11.dtd" >
<svg xmlns="http://www.w3.org/2000/svg" xmlns:xlink="http://www.w3.org/1999/xlink" version="1.1" viewBox="-10 0 1010 1000">
   <path fill="currentColor"
d="M616 60v506h-59v-506h59zM490 104v413h-58v-413h58zM281 189h-84c-16 37 -34 75 -57 110h85c19 -30 39 -72 56 -110zM327 485v-127h-67v127h67zM327 671v-129h-67v129h67zM140 542v129h70v-129h-70zM140 358v127h70v-127h-70zM88 374l-2 2c-12 -14 -35 -33 -51 -42
c74 -87 121 -202 145 -291l66 8c-7 25 -15 52 -25 78h92l14 -4l41 31c-21 47 -51 100 -79 143h92v431h-293v-356zM62 907l-11 -66c87 -9 218 -24 347 -39l2 60c-121 17 -245 33 -338 45zM719 714v144h236v63h-551v-63h245v-144h-205v-64h205v-93h70v93h195v64h-195zM856 153
h-148c17 69 41 131 75 185c32 -52 58 -113 73 -185zM890 87l39 11c-19 123 -55 221 -106 297c40 48 89 86 147 110c-14 12 -33 36 -42 53c-56 -26 -104 -65 -144 -112c-38 42 -80 76 -127 100c-8 -15 -27 -41 -40 -55c47 -21 90 -55 127 -99c-42 -65 -72 -143 -94 -229
l44 -10h-53v-64h237z" />
</svg>
