<?xml version="1.0" standalone="no"?>
<!DOCTYPE svg PUBLIC "-//W3C//DTD SVG 1.1//EN" "http://www.w3.org/Graphics/SVG/1.1/DTD/svg11.dtd" >
<svg xmlns="http://www.w3.org/2000/svg" xmlns:xlink="http://www.w3.org/1999/xlink" version="1.1" viewBox="-10 0 1010 1000">
   <path fill="currentColor"
d="M927 318v61h-476v-61h199v-109h-152v-61h152v-104h72v104h157v61h-157v109h205zM740 434l35 -40c61 30 140 77 180 108l-37 46c-39 -31 -118 -81 -178 -114zM592 394l60 25c-53 47 -129 104 -187 139c-11 -12 -34 -36 -48 -48c60 -30 130 -75 175 -116zM290 189h-116
c-13 37 -28 74 -45 110h109c18 -30 38 -72 52 -110zM333 485v-127h-70v127h70zM333 671v-129h-70v129h70zM137 485h74v-127h-74v127zM211 542h-74v129h74v-129zM83 730v-362c-13 -13 -32 -27 -46 -34c59 -88 94 -205 113 -291l63 8c-6 25 -13 52 -21 78h128l13 -3l37 28
c-19 48 -48 101 -75 145h94v431h-306zM62 907l-11 -66c88 -13 220 -36 349 -57l4 60c-122 22 -247 46 -342 63zM594 616l-13 15c24 49 56 92 97 129c44 -40 80 -88 106 -144h-190zM830 556l42 22c-31 92 -80 165 -142 223c63 44 140 77 227 94c-15 15 -34 41 -43 59
c-90 -22 -169 -60 -235 -110c-69 51 -149 89 -234 114c-8 -18 -25 -47 -38 -61c81 -21 157 -54 220 -98c-35 -36 -65 -76 -90 -121c-23 21 -49 43 -78 62c-10 -14 -30 -36 -44 -45c99 -61 162 -148 194 -221l67 11c-12 24 -26 50 -42 74h167v-1h15z" />
</svg>
