<?xml version="1.0" standalone="no"?>
<!DOCTYPE svg PUBLIC "-//W3C//DTD SVG 1.1//EN" "http://www.w3.org/Graphics/SVG/1.1/DTD/svg11.dtd" >
<svg xmlns="http://www.w3.org/2000/svg" xmlns:xlink="http://www.w3.org/1999/xlink" version="1.1" viewBox="-10 0 1010 1000">
   <path fill="currentColor"
d="M317 189h-110c-18 37 -38 75 -62 110h112c21 -30 43 -72 60 -110zM353 485v-126h-75v126h75zM353 671v-129h-75v129h75zM151 485h75v-126h-75v126zM226 542h-75v129h75v-129zM92 372l-3 4c-13 -14 -35 -33 -51 -42c78 -87 130 -203 156 -291l68 10c-9 24 -17 50 -28 76
h117l14 -4l41 31c-23 47 -54 100 -84 143h92v431h-322v-358zM61 907l-12 -66c95 -12 237 -32 375 -53l2 61c-129 21 -266 43 -365 58zM584 741l70 17c-33 77 -91 153 -147 201c-13 -12 -42 -34 -59 -45c56 -43 106 -107 136 -173zM761 767l60 -30c50 57 109 135 137 184
l-64 34c-25 -50 -84 -130 -133 -188zM615 554v93h188v-93h-188zM803 252h-188v89h188v-89zM615 402v91h188v-91h-188zM873 647h90v65h-504v-65h87v-395h-81v-65h81v-141h69v141h188v-141h70v141h76v65h-76v395z" />
</svg>
