<?xml version="1.0" standalone="no"?>
<!DOCTYPE svg PUBLIC "-//W3C//DTD SVG 1.1//EN" "http://www.w3.org/Graphics/SVG/1.1/DTD/svg11.dtd" >
<svg xmlns="http://www.w3.org/2000/svg" xmlns:xlink="http://www.w3.org/1999/xlink" version="1.1" viewBox="-10 0 1010 1000">
   <path fill="currentColor"
d="M839 236v-92h-295v92h295zM839 385v-93h-295v93h295zM909 85v359h-432v-359h432zM332 189h-126c-18 37 -38 75 -62 110h127c21 -30 44 -72 61 -110zM367 485v-127h-83v127h83zM367 671v-129h-83v129h83zM148 485h84v-127h-84v127zM232 542h-84v129h84v-129zM91 372l-3 4
c-12 -14 -34 -33 -51 -42c78 -87 130 -203 156 -291l66 10c-7 24 -17 50 -28 76h136l14 -4l42 32c-25 47 -55 99 -87 142h90v431h-335v-358zM61 907l-12 -66c94 -13 236 -37 376 -59l4 60c-132 24 -268 48 -368 65zM556 859l137 -31c1 21 4 48 7 64c-181 46 -209 56 -227 67
c-3 -20 -14 -53 -26 -72c16 -6 39 -17 39 -52v-354h70v127h135v65h-135v186zM812 886h68c21 0 24 -16 27 -110c14 11 40 21 58 26c-6 115 -24 145 -78 145h-85c-66 0 -82 -20 -82 -92v-379h66v166c45 -29 96 -67 128 -96l43 50c-52 41 -118 82 -171 110v149c0 27 4 31 26 31
z" />
</svg>
