<?xml version="1.0" standalone="no"?>
<!DOCTYPE svg PUBLIC "-//W3C//DTD SVG 1.1//EN" "http://www.w3.org/Graphics/SVG/1.1/DTD/svg11.dtd" >
<svg xmlns="http://www.w3.org/2000/svg" xmlns:xlink="http://www.w3.org/1999/xlink" version="1.1" viewBox="-10 0 1010 1000">
   <path fill="currentColor"
d="M323 189h-111c-18 37 -38 75 -62 110h115c20 -30 41 -72 58 -110zM367 486v-128h-80v128h80zM367 671v-129h-80v129h80zM156 486h79v-128h-79v128zM235 542h-79v129h79v-129zM97 372l-3 4c-12 -14 -34 -33 -51 -42c78 -87 130 -203 156 -291l66 10c-7 24 -17 50 -28 76
h118l13 -4l40 30c-21 47 -51 100 -80 144h100v432h-331v-359zM446 786l2 60c-136 22 -278 45 -382 62l-11 -67c97 -12 246 -34 391 -55zM820 881h59c19 0 23 -15 25 -116c14 11 41 21 59 25c-5 121 -23 152 -76 152h-78c-65 0 -80 -21 -80 -89v-286h-74
c-12 183 -43 316 -183 393c-8 -16 -28 -40 -43 -51c124 -65 149 -182 157 -342h-95v-424c54 -25 115 -62 149 -94l54 51c-39 26 -87 50 -133 72v131h115v61h-115v140h290v-136h-130v-60h130v-130h-134v-62h201v451h-122v287c0 24 4 27 24 27z" />
</svg>
