<?xml version="1.0" standalone="no"?>
<!DOCTYPE svg PUBLIC "-//W3C//DTD SVG 1.1//EN" "http://www.w3.org/Graphics/SVG/1.1/DTD/svg11.dtd" >
<svg xmlns="http://www.w3.org/2000/svg" xmlns:xlink="http://www.w3.org/1999/xlink" version="1.1" viewBox="-10 0 1010 1000">
   <path fill="currentColor"
d="M939 159v66h-490v-66h220c-12 -32 -29 -71 -45 -101l68 -19c21 37 44 85 55 120h192zM320 189h-116c-16 37 -36 75 -59 110h114c22 -30 43 -72 61 -110zM354 485v-127h-74v127h74zM354 669v-128h-74v128h74zM149 485h81v-127h-81v127zM230 541h-81v128h81v-128zM90 729
v-352c-13 -15 -36 -34 -53 -43c76 -87 126 -203 152 -291l68 10c-7 24 -16 50 -27 76h123l14 -4l41 32c-23 46 -54 99 -83 142h91v430h-326zM62 907l-12 -66c92 -11 231 -32 367 -52l3 61c-127 20 -260 42 -358 57zM538 634l62 17c-30 85 -76 180 -116 242
c-12 -10 -39 -30 -54 -39c41 -58 81 -143 108 -220zM562 378v129h256v-129h-256zM890 574h-158v301c0 37 -7 55 -33 66c-25 12 -64 12 -124 12c-4 -20 -14 -47 -24 -66c42 2 82 1 93 1c12 -1 16 -4 16 -14v-300h-166v-263h396v263zM787 654l58 -21c39 72 83 165 105 226
l-62 26c-20 -62 -64 -158 -101 -231z" />
</svg>
