<?xml version="1.0" standalone="no"?>
<!DOCTYPE svg PUBLIC "-//W3C//DTD SVG 1.1//EN" "http://www.w3.org/Graphics/SVG/1.1/DTD/svg11.dtd" >
<svg xmlns="http://www.w3.org/2000/svg" xmlns:xlink="http://www.w3.org/1999/xlink" version="1.1" viewBox="-10 0 1010 1000">
   <path fill="currentColor"
d="M952 437l-58 29c-27 -56 -83 -139 -142 -212c44 -65 92 -146 117 -196l64 18c-30 55 -73 122 -109 176c50 62 103 137 128 185zM774 434l-60 29c-22 -57 -74 -139 -128 -212c42 -65 89 -145 112 -196l65 18c-29 55 -71 123 -106 177c46 62 94 136 117 184zM600 438
l-61 28c-22 -57 -69 -140 -121 -215c41 -65 86 -147 110 -197l63 17c-28 54 -68 124 -102 179c44 64 90 139 111 188zM315 189h-110c-17 37 -38 75 -62 110h112c21 -30 42 -72 60 -110zM354 485v-127h-77v127h77zM354 671v-129h-77v129h77zM149 485h79v-127h-79v127z
M228 542h-79v129h79v-129zM92 370l-5 6c-12 -14 -34 -33 -51 -42c78 -87 130 -203 156 -291l67 10c-7 24 -17 50 -28 76h117l13 -4l41 31c-23 47 -54 100 -83 143h94v431h-321v-360zM61 907l-12 -66c94 -12 236 -32 373 -53l3 61c-129 21 -265 43 -364 58zM660 555h-134v118
h134v-118zM860 673v-118h-137v118h137zM723 855h137v-122h-137v122zM526 855h134v-122h-134v122zM461 958v-466h466v464h-67v-38h-334v40h-65z" />
</svg>
