<?xml version="1.0" standalone="no"?>
<!DOCTYPE svg PUBLIC "-//W3C//DTD SVG 1.1//EN" "http://www.w3.org/Graphics/SVG/1.1/DTD/svg11.dtd" >
<svg xmlns="http://www.w3.org/2000/svg" xmlns:xlink="http://www.w3.org/1999/xlink" version="1.1" viewBox="-10 0 1010 1000">
   <path fill="currentColor"
d="M826 216v-85h-251v85h251zM826 356v-87h-251v87h251zM899 75v337h-395v-337h395zM306 196h-107c-15 35 -32 70 -53 104h103c19 -28 40 -68 57 -104zM362 478v-118h-77v118h77zM362 656v-121h-77v121h77zM153 478h79v-118h-79v118zM232 535h-79v121h79v-121zM94 376l-7 8
c-12 -14 -34 -34 -50 -43c75 -88 122 -207 145 -298l68 10c-8 25 -16 53 -27 80h117l13 -4l44 30c-20 47 -48 98 -76 141h101v415h-328v-339zM441 771l4 62c-137 28 -279 55 -382 77l-13 -69c97 -15 245 -44 391 -70zM735 709v149c27 5 56 6 86 6c25 0 120 0 152 -1
c-11 17 -20 50 -23 70h-132c-119 0 -212 -21 -275 -128c-22 62 -51 115 -92 157c-12 -10 -42 -31 -58 -41c79 -74 111 -193 124 -341l69 5c-5 49 -11 95 -21 139c25 58 59 93 100 113v-290h-215v-68h505v68h-220v95h191v67h-191z" />
</svg>
