<?xml version="1.0" standalone="no"?>
<!DOCTYPE svg PUBLIC "-//W3C//DTD SVG 1.1//EN" "http://www.w3.org/Graphics/SVG/1.1/DTD/svg11.dtd" >
<svg xmlns="http://www.w3.org/2000/svg" xmlns:xlink="http://www.w3.org/1999/xlink" version="1.1" viewBox="-10 0 1010 1000">
   <path fill="currentColor"
d="M850 266v-114h-124v114h124zM850 443v-115h-124v115h124zM538 328v115h122v-115h-122zM538 152v114h122v-114h-122zM921 87v421h-451v-421h451zM788 681l-56 34c-22 -44 -71 -115 -112 -167l53 -29c41 50 92 119 115 162zM296 189h-93c-17 37 -36 75 -60 110h96
c19 -30 41 -72 57 -110zM336 485v-127h-70v127h70zM336 671v-129h-70v129h70zM147 485h69v-127h-69v127zM216 542h-69v129h69v-129zM90 369l-5 6c-11 -14 -32 -32 -47 -41c78 -87 128 -202 154 -291l64 8c-8 25 -16 52 -27 78h100l14 -4l43 32c-22 47 -52 99 -80 142h89v431
h-305v-361zM411 804l1 42c26 -67 45 -173 54 -251l56 17c-10 82 -28 199 -58 273l-51 -32v12c-127 16 -256 31 -353 42l-11 -66c91 -8 228 -23 362 -37zM652 869h116c28 0 34 -13 37 -107c14 12 42 23 61 28c-7 113 -26 143 -91 143h-131c-78 0 -98 -20 -98 -92v-249h67v248
c0 25 5 29 39 29zM817 627l57 -21c40 76 78 177 92 243l-61 24c-12 -68 -49 -170 -88 -246z" />
</svg>
