<?xml version="1.0" standalone="no"?>
<!DOCTYPE svg PUBLIC "-//W3C//DTD SVG 1.1//EN" "http://www.w3.org/Graphics/SVG/1.1/DTD/svg11.dtd" >
<svg xmlns="http://www.w3.org/2000/svg" xmlns:xlink="http://www.w3.org/1999/xlink" version="1.1" viewBox="-10 0 1010 1000">
   <path fill="currentColor"
d="M315 187h-108c-17 37 -36 75 -59 110h109c20 -30 42 -72 58 -110zM360 484v-127h-79v127h79zM360 669v-129h-79v129h79zM148 484h80v-127h-80v127zM228 540h-80v129h80v-129zM89 377c-12 -15 -35 -36 -52 -45c77 -87 126 -201 151 -291l69 9c-7 25 -15 51 -25 77h116
l14 -4l42 32c-22 47 -52 99 -81 142h96v432h-329zM438 800l1 59c-137 18 -277 35 -380 46l-11 -66c97 -9 245 -24 390 -39zM814 679h-224c28 40 65 76 110 108c46 -30 85 -66 114 -108zM566 440v69h266v-69h-266zM566 324v66h266v-66h-266zM868 619l46 21
c-35 76 -88 136 -153 184c61 31 134 56 211 68c-17 15 -37 43 -46 62c-86 -17 -163 -48 -229 -90c-79 44 -171 74 -267 92c-5 -18 -20 -46 -33 -59c85 -14 169 -39 242 -75c-36 -30 -68 -65 -94 -102c-24 25 -49 47 -74 66c-11 -12 -36 -36 -49 -47
c64 -42 124 -107 164 -177h-88v-265c-16 22 -31 42 -47 59c-5 -15 -24 -52 -35 -68c59 -63 113 -155 146 -249l62 20c-9 25 -20 49 -31 74h348v65h-380c-15 26 -29 50 -44 73h384v291h-243c-10 20 -22 41 -34 60h231z" />
</svg>
