<?xml version="1.0" standalone="no"?>
<!DOCTYPE svg PUBLIC "-//W3C//DTD SVG 1.1//EN" "http://www.w3.org/Graphics/SVG/1.1/DTD/svg11.dtd" >
<svg xmlns="http://www.w3.org/2000/svg" xmlns:xlink="http://www.w3.org/1999/xlink" version="1.1" viewBox="-10 0 1010 1000">
   <path fill="currentColor"
d="M696 384v-48h-154v48h154zM696 478v-51h-154v51h154zM696 574v-52h-154v52h154zM479 653v-246c-12 15 -23 29 -35 42c-6 -13 -26 -43 -39 -57c48 -47 87 -117 109 -188l42 12v-50h-131v-59h131v-63h66v63h141v-63h65v63h123v59h-123v53h-65v-53h-141v53h-54l7 2
c-8 22 -16 45 -26 66h138c-10 -21 -25 -45 -40 -64l52 -19c21 25 41 59 52 83h178v49h-171v48h153v43h-153v51h153v44h-153v52h194v50h-410v29h-63zM310 189h-108c-18 37 -37 75 -60 110h110c20 -30 41 -72 58 -110zM341 485v-126h-71v126h71zM341 671v-129h-71v129h71z
M147 485h72v-126h-72v126zM219 542h-72v129h72v-129zM90 372l-3 4c-12 -14 -33 -33 -49 -42c76 -87 127 -203 153 -291l65 10c-8 24 -17 50 -28 76h115l13 -4l40 31c-23 47 -52 100 -82 143h85v431h-309v-358zM414 788l2 61c-127 21 -259 43 -356 58l-11 -66
c91 -12 230 -32 365 -53zM815 723h-238c30 33 70 64 118 88c47 -24 88 -54 120 -88zM874 665l43 23c-36 63 -89 114 -155 155c67 26 141 45 217 55c-14 15 -32 42 -41 59c-87 -15 -171 -42 -244 -78c-82 38 -175 64 -267 79c-6 -17 -21 -45 -33 -60c81 -10 162 -29 233 -56
c-47 -32 -87 -67 -117 -108l31 -11h-92v-55h413z" />
</svg>
