<?xml version="1.0" standalone="no"?>
<!DOCTYPE svg PUBLIC "-//W3C//DTD SVG 1.1//EN" "http://www.w3.org/Graphics/SVG/1.1/DTD/svg11.dtd" >
<svg xmlns="http://www.w3.org/2000/svg" xmlns:xlink="http://www.w3.org/1999/xlink" version="1.1" viewBox="-10 0 1010 1000">
   <path fill="currentColor"
d="M302 189h-100c-18 37 -37 75 -60 110h102c20 -30 42 -72 58 -110zM337 485v-126h-65v126h65zM337 671v-129h-65v129h65zM146 485h75v-126h-75v126zM221 542h-75v129h75v-129zM91 371l-4 5c-12 -14 -33 -33 -49 -42c76 -87 127 -203 154 -291l64 10c-8 24 -17 50 -28 76
h107l14 -4l39 31c-23 47 -52 100 -82 143h88v431h-303v-359zM397 786l4 60c-121 22 -247 45 -340 61l-12 -66c87 -12 219 -34 348 -55zM453 920l-54 -31c27 -49 52 -128 64 -188l53 23c-14 62 -36 144 -63 196zM740 230h-221v118c0 99 -9 239 -60 336
c-9 -13 -34 -35 -48 -42c44 -89 49 -207 49 -294v-182h276c-2 -39 -4 -79 -5 -122h59c0 43 1 84 3 122h94c-18 -27 -53 -65 -83 -91l37 -31c31 26 70 63 87 89l-36 33h56v64h-151c6 92 16 166 27 224c29 -56 50 -118 66 -185l55 12c-24 94 -58 178 -101 250
c16 51 35 76 52 76c15 0 23 -24 27 -110c12 13 28 26 43 32c-9 118 -29 143 -73 143c-34 0 -63 -29 -87 -85c-20 27 -40 51 -62 71c-11 -9 -35 -26 -49 -34c33 -29 63 -63 89 -101c-20 -73 -35 -171 -44 -293zM679 540v-99h-79v99h79zM720 392v195h-162v-195h162zM726 286
v53h-177v-53h177zM761 748l-42 39c-18 -36 -60 -88 -100 -125l41 -34c39 35 83 84 101 120zM644 866h116c27 0 32 -10 35 -91c12 11 37 20 54 25c-7 102 -25 128 -82 128h-129c-74 0 -93 -19 -93 -87v-161h60v160c0 23 6 26 39 26zM810 709l50 -27c44 59 85 138 98 193
l-54 30c-12 -54 -52 -135 -94 -196z" />
</svg>
