<?xml version="1.0" standalone="no"?>
<!DOCTYPE svg PUBLIC "-//W3C//DTD SVG 1.1//EN" "http://www.w3.org/Graphics/SVG/1.1/DTD/svg11.dtd" >
<svg xmlns="http://www.w3.org/2000/svg" xmlns:xlink="http://www.w3.org/1999/xlink" version="1.1" viewBox="-10 0 1010 1000">
   <path fill="currentColor"
d="M533 187h-7c-20 49 -45 93 -70 127c-11 -10 -37 -31 -52 -39c47 -58 79 -143 98 -231l64 13c-6 24 -12 47 -20 71h149v59h-100c14 30 27 63 32 86l-57 19c-5 -28 -21 -70 -37 -105zM302 187h-102c-15 38 -31 75 -51 112h95c19 -29 41 -72 58 -112zM342 484v-123h-69v123
h69zM342 667v-125h-69v125h69zM147 542v125h76v-125h-76zM147 361v123h76v-123h-76zM91 390l-2 3c-12 -14 -34 -32 -50 -40c73 -93 116 -216 139 -309l65 9c-7 24 -14 50 -22 75h111l12 -4l38 26c-21 51 -50 105 -77 149h95v430h-309v-339zM64 906l-14 -65
c93 -16 235 -44 371 -73l3 61c-127 27 -262 57 -360 77zM842 761h-277v86h277v-86zM797 506h-232v85h232v-85zM565 648v55h340v247h-63v-45h-277v53h-67v-510h361v200h-294zM621 279l59 -17c14 20 30 47 41 69h212v159h-64v-100h-373v100h-62v-159h216
c-9 -18 -19 -36 -29 -52zM801 129h147v58h-93c15 32 28 68 33 91l-57 17c-6 -28 -21 -72 -35 -108h-14c-14 40 -30 76 -47 105c-12 -9 -38 -25 -53 -33c34 -55 61 -138 77 -214l62 12c-6 24 -13 48 -20 72z" />
</svg>
