<?xml version="1.0" standalone="no"?>
<!DOCTYPE svg PUBLIC "-//W3C//DTD SVG 1.1//EN" "http://www.w3.org/Graphics/SVG/1.1/DTD/svg11.dtd" >
<svg xmlns="http://www.w3.org/2000/svg" xmlns:xlink="http://www.w3.org/1999/xlink" version="1.1" viewBox="-10 0 1010 1000">
   <path fill="currentColor"
d="M431 788l-58 39c-23 -43 -65 -108 -109 -168c-29 106 -83 207 -181 293c-11 -17 -35 -42 -51 -54c114 -99 162 -221 182 -344h-161v-68h169c5 -48 6 -95 6 -141v-46h-151v-67h151v-188h70v188h137v67h-137v46c0 46 -1 94 -5 141h158v68h-165l-4 23c55 68 119 157 149 211
zM475 925l-55 -26c31 -51 56 -135 70 -197l54 21c-16 62 -38 149 -69 202zM577 729l48 -6c10 51 20 117 23 161l-51 8c-2 -44 -11 -111 -20 -163zM666 720l44 -11c18 43 38 99 46 135l-45 14c-8 -37 -28 -94 -45 -138zM849 789l-43 19c-11 -29 -38 -74 -60 -107l40 -15
c24 34 51 76 63 103zM817 190h-246v66h246v-66zM571 373h246v-68h-246v68zM957 542h-386v58h373s-1 20 -2 30c-13 200 -26 275 -51 302c-15 18 -32 24 -57 26c-23 2 -67 1 -111 -2c-1 -18 -8 -41 -17 -57c44 4 84 5 99 5c16 0 24 -2 32 -10c17 -17 28 -79 39 -235h-376v-523
h123c10 -30 20 -68 25 -93l71 13c-10 27 -22 55 -33 80h200v291h-315v56h386v59z" />
</svg>
