<?xml version="1.0" standalone="no"?>
<!DOCTYPE svg PUBLIC "-//W3C//DTD SVG 1.1//EN" "http://www.w3.org/Graphics/SVG/1.1/DTD/svg11.dtd" >
<svg xmlns="http://www.w3.org/2000/svg" xmlns:xlink="http://www.w3.org/1999/xlink" version="1.1" viewBox="-10 0 1010 1000">
   <path fill="currentColor"
d="M172 64l68 17c-35 140 -93 275 -168 364c-7 -15 -29 -49 -43 -65c65 -78 114 -194 143 -316zM492 383l-63 30l-2 -8c0 8 0 19 -1 25c-5 317 -9 423 -33 456c-13 21 -31 28 -57 31c-22 3 -62 3 -103 0c-1 -20 -7 -47 -18 -66c39 4 76 4 90 4s22 -2 29 -13
c14 -20 20 -113 24 -378h-96c-11 193 -41 372 -171 476c-10 -16 -31 -39 -47 -50c118 -90 143 -254 152 -426h-86v-67h315c-26 -88 -81 -214 -136 -309l59 -27c62 101 121 233 144 322zM541 924l-54 -25c22 -53 44 -139 56 -197l50 23c-13 57 -32 144 -52 199zM620 730
l42 -7c13 51 22 118 22 163l-46 6c0 -43 -8 -110 -18 -162zM697 720l40 -11c19 42 38 99 45 136l-43 13c-6 -37 -25 -95 -42 -138zM860 788l-39 20c-11 -29 -34 -75 -58 -107l38 -16c24 32 49 75 59 103zM825 190h-220v64h220v-64zM605 373h220v-67h-220v67zM959 542h-354
v58h334s-1 21 -2 29c-12 202 -25 278 -47 305c-15 18 -31 24 -54 26c-20 2 -55 2 -91 -1c-1 -18 -7 -43 -17 -60c36 4 68 5 81 5s21 -2 28 -10c15 -17 26 -79 36 -237h-335v-521h105c12 -30 24 -68 29 -95l72 14c-12 28 -25 56 -36 81h182v291h-285v57h354v58z" />
</svg>
