<?xml version="1.0" standalone="no"?>
<!DOCTYPE svg PUBLIC "-//W3C//DTD SVG 1.1//EN" "http://www.w3.org/Graphics/SVG/1.1/DTD/svg11.dtd" >
<svg xmlns="http://www.w3.org/2000/svg" xmlns:xlink="http://www.w3.org/1999/xlink" version="1.1" viewBox="-10 0 1010 1000">
   <path fill="currentColor"
d="M398 780l-61 41c-17 -41 -43 -93 -74 -148c-45 98 -104 179 -182 244c-9 -15 -34 -44 -47 -57c84 -63 145 -151 188 -257c-45 -74 -94 -149 -141 -214l55 -34c37 51 77 107 114 166c23 -73 39 -153 51 -241h-252v-69h159c-19 -40 -43 -87 -66 -125l62 -24
c29 46 61 106 81 149h131v69h-47c-17 116 -40 221 -74 312c43 70 81 136 103 188zM408 914l-52 -22c37 -50 67 -132 82 -194l51 17c-17 66 -44 148 -81 199zM528 717l47 -5c15 57 28 130 29 172l-50 9c-1 -44 -13 -119 -26 -176zM626 709l44 -13c24 47 51 108 60 147l-46 16
c-9 -39 -35 -103 -58 -150zM829 793l-43 20c-11 -31 -40 -79 -66 -114l41 -18c26 34 56 82 68 112zM800 188h-278v67h278v-67zM522 371h278v-68h-278v68zM960 534h-438v58h415s-1 21 -2 30c-14 190 -28 266 -54 293c-16 18 -33 24 -59 26c-23 2 -68 2 -114 -1
c-1 -20 -8 -47 -20 -66c45 4 86 5 103 5c15 0 23 -1 32 -10c17 -16 29 -74 40 -219h-411v-515h136c12 -31 25 -68 32 -94l78 14c-13 28 -25 55 -38 80h205v289h-343v56h438v54z" />
</svg>
