<?xml version="1.0" standalone="no"?>
<!DOCTYPE svg PUBLIC "-//W3C//DTD SVG 1.1//EN" "http://www.w3.org/Graphics/SVG/1.1/DTD/svg11.dtd" >
<svg xmlns="http://www.w3.org/2000/svg" xmlns:xlink="http://www.w3.org/1999/xlink" version="1.1" viewBox="-10 0 1010 1000">
   <path fill="currentColor"
d="M378 690l9 68c-115 39 -236 77 -326 106l-16 -71c40 -11 90 -27 145 -43v-269h-115v-69h115v-219h-131v-69h324v69h-124v219h105v69h-105v247c39 -12 79 -25 119 -38zM404 929l-53 -23c37 -51 65 -136 79 -200l52 18c-17 66 -43 152 -78 205zM523 720l47 -5
c16 57 28 131 30 174l-51 8c-1 -45 -12 -119 -26 -177zM621 713l44 -13c25 45 53 106 63 144l-46 16c-9 -38 -36 -101 -61 -147zM832 784l-41 22c-15 -29 -47 -75 -75 -108l40 -18c29 31 62 75 76 104zM799 190h-284v67h284v-67zM515 373h284v-68h-284v68zM952 536h-437v58
h422s-1 21 -3 30c-15 198 -29 276 -55 304c-16 18 -33 24 -59 27c-23 1 -68 2 -115 -1c-1 -20 -8 -48 -19 -66c45 4 86 5 102 5s24 -2 33 -10c17 -17 29 -78 42 -231h-418v-515h140c11 -31 25 -68 32 -94l78 14c-13 28 -26 55 -38 80h208v289h-350v56h437v54z" />
</svg>
