<?xml version="1.0" standalone="no"?>
<!DOCTYPE svg PUBLIC "-//W3C//DTD SVG 1.1//EN" "http://www.w3.org/Graphics/SVG/1.1/DTD/svg11.dtd" >
<svg xmlns="http://www.w3.org/2000/svg" xmlns:xlink="http://www.w3.org/1999/xlink" version="1.1" viewBox="-10 0 1010 1000">
   <path fill="currentColor"
d="M442 777l-50 60c-23 -42 -79 -124 -121 -184c-29 107 -86 214 -195 299c-11 -15 -35 -39 -52 -52c159 -116 194 -284 202 -421h-182v-69h184v-21v-210c-54 11 -109 20 -160 27c-3 -17 -13 -43 -23 -60c128 -20 279 -53 363 -89l55 58c-46 18 -102 35 -162 48v226v21h169
v69h-171c-2 30 -6 63 -11 95c39 47 131 172 154 203zM470 926l-58 -27c27 -53 56 -138 71 -197l55 24c-16 58 -42 145 -68 200zM578 730l47 -7c13 51 22 119 23 163l-51 7c1 -44 -7 -111 -19 -163zM666 720l42 -11c22 42 41 99 49 137l-46 12c-6 -37 -26 -95 -45 -138z
M848 798l-42 18c-10 -31 -34 -79 -56 -116l40 -14c25 35 49 82 58 112zM808 190h-246v66h246v-66zM562 373h246v-68h-246v68zM959 540h-397v60h374s-1 20 -2 29c-13 201 -27 275 -51 302c-16 18 -33 24 -57 25c-21 2 -60 2 -99 0c-1 -18 -7 -41 -16 -57c39 4 74 5 89 5
c14 0 22 -2 30 -10c16 -17 28 -80 39 -237h-376v-521h116c12 -30 24 -68 31 -95l77 14c-12 28 -26 56 -39 81h199v291h-315v58h397v55z" />
</svg>
