<?xml version="1.0" standalone="no"?>
<!DOCTYPE svg PUBLIC "-//W3C//DTD SVG 1.1//EN" "http://www.w3.org/Graphics/SVG/1.1/DTD/svg11.dtd" >
<svg xmlns="http://www.w3.org/2000/svg" xmlns:xlink="http://www.w3.org/1999/xlink" version="1.1" viewBox="-10 0 1010 1000">
   <path fill="currentColor"
d="M471 494h-94v383c0 38 -9 57 -33 69c-24 11 -61 14 -122 13c-3 -18 -13 -47 -22 -66c43 1 81 1 92 1c13 -1 18 -4 18 -18v-315c-62 117 -148 231 -224 299c-13 -17 -37 -42 -53 -55c84 -67 181 -191 243 -311h-200c15 -73 31 -190 40 -278l71 6c-8 62 -19 137 -31 201
h154v-255h-222v-66h376v66h-87v255h94v71zM475 926l-57 -27c31 -51 57 -135 70 -197l55 20c-15 63 -38 149 -68 204zM576 729l46 -7c10 52 20 119 22 163l-48 7c-2 -44 -11 -111 -20 -163zM665 719l43 -9c18 43 38 99 47 135l-45 13c-8 -38 -27 -94 -45 -139zM849 790
l-41 18c-12 -29 -39 -74 -61 -107l39 -15c25 33 51 77 63 104zM816 190h-250v66h250v-66zM566 373h250v-68h-250v68zM958 540h-392v60h375s0 20 -1 29c-13 200 -26 275 -51 302c-15 18 -32 23 -57 25c-23 2 -66 2 -111 -1c0 -18 -6 -41 -15 -56c43 4 84 5 99 5
c16 0 24 -2 31 -10c17 -17 29 -79 39 -237h-377v-521h133c11 -30 21 -67 27 -93l78 14c-12 27 -24 54 -34 79h182v291h-318v58h392v55z" />
</svg>
