<?xml version="1.0" standalone="no"?>
<!DOCTYPE svg PUBLIC "-//W3C//DTD SVG 1.1//EN" "http://www.w3.org/Graphics/SVG/1.1/DTD/svg11.dtd" >
<svg xmlns="http://www.w3.org/2000/svg" xmlns:xlink="http://www.w3.org/1999/xlink" version="1.1" viewBox="-10 0 1010 1000">
   <path fill="currentColor"
d="M163 507h115c-2 -44 -4 -91 -6 -142h-109v142zM392 147h-229v152h229v-152zM488 577h-140c14 173 44 256 69 256c14 0 20 -23 23 -98c12 14 29 27 43 33c-7 113 -27 137 -70 138c-67 -1 -109 -113 -129 -329h-121v269l122 -36c0 20 2 47 4 63c-149 48 -174 59 -189 71
c-4 -20 -18 -61 -30 -81c12 -9 23 -24 23 -64v-718h370v284h-124c0 52 2 99 4 142h145v70zM526 914l-47 -20c26 -52 46 -140 57 -202l45 16c-12 63 -30 151 -55 206zM607 708l42 -5c7 55 11 125 11 172l-44 7c1 -48 -4 -119 -9 -174zM681 703l39 -10c15 45 30 103 36 140
l-41 12c-6 -38 -21 -97 -34 -142zM832 781l-38 15c-8 -27 -25 -71 -42 -104l36 -12c17 32 36 74 44 101zM816 190h-224v66h224v-66zM592 373h224v-68h-224v68zM941 540h-349v60h336s-1 19 -1 29c-12 203 -23 277 -45 303c-14 17 -30 23 -52 24c-19 1 -52 2 -85 0
c0 -17 -6 -39 -15 -55c33 3 62 4 74 4c13 0 20 -1 27 -10c14 -16 24 -77 33 -237h-336v-522h114c11 -30 21 -67 27 -93l75 14c-11 27 -23 54 -34 79h170v291h-288v58h349v55z" />
</svg>
