<?xml version="1.0" standalone="no"?>
<!DOCTYPE svg PUBLIC "-//W3C//DTD SVG 1.1//EN" "http://www.w3.org/Graphics/SVG/1.1/DTD/svg11.dtd" >
<svg xmlns="http://www.w3.org/2000/svg" xmlns:xlink="http://www.w3.org/1999/xlink" version="1.1" viewBox="-10 0 1010 1000">
   <path fill="currentColor"
d="M558 260v123h-59v-186h190c-11 -39 -28 -85 -47 -123l57 -20c24 44 46 101 56 143h179v186h-61v-123h-315zM90 922l-52 -26c22 -53 46 -139 58 -197l48 23c-13 56 -33 144 -54 200zM174 726l42 -6c9 52 14 119 13 162l-44 7c2 -43 -3 -111 -11 -163zM247 718l39 -9
c12 45 23 104 27 141l-42 12c-3 -40 -14 -98 -24 -144zM386 807l-39 15c-6 -32 -21 -82 -36 -119l37 -13c15 37 31 86 38 117zM377 187h-208v66h208v-66zM169 369h208v-67h-208v67zM169 597h295s0 20 -1 29c-12 199 -24 274 -47 300c-14 18 -29 24 -52 25c-19 2 -54 2 -89 0
c-2 -18 -7 -41 -16 -57c36 4 69 4 81 4c14 0 21 -1 28 -10c15 -16 26 -78 35 -234h-295v-522h103c11 -30 22 -68 28 -94l68 14c-11 28 -23 55 -34 80h165v292h-269v57h304v56h-304v60zM618 366l58 10c-26 248 -76 452 -173 582c-12 -17 -33 -39 -49 -51
c92 -112 140 -315 164 -541zM747 360l57 -8c17 235 55 446 158 539c-15 13 -35 39 -45 58c-110 -111 -150 -327 -170 -589z" />
</svg>
