<?xml version="1.0" standalone="no"?>
<!DOCTYPE svg PUBLIC "-//W3C//DTD SVG 1.1//EN" "http://www.w3.org/Graphics/SVG/1.1/DTD/svg11.dtd" >
<svg xmlns="http://www.w3.org/2000/svg" xmlns:xlink="http://www.w3.org/1999/xlink" version="1.1" viewBox="-10 0 1010 1000">
   <path fill="currentColor"
d="M131 252v111h-65v-173h182c-10 -33 -35 -85 -55 -123l63 -22c24 39 49 91 61 124l-54 21h203v173h-67v-111h-268zM180 391l64 8c-24 203 -65 396 -138 523c-9 -9 -38 -30 -53 -39c70 -117 106 -303 127 -492zM294 388l59 -10c39 158 79 364 93 479l-64 14
c-13 -117 -50 -326 -88 -483zM503 926l-53 -25c29 -50 50 -133 60 -197l52 17c-12 65 -29 152 -59 205zM583 729l46 -7c13 52 23 119 23 163l-49 7c1 -43 -8 -111 -20 -163zM667 720l42 -11c20 43 40 100 47 136l-44 13c-7 -38 -26 -95 -45 -138zM847 793l-41 18
c-11 -30 -35 -77 -58 -110l38 -15c24 34 51 79 61 107zM811 190h-237v66h237v-66zM574 373h237v-68h-237v68zM952 540h-378v54h359s-1 20 -2 29c-13 198 -25 272 -50 299c-15 17 -32 23 -57 25c-22 2 -65 1 -110 -1c-1 -18 -7 -41 -16 -57c43 5 83 6 99 6c15 0 23 -2 31 -10
c17 -17 28 -78 39 -234h-361v-515h85c13 -30 26 -67 34 -93l72 18c-13 25 -25 51 -37 75h219v291h-305v58h378v55z" />
</svg>
