<?xml version="1.0" standalone="no"?>
<!DOCTYPE svg PUBLIC "-//W3C//DTD SVG 1.1//EN" "http://www.w3.org/Graphics/SVG/1.1/DTD/svg11.dtd" >
<svg xmlns="http://www.w3.org/2000/svg" xmlns:xlink="http://www.w3.org/1999/xlink" version="1.1" viewBox="-10 0 1010 1000">
   <path fill="currentColor"
d="M334 237h-177v146h177v-146zM346 604h-189v175h189v-175zM413 843h-256v70h-68v-741h91c15 -42 29 -93 36 -130l81 11c-14 39 -30 82 -47 119h151v275h-244v92h256v304zM472 924l-59 -26c27 -53 56 -139 71 -197l55 23c-16 58 -41 144 -67 200zM577 728l48 -7
c13 51 22 119 23 162l-51 8c1 -43 -7 -111 -20 -163zM666 719l43 -11c21 43 41 100 49 136l-46 14c-7 -39 -27 -96 -46 -139zM849 798l-42 17c-10 -31 -35 -79 -56 -115l40 -15c25 35 48 82 58 113zM808 190h-246v68h246v-68zM562 373h246v-66h-246v66zM959 540h-397v60h374
s-1 20 -2 29c-13 197 -27 271 -51 298c-16 17 -32 23 -57 24c-21 3 -60 2 -98 0c-1 -17 -8 -41 -16 -56c38 4 73 4 88 4c14 0 22 -2 30 -10c16 -17 28 -78 39 -232h-376v-521h116c12 -31 24 -69 31 -96l77 14c-12 28 -26 57 -39 82h199v291h-315v58h397v55z" />
</svg>
