<?xml version="1.0" standalone="no"?>
<!DOCTYPE svg PUBLIC "-//W3C//DTD SVG 1.1//EN" "http://www.w3.org/Graphics/SVG/1.1/DTD/svg11.dtd" >
<svg xmlns="http://www.w3.org/2000/svg" xmlns:xlink="http://www.w3.org/1999/xlink" version="1.1" viewBox="-10 0 1010 1000">
   <path fill="currentColor"
d="M350 817v-201h-186v201h186zM291 385v166h127v333h-254v55h-67v-388h125v-166h-180v-67h180v-149c-50 10 -101 17 -148 23c-3 -17 -13 -41 -22 -58c122 -17 266 -46 343 -81l55 55c-44 19 -100 34 -159 47v163h175v67h-175zM481 928l-52 -29c34 -45 51 -122 59 -190
l55 15c-9 73 -25 155 -62 204zM576 722l46 -6c13 51 22 119 22 162l-48 8c0 -44 -8 -111 -20 -164zM665 713l42 -11c20 43 41 99 48 136l-45 12c-7 -37 -26 -94 -45 -137zM849 782l-41 18c-12 -29 -38 -73 -61 -105l38 -17c26 32 52 75 64 104zM817 190h-251v66h251v-66z
M566 372h251v-67h-251v67zM958 540h-392v60h370s0 19 -1 28c-12 202 -22 276 -46 304c-15 16 -30 21 -55 23c-21 2 -61 2 -101 -1c-2 -16 -8 -40 -16 -56c40 4 76 5 91 5c13 0 21 -2 28 -9c16 -18 27 -79 35 -238h-373v-520h133c11 -31 21 -67 27 -93l78 14
c-11 28 -23 55 -34 79h182v290h-318v59h392v55z" />
</svg>
