<?xml version="1.0" standalone="no"?>
<!DOCTYPE svg PUBLIC "-//W3C//DTD SVG 1.1//EN" "http://www.w3.org/Graphics/SVG/1.1/DTD/svg11.dtd" >
<svg xmlns="http://www.w3.org/2000/svg" xmlns:xlink="http://www.w3.org/1999/xlink" version="1.1" viewBox="-10 0 1010 1000">
   <path fill="currentColor"
d="M456 195l58 29c-31 59 -64 131 -92 177l-44 -24c26 -48 60 -128 78 -182zM179 393l-54 24c-9 -49 -38 -128 -69 -187l51 -19c32 57 63 133 72 182zM188 469v-403h59v403c0 187 -19 351 -162 471c-10 -14 -31 -34 -45 -44c104 -88 136 -199 145 -326
c-39 41 -78 80 -115 115l-32 -59c38 -32 94 -82 150 -134v-23zM375 777l117 -62c4 18 12 46 18 59c-161 91 -186 107 -201 125c-6 -15 -23 -42 -33 -56c15 -9 39 -32 39 -72v-707h60v394c52 36 109 85 137 122l-42 45c-20 -28 -56 -63 -95 -96v248zM522 926l-52 -28
c28 -51 52 -134 65 -197l52 21c-14 63 -36 150 -65 204zM613 729l44 -7c12 51 21 119 22 163l-47 7c0 -43 -8 -111 -19 -163zM693 720l40 -11c20 42 39 99 45 135l-43 14c-5 -38 -24 -95 -42 -138zM859 797l-40 18c-9 -33 -31 -81 -52 -116l37 -16c23 37 46 83 55 114z
M826 190h-222v66h222v-66zM604 373h222v-68h-222v68zM953 540h-349v60h337s-1 20 -2 29c-12 196 -23 270 -47 296c-14 17 -30 23 -52 25c-20 2 -56 2 -91 0c-1 -18 -7 -41 -16 -57c36 3 69 3 82 3c13 1 21 -1 28 -10c15 -15 25 -76 35 -229h-338v-521h111
c12 -30 23 -68 29 -95l73 13c-12 28 -25 57 -37 82h175v291h-287v58h349v55z" />
</svg>
