<?xml version="1.0" standalone="no"?>
<!DOCTYPE svg PUBLIC "-//W3C//DTD SVG 1.1//EN" "http://www.w3.org/Graphics/SVG/1.1/DTD/svg11.dtd" >
<svg xmlns="http://www.w3.org/2000/svg" xmlns:xlink="http://www.w3.org/1999/xlink" version="1.1" viewBox="-10 0 1010 1000">
   <path fill="currentColor"
d="M227 209l-66 25c-8 -45 -33 -113 -59 -164l62 -21c28 50 53 115 63 160zM457 668h-167c-17 109 -63 218 -186 290c-9 -16 -32 -42 -48 -56c106 -55 145 -145 160 -234h-162v-66h170c1 -20 1 -39 1 -58v-58h-154v-66h154v-116h-166v-67h248c21 -55 46 -134 59 -192l73 21
c-21 56 -44 120 -66 171h74v67h-149v116h144v66h-144v58c0 19 0 38 -2 58h161v66zM471 926l-59 -27c27 -53 56 -138 71 -197l55 24c-16 58 -42 145 -67 200zM577 730l48 -7c13 51 22 118 23 163l-51 6c1 -43 -7 -110 -20 -162zM666 720l42 -11c22 42 41 99 49 136l-46 13
c-6 -37 -26 -95 -45 -138zM848 798l-42 18c-10 -31 -34 -79 -56 -116l40 -14c25 35 49 82 58 112zM808 190h-246v66h246v-66zM562 373h246v-68h-246v68zM959 540h-397v60h374s-1 20 -2 29c-13 201 -27 275 -51 302c-16 18 -33 24 -57 25c-21 2 -60 2 -99 0
c-1 -18 -7 -41 -16 -57c39 4 74 5 89 5c14 0 22 -2 30 -10c16 -17 28 -80 39 -237h-376v-521h116c12 -30 24 -68 31 -95l77 14c-12 28 -26 56 -39 81h199v291h-315v58h397v55z" />
</svg>
