<?xml version="1.0" standalone="no"?>
<!DOCTYPE svg PUBLIC "-//W3C//DTD SVG 1.1//EN" "http://www.w3.org/Graphics/SVG/1.1/DTD/svg11.dtd" >
<svg xmlns="http://www.w3.org/2000/svg" xmlns:xlink="http://www.w3.org/1999/xlink" version="1.1" viewBox="-10 0 1010 1000">
   <path fill="currentColor"
d="M279 161l-45 56c-30 -33 -96 -80 -151 -110l44 -52c54 27 120 71 152 106zM241 418l-44 59c-31 -32 -99 -76 -156 -105l42 -53c56 26 125 67 158 99zM210 586l58 41c-39 104 -92 226 -138 318l-66 -42c43 -77 103 -206 146 -317zM511 608l10 59c-83 32 -168 63 -238 87
l-24 -66c28 -8 61 -18 97 -29v-401h-87v-68h236v68h-80v379c28 -10 57 -19 86 -29zM439 939l-49 -32c53 -44 80 -122 91 -201l54 15c-13 82 -38 169 -96 218zM572 725l48 -4c9 53 13 123 9 166l-50 5c4 -44 2 -113 -7 -167zM665 722l44 -11c19 43 38 100 45 136l-47 12
c-7 -37 -25 -94 -42 -137zM853 795l-43 19c-10 -26 -35 -69 -57 -100l40 -16c25 30 48 70 60 97zM829 191h-232v67h232v-67zM597 376h232v-66h-232v66zM960 548h-363v58h345s-1 20 -2 30c-14 195 -27 268 -53 296c-16 16 -31 22 -56 24c-21 1 -62 1 -105 -2
c-1 -16 -7 -40 -16 -57c41 5 78 5 93 5s22 -1 30 -9c16 -17 30 -78 40 -230h-344v-526h115c13 -31 25 -68 31 -94l79 17c-13 27 -25 54 -37 77h182v293h-302v59h363v59z" />
</svg>
