<?xml version="1.0" standalone="no"?>
<!DOCTYPE svg PUBLIC "-//W3C//DTD SVG 1.1//EN" "http://www.w3.org/Graphics/SVG/1.1/DTD/svg11.dtd" >
<svg xmlns="http://www.w3.org/2000/svg" xmlns:xlink="http://www.w3.org/1999/xlink" version="1.1" viewBox="-10 0 1010 1000">
   <path fill="currentColor"
d="M221 288l46 -16c26 41 48 97 57 134l-50 20c-5 -38 -27 -95 -53 -138zM189 474h169v-249h-169v249zM422 165v701c0 36 -8 54 -32 65c-24 10 -62 11 -124 11c-3 -16 -14 -43 -23 -60c45 2 86 1 98 1c13 -1 17 -5 17 -18v-328h-169c0 132 -14 307 -94 421
c-11 -10 -38 -27 -53 -34c76 -109 85 -263 85 -387h-76v-63h76v-309h88c12 -38 25 -88 32 -123l81 15c-15 35 -32 76 -47 108h141zM328 726l-49 19c-6 -38 -28 -96 -53 -140l45 -17c26 42 49 100 57 138zM482 925l-56 -26c25 -51 49 -137 61 -197l53 19
c-13 62 -33 150 -58 204zM577 729l46 -7c14 52 22 119 23 163l-48 7c0 -43 -9 -111 -21 -163zM667 719l42 -10c21 43 41 100 49 136l-45 13c-7 -38 -27 -96 -46 -139zM846 801l-41 15c-9 -31 -32 -79 -53 -115l40 -14c23 35 45 83 54 114zM809 190h-240v66h240v-66zM569 373
h240v-68h-240v68zM952 540h-383v60h365s0 20 -1 29c-12 195 -23 268 -47 293c-15 17 -31 23 -56 25c-21 2 -60 2 -99 -1c-1 -17 -7 -40 -16 -56c39 4 75 4 89 4s22 -1 29 -9c15 -16 25 -75 35 -228h-368v-521h108c12 -30 24 -68 30 -95l78 14c-12 28 -26 56 -39 81h200v291
h-308v58h383v55z" />
</svg>
