<?xml version="1.0" standalone="no"?>
<!DOCTYPE svg PUBLIC "-//W3C//DTD SVG 1.1//EN" "http://www.w3.org/Graphics/SVG/1.1/DTD/svg11.dtd" >
<svg xmlns="http://www.w3.org/2000/svg" xmlns:xlink="http://www.w3.org/1999/xlink" version="1.1" viewBox="-10 0 1010 1000">
   <path fill="currentColor"
d="M948 102v68h-240v-68h240zM208 43l67 26c-48 79 -126 170 -197 228c-8 -14 -27 -42 -39 -55c63 -51 133 -133 169 -199zM230 243l64 22c-22 44 -47 89 -74 133v560h-68v-463c-26 35 -54 67 -81 95c-8 -15 -31 -50 -43 -65c74 -72 152 -178 202 -282zM280 905l-40 -24
c31 -37 43 -104 48 -168l45 10c-7 68 -18 140 -53 182zM366 721l41 -3c15 49 23 111 20 149l-44 5c4 -38 -4 -101 -17 -151zM446 716l40 -8c20 38 37 89 44 121l-42 11c-7 -33 -24 -85 -42 -124zM620 787l-38 17c-9 -27 -32 -67 -56 -96l37 -14c23 27 48 66 57 93zM593 184
h-212v71h212v-71zM381 379h212v-73h-212v73zM381 612h324s-1 19 -1 28c-14 179 -28 248 -51 273c-15 16 -31 22 -54 24c-19 2 -51 1 -85 0c-1 -18 -7 -42 -17 -59c33 4 63 4 75 4c14 0 21 -1 28 -9c14 -15 26 -70 38 -205h-321v-537h120c8 -28 17 -60 22 -84l74 10
c-9 25 -19 50 -29 74h152v301h-275v61h318v57h-318v62zM961 354v68h-84v442c0 40 -7 59 -33 72c-25 12 -65 14 -126 14c-2 -21 -12 -51 -22 -71c45 1 84 1 96 0c12 0 15 -3 15 -15v-442h-112v-68h266z" />
</svg>
