<?xml version="1.0" standalone="no"?>
<!DOCTYPE svg PUBLIC "-//W3C//DTD SVG 1.1//EN" "http://www.w3.org/Graphics/SVG/1.1/DTD/svg11.dtd" >
<svg xmlns="http://www.w3.org/2000/svg" xmlns:xlink="http://www.w3.org/1999/xlink" version="1.1" viewBox="-10 0 1010 1000">
   <path fill="currentColor"
d="M300 673h102v-109h-102v109zM130 673h110v-109h-110v109zM236 396h-106v105h110v-104h-4v-1zM402 396h-98v1h-4v104h102v-105zM467 331v544c0 34 -6 53 -27 65c-21 11 -54 13 -100 13c-3 -19 -11 -47 -20 -66c33 2 60 1 70 1s12 -3 12 -14v-137h-102v214h-60v-214h-110
v217h-63v-623h169v-88h-192v-64h192v-134h68v134h125c-21 -26 -65 -61 -103 -85l41 -36c39 22 85 55 107 83l-43 38h67v64h-194v88h163zM550 923l-54 -24c22 -53 44 -139 56 -197l49 22c-13 57 -32 144 -51 199zM628 729l43 -7c12 51 21 119 21 163l-45 7
c0 -43 -8 -111 -19 -163zM705 719l39 -11c20 43 38 100 45 137l-42 13c-6 -38 -25 -96 -42 -139zM867 788l-39 20c-11 -30 -35 -75 -57 -107l37 -16c23 31 48 75 59 103zM829 190h-218v66h218v-66zM611 373h218v-68h-218v68zM959 540h-348v60h333s0 20 -1 29
c-13 201 -25 276 -47 303c-15 17 -31 24 -54 25c-20 2 -55 2 -91 -1c-1 -17 -7 -41 -16 -57c37 4 70 5 83 5s21 -2 28 -10c15 -17 26 -80 36 -237h-335v-521h104c12 -30 22 -68 29 -95l72 14c-13 28 -25 56 -36 81h177v291h-282v58h348v55z" />
</svg>
