<?xml version="1.0" standalone="no"?>
<!DOCTYPE svg PUBLIC "-//W3C//DTD SVG 1.1//EN" "http://www.w3.org/Graphics/SVG/1.1/DTD/svg11.dtd" >
<svg xmlns="http://www.w3.org/2000/svg" xmlns:xlink="http://www.w3.org/1999/xlink" version="1.1" viewBox="-10 0 1010 1000">
   <path fill="currentColor"
d="M516 202l-50 24c-9 -35 -34 -89 -59 -128l46 -21c27 38 53 90 63 125zM298 113v63h-202v-63h202zM244 790l91 -30l10 60c-103 36 -210 72 -293 100l-13 -67c13 -4 26 -7 41 -12v-402h52v386l56 -17v-470h56v167h78v60h-78v225zM506 316h-114c1 301 17 503 42 503
c12 0 22 -53 27 -131c11 13 36 30 47 37c-18 141 -49 177 -76 176c-79 2 -98 -230 -102 -585h-276v-62h276c-1 -63 -1 -130 -1 -199h64c-1 70 -2 136 -2 199h115v62zM548 933l-49 -28c27 -48 39 -129 44 -201l52 12c-6 78 -16 165 -47 217zM623 721l45 -6
c10 52 18 119 18 163l-47 6c2 -43 -5 -111 -16 -163zM704 711l40 -10c19 44 37 100 43 137l-43 11c-5 -37 -22 -94 -40 -138zM874 783l-39 16c-10 -29 -33 -74 -54 -106l37 -14c22 32 46 75 56 104zM831 190h-226v66h226v-66zM605 372h226v-67h-226v67zM958 540h-353v60h344
s-1 18 -2 28c-11 203 -22 277 -46 304c-14 16 -30 22 -54 24c-21 1 -61 1 -101 -1c-1 -16 -7 -40 -16 -55c40 4 77 4 90 4c15 0 23 -1 30 -9c16 -17 25 -79 35 -239h-346v-520h112c11 -31 21 -67 26 -93l79 14c-12 28 -23 55 -34 79h176v290h-293v59h353v55z" />
</svg>
