<?xml version="1.0" standalone="no"?>
<!DOCTYPE svg PUBLIC "-//W3C//DTD SVG 1.1//EN" "http://www.w3.org/Graphics/SVG/1.1/DTD/svg11.dtd" >
<svg xmlns="http://www.w3.org/2000/svg" xmlns:xlink="http://www.w3.org/1999/xlink" version="1.1" viewBox="-10 0 1010 1000">
   <path fill="currentColor"
d="M135 362v145h95v-145h-95zM392 362h-97v145h97v-145zM447 757l-44 60c-20 -32 -69 -91 -108 -135v273h-65v-300c-46 89 -106 178 -164 231c-7 -20 -24 -49 -35 -66c65 -57 138 -159 181 -252h-132v-265h150v-82h-174v-65h174v-112h65v112h170v65h-170v82h156v265h-156v37
c35 33 130 128 152 152zM470 930l-52 -32c41 -45 61 -122 70 -197l56 16c-10 78 -28 163 -74 213zM576 729l46 -7c13 52 22 119 22 163l-48 7c0 -44 -8 -111 -20 -163zM665 719l42 -11c20 43 41 100 48 137l-45 12c-7 -37 -26 -95 -45 -138zM849 789l-41 18
c-12 -30 -38 -74 -61 -106l38 -16c26 32 52 75 64 104zM817 190h-251v66h251v-66zM566 372h251v-67h-251v67zM958 540h-392v60h371s-1 19 -2 28c-13 200 -25 275 -51 303c-15 17 -31 22 -57 24c-22 2 -65 2 -110 -1c-1 -17 -7 -41 -16 -56c43 4 84 5 99 5c17 0 24 -2 32 -9
c16 -18 29 -80 38 -238h-372v-520h133c11 -31 21 -67 27 -93l78 14c-11 28 -23 55 -34 79h182v290h-318v59h392v55z" />
</svg>
