<?xml version="1.0" standalone="no"?>
<!DOCTYPE svg PUBLIC "-//W3C//DTD SVG 1.1//EN" "http://www.w3.org/Graphics/SVG/1.1/DTD/svg11.dtd" >
<svg xmlns="http://www.w3.org/2000/svg" xmlns:xlink="http://www.w3.org/1999/xlink" version="1.1" viewBox="-10 0 1010 1000">
   <path fill="currentColor"
d="M884 43v280c0 32 -7 47 -32 56c-24 9 -61 9 -121 9c-3 -16 -13 -38 -22 -53c41 1 81 1 91 0c12 0 15 -4 15 -14v-278h69zM701 71v230h-66v-230h66zM468 56l53 20c-26 31 -59 67 -85 90c-11 -9 -30 -21 -43 -26c25 -23 56 -58 75 -84zM122 80l44 -25c32 26 67 60 85 83
l-46 30c-18 -25 -53 -62 -83 -88zM287 398v-81h-220v-49h220v-51h-181v-49h181v-124h68v124h185v49h-185v51h210v49h-210v81h-68zM137 951l-59 -30c35 -30 66 -79 85 -117l57 25c-19 41 -47 90 -83 122zM291 825l60 -8c14 34 24 81 26 111l-64 10c-1 -29 -10 -76 -22 -113z
M444 826l56 -13c23 30 44 70 55 99l-59 17c-8 -28 -30 -71 -52 -103zM601 825l49 -19c24 21 49 54 61 75l-53 24c-11 -23 -35 -56 -57 -80zM735 458h-450v43h450v-43zM285 584h450v-44h-450v44zM942 711h-657v39h606s-1 17 -2 25c-11 97 -22 137 -40 155
c-14 14 -30 18 -52 19c-19 1 -56 1 -95 -2c-1 -14 -8 -35 -15 -49c34 5 66 5 79 5s20 -1 27 -8c9 -10 17 -37 25 -101h-606v-379h205c9 -21 18 -43 23 -60l70 10c-10 19 -18 35 -25 50h322v212h-522v40h657v44z" />
</svg>
