<?xml version="1.0" standalone="no"?>
<!DOCTYPE svg PUBLIC "-//W3C//DTD SVG 1.1//EN" "http://www.w3.org/Graphics/SVG/1.1/DTD/svg11.dtd" >
<svg xmlns="http://www.w3.org/2000/svg" xmlns:xlink="http://www.w3.org/1999/xlink" version="1.1" viewBox="-10 0 1010 1000">
   <path fill="currentColor"
d="M157 659h91v-79h-91v79zM309 219h-55c-28 65 -63 123 -107 171h101v-85h63v85h147c-39 -54 -96 -117 -149 -171zM311 448v77h97v-77h-97zM157 448v77h91v-77h-91zM311 659h97v-79h-97v79zM311 841l169 -50c1 17 3 44 6 57c-203 67 -232 79 -251 91
c-5 -15 -19 -45 -31 -60c17 -9 44 -30 44 -69v-93h-91v53h-61v-330c-9 8 -18 15 -27 22c-8 -14 -31 -41 -45 -52c69 -46 122 -111 159 -191h-133v-63h159c13 -35 21 -73 29 -113l66 10c-8 36 -17 71 -26 103h234v63h-121c55 55 106 113 139 160l-49 42l-12 -16v312h-158v124
zM528 929l-54 -26c22 -53 47 -138 59 -196l51 22c-14 59 -36 145 -56 200zM606 730l42 -7c13 51 21 118 22 163l-46 6c0 -43 -7 -110 -18 -162zM688 720l38 -11c20 42 38 99 45 136l-42 13c-6 -37 -23 -95 -41 -138zM859 789l-39 19c-10 -29 -34 -74 -57 -107l36 -15
c25 31 49 74 60 103zM818 190h-221v66h221v-66zM597 373h221v-68h-221v68zM961 540h-364v60h343s-1 20 -2 29c-12 201 -24 276 -47 303c-14 17 -30 24 -53 25c-20 2 -55 2 -91 -1c-1 -17 -7 -41 -15 -57c35 4 69 5 82 5s21 -2 28 -10c15 -17 26 -80 36 -237h-345v-521h104
c12 -30 23 -68 29 -95l72 14c-13 28 -26 56 -36 81h179v291h-284v58h364v55z" />
</svg>
