<?xml version="1.0" standalone="no"?>
<!DOCTYPE svg PUBLIC "-//W3C//DTD SVG 1.1//EN" "http://www.w3.org/Graphics/SVG/1.1/DTD/svg11.dtd" >
<svg xmlns="http://www.w3.org/2000/svg" xmlns:xlink="http://www.w3.org/1999/xlink" version="1.1" viewBox="-10 0 1010 1000">
   <path fill="currentColor"
d="M207 247v141h112v-141h-112zM474 388v66h-430v-66h99v-141h-87v-66h87v-130h64v130h112v-130h63v130h82v66h-82v141h92zM173 835h181v-99h-181v99zM354 589h-181v91h181v-91zM420 527v369c40 -46 59 -121 68 -195l56 16c-10 78 -28 163 -74 213l-52 -32l2 -2h-247v49h-66
v-418h313zM576 729l46 -7c13 52 22 119 22 163l-48 7c0 -44 -8 -111 -20 -163zM665 719l42 -11c20 43 41 100 48 137l-45 12c-7 -37 -26 -95 -45 -138zM849 789l-41 18c-12 -30 -38 -74 -61 -106l38 -16c26 32 52 75 64 104zM817 190h-251v66h251v-66zM566 372h251v-67h-251
v67zM958 540h-392v60h371s-1 19 -2 28c-13 200 -25 275 -51 303c-15 17 -31 22 -57 24c-22 2 -65 2 -110 -1c-1 -17 -7 -41 -16 -56c43 4 84 5 99 5c17 0 24 -2 32 -9c16 -18 29 -80 38 -238h-372v-520h133c11 -31 21 -67 27 -93l78 14c-11 28 -23 55 -34 79h182v290h-318
v59h392v55z" />
</svg>
