<?xml version="1.0" standalone="no"?>
<!DOCTYPE svg PUBLIC "-//W3C//DTD SVG 1.1//EN" "http://www.w3.org/Graphics/SVG/1.1/DTD/svg11.dtd" >
<svg xmlns="http://www.w3.org/2000/svg" xmlns:xlink="http://www.w3.org/1999/xlink" version="1.1" viewBox="-10 0 1010 1000">
   <path fill="currentColor"
d="M687 192h-99c-25 41 -53 78 -83 108c-12 -10 -40 -30 -56 -39c60 -53 109 -135 137 -219l65 14c-9 26 -19 52 -31 77h307s0 18 -1 28c-8 139 -16 196 -35 216c-13 15 -29 21 -52 22c-18 2 -54 2 -90 0c0 -17 -8 -41 -15 -57c33 4 62 4 75 4c12 1 19 -1 24 -8
c10 -12 18 -50 24 -146h-101c-30 83 -82 160 -139 211c-12 -11 -38 -31 -54 -39c53 -44 97 -104 124 -172zM245 404v-141c-46 52 -111 102 -165 131c-9 -14 -27 -35 -41 -45c57 -25 126 -73 172 -120h-154v-53h188v-55c-55 6 -110 10 -162 12c-2 -13 -10 -33 -16 -46
c120 -6 266 -22 340 -43l51 40c-40 12 -90 22 -144 28v64h161v53h-161v4c31 16 119 65 141 78l-32 52c-22 -18 -71 -52 -109 -78v119h-69zM153 959l-60 -32c38 -32 73 -85 93 -126l60 25c-22 43 -54 97 -93 133zM299 823l60 -9c16 36 30 85 33 118l-64 12
c-2 -32 -14 -82 -29 -121zM454 827l56 -15c24 31 49 74 60 103l-60 18c-9 -29 -33 -73 -56 -106zM611 829l51 -21c25 22 53 53 66 75l-53 26c-12 -23 -40 -57 -64 -80zM747 469h-458v37h458v-37zM289 583h458v-37h-458v37zM952 710h-663v36h612s-2 17 -4 26
c-14 103 -29 148 -50 166c-15 13 -31 18 -52 18c-18 1 -53 1 -90 -1c0 -15 -6 -36 -15 -49c33 3 63 4 75 3c13 1 20 -1 26 -7c13 -12 24 -42 35 -111h-609v-366h216c12 -20 23 -40 31 -56l75 11c-11 17 -20 31 -30 45h310v202h-530v38h663v45z" />
</svg>
