<?xml version="1.0" standalone="no"?>
<!DOCTYPE svg PUBLIC "-//W3C//DTD SVG 1.1//EN" "http://www.w3.org/Graphics/SVG/1.1/DTD/svg11.dtd" >
<svg xmlns="http://www.w3.org/2000/svg" xmlns:xlink="http://www.w3.org/1999/xlink" version="1.1" viewBox="-10 0 1010 1000">
   <path fill="currentColor"
d="M516 166v66h-464v-66h218c-15 -31 -35 -72 -55 -102l68 -20c25 39 54 89 68 122h165zM159 234l64 15c-11 41 -23 85 -40 128v579h-61v-450c-17 29 -35 57 -56 80c-7 -16 -23 -41 -33 -55c62 -77 106 -199 126 -297zM488 814l-46 48c-12 -28 -34 -62 -58 -96
c-41 79 -92 142 -150 190c-10 -15 -29 -34 -42 -46c58 -45 109 -113 151 -199c-26 -34 -54 -67 -82 -95l43 -42c22 23 44 48 66 73c14 -35 25 -73 35 -112l-33 22c-12 -28 -37 -70 -61 -100l38 -24c23 29 47 65 59 91c10 -41 19 -84 25 -129h-102c-27 84 -63 167 -109 228
c-9 -14 -26 -37 -39 -48c64 -88 104 -228 121 -338l64 12c-6 29 -13 59 -21 89h102l12 -3l38 11c-15 140 -45 258 -85 355c31 41 59 81 74 113zM529 926l-51 -25c27 -48 46 -131 54 -196l51 16c-10 66 -26 154 -54 205zM612 730l45 -6c10 52 17 119 16 162l-48 6
c2 -43 -3 -111 -13 -162zM693 720l41 -9c19 42 34 99 41 135l-45 12c-5 -37 -20 -94 -37 -138zM864 791l-40 17c-9 -28 -30 -74 -51 -106l37 -14c23 33 45 76 54 103zM827 190h-221v66h221v-66zM606 373h221v-68h-221v68zM960 540h-354v60h338s0 19 -1 29
c-12 203 -23 278 -45 304c-14 16 -30 22 -53 24c-19 1 -54 2 -89 -1c-1 -16 -7 -38 -15 -54c34 4 66 5 78 5c14 0 21 -2 28 -10c15 -17 25 -78 35 -240h-342v-521h124c10 -30 20 -67 26 -93l73 13c-10 28 -22 55 -33 80h163v291h-287v58h354v55z" />
</svg>
