<?xml version="1.0" standalone="no"?>
<!DOCTYPE svg PUBLIC "-//W3C//DTD SVG 1.1//EN" "http://www.w3.org/Graphics/SVG/1.1/DTD/svg11.dtd" >
<svg xmlns="http://www.w3.org/2000/svg" xmlns:xlink="http://www.w3.org/1999/xlink" version="1.1" viewBox="-10 0 1010 1000">
   <path fill="currentColor"
d="M393 240v-97h-233v97h233zM393 391v-98h-233v98h233zM461 88v359h-367v-359h367zM174 833l87 -42c5 15 13 40 19 51c-136 70 -159 85 -173 100c-6 -14 -24 -40 -35 -52c14 -11 37 -37 37 -84v-331h65v133h102v60h-102v165zM372 830l112 -55c3 15 11 40 17 52
c-154 78 -178 94 -193 109c-7 -14 -25 -40 -36 -51c14 -11 34 -37 34 -82v-328h66v130h112v61h-112v164zM545 930l-51 -21c22 -51 40 -134 49 -193l48 17c-10 59 -26 144 -46 197zM622 724l44 -5c8 52 14 118 15 162l-46 6c0 -45 -6 -111 -13 -163zM699 713l42 -9
c16 42 34 97 42 133l-43 12c-8 -37 -25 -93 -41 -136zM867 781l-40 18c-11 -28 -35 -72 -56 -105l38 -14c22 32 47 74 58 101zM831 190h-230v66h230v-66zM601 373h230v-68h-230v68zM963 539h-362v61h340s0 19 -1 29c-12 203 -23 277 -45 303c-14 16 -30 23 -52 24
c-18 1 -51 2 -84 0c-1 -17 -7 -39 -15 -55c32 3 62 4 73 4c13 0 21 -1 27 -10c14 -16 25 -77 34 -237h-342v-522h115c10 -30 21 -67 26 -93l67 12c-11 28 -22 56 -33 81h184v291h-294v57h362v55z" />
</svg>
