<?xml version="1.0" standalone="no"?>
<!DOCTYPE svg PUBLIC "-//W3C//DTD SVG 1.1//EN" "http://www.w3.org/Graphics/SVG/1.1/DTD/svg11.dtd" >
<svg xmlns="http://www.w3.org/2000/svg" xmlns:xlink="http://www.w3.org/1999/xlink" version="1.1" viewBox="-10 0 1010 1000">
   <path fill="currentColor"
d="M494 172v66h-431v-66h198c-11 -33 -29 -72 -46 -103l61 -22c25 38 48 89 57 125h161zM137 601l58 14c-19 87 -52 178 -90 236c-12 -9 -36 -27 -51 -35c38 -55 65 -136 83 -215zM177 365v125h209v-125h-209zM455 550h-143v302c0 36 -6 56 -30 67c-23 11 -59 12 -115 12
c-2 -20 -11 -47 -19 -66c41 1 75 1 85 0c12 -1 15 -3 15 -13v-302h-138v-245h345v245zM352 615l51 -22c31 61 64 139 76 191l-54 24c-11 -53 -43 -133 -73 -193zM529 918l-55 -25c21 -52 44 -136 55 -191l52 23c-13 55 -33 140 -52 193zM608 729l45 -7c12 51 21 119 21 162
l-48 8c1 -44 -7 -111 -18 -163zM689 719l41 -11c20 43 38 99 45 135l-43 14c-6 -37 -25 -95 -43 -138zM859 798l-40 18c-10 -31 -34 -79 -57 -115l37 -15c25 34 49 82 60 112zM823 190h-224v66h224v-66zM599 373h224v-68h-224v68zM957 540h-358v60h337s0 20 -1 29
c-11 202 -23 276 -46 303c-15 17 -31 24 -54 25c-20 2 -56 2 -93 -1c0 -17 -7 -41 -15 -57c36 4 70 5 83 5s21 -2 28 -10c15 -17 25 -79 35 -237h-339v-521h106c12 -30 23 -68 29 -95l73 14c-12 28 -25 56 -36 81h182v291h-289v58h358v55z" />
</svg>
