<?xml version="1.0" standalone="no"?>
<!DOCTYPE svg PUBLIC "-//W3C//DTD SVG 1.1//EN" "http://www.w3.org/Graphics/SVG/1.1/DTD/svg11.dtd" >
<svg xmlns="http://www.w3.org/2000/svg" xmlns:xlink="http://www.w3.org/1999/xlink" version="1.1" viewBox="-10 0 1010 1000">
   <path fill="currentColor"
d="M453 157h-296v109h296v-109zM510 329h-353v68c0 161 -8 398 -71 560c-10 -11 -37 -25 -51 -31c61 -156 66 -375 66 -529v-303h409v235zM498 671v219c25 -44 38 -118 44 -183l48 11c-7 74 -18 156 -50 207l-42 -26v55h-53v-60l-263 31v-249h53v181l82 -9v-228h-118v-220
h50v161h68v-209h54v209h69v-161h51v220h-120v222l74 -9v-162h53zM613 722l44 -6c11 52 19 118 18 162l-47 7c2 -43 -5 -111 -15 -163zM832 190h-227v66h227v-66zM605 373h227v-68h-227v68zM956 540h-351v60h337s0 19 -1 29c-11 202 -23 277 -46 303c-14 17 -30 23 -53 25
c-21 1 -60 2 -99 -1c-1 -17 -7 -40 -16 -55c39 4 75 4 88 4c14 0 22 -1 29 -10c10 -12 18 -43 25 -112l-36 17c-11 -28 -34 -73 -57 -106l37 -14c22 29 45 69 57 97c3 -32 6 -71 8 -119h-338v-522h118c11 -30 21 -67 26 -93l77 14c-11 27 -23 54 -35 79h172v291h-293v58h351
v55zM781 838l-43 13c-5 -37 -22 -94 -39 -138l40 -10c19 43 36 99 42 135z" />
</svg>
