<?xml version="1.0" standalone="no"?>
<!DOCTYPE svg PUBLIC "-//W3C//DTD SVG 1.1//EN" "http://www.w3.org/Graphics/SVG/1.1/DTD/svg11.dtd" >
<svg xmlns="http://www.w3.org/2000/svg" xmlns:xlink="http://www.w3.org/1999/xlink" version="1.1" viewBox="-10 0 1010 1000">
   <path fill="currentColor"
d="M217 264l-58 21c-14 -53 -53 -137 -94 -199l54 -19c42 61 83 143 98 197zM212 398v376c20 10 39 30 67 51c38 30 77 46 139 46c23 0 87 -2 128 -8c-6 16 -13 47 -14 66c-33 2 -89 4 -117 4c-63 0 -107 -19 -151 -54c-33 -27 -57 -54 -77 -54c-24 0 -61 58 -96 119
l-45 -58c38 -51 75 -90 107 -108v-318h-92v-62h151zM431 310v33c31 54 100 188 116 224l-42 47c-13 -39 -46 -114 -74 -177v380h-61v-329c-26 93 -57 177 -91 232c-12 -14 -32 -35 -45 -45c54 -76 103 -223 132 -365h-111v-63h115v-194h61v194h110v63h-110zM445 108l45 -21
c26 38 51 91 60 125l-47 23c-8 -34 -33 -87 -58 -127zM612 922l-49 -22c19 -54 39 -142 49 -198l46 20c-12 57 -30 144 -46 200zM673 725l39 -7c12 52 20 119 20 163l-41 7c1 -43 -7 -111 -18 -163zM732 715l38 -10c18 41 34 95 40 130l-39 13c-6 -37 -22 -91 -39 -133z
M867 786l-37 16c-7 -28 -25 -71 -40 -102l34 -14c17 31 35 72 43 100zM858 190h-191v66h191v-66zM667 373h191v-68h-191v68zM958 540h-291v60h272s0 20 -1 29c-12 202 -25 276 -46 303c-14 17 -28 23 -49 24c-16 2 -45 3 -72 0c-1 -17 -7 -41 -15 -57c28 3 54 4 64 4
c11 0 18 -1 25 -10c14 -16 25 -79 35 -236h-274v-521h85c12 -30 23 -68 30 -95l67 14c-10 28 -23 56 -34 81h165v291h-252v58h291v55z" />
</svg>
