<?xml version="1.0" standalone="no"?>
<!DOCTYPE svg PUBLIC "-//W3C//DTD SVG 1.1//EN" "http://www.w3.org/Graphics/SVG/1.1/DTD/svg11.dtd" >
<svg xmlns="http://www.w3.org/2000/svg" xmlns:xlink="http://www.w3.org/1999/xlink" version="1.1" viewBox="-10 0 1010 1000">
   <path fill="currentColor"
d="M848 86l55 23c-29 32 -61 63 -87 84l-42 -19c24 -25 57 -63 74 -88zM900 293l-45 39c-35 -32 -96 -75 -154 -107c-29 48 -78 80 -162 101c-5 -14 -20 -36 -31 -47c141 -32 166 -92 172 -232h60c-2 52 -7 96 -19 132c65 31 140 79 179 114zM580 85l44 23
c-20 32 -48 70 -78 97l-46 -27c30 -21 62 -62 80 -93zM433 88l53 22c-26 31 -54 59 -77 81l-42 -21c21 -23 51 -59 66 -82zM186 94l44 20c-19 34 -46 72 -76 96l-45 -25c29 -22 60 -62 77 -91zM474 270l-45 36c-26 -26 -72 -60 -116 -86c-30 60 -82 99 -174 127
c-6 -14 -21 -36 -32 -45c145 -40 176 -111 183 -255h59c-3 50 -8 92 -19 128c52 27 113 67 144 95zM133 951l-58 -29c35 -28 67 -77 86 -125l60 14c-19 48 -51 105 -88 140zM293 811l59 -9c15 39 27 91 29 122l-63 15c-2 -34 -12 -86 -25 -128zM453 809l57 -14
c19 34 37 78 43 108l-59 15c-5 -29 -23 -74 -41 -109zM606 801l51 -20c23 27 49 66 60 92l-53 23c-11 -27 -35 -66 -58 -95zM742 403h-477v47h477v-47zM265 540h477v-46h-477v46zM940 675h-675v47h643s-1 18 -3 27c-14 108 -28 154 -50 174c-15 14 -32 19 -54 20
c-20 1 -59 1 -100 -2c-1 -16 -7 -38 -16 -54c37 4 72 4 84 4c15 0 22 -1 30 -7c11 -12 22 -43 32 -112h-638v-415h226c10 -21 20 -43 25 -60l83 8c-11 19 -22 36 -32 52h320v230h-550v38h675v50z" />
</svg>
