<?xml version="1.0" standalone="no"?>
<!DOCTYPE svg PUBLIC "-//W3C//DTD SVG 1.1//EN" "http://www.w3.org/Graphics/SVG/1.1/DTD/svg11.dtd" >
<svg xmlns="http://www.w3.org/2000/svg" xmlns:xlink="http://www.w3.org/1999/xlink" version="1.1" viewBox="-10 0 1010 1000">
   <path fill="currentColor"
d="M263 460v-132c-47 70 -121 140 -184 178c-10 -15 -29 -38 -43 -50c61 -28 130 -85 176 -143h-156v-57h165c-30 -25 -63 -50 -91 -68l44 -30c29 18 64 42 93 66c34 -23 71 -55 100 -85h-274v-58h327l14 -3l42 31c-44 54 -108 110 -166 147h128l10 -4l43 19
c-31 59 -65 124 -96 167l-50 -23c19 -27 41 -65 59 -102h-84v147c0 31 -5 44 -28 53c-22 9 -58 9 -115 9c-3 -16 -11 -35 -18 -50c43 2 79 2 90 1s14 -4 14 -13zM290 671v4c53 41 119 94 154 127l-37 49c-26 -27 -73 -67 -117 -105v213h-64v-244c-41 69 -97 133 -153 170
c-11 -15 -30 -39 -45 -50c60 -34 121 -97 160 -164h-140v-60h178v-67h64v67h175v60h-175zM503 928l-48 -29c35 -46 51 -125 58 -197l50 14c-8 77 -21 162 -60 212zM594 729l44 -7c11 52 19 120 19 164l-48 6c2 -43 -5 -111 -15 -163zM681 719l41 -9c20 43 37 100 43 136
l-44 12c-5 -38 -22 -94 -40 -139zM857 790l-40 18c-11 -30 -35 -75 -57 -107l37 -15c23 32 49 76 60 104zM835 185h-252v66h252v-66zM583 370h252v-69h-252v69zM956 538h-373v62h361s-1 19 -2 29c-11 202 -23 277 -46 303c-14 17 -30 23 -54 25c-21 1 -60 1 -100 -1
c-1 -17 -7 -40 -16 -55c40 3 76 4 90 4c15 0 23 -1 30 -10c15 -16 25 -77 35 -238h-363v-526h124c12 -29 24 -64 31 -89l76 15c-12 25 -25 50 -38 74h189v294h-317v57h373v56z" />
</svg>
