<?xml version="1.0" standalone="no"?>
<!DOCTYPE svg PUBLIC "-//W3C//DTD SVG 1.1//EN" "http://www.w3.org/Graphics/SVG/1.1/DTD/svg11.dtd" >
<svg xmlns="http://www.w3.org/2000/svg" xmlns:xlink="http://www.w3.org/1999/xlink" version="1.1" viewBox="-10 0 1010 1000">
   <path fill="currentColor"
d="M426 273v-125h-82v125h82zM478 91v239h-184v-239h184zM86 448v-62h358v62h-358zM198 273v-125h-84v125h84zM249 91v239h-184v-239h184zM196 660h246s-1 19 -3 29c-14 144 -29 203 -52 227c-17 17 -34 22 -61 23c-23 3 -69 2 -115 -1c-1 -18 -9 -43 -19 -60
c47 4 93 5 109 5c17 0 26 -1 34 -8c15 -14 27 -57 37 -157h-258c13 -37 26 -90 37 -137h-106v-63h443v63h-272c-7 27 -13 53 -20 79zM511 925l-54 -26c26 -53 53 -138 66 -197l51 23c-16 57 -39 144 -63 200zM607 730l43 -7c12 52 21 118 22 162l-46 7
c0 -43 -8 -111 -19 -162zM692 720l40 -11c20 43 38 99 45 135l-43 14c-6 -37 -25 -95 -42 -138zM864 795l-40 19c-9 -32 -31 -77 -53 -113l38 -14c23 33 46 79 55 108zM831 190h-232v66h232v-66zM599 373h232v-68h-232v68zM957 540h-358v60h342s0 20 -1 29
c-12 201 -25 276 -48 303c-15 17 -31 24 -54 25c-20 2 -56 2 -93 -1c-1 -17 -7 -41 -16 -57c37 4 71 5 84 5c14 0 21 -2 28 -10c15 -17 26 -80 36 -237h-343v-521h110c13 -30 26 -68 34 -95l74 14c-13 29 -28 56 -40 81h185v291h-298v58h358v55z" />
</svg>
