<?xml version="1.0" standalone="no"?>
<!DOCTYPE svg PUBLIC "-//W3C//DTD SVG 1.1//EN" "http://www.w3.org/Graphics/SVG/1.1/DTD/svg11.dtd" >
<svg xmlns="http://www.w3.org/2000/svg" xmlns:xlink="http://www.w3.org/1999/xlink" version="1.1" viewBox="-10 0 1010 1000">
   <path fill="currentColor"
d="M470 97v64h-411v-64h411zM164 284v108h201v-108h-201zM431 451h-329v-225h329v225zM237 577h-103v112h103v-112zM393 689v-112h-95v112h95zM298 856h95v-111h-95v111zM134 856h103v-111h-103v111zM71 957v-440h386v440h-64v-43h-259v43h-63zM521 925l-53 -26
c26 -53 52 -138 66 -197l50 22c-16 58 -39 146 -63 201zM613 729l41 -6c12 51 19 119 20 163l-44 6c0 -43 -7 -111 -17 -163zM685 719l39 -9c20 42 39 99 45 135l-41 13c-7 -37 -25 -95 -43 -139zM849 796l-40 18c-8 -32 -31 -78 -53 -113l37 -14c22 33 46 80 56 109z
M828 190h-230v66h230v-66zM598 373h230v-68h-230v68zM952 540h-354v60h336s-1 20 -2 29c-12 201 -25 276 -48 303c-15 17 -31 24 -54 25c-20 2 -56 2 -92 -1c-2 -17 -8 -41 -17 -57c37 4 71 5 84 5s21 -2 28 -10c15 -17 27 -80 37 -237h-337v-521h106c12 -30 23 -68 29 -95
l70 14c-12 28 -24 56 -35 81h191v291h-296v58h354v55z" />
</svg>
