<?xml version="1.0" standalone="no"?>
<!DOCTYPE svg PUBLIC "-//W3C//DTD SVG 1.1//EN" "http://www.w3.org/Graphics/SVG/1.1/DTD/svg11.dtd" >
<svg xmlns="http://www.w3.org/2000/svg" xmlns:xlink="http://www.w3.org/1999/xlink" version="1.1" viewBox="-10 0 1010 1000">
   <path fill="currentColor"
d="M165 614h95v-75h-95v75zM165 415v73h95v-73h-95zM420 415h-98v73h98v-73zM420 614v-75h-98v75h98zM139 240h121v-59h62v59h122v-94h-305v94zM502 798h-180v159h-62v-159h-199v-61h199v-69h-154v-308h154v-61h-123v-38h-59v-172h429v172h-59v38h-126v61h157v308h-157v69
h180v61zM544 927l-46 -25c25 -46 41 -127 47 -191l49 14c-8 69 -20 152 -50 202zM619 722l45 -6c12 52 19 118 19 162l-48 7c2 -43 -5 -111 -16 -163zM833 190h-213v66h213v-66zM620 373h213v-68h-213v68zM957 540h-337v60h322s0 19 -1 29c-11 202 -22 277 -45 303
c-14 17 -30 23 -53 25c-21 1 -60 2 -98 -1c-1 -17 -7 -40 -15 -55c38 4 73 4 86 4c14 0 22 -1 29 -10c10 -12 18 -43 25 -111l-36 16c-10 -28 -34 -73 -57 -106l37 -14c23 28 45 67 57 95c3 -32 6 -70 8 -117h-324v-522h98c14 -30 28 -67 34 -93l76 14c-14 27 -28 55 -40 79
h174v291h-277v58h337v55zM787 838l-44 13c-5 -37 -21 -94 -40 -138l41 -10c20 43 37 99 43 135z" />
</svg>
