<?xml version="1.0" standalone="no"?>
<!DOCTYPE svg PUBLIC "-//W3C//DTD SVG 1.1//EN" "http://www.w3.org/Graphics/SVG/1.1/DTD/svg11.dtd" >
<svg xmlns="http://www.w3.org/2000/svg" xmlns:xlink="http://www.w3.org/1999/xlink" version="1.1" viewBox="-10 0 1010 1000">
   <path fill="currentColor"
d="M336 522l-30 -11c13 -35 28 -93 36 -130l38 13c-14 43 -30 95 -44 128zM150 392l33 -8c16 40 29 94 32 127l-36 10c-2 -35 -14 -88 -29 -129zM134 346v208h101v-208h-101zM396 554v-208h-109v208h109zM449 770l-45 56c-20 -30 -69 -88 -109 -132v264h-66v-262
c-42 81 -95 159 -145 208c-11 -16 -33 -39 -50 -52c61 -52 129 -149 174 -243h-126v-318h147v-77h-178v-64h178v-105h67v105h171v64h-171v77h155v318h-156v5c32 28 131 131 154 156zM470 930l-52 -32c41 -45 61 -122 70 -197l56 16c-10 78 -28 163 -74 213zM576 729l46 -7
c13 52 22 119 22 163l-48 7c0 -44 -8 -111 -20 -163zM665 719l42 -11c20 43 41 100 48 137l-45 12c-7 -37 -26 -95 -45 -138zM849 789l-41 18c-12 -30 -38 -74 -61 -106l38 -16c26 32 52 75 64 104zM817 190h-251v66h251v-66zM566 372h251v-67h-251v67zM958 540h-392v60h371
s-1 19 -2 28c-13 200 -25 275 -51 303c-15 17 -31 22 -57 24c-22 2 -65 2 -110 -1c-1 -17 -7 -41 -16 -56c43 4 84 5 99 5c17 0 24 -2 32 -9c16 -18 29 -80 38 -238h-372v-520h133c11 -31 21 -67 27 -93l78 14c-11 28 -23 55 -34 79h182v290h-318v59h392v55z" />
</svg>
