<?xml version="1.0" standalone="no"?>
<!DOCTYPE svg PUBLIC "-//W3C//DTD SVG 1.1//EN" "http://www.w3.org/Graphics/SVG/1.1/DTD/svg11.dtd" >
<svg xmlns="http://www.w3.org/2000/svg" xmlns:xlink="http://www.w3.org/1999/xlink" version="1.1" viewBox="-10 0 1010 1000">
   <path fill="currentColor"
d="M316 675h-106v113h106v-113zM363 836h-153v39h-49v-247h202v208zM460 523v360c0 32 -6 47 -26 58c-18 9 -49 10 -97 10c-2 -18 -10 -40 -18 -55c33 1 63 0 71 0c9 -1 12 -3 12 -13v-297h-284v371h-56v-434h398zM363 412v-91h-202v91h202zM421 266v201h-315v-201h315z
M207 57l57 -20c17 34 35 76 45 109h173v65h-428v-65h189c-9 -29 -22 -62 -36 -89zM534 924l-51 -25c24 -53 49 -139 63 -197l49 22c-16 57 -37 144 -61 200zM622 730l41 -6c12 51 20 118 21 162l-44 6c0 -43 -7 -110 -18 -162zM695 720l39 -10c19 42 38 99 44 135l-41 13
c-6 -37 -25 -95 -42 -138zM857 796l-38 18c-10 -31 -32 -78 -53 -113l36 -14c23 34 46 80 55 109zM832 190h-223v66h223v-66zM609 373h223v-68h-223v68zM954 540h-345v60h330s0 20 -1 29c-12 201 -25 276 -48 303c-15 17 -31 24 -54 25c-20 2 -56 2 -93 -1
c-1 -17 -7 -41 -16 -57c37 4 71 5 84 5s21 -2 28 -10c15 -17 26 -80 36 -237h-332v-521h105c12 -30 24 -68 30 -95l70 14c-12 28 -24 56 -35 81h184v291h-288v58h345v55z" />
</svg>
