<?xml version="1.0" standalone="no"?>
<!DOCTYPE svg PUBLIC "-//W3C//DTD SVG 1.1//EN" "http://www.w3.org/Graphics/SVG/1.1/DTD/svg11.dtd" >
<svg xmlns="http://www.w3.org/2000/svg" xmlns:xlink="http://www.w3.org/1999/xlink" version="1.1" viewBox="-10 0 1010 1000">
   <path fill="currentColor"
d="M848 81l55 24c-30 32 -61 62 -87 84l-43 -20c25 -24 57 -63 75 -88zM577 81l46 17c-15 41 -39 81 -81 106l-42 -30c37 -19 65 -57 77 -93zM433 84l53 23c-26 30 -54 58 -77 79l-42 -20c21 -23 51 -58 66 -82zM186 81l45 17c-14 40 -38 79 -78 105l-42 -30
c35 -19 63 -57 75 -92zM110 958l-55 -37c61 -24 100 -69 117 -121l59 21c-20 58 -53 109 -121 137zM306 823l60 -10c16 36 27 85 29 118l-64 13c-1 -33 -11 -83 -25 -121zM461 825l56 -15c21 33 42 76 51 105l-60 17c-8 -30 -27 -75 -47 -107zM614 825l50 -20
c25 23 50 55 61 78l-53 24c-10 -24 -35 -58 -58 -82zM707 438h-410v44h410v-44zM297 569h410v-47h-410v47zM572 289h251c-33 -26 -81 -56 -126 -79c-25 36 -64 61 -125 79zM946 701h-649v45h597s-1 17 -3 26c-14 104 -26 148 -48 168c-15 12 -31 17 -55 17
c-19 1 -55 1 -93 -2c-1 -13 -7 -35 -16 -49c37 4 69 4 82 4c12 0 20 -1 27 -8c12 -10 23 -42 32 -110h-595v-398h206c9 -18 18 -37 25 -53h-301v107h-69v-159h63c-7 -11 -17 -23 -24 -30c131 -32 158 -91 165 -216h59c-3 48 -8 88 -20 122c51 24 110 60 142 88l-45 36
c-27 -24 -74 -56 -117 -80c-22 34 -55 60 -104 80h328c-6 -13 -17 -30 -27 -38c140 -29 168 -81 174 -208h60c-3 49 -8 89 -20 123c59 26 129 68 167 98l-29 25h58v159h-71v-107h-311c-10 19 -21 37 -32 53h276v219h-481v43h649v45z" />
</svg>
