<?xml version="1.0" standalone="no"?>
<!DOCTYPE svg PUBLIC "-//W3C//DTD SVG 1.1//EN" "http://www.w3.org/Graphics/SVG/1.1/DTD/svg11.dtd" >
<svg xmlns="http://www.w3.org/2000/svg" xmlns:xlink="http://www.w3.org/1999/xlink" version="1.1" viewBox="-10 0 1010 1000">
   <path fill="currentColor"
d="M517 222l-47 36c-29 -48 -91 -120 -142 -167l44 -30c54 46 116 115 145 161zM507 415l-50 30c-8 -13 -18 -30 -30 -47c-259 22 -292 26 -310 35c-3 -14 -12 -45 -19 -62c16 -3 30 -15 49 -33s82 -89 123 -161l55 28c-41 58 -85 113 -130 157l195 -15
c-18 -22 -36 -44 -53 -63l48 -25c45 47 97 113 122 156zM199 66l54 18c-38 74 -103 144 -164 190c-9 -12 -29 -34 -42 -45c59 -39 119 -99 152 -163zM263 482v389c0 32 -6 49 -28 59c-21 11 -56 11 -108 11c-2 -16 -11 -41 -20 -57c39 1 71 1 82 0c10 0 13 -3 13 -13v-118
c-46 28 -91 56 -131 78l-29 -53c42 -19 99 -51 160 -83v-157h-147v-56h208zM188 647l-38 37c-19 -25 -57 -67 -89 -95l38 -32c31 26 71 65 89 90zM492 483v389c0 32 -7 49 -29 59s-57 11 -114 11c-3 -17 -11 -41 -19 -57c40 2 76 1 87 1c11 -1 14 -4 14 -15v-117
c-46 27 -90 54 -130 76l-28 -54c41 -19 99 -49 158 -80v-157h-149v-56h210zM423 650l-37 38c-21 -26 -61 -69 -94 -97l37 -32c33 27 75 65 94 91zM544 916l-50 -24c28 -47 46 -128 56 -190l49 16c-10 65 -27 148 -55 198zM622 722l44 -6c10 51 16 117 16 159l-47 7
c2 -42 -3 -109 -13 -160zM698 715l40 -8c19 42 35 99 40 134l-42 12c-5 -38 -21 -93 -38 -138zM866 804l-39 15c-10 -32 -31 -82 -53 -119l36 -13c23 36 47 85 56 117zM825 190h-218v65h218v-65zM607 373h218v-67h-218v67zM954 541h-347v58h334s0 19 -1 28
c-10 197 -21 271 -43 296c-14 17 -29 23 -52 25c-21 2 -59 1 -98 0c-1 -18 -7 -42 -15 -58c38 5 74 5 87 5c14 0 22 -1 29 -10c14 -15 23 -74 32 -228h-338v-521h108c12 -29 23 -67 28 -93l75 14c-13 28 -25 55 -37 79h174v291h-283v56h347v58z" />
</svg>
