<?xml version="1.0" standalone="no"?>
<!DOCTYPE svg PUBLIC "-//W3C//DTD SVG 1.1//EN" "http://www.w3.org/Graphics/SVG/1.1/DTD/svg11.dtd" >
<svg xmlns="http://www.w3.org/2000/svg" xmlns:xlink="http://www.w3.org/1999/xlink" version="1.1" viewBox="-10 0 1010 1000">
   <path fill="currentColor"
d="M407 197v-67h-244v67h244zM407 316v-69h-244v69h244zM474 77v293h-375v-293h375zM129 494v76h-57v-135h182c-7 -18 -16 -36 -24 -51l61 -14c12 19 25 44 33 65h166v135h-58v-76h-303zM376 658h-138c-14 27 -30 53 -44 75c33 14 66 29 97 44c36 -34 65 -73 85 -119z
M505 658h-63c-22 58 -52 107 -90 147c46 23 87 47 119 69l-44 51c-33 -24 -77 -50 -126 -76c-57 42 -127 74 -213 96c-7 -19 -20 -44 -31 -59c71 -15 131 -38 180 -68c-42 -21 -86 -39 -130 -56c21 -30 44 -66 65 -104h-123v-59h153c12 -25 23 -48 32 -71l60 15
c-8 19 -16 37 -25 56h236v59zM531 924l-54 -25c24 -53 47 -138 59 -197l50 23c-14 57 -34 145 -55 199zM618 730l41 -7c12 51 20 118 22 162l-46 7c1 -43 -7 -111 -17 -162zM699 720l38 -11c20 42 38 99 45 136l-41 13c-7 -37 -25 -95 -42 -138zM869 788l-38 20
c-11 -29 -35 -75 -57 -107l35 -16c24 32 49 75 60 103zM832 190h-229v66h229v-66zM603 373h229v-68h-229v68zM957 540h-354v60h347s-1 20 -2 29c-12 201 -25 276 -47 303c-14 17 -30 24 -53 25c-19 2 -55 2 -90 -1c-1 -17 -7 -41 -15 -57c35 4 69 5 82 5s21 -2 28 -10
c14 -17 25 -80 35 -237h-347v-521h108c12 -30 23 -68 28 -95l71 14c-12 28 -25 56 -35 81h181v291h-291v58h354v55z" />
</svg>
