<?xml version="1.0" standalone="no"?>
<!DOCTYPE svg PUBLIC "-//W3C//DTD SVG 1.1//EN" "http://www.w3.org/Graphics/SVG/1.1/DTD/svg11.dtd" >
<svg xmlns="http://www.w3.org/2000/svg" xmlns:xlink="http://www.w3.org/1999/xlink" version="1.1" viewBox="-10 0 1010 1000">
   <path fill="currentColor"
d="M321 243v-88h-62v88h62zM433 438v-135h-62v135h62zM139 303v135h71v-135h-71zM320 303h-59v135h59v-135zM201 243v-88h-141v-65h452v65h-132v88h111v255h-408v-255h118zM503 640h-173c52 53 115 120 147 162l-44 40c-25 -35 -69 -87 -113 -133v235h-65v-228
c-47 73 -108 140 -169 180c-9 -17 -29 -39 -44 -51c71 -42 146 -122 192 -205h-174v-59h195v-67h65v67h183v59zM537 926l-52 -22c24 -51 45 -135 55 -193l49 18c-12 60 -29 144 -52 197zM620 722l43 -5c8 52 14 118 15 162l-45 7c0 -44 -6 -112 -13 -164zM694 713l41 -10
c16 42 34 98 42 133l-43 12c-7 -37 -24 -92 -40 -135zM859 780l-40 19c-11 -29 -34 -73 -55 -105l38 -15c21 33 46 75 57 101zM833 190h-227v66h227v-66zM606 373h227v-68h-227v68zM955 539h-349v61h330s0 19 -1 29c-11 203 -23 277 -44 303c-14 16 -29 23 -51 24
c-18 1 -51 2 -83 0c-1 -17 -7 -39 -15 -55c32 3 61 4 73 4c13 0 20 -1 27 -10c13 -16 24 -77 33 -237h-332v-522h114c10 -30 20 -67 25 -93l65 12c-11 28 -22 56 -32 81h181v291h-290v57h349v55z" />
</svg>
