<?xml version="1.0" standalone="no"?>
<!DOCTYPE svg PUBLIC "-//W3C//DTD SVG 1.1//EN" "http://www.w3.org/Graphics/SVG/1.1/DTD/svg11.dtd" >
<svg xmlns="http://www.w3.org/2000/svg" xmlns:xlink="http://www.w3.org/1999/xlink" version="1.1" viewBox="-10 0 1010 1000">
   <path fill="currentColor"
d="M380 735h-85v199h-53v-199h-90v-51h68c-10 -33 -35 -84 -60 -123l40 -16c25 38 51 89 61 121l-39 18h49c23 -42 52 -100 65 -142l47 20c-20 40 -43 85 -63 122h60v51zM471 467v408c0 33 -6 50 -26 61c-21 10 -55 11 -106 11c-2 -18 -10 -42 -16 -60c36 1 66 1 76 1
c11 0 13 -3 13 -14v-349h-287v429h-60v-487h406zM376 357v-94h-218v94h218zM439 209v202h-340v-202h340zM49 152v-65h432v65h-432zM539 924l-51 -25c25 -53 50 -139 63 -197l48 22c-15 56 -37 144 -60 200zM625 729l41 -5c12 51 20 118 21 162l-44 6c1 -43 -7 -111 -18 -163
zM698 720l38 -10c19 42 38 99 45 135l-41 13c-7 -37 -25 -95 -42 -138zM859 796l-38 18c-9 -32 -31 -78 -52 -113l36 -14c22 34 45 80 54 109zM835 190h-222v66h222v-66zM613 373h222v-68h-222v68zM955 540h-342v60h326s0 20 -1 29c-12 201 -24 276 -47 303
c-15 17 -31 24 -53 25c-20 2 -56 2 -92 -1c-1 -17 -8 -41 -17 -57c37 4 71 5 84 5s21 -2 28 -10c15 -17 26 -80 35 -237h-328v-521h105c12 -31 23 -69 29 -95l66 13c-12 29 -24 57 -35 82h186v291h-286v58h342v55z" />
</svg>
