<?xml version="1.0" standalone="no"?>
<!DOCTYPE svg PUBLIC "-//W3C//DTD SVG 1.1//EN" "http://www.w3.org/Graphics/SVG/1.1/DTD/svg11.dtd" >
<svg xmlns="http://www.w3.org/2000/svg" xmlns:xlink="http://www.w3.org/1999/xlink" version="1.1" viewBox="-10 0 1010 1000">
   <path fill="currentColor"
d="M154 425v68h236v-68h-236zM154 306v67h236v-67h-236zM154 188v66h236v-66h-236zM308 669v15c44 33 133 106 157 127l-42 53c-22 -26 -73 -75 -115 -116v207h-67v-214c-44 69 -101 134 -156 171c-11 -17 -31 -41 -46 -54c68 -38 139 -114 184 -189h-168v-61h186v-61h-147
v-414h120c10 -29 21 -66 27 -90l74 11c-12 28 -24 55 -35 79h172v414h-144v61h167v61h-167zM514 919l-51 -29c24 -48 44 -127 53 -188l52 18c-10 64 -26 147 -54 199zM597 730l44 -7c13 51 21 118 22 163l-47 6c1 -43 -8 -110 -19 -162zM679 720l40 -11c20 42 38 99 45 135
l-43 14c-6 -37 -24 -95 -42 -138zM849 797l-40 18c-10 -32 -31 -80 -52 -116l37 -15c23 36 45 82 55 113zM811 190h-232v66h232v-66zM579 373h232v-68h-232v68zM947 540h-368v60h354s-1 20 -1 29c-12 196 -25 270 -47 296c-15 17 -31 23 -54 25c-20 2 -56 2 -93 0
c-1 -18 -7 -41 -15 -57c36 3 69 3 83 3c13 1 21 -1 28 -10c15 -15 25 -76 35 -229h-356v-521h112c12 -30 22 -68 29 -95l74 13c-13 28 -24 57 -36 82h185v291h-298v58h368v55z" />
</svg>
