<?xml version="1.0" standalone="no"?>
<!DOCTYPE svg PUBLIC "-//W3C//DTD SVG 1.1//EN" "http://www.w3.org/Graphics/SVG/1.1/DTD/svg11.dtd" >
<svg xmlns="http://www.w3.org/2000/svg" xmlns:xlink="http://www.w3.org/1999/xlink" version="1.1" viewBox="-10 0 1010 1000">
   <path fill="currentColor"
d="M326 475v62l107 -4c-12 -15 -23 -28 -35 -40l31 -18h-103zM145 428h116v-61h-116v61zM145 262v61h116v-61h-116zM438 262h-112v61h112v-61zM438 428v-61h-112v61h112zM60 605l-5 -59c57 -1 127 -4 206 -6v-65h-173v-260h173v-52h-199v-58h199v-60h65v60h194v58h-194v52
h171v260h-48c38 38 75 88 92 125l-46 27c-6 -12 -14 -26 -24 -42c-148 8 -301 15 -411 20zM123 761l51 -29c37 31 77 76 95 109l-52 33c-17 -32 -57 -80 -94 -113zM528 723h-100v151c0 35 -6 51 -32 62c-26 10 -65 10 -124 10c-4 -18 -13 -42 -23 -60c46 1 85 1 97 1
s15 -4 15 -14v-150h-303v-58h303v-58h67v58h100v58zM555 921l-52 -27c24 -50 44 -132 54 -192l49 22c-11 61 -29 144 -51 197zM631 730l42 -7c12 51 21 118 21 162l-44 7c0 -43 -8 -110 -19 -162zM828 190h-203v66h203v-66zM625 373h203v-68h-203v68zM952 540h-327v60h321
s-1 20 -1 29c-12 196 -24 270 -46 296c-14 17 -29 23 -51 25c-20 2 -54 2 -90 0c-1 -18 -7 -41 -15 -57c35 3 68 3 81 3c14 1 21 -1 28 -10c9 -10 15 -35 22 -86l-33 15c-10 -33 -31 -81 -52 -116l36 -16c20 33 39 73 50 103c4 -33 8 -75 11 -129h-323v-521h104
c11 -30 22 -68 28 -95l69 13c-12 28 -24 57 -36 82h161v291h-264v58h327v55zM795 844l-41 14c-6 -37 -23 -95 -42 -138l39 -11c19 42 38 99 44 135z" />
</svg>
