<?xml version="1.0" standalone="no"?>
<!DOCTYPE svg PUBLIC "-//W3C//DTD SVG 1.1//EN" "http://www.w3.org/Graphics/SVG/1.1/DTD/svg11.dtd" >
<svg xmlns="http://www.w3.org/2000/svg" xmlns:xlink="http://www.w3.org/1999/xlink" version="1.1" viewBox="-10 0 1010 1000">
   <path fill="currentColor"
d="M315 206v-64h-69v64h69zM435 342v-83h-70v83h70zM129 259v83h67v-83h-67zM315 259h-69v83h69v-83zM188 206v-64h-131v-57h453v57h-137v64h123v190h-426v-190h118zM161 604v58h242v-58h-242zM161 500v56h242v-56h-242zM500 829h-187v127h-66v-127h-200v-58h200v-58h-148
v-264h369v264h-155v58h187v58zM534 935l-49 -26c29 -45 42 -123 47 -192l50 12c-6 73 -16 157 -48 206zM612 722l46 -7c11 52 18 119 18 163l-49 7c2 -43 -5 -111 -15 -163zM698 712l42 -10c19 43 36 97 42 135l-45 11c-5 -37 -21 -93 -39 -136zM831 190h-223v66h223v-66z
M608 372h223v-67h-223v67zM956 540h-348v60h334s0 18 -1 28c-11 204 -23 277 -45 304c-14 16 -29 23 -52 24c-18 1 -52 2 -85 -1c0 -15 -6 -39 -15 -55c32 3 62 4 74 4s20 -1 26 -9c11 -12 18 -44 25 -114l-37 18c-11 -30 -34 -74 -56 -105l38 -15c21 29 46 68 56 95
c3 -31 6 -70 8 -117h-335v-521h115c11 -31 21 -67 26 -93l77 14c-11 27 -23 55 -34 79h169v290h-288v59h348v55z" />
</svg>
