<?xml version="1.0" standalone="no"?>
<!DOCTYPE svg PUBLIC "-//W3C//DTD SVG 1.1//EN" "http://www.w3.org/Graphics/SVG/1.1/DTD/svg11.dtd" >
<svg xmlns="http://www.w3.org/2000/svg" xmlns:xlink="http://www.w3.org/1999/xlink" version="1.1" viewBox="-10 0 1010 1000">
   <path fill="currentColor"
d="M96 932l-52 -29c34 -46 58 -124 69 -188l53 18c-12 67 -34 149 -70 199zM296 329v-81h-108v81h108zM296 465v-80h-108v80h108zM296 608v-87h-108v87h108zM481 669h-293v26h-62v-378c-17 28 -34 52 -52 75c-6 -14 -24 -46 -36 -60c60 -71 109 -179 139 -288l59 16
c-13 43 -28 85 -44 126h129c-11 -32 -35 -77 -58 -111l53 -22c26 33 52 81 63 112l-44 21h143v62h-120v81h102v56h-102v80h101v56h-101v87h123v61zM202 732l51 -5c11 52 18 120 18 164l-53 6c1 -44 -6 -112 -16 -165zM303 727l47 -9c17 43 34 101 39 139l-50 11
c-5 -39 -19 -97 -36 -141zM391 714l46 -12c22 33 45 79 54 109l-48 15c-9 -30 -31 -77 -52 -112zM504 937l-48 -28c36 -44 54 -122 61 -193l52 13c-10 76 -25 159 -65 208zM603 729l45 -7c11 53 16 121 16 165l-48 6c2 -43 -3 -112 -13 -164zM810 190h-222v65h222v-65z
M588 373h222v-67h-222v67zM956 541h-368v58h344s-1 19 -1 28c-12 202 -24 277 -47 303c-15 17 -31 23 -55 25c-20 2 -59 1 -98 -1c-1 -18 -7 -41 -16 -56c38 3 75 4 88 4c14 0 23 -1 30 -10c10 -11 17 -40 24 -103l-38 18c-10 -29 -32 -75 -55 -107l39 -15
c22 31 44 70 55 97c3 -32 7 -73 10 -125h-348v-521h114c11 -29 23 -67 28 -93l78 14c-13 28 -26 55 -38 79h175v291h-289v56h368v58zM768 843l-44 13c-5 -37 -21 -93 -37 -136l42 -10c17 42 34 98 39 133z" />
</svg>
