<?xml version="1.0" standalone="no"?>
<!DOCTYPE svg PUBLIC "-//W3C//DTD SVG 1.1//EN" "http://www.w3.org/Graphics/SVG/1.1/DTD/svg11.dtd" >
<svg xmlns="http://www.w3.org/2000/svg" xmlns:xlink="http://www.w3.org/1999/xlink" version="1.1" viewBox="-10 0 1010 1000">
   <path fill="currentColor"
d="M156 280v-78h-109v-59h109v-92h58v92h126v-92h58v92h114v59h-114v78h-58v-78h-126v78h-58zM177 617h68v-98h-68v98zM177 362v96h68v-96h-68zM379 458v-96h-72v96h72zM379 617v-98h-72v98h72zM307 677v75h206v59h-206v146h-62v-146h-193v-59h193v-75h-174v-60h48v-98h-76
v-61h76v-96h-51v-60h429v60h-61v96h81v61h-81v98h60v60h-189zM567 914l-52 -24c19 -53 41 -139 52 -195l48 20c-12 57 -30 144 -48 199zM639 719l44 -8c12 52 20 120 21 163l-46 8c0 -44 -8 -111 -19 -163zM712 710l39 -11c19 43 35 99 41 137l-42 12
c-5 -37 -22 -94 -38 -138zM867 781l-39 18c-9 -29 -31 -74 -51 -106l36 -15c22 31 44 75 54 103zM823 190h-209v66h209v-66zM614 373h209v-68h-209v68zM956 540h-342v60h328s-1 20 -2 29c-12 202 -24 277 -47 303c-14 17 -29 24 -52 25c-19 2 -51 2 -84 0
c-1 -17 -7 -42 -15 -57c32 3 63 4 75 4c13 0 20 -2 27 -10c15 -17 25 -80 35 -237h-327v-521h92c12 -30 24 -68 29 -95l68 14c-11 28 -23 56 -34 81h176v291h-269v58h342v55z" />
</svg>
