<?xml version="1.0" standalone="no"?>
<!DOCTYPE svg PUBLIC "-//W3C//DTD SVG 1.1//EN" "http://www.w3.org/Graphics/SVG/1.1/DTD/svg11.dtd" >
<svg xmlns="http://www.w3.org/2000/svg" xmlns:xlink="http://www.w3.org/1999/xlink" version="1.1" viewBox="-10 0 1010 1000">
   <path fill="currentColor"
d="M340 286v63h111v-63h-111zM340 170v61h111v-61h-111zM478 564v-132h52v525h-52v-153h-60v145h-41v-189h101v-50h-143v244h-51v-244h-139c0 17 -1 34 -3 50h100v189h-42v-145h-63c-8 55 -23 106 -52 151c-9 -11 -30 -28 -43 -35c46 -73 53 -169 53 -267v-220h51v132h53
v-120h42v164h-95v44v4h138v-255h-177v-53h172v-63h-228v-55h228v-61h-172v-53h172v-71h61v71h171v114h53v55h-53v116h-176v255h143v-48h-101v-164h41v119h60zM581 921l-43 -26c30 -45 39 -123 42 -198l49 8c-5 81 -13 166 -48 216zM658 723l40 -5c12 52 19 121 19 164l-44 7
c1 -44 -4 -112 -15 -166zM843 190h-200v66h200v-66zM643 372h200v-67h-200v67zM960 540h-317v60h304s0 17 -1 27c-10 206 -20 278 -40 305c-14 15 -29 20 -51 23c-19 1 -51 1 -85 -1c-1 -16 -5 -38 -14 -52c34 3 62 4 75 4c12 0 20 -2 26 -10c8 -11 15 -41 21 -107l-26 11
c-8 -26 -27 -67 -45 -97l34 -13c15 21 29 48 39 71c3 -29 5 -64 7 -105h-306v-520h122c10 -31 20 -67 25 -93l74 13c-11 28 -22 56 -33 80h137v290h-263v59h317v55zM813 845l-42 9c-4 -37 -19 -94 -36 -138l38 -8c19 43 35 99 40 137z" />
</svg>
