<?xml version="1.0" standalone="no"?>
<!DOCTYPE svg PUBLIC "-//W3C//DTD SVG 1.1//EN" "http://www.w3.org/Graphics/SVG/1.1/DTD/svg11.dtd" >
<svg xmlns="http://www.w3.org/2000/svg" xmlns:xlink="http://www.w3.org/1999/xlink" version="1.1" viewBox="-10 0 1010 1000">
   <path fill="currentColor"
d="M140 675l61 15c-22 73 -58 152 -95 203c-12 -10 -38 -26 -54 -33c36 -49 68 -119 88 -185zM175 522v63h203v-63h-203zM198 360h176c-36 -29 -77 -59 -118 -84c-17 30 -36 58 -58 84zM378 474v-63h-203v63h203zM444 636h-132v237c0 34 -6 51 -29 62c-22 11 -57 12 -109 11
c-2 -18 -10 -43 -19 -61c36 1 67 1 78 1c10 -1 13 -4 13 -13v-237h-134v-196c-16 11 -31 22 -49 32c-6 -15 -23 -48 -33 -63c40 -21 75 -46 106 -76c-20 -25 -48 -53 -72 -74l37 -35c25 19 51 44 71 66c21 -27 38 -59 53 -93h-170v-60h191c9 -29 16 -62 21 -95l63 11
c-5 29 -12 58 -19 84h194v60h-213c-3 9 -7 18 -11 27c36 21 72 45 106 70c21 -24 42 -53 56 -73l47 37c-21 22 -43 46 -64 66c37 29 69 58 93 84l-37 52c-11 -13 -24 -26 -38 -39v215zM348 693l54 -20c29 50 62 118 76 160l-58 25c-12 -44 -44 -113 -72 -165zM515 932
l-49 -28c34 -47 52 -127 59 -197l52 13c-9 75 -26 160 -62 212zM606 729l45 -6c11 52 17 119 16 163l-47 6c1 -43 -4 -111 -14 -163zM690 720l41 -9c19 41 34 98 40 133l-43 12c-6 -36 -20 -93 -38 -136zM861 790l-40 18c-10 -30 -32 -75 -54 -107l37 -14
c23 33 48 75 57 103zM825 190h-221v65h221v-65zM604 373h221v-67h-221v67zM954 541h-350v58h338s-1 19 -2 28c-10 202 -21 277 -43 303c-15 17 -31 23 -54 25c-21 2 -60 2 -99 -1c-1 -18 -8 -41 -16 -56c38 3 74 4 88 4s22 -1 29 -10c15 -16 24 -76 33 -235h-342v-521h112
c12 -29 23 -67 29 -93l77 14c-13 28 -26 55 -37 79h175v291h-288v56h350v58z" />
</svg>
