<?xml version="1.0" standalone="no"?>
<!DOCTYPE svg PUBLIC "-//W3C//DTD SVG 1.1//EN" "http://www.w3.org/Graphics/SVG/1.1/DTD/svg11.dtd" >
<svg xmlns="http://www.w3.org/2000/svg" xmlns:xlink="http://www.w3.org/1999/xlink" version="1.1" viewBox="-10 0 1010 1000">
   <path fill="currentColor"
d="M699 201h64v79c47 -18 94 -39 122 -60l42 38c-46 28 -108 51 -164 68v30c0 18 4 20 27 20h80c19 0 23 -6 25 -51c14 9 38 18 55 21c-6 65 -24 83 -71 83h-97c-66 0 -83 -16 -83 -73v-155zM593 143h-189v43h189v-43zM339 233v-90h-271v-47h271v-53h65v53h189v-53h67v53
h273v47h-273v90h-321zM416 314v51h163v-51h-163zM642 408h-287v-136h287v136zM235 440v-41c-62 14 -121 28 -173 40l-11 -51c51 -9 115 -23 184 -37v-52h-166v-48h166v-49h63v238h-63zM113 957l-54 -36c58 -21 96 -59 114 -104l58 22c-19 50 -52 94 -118 118zM306 837
l60 -10c14 31 24 73 26 101l-64 13c0 -29 -9 -72 -22 -104zM459 839l57 -15c19 28 38 67 45 92l-59 17c-7 -26 -25 -66 -43 -94zM608 840l50 -21c22 21 45 50 57 72l-53 23c-11 -22 -34 -53 -54 -74zM741 504h-477v35h477v-35zM264 613h477v-39h-477v39zM264 652v36h667v43
h-667v37h627s-1 17 -3 26c-14 89 -26 128 -46 146c-15 12 -29 16 -50 17c-18 0 -51 0 -86 -2c-1 -14 -7 -35 -14 -48c30 3 59 4 71 4c11 0 18 -1 24 -8c11 -9 22 -36 30 -92h-626v-347h223c11 -18 21 -40 26 -54l75 10c-10 17 -21 31 -31 44h330v188h-550z" />
</svg>
