<?xml version="1.0" standalone="no"?>
<!DOCTYPE svg PUBLIC "-//W3C//DTD SVG 1.1//EN" "http://www.w3.org/Graphics/SVG/1.1/DTD/svg11.dtd" >
<svg xmlns="http://www.w3.org/2000/svg" xmlns:xlink="http://www.w3.org/1999/xlink" version="1.1" viewBox="-10 0 1010 1000">
   <path fill="currentColor"
d="M353 590l-19 -46c36 -9 95 -36 128 -50l24 55c-40 19 -96 33 -133 41zM336 667l17 -49c48 6 103 19 134 33l-20 54c-32 -14 -85 -29 -131 -38zM383 231v-48h-231v48h231zM383 322v-48h-231v48h231zM383 415v-49h-231v49h231zM454 134v330h-370v-330h143
c8 -29 15 -61 21 -90l70 6c-8 29 -18 58 -28 84h164zM213 540l-19 52c-29 -13 -88 -31 -132 -41l19 -46c41 6 100 22 132 35zM213 627l1 52c-52 18 -106 36 -149 48l-15 -59c41 -9 102 -25 163 -41zM484 811h-177v145h-60v-145h-196v-60h196v-268h60v268h177v60zM528 925
l-55 -26c26 -53 52 -138 67 -197l52 23c-16 58 -39 146 -64 200zM609 729l44 -6c12 51 21 118 22 162l-47 7c-1 -43 -8 -111 -19 -163zM693 720l40 -11c20 42 39 99 46 136l-43 13c-7 -37 -25 -95 -43 -138zM868 788l-40 20c-11 -29 -35 -75 -58 -107l37 -16
c25 32 51 75 61 103zM826 190h-223v66h223v-66zM603 373h223v-68h-223v68zM959 540h-356v60h348s-1 20 -2 29c-12 201 -24 276 -48 303c-14 17 -30 24 -54 25c-20 2 -56 2 -92 -1c-1 -17 -8 -41 -17 -57c37 4 71 5 84 5c14 0 21 -2 29 -10c15 -17 26 -80 36 -237h-351v-521
h106c12 -30 23 -68 29 -95l74 14c-12 28 -25 56 -36 81h182v291h-288v58h356v55z" />
</svg>
