<?xml version="1.0" standalone="no"?>
<!DOCTYPE svg PUBLIC "-//W3C//DTD SVG 1.1//EN" "http://www.w3.org/Graphics/SVG/1.1/DTD/svg11.dtd" >
<svg xmlns="http://www.w3.org/2000/svg" xmlns:xlink="http://www.w3.org/1999/xlink" version="1.1" viewBox="-10 0 1010 1000">
   <path fill="currentColor"
d="M716 235h61v116c0 18 3 20 27 20h74c20 0 24 -7 27 -69c12 9 36 18 52 21c-5 80 -22 101 -70 101h-91c-64 0 -80 -15 -80 -73v-116zM939 204h-225c-21 105 -65 187 -157 238c-7 -15 -25 -37 -39 -48c76 -41 113 -107 132 -190h-128v-55h138c4 -33 7 -69 9 -106h63
c-2 37 -5 73 -9 106h127c-19 -23 -51 -53 -78 -73l45 -29c30 21 65 52 83 74l-39 28h78v55zM516 101v46h-448v-46h198c-8 -16 -17 -33 -25 -47l61 -16c14 18 27 42 36 63h178zM182 225v53h232v-53h-232zM326 318v72c0 24 -5 34 -23 41c-16 7 -41 7 -77 7
c-3 -12 -12 -27 -19 -38c25 1 46 1 53 0c7 0 10 -2 10 -9v-73h-149v-133h356v133h-151zM175 329l52 17c-33 33 -84 72 -126 95c-9 -10 -32 -25 -46 -33c43 -23 90 -51 120 -79zM125 949l-59 -34c46 -26 91 -72 121 -107l56 31c-34 36 -75 79 -118 110zM312 836l60 -9
c12 32 21 75 22 104l-64 10c-1 -28 -9 -71 -18 -105zM467 834l55 -12c19 28 36 67 42 93l-59 16c-6 -26 -22 -66 -38 -97zM617 831l52 -15c21 27 41 63 50 87l-55 18c-8 -26 -28 -64 -47 -90zM734 495h-456v37h456v-37zM278 606h456v-37h-456v37zM278 647v38h668v43h-668v37
h613s-1 16 -2 24c-11 95 -21 135 -40 152c-14 13 -31 17 -52 18c-17 1 -48 0 -79 -1c-1 -13 -7 -33 -14 -46c28 3 51 4 62 4s18 -1 24 -7c9 -11 17 -38 25 -101h-609v-354h225c9 -16 18 -32 24 -45l-12 9c-19 -20 -55 -48 -83 -64l42 -28c29 15 66 42 84 59l-25 20l69 9
c-9 15 -17 28 -24 40h301v193h-529z" />
</svg>
