<?xml version="1.0" standalone="no"?>
<!DOCTYPE svg PUBLIC "-//W3C//DTD SVG 1.1//EN" "http://www.w3.org/Graphics/SVG/1.1/DTD/svg11.dtd" >
<svg xmlns="http://www.w3.org/2000/svg" xmlns:xlink="http://www.w3.org/1999/xlink" version="1.1" viewBox="-10 0 1010 1000">
   <path fill="currentColor"
d="M347 743h-98v88h98v-88zM393 878h-144v41h-51v-223h195v182zM440 656l-36 28c-20 -28 -59 -69 -91 -99l35 -23c32 27 73 67 92 94zM507 488v384c0 34 -6 52 -26 63s-50 13 -96 12c-3 -19 -12 -45 -20 -64c33 1 60 1 68 1c10 0 12 -3 12 -12v-328h-296v111
c34 -26 68 -61 88 -93l47 14c-25 42 -65 87 -101 115c-8 -8 -23 -20 -34 -29v292h-62v-466h420zM463 241l10 -3l40 16c-27 49 -56 101 -82 137l-48 -18c15 -21 31 -47 45 -75h-89v116c0 31 -5 44 -25 54c-18 8 -48 8 -92 8c-2 -16 -9 -36 -15 -52c31 1 56 1 65 1
c8 0 10 -3 10 -12v-94c-52 53 -129 106 -197 135c-7 -15 -22 -38 -33 -51c60 -19 131 -61 181 -105h-168v-57h186c-28 -19 -58 -40 -84 -55l44 -28c29 17 63 38 93 58c28 -25 56 -56 78 -85h-270v-55h314l13 -4l38 32c-33 48 -78 98 -122 137h108zM582 922l-52 -22
c17 -54 38 -140 48 -198l49 22c-11 56 -29 143 -45 198zM649 729l41 -6c12 51 21 118 22 162l-44 7c0 -43 -8 -111 -19 -163zM843 190h-209v66h209v-66zM634 373h209v-68h-209v68zM957 540h-323v60h302s-1 20 -2 29c-13 199 -25 274 -47 300c-15 18 -31 24 -53 25
c-19 3 -56 2 -92 0c-1 -17 -7 -41 -16 -57c37 4 70 4 84 4c13 0 20 -1 27 -10c10 -11 17 -38 24 -94l-35 16c-9 -31 -30 -77 -50 -112l36 -14c19 32 40 73 50 102c4 -33 8 -76 11 -132h-303v-521h96c12 -30 23 -68 30 -95l71 14c-11 28 -24 56 -36 81h176v291h-273v58h323
v55zM797 845l-40 13c-6 -37 -24 -95 -42 -138l37 -10c21 42 38 99 45 135z" />
</svg>
