<?xml version="1.0" standalone="no"?>
<!DOCTYPE svg PUBLIC "-//W3C//DTD SVG 1.1//EN" "http://www.w3.org/Graphics/SVG/1.1/DTD/svg11.dtd" >
<svg xmlns="http://www.w3.org/2000/svg" xmlns:xlink="http://www.w3.org/1999/xlink" version="1.1" viewBox="-10 0 1010 1000">
   <path fill="currentColor"
d="M86 917l-43 -18c16 -52 32 -139 40 -197l41 14c-9 60 -21 147 -38 201zM138 718l36 -3c9 52 12 118 9 160l-39 4c4 -42 1 -109 -6 -161zM297 190h-158v66h158v-66zM139 373h158v-67h-158v67zM139 427v58h236v56h-236v59h233s0 17 -1 26c-12 206 -23 280 -45 305
c-14 16 -29 22 -50 24c-17 1 -47 1 -77 -1c-1 -15 -7 -36 -15 -50c31 3 57 3 70 3c11 1 18 -1 25 -10c8 -11 16 -40 23 -103l-23 10c-7 -28 -26 -72 -42 -104l28 -10c15 27 30 59 39 85c3 -32 6 -71 9 -118h-234v-521h73c11 -30 21 -67 26 -93l67 12c-11 28 -23 56 -34 81
h143v291h-215zM190 712l34 -6c14 43 27 100 30 136l-33 8c-3 -37 -16 -94 -31 -138zM685 142v63h-303v-63h124c-10 -27 -24 -58 -39 -82l57 -19c19 31 39 71 49 101h112zM689 736l-120 16v128c0 33 -5 50 -28 61c-21 11 -54 11 -100 11c-2 -19 -10 -43 -18 -61
c33 1 61 1 71 0c10 0 12 -3 12 -11v-120c-41 6 -79 11 -114 15l-8 -64c34 -3 76 -8 122 -13v-56c19 -15 39 -34 58 -54h-159v-59h215l14 -4l41 33c-32 34 -70 68 -106 97v35l118 -13zM857 288h-92l-6 21c9 92 22 198 49 297c25 -92 41 -199 49 -318zM597 417v-101h-133v101
h133zM952 288h-35c-13 159 -35 298 -78 415c31 77 72 145 130 196c-14 12 -38 41 -47 58c-49 -49 -87 -111 -115 -178c-35 70 -80 130 -138 179c-10 -13 -32 -33 -46 -43c68 -57 117 -130 154 -218c-29 -91 -45 -186 -55 -270c-12 32 -26 62 -41 88c-5 -10 -20 -31 -32 -47
h-240v-204h245v167c48 -102 76 -244 91 -388l63 10c-8 57 -17 114 -28 169h172v66z" />
</svg>
