<?xml version="1.0" standalone="no"?>
<!DOCTYPE svg PUBLIC "-//W3C//DTD SVG 1.1//EN" "http://www.w3.org/Graphics/SVG/1.1/DTD/svg11.dtd" >
<svg xmlns="http://www.w3.org/2000/svg" xmlns:xlink="http://www.w3.org/1999/xlink" version="1.1" viewBox="-10 0 1010 1000">
   <path fill="currentColor"
d="M473 58l57 19c-28 50 -59 104 -86 141l-47 -19c25 -38 58 -100 76 -141zM203 196l-52 24c-11 -38 -40 -96 -67 -139l50 -19c28 41 58 97 69 134zM537 715h-164c53 38 110 84 141 117l-43 44c-31 -33 -86 -80 -139 -121v197h-63v-191c-53 66 -125 126 -192 160
c-11 -17 -30 -42 -45 -55c73 -29 154 -88 207 -151h-186v-61h216v-76h-173v-57h173v-73h-197v-59h123c-8 -28 -24 -64 -41 -92l56 -13c21 32 41 77 47 105h87c15 -33 34 -76 46 -106h-335v-60h165v-176h57v176h51v-176h56v176h148v60h-137l59 14c-15 32 -31 65 -47 92h118
v59h-193v73h167v57h-167v76h205v61zM547 925l-53 -26c26 -53 52 -138 66 -197l49 23c-16 59 -38 146 -62 200zM633 730l41 -7c12 51 20 118 22 163l-46 6c0 -43 -7 -110 -17 -162zM834 190h-217v66h217v-66zM617 373h217v-68h-217v68zM960 540h-343v60h328s-1 20 -2 29
c-13 201 -25 276 -48 303c-15 17 -31 24 -54 25c-20 2 -56 2 -93 -1c-1 -17 -8 -41 -16 -57c37 4 71 5 83 5c14 0 22 -2 29 -10c10 -12 18 -41 25 -103l-33 17c-11 -29 -34 -75 -57 -107l36 -16c21 28 43 65 56 94c3 -33 6 -73 9 -122h-325v-521h103c11 -30 22 -68 28 -95
l69 14c-11 28 -23 56 -34 81h174v291h-278v58h343v55zM790 845l-41 13c-6 -37 -23 -95 -41 -138l38 -11c20 42 38 99 44 136z" />
</svg>
