<?xml version="1.0" standalone="no"?>
<!DOCTYPE svg PUBLIC "-//W3C//DTD SVG 1.1//EN" "http://www.w3.org/Graphics/SVG/1.1/DTD/svg11.dtd" >
<svg xmlns="http://www.w3.org/2000/svg" xmlns:xlink="http://www.w3.org/1999/xlink" version="1.1" viewBox="-10 0 1010 1000">
   <path fill="currentColor"
d="M807 136v-35h-313v35h313zM807 204v-34h-313v34h313zM874 66v173h-444v-173h444zM130 960l-54 -36c33 -23 67 -65 87 -99l54 30c-23 35 -53 78 -87 105zM291 851l56 -16c17 30 32 70 36 96l-59 18c-5 -26 -19 -67 -33 -98zM449 853l51 -21c21 29 43 67 52 92l-54 24
c-8 -26 -30 -66 -49 -95zM609 848l49 -22c20 24 43 56 54 78l-51 25c-11 -23 -32 -57 -52 -81zM745 544h-490v33h490v-33zM255 646h490v-32h-490v32zM941 755h-686v30h648s-1 17 -3 26c-14 79 -28 114 -47 131c-16 11 -34 16 -53 16c-18 0 -50 0 -84 -3
c-1 -12 -7 -31 -14 -44c30 3 58 4 68 4c12 0 18 -1 25 -7c11 -9 22 -34 31 -84h-641v-318h252c6 -12 12 -25 16 -35c-11 -7 -24 -13 -32 -17c47 -20 93 -45 126 -75h-85c-23 15 -49 30 -78 42c-9 -11 -29 -24 -43 -30c56 -23 101 -51 135 -79h-95l-37 52
c-12 -17 -36 -47 -60 -74v200h-66v-217c-31 68 -74 136 -114 176c-10 -15 -33 -37 -48 -49c47 -39 100 -115 134 -186h-125v-55h153v-105h66v105h114v55h-114v5c24 20 70 60 91 79v-27h559v41h-389c-10 10 -21 20 -31 29h408s-1 13 -3 21c-11 68 -23 100 -39 114
c-13 10 -28 14 -46 15c-15 1 -46 0 -78 -1c-1 -13 -6 -30 -13 -42c28 3 52 3 62 3c11 0 18 -1 23 -6c9 -8 16 -27 24 -66h-90c-30 47 -78 90 -123 118c-12 -7 -37 -17 -53 -22c44 -25 86 -59 112 -96h-81c-31 32 -73 62 -115 85l36 5c-8 13 -15 26 -23 37h300v178h-560v31
h686v40z" />
</svg>
