<?xml version="1.0" standalone="no"?>
<!DOCTYPE svg PUBLIC "-//W3C//DTD SVG 1.1//EN" "http://www.w3.org/Graphics/SVG/1.1/DTD/svg11.dtd" >
<svg xmlns="http://www.w3.org/2000/svg" xmlns:xlink="http://www.w3.org/1999/xlink" version="1.1" viewBox="-10 0 1010 1000">
   <path fill="currentColor"
d="M695 384v-48h-135v48h135zM695 478v-51h-135v51h135zM695 574v-52h-135v52h135zM532 204l42 12v-50h-132v-59h132v-63h62v63h129v-63h64v63h118v59h-118v53h-64v-53h-129v53h-52l7 2c-7 22 -16 45 -26 66h138c-11 -21 -26 -45 -39 -64l50 -19c20 25 41 59 51 83h165v49
h-174v48h143v43h-143v51h143v44h-143v52h184v50h-380v29h-61v-246c-13 18 -25 35 -39 49c-7 -13 -26 -44 -38 -57c48 -48 88 -121 110 -195zM72 932l-48 -19c17 -51 32 -135 39 -192l46 15c-8 59 -20 143 -37 196zM140 723l42 -6c9 52 17 117 18 161l-44 7
c-1 -44 -8 -111 -16 -162zM335 190h-213v66h213v-66zM122 372h213v-67h-213v67zM122 600h321s-1 19 -1 29c-12 203 -23 277 -45 303c-14 17 -28 23 -50 24c-18 1 -50 2 -83 0c-1 -17 -6 -39 -14 -54c32 3 60 3 73 3c12 0 19 -1 26 -10c9 -12 16 -42 23 -109l-26 13
c-12 -28 -36 -72 -56 -105l36 -14c17 25 36 57 48 83c3 -30 6 -64 8 -105h-321v-522h112c10 -30 20 -67 26 -93l72 14c-11 27 -23 54 -34 79h160v290h-275v59h331v55h-331v60zM299 836l-41 13c-8 -37 -25 -93 -41 -136l40 -9c16 42 34 97 42 132zM830 723h-236
c28 35 69 66 115 92c48 -25 90 -56 121 -92zM886 665l42 23c-35 65 -89 117 -153 158c57 24 121 42 188 52c-15 14 -33 41 -41 59c-77 -14 -150 -40 -215 -73c-75 35 -158 59 -241 74c-6 -17 -20 -45 -32 -60c72 -9 144 -27 209 -53c-46 -32 -85 -69 -115 -112l30 -10h-79
v-55h396z" />
</svg>
