<?xml version="1.0" standalone="no"?>
<!DOCTYPE svg PUBLIC "-//W3C//DTD SVG 1.1//EN" "http://www.w3.org/Graphics/SVG/1.1/DTD/svg11.dtd" >
<svg xmlns="http://www.w3.org/2000/svg" xmlns:xlink="http://www.w3.org/1999/xlink" version="1.1" viewBox="-10 0 1010 1000">
   <path fill="currentColor"
d="M852 486h-194c-89 0 -119 -11 -119 -67v-214h282v-28h-282v-134h68v37h320v36h-320v25h282v99h-282v27h261v33h-261v27h257v32h-257v27h269v33h-269c0 24 10 28 57 28h179c32 0 40 -7 44 -50c15 8 37 12 54 15c-5 58 -25 74 -89 74zM361 134h-161c12 16 21 36 26 52h111
c9 -17 18 -37 24 -52zM514 186v39h-458v-39h111c-6 -14 -13 -30 -21 -42l36 -10h-99v-38h177c-8 -16 -17 -32 -26 -46l61 -11c13 17 24 38 33 57h157v38h-102l38 11c-8 15 -16 28 -25 41h118zM129 960l-54 -35c34 -23 67 -63 88 -94l55 28c-24 34 -54 75 -89 101zM290 852
l57 -14c17 28 32 67 36 92l-60 19c-4 -26 -18 -66 -33 -97zM449 855l51 -20c21 27 43 65 52 89l-54 24c-8 -26 -30 -65 -49 -93zM609 851l49 -22c20 23 43 54 54 75l-51 25c-11 -23 -32 -55 -52 -78zM745 555h-490v30h490v-30zM255 653h490v-32h-490v32zM181 387h211v-30
h-211v30zM392 293h-211v29h211v-29zM255 691v29h686v40h-686v29h648s-1 17 -3 25c-14 77 -27 112 -47 128c-16 11 -33 15 -53 15c-18 1 -50 1 -84 -2c-1 -12 -7 -30 -14 -43c30 3 58 4 69 3c11 0 17 0 24 -6c11 -9 22 -34 31 -82h-641v-309h241c5 -10 10 -21 15 -31
c-3 1 -6 3 -10 4c-18 6 -51 6 -98 6c-2 -12 -8 -25 -15 -37c27 2 54 2 62 1c9 0 12 -3 12 -10v-29h-211v77h-65v-244h341v195c0 7 0 12 -1 17l74 10c-9 15 -18 29 -27 41h312v173h-560z" />
</svg>
