<?xml version="1.0" standalone="no"?>
<!DOCTYPE svg PUBLIC "-//W3C//DTD SVG 1.1//EN" "http://www.w3.org/Graphics/SVG/1.1/DTD/svg11.dtd" >
<svg xmlns="http://www.w3.org/2000/svg" xmlns:xlink="http://www.w3.org/1999/xlink" version="1.1" viewBox="-10 0 1010 1000">
   <path fill="currentColor"
d="M128 248v79h-57v-132h216v-57h-183v-57h428v57h-186v57h212v132h-58v22h-121v-46h120v-55h-153v210h-59v-210h-159zM379 444v-46h142v46h-142zM109 442v-46h149v46h-149zM134 301h118v46h-118v-46zM217 616v23c24 26 76 92 89 109l-29 50c-11 -20 -36 -61 -60 -94v239
h-58v-230c-26 59 -60 114 -93 148c-6 -16 -19 -40 -28 -55c44 -41 91 -118 118 -190h-99v-56h102v-87h58v87h83v56h-83zM492 550h-120v67h120v-67zM372 734h120v-66h-120v66zM372 853h120v-68h-120v68zM317 945v-449h232v445h-57v-36h-120v40h-55zM601 922l-50 -26
c22 -52 43 -135 55 -192l47 24c-13 56 -32 141 -52 194zM669 729l38 -6c11 49 19 115 20 157l-42 9c0 -43 -7 -109 -16 -160zM841 190h-188v66h188v-66zM653 373h188v-68h-188v68zM952 540h-299v60h295s-1 20 -2 29c-11 198 -22 272 -42 299c-14 17 -28 23 -49 25
c-17 1 -49 2 -82 -1c-1 -18 -7 -42 -14 -57c33 4 63 4 75 4s19 -2 25 -10c9 -11 16 -39 22 -95l-34 17c-9 -30 -28 -76 -48 -110l33 -15c19 33 39 74 50 103c4 -33 7 -76 10 -132h-296v-521h96c10 -30 21 -68 27 -95l62 14c-10 28 -21 56 -32 81h149v291h-245v58h299v55z
M808 838l-38 14c-6 -35 -22 -90 -37 -132l36 -11c17 41 33 95 39 129z" />
</svg>
