<?xml version="1.0" standalone="no"?>
<!DOCTYPE svg PUBLIC "-//W3C//DTD SVG 1.1//EN" "http://www.w3.org/Graphics/SVG/1.1/DTD/svg11.dtd" >
<svg xmlns="http://www.w3.org/2000/svg" xmlns:xlink="http://www.w3.org/1999/xlink" version="1.1" viewBox="-10 0 1010 1000">
   <path fill="currentColor"
d="M181 252h262c-45 -40 -99 -87 -149 -126c-32 44 -71 88 -113 126zM162 308v-40c-32 28 -66 54 -102 74c-5 -14 -17 -42 -27 -56c99 -60 198 -158 245 -247l60 22c-4 5 -8 12 -12 18c78 59 175 137 224 186l-44 47c-15 -15 -33 -32 -54 -52v48h-290zM432 399v94h49v-94
h-49zM395 535v-178h124v178h-124zM277 402v93h50v-93h-50zM365 537h-124v-178h124v178zM127 402v93h47v-93h-47zM91 537v-178h119v178h-119zM389 741h74v-103h-74v103zM267 741h72v-103h-72v103zM149 741h68v-103h-68v103zM521 581v307c18 -54 36 -131 46 -183l47 20
c-12 57 -30 145 -48 200l-45 -21c-2 19 -7 30 -22 40c-16 10 -41 11 -73 11c-2 -17 -11 -40 -19 -56c22 1 41 1 48 0c6 0 8 -3 8 -10v-95h-74v149h-50v-149h-72v149h-50v-149h-68v162h-58v-375h430zM629 730l41 -7c13 51 21 119 22 163l-44 7c0 -43 -8 -111 -19 -163z
M703 719l38 -10c20 43 38 99 45 135l-41 14c-6 -38 -25 -95 -42 -139zM863 795l-39 19c-10 -32 -31 -78 -52 -113l36 -15c22 33 45 80 55 109zM841 190h-199v65h199v-65zM642 373h199v-68h-199v68zM957 541h-315v58h302s0 19 -1 28c-10 204 -20 279 -43 305
c-14 17 -29 22 -52 24c-21 2 -59 2 -97 -1c-1 -17 -7 -40 -16 -56c37 4 72 5 85 5c14 0 22 -2 29 -11c14 -16 23 -76 32 -236h-305v-521h102c12 -29 23 -67 29 -93l76 14c-13 28 -25 55 -36 79h160v291h-265v56h315v58z" />
</svg>
