<?xml version="1.0" standalone="no"?>
<!DOCTYPE svg PUBLIC "-//W3C//DTD SVG 1.1//EN" "http://www.w3.org/Graphics/SVG/1.1/DTD/svg11.dtd" >
<svg xmlns="http://www.w3.org/2000/svg" xmlns:xlink="http://www.w3.org/1999/xlink" version="1.1" viewBox="-10 0 1010 1000">
   <path fill="currentColor"
d="M460 180v-52h-103v52h103zM460 276v-53h-103v53h103zM460 375v-55h-103v55h103zM511 84v335h-203v-335h203zM225 179v-52h-100v52h100zM225 276v-53h-100v53h100zM225 374v-55h-100v55h100zM276 83v335h-200v-335h200zM174 791v68h125v-68h-125zM299 623v-62h-125v62h125
zM299 740v-66h-125v66h125zM359 791v68h139v56h-324v37h-60v-320c-15 20 -30 39 -47 56c-6 -13 -24 -45 -35 -59c53 -52 98 -128 123 -209l58 17c-8 23 -17 46 -26 68h121c-8 -22 -21 -48 -35 -67l53 -18c19 25 36 59 45 85h132v56h-144v62h122v51h-122v66h122v51h-122z
M553 925l-50 -26c21 -53 42 -139 53 -197l47 22c-13 58 -31 146 -50 201zM630 729l40 -7c10 51 19 119 19 164l-42 6c0 -43 -7 -111 -17 -163zM707 719l36 -11c18 43 35 100 41 137l-39 13c-5 -37 -22 -95 -38 -139zM866 788l-36 20c-10 -30 -33 -75 -53 -107l33 -16
c22 31 46 75 56 103zM833 190h-222v66h222v-66zM611 373h222v-68h-222v68zM960 540h-349v60h330s0 20 -1 29c-13 201 -25 275 -47 303c-14 17 -29 24 -50 25c-18 2 -51 2 -84 -1c-1 -17 -7 -41 -15 -57c33 4 64 5 76 5c13 0 20 -2 27 -11c15 -17 26 -80 36 -235h-332v-58h1
v-464h109c11 -30 21 -68 26 -95l66 14c-11 28 -22 56 -32 81h171v291h-281v58h349v55z" />
</svg>
