<?xml version="1.0" standalone="no"?>
<!DOCTYPE svg PUBLIC "-//W3C//DTD SVG 1.1//EN" "http://www.w3.org/Graphics/SVG/1.1/DTD/svg11.dtd" >
<svg xmlns="http://www.w3.org/2000/svg" xmlns:xlink="http://www.w3.org/1999/xlink" version="1.1" viewBox="-10 0 1010 1000">
   <path fill="currentColor"
d="M375 640l61 -52c6 19 16 43 24 56c-118 105 -139 124 -149 140c-7 -14 -26 -42 -38 -54c15 -11 37 -42 37 -88v-325h-88c-7 274 -31 472 -135 600c-9 -15 -34 -38 -51 -49c94 -115 115 -297 120 -551h-98v-67h99c1 -61 1 -126 1 -194h66c0 68 0 133 -1 194h152v390z
M796 698v59h-351v-59h351zM886 538h41s-1 22 -2 31c-13 228 -26 311 -53 340c-17 20 -37 26 -65 28c-25 2 -72 2 -119 -1c-1 -18 -8 -43 -17 -59c47 4 91 4 108 4c16 0 25 -1 34 -10c18 -19 30 -91 41 -268h-370v-470h99c16 -30 31 -66 39 -92l73 14c-15 26 -30 53 -44 78
h233v30c-7 196 -15 265 -35 290c-14 17 -31 24 -55 25c-21 3 -60 2 -98 0c-2 -17 -8 -42 -18 -58c38 3 72 4 86 4c13 0 21 -2 28 -10c11 -14 17 -69 23 -215h-262v338h333v1zM759 344l-43 40c-26 -28 -76 -77 -116 -110l41 -35c42 34 92 78 118 105z" />
</svg>
