<?xml version="1.0" standalone="no"?>
<!DOCTYPE svg PUBLIC "-//W3C//DTD SVG 1.1//EN" "http://www.w3.org/Graphics/SVG/1.1/DTD/svg11.dtd" >
<svg xmlns="http://www.w3.org/2000/svg" xmlns:xlink="http://www.w3.org/1999/xlink" version="1.1" viewBox="-10 0 1010 1000">
   <path fill="currentColor"
d="M189 368h178v-189h-178v189zM438 492h-71v-55h-178c-1 143 -14 335 -89 467c-14 -11 -47 -26 -65 -32c75 -130 82 -313 82 -450v-312h321v382zM799 678v65h-364v-65h364zM570 529h359s0 22 -1 31c-10 246 -19 332 -43 361c-16 20 -34 27 -60 29c-22 2 -59 2 -96 0
c-1 -20 -9 -46 -19 -64c38 4 72 4 87 4c14 0 22 -2 30 -11c15 -18 24 -93 32 -288h-359v-466h99c13 -31 25 -68 32 -95l70 14c-12 27 -24 56 -37 81h205s0 20 -1 30c-7 191 -14 261 -32 285c-13 17 -29 23 -51 25c-17 2 -49 2 -80 1c-1 -19 -8 -44 -17 -61c31 4 56 4 68 4
c11 0 18 -2 23 -10c11 -13 18 -67 23 -211h-232v341zM597 259l35 -37c43 32 94 76 121 104l-39 43c-26 -29 -77 -77 -117 -110z" />
</svg>
