<?xml version="1.0" standalone="no"?>
<!DOCTYPE svg PUBLIC "-//W3C//DTD SVG 1.1//EN" "http://www.w3.org/Graphics/SVG/1.1/DTD/svg11.dtd" >
<svg xmlns="http://www.w3.org/2000/svg" xmlns:xlink="http://www.w3.org/1999/xlink" version="1.1" viewBox="-10 0 1010 1000">
   <path fill="currentColor"
d="M296 468v132h158v68h-158v283h-72v-283h-174v-68h174v-132h72zM218 366h131c34 0 40 -16 43 -119c16 11 43 21 62 26c-7 123 -27 154 -98 154h-145c-84 0 -107 -20 -107 -92v-273h70v140c81 -29 164 -63 213 -97l53 47c-71 42 -173 79 -266 107v76c0 27 6 31 44 31z
M821 703v64h-360v-64h360zM574 541h358s0 21 -1 30c-9 234 -18 316 -42 344c-16 19 -35 26 -61 28c-25 2 -72 1 -118 -1c-2 -18 -9 -42 -19 -59c47 4 91 5 108 5c16 0 24 -1 32 -11c15 -18 24 -88 30 -277h-355v-463h119c14 -31 29 -70 37 -97l74 11c-14 29 -29 60 -45 86
h129v-1h67s0 20 -1 29c-8 189 -17 260 -37 283c-14 17 -30 24 -54 26c-20 1 -56 2 -94 0c-1 -18 -7 -42 -16 -57c35 3 67 3 79 3c13 0 21 -1 28 -10c12 -15 20 -70 26 -215h-244v346zM600 269l42 -32c37 29 82 72 105 100l-45 37c-21 -30 -65 -74 -102 -105z" />
</svg>
