<?xml version="1.0" standalone="no"?>
<!DOCTYPE svg PUBLIC "-//W3C//DTD SVG 1.1//EN" "http://www.w3.org/Graphics/SVG/1.1/DTD/svg11.dtd" >
<svg xmlns="http://www.w3.org/2000/svg" xmlns:xlink="http://www.w3.org/1999/xlink" version="1.1" viewBox="-10 0 1010 1000">
   <path fill="currentColor"
d="M138 606l63 14c-22 81 -58 181 -100 247c-14 -8 -40 -21 -56 -27c43 -64 76 -161 93 -234zM471 533h-140v334c0 39 -7 58 -33 69c-24 12 -65 14 -126 14c-2 -19 -12 -48 -22 -69c46 2 86 2 98 2c13 -1 17 -5 17 -17v-333h-101c-39 0 -70 5 -78 13c-4 -14 -15 -47 -24 -65
c18 -4 32 -35 50 -79c10 -25 34 -89 57 -167h-120v-69h139c9 -39 18 -79 25 -119l73 9c-8 36 -18 74 -28 110h219v69h-239c-27 85 -57 166 -89 234h116v-149h66v149h140v64zM362 614l55 -18c32 72 69 167 85 222l-59 23c-16 -57 -50 -155 -81 -227zM815 695v63h-283v-63h283
zM603 532h329s0 22 -1 31c-11 237 -22 323 -48 353c-18 20 -38 27 -66 29c-27 2 -74 2 -123 0c-1 -21 -9 -48 -21 -66c50 4 98 4 116 4c17 0 26 -1 35 -10c17 -19 28 -92 38 -278h-328v-458h113c11 -32 23 -71 28 -98l72 13c-12 29 -25 59 -36 85h141v1h44s-1 19 -1 29
c-7 191 -14 260 -33 284c-14 16 -30 23 -55 25c-19 1 -57 1 -94 -1c-2 -17 -8 -41 -17 -57c36 4 69 4 83 4c13 0 20 -1 27 -10c11 -14 18 -68 23 -212h-226v332zM630 263l43 -31c38 35 84 80 108 109l-44 37c-24 -30 -70 -79 -107 -115z" />
</svg>
