<?xml version="1.0" standalone="no"?>
<!DOCTYPE svg PUBLIC "-//W3C//DTD SVG 1.1//EN" "http://www.w3.org/Graphics/SVG/1.1/DTD/svg11.dtd" >
<svg xmlns="http://www.w3.org/2000/svg" xmlns:xlink="http://www.w3.org/1999/xlink" version="1.1" viewBox="-10 0 1010 1000">
   <path fill="currentColor"
d="M366 296v-150h-204v150h204zM433 90v262h-336v-262h336zM187 594h245s-1 21 -2 30c-16 198 -31 275 -58 303c-18 18 -36 24 -65 27c-22 1 -64 1 -107 -1c-2 -20 -10 -47 -20 -65c43 4 86 5 104 5c14 0 24 -1 33 -10c18 -17 31 -79 44 -229h-257c13 -43 27 -105 38 -161
h-98v-65h440v65h-277c-6 34 -14 70 -20 101zM829 691v64h-364v-64h364zM587 538h364s-1 22 -2 31c-14 237 -29 324 -56 354c-18 20 -36 27 -63 29c-24 2 -68 1 -112 -2c-1 -18 -9 -45 -19 -62c45 4 86 4 103 4c15 0 25 -1 33 -11c19 -19 32 -94 44 -281h-360v-467h102
c14 -31 27 -68 35 -95l74 14c-13 28 -27 56 -41 81h220s-1 20 -1 30c-8 197 -16 268 -36 293c-13 17 -29 24 -54 25c-19 3 -57 2 -95 0c-1 -18 -8 -43 -17 -60c37 4 70 4 83 4c14 0 21 -1 27 -9c12 -14 19 -71 25 -221h-254v343zM630 267l41 -35c43 36 94 84 120 113l-44 39
c-26 -30 -77 -82 -117 -117z" />
</svg>
