<?xml version="1.0" standalone="no"?>
<!DOCTYPE svg PUBLIC "-//W3C//DTD SVG 1.1//EN" "http://www.w3.org/Graphics/SVG/1.1/DTD/svg11.dtd" >
<svg xmlns="http://www.w3.org/2000/svg" xmlns:xlink="http://www.w3.org/1999/xlink" version="1.1" viewBox="-10 0 1010 1000">
   <path fill="currentColor"
d="M735 756v61h-667v-61h667zM269 637h647s-1 21 -1 30c-10 165 -21 231 -45 255c-17 19 -37 25 -67 26c-27 3 -80 2 -136 -1c-2 -20 -9 -46 -21 -64c56 6 111 6 130 6c18 0 29 -1 37 -9c15 -14 25 -63 33 -181h-641v-332h215c16 -26 35 -57 46 -79l61 18
c-12 22 -26 42 -39 61h308s0 17 -2 27c-8 113 -16 160 -34 178c-13 13 -28 19 -51 20c-19 1 -55 2 -92 -1c0 -16 -7 -38 -15 -53c36 4 70 4 83 4s20 0 26 -7c9 -10 16 -40 22 -111h-464v213zM583 540l-36 45c-39 -28 -118 -72 -179 -101l34 -40c61 27 140 68 181 96z
M747 213h172v190h-72v-129h-688v129h-69v-190h158c-21 -35 -58 -83 -93 -119l62 -28c40 37 84 91 104 127l-40 20h207c-14 -39 -48 -99 -80 -144l63 -23c33 44 69 104 84 143l-64 24h175c39 -47 83 -114 107 -162l77 26c-31 45 -69 95 -103 136z" />
</svg>
