<?xml version="1.0" standalone="no"?>
<!DOCTYPE svg PUBLIC "-//W3C//DTD SVG 1.1//EN" "http://www.w3.org/Graphics/SVG/1.1/DTD/svg11.dtd" >
<svg xmlns="http://www.w3.org/2000/svg" xmlns:xlink="http://www.w3.org/1999/xlink" version="1.1" viewBox="-10 0 1010 1000">
   <path fill="currentColor"
d="M660 282l224 -18c-3 15 -5 39 -5 51c-288 26 -322 32 -343 42c-3 -14 -13 -46 -19 -63c21 -2 48 -14 81 -33c15 -9 49 -29 89 -55c-124 8 -146 12 -160 17c-3 -13 -11 -44 -19 -61c14 -1 30 -9 48 -22c17 -11 80 -59 121 -108l58 29c-39 37 -84 73 -127 102l152 -8
c27 -21 56 -43 80 -66l49 42c-70 56 -149 108 -229 151zM245 282l224 -17c-3 14 -5 38 -5 50c-289 27 -324 33 -344 42c-3 -13 -12 -45 -19 -62c21 -3 48 -15 81 -34c16 -9 49 -29 90 -55c-126 8 -148 12 -160 17c-4 -13 -13 -43 -21 -60c15 -2 31 -10 48 -22
c18 -12 81 -59 122 -109l58 29c-39 38 -84 73 -128 102l151 -7c29 -21 57 -44 82 -67l49 42c-71 56 -148 108 -228 151zM264 695h654s-1 18 -2 27c-10 129 -21 182 -42 203c-16 14 -35 20 -63 21c-27 2 -79 1 -133 -3c-1 -14 -7 -36 -16 -51c52 5 104 6 120 6
c18 0 29 -1 36 -9c13 -12 21 -50 29 -141h-651v-250h203c16 -21 32 -43 42 -60l67 21c-11 14 -21 27 -32 39h322s0 17 -2 26c-5 77 -12 111 -29 126c-12 12 -29 17 -52 17c-18 2 -57 1 -96 -1c-1 -14 -7 -34 -14 -47c37 4 71 4 83 4c13 0 19 -1 25 -7c7 -7 11 -25 15 -66
h-464v145zM722 806v50h-666v-50h666zM557 632l-34 43c-41 -22 -123 -56 -185 -76l34 -38c61 17 141 49 185 71zM55 381h888v55h-888v-55z" />
</svg>
