<?xml version="1.0" standalone="no"?>
<!DOCTYPE svg PUBLIC "-//W3C//DTD SVG 1.1//EN" "http://www.w3.org/Graphics/SVG/1.1/DTD/svg11.dtd" >
<svg xmlns="http://www.w3.org/2000/svg" xmlns:xlink="http://www.w3.org/1999/xlink" version="1.1" viewBox="-10 0 1010 1000">
   <path fill="currentColor"
d="M53 165v-67h472v67h-206c-12 40 -25 81 -36 117h219v602c0 29 -6 44 -25 53c-18 9 -46 11 -86 11c-2 -16 -10 -37 -18 -53c26 2 51 1 58 1c9 0 12 -3 12 -11v-539h-70v526h-48v-526h-67v543h-48v-543h-73v611h-60v-675h137c11 -36 21 -79 29 -117h-190zM821 689v60h-280
v-60h280zM936 535v30c-10 245 -20 330 -43 359c-16 19 -34 26 -60 27c-24 3 -65 2 -106 0c-1 -18 -8 -43 -19 -59c44 4 84 4 99 4s24 -2 32 -11c15 -18 24 -93 32 -289h-302v-463h95c13 -31 26 -70 33 -97l68 13c-12 28 -26 59 -38 84h175s0 19 -1 29
c-6 192 -13 262 -33 286c-13 16 -28 22 -52 24c-19 2 -55 2 -92 0c-1 -17 -7 -41 -15 -56c35 3 67 3 80 3s20 -1 26 -9c12 -14 19 -69 23 -215h-205v340h303zM651 264l39 -31c36 33 80 78 102 105l-42 37c-23 -30 -65 -78 -99 -111z" />
</svg>
