<?xml version="1.0" standalone="no"?>
<!DOCTYPE svg PUBLIC "-//W3C//DTD SVG 1.1//EN" "http://www.w3.org/Graphics/SVG/1.1/DTD/svg11.dtd" >
<svg xmlns="http://www.w3.org/2000/svg" xmlns:xlink="http://www.w3.org/1999/xlink" version="1.1" viewBox="-10 0 1010 1000">
   <path fill="currentColor"
d="M385 817v-200h-228v200h228zM309 154v165h186v67h-186v165h145v333h-297v55h-71v-388h151v-165h-195v-67h195v-150c-54 9 -109 18 -160 24c-3 -17 -14 -42 -22 -59c123 -17 268 -46 346 -81l56 55c-42 17 -93 33 -148 46zM834 698v63h-338v-63h338zM607 546h329
s0 22 -1 31c-9 234 -18 319 -41 347c-16 20 -34 26 -60 28c-22 3 -63 2 -103 0c-1 -19 -9 -46 -19 -64c42 4 80 5 95 5c14 0 23 -1 30 -11c15 -18 24 -88 31 -274h-328v-466h108c14 -31 27 -70 35 -97l71 13c-14 29 -29 59 -41 84h184s0 20 -1 30c-6 197 -12 267 -31 291
c-12 18 -28 24 -51 26c-18 2 -52 2 -87 0c-2 -18 -8 -44 -16 -61c32 4 62 4 75 4c12 0 19 -1 24 -10c11 -13 17 -69 22 -218h-225v342zM793 343l-37 41c-27 -29 -77 -77 -116 -109l35 -35c42 33 92 76 118 103z" />
</svg>
