<?xml version="1.0" standalone="no"?>
<!DOCTYPE svg PUBLIC "-//W3C//DTD SVG 1.1//EN" "http://www.w3.org/Graphics/SVG/1.1/DTD/svg11.dtd" >
<svg xmlns="http://www.w3.org/2000/svg" xmlns:xlink="http://www.w3.org/1999/xlink" version="1.1" viewBox="-10 0 1010 1000">
   <path fill="currentColor"
d="M575 100v70h-526v-70h526zM289 258v624c0 29 -6 45 -24 54c-19 10 -46 11 -88 11c-2 -15 -10 -38 -18 -54c30 1 56 1 64 1c9 -1 12 -3 12 -13v-560h-108v634h-54v-697h216zM222 678l-40 12c-4 -57 -27 -142 -53 -207l37 -12c27 65 51 151 56 207zM550 257v621
c0 30 -5 46 -24 55c-18 11 -46 11 -89 11c-2 -15 -10 -38 -18 -54c31 1 57 1 66 1c8 -1 11 -3 11 -13v-559h-106v631h-55v-693h215zM491 671l-38 13c-8 -55 -32 -138 -59 -202l36 -10c29 62 53 146 61 199zM831 693v59h-261v-59h261zM937 547v29c-10 241 -19 324 -43 352
c-15 18 -32 24 -57 27c-22 1 -62 1 -102 -2c-1 -17 -7 -39 -16 -55c41 4 80 4 94 4s23 -1 31 -11c15 -17 24 -91 32 -284h-273v-465h86c11 -31 23 -69 29 -97l69 13c-11 28 -23 59 -35 84h155v28c-7 196 -13 266 -31 289c-12 17 -27 23 -51 25c-17 2 -52 2 -85 0
c-1 -17 -7 -40 -16 -56c34 4 63 4 76 4c12 0 19 -1 24 -10c12 -13 17 -69 22 -220h-181v345h272zM684 275l39 -31c35 32 77 74 97 100l-42 36c-20 -28 -61 -74 -94 -105z" />
</svg>
