<?xml version="1.0" standalone="no"?>
<!DOCTYPE svg PUBLIC "-//W3C//DTD SVG 1.1//EN" "http://www.w3.org/Graphics/SVG/1.1/DTD/svg11.dtd" >
<svg xmlns="http://www.w3.org/2000/svg" xmlns:xlink="http://www.w3.org/1999/xlink" version="1.1" viewBox="-10 0 1010 1000">
   <path fill="currentColor"
d="M395 636h-229v188h229v-188zM99 951v-382h367v373h-71v-52h-229v61h-67zM343 257v158h158v66h-454v-66h224v-158h-109c-15 46 -32 88 -51 122c-14 -7 -45 -20 -61 -25c42 -71 73 -179 91 -283l65 11c-7 36 -15 73 -24 108h89v-145h72v145h134v67h-134zM811 687v59h-309
v-59h309zM596 540h335s-1 22 -1 31c-10 242 -19 326 -43 356c-17 19 -34 26 -61 28c-24 2 -66 2 -107 0c-2 -19 -8 -45 -20 -62c43 4 84 4 99 4s24 -1 32 -10c16 -19 25 -93 32 -289h-330v-461h109c12 -31 23 -70 28 -98l74 13c-12 28 -25 59 -36 85h193s-1 19 -1 28
c-8 194 -16 264 -36 288c-15 17 -31 23 -57 25c-22 1 -62 1 -102 -1c-1 -17 -8 -40 -17 -55c41 3 80 4 95 4s23 -2 30 -10c12 -15 19 -73 25 -221h-241v345zM629 270l44 -35c37 34 80 78 102 105l-46 39c-23 -28 -65 -76 -100 -109z" />
</svg>
