<?xml version="1.0" standalone="no"?>
<!DOCTYPE svg PUBLIC "-//W3C//DTD SVG 1.1//EN" "http://www.w3.org/Graphics/SVG/1.1/DTD/svg11.dtd" >
<svg xmlns="http://www.w3.org/2000/svg" xmlns:xlink="http://www.w3.org/1999/xlink" version="1.1" viewBox="-10 0 1010 1000">
   <path fill="currentColor"
d="M512 238l-54 44c-29 -48 -95 -121 -147 -174l51 -38c52 51 118 123 150 168zM193 75l68 19c-37 93 -104 187 -170 245c-10 -13 -34 -42 -49 -55c61 -50 120 -128 151 -209zM174 537h271c-40 -49 -97 -110 -150 -161c-33 58 -74 114 -121 161zM203 810h192v-206h-192v206z
M513 516l-38 59l-12 -15v371h-68v-56h-192v64h-66v-366c-19 18 -38 34 -59 48c-12 -16 -33 -37 -50 -49c104 -68 198 -189 246 -311l67 22c-5 12 -10 24 -16 35c69 65 150 146 188 198zM815 687v59h-314v-59h314zM596 540h335s-1 22 -1 31c-10 242 -19 326 -43 356
c-17 19 -34 26 -61 28c-24 2 -66 2 -107 0c-2 -19 -8 -45 -20 -62c43 4 84 4 99 4s24 -1 32 -10c16 -19 25 -93 32 -289h-330v-461h109c12 -31 23 -70 28 -98l75 13c-12 29 -25 60 -36 85h192s-1 19 -1 28c-8 194 -16 264 -36 288c-15 17 -31 23 -57 25c-22 1 -62 1 -102 -1
c-1 -17 -8 -40 -17 -55c41 3 80 4 95 4s23 -2 30 -10c12 -15 19 -73 25 -221h-241v345zM629 270l44 -35c37 34 80 78 102 105l-46 39c-23 -28 -65 -76 -100 -109z" />
</svg>
