<?xml version="1.0" standalone="no"?>
<!DOCTYPE svg PUBLIC "-//W3C//DTD SVG 1.1//EN" "http://www.w3.org/Graphics/SVG/1.1/DTD/svg11.dtd" >
<svg xmlns="http://www.w3.org/2000/svg" xmlns:xlink="http://www.w3.org/1999/xlink" version="1.1" viewBox="-10 0 1010 1000">
   <path fill="currentColor"
d="M535 205l-51 24c-8 -36 -34 -90 -59 -129l47 -21c26 38 53 90 63 126zM301 111v63h-206v-63h206zM260 777l95 -24l7 62c-110 29 -224 60 -310 82l-15 -66l45 -10v-376h52v363l70 -17v-418h56v141h78v60h-78v203zM543 325h-122c6 286 25 519 79 537c10 3 20 -43 25 -100
c12 14 33 32 47 42c-18 111 -57 145 -103 116c-81 -31 -102 -283 -110 -595h-313v-64h311c-1 -70 -2 -141 -3 -214h64c0 72 0 144 1 214h124v64zM521 745v-58h314v58h-314zM939 543v30c-9 233 -19 314 -43 342c-16 20 -36 27 -63 29c-24 2 -67 2 -110 -1
c-1 -18 -9 -44 -20 -61c44 4 85 4 101 4s24 -1 31 -10c16 -18 24 -89 31 -276h-303v-460h96c15 -31 29 -69 37 -95l73 14c-13 27 -28 56 -42 81h176s-1 21 -1 30c-7 190 -14 260 -35 284c-13 17 -30 24 -54 27c-21 2 -58 2 -97 -1c-2 -18 -9 -43 -18 -60c36 4 70 4 82 4
c13 0 20 -2 27 -11c11 -14 17 -68 22 -215h-202v345h312zM648 267l47 -36c36 32 79 75 100 102l-49 41c-21 -28 -63 -75 -98 -107z" />
</svg>
