<?xml version="1.0" standalone="no"?>
<!DOCTYPE svg PUBLIC "-//W3C//DTD SVG 1.1//EN" "http://www.w3.org/Graphics/SVG/1.1/DTD/svg11.dtd" >
<svg xmlns="http://www.w3.org/2000/svg" xmlns:xlink="http://www.w3.org/1999/xlink" version="1.1" viewBox="-10 0 1010 1000">
   <path fill="currentColor"
d="M224 237v129h114v-129h-114zM514 366v65h-471v-65h113v-129h-95v-65h95v-121h68v121h114v-121h68v121h90v65h-90v129h108zM390 574h-214v103h214v-103zM176 849h214v-111h-214v111zM110 951v-440h349v438h-69v-37h-214v39h-66zM824 699v56h-333v-56h333zM621 543h315
s0 22 -1 31c-9 236 -19 318 -43 347c-17 19 -35 26 -63 28c-24 2 -67 2 -110 -1c-1 -18 -8 -43 -19 -60c44 4 85 4 101 4c15 0 23 -1 32 -11c15 -17 24 -90 32 -278h-314v-468h117c11 -31 21 -67 27 -94l71 13c-10 27 -22 56 -33 81h162s0 20 -1 30c-7 192 -15 262 -34 286
c-14 17 -31 24 -55 26c-21 2 -58 2 -96 0c-2 -18 -8 -43 -18 -59c37 3 71 3 83 3c14 0 21 -1 28 -10c11 -14 18 -70 23 -215h-204v347zM645 274l42 -34c36 33 80 76 102 102l-46 39c-22 -28 -64 -74 -98 -107z" />
</svg>
