<?xml version="1.0" standalone="no"?>
<!DOCTYPE svg PUBLIC "-//W3C//DTD SVG 1.1//EN" "http://www.w3.org/Graphics/SVG/1.1/DTD/svg11.dtd" >
<svg xmlns="http://www.w3.org/2000/svg" xmlns:xlink="http://www.w3.org/1999/xlink" version="1.1" viewBox="-10 0 1010 1000">
   <path fill="currentColor"
d="M302 513v-63h174v482h-65v-42h-274v63h-67v-477c56 -26 120 -61 159 -91l45 53c-41 25 -90 48 -137 69v132h120v62h-120v125h274v-125h-114v-62h114v-126h-109zM431 148l11 -3l43 32c-34 79 -92 175 -141 236c-11 -11 -33 -26 -47 -34c35 -44 72 -106 98 -163h-175
c-37 76 -80 145 -124 197c-12 -12 -38 -33 -53 -44c74 -77 138 -197 176 -320l60 20c-9 27 -19 54 -29 80h167v-1h14zM841 700v65h-341v-65h341zM602 540h347s-1 22 -2 32c-12 232 -25 318 -51 348c-18 20 -37 27 -65 29c-24 2 -70 2 -116 -1c-2 -20 -9 -47 -20 -66
c47 5 92 5 110 5c15 1 25 -1 33 -10c17 -19 30 -91 40 -273h-344v-469h100c15 -30 30 -67 38 -94l72 13c-14 27 -29 56 -43 81h212v30c-7 197 -15 269 -35 294c-14 16 -30 23 -55 25c-20 2 -57 2 -96 0c-2 -19 -7 -43 -16 -59c36 3 69 3 82 3c14 0 22 -1 28 -10
c12 -14 19 -70 24 -219h-243v341zM798 343l-44 37c-24 -27 -72 -73 -110 -105l41 -32c40 32 89 73 113 100z" />
</svg>
