<?xml version="1.0" standalone="no"?>
<!DOCTYPE svg PUBLIC "-//W3C//DTD SVG 1.1//EN" "http://www.w3.org/Graphics/SVG/1.1/DTD/svg11.dtd" >
<svg xmlns="http://www.w3.org/2000/svg" xmlns:xlink="http://www.w3.org/1999/xlink" version="1.1" viewBox="-10 0 1010 1000">
   <path fill="currentColor"
d="M94 625v-99h55v100c0 104 -8 229 -64 330c-11 -14 -32 -33 -47 -41c49 -91 56 -200 56 -290zM214 574l44 7c-11 110 -30 223 -61 297c-7 -7 -26 -20 -37 -26c30 -72 46 -176 54 -278zM346 580l41 -5c24 91 44 208 47 276l-44 9c-3 -70 -21 -190 -44 -280zM458 949v-424
h57v424h-57zM438 409v-79h-101v79h101zM337 187v83h101v-83h-101zM499 128v142h52v60h-52v138h-162v480h-59v-480h-161v-59h161v-79h-206v-60h206v-83h-156v-59h156v-78h59v78h162zM822 690v62h-256v-62h256zM932 547v30c-9 232 -19 314 -41 341c-15 20 -32 26 -57 28
c-21 2 -61 2 -100 0c-1 -18 -8 -44 -18 -61c40 4 77 4 91 4c15 0 23 -1 30 -10c14 -17 23 -88 30 -272h-271v-465h81c13 -31 27 -70 34 -97l67 13c-12 28 -27 59 -40 84h164s-1 19 -1 29c-6 197 -12 267 -31 291c-11 17 -27 23 -50 25c-17 2 -51 2 -86 -1
c-1 -17 -7 -41 -15 -58c33 4 62 4 75 4c12 0 19 -1 24 -10c11 -14 16 -69 21 -220h-181v345h274zM815 334l-37 40c-23 -27 -65 -71 -99 -101l36 -34c36 31 79 70 100 95z" />
</svg>
