<?xml version="1.0" standalone="no"?>
<!DOCTYPE svg PUBLIC "-//W3C//DTD SVG 1.1//EN" "http://www.w3.org/Graphics/SVG/1.1/DTD/svg11.dtd" >
<svg xmlns="http://www.w3.org/2000/svg" xmlns:xlink="http://www.w3.org/1999/xlink" version="1.1" viewBox="-10 0 1010 1000">
   <path fill="currentColor"
d="M436 471h-190v84h190v-84zM246 694h190v-85h-190v85zM246 837h190v-88h-190v88zM187 941v-530h310v530h-61v-45h-190v45h-59zM273 148h-118v132h118v-132zM442 280v-132h-108v132h108zM505 84v260h-350v122c0 147 -8 352 -66 489c-12 -11 -39 -28 -55 -33
c54 -131 59 -317 59 -456v-382h412zM834 692v59h-307v-59h307zM636 537h315s-1 21 -2 31c-15 236 -29 322 -56 352c-17 20 -35 26 -63 28c-23 2 -67 2 -110 -1c-2 -18 -8 -43 -18 -60c44 4 86 4 103 4c15 0 24 -1 33 -10c19 -19 33 -95 44 -282h-311v-467h91
c13 -31 27 -67 35 -94l72 14c-13 27 -28 55 -42 80h188v30c-8 197 -16 268 -36 293c-13 17 -29 23 -54 25c-19 2 -56 2 -94 0c-2 -18 -8 -43 -16 -59c36 3 69 4 82 4c14 0 21 -2 27 -10c12 -14 19 -71 25 -221h-213v343zM667 267l41 -34c39 34 85 78 107 105l-42 38
c-22 -28 -68 -76 -106 -109z" />
</svg>
