<?xml version="1.0" standalone="no"?>
<!DOCTYPE svg PUBLIC "-//W3C//DTD SVG 1.1//EN" "http://www.w3.org/Graphics/SVG/1.1/DTD/svg11.dtd" >
<svg xmlns="http://www.w3.org/2000/svg" xmlns:xlink="http://www.w3.org/1999/xlink" version="1.1" viewBox="-10 0 1010 1000">
   <path fill="currentColor"
d="M323 482v104h186v61h-186v194l93 -5v-149h63v245h-63v-33l-321 17v-231h62v163l100 -4v-197h-202v-61h202v-104h-92c-17 36 -36 68 -55 94c-14 -8 -40 -24 -56 -32c42 -49 73 -121 92 -193l-18 6c-7 -40 -28 -100 -51 -144l55 -19c24 44 47 103 55 142l-39 14l60 13
c-5 20 -11 39 -18 58h287v61h-154zM228 185l57 -14c21 49 42 113 49 155l-61 15c-5 -42 -25 -107 -45 -156zM411 385l-51 -21c30 -53 67 -141 87 -201l62 23c-30 67 -67 148 -98 199zM460 48l52 51c-113 39 -290 66 -439 83c-3 -16 -12 -38 -20 -53c145 -18 315 -47 407 -81
zM835 692v59h-320v-59h320zM628 538h323s-1 21 -2 31c-14 235 -28 322 -56 352c-17 20 -35 26 -63 28c-24 2 -69 1 -116 -1c-1 -19 -7 -44 -18 -60c47 4 91 4 109 4c15 0 25 -1 33 -11c20 -19 33 -94 45 -281h-323v-467h93c14 -31 27 -68 35 -95l70 14c-13 27 -26 56 -40 81
h198s0 20 -1 30c-7 197 -15 269 -35 294c-14 16 -30 23 -53 25c-20 2 -58 2 -95 -1c-1 -17 -7 -42 -17 -59c36 4 69 4 83 4c13 0 21 -1 28 -9c11 -15 18 -72 24 -222h-222v343zM660 267l40 -34c39 34 85 78 108 105l-43 38c-22 -28 -68 -76 -105 -109z" />
</svg>
