<?xml version="1.0" standalone="no"?>
<!DOCTYPE svg PUBLIC "-//W3C//DTD SVG 1.1//EN" "http://www.w3.org/Graphics/SVG/1.1/DTD/svg11.dtd" >
<svg xmlns="http://www.w3.org/2000/svg" xmlns:xlink="http://www.w3.org/1999/xlink" version="1.1" viewBox="-10 0 1010 1000">
   <path fill="currentColor"
d="M185 749v100h120v-100h-120zM305 536v-92h-120v92h120zM305 691v-97h-120v97h120zM368 749v100h141v61h-324v47h-62v-442c-16 18 -33 36 -51 53c-7 -16 -24 -49 -37 -63c81 -72 141 -175 183 -296h-82v103h-60v-162h160c9 -35 18 -72 25 -109l64 11c-7 33 -15 67 -24 98
h199v162h-62v-103h-154c-20 62 -44 120 -73 173h109c-11 -28 -25 -61 -36 -87l52 -19c17 34 35 77 46 106h117v62h-131v92h114v58h-114v97h115v58h-115zM825 700v62h-297v-62h297zM889 542h48s-1 21 -2 29c-9 239 -18 324 -42 353c-17 19 -34 26 -62 27c-25 3 -72 2 -119 -1
c-1 -18 -9 -43 -18 -60c48 4 93 5 110 5c16 0 25 -2 33 -11c16 -18 25 -91 32 -283h-311v-464h94c12 -30 24 -66 31 -91l68 13c-12 26 -25 53 -36 78h183s-1 19 -1 29c-7 191 -14 261 -33 285c-14 17 -29 23 -53 25c-19 2 -55 2 -92 0c-1 -18 -8 -42 -17 -58c36 3 68 3 81 3
s20 -1 27 -9c10 -14 17 -70 22 -215h-212v344h269v1zM635 267l40 -33c37 34 79 78 101 105l-43 35c-22 -28 -64 -75 -98 -107z" />
</svg>
