<?xml version="1.0" standalone="no"?>
<!DOCTYPE svg PUBLIC "-//W3C//DTD SVG 1.1//EN" "http://www.w3.org/Graphics/SVG/1.1/DTD/svg11.dtd" >
<svg xmlns="http://www.w3.org/2000/svg" xmlns:xlink="http://www.w3.org/1999/xlink" version="1.1" viewBox="-10 0 1010 1000">
   <path fill="currentColor"
d="M337 390l-28 -50c42 -19 99 -50 159 -81v-122h-154v-58h216v336h-62v-102c-46 28 -93 55 -131 77zM448 229l-34 37c-20 -22 -62 -55 -95 -75l33 -33c33 17 74 49 96 71zM86 398l-28 -50c41 -20 101 -53 163 -87v-124h-152v-58h212v330h-60v-92c-48 29 -95 57 -135 81z
M205 232l-36 34c-20 -22 -57 -53 -88 -74l35 -32c30 18 69 50 89 72zM465 716l58 27c-90 104 -256 173 -436 210c-8 -17 -22 -39 -36 -54c173 -29 335 -93 414 -183zM320 539l56 24c-66 63 -174 112 -274 143c-9 -14 -25 -34 -39 -45c94 -26 200 -70 257 -122zM397 626
l55 24c-77 78 -211 136 -341 169c-8 -15 -22 -35 -36 -47c123 -28 255 -81 322 -146zM303 395l53 22c-6 7 -12 14 -19 20c73 30 160 71 210 103l-32 56c-50 -35 -149 -83 -227 -117c-64 49 -144 93 -217 123c-3 -13 -17 -47 -24 -62c92 -32 198 -84 256 -145zM818 693v59
h-270v-59h270zM937 547v30c-10 234 -20 316 -44 345c-17 19 -36 26 -64 28c-26 1 -71 1 -115 -2c-2 -18 -9 -42 -20 -59c48 4 93 4 110 4c16 1 25 -1 34 -10c16 -17 25 -90 32 -276h-282v-465h101c11 -31 23 -70 29 -97l69 13c-12 28 -23 59 -35 84h155v28
c-7 196 -13 266 -31 289c-12 17 -27 23 -51 25c-17 2 -52 2 -85 0c-1 -17 -7 -40 -16 -56c34 4 63 4 76 4c12 0 19 -1 24 -10c12 -13 17 -69 22 -220h-196v345h287zM679 275l39 -31c36 32 78 74 99 100l-43 35c-21 -27 -62 -73 -95 -104z" />
</svg>
