<?xml version="1.0" standalone="no"?>
<!DOCTYPE svg PUBLIC "-//W3C//DTD SVG 1.1//EN" "http://www.w3.org/Graphics/SVG/1.1/DTD/svg11.dtd" >
<svg xmlns="http://www.w3.org/2000/svg" xmlns:xlink="http://www.w3.org/1999/xlink" version="1.1" viewBox="-10 0 1010 1000">
   <path fill="currentColor"
d="M917 108l-45 34c-20 -22 -59 -52 -93 -71l43 -30c35 18 75 46 95 67zM512 93v46h-447v-46h199c-7 -13 -16 -25 -24 -36l57 -17c13 16 27 36 35 53h180zM180 212v45h230v-45h-230zM326 297v82c0 28 -5 39 -25 47c-19 7 -48 7 -92 7c-3 -14 -10 -32 -17 -45c27 1 53 1 62 0
c8 0 11 -2 11 -10v-81h-145v-125h352v125h-146zM487 381l-49 31c-19 -21 -56 -51 -89 -72l46 -26c36 19 73 45 92 67zM161 318l55 14c-25 40 -67 82 -107 110c-10 -9 -33 -25 -47 -32c40 -25 77 -58 99 -92zM729 787v60h-667v-60h667zM264 672h652s-1 19 -2 29
c-10 142 -22 200 -45 223c-17 17 -36 22 -65 24c-27 1 -79 1 -133 -2c-1 -18 -8 -42 -19 -59c54 5 108 6 125 6c19 0 29 -1 37 -8c14 -14 23 -57 32 -156h-652v-271h225c12 -19 26 -39 35 -55l60 18c-9 13 -19 25 -27 37h312s-1 17 -2 26c-6 82 -12 117 -29 132
c-12 13 -27 18 -51 19c-18 1 -55 1 -93 -2c-2 -15 -8 -36 -15 -51c36 4 71 4 83 4c13 0 20 -1 25 -6c7 -7 12 -25 16 -66h-469v158zM577 610l-34 47c-41 -26 -119 -70 -180 -98l34 -39c64 28 140 65 180 90zM793 362h51c13 0 29 -1 34 -3c7 -2 13 -8 17 -19
c2 -10 4 -36 5 -70c12 10 33 20 50 25c-2 34 -6 71 -12 84c-7 13 -17 22 -33 27c-13 4 -38 6 -56 6h-66c-22 0 -49 -4 -63 -14c-16 -11 -22 -25 -22 -71v-62c-26 74 -73 127 -160 162c-7 -14 -26 -38 -39 -49c92 -35 133 -91 152 -177h-125v-54h134c4 -31 6 -66 7 -104h62
c-1 37 -3 73 -7 104h224v54h-231c-2 10 -4 19 -6 28h50v105c0 13 1 21 8 24c6 3 15 4 26 4z" />
</svg>
