<?xml version="1.0" standalone="no"?>
<!DOCTYPE svg PUBLIC "-//W3C//DTD SVG 1.1//EN" "http://www.w3.org/Graphics/SVG/1.1/DTD/svg11.dtd" >
<svg xmlns="http://www.w3.org/2000/svg" xmlns:xlink="http://www.w3.org/1999/xlink" version="1.1" viewBox="-10 0 1010 1000">
   <path fill="currentColor"
d="M159 113v61h225v-61h-225zM111 255h58v132l72 -6v-165h-145v-145h354v145h-146v51h149v45h-149v61c53 -4 109 -10 164 -15v47c-149 17 -302 34 -411 46l-5 -54l59 -5v-137zM721 798v52h-665v-52h665zM268 684h642s-1 19 -1 28c-9 137 -19 193 -41 215
c-17 16 -37 22 -67 23c-28 1 -82 0 -138 -3c-2 -17 -9 -39 -20 -55c57 5 114 5 132 5c19 0 30 -1 38 -8c13 -13 21 -53 28 -148h-638v-258h211c18 -24 38 -53 51 -73l64 19c-12 19 -26 37 -40 54h300s-1 16 -2 24c-6 88 -14 125 -30 140c-12 12 -29 17 -52 17
c-19 2 -56 1 -94 -1c-1 -14 -6 -32 -13 -45c36 4 70 4 82 4c13 0 20 -1 25 -6c8 -9 13 -30 18 -78h-455v146zM814 396v-61h-198v61h198zM880 294v142h-327v-142h327zM569 628l-28 42c-42 -26 -122 -66 -185 -92l27 -38c62 23 143 62 186 88zM636 127l-7 5c24 20 54 39 89 56
c37 -18 69 -38 93 -61h-175zM864 82l38 21c-30 44 -73 80 -124 108c59 20 125 35 190 43c-12 12 -27 32 -34 46c-75 -12 -148 -32 -213 -61c-69 30 -148 50 -226 63c-6 -14 -19 -33 -30 -45c67 -9 137 -25 200 -47c-29 -17 -55 -34 -77 -54c-26 15 -56 29 -88 41
c-9 -12 -25 -30 -39 -38c93 -32 163 -74 200 -118l58 11c-9 11 -20 22 -31 33h164z" />
</svg>
