<?xml version="1.0" standalone="no"?>
<!DOCTYPE svg PUBLIC "-//W3C//DTD SVG 1.1//EN" "http://www.w3.org/Graphics/SVG/1.1/DTD/svg11.dtd" >
<svg xmlns="http://www.w3.org/2000/svg" xmlns:xlink="http://www.w3.org/1999/xlink" version="1.1" viewBox="-10 0 1010 1000">
   <path fill="currentColor"
d="M216 706l31 -18c23 29 46 68 57 94l-34 21c-10 -28 -32 -68 -54 -97zM289 459l-36 22c-9 -25 -32 -62 -53 -89l32 -19c22 27 45 63 57 86zM374 598v-241h-248v85l26 -27c40 36 81 82 108 119c25 -45 46 -92 63 -140l44 12c-23 63 -53 123 -85 181c36 47 72 108 89 147
l-36 30c-15 -38 -45 -92 -78 -138c-31 51 -64 97 -99 135c-8 -7 -21 -17 -32 -26v82h248v-196l-21 18c-9 -23 -31 -56 -51 -79l26 -22c18 18 34 40 46 60zM126 550l23 -16c21 23 45 52 56 73l-31 22c-10 -19 -29 -47 -48 -68v164c39 -41 76 -91 110 -147
c-26 -39 -70 -91 -110 -130v102zM283 201v95h147v626h-56v-44h-248v65h-54v-647h145v-253h66v97h172v61h-172zM774 857h184v64h-463v-64h213v-166h-106c-33 54 -74 102 -122 143c-9 -14 -35 -43 -49 -56c76 -59 131 -139 170 -235h-143v-63h166c9 -28 16 -58 23 -88h-150
v-61h163c5 -27 10 -56 14 -84h-204v-63h140c-13 -32 -37 -80 -61 -116l61 -23c25 36 53 85 66 116l-51 23h122c26 -42 54 -100 70 -141l74 18c-23 42 -48 87 -71 123h128v63h-205c-3 28 -7 57 -12 84h188v61h-201c-7 30 -15 60 -23 88h256v63h-277c-11 29 -23 58 -36 85h281
v63h-145v166z" />
</svg>
