<?xml version="1.0" standalone="no"?>
<!DOCTYPE svg PUBLIC "-//W3C//DTD SVG 1.1//EN" "http://www.w3.org/Graphics/SVG/1.1/DTD/svg11.dtd" >
<svg xmlns="http://www.w3.org/2000/svg" xmlns:xlink="http://www.w3.org/1999/xlink" version="1.1" viewBox="-10 0 1010 1000">
   <path fill="currentColor"
d="M356 751l-44 28c-11 -36 -28 -80 -50 -127c-25 51 -53 97 -82 135c-7 -8 -28 -25 -40 -32c35 -44 67 -99 96 -160c-27 -53 -58 -107 -87 -154l39 -28c25 38 51 80 74 123c20 -48 37 -99 51 -149l48 12c-19 65 -43 132 -70 193c28 58 51 114 65 159zM375 817v-459h-236
v459h236zM284 201v95h154v625h-63v-40h-236v62h-61v-647h138v-253h68v97h175v61h-175zM785 859h168v66h-437v-66h202v-166h-113c-33 52 -71 98 -116 138c-9 -13 -32 -42 -48 -55c73 -58 126 -137 165 -231h-122v-66h146c9 -27 16 -56 24 -85h-136v-63h149
c5 -26 10 -54 14 -82h-189v-65h123c-11 -32 -34 -80 -55 -116l60 -21c23 37 48 85 60 116l-49 21h128c25 -42 53 -100 69 -141l72 18c-22 42 -47 87 -71 123h109v65h-190c-4 28 -9 56 -14 82h175v63h-188c-7 29 -15 58 -23 85h254v66h-275c-11 29 -24 57 -36 83h276v65h-132
v166z" />
</svg>
