<?xml version="1.0" standalone="no"?>
<!DOCTYPE svg PUBLIC "-//W3C//DTD SVG 1.1//EN" "http://www.w3.org/Graphics/SVG/1.1/DTD/svg11.dtd" >
<svg xmlns="http://www.w3.org/2000/svg" xmlns:xlink="http://www.w3.org/1999/xlink" version="1.1" viewBox="-10 0 1010 1000">
   <path fill="currentColor"
d="M465 883h286c64 0 74 -15 81 -112c16 11 44 21 63 25c-11 118 -35 147 -140 147h-290c-129 0 -164 -19 -164 -96v-175h68v90c152 -19 320 -50 417 -87l51 38c-117 45 -307 81 -468 101v33c0 30 15 36 96 36zM188 285v82h169v-82h-169zM357 167h-169v65h169v-65zM590 232
v-65h-168v65h168zM827 285h-171v82h171v-82zM422 367h168v-82h-168v82zM703 608h144c29 0 35 -8 38 -61c15 9 40 17 59 21c-7 74 -27 93 -89 93h-159c-85 0 -108 -16 -108 -80v-161h-254v61h215v50h-215v69l219 -23c-1 17 -1 39 1 51c-252 28 -283 35 -303 45
c-4 -17 -13 -44 -23 -58c17 -5 42 -16 42 -51v-144h-82v9c0 153 -12 372 -93 518c-10 -13 -40 -37 -54 -45c72 -137 79 -330 79 -473v-319h386c-6 -20 -12 -40 -18 -57l75 -15c7 23 17 49 24 72h339v57h-270v65h236v188h-236v76c75 -14 153 -36 200 -57l45 42
c-65 28 -159 51 -245 64v37c0 22 7 26 47 26z" />
</svg>
