<?xml version="1.0" standalone="no"?>
<!DOCTYPE svg PUBLIC "-//W3C//DTD SVG 1.1//EN" "http://www.w3.org/Graphics/SVG/1.1/DTD/svg11.dtd" >
<svg xmlns="http://www.w3.org/2000/svg" xmlns:xlink="http://www.w3.org/1999/xlink" version="1.1" viewBox="-10 0 1010 1000">
   <path fill="currentColor"
d="M232 254v-41c-44 22 -90 42 -135 57c-10 -13 -33 -40 -47 -51c115 -33 233 -87 289 -161l64 19c-35 49 -88 90 -147 123h508c-68 -39 -134 -85 -180 -128l56 -30c72 66 208 137 312 170c-16 14 -37 39 -47 57c-37 -14 -78 -34 -119 -56l-1 14c-13 95 -24 136 -46 154
c-15 13 -32 18 -58 19c-22 1 -68 1 -116 -2c-1 -15 -7 -37 -15 -52c45 4 88 5 103 5c17 0 25 -1 31 -7c11 -10 21 -35 29 -90h-218c-65 107 -216 148 -376 170c-6 -14 -22 -43 -34 -56c143 -12 278 -41 334 -114h-187zM191 594v4c0 19 0 39 -2 60h160v-64h-158zM349 489
h-158v54h158v-54zM575 543v-54h-159v54h159zM575 658v-64h-159v64h159zM815 594h-172v64h172v-64zM706 883h149c31 0 37 -9 41 -73c14 8 40 17 58 21c-7 85 -27 107 -92 107h-162c-87 0 -110 -17 -110 -81v-149h-263v55h213v51h-213v71l222 -28c-2 17 -3 40 -2 53
c-252 34 -283 41 -303 50c-3 -16 -13 -42 -21 -56c15 -4 40 -12 40 -46v-150h-78c-10 87 -34 181 -90 252c-12 -12 -41 -35 -56 -43c74 -94 84 -224 84 -319v-163h338c-8 -18 -18 -37 -28 -53l67 -18c13 21 29 48 38 71h386v54h-281v54h240v165h-225v69
c80 -12 166 -30 217 -47l45 42c-71 23 -171 42 -262 53v31c0 23 7 27 48 27z" />
</svg>
