<?xml version="1.0" standalone="no"?>
<!DOCTYPE svg PUBLIC "-//W3C//DTD SVG 1.1//EN" "http://www.w3.org/Graphics/SVG/1.1/DTD/svg11.dtd" >
<svg xmlns="http://www.w3.org/2000/svg" xmlns:xlink="http://www.w3.org/1999/xlink" version="1.1" viewBox="-10 0 1010 1000">
   <path fill="currentColor"
d="M348 174h-162v53h162v-53zM577 227v-53h-161v53h161zM819 277h-173v55h173v-55zM416 277v55h161v-55h-161zM186 277v55h162v-55h-162zM186 382v6c0 160 -12 394 -99 554c-14 -12 -43 -30 -61 -37c84 -152 92 -366 92 -517v-270h377c-8 -21 -18 -44 -27 -63l72 -17
c14 24 28 55 37 80h368v56h-299v53h241v155h-229v66c74 -13 152 -31 197 -50l45 42c-66 24 -159 44 -242 54v12c0 22 7 25 49 25h149c29 0 36 -8 39 -60c14 9 39 16 56 19c-6 72 -26 91 -88 91h-163c-86 0 -110 -14 -110 -75v-124h-263v46h221v47h-221v62l222 -26
c-1 14 0 35 2 46c-254 35 -285 41 -304 49c-4 -16 -15 -44 -24 -58c15 -6 39 -20 39 -57v-109h-76zM926 774h-285c83 48 208 90 311 109c-13 12 -30 35 -40 51c-109 -28 -245 -84 -330 -146v167h-72v-161c-84 62 -214 117 -318 146c-9 -16 -27 -38 -40 -49
c102 -21 225 -66 305 -117h-271v-52h324v-51c-76 4 -155 7 -226 7c-1 -13 -8 -32 -14 -45c179 -3 401 -16 515 -40l47 42c-68 15 -156 24 -250 31v56h344v52z" />
</svg>
