<?xml version="1.0" standalone="no"?>
<!DOCTYPE svg PUBLIC "-//W3C//DTD SVG 1.1//EN" "http://www.w3.org/Graphics/SVG/1.1/DTD/svg11.dtd" >
<svg xmlns="http://www.w3.org/2000/svg" xmlns:xlink="http://www.w3.org/1999/xlink" version="1.1" viewBox="-10 0 1010 1000">
   <path fill="currentColor"
d="M345 174h-154v53h154v-53zM575 227v-53h-163v53h163zM812 277h-169v59h169v-59zM412 277v59h163v-59h-163zM191 277v59h154v-59h-154zM191 386v8c0 162 -12 400 -93 563c-14 -11 -45 -28 -62 -34c77 -156 84 -376 84 -529v-276h375c-8 -21 -17 -44 -27 -63l73 -15
c13 23 27 53 36 78h346v56h-280v53h237v159h-231v60c74 -12 154 -30 201 -48l42 43c-65 25 -160 43 -243 53v26c0 23 8 27 50 27h151c31 0 37 -8 40 -62c15 10 39 17 57 21c-6 72 -26 91 -88 91h-166c-88 0 -111 -14 -111 -77v-134h-246v49h204v47h-204v62l210 -19
c-1 15 -1 36 1 48c-244 24 -274 29 -293 37c-4 -17 -14 -46 -24 -61c16 -5 40 -17 40 -53v-110h-79zM927 769h-266c75 54 187 100 288 122c-15 13 -35 38 -44 55c-111 -31 -238 -96 -316 -170v179h-73v-178c-80 73 -210 138 -318 170c-10 -16 -30 -41 -45 -54
c100 -22 214 -69 291 -124h-246v-57h164c-17 -24 -41 -56 -61 -79l55 -28c26 29 60 69 76 93l-25 14h109v-120h73v120h93c24 -32 51 -77 65 -110l68 25c-19 29 -39 59 -60 85h172v57z" />
</svg>
