<?xml version="1.0" standalone="no"?>
<!DOCTYPE svg PUBLIC "-//W3C//DTD SVG 1.1//EN" "http://www.w3.org/Graphics/SVG/1.1/DTD/svg11.dtd" >
<svg xmlns="http://www.w3.org/2000/svg" xmlns:xlink="http://www.w3.org/1999/xlink" version="1.1" viewBox="-10 0 1010 1000">
   <path fill="currentColor"
d="M359 163h-169v44h169v-44zM596 207v-44h-170v44h170zM812 248h-148v49h148v-49zM426 297h170v-49h-170v49zM190 248v49h169v-49h-169zM190 338v56c0 161 -13 401 -93 564c-11 -12 -41 -34 -57 -41c75 -154 81 -370 81 -523v-280h384c-10 -20 -22 -40 -33 -57l57 -22
c20 23 38 54 47 79h358v49h-270v44h216v131h-230v49c74 -10 153 -24 199 -38l39 35c-65 19 -157 33 -238 43v8c0 20 7 24 49 24h153c30 0 36 -7 39 -58c14 9 35 15 52 18c-6 67 -25 84 -83 84h-166c-83 0 -106 -11 -106 -68v-97h-255v39h214v40h-214v50l219 -16
c-3 13 -6 32 -6 42c-230 19 -258 24 -275 31c-4 -17 -14 -49 -23 -66c13 -4 25 -11 25 -45v-75h-83zM710 883h143c31 0 37 -9 41 -75c15 9 41 17 60 21c-7 88 -27 110 -93 110h-157c-88 0 -112 -16 -112 -80v-74h-118c-26 93 -97 137 -272 162c-7 -17 -24 -43 -37 -55
c152 -17 211 -45 235 -107h-165v-221c90 -6 193 -18 252 -32l42 41c-62 14 -145 25 -225 30v46h211v44h-211v45h488v-45h-222v-44h222v-43h-231v-47h299v226h-198v74c0 21 7 24 48 24z" />
</svg>
