<?xml version="1.0" standalone="no"?>
<!DOCTYPE svg PUBLIC "-//W3C//DTD SVG 1.1//EN" "http://www.w3.org/Graphics/SVG/1.1/DTD/svg11.dtd" >
<svg xmlns="http://www.w3.org/2000/svg" xmlns:xlink="http://www.w3.org/1999/xlink" version="1.1" viewBox="-10 0 1010 1000">
   <path fill="currentColor"
d="M786 802h-435v67h435v-67zM280 955v-199h579v198h-73v-39h-435v40h-71zM354 584l-8 7c25 22 56 39 94 51c34 -17 64 -36 88 -58h-174zM190 248v49h173v-49h-173zM363 163h-173v44h173v-44zM602 207v-44h-174v44h174zM821 248h-153v49h153v-49zM428 297h174v-49h-174v49z
M723 671h19c29 0 157 0 198 -1c-9 13 -18 36 -20 50h-181c-115 0 -213 -6 -293 -28c-68 31 -146 52 -227 66c-5 -13 -18 -38 -28 -49c65 -9 131 -22 188 -43c-26 -13 -50 -29 -72 -49c-23 16 -50 29 -75 38c-9 -10 -24 -30 -38 -40c61 -21 123 -63 159 -109
c-72 7 -88 10 -99 15c-2 -15 -12 -38 -19 -51c16 -4 38 -11 38 -44v-88h-83v56c0 160 -13 400 -93 564c-11 -13 -41 -34 -57 -41c75 -154 81 -370 81 -523v-280h387c-9 -20 -20 -40 -31 -57l68 -20c17 22 35 52 45 77h350v49h-272v44h221v131h-239v49
c75 -10 154 -24 200 -38l38 34c-64 20 -157 34 -238 42v9c0 21 7 25 51 25h159c31 0 37 -7 40 -58c14 8 35 14 52 17c-6 68 -25 85 -84 85h-171c-85 0 -109 -11 -109 -69v-96h-257v36h216v40h-216v49l223 -15c-4 13 -6 31 -6 42c-75 6 -130 11 -170 14l34 18
c-4 6 -9 13 -13 19h172l10 -2l34 22c-26 38 -62 70 -105 96c45 8 96 11 150 13v-154h63v31l5 -8c66 15 155 39 203 59l-27 49c-42 -19 -117 -42 -181 -59v83z" />
</svg>
