<?xml version="1.0" standalone="no"?>
<!DOCTYPE svg PUBLIC "-//W3C//DTD SVG 1.1//EN" "http://www.w3.org/Graphics/SVG/1.1/DTD/svg11.dtd" >
<svg xmlns="http://www.w3.org/2000/svg" xmlns:xlink="http://www.w3.org/1999/xlink" version="1.1" viewBox="-10 0 1010 1000">
   <path fill="currentColor"
d="M346 161h-159v41h159v-41zM577 202v-41h-163v41h163zM819 247h-174v46h174v-46zM414 247v46h163v-46h-163zM187 247v46h159v-46h-159zM187 338v91c0 144 -14 345 -98 478c-12 -12 -40 -33 -55 -39c79 -127 87 -304 87 -439v-320h360c-8 -19 -17 -38 -26 -55l63 -19
c13 23 28 50 37 74h379v52h-289v41h242v136h-234v50c73 -10 152 -24 198 -39l42 37c-66 18 -158 33 -240 42v11c0 20 7 23 49 23h152c28 0 35 -5 38 -49c13 8 36 14 53 18c-5 61 -25 77 -83 77h-166c-84 0 -108 -12 -108 -69v-101h-251v38h210v43h-210v55l215 -28
c-3 14 -5 34 -4 45c-247 36 -277 41 -295 50c-4 -14 -18 -37 -28 -49c18 -7 47 -26 47 -64v-90h-85zM193 604l-1 -46h304c-7 -16 -15 -31 -21 -45l62 -20c12 20 25 44 34 65h356v46h-734zM358 794l59 22c-60 48 -151 98 -226 129c-9 -12 -32 -35 -46 -45
c76 -26 161 -65 213 -106zM331 683v50h422v-50h-422zM826 776h-253v119c0 33 -6 45 -30 55c-23 9 -60 8 -114 8c-3 -17 -12 -37 -20 -53c37 2 69 2 79 1s14 -3 14 -12v-118h-242v-136h566v136zM649 824l49 -31c76 29 177 78 232 111l-52 36c-50 -32 -151 -83 -229 -116z" />
</svg>
