<?xml version="1.0" standalone="no"?>
<!DOCTYPE svg PUBLIC "-//W3C//DTD SVG 1.1//EN" "http://www.w3.org/Graphics/SVG/1.1/DTD/svg11.dtd" >
<svg xmlns="http://www.w3.org/2000/svg" xmlns:xlink="http://www.w3.org/1999/xlink" version="1.1" viewBox="-10 0 1010 1000">
   <path fill="currentColor"
d="M933 80v53h-401v-53h401zM905 356h-68v-131h-217v133h-65v-180h350v178zM662 269l38 -33c31 23 69 57 85 83l-39 36c-17 -26 -53 -62 -84 -86zM483 80v53h-397v-53h397zM190 545v13c0 19 0 38 -1 59h167v-72h-166zM356 439h-166v54h166v-54zM596 493v-54h-173v54h173z
M834 545h-170v72h170v-72zM423 617h173v-72h-173v72zM700 890h155c35 0 42 -14 45 -95c16 11 42 19 60 24c-7 101 -27 127 -97 127h-170c-91 0 -114 -18 -114 -86v-192h-250v66h212v53h-212v90l214 -24c-1 15 1 39 2 52c-251 32 -283 37 -303 46c-5 -14 -19 -41 -31 -56
c19 -6 48 -22 48 -54v-173h-74c-10 99 -34 210 -93 293c-12 -14 -42 -38 -56 -45c75 -107 84 -254 84 -360v-172h359c-5 -11 -11 -22 -17 -33v5h-67v-131h-211v133h-65v-180h343v151l55 -18c15 21 31 50 41 73h372v55h-266v54h239v175h-255v86c82 -17 171 -39 223 -60l49 44
c-75 26 -180 49 -272 64v58c0 25 9 30 52 30zM344 319l-41 36c-15 -26 -49 -62 -77 -88l38 -31c30 25 64 59 80 83z" />
</svg>
