<?xml version="1.0" standalone="no"?>
<!DOCTYPE svg PUBLIC "-//W3C//DTD SVG 1.1//EN" "http://www.w3.org/Graphics/SVG/1.1/DTD/svg11.dtd" >
<svg xmlns="http://www.w3.org/2000/svg" xmlns:xlink="http://www.w3.org/1999/xlink" version="1.1" viewBox="-10 0 1010 1000">
   <path fill="currentColor"
d="M363 163h-173v44h173v-44zM602 207v-44h-174v44h174zM821 248h-153v49h153v-49zM428 297h174v-49h-174v49zM190 248v49h173v-49h-173zM273 338h-83v56c0 161 -13 401 -93 565c-11 -13 -41 -35 -57 -41c75 -154 81 -371 81 -524v-280h381c-7 -19 -16 -39 -25 -57l69 -18
c14 22 29 52 37 75h357v49h-272v44h221v131h-239v49c75 -10 154 -24 200 -38l38 35c-64 19 -157 33 -238 42v11c0 21 7 25 51 25h159c31 0 37 -7 40 -58c14 8 35 14 52 17c-6 69 -25 86 -84 86h-171c-85 0 -109 -12 -109 -70v-99h-257v38h216v40h-216v50l223 -15
c-4 13 -6 32 -6 42c-246 20 -276 24 -294 32c-2 -15 -12 -38 -19 -51c16 -4 38 -11 38 -44v-92zM272 756h205s-1 18 -1 27c-9 86 -18 124 -36 141c-15 13 -32 17 -58 19c-22 1 -66 1 -111 -2c-1 -16 -8 -38 -18 -54c45 5 90 5 105 5c17 0 25 -1 31 -7c9 -8 16 -32 22 -86
h-205c10 -40 22 -96 29 -143h177v-57h-194v-50h255v144h-10v9h-180c-4 19 -7 37 -11 54zM625 784v57c57 -4 118 -8 182 -12v-45h-182zM807 598h-182v49h182v-49zM625 690v51h182v-51h-182zM870 598v227l79 -6v46l-79 7v80h-63v-75c-113 9 -220 18 -305 25l-6 -54l66 -4v-246
h-54v-50h422v50h-60z" />
</svg>
