<?xml version="1.0" standalone="no"?>
<!DOCTYPE svg PUBLIC "-//W3C//DTD SVG 1.1//EN" "http://www.w3.org/Graphics/SVG/1.1/DTD/svg11.dtd" >
<svg xmlns="http://www.w3.org/2000/svg" xmlns:xlink="http://www.w3.org/1999/xlink" version="1.1" viewBox="-10 0 1010 1000">
   <path fill="currentColor"
d="M359 155h-169v33h169v-33zM596 188v-33h-170v33h170zM812 224h-148v38h148v-38zM426 262h170v-38h-170v38zM190 224v38h169v-38h-169zM190 298v92c0 161 -13 404 -93 569c-11 -13 -41 -34 -57 -41c75 -156 81 -374 81 -528v-282h381c-9 -18 -19 -35 -30 -51l58 -23
c18 22 35 50 45 74h354v47h-265v33h216v110h-230v42c79 -6 165 -15 215 -24l37 31c-69 14 -166 22 -252 26v9c0 19 7 22 49 22h155c28 0 34 -4 36 -39c13 7 36 12 51 15c-5 50 -23 63 -79 63h-168c-83 0 -106 -10 -106 -61v-84h-255v34h213v36h-213v37l221 -11
c-3 11 -6 28 -7 37c-231 15 -259 18 -276 24c-4 -14 -14 -42 -23 -56c13 -4 25 -10 25 -41v-60h-83zM905 480v44h-411c21 19 45 43 57 60l-45 21c-12 -17 -36 -45 -56 -64l41 -17h-262v-44h303c-5 -13 -12 -25 -20 -36l62 -17c11 16 24 36 31 53h300zM528 606h10
c39 -24 72 -54 92 -80l56 7c-26 35 -58 65 -99 95v100h-59v-122zM408 603h-63c-15 63 -62 105 -124 132c-7 -8 -28 -24 -41 -31c56 -20 94 -53 108 -101h-60v-42h240s0 13 -1 21c-6 71 -12 104 -27 117c-11 9 -22 13 -42 15c-12 1 -34 1 -55 0c-2 -13 -7 -30 -15 -43
c22 3 39 3 48 3c6 0 12 -1 18 -6c6 -7 10 -25 14 -65zM342 838h421v-41h-408c-3 14 -7 27 -13 41zM763 752v-37h65v241h-65v-73h-445c-19 26 -46 52 -82 74c-11 -10 -38 -32 -53 -39c88 -52 107 -116 107 -166v-33h69v33h404zM847 531l51 37c-22 8 -47 14 -75 20
c25 51 67 96 121 118c-14 9 -31 24 -40 35c-58 -28 -104 -84 -129 -144c-20 4 -40 7 -59 9v56l72 -12c0 13 -1 31 1 41c-100 20 -123 27 -135 34v-4c-5 -12 -14 -32 -22 -44c13 -4 29 -13 29 -44v-61c67 -9 143 -25 186 -41z" />
</svg>
