<?xml version="1.0" standalone="no"?>
<!DOCTYPE svg PUBLIC "-//W3C//DTD SVG 1.1//EN" "http://www.w3.org/Graphics/SVG/1.1/DTD/svg11.dtd" >
<svg xmlns="http://www.w3.org/2000/svg" xmlns:xlink="http://www.w3.org/1999/xlink" version="1.1" viewBox="-10 0 1010 1000">
   <path fill="currentColor"
d="M141 195l50 7c-5 23 -11 44 -18 65c23 21 48 46 60 63l-33 36c-10 -16 -28 -36 -47 -55c-17 32 -38 61 -63 83c-9 -8 -29 -22 -41 -29c49 -40 78 -100 92 -170zM410 558l41 21c-26 83 -67 153 -118 209c31 29 58 56 77 80l-50 41c-17 -23 -41 -49 -71 -77
c-63 56 -136 98 -214 126c-7 -16 -27 -44 -39 -57c77 -24 146 -62 205 -112c-25 -21 -52 -42 -77 -59l47 -37c23 16 49 35 73 54c35 -38 63 -82 84 -132h-147c-39 56 -83 107 -130 144c-9 -12 -30 -37 -45 -49c71 -53 133 -132 170 -218l33 9v-102c-48 55 -110 106 -167 135
c-8 -14 -27 -35 -40 -46c76 -31 161 -99 207 -162v-150h-187v-57h187v-76h63v76h175v57h-175v157c39 -35 63 -83 74 -138l47 9c-4 23 -11 44 -20 65c28 24 59 54 74 73l-34 37c-15 -17 -39 -44 -63 -66c-12 20 -26 39 -43 55c-8 -8 -23 -23 -35 -32v15c43 27 145 97 171 117
l-36 52c-25 -26 -88 -75 -135 -111v99h-37l4 1c-8 18 -16 35 -26 52h144zM849 509h-205c25 77 60 148 104 209c44 -59 79 -130 101 -209zM572 444h117v-175h-117v175zM886 441l43 16c-26 128 -75 232 -138 315c50 54 109 98 176 126c-17 13 -38 39 -48 57
c-65 -31 -123 -76 -172 -131c-54 57 -116 101 -182 132c-9 -17 -27 -42 -42 -56c66 -27 128 -71 181 -128c-54 -75 -96 -164 -126 -263h-7c-5 142 -27 320 -102 445c-12 -12 -40 -31 -56 -38c83 -140 93 -335 93 -476v-238h183v-155h67v155h140l12 -2l49 12
c-17 66 -38 143 -57 192l-60 -14c11 -31 23 -77 34 -121h-118v175h118z" />
</svg>
