<?xml version="1.0" standalone="no"?>
<!DOCTYPE svg PUBLIC "-//W3C//DTD SVG 1.1//EN" "http://www.w3.org/Graphics/SVG/1.1/DTD/svg11.dtd" >
<svg xmlns="http://www.w3.org/2000/svg" xmlns:xlink="http://www.w3.org/1999/xlink" version="1.1" viewBox="-10 0 1010 1000">
   <path fill="currentColor"
d="M143 195l53 8c-4 22 -10 43 -18 61c23 21 46 43 58 60l-37 40c-10 -14 -25 -33 -43 -51c-18 33 -40 62 -66 85c-10 -8 -31 -24 -45 -31c51 -41 83 -101 98 -172zM492 343l-33 40c-16 -17 -42 -44 -68 -68c-11 19 -25 36 -41 50c-8 -9 -26 -26 -38 -34
c39 -33 62 -81 74 -136l50 9c-5 23 -12 46 -21 67c28 24 60 52 77 72zM312 413v95h-35l3 1c-6 17 -15 35 -24 52h148l13 -3l39 21c-25 84 -65 154 -113 210c34 28 65 53 86 74l-45 45c-21 -22 -50 -47 -83 -74c-59 54 -127 95 -201 123c-7 -16 -25 -43 -38 -55
c69 -24 135 -60 189 -109c-29 -22 -60 -45 -87 -63l44 -39c26 18 56 39 85 60c35 -38 63 -84 83 -136h-152c-36 56 -80 106 -125 143c-8 -12 -30 -38 -44 -48c70 -53 130 -133 166 -218l27 8v-93c-47 54 -108 103 -163 131c-9 -15 -30 -38 -45 -50c75 -32 161 -98 208 -161
v-151h-186v-57h186v-76h64v76h177v57h-177v175c40 28 133 93 158 112l-36 52c-24 -23 -79 -68 -122 -102zM956 935l-71 28c-8 -24 -18 -51 -32 -83c-283 35 -320 40 -344 51v1c-5 -16 -16 -54 -26 -74c18 -4 35 -29 58 -65c18 -30 73 -135 113 -244h-166v-69h189v-193h-161
v-69h161v-173h74v173h179v69h-179v193h203v69h-214c-42 105 -95 212 -150 295l236 -25c-22 -52 -48 -106 -70 -152l65 -21c49 93 107 218 135 289z" />
</svg>
