<?xml version="1.0" standalone="no"?>
<!DOCTYPE svg PUBLIC "-//W3C//DTD SVG 1.1//EN" "http://www.w3.org/Graphics/SVG/1.1/DTD/svg11.dtd" >
<svg xmlns="http://www.w3.org/2000/svg" xmlns:xlink="http://www.w3.org/1999/xlink" version="1.1" viewBox="-10 0 1010 1000">
   <path fill="currentColor"
d="M412 511l42 20c-24 92 -62 169 -110 232c30 28 56 53 75 74l-47 50c-18 -21 -42 -46 -71 -74c-58 61 -128 106 -202 137c-9 -15 -31 -43 -44 -55c74 -28 142 -70 198 -127c-35 -31 -70 -62 -102 -88l45 -42c30 24 65 53 98 82c33 -42 58 -91 78 -146h-173
c-35 59 -78 112 -121 152c-10 -12 -33 -38 -47 -50c67 -57 125 -143 162 -236h-135v-62h180v-72h-154v-58h154v-65h-167v-59h167v-80h69v80h160v59h-160v65h147v58h-147v72h175v62h-219c-9 25 -20 50 -32 74h168zM946 537h-197c40 156 115 294 221 361c-17 13 -40 40 -51 59
c-91 -65 -157 -177 -203 -310c-34 114 -105 221 -243 308c-12 -15 -37 -36 -54 -49c167 -102 227 -234 247 -369h-169v-70h177c1 -26 2 -52 2 -78v-106h-152v-69h152v-169h72v169h166v69h-166v106c0 26 -1 52 -2 78h200v70z" />
</svg>
