<?xml version="1.0" standalone="no"?>
<!DOCTYPE svg PUBLIC "-//W3C//DTD SVG 1.1//EN" "http://www.w3.org/Graphics/SVG/1.1/DTD/svg11.dtd" >
<svg xmlns="http://www.w3.org/2000/svg" xmlns:xlink="http://www.w3.org/1999/xlink" version="1.1" viewBox="-10 0 1010 1000">
   <path fill="currentColor"
d="M832 715l-37 51c-21 -31 -75 -97 -115 -144v298h-57v-296c-44 74 -101 146 -154 189c-11 -15 -31 -36 -44 -47c64 -44 136 -128 180 -210h-142v-58h160v-237h57v237h153v58h-153v4c33 29 128 128 152 155zM494 319l47 -14c23 43 44 101 51 138l-50 17
c-7 -39 -26 -98 -48 -141zM768 297l52 16c-21 51 -46 108 -68 148l-46 -15c22 -40 48 -106 62 -149zM938 157v38c-10 510 -19 671 -49 717c-17 27 -36 36 -63 39c-26 4 -61 3 -99 1c-1 -19 -8 -48 -19 -67c40 3 73 3 90 3c13 1 21 -2 31 -17c22 -33 33 -194 42 -652h-313
c-30 50 -63 95 -97 131c-6 -11 -20 -34 -30 -50v6h-139v72h169v61h-199c-8 26 -19 50 -31 75h148l13 -3l42 19c-22 90 -57 164 -102 227c34 30 61 62 80 89l-46 49c-17 -27 -44 -57 -74 -87c-60 66 -132 116 -210 150c-9 -17 -30 -44 -44 -56c77 -31 148 -77 205 -139
c-32 -28 -66 -53 -98 -75l41 -44c32 20 65 44 96 70c30 -42 53 -89 71 -142h-152c-37 63 -80 117 -126 159c-9 -11 -33 -39 -47 -50c69 -59 127 -146 165 -242h-138v-61h171v-72h-146v-58h146v-66h-158v-58h158v-80h66v80h153v58h-153v66h139v33c57 -60 107 -146 138 -237
l61 19c-11 31 -24 64 -39 94h347z" />
</svg>
