<?xml version="1.0" standalone="no"?>
<!DOCTYPE svg PUBLIC "-//W3C//DTD SVG 1.1//EN" "http://www.w3.org/Graphics/SVG/1.1/DTD/svg11.dtd" >
<svg xmlns="http://www.w3.org/2000/svg" xmlns:xlink="http://www.w3.org/1999/xlink" version="1.1" viewBox="-10 0 1010 1000">
   <path fill="currentColor"
d="M932 179h-743v274c0 150 -12 363 -92 505c-13 -11 -44 -29 -61 -36c75 -135 82 -327 82 -468v-336h395c-6 -22 -14 -45 -21 -64l73 -14c11 23 22 53 28 78h339v61zM364 563v-154c-34 56 -78 108 -119 140c-10 -14 -29 -36 -42 -45c52 -35 109 -99 144 -165h-113v-61h130
v-67h64v67h111v61h-107c33 25 94 76 111 91l-35 48c-16 -17 -50 -50 -80 -78v163h-64zM501 551l55 28c-69 78 -192 165 -280 209c-11 -16 -30 -39 -46 -52c89 -38 209 -117 271 -185zM716 742l58 -28c53 65 116 153 144 208l-60 34c-10 -20 -24 -46 -42 -73
c-462 44 -508 47 -538 58c-3 -14 -13 -50 -21 -69c28 -3 60 -19 102 -45c46 -23 190 -119 298 -218l65 40c-95 80 -195 153 -296 209l353 -31c-21 -30 -42 -60 -63 -85zM909 342h-118c44 60 108 122 159 155c-14 11 -34 31 -45 47c-42 -33 -94 -89 -136 -146v166h-65v-173
c-39 61 -91 119 -136 154c-10 -15 -28 -35 -42 -46c53 -33 112 -95 153 -157h-101v-62h126v-66h65v66h140v62z" />
</svg>
