<?xml version="1.0" standalone="no"?>
<!DOCTYPE svg PUBLIC "-//W3C//DTD SVG 1.1//EN" "http://www.w3.org/Graphics/SVG/1.1/DTD/svg11.dtd" >
<svg xmlns="http://www.w3.org/2000/svg" xmlns:xlink="http://www.w3.org/1999/xlink" version="1.1" viewBox="-10 0 1010 1000">
   <path fill="currentColor"
d="M949 186h-762v247c0 153 -12 376 -96 526c-12 -13 -42 -37 -57 -46c77 -139 84 -336 84 -480v-310h382c-7 -23 -15 -47 -22 -69l73 -14c11 26 23 58 29 83h369v63zM370 465v-108c-37 42 -85 81 -130 104c-9 -14 -25 -33 -38 -43c52 -22 108 -64 147 -108h-121v-50h142
v-59h57v59h137v50h-137v9c31 15 114 56 135 68l-36 43c-18 -15 -63 -45 -99 -67v102h-57zM362 554v76h425v-76h-425zM294 681v-178h565v178h-565zM845 784h-533v89h533v-89zM242 956v-226h675v225h-72v-28h-533v29h-70zM937 310h-126c38 44 98 88 147 111
c-13 9 -30 29 -40 43c-43 -25 -95 -68 -134 -112v113h-58v-111c-37 43 -85 83 -130 107c-10 -14 -27 -34 -38 -43c52 -22 107 -64 145 -108h-112v-50h135v-60h58v60h153v50z" />
</svg>
