<?xml version="1.0" standalone="no"?>
<!DOCTYPE svg PUBLIC "-//W3C//DTD SVG 1.1//EN" "http://www.w3.org/Graphics/SVG/1.1/DTD/svg11.dtd" >
<svg xmlns="http://www.w3.org/2000/svg" xmlns:xlink="http://www.w3.org/1999/xlink" version="1.1" viewBox="-10 0 1010 1000">
   <path fill="currentColor"
d="M337 716h428c-74 -25 -145 -57 -195 -92v74h-69v-69c-43 33 -102 63 -164 87zM351 887h380v-46h-380v46zM731 801v-40h-380v40h380zM923 624h-268c83 39 197 69 295 84c-13 12 -28 33 -37 48c-35 -7 -72 -17 -109 -27v227h-73v-24h-380v25h-71v-221c-30 9 -59 18 -87 24
c-6 -12 -18 -28 -30 -40c-13 83 -35 164 -69 232c-12 -11 -43 -29 -59 -35c76 -155 83 -373 83 -527v-287h372c-5 -17 -11 -34 -15 -49l73 -15c8 20 17 43 24 64h359v54h-745v233c0 92 -4 207 -21 320c90 -15 193 -47 265 -86h-235v-45h306v-38c-82 5 -168 8 -245 9
c-1 -12 -7 -29 -13 -40c183 -5 411 -19 528 -43l37 38c-63 14 -148 23 -238 31v43h353v45zM746 464h-57v-125c-40 48 -92 92 -138 119c-10 -14 -26 -33 -39 -43c53 -25 112 -72 154 -120h-105v-51h128v-64h57v64h159v51h-145c48 32 140 99 164 119l-37 45
c-25 -27 -92 -83 -141 -121v126zM413 475h-57v-128c-35 47 -79 90 -120 117c-8 -14 -26 -34 -39 -44c49 -25 103 -75 139 -125h-102v-51h122v-64h57v64h121v51h-120c28 17 102 62 120 75l-38 44c-15 -17 -53 -46 -83 -71v132z" />
</svg>
