<?xml version="1.0" standalone="no"?>
<!DOCTYPE svg PUBLIC "-//W3C//DTD SVG 1.1//EN" "http://www.w3.org/Graphics/SVG/1.1/DTD/svg11.dtd" >
<svg xmlns="http://www.w3.org/2000/svg" xmlns:xlink="http://www.w3.org/1999/xlink" version="1.1" viewBox="-10 0 1010 1000">
   <path fill="currentColor"
d="M627 209v88h143v-88h-143zM844 463h-119v63h119v-63zM844 639v-66h-119v66h119zM548 573v66h115v-66h-115zM548 463v63h115v-63h-115zM663 412v-61h-218v-54h118v-88h-87v-54h87v-91h64v91h143v-90h67v90h83v54h-83v88h116v54h-228v61h184v278h-423v-278h177zM602 691
l57 33c-49 50 -125 101 -188 131c-10 -11 -29 -31 -43 -42c64 -30 140 -80 174 -122zM372 99l66 19c-25 75 -57 168 -83 227l-49 -18c23 -61 53 -159 66 -228zM178 331l-58 19c-6 -63 -31 -158 -58 -230l54 -17c29 73 54 168 62 228zM933 804l-11 7c14 4 28 8 38 10
c-11 91 -36 115 -145 115h-357c-145 0 -184 -23 -184 -120v-373h-71c-7 211 -26 404 -120 518c-11 -16 -32 -39 -49 -50c84 -99 100 -277 105 -468h-92v-64h165v-335h65v335h159v64h-96v373c0 46 16 57 114 57h358c51 0 70 -8 79 -42l-13 8c-33 -34 -92 -80 -143 -114
l43 -33c55 34 118 79 155 112z" />
</svg>
