<?xml version="1.0" standalone="no"?>
<!DOCTYPE svg PUBLIC "-//W3C//DTD SVG 1.1//EN" "http://www.w3.org/Graphics/SVG/1.1/DTD/svg11.dtd" >
<svg xmlns="http://www.w3.org/2000/svg" xmlns:xlink="http://www.w3.org/1999/xlink" version="1.1" viewBox="-10 0 1010 1000">
   <path fill="currentColor"
d="M332 345l-30 -13c14 -43 32 -113 40 -159l41 15c-16 52 -35 117 -51 157zM147 183l34 -10c15 48 27 111 30 152l-36 11c-2 -41 -14 -105 -28 -153zM134 133v242h107v-242h-107zM396 375v-242h-107v242h107zM54 715l-3 -65c50 -2 112 -6 182 -10v-77h-162v-60h162v-73
h-154v-353h374v353h-157v73h153v60h-153v73c55 -3 112 -6 169 -10l-2 61c-148 12 -302 22 -409 28zM89 959l-53 -25c24 -50 48 -131 62 -185l49 24c-15 54 -37 135 -58 186zM185 764l47 -4c8 53 14 122 13 166l-49 5c1 -45 -4 -114 -11 -167zM279 756l47 -8
c15 46 30 106 36 145l-49 10c-4 -39 -19 -101 -34 -147zM375 743l46 -14c20 36 39 83 45 115l-48 17c-7 -31 -25 -80 -43 -118zM934 498h-199c-37 154 -109 319 -255 460c-12 -13 -38 -35 -53 -45c134 -128 205 -275 241 -415h-79c-41 0 -73 5 -82 13
c-5 -16 -20 -45 -27 -58c12 -4 21 -9 27 -27c11 -20 38 -149 47 -193h65c-11 44 -32 138 -47 200h109c20 -98 24 -190 25 -267h-196v-64h412v64h-152c-1 77 -5 169 -23 267h187v65zM818 874h41c12 0 24 -2 31 -6c6 -4 12 -12 15 -23c2 -18 4 -60 3 -110c13 11 37 22 55 28
c-1 49 -5 105 -11 124c-6 20 -16 32 -31 40s-38 12 -57 12h-60c-23 0 -48 -4 -63 -17c-17 -13 -22 -27 -22 -73v-291h66v293c0 7 2 14 8 17c6 4 16 6 25 6z" />
</svg>
