<?xml version="1.0" standalone="no"?>
<!DOCTYPE svg PUBLIC "-//W3C//DTD SVG 1.1//EN" "http://www.w3.org/Graphics/SVG/1.1/DTD/svg11.dtd" >
<svg xmlns="http://www.w3.org/2000/svg" xmlns:xlink="http://www.w3.org/1999/xlink" version="1.1" viewBox="-10 0 1010 1000">
   <path fill="currentColor"
d="M345 345l-31 -13c14 -43 34 -114 42 -160l42 16c-16 52 -36 117 -53 157zM149 182l36 -10c16 48 29 112 32 153l-38 11c-2 -41 -15 -105 -30 -154zM135 133v242h116v-242h-116zM410 375v-242h-111v242h111zM53 715l-4 -65c53 -2 120 -6 194 -10v-77h-173v-60h173v-73
h-165v-353h390v353h-160v73h160v60h-160v74c57 -3 117 -6 176 -10l-2 59c-156 12 -317 22 -429 29zM86 958l-52 -24c25 -50 50 -132 65 -185l49 23c-17 54 -39 134 -62 186zM189 764l49 -4c8 54 14 124 14 169l-51 5c1 -45 -4 -116 -12 -170zM286 756l47 -8
c18 51 36 117 42 160l-50 10c-4 -43 -22 -111 -39 -162zM385 744l48 -14c26 47 52 110 61 150l-51 18c-8 -42 -32 -106 -58 -154zM798 881h53c12 0 25 -1 33 -4c7 -2 14 -9 17 -23c3 -15 5 -49 6 -92c15 15 38 27 58 33c-1 40 -6 88 -12 107c-7 20 -18 33 -36 40
c-16 6 -39 9 -61 9h-70c-20 0 -47 -6 -63 -19c-20 -15 -28 -33 -28 -119v-136h-176v-338h64v269h112v-362h-198v-69h198v-132h63v132h205v69h-205v362h115v-270h64v406h-64v-67h-115v143c0 31 3 50 12 56c7 4 16 5 28 5z" />
</svg>
