<?xml version="1.0" standalone="no"?>
<!DOCTYPE svg PUBLIC "-//W3C//DTD SVG 1.1//EN" "http://www.w3.org/Graphics/SVG/1.1/DTD/svg11.dtd" >
<svg xmlns="http://www.w3.org/2000/svg" xmlns:xlink="http://www.w3.org/1999/xlink" version="1.1" viewBox="-10 0 1010 1000">
   <path fill="currentColor"
d="M89 954l-50 -25c34 -42 48 -114 54 -182l52 13c-8 73 -20 150 -56 194zM179 750l48 -5c15 54 26 126 26 172l-51 7c0 -47 -11 -118 -23 -174zM275 744l47 -10c22 50 43 115 50 158l-51 11c-5 -43 -26 -108 -46 -159zM371 730l44 -16c30 44 59 105 70 144l-47 19
c-11 -40 -39 -101 -67 -147zM145 184l36 -9c17 47 30 110 33 149l-38 11c-2 -40 -15 -103 -31 -151zM328 334l-31 -13c15 -41 35 -108 44 -151l42 16c-17 50 -37 111 -55 148zM573 691h101v-88h-101v88zM747 237h-78c-28 65 -63 122 -106 170h111v-69h64v69h117
c-44 -47 -82 -108 -108 -170zM738 466v85h106v-85h-106zM573 466v85h101v-85h-101zM738 691h106v-88h-106v88zM393 374v-240h-109v240h109zM132 134v240h101v-240h-101zM772 893h104c26 0 31 -18 33 -106c14 11 39 20 57 25c-6 108 -24 139 -85 139h-116
c-71 0 -91 -19 -91 -95v-106h-101v48h-61v-341c-8 7 -17 14 -26 21c-10 -13 -35 -37 -50 -49l1 -1h-147v69h165v57h-165v76c60 -3 123 -7 185 -11l-2 60c-153 11 -312 21 -424 27l-6 -63c51 -2 115 -5 185 -9v-80h-158v-57h158v-69h-153v-348h377v338
c62 -46 110 -107 145 -181h-123v-64h150c14 -40 25 -84 34 -130l66 10c-8 42 -18 82 -31 120h250v64h-134c38 74 99 145 163 179c-14 12 -35 35 -46 51c-6 -4 -13 -8 -19 -13v296h-169v106c0 31 5 37 34 37z" />
</svg>
