<?xml version="1.0" standalone="no"?>
<!DOCTYPE svg PUBLIC "-//W3C//DTD SVG 1.1//EN" "http://www.w3.org/Graphics/SVG/1.1/DTD/svg11.dtd" >
<svg xmlns="http://www.w3.org/2000/svg" xmlns:xlink="http://www.w3.org/1999/xlink" version="1.1" viewBox="-10 0 1010 1000">
   <path fill="currentColor"
d="M137 187l35 -9c19 51 33 116 37 159l-38 11c-3 -44 -17 -110 -34 -161zM126 139v241h99v-241h-99zM361 192v-53h-90v241h90v-178c-16 50 -33 108 -48 146l-30 -12c13 -42 32 -113 40 -158zM47 653l168 -9v-78h-146v-59h146v-73h-141v-349h341v349h-134v73h126v59h-126v74
c45 -2 92 -5 139 -8l-1 61c-133 10 -271 19 -370 25zM81 957l-49 -20c24 -50 52 -131 65 -183l46 20c-15 53 -39 133 -62 183zM178 760l45 -3c9 55 15 126 13 173l-48 5c2 -47 -3 -119 -10 -175zM263 754l44 -8c17 51 34 118 39 160l-47 9c-4 -43 -19 -110 -36 -161z
M345 741l43 -11c24 44 45 102 53 140l-47 15c-6 -39 -26 -99 -49 -144zM730 403h-65c-44 70 -108 134 -199 183c-7 -16 -26 -42 -40 -52c70 -36 123 -81 161 -131h-135v-61h173c14 -24 24 -49 31 -73c-115 10 -137 15 -152 21c-3 -14 -15 -49 -22 -67c15 -3 32 -14 50 -32
c20 -17 85 -82 126 -147l69 29c-41 52 -90 103 -138 143l194 -17c-21 -23 -41 -46 -61 -66l49 -32c51 52 119 124 150 169l-51 38c-10 -16 -25 -35 -42 -56l-102 10c-8 26 -16 54 -28 80h236v61h-133c40 47 98 89 155 113c-12 15 -24 43 -29 61c-77 -39 -153 -106 -197 -174
zM790 576l48 30c-63 82 -186 164 -296 203c-7 -17 -23 -42 -35 -56c106 -29 227 -103 283 -177zM699 482l47 28c-45 66 -132 135 -212 172c-6 -16 -20 -42 -32 -55c73 -26 158 -86 197 -145zM885 671l51 34c-88 109 -261 208 -420 252c-7 -18 -22 -45 -35 -61
c155 -34 326 -126 404 -225z" />
</svg>
