<?xml version="1.0" standalone="no"?>
<!DOCTYPE svg PUBLIC "-//W3C//DTD SVG 1.1//EN" "http://www.w3.org/Graphics/SVG/1.1/DTD/svg11.dtd" >
<svg xmlns="http://www.w3.org/2000/svg" xmlns:xlink="http://www.w3.org/1999/xlink" version="1.1" viewBox="-10 0 1010 1000">
   <path fill="currentColor"
d="M461 409v-125c-97 56 -239 103 -356 125c-11 -15 -29 -40 -45 -53c108 -16 235 -51 327 -93h-311v-55h385v-52h-212c-21 20 -44 37 -65 52c-16 -11 -49 -27 -69 -35c57 -33 110 -80 140 -130l76 18c-8 14 -18 26 -29 39h159v-54h74v54h335v56h-335v52h405v55h-319
c88 43 208 76 315 92c-15 13 -34 37 -45 52c-120 -23 -261 -71 -356 -131v133h-74zM543 891h3v-426h-96v376c0 40 14 50 93 50zM175 779h213v-51h-213v51zM388 639h-213v48h213v-48zM203 521h185v-56h-185v56zM799 519v-54h-190v54h190zM826 641h-217v45h217v-45zM609 773
h217v-47h-217v47zM609 891h232c53 0 64 -12 69 -76c15 10 38 17 56 20c-9 83 -29 105 -121 105h-301c-121 0 -156 -19 -156 -100v-18h-282v-225h282v-35h-253v-140h734v139h-260v37h286v217h-286v76z" />
</svg>
