<?xml version="1.0" standalone="no"?>
<!DOCTYPE svg PUBLIC "-//W3C//DTD SVG 1.1//EN" "http://www.w3.org/Graphics/SVG/1.1/DTD/svg11.dtd" >
<svg xmlns="http://www.w3.org/2000/svg" xmlns:xlink="http://www.w3.org/1999/xlink" version="1.1" viewBox="-10 0 1010 1000">
   <path fill="currentColor"
d="M796 155h-175c15 22 31 52 36 72l-11 4h114c11 -20 26 -53 36 -76zM674 341v-60h-200v-50h126c-8 -21 -21 -47 -33 -66l28 -10h-85v-50h170c-6 -20 -14 -42 -22 -60l68 -13c11 22 22 49 29 73h166v50h-99l32 11c-14 23 -26 46 -38 65h134v50h-207v60h177v50h-177v59h-69
v-59h-171v-50h171zM384 124h-210v48v22h210v-70zM209 333v59h183v-59h-183zM150 440v-109c-13 38 -31 74 -60 105c-10 -14 -38 -38 -52 -46c61 -68 70 -154 70 -220v-93h342v165h-280c-2 14 -4 28 -7 43h291v155h-304zM544 899v-384h-94v336c0 38 14 48 94 48zM175 764v48
h213v-48h-213zM388 678h-213v47h213v-47zM203 557h185v-42h-185v42zM800 555v-40h-193v40h193zM826 678h-219v45h219v-45zM607 808h219v-46h-219v46zM607 899h232c53 0 64 -12 69 -75c16 9 38 16 56 19c-9 81 -29 104 -121 104h-299c-119 0 -155 -18 -156 -93h-282v-218h282
v-38h-253v-125h735v123h-263v40h288v214h-288v49z" />
</svg>
