<?xml version="1.0" standalone="no"?>
<!DOCTYPE svg PUBLIC "-//W3C//DTD SVG 1.1//EN" "http://www.w3.org/Graphics/SVG/1.1/DTD/svg11.dtd" >
<svg xmlns="http://www.w3.org/2000/svg" xmlns:xlink="http://www.w3.org/1999/xlink" version="1.1" viewBox="-10 0 1010 1000">
   <path fill="currentColor"
d="M206 387v258h237v307h-69v-146h-120c-2 51 -29 115 -166 153c-9 -15 -28 -35 -41 -46c117 -31 140 -73 143 -107h-137v-55h321v-55h-229v-20h-9v-289h70zM654 367v-49h-303v49h303zM654 458v-50h-303v50h303zM654 550v-50h-303v50h303zM724 275v318h-440v-318h440z
M626 695v59h279v196h-69v-137h-210v138h-70v-307h245v-255h72v306h-247zM718 167h208s-1 17 -2 26c-6 81 -13 118 -30 136c-12 13 -27 18 -48 19c-18 2 -52 2 -87 0c-1 -17 -7 -41 -16 -58c31 4 58 4 70 4c11 0 17 0 23 -7c7 -7 11 -24 15 -63h-225c7 -21 15 -46 23 -72
h-273c-49 111 -160 169 -288 205c-9 -15 -33 -42 -48 -55c117 -26 213 -70 257 -150h-185v-63h626c-7 27 -13 53 -20 78z" />
</svg>
