<?xml version="1.0" standalone="no"?>
<!DOCTYPE svg PUBLIC "-//W3C//DTD SVG 1.1//EN" "http://www.w3.org/Graphics/SVG/1.1/DTD/svg11.dtd" >
<svg xmlns="http://www.w3.org/2000/svg" xmlns:xlink="http://www.w3.org/1999/xlink" version="1.1" viewBox="-10 0 1010 1000">
   <path fill="currentColor"
d="M918 446l-41 46c-35 -26 -85 -57 -141 -88c-62 33 -132 56 -205 71c-6 -15 -19 -37 -31 -49c61 -11 122 -29 176 -53c-45 -22 -91 -42 -135 -58l39 -41c50 18 104 41 156 68c33 -21 61 -45 83 -73h-297v-50h162v-57h-173v-50h173v-68h70v68h181v50h-181v57h102l12 -3
l38 19c-26 55 -66 99 -115 134c50 27 94 54 127 77zM254 169v-34h-191v-44h191v-47h69v47h175v44h-175v34h161v43h-396v-43h166zM353 368h-141c11 19 20 41 23 57l97 -6c7 -17 15 -36 21 -51zM168 284v45h235v-45h-235zM69 483l-4 -48l111 -7c-5 -17 -13 -40 -23 -56l17 -4
h-63v-123h360v123h-73l25 5c-9 16 -17 29 -25 42l104 -7l-1 43c-156 13 -316 24 -428 32zM814 778h-268c29 25 67 47 110 65c53 -19 116 -44 158 -65zM836 778l41 18c-49 27 -109 50 -164 67c72 23 153 38 237 45c-13 12 -28 36 -36 52c-183 -22 -351 -80 -438 -182h-202
v103l265 -35c-3 15 -6 40 -6 53c-293 43 -326 49 -347 59c-5 -16 -21 -45 -33 -59c19 -9 53 -33 53 -74v-47h-149v-49h153v-239h620v46h-547v38h527v41h-527v37h527v41h-527v36h664v49h-111z" />
</svg>
