<?xml version="1.0" standalone="no"?>
<!DOCTYPE svg PUBLIC "-//W3C//DTD SVG 1.1//EN" "http://www.w3.org/Graphics/SVG/1.1/DTD/svg11.dtd" >
<svg xmlns="http://www.w3.org/2000/svg" xmlns:xlink="http://www.w3.org/1999/xlink" version="1.1" viewBox="-10 0 1010 1000">
   <path fill="currentColor"
d="M610 63l68 8c-28 172 -83 313 -186 404c-5 -14 -24 -48 -37 -63c87 -77 133 -202 155 -349zM451 98v337h-371v-317c45 -14 113 -45 151 -64l37 45c-36 20 -83 37 -124 51v86h96v55h-96v86h243v-86h-108v-55h108v-81h-112v-57h176zM290 683l27 -12c23 26 50 62 65 86
c-2 -40 -3 -85 -4 -135l-33 19c-12 -18 -34 -48 -55 -72v114zM139 682l31 -14c22 22 48 54 64 75v-122l-30 19c-14 -20 -41 -51 -65 -75v117zM378 467h58c-5 272 -3 429 14 429c10 0 16 -30 18 -96c13 12 31 22 46 25c-8 97 -25 127 -68 127c-42 0 -58 -72 -64 -192l-39 20
c-12 -21 -33 -52 -53 -78v154l79 -31c2 15 6 36 9 47c-132 56 -154 68 -168 80c-5 -13 -20 -35 -30 -46c18 -11 54 -37 54 -82v-71l-34 19c-14 -21 -38 -54 -61 -80v165l56 -22c2 16 7 38 10 50c-102 45 -123 56 -135 67c-5 -15 -19 -39 -29 -50c16 -10 41 -32 41 -74v-361
h57v92l32 -18c22 20 46 47 63 67v-141h56v88l28 -14c21 22 45 49 60 71v-145zM880 435v32c-11 304 -21 411 -46 444c-16 21 -34 28 -59 30c-22 3 -60 3 -100 1c0 -20 -8 -47 -18 -66c38 4 74 5 88 5s23 -2 30 -13c18 -22 28 -114 37 -369h-112c-11 204 -44 356 -143 459
c-10 -12 -36 -35 -52 -44c94 -89 121 -232 129 -415h-97v-64h343zM737 67l64 -12c31 164 76 268 167 360c-18 14 -40 37 -50 57c-101 -106 -148 -224 -181 -405z" />
</svg>
