<?xml version="1.0" standalone="no"?>
<!DOCTYPE svg PUBLIC "-//W3C//DTD SVG 1.1//EN" "http://www.w3.org/Graphics/SVG/1.1/DTD/svg11.dtd" >
<svg xmlns="http://www.w3.org/2000/svg" xmlns:xlink="http://www.w3.org/1999/xlink" version="1.1" viewBox="-10 0 1010 1000">
   <path fill="currentColor"
d="M422 200v-40h-251v40h251zM422 283v-43h-251v43h251zM422 366v-42h-251v42h251zM486 118v290h-376v-290h126c9 -25 19 -56 24 -76l76 8c-10 25 -20 47 -30 68h180zM454 532v-43h-126v43h126zM454 619v-46h-126v46h126zM145 573v46h123v-46h-123zM145 489v43h123v-43h-123
zM519 447v214h-436v-214h436zM550 759h-126v198h-67v-198h-119c-14 96 -52 166 -148 209c-8 -15 -27 -39 -41 -50c80 -33 112 -85 125 -159h-125v-59h501v59zM867 863h19c7 0 14 -1 18 -6s7 -14 9 -27c2 -19 3 -68 2 -124c13 12 32 22 47 26c0 51 -3 117 -7 139
c-4 24 -12 37 -23 47c-12 9 -28 14 -45 14h-39c-19 0 -37 -5 -50 -18c-14 -14 -18 -31 -18 -80v-507h-93v43c0 202 -14 415 -138 587c-14 -12 -40 -31 -58 -40c119 -161 131 -360 131 -547v-43h-96v-68h96v-208h65v208h159v581c0 6 2 14 5 17c3 4 9 6 16 6z" />
</svg>
