<?xml version="1.0" standalone="no"?>
<!DOCTYPE svg PUBLIC "-//W3C//DTD SVG 1.1//EN" "http://www.w3.org/Graphics/SVG/1.1/DTD/svg11.dtd" >
<svg xmlns="http://www.w3.org/2000/svg" xmlns:xlink="http://www.w3.org/1999/xlink" version="1.1" viewBox="-10 0 1010 1000">
   <path fill="currentColor"
d="M446 532v-43h-124v43h124zM446 618v-45h-124v45h124zM136 573v45h127v-45h-127zM136 489v43h127v-43h-127zM507 447v213h-429v-213h429zM43 761v-60h491v60h-106v195h-67v-195h-125c-15 95 -52 163 -149 206c-7 -15 -26 -39 -41 -50c80 -32 112 -84 125 -156h-128z
M722 419h-105v218h105v-218zM777 697h-160v57h-54v-395h214v338zM405 200v-40h-232v40h232zM405 282v-42h-232v42h232zM405 365v-42h-232v42h232zM644 180h292s-1 29 -1 38c-16 485 -29 646 -68 694c-20 29 -42 37 -74 41c-30 2 -80 1 -129 -2c-1 -19 -8 -49 -21 -68
c54 5 103 6 125 6c17 0 28 -4 39 -18c30 -35 47 -194 59 -621h-255c-27 52 -57 101 -92 139c-11 -13 -34 -31 -49 -41v59h-359v-290h126c9 -25 19 -54 25 -75l74 10c-10 24 -20 46 -29 65h163v226c69 -80 121 -201 147 -299l70 16c-12 38 -26 79 -43 120z" />
</svg>
