<?xml version="1.0" standalone="no"?>
<!DOCTYPE svg PUBLIC "-//W3C//DTD SVG 1.1//EN" "http://www.w3.org/Graphics/SVG/1.1/DTD/svg11.dtd" >
<svg xmlns="http://www.w3.org/2000/svg" xmlns:xlink="http://www.w3.org/1999/xlink" version="1.1" viewBox="-10 0 1010 1000">
   <path fill="currentColor"
d="M498 265v60h-454v-60h68v-164h60v164h74v-221h63v88h157v57h-157v76h189zM318 348l41 5c-3 27 -8 51 -15 74c25 28 50 61 63 82l-29 31c-11 -19 -30 -46 -48 -70c-13 27 -29 52 -48 71c-6 -7 -21 -24 -31 -31c39 -39 59 -95 67 -162zM410 799l-30 31
c-11 -18 -31 -47 -50 -72c-12 28 -28 53 -48 72c-6 -7 -20 -23 -30 -31c40 -39 59 -97 67 -166l41 5c-3 27 -8 52 -15 76c25 28 52 63 65 85zM132 853l280 -13v-225h-280v184c37 -40 52 -99 59 -167l41 6c-3 26 -7 51 -13 75c19 22 39 48 49 64l-31 31
c-7 -14 -20 -31 -32 -49c-11 28 -26 53 -44 73c-6 -7 -19 -22 -29 -30v51zM412 558v-199h56v575h-56v-44l-336 20l1 -54v-497h55v153c37 -40 53 -98 59 -165l42 5c-3 26 -7 51 -13 74c18 22 37 47 46 62l-31 31c-7 -13 -18 -30 -29 -47c-12 28 -26 53 -44 72
c-6 -8 -19 -23 -30 -30v44h280zM944 270h-315c-23 43 -47 81 -72 112c-14 -12 -44 -36 -61 -47c61 -69 113 -178 144 -287l70 20c-13 45 -29 89 -48 131h282v71zM674 871h187c30 0 38 -17 41 -139c18 11 42 20 61 25c-7 161 -33 187 -103 187h-185c-86 0 -123 -35 -123 -94
c0 -45 9 -98 219 -380h-201v-69h263l16 -2l46 21c-2 6 -5 11 -8 15c-246 322 -262 372 -262 405c0 23 19 31 49 31z" />
</svg>
