<?xml version="1.0" standalone="no"?>
<!DOCTYPE svg PUBLIC "-//W3C//DTD SVG 1.1//EN" "http://www.w3.org/Graphics/SVG/1.1/DTD/svg11.dtd" >
<svg xmlns="http://www.w3.org/2000/svg" xmlns:xlink="http://www.w3.org/1999/xlink" version="1.1" viewBox="-10 0 1010 1000">
   <path fill="currentColor"
d="M474 265v60h-430v-60h65v-164h55v164h73v-221h59v88h150v57h-150v76h178zM184 347l41 5c-3 26 -7 51 -13 74c17 22 33 47 42 62l-28 31c-7 -13 -18 -30 -28 -46c-11 27 -25 52 -42 71c-5 -8 -20 -24 -29 -31c35 -40 51 -98 57 -166zM389 509l-28 31
c-10 -18 -28 -46 -45 -70c-12 27 -27 52 -44 71c-6 -7 -21 -24 -30 -31c38 -39 55 -95 63 -162l40 5c-3 27 -8 51 -15 75c23 27 46 60 59 81zM256 777l-29 31c-7 -14 -18 -32 -30 -50c-11 29 -25 54 -42 74c-5 -8 -20 -24 -29 -31c35 -40 51 -100 58 -169l40 6
c-3 26 -7 51 -14 76c19 21 36 47 46 63zM392 799l-28 31c-11 -18 -30 -46 -47 -71c-12 27 -27 52 -45 71c-5 -7 -20 -23 -29 -31c38 -39 55 -97 63 -166l39 5c-3 27 -8 52 -14 77c23 28 48 62 61 84zM126 853l267 -13v-225h-267v238zM393 558v-199h53v575h-53v-44l-319 20
v-551h52v199h267zM587 560v-154h64v154c0 135 -13 282 -125 397c-13 -15 -40 -34 -58 -44c108 -105 119 -235 119 -353zM783 956v-550h63v550h-63zM693 34l65 10c-4 13 -8 27 -12 40c48 123 137 244 229 303c-14 14 -35 39 -45 57c-81 -61 -161 -166 -214 -282
c-45 104 -115 207 -214 286c-9 -16 -28 -41 -41 -52c128 -99 201 -242 232 -362z" />
</svg>
