<?xml version="1.0" standalone="no"?>
<!DOCTYPE svg PUBLIC "-//W3C//DTD SVG 1.1//EN" "http://www.w3.org/Graphics/SVG/1.1/DTD/svg11.dtd" >
<svg xmlns="http://www.w3.org/2000/svg" xmlns:xlink="http://www.w3.org/1999/xlink" version="1.1" viewBox="-10 0 1010 1000">
   <path fill="currentColor"
d="M425 798l-33 27c-10 -18 -29 -44 -48 -67c-13 25 -29 48 -48 66c-7 -6 -24 -21 -33 -29c5 -6 11 -12 17 -17l-30 26c-8 -13 -22 -30 -35 -47c-12 26 -27 50 -46 68c-7 -6 -22 -21 -33 -29c40 -37 57 -93 65 -158l44 4c-3 26 -8 49 -15 72c21 21 40 45 52 62
c30 -37 45 -83 52 -137l43 4c-3 26 -9 50 -16 73c25 27 50 61 64 82zM130 854l303 -13v-222h-303v235zM433 563v-204h59v571h-59v-40l-360 20v-551h57v204h303zM202 362l45 5c-3 24 -8 49 -15 70c19 21 38 45 49 59l-33 29c-7 -12 -19 -29 -31 -44c-12 26 -28 49 -46 67
c-7 -7 -23 -21 -33 -29c40 -37 57 -92 64 -157zM334 363l44 5c-3 25 -9 49 -16 70c25 28 49 61 63 82l-32 26c-11 -18 -29 -43 -47 -66c-14 25 -30 48 -50 65c-6 -7 -23 -21 -32 -29c41 -36 61 -89 70 -153zM749 404h-138v184h138v-184zM671 883h176c42 0 49 -20 54 -120
c16 11 42 23 61 27c-9 120 -29 155 -111 155h-185c-94 0 -120 -22 -120 -108v-463c-6 7 -11 15 -17 22c-10 -13 -35 -38 -51 -51c6 -7 11 -14 17 -20h-451v-60h69v-164h62v164h85v-221h65v88h163v57h-163v76h192v29c42 -67 76 -151 98 -236l65 16c-8 34 -20 69 -32 102h292
v33c-3 343 -5 455 -27 488c-15 21 -33 29 -59 32c-24 2 -64 2 -105 0c-1 -20 -8 -46 -19 -64c42 4 80 4 96 4c12 0 20 -2 28 -14c13 -20 17 -123 19 -413h-252c-17 36 -36 72 -55 102h246v304h-201v189c0 38 9 46 60 46z" />
</svg>
