<?xml version="1.0" standalone="no"?>
<!DOCTYPE svg PUBLIC "-//W3C//DTD SVG 1.1//EN" "http://www.w3.org/Graphics/SVG/1.1/DTD/svg11.dtd" >
<svg xmlns="http://www.w3.org/2000/svg" xmlns:xlink="http://www.w3.org/1999/xlink" version="1.1" viewBox="-10 0 1010 1000">
   <path fill="currentColor"
d="M505 265v60h-461v-60h70v-164h59v164h79v-221h62v88h160v57h-160v76h191zM195 347l42 5c-3 26 -7 51 -13 75c18 21 36 46 45 62l-30 30c-7 -13 -19 -29 -30 -46c-11 27 -26 52 -44 72c-6 -8 -21 -25 -31 -32c38 -40 54 -98 61 -166zM415 509l-29 31
c-11 -19 -31 -46 -50 -71c-12 28 -28 53 -48 72c-6 -7 -21 -24 -32 -31c41 -39 60 -95 68 -163l42 6c-3 26 -8 50 -15 74c25 27 51 60 64 82zM272 777l-31 31c-8 -14 -20 -31 -32 -49c-12 28 -27 53 -45 73c-6 -8 -21 -24 -31 -31c38 -40 54 -100 61 -169l42 6
c-3 26 -7 51 -14 75c20 22 40 48 50 64zM418 799l-30 31c-12 -18 -32 -47 -51 -72c-12 28 -28 53 -48 72c-6 -7 -22 -23 -31 -31c40 -39 59 -97 68 -166l41 5c-3 27 -8 52 -15 76c25 28 52 63 66 85zM133 854l287 -13v-226h-287v239zM420 558v-199h56v575h-56v-44l-342 20
v-551h55v199h287zM886 506l41 34c-43 96 -124 206 -184 278c31 32 60 65 81 90l-46 47c-43 -57 -132 -154 -199 -220l43 -40c25 23 52 51 80 80c45 -53 102 -132 140 -201h-303v-64h336zM653 339l51 -25c30 45 65 103 84 141l-51 34c-18 -38 -55 -103 -84 -150zM699 45
l57 20c-5 14 -10 27 -15 40c53 106 143 223 219 282c-15 13 -34 40 -45 57c-68 -61 -146 -169 -201 -276c-48 104 -111 205 -183 280c-10 -13 -31 -36 -45 -47c93 -92 172 -233 213 -356z" />
</svg>
