<?xml version="1.0" standalone="no"?>
<!DOCTYPE svg PUBLIC "-//W3C//DTD SVG 1.1//EN" "http://www.w3.org/Graphics/SVG/1.1/DTD/svg11.dtd" >
<svg xmlns="http://www.w3.org/2000/svg" xmlns:xlink="http://www.w3.org/1999/xlink" version="1.1" viewBox="-10 0 1010 1000">
   <path fill="currentColor"
d="M492 265v60h-451v-60h71v-164h59v164h79v-221h63v88h154v57h-154v76h179zM321 348l43 5c-4 26 -9 51 -16 74c25 27 51 61 65 82l-30 31c-12 -19 -31 -46 -50 -70c-13 27 -29 52 -48 71c-6 -7 -22 -24 -33 -31c42 -39 60 -95 69 -162zM131 853l282 -12v-40l-28 29
c-12 -18 -32 -47 -51 -73c-13 28 -29 54 -48 73c-6 -7 -23 -23 -31 -31c40 -39 59 -97 67 -166l42 5c-3 27 -8 52 -15 76c24 27 49 60 64 82v-181h-282v183c37 -40 53 -99 60 -166l43 6c-3 26 -8 51 -14 75c19 22 38 48 48 64l-30 31c-8 -14 -20 -32 -33 -49
c-11 28 -26 53 -44 73c-6 -7 -20 -21 -30 -29v50zM413 359h57v575h-57v-44l-338 20v-551h56v152c38 -40 54 -97 61 -165l42 6c-3 26 -7 51 -13 74c18 22 36 47 46 62l-31 31c-7 -13 -18 -30 -30 -47c-11 28 -26 53 -45 72c-5 -8 -19 -22 -30 -30v44h282v-199zM580 530h111
c-3 -36 -5 -74 -7 -113h-104v113zM678 233h-98v121h101c-1 -39 -2 -79 -3 -121zM863 233h-119c1 42 2 82 3 121h116v-121zM757 530h106v-113h-114c2 40 5 78 8 113zM884 616l60 24c-35 62 -83 117 -141 164c20 54 45 83 76 83c21 0 31 -31 35 -129c14 14 37 30 52 37
c-11 125 -31 162 -95 162c-55 0 -94 -40 -123 -113c-69 46 -146 81 -229 104c-9 -19 -29 -46 -44 -61c91 -22 179 -60 252 -109c-13 -52 -23 -113 -30 -183h-117v59h-67v-486h164c-1 -40 -1 -81 -1 -123h69c-1 43 -1 83 -1 123h185v427h-166c6 53 13 100 21 139
c40 -35 74 -75 100 -118z" />
</svg>
