<?xml version="1.0" standalone="no"?>
<!DOCTYPE svg PUBLIC "-//W3C//DTD SVG 1.1//EN" "http://www.w3.org/Graphics/SVG/1.1/DTD/svg11.dtd" >
<svg xmlns="http://www.w3.org/2000/svg" xmlns:xlink="http://www.w3.org/1999/xlink" version="1.1" viewBox="-10 0 1010 1000">
   <path fill="currentColor"
d="M948 185v69h-463v-69h223c-13 -32 -40 -82 -63 -119l60 -28c24 37 53 85 66 117l-58 30h235zM760 313l54 -34c49 63 115 150 146 201l-57 42c-31 -53 -94 -143 -143 -209zM469 267v59h-424v-59h67v-166h58v166h80v-223h61v88h126v57h-126v78h158zM299 349l39 4
c-3 25 -6 47 -12 69c23 29 46 63 59 86l-30 30c-10 -19 -26 -46 -42 -70c-11 27 -25 51 -43 71c-5 -8 -19 -23 -29 -31c36 -38 51 -94 58 -159zM260 484l-33 26c-5 -12 -14 -26 -23 -42c-11 28 -25 53 -41 72c-5 -7 -20 -23 -29 -30c35 -40 49 -96 55 -162l40 4
c-3 24 -6 47 -11 69c16 22 33 46 42 63zM134 853l257 -12v-225h-257v185c36 -42 49 -102 55 -171l41 6c-3 26 -7 52 -13 76c17 21 34 44 42 61c24 -38 34 -86 39 -142l40 6c-2 25 -6 49 -11 72c23 29 46 64 59 87l-31 30c-9 -19 -26 -45 -42 -70c-10 29 -24 53 -42 74
c-6 -8 -20 -24 -30 -32c6 -7 12 -13 17 -21l-29 24c-6 -12 -15 -27 -25 -42c-10 28 -24 55 -41 75c-6 -7 -19 -21 -29 -29v48zM391 558v-199h54v565h-54v-32l-312 18v-551h55v199h257zM601 280l66 22c-39 79 -96 169 -143 228c-12 -13 -40 -36 -56 -45
c49 -54 99 -134 133 -205zM801 461l66 17c-23 93 -57 176 -104 249c55 73 123 131 201 166c-16 15 -37 43 -48 62c-75 -38 -140 -97 -195 -169c-55 69 -122 127 -203 172c-9 -16 -31 -42 -46 -55c86 -45 155 -104 209 -176c-44 -72 -80 -155 -107 -243l63 -18
c21 70 49 138 85 198c36 -61 62 -128 79 -203z" />
</svg>
