<?xml version="1.0" standalone="no"?>
<!DOCTYPE svg PUBLIC "-//W3C//DTD SVG 1.1//EN" "http://www.w3.org/Graphics/SVG/1.1/DTD/svg11.dtd" >
<svg xmlns="http://www.w3.org/2000/svg" xmlns:xlink="http://www.w3.org/1999/xlink" version="1.1" viewBox="-10 0 1010 1000">
   <path fill="currentColor"
d="M502 265v60h-458v-60h71v-164h60v164h79v-221h64v88h160v57h-160v76h184zM324 347l43 6c-3 26 -8 50 -15 74c25 27 51 61 65 82l-31 31c-11 -19 -31 -46 -50 -70c-13 27 -29 52 -49 71c-6 -7 -21 -24 -32 -31c41 -39 61 -95 69 -163zM135 853l282 -12v-40l-28 29
c-12 -18 -33 -47 -52 -72c-13 28 -29 53 -49 72c-6 -7 -22 -23 -32 -31c41 -39 61 -97 69 -166l43 5c-4 27 -9 52 -16 76c25 27 50 61 65 82v-181h-282v181c35 -40 50 -98 57 -164l43 6c-3 26 -7 51 -14 75c20 22 40 48 50 65l-31 30c-8 -14 -21 -31 -33 -49
c-12 28 -27 53 -45 73c-6 -7 -17 -19 -27 -27v48zM417 359h57v575h-57v-44l-339 20v-551h57v150c36 -40 51 -96 58 -162l43 5c-3 26 -7 51 -14 74c19 22 38 47 48 63l-32 30c-7 -13 -19 -29 -30 -46c-12 27 -27 52 -45 71c-5 -6 -17 -20 -28 -28v42h282v-199zM843 665h-229
v183h229v-183zM546 958v-356h368v349h-71v-39h-229v46h-68zM821 318h-127c-9 50 -17 98 -24 139h151v-139zM889 457h68v65h-458v-65h101c8 -41 17 -89 24 -139h-80v-61h90c5 -37 11 -74 15 -108h-129v-63h409v63h-210c-4 34 -10 72 -16 108h186v200z" />
</svg>
