<?xml version="1.0" standalone="no"?>
<!DOCTYPE svg PUBLIC "-//W3C//DTD SVG 1.1//EN" "http://www.w3.org/Graphics/SVG/1.1/DTD/svg11.dtd" >
<svg xmlns="http://www.w3.org/2000/svg" xmlns:xlink="http://www.w3.org/1999/xlink" version="1.1" viewBox="-10 0 1010 1000">
   <path fill="currentColor"
d="M274 489l-32 30c-7 -13 -19 -29 -30 -47c-12 28 -27 53 -45 72c-6 -7 -21 -24 -32 -31c39 -40 55 -98 62 -167l44 6c-3 26 -8 51 -14 74c18 23 37 47 47 63zM135 853l283 -13v-36l-25 26c-12 -18 -32 -47 -52 -72c-13 28 -29 53 -49 72c-6 -7 -22 -23 -31 -31
c40 -39 60 -97 68 -166l43 5c-3 27 -8 52 -15 76c23 25 46 56 61 77v-176h-283v185c38 -40 54 -100 61 -168l44 6c-3 26 -8 51 -14 75c19 22 39 48 50 64l-32 31c-8 -14 -20 -32 -33 -50c-12 28 -27 54 -45 74c-7 -8 -21 -23 -31 -30v51zM418 504v-145h58v575h-58v-44
l-340 20v-551h57v199h283v-46l-27 28c-12 -19 -31 -47 -50 -71c-13 28 -30 53 -50 72c-6 -7 -21 -24 -31 -31c40 -39 60 -95 68 -163l43 6c-3 26 -8 50 -15 74c23 25 47 56 62 77zM318 189v76h181v60h-455v-60h71v-164h60v164h79v-221h64v88h144v57h-144zM851 570h-222v105
h222v-105zM629 845h222v-108h-222v108zM564 956v-449h355v449h-68v-47h-222v47h-65zM669 233v132h121v-132h-121zM857 365h99v64h-445v-64h91v-132h-73v-63h73v-125h67v125h121v-125h67v125h82v63h-82v132z" />
</svg>
