<?xml version="1.0" standalone="no"?>
<!DOCTYPE svg PUBLIC "-//W3C//DTD SVG 1.1//EN" "http://www.w3.org/Graphics/SVG/1.1/DTD/svg11.dtd" >
<svg xmlns="http://www.w3.org/2000/svg" xmlns:xlink="http://www.w3.org/1999/xlink" version="1.1" viewBox="-10 0 1010 1000">
   <path fill="currentColor"
d="M262 484l-33 26c-6 -11 -15 -27 -23 -41c-11 27 -25 52 -41 71c-6 -8 -21 -23 -30 -30c35 -40 49 -96 55 -163l42 5c-3 24 -6 47 -11 69c15 21 32 46 41 63zM135 853l258 -12v-225h-258v185c35 -42 48 -102 55 -171l41 6c-3 26 -7 51 -12 76c17 20 33 44 43 60
c23 -38 33 -86 38 -141l41 6c-3 25 -7 49 -12 73c23 28 46 64 59 86l-31 29c-9 -18 -25 -45 -42 -69c-10 28 -24 53 -42 73c-6 -7 -20 -23 -31 -31c6 -7 12 -14 17 -21l-28 24c-6 -12 -16 -27 -26 -42c-10 29 -24 55 -41 75c-7 -7 -19 -21 -29 -29v48zM393 558v-199h55v565
h-55v-32l-314 18v-16h-1v-535h57v199h258zM301 348l40 5c-3 25 -7 48 -12 70c23 29 45 62 58 85l-30 29c-10 -18 -26 -45 -42 -68c-11 26 -25 50 -43 69c-5 -7 -19 -22 -29 -30c36 -38 52 -94 58 -160zM313 189v78h161v59h-429v-59h67v-166h59v166h80v-223h62v88h127v57
h-127zM575 411h102v-118h-102v118zM846 293h-109v118h109v-118zM929 554v336c0 33 -7 48 -31 58c-23 9 -62 10 -125 10c-3 -17 -11 -38 -19 -53c45 1 86 1 97 0c12 -1 15 -4 15 -15v-274h-129v125l61 -4c-8 -24 -18 -49 -27 -70l34 -12c25 51 46 118 53 162l-36 13
c-2 -14 -5 -28 -9 -44c-83 9 -161 16 -229 23l-7 -59c29 -1 63 -3 100 -6v-128h-119v342h-61v-404h180v-82h-164v-240h164v-88c-58 7 -119 12 -175 16c-3 -15 -12 -40 -19 -54c134 -11 295 -31 384 -58l53 52c-52 15 -115 27 -183 36v96h173v240h-173v82h192z" />
</svg>
