<?xml version="1.0" standalone="no"?>
<!DOCTYPE svg PUBLIC "-//W3C//DTD SVG 1.1//EN" "http://www.w3.org/Graphics/SVG/1.1/DTD/svg11.dtd" >
<svg xmlns="http://www.w3.org/2000/svg" xmlns:xlink="http://www.w3.org/1999/xlink" version="1.1" viewBox="-10 0 1010 1000">
   <path fill="currentColor"
d="M869 263v-125h-85v125h85zM925 81v239h-194v-239h194zM529 449v-62h365v62h-365zM631 263v-125h-82v125h82zM687 81v239h-192v-239h192zM259 483l-33 27c-5 -12 -14 -27 -23 -42c-11 28 -25 53 -41 72c-5 -8 -20 -23 -29 -30c35 -40 49 -96 56 -163l39 5
c-3 23 -6 47 -11 68c16 22 33 47 42 63zM133 853l257 -12v-225h-257v185c35 -42 48 -102 56 -171l40 6c-3 26 -7 51 -13 76c17 21 34 44 42 61c24 -38 34 -86 40 -142l40 5c-3 26 -7 51 -12 73c23 28 46 63 59 87l-31 29c-9 -18 -25 -45 -42 -69c-10 28 -24 53 -42 73
c-5 -7 -20 -23 -30 -31c6 -7 12 -14 17 -22l-29 25c-6 -12 -15 -28 -25 -42c-10 28 -24 55 -41 75c-6 -7 -19 -21 -29 -29v48zM390 558v-199h53v565h-53v-32l-312 18v-551h55v199h257zM298 348l39 5c-3 25 -6 47 -12 69c23 29 46 63 59 86l-30 29c-10 -18 -26 -45 -42 -69
c-11 27 -25 51 -42 70c-6 -7 -20 -22 -30 -30c36 -38 52 -94 58 -160zM309 189v78h160v59h-424v-59h67v-166h57v166h80v-223h60v88h127v57h-127zM955 583h-298c-7 25 -16 49 -24 73h263s-2 21 -4 31c-22 146 -42 212 -72 238c-18 17 -35 23 -61 24c-24 2 -69 2 -116 -1
c-1 -21 -9 -48 -20 -67c48 5 93 6 111 6s27 -1 35 -9c20 -16 38 -62 53 -161h-279c16 -36 33 -87 47 -134h-100v-63h465v63z" />
</svg>
