<?xml version="1.0" standalone="no"?>
<!DOCTYPE svg PUBLIC "-//W3C//DTD SVG 1.1//EN" "http://www.w3.org/Graphics/SVG/1.1/DTD/svg11.dtd" >
<svg xmlns="http://www.w3.org/2000/svg" xmlns:xlink="http://www.w3.org/1999/xlink" version="1.1" viewBox="-10 0 1010 1000">
   <path fill="currentColor"
d="M535 345v62h-489v-62h77v-241h64v241h92v-299h69v123h160v58h-160v118h187zM275 428l59 4c-6 58 -15 111 -28 160c44 52 90 113 113 154l-42 38c-19 -35 -53 -86 -89 -132c-21 61 -49 112 -87 153c-9 -11 -31 -33 -44 -42c73 -75 105 -194 118 -335zM425 836v-372h65v479
h-65v-48l-343 20v-454h65v389zM747 869h107c27 0 32 -32 35 -155c18 14 47 28 67 32c-7 141 -24 192 -97 192h-121c-76 0 -98 -26 -98 -119v-245c-28 23 -56 44 -83 63c-12 -15 -36 -36 -53 -49c44 -28 90 -65 136 -105v-430h72v364c63 -64 121 -133 165 -203l67 41
c-64 91 -147 181 -232 259v306c0 41 6 49 35 49z" />
</svg>
