<?xml version="1.0" standalone="no"?>
<!DOCTYPE svg PUBLIC "-//W3C//DTD SVG 1.1//EN" "http://www.w3.org/Graphics/SVG/1.1/DTD/svg11.dtd" >
<svg xmlns="http://www.w3.org/2000/svg" xmlns:xlink="http://www.w3.org/1999/xlink" version="1.1" viewBox="-10 0 1010 1000">
   <path fill="currentColor"
d="M399 835v-393h60v499h-60v-49l-319 19v-463h61v398zM255 431l58 6c-5 57 -13 111 -25 161c39 50 79 114 97 154l-44 37c-15 -33 -43 -79 -71 -122c-19 57 -44 108 -78 149c-8 -10 -30 -32 -43 -42c66 -78 93 -202 106 -343zM326 228v119h155v59h-434v-59h65v-245h63v245
h84v-299h67v119h138v61h-138zM873 236h-262c-25 47 -53 88 -83 122c-9 -12 -34 -38 -49 -50c59 -63 107 -158 136 -255l65 16c-11 34 -23 69 -37 101h297v33c-3 343 -5 455 -27 488c-15 21 -33 29 -60 32c-23 2 -63 3 -104 0c-1 -19 -8 -46 -19 -64c41 4 79 4 95 4
c13 0 21 -2 28 -13c14 -21 18 -123 20 -414zM747 397h-138v185h138v-185zM668 882h178c41 0 48 -20 53 -120c16 11 41 22 59 26c-9 120 -28 154 -108 154h-186c-92 0 -118 -21 -118 -105v-499h262v303h-199v195c0 38 9 46 59 46z" />
</svg>
