<?xml version="1.0" standalone="no"?>
<!DOCTYPE svg PUBLIC "-//W3C//DTD SVG 1.1//EN" "http://www.w3.org/Graphics/SVG/1.1/DTD/svg11.dtd" >
<svg xmlns="http://www.w3.org/2000/svg" xmlns:xlink="http://www.w3.org/1999/xlink" version="1.1" viewBox="-10 0 1010 1000">
   <path fill="currentColor"
d="M133 853l250 -12v-86l-35 41c-20 -37 -57 -92 -92 -140c-21 62 -48 116 -83 159c-8 -12 -27 -34 -40 -43v81zM383 747v-293h56v480h-56v-42l-306 19l1 -56v-402h55v317c65 -77 97 -197 111 -338l55 7c-6 55 -15 106 -26 153c41 50 86 113 110 155zM300 224v121h173v63
h-420v-63h55v-229h56v229h77v-301h59v119h158v61h-158zM585 411h98v-118h-98v118zM848 293h-106v118h106v-118zM928 554v336c0 33 -7 48 -30 58c-23 9 -61 10 -122 10c-3 -17 -11 -38 -19 -53c43 1 83 1 94 0s15 -4 15 -15v-274h-124v125l60 -4c-8 -24 -17 -49 -26 -70
l33 -12c24 51 44 118 51 162l-35 13c-2 -13 -5 -28 -9 -44c-81 9 -157 16 -222 23l-7 -59c28 -1 61 -3 96 -5v-129h-113v342h-60v-404h173v-82h-159v-240h159v-88c-57 7 -116 12 -170 16c-2 -15 -11 -39 -18 -54c131 -11 287 -31 373 -58l53 52c-50 15 -113 27 -179 36v96
h169v240h-169v82h186z" />
</svg>
