<?xml version="1.0" standalone="no"?>
<!DOCTYPE svg PUBLIC "-//W3C//DTD SVG 1.1//EN" "http://www.w3.org/Graphics/SVG/1.1/DTD/svg11.dtd" >
<svg xmlns="http://www.w3.org/2000/svg" xmlns:xlink="http://www.w3.org/1999/xlink" version="1.1" viewBox="-10 0 1010 1000">
   <path fill="currentColor"
d="M654 132v60h-278v-60h112c-8 -25 -17 -52 -26 -76l59 -11c11 26 25 60 33 87h100zM493 318l-51 17c-6 -32 -21 -82 -35 -119l48 -14c15 37 31 85 38 116zM277 507v-98h-101v98h101zM176 670h101v-99h-101v99zM186 42l63 10c-7 41 -14 80 -23 118h136v69h-153
c-8 36 -19 70 -31 103h161v530c0 30 -6 47 -24 57c-19 11 -47 12 -90 12c-2 -17 -11 -42 -19 -58c28 1 53 1 60 0c8 0 11 -3 11 -12v-137h-101v220h-61v-472c-14 23 -27 45 -43 64c-7 -14 -26 -49 -37 -64c49 -63 85 -148 111 -243h-92v-69h109c9 -41 17 -84 23 -128z
M455 713h121v-73h-121v73zM576 515h-121v73h121v-73zM636 459v418c0 29 -5 46 -24 57c-18 10 -45 11 -85 11c-3 -16 -11 -41 -20 -58c27 1 50 0 58 0s11 -2 11 -11v-111h-121v191h-61v-497h242zM573 197l55 16c-14 42 -29 89 -44 128h74v61h-295v-61h169
c16 -44 32 -102 41 -144zM781 883h90c20 0 25 -11 27 -73c14 12 39 23 58 27c-7 85 -26 110 -79 110h-104c-67 0 -86 -19 -86 -95v-444h177v-94h-177v-270h64v83h196v61h-196v69h178v208h-178v58h172v52h-172v59h165v52h-165v61h182v51h-182v54c0 26 5 31 30 31z" />
</svg>
