<?xml version="1.0" standalone="no"?>
<!DOCTYPE svg PUBLIC "-//W3C//DTD SVG 1.1//EN" "http://www.w3.org/Graphics/SVG/1.1/DTD/svg11.dtd" >
<svg xmlns="http://www.w3.org/2000/svg" xmlns:xlink="http://www.w3.org/1999/xlink" version="1.1" viewBox="-10 0 1010 1000">
   <path fill="currentColor"
d="M141 189v101h-62v-143h382v-30h-320v-45h720v45h-328v30h388v143h-65v-101h-323v134h-72v-134h-320zM169 321v-38h243v38h-243zM192 217h219v38h-219v-38zM555 418v-33h-115v33h115zM614 349v104h-230v-104h230zM833 283v38h-251v-38h251zM582 217h227v38h-227v-38z
M830 418v-33h-117v33h117zM890 349v104h-234v-104h234zM177 824h217v-37h-217v37zM394 715h-217v36h217v-36zM460 676v228c0 29 -7 39 -29 46c-20 7 -58 7 -117 7c-2 -14 -8 -28 -15 -41c38 2 71 2 81 2c11 -1 14 -4 14 -13v-44h-217v95h-65v-280h348zM359 544h-157
c11 17 20 37 26 54h104c10 -17 20 -37 27 -54zM283 418v-33h-111v33h111zM392 544l29 9c-9 17 -19 31 -29 45h120v44h-458v-44h113c-6 -16 -14 -32 -22 -46l28 -8h-92v-44h166c-4 -12 -8 -24 -13 -33l49 -14h-168v-104h227v104h-47c8 15 15 32 19 47h176v44h-98zM674 909
h182c34 0 41 -9 45 -60c15 8 37 15 55 18c-5 65 -26 84 -92 84h-196c-92 0 -121 -12 -121 -73v-246h283v-38h-283v-131h68v22h307v40h-307v32h282v113h-282v33h262v35h-262v32h257v35h-257v32h269v35h-269v5c0 27 10 32 59 32z" />
</svg>
