<?xml version="1.0" standalone="no"?>
<!DOCTYPE svg PUBLIC "-//W3C//DTD SVG 1.1//EN" "http://www.w3.org/Graphics/SVG/1.1/DTD/svg11.dtd" >
<svg xmlns="http://www.w3.org/2000/svg" xmlns:xlink="http://www.w3.org/1999/xlink" version="1.1" viewBox="-10 0 1010 1000">
   <path fill="currentColor"
d="M332 227h349c-66 -27 -127 -60 -175 -97c-50 37 -110 70 -174 97zM290 274v-30c-69 27 -141 49 -211 65c-8 -14 -28 -46 -39 -60c181 -37 375 -105 472 -207l63 27c-9 10 -19 19 -28 28c99 68 268 120 422 143c-15 14 -35 41 -43 60c-74 -14 -153 -37 -225 -65v39h-411z
M246 377v67h508v-67h-508zM174 494v-167h655v167h-655zM651 884h193c42 0 50 -13 54 -96c15 11 39 19 57 23c-8 101 -28 127 -105 127h-203c-85 0 -115 -13 -122 -61c-55 16 -112 29 -166 38c-8 -15 -24 -38 -39 -52c66 -11 136 -26 203 -44v-142h-104
c-60 145 -170 228 -336 281c-8 -15 -30 -44 -43 -56c151 -40 251 -109 304 -225h-278v-60h300c9 -30 16 -62 20 -96l73 4c-5 33 -12 63 -20 92h287c-38 -24 -92 -53 -135 -74l37 -36c50 21 118 57 154 80l-26 30h173v60h-342v123c83 -26 160 -59 213 -94l57 34
c-70 47 -167 87 -270 120c2 20 15 24 64 24z" />
</svg>
