<?xml version="1.0" standalone="no"?>
<!DOCTYPE svg PUBLIC "-//W3C//DTD SVG 1.1//EN" "http://www.w3.org/Graphics/SVG/1.1/DTD/svg11.dtd" >
<svg xmlns="http://www.w3.org/2000/svg" xmlns:xlink="http://www.w3.org/1999/xlink" version="1.1" viewBox="-10 0 1010 1000">
   <path fill="currentColor"
d="M334 584l-41 53c-12 -29 -39 -81 -63 -124v443h-64v-403c-27 86 -61 170 -94 224c-8 -18 -25 -47 -36 -64c48 -72 97 -203 125 -316h-111v-68h116v-162c-33 8 -66 14 -97 19c-4 -16 -13 -38 -22 -54c83 -16 179 -41 230 -70l53 53c-29 14 -63 26 -100 37v177h100v68h-100
v35c23 31 89 128 104 152zM716 518l32 -22c14 18 29 36 42 57c9 -22 18 -43 25 -65l37 11c-11 30 -23 61 -37 90c17 26 31 52 41 72l-34 26c-8 -16 -18 -36 -30 -55c-12 22 -26 44 -40 62c-7 -7 -22 -19 -32 -26c17 -21 34 -47 49 -74c-17 -27 -35 -54 -53 -76zM601 273v548
c0 29 6 44 23 48c9 2 20 3 33 4v-599h158v-88h-366v88h96v-1h56zM862 708v-248h-153v248h153zM714 873h81c27 0 59 0 71 -3c14 -1 28 -6 33 -15s9 -33 10 -64c13 10 32 19 49 23c-2 32 -7 65 -17 79c-9 14 -27 22 -50 26c-21 4 -63 6 -95 6h-120c-31 0 -68 -3 -92 -13
c-26 -11 -39 -28 -39 -97v-55h-37v90h-157v-43h105v-47h-134v-44h134v-46h-105v-43h157v89h37v-212h-37v84h-157v-42h106v-42h-130v-44h130v-41h-103v-43h154v84h37v-131h-154v-195h147c23 -27 43 -60 57 -88l60 15c-13 23 -27 49 -43 73h261v192h-159v84h201v348h-201v115z
" />
</svg>
