<?xml version="1.0" standalone="no"?>
<!DOCTYPE svg PUBLIC "-//W3C//DTD SVG 1.1//EN" "http://www.w3.org/Graphics/SVG/1.1/DTD/svg11.dtd" >
<svg xmlns="http://www.w3.org/2000/svg" xmlns:xlink="http://www.w3.org/1999/xlink" version="1.1" viewBox="-10 0 1010 1000">
   <path fill="currentColor"
d="M885 271h-211c-23 77 -52 146 -85 199c-12 -10 -40 -29 -56 -38c65 -92 104 -238 126 -389l62 11c-7 51 -17 101 -29 149h216l10 -4l45 16c-21 89 -52 194 -81 259l-53 -20c20 -47 40 -116 56 -183zM184 252h268c-47 -40 -103 -86 -153 -124c-33 43 -72 86 -115 124z
M165 308v-40c-33 28 -68 54 -104 74c-5 -14 -18 -42 -28 -56c101 -59 202 -157 250 -247l61 22c-4 7 -8 13 -11 19c81 61 182 140 235 190l-45 48c-17 -17 -39 -38 -63 -59v49h-295zM440 400v93h49v-93h-49zM402 535v-178h126v178h-126zM282 401v93h50v-93h-50zM370 537
h-126v-178h126v178zM176 495v-93h-47v93h47zM214 359v178h-122v-178h122zM396 741h75v-103h-75v103zM272 741h73v-103h-73v103zM151 741h69v-103h-69v103zM776 330v70c0 29 -1 60 -3 95c32 190 86 306 195 408c-16 14 -34 36 -43 57c-88 -87 -140 -182 -177 -309
c-26 107 -80 219 -185 313c-8 -15 -23 -34 -36 -47c-3 11 -9 20 -19 27c-18 10 -42 11 -75 11c-3 -17 -11 -40 -20 -56c24 1 41 1 49 0c7 0 9 -3 9 -10v-95h-75v149h-51v-149h-73v149h-52v-149h-69v162h-58v-375h437v308v10c170 -157 183 -363 183 -500v-69h63z" />
</svg>
