<?xml version="1.0" standalone="no"?>
<!DOCTYPE svg PUBLIC "-//W3C//DTD SVG 1.1//EN" "http://www.w3.org/Graphics/SVG/1.1/DTD/svg11.dtd" >
<svg xmlns="http://www.w3.org/2000/svg" xmlns:xlink="http://www.w3.org/1999/xlink" version="1.1" viewBox="-10 0 1010 1000">
   <path fill="currentColor"
d="M411 224l-37 52c-34 -33 -89 -79 -140 -116c-32 49 -70 96 -109 136h249v64h-107v109h125v65h-125v276c41 -10 84 -19 126 -28l6 62c-114 27 -234 57 -325 79l-19 -69c40 -8 91 -19 147 -30v-290h-130v-65h130v-109h-91v-50c-13 13 -25 23 -37 34c-6 -14 -23 -48 -35 -64
c74 -57 148 -145 191 -237l59 21c-6 14 -14 30 -23 45c53 38 109 82 145 115zM336 765l-44 -14c16 -48 35 -128 43 -180l54 16c-17 60 -36 132 -53 178zM77 598l48 -13c20 59 43 135 52 185l-51 15c-9 -50 -31 -128 -49 -187zM663 746h109c16 0 40 -2 54 -4c1 16 4 43 5 57
c-12 4 -35 5 -57 5h-111c-68 0 -84 -23 -84 -93v-143h-54v-59h124v-103h-116v-59h64c-8 -38 -32 -94 -54 -136l47 -18c26 42 50 100 60 137l-44 17h144l-38 -14c19 -40 42 -103 53 -146l59 20c-21 48 -46 103 -64 140h67v59h-114v103h120v59h-192v144c0 26 4 34 22 34z
M931 91v782c0 41 -9 59 -35 71c-25 11 -68 13 -132 12c-3 -18 -12 -47 -21 -65c46 2 90 1 103 1c13 -1 17 -5 17 -19v-716h-365v802h-66v-868h499z" />
</svg>
