<?xml version="1.0" standalone="no"?>
<!DOCTYPE svg PUBLIC "-//W3C//DTD SVG 1.1//EN" "http://www.w3.org/Graphics/SVG/1.1/DTD/svg11.dtd" >
<svg xmlns="http://www.w3.org/2000/svg" xmlns:xlink="http://www.w3.org/1999/xlink" version="1.1" viewBox="-10 0 1010 1000">
   <path fill="currentColor"
d="M129 491v92h84v-92h-84zM129 347v90h84v-90h-84zM354 437v-90h-88v90h88zM354 583v-92h-88v92h88zM433 778h-162v179h-63v-179h-166v-61h166v-78h-134v-348h133v-73h-152v-61h152v-113h63v113h157v61h-157v73h142v348h-141v78h162v61zM442 932l-46 -28
c41 -43 61 -118 69 -190l51 12c-11 77 -29 159 -74 206zM549 721l48 -4c16 57 27 131 28 174l-49 6c-1 -44 -12 -118 -27 -176zM640 712l43 -12c26 46 53 106 63 144l-45 16c-10 -38 -36 -101 -61 -148zM847 784l-40 22c-15 -30 -47 -75 -76 -108l39 -19c30 32 63 76 77 105
zM800 191h-263v65h263v-65zM537 370h263v-65h-263v65zM959 536h-422v59h396s-1 19 -2 29c-15 202 -27 278 -53 306c-14 16 -30 22 -54 25c-19 1 -55 2 -91 0c-2 -19 -8 -45 -16 -62c34 3 65 4 79 4s21 -1 28 -9c16 -19 29 -79 40 -236h-392v-514h125c13 -31 26 -68 34 -95
l77 14c-14 29 -27 57 -40 81h196v285h-327v59h422v54z" />
</svg>
