<?xml version="1.0" standalone="no"?>
<!DOCTYPE svg PUBLIC "-//W3C//DTD SVG 1.1//EN" "http://www.w3.org/Graphics/SVG/1.1/DTD/svg11.dtd" >
<svg xmlns="http://www.w3.org/2000/svg" xmlns:xlink="http://www.w3.org/1999/xlink" version="1.1" viewBox="-10 0 1010 1000">
   <path fill="currentColor"
d="M666 269v-82h-146v-67h146v-76h73v76h202v67h-202v82h-73zM264 268v-81h-200v-67h200v-76h73v76h139v67h-139v81h-73zM100 325l40 -51c69 29 159 75 204 110l-43 57c-43 -36 -130 -85 -201 -116zM281 549l-42 54c-42 -34 -128 -82 -195 -112l40 -49c66 27 154 72 197 107
zM272 638l45 55c-58 86 -130 186 -194 264l-56 -60c56 -61 139 -166 205 -259zM693 841h256v71h-660v-71h128v-407h71v407h132v-524h73v206h206v69h-206v249z" />
</svg>
