<?xml version="1.0" standalone="no"?>
<!DOCTYPE svg PUBLIC "-//W3C//DTD SVG 1.1//EN" "http://www.w3.org/Graphics/SVG/1.1/DTD/svg11.dtd" >
<svg xmlns="http://www.w3.org/2000/svg" xmlns:xlink="http://www.w3.org/1999/xlink" version="1.1" viewBox="-10 0 930 1000">
   <path fill="currentColor"
d="M299 667c53 0 90 -67 90 -165c0 -97 -37 -164 -90 -164s-90 67 -90 164c0 98 37 165 90 165zM299 259c98 0 166 100 166 243c0 144 -68 244 -166 244s-166 -100 -166 -244c0 -143 68 -243 166 -243zM642 681c47 0 81 -37 81 -90s-34 -90 -81 -90c-48 0 -82 37 -82 90
s34 90 82 90zM642 437c85 0 150 63 150 154s-65 154 -150 154c-86 0 -151 -63 -151 -154s65 -154 151 -154zM685 336h129v66h-344v-66h135v-97h80v97z" />
</svg>
