<?xml version="1.0" standalone="no"?>
<!DOCTYPE svg PUBLIC "-//W3C//DTD SVG 1.1//EN" "http://www.w3.org/Graphics/SVG/1.1/DTD/svg11.dtd" >
<svg xmlns="http://www.w3.org/2000/svg" xmlns:xlink="http://www.w3.org/1999/xlink" version="1.1" viewBox="-10 0 930 1000">
   <path fill="currentColor"
d="M613 361v200h-78v-487h78v220h118v-237h79v586h-79v-282h-118zM98 139h347c0 215 -109 382 -342 484l-44 -60c191 -80 287 -203 301 -357h-262v-67zM553 603v39c0 119 147 219 305 244l-33 65c-133 -24 -258 -94 -313 -195c-54 101 -179 171 -312 195l-32 -65
c156 -25 303 -125 303 -244v-39h82z" />
</svg>
