<?xml version="1.0" standalone="no"?>
<!DOCTYPE svg PUBLIC "-//W3C//DTD SVG 1.1//EN" "http://www.w3.org/Graphics/SVG/1.1/DTD/svg11.dtd" >
<svg xmlns="http://www.w3.org/2000/svg" xmlns:xlink="http://www.w3.org/1999/xlink" version="1.1" viewBox="-10 0 930 1000">
   <path fill="currentColor"
d="M96 127h413c0 231 -158 400 -420 479l-34 -66c216 -65 350 -189 366 -347h-325v-66zM520 587v40c0 129 138 228 297 258l-34 63c-132 -26 -251 -96 -304 -199c-53 104 -174 176 -307 202l-34 -65c160 -28 300 -128 300 -259v-40h82zM882 279h-133v148h133v68h-133v158
h-82v-596h82v154h133v68z" />
</svg>
