<?xml version="1.0" standalone="no"?>
<!DOCTYPE svg PUBLIC "-//W3C//DTD SVG 1.1//EN" "http://www.w3.org/Graphics/SVG/1.1/DTD/svg11.dtd" >
<svg xmlns="http://www.w3.org/2000/svg" xmlns:xlink="http://www.w3.org/1999/xlink" version="1.1" viewBox="-10 0 930 1000">
   <path fill="currentColor"
d="M95 115h412c0 226 -155 378 -420 443l-31 -68c224 -53 349 -167 362 -308h-323v-67zM768 690h-257c7 96 137 180 288 201l-32 61c-130 -21 -246 -83 -298 -171c-52 88 -168 150 -297 171l-32 -61c151 -21 280 -106 287 -201h-257v-65h258v-107h82v107h258v65zM882 241
h-133v116h133v66h-133v128h-82v-494h82v118h133v66z" />
</svg>
