<?xml version="1.0" standalone="no"?>
<!DOCTYPE svg PUBLIC "-//W3C//DTD SVG 1.1//EN" "http://www.w3.org/Graphics/SVG/1.1/DTD/svg11.dtd" >
<svg xmlns="http://www.w3.org/2000/svg" xmlns:xlink="http://www.w3.org/1999/xlink" version="1.1" viewBox="-10 0 930 1000">
   <path fill="currentColor"
d="M731 257h-118v121h118v-121zM613 445v116h-78v-487h78v117h118v-133h79v586h-79v-199h-118zM98 139h347c0 216 -109 383 -342 485l-44 -61c191 -80 287 -202 301 -357h-262v-67zM553 603v40c0 119 147 219 305 244l-33 64c-133 -24 -258 -94 -313 -195
c-54 101 -179 171 -312 195l-32 -64c156 -25 303 -125 303 -244v-40h82z" />
</svg>
