<?xml version="1.0" standalone="no"?>
<!DOCTYPE svg PUBLIC "-//W3C//DTD SVG 1.1//EN" "http://www.w3.org/Graphics/SVG/1.1/DTD/svg11.dtd" >
<svg xmlns="http://www.w3.org/2000/svg" xmlns:xlink="http://www.w3.org/1999/xlink" version="1.1" viewBox="-10 0 930 1000">
   <path fill="currentColor"
d="M709 580v-226h-195v-67h195v-230h82v523h-82zM110 115h403c0 227 -158 388 -422 459l-31 -66c219 -58 350 -175 365 -326h-315v-67zM170 686v-66h290v330h-81v-264h-209zM710 605v60c0 96 53 189 157 229l-42 63c-78 -32 -129 -89 -156 -159c-28 70 -80 128 -157 160
l-44 -63c106 -41 161 -134 161 -230v-60h81z" />
</svg>
