<?xml version="1.0" standalone="no"?>
<!DOCTYPE svg PUBLIC "-//W3C//DTD SVG 1.1//EN" "http://www.w3.org/Graphics/SVG/1.1/DTD/svg11.dtd" >
<svg xmlns="http://www.w3.org/2000/svg" xmlns:xlink="http://www.w3.org/1999/xlink" version="1.1" viewBox="-10 0 930 1000">
   <path fill="currentColor"
d="M709 535v-199h-194v-67h194v-212h83v478h-83zM111 103h401c0 222 -157 372 -416 435l-30 -64c216 -52 343 -162 358 -305h-313v-66zM242 781v96c96 0 155 -2 228 -16l8 64c-84 15 -148 17 -267 17h-48v-222h207v-81h-209v-63h288v205h-207zM721 564v83
c0 98 55 199 162 241l-42 63c-81 -34 -134 -97 -161 -172c-29 74 -83 137 -161 172l-42 -63c108 -46 163 -148 163 -241v-83h81z" />
</svg>
