<?xml version="1.0" standalone="no"?>
<!DOCTYPE svg PUBLIC "-//W3C//DTD SVG 1.1//EN" "http://www.w3.org/Graphics/SVG/1.1/DTD/svg11.dtd" >
<svg xmlns="http://www.w3.org/2000/svg" xmlns:xlink="http://www.w3.org/1999/xlink" version="1.1" viewBox="-10 0 930 1000">
   <path fill="currentColor"
d="M709 515v-185h-195v-67h195v-206h83v458h-83zM111 101h400c0 222 -158 370 -415 432l-30 -65c215 -51 343 -158 358 -301h-313v-66zM236 777v101c102 0 161 -3 237 -17l8 64c-85 15 -152 17 -275 17h-49v-225h202v-84h-204v-62h284v206h-203zM655 897c50 0 86 -25 86 -63
c0 -39 -36 -63 -86 -63c-51 0 -86 24 -86 63c0 38 35 63 86 63zM655 713c90 0 157 47 157 121c0 73 -67 120 -157 120c-91 0 -158 -47 -158 -120c0 -74 67 -121 158 -121zM695 616h144v62h-366v-62h142v-84h80v84z" />
</svg>
