<?xml version="1.0" standalone="no"?>
<!DOCTYPE svg PUBLIC "-//W3C//DTD SVG 1.1//EN" "http://www.w3.org/Graphics/SVG/1.1/DTD/svg11.dtd" >
<svg xmlns="http://www.w3.org/2000/svg" xmlns:xlink="http://www.w3.org/1999/xlink" version="1.1" viewBox="-10 0 930 1000">
   <path fill="currentColor"
d="M709 664v-287h-193v-67h193v-252h83v606h-83zM111 128h402c0 231 -153 396 -409 479l-36 -65c212 -67 341 -189 357 -347h-314v-67zM543 586v41c0 129 139 228 297 258l-33 64c-132 -26 -252 -97 -305 -200c-53 105 -174 176 -308 202l-33 -65c160 -28 300 -128 300 -259
v-41h82z" />
</svg>
