<?xml version="1.0" standalone="no"?>
<!DOCTYPE svg PUBLIC "-//W3C//DTD SVG 1.1//EN" "http://www.w3.org/Graphics/SVG/1.1/DTD/svg11.dtd" >
<svg xmlns="http://www.w3.org/2000/svg" xmlns:xlink="http://www.w3.org/1999/xlink" version="1.1" viewBox="-10 0 930 1000">
   <path fill="currentColor"
d="M709 592v-215h-192v-67h192v-252h83v534h-83zM111 125h404c0 230 -159 392 -418 469l-33 -65c214 -64 348 -184 362 -338h-315v-66zM500 885c131 0 215 -41 215 -109s-84 -109 -215 -109c-132 0 -217 41 -217 109s85 109 217 109zM500 603c180 0 296 65 296 173
c0 109 -116 174 -296 174c-182 0 -298 -65 -298 -174c0 -108 116 -173 298 -173z" />
</svg>
