<?xml version="1.0" standalone="no"?>
<!DOCTYPE svg PUBLIC "-//W3C//DTD SVG 1.1//EN" "http://www.w3.org/Graphics/SVG/1.1/DTD/svg11.dtd" >
<svg xmlns="http://www.w3.org/2000/svg" xmlns:xlink="http://www.w3.org/1999/xlink" version="1.1" viewBox="-10 0 930 1000">
   <path fill="currentColor"
d="M516 290h193v-233h82v505h-82v-204h-193v-68zM111 114h417c0 229 -167 385 -430 451l-31 -67c221 -54 357 -169 372 -317h-328v-67zM549 692c0 87 140 176 295 196l-28 62c-136 -18 -256 -83 -308 -167c-54 86 -178 148 -314 167l-27 -62c154 -19 298 -107 298 -196v-1
h-262v-63h263v-101h83v101h263v63z" />
</svg>
