<?xml version="1.0" standalone="no"?>
<!DOCTYPE svg PUBLIC "-//W3C//DTD SVG 1.1//EN" "http://www.w3.org/Graphics/SVG/1.1/DTD/svg11.dtd" >
<svg xmlns="http://www.w3.org/2000/svg" xmlns:xlink="http://www.w3.org/1999/xlink" version="1.1" viewBox="-10 0 930 1000">
   <path fill="currentColor"
d="M709 533v-197h-196v-67h196v-212h83v476h-83zM112 110h394c0 225 -149 373 -412 442l-29 -66c219 -54 341 -165 355 -310h-308v-66zM497 894c102 0 164 -24 164 -68c0 -42 -62 -67 -164 -67s-164 25 -164 67c0 44 62 68 164 68zM497 700c154 0 249 46 249 126
c0 81 -95 126 -249 126s-249 -45 -249 -126c0 -80 95 -126 249 -126zM539 596h271v63h-625v-63h272v-105h82v105z" />
</svg>
