<?xml version="1.0" standalone="no"?>
<!DOCTYPE svg PUBLIC "-//W3C//DTD SVG 1.1//EN" "http://www.w3.org/Graphics/SVG/1.1/DTD/svg11.dtd" >
<svg xmlns="http://www.w3.org/2000/svg" xmlns:xlink="http://www.w3.org/1999/xlink" version="1.1" viewBox="-10 0 930 1000">
   <path fill="currentColor"
d="M810 58v516h-79v-516h79zM553 369h-173c-58 91 -150 162 -274 214l-42 -60c177 -70 282 -183 299 -330h-262v-66h346c0 63 -11 122 -33 175h139v-225h77v485h-77v-193zM162 682v-67h301v335h-81v-268h-220zM718 602v69c0 87 57 180 165 221l-40 63
c-82 -31 -137 -91 -165 -161c-29 70 -84 130 -167 161l-40 -63c108 -41 166 -132 166 -221v-69h81z" />
</svg>
