<?xml version="1.0" standalone="no"?>
<!DOCTYPE svg PUBLIC "-//W3C//DTD SVG 1.1//EN" "http://www.w3.org/Graphics/SVG/1.1/DTD/svg11.dtd" >
<svg xmlns="http://www.w3.org/2000/svg" xmlns:xlink="http://www.w3.org/1999/xlink" version="1.1" viewBox="-10 0 930 1000">
   <path fill="currentColor"
d="M553 343h-171c-56 89 -150 157 -278 205l-40 -61c183 -64 283 -171 298 -310h-260v-66h345c0 60 -11 116 -30 166h136v-200h77v439h-77v-173zM252 779v99c97 0 156 -3 229 -16l8 63c-84 16 -149 17 -268 17h-48v-224h210v-81h-212v-63h291v205h-210zM735 877v-133h-142
v133h142zM735 681v-119h75v380h-292v-380h75v119h142zM731 58h79v465h-79v-465z" />
</svg>
