<?xml version="1.0" standalone="no"?>
<!DOCTYPE svg PUBLIC "-//W3C//DTD SVG 1.1//EN" "http://www.w3.org/Graphics/SVG/1.1/DTD/svg11.dtd" >
<svg xmlns="http://www.w3.org/2000/svg" xmlns:xlink="http://www.w3.org/1999/xlink" version="1.1" viewBox="-10 0 930 1000">
   <path fill="currentColor"
d="M242 779v99c89 0 145 -3 215 -16l8 64c-81 15 -143 16 -256 16h-46v-224h203v-85h-205v-62h284v208h-203zM709 358v-107h-222c-55 142 -191 240 -390 289l-30 -67c219 -53 345 -161 359 -305h-312v-67h400c0 30 -3 58 -9 86h204v-130h82v473h-82v-108h-235v-64h235z
M610 636v241h80v-241h-80zM758 877h53v65h-321v-65h52v-241h-48v-65h313v65h-49v241z" />
</svg>
