<?xml version="1.0" standalone="no"?>
<!DOCTYPE svg PUBLIC "-//W3C//DTD SVG 1.1//EN" "http://www.w3.org/Graphics/SVG/1.1/DTD/svg11.dtd" >
<svg xmlns="http://www.w3.org/2000/svg" xmlns:xlink="http://www.w3.org/1999/xlink" version="1.1" viewBox="-10 0 930 1000">
   <path fill="currentColor"
d="M709 249h-223c-56 139 -194 232 -390 277l-29 -67c217 -48 344 -152 359 -294h-312v-66h399c0 30 -3 58 -8 86h204v-128h83v458h-83v-95h-236v-64h236v-107zM236 777v101c102 0 161 -3 236 -17l9 64c-85 15 -152 17 -275 17h-49v-225h202v-84h-204v-62h284v206h-203z
M655 897c50 0 86 -25 86 -63c0 -39 -36 -63 -86 -63c-51 0 -86 24 -86 63c0 38 35 63 86 63zM655 713c90 0 157 47 157 121c0 73 -67 120 -157 120c-91 0 -158 -47 -158 -120c0 -74 67 -121 158 -121zM695 616h144v62h-366v-62h142v-84h80v84z" />
</svg>
