<?xml version="1.0" standalone="no"?>
<!DOCTYPE svg PUBLIC "-//W3C//DTD SVG 1.1//EN" "http://www.w3.org/Graphics/SVG/1.1/DTD/svg11.dtd" >
<svg xmlns="http://www.w3.org/2000/svg" xmlns:xlink="http://www.w3.org/1999/xlink" version="1.1" viewBox="-10 0 930 1000">
   <path fill="currentColor"
d="M810 58v468h-79v-468h79zM559 257h-137c-46 130 -153 225 -318 287l-40 -61c182 -64 282 -169 296 -308h-258v-66h344c0 30 -2 57 -7 84h120v-117h77v444h-77v-95h-147v-64h147v-104zM717 563v83c0 93 54 193 160 241l-42 63c-77 -36 -130 -99 -158 -172
c-27 74 -78 137 -156 172l-42 -61l5 37c-80 15 -140 16 -264 16h-47v-223h211v-84h-213v-62h292v207h-211v98c99 0 155 -3 223 -16l3 24c104 -45 159 -146 159 -240v-83h80z" />
</svg>
