<?xml version="1.0" standalone="no"?>
<!DOCTYPE svg PUBLIC "-//W3C//DTD SVG 1.1//EN" "http://www.w3.org/Graphics/SVG/1.1/DTD/svg11.dtd" >
<svg xmlns="http://www.w3.org/2000/svg" xmlns:xlink="http://www.w3.org/1999/xlink" version="1.1" viewBox="-10 0 930 1000">
   <path fill="currentColor"
d="M810 58v459h-79v-459h79zM559 254h-137c-45 130 -154 225 -318 284l-39 -61c179 -62 280 -166 295 -303h-258v-67h344c0 29 -2 56 -7 83h120v-115h77v428h-77v-85h-147v-63h147v-101zM246 777v101c101 0 161 -3 236 -17l7 64c-85 15 -151 17 -274 17h-48v-225h205v-84
h-207v-62h286v206h-205zM666 897c52 0 88 -25 88 -63c0 -39 -36 -63 -88 -63s-89 24 -89 63c0 38 37 63 89 63zM666 713c93 0 160 47 160 121c0 73 -67 120 -160 120s-161 -47 -161 -120c0 -74 68 -121 161 -121zM706 616h150v62h-379v-62h149v-81h80v81z" />
</svg>
