<?xml version="1.0" standalone="no"?>
<!DOCTYPE svg PUBLIC "-//W3C//DTD SVG 1.1//EN" "http://www.w3.org/Graphics/SVG/1.1/DTD/svg11.dtd" >
<svg xmlns="http://www.w3.org/2000/svg" xmlns:xlink="http://www.w3.org/1999/xlink" version="1.1" viewBox="-10 0 930 1000">
   <path fill="currentColor"
d="M810 57v606h-79v-606h79zM553 295h-133c-43 141 -151 253 -317 329l-44 -62c182 -78 285 -200 301 -356h-262v-67h346c0 31 -2 60 -7 90h116v-152h77v510h-77v-113h-141v-67h141v-112zM550 610v36c0 118 147 215 306 240l-31 63c-134 -22 -261 -91 -316 -191
c-55 100 -181 169 -316 191l-31 -63c158 -25 306 -122 306 -240v-36h82z" />
</svg>
