<?xml version="1.0" standalone="no"?>
<!DOCTYPE svg PUBLIC "-//W3C//DTD SVG 1.1//EN" "http://www.w3.org/Graphics/SVG/1.1/DTD/svg11.dtd" >
<svg xmlns="http://www.w3.org/2000/svg" xmlns:xlink="http://www.w3.org/1999/xlink" version="1.1" viewBox="-10 0 930 1000">
   <path fill="currentColor"
d="M810 58v512h-79v-512h79zM559 287h-140c-47 130 -155 228 -313 294l-42 -60c177 -70 283 -183 299 -331h-262v-66h346c0 33 -3 66 -10 97h122v-144h77v483h-77v-95h-158v-66h158v-112zM820 683h-259c1 103 139 185 294 206l-29 62c-135 -19 -256 -81 -308 -172
c-51 91 -173 153 -308 172l-29 -62c158 -21 293 -100 294 -206h-260v-65h605v65z" />
</svg>
