<?xml version="1.0" standalone="no"?>
<!DOCTYPE svg PUBLIC "-//W3C//DTD SVG 1.1//EN" "http://www.w3.org/Graphics/SVG/1.1/DTD/svg11.dtd" >
<svg xmlns="http://www.w3.org/2000/svg" xmlns:xlink="http://www.w3.org/1999/xlink" version="1.1" viewBox="-10 0 930 1000">
   <path fill="currentColor"
d="M810 58v513h-79v-513h79zM559 273h-139c-44 134 -150 234 -318 301l-42 -60c187 -70 285 -182 299 -329h-257v-66h342c0 31 -3 60 -8 90h123v-132h77v455h-77v-88h-144v-64h144v-107zM820 709h-258c11 91 147 162 297 180l-28 61c-137 -16 -260 -75 -313 -161
c-53 88 -176 145 -314 161l-28 -61c151 -18 287 -87 297 -180h-258v-66h261v-84h82v84h262v66z" />
</svg>
