<?xml version="1.0" standalone="no"?>
<!DOCTYPE svg PUBLIC "-//W3C//DTD SVG 1.1//EN" "http://www.w3.org/Graphics/SVG/1.1/DTD/svg11.dtd" >
<svg xmlns="http://www.w3.org/2000/svg" xmlns:xlink="http://www.w3.org/1999/xlink" version="1.1" viewBox="-10 0 930 1000">
   <path fill="currentColor"
d="M741 385l-80 -9c18 -89 19 -156 19 -212h-530v-66h611v55c0 59 0 136 -20 232zM220 785v97c103 0 158 -2 228 -16l6 62c-79 15 -141 16 -266 16h-47v-217h206v-84h-209v-62h288v204h-206zM701 881v-117h-146v117h146zM701 701v-125h72v368h-290v-368h72v125h146zM468 434
h394v66h-807v-66h331v-161h82v161z" />
</svg>
