<?xml version="1.0" standalone="no"?>
<!DOCTYPE svg PUBLIC "-//W3C//DTD SVG 1.1//EN" "http://www.w3.org/Graphics/SVG/1.1/DTD/svg11.dtd" >
<svg xmlns="http://www.w3.org/2000/svg" xmlns:xlink="http://www.w3.org/1999/xlink" version="1.1" viewBox="-10 0 930 1000">
   <path fill="currentColor"
d="M737 392l-81 -8c24 -94 24 -161 24 -224h-531v-67h612v64c0 65 0 140 -24 235zM362 878v-118h-154v118h154zM362 698v-113h75v357h-305v-357h76v113h154zM677 575v79c0 91 51 193 156 238l-45 59c-75 -34 -124 -95 -150 -167c-26 71 -75 132 -149 167l-45 -59
c105 -47 156 -149 156 -238v-79h77zM468 441h395v66h-809v-66h332v-159h82v159z" />
</svg>
