<?xml version="1.0" standalone="no"?>
<!DOCTYPE svg PUBLIC "-//W3C//DTD SVG 1.1//EN" "http://www.w3.org/Graphics/SVG/1.1/DTD/svg11.dtd" >
<svg xmlns="http://www.w3.org/2000/svg" xmlns:xlink="http://www.w3.org/1999/xlink" version="1.1" viewBox="-10 0 930 1000">
   <path fill="currentColor"
d="M523 416l-80 -9c20 -97 23 -168 23 -222h-364v-67h444v48c0 56 0 140 -23 250zM609 467l5 61c-186 32 -401 36 -559 36l-8 -68c57 0 122 0 190 -2v-184h81v182c98 -4 199 -11 291 -25zM161 723v-66h590v292h-82v-226h-508zM879 307v68h-128v237h-82v-555h82v250h128z" />
</svg>
