<?xml version="1.0" standalone="no"?>
<!DOCTYPE svg PUBLIC "-//W3C//DTD SVG 1.1//EN" "http://www.w3.org/Graphics/SVG/1.1/DTD/svg11.dtd" >
<svg xmlns="http://www.w3.org/2000/svg" xmlns:xlink="http://www.w3.org/1999/xlink" version="1.1" viewBox="-10 0 930 1000">
   <path fill="currentColor"
d="M523 394l-80 -7c20 -90 23 -157 23 -208h-364v-66h444v45c0 53 0 133 -23 236zM609 451l6 60c-188 31 -400 34 -559 34l-9 -68c57 0 122 0 190 -1v-169h81v166c98 -3 199 -9 291 -22zM395 816l22 65c-69 40 -168 48 -234 48h-43v-289h80v221c55 -4 131 -15 175 -45z
M795 696h-142c0 81 64 159 171 193l-37 62c-84 -27 -144 -80 -174 -147c-30 66 -88 120 -171 147l-38 -62c107 -34 170 -116 170 -193h-144v-65h365v65zM751 291h128v68h-128v225h-82v-527h82v234z" />
</svg>
