<?xml version="1.0" standalone="no"?>
<!DOCTYPE svg PUBLIC "-//W3C//DTD SVG 1.1//EN" "http://www.w3.org/Graphics/SVG/1.1/DTD/svg11.dtd" >
<svg xmlns="http://www.w3.org/2000/svg" xmlns:xlink="http://www.w3.org/1999/xlink" version="1.1" viewBox="-10 0 930 1000">
   <path fill="currentColor"
d="M524 379l-80 -8c19 -86 22 -151 22 -199h-364v-66h444v43c0 50 0 130 -22 230zM610 420l6 59c-189 32 -401 34 -560 34l-8 -66c56 0 121 0 188 -2v-160h81v158c99 -4 200 -10 293 -23zM213 793v90c100 -1 154 -4 222 -17l6 62c-77 15 -138 16 -261 16h-46v-209h204v-78
h-206v-61h285v197h-204zM540 658v224h139v-224h-139zM468 944v-348h283v348h-283zM879 276v68h-128v210h-82v-497h82v219h128z" />
</svg>
