<?xml version="1.0" standalone="no"?>
<!DOCTYPE svg PUBLIC "-//W3C//DTD SVG 1.1//EN" "http://www.w3.org/Graphics/SVG/1.1/DTD/svg11.dtd" >
<svg xmlns="http://www.w3.org/2000/svg" xmlns:xlink="http://www.w3.org/1999/xlink" version="1.1" viewBox="-10 0 930 1000">
   <path fill="currentColor"
d="M448 422l-77 -6c17 -97 18 -167 18 -226h-296v-65h373v57c0 62 0 139 -18 240zM503 474l6 57c-148 29 -337 32 -455 32l-10 -66c45 0 98 0 156 -2v-171h76v169c79 -4 159 -9 227 -19zM190 720v-66h619v300h-82v-234h-537zM730 58h79v553h-79v-236h-106v229h-77v-530h77
v234h106v-250z" />
</svg>
