<?xml version="1.0" standalone="no"?>
<!DOCTYPE svg PUBLIC "-//W3C//DTD SVG 1.1//EN" "http://www.w3.org/Graphics/SVG/1.1/DTD/svg11.dtd" >
<svg xmlns="http://www.w3.org/2000/svg" xmlns:xlink="http://www.w3.org/1999/xlink" version="1.1" viewBox="-10 0 930 1000">
   <path fill="currentColor"
d="M624 345v198h-77v-469h77v204h106v-221h79v492h-79v-204h-106zM448 380l-76 -6c15 -85 17 -147 17 -199h-296v-66h373v52c0 54 0 128 -18 219zM504 432l5 58c-144 24 -333 29 -454 29l-11 -66c45 0 98 0 156 -2v-161h76v159c79 -3 160 -8 228 -17zM282 881h559v63h-639
v-214h526v-81h-529v-62h610v204h-527v90z" />
</svg>
