<?xml version="1.0" standalone="no"?>
<!DOCTYPE svg PUBLIC "-//W3C//DTD SVG 1.1//EN" "http://www.w3.org/Graphics/SVG/1.1/DTD/svg11.dtd" >
<svg xmlns="http://www.w3.org/2000/svg" xmlns:xlink="http://www.w3.org/1999/xlink" version="1.1" viewBox="-10 0 930 1000">
   <path fill="currentColor"
d="M448 381l-76 -7c15 -85 17 -147 17 -199h-296v-66h373v52c0 54 0 127 -18 220zM504 427l5 58c-144 24 -333 29 -454 30l-11 -66c45 0 98 -1 156 -2v-159h76v156c79 -3 160 -9 228 -17zM240 789v94c127 0 202 -4 292 -19l7 60c-99 18 -179 20 -322 20h-56v-214h231v-78
h-234v-61h313v198h-231zM513 655v-64h296v364h-85v-300h-211zM730 57h79v487h-79v-203h-106v197h-77v-464h77v200h106v-217z" />
</svg>
