<?xml version="1.0" standalone="no"?>
<!DOCTYPE svg PUBLIC "-//W3C//DTD SVG 1.1//EN" "http://www.w3.org/Graphics/SVG/1.1/DTD/svg11.dtd" >
<svg xmlns="http://www.w3.org/2000/svg" xmlns:xlink="http://www.w3.org/1999/xlink" version="1.1" viewBox="-10 0 930 1000">
   <path fill="currentColor"
d="M624 367v232h-77v-525h77v226h106v-242h79v607h-79v-298h-106zM448 430l-77 -7c17 -96 18 -168 18 -229h-296v-65h373v58c0 62 0 141 -18 243zM503 478l6 57c-149 31 -337 33 -455 33l-10 -66c44 0 97 0 156 -2v-172h76v170c79 -4 159 -9 227 -20zM550 633v43
c0 106 143 191 307 210l-28 64c-141 -18 -267 -80 -321 -172c-55 92 -180 154 -321 172l-29 -64c164 -19 308 -106 308 -210v-43h84z" />
</svg>
