<?xml version="1.0" standalone="no"?>
<!DOCTYPE svg PUBLIC "-//W3C//DTD SVG 1.1//EN" "http://www.w3.org/Graphics/SVG/1.1/DTD/svg11.dtd" >
<svg xmlns="http://www.w3.org/2000/svg" xmlns:xlink="http://www.w3.org/1999/xlink" version="1.1" viewBox="-10 0 930 1000">
   <path fill="currentColor"
d="M624 352v198h-77v-475h77v210h106v-228h79v542h-79v-247h-106zM446 396l-76 -6c18 -92 19 -159 19 -213h-296v-66h373v55c0 58 0 133 -20 230zM504 449l5 57c-146 27 -335 31 -455 31l-11 -66c45 0 99 0 157 -2v-168h76v166c79 -4 160 -9 228 -18zM817 726h-266
c19 81 149 147 299 162l-27 63c-139 -17 -263 -72 -316 -154c-54 82 -178 137 -318 154l-25 -63c149 -15 279 -81 298 -162h-263v-65h267v-82h82v82h269v65z" />
</svg>
