<?xml version="1.0" standalone="no"?>
<!DOCTYPE svg PUBLIC "-//W3C//DTD SVG 1.1//EN" "http://www.w3.org/Graphics/SVG/1.1/DTD/svg11.dtd" >
<svg xmlns="http://www.w3.org/2000/svg" xmlns:xlink="http://www.w3.org/1999/xlink" version="1.1" viewBox="-10 0 930 1000">
   <path fill="currentColor"
d="M624 365v221h-77v-512h77v224h106v-240h79v535h-79v-228h-106zM448 416l-77 -7c17 -93 18 -161 18 -219h-296v-66h373v56c0 60 0 137 -18 236zM503 462l6 57c-148 29 -337 32 -455 32l-10 -66c45 0 98 0 156 -2v-161h76v159c79 -4 159 -8 227 -19zM403 704v174h209v-174
h-209zM693 878h139v64h-649v-64h139v-174h-132v-64h634v64h-131v174z" />
</svg>
