<?xml version="1.0" standalone="no"?>
<!DOCTYPE svg PUBLIC "-//W3C//DTD SVG 1.1//EN" "http://www.w3.org/Graphics/SVG/1.1/DTD/svg11.dtd" >
<svg xmlns="http://www.w3.org/2000/svg" xmlns:xlink="http://www.w3.org/1999/xlink" version="1.1" viewBox="-10 0 930 1000">
   <path fill="currentColor"
d="M790 57v680h-82v-680h82zM540 438l-80 -10c22 -103 24 -177 24 -236h-367v-67h447v55c0 60 0 146 -24 258zM637 499l6 61c-195 28 -408 34 -577 35l-13 -69c64 0 134 -1 206 -3v-189h80v187c101 -4 204 -10 298 -22zM293 867h522v67h-604v-256h82v189z" />
</svg>
