<?xml version="1.0" standalone="no"?>
<!DOCTYPE svg PUBLIC "-//W3C//DTD SVG 1.1//EN" "http://www.w3.org/Graphics/SVG/1.1/DTD/svg11.dtd" >
<svg xmlns="http://www.w3.org/2000/svg" xmlns:xlink="http://www.w3.org/1999/xlink" version="1.1" viewBox="-10 0 930 1000">
   <path fill="currentColor"
d="M789 57v539h-82v-539h82zM538 399l-81 -6c19 -93 21 -161 21 -214h-357v-66h437v49c0 55 0 134 -20 237zM637 456l6 59c-198 33 -415 37 -577 37l-11 -66c61 0 129 0 201 -2v-165h80v162c101 -4 205 -11 301 -25zM278 876h525v66h-607v-301h598v66h-516v169z" />
</svg>
