<?xml version="1.0" standalone="no"?>
<!DOCTYPE svg PUBLIC "-//W3C//DTD SVG 1.1//EN" "http://www.w3.org/Graphics/SVG/1.1/DTD/svg11.dtd" >
<svg xmlns="http://www.w3.org/2000/svg" xmlns:xlink="http://www.w3.org/1999/xlink" version="1.1" viewBox="-10 0 930 1000">
   <path fill="currentColor"
d="M790 57v487h-82v-487h82zM534 378l-79 -8c19 -86 22 -151 22 -199h-357v-66h437v43c0 50 0 129 -23 230zM636 420l7 59c-197 33 -414 37 -577 38l-12 -66c62 0 131 -1 204 -3v-166h79v163c101 -4 204 -11 299 -25zM238 789v92c98 0 158 -3 235 -16l8 61
c-88 15 -157 16 -274 16h-48v-211h198v-81h-201v-61h280v200h-198zM651 897c49 0 82 -22 82 -58c0 -38 -33 -59 -82 -59s-83 21 -83 59c0 36 34 58 83 58zM651 723c88 0 152 44 152 116c0 71 -64 115 -152 115c-89 0 -153 -44 -153 -115c0 -72 64 -116 153 -116zM691 630
h137v61h-357v-61h140v-71h80v71z" />
</svg>
