<?xml version="1.0" standalone="no"?>
<!DOCTYPE svg PUBLIC "-//W3C//DTD SVG 1.1//EN" "http://www.w3.org/Graphics/SVG/1.1/DTD/svg11.dtd" >
<svg xmlns="http://www.w3.org/2000/svg" xmlns:xlink="http://www.w3.org/1999/xlink" version="1.1" viewBox="-10 0 930 1000">
   <path fill="currentColor"
d="M789 59v503h-82v-503h82zM538 392l-79 -8c20 -90 21 -155 21 -210h-359v-65h438v54c0 58 0 133 -21 229zM637 440l6 59c-194 28 -408 33 -577 34l-11 -66c63 0 132 -1 203 -3v-157h80v154c101 -4 204 -9 299 -21zM392 877v-115h-157v115h157zM392 699v-104h76v347h-309
v-347h76v104h157zM715 594v61c0 85 54 185 156 233l-44 61c-75 -34 -125 -99 -152 -170c-27 72 -78 137 -154 171l-43 -62c101 -48 156 -148 156 -233v-61h81z" />
</svg>
