<?xml version="1.0" standalone="no"?>
<!DOCTYPE svg PUBLIC "-//W3C//DTD SVG 1.1//EN" "http://www.w3.org/Graphics/SVG/1.1/DTD/svg11.dtd" >
<svg xmlns="http://www.w3.org/2000/svg" xmlns:xlink="http://www.w3.org/1999/xlink" version="1.1" viewBox="-10 0 930 1000">
   <path fill="currentColor"
d="M789 58v527h-82v-527h82zM538 396l-81 -7c19 -90 21 -157 21 -209h-357v-67h437v48c0 54 0 134 -20 235zM637 451l6 59c-198 34 -415 38 -577 38l-11 -65c61 0 129 -1 201 -3v-165h80v162c101 -4 205 -11 301 -26zM687 623v34c0 94 63 187 175 225l-40 61
c-86 -32 -145 -92 -175 -166c-26 73 -77 139 -159 173c-82 -34 -133 -99 -160 -172c-30 73 -89 133 -172 165l-42 -61c112 -40 175 -133 175 -225v-34h79v34c0 75 37 162 120 213c81 -52 119 -139 119 -213v-34h80z" />
</svg>
