<?xml version="1.0" standalone="no"?>
<!DOCTYPE svg PUBLIC "-//W3C//DTD SVG 1.1//EN" "http://www.w3.org/Graphics/SVG/1.1/DTD/svg11.dtd" >
<svg xmlns="http://www.w3.org/2000/svg" xmlns:xlink="http://www.w3.org/1999/xlink" version="1.1" viewBox="-10 0 930 1000">
   <path fill="currentColor"
d="M789 57v533h-82v-533h82zM538 397l-81 -7c19 -92 21 -159 21 -211h-357v-66h437v48c0 55 0 134 -20 236zM637 450l6 59c-198 33 -415 36 -577 37l-11 -66c61 0 129 -1 201 -3v-168h80v166c101 -5 205 -11 301 -25zM798 708h-260c11 90 147 163 303 180l-28 63
c-140 -17 -266 -75 -320 -160c-54 83 -179 143 -317 160l-28 -63c151 -17 291 -94 303 -180h-258v-65h605v65z" />
</svg>
