<?xml version="1.0" standalone="no"?>
<!DOCTYPE svg PUBLIC "-//W3C//DTD SVG 1.1//EN" "http://www.w3.org/Graphics/SVG/1.1/DTD/svg11.dtd" >
<svg xmlns="http://www.w3.org/2000/svg" xmlns:xlink="http://www.w3.org/1999/xlink" version="1.1" viewBox="-10 0 930 1000">
   <path fill="currentColor"
d="M686 165h-539v-66h620v67c0 70 0 151 -21 255l-81 -7c21 -104 21 -179 21 -249zM129 707v-67h294v313h-81v-246h-213zM673 621v59c0 91 51 181 156 220l-47 61c-74 -30 -123 -85 -149 -151c-28 65 -77 120 -151 151l-46 -61c105 -40 156 -131 156 -220v-59h81zM566 483
h297v67h-809v-67h206v-177h81v177h144v-177h81v177z" />
</svg>
