<?xml version="1.0" standalone="no"?>
<!DOCTYPE svg PUBLIC "-//W3C//DTD SVG 1.1//EN" "http://www.w3.org/Graphics/SVG/1.1/DTD/svg11.dtd" >
<svg xmlns="http://www.w3.org/2000/svg" xmlns:xlink="http://www.w3.org/1999/xlink" version="1.1" viewBox="-10 0 930 1000">
   <path fill="currentColor"
d="M750 371l-80 -8c16 -85 16 -149 16 -208h-539v-66h620v64c0 62 0 131 -17 218zM220 787v97c103 0 158 -3 228 -16l6 62c-79 15 -141 16 -266 16h-47v-218h206v-84h-209v-61h288v204h-206zM701 882v-117h-146v117h146zM701 702v-125h72v368h-290v-368h72v125h146zM564 433
h298v67h-807v-67h206v-166h81v166h141v-166h81v166z" />
</svg>
