<?xml version="1.0" standalone="no"?>
<!DOCTYPE svg PUBLIC "-//W3C//DTD SVG 1.1//EN" "http://www.w3.org/Graphics/SVG/1.1/DTD/svg11.dtd" >
<svg xmlns="http://www.w3.org/2000/svg" xmlns:xlink="http://www.w3.org/1999/xlink" version="1.1" viewBox="-10 0 930 1000">
   <path fill="currentColor"
d="M750 371l-80 -8c16 -85 16 -149 16 -208h-539v-66h620v64c0 62 0 131 -17 218zM220 781v103c95 0 149 -3 214 -16l8 62c-78 15 -136 16 -256 16h-45v-224h202v-86h-205v-62h284v207h-202zM585 639v241h80v-241h-80zM733 639v241h61v66h-335v-66h58v-241h-53v-65h322v65
h-53zM564 428h299v66h-808v-66h206v-161h81v161h141v-161h81v161z" />
</svg>
