<?xml version="1.0" standalone="no"?>
<!DOCTYPE svg PUBLIC "-//W3C//DTD SVG 1.1//EN" "http://www.w3.org/Graphics/SVG/1.1/DTD/svg11.dtd" >
<svg xmlns="http://www.w3.org/2000/svg" xmlns:xlink="http://www.w3.org/1999/xlink" version="1.1" viewBox="-10 0 930 1000">
   <path fill="currentColor"
d="M690 175v-12h-542v-66h623v78c0 74 0 148 -22 242l-80 -9c21 -92 21 -161 21 -233zM497 614v41c0 117 138 208 302 231l-32 64c-136 -23 -258 -86 -311 -183c-55 97 -178 160 -314 183l-31 -64c165 -23 303 -114 303 -231v-41h83zM563 483h301v67h-810v-67h208v-185h81
v185h139v-185h81v185z" />
</svg>
