<?xml version="1.0" standalone="no"?>
<!DOCTYPE svg PUBLIC "-//W3C//DTD SVG 1.1//EN" "http://www.w3.org/Graphics/SVG/1.1/DTD/svg11.dtd" >
<svg xmlns="http://www.w3.org/2000/svg" xmlns:xlink="http://www.w3.org/1999/xlink" version="1.1" viewBox="-10 0 930 1000">
   <path fill="currentColor"
d="M746 410l-81 -8c21 -99 21 -172 21 -236h-539v-66h620v65c0 65 0 144 -21 245zM455 889c142 0 232 -38 232 -100c0 -64 -90 -102 -232 -102c-140 0 -230 38 -230 102c0 62 90 100 230 100zM455 624c192 0 314 61 314 165c0 102 -122 164 -314 164
c-191 0 -312 -62 -312 -164c0 -104 121 -165 312 -165zM566 479h297v66h-808v-66h205v-175h81v175h144v-175h81v175z" />
</svg>
