<?xml version="1.0" standalone="no"?>
<!DOCTYPE svg PUBLIC "-//W3C//DTD SVG 1.1//EN" "http://www.w3.org/Graphics/SVG/1.1/DTD/svg11.dtd" >
<svg xmlns="http://www.w3.org/2000/svg" xmlns:xlink="http://www.w3.org/1999/xlink" version="1.1" viewBox="-10 0 930 1000">
   <path fill="currentColor"
d="M743 385l-80 -9c21 -92 22 -158 22 -217h-540v-67h621v61c0 62 0 136 -23 232zM757 712h-255c19 87 149 160 294 179l-28 60c-134 -18 -255 -78 -309 -163c-52 88 -173 145 -311 163l-27 -60c149 -20 276 -87 293 -179h-256v-65h259v-87h82v87h258v65zM561 441h303v66
h-809v-66h206v-164h81v164h138v-164h81v164z" />
</svg>
