<?xml version="1.0" standalone="no"?>
<!DOCTYPE svg PUBLIC "-//W3C//DTD SVG 1.1//EN" "http://www.w3.org/Graphics/SVG/1.1/DTD/svg11.dtd" >
<svg xmlns="http://www.w3.org/2000/svg" xmlns:xlink="http://www.w3.org/1999/xlink" version="1.1" viewBox="-10 0 930 1000">
   <path fill="currentColor"
d="M652 687v14c0 74 66 152 168 188l-38 61c-82 -28 -140 -83 -170 -147c-29 64 -87 119 -170 147l-35 -56c-73 31 -165 38 -223 38h-45v-291h80v223c57 -4 138 -15 189 -46l21 61c89 -38 142 -110 142 -178v-14h-144v-65h372v65h-147zM741 402h126v67h-370v129h-82v-129
h-362v-67h605c23 -101 23 -175 23 -239h-525v-67h606v63c0 65 0 142 -21 243z" />
</svg>
