<?xml version="1.0" standalone="no"?>
<!DOCTYPE svg PUBLIC "-//W3C//DTD SVG 1.1//EN" "http://www.w3.org/Graphics/SVG/1.1/DTD/svg11.dtd" >
<svg xmlns="http://www.w3.org/2000/svg" xmlns:xlink="http://www.w3.org/1999/xlink" version="1.1" viewBox="-10 0 930 1000">
   <path fill="currentColor"
d="M220 779v103c95 0 149 -3 214 -15l8 62c-78 14 -136 15 -256 15h-45v-224h202v-86h-205v-61h284v206h-202zM585 638v241h80v-241h-80zM733 638v241h61v65h-335v-65h58v-241h-53v-65h322v65h-53zM745 376h121v66h-367v125h-82v-125h-364v-66h609c18 -93 19 -161 19 -218
h-525v-66h606v57c0 59 0 132 -17 227z" />
</svg>
