<?xml version="1.0" standalone="no"?>
<!DOCTYPE svg PUBLIC "-//W3C//DTD SVG 1.1//EN" "http://www.w3.org/Graphics/SVG/1.1/DTD/svg11.dtd" >
<svg xmlns="http://www.w3.org/2000/svg" xmlns:xlink="http://www.w3.org/1999/xlink" version="1.1" viewBox="-10 0 930 1000">
   <path fill="currentColor"
d="M686 787c0 -63 -86 -99 -227 -99c-144 0 -230 36 -230 99c0 64 86 100 230 100c141 0 227 -36 227 -100zM866 482h-366v141c167 8 268 66 268 164c0 106 -117 166 -309 166c-195 0 -312 -60 -312 -166c0 -98 101 -156 270 -164v-141h-364v-66h603
c25 -108 25 -187 25 -254h-524v-67h605v65c0 67 0 148 -23 256h127v66z" />
</svg>
