<?xml version="1.0" standalone="no"?>
<!DOCTYPE svg PUBLIC "-//W3C//DTD SVG 1.1//EN" "http://www.w3.org/Graphics/SVG/1.1/DTD/svg11.dtd" >
<svg xmlns="http://www.w3.org/2000/svg" xmlns:xlink="http://www.w3.org/1999/xlink" version="1.1" viewBox="-10 0 930 1000">
   <path fill="currentColor"
d="M757 723h-254c22 83 152 151 295 166l-27 62c-135 -18 -258 -74 -312 -158c-53 86 -175 141 -314 158l-27 -62c147 -16 275 -80 295 -166h-254v-66h258v-79h82v79h258v66zM744 374h123v66h-367v104h-83v-104h-364v-66h609c18 -92 19 -160 19 -216h-524v-65h605v56
c0 58 0 130 -18 225z" />
</svg>
