<?xml version="1.0" standalone="no"?>
<!DOCTYPE svg PUBLIC "-//W3C//DTD SVG 1.1//EN" "http://www.w3.org/Graphics/SVG/1.1/DTD/svg11.dtd" >
<svg xmlns="http://www.w3.org/2000/svg" xmlns:xlink="http://www.w3.org/1999/xlink" version="1.1" viewBox="-10 0 930 1000">
   <path fill="currentColor"
d="M284 559v-147c-81 4 -158 5 -226 5l-10 -65c114 0 255 -1 396 -11c15 -78 19 -138 21 -180h-329v-66h408v24c0 39 0 115 -18 216c36 -4 72 -8 106 -13l5 58c-88 14 -181 23 -271 28v151h-82zM242 794v89c92 0 151 -3 224 -16l8 61c-86 15 -152 16 -265 16h-46v-207h207
v-73h-210v-61h289v191h-207zM717 882v-111h-136v111h136zM717 711v-113h75v346h-286v-346h75v113h136zM710 57h82v503h-82v-55h-197v-57h197v-391z" />
</svg>
