<?xml version="1.0" standalone="no"?>
<!DOCTYPE svg PUBLIC "-//W3C//DTD SVG 1.1//EN" "http://www.w3.org/Graphics/SVG/1.1/DTD/svg11.dtd" >
<svg xmlns="http://www.w3.org/2000/svg" xmlns:xlink="http://www.w3.org/1999/xlink" version="1.1" viewBox="-10 0 930 1000">
   <path fill="currentColor"
d="M808 57v551h-79v-551h79zM399 482h163v-410h78v531h-78v-60h-163v-61zM243 599v-157c-69 3 -135 4 -188 4l-11 -67c84 0 199 -1 310 -9c15 -80 18 -141 19 -185h-276v-66h353v38c0 45 0 115 -17 208c28 -3 57 -7 83 -11l7 59c-62 12 -133 20 -202 25v161h-78zM158 716
v-66h299v297h-81v-231h-218zM711 635v34c0 89 57 180 161 218l-41 63c-80 -30 -133 -87 -160 -155c-28 68 -81 125 -161 155l-41 -63c105 -38 161 -129 161 -218v-34h81z" />
</svg>
