<?xml version="1.0" standalone="no"?>
<!DOCTYPE svg PUBLIC "-//W3C//DTD SVG 1.1//EN" "http://www.w3.org/Graphics/SVG/1.1/DTD/svg11.dtd" >
<svg xmlns="http://www.w3.org/2000/svg" xmlns:xlink="http://www.w3.org/1999/xlink" version="1.1" viewBox="-10 0 930 1000">
   <path fill="currentColor"
d="M400 454h162v-382h78v493h-78v-52h-162v-59zM243 567v-150c-70 3 -135 4 -189 4l-10 -65c83 0 197 -1 309 -8c16 -77 19 -134 20 -175h-276v-65h353v35c0 43 0 110 -18 199c29 -3 57 -7 84 -11l7 57c-63 13 -133 21 -202 25v154h-78zM239 798v85c127 0 202 -3 292 -18
l8 59c-100 17 -180 20 -324 20h-55v-203h231v-70h-234v-60h313v187h-231zM512 676v-65h296v344h-85v-279h-211zM729 57h79v513h-79v-513z" />
</svg>
