<?xml version="1.0" standalone="no"?>
<!DOCTYPE svg PUBLIC "-//W3C//DTD SVG 1.1//EN" "http://www.w3.org/Graphics/SVG/1.1/DTD/svg11.dtd" >
<svg xmlns="http://www.w3.org/2000/svg" xmlns:xlink="http://www.w3.org/1999/xlink" version="1.1" viewBox="-10 0 930 1000">
   <path fill="currentColor"
d="M399 453h163v-381h78v490h-78v-50h-163v-59zM243 564v-147c-70 3 -135 3 -189 3l-10 -65c83 0 197 -1 308 -8c16 -76 19 -133 20 -174h-275v-65h352v35c0 42 0 109 -18 198c30 -3 57 -7 84 -11l7 57c-63 13 -133 21 -201 25v152h-78zM232 799v84c97 0 159 -2 236 -16
l8 60c-90 15 -157 17 -275 17h-49v-202h221v-73h-223v-60h302v190h-220zM583 672v209h150v-209h-150zM507 944v-335h301v335h-301zM729 57h79v511h-79v-511z" />
</svg>
