<?xml version="1.0" standalone="no"?>
<!DOCTYPE svg PUBLIC "-//W3C//DTD SVG 1.1//EN" "http://www.w3.org/Graphics/SVG/1.1/DTD/svg11.dtd" >
<svg xmlns="http://www.w3.org/2000/svg" xmlns:xlink="http://www.w3.org/1999/xlink" version="1.1" viewBox="-10 0 930 1000">
   <path fill="currentColor"
d="M784 57v523h-82v-523h82zM275 876h521v66h-602v-309h107v-161c-86 4 -168 5 -241 5l-12 -68c117 0 257 -1 397 -11c20 -99 22 -172 22 -228h-334v-67h415v52c0 56 0 134 -19 238c35 -3 72 -7 106 -12l6 60c-83 13 -172 22 -258 26v166h406v66h-514v177z" />
</svg>
