<?xml version="1.0" standalone="no"?>
<!DOCTYPE svg PUBLIC "-//W3C//DTD SVG 1.1//EN" "http://www.w3.org/Graphics/SVG/1.1/DTD/svg11.dtd" >
<svg xmlns="http://www.w3.org/2000/svg" xmlns:xlink="http://www.w3.org/1999/xlink" version="1.1" viewBox="-10 0 930 1000">
   <path fill="currentColor"
d="M234 785v98c91 -1 151 -4 224 -16l8 61c-86 15 -151 16 -265 16h-47v-219h208v-81h-210v-61h146v-133c-83 4 -163 5 -233 5l-12 -67c114 0 255 -1 394 -11c16 -93 19 -162 20 -211h-331v-65h411v32c0 47 0 129 -18 238c36 -3 72 -8 106 -13l7 60c-85 14 -175 23 -263 28
v137h62v202h-207zM572 645v237h136v-237h-136zM496 944v-361h288v361h-288zM702 58h82v480h-82v-480z" />
</svg>
