<?xml version="1.0" standalone="no"?>
<!DOCTYPE svg PUBLIC "-//W3C//DTD SVG 1.1//EN" "http://www.w3.org/Graphics/SVG/1.1/DTD/svg11.dtd" >
<svg xmlns="http://www.w3.org/2000/svg" xmlns:xlink="http://www.w3.org/1999/xlink" version="1.1" viewBox="-10 0 930 1000">
   <path fill="currentColor"
d="M783 57v516h-82v-516h82zM298 586v-139c-84 4 -166 5 -238 5l-12 -68c119 0 258 -1 398 -9c19 -93 21 -161 21 -215h-333v-66h414v52c0 54 0 128 -18 224c35 -3 70 -6 104 -10l6 59c-83 12 -172 20 -259 24v143h-83zM386 877v-108h-156v108h156zM386 706v-99h76v335h-308
v-335h76v99h156zM709 605v50c0 85 54 185 156 233l-44 62c-75 -35 -126 -99 -153 -170c-27 72 -77 136 -153 171l-43 -63c101 -48 155 -148 155 -233v-50h82z" />
</svg>
