<?xml version="1.0" standalone="no"?>
<!DOCTYPE svg PUBLIC "-//W3C//DTD SVG 1.1//EN" "http://www.w3.org/Graphics/SVG/1.1/DTD/svg11.dtd" >
<svg xmlns="http://www.w3.org/2000/svg" xmlns:xlink="http://www.w3.org/1999/xlink" version="1.1" viewBox="-10 0 930 1000">
   <path fill="currentColor"
d="M783 57v547h-82v-547h82zM301 602v-138c-87 4 -170 5 -242 5l-12 -67c116 -1 257 -2 398 -11c20 -98 22 -169 22 -224h-334v-66h415v50c0 55 0 132 -19 233c35 -4 72 -7 106 -12l6 58c-83 15 -172 25 -258 30v142h-82zM681 638v26c0 91 63 181 175 218l-40 61
c-85 -31 -145 -90 -175 -163c-26 72 -77 138 -159 171c-83 -33 -135 -99 -160 -171c-31 71 -90 131 -173 162l-41 -59c111 -38 175 -130 175 -219v-26h79v26c0 75 38 158 119 208c82 -51 120 -135 120 -208v-26h80z" />
</svg>
