<?xml version="1.0" standalone="no"?>
<!DOCTYPE svg PUBLIC "-//W3C//DTD SVG 1.1//EN" "http://www.w3.org/Graphics/SVG/1.1/DTD/svg11.dtd" >
<svg xmlns="http://www.w3.org/2000/svg" xmlns:xlink="http://www.w3.org/1999/xlink" version="1.1" viewBox="-10 0 930 1000">
   <path fill="currentColor"
d="M784 58v478h-82v-478h82zM274 882h537v62h-618v-358h105v-134c-83 4 -164 5 -233 6l-11 -67c113 -1 254 -2 393 -11c16 -94 19 -164 20 -213h-331v-66h411v33c0 46 0 130 -18 239c36 -4 72 -7 106 -12l7 58c-85 15 -175 23 -263 29v138h413v62h-518v85h507v60h-507v89z
" />
</svg>
