<?xml version="1.0" standalone="no"?>
<!DOCTYPE svg PUBLIC "-//W3C//DTD SVG 1.1//EN" "http://www.w3.org/Graphics/SVG/1.1/DTD/svg11.dtd" >
<svg xmlns="http://www.w3.org/2000/svg" xmlns:xlink="http://www.w3.org/1999/xlink" version="1.1" viewBox="-10 0 930 1000">
   <path fill="currentColor"
d="M865 449h-217v137h122v364h-81v-297h-204v-67h81v-137h-213v137h84v205h-216v90c131 0 201 -4 283 -22l8 62c-89 19 -163 23 -315 23h-55v-214h216v-81h-218v-63h131v-137h-218v-67h607c20 -96 21 -165 21 -224h-525v-66h606v56c0 60 0 136 -19 234h122v67z" />
</svg>
