<?xml version="1.0" standalone="no"?>
<!DOCTYPE svg PUBLIC "-//W3C//DTD SVG 1.1//EN" "http://www.w3.org/Graphics/SVG/1.1/DTD/svg11.dtd" >
<svg xmlns="http://www.w3.org/2000/svg" xmlns:xlink="http://www.w3.org/1999/xlink" version="1.1" viewBox="-10 0 930 1000">
   <path fill="currentColor"
d="M866 448h-218v126h122v64h-205v90h192v61h-192v93h215v64h-294v-372h80v-126h-213v126h73v207h-206v103c103 0 158 -3 228 -16l7 62c-80 15 -142 16 -267 16h-47v-224h206v-86h-209v-62h133v-126h-218v-66h607c20 -96 21 -166 21 -224h-525v-66h606v57
c0 60 0 135 -19 233h123v66z" />
</svg>
