<?xml version="1.0" standalone="no"?>
<!DOCTYPE svg PUBLIC "-//W3C//DTD SVG 1.1//EN" "http://www.w3.org/Graphics/SVG/1.1/DTD/svg11.dtd" >
<svg xmlns="http://www.w3.org/2000/svg" xmlns:xlink="http://www.w3.org/1999/xlink" version="1.1" viewBox="-10 0 930 1000">
   <path fill="currentColor"
d="M665 880v-241h-80v241h80zM866 440h-218v134h138v65h-53v241h61v66h-335v-66h58v-241h-53v-65h102v-134h-213v134h69v207h-202v103c95 0 149 -3 214 -16l8 62c-78 15 -136 16 -256 16h-45v-224h202v-86h-205v-62h133v-134h-218v-66h608c19 -92 20 -160 20 -216h-525v-66
h606v56c0 58 0 131 -18 226h122v66z" />
</svg>
