<?xml version="1.0" standalone="no"?>
<!DOCTYPE svg PUBLIC "-//W3C//DTD SVG 1.1//EN" "http://www.w3.org/Graphics/SVG/1.1/DTD/svg11.dtd" >
<svg xmlns="http://www.w3.org/2000/svg" xmlns:xlink="http://www.w3.org/1999/xlink" version="1.1" viewBox="-10 0 930 1000">
   <path fill="currentColor"
d="M362 877v-115h-154v115h154zM362 699v-110h75v353h-305v-353h76v110h154zM867 460h-247v116h60v78c0 91 51 193 156 238l-44 59c-75 -34 -125 -95 -151 -167c-27 71 -75 132 -149 167l-44 -59c104 -47 155 -149 155 -238v-45h-64v-149h-186v149h-82v-149h-219v-66h605
c22 -99 23 -171 23 -233h-526v-67h607v61c0 63 0 139 -21 239h127v66z" />
</svg>
