<?xml version="1.0" standalone="no"?>
<!DOCTYPE svg PUBLIC "-//W3C//DTD SVG 1.1//EN" "http://www.w3.org/Graphics/SVG/1.1/DTD/svg11.dtd" >
<svg xmlns="http://www.w3.org/2000/svg" xmlns:xlink="http://www.w3.org/1999/xlink" version="1.1" viewBox="-10 0 930 1000">
   <path fill="currentColor"
d="M220 780v102c95 0 149 -3 214 -15l8 62c-78 14 -136 15 -256 15h-45v-223h202v-87h-205v-61h284v207h-202zM585 638v241h80v-241h-80zM733 638v241h61v65h-335v-65h58v-241h-53v-65h322v65h-53zM740 407h126v67h-813v-67h605c22 -104 23 -180 23 -243h-525v-67h606v61
c0 66 0 142 -22 249z" />
</svg>
