<?xml version="1.0" standalone="no"?>
<!DOCTYPE svg PUBLIC "-//W3C//DTD SVG 1.1//EN" "http://www.w3.org/Graphics/SVG/1.1/DTD/svg11.dtd" >
<svg xmlns="http://www.w3.org/2000/svg" xmlns:xlink="http://www.w3.org/1999/xlink" version="1.1" viewBox="-10 0 930 1000">
   <path fill="currentColor"
d="M459 894c119 0 184 -22 184 -66c0 -43 -65 -65 -184 -65s-185 22 -185 65c0 44 66 66 185 66zM459 704c172 0 269 43 269 124c0 82 -97 125 -269 125c-173 0 -270 -43 -270 -125c0 -81 97 -124 270 -124zM500 512v86h289v63h-661v-63h290v-86h82zM742 391h125v66h-814
v-66h607c20 -99 21 -171 21 -230h-525v-66h606v57c0 61 0 138 -20 239z" />
</svg>
