<?xml version="1.0" standalone="no"?>
<!DOCTYPE svg PUBLIC "-//W3C//DTD SVG 1.1//EN" "http://www.w3.org/Graphics/SVG/1.1/DTD/svg11.dtd" >
<svg xmlns="http://www.w3.org/2000/svg" xmlns:xlink="http://www.w3.org/1999/xlink" version="1.1" viewBox="-10 0 930 1000">
   <path fill="currentColor"
d="M784 56v536h-82v-536h82zM635 418l6 59c-198 34 -418 38 -582 39l-11 -68c113 0 253 -1 393 -11c22 -109 23 -190 23 -256h-331v-67h411v60c0 66 0 150 -20 258c38 -4 75 -9 111 -14zM146 696v-66h297v320h-81v-254h-216zM699 626v49c0 86 58 175 164 213l-42 63
c-80 -31 -135 -89 -163 -157c-30 68 -84 126 -162 157l-42 -63c105 -40 163 -130 163 -213v-49h82z" />
</svg>
