<?xml version="1.0" standalone="no"?>
<!DOCTYPE svg PUBLIC "-//W3C//DTD SVG 1.1//EN" "http://www.w3.org/Graphics/SVG/1.1/DTD/svg11.dtd" >
<svg xmlns="http://www.w3.org/2000/svg" xmlns:xlink="http://www.w3.org/1999/xlink" version="1.1" viewBox="-10 0 930 1000">
   <path fill="currentColor"
d="M787 57v505h-83v-505h83zM110 115h414c0 229 -163 386 -427 455l-31 -67c221 -55 354 -173 369 -322h-325v-66zM546 681c0 101 132 186 289 208l-30 62c-132 -20 -249 -82 -301 -169c-52 87 -168 148 -299 169l-29 -62c154 -22 286 -107 286 -208v-1h-251v-66h588v66z
" />
</svg>
