<?xml version="1.0" standalone="no"?>
<!DOCTYPE svg PUBLIC "-//W3C//DTD SVG 1.1//EN" "http://www.w3.org/Graphics/SVG/1.1/DTD/svg11.dtd" >
<svg xmlns="http://www.w3.org/2000/svg" xmlns:xlink="http://www.w3.org/1999/xlink" version="1.1" viewBox="-10 0 930 1000">
   <path fill="currentColor"
d="M372 573l-66 -49c114 -93 162 -199 173 -337h-136v-70h218c0 183 -46 332 -189 456zM70 117h240c0 179 -58 305 -202 410l-60 -53c111 -77 167 -160 178 -287h-156v-70zM654 681v11c0 83 63 162 169 197l-36 62c-86 -28 -146 -84 -175 -153c-30 69 -90 125 -175 153
l-37 -61c-81 31 -184 39 -219 39h-46v-310h81v239c50 -5 138 -18 192 -47l19 67l-9 4c96 -37 151 -113 151 -190v-11h-145v-67h377v67h-147zM758 287h120v69h-120v227h-82v-526h82v230z" />
</svg>
