<?xml version="1.0" standalone="no"?>
<!DOCTYPE svg PUBLIC "-//W3C//DTD SVG 1.1//EN" "http://www.w3.org/Graphics/SVG/1.1/DTD/svg11.dtd" >
<svg xmlns="http://www.w3.org/2000/svg" xmlns:xlink="http://www.w3.org/1999/xlink" version="1.1" viewBox="-10 0 930 1000">
   <path fill="currentColor"
d="M367 526l-56 -51c115 -80 167 -173 179 -301h-138v-67h216c0 176 -54 309 -201 419zM78 107h237c0 174 -68 284 -204 380l-54 -53c103 -67 165 -140 179 -260h-158v-67zM782 697h-256c14 91 140 170 286 191l-29 63c-132 -22 -248 -84 -300 -171
c-52 87 -169 149 -299 171l-30 -63c145 -21 272 -100 286 -191h-257v-66h259v-96h82v96h258v66zM750 267h132v68h-132v230h-82v-508h82v210z" />
</svg>
