<?xml version="1.0" standalone="no"?>
<!DOCTYPE svg PUBLIC "-//W3C//DTD SVG 1.1//EN" "http://www.w3.org/Graphics/SVG/1.1/DTD/svg11.dtd" >
<svg xmlns="http://www.w3.org/2000/svg" xmlns:xlink="http://www.w3.org/1999/xlink" version="1.1" viewBox="-10 0 930 1000">
   <path fill="currentColor"
d="M370 570l-60 -47c120 -93 169 -202 180 -340h-136v-67h214c0 182 -49 332 -198 454zM82 116h237c0 179 -58 305 -208 410l-53 -52c115 -76 170 -162 182 -291h-158v-67zM165 688v-65h584v331h-81v-123l-510 24l-10 -64l520 -20v-83h-503zM882 286v68h-133v225h-82v-522
h82v229h133z" />
</svg>
