<?xml version="1.0" standalone="no"?>
<!DOCTYPE svg PUBLIC "-//W3C//DTD SVG 1.1//EN" "http://www.w3.org/Graphics/SVG/1.1/DTD/svg11.dtd" >
<svg xmlns="http://www.w3.org/2000/svg" xmlns:xlink="http://www.w3.org/1999/xlink" version="1.1" viewBox="-10 0 930 1000">
   <path fill="currentColor"
d="M631 395v299h-78v-621h78v255h106v-270h79v665h-79v-328h-106zM332 602l-65 -42c104 -106 139 -221 147 -363h-110v-66h185c0 178 -29 334 -157 471zM75 131h205c0 173 -35 302 -164 421l-61 -46c101 -88 140 -179 149 -309h-129v-66zM297 867h546v67h-628v-282h82v215z
" />
</svg>
