<?xml version="1.0" standalone="no"?>
<!DOCTYPE svg PUBLIC "-//W3C//DTD SVG 1.1//EN" "http://www.w3.org/Graphics/SVG/1.1/DTD/svg11.dtd" >
<svg xmlns="http://www.w3.org/2000/svg" xmlns:xlink="http://www.w3.org/1999/xlink" version="1.1" viewBox="-10 0 930 1000">
   <path fill="currentColor"
d="M72 112h205c0 166 -51 271 -162 371l-60 -45c85 -73 136 -140 148 -258h-131v-68zM229 791v97c93 0 159 -2 243 -15l8 62c-96 15 -169 16 -282 16h-49v-219h223v-93h-225v-65h305v217h-223zM302 112h189c0 173 -36 307 -160 429l-62 -43c98 -91 138 -186 147 -318h-114
v-68zM581 636v257h165v-257h-165zM511 954v-379h305v379h-305zM741 57h75v473h-75v-201h-101v195h-74v-450h74v187h101v-204z" />
</svg>
