<?xml version="1.0" standalone="no"?>
<!DOCTYPE svg PUBLIC "-//W3C//DTD SVG 1.1//EN" "http://www.w3.org/Graphics/SVG/1.1/DTD/svg11.dtd" >
<svg xmlns="http://www.w3.org/2000/svg" xmlns:xlink="http://www.w3.org/1999/xlink" version="1.1" viewBox="-10 0 930 1000">
   <path fill="currentColor"
d="M640 329v198h-74v-452h74v186h101v-203h75v471h-75v-200h-101zM72 112h205c0 165 -51 270 -162 371l-60 -45c85 -73 136 -141 148 -258h-131v-68zM233 791v97c105 0 170 -3 252 -17l5 63c-90 15 -161 16 -284 16h-49v-218h232v-94h-235v-63h312v216h-233zM301 112h190
c0 172 -36 307 -160 429l-62 -43c98 -92 138 -187 147 -318h-115v-68zM592 885h245v63h-324v-373h312v64h-233v92h223v58h-223v96z" />
</svg>
