<?xml version="1.0" standalone="no"?>
<!DOCTYPE svg PUBLIC "-//W3C//DTD SVG 1.1//EN" "http://www.w3.org/Graphics/SVG/1.1/DTD/svg11.dtd" >
<svg xmlns="http://www.w3.org/2000/svg" xmlns:xlink="http://www.w3.org/1999/xlink" version="1.1" viewBox="-10 0 930 1000">
   <path fill="currentColor"
d="M340 552l-65 -43c98 -98 132 -201 139 -335h-108v-66h183c0 172 -25 314 -149 444zM76 108h205c0 170 -37 288 -163 398l-60 -46c97 -81 138 -162 148 -286h-130v-66zM734 876v-118h-428v118h428zM734 693v-107h81v357h-590v-357h81v107h428zM737 58h78v488h-78v-205
h-106v199h-77v-465h77v199h106v-216z" />
</svg>
