<?xml version="1.0" standalone="no"?>
<!DOCTYPE svg PUBLIC "-//W3C//DTD SVG 1.1//EN" "http://www.w3.org/Graphics/SVG/1.1/DTD/svg11.dtd" >
<svg xmlns="http://www.w3.org/2000/svg" xmlns:xlink="http://www.w3.org/1999/xlink" version="1.1" viewBox="-10 0 930 1000">
   <path fill="currentColor"
d="M374 573l-66 -49c109 -93 159 -198 170 -337h-135v-70h218c0 183 -49 331 -187 456zM70 117h239c0 179 -58 305 -200 409l-60 -52c110 -76 165 -160 177 -287h-156v-70zM651 682v8c0 84 64 165 167 201l-41 60c-81 -28 -139 -85 -168 -153c-30 71 -90 129 -174 158
l-41 -62c-82 31 -182 40 -219 40h-48v-316h79v235c50 -5 142 -18 197 -48l22 76c-8 4 -17 8 -27 12c108 -38 169 -122 169 -206v-5h-147v-68h380v68h-149zM878 261h-122v128h122v70h-122v123h-81v-525h81v135h122v69z" />
</svg>
