<?xml version="1.0" standalone="no"?>
<!DOCTYPE svg PUBLIC "-//W3C//DTD SVG 1.1//EN" "http://www.w3.org/Graphics/SVG/1.1/DTD/svg11.dtd" >
<svg xmlns="http://www.w3.org/2000/svg" xmlns:xlink="http://www.w3.org/1999/xlink" version="1.1" viewBox="-10 0 930 1000">
   <path fill="currentColor"
d="M374 572l-66 -48c109 -94 159 -197 170 -337h-135v-70h218c0 184 -49 332 -187 455zM70 117h239c0 179 -58 305 -201 410l-60 -53c111 -76 166 -160 178 -287h-156v-70zM257 695v181h514v68h-598v-316h592v67h-508zM878 261h-122v129h122v69h-122v124h-81v-525h81v134
h122v69z" />
</svg>
