<?xml version="1.0" standalone="no"?>
<!DOCTYPE svg PUBLIC "-//W3C//DTD SVG 1.1//EN" "http://www.w3.org/Graphics/SVG/1.1/DTD/svg11.dtd" >
<svg xmlns="http://www.w3.org/2000/svg" xmlns:xlink="http://www.w3.org/1999/xlink" version="1.1" viewBox="-10 0 930 1000">
   <path fill="currentColor"
d="M373 572l-66 -48c110 -94 160 -197 171 -337h-135v-70h218c0 184 -49 332 -188 455zM69 117h240c0 179 -58 305 -201 410l-60 -53c111 -76 166 -160 178 -287h-157v-70zM147 691v-66h609v330h-84v-118l-533 25l-13 -66l546 -20v-85h-525zM878 261h-122v129h122v69h-122
v124h-81v-525h81v134h122v69z" />
</svg>
