<?xml version="1.0" standalone="no"?>
<!DOCTYPE svg PUBLIC "-//W3C//DTD SVG 1.1//EN" "http://www.w3.org/Graphics/SVG/1.1/DTD/svg11.dtd" >
<svg xmlns="http://www.w3.org/2000/svg" xmlns:xlink="http://www.w3.org/1999/xlink" version="1.1" viewBox="-10 0 930 1000">
   <path fill="currentColor"
d="M325 589l-62 -44c102 -102 139 -214 147 -351h-108v-67h183c0 174 -32 328 -160 462zM72 127h204c0 169 -43 293 -162 408l-60 -45c91 -85 137 -169 148 -296h-130v-67zM193 701v-67h623v321h-83v-254h-540zM624 388h118v-126h-118v126zM742 58h74v527h-74v-128h-118v124
h-73v-507h73v119h118v-135z" />
</svg>
