<?xml version="1.0" standalone="no"?>
<!DOCTYPE svg PUBLIC "-//W3C//DTD SVG 1.1//EN" "http://www.w3.org/Graphics/SVG/1.1/DTD/svg11.dtd" >
<svg xmlns="http://www.w3.org/2000/svg" xmlns:xlink="http://www.w3.org/1999/xlink" version="1.1" viewBox="-10 0 930 1000">
   <path fill="currentColor"
d="M72 127h204c0 169 -43 292 -162 408l-60 -45c91 -85 137 -169 148 -296h-130v-67zM166 686v-68h308v336h-83v-268h-225zM301 127h184c0 173 -32 328 -160 462l-63 -43c103 -104 140 -215 148 -352h-109v-67zM519 686v-68h297v336h-82v-268h-215zM624 382h118v-126h-118
v126zM742 57h74v523h-74v-128h-118v123h-73v-501h73v113h118v-130z" />
</svg>
