<?xml version="1.0" standalone="no"?>
<!DOCTYPE svg PUBLIC "-//W3C//DTD SVG 1.1//EN" "http://www.w3.org/Graphics/SVG/1.1/DTD/svg11.dtd" >
<svg xmlns="http://www.w3.org/2000/svg" xmlns:xlink="http://www.w3.org/1999/xlink" version="1.1" viewBox="-10 0 930 1000">
   <path fill="currentColor"
d="M330 540l-63 -44c100 -90 140 -186 149 -316h-114v-68h189c0 172 -35 306 -161 428zM72 112h203c0 166 -45 270 -162 371l-59 -46c88 -72 135 -140 147 -257h-129v-68zM246 786v99c119 0 196 -3 290 -19l7 64c-103 18 -186 20 -323 20h-57v-224h233v-87h-235v-65h318v212
h-233zM516 641v-67h300v379h-84v-312h-216zM627 358h115v-116h-115v116zM742 58h74v471h-74v-104h-115v100h-73v-451h73v101h115v-117z" />
</svg>
