<?xml version="1.0" standalone="no"?>
<!DOCTYPE svg PUBLIC "-//W3C//DTD SVG 1.1//EN" "http://www.w3.org/Graphics/SVG/1.1/DTD/svg11.dtd" >
<svg xmlns="http://www.w3.org/2000/svg" xmlns:xlink="http://www.w3.org/1999/xlink" version="1.1" viewBox="-10 0 930 1000">
   <path fill="currentColor"
d="M741 242h-110v116h110v-116zM631 425v99h-73v-450h73v101h110v-117h74v470h-74v-103h-110zM72 112h203c0 166 -45 271 -162 371l-59 -46c88 -72 135 -140 147 -257h-129v-68zM225 791v96c105 0 165 -2 243 -16l10 62c-89 15 -157 17 -283 17h-49v-218h223v-93h-226v-64
h305v216h-223zM302 112h189c0 173 -35 307 -160 428l-63 -43c100 -90 139 -186 148 -317h-114v-68zM742 884v-118h-167v118h167zM742 573h74v375h-315v-375h74v129h167v-129z" />
</svg>
