<?xml version="1.0" standalone="no"?>
<!DOCTYPE svg PUBLIC "-//W3C//DTD SVG 1.1//EN" "http://www.w3.org/Graphics/SVG/1.1/DTD/svg11.dtd" >
<svg xmlns="http://www.w3.org/2000/svg" xmlns:xlink="http://www.w3.org/1999/xlink" version="1.1" viewBox="-10 0 930 1000">
   <path fill="currentColor"
d="M737 264h-105v110h105v-110zM632 440v133h-77v-499h77v123h105v-139h79v546h-79v-164h-105zM331 582l-64 -43c102 -99 138 -206 146 -343h-110v-66h185c0 175 -29 322 -157 452zM74 130h206c0 170 -35 290 -161 403l-61 -46c97 -82 137 -166 146 -291h-130v-66zM521 889
c137 0 222 -37 222 -102c0 -64 -85 -102 -223 -102s-223 38 -223 102c0 65 85 102 224 102zM520 621c188 0 306 62 306 166c0 105 -118 166 -306 166s-306 -61 -306 -166c0 -104 118 -166 306 -166z" />
</svg>
