<?xml version="1.0" standalone="no"?>
<!DOCTYPE svg PUBLIC "-//W3C//DTD SVG 1.1//EN" "http://www.w3.org/Graphics/SVG/1.1/DTD/svg11.dtd" >
<svg xmlns="http://www.w3.org/2000/svg" xmlns:xlink="http://www.w3.org/1999/xlink" version="1.1" viewBox="-10 0 930 1000">
   <path fill="currentColor"
d="M372 573l-67 -49c107 -94 156 -198 166 -338h-138v-69h220c0 58 -5 114 -15 166h170v-226h82v523h-82v-228h-189c-28 81 -75 154 -147 221zM69 117h237c0 177 -53 302 -194 411l-59 -53c107 -78 160 -161 172 -289h-156v-69zM138 681v-67h307v343h-81v-276h-226zM701 602
v74c0 88 56 178 160 219l-46 65c-75 -31 -127 -89 -156 -156c-30 68 -85 128 -163 158l-45 -63c112 -43 169 -139 169 -227v-70h81z" />
</svg>
