<?xml version="1.0" standalone="no"?>
<!DOCTYPE svg PUBLIC "-//W3C//DTD SVG 1.1//EN" "http://www.w3.org/Graphics/SVG/1.1/DTD/svg11.dtd" >
<svg xmlns="http://www.w3.org/2000/svg" xmlns:xlink="http://www.w3.org/1999/xlink" version="1.1" viewBox="-10 0 930 1000">
   <path fill="currentColor"
d="M371 572l-67 -48c108 -94 156 -198 167 -338h-139v-69h221c0 58 -5 114 -15 166h167v-226h82v523h-82v-228h-187c-28 81 -75 154 -147 220zM69 117h237c0 177 -53 302 -194 411l-59 -53c107 -78 160 -161 172 -289h-156v-69zM271 876h535v68h-617v-316h610v67h-528v181z
" />
</svg>
