<?xml version="1.0" standalone="no"?>
<!DOCTYPE svg PUBLIC "-//W3C//DTD SVG 1.1//EN" "http://www.w3.org/Graphics/SVG/1.1/DTD/svg11.dtd" >
<svg xmlns="http://www.w3.org/2000/svg" xmlns:xlink="http://www.w3.org/1999/xlink" version="1.1" viewBox="-10 0 930 1000">
   <path fill="currentColor"
d="M369 521l-65 -48c103 -83 155 -168 166 -299h-137v-68h220c0 57 -6 107 -16 155h170v-203h82v469h-82v-199h-192c-29 72 -76 135 -146 193zM69 106h236c0 171 -65 277 -196 372l-57 -53c98 -66 159 -133 173 -251h-156v-68zM706 568v91c0 96 50 190 155 235l-47 61
c-73 -32 -121 -89 -148 -158c-27 73 -78 132 -154 165l-43 -56l4 26c-82 17 -147 18 -277 18h-49v-222h226v-89h-228v-64h307v213h-226v97c108 0 166 -2 237 -17l5 32c107 -47 158 -145 158 -250v-82h80z" />
</svg>
