<?xml version="1.0" standalone="no"?>
<!DOCTYPE svg PUBLIC "-//W3C//DTD SVG 1.1//EN" "http://www.w3.org/Graphics/SVG/1.1/DTD/svg11.dtd" >
<svg xmlns="http://www.w3.org/2000/svg" xmlns:xlink="http://www.w3.org/1999/xlink" version="1.1" viewBox="-10 0 930 1000">
   <path fill="currentColor"
d="M370 520l-65 -48c102 -82 154 -167 165 -298h-137v-68h220c0 57 -6 107 -16 155h170v-203h82v468h-82v-198h-193c-28 72 -75 135 -144 192zM69 106h237c0 171 -66 277 -198 371l-56 -52c98 -66 158 -133 173 -251h-156v-68zM218 787v100c102 0 164 -2 244 -15l6 62
c-89 15 -159 16 -278 16h-49v-221h228v-90h-230v-64h307v212h-228zM576 885h230v63h-309v-374h298v63h-219v93h210v58h-210v97z" />
</svg>
