<?xml version="1.0" standalone="no"?>
<!DOCTYPE svg PUBLIC "-//W3C//DTD SVG 1.1//EN" "http://www.w3.org/Graphics/SVG/1.1/DTD/svg11.dtd" >
<svg xmlns="http://www.w3.org/2000/svg" xmlns:xlink="http://www.w3.org/1999/xlink" version="1.1" viewBox="-10 0 930 1000">
   <path fill="currentColor"
d="M370 520l-65 -48c102 -82 154 -167 165 -298h-137v-68h220c0 57 -6 107 -16 155h170v-203h82v470h-82v-200h-192c-29 72 -76 135 -145 192zM69 106h237c0 171 -65 277 -197 371l-57 -52c98 -66 159 -133 173 -251h-156v-68zM230 784v101c95 0 155 -4 230 -17l8 64
c-86 17 -154 18 -269 18h-48v-221h216v-88h-218v-66h297v209h-216zM618 641v242h72v-242h-72zM756 883h63v67h-332v-67h65v-242h-60v-66h323v66h-59v242z" />
</svg>
