<?xml version="1.0" standalone="no"?>
<!DOCTYPE svg PUBLIC "-//W3C//DTD SVG 1.1//EN" "http://www.w3.org/Graphics/SVG/1.1/DTD/svg11.dtd" >
<svg xmlns="http://www.w3.org/2000/svg" xmlns:xlink="http://www.w3.org/1999/xlink" version="1.1" viewBox="-10 0 930 1000">
   <path fill="currentColor"
d="M69 117h237c0 177 -53 302 -194 411l-59 -53c107 -78 160 -161 172 -289h-156v-69zM168 691v-66h621v330h-84v-119l-545 26l-11 -66l556 -20v-85h-537zM707 57h82v523h-82v-227h-190c-28 81 -74 153 -145 219l-67 -48c107 -94 156 -198 166 -338h-137v-69h219
c0 58 -5 114 -16 167h170v-227z" />
</svg>
