<?xml version="1.0" standalone="no"?>
<!DOCTYPE svg PUBLIC "-//W3C//DTD SVG 1.1//EN" "http://www.w3.org/Graphics/SVG/1.1/DTD/svg11.dtd" >
<svg xmlns="http://www.w3.org/2000/svg" xmlns:xlink="http://www.w3.org/1999/xlink" version="1.1" viewBox="-10 0 930 1000">
   <path fill="currentColor"
d="M816 58v514h-75v-514h75zM325 590l-63 -42c100 -105 135 -217 143 -356h-105v-67h178c0 55 -3 107 -11 158h112v-207h74v489h-74v-216h-125c-21 86 -61 166 -129 241zM72 125h199c0 169 -36 293 -157 411l-59 -44c92 -86 134 -174 144 -300h-127v-67zM158 681v-67h303
v342h-82v-275h-221zM718 602v71c0 91 54 181 160 222l-45 65c-77 -31 -129 -88 -158 -157c-30 69 -84 128 -163 159l-45 -63c111 -43 170 -141 170 -229v-68h81z" />
</svg>
