<?xml version="1.0" standalone="no"?>
<!DOCTYPE svg PUBLIC "-//W3C//DTD SVG 1.1//EN" "http://www.w3.org/Graphics/SVG/1.1/DTD/svg11.dtd" >
<svg xmlns="http://www.w3.org/2000/svg" xmlns:xlink="http://www.w3.org/1999/xlink" version="1.1" viewBox="-10 0 930 1000">
   <path fill="currentColor"
d="M816 58v525h-75v-525h75zM325 589l-63 -41c100 -105 135 -217 143 -356h-105v-67h178c0 55 -3 107 -11 158h112v-207h74v503h-74v-230h-125c-21 86 -60 165 -129 240zM72 125h199c0 169 -36 293 -157 411l-59 -45c92 -85 134 -173 144 -299h-127v-67zM692 690v18
c0 82 64 156 169 190l-44 61c-78 -26 -135 -79 -166 -143c-30 66 -91 121 -175 148l-41 -58c-83 27 -178 33 -221 33h-48v-301h80v220c52 -3 141 -13 199 -41l20 74c92 -40 144 -111 144 -184v-17h-150v-67h383v67h-150z" />
</svg>
