<?xml version="1.0" standalone="no"?>
<!DOCTYPE svg PUBLIC "-//W3C//DTD SVG 1.1//EN" "http://www.w3.org/Graphics/SVG/1.1/DTD/svg11.dtd" >
<svg xmlns="http://www.w3.org/2000/svg" xmlns:xlink="http://www.w3.org/1999/xlink" version="1.1" viewBox="-10 0 930 1000">
   <path fill="currentColor"
d="M816 58v527h-75v-527h75zM325 590l-63 -42c100 -105 135 -217 143 -356h-106v-67h179c0 56 -3 111 -12 164h113v-213h74v506h-74v-227h-126c-22 84 -61 161 -128 235zM72 125h199c0 169 -36 293 -157 411l-59 -45c92 -85 134 -172 144 -299h-127v-67zM284 876h544v68
h-627v-316h621v68h-538v180z" />
</svg>
