<?xml version="1.0" standalone="no"?>
<!DOCTYPE svg PUBLIC "-//W3C//DTD SVG 1.1//EN" "http://www.w3.org/Graphics/SVG/1.1/DTD/svg11.dtd" >
<svg xmlns="http://www.w3.org/2000/svg" xmlns:xlink="http://www.w3.org/1999/xlink" version="1.1" viewBox="-10 0 930 1000">
   <path fill="currentColor"
d="M816 58v471h-74v-471h74zM331 532l-61 -44c95 -91 133 -184 142 -313h-112v-67h186c0 55 -3 104 -12 152h112v-184h73v444h-73v-194h-128c-22 74 -61 143 -127 206zM72 108h204c0 164 -50 267 -162 368l-60 -46c85 -72 134 -137 146 -255h-128v-67zM295 884h551v67h-636
v-226h521v-88h-523v-65h607v214h-520v98z" />
</svg>
