<?xml version="1.0" standalone="no"?>
<!DOCTYPE svg PUBLIC "-//W3C//DTD SVG 1.1//EN" "http://www.w3.org/Graphics/SVG/1.1/DTD/svg11.dtd" >
<svg xmlns="http://www.w3.org/2000/svg" xmlns:xlink="http://www.w3.org/1999/xlink" version="1.1" viewBox="-10 0 930 1000">
   <path fill="currentColor"
d="M816 58v475h-74v-475h74zM331 532l-61 -45c95 -90 133 -183 142 -312h-112v-67h186c0 55 -3 104 -12 152h112v-184h73v449h-73v-199h-128c-22 74 -61 142 -127 206zM72 108h204c0 164 -50 267 -162 367l-60 -45c85 -72 134 -137 146 -255h-128v-67zM242 785v100
c95 0 156 -3 233 -17l7 65c-86 16 -155 17 -272 17h-49v-221h224v-87h-226v-66h306v209h-223zM639 641v242h71v-242h-71zM775 883h66v67h-336v-67h68v-242h-64v-65h329v65h-63v242z" />
</svg>
