<?xml version="1.0" standalone="no"?>
<!DOCTYPE svg PUBLIC "-//W3C//DTD SVG 1.1//EN" "http://www.w3.org/Graphics/SVG/1.1/DTD/svg11.dtd" >
<svg xmlns="http://www.w3.org/2000/svg" xmlns:xlink="http://www.w3.org/1999/xlink" version="1.1" viewBox="-10 0 930 1000">
   <path fill="currentColor"
d="M324 572l-63 -42c102 -101 137 -210 145 -348h-104v-67h178c0 62 -4 121 -13 177h107v-215h77v489h-77v-207h-124c-23 76 -62 146 -126 213zM77 115h201c0 171 -35 293 -159 407l-60 -46c97 -83 136 -167 145 -294h-127v-67zM304 680v195h430v-195h-430zM224 941v-326
h591v326h-591zM736 57h79v518h-79v-518z" />
</svg>
