<?xml version="1.0" standalone="no"?>
<!DOCTYPE svg PUBLIC "-//W3C//DTD SVG 1.1//EN" "http://www.w3.org/Graphics/SVG/1.1/DTD/svg11.dtd" >
<svg xmlns="http://www.w3.org/2000/svg" xmlns:xlink="http://www.w3.org/1999/xlink" version="1.1" viewBox="-10 0 930 1000">
   <path fill="currentColor"
d="M76 155h244c0 213 -51 423 -211 594l-64 -47c131 -137 187 -301 197 -480h-166v-67zM510 539h196v-172h-158c-8 58 -21 115 -38 172zM706 57h82v897h-82v-348h-220c-29 72 -68 141 -121 205l-67 -45c135 -158 178 -356 186 -544h-137v-67h214c0 47 -2 96 -6 146h151v-244
z" />
</svg>
