<?xml version="1.0" standalone="no"?>
<!DOCTYPE svg PUBLIC "-//W3C//DTD SVG 1.1//EN" "http://www.w3.org/Graphics/SVG/1.1/DTD/svg11.dtd" >
<svg xmlns="http://www.w3.org/2000/svg" xmlns:xlink="http://www.w3.org/1999/xlink" version="1.1" viewBox="-10 0 930 1000">
   <path fill="currentColor"
d="M365 615l-58 -51c121 -102 168 -222 177 -365h-133v-67h210c0 34 -1 69 -5 102h150v-175h82v660h-82v-203h-177v-67h177v-148h-159c-24 117 -75 222 -182 314zM83 132h236c0 181 -50 322 -202 438l-55 -52c117 -87 168 -185 179 -319h-158v-67zM290 867h521v67h-603v-268
h82v201z" />
</svg>
