<?xml version="1.0" standalone="no"?>
<!DOCTYPE svg PUBLIC "-//W3C//DTD SVG 1.1//EN" "http://www.w3.org/Graphics/SVG/1.1/DTD/svg11.dtd" >
<svg xmlns="http://www.w3.org/2000/svg" xmlns:xlink="http://www.w3.org/1999/xlink" version="1.1" viewBox="-10 0 930 1000">
   <path fill="currentColor"
d="M707 272h-168c-21 117 -72 217 -167 306l-66 -48c107 -95 154 -201 165 -344h-139v-69h221c0 31 -1 59 -4 89h158v-149h81v535h-81v-123h-171v-66h171v-131zM69 117h236c0 178 -53 306 -194 415l-59 -52c108 -79 161 -164 173 -294h-156v-69zM273 876h534v68h-617v-316
h610v67h-527v181z" />
</svg>
