<?xml version="1.0" standalone="no"?>
<!DOCTYPE svg PUBLIC "-//W3C//DTD SVG 1.1//EN" "http://www.w3.org/Graphics/SVG/1.1/DTD/svg11.dtd" >
<svg xmlns="http://www.w3.org/2000/svg" xmlns:xlink="http://www.w3.org/1999/xlink" version="1.1" viewBox="-10 0 930 1000">
   <path fill="currentColor"
d="M72 106h233c0 173 -62 277 -193 373l-56 -51c98 -67 156 -137 170 -254h-154v-68zM237 786v99c116 0 190 -3 282 -19l6 64c-101 18 -182 20 -316 20h-55v-224h223v-87h-225v-65h307v212h-222zM497 641v-67h292v380h-82v-313h-210zM707 58h83v473h-83v-111h-177v-65h177
v-105h-172c-23 106 -73 192 -170 269l-63 -45c109 -82 158 -171 168 -300h-137v-68h215c0 27 -1 53 -4 78h163v-126z" />
</svg>
