<?xml version="1.0" standalone="no"?>
<!DOCTYPE svg PUBLIC "-//W3C//DTD SVG 1.1//EN" "http://www.w3.org/Graphics/SVG/1.1/DTD/svg11.dtd" >
<svg xmlns="http://www.w3.org/2000/svg" xmlns:xlink="http://www.w3.org/1999/xlink" version="1.1" viewBox="-10 0 930 1000">
   <path fill="currentColor"
d="M363 545l-64 -49c108 -88 161 -184 172 -322h-136v-66h218c0 32 -2 62 -5 91h158v-141h82v520h-82v-132h-182v-67h182v-114h-169c-24 109 -78 200 -174 280zM69 108h236c0 175 -66 290 -199 390l-58 -52c100 -72 163 -148 176 -272h-155v-66zM797 717h-265
c20 89 145 167 293 187l-28 63c-136 -20 -256 -85 -310 -173c-53 88 -174 153 -309 173l-30 -63c149 -20 274 -98 294 -187h-263v-64h267v-91h82v91h269v64z" />
</svg>
