<?xml version="1.0" standalone="no"?>
<!DOCTYPE svg PUBLIC "-//W3C//DTD SVG 1.1//EN" "http://www.w3.org/Graphics/SVG/1.1/DTD/svg11.dtd" >
<svg xmlns="http://www.w3.org/2000/svg" xmlns:xlink="http://www.w3.org/1999/xlink" version="1.1" viewBox="-10 0 930 1000">
   <path fill="currentColor"
d="M358 551l-58 -48c118 -90 167 -192 178 -328h-128v-66h205c0 31 -1 60 -5 89h156v-140h82v487h-82v-100h-172v-66h172v-116h-165c-25 111 -79 205 -183 288zM82 109h236c0 177 -58 298 -206 400l-53 -52c114 -74 167 -157 179 -282h-156v-66zM292 880h516v62h-598v-355
h581v62h-499v84h486v61h-486v86z" />
</svg>
