<?xml version="1.0" standalone="no"?>
<!DOCTYPE svg PUBLIC "-//W3C//DTD SVG 1.1//EN" "http://www.w3.org/Graphics/SVG/1.1/DTD/svg11.dtd" >
<svg xmlns="http://www.w3.org/2000/svg" xmlns:xlink="http://www.w3.org/1999/xlink" version="1.1" viewBox="-10 0 930 1000">
   <path fill="currentColor"
d="M819 57v499h-77v-499h77zM325 567l-62 -41c97 -100 134 -207 142 -340h-110v-68h183c0 30 -1 58 -3 88h111v-133h76v480h-76v-108h-129v-64h129v-110h-119c-16 107 -56 206 -142 296zM72 118h199c0 164 -37 283 -158 396l-58 -45c91 -79 133 -162 143 -283h-126v-68z
M243 630v237c56 -2 127 -10 191 -32l15 67c-89 28 -176 34 -243 34h-44v-306h81zM639 906c54 0 94 -18 94 -51c0 -32 -40 -51 -94 -51c-55 0 -94 19 -94 51c0 33 39 51 94 51zM639 749c97 0 166 41 166 106s-69 107 -166 107s-166 -42 -166 -107s69 -106 166 -106zM679 657
h186v61h-451v-61h186v-71h79v71z" />
</svg>
