<?xml version="1.0" standalone="no"?>
<!DOCTYPE svg PUBLIC "-//W3C//DTD SVG 1.1//EN" "http://www.w3.org/Graphics/SVG/1.1/DTD/svg11.dtd" >
<svg xmlns="http://www.w3.org/2000/svg" xmlns:xlink="http://www.w3.org/1999/xlink" version="1.1" viewBox="-10 0 930 1000">
   <path fill="currentColor"
d="M816 58v530h-74v-530h74zM323 589l-62 -42c100 -103 136 -216 144 -355h-106v-67h179c0 30 -1 59 -3 88h112v-140h73v515h-73v-125h-137v-68h137v-115h-120c-16 113 -56 216 -144 309zM72 125h199c0 169 -36 294 -157 411l-60 -44c94 -86 135 -173 145 -300h-127v-67z
M285 876h543v68h-627v-316h621v68h-537v180z" />
</svg>
