<?xml version="1.0" standalone="no"?>
<!DOCTYPE svg PUBLIC "-//W3C//DTD SVG 1.1//EN" "http://www.w3.org/Graphics/SVG/1.1/DTD/svg11.dtd" >
<svg xmlns="http://www.w3.org/2000/svg" xmlns:xlink="http://www.w3.org/1999/xlink" version="1.1" viewBox="-10 0 930 1000">
   <path fill="currentColor"
d="M816 58v472h-74v-472h74zM330 532l-61 -44c95 -91 132 -184 141 -313h-111v-67h186c0 30 -1 58 -3 86h104v-121h74v450h-74v-100h-128v-64h128v-100h-113c-18 102 -59 190 -143 273zM72 108h201c0 164 -46 267 -159 367l-59 -45c84 -72 132 -137 144 -255h-127v-67z
M295 884h551v66h-635v-225h521v-87h-523v-66h607v214h-521v98z" />
</svg>
