<?xml version="1.0" standalone="no"?>
<!DOCTYPE svg PUBLIC "-//W3C//DTD SVG 1.1//EN" "http://www.w3.org/Graphics/SVG/1.1/DTD/svg11.dtd" >
<svg xmlns="http://www.w3.org/2000/svg" xmlns:xlink="http://www.w3.org/1999/xlink" version="1.1" viewBox="-10 0 930 1000">
   <path fill="currentColor"
d="M746 402l-79 -10c21 -102 24 -176 25 -229h-223v-67h303v38c0 55 0 146 -26 268zM355 401l-80 -12c32 -101 39 -175 41 -226h-192v-67h272v31c0 49 0 146 -41 274zM127 701l-1 -66h303v314h-81v-248h-221zM670 617v52c0 83 50 181 157 223l-44 64
c-77 -31 -127 -91 -154 -158c-27 65 -79 124 -154 156l-44 -63c106 -44 157 -139 157 -214v-60h82zM516 470h346v67h-807v-67h380v-175h81v175z" />
</svg>
