<?xml version="1.0" standalone="no"?>
<!DOCTYPE svg PUBLIC "-//W3C//DTD SVG 1.1//EN" "http://www.w3.org/Graphics/SVG/1.1/DTD/svg11.dtd" >
<svg xmlns="http://www.w3.org/2000/svg" xmlns:xlink="http://www.w3.org/1999/xlink" version="1.1" viewBox="-10 0 930 1000">
   <path fill="currentColor"
d="M746 387l-79 -8c20 -99 24 -169 25 -219h-222v-66h302v36c0 51 0 141 -26 257zM355 388l-80 -13c33 -98 39 -166 41 -215h-192v-66h272v34c0 50 0 141 -41 260zM228 614v249c53 -2 120 -9 190 -27l11 67c-94 24 -175 28 -237 28h-43v-317h79zM610 896c51 0 87 -23 87 -59
c0 -37 -36 -60 -87 -60s-87 23 -87 60c0 36 36 59 87 59zM610 720c90 0 157 46 157 117s-67 116 -157 116s-157 -45 -157 -116s67 -117 157 -117zM650 550v78h161v61h-403v-61h162v-78h80zM516 445h347v66h-808v-66h380v-158h81v158z" />
</svg>
