<?xml version="1.0" standalone="no"?>
<!DOCTYPE svg PUBLIC "-//W3C//DTD SVG 1.1//EN" "http://www.w3.org/Graphics/SVG/1.1/DTD/svg11.dtd" >
<svg xmlns="http://www.w3.org/2000/svg" xmlns:xlink="http://www.w3.org/1999/xlink" version="1.1" viewBox="-10 0 930 1000">
   <path fill="currentColor"
d="M746 402l-79 -10c21 -102 24 -176 25 -229h-222v-67h302v38c0 55 0 146 -26 268zM355 401l-80 -12c32 -101 39 -175 41 -226h-193v-67h273v31c0 49 0 146 -41 274zM236 710v164h536v67h-618v-298h605v67h-523zM516 470h346v67h-808v-67h381v-175h81v175z" />
</svg>
