<?xml version="1.0" standalone="no"?>
<!DOCTYPE svg PUBLIC "-//W3C//DTD SVG 1.1//EN" "http://www.w3.org/Graphics/SVG/1.1/DTD/svg11.dtd" >
<svg xmlns="http://www.w3.org/2000/svg" xmlns:xlink="http://www.w3.org/1999/xlink" version="1.1" viewBox="-10 0 930 1000">
   <path fill="currentColor"
d="M747 366l-80 -9c20 -91 24 -157 25 -205h-222v-66h302v34c0 49 0 135 -25 246zM355 369l-80 -13c32 -93 39 -158 41 -204h-192v-66h272v33c0 48 0 137 -41 250zM220 786v96c103 0 158 -2 228 -15l7 61c-80 15 -142 16 -267 16h-47v-217h206v-84h-209v-61h288v204h-206z
M703 882v-121h-149v121h149zM703 700v-127h70v371h-289v-371h70v127h149zM515 429h348v66h-808v-66h379v-156h81v156z" />
</svg>
