<?xml version="1.0" standalone="no"?>
<!DOCTYPE svg PUBLIC "-//W3C//DTD SVG 1.1//EN" "http://www.w3.org/Graphics/SVG/1.1/DTD/svg11.dtd" >
<svg xmlns="http://www.w3.org/2000/svg" xmlns:xlink="http://www.w3.org/1999/xlink" version="1.1" viewBox="-10 0 930 1000">
   <path fill="currentColor"
d="M745 402l-79 -10c22 -103 25 -178 26 -231h-222v-66h302v38c0 55 0 147 -27 269zM355 402l-80 -13c32 -102 39 -177 41 -228h-192v-66h272v31c0 49 0 147 -41 276zM768 693h-261c26 101 153 173 297 194l-31 63c-136 -22 -260 -86 -314 -186c-53 99 -177 163 -314 185
l-31 -64c144 -20 271 -92 298 -192h-261v-66h617v66zM516 466h346v67h-807v-67h380v-170h81v170z" />
</svg>
