<?xml version="1.0" standalone="no"?>
<!DOCTYPE svg PUBLIC "-//W3C//DTD SVG 1.1//EN" "http://www.w3.org/Graphics/SVG/1.1/DTD/svg11.dtd" >
<svg xmlns="http://www.w3.org/2000/svg" xmlns:xlink="http://www.w3.org/1999/xlink" version="1.1" viewBox="-10 0 930 1000">
   <path fill="currentColor"
d="M745 403l-79 -9c22 -104 25 -180 26 -233h-222v-66h302v39c0 55 0 147 -27 269zM355 403l-80 -12c32 -103 39 -179 41 -230h-192v-66h272v31c0 49 0 148 -41 277zM361 698v178h196v-178h-196zM638 698v178h145v66h-648v-66h145v-178h-137v-66h632v66h-137zM516 467h346
v67h-808v-67h381v-169h81v169z" />
</svg>
