<?xml version="1.0" standalone="no"?>
<!DOCTYPE svg PUBLIC "-//W3C//DTD SVG 1.1//EN" "http://www.w3.org/Graphics/SVG/1.1/DTD/svg11.dtd" >
<svg xmlns="http://www.w3.org/2000/svg" xmlns:xlink="http://www.w3.org/1999/xlink" version="1.1" viewBox="-10 0 930 1000">
   <path fill="currentColor"
d="M747 365l-80 -9c20 -91 24 -157 25 -204h-222v-66h302v34c0 49 0 134 -25 245zM355 367l-80 -13c32 -92 39 -156 41 -202h-192v-66h272v33c0 47 0 136 -41 248zM459 895c119 0 184 -20 184 -63c0 -42 -65 -63 -184 -63s-185 21 -185 63c0 43 66 63 185 63zM459 712
c173 0 269 41 269 120c0 80 -96 121 -269 121c-174 0 -270 -41 -270 -121c0 -79 96 -120 270 -120zM500 525v83h289v63h-661v-63h290v-83h82zM515 420h348v66h-808v-66h379v-153h81v153z" />
</svg>
