<?xml version="1.0" standalone="no"?>
<!DOCTYPE svg PUBLIC "-//W3C//DTD SVG 1.1//EN" "http://www.w3.org/Graphics/SVG/1.1/DTD/svg11.dtd" >
<svg xmlns="http://www.w3.org/2000/svg" xmlns:xlink="http://www.w3.org/1999/xlink" version="1.1" viewBox="-10 0 930 1000">
   <path fill="currentColor"
d="M643 374v232h-77v-531h77v232h93v-249h78v621h-78v-305h-93zM476 423l-69 -7c17 -97 19 -169 19 -224h-138v-67h208v49c0 59 0 142 -20 249zM212 425l-69 -17c27 -96 33 -167 35 -216h-110v-67h178v31c0 50 1 145 -34 269zM523 484l7 58c-156 31 -349 34 -473 34l-11 -68
c61 0 139 0 220 -3v-178h70v174c65 -3 130 -8 187 -17zM546 634v42c0 106 143 191 307 210l-28 65c-141 -19 -267 -81 -321 -172c-55 91 -180 153 -322 172l-27 -65c163 -19 307 -105 307 -210v-42h84z" />
</svg>
