<?xml version="1.0" standalone="no"?>
<!DOCTYPE svg PUBLIC "-//W3C//DTD SVG 1.1//EN" "http://www.w3.org/Graphics/SVG/1.1/DTD/svg11.dtd" >
<svg xmlns="http://www.w3.org/2000/svg" xmlns:xlink="http://www.w3.org/1999/xlink" version="1.1" viewBox="-10 0 930 1000">
   <path fill="currentColor"
d="M572 385l-75 -9c21 -89 24 -154 24 -204h-170v-66h245v45c0 53 0 132 -24 234zM262 387l-76 -10c28 -91 33 -157 35 -205h-131v-66h206v33c0 46 0 135 -34 248zM643 427l6 57c-199 31 -416 36 -585 36l-12 -66c82 0 175 -1 271 -4v-159h76v156c82 -5 165 -10 244 -20z
M235 797v93c86 0 147 -2 226 -14l8 59c-94 15 -163 15 -270 15h-47v-208h208v-86h-210v-61h292v202h-207zM570 654v237h147v-237h-147zM500 951v-356h289v356h-289zM707 57h82v491h-82v-491z" />
</svg>
