<?xml version="1.0" standalone="no"?>
<!DOCTYPE svg PUBLIC "-//W3C//DTD SVG 1.1//EN" "http://www.w3.org/Graphics/SVG/1.1/DTD/svg11.dtd" >
<svg xmlns="http://www.w3.org/2000/svg" xmlns:xlink="http://www.w3.org/1999/xlink" version="1.1" viewBox="-10 0 930 1000">
   <path fill="currentColor"
d="M789 57v616h-82v-616h82zM571 412l-75 -9c23 -97 26 -166 26 -219h-171v-67h247v48c0 56 0 139 -27 247zM262 413l-75 -10c29 -98 35 -169 36 -219h-131v-67h206v34c0 50 0 143 -36 262zM645 466l5 60c-196 32 -417 38 -586 38l-8 -67c81 0 173 -2 269 -6v-175h76v172
c83 -4 167 -11 244 -22zM530 625v30c0 115 139 204 299 228l-31 64c-135 -22 -255 -86 -309 -181c-53 95 -174 159 -308 181l-32 -64c161 -24 298 -113 298 -228v-30h83z" />
</svg>
