<?xml version="1.0" standalone="no"?>
<!DOCTYPE svg PUBLIC "-//W3C//DTD SVG 1.1//EN" "http://www.w3.org/Graphics/SVG/1.1/DTD/svg11.dtd" >
<svg xmlns="http://www.w3.org/2000/svg" xmlns:xlink="http://www.w3.org/1999/xlink" version="1.1" viewBox="-10 0 930 1000">
   <path fill="currentColor"
d="M789 58v534h-82v-534h82zM571 415l-75 -9c23 -96 26 -165 26 -219h-171v-66h247v47c0 57 0 139 -27 247zM262 416l-75 -11c29 -97 35 -168 36 -218h-131v-66h206v34c0 49 0 142 -36 261zM645 463l5 60c-195 30 -415 36 -586 37l-8 -68c82 0 174 -1 269 -5v-168h76v165
c83 -5 166 -11 244 -21zM797 710h-265c13 89 149 161 306 178l-27 63c-143 -16 -270 -74 -324 -159c-55 82 -180 142 -320 159l-27 -63c153 -17 291 -93 305 -178h-259v-65h611v65z" />
</svg>
