<?xml version="1.0" standalone="no"?>
<!DOCTYPE svg PUBLIC "-//W3C//DTD SVG 1.1//EN" "http://www.w3.org/Graphics/SVG/1.1/DTD/svg11.dtd" >
<svg xmlns="http://www.w3.org/2000/svg" xmlns:xlink="http://www.w3.org/1999/xlink" version="1.1" viewBox="-10 0 930 1000">
   <path fill="currentColor"
d="M746 405l-83 -12c18 -103 21 -180 22 -233h-235v-67h319v34c0 53 0 149 -23 278zM329 406l-84 -16c33 -103 41 -179 43 -230h-175v-67h259v31c0 49 0 150 -43 282zM142 721v-66h620v294h-82v-228h-538zM627 489h233v68h-814v-68h318v-185h80v185h102v-185h81v185z" />
</svg>
