<?xml version="1.0" standalone="no"?>
<!DOCTYPE svg PUBLIC "-//W3C//DTD SVG 1.1//EN" "http://www.w3.org/Graphics/SVG/1.1/DTD/svg11.dtd" >
<svg xmlns="http://www.w3.org/2000/svg" xmlns:xlink="http://www.w3.org/1999/xlink" version="1.1" viewBox="-10 0 930 1000">
   <path fill="currentColor"
d="M746 405l-83 -12c18 -103 21 -180 22 -233h-235v-67h319v34c0 53 0 149 -23 278zM329 406l-84 -16c33 -103 41 -179 43 -230h-175v-67h259v31c0 48 0 150 -43 282zM127 701l-1 -66h303v314h-81v-248h-221zM670 617v52c0 83 50 181 157 223l-45 64
c-76 -31 -126 -91 -153 -158c-27 65 -79 124 -154 156l-44 -63c106 -44 157 -139 157 -214v-60h82zM627 484h232v68h-813v-68h318v-180h80v180h102v-180h81v180z" />
</svg>
