<?xml version="1.0" standalone="no"?>
<!DOCTYPE svg PUBLIC "-//W3C//DTD SVG 1.1//EN" "http://www.w3.org/Graphics/SVG/1.1/DTD/svg11.dtd" >
<svg xmlns="http://www.w3.org/2000/svg" xmlns:xlink="http://www.w3.org/1999/xlink" version="1.1" viewBox="-10 0 930 1000">
   <path fill="currentColor"
d="M747 391l-84 -13c17 -98 21 -170 22 -220h-234v-67h318v33c0 49 0 143 -22 267zM329 391l-83 -16c32 -96 40 -168 41 -217h-174v-67h259v29c0 46 0 146 -43 271zM368 878v-116h-156v116h156zM368 698v-103h75v347h-307v-347h76v103h156zM685 588v73c0 84 57 181 158 228
l-44 64c-74 -34 -126 -94 -153 -164c-29 70 -81 130 -155 164l-43 -64c100 -48 157 -144 157 -228v-73h80zM627 468h232v68h-813v-68h318v-170h80v170h102v-170h81v170z" />
</svg>
