<?xml version="1.0" standalone="no"?>
<!DOCTYPE svg PUBLIC "-//W3C//DTD SVG 1.1//EN" "http://www.w3.org/Graphics/SVG/1.1/DTD/svg11.dtd" >
<svg xmlns="http://www.w3.org/2000/svg" xmlns:xlink="http://www.w3.org/1999/xlink" version="1.1" viewBox="-10 0 930 1000">
   <path fill="currentColor"
d="M747 365l-83 -12c16 -87 20 -153 21 -199h-234v-67h318v31c0 46 0 133 -22 247zM330 367l-83 -16c30 -88 38 -152 40 -197h-174v-67h259v27c0 42 0 136 -42 253zM458 896c120 0 185 -20 185 -60s-65 -60 -185 -60c-119 0 -184 20 -184 60s65 60 184 60zM459 719
c173 0 269 39 269 117s-96 117 -269 117c-174 0 -270 -39 -270 -117s96 -117 270 -117zM500 536v80h289v64h-661v-64h290v-80h82zM627 434h232v68h-813v-68h318v-147h80v147h102v-147h81v147z" />
</svg>
