<?xml version="1.0" standalone="no"?>
<!DOCTYPE svg PUBLIC "-//W3C//DTD SVG 1.1//EN" "http://www.w3.org/Graphics/SVG/1.1/DTD/svg11.dtd" >
<svg xmlns="http://www.w3.org/2000/svg" xmlns:xlink="http://www.w3.org/1999/xlink" version="1.1" viewBox="-10 0 930 1000">
   <path fill="currentColor"
d="M676 641v32c0 97 54 185 158 222l-46 65c-76 -30 -126 -84 -154 -153c-30 66 -84 125 -160 156l-46 -63c108 -43 166 -139 166 -220v-39h82zM745 421h114v68h-366v172h-69v296h-82v-240h-214v-68h282v-160h-364v-68h247c28 -116 31 -199 31 -261h-199v-67h284v49
c0 59 0 154 -27 279h275c21 -117 25 -202 25 -261h-201v-67h287v41c0 58 0 153 -23 287z" />
</svg>
