<?xml version="1.0" standalone="no"?>
<!DOCTYPE svg PUBLIC "-//W3C//DTD SVG 1.1//EN" "http://www.w3.org/Graphics/SVG/1.1/DTD/svg11.dtd" >
<svg xmlns="http://www.w3.org/2000/svg" xmlns:xlink="http://www.w3.org/1999/xlink" version="1.1" viewBox="-10 0 930 1000">
   <path fill="currentColor"
d="M553 632v255h149v-255h-149zM860 455h-367v115h282v379h-295v-364h-58v201h-211v102c83 0 149 -3 233 -16l7 63c-99 15 -173 16 -274 16h-48v-224h211v-92h-213v-65h283v-115h-365v-66h248c21 -101 26 -177 27 -229h-202v-66h287v33c0 47 0 140 -25 262h273
c17 -100 21 -177 23 -229h-203v-66h288v22c0 46 0 140 -21 273h120v66z" />
</svg>
