<?xml version="1.0" standalone="no"?>
<!DOCTYPE svg PUBLIC "-//W3C//DTD SVG 1.1//EN" "http://www.w3.org/Graphics/SVG/1.1/DTD/svg11.dtd" >
<svg xmlns="http://www.w3.org/2000/svg" xmlns:xlink="http://www.w3.org/1999/xlink" version="1.1" viewBox="-10 0 930 1000">
   <path fill="currentColor"
d="M424 789h-218v96c103 0 161 -3 229 -18l5 33c105 -46 156 -141 156 -242v-88h82v97c0 92 49 182 151 226l-44 62c-73 -32 -122 -88 -148 -156c-27 72 -78 131 -151 163l-45 -57l4 27c-79 17 -143 18 -270 18h-48v-222h219v-87h-221v-65h285v-121h-364v-66h247
c21 -101 26 -177 27 -229h-201v-66h286v33c0 47 0 140 -25 262h273c17 -100 21 -177 23 -229h-203v-66h288v22c0 46 0 140 -21 273h120v66h-367v136h-69v198z" />
</svg>
