<?xml version="1.0" standalone="no"?>
<!DOCTYPE svg PUBLIC "-//W3C//DTD SVG 1.1//EN" "http://www.w3.org/Graphics/SVG/1.1/DTD/svg11.dtd" >
<svg xmlns="http://www.w3.org/2000/svg" xmlns:xlink="http://www.w3.org/1999/xlink" version="1.1" viewBox="-10 0 930 1000">
   <path fill="currentColor"
d="M756 730h-253c22 81 154 144 297 159l-27 62c-136 -15 -260 -71 -314 -153c-53 84 -177 137 -317 153l-26 -62c147 -15 277 -74 297 -159h-254v-65h258v-76h82v76h257v65zM743 397h123v67h-367v96h-82v-96h-364v-67h252c27 -104 33 -183 35 -237h-208v-67h287v26
c0 48 0 144 -31 278h273c23 -104 27 -182 28 -237h-203v-67h283v35c0 53 0 144 -26 269z" />
</svg>
