<?xml version="1.0" standalone="no"?>
<!DOCTYPE svg PUBLIC "-//W3C//DTD SVG 1.1//EN" "http://www.w3.org/Graphics/SVG/1.1/DTD/svg11.dtd" >
<svg xmlns="http://www.w3.org/2000/svg" xmlns:xlink="http://www.w3.org/1999/xlink" version="1.1" viewBox="-10 0 930 1000">
   <path fill="currentColor"
d="M822 57v581h-77v-581h77zM429 510h161v-439h76v564h-76v-65h-161v-60zM253 634v-170c-71 3 -139 4 -198 4l-10 -72c39 0 82 0 126 -1c25 -93 31 -163 32 -212h-119v-67h192v33c0 47 0 131 -27 244c54 -1 110 -4 164 -7c17 -89 20 -155 21 -203h-120v-67h191v37
c0 47 0 124 -18 226c19 -1 38 -3 57 -5l4 63c-68 11 -143 19 -217 23v174h-78zM276 878h558v66h-643v-272h638v64h-553v142z" />
</svg>
