<?xml version="1.0" standalone="no"?>
<!DOCTYPE svg PUBLIC "-//W3C//DTD SVG 1.1//EN" "http://www.w3.org/Graphics/SVG/1.1/DTD/svg11.dtd" >
<svg xmlns="http://www.w3.org/2000/svg" xmlns:xlink="http://www.w3.org/1999/xlink" version="1.1" viewBox="-10 0 930 1000">
   <path fill="currentColor"
d="M822 58v531h-76v-531h76zM425 481h165v-410h75v515h-75v-50h-165v-55zM258 581v-140c-70 3 -137 4 -194 4l-10 -70c34 0 73 0 113 -1c20 -88 25 -155 26 -202h-119v-66h192v33c0 45 0 126 -23 234c57 -1 115 -4 172 -8c10 -82 12 -146 12 -193h-123v-66h194v42
c0 48 1 120 -12 211c19 -2 37 -3 55 -5l5 60c-66 12 -139 18 -211 23v144h-77zM278 886h571v61h-656v-327h638v61h-553v74h541v57h-541v74z" />
</svg>
