<?xml version="1.0" standalone="no"?>
<!DOCTYPE svg PUBLIC "-//W3C//DTD SVG 1.1//EN" "http://www.w3.org/Graphics/SVG/1.1/DTD/svg11.dtd" >
<svg xmlns="http://www.w3.org/2000/svg" xmlns:xlink="http://www.w3.org/1999/xlink" version="1.1" viewBox="-10 0 930 1000">
   <path fill="currentColor"
d="M786 57v550h-82v-550h82zM396 485v161h53v309h-83v-241h-227v-68h175v-157c-87 4 -172 6 -249 6l-12 -71c55 0 113 -1 171 -2c27 -105 30 -180 31 -234h-143v-67h221v43c0 54 0 140 -27 256c57 -2 116 -5 172 -8c26 -99 29 -169 29 -224h-139v-67h219v49
c0 56 0 134 -24 236c29 -2 57 -3 84 -6l6 62c-82 11 -171 17 -257 23zM702 636v36c0 97 54 186 158 223l-44 64c-77 -30 -128 -84 -155 -152c-31 67 -86 125 -164 156l-45 -64c110 -42 168 -137 168 -219v-44h82z" />
</svg>
