<?xml version="1.0" standalone="no"?>
<!DOCTYPE svg PUBLIC "-//W3C//DTD SVG 1.1//EN" "http://www.w3.org/Graphics/SVG/1.1/DTD/svg11.dtd" >
<svg xmlns="http://www.w3.org/2000/svg" xmlns:xlink="http://www.w3.org/1999/xlink" version="1.1" viewBox="-10 0 930 1000">
   <path fill="currentColor"
d="M791 58v672h-82v-672h82zM318 689v-182c-91 4 -179 5 -255 5l-12 -67c52 0 109 0 168 -1c29 -111 33 -192 34 -249h-140v-66h218v38c0 54 0 149 -30 274c58 -2 119 -5 177 -9c26 -106 30 -181 30 -237h-139v-66h218v44c0 56 0 139 -26 251c29 -3 58 -6 86 -10l6 59
c-82 15 -170 23 -254 29v187h-81zM253 867h565v67h-646v-278h81v211z" />
</svg>
