<?xml version="1.0" standalone="no"?>
<!DOCTYPE svg PUBLIC "-//W3C//DTD SVG 1.1//EN" "http://www.w3.org/Graphics/SVG/1.1/DTD/svg11.dtd" >
<svg xmlns="http://www.w3.org/2000/svg" xmlns:xlink="http://www.w3.org/1999/xlink" version="1.1" viewBox="-10 0 930 1000">
   <path fill="currentColor"
d="M790 58v526h-82v-526h82zM305 608v-146c-84 3 -167 4 -243 4l-11 -75c50 0 103 0 157 -1c25 -96 29 -164 30 -214h-139v-66h217v39c0 48 0 132 -26 240c63 -2 127 -4 190 -8c20 -90 23 -156 23 -205h-144v-66h223v44c0 49 0 125 -20 222c26 -2 53 -3 79 -6l6 64
c-84 12 -173 19 -260 24v150h-82zM226 659v213c56 -2 129 -9 195 -32l14 67c-89 29 -177 34 -245 34h-45v-282h81zM626 914c54 0 93 -18 93 -48c0 -29 -39 -47 -93 -47c-55 0 -94 18 -94 47c0 30 39 48 94 48zM626 767c96 0 165 38 165 99s-69 100 -165 100
c-97 0 -166 -39 -166 -100s69 -99 166 -99zM666 672h179v61h-439v-61h181v-80h79v80z" />
</svg>
