<?xml version="1.0" standalone="no"?>
<!DOCTYPE svg PUBLIC "-//W3C//DTD SVG 1.1//EN" "http://www.w3.org/Graphics/SVG/1.1/DTD/svg11.dtd" >
<svg xmlns="http://www.w3.org/2000/svg" xmlns:xlink="http://www.w3.org/1999/xlink" version="1.1" viewBox="-10 0 930 1000">
   <path fill="currentColor"
d="M204 641v230c55 -2 128 -10 192 -32l13 66c-88 29 -175 34 -242 34h-44v-298h81zM609 910c55 0 94 -18 94 -49s-39 -49 -94 -49c-54 0 -93 18 -93 49s39 49 93 49zM609 758c97 0 166 40 166 103s-69 103 -166 103c-96 0 -165 -40 -165 -103s69 -103 165 -103zM859 473
h-224v114h12v72h182v61h-439v-61h179v-59h-15v-127h-205v141h-81v-141h-222v-66h251c25 -110 28 -189 28 -249h-200v-68h285v49c0 58 0 149 -26 268h275c20 -110 22 -192 23 -249h-201v-68h287v41c0 56 0 149 -21 276h112v66z" />
</svg>
