<?xml version="1.0" standalone="no"?>
<!DOCTYPE svg PUBLIC "-//W3C//DTD SVG 1.1//EN" "http://www.w3.org/Graphics/SVG/1.1/DTD/svg11.dtd" >
<svg xmlns="http://www.w3.org/2000/svg" xmlns:xlink="http://www.w3.org/1999/xlink" version="1.1" viewBox="-10 0 930 1000">
   <path fill="currentColor"
d="M129 696v-68h295v328h-81v-260h-214zM676 623v51c0 97 54 183 158 221l-46 64c-76 -30 -126 -84 -154 -153c-30 67 -84 124 -158 156l-48 -61c108 -45 166 -141 166 -221v-57h82zM735 435h122v68h-811v-68h239c29 -118 35 -206 36 -265h-202v-66h288v32
c0 52 0 156 -33 299h273c22 -117 27 -207 29 -265h-203v-66h289v22c0 49 0 156 -27 309z" />
</svg>
