<?xml version="1.0" standalone="no"?>
<!DOCTYPE svg PUBLIC "-//W3C//DTD SVG 1.1//EN" "http://www.w3.org/Graphics/SVG/1.1/DTD/svg11.dtd" >
<svg xmlns="http://www.w3.org/2000/svg" xmlns:xlink="http://www.w3.org/1999/xlink" version="1.1" viewBox="-10 0 930 1000">
   <path fill="currentColor"
d="M219 783v100c115 0 191 -3 283 -20l7 65c-102 18 -184 20 -318 20h-56v-226h225v-89h-227v-66h311v216h-225zM479 635v-68h294v385h-84v-317h-210zM740 405h119v66h-813v-66h246c25 -110 28 -190 29 -248h-202v-67h287v42c0 55 0 148 -25 273h272
c19 -110 22 -192 23 -248h-204v-67h290v34c0 54 0 149 -22 281z" />
</svg>
