<?xml version="1.0" standalone="no"?>
<!DOCTYPE svg PUBLIC "-//W3C//DTD SVG 1.1//EN" "http://www.w3.org/Graphics/SVG/1.1/DTD/svg11.dtd" >
<svg xmlns="http://www.w3.org/2000/svg" xmlns:xlink="http://www.w3.org/1999/xlink" version="1.1" viewBox="-10 0 930 1000">
   <path fill="currentColor"
d="M552 551l-78 -10c24 -136 25 -235 25 -311h-140v-69h220v62c0 79 0 184 -27 328zM274 553l-78 -14c34 -138 38 -239 39 -308h-144v-70h223v42c0 69 0 185 -40 350zM57 743l-9 -69c173 0 403 -2 606 -32l7 61c-209 38 -434 40 -604 40zM701 57h83v900h-83v-900z" />
</svg>
