<?xml version="1.0" standalone="no"?>
<!DOCTYPE svg PUBLIC "-//W3C//DTD SVG 1.1//EN" "http://www.w3.org/Graphics/SVG/1.1/DTD/svg11.dtd" >
<svg xmlns="http://www.w3.org/2000/svg" xmlns:xlink="http://www.w3.org/1999/xlink" version="1.1" viewBox="-10 0 930 1000">
   <path fill="currentColor"
d="M789 57v483h-82v-483h82zM637 406l8 60c-187 21 -403 32 -584 33l-12 -70c49 0 100 -1 152 -2c25 -107 28 -185 28 -244h-135v-66h213v48c0 58 0 144 -25 260c68 -2 137 -5 205 -8c19 -101 20 -176 20 -234h-146v-66h226v54c0 58 0 137 -18 240c23 -1 46 -3 68 -5z
M216 798v88c97 -1 155 -4 227 -17l8 61c-83 16 -147 18 -267 18h-47v-207h202v-84h-204v-61h283v202h-202zM630 904c50 0 83 -22 83 -58c0 -37 -33 -58 -83 -58c-49 0 -81 21 -81 58c0 36 32 58 81 58zM630 732c89 0 153 43 153 114c0 70 -64 113 -153 113
c-87 0 -151 -43 -151 -113c0 -71 64 -114 151 -114zM670 638h148v61h-372v-61h144v-83h80v83z" />
</svg>
