<?xml version="1.0" standalone="no"?>
<!DOCTYPE svg PUBLIC "-//W3C//DTD SVG 1.1//EN" "http://www.w3.org/Graphics/SVG/1.1/DTD/svg11.dtd" >
<svg xmlns="http://www.w3.org/2000/svg" xmlns:xlink="http://www.w3.org/1999/xlink" version="1.1" viewBox="-10 0 930 1000">
   <path fill="currentColor"
d="M637 415l7 62c-186 22 -405 33 -583 35l-12 -70c48 0 98 -1 149 -2c28 -114 31 -195 31 -256h-135v-67h213v48c0 59 0 150 -28 272c68 -3 138 -6 205 -10c21 -105 23 -183 23 -243h-146v-67h226v54c0 60 0 142 -20 250c24 -2 47 -4 70 -6zM701 877v-105h-435v105h435z
M701 708v-100h84v336h-604v-336h85v100h435zM707 57h79v503h-79v-503z" />
</svg>
