<?xml version="1.0" standalone="no"?>
<!DOCTYPE svg PUBLIC "-//W3C//DTD SVG 1.1//EN" "http://www.w3.org/Graphics/SVG/1.1/DTD/svg11.dtd" >
<svg xmlns="http://www.w3.org/2000/svg" xmlns:xlink="http://www.w3.org/1999/xlink" version="1.1" viewBox="-10 0 930 1000">
   <path fill="currentColor"
d="M392 519l-65 -48c102 -82 154 -165 165 -295h-138v-69h221c0 177 -52 303 -183 412zM77 107h241c0 174 -69 280 -197 373l-59 -51c97 -67 160 -135 175 -253h-160v-69zM241 786v101c114 0 187 -3 277 -20l7 63c-100 18 -180 20 -313 20h-54v-224h220v-87h-222v-65h304
v212h-219zM497 641v-67h288v380h-85v-313h-203zM705 58h80v463h-80v-463z" />
</svg>
