<?xml version="1.0" standalone="no"?>
<!DOCTYPE svg PUBLIC "-//W3C//DTD SVG 1.1//EN" "http://www.w3.org/Graphics/SVG/1.1/DTD/svg11.dtd" >
<svg xmlns="http://www.w3.org/2000/svg" xmlns:xlink="http://www.w3.org/1999/xlink" version="1.1" viewBox="-10 0 930 1000">
   <path fill="currentColor"
d="M785 58v459h-80v-459h80zM392 518l-64 -48c102 -81 153 -165 164 -294h-137v-69h220c0 176 -52 302 -183 411zM78 107h240c0 173 -70 278 -199 370l-58 -52c97 -65 161 -132 175 -249h-158v-69zM221 787v100c100 0 163 -2 242 -15l6 62c-88 15 -157 16 -274 16h-49v-221
h224v-91h-226v-62h302v211h-225zM576 885h226v63h-305v-374h294v63h-215v93h206v58h-206v97z" />
</svg>
