<?xml version="1.0" standalone="no"?>
<!DOCTYPE svg PUBLIC "-//W3C//DTD SVG 1.1//EN" "http://www.w3.org/Graphics/SVG/1.1/DTD/svg11.dtd" >
<svg xmlns="http://www.w3.org/2000/svg" xmlns:xlink="http://www.w3.org/1999/xlink" version="1.1" viewBox="-10 0 930 1000">
   <path fill="currentColor"
d="M785 58v462h-82v-462h82zM392 518l-64 -48c102 -81 153 -165 164 -294h-137v-69h220c0 176 -52 302 -183 411zM78 107h240c0 173 -70 278 -198 371l-58 -52c97 -65 160 -133 175 -250h-159v-69zM228 785v100c94 -1 154 -4 229 -17l8 64c-85 17 -154 18 -269 18h-49v-221
h219v-87h-221v-66h302v209h-219zM618 642v241h72v-241h-72zM756 883h63v67h-331v-67h64v-241h-60v-66h321v66h-57v241z" />
</svg>
