<?xml version="1.0" standalone="no"?>
<!DOCTYPE svg PUBLIC "-//W3C//DTD SVG 1.1//EN" "http://www.w3.org/Graphics/SVG/1.1/DTD/svg11.dtd" >
<svg xmlns="http://www.w3.org/2000/svg" xmlns:xlink="http://www.w3.org/1999/xlink" version="1.1" viewBox="-10 0 930 1000">
   <path fill="currentColor"
d="M786 57v517h-82v-517h82zM382 573l-66 -47c113 -94 160 -201 170 -339h-141v-70h223c0 183 -43 332 -186 456zM115 529l-59 -53c110 -77 164 -161 176 -289h-158v-70h240c0 179 -56 305 -199 412zM691 610v52c0 96 66 194 182 235l-44 59c-84 -32 -144 -92 -175 -164
c-30 71 -85 135 -164 169c-81 -34 -134 -97 -161 -171c-33 73 -96 136 -181 167l-42 -60c115 -42 184 -140 184 -228v-59h79v52c0 81 39 167 120 217c85 -54 129 -144 129 -217v-52h73z" />
</svg>
