<?xml version="1.0" standalone="no"?>
<!DOCTYPE svg PUBLIC "-//W3C//DTD SVG 1.1//EN" "http://www.w3.org/Graphics/SVG/1.1/DTD/svg11.dtd" >
<svg xmlns="http://www.w3.org/2000/svg" xmlns:xlink="http://www.w3.org/1999/xlink" version="1.1" viewBox="-10 0 930 1000">
   <path fill="currentColor"
d="M571 384l12 71c-144 30 -273 40 -423 40h-71v-390h83v319c139 0 264 -10 399 -40zM131 688v-68h302v337h-82v-269h-220zM685 613v57c0 99 55 187 161 225l-46 65c-77 -30 -129 -85 -157 -154c-30 69 -85 127 -163 159l-46 -65c110 -43 169 -138 169 -225v-62h82zM745 287
h133v69h-133v227h-84v-526h84v230z" />
</svg>
