<?xml version="1.0" standalone="no"?>
<!DOCTYPE svg PUBLIC "-//W3C//DTD SVG 1.1//EN" "http://www.w3.org/Graphics/SVG/1.1/DTD/svg11.dtd" >
<svg xmlns="http://www.w3.org/2000/svg" xmlns:xlink="http://www.w3.org/1999/xlink" version="1.1" viewBox="-10 0 930 1000">
   <path fill="currentColor"
d="M570 360l11 69c-143 30 -272 40 -421 40h-71v-372h83v301c138 -1 262 -10 398 -38zM191 785v103c89 0 150 -2 229 -16l7 62c-90 15 -157 16 -264 16h-47v-223h212v-90h-214v-63h289v211h-212zM537 788v97h222v63h-302v-375h292v64h-212v92h202v59h-202zM745 255h133v69
h-133v206h-84v-472h84v197z" />
</svg>
