<?xml version="1.0" standalone="no"?>
<!DOCTYPE svg PUBLIC "-//W3C//DTD SVG 1.1//EN" "http://www.w3.org/Graphics/SVG/1.1/DTD/svg11.dtd" >
<svg xmlns="http://www.w3.org/2000/svg" xmlns:xlink="http://www.w3.org/1999/xlink" version="1.1" viewBox="-10 0 930 1000">
   <path fill="currentColor"
d="M574 365l11 67c-151 30 -284 40 -418 40h-70v-370h81v301c125 -1 254 -10 396 -38zM768 689h-257c9 95 138 178 288 199l-30 62c-132 -21 -248 -83 -300 -171c-52 88 -167 150 -299 171l-30 -62c150 -21 278 -104 287 -199h-257v-65h258v-100h82v100h258v65zM750 263h132
v68h-132v218h-83v-492h83v206z" />
</svg>
