<?xml version="1.0" standalone="no"?>
<!DOCTYPE svg PUBLIC "-//W3C//DTD SVG 1.1//EN" "http://www.w3.org/Graphics/SVG/1.1/DTD/svg11.dtd" >
<svg xmlns="http://www.w3.org/2000/svg" xmlns:xlink="http://www.w3.org/1999/xlink" version="1.1" viewBox="-10 0 930 1000">
   <path fill="currentColor"
d="M574 344l11 68c-151 30 -285 39 -418 39h-70v-354h81v286c125 -1 254 -11 396 -39zM474 892c102 0 165 -27 165 -72c0 -47 -63 -73 -165 -73s-166 26 -166 73c0 45 64 72 166 72zM474 686c155 0 250 48 250 134c0 84 -95 133 -250 133s-251 -49 -251 -133
c0 -86 96 -134 251 -134zM515 493v90h271v63h-624v-63h271v-90h82zM749 241h133v68h-133v212h-82v-464h82v184z" />
</svg>
