<?xml version="1.0" standalone="no"?>
<!DOCTYPE svg PUBLIC "-//W3C//DTD SVG 1.1//EN" "http://www.w3.org/Graphics/SVG/1.1/DTD/svg11.dtd" >
<svg xmlns="http://www.w3.org/2000/svg" xmlns:xlink="http://www.w3.org/1999/xlink" version="1.1" viewBox="-10 0 930 1000">
   <path fill="currentColor"
d="M466 383l9 70c-110 24 -202 29 -322 29h-56v-375h82v306c103 -1 188 -8 287 -30zM250 787v98c115 0 191 -3 287 -19l7 65c-106 17 -189 19 -321 19h-55v-224h228v-87h-230v-65h312v213h-228zM517 641v-67h295v380h-84v-313h-211zM733 57h79v471h-79v-200h-117v197h-79
v-451h79v186h117v-203z" />
</svg>
