<?xml version="1.0" standalone="no"?>
<!DOCTYPE svg PUBLIC "-//W3C//DTD SVG 1.1//EN" "http://www.w3.org/Graphics/SVG/1.1/DTD/svg11.dtd" >
<svg xmlns="http://www.w3.org/2000/svg" xmlns:xlink="http://www.w3.org/1999/xlink" version="1.1" viewBox="-10 0 930 1000">
   <path fill="currentColor"
d="M615 328v196h-78v-450h78v186h118v-203h79v471h-79v-200h-118zM467 383l8 70c-109 24 -202 29 -322 29h-56v-375h82v306c103 -1 189 -8 288 -30zM246 783v102c94 -1 155 -4 229 -17l7 64c-86 17 -153 18 -269 18h-48v-222h217v-87h-219v-66h300v208h-217zM634 640v243h71
v-243h-71zM771 883h64v67h-332v-67h65v-243h-61v-65h325v65h-61v243z" />
</svg>
