<?xml version="1.0" standalone="no"?>
<!DOCTYPE svg PUBLIC "-//W3C//DTD SVG 1.1//EN" "http://www.w3.org/Graphics/SVG/1.1/DTD/svg11.dtd" >
<svg xmlns="http://www.w3.org/2000/svg" xmlns:xlink="http://www.w3.org/1999/xlink" version="1.1" viewBox="-10 0 930 1000">
   <path fill="currentColor"
d="M608 362v207h-77v-495h77v221h123v-237h79v587h-79v-283h-123zM463 433l11 65c-108 28 -205 36 -321 36h-56v-396h82v331c100 -1 189 -9 284 -36zM553 610v33c0 120 147 218 305 243l-33 65c-133 -24 -258 -93 -313 -194c-54 101 -179 170 -312 194l-32 -65
c157 -25 303 -123 303 -243v-33h82z" />
</svg>
