<?xml version="1.0" standalone="no"?>
<!DOCTYPE svg PUBLIC "-//W3C//DTD SVG 1.1//EN" "http://www.w3.org/Graphics/SVG/1.1/DTD/svg11.dtd" >
<svg xmlns="http://www.w3.org/2000/svg" xmlns:xlink="http://www.w3.org/1999/xlink" version="1.1" viewBox="-10 0 930 1000">
   <path fill="currentColor"
d="M607 358v211h-77v-495h77v217h124v-233h79v543h-79v-243h-124zM468 423l9 68c-119 24 -217 29 -322 29h-57v-391h81v322c93 -1 183 -7 289 -28zM514 888c134 0 219 -39 219 -104c0 -66 -85 -105 -219 -105s-218 39 -218 105c0 65 84 104 218 104zM514 615
c184 0 300 62 300 169c0 106 -116 169 -300 169c-183 0 -299 -63 -299 -169c0 -107 116 -169 299 -169z" />
</svg>
