<?xml version="1.0" standalone="no"?>
<!DOCTYPE svg PUBLIC "-//W3C//DTD SVG 1.1//EN" "http://www.w3.org/Graphics/SVG/1.1/DTD/svg11.dtd" >
<svg xmlns="http://www.w3.org/2000/svg" xmlns:xlink="http://www.w3.org/1999/xlink" version="1.1" viewBox="-10 0 930 1000">
   <path fill="currentColor"
d="M734 256h-120v127h120v-127zM614 452v123h-77v-501h77v113h120v-130h78v523h-78v-128h-120zM468 413l8 70c-110 23 -203 29 -323 29h-56v-390h82v321c105 -1 190 -8 289 -30zM693 691v19c0 79 64 155 169 188l-42 61c-81 -26 -139 -80 -169 -145c-31 67 -91 123 -174 151
l-41 -59c-82 27 -177 33 -220 33h-48v-301h80v220c51 -4 139 -14 197 -41l20 74c92 -40 144 -115 144 -189v-11h-150v-68h384v68h-150z" />
</svg>
