<?xml version="1.0" standalone="no"?>
<!DOCTYPE svg PUBLIC "-//W3C//DTD SVG 1.1//EN" "http://www.w3.org/Graphics/SVG/1.1/DTD/svg11.dtd" >
<svg xmlns="http://www.w3.org/2000/svg" xmlns:xlink="http://www.w3.org/1999/xlink" version="1.1" viewBox="-10 0 930 1000">
   <path fill="currentColor"
d="M466 377l9 70c-110 23 -202 29 -322 29h-56v-369h82v299c104 -1 189 -7 287 -29zM250 786v99c115 0 191 -3 287 -19l7 65c-106 18 -189 20 -321 20h-55v-226h228v-86h-230v-66h312v213h-228zM517 641v-67h295v380h-85v-313h-210zM614 353h120v-117h-120v117zM734 58h78
v472h-78v-110h-120v104h-77v-449h77v93h120v-110z" />
</svg>
