<?xml version="1.0" standalone="no"?>
<!DOCTYPE svg PUBLIC "-//W3C//DTD SVG 1.1//EN" "http://www.w3.org/Graphics/SVG/1.1/DTD/svg11.dtd" >
<svg xmlns="http://www.w3.org/2000/svg" xmlns:xlink="http://www.w3.org/1999/xlink" version="1.1" viewBox="-10 0 930 1000">
   <path fill="currentColor"
d="M734 236h-120v117h120v-117zM614 420v104h-77v-449h77v93h120v-110h78v472h-78v-110h-120zM467 377l9 70c-110 23 -203 29 -323 29h-56v-369h82v299c105 -1 190 -7 288 -29zM237 790v98c101 0 166 -3 247 -17l5 62c-90 16 -161 17 -279 17h-49v-218h229v-94h-231v-64h306
v216h-228zM592 885h239v63h-319v-374h308v63h-228v93h218v58h-218v97z" />
</svg>
