<?xml version="1.0" standalone="no"?>
<!DOCTYPE svg PUBLIC "-//W3C//DTD SVG 1.1//EN" "http://www.w3.org/Graphics/SVG/1.1/DTD/svg11.dtd" >
<svg xmlns="http://www.w3.org/2000/svg" xmlns:xlink="http://www.w3.org/1999/xlink" version="1.1" viewBox="-10 0 930 1000">
   <path fill="currentColor"
d="M731 265h-123v118h123v-118zM608 450v118h-77v-494h77v124h123v-140h79v587h-79v-195h-123zM463 433l11 65c-108 28 -205 36 -321 36h-56v-396h82v331c100 -1 189 -9 284 -36zM553 610v33c0 119 147 218 305 243l-33 64c-133 -24 -258 -93 -313 -194
c-54 101 -179 170 -312 194l-32 -64c157 -25 303 -124 303 -243v-34z" />
</svg>
