<?xml version="1.0" standalone="no"?>
<!DOCTYPE svg PUBLIC "-//W3C//DTD SVG 1.1//EN" "http://www.w3.org/Graphics/SVG/1.1/DTD/svg11.dtd" >
<svg xmlns="http://www.w3.org/2000/svg" xmlns:xlink="http://www.w3.org/1999/xlink" version="1.1" viewBox="-10 0 930 1000">
   <path fill="currentColor"
d="M709 560v-276h-252v-67h252v-160h82v503h-82zM571 406l10 70c-137 27 -260 36 -408 36h-68v-406h82v336c139 -1 254 -9 384 -36zM153 676v-66h298v342h-81v-276h-217zM710 595v69c0 96 53 189 157 228l-41 63c-79 -31 -130 -89 -157 -159c-28 70 -81 129 -159 160
l-42 -62c106 -42 161 -137 161 -230v-69h81z" />
</svg>
