<?xml version="1.0" standalone="no"?>
<!DOCTYPE svg PUBLIC "-//W3C//DTD SVG 1.1//EN" "http://www.w3.org/Graphics/SVG/1.1/DTD/svg11.dtd" >
<svg xmlns="http://www.w3.org/2000/svg" xmlns:xlink="http://www.w3.org/1999/xlink" version="1.1" viewBox="-10 0 930 1000">
   <path fill="currentColor"
d="M701 579v-278h-256v-68h256v-177h84v523h-84zM554 436l9 63c-144 25 -264 31 -403 31h-68v-420h83v355c130 0 245 -6 379 -29zM666 684v21c0 82 63 159 166 194l-44 61c-78 -27 -134 -81 -164 -146c-29 68 -88 124 -170 152l-43 -61c-81 27 -175 33 -218 33h-47v-307h79
v228c52 -4 140 -13 198 -41l19 74c89 -41 140 -114 140 -188v-20h-146v-67h377v67h-147z" />
</svg>
