<?xml version="1.0" standalone="no"?>
<!DOCTYPE svg PUBLIC "-//W3C//DTD SVG 1.1//EN" "http://www.w3.org/Graphics/SVG/1.1/DTD/svg11.dtd" >
<svg xmlns="http://www.w3.org/2000/svg" xmlns:xlink="http://www.w3.org/1999/xlink" version="1.1" viewBox="-10 0 930 1000">
   <path fill="currentColor"
d="M553 398l11 66c-143 25 -265 31 -403 31h-68v-394h83v328c129 0 245 -7 377 -31zM243 786v100c109 0 184 -3 277 -19l6 65c-103 17 -183 18 -312 18h-54v-225h219v-87h-221v-65h304v213h-219zM498 640v-67h287v380h-84v-313h-203zM700 57h85v461h-85v-235h-255v-69h255
v-157z" />
</svg>
