<?xml version="1.0" standalone="no"?>
<!DOCTYPE svg PUBLIC "-//W3C//DTD SVG 1.1//EN" "http://www.w3.org/Graphics/SVG/1.1/DTD/svg11.dtd" >
<svg xmlns="http://www.w3.org/2000/svg" xmlns:xlink="http://www.w3.org/1999/xlink" version="1.1" viewBox="-10 0 930 1000">
   <path fill="currentColor"
d="M561 521v-238h-197v-66h197v-141h78v445h-78zM469 398l7 70c-113 20 -206 25 -323 25h-56v-389h82v319c102 -1 188 -7 290 -25zM250 787v99c114 0 192 -3 288 -20l7 65c-107 17 -190 19 -322 19h-56v-224h228v-87h-230v-65h313v213h-228zM517 641v-67h295v380h-84v-313
h-211zM733 58h79v471h-79v-471z" />
</svg>
