<?xml version="1.0" standalone="no"?>
<!DOCTYPE svg PUBLIC "-//W3C//DTD SVG 1.1//EN" "http://www.w3.org/Graphics/SVG/1.1/DTD/svg11.dtd" >
<svg xmlns="http://www.w3.org/2000/svg" xmlns:xlink="http://www.w3.org/1999/xlink" version="1.1" viewBox="-10 0 930 1000">
   <path fill="currentColor"
d="M702 580v-197h-257v-63h257v-96h-257v-63h257v-103h83v522h-83zM545 446l9 63c-139 24 -254 29 -394 29h-67v-427h82v363c131 0 241 -6 370 -28zM666 684v22c0 82 63 159 166 193l-44 62c-77 -27 -133 -81 -163 -146c-29 67 -89 123 -172 151l-42 -61
c-82 27 -175 33 -218 33h-47v-307h79v228c52 -4 140 -13 197 -41l20 74c90 -40 140 -114 140 -187v-21h-147v-67h378v67h-147z" />
</svg>
