<?xml version="1.0" standalone="no"?>
<!DOCTYPE svg PUBLIC "-//W3C//DTD SVG 1.1//EN" "http://www.w3.org/Graphics/SVG/1.1/DTD/svg11.dtd" >
<svg xmlns="http://www.w3.org/2000/svg" xmlns:xlink="http://www.w3.org/1999/xlink" version="1.1" viewBox="-10 0 930 1000">
   <path fill="currentColor"
d="M702 528v-163h-257v-62h257v-84h-256v-62h256v-99h84v470h-84zM547 408l7 64c-145 23 -265 29 -394 29h-67v-402h82v337c122 0 236 -6 372 -28zM704 568v91c0 96 50 190 154 235l-45 62c-73 -33 -122 -90 -149 -159c-27 73 -77 132 -153 164l-44 -58l5 30
c-81 17 -144 18 -271 18h-48v-224h219v-88h-221v-65h300v214h-219v98c103 0 160 -2 230 -17l5 30c106 -42 157 -140 157 -246v-85h80z" />
</svg>
