<?xml version="1.0" standalone="no"?>
<!DOCTYPE svg PUBLIC "-//W3C//DTD SVG 1.1//EN" "http://www.w3.org/Graphics/SVG/1.1/DTD/svg11.dtd" >
<svg xmlns="http://www.w3.org/2000/svg" xmlns:xlink="http://www.w3.org/1999/xlink" version="1.1" viewBox="-10 0 930 1000">
   <path fill="currentColor"
d="M702 528v-163h-257v-62h257v-84h-256v-62h256v-99h84v470h-84zM547 408l7 64c-145 24 -265 29 -394 29h-67v-402h82v338c122 0 236 -6 372 -29zM223 787v100c73 0 146 -3 238 -15l7 62c-108 16 -190 17 -272 17h-48v-222h223v-90h-226v-63h301v211h-223zM576 885h224v63
h-303v-375h294v64h-215v93h207v58h-207v97z" />
</svg>
