<?xml version="1.0" standalone="no"?>
<!DOCTYPE svg PUBLIC "-//W3C//DTD SVG 1.1//EN" "http://www.w3.org/Graphics/SVG/1.1/DTD/svg11.dtd" >
<svg xmlns="http://www.w3.org/2000/svg" xmlns:xlink="http://www.w3.org/1999/xlink" version="1.1" viewBox="-10 0 930 1000">
   <path fill="currentColor"
d="M709 678v-286h-252v-64h252v-95h-252v-64h252v-112h83v621h-83zM554 456l10 66c-130 26 -242 32 -391 32h-66v-443h81v376c138 0 245 -7 366 -31zM543 614v31c0 123 139 216 299 241l-32 64c-134 -23 -255 -89 -308 -189c-54 100 -177 166 -311 190l-32 -65
c160 -25 302 -117 302 -241v-31h82z" />
</svg>
