<?xml version="1.0" standalone="no"?>
<!DOCTYPE svg PUBLIC "-//W3C//DTD SVG 1.1//EN" "http://www.w3.org/Graphics/SVG/1.1/DTD/svg11.dtd" >
<svg xmlns="http://www.w3.org/2000/svg" xmlns:xlink="http://www.w3.org/1999/xlink" version="1.1" viewBox="-10 0 930 1000">
   <path fill="currentColor"
d="M709 581v-209h-252v-64h252v-90h-252v-64h252v-97h83v524h-83zM557 424l10 67c-125 24 -231 30 -395 30h-67v-419h82v351c152 0 254 -6 370 -29zM812 716h-259c22 79 150 154 291 172l-28 62c-136 -18 -256 -83 -308 -167c-55 86 -179 148 -314 167l-27 -62
c140 -17 272 -91 294 -172h-259v-62h264v-91h83v91h263v62z" />
</svg>
