<?xml version="1.0" standalone="no"?>
<!DOCTYPE svg PUBLIC "-//W3C//DTD SVG 1.1//EN" "http://www.w3.org/Graphics/SVG/1.1/DTD/svg11.dtd" >
<svg xmlns="http://www.w3.org/2000/svg" xmlns:xlink="http://www.w3.org/1999/xlink" version="1.1" viewBox="-10 0 930 1000">
   <path fill="currentColor"
d="M709 538v-193h-252v-63h252v-78h-252v-64h252v-84h83v482h-83zM555 399l12 66c-119 28 -225 36 -395 36h-67v-409h82v343c157 -1 259 -10 368 -36zM496 894c107 0 169 -23 169 -64c0 -42 -62 -65 -169 -65c-108 0 -169 23 -169 65c0 41 61 64 169 64zM496 706
c157 0 250 44 250 124c0 79 -93 123 -250 123s-250 -44 -250 -123c0 -80 93 -124 250 -124zM537 611h274v62h-632v-62h276v-84h82v84z" />
</svg>
