<?xml version="1.0" standalone="no"?>
<!DOCTYPE svg PUBLIC "-//W3C//DTD SVG 1.1//EN" "http://www.w3.org/Graphics/SVG/1.1/DTD/svg11.dtd" >
<svg xmlns="http://www.w3.org/2000/svg" xmlns:xlink="http://www.w3.org/1999/xlink" version="1.1" viewBox="-10 0 930 1000">
   <path fill="currentColor"
d="M813 58v607h-78v-607h78zM555 584v-189h-181v-65h181v-89h-181v-65h181v-100h78v508h-78zM467 464l10 66c-112 23 -203 27 -319 27h-57v-436h81v368c101 -1 185 -6 285 -25zM553 619v32c0 116 146 212 304 236l-31 64c-133 -23 -259 -91 -314 -189
c-55 98 -180 166 -313 189l-30 -64c157 -24 302 -120 302 -236v-32h82z" />
</svg>
