<?xml version="1.0" standalone="no"?>
<!DOCTYPE svg PUBLIC "-//W3C//DTD SVG 1.1//EN" "http://www.w3.org/Graphics/SVG/1.1/DTD/svg11.dtd" >
<svg xmlns="http://www.w3.org/2000/svg" xmlns:xlink="http://www.w3.org/1999/xlink" version="1.1" viewBox="-10 0 930 1000">
   <path fill="currentColor"
d="M813 57v531h-78v-531h78zM555 546v-169h-181v-64h181v-83h-181v-64h181v-90h78v470h-78zM467 437l10 66c-112 22 -203 27 -319 27h-57v-419h81v351c101 -1 185 -6 285 -25zM821 721h-256c19 85 150 151 295 167l-27 62c-137 -17 -261 -73 -314 -159
c-52 87 -175 141 -313 159l-27 -62c146 -16 276 -80 294 -167h-256v-64h261v-87h82v87h261v64z" />
</svg>
