<?xml version="1.0" standalone="no"?>
<!DOCTYPE svg PUBLIC "-//W3C//DTD SVG 1.1//EN" "http://www.w3.org/Graphics/SVG/1.1/DTD/svg11.dtd" >
<svg xmlns="http://www.w3.org/2000/svg" xmlns:xlink="http://www.w3.org/1999/xlink" version="1.1" viewBox="-10 0 930 1000">
   <path fill="currentColor"
d="M611 482l6 62c-180 26 -393 36 -556 36l-11 -71c74 0 159 -1 244 -5v-111h-176v-280h82v213h358v67h-180v107c80 -3 160 -9 233 -18zM797 708h-148c1 80 65 153 167 187l-41 60c-77 -26 -134 -77 -165 -139c-30 65 -88 119 -169 146l-39 -58c-82 26 -176 32 -218 32h-47
v-290h80v212c51 -4 137 -14 193 -41l21 71c86 -38 136 -108 139 -180h-146v-69h373v69zM750 311h131v70h-131v227h-83v-551h83v254z" />
</svg>
