<?xml version="1.0" standalone="no"?>
<!DOCTYPE svg PUBLIC "-//W3C//DTD SVG 1.1//EN" "http://www.w3.org/Graphics/SVG/1.1/DTD/svg11.dtd" >
<svg xmlns="http://www.w3.org/2000/svg" xmlns:xlink="http://www.w3.org/1999/xlink" version="1.1" viewBox="-10 0 930 1000">
   <path fill="currentColor"
d="M609 449l6 63c-176 21 -387 32 -554 33l-11 -71c76 0 161 -2 246 -5v-112h-168v-247h82v180h333v67h-163v108c79 -4 158 -9 229 -16zM380 883v-101h-157v101h157zM380 721v-103h76v329h-310v-329h77v103h157zM697 613v62c0 78 52 171 151 216l-44 64
c-71 -32 -120 -90 -147 -155c-28 67 -79 123 -153 154l-46 -64c103 -42 158 -136 158 -222v-55h81zM750 293h131v69h-131v210h-83v-514h83v235z" />
</svg>
