<?xml version="1.0" standalone="no"?>
<!DOCTYPE svg PUBLIC "-//W3C//DTD SVG 1.1//EN" "http://www.w3.org/Graphics/SVG/1.1/DTD/svg11.dtd" >
<svg xmlns="http://www.w3.org/2000/svg" xmlns:xlink="http://www.w3.org/1999/xlink" version="1.1" viewBox="-10 0 930 1000">
   <path fill="currentColor"
d="M631 376v223h-78v-526h78v235h107v-251h79v551h-79v-232h-107zM509 479l7 61c-137 20 -327 29 -452 29l-11 -69c54 0 120 -2 189 -4v-102h-138v-273h81v207h277v66h-141v98c67 -2 133 -7 188 -13zM694 703v11c0 79 63 153 168 185l-42 61c-78 -25 -135 -76 -166 -138
c-31 65 -91 118 -173 145l-38 -58c-81 26 -175 32 -218 32h-48v-290h80v212c51 -4 137 -14 194 -41l21 71c91 -39 143 -110 143 -184v-6h-150v-67h380v67h-151z" />
</svg>
