<?xml version="1.0" standalone="no"?>
<!DOCTYPE svg PUBLIC "-//W3C//DTD SVG 1.1//EN" "http://www.w3.org/Graphics/SVG/1.1/DTD/svg11.dtd" >
<svg xmlns="http://www.w3.org/2000/svg" xmlns:xlink="http://www.w3.org/1999/xlink" version="1.1" viewBox="-10 0 930 1000">
   <path fill="currentColor"
d="M521 435l5 60c-144 22 -336 29 -467 29l-9 -69c60 0 134 -1 209 -3v-97h-149v-247h81v180h290v67h-142v93c64 -2 128 -6 182 -13zM250 793v96c116 0 194 -4 291 -20l7 62c-107 17 -190 19 -323 19h-56v-215h232v-83h-234v-62h314v203h-231zM522 654v-64h295v365h-84v-301
h-211zM739 58h78v491h-78v-200h-99v193h-78v-469h78v208h99v-223z" />
</svg>
