<?xml version="1.0" standalone="no"?>
<!DOCTYPE svg PUBLIC "-//W3C//DTD SVG 1.1//EN" "http://www.w3.org/Graphics/SVG/1.1/DTD/svg11.dtd" >
<svg xmlns="http://www.w3.org/2000/svg" xmlns:xlink="http://www.w3.org/1999/xlink" version="1.1" viewBox="-10 0 930 1000">
   <path fill="currentColor"
d="M640 349v196h-78v-472h78v208h98v-223h79v491h-79v-200h-98zM521 440l6 61c-145 22 -337 28 -468 29l-9 -69c60 0 134 -2 209 -4v-102h-149v-247h81v180h291v67h-143v99c65 -3 128 -7 182 -14zM242 800v89c85 0 157 -3 247 -17l6 62c-104 15 -182 16 -282 16h-49v-206
h229v-86h-232v-61h310v203h-229zM597 887h239v61h-318v-351h307v61h-228v84h218v56h-218v89z" />
</svg>
