<?xml version="1.0" standalone="no"?>
<!DOCTYPE svg PUBLIC "-//W3C//DTD SVG 1.1//EN" "http://www.w3.org/Graphics/SVG/1.1/DTD/svg11.dtd" >
<svg xmlns="http://www.w3.org/2000/svg" xmlns:xlink="http://www.w3.org/1999/xlink" version="1.1" viewBox="-10 0 930 1000">
   <path fill="currentColor"
d="M639 425l4 61c-189 23 -404 33 -584 34l-10 -68c80 0 167 -2 255 -6v-102h-170v-237h82v170h336v67h-164v99c86 -4 171 -10 251 -18zM244 797v92c110 0 184 -3 276 -18l7 61c-103 17 -182 18 -311 18h-54v-210h218v-82h-220v-62h301v201h-217zM499 660v-64h282v358h-83
v-294h-199zM699 58h82v485h-82v-485z" />
</svg>
