<?xml version="1.0" standalone="no"?>
<!DOCTYPE svg PUBLIC "-//W3C//DTD SVG 1.1//EN" "http://www.w3.org/Graphics/SVG/1.1/DTD/svg11.dtd" >
<svg xmlns="http://www.w3.org/2000/svg" xmlns:xlink="http://www.w3.org/1999/xlink" version="1.1" viewBox="-10 0 930 1000">
   <path fill="currentColor"
d="M781 58v486h-82v-486h82zM638 423l5 61c-189 22 -404 32 -584 34l-10 -69c80 0 167 -2 255 -5v-100h-170v-237h82v170h336v67h-164v96c86 -4 171 -9 250 -17zM234 797v91c91 0 151 -3 223 -16l8 61c-85 16 -151 17 -265 17h-47v-207h210v-81h-212v-62h293v197h-210z
M614 662v222h72v-222h-72zM752 884h61v66h-326v-66h61v-222h-57v-62h314v62h-53v222z" />
</svg>
