<?xml version="1.0" standalone="no"?>
<!DOCTYPE svg PUBLIC "-//W3C//DTD SVG 1.1//EN" "http://www.w3.org/Graphics/SVG/1.1/DTD/svg11.dtd" >
<svg xmlns="http://www.w3.org/2000/svg" xmlns:xlink="http://www.w3.org/1999/xlink" version="1.1" viewBox="-10 0 930 1000">
   <path fill="currentColor"
d="M782 58v513h-83v-513h83zM639 452l4 62c-189 24 -406 34 -584 35l-11 -69c80 -1 168 -3 256 -6v-117h-170v-247h82v180h336v67h-164v113c85 -4 171 -10 251 -18zM394 883v-105h-162v105h162zM712 610v57c0 84 56 179 158 223l-45 64c-74 -33 -125 -91 -153 -159
c-29 70 -82 128 -158 160l-43 -61v53h-316v-333h77v102h162v-102h77v276c103 -43 160 -137 160 -225v-55h81z" />
</svg>
