<?xml version="1.0" standalone="no"?>
<!DOCTYPE svg PUBLIC "-//W3C//DTD SVG 1.1//EN" "http://www.w3.org/Graphics/SVG/1.1/DTD/svg11.dtd" >
<svg xmlns="http://www.w3.org/2000/svg" xmlns:xlink="http://www.w3.org/1999/xlink" version="1.1" viewBox="-10 0 930 1000">
   <path fill="currentColor"
d="M766 306v67h-612v-292h84v225h528zM665 623v47c0 94 64 191 181 231l-44 59c-86 -32 -147 -94 -177 -169c-31 73 -88 139 -169 175c-76 -35 -128 -96 -155 -169c-33 73 -97 134 -183 166l-41 -60c116 -41 185 -138 185 -224v-54h79v47c0 79 38 160 115 211
c84 -54 129 -142 129 -213v-47h80zM45 470h813v65h-363v132h-82v-132h-368v-65z" />
</svg>
