<?xml version="1.0" standalone="no"?>
<!DOCTYPE svg PUBLIC "-//W3C//DTD SVG 1.1//EN" "http://www.w3.org/Graphics/SVG/1.1/DTD/svg11.dtd" >
<svg xmlns="http://www.w3.org/2000/svg" xmlns:xlink="http://www.w3.org/1999/xlink" version="1.1" viewBox="-10 0 930 1000">
   <path fill="currentColor"
d="M772 307v66h-609v-297h82v231h527zM682 790c0 -64 -83 -100 -223 -100c-142 0 -225 36 -225 100c0 62 83 99 225 99c140 0 223 -37 223 -99zM865 529h-365v98c166 8 265 66 265 163c0 104 -116 163 -306 163c-192 0 -308 -59 -308 -163c0 -97 99 -155 267 -163v-98h-364
v-66h811v66z" />
</svg>
