<?xml version="1.0" standalone="no"?>
<!DOCTYPE svg PUBLIC "-//W3C//DTD SVG 1.1//EN" "http://www.w3.org/Graphics/SVG/1.1/DTD/svg11.dtd" >
<svg xmlns="http://www.w3.org/2000/svg" xmlns:xlink="http://www.w3.org/1999/xlink" version="1.1" viewBox="-10 0 930 1000">
   <path fill="currentColor"
d="M773 258v65h-609v-254h82v189h527zM459 898c118 0 183 -18 183 -56s-65 -56 -183 -56c-120 0 -185 18 -185 56s65 56 185 56zM459 730c173 0 268 38 268 112s-95 111 -268 111c-175 0 -270 -37 -270 -111s95 -112 270 -112zM500 566v68h288v63h-660v-63h290v-68h82z
M53 401h812v66h-365v72h-83v-72h-364v-66z" />
</svg>
