<?xml version="1.0" standalone="no"?>
<!DOCTYPE svg PUBLIC "-//W3C//DTD SVG 1.1//EN" "http://www.w3.org/Graphics/SVG/1.1/DTD/svg11.dtd" >
<svg xmlns="http://www.w3.org/2000/svg" xmlns:xlink="http://www.w3.org/1999/xlink" version="1.1" viewBox="-10 0 930 1000">
   <path fill="currentColor"
d="M817 57v575h-78v-575h78zM412 538h159v-461h77v553h-77v-33h-159v-59zM469 283v66h-358v-256h81v190h277zM245 630v-129c-66 3 -130 5 -183 5l-10 -68c130 -1 329 -6 464 -21l5 60c-60 8 -129 15 -198 20v133h-78zM696 729v7c0 70 66 136 166 163l-42 60
c-78 -22 -135 -70 -165 -129c-31 61 -91 110 -173 134l-40 -56c-81 27 -176 33 -219 33h-47v-262h80v185c51 -4 137 -14 195 -41l19 71c90 -34 143 -97 143 -163v-2h-148v-66h378v66h-147z" />
</svg>
