<?xml version="1.0" standalone="no"?>
<!DOCTYPE svg PUBLIC "-//W3C//DTD SVG 1.1//EN" "http://www.w3.org/Graphics/SVG/1.1/DTD/svg11.dtd" >
<svg xmlns="http://www.w3.org/2000/svg" xmlns:xlink="http://www.w3.org/1999/xlink" version="1.1" viewBox="-10 0 930 1000">
   <path fill="currentColor"
d="M817 58v532h-78v-532h78zM417 487h159v-415h78v515h-78v-46h-159v-54zM480 250v67h-369v-224h81v157h288zM253 584v-133c-68 3 -133 5 -187 5l-10 -67c132 -1 331 -6 467 -22l6 59c-60 8 -129 15 -198 20v138h-78zM294 884h554v61h-638v-197h524v-69h-527v-61h611v187
h-524v79z" />
</svg>
