<?xml version="1.0" standalone="no"?>
<!DOCTYPE svg PUBLIC "-//W3C//DTD SVG 1.1//EN" "http://www.w3.org/Graphics/SVG/1.1/DTD/svg11.dtd" >
<svg xmlns="http://www.w3.org/2000/svg" xmlns:xlink="http://www.w3.org/1999/xlink" version="1.1" viewBox="-10 0 930 1000">
   <path fill="currentColor"
d="M416 487h160v-415h78v515h-78v-46h-160v-54zM480 251v66h-369v-224h81v158h288zM253 584v-133c-68 3 -133 5 -187 5l-10 -67c132 -1 330 -6 467 -22l6 59c-60 8 -129 15 -198 20v138h-78zM229 813v78c118 0 174 -3 242 -17l9 58c-77 16 -140 18 -283 18h-49v-193h222v-77
h-224v-61h306v194h-223zM741 888v-104h-159v104h159zM741 724v-106h76v331h-310v-331h75v106h159zM739 57h78v534h-78v-534z" />
</svg>
