<?xml version="1.0" standalone="no"?>
<!DOCTYPE svg PUBLIC "-//W3C//DTD SVG 1.1//EN" "http://www.w3.org/Graphics/SVG/1.1/DTD/svg11.dtd" >
<svg xmlns="http://www.w3.org/2000/svg" xmlns:xlink="http://www.w3.org/1999/xlink" version="1.1" viewBox="-10 0 930 1000">
   <path fill="currentColor"
d="M817 58v532h-78v-532h78zM417 487h159v-414h78v514h-78v-46h-159v-54zM481 255v66h-370v-227h81v161h289zM253 584v-133c-68 3 -133 5 -187 5l-10 -67c132 -1 331 -6 467 -22l6 59c-59 8 -128 15 -198 20v138h-78zM239 810v81c106 0 169 -2 250 -17l5 59
c-90 16 -159 17 -284 17h-49v-196h230v-75h-233v-60h312v191h-231zM596 888h241v60h-320v-330h308v61h-229v73h219v56h-219v80z" />
</svg>
