<?xml version="1.0" standalone="no"?>
<!DOCTYPE svg PUBLIC "-//W3C//DTD SVG 1.1//EN" "http://www.w3.org/Graphics/SVG/1.1/DTD/svg11.dtd" >
<svg xmlns="http://www.w3.org/2000/svg" xmlns:xlink="http://www.w3.org/1999/xlink" version="1.1" viewBox="-10 0 930 1000">
   <path fill="currentColor"
d="M817 57v576h-78v-576h78zM412 538h159v-461h77v554h-77v-34h-159v-59zM469 283v66h-358v-256h81v190h277zM245 631v-130c-66 3 -130 5 -183 5l-10 -68c130 -1 328 -6 463 -21l5 60c-59 8 -128 15 -197 20v134h-78zM734 880v-144h-455v144h455zM195 672h623v271h-623v-271
z" />
</svg>
