<?xml version="1.0" standalone="no"?>
<!DOCTYPE svg PUBLIC "-//W3C//DTD SVG 1.1//EN" "http://www.w3.org/Graphics/SVG/1.1/DTD/svg11.dtd" >
<svg xmlns="http://www.w3.org/2000/svg" xmlns:xlink="http://www.w3.org/1999/xlink" version="1.1" viewBox="-10 0 930 1000">
   <path fill="currentColor"
d="M808 57v555h-79v-555h79zM400 490h162v-417h78v530h-78v-52h-162v-61zM465 247v65h-354v-222h81v157h273zM243 605v-158c-70 3 -136 4 -190 4l-9 -66c125 0 325 -2 472 -25l7 58c-64 12 -133 20 -202 24v163h-78zM816 723h-262c24 84 154 149 303 164l-27 64
c-141 -17 -268 -74 -323 -161c-55 84 -181 143 -321 161l-28 -64c147 -15 278 -84 303 -164h-256v-65h611v65z" />
</svg>
