<?xml version="1.0" standalone="no"?>
<!DOCTYPE svg PUBLIC "-//W3C//DTD SVG 1.1//EN" "http://www.w3.org/Graphics/SVG/1.1/DTD/svg11.dtd" >
<svg xmlns="http://www.w3.org/2000/svg" xmlns:xlink="http://www.w3.org/1999/xlink" version="1.1" viewBox="-10 0 930 1000">
   <path fill="currentColor"
d="M808 56v556h-79v-556h79zM400 473h162v-402h78v508h-78v-47h-162v-59zM465 235v65h-354v-212h81v147h273zM243 598v-163c-70 3 -136 4 -190 4l-9 -65c125 0 325 -2 472 -25l7 57c-64 12 -133 20 -202 24v168h-78zM816 741h-264c26 74 154 134 298 148l-25 61
c-140 -15 -266 -68 -319 -148c-54 79 -180 133 -320 148l-26 -61c145 -15 272 -74 299 -148h-261v-63h267v-79h82v79h269v63z" />
</svg>
