<?xml version="1.0" standalone="no"?>
<!DOCTYPE svg PUBLIC "-//W3C//DTD SVG 1.1//EN" "http://www.w3.org/Graphics/SVG/1.1/DTD/svg11.dtd" >
<svg xmlns="http://www.w3.org/2000/svg" xmlns:xlink="http://www.w3.org/1999/xlink" version="1.1" viewBox="-10 0 930 1000">
   <path fill="currentColor"
d="M783 57v550h-82v-550h82zM561 306v66h-422v-264h83v198h339zM388 526v120h64v309h-82v-241h-219v-68h155v-116c-85 3 -167 5 -240 5l-12 -71c174 0 392 -3 583 -21l6 62c-82 11 -170 17 -255 21zM703 636v31c0 103 53 190 158 228l-44 63c-78 -30 -128 -85 -155 -156
c-30 70 -84 128 -163 160l-45 -63c109 -42 168 -136 168 -226v-37h81z" />
</svg>
