<?xml version="1.0" standalone="no"?>
<!DOCTYPE svg PUBLIC "-//W3C//DTD SVG 1.1//EN" "http://www.w3.org/Graphics/SVG/1.1/DTD/svg11.dtd" >
<svg xmlns="http://www.w3.org/2000/svg" xmlns:xlink="http://www.w3.org/1999/xlink" version="1.1" viewBox="-10 0 930 1000">
   <path fill="currentColor"
d="M781 58v569h-82v-569h82zM558 292v66h-424v-265h82v199h342zM488 888c137 0 218 -35 218 -95c0 -59 -81 -94 -218 -94c-138 0 -217 35 -217 94c0 60 79 95 217 95zM387 514v127c31 -5 64 -7 101 -7c188 0 301 58 301 159c0 103 -113 160 -301 160s-301 -57 -301 -160
c0 -61 42 -106 116 -133v-141c-86 4 -168 5 -239 5l-11 -69c166 0 391 -2 584 -30l7 61c-84 14 -171 24 -257 28z" />
</svg>
