<?xml version="1.0" standalone="no"?>
<!DOCTYPE svg PUBLIC "-//W3C//DTD SVG 1.1//EN" "http://www.w3.org/Graphics/SVG/1.1/DTD/svg11.dtd" >
<svg xmlns="http://www.w3.org/2000/svg" xmlns:xlink="http://www.w3.org/1999/xlink" version="1.1" viewBox="-10 0 930 1000">
   <path fill="currentColor"
d="M766 279v67h-612v-276h84v209h528zM632 899c48 0 81 -21 81 -56s-33 -57 -81 -57s-81 22 -81 57s33 56 81 56zM632 731c87 0 152 43 152 112s-65 112 -152 112c-86 0 -151 -43 -151 -112s65 -112 151 -112zM858 493h-203v78h16v60h152v61h-380v-61h148v-40h-18v-98h-223
v100h67v202h-198v88c107 0 164 -2 235 -15l9 61c-82 15 -144 16 -274 16h-48v-210h198v-81h-200v-61h129v-100h-223v-64h813v64z" />
</svg>
