<?xml version="1.0" standalone="no"?>
<!DOCTYPE svg PUBLIC "-//W3C//DTD SVG 1.1//EN" "http://www.w3.org/Graphics/SVG/1.1/DTD/svg11.dtd" >
<svg xmlns="http://www.w3.org/2000/svg" xmlns:xlink="http://www.w3.org/1999/xlink" version="1.1" viewBox="-10 0 930 1000">
   <path fill="currentColor"
d="M772 306v66h-609v-296h82v230h527zM582 636v-108h-248v108c37 -6 78 -10 124 -10s88 4 124 10zM458 889c140 0 224 -37 224 -99c0 -64 -84 -100 -224 -100c-141 0 -224 36 -224 100c0 62 83 99 224 99zM865 528h-202v131c65 27 102 72 102 131c0 104 -115 163 -307 163
c-191 0 -307 -59 -307 -163c0 -59 37 -104 102 -132v-130h-199v-66h811v66z" />
</svg>
