<?xml version="1.0" standalone="no"?>
<!DOCTYPE svg PUBLIC "-//W3C//DTD SVG 1.1//EN" "http://www.w3.org/Graphics/SVG/1.1/DTD/svg11.dtd" >
<svg xmlns="http://www.w3.org/2000/svg" xmlns:xlink="http://www.w3.org/1999/xlink" version="1.1" viewBox="-10 0 930 1000">
   <path fill="currentColor"
d="M766 307v67h-612v-291h84v224h528zM640 702v17c0 81 64 149 164 180l-41 61c-78 -24 -135 -75 -164 -138c-30 65 -89 117 -170 143l-43 -61c-79 26 -170 31 -214 31h-46v-287h79v214c52 -4 138 -14 193 -42l21 72l-8 3c93 -35 147 -105 147 -183v-10h-145v-67h370v67
h-143zM46 479h812v66h-812v-66z" />
</svg>
