<?xml version="1.0" standalone="no"?>
<!DOCTYPE svg PUBLIC "-//W3C//DTD SVG 1.1//EN" "http://www.w3.org/Graphics/SVG/1.1/DTD/svg11.dtd" >
<svg xmlns="http://www.w3.org/2000/svg" xmlns:xlink="http://www.w3.org/1999/xlink" version="1.1" viewBox="-10 0 930 1000">
   <path fill="currentColor"
d="M766 282v67h-612v-275h82v208h530zM203 788v98c112 0 171 -2 244 -16l8 63c-82 15 -146 16 -280 16h-50v-220h212v-88h-214v-59h292v206h-212zM627 900c50 0 82 -23 82 -59c0 -37 -32 -59 -82 -59c-48 0 -81 22 -81 59c0 36 33 59 81 59zM627 726c87 0 152 44 152 115
c0 70 -65 114 -152 114c-86 0 -151 -44 -151 -114c0 -71 65 -115 151 -115zM667 549v83h149v61h-376v-61h147v-83h80zM46 435h814v66h-814v-66z" />
</svg>
