<?xml version="1.0" standalone="no"?>
<!DOCTYPE svg PUBLIC "-//W3C//DTD SVG 1.1//EN" "http://www.w3.org/Graphics/SVG/1.1/DTD/svg11.dtd" >
<svg xmlns="http://www.w3.org/2000/svg" xmlns:xlink="http://www.w3.org/1999/xlink" version="1.1" viewBox="-10 0 930 1000">
   <path fill="currentColor"
d="M766 294v67h-612v-284h84v217h528zM367 883v-113h-161v113h161zM685 600v70c0 82 57 176 156 221l-44 63c-73 -33 -124 -92 -152 -160c-28 70 -81 128 -157 160l-44 -61v54h-315v-343h77v105h161v-105h77v285c102 -43 159 -136 159 -221v-68h82zM46 458h814v67h-814v-67z
" />
</svg>
