<?xml version="1.0" standalone="no"?>
<!DOCTYPE svg PUBLIC "-//W3C//DTD SVG 1.1//EN" "http://www.w3.org/Graphics/SVG/1.1/DTD/svg11.dtd" >
<svg xmlns="http://www.w3.org/2000/svg" xmlns:xlink="http://www.w3.org/1999/xlink" version="1.1" viewBox="-10 0 930 1000">
   <path fill="currentColor"
d="M553 277v67h-419v-237h82v170h337zM629 418l5 61c-184 23 -397 33 -570 34l-11 -70c177 -1 396 -8 576 -25zM230 796v94c106 0 161 -3 228 -16l8 60c-78 15 -139 16 -271 16h-47v-209h209v-83h-211v-62h294v200h-210zM565 655v240h145v-240h-145zM495 955v-359h286v359
h-286zM699 57h82v486h-82v-486z" />
</svg>
