<?xml version="1.0" standalone="no"?>
<!DOCTYPE svg PUBLIC "-//W3C//DTD SVG 1.1//EN" "http://www.w3.org/Graphics/SVG/1.1/DTD/svg11.dtd" >
<svg xmlns="http://www.w3.org/2000/svg" xmlns:xlink="http://www.w3.org/1999/xlink" version="1.1" viewBox="-10 0 930 1000">
   <path fill="currentColor"
d="M781 58v514h-82v-514h82zM552 291v66h-418v-247h82v181h336zM629 438l5 62c-184 24 -399 34 -570 35l-11 -70c176 -2 395 -9 576 -27zM394 882v-104h-162v104h162zM712 610v55c0 85 55 180 157 227l-45 64c-73 -33 -124 -90 -152 -158c-29 69 -82 126 -157 158l-44 -62
v53h-316v-333h77v102h162v-102h77v276c102 -45 160 -137 160 -223v-57h81z" />
</svg>
