<?xml version="1.0" standalone="no"?>
<!DOCTYPE svg PUBLIC "-//W3C//DTD SVG 1.1//EN" "http://www.w3.org/Graphics/SVG/1.1/DTD/svg11.dtd" >
<svg xmlns="http://www.w3.org/2000/svg" xmlns:xlink="http://www.w3.org/1999/xlink" version="1.1" viewBox="-10 0 930 1000">
   <path fill="currentColor"
d="M789 56v534h-82v-534h82zM574 285v66h-438v-263h82v197h356zM635 415l6 60c-199 36 -416 38 -576 39l-11 -68c164 0 388 -2 581 -31zM797 718h-266c19 84 147 154 297 170l-27 61c-138 -17 -261 -73 -315 -157c-54 84 -177 140 -313 157l-28 -61
c149 -16 277 -87 296 -170h-265v-63h269v-86h82v86h270v63z" />
</svg>
