<?xml version="1.0" standalone="no"?>
<!DOCTYPE svg PUBLIC "-//W3C//DTD SVG 1.1//EN" "http://www.w3.org/Graphics/SVG/1.1/DTD/svg11.dtd" >
<svg xmlns="http://www.w3.org/2000/svg" xmlns:xlink="http://www.w3.org/1999/xlink" version="1.1" viewBox="-10 0 930 1000">
   <path fill="currentColor"
d="M781 58v468h-84v-468h84zM580 360l13 69c-153 30 -291 40 -423 40h-72v-372h82v301c125 -1 257 -11 400 -38zM234 784v101c92 0 151 -3 224 -17l8 65c-85 16 -152 17 -265 17h-48v-221h213v-88h-215v-66h295v209h-212zM610 641v242h71v-242h-71zM747 883h61v67h-326v-67
h62v-242h-58v-66h319v66h-58v242z" />
</svg>
