<?xml version="1.0" standalone="no"?>
<!DOCTYPE svg PUBLIC "-//W3C//DTD SVG 1.1//EN" "http://www.w3.org/Graphics/SVG/1.1/DTD/svg11.dtd" >
<svg xmlns="http://www.w3.org/2000/svg" xmlns:xlink="http://www.w3.org/1999/xlink" version="1.1" viewBox="-10 0 930 1000">
   <path fill="currentColor"
d="M781 58v517h-84v-517h84zM582 387l11 68c-152 30 -289 40 -424 40h-71v-389h82v319c127 -1 259 -11 402 -38zM689 609v47c0 98 64 198 181 239l-45 61c-86 -34 -146 -98 -176 -175c-29 76 -86 145 -166 182c-77 -35 -128 -98 -155 -173c-33 75 -94 137 -179 171l-43 -62
c116 -42 184 -143 184 -234v-54h79v49c0 81 36 165 113 218c83 -56 127 -147 127 -221v-48h80z" />
</svg>
