<?xml version="1.0" standalone="no"?>
<!DOCTYPE svg PUBLIC "-//W3C//DTD SVG 1.1//EN" "http://www.w3.org/Graphics/SVG/1.1/DTD/svg11.dtd" >
<svg xmlns="http://www.w3.org/2000/svg" xmlns:xlink="http://www.w3.org/1999/xlink" version="1.1" viewBox="-10 0 930 1000">
   <path fill="currentColor"
d="M568 383l10 68c-135 25 -253 31 -422 31h-71v-374h399v66h-317v239c160 0 273 -7 401 -30zM689 568v92c0 97 49 189 151 233l-45 62c-73 -33 -121 -89 -147 -158c-27 73 -77 131 -152 165l-44 -60l4 31c-79 16 -140 17 -261 17h-48v-223h209v-89h-211v-64h290v213h-208
v99c97 0 152 -2 220 -16l4 29c105 -44 157 -139 157 -243v-88h81zM745 255h133v69h-133v205h-84v-471h84v197z" />
</svg>
