<?xml version="1.0" standalone="no"?>
<!DOCTYPE svg PUBLIC "-//W3C//DTD SVG 1.1//EN" "http://www.w3.org/Graphics/SVG/1.1/DTD/svg11.dtd" >
<svg xmlns="http://www.w3.org/2000/svg" xmlns:xlink="http://www.w3.org/1999/xlink" version="1.1" viewBox="-10 0 930 1000">
   <path fill="currentColor"
d="M568 377l11 68c-136 25 -253 31 -423 31h-71v-368h400v66h-318v232c161 0 273 -6 401 -29zM209 784v101c92 0 150 -3 224 -17l7 64c-85 16 -152 18 -265 18h-47v-221h213v-88h-215v-66h295v209h-212zM590 641v242h71v-242h-71zM727 641v242h61v67h-326v-67h62v-242h-58
v-66h318v66h-57zM746 255h132v69h-132v207h-82v-473h82v197z" />
</svg>
