<?xml version="1.0" standalone="no"?>
<!DOCTYPE svg PUBLIC "-//W3C//DTD SVG 1.1//EN" "http://www.w3.org/Graphics/SVG/1.1/DTD/svg11.dtd" >
<svg xmlns="http://www.w3.org/2000/svg" xmlns:xlink="http://www.w3.org/1999/xlink" version="1.1" viewBox="-10 0 930 1000">
   <path fill="currentColor"
d="M572 410l9 67c-127 25 -238 31 -417 31h-70v-391h395v66h-313v257c169 0 275 -6 396 -30zM764 683h-250c9 97 138 182 284 206l-31 63c-131 -22 -245 -88 -296 -179c-50 91 -165 155 -296 178l-31 -63c148 -23 276 -107 285 -205h-251v-66h586v66zM749 284h133v67h-133
v222h-82v-517h82v228z" />
</svg>
