<?xml version="1.0" standalone="no"?>
<!DOCTYPE svg PUBLIC "-//W3C//DTD SVG 1.1//EN" "http://www.w3.org/Graphics/SVG/1.1/DTD/svg11.dtd" >
<svg xmlns="http://www.w3.org/2000/svg" xmlns:xlink="http://www.w3.org/1999/xlink" version="1.1" viewBox="-10 0 930 1000">
   <path fill="currentColor"
d="M616 346v197h-78v-469h78v204h117v-220h78v487h-78v-199h-117zM478 412l7 67c-108 21 -199 25 -332 25h-59v-383h338v66h-255v251c118 -1 203 -5 301 -26zM235 627v237c56 -2 127 -10 191 -32l15 67c-89 28 -176 34 -243 34h-44v-306h81zM626 901c54 0 92 -18 92 -50
s-38 -50 -92 -50c-55 0 -94 18 -94 50s39 50 94 50zM626 745c95 0 165 41 165 106s-70 106 -165 106c-97 0 -167 -41 -167 -106s70 -106 167 -106zM670 653h179v61h-445v-61h186v-80h80v80z" />
</svg>
