<?xml version="1.0" standalone="no"?>
<!DOCTYPE svg PUBLIC "-//W3C//DTD SVG 1.1//EN" "http://www.w3.org/Graphics/SVG/1.1/DTD/svg11.dtd" >
<svg xmlns="http://www.w3.org/2000/svg" xmlns:xlink="http://www.w3.org/1999/xlink" version="1.1" viewBox="-10 0 930 1000">
   <path fill="currentColor"
d="M615 328v197h-78v-451h78v185h118v-202h78v471h-78v-200h-118zM476 389l9 67c-110 20 -199 25 -332 25h-59v-368h337v66h-254v235c118 -1 201 -5 299 -25zM714 569v91c0 97 49 189 153 233l-46 62c-74 -33 -121 -89 -148 -158c-26 72 -76 131 -151 165l-42 -54l4 24
c-81 17 -143 18 -269 18h-48v-222h216v-89h-219v-64h299v213h-217v97c102 0 159 -2 229 -16l4 30c104 -45 155 -141 155 -244v-86h80z" />
</svg>
