<?xml version="1.0" standalone="no"?>
<!DOCTYPE svg PUBLIC "-//W3C//DTD SVG 1.1//EN" "http://www.w3.org/Graphics/SVG/1.1/DTD/svg11.dtd" >
<svg xmlns="http://www.w3.org/2000/svg" xmlns:xlink="http://www.w3.org/1999/xlink" version="1.1" viewBox="-10 0 930 1000">
   <path fill="currentColor"
d="M611 359v213h-78v-498h78v218h120v-235h79v593h-79v-291h-120zM477 443l8 66c-110 23 -202 27 -334 27h-58v-401h341v67h-260v267c117 -1 203 -5 303 -26zM552 609v35c0 119 146 218 304 243l-34 63c-132 -24 -257 -93 -311 -194c-55 101 -179 170 -310 194l-35 -63
c157 -25 303 -124 303 -243v-35h83z" />
</svg>
