<?xml version="1.0" standalone="no"?>
<!DOCTYPE svg PUBLIC "-//W3C//DTD SVG 1.1//EN" "http://www.w3.org/Graphics/SVG/1.1/DTD/svg11.dtd" >
<svg xmlns="http://www.w3.org/2000/svg" xmlns:xlink="http://www.w3.org/1999/xlink" version="1.1" viewBox="-10 0 930 1000">
   <path fill="currentColor"
d="M567 416l10 68c-133 25 -250 32 -421 32h-70v-392h399v67h-317v256c160 0 272 -6 399 -31zM648 680v14c0 84 63 161 167 197l-42 61c-80 -28 -138 -83 -167 -150c-30 69 -89 125 -171 154l-40 -56c-81 27 -176 33 -220 33h-47v-316h79v235c52 -4 140 -13 199 -41l18 71
c90 -42 140 -116 140 -193v-9h-145v-67h377v67h-148zM878 261h-133v129h133v69h-133v124h-84v-525h84v134h133v69z" />
</svg>
