<?xml version="1.0" standalone="no"?>
<!DOCTYPE svg PUBLIC "-//W3C//DTD SVG 1.1//EN" "http://www.w3.org/Graphics/SVG/1.1/DTD/svg11.dtd" >
<svg xmlns="http://www.w3.org/2000/svg" xmlns:xlink="http://www.w3.org/1999/xlink" version="1.1" viewBox="-10 0 930 1000">
   <path fill="currentColor"
d="M573 421l9 67c-123 25 -230 31 -419 31h-70v-393h396v66h-315v260c178 0 281 -6 399 -31zM464 887c132 0 214 -40 214 -106s-82 -106 -214 -106c-133 0 -215 40 -215 106s82 106 215 106zM464 609c181 0 295 64 295 172s-114 172 -295 172c-182 0 -296 -64 -296 -172
s114 -172 296 -172zM881 256h-131v119h131v68h-131v148h-83v-535h83v132h131v68z" />
</svg>
