<?xml version="1.0" standalone="no"?>
<!DOCTYPE svg PUBLIC "-//W3C//DTD SVG 1.1//EN" "http://www.w3.org/Graphics/SVG/1.1/DTD/svg11.dtd" >
<svg xmlns="http://www.w3.org/2000/svg" xmlns:xlink="http://www.w3.org/1999/xlink" version="1.1" viewBox="-10 0 930 1000">
   <path fill="currentColor"
d="M572 383l10 67c-126 26 -235 32 -419 32h-70v-373h396v65h-315v241c173 0 278 -7 398 -32zM768 697h-255c14 91 141 170 286 191l-29 63c-133 -22 -249 -85 -301 -173c-51 88 -168 151 -300 173l-30 -63c145 -21 272 -100 287 -191h-256v-64h258v-98h82v98h258v64z
M881 237h-132v113h132v67h-132v145h-82v-505h82v112h132v68z" />
</svg>
