<?xml version="1.0" standalone="no"?>
<!DOCTYPE svg PUBLIC "-//W3C//DTD SVG 1.1//EN" "http://www.w3.org/Graphics/SVG/1.1/DTD/svg11.dtd" >
<svg xmlns="http://www.w3.org/2000/svg" xmlns:xlink="http://www.w3.org/1999/xlink" version="1.1" viewBox="-10 0 930 1000">
   <path fill="currentColor"
d="M734 256h-120v127h120v-127zM614 452v119h-77v-497h77v113h120v-130h77v517h-77v-122h-120zM476 427l8 67c-109 21 -198 25 -331 25h-59v-391h337v66h-254v259c118 -1 201 -5 299 -26zM159 682v-68h302v343h-82v-275h-220zM718 602v61c0 99 53 193 161 233l-46 64
c-78 -32 -129 -89 -157 -160c-30 71 -85 131 -164 162l-45 -61c111 -44 170 -141 170 -233v-66h81z" />
</svg>
