<?xml version="1.0" standalone="no"?>
<!DOCTYPE svg PUBLIC "-//W3C//DTD SVG 1.1//EN" "http://www.w3.org/Graphics/SVG/1.1/DTD/svg11.dtd" >
<svg xmlns="http://www.w3.org/2000/svg" xmlns:xlink="http://www.w3.org/1999/xlink" version="1.1" viewBox="-10 0 930 1000">
   <path fill="currentColor"
d="M476 388l8 67c-109 21 -198 26 -331 26h-59v-368h337v66h-254v234c118 0 201 -4 299 -25zM250 786v100c114 0 191 -3 287 -19l8 64c-107 17 -190 19 -322 19h-56v-224h228v-87h-230v-65h313v212h-228zM517 641v-67h294v380h-83v-313h-211zM614 353h120v-117h-120v117z
M734 58h77v471h-77v-109h-120v105h-77v-451h77v94h120v-110z" />
</svg>
