<?xml version="1.0" standalone="no"?>
<!DOCTYPE svg PUBLIC "-//W3C//DTD SVG 1.1//EN" "http://www.w3.org/Graphics/SVG/1.1/DTD/svg11.dtd" >
<svg xmlns="http://www.w3.org/2000/svg" xmlns:xlink="http://www.w3.org/1999/xlink" version="1.1" viewBox="-10 0 930 1000">
   <path fill="currentColor"
d="M734 236h-120v117h120v-117zM614 420v105h-77v-451h77v94h120v-110h77v474h-77v-112h-120zM477 388l7 67c-108 21 -198 26 -331 26h-59v-368h337v66h-254v234c118 0 201 -4 300 -25zM237 790v97c106 0 168 -2 247 -16l5 63c-87 15 -155 16 -279 16h-49v-218h229v-94h-231
v-63h306v215h-228zM591 885h237v63h-316v-374h308v63h-229v93h220v58h-220v97z" />
</svg>
