<?xml version="1.0" standalone="no"?>
<!DOCTYPE svg PUBLIC "-//W3C//DTD SVG 1.1//EN" "http://www.w3.org/Graphics/SVG/1.1/DTD/svg11.dtd" >
<svg xmlns="http://www.w3.org/2000/svg" xmlns:xlink="http://www.w3.org/1999/xlink" version="1.1" viewBox="-10 0 930 1000">
   <path fill="currentColor"
d="M734 236h-120v117h120v-117zM614 420v104h-77v-450h77v94h120v-110h77v473h-77v-111h-120zM246 784v101c94 -1 155 -4 229 -17l7 64c-86 17 -153 18 -269 18h-48v-221h217v-88h-219v-66h300v209h-217zM177 179v234c118 0 202 -4 300 -25l7 67c-108 21 -197 26 -331 26
h-59v-368h338v66h-255zM636 641v242h71v-242h-71zM773 883h63v67h-331v-67h65v-242h-61v-66h324v66h-60v242z" />
</svg>
