<?xml version="1.0" standalone="no"?>
<!DOCTYPE svg PUBLIC "-//W3C//DTD SVG 1.1//EN" "http://www.w3.org/Graphics/SVG/1.1/DTD/svg11.dtd" >
<svg xmlns="http://www.w3.org/2000/svg" xmlns:xlink="http://www.w3.org/1999/xlink" version="1.1" viewBox="-10 0 930 1000">
   <path fill="currentColor"
d="M734 245h-120v121h120v-121zM614 435v107h-77v-468h77v101h120v-117h77v488h-77v-111h-120zM477 403l8 67c-109 21 -199 26 -332 26h-59v-376h337v66h-254v243c118 -1 202 -5 300 -26zM405 881v-119h-160v119h160zM726 587v75c0 83 57 180 159 228l-44 65
c-74 -33 -126 -93 -155 -161c-29 70 -83 129 -159 161l-45 -61v51h-314v-354h77v109h160v-109h77v299c106 -46 163 -140 163 -228v-75h81z" />
</svg>
