<?xml version="1.0" standalone="no"?>
<!DOCTYPE svg PUBLIC "-//W3C//DTD SVG 1.1//EN" "http://www.w3.org/Graphics/SVG/1.1/DTD/svg11.dtd" >
<svg xmlns="http://www.w3.org/2000/svg" xmlns:xlink="http://www.w3.org/1999/xlink" version="1.1" viewBox="-10 0 930 1000">
   <path fill="currentColor"
d="M464 277h237v-219h84v522h-84v-235h-237v-68zM550 454l8 69c-141 22 -259 26 -399 26h-68v-435h405v65h-323v302c131 0 244 -6 377 -27zM141 680v-67h303v344h-82v-277h-221zM699 600v61c0 103 53 195 158 235l-45 63c-77 -31 -127 -88 -154 -160
c-30 71 -85 131 -164 162l-45 -61c109 -42 168 -136 168 -227v-73h82z" />
</svg>
