<?xml version="1.0" standalone="no"?>
<!DOCTYPE svg PUBLIC "-//W3C//DTD SVG 1.1//EN" "http://www.w3.org/Graphics/SVG/1.1/DTD/svg11.dtd" >
<svg xmlns="http://www.w3.org/2000/svg" xmlns:xlink="http://www.w3.org/1999/xlink" version="1.1" viewBox="-10 0 930 1000">
   <path fill="currentColor"
d="M464 267h237v-209h84v497h-84v-219h-237v-69zM550 435l8 69c-141 22 -259 26 -399 26h-68v-419h404v65h-322v286c131 0 244 -6 377 -27zM229 627v237c56 -2 128 -10 192 -32l14 67c-89 28 -176 34 -243 34h-44v-306h81zM619 901c55 0 94 -18 94 -50s-39 -50 -94 -50
s-94 18 -94 50s39 50 94 50zM619 745c96 0 166 41 166 106s-70 106 -166 106c-97 0 -167 -41 -167 -106s70 -106 167 -106zM663 653h180v61h-446v-61h187v-84h79v84z" />
</svg>
