<?xml version="1.0" standalone="no"?>
<!DOCTYPE svg PUBLIC "-//W3C//DTD SVG 1.1//EN" "http://www.w3.org/Graphics/SVG/1.1/DTD/svg11.dtd" >
<svg xmlns="http://www.w3.org/2000/svg" xmlns:xlink="http://www.w3.org/1999/xlink" version="1.1" viewBox="-10 0 930 1000">
   <path fill="currentColor"
d="M565 421l9 64c-122 23 -225 28 -402 28h-68v-400h409v65h-327v270c165 0 264 -5 379 -27zM241 781v97c96 0 154 -2 227 -15l8 62c-84 16 -148 17 -267 17h-48v-221h209v-83h-211v-62h290v205h-208zM716 877v-131h-138v131h138zM716 683v-117h74v375h-287v-375h75v117h138
zM709 57h82v475h-82v-198h-253v-63h253v-214z" />
</svg>
