<?xml version="1.0" standalone="no"?>
<!DOCTYPE svg PUBLIC "-//W3C//DTD SVG 1.1//EN" "http://www.w3.org/Graphics/SVG/1.1/DTD/svg11.dtd" >
<svg xmlns="http://www.w3.org/2000/svg" xmlns:xlink="http://www.w3.org/1999/xlink" version="1.1" viewBox="-10 0 930 1000">
   <path fill="currentColor"
d="M457 290h252v-234h83v615h-83v-314h-252v-67zM560 450l9 66c-120 24 -221 30 -399 30h-68v-430h407v66h-326v297c166 0 264 -6 377 -29zM545 604v34c0 125 141 221 301 248l-32 64c-136 -24 -258 -94 -311 -197c-54 102 -176 173 -310 197l-33 -64
c159 -27 301 -126 301 -248v-34h84z" />
</svg>
