<?xml version="1.0" standalone="no"?>
<!DOCTYPE svg PUBLIC "-//W3C//DTD SVG 1.1//EN" "http://www.w3.org/Graphics/SVG/1.1/DTD/svg11.dtd" >
<svg xmlns="http://www.w3.org/2000/svg" xmlns:xlink="http://www.w3.org/1999/xlink" version="1.1" viewBox="-10 0 930 1000">
   <path fill="currentColor"
d="M811 58v465h-78v-465h78zM388 257h173v-181h78v441h-78v-193h-173v-67zM476 405l7 67c-110 20 -199 23 -330 23h-59v-392h337v66h-254v259c117 0 199 -4 299 -23zM237 790v97c96 0 163 -2 247 -16l5 63c-94 15 -167 16 -279 16h-49v-218h229v-95h-231v-62h306v215h-228z
M591 885h237v63h-316v-374h308v63h-229v93h220v58h-220v97z" />
</svg>
