<?xml version="1.0" standalone="no"?>
<!DOCTYPE svg PUBLIC "-//W3C//DTD SVG 1.1//EN" "http://www.w3.org/Graphics/SVG/1.1/DTD/svg11.dtd" >
<svg xmlns="http://www.w3.org/2000/svg" xmlns:xlink="http://www.w3.org/1999/xlink" version="1.1" viewBox="-10 0 930 1000">
   <path fill="currentColor"
d="M813 58v527h-79v-527h79zM383 284h179v-207h77v496h-77v-222h-179v-67zM478 451l7 66c-113 20 -206 23 -331 23h-58v-414h340v66h-259v282c112 0 198 -4 301 -23zM700 612v48c0 93 67 187 180 226l-40 60c-89 -31 -150 -94 -181 -170c-27 73 -81 142 -164 178
c-86 -34 -140 -99 -167 -174c-32 72 -94 135 -178 166l-40 -60c112 -42 180 -139 180 -226v-48h79v48c0 81 40 165 124 214c84 -54 127 -145 127 -214v-48h80z" />
</svg>
