<?xml version="1.0" standalone="no"?>
<!DOCTYPE svg PUBLIC "-//W3C//DTD SVG 1.1//EN" "http://www.w3.org/Graphics/SVG/1.1/DTD/svg11.dtd" >
<svg xmlns="http://www.w3.org/2000/svg" xmlns:xlink="http://www.w3.org/1999/xlink" version="1.1" viewBox="-10 0 930 1000">
   <path fill="currentColor"
d="M813 57v514h-79v-514h79zM383 272h179v-195h77v485h-77v-223h-179v-67zM478 431l7 65c-105 20 -189 24 -331 24h-58v-403h340v66h-259v271c126 0 205 -4 301 -23zM821 687h-259c5 101 141 181 294 202l-29 61c-135 -19 -256 -81 -308 -171c-51 91 -172 152 -308 171
l-29 -61c154 -21 290 -99 294 -202h-259v-66h604v66z" />
</svg>
