<?xml version="1.0" standalone="no"?>
<!DOCTYPE svg PUBLIC "-//W3C//DTD SVG 1.1//EN" "http://www.w3.org/Graphics/SVG/1.1/DTD/svg11.dtd" >
<svg xmlns="http://www.w3.org/2000/svg" xmlns:xlink="http://www.w3.org/1999/xlink" version="1.1" viewBox="-10 0 930 1000">
   <path fill="currentColor"
d="M470 198h232v-140h84v527h-84v-148h-232v-66h232v-106h-232v-67zM528 457l8 67c-134 22 -244 27 -380 27h-65v-437h394v65h-312v304c126 0 230 -6 355 -26zM141 687v-68h303v339h-82v-271h-221zM699 607v55c0 102 53 194 159 233l-45 65c-78 -32 -129 -88 -157 -159
c-30 70 -85 130 -162 162l-44 -62c110 -43 167 -140 167 -232v-62h82z" />
</svg>
