<?xml version="1.0" standalone="no"?>
<!DOCTYPE svg PUBLIC "-//W3C//DTD SVG 1.1//EN" "http://www.w3.org/Graphics/SVG/1.1/DTD/svg11.dtd" >
<svg xmlns="http://www.w3.org/2000/svg" xmlns:xlink="http://www.w3.org/1999/xlink" version="1.1" viewBox="-10 0 930 1000">
   <path fill="currentColor"
d="M811 58v470h-78v-470h78zM403 182h164v-107h78v447h-78v-118h-164v-65h164v-92h-164v-65zM452 409l7 66c-109 19 -195 22 -310 22h-55v-393h319v65h-236v262c100 -1 178 -5 275 -22zM246 784v101c94 -1 155 -4 229 -17l7 64c-86 17 -153 18 -269 18h-48v-221h217v-88
h-219v-66h300v209h-217zM636 641v242h71v-242h-71zM773 883h63v66h-331v-66h65v-242h-61v-66h323v66h-59v242z" />
</svg>
