<?xml version="1.0" standalone="no"?>
<!DOCTYPE svg PUBLIC "-//W3C//DTD SVG 1.1//EN" "http://www.w3.org/Graphics/SVG/1.1/DTD/svg11.dtd" >
<svg xmlns="http://www.w3.org/2000/svg" xmlns:xlink="http://www.w3.org/1999/xlink" version="1.1" viewBox="-10 0 930 1000">
   <path fill="currentColor"
d="M611 435l6 60c-180 25 -391 34 -555 35l-12 -70c75 0 159 -2 244 -5v-92h-170v-267h419v65h-337v137h346v65h-174v88c81 -3 160 -9 233 -16zM211 797v93c100 -1 153 -4 220 -16l8 60c-78 15 -139 16 -265 16h-46v-208h201v-86h-203v-61h286v202h-201zM541 654v242h138
v-242h-138zM471 956v-361h279v361h-279zM881 281v69h-131v198h-83v-490h83v223h131z" />
</svg>
