<?xml version="1.0" standalone="no"?>
<!DOCTYPE svg PUBLIC "-//W3C//DTD SVG 1.1//EN" "http://www.w3.org/Graphics/SVG/1.1/DTD/svg11.dtd" >
<svg xmlns="http://www.w3.org/2000/svg" xmlns:xlink="http://www.w3.org/1999/xlink" version="1.1" viewBox="-10 0 930 1000">
   <path fill="currentColor"
d="M611 433l5 60c-178 23 -389 33 -554 34l-12 -69c75 0 160 -2 244 -5v-90h-170v-267h419v65h-337v137h344v65h-171v86c80 -3 159 -9 232 -16zM212 802v85c97 0 155 -3 227 -17l8 62c-83 16 -147 17 -266 17h-48v-203h202v-84h-204v-61h283v201h-202zM627 906
c49 0 82 -23 82 -58c0 -37 -33 -59 -82 -59s-82 22 -82 59c0 35 33 58 82 58zM627 733c88 0 152 44 152 115c0 70 -64 113 -152 113s-152 -43 -152 -113c0 -71 64 -115 152 -115zM667 563v84h147v61h-371v-61h144v-84h80zM750 281h131v69h-131v199h-83v-491h83v223z" />
</svg>
