<?xml version="1.0" standalone="no"?>
<!DOCTYPE svg PUBLIC "-//W3C//DTD SVG 1.1//EN" "http://www.w3.org/Graphics/SVG/1.1/DTD/svg11.dtd" >
<svg xmlns="http://www.w3.org/2000/svg" xmlns:xlink="http://www.w3.org/1999/xlink" version="1.1" viewBox="-10 0 930 1000">
   <path fill="currentColor"
d="M613 443l5 58c-191 36 -407 39 -563 39l-8 -66c70 0 153 0 240 -3v-107h-173v-267h417v65h-333v136h339v66h-167v103c82 -4 166 -11 243 -24zM772 733h-253c22 78 148 141 293 156l-26 62c-138 -16 -259 -70 -313 -151c-53 81 -175 135 -313 151l-27 -62
c145 -15 272 -78 294 -156h-253v-62h258v-87h82v87h258v62zM751 296h129v68h-129v235h-82v-541h82v238z" />
</svg>
