<?xml version="1.0" standalone="no"?>
<!DOCTYPE svg PUBLIC "-//W3C//DTD SVG 1.1//EN" "http://www.w3.org/Graphics/SVG/1.1/DTD/svg11.dtd" >
<svg xmlns="http://www.w3.org/2000/svg" xmlns:xlink="http://www.w3.org/1999/xlink" version="1.1" viewBox="-10 0 930 1000">
   <path fill="currentColor"
d="M640 349v193h-78v-470h78v209h98v-223h79v486h-79v-195h-98zM520 435l7 61c-145 21 -336 28 -466 28l-11 -70c60 0 134 -1 209 -3v-95h-151v-259h365v64h-283v130h289v65h-140v92c65 -2 127 -7 181 -13zM242 800v89c79 0 153 -3 247 -17l6 61c-110 16 -193 17 -282 17
h-49v-207h229v-85h-232v-61h310v203h-229zM597 887h239v61h-318v-351h307v61h-228v84h218v56h-218v89z" />
</svg>
