<?xml version="1.0" standalone="no"?>
<!DOCTYPE svg PUBLIC "-//W3C//DTD SVG 1.1//EN" "http://www.w3.org/Graphics/SVG/1.1/DTD/svg11.dtd" >
<svg xmlns="http://www.w3.org/2000/svg" xmlns:xlink="http://www.w3.org/1999/xlink" version="1.1" viewBox="-10 0 930 1000">
   <path fill="currentColor"
d="M781 58v517h-82v-517h82zM629 461l5 60c-186 24 -399 33 -570 34l-13 -70c78 0 164 -1 250 -4v-99h-175v-281h431v65h-347v151h356v65h-181v96c83 -4 167 -9 244 -17zM235 635v237c55 -2 128 -10 193 -32l14 67c-89 28 -176 33 -243 33h-45v-305h81zM632 912
c54 0 93 -19 93 -50c0 -30 -39 -49 -93 -49c-55 0 -93 19 -93 49c0 31 38 50 93 50zM632 759c96 0 166 40 166 103s-70 104 -166 104s-166 -41 -166 -104s70 -103 166 -103zM672 660h180v62h-440v-62h180v-81h80v81z" />
</svg>
