<?xml version="1.0" standalone="no"?>
<!DOCTYPE svg PUBLIC "-//W3C//DTD SVG 1.1//EN" "http://www.w3.org/Graphics/SVG/1.1/DTD/svg11.dtd" >
<svg xmlns="http://www.w3.org/2000/svg" xmlns:xlink="http://www.w3.org/1999/xlink" version="1.1" viewBox="-10 0 930 1000">
   <path fill="currentColor"
d="M781 58v515h-82v-515h82zM630 457l7 61c-186 24 -400 34 -571 35l-14 -70c78 0 164 -2 251 -5v-100h-173v-278h423v66h-341v145h348v67h-173v96c84 -4 166 -9 243 -17zM394 883v-105h-162v105h162zM712 610v54c0 86 55 180 156 228l-45 65c-72 -33 -123 -91 -151 -159
c-29 69 -82 126 -157 157l-44 -61v53h-316v-333h77v103h162v-103h77v275c103 -43 160 -134 160 -222v-57h81z" />
</svg>
