<?xml version="1.0" standalone="no"?>
<!DOCTYPE svg PUBLIC "-//W3C//DTD SVG 1.1//EN" "http://www.w3.org/Graphics/SVG/1.1/DTD/svg11.dtd" >
<svg xmlns="http://www.w3.org/2000/svg" xmlns:xlink="http://www.w3.org/1999/xlink" version="1.1" viewBox="-10 0 930 1000">
   <path fill="currentColor"
d="M789 58v541h-82v-541h82zM636 466l6 58c-196 35 -413 38 -573 39l-10 -66c74 0 162 0 252 -4v-100h-174v-286h433v67h-351v153h357v66h-183v96c83 -4 165 -11 243 -23zM686 623v37c0 93 65 188 180 228l-42 60c-85 -32 -145 -92 -177 -164c-27 75 -79 140 -162 176
c-84 -35 -135 -99 -162 -174c-32 72 -92 130 -175 162l-43 -60c115 -40 179 -135 179 -228v-37h79v37c0 82 39 167 121 217c82 -51 122 -136 122 -217v-37h80z" />
</svg>
