<?xml version="1.0" standalone="no"?>
<!DOCTYPE svg PUBLIC "-//W3C//DTD SVG 1.1//EN" "http://www.w3.org/Graphics/SVG/1.1/DTD/svg11.dtd" >
<svg xmlns="http://www.w3.org/2000/svg" xmlns:xlink="http://www.w3.org/1999/xlink" version="1.1" viewBox="-10 0 930 1000">
   <path fill="currentColor"
d="M789 57v573h-82v-573h82zM635 482l5 59c-190 32 -409 38 -572 38l-11 -67c76 0 165 -1 255 -5v-106h-175v-292h427v67h-346v159h353v66h-177v102c83 -4 164 -10 241 -21zM495 891c137 0 217 -32 217 -90c0 -57 -80 -90 -217 -90s-217 33 -217 90c0 58 80 90 217 90z
M495 650c189 0 301 53 301 151s-112 152 -301 152c-190 0 -301 -54 -301 -152s111 -151 301 -151z" />
</svg>
