<?xml version="1.0" standalone="no"?>
<!DOCTYPE svg PUBLIC "-//W3C//DTD SVG 1.1//EN" "http://www.w3.org/Graphics/SVG/1.1/DTD/svg11.dtd" >
<svg xmlns="http://www.w3.org/2000/svg" xmlns:xlink="http://www.w3.org/1999/xlink" version="1.1" viewBox="-10 0 930 1000">
   <path fill="currentColor"
d="M124 704v-68h300v322h-81v-254h-219zM670 630v50c0 95 50 184 154 219l-45 64c-75 -30 -124 -83 -150 -149c-29 65 -82 122 -159 153l-44 -63c107 -41 162 -133 162 -216v-58h82zM352 381v118h198v-118h-198zM634 499h224v66h-812v-66h223v-118h-121v-295h608v66h-524
v163h530v66h-128v118z" />
</svg>
