<?xml version="1.0" standalone="no"?>
<!DOCTYPE svg PUBLIC "-//W3C//DTD SVG 1.1//EN" "http://www.w3.org/Graphics/SVG/1.1/DTD/svg11.dtd" >
<svg xmlns="http://www.w3.org/2000/svg" xmlns:xlink="http://www.w3.org/1999/xlink" version="1.1" viewBox="-10 0 930 1000">
   <path fill="currentColor"
d="M770 328v66h-615v-296h609v66h-527v164h533zM682 791c0 -62 -83 -98 -223 -98c-142 0 -225 36 -225 98c0 63 83 99 225 99c140 0 223 -36 223 -99zM865 544h-365v86c166 8 265 66 265 161c0 105 -116 162 -306 162c-192 0 -308 -57 -308 -162c0 -95 99 -153 267 -161v-86
h-365v-67h812v67z" />
</svg>
