<?xml version="1.0" standalone="no"?>
<!DOCTYPE svg PUBLIC "-//W3C//DTD SVG 1.1//EN" "http://www.w3.org/Graphics/SVG/1.1/DTD/svg11.dtd" >
<svg xmlns="http://www.w3.org/2000/svg" xmlns:xlink="http://www.w3.org/1999/xlink" version="1.1" viewBox="-10 0 930 1000">
   <path fill="currentColor"
d="M555 277v62h-425v-247h416v63h-333v122h342zM287 585v-120c-81 2 -159 4 -230 4l-12 -69c177 0 390 -3 578 -19l7 60c-84 9 -173 16 -260 20v124h-83zM239 808v82c111 0 187 -2 280 -19l7 61c-104 17 -185 18 -314 18h-53v-198h222v-75h-225v-60h306v191h-223zM498 679
v-62h287v337h-84v-275h-203zM703 57h82v529h-82v-41h-187v-54h187v-434z" />
</svg>
