<?xml version="1.0" standalone="no"?>
<!DOCTYPE svg PUBLIC "-//W3C//DTD SVG 1.1//EN" "http://www.w3.org/Graphics/SVG/1.1/DTD/svg11.dtd" >
<svg xmlns="http://www.w3.org/2000/svg" xmlns:xlink="http://www.w3.org/1999/xlink" version="1.1" viewBox="-10 0 930 1000">
   <path fill="currentColor"
d="M516 506h187v-448h82v552h-82v-46h-187v-58zM555 284v64h-425v-252h416v65h-333v123h342zM287 608v-129c-81 2 -159 4 -230 4l-12 -70c177 -1 391 -4 578 -20l7 61c-84 10 -173 17 -260 21v133h-83zM392 884v-91h-164v91h164zM711 638v32c0 85 57 178 158 220l-45 64
c-73 -31 -124 -86 -153 -153c-29 68 -83 125 -158 155l-44 -61v54h-319v-307h78v88h164v-88h77v248c103 -42 161 -131 161 -217v-35h81z" />
</svg>
