<?xml version="1.0" standalone="no"?>
<!DOCTYPE svg PUBLIC "-//W3C//DTD SVG 1.1//EN" "http://www.w3.org/Graphics/SVG/1.1/DTD/svg11.dtd" >
<svg xmlns="http://www.w3.org/2000/svg" xmlns:xlink="http://www.w3.org/1999/xlink" version="1.1" viewBox="-10 0 930 1000">
   <path fill="currentColor"
d="M817 57v685h-78v-685h78zM423 571h153v-498h77v651h-77v-93h-153v-60zM478 327v65h-366v-278h358v65h-277v148h285zM264 661v-130c-75 3 -147 5 -208 5l-8 -71c137 0 338 -6 482 -21l6 63c-60 7 -126 14 -194 19v135h-78zM294 861h551v67h-635v-218h84v151z" />
</svg>
