<?xml version="1.0" standalone="no"?>
<!DOCTYPE svg PUBLIC "-//W3C//DTD SVG 1.1//EN" "http://www.w3.org/Graphics/SVG/1.1/DTD/svg11.dtd" >
<svg xmlns="http://www.w3.org/2000/svg" xmlns:xlink="http://www.w3.org/1999/xlink" version="1.1" viewBox="-10 0 930 1000">
   <path fill="currentColor"
d="M817 58v530h-78v-530h78zM417 490h159v-418h78v515h-78v-43h-159v-54zM473 261v62h-362v-229h357v63h-275v104h280zM253 584v-131c-68 4 -133 6 -188 6l-9 -66c131 -1 330 -7 467 -22l7 57c-60 8 -129 15 -199 20v136h-78zM294 884h550v61h-634v-196h524v-71h-527v-61
h611v188h-524v79z" />
</svg>
