<?xml version="1.0" standalone="no"?>
<!DOCTYPE svg PUBLIC "-//W3C//DTD SVG 1.1//EN" "http://www.w3.org/Graphics/SVG/1.1/DTD/svg11.dtd" >
<svg xmlns="http://www.w3.org/2000/svg" xmlns:xlink="http://www.w3.org/1999/xlink" version="1.1" viewBox="-10 0 930 1000">
   <path fill="currentColor"
d="M817 58v530h-78v-530h78zM417 490h159v-418h78v517h-78v-45h-159v-54zM474 261v62h-363v-229h358v63h-276v104h281zM253 584v-131c-68 4 -133 6 -188 6l-9 -66c131 -1 330 -7 467 -22l7 57c-59 8 -129 15 -199 20v136h-78zM241 807v81c98 0 159 -3 236 -17l7 61
c-87 17 -156 18 -274 18h-48v-198h224v-70h-226v-61h305v186h-224zM638 682v204h68v-204h-68zM771 886h68v64h-331v-64h65v-204h-62v-61h319v61h-59v204z" />
</svg>
