<?xml version="1.0" standalone="no"?>
<!DOCTYPE svg PUBLIC "-//W3C//DTD SVG 1.1//EN" "http://www.w3.org/Graphics/SVG/1.1/DTD/svg11.dtd" >
<svg xmlns="http://www.w3.org/2000/svg" xmlns:xlink="http://www.w3.org/1999/xlink" version="1.1" viewBox="-10 0 930 1000">
   <path fill="currentColor"
d="M808 57v571h-79v-571h79zM400 500h162v-429h78v536h-78v-48h-162v-59zM478 274v63h-359v-236h358v62h-279v111h280zM243 621v-155c-70 3 -136 3 -189 3l-10 -64c125 0 325 -2 472 -24l7 56c-64 12 -133 20 -202 24v160h-78zM816 752h-263c29 71 156 126 299 138l-25 61
c-141 -13 -267 -64 -321 -142c-54 78 -181 129 -322 142l-26 -61c144 -12 271 -67 300 -138h-260v-62h267v-74h82v74h269v62z" />
</svg>
