<?xml version="1.0" standalone="no"?>
<!DOCTYPE svg PUBLIC "-//W3C//DTD SVG 1.1//EN" "http://www.w3.org/Graphics/SVG/1.1/DTD/svg11.dtd" >
<svg xmlns="http://www.w3.org/2000/svg" xmlns:xlink="http://www.w3.org/1999/xlink" version="1.1" viewBox="-10 0 930 1000">
   <path fill="currentColor"
d="M559 284v63h-430v-250h424v62h-340v125h346zM243 797v91c109 0 184 -3 276 -19l7 62c-103 18 -183 19 -310 19h-54v-210h220v-82h-222v-62h151v-99c-85 2 -167 3 -241 3l-11 -70c173 0 389 0 578 -18l6 61c-81 10 -167 16 -250 20v103h70v201h-220zM499 660v-64h282v358
h-83v-294h-199zM699 57h82v492h-82v-492z" />
</svg>
