<?xml version="1.0" standalone="no"?>
<!DOCTYPE svg PUBLIC "-//W3C//DTD SVG 1.1//EN" "http://www.w3.org/Graphics/SVG/1.1/DTD/svg11.dtd" >
<svg xmlns="http://www.w3.org/2000/svg" xmlns:xlink="http://www.w3.org/1999/xlink" version="1.1" viewBox="-10 0 930 1000">
   <path fill="currentColor"
d="M781 57v490h-82v-490h82zM559 284v63h-430v-250h424v62h-340v125h346zM230 796v94c106 0 161 -3 228 -16l8 60c-78 15 -139 16 -271 16h-47v-209h209v-84h-212v-62h166v-97c-85 2 -167 3 -241 3l-11 -69c173 0 389 -1 578 -19l6 61c-81 10 -166 16 -250 20v101h47v201
h-210zM711 895v-240h-146v240h146zM494 595h288v360h-288v-360z" />
</svg>
