<?xml version="1.0" standalone="no"?>
<!DOCTYPE svg PUBLIC "-//W3C//DTD SVG 1.1//EN" "http://www.w3.org/Graphics/SVG/1.1/DTD/svg11.dtd" >
<svg xmlns="http://www.w3.org/2000/svg" xmlns:xlink="http://www.w3.org/1999/xlink" version="1.1" viewBox="-10 0 930 1000">
   <path fill="currentColor"
d="M559 284v63h-430v-250h424v62h-340v125h346zM223 796v93c111 0 165 -2 230 -16l10 60c-76 15 -136 17 -273 17h-48v-209h211v-83h-213v-62h171v-99c-85 2 -167 3 -241 3l-11 -70c173 0 389 0 578 -18l7 61c-82 10 -167 16 -251 20v103h41v200h-211zM706 892v-120h-140
v120h140zM706 711v-115h75v357h-291v-357h76v115h140zM699 57h82v490h-82v-490z" />
</svg>
