<?xml version="1.0" standalone="no"?>
<!DOCTYPE svg PUBLIC "-//W3C//DTD SVG 1.1//EN" "http://www.w3.org/Graphics/SVG/1.1/DTD/svg11.dtd" >
<svg xmlns="http://www.w3.org/2000/svg" xmlns:xlink="http://www.w3.org/1999/xlink" version="1.1" viewBox="-10 0 930 1000">
   <path fill="currentColor"
d="M781 58v525h-82v-525h82zM556 297v66h-426v-263h416v66h-334v131h344zM302 631v-125c-83 3 -164 5 -237 5l-13 -71c178 0 395 -3 585 -21l6 62c-82 11 -170 17 -256 21v129h-85zM394 884v-103h-162v103h162zM712 615v49c0 87 55 182 157 227l-45 64
c-73 -32 -123 -89 -152 -157c-28 69 -82 126 -157 157l-44 -61v53h-316v-328h77v101h162v-101h77v270c103 -43 160 -134 160 -222v-52h81z" />
</svg>
