<?xml version="1.0" standalone="no"?>
<!DOCTYPE svg PUBLIC "-//W3C//DTD SVG 1.1//EN" "http://www.w3.org/Graphics/SVG/1.1/DTD/svg11.dtd" >
<svg xmlns="http://www.w3.org/2000/svg" xmlns:xlink="http://www.w3.org/1999/xlink" version="1.1" viewBox="-10 0 930 1000">
   <path fill="currentColor"
d="M781 57v549h-82v-549h82zM569 317v67h-433v-283h429v66h-348v150h352zM403 709v173h182v-173h-182zM667 882h143v62h-635v-62h147v-173h-141v-63h125v-116c-84 4 -165 5 -238 5l-12 -69c174 0 393 -2 584 -21l5 60c-85 11 -172 17 -258 22v119h413v63h-133v173z" />
</svg>
