<?xml version="1.0" standalone="no"?>
<!DOCTYPE svg PUBLIC "-//W3C//DTD SVG 1.1//EN" "http://www.w3.org/Graphics/SVG/1.1/DTD/svg11.dtd" >
<svg xmlns="http://www.w3.org/2000/svg" xmlns:xlink="http://www.w3.org/1999/xlink" version="1.1" viewBox="-10 0 930 1000">
   <path fill="currentColor"
d="M762 314v67h-614v-295h606v66h-522v162h530zM858 539h-222v111h40v27c0 90 54 180 158 219l-44 63c-76 -31 -127 -87 -155 -154c-30 68 -84 126 -161 157l-46 -62c107 -39 165 -133 166 -218h-42v-143h-201v119h73v298h-81v-231h-214v-67h139v-119h-222v-65h812v65z" />
</svg>
