<?xml version="1.0" standalone="no"?>
<!DOCTYPE svg PUBLIC "-//W3C//DTD SVG 1.1//EN" "http://www.w3.org/Graphics/SVG/1.1/DTD/svg11.dtd" >
<svg xmlns="http://www.w3.org/2000/svg" xmlns:xlink="http://www.w3.org/1999/xlink" version="1.1" viewBox="-10 0 930 1000">
   <path fill="currentColor"
d="M763 290v65h-615v-275h608v66h-524v144h531zM678 573v84c0 98 48 193 152 237l-47 61c-72 -34 -119 -91 -145 -160c-27 73 -78 133 -154 167l-42 -56l4 26c-81 17 -144 18 -271 18h-48v-219h218v-88h-221v-63h301v210h-219v96c103 0 160 -2 230 -17l5 31
c105 -46 156 -142 156 -244v-83h81zM46 435h812v66h-812v-66z" />
</svg>
