<?xml version="1.0" standalone="no"?>
<!DOCTYPE svg PUBLIC "-//W3C//DTD SVG 1.1//EN" "http://www.w3.org/Graphics/SVG/1.1/DTD/svg11.dtd" >
<svg xmlns="http://www.w3.org/2000/svg" xmlns:xlink="http://www.w3.org/1999/xlink" version="1.1" viewBox="-10 0 930 1000">
   <path fill="currentColor"
d="M781 58v551h-81v-551h81zM566 331v66h-440v-292h431v66h-347v160h356zM631 475l7 63c-189 25 -402 31 -568 31l-12 -72c171 -1 386 -4 573 -22zM682 644v36c0 93 68 185 185 222l-42 61c-86 -30 -149 -89 -182 -161c-26 75 -78 141 -162 174c-84 -33 -136 -99 -163 -173
c-33 71 -94 130 -180 160l-42 -61c117 -37 184 -129 184 -222v-36h79v36c0 80 40 165 121 215c82 -50 122 -135 122 -215v-36h80z" />
</svg>
