<?xml version="1.0" standalone="no"?>
<!DOCTYPE svg PUBLIC "-//W3C//DTD SVG 1.1//EN" "http://www.w3.org/Graphics/SVG/1.1/DTD/svg11.dtd" >
<svg xmlns="http://www.w3.org/2000/svg" xmlns:xlink="http://www.w3.org/1999/xlink" version="1.1" viewBox="-10 0 930 1000">
   <path fill="currentColor"
d="M789 57v573h-82v-573h82zM571 336v66h-434v-292h427v67h-346v159h353zM635 474l5 61c-192 32 -410 38 -575 38l-11 -68c169 0 393 -4 581 -31zM495 891c137 0 217 -32 217 -90c0 -57 -80 -90 -217 -90s-217 33 -217 90c0 58 80 90 217 90zM495 650c189 0 301 53 301 151
s-112 152 -301 152s-301 -54 -301 -152s112 -151 301 -151z" />
</svg>
