<?xml version="1.0" standalone="no"?>
<!DOCTYPE svg PUBLIC "-//W3C//DTD SVG 1.1//EN" "http://www.w3.org/Graphics/SVG/1.1/DTD/svg11.dtd" >
<svg xmlns="http://www.w3.org/2000/svg" xmlns:xlink="http://www.w3.org/1999/xlink" version="1.1" viewBox="-10 0 930 1000">
   <path fill="currentColor"
d="M629 469l9 68c-78 18 -139 19 -232 19h-43v-414h236v66h-158v280c71 -1 125 -4 188 -19zM325 472l8 68c-83 18 -152 18 -208 18h-39v-416h223v66h-145v283c45 -2 100 -6 161 -19zM274 655v212h527v67h-609v-279h82zM766 325h117v68h-117v318h-82v-654h82v268z" />
</svg>
