<?xml version="1.0" standalone="no"?>
<!DOCTYPE svg PUBLIC "-//W3C//DTD SVG 1.1//EN" "http://www.w3.org/Graphics/SVG/1.1/DTD/svg11.dtd" >
<svg xmlns="http://www.w3.org/2000/svg" xmlns:xlink="http://www.w3.org/1999/xlink" version="1.1" viewBox="-10 0 930 1000">
   <path fill="currentColor"
d="M622 385l10 65c-87 19 -154 21 -240 21h-43v-359h237v67h-157v226c66 -1 125 -5 193 -20zM316 385l10 65c-77 18 -139 19 -212 19h-40v-357h228v67h-155v224c56 -1 110 -4 169 -18zM215 786v100c110 0 184 -3 277 -19l7 64c-103 18 -184 19 -312 19h-54v-224h217v-87
h-219v-65h301v212h-217zM471 640v-66h285v380h-84v-314h-201zM878 255v69h-122v207h-80v-473h80v197h122z" />
</svg>
