<?xml version="1.0" standalone="no"?>
<!DOCTYPE svg PUBLIC "-//W3C//DTD SVG 1.1//EN" "http://www.w3.org/Graphics/SVG/1.1/DTD/svg11.dtd" >
<svg xmlns="http://www.w3.org/2000/svg" xmlns:xlink="http://www.w3.org/1999/xlink" version="1.1" viewBox="-10 0 930 1000">
   <path fill="currentColor"
d="M631 417l8 68c-78 18 -140 19 -233 19h-43v-386h236v66h-158v252c71 -1 126 -4 190 -19zM329 419l9 68c-86 18 -155 20 -212 20h-40v-389h223v66h-145v255c47 -2 104 -6 165 -20zM684 875v-114h-418v114h418zM684 695v-113h81v360h-580v-360h81v113h418zM882 265v68h-117
v210h-82v-486h82v208h117z" />
</svg>
