<?xml version="1.0" standalone="no"?>
<!DOCTYPE svg PUBLIC "-//W3C//DTD SVG 1.1//EN" "http://www.w3.org/Graphics/SVG/1.1/DTD/svg11.dtd" >
<svg xmlns="http://www.w3.org/2000/svg" xmlns:xlink="http://www.w3.org/1999/xlink" version="1.1" viewBox="-10 0 930 1000">
   <path fill="currentColor"
d="M626 356v225h-74v-507h74v215h115v-231h75v530h-75v-232h-115zM511 437l8 67c-66 18 -121 18 -181 18h-36v-396h196v67h-121v261c43 -1 87 -4 134 -17zM273 441l9 68c-70 15 -123 15 -175 15h-35v-398h189v67h-115v263c38 -1 80 -5 127 -15zM156 681v-67h305v343h-82
v-276h-223zM718 602v60c0 98 53 193 160 233l-45 65c-78 -30 -128 -88 -156 -158c-30 70 -86 129 -164 160l-47 -62c112 -42 171 -138 171 -230v-68h81z" />
</svg>
