<?xml version="1.0" standalone="no"?>
<!DOCTYPE svg PUBLIC "-//W3C//DTD SVG 1.1//EN" "http://www.w3.org/Graphics/SVG/1.1/DTD/svg11.dtd" >
<svg xmlns="http://www.w3.org/2000/svg" xmlns:xlink="http://www.w3.org/1999/xlink" version="1.1" viewBox="-10 0 930 1000">
   <path fill="currentColor"
d="M626 356v231h-74v-513h74v215h115v-231h75v532h-75v-234h-115zM511 437l8 67c-66 18 -121 18 -181 18h-36v-396h196v67h-121v261c43 -1 87 -4 134 -17zM273 441l9 68c-70 15 -123 15 -175 15h-35v-398h189v67h-115v263c38 -1 80 -5 127 -15zM284 876h544v68h-627v-316
h621v68h-538v180z" />
</svg>
