<?xml version="1.0" standalone="no"?>
<!DOCTYPE svg PUBLIC "-//W3C//DTD SVG 1.1//EN" "http://www.w3.org/Graphics/SVG/1.1/DTD/svg11.dtd" >
<svg xmlns="http://www.w3.org/2000/svg" xmlns:xlink="http://www.w3.org/1999/xlink" version="1.1" viewBox="-10 0 930 1000">
   <path fill="currentColor"
d="M644 325v189h-76v-439h76v183h101v-200h77v463h-77v-196h-101zM522 398l9 66c-76 17 -133 17 -182 17h-36v-370h195v65h-120v239c38 -1 83 -5 134 -17zM277 399l8 65c-73 17 -131 17 -170 17h-34v-370h187v65h-112v239c34 -1 76 -5 121 -16zM300 877h556v65h-637v-223
h523v-89h-525v-64h605v214h-522v97z" />
</svg>
