<?xml version="1.0" standalone="no"?>
<!DOCTYPE svg PUBLIC "-//W3C//DTD SVG 1.1//EN" "http://www.w3.org/Graphics/SVG/1.1/DTD/svg11.dtd" >
<svg xmlns="http://www.w3.org/2000/svg" xmlns:xlink="http://www.w3.org/1999/xlink" version="1.1" viewBox="-10 0 930 1000">
   <path fill="currentColor"
d="M637 324v205h-74v-455h74v182h104v-198h75v475h-75v-209h-104zM514 397l9 68c-67 17 -121 18 -182 18h-36v-374h196v66h-121v239c43 -1 87 -5 134 -17zM276 400l9 69c-70 16 -123 16 -174 16h-36v-376h189v66h-114v240c37 -2 79 -5 126 -15zM714 568v90
c0 99 48 191 152 235l-45 62c-73 -32 -120 -89 -147 -158c-27 73 -77 131 -153 164l-41 -54l4 26c-81 16 -144 17 -271 17h-48v-222h220v-89h-223v-64h302v213h-220v98c104 0 161 -2 232 -17l3 29c103 -45 154 -138 154 -241v-89h81z" />
</svg>
