<?xml version="1.0" standalone="no"?>
<!DOCTYPE svg PUBLIC "-//W3C//DTD SVG 1.1//EN" "http://www.w3.org/Graphics/SVG/1.1/DTD/svg11.dtd" >
<svg xmlns="http://www.w3.org/2000/svg" xmlns:xlink="http://www.w3.org/1999/xlink" version="1.1" viewBox="-10 0 930 1000">
   <path fill="currentColor"
d="M637 324v205h-74v-455h74v182h104v-198h75v475h-75v-209h-104zM514 397l9 68c-67 17 -121 18 -182 18h-36v-374h196v66h-121v239c43 -1 87 -5 134 -17zM276 400l9 69c-70 16 -123 16 -174 16h-36v-376h189v66h-114v240c37 -2 79 -5 126 -15zM242 785v100
c95 -1 156 -4 233 -17l7 64c-86 17 -155 18 -272 18h-49v-221h222v-87h-224v-66h305v209h-222zM637 641v242h72v-242h-72zM774 883h68v67h-338v-67h68v-242h-64v-65h330v65h-64v242z" />
</svg>
