<?xml version="1.0" standalone="no"?>
<!DOCTYPE svg PUBLIC "-//W3C//DTD SVG 1.1//EN" "http://www.w3.org/Graphics/SVG/1.1/DTD/svg11.dtd" >
<svg xmlns="http://www.w3.org/2000/svg" xmlns:xlink="http://www.w3.org/1999/xlink" version="1.1" viewBox="-10 0 930 1000">
   <path fill="currentColor"
d="M644 365v225h-76v-515h76v223h101v-240h77v607h-77v-300h-101zM522 454l9 67c-75 18 -133 18 -182 18h-36v-406h195v67h-120v271c38 -1 83 -5 134 -17zM277 455l8 67c-73 17 -131 17 -169 17h-35v-406h187v67h-112v271c34 -1 75 -5 121 -16zM556 617v34
c0 116 146 212 304 236l-30 63c-135 -22 -260 -89 -315 -187c-56 98 -181 165 -315 187l-31 -63c158 -24 304 -120 304 -236v-34h83z" />
</svg>
