<?xml version="1.0" standalone="no"?>
<!DOCTYPE svg PUBLIC "-//W3C//DTD SVG 1.1//EN" "http://www.w3.org/Graphics/SVG/1.1/DTD/svg11.dtd" >
<svg xmlns="http://www.w3.org/2000/svg" xmlns:xlink="http://www.w3.org/1999/xlink" version="1.1" viewBox="-10 0 930 1000">
   <path fill="currentColor"
d="M622 430l10 64c-86 18 -154 21 -240 21h-43v-396h237v68h-157v263c66 -1 125 -6 193 -20zM316 429l10 65c-77 17 -139 19 -212 19h-40v-394h227v68h-154v260c56 -1 110 -4 169 -18zM651 681v10c0 84 64 163 167 199l-41 61c-81 -27 -138 -83 -167 -150
c-31 69 -91 127 -175 156l-39 -58c-78 28 -170 34 -221 34h-48v-315h79v235c54 -3 143 -14 200 -43l20 71c91 -41 142 -118 142 -195v-5h-149v-67h378v67h-146zM878 261h-122v129h122v69h-122v124h-81v-525h81v134h122v69z" />
</svg>
