<?xml version="1.0" standalone="no"?>
<!DOCTYPE svg PUBLIC "-//W3C//DTD SVG 1.1//EN" "http://www.w3.org/Graphics/SVG/1.1/DTD/svg11.dtd" >
<svg xmlns="http://www.w3.org/2000/svg" xmlns:xlink="http://www.w3.org/1999/xlink" version="1.1" viewBox="-10 0 930 1000">
   <path fill="currentColor"
d="M621 403l10 65c-86 19 -154 21 -239 21h-43v-376h237v67h-157v243c65 -1 124 -5 192 -20zM315 403l11 65c-77 17 -139 19 -213 19h-40v-374h228v67h-154v241c56 -1 109 -4 168 -18zM373 882v-120h-156v120h156zM373 701v-107h77v353h-310v-353h77v107h156zM694 591v70
c0 86 51 182 154 229l-45 64c-72 -33 -121 -91 -148 -158c-29 68 -81 126 -157 158l-45 -65c106 -44 161 -140 161 -225v-73h80zM878 250h-122v113h122v69h-122v114h-81v-488h81v123h122v69z" />
</svg>
