<?xml version="1.0" standalone="no"?>
<!DOCTYPE svg PUBLIC "-//W3C//DTD SVG 1.1//EN" "http://www.w3.org/Graphics/SVG/1.1/DTD/svg11.dtd" >
<svg xmlns="http://www.w3.org/2000/svg" xmlns:xlink="http://www.w3.org/1999/xlink" version="1.1" viewBox="-10 0 930 1000">
   <path fill="currentColor"
d="M145 237v417c35 -1 78 -5 125 -17l9 71c-72 17 -130 17 -173 17h-36v-555h189v67h-114zM375 237v414c40 -1 91 -6 143 -19l9 70c-76 19 -141 21 -190 21h-37v-553h201v67h-126zM634 537h111v-193h-111v193zM745 58h77v899h-77v-349h-111v300h-75v-832h75v198h111v-216z
" />
</svg>
