<?xml version="1.0" standalone="no"?>
<!DOCTYPE svg PUBLIC "-//W3C//DTD SVG 1.1//EN" "http://www.w3.org/Graphics/SVG/1.1/DTD/svg11.dtd" >
<svg xmlns="http://www.w3.org/2000/svg" xmlns:xlink="http://www.w3.org/1999/xlink" version="1.1" viewBox="-10 0 930 1000">
   <path fill="currentColor"
d="M742 236h-105v111h105v-111zM637 414v113h-74v-453h74v95h105v-111h74v473h-74v-117h-105zM514 397l8 69c-66 16 -120 17 -180 17h-37v-374h196v66h-121v239c42 -1 87 -4 134 -17zM276 400l9 70c-70 15 -123 15 -174 15h-36v-376h189v66h-114v240c37 -2 79 -5 126 -15z
M714 568v90c0 99 48 191 152 235l-45 62c-73 -32 -120 -89 -147 -158c-27 73 -77 131 -153 164l-41 -54l4 26c-81 16 -144 17 -271 17h-48v-222h220v-89h-223v-64h302v213h-220v98c104 0 161 -2 231 -17l4 29c103 -45 154 -138 154 -241v-89h81z" />
</svg>
