<?xml version="1.0" standalone="no"?>
<!DOCTYPE svg PUBLIC "-//W3C//DTD SVG 1.1//EN" "http://www.w3.org/Graphics/SVG/1.1/DTD/svg11.dtd" >
<svg xmlns="http://www.w3.org/2000/svg" xmlns:xlink="http://www.w3.org/1999/xlink" version="1.1" viewBox="-10 0 930 1000">
   <path fill="currentColor"
d="M742 236h-105v111h105v-111zM637 414v113h-74v-453h74v95h105v-111h74v473h-74v-117h-105zM513 397l9 69c-66 16 -120 17 -180 17h-37v-374h196v66h-121v239c42 -1 86 -4 133 -17zM276 400l9 70c-70 15 -123 15 -174 15h-36v-376h189v66h-114v240c37 -2 79 -5 126 -15z
M233 791v96c97 0 167 -2 253 -16l5 63c-96 15 -170 16 -284 16h-50v-218h235v-94h-237v-62h313v215h-235zM592 885h246v63h-325v-373h312v63h-233v92h224v59h-224v96z" />
</svg>
