<?xml version="1.0" standalone="no"?>
<!DOCTYPE svg PUBLIC "-//W3C//DTD SVG 1.1//EN" "http://www.w3.org/Graphics/SVG/1.1/DTD/svg11.dtd" >
<svg xmlns="http://www.w3.org/2000/svg" xmlns:xlink="http://www.w3.org/1999/xlink" version="1.1" viewBox="-10 0 930 1000">
   <path fill="currentColor"
d="M742 245h-105v115h105v-115zM637 429v112h-74v-467h74v102h105v-118h74v491h-74v-120h-105zM513 412l9 68c-66 17 -120 18 -180 18h-37v-383h196v66h-121v248c42 -1 86 -5 133 -17zM276 416l9 69c-70 14 -123 14 -174 14h-36v-384h189v66h-114v249c37 -1 79 -4 126 -14z
M405 879v-117h-162v117h162zM726 588v71c0 89 57 185 158 231l-44 65c-75 -34 -126 -93 -154 -163c-29 71 -83 130 -159 163l-45 -61v50h-316v-353h77v109h162v-109h77v299c105 -46 163 -141 163 -228v-74h81z" />
</svg>
