<?xml version="1.0" standalone="no"?>
<!DOCTYPE svg PUBLIC "-//W3C//DTD SVG 1.1//EN" "http://www.w3.org/Graphics/SVG/1.1/DTD/svg11.dtd" >
<svg xmlns="http://www.w3.org/2000/svg" xmlns:xlink="http://www.w3.org/1999/xlink" version="1.1" viewBox="-10 0 930 1000">
   <path fill="currentColor"
d="M742 256h-118v127h118v-127zM624 452v123h-73v-501h73v113h118v-130h74v526h-74v-131h-118zM510 437l9 67c-72 18 -129 18 -181 18h-36v-396h196v67h-121v261c40 -2 84 -5 133 -17zM273 441l9 68c-70 15 -123 15 -175 15h-35v-398h189v67h-115v263c38 -1 80 -5 127 -15z
M696 609v53c0 95 64 193 181 234l-45 59c-86 -32 -147 -96 -177 -172c-30 73 -87 141 -167 176c-76 -34 -128 -96 -155 -170c-33 73 -96 136 -181 167l-43 -59c116 -42 185 -140 185 -228v-59h79v52c0 79 37 163 114 213c84 -54 129 -142 129 -214v-52h80z" />
</svg>
