<?xml version="1.0" standalone="no"?>
<!DOCTYPE svg PUBLIC "-//W3C//DTD SVG 1.1//EN" "http://www.w3.org/Graphics/SVG/1.1/DTD/svg11.dtd" >
<svg xmlns="http://www.w3.org/2000/svg" xmlns:xlink="http://www.w3.org/1999/xlink" version="1.1" viewBox="-10 0 930 1000">
   <path fill="currentColor"
d="M742 256h-105v122h105v-122zM637 447v124h-74v-497h74v113h105v-130h74v546h-74v-156h-105zM511 437l8 67c-66 18 -121 18 -181 18h-36v-396h196v67h-121v261c43 -1 87 -4 134 -17zM274 441l8 68c-70 15 -123 15 -175 15h-35v-398h189v67h-115v263c38 -1 81 -5 128 -15z
M506 886c147 0 236 -39 236 -106s-89 -106 -236 -106c-148 0 -237 39 -237 106s89 106 237 106zM506 608c199 0 321 62 321 172s-122 173 -321 173s-322 -63 -322 -173s123 -172 322 -172z" />
</svg>
