<?xml version="1.0" standalone="no"?>
<!DOCTYPE svg PUBLIC "-//W3C//DTD SVG 1.1//EN" "http://www.w3.org/Graphics/SVG/1.1/DTD/svg11.dtd" >
<svg xmlns="http://www.w3.org/2000/svg" xmlns:xlink="http://www.w3.org/1999/xlink" version="1.1" viewBox="-10 0 930 1000">
   <path fill="currentColor"
d="M542 256h167v-198h80v468h-80v-202h-167v-68zM616 417l8 64c-103 17 -182 19 -243 19h-45v-392h247v63h-167v264c53 -1 119 -5 200 -18zM306 417l10 64c-87 17 -153 18 -212 18h-39v-391h224v63h-145v263c46 -1 100 -5 162 -17zM224 786v96c97 0 155 -3 227 -17l8 62
c-82 16 -146 18 -265 18h-48v-218h202v-85h-204v-61h282v205h-202zM643 900c50 0 83 -25 83 -65c0 -41 -33 -66 -83 -66s-83 25 -83 66c0 40 33 65 83 65zM643 711c88 0 153 48 153 124c0 75 -65 122 -153 122s-153 -47 -153 -122c0 -76 65 -124 153 -124zM684 617h149v61
h-374v-61h145v-79h80v79z" />
</svg>
