<?xml version="1.0" standalone="no"?>
<!DOCTYPE svg PUBLIC "-//W3C//DTD SVG 1.1//EN" "http://www.w3.org/Graphics/SVG/1.1/DTD/svg11.dtd" >
<svg xmlns="http://www.w3.org/2000/svg" xmlns:xlink="http://www.w3.org/1999/xlink" version="1.1" viewBox="-10 0 930 1000">
   <path fill="currentColor"
d="M616 448l8 65c-103 17 -182 18 -243 18h-45v-416h247v65h-167v286c53 -1 119 -5 200 -18zM306 448l10 64c-87 17 -153 19 -211 19h-40v-416h224v65h-145v285c46 -1 100 -5 162 -17zM168 691v-66h620v330h-83v-119l-546 26l-10 -66l556 -20v-85h-537zM709 57h79v528h-79
v-240h-167v-69h167v-219z" />
</svg>
