<?xml version="1.0" standalone="no"?>
<!DOCTYPE svg PUBLIC "-//W3C//DTD SVG 1.1//EN" "http://www.w3.org/Graphics/SVG/1.1/DTD/svg11.dtd" >
<svg xmlns="http://www.w3.org/2000/svg" xmlns:xlink="http://www.w3.org/1999/xlink" version="1.1" viewBox="-10 0 930 1000">
   <path fill="currentColor"
d="M155 235v416c32 -1 74 -5 118 -15l7 68c-72 17 -129 17 -165 17h-35v-552h182v66h-107zM378 235v415c44 -2 95 -7 150 -21l8 68c-76 20 -140 21 -195 21h-37v-549h204v66h-130zM583 394v-316h75v829h-75v-446h-131v-67h131zM748 57h78v896h-78v-896z" />
</svg>
