<?xml version="1.0" standalone="no"?>
<!DOCTYPE svg PUBLIC "-//W3C//DTD SVG 1.1//EN" "http://www.w3.org/Graphics/SVG/1.1/DTD/svg11.dtd" >
<svg xmlns="http://www.w3.org/2000/svg" xmlns:xlink="http://www.w3.org/1999/xlink" version="1.1" viewBox="-10 0 930 1000">
   <path fill="currentColor"
d="M816 58v525h-75v-525h75zM462 282h124v-206h73v503h-73v-231h-124v-66zM526 443l8 66c-72 17 -130 18 -199 18h-38v-408h204v63h-130v279c51 -1 101 -4 155 -18zM267 446l9 65c-64 16 -116 16 -168 16h-34v-408h182v63h-108v280c37 -1 77 -5 119 -16zM156 681l-1 -67h306
v343h-82v-276h-223zM718 602v60c0 98 54 193 161 233l-45 65c-78 -30 -130 -88 -158 -158c-29 70 -84 129 -163 160l-47 -62c112 -42 171 -138 171 -230v-68h81z" />
</svg>
