<?xml version="1.0" standalone="no"?>
<!DOCTYPE svg PUBLIC "-//W3C//DTD SVG 1.1//EN" "http://www.w3.org/Graphics/SVG/1.1/DTD/svg11.dtd" >
<svg xmlns="http://www.w3.org/2000/svg" xmlns:xlink="http://www.w3.org/1999/xlink" version="1.1" viewBox="-10 0 930 1000">
   <path fill="currentColor"
d="M822 57v672h-77v-672h77zM463 310h121v-233h76v627h-76v-327h-121v-67zM532 483l9 66c-81 19 -145 20 -199 20h-38v-430h201v67h-126v296c44 -1 95 -5 153 -19zM269 486l7 66c-70 17 -125 17 -161 17h-34v-430h181v67h-106v295c31 -1 70 -5 113 -15zM303 867h546v67h-628
v-284h82v217z" />
</svg>
