<?xml version="1.0" standalone="no"?>
<!DOCTYPE svg PUBLIC "-//W3C//DTD SVG 1.1//EN" "http://www.w3.org/Graphics/SVG/1.1/DTD/svg11.dtd" >
<svg xmlns="http://www.w3.org/2000/svg" xmlns:xlink="http://www.w3.org/1999/xlink" version="1.1" viewBox="-10 0 930 1000">
   <path fill="currentColor"
d="M822 58v474h-78v-474h78zM465 258h120v-181h75v446h-75v-201h-120v-64zM528 404l10 66c-80 18 -144 19 -199 19h-38v-375h206v65h-131v244c44 -1 95 -5 152 -19zM267 407l7 66c-70 17 -125 16 -160 16h-33v-375h181v65h-106v243c31 -1 69 -5 111 -15zM299 879h553v65
h-634v-222h523v-87h-525v-64h606v212h-523v96z" />
</svg>
