<?xml version="1.0" standalone="no"?>
<!DOCTYPE svg PUBLIC "-//W3C//DTD SVG 1.1//EN" "http://www.w3.org/Graphics/SVG/1.1/DTD/svg11.dtd" >
<svg xmlns="http://www.w3.org/2000/svg" xmlns:xlink="http://www.w3.org/1999/xlink" version="1.1" viewBox="-10 0 930 1000">
   <path fill="currentColor"
d="M816 58v470h-74v-470h74zM462 258h124v-181h73v446h-73v-198h-124v-67zM526 406l8 68c-72 17 -130 18 -199 18h-38v-379h204v64h-130v247c51 -1 101 -4 155 -18zM267 408l9 68c-64 16 -116 16 -167 16h-35v-379h182v64h-108v247c37 -1 77 -5 119 -16zM714 568v90
c0 99 48 191 152 235l-45 62c-73 -32 -121 -89 -147 -158c-27 73 -77 131 -153 164l-41 -54l4 26c-81 16 -144 17 -271 17h-48v-222h220v-89h-223v-64h302v213h-220v98c104 0 161 -2 232 -17l3 29c103 -45 154 -138 154 -241v-89h81z" />
</svg>
