<?xml version="1.0" standalone="no"?>
<!DOCTYPE svg PUBLIC "-//W3C//DTD SVG 1.1//EN" "http://www.w3.org/Graphics/SVG/1.1/DTD/svg11.dtd" >
<svg xmlns="http://www.w3.org/2000/svg" xmlns:xlink="http://www.w3.org/1999/xlink" version="1.1" viewBox="-10 0 930 1000">
   <path fill="currentColor"
d="M816 58v476h-74v-476h74zM462 258h124v-181h73v449h-73v-201h-124v-67zM526 406l8 68c-72 17 -130 18 -199 18h-38v-379h204v64h-130v247c51 -1 101 -4 155 -18zM267 408l9 68c-64 16 -116 16 -167 16h-35v-379h182v64h-108v247c37 -1 77 -5 119 -16zM233 791v96
c97 0 167 -2 253 -16l5 63c-96 15 -170 16 -284 16h-50v-218h235v-94h-237v-62h313v215h-235zM592 885h245v63h-324v-373h312v63h-233v92h223v59h-223v96z" />
</svg>
