<?xml version="1.0" standalone="no"?>
<!DOCTYPE svg PUBLIC "-//W3C//DTD SVG 1.1//EN" "http://www.w3.org/Graphics/SVG/1.1/DTD/svg11.dtd" >
<svg xmlns="http://www.w3.org/2000/svg" xmlns:xlink="http://www.w3.org/1999/xlink" version="1.1" viewBox="-10 0 930 1000">
   <path fill="currentColor"
d="M816 58v466h-74v-466h74zM462 258h124v-181h73v443h-73v-195h-124v-67zM526 406l8 68c-72 17 -130 18 -199 18h-38v-379h204v64h-130v247c51 -1 101 -4 155 -18zM267 408l9 68c-64 16 -116 16 -167 16h-35v-379h182v64h-108v247c37 -1 77 -5 119 -16zM226 786v96
c97 0 155 -3 227 -17l7 62c-82 16 -145 18 -265 18h-47v-218h202v-85h-204v-61h282v205h-202zM645 900c50 0 83 -25 83 -65c0 -41 -33 -66 -83 -66s-84 25 -84 66c0 40 34 65 84 65zM645 711c88 0 153 48 153 124c0 75 -65 122 -153 122c-89 0 -154 -47 -154 -122
c0 -76 65 -124 154 -124zM686 617h150v61h-376v-61h146v-74h80v74z" />
</svg>
