<?xml version="1.0" standalone="no"?>
<!DOCTYPE svg PUBLIC "-//W3C//DTD SVG 1.1//EN" "http://www.w3.org/Graphics/SVG/1.1/DTD/svg11.dtd" >
<svg xmlns="http://www.w3.org/2000/svg" xmlns:xlink="http://www.w3.org/1999/xlink" version="1.1" viewBox="-10 0 930 1000">
   <path fill="currentColor"
d="M463 267h121v-190h76v467h-76v-210h-121v-67zM532 422l9 66c-81 18 -145 20 -199 20h-38v-395h201v67h-126v261c44 -2 95 -6 153 -19zM269 425l7 66c-70 17 -125 17 -161 17h-34v-395h181v67h-106v260c31 -1 70 -5 113 -15zM741 875v-115h-438v115h438zM741 696v-107h81
v353h-601v-353h82v107h438zM745 58h77v493h-77v-493z" />
</svg>
