<?xml version="1.0" standalone="no"?>
<!DOCTYPE svg PUBLIC "-//W3C//DTD SVG 1.1//EN" "http://www.w3.org/Graphics/SVG/1.1/DTD/svg11.dtd" >
<svg xmlns="http://www.w3.org/2000/svg" xmlns:xlink="http://www.w3.org/1999/xlink" version="1.1" viewBox="-10 0 930 1000">
   <path fill="currentColor"
d="M822 58v556h-77v-556h77zM462 286h122v-209h76v504h-76v-228h-122v-67zM532 449l9 67c-81 18 -145 20 -199 20h-38v-411h201v66h-127v278c44 -2 95 -6 154 -20zM272 453l8 67c-72 17 -128 16 -165 16h-34v-411h181v66h-106v277c32 -1 73 -5 116 -15zM515 889
c143 0 229 -37 229 -101c0 -65 -86 -102 -229 -102s-229 37 -229 102c0 64 86 101 229 101zM515 622c194 0 312 60 312 166c0 105 -118 165 -312 165c-193 0 -312 -60 -312 -165c0 -106 119 -166 312 -166z" />
</svg>
