<?xml version="1.0" standalone="no"?>
<!DOCTYPE svg PUBLIC "-//W3C//DTD SVG 1.1//EN" "http://www.w3.org/Graphics/SVG/1.1/DTD/svg11.dtd" >
<svg xmlns="http://www.w3.org/2000/svg" xmlns:xlink="http://www.w3.org/1999/xlink" version="1.1" viewBox="-10 0 930 1000">
   <path fill="currentColor"
d="M557 211h152v-153h79v650h-79v-261h-152v-67h152v-101h-152v-68zM609 479l9 68c-104 17 -182 18 -243 18h-44v-444h244v67h-164v310c53 -1 118 -4 198 -19zM301 479l9 68c-84 17 -150 18 -206 18h-39v-444h218v67h-139v309c44 -1 97 -5 157 -18zM271 857h541v68h-625
v-277h84v209z" />
</svg>
