<?xml version="1.0" standalone="no"?>
<!DOCTYPE svg PUBLIC "-//W3C//DTD SVG 1.1//EN" "http://www.w3.org/Graphics/SVG/1.1/DTD/svg11.dtd" >
<svg xmlns="http://www.w3.org/2000/svg" xmlns:xlink="http://www.w3.org/1999/xlink" version="1.1" viewBox="-10 0 930 1000">
   <path fill="currentColor"
d="M605 420l9 65c-91 17 -160 19 -239 19h-44v-396h245v63h-160v268c60 -1 119 -5 189 -19zM302 420l8 65c-84 17 -150 18 -206 18h-39v-395h218v63h-139v266c45 -1 97 -5 158 -17zM219 787v102c111 0 168 -3 236 -16l8 61c-79 15 -141 16 -276 16h-48v-222h219v-90h-222
v-65h302v214h-219zM564 635v256h154v-256h-154zM494 953v-380h295v380h-295zM709 58h80v470h-80v-126h-142v-66h142v-89h-142v-66h142v-123z" />
</svg>
