<?xml version="1.0" standalone="no"?>
<!DOCTYPE svg PUBLIC "-//W3C//DTD SVG 1.1//EN" "http://www.w3.org/Graphics/SVG/1.1/DTD/svg11.dtd" >
<svg xmlns="http://www.w3.org/2000/svg" xmlns:xlink="http://www.w3.org/1999/xlink" version="1.1" viewBox="-10 0 930 1000">
   <path fill="currentColor"
d="M566 181h143v-123h81v470h-81v-126h-143v-66h143v-89h-143v-66zM604 420l9 65c-91 17 -160 19 -238 19h-44v-396h244v63h-159v268c59 -1 118 -5 188 -19zM301 420l9 65c-84 17 -150 18 -206 18h-39v-395h218v63h-139v266c45 -1 97 -5 157 -17zM706 569v89
c0 98 50 191 155 235l-46 62c-73 -32 -122 -89 -149 -158c-27 73 -78 132 -156 164l-42 -57l4 28c-82 17 -146 18 -276 18h-49v-222h225v-89h-228v-64h307v213h-225v98c107 0 166 -2 237 -17l4 30c108 -44 159 -140 159 -242v-88h80z" />
</svg>
