<?xml version="1.0" standalone="no"?>
<!DOCTYPE svg PUBLIC "-//W3C//DTD SVG 1.1//EN" "http://www.w3.org/Graphics/SVG/1.1/DTD/svg11.dtd" >
<svg xmlns="http://www.w3.org/2000/svg" xmlns:xlink="http://www.w3.org/1999/xlink" version="1.1" viewBox="-10 0 930 1000">
   <path fill="currentColor"
d="M566 181h143v-123h80v470h-80v-126h-143v-66h143v-89h-143v-66zM604 420l9 65c-91 17 -160 19 -238 19h-44v-396h244v63h-159v268c59 -1 118 -5 188 -19zM301 420l9 65c-84 17 -150 18 -206 18h-39v-395h218v63h-139v266c45 -1 97 -5 157 -17zM269 882h544v63h-627v-369
h610v62h-527v92h516v60h-516v92z" />
</svg>
