<?xml version="1.0" standalone="no"?>
<!DOCTYPE svg PUBLIC "-//W3C//DTD SVG 1.1//EN" "http://www.w3.org/Graphics/SVG/1.1/DTD/svg11.dtd" >
<svg xmlns="http://www.w3.org/2000/svg" xmlns:xlink="http://www.w3.org/1999/xlink" version="1.1" viewBox="-10 0 930 1000">
   <path fill="currentColor"
d="M816 58v530h-73v-530h73zM472 198h116v-125h73v515h-73v-159h-118v-65h118v-100h-116v-66zM515 449l10 67c-72 17 -131 18 -193 18h-37v-415h197v63h-125v286c46 -1 96 -5 148 -19zM266 452l8 65c-64 16 -116 16 -166 16h-34v-414h179v63h-107v286c36 -1 77 -4 120 -16z
M284 876h547v68h-630v-316h621v67h-538v181z" />
</svg>
