<?xml version="1.0" standalone="no"?>
<!DOCTYPE svg PUBLIC "-//W3C//DTD SVG 1.1//EN" "http://www.w3.org/Graphics/SVG/1.1/DTD/svg11.dtd" >
<svg xmlns="http://www.w3.org/2000/svg" xmlns:xlink="http://www.w3.org/1999/xlink" version="1.1" viewBox="-10 0 930 1000">
   <path fill="currentColor"
d="M476 182h119v-107h72v449h-72v-117h-119v-65h119v-94h-119v-66zM515 410l10 66c-70 18 -130 19 -193 19h-37v-382h197v64h-125v251c47 -1 96 -5 148 -18zM266 413l9 67c-65 16 -116 16 -166 16h-35v-383h180v64h-108v251c37 -1 78 -4 120 -15zM229 791v98
c114 0 172 -3 243 -17l8 61c-81 16 -143 17 -282 17h-49v-218h224v-93h-227v-64h308v216h-225zM582 636v257h164v-257h-164zM511 954v-379h305v379h-305zM742 58h74v474h-74v-474z" />
</svg>
