<?xml version="1.0" standalone="no"?>
<!DOCTYPE svg PUBLIC "-//W3C//DTD SVG 1.1//EN" "http://www.w3.org/Graphics/SVG/1.1/DTD/svg11.dtd" >
<svg xmlns="http://www.w3.org/2000/svg" xmlns:xlink="http://www.w3.org/1999/xlink" version="1.1" viewBox="-10 0 930 1000">
   <path fill="currentColor"
d="M816 58v470h-73v-470h73zM476 182h119v-107h72v449h-72v-117h-119v-65h119v-94h-119v-66zM515 409l10 67c-70 18 -130 19 -193 19h-37v-382h197v64h-125v251c47 -1 96 -5 148 -19zM266 412l9 68c-65 16 -117 16 -166 16h-35v-383h180v64h-108v251c37 -1 78 -4 120 -16z
M714 568v90c0 98 48 191 152 235l-45 62c-73 -32 -121 -89 -147 -158c-28 73 -78 131 -153 164l-40 -54l3 26c-81 16 -144 17 -271 17h-48v-222h220v-89h-223v-64h302v213h-220v98c104 0 161 -2 232 -17l4 29c102 -45 152 -138 152 -241v-89h82z" />
</svg>
