<?xml version="1.0" standalone="no"?>
<!DOCTYPE svg PUBLIC "-//W3C//DTD SVG 1.1//EN" "http://www.w3.org/Graphics/SVG/1.1/DTD/svg11.dtd" >
<svg xmlns="http://www.w3.org/2000/svg" xmlns:xlink="http://www.w3.org/1999/xlink" version="1.1" viewBox="-10 0 930 1000">
   <path fill="currentColor"
d="M816 58v516h-73v-516h73zM472 198h116v-125h73v486h-73v-130h-118v-65h118v-100h-116v-66zM515 449l10 67c-72 17 -131 18 -193 18h-37v-415h197v63h-125v286c46 -1 96 -5 148 -19zM266 452l9 65c-65 16 -117 16 -167 16h-34v-414h180v63h-108v286c37 -1 78 -4 120 -16z
M700 612v47c0 93 66 186 179 225l-40 61c-88 -32 -149 -94 -180 -169c-28 73 -83 141 -165 177c-86 -34 -140 -99 -167 -174c-32 72 -94 134 -178 166l-40 -61c113 -42 180 -138 180 -225v-47h79v47c0 81 41 165 125 214c84 -54 128 -144 128 -214v-47h79z" />
</svg>
