<?xml version="1.0" standalone="no"?>
<!DOCTYPE svg PUBLIC "-//W3C//DTD SVG 1.1//EN" "http://www.w3.org/Graphics/SVG/1.1/DTD/svg11.dtd" >
<svg xmlns="http://www.w3.org/2000/svg" xmlns:xlink="http://www.w3.org/1999/xlink" version="1.1" viewBox="-10 0 930 1000">
   <path fill="currentColor"
d="M816 58v500h-73v-500h73zM474 182h121v-107h72v450h-72v-118h-121v-65h121v-94h-121v-66zM515 409l10 67c-70 18 -130 19 -193 19h-37v-382h197v64h-125v251c47 -1 96 -5 148 -19zM266 412l9 68c-65 16 -117 16 -166 16h-35v-383h180v64h-108v251c37 -1 78 -4 120 -16z
M825 710h-262c11 82 144 160 292 179l-27 60c-136 -18 -256 -80 -308 -161c-53 83 -177 145 -312 161l-28 -60c149 -18 286 -95 297 -179h-262v-64h263v-90h83v90h264v64z" />
</svg>
