<?xml version="1.0" standalone="no"?>
<!DOCTYPE svg PUBLIC "-//W3C//DTD SVG 1.1//EN" "http://www.w3.org/Graphics/SVG/1.1/DTD/svg11.dtd" >
<svg xmlns="http://www.w3.org/2000/svg" xmlns:xlink="http://www.w3.org/1999/xlink" version="1.1" viewBox="-10 0 930 1000">
   <path fill="currentColor"
d="M816 58v476h-73v-476h73zM476 182h119v-107h72v455h-72v-123h-119v-65h119v-94h-119v-66zM515 409l10 67c-70 18 -130 19 -193 19h-37v-382h197v64h-125v251c47 -1 96 -5 148 -19zM266 412l8 68c-64 16 -116 16 -165 16h-35v-383h179v64h-107v251c36 -1 77 -4 120 -16z
M285 882h556v62h-639v-369h621v61h-538v92h526v61h-526v93z" />
</svg>
