<?xml version="1.0" standalone="no"?>
<!DOCTYPE svg PUBLIC "-//W3C//DTD SVG 1.1//EN" "http://www.w3.org/Graphics/SVG/1.1/DTD/svg11.dtd" >
<svg xmlns="http://www.w3.org/2000/svg" xmlns:xlink="http://www.w3.org/1999/xlink" version="1.1" viewBox="-10 0 930 1000">
   <path fill="currentColor"
d="M789 305v67h-316v-290h307v68h-225v155h234zM434 288l8 67c-107 19 -191 21 -272 21h-49v-292h302v67h-218v158c68 -1 143 -5 229 -21zM220 634v231c49 -2 118 -8 190 -26l11 67c-98 24 -184 28 -237 28h-43v-300h79zM603 905c51 0 87 -19 87 -50s-36 -50 -87 -50
s-87 19 -87 50s36 50 87 50zM603 750c90 0 157 41 157 105s-67 104 -157 104s-157 -40 -157 -104s67 -105 157 -105zM643 579v79h161v61h-404v-61h163v-79h80zM494 482h366v66h-813v-66h364v-108h83v108z" />
</svg>
