<?xml version="1.0" standalone="no"?>
<!DOCTYPE svg PUBLIC "-//W3C//DTD SVG 1.1//EN" "http://www.w3.org/Graphics/SVG/1.1/DTD/svg11.dtd" >
<svg xmlns="http://www.w3.org/2000/svg" xmlns:xlink="http://www.w3.org/1999/xlink" version="1.1" viewBox="-10 0 930 1000">
   <path fill="currentColor"
d="M208 793v94c100 0 160 -2 234 -17l9 63c-86 16 -152 17 -272 17h-48v-215h215v-93h-218v-63h295v214h-215zM703 884v-119h-152v119h152zM703 702v-126h75v372h-303v-372h76v126h152zM494 443h364v65h-812v-65h364v-102c-92 14 -167 16 -240 16h-49v-279h302v67h-218v144
c68 -1 143 -5 229 -21l8 67l-28 5h59v-264h307v68h-225v141h234v67h-295v91z" />
</svg>
