<?xml version="1.0" standalone="no"?>
<!DOCTYPE svg PUBLIC "-//W3C//DTD SVG 1.1//EN" "http://www.w3.org/Graphics/SVG/1.1/DTD/svg11.dtd" >
<svg xmlns="http://www.w3.org/2000/svg" xmlns:xlink="http://www.w3.org/1999/xlink" version="1.1" viewBox="-10 0 930 1000">
   <path fill="currentColor"
d="M208 787v99c90 0 148 -3 221 -16l7 63c-84 16 -149 17 -260 17h-47v-218h208v-86h-210v-65h289v206h-208zM586 647v237h71v-237h-71zM723 647v237h68v66h-339v-66h68v-237h-64v-66h328v66h-61zM494 443h365v65h-813v-65h364v-102c-92 14 -167 16 -240 16h-49v-279h302v67
h-218v144c68 -1 143 -5 229 -21l8 67l-28 5h59v-264h307v68h-225v141h233v67h-294v91z" />
</svg>
