<?xml version="1.0" standalone="no"?>
<!DOCTYPE svg PUBLIC "-//W3C//DTD SVG 1.1//EN" "http://www.w3.org/Graphics/SVG/1.1/DTD/svg11.dtd" >
<svg xmlns="http://www.w3.org/2000/svg" xmlns:xlink="http://www.w3.org/1999/xlink" version="1.1" viewBox="-10 0 930 1000">
   <path fill="currentColor"
d="M434 301l8 68c-107 18 -191 21 -272 21h-49v-301h302v68h-218v166c68 -1 143 -6 229 -22zM493 628v27c0 119 138 209 302 232l-32 64c-136 -23 -257 -86 -311 -183c-54 97 -176 160 -312 183l-31 -64c163 -23 300 -113 300 -232v-27h84zM494 501h366v66h-814v-66h364
v-120h63v-293h307v68h-225v161h234v68h-295v116z" />
</svg>
