<?xml version="1.0" standalone="no"?>
<!DOCTYPE svg PUBLIC "-//W3C//DTD SVG 1.1//EN" "http://www.w3.org/Graphics/SVG/1.1/DTD/svg11.dtd" >
<svg xmlns="http://www.w3.org/2000/svg" xmlns:xlink="http://www.w3.org/1999/xlink" version="1.1" viewBox="-10 0 930 1000">
   <path fill="currentColor"
d="M325 302l10 66c-82 16 -145 17 -208 17h-39v-285h226v68h-153v150c49 -1 103 -4 164 -16zM622 475l6 62c-184 25 -398 35 -566 36l-12 -71c76 -1 162 -3 249 -6v-114h60v-283h237v67h-158v152h170v66h-225v108c83 -4 164 -10 239 -17zM153 728v-67h603v294h-84v-227h-519
zM881 309v70h-125v227h-79v-548h79v251h125z" />
</svg>
