<?xml version="1.0" standalone="no"?>
<!DOCTYPE svg PUBLIC "-//W3C//DTD SVG 1.1//EN" "http://www.w3.org/Graphics/SVG/1.1/DTD/svg11.dtd" >
<svg xmlns="http://www.w3.org/2000/svg" xmlns:xlink="http://www.w3.org/1999/xlink" version="1.1" viewBox="-10 0 930 1000">
   <path fill="currentColor"
d="M325 302l10 66c-82 16 -145 17 -208 17h-39v-285h226v68h-153v150c49 -1 103 -4 164 -16zM623 476l6 63c-185 25 -399 35 -567 35l-12 -71c76 0 162 -2 249 -6v-115h60v-283h238v67h-159v152h170v66h-225v109c83 -3 165 -9 240 -17zM368 705v177h197v-177h-197zM647 705
v177h142v62h-644v-62h141v-177h-133v-63h626v63h-132zM756 309h125v70h-125v227h-79v-548h79v251z" />
</svg>
