<?xml version="1.0" standalone="no"?>
<!DOCTYPE svg PUBLIC "-//W3C//DTD SVG 1.1//EN" "http://www.w3.org/Graphics/SVG/1.1/DTD/svg11.dtd" >
<svg xmlns="http://www.w3.org/2000/svg" xmlns:xlink="http://www.w3.org/1999/xlink" version="1.1" viewBox="-10 0 930 1000">
   <path fill="currentColor"
d="M643 412v288h-76v-629h76v273h103v-286h76v670h-76v-316h-103zM273 342l11 66c-79 17 -143 17 -180 17h-36v-302h195v67h-122v168c35 -2 82 -5 132 -16zM525 514l4 61c-146 23 -336 30 -467 30l-9 -70c57 0 127 -1 200 -4v-113h51v-296h199v66h-126v169h137v67h-184v104
c68 -4 137 -7 195 -14zM276 861h573v67h-656v-256h83v189z" />
</svg>
