<?xml version="1.0" standalone="no"?>
<!DOCTYPE svg PUBLIC "-//W3C//DTD SVG 1.1//EN" "http://www.w3.org/Graphics/SVG/1.1/DTD/svg11.dtd" >
<svg xmlns="http://www.w3.org/2000/svg" xmlns:xlink="http://www.w3.org/1999/xlink" version="1.1" viewBox="-10 0 930 1000">
   <path fill="currentColor"
d="M642 374v232h-75v-535h75v235h104v-249h76v553h-76v-236h-104zM278 319l10 67c-80 17 -146 17 -184 17h-36v-285h195v66h-122v152c36 -2 85 -5 137 -17zM525 494l4 62c-146 22 -336 29 -467 29l-9 -70c58 0 130 -1 204 -4v-113h49v-281h197v66h-125v153h136v66h-180v106
c67 -3 134 -8 191 -14zM694 703v13c0 78 65 151 169 182l-42 60c-79 -24 -137 -74 -167 -137c-32 65 -92 118 -175 144l-38 -57c-82 27 -178 33 -222 33h-47v-290h80v212c51 -4 139 -14 197 -41l20 71c92 -39 145 -110 145 -183v-7h-151v-67h382v67h-151z" />
</svg>
