<?xml version="1.0" standalone="no"?>
<!DOCTYPE svg PUBLIC "-//W3C//DTD SVG 1.1//EN" "http://www.w3.org/Graphics/SVG/1.1/DTD/svg11.dtd" >
<svg xmlns="http://www.w3.org/2000/svg" xmlns:xlink="http://www.w3.org/1999/xlink" version="1.1" viewBox="-10 0 930 1000">
   <path fill="currentColor"
d="M276 292l10 61c-79 16 -141 16 -178 16h-36v-258h194v61h-120v136c35 -2 81 -5 130 -16zM525 446l5 60c-146 22 -337 29 -467 30l-10 -69c59 0 130 -1 203 -4l-1 -104h52v-249h197v61h-124v136h134v63h-182v90c68 -3 135 -7 193 -14zM234 801v89c114 0 172 -3 242 -17
l8 60c-81 16 -144 17 -284 17h-49v-205h225v-87h-227v-61h309v204h-224zM586 655v240h165v-240h-165zM515 955v-358h307v358h-307zM745 58h77v491h-77v-201h-103v197h-75v-473h75v209h103v-223z" />
</svg>
