<?xml version="1.0" standalone="no"?>
<!DOCTYPE svg PUBLIC "-//W3C//DTD SVG 1.1//EN" "http://www.w3.org/Graphics/SVG/1.1/DTD/svg11.dtd" >
<svg xmlns="http://www.w3.org/2000/svg" xmlns:xlink="http://www.w3.org/1999/xlink" version="1.1" viewBox="-10 0 930 1000">
   <path fill="currentColor"
d="M642 348v197h-75v-473h75v209h104v-223h76v493h-76v-203h-104zM276 292l10 61c-79 16 -141 16 -178 16h-36v-258h194v61h-120v136c35 -2 81 -5 130 -16zM526 446l4 60c-146 22 -337 29 -468 30l-9 -69c58 0 129 -1 202 -4v-104h52v-249h197v61h-124v136h135v62h-183v91
c68 -3 136 -7 194 -14zM715 591v71c0 95 48 189 154 233l-46 60c-74 -32 -122 -90 -148 -160c-28 74 -79 133 -157 166l-36 -46l3 17c-82 17 -147 18 -278 18h-49v-210h227v-81h-229v-61h309v199h-227v91c107 0 166 -2 239 -17l3 26c103 -44 154 -139 154 -237v-69h81z" />
</svg>
