<?xml version="1.0" standalone="no"?>
<!DOCTYPE svg PUBLIC "-//W3C//DTD SVG 1.1//EN" "http://www.w3.org/Graphics/SVG/1.1/DTD/svg11.dtd" >
<svg xmlns="http://www.w3.org/2000/svg" xmlns:xlink="http://www.w3.org/1999/xlink" version="1.1" viewBox="-10 0 930 1000">
   <path fill="currentColor"
d="M277 319l11 67c-81 17 -146 17 -184 17h-36v-285h195v66h-122v152c35 -2 84 -5 136 -17zM525 494l4 62c-146 22 -337 29 -467 29l-9 -70c58 0 129 -1 203 -4v-113h50v-281h197v66h-125v153h136v66h-181v106c67 -3 135 -8 192 -14zM286 710v171h453v-171h-453zM202 945
v-299h620v299h-620zM745 57h77v553h-77v-236h-103v230h-75v-533h75v235h103v-249z" />
</svg>
