<?xml version="1.0" standalone="no"?>
<!DOCTYPE svg PUBLIC "-//W3C//DTD SVG 1.1//EN" "http://www.w3.org/Graphics/SVG/1.1/DTD/svg11.dtd" >
<svg xmlns="http://www.w3.org/2000/svg" xmlns:xlink="http://www.w3.org/1999/xlink" version="1.1" viewBox="-10 0 930 1000">
   <path fill="currentColor"
d="M642 361v207h-75v-497h75v222h104v-236h76v517h-76v-213h-104zM276 305l10 65c-78 17 -140 17 -178 17h-36v-269h194v66h-120v137c34 -2 81 -5 130 -16zM525 466l5 60c-146 22 -337 29 -468 30l-10 -70c59 0 130 -1 203 -3v-105h52v-261h197v66h-124v137h135v67h-183v92
c68 -2 136 -6 193 -13zM404 882v-110h-167v110h167zM724 606v55c0 88 57 183 159 228l-45 65c-74 -32 -125 -90 -154 -158c-29 69 -83 126 -160 158l-43 -61v53h-321v-335h77v100h167v-100h77v277c104 -44 162 -136 162 -222v-60h81z" />
</svg>
