<?xml version="1.0" standalone="no"?>
<!DOCTYPE svg PUBLIC "-//W3C//DTD SVG 1.1//EN" "http://www.w3.org/Graphics/SVG/1.1/DTD/svg11.dtd" >
<svg xmlns="http://www.w3.org/2000/svg" xmlns:xlink="http://www.w3.org/1999/xlink" version="1.1" viewBox="-10 0 930 1000">
   <path fill="currentColor"
d="M642 372v226h-75v-527h75v233h103v-247h77v567h-77v-252h-103zM277 320l10 66c-80 16 -143 16 -179 16h-37v-284h194v66h-120v152c35 -2 82 -5 132 -16zM521 487l6 59c-153 31 -344 33 -466 33l-9 -67c56 0 126 0 202 -3v-117h52v-275h192v66h-120v153h129v66h-174v103
c65 -4 131 -9 188 -18zM514 890c148 0 232 -33 232 -93c0 -58 -84 -91 -232 -91c-147 0 -233 33 -233 91c0 60 86 93 233 93zM514 639c199 0 317 57 317 158c0 102 -118 160 -317 160c-198 0 -317 -58 -317 -160c0 -101 119 -158 317 -158z" />
</svg>
