<?xml version="1.0" standalone="no"?>
<!DOCTYPE svg PUBLIC "-//W3C//DTD SVG 1.1//EN" "http://www.w3.org/Graphics/SVG/1.1/DTD/svg11.dtd" >
<svg xmlns="http://www.w3.org/2000/svg" xmlns:xlink="http://www.w3.org/1999/xlink" version="1.1" viewBox="-10 0 930 1000">
   <path fill="currentColor"
d="M642 348v197h-75v-473h75v209h104v-223h76v491h-76v-201h-104zM276 292l10 61c-79 16 -141 16 -178 16h-36v-258h194v61h-120v136c35 -2 81 -5 130 -16zM526 446l4 60c-146 22 -337 29 -468 30l-9 -69c58 0 130 -1 203 -4l-1 -104h52v-249h197v61h-124v136h135v63h-183
v90c68 -3 136 -7 194 -14zM282 883h567v64h-652v-351h633v63h-548v79h536v60h-536v85z" />
</svg>
