<?xml version="1.0" standalone="no"?>
<!DOCTYPE svg PUBLIC "-//W3C//DTD SVG 1.1//EN" "http://www.w3.org/Graphics/SVG/1.1/DTD/svg11.dtd" >
<svg xmlns="http://www.w3.org/2000/svg" xmlns:xlink="http://www.w3.org/1999/xlink" version="1.1" viewBox="-10 0 930 1000">
   <path fill="currentColor"
d="M628 428v66h-245v-347h238v66h-158v215h165zM347 409l7 66c-81 18 -144 19 -209 19h-41v-347h231v66h-150v215c50 -1 101 -5 162 -19zM404 522v166c86 -4 174 -10 257 -21l6 60c-209 34 -426 35 -600 34l-11 -68c82 0 173 0 267 -3v-168h81zM717 58h82v896h-82v-896z" />
</svg>
