<?xml version="1.0" standalone="no"?>
<!DOCTYPE svg PUBLIC "-//W3C//DTD SVG 1.1//EN" "http://www.w3.org/Graphics/SVG/1.1/DTD/svg11.dtd" >
<svg xmlns="http://www.w3.org/2000/svg" xmlns:xlink="http://www.w3.org/1999/xlink" version="1.1" viewBox="-10 0 930 1000">
   <path fill="currentColor"
d="M332 302l10 66c-83 16 -146 17 -210 17h-39v-285h227v68h-154v150c50 -1 104 -4 166 -16zM638 466l6 62c-190 26 -408 36 -582 37l-12 -71c79 -1 166 -3 255 -6v-106h61v-283h239v67h-160v152h172v66h-228v100c86 -4 170 -10 249 -18zM169 717v-67h617v309h-84v-242h-533
zM707 58h79v542h-79v-542z" />
</svg>
