<?xml version="1.0" standalone="no"?>
<!DOCTYPE svg PUBLIC "-//W3C//DTD SVG 1.1//EN" "http://www.w3.org/Graphics/SVG/1.1/DTD/svg11.dtd" >
<svg xmlns="http://www.w3.org/2000/svg" xmlns:xlink="http://www.w3.org/1999/xlink" version="1.1" viewBox="-10 0 930 1000">
   <path fill="currentColor"
d="M792 59v663h-82v-663h82zM334 333l9 66c-79 19 -144 20 -200 20h-39v-296h223v66h-142v163c43 -1 94 -6 149 -19zM645 517l6 59c-200 31 -416 34 -586 34l-12 -67c82 0 172 0 267 -3v-128h50v-289h236v66h-155v163h163v67h-212v117c83 -4 165 -9 243 -19zM283 873h535v67
h-617v-261h82v194z" />
</svg>
