<?xml version="1.0" standalone="no"?>
<!DOCTYPE svg PUBLIC "-//W3C//DTD SVG 1.1//EN" "http://www.w3.org/Graphics/SVG/1.1/DTD/svg11.dtd" >
<svg xmlns="http://www.w3.org/2000/svg" xmlns:xlink="http://www.w3.org/1999/xlink" version="1.1" viewBox="-10 0 930 1000">
   <path fill="currentColor"
d="M123 696v-68h301v322h-81v-254h-220zM670 623v50c0 94 50 182 154 219l-44 64c-75 -30 -125 -85 -152 -152c-28 67 -82 124 -159 155l-43 -63c107 -42 162 -134 162 -219v-54h82zM634 487h226v66h-814v-66h223v-99c-34 2 -67 2 -99 2h-49v-301h301v68h-217v166
c68 -1 143 -6 229 -22l8 68c-32 6 -61 10 -89 12v106h197v-102h-78v-297h308v68h-225v161h234v68h-155v102z" />
</svg>
