<?xml version="1.0" standalone="no"?>
<!DOCTYPE svg PUBLIC "-//W3C//DTD SVG 1.1//EN" "http://www.w3.org/Graphics/SVG/1.1/DTD/svg11.dtd" >
<svg xmlns="http://www.w3.org/2000/svg" xmlns:xlink="http://www.w3.org/1999/xlink" version="1.1" viewBox="-10 0 930 1000">
   <path fill="currentColor"
d="M229 793v87h554v65h-638v-212h530v-83h-533v-65h618v208h-531zM634 444h224v64h-812v-64h223v-90c-34 2 -67 2 -99 2h-49v-278h301v67h-217v145c68 -1 143 -6 229 -22l8 67c-32 6 -61 10 -89 12v97h197v-92h-78v-276h308v68h-225v141h234v67h-155v92z" />
</svg>
