<?xml version="1.0" standalone="no"?>
<!DOCTYPE svg PUBLIC "-//W3C//DTD SVG 1.1//EN" "http://www.w3.org/Graphics/SVG/1.1/DTD/svg11.dtd" >
<svg xmlns="http://www.w3.org/2000/svg" xmlns:xlink="http://www.w3.org/1999/xlink" version="1.1" viewBox="-10 0 930 1000">
   <path fill="currentColor"
d="M219 789v98c120 0 193 -4 284 -20l8 64c-102 17 -182 19 -320 19h-56v-221h225v-86h-227v-64h311v210h-225zM483 645v-66h290v374h-82v-308h-208zM634 440h225v64h-813v-64h223v-86c-34 2 -67 2 -99 2h-49v-278h301v67h-217v145c68 -1 143 -6 229 -22l8 67
c-32 6 -61 10 -89 12v93h197v-88h-78v-276h308v68h-225v141h233v67h-154v88z" />
</svg>
