<?xml version="1.0" standalone="no"?>
<!DOCTYPE svg PUBLIC "-//W3C//DTD SVG 1.1//EN" "http://www.w3.org/Graphics/SVG/1.1/DTD/svg11.dtd" >
<svg xmlns="http://www.w3.org/2000/svg" xmlns:xlink="http://www.w3.org/1999/xlink" version="1.1" viewBox="-10 0 930 1000">
   <path fill="currentColor"
d="M761 711h-264c19 95 153 160 304 177l-28 62c-140 -17 -267 -73 -322 -164c-53 91 -181 147 -320 164l-28 -62c151 -17 284 -82 303 -177h-264v-66h619v66zM634 494h225v65h-813v-65h223v-106c-34 2 -67 2 -99 2h-49v-301h301v68h-217v166c68 -1 143 -6 229 -22l8 68
c-32 6 -61 10 -89 12v113h197v-109h-78v-297h308v68h-225v161h234v68h-155v109z" />
</svg>
