<?xml version="1.0" standalone="no"?>
<!DOCTYPE svg PUBLIC "-//W3C//DTD SVG 1.1//EN" "http://www.w3.org/Graphics/SVG/1.1/DTD/svg11.dtd" >
<svg xmlns="http://www.w3.org/2000/svg" xmlns:xlink="http://www.w3.org/1999/xlink" version="1.1" viewBox="-10 0 930 1000">
   <path fill="currentColor"
d="M788 290v66h-316v-280h308v68h-225v146h233zM434 272l8 68c-107 19 -191 21 -272 21h-49v-284h302v68h-218v149c68 -1 143 -6 229 -22zM553 647v242h149v-242h-149zM860 497h-367v89h282v364h-294v-338h-59v182h-210v95c108 0 162 -2 230 -16l8 61
c-79 15 -140 16 -273 16h-48v-214h210v-86h-211v-64h282v-89h-364v-66h814v66z" />
</svg>
