<?xml version="1.0" standalone="no"?>
<!DOCTYPE svg PUBLIC "-//W3C//DTD SVG 1.1//EN" "http://www.w3.org/Graphics/SVG/1.1/DTD/svg11.dtd" >
<svg xmlns="http://www.w3.org/2000/svg" xmlns:xlink="http://www.w3.org/1999/xlink" version="1.1" viewBox="-10 0 930 1000">
   <path fill="currentColor"
d="M609 381l1 68h-245v-327h233v67h-155v192h166zM330 370l9 65c-83 16 -146 18 -208 18h-39v-329h225v66h-146v196c48 -1 99 -5 159 -16zM643 512l8 66c-89 11 -180 17 -271 22v332h-83v-329c-82 3 -162 4 -237 4l-12 -74c188 -1 402 -4 595 -21zM710 58h83v900h-83v-221
h-205v-66h205v-613z" />
</svg>
