<?xml version="1.0" standalone="no"?>
<!DOCTYPE svg PUBLIC "-//W3C//DTD SVG 1.1//EN" "http://www.w3.org/Graphics/SVG/1.1/DTD/svg11.dtd" >
<svg xmlns="http://www.w3.org/2000/svg" xmlns:xlink="http://www.w3.org/1999/xlink" version="1.1" viewBox="-10 0 930 1000">
   <path fill="currentColor"
d="M617 296v64h-251v-265h239v64h-161v137h173zM333 280l10 63c-83 16 -146 17 -210 17h-39v-264h226v64h-153v136c50 -1 104 -4 166 -16zM287 641v-142c-80 3 -158 5 -229 5l-12 -71c183 -1 402 -4 595 -23l7 62c-90 12 -185 19 -278 24v145h-83zM149 740v-65h303v281h-83
v-216h-220zM496 740v-65h293v281h-81v-216h-212zM711 58h78v593h-78v-55h-195v-59h195v-479z" />
</svg>
