<?xml version="1.0" standalone="no"?>
<!DOCTYPE svg PUBLIC "-//W3C//DTD SVG 1.1//EN" "http://www.w3.org/Graphics/SVG/1.1/DTD/svg11.dtd" >
<svg xmlns="http://www.w3.org/2000/svg" xmlns:xlink="http://www.w3.org/1999/xlink" version="1.1" viewBox="-10 0 930 1000">
   <path fill="currentColor"
d="M516 534h195v-476h78v582h-78v-47h-195v-59zM617 296v64h-251v-265h239v64h-161v137h173zM333 280l10 63c-83 16 -146 17 -210 17h-39v-264h226v64h-153v136c50 -1 104 -4 166 -16zM287 634v-134c-80 3 -157 4 -229 4l-12 -71c186 -1 403 -4 595 -21l8 63
c-91 10 -186 17 -279 22v137h-83zM264 878h544v66h-628v-279h621v64h-537v149z" />
</svg>
