<?xml version="1.0" standalone="no"?>
<!DOCTYPE svg PUBLIC "-//W3C//DTD SVG 1.1//EN" "http://www.w3.org/Graphics/SVG/1.1/DTD/svg11.dtd" >
<svg xmlns="http://www.w3.org/2000/svg" xmlns:xlink="http://www.w3.org/1999/xlink" version="1.1" viewBox="-10 0 930 1000">
   <path fill="currentColor"
d="M516 554h195v-496h79v642h-79v-85h-195v-61zM606 296v63h-240v-263h230v64h-151v136h161zM333 280l10 63c-83 16 -146 17 -210 17h-39v-264h226v64h-153v136c50 -1 104 -4 166 -16zM281 686v-182c-80 3 -156 3 -224 3l-12 -66c170 0 393 -1 585 -27l8 58
c-90 15 -185 24 -275 28v186h-82zM544 664v16c0 108 137 188 301 208l-28 62c-138 -18 -260 -76 -314 -165c-54 89 -178 147 -314 165l-29 -62c163 -20 301 -100 301 -208v-16h83z" />
</svg>
