<?xml version="1.0" standalone="no"?>
<!DOCTYPE svg PUBLIC "-//W3C//DTD SVG 1.1//EN" "http://www.w3.org/Graphics/SVG/1.1/DTD/svg11.dtd" >
<svg xmlns="http://www.w3.org/2000/svg" xmlns:xlink="http://www.w3.org/1999/xlink" version="1.1" viewBox="-10 0 930 1000">
   <path fill="currentColor"
d="M512 371v66h-204v-306h197v67h-125v173h132zM279 354l7 65c-68 17 -123 18 -172 18h-36v-306h194v67h-121v174c38 -2 81 -6 128 -18zM535 498l6 59c-67 13 -142 21 -215 25v299h-78v-294c-72 3 -141 4 -198 4l-10 -67c136 0 341 -4 495 -26zM583 648v-571h76v829h-76
v-193h-171v-65h171zM746 58h77v895h-77v-895z" />
</svg>
