<?xml version="1.0" standalone="no"?>
<!DOCTYPE svg PUBLIC "-//W3C//DTD SVG 1.1//EN" "http://www.w3.org/Graphics/SVG/1.1/DTD/svg11.dtd" >
<svg xmlns="http://www.w3.org/2000/svg" xmlns:xlink="http://www.w3.org/1999/xlink" version="1.1" viewBox="-10 0 930 1000">
   <path fill="currentColor"
d="M430 517h161v-446h75v566h-75v-61h-161v-59zM511 288l-1 63h-202v-249h195v64h-123v122h131zM277 272l11 63c-72 17 -130 17 -181 17h-36v-249h193v63h-120v123c39 -1 84 -5 133 -17zM253 635v-158c-71 3 -138 5 -197 5l-10 -70c144 0 348 -5 498 -22l5 61
c-67 11 -142 17 -218 22v162h-78zM164 734v-66h313v288h-82v-222h-231zM521 734v-66h301v288h-82v-222h-219zM745 58h77v582h-77v-582z" />
</svg>
