<?xml version="1.0" standalone="no"?>
<!DOCTYPE svg PUBLIC "-//W3C//DTD SVG 1.1//EN" "http://www.w3.org/Graphics/SVG/1.1/DTD/svg11.dtd" >
<svg xmlns="http://www.w3.org/2000/svg" xmlns:xlink="http://www.w3.org/1999/xlink" version="1.1" viewBox="-10 0 930 1000">
   <path fill="currentColor"
d="M425 491h165v-420h74v517h-74v-44h-165v-53zM514 271l-1 61h-205v-229h201v61h-129v107h134zM276 256l10 61c-70 16 -127 16 -178 16h-35v-228h194v61h-121v106c39 -1 83 -4 130 -16zM258 584v-129c-70 3 -137 4 -194 4l-10 -66c139 0 341 -5 487 -21l6 57
c-65 9 -139 17 -212 22v133h-77zM243 811v79c121 0 201 -3 300 -20l7 61c-108 17 -195 19 -331 19h-57v-194h241v-77h-243v-60h324v192h-241zM524 681v-62h298v337h-84v-275h-214zM746 58h76v533h-76v-533z" />
</svg>
