<?xml version="1.0" standalone="no"?>
<!DOCTYPE svg PUBLIC "-//W3C//DTD SVG 1.1//EN" "http://www.w3.org/Graphics/SVG/1.1/DTD/svg11.dtd" >
<svg xmlns="http://www.w3.org/2000/svg" xmlns:xlink="http://www.w3.org/1999/xlink" version="1.1" viewBox="-10 0 930 1000">
   <path fill="currentColor"
d="M822 58v533h-76v-533h76zM426 491h164v-420h74v517h-74v-44h-164v-53zM514 271l-1 61h-205v-229h201v61h-129v107h134zM276 256l10 61c-70 16 -127 16 -178 16h-35v-228h194v61h-121v106c39 -1 83 -4 130 -16zM258 584v-129c-70 3 -137 4 -194 4l-11 -66
c140 0 342 -5 488 -21l5 57c-65 9 -138 17 -211 22v133h-77zM234 810v81c89 0 162 -3 255 -17l5 59c-106 16 -187 17 -289 17h-50v-196h238v-75h-240v-60h319v191h-238zM596 888h246v60h-325v-330h313v61h-234v73h225v56h-225v80z" />
</svg>
