<?xml version="1.0" standalone="no"?>
<!DOCTYPE svg PUBLIC "-//W3C//DTD SVG 1.1//EN" "http://www.w3.org/Graphics/SVG/1.1/DTD/svg11.dtd" >
<svg xmlns="http://www.w3.org/2000/svg" xmlns:xlink="http://www.w3.org/1999/xlink" version="1.1" viewBox="-10 0 930 1000">
   <path fill="currentColor"
d="M822 58v533h-76v-533h76zM425 491h165v-420h75v517h-75v-44h-165v-53zM514 271v61h-206v-229h201v61h-129v107h134zM276 256l10 61c-70 16 -127 16 -178 16h-35v-228h194v61h-121v106c39 -1 83 -4 130 -16zM258 584v-129c-70 3 -137 4 -194 4l-11 -66
c140 0 342 -5 488 -21l5 57c-65 9 -138 17 -211 22v133h-77zM239 812v80c97 0 156 -3 227 -17l8 61c-83 16 -147 18 -266 18h-48v-195h205v-74h-207v-58h286v185h-205zM661 917c48 0 82 -17 82 -45c0 -29 -34 -46 -82 -46s-82 17 -82 46c0 28 34 45 82 45zM661 774
c87 0 152 37 152 98c0 60 -65 97 -152 97s-152 -37 -152 -97c0 -61 65 -98 152 -98zM702 688h147v61h-375v-61h149v-76h79v76z" />
</svg>
