<?xml version="1.0" standalone="no"?>
<!DOCTYPE svg PUBLIC "-//W3C//DTD SVG 1.1//EN" "http://www.w3.org/Graphics/SVG/1.1/DTD/svg11.dtd" >
<svg xmlns="http://www.w3.org/2000/svg" xmlns:xlink="http://www.w3.org/1999/xlink" version="1.1" viewBox="-10 0 930 1000">
   <path fill="currentColor"
d="M786 59v551h-82v-551h82zM618 319v65h-245v-276h236v65h-157v146h166zM341 303l7 64c-82 18 -146 19 -207 19h-39v-278h227v65h-148v149c47 -2 99 -6 160 -19zM269 877h536v67h-621v-293h126v-121c-88 4 -174 5 -252 5l-11 -70c183 0 403 -3 599 -20l6 61
c-84 11 -173 17 -260 21v124h405v66h-528v160z" />
</svg>
