<?xml version="1.0" standalone="no"?>
<!DOCTYPE svg PUBLIC "-//W3C//DTD SVG 1.1//EN" "http://www.w3.org/Graphics/SVG/1.1/DTD/svg11.dtd" >
<svg xmlns="http://www.w3.org/2000/svg" xmlns:xlink="http://www.w3.org/1999/xlink" version="1.1" viewBox="-10 0 930 1000">
   <path fill="currentColor"
d="M798 57v475h-82v-475h82zM625 286v64h-244v-256h234v65h-154v127h164zM346 267l7 65c-80 17 -145 18 -202 18h-39v-256h224v65h-144v127c45 -2 96 -6 154 -19zM269 881h561v63h-642v-219h529v-87h-531v-62h141v-93c-92 2 -179 2 -259 2l-11 -66c181 0 403 1 603 -19l6 58
c-85 11 -172 18 -257 22v96h389v209h-529v96z" />
</svg>
