<?xml version="1.0" standalone="no"?>
<!DOCTYPE svg PUBLIC "-//W3C//DTD SVG 1.1//EN" "http://www.w3.org/Graphics/SVG/1.1/DTD/svg11.dtd" >
<svg xmlns="http://www.w3.org/2000/svg" xmlns:xlink="http://www.w3.org/1999/xlink" version="1.1" viewBox="-10 0 930 1000">
   <path fill="currentColor"
d="M617 297v65h-245v-256h236v66h-158v125h167zM340 282l7 64c-82 19 -147 20 -207 20h-40v-260h228v66h-149v129c47 -2 101 -6 161 -19zM222 797v92c93 0 153 -3 228 -17l8 62c-86 16 -154 17 -268 17h-48v-206h210v-83h-212v-63h165v-100c-86 3 -171 4 -248 4l-11 -69
c183 0 402 -1 601 -18l6 59c-87 11 -178 17 -266 21v103h44v198h-209zM710 890v-118h-139v118h139zM710 711v-113h76v353h-291v-353h76v113h139zM704 56h82v485h-82v-485z" />
</svg>
