<?xml version="1.0" standalone="no"?>
<!DOCTYPE svg PUBLIC "-//W3C//DTD SVG 1.1//EN" "http://www.w3.org/Graphics/SVG/1.1/DTD/svg11.dtd" >
<svg xmlns="http://www.w3.org/2000/svg" xmlns:xlink="http://www.w3.org/1999/xlink" version="1.1" viewBox="-10 0 930 1000">
   <path fill="currentColor"
d="M786 57v482h-82v-482h82zM618 297v65h-246v-256h236v66h-158v125h168zM340 282l7 64c-82 19 -147 20 -207 20h-40v-260h228v66h-149v129c47 -2 101 -6 161 -19zM221 797v91c99 0 158 -3 231 -17l7 62c-83 15 -147 17 -269 17h-48v-62h1v-148h205v-80h-208v-61h165v-100
c-86 3 -171 4 -248 4l-11 -69c183 0 402 -1 601 -18l6 59c-87 11 -178 17 -266 21v103h40v198h-206zM639 902c50 0 82 -22 82 -58s-32 -58 -82 -58c-49 0 -81 22 -81 58s32 58 81 58zM639 730c88 0 152 44 152 114c0 71 -64 114 -152 114c-87 0 -151 -43 -151 -114
c0 -70 64 -114 151 -114zM679 633h147v61h-371v-61h144v-78h80v78z" />
</svg>
