<?xml version="1.0" standalone="no"?>
<!DOCTYPE svg PUBLIC "-//W3C//DTD SVG 1.1//EN" "http://www.w3.org/Graphics/SVG/1.1/DTD/svg11.dtd" >
<svg xmlns="http://www.w3.org/2000/svg" xmlns:xlink="http://www.w3.org/1999/xlink" version="1.1" viewBox="-10 0 930 1000">
   <path fill="currentColor"
d="M788 303v67h-316v-290h308v68h-225v155h233zM435 285l7 68c-106 19 -191 21 -272 21h-49v-292h301v67h-217v158c68 -1 143 -6 230 -22zM195 641v230c56 -2 128 -10 194 -33l13 67c-88 29 -175 34 -242 34h-45v-298h80zM602 910c55 0 93 -18 93 -49s-38 -49 -93 -49
s-93 18 -93 49s38 49 93 49zM602 758c96 0 166 40 166 103s-70 103 -166 103s-166 -40 -166 -103s70 -103 166 -103zM641 623v36h181v61h-440v-61h179v-36h-1v-104h-217v104h-82v-104h-215v-63h811v63h-215z" />
</svg>
