<?xml version="1.0" standalone="no"?>
<!DOCTYPE svg PUBLIC "-//W3C//DTD SVG 1.1//EN" "http://www.w3.org/Graphics/SVG/1.1/DTD/svg11.dtd" >
<svg xmlns="http://www.w3.org/2000/svg" xmlns:xlink="http://www.w3.org/1999/xlink" version="1.1" viewBox="-10 0 930 1000">
   <path fill="currentColor"
d="M788 290v66h-316v-280h308v68h-225v146h233zM434 273l8 67c-106 19 -191 22 -272 22h-49v-285h302v68h-218v149c68 -1 143 -5 229 -21zM702 888v-247h-149v247h149zM860 489h-225v91h140v369h-295v-369h71v-91h-197v91h68v211h-210v98c108 0 163 -2 230 -16l8 61
c-79 15 -140 16 -273 16h-48v-217h210v-90h-211v-63h144v-91h-226v-65h814v65z" />
</svg>
