<?xml version="1.0" standalone="no"?>
<!DOCTYPE svg PUBLIC "-//W3C//DTD SVG 1.1//EN" "http://www.w3.org/Graphics/SVG/1.1/DTD/svg11.dtd" >
<svg xmlns="http://www.w3.org/2000/svg" xmlns:xlink="http://www.w3.org/1999/xlink" version="1.1" viewBox="-10 0 930 1000">
   <path fill="currentColor"
d="M788 290v66h-316v-280h308v68h-225v146h233zM434 273l8 67c-106 19 -191 22 -272 22h-49v-285h302v68h-218v149c68 -1 143 -5 229 -21zM662 883v-236h-72v236h72zM860 489h-225v93h149v65h-57v236h63v67h-326v-67h60v-236h-55v-65h82v-93h-197v93h70v208h-215v96
c95 0 154 -3 228 -16l8 62c-86 17 -152 18 -267 18h-48v-214h215v-89h-216v-65h143v-93h-226v-65h814v65z" />
</svg>
