<?xml version="1.0" standalone="no"?>
<!DOCTYPE svg PUBLIC "-//W3C//DTD SVG 1.1//EN" "http://www.w3.org/Graphics/SVG/1.1/DTD/svg11.dtd" >
<svg xmlns="http://www.w3.org/2000/svg" xmlns:xlink="http://www.w3.org/1999/xlink" version="1.1" viewBox="-10 0 930 1000">
   <path fill="currentColor"
d="M789 290v66h-317v-280h308v68h-225v146h234zM434 273l8 67c-107 19 -191 22 -272 22h-49v-285h302v68h-218v149c68 -1 143 -5 229 -21zM367 885v-114h-163v114h163zM860 489h-225v118h48v58c0 87 56 181 157 227l-46 64c-73 -32 -123 -89 -151 -156
c-29 68 -83 126 -158 157l-41 -60v51h-318v-337h78v98h163v-98h77v278c101 -44 158 -133 158 -220v-41h-51v-139h-197v141h-82v-141h-226v-65h814v65z" />
</svg>
