<?xml version="1.0" standalone="no"?>
<!DOCTYPE svg PUBLIC "-//W3C//DTD SVG 1.1//EN" "http://www.w3.org/Graphics/SVG/1.1/DTD/svg11.dtd" >
<svg xmlns="http://www.w3.org/2000/svg" xmlns:xlink="http://www.w3.org/1999/xlink" version="1.1" viewBox="-10 0 930 1000">
   <path fill="currentColor"
d="M794 323v66h-309v-298h301v66h-220v166h228zM446 298l9 66c-100 22 -184 25 -276 25h-49v-298h304v66h-223v167c77 -1 152 -7 235 -26zM558 649v-114h-202v114h202zM865 535h-223v114h128v66h-264c23 92 155 157 303 172l-28 62c-140 -17 -267 -73 -322 -164
c-54 91 -182 147 -321 164l-28 -62c148 -15 280 -80 303 -172h-265v-66h126v-114h-221v-67h812v67z" />
</svg>
