<?xml version="1.0" standalone="no"?>
<!DOCTYPE svg PUBLIC "-//W3C//DTD SVG 1.1//EN" "http://www.w3.org/Graphics/SVG/1.1/DTD/svg11.dtd" >
<svg xmlns="http://www.w3.org/2000/svg" xmlns:xlink="http://www.w3.org/1999/xlink" version="1.1" viewBox="-10 0 930 1000">
   <path fill="currentColor"
d="M789 317v67h-317v-296h308v68h-225v161h234zM434 300l8 67c-106 20 -191 22 -272 22h-49v-300h302v68h-218v165c68 -1 143 -6 229 -22zM552 642v-103h-201v103h201zM860 539h-224v103h127v317h-84v-111l-544 25l-11 -65l555 -19v-80h-536v-67h125v-103h-222v-65h814v65z
" />
</svg>
