<?xml version="1.0" standalone="no"?>
<!DOCTYPE svg PUBLIC "-//W3C//DTD SVG 1.1//EN" "http://www.w3.org/Graphics/SVG/1.1/DTD/svg11.dtd" >
<svg xmlns="http://www.w3.org/2000/svg" xmlns:xlink="http://www.w3.org/1999/xlink" version="1.1" viewBox="-10 0 930 1000">
   <path fill="currentColor"
d="M789 292l-1 66h-316v-280h308v68h-225v146h234zM435 275l7 67c-106 19 -191 21 -272 21h-49v-284h302v68h-218v149c68 -1 143 -5 230 -21zM208 793v94c100 0 160 -2 234 -17l9 63c-86 16 -152 17 -272 17h-48v-215h215v-93h-218v-63h295v214h-215zM703 884v-119h-152v119
h152zM703 702v-126h75v372h-303v-372h76v126h152zM46 435h814v66h-814v-66z" />
</svg>
