<?xml version="1.0" standalone="no"?>
<!DOCTYPE svg PUBLIC "-//W3C//DTD SVG 1.1//EN" "http://www.w3.org/Graphics/SVG/1.1/DTD/svg11.dtd" >
<svg xmlns="http://www.w3.org/2000/svg" xmlns:xlink="http://www.w3.org/1999/xlink" version="1.1" viewBox="-10 0 930 1000">
   <path fill="currentColor"
d="M788 292v66h-316v-280h308v68h-225v146h233zM435 275l7 67c-106 19 -191 21 -272 21h-49v-284h302v68h-218v149c68 -1 143 -5 230 -21zM208 787v99c91 0 150 -3 224 -16l8 63c-85 15 -150 17 -264 17h-47v-218h208v-86h-210v-64h289v205h-208zM585 647v236h72v-236h-72z
M723 647v236h67v67h-337v-67h66v-236h-62v-65h327v65h-61zM46 435h813v66h-813v-66z" />
</svg>
