<?xml version="1.0" standalone="no"?>
<!DOCTYPE svg PUBLIC "-//W3C//DTD SVG 1.1//EN" "http://www.w3.org/Graphics/SVG/1.1/DTD/svg11.dtd" >
<svg xmlns="http://www.w3.org/2000/svg" xmlns:xlink="http://www.w3.org/1999/xlink" version="1.1" viewBox="-10 0 930 1000">
   <path fill="currentColor"
d="M789 317v68h-317v-297h308v68h-225v161h234zM434 301l7 68c-106 18 -190 21 -271 21h-49v-301h301v68h-217v166c68 -1 143 -6 229 -22zM665 620v57c0 94 64 190 181 230l-44 60c-86 -33 -147 -95 -178 -170c-30 73 -87 139 -168 174c-77 -34 -128 -95 -155 -168
c-34 72 -96 133 -182 165l-41 -61c115 -40 184 -137 184 -224v-63h79v58c0 79 38 160 115 210c84 -54 129 -141 129 -212v-56h80zM46 485h814v66h-814v-66z" />
</svg>
