<?xml version="1.0" standalone="no"?>
<!DOCTYPE svg PUBLIC "-//W3C//DTD SVG 1.1//EN" "http://www.w3.org/Graphics/SVG/1.1/DTD/svg11.dtd" >
<svg xmlns="http://www.w3.org/2000/svg" xmlns:xlink="http://www.w3.org/1999/xlink" version="1.1" viewBox="-10 0 930 1000">
   <path fill="currentColor"
d="M788 317v68h-316v-297h307v68h-224v161h233zM434 301l7 68c-106 18 -190 21 -271 21h-49v-301h301v68h-217v166c68 -1 143 -6 229 -22zM451 887c145 0 230 -35 230 -96s-85 -95 -230 -95c-144 0 -228 34 -228 95s84 96 228 96zM451 628c197 0 315 59 315 163
s-118 163 -315 163c-195 0 -313 -59 -313 -163s118 -163 313 -163zM47 485h812v66h-812v-66z" />
</svg>
