<?xml version="1.0" standalone="no"?>
<!DOCTYPE svg PUBLIC "-//W3C//DTD SVG 1.1//EN" "http://www.w3.org/Graphics/SVG/1.1/DTD/svg11.dtd" >
<svg xmlns="http://www.w3.org/2000/svg" xmlns:xlink="http://www.w3.org/1999/xlink" version="1.1" viewBox="-10 0 930 1000">
   <path fill="currentColor"
d="M786 58v491h-79v-491h79zM610 297v66h-248v-257h237v66h-157v125h168zM328 282l10 64c-83 16 -146 17 -210 17h-39v-256h228v66h-154v125c50 -1 103 -4 165 -16zM639 424l5 60c-192 25 -406 34 -582 34l-12 -68c182 -1 402 -7 589 -26zM703 591v73c0 92 50 185 153 230
l-46 60c-72 -33 -120 -89 -147 -157c-27 73 -77 131 -153 164l-41 -53l4 25c-80 17 -144 18 -271 18h-48v-211h220v-81h-222v-61h302v199h-220v92c104 0 161 -3 231 -17l3 27c103 -45 155 -139 155 -235v-73h80z" />
</svg>
