<?xml version="1.0" standalone="no"?>
<!DOCTYPE svg PUBLIC "-//W3C//DTD SVG 1.1//EN" "http://www.w3.org/Graphics/SVG/1.1/DTD/svg11.dtd" >
<svg xmlns="http://www.w3.org/2000/svg" xmlns:xlink="http://www.w3.org/1999/xlink" version="1.1" viewBox="-10 0 930 1000">
   <path fill="currentColor"
d="M794 58v633h-83v-633h83zM628 345v66h-245v-295h235v66h-154v163h164zM351 327l7 64c-82 19 -147 20 -207 20h-40v-295h228v66h-147v163c47 -1 100 -5 159 -18zM655 469l5 60c-202 34 -424 38 -591 38l-12 -67c172 0 399 -3 598 -31zM539 634v34c0 111 136 197 297 219
l-30 64c-135 -21 -256 -82 -308 -176c-54 94 -174 155 -311 176l-30 -64c162 -22 299 -108 299 -219v-34h83z" />
</svg>
