<?xml version="1.0" standalone="no"?>
<!DOCTYPE svg PUBLIC "-//W3C//DTD SVG 1.1//EN" "http://www.w3.org/Graphics/SVG/1.1/DTD/svg11.dtd" >
<svg xmlns="http://www.w3.org/2000/svg" xmlns:xlink="http://www.w3.org/1999/xlink" version="1.1" viewBox="-10 0 930 1000">
   <path fill="currentColor"
d="M786 58v491h-79v-491h79zM610 297v66h-248v-257h237v66h-157v125h168zM328 282l10 64c-83 16 -146 17 -210 17h-39v-256h228v66h-154v125c50 -1 103 -4 165 -16zM639 424l5 60c-192 25 -406 34 -582 34l-12 -68c182 -1 402 -7 589 -26zM266 882h546v64h-631v-350h613v63
h-528v81h517v60h-517v82z" />
</svg>
