<?xml version="1.0" standalone="no"?>
<!DOCTYPE svg PUBLIC "-//W3C//DTD SVG 1.1//EN" "http://www.w3.org/Graphics/SVG/1.1/DTD/svg11.dtd" >
<svg xmlns="http://www.w3.org/2000/svg" xmlns:xlink="http://www.w3.org/1999/xlink" version="1.1" viewBox="-10 0 930 1000">
   <path fill="currentColor"
d="M629 388l10 64c-102 17 -178 19 -240 19h-43v-360h238v68h-158v227c53 -1 116 -5 193 -18zM323 386l10 65c-87 18 -154 18 -214 18h-40v-358h227v68h-152v225c48 -1 104 -5 169 -18zM241 786v100c109 0 184 -3 276 -19l6 65c-102 17 -182 18 -310 18h-54v-224h219v-87
h-222v-65h304v212h-219zM496 641v-67h289v380h-84v-313h-205zM705 58h80v463h-80v-463z" />
</svg>
