<?xml version="1.0" standalone="no"?>
<!DOCTYPE svg PUBLIC "-//W3C//DTD SVG 1.1//EN" "http://www.w3.org/Graphics/SVG/1.1/DTD/svg11.dtd" >
<svg xmlns="http://www.w3.org/2000/svg" xmlns:xlink="http://www.w3.org/1999/xlink" version="1.1" viewBox="-10 0 930 1000">
   <path fill="currentColor"
d="M85 258h319v-97h-322v-65h405v225h-320v108c152 0 268 -5 409 -25l8 65c-148 21 -268 25 -429 25h-70v-236zM198 788v100c83 0 149 -3 230 -16l6 62c-95 15 -165 16 -265 16h-47v-220h214v-88h-216v-62h292v208h-214zM537 791v94h222v63h-302v-368h292v62h-212v91h203v58
h-203zM745 254h134v69h-134v208h-84v-474h84v197z" />
</svg>
