<?xml version="1.0" standalone="no"?>
<!DOCTYPE svg PUBLIC "-//W3C//DTD SVG 1.1//EN" "http://www.w3.org/Graphics/SVG/1.1/DTD/svg11.dtd" >
<svg xmlns="http://www.w3.org/2000/svg" xmlns:xlink="http://www.w3.org/1999/xlink" version="1.1" viewBox="-10 0 930 1000">
   <path fill="currentColor"
d="M85 271h319v-103h-322v-67h405v234h-320v116c154 0 269 -6 408 -28l9 67c-145 23 -266 29 -428 29h-71v-248zM378 882v-113h-154v113h154zM378 708v-103h76v341h-307v-341h77v103h154zM699 602v63c0 83 51 181 151 228l-45 65c-71 -34 -120 -92 -147 -159
c-28 68 -80 125 -155 157l-45 -64c104 -44 159 -138 159 -222v-68h82zM745 269h133v69h-133v221h-84v-502h84v212z" />
</svg>
