<?xml version="1.0" standalone="no"?>
<!DOCTYPE svg PUBLIC "-//W3C//DTD SVG 1.1//EN" "http://www.w3.org/Graphics/SVG/1.1/DTD/svg11.dtd" >
<svg xmlns="http://www.w3.org/2000/svg" xmlns:xlink="http://www.w3.org/1999/xlink" version="1.1" viewBox="-10 0 930 1000">
   <path fill="currentColor"
d="M616 332v208h-79v-466h79v189h115v-205h79v526h-79v-252h-115zM484 417l8 65c-126 22 -226 26 -341 26h-59v-240h258v-101h-260v-64h342v228h-258v112c102 -1 198 -6 310 -26zM818 718h-256c19 86 151 153 295 170l-28 61c-137 -16 -261 -74 -314 -161
c-52 88 -176 145 -312 161l-28 -61c145 -17 276 -83 295 -170h-257v-65h261v-85h82v85h262v65z" />
</svg>
