<?xml version="1.0" standalone="no"?>
<!DOCTYPE svg PUBLIC "-//W3C//DTD SVG 1.1//EN" "http://www.w3.org/Graphics/SVG/1.1/DTD/svg11.dtd" >
<svg xmlns="http://www.w3.org/2000/svg" xmlns:xlink="http://www.w3.org/1999/xlink" version="1.1" viewBox="-10 0 930 1000">
   <path fill="currentColor"
d="M84 293h320v-117h-322v-67h404v247h-319v128c158 0 271 -6 408 -28l9 67c-142 23 -261 29 -429 29h-71v-259zM130 711v-67h303v313h-82v-246h-221zM685 635v39c0 98 54 185 159 223l-44 64c-78 -31 -129 -88 -157 -158c-30 70 -85 129 -164 161l-45 -62
c110 -43 169 -137 169 -227v-40h82zM878 264h-133v132h133v70h-133v132h-84v-540h84v136h133v70z" />
</svg>
