<?xml version="1.0" standalone="no"?>
<!DOCTYPE svg PUBLIC "-//W3C//DTD SVG 1.1//EN" "http://www.w3.org/Graphics/SVG/1.1/DTD/svg11.dtd" >
<svg xmlns="http://www.w3.org/2000/svg" xmlns:xlink="http://www.w3.org/1999/xlink" version="1.1" viewBox="-10 0 930 1000">
   <path fill="currentColor"
d="M84 258h320v-97h-322v-65h404v225h-319v108c152 0 268 -5 409 -25l7 65c-148 21 -267 25 -428 25h-71v-236zM217 789v98c101 -1 177 -4 270 -19l7 63c-105 17 -187 19 -306 19h-54v-221h213v-85h-215v-64h298v209h-213zM466 646v-66h279v375h-84v-309h-195zM878 246h-133
v108h133v67h-133v110h-84v-473h84v120h133v68z" />
</svg>
