<?xml version="1.0" standalone="no"?>
<!DOCTYPE svg PUBLIC "-//W3C//DTD SVG 1.1//EN" "http://www.w3.org/Graphics/SVG/1.1/DTD/svg11.dtd" >
<svg xmlns="http://www.w3.org/2000/svg" xmlns:xlink="http://www.w3.org/1999/xlink" version="1.1" viewBox="-10 0 930 1000">
   <path fill="currentColor"
d="M84 271h321v-103h-323v-68h406v235h-321v116c154 0 270 -6 408 -29l9 68c-145 23 -266 29 -429 29h-71v-248zM378 882v-112h-154v112h154zM378 709v-103h76v340h-307v-340h77v103h154zM699 602v63c0 82 51 180 151 228l-45 65c-71 -34 -120 -92 -147 -160
c-27 69 -79 126 -155 158l-45 -64c105 -44 159 -138 159 -224v-66h82zM878 253h-133v118h133v69h-133v120h-84v-502h84v126h133v69z" />
</svg>
