<?xml version="1.0" standalone="no"?>
<!DOCTYPE svg PUBLIC "-//W3C//DTD SVG 1.1//EN" "http://www.w3.org/Graphics/SVG/1.1/DTD/svg11.dtd" >
<svg xmlns="http://www.w3.org/2000/svg" xmlns:xlink="http://www.w3.org/1999/xlink" version="1.1" viewBox="-10 0 930 1000">
   <path fill="currentColor"
d="M734 258h-120v131h120v-131zM614 458v127h-77v-511h77v115h120v-132h77v533h-77v-132h-120zM484 473l8 66c-123 24 -225 29 -341 29h-59v-262h260v-117h-262v-67h345v249h-260v131c103 -1 199 -8 309 -29zM159 690v-67h302v333h-82v-266h-220zM718 610v61
c0 93 54 185 160 225l-44 63c-77 -31 -129 -88 -157 -158c-30 71 -86 129 -166 160l-45 -63c111 -42 171 -136 171 -226v-62h81z" />
</svg>
