<?xml version="1.0" standalone="no"?>
<!DOCTYPE svg PUBLIC "-//W3C//DTD SVG 1.1//EN" "http://www.w3.org/Graphics/SVG/1.1/DTD/svg11.dtd" >
<svg xmlns="http://www.w3.org/2000/svg" xmlns:xlink="http://www.w3.org/1999/xlink" version="1.1" viewBox="-10 0 930 1000">
   <path fill="currentColor"
d="M734 253h-120v119h120v-119zM614 441v120h-77v-486h77v108h120v-125h77v510h-77v-127h-120zM484 432l8 66c-123 23 -223 28 -341 28h-59v-244h260v-104h-262v-66h345v235h-260v113c105 -1 199 -7 309 -28zM728 881v-113h-428v113h428zM728 601h84v346h-595v-346h83v103
h428v-103z" />
</svg>
