<?xml version="1.0" standalone="no"?>
<!DOCTYPE svg PUBLIC "-//W3C//DTD SVG 1.1//EN" "http://www.w3.org/Graphics/SVG/1.1/DTD/svg11.dtd" >
<svg xmlns="http://www.w3.org/2000/svg" xmlns:xlink="http://www.w3.org/1999/xlink" version="1.1" viewBox="-10 0 930 1000">
   <path fill="currentColor"
d="M734 253h-120v119h120v-119zM614 441v123h-77v-490h77v109h120v-125h77v510h-77v-127h-120zM482 432l8 67c-126 22 -229 27 -339 27h-59v-245h260v-103h-262v-66h345v235h-260v113c99 -1 194 -7 307 -28zM405 884v-117h-160v117h160zM726 597v63c0 88 56 186 159 233
l-45 64c-73 -33 -125 -92 -154 -161c-29 71 -83 129 -159 162l-45 -63v53h-314v-347h77v105h160v-105h77v290c106 -47 163 -140 163 -227v-67h81z" />
</svg>
