<?xml version="1.0" standalone="no"?>
<!DOCTYPE svg PUBLIC "-//W3C//DTD SVG 1.1//EN" "http://www.w3.org/Graphics/SVG/1.1/DTD/svg11.dtd" >
<svg xmlns="http://www.w3.org/2000/svg" xmlns:xlink="http://www.w3.org/1999/xlink" version="1.1" viewBox="-10 0 930 1000">
   <path fill="currentColor"
d="M734 244h-120v111h120v-111zM614 422v115h-77v-463h77v102h120v-118h77v484h-77v-120h-120zM483 410l7 65c-125 22 -228 27 -339 27h-59v-237h260v-98h-262v-64h345v225h-260v109c99 -1 194 -6 308 -27zM289 884h548v61h-631v-363h612v61h-529v90h518v60h-518v91z" />
</svg>
