<?xml version="1.0" standalone="no"?>
<!DOCTYPE svg PUBLIC "-//W3C//DTD SVG 1.1//EN" "http://www.w3.org/Graphics/SVG/1.1/DTD/svg11.dtd" >
<svg xmlns="http://www.w3.org/2000/svg" xmlns:xlink="http://www.w3.org/1999/xlink" version="1.1" viewBox="-10 0 930 1000">
   <path fill="currentColor"
d="M734 258h-120v131h120v-131zM614 458v139h-77v-523h77v115h120v-132h77v547h-77v-146h-120zM485 473l7 66c-123 24 -225 29 -341 29h-59v-262h260v-117h-262v-67h345v249h-260v131c103 -1 199 -8 310 -29zM415 704v175h189v-175h-189zM686 879h143v66h-642v-66h146v-175
h-138v-65h628v65h-137v175z" />
</svg>
