<?xml version="1.0" standalone="no"?>
<!DOCTYPE svg PUBLIC "-//W3C//DTD SVG 1.1//EN" "http://www.w3.org/Graphics/SVG/1.1/DTD/svg11.dtd" >
<svg xmlns="http://www.w3.org/2000/svg" xmlns:xlink="http://www.w3.org/1999/xlink" version="1.1" viewBox="-10 0 930 1000">
   <path fill="currentColor"
d="M702 520v-196h-172v-68h172v-198h81v462h-81zM81 266h314v-104h-316v-65h397v233h-313v115c145 0 244 -2 368 -19l6 64c-131 18 -235 20 -390 20h-66v-244zM224 786v97c97 0 155 -3 227 -17l8 62c-82 16 -146 17 -265 17h-48v-218h202v-85h-204v-61h282v205h-202z
M643 899c50 0 83 -24 83 -63c0 -40 -33 -64 -83 -64s-83 24 -83 64c0 39 33 63 83 63zM643 716c88 0 153 46 153 120s-65 119 -153 119s-153 -45 -153 -119s65 -120 153 -120zM684 621h149v61h-374v-61h145v-83h80v83z" />
</svg>
