<?xml version="1.0" standalone="no"?>
<!DOCTYPE svg PUBLIC "-//W3C//DTD SVG 1.1//EN" "http://www.w3.org/Graphics/SVG/1.1/DTD/svg11.dtd" >
<svg xmlns="http://www.w3.org/2000/svg" xmlns:xlink="http://www.w3.org/1999/xlink" version="1.1" viewBox="-10 0 930 1000">
   <path fill="currentColor"
d="M811 58v540h-78v-540h78zM565 592v-243h-115v-67h115v-208h78v518h-78zM473 467l8 66c-120 22 -219 27 -331 27h-57v-265h248v-119h-250v-66h329v249h-249v133c100 -1 192 -5 302 -25zM158 690v-67h303v333h-82v-266h-221zM718 611v60c0 93 54 185 160 225l-44 63
c-77 -31 -129 -88 -157 -158c-30 71 -86 129 -166 160l-45 -63c111 -42 171 -136 171 -226v-61h81z" />
</svg>
