<?xml version="1.0" standalone="no"?>
<!DOCTYPE svg PUBLIC "-//W3C//DTD SVG 1.1//EN" "http://www.w3.org/Graphics/SVG/1.1/DTD/svg11.dtd" >
<svg xmlns="http://www.w3.org/2000/svg" xmlns:xlink="http://www.w3.org/1999/xlink" version="1.1" viewBox="-10 0 930 1000">
   <path fill="currentColor"
d="M564 527v-214h-110v-68h110v-172h77v454h-77zM229 793v95c96 0 159 -2 238 -16l10 61c-92 16 -162 17 -279 17h-49v-214h219v-91h-221v-64h300v212h-218zM172 329v112c100 -1 190 -6 301 -25l7 65c-121 21 -219 25 -330 25h-57v-240h253v-100h-255v-64h334v227h-253z
M737 884v-117h-163v117h163zM737 705v-125h74v369h-311v-369h74v125h163zM733 58h78v475h-78v-475z" />
</svg>
