<?xml version="1.0" standalone="no"?>
<!DOCTYPE svg PUBLIC "-//W3C//DTD SVG 1.1//EN" "http://www.w3.org/Graphics/SVG/1.1/DTD/svg11.dtd" >
<svg xmlns="http://www.w3.org/2000/svg" xmlns:xlink="http://www.w3.org/1999/xlink" version="1.1" viewBox="-10 0 930 1000">
   <path fill="currentColor"
d="M811 58v543h-78v-543h78zM565 596v-247h-114v-67h114v-208h78v522h-78zM93 295h248v-119h-250v-66h329v249h-249v133c100 -1 192 -5 302 -25l8 66c-120 22 -219 27 -331 27h-57v-265zM696 619v49c0 95 65 193 181 233l-44 59c-87 -32 -148 -96 -178 -172
c-29 74 -86 140 -167 176l-1 -2c-76 -33 -127 -96 -154 -169c-33 73 -96 136 -181 168l-43 -60c116 -41 185 -139 185 -228v-53h79v48c0 78 37 162 116 213c83 -55 128 -143 128 -215v-47h79z" />
</svg>
