<?xml version="1.0" standalone="no"?>
<!DOCTYPE svg PUBLIC "-//W3C//DTD SVG 1.1//EN" "http://www.w3.org/Graphics/SVG/1.1/DTD/svg11.dtd" >
<svg xmlns="http://www.w3.org/2000/svg" xmlns:xlink="http://www.w3.org/1999/xlink" version="1.1" viewBox="-10 0 930 1000">
   <path fill="currentColor"
d="M811 58v543h-78v-543h78zM565 596v-247h-114v-67h114v-208h77v522h-77zM473 467l8 66c-120 22 -219 27 -331 27h-57v-265h248v-119h-250v-66h329v249h-249v133c100 -1 192 -5 302 -25zM415 704v175h191v-175h-191zM687 879h142v66h-642v-66h147v-175h-139v-65h628v65
h-136v175z" />
</svg>
