<?xml version="1.0" standalone="no"?>
<!DOCTYPE svg PUBLIC "-//W3C//DTD SVG 1.1//EN" "http://www.w3.org/Graphics/SVG/1.1/DTD/svg11.dtd" >
<svg xmlns="http://www.w3.org/2000/svg" xmlns:xlink="http://www.w3.org/1999/xlink" version="1.1" viewBox="-10 0 930 1000">
   <path fill="currentColor"
d="M517 439l6 64c-115 17 -205 19 -378 19h-64v-248h313v-112h-315v-65h398v238h-313v122c159 0 245 -2 353 -18zM243 789v97c107 0 183 -3 277 -19l6 65c-105 17 -186 18 -312 18h-54v-220h218v-86h-220v-64h302v209h-217zM498 646v-66h287v375h-82v-309h-205zM703 58h82
v486h-82v-122h-177v-66h177v-115h-177v-66h177v-117z" />
</svg>
