<?xml version="1.0" standalone="no"?>
<!DOCTYPE svg PUBLIC "-//W3C//DTD SVG 1.1//EN" "http://www.w3.org/Graphics/SVG/1.1/DTD/svg11.dtd" >
<svg xmlns="http://www.w3.org/2000/svg" xmlns:xlink="http://www.w3.org/1999/xlink" version="1.1" viewBox="-10 0 930 1000">
   <path fill="currentColor"
d="M703 546v-124h-177v-66h177v-115h-177v-66h177v-117h82v488h-82zM518 439l6 64c-115 17 -205 19 -379 19h-64v-248h312v-112h-314v-65h397v238h-312v123c160 0 246 -3 354 -19zM230 787v98c94 0 154 -3 228 -17l7 64c-86 17 -153 18 -268 18h-47v-218h215v-87h-218v-65
h299v207h-216zM612 646v237h71v-237h-71zM748 883h62v67h-327v-67h63v-237h-59v-66h321v66h-60v237z" />
</svg>
