<?xml version="1.0" standalone="no"?>
<!DOCTYPE svg PUBLIC "-//W3C//DTD SVG 1.1//EN" "http://www.w3.org/Graphics/SVG/1.1/DTD/svg11.dtd" >
<svg xmlns="http://www.w3.org/2000/svg" xmlns:xlink="http://www.w3.org/1999/xlink" version="1.1" viewBox="-10 0 930 1000">
   <path fill="currentColor"
d="M703 573v-131h-177v-65h177v-119h-177v-66h177v-134h82v515h-82zM81 288h312v-118h-314v-67h397v247h-312v131c161 0 246 -3 353 -20l9 67c-114 18 -205 20 -380 20h-65v-260zM384 884v-114h-161v114h161zM706 600v63c0 88 55 185 157 230l-45 64
c-73 -33 -123 -91 -152 -158c-29 69 -83 126 -159 159l-46 -63v53h-315v-344h77v105h161v-105h77v287c105 -44 164 -136 164 -224v-67h81z" />
</svg>
