<?xml version="1.0" standalone="no"?>
<!DOCTYPE svg PUBLIC "-//W3C//DTD SVG 1.1//EN" "http://www.w3.org/Graphics/SVG/1.1/DTD/svg11.dtd" >
<svg xmlns="http://www.w3.org/2000/svg" xmlns:xlink="http://www.w3.org/1999/xlink" version="1.1" viewBox="-10 0 930 1000">
   <path fill="currentColor"
d="M701 563v-177h-174v-66h174v-92h-174v-67h174v-103h82v505h-82zM517 416l7 64c-132 24 -242 29 -379 29h-64v-241h305v-106h-307v-65h388v233h-304v115c126 -1 231 -7 354 -29zM491 895c110 0 171 -22 171 -62c0 -41 -61 -63 -171 -63c-111 0 -172 22 -172 63
c0 40 61 62 172 62zM491 712c159 0 250 42 250 121c0 77 -91 120 -250 120c-160 0 -251 -43 -251 -120c0 -79 91 -121 251 -121zM532 614h272v63h-626v-63h272v-86h82v86z" />
</svg>
