<?xml version="1.0" standalone="no"?>
<!DOCTYPE svg PUBLIC "-//W3C//DTD SVG 1.1//EN" "http://www.w3.org/Graphics/SVG/1.1/DTD/svg11.dtd" >
<svg xmlns="http://www.w3.org/2000/svg" xmlns:xlink="http://www.w3.org/1999/xlink" version="1.1" viewBox="-10 0 930 1000">
   <path fill="currentColor"
d="M563 580v-158h-122v-67h122v-101h-122v-67h122v-112h78v505h-78zM458 459l8 66c-110 20 -198 24 -316 24h-56v-251h224v-118h-226v-66h305v247h-224v122c104 -1 186 -5 285 -24zM185 705l-1 -66h295v318h-82v-252h-212zM522 705v-66h288v318h-82v-252h-206zM731 57h79
v532h-79v-532z" />
</svg>
