<?xml version="1.0" standalone="no"?>
<!DOCTYPE svg PUBLIC "-//W3C//DTD SVG 1.1//EN" "http://www.w3.org/Graphics/SVG/1.1/DTD/svg11.dtd" >
<svg xmlns="http://www.w3.org/2000/svg" xmlns:xlink="http://www.w3.org/1999/xlink" version="1.1" viewBox="-10 0 930 1000">
   <path fill="currentColor"
d="M563 578v-156h-122v-67h122v-103h-122v-66h122v-111h78v503h-78zM458 455l8 66c-110 20 -198 24 -316 24h-56v-251h224v-114h-226v-66h305v243h-224v122c104 -1 186 -5 285 -24zM191 705v-65h619v316h-83v-112l-547 25l-11 -65l558 -20v-79h-536zM731 57h79v530h-79v-530
z" />
</svg>
