<?xml version="1.0" standalone="no"?>
<!DOCTYPE svg PUBLIC "-//W3C//DTD SVG 1.1//EN" "http://www.w3.org/Graphics/SVG/1.1/DTD/svg11.dtd" >
<svg xmlns="http://www.w3.org/2000/svg" xmlns:xlink="http://www.w3.org/1999/xlink" version="1.1" viewBox="-10 0 930 1000">
   <path fill="currentColor"
d="M451 906c119 0 184 -15 184 -49c0 -33 -65 -48 -184 -48c-120 0 -185 15 -185 48c0 34 65 49 185 49zM451 754c174 0 269 34 269 103c0 70 -95 105 -269 105s-270 -35 -270 -105c0 -69 96 -103 270 -103zM492 577v72h289v62h-661v-62h290v-72h82zM492 484h366v61h-812
v-61h364v-81h-261v-192h522v-72h-524v-61h606v188h-522v78h539v59h-278v81z" />
</svg>
