<?xml version="1.0" standalone="no"?>
<!DOCTYPE svg PUBLIC "-//W3C//DTD SVG 1.1//EN" "http://www.w3.org/Graphics/SVG/1.1/DTD/svg11.dtd" >
<svg xmlns="http://www.w3.org/2000/svg" xmlns:xlink="http://www.w3.org/1999/xlink" version="1.1" viewBox="-10 0 930 1000">
   <path fill="currentColor"
d="M610 510l6 61c-182 25 -388 33 -554 34l-12 -71c75 0 159 -1 244 -4v-87h-169v-203h337v-79h-339v-63h423v202h-338v80h349v63h-179v83c80 -3 160 -8 232 -16zM685 663v17c0 92 53 179 159 213l-43 64c-78 -29 -128 -81 -156 -146c-30 66 -85 123 -163 152l-44 -61v55
h-82v-221h-217v-67h299v232c107 -40 167 -128 167 -215v-23h80zM750 324h131v70h-131v231h-83v-567h83v266z" />
</svg>
