<?xml version="1.0" standalone="no"?>
<!DOCTYPE svg PUBLIC "-//W3C//DTD SVG 1.1//EN" "http://www.w3.org/Graphics/SVG/1.1/DTD/svg11.dtd" >
<svg xmlns="http://www.w3.org/2000/svg" xmlns:xlink="http://www.w3.org/1999/xlink" version="1.1" viewBox="-10 0 930 1000">
   <path fill="currentColor"
d="M611 466l5 57c-182 24 -390 32 -555 33l-11 -66c75 0 159 -1 243 -4v-80h-171v-187h334v-68h-337v-57h421v180h-335v73h349v59h-176v76c80 -2 160 -8 233 -16zM691 611v48c0 97 49 190 152 234l-47 61c-71 -33 -118 -89 -144 -158c-27 73 -77 131 -151 164l-40 -50l4 24
c-80 15 -142 16 -265 16h-47v-198h211v-72h-213v-62h292v189h-210v81c99 0 154 -2 222 -15l4 25c102 -44 152 -136 152 -236v-51h80zM750 300h131v70h-131v203h-83v-515h83v242z" />
</svg>
