<?xml version="1.0" standalone="no"?>
<!DOCTYPE svg PUBLIC "-//W3C//DTD SVG 1.1//EN" "http://www.w3.org/Graphics/SVG/1.1/DTD/svg11.dtd" >
<svg xmlns="http://www.w3.org/2000/svg" xmlns:xlink="http://www.w3.org/1999/xlink" version="1.1" viewBox="-10 0 930 1000">
   <path fill="currentColor"
d="M612 473l4 55c-188 29 -396 33 -555 34l-11 -63c73 0 157 -1 243 -4v-84h-171v-188h334v-72h-337v-57h421v183h-335v75h349v59h-176v81c79 -4 160 -9 234 -19zM761 752h-262c24 76 150 137 297 151l-26 61c-139 -15 -263 -68 -317 -147c-54 79 -178 133 -317 148l-26 -61
c148 -14 274 -76 297 -152h-262v-66h267v-90h82v90h267v66zM749 290h132v67h-132v267h-82v-566h82v232z" />
</svg>
