<?xml version="1.0" standalone="no"?>
<!DOCTYPE svg PUBLIC "-//W3C//DTD SVG 1.1//EN" "http://www.w3.org/Graphics/SVG/1.1/DTD/svg11.dtd" >
<svg xmlns="http://www.w3.org/2000/svg" xmlns:xlink="http://www.w3.org/1999/xlink" version="1.1" viewBox="-10 0 930 1000">
   <path fill="currentColor"
d="M172 727v-66h305v295h-83v-229h-222zM329 437v82c65 -3 129 -7 183 -13l6 62c-139 20 -327 28 -452 28l-13 -70c56 0 125 -2 197 -4v-85h-146v-195h286v-74h-288v-61h369v193h-286v76h299v61h-155zM521 727v-66h296v295h-82v-229h-214zM739 57h78v561h-78v-232h-108v223
h-77v-537h77v246h108v-261z" />
</svg>
