<?xml version="1.0" standalone="no"?>
<!DOCTYPE svg PUBLIC "-//W3C//DTD SVG 1.1//EN" "http://www.w3.org/Graphics/SVG/1.1/DTD/svg11.dtd" >
<svg xmlns="http://www.w3.org/2000/svg" xmlns:xlink="http://www.w3.org/1999/xlink" version="1.1" viewBox="-10 0 930 1000">
   <path fill="currentColor"
d="M623 375v233h-77v-534h77v234h107v-251h78v563h-78v-245h-107zM505 506l6 57c-148 27 -335 29 -456 29l-11 -65c57 0 130 0 206 -3v-84h-149v-200h284v-77h-286v-60h365v195h-284v81h300v61h-150v81c61 -3 122 -7 175 -15zM692 650v20c0 90 68 177 181 212l-38 61
c-90 -30 -151 -89 -182 -162c-27 72 -82 137 -166 169c-85 -32 -139 -96 -166 -167c-31 71 -93 130 -181 160l-38 -61c113 -35 180 -124 180 -212v-20h79v20c0 73 41 156 126 203c84 -48 126 -131 126 -203v-20h79z" />
</svg>
