<?xml version="1.0" standalone="no"?>
<!DOCTYPE svg PUBLIC "-//W3C//DTD SVG 1.1//EN" "http://www.w3.org/Graphics/SVG/1.1/DTD/svg11.dtd" >
<svg xmlns="http://www.w3.org/2000/svg" xmlns:xlink="http://www.w3.org/1999/xlink" version="1.1" viewBox="-10 0 930 1000">
   <path fill="currentColor"
d="M631 386v222h-77v-537h77v247h108v-261h78v561h-78v-232h-108zM512 506l6 62c-139 20 -327 28 -452 28l-13 -70c56 0 125 -2 197 -4v-85h-146v-195h286v-74h-288v-61h369v193h-286v76h299v61h-155v82c66 -3 129 -7 183 -13zM406 720v163h197v-163h-197zM685 883h150v62
h-658v-62h148v-163h-140v-61h640v61h-140v163z" />
</svg>
