<?xml version="1.0" standalone="no"?>
<!DOCTYPE svg PUBLIC "-//W3C//DTD SVG 1.1//EN" "http://www.w3.org/Graphics/SVG/1.1/DTD/svg11.dtd" >
<svg xmlns="http://www.w3.org/2000/svg" xmlns:xlink="http://www.w3.org/1999/xlink" version="1.1" viewBox="-10 0 930 1000">
   <path fill="currentColor"
d="M781 58v510h-82v-510h82zM631 465l5 58c-188 23 -400 32 -571 33l-11 -66c78 0 163 -1 249 -4v-80h-175v-188h339v-67h-341v-57h425v180h-339v72h351v60h-176v76c84 -4 168 -9 244 -17zM223 805v84c85 0 153 -3 236 -17l6 62c-96 15 -169 16 -271 16h-48v-200h219v-85
h-221v-61h298v201h-219zM575 887h223v61h-302v-343h292v61h-213v82h203v55h-203v84z" />
</svg>
