<?xml version="1.0" standalone="no"?>
<!DOCTYPE svg PUBLIC "-//W3C//DTD SVG 1.1//EN" "http://www.w3.org/Graphics/SVG/1.1/DTD/svg11.dtd" >
<svg xmlns="http://www.w3.org/2000/svg" xmlns:xlink="http://www.w3.org/1999/xlink" version="1.1" viewBox="-10 0 930 1000">
   <path fill="currentColor"
d="M789 57v642h-82v-642h82zM637 511l5 59c-191 29 -407 36 -574 37l-11 -66c75 0 161 -1 248 -5v-92h-171v-200h342v-80h-344v-61h425v200h-342v79h359v62h-187v89c85 -5 170 -11 250 -22zM532 647v26c0 111 137 193 299 214l-30 64c-136 -20 -257 -80 -310 -172
c-53 92 -174 152 -310 172l-30 -64c162 -21 298 -103 298 -214v-26h83z" />
</svg>
