<?xml version="1.0" standalone="no"?>
<!DOCTYPE svg PUBLIC "-//W3C//DTD SVG 1.1//EN" "http://www.w3.org/Graphics/SVG/1.1/DTD/svg11.dtd" >
<svg xmlns="http://www.w3.org/2000/svg" xmlns:xlink="http://www.w3.org/1999/xlink" version="1.1" viewBox="-10 0 930 1000">
   <path fill="currentColor"
d="M628 502l5 61c-188 23 -398 31 -570 32l-12 -69c78 0 164 -1 250 -4v-79h-170v-203h339v-79h-341v-63h426v201h-340v81h352v63h-182v76c83 -3 166 -9 243 -17zM169 731v-63h612v288h-83v-102l-538 27l-12 -65l550 -18v-67h-529zM699 58h82v559h-82v-559z" />
</svg>
