<?xml version="1.0" standalone="no"?>
<!DOCTYPE svg PUBLIC "-//W3C//DTD SVG 1.1//EN" "http://www.w3.org/Graphics/SVG/1.1/DTD/svg11.dtd" >
<svg xmlns="http://www.w3.org/2000/svg" xmlns:xlink="http://www.w3.org/1999/xlink" version="1.1" viewBox="-10 0 930 1000">
   <path fill="currentColor"
d="M781 58v559h-81v-559h81zM628 506l5 60c-188 24 -398 32 -570 33l-12 -69c78 0 164 -2 250 -5v-82h-170v-203h339v-79h-341v-63h426v201h-340v81h352v63h-182v79c83 -4 166 -8 243 -16zM395 727v156h196v-156h-196zM673 883h137v62h-636v-62h139v-156h-132v-61h619v61
h-127v156z" />
</svg>
