<?xml version="1.0" standalone="no"?>
<!DOCTYPE svg PUBLIC "-//W3C//DTD SVG 1.1//EN" "http://www.w3.org/Graphics/SVG/1.1/DTD/svg11.dtd" >
<svg xmlns="http://www.w3.org/2000/svg" xmlns:xlink="http://www.w3.org/1999/xlink" version="1.1" viewBox="-10 0 930 1000">
   <path fill="currentColor"
d="M502 657v16c0 113 135 194 300 216l-29 62c-138 -20 -260 -78 -313 -170c-55 92 -177 150 -315 170l-28 -62c164 -22 301 -103 301 -216v-16h84zM363 451v94h196v-94h-196zM640 545h226v66h-814v-66h230v-94h-125v-216h524v-86h-526v-64h607v211h-524v91h543v64h-141v94z
" />
</svg>
