<?xml version="1.0" standalone="no"?>
<!DOCTYPE svg PUBLIC "-//W3C//DTD SVG 1.1//EN" "http://www.w3.org/Graphics/SVG/1.1/DTD/svg11.dtd" >
<svg xmlns="http://www.w3.org/2000/svg" xmlns:xlink="http://www.w3.org/1999/xlink" version="1.1" viewBox="-10 0 930 1000">
   <path fill="currentColor"
d="M671 216v-72h-524v-59h606v184h-522v76h539v58h-621v-187h522zM638 908c47 0 80 -23 80 -59c0 -37 -33 -60 -80 -60c-48 0 -81 23 -81 60c0 36 33 59 81 59zM638 736c86 0 150 42 150 113c0 69 -64 112 -150 112c-87 0 -151 -43 -151 -112c0 -71 64 -113 151 -113z
M677 573v73h150v61h-376v-61h146v-73h80zM46 470h812v61h-366v108h-73v159h-206v87c113 0 171 -2 245 -16l8 62c-83 15 -146 16 -281 16h-50v-206h206v-76h-208v-59h277v-75h-364v-61z" />
</svg>
