<?xml version="1.0" standalone="no"?>
<!DOCTYPE svg PUBLIC "-//W3C//DTD SVG 1.1//EN" "http://www.w3.org/Graphics/SVG/1.1/DTD/svg11.dtd" >
<svg xmlns="http://www.w3.org/2000/svg" xmlns:xlink="http://www.w3.org/1999/xlink" version="1.1" viewBox="-10 0 930 1000">
   <path fill="currentColor"
d="M668 236v-87h-521v-63h606v210h-519v86h533v63h-618v-209h519zM662 654v21c0 91 65 186 181 225l-44 59c-85 -32 -146 -92 -177 -166c-29 72 -87 138 -168 173c-78 -35 -130 -96 -157 -169c-33 70 -96 130 -182 160l-41 -60c117 -39 186 -134 186 -219v-24h79v22
c0 78 37 158 115 207c83 -52 128 -137 128 -206v-23h80zM46 517h812v67h-364v113h-82v-113h-366v-67z" />
</svg>
