<?xml version="1.0" standalone="no"?>
<!DOCTYPE svg PUBLIC "-//W3C//DTD SVG 1.1//EN" "http://www.w3.org/Graphics/SVG/1.1/DTD/svg11.dtd" >
<svg xmlns="http://www.w3.org/2000/svg" xmlns:xlink="http://www.w3.org/1999/xlink" version="1.1" viewBox="-10 0 930 1000">
   <path fill="currentColor"
d="M515 541h188v-484h82v591h-82v-47h-188v-60zM470 207v-68h-343v-59h427v177h-341v73h353v60h-437v-183h341zM287 643v-130c-80 2 -159 3 -230 3l-12 -66c180 -1 392 -3 577 -18l8 58c-85 9 -173 15 -260 19v134h-83zM271 881h532v65h-616v-273h610v63h-526v145z" />
</svg>
