<?xml version="1.0" standalone="no"?>
<!DOCTYPE svg PUBLIC "-//W3C//DTD SVG 1.1//EN" "http://www.w3.org/Graphics/SVG/1.1/DTD/svg11.dtd" >
<svg xmlns="http://www.w3.org/2000/svg" xmlns:xlink="http://www.w3.org/1999/xlink" version="1.1" viewBox="-10 0 930 1000">
   <path fill="currentColor"
d="M515 508h188v-450h82v535h-82v-33h-188v-52zM466 196v-62h-340v-58h423v169h-337v67h352v58h-436v-174h338zM287 592v-108c-81 3 -159 4 -230 4l-12 -63c179 0 392 -3 581 -18l5 54c-84 9 -174 16 -261 20v111h-83zM219 813v80c87 -1 155 -4 240 -17l6 57
c-98 16 -172 17 -276 17h-47v-192h222v-77h-224v-58h301v190h-222zM575 890h226v58h-305v-325h295v59h-216v78h208v54h-208v76z" />
</svg>
