<?xml version="1.0" standalone="no"?>
<!DOCTYPE svg PUBLIC "-//W3C//DTD SVG 1.1//EN" "http://www.w3.org/Graphics/SVG/1.1/DTD/svg11.dtd" >
<svg xmlns="http://www.w3.org/2000/svg" xmlns:xlink="http://www.w3.org/1999/xlink" version="1.1" viewBox="-10 0 930 1000">
   <path fill="currentColor"
d="M412 547h159v-470h77v560h-77v-31h-159v-59zM387 218v-60h-285v-59h367v170h-283v65h298v60h-379v-176h282zM245 637v-125c-67 3 -129 5 -182 5l-12 -69c131 -1 329 -7 465 -21l5 60c-61 8 -129 15 -198 20v130h-78zM168 740v-65h307v280h-82v-215h-225zM520 740v-65h297
v280h-82v-215h-215zM739 57h78v582h-78v-582z" />
</svg>
