<?xml version="1.0" standalone="no"?>
<!DOCTYPE svg PUBLIC "-//W3C//DTD SVG 1.1//EN" "http://www.w3.org/Graphics/SVG/1.1/DTD/svg11.dtd" >
<svg xmlns="http://www.w3.org/2000/svg" xmlns:xlink="http://www.w3.org/1999/xlink" version="1.1" viewBox="-10 0 930 1000">
   <path fill="currentColor"
d="M417 504h159v-435h78v525h-78v-39h-159v-51zM387 204v-58h-280v-57h361v164h-278v60h292v59h-373v-168h278zM252 589v-108c-67 3 -132 5 -187 5l-10 -62c135 -1 335 -7 472 -19l4 54c-60 7 -130 13 -200 18v112h-79zM225 815v77c116 0 175 -2 246 -16l8 57
c-81 16 -145 17 -286 17h-49v-189h227v-77h-229v-59h310v190h-227zM742 890v-104h-163v104h163zM742 728v-104h75v324h-313v-324h75v104h163zM739 58h78v537h-78v-537z" />
</svg>
