<?xml version="1.0" standalone="no"?>
<!DOCTYPE svg PUBLIC "-//W3C//DTD SVG 1.1//EN" "http://www.w3.org/Graphics/SVG/1.1/DTD/svg11.dtd" >
<svg xmlns="http://www.w3.org/2000/svg" xmlns:xlink="http://www.w3.org/1999/xlink" version="1.1" viewBox="-10 0 930 1000">
   <path fill="currentColor"
d="M817 57v538h-78v-538h78zM417 504h159v-435h77v523h-77v-37h-159v-51zM387 204v-58h-280v-57h361v164h-278v60h292v59h-373v-168h278zM251 589v-108c-67 3 -131 5 -186 5l-10 -62c135 -1 335 -7 472 -19l4 54c-60 7 -129 13 -199 18v112h-81zM237 809v82
c99 0 161 -3 239 -17l7 58c-88 17 -158 18 -277 18h-48v-194h226v-70h-228v-60h307v183h-226zM637 686v203h68v-203h-68zM771 889h66v61h-331v-61h66v-203h-62v-61h321v61h-60v203z" />
</svg>
