<?xml version="1.0" standalone="no"?>
<!DOCTYPE svg PUBLIC "-//W3C//DTD SVG 1.1//EN" "http://www.w3.org/Graphics/SVG/1.1/DTD/svg11.dtd" >
<svg xmlns="http://www.w3.org/2000/svg" xmlns:xlink="http://www.w3.org/1999/xlink" version="1.1" viewBox="-10 0 930 1000">
   <path fill="currentColor"
d="M781 57v517h-82v-517h82zM473 206v-68h-347v-57h429v180h-344v73h353v58h-435v-186h344zM309 635v-111c-86 3 -170 4 -245 4l-12 -67c177 0 393 -1 586 -18l6 58c-82 9 -168 16 -253 20v114h-82zM232 658v213c57 -2 130 -10 196 -32l13 67c-88 28 -176 34 -245 34h-45
v-282h81zM631 912c54 0 94 -17 94 -47s-40 -47 -94 -47c-55 0 -93 17 -93 47s38 47 93 47zM631 765c97 0 166 39 166 100s-69 100 -166 100c-96 0 -165 -39 -165 -100s69 -100 165 -100zM671 670h180v62h-439v-62h180v-79h79v79z" />
</svg>
