<?xml version="1.0" standalone="no"?>
<!DOCTYPE svg PUBLIC "-//W3C//DTD SVG 1.1//EN" "http://www.w3.org/Graphics/SVG/1.1/DTD/svg11.dtd" >
<svg xmlns="http://www.w3.org/2000/svg" xmlns:xlink="http://www.w3.org/1999/xlink" version="1.1" viewBox="-10 0 930 1000">
   <path fill="currentColor"
d="M473 214v-69h-344v-61h426v188h-343v74h356v61h-437v-193h342zM305 671v-125c-86 2 -169 2 -244 2l-11 -66c177 1 396 1 590 -18l5 57c-84 11 -173 18 -258 22v128h-82zM701 887v-94h-428v94h428zM701 735v-98h81v310h-591v-310h82v98h428zM700 58h82v531h-82v-531z" />
</svg>
