<?xml version="1.0" standalone="no"?>
<!DOCTYPE svg PUBLIC "-//W3C//DTD SVG 1.1//EN" "http://www.w3.org/Graphics/SVG/1.1/DTD/svg11.dtd" >
<svg xmlns="http://www.w3.org/2000/svg" xmlns:xlink="http://www.w3.org/1999/xlink" version="1.1" viewBox="-10 0 930 1000">
   <path fill="currentColor"
d="M784 57v571h-82v-571h82zM481 234v-80h-351v-61h433v198h-349v81h363v62h-445v-200h349zM308 679v-113c-86 2 -170 3 -245 3l-12 -69c179 0 397 -1 592 -18l6 59c-84 11 -173 17 -259 21v117h-82zM683 685v17c0 86 68 168 182 201l-38 60c-88 -27 -152 -83 -184 -152
c-27 68 -82 129 -166 160c-84 -31 -139 -91 -166 -160c-31 68 -95 124 -184 152l-36 -60c112 -34 181 -117 181 -201v-17h78v17c0 71 44 150 126 193c84 -44 127 -124 127 -193v-17h80z" />
</svg>
