<?xml version="1.0" standalone="no"?>
<!DOCTYPE svg PUBLIC "-//W3C//DTD SVG 1.1//EN" "http://www.w3.org/Graphics/SVG/1.1/DTD/svg11.dtd" >
<svg xmlns="http://www.w3.org/2000/svg" xmlns:xlink="http://www.w3.org/1999/xlink" version="1.1" viewBox="-10 0 930 1000">
   <path fill="currentColor"
d="M786 57v592h-82v-592h82zM478 230v-75h-346v-60h427v193h-344v80h360v61h-440v-199h343zM490 892c138 0 217 -32 217 -86c0 -55 -79 -86 -217 -86s-216 31 -216 86c0 54 78 86 216 86zM388 563v101c31 -4 64 -6 102 -6c188 0 299 52 299 148c0 95 -111 147 -299 147
s-299 -52 -299 -147c0 -59 42 -100 115 -124v-115c-87 3 -171 4 -246 4l-11 -66c176 0 399 -1 596 -26l6 58c-86 13 -176 22 -263 26z" />
</svg>
