<?xml version="1.0" standalone="no"?>
<!DOCTYPE svg PUBLIC "-//W3C//DTD SVG 1.1//EN" "http://www.w3.org/Graphics/SVG/1.1/DTD/svg11.dtd" >
<svg xmlns="http://www.w3.org/2000/svg" xmlns:xlink="http://www.w3.org/1999/xlink" version="1.1" viewBox="-10 0 930 1000">
   <path fill="currentColor"
d="M781 57v561h-82v-561h82zM468 206v-63h-343v-56h424v174h-340v67h353v59h-434v-181h340zM306 618v-100c-85 3 -169 4 -243 4l-12 -64c176 0 393 -1 585 -19l7 55c-83 10 -170 16 -255 21v103h-82zM803 744h-273c27 76 153 137 298 152l-27 62
c-140 -16 -264 -71 -319 -153c-54 83 -180 139 -319 156l-28 -62c146 -15 271 -78 299 -155h-276v-64h283v-84h82v84h280v64z" />
</svg>
