<?xml version="1.0" standalone="no"?>
<!DOCTYPE svg PUBLIC "-//W3C//DTD SVG 1.1//EN" "http://www.w3.org/Graphics/SVG/1.1/DTD/svg11.dtd" >
<svg xmlns="http://www.w3.org/2000/svg" xmlns:xlink="http://www.w3.org/1999/xlink" version="1.1" viewBox="-10 0 930 1000">
   <path fill="currentColor"
d="M668 236v-87h-521v-63h606v210h-519v86h533v63h-618v-209h519zM858 577h-218v91h36v18c0 84 56 172 158 210l-45 62c-76 -30 -127 -86 -154 -153c-30 67 -85 126 -161 157l-46 -63c98 -36 156 -119 166 -194h-38v-128h-208v97h76v280h-81v-215h-214v-65h136v-97h-219v-66
h812v66z" />
</svg>
