<?xml version="1.0" standalone="no"?>
<!DOCTYPE svg PUBLIC "-//W3C//DTD SVG 1.1//EN" "http://www.w3.org/Graphics/SVG/1.1/DTD/svg11.dtd" >
<svg xmlns="http://www.w3.org/2000/svg" xmlns:xlink="http://www.w3.org/1999/xlink" version="1.1" viewBox="-10 0 930 1000">
   <path fill="currentColor"
d="M669 216v-72h-522v-59h606v184h-520v76h537v58h-621v-187h520zM703 885v-108h-152v108h152zM703 716v-112h76v343h-304v-343h76v112h152zM46 468h814v61h-219v105h-84v-105h-209v78h75v197h-212v86c105 0 162 -2 231 -16l8 58c-79 16 -142 18 -272 18h-47v-200h211v-82
h-214v-61h137v-78h-219v-61z" />
</svg>
