<?xml version="1.0" standalone="no"?>
<!DOCTYPE svg PUBLIC "-//W3C//DTD SVG 1.1//EN" "http://www.w3.org/Graphics/SVG/1.1/DTD/svg11.dtd" >
<svg xmlns="http://www.w3.org/2000/svg" xmlns:xlink="http://www.w3.org/1999/xlink" version="1.1" viewBox="-10 0 930 1000">
   <path fill="currentColor"
d="M669 216v-72h-522v-59h606v184h-520v76h537v58h-621v-187h520zM596 631h-39v-102h-208v79h76v193h-219v88c104 0 160 -3 230 -17l5 27c104 -43 155 -139 155 -239v-29zM860 529h-219v72h37v61c0 95 49 188 151 232l-45 61c-73 -33 -122 -90 -147 -160
c-26 74 -76 134 -152 167l-44 -58l5 29c-81 17 -145 17 -272 17h-47v-204h218v-77h-221v-61h141v-79h-219v-61h814v61z" />
</svg>
