<?xml version="1.0" standalone="no"?>
<!DOCTYPE svg PUBLIC "-//W3C//DTD SVG 1.1//EN" "http://www.w3.org/Graphics/SVG/1.1/DTD/svg11.dtd" >
<svg xmlns="http://www.w3.org/2000/svg" xmlns:xlink="http://www.w3.org/1999/xlink" version="1.1" viewBox="-10 0 930 1000">
   <path fill="currentColor"
d="M669 216v-72h-522v-59h606v184h-520v76h537v58h-621v-187h520zM364 884v-91h-160v91h160zM857 529h-217v107h42v40c0 81 58 173 157 214l-45 64c-72 -31 -123 -87 -152 -152c-30 67 -83 122 -158 152l-43 -61v54h-315v-307h78v92h160v-92h77v248
c102 -39 161 -129 161 -215v-29h-45v-115h-209v115h-83v-115h-219v-61h811v61z" />
</svg>
