<?xml version="1.0" standalone="no"?>
<!DOCTYPE svg PUBLIC "-//W3C//DTD SVG 1.1//EN" "http://www.w3.org/Graphics/SVG/1.1/DTD/svg11.dtd" >
<svg xmlns="http://www.w3.org/2000/svg" xmlns:xlink="http://www.w3.org/1999/xlink" version="1.1" viewBox="-10 0 930 1000">
   <path fill="currentColor"
d="M681 235v-88h-526v-63h607v212h-524v89h543v63h-624v-213h524zM501 652v17c0 117 135 198 300 220l-29 63c-137 -21 -259 -79 -313 -173c-54 94 -178 152 -314 173l-30 -64c166 -21 302 -102 302 -219v-17h84zM52 519h814v66h-179v140h-82v-140h-292v140h-82v-140h-179
v-66z" />
</svg>
