<?xml version="1.0" standalone="no"?>
<!DOCTYPE svg PUBLIC "-//W3C//DTD SVG 1.1//EN" "http://www.w3.org/Graphics/SVG/1.1/DTD/svg11.dtd" >
<svg xmlns="http://www.w3.org/2000/svg" xmlns:xlink="http://www.w3.org/1999/xlink" version="1.1" viewBox="-10 0 930 1000">
   <path fill="currentColor"
d="M671 216v-72h-524v-59h606v184h-522v76h539v58h-621v-187h522zM769 729h-270c26 85 150 155 294 172l-28 62c-137 -19 -260 -79 -314 -167c-54 89 -177 150 -314 169l-28 -61c144 -18 268 -90 295 -175h-270v-62h276v-79h82v79h277v62zM46 468h812v61h-200v105h-82v-105
h-248v104h-81v-104h-201v-61z" />
</svg>
