<?xml version="1.0" standalone="no"?>
<!DOCTYPE svg PUBLIC "-//W3C//DTD SVG 1.1//EN" "http://www.w3.org/Graphics/SVG/1.1/DTD/svg11.dtd" >
<svg xmlns="http://www.w3.org/2000/svg" xmlns:xlink="http://www.w3.org/1999/xlink" version="1.1" viewBox="-10 0 930 1000">
   <path fill="currentColor"
d="M466 218v-67h-341v-57h425v180h-338v72h353v60h-437v-188h338zM629 459l6 57c-184 21 -397 31 -570 32l-13 -66c180 -1 397 -8 577 -23zM223 805v85c105 0 161 -2 230 -16l9 59c-80 15 -141 17 -272 17h-48v-199h211v-83h-213v-62h294v199h-211zM706 891v-115h-145v115
h145zM706 715v-110h75v347h-295v-347h75v110h145zM699 58h82v507h-82v-507z" />
</svg>
