<?xml version="1.0" standalone="no"?>
<!DOCTYPE svg PUBLIC "-//W3C//DTD SVG 1.1//EN" "http://www.w3.org/Graphics/SVG/1.1/DTD/svg11.dtd" >
<svg xmlns="http://www.w3.org/2000/svg" xmlns:xlink="http://www.w3.org/1999/xlink" version="1.1" viewBox="-10 0 930 1000">
   <path fill="currentColor"
d="M782 58v555h-83v-555h83zM468 218v-67h-342v-57h424v180h-340v72h352v60h-434v-188h340zM631 456l4 55c-194 31 -406 35 -570 35l-12 -63c170 -1 390 -3 578 -27zM803 739h-275c25 78 152 142 300 157l-27 62c-140 -16 -264 -71 -319 -153c-54 83 -180 139 -319 156
l-28 -63c150 -14 277 -80 301 -159h-278v-64h283v-90h82v90h280v64z" />
</svg>
