<?xml version="1.0" standalone="no"?>
<!DOCTYPE svg PUBLIC "-//W3C//DTD SVG 1.1//EN" "http://www.w3.org/Graphics/SVG/1.1/DTD/svg11.dtd" >
<svg xmlns="http://www.w3.org/2000/svg" xmlns:xlink="http://www.w3.org/1999/xlink" version="1.1" viewBox="-10 0 930 1000">
   <path fill="currentColor"
d="M789 57v552h-82v-552h82zM598 459l9 66c-147 24 -269 29 -435 29h-72v-256h324v-118h-327v-67h408v248h-325v126c159 0 276 -5 418 -28zM492 888c138 0 220 -36 220 -98c0 -61 -82 -97 -220 -97c-136 0 -218 36 -218 97c0 62 82 98 218 98zM492 628c187 0 302 59 302 162
c0 104 -115 163 -302 163c-186 0 -300 -59 -300 -163c0 -103 114 -162 300 -162z" />
</svg>
