<?xml version="1.0" standalone="no"?>
<!DOCTYPE svg PUBLIC "-//W3C//DTD SVG 1.1//EN" "http://www.w3.org/Graphics/SVG/1.1/DTD/svg11.dtd" >
<svg xmlns="http://www.w3.org/2000/svg" xmlns:xlink="http://www.w3.org/1999/xlink" version="1.1" viewBox="-10 0 930 1000">
   <path fill="currentColor"
d="M781 58v526h-84v-526h84zM587 447l10 66c-139 24 -255 30 -433 30h-71v-254h324v-113h-326v-67h409v242h-325v125c169 0 280 -6 412 -29zM792 703h-250c17 88 142 165 283 185l-30 62c-131 -21 -247 -84 -298 -171c-50 88 -166 150 -298 171l-32 -62
c143 -20 267 -96 285 -185h-248v-66h588v66z" />
</svg>
