<?xml version="1.0" standalone="no"?>
<!DOCTYPE svg PUBLIC "-//W3C//DTD SVG 1.1//EN" "http://www.w3.org/Graphics/SVG/1.1/DTD/svg11.dtd" >
<svg xmlns="http://www.w3.org/2000/svg" xmlns:xlink="http://www.w3.org/1999/xlink" version="1.1" viewBox="-10 0 930 1000">
   <path fill="currentColor"
d="M780 58v492h-82v-492h82zM588 394l8 64c-149 22 -269 25 -432 25h-71v-229h325v-93h-327v-65h409v220h-326v103c155 0 272 -4 414 -25zM487 894c110 0 172 -24 172 -67s-62 -67 -172 -67s-171 24 -171 67s61 67 171 67zM487 701c159 0 251 44 251 126s-92 126 -251 126
c-158 0 -250 -44 -250 -126s92 -126 250 -126zM528 600h272v63h-625v-63h271v-84h82v84z" />
</svg>
