<?xml version="1.0" standalone="no"?>
<!DOCTYPE svg PUBLIC "-//W3C//DTD SVG 1.1//EN" "http://www.w3.org/Graphics/SVG/1.1/DTD/svg11.dtd" >
<svg xmlns="http://www.w3.org/2000/svg" xmlns:xlink="http://www.w3.org/1999/xlink" version="1.1" viewBox="-10 0 930 1000">
   <path fill="currentColor"
d="M420 412v-238h-253v238h253zM501 110v366h-416v-366h416zM772 710h-255c14 85 144 158 290 175l-29 62c-133 -18 -253 -77 -305 -160c-52 84 -172 144 -305 163l-29 -62c146 -19 276 -92 290 -178h-256v-65h259v-99h82v99h258v65zM742 265h135v67h-135v242h-82v-516h82
v207z" />
</svg>
