<?xml version="1.0" standalone="no"?>
<!DOCTYPE svg PUBLIC "-//W3C//DTD SVG 1.1//EN" "http://www.w3.org/Graphics/SVG/1.1/DTD/svg11.dtd" >
<svg xmlns="http://www.w3.org/2000/svg" xmlns:xlink="http://www.w3.org/1999/xlink" version="1.1" viewBox="-10 0 930 1000">
   <path fill="currentColor"
d="M367 411v-234h-195v234h195zM445 114v360h-350v-360h350zM249 786v100c108 0 189 -2 289 -19l7 64c-111 17 -198 19 -321 19h-56v-225h229v-86h-231v-65h312v212h-229zM517 641v-67h295v380h-84v-313h-211zM733 58h79v473h-79v-203h-117v196h-79v-449h79v185h117v-202z
" />
</svg>
