<?xml version="1.0" standalone="no"?>
<!DOCTYPE svg PUBLIC "-//W3C//DTD SVG 1.1//EN" "http://www.w3.org/Graphics/SVG/1.1/DTD/svg11.dtd" >
<svg xmlns="http://www.w3.org/2000/svg" xmlns:xlink="http://www.w3.org/1999/xlink" version="1.1" viewBox="-10 0 930 1000">
   <path fill="currentColor"
d="M367 408v-230h-195v230h195zM445 114v359h-350v-359h350zM229 791v97c102 0 163 -2 239 -16l9 62c-88 15 -155 16 -279 16h-49v-217h219v-95h-222v-64h302v217h-219zM737 883v-119h-163v119h163zM737 701v-129h74v377h-311v-377h74v129h163zM733 57h78v474h-78v-203h-118
v196h-78v-450h78v186h118v-203z" />
</svg>
