<?xml version="1.0" standalone="no"?>
<!DOCTYPE svg PUBLIC "-//W3C//DTD SVG 1.1//EN" "http://www.w3.org/Graphics/SVG/1.1/DTD/svg11.dtd" >
<svg xmlns="http://www.w3.org/2000/svg" xmlns:xlink="http://www.w3.org/1999/xlink" version="1.1" viewBox="-10 0 930 1000">
   <path fill="currentColor"
d="M615 328v197h-77v-449h77v184h118v-202h78v473h-78v-203h-118zM367 411v-234h-195v234h195zM445 114v360h-350v-360h350zM246 784v101c94 -1 155 -4 229 -17l7 64c-86 17 -153 18 -269 18h-48v-221h217v-88h-219v-66h300v209h-217zM634 640v243h71v-243h-71zM771 883h64
v67h-331v-67h64v-243h-61v-66h325v66h-61v243z" />
</svg>
