<?xml version="1.0" standalone="no"?>
<!DOCTYPE svg PUBLIC "-//W3C//DTD SVG 1.1//EN" "http://www.w3.org/Graphics/SVG/1.1/DTD/svg11.dtd" >
<svg xmlns="http://www.w3.org/2000/svg" xmlns:xlink="http://www.w3.org/1999/xlink" version="1.1" viewBox="-10 0 930 1000">
   <path fill="currentColor"
d="M614 327v185h-77v-436h77v184h119v-202h78v458h-78v-189h-119zM367 408v-230h-195v230h195zM445 114v359h-350v-359h350zM230 786v96c96 0 155 -3 226 -17l8 62c-82 16 -146 18 -265 18h-47v-218h201v-85h-204v-61h282v205h-201zM649 898c50 0 82 -24 82 -63
c0 -40 -32 -64 -82 -64c-51 0 -84 24 -84 64c0 39 33 63 84 63zM649 715c87 0 152 46 152 120s-65 119 -152 119c-89 0 -154 -45 -154 -119s65 -120 154 -120zM689 621h150v61h-375v-61h145v-80h80v80z" />
</svg>
