<?xml version="1.0" standalone="no"?>
<!DOCTYPE svg PUBLIC "-//W3C//DTD SVG 1.1//EN" "http://www.w3.org/Graphics/SVG/1.1/DTD/svg11.dtd" >
<svg xmlns="http://www.w3.org/2000/svg" xmlns:xlink="http://www.w3.org/1999/xlink" version="1.1" viewBox="-10 0 930 1000">
   <path fill="currentColor"
d="M617 350v220h-78v-495h78v208h114v-225h79v518h-79v-226h-114zM363 451v-262h-193v262h193zM439 126v388h-346v-388h346zM820 689h-259c6 100 142 180 294 201l-29 61c-135 -19 -256 -80 -308 -172c-51 92 -173 153 -309 172l-28 -61c154 -21 288 -98 294 -201h-260v-66
h605v66z" />
</svg>
