<?xml version="1.0" standalone="no"?>
<!DOCTYPE svg PUBLIC "-//W3C//DTD SVG 1.1//EN" "http://www.w3.org/Graphics/SVG/1.1/DTD/svg11.dtd" >
<svg xmlns="http://www.w3.org/2000/svg" xmlns:xlink="http://www.w3.org/1999/xlink" version="1.1" viewBox="-10 0 930 1000">
   <path fill="currentColor"
d="M419 441v-262h-252v262h252zM501 114v392h-416v-392h416zM674 608v62c0 96 66 189 179 228l-43 60c-84 -31 -145 -91 -176 -164c-27 76 -78 142 -162 178c-83 -35 -134 -100 -161 -175c-32 72 -92 131 -176 161l-43 -60c115 -39 181 -132 181 -228v-62h79v62
c0 83 39 168 120 219c81 -52 121 -138 121 -219v-62h81zM878 261h-134v129h134v69h-134v124h-82v-526h82v135h134v69z" />
</svg>
