<?xml version="1.0" standalone="no"?>
<!DOCTYPE svg PUBLIC "-//W3C//DTD SVG 1.1//EN" "http://www.w3.org/Graphics/SVG/1.1/DTD/svg11.dtd" >
<svg xmlns="http://www.w3.org/2000/svg" xmlns:xlink="http://www.w3.org/1999/xlink" version="1.1" viewBox="-10 0 930 1000">
   <path fill="currentColor"
d="M367 411v-234h-194v234h194zM445 114v360h-350v-360h350zM250 786v100c108 0 187 -3 288 -19l7 64c-111 17 -198 19 -322 19h-56v-225h228v-86h-230v-65h313v212h-228zM518 641v-67h293v380h-83v-313h-210zM614 352h120v-116h-120v116zM734 58h78v471h-78v-109h-120v105
h-77v-451h77v94h120v-110z" />
</svg>
