<?xml version="1.0" standalone="no"?>
<!DOCTYPE svg PUBLIC "-//W3C//DTD SVG 1.1//EN" "http://www.w3.org/Graphics/SVG/1.1/DTD/svg11.dtd" >
<svg xmlns="http://www.w3.org/2000/svg" xmlns:xlink="http://www.w3.org/1999/xlink" version="1.1" viewBox="-10 0 930 1000">
   <path fill="currentColor"
d="M731 241h-117v108h117v-108zM614 418v102h-77v-445h77v97h117v-114h79v516h-79v-156h-117zM367 408v-230h-195v230h195zM445 114v359h-350v-359h350zM818 715h-257c17 87 150 156 296 173l-28 61c-137 -16 -261 -75 -314 -161c-51 88 -175 145 -312 161l-28 -61
c147 -17 279 -84 295 -173h-257v-66h261v-86h82v86h262v66z" />
</svg>
