<?xml version="1.0" standalone="no"?>
<!DOCTYPE svg PUBLIC "-//W3C//DTD SVG 1.1//EN" "http://www.w3.org/Graphics/SVG/1.1/DTD/svg11.dtd" >
<svg xmlns="http://www.w3.org/2000/svg" xmlns:xlink="http://www.w3.org/1999/xlink" version="1.1" viewBox="-10 0 930 1000">
   <path fill="currentColor"
d="M225 787v101c83 0 148 -3 230 -16l9 62c-96 15 -168 16 -270 16h-48v-221h209v-89h-211v-65h290v212h-209zM711 884v-124h-146v124h146zM711 697v-123h74v375h-293v-375h73v123h146zM418 410v-238h-251v238h251zM702 58h83v464h-83v-198h-202v150h-415v-366h415v147h202
v-197z" />
</svg>
