<?xml version="1.0" standalone="no"?>
<!DOCTYPE svg PUBLIC "-//W3C//DTD SVG 1.1//EN" "http://www.w3.org/Graphics/SVG/1.1/DTD/svg11.dtd" >
<svg xmlns="http://www.w3.org/2000/svg" xmlns:xlink="http://www.w3.org/1999/xlink" version="1.1" viewBox="-10 0 930 1000">
   <path fill="currentColor"
d="M423 453v-269h-248v269h248zM503 350v169h-409v-400h409v164h206v-225h83v516h-83v-224h-206zM694 601v55c0 93 66 188 181 227l-41 60c-87 -32 -151 -94 -181 -169c-28 72 -82 142 -165 177c-86 -33 -140 -100 -167 -175c-32 72 -92 135 -177 167l-41 -60
c113 -42 180 -139 180 -227v-55h79v55c0 81 41 166 125 215c85 -53 127 -145 127 -215v-55h80z" />
</svg>
