<?xml version="1.0" standalone="no"?>
<!DOCTYPE svg PUBLIC "-//W3C//DTD SVG 1.1//EN" "http://www.w3.org/Graphics/SVG/1.1/DTD/svg11.dtd" >
<svg xmlns="http://www.w3.org/2000/svg" xmlns:xlink="http://www.w3.org/1999/xlink" version="1.1" viewBox="-10 0 930 1000">
   <path fill="currentColor"
d="M367 411v-234h-194v234h194zM446 324v151h-351v-361h351v142h118v-179h79v444h-79v-197h-118zM234 791v97c101 0 162 -2 236 -16l8 61c-86 16 -152 17 -276 17h-49v-218h218v-93h-220v-65h301v217h-218zM579 636v256h163v-256h-163zM509 953v-379h303v379h-303zM733 58
h79v471h-79v-471z" />
</svg>
