<?xml version="1.0" standalone="no"?>
<!DOCTYPE svg PUBLIC "-//W3C//DTD SVG 1.1//EN" "http://www.w3.org/Graphics/SVG/1.1/DTD/svg11.dtd" >
<svg xmlns="http://www.w3.org/2000/svg" xmlns:xlink="http://www.w3.org/1999/xlink" version="1.1" viewBox="-10 0 930 1000">
   <path fill="currentColor"
d="M812 58v470h-79v-470h79zM367 411v-234h-194v234h194zM446 324v151h-351v-361h351v142h118v-179h78v444h-78v-197h-118zM237 791v97c76 0 151 -3 246 -15l6 62c-110 15 -192 16 -278 16h-49v-219h229v-94h-232v-64h307v217h-229zM591 885h240v63h-319v-374h308v63h-229
v93h220v58h-220v97z" />
</svg>
