<?xml version="1.0" standalone="no"?>
<!DOCTYPE svg PUBLIC "-//W3C//DTD SVG 1.1//EN" "http://www.w3.org/Graphics/SVG/1.1/DTD/svg11.dtd" >
<svg xmlns="http://www.w3.org/2000/svg" xmlns:xlink="http://www.w3.org/1999/xlink" version="1.1" viewBox="-10 0 930 1000">
   <path fill="currentColor"
d="M417 457v-273h-249v273h249zM701 257h-203v123h203v-123zM498 446v77h-412v-406h412v74h203v-133h84v522h-84v-134h-203zM664 684v17c0 86 62 165 168 199l-42 60c-79 -28 -137 -81 -167 -147c-29 64 -90 122 -171 150l-41 -58c-84 28 -181 33 -219 33h-47v-307h79v227
c50 -3 140 -14 198 -40l21 71c86 -41 139 -113 139 -174v-31h-146v-67h377v67h-149z" />
</svg>
