<?xml version="1.0" standalone="no"?>
<!DOCTYPE svg PUBLIC "-//W3C//DTD SVG 1.1//EN" "http://www.w3.org/Graphics/SVG/1.1/DTD/svg11.dtd" >
<svg xmlns="http://www.w3.org/2000/svg" xmlns:xlink="http://www.w3.org/1999/xlink" version="1.1" viewBox="-10 0 930 1000">
   <path fill="currentColor"
d="M418 432v-254h-251v254h251zM701 251h-201v105h201v-105zM500 422v76h-415v-386h415v73h201v-127h85v494h-85v-130h-201zM385 881v-119h-162v119h162zM704 587v74c0 84 55 182 158 230l-44 63c-74 -33 -125 -92 -153 -160c-29 70 -84 128 -162 161l-41 -59v50h-316v-355
h77v109h162v-109h77v297c104 -46 161 -136 161 -222v-79h81z" />
</svg>
