<?xml version="1.0" standalone="no"?>
<!DOCTYPE svg PUBLIC "-//W3C//DTD SVG 1.1//EN" "http://www.w3.org/Graphics/SVG/1.1/DTD/svg11.dtd" >
<svg xmlns="http://www.w3.org/2000/svg" xmlns:xlink="http://www.w3.org/1999/xlink" version="1.1" viewBox="-10 0 930 1000">
   <path fill="currentColor"
d="M811 58v468h-78v-468h78zM366 416v-239h-193v239h193zM560 246h-116v89h116v-89zM444 400v80h-350v-366h350v67h116v-108h77v447h-77v-120h-116zM246 784v101c94 -1 155 -4 229 -17l7 64c-86 17 -153 18 -269 18h-48v-221h217v-88h-219v-66h300v209h-217zM635 641v243h71
v-243h-71zM772 884h64v66h-331v-66h64v-243h-60v-66h323v66h-60v243z" />
</svg>
