<?xml version="1.0" standalone="no"?>
<!DOCTYPE svg PUBLIC "-//W3C//DTD SVG 1.1//EN" "http://www.w3.org/Graphics/SVG/1.1/DTD/svg11.dtd" >
<svg xmlns="http://www.w3.org/2000/svg" xmlns:xlink="http://www.w3.org/1999/xlink" version="1.1" viewBox="-10 0 930 1000">
   <path fill="currentColor"
d="M211 793v94c99 0 159 -3 232 -16l7 62c-84 15 -149 17 -272 17h-48v-215h212v-93h-214v-64h295v215h-212zM703 882v-117h-152v117h152zM703 702v-126h75v372h-303v-372h76v126h152zM233 142v152h439v-152h-439zM494 451h365v65h-814v-65h365v-90h-260v-285h606v285h-262
v90z" />
</svg>
