<?xml version="1.0" standalone="no"?>
<!DOCTYPE svg PUBLIC "-//W3C//DTD SVG 1.1//EN" "http://www.w3.org/Graphics/SVG/1.1/DTD/svg11.dtd" >
<svg xmlns="http://www.w3.org/2000/svg" xmlns:xlink="http://www.w3.org/1999/xlink" version="1.1" viewBox="-10 0 930 1000">
   <path fill="currentColor"
d="M210 166v166h254v-166h-254zM611 487l6 62c-181 26 -393 36 -557 36l-11 -71c74 0 158 -2 244 -5v-113h-165v-294h419v294h-169v109c80 -5 160 -10 233 -18zM685 642v46c0 88 58 170 160 207l-44 63c-77 -29 -128 -83 -156 -151c-30 67 -86 124 -163 154l-43 -59v56h-82
v-243h-221v-67h303v250c107 -40 166 -132 166 -212v-44h80zM750 309h131v70h-131v226h-83v-547h83v251z" />
</svg>
