<?xml version="1.0" standalone="no"?>
<!DOCTYPE svg PUBLIC "-//W3C//DTD SVG 1.1//EN" "http://www.w3.org/Graphics/SVG/1.1/DTD/svg11.dtd" >
<svg xmlns="http://www.w3.org/2000/svg" xmlns:xlink="http://www.w3.org/1999/xlink" version="1.1" viewBox="-10 0 930 1000">
   <path fill="currentColor"
d="M210 166v166h254v-166h-254zM611 487l6 62c-181 26 -393 36 -557 36l-11 -71c74 0 158 -2 244 -5v-113h-165v-294h419v294h-169v109c80 -5 160 -10 233 -18zM795 708h-146c2 80 65 156 168 188l-43 60c-78 -27 -134 -79 -164 -141c-30 62 -89 118 -170 145l-39 -56
c-84 27 -181 33 -217 33h-47v-291h80v211c50 -3 138 -13 195 -40l20 70c85 -39 136 -108 136 -167v-12h-143v-69h370v69zM750 309h131v70h-131v226h-83v-547h83v251z" />
</svg>
