<?xml version="1.0" standalone="no"?>
<!DOCTYPE svg PUBLIC "-//W3C//DTD SVG 1.1//EN" "http://www.w3.org/Graphics/SVG/1.1/DTD/svg11.dtd" >
<svg xmlns="http://www.w3.org/2000/svg" xmlns:xlink="http://www.w3.org/1999/xlink" version="1.1" viewBox="-10 0 930 1000">
   <path fill="currentColor"
d="M207 159v136h258v-136h-258zM611 432l6 63c-180 23 -390 32 -556 33l-12 -71c76 0 160 -2 245 -5v-92h-169v-266h422v266h-169v88c80 -3 160 -9 233 -16zM250 792v92h529v64h-613v-216h500v-78h-503v-63h587v201h-500zM750 281h131v69h-131v198h-83v-490h83v223z" />
</svg>
