<?xml version="1.0" standalone="no"?>
<!DOCTYPE svg PUBLIC "-//W3C//DTD SVG 1.1//EN" "http://www.w3.org/Graphics/SVG/1.1/DTD/svg11.dtd" >
<svg xmlns="http://www.w3.org/2000/svg" xmlns:xlink="http://www.w3.org/1999/xlink" version="1.1" viewBox="-10 0 930 1000">
   <path fill="currentColor"
d="M207 159v136h258v-136h-258zM613 431l5 57c-190 36 -406 38 -562 39l-9 -65c72 0 158 0 247 -4v-98h-169v-266h422v266h-169v94c79 -4 160 -11 235 -23zM469 897c112 0 171 -17 171 -52s-59 -52 -171 -52c-113 0 -172 17 -172 52s59 52 172 52zM469 737
c163 0 253 36 253 108c0 73 -90 108 -253 108c-164 0 -254 -35 -254 -108c0 -72 90 -108 254 -108zM510 556v78h278v63h-639v-63h279v-78h82zM751 278h129v68h-129v226h-82v-514h82v220z" />
</svg>
