<?xml version="1.0" standalone="no"?>
<!DOCTYPE svg PUBLIC "-//W3C//DTD SVG 1.1//EN" "http://www.w3.org/Graphics/SVG/1.1/DTD/svg11.dtd" >
<svg xmlns="http://www.w3.org/2000/svg" xmlns:xlink="http://www.w3.org/1999/xlink" version="1.1" viewBox="-10 0 930 1000">
   <path fill="currentColor"
d="M631 376v223h-78v-526h78v235h107v-250h79v547h-79v-229h-107zM188 184v156h195v-156h-195zM509 483l6 61c-141 24 -329 31 -452 31l-9 -70c53 0 119 -1 188 -3v-96h-134v-287h356v287h-143v92c67 -3 132 -8 188 -15zM284 877h545v67h-630v-297h625v65h-540v165z" />
</svg>
