<?xml version="1.0" standalone="no"?>
<!DOCTYPE svg PUBLIC "-//W3C//DTD SVG 1.1//EN" "http://www.w3.org/Graphics/SVG/1.1/DTD/svg11.dtd" >
<svg xmlns="http://www.w3.org/2000/svg" xmlns:xlink="http://www.w3.org/1999/xlink" version="1.1" viewBox="-10 0 930 1000">
   <path fill="currentColor"
d="M238 798v93c101 -1 162 -4 239 -17l8 59c-90 16 -158 17 -281 17h-49v-208h221v-84h-223v-61h305v201h-220zM192 167v140h186v-140h-186zM329 373v87c64 -2 128 -7 180 -13l6 60c-139 22 -327 29 -452 29l-9 -69c56 0 125 -1 196 -3v-91h-139v-271h348v271h-130zM586 655
v240h160v-240h-160zM516 955v-358h301v358h-301zM739 58h78v494h-78v-204h-108v200h-78v-475h78v208h108v-223z" />
</svg>
