<?xml version="1.0" standalone="no"?>
<!DOCTYPE svg PUBLIC "-//W3C//DTD SVG 1.1//EN" "http://www.w3.org/Graphics/SVG/1.1/DTD/svg11.dtd" >
<svg xmlns="http://www.w3.org/2000/svg" xmlns:xlink="http://www.w3.org/1999/xlink" version="1.1" viewBox="-10 0 930 1000">
   <path fill="currentColor"
d="M631 348v197h-78v-473h78v209h108v-223h78v491h-78v-201h-108zM192 167v140h186v-140h-186zM509 447l6 60c-138 22 -326 29 -451 29l-9 -69c56 0 124 -1 195 -3v-91h-139v-271h348v271h-130v87c63 -2 127 -7 180 -13zM244 795v93c95 0 154 -3 229 -17l7 61
c-86 17 -154 18 -269 18h-47v-209h217v-79h-220v-62h300v195h-217zM633 663v223h69v-223h-69zM768 886h64v63h-330v-63h65v-223h-61v-63h323v63h-61v223z" />
</svg>
