<?xml version="1.0" standalone="no"?>
<!DOCTYPE svg PUBLIC "-//W3C//DTD SVG 1.1//EN" "http://www.w3.org/Graphics/SVG/1.1/DTD/svg11.dtd" >
<svg xmlns="http://www.w3.org/2000/svg" xmlns:xlink="http://www.w3.org/1999/xlink" version="1.1" viewBox="-10 0 930 1000">
   <path fill="currentColor"
d="M630 348v191h-77v-467h77v209h109v-223h78v480h-78v-190h-109zM191 164v146h189v-146h-189zM509 447l6 60c-138 22 -326 29 -451 29l-9 -69c56 0 124 -1 195 -3v-91h-139v-271h348v271h-131v87c64 -2 127 -7 181 -13zM233 799v89c98 0 155 -3 227 -17l8 62
c-82 15 -147 17 -266 17h-47v-207h202v-81h-204v-61h282v198h-202zM653 906c48 0 82 -22 82 -58s-34 -58 -82 -58c-49 0 -83 22 -83 58s34 58 83 58zM653 734c88 0 152 44 152 114s-64 114 -152 114s-153 -44 -153 -114s65 -114 153 -114zM692 646h146v61h-370v-61h144v-77
h80v77z" />
</svg>
