<?xml version="1.0" standalone="no"?>
<!DOCTYPE svg PUBLIC "-//W3C//DTD SVG 1.1//EN" "http://www.w3.org/Graphics/SVG/1.1/DTD/svg11.dtd" >
<svg xmlns="http://www.w3.org/2000/svg" xmlns:xlink="http://www.w3.org/1999/xlink" version="1.1" viewBox="-10 0 930 1000">
   <path fill="currentColor"
d="M630 376v224h-77v-528h77v236h108v-250h79v548h-79v-230h-108zM188 184v156h194v-156h-194zM509 478l6 61c-141 24 -329 31 -452 31l-9 -71c53 0 119 -1 188 -3v-91h-134v-286h354v286h-141v88c67 -4 132 -9 188 -15zM699 637v34c0 93 64 188 179 226l-43 61
c-84 -32 -144 -91 -176 -163c-26 75 -78 140 -161 175c-84 -34 -135 -98 -162 -173c-32 71 -92 130 -176 161l-42 -61c114 -38 180 -133 180 -226v-34h78v34c0 81 39 167 120 217c83 -51 123 -136 123 -217v-34h80z" />
</svg>
