<?xml version="1.0" standalone="no"?>
<!DOCTYPE svg PUBLIC "-//W3C//DTD SVG 1.1//EN" "http://www.w3.org/Graphics/SVG/1.1/DTD/svg11.dtd" >
<svg xmlns="http://www.w3.org/2000/svg" xmlns:xlink="http://www.w3.org/1999/xlink" version="1.1" viewBox="-10 0 930 1000">
   <path fill="currentColor"
d="M782 58v489h-83v-489h83zM213 159v136h262v-136h-262zM630 437l7 62c-187 24 -399 33 -572 34l-12 -71c78 0 164 -2 250 -5v-97h-172v-266h426v266h-170v94c83 -5 166 -9 243 -17zM706 591v69c0 96 49 190 151 234l-45 61c-72 -33 -120 -90 -146 -160
c-27 74 -76 133 -151 167l-39 -50l3 21c-80 16 -143 17 -269 17h-47v-210h217v-81h-219v-61h298v199h-217v92c103 0 159 -3 228 -17l4 27c102 -45 151 -141 151 -241v-67h81z" />
</svg>
