<?xml version="1.0" standalone="no"?>
<!DOCTYPE svg PUBLIC "-//W3C//DTD SVG 1.1//EN" "http://www.w3.org/Graphics/SVG/1.1/DTD/svg11.dtd" >
<svg xmlns="http://www.w3.org/2000/svg" xmlns:xlink="http://www.w3.org/1999/xlink" version="1.1" viewBox="-10 0 930 1000">
   <path fill="currentColor"
d="M781 58v489h-82v-489h82zM213 159v137h262v-137h-262zM630 437l7 62c-187 24 -399 33 -572 34l-12 -71c78 0 164 -2 250 -5v-96h-172v-267h426v267h-170v93c83 -5 166 -9 243 -17zM215 803v85c97 0 156 -3 227 -17l8 62c-82 15 -147 17 -266 17h-48v-204h202v-84h-204
v-61h283v202h-202zM630 906c49 0 83 -22 83 -58s-34 -58 -83 -58c-48 0 -82 22 -82 58s34 58 82 58zM630 734c88 0 153 44 153 114s-65 114 -153 114s-152 -44 -152 -114s64 -114 152 -114zM670 645h147v61h-370v-61h143v-79h80v79z" />
</svg>
