<?xml version="1.0" standalone="no"?>
<!DOCTYPE svg PUBLIC "-//W3C//DTD SVG 1.1//EN" "http://www.w3.org/Graphics/SVG/1.1/DTD/svg11.dtd" >
<svg xmlns="http://www.w3.org/2000/svg" xmlns:xlink="http://www.w3.org/1999/xlink" version="1.1" viewBox="-10 0 930 1000">
   <path fill="currentColor"
d="M787 58v640h-82v-640h82zM216 175v162h266v-162h-266zM635 486l6 60c-196 35 -413 38 -571 38l-11 -67c73 0 158 0 247 -4v-110h-171v-293h427v293h-174v107c83 -5 168 -12 247 -24zM530 635v31c0 112 137 198 299 221l-30 64c-135 -21 -257 -84 -310 -177
c-54 93 -175 156 -310 177l-30 -64c161 -23 298 -109 298 -221v-31h83z" />
</svg>
