<?xml version="1.0" standalone="no"?>
<!DOCTYPE svg PUBLIC "-//W3C//DTD SVG 1.1//EN" "http://www.w3.org/Graphics/SVG/1.1/DTD/svg11.dtd" >
<svg xmlns="http://www.w3.org/2000/svg" xmlns:xlink="http://www.w3.org/1999/xlink" version="1.1" viewBox="-10 0 930 1000">
   <path fill="currentColor"
d="M781 58v535h-82v-535h82zM213 159v137h261v-137h-261zM640 436l4 57c-197 30 -415 35 -585 36l-12 -65c78 0 166 -1 256 -4v-98h-173v-268h427v268h-172v95c86 -5 173 -10 255 -21zM803 727h-275c25 78 152 142 300 157l-27 62c-140 -16 -264 -71 -319 -153
c-55 83 -180 140 -319 156l-28 -63c150 -14 277 -80 301 -159h-278v-65h283v-94h82v94h280v65z" />
</svg>
