<?xml version="1.0" standalone="no"?>
<!DOCTYPE svg PUBLIC "-//W3C//DTD SVG 1.1//EN" "http://www.w3.org/Graphics/SVG/1.1/DTD/svg11.dtd" >
<svg xmlns="http://www.w3.org/2000/svg" xmlns:xlink="http://www.w3.org/1999/xlink" version="1.1" viewBox="-10 0 930 1000">
   <path fill="currentColor"
d="M204 630v237c56 -2 128 -9 192 -32l14 67c-89 28 -175 34 -242 34h-45v-306h81zM594 905c55 0 94 -18 94 -49c0 -29 -39 -47 -94 -47c-54 0 -93 18 -93 47c0 31 39 49 93 49zM594 756c97 0 167 39 167 100c0 62 -70 102 -167 102c-96 0 -166 -40 -166 -102
c0 -61 70 -100 166 -100zM635 585v72h185v61h-451v-61h186v-72h80zM352 378v100h198v-100h-198zM233 148v164h440v-164h-440zM634 478h226v65h-814v-65h223v-100h-119v-296h606v296h-122v100z" />
</svg>
