<?xml version="1.0" standalone="no"?>
<!DOCTYPE svg PUBLIC "-//W3C//DTD SVG 1.1//EN" "http://www.w3.org/Graphics/SVG/1.1/DTD/svg11.dtd" >
<svg xmlns="http://www.w3.org/2000/svg" xmlns:xlink="http://www.w3.org/1999/xlink" version="1.1" viewBox="-10 0 930 1000">
   <path fill="currentColor"
d="M216 789v97c130 0 201 -4 287 -20l7 63c-95 18 -170 20 -319 20h-55v-220h227v-86h-230v-62h311v208h-228zM483 647v-66h290v372h-82v-306h-208zM351 360v92h200v-92h-200zM230 142v151h444v-151h-444zM635 452h224v66h-814v-66h224v-92h-119v-284h604v284h-119v92z" />
</svg>
