<?xml version="1.0" standalone="no"?>
<!DOCTYPE svg PUBLIC "-//W3C//DTD SVG 1.1//EN" "http://www.w3.org/Graphics/SVG/1.1/DTD/svg11.dtd" >
<svg xmlns="http://www.w3.org/2000/svg" xmlns:xlink="http://www.w3.org/1999/xlink" version="1.1" viewBox="-10 0 930 1000">
   <path fill="currentColor"
d="M764 718h-265c26 90 157 154 304 169l-28 62c-140 -17 -267 -73 -322 -164c-53 91 -181 147 -320 164l-28 -62c147 -15 278 -79 302 -169h-264v-66h621v66zM352 391v108h198v-108h-198zM234 152v174h439v-174h-439zM634 499h224v66h-812v-66h223v-108h-119v-305h606v305
h-122v108z" />
</svg>
