<?xml version="1.0" standalone="no"?>
<!DOCTYPE svg PUBLIC "-//W3C//DTD SVG 1.1//EN" "http://www.w3.org/Graphics/SVG/1.1/DTD/svg11.dtd" >
<svg xmlns="http://www.w3.org/2000/svg" xmlns:xlink="http://www.w3.org/1999/xlink" version="1.1" viewBox="-10 0 930 1000">
   <path fill="currentColor"
d="M672 324v-172h-439v172h439zM755 86v304h-605v-304h605zM676 650v35c0 85 56 172 158 210l-46 62c-75 -29 -126 -85 -153 -152c-30 67 -85 125 -162 155l-46 -61c108 -41 167 -135 167 -216v-33h82zM46 477h813v65h-366v135h-70v278h-80v-230h-214v-66h281v-117h-364v-65
z" />
</svg>
