<?xml version="1.0" standalone="no"?>
<!DOCTYPE svg PUBLIC "-//W3C//DTD SVG 1.1//EN" "http://www.w3.org/Graphics/SVG/1.1/DTD/svg11.dtd" >
<svg xmlns="http://www.w3.org/2000/svg" xmlns:xlink="http://www.w3.org/1999/xlink" version="1.1" viewBox="-10 0 930 1000">
   <path fill="currentColor"
d="M671 305v-159h-438v159h438zM755 81v290h-605v-290h605zM366 883v-112h-162v112h162zM493 639h-51v250c101 -44 159 -135 159 -215v-68h82v60c0 84 56 179 156 225l-44 64c-73 -33 -124 -92 -152 -160c-28 69 -82 128 -158 160l-43 -61v54h-316v-337h78v98h162v-98h43
v-93h-363v-66h814v66h-367v121z" />
</svg>
