<?xml version="1.0" standalone="no"?>
<!DOCTYPE svg PUBLIC "-//W3C//DTD SVG 1.1//EN" "http://www.w3.org/Graphics/SVG/1.1/DTD/svg11.dtd" >
<svg xmlns="http://www.w3.org/2000/svg" xmlns:xlink="http://www.w3.org/1999/xlink" version="1.1" viewBox="-10 0 930 1000">
   <path fill="currentColor"
d="M516 491h187v-433h82v528h-82v-41h-187v-54zM459 278v-126h-248v126h248zM542 91v248h-413v-248h413zM287 585v-120c-81 3 -160 4 -230 4l-11 -68c175 0 390 -2 577 -19l7 59c-84 11 -173 17 -260 21v123h-83zM706 613v52c0 96 49 187 151 229l-44 62
c-73 -32 -121 -90 -147 -159c-27 72 -77 131 -153 164l-38 -51l4 23c-82 16 -145 17 -273 17h-48v-197h220v-73h-222v-60h302v189h-220v81c104 0 162 -3 232 -17l3 24c102 -44 152 -135 152 -233v-51h81z" />
</svg>
