<?xml version="1.0" standalone="no"?>
<!DOCTYPE svg PUBLIC "-//W3C//DTD SVG 1.1//EN" "http://www.w3.org/Graphics/SVG/1.1/DTD/svg11.dtd" >
<svg xmlns="http://www.w3.org/2000/svg" xmlns:xlink="http://www.w3.org/1999/xlink" version="1.1" viewBox="-10 0 930 1000">
   <path fill="currentColor"
d="M516 528h187v-470h82v582h-82v-53h-187v-59zM463 295v-135h-253v135h253zM545 96v263h-418v-263h418zM287 641v-141c-81 3 -159 4 -230 4l-12 -70c176 -1 391 -3 579 -20l6 61c-84 10 -173 17 -260 22v144h-83zM701 878v-143h-443v143h443zM173 671h613v270h-613v-270z
" />
</svg>
