<?xml version="1.0" standalone="no"?>
<!DOCTYPE svg PUBLIC "-//W3C//DTD SVG 1.1//EN" "http://www.w3.org/Graphics/SVG/1.1/DTD/svg11.dtd" >
<svg xmlns="http://www.w3.org/2000/svg" xmlns:xlink="http://www.w3.org/1999/xlink" version="1.1" viewBox="-10 0 930 1000">
   <path fill="currentColor"
d="M516 490h187v-432h83v553h-83v-64h-187v-57zM459 274v-123h-248v123h248zM542 90v245h-413v-245h413zM287 591v-130c-81 3 -160 4 -231 4l-11 -66c176 -1 391 -3 579 -20l6 58c-84 10 -173 17 -260 21v133h-83zM492 913c106 0 167 -12 167 -39s-62 -38 -167 -38
c-107 0 -168 11 -168 38s61 39 168 39zM492 782c160 0 252 31 252 92s-92 92 -252 92c-162 0 -253 -31 -253 -92s91 -92 253 -92zM533 673h278v63h-639v-63h279v-77h82v77z" />
</svg>
