<?xml version="1.0" standalone="no"?>
<!DOCTYPE svg PUBLIC "-//W3C//DTD SVG 1.1//EN" "http://www.w3.org/Graphics/SVG/1.1/DTD/svg11.dtd" >
<svg xmlns="http://www.w3.org/2000/svg" xmlns:xlink="http://www.w3.org/1999/xlink" version="1.1" viewBox="-10 0 930 1000">
   <path fill="currentColor"
d="M412 533h159v-456h77v553h-77v-39h-159v-58zM391 290v-127h-209v127h209zM471 100v253h-368v-253h368zM245 630v-135c-66 3 -129 5 -182 5l-10 -68c129 -1 326 -6 462 -23l6 60c-60 10 -129 17 -198 21v140h-78zM194 737l-1 -66h624v284h-84v-218h-539zM739 58h79v574
h-79v-574z" />
</svg>
