<?xml version="1.0" standalone="no"?>
<!DOCTYPE svg PUBLIC "-//W3C//DTD SVG 1.1//EN" "http://www.w3.org/Graphics/SVG/1.1/DTD/svg11.dtd" >
<svg xmlns="http://www.w3.org/2000/svg" xmlns:xlink="http://www.w3.org/1999/xlink" version="1.1" viewBox="-10 0 930 1000">
   <path fill="currentColor"
d="M818 58v570h-79v-570h79zM412 523h159v-446h78v549h-78v-45h-159v-58zM391 290v-128h-209v128h209zM471 99v253h-368v-253h368zM245 627v-134c-69 3 -135 4 -188 4l-10 -66c124 0 323 -2 468 -24l6 57c-62 13 -131 21 -198 25v138h-78zM832 729h-146
c10 66 73 132 172 161l-36 61c-84 -25 -144 -76 -175 -136c-32 59 -91 111 -174 136l-35 -57c-80 31 -178 37 -218 37h-44v-254h80v185c49 -4 129 -14 180 -41l18 63c88 -32 144 -94 154 -155h-149v-63h373v63z" />
</svg>
