<?xml version="1.0" standalone="no"?>
<!DOCTYPE svg PUBLIC "-//W3C//DTD SVG 1.1//EN" "http://www.w3.org/Graphics/SVG/1.1/DTD/svg11.dtd" >
<svg xmlns="http://www.w3.org/2000/svg" xmlns:xlink="http://www.w3.org/1999/xlink" version="1.1" viewBox="-10 0 930 1000">
   <path fill="currentColor"
d="M817 58v610h-79v-610h79zM417 521h159v-448h77v557h-77v-51h-159v-58zM391 291v-130h-209v130h209zM471 100v252h-368v-252h368zM251 636v-149c-68 3 -133 5 -185 5l-9 -66c128 0 326 -4 467 -23l5 58c-61 10 -131 17 -200 22v153h-78zM514 893c152 0 228 -29 228 -84
c0 -56 -76 -84 -228 -84c-151 0 -228 28 -228 84c0 55 77 84 228 84zM514 663c205 0 314 49 314 146s-109 145 -314 145s-314 -48 -314 -145s109 -146 314 -146z" />
</svg>
