<?xml version="1.0" standalone="no"?>
<!DOCTYPE svg PUBLIC "-//W3C//DTD SVG 1.1//EN" "http://www.w3.org/Graphics/SVG/1.1/DTD/svg11.dtd" >
<svg xmlns="http://www.w3.org/2000/svg" xmlns:xlink="http://www.w3.org/1999/xlink" version="1.1" viewBox="-10 0 930 1000">
   <path fill="currentColor"
d="M780 56v493h-82v-493h82zM471 286v-131h-255v131h255zM553 92v258h-419v-258h419zM243 797v92c102 0 178 -3 276 -18l7 60c-109 18 -194 19 -310 19h-54v-210h219v-82h-221v-62h147v-107c-83 3 -164 4 -236 4l-12 -69c172 0 388 -2 578 -19l5 60c-82 11 -169 16 -253 21
v110h72v201h-218zM499 596h282v358h-85v-294h-197v-64z" />
</svg>
