<?xml version="1.0" standalone="no"?>
<!DOCTYPE svg PUBLIC "-//W3C//DTD SVG 1.1//EN" "http://www.w3.org/Graphics/SVG/1.1/DTD/svg11.dtd" >
<svg xmlns="http://www.w3.org/2000/svg" xmlns:xlink="http://www.w3.org/1999/xlink" version="1.1" viewBox="-10 0 930 1000">
   <path fill="currentColor"
d="M783 58v556h-82v-556h82zM462 309v-144h-254v144h254zM544 100v274h-417v-274h417zM306 624v-110c-85 4 -167 5 -242 5l-12 -71c175 -1 390 -3 579 -20l7 62c-81 10 -166 16 -250 21v113h-82zM681 651v28c0 91 68 183 186 219l-42 61c-87 -30 -150 -88 -183 -160
c-27 75 -79 139 -163 173c-83 -34 -136 -97 -163 -171c-33 71 -95 128 -180 158l-42 -61c117 -36 185 -128 185 -219v-28h79v28c0 80 40 163 121 212c81 -50 122 -133 122 -212v-28h80z" />
</svg>
