<?xml version="1.0" standalone="no"?>
<!DOCTYPE svg PUBLIC "-//W3C//DTD SVG 1.1//EN" "http://www.w3.org/Graphics/SVG/1.1/DTD/svg11.dtd" >
<svg xmlns="http://www.w3.org/2000/svg" xmlns:xlink="http://www.w3.org/1999/xlink" version="1.1" viewBox="-10 0 930 1000">
   <path fill="currentColor"
d="M672 324v-172h-438v172h438zM755 86v304h-605v-304h605zM652 681v23c0 80 67 160 181 191l-41 61c-87 -27 -150 -82 -181 -148c-27 64 -79 125 -159 156c-84 -30 -135 -87 -161 -154c-34 64 -95 119 -179 146l-40 -61c113 -34 181 -117 181 -191v-23h79v23
c0 68 41 140 119 181c79 -45 121 -122 121 -181v-23h80zM46 468h814v65h-215v121h-82v-121h-218v121h-83v-121h-216v-65z" />
</svg>
