<?xml version="1.0" standalone="no"?>
<!DOCTYPE svg PUBLIC "-//W3C//DTD SVG 1.1//EN" "http://www.w3.org/Graphics/SVG/1.1/DTD/svg11.dtd" >
<svg xmlns="http://www.w3.org/2000/svg" xmlns:xlink="http://www.w3.org/1999/xlink" version="1.1" viewBox="-10 0 930 1000">
   <path fill="currentColor"
d="M782 58v474h-83v-474h83zM475 296v-137h-262v137h262zM557 94v267h-426v-267h426zM628 427l7 61c-184 23 -398 32 -570 34l-12 -70c178 -1 394 -8 575 -25zM216 798v88c97 -1 155 -4 227 -17l8 61c-83 16 -147 18 -267 18h-47v-207h202v-84h-204v-61h283v202h-202z
M630 904c50 0 83 -22 83 -58c0 -37 -33 -58 -83 -58c-49 0 -81 21 -81 58c0 36 32 58 81 58zM630 732c89 0 153 43 153 114c0 70 -64 113 -153 113c-87 0 -151 -43 -151 -113c0 -71 64 -114 151 -114zM670 638h148v61h-372v-61h144v-83h80v83z" />
</svg>
