<?xml version="1.0" standalone="no"?>
<!DOCTYPE svg PUBLIC "-//W3C//DTD SVG 1.1//EN" "http://www.w3.org/Graphics/SVG/1.1/DTD/svg11.dtd" >
<svg xmlns="http://www.w3.org/2000/svg" xmlns:xlink="http://www.w3.org/1999/xlink" version="1.1" viewBox="-10 0 930 1000">
   <path fill="currentColor"
d="M781 57v516h-84v-516h84zM431 441v-262h-255v262h255zM514 114v392h-421v-392h421zM662 684v14c0 85 62 163 166 198l-41 60c-79 -28 -135 -80 -164 -145c-30 64 -89 121 -171 150l-39 -56c-80 27 -170 32 -216 32h-47v-306h79v228c52 -3 137 -13 193 -41l22 68
c85 -40 137 -110 137 -172v-30h-146v-68h375v68h-148z" />
</svg>
