<?xml version="1.0" standalone="no"?>
<!DOCTYPE svg PUBLIC "-//W3C//DTD SVG 1.1//EN" "http://www.w3.org/Graphics/SVG/1.1/DTD/svg11.dtd" >
<svg xmlns="http://www.w3.org/2000/svg" xmlns:xlink="http://www.w3.org/1999/xlink" version="1.1" viewBox="-10 0 930 1000">
   <path fill="currentColor"
d="M430 412v-238h-255v238h255zM512 110v366h-419v-366h419zM230 787v101c94 0 152 -3 226 -16l9 63c-86 14 -151 15 -267 15h-48v-221h206v-90h-208v-64h288v212h-206zM705 885v-125h-139v125h139zM705 696v-123h76v377h-290v-377h75v123h139zM697 57h84v461h-84v-461z" />
</svg>
