<?xml version="1.0" standalone="no"?>
<!DOCTYPE svg PUBLIC "-//W3C//DTD SVG 1.1//EN" "http://www.w3.org/Graphics/SVG/1.1/DTD/svg11.dtd" >
<svg xmlns="http://www.w3.org/2000/svg" xmlns:xlink="http://www.w3.org/1999/xlink" version="1.1" viewBox="-10 0 930 1000">
   <path fill="currentColor"
d="M781 58v461h-84v-461h84zM430 412v-238h-255v238h255zM512 110v366h-419v-366h419zM702 568v91c0 97 49 191 152 235l-45 61c-72 -32 -120 -89 -147 -158c-27 73 -76 132 -151 165l-43 -58l4 29c-80 16 -143 17 -269 17h-48v-222h217v-90h-219v-64h298v213h-217v99
c102 0 159 -2 228 -17l5 31c104 -44 155 -141 155 -244v-88h80z" />
</svg>
