<?xml version="1.0" standalone="no"?>
<!DOCTYPE svg PUBLIC "-//W3C//DTD SVG 1.1//EN" "http://www.w3.org/Graphics/SVG/1.1/DTD/svg11.dtd" >
<svg xmlns="http://www.w3.org/2000/svg" xmlns:xlink="http://www.w3.org/1999/xlink" version="1.1" viewBox="-10 0 930 1000">
   <path fill="currentColor"
d="M425 429v-135h-254v135h254zM505 99v395h-415v-395h81v132h254v-132h80zM225 790v92c123 0 190 -4 269 -20l9 62c-88 18 -159 20 -305 20h-53v-213h211v-84h-213v-62h292v205h-210zM473 651v-66h276v365h-81v-299h-195zM882 255v68h-133v212h-82v-477h82v197h133z" />
</svg>
