<?xml version="1.0" standalone="no"?>
<!DOCTYPE svg PUBLIC "-//W3C//DTD SVG 1.1//EN" "http://www.w3.org/Graphics/SVG/1.1/DTD/svg11.dtd" >
<svg xmlns="http://www.w3.org/2000/svg" xmlns:xlink="http://www.w3.org/1999/xlink" version="1.1" viewBox="-10 0 930 1000">
   <path fill="currentColor"
d="M425 461v-148h-254v148h254zM505 114v413h-415v-413h81v135h254v-135h80zM464 889c132 0 213 -38 213 -102s-81 -101 -213 -101c-134 0 -214 37 -214 101s80 102 214 102zM464 620c182 0 295 61 295 167s-113 167 -295 167c-183 0 -296 -61 -296 -167s113 -167 296 -167z
M749 283h133v68h-133v246h-82v-540h82v226z" />
</svg>
