<?xml version="1.0" standalone="no"?>
<!DOCTYPE svg PUBLIC "-//W3C//DTD SVG 1.1//EN" "http://www.w3.org/Graphics/SVG/1.1/DTD/svg11.dtd" >
<svg xmlns="http://www.w3.org/2000/svg" xmlns:xlink="http://www.w3.org/1999/xlink" version="1.1" viewBox="-10 0 930 1000">
   <path fill="currentColor"
d="M615 328v191h-78v-445h78v186h118v-203h78v470h-78v-199h-118zM366 416v-133h-191v133h191zM447 103v381h-354v-381h82v115h191v-115h81zM250 786v100c107 0 187 -3 287 -19l7 64c-111 17 -198 19 -321 19h-56v-225h228v-86h-230v-65h313v212h-228zM517 574h295v380h-84
v-314h-211v-66z" />
</svg>
