<?xml version="1.0" standalone="no"?>
<!DOCTYPE svg PUBLIC "-//W3C//DTD SVG 1.1//EN" "http://www.w3.org/Graphics/SVG/1.1/DTD/svg11.dtd" >
<svg xmlns="http://www.w3.org/2000/svg" xmlns:xlink="http://www.w3.org/1999/xlink" version="1.1" viewBox="-10 0 930 1000">
   <path fill="currentColor"
d="M366 416v-133h-191v133h191zM447 103v381h-354v-381h82v115h191v-115h81zM233 791v98c95 0 157 -3 237 -15l8 61c-92 14 -159 15 -276 15h-49v-218h218v-94h-220v-64h301v217h-219zM578 636v257h163v-257h-163zM508 955v-381h303v381h-303zM733 57h78v469h-78v-198h-118
v190h-78v-444h78v186h118v-203z" />
</svg>
