<?xml version="1.0" standalone="no"?>
<!DOCTYPE svg PUBLIC "-//W3C//DTD SVG 1.1//EN" "http://www.w3.org/Graphics/SVG/1.1/DTD/svg11.dtd" >
<svg xmlns="http://www.w3.org/2000/svg" xmlns:xlink="http://www.w3.org/1999/xlink" version="1.1" viewBox="-10 0 930 1000">
   <path fill="currentColor"
d="M614 327v193h-77v-445h77v185h117v-203h79v517h-79v-247h-117zM366 418v-135h-191v135h191zM447 103v382h-354v-382h82v115h191v-115h81zM818 715h-257c17 87 150 156 296 173l-28 61c-137 -16 -261 -75 -314 -161c-51 88 -175 145 -312 161l-28 -61
c147 -17 279 -84 295 -173h-257v-66h261v-85h82v85h262v66z" />
</svg>
