<?xml version="1.0" standalone="no"?>
<!DOCTYPE svg PUBLIC "-//W3C//DTD SVG 1.1//EN" "http://www.w3.org/Graphics/SVG/1.1/DTD/svg11.dtd" >
<svg xmlns="http://www.w3.org/2000/svg" xmlns:xlink="http://www.w3.org/1999/xlink" version="1.1" viewBox="-10 0 930 1000">
   <path fill="currentColor"
d="M418 453v-140h-247v140h247zM500 109v410h-411v-410h82v137h247v-137h82zM132 688v-68h301v337h-82v-269h-219zM685 613v64c0 92 55 181 160 218l-44 64c-78 -30 -130 -86 -158 -155c-30 68 -86 127 -165 158l-44 -63c111 -41 169 -133 169 -217v-69h82zM878 261h-133
v129h133v70h-133v123h-84v-525h84v133h133v70z" />
</svg>
