<?xml version="1.0" standalone="no"?>
<!DOCTYPE svg PUBLIC "-//W3C//DTD SVG 1.1//EN" "http://www.w3.org/Graphics/SVG/1.1/DTD/svg11.dtd" >
<svg xmlns="http://www.w3.org/2000/svg" xmlns:xlink="http://www.w3.org/1999/xlink" version="1.1" viewBox="-10 0 930 1000">
   <path fill="currentColor"
d="M418 453v-140h-247v140h247zM500 109v410h-411v-410h82v137h247v-137h82zM647 680v6c0 88 61 169 167 205l-42 60c-79 -29 -136 -84 -166 -151c-29 67 -89 127 -172 156l-37 -55c-81 27 -173 33 -221 33h-48v-317h79v237c53 -3 139 -13 197 -41l21 68
c87 -42 139 -117 139 -182v-19h-145v-67h377v67h-149zM878 261h-134v129h134v70h-134v123h-84v-525h84v133h134v70z" />
</svg>
