<?xml version="1.0" standalone="no"?>
<!DOCTYPE svg PUBLIC "-//W3C//DTD SVG 1.1//EN" "http://www.w3.org/Graphics/SVG/1.1/DTD/svg11.dtd" >
<svg xmlns="http://www.w3.org/2000/svg" xmlns:xlink="http://www.w3.org/1999/xlink" version="1.1" viewBox="-10 0 930 1000">
   <path fill="currentColor"
d="M418 419v-130h-249v130h249zM499 98v386h-411v-386h81v128h249v-128h81zM199 785v103c89 0 148 -3 223 -15l8 61c-87 15 -153 16 -263 16h-47v-223h202v-89h-205v-65h285v212h-203zM669 885v-119h-144v119h144zM669 702v-129h76v377h-296v-377h76v129h144zM878 242h-133
v108h133v67h-133v105h-84v-464h84v116h133v68z" />
</svg>
