<?xml version="1.0" standalone="no"?>
<!DOCTYPE svg PUBLIC "-//W3C//DTD SVG 1.1//EN" "http://www.w3.org/Graphics/SVG/1.1/DTD/svg11.dtd" >
<svg xmlns="http://www.w3.org/2000/svg" xmlns:xlink="http://www.w3.org/1999/xlink" version="1.1" viewBox="-10 0 930 1000">
   <path fill="currentColor"
d="M417 435v-136h-248v136h248zM499 101v399h-411v-399h81v133h248v-133h82zM373 882v-119h-154v119h154zM373 701v-108h77v354h-309v-354h78v108h154zM693 589v73c0 83 51 181 152 228l-45 64c-71 -33 -119 -90 -146 -155c-28 67 -80 124 -155 155l-47 -65
c106 -41 160 -136 160 -222v-78h81zM878 251h-133v112h133v69h-133v114h-84v-488h84v123h133v70z" />
</svg>
