<?xml version="1.0" standalone="no"?>
<!DOCTYPE svg PUBLIC "-//W3C//DTD SVG 1.1//EN" "http://www.w3.org/Graphics/SVG/1.1/DTD/svg11.dtd" >
<svg xmlns="http://www.w3.org/2000/svg" xmlns:xlink="http://www.w3.org/1999/xlink" version="1.1" viewBox="-10 0 930 1000">
   <path fill="currentColor"
d="M734 256h-120v127h120v-127zM614 452v123h-77v-501h77v113h120v-130h77v523h-77v-128h-120zM366 455v-147h-191v147h191zM446 115v407h-353v-407h82v127h191v-127h80zM691 690v8c0 89 61 167 171 201l-42 60c-80 -27 -139 -79 -169 -144c-31 64 -92 122 -176 150l-40 -59
c-81 26 -172 32 -219 32h-48v-300h80v221c53 -3 139 -13 197 -42l22 74c89 -41 142 -113 142 -175v-26h-150v-67h384v67h-152z" />
</svg>
