<?xml version="1.0" standalone="no"?>
<!DOCTYPE svg PUBLIC "-//W3C//DTD SVG 1.1//EN" "http://www.w3.org/Graphics/SVG/1.1/DTD/svg11.dtd" >
<svg xmlns="http://www.w3.org/2000/svg" xmlns:xlink="http://www.w3.org/1999/xlink" version="1.1" viewBox="-10 0 930 1000">
   <path fill="currentColor"
d="M734 242h-120v111h120v-111zM614 420v99h-77v-445h77v101h120v-117h77v466h-77v-104h-120zM366 416v-134h-191v134h191zM446 103v381h-353v-381h82v114h191v-114h80zM237 791v97c75 0 151 -3 246 -15l7 62c-112 14 -195 15 -280 15h-49v-218h229v-94h-231v-63h306v216
h-228zM591 885h240v63h-319v-374h308v63h-229v93h220v58h-220v97z" />
</svg>
