<?xml version="1.0" standalone="no"?>
<!DOCTYPE svg PUBLIC "-//W3C//DTD SVG 1.1//EN" "http://www.w3.org/Graphics/SVG/1.1/DTD/svg11.dtd" >
<svg xmlns="http://www.w3.org/2000/svg" xmlns:xlink="http://www.w3.org/1999/xlink" version="1.1" viewBox="-10 0 930 1000">
   <path fill="currentColor"
d="M733 259h-118v126h118v-126zM615 454v126h-77v-506h77v115h118v-132h78v528h-78v-131h-118zM364 456v-138h-193v138h193zM441 121v401h-348v-401h78v133h193v-133h77zM820 706h-258c14 92 147 163 296 182l-28 62c-137 -18 -260 -78 -312 -165c-51 88 -175 147 -311 165
l-29 -62c150 -19 282 -89 296 -182h-259v-66h605v66z" />
</svg>
