<?xml version="1.0" standalone="no"?>
<!DOCTYPE svg PUBLIC "-//W3C//DTD SVG 1.1//EN" "http://www.w3.org/Graphics/SVG/1.1/DTD/svg11.dtd" >
<svg xmlns="http://www.w3.org/2000/svg" xmlns:xlink="http://www.w3.org/1999/xlink" version="1.1" viewBox="-10 0 930 1000">
   <path fill="currentColor"
d="M731 237h-117v107h117v-107zM614 411v104h-77v-440h77v95h117v-112h79v490h-79v-137h-117zM366 416v-133h-191v133h191zM447 103v381h-354v-381h82v115h191v-115h81zM503 895c114 0 177 -21 177 -60s-63 -60 -177 -60c-113 0 -175 21 -175 60s62 60 175 60zM503 717
c162 0 255 41 255 118s-93 118 -255 118c-161 0 -254 -41 -254 -118s93 -118 254 -118zM545 614h279v63h-641v-63h280v-79h82v79z" />
</svg>
