<?xml version="1.0" standalone="no"?>
<!DOCTYPE svg PUBLIC "-//W3C//DTD SVG 1.1//EN" "http://www.w3.org/Graphics/SVG/1.1/DTD/svg11.dtd" >
<svg xmlns="http://www.w3.org/2000/svg" xmlns:xlink="http://www.w3.org/1999/xlink" version="1.1" viewBox="-10 0 930 1000">
   <path fill="currentColor"
d="M418 463v-147h-247v147h247zM501 357v173h-412v-427h82v146h247v-146h83v187h201v-232h82v490h-82v-191h-201zM222 627v237c56 -2 128 -9 193 -32l14 67c-88 29 -175 34 -242 34h-44v-306h79zM614 904c55 0 93 -18 93 -49c0 -32 -38 -50 -93 -50s-94 18 -94 50
c0 31 39 49 94 49zM614 750c96 0 165 41 165 105c0 63 -69 104 -165 104c-97 0 -166 -41 -166 -104c0 -64 69 -105 166 -105zM658 652h180v61h-446v-61h186v-76h80v76z" />
</svg>
