<?xml version="1.0" standalone="no"?>
<!DOCTYPE svg PUBLIC "-//W3C//DTD SVG 1.1//EN" "http://www.w3.org/Graphics/SVG/1.1/DTD/svg11.dtd" >
<svg xmlns="http://www.w3.org/2000/svg" xmlns:xlink="http://www.w3.org/1999/xlink" version="1.1" viewBox="-10 0 930 1000">
   <path fill="currentColor"
d="M242 778v101c96 0 154 -2 227 -15l8 62c-84 15 -148 16 -267 16h-47v-224h208v-84h-211v-63h290v207h-208zM576 633v247h143v-247h-143zM504 942v-371h287v371h-287zM421 427v-133h-242v133h242zM709 58l82 -1v474h-82v-206h-207v168h-404v-392h81v129h242v-129h81v158
h207v-201z" />
</svg>
