<?xml version="1.0" standalone="no"?>
<!DOCTYPE svg PUBLIC "-//W3C//DTD SVG 1.1//EN" "http://www.w3.org/Graphics/SVG/1.1/DTD/svg11.dtd" >
<svg xmlns="http://www.w3.org/2000/svg" xmlns:xlink="http://www.w3.org/1999/xlink" version="1.1" viewBox="-10 0 930 1000">
   <path fill="currentColor"
d="M417 435v-140h-243v140h243zM499 338v163h-408v-400h83v130h243v-130h82v170h199v-213h83v488h-83v-208h-199zM220 789v96c95 0 156 -4 231 -17l7 64c-85 17 -153 18 -269 18h-48v-217h219v-86h-221v-65h300v207h-219zM610 647v237h71v-237h-71zM747 884h63v66h-330v-66
h65v-237h-60v-65h320v65h-58v237z" />
</svg>
