<?xml version="1.0" standalone="no"?>
<!DOCTYPE svg PUBLIC "-//W3C//DTD SVG 1.1//EN" "http://www.w3.org/Graphics/SVG/1.1/DTD/svg11.dtd" >
<svg xmlns="http://www.w3.org/2000/svg" xmlns:xlink="http://www.w3.org/1999/xlink" version="1.1" viewBox="-10 0 930 1000">
   <path fill="currentColor"
d="M425 436v-136h-252v136h252zM507 338v164h-416v-403h82v135h252v-135h82v171h195v-212h82v488h-82v-208h-195zM386 881v-119h-162v119h162zM705 588v73c0 86 56 183 158 230l-45 63c-73 -33 -123 -90 -152 -159c-29 71 -83 129 -161 161l-42 -60v50h-317v-355h78v109h162
v-109h77v298c104 -42 161 -135 161 -223v-78h81z" />
</svg>
