<?xml version="1.0" standalone="no"?>
<!DOCTYPE svg PUBLIC "-//W3C//DTD SVG 1.1//EN" "http://www.w3.org/Graphics/SVG/1.1/DTD/svg11.dtd" >
<svg xmlns="http://www.w3.org/2000/svg" xmlns:xlink="http://www.w3.org/1999/xlink" version="1.1" viewBox="-10 0 930 1000">
   <path fill="currentColor"
d="M425 421v-132h-251v132h251zM508 329v158h-417v-391h83v130h251v-130h83v166h193v-205h82v514h-82v-242h-193zM795 696h-263c3 85 141 168 295 187l-29 62c-134 -19 -254 -80 -307 -163c-54 84 -178 145 -313 163l-28 -62c153 -17 295 -100 298 -187h-263v-63h264v-89h83
v89h263v63z" />
</svg>
