<?xml version="1.0" standalone="no"?>
<!DOCTYPE svg PUBLIC "-//W3C//DTD SVG 1.1//EN" "http://www.w3.org/Graphics/SVG/1.1/DTD/svg11.dtd" >
<svg xmlns="http://www.w3.org/2000/svg" xmlns:xlink="http://www.w3.org/1999/xlink" version="1.1" viewBox="-10 0 930 1000">
   <path fill="currentColor"
d="M811 58v527h-78v-527h78zM366 455v-147h-194v147h194zM444 349v174h-350v-410h78v129h194v-128h78v169h120v-206h78v505h-78v-233h-120zM691 690v8c0 89 61 167 171 201l-42 60c-80 -27 -139 -79 -169 -144c-31 64 -92 122 -176 150l-41 -59c-80 26 -171 32 -218 32h-48
v-300h80v221c53 -3 139 -13 197 -42l22 73c89 -40 142 -112 142 -174v-26h-150v-67h384v67h-152z" />
</svg>
