<?xml version="1.0" standalone="no"?>
<!DOCTYPE svg PUBLIC "-//W3C//DTD SVG 1.1//EN" "http://www.w3.org/Graphics/SVG/1.1/DTD/svg11.dtd" >
<svg xmlns="http://www.w3.org/2000/svg" xmlns:xlink="http://www.w3.org/1999/xlink" version="1.1" viewBox="-10 0 930 1000">
   <path fill="currentColor"
d="M368 416v-133h-196v133h196zM445 320v165h-351v-384h78v117h196v-117h77v151h119v-176h78v445h-78v-201h-119zM229 791v96c102 0 163 -2 239 -15l9 62c-89 14 -156 16 -279 16h-49v-218h219v-93h-221v-65h301v217h-219zM737 883v-119h-163v119h163zM737 702v-130h74v376
h-311v-376h74v130h163zM733 58h79v470h-79v-470z" />
</svg>
