<?xml version="1.0" standalone="no"?>
<!DOCTYPE svg PUBLIC "-//W3C//DTD SVG 1.1//EN" "http://www.w3.org/Graphics/SVG/1.1/DTD/svg11.dtd" >
<svg xmlns="http://www.w3.org/2000/svg" xmlns:xlink="http://www.w3.org/1999/xlink" version="1.1" viewBox="-10 0 930 1000">
   <path fill="currentColor"
d="M701 241h-194v101h194v-101zM424 426v-137h-250v137h250zM507 407v85h-416v-396h83v129h250v-129h83v79h194v-117h85v471h-85v-122h-194zM224 787v100c68 0 144 -3 238 -15l7 63c-113 14 -196 15 -273 15h-48v-221h218v-90h-221v-63h297v211h-218zM576 885h226v63h-305
v-375h296v64h-217v93h207v58h-207v97z" />
</svg>
