<?xml version="1.0" standalone="no"?>
<!DOCTYPE svg PUBLIC "-//W3C//DTD SVG 1.1//EN" "http://www.w3.org/Graphics/SVG/1.1/DTD/svg11.dtd" >
<svg xmlns="http://www.w3.org/2000/svg" xmlns:xlink="http://www.w3.org/1999/xlink" version="1.1" viewBox="-10 0 930 1000">
   <path fill="currentColor"
d="M811 58v480h-78v-480h78zM560 246h-113v100h113v-100zM366 418v-135h-191v135h191zM447 411v75h-353v-384h81v116h191v-116h81v78h113v-107h77v459h-77v-121h-113zM240 784v101c94 -1 154 -4 228 -17l8 64c-87 17 -154 18 -269 18h-49v-221h217v-88h-219v-66h300v209
h-216zM628 641v243h71v-243h-71zM765 884h64v66h-331v-66h65v-243h-61v-66h323v66h-60v243z" />
</svg>
