<?xml version="1.0" standalone="no"?>
<!DOCTYPE svg PUBLIC "-//W3C//DTD SVG 1.1//EN" "http://www.w3.org/Graphics/SVG/1.1/DTD/svg11.dtd" >
<svg xmlns="http://www.w3.org/2000/svg" xmlns:xlink="http://www.w3.org/1999/xlink" version="1.1" viewBox="-10 0 930 1000">
   <path fill="currentColor"
d="M812 58v530h-78v-530h78zM565 266h-121v104h121v-104zM367 459v-152h-195v152h195zM444 438v89h-350v-414h78v128h195v-127h77v85h121v-126h78v515h-78v-150h-121zM695 611v52c0 95 69 191 185 229l-43 60c-86 -31 -147 -91 -180 -165c-27 76 -79 143 -162 178v-1l-1 1
c-83 -35 -135 -100 -162 -176c-33 73 -95 133 -179 163l-44 -60c117 -38 185 -134 185 -229v-52h79v50c0 84 39 169 121 221c82 -52 122 -139 122 -221v-50h79z" />
</svg>
