<?xml version="1.0" standalone="no"?>
<!DOCTYPE svg PUBLIC "-//W3C//DTD SVG 1.1//EN" "http://www.w3.org/Graphics/SVG/1.1/DTD/svg11.dtd" >
<svg xmlns="http://www.w3.org/2000/svg" xmlns:xlink="http://www.w3.org/1999/xlink" version="1.1" viewBox="-10 0 930 1000">
   <path fill="currentColor"
d="M209 251v94h250v-94h-250zM611 482l5 64c-174 21 -387 33 -555 34l-11 -72c76 0 160 -2 244 -6v-92h-166v-313h81v92h250v-92h81v313h-162v88c80 -3 160 -9 233 -16zM135 721v-66h289v301h-82v-235h-207zM467 721v-67h283v303h-83v-236h-200zM881 311v70h-131v224h-83
v-548h83v254h131z" />
</svg>
