<?xml version="1.0" standalone="no"?>
<!DOCTYPE svg PUBLIC "-//W3C//DTD SVG 1.1//EN" "http://www.w3.org/Graphics/SVG/1.1/DTD/svg11.dtd" >
<svg xmlns="http://www.w3.org/2000/svg" xmlns:xlink="http://www.w3.org/1999/xlink" version="1.1" viewBox="-10 0 930 1000">
   <path fill="currentColor"
d="M210 233v86h249v-86h-249zM611 452l6 63c-174 20 -385 31 -555 32l-12 -71c76 0 160 -2 243 -5v-91h-165v-295h82v88h249v-88h81v295h-162v87c80 -3 160 -8 233 -15zM205 804v85c95 0 154 -2 227 -15l6 61c-85 15 -148 15 -264 15h-47v-202h208v-78h-210v-61h288v195
h-208zM542 804v83h223v61h-303v-342h290v61h-210v81h201v56h-201zM750 289h131v69h-131v199h-83v-499h83v231z" />
</svg>
