<?xml version="1.0" standalone="no"?>
<!DOCTYPE svg PUBLIC "-//W3C//DTD SVG 1.1//EN" "http://www.w3.org/Graphics/SVG/1.1/DTD/svg11.dtd" >
<svg xmlns="http://www.w3.org/2000/svg" xmlns:xlink="http://www.w3.org/1999/xlink" version="1.1" viewBox="-10 0 930 1000">
   <path fill="currentColor"
d="M210 234v87h249v-87h-249zM613 438l5 58c-191 35 -404 37 -562 38l-9 -66c72 0 158 0 246 -3v-83h-165v-297h82v88h249v-88h81v297h-165v79c80 -4 162 -11 238 -23zM469 897c112 0 171 -17 171 -52s-59 -52 -171 -52c-113 0 -172 17 -172 52s59 52 172 52zM469 737
c163 0 253 36 253 108c0 73 -90 108 -253 108c-164 0 -254 -35 -254 -108c0 -72 90 -108 254 -108zM510 556v78h278v63h-639v-63h279v-78h82zM751 278h129v68h-129v226h-82v-514h82v220z" />
</svg>
