<?xml version="1.0" standalone="no"?>
<!DOCTYPE svg PUBLIC "-//W3C//DTD SVG 1.1//EN" "http://www.w3.org/Graphics/SVG/1.1/DTD/svg11.dtd" >
<svg xmlns="http://www.w3.org/2000/svg" xmlns:xlink="http://www.w3.org/1999/xlink" version="1.1" viewBox="-10 0 930 1000">
   <path fill="currentColor"
d="M631 374v231h-78v-532h78v233h107v-248h79v553h-79v-237h-107zM183 254v98h206v-98h-206zM508 493l7 63c-135 17 -324 29 -449 29l-12 -71c57 0 126 -2 196 -5v-92h-148v-313h81v89h206v-89h81v313h-140v88c65 -2 127 -7 178 -12zM166 713v-67h299v309h-82v-242h-217z
M717 640v37c0 93 54 180 159 216l-45 63c-77 -29 -127 -83 -154 -149c-30 67 -86 124 -164 154l-44 -63c108 -41 167 -131 167 -216v-42h81z" />
</svg>
