<?xml version="1.0" standalone="no"?>
<!DOCTYPE svg PUBLIC "-//W3C//DTD SVG 1.1//EN" "http://www.w3.org/Graphics/SVG/1.1/DTD/svg11.dtd" >
<svg xmlns="http://www.w3.org/2000/svg" xmlns:xlink="http://www.w3.org/1999/xlink" version="1.1" viewBox="-10 0 930 1000">
   <path fill="currentColor"
d="M631 374v231h-78v-532h78v233h107v-248h79v553h-79v-237h-107zM183 254v98h206v-98h-206zM508 493l7 63c-135 17 -326 29 -450 29l-12 -71c57 0 126 -2 197 -5v-92h-148v-313h81v89h206v-89h81v313h-140v88c65 -2 127 -7 178 -12zM692 703v2c0 82 62 162 168 196l-40 60
c-79 -27 -135 -79 -165 -142c-31 63 -90 119 -173 147l-38 -59c-80 28 -173 34 -220 34h-47v-290h80v211c52 -3 136 -12 193 -40l22 71c88 -39 142 -110 142 -172v-18h-149v-67h377v67h-150z" />
</svg>
