<?xml version="1.0" standalone="no"?>
<!DOCTYPE svg PUBLIC "-//W3C//DTD SVG 1.1//EN" "http://www.w3.org/Graphics/SVG/1.1/DTD/svg11.dtd" >
<svg xmlns="http://www.w3.org/2000/svg" xmlns:xlink="http://www.w3.org/1999/xlink" version="1.1" viewBox="-10 0 930 1000">
   <path fill="currentColor"
d="M191 235v88h192v-88h-192zM511 449l6 60c-133 16 -324 27 -453 28l-10 -70c57 0 126 -2 196 -5v-78h-141v-295h82v87h192v-87h82v295h-136v76c65 -3 129 -7 182 -11zM233 801v88c101 0 162 -2 239 -15l9 60c-89 15 -157 16 -281 16h-49v-205h219v-87h-221v-61h303v204
h-219zM741 886v-113h-158v113h158zM741 712v-117h75v353h-308v-353h75v117h158zM738 58h79v489h-79v-200h-107v198h-78v-472h78v206h107v-221z" />
</svg>
