<?xml version="1.0" standalone="no"?>
<!DOCTYPE svg PUBLIC "-//W3C//DTD SVG 1.1//EN" "http://www.w3.org/Graphics/SVG/1.1/DTD/svg11.dtd" >
<svg xmlns="http://www.w3.org/2000/svg" xmlns:xlink="http://www.w3.org/1999/xlink" version="1.1" viewBox="-10 0 930 1000">
   <path fill="currentColor"
d="M631 346v199h-78v-473h78v207h108v-221h78v491h-78v-203h-108zM191 235v88h192v-88h-192zM511 449l6 60c-134 16 -324 27 -454 28l-10 -70c57 0 126 -2 197 -5v-78h-141v-295h82v87h192v-87h82v295h-136v76c65 -3 129 -7 182 -11zM715 591v69c0 95 49 190 154 233l-45 61
c-74 -33 -122 -90 -149 -161c-27 75 -77 135 -154 169l-37 -49l3 19c-81 17 -145 18 -274 18h-49v-210h223v-81h-225v-61h305v199h-223v92c105 0 164 -3 233 -17l4 27c103 -46 154 -142 154 -241v-67h80z" />
</svg>
