<?xml version="1.0" standalone="no"?>
<!DOCTYPE svg PUBLIC "-//W3C//DTD SVG 1.1//EN" "http://www.w3.org/Graphics/SVG/1.1/DTD/svg11.dtd" >
<svg xmlns="http://www.w3.org/2000/svg" xmlns:xlink="http://www.w3.org/1999/xlink" version="1.1" viewBox="-10 0 930 1000">
   <path fill="currentColor"
d="M631 360v213h-78v-500h78v219h107v-235h79v519h-79v-216h-107zM191 246v94h193v-94h-193zM511 467l6 61c-135 17 -325 29 -453 29l-10 -70c57 0 126 -2 196 -5v-81h-140v-305h81v89h193v-89h81v305h-137v79c66 -3 129 -8 183 -13zM409 885v-106h-166v106h166zM726 606v59
c0 85 55 180 157 226l-44 64c-73 -33 -124 -91 -153 -160c-28 68 -81 128 -157 160l-42 -59v52h-321v-338h77v108h166v-108h78v279c101 -44 158 -139 158 -214v-69h81z" />
</svg>
