<?xml version="1.0" standalone="no"?>
<!DOCTYPE svg PUBLIC "-//W3C//DTD SVG 1.1//EN" "http://www.w3.org/Graphics/SVG/1.1/DTD/svg11.dtd" >
<svg xmlns="http://www.w3.org/2000/svg" xmlns:xlink="http://www.w3.org/1999/xlink" version="1.1" viewBox="-10 0 930 1000">
   <path fill="currentColor"
d="M217 231v85h251v-85h-251zM629 448l7 63c-181 22 -397 33 -571 35l-11 -71c77 0 163 -2 248 -6v-90h-167v-294h82v86h251v-86h82v294h-163v86c83 -3 166 -9 242 -17zM243 794v95c103 0 179 -3 275 -18l6 61c-107 17 -190 18 -309 18h-53v-213h219v-79h-221v-62h302v198
h-219zM498 659v-64h283v360h-83v-296h-200zM699 58h82v500h-82v-500z" />
</svg>
