<?xml version="1.0" standalone="no"?>
<!DOCTYPE svg PUBLIC "-//W3C//DTD SVG 1.1//EN" "http://www.w3.org/Graphics/SVG/1.1/DTD/svg11.dtd" >
<svg xmlns="http://www.w3.org/2000/svg" xmlns:xlink="http://www.w3.org/1999/xlink" version="1.1" viewBox="-10 0 930 1000">
   <path fill="currentColor"
d="M782 58v500h-82v-500h82zM216 230v85h253v-85h-253zM629 448l7 63c-181 22 -397 33 -571 35l-11 -71c78 0 163 -2 249 -6v-91h-168v-293h81v86h253v-86h82v293h-165v87c83 -3 167 -9 243 -17zM234 797v91c91 0 151 -3 223 -17l8 62c-85 16 -151 17 -265 17h-47v-207h210
v-81h-212v-62h293v197h-210zM614 662v224h72v-224h-72zM753 886h61v64h-327v-64h61v-224h-58v-62h315v62h-52v224z" />
</svg>
