<?xml version="1.0" standalone="no"?>
<!DOCTYPE svg PUBLIC "-//W3C//DTD SVG 1.1//EN" "http://www.w3.org/Graphics/SVG/1.1/DTD/svg11.dtd" >
<svg xmlns="http://www.w3.org/2000/svg" xmlns:xlink="http://www.w3.org/1999/xlink" version="1.1" viewBox="-10 0 930 1000">
   <path fill="currentColor"
d="M781 58v485h-82v-485h82zM217 231v85h251v-85h-251zM629 448l6 63c-180 22 -396 33 -570 35l-11 -71c78 0 163 -2 249 -6v-90h-168v-294h82v86h251v-86h82v294h-164v86c83 -3 167 -9 243 -17zM228 803v85c96 0 155 -3 226 -17l8 62c-83 15 -146 17 -265 17h-48v-204h201
v-84h-203v-61h282v202h-201zM643 906c48 0 82 -22 82 -58s-34 -58 -82 -58c-49 0 -82 22 -82 58s33 58 82 58zM643 734c87 0 151 44 151 114s-64 114 -151 114c-88 0 -152 -44 -152 -114s64 -114 152 -114zM682 645h147v61h-371v-61h144v-79h80v79z" />
</svg>
