<?xml version="1.0" standalone="no"?>
<!DOCTYPE svg PUBLIC "-//W3C//DTD SVG 1.1//EN" "http://www.w3.org/Graphics/SVG/1.1/DTD/svg11.dtd" >
<svg xmlns="http://www.w3.org/2000/svg" xmlns:xlink="http://www.w3.org/1999/xlink" version="1.1" viewBox="-10 0 930 1000">
   <path fill="currentColor"
d="M211 798v89c85 0 149 -3 231 -15l9 62c-96 14 -169 16 -272 16h-48v-210h212v-86h-214v-63h295v207h-213zM703 884v-114h-152v114h152zM703 708v-119h76v359h-304v-359h76v119h152zM352 370v87h199v-87h-199zM235 215v90h433v-90h-433zM635 457h225v62h-814v-62h223v-87
h-117v-304h83v86h433v-86h83v304h-116v87z" />
</svg>
