<?xml version="1.0" standalone="no"?>
<!DOCTYPE svg PUBLIC "-//W3C//DTD SVG 1.1//EN" "http://www.w3.org/Graphics/SVG/1.1/DTD/svg11.dtd" >
<svg xmlns="http://www.w3.org/2000/svg" xmlns:xlink="http://www.w3.org/1999/xlink" version="1.1" viewBox="-10 0 930 1000">
   <path fill="currentColor"
d="M452 888c146 0 229 -35 229 -96s-83 -95 -229 -95s-229 34 -229 95s83 96 229 96zM452 629c198 0 314 57 314 163s-116 164 -314 164c-197 0 -313 -58 -313 -164s116 -163 313 -163zM352 402v102h198v-102h-198zM235 236v100h433v-100h-433zM634 504h224v65h-813v-65h224
v-102h-118v-325h84v96h433v-96h83v325h-117v102z" />
</svg>
