<?xml version="1.0" standalone="no"?>
<!DOCTYPE svg PUBLIC "-//W3C//DTD SVG 1.1//EN" "http://www.w3.org/Graphics/SVG/1.1/DTD/svg11.dtd" >
<svg xmlns="http://www.w3.org/2000/svg" xmlns:xlink="http://www.w3.org/1999/xlink" version="1.1" viewBox="-10 0 930 1000">
   <path fill="currentColor"
d="M668 336v-100h-433v100h433zM751 77v325h-600v-325h84v95h433v-95h83zM860 548h-366v104h292v68h-149c5 78 67 148 168 180l-42 59c-79 -26 -135 -76 -165 -138c-30 62 -89 117 -169 145l-41 -59c-84 27 -180 33 -215 33h-47v-276h79v197c49 -3 137 -13 194 -40l21 70
c85 -39 138 -108 138 -167v-4h-145v-38h-3v-134h-365v-66h815v66z" />
</svg>
