<?xml version="1.0" standalone="no"?>
<!DOCTYPE svg PUBLIC "-//W3C//DTD SVG 1.1//EN" "http://www.w3.org/Graphics/SVG/1.1/DTD/svg11.dtd" >
<svg xmlns="http://www.w3.org/2000/svg" xmlns:xlink="http://www.w3.org/1999/xlink" version="1.1" viewBox="-10 0 930 1000">
   <path fill="currentColor"
d="M670 336v-100h-436v100h436zM751 77v325h-599v-325h82v95h436v-95h81zM655 642v32c0 93 65 190 181 229l-43 60c-85 -32 -146 -93 -178 -166c-27 74 -80 141 -162 177c-82 -35 -134 -102 -161 -176c-32 73 -92 134 -176 165l-45 -60c118 -39 182 -136 182 -229v-32h79v32
c0 76 39 165 121 216c82 -53 122 -142 122 -216v-32h80zM46 482h814v66h-367v134h-82v-134h-365v-66z" />
</svg>
