<?xml version="1.0" standalone="no"?>
<!DOCTYPE svg PUBLIC "-//W3C//DTD SVG 1.1//EN" "http://www.w3.org/Graphics/SVG/1.1/DTD/svg11.dtd" >
<svg xmlns="http://www.w3.org/2000/svg" xmlns:xlink="http://www.w3.org/1999/xlink" version="1.1" viewBox="-10 0 930 1000">
   <path fill="currentColor"
d="M516 539h187v-481h83v576h-83v-37h-187v-58zM467 311v-82h-255v82h255zM550 88v285h-421v-285h83v81h255v-81h83zM287 636v-136c-81 3 -159 4 -230 4l-12 -69c176 -1 391 -3 579 -20l7 61c-85 10 -174 17 -261 21v139h-83zM143 734l1 -68h306v290h-82v-222h-225zM703 656
v27c0 85 55 175 159 212l-44 64c-77 -31 -128 -87 -156 -153c-30 68 -85 126 -164 157l-44 -64c109 -40 167 -132 167 -218v-25h82z" />
</svg>
