<?xml version="1.0" standalone="no"?>
<!DOCTYPE svg PUBLIC "-//W3C//DTD SVG 1.1//EN" "http://www.w3.org/Graphics/SVG/1.1/DTD/svg11.dtd" >
<svg xmlns="http://www.w3.org/2000/svg" xmlns:xlink="http://www.w3.org/1999/xlink" version="1.1" viewBox="-10 0 930 1000">
   <path fill="currentColor"
d="M516 498h187v-441h83v531h-83v-35h-187v-55zM466 291v-78h-250v78h250zM549 80v271h-415v-271h82v76h250v-76h83zM287 587v-114c-81 3 -160 4 -230 4l-11 -67c175 -1 390 -3 577 -20l7 59c-84 10 -173 17 -260 21v117h-83zM706 613v51c0 96 49 187 151 230l-45 61
c-72 -32 -120 -90 -146 -159c-27 73 -76 131 -153 164l-39 -54l4 27c-82 16 -145 17 -272 17h-48v-198h220v-72h-222v-60h302v189h-221v81c104 0 163 -3 232 -17l4 24c103 -41 152 -136 152 -240v-44h81z" />
</svg>
