<?xml version="1.0" standalone="no"?>
<!DOCTYPE svg PUBLIC "-//W3C//DTD SVG 1.1//EN" "http://www.w3.org/Graphics/SVG/1.1/DTD/svg11.dtd" >
<svg xmlns="http://www.w3.org/2000/svg" xmlns:xlink="http://www.w3.org/1999/xlink" version="1.1" viewBox="-10 0 930 1000">
   <path fill="currentColor"
d="M515 498h188v-441h82v531h-82v-35h-188v-55zM466 291v-78h-250v78h250zM549 80v271h-415v-271h82v76h250v-76h83zM287 588v-115c-81 3 -160 4 -230 4l-11 -67c175 -1 390 -3 578 -20l7 59c-85 10 -174 17 -261 21v118h-83zM219 811v80c103 0 163 -3 239 -16l8 59
c-88 15 -154 16 -276 16h-48v-195h222v-78h-224v-60h301v194h-222zM575 888h229v60h-308v-330h296v60h-217v78h207v56h-207v76z" />
</svg>
