<?xml version="1.0" standalone="no"?>
<!DOCTYPE svg PUBLIC "-//W3C//DTD SVG 1.1//EN" "http://www.w3.org/Graphics/SVG/1.1/DTD/svg11.dtd" >
<svg xmlns="http://www.w3.org/2000/svg" xmlns:xlink="http://www.w3.org/1999/xlink" version="1.1" viewBox="-10 0 930 1000">
   <path fill="currentColor"
d="M516 539h187v-481h82v576h-82v-37h-187v-58zM467 311v-82h-255v82h255zM550 88v285h-421v-285h83v81h255v-81h83zM287 636v-136c-81 3 -159 4 -230 4l-12 -69c176 -1 391 -3 579 -20l6 61c-84 10 -173 17 -260 21v139h-83zM166 666h620v289h-84v-99l-546 26l-12 -64
l558 -19v-69h-536v-64z" />
</svg>
