<?xml version="1.0" standalone="no"?>
<!DOCTYPE svg PUBLIC "-//W3C//DTD SVG 1.1//EN" "http://www.w3.org/Graphics/SVG/1.1/DTD/svg11.dtd" >
<svg xmlns="http://www.w3.org/2000/svg" xmlns:xlink="http://www.w3.org/1999/xlink" version="1.1" viewBox="-10 0 930 1000">
   <path fill="currentColor"
d="M412 538h159v-462h77v555h-77v-34h-159v-59zM389 310v-72h-205v72h205zM469 106v265h-367v-265h82v71h205v-71h80zM245 631v-130c-66 3 -130 5 -183 5l-9 -68c128 -1 325 -6 462 -22l6 60c-60 8 -129 15 -198 20v135h-78zM174 734v-66h303v291h-82v-225h-221zM524 734
v-66h293v291h-82v-225h-211zM739 58h78v574h-78v-574z" />
</svg>
