<?xml version="1.0" standalone="no"?>
<!DOCTYPE svg PUBLIC "-//W3C//DTD SVG 1.1//EN" "http://www.w3.org/Graphics/SVG/1.1/DTD/svg11.dtd" >
<svg xmlns="http://www.w3.org/2000/svg" xmlns:xlink="http://www.w3.org/1999/xlink" version="1.1" viewBox="-10 0 930 1000">
   <path fill="currentColor"
d="M817 57v534h-78v-534h78zM416 494h160v-422h78v515h-78v-38h-160v-55zM383 296v-77h-191v77h191zM464 85v271h-354v-271h82v77h191v-77h81zM253 584v-112c-70 4 -137 5 -193 5l-10 -67c133 0 334 -6 475 -23l6 59c-61 9 -131 16 -200 21v117h-78zM235 814v78
c102 0 164 -3 241 -16l8 58c-90 15 -159 17 -283 17h-48v-193h222v-78h-224v-61h306v195h-222zM746 897v-219h-160v219h160zM514 619h304v337h-304v-337z" />
</svg>
