<?xml version="1.0" standalone="no"?>
<!DOCTYPE svg PUBLIC "-//W3C//DTD SVG 1.1//EN" "http://www.w3.org/Graphics/SVG/1.1/DTD/svg11.dtd" >
<svg xmlns="http://www.w3.org/2000/svg" xmlns:xlink="http://www.w3.org/1999/xlink" version="1.1" viewBox="-10 0 930 1000">
   <path fill="currentColor"
d="M817 57v534h-78v-534h78zM417 494h159v-422h78v515h-78v-38h-159v-55zM383 296v-77h-191v77h191zM464 85v271h-354v-271h82v77h191v-77h81zM253 584v-112c-70 4 -137 5 -193 5l-10 -67c133 0 334 -6 475 -23l6 59c-61 9 -131 16 -200 21v117h-78zM716 614v50
c0 96 49 187 150 230l-45 61c-72 -32 -120 -90 -146 -159c-26 73 -76 131 -153 164l-39 -54l4 27c-81 16 -144 17 -271 17h-48v-198h220v-72h-222v-60h302v190h-221v80c104 0 162 -3 232 -17l3 24c103 -41 153 -136 153 -240v-44z" />
</svg>
