<?xml version="1.0" standalone="no"?>
<!DOCTYPE svg PUBLIC "-//W3C//DTD SVG 1.1//EN" "http://www.w3.org/Graphics/SVG/1.1/DTD/svg11.dtd" >
<svg xmlns="http://www.w3.org/2000/svg" xmlns:xlink="http://www.w3.org/1999/xlink" version="1.1" viewBox="-10 0 930 1000">
   <path fill="currentColor"
d="M817 57v613h-79v-613h79zM417 533h159v-461h77v561h-77v-41h-159v-59zM389 310v-72h-205v72h205zM469 106v265h-367v-265h82v71h205v-71h80zM251 654v-151c-68 3 -133 4 -185 4l-9 -66c128 0 326 -4 467 -22l5 57c-61 10 -131 17 -200 22v156h-78zM513 894
c154 0 230 -26 230 -78c0 -53 -76 -79 -230 -79c-153 0 -229 26 -229 79c0 52 76 78 229 78zM513 676c207 0 315 46 315 140c0 93 -108 138 -315 138c-205 0 -314 -45 -314 -138c0 -94 109 -140 314 -140z" />
</svg>
