<?xml version="1.0" standalone="no"?>
<!DOCTYPE svg PUBLIC "-//W3C//DTD SVG 1.1//EN" "http://www.w3.org/Graphics/SVG/1.1/DTD/svg11.dtd" >
<svg xmlns="http://www.w3.org/2000/svg" xmlns:xlink="http://www.w3.org/1999/xlink" version="1.1" viewBox="-10 0 930 1000">
   <path fill="currentColor"
d="M473 300v-76h-258v76h258zM555 87v274h-422v-274h82v79h258v-79h82zM243 794v95c118 0 188 -4 273 -21l9 61c-96 18 -172 21 -309 21h-54v-214h220v-79h-222v-61h149v-101c-84 3 -165 4 -238 4l-12 -68c173 0 389 -2 578 -19l5 59c-81 11 -167 16 -250 21v104h71v198
h-220zM499 661v-65h282v360h-82v-295h-200zM699 57h82v495h-82v-495z" />
</svg>
