<?xml version="1.0" standalone="no"?>
<!DOCTYPE svg PUBLIC "-//W3C//DTD SVG 1.1//EN" "http://www.w3.org/Graphics/SVG/1.1/DTD/svg11.dtd" >
<svg xmlns="http://www.w3.org/2000/svg" xmlns:xlink="http://www.w3.org/1999/xlink" version="1.1" viewBox="-10 0 930 1000">
   <path fill="currentColor"
d="M781 57v496h-82v-496h82zM474 302v-78h-259v78h259zM556 88v273h-423v-273h82v78h259v-78h82zM233 794v94c92 0 152 -3 224 -17l8 61c-85 16 -151 18 -265 18h-47v-208h212v-80h-214v-62h158v-105c-85 3 -165 4 -238 4l-12 -68c172 0 389 -2 578 -19l6 59
c-82 11 -167 16 -251 21v108h53v194h-212zM615 662v223h65v-223h-65zM746 885h66v64h-325v-64h62v-223h-59v-63h315v63h-59v223z" />
</svg>
