<?xml version="1.0" standalone="no"?>
<!DOCTYPE svg PUBLIC "-//W3C//DTD SVG 1.1//EN" "http://www.w3.org/Graphics/SVG/1.1/DTD/svg11.dtd" >
<svg xmlns="http://www.w3.org/2000/svg" xmlns:xlink="http://www.w3.org/1999/xlink" version="1.1" viewBox="-10 0 930 1000">
   <path fill="currentColor"
d="M668 336v-100h-433v100h433zM752 77v325h-600v-325h83v96h433v-96h84zM860 542h-214v114h30v21c0 89 53 181 158 219l-46 63c-76 -30 -126 -86 -153 -155c-30 69 -84 126 -161 158l-45 -62c102 -40 159 -126 165 -206h-32v-152h-220v121h82v293h-82v-226h-214v-67h131
v-121h-214v-65h815v65z" />
</svg>
