<?xml version="1.0" standalone="no"?>
<!DOCTYPE svg PUBLIC "-//W3C//DTD SVG 1.1//EN" "http://www.w3.org/Graphics/SVG/1.1/DTD/svg11.dtd" >
<svg xmlns="http://www.w3.org/2000/svg" xmlns:xlink="http://www.w3.org/1999/xlink" version="1.1" viewBox="-10 0 930 1000">
   <path fill="currentColor"
d="M669 302v-91h-435v91h435zM750 63v304h-597v-304h81v85h435v-85h81zM454 912c112 0 177 -18 177 -50c0 -34 -65 -51 -177 -51s-177 17 -177 51c0 32 65 50 177 50zM454 759c166 0 261 35 261 103c0 66 -95 102 -261 102s-261 -36 -261 -102c0 -68 95 -103 261 -103z
M494 577v77h293v64h-666v-64h291v-77h82zM46 435h814v65h-199v107h-82v-107h-255v107h-80v-107h-198v-65z" />
</svg>
