<?xml version="1.0" standalone="no"?>
<!DOCTYPE svg PUBLIC "-//W3C//DTD SVG 1.1//EN" "http://www.w3.org/Graphics/SVG/1.1/DTD/svg11.dtd" >
<svg xmlns="http://www.w3.org/2000/svg" xmlns:xlink="http://www.w3.org/1999/xlink" version="1.1" viewBox="-10 0 930 1000">
   <path fill="currentColor"
d="M668 307v-92h-433v92h433zM752 66v304h-600v-304h83v86h433v-86h84zM208 798v91c81 -1 152 -4 240 -16l6 61c-103 15 -180 16 -276 16h-49v-210h222v-86h-224v-63h303v207h-222zM556 796v89h236v63h-314v-357h304v63h-226v84h217v58h-217zM45 448h815v65h-815v-65z" />
</svg>
