<?xml version="1.0" standalone="no"?>
<!DOCTYPE svg PUBLIC "-//W3C//DTD SVG 1.1//EN" "http://www.w3.org/Graphics/SVG/1.1/DTD/svg11.dtd" >
<svg xmlns="http://www.w3.org/2000/svg" xmlns:xlink="http://www.w3.org/1999/xlink" version="1.1" viewBox="-10 0 930 1000">
   <path fill="currentColor"
d="M781 57v554h-82v-554h82zM467 345v-93h-251v93h251zM550 96v314h-417v-314h83v94h251v-94h83zM632 479l7 62c-181 18 -391 27 -571 29l-11 -71c185 -2 394 -8 575 -20zM666 709v2c0 85 62 157 167 188l-42 60c-78 -24 -134 -71 -164 -132c-31 61 -90 112 -170 137
l-39 -57c-80 26 -170 32 -217 32h-47v-287h79v210c53 -3 138 -13 196 -41l21 70c86 -37 137 -103 137 -166v-16h-146v-67h373v67h-148z" />
</svg>
