<?xml version="1.0" standalone="no"?>
<!DOCTYPE svg PUBLIC "-//W3C//DTD SVG 1.1//EN" "http://www.w3.org/Graphics/SVG/1.1/DTD/svg11.dtd" >
<svg xmlns="http://www.w3.org/2000/svg" xmlns:xlink="http://www.w3.org/1999/xlink" version="1.1" viewBox="-10 0 930 1000">
   <path fill="currentColor"
d="M467 317v-86h-250v86h250zM550 85v294h-416v-294h83v88h250v-88h83zM629 437l7 61c-181 21 -395 31 -571 33l-11 -69c181 -2 396 -10 575 -25zM243 794v95c103 0 179 -3 275 -18l6 61c-107 17 -190 18 -309 18h-53v-213h219v-80h-221v-61h302v198h-219zM498 659v-64h283
v360h-83v-296h-200zM699 58h82v489h-82v-489z" />
</svg>
