<?xml version="1.0" standalone="no"?>
<!DOCTYPE svg PUBLIC "-//W3C//DTD SVG 1.1//EN" "http://www.w3.org/Graphics/SVG/1.1/DTD/svg11.dtd" >
<svg xmlns="http://www.w3.org/2000/svg" xmlns:xlink="http://www.w3.org/1999/xlink" version="1.1" viewBox="-10 0 930 1000">
   <path fill="currentColor"
d="M781 58v463h-84v-463h84zM431 419v-130h-253v130h253zM512 98v388h-416v-388h82v127h253v-127h81zM227 787v101c68 0 142 -3 235 -16l7 63c-112 14 -193 15 -269 15h-48v-222h215v-89h-218v-63h294v211h-216zM576 885h222v63h-301v-375h291v64h-212v92h203v59h-203v97z
" />
</svg>
