<?xml version="1.0" standalone="no"?>
<!DOCTYPE svg PUBLIC "-//W3C//DTD SVG 1.1//EN" "http://www.w3.org/Graphics/SVG/1.1/DTD/svg11.dtd" >
<svg xmlns="http://www.w3.org/2000/svg" xmlns:xlink="http://www.w3.org/1999/xlink" version="1.1" viewBox="-10 0 930 1000">
   <path fill="currentColor"
d="M100 113h81v138h258v-138h81v416h-420v-416zM181 315v148h258v-148h-258zM707 58h82v543h-82v-543zM491 619c186 0 301 61 301 167s-115 167 -301 167s-301 -61 -301 -167s115 -167 301 -167zM491 683c-136 0 -220 38 -220 103c0 64 84 103 220 103s219 -39 219 -103
c0 -65 -83 -103 -219 -103z" />
</svg>
