<?xml version="1.0" standalone="no"?>
<!DOCTYPE svg PUBLIC "-//W3C//DTD SVG 1.1//EN" "http://www.w3.org/Graphics/SVG/1.1/DTD/svg11.dtd" >
<svg xmlns="http://www.w3.org/2000/svg" xmlns:xlink="http://www.w3.org/1999/xlink" version="1.1" viewBox="-10 0 930 1000">
   <path fill="currentColor"
d="M788 58v519h-82v-519h82zM439 430v-134h-258v134h258zM520 95v401h-420v-401h81v137h258v-137h81zM809 705h-262c5 84 142 168 294 187l-29 61c-135 -18 -255 -80 -308 -163c-53 85 -176 146 -311 164l-28 -62c152 -17 293 -100 297 -187h-262v-64h263v-87h82v87h264v64z
" />
</svg>
