<?xml version="1.0" standalone="no"?>
<!DOCTYPE svg PUBLIC "-//W3C//DTD SVG 1.1//EN" "http://www.w3.org/Graphics/SVG/1.1/DTD/svg11.dtd" >
<svg xmlns="http://www.w3.org/2000/svg" xmlns:xlink="http://www.w3.org/1999/xlink" version="1.1" viewBox="-10 0 930 1000">
   <path fill="currentColor"
d="M543 477v-150h-101v150h101zM613 116v427h-240v-427h69v146h101v-146h70zM249 477v-150h-103v150h103zM317 116v427h-240v-427h69v146h103v-146h68zM532 617v23c0 127 143 220 302 246l-32 64c-135 -25 -259 -92 -312 -195c-55 103 -178 170 -314 195l-32 -64
c160 -26 303 -119 303 -246v-23h85zM772 311h111v68h-111v297h-80v-619h80v254z" />
</svg>
