<?xml version="1.0" standalone="no"?>
<!DOCTYPE svg PUBLIC "-//W3C//DTD SVG 1.1//EN" "http://www.w3.org/Graphics/SVG/1.1/DTD/svg11.dtd" >
<svg xmlns="http://www.w3.org/2000/svg" xmlns:xlink="http://www.w3.org/1999/xlink" version="1.1" viewBox="-10 0 930 1000">
   <path fill="currentColor"
d="M468 427v-127h-87v127h87zM529 108v385h-209v-385h61v126h87v-126h61zM215 427v-126h-90v126h90zM276 108v385h-212v-385h61v126h90v-126h61zM225 792v96c100 0 163 -2 244 -15l9 61c-93 15 -164 16 -283 16h-50v-217h225v-94h-227v-64h306v217h-224zM741 884v-119h-166
v119h166zM741 702v-129h75v375h-315v-375h74v129h166zM747 57h69v474h-69v-202h-88v198h-68v-453h68v188h88v-205z" />
</svg>
