<?xml version="1.0" standalone="no"?>
<!DOCTYPE svg PUBLIC "-//W3C//DTD SVG 1.1//EN" "http://www.w3.org/Graphics/SVG/1.1/DTD/svg11.dtd" >
<svg xmlns="http://www.w3.org/2000/svg" xmlns:xlink="http://www.w3.org/1999/xlink" version="1.1" viewBox="-10 0 930 1000">
   <path fill="currentColor"
d="M659 329v199h-68v-454h68v188h88v-205h69v474h-69v-202h-88zM468 427v-127h-87v127h87zM529 108v385h-209v-385h61v126h87v-126h61zM215 427v-126h-90v126h90zM276 108v385h-212v-385h61v126h90v-126h61zM714 570v89c0 97 49 190 152 234l-44 61
c-74 -32 -122 -89 -148 -158c-26 73 -76 133 -152 166l-42 -55l4 26c-81 16 -144 17 -271 17h-48v-222h218v-89h-220v-64h300v213h-218v98c103 0 159 -3 230 -17l4 29c104 -43 155 -138 155 -241v-88z" />
</svg>
