<?xml version="1.0" standalone="no"?>
<!DOCTYPE svg PUBLIC "-//W3C//DTD SVG 1.1//EN" "http://www.w3.org/Graphics/SVG/1.1/DTD/svg11.dtd" >
<svg xmlns="http://www.w3.org/2000/svg" xmlns:xlink="http://www.w3.org/1999/xlink" version="1.1" viewBox="-10 0 930 1000">
   <path fill="currentColor"
d="M659 329v199h-68v-454h68v188h88v-205h69v474h-69v-202h-88zM468 427v-127h-87v127h87zM529 108v385h-209v-385h61v126h87v-126h61zM215 427v-126h-90v126h90zM276 108v385h-212v-385h61v126h90v-126h61zM233 791v97c75 -1 153 -3 251 -16l7 62c-114 15 -199 16 -284 16
h-50v-218h235v-94h-237v-62h313v215h-235zM592 885h245v63h-324v-373h313v63h-234v92h223v59h-223v96z" />
</svg>
