<?xml version="1.0" standalone="no"?>
<!DOCTYPE svg PUBLIC "-//W3C//DTD SVG 1.1//EN" "http://www.w3.org/Graphics/SVG/1.1/DTD/svg11.dtd" >
<svg xmlns="http://www.w3.org/2000/svg" xmlns:xlink="http://www.w3.org/1999/xlink" version="1.1" viewBox="-10 0 930 1000">
   <path fill="currentColor"
d="M532 458v-145h-108v145h108zM598 107v416h-240v-416h66v139h108v-139h66zM239 457v-145h-109v145h109zM305 107v417h-241v-417h66v139h109v-139h66zM132 689v-67h303v335h-81v-268h-222zM688 614v64c0 91 55 180 161 216l-43 64c-79 -30 -132 -85 -160 -153
c-30 68 -86 128 -166 158l-44 -62c110 -41 169 -133 169 -218v-69h83zM878 261h-122v128h122v70h-122v124h-81v-525h81v134h122v69z" />
</svg>
