<?xml version="1.0" standalone="no"?>
<!DOCTYPE svg PUBLIC "-//W3C//DTD SVG 1.1//EN" "http://www.w3.org/Graphics/SVG/1.1/DTD/svg11.dtd" >
<svg xmlns="http://www.w3.org/2000/svg" xmlns:xlink="http://www.w3.org/1999/xlink" version="1.1" viewBox="-10 0 930 1000">
   <path fill="currentColor"
d="M533 439v-136h-108v136h108zM598 104v401h-239v-401h66v133h108v-133h65zM240 439v-136h-109v136h109zM306 104v401h-241v-401h66v132h109v-132h66zM209 609v254c56 -2 127 -10 191 -32l15 67c-89 28 -176 34 -243 34h-44v-323h81zM606 900c54 0 93 -23 93 -60
s-39 -60 -93 -60c-55 0 -94 23 -94 60s39 60 94 60zM606 724c96 0 165 44 165 116c0 71 -69 116 -165 116c-97 0 -166 -45 -166 -116c0 -72 69 -116 166 -116zM646 546v85h184v61h-450v-61h186v-85h80zM878 241h-122v103h122v68h-122v106h-81v-460h81v114h122v69z" />
</svg>
