<?xml version="1.0" standalone="no"?>
<!DOCTYPE svg PUBLIC "-//W3C//DTD SVG 1.1//EN" "http://www.w3.org/Graphics/SVG/1.1/DTD/svg11.dtd" >
<svg xmlns="http://www.w3.org/2000/svg" xmlns:xlink="http://www.w3.org/1999/xlink" version="1.1" viewBox="-10 0 930 1000">
   <path fill="currentColor"
d="M533 414v-121h-108v121h108zM598 103v378h-239v-378h66v123h108v-123h65zM240 414v-122h-109v122h109zM306 103v378h-241v-378h66v123h109v-123h66zM191 785v103c79 0 149 -3 236 -16l7 63c-102 14 -179 15 -271 15h-48v-224h218v-88h-220v-63h296v210h-218zM543 788v97
h225v63h-304v-374h295v63h-216v92h207v59h-207zM878 242h-122v107h122v68h-122v107h-81v-466h81v116h122v68z" />
</svg>
