<?xml version="1.0" standalone="no"?>
<!DOCTYPE svg PUBLIC "-//W3C//DTD SVG 1.1//EN" "http://www.w3.org/Graphics/SVG/1.1/DTD/svg11.dtd" >
<svg xmlns="http://www.w3.org/2000/svg" xmlns:xlink="http://www.w3.org/1999/xlink" version="1.1" viewBox="-10 0 930 1000">
   <path fill="currentColor"
d="M532 414v-122h-105v122h105zM599 103v378h-240v-378h68v123h105v-123h67zM237 414v-122h-104v122h104zM305 103v378h-240v-378h68v123h104v-123h68zM207 785v100c95 0 155 -3 230 -16l8 64c-86 16 -154 17 -270 17h-48v-221h219v-87h-221v-66h300v209h-218zM597 641v243
h72v-243h-72zM734 641v243h66v65h-334v-65h65v-243h-61v-65h325v65h-61zM878 242h-122v107h122v68h-122v107h-81v-466h81v116h122v68z" />
</svg>
