<?xml version="1.0" standalone="no"?>
<!DOCTYPE svg PUBLIC "-//W3C//DTD SVG 1.1//EN" "http://www.w3.org/Graphics/SVG/1.1/DTD/svg11.dtd" >
<svg xmlns="http://www.w3.org/2000/svg" xmlns:xlink="http://www.w3.org/1999/xlink" version="1.1" viewBox="-10 0 930 1000">
   <path fill="currentColor"
d="M532 462v-146h-108v146h108zM598 109v419h-240v-419h66v141h108v-141h66zM239 462v-146h-109v146h109zM305 109v420h-241v-420h66v140h109v-140h66zM516 597v44c0 120 149 232 307 258l-36 67c-131 -25 -255 -101 -313 -203c-57 104 -184 180 -320 203l-34 -67
c161 -25 312 -138 312 -255v-47h84zM878 278h-122v152h122v70h-122v155h-80v-598h80v152h122v69z" />
</svg>
