<?xml version="1.0" standalone="no"?>
<!DOCTYPE svg PUBLIC "-//W3C//DTD SVG 1.1//EN" "http://www.w3.org/Graphics/SVG/1.1/DTD/svg11.dtd" >
<svg xmlns="http://www.w3.org/2000/svg" xmlns:xlink="http://www.w3.org/1999/xlink" version="1.1" viewBox="-10 0 930 1000">
   <path fill="currentColor"
d="M532 458v-145h-108v145h108zM598 107v416h-240v-416h66v139h108v-139h66zM239 456v-144h-109v144h109zM305 107v416h-241v-416h66v139h109v-139h66zM775 697h-262c16 94 145 169 295 189l-30 63c-137 -21 -259 -82 -311 -173c-50 92 -173 154 -311 175l-29 -63
c151 -19 282 -95 292 -191h-259v-66h615v66zM878 256h-122v121h122v69h-122v140h-80v-529h80v129h122v70z" />
</svg>
