<?xml version="1.0" standalone="no"?>
<!DOCTYPE svg PUBLIC "-//W3C//DTD SVG 1.1//EN" "http://www.w3.org/Graphics/SVG/1.1/DTD/svg11.dtd" >
<svg xmlns="http://www.w3.org/2000/svg" xmlns:xlink="http://www.w3.org/1999/xlink" version="1.1" viewBox="-10 0 930 1000">
   <path fill="currentColor"
d="M531 411v-127h-101v127h101zM601 99v377h-240v-377h69v121h101v-121h70zM236 411v-127h-102v127h102zM305 99v377h-240v-377h69v121h102v-121h69zM476 900c106 0 169 -23 169 -64s-63 -64 -169 -64c-107 0 -171 23 -171 64s64 64 171 64zM476 713c157 0 251 44 251 123
s-94 123 -251 123c-158 0 -253 -44 -253 -123s95 -123 253 -123zM518 517v85h276v64h-637v-64h279v-85h82zM878 243h-117v110h117v68h-117v116h-81v-479h81v117h117v68z" />
</svg>
