<?xml version="1.0" standalone="no"?>
<!DOCTYPE svg PUBLIC "-//W3C//DTD SVG 1.1//EN" "http://www.w3.org/Graphics/SVG/1.1/DTD/svg11.dtd" >
<svg xmlns="http://www.w3.org/2000/svg" xmlns:xlink="http://www.w3.org/1999/xlink" version="1.1" viewBox="-10 0 930 1000">
   <path fill="currentColor"
d="M747 257h-88v120h88v-120zM659 446v132h-68v-504h68v114h88v-131h69v528h-69v-139h-88zM468 461v-140h-87v140h87zM529 117v410h-209v-410h61v139h87v-139h61zM215 459v-137h-90v137h90zM276 117v409h-212v-409h61v139h90v-139h61zM820 703h-266c11 97 136 167 298 186
l-33 64c-139 -20 -260 -74 -313 -164c-53 91 -173 144 -310 165l-31 -66c159 -19 279 -86 295 -185h-261v-68h621v68z" />
</svg>
