<?xml version="1.0" standalone="no"?>
<!DOCTYPE svg PUBLIC "-//W3C//DTD SVG 1.1//EN" "http://www.w3.org/Graphics/SVG/1.1/DTD/svg11.dtd" >
<svg xmlns="http://www.w3.org/2000/svg" xmlns:xlink="http://www.w3.org/1999/xlink" version="1.1" viewBox="-10 0 930 1000">
   <path fill="currentColor"
d="M536 460v-147h-108v147h108zM601 353v173h-239v-422h66v142h108v-143h65v181h107v-227h81v526h-81v-230h-107zM243 459v-147h-109v147h109zM309 104v421h-241v-421h66v142h109v-142h66zM137 681v-67h308v344h-81v-277h-227zM702 602v75c0 87 54 180 160 219l-44 64
c-78 -31 -130 -89 -157 -156c-31 68 -87 127 -167 157l-44 -62c112 -40 170 -133 170 -217v-80h82z" />
</svg>
