<?xml version="1.0" standalone="no"?>
<!DOCTYPE svg PUBLIC "-//W3C//DTD SVG 1.1//EN" "http://www.w3.org/Graphics/SVG/1.1/DTD/svg11.dtd" >
<svg xmlns="http://www.w3.org/2000/svg" xmlns:xlink="http://www.w3.org/1999/xlink" version="1.1" viewBox="-10 0 930 1000">
   <path fill="currentColor"
d="M536 443v-142h-108v142h108zM601 338v171h-238v-407h65v135h108v-135h65v169h109v-213h80v470h-80v-190h-109zM243 443v-143h-109v143h109zM309 102v407h-241v-407h66v135h109v-135h66zM227 627v237c56 -2 127 -10 191 -32l15 67c-89 29 -176 34 -243 34h-44v-306h81z
M617 902c55 0 93 -18 93 -50s-38 -50 -93 -50s-95 18 -95 50s40 50 95 50zM617 747c96 0 166 41 166 105c0 65 -70 106 -166 106c-97 0 -167 -41 -167 -106c0 -64 70 -105 167 -105zM661 640h180v61h-447v-61h187v-82h80v82z" />
</svg>
