<?xml version="1.0" standalone="no"?>
<!DOCTYPE svg PUBLIC "-//W3C//DTD SVG 1.1//EN" "http://www.w3.org/Graphics/SVG/1.1/DTD/svg11.dtd" >
<svg xmlns="http://www.w3.org/2000/svg" xmlns:xlink="http://www.w3.org/1999/xlink" version="1.1" viewBox="-10 0 930 1000">
   <path fill="currentColor"
d="M547 477v-147h-101v147h101zM616 360v183h-239v-421h69v144h101v-144h69v171h111v-235h80v558h-80v-256h-111zM253 477v-147h-107v147h107zM321 122v421h-244v-421h69v144h107v-144h68zM501 889c142 0 226 -35 226 -96s-84 -96 -226 -96s-226 35 -226 96s84 96 226 96z
M501 632c193 0 311 57 311 161c0 103 -118 160 -311 160s-311 -57 -311 -160c0 -104 118 -161 311 -161z" />
</svg>
