<?xml version="1.0" standalone="no"?>
<!DOCTYPE svg PUBLIC "-//W3C//DTD SVG 1.1//EN" "http://www.w3.org/Graphics/SVG/1.1/DTD/svg11.dtd" >
<svg xmlns="http://www.w3.org/2000/svg" xmlns:xlink="http://www.w3.org/1999/xlink" version="1.1" viewBox="-10 0 930 1000">
   <path fill="currentColor"
d="M819 58v473h-72v-473h72zM467 439v-130h-88v130h88zM529 342v164h-212v-395h62v132h88v-131h62v163h79v-202h71v458h-71v-189h-79zM213 439v-131h-86v131h86zM275 111v395h-210v-395h62v132h86v-132h62zM235 785v100c96 0 157 -3 234 -17l7 64c-86 17 -156 18 -273 18
h-49v-221h223v-88h-225v-65h306v209h-223zM633 641v243h77v-243h-77zM776 884h63v65h-336v-65h64v-243h-60v-65h329v65h-60v243z" />
</svg>
