<?xml version="1.0" standalone="no"?>
<!DOCTYPE svg PUBLIC "-//W3C//DTD SVG 1.1//EN" "http://www.w3.org/Graphics/SVG/1.1/DTD/svg11.dtd" >
<svg xmlns="http://www.w3.org/2000/svg" xmlns:xlink="http://www.w3.org/1999/xlink" version="1.1" viewBox="-10 0 930 1000">
   <path fill="currentColor"
d="M819 58v532h-72v-532h72zM466 459v-137h-85v137h85zM528 349v177h-209v-409h62v139h85v-139h62v165h74v-206h70v510h-70v-237h-74zM215 459v-137h-88v137h88zM277 117v409h-212v-409h62v139h88v-139h62zM412 694v184h200v-184h-200zM694 878h139v66h-649v-66h147v-184
h-139v-66h636v66h-134v184z" />
</svg>
