<?xml version="1.0" standalone="no"?>
<!DOCTYPE svg PUBLIC "-//W3C//DTD SVG 1.1//EN" "http://www.w3.org/Graphics/SVG/1.1/DTD/svg11.dtd" >
<svg xmlns="http://www.w3.org/2000/svg" xmlns:xlink="http://www.w3.org/1999/xlink" version="1.1" viewBox="-10 0 930 1000">
   <path fill="currentColor"
d="M233 422v-132h-108v132h108zM299 99v390h-240v-390h66v129h108v-129h66zM220 787v101c86 0 152 -3 236 -16l8 63c-97 14 -169 15 -275 15h-48v-221h213v-90h-216v-64h296v212h-214zM715 886v-126h-148v126h148zM715 697v-124h74v378h-296v-378h74v124h148zM590 342h120
v-101h-120v101zM525 424v-132h-109v132h109zM710 58h79v470h-79v-120h-120v82h-239v-391h65v128h109v-128h65v76h120v-117z" />
</svg>
