<?xml version="1.0" standalone="no"?>
<!DOCTYPE svg PUBLIC "-//W3C//DTD SVG 1.1//EN" "http://www.w3.org/Graphics/SVG/1.1/DTD/svg11.dtd" >
<svg xmlns="http://www.w3.org/2000/svg" xmlns:xlink="http://www.w3.org/1999/xlink" version="1.1" viewBox="-10 0 930 1000">
   <path fill="currentColor"
d="M710 241h-118v101h118v-101zM524 422v-132h-104v132h104zM592 408v81h-241v-390h69v129h104v-129h68v76h118v-117h80v470h-80v-120h-118zM231 422v-132h-104v132h104zM300 99v390h-241v-390h68v129h104v-129h69zM224 784v101c96 -1 157 -4 234 -17l7 64
c-86 17 -156 18 -273 18h-49v-221h224v-88h-226v-65h307v208h-224zM613 641v242h71v-242h-71zM750 883h65v66h-331v-66h63v-242h-61v-65h325v65h-61v242z" />
</svg>
