<?xml version="1.0" standalone="no"?>
<!DOCTYPE svg PUBLIC "-//W3C//DTD SVG 1.1//EN" "http://www.w3.org/Graphics/SVG/1.1/DTD/svg11.dtd" >
<svg xmlns="http://www.w3.org/2000/svg" xmlns:xlink="http://www.w3.org/1999/xlink" version="1.1" viewBox="-10 0 930 1000">
   <path fill="currentColor"
d="M710 253h-120v102h120v-102zM525 447v-141h-109v141h109zM590 420v93h-239v-412h65v138h109v-138h65v87h120v-131h80v496h-80v-133h-120zM233 446v-141h-108v141h108zM299 101v412h-240v-412h66v137h108v-137h66zM384 881v-119h-166v119h166zM707 589v73
c0 85 57 182 160 228l-44 64c-74 -33 -126 -91 -155 -160c-29 70 -84 129 -163 161l-44 -62v52h-320v-352h77v107h166v-107h77v297c107 -44 166 -139 166 -223v-78h80z" />
</svg>
