<?xml version="1.0" standalone="no"?>
<!DOCTYPE svg PUBLIC "-//W3C//DTD SVG 1.1//EN" "http://www.w3.org/Graphics/SVG/1.1/DTD/svg11.dtd" >
<svg xmlns="http://www.w3.org/2000/svg" xmlns:xlink="http://www.w3.org/1999/xlink" version="1.1" viewBox="-10 0 930 1000">
   <path fill="currentColor"
d="M601 246h-74v100h74v-100zM466 444v-136h-87v136h87zM527 411v99h-209v-399h61v132h87v-131h61v67h74v-106h68v461h-68v-123h-74zM213 442v-134h-88v134h88zM274 111v398h-210v-398h61v131h88v-131h61zM246 786v99c109 0 191 -2 291 -18l6 64c-110 17 -198 19 -323 19
h-57v-225h236v-86h-238v-66h320v213h-235zM517 641v-68h299v382h-84v-314h-215zM749 58h68v480h-68v-480z" />
</svg>
