<?xml version="1.0" standalone="no"?>
<!DOCTYPE svg PUBLIC "-//W3C//DTD SVG 1.1//EN" "http://www.w3.org/Graphics/SVG/1.1/DTD/svg11.dtd" >
<svg xmlns="http://www.w3.org/2000/svg" xmlns:xlink="http://www.w3.org/1999/xlink" version="1.1" viewBox="-10 0 930 1000">
   <path fill="currentColor"
d="M601 246h-74v100h74v-100zM466 444v-136h-87v136h87zM527 411v99h-209v-399h61v132h87v-131h61v67h74v-106h68v461h-68v-123h-74zM213 442v-134h-88v134h88zM274 111v398h-210v-398h61v131h88v-131h61zM229 792v97c100 0 163 -3 244 -15l7 61c-92 15 -163 16 -282 16h-49
v-218h224v-93h-227v-65h308v217h-225zM581 637v256h165v-256h-165zM511 955v-380h305v380h-305zM748 58h68v481h-68v-481z" />
</svg>
