<?xml version="1.0" standalone="no"?>
<!DOCTYPE svg PUBLIC "-//W3C//DTD SVG 1.1//EN" "http://www.w3.org/Graphics/SVG/1.1/DTD/svg11.dtd" >
<svg xmlns="http://www.w3.org/2000/svg" xmlns:xlink="http://www.w3.org/1999/xlink" version="1.1" viewBox="-10 0 930 1000">
   <path fill="currentColor"
d="M601 246h-74v100h74v-100zM466 444v-136h-87v136h87zM527 411v99h-209v-399h61v132h87v-131h61v67h74v-106h68v461h-68v-123h-74zM213 442v-134h-88v134h88zM274 111v398h-210v-398h61v131h88v-131h61zM225 791v97c104 0 166 -2 244 -16l8 62c-90 15 -158 16 -282 16h-50
v-217h225v-93h-227v-65h306v216h-224zM742 884v-119h-167v119h167zM742 703v-130h74v376h-315v-376h74v130h167zM748 58h68v480h-68v-480z" />
</svg>
