<?xml version="1.0" standalone="no"?>
<!DOCTYPE svg PUBLIC "-//W3C//DTD SVG 1.1//EN" "http://www.w3.org/Graphics/SVG/1.1/DTD/svg11.dtd" >
<svg xmlns="http://www.w3.org/2000/svg" xmlns:xlink="http://www.w3.org/1999/xlink" version="1.1" viewBox="-10 0 930 1000">
   <path fill="currentColor"
d="M705 322v-96h-147v96h147zM782 74v309h-301v-309h77v93h147v-93h77zM344 322v-96h-144v96h144zM422 73v310h-300v-310h78v94h144v-94h78zM219 634v231c49 -2 117 -8 189 -26l12 67c-99 24 -184 28 -237 28h-44v-300h80zM602 906c51 0 87 -18 87 -49
c0 -30 -36 -48 -87 -48s-87 18 -87 48c0 31 36 49 87 49zM602 755c90 0 157 40 157 102c0 63 -67 102 -157 102s-157 -39 -157 -102c0 -62 67 -102 157 -102zM642 589v73h161v61h-404v-61h163v-73h80zM493 487h365v66h-812v-66h364v-94h83v94z" />
</svg>
