<?xml version="1.0" standalone="no"?>
<!DOCTYPE svg PUBLIC "-//W3C//DTD SVG 1.1//EN" "http://www.w3.org/Graphics/SVG/1.1/DTD/svg11.dtd" >
<svg xmlns="http://www.w3.org/2000/svg" xmlns:xlink="http://www.w3.org/1999/xlink" version="1.1" viewBox="-10 0 930 1000">
   <path fill="currentColor"
d="M219 794v93c102 0 179 -4 275 -19l7 64c-107 17 -191 18 -311 18h-55v-216h217v-80h-219v-63h303v203h-217zM474 656v-65h297v363h-84v-298h-213zM557 221l1 90h146v-90h-147zM344 311v-91h-144v91h144zM493 463h365v65h-812v-65h364v-92h-288v-297h78v87h144v-87h78v290
h58v-290h78v87h146v-87h79v297h-290v92z" />
</svg>
