<?xml version="1.0" standalone="no"?>
<!DOCTYPE svg PUBLIC "-//W3C//DTD SVG 1.1//EN" "http://www.w3.org/Graphics/SVG/1.1/DTD/svg11.dtd" >
<svg xmlns="http://www.w3.org/2000/svg" xmlns:xlink="http://www.w3.org/1999/xlink" version="1.1" viewBox="-10 0 930 1000">
   <path fill="currentColor"
d="M212 798v89c85 0 149 -3 231 -15l8 62c-96 15 -169 16 -272 16h-48v-210h211v-85h-214v-64h295v207h-211zM703 884v-113h-152v113h152zM703 708v-119h75v359h-303v-359h76v119h152zM558 221v90h146v-90h-146zM345 311v-91h-145v91h145zM493 463h365v65h-812v-65h365v-92
h-289v-297h78v87h145v-87h77v290h58v-290h78v87h146v-87h79v297h-290v92z" />
</svg>
