<?xml version="1.0" standalone="no"?>
<!DOCTYPE svg PUBLIC "-//W3C//DTD SVG 1.1//EN" "http://www.w3.org/Graphics/SVG/1.1/DTD/svg11.dtd" >
<svg xmlns="http://www.w3.org/2000/svg" xmlns:xlink="http://www.w3.org/1999/xlink" version="1.1" viewBox="-10 0 930 1000">
   <path fill="currentColor"
d="M429 263v105h112v-105h-112zM254 368v-106h-111v106h111zM621 523l7 63c-180 22 -394 34 -567 35l-11 -71c78 -1 163 -3 249 -7v-105h-221v-338h65v98h111v-98h65v330h45v-330h65v98h112v-98h65v337h-224v102c83 -4 165 -9 239 -16zM256 683v181h527v68h-610v-249h83z
M757 347h124v70h-124v309h-80v-668h80v289z" />
</svg>
