<?xml version="1.0" standalone="no"?>
<!DOCTYPE svg PUBLIC "-//W3C//DTD SVG 1.1//EN" "http://www.w3.org/Graphics/SVG/1.1/DTD/svg11.dtd" >
<svg xmlns="http://www.w3.org/2000/svg" xmlns:xlink="http://www.w3.org/1999/xlink" version="1.1" viewBox="-10 0 930 1000">
   <path fill="currentColor"
d="M428 247v89h107v-89h-107zM255 336v-90h-109v90h109zM621 488l7 64c-180 21 -394 33 -567 34l-11 -71c78 -1 163 -3 250 -6v-108h-219v-308h65v91h109v-91h65v306h43v-306h65v91h107v-91h65v308h-217v104c83 -5 163 -10 238 -17zM802 707h-151c4 80 65 154 168 187
l-41 61c-78 -26 -134 -77 -165 -139c-30 63 -89 118 -170 145l-39 -59c-80 28 -174 34 -222 34h-48v-290h80v211c53 -3 139 -12 197 -41l22 72c86 -40 140 -111 140 -173v-8h-150v-68h379v68zM756 308h125v69h-125v237h-79v-556h79v250z" />
</svg>
