<?xml version="1.0" standalone="no"?>
<!DOCTYPE svg PUBLIC "-//W3C//DTD SVG 1.1//EN" "http://www.w3.org/Graphics/SVG/1.1/DTD/svg11.dtd" >
<svg xmlns="http://www.w3.org/2000/svg" xmlns:xlink="http://www.w3.org/1999/xlink" version="1.1" viewBox="-10 0 930 1000">
   <path fill="currentColor"
d="M428 247v89h107v-89h-107zM255 336v-90h-109v90h109zM621 488l7 64c-180 21 -394 33 -567 34l-11 -71c78 -1 163 -3 250 -6v-108h-219v-308h65v91h109v-91h65v307h43v-307h65v91h107v-91h65v308h-219v104c83 -5 165 -10 240 -17zM142 724v-66h615v296h-84v-99l-540 25
l-12 -66l552 -18v-72h-531zM756 308h125v69h-125v237h-79v-556h79v250z" />
</svg>
