<?xml version="1.0" standalone="no"?>
<!DOCTYPE svg PUBLIC "-//W3C//DTD SVG 1.1//EN" "http://www.w3.org/Graphics/SVG/1.1/DTD/svg11.dtd" >
<svg xmlns="http://www.w3.org/2000/svg" xmlns:xlink="http://www.w3.org/1999/xlink" version="1.1" viewBox="-10 0 930 1000">
   <path fill="currentColor"
d="M459 443v-124h-88v124h88zM520 125v389h-210v-389h61v126h88v-126h61zM212 441v-121h-86v121h86zM273 125v387h-208v-387h61v127h86v-127h61zM333 545v145c74 -3 147 -7 212 -14l6 63c-158 22 -356 29 -498 30l-10 -72c63 0 137 -1 213 -4v-148h77zM756 58h73v899h-73
v-465h-102v418h-71v-833h71v345h102v-364z" />
</svg>
