<?xml version="1.0" standalone="no"?>
<!DOCTYPE svg PUBLIC "-//W3C//DTD SVG 1.1//EN" "http://www.w3.org/Graphics/SVG/1.1/DTD/svg11.dtd" >
<svg xmlns="http://www.w3.org/2000/svg" xmlns:xlink="http://www.w3.org/1999/xlink" version="1.1" viewBox="-10 0 930 1000">
   <path fill="currentColor"
d="M643 365v244h-69v-538h69v226h108v-239h71v552h-71v-245h-108zM457 341v-84h-83v84h83zM517 103v302h-203v-302h60v91h83v-91h60zM216 341v-85h-91v85h91zM275 102v303h-210v-303h60v92h91v-92h59zM531 488l6 62c-143 18 -337 29 -474 30l-10 -72c60 0 130 -1 202 -4v-98
h77v95c71 -3 140 -8 199 -13zM279 877h555v67h-639v-296h633v65h-549v164z" />
</svg>
