<?xml version="1.0" standalone="no"?>
<!DOCTYPE svg PUBLIC "-//W3C//DTD SVG 1.1//EN" "http://www.w3.org/Graphics/SVG/1.1/DTD/svg11.dtd" >
<svg xmlns="http://www.w3.org/2000/svg" xmlns:xlink="http://www.w3.org/1999/xlink" version="1.1" viewBox="-10 0 930 1000">
   <path fill="currentColor"
d="M786 58v541h-79v-541h79zM542 336v-89h-107v89h107zM607 93v308h-237v-308h65v91h107v-91h65zM259 336v-90h-107v90h107zM324 93v308h-237v-308h65v91h107v-91h65zM648 479l7 62c-191 22 -412 34 -596 36l-11 -70c82 -1 169 -3 258 -7v-97h85v93c88 -4 176 -9 257 -17z
M140 720l-1 -67h310v301h-83v-234h-226zM701 642v37c0 88 54 178 159 215l-44 63c-78 -30 -129 -85 -156 -152c-29 69 -84 126 -164 157l-44 -63c110 -41 166 -131 166 -215v-42h83z" />
</svg>
