<?xml version="1.0" standalone="no"?>
<!DOCTYPE svg PUBLIC "-//W3C//DTD SVG 1.1//EN" "http://www.w3.org/Graphics/SVG/1.1/DTD/svg11.dtd" >
<svg xmlns="http://www.w3.org/2000/svg" xmlns:xlink="http://www.w3.org/1999/xlink" version="1.1" viewBox="-10 0 930 1000">
   <path fill="currentColor"
d="M435 251v88h103v-88h-103zM260 338v-89h-105v89h105zM647 463l7 62c-190 21 -411 33 -596 35l-11 -70c82 -1 171 -3 259 -7v-79h-216v-307h65v90h105v-90h65v295h45v-295h65v90h103v-90h65v307h-212v76c88 -5 175 -10 256 -17zM701 883v-100h-434v100h434zM701 719v-93
h85v322h-604v-322h85v93h434zM707 58h79v523h-79v-523z" />
</svg>
