<?xml version="1.0" standalone="no"?>
<!DOCTYPE svg PUBLIC "-//W3C//DTD SVG 1.1//EN" "http://www.w3.org/Graphics/SVG/1.1/DTD/svg11.dtd" >
<svg xmlns="http://www.w3.org/2000/svg" xmlns:xlink="http://www.w3.org/1999/xlink" version="1.1" viewBox="-10 0 930 1000">
   <path fill="currentColor"
d="M786 58v609h-79v-609h79zM435 247v89h107v-89h-107zM259 336v-90h-107v90h107zM648 492l7 62c-191 22 -412 34 -596 36l-11 -71c82 0 169 -2 258 -6v-112h-219v-308h65v91h107v-91h65v307h46v-307h65v91h107v-91h65v308h-216v108c88 -4 176 -9 257 -17zM521 642v29
c0 113 135 196 312 216l-38 66c-137 -19 -258 -74 -315 -162c-57 89 -179 143 -320 162l-33 -67c179 -20 311 -100 311 -215v-29h83z" />
</svg>
