<?xml version="1.0" standalone="no"?>
<!DOCTYPE svg PUBLIC "-//W3C//DTD SVG 1.1//EN" "http://www.w3.org/Graphics/SVG/1.1/DTD/svg11.dtd" >
<svg xmlns="http://www.w3.org/2000/svg" xmlns:xlink="http://www.w3.org/1999/xlink" version="1.1" viewBox="-10 0 930 1000">
   <path fill="currentColor"
d="M542 336v-89h-107v89h107zM607 93v308h-237v-308h65v91h107v-91h65zM259 336v-90h-107v90h107zM324 93v308h-237v-308h65v91h107v-91h65zM648 479l7 62c-191 22 -412 34 -596 36l-11 -70c82 -1 169 -3 258 -7v-97h85v93c88 -4 176 -9 257 -17zM165 722v-66h620v296h-83
v-100l-546 25l-13 -65l559 -19v-71h-537zM707 58h79v541h-79v-541z" />
</svg>
