<?xml version="1.0" standalone="no"?>
<!DOCTYPE svg PUBLIC "-//W3C//DTD SVG 1.1//EN" "http://www.w3.org/Graphics/SVG/1.1/DTD/svg11.dtd" >
<svg xmlns="http://www.w3.org/2000/svg" xmlns:xlink="http://www.w3.org/1999/xlink" version="1.1" viewBox="-10 0 930 1000">
   <path fill="currentColor"
d="M704 322v-96h-146v96h146zM783 74v309h-303v-309h78v93h146v-93h79zM344 322v-96h-144v96h144zM422 74v309h-300v-309h78v93h144v-93h78zM219 634v231c49 -2 117 -8 189 -26l12 67c-99 24 -184 28 -237 28h-44v-300h80zM602 905c51 0 87 -19 87 -50s-36 -50 -87 -50
s-87 19 -87 50s36 50 87 50zM602 750c90 0 157 41 157 105s-67 104 -157 104s-157 -40 -157 -104s67 -105 157 -105zM642 581v78h161v61h-404v-61h163v-78h80zM643 492h215v64h-812v-64h216v-103h83v103h215v-103h83v103z" />
</svg>
