<?xml version="1.0" standalone="no"?>
<!DOCTYPE svg PUBLIC "-//W3C//DTD SVG 1.1//EN" "http://www.w3.org/Graphics/SVG/1.1/DTD/svg11.dtd" >
<svg xmlns="http://www.w3.org/2000/svg" xmlns:xlink="http://www.w3.org/1999/xlink" version="1.1" viewBox="-10 0 930 1000">
   <path fill="currentColor"
d="M705 325v-98h-146v98h146zM783 78v308h-302v-308h78v90h146v-90h78zM344 325v-98h-144v98h144zM422 78v308h-300v-308h78v90h144v-90h78zM366 883v-101h-162v101h162zM683 612v53c0 85 56 180 156 225l-44 64c-73 -33 -123 -91 -151 -159c-29 69 -83 128 -159 160
l-43 -62v55h-316v-332h78v103h162v-103h76v273c102 -43 160 -136 160 -215v-62h81zM643 502h215v65h-812v-65h216v-105h83v105h215v-105h83v105z" />
</svg>
