<?xml version="1.0" standalone="no"?>
<!DOCTYPE svg PUBLIC "-//W3C//DTD SVG 1.1//EN" "http://www.w3.org/Graphics/SVG/1.1/DTD/svg11.dtd" >
<svg xmlns="http://www.w3.org/2000/svg" xmlns:xlink="http://www.w3.org/1999/xlink" version="1.1" viewBox="-10 0 930 1000">
   <path fill="currentColor"
d="M704 311v-94h-146v94h146zM783 69v301h-303v-301h78v89h146v-89h79zM344 311v-94h-144v94h144zM421 69v301h-299v-301h78v89h144v-89h77zM664 883v-223h-76v223h76zM860 503h-367v92h291v65h-54v223h62v66h-328v-66h58v-223h-53v-48h-48v180h-213v94c93 0 153 -3 226 -16
l8 62c-85 17 -151 18 -266 18h-47v-213h213v-77h-215v-65h284v-92h-366v-66h815v66z" />
</svg>
