<?xml version="1.0" standalone="no"?>
<!DOCTYPE svg PUBLIC "-//W3C//DTD SVG 1.1//EN" "http://www.w3.org/Graphics/SVG/1.1/DTD/svg11.dtd" >
<svg xmlns="http://www.w3.org/2000/svg" xmlns:xlink="http://www.w3.org/1999/xlink" version="1.1" viewBox="-10 0 930 1000">
   <path fill="currentColor"
d="M517 500h195v-443h78v526h-78v-27h-195v-56zM537 295v-74h-103v74h103zM602 89v267h-233v-267h65v77h103v-77h65zM260 296v-75h-103v75h103zM325 89v267h-234v-267h66v77h103v-77h65zM288 582v-107c-78 3 -157 5 -230 6l-11 -67c188 -2 400 -8 584 -22l7 59
c-86 9 -177 15 -268 20v111h-82zM258 884h557v61h-641v-196h529v-72h-531v-61h615v189h-529v79z" />
</svg>
