<?xml version="1.0" standalone="no"?>
<!DOCTYPE svg PUBLIC "-//W3C//DTD SVG 1.1//EN" "http://www.w3.org/Graphics/SVG/1.1/DTD/svg11.dtd" >
<svg xmlns="http://www.w3.org/2000/svg" xmlns:xlink="http://www.w3.org/1999/xlink" version="1.1" viewBox="-10 0 930 1000">
   <path fill="currentColor"
d="M537 295v-74h-103v74h103zM602 89v267h-233v-267h65v77h103v-77h65zM260 296v-75h-103v75h103zM325 89v267h-234v-267h66v77h103v-77h65zM288 582v-103c-79 3 -158 5 -231 6l-10 -67c187 -2 400 -9 584 -22l7 59c-86 9 -177 15 -268 20v107h-82zM220 811v81
c99 0 160 -3 236 -16l8 58c-90 15 -157 17 -278 17h-48v-195h218v-78h-221v-61h303v194h-218zM565 676v221h151v-221h-151zM493 956v-339h295v339h-295zM711 57h78v526h-78v-24h-195v-55h195v-447z" />
</svg>
