<?xml version="1.0" standalone="no"?>
<!DOCTYPE svg PUBLIC "-//W3C//DTD SVG 1.1//EN" "http://www.w3.org/Graphics/SVG/1.1/DTD/svg11.dtd" >
<svg xmlns="http://www.w3.org/2000/svg" xmlns:xlink="http://www.w3.org/1999/xlink" version="1.1" viewBox="-10 0 930 1000">
   <path fill="currentColor"
d="M822 57v576h-70v-576h70zM420 538h174v-463h68v556h-68v-34h-174v-59zM461 325v-83h-83v83h83zM521 100v285h-202v-285h59v85h83v-85h60zM219 325v-84h-90v84h90zM279 100v284h-209v-284h59v85h90v-85h60zM250 630v-129c-68 4 -133 5 -190 5l-9 -68
c139 -1 341 -6 489 -23l6 60c-67 9 -143 17 -218 22v133h-78zM275 878h559v66h-643v-272h638v64h-554v142z" />
</svg>
