<?xml version="1.0" standalone="no"?>
<!DOCTYPE svg PUBLIC "-//W3C//DTD SVG 1.1//EN" "http://www.w3.org/Graphics/SVG/1.1/DTD/svg11.dtd" >
<svg xmlns="http://www.w3.org/2000/svg" xmlns:xlink="http://www.w3.org/1999/xlink" version="1.1" viewBox="-10 0 930 1000">
   <path fill="currentColor"
d="M822 57v670h-70v-670h70zM420 541h174v-466h69v573h-69v-47h-174v-60zM461 325v-83h-83v83h83zM521 100v285h-202v-285h59v85h83v-85h60zM219 325v-84h-90v84h90zM279 100v284h-209v-284h59v85h90v-85h60zM250 692v-185c-68 3 -133 4 -189 4l-10 -66
c140 0 342 -4 492 -22l6 57c-69 10 -146 18 -221 23v189h-78zM551 671v18c0 106 137 181 301 199l-29 63c-136 -19 -259 -72 -313 -159c-55 87 -178 140 -316 159l-29 -63c167 -18 304 -93 304 -199v-18h82z" />
</svg>
