<?xml version="1.0" standalone="no"?>
<!DOCTYPE svg PUBLIC "-//W3C//DTD SVG 1.1//EN" "http://www.w3.org/Graphics/SVG/1.1/DTD/svg11.dtd" >
<svg xmlns="http://www.w3.org/2000/svg" xmlns:xlink="http://www.w3.org/1999/xlink" version="1.1" viewBox="-10 0 930 1000">
   <path fill="currentColor"
d="M822 57v605h-70v-605h70zM420 539h174v-464h69v563h-69v-41h-174v-58zM461 325v-83h-83v83h83zM521 100v285h-202v-285h59v85h83v-85h60zM219 325v-84h-90v84h90zM279 100v284h-209v-284h59v85h90v-85h60zM250 650v-141c-68 3 -133 4 -189 4l-10 -67
c141 -1 345 -6 493 -23l5 59c-68 10 -144 17 -221 22v146h-78zM513 891c159 0 234 -25 234 -77c0 -54 -75 -78 -234 -78c-158 0 -233 24 -233 78c0 52 75 77 233 77zM513 673c211 0 319 44 319 141c0 95 -108 139 -319 139c-210 0 -319 -44 -319 -139
c0 -97 109 -141 319 -141z" />
</svg>
