<?xml version="1.0" standalone="no"?>
<!DOCTYPE svg PUBLIC "-//W3C//DTD SVG 1.1//EN" "http://www.w3.org/Graphics/SVG/1.1/DTD/svg11.dtd" >
<svg xmlns="http://www.w3.org/2000/svg" xmlns:xlink="http://www.w3.org/1999/xlink" version="1.1" viewBox="-10 0 930 1000">
   <path fill="currentColor"
d="M822 58v583h-71v-583h71zM425 503h173v-432h69v533h-69v-42h-173v-59zM464 298v-73h-90v73h90zM524 91v267h-210v-267h60v77h90v-77h60zM220 298v-75h-90v75h90zM279 92v266h-209v-267h60v77h90v-76h59zM258 609v-131c-72 3 -141 4 -200 4l-9 -64c143 0 347 -4 500 -23
l6 56c-68 11 -144 18 -218 23v135h-79zM830 753h-265c22 71 152 126 301 137l-24 61c-141 -12 -268 -60 -322 -135c-55 75 -182 123 -323 135l-24 -61c149 -11 279 -66 301 -137h-262v-62h266v-73h83v73h269v62z" />
</svg>
