<?xml version="1.0" standalone="no"?>
<!DOCTYPE svg PUBLIC "-//W3C//DTD SVG 1.1//EN" "http://www.w3.org/Graphics/SVG/1.1/DTD/svg11.dtd" >
<svg xmlns="http://www.w3.org/2000/svg" xmlns:xlink="http://www.w3.org/1999/xlink" version="1.1" viewBox="-10 0 930 1000">
   <path fill="currentColor"
d="M420 538h174v-463h68v555h-68v-33h-174v-59zM461 325v-83h-83v83h83zM521 100v285h-202v-285h59v85h83v-85h60zM219 325v-84h-90v84h90zM279 100v284h-209v-284h59v85h90v-85h60zM251 629v-127c-68 4 -133 5 -190 5l-10 -70c139 0 342 -6 489 -23l6 62
c-67 9 -143 17 -218 22v131h-77zM181 720v-64h641v299h-82v-104l-570 26l-10 -64l580 -19v-74h-559zM752 58h70v574h-70v-574z" />
</svg>
