<?xml version="1.0" standalone="no"?>
<!DOCTYPE svg PUBLIC "-//W3C//DTD SVG 1.1//EN" "http://www.w3.org/Graphics/SVG/1.1/DTD/svg11.dtd" >
<svg xmlns="http://www.w3.org/2000/svg" xmlns:xlink="http://www.w3.org/1999/xlink" version="1.1" viewBox="-10 0 930 1000">
   <path fill="currentColor"
d="M823 57v575h-71v-575h71zM420 538h174v-463h70v555h-70v-33h-174v-59zM461 325v-84h-81v84h81zM522 100v284h-203v-284h61v85h81v-85h61zM219 325v-84h-88v84h88zM280 100v284h-210v-284h61v85h88v-85h61zM251 630v-128c-68 4 -133 5 -190 5l-10 -70
c139 0 342 -6 489 -23l6 62c-67 9 -143 17 -218 22v132h-77zM407 724v159h204v-159h-204zM693 883h145v61h-664v-61h151v-159h-143v-61h651v61h-140v159z" />
</svg>
