<?xml version="1.0" standalone="no"?>
<!DOCTYPE svg PUBLIC "-//W3C//DTD SVG 1.1//EN" "http://www.w3.org/Graphics/SVG/1.1/DTD/svg11.dtd" >
<svg xmlns="http://www.w3.org/2000/svg" xmlns:xlink="http://www.w3.org/1999/xlink" version="1.1" viewBox="-10 0 930 1000">
   <path fill="currentColor"
d="M823 58v544h-71v-544h71zM425 493h173v-422h68v518h-68v-39h-173v-57zM464 297v-74h-90v74h90zM524 91v265h-210v-265h60v76h90v-76h60zM220 297v-74h-90v74h90zM279 91v265h-209v-265h60v76h90v-76h59zM258 590v-121c-71 3 -140 5 -200 5l-9 -67c145 0 350 -6 501 -22
l5 58c-67 9 -143 17 -218 21v126h-79zM510 901c115 0 174 -15 174 -47s-59 -47 -174 -47s-174 15 -174 47s59 47 174 47zM510 754c168 0 258 32 258 100s-90 100 -258 100s-258 -32 -258 -100s90 -100 258 -100zM551 660h279v59h-640v-59h279v-68h82v68z" />
</svg>
