<?xml version="1.0" standalone="no"?>
<!DOCTYPE svg PUBLIC "-//W3C//DTD SVG 1.1//EN" "http://www.w3.org/Graphics/SVG/1.1/DTD/svg11.dtd" >
<svg xmlns="http://www.w3.org/2000/svg" xmlns:xlink="http://www.w3.org/1999/xlink" version="1.1" viewBox="-10 0 930 1000">
   <path fill="currentColor"
d="M786 58v569h-82v-569h82zM536 333v-89h-108v89h108zM601 93v302h-238v-302h65v88h108v-88h65zM253 333v-89h-108v89h108zM319 93v302h-239v-302h65v88h108v-88h66zM382 526v133h67v296h-83v-230h-225v-66h159v-129c-83 4 -163 6 -240 7l-12 -70c190 -2 400 -8 586 -20
l5 62c-81 8 -169 13 -257 17zM702 648v33c0 86 54 177 158 214l-45 63c-76 -29 -127 -86 -154 -152c-30 68 -85 125 -164 156l-43 -63c107 -41 166 -133 166 -218v-33h82z" />
</svg>
