<?xml version="1.0" standalone="no"?>
<!DOCTYPE svg PUBLIC "-//W3C//DTD SVG 1.1//EN" "http://www.w3.org/Graphics/SVG/1.1/DTD/svg11.dtd" >
<svg xmlns="http://www.w3.org/2000/svg" xmlns:xlink="http://www.w3.org/1999/xlink" version="1.1" viewBox="-10 0 930 1000">
   <path fill="currentColor"
d="M786 58v569h-82v-569h82zM532 333v-89h-108v89h108zM598 93v302h-239v-302h65v88h108v-88h66zM254 333v-89h-109v89h109zM319 93v302h-239v-302h65v88h109v-88h65zM266 878h539v65h-621v-293h117v-120c-82 4 -164 6 -241 7l-11 -70c189 -2 399 -8 585 -20l6 62
c-82 8 -170 13 -257 17v124h414v65h-531v163z" />
</svg>
