<?xml version="1.0" standalone="no"?>
<!DOCTYPE svg PUBLIC "-//W3C//DTD SVG 1.1//EN" "http://www.w3.org/Graphics/SVG/1.1/DTD/svg11.dtd" >
<svg xmlns="http://www.w3.org/2000/svg" xmlns:xlink="http://www.w3.org/1999/xlink" version="1.1" viewBox="-10 0 930 1000">
   <path fill="currentColor"
d="M534 306v-76h-103v76h103zM599 96v270h-234v-270h66v79h103v-79h65zM257 306v-76h-103v76h103zM323 96v270h-234v-270h65v79h103v-79h66zM220 801v88c99 0 158 -2 233 -15l9 60c-87 15 -154 16 -275 16h-48v-205h215v-86h-218v-61h163v-102c-83 4 -163 6 -239 7l-11 -68
c188 -2 400 -8 584 -21l6 59c-81 8 -169 14 -257 19v106h53v203h-215zM710 892v-122h-150v122h150zM710 710v-115h76v358h-301v-358h75v115h150zM707 57h79v496h-79v-496z" />
</svg>
