<?xml version="1.0" standalone="no"?>
<!DOCTYPE svg PUBLIC "-//W3C//DTD SVG 1.1//EN" "http://www.w3.org/Graphics/SVG/1.1/DTD/svg11.dtd" >
<svg xmlns="http://www.w3.org/2000/svg" xmlns:xlink="http://www.w3.org/1999/xlink" version="1.1" viewBox="-10 0 930 1000">
   <path fill="currentColor"
d="M532 333v-89h-108v89h108zM598 93v302h-239v-302h65v88h108v-88h66zM253 333v-89h-108v89h108zM319 93v302h-239v-302h65v88h108v-88h66zM701 877v-154h-443v154h443zM382 526v133h404v282h-613v-282h127v-129c-82 4 -163 6 -239 7l-12 -70c190 -2 399 -8 585 -20l6 62
c-82 8 -170 13 -258 17zM704 58h82v549h-82v-549z" />
</svg>
