<?xml version="1.0" standalone="no"?>
<!DOCTYPE svg PUBLIC "-//W3C//DTD SVG 1.1//EN" "http://www.w3.org/Graphics/SVG/1.1/DTD/svg11.dtd" >
<svg xmlns="http://www.w3.org/2000/svg" xmlns:xlink="http://www.w3.org/1999/xlink" version="1.1" viewBox="-10 0 930 1000">
   <path fill="currentColor"
d="M787 58v541h-80v-541h80zM537 319v-79h-103v79h103zM602 96v285h-234v-285h66v82h103v-82h65zM258 319v-79h-104v79h104zM323 96v285h-234v-285h65v82h104v-82h65zM302 624v-108c-83 4 -164 6 -241 7l-12 -69c195 -2 407 -8 598 -22l6 61c-87 9 -178 14 -269 19v112h-82z
M394 884v-101h-167v101h167zM710 620v49c0 84 58 178 158 222l-45 62c-72 -32 -123 -88 -152 -155c-29 68 -82 125 -158 157l-42 -60v52h-321v-323h77v98h167v-98h77v264c102 -41 158 -134 158 -213v-55h81z" />
</svg>
