<?xml version="1.0" standalone="no"?>
<!DOCTYPE svg PUBLIC "-//W3C//DTD SVG 1.1//EN" "http://www.w3.org/Graphics/SVG/1.1/DTD/svg11.dtd" >
<svg xmlns="http://www.w3.org/2000/svg" xmlns:xlink="http://www.w3.org/1999/xlink" version="1.1" viewBox="-10 0 930 1000">
   <path fill="currentColor"
d="M786 58v496h-82v-496h82zM534 308v-77h-103v77h103zM599 94v274h-234v-274h66v81h103v-81h65zM257 308v-77h-103v77h103zM323 94v274h-234v-274h65v81h103v-81h66zM263 883h548v63h-630v-350h118v-98c-82 4 -163 6 -239 7l-11 -68c188 -2 400 -8 584 -21l7 59
c-82 8 -170 14 -258 19v102h412v63h-531v81h520v59h-520v84z" />
</svg>
