<?xml version="1.0" standalone="no"?>
<!DOCTYPE svg PUBLIC "-//W3C//DTD SVG 1.1//EN" "http://www.w3.org/Graphics/SVG/1.1/DTD/svg11.dtd" >
<svg xmlns="http://www.w3.org/2000/svg" xmlns:xlink="http://www.w3.org/1999/xlink" version="1.1" viewBox="-10 0 930 1000">
   <path fill="currentColor"
d="M786 58v549h-82v-549h82zM532 333v-89h-108v89h108zM598 93v302h-239v-302h65v88h108v-88h66zM253 333v-89h-108v89h108zM319 93v302h-239v-302h65v88h108v-88h66zM389 719v160h201v-160h-201zM672 879h141v65h-645v-65h139v-160h-132v-65h126v-124c-83 4 -164 6 -241 7
l-12 -70c190 -2 400 -8 586 -20l5 62c-81 8 -169 13 -256 17v128h419v65h-130v160z" />
</svg>
