<?xml version="1.0" standalone="no"?>
<!DOCTYPE svg PUBLIC "-//W3C//DTD SVG 1.1//EN" "http://www.w3.org/Graphics/SVG/1.1/DTD/svg11.dtd" >
<svg xmlns="http://www.w3.org/2000/svg" xmlns:xlink="http://www.w3.org/1999/xlink" version="1.1" viewBox="-10 0 930 1000">
   <path fill="currentColor"
d="M705 310v-93h-146v93h146zM783 69v300h-302v-300h78v89h146v-89h78zM344 310v-93h-144v93h144zM422 69v302h-300v-302h78v89h144v-89h78zM858 500h-214v92h127v361h-84v-296h-212v-65h85v-92h-215v91h91v204h-216v92c102 0 179 -3 275 -18l7 63c-108 17 -192 18 -312 18
h-55v-215h217v-80h-218v-64h127v-91h-215v-65h812v65z" />
</svg>
