<?xml version="1.0" standalone="no"?>
<!DOCTYPE svg PUBLIC "-//W3C//DTD SVG 1.1//EN" "http://www.w3.org/Graphics/SVG/1.1/DTD/svg11.dtd" >
<svg xmlns="http://www.w3.org/2000/svg" xmlns:xlink="http://www.w3.org/1999/xlink" version="1.1" viewBox="-10 0 930 1000">
   <path fill="currentColor"
d="M705 310v-93h-146v93h146zM783 69v300h-302v-300h78v89h146v-89h78zM344 310v-93h-144v93h144zM422 69v302h-300v-302h78v89h144v-89h78zM703 884v-113h-152v113h152zM703 709v-120h76v359h-304v-359h76v120h152zM46 435h812v65h-214v125h-84v-125h-215v92h78v206h-212
v89c85 0 149 -3 231 -15l9 62c-96 15 -169 16 -272 16h-48v-210h211v-85h-214v-63h133v-92h-215v-65z" />
</svg>
