<?xml version="1.0" standalone="no"?>
<!DOCTYPE svg PUBLIC "-//W3C//DTD SVG 1.1//EN" "http://www.w3.org/Graphics/SVG/1.1/DTD/svg11.dtd" >
<svg xmlns="http://www.w3.org/2000/svg" xmlns:xlink="http://www.w3.org/1999/xlink" version="1.1" viewBox="-10 0 930 1000">
   <path fill="currentColor"
d="M705 310v-93h-147v93h147zM783 69v302h-302v-302h77v89h147v-89h78zM344 310v-93h-144v93h144zM421 69v302h-299v-302h78v89h144v-89h77zM664 884v-224h-76v224h76zM858 500h-215v95h141v65h-54v224h62v66h-328v-66h58v-224h-53v-65h92v-95h-218v95h78v197h-213v94
c94 0 153 -3 226 -17l8 63c-85 17 -151 18 -266 18h-47v-213h213v-77h-214v-65h134v-95h-216v-65h812v65z" />
</svg>
