<?xml version="1.0" standalone="no"?>
<!DOCTYPE svg PUBLIC "-//W3C//DTD SVG 1.1//EN" "http://www.w3.org/Graphics/SVG/1.1/DTD/svg11.dtd" >
<svg xmlns="http://www.w3.org/2000/svg" xmlns:xlink="http://www.w3.org/1999/xlink" version="1.1" viewBox="-10 0 930 1000">
   <path fill="currentColor"
d="M705 341v-106h-146v106h146zM784 80v322h-303v-322h78v96h146v-96h79zM344 341v-106h-144v106h144zM422 80v323h-300v-323h78v96h144v-96h78zM562 659v-117h-221v117h221zM858 542h-212v117h127v69h-280c6 93 138 155 310 168l-32 68c-140 -13 -264 -58 -322 -136
c-56 81 -181 123 -321 136l-29 -68c173 -12 301 -68 304 -168h-272v-69h128v-117h-213v-64h812v64z" />
</svg>
