<?xml version="1.0" standalone="no"?>
<!DOCTYPE svg PUBLIC "-//W3C//DTD SVG 1.1//EN" "http://www.w3.org/Graphics/SVG/1.1/DTD/svg11.dtd" >
<svg xmlns="http://www.w3.org/2000/svg" xmlns:xlink="http://www.w3.org/1999/xlink" version="1.1" viewBox="-10 0 930 1000">
   <path fill="currentColor"
d="M705 322v-96h-146v96h146zM784 74v308h-303v-308h78v93h146v-93h79zM344 322v-96h-144v96h144zM422 74v308h-300v-308h78v93h144v-93h78zM222 634v231c49 -2 118 -8 189 -26l12 67c-99 24 -184 28 -237 28h-44v-300h80zM605 905c51 0 87 -19 87 -50s-36 -50 -87 -50
s-87 19 -87 50s36 50 87 50zM605 750c90 0 157 41 157 105s-67 104 -157 104s-157 -40 -157 -104s67 -105 157 -105zM645 579v79h161v61h-404v-61h163v-79h80zM47 466h811v67h-811v-67z" />
</svg>
