<?xml version="1.0" standalone="no"?>
<!DOCTYPE svg PUBLIC "-//W3C//DTD SVG 1.1//EN" "http://www.w3.org/Graphics/SVG/1.1/DTD/svg11.dtd" >
<svg xmlns="http://www.w3.org/2000/svg" xmlns:xlink="http://www.w3.org/1999/xlink" version="1.1" viewBox="-10 0 930 1000">
   <path fill="currentColor"
d="M705 311v-90h-146v90h146zM784 73v298h-303v-298h78v88h146v-88h79zM344 311v-90h-144v90h144zM422 73v299h-300v-299h78v88h144v-88h78zM221 794v93c102 0 180 -4 275 -19l7 64c-108 17 -192 18 -313 18h-54v-216h220v-80h-222v-63h306v203h-219zM474 656v-65h299v362
h-85v-297h-214zM46 447h812v66h-812v-66z" />
</svg>
