<?xml version="1.0" standalone="no"?>
<!DOCTYPE svg PUBLIC "-//W3C//DTD SVG 1.1//EN" "http://www.w3.org/Graphics/SVG/1.1/DTD/svg11.dtd" >
<svg xmlns="http://www.w3.org/2000/svg" xmlns:xlink="http://www.w3.org/1999/xlink" version="1.1" viewBox="-10 0 930 1000">
   <path fill="currentColor"
d="M705 311v-90h-146v90h146zM784 73v298h-303v-298h78v88h146v-88h79zM344 311v-90h-144v90h144zM422 73v299h-300v-299h78v88h144v-88h78zM201 802v85c108 0 164 -2 237 -15l8 61c-81 15 -144 16 -273 16h-48v-206h202v-81h-205v-61h282v201h-203zM624 909
c49 0 81 -20 81 -52s-32 -52 -81 -52c-48 0 -80 20 -80 52s32 52 80 52zM624 750c86 0 151 41 151 107s-65 107 -151 107s-150 -41 -150 -107s64 -107 150 -107zM663 574v82h150v61h-376v-61h147v-82h79zM47 450h811v66h-811v-66z" />
</svg>
