<?xml version="1.0" standalone="no"?>
<!DOCTYPE svg PUBLIC "-//W3C//DTD SVG 1.1//EN" "http://www.w3.org/Graphics/SVG/1.1/DTD/svg11.dtd" >
<svg xmlns="http://www.w3.org/2000/svg" xmlns:xlink="http://www.w3.org/1999/xlink" version="1.1" viewBox="-10 0 930 1000">
   <path fill="currentColor"
d="M786 58v553h-79v-553h79zM542 336v-89h-107v89h107zM607 93v308h-237v-308h65v91h107v-91h65zM259 336v-90h-107v90h107zM324 93v308h-237v-308h65v91h107v-91h65zM641 471l6 61c-192 22 -407 28 -580 29l-13 -70c180 -1 395 -4 587 -20zM666 709v2c0 85 63 157 170 188
l-43 60c-78 -23 -136 -71 -167 -133c-30 62 -90 113 -170 138l-40 -58c-81 27 -173 33 -222 33h-47v-287h80v210c54 -3 140 -13 199 -41l21 71c87 -36 140 -103 140 -167v-16h-148v-68h377v68h-150z" />
</svg>
