<?xml version="1.0" standalone="no"?>
<!DOCTYPE svg PUBLIC "-//W3C//DTD SVG 1.1//EN" "http://www.w3.org/Graphics/SVG/1.1/DTD/svg11.dtd" >
<svg xmlns="http://www.w3.org/2000/svg" xmlns:xlink="http://www.w3.org/1999/xlink" version="1.1" viewBox="-10 0 930 1000">
   <path fill="currentColor"
d="M539 330v-90h-105v90h105zM604 93v297h-235v-297h65v88h105v-88h65zM260 330v-91h-105v91h105zM325 93v297h-235v-297h65v87h105v-87h65zM636 441l6 62c-187 22 -402 31 -580 33l-12 -71c184 -1 400 -8 586 -24zM237 794v95c105 0 182 -3 279 -19l7 62
c-108 17 -192 18 -313 18h-54v-213h223v-80h-226v-61h308v198h-224zM498 659v-64h287v360h-84v-296h-203zM707 58h78v500h-78v-500z" />
</svg>
