<?xml version="1.0" standalone="no"?>
<!DOCTYPE svg PUBLIC "-//W3C//DTD SVG 1.1//EN" "http://www.w3.org/Graphics/SVG/1.1/DTD/svg11.dtd" >
<svg xmlns="http://www.w3.org/2000/svg" xmlns:xlink="http://www.w3.org/1999/xlink" version="1.1" viewBox="-10 0 930 1000">
   <path fill="currentColor"
d="M788 58v553h-81v-553h81zM543 336v-90h-107v90h107zM609 93v308h-239v-308h66v91h107v-91h66zM260 336v-90h-107v90h107zM325 93v308h-238v-308h66v91h107v-91h65zM635 470l7 62c-193 22 -408 27 -581 29l-12 -70c179 -1 395 -4 586 -21zM678 624v39c0 93 65 188 180 226
l-43 61c-84 -32 -144 -91 -176 -163c-27 75 -79 140 -162 174h-1c-83 -33 -134 -97 -161 -172c-32 71 -92 130 -175 161l-43 -61c115 -38 179 -133 179 -226v-39h79v39c0 81 39 167 121 217c82 -51 122 -137 122 -217v-39h80z" />
</svg>
