<?xml version="1.0" standalone="no"?>
<!DOCTYPE svg PUBLIC "-//W3C//DTD SVG 1.1//EN" "http://www.w3.org/Graphics/SVG/1.1/DTD/svg11.dtd" >
<svg xmlns="http://www.w3.org/2000/svg" xmlns:xlink="http://www.w3.org/1999/xlink" version="1.1" viewBox="-10 0 930 1000">
   <path fill="currentColor"
d="M538 414v-121h-108v121h108zM603 103v379h-239v-379h66v124h108v-124h65zM245 415v-123h-109v123h109zM311 103v380h-241v-380h66v123h109v-123h66zM224 787v101c85 0 150 -3 232 -15l9 62c-97 14 -168 15 -272 15h-48v-221h210v-89h-213v-65h292v212h-210zM711 886v-126
h-146v126h146zM711 697v-124h74v378h-294v-378h74v124h146zM705 57h80v471h-80v-471z" />
</svg>
