<?xml version="1.0" standalone="no"?>
<!DOCTYPE svg PUBLIC "-//W3C//DTD SVG 1.1//EN" "http://www.w3.org/Graphics/SVG/1.1/DTD/svg11.dtd" >
<svg xmlns="http://www.w3.org/2000/svg" xmlns:xlink="http://www.w3.org/1999/xlink" version="1.1" viewBox="-10 0 930 1000">
   <path fill="currentColor"
d="M785 58v470h-80v-470h80zM538 414v-121h-108v121h108zM603 103v379h-239v-379h66v124h108v-124h65zM245 415v-123h-109v123h109zM311 103v380h-241v-380h66v123h109v-123h66zM221 787v101c69 0 145 -2 241 -15l7 62c-115 14 -197 15 -274 15h-49v-221h220v-91h-222v-62
h298v211h-221zM576 885h226v63h-305v-374h296v63h-217v93h207v58h-207v97z" />
</svg>
