<?xml version="1.0" standalone="no"?>
<!DOCTYPE svg PUBLIC "-//W3C//DTD SVG 1.1//EN" "http://www.w3.org/Graphics/SVG/1.1/DTD/svg11.dtd" >
<svg xmlns="http://www.w3.org/2000/svg" xmlns:xlink="http://www.w3.org/1999/xlink" version="1.1" viewBox="-10 0 930 1000">
   <path fill="currentColor"
d="M785 58v470h-80v-470h80zM538 415v-123h-106v123h106zM606 103v380h-242v-380h68v123h106v-123h68zM244 415v-123h-105v123h105zM312 103v380h-242v-380h69v123h105v-123h68zM222 785v100c95 0 155 -3 230 -16l7 63c-85 17 -154 18 -270 18h-48v-221h219v-88h-221v-65
h302v209h-219zM609 641v243h76v-243h-76zM751 884h61v66h-330v-66h61v-243h-57v-66h321v66h-56v243z" />
</svg>
