<?xml version="1.0" standalone="no"?>
<!DOCTYPE svg PUBLIC "-//W3C//DTD SVG 1.1//EN" "http://www.w3.org/Graphics/SVG/1.1/DTD/svg11.dtd" >
<svg xmlns="http://www.w3.org/2000/svg" xmlns:xlink="http://www.w3.org/1999/xlink" version="1.1" viewBox="-10 0 930 1000">
   <path fill="currentColor"
d="M569 447l-44 64c-98 -35 -176 -105 -216 -195c-38 102 -117 180 -222 220l-44 -67c137 -47 224 -164 224 -301v-73h82v84c0 119 89 225 220 268zM209 610v254c56 -2 127 -10 191 -32l15 67c-89 28 -176 34 -243 34h-44v-323h81zM606 901c54 0 93 -23 93 -60
s-39 -60 -93 -60c-55 0 -94 23 -94 60s39 60 94 60zM606 725c96 0 165 44 165 116c0 71 -69 116 -165 116c-97 0 -166 -45 -166 -116c0 -72 69 -116 166 -116zM646 549v81h185v61h-451v-61h186v-81h80zM745 260h133v69h-133v183h-84v-455h84v203z" />
</svg>
