<?xml version="1.0" standalone="no"?>
<!DOCTYPE svg PUBLIC "-//W3C//DTD SVG 1.1//EN" "http://www.w3.org/Graphics/SVG/1.1/DTD/svg11.dtd" >
<svg xmlns="http://www.w3.org/2000/svg" xmlns:xlink="http://www.w3.org/1999/xlink" version="1.1" viewBox="-10 0 930 1000">
   <path fill="currentColor"
d="M172 686v-68h301v338h-82v-270h-219zM322 112v117c0 101 67 202 181 247l-44 65c-84 -34 -144 -97 -177 -173c-33 86 -96 160 -183 200l-47 -66c120 -51 190 -170 190 -281v-109h80zM516 686v-68h295v338h-81v-270h-214zM732 58h79v527h-79v-229h-117v223h-77v-505h77
v215h117v-231z" />
</svg>
