<?xml version="1.0" standalone="no"?>
<!DOCTYPE svg PUBLIC "-//W3C//DTD SVG 1.1//EN" "http://www.w3.org/Graphics/SVG/1.1/DTD/svg11.dtd" >
<svg xmlns="http://www.w3.org/2000/svg" xmlns:xlink="http://www.w3.org/1999/xlink" version="1.1" viewBox="-10 0 930 1000">
   <path fill="currentColor"
d="M502 436l-44 66c-84 -34 -143 -99 -176 -175c-33 87 -96 161 -183 201l-47 -65c121 -52 190 -171 190 -283v-86h80v95c0 101 66 203 180 247zM250 786v100c107 0 187 -3 287 -19l7 64c-111 17 -198 19 -321 19h-56v-225h228v-86h-230v-65h313v212h-228zM516 641v-67h295
v380h-84v-313h-211zM733 57h78v477h-78v-206h-118v200h-78v-454h78v185h118v-202z" />
</svg>
