<?xml version="1.0" standalone="no"?>
<!DOCTYPE svg PUBLIC "-//W3C//DTD SVG 1.1//EN" "http://www.w3.org/Graphics/SVG/1.1/DTD/svg11.dtd" >
<svg xmlns="http://www.w3.org/2000/svg" xmlns:xlink="http://www.w3.org/1999/xlink" version="1.1" viewBox="-10 0 930 1000">
   <path fill="currentColor"
d="M233 787v102c95 0 157 -3 237 -15l8 61c-92 14 -159 15 -276 15h-49v-222h218v-90h-220v-64h301v213h-219zM322 94v95c0 101 66 203 180 247l-44 66c-84 -34 -143 -99 -176 -175c-33 87 -95 161 -183 201l-47 -65c121 -52 190 -171 190 -283v-86h80zM578 636v257h163
v-257h-163zM508 955v-381h303v381h-303zM733 57h78v472h-78v-201h-118v194h-78v-448h78v185h118v-202z" />
</svg>
