<?xml version="1.0" standalone="no"?>
<!DOCTYPE svg PUBLIC "-//W3C//DTD SVG 1.1//EN" "http://www.w3.org/Graphics/SVG/1.1/DTD/svg11.dtd" >
<svg xmlns="http://www.w3.org/2000/svg" xmlns:xlink="http://www.w3.org/1999/xlink" version="1.1" viewBox="-10 0 930 1000">
   <path fill="currentColor"
d="M615 328v194h-78v-448h78v185h118v-202h78v472h-78v-201h-118zM237 791v97c75 0 151 -3 246 -15l7 62c-112 14 -195 15 -280 15h-49v-219h229v-93h-231v-63h306v216h-228zM322 94v95c0 101 67 203 180 247l-44 66c-83 -34 -143 -99 -176 -175c-33 87 -96 161 -183 201
l-47 -65c121 -52 190 -171 190 -283v-86h80zM592 885h239v63h-319v-374h308v63h-228v93h219v58h-219v97z" />
</svg>
