<?xml version="1.0" standalone="no"?>
<!DOCTYPE svg PUBLIC "-//W3C//DTD SVG 1.1//EN" "http://www.w3.org/Graphics/SVG/1.1/DTD/svg11.dtd" >
<svg xmlns="http://www.w3.org/2000/svg" xmlns:xlink="http://www.w3.org/1999/xlink" version="1.1" viewBox="-10 0 930 1000">
   <path fill="currentColor"
d="M571 463l-42 63c-100 -35 -178 -106 -218 -198c-38 104 -117 183 -222 222l-46 -65c138 -48 225 -165 225 -304v-80h82v89c0 121 89 230 221 273zM133 688l-1 -68h300v337h-81v-269h-218zM685 613v64c0 92 55 181 161 218l-45 64c-78 -30 -130 -86 -158 -155
c-30 69 -85 128 -165 159l-44 -62c110 -42 169 -134 169 -219v-69h82zM878 261h-133v129h133v69h-133v124h-84v-525h84v134h133v69z" />
</svg>
