<?xml version="1.0" standalone="no"?>
<!DOCTYPE svg PUBLIC "-//W3C//DTD SVG 1.1//EN" "http://www.w3.org/Graphics/SVG/1.1/DTD/svg11.dtd" >
<svg xmlns="http://www.w3.org/2000/svg" xmlns:xlink="http://www.w3.org/1999/xlink" version="1.1" viewBox="-10 0 930 1000">
   <path fill="currentColor"
d="M571 463l-42 63c-100 -35 -178 -106 -218 -198c-38 104 -117 183 -221 221l-47 -64c138 -48 225 -165 225 -304v-80h82v89c0 121 89 230 221 273zM646 680v6c0 87 62 168 169 204l-42 60c-79 -28 -137 -82 -167 -149c-30 67 -90 126 -173 155l-38 -56
c-80 27 -170 33 -219 33h-48v-315h79v235c52 -3 141 -13 200 -41l20 68c87 -42 137 -117 137 -181v-19h-145v-67h377v67h-150zM878 261h-133v129h133v69h-133v124h-84v-525h84v134h133v69z" />
</svg>
