<?xml version="1.0" standalone="no"?>
<!DOCTYPE svg PUBLIC "-//W3C//DTD SVG 1.1//EN" "http://www.w3.org/Graphics/SVG/1.1/DTD/svg11.dtd" >
<svg xmlns="http://www.w3.org/2000/svg" xmlns:xlink="http://www.w3.org/1999/xlink" version="1.1" viewBox="-10 0 930 1000">
   <path fill="currentColor"
d="M570 458l-42 63c-100 -34 -178 -105 -218 -195c-38 101 -117 179 -223 217l-45 -65c137 -47 226 -162 226 -298v-81h82v92c0 117 90 224 220 267zM372 881v-119h-154v119h154zM372 700v-109h78v355h-310v-355h78v109h154zM693 589v73c0 83 51 182 151 230l-45 64
c-70 -33 -118 -90 -145 -157c-28 67 -80 124 -155 155l-47 -64c106 -43 160 -137 160 -223v-78h81zM878 250h-133v113h133v70h-133v113h-84v-488h84v123h133v69z" />
</svg>
