<?xml version="1.0" standalone="no"?>
<!DOCTYPE svg PUBLIC "-//W3C//DTD SVG 1.1//EN" "http://www.w3.org/Graphics/SVG/1.1/DTD/svg11.dtd" >
<svg xmlns="http://www.w3.org/2000/svg" xmlns:xlink="http://www.w3.org/1999/xlink" version="1.1" viewBox="-10 0 930 1000">
   <path fill="currentColor"
d="M570 442l-43 65c-99 -35 -178 -105 -218 -195c-38 102 -117 180 -222 219l-45 -67c138 -46 225 -161 225 -299v-73h82v82c0 119 90 225 221 268zM259 789v93h509v62h-593v-368l572 -1v62h-488v92h477v60h-477zM878 242h-133v108h133v67h-133v107h-84v-466h84v116h133v68z
" />
</svg>
