<?xml version="1.0" standalone="no"?>
<!DOCTYPE svg PUBLIC "-//W3C//DTD SVG 1.1//EN" "http://www.w3.org/Graphics/SVG/1.1/DTD/svg11.dtd" >
<svg xmlns="http://www.w3.org/2000/svg" xmlns:xlink="http://www.w3.org/1999/xlink" version="1.1" viewBox="-10 0 930 1000">
   <path fill="currentColor"
d="M734 236h-120v116h120v-116zM614 419v97h-77v-442h77v94h120v-110h76v469h-76v-108h-120zM502 436l-44 66c-84 -34 -144 -97 -176 -175c-34 86 -97 159 -183 198l-47 -65c120 -51 190 -169 190 -281v-84h80v95c0 101 67 202 180 246zM227 786v96c96 0 155 -3 226 -17
l8 62c-82 16 -146 18 -265 18h-47v-218h201v-85h-204v-61h282v205h-201zM646 900c50 0 82 -25 82 -65c0 -41 -32 -66 -82 -66c-51 0 -84 25 -84 66c0 40 33 65 84 65zM646 711c87 0 152 48 152 124c0 75 -65 122 -152 122c-89 0 -154 -47 -154 -122c0 -76 65 -124 154 -124z
M686 616h151v62h-376v-62h145v-78h80v78z" />
</svg>
