<?xml version="1.0" standalone="no"?>
<!DOCTYPE svg PUBLIC "-//W3C//DTD SVG 1.1//EN" "http://www.w3.org/Graphics/SVG/1.1/DTD/svg11.dtd" >
<svg xmlns="http://www.w3.org/2000/svg" xmlns:xlink="http://www.w3.org/1999/xlink" version="1.1" viewBox="-10 0 930 1000">
   <path fill="currentColor"
d="M734 260h-120v125h120v-125zM614 455v115h-77v-496h77v117h120v-133h78v579h-78v-182h-120zM502 481l-44 65c-83 -33 -143 -97 -176 -173c-32 87 -96 162 -184 202l-46 -63c120 -52 190 -171 190 -283v-115h80v120c0 101 67 203 180 247zM553 609v33
c0 121 146 229 309 255l-38 69c-133 -25 -257 -98 -313 -200c-58 102 -182 177 -319 201l-35 -68c164 -26 311 -138 311 -255v-35h85z" />
</svg>
