<?xml version="1.0" standalone="no"?>
<!DOCTYPE svg PUBLIC "-//W3C//DTD SVG 1.1//EN" "http://www.w3.org/Graphics/SVG/1.1/DTD/svg11.dtd" >
<svg xmlns="http://www.w3.org/2000/svg" xmlns:xlink="http://www.w3.org/1999/xlink" version="1.1" viewBox="-10 0 930 1000">
   <path fill="currentColor"
d="M731 254h-114v124h114v-124zM617 447v123h-78v-495h78v111h114v-129h79v519h-79v-129h-114zM503 476l-45 65c-83 -34 -143 -98 -176 -174c-33 87 -96 161 -183 201l-47 -66c120 -51 190 -170 190 -282v-108h80v117c0 101 67 202 181 247zM820 689h-259
c6 100 142 180 294 201l-29 61c-135 -19 -256 -80 -308 -172c-51 92 -173 153 -309 172l-28 -61c154 -21 288 -98 294 -201h-260v-66h605v66z" />
</svg>
