<?xml version="1.0" standalone="no"?>
<!DOCTYPE svg PUBLIC "-//W3C//DTD SVG 1.1//EN" "http://www.w3.org/Graphics/SVG/1.1/DTD/svg11.dtd" >
<svg xmlns="http://www.w3.org/2000/svg" xmlns:xlink="http://www.w3.org/1999/xlink" version="1.1" viewBox="-10 0 930 1000">
   <path fill="currentColor"
d="M733 256h-119v127h119v-127zM614 452v126h-77v-504h77v113h119v-130h78v528h-78v-133h-119zM502 476l-44 65c-84 -34 -143 -98 -176 -173c-33 86 -96 160 -183 200l-47 -66c120 -51 190 -170 190 -281v-109h80v117c0 101 67 202 180 247zM415 683v195h190v-195h-190z
M687 878h142v66h-642v-66h146v-195h-138v-66h628v66h-136v195z" />
</svg>
