<?xml version="1.0" standalone="no"?>
<!DOCTYPE svg PUBLIC "-//W3C//DTD SVG 1.1//EN" "http://www.w3.org/Graphics/SVG/1.1/DTD/svg11.dtd" >
<svg xmlns="http://www.w3.org/2000/svg" xmlns:xlink="http://www.w3.org/1999/xlink" version="1.1" viewBox="-10 0 930 1000">
   <path fill="currentColor"
d="M702 557v-251h-182v-68h182v-181h84v500h-84zM567 460l-43 64c-98 -38 -174 -112 -213 -205c-38 106 -117 185 -222 224l-48 -66c140 -48 227 -166 227 -307v-77h84v93c0 118 88 229 215 274zM231 628v236c56 -2 127 -10 191 -32l15 67c-89 29 -176 34 -243 34h-44v-305
h81zM621 902c55 0 93 -18 93 -50s-38 -50 -93 -50s-95 18 -95 50s40 50 95 50zM621 747c96 0 165 41 165 105c0 65 -69 106 -165 106c-98 0 -167 -41 -167 -106c0 -64 69 -105 167 -105zM665 646h180v61h-447v-61h187v-74h80v74z" />
</svg>
