<?xml version="1.0" standalone="no"?>
<!DOCTYPE svg PUBLIC "-//W3C//DTD SVG 1.1//EN" "http://www.w3.org/Graphics/SVG/1.1/DTD/svg11.dtd" >
<svg xmlns="http://www.w3.org/2000/svg" xmlns:xlink="http://www.w3.org/1999/xlink" version="1.1" viewBox="-10 0 930 1000">
   <path fill="currentColor"
d="M702 528v-231h-197v-68h197v-171h83v470h-83zM567 436l-43 63c-98 -35 -173 -104 -211 -195c-38 102 -116 181 -222 219l-47 -66c139 -47 224 -163 224 -300v-68h85v74c0 126 85 230 214 273zM230 784v101c95 -1 154 -4 228 -17l9 64c-87 17 -154 18 -270 18h-48v-221
h218v-88h-220v-66h300v209h-217zM617 641v243h72v-243h-72zM755 884h63v66h-331v-66h65v-243h-59v-66h320v66h-58v243z" />
</svg>
