<?xml version="1.0" standalone="no"?>
<!DOCTYPE svg PUBLIC "-//W3C//DTD SVG 1.1//EN" "http://www.w3.org/Graphics/SVG/1.1/DTD/svg11.dtd" >
<svg xmlns="http://www.w3.org/2000/svg" xmlns:xlink="http://www.w3.org/1999/xlink" version="1.1" viewBox="-10 0 930 1000">
   <path fill="currentColor"
d="M709 541v-251h-188v-69h188v-164h82v484h-82zM572 413l-42 62c-100 -30 -177 -96 -217 -182c-38 99 -120 173 -227 208l-46 -65c138 -43 228 -151 228 -279v-69h85v74c0 117 89 212 219 251zM496 894c113 0 175 -23 175 -64s-62 -64 -175 -64c-114 0 -177 23 -177 64
s63 64 177 64zM496 707c159 0 252 44 252 123s-93 123 -252 123c-161 0 -254 -44 -254 -123s93 -123 254 -123zM537 602h274v62h-632v-62h275v-84h83v84z" />
</svg>
