<?xml version="1.0" standalone="no"?>
<!DOCTYPE svg PUBLIC "-//W3C//DTD SVG 1.1//EN" "http://www.w3.org/Graphics/SVG/1.1/DTD/svg11.dtd" >
<svg xmlns="http://www.w3.org/2000/svg" xmlns:xlink="http://www.w3.org/1999/xlink" version="1.1" viewBox="-10 0 930 1000">
   <path fill="currentColor"
d="M558 588v-268h-142v-67h142v-179h78v514h-78zM172 719v-67h301v305h-82v-238h-219zM318 111v123c0 102 65 205 177 251l-44 63c-83 -34 -142 -100 -173 -178c-32 86 -94 160 -179 199l-47 -65c117 -52 186 -169 186 -280v-113h80zM516 719v-67h295v305h-81v-238h-214z
M733 58h78v537h-78v-537z" />
</svg>
