<?xml version="1.0" standalone="no"?>
<!DOCTYPE svg PUBLIC "-//W3C//DTD SVG 1.1//EN" "http://www.w3.org/Graphics/SVG/1.1/DTD/svg11.dtd" >
<svg xmlns="http://www.w3.org/2000/svg" xmlns:xlink="http://www.w3.org/1999/xlink" version="1.1" viewBox="-10 0 930 1000">
   <path fill="currentColor"
d="M564 518v-210h-145v-68h145v-164h78v442h-78zM492 453l-45 63c-81 -35 -139 -100 -169 -177c-32 86 -93 159 -177 198l-47 -64c117 -52 184 -171 184 -280v-101h80v111c0 100 63 203 174 250zM250 786v100c107 0 187 -3 287 -19l7 64c-111 17 -198 19 -321 19h-56v-225
h228v-86h-230v-65h313v212h-228zM516 641v-67h295v380h-84v-313h-211zM733 58h78v469h-78v-469z" />
</svg>
