<?xml version="1.0" standalone="no"?>
<!DOCTYPE svg PUBLIC "-//W3C//DTD SVG 1.1//EN" "http://www.w3.org/Graphics/SVG/1.1/DTD/svg11.dtd" >
<svg xmlns="http://www.w3.org/2000/svg" xmlns:xlink="http://www.w3.org/1999/xlink" version="1.1" viewBox="-10 0 930 1000">
   <path fill="currentColor"
d="M556 550v-238h-140v-68h140v-171h77v477h-77zM495 461l-44 63c-82 -35 -141 -101 -173 -178c-31 84 -94 158 -180 197l-44 -63c116 -51 185 -167 185 -267v-110h79v109c0 101 65 203 177 249zM729 876v-114h-426v114h426zM729 697v-104h81v349h-589v-349h82v104h426z
M731 58h79v498h-79v-498z" />
</svg>
