<?xml version="1.0" standalone="no"?>
<!DOCTYPE svg PUBLIC "-//W3C//DTD SVG 1.1//EN" "http://www.w3.org/Graphics/SVG/1.1/DTD/svg11.dtd" >
<svg xmlns="http://www.w3.org/2000/svg" xmlns:xlink="http://www.w3.org/1999/xlink" version="1.1" viewBox="-10 0 930 1000">
   <path fill="currentColor"
d="M811 58v491h-78v-491h78zM564 542v-222h-144v-68h144v-177h78v467h-78zM492 471l-45 63c-82 -36 -141 -102 -170 -181c-32 88 -91 161 -176 200l-46 -62c117 -52 183 -174 183 -291v-101h80v120c0 101 63 206 174 252zM407 881v-119h-162v119h162zM726 588v73
c0 86 56 183 158 230l-45 63c-73 -33 -124 -91 -152 -160c-29 71 -84 130 -162 162l-41 -59v49h-316v-354h77v108h162v-108h77v297c103 -43 160 -135 160 -223v-78h82z" />
</svg>
