<?xml version="1.0" standalone="no"?>
<!DOCTYPE svg PUBLIC "-//W3C//DTD SVG 1.1//EN" "http://www.w3.org/Graphics/SVG/1.1/DTD/svg11.dtd" >
<svg xmlns="http://www.w3.org/2000/svg" xmlns:xlink="http://www.w3.org/1999/xlink" version="1.1" viewBox="-10 0 930 1000">
   <path fill="currentColor"
d="M810 58v521h-79v-521h79zM558 571v-251h-142v-67h142v-177h78v495h-78zM495 485l-45 63c-82 -34 -141 -100 -172 -178c-32 86 -94 160 -179 199l-47 -65c117 -52 186 -169 186 -280v-113h80v123c0 102 65 205 177 251zM820 698h-258c13 95 146 171 293 191l-29 62
c-135 -20 -256 -81 -308 -172c-51 91 -173 152 -309 172l-29 -62c150 -20 280 -93 294 -191h-259v-66h605v66z" />
</svg>
