<?xml version="1.0" standalone="no"?>
<!DOCTYPE svg PUBLIC "-//W3C//DTD SVG 1.1//EN" "http://www.w3.org/Graphics/SVG/1.1/DTD/svg11.dtd" >
<svg xmlns="http://www.w3.org/2000/svg" xmlns:xlink="http://www.w3.org/1999/xlink" version="1.1" viewBox="-10 0 930 1000">
   <path fill="currentColor"
d="M702 529v-132h-182v-65h182v-100h-182v-66h182v-109h83v472h-83zM562 440l-45 67c-96 -35 -171 -105 -210 -193c-38 100 -115 176 -218 214l-47 -66c135 -47 222 -160 222 -297v-77h85v86c0 116 88 222 213 266zM243 786v99c102 0 180 -2 277 -18l6 65
c-107 17 -191 18 -312 18h-54v-225h219v-87h-221v-65h304v213h-219zM497 573h289v380h-85v-313h-204v-67z" />
</svg>
