<?xml version="1.0" standalone="no"?>
<!DOCTYPE svg PUBLIC "-//W3C//DTD SVG 1.1//EN" "http://www.w3.org/Graphics/SVG/1.1/DTD/svg11.dtd" >
<svg xmlns="http://www.w3.org/2000/svg" xmlns:xlink="http://www.w3.org/1999/xlink" version="1.1" viewBox="-10 0 930 1000">
   <path fill="currentColor"
d="M702 528v-132h-183v-65h183v-99h-183v-66h183v-109h83v471h-83zM561 440l-44 66c-96 -34 -171 -104 -210 -192c-38 100 -115 176 -218 213l-47 -65c136 -47 222 -160 222 -297v-77h85v86c0 116 88 222 212 266zM230 784v101c95 -1 154 -4 228 -17l9 64
c-87 17 -154 18 -270 18h-48v-221h218v-88h-220v-66h300v209h-217zM615 641v243h72v-243h-72zM753 884h62v65h-329v-65h63v-243h-58v-66h321v66h-59v243z" />
</svg>
