<?xml version="1.0" standalone="no"?>
<!DOCTYPE svg PUBLIC "-//W3C//DTD SVG 1.1//EN" "http://www.w3.org/Graphics/SVG/1.1/DTD/svg11.dtd" >
<svg xmlns="http://www.w3.org/2000/svg" xmlns:xlink="http://www.w3.org/1999/xlink" version="1.1" viewBox="-10 0 930 1000">
   <path fill="currentColor"
d="M576 477l-45 63c-99 -37 -175 -113 -214 -208c-38 102 -117 182 -222 222l-42 -66c134 -48 223 -169 223 -299v-104h81v104c0 125 88 240 219 288zM710 875v-107h-412v107h412zM710 704v-105h81v343h-574v-343h81v105h412zM709 57h82v502h-82v-160h-177v-67h177v-101
h-177v-67h177v-107z" />
</svg>
