<?xml version="1.0" standalone="no"?>
<!DOCTYPE svg PUBLIC "-//W3C//DTD SVG 1.1//EN" "http://www.w3.org/Graphics/SVG/1.1/DTD/svg11.dtd" >
<svg xmlns="http://www.w3.org/2000/svg" xmlns:xlink="http://www.w3.org/1999/xlink" version="1.1" viewBox="-10 0 930 1000">
   <path fill="currentColor"
d="M559 484l-45 62c-94 -37 -169 -111 -207 -202c-36 105 -114 183 -218 222l-47 -66c136 -48 221 -163 221 -304v-97h85v109c0 119 87 230 211 276zM173 691v-67h611v333h-83v-120l-535 26l-12 -67l547 -20v-85h-528zM701 58h83v522h-83v-166h-185v-66h185v-112h-185v-67
h185v-111z" />
</svg>
