<?xml version="1.0" standalone="no"?>
<!DOCTYPE svg PUBLIC "-//W3C//DTD SVG 1.1//EN" "http://www.w3.org/Graphics/SVG/1.1/DTD/svg11.dtd" >
<svg xmlns="http://www.w3.org/2000/svg" xmlns:xlink="http://www.w3.org/1999/xlink" version="1.1" viewBox="-10 0 930 1000">
   <path fill="currentColor"
d="M811 58v522h-78v-522h78zM558 572v-172h-132v-67h132v-86h-131v-67h131v-106h78v498h-78zM495 487l-44 65c-83 -35 -142 -101 -173 -180c-32 88 -94 162 -179 201l-47 -64c118 -53 186 -172 186 -285v-113h81v126c0 102 64 205 176 250zM691 690v8c0 89 61 167 171 201
l-42 60c-80 -27 -139 -79 -169 -144c-31 64 -92 122 -176 150l-41 -59c-79 26 -171 32 -218 32h-48v-300h80v221c53 -3 139 -13 197 -42l22 73c89 -40 142 -112 142 -174v-26h-150v-67h384v67h-152z" />
</svg>
