<?xml version="1.0" standalone="no"?>
<!DOCTYPE svg PUBLIC "-//W3C//DTD SVG 1.1//EN" "http://www.w3.org/Graphics/SVG/1.1/DTD/svg11.dtd" >
<svg xmlns="http://www.w3.org/2000/svg" xmlns:xlink="http://www.w3.org/1999/xlink" version="1.1" viewBox="-10 0 930 1000">
   <path fill="currentColor"
d="M558 570v-174h-138v-67h138v-87h-138v-66h138v-99h77v493h-77zM495 488l-45 64c-82 -34 -141 -100 -172 -179c-32 87 -94 161 -179 200l-47 -64c118 -53 186 -171 186 -285v-113h80v126c0 103 65 206 177 251zM301 693v183h429v-183h-429zM221 942v-314h589v314h-589z
M731 58h79v525h-79v-525z" />
</svg>
