<?xml version="1.0" standalone="no"?>
<!DOCTYPE svg PUBLIC "-//W3C//DTD SVG 1.1//EN" "http://www.w3.org/Graphics/SVG/1.1/DTD/svg11.dtd" >
<svg xmlns="http://www.w3.org/2000/svg" xmlns:xlink="http://www.w3.org/1999/xlink" version="1.1" viewBox="-10 0 930 1000">
   <path fill="currentColor"
d="M811 317l-35 65c-139 -20 -266 -76 -324 -171c-56 98 -183 153 -328 174l-32 -68c179 -21 318 -100 318 -228v-20h84v24c0 124 141 204 317 224zM212 793v94c85 0 149 -3 231 -15l7 62c-95 15 -168 16 -271 16h-48v-215h211v-93h-214v-63h295v214h-211zM703 884v-120
h-152v120h152zM703 702v-126h75v372h-303v-372h76v126h152zM493 447h365v66h-812v-66h363v-103h84v103z" />
</svg>
