<?xml version="1.0" standalone="no"?>
<!DOCTYPE svg PUBLIC "-//W3C//DTD SVG 1.1//EN" "http://www.w3.org/Graphics/SVG/1.1/DTD/svg11.dtd" >
<svg xmlns="http://www.w3.org/2000/svg" xmlns:xlink="http://www.w3.org/1999/xlink" version="1.1" viewBox="-10 0 930 1000">
   <path fill="currentColor"
d="M812 343l-36 65c-140 -23 -267 -85 -324 -188c-56 105 -184 167 -326 191l-35 -68c177 -24 319 -112 319 -250v-20h84v24c0 134 144 222 318 246zM362 707v174h190v-174h-190zM634 707v174h147v63h-649v-63h148v-174h-140v-64h633v64h-139zM493 501h365v67h-812v-67h363
v-119h84v119z" />
</svg>
