<?xml version="1.0" standalone="no"?>
<!DOCTYPE svg PUBLIC "-//W3C//DTD SVG 1.1//EN" "http://www.w3.org/Graphics/SVG/1.1/DTD/svg11.dtd" >
<svg xmlns="http://www.w3.org/2000/svg" xmlns:xlink="http://www.w3.org/1999/xlink" version="1.1" viewBox="-10 0 930 1000">
   <path fill="currentColor"
d="M592 446l-41 64c-103 -33 -184 -103 -224 -195c-38 99 -119 174 -225 211l-42 -64c135 -45 224 -153 224 -281v-63h84v63c0 121 90 224 224 265zM367 500v188c81 -3 161 -9 237 -20l7 60c-192 35 -403 35 -557 35l-11 -69c71 0 155 0 242 -2v-192h82zM885 427v69h-142
v458h-82v-898h82v371h142z" />
</svg>
