<?xml version="1.0" standalone="no"?>
<!DOCTYPE svg PUBLIC "-//W3C//DTD SVG 1.1//EN" "http://www.w3.org/Graphics/SVG/1.1/DTD/svg11.dtd" >
<svg xmlns="http://www.w3.org/2000/svg" xmlns:xlink="http://www.w3.org/1999/xlink" version="1.1" viewBox="-10 0 930 1000">
   <path fill="currentColor"
d="M591 328l-41 65c-98 -26 -174 -80 -212 -155c-36 85 -111 147 -212 178l-47 -65c131 -33 213 -123 213 -232v-35h87v37c0 99 83 178 212 207zM611 482l5 64c-174 21 -387 33 -555 34l-11 -72c76 0 159 -2 244 -6v-120h84v116c80 -3 160 -9 233 -16zM138 648h300v307h-81
v-240h-219v-67zM685 642v37c0 92 54 180 160 216l-44 64c-77 -29 -128 -83 -155 -151c-30 68 -86 125 -164 156l-44 -64c108 -40 167 -132 167 -217v-41h80zM750 311h131v70h-131v224h-83v-548h83v254z" />
</svg>
