<?xml version="1.0" standalone="no"?>
<!DOCTYPE svg PUBLIC "-//W3C//DTD SVG 1.1//EN" "http://www.w3.org/Graphics/SVG/1.1/DTD/svg11.dtd" >
<svg xmlns="http://www.w3.org/2000/svg" xmlns:xlink="http://www.w3.org/1999/xlink" version="1.1" viewBox="-10 0 930 1000">
   <path fill="currentColor"
d="M591 328l-41 65c-98 -26 -174 -80 -212 -155c-36 85 -111 147 -212 178l-47 -65c131 -33 213 -123 213 -232v-35h87v37c0 99 83 178 212 207zM611 482l5 64c-174 21 -387 33 -556 34l-10 -72c76 0 160 -2 244 -6v-120h84v116c80 -3 160 -9 233 -16zM251 719v159h514v67
h-596v-293h589v67h-507zM750 311h131v70h-131v224h-83v-548h83v254z" />
</svg>
