<?xml version="1.0" standalone="no"?>
<!DOCTYPE svg PUBLIC "-//W3C//DTD SVG 1.1//EN" "http://www.w3.org/Graphics/SVG/1.1/DTD/svg11.dtd" >
<svg xmlns="http://www.w3.org/2000/svg" xmlns:xlink="http://www.w3.org/1999/xlink" version="1.1" viewBox="-10 0 930 1000">
   <path fill="currentColor"
d="M631 373v226h-77v-525h77v231h108v-247h78v549h-78v-234h-108zM505 338l-44 63c-80 -25 -140 -75 -171 -138c-31 76 -92 132 -179 161l-46 -65c116 -33 181 -118 181 -222v-38h84v48c0 85 67 161 175 191zM511 485l7 63c-134 17 -326 29 -454 29l-9 -71
c57 0 125 -2 196 -5v-112h80v108c65 -2 127 -7 180 -12zM284 877h546v67h-631v-297h623v65h-538v165z" />
</svg>
