<?xml version="1.0" standalone="no"?>
<!DOCTYPE svg PUBLIC "-//W3C//DTD SVG 1.1//EN" "http://www.w3.org/Graphics/SVG/1.1/DTD/svg11.dtd" >
<svg xmlns="http://www.w3.org/2000/svg" xmlns:xlink="http://www.w3.org/1999/xlink" version="1.1" viewBox="-10 0 930 1000">
   <path fill="currentColor"
d="M623 379v232h-78v-538h78v239h107v-255h78v634h-78v-312h-107zM502 339l-38 61c-84 -27 -145 -79 -176 -146c-31 77 -98 138 -191 169l-37 -61c114 -36 184 -121 184 -211v-48h85v48c0 80 67 156 173 188zM502 485l6 58c-148 31 -335 33 -449 33l-11 -66
c54 0 126 0 201 -3v-123h79v119c61 -4 121 -9 174 -18zM540 633v30c0 114 138 201 301 224l-31 64c-136 -22 -258 -84 -311 -178c-53 94 -175 156 -311 178l-31 -64c163 -23 300 -110 300 -224v-30h83z" />
</svg>
