<?xml version="1.0" standalone="no"?>
<!DOCTYPE svg PUBLIC "-//W3C//DTD SVG 1.1//EN" "http://www.w3.org/Graphics/SVG/1.1/DTD/svg11.dtd" >
<svg xmlns="http://www.w3.org/2000/svg" xmlns:xlink="http://www.w3.org/1999/xlink" version="1.1" viewBox="-10 0 930 1000">
   <path fill="currentColor"
d="M623 374v232h-78v-531h78v232h107v-249h78v585h-78v-269h-107zM505 338l-44 63c-81 -25 -141 -75 -172 -138c-31 76 -92 132 -179 161l-46 -65c116 -33 181 -118 181 -222v-37h84v48c0 84 67 160 176 190zM502 489l6 57c-145 28 -333 30 -450 31l-11 -66
c56 0 128 0 203 -3v-119h80v115c60 -3 120 -7 172 -15zM507 891c142 0 226 -31 226 -88c0 -56 -84 -88 -226 -88c-143 0 -225 32 -225 88c0 57 82 88 225 88zM507 654c194 0 309 52 309 149s-115 150 -309 150s-309 -53 -309 -150s115 -149 309 -149z" />
</svg>
