<?xml version="1.0" standalone="no"?>
<!DOCTYPE svg PUBLIC "-//W3C//DTD SVG 1.1//EN" "http://www.w3.org/Graphics/SVG/1.1/DTD/svg11.dtd" >
<svg xmlns="http://www.w3.org/2000/svg" xmlns:xlink="http://www.w3.org/1999/xlink" version="1.1" viewBox="-10 0 930 1000">
   <path fill="currentColor"
d="M505 338l-44 63c-81 -25 -141 -75 -172 -138c-31 76 -92 132 -179 161l-46 -65c116 -33 181 -118 181 -222v-38h84v48c0 85 67 161 176 191zM511 485l6 63c-134 17 -326 29 -454 29l-9 -71c57 0 125 -2 196 -5v-112h80v108c65 -2 128 -7 181 -12zM189 713v-66h628v307
h-84v-105l-556 26l-12 -66l568 -19v-77h-544zM739 58h78v549h-78v-234h-108v226h-77v-525h77v231h108v-247z" />
</svg>
