<?xml version="1.0" standalone="no"?>
<!DOCTYPE svg PUBLIC "-//W3C//DTD SVG 1.1//EN" "http://www.w3.org/Graphics/SVG/1.1/DTD/svg11.dtd" >
<svg xmlns="http://www.w3.org/2000/svg" xmlns:xlink="http://www.w3.org/1999/xlink" version="1.1" viewBox="-10 0 930 1000">
   <path fill="currentColor"
d="M631 348v197h-77v-472h77v207h108v-222h78v492h-78v-202h-108zM505 315l-43 63c-81 -25 -140 -73 -172 -134c-30 73 -92 129 -180 157l-45 -65c115 -32 181 -116 181 -216v-26h84v35c0 83 67 158 175 186zM511 447l7 61c-134 16 -325 27 -454 28l-9 -69
c57 0 126 -2 196 -5v-106h78v103c65 -3 129 -7 182 -12zM286 883h557v64h-642v-351h625v63h-540v79h527v60h-527v85z" />
</svg>
