<?xml version="1.0" standalone="no"?>
<!DOCTYPE svg PUBLIC "-//W3C//DTD SVG 1.1//EN" "http://www.w3.org/Graphics/SVG/1.1/DTD/svg11.dtd" >
<svg xmlns="http://www.w3.org/2000/svg" xmlns:xlink="http://www.w3.org/1999/xlink" version="1.1" viewBox="-10 0 930 1000">
   <path fill="currentColor"
d="M623 350v204h-78v-483h78v212h107v-227h78v529h-78v-235h-107zM505 315l-43 62c-81 -25 -140 -73 -172 -134c-30 73 -92 129 -180 157l-45 -65c115 -32 181 -115 181 -216v-26h84v35c0 83 67 158 175 187zM503 440l5 57c-145 29 -333 31 -449 32l-11 -66
c55 0 127 0 203 -3v-105h78v101c61 -3 121 -7 174 -16zM510 896c115 0 174 -15 174 -48s-59 -47 -174 -47s-174 14 -174 47s59 48 174 48zM510 745c168 0 258 34 258 103c0 70 -90 104 -258 104s-258 -34 -258 -104c0 -69 90 -103 258 -103zM551 647h278v61h-639v-61h279
v-72h82v72z" />
</svg>
