<?xml version="1.0" standalone="no"?>
<!DOCTYPE svg PUBLIC "-//W3C//DTD SVG 1.1//EN" "http://www.w3.org/Graphics/SVG/1.1/DTD/svg11.dtd" >
<svg xmlns="http://www.w3.org/2000/svg" xmlns:xlink="http://www.w3.org/1999/xlink" version="1.1" viewBox="-10 0 930 1000">
   <path fill="currentColor"
d="M787 58v672h-82v-672h82zM602 359l-36 63c-102 -27 -179 -85 -217 -162c-37 85 -115 153 -220 183l-38 -64c130 -37 214 -131 214 -235v-51h84v51c0 99 85 182 213 215zM634 519l5 60c-190 30 -406 36 -570 36l-12 -67c75 0 160 -1 249 -5v-147h82v144
c84 -4 168 -11 246 -21zM284 867h532v67h-614v-249h82v182z" />
</svg>
