<?xml version="1.0" standalone="no"?>
<!DOCTYPE svg PUBLIC "-//W3C//DTD SVG 1.1//EN" "http://www.w3.org/Graphics/SVG/1.1/DTD/svg11.dtd" >
<svg xmlns="http://www.w3.org/2000/svg" xmlns:xlink="http://www.w3.org/1999/xlink" version="1.1" viewBox="-10 0 930 1000">
   <path fill="currentColor"
d="M787 58v484h-82v-484h82zM603 298l-34 62c-104 -24 -183 -77 -221 -153c-37 82 -116 142 -222 169l-37 -62c132 -32 216 -114 216 -215v-28h84v29c0 97 85 170 214 198zM636 424l6 58c-196 32 -410 35 -573 35l-10 -65c74 0 159 0 247 -3v-120h82v117
c84 -4 169 -10 248 -22zM278 880h542v64h-622v-216h509v-81h-512v-64h592v206h-509v91z" />
</svg>
