<?xml version="1.0" standalone="no"?>
<!DOCTYPE svg PUBLIC "-//W3C//DTD SVG 1.1//EN" "http://www.w3.org/Graphics/SVG/1.1/DTD/svg11.dtd" >
<svg xmlns="http://www.w3.org/2000/svg" xmlns:xlink="http://www.w3.org/1999/xlink" version="1.1" viewBox="-10 0 930 1000">
   <path fill="currentColor"
d="M781 58v489h-82v-489h82zM599 297l-40 65c-100 -23 -177 -72 -216 -140c-36 79 -112 136 -214 164l-44 -64c131 -30 213 -114 213 -213v-30h86v32c0 90 83 161 215 186zM630 438l7 62c-184 22 -397 32 -572 33l-11 -70c79 0 163 -2 249 -5v-110h84v106
c83 -3 167 -9 243 -16zM223 796v93c102 0 160 -2 236 -16l6 61c-86 15 -151 16 -272 16h-47v-210h218v-83h-221v-61h299v200h-219zM576 887h225v61h-304v-352h291v61h-212v85h204v56h-204v89z" />
</svg>
