<?xml version="1.0" standalone="no"?>
<!DOCTYPE svg PUBLIC "-//W3C//DTD SVG 1.1//EN" "http://www.w3.org/Graphics/SVG/1.1/DTD/svg11.dtd" >
<svg xmlns="http://www.w3.org/2000/svg" xmlns:xlink="http://www.w3.org/1999/xlink" version="1.1" viewBox="-10 0 930 1000">
   <path fill="currentColor"
d="M603 322l-35 63c-103 -26 -181 -82 -220 -156c-37 79 -116 141 -222 169l-36 -64c130 -32 215 -118 215 -214v-41h84v41c0 93 86 172 214 202zM634 455l6 59c-195 34 -411 36 -571 37l-10 -66c73 0 158 0 247 -3v-124h82v120c84 -5 167 -11 246 -23zM707 876v-103h-425
v103h425zM707 709v-94h81v327h-587v-327h81v94h425zM706 58h82v517h-82v-517z" />
</svg>
