<?xml version="1.0" standalone="no"?>
<!DOCTYPE svg PUBLIC "-//W3C//DTD SVG 1.1//EN" "http://www.w3.org/Graphics/SVG/1.1/DTD/svg11.dtd" >
<svg xmlns="http://www.w3.org/2000/svg" xmlns:xlink="http://www.w3.org/1999/xlink" version="1.1" viewBox="-10 0 930 1000">
   <path fill="currentColor"
d="M781 58v516h-82v-516h82zM599 312l-41 63c-100 -24 -177 -74 -215 -145c-35 82 -112 142 -214 170l-45 -64c132 -31 213 -115 213 -218v-35h88v37c0 91 84 165 214 192zM630 457l7 62c-183 23 -398 33 -572 35l-12 -71c78 0 164 -2 250 -6v-114h84v111
c84 -4 167 -9 243 -17zM394 883v-105h-162v105h162zM712 610v54c0 86 55 181 158 226l-45 64c-72 -32 -123 -89 -152 -157c-28 69 -81 126 -158 157l-44 -61v54h-316v-333h77v102h162v-102h77v275c103 -42 160 -131 160 -216v-63h81z" />
</svg>
