<?xml version="1.0" standalone="no"?>
<!DOCTYPE svg PUBLIC "-//W3C//DTD SVG 1.1//EN" "http://www.w3.org/Graphics/SVG/1.1/DTD/svg11.dtd" >
<svg xmlns="http://www.w3.org/2000/svg" xmlns:xlink="http://www.w3.org/1999/xlink" version="1.1" viewBox="-10 0 930 1000">
   <path fill="currentColor"
d="M782 57v562h-83v-562h83zM601 328l-41 63c-100 -25 -176 -79 -215 -154c-35 85 -111 148 -213 178l-47 -64c132 -33 214 -123 214 -232v-35h88v37c0 99 83 177 214 207zM627 480l7 62c-181 22 -397 33 -570 35l-12 -71c78 -1 163 -3 249 -6v-130h84v126
c84 -4 166 -9 242 -16zM682 635v34c0 93 65 188 180 227l-44 60c-84 -31 -144 -91 -176 -163c-26 75 -78 140 -161 175l-1 -1v1c-83 -34 -135 -98 -162 -172c-32 71 -92 130 -175 160l-43 -60c115 -39 180 -134 180 -227v-34h79v34c0 82 39 167 121 217
c82 -51 122 -136 122 -217v-34h80z" />
</svg>
