<?xml version="1.0" standalone="no"?>
<!DOCTYPE svg PUBLIC "-//W3C//DTD SVG 1.1//EN" "http://www.w3.org/Graphics/SVG/1.1/DTD/svg11.dtd" >
<svg xmlns="http://www.w3.org/2000/svg" xmlns:xlink="http://www.w3.org/1999/xlink" version="1.1" viewBox="-10 0 930 1000">
   <path fill="currentColor"
d="M811 327l-36 64c-139 -21 -267 -79 -323 -178c-57 100 -185 158 -327 180l-33 -65c178 -22 318 -106 318 -240v-19h84v24c0 129 142 213 317 234zM217 634v231c49 -2 118 -8 189 -26l12 67c-99 24 -184 28 -237 28h-44v-300h80zM596 906c50 0 87 -19 87 -49
c0 -31 -37 -49 -87 -49s-87 18 -87 49c0 30 37 49 87 49zM596 754c90 0 157 40 157 103c0 62 -67 102 -157 102s-157 -40 -157 -102c0 -63 67 -103 157 -103zM636 595v69h161v61h-404v-61h163v-69h80zM634 493h224v65h-812v-65h223v-128h84v128h197v-129h84v129z" />
</svg>
