<?xml version="1.0" standalone="no"?>
<!DOCTYPE svg PUBLIC "-//W3C//DTD SVG 1.1//EN" "http://www.w3.org/Graphics/SVG/1.1/DTD/svg11.dtd" >
<svg xmlns="http://www.w3.org/2000/svg" xmlns:xlink="http://www.w3.org/1999/xlink" version="1.1" viewBox="-10 0 930 1000">
   <path fill="currentColor"
d="M212 793v94c85 0 149 -3 231 -15l7 62c-95 15 -168 16 -271 16h-48v-215h211v-93h-214v-63h295v214h-211zM703 884v-120h-152v120h152zM703 702v-126h75v372h-303v-372h76v126h152zM278 346h74v103h199v-103h80c-78 -29 -142 -74 -179 -133c-35 59 -98 103 -174 133z
M635 449h223v64h-812v-64h223v-100c-44 16 -92 28 -142 36l-35 -67c177 -20 318 -101 318 -223v-26h84v28c0 120 142 201 318 220l-36 65c-50 -7 -97 -18 -141 -35v102z" />
</svg>
