<?xml version="1.0" standalone="no"?>
<!DOCTYPE svg PUBLIC "-//W3C//DTD SVG 1.1//EN" "http://www.w3.org/Graphics/SVG/1.1/DTD/svg11.dtd" >
<svg xmlns="http://www.w3.org/2000/svg" xmlns:xlink="http://www.w3.org/1999/xlink" version="1.1" viewBox="-10 0 930 1000">
   <path fill="currentColor"
d="M812 343l-36 64c-140 -23 -267 -85 -324 -188c-56 105 -183 167 -325 191l-36 -67c177 -24 319 -113 319 -251v-20h84v24c0 134 144 223 318 247zM143 709v-67h620v314h-83v-110l-544 26l-12 -65l556 -19v-79h-537zM634 503h224v65h-812v-65h223v-126h84v126h197v-125h84
v125z" />
</svg>
