<?xml version="1.0" standalone="no"?>
<!DOCTYPE svg PUBLIC "-//W3C//DTD SVG 1.1//EN" "http://www.w3.org/Graphics/SVG/1.1/DTD/svg11.dtd" >
<svg xmlns="http://www.w3.org/2000/svg" xmlns:xlink="http://www.w3.org/1999/xlink" version="1.1" viewBox="-10 0 930 1000">
   <path fill="currentColor"
d="M809 344l-34 65c-139 -23 -267 -85 -323 -187c-56 104 -182 166 -324 190l-34 -67c175 -25 316 -112 316 -251v-22h84v27c0 134 142 221 315 245zM676 650v28c0 93 54 181 158 218l-45 62c-76 -28 -127 -83 -154 -150c-30 68 -85 124 -161 154l-46 -62
c109 -41 167 -134 167 -221v-29h81zM46 478h812v65h-366v134h-69v279h-80v-231h-220v-67h286v-115h-363v-65z" />
</svg>
