<?xml version="1.0" standalone="no"?>
<!DOCTYPE svg PUBLIC "-//W3C//DTD SVG 1.1//EN" "http://www.w3.org/Graphics/SVG/1.1/DTD/svg11.dtd" >
<svg xmlns="http://www.w3.org/2000/svg" xmlns:xlink="http://www.w3.org/1999/xlink" version="1.1" viewBox="-10 0 930 1000">
   <path fill="currentColor"
d="M809 316l-33 64c-140 -20 -267 -77 -324 -174c-56 98 -184 154 -328 175l-32 -65c177 -21 318 -101 318 -230v-20h84v22c0 125 142 207 315 228zM857 502h-364v90h279v362h-84v-297h-212v-49h-40v187h-217v92c103 0 179 -4 276 -19l7 64c-108 17 -192 18 -312 18h-55
v-216h217v-78h-219v-64h276v-90h-363v-66h811v66z" />
</svg>
