<?xml version="1.0" standalone="no"?>
<!DOCTYPE svg PUBLIC "-//W3C//DTD SVG 1.1//EN" "http://www.w3.org/Graphics/SVG/1.1/DTD/svg11.dtd" >
<svg xmlns="http://www.w3.org/2000/svg" xmlns:xlink="http://www.w3.org/1999/xlink" version="1.1" viewBox="-10 0 930 1000">
   <path fill="currentColor"
d="M810 316l-34 64c-139 -20 -267 -77 -324 -174c-56 98 -184 154 -328 175l-32 -65c177 -21 318 -101 318 -230v-20h84v22c0 125 143 207 316 228zM664 884v-220h-76v220h76zM858 502h-365v97h291v65h-54v220h62v66h-328v-66h58v-220h-53v-48h-46v177h-215v93
c93 0 153 -3 226 -17l7 63c-84 17 -150 18 -265 18h-47v-212h216v-74h-218v-65h282v-97h-364v-66h813v66z" />
</svg>
