<?xml version="1.0" standalone="no"?>
<!DOCTYPE svg PUBLIC "-//W3C//DTD SVG 1.1//EN" "http://www.w3.org/Graphics/SVG/1.1/DTD/svg11.dtd" >
<svg xmlns="http://www.w3.org/2000/svg" xmlns:xlink="http://www.w3.org/1999/xlink" version="1.1" viewBox="-10 0 930 1000">
   <path fill="currentColor"
d="M596 302l-40 64c-100 -24 -177 -74 -214 -145c-36 79 -113 137 -214 165l-44 -64c128 -31 212 -113 212 -208v-36h87v35c0 91 85 164 213 189zM287 635v-136c-80 3 -158 5 -230 6l-12 -71c181 -1 394 -6 578 -20l7 62c-82 9 -172 15 -260 19v140h-83zM170 734v-67h615
v290h-84v-223h-531zM703 58h82v582h-82v-49h-187v-58h187v-475z" />
</svg>
