<?xml version="1.0" standalone="no"?>
<!DOCTYPE svg PUBLIC "-//W3C//DTD SVG 1.1//EN" "http://www.w3.org/Graphics/SVG/1.1/DTD/svg11.dtd" >
<svg xmlns="http://www.w3.org/2000/svg" xmlns:xlink="http://www.w3.org/1999/xlink" version="1.1" viewBox="-10 0 930 1000">
   <path fill="currentColor"
d="M526 586h177v-528h82v684h-82v-96h-177v-60zM597 337l-41 65c-99 -23 -175 -74 -213 -143c-36 77 -114 134 -216 161l-44 -66c130 -31 214 -112 214 -206v-54h87v51c0 91 83 165 213 192zM291 704v-166c-80 3 -158 5 -229 6l-12 -71c179 -1 391 -6 572 -20l7 62
c-80 9 -168 14 -255 19v170h-83zM262 870h545v66h-630v-266h85v200z" />
</svg>
