<?xml version="1.0" standalone="no"?>
<!DOCTYPE svg PUBLIC "-//W3C//DTD SVG 1.1//EN" "http://www.w3.org/Graphics/SVG/1.1/DTD/svg11.dtd" >
<svg xmlns="http://www.w3.org/2000/svg" xmlns:xlink="http://www.w3.org/1999/xlink" version="1.1" viewBox="-10 0 930 1000">
   <path fill="currentColor"
d="M596 279l-40 63c-101 -21 -177 -69 -214 -135c-35 74 -113 131 -214 155l-40 -61c125 -29 209 -104 209 -190v-38h87v34c0 83 84 149 212 172zM287 585v-114c-79 3 -158 5 -230 6l-12 -70c182 -1 394 -6 579 -20l6 61c-82 9 -172 15 -260 19v118h-83zM226 810v82
c97 0 157 -3 232 -16l8 58c-89 15 -155 17 -275 17h-47v-197h214v-76h-216v-61h298v193h-214zM566 676v221h149v-221h-149zM495 956v-339h290v339h-290zM703 57h82v528h-82v-35h-187v-54h187v-439z" />
</svg>
