<?xml version="1.0" standalone="no"?>
<!DOCTYPE svg PUBLIC "-//W3C//DTD SVG 1.1//EN" "http://www.w3.org/Graphics/SVG/1.1/DTD/svg11.dtd" >
<svg xmlns="http://www.w3.org/2000/svg" xmlns:xlink="http://www.w3.org/1999/xlink" version="1.1" viewBox="-10 0 930 1000">
   <path fill="currentColor"
d="M516 496h187v-439h82v529h-82v-36h-187v-54zM596 279l-40 64c-101 -21 -177 -69 -214 -135c-35 74 -113 130 -214 155l-40 -61c125 -29 209 -104 209 -190v-38h87v34c0 83 84 149 212 171zM287 585v-114c-79 3 -158 5 -230 6l-12 -70c182 -1 394 -6 579 -20l6 61
c-82 9 -172 15 -260 19v118h-83zM230 805v85c94 -1 154 -4 229 -17l6 60c-86 16 -153 17 -268 17h-47v-199h216v-75h-218v-61h298v190h-216zM613 676v210h67v-210h-67zM745 886h69v64h-329v-64h63v-210h-60v-61h318v61h-61v210z" />
</svg>
