<?xml version="1.0" standalone="no"?>
<!DOCTYPE svg PUBLIC "-//W3C//DTD SVG 1.1//EN" "http://www.w3.org/Graphics/SVG/1.1/DTD/svg11.dtd" >
<svg xmlns="http://www.w3.org/2000/svg" xmlns:xlink="http://www.w3.org/1999/xlink" version="1.1" viewBox="-10 0 930 1000">
   <path fill="currentColor"
d="M808 58v684h-78v-684h78zM411 563h157v-489h77v650h-77v-100h-157v-61zM498 331l-35 61c-84 -25 -144 -76 -175 -139c-30 71 -95 129 -186 158l-36 -60c113 -32 181 -114 181 -198v-46h79v46c0 77 68 150 172 178zM250 656v-141c-71 3 -138 4 -192 4l-10 -66
c125 0 325 -3 471 -25l6 58c-61 12 -129 20 -197 24v146h-78zM290 867h547v67h-629v-243h82v176z" />
</svg>
