<?xml version="1.0" standalone="no"?>
<!DOCTYPE svg PUBLIC "-//W3C//DTD SVG 1.1//EN" "http://www.w3.org/Graphics/SVG/1.1/DTD/svg11.dtd" >
<svg xmlns="http://www.w3.org/2000/svg" xmlns:xlink="http://www.w3.org/1999/xlink" version="1.1" viewBox="-10 0 930 1000">
   <path fill="currentColor"
d="M817 57v574h-78v-574h78zM412 526h159v-449h77v551h-77v-43h-159v-59zM506 293l-40 66c-82 -20 -142 -62 -175 -116c-31 65 -93 113 -178 137l-46 -65c113 -27 180 -94 180 -180v-41h84v46c0 72 67 132 175 153zM245 630v-141c-66 3 -130 5 -182 5l-9 -68
c130 -1 326 -7 461 -23l5 61c-59 9 -128 16 -197 20v146h-78zM281 878h548v66h-632v-272h626v64h-542v142z" />
</svg>
