<?xml version="1.0" standalone="no"?>
<!DOCTYPE svg PUBLIC "-//W3C//DTD SVG 1.1//EN" "http://www.w3.org/Graphics/SVG/1.1/DTD/svg11.dtd" >
<svg xmlns="http://www.w3.org/2000/svg" xmlns:xlink="http://www.w3.org/1999/xlink" version="1.1" viewBox="-10 0 930 1000">
   <path fill="currentColor"
d="M817 57v575h-78v-575h78zM413 524h158v-448h78v551h-78v-44h-158v-59zM507 291l-40 66c-82 -19 -143 -60 -176 -112c-31 65 -93 111 -179 134l-44 -65c113 -26 179 -93 179 -180v-41h84v59c0 61 70 118 176 139zM245 630v-140c-66 3 -130 4 -182 4l-9 -67
c127 0 325 -5 460 -22l6 59c-60 9 -128 16 -197 21v145h-78zM695 661v21c0 91 68 182 185 219l-42 59c-86 -29 -149 -87 -182 -158c-27 74 -80 138 -163 173c-82 -34 -136 -98 -163 -172c-34 70 -97 128 -182 157l-41 -59c116 -39 185 -130 185 -219v-21h79v21
c0 79 40 162 122 211c82 -50 122 -133 122 -211v-21h80z" />
</svg>
