<?xml version="1.0" standalone="no"?>
<!DOCTYPE svg PUBLIC "-//W3C//DTD SVG 1.1//EN" "http://www.w3.org/Graphics/SVG/1.1/DTD/svg11.dtd" >
<svg xmlns="http://www.w3.org/2000/svg" xmlns:xlink="http://www.w3.org/1999/xlink" version="1.1" viewBox="-10 0 930 1000">
   <path fill="currentColor"
d="M818 58v572h-79v-572h79zM412 522h159v-445h78v548h-78v-43h-159v-60zM506 293l-40 66c-82 -21 -142 -62 -175 -117c-31 66 -93 114 -178 138l-46 -66c113 -26 180 -93 180 -179v-41h84v46c0 72 67 132 175 153zM245 627v-144c-66 3 -131 5 -182 5l-10 -65
c129 -1 326 -6 462 -23l5 57c-59 10 -128 17 -197 21v149h-78zM825 736h-261c28 78 159 138 306 152l-27 62c-142 -15 -272 -70 -326 -153c-55 81 -183 138 -325 153l-26 -62c144 -14 276 -76 304 -152h-256v-64h611v64z" />
</svg>
