<?xml version="1.0" standalone="no"?>
<!DOCTYPE svg PUBLIC "-//W3C//DTD SVG 1.1//EN" "http://www.w3.org/Graphics/SVG/1.1/DTD/svg11.dtd" >
<svg xmlns="http://www.w3.org/2000/svg" xmlns:xlink="http://www.w3.org/1999/xlink" version="1.1" viewBox="-10 0 930 1000">
   <path fill="currentColor"
d="M610 373l-38 64c-105 -28 -185 -86 -226 -167c-38 89 -122 157 -230 188l-40 -64c136 -37 227 -133 227 -243v-56h84v56c0 104 88 189 223 222zM643 508l6 60c-84 15 -172 25 -257 30v328h-82v-324c-89 4 -174 5 -248 5l-12 -69c169 0 397 -2 593 -30zM707 58h82v897h-82
v-897z" />
</svg>
