<?xml version="1.0" standalone="no"?>
<!DOCTYPE svg PUBLIC "-//W3C//DTD SVG 1.1//EN" "http://www.w3.org/Graphics/SVG/1.1/DTD/svg11.dtd" >
<svg xmlns="http://www.w3.org/2000/svg" xmlns:xlink="http://www.w3.org/1999/xlink" version="1.1" viewBox="-10 0 930 1000">
   <path fill="currentColor"
d="M781 58v554h-82v-554h82zM596 325l-39 64c-98 -26 -172 -81 -209 -155c-36 82 -115 145 -218 174l-41 -63c130 -34 214 -122 214 -222v-43h86v43c0 94 85 172 207 202zM273 878h527v65h-610v-65h1v-227h120v-121c-86 3 -170 4 -246 4l-10 -70c178 -1 394 -3 582 -20l6 62
c-81 9 -166 16 -250 20v125h400v65h-520v162z" />
</svg>
