<?xml version="1.0" standalone="no"?>
<!DOCTYPE svg PUBLIC "-//W3C//DTD SVG 1.1//EN" "http://www.w3.org/Graphics/SVG/1.1/DTD/svg11.dtd" >
<svg xmlns="http://www.w3.org/2000/svg" xmlns:xlink="http://www.w3.org/1999/xlink" version="1.1" viewBox="-10 0 930 1000">
   <path fill="currentColor"
d="M604 288l-37 65c-101 -22 -179 -70 -217 -140c-38 78 -120 135 -225 160l-40 -62c134 -29 220 -106 220 -204v-31h85v31c0 91 86 158 214 181zM243 796v93c118 0 188 -4 274 -21l8 61c-96 18 -172 21 -309 21h-54v-212h220v-80h-222v-62h151v-110c-84 2 -166 3 -240 3
l-12 -69c174 0 390 -1 578 -17l5 60c-81 10 -166 16 -249 20v113h70v200h-220zM499 661v-65h282v361h-82v-296h-200zM699 58h82v495h-82v-495z" />
</svg>
