<?xml version="1.0" standalone="no"?>
<!DOCTYPE svg PUBLIC "-//W3C//DTD SVG 1.1//EN" "http://www.w3.org/Graphics/SVG/1.1/DTD/svg11.dtd" >
<svg xmlns="http://www.w3.org/2000/svg" xmlns:xlink="http://www.w3.org/1999/xlink" version="1.1" viewBox="-10 0 930 1000">
   <path fill="currentColor"
d="M603 288l-37 64c-101 -21 -179 -69 -218 -138c-37 77 -116 134 -221 159l-40 -62c131 -29 217 -106 217 -204v-31h85v31c0 91 87 158 214 181zM230 796v95c95 -1 154 -4 228 -16l8 59c-87 15 -153 17 -271 17h-47v-211h209v-84h-211v-62h165v-109c-85 3 -167 4 -240 4
l-11 -69c172 0 388 -1 577 -19l6 60c-82 11 -166 16 -250 21v112h47v202h-210zM564 654v235h146v-235h-146zM494 949v-355h286v355h-286zM699 58h82v493h-82v-493z" />
</svg>
