<?xml version="1.0" standalone="no"?>
<!DOCTYPE svg PUBLIC "-//W3C//DTD SVG 1.1//EN" "http://www.w3.org/Graphics/SVG/1.1/DTD/svg11.dtd" >
<svg xmlns="http://www.w3.org/2000/svg" xmlns:xlink="http://www.w3.org/1999/xlink" version="1.1" viewBox="-10 0 930 1000">
   <path fill="currentColor"
d="M781 58v494h-82v-494h82zM599 291l-39 64c-98 -23 -174 -71 -212 -141c-37 77 -115 133 -218 159l-41 -62c130 -29 215 -106 215 -204v-32h85v32c0 92 86 159 210 184zM223 795v94c101 0 160 -2 235 -16l8 60c-87 16 -152 16 -273 16h-47v-209h219v-83h-222v-62h168v-110
c-84 3 -166 4 -240 4l-11 -69c174 0 388 -1 577 -18l5 60c-81 10 -166 16 -249 20v113h49v200h-219zM576 887h225v61h-305v-353h292v61h-212v86h202v56h-202v89z" />
</svg>
