<?xml version="1.0" standalone="no"?>
<!DOCTYPE svg PUBLIC "-//W3C//DTD SVG 1.1//EN" "http://www.w3.org/Graphics/SVG/1.1/DTD/svg11.dtd" >
<svg xmlns="http://www.w3.org/2000/svg" xmlns:xlink="http://www.w3.org/1999/xlink" version="1.1" viewBox="-10 0 930 1000">
   <path fill="currentColor"
d="M781 58v495h-82v-495h82zM604 290l-38 65c-101 -22 -180 -71 -219 -142c-37 78 -117 134 -221 159l-40 -62c132 -29 218 -106 218 -204v-31h85v31c0 92 86 160 215 184zM272 883h537v63h-622v-350h124v-107c-84 2 -166 3 -240 3l-12 -69c174 0 390 -1 578 -18l5 61
c-81 10 -166 16 -249 20v110h397v63h-518v81h507v59h-507v84z" />
</svg>
