<?xml version="1.0" standalone="no"?>
<!DOCTYPE svg PUBLIC "-//W3C//DTD SVG 1.1//EN" "http://www.w3.org/Graphics/SVG/1.1/DTD/svg11.dtd" >
<svg xmlns="http://www.w3.org/2000/svg" xmlns:xlink="http://www.w3.org/1999/xlink" version="1.1" viewBox="-10 0 930 1000">
   <path fill="currentColor"
d="M810 344l-35 65c-139 -23 -267 -85 -323 -187c-56 104 -182 166 -324 190l-34 -67c175 -24 316 -112 316 -251v-22h84v27c0 134 143 222 316 245zM858 544h-218v106h36v28c0 93 54 182 159 218l-45 62c-76 -28 -128 -83 -155 -150c-30 68 -85 124 -161 154l-45 -62
c108 -42 167 -133 167 -220h-40v-136h-208v114h76v297h-81v-230h-220v-67h141v-114h-218v-65h812v65z" />
</svg>
