<?xml version="1.0" standalone="no"?>
<!DOCTYPE svg PUBLIC "-//W3C//DTD SVG 1.1//EN" "http://www.w3.org/Graphics/SVG/1.1/DTD/svg11.dtd" >
<svg xmlns="http://www.w3.org/2000/svg" xmlns:xlink="http://www.w3.org/1999/xlink" version="1.1" viewBox="-10 0 930 1000">
   <path fill="currentColor"
d="M810 344l-35 65c-139 -23 -267 -84 -323 -187c-56 105 -182 166 -324 190l-34 -67c175 -24 316 -111 316 -251v-22h84v27c0 135 143 222 316 245zM858 534h-218v96h146v67h-149v12c0 82 63 158 168 190l-41 60c-79 -26 -136 -76 -166 -139c-30 63 -89 119 -170 147
l-40 -60c-84 27 -180 33 -215 33h-47v-296h79v217c49 -3 137 -13 195 -40l20 71c85 -39 138 -109 138 -169v-26h-145v-67h143v-96h-208v134h-84v-134h-218v-66h812v66z" />
</svg>
