<?xml version="1.0" standalone="no"?>
<!DOCTYPE svg PUBLIC "-//W3C//DTD SVG 1.1//EN" "http://www.w3.org/Graphics/SVG/1.1/DTD/svg11.dtd" >
<svg xmlns="http://www.w3.org/2000/svg" xmlns:xlink="http://www.w3.org/1999/xlink" version="1.1" viewBox="-10 0 930 1000">
   <path fill="currentColor"
d="M821 306l-28 62c-143 -18 -278 -79 -334 -174c-57 95 -193 156 -336 174l-27 -62c163 -17 321 -103 321 -210v-34h84v34c0 107 156 193 320 210zM568 586v-94h-220v94h220zM864 492h-214v94h110v204h-527v90h554v64h-634v-214h526v-82h-529v-62h116v-94h-214v-66h812v66z
" />
</svg>
