<?xml version="1.0" standalone="no"?>
<!DOCTYPE svg PUBLIC "-//W3C//DTD SVG 1.1//EN" "http://www.w3.org/Graphics/SVG/1.1/DTD/svg11.dtd" >
<svg xmlns="http://www.w3.org/2000/svg" xmlns:xlink="http://www.w3.org/1999/xlink" version="1.1" viewBox="-10 0 930 1000">
   <path fill="currentColor"
d="M811 317l-35 64c-139 -19 -266 -75 -324 -169c-57 95 -184 152 -325 172l-35 -66c177 -20 318 -102 318 -224v-26h84v28c0 120 142 202 317 221zM209 787v99c92 0 152 -3 226 -16l8 62c-85 16 -152 18 -266 18h-47v-218h206v-86h-208v-64h286v205h-205zM586 646v238h72
v-238h-72zM724 646v238h61v65h-327v-65h62v-238h-58v-64h316v64h-54zM45 434h812v66h-812v-66z" />
</svg>
