<?xml version="1.0" standalone="no"?>
<!DOCTYPE svg PUBLIC "-//W3C//DTD SVG 1.1//EN" "http://www.w3.org/Graphics/SVG/1.1/DTD/svg11.dtd" >
<svg xmlns="http://www.w3.org/2000/svg" xmlns:xlink="http://www.w3.org/1999/xlink" version="1.1" viewBox="-10 0 930 1000">
   <path fill="currentColor"
d="M812 343l-36 64c-140 -23 -267 -84 -324 -188c-56 105 -183 167 -325 191l-36 -67c177 -24 319 -113 319 -251v-20h84v24c0 134 144 223 318 247zM764 718h-264c26 90 156 154 303 169l-28 62c-140 -17 -267 -73 -322 -164c-54 91 -181 147 -321 164l-27 -62
c147 -15 277 -79 302 -169h-264v-66h621v66zM45 482h812v66h-812v-66z" />
</svg>
