<?xml version="1.0" standalone="no"?>
<!DOCTYPE svg PUBLIC "-//W3C//DTD SVG 1.1//EN" "http://www.w3.org/Graphics/SVG/1.1/DTD/svg11.dtd" >
<svg xmlns="http://www.w3.org/2000/svg" xmlns:xlink="http://www.w3.org/1999/xlink" version="1.1" viewBox="-10 0 930 1000">
   <path fill="currentColor"
d="M601 329l-41 63c-100 -26 -176 -80 -214 -155c-35 86 -111 148 -213 179l-47 -64c132 -34 214 -123 214 -233v-34h87v36c0 99 84 178 214 208zM631 470l7 62c-181 18 -391 28 -569 30l-12 -71c183 -2 392 -8 574 -21zM174 717v-67h607v311h-83v-244h-524zM699 58h82v553
h-82v-553z" />
</svg>
