<?xml version="1.0" standalone="no"?>
<!DOCTYPE svg PUBLIC "-//W3C//DTD SVG 1.1//EN" "http://www.w3.org/Graphics/SVG/1.1/DTD/svg11.dtd" >
<svg xmlns="http://www.w3.org/2000/svg" xmlns:xlink="http://www.w3.org/1999/xlink" version="1.1" viewBox="-10 0 930 1000">
   <path fill="currentColor"
d="M601 329l-41 63c-100 -26 -176 -80 -214 -155c-35 86 -111 148 -213 179l-47 -64c132 -34 214 -123 214 -233v-34h87v36c0 99 84 178 214 208zM632 469l7 63c-181 18 -391 27 -570 29l-11 -72c184 -1 392 -7 574 -20zM157 716l-1 -65h296v305h-82v-240h-213zM493 716v-65
h288v305h-81v-240h-207zM699 58h82v544h-82v-544z" />
</svg>
