<?xml version="1.0" standalone="no"?>
<!DOCTYPE svg PUBLIC "-//W3C//DTD SVG 1.1//EN" "http://www.w3.org/Graphics/SVG/1.1/DTD/svg11.dtd" >
<svg xmlns="http://www.w3.org/2000/svg" xmlns:xlink="http://www.w3.org/1999/xlink" version="1.1" viewBox="-10 0 930 1000">
   <path fill="currentColor"
d="M781 58v553h-82v-553h82zM601 329l-41 63c-100 -26 -176 -80 -214 -155c-35 86 -111 148 -213 179l-47 -64c133 -34 214 -123 214 -233v-34h87v36c0 99 84 178 214 208zM632 471l7 62c-181 18 -391 27 -570 29l-11 -71c185 -2 392 -8 574 -20zM666 707v4
c0 85 62 157 167 188l-42 60c-78 -24 -134 -71 -164 -132c-31 61 -90 112 -170 137l-39 -57c-80 26 -170 32 -217 32h-47v-290h79v213c53 -3 138 -13 195 -41l21 70c86 -37 138 -103 138 -166v-18h-146v-67h373v67h-148z" />
</svg>
