<?xml version="1.0" standalone="no"?>
<!DOCTYPE svg PUBLIC "-//W3C//DTD SVG 1.1//EN" "http://www.w3.org/Graphics/SVG/1.1/DTD/svg11.dtd" >
<svg xmlns="http://www.w3.org/2000/svg" xmlns:xlink="http://www.w3.org/1999/xlink" version="1.1" viewBox="-10 0 930 1000">
   <path fill="currentColor"
d="M781 58v491h-82v-491h82zM599 297l-39 65c-101 -22 -179 -71 -218 -139c-36 78 -113 134 -214 162l-47 -63c133 -30 216 -111 216 -211v-32h87v37c0 86 85 157 215 181zM629 431l7 62c-181 20 -395 31 -571 32l-11 -69c181 -1 396 -10 575 -25zM269 884h540v64h-624v-216
h511v-78h-513v-63h598v201h-512v92z" />
</svg>
