<?xml version="1.0" standalone="no"?>
<!DOCTYPE svg PUBLIC "-//W3C//DTD SVG 1.1//EN" "http://www.w3.org/Graphics/SVG/1.1/DTD/svg11.dtd" >
<svg xmlns="http://www.w3.org/2000/svg" xmlns:xlink="http://www.w3.org/1999/xlink" version="1.1" viewBox="-10 0 930 1000">
   <path fill="currentColor"
d="M781 58v491h-82v-491h82zM599 297l-39 65c-101 -22 -179 -71 -218 -139c-36 78 -113 134 -214 162l-47 -63c133 -30 216 -111 216 -211v-32h87v37c0 86 84 157 215 181zM629 431l7 62c-181 20 -395 31 -571 32l-11 -69c181 -1 396 -10 575 -25zM706 591v69
c0 96 49 190 151 234l-45 61c-72 -33 -120 -90 -146 -160c-27 74 -77 133 -151 167l-41 -53l4 24c-80 16 -143 17 -268 17h-48v-210h218v-81h-220v-62h299v201h-217v91c102 0 158 -3 226 -17l5 27c102 -45 152 -141 152 -241v-67h81z" />
</svg>
