<?xml version="1.0" standalone="no"?>
<!DOCTYPE svg PUBLIC "-//W3C//DTD SVG 1.1//EN" "http://www.w3.org/Graphics/SVG/1.1/DTD/svg11.dtd" >
<svg xmlns="http://www.w3.org/2000/svg" xmlns:xlink="http://www.w3.org/1999/xlink" version="1.1" viewBox="-10 0 930 1000">
   <path fill="currentColor"
d="M782 58v520h-83v-520h83zM598 312l-40 65c-99 -24 -176 -74 -215 -144c-35 80 -113 139 -213 167l-48 -63c132 -30 215 -113 215 -215v-39h87v36c0 92 84 167 214 193zM629 446l7 63c-180 20 -395 31 -571 33l-11 -71c181 -2 397 -10 575 -25zM395 883v-105h-163v105h163
zM712 610v60c0 83 57 177 158 221l-45 62c-73 -32 -124 -89 -153 -156c-28 68 -81 125 -157 157l-43 -60v52h-317v-332h77v102h163v-102h77v274c102 -42 159 -134 159 -213v-65h81z" />
</svg>
