<?xml version="1.0" standalone="no"?>
<!DOCTYPE svg PUBLIC "-//W3C//DTD SVG 1.1//EN" "http://www.w3.org/Graphics/SVG/1.1/DTD/svg11.dtd" >
<svg xmlns="http://www.w3.org/2000/svg" xmlns:xlink="http://www.w3.org/1999/xlink" version="1.1" viewBox="-10 0 930 1000">
   <path fill="currentColor"
d="M782 57v613h-83v-613h83zM601 328l-41 63c-100 -25 -176 -79 -214 -154c-35 85 -111 148 -213 178l-47 -64c132 -33 214 -123 214 -232v-35h87v37c0 99 83 177 214 207zM632 480l7 64c-181 17 -391 27 -570 29l-11 -73c184 -1 392 -7 574 -20zM530 642v20
c0 119 131 201 303 224l-39 66c-134 -21 -252 -76 -306 -168c-56 92 -175 147 -313 168l-33 -68c176 -22 305 -102 305 -226v-16h83z" />
</svg>
