<?xml version="1.0" standalone="no"?>
<!DOCTYPE svg PUBLIC "-//W3C//DTD SVG 1.1//EN" "http://www.w3.org/Graphics/SVG/1.1/DTD/svg11.dtd" >
<svg xmlns="http://www.w3.org/2000/svg" xmlns:xlink="http://www.w3.org/1999/xlink" version="1.1" viewBox="-10 0 930 1000">
   <path fill="currentColor"
d="M781 58v564h-82v-564h82zM601 329l-41 63c-100 -26 -176 -80 -214 -155c-35 86 -111 148 -213 179l-47 -64c132 -34 214 -123 214 -233v-34h87v36c0 99 84 178 214 208zM632 471l7 62c-181 18 -391 27 -570 29l-11 -71c184 -2 392 -8 574 -20zM488 885
c138 0 215 -32 215 -92c0 -59 -77 -92 -215 -92c-137 0 -215 33 -215 92c0 60 78 92 215 92zM488 634c189 0 300 56 300 159s-111 160 -300 160c-188 0 -300 -57 -300 -160s112 -159 300 -159z" />
</svg>
