<?xml version="1.0" standalone="no"?>
<!DOCTYPE svg PUBLIC "-//W3C//DTD SVG 1.1//EN" "http://www.w3.org/Graphics/SVG/1.1/DTD/svg11.dtd" >
<svg xmlns="http://www.w3.org/2000/svg" xmlns:xlink="http://www.w3.org/1999/xlink" version="1.1" viewBox="-10 0 930 1000">
   <path fill="currentColor"
d="M781 58v539h-82v-539h82zM601 328l-41 64c-100 -26 -176 -80 -214 -155c-35 86 -111 148 -213 179l-47 -64c132 -34 214 -123 214 -233v-34h87v36c0 99 84 178 214 207zM639 457l6 60c-198 29 -414 35 -585 36l-12 -68c176 -1 399 -4 591 -28zM789 713h-258
c16 87 150 158 302 174l-28 63c-140 -17 -265 -75 -319 -160c-55 83 -179 143 -317 160l-27 -63c147 -16 282 -90 300 -174h-256v-65h603v65z" />
</svg>
