<?xml version="1.0" standalone="no"?>
<!DOCTYPE svg PUBLIC "-//W3C//DTD SVG 1.1//EN" "http://www.w3.org/Graphics/SVG/1.1/DTD/svg11.dtd" >
<svg xmlns="http://www.w3.org/2000/svg" xmlns:xlink="http://www.w3.org/1999/xlink" version="1.1" viewBox="-10 0 930 1000">
   <path fill="currentColor"
d="M781 57v535h-82v-535h82zM600 296l-41 66c-100 -23 -177 -72 -216 -140c-36 78 -112 136 -214 164l-43 -65c130 -29 212 -113 212 -213v-30h86v33c0 89 84 161 216 185zM640 426l4 58c-196 29 -414 35 -584 36l-12 -66c176 0 399 -4 592 -28zM803 727h-275
c25 78 152 142 300 157l-27 62c-140 -16 -264 -71 -319 -153c-55 83 -179 140 -318 156l-28 -63c150 -14 276 -80 300 -159h-277v-65h282v-95h82v95h280v65z" />
</svg>
