<?xml version="1.0" standalone="no"?>
<!DOCTYPE svg PUBLIC "-//W3C//DTD SVG 1.1//EN" "http://www.w3.org/Graphics/SVG/1.1/DTD/svg11.dtd" >
<svg xmlns="http://www.w3.org/2000/svg" xmlns:xlink="http://www.w3.org/1999/xlink" version="1.1" viewBox="-10 0 930 1000">
   <path fill="currentColor"
d="M781 58v553h-82v-553h82zM601 328l-41 64c-100 -26 -176 -80 -214 -155c-35 86 -111 148 -213 179l-47 -65c132 -33 214 -123 214 -232v-35h87v37c0 99 84 178 214 207zM632 463l7 63c-181 18 -391 27 -570 29l-11 -72c184 -1 392 -7 574 -20zM400 703v179h185v-179h-185
zM667 882h142v62h-635v-62h144v-179h-136v-63h618v63h-133v179z" />
</svg>
