<?xml version="1.0" standalone="no"?>
<!DOCTYPE svg PUBLIC "-//W3C//DTD SVG 1.1//EN" "http://www.w3.org/Graphics/SVG/1.1/DTD/svg11.dtd" >
<svg xmlns="http://www.w3.org/2000/svg" xmlns:xlink="http://www.w3.org/1999/xlink" version="1.1" viewBox="-10 0 930 1000">
   <path fill="currentColor"
d="M781 58v517h-84v-517h84zM580 463l-43 65c-100 -36 -178 -108 -218 -199c-38 104 -116 182 -222 223l-46 -68c138 -48 224 -166 224 -305v-78h84v88c0 118 89 230 221 274zM663 684v19c0 83 60 161 164 195l-42 60c-78 -27 -134 -80 -163 -145c-29 64 -89 122 -170 150
l-40 -56c-78 26 -169 31 -215 31h-48v-307h80v227c51 -3 136 -12 192 -40l22 71c85 -42 137 -111 137 -172v-33h-144v-67h373v67h-146z" />
</svg>
