<?xml version="1.0" standalone="no"?>
<!DOCTYPE svg PUBLIC "-//W3C//DTD SVG 1.1//EN" "http://www.w3.org/Graphics/SVG/1.1/DTD/svg11.dtd" >
<svg xmlns="http://www.w3.org/2000/svg" xmlns:xlink="http://www.w3.org/1999/xlink" version="1.1" viewBox="-10 0 930 1000">
   <path fill="currentColor"
d="M781 58v488h-84v-488h84zM587 424l-43 66c-100 -36 -177 -107 -218 -196c-38 102 -119 180 -226 219l-44 -66c139 -47 227 -163 227 -299v-56h83v63c0 116 90 225 221 269zM487 894c102 0 165 -21 165 -60c0 -40 -63 -61 -165 -61c-103 0 -165 21 -165 61
c0 39 62 60 165 60zM487 715c155 0 250 43 250 119c0 75 -95 118 -250 118s-250 -43 -250 -118c0 -76 95 -119 250 -119zM528 608h271v64h-625v-64h272v-83h82v83z" />
</svg>
