<?xml version="1.0" standalone="no"?>
<!DOCTYPE svg PUBLIC "-//W3C//DTD SVG 1.1//EN" "http://www.w3.org/Graphics/SVG/1.1/DTD/svg11.dtd" >
<svg xmlns="http://www.w3.org/2000/svg" xmlns:xlink="http://www.w3.org/1999/xlink" version="1.1" viewBox="-10 0 930 1000">
   <path fill="currentColor"
d="M648 423l-44 58c-68 -37 -110 -100 -134 -171c-19 72 -56 140 -123 180c-68 -42 -105 -114 -124 -188c-24 72 -66 140 -134 179l-43 -58c101 -59 138 -180 138 -267v-62h79v62c0 67 17 171 84 240c66 -67 84 -168 84 -240v-62h78v62c0 97 38 212 139 267zM216 785v102
c98 0 157 -3 230 -16l6 60c-83 16 -147 17 -268 17h-47v-221h209v-89h-212v-65h291v212h-209zM549 634v253h149v-253h-149zM479 948v-375h289v375h-289zM883 255v68h-115v201h-82v-466h82v197h115z" />
</svg>
