<?xml version="1.0" standalone="no"?>
<!DOCTYPE svg PUBLIC "-//W3C//DTD SVG 1.1//EN" "http://www.w3.org/Graphics/SVG/1.1/DTD/svg11.dtd" >
<svg xmlns="http://www.w3.org/2000/svg" xmlns:xlink="http://www.w3.org/1999/xlink" version="1.1" viewBox="-10 0 930 1000">
   <path fill="currentColor"
d="M647 327v202h-76v-456h76v187h101v-204h78v473h-78v-202h-101zM242 792v96c76 0 153 -3 251 -16l7 62c-113 15 -199 16 -283 16h-50v-217h233v-95h-235v-62h310v216h-233zM431 111v83c0 85 34 192 127 245l-42 59c-59 -34 -97 -89 -119 -151c-15 63 -46 123 -104 160
c-56 -38 -86 -100 -102 -161c-22 62 -60 118 -119 152l-42 -59c93 -53 127 -160 127 -245v-83h73v83c0 47 7 147 64 217c55 -67 63 -160 63 -217v-83h74zM602 885h245v63h-325v-373h312v63h-232v92h223v60h-223v95z" />
</svg>
