<?xml version="1.0" standalone="no"?>
<!DOCTYPE svg PUBLIC "-//W3C//DTD SVG 1.1//EN" "http://www.w3.org/Graphics/SVG/1.1/DTD/svg11.dtd" >
<svg xmlns="http://www.w3.org/2000/svg" xmlns:xlink="http://www.w3.org/1999/xlink" version="1.1" viewBox="-10 0 930 1000">
   <path fill="currentColor"
d="M647 359v223h-76v-507h76v217h101v-234h78v581h-78v-280h-101zM558 491l-42 59c-60 -35 -97 -94 -119 -159c-16 65 -46 128 -104 168c-56 -42 -87 -108 -102 -173c-22 64 -59 126 -118 162l-43 -57c95 -61 127 -185 127 -267v-99h73v99c0 53 7 160 64 236
c55 -72 63 -174 63 -236v-99h74v99c0 94 32 210 127 267zM561 608v39c0 120 145 221 308 246l-34 64c-136 -24 -262 -93 -316 -195c-57 102 -184 172 -323 196l-33 -65c165 -25 313 -125 313 -246v-39h85z" />
</svg>
