<?xml version="1.0" standalone="no"?>
<!DOCTYPE svg PUBLIC "-//W3C//DTD SVG 1.1//EN" "http://www.w3.org/Graphics/SVG/1.1/DTD/svg11.dtd" >
<svg xmlns="http://www.w3.org/2000/svg" xmlns:xlink="http://www.w3.org/1999/xlink" version="1.1" viewBox="-10 0 930 1000">
   <path fill="currentColor"
d="M647 356v227h-77v-509h77v215h101v-231h78v528h-78v-230h-101zM558 490l-42 60c-60 -36 -97 -94 -119 -159c-16 65 -46 128 -104 168c-56 -42 -87 -108 -102 -173c-22 64 -59 126 -118 162l-43 -58c95 -60 127 -184 127 -266v-99h73v99c0 53 7 160 64 236
c55 -72 63 -174 63 -236v-99h74v99c0 94 32 210 127 266zM831 691h-268c1 106 131 182 299 202l-33 63c-139 -19 -262 -76 -312 -167c-53 88 -174 148 -312 166l-31 -62c163 -20 297 -100 298 -202h-263v-68h622v68z" />
</svg>
