<?xml version="1.0" standalone="no"?>
<!DOCTYPE svg PUBLIC "-//W3C//DTD SVG 1.1//EN" "http://www.w3.org/Graphics/SVG/1.1/DTD/svg11.dtd" >
<svg xmlns="http://www.w3.org/2000/svg" xmlns:xlink="http://www.w3.org/1999/xlink" version="1.1" viewBox="-10 0 930 1000">
   <path fill="currentColor"
d="M638 472l-46 60c-68 -38 -110 -101 -135 -173c-19 72 -55 140 -121 182c-67 -43 -103 -114 -122 -186c-25 71 -67 138 -133 176l-47 -59c103 -57 142 -180 142 -270v-92h78v92c0 67 16 172 82 244c66 -70 82 -173 82 -244v-92h78v92c0 99 39 216 142 270zM255 695v182
h517v67h-599v-316h591v67h-509zM871 260h-115v130h114v68h-114v124h-82v-525h82v135h115v68z" />
</svg>
