<?xml version="1.0" standalone="no"?>
<!DOCTYPE svg PUBLIC "-//W3C//DTD SVG 1.1//EN" "http://www.w3.org/Graphics/SVG/1.1/DTD/svg11.dtd" >
<svg xmlns="http://www.w3.org/2000/svg" xmlns:xlink="http://www.w3.org/1999/xlink" version="1.1" viewBox="-10 0 930 1000">
   <path fill="currentColor"
d="M638 434l-46 59c-67 -37 -109 -100 -133 -170c-19 71 -56 140 -123 181c-66 -42 -103 -112 -122 -182c-25 69 -66 133 -132 171l-48 -59c102 -55 142 -175 142 -261v-67h78v67c0 64 16 166 82 235c66 -67 82 -167 82 -235v-67h78v67c0 90 40 206 142 261zM689 570v90
c0 97 51 191 156 234l-46 62c-73 -33 -122 -89 -149 -159c-27 74 -77 133 -154 165l-41 -52l4 23c-80 16 -141 17 -265 17h-48v-222h213v-89h-215v-64h294v212h-213v99c100 0 156 -2 225 -16l4 30c105 -45 156 -141 156 -242v-88h79zM756 344h116v68h-116v112h-82v-466h82
v110h115v68h-115v108z" />
</svg>
