<?xml version="1.0" standalone="no"?>
<!DOCTYPE svg PUBLIC "-//W3C//DTD SVG 1.1//EN" "http://www.w3.org/Graphics/SVG/1.1/DTD/svg11.dtd" >
<svg xmlns="http://www.w3.org/2000/svg" xmlns:xlink="http://www.w3.org/1999/xlink" version="1.1" viewBox="-10 0 930 1000">
   <path fill="currentColor"
d="M638 472l-46 60c-68 -38 -110 -101 -135 -173c-19 72 -55 140 -121 181c-67 -42 -103 -113 -122 -185c-25 71 -67 138 -133 176l-47 -59c103 -57 142 -180 142 -270v-92h78v92c0 67 16 172 82 244c66 -70 82 -173 82 -244v-92h78v92c0 99 39 216 142 270zM512 690
c0 108 130 184 294 204l-33 63c-135 -20 -257 -77 -307 -169c-52 90 -172 148 -307 168l-30 -63c159 -21 291 -99 292 -204h-259v-66h614v66zM871 260h-115v130h114v68h-114v124h-82v-525h82v135h115v68z" />
</svg>
