<?xml version="1.0" standalone="no"?>
<!DOCTYPE svg PUBLIC "-//W3C//DTD SVG 1.1//EN" "http://www.w3.org/Graphics/SVG/1.1/DTD/svg11.dtd" >
<svg xmlns="http://www.w3.org/2000/svg" xmlns:xlink="http://www.w3.org/1999/xlink" version="1.1" viewBox="-10 0 930 1000">
   <path fill="currentColor"
d="M748 264h-101v119h101v-119zM647 450v134h-76v-511h76v124h101v-139h78v556h-78v-164h-101zM555 491l-41 59c-58 -37 -91 -98 -111 -163c-17 68 -49 132 -107 173c-57 -42 -89 -109 -105 -176c-20 65 -54 128 -112 166l-41 -59c92 -64 117 -193 117 -274v-99h73v99
c0 57 9 168 69 245c57 -72 68 -177 68 -245v-99h73v99c0 84 24 212 117 274zM518 891c143 0 230 -37 230 -100s-87 -99 -230 -99c-141 0 -228 36 -228 99s87 100 228 100zM518 628c195 0 312 59 312 163c0 105 -117 163 -312 163c-193 0 -311 -58 -311 -163
c0 -104 118 -163 311 -163z" />
</svg>
