<?xml version="1.0" standalone="no"?>
<!DOCTYPE svg PUBLIC "-//W3C//DTD SVG 1.1//EN" "http://www.w3.org/Graphics/SVG/1.1/DTD/svg11.dtd" >
<svg xmlns="http://www.w3.org/2000/svg" xmlns:xlink="http://www.w3.org/1999/xlink" version="1.1" viewBox="-10 0 930 1000">
   <path fill="currentColor"
d="M722 587v-269h-142v-66h142v-194h82v529h-82zM648 478l-46 58c-67 -39 -108 -105 -132 -178c-19 74 -56 145 -123 187c-68 -43 -105 -117 -125 -192c-23 74 -64 143 -131 183l-45 -58c102 -63 138 -189 138 -278v-88h79v88c0 70 16 177 84 249c67 -70 84 -175 84 -249
v-88h78v88c0 100 36 219 139 278zM158 681v-67h305v344h-82v-277h-223zM719 602v77c0 87 54 179 159 218l-43 63c-78 -31 -130 -90 -157 -157c-30 69 -87 128 -168 158l-44 -62c112 -40 171 -133 171 -217v-80h82z" />
</svg>
