<?xml version="1.0" standalone="no"?>
<!DOCTYPE svg PUBLIC "-//W3C//DTD SVG 1.1//EN" "http://www.w3.org/Graphics/SVG/1.1/DTD/svg11.dtd" >
<svg xmlns="http://www.w3.org/2000/svg" xmlns:xlink="http://www.w3.org/1999/xlink" version="1.1" viewBox="-10 0 930 1000">
   <path fill="currentColor"
d="M722 523v-234h-124v-67h124v-164h82v465h-82zM648 428l-44 57c-68 -36 -110 -100 -134 -171c-19 72 -56 141 -123 181c-68 -42 -105 -115 -124 -189c-24 72 -66 141 -134 179l-43 -57c101 -59 138 -181 138 -267v-63h79v63c0 67 17 170 84 240c66 -68 84 -168 84 -240
v-63h78v63c0 96 37 212 139 267zM714 564v90c0 97 49 190 153 234l-45 61c-74 -32 -122 -88 -148 -157c-27 72 -78 131 -154 164l-45 -59l5 30c-82 17 -146 18 -278 18h-48v-222h226v-89h-229v-64h308v213h-226v98c108 0 167 -2 237 -17l5 29c107 -43 158 -139 158 -241v-88
h81z" />
</svg>
