<?xml version="1.0" standalone="no"?>
<!DOCTYPE svg PUBLIC "-//W3C//DTD SVG 1.1//EN" "http://www.w3.org/Graphics/SVG/1.1/DTD/svg11.dtd" >
<svg xmlns="http://www.w3.org/2000/svg" xmlns:xlink="http://www.w3.org/1999/xlink" version="1.1" viewBox="-10 0 930 1000">
   <path fill="currentColor"
d="M648 473l-46 59c-67 -39 -108 -105 -132 -178c-19 74 -56 145 -123 188c-68 -44 -105 -118 -125 -193c-23 74 -64 143 -131 183l-45 -59c102 -62 138 -188 138 -277v-86h79v86c0 70 16 177 84 249c67 -70 84 -175 84 -249v-86h78v86c0 100 36 219 139 277zM182 692v-67
h622v331h-82v-119l-547 25l-11 -66l558 -20v-84h-540zM722 58h82v529h-82v-269h-140v-66h140v-194z" />
</svg>
