<?xml version="1.0" standalone="no"?>
<!DOCTYPE svg PUBLIC "-//W3C//DTD SVG 1.1//EN" "http://www.w3.org/Graphics/SVG/1.1/DTD/svg11.dtd" >
<svg xmlns="http://www.w3.org/2000/svg" xmlns:xlink="http://www.w3.org/1999/xlink" version="1.1" viewBox="-10 0 930 1000">
   <path fill="currentColor"
d="M823 57v562h-78v-562h78zM589 588v-262h-103v-67h103v-183h77v512h-77zM555 493l-41 59c-58 -37 -91 -98 -111 -163c-17 68 -49 133 -107 173c-57 -42 -89 -108 -105 -175c-21 65 -54 127 -112 165l-41 -59c92 -64 117 -194 117 -273v-100h73v100c0 55 9 167 69 244
c57 -73 68 -177 68 -244v-100h73v100c0 84 24 211 117 273zM516 891c143 0 229 -37 229 -100s-86 -99 -229 -99c-144 0 -231 36 -231 99s87 100 231 100zM516 628c195 0 312 59 312 163c0 105 -117 163 -312 163c-196 0 -314 -58 -314 -163c0 -104 118 -163 314 -163z" />
</svg>
