<?xml version="1.0" standalone="no"?>
<!DOCTYPE svg PUBLIC "-//W3C//DTD SVG 1.1//EN" "http://www.w3.org/Graphics/SVG/1.1/DTD/svg11.dtd" >
<svg xmlns="http://www.w3.org/2000/svg" xmlns:xlink="http://www.w3.org/1999/xlink" version="1.1" viewBox="-10 0 930 1000">
   <path fill="currentColor"
d="M823 57v527h-78v-527h78zM589 546v-254h-97v-67h97v-150h76v471h-76zM558 439l-41 58c-60 -33 -98 -88 -120 -149c-15 62 -46 122 -104 159c-57 -38 -87 -102 -103 -163c-21 60 -59 117 -118 152l-42 -57c93 -56 127 -169 127 -245v-82h73v82c0 47 7 147 64 217
c55 -66 63 -159 63 -217v-82h74v82c0 86 34 192 127 245zM826 717h-260c19 90 146 165 289 184l-30 63c-131 -20 -251 -84 -304 -173c-53 90 -174 153 -306 173l-30 -63c143 -18 273 -94 291 -184h-260v-65h264v-95h82v95h264v65z" />
</svg>
