<?xml version="1.0" standalone="no"?>
<!DOCTYPE svg PUBLIC "-//W3C//DTD SVG 1.1//EN" "http://www.w3.org/Graphics/SVG/1.1/DTD/svg11.dtd" >
<svg xmlns="http://www.w3.org/2000/svg" xmlns:xlink="http://www.w3.org/1999/xlink" version="1.1" viewBox="-10 0 930 1000">
   <path fill="currentColor"
d="M722 581v-183h-143v-67h143v-89h-143v-67h143v-117h82v523h-82zM648 475l-46 59c-69 -37 -112 -101 -137 -175c-19 73 -55 143 -122 184c-66 -43 -103 -114 -121 -187c-25 71 -68 137 -135 175l-47 -58c104 -57 144 -180 144 -271v-91h78v91c0 68 16 173 82 245
c66 -70 81 -173 81 -245v-91h79v91c0 102 40 217 144 273zM158 681v-67h305v344h-82v-277h-223zM719 602v77c0 87 54 179 159 218l-43 63c-78 -31 -130 -90 -157 -157c-30 69 -87 128 -168 158l-44 -62c112 -40 171 -133 171 -217v-80h82z" />
</svg>
