<?xml version="1.0" standalone="no"?>
<!DOCTYPE svg PUBLIC "-//W3C//DTD SVG 1.1//EN" "http://www.w3.org/Graphics/SVG/1.1/DTD/svg11.dtd" >
<svg xmlns="http://www.w3.org/2000/svg" xmlns:xlink="http://www.w3.org/1999/xlink" version="1.1" viewBox="-10 0 930 1000">
   <path fill="currentColor"
d="M823 57v524h-78v-524h78zM589 577v-195h-91v-64h91v-81h-91v-64h91v-99h77v503h-77zM546 478l-43 58c-56 -35 -92 -90 -113 -149c-15 61 -45 122 -102 159c-56 -38 -86 -101 -101 -163c-21 60 -57 117 -115 152l-41 -57c90 -57 123 -170 123 -246v-112h73v112
c0 48 6 145 61 216c53 -66 61 -158 61 -216v-112h74v112c0 80 33 190 123 246zM697 690v14c0 90 61 163 169 194l-42 61c-82 -26 -140 -77 -169 -143c-31 67 -92 120 -176 146l-39 -56c-80 26 -173 32 -222 32h-46v-300h78v230c55 -3 143 -13 203 -41l19 62
c89 -37 141 -106 141 -185v-14h-149v-67h383v67h-150z" />
</svg>
