<?xml version="1.0" standalone="no"?>
<!DOCTYPE svg PUBLIC "-//W3C//DTD SVG 1.1//EN" "http://www.w3.org/Graphics/SVG/1.1/DTD/svg11.dtd" >
<svg xmlns="http://www.w3.org/2000/svg" xmlns:xlink="http://www.w3.org/1999/xlink" version="1.1" viewBox="-10 0 930 1000">
   <path fill="currentColor"
d="M829 56v484h-77v-484h77zM592 533v-155h-82v-65h82v-77h-82v-65h82v-97h77v459h-77zM557 440l-43 58c-57 -35 -94 -90 -115 -151c-15 63 -45 124 -102 161c-56 -38 -86 -101 -101 -163c-21 61 -59 118 -118 153l-42 -58c93 -56 127 -169 127 -245v-83h73v83
c0 47 7 146 63 216c52 -66 60 -160 60 -216v-83h73v83c0 79 34 190 125 245zM295 879h565v66h-647v-224h533v-88h-536v-64h619v213h-534v97z" />
</svg>
