<?xml version="1.0" standalone="no"?>
<!DOCTYPE svg PUBLIC "-//W3C//DTD SVG 1.1//EN" "http://www.w3.org/Graphics/SVG/1.1/DTD/svg11.dtd" >
<svg xmlns="http://www.w3.org/2000/svg" xmlns:xlink="http://www.w3.org/1999/xlink" version="1.1" viewBox="-10 0 930 1000">
   <path fill="currentColor"
d="M587 534v-156h-83v-65h83v-77h-83v-65h83v-96h77v459h-77zM551 440l-42 57c-58 -34 -95 -89 -116 -150c-15 63 -45 123 -101 161c-56 -39 -86 -101 -101 -163c-21 61 -59 118 -118 152l-42 -58c93 -55 127 -168 127 -244v-83h73v83c0 47 7 146 62 216
c52 -66 60 -159 60 -216v-83h73v83c0 79 34 190 125 245zM232 791v97c99 0 162 -2 243 -15l8 61c-93 15 -162 16 -281 16h-50v-218h222v-94h-224v-64h304v217h-222zM748 884v-118h-166v118h166zM748 702v-128h75v375h-316v-375h75v128h166zM745 57h78v484h-78v-484z" />
</svg>
