<?xml version="1.0" standalone="no"?>
<!DOCTYPE svg PUBLIC "-//W3C//DTD SVG 1.1//EN" "http://www.w3.org/Graphics/SVG/1.1/DTD/svg11.dtd" >
<svg xmlns="http://www.w3.org/2000/svg" xmlns:xlink="http://www.w3.org/1999/xlink" version="1.1" viewBox="-10 0 930 1000">
   <path fill="currentColor"
d="M589 570v-188h-91v-64h91v-81h-91v-64h91v-97h77v494h-77zM546 478l-42 58c-57 -35 -93 -90 -114 -149c-15 61 -45 122 -102 159c-56 -38 -86 -101 -101 -163c-21 60 -57 117 -115 152l-41 -57c90 -57 123 -170 123 -246v-112h73v112c0 48 6 145 61 216
c53 -66 61 -158 61 -216v-112h74v112c0 80 33 190 123 246zM193 692v-67h630v331h-82v-119l-557 26l-12 -67l569 -20v-84h-548zM745 58h78v521h-78v-521z" />
</svg>
