<?xml version="1.0" standalone="no"?>
<!DOCTYPE svg PUBLIC "-//W3C//DTD SVG 1.1//EN" "http://www.w3.org/Graphics/SVG/1.1/DTD/svg11.dtd" >
<svg xmlns="http://www.w3.org/2000/svg" xmlns:xlink="http://www.w3.org/1999/xlink" version="1.1" viewBox="-10 0 930 1000">
   <path fill="currentColor"
d="M839 314l-38 60c-86 -28 -144 -86 -172 -153c-29 62 -85 120 -171 149c-86 -30 -143 -90 -171 -152c-28 66 -86 126 -171 156l-39 -60c108 -37 168 -125 168 -193v-53h82v53c0 55 47 129 131 171c85 -40 131 -114 131 -171v-53h81v53c0 77 60 159 169 193zM204 805v82
c107 0 164 -2 237 -15l7 61c-81 15 -144 16 -273 16h-48v-203h203v-77h-205v-61h282v197h-203zM626 908c49 0 82 -20 82 -52c0 -31 -33 -51 -82 -51c-48 0 -81 20 -81 51c0 32 33 52 81 52zM626 753c87 0 152 39 152 103c0 65 -65 105 -152 105c-86 0 -151 -40 -151 -105
c0 -64 65 -103 151 -103zM666 582v78h150v61h-377v-61h147v-78h80zM501 463h364v65h-811v-65h364v-84h83v84z" />
</svg>
