<?xml version="1.0" standalone="no"?>
<!DOCTYPE svg PUBLIC "-//W3C//DTD SVG 1.1//EN" "http://www.w3.org/Graphics/SVG/1.1/DTD/svg11.dtd" >
<svg xmlns="http://www.w3.org/2000/svg" xmlns:xlink="http://www.w3.org/1999/xlink" version="1.1" viewBox="-10 0 930 1000">
   <path fill="currentColor"
d="M634 352l-41 59c-68 -30 -112 -84 -135 -144c-17 54 -50 106 -112 136c-61 -30 -93 -81 -110 -134c-25 59 -68 112 -136 141l-40 -59c94 -39 138 -126 138 -202v-57h78v57c0 50 14 123 70 171c56 -47 71 -120 71 -171v-57h79v57c0 76 44 163 138 203zM636 471l6 61
c-198 32 -415 36 -582 37l-11 -68c77 0 165 -1 256 -4v-84h82v80c85 -4 169 -10 249 -22zM222 650v221c56 -2 128 -10 192 -32l14 67c-89 28 -176 34 -243 34h-44v-290h81zM615 908c54 0 94 -17 94 -47c0 -29 -40 -46 -94 -46c-55 0 -94 17 -94 46c0 30 39 47 94 47z
M615 762c97 0 166 39 166 99c0 61 -69 100 -166 100s-166 -39 -166 -100c0 -60 69 -99 166 -99zM655 596v75h180v61h-440v-61h181v-75h79zM763 317h116v70h-116v194h-82v-523h82v259z" />
</svg>
