<?xml version="1.0" standalone="no"?>
<!DOCTYPE svg PUBLIC "-//W3C//DTD SVG 1.1//EN" "http://www.w3.org/Graphics/SVG/1.1/DTD/svg11.dtd" >
<svg xmlns="http://www.w3.org/2000/svg" xmlns:xlink="http://www.w3.org/1999/xlink" version="1.1" viewBox="-10 0 930 1000">
   <path fill="currentColor"
d="M634 352l-40 59c-68 -30 -112 -83 -136 -144c-17 55 -50 107 -112 136c-61 -29 -93 -80 -110 -134c-25 60 -68 112 -136 141l-40 -58c94 -40 138 -126 138 -203v-57h78v57c0 51 14 124 70 171c56 -47 71 -120 71 -171v-57h79v57c0 76 44 163 138 203zM636 469l6 61
c-198 33 -415 36 -582 37l-11 -68c77 0 165 -1 256 -4v-86h82v82c85 -4 169 -10 249 -22zM248 718v160h525v66h-607v-292h597v66h-515zM764 317h115v70h-115v233h-82v-562h82v259z" />
</svg>
