<?xml version="1.0" standalone="no"?>
<!DOCTYPE svg PUBLIC "-//W3C//DTD SVG 1.1//EN" "http://www.w3.org/Graphics/SVG/1.1/DTD/svg11.dtd" >
<svg xmlns="http://www.w3.org/2000/svg" xmlns:xlink="http://www.w3.org/1999/xlink" version="1.1" viewBox="-10 0 930 1000">
   <path fill="currentColor"
d="M634 351l-40 60c-68 -30 -112 -84 -136 -144c-17 54 -50 106 -112 136c-61 -30 -93 -81 -110 -134c-25 59 -68 112 -136 141l-40 -59c94 -39 138 -126 138 -202v-57h78v57c0 50 14 123 70 170c56 -47 71 -120 71 -170v-57h79v57c0 75 44 163 138 202zM618 470l7 57
c-195 36 -414 39 -573 39l-9 -65c77 0 168 0 262 -4v-89h82v85c79 -4 158 -11 231 -23zM777 719h-251c18 85 144 152 291 168l-27 63c-137 -17 -260 -74 -311 -159c-51 85 -174 142 -311 159l-28 -63c146 -16 274 -83 292 -168h-253v-64h598v64zM756 284h125v70h-125v247
h-82v-544h82v227z" />
</svg>
