<?xml version="1.0" standalone="no"?>
<!DOCTYPE svg PUBLIC "-//W3C//DTD SVG 1.1//EN" "http://www.w3.org/Graphics/SVG/1.1/DTD/svg11.dtd" >
<svg xmlns="http://www.w3.org/2000/svg" xmlns:xlink="http://www.w3.org/1999/xlink" version="1.1" viewBox="-10 0 930 1000">
   <path fill="currentColor"
d="M643 369v199h-77v-494h77v228h93v-244h78v509h-78v-198h-93zM538 357l-40 57c-57 -29 -90 -78 -107 -131c-16 49 -47 96 -101 124c-53 -28 -83 -73 -100 -122c-18 52 -49 100 -105 129l-41 -57c84 -43 109 -136 109 -204v-53h73v53c0 49 12 121 64 170
c52 -49 64 -121 64 -170v-53h74v53c0 68 24 160 110 204zM524 478l6 59c-150 24 -344 30 -473 30l-11 -67c58 0 130 -1 205 -3v-86h77v82c69 -3 136 -7 196 -15zM234 660v211c58 -2 130 -10 196 -33l14 67c-89 29 -177 34 -246 34h-45v-279h81zM634 908c55 0 93 -17 93 -46
s-38 -47 -93 -47s-94 18 -94 47s39 46 94 46zM634 763c96 0 166 39 166 99s-70 99 -166 99s-166 -39 -166 -99s70 -99 166 -99zM675 669h178v61h-439v-61h181v-66h80v66z" />
</svg>
