<?xml version="1.0" standalone="no"?>
<!DOCTYPE svg PUBLIC "-//W3C//DTD SVG 1.1//EN" "http://www.w3.org/Graphics/SVG/1.1/DTD/svg11.dtd" >
<svg xmlns="http://www.w3.org/2000/svg" xmlns:xlink="http://www.w3.org/1999/xlink" version="1.1" viewBox="-10 0 930 1000">
   <path fill="currentColor"
d="M625 354v193h-78v-474h78v214h104v-230h79v496h-79v-199h-104zM503 448l7 60c-144 24 -333 30 -454 30l-11 -67c56 0 126 -1 200 -3v-84h32c-48 -28 -76 -72 -92 -119c-18 52 -49 100 -105 128l-41 -56c84 -43 109 -135 109 -203v-39h73v39c0 50 13 122 65 170
c51 -48 64 -120 64 -170v-39h74v39c0 68 25 160 109 203l-41 57c-56 -29 -89 -78 -106 -130c-15 46 -43 90 -92 119h30v80c63 -3 125 -8 179 -15zM231 799v89c96 0 154 -3 226 -17l8 62c-83 15 -146 17 -265 17h-48v-207h201v-81h-203v-61h282v198h-201zM649 906
c49 0 82 -22 82 -58s-33 -58 -82 -58c-48 0 -81 22 -81 58s33 58 81 58zM649 734c88 0 152 44 152 114s-64 114 -152 114c-87 0 -151 -44 -151 -114s64 -114 151 -114zM689 646h146v61h-371v-61h145v-77h80v77z" />
</svg>
