<?xml version="1.0" standalone="no"?>
<!DOCTYPE svg PUBLIC "-//W3C//DTD SVG 1.1//EN" "http://www.w3.org/Graphics/SVG/1.1/DTD/svg11.dtd" >
<svg xmlns="http://www.w3.org/2000/svg" xmlns:xlink="http://www.w3.org/1999/xlink" version="1.1" viewBox="-10 0 930 1000">
   <path fill="currentColor"
d="M507 473l6 58c-145 25 -334 30 -457 31l-11 -68c57 0 128 -1 202 -3v-105h27c-46 -28 -73 -71 -88 -116c-19 52 -50 100 -106 129l-41 -56c84 -44 109 -136 109 -204v-39h73v39c0 50 13 122 65 170c51 -48 64 -120 64 -170v-39h74v39c0 68 25 160 109 204l-40 56
c-57 -29 -89 -78 -106 -130c-16 45 -43 88 -90 117h28v101c64 -3 128 -7 182 -14zM726 881v-99h-453v99h453zM726 718v-101h82v329h-617v-329h82v101h453zM729 57h79v525h-79v-228h-104v222h-78v-503h78v214h104v-230z" />
</svg>
