<?xml version="1.0" standalone="no"?>
<!DOCTYPE svg PUBLIC "-//W3C//DTD SVG 1.1//EN" "http://www.w3.org/Graphics/SVG/1.1/DTD/svg11.dtd" >
<svg xmlns="http://www.w3.org/2000/svg" xmlns:xlink="http://www.w3.org/1999/xlink" version="1.1" viewBox="-10 0 930 1000">
   <path fill="currentColor"
d="M625 360v210h-78v-497h78v219h104v-235h79v518h-79v-215h-104zM504 461l7 59c-144 24 -334 30 -456 30l-10 -68c55 0 127 -1 200 -3v-88h36c-52 -28 -81 -73 -97 -121c-18 53 -50 101 -105 129l-41 -56c84 -43 109 -136 109 -204v-39h73v39c0 49 13 121 65 170
c51 -49 64 -121 64 -170v-39h74v39c0 68 25 160 109 204l-41 56c-56 -28 -89 -77 -106 -131c-16 49 -45 94 -97 123h36v84c63 -3 126 -7 180 -14zM402 885v-112h-165v112h165zM402 712v-101h77v338h-319v-338h77v101h165zM724 606v53c0 88 56 185 158 233l-46 64
c-72 -34 -123 -93 -151 -162c-28 71 -82 129 -158 161l-46 -65c104 -42 162 -135 162 -225v-59h81z" />
</svg>
