<?xml version="1.0" standalone="no"?>
<!DOCTYPE svg PUBLIC "-//W3C//DTD SVG 1.1//EN" "http://www.w3.org/Graphics/SVG/1.1/DTD/svg11.dtd" >
<svg xmlns="http://www.w3.org/2000/svg" xmlns:xlink="http://www.w3.org/1999/xlink" version="1.1" viewBox="-10 0 930 1000">
   <path fill="currentColor"
d="M643 369v236h-77v-530h77v227h93v-244h78v552h-78v-241h-93zM539 357l-41 56c-56 -29 -89 -78 -106 -130c-17 49 -48 96 -102 123c-53 -27 -82 -73 -99 -122c-18 52 -49 100 -105 129l-41 -56c84 -44 109 -136 109 -204v-53h73v53c0 50 12 122 63 170
c52 -48 65 -120 65 -170v-53h74v53c0 68 25 160 110 204zM524 486l5 57c-154 29 -347 31 -473 32l-11 -66c58 0 130 0 206 -3v-88h78v85c67 -4 135 -8 195 -17zM692 646v22c0 90 67 179 181 214l-39 61c-88 -30 -150 -89 -182 -161c-26 72 -80 136 -165 169
c-85 -33 -139 -97 -166 -168c-32 71 -94 130 -181 160l-40 -61c114 -37 182 -125 182 -214v-22h79v22c0 74 41 158 125 205c85 -48 127 -133 127 -205v-22h79z" />
</svg>
