<?xml version="1.0" standalone="no"?>
<!DOCTYPE svg PUBLIC "-//W3C//DTD SVG 1.1//EN" "http://www.w3.org/Graphics/SVG/1.1/DTD/svg11.dtd" >
<svg xmlns="http://www.w3.org/2000/svg" xmlns:xlink="http://www.w3.org/1999/xlink" version="1.1" viewBox="-10 0 930 1000">
   <path fill="currentColor"
d="M640 321l-39 59c-71 -28 -115 -81 -140 -141c-17 52 -49 102 -110 131c-61 -28 -94 -78 -111 -129c-24 60 -68 112 -137 140l-40 -58c94 -38 139 -121 139 -194v-44h77v42c0 48 16 117 72 161c56 -44 71 -113 71 -161v-42h79v44c0 72 45 154 139 192zM646 433l7 58
c-198 30 -416 36 -588 37l-11 -66c79 0 166 -2 256 -5v-81h82v77c86 -3 173 -10 254 -20zM249 796v91c104 0 179 -2 275 -17l6 61c-107 17 -190 18 -309 18h-53v-211h219v-81h-221v-61h302v200h-219zM505 662v-67h283v360h-82v-293h-201zM707 58h82v496h-82v-496z" />
</svg>
