<?xml version="1.0" standalone="no"?>
<!DOCTYPE svg PUBLIC "-//W3C//DTD SVG 1.1//EN" "http://www.w3.org/Graphics/SVG/1.1/DTD/svg11.dtd" >
<svg xmlns="http://www.w3.org/2000/svg" xmlns:xlink="http://www.w3.org/1999/xlink" version="1.1" viewBox="-10 0 930 1000">
   <path fill="currentColor"
d="M789 58v494h-82v-494h82zM640 321l-39 59c-71 -28 -115 -81 -140 -141c-17 52 -49 102 -110 131c-61 -28 -94 -78 -111 -129c-24 60 -68 111 -137 140l-40 -58c94 -38 139 -121 139 -194v-44h77v42c0 48 16 117 72 161c56 -44 71 -113 71 -161v-42h79v44
c0 72 45 154 139 192zM646 432l7 59c-198 29 -416 35 -588 36l-11 -66c79 0 166 -1 256 -5v-84h82v81c86 -4 172 -10 254 -21zM706 591v67c0 97 49 190 151 234l-45 61c-73 -33 -120 -90 -146 -161c-27 73 -77 132 -152 165l-41 -54l5 30c-80 16 -143 17 -268 17h-48v-210
h219v-81h-221v-62h299v201h-219v91c103 0 161 -3 228 -17l4 23c102 -44 153 -139 153 -237v-67h81z" />
</svg>
