<?xml version="1.0" standalone="no"?>
<!DOCTYPE svg PUBLIC "-//W3C//DTD SVG 1.1//EN" "http://www.w3.org/Graphics/SVG/1.1/DTD/svg11.dtd" >
<svg xmlns="http://www.w3.org/2000/svg" xmlns:xlink="http://www.w3.org/1999/xlink" version="1.1" viewBox="-10 0 930 1000">
   <path fill="currentColor"
d="M790 59v573h-82v-573h82zM648 347l-39 60c-69 -29 -114 -81 -139 -139c-17 52 -50 103 -111 131c-62 -28 -95 -78 -112 -130c-25 57 -70 109 -139 137l-39 -58c94 -37 140 -120 140 -193v-60h78v60c0 48 15 118 72 163c55 -45 71 -115 71 -163v-60h78v60
c0 73 46 156 140 192zM655 482l6 60c-201 27 -418 33 -596 34l-12 -68c83 0 172 -1 265 -4v-92h82v89c86 -4 173 -9 255 -19zM528 635v24c0 118 135 204 298 227l-37 65c-131 -23 -249 -84 -302 -178c-54 95 -175 155 -312 179l-33 -66c167 -23 303 -109 303 -227v-24h83z
" />
</svg>
