<?xml version="1.0" standalone="no"?>
<!DOCTYPE svg PUBLIC "-//W3C//DTD SVG 1.1//EN" "http://www.w3.org/Graphics/SVG/1.1/DTD/svg11.dtd" >
<svg xmlns="http://www.w3.org/2000/svg" xmlns:xlink="http://www.w3.org/1999/xlink" version="1.1" viewBox="-10 0 930 1000">
   <path fill="currentColor"
d="M789 58v492h-82v-492h82zM640 321l-39 59c-71 -28 -115 -81 -140 -141c-17 52 -49 102 -110 131c-61 -28 -94 -78 -111 -129c-24 60 -68 112 -137 140l-40 -58c94 -38 139 -121 139 -194v-44h77v42c0 48 16 117 72 161c56 -44 71 -113 71 -161v-42h79v44
c0 72 45 154 139 192zM646 433l7 59c-198 30 -416 36 -588 37l-11 -67c79 0 166 -1 256 -5v-82h82v79c86 -4 173 -10 254 -21zM269 883h540v64h-622v-352h603v64h-521v81h510v59h-510v84z" />
</svg>
