<?xml version="1.0" standalone="no"?>
<!DOCTYPE svg PUBLIC "-//W3C//DTD SVG 1.1//EN" "http://www.w3.org/Graphics/SVG/1.1/DTD/svg11.dtd" >
<svg xmlns="http://www.w3.org/2000/svg" xmlns:xlink="http://www.w3.org/1999/xlink" version="1.1" viewBox="-10 0 930 1000">
   <path fill="currentColor"
d="M836 343l-40 61c-87 -30 -145 -89 -173 -158c-30 63 -86 123 -171 152c-86 -30 -143 -91 -172 -156c-28 68 -87 130 -173 162l-40 -61c111 -38 172 -132 172 -203v-64h81v64c0 58 47 137 132 180c85 -42 131 -118 131 -180v-64h82v64c0 80 59 168 171 203zM135 739l1 -67
h619v288h-82v-221h-538zM634 514h226v67h-814v-67h223v-138h83v138h200v-138h82v138z" />
</svg>
