<?xml version="1.0" standalone="no"?>
<!DOCTYPE svg PUBLIC "-//W3C//DTD SVG 1.1//EN" "http://www.w3.org/Graphics/SVG/1.1/DTD/svg11.dtd" >
<svg xmlns="http://www.w3.org/2000/svg" xmlns:xlink="http://www.w3.org/1999/xlink" version="1.1" viewBox="-10 0 930 1000">
   <path fill="currentColor"
d="M842 342l-39 61c-88 -30 -146 -89 -175 -159c-29 64 -85 124 -170 153c-86 -29 -142 -91 -171 -155c-28 68 -87 129 -173 161l-40 -60c111 -39 171 -132 171 -203v-65h82v65c0 57 47 135 132 180c84 -43 130 -119 130 -180v-65h81v65c0 80 60 167 172 202zM225 648v217
c49 -2 118 -8 189 -26l12 67c-99 24 -184 28 -237 28h-44v-286h80zM607 910c51 0 87 -18 87 -48c0 -29 -36 -47 -87 -47s-87 18 -87 47c0 30 36 48 87 48zM607 765c90 0 157 38 157 97c0 61 -67 98 -157 98s-157 -37 -157 -98c0 -59 67 -97 157 -97zM647 597v77h161v61h-404
v-61h163v-77h80zM641 490h226v68h-815v-68h224v-127h82v127h201v-127h82v127z" />
</svg>
