<?xml version="1.0" standalone="no"?>
<!DOCTYPE svg PUBLIC "-//W3C//DTD SVG 1.1//EN" "http://www.w3.org/Graphics/SVG/1.1/DTD/svg11.dtd" >
<svg xmlns="http://www.w3.org/2000/svg" xmlns:xlink="http://www.w3.org/1999/xlink" version="1.1" viewBox="-10 0 930 1000">
   <path fill="currentColor"
d="M840 313l-39 59c-87 -28 -144 -86 -172 -153c-29 62 -85 120 -171 149c-87 -30 -143 -90 -171 -152c-28 66 -86 126 -171 156l-39 -59c107 -38 168 -126 168 -194v-53h82v53c0 55 46 130 131 171c85 -39 131 -113 131 -171v-53h81v53c0 77 60 159 170 194zM677 589v65
c0 97 49 190 152 233l-45 62c-72 -32 -120 -88 -147 -157c-27 73 -77 131 -152 164l-41 -55l3 27c-78 15 -137 16 -261 16h-47v-207h211v-74h-213v-61h290v191h-211v88c101 0 156 -2 223 -15l3 26c104 -44 155 -137 155 -238v-65h80zM640 457h226v66h-814v-66h223v-122h82
v122h201v-122h82v122z" />
</svg>
