<?xml version="1.0" standalone="no"?>
<!DOCTYPE svg PUBLIC "-//W3C//DTD SVG 1.1//EN" "http://www.w3.org/Graphics/SVG/1.1/DTD/svg11.dtd" >
<svg xmlns="http://www.w3.org/2000/svg" xmlns:xlink="http://www.w3.org/1999/xlink" version="1.1" viewBox="-10 0 930 1000">
   <path fill="currentColor"
d="M843 342l-40 61c-88 -30 -146 -89 -175 -159c-29 64 -85 123 -170 153c-86 -30 -142 -91 -171 -155c-28 68 -87 129 -173 161l-40 -61c111 -38 171 -131 171 -202v-65h82v65c0 57 47 135 132 179c84 -42 130 -118 130 -179v-65h81v65c0 80 60 167 173 202zM661 621v43
c0 95 65 192 182 231l-43 61c-85 -32 -146 -92 -178 -165c-27 75 -79 141 -162 176c-84 -35 -137 -100 -163 -176c-33 72 -95 129 -180 160l-42 -60c117 -39 184 -133 184 -227v-43h79v43c0 83 39 169 121 220c82 -52 122 -139 122 -220v-43h80zM641 500h226v67h-815v-67
h223v-125h82v125h202v-125h82v125z" />
</svg>
