<?xml version="1.0" standalone="no"?>
<!DOCTYPE svg PUBLIC "-//W3C//DTD SVG 1.1//EN" "http://www.w3.org/Graphics/SVG/1.1/DTD/svg11.dtd" >
<svg xmlns="http://www.w3.org/2000/svg" xmlns:xlink="http://www.w3.org/1999/xlink" version="1.1" viewBox="-10 0 930 1000">
   <path fill="currentColor"
d="M841 352l-40 61c-85 -31 -143 -91 -171 -161c-29 71 -85 137 -171 171c-89 -35 -146 -103 -173 -175c-29 68 -87 132 -171 164l-41 -60c111 -41 171 -138 171 -213v-64h82v64c0 65 45 153 132 203c85 -49 130 -134 130 -203v-64h81v64c0 83 59 175 171 213zM215 644v225
c56 -2 128 -10 193 -32l13 67c-88 29 -175 34 -243 34h-44v-294h81zM613 911c55 0 94 -18 94 -47s-39 -46 -94 -46c-54 0 -93 17 -93 46s39 47 93 47zM613 767c97 0 166 38 166 97c0 60 -69 97 -166 97c-96 0 -165 -37 -165 -97c0 -59 69 -97 165 -97zM652 596v77h178v61
h-440v-61h182v-77h80zM53 472h814v65h-367v95h-83v-95h-364v-65z" />
</svg>
