<?xml version="1.0" standalone="no"?>
<!DOCTYPE svg PUBLIC "-//W3C//DTD SVG 1.1//EN" "http://www.w3.org/Graphics/SVG/1.1/DTD/svg11.dtd" >
<svg xmlns="http://www.w3.org/2000/svg" xmlns:xlink="http://www.w3.org/1999/xlink" version="1.1" viewBox="-10 0 930 1000">
   <path fill="currentColor"
d="M841 354l-40 61c-86 -31 -143 -92 -171 -162c-29 72 -85 139 -171 171c-89 -34 -145 -103 -173 -175c-29 70 -87 132 -171 165l-41 -60c111 -41 171 -139 171 -214v-65h82v65c0 65 45 154 132 204c85 -49 130 -135 130 -204v-65h81v65c0 83 59 176 171 214zM866 544h-366
v115h266v67h-532v149h541v67h-623v-283h265v-115h-365v-67h814v67z" />
</svg>
