<?xml version="1.0" standalone="no"?>
<!DOCTYPE svg PUBLIC "-//W3C//DTD SVG 1.1//EN" "http://www.w3.org/Graphics/SVG/1.1/DTD/svg11.dtd" >
<svg xmlns="http://www.w3.org/2000/svg" xmlns:xlink="http://www.w3.org/1999/xlink" version="1.1" viewBox="-10 0 930 1000">
   <path fill="currentColor"
d="M840 313l-39 60c-84 -29 -143 -86 -171 -153c-28 69 -85 132 -171 163c-88 -32 -145 -97 -173 -165c-29 65 -87 125 -170 155l-40 -60c109 -39 169 -129 169 -199v-49h82v49c0 61 46 144 132 190c85 -45 130 -125 130 -190v-49h81v49c0 78 60 163 170 199zM864 495h-364
v88h260v207h-527v90h554v64h-634v-215h526v-84h-529v-62h268v-88h-366v-66h812v66z" />
</svg>
