<?xml version="1.0" standalone="no"?>
<!DOCTYPE svg PUBLIC "-//W3C//DTD SVG 1.1//EN" "http://www.w3.org/Graphics/SVG/1.1/DTD/svg11.dtd" >
<svg xmlns="http://www.w3.org/2000/svg" xmlns:xlink="http://www.w3.org/1999/xlink" version="1.1" viewBox="-10 0 930 1000">
   <path fill="currentColor"
d="M628 315l-37 61c-67 -28 -109 -78 -133 -134c-18 54 -52 106 -117 135c-63 -29 -98 -80 -116 -134c-23 55 -65 105 -131 132l-40 -59c92 -35 133 -118 133 -185v-48h77v48c0 50 19 121 77 165c59 -44 77 -115 77 -165v-48h79v48c0 67 40 149 131 184zM295 622v-137
c-84 3 -165 5 -237 5l-10 -69c174 0 394 -4 587 -23l6 61c-86 10 -176 18 -264 23v140h-82zM171 734v-67h616v290h-83v-223h-533zM705 56h82v573h-82v-53h-185v-58h185v-462z" />
</svg>
