<?xml version="1.0" standalone="no"?>
<!DOCTYPE svg PUBLIC "-//W3C//DTD SVG 1.1//EN" "http://www.w3.org/Graphics/SVG/1.1/DTD/svg11.dtd" >
<svg xmlns="http://www.w3.org/2000/svg" xmlns:xlink="http://www.w3.org/1999/xlink" version="1.1" viewBox="-10 0 930 1000">
   <path fill="currentColor"
d="M516 489h188v-431h82v528h-82v-42h-188v-55zM339 359c-60 -27 -95 -76 -113 -126c-24 52 -65 99 -130 125l-39 -58c92 -35 133 -114 133 -180v-31h74v31c0 49 19 117 76 161c56 -44 75 -112 75 -161v-31h79v31c0 66 41 145 131 179l-37 59c-69 -26 -111 -75 -133 -130
c-18 53 -52 103 -115 131v1zM287 585v-120c-79 3 -158 5 -230 5l-12 -69c182 -1 394 -6 579 -20l6 60c-83 8 -172 15 -261 20v124h-82zM221 805v83c98 0 155 -3 227 -17l8 62c-82 16 -146 17 -266 17h-47v-198h205v-79h-207v-58h286v190h-206zM636 908c48 0 82 -19 82 -51
c0 -31 -34 -51 -82 -51c-49 0 -83 20 -83 51c0 32 34 51 83 51zM636 755c86 0 151 38 151 102s-65 103 -151 103c-87 0 -152 -39 -152 -103s65 -102 152 -102zM677 667h147v61h-370v-61h143v-82h80v82z" />
</svg>
