<?xml version="1.0" standalone="no"?>
<!DOCTYPE svg PUBLIC "-//W3C//DTD SVG 1.1//EN" "http://www.w3.org/Graphics/SVG/1.1/DTD/svg11.dtd" >
<svg xmlns="http://www.w3.org/2000/svg" xmlns:xlink="http://www.w3.org/1999/xlink" version="1.1" viewBox="-10 0 930 1000">
   <path fill="currentColor"
d="M516 513h188v-456h81v561h-81v-44h-188v-61zM343 364c-60 -27 -95 -76 -113 -127c-24 53 -65 100 -130 126l-39 -58c92 -35 133 -115 133 -180v-37h74v37c0 48 19 116 76 160c56 -44 75 -112 75 -160v-37h78v37c0 64 41 144 132 178l-37 60c-68 -27 -110 -76 -133 -130
c-18 53 -52 103 -115 131v1zM287 620v-141c-79 3 -158 5 -230 6l-12 -70c185 -1 398 -6 585 -20l7 61c-85 9 -177 15 -268 19v145h-82zM395 884v-92h-167v92h167zM711 638v35c0 82 58 174 159 217l-45 63c-73 -31 -125 -88 -153 -154c-29 67 -83 124 -159 156l-41 -59v52
h-322v-306h78v89h167v-89h77v246c102 -42 158 -133 158 -213v-37h81z" />
</svg>
