<?xml version="1.0" standalone="no"?>
<!DOCTYPE svg PUBLIC "-//W3C//DTD SVG 1.1//EN" "http://www.w3.org/Graphics/SVG/1.1/DTD/svg11.dtd" >
<svg xmlns="http://www.w3.org/2000/svg" xmlns:xlink="http://www.w3.org/1999/xlink" version="1.1" viewBox="-10 0 930 1000">
   <path fill="currentColor"
d="M512 532h193v-475h82v647h-82v-110h-193v-62zM628 316l-37 61c-67 -28 -109 -78 -133 -134c-18 54 -53 106 -117 134c-64 -28 -98 -79 -116 -133c-23 55 -65 105 -131 132l-40 -59c92 -36 133 -118 133 -185v-48h77v48c0 50 19 121 77 165c59 -44 77 -115 77 -165v-48h79
v48c0 67 40 148 131 184zM278 675v-174c-79 3 -154 4 -221 4l-11 -69c173 -1 395 -4 587 -23l6 61c-90 11 -186 19 -279 23v178h-82zM537 634v29c0 124 133 209 297 232l-37 63c-132 -24 -249 -84 -302 -181c-53 96 -175 159 -309 182l-34 -64c166 -24 302 -112 302 -232
v-29h83z" />
</svg>
