<?xml version="1.0" standalone="no"?>
<!DOCTYPE svg PUBLIC "-//W3C//DTD SVG 1.1//EN" "http://www.w3.org/Graphics/SVG/1.1/DTD/svg11.dtd" >
<svg xmlns="http://www.w3.org/2000/svg" xmlns:xlink="http://www.w3.org/1999/xlink" version="1.1" viewBox="-10 0 930 1000">
   <path fill="currentColor"
d="M516 497h188v-439h81v558h-81v-62h-188v-57zM339 359c-61 -27 -95 -76 -113 -127c-24 53 -65 100 -130 126l-39 -58c92 -35 133 -115 133 -180v-32h74v32c0 49 19 117 76 160c56 -43 75 -111 75 -160v-32h79v32c0 65 41 145 131 179l-37 59c-69 -26 -111 -76 -133 -130
c-18 52 -53 103 -115 131v1zM287 604v-137c-82 3 -159 5 -230 5l-12 -64c176 -1 391 -4 578 -21l7 56c-84 9 -173 16 -261 21v140h-82zM492 903c105 0 166 -14 166 -42s-61 -41 -166 -41c-107 0 -168 13 -168 41s61 42 168 42zM492 768c159 0 252 31 252 93
c0 63 -93 94 -252 94c-161 0 -253 -31 -253 -94c0 -62 92 -93 253 -93zM533 664h278v62h-639v-62h279v-73h82v73z" />
</svg>
