<?xml version="1.0" standalone="no"?>
<!DOCTYPE svg PUBLIC "-//W3C//DTD SVG 1.1//EN" "http://www.w3.org/Graphics/SVG/1.1/DTD/svg11.dtd" >
<svg xmlns="http://www.w3.org/2000/svg" xmlns:xlink="http://www.w3.org/1999/xlink" version="1.1" viewBox="-10 0 930 1000">
   <path fill="currentColor"
d="M822 58v533h-77v-533h77zM425 494h164v-418h76v514h-76v-40h-164v-56zM295 379c-54 -32 -83 -84 -98 -134c-21 50 -56 94 -112 121l-41 -55c84 -39 118 -121 118 -193v-24h73v24c0 34 8 116 60 173c51 -53 60 -130 60 -173v-24h74v24c0 63 33 149 119 190l-40 57
c-56 -27 -92 -72 -112 -122c-16 52 -44 104 -100 136v1zM257 583v-115c-70 4 -137 6 -195 6l-10 -67c140 -1 342 -7 488 -23l5 59c-64 8 -136 15 -209 20v120h-79zM239 812v80c98 0 155 -3 227 -17l8 61c-82 16 -146 18 -266 18h-47v-195h205v-74h-207v-58h286v185h-206z
M662 917c49 0 82 -17 82 -45c0 -29 -33 -46 -82 -46s-83 17 -83 46c0 28 34 45 83 45zM662 774c87 0 152 37 152 98c0 60 -65 97 -152 97s-152 -37 -152 -97c0 -61 65 -98 152 -98zM703 682h147v61h-375v-61h149v-72h79v72z" />
</svg>
