<?xml version="1.0" standalone="no"?>
<!DOCTYPE svg PUBLIC "-//W3C//DTD SVG 1.1//EN" "http://www.w3.org/Graphics/SVG/1.1/DTD/svg11.dtd" >
<svg xmlns="http://www.w3.org/2000/svg" xmlns:xlink="http://www.w3.org/1999/xlink" version="1.1" viewBox="-10 0 930 1000">
   <path fill="currentColor"
d="M822 58v650h-76v-650h76zM419 530h166v-455h75v568h-75v-53h-166v-60zM547 330l-39 58c-57 -29 -92 -76 -113 -129c-15 53 -45 105 -99 137c-54 -32 -84 -84 -99 -136c-21 53 -55 99 -111 126l-42 -56c85 -39 118 -126 118 -199v-33h73v33c0 34 8 117 62 175
c51 -54 59 -131 59 -175v-33h73v33c0 66 31 156 118 199zM251 674v-178c-70 3 -136 4 -190 4l-10 -66c128 0 329 -2 481 -25l5 58c-66 13 -138 21 -209 25v182h-77zM551 671v18c0 106 138 180 301 199l-29 62c-135 -18 -258 -71 -313 -158c-55 86 -178 140 -316 158l-28 -62
c166 -19 303 -93 303 -199v-18h82z" />
</svg>
