<?xml version="1.0" standalone="no"?>
<!DOCTYPE svg PUBLIC "-//W3C//DTD SVG 1.1//EN" "http://www.w3.org/Graphics/SVG/1.1/DTD/svg11.dtd" >
<svg xmlns="http://www.w3.org/2000/svg" xmlns:xlink="http://www.w3.org/1999/xlink" version="1.1" viewBox="-10 0 930 1000">
   <path fill="currentColor"
d="M822 58v573h-77v-573h77zM416 539h167v-463h76v551h-76v-31h-167v-57zM548 330l-40 58c-57 -29 -92 -76 -113 -129c-15 53 -45 105 -99 137c-54 -32 -84 -84 -99 -136c-21 53 -55 99 -111 126l-42 -56c85 -39 118 -125 118 -199v-33h73v33c0 34 8 117 62 175
c51 -54 59 -131 59 -175v-33h73v33c0 66 32 156 119 199zM250 627v-126c-68 3 -134 5 -189 5l-11 -69c135 -1 336 -7 481 -25l6 61c-65 10 -136 18 -209 23v131h-78zM695 661v21c0 92 68 183 186 219l-43 60c-86 -30 -149 -87 -182 -159c-27 74 -80 139 -162 173
c-83 -33 -137 -98 -164 -172c-34 71 -96 128 -182 158l-41 -60c116 -38 185 -129 185 -219v-21h79v21c0 79 40 163 122 212c82 -50 123 -134 123 -212v-21h79z" />
</svg>
