<?xml version="1.0" standalone="no"?>
<!DOCTYPE svg PUBLIC "-//W3C//DTD SVG 1.1//EN" "http://www.w3.org/Graphics/SVG/1.1/DTD/svg11.dtd" >
<svg xmlns="http://www.w3.org/2000/svg" xmlns:xlink="http://www.w3.org/1999/xlink" version="1.1" viewBox="-10 0 930 1000">
   <path fill="currentColor"
d="M822 57v592h-77v-592h77zM416 527h167v-451h76v550h-76v-42h-167v-57zM548 330l-40 58c-57 -29 -92 -76 -113 -129c-15 53 -45 105 -100 137c-53 -32 -83 -84 -98 -136c-21 53 -55 99 -111 126l-42 -56c85 -39 118 -125 118 -199v-33h73v33c0 34 8 117 61 175
c51 -54 60 -131 60 -175v-33h73v33c0 66 32 156 119 199zM250 626v-125c-68 3 -134 5 -189 5l-11 -69c135 -1 336 -7 481 -25l6 61c-64 10 -136 18 -209 23v130h-78zM514 887c148 0 232 -30 232 -84s-85 -84 -233 -84s-233 30 -233 84s85 84 234 84zM513 655
c200 0 319 53 319 148s-119 147 -319 147c-199 0 -318 -52 -318 -147s119 -148 318 -148z" />
</svg>
