<?xml version="1.0" standalone="no"?>
<!DOCTYPE svg PUBLIC "-//W3C//DTD SVG 1.1//EN" "http://www.w3.org/Graphics/SVG/1.1/DTD/svg11.dtd" >
<svg xmlns="http://www.w3.org/2000/svg" xmlns:xlink="http://www.w3.org/1999/xlink" version="1.1" viewBox="-10 0 930 1000">
   <path fill="currentColor"
d="M784 58v505h-82v-505h82zM339 375c-60 -27 -95 -76 -113 -127c-24 53 -65 100 -130 126l-39 -59c92 -34 133 -114 133 -179v-35h74v35c0 48 19 116 76 159c56 -43 75 -111 75 -159v-35h78v35c0 64 42 144 132 177l-37 61c-69 -27 -111 -76 -133 -131
c-18 53 -52 104 -115 132v1zM217 801v87c100 0 159 -3 232 -17l8 62c-83 15 -148 17 -270 17h-48v-205h206v-79h-208v-61h161v-105c-84 3 -164 5 -239 6l-12 -70c182 -1 394 -7 579 -21l7 62c-81 9 -167 14 -253 19v109h44v196h-207zM635 903c50 0 83 -21 83 -56
s-33 -56 -83 -56c-49 0 -81 21 -81 56s32 56 81 56zM635 736c88 0 153 43 153 111s-65 110 -153 110c-87 0 -151 -42 -151 -110s64 -111 151 -111zM675 637h147v61h-371v-61h144v-79h80v79z" />
</svg>
