<?xml version="1.0" standalone="no"?>
<!DOCTYPE svg PUBLIC "-//W3C//DTD SVG 1.1//EN" "http://www.w3.org/Graphics/SVG/1.1/DTD/svg11.dtd" >
<svg xmlns="http://www.w3.org/2000/svg" xmlns:xlink="http://www.w3.org/1999/xlink" version="1.1" viewBox="-10 0 930 1000">
   <path fill="currentColor"
d="M787 56v570h-82v-570h82zM628 333l-37 61c-67 -28 -109 -78 -133 -134c-18 54 -53 106 -117 135c-64 -29 -98 -80 -116 -134c-23 55 -65 105 -131 132l-40 -59c92 -35 133 -118 133 -185v-49h77v49c0 50 19 121 77 165c59 -44 77 -115 77 -165v-49h79v49
c0 67 40 149 131 184zM301 632v-113c-86 3 -169 5 -243 5l-10 -69c174 -1 394 -4 587 -23l6 61c-83 10 -171 17 -258 22v117h-82zM682 658v24c0 88 67 173 182 208l-39 60c-88 -29 -152 -85 -183 -156c-27 70 -82 132 -165 164c-85 -32 -140 -93 -167 -164
c-31 70 -95 127 -182 156l-38 -60c113 -36 181 -121 181 -208v-24h78v24c0 72 44 154 127 199c83 -46 126 -128 126 -199v-24h80z" />
</svg>
