<?xml version="1.0" standalone="no"?>
<!DOCTYPE svg PUBLIC "-//W3C//DTD SVG 1.1//EN" "http://www.w3.org/Graphics/SVG/1.1/DTD/svg11.dtd" >
<svg xmlns="http://www.w3.org/2000/svg" xmlns:xlink="http://www.w3.org/1999/xlink" version="1.1" viewBox="-10 0 930 1000">
   <path fill="currentColor"
d="M787 56v561h-82v-561h82zM628 333l-37 60c-67 -28 -109 -78 -133 -133c-18 53 -53 105 -117 134c-64 -29 -98 -80 -116 -133c-23 54 -65 104 -131 131l-40 -58c92 -36 133 -119 133 -186v-49h77v49c0 50 19 121 77 165c59 -44 77 -115 77 -165v-49h79v49
c0 67 40 149 131 185zM792 732h-262c18 94 139 158 293 175l-31 62c-136 -18 -257 -71 -308 -159c-53 89 -175 140 -311 158l-31 -61c154 -17 276 -79 294 -175h-256v-65h125v-136c-87 3 -172 5 -247 5l-10 -69c174 -1 394 -4 587 -23l6 61c-82 10 -168 17 -254 22v140h405
v65z" />
</svg>
