<?xml version="1.0" standalone="no"?>
<!DOCTYPE svg PUBLIC "-//W3C//DTD SVG 1.1//EN" "http://www.w3.org/Graphics/SVG/1.1/DTD/svg11.dtd" >
<svg xmlns="http://www.w3.org/2000/svg" xmlns:xlink="http://www.w3.org/1999/xlink" version="1.1" viewBox="-10 0 930 1000">
   <path fill="currentColor"
d="M786 58v536h-79v-536h79zM339 375c-61 -27 -95 -76 -113 -127c-24 53 -65 100 -130 126l-39 -59c92 -34 133 -114 133 -179v-35h74v35c0 48 19 116 76 159c56 -43 75 -111 75 -159v-35h78v35c0 64 42 144 132 177l-37 61c-69 -27 -111 -76 -133 -131
c-18 53 -53 104 -115 132v1zM302 585v-102c-84 2 -166 2 -241 2l-11 -66c181 0 400 -1 596 -19l5 58c-88 10 -179 17 -267 22v105h-82zM492 913c104 0 167 -18 167 -52s-63 -52 -167 -52c-105 0 -168 18 -168 52s63 52 168 52zM492 754c159 0 252 38 252 107
c0 70 -93 108 -252 108c-160 0 -253 -38 -253 -108c0 -69 93 -107 253 -107zM533 645h279v63h-639v-63h278v-86h82v86z" />
</svg>
