<?xml version="1.0" standalone="no"?>
<!DOCTYPE svg PUBLIC "-//W3C//DTD SVG 1.1//EN" "http://www.w3.org/Graphics/SVG/1.1/DTD/svg11.dtd" >
<svg xmlns="http://www.w3.org/2000/svg" xmlns:xlink="http://www.w3.org/1999/xlink" version="1.1" viewBox="-10 0 930 1000">
   <path fill="currentColor"
d="M855 401l-38 61c-86 -33 -143 -93 -172 -164c-28 73 -85 140 -172 174c-88 -35 -144 -104 -172 -177c-29 69 -86 132 -170 166l-41 -60c111 -43 170 -143 170 -219v-91h82v91c0 67 44 157 131 209c87 -51 131 -138 131 -209v-91h82v91c0 85 58 179 169 219zM878 560v67
h-205v329h-82v-329h-238v329h-83v-329h-202v-67h810z" />
</svg>
