<?xml version="1.0" standalone="no"?>
<!DOCTYPE svg PUBLIC "-//W3C//DTD SVG 1.1//EN" "http://www.w3.org/Graphics/SVG/1.1/DTD/svg11.dtd" >
<svg xmlns="http://www.w3.org/2000/svg" xmlns:xlink="http://www.w3.org/1999/xlink" version="1.1" viewBox="-10 0 930 1000">
   <path fill="currentColor"
d="M842 355l-41 60c-85 -30 -143 -91 -171 -161c-29 72 -85 138 -172 171c-88 -35 -144 -103 -172 -175c-29 69 -86 132 -171 164l-40 -59c110 -41 170 -139 170 -214v-66h82v66c0 65 45 153 131 204c86 -49 131 -135 131 -204v-66h81v66c0 83 59 175 172 214zM557 669v-128
h-210v128h210zM867 541h-228v128h123v290h-82v-224h-538v-66h123v-128h-212v-67h814v67z" />
</svg>
