<?xml version="1.0" standalone="no"?>
<!DOCTYPE svg PUBLIC "-//W3C//DTD SVG 1.1//EN" "http://www.w3.org/Graphics/SVG/1.1/DTD/svg11.dtd" >
<svg xmlns="http://www.w3.org/2000/svg" xmlns:xlink="http://www.w3.org/1999/xlink" version="1.1" viewBox="-10 0 930 1000">
   <path fill="currentColor"
d="M842 355l-41 60c-86 -30 -143 -91 -171 -161c-29 72 -85 138 -172 171c-88 -35 -144 -103 -172 -175c-29 69 -86 132 -171 164l-40 -59c111 -42 170 -140 170 -214v-66h82v66c0 65 45 153 131 204c86 -49 131 -135 131 -204v-66h81v66c0 83 59 175 172 214zM866 537h-227
v102h147v66h-148v13c0 77 64 147 171 177l-40 61c-82 -24 -142 -74 -172 -136c-31 61 -90 113 -168 139l-36 -52c-85 29 -184 35 -221 35h-46v-298h78v226c49 -4 138 -14 197 -41l17 58c86 -38 140 -108 140 -169v-13h-145v-66h144v-102h-209v132h-82v-132h-213v-67h813v67z
" />
</svg>
