<?xml version="1.0" standalone="no"?>
<!DOCTYPE svg PUBLIC "-//W3C//DTD SVG 1.1//EN" "http://www.w3.org/Graphics/SVG/1.1/DTD/svg11.dtd" >
<svg xmlns="http://www.w3.org/2000/svg" xmlns:xlink="http://www.w3.org/1999/xlink" version="1.1" viewBox="-10 0 930 1000">
   <path fill="currentColor"
d="M841 351l-40 60c-86 -30 -143 -91 -171 -161c-29 72 -85 138 -172 172c-88 -35 -144 -104 -172 -176c-29 69 -86 133 -171 165l-40 -60c111 -41 170 -139 170 -214v-62h82v62c0 66 45 153 131 204c86 -49 131 -135 131 -204v-62h81v62c0 83 59 175 171 214zM205 665v211
c55 -2 128 -10 194 -33l13 67c-88 29 -176 34 -242 34h-45v-279h80zM610 916c55 0 95 -18 95 -48c0 -28 -40 -46 -95 -46c-54 0 -93 18 -93 46c0 30 39 48 93 48zM610 773c97 0 167 37 167 95c0 60 -70 96 -167 96c-95 0 -165 -36 -165 -96c0 -58 70 -95 165 -95zM649 681
h182v58h-440v-58h178v-43h-2v-104h-231v121h-82v-121h-201v-64h813v64h-217v147z" />
</svg>
