<?xml version="1.0" standalone="no"?>
<!DOCTYPE svg PUBLIC "-//W3C//DTD SVG 1.1//EN" "http://www.w3.org/Graphics/SVG/1.1/DTD/svg11.dtd" >
<svg xmlns="http://www.w3.org/2000/svg" xmlns:xlink="http://www.w3.org/1999/xlink" version="1.1" viewBox="-10 0 930 1000">
   <path fill="currentColor"
d="M839 322l-38 59c-85 -28 -143 -85 -171 -152c-28 69 -85 132 -172 163c-88 -33 -144 -97 -172 -165c-29 65 -86 124 -170 154l-39 -59c108 -39 168 -130 168 -199v-53h82v53c0 61 45 144 131 190c86 -45 131 -126 131 -190v-53h81v53c0 78 60 163 169 199zM597 616h-32
v-112h-200v103h62v191h-211v88c101 0 156 -2 223 -15l3 26c104 -44 155 -137 155 -238v-43zM863 504h-216v91h30v65c0 96 49 189 152 232l-46 62c-72 -32 -120 -88 -146 -157c-27 73 -78 131 -152 164l-41 -55l3 27c-78 15 -137 16 -261 16h-47v-207h211v-74h-213v-61h146
v-103h-230v-66h810v66z" />
</svg>
