<?xml version="1.0" standalone="no"?>
<!DOCTYPE svg PUBLIC "-//W3C//DTD SVG 1.1//EN" "http://www.w3.org/Graphics/SVG/1.1/DTD/svg11.dtd" >
<svg xmlns="http://www.w3.org/2000/svg" xmlns:xlink="http://www.w3.org/1999/xlink" version="1.1" viewBox="-10 0 930 1000">
   <path fill="currentColor"
d="M839 322l-38 59c-84 -28 -143 -85 -171 -152c-28 69 -84 132 -171 163c-88 -33 -145 -97 -173 -165c-29 65 -87 124 -170 154l-40 -59c109 -39 169 -130 169 -199v-53h82v53c0 61 46 144 132 190c86 -45 130 -126 130 -190v-53h81v53c0 78 60 163 169 199zM624 904
c48 0 81 -21 81 -55s-33 -55 -81 -55s-81 21 -81 55s33 55 81 55zM624 742c86 0 151 41 151 107c0 67 -65 108 -151 108s-150 -41 -150 -108c0 -66 64 -107 150 -107zM863 504h-213v83h14v61h149v60h-377v-60h147v-33h-15v-111h-208v98h51v196h-201v89c108 0 165 -2 237 -16
l8 62c-82 15 -143 16 -274 16h-49v-208h201v-80h-203v-59h148v-98h-226v-66h811v66z" />
</svg>
