<?xml version="1.0" standalone="no"?>
<!DOCTYPE svg PUBLIC "-//W3C//DTD SVG 1.1//EN" "http://www.w3.org/Graphics/SVG/1.1/DTD/svg11.dtd" >
<svg xmlns="http://www.w3.org/2000/svg" xmlns:xlink="http://www.w3.org/1999/xlink" version="1.1" viewBox="-10 0 930 1000">
   <path fill="currentColor"
d="M841 355l-40 61c-85 -31 -142 -91 -171 -161c-28 71 -84 137 -171 171c-89 -35 -146 -103 -173 -175c-29 68 -87 132 -171 164l-40 -60c110 -41 170 -138 170 -213v-64h82v64c0 65 45 153 131 204c86 -49 131 -135 131 -204v-63h81v63c0 84 59 175 171 213zM218 646v223
c49 -2 118 -9 189 -27l12 67c-99 24 -184 28 -237 28h-44v-291h80zM601 909c51 0 87 -19 87 -48c0 -30 -36 -48 -87 -48s-87 18 -87 48c0 29 36 48 87 48zM601 761c90 0 157 39 157 100s-67 99 -157 99s-157 -38 -157 -99s67 -100 157 -100zM641 596v74h161v61h-404v-61h163
v-74h80zM53 485h814v66h-814v-66z" />
</svg>
