<?xml version="1.0" standalone="no"?>
<!DOCTYPE svg PUBLIC "-//W3C//DTD SVG 1.1//EN" "http://www.w3.org/Graphics/SVG/1.1/DTD/svg11.dtd" >
<svg xmlns="http://www.w3.org/2000/svg" xmlns:xlink="http://www.w3.org/1999/xlink" version="1.1" viewBox="-10 0 930 1000">
   <path fill="currentColor"
d="M839 331l-38 61c-85 -29 -143 -86 -171 -153c-28 68 -85 131 -172 162c-87 -32 -144 -97 -172 -165c-29 65 -86 125 -170 156l-39 -61c108 -38 168 -129 168 -198v-53h82v53c0 62 46 143 131 190c86 -46 131 -125 131 -190v-53h81v53c0 78 60 163 169 198zM457 912
c111 0 176 -22 176 -60c0 -39 -65 -61 -176 -61c-112 0 -177 22 -177 61c0 38 65 60 177 60zM457 738c165 0 261 40 261 114c0 73 -96 113 -261 113c-166 0 -262 -40 -262 -113c0 -74 96 -114 262 -114zM498 544v81h291v63h-664v-63h291v-81h82zM53 454h811v64h-811v-64z
" />
</svg>
