<?xml version="1.0" standalone="no"?>
<!DOCTYPE svg PUBLIC "-//W3C//DTD SVG 1.1//EN" "http://www.w3.org/Graphics/SVG/1.1/DTD/svg11.dtd" >
<svg xmlns="http://www.w3.org/2000/svg" xmlns:xlink="http://www.w3.org/1999/xlink" version="1.1" viewBox="-10 0 930 1000">
   <path fill="currentColor"
d="M790 59v545h-82v-545h82zM652 350l-39 60c-68 -28 -113 -78 -137 -134c-17 56 -51 112 -114 143c-63 -31 -97 -86 -113 -142c-24 55 -69 105 -136 133l-40 -59c93 -36 139 -120 139 -191v-65h78v65c0 52 15 127 72 175c57 -48 72 -123 72 -175v-65h79v65
c0 71 45 154 139 190zM653 459l6 61c-201 28 -418 34 -596 34l-11 -68c183 0 406 -4 601 -27zM144 713v-67h304v309h-82v-242h-222zM702 636v44c0 86 55 177 158 215l-44 63c-78 -31 -128 -87 -156 -155c-30 69 -85 127 -162 159l-45 -64c110 -41 167 -136 167 -223v-39h82z
" />
</svg>
