<?xml version="1.0" standalone="no"?>
<!DOCTYPE svg PUBLIC "-//W3C//DTD SVG 1.1//EN" "http://www.w3.org/Graphics/SVG/1.1/DTD/svg11.dtd" >
<svg xmlns="http://www.w3.org/2000/svg" xmlns:xlink="http://www.w3.org/1999/xlink" version="1.1" viewBox="-10 0 930 1000">
   <path fill="currentColor"
d="M790 59v545h-82v-545h82zM652 350l-39 60c-68 -28 -113 -78 -137 -134c-17 56 -51 112 -114 143c-63 -31 -97 -86 -113 -142c-24 55 -69 105 -136 133l-40 -59c93 -36 139 -119 139 -190v-66h78v66c0 51 15 126 72 174c57 -48 72 -123 72 -174v-66h79v66
c0 71 45 153 139 189zM653 463l6 61c-201 27 -418 33 -596 34l-11 -68c183 -1 406 -5 601 -27zM272 876h529v68h-611v-294h603v67h-521v159z" />
</svg>
