<?xml version="1.0" standalone="no"?>
<!DOCTYPE svg PUBLIC "-//W3C//DTD SVG 1.1//EN" "http://www.w3.org/Graphics/SVG/1.1/DTD/svg11.dtd" >
<svg xmlns="http://www.w3.org/2000/svg" xmlns:xlink="http://www.w3.org/1999/xlink" version="1.1" viewBox="-10 0 930 1000">
   <path fill="currentColor"
d="M798 57v657h-82v-657h82zM653 514l-45 59c-68 -39 -109 -105 -133 -179c-20 74 -57 146 -125 188c-69 -43 -106 -117 -125 -193c-24 74 -66 143 -133 184l-46 -59c104 -62 140 -188 140 -277v-117h79v117c0 70 17 178 86 250c67 -70 84 -175 84 -250v-117h78v117
c0 100 37 219 140 277zM281 867h536v67h-617v-282h81v215z" />
</svg>
