<?xml version="1.0" standalone="no"?>
<!DOCTYPE svg PUBLIC "-//W3C//DTD SVG 1.1//EN" "http://www.w3.org/Graphics/SVG/1.1/DTD/svg11.dtd" >
<svg xmlns="http://www.w3.org/2000/svg" xmlns:xlink="http://www.w3.org/1999/xlink" version="1.1" viewBox="-10 0 930 1000">
   <path fill="currentColor"
d="M798 58v529h-82v-529h82zM652 479l-46 60c-69 -38 -112 -103 -137 -176c-19 72 -55 141 -122 182c-67 -42 -103 -114 -122 -187c-23 72 -67 138 -134 178l-47 -59c103 -57 144 -179 144 -271v-91h78v91c0 68 16 171 82 243c66 -70 81 -172 81 -243v-91h79v91
c0 102 40 217 144 273zM271 876h535v67h-617v-315h609v67h-527v181z" />
</svg>
