<?xml version="1.0" standalone="no"?>
<!DOCTYPE svg PUBLIC "-//W3C//DTD SVG 1.1//EN" "http://www.w3.org/Graphics/SVG/1.1/DTD/svg11.dtd" >
<svg xmlns="http://www.w3.org/2000/svg" xmlns:xlink="http://www.w3.org/1999/xlink" version="1.1" viewBox="-10 0 930 1000">
   <path fill="currentColor"
d="M798 58v466h-82v-466h82zM658 425l-43 58c-69 -37 -112 -102 -136 -174c-20 73 -58 144 -127 184c-69 -42 -107 -115 -127 -189c-24 72 -66 140 -135 179l-44 -58c103 -59 142 -180 142 -266v-63h78v63c0 68 20 172 86 241c68 -68 87 -168 87 -241v-63h78v63
c0 97 39 211 141 266zM285 882h539v65h-620v-230h514v-90h-516v-65h596v216h-513v104z" />
</svg>
