<?xml version="1.0" standalone="no"?>
<!DOCTYPE svg PUBLIC "-//W3C//DTD SVG 1.1//EN" "http://www.w3.org/Graphics/SVG/1.1/DTD/svg11.dtd" >
<svg xmlns="http://www.w3.org/2000/svg" xmlns:xlink="http://www.w3.org/1999/xlink" version="1.1" viewBox="-10 0 930 1000">
   <path fill="currentColor"
d="M798 57v462h-82v-462h82zM650 431l-46 59c-68 -37 -112 -100 -137 -172c-19 70 -55 138 -122 179c-67 -42 -103 -112 -122 -184c-24 71 -68 135 -135 174l-46 -59c102 -55 144 -174 144 -262v-68h78v68c0 64 16 167 82 236c65 -67 81 -167 81 -236v-68h79v68
c0 99 41 212 144 265zM229 786v97c98 0 156 -3 228 -17l7 62c-81 16 -146 17 -266 17h-47v-218h197v-85h-200v-62h278v206h-197zM652 901c50 0 84 -24 84 -61c0 -38 -34 -61 -84 -61c-51 0 -86 23 -86 61c0 37 35 61 86 61zM652 722c88 0 154 45 154 118
c0 71 -66 117 -154 117c-89 0 -156 -46 -156 -117c0 -73 67 -118 156 -118zM692 626h151v62h-383v-62h153v-93h79v93z" />
</svg>
