<?xml version="1.0" standalone="no"?>
<!DOCTYPE svg PUBLIC "-//W3C//DTD SVG 1.1//EN" "http://www.w3.org/Graphics/SVG/1.1/DTD/svg11.dtd" >
<svg xmlns="http://www.w3.org/2000/svg" xmlns:xlink="http://www.w3.org/1999/xlink" version="1.1" viewBox="-10 0 930 1000">
   <path fill="currentColor"
d="M798 58v548h-82v-548h82zM653 475l-45 58c-68 -38 -109 -103 -133 -177c-20 74 -58 145 -125 187c-69 -43 -106 -117 -126 -193c-23 74 -65 142 -132 183l-46 -58c104 -62 140 -187 140 -277v-87h79v87c0 70 17 178 85 250c68 -70 85 -176 85 -250v-87h78v87
c0 100 37 219 140 277zM495 888c140 0 224 -39 224 -104s-84 -103 -224 -103c-141 0 -226 38 -226 103s85 104 226 104zM495 616c190 0 308 61 308 168c0 108 -118 169 -308 169c-191 0 -310 -61 -310 -169c0 -107 119 -168 310 -168z" />
</svg>
