<?xml version="1.0" standalone="no"?>
<!DOCTYPE svg PUBLIC "-//W3C//DTD SVG 1.1//EN" "http://www.w3.org/Graphics/SVG/1.1/DTD/svg11.dtd" >
<svg xmlns="http://www.w3.org/2000/svg" xmlns:xlink="http://www.w3.org/1999/xlink" version="1.1" viewBox="-10 0 930 1000">
   <path fill="currentColor"
d="M298 176c-85 0 -147 57 -147 141c0 83 62 141 147 141s147 -58 147 -141c0 -84 -62 -141 -147 -141zM298 527c-132 0 -228 -86 -228 -210s96 -210 228 -210s228 86 228 210s-96 210 -228 210zM128 689v-67h290v333h-82v-266h-208zM461 689v-67h284v333h-82v-266h-202z
M878 287v69h-133v227h-84v-525h84v229h133z" />
</svg>
