<?xml version="1.0" standalone="no"?>
<!DOCTYPE svg PUBLIC "-//W3C//DTD SVG 1.1//EN" "http://www.w3.org/Graphics/SVG/1.1/DTD/svg11.dtd" >
<svg xmlns="http://www.w3.org/2000/svg" xmlns:xlink="http://www.w3.org/1999/xlink" version="1.1" viewBox="-10 0 930 1000">
   <path fill="currentColor"
d="M150 315c0 82 65 140 152 140c86 0 151 -58 151 -140s-65 -140 -151 -140c-87 0 -152 58 -152 140zM533 315c0 122 -98 207 -231 207c-134 0 -232 -85 -232 -207s98 -207 232 -207c133 0 231 85 231 207zM227 601v262c52 -2 118 -10 180 -30l13 65
c-85 28 -169 33 -230 33h-43v-330h80zM613 895c54 0 93 -28 93 -69s-39 -68 -93 -68c-55 0 -93 27 -93 68s38 69 93 69zM613 700c97 0 166 49 166 126c0 78 -69 127 -166 127s-166 -49 -166 -127c0 -77 69 -126 166 -126zM653 526v81h185v61h-451v-61h186v-81h80zM749 258
h133v68h-133v178h-82v-447h82v201z" />
</svg>
