<?xml version="1.0" standalone="no"?>
<!DOCTYPE svg PUBLIC "-//W3C//DTD SVG 1.1//EN" "http://www.w3.org/Graphics/SVG/1.1/DTD/svg11.dtd" >
<svg xmlns="http://www.w3.org/2000/svg" xmlns:xlink="http://www.w3.org/1999/xlink" version="1.1" viewBox="-10 0 930 1000">
   <path fill="currentColor"
d="M304 179c-90 0 -154 58 -154 142s64 142 154 142c89 0 154 -58 154 -142s-65 -142 -154 -142zM304 532c-136 0 -234 -86 -234 -211s98 -211 234 -211c135 0 234 86 234 211s-99 211 -234 211zM679 609v47c0 94 66 187 180 227l-41 60c-88 -33 -150 -95 -180 -171
c-27 74 -81 143 -165 179c-86 -34 -139 -100 -166 -176c-32 73 -93 136 -177 168l-42 -60c114 -43 180 -140 180 -227v-47h79v47c0 81 41 166 124 215c86 -54 128 -145 128 -215v-47h80zM749 272h133v68h-133v228h-82v-511h82v215z" />
</svg>
