<?xml version="1.0" standalone="no"?>
<!DOCTYPE svg PUBLIC "-//W3C//DTD SVG 1.1//EN" "http://www.w3.org/Graphics/SVG/1.1/DTD/svg11.dtd" >
<svg xmlns="http://www.w3.org/2000/svg" xmlns:xlink="http://www.w3.org/1999/xlink" version="1.1" viewBox="-10 0 930 1000">
   <path fill="currentColor"
d="M136 325c0 83 55 143 130 143c74 0 129 -60 129 -143s-55 -143 -129 -143c-75 0 -130 60 -130 143zM470 325c0 125 -87 211 -204 211c-118 0 -204 -86 -204 -211c0 -126 86 -212 204 -212c117 0 204 86 204 212zM207 708v-66h603v313h-82v-247h-521zM731 57h79v534h-79
v-236h-114v231h-77v-512h77v214h114v-231z" />
</svg>
