<?xml version="1.0" standalone="no"?>
<!DOCTYPE svg PUBLIC "-//W3C//DTD SVG 1.1//EN" "http://www.w3.org/Graphics/SVG/1.1/DTD/svg11.dtd" >
<svg xmlns="http://www.w3.org/2000/svg" xmlns:xlink="http://www.w3.org/1999/xlink" version="1.1" viewBox="-10 0 930 1000">
   <path fill="currentColor"
d="M172 686v-68h301v339h-82v-271h-219zM268 454c74 0 127 -55 127 -135c0 -79 -53 -135 -127 -135c-73 0 -126 56 -126 135c0 80 53 135 126 135zM268 114c119 0 205 83 205 205s-86 206 -205 206c-118 0 -205 -84 -205 -206s87 -205 205 -205zM518 686v-68h293v340h-82
v-272h-211zM732 57h79v523h-79v-229h-117v224h-78v-501h78v209h117v-226z" />
</svg>
