<?xml version="1.0" standalone="no"?>
<!DOCTYPE svg PUBLIC "-//W3C//DTD SVG 1.1//EN" "http://www.w3.org/Graphics/SVG/1.1/DTD/svg11.dtd" >
<svg xmlns="http://www.w3.org/2000/svg" xmlns:xlink="http://www.w3.org/1999/xlink" version="1.1" viewBox="-10 0 930 1000">
   <path fill="currentColor"
d="M615 350v225h-78v-501h78v209h118v-226h78v523h-78v-230h-118zM142 319c0 80 53 135 126 135c74 0 127 -55 127 -135c0 -79 -53 -135 -127 -135c-73 0 -126 56 -126 135zM473 319c0 122 -86 206 -205 206c-118 0 -205 -84 -205 -206s87 -205 205 -205
c119 0 205 83 205 205zM160 681v-67h301v344h-82v-277h-219zM718 601v77c0 88 54 179 158 217l-44 64c-77 -31 -128 -88 -155 -155c-31 68 -86 127 -165 157l-44 -62c110 -40 169 -134 169 -221v-77h81z" />
</svg>
