<?xml version="1.0" standalone="no"?>
<!DOCTYPE svg PUBLIC "-//W3C//DTD SVG 1.1//EN" "http://www.w3.org/Graphics/SVG/1.1/DTD/svg11.dtd" >
<svg xmlns="http://www.w3.org/2000/svg" xmlns:xlink="http://www.w3.org/1999/xlink" version="1.1" viewBox="-10 0 930 1000">
   <path fill="currentColor"
d="M615 327v201h-78v-454h78v185h117v-201h79v474h-79v-205h-117zM139 296c0 76 54 127 128 127s128 -51 128 -127c0 -73 -54 -125 -128 -125s-128 52 -128 125zM473 296c0 117 -87 198 -206 198c-120 0 -207 -81 -207 -198c0 -115 87 -195 207 -195c119 0 206 80 206 195z
M236 790v98c74 0 151 -3 247 -16l7 62c-113 15 -196 16 -280 16h-49v-218h228v-94h-231v-63h307v215h-229zM591 885h240v63h-319v-374h308v63h-229v92h218v59h-218v97z" />
</svg>
