<?xml version="1.0" standalone="no"?>
<!DOCTYPE svg PUBLIC "-//W3C//DTD SVG 1.1//EN" "http://www.w3.org/Graphics/SVG/1.1/DTD/svg11.dtd" >
<svg xmlns="http://www.w3.org/2000/svg" xmlns:xlink="http://www.w3.org/1999/xlink" version="1.1" viewBox="-10 0 930 1000">
   <path fill="currentColor"
d="M614 327v186h-77v-439h77v185h118v-201h79v456h-79v-187h-118zM139 297c0 75 54 126 128 126s128 -51 128 -126c0 -74 -54 -126 -128 -126s-128 52 -128 126zM473 297c0 116 -87 197 -206 197c-120 0 -207 -81 -207 -197s87 -196 207 -196c119 0 206 80 206 196zM233 786
v96c97 0 156 -3 227 -17l8 62c-82 16 -147 18 -266 18h-47v-218h202v-85h-205v-61h283v205h-202zM653 900c50 0 82 -25 82 -65c0 -41 -32 -66 -82 -66c-51 0 -85 25 -85 66c0 40 34 65 85 65zM653 711c87 0 152 48 152 124c0 75 -65 122 -152 122c-90 0 -155 -47 -155 -122
c0 -76 65 -124 155 -124zM693 618h150v61h-376v-61h146v-75h80v75z" />
</svg>
