<?xml version="1.0" standalone="no"?>
<!DOCTYPE svg PUBLIC "-//W3C//DTD SVG 1.1//EN" "http://www.w3.org/Graphics/SVG/1.1/DTD/svg11.dtd" >
<svg xmlns="http://www.w3.org/2000/svg" xmlns:xlink="http://www.w3.org/1999/xlink" version="1.1" viewBox="-10 0 930 1000">
   <path fill="currentColor"
d="M614 327v193h-77v-445h77v185h117v-202h79v516h-79v-247h-117zM139 296c0 76 54 127 128 127s128 -51 128 -127c0 -73 -54 -125 -128 -125s-128 52 -128 125zM473 296c0 117 -87 198 -206 198c-120 0 -207 -81 -207 -198c0 -115 87 -195 207 -195c119 0 206 80 206 195z
M818 715h-257c17 87 150 156 296 173l-28 61c-137 -16 -261 -75 -314 -161c-52 88 -175 145 -313 161l-27 -61c146 -17 279 -84 295 -173h-257v-66h261v-85h82v85h262v66z" />
</svg>
