<?xml version="1.0" standalone="no"?>
<!DOCTYPE svg PUBLIC "-//W3C//DTD SVG 1.1//EN" "http://www.w3.org/Graphics/SVG/1.1/DTD/svg11.dtd" >
<svg xmlns="http://www.w3.org/2000/svg" xmlns:xlink="http://www.w3.org/1999/xlink" version="1.1" viewBox="-10 0 930 1000">
   <path fill="currentColor"
d="M615 327v201h-78v-454h78v185h117v-201h79v474h-79v-205h-117zM139 296c0 76 54 127 128 127s128 -51 128 -127c0 -73 -54 -125 -128 -125s-128 52 -128 125zM473 296c0 117 -87 198 -206 198c-120 0 -207 -81 -207 -198c0 -115 87 -195 207 -195c119 0 206 80 206 195z
M289 882h548v62h-631v-369h612v61h-529v92h518v61h-518v93z" />
</svg>
