<?xml version="1.0" standalone="no"?>
<!DOCTYPE svg PUBLIC "-//W3C//DTD SVG 1.1//EN" "http://www.w3.org/Graphics/SVG/1.1/DTD/svg11.dtd" >
<svg xmlns="http://www.w3.org/2000/svg" xmlns:xlink="http://www.w3.org/1999/xlink" version="1.1" viewBox="-10 0 930 1000">
   <path fill="currentColor"
d="M292 679c86 0 147 -95 147 -241c0 -144 -61 -238 -147 -238c-87 0 -148 94 -148 238c0 146 61 241 148 241zM292 126c132 0 225 122 225 312c0 192 -93 314 -225 314s-226 -122 -226 -314c0 -190 94 -312 226 -312zM886 351h-143v199h143v68h-143v336h-82v-896h82v225
h143v68z" />
</svg>
