<?xml version="1.0" standalone="no"?>
<!DOCTYPE svg PUBLIC "-//W3C//DTD SVG 1.1//EN" "http://www.w3.org/Graphics/SVG/1.1/DTD/svg11.dtd" >
<svg xmlns="http://www.w3.org/2000/svg" xmlns:xlink="http://www.w3.org/1999/xlink" version="1.1" viewBox="-10 0 930 1000">
   <path fill="currentColor"
d="M150 323c0 84 64 143 154 143c89 0 154 -59 154 -143c0 -85 -65 -143 -154 -143c-90 0 -154 58 -154 143zM538 323c0 125 -99 212 -234 212c-136 0 -234 -87 -234 -212c0 -126 98 -212 234 -212c135 0 234 86 234 212zM166 699v-67h583v322h-82v-255h-501zM880 262h-131
v124h131v67h-131v137h-82v-532h82v136h131v68z" />
</svg>
