<?xml version="1.0" standalone="no"?>
<!DOCTYPE svg PUBLIC "-//W3C//DTD SVG 1.1//EN" "http://www.w3.org/Graphics/SVG/1.1/DTD/svg11.dtd" >
<svg xmlns="http://www.w3.org/2000/svg" xmlns:xlink="http://www.w3.org/1999/xlink" version="1.1" viewBox="-10 0 930 1000">
   <path fill="currentColor"
d="M150 317c0 83 62 141 147 141s147 -58 147 -141c0 -84 -62 -141 -147 -141s-147 57 -147 141zM525 317c0 125 -95 210 -228 210s-228 -85 -228 -210s95 -210 228 -210s228 85 228 210zM133 688v-68h300v337h-82v-269h-218zM685 613v64c0 93 55 181 160 218l-44 64
c-78 -30 -130 -86 -158 -154c-30 68 -86 126 -166 157l-43 -63c110 -41 169 -133 169 -217v-69h82zM878 261h-133v129h133v69h-133v124h-85v-525h85v134h133v69z" />
</svg>
