<?xml version="1.0" standalone="no"?>
<!DOCTYPE svg PUBLIC "-//W3C//DTD SVG 1.1//EN" "http://www.w3.org/Graphics/SVG/1.1/DTD/svg11.dtd" >
<svg xmlns="http://www.w3.org/2000/svg" xmlns:xlink="http://www.w3.org/1999/xlink" version="1.1" viewBox="-10 0 930 1000">
   <path fill="currentColor"
d="M150 322c0 83 64 142 153 142c90 0 155 -59 155 -142c0 -85 -65 -143 -155 -143c-89 0 -153 58 -153 143zM538 322c0 124 -99 211 -235 211c-135 0 -233 -87 -233 -211c0 -125 98 -211 233 -211c136 0 235 86 235 211zM266 684v192h402v-192h-402zM186 942v-323h563v323
h-563zM880 253h-131v128h131v68h-131v127h-82v-518h82v127h131v68z" />
</svg>
