<?xml version="1.0" standalone="no"?>
<!DOCTYPE svg PUBLIC "-//W3C//DTD SVG 1.1//EN" "http://www.w3.org/Graphics/SVG/1.1/DTD/svg11.dtd" >
<svg xmlns="http://www.w3.org/2000/svg" xmlns:xlink="http://www.w3.org/1999/xlink" version="1.1" viewBox="-10 0 930 1000">
   <path fill="currentColor"
d="M734 253h-120v130h120v-130zM614 452v123h-77v-500h77v109h120v-126h78v522h-78v-128h-120zM142 319c0 80 52 135 126 135c75 0 127 -55 127 -135s-52 -135 -127 -135c-74 0 -126 55 -126 135zM473 319c0 123 -84 206 -205 206s-205 -83 -205 -206
c0 -124 84 -206 205 -206s205 82 205 206zM161 681v-67h300v343h-82v-276h-218zM718 602v76c0 88 54 179 158 218l-43 64c-77 -31 -128 -88 -156 -156c-30 68 -85 127 -164 157l-44 -61c110 -41 169 -135 169 -222v-76h80z" />
</svg>
