<?xml version="1.0" standalone="no"?>
<!DOCTYPE svg PUBLIC "-//W3C//DTD SVG 1.1//EN" "http://www.w3.org/Graphics/SVG/1.1/DTD/svg11.dtd" >
<svg xmlns="http://www.w3.org/2000/svg" xmlns:xlink="http://www.w3.org/1999/xlink" version="1.1" viewBox="-10 0 930 1000">
   <path fill="currentColor"
d="M733 253h-119v130h119v-130zM614 452v123h-77v-500h77v110h119v-127h78v522h-78v-128h-119zM142 319c0 80 52 135 126 135s127 -55 127 -135c0 -79 -53 -135 -127 -135s-126 56 -126 135zM473 319c0 122 -86 206 -205 206c-118 0 -205 -84 -205 -206s87 -205 205 -205
c119 0 205 83 205 205zM288 876h536v68h-620v-316h613v68h-529v180z" />
</svg>
