<?xml version="1.0" standalone="no"?>
<!DOCTYPE svg PUBLIC "-//W3C//DTD SVG 1.1//EN" "http://www.w3.org/Graphics/SVG/1.1/DTD/svg11.dtd" >
<svg xmlns="http://www.w3.org/2000/svg" xmlns:xlink="http://www.w3.org/1999/xlink" version="1.1" viewBox="-10 0 930 1000">
   <path fill="currentColor"
d="M731 241h-114v101h114v-101zM617 408v110h-78v-443h78v100h114v-117h79v469h-79v-119h-114zM136 296c0 78 54 133 130 133c75 0 129 -55 129 -133c0 -77 -54 -132 -129 -132c-76 0 -130 55 -130 132zM470 296c0 117 -86 198 -204 198c-119 0 -204 -81 -204 -198
c0 -116 85 -197 204 -197c118 0 204 81 204 197zM301 876h543v66h-624v-224h508v-86h-510v-65h592v213h-509v96z" />
</svg>
