<?xml version="1.0" standalone="no"?>
<!DOCTYPE svg PUBLIC "-//W3C//DTD SVG 1.1//EN" "http://www.w3.org/Graphics/SVG/1.1/DTD/svg11.dtd" >
<svg xmlns="http://www.w3.org/2000/svg" xmlns:xlink="http://www.w3.org/1999/xlink" version="1.1" viewBox="-10 0 930 1000">
   <path fill="currentColor"
d="M141 297c0 75 53 126 127 126s127 -51 127 -126s-53 -126 -127 -126s-127 51 -127 126zM474 297c0 117 -86 197 -206 197s-206 -80 -206 -197c0 -116 86 -196 206 -196s206 80 206 196zM250 786v100c118 0 194 -4 285 -20l9 64c-103 18 -185 20 -321 20h-56v-224h229v-87
h-231v-65h314v212h-229zM518 641v-67h293v380h-84v-313h-209zM614 352h120v-109h-120v109zM734 58h77v464h-77v-102h-120v94h-77v-440h77v101h120v-117z" />
</svg>
