<?xml version="1.0" standalone="no"?>
<!DOCTYPE svg PUBLIC "-//W3C//DTD SVG 1.1//EN" "http://www.w3.org/Graphics/SVG/1.1/DTD/svg11.dtd" >
<svg xmlns="http://www.w3.org/2000/svg" xmlns:xlink="http://www.w3.org/1999/xlink" version="1.1" viewBox="-10 0 930 1000">
   <path fill="currentColor"
d="M733 253h-119v130h119v-130zM614 452v123h-77v-500h77v110h119v-127h78v522h-78v-128h-119zM268 184c-73 0 -126 56 -126 135c0 80 53 135 126 135c74 0 127 -55 127 -135c0 -79 -53 -135 -127 -135zM268 525c-118 0 -205 -84 -205 -206s87 -205 205 -205
c119 0 205 83 205 205s-86 206 -205 206zM695 610v52c0 94 69 189 186 227l-42 60c-87 -30 -150 -91 -183 -165c-26 77 -79 143 -162 179c-83 -35 -135 -101 -161 -177c-33 73 -95 133 -181 163l-43 -60c117 -38 185 -133 185 -227v-52h79v50c0 83 39 168 121 220
c82 -52 121 -139 121 -220v-50h80z" />
</svg>
