<?xml version="1.0" standalone="no"?>
<!DOCTYPE svg PUBLIC "-//W3C//DTD SVG 1.1//EN" "http://www.w3.org/Graphics/SVG/1.1/DTD/svg11.dtd" >
<svg xmlns="http://www.w3.org/2000/svg" xmlns:xlink="http://www.w3.org/1999/xlink" version="1.1" viewBox="-10 0 930 1000">
   <path fill="currentColor"
d="M148 689v-67h300v332h-83v-265h-217zM490 689v-67h295v332h-82v-265h-213zM289 457c86 0 149 -58 149 -142c0 -82 -63 -140 -149 -140s-148 58 -148 140c0 84 62 142 148 142zM701 58h85v522h-85v-234h-184c-14 108 -106 180 -228 180c-133 0 -230 -86 -230 -211
c0 -124 97 -209 230 -209c120 0 210 68 227 172h185v-220z" />
</svg>
