<?xml version="1.0" standalone="no"?>
<!DOCTYPE svg PUBLIC "-//W3C//DTD SVG 1.1//EN" "http://www.w3.org/Graphics/SVG/1.1/DTD/svg11.dtd" >
<svg xmlns="http://www.w3.org/2000/svg" xmlns:xlink="http://www.w3.org/1999/xlink" version="1.1" viewBox="-10 0 930 1000">
   <path fill="currentColor"
d="M141 315c0 84 62 142 148 142s149 -58 149 -142c0 -82 -63 -140 -149 -140s-148 58 -148 140zM702 346h-185c-14 108 -106 180 -228 180c-133 0 -230 -86 -230 -211c0 -124 97 -209 230 -209c120 0 210 68 227 172h186v-220h84v522h-84v-234zM143 680v-67h301v344h-82
v-277h-219zM699 600v73c0 93 53 183 158 222l-44 64c-78 -31 -129 -88 -156 -157c-30 69 -86 128 -163 158l-44 -61c110 -42 167 -136 167 -224v-75h82z" />
</svg>
