<?xml version="1.0" standalone="no"?>
<!DOCTYPE svg PUBLIC "-//W3C//DTD SVG 1.1//EN" "http://www.w3.org/Graphics/SVG/1.1/DTD/svg11.dtd" >
<svg xmlns="http://www.w3.org/2000/svg" xmlns:xlink="http://www.w3.org/1999/xlink" version="1.1" viewBox="-10 0 930 1000">
   <path fill="currentColor"
d="M244 787v98c126 0 197 -3 282 -20l9 62c-95 18 -171 20 -315 20h-55v-221h217v-88h-219v-62h298v211h-217zM504 642v-66h287v381h-82v-315h-205zM298 439c87 0 152 -59 152 -140s-65 -140 -152 -140c-88 0 -153 59 -153 140s65 140 153 140zM709 57h83v480h-83v-206h-183
c-15 105 -107 175 -228 175c-133 0 -231 -84 -231 -207c0 -122 98 -208 231 -208c119 0 210 70 227 173h184v-207z" />
</svg>
