<?xml version="1.0" standalone="no"?>
<!DOCTYPE svg PUBLIC "-//W3C//DTD SVG 1.1//EN" "http://www.w3.org/Graphics/SVG/1.1/DTD/svg11.dtd" >
<svg xmlns="http://www.w3.org/2000/svg" xmlns:xlink="http://www.w3.org/1999/xlink" version="1.1" viewBox="-10 0 930 1000">
   <path fill="currentColor"
d="M289 684v192h423v-192h-423zM209 942v-323h583v323h-583zM298 463c88 0 152 -59 152 -144c0 -83 -64 -141 -152 -141c-89 0 -153 58 -153 141c0 85 64 144 153 144zM709 58h83v515h-83v-222h-183c-15 109 -106 181 -228 181c-134 0 -231 -86 -231 -213
c0 -124 97 -210 231 -210c120 0 210 70 227 174h184v-225z" />
</svg>
