<?xml version="1.0" standalone="no"?>
<!DOCTYPE svg PUBLIC "-//W3C//DTD SVG 1.1//EN" "http://www.w3.org/Graphics/SVG/1.1/DTD/svg11.dtd" >
<svg xmlns="http://www.w3.org/2000/svg" xmlns:xlink="http://www.w3.org/1999/xlink" version="1.1" viewBox="-10 0 930 1000">
   <path fill="currentColor"
d="M811 58v468h-79v-468h79zM139 308c0 78 53 132 127 132c73 0 126 -54 126 -132c0 -77 -53 -131 -126 -131c-74 0 -127 54 -127 131zM566 338h-97c-14 104 -94 174 -203 174c-119 0 -206 -84 -206 -204c0 -119 87 -202 206 -202c105 0 186 65 202 164h98v-195h78v450h-78
v-187zM243 627v237c56 -2 127 -10 191 -32l15 67c-89 29 -176 34 -243 34h-44v-306h81zM636 902c54 0 94 -18 94 -50s-40 -50 -94 -50c-55 0 -93 18 -93 50s38 50 93 50zM636 747c97 0 166 41 166 105c0 65 -69 106 -166 106c-96 0 -165 -41 -165 -106
c0 -64 69 -105 165 -105zM677 643h180v61h-446v-61h187v-82h79v82z" />
</svg>
