<?xml version="1.0" standalone="no"?>
<!DOCTYPE svg PUBLIC "-//W3C//DTD SVG 1.1//EN" "http://www.w3.org/Graphics/SVG/1.1/DTD/svg11.dtd" >
<svg xmlns="http://www.w3.org/2000/svg" xmlns:xlink="http://www.w3.org/1999/xlink" version="1.1" viewBox="-10 0 930 1000">
   <path fill="currentColor"
d="M810 58v466h-79v-466h79zM135 295c0 79 55 134 131 134c75 0 130 -55 130 -134c0 -76 -55 -131 -130 -131c-76 0 -131 55 -131 131zM562 328h-94c-14 100 -95 166 -202 166c-119 0 -204 -81 -204 -199c0 -116 85 -196 204 -196c107 0 187 65 201 163h95v-186h77v442h-77
v-190zM301 876h543v66h-624v-224h508v-87h-510v-65h592v214h-509v96z" />
</svg>
