<?xml version="1.0" standalone="no"?>
<!DOCTYPE svg PUBLIC "-//W3C//DTD SVG 1.1//EN" "http://www.w3.org/Graphics/SVG/1.1/DTD/svg11.dtd" >
<svg xmlns="http://www.w3.org/2000/svg" xmlns:xlink="http://www.w3.org/1999/xlink" version="1.1" viewBox="-10 0 930 1000">
   <path fill="currentColor"
d="M135 319c0 83 55 142 131 142c75 0 130 -59 130 -142c0 -81 -55 -139 -130 -139c-76 0 -131 58 -131 139zM562 353h-94c-14 106 -94 175 -202 175c-119 0 -204 -84 -204 -209c0 -122 85 -207 204 -207c107 0 188 70 202 174h94v-210h77v491h-77v-214zM301 687v189h429
v-189h-429zM221 942v-320h589v320h-589zM731 58h79v518h-79v-518z" />
</svg>
