<?xml version="1.0" standalone="no"?>
<!DOCTYPE svg PUBLIC "-//W3C//DTD SVG 1.1//EN" "http://www.w3.org/Graphics/SVG/1.1/DTD/svg11.dtd" >
<svg xmlns="http://www.w3.org/2000/svg" xmlns:xlink="http://www.w3.org/1999/xlink" version="1.1" viewBox="-10 0 930 1000">
   <path fill="currentColor"
d="M810 58v491h-79v-491h79zM139 297c0 76 53 127 127 127s126 -51 126 -127c0 -75 -52 -126 -126 -126s-127 51 -127 126zM564 326h-95c-12 102 -94 170 -203 170c-119 0 -206 -82 -206 -199s87 -198 206 -198c105 0 185 63 201 159h97v-182h77v445h-77v-195zM504 895
c113 0 176 -21 176 -60s-63 -60 -176 -60c-114 0 -176 21 -176 60s62 60 176 60zM504 717c161 0 254 41 254 118s-93 118 -254 118c-162 0 -255 -41 -255 -118s93 -118 255 -118zM545 614h278v63h-640v-63h280v-79h82v79z" />
</svg>
