<?xml version="1.0" standalone="no"?>
<!DOCTYPE svg PUBLIC "-//W3C//DTD SVG 1.1//EN" "http://www.w3.org/Graphics/SVG/1.1/DTD/svg11.dtd" >
<svg xmlns="http://www.w3.org/2000/svg" xmlns:xlink="http://www.w3.org/1999/xlink" version="1.1" viewBox="-10 0 930 1000">
   <path fill="currentColor"
d="M242 786v100c113 0 187 -3 277 -19l7 63c-100 18 -180 20 -312 20h-54v-225h219v-87h-222v-65h304v213h-219zM497 640v-67h282v380h-84v-313h-198zM508 357h187v-122h-183c5 17 7 36 7 55c0 24 -4 47 -11 67zM289 423c88 0 149 -53 149 -133s-61 -133 -149 -133
c-87 0 -148 53 -148 133s61 133 148 133zM695 57l84 1v479h-84v-115h-225c-41 45 -104 71 -181 71c-136 0 -230 -81 -230 -203c0 -123 94 -203 230 -203c83 0 151 30 191 82h215v-112z" />
</svg>
