<?xml version="1.0" standalone="no"?>
<!DOCTYPE svg PUBLIC "-//W3C//DTD SVG 1.1//EN" "http://www.w3.org/Graphics/SVG/1.1/DTD/svg11.dtd" >
<svg xmlns="http://www.w3.org/2000/svg" xmlns:xlink="http://www.w3.org/1999/xlink" version="1.1" viewBox="-10 0 930 1000">
   <path fill="currentColor"
d="M141 290c0 80 62 133 148 133c87 0 149 -53 149 -133s-62 -133 -149 -133c-86 0 -148 53 -148 133zM702 235h-190c5 17 7 36 7 55c0 24 -4 47 -11 67h194v-122zM702 422h-233c-40 44 -104 70 -180 71c-136 0 -230 -81 -230 -203c0 -123 94 -203 230 -203
c84 0 151 30 191 82h222v-111h82v470h-82v-106zM228 786v97c97 0 155 -3 227 -17l8 62c-82 16 -146 17 -265 17h-48v-218h202v-85h-204v-61h282v205h-202zM647 899c50 0 83 -24 83 -63c0 -40 -33 -64 -83 -64s-83 24 -83 64c0 39 33 63 83 63zM647 715c88 0 153 46 153 121
c0 74 -65 120 -153 120s-153 -46 -153 -120c0 -75 65 -121 153 -121zM688 620h149v61h-374v-61h145v-82h80v82z" />
</svg>
