<?xml version="1.0" standalone="no"?>
<!DOCTYPE svg PUBLIC "-//W3C//DTD SVG 1.1//EN" "http://www.w3.org/Graphics/SVG/1.1/DTD/svg11.dtd" >
<svg xmlns="http://www.w3.org/2000/svg" xmlns:xlink="http://www.w3.org/1999/xlink" version="1.1" viewBox="-10 0 930 1000">
   <path fill="currentColor"
d="M167 691v-67h611v331h-83v-118l-537 26l-11 -67l548 -21v-84h-528zM510 380h185v-128h-186c7 20 10 42 10 66c0 22 -3 43 -9 62zM289 461c87 0 149 -58 149 -143s-62 -143 -149 -143c-86 0 -148 58 -148 143s62 143 148 143zM695 58h84v522h-84v-135h-216
c-40 53 -107 85 -190 85c-135 0 -230 -85 -230 -212s95 -212 230 -212c80 0 145 30 186 80h220v-128z" />
</svg>
