<?xml version="1.0" standalone="no"?>
<!DOCTYPE svg PUBLIC "-//W3C//DTD SVG 1.1//EN" "http://www.w3.org/Graphics/SVG/1.1/DTD/svg11.dtd" >
<svg xmlns="http://www.w3.org/2000/svg" xmlns:xlink="http://www.w3.org/1999/xlink" version="1.1" viewBox="-10 0 930 1000">
   <path fill="currentColor"
d="M810 58v670h-79v-670h79zM135 345c0 87 56 148 131 148c74 0 130 -61 130 -148c0 -86 -56 -147 -130 -147c-75 0 -131 61 -131 147zM564 267h-106c8 24 12 50 12 78c0 27 -4 52 -11 75h105v-153zM564 487h-139c-37 48 -92 76 -159 76c-118 0 -204 -89 -204 -218
c0 -128 86 -218 204 -218c65 0 120 28 157 74h141v-126h77v627h-77v-215zM307 867h529v67h-611v-293h82v226z" />
</svg>
