<?xml version="1.0" standalone="no"?>
<!DOCTYPE svg PUBLIC "-//W3C//DTD SVG 1.1//EN" "http://www.w3.org/Graphics/SVG/1.1/DTD/svg11.dtd" >
<svg xmlns="http://www.w3.org/2000/svg" xmlns:xlink="http://www.w3.org/1999/xlink" version="1.1" viewBox="-10 0 930 1000">
   <path fill="currentColor"
d="M135 309c0 80 55 137 130 137s130 -57 130 -137c0 -79 -55 -136 -130 -136s-130 57 -130 136zM564 241h-106c6 21 10 44 10 69s-4 48 -11 69h107v-138zM564 446h-143c-36 42 -91 67 -156 67c-119 0 -203 -83 -203 -204c0 -120 84 -202 203 -202c65 0 120 25 156 67h143
v-97h77v467h-77v-98zM729 875v-116h-426v116h426zM729 694v-108h81v356h-589v-356h82v108h426zM731 58h79v494h-79v-494z" />
</svg>
