<?xml version="1.0" standalone="no"?>
<!DOCTYPE svg PUBLIC "-//W3C//DTD SVG 1.1//EN" "http://www.w3.org/Graphics/SVG/1.1/DTD/svg11.dtd" >
<svg xmlns="http://www.w3.org/2000/svg" xmlns:xlink="http://www.w3.org/1999/xlink" version="1.1" viewBox="-10 0 930 1000">
   <path fill="currentColor"
d="M812 57v542h-80v-542h80zM139 319c0 80 52 136 126 136c73 0 126 -56 126 -136s-53 -136 -126 -136c-74 0 -126 56 -126 136zM571 253h-110c6 20 9 42 9 66s-4 47 -10 68h111v-134zM571 454h-147c-36 45 -93 72 -159 72c-118 0 -205 -85 -205 -207
c0 -123 87 -207 205 -207c67 0 125 28 162 74h144v-112h78v500h-78v-120zM504 886c146 0 232 -39 232 -106s-86 -105 -232 -105s-231 38 -231 105s85 106 231 106zM504 608c198 0 317 61 317 172s-119 173 -317 173c-197 0 -316 -62 -316 -173s119 -172 316 -172z" />
</svg>
