<?xml version="1.0" standalone="no"?>
<!DOCTYPE svg PUBLIC "-//W3C//DTD SVG 1.1//EN" "http://www.w3.org/Graphics/SVG/1.1/DTD/svg11.dtd" >
<svg xmlns="http://www.w3.org/2000/svg" xmlns:xlink="http://www.w3.org/1999/xlink" version="1.1" viewBox="-10 0 930 1000">
   <path fill="currentColor"
d="M812 57v518h-80v-518h80zM139 319c0 80 52 136 126 136c73 0 126 -56 126 -136s-53 -136 -126 -136c-74 0 -126 56 -126 136zM571 253h-110c6 20 9 42 9 66s-4 47 -10 68h111v-134zM571 454h-146c-37 45 -94 72 -160 72c-118 0 -205 -85 -205 -207
c0 -123 87 -207 205 -207c67 0 125 28 162 74h144v-112h78v500h-78v-120zM415 684v194h190v-194h-190zM687 878h142v66h-642v-66h146v-194h-138v-66h628v66h-136v194z" />
</svg>
