<?xml version="1.0" standalone="no"?>
<!DOCTYPE svg PUBLIC "-//W3C//DTD SVG 1.1//EN" "http://www.w3.org/Graphics/SVG/1.1/DTD/svg11.dtd" >
<svg xmlns="http://www.w3.org/2000/svg" xmlns:xlink="http://www.w3.org/1999/xlink" version="1.1" viewBox="-10 0 930 1000">
   <path fill="currentColor"
d="M810 58v490h-79v-490h79zM139 297c0 76 53 128 126 128s126 -52 126 -128s-53 -127 -126 -127s-126 51 -126 127zM564 233h-104c7 19 10 40 10 64c0 23 -3 44 -10 64h104v-128zM564 426h-139c-37 43 -92 69 -160 70c-119 0 -206 -82 -206 -199s87 -198 206 -198
c67 0 124 26 161 69h138v-92h77v444h-77v-94zM504 895c113 0 176 -21 176 -60s-63 -60 -176 -60c-114 0 -176 21 -176 60s62 60 176 60zM504 717c161 0 254 41 254 118s-93 118 -254 118c-162 0 -255 -41 -255 -118s93 -118 255 -118zM545 614h278v63h-640v-63h280v-79h82
v79z" />
</svg>
