<?xml version="1.0" standalone="no"?>
<!DOCTYPE svg PUBLIC "-//W3C//DTD SVG 1.1//EN" "http://www.w3.org/Graphics/SVG/1.1/DTD/svg11.dtd" >
<svg xmlns="http://www.w3.org/2000/svg" xmlns:xlink="http://www.w3.org/1999/xlink" version="1.1" viewBox="-10 0 930 1000">
   <path fill="currentColor"
d="M239 675v192h535v67h-617v-259h82zM227 263c0 71 90 112 232 112c140 0 230 -41 230 -112s-90 -113 -230 -113c-142 0 -232 42 -232 113zM500 534h363v67h-810v-67h365v-94c-169 -9 -275 -73 -275 -177c0 -112 123 -179 316 -179c191 0 314 67 314 179
c0 103 -106 168 -273 177v94z" />
</svg>
