<?xml version="1.0" standalone="no"?>
<!DOCTYPE svg PUBLIC "-//W3C//DTD SVG 1.1//EN" "http://www.w3.org/Graphics/SVG/1.1/DTD/svg11.dtd" >
<svg xmlns="http://www.w3.org/2000/svg" xmlns:xlink="http://www.w3.org/1999/xlink" version="1.1" viewBox="-10 0 930 1000">
   <path fill="currentColor"
d="M193 236c0 57 55 93 143 93c86 0 141 -36 141 -93s-55 -93 -141 -93c-88 0 -143 36 -143 93zM610 447l6 61c-179 23 -388 32 -555 33l-11 -70c75 0 158 -1 243 -4v-74c-111 -11 -179 -69 -179 -157c0 -99 87 -159 222 -159c133 0 220 60 220 159c0 88 -68 146 -178 157
v70c80 -4 159 -9 232 -16zM212 802v85c97 0 155 -3 227 -17l8 62c-83 16 -147 17 -266 17h-48v-203h202v-84h-204v-61h283v201h-202zM627 906c49 0 82 -23 82 -58c0 -37 -33 -59 -82 -59s-82 22 -82 59c0 35 33 58 82 58zM627 733c88 0 152 44 152 115
c0 70 -64 113 -152 113s-152 -43 -152 -113c0 -71 64 -115 152 -115zM667 563v84h147v61h-371v-61h144v-84h80zM750 281h131v69h-131v197h-83v-489h83v223z" />
</svg>
