<?xml version="1.0" standalone="no"?>
<!DOCTYPE svg PUBLIC "-//W3C//DTD SVG 1.1//EN" "http://www.w3.org/Graphics/SVG/1.1/DTD/svg11.dtd" >
<svg xmlns="http://www.w3.org/2000/svg" xmlns:xlink="http://www.w3.org/1999/xlink" version="1.1" viewBox="-10 0 930 1000">
   <path fill="currentColor"
d="M180 255c0 63 59 104 145 104c85 0 144 -41 144 -104c0 -62 -59 -103 -144 -103c-86 0 -145 41 -145 103zM611 475l6 58c-188 34 -400 37 -554 37l-11 -66c69 0 149 0 233 -3v-83c-109 -12 -181 -74 -181 -163c0 -98 89 -164 221 -164c131 0 221 66 221 164
c0 88 -71 149 -179 162v80c83 -4 167 -10 244 -22zM461 889c133 0 212 -34 212 -93c0 -58 -79 -93 -212 -93s-213 35 -213 93c0 59 80 93 213 93zM461 640c182 0 294 57 294 156s-112 157 -294 157c-183 0 -294 -58 -294 -157s111 -156 294 -156zM748 308h132v68h-132v254
h-82v-572h82v250z" />
</svg>
