<?xml version="1.0" standalone="no"?>
<!DOCTYPE svg PUBLIC "-//W3C//DTD SVG 1.1//EN" "http://www.w3.org/Graphics/SVG/1.1/DTD/svg11.dtd" >
<svg xmlns="http://www.w3.org/2000/svg" xmlns:xlink="http://www.w3.org/1999/xlink" version="1.1" viewBox="-10 0 930 1000">
   <path fill="currentColor"
d="M175 717v-66h304v305h-83v-239h-221zM162 266c0 58 49 98 120 98s118 -40 118 -98c0 -60 -47 -99 -118 -99s-120 39 -120 99zM330 425v83c62 -4 125 -8 179 -14l6 61c-141 23 -330 29 -451 29l-11 -70c56 0 125 -1 198 -3v-84c-99 -11 -165 -72 -165 -161
c0 -99 81 -164 196 -164c114 0 195 65 195 164c0 84 -59 143 -147 159zM522 717v-66h295v305h-82v-239h-213zM738 58h79v551h-79v-235h-107v234h-78v-535h78v232h107v-247z" />
</svg>
