<?xml version="1.0" standalone="no"?>
<!DOCTYPE svg PUBLIC "-//W3C//DTD SVG 1.1//EN" "http://www.w3.org/Graphics/SVG/1.1/DTD/svg11.dtd" >
<svg xmlns="http://www.w3.org/2000/svg" xmlns:xlink="http://www.w3.org/1999/xlink" version="1.1" viewBox="-10 0 930 1000">
   <path fill="currentColor"
d="M631 374v234h-78v-535h78v232h107v-247h79v551h-79v-235h-107zM162 266c0 58 49 98 120 98s118 -40 118 -98c0 -60 -47 -99 -118 -99s-120 39 -120 99zM509 494l7 61c-142 23 -331 29 -452 29l-11 -70c56 0 125 -1 198 -3v-84c-99 -11 -165 -72 -165 -161
c0 -99 81 -164 196 -164c114 0 195 65 195 164c0 84 -59 143 -147 159v83c62 -4 125 -8 179 -14zM692 704c0 86 62 163 170 196l-42 60c-79 -25 -135 -75 -166 -139c-31 66 -89 118 -174 144l-40 -60c-67 30 -151 37 -216 37h-47v-290h81v212c61 -3 143 -15 190 -49l21 76
l-5 3c96 -37 149 -110 149 -186v-5h-149v-67h381v67z" />
</svg>
