<?xml version="1.0" standalone="no"?>
<!DOCTYPE svg PUBLIC "-//W3C//DTD SVG 1.1//EN" "http://www.w3.org/Graphics/SVG/1.1/DTD/svg11.dtd" >
<svg xmlns="http://www.w3.org/2000/svg" xmlns:xlink="http://www.w3.org/1999/xlink" version="1.1" viewBox="-10 0 930 1000">
   <path fill="currentColor"
d="M163 242c0 55 49 92 119 92s118 -37 118 -92s-48 -92 -118 -92s-119 37 -119 92zM510 446l6 61c-139 21 -328 27 -451 27l-11 -69c56 0 125 -1 196 -3v-67c-97 -10 -163 -68 -163 -153c0 -93 81 -155 195 -155c113 0 194 62 194 155c0 80 -60 137 -148 151v66
c64 -2 128 -7 182 -13zM232 801v88c99 0 161 -2 240 -16l9 61c-91 15 -160 16 -281 16h-49v-204h220v-88h-223v-61h304v204h-220zM741 886v-112h-160v112h160zM741 713v-117h76v354h-311v-354h75v117h160zM738 58h79v492h-79v-202h-107v197h-78v-472h78v207h107v-222z" />
</svg>
