<?xml version="1.0" standalone="no"?>
<!DOCTYPE svg PUBLIC "-//W3C//DTD SVG 1.1//EN" "http://www.w3.org/Graphics/SVG/1.1/DTD/svg11.dtd" >
<svg xmlns="http://www.w3.org/2000/svg" xmlns:xlink="http://www.w3.org/1999/xlink" version="1.1" viewBox="-10 0 930 1000">
   <path fill="currentColor"
d="M631 348v197h-78v-472h78v207h107v-222h79v492h-79v-202h-107zM163 242c0 55 49 92 119 92s118 -37 118 -92s-48 -92 -118 -92s-119 37 -119 92zM510 446l6 61c-139 21 -328 27 -451 27l-11 -69c56 0 125 -1 196 -3v-67c-97 -10 -163 -68 -163 -153
c0 -93 81 -155 195 -155c113 0 194 62 194 155c0 80 -60 137 -148 151v66c64 -2 128 -7 182 -13zM715 591v67c0 97 49 191 154 235l-45 61c-73 -32 -122 -89 -149 -158c-27 74 -77 133 -153 166l-37 -48l3 19c-82 17 -146 17 -275 17h-49v-210h223v-81h-225v-61h305v199
h-223v92c106 0 164 -3 235 -17l4 27c103 -47 152 -142 152 -242v-66h80z" />
</svg>
