<?xml version="1.0" standalone="no"?>
<!DOCTYPE svg PUBLIC "-//W3C//DTD SVG 1.1//EN" "http://www.w3.org/Graphics/SVG/1.1/DTD/svg11.dtd" >
<svg xmlns="http://www.w3.org/2000/svg" xmlns:xlink="http://www.w3.org/1999/xlink" version="1.1" viewBox="-10 0 930 1000">
   <path fill="currentColor"
d="M631 348v197h-78v-472h78v207h107v-222h79v492h-79v-202h-107zM163 242c0 55 49 92 119 92s118 -37 118 -92s-48 -92 -118 -92s-119 37 -119 92zM510 446l5 61c-139 21 -328 27 -451 27l-11 -69c56 0 125 -1 197 -3v-67c-97 -10 -163 -68 -163 -153
c0 -93 81 -155 195 -155c113 0 194 62 194 155c0 80 -60 137 -148 151v66c64 -2 128 -7 182 -13zM286 883h557v63h-642v-350h625v63h-540v79h529v60h-529v85z" />
</svg>
