<?xml version="1.0" standalone="no"?>
<!DOCTYPE svg PUBLIC "-//W3C//DTD SVG 1.1//EN" "http://www.w3.org/Graphics/SVG/1.1/DTD/svg11.dtd" >
<svg xmlns="http://www.w3.org/2000/svg" xmlns:xlink="http://www.w3.org/1999/xlink" version="1.1" viewBox="-10 0 930 1000">
   <path fill="currentColor"
d="M781 58v480h-82v-480h82zM199 237c0 57 55 93 144 93c88 0 144 -36 144 -93c0 -58 -56 -94 -144 -94c-89 0 -144 36 -144 94zM638 443l6 60c-190 24 -406 32 -584 34l-11 -70c79 0 166 -2 253 -5v-69c-114 -11 -184 -67 -184 -156c0 -100 88 -159 225 -159
c136 0 224 59 224 159c0 88 -69 145 -180 156v66c87 -4 171 -8 251 -16zM215 803v85c97 0 156 -3 227 -17l8 62c-82 15 -147 17 -266 17h-48v-204h202v-84h-204v-61h283v202h-202zM630 906c50 0 83 -22 83 -58s-33 -58 -83 -58c-48 0 -82 22 -82 58s34 58 82 58zM630 734
c88 0 153 44 153 114s-65 114 -153 114s-152 -44 -152 -114s64 -114 152 -114zM670 642h147v61h-371v-61h144v-76h80v76z" />
</svg>
