<?xml version="1.0" standalone="no"?>
<!DOCTYPE svg PUBLIC "-//W3C//DTD SVG 1.1//EN" "http://www.w3.org/Graphics/SVG/1.1/DTD/svg11.dtd" >
<svg xmlns="http://www.w3.org/2000/svg" xmlns:xlink="http://www.w3.org/1999/xlink" version="1.1" viewBox="-10 0 930 1000">
   <path fill="currentColor"
d="M194 246c0 63 60 106 148 106c87 0 148 -43 148 -106c0 -65 -61 -107 -148 -107c-88 0 -148 42 -148 107zM634 470l5 60c-195 34 -411 37 -570 37l-12 -67c73 0 157 0 244 -3v-85c-110 -12 -184 -76 -184 -166c0 -101 92 -168 225 -168s225 67 225 168
c0 90 -73 154 -184 166v81c85 -4 171 -11 251 -23zM281 715v161h426v-161h-426zM201 942v-292h586v292h-586zM705 58h82v549h-82v-549z" />
</svg>
