<?xml version="1.0" standalone="no"?>
<!DOCTYPE svg PUBLIC "-//W3C//DTD SVG 1.1//EN" "http://www.w3.org/Graphics/SVG/1.1/DTD/svg11.dtd" >
<svg xmlns="http://www.w3.org/2000/svg" xmlns:xlink="http://www.w3.org/1999/xlink" version="1.1" viewBox="-10 0 930 1000">
   <path fill="currentColor"
d="M143 732v-67h621v290h-82v-223h-539zM334 407v107h249v-107c-37 7 -79 11 -125 11c-45 0 -87 -4 -124 -11zM227 247c0 67 89 107 231 107s231 -40 231 -107s-89 -106 -231 -106s-231 39 -231 106zM664 514h200v66h-812v-66h201v-128c-71 -30 -110 -77 -110 -139
c0 -108 121 -171 315 -171s315 63 315 171c0 62 -40 109 -109 138v129z" />
</svg>
