<?xml version="1.0" standalone="no"?>
<!DOCTYPE svg PUBLIC "-//W3C//DTD SVG 1.1//EN" "http://www.w3.org/Graphics/SVG/1.1/DTD/svg11.dtd" >
<svg xmlns="http://www.w3.org/2000/svg" xmlns:xlink="http://www.w3.org/1999/xlink" version="1.1" viewBox="-10 0 930 1000">
   <path fill="currentColor"
d="M204 632v235c56 -2 128 -9 192 -32l14 67c-89 28 -175 34 -242 34h-45v-304h81zM594 905c55 0 94 -18 94 -49c0 -29 -39 -47 -94 -47c-54 0 -93 18 -93 47c0 31 39 49 93 49zM594 756c97 0 167 39 167 100c0 62 -70 102 -167 102c-96 0 -166 -40 -166 -102
c0 -61 70 -100 166 -100zM635 585v72h185v61h-451v-61h186v-72h80zM352 392v90h198v-90c-31 4 -63 6 -99 6c-35 0 -69 -2 -99 -6zM226 235c0 61 83 97 225 97c143 0 226 -36 226 -97c0 -60 -83 -97 -226 -97c-142 0 -225 37 -225 97zM634 482h223v65h-810v-65h223v-106
c-86 -27 -134 -75 -134 -141c0 -104 119 -163 315 -163c197 0 316 59 316 163c0 66 -48 114 -133 140v107z" />
</svg>
