<?xml version="1.0" standalone="no"?>
<!DOCTYPE svg PUBLIC "-//W3C//DTD SVG 1.1//EN" "http://www.w3.org/Graphics/SVG/1.1/DTD/svg11.dtd" >
<svg xmlns="http://www.w3.org/2000/svg" xmlns:xlink="http://www.w3.org/1999/xlink" version="1.1" viewBox="-10 0 930 1000">
   <path fill="currentColor"
d="M651 619v48c0 93 61 192 176 233l-46 60c-83 -33 -141 -94 -170 -167c-28 73 -82 138 -163 172c-79 -35 -132 -97 -159 -170c-30 72 -88 133 -170 166l-44 -61c114 -42 175 -141 175 -231v-48h79v46c0 79 38 164 119 215c83 -52 123 -139 123 -217v-46h80zM346 410v91
h210v-91c-32 5 -67 8 -105 8c-37 0 -72 -3 -105 -8zM225 245c0 65 92 106 226 106c135 0 227 -41 227 -106s-92 -106 -227 -106c-134 0 -226 41 -226 106zM639 501h218v66h-810v-66h217v-111c-80 -29 -128 -79 -128 -145c0 -106 126 -173 315 -173c190 0 317 67 317 173
c0 66 -48 116 -129 145v111z" />
</svg>
