<?xml version="1.0" standalone="no"?>
<!DOCTYPE svg PUBLIC "-//W3C//DTD SVG 1.1//EN" "http://www.w3.org/Graphics/SVG/1.1/DTD/svg11.dtd" >
<svg xmlns="http://www.w3.org/2000/svg" xmlns:xlink="http://www.w3.org/1999/xlink" version="1.1" viewBox="-10 0 930 1000">
   <path fill="currentColor"
d="M457 159c-136 0 -229 51 -229 130c0 80 93 131 229 131c137 0 230 -51 230 -131c0 -79 -93 -130 -230 -130zM457 486c-186 0 -313 -76 -313 -197c0 -120 127 -196 313 -196c187 0 314 76 314 196c0 121 -127 197 -314 197zM865 571v68h-367v316h-82v-316h-363v-68h812z
" />
</svg>
