<?xml version="1.0" standalone="no"?>
<!DOCTYPE svg PUBLIC "-//W3C//DTD SVG 1.1//EN" "http://www.w3.org/Graphics/SVG/1.1/DTD/svg11.dtd" >
<svg xmlns="http://www.w3.org/2000/svg" xmlns:xlink="http://www.w3.org/1999/xlink" version="1.1" viewBox="-10 0 930 1000">
   <path fill="currentColor"
d="M458 129c-147 0 -231 34 -231 94s84 94 231 94s231 -34 231 -94s-84 -94 -231 -94zM458 378c-197 0 -315 -54 -315 -155s118 -156 315 -156c198 0 315 55 315 156s-117 155 -315 155zM863 503h-364v84h261v202h-527v91h554v64h-634v-215h526v-80h-528v-62h266v-84h-364
v-66h810v66z" />
</svg>
