<?xml version="1.0" standalone="no"?>
<!DOCTYPE svg PUBLIC "-//W3C//DTD SVG 1.1//EN" "http://www.w3.org/Graphics/SVG/1.1/DTD/svg11.dtd" >
<svg xmlns="http://www.w3.org/2000/svg" xmlns:xlink="http://www.w3.org/1999/xlink" version="1.1" viewBox="-10 0 930 1000">
   <path fill="currentColor"
d="M452 139c-135 0 -227 40 -227 103c0 64 92 104 227 104c134 0 226 -40 226 -104c0 -63 -92 -103 -226 -103zM452 413c-191 0 -316 -66 -316 -171c0 -104 125 -170 316 -170c190 0 316 66 316 170c0 105 -126 171 -316 171zM663 623v43c0 95 65 191 182 230l-44 60
c-86 -32 -147 -94 -178 -168c-27 75 -79 143 -162 179c-82 -35 -135 -102 -161 -177c-32 74 -92 134 -176 166l-45 -60c116 -39 182 -135 182 -230v-43h78v43c0 76 40 165 122 218c82 -54 122 -143 122 -218v-43h80zM47 479h811v66h-364v133h-84v-133h-363v-66z" />
</svg>
