<?xml version="1.0" standalone="no"?>
<!DOCTYPE svg PUBLIC "-//W3C//DTD SVG 1.1//EN" "http://www.w3.org/Graphics/SVG/1.1/DTD/svg11.dtd" >
<svg xmlns="http://www.w3.org/2000/svg" xmlns:xlink="http://www.w3.org/1999/xlink" version="1.1" viewBox="-10 0 930 1000">
   <path fill="currentColor"
d="M516 490h188v-432h81v528h-81v-40h-188v-56zM338 133c-86 0 -139 30 -139 80s53 80 139 80s138 -30 138 -80s-52 -80 -138 -80zM338 355c-135 0 -219 -52 -219 -142c0 -89 84 -141 219 -141s218 52 218 141c0 90 -83 142 -218 142zM288 586v-119c-80 3 -159 4 -230 4
l-12 -67c177 -1 390 -3 578 -20l6 59c-84 10 -173 17 -260 21v122h-82zM221 805v83c98 0 155 -3 227 -17l8 62c-82 16 -146 17 -266 17h-47v-198h205v-79h-207v-58h286v190h-206zM636 908c48 0 82 -19 82 -51c0 -31 -34 -51 -82 -51c-49 0 -83 20 -83 51c0 32 34 51 83 51z
M636 755c86 0 151 38 151 102s-65 103 -151 103c-87 0 -152 -39 -152 -103s65 -102 152 -102zM677 667h147v61h-370v-61h143v-82h80v82z" />
</svg>
