<?xml version="1.0" standalone="no"?>
<!DOCTYPE svg PUBLIC "-//W3C//DTD SVG 1.1//EN" "http://www.w3.org/Graphics/SVG/1.1/DTD/svg11.dtd" >
<svg xmlns="http://www.w3.org/2000/svg" xmlns:xlink="http://www.w3.org/1999/xlink" version="1.1" viewBox="-10 0 930 1000">
   <path fill="currentColor"
d="M524 511h181v-453h82v568h-82v-55h-181v-60zM340 139c-87 0 -144 30 -144 80s57 81 144 81c88 0 144 -31 144 -81s-56 -80 -144 -80zM340 359c-133 0 -221 -53 -221 -140c0 -86 88 -140 221 -140s221 54 221 140c0 87 -88 140 -221 140zM294 621v-144
c-85 4 -165 5 -236 5l-10 -66c164 -1 388 -3 578 -30l6 58c-84 14 -171 23 -256 28v149h-82zM688 657v17c0 88 67 175 181 209l-39 61c-88 -29 -151 -88 -182 -159c-27 71 -82 134 -167 166c-85 -31 -139 -94 -166 -165c-32 71 -94 129 -182 158l-37 -61
c112 -35 180 -123 180 -209v-17h80v17c0 73 42 154 124 200c85 -47 128 -128 128 -200v-17h80z" />
</svg>
