<?xml version="1.0" standalone="no"?>
<!DOCTYPE svg PUBLIC "-//W3C//DTD SVG 1.1//EN" "http://www.w3.org/Graphics/SVG/1.1/DTD/svg11.dtd" >
<svg xmlns="http://www.w3.org/2000/svg" xmlns:xlink="http://www.w3.org/1999/xlink" version="1.1" viewBox="-10 0 930 1000">
   <path fill="currentColor"
d="M516 527h187v-469h82v576h-82v-49h-187v-58zM338 138c-86 0 -139 32 -139 86s53 86 139 86s138 -32 138 -86s-52 -86 -138 -86zM338 374c-134 0 -219 -55 -219 -150s85 -150 219 -150s218 55 218 150s-84 150 -218 150zM287 625v-138c-80 3 -158 4 -229 4l-12 -68
c177 -1 390 -3 577 -20l7 61c-85 9 -173 16 -260 20v141h-83zM164 666h622v289h-84v-100l-545 26l-12 -63l557 -19v-69h-538v-64z" />
</svg>
