<?xml version="1.0" standalone="no"?>
<!DOCTYPE svg PUBLIC "-//W3C//DTD SVG 1.1//EN" "http://www.w3.org/Graphics/SVG/1.1/DTD/svg11.dtd" >
<svg xmlns="http://www.w3.org/2000/svg" xmlns:xlink="http://www.w3.org/1999/xlink" version="1.1" viewBox="-10 0 930 1000">
   <path fill="currentColor"
d="M516 490h188v-432h82v528h-82v-40h-188v-56zM338 133c-86 0 -139 30 -139 80s53 80 139 80s138 -30 138 -80s-52 -80 -138 -80zM338 355c-135 0 -219 -52 -219 -142c0 -89 84 -141 219 -141s218 52 218 141c0 90 -83 142 -218 142zM288 586v-119c-81 3 -160 4 -231 4
l-11 -67c177 -1 390 -3 577 -20l7 59c-85 10 -173 17 -260 21v122h-82zM268 886h544v61h-629v-327h611v61h-526v74h514v57h-514v74z" />
</svg>
