<?xml version="1.0" standalone="no"?>
<!DOCTYPE svg PUBLIC "-//W3C//DTD SVG 1.1//EN" "http://www.w3.org/Graphics/SVG/1.1/DTD/svg11.dtd" >
<svg xmlns="http://www.w3.org/2000/svg" xmlns:xlink="http://www.w3.org/1999/xlink" version="1.1" viewBox="-10 0 930 1000">
   <path fill="currentColor"
d="M817 57v588h-79v-588h79zM416 527h161v-454h77v567h-77v-55h-161v-58zM289 154c-72 0 -120 32 -120 84s48 84 120 84c73 0 121 -32 121 -84s-48 -84 -121 -84zM289 383c-116 0 -194 -57 -194 -145s78 -145 194 -145s195 57 195 145s-79 145 -195 145zM257 632v-139
c-71 4 -138 6 -192 6l-9 -67c124 0 324 -5 468 -27l7 59c-60 11 -128 19 -195 24v144h-79zM281 881h549v64h-634v-270h627v63h-542v143z" />
</svg>
