<?xml version="1.0" standalone="no"?>
<!DOCTYPE svg PUBLIC "-//W3C//DTD SVG 1.1//EN" "http://www.w3.org/Graphics/SVG/1.1/DTD/svg11.dtd" >
<svg xmlns="http://www.w3.org/2000/svg" xmlns:xlink="http://www.w3.org/1999/xlink" version="1.1" viewBox="-10 0 930 1000">
   <path fill="currentColor"
d="M817 58v524h-78v-524h78zM418 487h158v-415h78v504h-78v-35h-158v-54zM296 144c-75 0 -121 28 -121 74c0 47 46 75 121 75c77 0 124 -28 124 -75c0 -46 -47 -74 -124 -74zM296 357c-121 0 -198 -52 -198 -139c0 -86 77 -137 198 -137c123 0 200 51 200 137
c0 87 -77 139 -200 139zM255 584v-121c-69 3 -135 4 -190 4l-9 -64c129 0 327 -4 467 -23l8 56c-61 11 -128 18 -197 22v126h-79zM716 614v48c0 96 49 187 150 229l-44 62c-72 -32 -120 -88 -146 -157c-26 73 -77 133 -152 166l-40 -54l4 25c-81 16 -144 17 -271 17h-48
v-198h220v-72h-222v-60h301v189h-220v81c104 0 161 -3 231 -17l4 26c104 -43 153 -139 153 -241v-45z" />
</svg>
