<?xml version="1.0" standalone="no"?>
<!DOCTYPE svg PUBLIC "-//W3C//DTD SVG 1.1//EN" "http://www.w3.org/Graphics/SVG/1.1/DTD/svg11.dtd" >
<svg xmlns="http://www.w3.org/2000/svg" xmlns:xlink="http://www.w3.org/1999/xlink" version="1.1" viewBox="-10 0 930 1000">
   <path fill="currentColor"
d="M817 58v588h-79v-588h79zM416 529h161v-456h77v567h-77v-53h-161v-58zM294 148c-75 0 -122 32 -122 84s47 84 122 84s122 -32 122 -84s-47 -84 -122 -84zM294 382c-121 0 -199 -56 -199 -150s78 -150 199 -150s199 56 199 150s-78 150 -199 150zM257 633v-136
c-70 4 -137 5 -192 5l-9 -69c129 0 328 -4 468 -22l7 59c-59 10 -128 18 -195 23v140h-79zM697 660v21c0 91 68 183 185 219l-42 60c-86 -30 -149 -88 -182 -159c-28 74 -81 138 -163 173v-1l-1 1c-82 -34 -136 -98 -163 -172c-34 70 -96 128 -182 158l-41 -60
c116 -37 186 -130 186 -219v-21h79v21c0 80 40 163 122 211c82 -49 122 -132 122 -211v-21h80z" />
</svg>
