<?xml version="1.0" standalone="no"?>
<!DOCTYPE svg PUBLIC "-//W3C//DTD SVG 1.1//EN" "http://www.w3.org/Graphics/SVG/1.1/DTD/svg11.dtd" >
<svg xmlns="http://www.w3.org/2000/svg" xmlns:xlink="http://www.w3.org/1999/xlink" version="1.1" viewBox="-10 0 930 1000">
   <path fill="currentColor"
d="M781 57v562h-82v-562h82zM346 143c-85 0 -143 41 -143 103c0 61 58 102 143 102c84 0 143 -41 143 -102c0 -62 -59 -103 -143 -103zM346 409c-131 0 -223 -66 -223 -163c0 -98 92 -164 223 -164s223 66 223 164c0 97 -92 163 -223 163zM311 641v-112c-87 3 -171 4 -245 4
l-11 -69c170 -1 392 -2 583 -27l6 61c-82 14 -167 22 -251 27v116h-82zM687 658v28c0 91 67 179 180 215l-38 60c-89 -29 -151 -88 -182 -161c-27 72 -82 136 -167 170c-85 -33 -139 -96 -166 -168c-31 71 -93 130 -180 159l-40 -60c115 -37 181 -126 181 -215v-28h79v28
c0 75 43 158 126 206c85 -49 127 -132 127 -206v-28h80z" />
</svg>
