<?xml version="1.0" standalone="no"?>
<!DOCTYPE svg PUBLIC "-//W3C//DTD SVG 1.1//EN" "http://www.w3.org/Graphics/SVG/1.1/DTD/svg11.dtd" >
<svg xmlns="http://www.w3.org/2000/svg" xmlns:xlink="http://www.w3.org/1999/xlink" version="1.1" viewBox="-10 0 930 1000">
   <path fill="currentColor"
d="M458 146c-136 0 -228 43 -228 113s92 113 228 113c137 0 228 -43 228 -113s-91 -113 -228 -113zM458 438c-189 0 -314 -68 -314 -179s125 -179 314 -179c190 0 314 68 314 179s-124 179 -314 179zM234 683v184h547v67h-629v-251h82zM53 506h811v67h-206v186h-82v-186
h-158v186h-82v-186h-283v-67z" />
</svg>
