<?xml version="1.0" standalone="no"?>
<!DOCTYPE svg PUBLIC "-//W3C//DTD SVG 1.1//EN" "http://www.w3.org/Graphics/SVG/1.1/DTD/svg11.dtd" >
<svg xmlns="http://www.w3.org/2000/svg" xmlns:xlink="http://www.w3.org/1999/xlink" version="1.1" viewBox="-10 0 930 1000">
   <path fill="currentColor"
d="M452 137c-142 0 -225 36 -225 94c0 59 83 95 225 95c141 0 224 -36 224 -95c0 -58 -83 -94 -224 -94zM452 393c-196 0 -316 -59 -316 -162c0 -102 120 -161 316 -161s316 59 316 161c0 103 -120 162 -316 162zM201 641v230c56 -2 128 -10 194 -33l13 67
c-88 29 -175 34 -242 34h-45v-298h80zM608 910c55 0 93 -18 93 -49s-38 -49 -93 -49s-93 18 -93 49s38 49 93 49zM608 758c96 0 166 40 166 103s-70 103 -166 103s-166 -40 -166 -103s70 -103 166 -103zM858 517h-216v86h5v56h181v61h-439v-61h178v-32h-7v-110h-217v110h-82
v-110h-215v-63h812v63z" />
</svg>
