<?xml version="1.0" standalone="no"?>
<!DOCTYPE svg PUBLIC "-//W3C//DTD SVG 1.1//EN" "http://www.w3.org/Graphics/SVG/1.1/DTD/svg11.dtd" >
<svg xmlns="http://www.w3.org/2000/svg" xmlns:xlink="http://www.w3.org/1999/xlink" version="1.1" viewBox="-10 0 930 1000">
   <path fill="currentColor"
d="M451 133c-141 0 -225 35 -225 90c0 56 84 91 225 91s226 -35 226 -91c0 -55 -85 -90 -226 -90zM451 379c-197 0 -314 -56 -314 -156s117 -156 314 -156s315 56 315 156s-118 156 -315 156zM857 493h-217v87h142v63h-226v91h217v57h-217v94h235v63h-314v-368h79v-87h-208
v88h82v212h-223v94c104 0 164 -3 241 -16l6 63c-87 15 -152 16 -276 16h-49v-215h223v-93h-225v-61h137v-88h-217v-64h810v64z" />
</svg>
