<?xml version="1.0" standalone="no"?>
<!DOCTYPE svg PUBLIC "-//W3C//DTD SVG 1.1//EN" "http://www.w3.org/Graphics/SVG/1.1/DTD/svg11.dtd" >
<svg xmlns="http://www.w3.org/2000/svg" xmlns:xlink="http://www.w3.org/1999/xlink" version="1.1" viewBox="-10 0 930 1000">
   <path fill="currentColor"
d="M452 139c-135 0 -227 41 -227 106s92 106 227 106c134 0 226 -41 226 -106s-92 -106 -226 -106zM452 418c-190 0 -316 -67 -316 -173s126 -173 316 -173c189 0 316 67 316 173s-127 173 -316 173zM124 704v-68h300v322h-81v-254h-219zM669 630v53c0 87 51 178 154 217
l-45 63c-74 -29 -124 -86 -151 -152c-28 65 -80 123 -156 155l-44 -61c106 -43 161 -139 161 -217v-58h81zM47 496h811v68h-811v-68z" />
</svg>
