<?xml version="1.0" standalone="no"?>
<!DOCTYPE svg PUBLIC "-//W3C//DTD SVG 1.1//EN" "http://www.w3.org/Graphics/SVG/1.1/DTD/svg11.dtd" >
<svg xmlns="http://www.w3.org/2000/svg" xmlns:xlink="http://www.w3.org/1999/xlink" version="1.1" viewBox="-10 0 930 1000">
   <path fill="currentColor"
d="M451 131c-142 0 -225 33 -225 87c0 55 83 88 225 88c143 0 226 -33 226 -88c0 -54 -83 -87 -226 -87zM451 372c-196 0 -315 -55 -315 -154c0 -98 119 -154 315 -154c197 0 317 56 317 154c0 99 -120 154 -317 154zM201 788v92c112 0 171 -2 244 -16l9 63
c-83 15 -147 16 -281 16h-50v-214h213v-88h-215v-59h293v206h-213zM625 900c50 0 82 -23 82 -59c0 -37 -32 -59 -82 -59c-48 0 -81 22 -81 59c0 36 33 59 81 59zM625 726c87 0 152 44 152 115c0 70 -65 114 -152 114c-86 0 -151 -44 -151 -114c0 -71 65 -115 151 -115z
M665 549v84h150v61h-377v-61h147v-84h80zM46 434h812v66h-812v-66z" />
</svg>
