<?xml version="1.0" standalone="no"?>
<!DOCTYPE svg PUBLIC "-//W3C//DTD SVG 1.1//EN" "http://www.w3.org/Graphics/SVG/1.1/DTD/svg11.dtd" >
<svg xmlns="http://www.w3.org/2000/svg" xmlns:xlink="http://www.w3.org/1999/xlink" version="1.1" viewBox="-10 0 930 1000">
   <path fill="currentColor"
d="M458 74c195 0 315 61 315 165c0 105 -120 166 -315 166s-315 -61 -315 -166c0 -104 120 -165 315 -165zM458 137c-143 0 -231 38 -231 102c0 65 88 103 231 103s231 -38 231 -103c0 -64 -88 -102 -231 -102zM155 602h81v98h443v-98h82v340h-606v-340zM236 763v113h443
v-113h-443zM52 477h812v66h-812v-66z" />
</svg>
