<?xml version="1.0" standalone="no"?>
<!DOCTYPE svg PUBLIC "-//W3C//DTD SVG 1.1//EN" "http://www.w3.org/Graphics/SVG/1.1/DTD/svg11.dtd" >
<svg xmlns="http://www.w3.org/2000/svg" xmlns:xlink="http://www.w3.org/1999/xlink" version="1.1" viewBox="-10 0 930 1000">
   <path fill="currentColor"
d="M781 58v494h-82v-494h82zM343 142c-87 0 -142 37 -142 95s55 94 142 94c88 0 143 -36 143 -94s-55 -95 -143 -95zM343 396c-135 0 -222 -60 -222 -159c0 -100 87 -160 222 -160s222 60 222 160c0 99 -87 159 -222 159zM629 436l7 60c-189 26 -403 32 -572 33l-10 -69
c173 -1 390 -4 575 -24zM233 798v90c92 0 152 -3 224 -17l8 62c-85 16 -151 17 -265 17h-47v-206h212v-82h-214v-63h294v199h-212zM614 662v224h67v-224h-67zM747 886h65v64h-325v-64h61v-224h-58v-63h315v63h-58v224z" />
</svg>
