<?xml version="1.0" standalone="no"?>
<!DOCTYPE svg PUBLIC "-//W3C//DTD SVG 1.1//EN" "http://www.w3.org/Graphics/SVG/1.1/DTD/svg11.dtd" >
<svg xmlns="http://www.w3.org/2000/svg" xmlns:xlink="http://www.w3.org/1999/xlink" version="1.1" viewBox="-10 0 930 1000">
   <path fill="currentColor"
d="M781 58v490h-82v-490h82zM343 142c-87 0 -142 37 -142 95s55 94 142 94c88 0 143 -36 143 -94s-55 -95 -143 -95zM343 396c-135 0 -222 -60 -222 -159c0 -100 87 -160 222 -160s222 60 222 160c0 99 -87 159 -222 159zM629 434l7 60c-189 26 -403 32 -572 33l-10 -69
c173 -1 390 -4 575 -24zM216 799v87c97 -1 155 -4 227 -17l8 61c-83 16 -147 18 -267 18h-47v-206h202v-84h-204v-61h283v202h-202zM630 904c50 0 83 -22 83 -58s-33 -58 -83 -58c-49 0 -81 22 -81 58s32 58 81 58zM630 734c89 0 153 43 153 112s-64 111 -153 111
c-87 0 -151 -42 -151 -111s64 -112 151 -112zM670 642h148v61h-372v-61h144v-83h80v83z" />
</svg>
