<?xml version="1.0" standalone="no"?>
<!DOCTYPE svg PUBLIC "-//W3C//DTD SVG 1.1//EN" "http://www.w3.org/Graphics/SVG/1.1/DTD/svg11.dtd" >
<svg xmlns="http://www.w3.org/2000/svg" xmlns:xlink="http://www.w3.org/1999/xlink" version="1.1" viewBox="-10 0 930 1000">
   <path fill="currentColor"
d="M201 647h586v295h-586v-295zM707 713h-426v163h426v-163zM705 57h82v543h-82v-543zM69 559l-11 -66c163 0 386 -2 576 -29l5 58c-195 34 -410 37 -570 37zM342 85c134 0 225 67 225 168s-91 167 -225 167s-225 -66 -225 -167s91 -168 225 -168zM342 146
c-87 0 -148 43 -148 107s61 106 148 106s148 -42 148 -106s-61 -107 -148 -107z" />
</svg>
