<?xml version="1.0" standalone="no"?>
<!DOCTYPE svg PUBLIC "-//W3C//DTD SVG 1.1//EN" "http://www.w3.org/Graphics/SVG/1.1/DTD/svg11.dtd" >
<svg xmlns="http://www.w3.org/2000/svg" xmlns:xlink="http://www.w3.org/1999/xlink" version="1.1" viewBox="-10 0 930 1000">
   <path fill="currentColor"
d="M343 149c-86 0 -142 41 -142 104c0 64 56 105 142 105s143 -41 143 -105c0 -63 -57 -104 -143 -104zM343 423c-132 0 -222 -66 -222 -170c0 -103 90 -170 222 -170c133 0 222 67 222 170c0 104 -89 170 -222 170zM630 476l8 62c-188 25 -401 30 -569 30l-11 -70
c172 -1 387 -4 572 -22zM167 713v-66h614v309h-83v-107l-537 24l-12 -64l549 -19v-77h-531zM699 58h82v551h-82v-551z" />
</svg>
