<?xml version="1.0" standalone="no"?>
<!DOCTYPE svg PUBLIC "-//W3C//DTD SVG 1.1//EN" "http://www.w3.org/Graphics/SVG/1.1/DTD/svg11.dtd" >
<svg xmlns="http://www.w3.org/2000/svg" xmlns:xlink="http://www.w3.org/1999/xlink" version="1.1" viewBox="-10 0 930 1000">
   <path fill="currentColor"
d="M781 58v551h-82v-551h82zM343 149c-86 0 -142 41 -142 104c0 64 56 105 142 105s143 -41 143 -105c0 -63 -57 -104 -143 -104zM343 423c-132 0 -222 -66 -222 -170c0 -103 90 -170 222 -170c133 0 222 67 222 170c0 104 -89 170 -222 170zM630 470l8 60
c-188 25 -402 29 -569 30l-11 -69c172 0 387 -3 572 -21zM400 703v179h185v-179h-185zM667 882h142v62h-635v-62h144v-179h-136v-63h618v63h-133v179z" />
</svg>
