<?xml version="1.0" standalone="no"?>
<!DOCTYPE svg PUBLIC "-//W3C//DTD SVG 1.1//EN" "http://www.w3.org/Graphics/SVG/1.1/DTD/svg11.dtd" >
<svg xmlns="http://www.w3.org/2000/svg" xmlns:xlink="http://www.w3.org/1999/xlink" version="1.1" viewBox="-10 0 930 1000">
   <path fill="currentColor"
d="M781 58v515h-82v-515h82zM343 143c-89 0 -144 32 -144 86s56 86 144 86s144 -32 144 -86s-56 -86 -144 -86zM343 380c-137 0 -225 -56 -225 -151s88 -151 225 -151s224 56 224 151s-87 151 -224 151zM639 422l5 57c-197 30 -415 35 -585 36l-11 -65
c176 -1 398 -4 591 -28zM488 899c105 0 168 -17 168 -52s-63 -52 -168 -52s-167 17 -167 52s62 52 167 52zM488 739c159 0 253 38 253 108s-94 108 -253 108c-158 0 -252 -38 -252 -108s94 -108 252 -108zM529 630h279v64h-639v-64h278v-80h82v80z" />
</svg>
