<?xml version="1.0" standalone="no"?>
<!DOCTYPE svg PUBLIC "-//W3C//DTD SVG 1.1//EN" "http://www.w3.org/Graphics/SVG/1.1/DTD/svg11.dtd" >
<svg xmlns="http://www.w3.org/2000/svg" xmlns:xlink="http://www.w3.org/1999/xlink" version="1.1" viewBox="-10 0 930 1000">
   <path fill="currentColor"
d="M778 58v464h-82v-464h82zM156 308c0 82 61 137 150 137c88 0 149 -55 149 -137c0 -81 -61 -137 -149 -137c-89 0 -150 56 -150 137zM537 308c0 125 -95 206 -231 206c-138 0 -232 -81 -232 -206c0 -124 94 -206 232 -206c136 0 231 82 231 206zM230 624v243
c56 -2 128 -10 192 -32l14 67c-89 28 -176 34 -243 34h-44v-312h81zM627 906c54 0 92 -18 92 -51c0 -32 -38 -51 -92 -51c-55 0 -94 19 -94 51c0 33 39 51 94 51zM627 749c95 0 165 41 165 106s-70 107 -165 107c-97 0 -167 -42 -167 -107s70 -106 167 -106zM667 644h184v61
h-451v-61h187v-87h80v87z" />
</svg>
