<?xml version="1.0" standalone="no"?>
<!DOCTYPE svg PUBLIC "-//W3C//DTD SVG 1.1//EN" "http://www.w3.org/Graphics/SVG/1.1/DTD/svg11.dtd" >
<svg xmlns="http://www.w3.org/2000/svg" xmlns:xlink="http://www.w3.org/1999/xlink" version="1.1" viewBox="-10 0 930 1000">
   <path fill="currentColor"
d="M781 58v516h-85v-516h85zM156 317c0 84 61 141 150 141c88 0 149 -57 149 -141s-61 -141 -149 -141c-89 0 -150 57 -150 141zM537 317c0 127 -95 210 -231 210c-137 0 -232 -83 -232 -210s95 -210 232 -210c136 0 231 83 231 210zM283 876h515v68h-599v-316h592v67h-508
v181z" />
</svg>
