<?xml version="1.0" standalone="no"?>
<!DOCTYPE svg PUBLIC "-//W3C//DTD SVG 1.1//EN" "http://www.w3.org/Graphics/SVG/1.1/DTD/svg11.dtd" >
<svg xmlns="http://www.w3.org/2000/svg" xmlns:xlink="http://www.w3.org/1999/xlink" version="1.1" viewBox="-10 0 930 1000">
   <path fill="currentColor"
d="M781 57v459h-85v-459h85zM156 290c0 80 61 132 150 132c88 0 149 -52 149 -132c0 -79 -61 -132 -149 -132c-89 0 -150 53 -150 132zM537 290c0 121 -94 201 -231 201c-138 0 -232 -80 -232 -201s94 -201 232 -201c137 0 231 80 231 201zM234 784v101c92 0 150 -3 224 -17
l7 65c-85 16 -151 17 -264 17h-48v-221h213v-88h-215v-66h295v209h-212zM611 641v243h71v-243h-71zM748 884h61v66h-326v-66h62v-243h-59v-66h318v66h-56v243z" />
</svg>
