<?xml version="1.0" standalone="no"?>
<!DOCTYPE svg PUBLIC "-//W3C//DTD SVG 1.1//EN" "http://www.w3.org/Graphics/SVG/1.1/DTD/svg11.dtd" >
<svg xmlns="http://www.w3.org/2000/svg" xmlns:xlink="http://www.w3.org/1999/xlink" version="1.1" viewBox="-10 0 930 1000">
   <path fill="currentColor"
d="M707 58h82v481h-82v-481zM211 583h81v110h416v-110h81v359h-578v-359zM292 757v119h416v-119h-416zM307 100c136 0 235 84 235 206c0 124 -99 207 -235 207c-135 0 -233 -83 -233 -207c0 -122 98 -206 233 -206zM307 168c-89 0 -153 57 -153 138c0 82 64 139 153 139
c91 0 155 -57 155 -139c0 -81 -64 -138 -155 -138z" />
</svg>
