<?xml version="1.0" standalone="no"?>
<!DOCTYPE svg PUBLIC "-//W3C//DTD SVG 1.1//EN" "http://www.w3.org/Graphics/SVG/1.1/DTD/svg11.dtd" >
<svg xmlns="http://www.w3.org/2000/svg" xmlns:xlink="http://www.w3.org/1999/xlink" version="1.1" viewBox="-10 0 930 1000">
   <path fill="currentColor"
d="M779 57v467h-82v-467h82zM156 290c0 80 61 132 149 132c89 0 150 -52 150 -132c0 -79 -61 -132 -149 -132c-89 0 -150 53 -150 132zM537 290c0 121 -94 201 -231 201c-138 0 -232 -80 -232 -201s94 -201 232 -201c137 0 231 80 231 201zM487 909c102 0 165 -21 165 -60
s-63 -60 -165 -60c-103 0 -165 21 -165 60s62 60 165 60zM487 731c155 0 250 43 250 118s-95 118 -250 118s-250 -43 -250 -118s95 -118 250 -118zM528 618h271v63h-626v-63h273v-98h82v98z" />
</svg>
