<?xml version="1.0" standalone="no"?>
<!DOCTYPE svg PUBLIC "-//W3C//DTD SVG 1.1//EN" "http://www.w3.org/Graphics/SVG/1.1/DTD/svg11.dtd" >
<svg xmlns="http://www.w3.org/2000/svg" xmlns:xlink="http://www.w3.org/1999/xlink" version="1.1" viewBox="-10 0 930 1000">
   <path fill="currentColor"
d="M573 475l-38 65c-102 -34 -180 -105 -220 -195c-38 99 -119 176 -227 214l-40 -66c134 -44 225 -155 225 -280v-30h-200v-67h480v67h-197v30c0 114 86 219 217 262zM668 876v-112h-403v112h403zM668 699v-108h81v351h-565v-351h81v108h403zM882 264v68h-133v217h-82v-492
h82v207h133z" />
</svg>
