<?xml version="1.0" standalone="no"?>
<!DOCTYPE svg PUBLIC "-//W3C//DTD SVG 1.1//EN" "http://www.w3.org/Graphics/SVG/1.1/DTD/svg11.dtd" >
<svg xmlns="http://www.w3.org/2000/svg" xmlns:xlink="http://www.w3.org/1999/xlink" version="1.1" viewBox="-10 0 930 1000">
   <path fill="currentColor"
d="M492 484l-43 62c-82 -33 -140 -95 -170 -171c-31 85 -92 157 -178 195l-45 -63c118 -50 182 -162 182 -273v-42h-164v-67h402v67h-158v42c0 108 62 206 174 250zM301 690v186h429v-186h-429zM221 942v-317h589v317h-589zM731 58h79v520h-79v-231h-113v220h-77v-492h77
v205h113v-222z" />
</svg>
