<?xml version="1.0" standalone="no"?>
<!DOCTYPE svg PUBLIC "-//W3C//DTD SVG 1.1//EN" "http://www.w3.org/Graphics/SVG/1.1/DTD/svg11.dtd" >
<svg xmlns="http://www.w3.org/2000/svg" xmlns:xlink="http://www.w3.org/1999/xlink" version="1.1" viewBox="-10 0 930 1000">
   <path fill="currentColor"
d="M618 353v223h-77v-501h77v211h113v-228h79v591h-79v-296h-113zM492 495l-43 63c-82 -34 -139 -96 -170 -172c-30 86 -92 159 -178 197l-45 -63c118 -51 182 -164 182 -275v-45h-164v-67h402v67h-158v45c0 108 62 206 174 250zM553 620v28c0 117 145 214 303 238l-31 64
c-134 -23 -260 -92 -314 -192c-55 100 -179 169 -313 192l-31 -64c157 -24 302 -121 302 -238v-28h84z" />
</svg>
