<?xml version="1.0" standalone="no"?>
<!DOCTYPE svg PUBLIC "-//W3C//DTD SVG 1.1//EN" "http://www.w3.org/Graphics/SVG/1.1/DTD/svg11.dtd" >
<svg xmlns="http://www.w3.org/2000/svg" xmlns:xlink="http://www.w3.org/1999/xlink" version="1.1" viewBox="-10 0 930 1000">
   <path fill="currentColor"
d="M614 327v192h-77v-444h77v185h117v-203h79v517h-79v-247h-117zM490 438l-39 64c-85 -32 -144 -94 -174 -168c-30 82 -92 154 -177 192l-45 -62c114 -47 181 -156 181 -256v-28h-164v-67h400v67h-155v30c0 92 64 187 173 228zM818 715h-257c17 87 150 156 296 173l-28 61
c-137 -16 -261 -75 -314 -161c-52 88 -175 145 -313 161l-27 -61c147 -17 279 -84 295 -173h-257v-66h261v-86h82v86h262v66z" />
</svg>
