<?xml version="1.0" standalone="no"?>
<!DOCTYPE svg PUBLIC "-//W3C//DTD SVG 1.1//EN" "http://www.w3.org/Graphics/SVG/1.1/DTD/svg11.dtd" >
<svg xmlns="http://www.w3.org/2000/svg" xmlns:xlink="http://www.w3.org/1999/xlink" version="1.1" viewBox="-10 0 930 1000">
   <path fill="currentColor"
d="M615 328v199h-78v-453h78v185h118v-202h78v477h-78v-206h-118zM490 438l-39 64c-85 -32 -144 -94 -174 -168c-30 83 -92 155 -177 192l-45 -61c114 -47 181 -157 181 -257v-28h-164v-67h400v67h-155v30c0 92 64 187 173 228zM289 882h548v62h-631v-358h612v61h-529v87
h518v61h-518v87z" />
</svg>
