<?xml version="1.0" standalone="no"?>
<!DOCTYPE svg PUBLIC "-//W3C//DTD SVG 1.1//EN" "http://www.w3.org/Graphics/SVG/1.1/DTD/svg11.dtd" >
<svg xmlns="http://www.w3.org/2000/svg" xmlns:xlink="http://www.w3.org/1999/xlink" version="1.1" viewBox="-10 0 930 1000">
   <path fill="currentColor"
d="M576 439l-37 65c-104 -31 -183 -97 -223 -181c-38 95 -122 170 -231 204l-40 -64c135 -42 228 -146 228 -264v-25h-200v-67h480v67h-197v24c0 106 89 203 220 241zM262 778v104h520v63h-600v-228h486v-92h-489v-63h570v216h-487zM881 232h-132v103h132v66h-132v118h-82
v-462h82v109h132v66z" />
</svg>
