<?xml version="1.0" standalone="no"?>
<!DOCTYPE svg PUBLIC "-//W3C//DTD SVG 1.1//EN" "http://www.w3.org/Graphics/SVG/1.1/DTD/svg11.dtd" >
<svg xmlns="http://www.w3.org/2000/svg" xmlns:xlink="http://www.w3.org/1999/xlink" version="1.1" viewBox="-10 0 930 1000">
   <path fill="currentColor"
d="M570 435l-44 65c-98 -32 -173 -97 -213 -179c-37 96 -117 167 -223 203l-45 -67c136 -40 224 -144 224 -273v-11h-198v-67h480v67h-198v17c0 108 86 207 217 245zM216 785v101c101 0 178 -3 273 -18l7 64c-107 17 -189 18 -308 18h-54v-226h214v-86h-216v-65h298v212
h-214zM465 640v-67h280v380h-85v-313h-195zM878 242h-133v108h133v67h-133v105h-84v-464h84v116h133v68z" />
</svg>
