<?xml version="1.0" standalone="no"?>
<!DOCTYPE svg PUBLIC "-//W3C//DTD SVG 1.1//EN" "http://www.w3.org/Graphics/SVG/1.1/DTD/svg11.dtd" >
<svg xmlns="http://www.w3.org/2000/svg" xmlns:xlink="http://www.w3.org/1999/xlink" version="1.1" viewBox="-10 0 930 1000">
   <path fill="currentColor"
d="M569 435l-44 65c-98 -32 -172 -97 -212 -179c-37 96 -117 167 -223 203l-45 -67c137 -40 224 -144 224 -273v-11h-198v-67h479v67h-197v17c0 108 86 207 216 245zM199 785v103c89 0 148 -3 223 -15l7 61c-86 15 -152 16 -262 16h-47v-224h202v-88h-205v-65h285v212h-203z
M669 885v-119h-144v119h144zM669 702v-128h76v376h-296v-376h76v128h144zM878 242h-133v108h133v67h-133v105h-84v-464h84v116h133v68z" />
</svg>
