<?xml version="1.0" standalone="no"?>
<!DOCTYPE svg PUBLIC "-//W3C//DTD SVG 1.1//EN" "http://www.w3.org/Graphics/SVG/1.1/DTD/svg11.dtd" >
<svg xmlns="http://www.w3.org/2000/svg" xmlns:xlink="http://www.w3.org/1999/xlink" version="1.1" viewBox="-10 0 930 1000">
   <path fill="currentColor"
d="M734 236h-120v117h120v-117zM614 420v104h-77v-450h77v94h120v-110h77v470h-77v-108h-120zM246 784v101c94 -1 155 -4 229 -17l7 64c-86 17 -153 18 -269 18h-48v-221h217v-88h-219v-66h300v209h-217zM317 180v30c0 92 64 187 173 228l-39 64c-85 -32 -144 -94 -174 -168
c-30 82 -92 155 -177 192l-45 -62c114 -47 181 -156 181 -256v-28h-164v-67h400v67h-155zM636 641v243h71v-243h-71zM773 884h63v66h-331v-66h65v-243h-61v-66h324v66h-60v243z" />
</svg>
