<?xml version="1.0" standalone="no"?>
<!DOCTYPE svg PUBLIC "-//W3C//DTD SVG 1.1//EN" "http://www.w3.org/Graphics/SVG/1.1/DTD/svg11.dtd" >
<svg xmlns="http://www.w3.org/2000/svg" xmlns:xlink="http://www.w3.org/1999/xlink" version="1.1" viewBox="-10 0 930 1000">
   <path fill="currentColor"
d="M490 453l-39 65c-85 -32 -144 -94 -174 -168c-30 82 -92 154 -177 192l-45 -62c114 -47 181 -156 181 -256v-38h-164v-67h400v67h-155v39c0 93 64 188 173 228zM727 878v-116h-426v116h426zM727 697v-105h84v354h-594v-354h84v105h426zM614 367h120v-123h-120v123z
M734 58h77v488h-77v-111h-120v104h-77v-465h77v101h120v-117z" />
</svg>
