<?xml version="1.0" standalone="no"?>
<!DOCTYPE svg PUBLIC "-//W3C//DTD SVG 1.1//EN" "http://www.w3.org/Graphics/SVG/1.1/DTD/svg11.dtd" >
<svg xmlns="http://www.w3.org/2000/svg" xmlns:xlink="http://www.w3.org/1999/xlink" version="1.1" viewBox="-10 0 930 1000">
   <path fill="currentColor"
d="M731 243h-117v101h117v-101zM614 411v108h-77v-444h77v101h117v-118h79v516h-79v-163h-117zM490 438l-39 64c-85 -31 -144 -94 -174 -168c-30 83 -92 155 -177 192l-45 -61c114 -47 181 -157 181 -257v-28h-164v-67h400v67h-155v30c0 93 64 188 173 228zM818 715h-257
c17 87 150 156 296 173l-28 61c-137 -16 -261 -75 -314 -161c-52 88 -175 145 -313 161l-27 -61c147 -17 279 -84 295 -173h-257v-66h261v-85h82v85h262v66z" />
</svg>
