<?xml version="1.0" standalone="no"?>
<!DOCTYPE svg PUBLIC "-//W3C//DTD SVG 1.1//EN" "http://www.w3.org/Graphics/SVG/1.1/DTD/svg11.dtd" >
<svg xmlns="http://www.w3.org/2000/svg" xmlns:xlink="http://www.w3.org/1999/xlink" version="1.1" viewBox="-10 0 930 1000">
   <path fill="currentColor"
d="M734 236h-120v117h120v-117zM614 420v96h-77v-442h77v94h120v-110h77v466h-77v-104h-120zM490 438l-39 65c-85 -32 -144 -94 -174 -168c-30 82 -92 154 -177 192l-45 -62c114 -47 181 -156 181 -257v-28h-164v-67h400v67h-155v30c0 93 64 188 173 228zM289 882h548v62
h-631v-369h612v61h-529v92h518v61h-518v93z" />
</svg>
