<?xml version="1.0" standalone="no"?>
<!DOCTYPE svg PUBLIC "-//W3C//DTD SVG 1.1//EN" "http://www.w3.org/Graphics/SVG/1.1/DTD/svg11.dtd" >
<svg xmlns="http://www.w3.org/2000/svg" xmlns:xlink="http://www.w3.org/1999/xlink" version="1.1" viewBox="-10 0 930 1000">
   <path fill="currentColor"
d="M520 250h182v-192h83v461h-83v-199h-182v-70zM570 443l-43 63c-98 -33 -174 -100 -213 -186c-38 97 -119 170 -224 207l-46 -65c138 -43 226 -151 226 -279v-13h-197v-67h477v67h-197v17c0 113 87 216 217 256zM275 882h534v62h-617v-368h600v61h-517v91h507v61h-507v93z
" />
</svg>
