<?xml version="1.0" standalone="no"?>
<!DOCTYPE svg PUBLIC "-//W3C//DTD SVG 1.1//EN" "http://www.w3.org/Graphics/SVG/1.1/DTD/svg11.dtd" >
<svg xmlns="http://www.w3.org/2000/svg" xmlns:xlink="http://www.w3.org/1999/xlink" version="1.1" viewBox="-10 0 930 1000">
   <path fill="currentColor"
d="M424 255h134v-182h78v445h-78v-195h-134v-68zM229 791v96c97 0 159 -2 238 -15l10 62c-92 15 -161 16 -279 16h-49v-218h219v-94h-221v-64h300v217h-218zM315 178v26c0 97 64 199 173 244l-40 62c-83 -34 -141 -98 -171 -174c-31 84 -92 157 -177 194l-46 -61
c115 -49 182 -161 182 -263v-28h-164v-67h398v67h-155zM737 883v-118h-163v118h163zM737 702v-130h74v377h-311v-377h74v130h163zM732 58h79v468h-79v-468z" />
</svg>
