<?xml version="1.0" standalone="no"?>
<!DOCTYPE svg PUBLIC "-//W3C//DTD SVG 1.1//EN" "http://www.w3.org/Graphics/SVG/1.1/DTD/svg11.dtd" >
<svg xmlns="http://www.w3.org/2000/svg" xmlns:xlink="http://www.w3.org/1999/xlink" version="1.1" viewBox="-10 0 930 1000">
   <path fill="currentColor"
d="M811 58v469h-79v-469h79zM424 255h134v-181h78v444h-78v-195h-134v-68zM488 448l-40 63c-83 -34 -141 -99 -171 -175c-31 84 -92 157 -177 195l-45 -62c114 -49 181 -161 181 -263v-28h-164v-67h398v67h-155v26c0 97 64 199 173 244zM237 790v98c72 0 148 -3 246 -16
l6 62c-113 15 -198 16 -279 16h-49v-218h229v-95h-231v-63h306v216h-228zM592 885h237v63h-316v-374h307v63h-228v93h219v58h-219v97z" />
</svg>
