<?xml version="1.0" standalone="no"?>
<!DOCTYPE svg PUBLIC "-//W3C//DTD SVG 1.1//EN" "http://www.w3.org/Graphics/SVG/1.1/DTD/svg11.dtd" >
<svg xmlns="http://www.w3.org/2000/svg" xmlns:xlink="http://www.w3.org/1999/xlink" version="1.1" viewBox="-10 0 930 1000">
   <path fill="currentColor"
d="M810 58v491h-79v-491h79zM424 258h140v-182h77v430h-77v-181h-140v-67zM488 448l-40 62c-83 -33 -141 -98 -171 -173c-31 83 -92 156 -177 193l-46 -61c115 -49 182 -161 182 -263v-28h-164v-67h398v67h-155v26c0 97 64 199 173 244zM504 895c113 0 176 -21 176 -60
s-63 -60 -176 -60c-114 0 -176 21 -176 60s62 60 176 60zM504 717c161 0 254 41 254 118s-93 118 -254 118c-162 0 -255 -41 -255 -118s93 -118 255 -118zM545 614h278v63h-640v-63h280v-79h82v79z" />
</svg>
