<?xml version="1.0" standalone="no"?>
<!DOCTYPE svg PUBLIC "-//W3C//DTD SVG 1.1//EN" "http://www.w3.org/Graphics/SVG/1.1/DTD/svg11.dtd" >
<svg xmlns="http://www.w3.org/2000/svg" xmlns:xlink="http://www.w3.org/1999/xlink" version="1.1" viewBox="-10 0 930 1000">
   <path fill="currentColor"
d="M578 451l-39 64c-102 -34 -179 -107 -217 -197c-39 96 -120 176 -225 213l-41 -64c131 -46 224 -160 224 -275v-22h-199v-66h478v66h-196v22c0 111 88 217 215 259zM248 786v99c103 0 180 -2 277 -18l6 65c-107 17 -191 18 -312 18h-54v-225h219v-87h-221v-65h304v213
h-219zM503 640v-67h288v380h-84v-313h-204zM709 58h82v468h-82v-118h-165v-66h165v-70h-165v-66h165v-148z" />
</svg>
