<?xml version="1.0" standalone="no"?>
<!DOCTYPE svg PUBLIC "-//W3C//DTD SVG 1.1//EN" "http://www.w3.org/Graphics/SVG/1.1/DTD/svg11.dtd" >
<svg xmlns="http://www.w3.org/2000/svg" xmlns:xlink="http://www.w3.org/1999/xlink" version="1.1" viewBox="-10 0 930 1000">
   <path fill="currentColor"
d="M530 199h172v-141h83v471h-83v-124h-171v-65h171v-75h-172v-66zM569 443l-44 62c-97 -33 -173 -101 -211 -186c-39 98 -120 171 -226 207l-44 -65c137 -43 226 -150 226 -279v-12h-197v-67h476v67h-195v19c0 111 86 213 215 254zM275 882h534v62h-617v-369h600v62h-517
v91h507v61h-507v93z" />
</svg>
