<?xml version="1.0" standalone="no"?>
<!DOCTYPE svg PUBLIC "-//W3C//DTD SVG 1.1//EN" "http://www.w3.org/Graphics/SVG/1.1/DTD/svg11.dtd" >
<svg xmlns="http://www.w3.org/2000/svg" xmlns:xlink="http://www.w3.org/1999/xlink" version="1.1" viewBox="-10 0 930 1000">
   <path fill="currentColor"
d="M811 57v667h-79v-667h79zM438 241h127v-166h77v623h-77v-233h-127v-68h127v-88h-127v-68zM483 517l-41 63c-82 -34 -139 -98 -169 -173c-30 83 -89 156 -172 195l-46 -62c114 -51 179 -169 179 -276v-55h-161v-70h391v70h-152v62c0 98 63 201 171 246zM287 859h550v67
h-633v-272h83v205z" />
</svg>
