<?xml version="1.0" standalone="no"?>
<!DOCTYPE svg PUBLIC "-//W3C//DTD SVG 1.1//EN" "http://www.w3.org/Graphics/SVG/1.1/DTD/svg11.dtd" >
<svg xmlns="http://www.w3.org/2000/svg" xmlns:xlink="http://www.w3.org/1999/xlink" version="1.1" viewBox="-10 0 930 1000">
   <path fill="currentColor"
d="M812 58v516h-80v-516h80zM455 222h110v-149h77v496h-77v-134h-111v-68h111v-77h-110v-68zM484 488l-41 63c-82 -34 -140 -96 -170 -171c-31 83 -90 153 -172 191l-47 -62c114 -50 180 -163 180 -268v-41h-161v-68h391v68h-152v49c0 96 63 195 172 239zM691 691v7
c0 89 61 167 171 201l-42 60c-80 -27 -139 -79 -169 -144c-31 64 -92 122 -176 150l-41 -59c-80 26 -171 32 -218 32h-48v-300h80v221c53 -3 139 -13 196 -42l23 73c89 -40 142 -112 142 -174v-25h-150v-68h384v68h-152z" />
</svg>
