<?xml version="1.0" standalone="no"?>
<!DOCTYPE svg PUBLIC "-//W3C//DTD SVG 1.1//EN" "http://www.w3.org/Graphics/SVG/1.1/DTD/svg11.dtd" >
<svg xmlns="http://www.w3.org/2000/svg" xmlns:xlink="http://www.w3.org/1999/xlink" version="1.1" viewBox="-10 0 930 1000">
   <path fill="currentColor"
d="M811 58v469h-79v-469h79zM441 198h124v-124h78v447h-78v-128h-124v-65h124v-64h-124v-66zM484 446l-40 64c-81 -32 -139 -95 -170 -169c-30 82 -90 152 -173 190l-46 -61c112 -48 179 -157 179 -258v-34h-161v-67h391v67h-151v35c0 94 64 190 171 233zM298 883h540v67
h-624v-225h513v-88h-515v-66h599v215h-513v97z" />
</svg>
