<?xml version="1.0" standalone="no"?>
<!DOCTYPE svg PUBLIC "-//W3C//DTD SVG 1.1//EN" "http://www.w3.org/Graphics/SVG/1.1/DTD/svg11.dtd" >
<svg xmlns="http://www.w3.org/2000/svg" xmlns:xlink="http://www.w3.org/1999/xlink" version="1.1" viewBox="-10 0 930 1000">
   <path fill="currentColor"
d="M441 198h124v-125h78v448h-78v-128h-124v-65h124v-64h-124v-66zM229 791v96c97 0 159 -2 238 -15l10 62c-92 15 -161 16 -279 16h-49v-218h219v-94h-221v-64h300v217h-218zM313 178v35c0 94 64 190 171 233l-40 64c-81 -33 -139 -95 -170 -169c-30 82 -90 152 -173 189
l-46 -60c112 -48 179 -158 179 -258v-34h-161v-67h391v67h-151zM737 883v-118h-163v118h163zM737 702v-130h74v377h-311v-377h74v130h163zM732 58h79v468h-79v-468z" />
</svg>
