<?xml version="1.0" standalone="no"?>
<!DOCTYPE svg PUBLIC "-//W3C//DTD SVG 1.1//EN" "http://www.w3.org/Graphics/SVG/1.1/DTD/svg11.dtd" >
<svg xmlns="http://www.w3.org/2000/svg" xmlns:xlink="http://www.w3.org/1999/xlink" version="1.1" viewBox="-10 0 930 1000">
   <path fill="currentColor"
d="M455 222h110v-149h77v497h-77v-137h-111v-69h111v-74h-110v-68zM484 488l-41 64c-82 -34 -140 -97 -170 -172c-31 83 -90 153 -172 192l-47 -63c114 -50 180 -163 180 -268v-41h-161v-68h391v68h-152v49c0 96 63 195 172 239zM298 686v191h431v-191h-431zM215 942v-322
h597v322h-597zM732 58h80v517h-80v-517z" />
</svg>
