<?xml version="1.0" standalone="no"?>
<!DOCTYPE svg PUBLIC "-//W3C//DTD SVG 1.1//EN" "http://www.w3.org/Graphics/SVG/1.1/DTD/svg11.dtd" >
<svg xmlns="http://www.w3.org/2000/svg" xmlns:xlink="http://www.w3.org/1999/xlink" version="1.1" viewBox="-10 0 930 1000">
   <path fill="currentColor"
d="M454 216h111v-143h77v476h-77v-127h-111v-69h111v-69h-111v-68zM484 473l-42 64c-82 -35 -140 -98 -169 -173c-32 81 -91 151 -172 188l-47 -62c114 -50 180 -163 180 -268v-28h-161v-68h391v68h-152v40c0 96 63 195 172 239zM728 877v-115h-428v115h428zM728 697v-105
h83v353h-595v-353h84v105h428zM732 58h80v500h-80v-500z" />
</svg>
