<?xml version="1.0" standalone="no"?>
<!DOCTYPE svg PUBLIC "-//W3C//DTD SVG 1.1//EN" "http://www.w3.org/Graphics/SVG/1.1/DTD/svg11.dtd" >
<svg xmlns="http://www.w3.org/2000/svg" xmlns:xlink="http://www.w3.org/1999/xlink" version="1.1" viewBox="-10 0 930 1000">
   <path fill="currentColor"
d="M812 58v500h-80v-500h80zM454 216h111v-143h77v476h-77v-127h-111v-69h111v-69h-111v-68zM484 473l-42 64c-82 -34 -140 -98 -169 -173c-32 81 -91 151 -172 188l-47 -62c114 -50 180 -163 180 -268v-28h-161v-68h391v68h-152v40c0 96 63 195 172 239zM407 881v-119h-162
v119h162zM726 588v73c0 86 56 183 158 230l-45 63c-73 -33 -124 -91 -152 -160c-29 71 -84 130 -162 162l-41 -59v49h-316v-354h77v108h162v-108h77v297c103 -43 160 -135 160 -223v-78h82z" />
</svg>
