<?xml version="1.0" standalone="no"?>
<!DOCTYPE svg PUBLIC "-//W3C//DTD SVG 1.1//EN" "http://www.w3.org/Graphics/SVG/1.1/DTD/svg11.dtd" >
<svg xmlns="http://www.w3.org/2000/svg" xmlns:xlink="http://www.w3.org/1999/xlink" version="1.1" viewBox="-10 0 930 1000">
   <path fill="currentColor"
d="M813 58v595h-79v-595h79zM447 232h118v-159h78v523h-78v-154h-118v-68h118v-74h-118v-68zM484 504l-41 64c-82 -34 -139 -98 -170 -173c-30 84 -89 156 -172 196l-46 -62c114 -51 179 -167 179 -274v-55h-161v-68h391v68h-151v62c0 97 63 197 171 242zM553 608v36
c0 121 147 227 309 253l-37 68c-134 -25 -257 -97 -314 -198c-58 101 -183 176 -318 200l-35 -68c163 -26 310 -136 310 -253v-38h85z" />
</svg>
