<?xml version="1.0" standalone="no"?>
<!DOCTYPE svg PUBLIC "-//W3C//DTD SVG 1.1//EN" "http://www.w3.org/Graphics/SVG/1.1/DTD/svg11.dtd" >
<svg xmlns="http://www.w3.org/2000/svg" xmlns:xlink="http://www.w3.org/1999/xlink" version="1.1" viewBox="-10 0 930 1000">
   <path fill="currentColor"
d="M812 58v530h-80v-530h80zM455 222h110v-149h77v484h-77v-124h-111v-69h111v-74h-110v-68zM484 488l-41 63c-82 -33 -140 -96 -170 -171c-31 83 -90 153 -172 191l-47 -62c114 -50 180 -163 180 -268v-41h-161v-68h391v68h-152v49c0 96 63 195 172 239zM503 886
c147 0 233 -39 233 -106s-86 -105 -233 -105c-145 0 -232 38 -232 105s87 106 232 106zM503 608c197 0 317 62 317 172s-120 173 -317 173c-196 0 -316 -63 -316 -173s120 -172 316 -172z" />
</svg>
