<?xml version="1.0" standalone="no"?>
<!DOCTYPE svg PUBLIC "-//W3C//DTD SVG 1.1//EN" "http://www.w3.org/Graphics/SVG/1.1/DTD/svg11.dtd" >
<svg xmlns="http://www.w3.org/2000/svg" xmlns:xlink="http://www.w3.org/1999/xlink" version="1.1" viewBox="-10 0 930 1000">
   <path fill="currentColor"
d="M810 58v491h-79v-491h79zM441 198h123v-122h77v430h-77v-113h-123v-65h123v-65h-123v-65zM484 446l-40 64c-81 -33 -139 -95 -170 -169c-30 82 -90 152 -173 189l-46 -60c112 -48 179 -157 179 -258v-34h-161v-67h391v67h-151v35c0 94 64 190 171 233zM503 895
c114 0 177 -21 177 -60s-63 -60 -176 -60c-114 0 -176 21 -176 60s62 60 175 60zM504 717c161 0 254 41 254 118s-93 118 -254 118c-162 0 -255 -41 -255 -118s93 -118 255 -118zM545 614h278v63h-640v-63h280v-79h82v79z" />
</svg>
