<?xml version="1.0" standalone="no"?>
<!DOCTYPE svg PUBLIC "-//W3C//DTD SVG 1.1//EN" "http://www.w3.org/Graphics/SVG/1.1/DTD/svg11.dtd" >
<svg xmlns="http://www.w3.org/2000/svg" xmlns:xlink="http://www.w3.org/1999/xlink" version="1.1" viewBox="-10 0 930 1000">
   <path fill="currentColor"
d="M101 436l-33 -63c131 -27 218 -103 218 -188v-9h-189v-66h462v66h-191v9c0 78 87 149 213 174l-33 63c-102 -23 -181 -74 -220 -140c-38 73 -120 130 -227 154zM609 488l5 60c-184 32 -395 37 -552 37l-10 -68c70 0 151 -1 234 -4v-124h82v120c82 -4 165 -10 241 -21z
M458 889c135 0 214 -32 214 -89c0 -56 -79 -89 -214 -89s-214 33 -214 89c0 57 79 89 214 89zM458 648c185 0 296 54 296 152s-111 152 -296 152s-296 -54 -296 -152s111 -152 296 -152zM748 312h132v69h-132v260h-82v-583h82v254z" />
</svg>
