<?xml version="1.0" standalone="no"?>
<!DOCTYPE svg PUBLIC "-//W3C//DTD SVG 1.1//EN" "http://www.w3.org/Graphics/SVG/1.1/DTD/svg11.dtd" >
<svg xmlns="http://www.w3.org/2000/svg" xmlns:xlink="http://www.w3.org/1999/xlink" version="1.1" viewBox="-10 0 930 1000">
   <path fill="currentColor"
d="M113 440l-37 -64c130 -27 211 -104 215 -198h-189v-67h467v67h-193c5 86 87 156 213 180l-35 64c-102 -23 -179 -73 -219 -143c-37 79 -116 135 -222 161zM611 482l5 64c-174 21 -387 33 -555 34l-11 -72c76 0 159 -2 244 -6v-120h84v116c80 -3 160 -9 233 -16zM367 705
v177h197v-177h-197zM646 705v177h137v62h-633v-62h135v-177h-129v-63h616v63h-126zM750 311h131v70h-131v224h-83v-547h83v253z" />
</svg>
