<?xml version="1.0" standalone="no"?>
<!DOCTYPE svg PUBLIC "-//W3C//DTD SVG 1.1//EN" "http://www.w3.org/Graphics/SVG/1.1/DTD/svg11.dtd" >
<svg xmlns="http://www.w3.org/2000/svg" xmlns:xlink="http://www.w3.org/1999/xlink" version="1.1" viewBox="-10 0 930 1000">
   <path fill="currentColor"
d="M631 348v197h-78v-473h78v208h108v-222h78v493h-78v-203h-108zM103 402l-37 -65c102 -23 166 -85 178 -166h-153v-65h393v65h-154c10 71 74 130 177 151l-36 63c-88 -23 -150 -69 -182 -130c-31 70 -95 121 -186 147zM511 447l7 61c-135 16 -325 27 -454 28l-9 -69
c57 0 125 -2 195 -5v-107h78v104c66 -3 130 -7 183 -12zM715 591v69c0 96 49 190 154 233l-45 61c-74 -33 -122 -90 -149 -161c-27 75 -77 135 -154 169l-37 -49l3 19c-81 17 -145 18 -274 18h-49v-210h223v-81h-225v-61h305v199h-223v92c105 0 164 -3 234 -17l3 27
c103 -46 154 -142 154 -241v-67h80z" />
</svg>
