<?xml version="1.0" standalone="no"?>
<!DOCTYPE svg PUBLIC "-//W3C//DTD SVG 1.1//EN" "http://www.w3.org/Graphics/SVG/1.1/DTD/svg11.dtd" >
<svg xmlns="http://www.w3.org/2000/svg" xmlns:xlink="http://www.w3.org/1999/xlink" version="1.1" viewBox="-10 0 930 1000">
   <path fill="currentColor"
d="M631 348v197h-78v-473h78v208h108v-222h78v493h-78v-203h-108zM103 402l-37 -65c102 -23 166 -85 178 -166h-153v-65h393v65h-154c10 71 75 130 177 151l-36 63c-87 -23 -150 -69 -182 -130c-31 70 -95 121 -186 147zM511 447l7 61c-134 16 -325 27 -454 28l-9 -69
c57 0 125 -2 195 -5v-107h78v104c66 -3 130 -7 183 -12zM244 795v93c95 0 154 -3 229 -17l7 61c-86 17 -154 18 -269 18h-47v-209h217v-79h-220v-62h300v195h-217zM633 663v223h69v-223h-69zM768 886h64v63h-330v-63h65v-223h-61v-63h323v63h-61v223z" />
</svg>
