<?xml version="1.0" standalone="no"?>
<!DOCTYPE svg PUBLIC "-//W3C//DTD SVG 1.1//EN" "http://www.w3.org/Graphics/SVG/1.1/DTD/svg11.dtd" >
<svg xmlns="http://www.w3.org/2000/svg" xmlns:xlink="http://www.w3.org/1999/xlink" version="1.1" viewBox="-10 0 930 1000">
   <path fill="currentColor"
d="M630 348v197h-77v-473h77v208h109v-222h78v492h-78v-202h-109zM103 402l-37 -65c102 -23 166 -85 178 -166h-153v-65h393v65h-154c10 71 75 130 177 151l-36 62c-87 -22 -150 -68 -182 -129c-31 70 -95 121 -186 147zM511 447l7 61c-134 16 -325 27 -454 28l-9 -69
c57 0 125 -2 195 -5v-107h78v104c66 -3 130 -7 183 -12zM233 799v89c98 0 155 -3 227 -17l8 62c-82 15 -147 17 -266 17h-47v-207h202v-81h-204v-61h282v198h-202zM653 906c48 0 82 -22 82 -58s-34 -58 -82 -58c-49 0 -83 22 -83 58s34 58 83 58zM653 734
c88 0 152 44 152 114s-64 114 -152 114s-153 -44 -153 -114s65 -114 153 -114zM692 646h146v61h-370v-61h144v-77h80v77z" />
</svg>
