<?xml version="1.0" standalone="no"?>
<!DOCTYPE svg PUBLIC "-//W3C//DTD SVG 1.1//EN" "http://www.w3.org/Graphics/SVG/1.1/DTD/svg11.dtd" >
<svg xmlns="http://www.w3.org/2000/svg" xmlns:xlink="http://www.w3.org/1999/xlink" version="1.1" viewBox="-10 0 930 1000">
   <path fill="currentColor"
d="M623 371v224h-78v-521h78v230h107v-248h78v549h-78v-234h-107zM96 428l-37 -64c113 -26 180 -97 181 -185h-156v-66h394v66h-154v1c0 76 69 144 177 169l-36 65c-87 -23 -149 -69 -181 -129c-32 68 -97 119 -188 143zM502 487l6 56c-145 28 -333 31 -450 31l-10 -65
c54 0 124 0 197 -3v-118h79v115c62 -4 124 -8 178 -16zM816 714h-264c17 87 152 157 306 173l-28 63c-141 -16 -269 -74 -323 -160c-56 83 -181 143 -321 160l-26 -63c150 -16 286 -89 304 -173h-259v-65h611v65z" />
</svg>
