<?xml version="1.0" standalone="no"?>
<!DOCTYPE svg PUBLIC "-//W3C//DTD SVG 1.1//EN" "http://www.w3.org/Graphics/SVG/1.1/DTD/svg11.dtd" >
<svg xmlns="http://www.w3.org/2000/svg" xmlns:xlink="http://www.w3.org/1999/xlink" version="1.1" viewBox="-10 0 930 1000">
   <path fill="currentColor"
d="M623 361v215h-78v-504h78v222h107v-237h78v551h-78v-247h-107zM97 405l-37 -64c102 -23 166 -85 178 -166h-153v-65h393v65h-154c10 71 74 130 177 151l-36 62c-88 -22 -150 -68 -182 -129c-31 70 -95 120 -186 146zM502 458l6 56c-146 28 -333 31 -450 32l-10 -66
c54 0 123 0 196 -3v-109h79v106c63 -4 125 -8 179 -16zM816 742h-263c25 74 151 133 297 146l-25 61c-140 -14 -264 -66 -319 -145c-54 79 -179 131 -320 145l-25 -61c147 -13 273 -72 298 -146h-261v-63h267v-78h82v78h269v63z" />
</svg>
