<?xml version="1.0" standalone="no"?>
<!DOCTYPE svg PUBLIC "-//W3C//DTD SVG 1.1//EN" "http://www.w3.org/Graphics/SVG/1.1/DTD/svg11.dtd" >
<svg xmlns="http://www.w3.org/2000/svg" xmlns:xlink="http://www.w3.org/1999/xlink" version="1.1" viewBox="-10 0 930 1000">
   <path fill="currentColor"
d="M121 442l-39 -65c130 -27 211 -105 217 -199h-191v-67h470v67h-194c7 86 89 154 216 180l-34 65c-102 -23 -182 -73 -221 -144c-38 79 -117 137 -224 163zM627 480l7 62c-181 22 -397 33 -570 35l-12 -71c78 -1 163 -3 249 -6v-129h84v125c84 -4 166 -9 242 -16zM156 717
l1 -66h296v305h-83v-239h-214zM494 717v-66h287v305h-81v-239h-206zM699 58h82v547h-82v-547z" />
</svg>
