<?xml version="1.0" standalone="no"?>
<!DOCTYPE svg PUBLIC "-//W3C//DTD SVG 1.1//EN" "http://www.w3.org/Graphics/SVG/1.1/DTD/svg11.dtd" >
<svg xmlns="http://www.w3.org/2000/svg" xmlns:xlink="http://www.w3.org/1999/xlink" version="1.1" viewBox="-10 0 930 1000">
   <path fill="currentColor"
d="M782 58v544h-83v-544h83zM121 442l-39 -65c130 -27 211 -105 217 -199h-191v-67h470v67h-194c7 86 89 154 216 180l-34 65c-103 -23 -182 -73 -221 -144c-38 79 -117 137 -224 163zM627 480l7 62c-181 22 -397 33 -570 35l-12 -71c78 -1 163 -3 249 -6v-129h84v125
c84 -4 166 -9 242 -16zM148 714l1 -68h303v309h-82v-241h-222zM703 636v44c0 85 54 176 158 215l-45 62c-77 -31 -126 -86 -154 -153c-29 67 -84 125 -161 157l-44 -64c107 -42 165 -138 165 -214v-47h81z" />
</svg>
