<?xml version="1.0" standalone="no"?>
<!DOCTYPE svg PUBLIC "-//W3C//DTD SVG 1.1//EN" "http://www.w3.org/Graphics/SVG/1.1/DTD/svg11.dtd" >
<svg xmlns="http://www.w3.org/2000/svg" xmlns:xlink="http://www.w3.org/1999/xlink" version="1.1" viewBox="-10 0 930 1000">
   <path fill="currentColor"
d="M781 58v491h-82v-491h82zM120 411l-39 -63c121 -25 200 -93 217 -179h-192v-65h477v65h-194c20 77 100 137 215 161l-37 64c-102 -24 -181 -74 -222 -145c-39 80 -119 135 -225 162zM630 443l6 62c-191 29 -404 33 -571 33l-12 -70c77 0 163 -1 251 -3v-117h83v114
c82 -4 165 -9 243 -19zM216 803v85c97 -1 155 -4 227 -17l8 62c-83 15 -147 17 -267 17h-47v-204h202v-84h-204v-61h283v202h-202zM631 906c49 0 82 -22 82 -58s-33 -58 -82 -58s-82 22 -82 58s33 58 82 58zM631 734c88 0 152 44 152 114s-64 114 -152 114
s-152 -44 -152 -114s64 -114 152 -114zM670 645h147v61h-371v-61h144v-79h80v79z" />
</svg>
