<?xml version="1.0" standalone="no"?>
<!DOCTYPE svg PUBLIC "-//W3C//DTD SVG 1.1//EN" "http://www.w3.org/Graphics/SVG/1.1/DTD/svg11.dtd" >
<svg xmlns="http://www.w3.org/2000/svg" xmlns:xlink="http://www.w3.org/1999/xlink" version="1.1" viewBox="-10 0 930 1000">
   <path fill="currentColor"
d="M781 58v539h-82v-539h82zM120 442l-38 -65c130 -27 211 -105 217 -199h-191v-67h470v67h-194c7 86 89 154 216 180l-34 65c-103 -23 -182 -73 -222 -144c-38 79 -117 137 -224 163zM639 473l6 60c-198 29 -415 36 -586 36l-12 -68c78 0 165 -1 254 -4v-126h84v123
c86 -5 173 -10 254 -21zM789 713h-258c16 87 150 158 302 174l-28 63c-140 -17 -265 -75 -319 -160c-55 83 -180 143 -318 160l-27 -63c148 -16 284 -90 302 -174h-258v-65h604v65z" />
</svg>
