<?xml version="1.0" standalone="no"?>
<!DOCTYPE svg PUBLIC "-//W3C//DTD SVG 1.1//EN" "http://www.w3.org/Graphics/SVG/1.1/DTD/svg11.dtd" >
<svg xmlns="http://www.w3.org/2000/svg" xmlns:xlink="http://www.w3.org/1999/xlink" version="1.1" viewBox="-10 0 930 1000">
   <path fill="currentColor"
d="M212 793v94c85 0 149 -3 231 -15l7 62c-95 15 -168 16 -271 16h-48v-215h211v-93h-214v-63h295v214h-211zM703 884v-120h-152v120h152zM703 702v-126h75v372h-303v-372h76v126h152zM301 346h51v103h200v-103h49c-66 -26 -121 -63 -152 -114c-30 51 -83 88 -148 114z
M634 449h224v65h-812v-65h223v-91c-45 15 -97 25 -149 31l-29 -68c164 -15 291 -72 311 -175h-283v-65h664v65h-282c15 99 144 160 313 173l-33 68c-52 -5 -102 -15 -147 -29v91z" />
</svg>
