<?xml version="1.0" standalone="no"?>
<!DOCTYPE svg PUBLIC "-//W3C//DTD SVG 1.1//EN" "http://www.w3.org/Graphics/SVG/1.1/DTD/svg11.dtd" >
<svg xmlns="http://www.w3.org/2000/svg" xmlns:xlink="http://www.w3.org/1999/xlink" version="1.1" viewBox="-10 0 930 1000">
   <path fill="currentColor"
d="M229 708v172h448v-172h-448zM145 944v-300h616v300h-616zM278 376h75v119h197v-119h82c-81 -30 -146 -76 -180 -137c-34 62 -96 107 -174 137zM634 495h224v66h-812v-66h223v-117c-45 17 -95 28 -147 36l-32 -66c163 -18 293 -82 312 -191h-282v-67h663v67h-282
c17 104 150 170 314 189l-34 65c-52 -7 -102 -18 -147 -34v118z" />
</svg>
