<?xml version="1.0" standalone="no"?>
<!DOCTYPE svg PUBLIC "-//W3C//DTD SVG 1.1//EN" "http://www.w3.org/Graphics/SVG/1.1/DTD/svg11.dtd" >
<svg xmlns="http://www.w3.org/2000/svg" xmlns:xlink="http://www.w3.org/1999/xlink" version="1.1" viewBox="-10 0 930 1000">
   <path fill="currentColor"
d="M122 414l-32 -67c163 -17 292 -81 311 -190h-281v-67h663v67h-281c17 104 149 170 313 188l-34 66c-145 -19 -275 -75 -329 -172c-54 101 -185 154 -330 175zM494 622v33c0 114 137 206 305 229l-39 68c-135 -21 -255 -84 -310 -178c-57 95 -178 157 -314 178l-35 -67
c168 -23 308 -116 308 -232v-31h85zM634 503h224v65h-812v-65h223v-122h84v122h197v-122h84v122z" />
</svg>
