<?xml version="1.0" standalone="no"?>
<!DOCTYPE svg PUBLIC "-//W3C//DTD SVG 1.1//EN" "http://www.w3.org/Graphics/SVG/1.1/DTD/svg11.dtd" >
<svg xmlns="http://www.w3.org/2000/svg" xmlns:xlink="http://www.w3.org/1999/xlink" version="1.1" viewBox="-10 0 930 1000">
   <path fill="currentColor"
d="M123 392l-26 -63c158 -13 301 -81 313 -172h-282v-65h662v65h-283c11 91 154 159 313 172l-26 63c-147 -14 -282 -71 -335 -161c-54 90 -188 147 -336 161zM221 804v85c133 0 202 -4 284 -22l7 60c-89 20 -162 23 -315 23h-55v-203h216v-76h-218v-60h297v193h-216z
M485 678v-67h285v350h-81v-283h-204zM53 445h810v66h-365v99h-81v-99h-364v-66z" />
</svg>
