<?xml version="1.0" standalone="no"?>
<!DOCTYPE svg PUBLIC "-//W3C//DTD SVG 1.1//EN" "http://www.w3.org/Graphics/SVG/1.1/DTD/svg11.dtd" >
<svg xmlns="http://www.w3.org/2000/svg" xmlns:xlink="http://www.w3.org/1999/xlink" version="1.1" viewBox="-10 0 930 1000">
   <path fill="currentColor"
d="M516 520h187v-463h82v577h-82v-55h-187v-59zM112 384l-33 -64c128 -22 215 -88 217 -165h-190v-64h470v64h-193v1c0 71 88 128 218 145l-32 62c-107 -18 -189 -61 -228 -123c-37 70 -120 122 -229 144zM287 629v-142c-80 3 -158 5 -230 6l-12 -70c181 -1 394 -7 578 -21
l7 62c-82 9 -172 15 -260 19v146h-83zM144 734v-68h306v290h-82v-222h-224zM703 656v27c0 85 55 175 159 212l-44 64c-77 -31 -128 -87 -156 -153c-30 68 -85 126 -163 157l-44 -64c108 -40 167 -132 167 -218v-25h81z" />
</svg>
