<?xml version="1.0" standalone="no"?>
<!DOCTYPE svg PUBLIC "-//W3C//DTD SVG 1.1//EN" "http://www.w3.org/Graphics/SVG/1.1/DTD/svg11.dtd" >
<svg xmlns="http://www.w3.org/2000/svg" xmlns:xlink="http://www.w3.org/1999/xlink" version="1.1" viewBox="-10 0 930 1000">
   <path fill="currentColor"
d="M526 586h177v-528h82v683h-82v-95h-177v-60zM118 440l-37 -64c131 -28 219 -104 219 -196v-5h-192v-67h473v67h-195v1c0 86 86 158 219 181l-34 66c-105 -21 -186 -71 -226 -139c-39 76 -120 132 -227 156zM291 705v-169c-79 3 -157 5 -229 6l-12 -71
c180 -1 391 -6 573 -20l7 62c-81 9 -170 15 -257 19v173h-82zM257 869h551v67h-632v-261h81v194z" />
</svg>
