<?xml version="1.0" standalone="no"?>
<!DOCTYPE svg PUBLIC "-//W3C//DTD SVG 1.1//EN" "http://www.w3.org/Graphics/SVG/1.1/DTD/svg11.dtd" >
<svg xmlns="http://www.w3.org/2000/svg" xmlns:xlink="http://www.w3.org/1999/xlink" version="1.1" viewBox="-10 0 930 1000">
   <path fill="currentColor"
d="M515 490h188v-433h82v529h-82v-41h-188v-55zM109 361l-30 -58c126 -21 213 -82 217 -161h-192v-60h470v60h-193c7 72 92 126 217 141l-32 61c-106 -18 -189 -61 -227 -126c-35 72 -119 122 -230 143zM287 585v-120c-80 3 -158 5 -230 5l-12 -69c182 -1 394 -6 578 -20
l7 60c-83 8 -172 15 -260 20v124h-83zM219 808v83c103 0 163 -3 239 -16l8 59c-88 15 -154 16 -276 16h-48v-198h222v-75h-224v-60h301v191h-222zM575 888h229v60h-308v-330h297v60h-218v78h208v56h-208v76z" />
</svg>
