<?xml version="1.0" standalone="no"?>
<!DOCTYPE svg PUBLIC "-//W3C//DTD SVG 1.1//EN" "http://www.w3.org/Graphics/SVG/1.1/DTD/svg11.dtd" >
<svg xmlns="http://www.w3.org/2000/svg" xmlns:xlink="http://www.w3.org/1999/xlink" version="1.1" viewBox="-10 0 930 1000">
   <path fill="currentColor"
d="M516 490h187v-433h82v529h-82v-41h-187v-55zM109 361l-31 -58c126 -21 214 -82 218 -161h-193v-60h471v60h-193c7 72 92 126 217 141l-31 61c-107 -18 -190 -61 -228 -126c-35 72 -119 122 -230 143zM287 585v-120c-80 3 -159 5 -231 5l-11 -69c181 -1 394 -6 578 -20
l7 60c-82 8 -172 15 -260 20v124h-83zM266 886h546v61h-629v-327h612v61h-529v74h517v57h-517v74z" />
</svg>
