<?xml version="1.0" standalone="no"?>
<!DOCTYPE svg PUBLIC "-//W3C//DTD SVG 1.1//EN" "http://www.w3.org/Graphics/SVG/1.1/DTD/svg11.dtd" >
<svg xmlns="http://www.w3.org/2000/svg" xmlns:xlink="http://www.w3.org/1999/xlink" version="1.1" viewBox="-10 0 930 1000">
   <path fill="currentColor"
d="M417 493h159v-421h78v517h-78v-41h-159v-55zM103 374l-38 -62c99 -23 165 -83 179 -156h-153v-60h394v60h-152c12 61 78 117 174 139l-35 61c-88 -22 -150 -70 -181 -131c-31 70 -95 123 -188 149zM253 583v-116c-68 4 -133 6 -187 6l-10 -66c131 -1 331 -8 467 -23l7 58
c-60 9 -129 16 -199 20v121h-78zM248 811v79c127 0 201 -4 293 -21l7 59c-100 19 -179 22 -326 22h-55v-194h236v-77h-238v-60h319v192h-236zM523 681v-62h294v337h-84v-275h-210zM739 58h78v533h-78v-533z" />
</svg>
