<?xml version="1.0" standalone="no"?>
<!DOCTYPE svg PUBLIC "-//W3C//DTD SVG 1.1//EN" "http://www.w3.org/Graphics/SVG/1.1/DTD/svg11.dtd" >
<svg xmlns="http://www.w3.org/2000/svg" xmlns:xlink="http://www.w3.org/1999/xlink" version="1.1" viewBox="-10 0 930 1000">
   <path fill="currentColor"
d="M817 58v533h-78v-533h78zM417 493h159v-421h78v517h-78v-41h-159v-55zM102 374l-37 -62c99 -23 164 -83 179 -156h-153v-60h394v60h-152c12 61 78 117 174 139l-34 61c-89 -22 -151 -70 -182 -131c-31 70 -95 123 -189 149zM253 583v-116c-68 4 -133 6 -187 6l-10 -66
c131 -1 331 -8 467 -23l7 58c-60 9 -129 16 -199 20v121h-78zM239 810v81c108 0 170 -3 249 -16l7 59c-89 15 -157 16 -285 16h-49v-196h232v-75h-234v-60h311v191h-231zM596 888h238v60h-317v-329h308v60h-229v73h220v56h-220v80z" />
</svg>
