<?xml version="1.0" standalone="no"?>
<!DOCTYPE svg PUBLIC "-//W3C//DTD SVG 1.1//EN" "http://www.w3.org/Graphics/SVG/1.1/DTD/svg11.dtd" >
<svg xmlns="http://www.w3.org/2000/svg" xmlns:xlink="http://www.w3.org/1999/xlink" version="1.1" viewBox="-10 0 930 1000">
   <path fill="currentColor"
d="M817 58v554h-78v-554h78zM417 509h159v-436h78v536h-78v-42h-159v-58zM103 385l-38 -62c101 -24 168 -86 180 -160h-154v-63h394v63h-152c10 63 76 121 174 143l-34 61c-89 -22 -151 -70 -181 -131c-31 70 -96 123 -189 149zM253 606v-126c-68 3 -133 6 -187 6l-10 -67
c132 -1 332 -8 469 -23l6 58c-60 9 -130 16 -200 21v131h-78zM734 883v-96h-453v96h453zM734 641h84v307h-621v-307h84v82h453v-82z" />
</svg>
