<?xml version="1.0" standalone="no"?>
<!DOCTYPE svg PUBLIC "-//W3C//DTD SVG 1.1//EN" "http://www.w3.org/Graphics/SVG/1.1/DTD/svg11.dtd" >
<svg xmlns="http://www.w3.org/2000/svg" xmlns:xlink="http://www.w3.org/1999/xlink" version="1.1" viewBox="-10 0 930 1000">
   <path fill="currentColor"
d="M781 58v559h-82v-559h82zM120 412l-35 -62c131 -26 220 -100 220 -182v-1h-194v-66h472v66h-195v1c0 78 88 144 214 166l-32 64c-103 -21 -183 -69 -222 -134c-39 71 -120 126 -228 148zM272 877h528v66h-610v-292h121v-123c-88 4 -172 5 -246 5l-10 -70
c170 0 391 -2 582 -27l6 62c-81 13 -167 21 -250 26v127h400v66h-521v160z" />
</svg>
