<?xml version="1.0" standalone="no"?>
<!DOCTYPE svg PUBLIC "-//W3C//DTD SVG 1.1//EN" "http://www.w3.org/Graphics/SVG/1.1/DTD/svg11.dtd" >
<svg xmlns="http://www.w3.org/2000/svg" xmlns:xlink="http://www.w3.org/1999/xlink" version="1.1" viewBox="-10 0 930 1000">
   <path fill="currentColor"
d="M783 57v491h-82v-491h82zM119 383l-29 -62c129 -22 219 -88 220 -163h-194v-65h472v65h-196c1 72 92 130 222 147l-29 62c-108 -17 -192 -61 -232 -123c-39 68 -123 119 -234 139zM274 881h542v63h-623v-210h509v-82h-511v-63h122v-100c-88 3 -173 3 -248 3l-10 -66
c171 0 393 -1 587 -22l4 58c-82 11 -168 18 -251 23v104h388v204h-509v88z" />
</svg>
