<?xml version="1.0" standalone="no"?>
<!DOCTYPE svg PUBLIC "-//W3C//DTD SVG 1.1//EN" "http://www.w3.org/Graphics/SVG/1.1/DTD/svg11.dtd" >
<svg xmlns="http://www.w3.org/2000/svg" xmlns:xlink="http://www.w3.org/1999/xlink" version="1.1" viewBox="-10 0 930 1000">
   <path fill="currentColor"
d="M782 57v553h-82v-553h82zM120 412l-35 -62c131 -26 220 -100 220 -182v-1h-194v-66h472v66h-195v1c0 78 88 144 214 166l-33 64c-102 -20 -182 -68 -221 -134c-39 71 -121 126 -228 148zM796 712h-261c12 99 135 165 294 182l-31 63c-135 -19 -257 -71 -309 -161
c-53 92 -175 141 -310 161l-29 -63c156 -18 276 -79 295 -182h-260v-65h122v-117c-85 4 -168 5 -242 5l-11 -68c173 -1 394 -3 583 -25l6 59c-82 12 -169 20 -254 25v121h407v65z" />
</svg>
