<?xml version="1.0" standalone="no"?>
<!DOCTYPE svg PUBLIC "-//W3C//DTD SVG 1.1//EN" "http://www.w3.org/Graphics/SVG/1.1/DTD/svg11.dtd" >
<svg xmlns="http://www.w3.org/2000/svg" xmlns:xlink="http://www.w3.org/1999/xlink" version="1.1" viewBox="-10 0 930 1000">
   <path fill="currentColor"
d="M123 412l-33 -67c163 -17 292 -78 312 -188h-282v-67h662v67h-282c14 102 149 170 312 187l-34 65c-144 -17 -274 -73 -327 -169c-55 100 -185 151 -328 172zM858 531h-214v122h118v298h-82v-232h-210v-66h90v-122h-213v122h85v298h-82v-232h-224v-66h137v-122h-217v-65
h812v65z" />
</svg>
