<?xml version="1.0" standalone="no"?>
<!DOCTYPE svg PUBLIC "-//W3C//DTD SVG 1.1//EN" "http://www.w3.org/Graphics/SVG/1.1/DTD/svg11.dtd" >
<svg xmlns="http://www.w3.org/2000/svg" xmlns:xlink="http://www.w3.org/1999/xlink" version="1.1" viewBox="-10 0 930 1000">
   <path fill="currentColor"
d="M122 388l-26 -63c158 -13 301 -82 314 -172h-283v-65h664v65h-284c12 90 155 159 314 172l-26 63c-147 -15 -282 -72 -336 -161c-54 89 -189 146 -337 161zM561 586v-92h-204v92h204zM864 494h-221v92h117v206h-527v89h554v63h-634v-211h526v-85h-529v-62h125v-92h-223
v-66h812v66z" />
</svg>
