<?xml version="1.0" standalone="no"?>
<!DOCTYPE svg PUBLIC "-//W3C//DTD SVG 1.1//EN" "http://www.w3.org/Graphics/SVG/1.1/DTD/svg11.dtd" >
<svg xmlns="http://www.w3.org/2000/svg" xmlns:xlink="http://www.w3.org/1999/xlink" version="1.1" viewBox="-10 0 930 1000">
   <path fill="currentColor"
d="M120 442l-38 -65c130 -27 211 -105 217 -199h-191v-67h470v67h-194c7 86 89 154 216 180l-34 65c-103 -23 -182 -73 -222 -144c-38 79 -117 137 -224 163zM631 481l7 63c-181 18 -392 27 -570 29l-12 -71c183 -2 393 -8 575 -21zM173 717v-67h608v311h-83v-244h-525z
M699 58h82v553h-82v-553z" />
</svg>
