<?xml version="1.0" standalone="no"?>
<!DOCTYPE svg PUBLIC "-//W3C//DTD SVG 1.1//EN" "http://www.w3.org/Graphics/SVG/1.1/DTD/svg11.dtd" >
<svg xmlns="http://www.w3.org/2000/svg" xmlns:xlink="http://www.w3.org/1999/xlink" version="1.1" viewBox="-10 0 930 1000">
   <path fill="currentColor"
d="M781 58v553h-82v-553h82zM121 442l-38 -65c130 -27 210 -105 216 -199h-190v-67h469v67h-194c7 86 89 154 216 180l-34 65c-103 -23 -182 -73 -222 -144c-38 79 -116 137 -223 163zM631 481l7 63c-181 18 -391 27 -569 29l-12 -71c184 -2 392 -8 574 -21zM666 707v4
c0 85 62 157 167 188l-42 60c-78 -24 -134 -71 -164 -132c-31 61 -90 112 -170 137l-39 -57c-80 26 -170 32 -217 32h-47v-290h79v213c52 -3 137 -13 195 -41l21 70c86 -37 138 -103 138 -166v-18h-146v-67h373v67h-148z" />
</svg>
