<?xml version="1.0" standalone="no"?>
<!DOCTYPE svg PUBLIC "-//W3C//DTD SVG 1.1//EN" "http://www.w3.org/Graphics/SVG/1.1/DTD/svg11.dtd" >
<svg xmlns="http://www.w3.org/2000/svg" xmlns:xlink="http://www.w3.org/1999/xlink" version="1.1" viewBox="-10 0 930 1000">
   <path fill="currentColor"
d="M781 58v490h-82v-490h82zM120 411l-39 -63c120 -25 200 -93 217 -179h-192v-65h477v65h-194c20 77 100 137 215 160l-36 65c-103 -24 -182 -74 -223 -145c-39 79 -119 135 -225 162zM629 437l7 61c-181 21 -395 31 -571 33l-11 -69c181 -2 396 -10 575 -25zM269 884h540
v64h-624v-216h511v-78h-513v-63h598v201h-512v92z" />
</svg>
