<?xml version="1.0" standalone="no"?>
<!DOCTYPE svg PUBLIC "-//W3C//DTD SVG 1.1//EN" "http://www.w3.org/Graphics/SVG/1.1/DTD/svg11.dtd" >
<svg xmlns="http://www.w3.org/2000/svg" xmlns:xlink="http://www.w3.org/1999/xlink" version="1.1" viewBox="-10 0 930 1000">
   <path fill="currentColor"
d="M120 411l-39 -63c121 -25 200 -93 217 -179h-192v-65h477v65h-194c20 77 100 137 215 160l-36 65c-103 -24 -182 -74 -223 -145c-39 79 -119 135 -225 162zM629 437l7 61c-181 21 -395 31 -571 33l-11 -69c181 -2 396 -10 575 -25zM243 797v92c103 0 179 -3 275 -18l6 61
c-107 17 -190 18 -309 18h-53v-211h219v-80h-221v-62h302v200h-219zM498 660v-64h283v361h-83v-297h-200zM699 58h82v490h-82v-490z" />
</svg>
