<?xml version="1.0" standalone="no"?>
<!DOCTYPE svg PUBLIC "-//W3C//DTD SVG 1.1//EN" "http://www.w3.org/Graphics/SVG/1.1/DTD/svg11.dtd" >
<svg xmlns="http://www.w3.org/2000/svg" xmlns:xlink="http://www.w3.org/1999/xlink" version="1.1" viewBox="-10 0 930 1000">
   <path fill="currentColor"
d="M781 58v564h-82v-564h82zM121 442l-39 -64c130 -28 211 -106 217 -200h-191v-67h470v67h-194c7 86 89 155 216 181l-35 65c-103 -23 -181 -74 -221 -145c-38 80 -117 137 -223 163zM631 478l7 62c-181 18 -392 28 -570 30l-12 -72c184 -1 393 -7 575 -20zM488 885
c138 0 215 -32 215 -92c0 -59 -77 -92 -215 -92s-215 33 -215 92c0 60 77 92 215 92zM488 634c189 0 300 56 300 159s-111 160 -300 160s-300 -57 -300 -160s111 -159 300 -159z" />
</svg>
