<?xml version="1.0" standalone="no"?>
<!DOCTYPE svg PUBLIC "-//W3C//DTD SVG 1.1//EN" "http://www.w3.org/Graphics/SVG/1.1/DTD/svg11.dtd" >
<svg xmlns="http://www.w3.org/2000/svg" xmlns:xlink="http://www.w3.org/1999/xlink" version="1.1" viewBox="-10 0 930 1000">
   <path fill="currentColor"
d="M781 58v491h-82v-491h82zM120 411l-39 -63c120 -25 201 -93 217 -179h-192v-65h477v65h-194c20 77 100 137 215 160l-36 65c-103 -24 -182 -74 -223 -145c-38 79 -119 135 -225 162zM629 439l7 61c-181 20 -395 31 -571 33l-11 -70c181 -1 396 -9 575 -24zM272 883h537
v64h-622v-351h603v63h-518v81h507v60h-507v83z" />
</svg>
