<?xml version="1.0" standalone="no"?>
<!DOCTYPE svg PUBLIC "-//W3C//DTD SVG 1.1//EN" "http://www.w3.org/Graphics/SVG/1.1/DTD/svg11.dtd" >
<svg xmlns="http://www.w3.org/2000/svg" xmlns:xlink="http://www.w3.org/1999/xlink" version="1.1" viewBox="-10 0 930 1000">
   <path fill="currentColor"
d="M781 57v518h-84v-518h84zM581 466l-44 64c-101 -33 -178 -104 -218 -193c-38 102 -119 179 -225 217l-46 -67c139 -46 227 -160 227 -295v-8h-200v-69h483v69h-198v13c0 117 86 226 221 269zM146 680l1 -67h296v344h-81v-277h-216zM697 600v75c0 88 53 180 157 220
l-45 64c-76 -32 -126 -89 -154 -156c-29 68 -84 127 -161 157l-45 -61c108 -42 166 -134 166 -219v-80h82z" />
</svg>
