<?xml version="1.0" standalone="no"?>
<!DOCTYPE svg PUBLIC "-//W3C//DTD SVG 1.1//EN" "http://www.w3.org/Graphics/SVG/1.1/DTD/svg11.dtd" >
<svg xmlns="http://www.w3.org/2000/svg" xmlns:xlink="http://www.w3.org/1999/xlink" version="1.1" viewBox="-10 0 930 1000">
   <path fill="currentColor"
d="M781 58v460h-84v-460h84zM582 436l-46 65c-97 -32 -174 -96 -214 -180c-39 96 -118 167 -224 203l-44 -66c137 -44 225 -150 225 -280v-5h-199v-67h482v67h-200v13c0 109 86 210 220 250zM228 787v100c68 0 141 -2 234 -15l7 63c-112 14 -193 15 -269 15h-48v-221h215
v-90h-218v-63h294v211h-215zM576 885h220v63h-299v-375h291v64h-212v93h203v58h-203v97z" />
</svg>
