<?xml version="1.0" standalone="no"?>
<!DOCTYPE svg PUBLIC "-//W3C//DTD SVG 1.1//EN" "http://www.w3.org/Graphics/SVG/1.1/DTD/svg11.dtd" >
<svg xmlns="http://www.w3.org/2000/svg" xmlns:xlink="http://www.w3.org/1999/xlink" version="1.1" viewBox="-10 0 930 1000">
   <path fill="currentColor"
d="M779 58v454h-82v-454h82zM582 435l-45 65c-98 -31 -175 -96 -215 -179c-39 96 -119 167 -224 202l-45 -66c138 -43 226 -150 226 -279v-6h-200v-66h483v66h-200v13c0 110 86 211 220 250zM215 786v97c98 0 156 -2 228 -16l8 61c-82 16 -147 18 -267 18h-47v-219h198v-84
h-200v-63h277v206h-197zM638 901c50 0 84 -24 84 -61s-34 -61 -84 -61s-85 24 -85 61s35 61 85 61zM638 723c88 0 154 45 154 117s-66 117 -154 117c-89 0 -155 -45 -155 -117s66 -117 155 -117zM678 627h151v61h-382v-61h152v-85h79v85z" />
</svg>
