<?xml version="1.0" standalone="no"?>
<!DOCTYPE svg PUBLIC "-//W3C//DTD SVG 1.1//EN" "http://www.w3.org/Graphics/SVG/1.1/DTD/svg11.dtd" >
<svg xmlns="http://www.w3.org/2000/svg" xmlns:xlink="http://www.w3.org/1999/xlink" version="1.1" viewBox="-10 0 930 1000">
   <path fill="currentColor"
d="M789 58v520h-82v-520h82zM601 483l-40 64c-103 -34 -185 -108 -226 -203c-38 102 -121 182 -227 220l-43 -64c136 -47 227 -162 227 -289v-25h-205v-66h492v66h-203v25c0 120 93 229 225 272zM799 690h-252c11 95 140 176 287 198l-30 62c-132 -21 -249 -84 -300 -173
c-51 89 -168 152 -299 173l-30 -62c147 -22 274 -103 285 -198h-249v-66h588v66z" />
</svg>
