<?xml version="1.0" standalone="no"?>
<!DOCTYPE svg PUBLIC "-//W3C//DTD SVG 1.1//EN" "http://www.w3.org/Graphics/SVG/1.1/DTD/svg11.dtd" >
<svg xmlns="http://www.w3.org/2000/svg" xmlns:xlink="http://www.w3.org/1999/xlink" version="1.1" viewBox="-10 0 930 1000">
   <path fill="currentColor"
d="M788 57v502h-82v-502h82zM601 474l-41 65c-103 -34 -184 -107 -225 -199c-38 100 -122 179 -228 216l-42 -64c136 -45 227 -160 227 -285v-24h-205v-66h492v66h-203v24c0 118 93 225 225 267zM400 676v200h190v-200h-190zM671 876h133v66h-617v-66h132v-200h-124v-66h599
v66h-123v200z" />
</svg>
