<?xml version="1.0" standalone="no"?>
<!DOCTYPE svg PUBLIC "-//W3C//DTD SVG 1.1//EN" "http://www.w3.org/Graphics/SVG/1.1/DTD/svg11.dtd" >
<svg xmlns="http://www.w3.org/2000/svg" xmlns:xlink="http://www.w3.org/1999/xlink" version="1.1" viewBox="-10 0 930 1000">
   <path fill="currentColor"
d="M648 481l-44 60c-68 -35 -111 -96 -136 -165c-19 71 -55 139 -122 178c-67 -41 -104 -111 -122 -182c-24 68 -67 131 -135 168l-44 -59c101 -53 142 -167 142 -251v-42h-111v-66h251v66h-62v42c0 64 16 164 81 232c65 -66 82 -164 82 -232v-42h-62v-66h248v66h-107v42
c0 93 40 201 141 251zM406 818l22 64c-83 39 -193 48 -252 48h-46v-312h78v244c55 -3 142 -14 198 -44zM651 679v18c0 85 63 163 169 197l-41 61c-83 -28 -142 -82 -170 -151c-30 66 -88 123 -168 153l-41 -62c104 -39 168 -124 168 -198v-18h-149v-66h382v66h-150zM768 292
h113v69h-113v227h-82v-530h82v234z" />
</svg>
