<?xml version="1.0" standalone="no"?>
<!DOCTYPE svg PUBLIC "-//W3C//DTD SVG 1.1//EN" "http://www.w3.org/Graphics/SVG/1.1/DTD/svg11.dtd" >
<svg xmlns="http://www.w3.org/2000/svg" xmlns:xlink="http://www.w3.org/1999/xlink" version="1.1" viewBox="-10 0 930 1000">
   <path fill="currentColor"
d="M560 445l-40 58c-59 -32 -97 -86 -118 -145c-15 59 -46 119 -104 154c-58 -37 -88 -99 -103 -160c-21 60 -59 115 -118 150l-41 -56c90 -52 126 -159 126 -228v-40h-97v-66h220v66h-52v40c0 43 8 139 66 205c56 -62 65 -152 65 -205v-40h-52v-66h212v66h-89v40
c0 78 34 179 125 227zM238 786v103c100 0 163 -3 244 -15l8 61c-93 14 -163 15 -283 15h-49v-222h226v-89h-228v-64h308v211h-226zM591 636v257h164v-257h-164zM520 954v-379h306v379h-306zM650 359h98v-117h-98v117zM748 58h78v477h-78v-109h-98v105h-76v-456h76v100h98
v-117z" />
</svg>
