<?xml version="1.0" standalone="no"?>
<!DOCTYPE svg PUBLIC "-//W3C//DTD SVG 1.1//EN" "http://www.w3.org/Graphics/SVG/1.1/DTD/svg11.dtd" >
<svg xmlns="http://www.w3.org/2000/svg" xmlns:xlink="http://www.w3.org/1999/xlink" version="1.1" viewBox="-10 0 930 1000">
   <path fill="currentColor"
d="M591 270h131v-213h82v524h-82v-244h-131v-67zM649 486l-45 59c-69 -36 -112 -98 -135 -168c-20 69 -56 136 -122 177c-68 -41 -104 -111 -123 -181c-24 69 -67 134 -134 171l-45 -58c101 -54 142 -171 142 -256v-46h-111v-67h251v67h-62v46c0 63 16 162 82 231
c64 -66 81 -163 81 -231v-46h-62v-67h249v67h-108v46c0 95 40 205 142 256zM234 646v222c56 -2 127 -10 191 -32l15 67c-89 28 -176 34 -243 34h-44v-291h81zM624 908c54 0 92 -17 92 -47s-38 -48 -92 -48c-55 0 -95 18 -95 48s40 47 95 47zM624 760c95 0 164 39 164 101
s-69 101 -164 101c-98 0 -167 -39 -167 -101s69 -101 167 -101zM668 664h179v61h-446v-61h187v-75h80v75z" />
</svg>
