<?xml version="1.0" standalone="no"?>
<!DOCTYPE svg PUBLIC "-//W3C//DTD SVG 1.1//EN" "http://www.w3.org/Graphics/SVG/1.1/DTD/svg11.dtd" >
<svg xmlns="http://www.w3.org/2000/svg" xmlns:xlink="http://www.w3.org/1999/xlink" version="1.1" viewBox="-10 0 930 1000">
   <path fill="currentColor"
d="M590 249h132v-191h82v471h-82v-214h-132v-66zM648 450l-42 59c-69 -33 -113 -91 -138 -155c-19 64 -55 128 -122 164c-67 -37 -103 -103 -121 -168c-25 64 -69 124 -137 159l-43 -59c98 -47 142 -151 142 -225v-54h-111v-66h251v66h-62v55c0 54 18 145 81 205
c63 -58 82 -148 82 -205v-55h-62v-66h249v66h-109v55c0 82 44 180 142 224zM715 568v91c0 97 48 190 153 234l-45 61c-74 -33 -122 -89 -148 -158c-27 73 -79 132 -154 165l-45 -59l5 30c-81 17 -144 18 -271 18h-48v-222h216v-90h-219v-64h299v213h-217v98
c103 0 160 -2 230 -16l5 29c107 -43 158 -140 158 -242v-88h81z" />
</svg>
