<?xml version="1.0" standalone="no"?>
<!DOCTYPE svg PUBLIC "-//W3C//DTD SVG 1.1//EN" "http://www.w3.org/Graphics/SVG/1.1/DTD/svg11.dtd" >
<svg xmlns="http://www.w3.org/2000/svg" xmlns:xlink="http://www.w3.org/1999/xlink" version="1.1" viewBox="-10 0 930 1000">
   <path fill="currentColor"
d="M590 279h132v-221h82v564h-82v-277h-132v-66zM648 495l-43 59c-69 -36 -112 -102 -136 -173c-19 72 -55 141 -123 182c-67 -42 -103 -112 -121 -182c-25 70 -68 136 -137 173l-43 -59c101 -55 142 -172 142 -258v-47h-111v-66h251v66h-63v47c0 64 17 166 82 234
c66 -67 82 -165 82 -234v-47h-62v-66h248v66h-108v47c0 89 41 205 142 258zM500 888c140 0 225 -37 225 -99c0 -63 -85 -100 -225 -100c-139 0 -225 37 -225 100c0 62 86 99 225 99zM500 624c190 0 309 60 309 165c0 103 -119 164 -309 164s-309 -61 -309 -164
c0 -105 119 -165 309 -165z" />
</svg>
