<?xml version="1.0" standalone="no"?>
<!DOCTYPE svg PUBLIC "-//W3C//DTD SVG 1.1//EN" "http://www.w3.org/Graphics/SVG/1.1/DTD/svg11.dtd" >
<svg xmlns="http://www.w3.org/2000/svg" xmlns:xlink="http://www.w3.org/1999/xlink" version="1.1" viewBox="-10 0 930 1000">
   <path fill="currentColor"
d="M829 57v528h-77v-528h77zM493 277h99v-202h77v507h-77v-238h-99v-67zM558 495l-40 56c-58 -34 -95 -91 -115 -154c-15 66 -46 130 -104 169c-60 -41 -90 -109 -105 -175c-21 63 -57 122 -115 158l-43 -54c93 -59 126 -178 126 -257v-50h-97v-66h220v66h-51v52
c0 52 7 158 66 232c56 -70 63 -171 63 -232v-52h-51v-66h212v66h-89v50c0 89 31 202 123 257zM697 690v14c0 90 62 163 169 194l-42 61c-82 -26 -140 -77 -169 -143c-31 67 -92 120 -176 146l-39 -56c-81 26 -173 32 -222 32h-46v-300h78v230c55 -3 143 -13 202 -41l19 62
c90 -37 142 -106 142 -185v-14h-149v-67h383v67h-150z" />
</svg>
