<?xml version="1.0" standalone="no"?>
<!DOCTYPE svg PUBLIC "-//W3C//DTD SVG 1.1//EN" "http://www.w3.org/Graphics/SVG/1.1/DTD/svg11.dtd" >
<svg xmlns="http://www.w3.org/2000/svg" xmlns:xlink="http://www.w3.org/1999/xlink" version="1.1" viewBox="-10 0 930 1000">
   <path fill="currentColor"
d="M494 245h100v-170h76v453h-76v-218h-100v-65zM559 448l-41 55c-59 -35 -95 -92 -116 -156c-15 66 -46 130 -103 169c-59 -41 -90 -108 -105 -175c-20 64 -57 124 -115 161l-43 -55c93 -60 126 -179 126 -257v-9h-97v-67h220v67h-51v9c0 51 7 157 65 232
c57 -71 64 -172 64 -232v-9h-51v-67h212v67h-89v9c0 88 30 201 124 258zM237 791v97c100 0 163 -2 244 -15l8 61c-93 15 -163 16 -282 16h-50v-218h223v-94h-225v-64h305v217h-223zM754 884v-118h-166v118h166zM754 702v-128h75v375h-316v-375h75v128h166zM752 57h77v470
h-77v-470z" />
</svg>
