<?xml version="1.0" standalone="no"?>
<!DOCTYPE svg PUBLIC "-//W3C//DTD SVG 1.1//EN" "http://www.w3.org/Graphics/SVG/1.1/DTD/svg11.dtd" >
<svg xmlns="http://www.w3.org/2000/svg" xmlns:xlink="http://www.w3.org/1999/xlink" version="1.1" viewBox="-10 0 930 1000">
   <path fill="currentColor"
d="M829 57v562h-77v-562h77zM493 277h99v-202h77v509h-77v-240h-99v-67zM558 496l-40 55c-58 -34 -95 -91 -115 -154c-15 66 -46 130 -104 170c-60 -42 -90 -110 -105 -176c-21 63 -57 122 -115 158l-43 -54c93 -59 126 -178 126 -257v-50h-97v-66h220v66h-51v52
c0 52 7 158 65 233c57 -71 64 -172 64 -233v-52h-51v-66h212v66h-89v50c0 89 31 202 123 258zM515 890c147 0 236 -36 236 -99c0 -64 -89 -100 -236 -100c-145 0 -233 36 -233 100c0 63 88 99 233 99zM515 628c200 0 321 58 321 163c0 104 -121 162 -321 162
c-199 0 -318 -58 -318 -162c0 -105 119 -163 318 -163z" />
</svg>
