<?xml version="1.0" standalone="no"?>
<!DOCTYPE svg PUBLIC "-//W3C//DTD SVG 1.1//EN" "http://www.w3.org/Graphics/SVG/1.1/DTD/svg11.dtd" >
<svg xmlns="http://www.w3.org/2000/svg" xmlns:xlink="http://www.w3.org/1999/xlink" version="1.1" viewBox="-10 0 930 1000">
   <path fill="currentColor"
d="M829 57v528h-77v-528h77zM508 218h86v-143h75v507h-75v-160h-86v-66h86v-72h-86v-66zM558 495l-42 56c-58 -35 -95 -91 -115 -155c-15 66 -46 131 -104 170c-58 -41 -88 -109 -103 -176c-21 64 -57 122 -115 159l-43 -55c93 -59 126 -177 126 -256v-50h-97v-66h220v66
h-51v52c0 52 6 157 65 232c55 -71 62 -172 62 -232v-52h-51v-66h212v66h-89v50c0 88 31 201 125 257zM697 690v14c0 90 62 163 169 194l-42 61c-82 -26 -140 -77 -169 -143c-31 67 -92 120 -176 146l-39 -56c-81 26 -173 32 -222 32h-46v-300h78v230c55 -3 143 -13 202 -41
l19 62c90 -37 142 -106 142 -185v-14h-149v-67h383v67h-150z" />
</svg>
