<?xml version="1.0" standalone="no"?>
<!DOCTYPE svg PUBLIC "-//W3C//DTD SVG 1.1//EN" "http://www.w3.org/Graphics/SVG/1.1/DTD/svg11.dtd" >
<svg xmlns="http://www.w3.org/2000/svg" xmlns:xlink="http://www.w3.org/1999/xlink" version="1.1" viewBox="-10 0 930 1000">
   <path fill="currentColor"
d="M509 193h89v-120h74v452h-74v-140h-89v-65h89v-62h-89v-65zM559 450l-42 56c-58 -35 -95 -92 -115 -154c-16 65 -46 128 -104 167c-58 -41 -88 -107 -103 -173c-20 62 -57 122 -115 158l-43 -55c93 -58 126 -177 126 -256v-12h-97v-66h220v66h-51v12c0 51 7 157 64 231
c57 -70 63 -171 63 -231v-12h-50v-66h212v66h-90v12c0 88 31 202 125 257zM237 791v97c100 0 163 -2 244 -15l8 61c-93 15 -163 16 -282 16h-50v-218h223v-94h-225v-64h305v217h-223zM754 884v-118h-166v118h166zM754 702v-128h75v375h-316v-375h75v128h166zM753 56h76v470
h-76v-470z" />
</svg>
