<?xml version="1.0" standalone="no"?>
<!DOCTYPE svg PUBLIC "-//W3C//DTD SVG 1.1//EN" "http://www.w3.org/Graphics/SVG/1.1/DTD/svg11.dtd" >
<svg xmlns="http://www.w3.org/2000/svg" xmlns:xlink="http://www.w3.org/1999/xlink" version="1.1" viewBox="-10 0 930 1000">
   <path fill="currentColor"
d="M829 55v472h-76v-472h76zM509 193h89v-120h74v453h-74v-141h-89v-65h89v-62h-89v-65zM238 792v96c76 0 154 -3 252 -16l6 62c-113 15 -198 16 -284 16h-49v-217h234v-95h-236v-62h311v216h-234zM434 181v12c0 88 31 202 125 258l-42 56c-58 -35 -95 -93 -115 -155
c-16 65 -46 128 -104 168c-58 -41 -88 -108 -103 -174c-20 62 -57 122 -115 159l-43 -55c93 -59 126 -178 126 -257v-12h-97v-66h220v66h-51v12c0 51 7 157 64 232c57 -71 63 -172 63 -232v-12h-50v-66h212v66h-90zM598 885h244v63h-324v-373h312v63h-232v92h222v60h-222v95
z" />
</svg>
