<?xml version="1.0" standalone="no"?>
<!DOCTYPE svg PUBLIC "-//W3C//DTD SVG 1.1//EN" "http://www.w3.org/Graphics/SVG/1.1/DTD/svg11.dtd" >
<svg xmlns="http://www.w3.org/2000/svg" xmlns:xlink="http://www.w3.org/1999/xlink" version="1.1" viewBox="-10 0 930 1000">
   <path fill="currentColor"
d="M116 391l-36 -61c105 -28 165 -103 165 -174v-4h-139v-67h334v67h-113v4c0 55 49 116 131 147c82 -31 131 -92 131 -147v-4h-114v-67h335v67h-140v4c0 71 61 146 166 174l-36 62c-86 -27 -144 -81 -172 -145c-29 56 -84 104 -169 127c-85 -23 -142 -70 -171 -126
c-27 63 -86 117 -172 143zM198 803v81c108 0 165 -2 237 -15l8 61c-81 15 -144 16 -274 16h-48v-202h204v-77h-206v-61h282v197h-203zM620 907c49 0 82 -20 82 -53c0 -32 -33 -51 -82 -51c-48 0 -80 19 -80 51c0 33 32 53 80 53zM620 748c87 0 152 41 152 106
c0 66 -65 107 -152 107c-85 0 -150 -41 -150 -107c0 -65 65 -106 150 -106zM660 579v73h150v61h-376v-61h146v-73h80zM500 456h365v65h-811v-65h364v-72h82v72z" />
</svg>
