<?xml version="1.0" standalone="no"?>
<!DOCTYPE svg PUBLIC "-//W3C//DTD SVG 1.1//EN" "http://www.w3.org/Graphics/SVG/1.1/DTD/svg11.dtd" >
<svg xmlns="http://www.w3.org/2000/svg" xmlns:xlink="http://www.w3.org/1999/xlink" version="1.1" viewBox="-10 0 930 1000">
   <path fill="currentColor"
d="M116 409l-37 -59c105 -34 166 -116 166 -177v-17h-139v-67h334v67h-113v13c0 49 49 119 132 156c83 -35 130 -104 130 -156v-13h-113v-67h334v67h-140v17c0 70 61 146 168 177l-37 59c-88 -27 -147 -84 -175 -148c-28 57 -84 111 -167 137c-85 -27 -141 -82 -170 -141
c-28 65 -87 123 -173 152zM662 621v43c0 95 65 192 182 231l-43 61c-86 -32 -146 -93 -178 -166c-27 74 -79 141 -162 176c-83 -34 -136 -101 -163 -176c-33 72 -95 130 -180 161l-42 -61c117 -38 185 -132 185 -226v-43h78v43c0 82 39 169 121 220
c83 -52 122 -140 122 -220v-43h80zM500 493h367v67h-814v-67h365v-86h82v86z" />
</svg>
