<?xml version="1.0" standalone="no"?>
<!DOCTYPE svg PUBLIC "-//W3C//DTD SVG 1.1//EN" "http://www.w3.org/Graphics/SVG/1.1/DTD/svg11.dtd" >
<svg xmlns="http://www.w3.org/2000/svg" xmlns:xlink="http://www.w3.org/1999/xlink" version="1.1" viewBox="-10 0 930 1000">
   <path fill="currentColor"
d="M98 424l-38 -59c92 -34 138 -114 138 -184v-8h-112v-67h248v67h-58v8c0 44 16 110 70 152c55 -42 71 -108 71 -152v-8h-58v-67h245v67h-108v8c0 69 46 150 138 184l-37 59c-71 -27 -115 -78 -140 -137c-16 51 -50 99 -111 126c-60 -27 -94 -75 -110 -125
c-24 58 -68 109 -138 136zM638 476l6 61c-197 33 -414 36 -581 37l-11 -68c76 0 163 -1 253 -4v-82h82v78c86 -4 171 -10 251 -22zM800 705h-152c3 81 65 157 167 191l-42 60c-77 -27 -132 -79 -162 -142c-30 63 -87 119 -167 147l-41 -59c-81 27 -173 33 -221 33h-46v-289
h80v218c53 -3 137 -13 195 -41l20 66c87 -40 139 -112 139 -174v-10h-146v-65h376v65zM764 316h115v70h-115v215h-82v-543h82v258z" />
</svg>
