<?xml version="1.0" standalone="no"?>
<!DOCTYPE svg PUBLIC "-//W3C//DTD SVG 1.1//EN" "http://www.w3.org/Graphics/SVG/1.1/DTD/svg11.dtd" >
<svg xmlns="http://www.w3.org/2000/svg" xmlns:xlink="http://www.w3.org/1999/xlink" version="1.1" viewBox="-10 0 930 1000">
   <path fill="currentColor"
d="M98 421l-38 -60c92 -33 138 -114 138 -183v-5h-112v-67h248v67h-58v5c0 44 16 110 70 151c55 -41 71 -108 71 -151v-5h-58v-67h246v67h-109v5c0 68 46 150 138 183l-36 60c-71 -28 -116 -79 -140 -138c-17 51 -51 100 -112 127c-60 -27 -94 -76 -110 -126
c-24 58 -68 109 -138 137zM639 474l6 61c-198 33 -415 36 -582 37l-11 -68c76 0 163 -1 253 -4v-84h82v80c86 -4 171 -10 252 -22zM220 649v222c56 -2 128 -9 193 -32l13 67c-88 28 -175 34 -242 34h-44v-291h80zM614 911c54 0 94 -18 94 -48s-40 -48 -94 -48
c-55 0 -93 18 -93 48s38 48 93 48zM614 765c96 0 166 38 166 98c0 61 -70 98 -166 98s-166 -37 -166 -98c0 -60 70 -98 166 -98zM654 597v71h180v61h-439v-61h179v-71h80zM764 316h115v70h-115v205h-82v-533h82v258z" />
</svg>
