<?xml version="1.0" standalone="no"?>
<!DOCTYPE svg PUBLIC "-//W3C//DTD SVG 1.1//EN" "http://www.w3.org/Graphics/SVG/1.1/DTD/svg11.dtd" >
<svg xmlns="http://www.w3.org/2000/svg" xmlns:xlink="http://www.w3.org/1999/xlink" version="1.1" viewBox="-10 0 930 1000">
   <path fill="currentColor"
d="M98 424l-38 -59c92 -34 138 -114 138 -184v-8h-112v-67h248v67h-58v8c0 44 16 110 70 152c55 -42 71 -108 71 -152v-8h-58v-67h245v67h-108v8c0 69 46 150 138 184l-36 59c-71 -27 -116 -78 -141 -137c-16 51 -50 99 -111 126c-60 -27 -93 -75 -109 -125
c-25 58 -69 109 -139 136zM636 478l6 61c-198 33 -415 36 -582 37l-11 -68c77 0 165 -1 256 -4v-84h82v80c85 -4 169 -10 249 -22zM252 719v158h518v66h-601v-291h594v67h-511zM764 316h115v70h-115v224h-82v-552h82v258z" />
</svg>
