<?xml version="1.0" standalone="no"?>
<!DOCTYPE svg PUBLIC "-//W3C//DTD SVG 1.1//EN" "http://www.w3.org/Graphics/SVG/1.1/DTD/svg11.dtd" >
<svg xmlns="http://www.w3.org/2000/svg" xmlns:xlink="http://www.w3.org/1999/xlink" version="1.1" viewBox="-10 0 930 1000">
   <path fill="currentColor"
d="M92 386l-35 -60c89 -29 137 -104 137 -164v-3h-109v-63h249v63h-62v3c0 39 21 100 75 135c54 -35 75 -96 75 -135v-3h-63v-63h245v63h-105v3c0 60 48 132 138 162l-36 59c-71 -24 -116 -72 -140 -125c-19 47 -53 93 -115 117c-61 -24 -94 -71 -113 -119
c-23 56 -69 104 -141 130zM636 434l6 57c-198 32 -415 36 -582 36l-11 -64c77 0 165 -1 256 -4v-78h82v74c85 -4 169 -10 249 -21zM221 796v92c92 0 150 -2 224 -15l8 61c-85 15 -150 16 -264 16h-47v-211h205v-83h-208v-61h288v201h-206zM553 655v237h137v-237h-137z
M479 953v-358h284v358h-284zM880 279v69h-116v206h-82v-497h82v222h116z" />
</svg>
