<?xml version="1.0" standalone="no"?>
<!DOCTYPE svg PUBLIC "-//W3C//DTD SVG 1.1//EN" "http://www.w3.org/Graphics/SVG/1.1/DTD/svg11.dtd" >
<svg xmlns="http://www.w3.org/2000/svg" xmlns:xlink="http://www.w3.org/1999/xlink" version="1.1" viewBox="-10 0 930 1000">
   <path fill="currentColor"
d="M92 386l-35 -59c89 -30 137 -104 137 -165v-3h-109v-63h249v63h-62v3c0 40 21 101 74 136c55 -35 76 -96 76 -136v-3h-63v-63h245v63h-105v3c0 60 48 132 138 162l-36 59c-71 -24 -116 -72 -141 -125c-18 47 -52 93 -114 117c-61 -24 -94 -71 -112 -119
c-23 56 -70 104 -142 130zM638 454l5 60c-198 32 -413 36 -582 37l-10 -67c77 0 164 -1 254 -5v-97h82v94c84 -4 171 -11 251 -22zM682 877v-98h-425v98h425zM682 714v-93h82v322h-589v-322h82v93h425zM880 279v69h-116v224h-82v-515h82v222h116z" />
</svg>
