<?xml version="1.0" standalone="no"?>
<!DOCTYPE svg PUBLIC "-//W3C//DTD SVG 1.1//EN" "http://www.w3.org/Graphics/SVG/1.1/DTD/svg11.dtd" >
<svg xmlns="http://www.w3.org/2000/svg" xmlns:xlink="http://www.w3.org/1999/xlink" version="1.1" viewBox="-10 0 930 1000">
   <path fill="currentColor"
d="M92 386l-35 -60c89 -30 137 -104 137 -164v-3h-109v-63h249v63h-62v3c0 39 21 100 74 135c55 -35 76 -96 76 -135v-3h-63v-63h245v63h-105v3c0 59 48 132 138 161l-35 60c-71 -25 -117 -73 -141 -126c-18 47 -53 93 -115 117c-61 -24 -95 -71 -113 -119
c-23 56 -69 105 -141 131zM625 445l6 58c-196 36 -414 39 -573 39l-9 -65c75 0 163 0 256 -4v-92h82v88c81 -5 162 -12 238 -24zM784 733h-254c22 78 149 141 293 156l-26 62c-137 -16 -259 -70 -313 -151c-54 81 -176 135 -313 151l-26 -62c144 -15 271 -78 293 -156h-254
v-62h259v-85h82v85h259v62zM762 283h119v70h-119v249h-82v-544h82v225z" />
</svg>
