<?xml version="1.0" standalone="no"?>
<!DOCTYPE svg PUBLIC "-//W3C//DTD SVG 1.1//EN" "http://www.w3.org/Graphics/SVG/1.1/DTD/svg11.dtd" >
<svg xmlns="http://www.w3.org/2000/svg" xmlns:xlink="http://www.w3.org/1999/xlink" version="1.1" viewBox="-10 0 930 1000">
   <path fill="currentColor"
d="M645 369v235h-76v-532h76v230h94v-244h78v552h-78v-241h-94zM82 413l-37 -56c80 -36 109 -116 109 -171v-13h-88v-65h217v65h-59v13c0 40 17 105 69 145c54 -40 71 -105 71 -145v-13h-61v-65h212v65h-81v13c0 55 29 135 109 171l-36 57c-58 -25 -90 -70 -110 -117
c-17 44 -49 85 -104 109c-54 -23 -85 -64 -103 -107c-19 46 -52 89 -108 114zM526 482l6 58c-152 25 -345 31 -475 31l-11 -68c60 0 132 -1 207 -3v-87h77v84c69 -3 137 -7 196 -15zM156 713v-67h305v309h-82v-242h-223zM714 640v40c0 92 54 179 159 215l-44 63
c-78 -29 -130 -84 -157 -151c-30 67 -86 124 -163 154l-44 -63c109 -41 167 -131 167 -216v-42h82z" />
</svg>
