<?xml version="1.0" standalone="no"?>
<!DOCTYPE svg PUBLIC "-//W3C//DTD SVG 1.1//EN" "http://www.w3.org/Graphics/SVG/1.1/DTD/svg11.dtd" >
<svg xmlns="http://www.w3.org/2000/svg" xmlns:xlink="http://www.w3.org/1999/xlink" version="1.1" viewBox="-10 0 930 1000">
   <path fill="currentColor"
d="M645 369v227h-76v-524h76v230h94v-244h78v543h-78v-232h-94zM82 413l-37 -56c80 -36 109 -116 109 -171v-13h-88v-65h217v65h-59v13c0 40 17 105 70 145c53 -40 70 -105 70 -145v-13h-60v-65h211v65h-81v13c0 55 29 135 109 171l-36 57c-58 -25 -90 -70 -109 -117
c-18 44 -49 85 -104 109c-55 -23 -86 -64 -104 -107c-19 46 -53 89 -108 114zM526 484l6 59c-152 24 -345 30 -475 31l-11 -68c60 0 132 -1 207 -3v-86h77v82c69 -3 137 -7 196 -15zM279 877h552v67h-634v-297h625v67h-543v163z" />
</svg>
