<?xml version="1.0" standalone="no"?>
<!DOCTYPE svg PUBLIC "-//W3C//DTD SVG 1.1//EN" "http://www.w3.org/Graphics/SVG/1.1/DTD/svg11.dtd" >
<svg xmlns="http://www.w3.org/2000/svg" xmlns:xlink="http://www.w3.org/1999/xlink" version="1.1" viewBox="-10 0 930 1000">
   <path fill="currentColor"
d="M647 329v206h-76v-464h76v191h92v-205h78v480h-78v-208h-92zM81 381l-38 -58c77 -34 106 -113 106 -167h-88v-65h218v65h-60c0 40 17 105 70 144c53 -39 70 -104 70 -144h-60v-65h212v65h-82c0 53 29 131 106 164l-36 58c-56 -24 -87 -67 -106 -112
c-18 44 -49 87 -104 111c-54 -24 -86 -65 -104 -109c-18 46 -50 88 -104 113zM530 433l6 59c-153 25 -348 31 -479 31l-11 -67c59 0 130 -1 204 -3v-72h77v68c70 -3 141 -8 203 -16zM225 799v89c96 0 155 -3 226 -17l8 62c-82 15 -146 17 -265 17h-47v-207h201v-81h-204v-61
h282v198h-201zM644 906c48 0 82 -22 82 -58s-34 -58 -82 -58s-82 22 -82 58s34 58 82 58zM644 734c88 0 152 44 152 114s-64 114 -152 114s-152 -44 -152 -114s64 -114 152 -114zM683 636h146v61h-369v-61h143v-71h80v71z" />
</svg>
