<?xml version="1.0" standalone="no"?>
<!DOCTYPE svg PUBLIC "-//W3C//DTD SVG 1.1//EN" "http://www.w3.org/Graphics/SVG/1.1/DTD/svg11.dtd" >
<svg xmlns="http://www.w3.org/2000/svg" xmlns:xlink="http://www.w3.org/1999/xlink" version="1.1" viewBox="-10 0 930 1000">
   <path fill="currentColor"
d="M647 343v220h-76v-492h76v205h92v-218h78v513h-78v-228h-92zM80 396l-37 -58c77 -34 106 -113 106 -168v-3h-88v-65h218v65h-60v3c0 40 17 106 70 145c53 -39 70 -105 70 -145v-3h-60v-65h212v65h-82v3c0 54 29 132 106 165l-36 58c-56 -24 -87 -67 -106 -112
c-18 44 -49 86 -104 110c-55 -23 -87 -64 -105 -108c-17 46 -49 88 -104 113zM531 455l5 59c-152 24 -348 30 -478 31l-11 -68c59 0 130 -1 204 -3v-78h77v75c70 -4 141 -8 203 -16zM404 885v-112h-167v112h167zM724 606v58c0 85 56 181 160 226l-43 64
c-76 -33 -129 -91 -157 -160c-29 70 -83 129 -161 161l-42 -61v55h-321v-338h77v100h167v-100h77v279c104 -43 162 -137 162 -225v-59h81z" />
</svg>
