<?xml version="1.0" standalone="no"?>
<!DOCTYPE svg PUBLIC "-//W3C//DTD SVG 1.1//EN" "http://www.w3.org/Graphics/SVG/1.1/DTD/svg11.dtd" >
<svg xmlns="http://www.w3.org/2000/svg" xmlns:xlink="http://www.w3.org/1999/xlink" version="1.1" viewBox="-10 0 930 1000">
   <path fill="currentColor"
d="M645 374v230h-76v-532h76v235h94v-249h78v601h-78v-285h-94zM82 413l-37 -57c80 -36 109 -115 109 -170v-13h-88v-65h217v65h-59v13c0 40 17 105 69 144c54 -39 71 -104 71 -144v-13h-61v-65h213v65h-82v13c0 55 29 134 110 170l-37 58c-58 -26 -90 -71 -110 -118
c-17 44 -49 86 -104 110c-54 -23 -85 -65 -103 -108c-19 46 -52 90 -108 115zM526 496l6 58c-152 25 -345 31 -475 31l-11 -67c60 0 132 -1 207 -3v-98h77v94c69 -3 137 -7 196 -15zM537 637v29c0 115 134 199 303 222l-29 64c-139 -21 -261 -80 -315 -173
c-56 94 -180 155 -323 175l-28 -66c172 -22 309 -107 309 -222v-29h83z" />
</svg>
