<?xml version="1.0" standalone="no"?>
<!DOCTYPE svg PUBLIC "-//W3C//DTD SVG 1.1//EN" "http://www.w3.org/Graphics/SVG/1.1/DTD/svg11.dtd" >
<svg xmlns="http://www.w3.org/2000/svg" xmlns:xlink="http://www.w3.org/1999/xlink" version="1.1" viewBox="-10 0 930 1000">
   <path fill="currentColor"
d="M790 59v550h-82v-550h82zM108 423l-37 -59c92 -33 140 -111 140 -180v-13h-112v-67h255v67h-65v13c0 45 19 110 76 150c57 -40 76 -105 76 -150v-13h-61v-67h253v67h-114v13c0 68 49 145 141 177l-37 60c-73 -27 -119 -78 -143 -136c-18 51 -52 100 -116 127
c-62 -26 -97 -75 -114 -125c-24 58 -70 109 -142 136zM654 478l6 60c-201 28 -419 34 -596 35l-11 -69c84 0 176 -1 271 -4v-80h82v77c85 -4 169 -10 248 -19zM150 713l-1 -67h303v309h-82v-242h-220zM705 636v44c0 84 55 173 158 210l-40 64c-80 -29 -132 -85 -160 -153
c-28 67 -80 126 -157 158l-41 -65c103 -45 159 -138 159 -214v-44h81z" />
</svg>
