<?xml version="1.0" standalone="no"?>
<!DOCTYPE svg PUBLIC "-//W3C//DTD SVG 1.1//EN" "http://www.w3.org/Graphics/SVG/1.1/DTD/svg11.dtd" >
<svg xmlns="http://www.w3.org/2000/svg" xmlns:xlink="http://www.w3.org/1999/xlink" version="1.1" viewBox="-10 0 930 1000">
   <path fill="currentColor"
d="M790 59v524h-82v-524h82zM108 421l-37 -59c92 -33 140 -111 140 -179v-12h-112v-67h255v67h-65v12c0 44 19 109 76 149c57 -40 76 -105 76 -149v-12h-61v-67h253v67h-114v12c0 67 49 144 141 176l-37 60c-73 -27 -119 -78 -143 -136c-18 51 -52 100 -115 127
c-63 -26 -97 -75 -114 -125c-24 58 -70 109 -143 136zM654 478l6 61c-201 27 -419 33 -596 34l-11 -68c84 0 176 -2 271 -5v-82h82v79c85 -4 168 -10 248 -19zM222 647v223c56 -2 128 -9 193 -32l14 67c-88 28 -175 34 -243 34h-44v-292h80zM620 909c54 0 94 -18 94 -48
c0 -29 -40 -47 -94 -47c-55 0 -95 18 -95 47c0 30 40 48 95 48zM620 763c96 0 166 38 166 98c0 61 -70 99 -166 99c-97 0 -167 -38 -167 -99c0 -60 70 -98 167 -98zM660 667h180v61h-441v-61h181v-72h80v72z" />
</svg>
