<?xml version="1.0" standalone="no"?>
<!DOCTYPE svg PUBLIC "-//W3C//DTD SVG 1.1//EN" "http://www.w3.org/Graphics/SVG/1.1/DTD/svg11.dtd" >
<svg xmlns="http://www.w3.org/2000/svg" xmlns:xlink="http://www.w3.org/1999/xlink" version="1.1" viewBox="-10 0 930 1000">
   <path fill="currentColor"
d="M789 57v523h-82v-523h82zM104 383l-33 -58c90 -27 140 -96 140 -154v-14h-113v-64h256v64h-68v14c0 36 21 94 77 128c57 -34 78 -92 78 -128v-14h-61v-64h252v64h-112v14c0 56 51 125 140 152l-33 57c-75 -24 -123 -73 -147 -126c-18 46 -52 94 -116 117l-1 -1v1
c-62 -23 -97 -68 -115 -112c-24 52 -71 100 -144 124zM646 436l7 58c-198 30 -417 36 -589 37l-11 -66c82 0 174 -2 269 -5v-81h82v77c82 -4 165 -10 242 -20zM489 900c105 0 167 -18 167 -52c0 -35 -63 -52 -167 -52c-106 0 -169 17 -169 52c0 34 63 52 169 52zM488 741
c159 0 253 37 253 107c0 69 -94 107 -253 107s-252 -38 -252 -107c0 -70 93 -107 252 -107zM529 638h279v63h-639v-63h278v-80h82v80z" />
</svg>
