<?xml version="1.0" standalone="no"?>
<!DOCTYPE svg PUBLIC "-//W3C//DTD SVG 1.1//EN" "http://www.w3.org/Graphics/SVG/1.1/DTD/svg11.dtd" >
<svg xmlns="http://www.w3.org/2000/svg" xmlns:xlink="http://www.w3.org/1999/xlink" version="1.1" viewBox="-10 0 930 1000">
   <path fill="currentColor"
d="M116 412l-37 -59c105 -34 166 -116 166 -177v-19h-139v-66h334v66h-113v14c0 50 48 120 132 156c81 -34 130 -103 130 -156v-14h-114v-66h336v66h-141v19c0 70 62 146 168 177l-36 59c-89 -26 -147 -82 -175 -147c-28 59 -84 112 -169 138c-85 -26 -141 -82 -170 -140
c-28 63 -86 120 -172 149zM135 718v-67h305v308h-82v-241h-223zM477 718v-67h291v308h-82v-241h-209zM641 497h226v66h-815v-66h225v-117h82v117h200v-117h82v117z" />
</svg>
