<?xml version="1.0" standalone="no"?>
<!DOCTYPE svg PUBLIC "-//W3C//DTD SVG 1.1//EN" "http://www.w3.org/Graphics/SVG/1.1/DTD/svg11.dtd" >
<svg xmlns="http://www.w3.org/2000/svg" xmlns:xlink="http://www.w3.org/1999/xlink" version="1.1" viewBox="-10 0 930 1000">
   <path fill="currentColor"
d="M116 391l-36 -61c104 -28 165 -103 165 -174v-4h-139v-67h334v67h-113v4c0 55 49 116 131 147c83 -31 131 -92 131 -147v-4h-113v-67h334v67h-140v4c0 71 61 146 167 174l-37 62c-86 -27 -144 -81 -172 -145c-29 56 -84 105 -170 127c-85 -22 -142 -70 -170 -126
c-28 63 -87 117 -172 143zM458 915c110 0 176 -23 176 -61c0 -40 -66 -62 -176 -62c-112 0 -178 22 -178 62c0 38 66 61 178 61zM458 740c164 0 260 39 260 114c0 74 -96 113 -260 113c-166 0 -262 -39 -262 -113c0 -75 96 -114 262 -114zM499 558v74h290v64h-663v-64h291
v-74h82zM640 458h225v65h-812v-65h222v-100h82v100h201v-101h82v101z" />
</svg>
