<?xml version="1.0" standalone="no"?>
<!DOCTYPE svg PUBLIC "-//W3C//DTD SVG 1.1//EN" "http://www.w3.org/Graphics/SVG/1.1/DTD/svg11.dtd" >
<svg xmlns="http://www.w3.org/2000/svg" xmlns:xlink="http://www.w3.org/1999/xlink" version="1.1" viewBox="-10 0 930 1000">
   <path fill="currentColor"
d="M116 400l-36 -61c104 -29 165 -103 165 -175v-14h-139v-66h334v66h-113v14c0 64 47 135 132 171c83 -36 130 -107 130 -171v-14h-113v-66h334v66h-140v14c0 72 61 146 166 175l-36 62c-85 -27 -143 -79 -170 -141c-28 64 -85 121 -171 148c-88 -27 -145 -84 -173 -148
c-27 62 -85 114 -170 140zM760 738h-257c22 85 147 147 295 162l-30 63c-137 -17 -257 -69 -310 -153c-54 84 -175 136 -312 153l-30 -63c149 -15 275 -77 297 -162h-258v-62h263v-56h83v56h259v62zM54 445h810v64h-364v89h-82v-89h-364v-64z" />
</svg>
