<?xml version="1.0" standalone="no"?>
<!DOCTYPE svg PUBLIC "-//W3C//DTD SVG 1.1//EN" "http://www.w3.org/Graphics/SVG/1.1/DTD/svg11.dtd" >
<svg xmlns="http://www.w3.org/2000/svg" xmlns:xlink="http://www.w3.org/1999/xlink" version="1.1" viewBox="-10 0 930 1000">
   <path fill="currentColor"
d="M116 400l-36 -61c104 -29 165 -103 165 -175v-14h-139v-66h334v66h-113v14c0 64 47 135 132 171c83 -36 130 -107 130 -171v-14h-113v-66h334v66h-140v14c0 72 61 146 166 175l-36 62c-85 -27 -143 -79 -170 -141c-28 64 -85 121 -171 148c-88 -27 -145 -84 -173 -148
c-27 62 -85 114 -170 140zM459 909c114 0 181 -19 181 -54c0 -36 -67 -54 -181 -54c-116 0 -184 18 -184 54c0 35 68 54 184 54zM459 748c171 0 268 37 268 107s-97 106 -268 106c-174 0 -271 -36 -271 -106s97 -107 271 -107zM500 602v48h288v61h-660v-61h290v-48h82z
M54 445h810v63h-364v76h-82v-76h-364v-63z" />
</svg>
