<?xml version="1.0" standalone="no"?>
<!DOCTYPE svg PUBLIC "-//W3C//DTD SVG 1.1//EN" "http://www.w3.org/Graphics/SVG/1.1/DTD/svg11.dtd" >
<svg xmlns="http://www.w3.org/2000/svg" xmlns:xlink="http://www.w3.org/1999/xlink" version="1.1" viewBox="-10 0 930 1000">
   <path fill="currentColor"
d="M512 537h198v-480h82v647h-82v-109h-198v-58zM86 372l-32 -58c89 -25 141 -92 141 -145v-15h-112v-64h256v64h-67v15c0 43 20 106 77 142c57 -36 77 -99 77 -142v-15h-62v-64h252v64h-113v15c0 54 52 120 141 145l-32 58c-72 -22 -119 -67 -145 -116
c-16 51 -50 102 -118 128c-69 -26 -103 -76 -120 -128c-25 49 -72 94 -143 116zM286 673v-170c-82 3 -159 4 -231 4l-11 -66c181 -1 402 -3 602 -22l5 58c-92 11 -189 18 -283 23v173h-82zM536 638v29c0 121 133 202 295 224l-35 62c-132 -23 -249 -79 -302 -173
c-53 93 -174 152 -310 174l-32 -63c166 -22 301 -107 301 -224v-29h83z" />
</svg>
