<?xml version="1.0" standalone="no"?>
<!DOCTYPE svg PUBLIC "-//W3C//DTD SVG 1.1//EN" "http://www.w3.org/Graphics/SVG/1.1/DTD/svg11.dtd" >
<svg xmlns="http://www.w3.org/2000/svg" xmlns:xlink="http://www.w3.org/1999/xlink" version="1.1" viewBox="-10 0 930 1000">
   <path fill="currentColor"
d="M520 535h184v-478h82v596h-82v-59h-184v-59zM89 395l-32 -57c88 -30 135 -103 135 -161v-17h-107v-64h256v64h-72v17c0 46 24 108 85 145c60 -37 85 -99 85 -145v-17h-73v-64h253v64h-103v17c0 57 46 129 134 158l-31 58c-72 -25 -117 -73 -141 -127
c-18 52 -55 102 -124 127c-69 -25 -106 -74 -124 -125c-23 54 -69 102 -141 127zM295 641v-137c-85 3 -165 4 -236 4l-11 -66c175 -1 401 -3 599 -26l7 59c-90 13 -185 21 -277 25v141h-82zM490 891c141 0 220 -30 220 -82c0 -53 -79 -83 -220 -83s-220 30 -220 83
c0 52 79 82 220 82zM490 665c192 0 303 50 303 144c0 93 -111 144 -303 144s-304 -51 -304 -144c0 -94 112 -144 304 -144z" />
</svg>
