<?xml version="1.0" standalone="no"?>
<!DOCTYPE svg PUBLIC "-//W3C//DTD SVG 1.1//EN" "http://www.w3.org/Graphics/SVG/1.1/DTD/svg11.dtd" >
<svg xmlns="http://www.w3.org/2000/svg" xmlns:xlink="http://www.w3.org/1999/xlink" version="1.1" viewBox="-10 0 930 1000">
   <path fill="currentColor"
d="M520 497h191v-439h81v561h-81v-64h-191v-58zM86 344l-32 -57c86 -25 138 -87 141 -139h-112v-64h256v64h-67c2 42 22 101 77 136c55 -35 75 -94 77 -136h-62v-64h253v64h-114c3 52 55 114 142 139l-33 57c-72 -23 -119 -67 -144 -116c-16 51 -51 102 -119 129
c-69 -27 -103 -77 -119 -128c-25 49 -72 93 -144 115zM291 601v-139c-84 3 -164 4 -237 4l-11 -66c182 0 404 -2 603 -22l6 58c-92 11 -186 19 -279 23v142h-82zM802 732h-271c26 78 152 140 299 155l-26 62c-141 -16 -265 -71 -320 -153c-54 83 -179 140 -319 157l-27 -63
c148 -15 274 -79 299 -158h-269v-65h275v-91h82v91h277v65z" />
</svg>
