<?xml version="1.0" standalone="no"?>
<!DOCTYPE svg PUBLIC "-//W3C//DTD SVG 1.1//EN" "http://www.w3.org/Graphics/SVG/1.1/DTD/svg11.dtd" >
<svg xmlns="http://www.w3.org/2000/svg" xmlns:xlink="http://www.w3.org/1999/xlink" version="1.1" viewBox="-10 0 930 1000">
   <path fill="currentColor"
d="M519 528h191v-471h82v575h-82v-46h-191v-58zM87 371l-33 -57c89 -25 141 -92 141 -145v-15h-112v-64h256v64h-67v15c0 43 20 106 77 142c57 -36 77 -99 77 -142v-15h-62v-64h252v64h-113v15c0 54 52 120 141 145l-33 57c-72 -22 -119 -66 -144 -115
c-16 51 -50 102 -118 128c-68 -26 -103 -76 -119 -128c-25 49 -72 93 -143 115zM295 623v-133c-85 3 -165 4 -239 4l-11 -65c182 -1 403 -3 602 -23l5 58c-91 11 -184 18 -275 23v136h-82zM168 667h625v289h-82v-98l-550 26l-11 -65l561 -18v-69h-543v-65z" />
</svg>
