<?xml version="1.0" standalone="no"?>
<!DOCTYPE svg PUBLIC "-//W3C//DTD SVG 1.1//EN" "http://www.w3.org/Graphics/SVG/1.1/DTD/svg11.dtd" >
<svg xmlns="http://www.w3.org/2000/svg" xmlns:xlink="http://www.w3.org/1999/xlink" version="1.1" viewBox="-10 0 930 1000">
   <path fill="currentColor"
d="M822 58v573h-77v-573h77zM418 532h165v-454h76v550h-76v-37h-165v-59zM73 390l-33 -57c83 -30 120 -104 121 -163h-95v-65h217v65h-51c0 47 12 115 60 159c50 -49 60 -122 61 -159h-50v-65h213v65h-92c1 54 40 131 122 163l-32 57c-61 -25 -100 -69 -122 -117
c-13 52 -42 104 -98 134v1h-1v-1c-57 -28 -86 -79 -100 -130c-21 47 -59 90 -120 113zM250 641v-138c-73 4 -142 6 -202 6l-10 -69c144 -1 351 -7 505 -26l5 61c-68 11 -144 19 -219 23v143h-79zM849 728h-156c6 78 68 143 170 171l-42 59c-77 -23 -134 -68 -166 -127
c-30 60 -88 108 -171 132l-39 -58c-81 28 -178 35 -227 35h-47v-261h78v190c53 -3 141 -13 201 -41l20 66c92 -31 144 -96 146 -166h-151v-65h384v65z" />
</svg>
