<?xml version="1.0" standalone="no"?>
<!DOCTYPE svg PUBLIC "-//W3C//DTD SVG 1.1//EN" "http://www.w3.org/Graphics/SVG/1.1/DTD/svg11.dtd" >
<svg xmlns="http://www.w3.org/2000/svg" xmlns:xlink="http://www.w3.org/1999/xlink" version="1.1" viewBox="-10 0 930 1000">
   <path fill="currentColor"
d="M822 58v579h-77v-579h77zM419 537h164v-459h76v559h-76v-42h-164v-58zM73 390l-33 -57c83 -30 120 -104 121 -163h-95v-65h218v65h-52c0 47 13 115 60 159c50 -49 60 -122 61 -159h-49v-65h212v65h-92c1 54 40 131 123 163l-33 57c-60 -25 -99 -69 -121 -117
c-13 52 -42 105 -99 134v1h-1v-1c-57 -28 -86 -78 -100 -130c-21 47 -59 90 -120 113zM250 637v-134c-73 4 -142 6 -202 6l-10 -69c144 -1 351 -7 504 -26l6 61c-68 11 -143 19 -219 23v139h-79zM695 661v21c0 92 68 183 186 219l-43 60c-86 -30 -149 -87 -182 -159
c-27 74 -80 139 -162 173c-83 -33 -137 -98 -164 -172c-34 71 -96 128 -182 158l-41 -60c116 -38 185 -129 185 -219v-21h79v21c0 79 40 163 122 212c82 -50 123 -134 123 -212v-21h79z" />
</svg>
