<?xml version="1.0" standalone="no"?>
<!DOCTYPE svg PUBLIC "-//W3C//DTD SVG 1.1//EN" "http://www.w3.org/Graphics/SVG/1.1/DTD/svg11.dtd" >
<svg xmlns="http://www.w3.org/2000/svg" xmlns:xlink="http://www.w3.org/1999/xlink" version="1.1" viewBox="-10 0 930 1000">
   <path fill="currentColor"
d="M822 58v602h-77v-602h77zM425 516h158v-438h76v544h-76v-47h-158v-59zM72 390l-32 -57c83 -30 120 -104 121 -163h-95v-65h217v65h-51c0 47 12 115 60 159c49 -49 60 -122 61 -159h-50v-65h212v65h-91c1 54 39 131 122 163l-32 57c-61 -25 -99 -69 -122 -117
c-13 52 -42 105 -99 134v1h-1v-1c-57 -27 -86 -78 -100 -130c-21 47 -59 90 -120 113zM251 633v-144c-73 5 -144 7 -204 7l-10 -69c144 -1 352 -8 505 -27l6 61c-68 11 -143 19 -219 23v149h-78zM513 890c148 0 233 -32 233 -88s-85 -88 -233 -88c-147 0 -233 32 -233 88
s86 88 233 88zM513 650c199 0 319 54 319 152s-120 152 -319 152s-318 -54 -318 -152s119 -152 318 -152z" />
</svg>
