<?xml version="1.0" standalone="no"?>
<!DOCTYPE svg PUBLIC "-//W3C//DTD SVG 1.1//EN" "http://www.w3.org/Graphics/SVG/1.1/DTD/svg11.dtd" >
<svg xmlns="http://www.w3.org/2000/svg" xmlns:xlink="http://www.w3.org/1999/xlink" version="1.1" viewBox="-10 0 930 1000">
   <path fill="currentColor"
d="M822 58v583h-77v-583h77zM419 537h164v-459h76v563h-76v-46h-164v-58zM73 390l-33 -57c83 -30 120 -104 121 -163h-95v-65h218v65h-52c0 47 13 115 60 159c50 -49 60 -122 61 -159h-49v-65h212v65h-92c1 54 40 131 123 163l-33 57c-60 -25 -99 -69 -121 -117
c-13 52 -42 105 -99 134v1h-1v-1c-57 -28 -86 -78 -100 -130c-21 47 -59 90 -120 113zM250 641v-138c-73 4 -142 6 -202 6l-10 -69c144 -1 351 -7 505 -26l5 61c-68 11 -143 19 -219 23v143h-79zM827 739h-267c24 83 147 136 300 149l-26 63c-141 -16 -268 -63 -322 -148
c-54 86 -182 132 -325 147l-25 -63c154 -13 277 -64 301 -148h-256v-65h620v65z" />
</svg>
