<?xml version="1.0" standalone="no"?>
<!DOCTYPE svg PUBLIC "-//W3C//DTD SVG 1.1//EN" "http://www.w3.org/Graphics/SVG/1.1/DTD/svg11.dtd" >
<svg xmlns="http://www.w3.org/2000/svg" xmlns:xlink="http://www.w3.org/1999/xlink" version="1.1" viewBox="-10 0 930 1000">
   <path fill="currentColor"
d="M787 57v565h-82v-565h82zM88 386l-34 -58c90 -28 141 -97 141 -153v-18h-112v-64h256v64h-67v18c0 45 19 110 76 148c58 -38 77 -103 77 -148v-18h-61v-64h252v64h-114v18c0 57 51 125 142 153l-33 58c-72 -23 -119 -69 -144 -120c-16 53 -51 104 -118 131
c-68 -27 -103 -78 -118 -131c-25 51 -72 96 -143 120zM388 524v130h62v297h-82v-230h-224v-67h162v-126c-91 4 -179 5 -260 5l-10 -70c185 0 408 -2 612 -22l5 61c-87 10 -177 18 -265 22zM703 648v28c0 90 56 179 161 216l-42 64c-79 -29 -132 -85 -160 -153
c-30 69 -85 127 -166 157l-42 -63c109 -42 167 -133 167 -219v-30h82z" />
</svg>
