<?xml version="1.0" standalone="no"?>
<!DOCTYPE svg PUBLIC "-//W3C//DTD SVG 1.1//EN" "http://www.w3.org/Graphics/SVG/1.1/DTD/svg11.dtd" >
<svg xmlns="http://www.w3.org/2000/svg" xmlns:xlink="http://www.w3.org/1999/xlink" version="1.1" viewBox="-10 0 930 1000">
   <path fill="currentColor"
d="M85 378l-34 -58c89 -27 141 -97 141 -152v-10h-112v-64h255v64h-67v10c0 44 20 109 77 147c57 -38 76 -103 76 -147v-10h-61v-64h253v64h-114v10c0 56 50 125 141 152l-33 58c-72 -23 -119 -69 -143 -120c-16 52 -51 104 -120 131c-67 -27 -101 -78 -117 -130
c-25 50 -73 95 -142 119zM219 802v89c99 0 158 -3 234 -16l9 59c-88 15 -155 16 -276 16h-48v-204h215v-78h-217v-60h167v-106c-88 3 -174 4 -251 4l-11 -68c187 0 407 -2 606 -20l6 60c-87 11 -179 17 -268 21v109h50v194h-216zM708 890v-114h-146v114h146zM708 716v-109
h76v344h-298v-344h76v109h146zM702 58h82v506h-82v-506z" />
</svg>
