<?xml version="1.0" standalone="no"?>
<!DOCTYPE svg PUBLIC "-//W3C//DTD SVG 1.1//EN" "http://www.w3.org/Graphics/SVG/1.1/DTD/svg11.dtd" >
<svg xmlns="http://www.w3.org/2000/svg" xmlns:xlink="http://www.w3.org/1999/xlink" version="1.1" viewBox="-10 0 930 1000">
   <path fill="currentColor"
d="M119 421l-36 -60c104 -33 165 -116 165 -179v-19h-139v-66h334v66h-113v19c0 57 48 136 131 178c83 -41 131 -117 131 -178v-19h-114v-66h335v66h-139v19c0 71 60 149 166 179l-37 61c-83 -26 -141 -79 -170 -142c-28 66 -84 128 -172 156c-88 -29 -145 -93 -173 -159
c-28 60 -86 116 -169 144zM564 670v-131h-209v131h209zM867 539h-221v131h116v289h-84v-222h-536v-67h131v-131h-220v-67h814v67z" />
</svg>
