<?xml version="1.0" standalone="no"?>
<!DOCTYPE svg PUBLIC "-//W3C//DTD SVG 1.1//EN" "http://www.w3.org/Graphics/SVG/1.1/DTD/svg11.dtd" >
<svg xmlns="http://www.w3.org/2000/svg" xmlns:xlink="http://www.w3.org/1999/xlink" version="1.1" viewBox="-10 0 930 1000">
   <path fill="currentColor"
d="M120 448l-37 -60c105 -34 165 -119 165 -182v-36h-139v-67h334v67h-113v36c0 57 48 137 131 180c84 -42 131 -119 131 -180v-36h-114v-67h335v67h-139v36c0 72 60 151 165 182l-36 61c-84 -26 -142 -81 -170 -145c-28 68 -85 129 -172 158c-88 -31 -145 -94 -172 -161
c-29 62 -86 119 -169 147zM234 676v181h549v67h-631v-248h82zM53 531h813v67h-813v-67z" />
</svg>
