<?xml version="1.0" standalone="no"?>
<!DOCTYPE svg PUBLIC "-//W3C//DTD SVG 1.1//EN" "http://www.w3.org/Graphics/SVG/1.1/DTD/svg11.dtd" >
<svg xmlns="http://www.w3.org/2000/svg" xmlns:xlink="http://www.w3.org/1999/xlink" version="1.1" viewBox="-10 0 930 1000">
   <path fill="currentColor"
d="M119 400l-37 -61c105 -29 166 -104 166 -175v-14h-140v-66h334v66h-112v14c0 64 46 135 131 171c84 -36 131 -107 131 -171v-14h-114v-66h335v66h-139v14c0 71 60 146 166 175l-37 62c-84 -27 -142 -79 -170 -142c-28 65 -84 121 -172 148c-88 -27 -144 -83 -172 -148
c-28 63 -85 115 -170 141zM217 802v84c106 0 163 -2 234 -15l8 61c-81 15 -142 16 -270 16h-48v-203h209v-80h-212v-60h288v197h-209zM564 804v81h229v61h-308v-341h298v61h-219v81h208v57h-208zM54 462h811v65h-811v-65z" />
</svg>
