<?xml version="1.0" standalone="no"?>
<!DOCTYPE svg PUBLIC "-//W3C//DTD SVG 1.1//EN" "http://www.w3.org/Graphics/SVG/1.1/DTD/svg11.dtd" >
<svg xmlns="http://www.w3.org/2000/svg" xmlns:xlink="http://www.w3.org/1999/xlink" version="1.1" viewBox="-10 0 930 1000">
   <path fill="currentColor"
d="M129 421l-37 -60c104 -34 165 -116 165 -179v-19h-139v-66h334v66h-113v19c0 57 48 136 132 178c83 -41 131 -117 131 -178v-19h-114v-66h335v66h-139v19c0 71 60 149 165 179l-36 61c-84 -26 -141 -79 -170 -142c-28 66 -85 127 -172 156c-89 -30 -145 -93 -173 -160
c-29 61 -87 117 -169 145zM664 685v23c0 79 67 160 181 191l-41 60c-86 -26 -149 -81 -181 -148c-26 65 -79 126 -159 157c-84 -30 -136 -88 -162 -156c-33 65 -95 121 -179 147l-40 -59c112 -34 182 -117 182 -192v-23h79v23c0 68 40 140 118 182c80 -46 122 -124 122 -182
v-23h80zM53 516h814v65h-814v-65z" />
</svg>
