<?xml version="1.0" standalone="no"?>
<!DOCTYPE svg PUBLIC "-//W3C//DTD SVG 1.1//EN" "http://www.w3.org/Graphics/SVG/1.1/DTD/svg11.dtd" >
<svg xmlns="http://www.w3.org/2000/svg" xmlns:xlink="http://www.w3.org/1999/xlink" version="1.1" viewBox="-10 0 930 1000">
   <path fill="currentColor"
d="M106 410l-36 -59c92 -29 141 -103 141 -167v-13h-112v-66h255v66h-65v13c0 48 18 118 76 162c57 -44 76 -114 76 -162v-13h-61v-66h253v66h-114v13c0 63 50 137 141 167l-36 60c-71 -25 -117 -72 -142 -126c-16 56 -51 110 -117 140v-1l-1 1c-66 -29 -99 -83 -117 -139
c-25 53 -71 100 -141 124zM654 466l6 60c-201 28 -419 34 -596 34l-11 -68c182 0 406 -4 601 -26zM165 717v-66h295v305h-82v-239h-213zM501 717v-66h289v305h-82v-239h-207zM708 59h82v550h-82v-550z" />
</svg>
