<?xml version="1.0" standalone="no"?>
<!DOCTYPE svg PUBLIC "-//W3C//DTD SVG 1.1//EN" "http://www.w3.org/Graphics/SVG/1.1/DTD/svg11.dtd" >
<svg xmlns="http://www.w3.org/2000/svg" xmlns:xlink="http://www.w3.org/1999/xlink" version="1.1" viewBox="-10 0 930 1000">
   <path fill="currentColor"
d="M791 57v495h-82v-495h82zM103 369l-33 -58c90 -25 141 -87 141 -140v-14h-113v-64h255v64h-66v14c0 39 20 102 77 138c57 -36 77 -99 77 -138v-14h-62v-64h253v64h-113v14c0 53 52 115 141 140l-32 58c-73 -22 -121 -66 -146 -116c-16 51 -51 104 -118 130v-1l-1 1
c-65 -26 -100 -76 -117 -126c-24 47 -71 90 -143 112zM651 422l5 57c-197 29 -417 35 -592 36l-11 -65c180 0 404 -5 598 -28zM705 594v67c0 96 49 190 151 234l-44 60c-74 -33 -121 -90 -147 -161c-27 73 -77 132 -152 165l-41 -54l5 31c-80 16 -142 17 -268 17h-47v-210
h218v-81h-220v-62h298v200h-218v91c102 0 159 -2 228 -16l4 22c101 -43 153 -138 153 -236v-67h80z" />
</svg>
