<?xml version="1.0" standalone="no"?>
<!DOCTYPE svg PUBLIC "-//W3C//DTD SVG 1.1//EN" "http://www.w3.org/Graphics/SVG/1.1/DTD/svg11.dtd" >
<svg xmlns="http://www.w3.org/2000/svg" xmlns:xlink="http://www.w3.org/1999/xlink" version="1.1" viewBox="-10 0 930 1000">
   <path fill="currentColor"
d="M791 58v514h-82v-514h82zM102 373l-32 -58c89 -25 141 -88 141 -140v-14h-113v-64h255v64h-67v14c0 39 20 101 78 138c57 -37 77 -99 77 -138v-14h-62v-64h253v64h-112v14c0 52 52 115 141 140l-33 58c-73 -22 -121 -66 -145 -115c-17 50 -52 102 -120 128v-1l-1 1
c-66 -26 -99 -75 -117 -125c-25 48 -72 90 -143 112zM652 439l5 60c-198 29 -417 35 -593 36l-11 -68c180 -1 404 -5 599 -28zM398 883v-105h-167v105h167zM398 716v-102h75v333h-317v-333h75v102h167zM717 610v62c0 83 58 174 158 215l-43 66c-74 -31 -126 -89 -155 -154
c-27 67 -81 125 -158 156l-43 -65c101 -40 160 -129 160 -212v-68h81z" />
</svg>
