<?xml version="1.0" standalone="no"?>
<!DOCTYPE svg PUBLIC "-//W3C//DTD SVG 1.1//EN" "http://www.w3.org/Graphics/SVG/1.1/DTD/svg11.dtd" >
<svg xmlns="http://www.w3.org/2000/svg" xmlns:xlink="http://www.w3.org/1999/xlink" version="1.1" viewBox="-10 0 930 1000">
   <path fill="currentColor"
d="M790 59v550h-82v-550h82zM106 411l-36 -60c92 -29 141 -103 141 -167v-13h-112v-66h255v66h-65v13c0 48 18 118 76 162c57 -44 75 -114 75 -162v-13h-60v-66h253v66h-114v13c0 63 49 137 140 167l-35 60c-71 -25 -118 -72 -143 -126c-16 56 -51 110 -117 140
c-66 -29 -99 -83 -117 -139c-25 53 -71 100 -141 125zM654 473l6 60c-201 28 -419 34 -596 34l-11 -68c182 0 406 -4 601 -26zM679 649v24c0 93 66 188 180 226l-42 61c-85 -32 -145 -91 -177 -163c-27 74 -79 140 -161 174v-1l-1 1c-83 -33 -136 -99 -162 -173
c-32 72 -92 131 -175 162l-44 -61c115 -38 180 -133 180 -226v-24h79v24c0 81 40 167 122 217c81 -51 121 -137 121 -217v-24h80z" />
</svg>
