<?xml version="1.0" standalone="no"?>
<!DOCTYPE svg PUBLIC "-//W3C//DTD SVG 1.1//EN" "http://www.w3.org/Graphics/SVG/1.1/DTD/svg11.dtd" >
<svg xmlns="http://www.w3.org/2000/svg" xmlns:xlink="http://www.w3.org/1999/xlink" version="1.1" viewBox="-10 0 930 1000">
   <path fill="currentColor"
d="M789 58v522h-82v-522h82zM103 375l-33 -58c90 -25 141 -88 141 -140v-14h-113v-63h255v63h-66v14c0 39 20 102 76 138c57 -36 77 -99 77 -138v-14h-61v-63h253v63h-113v14c0 52 52 115 141 140l-33 59c-73 -22 -121 -67 -145 -117c-17 51 -51 103 -118 130l-1 -1v1
c-65 -26 -100 -76 -117 -126c-24 47 -71 90 -143 112zM646 422l7 59c-198 29 -417 35 -589 36l-11 -66c177 -1 401 -5 593 -29zM489 900c105 0 167 -18 167 -52c0 -35 -62 -52 -167 -52c-106 0 -168 17 -168 52c0 34 62 52 168 52zM488 741c159 0 253 37 253 107
c0 69 -94 107 -253 107c-158 0 -252 -38 -252 -107c0 -70 94 -107 252 -107zM529 638h279v63h-639v-63h278v-80h82v80z" />
</svg>
