<?xml version="1.0" standalone="no"?>
<!DOCTYPE svg PUBLIC "-//W3C//DTD SVG 1.1//EN" "http://www.w3.org/Graphics/SVG/1.1/DTD/svg11.dtd" >
<svg xmlns="http://www.w3.org/2000/svg" xmlns:xlink="http://www.w3.org/1999/xlink" version="1.1" viewBox="-10 0 930 1000">
   <path fill="currentColor"
d="M580 444l-34 63c-104 -27 -186 -86 -227 -163c-39 86 -123 150 -231 180l-37 -63c133 -35 226 -125 226 -232v-14h-198v-66h198v-96h82v96h198v66h-198v14c0 97 92 183 221 215zM208 787v98c93 0 151 -3 225 -17l7 64c-85 16 -152 18 -265 18h-47v-218h213v-86h-215v-66
h295v207h-213zM590 646v238h71v-238h-71zM727 646v238h61v65h-326v-65h62v-238h-58v-65h319v65h-58zM750 264h133v69h-133v198h-82v-474h82v207z" />
</svg>
