<?xml version="1.0" standalone="no"?>
<!DOCTYPE svg PUBLIC "-//W3C//DTD SVG 1.1//EN" "http://www.w3.org/Graphics/SVG/1.1/DTD/svg11.dtd" >
<svg xmlns="http://www.w3.org/2000/svg" xmlns:xlink="http://www.w3.org/1999/xlink" version="1.1" viewBox="-10 0 930 1000">
   <path fill="currentColor"
d="M619 340v196h-77v-462h77v199h112v-215h78v483h-78v-201h-112zM502 449l-37 62c-88 -31 -152 -93 -185 -167c-30 81 -95 150 -184 184l-38 -61c111 -44 182 -143 182 -237v-6h-162v-65h162v-97h78v97h159v65h-159v6c0 90 73 181 184 219zM714 575v87c0 96 49 188 152 229
l-42 63c-76 -32 -124 -88 -150 -157c-27 72 -79 130 -157 163l-38 -57l5 30c-81 16 -143 17 -270 17h-47v-218h216v-87h-219v-63h299v210h-217v94c103 0 159 -3 229 -17l3 27c103 -44 155 -136 155 -236v-85h81z" />
</svg>
