<?xml version="1.0" standalone="no"?>
<!DOCTYPE svg PUBLIC "-//W3C//DTD SVG 1.1//EN" "http://www.w3.org/Graphics/SVG/1.1/DTD/svg11.dtd" >
<svg xmlns="http://www.w3.org/2000/svg" xmlns:xlink="http://www.w3.org/1999/xlink" version="1.1" viewBox="-10 0 930 1000">
   <path fill="currentColor"
d="M615 356v224h-77v-506h77v215h118v-231h78v527h-78v-229h-118zM501 475l-39 62c-86 -34 -149 -100 -182 -179c-30 86 -93 158 -181 195l-41 -61c113 -47 181 -152 182 -259h-162v-65h162v-104h78v104h159v65h-159c1 100 71 199 183 242zM820 706h-258
c14 92 147 163 296 182l-28 62c-137 -18 -260 -78 -312 -165c-51 88 -175 147 -312 165l-28 -62c151 -19 282 -89 296 -182h-259v-66h605v66z" />
</svg>
