<?xml version="1.0" standalone="no"?>
<!DOCTYPE svg PUBLIC "-//W3C//DTD SVG 1.1//EN" "http://www.w3.org/Graphics/SVG/1.1/DTD/svg11.dtd" >
<svg xmlns="http://www.w3.org/2000/svg" xmlns:xlink="http://www.w3.org/1999/xlink" version="1.1" viewBox="-10 0 930 1000">
   <path fill="currentColor"
d="M577 505l-40 64c-101 -32 -179 -101 -218 -187c-39 95 -120 168 -224 204l-41 -65c133 -42 223 -148 223 -270v-18h-199v-66h199v-114h82v114h198v66h-198v18c0 112 87 214 218 254zM166 718v-67h583v303h-82v-236h-501zM878 261h-129v126h129v69h-129v148h-82v-546h82
v135h129v68z" />
</svg>
