<?xml version="1.0" standalone="no"?>
<!DOCTYPE svg PUBLIC "-//W3C//DTD SVG 1.1//EN" "http://www.w3.org/Graphics/SVG/1.1/DTD/svg11.dtd" >
<svg xmlns="http://www.w3.org/2000/svg" xmlns:xlink="http://www.w3.org/1999/xlink" version="1.1" viewBox="-10 0 930 1000">
   <path fill="currentColor"
d="M580 445l-35 62c-103 -27 -185 -85 -226 -163c-39 86 -123 151 -232 180l-37 -63c133 -34 227 -125 227 -232v-14h-199v-66h199v-96h82v96h198v66h-198v14c0 98 91 183 221 216zM265 794v89h510v62h-592v-364h571v62h-489v90h478v61h-478zM877 242h-127v107h127v66h-127
v116h-82v-474h82v119h127v66z" />
</svg>
