<?xml version="1.0" standalone="no"?>
<!DOCTYPE svg PUBLIC "-//W3C//DTD SVG 1.1//EN" "http://www.w3.org/Graphics/SVG/1.1/DTD/svg11.dtd" >
<svg xmlns="http://www.w3.org/2000/svg" xmlns:xlink="http://www.w3.org/1999/xlink" version="1.1" viewBox="-10 0 930 1000">
   <path fill="currentColor"
d="M731 244h-112v111h112v-111zM619 422v114h-77v-462h77v102h112v-118h78v483h-78v-119h-112zM236 794v94c75 0 151 -3 246 -15l7 62c-112 14 -195 15 -280 15h-49v-214h229v-93h-231v-62h306v213h-228zM318 224v6c0 90 73 181 183 220l-36 61c-88 -31 -152 -93 -185 -167
c-30 81 -95 150 -184 184l-38 -61c111 -44 182 -143 182 -237v-6h-162v-65h162v-97h78v97h159v65h-159zM589 884h241v64h-319v-368h307v63h-229v90h220v60h-220v91z" />
</svg>
