<?xml version="1.0" standalone="no"?>
<!DOCTYPE svg PUBLIC "-//W3C//DTD SVG 1.1//EN" "http://www.w3.org/Graphics/SVG/1.1/DTD/svg11.dtd" >
<svg xmlns="http://www.w3.org/2000/svg" xmlns:xlink="http://www.w3.org/1999/xlink" version="1.1" viewBox="-10 0 930 1000">
   <path fill="currentColor"
d="M731 244h-112v111h112v-111zM619 422v114h-77v-462h77v102h112v-118h78v483h-78v-119h-112zM502 450l-37 61c-87 -30 -152 -93 -185 -167c-30 81 -95 150 -184 185l-38 -62c111 -44 182 -143 182 -237v-6h-162v-65h162v-97h78v97h159v65h-159v6c0 90 73 181 184 220z
M237 787v98c96 0 156 -3 232 -17l7 64c-85 16 -154 18 -269 18h-48v-217h220v-87h-223v-65h302v206h-221zM628 648v233h72v-233h-72zM765 881h65v68h-331v-68h63v-233h-60v-67h324v67h-61v233z" />
</svg>
