<?xml version="1.0" standalone="no"?>
<!DOCTYPE svg PUBLIC "-//W3C//DTD SVG 1.1//EN" "http://www.w3.org/Graphics/SVG/1.1/DTD/svg11.dtd" >
<svg xmlns="http://www.w3.org/2000/svg" xmlns:xlink="http://www.w3.org/1999/xlink" version="1.1" viewBox="-10 0 930 1000">
   <path fill="currentColor"
d="M583 514l-40 64c-103 -33 -183 -103 -224 -192c-38 96 -119 172 -224 208l-40 -64c132 -43 222 -154 222 -276v-22h-199v-66h199v-113h82v113h198v66h-198v22c0 115 91 218 224 260zM154 717v-67h299v306h-82v-239h-217zM494 717v-67h297v306h-82v-239h-215zM709 57h83
v546h-83v-215h-181v-68h181v-263z" />
</svg>
