<?xml version="1.0" standalone="no"?>
<!DOCTYPE svg PUBLIC "-//W3C//DTD SVG 1.1//EN" "http://www.w3.org/Graphics/SVG/1.1/DTD/svg11.dtd" >
<svg xmlns="http://www.w3.org/2000/svg" xmlns:xlink="http://www.w3.org/1999/xlink" version="1.1" viewBox="-10 0 930 1000">
   <path fill="currentColor"
d="M584 499l-38 63c-103 -31 -185 -98 -226 -185c-38 97 -119 173 -225 209l-40 -64c132 -44 222 -153 222 -274v-17h-199v-66h199v-112h82v112h198v66h-198v17c0 112 93 212 225 251zM180 714v-67h612v308h-82v-108l-538 26l-11 -65l549 -20v-74h-530zM710 57h83v547h-83
v-224h-180v-68h180v-255z" />
</svg>
