<?xml version="1.0" standalone="no"?>
<!DOCTYPE svg PUBLIC "-//W3C//DTD SVG 1.1//EN" "http://www.w3.org/Graphics/SVG/1.1/DTD/svg11.dtd" >
<svg xmlns="http://www.w3.org/2000/svg" xmlns:xlink="http://www.w3.org/1999/xlink" version="1.1" viewBox="-10 0 930 1000">
   <path fill="currentColor"
d="M531 280h180v-222h81v479h-81v-190h-180v-67zM588 448l-35 63c-107 -27 -191 -85 -234 -164c-39 86 -124 152 -232 182l-37 -64c133 -35 227 -126 227 -232v-21h-199v-66h199v-93h82v93h198v66h-198v21c0 100 97 184 229 215zM280 883h534v62h-616v-351h600v61h-518v83
h507v61h-507v84z" />
</svg>
