<?xml version="1.0" standalone="no"?>
<!DOCTYPE svg PUBLIC "-//W3C//DTD SVG 1.1//EN" "http://www.w3.org/Graphics/SVG/1.1/DTD/svg11.dtd" >
<svg xmlns="http://www.w3.org/2000/svg" xmlns:xlink="http://www.w3.org/1999/xlink" version="1.1" viewBox="-10 0 930 1000">
   <path fill="currentColor"
d="M427 322h131v-246h78v525h-78v-213h-131v-66zM499 509l-38 61c-88 -34 -149 -102 -181 -182c-29 87 -92 161 -180 199l-40 -62c114 -48 180 -158 180 -268v-16h-162v-66h162v-108h78v108h159v66h-159v16c0 103 69 208 181 252zM207 719v-66h603v301h-82v-235h-521z
M731 58h79v552h-79v-552z" />
</svg>
