<?xml version="1.0" standalone="no"?>
<!DOCTYPE svg PUBLIC "-//W3C//DTD SVG 1.1//EN" "http://www.w3.org/Graphics/SVG/1.1/DTD/svg11.dtd" >
<svg xmlns="http://www.w3.org/2000/svg" xmlns:xlink="http://www.w3.org/1999/xlink" version="1.1" viewBox="-10 0 930 1000">
   <path fill="currentColor"
d="M812 58v484h-78v-484h78zM428 288h133v-214h77v460h-77v-183h-133v-63zM237 793v95c72 0 148 -3 246 -16l6 62c-113 15 -198 16 -279 16h-49v-214h229v-94h-231v-62h306v213h-228zM318 220v17c0 91 72 184 183 224l-36 60c-88 -31 -152 -95 -185 -171
c-31 82 -95 153 -184 189l-38 -62c111 -45 182 -145 182 -240v-17h-162v-64h162v-94h78v94h159v64h-159zM591 885h238v63h-316v-368h307v63h-229v90h220v58h-220v94z" />
</svg>
