<?xml version="1.0" standalone="no"?>
<!DOCTYPE svg PUBLIC "-//W3C//DTD SVG 1.1//EN" "http://www.w3.org/Graphics/SVG/1.1/DTD/svg11.dtd" >
<svg xmlns="http://www.w3.org/2000/svg" xmlns:xlink="http://www.w3.org/1999/xlink" version="1.1" viewBox="-10 0 930 1000">
   <path fill="currentColor"
d="M542 247h168v-190h82v547h-82v-134h-168v-68h168v-87h-168v-68zM583 514l-39 64c-104 -32 -184 -102 -225 -191c-38 95 -119 171 -224 207l-40 -64c132 -43 222 -154 222 -276v-22h-199v-66h199v-113h82v113h198v66h-198v22c0 115 91 219 224 260zM152 717v-67h300v306
h-82v-239h-218zM708 638v41c0 85 55 177 159 217l-42 64c-79 -32 -131 -89 -159 -158c-30 68 -86 126 -167 156l-42 -62c112 -42 169 -134 169 -217v-41h82z" />
</svg>
