<?xml version="1.0" standalone="no"?>
<!DOCTYPE svg PUBLIC "-//W3C//DTD SVG 1.1//EN" "http://www.w3.org/Graphics/SVG/1.1/DTD/svg11.dtd" >
<svg xmlns="http://www.w3.org/2000/svg" xmlns:xlink="http://www.w3.org/1999/xlink" version="1.1" viewBox="-10 0 930 1000">
   <path fill="currentColor"
d="M542 241h168v-183h82v527h-82v-121h-168v-68h168v-87h-168v-68zM575 490l-40 63c-99 -30 -176 -96 -216 -179c-38 94 -117 167 -221 201l-40 -64c130 -42 219 -147 219 -266v-12h-198v-65h198v-115h82v115h198v65h-198v12c0 109 87 207 216 245zM224 648v219
c55 -2 126 -10 191 -32l14 67c-88 28 -176 34 -242 34h-44v-288h81zM614 909c55 0 93 -18 93 -48c0 -31 -38 -49 -93 -49s-94 18 -94 49c0 30 39 48 94 48zM614 761c96 0 165 38 165 100c0 61 -69 99 -165 99c-97 0 -166 -38 -166 -99c0 -62 69 -100 166 -100zM658 659h180
v61h-446v-61h186v-80h80v80z" />
</svg>
