<?xml version="1.0" standalone="no"?>
<!DOCTYPE svg PUBLIC "-//W3C//DTD SVG 1.1//EN" "http://www.w3.org/Graphics/SVG/1.1/DTD/svg11.dtd" >
<svg xmlns="http://www.w3.org/2000/svg" xmlns:xlink="http://www.w3.org/1999/xlink" version="1.1" viewBox="-10 0 930 1000">
   <path fill="currentColor"
d="M812 58v488h-78v-488h78zM451 242h110v-167h77v463h-77v-97h-110v-62h110v-75h-110v-62zM495 465l-38 60c-84 -28 -146 -84 -178 -153c-31 76 -96 139 -184 171l-39 -62c111 -40 184 -131 184 -223v-31h-164v-65h164v-101h78v101h160v65h-160v31c0 89 68 172 177 207z
M302 882h543v65h-625v-216h510v-84h-512v-62h594v205h-510v92z" />
</svg>
