<?xml version="1.0" standalone="no"?>
<!DOCTYPE svg PUBLIC "-//W3C//DTD SVG 1.1//EN" "http://www.w3.org/Graphics/SVG/1.1/DTD/svg11.dtd" >
<svg xmlns="http://www.w3.org/2000/svg" xmlns:xlink="http://www.w3.org/1999/xlink" version="1.1" viewBox="-10 0 930 1000">
   <path fill="currentColor"
d="M812 57v489h-78v-489h78zM455 238h106v-164h77v464h-77v-103h-106v-62h106v-73h-106v-62zM241 788v97c94 -1 154 -4 230 -17l7 64c-86 17 -154 18 -269 18h-48v-217h217v-87h-219v-65h300v207h-218zM318 227v31c0 89 68 171 177 207l-38 60c-84 -28 -146 -84 -178 -153
c-31 76 -96 139 -184 171l-39 -62c111 -40 184 -131 184 -223v-31h-164v-65h164v-101h78v101h160v65h-160zM631 647v237h71v-237h-71zM768 884h64v65h-331v-65h64v-237h-61v-66h323v66h-59v237z" />
</svg>
