<?xml version="1.0" standalone="no"?>
<!DOCTYPE svg PUBLIC "-//W3C//DTD SVG 1.1//EN" "http://www.w3.org/Graphics/SVG/1.1/DTD/svg11.dtd" >
<svg xmlns="http://www.w3.org/2000/svg" xmlns:xlink="http://www.w3.org/1999/xlink" version="1.1" viewBox="-10 0 930 1000">
   <path fill="currentColor"
d="M129 420l-29 -62c171 -11 306 -68 317 -158h-281v-62h282v-86h82v86h281v62h-281c11 90 145 147 316 158l-30 62c-142 -12 -270 -55 -328 -134c-58 79 -186 122 -329 134zM210 797v88c103 0 180 -3 275 -18l7 62c-106 17 -189 19 -306 19h-54v-205h228v-73h-230v-61h308
v188h-228zM481 675v-66h288v338h-82v-272h-206zM500 478h362v62h-808v-62h363v-101h83v101z" />
</svg>
