<?xml version="1.0" standalone="no"?>
<!DOCTYPE svg PUBLIC "-//W3C//DTD SVG 1.1//EN" "http://www.w3.org/Graphics/SVG/1.1/DTD/svg11.dtd" >
<svg xmlns="http://www.w3.org/2000/svg" xmlns:xlink="http://www.w3.org/1999/xlink" version="1.1" viewBox="-10 0 930 1000">
   <path fill="currentColor"
d="M113 480l-34 -64c123 -29 210 -106 214 -197h-197v-64h196v-92h82v92h195v64h-195c4 85 91 157 213 183l-33 64c-102 -25 -181 -77 -220 -148c-37 77 -116 135 -221 162zM609 526l5 60c-184 30 -393 35 -552 35l-11 -68c72 0 155 -1 241 -3v-114h82v110
c80 -4 161 -10 235 -20zM263 692v181h517v67h-599v-248h82zM748 360h132v68h-132v321h-82v-691h82v302z" />
</svg>
