<?xml version="1.0" standalone="no"?>
<!DOCTYPE svg PUBLIC "-//W3C//DTD SVG 1.1//EN" "http://www.w3.org/Graphics/SVG/1.1/DTD/svg11.dtd" >
<svg xmlns="http://www.w3.org/2000/svg" xmlns:xlink="http://www.w3.org/1999/xlink" version="1.1" viewBox="-10 0 930 1000">
   <path fill="currentColor"
d="M104 432l-37 -63c107 -17 174 -69 181 -144h-156v-63h158v-85h82v85h152v63h-152c7 68 73 113 176 127l-32 65c-88 -16 -151 -54 -184 -107c-31 61 -96 103 -188 122zM174 718v-67h304v304h-81v-237h-223zM330 392v105c64 -2 128 -7 181 -12l6 63
c-134 17 -325 29 -453 29l-9 -71c57 0 125 -2 196 -5v-109h79zM522 718v-67h295v305h-82v-238h-213zM738 58h79v550h-79v-235h-108v226h-78v-525h78v231h108v-247z" />
</svg>
