<?xml version="1.0" standalone="no"?>
<!DOCTYPE svg PUBLIC "-//W3C//DTD SVG 1.1//EN" "http://www.w3.org/Graphics/SVG/1.1/DTD/svg11.dtd" >
<svg xmlns="http://www.w3.org/2000/svg" xmlns:xlink="http://www.w3.org/1999/xlink" version="1.1" viewBox="-10 0 930 1000">
   <path fill="currentColor"
d="M630 373v226h-78v-525h78v231h108v-247h79v550h-79v-235h-108zM103 432l-36 -63c107 -17 174 -69 181 -144h-156v-63h158v-85h82v85h152v63h-152c7 68 73 113 176 127l-32 65c-88 -16 -152 -54 -185 -107c-31 61 -96 103 -188 122zM511 485l7 63c-135 17 -326 29 -454 29
l-9 -71c57 0 125 -2 196 -5v-109h79v105c65 -2 128 -7 181 -12zM166 713v-67h299v309h-82v-242h-217zM717 640v37c0 93 54 180 159 216l-45 63c-77 -29 -127 -83 -154 -149c-30 67 -86 124 -164 154l-44 -63c108 -41 167 -131 167 -216v-42h81z" />
</svg>
