<?xml version="1.0" standalone="no"?>
<!DOCTYPE svg PUBLIC "-//W3C//DTD SVG 1.1//EN" "http://www.w3.org/Graphics/SVG/1.1/DTD/svg11.dtd" >
<svg xmlns="http://www.w3.org/2000/svg" xmlns:xlink="http://www.w3.org/1999/xlink" version="1.1" viewBox="-10 0 930 1000">
   <path fill="currentColor"
d="M630 373v229h-78v-528h78v231h108v-247h79v554h-79v-239h-108zM103 432l-36 -63c107 -17 174 -69 181 -144h-156v-63h158v-85h82v85h152v63h-152c7 68 73 113 176 127l-32 65c-88 -16 -152 -54 -185 -107c-31 61 -96 103 -188 122zM511 485l7 63c-134 17 -326 29 -454 29
l-9 -71c57 0 125 -2 196 -5v-109h79v105c65 -2 128 -7 181 -12zM699 641v32c0 91 67 180 181 215l-39 61c-89 -30 -151 -90 -182 -162c-27 72 -81 137 -166 169c-84 -32 -139 -97 -166 -168c-31 71 -94 131 -181 161l-39 -61c114 -37 181 -126 181 -215v-32h79v32
c0 75 42 159 126 206c84 -48 126 -133 126 -206v-32h80z" />
</svg>
