<?xml version="1.0" standalone="no"?>
<!DOCTYPE svg PUBLIC "-//W3C//DTD SVG 1.1//EN" "http://www.w3.org/Graphics/SVG/1.1/DTD/svg11.dtd" >
<svg xmlns="http://www.w3.org/2000/svg" xmlns:xlink="http://www.w3.org/1999/xlink" version="1.1" viewBox="-10 0 930 1000">
   <path fill="currentColor"
d="M788 58v514h-83v-514h83zM124 417l-31 -61c126 -19 218 -80 218 -159v-2h-196v-61h195v-79h82v79h193v61h-193v2c0 73 92 129 214 146l-29 61c-103 -18 -185 -61 -225 -123c-37 69 -121 117 -228 136zM637 462l6 57c-192 28 -408 34 -575 34l-11 -63c77 0 164 -1 253 -4
v-104h83v100c84 -4 166 -10 244 -20zM234 808v80c91 0 151 -3 223 -16l8 61c-85 16 -151 17 -265 17h-47v-194h210v-68h-212v-62h293v182h-210zM614 689v197h72v-197h-72zM753 886h61v63h-327v-63h61v-197h-58v-63h315v63h-52v197z" />
</svg>
