<?xml version="1.0" standalone="no"?>
<!DOCTYPE svg PUBLIC "-//W3C//DTD SVG 1.1//EN" "http://www.w3.org/Graphics/SVG/1.1/DTD/svg11.dtd" >
<svg xmlns="http://www.w3.org/2000/svg" xmlns:xlink="http://www.w3.org/1999/xlink" version="1.1" viewBox="-10 0 930 1000">
   <path fill="currentColor"
d="M785 59v553h-82v-553h82zM124 454l-33 -63c127 -24 214 -93 214 -183h-196v-64h196v-87h82v87h193v64h-193c0 83 89 145 213 167l-32 65c-101 -20 -181 -67 -220 -133c-38 72 -118 125 -224 147zM634 489l6 60c-192 29 -408 35 -573 36l-12 -68c76 0 162 -1 250 -4v-106
h82v103c84 -5 168 -11 247 -21zM393 726v156h196v-156h-196zM671 882h136v62h-635v-62h140v-156h-133v-63h621v63h-129v156z" />
</svg>
