<?xml version="1.0" standalone="no"?>
<!DOCTYPE svg PUBLIC "-//W3C//DTD SVG 1.1//EN" "http://www.w3.org/Graphics/SVG/1.1/DTD/svg11.dtd" >
<svg xmlns="http://www.w3.org/2000/svg" xmlns:xlink="http://www.w3.org/1999/xlink" version="1.1" viewBox="-10 0 930 1000">
   <path fill="currentColor"
d="M131 447l-29 -64c166 -13 304 -79 314 -173h-280v-65h282v-95h82v95h280v65h-279c9 94 147 160 314 173l-29 64c-142 -15 -270 -64 -327 -148c-57 84 -186 133 -328 148zM226 657v212c49 -2 117 -8 189 -26l11 67c-98 24 -183 28 -236 28h-44v-281h80zM605 911
c52 0 88 -18 88 -47c0 -30 -36 -48 -88 -48c-50 0 -86 18 -86 48c0 29 36 47 86 47zM605 767c90 0 157 37 157 97s-67 97 -157 97c-89 0 -156 -37 -156 -97s67 -97 156 -97zM645 610v65h162v61h-403v-61h162v-65h79zM639 516h225v64h-812v-64h227v-98h81v98h198v-98h81v98z
" />
</svg>
