<?xml version="1.0" standalone="no"?>
<!DOCTYPE svg PUBLIC "-//W3C//DTD SVG 1.1//EN" "http://www.w3.org/Graphics/SVG/1.1/DTD/svg11.dtd" >
<svg xmlns="http://www.w3.org/2000/svg" xmlns:xlink="http://www.w3.org/1999/xlink" version="1.1" viewBox="-10 0 930 1000">
   <path fill="currentColor"
d="M125 443l-25 -64c168 -14 306 -79 314 -175h-277v-65h281v-88h82v88h281v65h-278c8 96 146 161 315 175l-25 64c-148 -14 -280 -66 -334 -152c-56 86 -187 138 -334 152zM233 734v142h452v-142h-452zM153 942v-274h612v274h-612zM641 524h223v67h-811v-67h223v-95h82v95
h200v-95h83v95z" />
</svg>
