<?xml version="1.0" standalone="no"?>
<!DOCTYPE svg PUBLIC "-//W3C//DTD SVG 1.1//EN" "http://www.w3.org/Graphics/SVG/1.1/DTD/svg11.dtd" >
<svg xmlns="http://www.w3.org/2000/svg" xmlns:xlink="http://www.w3.org/1999/xlink" version="1.1" viewBox="-10 0 930 1000">
   <path fill="currentColor"
d="M120 415l-24 -62c166 -11 303 -66 317 -155h-277v-62h282v-85h82v85h281v62h-276c14 89 149 144 316 155l-25 62c-150 -12 -282 -58 -337 -141c-55 83 -188 129 -339 141zM863 518h-363v83h260v196h-527v85h554v62h-634v-206h526v-76h-529v-61h267v-83h-363v-63h809v63z
" />
</svg>
