<?xml version="1.0" standalone="no"?>
<!DOCTYPE svg PUBLIC "-//W3C//DTD SVG 1.1//EN" "http://www.w3.org/Graphics/SVG/1.1/DTD/svg11.dtd" >
<svg xmlns="http://www.w3.org/2000/svg" xmlns:xlink="http://www.w3.org/1999/xlink" version="1.1" viewBox="-10 0 930 1000">
   <path fill="currentColor"
d="M133 458l-30 -62c171 -17 309 -85 314 -186h-280v-65h281v-93h82v93h281v65h-281c5 101 142 169 313 186l-29 62c-143 -15 -269 -66 -325 -151c-57 85 -184 136 -326 151zM864 575h-364v90h269v290h-82v-100l-545 26l-11 -65l556 -18v-68h-537v-65h268v-90h-364v-66h810
v66z" />
</svg>
