<?xml version="1.0" standalone="no"?>
<!DOCTYPE svg PUBLIC "-//W3C//DTD SVG 1.1//EN" "http://www.w3.org/Graphics/SVG/1.1/DTD/svg11.dtd" >
<svg xmlns="http://www.w3.org/2000/svg" xmlns:xlink="http://www.w3.org/1999/xlink" version="1.1" viewBox="-10 0 930 1000">
   <path fill="currentColor"
d="M523 605h181v-547h82v681h-82v-73h-181v-61zM112 444l-32 -59c131 -18 223 -76 223 -146v-18h-193v-62h193v-89h82v89h195v62h-194v18c0 65 93 119 219 134l-29 60c-106 -16 -190 -59 -229 -117c-39 65 -125 111 -235 128zM293 708v-151c-82 3 -163 4 -234 4l-11 -65
c174 0 392 -3 583 -21l6 56c-85 10 -174 18 -262 22v155h-82zM255 870h553v66h-635v-246h82v180z" />
</svg>
