<?xml version="1.0" standalone="no"?>
<!DOCTYPE svg PUBLIC "-//W3C//DTD SVG 1.1//EN" "http://www.w3.org/Graphics/SVG/1.1/DTD/svg11.dtd" >
<svg xmlns="http://www.w3.org/2000/svg" xmlns:xlink="http://www.w3.org/1999/xlink" version="1.1" viewBox="-10 0 930 1000">
   <path fill="currentColor"
d="M518 541h186v-483h82v582h-82v-41h-186v-58zM111 406l-32 -59c131 -19 224 -76 224 -146v-2h-194v-62h194v-83h82v83h195v62h-194v2c0 65 93 119 219 134l-29 59c-106 -15 -191 -58 -230 -116c-38 65 -124 111 -235 128zM291 639v-129c-83 3 -162 4 -233 4l-10 -65
c174 0 392 -2 583 -21l6 56c-86 11 -177 18 -265 23v132h-81zM270 882h533v64h-617v-274h611v64h-527v146z" />
</svg>
