<?xml version="1.0" standalone="no"?>
<!DOCTYPE svg PUBLIC "-//W3C//DTD SVG 1.1//EN" "http://www.w3.org/Graphics/SVG/1.1/DTD/svg11.dtd" >
<svg xmlns="http://www.w3.org/2000/svg" xmlns:xlink="http://www.w3.org/1999/xlink" version="1.1" viewBox="-10 0 930 1000">
   <path fill="currentColor"
d="M518 527h186v-469h82v557h-82v-37h-186v-51zM111 404l-32 -61c130 -17 223 -74 224 -144h-194v-62h194v-83h82v83h195v62h-194c1 65 94 118 219 134l-29 59c-106 -16 -191 -59 -229 -117c-39 64 -126 110 -236 129zM291 614v-113c-83 2 -163 3 -234 3l-9 -61
c173 0 392 -3 583 -22l6 54c-87 11 -177 18 -265 22v117h-81zM706 631v33c0 95 49 188 151 230l-45 62c-72 -32 -120 -90 -146 -159c-27 72 -77 132 -153 164l-27 -36l1 7c-83 17 -148 18 -280 18h-49v-189h222v-65h-224v-58h302v179h-222v74c110 0 170 -3 242 -17l3 21
c97 -45 144 -137 144 -231v-33h81z" />
</svg>
