<?xml version="1.0" standalone="no"?>
<!DOCTYPE svg PUBLIC "-//W3C//DTD SVG 1.1//EN" "http://www.w3.org/Graphics/SVG/1.1/DTD/svg11.dtd" >
<svg xmlns="http://www.w3.org/2000/svg" xmlns:xlink="http://www.w3.org/1999/xlink" version="1.1" viewBox="-10 0 930 1000">
   <path fill="currentColor"
d="M518 541h186v-483h82v582h-82v-40h-186v-59zM111 406l-32 -59c131 -19 224 -76 224 -146v-2h-194v-62h194v-83h82v83h195v62h-194v2c0 65 93 119 219 134l-29 59c-106 -15 -191 -58 -229 -116c-39 65 -125 111 -236 128zM291 640v-130c-83 3 -161 4 -232 4l-11 -65
c174 0 392 -2 583 -21l6 56c-86 11 -177 18 -265 23v133h-81zM797 733h-260c21 88 140 150 291 165l-30 63c-135 -19 -255 -69 -308 -156c-53 91 -178 137 -313 157l-28 -63c155 -16 271 -72 292 -166h-256v-65h612v65z" />
</svg>
