<?xml version="1.0" standalone="no"?>
<!DOCTYPE svg PUBLIC "-//W3C//DTD SVG 1.1//EN" "http://www.w3.org/Graphics/SVG/1.1/DTD/svg11.dtd" >
<svg xmlns="http://www.w3.org/2000/svg" xmlns:xlink="http://www.w3.org/1999/xlink" version="1.1" viewBox="-10 0 930 1000">
   <path fill="currentColor"
d="M807 58v581h-78v-581h78zM409 545h159v-472h77v563h-77v-30h-159v-61zM110 420l-37 -63c98 -19 163 -70 177 -142h-157v-63h161v-83h78v83h158v63h-153c15 65 77 111 170 129l-35 61c-85 -20 -145 -62 -176 -121c-32 67 -95 114 -186 136zM250 637v-127
c-71 4 -137 6 -192 6l-10 -67c127 0 328 -4 473 -26l4 59c-60 11 -128 19 -196 23v132h-79zM165 741v-67h305v282h-82v-215h-223zM723 663v22c0 85 54 175 158 212l-43 63c-77 -30 -129 -86 -157 -152c-30 67 -85 124 -162 154l-45 -63c109 -41 168 -133 168 -218v-18h81z
" />
</svg>
