<?xml version="1.0" standalone="no"?>
<!DOCTYPE svg PUBLIC "-//W3C//DTD SVG 1.1//EN" "http://www.w3.org/Graphics/SVG/1.1/DTD/svg11.dtd" >
<svg xmlns="http://www.w3.org/2000/svg" xmlns:xlink="http://www.w3.org/1999/xlink" version="1.1" viewBox="-10 0 930 1000">
   <path fill="currentColor"
d="M807 58v552h-78v-552h78zM409 519h159v-450h77v538h-77v-39h-159v-49zM107 407l-34 -61c96 -18 162 -64 177 -132h-157v-63h161v-84h78v84h157v63h-152c16 61 78 104 170 119l-35 62c-84 -19 -146 -59 -177 -116c-31 64 -97 108 -188 128zM250 603v-103
c-71 4 -137 6 -192 6l-10 -67c127 0 328 -4 472 -26l5 59c-61 10 -129 18 -197 23v108h-78zM285 887h546v59h-629v-308h612v59h-529v67h517v55h-517v68z" />
</svg>
