<?xml version="1.0" standalone="no"?>
<!DOCTYPE svg PUBLIC "-//W3C//DTD SVG 1.1//EN" "http://www.w3.org/Graphics/SVG/1.1/DTD/svg11.dtd" >
<svg xmlns="http://www.w3.org/2000/svg" xmlns:xlink="http://www.w3.org/1999/xlink" version="1.1" viewBox="-10 0 930 1000">
   <path fill="currentColor"
d="M807 58v580h-78v-580h78zM409 545h159v-472h77v563h-77v-30h-159v-61zM109 420l-36 -63c98 -19 163 -70 177 -142h-157v-63h161v-83h78v83h158v63h-154c15 65 78 111 171 129l-36 61c-84 -20 -145 -62 -176 -121c-31 67 -95 114 -186 136zM250 637v-127
c-71 4 -137 6 -192 6l-10 -67c127 0 328 -4 473 -26l5 59c-61 11 -129 19 -197 23v132h-79zM413 731v153h190v-153h-190zM684 884h142v60h-639v-60h144v-153h-135v-60h622v60h-134v153z" />
</svg>
