<?xml version="1.0" standalone="no"?>
<!DOCTYPE svg PUBLIC "-//W3C//DTD SVG 1.1//EN" "http://www.w3.org/Graphics/SVG/1.1/DTD/svg11.dtd" >
<svg xmlns="http://www.w3.org/2000/svg" xmlns:xlink="http://www.w3.org/1999/xlink" version="1.1" viewBox="-10 0 930 1000">
   <path fill="currentColor"
d="M111 437l-32 -60c131 -18 224 -75 224 -145v-6h-194v-62h194v-90h82v90h195v62h-194v6c0 65 93 118 219 134l-29 60c-106 -17 -191 -59 -229 -117c-39 64 -126 110 -236 128zM373 552v132h413v273h-82v-206h-534v-67h121v-128c-83 3 -161 4 -232 4l-11 -68
c174 0 392 -2 583 -21l6 59c-86 11 -176 18 -264 22zM704 58h82v573h-82v-573z" />
</svg>
