<?xml version="1.0" standalone="no"?>
<!DOCTYPE svg PUBLIC "-//W3C//DTD SVG 1.1//EN" "http://www.w3.org/Graphics/SVG/1.1/DTD/svg11.dtd" >
<svg xmlns="http://www.w3.org/2000/svg" xmlns:xlink="http://www.w3.org/1999/xlink" version="1.1" viewBox="-10 0 930 1000">
   <path fill="currentColor"
d="M786 58v570h-82v-570h82zM111 433l-32 -60c131 -17 224 -75 224 -145v-4h-194v-62h194v-88h82v88h195v62h-194v4c0 65 93 118 219 134l-29 60c-106 -17 -191 -59 -230 -117c-38 64 -125 110 -235 128zM270 882h533v64h-616v-277h104v-120c-83 3 -162 4 -233 4l-10 -65
c174 0 392 -3 583 -22l6 57c-86 11 -176 18 -264 22v124h424v64h-527v149z" />
</svg>
