<?xml version="1.0" standalone="no"?>
<!DOCTYPE svg PUBLIC "-//W3C//DTD SVG 1.1//EN" "http://www.w3.org/Graphics/SVG/1.1/DTD/svg11.dtd" >
<svg xmlns="http://www.w3.org/2000/svg" xmlns:xlink="http://www.w3.org/1999/xlink" version="1.1" viewBox="-10 0 930 1000">
   <path fill="currentColor"
d="M786 58v578h-82v-578h82zM111 433l-32 -60c131 -18 224 -75 224 -145v-6h-194v-62h194v-86h82v86h195v62h-194v6c0 65 93 118 219 134l-29 60c-106 -17 -191 -59 -229 -117c-39 64 -126 110 -236 128zM395 731v152h190v-152h-190zM666 883h142v61h-638v-61h143v-152h-135
v-61h113v-123c-83 3 -161 4 -232 4l-11 -65c174 0 392 -2 583 -21l6 56c-86 11 -177 18 -265 23v126h428v61h-134v152z" />
</svg>
