<?xml version="1.0" standalone="no"?>
<!DOCTYPE svg PUBLIC "-//W3C//DTD SVG 1.1//EN" "http://www.w3.org/Graphics/SVG/1.1/DTD/svg11.dtd" >
<svg xmlns="http://www.w3.org/2000/svg" xmlns:xlink="http://www.w3.org/1999/xlink" version="1.1" viewBox="-10 0 930 1000">
   <path fill="currentColor"
d="M132 459l-29 -63c171 -16 309 -85 314 -186h-280v-65h281v-93h82v93h281v65h-281c5 101 143 170 314 186l-29 63c-143 -16 -270 -67 -327 -152c-57 85 -184 136 -326 152zM865 568h-221v89h38v22c0 92 54 180 159 217l-44 63c-78 -29 -129 -84 -157 -152
c-30 67 -84 123 -160 154l-46 -63c100 -37 157 -118 167 -198h-39v-132h-209v98h76v290h-81v-223h-218v-67h141v-98h-217v-67h811v67z" />
</svg>
