<?xml version="1.0" standalone="no"?>
<!DOCTYPE svg PUBLIC "-//W3C//DTD SVG 1.1//EN" "http://www.w3.org/Graphics/SVG/1.1/DTD/svg11.dtd" >
<svg xmlns="http://www.w3.org/2000/svg" xmlns:xlink="http://www.w3.org/1999/xlink" version="1.1" viewBox="-10 0 930 1000">
   <path fill="currentColor"
d="M129 421l-29 -61c170 -11 307 -69 317 -160h-281v-62h282v-86h82v86h281v62h-280c11 91 146 149 315 160l-28 61c-144 -12 -272 -56 -330 -137c-57 81 -186 125 -329 137zM863 521h-216v86h139v63h-228v78h218v57h-218v80h237v63h-315v-341h86v-86h-214v86h80v197h-222
v86c83 -1 152 -4 240 -16l7 60c-104 15 -182 16 -278 16h-48v-201h222v-81h-224v-61h142v-86h-217v-62h809v62z" />
</svg>
