<?xml version="1.0" standalone="no"?>
<!DOCTYPE svg PUBLIC "-//W3C//DTD SVG 1.1//EN" "http://www.w3.org/Graphics/SVG/1.1/DTD/svg11.dtd" >
<svg xmlns="http://www.w3.org/2000/svg" xmlns:xlink="http://www.w3.org/1999/xlink" version="1.1" viewBox="-10 0 930 1000">
   <path fill="currentColor"
d="M133 458l-30 -63c171 -16 309 -84 314 -185h-280v-65h281v-93h82v93h280v65h-280c5 101 143 169 313 185l-29 63c-142 -16 -269 -66 -325 -151c-57 85 -184 135 -326 151zM562 668v-101h-209v101h209zM864 567h-220v101h124v288h-82v-100l-547 27l-11 -65l558 -18v-67
h-537v-65h122v-101h-217v-66h810v66z" />
</svg>
