<?xml version="1.0" standalone="no"?>
<!DOCTYPE svg PUBLIC "-//W3C//DTD SVG 1.1//EN" "http://www.w3.org/Graphics/SVG/1.1/DTD/svg11.dtd" >
<svg xmlns="http://www.w3.org/2000/svg" xmlns:xlink="http://www.w3.org/1999/xlink" version="1.1" viewBox="-10 0 930 1000">
   <path fill="currentColor"
d="M129 420l-28 -62c170 -11 305 -68 316 -158h-281v-62h282v-86h82v86h281v62h-280c10 90 145 147 315 158l-29 62c-143 -12 -271 -55 -329 -134c-58 79 -187 122 -329 134zM215 796v89c106 0 162 -2 233 -15l8 59c-81 15 -142 16 -270 16h-47v-203h210v-76h-213v-61h290
v191h-211zM702 883v-113h-144v113h144zM702 708v-105h75v344h-294v-344h75v105h144zM54 477h808v62h-808v-62z" />
</svg>
