<?xml version="1.0" standalone="no"?>
<!DOCTYPE svg PUBLIC "-//W3C//DTD SVG 1.1//EN" "http://www.w3.org/Graphics/SVG/1.1/DTD/svg11.dtd" >
<svg xmlns="http://www.w3.org/2000/svg" xmlns:xlink="http://www.w3.org/1999/xlink" version="1.1" viewBox="-10 0 930 1000">
   <path fill="currentColor"
d="M131 460l-29 -64c170 -15 310 -85 315 -186h-281v-65h282v-93h82v93h281v65h-281c5 101 144 171 315 186l-30 64c-143 -16 -270 -67 -326 -152c-57 85 -185 136 -328 152zM661 651v38c0 89 65 182 182 218l-41 61c-86 -31 -148 -89 -180 -160c-27 74 -79 138 -162 171
c-84 -33 -137 -97 -163 -170c-34 69 -97 125 -182 154l-40 -61c116 -35 184 -124 184 -213v-38h79v38c0 80 40 161 121 209c82 -49 122 -131 122 -209v-38h80zM53 528h811v66h-811v-66z" />
</svg>
