<?xml version="1.0" standalone="no"?>
<!DOCTYPE svg PUBLIC "-//W3C//DTD SVG 1.1//EN" "http://www.w3.org/Graphics/SVG/1.1/DTD/svg11.dtd" >
<svg xmlns="http://www.w3.org/2000/svg" xmlns:xlink="http://www.w3.org/1999/xlink" version="1.1" viewBox="-10 0 930 1000">
   <path fill="currentColor"
d="M126 454l-25 -63c167 -16 305 -83 313 -181h-277v-65h281v-91h82v91h281v65h-278c8 98 145 165 314 181l-25 63c-148 -15 -279 -68 -333 -156c-55 88 -185 141 -333 156zM458 891c141 0 224 -31 224 -87s-83 -88 -224 -88c-142 0 -224 32 -224 88s82 87 224 87zM458 655
c193 0 307 52 307 149s-114 149 -307 149s-307 -52 -307 -149s114 -149 307 -149zM53 513h811v66h-811v-66z" />
</svg>
