<?xml version="1.0" standalone="no"?>
<!DOCTYPE svg PUBLIC "-//W3C//DTD SVG 1.1//EN" "http://www.w3.org/Graphics/SVG/1.1/DTD/svg11.dtd" >
<svg xmlns="http://www.w3.org/2000/svg" xmlns:xlink="http://www.w3.org/1999/xlink" version="1.1" viewBox="-10 0 930 1000">
   <path fill="currentColor"
d="M785 59v555h-82v-555h82zM124 454l-33 -63c127 -24 214 -94 214 -183h-196v-64h196v-87h82v87h193v64h-193c0 83 89 145 212 167l-31 65c-101 -20 -181 -68 -221 -133c-37 72 -117 125 -223 147zM634 482l6 60c-192 30 -408 36 -573 36l-11 -67c170 -1 391 -5 578 -29z
M269 878h531v65h-610v-284h603v65h-524v154z" />
</svg>
