<?xml version="1.0" standalone="no"?>
<!DOCTYPE svg PUBLIC "-//W3C//DTD SVG 1.1//EN" "http://www.w3.org/Graphics/SVG/1.1/DTD/svg11.dtd" >
<svg xmlns="http://www.w3.org/2000/svg" xmlns:xlink="http://www.w3.org/1999/xlink" version="1.1" viewBox="-10 0 930 1000">
   <path fill="currentColor"
d="M788 58v545h-83v-545h83zM125 417l-31 -60c125 -20 217 -81 217 -160v-2h-196v-61h195v-79h82v79h193v61h-193v2c0 73 92 129 215 146l-30 61c-103 -17 -185 -61 -225 -122c-37 68 -121 116 -227 135zM637 449l6 58c-192 29 -407 35 -574 35l-12 -65
c172 0 393 -4 580 -28zM781 730h-258c21 80 150 146 301 161l-26 62c-141 -16 -265 -71 -320 -153c-54 83 -179 139 -319 157l-27 -63c151 -15 280 -82 301 -164h-256v-66h260v-79h82v79h262v66z" />
</svg>
