<?xml version="1.0" standalone="no"?>
<!DOCTYPE svg PUBLIC "-//W3C//DTD SVG 1.1//EN" "http://www.w3.org/Graphics/SVG/1.1/DTD/svg11.dtd" >
<svg xmlns="http://www.w3.org/2000/svg" xmlns:xlink="http://www.w3.org/1999/xlink" version="1.1" viewBox="-10 0 930 1000">
   <path fill="currentColor"
d="M607 451l-35 64c-107 -30 -192 -96 -233 -182c-40 93 -124 164 -233 196l-37 -64c130 -38 222 -133 228 -242h-204v-66h204v-102h82v102h202v66h-204c6 104 101 194 230 228zM246 787v94c114 0 187 -3 277 -20l8 63c-100 17 -179 19 -310 19h-54v-215h215v-84h-217v-62
h297v205h-216zM500 648v-66h288v368h-81v-302h-207zM706 58h82v487h-82v-487z" />
</svg>
