<?xml version="1.0" standalone="no"?>
<!DOCTYPE svg PUBLIC "-//W3C//DTD SVG 1.1//EN" "http://www.w3.org/Graphics/SVG/1.1/DTD/svg11.dtd" >
<svg xmlns="http://www.w3.org/2000/svg" xmlns:xlink="http://www.w3.org/1999/xlink" version="1.1" viewBox="-10 0 930 1000">
   <path fill="currentColor"
d="M607 471l-36 65c-107 -31 -190 -97 -232 -184c-39 95 -123 168 -230 203l-40 -64c135 -43 228 -147 228 -266v-4h-204v-66h204v-104h82v104h202v66h-203v4c0 110 97 209 229 246zM708 876v-114h-416v114h416zM708 698v-105h81v349h-578v-349h81v105h416zM707 58h82v494
h-82v-494z" />
</svg>
