<?xml version="1.0" standalone="no"?>
<!DOCTYPE svg PUBLIC "-//W3C//DTD SVG 1.1//EN" "http://www.w3.org/Graphics/SVG/1.1/DTD/svg11.dtd" >
<svg xmlns="http://www.w3.org/2000/svg" xmlns:xlink="http://www.w3.org/1999/xlink" version="1.1" viewBox="-10 0 930 1000">
   <path fill="currentColor"
d="M101 115h401c0 234 -135 403 -408 494l-29 -66c140 -46 237 -114 292 -197l-287 24l-12 -71l333 -14c13 -33 21 -67 24 -103h-314v-67zM795 686h-148c0 88 60 168 166 205l-43 60c-79 -29 -134 -84 -164 -151c-29 67 -89 127 -172 156l-38 -56c-81 27 -172 33 -220 33
h-48v-304h79v224c53 -3 139 -13 196 -41l23 70c87 -42 138 -117 138 -182v-14h-145v-67h376v67zM744 287h133v68h-133v233h-82v-531h82v230z" />
</svg>
