<?xml version="1.0" standalone="no"?>
<!DOCTYPE svg PUBLIC "-//W3C//DTD SVG 1.1//EN" "http://www.w3.org/Graphics/SVG/1.1/DTD/svg11.dtd" >
<svg xmlns="http://www.w3.org/2000/svg" xmlns:xlink="http://www.w3.org/1999/xlink" version="1.1" viewBox="-10 0 930 1000">
   <path fill="currentColor"
d="M613 357v215h-78v-498h78v216h118v-233h79v525h-79v-225h-118zM103 117h349c0 217 -104 386 -349 487l-40 -61c127 -50 211 -119 259 -201l-248 26l-13 -68l289 -19c10 -31 17 -63 20 -97h-267v-67zM700 617v40c0 93 67 186 180 225l-40 61c-89 -32 -151 -94 -181 -169
c-28 73 -83 141 -166 177c-85 -34 -139 -99 -166 -174c-32 72 -94 134 -178 166l-41 -61c114 -41 181 -138 181 -225v-40h79v40c0 80 41 165 125 214c84 -54 126 -144 126 -214v-40h81z" />
</svg>
