<?xml version="1.0" standalone="no"?>
<!DOCTYPE svg PUBLIC "-//W3C//DTD SVG 1.1//EN" "http://www.w3.org/Graphics/SVG/1.1/DTD/svg11.dtd" >
<svg xmlns="http://www.w3.org/2000/svg" xmlns:xlink="http://www.w3.org/1999/xlink" version="1.1" viewBox="-10 0 930 1000">
   <path fill="currentColor"
d="M103 112h353c0 216 -114 380 -347 481l-41 -59c121 -50 204 -118 253 -200l-247 29l-13 -70l289 -17c11 -32 19 -65 22 -98h-269v-66zM190 692v-67h621v331h-82v-120l-547 27l-12 -67l559 -21v-83h-539zM732 58h79v532h-79v-234h-117v231h-77v-512h77v214h117v-231z" />
</svg>
