<?xml version="1.0" standalone="no"?>
<!DOCTYPE svg PUBLIC "-//W3C//DTD SVG 1.1//EN" "http://www.w3.org/Graphics/SVG/1.1/DTD/svg11.dtd" >
<svg xmlns="http://www.w3.org/2000/svg" xmlns:xlink="http://www.w3.org/1999/xlink" version="1.1" viewBox="-10 0 930 1000">
   <path fill="currentColor"
d="M100 94h403c0 219 -148 380 -410 449l-32 -66c138 -36 237 -96 294 -170l-283 23l-16 -70l336 -14c12 -27 20 -56 23 -86h-315v-66zM215 786v100c112 0 183 -3 272 -19l7 64c-98 17 -177 19 -306 19h-54v-225h213v-87h-215v-65h296v213h-213zM467 639v-66h277v380h-83
v-314h-194zM877 241h-133v109h133v66h-133v106h-82v-464h82v116h133v67z" />
</svg>
