<?xml version="1.0" standalone="no"?>
<!DOCTYPE svg PUBLIC "-//W3C//DTD SVG 1.1//EN" "http://www.w3.org/Graphics/SVG/1.1/DTD/svg11.dtd" >
<svg xmlns="http://www.w3.org/2000/svg" xmlns:xlink="http://www.w3.org/1999/xlink" version="1.1" viewBox="-10 0 930 1000">
   <path fill="currentColor"
d="M101 94h402c0 219 -148 380 -410 449l-31 -66c137 -36 235 -96 293 -170l-283 23l-15 -70l335 -14c12 -27 20 -56 23 -86h-314v-66zM202 785v104c98 0 153 -3 221 -17l8 62c-79 15 -139 16 -261 16h-47v-223h203v-89h-205v-65h284v212h-203zM534 635v257h139v-257h-139z
M463 954v-381h281v381h-281zM877 241h-133v109h133v66h-133v106h-83v-464h83v116h133v67z" />
</svg>
