<?xml version="1.0" standalone="no"?>
<!DOCTYPE svg PUBLIC "-//W3C//DTD SVG 1.1//EN" "http://www.w3.org/Graphics/SVG/1.1/DTD/svg11.dtd" >
<svg xmlns="http://www.w3.org/2000/svg" xmlns:xlink="http://www.w3.org/1999/xlink" version="1.1" viewBox="-10 0 930 1000">
   <path fill="currentColor"
d="M101 94h402c0 219 -147 380 -410 449l-31 -66c137 -36 236 -96 294 -170l-284 23l-15 -70l335 -14c12 -27 20 -56 23 -86h-314v-66zM687 568v90c0 98 49 191 153 235l-45 62c-73 -33 -120 -90 -147 -159c-27 73 -77 132 -151 166l-45 -58l5 29c-79 16 -140 17 -262 17
h-48v-222h209v-90h-211v-64h290v213h-209v99c98 0 154 -2 221 -16l5 30c105 -45 156 -142 156 -244v-88h79zM877 241h-133v109h133v66h-133v106h-83v-464h83v116h133v67z" />
</svg>
