<?xml version="1.0" standalone="no"?>
<!DOCTYPE svg PUBLIC "-//W3C//DTD SVG 1.1//EN" "http://www.w3.org/Graphics/SVG/1.1/DTD/svg11.dtd" >
<svg xmlns="http://www.w3.org/2000/svg" xmlns:xlink="http://www.w3.org/1999/xlink" version="1.1" viewBox="-10 0 930 1000">
   <path fill="currentColor"
d="M101 94h402c0 224 -137 378 -411 447l-31 -65c146 -36 244 -95 299 -170l-288 24l-16 -70l338 -14c11 -27 18 -55 21 -85h-314v-67zM190 785v103c68 0 139 -3 230 -15l7 62c-108 14 -187 15 -264 15h-47v-224h212v-89h-214v-63h288v211h-212zM537 788v97h221v63h-301
v-374h291v63h-211v92h201v59h-201zM878 241h-132v109h132v67h-132v105h-82v-464h82v116h132v67z" />
</svg>
