<?xml version="1.0" standalone="no"?>
<!DOCTYPE svg PUBLIC "-//W3C//DTD SVG 1.1//EN" "http://www.w3.org/Graphics/SVG/1.1/DTD/svg11.dtd" >
<svg xmlns="http://www.w3.org/2000/svg" xmlns:xlink="http://www.w3.org/1999/xlink" version="1.1" viewBox="-10 0 930 1000">
   <path fill="currentColor"
d="M101 94h404c0 223 -139 379 -410 448l-33 -67c144 -35 242 -94 297 -168l-287 23l-15 -70l337 -14c11 -27 18 -55 21 -85h-314v-67zM209 785v100c92 0 150 -3 224 -16l7 64c-85 16 -152 17 -265 17h-47v-221h213v-88h-215v-65h295v209h-212zM590 641v243h71v-243h-71z
M727 641v243h61v66h-326v-66h62v-243h-58v-65h319v65h-58zM878 241h-133v109h133v66h-133v105h-83v-463h83v116h133v67z" />
</svg>
