<?xml version="1.0" standalone="no"?>
<!DOCTYPE svg PUBLIC "-//W3C//DTD SVG 1.1//EN" "http://www.w3.org/Graphics/SVG/1.1/DTD/svg11.dtd" >
<svg xmlns="http://www.w3.org/2000/svg" xmlns:xlink="http://www.w3.org/1999/xlink" version="1.1" viewBox="-10 0 930 1000">
   <path fill="currentColor"
d="M101 99h402c0 229 -122 388 -410 469l-30 -67c151 -41 247 -104 300 -182l-294 24l-12 -69l337 -16c11 -29 18 -60 21 -93h-314v-66zM662 880v-116h-404v116h404zM662 699v-107h82v355h-568v-355h82v107h404zM877 249h-133v114h133v69h-133v111h-82v-485h82v123h133v68z
" />
</svg>
