<?xml version="1.0" standalone="no"?>
<!DOCTYPE svg PUBLIC "-//W3C//DTD SVG 1.1//EN" "http://www.w3.org/Graphics/SVG/1.1/DTD/svg11.dtd" >
<svg xmlns="http://www.w3.org/2000/svg" xmlns:xlink="http://www.w3.org/1999/xlink" version="1.1" viewBox="-10 0 930 1000">
   <path fill="currentColor"
d="M93 607l-31 -66c149 -46 245 -113 300 -194l-292 24l-12 -71l335 -14c13 -33 21 -67 24 -103h-316v-67h402c0 232 -124 402 -410 491zM674 608v62c0 96 66 189 179 228l-43 60c-84 -31 -145 -91 -176 -164c-27 76 -78 142 -162 178c-83 -35 -134 -100 -161 -175
c-32 72 -92 131 -175 161l-44 -60c115 -39 181 -132 181 -228v-62h79v62c0 83 39 168 120 219c81 -52 121 -138 121 -219v-62h81zM878 260h-135v130h135v68h-135v125h-83v-526h83v135h135v68z" />
</svg>
