<?xml version="1.0" standalone="no"?>
<!DOCTYPE svg PUBLIC "-//W3C//DTD SVG 1.1//EN" "http://www.w3.org/Graphics/SVG/1.1/DTD/svg11.dtd" >
<svg xmlns="http://www.w3.org/2000/svg" xmlns:xlink="http://www.w3.org/1999/xlink" version="1.1" viewBox="-10 0 930 1000">
   <path fill="currentColor"
d="M101 94h407c0 221 -147 383 -411 452l-33 -70c138 -36 236 -96 294 -170l-286 23l-15 -69l336 -14c12 -28 20 -58 22 -89h-314v-63zM474 893c104 0 168 -25 168 -71s-64 -72 -168 -72s-168 26 -168 72s64 71 168 71zM474 689c155 0 249 49 249 133s-94 132 -249 132
c-154 0 -249 -48 -249 -132s95 -133 249 -133zM515 502v83h271v64h-624v-64h271v-83h82zM878 229h-129v106h129v66h-129v127h-82v-471h82v105h129v67z" />
</svg>
