<?xml version="1.0" standalone="no"?>
<!DOCTYPE svg PUBLIC "-//W3C//DTD SVG 1.1//EN" "http://www.w3.org/Graphics/SVG/1.1/DTD/svg11.dtd" >
<svg xmlns="http://www.w3.org/2000/svg" xmlns:xlink="http://www.w3.org/1999/xlink" version="1.1" viewBox="-10 0 930 1000">
   <path fill="currentColor"
d="M734 236h-120v116h120v-116zM614 420v99h-77v-445h77v95h120v-111h77v466h-77v-104h-120zM104 101h355c0 216 -119 372 -353 464l-41 -62c123 -45 208 -108 258 -186l-248 29l-14 -69l291 -17c11 -30 18 -61 21 -94h-269v-65zM246 784v101c94 -1 155 -4 229 -17l7 64
c-86 17 -153 18 -269 18h-48v-221h217v-88h-219v-66h300v209h-217zM636 641v243h71v-243h-71zM773 884h63v66h-332v-66h66v-243h-61v-66h324v66h-60v243z" />
</svg>
