<?xml version="1.0" standalone="no"?>
<!DOCTYPE svg PUBLIC "-//W3C//DTD SVG 1.1//EN" "http://www.w3.org/Graphics/SVG/1.1/DTD/svg11.dtd" >
<svg xmlns="http://www.w3.org/2000/svg" xmlns:xlink="http://www.w3.org/1999/xlink" version="1.1" viewBox="-10 0 930 1000">
   <path fill="currentColor"
d="M731 247h-114v124h114v-124zM617 439v131h-78v-495h78v103h114v-120h79v518h-79v-137h-114zM103 119h351c0 215 -97 382 -348 482l-40 -58c131 -50 214 -119 261 -202l-253 29l-13 -69l292 -18c10 -31 17 -63 20 -97h-270v-67zM820 689h-259c6 100 142 180 294 201
l-29 61c-135 -19 -256 -80 -308 -172c-51 92 -173 153 -308 172l-29 -61c155 -21 288 -98 294 -201h-260v-66h605v66z" />
</svg>
