<?xml version="1.0" standalone="no"?>
<!DOCTYPE svg PUBLIC "-//W3C//DTD SVG 1.1//EN" "http://www.w3.org/Graphics/SVG/1.1/DTD/svg11.dtd" >
<svg xmlns="http://www.w3.org/2000/svg" xmlns:xlink="http://www.w3.org/1999/xlink" version="1.1" viewBox="-10 0 930 1000">
   <path fill="currentColor"
d="M731 241h-117v108h117v-108zM614 418v102h-77v-445h77v97h117v-114h79v516h-79v-156h-117zM104 101h355c0 215 -99 373 -352 464l-41 -62c133 -45 217 -109 262 -187l-253 30l-13 -68l293 -18c10 -29 16 -61 19 -94h-270v-65zM818 715h-257c17 87 150 156 296 173l-28 61
c-137 -16 -261 -75 -314 -161c-52 88 -175 145 -313 161l-28 -61c147 -17 280 -84 296 -173h-257v-66h261v-85h82v85h262v66z" />
</svg>
