<?xml version="1.0" standalone="no"?>
<!DOCTYPE svg PUBLIC "-//W3C//DTD SVG 1.1//EN" "http://www.w3.org/Graphics/SVG/1.1/DTD/svg11.dtd" >
<svg xmlns="http://www.w3.org/2000/svg" xmlns:xlink="http://www.w3.org/1999/xlink" version="1.1" viewBox="-10 0 930 1000">
   <path fill="currentColor"
d="M733 256h-119v127h119v-127zM614 452v124h-77v-501h77v112h119v-129h78v522h-78v-128h-119zM103 111h351c0 215 -103 381 -348 481l-40 -58c127 -50 211 -119 259 -202l-251 29l-13 -70l291 -16c11 -31 18 -63 21 -97h-270v-67zM415 683v195h190v-195h-190zM687 878h142
v66h-642v-66h146v-195h-138v-66h628v66h-136v195z" />
</svg>
