<?xml version="1.0" standalone="no"?>
<!DOCTYPE svg PUBLIC "-//W3C//DTD SVG 1.1//EN" "http://www.w3.org/Graphics/SVG/1.1/DTD/svg11.dtd" >
<svg xmlns="http://www.w3.org/2000/svg" xmlns:xlink="http://www.w3.org/1999/xlink" version="1.1" viewBox="-10 0 930 1000">
   <path fill="currentColor"
d="M731 238h-117v103h117v-103zM614 407v106h-77v-438h77v96h117v-113h79v490h-79v-141h-117zM104 101h355c0 215 -99 373 -352 464l-41 -62c133 -45 216 -109 262 -187l-253 30l-13 -68l293 -18c10 -30 16 -61 19 -94h-270v-65zM503 895c114 0 177 -21 177 -60
s-63 -60 -177 -60c-113 0 -175 21 -175 60s62 60 175 60zM503 717c162 0 255 41 255 118s-93 118 -255 118c-161 0 -254 -41 -254 -118s93 -118 254 -118zM545 614h279v63h-641v-63h280v-79h82v79z" />
</svg>
