<?xml version="1.0" standalone="no"?>
<!DOCTYPE svg PUBLIC "-//W3C//DTD SVG 1.1//EN" "http://www.w3.org/Graphics/SVG/1.1/DTD/svg11.dtd" >
<svg xmlns="http://www.w3.org/2000/svg" xmlns:xlink="http://www.w3.org/1999/xlink" version="1.1" viewBox="-10 0 930 1000">
   <path fill="currentColor"
d="M509 270h192v-213h85v470h-85v-189h-192v-68zM103 92h406c0 225 -133 383 -411 454l-34 -65c149 -38 247 -99 301 -175l-292 23l-14 -69l340 -14c11 -29 18 -59 20 -91h-316v-63zM704 568v91c0 97 50 190 155 234l-46 60c-73 -32 -122 -89 -149 -157
c-27 73 -77 132 -154 165l-44 -59l5 31c-81 16 -144 17 -270 17h-48v-223h218v-89h-221v-64h300v213h-218v99c103 0 160 -2 229 -17l5 29c106 -43 158 -140 158 -242v-88h80z" />
</svg>
