<?xml version="1.0" standalone="no"?>
<!DOCTYPE svg PUBLIC "-//W3C//DTD SVG 1.1//EN" "http://www.w3.org/Graphics/SVG/1.1/DTD/svg11.dtd" >
<svg xmlns="http://www.w3.org/2000/svg" xmlns:xlink="http://www.w3.org/1999/xlink" version="1.1" viewBox="-10 0 930 1000">
   <path fill="currentColor"
d="M509 270h192v-213h84v474h-84v-193h-192v-68zM103 92h406c0 225 -133 382 -411 453l-34 -66c148 -37 246 -98 301 -173l-292 23l-14 -69l340 -14c11 -29 18 -59 20 -91h-316v-63zM230 784v101c95 -1 154 -4 228 -17l9 64c-87 17 -154 18 -270 18h-48v-221h218v-88h-220
v-66h300v209h-217zM617 641v243h72v-243h-72zM755 884h63v66h-331v-66h65v-243h-59v-66h320v66h-58v243z" />
</svg>
