<?xml version="1.0" standalone="no"?>
<!DOCTYPE svg PUBLIC "-//W3C//DTD SVG 1.1//EN" "http://www.w3.org/Graphics/SVG/1.1/DTD/svg11.dtd" >
<svg xmlns="http://www.w3.org/2000/svg" xmlns:xlink="http://www.w3.org/1999/xlink" version="1.1" viewBox="-10 0 930 1000">
   <path fill="currentColor"
d="M515 310h194v-253h83v550h-83v-229h-194v-68zM117 118h398c0 230 -123 402 -405 493l-34 -65c149 -48 245 -116 300 -201l-290 22l-15 -67l336 -15c12 -32 19 -65 22 -100h-312v-67zM499 888c132 0 216 -39 216 -103c0 -65 -84 -104 -216 -104s-216 39 -216 104
c0 64 84 103 216 103zM499 617c182 0 297 62 297 168c0 105 -115 168 -297 168s-297 -63 -297 -168c0 -106 115 -168 297 -168z" />
</svg>
