<?xml version="1.0" standalone="no"?>
<!DOCTYPE svg PUBLIC "-//W3C//DTD SVG 1.1//EN" "http://www.w3.org/Graphics/SVG/1.1/DTD/svg11.dtd" >
<svg xmlns="http://www.w3.org/2000/svg" xmlns:xlink="http://www.w3.org/1999/xlink" version="1.1" viewBox="-10 0 930 1000">
   <path fill="currentColor"
d="M509 282h192v-224h84v519h-84v-227h-192v-68zM106 110h405c0 232 -127 395 -411 480l-31 -68c148 -43 245 -107 300 -188l-295 24l-12 -70l339 -15c11 -31 19 -63 22 -97h-317v-66zM793 689h-257c12 103 139 178 294 198l-31 64c-138 -22 -261 -83 -311 -179
c-50 95 -171 156 -307 178l-30 -64c150 -20 278 -95 291 -197h-255v-65h606v65z" />
</svg>
