<?xml version="1.0" standalone="no"?>
<!DOCTYPE svg PUBLIC "-//W3C//DTD SVG 1.1//EN" "http://www.w3.org/Graphics/SVG/1.1/DTD/svg11.dtd" >
<svg xmlns="http://www.w3.org/2000/svg" xmlns:xlink="http://www.w3.org/1999/xlink" version="1.1" viewBox="-10 0 930 1000">
   <path fill="currentColor"
d="M509 282h192v-224h84v514h-84v-223h-192v-67zM106 110h405c0 233 -144 396 -411 482l-32 -69c140 -43 239 -107 296 -190l-290 24l-13 -70l338 -15c12 -30 20 -63 24 -96h-317v-66zM394 683v194h193v-194h-193zM669 877h136v67h-628v-67h135v-194h-127v-67h612v67h-128
v194z" />
</svg>
