<?xml version="1.0" standalone="no"?>
<!DOCTYPE svg PUBLIC "-//W3C//DTD SVG 1.1//EN" "http://www.w3.org/Graphics/SVG/1.1/DTD/svg11.dtd" >
<svg xmlns="http://www.w3.org/2000/svg" xmlns:xlink="http://www.w3.org/1999/xlink" version="1.1" viewBox="-10 0 930 1000">
   <path fill="currentColor"
d="M810 56v523h-78v-523h78zM561 370h-166c-53 96 -146 174 -290 232l-39 -60c131 -50 214 -118 260 -200l-250 27l-13 -69l290 -19c10 -31 16 -64 19 -98h-267v-67h350c0 67 -9 130 -29 187h135v-227h78v506h-78v-212zM161 681v-67h300v343h-82v-276h-218zM718 602v72
c0 89 53 182 160 222l-44 64c-78 -31 -129 -89 -157 -157c-30 69 -86 128 -166 158l-44 -61c111 -41 170 -135 170 -222v-76h81z" />
</svg>
