<?xml version="1.0" standalone="no"?>
<!DOCTYPE svg PUBLIC "-//W3C//DTD SVG 1.1//EN" "http://www.w3.org/Graphics/SVG/1.1/DTD/svg11.dtd" >
<svg xmlns="http://www.w3.org/2000/svg" xmlns:xlink="http://www.w3.org/1999/xlink" version="1.1" viewBox="-10 0 930 1000">
   <path fill="currentColor"
d="M564 336h-168c-56 98 -153 176 -288 231l-41 -60c124 -48 210 -115 258 -197l-250 30l-13 -69l291 -17c10 -29 17 -59 20 -90h-270v-65h354c0 61 -10 118 -29 170h136v-193h78v453h-78v-193zM233 791v97c99 0 160 -2 238 -16l8 62c-90 15 -158 16 -277 16h-49v-218h218
v-94h-220v-64h300v217h-218zM578 636v257h162v-257h-162zM507 955v-381h304v381h-304zM733 58h78v476h-78v-476z" />
</svg>
