<?xml version="1.0" standalone="no"?>
<!DOCTYPE svg PUBLIC "-//W3C//DTD SVG 1.1//EN" "http://www.w3.org/Graphics/SVG/1.1/DTD/svg11.dtd" >
<svg xmlns="http://www.w3.org/2000/svg" xmlns:xlink="http://www.w3.org/1999/xlink" version="1.1" viewBox="-10 0 930 1000">
   <path fill="currentColor"
d="M564 336h-168c-56 98 -153 176 -288 231l-42 -60c124 -48 211 -115 259 -197l-250 30l-13 -69l291 -17c10 -29 17 -59 20 -90h-270v-65h354c0 61 -10 118 -29 170h136v-193h78v453h-78v-193zM229 791v97c100 0 161 -2 238 -16l10 62c-90 15 -159 16 -279 16h-49v-218h219
v-94h-221v-64h301v217h-219zM737 883v-118h-163v118h163zM737 701v-128h73v376h-310v-376h74v128h163zM733 58h78v476h-78v-476z" />
</svg>
