<?xml version="1.0" standalone="no"?>
<!DOCTYPE svg PUBLIC "-//W3C//DTD SVG 1.1//EN" "http://www.w3.org/Graphics/SVG/1.1/DTD/svg11.dtd" >
<svg xmlns="http://www.w3.org/2000/svg" xmlns:xlink="http://www.w3.org/1999/xlink" version="1.1" viewBox="-10 0 930 1000">
   <path fill="currentColor"
d="M813 58v608h-78v-608h78zM558 386h-163c-54 104 -148 189 -293 253l-40 -60c130 -56 214 -129 261 -216l-249 26l-13 -67l289 -19c10 -33 17 -67 20 -103h-267v-67h348c0 66 -9 129 -28 187h135v-247h77v513h-77v-200zM553 614v28c0 120 148 219 307 244l-33 65
c-134 -24 -260 -94 -315 -195c-55 101 -179 171 -314 195l-32 -65c158 -25 305 -124 305 -244v-28h82z" />
</svg>
