<?xml version="1.0" standalone="no"?>
<!DOCTYPE svg PUBLIC "-//W3C//DTD SVG 1.1//EN" "http://www.w3.org/Graphics/SVG/1.1/DTD/svg11.dtd" >
<svg xmlns="http://www.w3.org/2000/svg" xmlns:xlink="http://www.w3.org/1999/xlink" version="1.1" viewBox="-10 0 930 1000">
   <path fill="currentColor"
d="M702 278h-218c-51 144 -177 250 -386 314l-30 -67c149 -44 247 -109 302 -191l-294 22l-13 -68l340 -16c11 -30 19 -62 22 -96h-316v-66h402c0 34 -3 67 -9 99h200v-152h83v528h-83v-125h-229v-69h229v-113zM664 685v9c0 88 61 169 167 205l-42 61
c-80 -28 -136 -83 -166 -151c-29 67 -88 128 -169 157l-42 -60c-80 26 -171 32 -219 32h-48v-306h80v226c53 -3 139 -13 196 -41l23 74c86 -43 137 -117 137 -182v-24h-145v-68h379v68h-151z" />
</svg>
