<?xml version="1.0" standalone="no"?>
<!DOCTYPE svg PUBLIC "-//W3C//DTD SVG 1.1//EN" "http://www.w3.org/Graphics/SVG/1.1/DTD/svg11.dtd" >
<svg xmlns="http://www.w3.org/2000/svg" xmlns:xlink="http://www.w3.org/1999/xlink" version="1.1" viewBox="-10 0 930 1000">
   <path fill="currentColor"
d="M709 250h-217c-48 143 -173 244 -384 300l-30 -63c149 -38 245 -98 299 -175l-289 22l-12 -65l333 -16c10 -27 17 -56 20 -87h-310v-65h395c0 30 -2 57 -7 85h202v-129h82v464h-82v-97h-229v-65h229v-109zM297 877h525v65h-606v-226h495v-89h-497v-65h577v215h-494v100z
" />
</svg>
