<?xml version="1.0" standalone="no"?>
<!DOCTYPE svg PUBLIC "-//W3C//DTD SVG 1.1//EN" "http://www.w3.org/Graphics/SVG/1.1/DTD/svg11.dtd" >
<svg xmlns="http://www.w3.org/2000/svg" xmlns:xlink="http://www.w3.org/1999/xlink" version="1.1" viewBox="-10 0 930 1000">
   <path fill="currentColor"
d="M109 593l-32 -64c146 -45 243 -111 297 -194l-288 22l-14 -67l334 -15c12 -32 20 -64 23 -100h-312v-66h398c0 34 -3 67 -9 99h203v-150h83v537h-83v-137h-230v-67h230v-117h-220c-49 145 -171 254 -380 319zM694 623v46c0 92 67 184 181 221l-41 61
c-87 -31 -151 -93 -181 -167c-27 71 -82 139 -166 174c-85 -33 -139 -99 -165 -173c-32 72 -94 134 -178 166l-41 -61c113 -40 181 -135 181 -221v-46h79v46c0 78 40 163 123 211c85 -53 128 -143 128 -211v-46h80z" />
</svg>
