<?xml version="1.0" standalone="no"?>
<!DOCTYPE svg PUBLIC "-//W3C//DTD SVG 1.1//EN" "http://www.w3.org/Graphics/SVG/1.1/DTD/svg11.dtd" >
<svg xmlns="http://www.w3.org/2000/svg" xmlns:xlink="http://www.w3.org/1999/xlink" version="1.1" viewBox="-10 0 930 1000">
   <path fill="currentColor"
d="M173 691v-67h612v333h-84v-120l-534 25l-12 -66l546 -21v-84h-528zM702 57h83v528h-83v-125h-229v-69h229v-113h-218c-51 144 -177 250 -386 313l-29 -66c149 -44 247 -109 301 -191l-294 23l-12 -69l339 -16c11 -30 19 -62 22 -96h-316v-66h402c0 34 -3 67 -9 99h200
v-152z" />
</svg>
