<?xml version="1.0" standalone="no"?>
<!DOCTYPE svg PUBLIC "-//W3C//DTD SVG 1.1//EN" "http://www.w3.org/Graphics/SVG/1.1/DTD/svg11.dtd" >
<svg xmlns="http://www.w3.org/2000/svg" xmlns:xlink="http://www.w3.org/1999/xlink" version="1.1" viewBox="-10 0 930 1000">
   <path fill="currentColor"
d="M812 58v471h-79v-471h79zM571 256h-140c-46 137 -155 241 -324 309l-41 -60c120 -45 204 -110 253 -188l-245 29l-13 -69l287 -18c12 -30 19 -61 22 -95h-268v-65h353c0 32 -3 62 -8 92h124v-118h77v448h-77v-96h-159v-64h159v-105zM289 882h548v62h-631v-369h612v62
h-529v91h518v61h-518v93z" />
</svg>
