<?xml version="1.0" standalone="no"?>
<!DOCTYPE svg PUBLIC "-//W3C//DTD SVG 1.1//EN" "http://www.w3.org/Graphics/SVG/1.1/DTD/svg11.dtd" >
<svg xmlns="http://www.w3.org/2000/svg" xmlns:xlink="http://www.w3.org/1999/xlink" version="1.1" viewBox="-10 0 930 1000">
   <path fill="currentColor"
d="M124 259l552 -19c1 -29 1 -56 1 -82h-527v-69h612v66c0 72 0 154 -22 262l-84 -10c8 -39 13 -75 16 -107l-534 26zM369 883v-112h-163v112h163zM684 600v68c0 84 58 178 158 222l-44 64c-73 -32 -124 -90 -152 -157c-29 70 -82 127 -159 159l-41 -60v52h-318v-343h78v104
h163v-104h77v284c101 -42 157 -132 157 -219v-70h81zM457 472h402v66h-814v-66h329v-118h83v118z" />
</svg>
