<?xml version="1.0" standalone="no"?>
<!DOCTYPE svg PUBLIC "-//W3C//DTD SVG 1.1//EN" "http://www.w3.org/Graphics/SVG/1.1/DTD/svg11.dtd" >
<svg xmlns="http://www.w3.org/2000/svg" xmlns:xlink="http://www.w3.org/1999/xlink" version="1.1" viewBox="-10 0 930 1000">
   <path fill="currentColor"
d="M86 278l377 -18c2 -30 2 -57 2 -81h-357v-66h437v55c0 65 0 156 -23 282l-81 -6c9 -47 14 -87 18 -125l-361 25zM609 486l5 59c-185 29 -397 33 -558 33l-9 -66c60 0 126 0 195 -2v-125h81v122c97 -3 196 -9 286 -21zM161 735v-66h590v283h-82v-217h-508zM879 308v69
h-128v244h-82v-564h82v251h128z" />
</svg>
