<?xml version="1.0" standalone="no"?>
<!DOCTYPE svg PUBLIC "-//W3C//DTD SVG 1.1//EN" "http://www.w3.org/Graphics/SVG/1.1/DTD/svg11.dtd" >
<svg xmlns="http://www.w3.org/2000/svg" xmlns:xlink="http://www.w3.org/1999/xlink" version="1.1" viewBox="-10 0 930 1000">
   <path fill="currentColor"
d="M74 267l316 -19c2 -30 3 -55 3 -76h-289v-63h365v30c0 50 0 142 -18 271l-76 -6c5 -36 8 -70 11 -100l-299 28zM507 443l6 59c-142 23 -329 28 -453 28l-10 -68c44 0 97 0 153 -2v-101h76v99c80 -3 161 -7 228 -15zM250 794v95c120 0 196 -4 291 -20l6 62
c-103 17 -185 20 -322 20h-56v-216h232v-82h-234v-63h314v204h-231zM520 655v-65h296v366h-83v-301h-213zM739 58h78v485h-78v-210h-108v207h-78v-467h78v192h108v-207z" />
</svg>
