<?xml version="1.0" standalone="no"?>
<!DOCTYPE svg PUBLIC "-//W3C//DTD SVG 1.1//EN" "http://www.w3.org/Graphics/SVG/1.1/DTD/svg11.dtd" >
<svg xmlns="http://www.w3.org/2000/svg" xmlns:xlink="http://www.w3.org/1999/xlink" version="1.1" viewBox="-10 0 930 1000">
   <path fill="currentColor"
d="M631 334v206h-78v-467h78v193h108v-208h78v486h-78v-210h-108zM74 267l316 -19c2 -30 3 -55 3 -76h-290v-63h366v30c0 50 0 142 -18 271l-76 -6c5 -36 8 -70 11 -100l-299 28zM241 800v89c103 0 168 -3 247 -17l7 62c-90 15 -161 16 -282 16h-49v-206h232v-86h-235v-61
h313v203h-233zM279 359v99c81 -3 161 -7 228 -15l6 59c-141 23 -329 28 -453 28l-10 -68c44 0 97 0 153 -2v-101h76zM597 887h239v61h-318v-351h307v61h-228v84h218v56h-218v89z" />
</svg>
