<?xml version="1.0" standalone="no"?>
<!DOCTYPE svg PUBLIC "-//W3C//DTD SVG 1.1//EN" "http://www.w3.org/Graphics/SVG/1.1/DTD/svg11.dtd" >
<svg xmlns="http://www.w3.org/2000/svg" xmlns:xlink="http://www.w3.org/1999/xlink" version="1.1" viewBox="-10 0 930 1000">
   <path fill="currentColor"
d="M631 372v231h-78v-528h78v228h108v-245h78v551h-78v-237h-108zM73 275l317 -20c2 -30 3 -56 3 -77h-290v-66h366v32c0 53 0 151 -18 288l-76 -6c5 -41 9 -78 11 -112l-299 28zM507 477l6 61c-145 27 -334 31 -453 31l-10 -70c45 0 98 0 156 -2v-117h76v115
c78 -3 158 -9 225 -18zM825 723h-261c21 85 149 154 295 170l-27 62c-139 -18 -263 -76 -314 -164c-54 83 -176 142 -312 160l-27 -62c142 -16 271 -86 294 -166h-259v-64h611v64z" />
</svg>
