<?xml version="1.0" standalone="no"?>
<!DOCTYPE svg PUBLIC "-//W3C//DTD SVG 1.1//EN" "http://www.w3.org/Graphics/SVG/1.1/DTD/svg11.dtd" >
<svg xmlns="http://www.w3.org/2000/svg" xmlns:xlink="http://www.w3.org/1999/xlink" version="1.1" viewBox="-10 0 930 1000">
   <path fill="currentColor"
d="M623 361v211h-78v-500h78v222h107v-237h78v551h-78v-247h-107zM73 269l317 -19c2 -31 3 -57 3 -78h-290v-63h366v31c0 51 0 149 -19 283l-77 -6c6 -41 10 -78 13 -111l-299 28zM502 457l6 57c-146 28 -334 31 -451 31l-9 -65c44 0 99 0 158 -2v-114h76v112
c77 -4 155 -9 220 -19zM816 738h-264c22 75 150 136 298 150l-25 61c-140 -14 -264 -66 -319 -145c-54 79 -180 131 -320 145l-25 -61c148 -14 277 -75 299 -150h-263v-63h268v-78h82v78h269v63z" />
</svg>
