<?xml version="1.0" standalone="no"?>
<!DOCTYPE svg PUBLIC "-//W3C//DTD SVG 1.1//EN" "http://www.w3.org/Graphics/SVG/1.1/DTD/svg11.dtd" >
<svg xmlns="http://www.w3.org/2000/svg" xmlns:xlink="http://www.w3.org/1999/xlink" version="1.1" viewBox="-10 0 930 1000">
   <path fill="currentColor"
d="M623 350v204h-78v-482h78v211h107v-226h78v528h-78v-235h-107zM73 264l318 -20c1 -28 2 -52 2 -72h-290v-64h366v36c0 54 0 146 -21 271l-76 -8c7 -40 11 -74 14 -106l-299 28zM502 441l6 56c-146 29 -334 31 -450 32l-10 -66c44 0 99 0 158 -2v-101h76v99
c77 -3 155 -9 220 -18zM510 896c115 0 174 -15 174 -48s-59 -47 -174 -47c-116 0 -174 14 -174 47s58 48 174 48zM510 745c168 0 258 34 258 103c0 70 -90 104 -258 104s-258 -34 -258 -104c0 -69 90 -103 258 -103zM551 647h278v61h-639v-61h279v-72h82v72z" />
</svg>
