<?xml version="1.0" standalone="no"?>
<!DOCTYPE svg PUBLIC "-//W3C//DTD SVG 1.1//EN" "http://www.w3.org/Graphics/SVG/1.1/DTD/svg11.dtd" >
<svg xmlns="http://www.w3.org/2000/svg" xmlns:xlink="http://www.w3.org/1999/xlink" version="1.1" viewBox="-10 0 930 1000">
   <path fill="currentColor"
d="M781 58v550h-82v-550h82zM88 270l385 -19c2 -30 3 -56 3 -77h-359v-66h441v33c0 56 0 157 -22 300l-81 -8c7 -46 11 -87 14 -124l-368 28zM628 478l6 61c-190 26 -401 32 -569 33l-13 -69c63 0 130 -1 199 -3v-125h83v123c100 -4 201 -9 294 -20zM817 708h-151
c2 84 64 159 166 191l-42 61c-77 -26 -132 -76 -163 -138c-30 64 -88 117 -170 143l-40 -62c-66 30 -151 37 -217 37h-47v-290h81v211c61 -3 143 -15 190 -49l20 77c-5 4 -11 7 -18 10c101 -34 161 -111 161 -191h-146v-67h376v67z" />
</svg>
