<?xml version="1.0" standalone="no"?>
<!DOCTYPE svg PUBLIC "-//W3C//DTD SVG 1.1//EN" "http://www.w3.org/Graphics/SVG/1.1/DTD/svg11.dtd" >
<svg xmlns="http://www.w3.org/2000/svg" xmlns:xlink="http://www.w3.org/1999/xlink" version="1.1" viewBox="-10 0 930 1000">
   <path fill="currentColor"
d="M781 58v492h-82v-492h82zM88 248l386 -21c2 -26 3 -48 3 -67h-360v-63h441v30c0 48 0 141 -21 268l-81 -7c7 -38 11 -73 14 -104l-368 28zM629 440l5 61c-183 22 -397 31 -569 33l-12 -69c63 0 130 -1 199 -4v-109h82v107c101 -5 203 -10 295 -19zM706 591v70
c0 96 49 189 151 233l-45 61c-72 -32 -120 -88 -146 -158c-27 74 -76 132 -150 165l-40 -51l4 22c-81 16 -143 17 -269 17h-48v-210h217v-81h-219v-61h298v199h-217v91c102 0 159 -2 228 -17l5 28c101 -45 151 -140 151 -240v-68h80z" />
</svg>
