<?xml version="1.0" standalone="no"?>
<!DOCTYPE svg PUBLIC "-//W3C//DTD SVG 1.1//EN" "http://www.w3.org/Graphics/SVG/1.1/DTD/svg11.dtd" >
<svg xmlns="http://www.w3.org/2000/svg" xmlns:xlink="http://www.w3.org/1999/xlink" version="1.1" viewBox="-10 0 930 1000">
   <path fill="currentColor"
d="M781 58v492h-82v-492h82zM88 248l386 -21c2 -26 3 -48 3 -67h-360v-63h441v30c0 48 0 141 -21 268l-81 -7c7 -38 11 -73 13 -104l-367 28zM629 440l5 61c-183 22 -397 31 -569 33l-12 -69c63 0 131 -1 199 -4v-109h82v107c101 -5 203 -10 295 -19zM223 796v93
c97 0 158 -2 235 -16l7 61c-88 15 -156 16 -272 16h-48v-210h219v-83h-221v-61h298v200h-218zM575 887h223v61h-302v-352h292v62h-213v84h203v56h-203v89z" />
</svg>
