<?xml version="1.0" standalone="no"?>
<!DOCTYPE svg PUBLIC "-//W3C//DTD SVG 1.1//EN" "http://www.w3.org/Graphics/SVG/1.1/DTD/svg11.dtd" >
<svg xmlns="http://www.w3.org/2000/svg" xmlns:xlink="http://www.w3.org/1999/xlink" version="1.1" viewBox="-10 0 930 1000">
   <path fill="currentColor"
d="M857 482h-363v99h277v372h-84v-305h-212v-41h-39v183h-218v95c113 0 186 -3 277 -20l7 65c-100 18 -179 20 -312 20h-55v-221h218v-83h-220v-65h277v-99h-364v-64h608c7 -41 11 -78 14 -112l-532 25l-13 -62l549 -20c2 -33 3 -63 3 -88h-527v-63h612v45
c0 58 0 150 -20 275h117v64z" />
</svg>
