<?xml version="1.0" standalone="no"?>
<!DOCTYPE svg PUBLIC "-//W3C//DTD SVG 1.1//EN" "http://www.w3.org/Graphics/SVG/1.1/DTD/svg11.dtd" >
<svg xmlns="http://www.w3.org/2000/svg" xmlns:xlink="http://www.w3.org/1999/xlink" version="1.1" viewBox="-10 0 930 1000">
   <path fill="currentColor"
d="M633 903c49 0 82 -23 82 -59c0 -38 -33 -60 -82 -60c-47 0 -80 22 -80 60c0 36 33 59 80 59zM633 728c88 0 153 44 153 116c0 70 -65 114 -153 114c-85 0 -150 -44 -150 -114c0 -72 65 -116 150 -116zM673 554v83h151v61h-377v-61h147v-83h79zM739 421h119v65h-366v117
h-79v197h-199v83c108 0 164 -2 236 -15l9 61c-82 15 -144 16 -274 16h-48v-205h199v-78h-201v-61h275v-115h-364v-65h607c7 -41 12 -80 15 -114l-532 26l-13 -63l549 -19c2 -34 3 -64 3 -90h-527v-63h612v45c0 58 0 151 -21 278z" />
</svg>
