<?xml version="1.0" standalone="no"?>
<!DOCTYPE svg PUBLIC "-//W3C//DTD SVG 1.1//EN" "http://www.w3.org/Graphics/SVG/1.1/DTD/svg11.dtd" >
<svg xmlns="http://www.w3.org/2000/svg" xmlns:xlink="http://www.w3.org/1999/xlink" version="1.1" viewBox="-10 0 930 1000">
   <path fill="currentColor"
d="M282 586v-134c-79 3 -156 4 -225 4l-11 -66c126 -1 271 -2 411 -9c7 -36 11 -68 14 -97l-354 28l-14 -66l372 -18c2 -27 2 -51 2 -72h-342v-63h423v49c0 53 0 130 -18 234c29 -2 56 -4 83 -7l8 59c-86 11 -177 17 -267 21v137h-82zM239 808v82c116 0 189 -3 280 -19l9 59
c-102 18 -181 20 -316 20h-53v-198h222v-75h-225v-59h306v190h-223zM499 679v-61h287v336h-84v-275h-203zM704 57h82v526h-82v-38h-199v-54h199v-434z" />
</svg>
