<?xml version="1.0" standalone="no"?>
<!DOCTYPE svg PUBLIC "-//W3C//DTD SVG 1.1//EN" "http://www.w3.org/Graphics/SVG/1.1/DTD/svg11.dtd" >
<svg xmlns="http://www.w3.org/2000/svg" xmlns:xlink="http://www.w3.org/1999/xlink" version="1.1" viewBox="-10 0 930 1000">
   <path fill="currentColor"
d="M505 490h199v-433h82v526h-82v-38h-199v-55zM282 586v-134c-78 3 -155 4 -225 4l-11 -66c127 -1 271 -2 411 -9c7 -36 11 -67 14 -96l-354 27l-13 -66l371 -18c2 -27 2 -51 2 -72h-342v-63h423v49c0 53 0 130 -18 234c29 -2 56 -4 83 -7l8 59c-86 11 -177 17 -267 21v137
h-82zM219 811v80c99 0 162 -3 240 -16l7 59c-89 15 -158 16 -276 16h-48v-195h222v-78h-224v-60h301v194h-222zM575 888h226v60h-305v-331h295v61h-216v78h207v56h-207v76z" />
</svg>
