<?xml version="1.0" standalone="no"?>
<!DOCTYPE svg PUBLIC "-//W3C//DTD SVG 1.1//EN" "http://www.w3.org/Graphics/SVG/1.1/DTD/svg11.dtd" >
<svg xmlns="http://www.w3.org/2000/svg" xmlns:xlink="http://www.w3.org/1999/xlink" version="1.1" viewBox="-10 0 930 1000">
   <path fill="currentColor"
d="M817 58v582h-79v-582h79zM422 517h155v-444h77v564h-77v-61h-155v-59zM248 636v-160c-69 3 -135 4 -190 4l-10 -67c91 0 213 -2 328 -9c6 -36 9 -68 12 -98l-300 26l-15 -67l318 -17c2 -30 2 -55 2 -78h-288v-65h365v52c0 57 0 137 -16 242c26 -3 51 -5 74 -8l6 59
c-63 11 -135 18 -206 22v164h-80zM842 729h-150c6 76 69 142 171 170l-42 61c-78 -24 -135 -70 -167 -129c-31 60 -90 109 -172 133l-40 -60c-67 30 -152 38 -219 38h-46v-263h79v186c62 -3 146 -15 193 -49l21 74l-11 6c96 -31 150 -97 156 -167h-150v-66h377v66z" />
</svg>
