<?xml version="1.0" standalone="no"?>
<!DOCTYPE svg PUBLIC "-//W3C//DTD SVG 1.1//EN" "http://www.w3.org/Graphics/SVG/1.1/DTD/svg11.dtd" >
<svg xmlns="http://www.w3.org/2000/svg" xmlns:xlink="http://www.w3.org/1999/xlink" version="1.1" viewBox="-10 0 930 1000">
   <path fill="currentColor"
d="M416 491h160v-419h78v515h-78v-42h-160v-54zM253 585v-132c-68 4 -133 5 -187 5l-10 -66c91 0 218 -2 334 -10c4 -35 8 -68 10 -97l-296 27l-11 -64l311 -19c1 -27 1 -51 1 -72h-290v-62h367v52c0 54 0 130 -14 229c19 -2 38 -4 55 -7l8 57c-61 11 -130 18 -199 23v136
h-79zM235 813v79c99 0 161 -3 239 -16l8 57c-91 16 -160 17 -281 17h-48v-192h222v-78h-224v-61h306v194h-222zM586 678v219h159v-219h-159zM515 956v-337h302v337h-302zM739 57h78v533h-78v-533z" />
</svg>
