<?xml version="1.0" standalone="no"?>
<!DOCTYPE svg PUBLIC "-//W3C//DTD SVG 1.1//EN" "http://www.w3.org/Graphics/SVG/1.1/DTD/svg11.dtd" >
<svg xmlns="http://www.w3.org/2000/svg" xmlns:xlink="http://www.w3.org/1999/xlink" version="1.1" viewBox="-10 0 930 1000">
   <path fill="currentColor"
d="M817 58v581h-79v-581h79zM422 517h155v-444h77v564h-77v-61h-155v-59zM248 636v-160c-69 3 -135 4 -190 4l-10 -67c91 0 213 -2 328 -9c6 -36 9 -68 12 -98l-300 26l-15 -67l318 -17c2 -30 2 -55 2 -78h-288v-65h365v52c0 57 0 137 -16 242c26 -3 50 -5 73 -8l7 59
c-63 11 -135 18 -206 22v164h-80zM697 660v21c0 91 68 182 185 219l-42 59c-87 -30 -149 -87 -182 -158c-28 74 -81 138 -162 173v-1l-1 1c-83 -34 -136 -98 -163 -172c-34 70 -96 127 -182 157l-41 -59c116 -38 185 -130 185 -219v-21h79v21c0 79 40 163 122 211
c82 -49 122 -133 122 -211v-21h80z" />
</svg>
