<?xml version="1.0" standalone="no"?>
<!DOCTYPE svg PUBLIC "-//W3C//DTD SVG 1.1//EN" "http://www.w3.org/Graphics/SVG/1.1/DTD/svg11.dtd" >
<svg xmlns="http://www.w3.org/2000/svg" xmlns:xlink="http://www.w3.org/1999/xlink" version="1.1" viewBox="-10 0 930 1000">
   <path fill="currentColor"
d="M781 57v549h-82v-549h82zM272 877h528v65h-610v-291h116v-146c-85 3 -168 5 -241 5l-12 -71c123 0 267 -2 409 -9c7 -41 11 -77 14 -112l-351 26l-14 -69l370 -18c2 -33 2 -62 2 -88h-353v-67h433v54c0 63 0 150 -20 269c30 -2 59 -4 88 -7l7 63c-81 10 -167 17 -250 20
v150h405v65h-521v161z" />
</svg>
