<?xml version="1.0" standalone="no"?>
<!DOCTYPE svg PUBLIC "-//W3C//DTD SVG 1.1//EN" "http://www.w3.org/Graphics/SVG/1.1/DTD/svg11.dtd" >
<svg xmlns="http://www.w3.org/2000/svg" xmlns:xlink="http://www.w3.org/1999/xlink" version="1.1" viewBox="-10 0 930 1000">
   <path fill="currentColor"
d="M784 57v471h-82v-471h82zM275 878h543v63h-624v-223h509v-88h-511v-62h106v-111c-82 3 -162 4 -233 4l-11 -66c119 0 259 -1 399 -8c8 -38 12 -72 15 -103l-341 23l-14 -60l360 -17c2 -31 3 -57 3 -80h-337v-61h417v44c0 53 0 137 -21 250c33 -3 67 -6 100 -9l6 57
c-84 12 -175 19 -262 23v114h405v210h-509v100z" />
</svg>
