<?xml version="1.0" standalone="no"?>
<!DOCTYPE svg PUBLIC "-//W3C//DTD SVG 1.1//EN" "http://www.w3.org/Graphics/SVG/1.1/DTD/svg11.dtd" >
<svg xmlns="http://www.w3.org/2000/svg" xmlns:xlink="http://www.w3.org/1999/xlink" version="1.1" viewBox="-10 0 930 1000">
   <path fill="currentColor"
d="M242 797v92c114 0 187 -3 278 -20l7 61c-100 18 -180 20 -311 20h-54v-211h219v-80h-221v-62h147v-115c-83 3 -163 4 -235 4l-12 -69c120 0 261 -1 401 -8c8 -40 13 -77 17 -109l-353 23l-14 -61l371 -17c2 -32 3 -59 3 -82h-349v-61h429v44c0 55 0 142 -22 258
c33 -1 64 -4 95 -7l5 61c-82 11 -169 16 -254 21v118h72v200h-219zM498 660v-63h283v356h-82v-293h-201zM699 58h82v483h-82v-483z" />
</svg>
