<?xml version="1.0" standalone="no"?>
<!DOCTYPE svg PUBLIC "-//W3C//DTD SVG 1.1//EN" "http://www.w3.org/Graphics/SVG/1.1/DTD/svg11.dtd" >
<svg xmlns="http://www.w3.org/2000/svg" xmlns:xlink="http://www.w3.org/1999/xlink" version="1.1" viewBox="-10 0 930 1000">
   <path fill="currentColor"
d="M781 58v483h-82v-483h82zM223 796v93c97 0 158 -2 235 -15l7 58c-88 16 -156 17 -272 17h-47v-209h219v-83h-222v-60h164v-118c-83 3 -164 4 -236 4l-11 -69c121 0 262 -1 402 -8c8 -38 12 -74 15 -105l-352 23l-14 -61l371 -17c2 -32 3 -60 3 -83h-349v-61h429v44
c0 55 0 141 -21 256c32 -2 62 -4 93 -7l6 60c-83 11 -170 17 -254 21v121h53v199h-219zM576 887h222v60h-302v-350h292v61h-212v84h202v55h-202v90z" />
</svg>
