<?xml version="1.0" standalone="no"?>
<!DOCTYPE svg PUBLIC "-//W3C//DTD SVG 1.1//EN" "http://www.w3.org/Graphics/SVG/1.1/DTD/svg11.dtd" >
<svg xmlns="http://www.w3.org/2000/svg" xmlns:xlink="http://www.w3.org/1999/xlink" version="1.1" viewBox="-10 0 930 1000">
   <path fill="currentColor"
d="M781 58v483h-82v-483h82zM269 883h539v62h-621v-349h120v-114c-83 3 -163 4 -235 4l-12 -69c120 0 261 -1 401 -8c8 -40 13 -77 17 -109l-353 23l-14 -61l371 -17c2 -32 3 -59 3 -82h-349v-61h429v44c0 55 0 143 -22 258c33 -1 64 -4 95 -7l5 61c-82 11 -169 16 -254 21
v117h400v62h-520v82h510v59h-510v84z" />
</svg>
