<?xml version="1.0" standalone="no"?>
<!DOCTYPE svg PUBLIC "-//W3C//DTD SVG 1.1//EN" "http://www.w3.org/Graphics/SVG/1.1/DTD/svg11.dtd" >
<svg xmlns="http://www.w3.org/2000/svg" xmlns:xlink="http://www.w3.org/1999/xlink" version="1.1" viewBox="-10 0 930 1000">
   <path fill="currentColor"
d="M857 480h-217v101h131v373h-84v-306h-212v-67h81v-101h-208v101h88v209h-217v95c112 0 186 -4 276 -21l6 66c-99 17 -179 20 -311 20h-55v-221h218v-83h-220v-65h132v-101h-219v-65h607c8 -39 13 -76 15 -109l-532 25l-13 -62l550 -20c2 -33 3 -63 3 -88h-528v-63h613v45
c0 56 0 149 -21 272h117v65z" />
</svg>
