<?xml version="1.0" standalone="no"?>
<!DOCTYPE svg PUBLIC "-//W3C//DTD SVG 1.1//EN" "http://www.w3.org/Graphics/SVG/1.1/DTD/svg11.dtd" >
<svg xmlns="http://www.w3.org/2000/svg" xmlns:xlink="http://www.w3.org/1999/xlink" version="1.1" viewBox="-10 0 930 1000">
   <path fill="currentColor"
d="M493 610v36c0 119 138 213 304 236l-35 68c-135 -23 -256 -87 -311 -183c-57 97 -179 160 -317 182l-32 -67c168 -23 307 -115 307 -237v-35h84zM739 466h119v67h-812v-67h607c7 -48 12 -92 15 -130l-532 26l-14 -67l551 -19c2 -42 3 -77 3 -106h-528v-66h612v43
c0 64 0 170 -21 319z" />
</svg>
