<?xml version="1.0" standalone="no"?>
<!DOCTYPE svg PUBLIC "-//W3C//DTD SVG 1.1//EN" "http://www.w3.org/Graphics/SVG/1.1/DTD/svg11.dtd" >
<svg xmlns="http://www.w3.org/2000/svg" xmlns:xlink="http://www.w3.org/1999/xlink" version="1.1" viewBox="-10 0 930 1000">
   <path fill="currentColor"
d="M781 58v535h-82v-535h82zM630 464l7 59c-187 25 -400 30 -568 31l-11 -68c123 -1 269 -2 409 -10c7 -46 11 -87 14 -124l-361 28l-10 -67l374 -20c2 -39 2 -72 2 -102h-352v-66h432v57c0 69 0 163 -17 289c28 -2 54 -4 81 -7zM151 703v-67h300v321h-81v-254h-219z
M703 626v55c0 85 54 177 158 215l-45 62c-77 -30 -128 -86 -155 -152c-30 68 -84 126 -161 157l-44 -61c109 -43 166 -140 166 -230v-46h81z" />
</svg>
