<?xml version="1.0" standalone="no"?>
<!DOCTYPE svg PUBLIC "-//W3C//DTD SVG 1.1//EN" "http://www.w3.org/Graphics/SVG/1.1/DTD/svg11.dtd" >
<svg xmlns="http://www.w3.org/2000/svg" xmlns:xlink="http://www.w3.org/1999/xlink" version="1.1" viewBox="-10 0 930 1000">
   <path fill="currentColor"
d="M631 417l7 60c-188 22 -399 26 -568 27l-12 -67c123 -1 266 -2 404 -8c6 -43 10 -82 13 -116l-360 26l-13 -65l376 -18c2 -38 2 -71 2 -99h-347v-62h427v56c0 64 0 154 -17 273c29 -2 59 -4 88 -7zM243 790v93c113 0 186 -3 277 -19l7 64c-99 18 -179 20 -310 20h-55
v-219h220v-85h-222v-65h303v211h-220zM498 646v-67h283v373h-83v-306h-200zM699 58h82v469h-82v-469z" />
</svg>
