<?xml version="1.0" standalone="no"?>
<!DOCTYPE svg PUBLIC "-//W3C//DTD SVG 1.1//EN" "http://www.w3.org/Graphics/SVG/1.1/DTD/svg11.dtd" >
<svg xmlns="http://www.w3.org/2000/svg" xmlns:xlink="http://www.w3.org/1999/xlink" version="1.1" viewBox="-10 0 930 1000">
   <path fill="currentColor"
d="M781 58v469h-82v-469h82zM631 417l7 60c-187 22 -399 27 -568 28l-11 -68c124 -1 266 -2 404 -9c6 -42 9 -81 12 -115l-360 26l-12 -65l375 -18c2 -37 2 -70 2 -99h-346v-62h426v57c0 66 0 154 -15 272c28 -2 57 -4 86 -7zM223 789v96c97 0 158 -3 235 -16l7 63
c-88 14 -155 16 -271 16h-48v-219h218v-87h-221v-63h299v210h-219zM575 882h223v64h-302v-367h292v63h-213v88h203v61h-203v91z" />
</svg>
