<?xml version="1.0" standalone="no"?>
<!DOCTYPE svg PUBLIC "-//W3C//DTD SVG 1.1//EN" "http://www.w3.org/Graphics/SVG/1.1/DTD/svg11.dtd" >
<svg xmlns="http://www.w3.org/2000/svg" xmlns:xlink="http://www.w3.org/1999/xlink" version="1.1" viewBox="-10 0 930 1000">
   <path fill="currentColor"
d="M782 58v469h-82v-469h82zM630 417l7 60c-186 22 -398 27 -568 28l-11 -68c123 -1 267 -2 405 -9c6 -42 9 -81 12 -116l-360 27l-13 -64l376 -19c2 -37 2 -70 2 -99h-347v-62h427v57c0 66 0 153 -15 272c28 -2 57 -4 85 -7zM233 790v93c92 0 151 -3 224 -17l8 64
c-84 17 -151 18 -264 18h-48v-215h212v-86h-214v-66h294v209h-212zM614 646v236h67v-236h-67zM747 882h65v66h-325v-66h61v-236h-57v-65h314v65h-58v236z" />
</svg>
