<?xml version="1.0" standalone="no"?>
<!DOCTYPE svg PUBLIC "-//W3C//DTD SVG 1.1//EN" "http://www.w3.org/Graphics/SVG/1.1/DTD/svg11.dtd" >
<svg xmlns="http://www.w3.org/2000/svg" xmlns:xlink="http://www.w3.org/1999/xlink" version="1.1" viewBox="-10 0 930 1000">
   <path fill="currentColor"
d="M630 464l8 59c-188 25 -402 30 -569 31l-12 -68c123 -1 270 -2 410 -10c7 -46 11 -87 14 -125l-361 29l-11 -67l375 -20c2 -39 2 -72 2 -102h-353v-66h433v57c0 68 0 163 -17 288c28 -2 54 -4 81 -6zM271 706v171h426v-171h-426zM186 941v-299h595v299h-595zM699 58h82
v535h-82v-535z" />
</svg>
