<?xml version="1.0" standalone="no"?>
<!DOCTYPE svg PUBLIC "-//W3C//DTD SVG 1.1//EN" "http://www.w3.org/Graphics/SVG/1.1/DTD/svg11.dtd" >
<svg xmlns="http://www.w3.org/2000/svg" xmlns:xlink="http://www.w3.org/1999/xlink" version="1.1" viewBox="-10 0 930 1000">
   <path fill="currentColor"
d="M782 58v535h-82v-535h82zM630 464l8 59c-189 25 -402 30 -569 31l-12 -68c123 -1 269 -2 410 -10c6 -46 11 -87 14 -124l-361 28l-11 -67l375 -20c2 -39 2 -72 2 -102h-353v-66h433v57c0 69 0 163 -17 289c28 -2 54 -4 81 -7zM681 632v37c0 92 68 185 186 222l-42 60
c-87 -30 -150 -89 -182 -161c-27 75 -79 140 -163 175c-83 -34 -136 -99 -163 -173c-33 71 -95 129 -181 159l-41 -60c117 -37 185 -130 185 -222v-37h79v37c0 80 39 164 121 214c81 -50 121 -134 121 -214v-37h80z" />
</svg>
