<?xml version="1.0" standalone="no"?>
<!DOCTYPE svg PUBLIC "-//W3C//DTD SVG 1.1//EN" "http://www.w3.org/Graphics/SVG/1.1/DTD/svg11.dtd" >
<svg xmlns="http://www.w3.org/2000/svg" xmlns:xlink="http://www.w3.org/1999/xlink" version="1.1" viewBox="-10 0 930 1000">
   <path fill="currentColor"
d="M781 57v551h-82v-551h82zM628 464l6 61c-189 26 -402 32 -570 33l-12 -69c126 -1 272 -3 413 -12c9 -48 13 -90 16 -129l-361 28l-10 -67l374 -20c2 -38 2 -71 2 -102v-2h-352v-67h393v1h39v68c0 74 0 164 -18 285c28 -2 54 -5 80 -8zM792 724h-262
c23 85 150 153 296 169l-27 62c-139 -18 -263 -76 -315 -164c-54 83 -176 142 -311 160l-27 -62c140 -16 269 -85 293 -165h-258v-64h611v64z" />
</svg>
