<?xml version="1.0" standalone="no"?>
<!DOCTYPE svg PUBLIC "-//W3C//DTD SVG 1.1//EN" "http://www.w3.org/Graphics/SVG/1.1/DTD/svg11.dtd" >
<svg xmlns="http://www.w3.org/2000/svg" xmlns:xlink="http://www.w3.org/1999/xlink" version="1.1" viewBox="-10 0 930 1000">
   <path fill="currentColor"
d="M781 58v485h-84v-485h84zM109 99h408c0 230 -133 393 -415 472l-32 -67c149 -42 248 -105 304 -185l-296 24l-13 -69l341 -15c11 -30 19 -61 22 -94h-319v-66zM387 881v-118h-161v118h161zM703 588v78c0 84 58 178 157 225l-45 64c-72 -32 -123 -91 -151 -159
c-28 70 -82 129 -159 160l-42 -62v52h-313v-354h76v110h161v-110h76v298c102 -42 159 -134 159 -221v-81h81z" />
</svg>
