<?xml version="1.0" standalone="no"?>
<!DOCTYPE svg PUBLIC "-//W3C//DTD SVG 1.1//EN" "http://www.w3.org/Graphics/SVG/1.1/DTD/svg11.dtd" >
<svg xmlns="http://www.w3.org/2000/svg" xmlns:xlink="http://www.w3.org/1999/xlink" version="1.1" viewBox="-10 0 930 1000">
   <path fill="currentColor"
d="M562 403l8 67c-139 21 -253 25 -414 25h-68v-392h411v67h-330v94h314v63h-314v101c152 0 262 -5 393 -25zM204 788v100c82 0 142 -3 219 -16l8 61c-91 15 -157 16 -261 16h-47v-219h201v-87h-203v-64h284v209h-201zM534 641v250h140v-250h-140zM463 954v-375h282v375
h-282zM879 255v69h-134v213h-84v-479h84v197h134z" />
</svg>
