<?xml version="1.0" standalone="no"?>
<!DOCTYPE svg PUBLIC "-//W3C//DTD SVG 1.1//EN" "http://www.w3.org/Graphics/SVG/1.1/DTD/svg11.dtd" >
<svg xmlns="http://www.w3.org/2000/svg" xmlns:xlink="http://www.w3.org/1999/xlink" version="1.1" viewBox="-10 0 930 1000">
   <path fill="currentColor"
d="M562 403l7 67c-138 21 -251 25 -413 25h-68v-392h410v67h-329v94h314v63h-314v101c153 0 262 -5 393 -25zM199 788v101c85 0 146 -3 223 -17l7 62c-90 15 -158 16 -263 16h-47v-219h202v-87h-204v-64h284v208h-202zM670 885v-116h-145v116h145zM670 707v-127h75v370h-295
v-370h75v127h145zM879 255v69h-134v213h-84v-479h84v197h134z" />
</svg>
