<?xml version="1.0" standalone="no"?>
<!DOCTYPE svg PUBLIC "-//W3C//DTD SVG 1.1//EN" "http://www.w3.org/Graphics/SVG/1.1/DTD/svg11.dtd" >
<svg xmlns="http://www.w3.org/2000/svg" xmlns:xlink="http://www.w3.org/1999/xlink" version="1.1" viewBox="-10 0 930 1000">
   <path fill="currentColor"
d="M562 403l8 67c-138 21 -252 25 -414 25h-68v-392h411v66h-330v95h315v63h-315v101c153 0 263 -5 393 -25zM208 787v98c93 0 151 -3 225 -17l7 64c-85 16 -152 18 -265 18h-47v-218h213v-86h-215v-66h295v207h-213zM590 646v238h71v-238h-71zM727 646v238h61v65h-326v-65
h62v-238h-58v-65h318v65h-57zM744 256h133v65h-133v216h-82v-479h82v198z" />
</svg>
