<?xml version="1.0" standalone="no"?>
<!DOCTYPE svg PUBLIC "-//W3C//DTD SVG 1.1//EN" "http://www.w3.org/Graphics/SVG/1.1/DTD/svg11.dtd" >
<svg xmlns="http://www.w3.org/2000/svg" xmlns:xlink="http://www.w3.org/1999/xlink" version="1.1" viewBox="-10 0 930 1000">
   <path fill="currentColor"
d="M561 404l6 64c-151 22 -274 25 -411 25h-68v-390h411v65h-330v95h314v63h-314v103c131 0 249 -5 392 -25zM474 896c109 0 170 -23 170 -64c0 -42 -61 -64 -170 -64c-110 0 -171 22 -171 64c0 41 61 64 171 64zM474 710c157 0 249 43 249 122s-92 122 -249 122
c-158 0 -250 -43 -250 -122s92 -122 250 -122zM515 518v85h271v64h-625v-64h272v-85h82zM749 261h133v68h-133v223h-82v-494h82v203z" />
</svg>
