<?xml version="1.0" standalone="no"?>
<!DOCTYPE svg PUBLIC "-//W3C//DTD SVG 1.1//EN" "http://www.w3.org/Graphics/SVG/1.1/DTD/svg11.dtd" >
<svg xmlns="http://www.w3.org/2000/svg" xmlns:xlink="http://www.w3.org/1999/xlink" version="1.1" viewBox="-10 0 930 1000">
   <path fill="currentColor"
d="M229 793v95c92 0 157 -3 239 -17l9 62c-95 15 -167 17 -279 17h-49v-214h220v-91h-222v-64h302v212h-220zM173 326v106c119 -1 203 -5 302 -26l7 67c-107 21 -198 25 -331 25h-57v-392h342v64h-263v94h252v62h-252zM737 883v-116h-160v116h160zM737 706v-126h74v368h-308
v-368h74v126h160zM733 58h78v481h-78v-208h-118v203h-78v-460h78v189h118v-205z" />
</svg>
