<?xml version="1.0" standalone="no"?>
<!DOCTYPE svg PUBLIC "-//W3C//DTD SVG 1.1//EN" "http://www.w3.org/Graphics/SVG/1.1/DTD/svg11.dtd" >
<svg xmlns="http://www.w3.org/2000/svg" xmlns:xlink="http://www.w3.org/1999/xlink" version="1.1" viewBox="-10 0 930 1000">
   <path fill="currentColor"
d="M618 357v224h-77v-507h77v215h113v-232h79v531h-79v-231h-113zM474 454l7 66c-102 21 -188 24 -332 24h-57v-426h346v66h-267v110h257v64h-257v119c128 0 209 -4 303 -23zM700 624v39c0 92 67 184 180 221l-40 60c-89 -30 -151 -92 -181 -167c-28 72 -82 141 -166 175
c-84 -32 -138 -98 -165 -172c-32 71 -93 133 -178 164l-41 -60c113 -40 180 -135 180 -221v-39h79v39c0 79 41 161 125 210c84 -52 126 -141 126 -210v-39h81z" />
</svg>
