<?xml version="1.0" standalone="no"?>
<!DOCTYPE svg PUBLIC "-//W3C//DTD SVG 1.1//EN" "http://www.w3.org/Graphics/SVG/1.1/DTD/svg11.dtd" >
<svg xmlns="http://www.w3.org/2000/svg" xmlns:xlink="http://www.w3.org/1999/xlink" version="1.1" viewBox="-10 0 930 1000">
   <path fill="currentColor"
d="M616 359v226h-78v-511h78v218h116v-234h78v531h-78v-230h-116zM475 454l7 67c-107 22 -197 26 -331 26h-57v-427h342v67h-262v110h251v65h-251v117c119 -1 203 -5 301 -25zM818 708h-256c21 90 149 161 291 181l-29 61c-135 -19 -256 -81 -308 -171
c-51 91 -172 152 -308 171l-29 -61c144 -20 271 -89 291 -181h-257v-65h605v65z" />
</svg>
