<?xml version="1.0" standalone="no"?>
<!DOCTYPE svg PUBLIC "-//W3C//DTD SVG 1.1//EN" "http://www.w3.org/Graphics/SVG/1.1/DTD/svg11.dtd" >
<svg xmlns="http://www.w3.org/2000/svg" xmlns:xlink="http://www.w3.org/1999/xlink" version="1.1" viewBox="-10 0 930 1000">
   <path fill="currentColor"
d="M562 403l8 67c-139 21 -253 25 -414 25h-68v-392h410v66h-330v96h315v62h-315v101c153 0 262 -4 394 -25zM204 789v100c82 0 143 -3 220 -16l7 61c-91 16 -158 17 -261 17h-47v-220h200v-87h-202v-64h283v209h-200zM532 642v251h142v-251h-142zM462 955v-375h283v375
h-283zM878 244h-133v108h133v67h-133v111h-84v-472h84v118h133v68z" />
</svg>
