<?xml version="1.0" standalone="no"?>
<!DOCTYPE svg PUBLIC "-//W3C//DTD SVG 1.1//EN" "http://www.w3.org/Graphics/SVG/1.1/DTD/svg11.dtd" >
<svg xmlns="http://www.w3.org/2000/svg" xmlns:xlink="http://www.w3.org/1999/xlink" version="1.1" viewBox="-10 0 930 1000">
   <path fill="currentColor"
d="M562 403l8 67c-139 21 -252 25 -414 25h-68v-392h410v66h-330v96h315v62h-315v101c154 0 262 -4 394 -25zM199 788v100c69 0 139 -3 228 -15l6 62c-105 15 -183 15 -263 15h-47v-219h211v-89h-214v-62h290v208h-211zM537 791v94h220v63h-300v-368h292v63h-212v90h201v58
h-201zM878 244h-133v108h133v67h-133v111h-84v-472h84v118h133v68z" />
</svg>
