<?xml version="1.0" standalone="no"?>
<!DOCTYPE svg PUBLIC "-//W3C//DTD SVG 1.1//EN" "http://www.w3.org/Graphics/SVG/1.1/DTD/svg11.dtd" >
<svg xmlns="http://www.w3.org/2000/svg" xmlns:xlink="http://www.w3.org/1999/xlink" version="1.1" viewBox="-10 0 930 1000">
   <path fill="currentColor"
d="M562 403l8 65c-138 22 -252 26 -414 26h-68v-391h411v66h-329v96h314v62h-314v101c153 0 262 -4 392 -25zM207 787v98c93 0 151 -3 226 -16l7 63c-85 16 -152 17 -265 17h-47v-217h214v-86h-216v-65h295v206h-214zM590 646v238h71v-238h-71zM727 646v238h61v65h-326v-65
h62v-238h-58v-65h319v65h-58zM878 241h-133v111h133v65h-133v113h-83v-472h83v118h133v65z" />
</svg>
