<?xml version="1.0" standalone="no"?>
<!DOCTYPE svg PUBLIC "-//W3C//DTD SVG 1.1//EN" "http://www.w3.org/Graphics/SVG/1.1/DTD/svg11.dtd" >
<svg xmlns="http://www.w3.org/2000/svg" xmlns:xlink="http://www.w3.org/1999/xlink" version="1.1" viewBox="-10 0 930 1000">
   <path fill="currentColor"
d="M559 442l10 65c-143 26 -263 31 -412 31h-69v-425h408v67h-326v108h313v63h-313v120c140 0 254 -6 389 -29zM764 696h-251c15 91 143 171 287 192l-31 63c-131 -21 -247 -85 -299 -173c-50 89 -167 151 -298 173l-30 -63c144 -22 272 -99 285 -192h-249v-66h586v66z
M882 252h-133v125h133v69h-133v132h-82v-520h82v124h133v70z" />
</svg>
