<?xml version="1.0" standalone="no"?>
<!DOCTYPE svg PUBLIC "-//W3C//DTD SVG 1.1//EN" "http://www.w3.org/Graphics/SVG/1.1/DTD/svg11.dtd" >
<svg xmlns="http://www.w3.org/2000/svg" xmlns:xlink="http://www.w3.org/1999/xlink" version="1.1" viewBox="-10 0 930 1000">
   <path fill="currentColor"
d="M562 406l8 65c-138 22 -253 26 -414 26h-68v-394h411v67h-330v95h314v63h-314v104c153 0 263 -5 393 -26zM774 719h-250c24 85 144 156 282 175l-30 61c-132 -21 -248 -82 -300 -170c-51 89 -169 153 -300 174l-30 -62c137 -20 259 -93 283 -178h-253v-64h259v-94h82v94
h257v64zM878 247h-131v108h131v67h-131v167h-82v-532h82v122h131v68z" />
</svg>
