<?xml version="1.0" standalone="no"?>
<!DOCTYPE svg PUBLIC "-//W3C//DTD SVG 1.1//EN" "http://www.w3.org/Graphics/SVG/1.1/DTD/svg11.dtd" >
<svg xmlns="http://www.w3.org/2000/svg" xmlns:xlink="http://www.w3.org/1999/xlink" version="1.1" viewBox="-10 0 930 1000">
   <path fill="currentColor"
d="M734 258h-120v131h120v-131zM614 458v128h-77v-512h77v115h120v-132h78v534h-78v-133h-120zM474 460l7 67c-107 21 -197 26 -330 26h-57v-432h342v67h-262v111h251v65h-251v122c119 -1 202 -5 300 -26zM442 813l22 74c-71 43 -173 52 -250 52h-46v-292h80v215
c62 -3 147 -15 194 -49zM693 700v7c0 90 60 165 169 194l-41 59c-84 -26 -142 -77 -170 -144c-30 68 -90 123 -175 150l-42 -62c113 -33 175 -114 175 -199v-5h-150v-68h383v68h-149z" />
</svg>
