<?xml version="1.0" standalone="no"?>
<!DOCTYPE svg PUBLIC "-//W3C//DTD SVG 1.1//EN" "http://www.w3.org/Graphics/SVG/1.1/DTD/svg11.dtd" >
<svg xmlns="http://www.w3.org/2000/svg" xmlns:xlink="http://www.w3.org/1999/xlink" version="1.1" viewBox="-10 0 930 1000">
   <path fill="currentColor"
d="M734 244h-120v110h120v-110zM614 422v110h-77v-458h77v102h120v-118h77v478h-77v-114h-120zM475 407l7 66c-107 21 -197 26 -331 26h-57v-393h342v64h-262v94h251v62h-251v106c119 -1 202 -5 301 -25zM299 886h537v64h-622v-217h513v-90h-515v-63h599v212h-512v94z" />
</svg>
