<?xml version="1.0" standalone="no"?>
<!DOCTYPE svg PUBLIC "-//W3C//DTD SVG 1.1//EN" "http://www.w3.org/Graphics/SVG/1.1/DTD/svg11.dtd" >
<svg xmlns="http://www.w3.org/2000/svg" xmlns:xlink="http://www.w3.org/1999/xlink" version="1.1" viewBox="-10 0 930 1000">
   <path fill="currentColor"
d="M734 244h-120v111h120v-111zM614 422v110h-77v-458h77v102h120v-118h78v478h-78v-114h-120zM238 788v97c95 0 155 -4 230 -17l8 64c-86 16 -154 17 -269 17h-49v-216h220v-86h-222v-65h302v206h-220zM173 327v105c119 -1 203 -5 302 -25l7 65c-107 22 -198 25 -331 25
h-57v-391h342v66h-263v91h252v64h-252zM629 646v238h71v-238h-71zM766 884h64v65h-332v-65h65v-238h-61v-65h325v65h-61v238z" />
</svg>
