<?xml version="1.0" standalone="no"?>
<!DOCTYPE svg PUBLIC "-//W3C//DTD SVG 1.1//EN" "http://www.w3.org/Graphics/SVG/1.1/DTD/svg11.dtd" >
<svg xmlns="http://www.w3.org/2000/svg" xmlns:xlink="http://www.w3.org/1999/xlink" version="1.1" viewBox="-10 0 930 1000">
   <path fill="currentColor"
d="M734 244h-120v110h120v-110zM614 422v104h-77v-452h77v102h120v-118h77v472h-77v-108h-120zM475 407l7 66c-107 21 -198 26 -331 26h-57v-394h343v65h-262v94h250v62h-250v106c118 -1 201 -5 300 -25zM289 884h548v61h-631v-364h612v62h-529v90h518v60h-518v91z" />
</svg>
