<?xml version="1.0" standalone="no"?>
<!DOCTYPE svg PUBLIC "-//W3C//DTD SVG 1.1//EN" "http://www.w3.org/Graphics/SVG/1.1/DTD/svg11.dtd" >
<svg xmlns="http://www.w3.org/2000/svg" xmlns:xlink="http://www.w3.org/1999/xlink" version="1.1" viewBox="-10 0 930 1000">
   <path fill="currentColor"
d="M701 591v-227h-169v-70h169v-237h84v534h-84zM537 470l8 67c-132 21 -240 24 -392 24h-67v-444h397v67h-315v117h297v62h-297v131c142 0 246 -5 369 -24zM419 809l22 75c-70 42 -172 51 -249 51h-47v-292h80v215c62 -3 147 -16 194 -49zM665 695v11c0 91 60 165 166 194
l-42 60c-81 -26 -136 -76 -165 -143c-29 69 -88 123 -172 150l-42 -63c111 -33 173 -114 173 -200v-9h-147v-67h374v67h-145z" />
</svg>
