<?xml version="1.0" standalone="no"?>
<!DOCTYPE svg PUBLIC "-//W3C//DTD SVG 1.1//EN" "http://www.w3.org/Graphics/SVG/1.1/DTD/svg11.dtd" >
<svg xmlns="http://www.w3.org/2000/svg" xmlns:xlink="http://www.w3.org/1999/xlink" version="1.1" viewBox="-10 0 930 1000">
   <path fill="currentColor"
d="M709 605v-244h-172v-68h172v-235h83v547h-83zM547 464l7 66c-118 21 -216 25 -389 25h-67v-436h401v67h-319v113h295v65h-295v124c162 0 255 -5 367 -24zM495 889c137 0 218 -37 218 -101c0 -62 -81 -100 -217 -100s-217 38 -217 100c0 64 81 101 216 101zM496 625
c185 0 298 59 298 163c0 105 -113 165 -298 165s-299 -60 -299 -165c0 -104 114 -163 299 -163z" />
</svg>
