<?xml version="1.0" standalone="no"?>
<!DOCTYPE svg PUBLIC "-//W3C//DTD SVG 1.1//EN" "http://www.w3.org/Graphics/SVG/1.1/DTD/svg11.dtd" >
<svg xmlns="http://www.w3.org/2000/svg" xmlns:xlink="http://www.w3.org/1999/xlink" version="1.1" viewBox="-10 0 930 1000">
   <path fill="currentColor"
d="M561 530v-211h-128v-68h128v-175h78v454h-78zM458 413l8 65c-104 21 -189 26 -317 26h-56v-401h330v64h-249v97h223v64h-223v110c111 -1 190 -5 284 -25zM233 793v96c91 0 155 -3 237 -16l8 60c-94 16 -166 17 -277 17h-48v-214h218v-91h-220v-64h300v212h-218zM578 643
v249h162v-249h-162zM507 955v-374h304v374h-304zM733 58h78v481h-78v-481z" />
</svg>
