<?xml version="1.0" standalone="no"?>
<!DOCTYPE svg PUBLIC "-//W3C//DTD SVG 1.1//EN" "http://www.w3.org/Graphics/SVG/1.1/DTD/svg11.dtd" >
<svg xmlns="http://www.w3.org/2000/svg" xmlns:xlink="http://www.w3.org/1999/xlink" version="1.1" viewBox="-10 0 930 1000">
   <path fill="currentColor"
d="M811 58v507h-78v-507h78zM561 557v-222h-128v-68h128v-190h79v480h-79zM457 435l10 68c-104 22 -189 26 -317 26h-56v-416h328v66h-248v101h222v67h-222v113c111 0 191 -5 283 -25zM405 884v-117h-160v117h160zM726 597v68c0 84 57 181 158 228l-44 64
c-72 -33 -123 -92 -152 -159c-29 70 -83 128 -161 160l-45 -64v53h-314v-346h77v105h160v-105h77v292c105 -43 163 -134 163 -224v-72h81z" />
</svg>
