<?xml version="1.0" standalone="no"?>
<!DOCTYPE svg PUBLIC "-//W3C//DTD SVG 1.1//EN" "http://www.w3.org/Graphics/SVG/1.1/DTD/svg11.dtd" >
<svg xmlns="http://www.w3.org/2000/svg" xmlns:xlink="http://www.w3.org/1999/xlink" version="1.1" viewBox="-10 0 930 1000">
   <path fill="currentColor"
d="M701 604v-150h-188v-66h188v-119h-187v-66h187v-146h85v547h-85zM521 473l8 69c-126 21 -230 24 -378 24h-65v-449h397v69h-315v116h298v64h-298v130c136 0 235 -4 353 -23zM143 703v-68h301v322h-82v-254h-219zM699 629v51c0 86 54 178 159 215l-45 63
c-78 -30 -129 -86 -156 -153c-31 68 -86 126 -163 157l-45 -62c110 -41 168 -138 168 -226v-45h82z" />
</svg>
