<?xml version="1.0" standalone="no"?>
<!DOCTYPE svg PUBLIC "-//W3C//DTD SVG 1.1//EN" "http://www.w3.org/Graphics/SVG/1.1/DTD/svg11.dtd" >
<svg xmlns="http://www.w3.org/2000/svg" xmlns:xlink="http://www.w3.org/1999/xlink" version="1.1" viewBox="-10 0 930 1000">
   <path fill="currentColor"
d="M701 599v-145h-188v-66h188v-119h-187v-66h187v-146h85v542h-85zM521 473l8 69c-127 21 -230 24 -378 24h-65v-449h397v68h-315v117h298v64h-298v130c136 0 235 -4 353 -23zM420 813l19 75c-69 42 -171 52 -247 52h-47v-289h80v212c62 -3 147 -16 195 -50zM665 704v2
c0 91 60 165 166 194l-42 59c-81 -26 -136 -76 -165 -142c-29 68 -88 122 -172 149l-42 -63c111 -33 173 -114 173 -199h-147v-68h374v68h-145z" />
</svg>
