<?xml version="1.0" standalone="no"?>
<!DOCTYPE svg PUBLIC "-//W3C//DTD SVG 1.1//EN" "http://www.w3.org/Graphics/SVG/1.1/DTD/svg11.dtd" >
<svg xmlns="http://www.w3.org/2000/svg" xmlns:xlink="http://www.w3.org/1999/xlink" version="1.1" viewBox="-10 0 930 1000">
   <path fill="currentColor"
d="M701 534v-125h-173v-67h173v-103h-173v-67h173v-114h85v476h-85zM527 412l8 67c-127 20 -232 24 -383 24h-65v-403h404v66h-322v98h303v63h-303v109c140 0 240 -5 358 -24zM704 575v87c0 97 50 190 154 233l-45 61c-74 -33 -123 -90 -149 -159c-27 73 -78 131 -155 164
l-41 -55l4 27c-81 16 -144 17 -271 17h-48v-218h219v-88h-221v-63h300v210h-219v95c103 0 160 -2 230 -17l5 30c105 -43 156 -139 156 -242v-82h81z" />
</svg>
