<?xml version="1.0" standalone="no"?>
<!DOCTYPE svg PUBLIC "-//W3C//DTD SVG 1.1//EN" "http://www.w3.org/Graphics/SVG/1.1/DTD/svg11.dtd" >
<svg xmlns="http://www.w3.org/2000/svg" xmlns:xlink="http://www.w3.org/1999/xlink" version="1.1" viewBox="-10 0 930 1000">
   <path fill="currentColor"
d="M701 623v-180h-174v-64h174v-102h-174v-67h174v-152h85v565h-85zM521 477l8 69c-127 20 -231 23 -378 23h-65v-450h397v68h-315v117h297v64h-297v132c136 0 235 -4 353 -23zM533 617v32c0 120 145 224 307 249l-38 69c-131 -24 -254 -95 -310 -194
c-59 99 -184 171 -317 195l-36 -70c164 -24 311 -131 311 -250v-31h83z" />
</svg>
