<?xml version="1.0" standalone="no"?>
<!DOCTYPE svg PUBLIC "-//W3C//DTD SVG 1.1//EN" "http://www.w3.org/Graphics/SVG/1.1/DTD/svg11.dtd" >
<svg xmlns="http://www.w3.org/2000/svg" xmlns:xlink="http://www.w3.org/1999/xlink" version="1.1" viewBox="-10 0 930 1000">
   <path fill="currentColor"
d="M567 541v-133h-123v-64h123v-99h-123v-65h123v-107h78v468h-78zM456 414l7 65c-99 20 -179 24 -314 24h-55v-399h326v63h-246v97h221v64h-221v110c116 -1 192 -5 282 -24zM250 790v97c118 0 193 -4 287 -20l7 63c-104 18 -185 20 -322 20h-55v-220h227v-85h-229v-65h313
v210h-228zM517 647v-67h294v373h-84v-306h-210zM733 58h79v486h-79v-486z" />
</svg>
