<?xml version="1.0" standalone="no"?>
<!DOCTYPE svg PUBLIC "-//W3C//DTD SVG 1.1//EN" "http://www.w3.org/Graphics/SVG/1.1/DTD/svg11.dtd" >
<svg xmlns="http://www.w3.org/2000/svg" xmlns:xlink="http://www.w3.org/1999/xlink" version="1.1" viewBox="-10 0 930 1000">
   <path fill="currentColor"
d="M812 58v486h-79v-486h79zM563 541v-133h-119v-64h119v-99h-119v-65h119v-107h77v468h-77zM456 414l7 65c-99 20 -179 24 -314 24h-55v-399h326v63h-246v97h221v64h-221v110c116 -1 192 -5 282 -24zM714 575v87c0 97 49 189 152 232l-45 61c-74 -32 -122 -88 -147 -157
c-27 72 -78 130 -154 163l-39 -52l3 24c-80 17 -143 18 -270 18h-48v-219h218v-87h-220v-63h300v209h-218v95c103 0 159 -3 230 -17l3 29c104 -43 154 -139 154 -241v-82h81z" />
</svg>
