<?xml version="1.0" standalone="no"?>
<!DOCTYPE svg PUBLIC "-//W3C//DTD SVG 1.1//EN" "http://www.w3.org/Graphics/SVG/1.1/DTD/svg11.dtd" >
<svg xmlns="http://www.w3.org/2000/svg" xmlns:xlink="http://www.w3.org/1999/xlink" version="1.1" viewBox="-10 0 930 1000">
   <path fill="currentColor"
d="M812 58v487h-79v-487h79zM563 541v-133h-119v-64h119v-100h-119v-64h119v-107h77v468h-77zM455 414l7 64c-99 20 -179 23 -315 23h-54v-63h1v-335h326v65h-246v96h221v63h-221v111c116 -1 191 -5 281 -24zM238 788v97c95 0 155 -4 230 -17l8 64c-86 16 -154 17 -269 17
h-49v-216h220v-86h-222v-66h302v207h-220zM629 647v237h71v-237h-71zM766 884h63v66h-331v-66h65v-237h-61v-65h323v65h-59v237z" />
</svg>
