<?xml version="1.0" standalone="no"?>
<!DOCTYPE svg PUBLIC "-//W3C//DTD SVG 1.1//EN" "http://www.w3.org/Graphics/SVG/1.1/DTD/svg11.dtd" >
<svg xmlns="http://www.w3.org/2000/svg" xmlns:xlink="http://www.w3.org/1999/xlink" version="1.1" viewBox="-10 0 930 1000">
   <path fill="currentColor"
d="M810 58v566h-79v-566h79zM558 589v-147h-117v-66h117v-110h-116v-66h116v-128h78v517h-78zM458 464l9 67c-104 21 -189 25 -317 25h-56v-437h328v66h-248v111h222v66h-222v126c112 -1 191 -5 284 -24zM514 889c135 0 219 -35 219 -96c0 -60 -84 -96 -219 -96
c-134 0 -218 36 -218 96c0 61 84 96 218 96zM514 634c186 0 300 58 300 159c0 102 -114 160 -300 160c-185 0 -299 -58 -299 -160c0 -101 114 -159 299 -159z" />
</svg>
