<?xml version="1.0" standalone="no"?>
<!DOCTYPE svg PUBLIC "-//W3C//DTD SVG 1.1//EN" "http://www.w3.org/Graphics/SVG/1.1/DTD/svg11.dtd" >
<svg xmlns="http://www.w3.org/2000/svg" xmlns:xlink="http://www.w3.org/1999/xlink" version="1.1" viewBox="-10 0 930 1000">
   <path fill="currentColor"
d="M212 805v85c73 -1 143 -2 230 -15l8 60c-105 14 -184 15 -272 15h-47v-200h212v-83h-214v-62h295v200h-212zM703 886v-110h-152v110h152zM703 715v-111h76v343h-304v-343h76v111h152zM494 481h364v61h-812v-61h364v-74h-261v-329h605v61h-520v75h498v54h-498v79h525v60
h-265v74z" />
</svg>
