<?xml version="1.0" standalone="no"?>
<!DOCTYPE svg PUBLIC "-//W3C//DTD SVG 1.1//EN" "http://www.w3.org/Graphics/SVG/1.1/DTD/svg11.dtd" >
<svg xmlns="http://www.w3.org/2000/svg" xmlns:xlink="http://www.w3.org/1999/xlink" version="1.1" viewBox="-10 0 930 1000">
   <path fill="currentColor"
d="M363 883v-93h-160v93h160zM363 639h77v308h-314v-308h77v94h160v-94zM683 635v43c0 79 58 170 156 212l-44 64c-71 -31 -122 -87 -151 -152c-28 68 -82 123 -158 153l-46 -65c102 -38 162 -125 162 -211v-44h81zM494 515h364v66h-812v-66h364v-89h-261v-346h605v64h-520
v78h498v61h-498v81h525v62h-265v89z" />
</svg>
