<?xml version="1.0" standalone="no"?>
<!DOCTYPE svg PUBLIC "-//W3C//DTD SVG 1.1//EN" "http://www.w3.org/Graphics/SVG/1.1/DTD/svg11.dtd" >
<svg xmlns="http://www.w3.org/2000/svg" xmlns:xlink="http://www.w3.org/1999/xlink" version="1.1" viewBox="-10 0 930 1000">
   <path fill="currentColor"
d="M610 470l7 58c-179 24 -392 32 -556 33l-11 -66c75 0 159 -2 243 -5v-80h-171v-313h424v57h-341v69h328v55h-328v72h346v60h-173v76c80 -4 160 -9 232 -16zM219 811v78c112 0 183 -3 273 -19l8 60c-100 17 -178 20 -308 20h-54v-195h214v-72h-216v-61h297v189h-214z
M472 687v-65h278v331h-84v-266h-194zM881 288v69h-131v212h-83v-511h83v230h131z" />
</svg>
