<?xml version="1.0" standalone="no"?>
<!DOCTYPE svg PUBLIC "-//W3C//DTD SVG 1.1//EN" "http://www.w3.org/Graphics/SVG/1.1/DTD/svg11.dtd" >
<svg xmlns="http://www.w3.org/2000/svg" xmlns:xlink="http://www.w3.org/1999/xlink" version="1.1" viewBox="-10 0 930 1000">
   <path fill="currentColor"
d="M611 470l6 59c-179 25 -391 33 -556 34l-11 -68c75 0 160 -2 245 -5v-80h-173v-313h424v57h-342v69h329v55h-329v72h347v60h-174v76c80 -4 161 -8 234 -16zM215 804v84c92 0 151 -3 224 -16l8 61c-85 16 -150 17 -264 17h-47v-11h-1v-186h211v-72h-213v-62h293v185h-211z
M594 684v200h72v-200h-72zM732 684v200h63v65h-327v-65h60v-200h-56v-65h314v65h-54zM750 290h131v65h-131v218h-83v-515h83v232z" />
</svg>
