<?xml version="1.0" standalone="no"?>
<!DOCTYPE svg PUBLIC "-//W3C//DTD SVG 1.1//EN" "http://www.w3.org/Graphics/SVG/1.1/DTD/svg11.dtd" >
<svg xmlns="http://www.w3.org/2000/svg" xmlns:xlink="http://www.w3.org/1999/xlink" version="1.1" viewBox="-10 0 930 1000">
   <path fill="currentColor"
d="M611 510l4 57c-186 27 -392 31 -555 31l-10 -66c74 0 159 0 244 -3v-88h-174v-340h433v62h-350v76h335v59h-335v80h358v63h-183v85c79 -3 159 -7 233 -16zM771 736h-250c21 79 149 138 293 152l-26 62c-138 -15 -264 -68 -315 -151c-52 82 -177 137 -316 151l-26 -62
c143 -15 274 -73 295 -152h-253v-65h598v65zM750 300h130v70h-130v255h-83v-567h83v242z" />
</svg>
