<?xml version="1.0" standalone="no"?>
<!DOCTYPE svg PUBLIC "-//W3C//DTD SVG 1.1//EN" "http://www.w3.org/Graphics/SVG/1.1/DTD/svg11.dtd" >
<svg xmlns="http://www.w3.org/2000/svg" xmlns:xlink="http://www.w3.org/1999/xlink" version="1.1" viewBox="-10 0 930 1000">
   <path fill="currentColor"
d="M611 470l6 58c-179 24 -392 32 -556 33l-11 -66c75 0 159 -2 243 -5v-80h-171v-313h424v57h-341v69h328v55h-328v72h346v60h-173v76c80 -4 160 -9 233 -16zM257 813v73h515v61h-599v-325h581v60h-497v75h487v56h-487zM750 288h131v69h-131v212h-83v-511h83v230z" />
</svg>
