<?xml version="1.0" standalone="no"?>
<!DOCTYPE svg PUBLIC "-//W3C//DTD SVG 1.1//EN" "http://www.w3.org/Graphics/SVG/1.1/DTD/svg11.dtd" >
<svg xmlns="http://www.w3.org/2000/svg" xmlns:xlink="http://www.w3.org/1999/xlink" version="1.1" viewBox="-10 0 930 1000">
   <path fill="currentColor"
d="M172 727v-67h305v295h-83v-228h-222zM330 439v80c64 -2 128 -7 182 -13l7 61c-139 22 -329 30 -454 30l-10 -70c56 0 124 -2 195 -4v-84h-149v-334h366v61h-284v74h270v58h-270v80h290v61h-143zM521 727v-67h296v295h-82v-228h-214zM738 58h80v560h-80v-232h-107v220h-78
v-533h78v245h107v-260z" />
</svg>
