<?xml version="1.0" standalone="no"?>
<!DOCTYPE svg PUBLIC "-//W3C//DTD SVG 1.1//EN" "http://www.w3.org/Graphics/SVG/1.1/DTD/svg11.dtd" >
<svg xmlns="http://www.w3.org/2000/svg" xmlns:xlink="http://www.w3.org/1999/xlink" version="1.1" viewBox="-10 0 930 1000">
   <path fill="currentColor"
d="M631 374v204h-78v-505h78v233h107v-249h80v533h-80v-216h-107zM514 488l5 59c-139 20 -327 29 -453 29l-11 -67c56 0 124 -1 195 -4v-82h-149v-322h367v58h-285v74h271v53h-271v79h291v58h-144v79c66 -3 129 -8 184 -14zM236 649v222c57 -2 130 -10 195 -33l14 67
c-89 29 -176 34 -245 34h-45v-290h81zM636 910c55 0 94 -18 94 -49s-39 -49 -94 -49s-93 18 -93 49s38 49 93 49zM636 758c96 0 166 40 166 103s-70 103 -166 103s-166 -40 -166 -103s70 -103 166 -103zM676 664h180v61h-439v-61h179v-68h80v68z" />
</svg>
