<?xml version="1.0" standalone="no"?>
<!DOCTYPE svg PUBLIC "-//W3C//DTD SVG 1.1//EN" "http://www.w3.org/Graphics/SVG/1.1/DTD/svg11.dtd" >
<svg xmlns="http://www.w3.org/2000/svg" xmlns:xlink="http://www.w3.org/1999/xlink" version="1.1" viewBox="-10 0 930 1000">
   <path fill="currentColor"
d="M631 351v202h-78v-481h78v211h108v-225h78v501h-78v-208h-108zM512 462l5 57c-139 21 -327 28 -452 29l-11 -66c56 0 125 -1 196 -3v-75h-146v-303h367v58h-285v65h271v53h-271v70h290v57h-148v71c66 -2 129 -7 184 -13zM291 887h553v61h-638v-212h527v-79h-529v-60h614
v196h-527v94z" />
</svg>
