<?xml version="1.0" standalone="no"?>
<!DOCTYPE svg PUBLIC "-//W3C//DTD SVG 1.1//EN" "http://www.w3.org/Graphics/SVG/1.1/DTD/svg11.dtd" >
<svg xmlns="http://www.w3.org/2000/svg" xmlns:xlink="http://www.w3.org/1999/xlink" version="1.1" viewBox="-10 0 930 1000">
   <path fill="currentColor"
d="M782 57v559h-83v-559h83zM627 501l8 62c-186 25 -400 33 -571 35l-11 -72c78 0 163 -1 248 -4v-81h-174v-340h437v62h-353v76h338v59h-338v80h360v63h-186v77c84 -4 166 -9 242 -17zM146 730v-68h305v296h-82v-228h-223zM703 652v34c0 84 55 174 158 210l-45 64
c-77 -30 -128 -86 -155 -152c-30 67 -84 124 -161 154l-45 -61c109 -41 166 -136 166 -222v-27h82z" />
</svg>
