<?xml version="1.0" standalone="no"?>
<!DOCTYPE svg PUBLIC "-//W3C//DTD SVG 1.1//EN" "http://www.w3.org/Graphics/SVG/1.1/DTD/svg11.dtd" >
<svg xmlns="http://www.w3.org/2000/svg" xmlns:xlink="http://www.w3.org/1999/xlink" version="1.1" viewBox="-10 0 930 1000">
   <path fill="currentColor"
d="M781 58v511h-82v-511h82zM629 464l6 59c-185 23 -401 33 -571 33l-10 -66c77 0 162 -1 249 -5v-75h-176v-313h430v57h-346v69h334v55h-334v71h353v61h-177v72c84 -5 166 -10 242 -18zM223 806v84c95 -1 155 -3 230 -16l9 60c-88 14 -155 16 -272 16h-47v-199h208v-83
h-211v-63h292v201h-209zM706 890v-115h-146v115h146zM706 604h76v347h-297v-347h75v111h146v-111z" />
</svg>
