<?xml version="1.0" standalone="no"?>
<!DOCTYPE svg PUBLIC "-//W3C//DTD SVG 1.1//EN" "http://www.w3.org/Graphics/SVG/1.1/DTD/svg11.dtd" >
<svg xmlns="http://www.w3.org/2000/svg" xmlns:xlink="http://www.w3.org/1999/xlink" version="1.1" viewBox="-10 0 930 1000">
   <path fill="currentColor"
d="M627 501l8 62c-186 25 -400 33 -571 35l-11 -72c78 0 163 -1 248 -4v-81h-174v-340h437v62h-353v76h338v59h-338v80h360v63h-186v77c84 -3 166 -9 242 -17zM169 730v-62h612v287h-83v-99l-537 24l-12 -64l549 -18v-68h-529zM699 58h83v559h-83v-559z" />
</svg>
