<?xml version="1.0" standalone="no"?>
<!DOCTYPE svg PUBLIC "-//W3C//DTD SVG 1.1//EN" "http://www.w3.org/Graphics/SVG/1.1/DTD/svg11.dtd" >
<svg xmlns="http://www.w3.org/2000/svg" xmlns:xlink="http://www.w3.org/1999/xlink" version="1.1" viewBox="-10 0 930 1000">
   <path fill="currentColor"
d="M783 732h-148c11 78 70 142 169 167l-41 60c-77 -23 -133 -67 -163 -127c-33 61 -92 108 -172 132l-38 -59c-71 30 -159 38 -217 38h-47v-263h80v186c57 -4 142 -16 191 -48l23 73l-1 1c84 -32 136 -94 142 -160h-148v-66h370v66zM345 447v81h214v-81h-214zM643 528h217
v65h-814v-65h216v-81h-113v-357h605v63h-521v84h499v61h-499v85h526v64h-116v81z" />
</svg>
