<?xml version="1.0" standalone="no"?>
<!DOCTYPE svg PUBLIC "-//W3C//DTD SVG 1.1//EN" "http://www.w3.org/Graphics/SVG/1.1/DTD/svg11.dtd" >
<svg xmlns="http://www.w3.org/2000/svg" xmlns:xlink="http://www.w3.org/1999/xlink" version="1.1" viewBox="-10 0 930 1000">
   <path fill="currentColor"
d="M216 804v86c72 0 141 -2 228 -15l9 60c-106 14 -184 15 -272 15h-47v-200h211v-83h-213v-62h295v199h-211zM555 665v229h152v-229h-152zM482 954v-349h297v349h-297zM351 406v80h200v-80h-200zM635 486h225v61h-814v-61h223v-80h-120v-328h605v61h-520v75h497v54h-497v79
h525v59h-124v80z" />
</svg>
