<?xml version="1.0" standalone="no"?>
<!DOCTYPE svg PUBLIC "-//W3C//DTD SVG 1.1//EN" "http://www.w3.org/Graphics/SVG/1.1/DTD/svg11.dtd" >
<svg xmlns="http://www.w3.org/2000/svg" xmlns:xlink="http://www.w3.org/1999/xlink" version="1.1" viewBox="-10 0 930 1000">
   <path fill="currentColor"
d="M208 803v86c85 0 153 -3 240 -15l6 59c-101 15 -176 17 -276 17h-49v-201h222v-82h-224v-61h303v197h-222zM556 802v85h235v61h-314v-343h306v61h-227v81h217v55h-217zM352 406v80h199v-80h-199zM635 486h225v61h-814v-61h223v-80h-120v-327h605v60h-520v75h497v54h-497
v79h525v59h-124v80z" />
</svg>
