<?xml version="1.0" standalone="no"?>
<!DOCTYPE svg PUBLIC "-//W3C//DTD SVG 1.1//EN" "http://www.w3.org/Graphics/SVG/1.1/DTD/svg11.dtd" >
<svg xmlns="http://www.w3.org/2000/svg" xmlns:xlink="http://www.w3.org/1999/xlink" version="1.1" viewBox="-10 0 930 1000">
   <path fill="currentColor"
d="M208 800v88c93 0 151 -3 226 -17l7 62c-84 15 -151 17 -265 17h-47v-203h216v-77h-218v-62h297v192h-216zM588 673v212h76v-212h-76zM730 673v212h62v65h-328v-65h59v-212h-54v-65h315v65h-54zM352 406v80h200v-80h-200zM634 486h226v65h-814v-65h224v-80h-121v-327h605
v60h-520v75h498v54h-498v79h525v59h-125v80z" />
</svg>
