<?xml version="1.0" standalone="no"?>
<!DOCTYPE svg PUBLIC "-//W3C//DTD SVG 1.1//EN" "http://www.w3.org/Graphics/SVG/1.1/DTD/svg11.dtd" >
<svg xmlns="http://www.w3.org/2000/svg" xmlns:xlink="http://www.w3.org/1999/xlink" version="1.1" viewBox="-10 0 930 1000">
   <path fill="currentColor"
d="M759 383v63h-610v-356h605v63h-521v83h499v60h-499v87h526zM860 584h-366v84h289v65h-143c6 82 65 143 163 166l-40 59c-81 -23 -136 -68 -164 -130c-30 62 -89 112 -171 137l-36 -55c-76 28 -160 34 -220 34h-47v-262h80v187c57 -3 136 -13 194 -42l18 67
c85 -33 135 -94 141 -161h-145v-36h-3v-113h-364v-67h814v67z" />
</svg>
