<?xml version="1.0" standalone="no"?>
<!DOCTYPE svg PUBLIC "-//W3C//DTD SVG 1.1//EN" "http://www.w3.org/Graphics/SVG/1.1/DTD/svg11.dtd" >
<svg xmlns="http://www.w3.org/2000/svg" xmlns:xlink="http://www.w3.org/1999/xlink" version="1.1" viewBox="-10 0 930 1000">
   <path fill="currentColor"
d="M759 339v59h-610v-318h607v60h-522v70h498v55h-498v74h525zM551 777v109h152v-109h-152zM858 530h-365v74h58v112h152v-112h75v344h-303v-310h-52v167h-212v85c74 0 144 -2 232 -15l7 60c-105 14 -184 15 -272 15h-47v-199h211v-83h-213v-61h281v-77h-364v-62h812v62z
" />
</svg>
