<?xml version="1.0" standalone="no"?>
<!DOCTYPE svg PUBLIC "-//W3C//DTD SVG 1.1//EN" "http://www.w3.org/Graphics/SVG/1.1/DTD/svg11.dtd" >
<svg xmlns="http://www.w3.org/2000/svg" xmlns:xlink="http://www.w3.org/1999/xlink" version="1.1" viewBox="-10 0 930 1000">
   <path fill="currentColor"
d="M759 339v59h-610v-318h607v60h-522v70h498v55h-498v74h525zM425 801h-219v88c103 0 160 -3 230 -17l4 29c105 -43 157 -140 157 -243v-57h80v59c0 98 49 190 152 234l-44 61c-73 -32 -121 -88 -148 -158c-27 75 -77 133 -153 165l-43 -55l4 26c-80 17 -143 17 -271 17
h-48v-204h220v-78h-222v-61h286v-77h-364v-62h812v62h-365v108h-68v163z" />
</svg>
