<?xml version="1.0" standalone="no"?>
<!DOCTYPE svg PUBLIC "-//W3C//DTD SVG 1.1//EN" "http://www.w3.org/Graphics/SVG/1.1/DTD/svg11.dtd" >
<svg xmlns="http://www.w3.org/2000/svg" xmlns:xlink="http://www.w3.org/1999/xlink" version="1.1" viewBox="-10 0 930 1000">
   <path fill="currentColor"
d="M759 357v61h-610v-335h605v62h-520v73h498v61h-498v78h525zM364 884v-90h-160v90h160zM494 665h-53v225c102 -39 160 -126 160 -210v-44h81v43c0 79 58 171 157 212l-44 63c-72 -31 -123 -86 -151 -150c-29 67 -83 122 -159 152l-44 -62v54h-315v-308h78v93h160v-93h46
v-84h-364v-66h812v66h-364v109z" />
</svg>
