<?xml version="1.0" standalone="no"?>
<!DOCTYPE svg PUBLIC "-//W3C//DTD SVG 1.1//EN" "http://www.w3.org/Graphics/SVG/1.1/DTD/svg11.dtd" >
<svg xmlns="http://www.w3.org/2000/svg" xmlns:xlink="http://www.w3.org/1999/xlink" version="1.1" viewBox="-10 0 930 1000">
   <path fill="currentColor"
d="M759 339v59h-610v-318h605v60h-520v70h498v55h-498v74h525zM771 730h-274c22 88 150 161 298 180l-29 61c-137 -19 -260 -80 -314 -167c-54 88 -178 150 -314 169l-29 -61c149 -19 276 -94 298 -182h-273v-61h277v-58h82v58h278v61zM46 468h812v61h-365v65h-82v-65h-365
v-61z" />
</svg>
