<?xml version="1.0" standalone="no"?>
<!DOCTYPE svg PUBLIC "-//W3C//DTD SVG 1.1//EN" "http://www.w3.org/Graphics/SVG/1.1/DTD/svg11.dtd" >
<svg xmlns="http://www.w3.org/2000/svg" xmlns:xlink="http://www.w3.org/1999/xlink" version="1.1" viewBox="-10 0 930 1000">
   <path fill="currentColor"
d="M516 520h187v-463h82v550h-82v-35h-187v-52zM557 324v57h-431v-290h423v57h-339v61h328v49h-328v66h347zM287 604v-109c-80 3 -159 5 -231 5l-10 -63c180 -1 393 -5 577 -19l6 55c-84 8 -172 14 -259 19v112h-83zM706 631v29c0 96 49 190 151 232l-45 62
c-72 -33 -120 -90 -146 -159c-27 74 -77 134 -151 167l-39 -52l3 22c-82 17 -145 18 -273 18h-48v-189h219v-65h-221v-59h302v179h-219v75c104 0 160 -3 231 -17l4 25c102 -45 151 -140 151 -241v-27h81z" />
</svg>
