<?xml version="1.0" standalone="no"?>
<!DOCTYPE svg PUBLIC "-//W3C//DTD SVG 1.1//EN" "http://www.w3.org/Graphics/SVG/1.1/DTD/svg11.dtd" >
<svg xmlns="http://www.w3.org/2000/svg" xmlns:xlink="http://www.w3.org/1999/xlink" version="1.1" viewBox="-10 0 930 1000">
   <path fill="currentColor"
d="M516 536h187v-478h82v584h-82v-47h-187v-59zM567 317v60h-438v-297h435v60h-351v61h332v50h-332v66h354zM287 632v-132c-79 3 -157 5 -229 5l-12 -69c183 -1 394 -5 579 -19l4 60c-83 8 -172 15 -259 20v135h-83zM701 881v-140h-440v140h440zM176 677h610v267h-610v-267z
" />
</svg>
