<?xml version="1.0" standalone="no"?>
<!DOCTYPE svg PUBLIC "-//W3C//DTD SVG 1.1//EN" "http://www.w3.org/Graphics/SVG/1.1/DTD/svg11.dtd" >
<svg xmlns="http://www.w3.org/2000/svg" xmlns:xlink="http://www.w3.org/1999/xlink" version="1.1" viewBox="-10 0 930 1000">
   <path fill="currentColor"
d="M557 330v60h-432v-295h425v59h-340v61h328v51h-328v64h347zM287 627v-120c-79 3 -157 5 -229 5l-12 -68c182 -1 393 -5 577 -19l6 59c-83 8 -172 15 -259 19v124h-83zM701 887v-84h-433v84h433zM701 742v-78h84v284h-602v-284h85v78h433zM703 58h82v572h-82v-37h-187v-60
h187v-475z" />
</svg>
