<?xml version="1.0" standalone="no"?>
<!DOCTYPE svg PUBLIC "-//W3C//DTD SVG 1.1//EN" "http://www.w3.org/Graphics/SVG/1.1/DTD/svg11.dtd" >
<svg xmlns="http://www.w3.org/2000/svg" xmlns:xlink="http://www.w3.org/1999/xlink" version="1.1" viewBox="-10 0 930 1000">
   <path fill="currentColor"
d="M515 525h188v-468h82v590h-82v-68h-188v-54zM557 320v57h-431v-290h423v57h-342v62h331v49h-331v65h350zM287 638v-141c-81 2 -159 3 -229 3l-12 -60c174 -1 389 -1 579 -19l6 53c-86 10 -175 16 -262 20v144h-82zM807 760h-271c31 71 154 128 296 142l-27 61
c-140 -16 -266 -69 -320 -149c-54 80 -179 135 -318 151l-27 -62c141 -13 263 -71 295 -143h-272v-62h281v-80h82v80h281v62z" />
</svg>
