<?xml version="1.0" standalone="no"?>
<!DOCTYPE svg PUBLIC "-//W3C//DTD SVG 1.1//EN" "http://www.w3.org/Graphics/SVG/1.1/DTD/svg11.dtd" >
<svg xmlns="http://www.w3.org/2000/svg" xmlns:xlink="http://www.w3.org/1999/xlink" version="1.1" viewBox="-10 0 930 1000">
   <path fill="currentColor"
d="M516 511h187v-453h82v576h-82v-68h-187v-55zM557 313v58h-432v-290h425v58h-343v60h330v49h-330v65h350zM287 618v-133c-82 2 -159 3 -230 3l-11 -60c173 -1 389 -1 579 -19l6 52c-85 10 -175 17 -262 21v136h-82zM492 915c106 0 166 -12 166 -39s-61 -39 -167 -39
s-167 12 -167 39s61 39 168 39zM492 787c160 0 252 29 252 89s-92 90 -252 90c-162 0 -253 -30 -253 -90s91 -89 253 -89zM533 681h278v61h-639v-61h279v-74h82v74z" />
</svg>
