<?xml version="1.0" standalone="no"?>
<!DOCTYPE svg PUBLIC "-//W3C//DTD SVG 1.1//EN" "http://www.w3.org/Graphics/SVG/1.1/DTD/svg11.dtd" >
<svg xmlns="http://www.w3.org/2000/svg" xmlns:xlink="http://www.w3.org/1999/xlink" version="1.1" viewBox="-10 0 930 1000">
   <path fill="currentColor"
d="M818 57v582h-79v-582h79zM412 547h159v-470h78v557h-78v-28h-159v-59zM477 330v60h-367v-297h364v59h-283v62h265v51h-265v65h286zM245 637v-126c-67 3 -130 5 -183 5l-10 -67c133 -1 330 -6 463 -20l5 59c-59 7 -128 13 -197 18v131h-78zM840 735h-147
c8 77 68 139 169 163l-41 60c-79 -23 -135 -67 -166 -125c-31 60 -91 107 -174 131l-39 -59c-72 31 -163 38 -223 38h-47v-255h80v179c59 -4 146 -16 195 -49l22 74l-6 3c92 -29 147 -92 152 -160h-150v-64h375v64z" />
</svg>
