<?xml version="1.0" standalone="no"?>
<!DOCTYPE svg PUBLIC "-//W3C//DTD SVG 1.1//EN" "http://www.w3.org/Graphics/SVG/1.1/DTD/svg11.dtd" >
<svg xmlns="http://www.w3.org/2000/svg" xmlns:xlink="http://www.w3.org/1999/xlink" version="1.1" viewBox="-10 0 930 1000">
   <path fill="currentColor"
d="M818 57v535h-79v-535h79zM417 502h159v-433h78v521h-78v-37h-159v-51zM476 314v58h-372v-280h368v58h-287v54h272v52h-272v58h291zM249 584v-103c-66 3 -130 5 -183 5l-10 -62c132 -1 332 -7 468 -20l5 54c-60 7 -129 14 -198 18v108h-82zM242 807v81
c97 0 158 -3 235 -17l7 61c-87 16 -156 17 -274 17h-48v-197h224v-70h-226v-61h305v186h-223zM635 681v206h68v-206h-68zM769 887h67v61h-331v-61h65v-206h-61v-61h319v61h-59v206z" />
</svg>
