<?xml version="1.0" standalone="no"?>
<!DOCTYPE svg PUBLIC "-//W3C//DTD SVG 1.1//EN" "http://www.w3.org/Graphics/SVG/1.1/DTD/svg11.dtd" >
<svg xmlns="http://www.w3.org/2000/svg" xmlns:xlink="http://www.w3.org/1999/xlink" version="1.1" viewBox="-10 0 930 1000">
   <path fill="currentColor"
d="M817 57v670h-78v-670h78zM412 556h159v-479h78v584h-78v-46h-159v-59zM479 330v60h-369v-297h364v59h-283v62h265v51h-265v65h288zM245 687v-172c-67 3 -130 4 -183 4l-10 -63c130 0 328 -3 464 -19l4 55c-60 9 -129 15 -197 20v175h-78zM547 677v27
c0 101 136 167 314 182l-27 64c-144 -14 -271 -60 -328 -143c-58 83 -187 129 -333 143l-27 -64c181 -15 318 -81 318 -182v-27h83z" />
</svg>
