<?xml version="1.0" standalone="no"?>
<!DOCTYPE svg PUBLIC "-//W3C//DTD SVG 1.1//EN" "http://www.w3.org/Graphics/SVG/1.1/DTD/svg11.dtd" >
<svg xmlns="http://www.w3.org/2000/svg" xmlns:xlink="http://www.w3.org/1999/xlink" version="1.1" viewBox="-10 0 930 1000">
   <path fill="currentColor"
d="M817 57v610h-78v-610h78zM412 541h159v-464h78v564h-78v-40h-159v-60zM477 330v60h-367v-297h364v59h-283v62h265v51h-265v65h286zM245 654v-145c-67 3 -131 4 -184 4l-10 -64c127 0 325 -2 464 -20l5 55c-61 10 -129 17 -197 21v149h-78zM512 894c153 0 230 -27 230 -80
s-77 -80 -230 -80s-230 27 -230 80s77 80 230 80zM512 676c206 0 315 44 315 138s-109 138 -315 138s-314 -44 -314 -138s108 -138 314 -138z" />
</svg>
