<?xml version="1.0" standalone="no"?>
<!DOCTYPE svg PUBLIC "-//W3C//DTD SVG 1.1//EN" "http://www.w3.org/Graphics/SVG/1.1/DTD/svg11.dtd" >
<svg xmlns="http://www.w3.org/2000/svg" xmlns:xlink="http://www.w3.org/1999/xlink" version="1.1" viewBox="-10 0 930 1000">
   <path fill="currentColor"
d="M818 57v538h-79v-538h79zM417 505h159v-436h78v525h-78v-39h-159v-50zM475 314v59h-371v-281h367v58h-286v56h272v49h-272v59h290zM253 584v-103c-67 3 -133 5 -187 5l-10 -62c133 -1 332 -7 468 -20l5 54c-60 7 -129 14 -198 18v108h-78zM278 887h564v60h-648v-322h632
v60h-548v74h534v55h-534v73z" />
</svg>
