<?xml version="1.0" standalone="no"?>
<!DOCTYPE svg PUBLIC "-//W3C//DTD SVG 1.1//EN" "http://www.w3.org/Graphics/SVG/1.1/DTD/svg11.dtd" >
<svg xmlns="http://www.w3.org/2000/svg" xmlns:xlink="http://www.w3.org/1999/xlink" version="1.1" viewBox="-10 0 930 1000">
   <path fill="currentColor"
d="M817 57v582h-78v-582h78zM412 546h159v-469h78v560h-78v-30h-159v-61zM477 330v60h-367v-297h364v59h-283v62h265v51h-265v65h286zM244 637v-128c-65 3 -129 5 -182 5l-9 -65c131 0 329 -6 463 -20l5 57c-59 7 -127 14 -195 18v133h-82zM407 732v152h205v-152h-205z
M693 884h142v60h-661v-60h151v-152h-143v-61h645v61h-134v152z" />
</svg>
