<?xml version="1.0" standalone="no"?>
<!DOCTYPE svg PUBLIC "-//W3C//DTD SVG 1.1//EN" "http://www.w3.org/Graphics/SVG/1.1/DTD/svg11.dtd" >
<svg xmlns="http://www.w3.org/2000/svg" xmlns:xlink="http://www.w3.org/1999/xlink" version="1.1" viewBox="-10 0 930 1000">
   <path fill="currentColor"
d="M577 371v60h-442v-332h435v61h-353v73h336v59h-336v79h360zM391 560v109h64v290h-83v-223h-213v-67h149v-105c-86 3 -170 4 -245 4l-12 -70c178 0 397 -1 591 -19l6 60c-84 11 -172 17 -257 21zM499 736v-66h285v289h-82v-223h-203zM702 58h82v569h-82v-569z" />
</svg>
