<?xml version="1.0" standalone="no"?>
<!DOCTYPE svg PUBLIC "-//W3C//DTD SVG 1.1//EN" "http://www.w3.org/Graphics/SVG/1.1/DTD/svg11.dtd" >
<svg xmlns="http://www.w3.org/2000/svg" xmlns:xlink="http://www.w3.org/1999/xlink" version="1.1" viewBox="-10 0 930 1000">
   <path fill="currentColor"
d="M786 57v547h-82v-547h82zM574 370l-1 61h-437v-330h430v61h-349v72h331v59h-331v77h357zM302 663v-106c-84 2 -166 3 -242 3l-11 -68c183 0 399 -1 595 -17l6 60c-87 9 -178 15 -266 19v109h-82zM227 670v202c58 -2 130 -9 196 -32l14 67c-89 29 -177 34 -246 34h-44
v-271h80zM628 914c53 0 92 -18 92 -48c0 -29 -39 -47 -92 -47c-54 0 -94 18 -94 47c0 30 40 48 94 48zM628 767c95 0 164 39 164 99c0 61 -69 100 -164 100c-96 0 -165 -39 -165 -100c0 -60 69 -99 165 -99zM668 676h179v61h-440v-61h181v-69h80v69z" />
</svg>
