<?xml version="1.0" standalone="no"?>
<!DOCTYPE svg PUBLIC "-//W3C//DTD SVG 1.1//EN" "http://www.w3.org/Graphics/SVG/1.1/DTD/svg11.dtd" >
<svg xmlns="http://www.w3.org/2000/svg" xmlns:xlink="http://www.w3.org/1999/xlink" version="1.1" viewBox="-10 0 930 1000">
   <path fill="currentColor"
d="M782 57v504h-82v-504h82zM575 326v58h-442v-300h434v58h-352v62h336v55h-336v67h360zM707 599v59c0 98 48 191 150 235l-45 61c-71 -32 -119 -89 -145 -158c-27 75 -77 134 -151 167l-39 -50l3 20c-81 17 -143 17 -270 17h-47v-205h216v-77h-218v-62h144v-92
c-86 2 -170 2 -244 2l-12 -65c177 1 397 0 591 -19l6 56c-85 11 -173 18 -259 22v96h72v195h-216v88c102 0 158 -3 228 -17l4 27c102 -44 151 -140 151 -242v-58h81z" />
</svg>
