<?xml version="1.0" standalone="no"?>
<!DOCTYPE svg PUBLIC "-//W3C//DTD SVG 1.1//EN" "http://www.w3.org/Graphics/SVG/1.1/DTD/svg11.dtd" >
<svg xmlns="http://www.w3.org/2000/svg" xmlns:xlink="http://www.w3.org/1999/xlink" version="1.1" viewBox="-10 0 930 1000">
   <path fill="currentColor"
d="M574 370v61h-442v-332h435v61h-353v73h336v59h-336v78h360zM387 560v106h394v291h-82v-101l-539 24l-12 -64l551 -18v-67h-531v-65h137v-102c-86 3 -170 4 -245 4l-12 -70c178 0 397 -1 591 -19l6 60c-84 11 -173 17 -258 21zM699 58h82v568h-82v-568z" />
</svg>
