<?xml version="1.0" standalone="no"?>
<!DOCTYPE svg PUBLIC "-//W3C//DTD SVG 1.1//EN" "http://www.w3.org/Graphics/SVG/1.1/DTD/svg11.dtd" >
<svg xmlns="http://www.w3.org/2000/svg" xmlns:xlink="http://www.w3.org/1999/xlink" version="1.1" viewBox="-10 0 930 1000">
   <path fill="currentColor"
d="M759 383v63h-610v-356h605v63h-520v83h498v60h-498v87h525zM860 577h-220v91h143v65h-143c6 82 65 143 163 166l-40 59c-81 -23 -136 -68 -164 -130c-30 62 -89 112 -170 137l-37 -55c-76 28 -160 34 -220 34h-47v-262h80v187c56 -3 136 -13 194 -42l18 67
c84 -33 135 -94 141 -161h-145v-65h143v-91h-208v138h-83v-138h-219v-66h814v66z" />
</svg>
