<?xml version="1.0" standalone="no"?>
<!DOCTYPE svg PUBLIC "-//W3C//DTD SVG 1.1//EN" "http://www.w3.org/Graphics/SVG/1.1/DTD/svg11.dtd" >
<svg xmlns="http://www.w3.org/2000/svg" xmlns:xlink="http://www.w3.org/1999/xlink" version="1.1" viewBox="-10 0 930 1000">
   <path fill="currentColor"
d="M759 339v59h-610v-318h605v60h-520v70h498v55h-498v74h525zM858 522h-215v85h139v61h-226v80h217v55h-217v84h236v61h-314v-341h83v-85h-218v85h87v198h-223v85c85 -1 154 -3 241 -16l6 60c-101 14 -176 16 -276 16h-49v-200h223v-82h-225v-61h135v-85h-216v-62h812v62z
" />
</svg>
