<?xml version="1.0" standalone="no"?>
<!DOCTYPE svg PUBLIC "-//W3C//DTD SVG 1.1//EN" "http://www.w3.org/Graphics/SVG/1.1/DTD/svg11.dtd" >
<svg xmlns="http://www.w3.org/2000/svg" xmlns:xlink="http://www.w3.org/1999/xlink" version="1.1" viewBox="-10 0 930 1000">
   <path fill="currentColor"
d="M769 377v64h-610v-358h605v64h-523v81h499v62h-499v87h528zM564 677v-94h-212v94h212zM864 583h-218v94h124v64h-262c28 82 159 134 304 146l-25 62c-142 -13 -272 -64 -327 -149c-55 85 -185 136 -328 149l-25 -61c145 -13 277 -65 304 -147h-263v-64h123v-94h-220v-66
h813v66z" />
</svg>
