<?xml version="1.0" standalone="no"?>
<!DOCTYPE svg PUBLIC "-//W3C//DTD SVG 1.1//EN" "http://www.w3.org/Graphics/SVG/1.1/DTD/svg11.dtd" >
<svg xmlns="http://www.w3.org/2000/svg" xmlns:xlink="http://www.w3.org/1999/xlink" version="1.1" viewBox="-10 0 930 1000">
   <path fill="currentColor"
d="M759 367v61h-610v-340h606v59h-521v81h498v54h-498v85h525zM208 643v230c56 -2 128 -9 193 -32l13 67c-88 28 -175 34 -242 34h-45v-299h81zM606 911c55 0 93 -18 93 -48s-38 -48 -93 -48c-54 0 -93 18 -93 48s39 48 93 48zM606 762c96 0 166 40 166 101
c0 62 -70 102 -166 102s-166 -40 -166 -102c0 -61 70 -101 166 -101zM645 600v66h177v61h-439v-61h182v-66h80zM46 506h813v62h-813v-62z" />
</svg>
