<?xml version="1.0" standalone="no"?>
<!DOCTYPE svg PUBLIC "-//W3C//DTD SVG 1.1//EN" "http://www.w3.org/Graphics/SVG/1.1/DTD/svg11.dtd" >
<svg xmlns="http://www.w3.org/2000/svg" xmlns:xlink="http://www.w3.org/1999/xlink" version="1.1" viewBox="-10 0 930 1000">
   <path fill="currentColor"
d="M759 347v59h-610v-327h605v60h-520v75h498v54h-498v79h525zM211 804v86c74 0 143 -3 231 -15l8 60c-106 14 -184 15 -272 15h-48v-200h212v-83h-214v-62h295v199h-212zM703 885v-109h-152v109h152zM703 715v-112h75v344h-303v-344h76v112h152zM46 479h814v61h-814v-61z
" />
</svg>
