<?xml version="1.0" standalone="no"?>
<!DOCTYPE svg PUBLIC "-//W3C//DTD SVG 1.1//EN" "http://www.w3.org/Graphics/SVG/1.1/DTD/svg11.dtd" >
<svg xmlns="http://www.w3.org/2000/svg" xmlns:xlink="http://www.w3.org/1999/xlink" version="1.1" viewBox="-10 0 930 1000">
   <path fill="currentColor"
d="M767 58v527h-85v-527h85zM555 458l11 68c-138 22 -253 26 -416 26h-69v-439h411v67h-329v117h317v63h-317v123c154 0 263 -4 392 -25zM649 696v11c0 91 60 165 163 194l-41 60c-80 -26 -136 -77 -164 -144c-29 68 -88 122 -170 149l-43 -61c-66 29 -149 36 -214 36h-47
v-298h80v220c61 -3 145 -15 192 -49l20 76c-9 6 -18 11 -28 14c106 -33 168 -111 168 -196v-12h-145v-68h372v68h-143z" />
</svg>
