<?xml version="1.0" standalone="no"?>
<!DOCTYPE svg PUBLIC "-//W3C//DTD SVG 1.1//EN" "http://www.w3.org/Graphics/SVG/1.1/DTD/svg11.dtd" >
<svg xmlns="http://www.w3.org/2000/svg" xmlns:xlink="http://www.w3.org/1999/xlink" version="1.1" viewBox="-10 0 930 1000">
   <path fill="currentColor"
d="M764 59v485h-82v-485h82zM558 437l7 67c-138 22 -253 26 -415 26h-70v-420h413v66h-333v109h319v63h-319v114c155 0 266 -4 398 -25zM219 624v243c56 -2 128 -10 192 -32l14 67c-89 28 -176 34 -243 34h-44v-312h81zM616 906c54 0 93 -18 93 -51c0 -32 -39 -51 -93 -51
c-55 0 -94 19 -94 51c0 33 39 51 94 51zM616 749c96 0 166 41 166 106s-70 107 -166 107c-97 0 -167 -42 -167 -107s70 -106 167 -106zM656 650h185v61h-452v-61h187v-86h80v86z" />
</svg>
