<?xml version="1.0" standalone="no"?>
<!DOCTYPE svg PUBLIC "-//W3C//DTD SVG 1.1//EN" "http://www.w3.org/Graphics/SVG/1.1/DTD/svg11.dtd" >
<svg xmlns="http://www.w3.org/2000/svg" xmlns:xlink="http://www.w3.org/1999/xlink" version="1.1" viewBox="-10 0 930 1000">
   <path fill="currentColor"
d="M557 404l9 67c-132 22 -242 25 -416 25h-70v-392h414v66h-334v96h320v62h-320v100c166 0 272 -4 397 -24zM232 790v97c111 0 184 -3 273 -19l7 63c-100 18 -179 20 -309 20h-54v-221h215v-85h-217v-64h300v209h-215zM482 647v-66h285v373h-84v-307h-201zM682 59h85v467
h-85v-467z" />
</svg>
