<?xml version="1.0" standalone="no"?>
<!DOCTYPE svg PUBLIC "-//W3C//DTD SVG 1.1//EN" "http://www.w3.org/Graphics/SVG/1.1/DTD/svg11.dtd" >
<svg xmlns="http://www.w3.org/2000/svg" xmlns:xlink="http://www.w3.org/1999/xlink" version="1.1" viewBox="-10 0 930 1000">
   <path fill="currentColor"
d="M781 57v527h-84v-527h84zM569 440l9 66c-148 22 -268 26 -416 26h-69v-419h411v67h-329v112h317v63h-317v110c140 0 255 -5 394 -25zM792 703h-250c17 88 142 165 283 185l-30 62c-132 -21 -248 -84 -299 -171c-49 88 -166 150 -297 171l-32 -62
c143 -20 267 -96 284 -185h-247v-66h588v66z" />
</svg>
