<?xml version="1.0" standalone="no"?>
<!DOCTYPE svg PUBLIC "-//W3C//DTD SVG 1.1//EN" "http://www.w3.org/Graphics/SVG/1.1/DTD/svg11.dtd" >
<svg xmlns="http://www.w3.org/2000/svg" xmlns:xlink="http://www.w3.org/1999/xlink" version="1.1" viewBox="-10 0 930 1000">
   <path fill="currentColor"
d="M780 58v500h-82v-500h82zM569 397l8 67c-126 22 -232 26 -416 26h-69v-386h413v66h-333v94h318v62h-318v97c175 0 277 -5 397 -26zM487 897c111 0 172 -23 172 -64s-61 -64 -172 -64s-171 23 -171 64s60 64 171 64zM487 711c159 0 251 43 251 122s-92 122 -251 122
s-250 -43 -250 -122s91 -122 250 -122zM528 607h272v63h-625v-63h271v-84h82v84z" />
</svg>
