<?xml version="1.0" standalone="no"?>
<!DOCTYPE svg PUBLIC "-//W3C//DTD SVG 1.1//EN" "http://www.w3.org/Graphics/SVG/1.1/DTD/svg11.dtd" >
<svg xmlns="http://www.w3.org/2000/svg" xmlns:xlink="http://www.w3.org/1999/xlink" version="1.1" viewBox="-10 0 930 1000">
   <path fill="currentColor"
d="M249 193v274c47 -1 95 -3 143 -5v-269h-143zM604 445l6 60c-179 28 -389 33 -545 33l-9 -69c35 0 73 0 113 -1v-275h-88v-67h479v67h-89v264c46 -2 90 -7 133 -12zM146 696v-66h284v324h-81v-258h-203zM472 696v-66h277v324h-81v-258h-196zM882 285v68h-133v234h-82v-529
h82v227h133z" />
</svg>
