<?xml version="1.0" standalone="no"?>
<!DOCTYPE svg PUBLIC "-//W3C//DTD SVG 1.1//EN" "http://www.w3.org/Graphics/SVG/1.1/DTD/svg11.dtd" >
<svg xmlns="http://www.w3.org/2000/svg" xmlns:xlink="http://www.w3.org/1999/xlink" version="1.1" viewBox="-10 0 930 1000">
   <path fill="currentColor"
d="M244 193v264c47 -1 95 -3 143 -5v-259h-143zM597 435l5 61c-179 28 -387 33 -542 33l-9 -69c35 0 73 -1 113 -1v-266h-88v-67h479v67h-89v254c45 -3 89 -7 131 -12zM256 692v186h505v65h-587v-316h578v65h-496zM745 287h133v68h-133v224h-82v-520h82v228z" />
</svg>
