<?xml version="1.0" standalone="no"?>
<!DOCTYPE svg PUBLIC "-//W3C//DTD SVG 1.1//EN" "http://www.w3.org/Graphics/SVG/1.1/DTD/svg11.dtd" >
<svg xmlns="http://www.w3.org/2000/svg" xmlns:xlink="http://www.w3.org/1999/xlink" version="1.1" viewBox="-10 0 930 1000">
   <path fill="currentColor"
d="M249 192v270c47 -1 95 -3 143 -5v-265h-143zM602 439l6 61c-180 29 -391 32 -543 32l-9 -68c35 0 73 0 113 -1v-271h-88v-67h479v67h-89v260c45 -3 89 -7 131 -13zM679 610v46c0 94 66 187 180 227l-41 60c-88 -33 -150 -95 -180 -171c-27 74 -81 143 -164 179
c-87 -34 -140 -100 -167 -176c-32 73 -93 136 -177 168l-42 -60c114 -43 180 -140 180 -227v-46h79v46c0 81 41 166 125 215c85 -54 127 -145 127 -215v-46h80zM749 279h133v69h-133v223h-82v-513h82v221z" />
</svg>
