<?xml version="1.0" standalone="no"?>
<!DOCTYPE svg PUBLIC "-//W3C//DTD SVG 1.1//EN" "http://www.w3.org/Graphics/SVG/1.1/DTD/svg11.dtd" >
<svg xmlns="http://www.w3.org/2000/svg" xmlns:xlink="http://www.w3.org/1999/xlink" version="1.1" viewBox="-10 0 930 1000">
   <path fill="currentColor"
d="M620 332v200h-77v-458h77v192h112v-209h78v479h-78v-204h-112zM216 183v246c37 -1 77 -2 115 -4v-242h-115zM499 411l6 60c-142 24 -329 28 -447 28l-9 -68h92v-248h-77v-66h418v66h-76v237c33 -2 64 -5 93 -9zM301 880h542v64h-622v-219h509v-84h-512v-64h592v209h-509
v94z" />
</svg>
