<?xml version="1.0" standalone="no"?>
<!DOCTYPE svg PUBLIC "-//W3C//DTD SVG 1.1//EN" "http://www.w3.org/Graphics/SVG/1.1/DTD/svg11.dtd" >
<svg xmlns="http://www.w3.org/2000/svg" xmlns:xlink="http://www.w3.org/1999/xlink" version="1.1" viewBox="-10 0 930 1000">
   <path fill="currentColor"
d="M615 327v201h-77v-453h77v184h117v-201h79v477h-79v-208h-117zM215 177v244c37 -1 76 -2 113 -4v-240h-113zM496 404l4 60c-138 24 -323 28 -440 28l-9 -69c27 0 57 0 91 -1v-245h-74v-65h409v65h-75v235c33 -2 65 -5 94 -8zM230 786v96c96 0 155 -3 226 -17l8 62
c-82 16 -146 18 -265 18h-47v-218h201v-85h-204v-61h282v205h-201zM649 900c50 0 82 -25 82 -65c0 -41 -32 -66 -82 -66c-51 0 -84 25 -84 66c0 40 33 65 84 65zM649 711c87 0 152 48 152 124c0 75 -65 122 -152 122c-89 0 -154 -47 -154 -122c0 -76 65 -124 154 -124z
M689 615h150v61h-375v-61h145v-81h80v81z" />
</svg>
