<?xml version="1.0" standalone="no"?>
<!DOCTYPE svg PUBLIC "-//W3C//DTD SVG 1.1//EN" "http://www.w3.org/Graphics/SVG/1.1/DTD/svg11.dtd" >
<svg xmlns="http://www.w3.org/2000/svg" xmlns:xlink="http://www.w3.org/1999/xlink" version="1.1" viewBox="-10 0 930 1000">
   <path fill="currentColor"
d="M216 197v269c37 -1 77 -2 115 -4v-265h-115zM500 448l5 60c-142 25 -329 28 -447 28l-9 -68h92v-271h-77v-67h418v67h-76v260c33 -3 65 -5 94 -9zM301 694v182h429v-182h-429zM221 942v-313h589v313h-589zM732 58h78v524h-78v-232h-112v221h-77v-498h77v210h112v-225z
" />
</svg>
