<?xml version="1.0" standalone="no"?>
<!DOCTYPE svg PUBLIC "-//W3C//DTD SVG 1.1//EN" "http://www.w3.org/Graphics/SVG/1.1/DTD/svg11.dtd" >
<svg xmlns="http://www.w3.org/2000/svg" xmlns:xlink="http://www.w3.org/1999/xlink" version="1.1" viewBox="-10 0 930 1000">
   <path fill="currentColor"
d="M620 363v216h-77v-504h77v221h111v-239h79v550h-79v-244h-111zM216 206v271c37 -1 77 -2 115 -4v-267h-115zM500 459l5 61c-142 25 -329 28 -447 28l-9 -69h92v-273h-77v-67h418v67h-76v262c33 -2 65 -5 94 -9zM513 889c136 0 220 -36 220 -98s-84 -98 -220 -98
c-134 0 -217 36 -217 98s83 98 217 98zM513 629c186 0 301 60 301 162c0 103 -115 162 -301 162c-184 0 -298 -59 -298 -162c0 -102 114 -162 298 -162z" />
</svg>
