<?xml version="1.0" standalone="no"?>
<!DOCTYPE svg PUBLIC "-//W3C//DTD SVG 1.1//EN" "http://www.w3.org/Graphics/SVG/1.1/DTD/svg11.dtd" >
<svg xmlns="http://www.w3.org/2000/svg" xmlns:xlink="http://www.w3.org/1999/xlink" version="1.1" viewBox="-10 0 930 1000">
   <path fill="currentColor"
d="M215 193v265c38 -1 78 -2 116 -4v-261h-116zM496 441l4 61c-138 23 -323 28 -440 28l-9 -70c27 0 57 0 91 -1v-266h-74v-66h408v66h-71v256c32 -3 63 -4 91 -8zM191 690v-65h620v331h-82v-119l-548 26l-10 -67l558 -20v-86h-538zM732 58h79v525h-79v-234h-117v229h-77
v-504h77v208h117v-224z" />
</svg>
