<?xml version="1.0" standalone="no"?>
<!DOCTYPE svg PUBLIC "-//W3C//DTD SVG 1.1//EN" "http://www.w3.org/Graphics/SVG/1.1/DTD/svg11.dtd" >
<svg xmlns="http://www.w3.org/2000/svg" xmlns:xlink="http://www.w3.org/1999/xlink" version="1.1" viewBox="-10 0 930 1000">
   <path fill="currentColor"
d="M617 327v195h-78v-447h78v184h115v-201h79v469h-79v-200h-115zM214 177v245c38 -1 78 -3 116 -5v-240h-116zM496 404l4 61c-138 23 -323 28 -440 28l-9 -69c27 0 56 0 89 -1v-246h-72v-65h408v65h-72v235c32 -2 64 -4 92 -8zM288 879h549v66h-631v-370h612v65h-530v88
h518v61h-518v90z" />
</svg>
