<?xml version="1.0" standalone="no"?>
<!DOCTYPE svg PUBLIC "-//W3C//DTD SVG 1.1//EN" "http://www.w3.org/Graphics/SVG/1.1/DTD/svg11.dtd" >
<svg xmlns="http://www.w3.org/2000/svg" xmlns:xlink="http://www.w3.org/1999/xlink" version="1.1" viewBox="-10 0 930 1000">
   <path fill="currentColor"
d="M249 190v267c47 -1 95 -2 143 -5v-262h-143zM603 435l4 62c-179 27 -387 32 -542 32l-9 -69c35 0 73 0 113 -1v-269h-87v-67h477v67h-88v258c45 -3 89 -7 132 -13zM648 679v18c0 81 63 158 162 194l-41 60c-78 -28 -134 -84 -163 -152c-28 72 -86 128 -170 158l-38 -57
c-86 28 -186 34 -224 34h-46v-316h80v245c51 -3 140 -13 199 -41l19 63c88 -39 138 -114 138 -195v-11h-145v-66h369v66h-140zM744 387h133v69h-133v122h-83v-521h83v133h133v69h-133v128z" />
</svg>
