<?xml version="1.0" standalone="no"?>
<!DOCTYPE svg PUBLIC "-//W3C//DTD SVG 1.1//EN" "http://www.w3.org/Graphics/SVG/1.1/DTD/svg11.dtd" >
<svg xmlns="http://www.w3.org/2000/svg" xmlns:xlink="http://www.w3.org/1999/xlink" version="1.1" viewBox="-10 0 930 1000">
   <path fill="currentColor"
d="M243 177v245c47 -1 95 -3 143 -5v-240h-143zM593 401l4 58c-176 28 -384 32 -537 32l-8 -66c34 0 73 -1 112 -1v-247h-89v-65h469v65h-78v235c44 -2 86 -6 127 -11zM259 784v100h512v66h-595v-227h486v-86h-488v-66h571v213h-486zM877 243h-133v107h133v69h-133v102h-83
v-464h83v117h133v69z" />
</svg>
