<?xml version="1.0" standalone="no"?>
<!DOCTYPE svg PUBLIC "-//W3C//DTD SVG 1.1//EN" "http://www.w3.org/Graphics/SVG/1.1/DTD/svg11.dtd" >
<svg xmlns="http://www.w3.org/2000/svg" xmlns:xlink="http://www.w3.org/1999/xlink" version="1.1" viewBox="-10 0 930 1000">
   <path fill="currentColor"
d="M242 189v268c47 -1 96 -2 144 -5v-263h-144zM593 435l5 62c-178 27 -385 32 -539 32l-9 -69c35 0 73 -1 113 -1v-270h-89v-66h472v66h-81v258c44 -2 86 -7 128 -12zM453 888c134 0 219 -40 219 -108s-85 -109 -219 -109s-219 41 -219 109s85 108 219 108zM453 605
c185 0 304 66 304 175s-119 175 -304 175c-186 0 -304 -66 -304 -175s118 -175 304 -175zM877 261h-133v129h133v69h-133v142h-82v-543h82v134h133v69z" />
</svg>
