<?xml version="1.0" standalone="no"?>
<!DOCTYPE svg PUBLIC "-//W3C//DTD SVG 1.1//EN" "http://www.w3.org/Graphics/SVG/1.1/DTD/svg11.dtd" >
<svg xmlns="http://www.w3.org/2000/svg" xmlns:xlink="http://www.w3.org/1999/xlink" version="1.1" viewBox="-10 0 930 1000">
   <path fill="currentColor"
d="M171 685v-67h302v339h-82v-272h-220zM214 193v261c38 -1 78 -3 117 -5v-256h-117zM404 193v251c33 -1 63 -4 92 -8l5 61c-139 23 -324 28 -441 28l-9 -69c27 0 57 0 90 -1v-262h-73v-66h409v66h-73zM516 685v-67h295v339h-82v-272h-213zM614 384h118v-129h-118v129z
M732 57h79v526h-79v-132h-118v127h-77v-504h77v113h118v-130z" />
</svg>
