<?xml version="1.0" standalone="no"?>
<!DOCTYPE svg PUBLIC "-//W3C//DTD SVG 1.1//EN" "http://www.w3.org/Graphics/SVG/1.1/DTD/svg11.dtd" >
<svg xmlns="http://www.w3.org/2000/svg" xmlns:xlink="http://www.w3.org/1999/xlink" version="1.1" viewBox="-10 0 930 1000">
   <path fill="currentColor"
d="M733 258h-119v127h119v-127zM614 453v117h-77v-496h77v117h119v-134h79v578h-79v-182h-119zM216 195v269c38 -1 78 -2 117 -5v-264h-117zM496 446l4 61c-138 23 -323 28 -440 28l-9 -69c27 0 58 0 92 -1v-270h-75v-66h409v66h-71v260c32 -3 62 -5 90 -9zM554 608v46
c0 120 144 218 305 243l-35 64c-133 -23 -257 -91 -312 -191c-55 102 -182 168 -318 192l-34 -65c164 -24 309 -120 309 -243v-46h85z" />
</svg>
