<?xml version="1.0" standalone="no"?>
<!DOCTYPE svg PUBLIC "-//W3C//DTD SVG 1.1//EN" "http://www.w3.org/Graphics/SVG/1.1/DTD/svg11.dtd" >
<svg xmlns="http://www.w3.org/2000/svg" xmlns:xlink="http://www.w3.org/1999/xlink" version="1.1" viewBox="-10 0 930 1000">
   <path fill="currentColor"
d="M731 241h-117v110h117v-110zM614 418v102h-77v-445h77v99h117v-116h79v516h-79v-156h-117zM215 177v244c37 -1 76 -2 113 -4v-240h-113zM496 404l4 60c-138 24 -323 28 -440 28l-9 -69c27 0 57 0 91 -1v-245h-74v-65h409v65h-75v235c33 -1 65 -4 94 -8zM818 715h-257
c17 87 150 156 296 173l-28 61c-137 -16 -261 -75 -314 -161c-52 88 -175 145 -312 161l-28 -61c146 -17 279 -84 295 -173h-257v-66h261v-85h82v85h262v66z" />
</svg>
