<?xml version="1.0" standalone="no"?>
<!DOCTYPE svg PUBLIC "-//W3C//DTD SVG 1.1//EN" "http://www.w3.org/Graphics/SVG/1.1/DTD/svg11.dtd" >
<svg xmlns="http://www.w3.org/2000/svg" xmlns:xlink="http://www.w3.org/1999/xlink" version="1.1" viewBox="-10 0 930 1000">
   <path fill="currentColor"
d="M533 282h176v-224h82v522h-82v-231h-176v-67zM240 185v277c45 -1 91 -3 137 -5v-272h-137zM576 443l5 60c-171 25 -374 30 -526 30l-8 -69c35 0 74 0 114 -1v-278h-88v-66h468v66h-84v268c41 -2 81 -6 119 -10zM804 692h-252c11 94 140 176 285 197l-30 62
c-131 -21 -248 -84 -299 -173c-50 90 -167 152 -299 173l-30 -62c148 -21 275 -102 285 -197h-249v-65h589v65z" />
</svg>
