<?xml version="1.0" standalone="no"?>
<!DOCTYPE svg PUBLIC "-//W3C//DTD SVG 1.1//EN" "http://www.w3.org/Graphics/SVG/1.1/DTD/svg11.dtd" >
<svg xmlns="http://www.w3.org/2000/svg" xmlns:xlink="http://www.w3.org/1999/xlink" version="1.1" viewBox="-10 0 930 1000">
   <path fill="currentColor"
d="M531 256h170v-198h82v512h-82v-246h-170v-68zM242 174v256c44 -1 90 -2 135 -5v-251h-135zM582 410l5 60c-171 25 -374 29 -524 29l-9 -67c34 0 71 0 109 -1v-257h-87v-66h467v66h-86v247c43 -2 85 -6 125 -11zM795 696h-263c3 85 141 168 295 187l-29 62
c-134 -19 -254 -80 -307 -163c-54 84 -178 145 -314 163l-27 -62c153 -17 295 -100 298 -187h-263v-63h264v-90h83v90h263v63z" />
</svg>
