<?xml version="1.0" standalone="no"?>
<!DOCTYPE svg PUBLIC "-//W3C//DTD SVG 1.1//EN" "http://www.w3.org/Graphics/SVG/1.1/DTD/svg11.dtd" >
<svg xmlns="http://www.w3.org/2000/svg" xmlns:xlink="http://www.w3.org/1999/xlink" version="1.1" viewBox="-10 0 930 1000">
   <path fill="currentColor"
d="M533 281h169v-224h82v521h-82v-230h-169v-67zM238 184v277c45 -1 91 -3 137 -5v-272h-137zM577 441l5 61c-171 25 -375 30 -525 31l-9 -70c34 0 72 0 111 -1v-278h-86v-66h468v66h-86v267c42 -2 84 -5 122 -10zM172 624h613v331h-83v-118l-538 25l-11 -67l549 -19v-87
h-530v-65z" />
</svg>
