<?xml version="1.0" standalone="no"?>
<!DOCTYPE svg PUBLIC "-//W3C//DTD SVG 1.1//EN" "http://www.w3.org/Graphics/SVG/1.1/DTD/svg11.dtd" >
<svg xmlns="http://www.w3.org/2000/svg" xmlns:xlink="http://www.w3.org/1999/xlink" version="1.1" viewBox="-10 0 930 1000">
   <path fill="currentColor"
d="M811 58v527h-79v-527h79zM452 282h113v-206h78v503h-78v-229h-113v-68zM216 190v279c37 -1 76 -2 114 -4v-275h-114zM494 452l5 60c-138 23 -323 27 -441 27l-8 -68c28 0 59 0 93 -1v-280h-77v-67h409v67h-71v270c32 -2 62 -4 90 -8zM160 681v-67h301v343h-82v-276h-219z
M718 602v70c0 93 55 185 161 224l-45 64c-78 -31 -129 -89 -157 -158c-31 69 -87 129 -167 160l-44 -62c112 -42 171 -136 171 -227v-71h81z" />
</svg>
