<?xml version="1.0" standalone="no"?>
<!DOCTYPE svg PUBLIC "-//W3C//DTD SVG 1.1//EN" "http://www.w3.org/Graphics/SVG/1.1/DTD/svg11.dtd" >
<svg xmlns="http://www.w3.org/2000/svg" xmlns:xlink="http://www.w3.org/1999/xlink" version="1.1" viewBox="-10 0 930 1000">
   <path fill="currentColor"
d="M811 57v471h-79v-471h79zM453 258h112v-182h77v445h-77v-195h-112v-68zM240 790v98c85 0 155 -3 243 -16l6 62c-102 15 -180 16 -279 16h-49v-218h225v-95h-227v-63h306v216h-225zM209 176v262c38 -1 76 -2 115 -4v-258h-115zM398 176v253c33 -1 63 -4 92 -8l4 60
c-137 22 -323 27 -441 27l-9 -68c27 0 58 0 92 -1v-263h-75v-66h410v66h-73zM592 884h239v64h-319v-374h308v63h-228v91h218v60h-218v96z" />
</svg>
