<?xml version="1.0" standalone="no"?>
<!DOCTYPE svg PUBLIC "-//W3C//DTD SVG 1.1//EN" "http://www.w3.org/Graphics/SVG/1.1/DTD/svg11.dtd" >
<svg xmlns="http://www.w3.org/2000/svg" xmlns:xlink="http://www.w3.org/1999/xlink" version="1.1" viewBox="-10 0 930 1000">
   <path fill="currentColor"
d="M452 290h116v-216h77v506h-77v-223h-116v-67zM216 192v280c37 -1 76 -2 114 -4v-276h-114zM502 454l5 60c-143 25 -329 28 -449 28l-9 -69h92v-281h-77v-67h418v67h-77v271c34 -3 67 -5 97 -9zM304 696v180h429v-180h-429zM224 942v-311h589v311h-589zM734 58h79v531h-79
v-531z" />
</svg>
