<?xml version="1.0" standalone="no"?>
<!DOCTYPE svg PUBLIC "-//W3C//DTD SVG 1.1//EN" "http://www.w3.org/Graphics/SVG/1.1/DTD/svg11.dtd" >
<svg xmlns="http://www.w3.org/2000/svg" xmlns:xlink="http://www.w3.org/1999/xlink" version="1.1" viewBox="-10 0 930 1000">
   <path fill="currentColor"
d="M813 58v615h-79v-615h79zM452 306h116v-229h77v513h-77v-217h-116v-67zM216 201v283c37 -1 76 -2 114 -4v-279h-114zM502 466l5 61c-143 24 -329 27 -449 27l-9 -69h92v-284h-77v-66h418v66h-77v274c34 -2 67 -5 97 -9zM554 633v29c0 113 148 203 307 225l-30 64
c-136 -21 -263 -86 -318 -182c-55 96 -182 161 -316 182l-31 -64c158 -22 306 -112 306 -225v-29h82z" />
</svg>
