<?xml version="1.0" standalone="no"?>
<!DOCTYPE svg PUBLIC "-//W3C//DTD SVG 1.1//EN" "http://www.w3.org/Graphics/SVG/1.1/DTD/svg11.dtd" >
<svg xmlns="http://www.w3.org/2000/svg" xmlns:xlink="http://www.w3.org/1999/xlink" version="1.1" viewBox="-10 0 930 1000">
   <path fill="currentColor"
d="M709 537v-134h-146v-66h146v-84h-146v-66h146v-130h83v480h-83zM248 180v258c44 -1 90 -2 135 -4v-254h-135zM580 420l5 59c-171 26 -373 28 -520 28l-9 -68h113v-259h-89v-66h472v66h-89v249c40 -2 80 -6 117 -9zM297 880h529v64h-610v-219h495v-83h-497v-64h577v208
h-494v94z" />
</svg>
