<?xml version="1.0" standalone="no"?>
<!DOCTYPE svg PUBLIC "-//W3C//DTD SVG 1.1//EN" "http://www.w3.org/Graphics/SVG/1.1/DTD/svg11.dtd" >
<svg xmlns="http://www.w3.org/2000/svg" xmlns:xlink="http://www.w3.org/1999/xlink" version="1.1" viewBox="-10 0 930 1000">
   <path fill="currentColor"
d="M243 175v259c40 -1 82 -3 123 -4v-255h-123zM570 416l5 59c-166 24 -366 28 -513 28l-8 -67c35 0 73 -1 113 -1v-260h-91v-67h457v67h-90v251c44 -3 86 -6 127 -10zM224 786v102c98 0 157 -2 230 -15l9 61c-85 15 -150 16 -270 16h-48v-221h212v-89h-214v-65h293v211
h-212zM710 885v-125h-144v125h144zM710 697v-123h75v376h-294v-376h75v123h144zM704 57h82v471h-82v-138h-163v-64h163v-83h-163v-65h163v-121z" />
</svg>
