<?xml version="1.0" standalone="no"?>
<!DOCTYPE svg PUBLIC "-//W3C//DTD SVG 1.1//EN" "http://www.w3.org/Graphics/SVG/1.1/DTD/svg11.dtd" >
<svg xmlns="http://www.w3.org/2000/svg" xmlns:xlink="http://www.w3.org/1999/xlink" version="1.1" viewBox="-10 0 930 1000">
   <path fill="currentColor"
d="M704 527v-137h-163v-64h163v-83h-163v-65h163v-120h82v469h-82zM243 175v259c40 -1 82 -3 123 -4v-255h-123zM570 416l5 59c-166 24 -366 28 -513 28l-8 -67c35 0 73 -1 113 -1v-260h-91v-67h457v67h-90v251c44 -3 86 -6 127 -10zM225 786v96c97 0 155 -3 227 -17l8 62
c-83 16 -146 18 -266 18h-47v-218h202v-85h-204v-61h282v205h-202zM644 900c50 0 83 -25 83 -65c0 -41 -33 -66 -83 -66s-84 25 -84 66c0 40 34 65 84 65zM644 711c88 0 153 48 153 124c0 75 -65 122 -153 122c-89 0 -154 -47 -154 -122c0 -76 65 -124 154 -124zM685 615
h149v61h-375v-61h146v-81h80v81z" />
</svg>
