<?xml version="1.0" standalone="no"?>
<!DOCTYPE svg PUBLIC "-//W3C//DTD SVG 1.1//EN" "http://www.w3.org/Graphics/SVG/1.1/DTD/svg11.dtd" >
<svg xmlns="http://www.w3.org/2000/svg" xmlns:xlink="http://www.w3.org/1999/xlink" version="1.1" viewBox="-10 0 930 1000">
   <path fill="currentColor"
d="M813 58v481h-79v-481h79zM465 202h107v-126h76v459h-76v-133h-107v-63h107v-74h-107v-63zM215 178v266c37 -1 77 -2 115 -4v-262h-115zM495 427l5 60c-138 22 -323 27 -442 27l-9 -68h93v-268h-78v-66h415v66h-76v258c33 -2 64 -5 92 -9zM304 880h541v64h-622v-218h509
v-83h-511v-64h592v208h-509v93z" />
</svg>
