<?xml version="1.0" standalone="no"?>
<!DOCTYPE svg PUBLIC "-//W3C//DTD SVG 1.1//EN" "http://www.w3.org/Graphics/SVG/1.1/DTD/svg11.dtd" >
<svg xmlns="http://www.w3.org/2000/svg" xmlns:xlink="http://www.w3.org/1999/xlink" version="1.1" viewBox="-10 0 930 1000">
   <path fill="currentColor"
d="M811 58v473h-79v-473h79zM455 192h113v-116h76v451h-76v-126h-113v-62h113v-85h-113v-62zM211 176v263c38 -1 76 -2 114 -4v-259h-114zM484 422l5 60c-132 22 -315 27 -429 27l-9 -68h86v-265h-71v-66h403v66h-71v255c30 -3 59 -5 86 -9zM713 568v91c0 97 49 190 153 234
l-45 61c-74 -33 -121 -89 -148 -158c-27 73 -76 132 -151 166l-42 -55l4 26c-80 16 -143 17 -270 17h-48v-222h219v-89h-221v-64h300v212h-219v99c103 0 160 -2 230 -17l4 29c103 -45 154 -140 154 -243v-87h80z" />
</svg>
