<?xml version="1.0" standalone="no"?>
<!DOCTYPE svg PUBLIC "-//W3C//DTD SVG 1.1//EN" "http://www.w3.org/Graphics/SVG/1.1/DTD/svg11.dtd" >
<svg xmlns="http://www.w3.org/2000/svg" xmlns:xlink="http://www.w3.org/1999/xlink" version="1.1" viewBox="-10 0 930 1000">
   <path fill="currentColor"
d="M457 210h115v-133h76v505h-76v-156h-117v-64h117v-88h-115v-64zM212 191v278c37 -1 76 -2 114 -4v-274h-114zM489 452l4 61c-135 22 -318 26 -433 26l-9 -68c26 0 55 0 87 -1v-279h-72v-67h403v67h-70v269c32 -2 62 -4 90 -8zM300 685v195h430v-195h-430zM218 946v-326
h594v326h-594zM733 58h79v527h-79v-527z" />
</svg>
