<?xml version="1.0" standalone="no"?>
<!DOCTYPE svg PUBLIC "-//W3C//DTD SVG 1.1//EN" "http://www.w3.org/Graphics/SVG/1.1/DTD/svg11.dtd" >
<svg xmlns="http://www.w3.org/2000/svg" xmlns:xlink="http://www.w3.org/1999/xlink" version="1.1" viewBox="-10 0 930 1000">
   <path fill="currentColor"
d="M262 181v171h140v-171h-140zM611 488l6 61c-185 30 -396 35 -556 36l-9 -69c72 0 155 -1 241 -4v-95h-199v-65h89v-171h-91v-65h479v65h-90v171h89v65h-195v91c80 -4 162 -10 236 -20zM797 704h-148c2 88 63 160 167 190l-43 61c-78 -25 -133 -73 -163 -135
c-30 63 -89 112 -170 138l-41 -59c-71 29 -158 36 -216 36h-46v-289h80v217c58 -4 143 -15 192 -48l22 69l-3 2c92 -35 143 -106 144 -182h-148v-65h373v65zM750 324h130v67h-130v223h-82v-557h82v267z" />
</svg>
