<?xml version="1.0" standalone="no"?>
<!DOCTYPE svg PUBLIC "-//W3C//DTD SVG 1.1//EN" "http://www.w3.org/Graphics/SVG/1.1/DTD/svg11.dtd" >
<svg xmlns="http://www.w3.org/2000/svg" xmlns:xlink="http://www.w3.org/1999/xlink" version="1.1" viewBox="-10 0 930 1000">
   <path fill="currentColor"
d="M262 171v151h140v-151h-140zM611 444l6 60c-185 29 -393 34 -556 34l-9 -68c74 0 157 -1 243 -4v-81h-201v-63h89v-151h-91v-64h479v64h-90v151h88v63h-192v78c80 -4 161 -9 234 -19zM216 796v93c113 0 185 -3 276 -19l8 60c-100 17 -178 20 -308 20h-54v-211h218v-82
h-220v-61h297v200h-217zM472 659v-64h278v358h-84v-294h-194zM881 289v67h-131v193h-82v-491h82v231h131z" />
</svg>
