<?xml version="1.0" standalone="no"?>
<!DOCTYPE svg PUBLIC "-//W3C//DTD SVG 1.1//EN" "http://www.w3.org/Graphics/SVG/1.1/DTD/svg11.dtd" >
<svg xmlns="http://www.w3.org/2000/svg" xmlns:xlink="http://www.w3.org/1999/xlink" version="1.1" viewBox="-10 0 930 1000">
   <path fill="currentColor"
d="M262 171v151h140v-151h-140zM612 447l6 61c-185 29 -395 34 -557 35l-10 -69c74 0 158 -1 244 -3v-86h-201v-63h89v-151h-91v-64h479v64h-90v151h88v63h-192v82c81 -4 161 -10 235 -20zM208 797v92c94 0 153 -2 226 -15l9 61c-86 16 -151 17 -266 17h-47v-211h205v-85
h-208v-61h286v202h-205zM542 654v242h138v-242h-138zM472 956v-361h278v361h-278zM881 289v67h-131v193h-82v-491h82v231h131z" />
</svg>
