<?xml version="1.0" standalone="no"?>
<!DOCTYPE svg PUBLIC "-//W3C//DTD SVG 1.1//EN" "http://www.w3.org/Graphics/SVG/1.1/DTD/svg11.dtd" >
<svg xmlns="http://www.w3.org/2000/svg" xmlns:xlink="http://www.w3.org/1999/xlink" version="1.1" viewBox="-10 0 930 1000">
   <path fill="currentColor"
d="M262 171v151h140v-151h-140zM611 447l6 60c-185 29 -393 34 -555 34l-10 -68c74 0 158 -1 243 -3v-85h-201v-63h89v-151h-91v-64h479v64h-90v151h88v63h-192v81c80 -4 161 -9 234 -19zM255 799v84h520v63h-603v-350h582v63h-499v81h489v59h-489zM750 289h131v67h-131v193
h-82v-491h82v231z" />
</svg>
