<?xml version="1.0" standalone="no"?>
<!DOCTYPE svg PUBLIC "-//W3C//DTD SVG 1.1//EN" "http://www.w3.org/Graphics/SVG/1.1/DTD/svg11.dtd" >
<svg xmlns="http://www.w3.org/2000/svg" xmlns:xlink="http://www.w3.org/1999/xlink" version="1.1" viewBox="-10 0 930 1000">
   <path fill="currentColor"
d="M631 383v197h-78v-508h78v243h108v-260h78v527h-78v-199h-108zM233 181v171h106v-171h-106zM512 489l6 60c-144 27 -332 32 -453 32l-10 -69c54 0 122 -1 193 -3v-92h-163v-65h74v-171h-73v-65h400v65h-73v171h69v65h-152v88c64 -3 128 -8 182 -16zM232 657v214
c58 -2 130 -10 196 -33l14 67c-89 29 -177 34 -246 34h-45v-282h81zM633 908c55 0 94 -18 94 -48c0 -28 -39 -46 -94 -46s-94 18 -94 46c0 30 39 48 94 48zM633 763c96 0 166 38 166 97c0 61 -70 99 -166 99s-166 -38 -166 -99c0 -59 70 -97 166 -97zM673 670h180v61h-440
v-61h180v-65h80v65z" />
</svg>
