<?xml version="1.0" standalone="no"?>
<!DOCTYPE svg PUBLIC "-//W3C//DTD SVG 1.1//EN" "http://www.w3.org/Graphics/SVG/1.1/DTD/svg11.dtd" >
<svg xmlns="http://www.w3.org/2000/svg" xmlns:xlink="http://www.w3.org/1999/xlink" version="1.1" viewBox="-10 0 930 1000">
   <path fill="currentColor"
d="M631 346v199h-78v-472h78v206h108v-223h78v494h-78v-204h-108zM233 173v145h104v-145h-104zM512 450l6 61c-142 25 -331 30 -453 30l-10 -69c54 0 122 -1 193 -3v-88h-163v-63h77v-145h-77v-63h401v63h-78v145h74v63h-152v85c64 -3 129 -8 182 -16zM244 795v93
c97 0 157 -3 234 -17l7 61c-87 17 -156 18 -273 18h-48v-209h222v-79h-225v-62h305v195h-222zM638 663v223h69v-223h-69zM773 886h64v63h-329v-63h65v-223h-61v-63h322v63h-61v223z" />
</svg>
