<?xml version="1.0" standalone="no"?>
<!DOCTYPE svg PUBLIC "-//W3C//DTD SVG 1.1//EN" "http://www.w3.org/Graphics/SVG/1.1/DTD/svg11.dtd" >
<svg xmlns="http://www.w3.org/2000/svg" xmlns:xlink="http://www.w3.org/1999/xlink" version="1.1" viewBox="-10 0 930 1000">
   <path fill="currentColor"
d="M631 346v199h-78v-472h78v206h108v-223h78v494h-78v-204h-108zM233 173v145h104v-145h-104zM512 451l5 60c-142 25 -330 30 -452 30l-10 -69c54 0 122 -1 193 -3v-88h-163v-63h77v-145h-77v-63h401v63h-78v145h74v63h-152v85c64 -3 128 -8 182 -15zM283 882h559v64h-641
v-350h624v63h-542v79h531v60h-531v84z" />
</svg>
