<?xml version="1.0" standalone="no"?>
<!DOCTYPE svg PUBLIC "-//W3C//DTD SVG 1.1//EN" "http://www.w3.org/Graphics/SVG/1.1/DTD/svg11.dtd" >
<svg xmlns="http://www.w3.org/2000/svg" xmlns:xlink="http://www.w3.org/1999/xlink" version="1.1" viewBox="-10 0 930 1000">
   <path fill="currentColor"
d="M781 59v496h-82v-496h82zM273 171v147h141v-147h-141zM629 443l7 61c-190 27 -401 33 -569 33l-13 -69c77 0 163 -1 249 -4v-82h-205v-64h95v-147h-94v-63h482v63h-88v147h87v64h-195v79c83 -4 167 -10 244 -18zM233 797v91c92 0 151 -3 224 -16l8 61
c-85 16 -151 17 -264 17h-47v-208h211v-80h-213v-62h292v197h-211zM614 665v219h72v-219h-72zM753 884h60v65h-326v-65h61v-219h-58v-65h315v65h-52v219z" />
</svg>
