<?xml version="1.0" standalone="no"?>
<!DOCTYPE svg PUBLIC "-//W3C//DTD SVG 1.1//EN" "http://www.w3.org/Graphics/SVG/1.1/DTD/svg11.dtd" >
<svg xmlns="http://www.w3.org/2000/svg" xmlns:xlink="http://www.w3.org/1999/xlink" version="1.1" viewBox="-10 0 930 1000">
   <path fill="currentColor"
d="M781 59v496h-82v-496h82zM273 171v147h141v-147h-141zM630 443l6 61c-190 27 -402 33 -570 33l-13 -69c77 0 163 -1 250 -4v-82h-205v-64h95v-147h-94v-63h483v63h-89v147h87v64h-195v79c84 -4 167 -10 245 -18zM215 803v85c97 0 156 -3 227 -17l8 62
c-82 15 -147 17 -266 17h-48v-204h202v-84h-204v-61h283v202h-202zM630 906c49 0 83 -22 83 -58s-34 -58 -83 -58c-48 0 -82 22 -82 58s34 58 82 58zM630 734c88 0 153 44 153 114s-65 114 -153 114s-152 -44 -152 -114s64 -114 152 -114zM670 645h147v61h-370v-61h143v-79
h80v79z" />
</svg>
