<?xml version="1.0" standalone="no"?>
<!DOCTYPE svg PUBLIC "-//W3C//DTD SVG 1.1//EN" "http://www.w3.org/Graphics/SVG/1.1/DTD/svg11.dtd" >
<svg xmlns="http://www.w3.org/2000/svg" xmlns:xlink="http://www.w3.org/1999/xlink" version="1.1" viewBox="-10 0 930 1000">
   <path fill="currentColor"
d="M273 178v163h141v-163h-141zM627 480l7 62c-191 29 -403 34 -570 35l-12 -70c76 0 162 -1 250 -5v-96h-199v-65h90v-163h-90v-65h483v65h-93v163h92v65h-201v93c84 -4 166 -9 243 -19zM270 716v164h427v-164h-427zM185 944v-292h596v292h-596zM699 58h82v551h-82v-551z
" />
</svg>
