<?xml version="1.0" standalone="no"?>
<!DOCTYPE svg PUBLIC "-//W3C//DTD SVG 1.1//EN" "http://www.w3.org/Graphics/SVG/1.1/DTD/svg11.dtd" >
<svg xmlns="http://www.w3.org/2000/svg" xmlns:xlink="http://www.w3.org/1999/xlink" version="1.1" viewBox="-10 0 930 1000">
   <path fill="currentColor"
d="M781 58v539h-82v-539h82zM273 178v163h141v-163h-141zM640 473l5 60c-197 29 -414 36 -585 36l-12 -68c78 0 165 -1 254 -4v-91h-199v-65h90v-163h-90v-65h483v65h-93v163h92v65h-201v88c87 -5 174 -10 256 -21zM789 713h-258c17 87 150 158 302 174l-28 63
c-140 -17 -265 -75 -319 -160c-55 83 -180 143 -317 160l-28 -63c148 -16 285 -90 302 -174h-258v-65h604v65z" />
</svg>
