<?xml version="1.0" standalone="no"?>
<!DOCTYPE svg PUBLIC "-//W3C//DTD SVG 1.1//EN" "http://www.w3.org/Graphics/SVG/1.1/DTD/svg11.dtd" >
<svg xmlns="http://www.w3.org/2000/svg" xmlns:xlink="http://www.w3.org/1999/xlink" version="1.1" viewBox="-10 0 930 1000">
   <path fill="currentColor"
d="M781 58v542h-82v-542h82zM273 171v147h141v-147h-141zM640 450l4 57c-196 29 -414 35 -584 36l-12 -65c78 0 165 -1 255 -5v-91h-205v-64h95v-147h-94v-63h483v63h-89v147h87v64h-195v88c87 -4 173 -10 255 -20zM803 733h-273c28 75 153 136 298 151l-27 62
c-140 -16 -264 -71 -319 -152c-55 82 -180 139 -319 155l-28 -62c146 -15 270 -78 299 -154h-276v-65h283v-91h82v91h280v65z" />
</svg>
