<?xml version="1.0" standalone="no"?>
<!DOCTYPE svg PUBLIC "-//W3C//DTD SVG 1.1//EN" "http://www.w3.org/Graphics/SVG/1.1/DTD/svg11.dtd" >
<svg xmlns="http://www.w3.org/2000/svg" xmlns:xlink="http://www.w3.org/1999/xlink" version="1.1" viewBox="-10 0 930 1000">
   <path fill="currentColor"
d="M219 794v95c113 0 185 -3 276 -19l6 61c-100 17 -179 19 -312 19h-54v-215h217v-80h-219v-62h303v201h-217zM474 658v-65h297v361h-82v-296h-215zM353 371v92h197v-92h-197zM339 147v162h225v-162h-225zM632 463h224v65h-809v-65h224v-92h-146v-62h132v-162h-135v-64h658
v64h-135v162h131v62h-144v92z" />
</svg>
