<?xml version="1.0" standalone="no"?>
<!DOCTYPE svg PUBLIC "-//W3C//DTD SVG 1.1//EN" "http://www.w3.org/Graphics/SVG/1.1/DTD/svg11.dtd" >
<svg xmlns="http://www.w3.org/2000/svg" xmlns:xlink="http://www.w3.org/1999/xlink" version="1.1" viewBox="-10 0 930 1000">
   <path fill="currentColor"
d="M212 798v92c73 -1 143 -2 230 -15l9 60c-106 14 -185 15 -273 15h-47v-210h212v-86h-214v-62h295v206h-212zM703 885v-116h-152v116h152zM703 708v-117h76v356h-304v-356h76v117h152zM353 371v92h197v-92h-197zM339 147v162h225v-162h-225zM632 463h225v65h-810v-65h224
v-92h-146v-62h132v-162h-135v-64h658v64h-135v162h131v62h-144v92z" />
</svg>
