<?xml version="1.0" standalone="no"?>
<!DOCTYPE svg PUBLIC "-//W3C//DTD SVG 1.1//EN" "http://www.w3.org/Graphics/SVG/1.1/DTD/svg11.dtd" >
<svg xmlns="http://www.w3.org/2000/svg" xmlns:xlink="http://www.w3.org/1999/xlink" version="1.1" viewBox="-10 0 930 1000">
   <path fill="currentColor"
d="M208 796v95c85 -1 153 -4 240 -16l6 60c-101 15 -176 17 -276 17h-49v-215h222v-80h-224v-61h303v200h-222zM555 799v85h236v64h-314v-353h306v64h-228v81h218v59h-218zM353 371v92h197v-92h-197zM339 147v162h225v-162h-225zM632 463h225v65h-810v-65h224v-92h-145v-62
h131v-162h-135v-64h658v64h-135v162h131v62h-144v92z" />
</svg>
