<?xml version="1.0" standalone="no"?>
<!DOCTYPE svg PUBLIC "-//W3C//DTD SVG 1.1//EN" "http://www.w3.org/Graphics/SVG/1.1/DTD/svg11.dtd" >
<svg xmlns="http://www.w3.org/2000/svg" xmlns:xlink="http://www.w3.org/1999/xlink" version="1.1" viewBox="-10 0 930 1000">
   <path fill="currentColor"
d="M207 790v98c108 0 164 -2 236 -15l9 61c-82 15 -144 16 -273 16h-48v-220h198v-85h-201v-61h278v206h-199zM627 906c49 0 81 -23 81 -60c0 -38 -32 -61 -81 -61c-48 0 -81 23 -81 61c0 37 33 60 81 60zM627 729c87 0 152 45 152 117c0 71 -65 116 -152 116
c-86 0 -151 -45 -151 -116c0 -72 65 -117 151 -117zM667 559v79h150v61h-377v-61h147v-79h80zM353 371v92h197v-92h-197zM339 147v162h225v-162h-225zM632 463h225v65h-810v-65h224v-92h-146v-62h132v-162h-135v-64h658v64h-135v162h131v62h-144v92z" />
</svg>
