<?xml version="1.0" standalone="no"?>
<!DOCTYPE svg PUBLIC "-//W3C//DTD SVG 1.1//EN" "http://www.w3.org/Graphics/SVG/1.1/DTD/svg11.dtd" >
<svg xmlns="http://www.w3.org/2000/svg" xmlns:xlink="http://www.w3.org/1999/xlink" version="1.1" viewBox="-10 0 930 1000">
   <path fill="currentColor"
d="M773 717h-279c4 104 138 165 308 180l-30 63c-142 -14 -268 -61 -322 -146c-53 89 -180 132 -324 147l-28 -64c174 -15 305 -70 305 -180h-272v-65h642v65zM354 402v103h196v-103h-196zM340 158v177h224v-177h-224zM632 505h226v66h-811v-66h225v-103h-147v-67h133v-177
h-135v-67h658v67h-135v177h131v67h-145v103z" />
</svg>
