<?xml version="1.0" standalone="no"?>
<!DOCTYPE svg PUBLIC "-//W3C//DTD SVG 1.1//EN" "http://www.w3.org/Graphics/SVG/1.1/DTD/svg11.dtd" >
<svg xmlns="http://www.w3.org/2000/svg" xmlns:xlink="http://www.w3.org/1999/xlink" version="1.1" viewBox="-10 0 930 1000">
   <path fill="currentColor"
d="M451 918c111 0 177 -22 177 -61s-66 -61 -177 -61s-177 22 -177 61s66 61 177 61zM451 743c165 0 261 40 261 114s-96 114 -261 114s-261 -40 -261 -114s96 -114 261 -114zM493 547v85h290v63h-664v-63h292v-85h82zM353 371v94h197v-94h-197zM339 147v162h225v-162h-225z
M632 465h225v65h-810v-65h224v-94h-146v-62h132v-162h-135v-64h658v64h-135v162h131v62h-144v94z" />
</svg>
