<?xml version="1.0" standalone="no"?>
<!DOCTYPE svg PUBLIC "-//W3C//DTD SVG 1.1//EN" "http://www.w3.org/Graphics/SVG/1.1/DTD/svg11.dtd" >
<svg xmlns="http://www.w3.org/2000/svg" xmlns:xlink="http://www.w3.org/1999/xlink" version="1.1" viewBox="-10 0 930 1000">
   <path fill="currentColor"
d="M564 309v-164h-224v164h224zM258 309v-164h-135v-63h659v63h-136v164h131v63h-652v-63h133zM634 906c49 0 82 -24 82 -62s-33 -61 -82 -61c-48 0 -80 23 -80 61s32 62 80 62zM634 727c88 0 152 45 152 117s-64 118 -152 118c-86 0 -150 -46 -150 -118s64 -117 150 -117z
M674 558v77h150v61h-376v-61h146v-77h80zM48 447h810v65h-366v107h-76v173h-206v93c113 0 171 -2 245 -16l8 62c-83 15 -146 16 -281 16h-50v-214h206v-84h-208v-61h280l1 -76h-363v-65z" />
</svg>
