<?xml version="1.0" standalone="no"?>
<!DOCTYPE svg PUBLIC "-//W3C//DTD SVG 1.1//EN" "http://www.w3.org/Graphics/SVG/1.1/DTD/svg11.dtd" >
<svg xmlns="http://www.w3.org/2000/svg" xmlns:xlink="http://www.w3.org/1999/xlink" version="1.1" viewBox="-10 0 930 1000">
   <path fill="currentColor"
d="M569 345v-188h-223v188h223zM264 345v-188h-135v-67h658v67h-136v188h132v66h-651v-66h132zM682 800c0 -58 -83 -91 -223 -91c-142 0 -225 33 -225 91s83 91 225 91c140 0 223 -33 223 -91zM864 561h-364v87c167 8 265 60 265 152c0 99 -115 153 -306 153
c-194 0 -308 -54 -308 -153c0 -93 99 -145 267 -152v-87h-365v-67h811v67z" />
</svg>
