<?xml version="1.0" standalone="no"?>
<!DOCTYPE svg PUBLIC "-//W3C//DTD SVG 1.1//EN" "http://www.w3.org/Graphics/SVG/1.1/DTD/svg11.dtd" >
<svg xmlns="http://www.w3.org/2000/svg" xmlns:xlink="http://www.w3.org/1999/xlink" version="1.1" viewBox="-10 0 930 1000">
   <path fill="currentColor"
d="M506 499h197v-441h82v531h-82v-33h-197v-57zM412 298v-132h-144v132h144zM189 298v-132h-89v-62h479v62h-88v132h89v62h-479v-62h88zM288 590v-110c-82 2 -160 2 -231 2l-10 -65c174 0 390 -2 578 -20l6 59c-84 10 -174 16 -261 21v113h-82zM263 884h548v61h-631v-195
h520v-75h-522v-59h605v189h-520v79z" />
</svg>
