<?xml version="1.0" standalone="no"?>
<!DOCTYPE svg PUBLIC "-//W3C//DTD SVG 1.1//EN" "http://www.w3.org/Graphics/SVG/1.1/DTD/svg11.dtd" >
<svg xmlns="http://www.w3.org/2000/svg" xmlns:xlink="http://www.w3.org/1999/xlink" version="1.1" viewBox="-10 0 930 1000">
   <path fill="currentColor"
d="M507 533h196v-475h82v573h-82v-37h-196v-61zM419 314v-149h-144v149h144zM196 314v-149h-90v-63h478v63h-86v149h86v63h-477v-63h89zM289 632v-130c-80 3 -159 4 -229 4l-12 -68c174 0 390 -2 578 -20l6 60c-84 10 -174 16 -261 21v133h-82zM680 658v28
c0 91 69 183 186 220l-41 60c-88 -30 -151 -88 -183 -160c-27 74 -79 139 -162 172v1h-1v-1c-84 -32 -136 -95 -163 -169c-34 70 -96 127 -182 157l-40 -60c116 -37 184 -129 184 -220v-28h79v28c0 80 41 163 122 212c81 -49 121 -133 121 -212v-28h80z" />
</svg>
