<?xml version="1.0" standalone="no"?>
<!DOCTYPE svg PUBLIC "-//W3C//DTD SVG 1.1//EN" "http://www.w3.org/Graphics/SVG/1.1/DTD/svg11.dtd" >
<svg xmlns="http://www.w3.org/2000/svg" xmlns:xlink="http://www.w3.org/1999/xlink" version="1.1" viewBox="-10 0 930 1000">
   <path fill="currentColor"
d="M506 534h197v-476h82v576h-82v-39h-197v-61zM419 314v-149h-144v149h144zM196 314v-149h-90v-63h478v63h-86v149h86v63h-477v-63h89zM289 637v-135c-81 3 -159 4 -230 4l-11 -68c174 0 390 -2 578 -20l6 60c-84 10 -174 16 -261 21v138h-82zM395 723v160h190v-160h-190z
M666 883h142v61h-638v-61h143v-160h-134v-61h621v61h-134v160z" />
</svg>
