<?xml version="1.0" standalone="no"?>
<!DOCTYPE svg PUBLIC "-//W3C//DTD SVG 1.1//EN" "http://www.w3.org/Graphics/SVG/1.1/DTD/svg11.dtd" >
<svg xmlns="http://www.w3.org/2000/svg" xmlns:xlink="http://www.w3.org/1999/xlink" version="1.1" viewBox="-10 0 930 1000">
   <path fill="currentColor"
d="M411 532h160v-455h77v553h-77v-40h-160v-58zM336 315v-142h-101v142h101zM159 315v-142h-74v-63h403v63h-76v142h71v63h-397v-63h73zM244 632v-129c-66 3 -129 5 -182 5l-8 -67c129 -1 325 -7 460 -21l6 59c-58 8 -127 14 -194 19v134h-82zM172 733v-65h305v289h-82v-224
h-223zM521 733v-65h296v289h-82v-224h-214zM739 58h79v576h-79v-576z" />
</svg>
