<?xml version="1.0" standalone="no"?>
<!DOCTYPE svg PUBLIC "-//W3C//DTD SVG 1.1//EN" "http://www.w3.org/Graphics/SVG/1.1/DTD/svg11.dtd" >
<svg xmlns="http://www.w3.org/2000/svg" xmlns:xlink="http://www.w3.org/1999/xlink" version="1.1" viewBox="-10 0 930 1000">
   <path fill="currentColor"
d="M817 57v531h-78v-531h78zM417 494h159v-422h77v516h-77v-38h-159v-56zM235 166v127h102v-127h-102zM483 293v61h-397v-61h75v-127h-75v-61h402v61h-77v127h72zM251 586v-115c-67 4 -133 6 -186 6l-9 -66c131 -1 330 -6 467 -22l6 58c-60 8 -128 14 -196 19v120h-82z
M238 810v81c107 0 171 -3 251 -16l7 58c-90 16 -160 17 -286 17h-49v-196h233v-75h-236v-60h314v191h-234zM596 886h238v61h-317v-329h308v61h-229v73h219v56h-219v78z" />
</svg>
