<?xml version="1.0" standalone="no"?>
<!DOCTYPE svg PUBLIC "-//W3C//DTD SVG 1.1//EN" "http://www.w3.org/Graphics/SVG/1.1/DTD/svg11.dtd" >
<svg xmlns="http://www.w3.org/2000/svg" xmlns:xlink="http://www.w3.org/1999/xlink" version="1.1" viewBox="-10 0 930 1000">
   <path fill="currentColor"
d="M818 58v576h-79v-576h79zM412 532h159v-455h77v553h-77v-40h-159v-58zM336 315v-142h-101v142h101zM159 315v-142h-74v-63h403v63h-76v142h71v63h-397v-63h73zM244 631v-128c-66 3 -129 5 -182 5l-8 -67c129 -1 326 -7 461 -21l6 59c-59 8 -127 14 -195 19v133h-82z
M407 727v154h205v-154h-205zM693 881h142v64h-657v-64h147v-154h-139v-63h643v63h-136v154z" />
</svg>
