<?xml version="1.0" standalone="no"?>
<!DOCTYPE svg PUBLIC "-//W3C//DTD SVG 1.1//EN" "http://www.w3.org/Graphics/SVG/1.1/DTD/svg11.dtd" >
<svg xmlns="http://www.w3.org/2000/svg" xmlns:xlink="http://www.w3.org/1999/xlink" version="1.1" viewBox="-10 0 930 1000">
   <path fill="currentColor"
d="M818 58v555h-79v-555h79zM417 479h159v-407h77v507h-77v-43h-159v-57zM235 163v117h102v-117h-102zM483 280v61h-397v-61h75v-117h-75v-61h402v61h-77v117h72zM253 605v-150c-69 3 -134 5 -188 5l-9 -63c128 0 327 -3 467 -21l5 54c-60 9 -128 16 -196 21v154h-79z
M501 902c111 0 171 -14 171 -44s-60 -44 -171 -44c-110 0 -170 14 -170 44s60 44 170 44zM502 761c164 0 254 32 254 97s-90 97 -254 97c-166 0 -255 -32 -255 -97s89 -97 255 -97zM544 664h288v61h-659v-61h289v-75h82v75z" />
</svg>
