<?xml version="1.0" standalone="no"?>
<!DOCTYPE svg PUBLIC "-//W3C//DTD SVG 1.1//EN" "http://www.w3.org/Graphics/SVG/1.1/DTD/svg11.dtd" >
<svg xmlns="http://www.w3.org/2000/svg" xmlns:xlink="http://www.w3.org/1999/xlink" version="1.1" viewBox="-10 0 930 1000">
   <path fill="currentColor"
d="M787 58v501h-82v-501h82zM427 315v-155h-142v155h142zM205 315v-155h-91v-62h483v62h-90v155h87v62h-476v-62h87zM267 882h552v62h-632v-205h519v-77h-521v-61h115v-88c-83 3 -163 3 -235 3l-11 -66c174 0 395 0 592 -19l5 57c-88 11 -180 18 -269 23v90h405v196h-520v85
z" />
</svg>
