<?xml version="1.0" standalone="no"?>
<!DOCTYPE svg PUBLIC "-//W3C//DTD SVG 1.1//EN" "http://www.w3.org/Graphics/SVG/1.1/DTD/svg11.dtd" >
<svg xmlns="http://www.w3.org/2000/svg" xmlns:xlink="http://www.w3.org/1999/xlink" version="1.1" viewBox="-10 0 930 1000">
   <path fill="currentColor"
d="M423 343v-177h-141v177h141zM202 343v-177h-90v-65h487v65h-96v177h93v65h-481v-65h87zM706 876v-154h-431v154h431zM388 551v106h398v285h-591v-285h111v-102c-87 2 -171 3 -245 3l-12 -67c178 0 398 -1 595 -21l5 59c-85 11 -175 18 -261 22zM704 57h82v556h-82v-556z
" />
</svg>
