<?xml version="1.0" standalone="no"?>
<!DOCTYPE svg PUBLIC "-//W3C//DTD SVG 1.1//EN" "http://www.w3.org/Graphics/SVG/1.1/DTD/svg11.dtd" >
<svg xmlns="http://www.w3.org/2000/svg" xmlns:xlink="http://www.w3.org/1999/xlink" version="1.1" viewBox="-10 0 930 1000">
   <path fill="currentColor"
d="M781 58v493h-82v-493h82zM428 318v-158h-143v158h143zM206 318v-158h-91v-62h483v62h-91v158h87v61h-475v-61h87zM269 883h540v63h-622v-342h129v-85c-87 3 -170 4 -244 4l-12 -69c172 0 388 -1 578 -19l5 60c-80 10 -164 16 -246 21v88h393v63h-521v76h510v59h-510v81z
" />
</svg>
