<?xml version="1.0" standalone="no"?>
<!DOCTYPE svg PUBLIC "-//W3C//DTD SVG 1.1//EN" "http://www.w3.org/Graphics/SVG/1.1/DTD/svg11.dtd" >
<svg xmlns="http://www.w3.org/2000/svg" xmlns:xlink="http://www.w3.org/1999/xlink" version="1.1" viewBox="-10 0 930 1000">
   <path fill="currentColor"
d="M781 58v557h-82v-557h82zM424 346v-177h-143v177h143zM202 346v-177h-90v-65h487v65h-96v177h94v65h-482v-65h87zM399 706v173h185v-173h-185zM665 879h145v65h-635v-65h142v-173h-134v-66h126v-92c-85 4 -167 5 -240 5l-12 -70c175 0 392 -2 584 -20l5 60
c-84 11 -171 17 -256 22v95h410v66h-135v173z" />
</svg>
