<?xml version="1.0" standalone="no"?>
<!DOCTYPE svg PUBLIC "-//W3C//DTD SVG 1.1//EN" "http://www.w3.org/Graphics/SVG/1.1/DTD/svg11.dtd" >
<svg xmlns="http://www.w3.org/2000/svg" xmlns:xlink="http://www.w3.org/1999/xlink" version="1.1" viewBox="-10 0 930 1000">
   <path fill="currentColor"
d="M565 337v-183h-225v183h225zM259 337v-183h-135v-66h658v66h-135v183h131v66h-652v-66h133zM858 544h-210v99h29v38c0 87 55 175 157 216l-44 60c-75 -30 -127 -87 -155 -154c-29 68 -84 126 -161 157l-46 -62c108 -41 167 -135 167 -216v-13h-29v-125h-225v108h83v303
h-82v-236h-214v-67h131v-108h-212v-67h811v67z" />
</svg>
