<?xml version="1.0" standalone="no"?>
<!DOCTYPE svg PUBLIC "-//W3C//DTD SVG 1.1//EN" "http://www.w3.org/Graphics/SVG/1.1/DTD/svg11.dtd" >
<svg xmlns="http://www.w3.org/2000/svg" xmlns:xlink="http://www.w3.org/1999/xlink" version="1.1" viewBox="-10 0 930 1000">
   <path fill="currentColor"
d="M565 309v-164h-225v164h225zM258 309v-164h-135v-63h659v63h-136v164h133v62h-652v-62h131zM858 502h-216v91h141v62h-226v83h216v58h-216v90h234v62h-314v-355h84v-91h-213v91h82v206h-223v89c109 0 167 -2 241 -17l6 62c-82 16 -146 17 -276 17h-48v-210h223v-84h-225
v-63h138v-91h-219v-66h811v66z" />
</svg>
