<?xml version="1.0" standalone="no"?>
<!DOCTYPE svg PUBLIC "-//W3C//DTD SVG 1.1//EN" "http://www.w3.org/Graphics/SVG/1.1/DTD/svg11.dtd" >
<svg xmlns="http://www.w3.org/2000/svg" xmlns:xlink="http://www.w3.org/1999/xlink" version="1.1" viewBox="-10 0 930 1000">
   <path fill="currentColor"
d="M564 309v-164h-224v164h224zM258 309v-164h-135v-64h658v64h-135v164h132v63h-652v-63h132zM366 883v-112h-162v112h162zM858 507h-216v99h41v60c0 84 56 179 156 225l-43 64c-73 -33 -124 -92 -152 -160c-29 69 -83 128 -159 160l-43 -61v54h-316v-337h78v98h162v-98h76
v278c101 -44 159 -135 159 -215v-42h-41v-125h-213v125h-81v-125h-219v-65h811v65z" />
</svg>
