<?xml version="1.0" standalone="no"?>
<!DOCTYPE svg PUBLIC "-//W3C//DTD SVG 1.1//EN" "http://www.w3.org/Graphics/SVG/1.1/DTD/svg11.dtd" >
<svg xmlns="http://www.w3.org/2000/svg" xmlns:xlink="http://www.w3.org/1999/xlink" version="1.1" viewBox="-10 0 930 1000">
   <path fill="currentColor"
d="M564 337v-181h-224v181h224zM258 337v-181h-135v-66h658v66h-135v181h132v66h-653v-66h133zM124 712v-68h300v314h-81v-246h-219zM670 638v47c0 93 51 180 154 216l-45 63c-75 -30 -125 -85 -151 -153c-29 66 -81 124 -158 155l-43 -63c107 -42 161 -133 161 -218v-47h82
zM47 496h811v66h-811v-66z" />
</svg>
