<?xml version="1.0" standalone="no"?>
<!DOCTYPE svg PUBLIC "-//W3C//DTD SVG 1.1//EN" "http://www.w3.org/Graphics/SVG/1.1/DTD/svg11.dtd" >
<svg xmlns="http://www.w3.org/2000/svg" xmlns:xlink="http://www.w3.org/1999/xlink" version="1.1" viewBox="-10 0 930 1000">
   <path fill="currentColor"
d="M564 317v-169h-224v169h224zM258 317v-169h-135v-63h658v63h-135v169h132v63h-653v-63h133zM214 798v90c99 0 159 -3 231 -17l8 62c-83 16 -149 17 -271 17h-47v-210h213v-86h-216v-63h295v207h-213zM552 652v241h154v-241h-154zM480 954v-363h299v363h-299zM47 451h811
v65h-811v-65z" />
</svg>
