<?xml version="1.0" standalone="no"?>
<!DOCTYPE svg PUBLIC "-//W3C//DTD SVG 1.1//EN" "http://www.w3.org/Graphics/SVG/1.1/DTD/svg11.dtd" >
<svg xmlns="http://www.w3.org/2000/svg" xmlns:xlink="http://www.w3.org/1999/xlink" version="1.1" viewBox="-10 0 930 1000">
   <path fill="currentColor"
d="M564 337v-181h-224v181h224zM258 337v-181h-134v-66h656v66h-134v181h131v66h-651v-66h132zM452 888c145 0 228 -35 228 -97s-83 -96 -228 -96c-146 0 -230 34 -230 96s84 97 230 97zM452 628c198 0 314 58 314 163c0 106 -116 163 -314 163c-200 0 -316 -57 -316 -163
c0 -105 116 -163 316 -163zM48 496h809v67h-809v-67z" />
</svg>
