<?xml version="1.0" standalone="no"?>
<!DOCTYPE svg PUBLIC "-//W3C//DTD SVG 1.1//EN" "http://www.w3.org/Graphics/SVG/1.1/DTD/svg11.dtd" >
<svg xmlns="http://www.w3.org/2000/svg" xmlns:xlink="http://www.w3.org/1999/xlink" version="1.1" viewBox="-10 0 930 1000">
   <path fill="currentColor"
d="M564 337v-181h-224v181h224zM258 337v-181h-135v-66h658v66h-135v181h132v66h-653v-66h133zM773 715h-280c2 107 136 167 309 182l-30 64c-141 -16 -268 -60 -323 -146c-52 89 -179 130 -323 146l-28 -64c174 -14 305 -69 305 -180v-2h-272v-67h642v67zM47 496h811v66
h-811v-66z" />
</svg>
