<?xml version="1.0" standalone="no"?>
<!DOCTYPE svg PUBLIC "-//W3C//DTD SVG 1.1//EN" "http://www.w3.org/Graphics/SVG/1.1/DTD/svg11.dtd" >
<svg xmlns="http://www.w3.org/2000/svg" xmlns:xlink="http://www.w3.org/1999/xlink" version="1.1" viewBox="-10 0 930 1000">
   <path fill="currentColor"
d="M273 171v147h141v-147h-141zM580 318v64h-482v-64h95v-147h-94v-63h483v63h-89v147h87zM630 435l6 61c-190 27 -402 33 -570 33l-12 -69c174 0 392 -4 576 -25zM223 795v94c97 0 156 -2 230 -16l10 61c-87 15 -153 16 -273 16h-48v-209h210v-83h-212v-62h293v199h-210z
M706 891v-119h-139v119h139zM706 711v-115h75v357h-289v-358h75v116h139zM699 59h82v496h-82v-496z" />
</svg>
