<?xml version="1.0" standalone="no"?>
<!DOCTYPE svg PUBLIC "-//W3C//DTD SVG 1.1//EN" "http://www.w3.org/Graphics/SVG/1.1/DTD/svg11.dtd" >
<svg xmlns="http://www.w3.org/2000/svg" xmlns:xlink="http://www.w3.org/1999/xlink" version="1.1" viewBox="-10 0 930 1000">
   <path fill="currentColor"
d="M781 58v497h-82v-497h82zM273 171v147h141v-147h-141zM580 318v64h-482v-64h95v-147h-94v-63h483v63h-89v147h87zM630 437l6 61c-190 27 -402 33 -570 33l-12 -69c174 0 392 -4 576 -25zM223 796v93c100 0 161 -2 236 -16l6 61c-87 15 -153 16 -272 16h-48v-211h219v-82
h-221v-61h299v200h-219zM574 884h224v63h-302v-351h293v63h-215v81h205v58h-205v86z" />
</svg>
