<?xml version="1.0" standalone="no"?>
<!DOCTYPE svg PUBLIC "-//W3C//DTD SVG 1.1//EN" "http://www.w3.org/Graphics/SVG/1.1/DTD/svg11.dtd" >
<svg xmlns="http://www.w3.org/2000/svg" xmlns:xlink="http://www.w3.org/1999/xlink" version="1.1" viewBox="-10 0 930 1000">
   <path fill="currentColor"
d="M781 59v521h-82v-521h82zM273 177v158h141v-158h-141zM580 335v63h-482v-63h95v-158h-94v-63h483v63h-89v158h87zM630 463l6 61c-190 27 -402 32 -570 33l-12 -69c174 -1 392 -5 576 -25zM394 883v-105h-162v105h162zM712 610v53c0 87 55 184 157 228l-45 64
c-74 -33 -124 -90 -152 -158c-28 70 -82 127 -158 158l-43 -61v54h-316v-334h77v102h162v-102h77v275c103 -42 160 -133 160 -219v-60h81z" />
</svg>
