<?xml version="1.0" standalone="no"?>
<!DOCTYPE svg PUBLIC "-//W3C//DTD SVG 1.1//EN" "http://www.w3.org/Graphics/SVG/1.1/DTD/svg11.dtd" >
<svg xmlns="http://www.w3.org/2000/svg" xmlns:xlink="http://www.w3.org/1999/xlink" version="1.1" viewBox="-10 0 930 1000">
   <path fill="currentColor"
d="M781 58v610h-82v-610h82zM273 178v163h141v-163h-141zM585 341v65h-482v-65h90v-163h-90v-65h483v65h-93v163h92zM627 486l7 62c-191 29 -403 34 -570 35l-12 -70c171 -1 391 -5 575 -27zM530 632v32c0 118 135 204 300 227l-36 65c-132 -23 -252 -83 -305 -178
c-54 95 -175 156 -311 179l-33 -66c167 -22 302 -109 302 -227v-32h83z" />
</svg>
