<?xml version="1.0" standalone="no"?>
<!DOCTYPE svg PUBLIC "-//W3C//DTD SVG 1.1//EN" "http://www.w3.org/Graphics/SVG/1.1/DTD/svg11.dtd" >
<svg xmlns="http://www.w3.org/2000/svg" xmlns:xlink="http://www.w3.org/1999/xlink" version="1.1" viewBox="-10 0 930 1000">
   <path fill="currentColor"
d="M790 57v466h-82v-466h82zM261 182v239c48 -1 97 -3 146 -6v-233h-146zM618 398l4 60c-178 27 -387 33 -545 34l-8 -68c35 0 73 0 112 -1v-241h-88v-65h481v65h-88v229c45 -3 89 -8 132 -13zM288 879h536v65h-617v-224h502v-90h-505v-64h586v215h-502v98z" />
</svg>
