<?xml version="1.0" standalone="no"?>
<!DOCTYPE svg PUBLIC "-//W3C//DTD SVG 1.1//EN" "http://www.w3.org/Graphics/SVG/1.1/DTD/svg11.dtd" >
<svg xmlns="http://www.w3.org/2000/svg" xmlns:xlink="http://www.w3.org/1999/xlink" version="1.1" viewBox="-10 0 930 1000">
   <path fill="currentColor"
d="M781 58v460h-82v-460h82zM252 178v240c48 -1 96 -3 145 -5v-235h-145zM609 397l4 60c-179 26 -386 31 -544 31l-9 -67c35 0 74 -1 113 -1v-242h-88v-66h480v66h-88v230c45 -2 89 -6 132 -11zM702 568v91c0 98 49 191 152 235l-45 61c-72 -32 -120 -88 -147 -157
c-27 73 -76 132 -151 164l-43 -58l4 29c-80 16 -143 17 -269 17h-48v-222h217v-90h-219v-64h298v213h-217v99c102 0 159 -2 228 -17l5 31c104 -44 155 -141 155 -244v-88h80z" />
</svg>
