<?xml version="1.0" standalone="no"?>
<!DOCTYPE svg PUBLIC "-//W3C//DTD SVG 1.1//EN" "http://www.w3.org/Graphics/SVG/1.1/DTD/svg11.dtd" >
<svg xmlns="http://www.w3.org/2000/svg" xmlns:xlink="http://www.w3.org/1999/xlink" version="1.1" viewBox="-10 0 930 1000">
   <path fill="currentColor"
d="M789 58v601h-82v-601h82zM261 202v275c47 -1 97 -3 146 -5v-270h-146zM618 454l5 60c-182 31 -394 34 -546 34l-8 -69c34 0 72 0 112 -1v-276h-88v-67h481v67h-88v265c45 -3 89 -7 132 -13zM540 616v17c0 128 139 226 300 253l-33 64c-135 -26 -256 -96 -309 -200
c-53 104 -175 174 -309 200l-33 -64c160 -27 300 -125 300 -253v-17h84z" />
</svg>
