<?xml version="1.0" standalone="no"?>
<!DOCTYPE svg PUBLIC "-//W3C//DTD SVG 1.1//EN" "http://www.w3.org/Graphics/SVG/1.1/DTD/svg11.dtd" >
<svg xmlns="http://www.w3.org/2000/svg" xmlns:xlink="http://www.w3.org/1999/xlink" version="1.1" viewBox="-10 0 930 1000">
   <path fill="currentColor"
d="M781 58v519h-82v-519h82zM254 187v270c47 -2 96 -3 145 -5v-265h-145zM608 436l5 59c-180 27 -387 31 -545 32l-9 -68c36 0 75 -1 115 -1v-271h-88v-67h480v67h-88v260c44 -2 88 -6 130 -11zM694 614v61c0 92 66 185 181 224l-42 60c-88 -32 -150 -94 -180 -169
c-27 73 -82 141 -165 177c-86 -34 -140 -99 -166 -174c-33 72 -93 134 -179 166l-40 -60c113 -42 180 -138 180 -224v-61h79v61c0 80 41 163 125 212c85 -53 127 -143 127 -212v-61h80z" />
</svg>
