<?xml version="1.0" standalone="no"?>
<!DOCTYPE svg PUBLIC "-//W3C//DTD SVG 1.1//EN" "http://www.w3.org/Graphics/SVG/1.1/DTD/svg11.dtd" >
<svg xmlns="http://www.w3.org/2000/svg" xmlns:xlink="http://www.w3.org/1999/xlink" version="1.1" viewBox="-10 0 930 1000">
   <path fill="currentColor"
d="M254 187v270c48 -2 96 -3 145 -5v-265h-145zM608 436l5 59c-180 27 -387 31 -545 32l-9 -68c36 0 75 -1 115 -1v-271h-88v-67h480v67h-88v260c44 -2 88 -6 130 -11zM180 690v-66h601v331h-82v-119l-530 26l-11 -67l541 -20v-85h-519zM699 58h82v519h-82v-519z" />
</svg>
