<?xml version="1.0" standalone="no"?>
<!DOCTYPE svg PUBLIC "-//W3C//DTD SVG 1.1//EN" "http://www.w3.org/Graphics/SVG/1.1/DTD/svg11.dtd" >
<svg xmlns="http://www.w3.org/2000/svg" xmlns:xlink="http://www.w3.org/1999/xlink" version="1.1" viewBox="-10 0 930 1000">
   <path fill="currentColor"
d="M781 58v460h-82v-460h82zM252 178v240c48 -1 96 -3 145 -5v-235h-145zM609 397l4 60c-179 26 -386 31 -544 31l-9 -67c35 0 74 -1 113 -1v-242h-88v-66h480v66h-88v230c45 -2 89 -6 132 -11zM278 881h526v64h-608v-370h592v64h-510v90h501v60h-501v92z" />
</svg>
