<?xml version="1.0" standalone="no"?>
<!DOCTYPE svg PUBLIC "-//W3C//DTD SVG 1.1//EN" "http://www.w3.org/Graphics/SVG/1.1/DTD/svg11.dtd" >
<svg xmlns="http://www.w3.org/2000/svg" xmlns:xlink="http://www.w3.org/1999/xlink" version="1.1" viewBox="-10 0 930 1000">
   <path fill="currentColor"
d="M585 160v66h-529v-66h223v-107h82v107h224zM457 434c0 -61 -55 -100 -137 -100s-136 39 -136 100c0 60 54 99 136 99s137 -39 137 -99zM106 434c0 -99 87 -162 214 -162c128 0 215 63 215 162c0 98 -87 161 -215 161c-127 0 -214 -63 -214 -161zM677 635v49
c0 92 66 182 180 219l-41 62c-87 -31 -149 -92 -179 -165c-28 71 -82 138 -166 172c-85 -33 -139 -98 -166 -171c-32 71 -92 132 -178 164l-40 -62c112 -39 179 -134 179 -219v-49h79v49c0 79 42 162 125 210c84 -53 127 -141 127 -210v-49h80zM750 318h132v68h-132v221h-83
v-549h83v260z" />
</svg>
