<?xml version="1.0" standalone="no"?>
<!DOCTYPE svg PUBLIC "-//W3C//DTD SVG 1.1//EN" "http://www.w3.org/Graphics/SVG/1.1/DTD/svg11.dtd" >
<svg xmlns="http://www.w3.org/2000/svg" xmlns:xlink="http://www.w3.org/1999/xlink" version="1.1" viewBox="-10 0 930 1000">
   <path fill="currentColor"
d="M585 148v63h-529v-63h223v-98h82v98h224zM184 399c0 55 54 90 136 90s137 -35 137 -90c0 -54 -55 -89 -137 -89s-136 35 -136 89zM535 399c0 91 -86 149 -215 149c-128 0 -214 -58 -214 -149s86 -149 214 -149c129 0 215 58 215 149zM265 798v85h510v62h-592v-352h571v62
h-489v83h478v60h-478zM750 285h133v69h-133v205h-82v-501h82v227z" />
</svg>
