<?xml version="1.0" standalone="no"?>
<!DOCTYPE svg PUBLIC "-//W3C//DTD SVG 1.1//EN" "http://www.w3.org/Graphics/SVG/1.1/DTD/svg11.dtd" >
<svg xmlns="http://www.w3.org/2000/svg" xmlns:xlink="http://www.w3.org/1999/xlink" version="1.1" viewBox="-10 0 930 1000">
   <path fill="currentColor"
d="M620 325v201h-79v-452h79v182h111v-198h79v507h-79v-240h-111zM504 145v63h-456v-63h188v-87h81v87h187zM159 381c0 47 47 79 118 79s118 -32 118 -79c0 -48 -47 -80 -118 -80s-118 32 -118 80zM468 381c0 83 -78 137 -191 137c-114 0 -192 -54 -192 -137
s78 -137 192 -137c113 0 191 54 191 137zM502 910c105 0 168 -22 168 -64s-63 -65 -168 -65c-107 0 -169 23 -169 65s62 64 169 64zM502 724c160 0 253 43 253 122s-93 121 -253 121c-161 0 -255 -42 -255 -121s94 -122 255 -122zM543 623h278v64h-640v-64h280v-79h82v79z
" />
</svg>
