<?xml version="1.0" standalone="no"?>
<!DOCTYPE svg PUBLIC "-//W3C//DTD SVG 1.1//EN" "http://www.w3.org/Graphics/SVG/1.1/DTD/svg11.dtd" >
<svg xmlns="http://www.w3.org/2000/svg" xmlns:xlink="http://www.w3.org/1999/xlink" version="1.1" viewBox="-10 0 930 1000">
   <path fill="currentColor"
d="M585 160v66h-529v-66h223v-107h82v107h224zM184 430c0 60 54 99 136 99s137 -39 137 -99c0 -61 -55 -100 -137 -100s-136 39 -136 100zM535 430c0 98 -87 161 -215 161c-127 0 -214 -63 -214 -161c0 -99 87 -162 214 -162c128 0 215 63 215 162zM368 707v171h192v-171
h-192zM641 707v171h133v66h-621v-66h133v-171h-124v-67h603v67h-124zM880 262h-130v135h130v68h-130v133h-83v-540h83v136h130v68z" />
</svg>
