<?xml version="1.0" standalone="no"?>
<!DOCTYPE svg PUBLIC "-//W3C//DTD SVG 1.1//EN" "http://www.w3.org/Graphics/SVG/1.1/DTD/svg11.dtd" >
<svg xmlns="http://www.w3.org/2000/svg" xmlns:xlink="http://www.w3.org/1999/xlink" version="1.1" viewBox="-10 0 930 1000">
   <path fill="currentColor"
d="M159 435c0 58 47 96 118 96c70 0 118 -38 118 -96s-48 -96 -118 -96c-71 0 -118 38 -118 96zM468 435c0 95 -78 158 -191 158s-192 -63 -192 -158s79 -158 192 -158s191 63 191 158zM171 712v-67h301v311h-82v-244h-219zM317 65v104h187v65h-456v-65h188v-104h81z
M516 712v-67h294v311h-82v-244h-212zM618 388h114v-132h-114v132zM732 57l78 1v545h-78v-148h-114v142h-77v-524h77v116h114v-132z" />
</svg>
