<?xml version="1.0" standalone="no"?>
<!DOCTYPE svg PUBLIC "-//W3C//DTD SVG 1.1//EN" "http://www.w3.org/Graphics/SVG/1.1/DTD/svg11.dtd" >
<svg xmlns="http://www.w3.org/2000/svg" xmlns:xlink="http://www.w3.org/1999/xlink" version="1.1" viewBox="-10 0 930 1000">
   <path fill="currentColor"
d="M557 348h153v-290h82v555h-82v-198h-153v-67zM574 157v66h-520v-66h219v-104h82v104h219zM184 433c0 60 54 102 130 102s130 -42 130 -102c0 -61 -54 -104 -130 -104s-130 43 -130 104zM521 433c0 98 -86 164 -207 164c-122 0 -208 -66 -208 -164c0 -99 86 -166 208 -166
c121 0 207 67 207 166zM283 877h526v65h-608v-286h601v65h-519v156z" />
</svg>
