<?xml version="1.0" standalone="no"?>
<!DOCTYPE svg PUBLIC "-//W3C//DTD SVG 1.1//EN" "http://www.w3.org/Graphics/SVG/1.1/DTD/svg11.dtd" >
<svg xmlns="http://www.w3.org/2000/svg" xmlns:xlink="http://www.w3.org/1999/xlink" version="1.1" viewBox="-10 0 930 1000">
   <path fill="currentColor"
d="M554 312h156v-254h82v496h-82v-176h-156v-66zM573 147l1 63h-520v-63h219v-97h82v97h218zM314 310c-76 0 -130 37 -130 93c0 54 54 92 130 92s130 -38 130 -92c0 -56 -54 -93 -130 -93zM314 555c-122 0 -208 -62 -208 -152c0 -92 86 -153 208 -153c121 0 207 61 207 153
c0 90 -86 152 -207 152zM223 808v80c100 0 159 -3 232 -17l8 62c-83 16 -148 17 -270 17h-48v-201h210v-77h-212v-61h290v197h-210zM641 909c50 0 83 -21 83 -55c0 -35 -33 -56 -83 -56s-84 21 -84 56c0 34 34 55 84 55zM641 743c88 0 153 42 153 111c0 68 -65 110 -153 110
c-89 0 -154 -42 -154 -110c0 -69 65 -111 154 -111zM682 649h148v61h-371v-61h143v-80h80v80z" />
</svg>
