<?xml version="1.0" standalone="no"?>
<!DOCTYPE svg PUBLIC "-//W3C//DTD SVG 1.1//EN" "http://www.w3.org/Graphics/SVG/1.1/DTD/svg11.dtd" >
<svg xmlns="http://www.w3.org/2000/svg" xmlns:xlink="http://www.w3.org/1999/xlink" version="1.1" viewBox="-10 0 930 1000">
   <path fill="currentColor"
d="M810 58v683h-79v-683h79zM470 339h97v-266h78v649h-78v-316h-97v-67zM493 168l-1 65h-444v-65h182v-103h81v103h182zM157 445c0 61 46 101 114 101c67 0 113 -40 113 -101s-46 -101 -113 -101c-68 0 -114 40 -114 101zM456 445c0 98 -77 164 -185 164
c-109 0 -186 -66 -186 -164c0 -99 77 -165 186 -165c108 0 185 66 185 165zM307 867h529v67h-611v-256h82v189z" />
</svg>
