<?xml version="1.0" standalone="no"?>
<!DOCTYPE svg PUBLIC "-//W3C//DTD SVG 1.1//EN" "http://www.w3.org/Graphics/SVG/1.1/DTD/svg11.dtd" >
<svg xmlns="http://www.w3.org/2000/svg" xmlns:xlink="http://www.w3.org/1999/xlink" version="1.1" viewBox="-10 0 930 1000">
   <path fill="currentColor"
d="M812 57v535h-79v-535h79zM470 314h94v-238h78v510h-78v-205h-94v-67zM493 162v65h-445v-65h182v-97h81v97h182zM157 415c0 52 46 86 114 86c67 0 113 -34 113 -86c0 -53 -46 -87 -113 -87c-68 0 -114 34 -114 87zM456 415c0 87 -76 145 -185 145
c-110 0 -186 -58 -186 -145c0 -88 76 -146 186 -146c109 0 185 58 185 146zM818 708h-256c21 90 149 161 291 181l-29 61c-135 -19 -256 -81 -308 -171c-51 91 -172 152 -309 171l-29 -61c144 -20 271 -89 291 -181h-256v-65h605v65z" />
</svg>
