<?xml version="1.0" standalone="no"?>
<!DOCTYPE svg PUBLIC "-//W3C//DTD SVG 1.1//EN" "http://www.w3.org/Graphics/SVG/1.1/DTD/svg11.dtd" >
<svg xmlns="http://www.w3.org/2000/svg" xmlns:xlink="http://www.w3.org/1999/xlink" version="1.1" viewBox="-10 0 930 1000">
   <path fill="currentColor"
d="M551 271h159v-213h82v503h-82v-84h-159v-66h159v-74h-159v-66zM573 147v63h-519v-63h219v-97h82v97h218zM236 800v86c66 -1 140 -3 232 -16l7 62c-111 14 -193 16 -269 16h-48v-206h210v-82h-212v-60h290v200h-210zM314 495c76 0 130 -38 130 -92c0 -56 -54 -93 -130 -93
s-130 37 -130 93c0 54 54 92 130 92zM314 250c121 0 207 61 207 153c0 90 -86 152 -207 152c-122 0 -208 -62 -208 -152c0 -92 86 -153 208 -153zM580 883h228v62h-307v-346h293v63h-214v80h206v59h-206v82z" />
</svg>
