<?xml version="1.0" standalone="no"?>
<!DOCTYPE svg PUBLIC "-//W3C//DTD SVG 1.1//EN" "http://www.w3.org/Graphics/SVG/1.1/DTD/svg11.dtd" >
<svg xmlns="http://www.w3.org/2000/svg" xmlns:xlink="http://www.w3.org/1999/xlink" version="1.1" viewBox="-10 0 930 1000">
   <path fill="currentColor"
d="M557 151v66h-502v-66h214v-103h82v103h206zM183 427c0 62 51 103 126 103s126 -41 126 -103s-51 -102 -126 -102s-126 40 -126 102zM512 427c0 99 -84 164 -203 164c-120 0 -203 -65 -203 -164s83 -164 203 -164c119 0 203 65 203 164zM289 719v157h423v-157h-423z
M209 942v-288h583v288h-583zM709 58h83v547h-83v-93h-152v-67h152v-105h-151v-66h151v-216z" />
</svg>
