<?xml version="1.0" standalone="no"?>
<!DOCTYPE svg PUBLIC "-//W3C//DTD SVG 1.1//EN" "http://www.w3.org/Graphics/SVG/1.1/DTD/svg11.dtd" >
<svg xmlns="http://www.w3.org/2000/svg" xmlns:xlink="http://www.w3.org/1999/xlink" version="1.1" viewBox="-10 0 930 1000">
   <path fill="currentColor"
d="M809 58v547h-79v-547h79zM493 169v65h-445v-65h182v-104h81v104h182zM157 434c0 58 46 97 114 97c67 0 113 -39 113 -97s-46 -97 -113 -97c-68 0 -114 39 -114 97zM567 522h-138c-31 44 -88 71 -158 70c-109 0 -186 -63 -186 -158s77 -158 186 -158c108 0 185 63 185 158
c0 8 0 14 -1 21h112v-87h-108v-66h108v-230h78v528h-78v-78zM400 705v173h216v-173h-216zM697 878h132v67h-642v-67h131v-173h-124v-66h629v66h-126v173z" />
</svg>
