<?xml version="1.0" standalone="no"?>
<!DOCTYPE svg PUBLIC "-//W3C//DTD SVG 1.1//EN" "http://www.w3.org/Graphics/SVG/1.1/DTD/svg11.dtd" >
<svg xmlns="http://www.w3.org/2000/svg" xmlns:xlink="http://www.w3.org/1999/xlink" version="1.1" viewBox="-10 0 930 1000">
   <path fill="currentColor"
d="M817 120v61h-723v-61h324v-79h82v79h317zM235 811v72h552v61h-634v-190h524v-67h-527v-59h610v183h-525zM254 332c0 41 70 61 205 61c134 0 203 -20 203 -61c0 -39 -69 -61 -203 -61c-135 0 -205 22 -205 61zM500 509h363v61h-810v-61h365v-61
c-162 -5 -249 -43 -249 -116c0 -77 101 -116 290 -116c188 0 289 39 289 116c0 73 -87 111 -248 116v61z" />
</svg>
