<?xml version="1.0" standalone="no"?>
<!DOCTYPE svg PUBLIC "-//W3C//DTD SVG 1.1//EN" "http://www.w3.org/Graphics/SVG/1.1/DTD/svg11.dtd" >
<svg xmlns="http://www.w3.org/2000/svg" xmlns:xlink="http://www.w3.org/1999/xlink" version="1.1" viewBox="-10 0 930 1000">
   <path fill="currentColor"
d="M816 122v61h-721v-61h323v-76h82v76h316zM220 812v77c122 0 190 -2 275 -18l9 62c-94 18 -167 19 -308 19h-54v-193h228v-68h-230v-60h308v181h-228zM491 697v-66h289v334h-83v-268h-206zM254 336c0 40 70 61 205 61c134 0 203 -21 203 -61s-69 -61 -203 -61
c-135 0 -205 21 -205 61zM500 510h363v61h-810v-61h365v-59c-162 -5 -249 -43 -249 -115c0 -78 101 -117 290 -117c188 0 289 39 289 117c0 72 -87 110 -248 115v59z" />
</svg>
