<?xml version="1.0" standalone="no"?>
<!DOCTYPE svg PUBLIC "-//W3C//DTD SVG 1.1//EN" "http://www.w3.org/Graphics/SVG/1.1/DTD/svg11.dtd" >
<svg xmlns="http://www.w3.org/2000/svg" xmlns:xlink="http://www.w3.org/1999/xlink" version="1.1" viewBox="-10 0 930 1000">
   <path fill="currentColor"
d="M586 142v61h-515v-61h217v-89h82v89h216zM197 370c0 46 51 77 132 77c79 0 131 -31 131 -77c0 -47 -52 -76 -131 -76c-81 0 -132 29 -132 76zM613 531l6 59c-191 34 -403 36 -561 36l-9 -66c71 0 154 0 239 -3v-56c-104 -10 -169 -57 -169 -131c0 -82 83 -133 210 -133
c125 0 209 51 209 133c0 73 -65 121 -168 131v53c82 -4 166 -11 243 -23zM797 739h-148c6 75 67 139 166 162l-36 62c-83 -23 -141 -69 -170 -129c-31 60 -88 108 -171 133l-33 -55c-80 27 -174 33 -222 33h-46v-256h79v185c53 -3 139 -14 196 -41l19 63
c84 -32 132 -94 138 -157h-145v-65h373v65zM751 346h130v68h-130v221h-83v-578h83v289z" />
</svg>
