<?xml version="1.0" standalone="no"?>
<!DOCTYPE svg PUBLIC "-//W3C//DTD SVG 1.1//EN" "http://www.w3.org/Graphics/SVG/1.1/DTD/svg11.dtd" >
<svg xmlns="http://www.w3.org/2000/svg" xmlns:xlink="http://www.w3.org/1999/xlink" version="1.1" viewBox="-10 0 930 1000">
   <path fill="currentColor"
d="M586 122v58h-515v-58h217v-70h82v70h216zM197 327c0 41 51 65 132 65c80 0 131 -24 131 -65c0 -39 -51 -63 -131 -63c-81 0 -132 24 -132 63zM612 481l4 56c-188 29 -396 33 -555 34l-11 -63c72 0 154 -1 238 -4v-60c-104 -8 -169 -50 -169 -117c0 -74 82 -118 210 -118
c126 0 209 44 209 118c0 67 -65 108 -168 117v57c82 -4 165 -9 242 -20zM761 751h-262c23 76 149 138 297 152l-26 61c-139 -15 -263 -68 -317 -147c-54 79 -178 133 -317 148l-27 -61c148 -14 275 -76 298 -153h-262v-65h267v-91h82v91h267v65zM749 290h132v67h-132v266
h-82v-565h82v232z" />
</svg>
