<?xml version="1.0" standalone="no"?>
<!DOCTYPE svg PUBLIC "-//W3C//DTD SVG 1.1//EN" "http://www.w3.org/Graphics/SVG/1.1/DTD/svg11.dtd" >
<svg xmlns="http://www.w3.org/2000/svg" xmlns:xlink="http://www.w3.org/1999/xlink" version="1.1" viewBox="-10 0 930 1000">
   <path fill="currentColor"
d="M632 393v195h-78v-514h78v252h103v-268h79v532h-79v-197h-103zM501 151l1 62h-433v-62h177v-85h79v85h176zM175 353c0 41 44 67 110 67c67 0 111 -26 111 -67s-44 -67 -111 -67c-66 0 -110 26 -110 67zM515 502l5 55c-147 26 -337 30 -459 30l-11 -63c55 0 124 -1 196 -3
v-48c-86 -11 -144 -55 -144 -120c0 -75 76 -121 183 -121c109 0 185 46 185 121c0 65 -58 109 -145 120v45c66 -4 133 -8 190 -16zM231 817v74c99 0 157 -3 230 -17l7 61c-83 16 -147 17 -268 17h-47v-183h201v-70h-203v-56h281v174h-201zM650 916c48 0 82 -21 82 -52
c0 -33 -34 -53 -82 -53c-49 0 -83 20 -83 53c0 31 34 52 83 52zM650 759c87 0 151 40 151 105c0 64 -64 103 -151 103c-88 0 -153 -39 -153 -103c0 -65 65 -105 153 -105zM688 668h147v61h-370v-61h144v-66h79v66z" />
</svg>
