<?xml version="1.0" standalone="no"?>
<!DOCTYPE svg PUBLIC "-//W3C//DTD SVG 1.1//EN" "http://www.w3.org/Graphics/SVG/1.1/DTD/svg11.dtd" >
<svg xmlns="http://www.w3.org/2000/svg" xmlns:xlink="http://www.w3.org/1999/xlink" version="1.1" viewBox="-10 0 930 1000">
   <path fill="currentColor"
d="M632 398v197h-78v-521h78v257h103v-273h79v538h-79v-198h-103zM501 151l1 62h-433v-62h177v-85h79v85h176zM175 353c0 41 44 67 110 67c67 0 111 -26 111 -67s-44 -67 -111 -67c-66 0 -110 26 -110 67zM515 502l5 55c-147 26 -337 30 -459 30l-11 -63c55 0 124 -1 196 -3
v-48c-86 -11 -144 -55 -144 -120c0 -75 76 -121 183 -121c109 0 185 46 185 121c0 65 -58 109 -145 120v45c66 -4 133 -8 190 -16zM408 884v-101h-165v101h165zM726 621v46c0 84 58 179 158 223l-45 64c-74 -33 -126 -92 -154 -161c-28 71 -81 131 -158 163l-42 -60v53h-319
v-322h77v95h165v-95h77v266c102 -44 159 -139 159 -226v-46h82z" />
</svg>
