<?xml version="1.0" standalone="no"?>
<!DOCTYPE svg PUBLIC "-//W3C//DTD SVG 1.1//EN" "http://www.w3.org/Graphics/SVG/1.1/DTD/svg11.dtd" >
<svg xmlns="http://www.w3.org/2000/svg" xmlns:xlink="http://www.w3.org/1999/xlink" version="1.1" viewBox="-10 0 930 1000">
   <path fill="currentColor"
d="M786 58v560h-82v-560h82zM612 142v61h-525v-61h221v-89h82v89h222zM214 360c0 46 54 76 135 76c83 0 136 -30 136 -76s-53 -75 -136 -75c-81 0 -135 29 -135 75zM637 520l5 59c-193 28 -406 33 -574 33l-11 -66c77 0 163 -1 251 -4v-51c-105 -10 -171 -59 -171 -131
c0 -81 85 -132 212 -132c129 0 214 51 214 132c0 73 -67 121 -173 131v48c84 -4 168 -9 247 -19zM237 664v212c56 -2 128 -9 194 -32l13 67c-88 28 -175 34 -242 34h-44v-281h79zM633 919c54 0 94 -16 94 -44c0 -27 -40 -44 -94 -44c-55 0 -94 17 -94 44c0 28 39 44 94 44z
M633 781c96 0 166 37 166 94c0 58 -70 94 -166 94s-166 -36 -166 -94c0 -57 70 -94 166 -94zM673 684h180v61h-440v-61h180v-73h80v73z" />
</svg>
