<?xml version="1.0" standalone="no"?>
<!DOCTYPE svg PUBLIC "-//W3C//DTD SVG 1.1//EN" "http://www.w3.org/Graphics/SVG/1.1/DTD/svg11.dtd" >
<svg xmlns="http://www.w3.org/2000/svg" xmlns:xlink="http://www.w3.org/1999/xlink" version="1.1" viewBox="-10 0 930 1000">
   <path fill="currentColor"
d="M612 125v59h-525v-59h221v-73h82v73h222zM214 334c0 41 53 65 135 65c84 0 136 -24 136 -65c0 -42 -52 -66 -136 -66c-82 0 -135 24 -135 66zM635 493l5 52c-191 28 -405 34 -572 33l-11 -61c77 0 163 -1 251 -4v-61c-106 -9 -171 -51 -171 -118c0 -76 83 -121 212 -121
c131 0 214 45 214 121c0 68 -66 110 -173 118v58c83 -3 167 -9 245 -17zM246 816v79c106 0 182 -2 281 -18l5 57c-108 17 -191 19 -312 19h-52v-188h220v-67h-223v-57h301v175h-220zM502 705v-65h284v316h-82v-251h-202zM704 57h82v540h-82v-540z" />
</svg>
