<?xml version="1.0" standalone="no"?>
<!DOCTYPE svg PUBLIC "-//W3C//DTD SVG 1.1//EN" "http://www.w3.org/Graphics/SVG/1.1/DTD/svg11.dtd" >
<svg xmlns="http://www.w3.org/2000/svg" xmlns:xlink="http://www.w3.org/1999/xlink" version="1.1" viewBox="-10 0 930 1000">
   <path fill="currentColor"
d="M817 135v63h-722v-63h323v-87h82v87h317zM140 766v-64h617v247h-82v-183h-535zM354 490v77h208v-77c-31 4 -65 6 -103 6c-39 0 -73 -2 -105 -6zM255 366c0 46 75 71 204 71s202 -25 202 -71s-73 -72 -202 -72s-204 26 -204 72zM644 567h220v65h-811v-65h219v-93
c-67 -22 -103 -58 -103 -108c0 -86 105 -131 290 -131c184 0 289 45 289 131c0 50 -36 86 -104 108v93z" />
</svg>
