<?xml version="1.0" standalone="no"?>
<!DOCTYPE svg PUBLIC "-//W3C//DTD SVG 1.1//EN" "http://www.w3.org/Graphics/SVG/1.1/DTD/svg11.dtd" >
<svg xmlns="http://www.w3.org/2000/svg" xmlns:xlink="http://www.w3.org/1999/xlink" version="1.1" viewBox="-10 0 930 1000">
   <path fill="currentColor"
d="M816 135l1 63h-722v-63h323v-87h82v87h316zM137 767l-1 -66h306v257h-82v-191h-223zM479 766v-65h290v257h-82v-192h-208zM353 488v76h208v-76c-31 4 -65 6 -103 6s-73 -2 -105 -6zM255 364c0 46 74 71 203 71c130 0 203 -25 203 -71s-73 -72 -203 -72
c-129 0 -203 26 -203 72zM643 564h221v65h-811v-65h218v-93c-66 -21 -102 -57 -102 -107c0 -86 104 -131 289 -131s290 45 290 131c0 51 -37 86 -105 108v92z" />
</svg>
