<?xml version="1.0" standalone="no"?>
<!DOCTYPE svg PUBLIC "-//W3C//DTD SVG 1.1//EN" "http://www.w3.org/Graphics/SVG/1.1/DTD/svg11.dtd" >
<svg xmlns="http://www.w3.org/2000/svg" xmlns:xlink="http://www.w3.org/1999/xlink" version="1.1" viewBox="-10 0 930 1000">
   <path fill="currentColor"
d="M817 122v61h-722v-61h323v-76h82v76h317zM240 813v71h534v60h-616v-309h608v58h-526v66h506v54h-506zM359 453v63h195v-62c-28 3 -61 4 -95 4c-37 0 -70 -2 -100 -5zM254 339c0 41 70 63 205 63c133 0 203 -22 203 -63s-70 -63 -203 -63c-135 0 -205 22 -205 63zM636 516
h228v62h-812v-62h225v-76c-71 -20 -108 -53 -108 -101c0 -80 101 -120 290 -120c187 0 289 40 289 120c0 49 -38 82 -112 102v75z" />
</svg>
