<?xml version="1.0" standalone="no"?>
<!DOCTYPE svg PUBLIC "-//W3C//DTD SVG 1.1//EN" "http://www.w3.org/Graphics/SVG/1.1/DTD/svg11.dtd" >
<svg xmlns="http://www.w3.org/2000/svg" xmlns:xlink="http://www.w3.org/1999/xlink" version="1.1" viewBox="-10 0 930 1000">
   <path fill="currentColor"
d="M816 133v64h-721v-64h323v-85h82v85h316zM361 747v136h191v-136h-191zM633 747v136h148v64h-649v-64h148v-136h-140v-64h632v64h-139zM354 481v70h207v-70c-31 4 -65 6 -103 6s-72 -2 -104 -6zM256 359c0 45 72 70 202 70s203 -25 203 -70s-73 -70 -203 -70
s-202 25 -202 70zM643 551h221v65h-811v-65h219v-86c-67 -22 -103 -57 -103 -106c0 -84 104 -128 289 -128s290 44 290 128c0 50 -37 86 -105 106v86z" />
</svg>
