<?xml version="1.0" standalone="no"?>
<!DOCTYPE svg PUBLIC "-//W3C//DTD SVG 1.1//EN" "http://www.w3.org/Graphics/SVG/1.1/DTD/svg11.dtd" >
<svg xmlns="http://www.w3.org/2000/svg" xmlns:xlink="http://www.w3.org/1999/xlink" version="1.1" viewBox="-10 0 930 1000">
   <path fill="currentColor"
d="M816 135v63h-721v-63h323v-87h82v87h316zM661 365c0 -45 -72 -70 -203 -70c-130 0 -202 25 -202 70c0 44 72 70 202 70c131 0 203 -26 203 -70zM169 365c0 -84 103 -126 289 -126s290 42 290 126c0 83 -104 126 -290 126s-289 -43 -289 -126zM208 686v188
c56 -2 128 -9 193 -32l14 67c-88 28 -175 34 -243 34h-44v-257h80zM601 920c55 0 94 -17 94 -43c0 -27 -39 -43 -94 -43c-56 0 -96 16 -96 43c0 26 40 43 96 43zM601 789c95 0 165 34 165 88c0 55 -70 88 -165 88c-97 0 -167 -33 -167 -88c0 -54 70 -88 167 -88zM643 639v64
h178v61h-439v-61h181v-64h80zM54 533h810v65h-365v71h-82v-71h-363v-65z" />
</svg>
