<?xml version="1.0" standalone="no"?>
<!DOCTYPE svg PUBLIC "-//W3C//DTD SVG 1.1//EN" "http://www.w3.org/Graphics/SVG/1.1/DTD/svg11.dtd" >
<svg xmlns="http://www.w3.org/2000/svg" xmlns:xlink="http://www.w3.org/1999/xlink" version="1.1" viewBox="-10 0 930 1000">
   <path fill="currentColor"
d="M817 122l-1 61h-721v-61h323v-76h82v76h317zM662 337c0 -41 -70 -62 -203 -62c-135 0 -205 21 -205 62c0 42 70 63 205 63c133 0 203 -21 203 -63zM169 337c0 -79 101 -119 290 -119c187 0 289 40 289 119s-102 119 -289 119c-189 0 -290 -40 -290 -119zM561 695v201h149
v-201h-149zM864 566h-364v73h282v315h-294v-291h-56v155h-213v73c95 0 157 -2 234 -15l8 60c-90 15 -158 16 -273 16h-48v-187h214v-69h-216v-57h280v-73h-365v-64h811v64z" />
</svg>
