<?xml version="1.0" standalone="no"?>
<!DOCTYPE svg PUBLIC "-//W3C//DTD SVG 1.1//EN" "http://www.w3.org/Graphics/SVG/1.1/DTD/svg11.dtd" >
<svg xmlns="http://www.w3.org/2000/svg" xmlns:xlink="http://www.w3.org/1999/xlink" version="1.1" viewBox="-10 0 930 1000">
   <path fill="currentColor"
d="M816 123v61h-721v-61h323v-81h82v81h316zM662 340c0 -40 -70 -62 -204 -62c-133 0 -204 22 -204 62s71 61 204 61c134 0 204 -21 204 -61zM169 340c0 -79 101 -118 289 -118s290 39 290 118c0 77 -102 117 -290 117s-289 -40 -289 -117zM863 563h-363v70h273v58h-206v67
h195v55h-195v72h215v59h-294v-304h-64v171h-203v75c98 0 155 -2 227 -14l7 57c-84 14 -146 15 -265 15h-46v-186h203v-68h-205v-57h276v-70h-365v-61h810v61z" />
</svg>
