<?xml version="1.0" standalone="no"?>
<!DOCTYPE svg PUBLIC "-//W3C//DTD SVG 1.1//EN" "http://www.w3.org/Graphics/SVG/1.1/DTD/svg11.dtd" >
<svg xmlns="http://www.w3.org/2000/svg" xmlns:xlink="http://www.w3.org/1999/xlink" version="1.1" viewBox="-10 0 930 1000">
   <path fill="currentColor"
d="M816 122v61h-721v-61h323v-76h81v76h317zM662 340c0 -42 -71 -64 -204 -64s-204 22 -204 64c0 41 71 63 204 63s204 -22 204 -63zM169 340c0 -80 101 -121 289 -121s290 41 290 121c0 79 -102 120 -290 120s-289 -41 -289 -120zM670 887v-182h-71v182h71zM863 568h-364
v73h294v64h-57v182h63v63h-327v-63h61v-182h-56v-43h-45v154h-215v75c95 0 155 -3 229 -17l7 60c-85 16 -151 17 -267 17h-47v-186h216v-66h-218v-57h281v-74h-365v-64h810v64z" />
</svg>
