<?xml version="1.0" standalone="no"?>
<!DOCTYPE svg PUBLIC "-//W3C//DTD SVG 1.1//EN" "http://www.w3.org/Graphics/SVG/1.1/DTD/svg11.dtd" >
<svg xmlns="http://www.w3.org/2000/svg" xmlns:xlink="http://www.w3.org/1999/xlink" version="1.1" viewBox="-10 0 930 1000">
   <path fill="currentColor"
d="M817 132v64h-722v-64h323v-87h82v87h317zM661 359c0 -46 -73 -71 -202 -71c-131 0 -204 25 -204 71c0 45 73 70 204 70c129 0 202 -25 202 -70zM169 359c0 -85 104 -129 290 -129c184 0 289 44 289 129c0 84 -105 128 -289 128c-186 0 -290 -44 -290 -128zM685 880v-131
h-452v131h452zM864 604h-364v83h265v255h-612v-255h265v-83h-365v-65h811v65z" />
</svg>
