<?xml version="1.0" standalone="no"?>
<!DOCTYPE svg PUBLIC "-//W3C//DTD SVG 1.1//EN" "http://www.w3.org/Graphics/SVG/1.1/DTD/svg11.dtd" >
<svg xmlns="http://www.w3.org/2000/svg" xmlns:xlink="http://www.w3.org/1999/xlink" version="1.1" viewBox="-10 0 930 1000">
   <path fill="currentColor"
d="M816 128v64h-721v-64h323v-84h82v84h316zM661 352c0 -44 -72 -67 -202 -67c-132 0 -203 23 -203 67s71 68 203 68c130 0 202 -24 202 -68zM169 352c0 -82 103 -125 290 -125c185 0 289 43 289 125s-104 125 -289 125c-187 0 -290 -43 -290 -125zM501 711v10
c0 94 143 156 310 169l-25 61c-142 -12 -271 -58 -327 -138c-56 80 -186 126 -329 138l-24 -61c167 -13 311 -75 311 -169v-10h84zM53 531h810v65h-363v87h-82v-87h-365v-65z" />
</svg>
