<?xml version="1.0" standalone="no"?>
<!DOCTYPE svg PUBLIC "-//W3C//DTD SVG 1.1//EN" "http://www.w3.org/Graphics/SVG/1.1/DTD/svg11.dtd" >
<svg xmlns="http://www.w3.org/2000/svg" xmlns:xlink="http://www.w3.org/1999/xlink" version="1.1" viewBox="-10 0 930 1000">
   <path fill="currentColor"
d="M816 131v63h-721v-63h323v-84h82v84h316zM661 359c0 -43 -73 -67 -202 -67c-131 0 -203 24 -203 67c0 44 72 68 203 68c129 0 202 -24 202 -68zM169 359c0 -81 103 -124 290 -124c185 0 289 43 289 124c0 82 -104 125 -289 125c-187 0 -290 -43 -290 -125zM863 603h-363
v84h280v64h-272c24 82 152 127 306 138l-25 62c-145 -12 -277 -55 -330 -140c-54 85 -187 128 -328 140l-25 -61c148 -11 279 -57 303 -139h-271v-64h280v-84h-365v-65h810v65z" />
</svg>
