<?xml version="1.0" standalone="no"?>
<!DOCTYPE svg PUBLIC "-//W3C//DTD SVG 1.1//EN" "http://www.w3.org/Graphics/SVG/1.1/DTD/svg11.dtd" >
<svg xmlns="http://www.w3.org/2000/svg" xmlns:xlink="http://www.w3.org/1999/xlink" version="1.1" viewBox="-10 0 930 1000">
   <path fill="currentColor"
d="M816 135v63h-721v-63h323v-87h82v87h316zM661 371c0 -47 -73 -73 -202 -73c-130 0 -204 26 -204 73c0 46 74 73 204 73c129 0 202 -27 202 -73zM169 371c0 -87 104 -132 290 -132c184 0 289 45 289 132c0 86 -105 132 -289 132c-186 0 -290 -46 -290 -132zM551 883v-124
h-182v124h182zM863 620h-363v76h281v63h-149v124h156v63h-651v-63h150v-124h-142v-63h273v-76h-365v-65h810v65z" />
</svg>
