<?xml version="1.0" standalone="no"?>
<!DOCTYPE svg PUBLIC "-//W3C//DTD SVG 1.1//EN" "http://www.w3.org/Graphics/SVG/1.1/DTD/svg11.dtd" >
<svg xmlns="http://www.w3.org/2000/svg" xmlns:xlink="http://www.w3.org/1999/xlink" version="1.1" viewBox="-10 0 930 1000">
   <path fill="currentColor"
d="M518 562h184v-504h82v603h-82v-41h-184v-58zM607 129v59h-529v-59h223v-77h82v77h224zM476 330c0 -40 -50 -63 -133 -63s-133 23 -133 63c0 39 50 63 133 63s133 -24 133 -63zM132 330c0 -75 82 -117 211 -117s210 42 210 117s-81 117 -210 117s-211 -42 -211 -117z
M298 659v-117c-87 3 -169 3 -240 3l-11 -63c169 0 392 0 586 -24l5 54c-85 13 -173 21 -258 26v121h-82zM167 686h618v270h-82v-91l-548 26l-10 -64l558 -19v-60h-536v-62z" />
</svg>
