<?xml version="1.0" standalone="no"?>
<!DOCTYPE svg PUBLIC "-//W3C//DTD SVG 1.1//EN" "http://www.w3.org/Graphics/SVG/1.1/DTD/svg11.dtd" >
<svg xmlns="http://www.w3.org/2000/svg" xmlns:xlink="http://www.w3.org/1999/xlink" version="1.1" viewBox="-10 0 930 1000">
   <path fill="currentColor"
d="M503 534h195v-476h82v560h-82v-33h-195v-51zM607 122v55h-529v-55h224v-71h82v71h223zM476 312c0 -37 -51 -58 -133 -58s-133 21 -133 58c0 36 51 58 133 58s133 -22 133 -58zM133 312c0 -70 82 -110 210 -110s210 40 210 110s-82 109 -210 109s-210 -39 -210 -109z
M300 619v-107c-86 3 -169 4 -243 4l-10 -57c174 -1 395 -3 586 -24l4 50c-82 11 -170 19 -255 23v111h-82zM260 890h546v58h-628v-304h610v57h-528v68h517v53h-517v68z" />
</svg>
