<?xml version="1.0" standalone="no"?>
<!DOCTYPE svg PUBLIC "-//W3C//DTD SVG 1.1//EN" "http://www.w3.org/Graphics/SVG/1.1/DTD/svg11.dtd" >
<svg xmlns="http://www.w3.org/2000/svg" xmlns:xlink="http://www.w3.org/1999/xlink" version="1.1" viewBox="-10 0 930 1000">
   <path fill="currentColor"
d="M807 58v581h-78v-581h78zM405 561h163v-487h78v566h-78v-27h-163v-52zM509 143l1 61h-443v-61h181v-81h79v81h182zM404 337c0 -34 -45 -55 -115 -55c-72 0 -117 21 -117 55s45 55 117 55c70 0 115 -21 115 -55zM99 337c0 -68 76 -107 190 -107c112 0 188 39 188 107
c0 67 -76 106 -188 106c-114 0 -190 -39 -190 -106zM250 657v-115c-72 4 -140 5 -196 5l-10 -61c129 0 331 -4 477 -26l6 52c-62 12 -131 20 -199 25v120h-78zM230 694v186c57 -2 130 -10 196 -33l13 67c-88 29 -176 34 -245 34h-45v-254h81zM621 921c55 0 94 -17 94 -45
s-39 -44 -94 -44s-93 16 -93 44s38 45 93 45zM621 785c97 0 166 35 166 91c0 57 -69 91 -166 91c-96 0 -165 -34 -165 -91c0 -56 69 -91 165 -91zM661 708h179v56h-437v-56h178v-53h80v53z" />
</svg>
