<?xml version="1.0" standalone="no"?>
<!DOCTYPE svg PUBLIC "-//W3C//DTD SVG 1.1//EN" "http://www.w3.org/Graphics/SVG/1.1/DTD/svg11.dtd" >
<svg xmlns="http://www.w3.org/2000/svg" xmlns:xlink="http://www.w3.org/1999/xlink" version="1.1" viewBox="-10 0 930 1000">
   <path fill="currentColor"
d="M807 58v612h-78v-612h78zM405 577h163v-503h78v597h-78v-38h-163v-56zM509 143v61h-443v-61h182v-81h79v81h182zM404 346c0 -37 -45 -59 -115 -59c-72 0 -117 22 -117 59c0 36 45 58 117 58c70 0 115 -22 115 -58zM99 346c0 -71 76 -113 190 -113c112 0 188 42 188 113
c0 69 -76 111 -188 111c-114 0 -190 -42 -190 -111zM250 670v-117c-72 4 -140 5 -196 5l-10 -62c129 0 331 -4 478 -25l5 53c-61 11 -130 19 -199 24v122h-78zM687 684v15c0 86 68 169 182 203l-39 60c-88 -28 -152 -84 -183 -154c-27 69 -82 131 -167 162
c-83 -31 -138 -92 -165 -162c-31 69 -94 127 -182 154l-38 -60c113 -35 181 -118 181 -203v-15h78v15c0 71 43 151 126 195c83 -45 127 -125 127 -195v-15h80z" />
</svg>
