<?xml version="1.0" standalone="no"?>
<!DOCTYPE svg PUBLIC "-//W3C//DTD SVG 1.1//EN" "http://www.w3.org/Graphics/SVG/1.1/DTD/svg11.dtd" >
<svg xmlns="http://www.w3.org/2000/svg" xmlns:xlink="http://www.w3.org/1999/xlink" version="1.1" viewBox="-10 0 930 1000">
   <path fill="currentColor"
d="M807 57v610h-78v-610h78zM405 567h163v-494h78v590h-78v-40h-163v-56zM509 132v61h-443v-61h182v-70h79v70h182zM404 332c0 -35 -45 -56 -115 -56c-73 0 -117 21 -117 56c0 34 44 56 117 56c70 0 115 -22 115 -56zM99 332c0 -69 75 -109 190 -109c112 0 188 40 188 109
c0 68 -76 108 -188 108c-115 0 -190 -40 -190 -108zM250 661v-122c-72 4 -140 6 -196 6l-10 -62c129 0 331 -5 478 -26l6 54c-62 11 -131 19 -200 24v126h-78zM819 773h-254c34 69 155 109 295 119l-25 61c-140 -12 -269 -54 -323 -134c-54 84 -187 123 -328 135l-24 -61
c145 -9 267 -47 298 -120h-250v-62h611v62z" />
</svg>
