<?xml version="1.0" standalone="no"?>
<!DOCTYPE svg PUBLIC "-//W3C//DTD SVG 1.1//EN" "http://www.w3.org/Graphics/SVG/1.1/DTD/svg11.dtd" >
<svg xmlns="http://www.w3.org/2000/svg" xmlns:xlink="http://www.w3.org/1999/xlink" version="1.1" viewBox="-10 0 930 1000">
   <path fill="currentColor"
d="M808 58v580h-79v-580h79zM407 525h161v-454h78v543h-78v-37h-161v-52zM512 120v56h-443v-56h182v-63h79v63h182zM407 306c0 -33 -45 -53 -116 -53s-116 20 -116 53c0 34 45 54 116 54s116 -20 116 -54zM102 306c0 -65 76 -104 189 -104s189 39 189 104
c0 67 -76 106 -189 106s-189 -39 -189 -106zM248 627v-123c-72 4 -139 6 -195 6l-9 -58c129 0 332 -5 477 -26l5 49c-61 12 -130 20 -199 24v128h-79zM501 904c106 0 168 -12 168 -40c0 -27 -62 -40 -168 -40s-166 13 -166 40s60 40 166 40zM502 774c161 0 252 30 252 90
s-91 90 -252 90c-162 0 -253 -30 -253 -90s91 -90 253 -90zM544 686h283v59h-654v-59h289v-61h82v61z" />
</svg>
