<?xml version="1.0" standalone="no"?>
<!DOCTYPE svg PUBLIC "-//W3C//DTD SVG 1.1//EN" "http://www.w3.org/Graphics/SVG/1.1/DTD/svg11.dtd" >
<svg xmlns="http://www.w3.org/2000/svg" xmlns:xlink="http://www.w3.org/1999/xlink" version="1.1" viewBox="-10 0 930 1000">
   <path fill="currentColor"
d="M784 57v595h-82v-595h82zM607 132v59h-529v-59h223v-77h82v77h224zM476 336c0 -39 -50 -63 -133 -63s-133 24 -133 63s50 62 133 62s133 -23 133 -62zM132 336c0 -75 82 -117 211 -117s210 42 210 117c0 74 -81 116 -210 116s-211 -42 -211 -116zM298 678v-112
c-87 3 -169 3 -240 3l-11 -62c169 0 392 0 586 -24l5 54c-85 13 -173 21 -258 26v115h-82zM814 741h-147c8 75 68 134 169 155l-42 60c-81 -22 -139 -65 -168 -124c-31 59 -89 104 -169 128l-35 -51c-81 28 -175 34 -223 34h-46v-264h79v192c53 -3 138 -13 196 -41l18 60
c82 -29 132 -85 140 -149h-145v-63h373v63z" />
</svg>
