<?xml version="1.0" standalone="no"?>
<!DOCTYPE svg PUBLIC "-//W3C//DTD SVG 1.1//EN" "http://www.w3.org/Graphics/SVG/1.1/DTD/svg11.dtd" >
<svg xmlns="http://www.w3.org/2000/svg" xmlns:xlink="http://www.w3.org/1999/xlink" version="1.1" viewBox="-10 0 930 1000">
   <path fill="currentColor"
d="M607 131v55h-529v-55h224v-71h82v71h223zM476 332c0 -36 -51 -58 -133 -58s-133 22 -133 58s51 58 133 58s133 -22 133 -58zM133 332c0 -70 82 -110 210 -110s210 40 210 110s-82 109 -210 109s-210 -39 -210 -109zM215 821v70c100 0 160 -2 237 -15l9 58
c-88 16 -154 17 -275 17h-48v-183h218v-65h-221v-60h165v-100c-86 3 -169 4 -243 4l-10 -58c174 0 395 -2 586 -23l4 50c-82 11 -170 19 -255 23v104h52v178h-219zM703 895v-101h-146v101h146zM703 736v-93h77v312h-300v-312h77v93h146zM698 58h82v557h-82v-557z" />
</svg>
