<?xml version="1.0" standalone="no"?>
<!DOCTYPE svg PUBLIC "-//W3C//DTD SVG 1.1//EN" "http://www.w3.org/Graphics/SVG/1.1/DTD/svg11.dtd" >
<svg xmlns="http://www.w3.org/2000/svg" xmlns:xlink="http://www.w3.org/1999/xlink" version="1.1" viewBox="-10 0 930 1000">
   <path fill="currentColor"
d="M816 134v64h-721v-64h323v-89h82v89h316zM661 365c0 -46 -73 -71 -202 -71c-131 0 -204 25 -204 71s73 71 204 71c129 0 202 -25 202 -71zM169 365c0 -85 104 -130 290 -130c184 0 289 45 289 130s-105 130 -289 130c-186 0 -290 -45 -290 -130zM500 674v29
c0 101 138 170 304 185l-26 63c-139 -16 -264 -67 -319 -150c-55 83 -182 134 -320 150l-27 -62c166 -16 305 -85 305 -186v-29h83zM53 547h812v66h-184v134h-82v-134h-280v134h-82v-134h-184v-66z" />
</svg>
