<?xml version="1.0" standalone="no"?>
<!DOCTYPE svg PUBLIC "-//W3C//DTD SVG 1.1//EN" "http://www.w3.org/Graphics/SVG/1.1/DTD/svg11.dtd" >
<svg xmlns="http://www.w3.org/2000/svg" xmlns:xlink="http://www.w3.org/1999/xlink" version="1.1" viewBox="-10 0 930 1000">
   <path fill="currentColor"
d="M816 135v63h-721v-63h323v-87h82v87h316zM661 370c0 -48 -73 -74 -203 -74c-129 0 -203 26 -203 74c0 47 74 73 203 73c130 0 203 -26 203 -73zM169 370c0 -87 104 -133 289 -133s290 46 290 133c0 86 -105 132 -290 132s-289 -46 -289 -132zM565 691v-81h-214v81h214z
M551 883v-129h-182v129h182zM863 610h-216v81h134v63h-149v129h156v63h-651v-63h150v-129h-142v-63h124v-81h-216v-65h810v65z" />
</svg>
