<?xml version="1.0" standalone="no"?>
<!DOCTYPE svg PUBLIC "-//W3C//DTD SVG 1.1//EN" "http://www.w3.org/Graphics/SVG/1.1/DTD/svg11.dtd" >
<svg xmlns="http://www.w3.org/2000/svg" xmlns:xlink="http://www.w3.org/1999/xlink" version="1.1" viewBox="-10 0 930 1000">
   <path fill="currentColor"
d="M821 195v66h-728v-66h325v-121h82v121h321zM668 497c0 -69 -81 -110 -209 -110c-130 0 -212 41 -212 110c0 70 82 111 212 111c128 0 209 -41 209 -111zM164 497c0 -111 114 -176 295 -176c178 0 292 65 292 176s-114 178 -292 178c-181 0 -295 -67 -295 -178zM53 778
h813v67h-813v-67z" />
</svg>
