<?xml version="1.0" standalone="no"?>
<!DOCTYPE svg PUBLIC "-//W3C//DTD SVG 1.1//EN" "http://www.w3.org/Graphics/SVG/1.1/DTD/svg11.dtd" >
<svg xmlns="http://www.w3.org/2000/svg" xmlns:xlink="http://www.w3.org/1999/xlink" version="1.1" viewBox="-10 0 930 1000">
   <path fill="currentColor"
d="M817 125v61h-722v-61h323v-83h82v83h317zM662 342c0 -41 -70 -62 -204 -62s-204 21 -204 62s70 63 204 63s204 -22 204 -63zM169 342c0 -79 101 -119 289 -119s290 40 290 119s-102 119 -290 119s-289 -40 -289 -119zM222 647v224c60 -2 119 -7 184 -23l12 62
c-85 22 -156 24 -232 24h-42v-287h78zM602 904c53 0 89 -21 89 -53c0 -34 -36 -54 -89 -54s-89 20 -89 54c0 32 36 53 89 53zM602 748c93 0 159 38 159 103s-66 102 -159 102s-159 -37 -159 -102s66 -103 159 -103zM641 597v65h161v60h-404v-60h164v-65h79zM53 510h811v62
h-811v-62z" />
</svg>
