<?xml version="1.0" standalone="no"?>
<!DOCTYPE svg PUBLIC "-//W3C//DTD SVG 1.1//EN" "http://www.w3.org/Graphics/SVG/1.1/DTD/svg11.dtd" >
<svg xmlns="http://www.w3.org/2000/svg" xmlns:xlink="http://www.w3.org/1999/xlink" version="1.1" viewBox="-10 0 930 1000">
   <path fill="currentColor"
d="M817 123v61h-723v-61h324v-81h82v81h317zM662 336c0 -41 -70 -63 -203 -63c-135 0 -205 22 -205 63s70 62 205 62c133 0 203 -21 203 -62zM169 336c0 -79 101 -118 290 -118c187 0 289 39 289 118c0 78 -102 117 -289 117c-189 0 -290 -39 -290 -117zM235 811v73h552v60
h-634v-190h524v-67h-527v-59h610v183h-525zM52 505h812v61h-812v-61z" />
</svg>
