<?xml version="1.0" standalone="no"?>
<!DOCTYPE svg PUBLIC "-//W3C//DTD SVG 1.1//EN" "http://www.w3.org/Graphics/SVG/1.1/DTD/svg11.dtd" >
<svg xmlns="http://www.w3.org/2000/svg" xmlns:xlink="http://www.w3.org/1999/xlink" version="1.1" viewBox="-10 0 930 1000">
   <path fill="currentColor"
d="M817 122l-1 61h-721v-61h323v-76h82v76h317zM662 336c0 -40 -69 -61 -203 -61c-135 0 -205 21 -205 61s70 62 205 62c134 0 203 -22 203 -62zM169 336c0 -78 101 -117 290 -117c188 0 289 39 289 117c0 77 -101 117 -289 117c-189 0 -290 -40 -290 -117zM218 816v76
c106 0 163 -3 234 -16l8 60c-81 14 -142 16 -271 16h-47v-191h212v-68h-214v-61h290v184h-212zM706 885v-100h-151v100h151zM706 723v-92h75v317h-302v-317h76v92h151zM53 507h811v61h-811v-61z" />
</svg>
