<?xml version="1.0" standalone="no"?>
<!DOCTYPE svg PUBLIC "-//W3C//DTD SVG 1.1//EN" "http://www.w3.org/Graphics/SVG/1.1/DTD/svg11.dtd" >
<svg xmlns="http://www.w3.org/2000/svg" xmlns:xlink="http://www.w3.org/1999/xlink" version="1.1" viewBox="-10 0 930 1000">
   <path fill="currentColor"
d="M816 122v61h-721v-61h323v-76h82v76h316zM662 336c0 -40 -69 -61 -203 -61c-135 0 -205 21 -205 61s70 62 205 62c134 0 203 -22 203 -62zM169 336c0 -78 101 -117 290 -117c188 0 289 39 289 117c0 77 -101 117 -289 117c-189 0 -290 -40 -290 -117zM216 812v77
c101 0 156 -2 224 -14l8 61c-78 15 -139 16 -263 16h-47v-194h209v-68h-211v-59h289v181h-209zM601 698v188h69v-188h-69zM736 698v188h61v65h-328v-65h66v-188h-61v-67h316v67h-54zM53 509h810v61h-810v-61z" />
</svg>
