<?xml version="1.0" standalone="no"?>
<!DOCTYPE svg PUBLIC "-//W3C//DTD SVG 1.1//EN" "http://www.w3.org/Graphics/SVG/1.1/DTD/svg11.dtd" >
<svg xmlns="http://www.w3.org/2000/svg" xmlns:xlink="http://www.w3.org/1999/xlink" version="1.1" viewBox="-10 0 930 1000">
   <path fill="currentColor"
d="M817 133v64h-722v-64h323v-85h82v85h317zM661 362c0 -45 -73 -70 -202 -70c-131 0 -203 25 -203 70s72 70 203 70c129 0 202 -25 202 -70zM169 362c0 -84 104 -128 290 -128c184 0 289 44 289 128s-105 128 -289 128c-186 0 -290 -44 -290 -128zM149 760v-64h619v259h-82
v-86l-547 27l-10 -61l557 -19v-56h-537zM53 553h811v65h-811v-65z" />
</svg>
