<?xml version="1.0" standalone="no"?>
<!DOCTYPE svg PUBLIC "-//W3C//DTD SVG 1.1//EN" "http://www.w3.org/Graphics/SVG/1.1/DTD/svg11.dtd" >
<svg xmlns="http://www.w3.org/2000/svg" xmlns:xlink="http://www.w3.org/1999/xlink" version="1.1" viewBox="-10 0 930 1000">
   <path fill="currentColor"
d="M622 178v66h-545v-66h232v-111h82v111h231zM487 462c0 -63 -56 -104 -137 -104c-80 0 -136 41 -136 104s56 105 136 105c81 0 137 -42 137 -105zM136 462c0 -101 88 -168 214 -168s214 67 214 168c0 102 -88 168 -214 168s-214 -66 -214 -168zM70 778l-12 -69
c170 0 393 -1 587 -27l6 61c-200 34 -416 35 -581 35zM702 58h82v896h-82v-896z" />
</svg>
