<?xml version="1.0" standalone="no"?>
<!DOCTYPE svg PUBLIC "-//W3C//DTD SVG 1.1//EN" "http://www.w3.org/Graphics/SVG/1.1/DTD/svg11.dtd" >
<svg xmlns="http://www.w3.org/2000/svg" xmlns:xlink="http://www.w3.org/1999/xlink" version="1.1" viewBox="-10 0 930 1000">
   <path fill="currentColor"
d="M787 58v582h-82v-582h82zM612 140v61h-524v-61h220v-89h82v89h222zM485 366c0 -47 -51 -75 -136 -75c-83 0 -135 28 -135 75c0 46 52 76 135 76c85 0 136 -30 136 -76zM137 366c0 -83 83 -132 212 -132c131 0 214 49 214 132s-83 133 -214 133c-129 0 -212 -50 -212 -133
zM634 524l5 56c-195 32 -409 35 -570 35l-12 -64c166 0 388 -2 577 -27zM707 880v-136h-429v136h429zM198 682h590v260h-590v-260z" />
</svg>
