<?xml version="1.0" standalone="no"?>
<!DOCTYPE svg PUBLIC "-//W3C//DTD SVG 1.1//EN" "http://www.w3.org/Graphics/SVG/1.1/DTD/svg11.dtd" >
<svg xmlns="http://www.w3.org/2000/svg" xmlns:xlink="http://www.w3.org/1999/xlink" version="1.1" viewBox="-10 0 930 1000">
   <path fill="currentColor"
d="M611 153v66h-545v-66h232v-104h82v104h231zM198 423c0 59 55 98 141 98c85 0 141 -39 141 -98c0 -60 -56 -98 -141 -98c-86 0 -141 38 -141 98zM558 423c0 98 -88 159 -219 159s-219 -61 -219 -159c0 -99 88 -160 219 -160s219 61 219 160zM289 713v163h420v-163h-420z
M209 942v-294h580v294h-580zM707 57h82v543h-82v-543z" />
</svg>
