<?xml version="1.0" standalone="no"?>
<!DOCTYPE svg PUBLIC "-//W3C//DTD SVG 1.1//EN" "http://www.w3.org/Graphics/SVG/1.1/DTD/svg11.dtd" >
<svg xmlns="http://www.w3.org/2000/svg" xmlns:xlink="http://www.w3.org/1999/xlink" version="1.1" viewBox="-10 0 930 1000">
   <path fill="currentColor"
d="M788 58v487h-82v-487h82zM611 145v63h-545v-63h232v-95h82v95h231zM198 394c0 53 54 85 141 85c86 0 141 -32 141 -85c0 -52 -55 -85 -141 -85c-87 0 -141 33 -141 85zM558 394c0 89 -87 145 -219 145c-133 0 -219 -56 -219 -145s86 -144 219 -144c132 0 219 55 219 144z
M276 883h535v62h-617v-351h601v61h-519v81h511v61h-511v86z" />
</svg>
