<?xml version="1.0" standalone="no"?>
<!DOCTYPE svg PUBLIC "-//W3C//DTD SVG 1.1//EN" "http://www.w3.org/Graphics/SVG/1.1/DTD/svg11.dtd" >
<svg xmlns="http://www.w3.org/2000/svg" xmlns:xlink="http://www.w3.org/1999/xlink" version="1.1" viewBox="-10 0 930 1000">
   <path fill="currentColor"
d="M788 58v538h-82v-538h82zM611 160v66h-545v-66h232v-107h82v107h231zM198 429c0 58 56 97 141 97c84 0 141 -39 141 -97c0 -59 -57 -97 -141 -97c-85 0 -141 38 -141 97zM558 429c0 97 -89 158 -219 158c-131 0 -219 -61 -219 -158s88 -158 219 -158
c130 0 219 61 219 158zM404 707v170h192v-170h-192zM678 877h137v67h-628v-67h135v-170h-128v-67h612v67h-128v170z" />
</svg>
