<?xml version="1.0" standalone="no"?>
<!DOCTYPE svg PUBLIC "-//W3C//DTD SVG 1.1//EN" "http://www.w3.org/Graphics/SVG/1.1/DTD/svg11.dtd" >
<svg xmlns="http://www.w3.org/2000/svg" xmlns:xlink="http://www.w3.org/1999/xlink" version="1.1" viewBox="-10 0 930 1000">
   <path fill="currentColor"
d="M519 259v148c0 97 32 218 133 278l-46 55c-65 -39 -103 -104 -125 -176c-21 73 -60 139 -125 179l-24 -29l1 7c-78 13 -135 14 -190 14h-38v-469h211v66h-135v336c42 -1 87 -4 144 -14l3 22c88 -62 115 -176 115 -269v-148h76zM582 265h234v477h-79v-410h-155v-67z" />
</svg>
