<?xml version="1.0" standalone="no"?>
<!DOCTYPE svg PUBLIC "-//W3C//DTD SVG 1.1//EN" "http://www.w3.org/Graphics/SVG/1.1/DTD/svg11.dtd" >
<svg xmlns="http://www.w3.org/2000/svg" xmlns:xlink="http://www.w3.org/1999/xlink" version="1.1" viewBox="-10 0 930 1000">
   <path fill="currentColor"
d="M165 328v351h104v-351h-104zM101 742v-476h232v476h-232zM524 676v-180h-105v180h105zM754 262v133c0 97 19 223 114 289l-48 54c-54 -38 -85 -97 -104 -162c-16 68 -48 130 -102 168l-24 -27v25h-237v-479h66v167h105v-167h66v406c74 -68 88 -184 88 -274v-133h76z" />
</svg>
