<?xml version="1.0" standalone="no"?>
<!DOCTYPE svg PUBLIC "-//W3C//DTD SVG 1.1//EN" "http://www.w3.org/Graphics/SVG/1.1/DTD/svg11.dtd" >
<svg xmlns="http://www.w3.org/2000/svg" xmlns:xlink="http://www.w3.org/1999/xlink" version="1.1" viewBox="-10 0 930 1000">
   <path fill="currentColor"
d="M677 421v20c0 107 49 204 158 248l-42 59c-78 -33 -127 -92 -154 -164c-25 77 -75 141 -157 176c-83 -40 -134 -113 -162 -192c-28 75 -80 144 -159 181l-46 -62c112 -52 164 -168 164 -255v-166h83v166c0 77 38 182 128 244c77 -53 108 -143 108 -235v-20h-128v-67h128
v-103h79v103h135v67h-135z" />
</svg>
