<?xml version="1.0" standalone="no"?>
<!DOCTYPE svg PUBLIC "-//W3C//DTD SVG 1.1//EN" "http://www.w3.org/Graphics/SVG/1.1/DTD/svg11.dtd" >
<svg xmlns="http://www.w3.org/2000/svg" xmlns:xlink="http://www.w3.org/1999/xlink" version="1.1" viewBox="-10 0 930 1000">
   <path fill="currentColor"
d="M482 267h75v77h147v-77h75v283h-297v-283zM557 405v85h147v-85h-147zM631 581c57 0 110 36 110 94c0 57 -53 94 -110 94c-58 0 -110 -37 -110 -94c0 -58 52 -94 110 -94zM631 632c-30 0 -49 16 -49 43s19 42 49 42c29 0 49 -15 49 -42s-20 -43 -49 -43zM132 741l178 -515
l176 515h-354zM310 417l-87 258h170z" />
</svg>
