<?xml version="1.0" standalone="no"?>
<!DOCTYPE svg PUBLIC "-//W3C//DTD SVG 1.1//EN" "http://www.w3.org/Graphics/SVG/1.1/DTD/svg11.dtd" >
<svg xmlns="http://www.w3.org/2000/svg" xmlns:xlink="http://www.w3.org/1999/xlink" version="1.1" viewBox="-10 0 930 1000">
   <path fill="currentColor"
d="M514 675v-178h-89v178h89zM514 430v-167h63v479h-216v-39l-38 41c-55 -36 -87 -94 -106 -158c-17 67 -50 128 -108 166l-46 -56c96 -61 116 -186 116 -280v-80h-90v-67h259v67h-94v80c0 88 20 203 107 267v-420h64v167h89zM754 675v-178h-89v178h89zM754 263h63v479h-215
v-479h63v167h89v-167z" />
</svg>
