<?xml version="1.0" standalone="no"?>
<!DOCTYPE svg PUBLIC "-//W3C//DTD SVG 1.1//EN" "http://www.w3.org/Graphics/SVG/1.1/DTD/svg11.dtd" >
<svg xmlns="http://www.w3.org/2000/svg" xmlns:xlink="http://www.w3.org/1999/xlink" version="1.1" viewBox="-10 0 1010 1000">
   <path fill="currentColor"
d="M258 699l71 21c-50 79 -129 157 -198 208c-14 -12 -42 -37 -60 -48c71 -45 144 -112 187 -181zM857 643h-320v235c0 40 -9 58 -40 69c-30 10 -78 10 -153 10c-3 -20 -15 -46 -26 -65c58 2 111 2 125 1c16 0 20 -4 20 -16v-234h-319v-66h713v66zM293 398h416v65h-416v-65z
M652 734l58 -35c70 57 156 137 198 191l-63 39c-39 -53 -124 -137 -193 -195zM931 241h-276c73 99 194 189 310 233c-16 13 -39 41 -51 59c-128 -55 -259 -168 -336 -292h-155c-75 117 -186 225 -343 301c-11 -19 -34 -44 -51 -56c137 -62 238 -150 306 -245h-266v-68h309
c23 -43 41 -87 53 -130l80 10c-13 41 -30 81 -49 120h469v68z" />
</svg>
