<?xml version="1.0" standalone="no"?>
<!DOCTYPE svg PUBLIC "-//W3C//DTD SVG 1.1//EN" "http://www.w3.org/Graphics/SVG/1.1/DTD/svg11.dtd" >
<svg xmlns="http://www.w3.org/2000/svg" xmlns:xlink="http://www.w3.org/1999/xlink" version="1.1" viewBox="-10 0 1010 1000">
   <path fill="currentColor"
d="M359 202l64 25c-32 70 -67 155 -97 209l-47 -23c28 -55 62 -148 80 -211zM100 246l54 7c-3 93 -21 197 -65 258l-51 -25c40 -54 58 -151 62 -240zM273 57v333c0 74 -3 149 -14 222c38 41 130 151 154 179l-51 53c-24 -37 -77 -106 -119 -157c-26 97 -72 188 -156 267
c-9 -16 -33 -41 -49 -53c150 -143 167 -330 167 -512v-332h68zM514 599h325c-56 -32 -109 -72 -157 -118c-51 47 -108 87 -168 118zM545 853h261v-190h-261v190zM574 222l-1 3c27 57 63 111 107 159c43 -48 80 -102 107 -162h-213zM832 156l47 20c-33 101 -85 187 -149 258
c69 63 150 112 238 142c-15 15 -36 42 -47 62c-15 -6 -30 -13 -45 -20v335h-70v-35h-261v38h-68v-339c-22 11 -44 20 -66 28c-9 -18 -27 -45 -41 -61c94 -30 186 -83 264 -154c-38 -44 -71 -92 -100 -143c-28 42 -58 79 -90 110c-13 -12 -43 -33 -60 -42
c85 -74 154 -189 193 -312l69 16c-11 34 -25 68 -40 100h212z" />
</svg>
