<?xml version="1.0" standalone="no"?>
<!DOCTYPE svg PUBLIC "-//W3C//DTD SVG 1.1//EN" "http://www.w3.org/Graphics/SVG/1.1/DTD/svg11.dtd" >
<svg xmlns="http://www.w3.org/2000/svg" xmlns:xlink="http://www.w3.org/1999/xlink" version="1.1" viewBox="-10 0 1010 1000">
   <path fill="currentColor"
d="M75 902l-42 -23c35 -50 47 -137 50 -222l46 9c-5 89 -15 182 -54 236zM154 672l38 -5c12 59 17 133 16 182l-41 6c2 -50 -3 -124 -13 -183zM570 590h309c-58 -29 -111 -68 -159 -115c-46 46 -97 84 -150 115zM598 851h234v-196h-234v196zM628 207l-7 13
c25 55 57 107 97 153c40 -49 73 -105 97 -166h-187zM154 444v91h96v-91h-96zM250 147h-96v88h96v-88zM250 384v-90h-96v90h96zM860 139l47 20c-30 104 -79 192 -139 265c59 55 130 98 207 125c-17 14 -38 43 -50 62c-7 -3 -15 -6 -22 -9v352h-71v-37h-234v39h-68v-345
c-12 7 -25 13 -37 18c-9 -17 -25 -39 -39 -54c-11 239 -22 323 -45 354c-15 17 -31 24 -53 25c-21 3 -55 3 -89 0c-2 -17 -7 -43 -17 -59c34 2 65 3 78 3c12 0 19 -2 27 -10c10 -13 18 -48 25 -124l-34 14c-9 -36 -31 -90 -54 -131l35 -12c21 36 44 83 53 117
c4 -40 7 -91 10 -156h-300v-512h354v63h-132v88h112v59h-112v90h112v60h-112v91h143s0 20 -1 29v4c78 -31 154 -81 219 -145c-35 -42 -65 -88 -91 -138c-26 39 -53 75 -81 104c-14 -12 -44 -34 -62 -45c78 -73 143 -185 182 -301l71 17c-10 28 -20 55 -32 82h186zM301 814
l-39 10c-4 -43 -20 -110 -37 -161l36 -8c20 51 36 117 40 159z" />
</svg>
