<?xml version="1.0" standalone="no"?>
<!DOCTYPE svg PUBLIC "-//W3C//DTD SVG 1.1//EN" "http://www.w3.org/Graphics/SVG/1.1/DTD/svg11.dtd" >
<svg xmlns="http://www.w3.org/2000/svg" xmlns:xlink="http://www.w3.org/1999/xlink" version="1.1" viewBox="-10 0 1010 1000">
   <path fill="currentColor"
d="M247 322v97c25 25 92 100 108 120l-41 63c-13 -24 -41 -66 -67 -100v453h-68v-455c-30 105 -68 206 -109 269c-8 -19 -26 -47 -38 -63c57 -88 113 -247 139 -384h-118v-67h126v-212h68v212h94v67h-94zM551 147h-130v65h130v-65zM421 333h130v-70h-130v70zM611 389h-190
v568h-64v-866h254v298zM701 688l-30 -13c12 -23 27 -55 34 -75l35 13c-15 29 -26 54 -39 75zM534 614l33 -10c13 22 27 52 30 72l-32 13c-4 -22 -17 -52 -31 -75zM723 332h138v-68h-138v68zM861 147h-138v66h138v-66zM517 586v115h96v-115h-96zM761 701v-115h-104v115h104z
M927 90v794c0 34 -8 50 -29 61c-22 9 -57 10 -108 10c-3 -15 -12 -41 -21 -57h6c-36 -26 -79 -68 -113 -110v139h-54v-136c-37 47 -85 93 -127 119c-8 -14 -26 -33 -39 -43c51 -25 108 -75 146 -125h-114v-197h134v-45h-150v-49h150v-49h54v49h158v49h-158v45h143v197h-119
c37 45 92 93 135 118c-11 9 -28 27 -38 39c30 1 54 0 63 0c12 -1 15 -3 15 -15v-495h-197v-299h263z" />
</svg>
