<?xml version="1.0" standalone="no"?>
<!DOCTYPE svg PUBLIC "-//W3C//DTD SVG 1.1//EN" "http://www.w3.org/Graphics/SVG/1.1/DTD/svg11.dtd" >
<svg xmlns="http://www.w3.org/2000/svg" xmlns:xlink="http://www.w3.org/1999/xlink" version="1.1" viewBox="-10 0 1010 1000">
   <path fill="currentColor"
d="M90 250l51 8c-1 96 -14 201 -58 263l-46 -30c39 -53 52 -149 53 -241zM237 55v340c0 73 -2 146 -11 217c29 38 100 138 116 163l-49 51c-16 -31 -51 -87 -81 -133c-21 96 -58 186 -126 266c-10 -15 -34 -39 -49 -50c122 -147 135 -334 135 -514v-340h65zM548 134h-122v69
h122v-69zM426 324h122v-69h-122v69zM609 377h-183v579h-65v-728c-26 70 -54 156 -80 209l-44 -18c24 -57 51 -152 65 -215l59 18v-142h248v297zM700 676l-24 -12c9 -20 24 -53 29 -70l34 15c-15 24 -28 49 -39 67zM538 605l31 -8c10 20 21 48 25 64l-32 12
c-3 -19 -13 -46 -24 -68zM520 580v107h96v-107h-96zM756 687v-107h-98v107h98zM800 729h-112c35 46 87 95 128 121c-12 10 -30 28 -40 41c-34 -28 -78 -76 -112 -121v144h-54v-139c-39 49 -89 96 -132 124c-8 -11 -25 -30 -37 -39c51 -27 110 -80 149 -131h-113v-190h133
v-44h-155v-46h155v-61h54v61h157v46h-157v44h136v190zM725 324h134v-69h-134v69zM859 134h-134v69h134v-69zM925 80v801c0 35 -8 54 -31 65c-23 10 -59 12 -120 11c-3 -15 -12 -43 -21 -60c42 1 78 1 89 0c13 0 17 -3 17 -16v-504h-194v-297h260z" />
</svg>
