<?xml version="1.0" standalone="no"?>
<!DOCTYPE svg PUBLIC "-//W3C//DTD SVG 1.1//EN" "http://www.w3.org/Graphics/SVG/1.1/DTD/svg11.dtd" >
<svg xmlns="http://www.w3.org/2000/svg" xmlns:xlink="http://www.w3.org/1999/xlink" version="1.1" viewBox="-10 0 1010 1000">
   <path fill="currentColor"
d="M396 280h-223v51h223v-51zM173 426h223v-53h-223v53zM463 474h-290v482h-69v-724h359v242zM581 737l-28 -15c14 -21 34 -57 44 -77l36 16c-17 29 -35 56 -52 76zM364 662l33 -13c18 21 36 52 43 72l-33 16c-7 -21 -25 -52 -43 -75zM338 634v111h128v-111h-128zM664 634
h-138v111h138v-111zM715 784h-142c41 42 106 81 166 100c-13 11 -30 32 -40 47c-63 -26 -129 -74 -173 -125v135h-60v-133c-48 52 -122 101 -189 127c-10 -16 -29 -38 -42 -49c67 -19 138 -58 185 -102h-132v-189h178v-37h-200v-45h200v-49h60v49h205v45h-205v37h189v189z
M604 426h229v-53h-229v53zM833 281h-229v50h229v-50zM905 232v646c0 35 -9 55 -33 67c-24 10 -60 12 -117 11c-4 -17 -14 -47 -24 -63c39 1 76 1 87 0s15 -4 15 -16v-402h-297v-243h369zM701 109h238v60h-238v49h-74v-49h-259v49h-72v-49h-234v-60h234v-65h72v65h259v-65h74
v65z" />
</svg>
