<?xml version="1.0" standalone="no"?>
<!DOCTYPE svg PUBLIC "-//W3C//DTD SVG 1.1//EN" "http://www.w3.org/Graphics/SVG/1.1/DTD/svg11.dtd" >
<svg xmlns="http://www.w3.org/2000/svg" xmlns:xlink="http://www.w3.org/1999/xlink" version="1.1" viewBox="-10 0 1010 1000">
   <path fill="currentColor"
d="M884 69v166h-760v-166h73v103h264v-129h75v129h272v-103h76zM334 594v97h135v-97h-135zM658 691v-97h-134v97h134zM612 779l55 -22c46 54 95 128 115 176l-58 23c-6 -16 -16 -36 -28 -57c-170 12 -343 22 -466 28l-4 -63c64 -2 147 -6 238 -10v-111h-188v-201h188v-73
c-63 4 -126 7 -184 7c-1 -15 -8 -36 -15 -51c141 -4 316 -17 413 -37l37 50c-51 11 -117 19 -187 26v78h191v201h-191v108l133 -6c-16 -23 -32 -46 -49 -66zM150 295h692c0 341 4 590 68 590c15 0 20 -69 22 -158c14 18 33 36 49 47c-7 136 -19 183 -77 183
c-123 0 -131 -230 -135 -601h-547v147c0 135 -20 329 -135 458c-9 -16 -38 -43 -53 -52c103 -119 116 -284 116 -407v-207z" />
</svg>
