<?xml version="1.0" standalone="no"?>
<!DOCTYPE svg PUBLIC "-//W3C//DTD SVG 1.1//EN" "http://www.w3.org/Graphics/SVG/1.1/DTD/svg11.dtd" >
<svg xmlns="http://www.w3.org/2000/svg" xmlns:xlink="http://www.w3.org/1999/xlink" version="1.1" viewBox="-10 0 1010 1000">
   <path fill="currentColor"
d="M461 626h-226v87h226v-87zM763 713v-87h-230v87h230zM533 862h230v-91h-230v91zM235 862h226v-91h-226v91zM164 955v-388h672v380h-73v-26h-528v34h-71zM174 502v-53h238v53h-238zM195 334h216v53h-216v-53zM583 502v-53h246v53h-246zM583 334h221v53h-221v-53zM533 211
h388v216h-69v-156h-319v263h-72v-263h-314v156h-67v-216h381v-66h-324v-61h726v61h-330v66z" />
</svg>
