<?xml version="1.0" standalone="no"?>
<!DOCTYPE svg PUBLIC "-//W3C//DTD SVG 1.1//EN" "http://www.w3.org/Graphics/SVG/1.1/DTD/svg11.dtd" >
<svg xmlns="http://www.w3.org/2000/svg" xmlns:xlink="http://www.w3.org/1999/xlink" version="1.1" viewBox="-10 0 1010 1000">
   <path fill="currentColor"
d="M310 161l-43 59c-36 -36 -110 -84 -172 -114l41 -53c62 27 138 72 174 108zM260 420l-43 62c-36 -35 -112 -80 -176 -108l42 -55c61 26 139 68 177 101zM232 575l57 44c-45 106 -105 229 -156 323l-65 -46c47 -77 114 -208 164 -321zM749 520l41 -35c44 21 98 56 124 83
l-44 39c-24 -27 -76 -63 -121 -87zM839 301h-394v106v10h394v-116zM953 672h-231c43 108 124 189 241 225c-15 14 -36 41 -46 59c-117 -41 -197 -124 -246 -237c-34 110 -103 188 -245 237c-7 -16 -26 -42 -41 -56c141 -44 200 -119 227 -228h-190c-21 101 -59 203 -128 286
c-10 -16 -37 -41 -55 -50c122 -148 135 -348 135 -501v-302l44 13c149 -15 315 -41 410 -69l56 57c-117 32 -287 56 -439 71v61h466v242h-467c-2 40 -5 83 -11 127h191c5 -34 8 -71 10 -110h70c-2 39 -5 76 -10 110h259v65z" />
</svg>
