<?xml version="1.0" standalone="no"?>
<!DOCTYPE svg PUBLIC "-//W3C//DTD SVG 1.1//EN" "http://www.w3.org/Graphics/SVG/1.1/DTD/svg11.dtd" >
<svg xmlns="http://www.w3.org/2000/svg" xmlns:xlink="http://www.w3.org/1999/xlink" version="1.1" viewBox="-10 0 1010 1000">
   <path fill="currentColor"
d="M90 610l61 11c-13 94 -34 189 -65 253c-11 -8 -40 -21 -55 -26c31 -61 49 -151 59 -238zM329 534l-71 4v418h-64v-414l-146 9l-8 -65c20 -1 43 -1 67 -2c19 -26 39 -55 59 -86c-29 -45 -78 -103 -123 -146l40 -47c8 8 17 16 26 25c33 -57 67 -132 88 -186l65 23
c-34 67 -76 148 -114 204c21 22 40 46 55 66c37 -62 72 -127 97 -180l63 27c-55 94 -126 212 -190 297c42 -2 88 -4 134 -7c-13 -33 -29 -66 -45 -95l52 -19c38 65 74 149 86 203l-56 23c-3 -15 -9 -33 -15 -52zM288 622l51 -15c22 51 41 118 49 161l-55 18
c-5 -45 -25 -112 -45 -164zM770 701h-178c-16 23 -32 45 -48 66c46 10 92 23 136 36c39 -27 69 -61 90 -102zM483 462v70h146v-70h-146zM847 462h-151v70h151v-70zM504 312h125v-59h-125v59zM629 150h-125v56h125v-56zM824 150h-128v56h128v-56zM696 312h128v-59h-128v59z
M958 701h-113c-21 50 -51 92 -91 126c77 27 146 56 197 85l-46 50c-53 -32 -128 -64 -211 -94c-79 45 -185 73 -319 91c-6 -19 -19 -44 -31 -60c109 -10 198 -28 267 -58c-33 -10 -68 -20 -102 -29l-14 18l-61 -22c24 -29 52 -67 80 -107h-124v-57h164c14 -21 28 -42 41 -62
h-175v-169h209v-52h-189v-103h-68v-57h68v-100h189v-58h67v58h194v100h65v57h-65v103h-194v52h217v169h-237c-14 20 -28 41 -43 62h325v57z" />
</svg>
