<?xml version="1.0" standalone="no"?>
<!DOCTYPE svg PUBLIC "-//W3C//DTD SVG 1.1//EN" "http://www.w3.org/Graphics/SVG/1.1/DTD/svg11.dtd" >
<svg xmlns="http://www.w3.org/2000/svg" xmlns:xlink="http://www.w3.org/1999/xlink" version="1.1" viewBox="-10 0 1010 1000">
   <path fill="currentColor"
d="M174 548h160v-168h-158v56c0 34 -1 72 -2 112zM334 147h-158v164h158v-164zM403 78v779c0 40 -9 62 -34 75c-26 12 -64 14 -132 14c-2 -19 -11 -52 -21 -71c46 2 88 1 100 1c13 -1 18 -6 18 -19v-238h-164c-9 118 -28 242 -74 337c-13 -12 -43 -29 -61 -36
c68 -140 73 -338 73 -484v-358h295zM931 281v38c-12 413 -21 552 -55 596c-18 26 -39 35 -71 38c-29 3 -80 3 -130 0c-2 -22 -10 -53 -23 -74c53 5 102 5 123 5c17 1 26 -2 36 -15c24 -29 36 -159 46 -515h-179c-13 253 -58 470 -211 607c-13 -19 -39 -44 -59 -56
c143 -121 184 -320 197 -551h-162v-73h164c3 -76 3 -155 3 -235h74c0 80 -1 159 -3 235h250z" />
</svg>
