<?xml version="1.0" standalone="no"?>
<!DOCTYPE svg PUBLIC "-//W3C//DTD SVG 1.1//EN" "http://www.w3.org/Graphics/SVG/1.1/DTD/svg11.dtd" >
<svg xmlns="http://www.w3.org/2000/svg" xmlns:xlink="http://www.w3.org/1999/xlink" version="1.1" viewBox="-10 0 1010 1000">
   <path fill="currentColor"
d="M947 114v57h-655v-57h284v-71h74v71h297zM536 348v48h167v-48h-167zM481 431v-119h277v119h-277zM412 269v206h419v-206h-419zM898 519h-551v-294h551v294zM264 257l-53 54c-30 -44 -99 -110 -155 -156l49 -49c56 44 126 106 159 151zM218 467l55 46
c-49 105 -114 230 -169 321l-63 -47c50 -77 123 -208 177 -320zM946 744h-243c70 60 174 115 262 144c-14 12 -34 37 -44 54c-91 -36 -200 -103 -273 -175v189h-70v-192c-77 78 -191 145 -295 181c-9 -17 -30 -42 -45 -55c98 -28 205 -83 277 -146h-242v-59h305v-62
c-82 5 -165 8 -242 10c-2 -15 -9 -38 -15 -53c184 -5 405 -20 528 -42l48 51c-69 12 -157 22 -249 29v67h298v59z" />
</svg>
