<?xml version="1.0" standalone="no"?>
<!DOCTYPE svg PUBLIC "-//W3C//DTD SVG 1.1//EN" "http://www.w3.org/Graphics/SVG/1.1/DTD/svg11.dtd" >
<svg xmlns="http://www.w3.org/2000/svg" xmlns:xlink="http://www.w3.org/1999/xlink" version="1.1" viewBox="-10 0 1010 1000">
   <path fill="currentColor"
d="M674 355h-129c-19 106 -72 171 -216 211c-6 -16 -25 -43 -39 -55c128 -28 172 -76 187 -156h-178v-65h280v-96h-217v-63h217v-88h73v88h230v63h-230v96h290v65h-202v89c0 18 5 21 32 21h94c22 0 27 -8 29 -72c14 10 40 19 59 23c-7 88 -27 109 -81 109h-107
c-74 0 -92 -18 -92 -82v-88zM274 260l-54 55c-34 -45 -106 -113 -167 -159l50 -49c61 45 136 109 171 153zM216 507l56 47c-49 101 -113 221 -167 309l-64 -48c49 -73 122 -199 175 -308zM517 644l-7 7c30 45 71 85 120 118c55 -36 95 -78 122 -125h-235zM803 583l48 20
c-29 80 -81 149 -157 205c78 41 171 70 271 86c-15 15 -35 45 -45 64c-108 -21 -206 -58 -289 -109c-85 48 -192 84 -322 107c-8 -17 -26 -43 -40 -59c121 -20 221 -51 300 -92c-41 -32 -76 -69 -106 -110c-37 31 -77 58 -116 81c-12 -13 -37 -39 -54 -51
c106 -53 205 -137 257 -236l68 19c-14 27 -32 53 -51 78h221z" />
</svg>
