<?xml version="1.0" standalone="no"?>
<!DOCTYPE svg PUBLIC "-//W3C//DTD SVG 1.1//EN" "http://www.w3.org/Graphics/SVG/1.1/DTD/svg11.dtd" >
<svg xmlns="http://www.w3.org/2000/svg" xmlns:xlink="http://www.w3.org/1999/xlink" version="1.1" viewBox="-10 0 1010 1000">
   <path fill="currentColor"
d="M945 591l-55 47c-48 -42 -147 -102 -225 -142l52 -42c76 37 176 96 228 137zM838 251l65 34c-50 46 -115 92 -166 124l-53 -32c49 -33 116 -87 154 -126zM334 310l28 18c26 -33 53 -73 72 -105h-347v-67h373v-112h74v112h382v67h-435l26 10c-31 43 -68 89 -100 124
c28 20 55 40 76 58c40 -46 77 -92 105 -132l59 28c-59 74 -137 161 -209 230l172 -9c-19 -27 -39 -53 -59 -76l54 -24c49 55 104 129 126 180l-57 30c-7 -16 -17 -36 -29 -56c-127 9 -254 17 -350 24l-10 -63c22 -1 48 -2 75 -3c26 -25 54 -53 82 -83
c-39 -34 -97 -76 -145 -107zM297 372l-52 45c-32 -32 -101 -79 -157 -111l50 -41c55 29 125 75 159 107zM304 465l14 56c-79 37 -161 77 -228 106l-37 -60c64 -23 158 -63 251 -102zM534 610v77h410v69h-410v203h-74v-203h-403v-69h403v-77h74z" />
</svg>
