<?xml version="1.0" standalone="no"?>
<!DOCTYPE svg PUBLIC "-//W3C//DTD SVG 1.1//EN" "http://www.w3.org/Graphics/SVG/1.1/DTD/svg11.dtd" >
<svg xmlns="http://www.w3.org/2000/svg" xmlns:xlink="http://www.w3.org/1999/xlink" version="1.1" viewBox="-10 0 1010 1000">
   <path fill="currentColor"
d="M291 740l71 26c-68 69 -170 136 -256 179c-12 -13 -40 -39 -58 -51c88 -38 184 -95 243 -154zM819 701l-285 9v248h-72v-246c-148 4 -285 7 -389 9l-4 -69c64 0 142 0 228 -1c23 -13 46 -28 69 -43c-49 -39 -124 -86 -188 -118l49 -42c16 8 34 17 51 26
c44 -34 94 -79 130 -117h-261v122h-70v-186h384v-97h-381v-65h381v-88h73v88h384v65h-384v97h393v186h-73v-122h-392l31 15c-50 46 -108 96 -160 133c34 21 68 43 93 63c79 -55 157 -115 212 -165l68 36c-86 70 -196 148 -296 211c106 -1 221 -3 335 -5
c-39 -28 -80 -55 -117 -78l48 -39c89 51 198 128 254 181l-52 45c-16 -16 -36 -34 -59 -53zM630 780l57 -38c85 41 194 107 251 156l-62 45c-51 -48 -158 -118 -246 -163z" />
</svg>
