<?xml version="1.0" standalone="no"?>
<!DOCTYPE svg PUBLIC "-//W3C//DTD SVG 1.1//EN" "http://www.w3.org/Graphics/SVG/1.1/DTD/svg11.dtd" >
<svg xmlns="http://www.w3.org/2000/svg" xmlns:xlink="http://www.w3.org/1999/xlink" version="1.1" viewBox="-10 0 1010 1000">
   <path fill="currentColor"
d="M950 174v69h-587v-69h257v-130h72v130h258zM388 540l-126 39v290c0 41 -10 62 -35 74c-26 11 -66 13 -133 12c-3 -18 -12 -49 -22 -67c45 1 86 1 99 0c13 0 18 -4 18 -19v-268l-136 41l-20 -72c43 -11 97 -26 156 -43v-214h-142v-68h142v-201h73v201h115v68h-115v193
l116 -35zM463 664l69 21c-37 78 -95 163 -148 216c-13 -11 -43 -32 -60 -41c53 -50 105 -124 139 -196zM506 393v154h309v-154h-309zM886 608h-194v267c0 37 -7 58 -33 70c-28 11 -69 12 -132 12c-3 -20 -13 -50 -24 -69c47 1 88 1 102 1c13 -1 16 -4 16 -15v-266h-185v-278
h450v278zM769 693l59 -30c52 62 109 144 136 198l-64 35c-25 -55 -82 -142 -131 -203z" />
</svg>
