<?xml version="1.0" standalone="no"?>
<!DOCTYPE svg PUBLIC "-//W3C//DTD SVG 1.1//EN" "http://www.w3.org/Graphics/SVG/1.1/DTD/svg11.dtd" >
<svg xmlns="http://www.w3.org/2000/svg" xmlns:xlink="http://www.w3.org/1999/xlink" version="1.1" viewBox="-10 0 1010 1000">
   <path fill="currentColor"
d="M764 585h-64v-166c-37 64 -92 127 -144 162c-11 -15 -30 -35 -43 -47c53 -29 109 -85 147 -143h-95v-56h135v-74c-39 6 -78 10 -115 13c-3 -13 -11 -33 -17 -46c93 -8 203 -24 260 -48l51 39c-32 13 -72 23 -115 31v85h163v56h-124c37 57 93 110 153 136
c-15 12 -34 34 -43 50c-58 -33 -112 -92 -149 -156v164zM418 585h-63v-145c-34 56 -78 109 -120 141c-9 -15 -29 -36 -43 -46c49 -29 101 -87 136 -144h-101v-56h128v-72c-37 6 -74 10 -108 13c-3 -12 -11 -32 -18 -45c87 -9 189 -25 241 -48l51 39c-29 12 -65 22 -103 30
v83h116v56h-116v5c26 17 95 66 112 81l-38 48c-14 -15 -46 -44 -74 -69v129zM195 159v226c0 165 -12 405 -96 569c-13 -11 -43 -29 -62 -36c81 -157 89 -376 89 -533v-294h815v68h-746zM605 743v122h339v64h-760v-64h128v-211h70v211h151v-282h72v100h243v60h-243z" />
</svg>
