<?xml version="1.0" standalone="no"?>
<!DOCTYPE svg PUBLIC "-//W3C//DTD SVG 1.1//EN" "http://www.w3.org/Graphics/SVG/1.1/DTD/svg11.dtd" >
<svg xmlns="http://www.w3.org/2000/svg" xmlns:xlink="http://www.w3.org/1999/xlink" version="1.1" viewBox="-10 0 1010 1000">
   <path fill="currentColor"
d="M839 59l63 29c-35 48 -76 102 -109 136l-49 -24c31 -38 73 -99 95 -141zM545 192l-58 32c-15 -35 -53 -90 -86 -130l55 -29c34 39 72 92 89 127zM80 513l-49 -23c34 -60 50 -168 52 -255l50 7c0 90 -16 203 -53 271zM172 955v-912h70v912h-70zM364 375l-50 23
c-7 -46 -33 -122 -59 -179l47 -17c28 56 54 129 62 173zM542 604h-107c-10 17 -20 34 -31 50c30 20 64 45 89 67c20 -35 37 -75 49 -117zM575 549l40 12c-42 198 -146 331 -275 396c-8 -15 -25 -40 -38 -53c58 -27 113 -72 157 -130c-24 -23 -58 -50 -89 -73
c-16 19 -33 37 -51 54c-10 -14 -31 -34 -44 -41c78 -70 127 -165 151 -242l62 10c-8 22 -17 46 -27 69h103zM698 755h95v-134h-95v134zM856 621v134h102v62h-102v138h-63v-138h-217v-62h62v-193h155v-85h63v85h87v59h-87zM941 289h-206c61 55 151 105 232 131
c-15 13 -36 38 -46 54c-82 -31 -174 -91 -239 -156v186h-67v-184c-66 72 -162 138 -245 174c-10 -17 -30 -40 -44 -53c83 -30 177 -89 239 -152h-198v-62h248v-184h67v184h259v62z" />
</svg>
