<?xml version="1.0" standalone="no"?>
<!DOCTYPE svg PUBLIC "-//W3C//DTD SVG 1.1//EN" "http://www.w3.org/Graphics/SVG/1.1/DTD/svg11.dtd" >
<svg xmlns="http://www.w3.org/2000/svg" xmlns:xlink="http://www.w3.org/1999/xlink" version="1.1" viewBox="-10 0 1010 1000">
   <path fill="currentColor"
d="M623 524l-41 14c-5 -38 -22 -96 -41 -139l40 -13c20 44 38 101 42 138zM774 539l-39 -15c19 -38 42 -101 54 -142l47 16c-20 48 -42 104 -62 141zM364 761l-49 -13c14 -48 33 -127 41 -180l58 15c-16 61 -35 132 -50 178zM430 783l4 46c70 -52 134 -130 176 -209h-162
v-322h201v-90h-217c4 6 8 11 11 16l-50 56c-29 -46 -87 -118 -139 -168c-30 54 -71 117 -126 177h262v64h-111v106h143v65h-143v290c49 -10 100 -21 151 -31zM864 562v-207h-153v207h153zM656 355h-147v207h147v-207zM926 620h-169c52 93 137 190 211 240
c-15 14 -39 38 -51 56c-69 -54 -146 -151 -199 -247v287h-69v-284c-57 105 -141 199 -225 252c-11 -17 -34 -43 -49 -57c7 -4 15 -8 22 -13c-119 26 -240 51 -333 72l-15 -69c46 -8 103 -18 165 -30v-303h-156v-65h156v-106h-103v-45c-13 13 -27 26 -41 39
c-11 -15 -33 -38 -46 -47c90 -76 154 -177 187 -256h67c51 47 114 112 151 161v-64h220v-98h69v98h226v67h-226v90h208v322zM81 589l51 -12c21 60 37 137 40 188l-55 14c-2 -52 -17 -129 -36 -190z" />
</svg>
