<?xml version="1.0" standalone="no"?>
<!DOCTYPE svg PUBLIC "-//W3C//DTD SVG 1.1//EN" "http://www.w3.org/Graphics/SVG/1.1/DTD/svg11.dtd" >
<svg xmlns="http://www.w3.org/2000/svg" xmlns:xlink="http://www.w3.org/1999/xlink" version="1.1" viewBox="-10 0 1010 1000">
   <path fill="currentColor"
d="M952 306l-64 43c-42 -62 -136 -154 -217 -219l59 -37c81 62 177 150 222 213zM535 43v253c0 39 -9 57 -38 67c-30 11 -78 11 -151 11c-4 -19 -15 -46 -24 -65c55 2 106 2 121 1c15 0 19 -3 19 -16v-251h73zM271 100l73 21c-51 94 -136 183 -216 238
c-14 -12 -45 -35 -64 -46c82 -50 162 -129 207 -213zM553 586h338s-1 22 -2 32c-18 192 -34 272 -66 302c-20 21 -42 26 -76 28c-29 2 -90 2 -151 -2c-2 -21 -11 -50 -24 -71c62 6 123 7 146 7c21 0 32 -1 42 -11c21 -18 36 -79 49 -219h-272c-45 156 -149 255 -419 306
c-6 -17 -24 -47 -36 -63c241 -41 337 -119 379 -243h-279v-66h296c7 -35 12 -74 15 -115c-120 53 -258 89 -399 115c-8 -18 -28 -51 -43 -68c275 -38 529 -121 649 -281l72 27c-63 83 -153 147 -258 197h54c-4 45 -8 86 -15 125z" />
</svg>
