<?xml version="1.0" standalone="no"?>
<!DOCTYPE svg PUBLIC "-//W3C//DTD SVG 1.1//EN" "http://www.w3.org/Graphics/SVG/1.1/DTD/svg11.dtd" >
<svg xmlns="http://www.w3.org/2000/svg" xmlns:xlink="http://www.w3.org/1999/xlink" version="1.1" viewBox="-10 0 1010 1000">
   <path fill="currentColor"
d="M804 152h-593v124h593v-124zM211 345v27c0 167 -13 409 -109 571c-14 -12 -47 -30 -66 -37c93 -156 101 -375 101 -534v-289h741v262h-667zM452 483l42 13c-37 205 -127 325 -248 391c-9 -15 -36 -42 -52 -52c103 -51 181 -142 218 -284h-173v-66h200zM849 432l62 43
c-58 59 -132 124 -196 173c63 80 143 144 237 178c-17 15 -39 43 -50 63c-125 -55 -223 -160 -292 -290v268c0 42 -9 61 -37 73c-27 12 -72 13 -140 13c-4 -21 -15 -50 -26 -70c50 2 98 2 110 1c15 -1 19 -4 19 -18v-508h74v95c18 51 41 100 70 144
c59 -49 127 -114 169 -165z" />
</svg>
