<?xml version="1.0" standalone="no"?>
<!DOCTYPE svg PUBLIC "-//W3C//DTD SVG 1.1//EN" "http://www.w3.org/Graphics/SVG/1.1/DTD/svg11.dtd" >
<svg xmlns="http://www.w3.org/2000/svg" xmlns:xlink="http://www.w3.org/1999/xlink" version="1.1" viewBox="-10 0 1010 1000">
   <path fill="currentColor"
d="M375 396l101 -2c28 -48 59 -112 81 -164h-180v-64h235v-122h73v122h262v64h-310c-26 52 -58 113 -87 162c81 -2 171 -4 262 -8c-28 -30 -59 -59 -89 -84l54 -32c70 58 150 140 187 199l-58 36c-10 -17 -24 -37 -41 -57c-176 7 -359 14 -484 19zM367 672l7 61
c-115 33 -234 67 -323 93l-15 -72c38 -8 84 -20 136 -33v-236h-111v-66h111v-214h-124v-66h315v66h-125v214h102v66h-102v220c42 -11 85 -22 129 -33zM446 623v-111h66v113c0 112 -20 240 -174 331c-10 -14 -31 -39 -47 -50c139 -80 155 -190 155 -283zM606 913v-392h66v392
h-66zM859 889h24c7 0 14 -1 18 -4c5 -4 8 -12 11 -28c1 -16 2 -54 3 -102c14 13 39 25 57 32c-2 44 -5 95 -9 112c-6 20 -15 32 -29 39c-12 6 -29 9 -45 9h-46c-18 0 -39 -4 -53 -17s-19 -29 -19 -91v-326h68v334c0 20 0 33 4 37s9 5 16 5z" />
</svg>
