<?xml version="1.0" standalone="no"?>
<!DOCTYPE svg PUBLIC "-//W3C//DTD SVG 1.1//EN" "http://www.w3.org/Graphics/SVG/1.1/DTD/svg11.dtd" >
<svg xmlns="http://www.w3.org/2000/svg" xmlns:xlink="http://www.w3.org/1999/xlink" version="1.1" viewBox="-10 0 1010 1000">
   <path fill="currentColor"
d="M493 423l-65 34c-5 -15 -13 -31 -23 -49c-121 33 -247 67 -341 92l-20 -71c26 -6 56 -13 88 -21l-10 -303l64 18c83 -21 174 -49 229 -76l51 54c-75 31 -177 59 -270 78l9 212c52 -13 108 -27 165 -41c-22 -33 -48 -64 -73 -91l59 -31c57 58 115 138 137 195zM463 601
h-217v98h217v-98zM759 699v-98h-226v98h226zM533 858h226v-102h-226v102zM246 858h217v-102h-217v102zM176 956v-416h656v412h-73v-32h-513v36h-70zM501 99h413s0 20 -1 31c-10 217 -19 296 -44 324c-15 18 -33 25 -59 28c-24 2 -68 1 -112 -1c-2 -21 -9 -48 -20 -66
c43 4 84 4 99 4c15 1 24 0 32 -10c14 -16 23 -80 31 -247h-152c-17 159 -61 281 -209 349c-7 -16 -27 -41 -43 -53c131 -57 168 -162 182 -296h-117v-63z" />
</svg>
