<?xml version="1.0" standalone="no"?>
<!DOCTYPE svg PUBLIC "-//W3C//DTD SVG 1.1//EN" "http://www.w3.org/Graphics/SVG/1.1/DTD/svg11.dtd" >
<svg xmlns="http://www.w3.org/2000/svg" xmlns:xlink="http://www.w3.org/1999/xlink" version="1.1" viewBox="-10 0 1010 1000">
   <path fill="currentColor"
d="M702 376h-125c-11 116 -50 183 -177 223c-6 -16 -22 -39 -37 -51c2 13 3 26 3 39c0 54 -12 95 -39 114c-14 10 -33 16 -53 18c-20 3 -44 3 -67 2c-1 -19 -8 -48 -19 -68c23 3 42 3 57 2c13 0 24 -3 33 -8c14 -11 20 -38 20 -68c0 -53 -19 -120 -90 -196
c29 -72 58 -162 80 -230h-132v803h-70v-870h229l12 -3l50 30c-30 81 -67 182 -100 261c56 63 78 120 86 170c105 -30 137 -79 147 -168h-145v-65h247v-110h-196v-64h196v-92h72v92h204v64h-204v110h263v65h-179v103c0 20 2 23 26 23h74c20 0 25 -9 27 -82c13 11 40 20 58 25
c-6 93 -25 116 -76 116h-92c-68 0 -83 -18 -83 -82v-103zM684 866h273v67h-632v-67h287v-138h-208v-65h208v-108h72v108h217v65h-217v138z" />
</svg>
