<?xml version="1.0" standalone="no"?>
<!DOCTYPE svg PUBLIC "-//W3C//DTD SVG 1.1//EN" "http://www.w3.org/Graphics/SVG/1.1/DTD/svg11.dtd" >
<svg xmlns="http://www.w3.org/2000/svg" xmlns:xlink="http://www.w3.org/1999/xlink" version="1.1" viewBox="-10 0 1010 1000">
   <path fill="currentColor"
d="M635 724h150v-99h-150v99zM425 724h146v-99h-146v99zM215 724h145v-99h-145v99zM857 565v321c0 33 -6 51 -32 60c-24 11 -63 11 -122 11c-5 -17 -17 -41 -26 -57c43 1 82 1 92 0c12 0 16 -3 16 -14v-105h-150v162h-64v-162h-146v164h-65v-164h-145v172h-68v-388h710z
M319 432h364c-72 -38 -138 -82 -186 -128c-43 44 -106 88 -178 128zM806 265h-251c113 97 275 166 421 200c-16 19 -33 47 -43 67c-69 -19 -145 -48 -217 -83v42h-428v-42c-69 36 -145 67 -220 91c-8 -19 -25 -47 -38 -64c159 -44 314 -125 404 -211h-234v44h-72v-237h72
v129h261v-158h75v158h270v-129h74v232h-74v-39z" />
</svg>
