<?xml version="1.0" standalone="no"?>
<!DOCTYPE svg PUBLIC "-//W3C//DTD SVG 1.1//EN" "http://www.w3.org/Graphics/SVG/1.1/DTD/svg11.dtd" >
<svg xmlns="http://www.w3.org/2000/svg" xmlns:xlink="http://www.w3.org/1999/xlink" version="1.1" viewBox="-10 0 1010 1000">
   <path fill="currentColor"
d="M952 840v68h-783v49h-73v-867h830v67h-757v683h783zM454 603v118h279v-118h-279zM901 480h-411c-14 23 -29 46 -45 67h360v230h-419v-162c-35 35 -74 66 -115 92c-11 -12 -37 -38 -52 -49c77 -43 144 -103 193 -178h-186v-60h221c12 -24 22 -49 31 -75l67 14
c-7 21 -15 41 -24 61h380v60zM397 194h68v60h183v-60h67v60h160v58h-160v66h-67v-66h-183v66h-68v-66h-157v-58h157v-60z" />
</svg>
