<?xml version="1.0" standalone="no"?>
<!DOCTYPE svg PUBLIC "-//W3C//DTD SVG 1.1//EN" "http://www.w3.org/Graphics/SVG/1.1/DTD/svg11.dtd" >
<svg xmlns="http://www.w3.org/2000/svg" xmlns:xlink="http://www.w3.org/1999/xlink" version="1.1" viewBox="-10 0 1010 1000">
   <path fill="currentColor"
d="M625 490v-176c-63 71 -150 136 -228 173c-11 -17 -30 -40 -46 -53c79 -32 169 -93 229 -157h-208v-62h135c-16 -34 -47 -84 -77 -121l56 -27c32 38 67 90 81 123l-48 25h106v-169h69v169h100l-44 -18c28 -36 67 -94 86 -133l65 25c-32 45 -68 94 -97 126h143v62h-207
c57 58 143 114 221 140c-16 14 -37 39 -47 56c-77 -34 -162 -98 -220 -166v183h-69zM569 607h-104c-10 19 -21 37 -32 54c31 19 65 43 90 64c19 -36 35 -75 46 -118zM604 547l39 12c-39 204 -141 334 -271 400c-8 -15 -25 -38 -38 -50c60 -27 115 -73 158 -135
c-24 -22 -59 -49 -91 -70c-13 17 -26 32 -40 46c-6 -7 -16 -16 -26 -24c-99 32 -203 66 -284 92l-16 -70c37 -10 82 -24 131 -39v-237h-107v-66h107v-214h-120v-67h303v67h-117v214h106v66h-106v217c36 -12 72 -23 108 -35l3 22c52 -58 92 -137 117 -219l62 14
c-8 27 -18 53 -29 79h99zM715 750h85v-123h-85v123zM862 627v123h97v62h-97v144h-62v-144h-201v-62h58v-184h143v-107h62v107h85v61h-85z" />
</svg>
