<?xml version="1.0" standalone="no"?>
<!DOCTYPE svg PUBLIC "-//W3C//DTD SVG 1.1//EN" "http://www.w3.org/Graphics/SVG/1.1/DTD/svg11.dtd" >
<svg xmlns="http://www.w3.org/2000/svg" xmlns:xlink="http://www.w3.org/1999/xlink" version="1.1" viewBox="-10 0 1010 1000">
   <path fill="currentColor"
d="M273 203l-51 44c-26 -39 -82 -100 -130 -142l49 -39c48 40 105 98 132 137zM229 458l-49 47c-29 -36 -88 -92 -137 -130l47 -41c49 36 110 88 139 124zM168 589l58 34c-27 104 -66 225 -99 317l-65 -34c31 -78 75 -206 106 -317zM605 518l-39 68
c-18 -30 -59 -85 -94 -131v500h-69v-459c-36 124 -84 238 -139 308c-12 -16 -35 -40 -51 -53c76 -84 143 -253 180 -418h-130v-72h140v-218h69v218h109v72h-109v44c38 37 114 120 133 141zM944 333h-142c33 155 94 325 163 404c-15 12 -40 36 -52 54
c-48 -64 -90 -180 -121 -302v466h-71v-465c-40 127 -93 241 -154 311c-13 -15 -34 -39 -50 -52c83 -84 153 -250 194 -416h-111v-72h121v-218h71v218h152v72z" />
</svg>
