<?xml version="1.0" standalone="no"?>
<!DOCTYPE svg PUBLIC "-//W3C//DTD SVG 1.1//EN" "http://www.w3.org/Graphics/SVG/1.1/DTD/svg11.dtd" >
<svg xmlns="http://www.w3.org/2000/svg" xmlns:xlink="http://www.w3.org/1999/xlink" version="1.1" viewBox="-10 0 1010 1000">
   <path fill="currentColor"
d="M257 697h89c26 0 31 -26 33 -143c17 14 47 27 67 32c-8 138 -26 181 -94 181h-105c-74 0 -94 -24 -94 -113v-246l-107 23l-13 -68l120 -26v-266h73v251l225 -48l14 67l-239 51v263c0 36 4 42 31 42zM402 131h535s-1 31 -1 41c-13 510 -23 678 -63 729
c-21 31 -43 40 -77 44c-32 4 -88 3 -140 0c-1 -22 -11 -54 -24 -76c58 5 111 5 134 5c17 1 28 -3 39 -17c30 -37 44 -203 56 -655h-210c-7 311 -30 605 -287 758c-11 -19 -36 -45 -54 -59c246 -137 262 -410 266 -699h-174v-71z" />
</svg>
