<?xml version="1.0" standalone="no"?>
<!DOCTYPE svg PUBLIC "-//W3C//DTD SVG 1.1//EN" "http://www.w3.org/Graphics/SVG/1.1/DTD/svg11.dtd" >
<svg xmlns="http://www.w3.org/2000/svg" xmlns:xlink="http://www.w3.org/1999/xlink" version="1.1" viewBox="-10 0 1010 1000">
   <path fill="currentColor"
d="M923 104v70h-488v-70h488zM268 43l71 28c-65 88 -167 185 -256 248c-11 -16 -31 -45 -44 -59c83 -56 179 -146 229 -217zM309 256l69 26c-31 51 -69 102 -110 151v526h-74v-444c-38 39 -76 75 -113 104c-11 -15 -37 -47 -52 -62c103 -73 211 -188 280 -301zM952 377v71
h-151v413c0 46 -11 69 -44 81c-34 11 -90 11 -188 11c-3 -20 -13 -51 -24 -72c71 2 137 2 156 1s25 -5 25 -22v-412h-334v-71h560z" />
</svg>
