<?xml version="1.0" standalone="no"?>
<!DOCTYPE svg PUBLIC "-//W3C//DTD SVG 1.1//EN" "http://www.w3.org/Graphics/SVG/1.1/DTD/svg11.dtd" >
<svg xmlns="http://www.w3.org/2000/svg" xmlns:xlink="http://www.w3.org/1999/xlink" version="1.1" viewBox="-10 0 1010 1000">
   <path fill="currentColor"
d="M696 254v-62h-125v62h125zM696 366v-64h-125v64h125zM696 482v-68h-125v68h125zM504 536v-253c-17 24 -35 46 -53 65c-10 -12 -34 -36 -50 -46c66 -64 122 -160 154 -259l65 16c-10 27 -21 54 -33 80h123c14 -30 28 -65 36 -91l68 16c-14 26 -28 52 -41 75h143v53h-156
v62h133v48h-133v64h135v48h-135v68h177v54h-433zM428 452l-47 53c-24 -27 -58 -58 -98 -90c-47 59 -113 110 -207 146c-8 -15 -27 -41 -41 -53c91 -31 153 -79 196 -132c-47 -35 -98 -68 -145 -95l44 -48c44 25 93 55 139 87c21 -38 35 -78 46 -116h-259v-62h172v-93h70v93
h160v62h-76c-13 52 -32 105 -60 154c42 33 80 65 106 94zM718 654h-411c50 53 120 98 204 133c83 -35 155 -79 207 -133zM789 589l50 31c-55 85 -139 150 -239 200c105 34 224 56 349 68c-17 17 -36 50 -46 70c-145 -16 -281 -47 -398 -96c-131 50 -279 79 -423 95
c-6 -19 -19 -50 -32 -67c125 -11 253 -33 368 -69c-75 -40 -138 -89 -188 -146l44 -21h-168v-61h669z" />
</svg>
