<?xml version="1.0" standalone="no"?>
<!DOCTYPE svg PUBLIC "-//W3C//DTD SVG 1.1//EN" "http://www.w3.org/Graphics/SVG/1.1/DTD/svg11.dtd" >
<svg xmlns="http://www.w3.org/2000/svg" xmlns:xlink="http://www.w3.org/1999/xlink" version="1.1" viewBox="-10 0 1010 1000">
   <path fill="currentColor"
d="M931 138v65h-515v-65h212v-95h74v95h229zM779 377l-58 -17c23 -42 49 -108 64 -154l68 17c-24 53 -50 114 -74 154zM601 358l-65 17c-6 -39 -25 -103 -47 -151l62 -13c22 48 43 109 50 147zM315 688v-446h54v569h-54v-61h-184v100h-56v-608h56v446h60v-634h61v634h63z
M666 580h-150v128h150v-128zM727 764h-211v59h-61v-299h272v240zM957 381v66h-76v422c0 41 -10 63 -40 74s-79 12 -157 12c-4 -19 -16 -49 -26 -68c60 2 115 2 131 1s21 -5 21 -19v-422h-419v-66h566z" />
</svg>
