<?xml version="1.0" standalone="no"?>
<!DOCTYPE svg PUBLIC "-//W3C//DTD SVG 1.1//EN" "http://www.w3.org/Graphics/SVG/1.1/DTD/svg11.dtd" >
<svg xmlns="http://www.w3.org/2000/svg" xmlns:xlink="http://www.w3.org/1999/xlink" version="1.1" viewBox="-10 0 1010 1000">
   <path fill="currentColor"
d="M235 209l-50 51c-26 -37 -83 -87 -134 -121l47 -47c50 32 110 80 137 117zM122 957l-66 -32c50 -41 95 -117 120 -188l70 16c-25 76 -69 156 -124 204zM107 665l-59 -45c42 -65 104 -173 149 -268l52 44c-41 87 -95 191 -142 269zM326 482v128h103v-128h-103zM429 147
h-103v104h103v-104zM529 425v-117h-203v117h203zM616 610v62h-354v-586h337v61h-111v104h104v231h-104v128h128zM347 764l68 -7c12 59 23 135 24 180l-71 10c-1 -46 -9 -123 -21 -183zM549 765l69 -13c27 57 54 134 64 181l-72 15c-10 -47 -36 -124 -61 -183zM748 614h115
c29 0 34 -18 38 -114c14 11 40 22 60 27c-8 117 -28 151 -93 151h-128c-74 0 -97 -20 -97 -102v-487h285v27c-3 188 -8 256 -24 279c-13 15 -27 21 -49 24c-18 1 -51 2 -84 0c-1 -18 -6 -43 -15 -60c30 3 58 3 68 3c12 0 19 -1 25 -8c8 -13 12 -64 15 -201h-155v423
c0 32 6 38 39 38zM752 756l67 -26c50 60 110 143 136 197l-72 30c-24 -53 -81 -139 -131 -201z" />
</svg>
