<?xml version="1.0" standalone="no"?>
<!DOCTYPE svg PUBLIC "-//W3C//DTD SVG 1.1//EN" "http://www.w3.org/Graphics/SVG/1.1/DTD/svg11.dtd" >
<svg xmlns="http://www.w3.org/2000/svg" xmlns:xlink="http://www.w3.org/1999/xlink" version="1.1" viewBox="-10 0 1010 1000">
   <path fill="currentColor"
d="M450 96v760c0 49 -11 72 -43 86c-31 12 -90 13 -171 13c-3 -21 -14 -56 -25 -76c63 3 124 2 143 1c18 0 23 -6 23 -24v-336c-72 112 -185 217 -289 284c-12 -13 -40 -41 -55 -54c104 -59 212 -155 276 -256l68 24v-352h-312v-70h385zM303 214l70 26
c-69 88 -174 176 -264 232c-13 -14 -40 -40 -57 -53c92 -49 191 -126 251 -205zM748 467l70 24c-68 116 -179 221 -285 288c-11 -14 -40 -41 -58 -54c107 -59 212 -154 273 -258zM732 201l70 25c-67 88 -167 178 -254 234c-12 -12 -40 -39 -58 -51c89 -51 183 -130 242 -208
zM904 96v757c0 51 -12 75 -47 88c-36 12 -98 13 -187 13c-4 -21 -17 -57 -28 -77c70 3 140 3 161 1c20 0 26 -6 26 -26v-686h-317v-70h392z" />
</svg>
