<?xml version="1.0" standalone="no"?>
<!DOCTYPE svg PUBLIC "-//W3C//DTD SVG 1.1//EN" "http://www.w3.org/Graphics/SVG/1.1/DTD/svg11.dtd" >
<svg xmlns="http://www.w3.org/2000/svg" xmlns:xlink="http://www.w3.org/1999/xlink" version="1.1" viewBox="-10 0 1010 1000">
   <path fill="currentColor"
d="M188 624h134v-116h-132v35c0 25 -1 53 -2 81zM322 336h-132v112h132v-112zM544 424v59h280v-59h-280zM544 319v58h280v-58h-280zM599 584h337s0 19 -1 29c-10 211 -19 288 -42 315c-14 17 -29 23 -53 26c-21 1 -57 2 -94 0c-2 -18 -8 -44 -17 -60c36 2 67 3 80 3
s20 -1 27 -10c14 -18 23 -79 30 -247h-307c-11 14 -23 28 -36 41h26v141h237v57h-237v37h-64v-197c-18 17 -38 33 -59 48c-8 -12 -25 -29 -39 -40v148c0 37 -8 57 -33 68c-26 11 -69 12 -129 12c-2 -18 -12 -47 -21 -64c45 2 87 1 101 0c13 0 17 -4 17 -17v-189h-139
c-10 97 -36 199 -93 273c-11 -11 -40 -29 -55 -36c82 -109 91 -263 91 -380v-267h261v440c76 -54 131 -122 166 -182h-75v-263h414v263h-262c-9 17 -19 34 -31 51zM675 650l51 6c-5 17 -11 34 -19 50c34 22 76 52 99 72l-34 36c-20 -19 -56 -48 -89 -71
c-21 28 -48 52 -77 70c-8 -10 -27 -27 -38 -36c53 -30 92 -73 107 -127zM701 112h241v65h-241v71h-74v-71h-259v71h-73v-71h-238v-65h238v-68h73v68h259v-68h74v68z" />
</svg>
