<?xml version="1.0" standalone="no"?>
<!DOCTYPE svg PUBLIC "-//W3C//DTD SVG 1.1//EN" "http://www.w3.org/Graphics/SVG/1.1/DTD/svg11.dtd" >
<svg xmlns="http://www.w3.org/2000/svg" xmlns:xlink="http://www.w3.org/1999/xlink" version="1.1" viewBox="-10 0 1010 1000">
   <path fill="currentColor"
d="M677 184h-183c-20 29 -41 56 -63 82h186c21 -23 42 -53 60 -82zM821 462v-136h-162v136h162zM437 462h156v-136h-156v136zM369 522v-192c-12 11 -23 21 -35 30c-12 -13 -43 -38 -60 -49c90 -62 170 -161 216 -268l73 19c-9 21 -20 41 -31 61h187l14 -4l47 34
c-22 37 -51 78 -80 113h193v256h-177v191c0 24 5 28 38 28h108c27 0 32 -12 35 -92c15 10 44 20 64 25c-9 105 -29 131 -92 131h-123c-80 0 -100 -20 -100 -92v-191h-91c-19 132 -66 234 -209 295c-8 -18 -28 -43 -44 -56c125 -48 165 -133 179 -239h-112zM741 570l47 -32
c39 32 85 79 107 112l-50 36c-21 -33 -66 -82 -104 -116zM292 222l-59 49c-31 -48 -105 -115 -170 -159l55 -44c64 42 139 106 174 154zM264 435v319c47 73 134 107 249 112c109 4 331 1 448 -7c-8 18 -21 53 -24 76c-109 4 -314 6 -424 2c-130 -5 -219 -41 -283 -118
c-48 42 -98 85 -151 128l-40 -75c46 -30 102 -72 152 -114v-253h-139v-70h212z" />
</svg>
