<?xml version="1.0" standalone="no"?>
<!DOCTYPE svg PUBLIC "-//W3C//DTD SVG 1.1//EN" "http://www.w3.org/Graphics/SVG/1.1/DTD/svg11.dtd" >
<svg xmlns="http://www.w3.org/2000/svg" xmlns:xlink="http://www.w3.org/1999/xlink" version="1.1" viewBox="-10 0 1010 1000">
   <path fill="currentColor"
d="M282 816l160 -31l4 63c-134 29 -278 58 -382 78l-17 -67c46 -8 105 -18 170 -31v-305h-160v-65h160v-105h-109v-35c-10 10 -20 20 -31 30c-11 -15 -34 -39 -48 -48c88 -76 150 -177 182 -256h67c64 56 142 135 179 189l-50 56c-32 -48 -94 -123 -151 -176
c-29 54 -69 116 -121 176h261v64h-114v105h145v65h-145v293zM79 593l52 -13c21 58 38 134 43 183l-55 16c-3 -51 -20 -127 -40 -186zM363 769l-48 -16c16 -50 37 -130 47 -185l59 18c-19 62 -41 136 -58 183zM765 514l-20 -6c19 -35 41 -88 54 -127h-224c21 40 41 91 47 125
l-26 8h169zM958 315v66h-127l41 11c-20 43 -41 88 -59 122h137v66h-230v112h209v64h-209v199h-73v-199h-197v-64h197v-112h-217v-66h124c-8 -35 -25 -83 -44 -120l48 -13h-139v-66h228v-100h-174v-64h174v-108h73v108h189v64h-189v100h238z" />
</svg>
