<?xml version="1.0" standalone="no"?>
<!DOCTYPE svg PUBLIC "-//W3C//DTD SVG 1.1//EN" "http://www.w3.org/Graphics/SVG/1.1/DTD/svg11.dtd" >
<svg xmlns="http://www.w3.org/2000/svg" xmlns:xlink="http://www.w3.org/1999/xlink" version="1.1" viewBox="-10 0 1010 1000">
   <path fill="currentColor"
d="M127 227v91h-64v-153h179v-115h69v115h176v153h-65v-91h-295zM182 736v88h100v-88h-100zM282 535v-85h-100v85h100zM282 678v-86h-100v86h100zM475 824v38c22 -39 36 -89 42 -137l54 14c-12 71 -32 148 -76 193l-50 -29c6 -6 11 -12 16 -19h-279v47h-62v-386
c-14 23 -28 44 -43 63c-10 -11 -34 -35 -47 -46c61 -73 108 -186 136 -302l62 15c-10 40 -22 79 -36 116h93c14 -38 29 -84 37 -118l63 17c-12 33 -26 69 -39 101h129v59h-131v85h115v57h-115v86h115v58h-115v88h131zM593 726l47 -6c12 52 20 121 21 165l-50 8
c1 -45 -6 -113 -18 -167zM824 190h-230v65h230v-65zM594 372h230v-66h-230v66zM958 541h-364v58h338s-1 18 -2 28c-11 200 -22 275 -47 302c-15 17 -30 23 -56 25c-21 2 -63 1 -107 0c-1 -18 -7 -44 -17 -60c42 3 81 4 96 4s23 -2 30 -9c10 -12 18 -41 25 -102l-34 16
c-12 -28 -40 -71 -65 -102l36 -16c24 27 50 63 65 90c3 -31 6 -70 9 -119h-339v-520h123c12 -30 23 -67 29 -93l77 14c-13 28 -25 55 -37 79h174v290h-298v57h364v58zM769 840l-46 13c-7 -36 -28 -93 -49 -136l43 -11c21 43 43 98 52 134z" />
</svg>
