<?xml version="1.0" standalone="no"?>
<!DOCTYPE svg PUBLIC "-//W3C//DTD SVG 1.1//EN" "http://www.w3.org/Graphics/SVG/1.1/DTD/svg11.dtd" >
<svg xmlns="http://www.w3.org/2000/svg" xmlns:xlink="http://www.w3.org/1999/xlink" version="1.1" viewBox="-10 0 1010 1000">
   <path fill="currentColor"
d="M346 360v94c0 28 -1 56 -3 86h128v-180h-125zM165 540h111c3 -30 4 -59 4 -87v-93h-115v180zM361 192h-132c-21 36 -45 72 -73 106h148c21 -31 41 -70 57 -106zM514 873h294c67 0 77 -16 85 -114c16 12 45 22 66 26c-13 123 -38 152 -147 152h-297
c-138 0 -174 -20 -174 -108v-226h-6c-21 123 -83 251 -251 352c-10 -14 -34 -37 -50 -48c151 -88 210 -198 233 -304h-168v-240l-12 12c-11 -16 -36 -36 -53 -45c94 -84 158 -199 192 -286l72 12c-10 24 -22 49 -35 74h131l11 -3l45 27c-18 46 -45 99 -72 144h152v-50h127
c2 -61 3 -126 3 -195h70c-1 68 -2 134 -4 195h205v33c-12 326 -21 438 -50 475c-16 21 -34 29 -60 32c-23 3 -63 3 -102 1c-2 -22 -9 -51 -20 -70c39 3 74 4 90 4c15 0 23 -2 31 -14c20 -23 31 -121 40 -391h-137c-14 222 -56 390 -196 495c-8 -16 -32 -41 -48 -51
c125 -93 163 -244 175 -444h-115v285h-128v226c0 37 16 44 103 44z" />
</svg>
