<?xml version="1.0" standalone="no"?>
<!DOCTYPE svg PUBLIC "-//W3C//DTD SVG 1.1//EN" "http://www.w3.org/Graphics/SVG/1.1/DTD/svg11.dtd" >
<svg xmlns="http://www.w3.org/2000/svg" xmlns:xlink="http://www.w3.org/1999/xlink" version="1.1" viewBox="-10 0 1010 1000">
   <path fill="currentColor"
d="M146 498h115v-100h-115v100zM448 398h-118v100h118v-100zM219 180v68h157v-68h-157zM943 277v36c-11 419 -20 558 -51 599c-18 25 -36 33 -65 36c-27 3 -71 3 -116 0c-2 -20 -9 -50 -21 -69c46 5 88 5 106 5c16 0 25 -3 33 -16c24 -29 35 -159 43 -522h-145
c-11 267 -50 482 -203 614c-11 -16 -37 -41 -54 -52l24 -21c-162 13 -328 28 -444 38l-8 -65c60 -4 136 -9 219 -15v-76h-175v-52h175v-61h-191v-53h191v-52h-178v-205h178v-48h-110v-118h-104v-56h104v-80h68v80h157v-80h70v80h102v56h-102v118h-116v48h185v205h-185v52
h201v53h-201v61h180v52h-180v70c65 -5 132 -10 198 -16v27c96 -120 123 -294 131 -504h-125v-69h127c2 -71 2 -147 2 -225h69c0 78 -1 153 -2 225h213z" />
</svg>
