<?xml version="1.0" standalone="no"?>
<!DOCTYPE svg PUBLIC "-//W3C//DTD SVG 1.1//EN" "http://www.w3.org/Graphics/SVG/1.1/DTD/svg11.dtd" >
<svg xmlns="http://www.w3.org/2000/svg" xmlns:xlink="http://www.w3.org/1999/xlink" version="1.1" viewBox="-10 0 1010 1000">
   <path fill="currentColor"
d="M277 611v-396h-134v396h134zM483 289v88h346v-88h-346zM483 148v87h346v-87h-346zM533 505h396s0 22 -1 32c-11 264 -21 358 -48 389c-15 19 -33 26 -61 29c-24 2 -67 1 -113 -1c-1 -17 -8 -43 -18 -60c43 4 84 5 100 5c15 0 25 -2 31 -12c19 -21 30 -102 39 -320h-366
c-11 16 -23 31 -36 46v181h330v58h-330v51h-68v-220c-21 19 -44 37 -68 54c-10 -17 -33 -40 -48 -50l10 -7h-139v87h-65v-620h263v487c70 -62 120 -133 151 -199h-76v-344h484v344h-331c-10 23 -23 47 -36 70zM602 570l56 8c-7 25 -16 48 -27 70c45 31 97 72 125 100l-40 36
c-25 -26 -68 -63 -109 -93c-26 38 -59 71 -95 96c-10 -10 -33 -28 -46 -37c67 -40 115 -102 136 -180z" />
</svg>
