<?xml version="1.0" standalone="no"?>
<!DOCTYPE svg PUBLIC "-//W3C//DTD SVG 1.1//EN" "http://www.w3.org/Graphics/SVG/1.1/DTD/svg11.dtd" >
<svg xmlns="http://www.w3.org/2000/svg" xmlns:xlink="http://www.w3.org/1999/xlink" version="1.1" viewBox="-10 0 1010 1000">
   <path fill="currentColor"
d="M79 235l49 7c1 88 -13 201 -48 269l-48 -21c32 -61 46 -169 47 -255zM161 955v-912h69v912h-69zM801 657h-304v76h304v-76zM497 861h304v-76h-304v76zM427 956v-356h445v352h-71v-34h-304v38h-70zM482 364l42 -14c20 31 42 75 49 103l-44 18c-6 -28 -27 -73 -47 -107z
M743 473l-37 -17c18 -31 44 -79 56 -110l46 19c-23 39 -45 80 -65 108zM847 491v-165h-176v165h176zM451 326v165h164v-165h-164zM551 73h235c39 80 116 159 185 201c-18 11 -46 34 -59 49l-2 -1v226h-519v-232c-11 9 -21 18 -32 26c-11 -14 -29 -34 -43 -46
c11 40 18 79 20 108l-50 17c-4 -51 -21 -136 -44 -202l46 -12c10 26 19 55 27 83c65 -47 129 -124 159 -189l71 20c-25 50 -62 102 -104 147h405c-39 -38 -76 -83 -103 -130h-192v-65z" />
</svg>
