<?xml version="1.0" standalone="no"?>
<!DOCTYPE svg PUBLIC "-//W3C//DTD SVG 1.1//EN" "http://www.w3.org/Graphics/SVG/1.1/DTD/svg11.dtd" >
<svg xmlns="http://www.w3.org/2000/svg" xmlns:xlink="http://www.w3.org/1999/xlink" version="1.1" viewBox="-10 0 1010 1000">
   <path fill="currentColor"
d="M299 161l-44 58c-34 -35 -106 -83 -165 -113l42 -53c59 28 133 72 167 108zM252 419l-43 60c-34 -33 -107 -78 -168 -106l42 -54c59 26 133 67 169 100zM132 943l-66 -43c45 -77 109 -207 155 -320l58 41c-42 105 -98 229 -147 322zM951 235h-499
c-32 72 -70 136 -112 186c-12 -13 -42 -37 -60 -47c73 -80 131 -206 164 -332l73 17c-11 37 -23 73 -37 108h471v68zM711 706l-43 42c-28 -34 -87 -81 -137 -112l42 -36c49 29 108 74 138 106zM434 750h358c4 -40 7 -91 10 -154h-349c-6 54 -13 106 -19 154zM810 387h-335
c-4 46 -10 95 -15 144h218c-26 -31 -83 -74 -130 -101l40 -38c47 26 104 67 132 98l-40 41h125c2 -43 3 -91 5 -144zM961 596h-91c-3 62 -6 112 -10 154h91v64h-97c-8 58 -18 89 -31 105c-17 25 -37 32 -67 35c-28 2 -78 2 -126 -1c-2 -18 -8 -46 -19 -62c51 4 97 4 116 4
c17 1 27 -2 36 -14c8 -10 15 -31 21 -67h-359l-7 50l-71 -7c12 -69 26 -163 38 -261h-102v-65h110c8 -72 15 -143 20 -205h467s-1 25 -1 34c-2 64 -4 120 -6 171h88v65z" />
</svg>
