<?xml version="1.0" standalone="no"?>
<!DOCTYPE svg PUBLIC "-//W3C//DTD SVG 1.1//EN" "http://www.w3.org/Graphics/SVG/1.1/DTD/svg11.dtd" >
<svg xmlns="http://www.w3.org/2000/svg" xmlns:xlink="http://www.w3.org/1999/xlink" version="1.1" viewBox="-10 0 1010 1000">
   <path fill="currentColor"
d="M399 109v66h-318v-66h318zM77 564v-118h55v118c0 103 -6 220 -45 313c-9 -12 -32 -29 -47 -35c32 -84 37 -190 37 -278zM418 375h-147v581h-67v-581h-151v-66h365v66zM398 445v356h-55v-356h55zM568 665v195h232v-195h-232zM800 166h-232v182h232v-182zM800 600v-186
h-232v186h232zM873 860h89v68h-576v-68h111v-761h376v761z" />
</svg>
