<?xml version="1.0" standalone="no"?>
<!DOCTYPE svg PUBLIC "-//W3C//DTD SVG 1.1//EN" "http://www.w3.org/Graphics/SVG/1.1/DTD/svg11.dtd" >
<svg xmlns="http://www.w3.org/2000/svg" xmlns:xlink="http://www.w3.org/1999/xlink" version="1.1" viewBox="-10 0 1010 1000">
   <path fill="currentColor"
d="M349 78v60h-259v-60h259zM381 209v61h-339v-61h339zM353 344v59h-269v-59h269zM84 536v-60h269v60h-269zM290 838v-167h-144v167h144zM521 280v89h302v-89h-302zM521 136v88h302v-88h-302zM940 494v32c-13 272 -24 368 -51 401c-17 20 -34 27 -62 30c-25 2 -70 1 -116 -1
c-1 -20 -9 -48 -21 -65c47 4 89 4 106 4c16 0 24 -1 33 -12c19 -21 30 -105 39 -327h-348c-14 17 -29 34 -44 49h23v201h299v62h-299v54h-65v-278c-14 13 -29 24 -43 35c-8 -10 -24 -26 -38 -38v257h-207v47h-63v-335h270v9c69 -48 132 -117 174 -191h-75v-351h443v351h-291
c-11 22 -24 45 -38 66h374zM636 566l60 11c-6 25 -16 51 -28 77c43 31 92 71 118 98l-40 40c-22 -26 -63 -63 -102 -93c-24 37 -55 71 -91 94c-11 -11 -29 -29 -42 -39c67 -43 111 -119 125 -188z" />
</svg>
