<?xml version="1.0" standalone="no"?>
<!DOCTYPE svg PUBLIC "-//W3C//DTD SVG 1.1//EN" "http://www.w3.org/Graphics/SVG/1.1/DTD/svg11.dtd" >
<svg xmlns="http://www.w3.org/2000/svg" xmlns:xlink="http://www.w3.org/1999/xlink" version="1.1" viewBox="-10 0 630 1000">
   <path fill="currentColor"
d="M107 337v-87c0 -110 50 -179 158 -179c33 0 65 7 91 18l-20 69c-20 -9 -42 -14 -61 -14c-52 0 -77 37 -77 107v86h115v74h-115v469h-91v-469h-74v-69zM437 880v-543h92v543h-92zM483 107c36 0 64 22 64 59c0 34 -28 59 -64 59c-35 0 -62 -25 -62 -59c0 -37 27 -59 62 -59
z" />
</svg>
