<?xml version="1.0" standalone="no"?>
<!DOCTYPE svg PUBLIC "-//W3C//DTD SVG 1.1//EN" "http://www.w3.org/Graphics/SVG/1.1/DTD/svg11.dtd" >
<svg xmlns="http://www.w3.org/2000/svg" xmlns:xlink="http://www.w3.org/1999/xlink" version="1.1" viewBox="-10 0 1010 1000">
   <path fill="currentColor"
d="M724 262c-40 0 -75 -29 -75 -75s35 -75 75 -75s76 29 76 75s-36 75 -76 75zM643 909l-23 -53c81 -37 124 -90 127 -168c-6 2 -12 2 -18 2c-41 0 -75 -24 -75 -72c0 -47 36 -72 76 -72c55 0 86 47 86 122c0 116 -66 200 -173 241z" />
</svg>
