<?xml version="1.0" standalone="no"?>
<!DOCTYPE svg PUBLIC "-//W3C//DTD SVG 1.1//EN" "http://www.w3.org/Graphics/SVG/1.1/DTD/svg11.dtd" >
<svg xmlns="http://www.w3.org/2000/svg" xmlns:xlink="http://www.w3.org/1999/xlink" version="1.1" viewBox="-10 0 1010 1000">
   <path fill="currentColor"
d="M524 819c89 0 152 -62 152 -169c0 -106 -71 -156 -159 -156c-74 0 -140 44 -185 112c16 148 94 213 192 213zM751 220l-52 57c-43 -45 -88 -67 -153 -67c-97 0 -209 74 -217 310c53 -57 117 -97 200 -97c126 0 234 72 234 225c0 155 -106 244 -240 244
c-153 0 -282 -102 -282 -343c0 -300 153 -415 303 -415c98 0 163 38 207 86z" />
</svg>
