<?xml version="1.0" standalone="no"?>
<!DOCTYPE svg PUBLIC "-//W3C//DTD SVG 1.1//EN" "http://www.w3.org/Graphics/SVG/1.1/DTD/svg11.dtd" >
<svg xmlns="http://www.w3.org/2000/svg" xmlns:xlink="http://www.w3.org/1999/xlink" version="1.1" viewBox="-10 0 1010 1000">
   <path fill="currentColor"
d="M502 892c-167 0 -268 -89 -268 -199c0 -92 52 -155 139 -201v-4c-72 -38 -108 -92 -108 -162c-1 -111 96 -193 235 -193c148 0 237 85 238 192c0 71 -36 131 -111 184v4c91 45 137 101 137 184c0 107 -95 195 -262 195zM567 486c71 -55 91 -99 90 -153
c0 -66 -55 -132 -160 -132c-86 0 -148 56 -148 125c0 91 103 128 218 160zM505 825c108 0 169 -60 169 -131c0 -96 -106 -132 -241 -171c-76 44 -114 95 -114 162c0 77 73 140 186 140z" />
</svg>
