<?xml version="1.0" standalone="no"?>
<!DOCTYPE svg PUBLIC "-//W3C//DTD SVG 1.1//EN" "http://www.w3.org/Graphics/SVG/1.1/DTD/svg11.dtd" >
<svg xmlns="http://www.w3.org/2000/svg" xmlns:xlink="http://www.w3.org/1999/xlink" version="1.1" viewBox="-10 0 1010 1000">
   <path fill="currentColor"
d="M240 880v-735h249c177 0 280 51 280 181c0 72 -38 135 -118 159v5c102 17 164 78 164 175c0 150 -101 215 -305 215h-270zM332 458h142c140 0 202 -37 202 -120c0 -88 -62 -120 -194 -120h-150v240zM332 806h167c152 0 224 -36 224 -144c0 -91 -68 -132 -227 -132h-164
v276z" />
</svg>
