<?xml version="1.0" standalone="no"?>
<!DOCTYPE svg PUBLIC "-//W3C//DTD SVG 1.1//EN" "http://www.w3.org/Graphics/SVG/1.1/DTD/svg11.dtd" >
<svg xmlns="http://www.w3.org/2000/svg" xmlns:xlink="http://www.w3.org/1999/xlink" version="1.1" viewBox="-10 0 510 1000">
   <path fill="currentColor"
d="M388 927h-64c1 -9 1 -26 2 -42h-174c-15 0 -36 2 -44 3v-81c8 1 27 3 44 3h174v-157h-152c-17 0 -40 2 -49 2v-77c10 3 32 5 48 5h153v-143h-158c-13 0 -46 2 -55 3v-77c9 2 42 4 55 4h183c11 0 30 -1 36 -2c-1 11 -2 36 -2 56v444c0 17 1 45 3 59z" />
</svg>
