<?xml version="1.0" standalone="no"?>
<!DOCTYPE svg PUBLIC "-//W3C//DTD SVG 1.1//EN" "http://www.w3.org/Graphics/SVG/1.1/DTD/svg11.dtd" >
<svg xmlns="http://www.w3.org/2000/svg" xmlns:xlink="http://www.w3.org/1999/xlink" version="1.1" viewBox="-10 0 510 1000">
   <path fill="currentColor"
d="M441 477l9 86c-11 1 -27 5 -46 11c-26 8 -69 22 -114 37c8 94 16 174 18 197c3 29 7 65 11 93l-69 18c-1 -31 -3 -64 -6 -94l-16 -194c-50 16 -97 32 -120 40c-21 8 -34 12 -44 18l-9 -87c11 -1 31 -6 44 -9c24 -7 71 -21 123 -38l-16 -186c-43 14 -82 26 -100 32
c-16 5 -29 11 -40 17l-8 -90c12 -2 25 -3 41 -7c18 -4 57 -15 100 -28l-8 -95c-2 -26 -4 -48 -8 -69l67 -17c1 19 2 47 4 69c1 10 3 45 7 93c42 -14 79 -26 98 -33c14 -5 27 -11 36 -16l8 84c-8 1 -23 5 -36 9c-20 7 -58 19 -99 31l16 186c45 -15 88 -29 113 -38
c19 -7 33 -14 44 -20z" />
</svg>
