<?xml version="1.0" standalone="no"?>
<!DOCTYPE svg PUBLIC "-//W3C//DTD SVG 1.1//EN" "http://www.w3.org/Graphics/SVG/1.1/DTD/svg11.dtd" >
<svg xmlns="http://www.w3.org/2000/svg" xmlns:xlink="http://www.w3.org/1999/xlink" version="1.1" viewBox="-10 0 510 1000">
   <path fill="currentColor"
d="M464 838l-55 61c-31 -81 -79 -185 -128 -273c-55 107 -123 205 -194 268l-41 -67c81 -63 155 -182 208 -297c36 -77 72 -194 84 -262h-188c-19 0 -50 4 -56 5v-90c7 2 40 6 56 6h193c17 0 34 -3 42 -8l37 37c-3 8 -10 31 -13 44c-17 80 -53 197 -91 287
c54 89 114 213 146 289z" />
</svg>
