<?xml version="1.0" standalone="no"?>
<!DOCTYPE svg PUBLIC "-//W3C//DTD SVG 1.1//EN" "http://www.w3.org/Graphics/SVG/1.1/DTD/svg11.dtd" >
<svg xmlns="http://www.w3.org/2000/svg" xmlns:xlink="http://www.w3.org/1999/xlink" version="1.1" viewBox="-10 0 510 1000">
   <path fill="currentColor"
d="M472 876l-64 39c-6 -33 -15 -76 -26 -122c-82 19 -242 48 -306 60c-12 2 -27 7 -41 11l-9 -95c15 0 32 0 47 -2l11 -1c28 -134 83 -431 97 -531c7 -46 9 -70 10 -96l76 22c-5 25 -12 50 -18 93c-14 93 -68 374 -93 502c69 -11 153 -27 207 -40c-21 -82 -45 -163 -64 -213
l59 -34c36 101 94 304 114 407z" />
</svg>
