<?xml version="1.0" standalone="no"?>
<!DOCTYPE svg PUBLIC "-//W3C//DTD SVG 1.1//EN" "http://www.w3.org/Graphics/SVG/1.1/DTD/svg11.dtd" >
<svg xmlns="http://www.w3.org/2000/svg" xmlns:xlink="http://www.w3.org/1999/xlink" version="1.1" viewBox="-10 0 510 1000">
   <path fill="currentColor"
d="M400 368l38 35c-4 9 -8 22 -9 30c-13 98 -34 196 -72 278c-52 112 -119 175 -181 210l-47 -70c68 -30 132 -98 173 -184c30 -64 45 -144 54 -217h-233c-12 0 -36 1 -54 4v-84c18 3 41 5 54 5h243c11 0 28 -2 34 -7zM113 229v-82c14 3 35 4 51 4h186c16 0 38 -1 51 -4v82
c-13 -2 -35 -2 -52 -2h-185c-15 0 -37 1 -51 2z" />
</svg>
