<?xml version="1.0" standalone="no"?>
<!DOCTYPE svg PUBLIC "-//W3C//DTD SVG 1.1//EN" "http://www.w3.org/Graphics/SVG/1.1/DTD/svg11.dtd" >
<svg xmlns="http://www.w3.org/2000/svg" xmlns:xlink="http://www.w3.org/1999/xlink" version="1.1" viewBox="-10 0 510 1000">
   <path fill="currentColor"
d="M63 905l-48 -55c43 -64 68 -145 83 -242c13 -91 15 -272 15 -383c0 -30 0 -52 -4 -73h66c-2 12 -3 42 -3 72c0 111 -2 306 -16 406c-16 107 -49 205 -93 275zM288 902l-43 -43c3 -16 5 -36 5 -56v-578c0 -38 -3 -66 -4 -74h67c-2 8 -4 36 -4 74v548
c45 -44 100 -128 138 -239l38 69c-46 119 -123 222 -180 277c-7 7 -12 15 -17 22z" />
</svg>
