<?xml version="1.0" standalone="no"?>
<!DOCTYPE svg PUBLIC "-//W3C//DTD SVG 1.1//EN" "http://www.w3.org/Graphics/SVG/1.1/DTD/svg11.dtd" >
<svg xmlns="http://www.w3.org/2000/svg" xmlns:xlink="http://www.w3.org/1999/xlink" version="1.1" viewBox="-10 0 1010 1000">
   <path fill="currentColor"
d="M369 802h410v78h-546v-55c86 -46 133 -116 133 -199c0 -23 -4 -46 -11 -68h-122v-59l74 -3h25c-17 -44 -35 -87 -35 -131c0 -134 102 -218 258 -218c103 0 175 39 223 99l-52 52c-40 -50 -92 -75 -165 -75c-112 0 -175 60 -175 144c0 44 17 86 33 129h266v62h-245
c5 22 9 44 9 68c0 78 -31 122 -80 172v4z" />
</svg>
