<?xml version="1.0" standalone="no"?>
<!DOCTYPE svg PUBLIC "-//W3C//DTD SVG 1.1//EN" "http://www.w3.org/Graphics/SVG/1.1/DTD/svg11.dtd" >
<svg xmlns="http://www.w3.org/2000/svg" xmlns:xlink="http://www.w3.org/1999/xlink" version="1.1" viewBox="-10 0 1010 1000">
   <path fill="currentColor"
d="M703 651l22 -115h-104l25 115l27 145h5zM461 489h82l-6 -27l-33 -189h-5l-32 189zM364 651l25 -115h-103l23 115l23 145h4zM910 489v47h-117l-75 344h-88l-77 -344h-102l-76 344h-83l-79 -344h-122v-42l83 -5h29l-76 -330h85l65 330h122l61 -285h87l63 285h124l63 -330
h79l-72 330h106z" />
</svg>
